<svg xmlns="http://www.w3.org/2000/svg" viewBox="0 0 2487.500244140625 1499"><path d="M3.667 906q5.5-112 48.5-211t127.5-180 194.5-125q132-56 316-30 81-162 232-261t337-99q169 0 311 84.5t223 226 81 304.5v59h15q165-65 325.5 7.5t229.5 232.5q65 165-7.5 326t-232.5 230l-34 8.5-33 8.5-27.5 6-29.5 4.5-26 1.5h-1484q-173 0-316.5-99.5T45.167 1124q-47-106-41.5-218zm918-212.5q-12.5 19.5 8.5 41.5l269 449q15 16 30 16 7 0 14.5-4t11.5-8l4-4 286-449q12-24-.5-42.5t-45.5-18.5h-105V465h-315v209h-120q-25 0-37.5 19.5z"/></svg>