<svg xmlns="http://www.w3.org/2000/svg" viewBox="0 0 1619 1920"><path d="M0 1740V180q0-74 52.5-127T179 0h1261q74 0 126.5 53t52.5 127v1560q0 74-52.5 127t-126.5 53H179q-74 0-126.5-53T0 1740zm367-602q0 121 59 223t161.5 161.5T810 1582q184 0 314.5-130t130.5-314-130.5-314.5T810 693q-90 0-172 35.5t-141.5 95-94.5 142-35 172.5zm120-15q6-129 99.5-219.5T810 813q122 0 213 80.5t108 199.5q0 1-.5 3.5t-.5 4.5q0 43-31 74t-74 31q-44 0-73-29-111-111-266-111-110 0-199 57zm713-792q0 37 26.5 63t63.5 26 63-26 26-63-26-63.5-63-26.5q-38 0-64 26t-26 64z"/></svg>