<svg xmlns="http://www.w3.org/2000/svg" viewBox="0 0 2219 1200"><path d="M0 921q0 16 17 27.5T59 960t42.5-11.5T119 921V278q0-16-17.5-27T59 240t-42 11-17 27v643zm254 120q0 16 17.5 27.5T314 1080t42.5-11.5T374 1041V158q0-16-17.5-27T314 120t-42.5 11-17.5 27v883zm288 80q0 32 23.5 55.5T621 1200h978q32 0 55-23.5t23-55.5V80q0-34-23-57t-55-23H621q-33 0-56 23.5T542 80v1041zm1303-80V158q0-16 17.5-27t41.5-11q25 0 43 11t18 27v883q0 16-18 27.5t-43 11.5q-24 0-41.5-11.5T1845 1041zm254-120V278q0-16 17.5-27t42.5-11 42.5 11 17.5 27v643q0 16-17.5 27.5T2159 960t-42.5-11.5T2099 921z"/></svg>