<svg xmlns="http://www.w3.org/2000/svg" viewBox="0 0 1920 1920"><path d="M0 960q0-196 76-373.5t204.5-306T586.5 76 960 0q195 0 373 76t306.5 204.5 204.5 306 76 373.5q0 195-76 373t-204.5 306.5T1333 1844t-373 76q-196 0-373.5-76t-306-204.5T76 1333 0 960zm181 0q0 100 27 203 72-195 211-337-2-4-4-12.5t-2-9.5h-11q-100 0-210 28-11 66-11 128zm41-251q95-18 180-18 4 0 11 .5t11 .5q21-42 60-67t87-25q57 0 104 37 184-94 397-98 10-23 22-38-150-197-385-279-172 59-300.5 187T222 709zm55 624q86 158 234.5 263.5T842 1730q174-101 281-263-40-46-40-106 0-70 52-119-71-130-182-228.5T704 861q-50 68-133 68-39 0-76-20-173 181-218 424zm457-597q1 3 1.5 9t.5 9q162 61 292.5 175.5T1241 1197q24-99 24-191 0-113-38-240h-3q-55 0-97.5-32t-59.5-82q-177 7-333 84zm161-554q171 98 292 260 18-5 37-5 63 0 109.5 43t52.5 105q186 61 331 187-65-257-275.5-425T960 179q-10 0-20.5.5t-24 1.5-20.5 1zm135 1554q99-8 204-47 0-6 2-23.5t2-27.5q0-46-9-114-2-1-7-1-78 119-192 213zm303-1011q44 145 44 281 0 114-28 226 64 49 64 129 0 85-74 137 11 71 11 136 178-103 284.5-282.5T1741 960v-3q-155-188-381-263-14 19-27 31z"/></svg>