<svg xmlns="http://www.w3.org/2000/svg" viewBox="0 0 1920 1920"><path d="M0 960q0-196 76-373.5t204.5-306T586.5 76 960 0q173 0 331.5 58.5T1577 225q85 64 146 154 197 258 197 581 0 195-76 373t-204.5 306.5T1333 1844t-373 76q-196 0-373.5-76t-306-204.5T76 1333 0 960zm192-128q104-28 210-28h11q0 1 2 9.5t4 12.5q-142 145-211 336 23 88 69 172 45-244 218-425 35 20 76 20 83 0 133-68 138 54 249 152.5t182 228.5q-52 49-52 119 0 59 40 107-110 163-280 262 59 9 117 9 35 0 71-3 114-95 191-213h3l2 1q10 63 10 114l-3 51q64-24 116-55 0-65-11-136 74-52 74-137 0-80-64-129 28-112 28-226 0-136-44-281 15-13 26-31 227 75 380 261 0-91-22-184-148-127-331-186-6-62-52.5-105T1224 437q-19 0-37 5-122-163-293-260-90 9-183 39 233 84 383 280-12 15-22 38-213 4-397 98-47-37-104-37-48 0-87 25t-60 67q-4 0-11-.5t-11-.5q-85 0-180 18-19 57-30 123zm542-96q163-80 333-84 17 50 59.5 82t97.5 32h3q37 124 37 240 0 98-24 191-80-152-211-266.5T736 754q0-3-.5-9t-1.5-9z"/></svg>