<svg xmlns="http://www.w3.org/2000/svg" viewBox="0 0 1920 1462"><path d="M0 732q0-61 31.5-138T120 435.5 264 276t189.5-139.5 235-99T960 0t271.5 37.5 235 99T1656 276t144 159.5 88.5 158.5 31.5 138q0 60-31.5 137t-88.5 158.5-144 159-189.5 139-235 99T960 1462t-271.5-37.5-235-99-189.5-139-144-159T31.5 869 0 732zm480 0q0 130 64.5 240t175 174 240.5 64 240.5-64 175-174 64.5-240-64.5-240.5-175-175T960 252t-240.5 64.5-175 175T480 732zm279 0q0 83 59 142t142 59 142-59 59-142q0-84-59-143.5T960 529t-142 59.5T759 732z"/></svg>