<svg xmlns="http://www.w3.org/2000/svg" viewBox="0 0 1920 1920"><path d="M0 960q0-195 76-373t204.5-306.5T587 76 960 0t372.5 76T1639 280.5 1844 587t76 373-76 373-205 306.5-306.5 204.5-372.5 76-373-76-306.5-204.5T76 1333 0 960zm376 404q0 64 38.5 108.5T511 1531q53 15 120 15 251 0 251-210 0-51-27-86t-71-50q-3-1-34.5-10t-48.5-13q-99-25-99-71 0-49 55-58 86-17 137-79.5T845 818q0-25-12-58 48-13 55-15V604q-87 33-151 33-57-33-124-33-97 0-163 64.5T384 829q0 58 33.5 115.5T499 1019v3q-42 20-42 96 0 58 46 86v4q-127 43-127 156zm142-8q0-72 109-72 116 0 116 69 0 74-105 74-120 0-120-71zm15-526q0-101 85-101 40 0 62 28.5t22 71.5q0 95-84 95-85 0-85-94zm404-426q0 41 28 71t67 30 67-30.5 28-70.5q0-41-27.5-71.5T1032 302t-67.5 30-27.5 72zm17 812h155q-3-45-3-101V697q0-47 3-86H954q4 38 4 89v423q0 51-4 93zm220-474l41-3h14q6 1 12 1v2h-2v245q0 84 16 135 21 67 76 89 33 14 75 14 70 0 121-28v-136q-35 24-77 24-59 0-59-92V740h58q17 0 30 1t30 1V611h-118q0-92 3-114h-157q4 24 4 61v53h-67v131z"/></svg>