<svg xmlns="http://www.w3.org/2000/svg" viewBox="0 0 1920 1920"><path d="M0 960q0-196 76-373.5t204.5-306T587 76 960 0t373 76 306.5 204.5 204.5 306 76 373.5q0 195-76 373t-204.5 306.5T1333 1844t-373 76-373-76-306.5-204.5T76 1333 0 960zm181 0q0 156 59.5 298t161 245.5 241 167T937 1739q-15-17-23-69-2-13-5-50.5t-7-56.5q-2-13-36-111-10-31-22-39.5t-46-10.5q-18-1-51-1.5t-56-2-53-4.5-51-11.5-42-22-34-36.5-18-54q-22-127 78-211 51-42 107-56.5T809 990q50 1 86 28 45 37 91 39 10 1 45 4t57.5 4.5 52-2.5 48.5-14v-13q0-4 2-15.5t2.5-19-2-15.5-10.5-12q-9-4-42-1.5t-40-8.5q-18-17 4.5-34t61.5-32 44-20q29-30-12-38-40-8-79 9-8 4-13 8-18 17-36 59-5 13-18.5 33.5T1032 980q-3-5-11-12.5t-11-11.5q-6-7-23-41-2-4-5-12.5t-5-13.5-6-12.5-8-10-11-5.5-14 1q-2 21 14 47t16 40q1 27-12 24.5T927 947q-4-6-11-18.5t-11-18-12-12.5-18.5-8.5-24.5.5q-26 4-41 15-4 3-15 16t-20 16q-6 35-54 33-2 0-12.5-.5t-17-1-15.5-2-15-4.5-9-8q-5-10 4.5-43.5T673 867t21.5-13.5 39-2.5 27.5 1q4-18-10-33.5T735 798q-2-11-2-16.5t7-8 13-2.5h15l13-1q37-7 61-31 1-1 7.5-6.5t9.5-7.5l10.5-7 11-5 11.5-2.5 12 1.5q4 1 12 9.5t13 9.5q7 2 32-7 26-9 39-21t27-36q26-42 8-71-12-17-31-12t-29 25q-3 7-6 22t-7.5 25.5T949 673q-10 7-32 8.5t-34-4.5q-9-4-13-12.5t-4-15 1.5-20.5 1.5-18q0-8 2-15t4.5-12 7.5-11 8.5-9.5 10-9.5 10.5-10q16-16 33.5-24.5T985 511t35 1 41.5 8 37.5 9q35 7 74-36 6-8 17.5-17.5t16-17.5 4.5-23q0-14-2.5-48.5t-3.5-58 3.5-53T1224 227q-128-47-264-47-96 0-193 25l-1 5q0 38 4 43 9 11 33 15t46 5 37 13.5 9 37.5q-7 28-39.5 62.5T790 445q-41 30-100 38-1 0-11.5 1.5t-15 1.5-16 1-18 0-16.5-2-15.5-3.5-11-6.5-8-10.5T576 450q1-18 17.5-32.5t34.5-21 44-14.5 34-11q2-25-7-33.5t-24.5-4-34 11.5-35.5 12-30-2q-5-16 11.5-27t18.5-15q9-21-18-38-59 32-107 72 21 3 35 13t13 29q0 10-4.5 18t-8.5 12-12.5 11.5T490 441q-30 28-44 51-6 9-14 43.5T409 579q-23 13-31.5 1T367 542v-17l-2.5-5.5-7.5-5.5q-13-4-37 2-139 199-139 444zm1010 148q-3 62 41 109 55 57 107 66 21 4 58.5-3t50.5-7q1 34-39 108-44 76-67 100-5 5-14.5 13.5t-14 13-11 12.5-8 14-1.5 15 4 19q2 5 8.5 18t6.5 16-2 19q-3 8-8 12.5t-14 8.5-13 7q-9 6-23.5 17t-26 19.5-24.5 15.5q238-78 389-281.5T1741 960q0-26-4-74-8 11-9 24-5 35-5 43 0 7 1.5 28.5t.5 37.5-8 24q-6 7-13 8t-15-4-14.5-11-15-14-13.5-11q-18-12-29-18.5t-26.5-12-30.5-4.5-32 9q-36 18-80 18-7 0-22.5-1t-25.5-1-22.5 2.5-20.5 7.5q2 22 15.5 41t34.5 20q10 0 15-3.5t9.5-9.5 10.5-9q15-10 47-8 3 52 0 63t-13 25.5-12 25.5q-1 5-3.5 19.5t-4.5 21-7.5 16-13.5 16.5q-16 13-35 18.5t-35-4.5q-6-5-16.5-19.5T1330 1202q-6-5-11-9t-10-10-7.5-9.5-8-12-8.5-12.5q-12-17-42.5-37t-39.5-30q-8 5-9.5 8.5t-2.5 17.5z"/></svg>