<svg xmlns="http://www.w3.org/2000/svg" viewBox="0 0 1920 1920"><path d="M0 960q0-195 76-373t204.5-306.5T587 76 960 0t373 76 306.5 204.5T1844 587t76 373-76 373-204.5 306.5T1333 1844t-373 76q-196 0-377-77h2q218 0 348-104t130-248q0-95-50-163-41-53-106-104-36-28-49-40-51-43-51-85 0-52 67-110 18-17 56-55 68-72 68-190 0-77-33.5-146.5T871 491h114l116-66H728q-76 0-159 17-120 26-200.5 120.5T288 776q0 125 90.5 209t218.5 84q13 0 59-4-1 5-6.5 19.5T643 1101q-5 15-5 37 0 57 55 127-63 1-128 11-169 28-256 92-45 33-74 80.5t-37 96.5Q0 1288 0 960zm353 578q0-55 23-92 39-68 143-102 84-28 182-28 23 0 43 2 4 2 54 37 2 2 14.5 11t23.5 17.5 15 12.5q3 3 13.5 13t20 19 13.5 15q1 4 17 26 12 17 15 30 12 36 12 65 0 109-87 157-77 44-182 44-113 0-210-52-50-26-80-72t-30-103zm93-853q0-86 45-143t122-57q54 0 100 34.5t73 89.5q54 114 54 220 0 88-38.5 138.5T683 1018q-42 0-83-22-70-43-114-138-40-86-40-173zm623 67h218v218h108V752h219V643h-219V425h-108v218h-218v109z"/></svg>