<svg xmlns="http://www.w3.org/2000/svg" viewBox="0 0 2057 1019"><path d="M0 876V467q0-53 35-93h-1l191-251q43-61 118-61h135Q707 0 1029 0q321 0 550 62h135q75 0 118 61l191 251h-1q35 40 35 93v409q0 59-42 101t-101 42H144q-60 0-102-42T0 876zm203-123q0 32 22.5 54.5T280 830h181q31 0 53.5-22.5T537 753t-22.5-54.5T461 676H280q-32 0-54.5 22.5T203 753zm149-483q0 46 90.5 84.5t246.5 61 340 22.5 339.5-22.5 246-61T1705 270t-90.5-84.5-246-61T1029 102t-340 22.5-246.5 61T352 270zm299 483q0 32 22.5 54.5T728 830h22q31 0 53.5-22.5T826 753t-22.5-54.5T750 676h-22q-32 0-54.5 22.5T651 753zm175-483q0-20 60-35.5t143-15.5q82 0 141.5 15.5T1230 270t-59 35-142 15q-84 0-143.5-15T826 270z"/></svg>