<svg xmlns="http://www.w3.org/2000/svg" viewBox="0 0 1920 1920"><path d="M0 960q0-196 76-373.5t204.5-306T586.5 76 960 0q195 0 373 76t306.5 204.5 204.5 306 76 373.5q0 195-76 373t-204.5 306.5T1333 1844t-373 76q-196 0-373.5-76t-306-204.5T76 1333 0 960zm240 0q0 146 57 279.5t153.5 230 230 153.5 279.5 57 279.5-57 230-153.5 153.5-230 57-279.5-57-279.5-153.5-230-230-153.5T960 240t-279.5 57-230 153.5-153.5 230T240 960zm576-348q0-58 39.5-93T960 484q66 0 105 34.5t39 93.5-39 94-105 35q-65 0-104.5-35T816 612zm9 823V822h271v613H825z"/></svg>