<svg xmlns="http://www.w3.org/2000/svg" viewBox="0 0 1920 1477"><path d="M0 1329q0 61 43 104.5t104 43.5h66q61 0 104-43.5t43-104.5-43-104-104-43h-66q-61 0-104 43T0 1329zm0-590q0 61 43 104t104 43h66q61 0 104-43t43-104-43-104.5T213 591h-66q-61 0-104 43.5T0 739zm0-591q0 61 43 104t104 43h66q61 0 104-43t43-104-43-104.5T213 0h-66Q86 0 43 43.5T0 148zm480 1181q0 61 43 104.5t104 43.5h1146q61 0 104-43.5t43-104.5-43-104-104-43H627q-61 0-104 43t-43 104zm0-590q0 61 43 104t104 43h1146q61 0 104-43t43-104-43-104.5-104-43.5H627q-61 0-104 43.5T480 739zm0-591q0 61 43 104t104 43h1146q61 0 104-43t43-104-43-104.5T1773 0H627q-61 0-104 43.5T480 148z"/></svg>