<svg xmlns="http://www.w3.org/2000/svg" viewBox="0 0 1920 1920"><path d="M0 1740V180q0-74 53.5-127T181 0h240v360h1080V0h240q74 0 126.5 53t52.5 127v1560q0 74-52.5 127t-126.5 53h-240v-360H421v360H181q-74 0-127.5-53T0 1740zm151-90v120h120v-120H151zm0-181h120v-120H151v120zm0-299h120v-120H151v120zm0-301h120V749H151v120zm0-299h120V450H151v120zm0-301h120V149H151v120zm270 991h1080V660H421v600zm1228 390v120h120v-120h-120zm0-181h120v-120h-120v120zm0-299h120v-120h-120v120zm0-301h120V749h-120v120zm0-299h120V450h-120v120zm0-301h120V149h-120v120z"/></svg>