<svg xmlns="http://www.w3.org/2000/svg" viewBox="0 0 1807 1979"><path d="M0 209q0-37 26-63 26-25 64-25t64 25l1627 1604q26 25 26 62t-26 62q-25 26-63 26t-64-26L26 272Q0 246 0 209zm243 895V887q0-37 26.5-63t64.5-26q37 0 63.5 26t26.5 63v217q0 182 131.5 311.5T872 1545q121 0 221-57l130 129q-116 76-256 98v87h280q37 0 63.5 26t26.5 62q0 37-26.5 63t-63.5 26H506q-37 0-63.5-26t-26.5-63q0-36 26.5-62t63.5-26h280v-86q-151-20-275.5-106t-196-219.5T243 1104zm296-10V944l460 452q-63 26-127 26-138 0-235.5-96T539 1094zm0-735v-31q0-136 97.5-232T872 0t235.5 96 97.5 232v687zm781 769q0-4 .5-12t.5-12V887q0-37 26-63t63-26q38 0 64.5 26t26.5 63v217q0 87-27 176z"/></svg>