<svg xmlns="http://www.w3.org/2000/svg" viewBox="0 0 1920 1797"><path d="M0 1427V379q0-72 53.5-123.5T181 204h120v-29q0-73 52.5-124T480 0h960q74 0 126.5 51t52.5 124v41q0-2 1.5-5.5t1.5-6.5h117q74 0 127.5 51.5T1920 379v1048q0 72-53 123t-128 51h-120v20q0 73-52.5 124.5T1440 1797H480q-74 0-126.5-51.5T301 1621v-20H181q-75 0-128-51T0 1427zm421 194q0 23 17 39.5t42 16.5h960q25 0 43-16.5t18-39.5V927q-43-24-92-24H510q-47 0-89 24v694zm0-1254q31 12 60 12h960q25 0 60-11V175q0-23-18-39t-43-16H480q-25 0-42 16t-17 39v192z"/></svg>