<svg xmlns="http://www.w3.org/2000/svg" viewBox="0 0 2088.5 1920"><path d="M7 777q10.5-17 40.5-17h141q35-161 122-301.5T520 217 800.5 58t328-58q195 0 372.5 76t306.5 204 205 305.5 76 372.5-76 373-205 307-306.5 205.5-372.5 76.5q-330 0-591-204-49-38-56.5-99.5t30.5-109.5q38-49 99.5-56.5t109.5 30.5q182 140 408 140 180 0 332-89t240.5-241.5 88.5-332.5q0-134-52.5-256.5t-141-211-211-141-256.5-52.5q-219 0-392.5 129.5T497.5 760h89q30 0 40 17t-6 42l-276 454q-12 16-28 16-7 0-13.5-4t-9.5-8l-3-4-278-454q-16-25-5.5-42z"/></svg>