<svg xmlns="http://www.w3.org/2000/svg" viewBox="0 0 1920 1821"><path d="M0 906q0-77 15-169 102 7 193.5-40T352 559q52-94 47-196t-62-187Q469 62 645 0q47 85 131 135.5T960 186t183.5-50.5T1274 0q174 62 308 176-44 81-44 174.5t48 176.5q49 85 133 132t179 47q22 101 22 200 0 66-14 153-92 2-172.5 49.5T1605 1239q-51 90-48.5 188.5T1611 1609q-135 124-298 190-47-86-131.5-137T997 1611q-107 0-195.5 57.5T670 1821q-169-54-313-169 57-84 61.5-185.5T370 1271q-54-95-150.5-142.5T18 1093Q0 1009 0 906zm600 0q0 149 105.5 254.5T960 1266t254.5-105.5T1320 906t-105.5-254.5T960 546 705.5 651.5 600 906z"/></svg>