<svg xmlns="http://www.w3.org/2000/svg" viewBox="0 0 1920 1920"><path d="M0 941q0-68 48.5-116T165 777h705L643 550q-48-48-48-116t48-117q49-48 117.5-48T877 317l506 508q49 48 49 116t-49 116l-496 497q-48 48-116.5 48T654 1554t-48-116 48-117l216-215H165q-68 0-116.5-48.5T0 941zm1192 814q0-68 48.5-116.5T1357 1590h147q36 0 61.5-25t25.5-61V414q0-35-25.5-60t-61.5-25h-147q-68 0-116.5-48.5T1192 164t48.5-116T1357 0h147q173 0 294.5 121T1920 414v1090q0 173-122 294.5T1504 1920h-147q-68 0-116.5-48.5T1192 1755z"/></svg>