<svg xmlns="http://www.w3.org/2000/svg" viewBox="0 0 2149 1192"><path d="M0 978q0 40 29 60.5t62 14.5q31-6 43.5-22t12.5-53V688q0-31-21.5-52.5T73 614q-30 0-51.5 21.5T0 688v290zm230 124q0 29 20.5 43.5T303 1160q33 0 53.5-14.5T377 1102V426q0-30-21.5-51.5T303 353q-30 0-51.5 21.5T230 426v676zm229 32q0 29 21 43.5t54 14.5q32 0 52.5-14.5T607 1134V517q0-31-21.5-53T534 442q-31 0-53 22t-22 53v617zm230 3q0 55 74 55t74-55V137q0-84-51-95-33-8-65 19t-32 76v1000zm234 29V78q0-52 31-62 67-16 133-16 153 0 285 72t213.5 196.5T1680 543q61-26 130-26 140 0 239.5 99t99.5 238q0 140-99.5 239t-238.5 98H941q-9-3-13.5-11t-4.5-14z"/></svg>