<svg xmlns="http://www.w3.org/2000/svg" viewBox="0 0 1920 1920"><path d="M0 960q0-195 76-373t204.5-306.5T587 76 960 0t373 76 306.5 204.5T1844 587t76 373-76 373-204.5 306.5T1333 1844t-373 76-373-76-306.5-204.5T76 1333 0 960zm389 408q0 10 9 16 13 10 55 32 149 76 313 76 206 0 372-105 80-51 142-122.5t98.5-149T1433 960t17-151v-22q72-52 112-119 4-6 4-11 0-8-6.5-14.5T1545 636l-15 5q-39 16-45 17 17-20 33.5-50t16.5-44q0-7-6.5-13t-14.5-6q-4 0-10 2-74 40-131 53-74-72-178-72-105 0-179 74t-74 179q0 13 2 31-214-20-371-162-28-27-70-72-7-8-17-8-11 0-15 10-36 50-36 128 0 90 59 160-2 0-20-8-14-7-21-7-10 0-17 6t-7 16q0 66 33 123.5t89 92.5h-3q-2-1-5-1-3-1-8-1-8 0-14 5.5t-6 13.5q0 1 2 7 20 63 68.5 108t113.5 61q-106 66-235 66-3 0-29-2-7 0-16-.5t-11-.5q-7 0-13 6.5t-6 14.5z"/></svg>