<svg xmlns="http://www.w3.org/2000/svg" viewBox="0 0 2002 1884.833251953125"><path d="M0 1884.833q0-18 2-46t21.5-91.5 54.5-98.5q34-34 132-74.5t222.5-85.5 183.5-75q74-36 114-109.5t40-151.5q0-55-63-126-37-44-64-120-89-37-89-149 0-83 29-120-8-56-18-165-2-16-4.5-42.5t5-90.5 31.5-108q38-67 96.5-92.5t95.5-9.5q1 0 1-1 2-10 9-26.5t29-44 51-42.5q16-8 52-12.5t87.5-1 107 15.5 111 43.5 99.5 77.5 72.5 121.5 29.5 171.5q1 21 0 41-8 92-19 165 29 37 29 120 0 112-89 149-27 76-64 120-63 71-63 126 0 78 40 151.5t114 109.5q59 30 183.5 75t223 85.5 132.5 74.5q35 35 54 94t21 101l2 41H0z"/></svg>