<svg xmlns="http://www.w3.org/2000/svg" viewBox="0 0 2512 2512"><path d="M0 1890l278-278 97 97 450-450q-62-91-52-203.5T863 862q80-80 192.5-89.5T1259 826l451-452-97-97L1890 0l278 277-278 278-97-97-291 291q136-32 251-32 207 0 397 79t336 225q26 26 26 63t-26 63-63 26-63-26q-122-122-278.5-186.5T1753 896q-198 0-375 86 30 81 10.5 170t-83.5 153q-65 64-153 83.5T983 1378q-77 160-86 336.5t55 346 194 299.5q26 26 26 62.5t-26 62.5q-27 27-63 27-34 0-61-27-197-196-267-459.5t-4-524.5l-293 292 97 97-277 278zm167 0l111 111 109-111-109-110zM1781 277l109 111 110-111-110-109z"/></svg>