<svg xmlns="http://www.w3.org/2000/svg" fill-rule="evenodd" stroke-miterlimit="1.414" viewBox="0 0 16 16" clip-rule="evenodd" stroke-linejoin="round"><path fill-rule="nonzero" d="M14.008 13.3c-.113-.114-.21-.18-.294-.204a.21.21 0 0 0-.22.053l-.056.054a6.34 6.34 0 0 1-2.012 1.357c-.78.33-1.61.498-2.464.498a6.297 6.297 0 0 1-4.477-1.853 6.07 6.07 0 0 1-1.357-2.012 6.8 6.8 0 0 1-.41-1.422l-.008-.04c-.04-.206-.23-.22-.504-.18-.114.02-.46.072-.428.32v.007a7.235 7.235 0 0 0 2.043 3.992A7.234 7.234 0 0 0 8.963 16c.98 0 1.933-.192 2.83-.572a7.216 7.216 0 0 0 2.312-1.56s.038-.036.058-.058c.073-.08.137-.22-.154-.51M8.952 1.713c-.938 0-1.936.19-2.67.507a.21.21 0 0 0-.134.183c-.01.083.013.193.07.337.044.116.165.424.4.335a6.73 6.73 0 0 1 2.334-.444c.857 0 1.688.17 2.47.5.62.262 1.207.642 1.844 1.194.046.04.096.06.146.06.125 0 .244-.12.346-.236.17-.19.287-.35.12-.508a6.824 6.824 0 0 0-2.1-1.355 7.19 7.19 0 0 0-2.826-.57m-1.278 7.93c0 .107.098.2.156.256l.018.018c.1.098.194.148.28.148a.193.193 0 0 0 .134-.05c.044-.04.54-.542.586-.59l.552.55c.052.06.107.087.172.09.088 0 .184-.053.286-.157.238-.244.12-.375.06-.44l-.56-.558.585-.588c.128-.14.015-.286-.098-.4-.163-.162-.32-.205-.423-.11l-.58.58-.587-.587a.157.157 0 0 0-.113-.045c-.078 0-.17.052-.275.157-.18.18-.22.304-.125.403l.587.586-.585.583c-.048.048-.072.1-.07.153m-3.723.867c.004.01.087.24.135.352.263.624.64 1.184 1.122 1.665a5.227 5.227 0 0 0 5.741 1.122 5.214 5.214 0 0 0 1.665-1.122 5.2 5.2 0 0 0 1.533-3.705 5.198 5.198 0 0 0-1.533-3.702A5.22 5.22 0 0 0 8.912 3.59c-.715 0-1.43.14-2.067.41-.51.216-1.37.77-1.875 1.29l-.003.004V.984h7.24c.264-.003.264-.37.264-.492 0-.12 0-.49-.263-.492h-7.83a.344.344 0 0 0-.344.342v6.066c0 .196.244.337.47.386.443.094.545-.047.653-.197l.015-.02c.166-.245.683-.765.688-.77a4.256 4.256 0 0 1 3.035-1.253c1.146 0 2.222.445 3.03 1.25a4.253 4.253 0 0 1 1.254 3.02 4.24 4.24 0 0 1-1.25 3.02 4.331 4.331 0 0 1-3.047 1.252c-.773 0-1.52-.206-2.16-.596l.004-3.688c0-.49.214-1.026.57-1.43.41-.462.973-.716 1.587-.716.595 0 1.15.226 1.565.636.41.407.636.95.636 1.527a2.18 2.18 0 0 1-2.207 2.198c-.24 0-.673-.106-.69-.11-.25-.075-.357.272-.392.387-.135.44.068.527.11.54.398.123.66.147 1 .147a3.174 3.174 0 0 0 3.17-3.17c0-1.734-1.42-3.144-3.167-3.144-.854 0-1.657.327-2.26.92-.575.565-.905 1.32-.905 2.067v.02c-.003.092-.004 2.304-.005 3.03l-.003-.004c-.33-.363-.653-.92-.868-1.488-.086-.223-.276-.183-.536-.103-.114.034-.46.14-.383.39l.002.003z"/></svg>