<svg xmlns="http://www.w3.org/2000/svg" fill-rule="evenodd" stroke-miterlimit="1.414" viewBox="0 0 16 16" clip-rule="evenodd" stroke-linejoin="round"><path fill-rule="nonzero" d="M14.77 6.16a.988.988 0 0 0-1.974.002v4.135a.987.987 0 1 0 1.976 0V6.16zM3.587 5.363l.002 6.408c0 .583.47 1.054 1.054 1.054h.717v2.188a.989.989 0 0 0 1.975 0v-2.188h1.332v2.188a.989.989 0 0 0 1.976-.003v-2.186h.72c.58 0 1.053-.472 1.053-1.055V5.36l-8.83.002zm6.44-1.956a.373.373 0 1 1 .371-.374.373.373 0 0 1-.372.373m-4.05 0a.372.372 0 1 1 .373-.371.373.373 0 0 1-.374.373m4.205-1.945l.688-1.26a.137.137 0 0 0-.054-.186.138.138 0 0 0-.185.055L9.93 1.344A4.74 4.74 0 0 0 7.995.938c-.69 0-1.347.145-1.93.404L5.37.074a.137.137 0 1 0-.24.131l.69 1.257c-1.355.7-2.27 2.03-2.27 3.558h8.896c0-1.528-.914-2.856-2.267-3.556M2.215 5.175a.988.988 0 0 0-.988.988v4.135a.988.988 0 1 0 1.976 0V6.162a.988.988 0 0 0-.988-.987"/></svg>