<svg xmlns="http://www.w3.org/2000/svg" fill-rule="evenodd" stroke-miterlimit="1.414" viewBox="0 0 16 16" clip-rule="evenodd" stroke-linejoin="round"><path d="M13.967 14.832c-.22 0-.436-.058-.628-.17a1.251 1.251 0 0 1-.46-1.707 4.605 4.605 0 0 0-1.683-6.285 4.595 4.595 0 0 0-2.295-.614 1.251 1.251 0 0 1-1.085-1.878c.22-.383.635-.62 1.08-.622 1.248 0 2.474.328 3.55.95a7.055 7.055 0 0 1 3.308 4.313 7.056 7.056 0 0 1-.71 5.39c-.22.383-.635.622-1.078.622zm-7.64.873a7.13 7.13 0 0 1-6.16-3.553 1.247 1.247 0 0 1 .46-1.704c.58-.335 1.376-.117 1.707.457a4.617 4.617 0 0 0 3.99 2.3c.8 0 1.596-.213 2.295-.616a4.597 4.597 0 0 0 1.68-1.686c.11-.188.268-.345.46-.455.578-.336 1.376-.117 1.708.457.22.383.22.862-.003 1.248a7.093 7.093 0 0 1-6.139 3.55zm.496-11.073a3.757 3.757 0 0 0-.702 4.647 2.084 2.084 0 0 1-.915 2.924 3.756 3.756 0 0 0 4.375-1.716 2.087 2.087 0 0 1 2.993-.668 3.768 3.768 0 0 0-1.792-2.43A3.785 3.785 0 0 0 8.9 6.89a2.084 2.084 0 0 1-2.075-2.256zm-2.508 6.94c-.442 0-.856-.24-1.08-.626a7.105 7.105 0 0 1-.952-3.55c0-3.915 3.187-7.1 7.105-7.1a1.25 1.25 0 0 1-.004 2.5 4.605 4.605 0 0 0-4.6 4.6c0 .806.212 1.6.616 2.3a1.25 1.25 0 0 1-1.084 1.874z"/></svg>