<svg xmlns="http://www.w3.org/2000/svg" fill-rule="evenodd" stroke-miterlimit="1.414" viewBox="0 0 16 16" clip-rule="evenodd" stroke-linejoin="round"><path fill-rule="nonzero" d="M6.096 8a1.903 1.903 0 1 1 3.807-.001A1.903 1.903 0 0 1 6.096 8zM8 0C4.264 0 1.136 2.56.248 6.016c-.008.024-.008.048-.008.08 0 .208.168.384.384.384h3.224a.369.369 0 0 0 .344-.224A4.2 4.2 0 0 1 8 3.808 4.196 4.196 0 0 1 12.192 8 4.196 4.196 0 0 1 8 12.192c-1.688 0-3.144-1-3.808-2.448a.39.39 0 0 0-.344-.224H.624a.384.384 0 0 0-.384.384c0 .024.008.048.008.08A8.002 8.002 0 0 0 16 8c0-4.416-3.584-8-8-8z"/></svg>