<svg xmlns="http://www.w3.org/2000/svg" fill-rule="evenodd" stroke-miterlimit="1.414" viewBox="0 0 16 16" clip-rule="evenodd" stroke-linejoin="round"><path fill-rule="nonzero" d="M15.244 7.386a8.253 8.253 0 0 1-.266 1.79 5.18 5.18 0 0 1-.696 1.572c-.31.46-.703.833-1.18 1.117-.48.283-1.053.425-1.723.425-.47 0-.885-.102-1.246-.305-.36-.203-.64-.49-.842-.863-.56.756-1.314 1.134-2.258 1.134-.413 0-.788-.092-1.126-.275a2.345 2.345 0 0 1-.845-.785 3.47 3.47 0 0 1-.49-1.228 5.296 5.296 0 0 1-.064-1.602c.084-.72.248-1.376.488-1.962.24-.587.54-1.088.902-1.503.36-.415.774-.735 1.24-.958a3.46 3.46 0 0 1 1.508-.335c.344 0 .644.026.902.077.258.052.49.122.7.21.21.09.402.19.58.306.177.114.355.232.532.352l-.438 5.04c-.03.242-.024.438.013.59.037.15.097.273.18.364.083.092.18.155.292.19a1.084 1.084 0 0 0 1.026-.202c.21-.17.395-.403.55-.7.154-.298.277-.65.37-1.052.09-.404.145-.84.162-1.31.046-.893-.023-1.71-.206-2.448-.184-.738-.486-1.37-.906-1.894a4.207 4.207 0 0 0-1.624-1.22c-.66-.288-1.45-.433-2.366-.433-.87 0-1.65.17-2.34.51a5.369 5.369 0 0 0-1.778 1.414 6.786 6.786 0 0 0-1.164 2.127c-.28.815-.443 1.7-.49 2.65-.045 1.03.038 1.93.25 2.704.212.774.54 1.42.988 1.938a4.123 4.123 0 0 0 1.674 1.164c.67.257 1.44.386 2.31.386a7.912 7.912 0 0 0 1.516-.163c.25-.05.487-.11.713-.176.226-.067.43-.14.614-.22l.317 1.426c-.2.13-.43.244-.687.34a6.613 6.613 0 0 1-.812.235 7.923 7.923 0 0 1-1.696.19c-1.162 0-2.193-.166-3.092-.498-.898-.332-1.65-.826-2.254-1.482-.604-.655-1.055-1.47-1.353-2.447C.832 10.6.706 9.466.751 8.179c.052-1.174.268-2.26.65-3.26.38-.998.902-1.86 1.566-2.59A7.136 7.136 0 0 1 5.356.62C6.28.206 7.31 0 8.45 0c1.134 0 2.133.18 2.998.537.864.358 1.586.86 2.164 1.51.578.65 1.006 1.428 1.284 2.333.278.905.394 1.907.348 3.006zm-8.588.98c-.063.743-.005 1.306.176 1.687.18.38.47.57.87.57A.961.961 0 0 0 8 10.568c.11-.037.226-.106.343-.206.118-.1.234-.24.348-.42.116-.18.222-.418.32-.71l.342-3.916c-.17-.046-.35-.07-.532-.07-.344 0-.638.07-.885.203a1.752 1.752 0 0 0-.627.596 3.5 3.5 0 0 0-.416.98c-.106.39-.185.835-.236 1.34z"/></svg>