<svg xmlns="http://www.w3.org/2000/svg" fill-rule="evenodd" stroke-miterlimit="1.414" viewBox="0 0 16 16" clip-rule="evenodd" stroke-linejoin="round"><path d="M16 8.212c0 1.668-.57 3.15-1.735 4.46-.423.486-.762.718-.994.718a.313.313 0 0 1-.23-.084.339.339 0 0 1-.108-.232c0-.126.147-.317.446-.593 1.204-1.163 1.82-2.6 1.82-4.312 0-1.9-.634-3.444-1.883-4.63-.254-.232-.38-.424-.38-.57 0-.086.04-.17.107-.233a.342.342 0 0 1 .232-.107c.277 0 .697.34 1.227 1.013.992 1.272 1.5 2.796 1.5 4.572zM0 7.788c0-1.668.57-3.15 1.735-4.46.423-.486.762-.718.994-.718.084 0 .17.022.23.084.064.063.108.126.108.21 0 .125-.147.317-.446.612C1.418 4.68.802 6.116.802 7.83c0 1.9.634 3.443 1.883 4.63.254.23.38.422.38.57 0 .084-.04.17-.107.232a.345.345 0 0 1-.232.106c-.295 0-.697-.34-1.227-1.013C.485 11.107 0 9.585 0 7.788zm11.816 4.586H4.483c-.233 0-.446-.192-.446-.446s.19-.445.446-.445h7.333c.232 0 .446.19.446.445a.437.437 0 0 1-.446.446zM7.81 6.42c.132-.017.23.41.242.5.03.235-.048.463-.155.67-.398.776-1.32 1.403-1.076 2.386.104.424.33.718 1.003 1.08-.232.08-.556-.074-.736-.2-.803-.545-1.312-1.44-1.26-2.416a4.1 4.1 0 0 1 .158-.913c.243-.855.752-1.603 1.057-2.435.148-.4.258-.884.133-1.304a1.647 1.647 0 0 0-.317-.567c-.044-.05-.272-.316-.36-.283.397-.15.758-.01 1.108.196.265.158.475.39.637.652.295.478.42 1.03.475 1.587.022.225-.007.785.258.9.284.12.497-.35.556-.546.125-.435-.04-.844-.21-1.238.033.077.192.17.254.228.08.074.162.148.24.225.287.296.475.67.593 1.07.106.353.157.728.176 1.086.05.747-.122 1.52-.42 2.206-.133.31-.302.597-.523.847-.218.246-.505.404-.73.633.535-.545.822-1.426.748-2.092a1.937 1.937 0 0 0-.44-1.053s.03.236.054.39c.052.332-.17.678-.43.642-.188-.027-.093-.436-.07-.565.066-.39-.023-.766-.166-1.134-.136-.345-.397-.61-.798-.55 0 .002 0 .002-.002.002h.002z"/></svg>