<svg xmlns="http://www.w3.org/2000/svg" fill-rule="evenodd" stroke-miterlimit="1.414" viewBox="0 0 16 16" clip-rule="evenodd" stroke-linejoin="round"><path d="M8 16A8 8 0 1 0 8 0a8 8 0 0 0 0 16zm0-1.11A6.89 6.89 0 1 0 8 1.11a6.89 6.89 0 0 0 0 13.78zm2.32-4.817c0-1.116-.718-1.607-1.92-1.65l-.75-.035c-.63-.022-.798-.055-.798-.29 0-.09.067-.212.202-.28a1.6 1.6 0 0 0 .337.035c1.606 0 2.414-.78 2.414-1.986 0-.2-.056-.38-.157-.49h.64v-1.34H8.39a3.807 3.807 0 0 0-.977-.133c-1.695 0-2.536.982-2.536 2.12 0 .713.336 1.227.84 1.494-.39.156-.683.58-.683 1.027 0 .39.213.702.54.858-.428.224-.81.77-.81 1.294 0 1.105.898 1.65 2.425 1.65 1.918 0 3.13-1.07 3.13-2.274zm-2-4.04c0 .473-.334.76-.883.76-.596 0-.895-.298-.895-.783 0-.453.322-.773.883-.773.597 0 .895.32.895.795zm.444 4.24c0 .42-.408.742-1.213.742-.634 0-1.008-.27-1.008-.667 0-.236.148-.473.397-.666.056.01.146 0 .214.01l.896.022c.522.022.714.258.714.56zm2.994-3.036c-.66 0-1.216.556-1.216 1.23a1.222 1.222 0 0 0 2.446-.001c0-.673-.557-1.23-1.23-1.23z"/></svg>