<svg xmlns="http://www.w3.org/2000/svg" fill-rule="evenodd" stroke-miterlimit="1.414" viewBox="0 0 16 16" clip-rule="evenodd" stroke-linejoin="round"><path d="M10.98 14.265a1.458 1.458 0 1 1-1.457-1.458c.805 0 1.458.653 1.458 1.458zm-3.106-.113l-3.42.8s-.19.053-.258-.142c-.04-.118.06-.262.06-.262L7.69 8.94s.175-.265.507-.362c.275-.08.574.106.574.106l5.498 3.46s.24.097.225.288c-.016.193-.224.226-.224.226l-3.32.776a1.65 1.65 0 0 0-1.427-.82c-.875 0-1.59.68-1.65 1.538zM2.76 4.805l.997-3.466s.047-.193.25-.157c.123.022.2.18.2.182l3.22 5.73s.146.282.07.62c-.065.278-.374.448-.374.448L1.42 11.277s-.202.16-.36.055c-.16-.107-.09-.305-.09-.305l.97-3.37a1.652 1.652 0 0 0 .82-2.852zm.35 1.225a1.459 1.459 0 1 1-2.921.003 1.459 1.459 0 0 1 2.923-.003zm10.32-1.143l2.51 2.753s.138.14.002.293c-.083.093-.26.074-.26.074l-6.57-.26s-.315-.023-.562-.265c-.204-.2-.186-.552-.186-.552L8.7.44s-.033-.256.14-.336c.177-.08.307.085.307.085l2.186 2.398a1.653 1.653 0 0 0 2.095 2.3zm.823-1.526c0 .806-.65 1.46-1.457 1.46a1.46 1.46 0 1 1 1.458-1.459z"/></svg>