<svg xmlns="http://www.w3.org/2000/svg" fill-rule="evenodd" stroke-miterlimit="1.414" viewBox="0 0 16 16" clip-rule="evenodd" stroke-linejoin="round"><path d="M8 0a8 8 0 1 0 0 16A8 8 0 0 0 8 0zm4.326 9.31c-.834-.55-1.31-1.016-1.726-1.852-.284.573-.947 1.424-2.065 2.093-.56 1.738-3.215 5.062-4.075 4.59-.254-.138-.302-.322-.245-.51.062-.476 1.044-1.567 1.044-1.567s.02.23.334.71c-.415-1.288.686-2.877.977-3.42.46-.145.493-.733.493-.733a2.621 2.621 0 0 0-.77-1.962c.282.345.374.867.387 1.345v.003c.002.054.002.107 0 .16-.012.395-.132.94-.388.94v.005a2.791 2.791 0 0 0-.877.136l-.642.154s.342-.016.527.144c-.206.335-.664.75-1.174.987-.742.346-.956-.34-.58-.785.094-.11.187-.2.276-.276a.39.39 0 0 1-.102-.24c-.053-.228-.024-.523.297-.992.064-.1.14-.2.23-.304l.01-.01.012-.014c0-.003.003-.005.006-.008.023-.026.047-.052.073-.076.383-.393.988-.8 1.942-1.168 1.113-1.635 1.52-1.942 1.52-1.942a2.3 2.3 0 0 1 .418-.323c-.58-1.01-.698-2.433-.546-2.816a.483.483 0 0 0-.033.064c.057-.13.095-.173.154-.242.158-.188.696-.286.89.112.102.212.122.486.118.692C8.386 2.18 8 2.666 8 2.666s.353-.166.79-.17c0 0 .118.103.263.293-.196.37-.52 1.152-.286 1.974.04.162.098.3.17.42.004.004.006.01.01.015l.015.02c.388.583 1.098.65 1.098.65a1.81 1.81 0 0 1-.784-.753 2.29 2.29 0 0 1-.183-.433c-.188-.726.09-1.15.247-1.434a1.827 1.827 0 1 1 2.412 2.588c.12.326-.01.722-.01.722.305.382.32.602.308.807-.385-.065-.76.195-.76.195s.745-.177 1.177.21c.282.3.47.575.58.777.16.287.905.307.82.825-.085.518-.652.522-1.54-.064zM9.11 6.237a.375.375 0 0 0-.53 0l-.31.312a.372.372 0 0 0 0 .53l.34.343a.373.373 0 0 0 .53 0l.313-.31a.374.374 0 0 0 0-.53l-.342-.344zm-1.47-.124a.242.242 0 0 0 0 .34.244.244 0 0 0 .34 0 .24.24 0 1 0-.34-.34zm.846-.168a.24.24 0 0 0 0-.34.244.244 0 0 0-.34 0 .24.24 0 1 0 .34.34zm3.59-.87c.394-.753-.165-1.193-.55-1.554-.616-.58-1.23-.83-1.933-.028-.702.802-.256 1.733.386 2.192.64.46 1.698.144 2.095-.61zm-1.064-.308c-.248-.297.215-.835.505-.513.534.592-.258.81-.505.513z"/></svg>