<svg xmlns="http://www.w3.org/2000/svg" fill-rule="evenodd" stroke-miterlimit="1.414" viewBox="0 0 16 16" clip-rule="evenodd" stroke-linejoin="round"><path d="M14.567 14.587a3.119 3.119 0 0 1-1.353-1.632c-.04-.16 0-.278.12-.358C15.003 11.363 16 9.493 16 7.423c0-3.82-3.582-6.925-8-6.925-4.418.04-8 3.144-8 6.925 0 3.82 3.582 6.925 8 6.925a7.9 7.9 0 0 0 1.672-.16c.12-.04.238 0 .318.08 1.075.677 2.746 1.234 4.14 1.234.437 0 .636-.278.636-.557.08-.12-.08-.24-.2-.358zm-2.15-.637c.04.04.04.08.04.08 0 .04-.04.08-.08.08-.397 0-1.67-.677-2.307-1.195-.08-.08-.2-.12-.398-.08-.518.12-1.115.2-1.672.2-3.7 0-6.687-2.468-6.687-5.533C1.313 4.438 4.3 1.97 8 1.97s6.687 2.468 6.687 5.532c0 1.792-1.035 3.423-2.707 4.418-.12.08-.24.2-.24.36 0 .357.32 1.153.678 1.67zm-.04-4.895c0-.16-.118-.32-.317-.32-.08 0-.16.04-.2.08-.795.717-2.188 1.354-3.86 1.354-1.672 0-2.985-.677-3.86-1.354a.422.422 0 0 0-.2-.08c-.2 0-.318.16-.318.36 0 .158.08.277.2.397.477.676 1.95 1.91 4.178 1.91h.04c2.23 0 3.7-1.194 4.18-1.95.04-.12.158-.28.158-.398z"/></svg>