<svg xmlns="http://www.w3.org/2000/svg" fill-rule="evenodd" stroke-miterlimit="1.414" viewBox="0 0 16 16" clip-rule="evenodd" stroke-linejoin="round"><path d="M11.146 9.84L9.48 11.508l-1.58 1.58-.308.31a3.553 3.553 0 0 1-3.365.932 2.14 2.14 0 1 1-2.581-2.563 3.54 3.54 0 0 1 .93-3.386l.12-.12 1.58 1.58-.122.12a1.313 1.313 0 1 0 1.858 1.858l.31-.31L7.9 9.93l1.668-1.67 1.578 1.58zm.616 4.436a3.546 3.546 0 0 1-3.552-.88l-.12-.122 1.577-1.58.12.122a1.316 1.316 0 0 0 1.858 0 1.31 1.31 0 0 0-.003-1.854l-.31-.31-1.577-1.58-1.668-1.668 1.58-1.58 1.666 1.67 1.578 1.58.31.31a3.536 3.536 0 0 1 .94 3.347 2.141 2.141 0 1 1-2.398 2.546zM4.65 6.308l1.672-1.67 1.58-1.58.308-.307a3.543 3.543 0 0 1 3.51-.895 2.14 2.14 0 1 1 2.4 2.417 3.54 3.54 0 0 1-.9 3.49l-.12.123-1.58-1.58.122-.122A1.312 1.312 0 1 0 9.788 4.33l-.308.308-1.58 1.58-1.67 1.668-1.58-1.578zM2.882 8.073l-.308-.308a3.543 3.543 0 0 1-.888-3.526A2.142 2.142 0 0 1 2.16.01c1.064 0 1.947.777 2.113 1.794a3.548 3.548 0 0 1 3.32.944l.122.123-1.58 1.58-.122-.123a1.315 1.315 0 0 0-1.86 1.86l.31.308 1.58 1.578 1.67 1.67-1.578 1.58-1.673-1.67-1.58-1.58z"/></svg>