<svg xmlns="http://www.w3.org/2000/svg" fill-rule="evenodd" stroke-miterlimit="1.414" viewBox="0 0 16 16" clip-rule="evenodd" stroke-linejoin="round"><path d="M12.06 9.798a4.379 4.379 0 0 0-2.254 2.266l2.846.588-.59-2.854zM1.65 5.545L0 3.9A7.507 7.507 0 0 1 3.882 0h.004l1.646 1.642a7.481 7.481 0 0 1 2.975-.614C12.645 1.028 16 4.38 16 8.514S12.644 16 8.507 16a7.488 7.488 0 0 1-7.494-7.486c0-1.06.237-2.054.635-2.967l6.095 6.076a7.51 7.51 0 0 1 3.882-3.9L5.534 1.644H5.53a7.514 7.514 0 0 0-3.882 3.9z"/></svg>