<svg xmlns="http://www.w3.org/2000/svg" fill-rule="evenodd" stroke-miterlimit="1.414" viewBox="0 0 16 16" clip-rule="evenodd" stroke-linejoin="round"><path fill-rule="nonzero" d="M12.533 6.84L8.77 10.45a1.095 1.095 0 0 1-1.52 0L3.488 6.84a1.097 1.097 0 0 1 1.518-1.583l3.005 2.88 3.005-2.88a1.095 1.095 0 1 1 1.518 1.582zm3.388-5.028a1.454 1.454 0 0 0-1.363-.956H1.45A1.458 1.458 0 0 0-.002 2.307v4.828l.055.96c.232 2.184 1.365 4.092 3.12 5.423.03.024.063.047.095.07l.02.015a7.933 7.933 0 0 0 3.128 1.382c.524.105 1.06.16 1.592.16.492 0 .986-.046 1.472-.136.058-.013.116-.023.175-.037.016-.002.033-.01.05-.018a7.912 7.912 0 0 0 3.004-1.352l.02-.014.096-.072c1.754-1.33 2.887-3.24 3.12-5.423l.054-.96V2.307c0-.167-.02-.333-.08-.495z"/></svg>