<svg xmlns="http://www.w3.org/2000/svg" fill-rule="evenodd" stroke-miterlimit="1.414" viewBox="0 0 16 16" clip-rule="evenodd" stroke-linejoin="round"><path d="M8.007 2.65l.007-.008c.333-.32.685-.62 1.062-.887a5.963 5.963 0 0 1 .874-.524c.11-.05.22-.1.333-.144.1-.04.205-.074.31-.103a2.7 2.7 0 0 1 .487-.093l.105-.006h.077a1.435 1.435 0 0 1 .437.058 1.336 1.336 0 0 1 .386.187c.078.055.15.118.213.187.057.063.11.13.157.2.102.154.18.323.24.496a2.518 2.518 0 0 1 .1.359c.02.088.036.176.05.264a5.94 5.94 0 0 1 .022 1.349 9.066 9.066 0 0 1-.23 1.349l.13.038c.24.073.478.153.71.243a7.725 7.725 0 0 1 1.031.487c.168.098.33.203.485.318.133.098.26.205.38.32.09.088.174.18.252.28.064.083.124.17.175.262.07.125.126.258.16.397.02.085.034.174.037.263 0 .055 0 .11-.006.166a1.538 1.538 0 0 1-.157.526 2.324 2.324 0 0 1-.454.604 4.338 4.338 0 0 1-.699.551c-.132.085-.27.165-.407.24a8.318 8.318 0 0 1-1.075.471 9.308 9.308 0 0 1-.472.156l-.053.015c.02.08.04.16.057.24.026.12.05.237.07.356a7.8 7.8 0 0 1 .124 1.294 4.96 4.96 0 0 1-.108 1.059 4.036 4.036 0 0 1-.057.216c-.037.125-.083.25-.14.37a1.722 1.722 0 0 1-.364.523 1.315 1.315 0 0 1-.542.318c-.134.04-.275.06-.415.064-.19.006-.38-.018-.566-.06a3.718 3.718 0 0 1-.714-.25 4.76 4.76 0 0 1-.426-.22 6.4 6.4 0 0 1-.468-.3 8.82 8.82 0 0 1-1.096-.91l-.077.072a8.968 8.968 0 0 1-1.002.817 5.67 5.67 0 0 1-.983.557c-.118.05-.237.097-.358.137-.115.037-.23.07-.347.094-.185.04-.373.062-.562.056a1.59 1.59 0 0 1-.437-.07 1.218 1.218 0 0 1-.255-.107 1.218 1.218 0 0 1-.16-.104c-.035-.03-.07-.058-.1-.09a1.753 1.753 0 0 1-.396-.58l-.036-.087c-.015-.038-.03-.076-.042-.114-.017-.054-.034-.108-.048-.16a2.953 2.953 0 0 1-.047-.197 3.18 3.18 0 0 1-.047-.267 4.969 4.969 0 0 1-.04-.787c.004-.19.016-.378.036-.565.023-.235.06-.47.103-.703.036-.19.078-.382.125-.57l-.2-.06a7.991 7.991 0 0 1-1.178-.465 5.698 5.698 0 0 1-.428-.23c-.174-.1-.342-.21-.503-.33A3.106 3.106 0 0 1 .395 9a2.32 2.32 0 0 1-.19-.282A1.809 1.809 0 0 1 .038 8.3 1.407 1.407 0 0 1 0 8.018c0-.06.002-.12.008-.178.006-.044.013-.09.023-.133L.06 7.6c.064-.21.175-.406.31-.58a2.433 2.433 0 0 1 .255-.289c.055-.053.112-.105.17-.156a4.654 4.654 0 0 1 .538-.388 6.632 6.632 0 0 1 .944-.483c.33-.14.668-.255 1.012-.355l.082-.024c-.052-.21-.1-.42-.138-.632A8.326 8.326 0 0 1 3.1 3.457c-.003-.147 0-.296.007-.443a4.221 4.221 0 0 1 .125-.819c.014-.054.03-.108.048-.16l.037-.104a1.84 1.84 0 0 1 .356-.596c.032-.034.065-.066.1-.096.03-.028.062-.054.095-.08a1.234 1.234 0 0 1 .398-.195A1.4 1.4 0 0 1 4.56.908.64.64 0 0 1 4.65.9h.053c.013-.002.027-.002.04-.002h.054l.11.008a3.116 3.116 0 0 1 .79.188c.11.04.215.085.32.134a6.307 6.307 0 0 1 .951.56 9.955 9.955 0 0 1 .952.777l.087.084zm4.007 8.198a14.92 14.92 0 0 1-1.168.218 18.677 18.677 0 0 1-.998.117c-.186.27-.38.534-.578.792a14.681 14.681 0 0 1-.765.91c.296.286.61.554.943.793.137.098.277.19.422.278.12.072.246.14.374.202.11.052.22.1.336.142.09.03.18.06.274.082a1.6 1.6 0 0 0 .434.052.88.88 0 0 0 .3-.06c.026-.013.053-.026.078-.04a.702.702 0 0 0 .152-.13c.062-.07.112-.148.155-.23a1.97 1.97 0 0 0 .142-.365 3.237 3.237 0 0 0 .095-.476c.012-.095.02-.192.025-.288a5.482 5.482 0 0 0-.007-.666 7.154 7.154 0 0 0-.073-.636 9.442 9.442 0 0 0-.1-.528l-.04-.168zm-7.993.03c-.023.097-.046.194-.067.29a7.953 7.953 0 0 0-.156 1.007 5.62 5.62 0 0 0-.02.674 3.317 3.317 0 0 0 .147.9c.014.04.03.08.046.12l.043.09c.01.023.023.045.036.067a.596.596 0 0 0 .028.048l.026.038c.056.08.124.153.207.206l.058.03c.046.023.095.04.145.052.065.015.132.023.198.025.068.002.136 0 .202-.008a2.513 2.513 0 0 0 .518-.122 3.9 3.9 0 0 0 .315-.126c.143-.065.283-.138.42-.217a6.476 6.476 0 0 0 .885-.621 7.996 7.996 0 0 0 .47-.416l.03-.03-.174-.19a17.827 17.827 0 0 1-1.2-1.507c-.02 0-.04-.003-.06-.004a20.22 20.22 0 0 1-.924-.1 14.138 14.138 0 0 1-1.171-.208zm4.946.362a23.64 23.64 0 0 1-1.803.007l-.1-.003.204.262a15.355 15.355 0 0 0 .76.89l.08-.09a13.896 13.896 0 0 0 .86-1.065zm.494-5.762a19.076 19.076 0 0 0-1.415-.055h-.067a18.217 18.217 0 0 0-1.434.054 17.6 17.6 0 0 0-.553.857c-.2.333-.394.673-.576 1.017-.113.215-.222.432-.328.65a18.686 18.686 0 0 0 1.466 2.531 24.366 24.366 0 0 0 1.448.045c.49 0 .978-.016 1.465-.05a21.65 21.65 0 0 0 1.454-2.535c-.1-.205-.206-.41-.315-.61A21.775 21.775 0 0 0 9.5 5.536l-.04-.058zm-4.736 3.33c-.077.18-.15.366-.22.55-.11.285-.21.572-.3.86.172.04.344.072.516.102a15.86 15.86 0 0 0 .96.136c-.112-.173-.22-.348-.327-.524-.22-.368-.43-.744-.63-1.125zm6.565-.026a23.297 23.297 0 0 1-.955 1.663l.148-.018a15.174 15.174 0 0 0 1.344-.236 12.243 12.243 0 0 0-.29-.812c-.078-.2-.16-.4-.247-.596zm-7.74-2.8c-.073.02-.146.043-.22.066a8.04 8.04 0 0 0-1.15.448 5.072 5.072 0 0 0-.805.488 2.515 2.515 0 0 0-.436.412c-.045.055-.086.11-.122.17-.03.05-.056.1-.077.154a.723.723 0 0 0-.055.29.736.736 0 0 0 .06.257l.02.043.025.052.04.07a1.379 1.379 0 0 0 .13.181 2.227 2.227 0 0 0 .236.249 3.209 3.209 0 0 0 .403.319c.1.07.204.135.31.197.136.08.276.152.417.22.172.082.347.157.525.225.152.058.306.113.46.162l.23.07a16.282 16.282 0 0 1 .789-2.05 16.705 16.705 0 0 1-.779-2.02zm8.907.01a16.078 16.078 0 0 1-.588 1.573l-.19.425c.08.172.16.346.236.52a15.503 15.503 0 0 1 .573 1.507l.117-.036a8.064 8.064 0 0 0 1.178-.464c.154-.077.304-.16.45-.25a4.002 4.002 0 0 0 .616-.46c.07-.067.138-.138.2-.214a1.417 1.417 0 0 0 .205-.33.712.712 0 0 0 .06-.31.674.674 0 0 0-.03-.16 1.134 1.134 0 0 0-.09-.197l-.037-.058-.053-.074c-.024-.032-.05-.062-.074-.092a1.437 1.437 0 0 0-.1-.108 2.974 2.974 0 0 0-.321-.277 4.246 4.246 0 0 0-.537-.344 6.55 6.55 0 0 0-.908-.414 9.764 9.764 0 0 0-.708-.233zM8 6.56a1.43 1.43 0 1 1 0 2.861A1.43 1.43 0 0 1 8 6.56zm2.336-.99c.176.274.345.554.508.837.15.262.298.527.44.795a14.735 14.735 0 0 0 .51-1.378 15.053 15.053 0 0 0-1.458-.255zm-4.67-.003a15.468 15.468 0 0 0-1.45.25 16.313 16.313 0 0 0 .508 1.384 19.96 19.96 0 0 1 .942-1.635zm6.313-.402l.03-.133a8.506 8.506 0 0 0 .187-1.214 5.477 5.477 0 0 0-.014-.984 2.847 2.847 0 0 0-.137-.614L12 2.104l-.037-.078c-.013-.024-.025-.048-.04-.07a.425.425 0 0 0-.035-.058c-.01-.013-.018-.027-.027-.04a.72.72 0 0 0-.215-.2.745.745 0 0 0-.314-.09c-.02 0-.042 0-.063-.002h-.024c-.023 0-.046 0-.07.003a1.31 1.31 0 0 0-.186.022 2.409 2.409 0 0 0-.494.146 4.525 4.525 0 0 0-.69.355 6.128 6.128 0 0 0-.402.27 8.745 8.745 0 0 0-.913.774l.134.147c.255.282.497.575.73.875.168.217.33.44.49.665a16.385 16.385 0 0 1 2.14.338zM7.53 3.137c-.015-.013-.03-.026-.043-.04a9.711 9.711 0 0 0-.868-.719 6.647 6.647 0 0 0-.44-.288 5.122 5.122 0 0 0-.696-.347 3.293 3.293 0 0 0-.276-.09 1.967 1.967 0 0 0-.396-.069l-.073-.002H4.72c-.02 0-.04 0-.06.002a.807.807 0 0 0-.282.062.526.526 0 0 0-.084.046.704.704 0 0 0-.148.135c-.058.07-.104.147-.143.228l-.038.084a1.82 1.82 0 0 0-.084.255c-.017.064-.03.13-.043.195a4.067 4.067 0 0 0-.057.548c-.01.22-.002.442.016.663.027.344.08.685.153 1.022.024.11.05.223.077.334a15.647 15.647 0 0 1 1.06-.2 16.58 16.58 0 0 1 1.074-.133 16.776 16.776 0 0 1 1.184-1.49l.18-.197zm.478.488l-.163.18c-.214.24-.42.486-.618.738l-.17.22a19.209 19.209 0 0 1 .85-.023h.116a20.74 20.74 0 0 1 .926.022l-.153-.2c-.21-.272-.43-.538-.66-.794l-.13-.143z"/></svg>