<svg xmlns="http://www.w3.org/2000/svg" fill-rule="evenodd" stroke-miterlimit="1.414" viewBox="0 0 16 16" clip-rule="evenodd" stroke-linejoin="round"><path d="M1.473 9.368c-.04.185-.06.374-.06.566 0 2.3 2.94 4.173 6.554 4.173 3.613 0 6.553-1.872 6.553-4.173 0-.183-.02-.364-.055-.54l-.01-.022a.324.324 0 0 1-.02-.11c-.2-.784-.745-1.497-1.533-2.072a.27.27 0 0 1-.084-.047c-.017-.013-.03-.028-.044-.043-1.198-.824-2.91-1.34-4.807-1.34-1.88 0-3.576.506-4.772 1.315a.263.263 0 0 1-.12.083c-.805.576-1.364 1.293-1.572 2.086 0 .038-.01.077-.025.114l-.005.01zM8 13.003c-1.198 0-2.042-.26-2.58-.8a.3.3 0 0 1 .424-.422c.42.42 1.125.625 2.155.625 1.03 0 1.735-.204 2.156-.624a.3.3 0 0 1 .422.424c-.538.538-1.382.8-2.58.8zM5.592 7.945c-.61 0-1.12.51-1.12 1.12 0 .608.51 1.102 1.12 1.102.61 0 1.103-.494 1.103-1.102 0-.61-.494-1.12-1.103-1.12zm4.83 0c-.61 0-1.12.51-1.12 1.12 0 .608.51 1.102 1.12 1.102.61 0 1.103-.494 1.103-1.102 0-.61-.494-1.12-1.103-1.12zM13.46 6.88c.693.556 1.202 1.216 1.462 1.94a1.215 1.215 0 1 0-1.462-1.939zM1.812 6.64a1.215 1.215 0 0 0-.784 2.141c.268-.72.782-1.375 1.478-1.924a1.218 1.218 0 0 0-.694-.218zm6.155 8.067c-3.944 0-7.152-2.14-7.152-4.77 0-.183.016-.363.046-.54a1.814 1.814 0 1 1 2.151-2.902c1.24-.796 2.91-1.297 4.75-1.33l1.208-3.69.264.063c.002 0 .004 0 .006.002l2.816.663a1.495 1.495 0 0 1 1.373-.908 1.493 1.493 0 0 1 0 2.984c-.823 0-1.492-.67-1.493-1.49l-2.57-.606L8.39 5.17c1.773.07 3.374.572 4.57 1.35.333-.307.767-.48 1.228-.48a1.814 1.814 0 0 1 .892 3.391c.025.166.04.334.04.504-.002 2.63-3.21 4.77-7.153 4.77zM13.43 1.893a.895.895 0 0 0-.001 1.788.894.894 0 0 0-.001-1.787z"/></svg>