<svg xmlns="http://www.w3.org/2000/svg" fill-rule="evenodd" stroke-miterlimit="1.414" viewBox="0 0 16 16" clip-rule="evenodd" stroke-linejoin="round"><path d="M14.15 2.76l-.003 2.22H7.08a.266.266 0 0 0 0 .532l1.84-.01a5.246 5.246 0 0 1-.001 10.492L1.834 16l.003-2.25h7.09a3.003 3.003 0 0 0 0-6.007l-1.848-.02a2.48 2.48 0 1 1-.001-4.963h7.07zM1.84 13.228l-.003-2.22H8.91a.258.258 0 0 0-.001-.515H7.08A5.246 5.246 0 0 1 7.08 0l7.067.002.004 2.233-7.07.003a3.004 3.004 0 1 0-.001 6.007l1.847.02a2.481 2.481 0 0 1 0 4.962h-7.09z"/></svg>