<svg xmlns="http://www.w3.org/2000/svg" fill-rule="evenodd" stroke-miterlimit="1.414" viewBox="0 0 16 16" clip-rule="evenodd" stroke-linejoin="round"><path d="M1.647 7.022l1.18 1.125 3.732 3.427 1.607-1.527a.52.52 0 0 0-.03-.657l-1.47-1.268.005-.003L5.09 6.61a.52.52 0 0 1 .015-.715l4.26-4.05L7.428 0l-5.78 5.492a1.047 1.047 0 0 0 0 1.53zM14.352 8.98l-1.18-1.128-3.73-3.427-1.608 1.527c-.147.2-.137.47.03.657l1.47 1.266-.005.002 1.58 1.51a.518.518 0 0 1-.014.716l-4.26 4.048L8.572 16l5.78-5.492a1.046 1.046 0 0 0 0-1.53z"/></svg>