<svg xmlns="http://www.w3.org/2000/svg" fill-rule="evenodd" stroke-miterlimit="1.414" viewBox="0 0 16 16" clip-rule="evenodd" stroke-linejoin="round"><path d="M8.155.48c.662 0 2.903.185 3.96 2.552.354.797.27 2.15.2 3.237l-.002.045c-.008.12-.015.232-.02.342a.61.61 0 0 0 .268.067c.2-.01.432-.074.69-.195a.718.718 0 0 1 .307-.063c.116 0 .234.022.333.063.297.107.484.32.488.56.006.304-.266.567-.808.78a3.106 3.106 0 0 1-.233.08c-.306.097-.768.244-.894.54-.065.153-.04.35.077.586l.008.016c.04.094 1.02 2.326 3.194 2.685a.332.332 0 0 1 .277.346.456.456 0 0 1-.036.15c-.163.38-.852.66-2.105.853-.043.057-.086.256-.113.377a5.165 5.165 0 0 1-.092.372.359.359 0 0 1-.37.277h-.017c-.09 0-.21-.015-.36-.045a4.277 4.277 0 0 0-.854-.09c-.2 0-.404.017-.61.05-.406.07-.75.31-1.148.593-.57.403-1.215.86-2.196.86-.045 0-.086-.002-.118-.004l-.08.003c-.982 0-1.627-.457-2.197-.86-.398-.28-.742-.524-1.146-.592a3.827 3.827 0 0 0-.613-.05c-.358 0-.644.055-.853.095-.14.028-.26.05-.36.05a.374.374 0 0 1-.39-.28 4.961 4.961 0 0 1-.09-.377c-.028-.12-.07-.322-.113-.378C.89 12.933.2 12.654.037 12.272a.443.443 0 0 1-.035-.15.331.331 0 0 1 .278-.345c2.174-.358 3.154-2.59 3.194-2.685l.008-.016c.116-.236.142-.433.077-.586-.126-.296-.588-.443-.895-.54a3.413 3.413 0 0 1-.232-.08c-.74-.292-.844-.628-.8-.858.06-.32.45-.535.778-.535.094 0 .18.017.253.052.28.13.527.195.737.195a.631.631 0 0 0 .31-.067c-.006-.13-.015-.262-.023-.39-.068-1.086-.153-2.438.202-3.234C4.94.668 7.178.484 7.838.484L8.115.48h.04z"/></svg>