<svg xmlns="http://www.w3.org/2000/svg" fill-rule="evenodd" stroke-miterlimit="1.414" viewBox="0 0 16 16" clip-rule="evenodd" stroke-linejoin="round"><path fill-rule="nonzero" d="M.773 8.13c-.034 0-.062.03-.067.066L.55 9.633l.156 1.405c.005.038.033.065.067.065.033 0 .06-.027.066-.065l.178-1.405-.18-1.437C.835 8.158.807 8.13.774 8.13m-.594.552c-.032 0-.06.025-.063.062L0 9.634l.117.872c.004.037.03.063.064.063s.06-.027.065-.063l.14-.874-.14-.89c-.005-.036-.03-.06-.064-.06M1.4 7.85c-.04 0-.075.033-.08.078l-.148 1.705.15 1.643a.08.08 0 0 0 .08.078c.04 0 .074-.033.08-.078l.17-1.643-.17-1.705c-.006-.045-.04-.078-.08-.078m.633-.06c-.05 0-.09.04-.094.092l-.14 1.75.14 1.696c.005.052.045.092.095.092s.09-.04.094-.092l.16-1.695-.16-1.752c-.006-.05-.046-.09-.095-.09m.745 3.551zm0-3.334a.109.109 0 0 0-.106-.106c-.058 0-.104.046-.108.107l-.133 1.623.133 1.71c.004.06.05.105.108.105a.11.11 0 0 0 .107-.106l.152-1.71-.15-1.624zm.538-1.138a.122.122 0 0 0-.12.12L3.07 9.634l.125 1.71a.123.123 0 0 0 .12.118.125.125 0 0 0 .122-.12l.14-1.708-.14-2.644a.126.126 0 0 0-.122-.12m.642-.608a.137.137 0 0 0-.135.133l-.117 3.248.117 1.698a.137.137 0 0 0 .135.134c.072 0 .13-.058.135-.133v.002l.132-1.7-.132-3.247a.137.137 0 0 0-.135-.133m.663-.296a.15.15 0 0 0-.147.148l-.11 3.52.11 1.68a.15.15 0 0 0 .148.146c.08 0 .146-.065.15-.147l.123-1.68-.123-3.52a.153.153 0 0 0-.15-.147m.822.029a.163.163 0 0 0-.162-.16.16.16 0 0 0-.16.16l-.102 3.638.1 1.67a.163.163 0 0 0 .326 0l.113-1.67-.113-3.638zm0 5.307zm.502-5.389a.176.176 0 0 0-.175.175l-.093 3.545.093 1.654c.002.096.08.173.175.173a.177.177 0 0 0 .176-.175v.002l.105-1.655L6.12 6.09a.175.175 0 0 0-.175-.175m.67.115a.192.192 0 0 0-.19.19l-.084 3.416.086 1.643a.188.188 0 0 0 .19.186.191.191 0 0 0 .19-.188L6.9 9.635l-.095-3.416a.192.192 0 0 0-.19-.19m.787-.626a.211.211 0 0 0-.112-.034c-.04 0-.078.01-.11.032a.208.208 0 0 0-.093.17v.038L7.01 9.635l.077 1.634v.006a.206.206 0 0 0 .203.194.199.199 0 0 0 .142-.06.199.199 0 0 0 .06-.142l.01-.162.077-1.47-.087-4.065c0-.07-.037-.13-.09-.167m.091 5.867v-.002zm.579-6.252a.216.216 0 0 0-.327.185v.022l-.09 4.41.047.817.043.793a.22.22 0 0 0 .217.215.22.22 0 0 0 .217-.216v.002l.095-1.61-.096-4.433a.22.22 0 0 0-.108-.185m5.962 2.52c-.27 0-.527.055-.76.153a3.475 3.475 0 0 0-4.718-2.929c-.15.06-.188.117-.19.232v6.246c.002.12.095.215.213.226h5.455c1.087 0 1.968-.87 1.968-1.958 0-1.087-.88-1.968-1.968-1.968"/></svg>