<svg xmlns="http://www.w3.org/2000/svg" fill-rule="evenodd" stroke-miterlimit="1.414" viewBox="0 0 16 16" clip-rule="evenodd" stroke-linejoin="round"><path fill-rule="nonzero" d="M15.32 5.705c.213.405.376.85.488 1.337.113.487.176.996.19 1.528.014.53-.04 1.07-.16 1.61a8.07 8.07 0 0 1-.532 1.592 6.057 6.057 0 0 1-.96 1.48 7.86 7.86 0 0 1-1.405 1.267c-.527.373-1.162.69-1.904.948-.742.26-1.552.436-2.43.532l-.2-.473c.044-.01.108-.03.193-.054.083-.026.242-.09.475-.195.233-.104.458-.223.675-.358.216-.135.455-.326.716-.574.262-.248.487-.518.675-.81.19-.293.348-.657.477-1.093.13-.436.194-.904.194-1.405 0-.473-.065-.917-.197-1.333a3.871 3.871 0 0 0-.518-1.076 8.158 8.158 0 0 0-.705-.862c-.255-.273-.51-.53-.767-.772-.256-.242-.49-.484-.704-.726a3.13 3.13 0 0 1-.52-.81 2.288 2.288 0 0 1-.198-.937c0-.596.234-1.105.7-1.527.467-.422 1.11-.633 1.93-.633.237 0 .48.024.73.072.25.047.544.144.882.29.337.147.662.338.974.575.312.236.638.56.978.974.34.414.648.89.923 1.43zM.68 10.295a5.551 5.551 0 0 1-.487-1.337A7.64 7.64 0 0 1 .002 7.43c-.014-.53.04-1.07.16-1.61a8.07 8.07 0 0 1 .532-1.592c.233-.518.553-1.01.96-1.48a7.86 7.86 0 0 1 1.405-1.267c.527-.373 1.162-.69 1.904-.948A10.888 10.888 0 0 1 7.394 0l.2.473c-.044.01-.108.03-.193.054-.083.026-.242.09-.475.195a5.585 5.585 0 0 0-.675.358 4.653 4.653 0 0 0-.716.574 4.374 4.374 0 0 0-.675.81c-.19.293-.348.657-.477 1.093-.13.436-.194.904-.194 1.405 0 .473.065.917.197 1.333.132.417.305.775.518 1.076.214.302.45.59.705.862.255.273.51.53.767.772.256.242.49.484.704.726.215.242.387.512.52.81.132.298.198.61.198.937 0 .596-.234 1.105-.7 1.527-.467.422-1.11.633-1.93.633-.237 0-.48-.024-.73-.072a4.293 4.293 0 0 1-.882-.29 4.743 4.743 0 0 1-.974-.575 5.953 5.953 0 0 1-.978-.974 7.87 7.87 0 0 1-.923-1.43z"/></svg>