<svg xmlns="http://www.w3.org/2000/svg" fill-rule="evenodd" stroke-miterlimit="1.414" viewBox="0 0 16 16" clip-rule="evenodd" stroke-linejoin="round"><path fill-rule="nonzero" d="M6.22 6.3c.03.048.082.08.142.08a.16.16 0 0 0 .105-.038l.01-.008c.26-.217.494-.44.714-.678 2.14-2.322.885-5.173.872-5.2A.326.326 0 0 1 8.164.06c.123-.09.29-.08.402.022 7.244 6.743 5.328 11.88 5.188 12.226-.588 2.095-2.898 3.61-5.633 3.687C8.05 16 7.974 16 7.9 16c-3.235 0-5.985-1.993-5.985-4.538v-.04c0-3.532 3.197-7.016 3.34-7.163a.31.31 0 0 1 .35-.07.32.32 0 0 1 .194.304c-.023.692.118 1.296.42 1.802V6.3z"/></svg>