<svg xmlns="http://www.w3.org/2000/svg" fill-rule="evenodd" stroke-miterlimit="1.414" viewBox="0 0 16 16" clip-rule="evenodd" stroke-linejoin="round"><path fill-rule="nonzero" d="M13.63 2.92c-.53-.3-1.377.182-1.89 1.076l-.932 1.62a2.042 2.042 0 0 0 .138 2.094l.027.04c.43.618 1.01 1.19 1.2 1.394a1.057 1.057 0 1 1-1.819.588c.03-.232-.045-.61-.378-.982-.333-.37-1.014.33-1.234 1.052l-.01.033c-.22.722-.36 1.35-.318 1.412a1.192 1.192 0 1 1-1.462-.419c.043-.02.17-.323.278-.68l.198-.65a1.18 1.18 0 0 0 .03-.113l.59-2.1-.63 1.29c-.074-.244-.198-.252-.467-.06-.162.117-.43.347-.563.44-.247.177-.453.52-.563.73a1.049 1.049 0 1 1-1.153-1.509c.264-.058 1.163-.608 1.705-.996.097-.07.18-.135.245-.196l1.448-1.1-1.26.682s-.13-.013-.286.005c-.462.05-.937.115-1.027.23a.937.937 0 0 1-1.5-.033.939.939 0 0 1 .787-1.487c.337.01 1.225.19 1.968.058l.19-.034c.744-.132 1.633-.778 1.987-1.444l.775-1.36c.428-.753.397-1.577-.07-1.84L8.786.18C8.36-.06 7.66-.06 7.234.18L1.41 3.463c-.426.24-.776.84-.776 1.33v6.415c0 .49.35 1.088.776 1.33l5.824 3.282c.427.24 1.126.24 1.552 0l5.804-3.282c.427-.242.776-.84.776-1.33V4.792c0-.49-.35-1.088-.776-1.33l-.96-.542"/></svg>