<svg xmlns="http://www.w3.org/2000/svg" fill-rule="evenodd" stroke-miterlimit="1.414" viewBox="0 0 16 16" clip-rule="evenodd" stroke-linejoin="round"><path d="M8 0a8 8 0 1 0 0 16A8 8 0 0 0 8 0zm0 13.892A5.892 5.892 0 1 1 8 2.108a5.892 5.892 0 0 1 0 11.784zm.33-3.9a1.663 1.663 0 1 1 3.327.001 1.663 1.663 0 0 1-3.328-.002zm-3.986 0a1.664 1.664 0 1 1 3.326.004 1.664 1.664 0 0 1-3.325-.005zm0-3.984a1.663 1.663 0 1 1 3.325-.003 1.663 1.663 0 0 1-3.324.004zm3.985 0a1.662 1.662 0 1 1 3.326 0 1.664 1.664 0 0 1-3.327.001z"/></svg>