<svg xmlns="http://www.w3.org/2000/svg" fill-rule="evenodd" stroke-miterlimit="1.414" viewBox="0 0 16 16" clip-rule="evenodd" stroke-linejoin="round"><path fill-rule="nonzero" d="M13.86 4.33a.816.816 0 0 0-.738-1.42l-.093.05c-.54.297-4.184 2.85-3.772 3.138.408.286 2.9-.836 4.603-1.77m0 7.68c-1.702-.934-4.194-2.055-4.602-1.77-.412.288 3.232 2.842 3.77 3.138l.094.05a.815.815 0 0 0 .739-1.419m1.5-4.678c-.033-.003-.068-.003-.105-.003-.615 0-5.038.486-4.816.937.22.446 2.943.662 4.885.663a.815.815 0 1 0 .035-1.598M3.65 11.165c-.506 1.43-.975 2.1-2.052 2.1-.105 0-.467-.02-.49-.023a.753.753 0 0 0-.246 1.478c.286.05.58.068.842.068 1.986 0 2.642-1.144 3.298-2.813L8.877 2.31a.832.832 0 0 0-1.573-.54L4.58 8.966h-.04l-2.865-7.25a.88.88 0 0 0-1.631.65l3.607 8.798z"/></svg>