<svg xmlns="http://www.w3.org/2000/svg" version="1.2" baseProfile="tiny" viewBox="0 0 24 24"><path d="M19.164 19.547c-1.641-2.5-3.669-3.285-6.164-3.484V17.5c0 .534-.208 1.036-.586 1.414-.756.756-2.077.751-2.823.005l-6.293-6.207a1 1 0 0 1 0-1.425l6.288-6.203c.754-.755 2.073-.756 2.829.001.377.378.585.88.585 1.414v1.704c4.619.933 8 4.997 8 9.796v1a.999.999 0 0 1-1.836.548zm-7.141-5.536c2.207.056 4.638.394 6.758 2.121a7.985 7.985 0 0 0-6.893-6.08C11.384 9.996 11 10 11 10V6.503l-5.576 5.496 5.576 5.5V14l1.023.011z"/></svg>