<svg xmlns="http://www.w3.org/2000/svg" version="1.2" baseProfile="tiny" viewBox="0 0 24 24"><path d="M21.561 5.318l-2.879-2.879A1.495 1.495 0 0 0 17.621 2c-.385 0-.768.146-1.061.439L13 6H4a1 1 0 0 0-1 1v13a1 1 0 0 0 1 1h13a1 1 0 0 0 1-1v-9l3.561-3.561c.293-.293.439-.677.439-1.061s-.146-.767-.439-1.06zM11.5 14.672L9.328 12.5l6.293-6.293 2.172 2.172-6.293 6.293zm-2.561-1.339l1.756 1.728L9 15l-.061-1.667zM16 19H5V8h6l-3.18 3.18c-.293.293-.478.812-.629 1.289-.16.5-.191 1.056-.191 1.47V17h3.061c.414 0 1.108-.1 1.571-.29.464-.19.896-.347 1.188-.64L16 13v6zm2.5-11.328L16.328 5.5l1.293-1.293 2.171 2.172L18.5 7.672z"/></svg>