<svg xmlns="http://www.w3.org/2000/svg" version="1.2" baseProfile="tiny" viewBox="0 0 24 24"><path d="M19 8h-2.352c.219-.457.352-.961.352-1.5C17 4.57 15.43 3 13.5 3c-.979 0-1.864.407-2.5 1.058A3.487 3.487 0 0 0 8.5 3C6.57 3 5 4.57 5 6.5c0 .539.133 1.043.352 1.5H3a1 1 0 0 0-1 1v4a1 1 0 0 0 1 1v5c0 1.654 1.346 3 3 3h10c1.654 0 3-1.346 3-3v-5a1 1 0 0 0 1-1V9a1 1 0 0 0-1-1zm-1 4h-5v-2h5v2zm-8-5h2v1h-2V7zm2 3v2h-2v-2h2zm1.5-5c.827 0 1.5.673 1.5 1.5S14.327 8 13.5 8a1.43 1.43 0 0 1-.5-.097V7a.99.99 0 0 0-.913-.982A1.497 1.497 0 0 1 13.5 5zM7 6.5C7 5.673 7.673 5 8.5 5c.657 0 1.211.428 1.413 1.018A.99.99 0 0 0 9 7v.903A1.43 1.43 0 0 1 8.5 8C7.673 8 7 7.327 7 6.5zM9 10v2H4v-2h5zM6 20c-.551 0-1-.449-1-1v-6h4v7H6zm4 0v-7h2v7h-2zm6 0h-3v-7h4v6c0 .551-.449 1-1 1z"/></svg>