<svg xmlns="http://www.w3.org/2000/svg" version="1.2" baseProfile="tiny" viewBox="0 0 24 24"><path d="M16.434 8.596c1.152 0 2.237.449 3.053 1.264.815.816 1.266 1.9 1.266 3.056s-.45 2.239-1.268 3.056c-.813.815-1.898 1.266-3.053 1.266s-2.238-.449-3.055-1.266l-1.376-1.32-1.395 1.338a4.27 4.27 0 0 1-3.036 1.248 4.281 4.281 0 0 1-3.054-1.267c-.815-.813-1.265-1.899-1.265-3.053s.45-2.237 1.267-3.056a4.295 4.295 0 0 1 3.053-1.266c1.154 0 2.239.449 3.055 1.266l1.375 1.32 1.396-1.34a4.279 4.279 0 0 1 3.037-1.246m0-2c-1.679 0-3.25.645-4.433 1.813a6.252 6.252 0 0 0-4.43-1.813 6.266 6.266 0 0 0-4.467 1.853c-1.194 1.192-1.852 2.78-1.852 4.469s.658 3.274 1.852 4.468a6.278 6.278 0 0 0 4.468 1.852 6.25 6.25 0 0 0 4.431-1.814 6.249 6.249 0 0 0 4.431 1.814 6.27 6.27 0 0 0 4.469-1.854 6.263 6.263 0 0 0 1.852-4.467 6.285 6.285 0 0 0-1.852-4.47 6.283 6.283 0 0 0-4.469-1.851zm-8.863 5.5c.225 0 .426.088.612.271l.57.548-.603.579a.814.814 0 0 1-.578.223.815.815 0 0 1-.58-.223.812.812 0 0 1-.24-.578c0-.221.084-.422.243-.581a.803.803 0 0 1 .576-.239m0-1c-.486 0-.942.189-1.285.533a1.809 1.809 0 0 0-.535 1.287c0 .484.189.941.533 1.285.344.344.815.516 1.287.516a1.81 1.81 0 0 0 1.285-.516l1.339-1.285-1.321-1.27a1.819 1.819 0 0 0-1.303-.55zm8.863 1.017a.81.81 0 0 1 .576.219c.158.159.242.359.242.582s-.083.422-.243.581a.802.802 0 0 1-.571.228.858.858 0 0 1-.617-.261l-.571-.548.603-.578a.814.814 0 0 1 .581-.223m0-1c-.472 0-.943.172-1.287.516l-1.34 1.285 1.322 1.27a1.85 1.85 0 0 0 1.311.539 1.798 1.798 0 0 0 1.813-1.808 1.81 1.81 0 0 0-.532-1.287 1.821 1.821 0 0 0-1.287-.515z"/></svg>