<svg xmlns="http://www.w3.org/2000/svg" version="1.2" baseProfile="tiny" viewBox="0 0 24 24"><path d="M14.234 16.014l.554-1.104c.808-1.61.897-3.228.253-4.552a3.93 3.93 0 0 0-.443-.693A4.005 4.005 0 0 0 17 6.001c0-2.206-1.794-4-4-4s-4 1.794-4 4c0 .783.234 1.508.624 2.126-1.696.33-2.806 1.248-2.947 1.375a1.997 1.997 0 0 0 1.089 3.484l-.554 1.104c-.808 1.61-.897 3.228-.254 4.552.565 1.164 1.621 1.955 2.972 2.229.413.084.836.127 1.254.127 2.368 0 3.965-1.347 4.14-1.501a1.996 1.996 0 0 0-1.09-3.483zM13 4.001a2 2 0 1 1-.001 4.001A2 2 0 0 1 13 4.001zM11.184 19c-.271 0-.559-.025-.854-.087-1.642-.334-2.328-1.933-1.328-3.927l1-1.995c.5-.996.47-1.63-.108-2.035-.181-.125-.431-.169-.689-.169-.577 0-1.201.214-1.201.214S9.137 10 10.816 10c.271 0 .56.025.856.087 1.64.334 2.328 1.933 1.328 3.927l-1 1.993c-.5.998-.472 1.632.106 2.035.181.126.433.169.692.169.577 0 1.2-.212 1.2-.212S12.865 19 11.184 19z"/></svg>