<svg xmlns="http://www.w3.org/2000/svg" version="1.2" baseProfile="tiny" viewBox="0 0 24 24"><path d="M17.5 5.999a1.1 1.1 0 0 1 .777 1.878L16.557 9.6l.307.308c.585.584.906 1.362.906 2.192s-.321 1.607-.906 2.191l-4.172 4.172c-.584.584-1.361.906-2.191.906s-1.607-.322-2.191-.906L8 18.154l-1.723 1.723c-.215.215-.495.322-.777.322s-.562-.107-.777-.322a1.1 1.1 0 0 1 0-1.557l1.72-1.72-.308-.309c-.583-.584-.905-1.361-.905-2.191s.321-1.608.905-2.192l4.173-4.173c.584-.584 1.387-.875 2.191-.875s1.607.291 2.191.875l.31.308 1.723-1.723c.215-.215.495-.321.777-.321m0-2c-.828 0-1.605.321-2.191.908l-.492.491a5.223 5.223 0 0 0-2.316-.539c-1.363 0-2.677.533-3.605 1.461l-4.172 4.173A5.057 5.057 0 0 0 3.23 14.1c0 .822.192 1.616.558 2.327l-.479.48A3.078 3.078 0 0 0 2.4 19.1c0 .827.322 1.605.908 2.191.584.586 1.363.908 2.191.908s1.605-.322 2.191-.908l.48-.48a5.082 5.082 0 0 0 2.328.559 5.06 5.06 0 0 0 3.605-1.492l4.172-4.172a5.06 5.06 0 0 0 1.492-3.605c0-.824-.192-1.617-.558-2.328l.479-.48A3.076 3.076 0 0 0 20.6 7.1c0-.828-.322-1.606-.908-2.192a3.073 3.073 0 0 0-2.192-.909zm-6.1 7.169c.017.535.233 1.036.613 1.416.381.38.881.598 1.416.614l-1.832 1.831a2.089 2.089 0 0 0-.613-1.415A2.088 2.088 0 0 0 9.568 13l1.832-1.832m1.1-2.139a.898.898 0 0 0-.637.262l-4.172 4.172a.894.894 0 0 0-.26.637c0 .24.092.467.26.635l.309.308.723-.723c.215-.215.495-.321.777-.321s.562.106.777.321a1.1 1.1 0 0 1 0 1.557l-.72.723.308.308c.168.168.401.253.636.253s.468-.084.637-.253l4.172-4.173a.893.893 0 0 0 .26-.635.894.894 0 0 0-.26-.637l-.31-.309-.723.723c-.215.215-.495.322-.777.322s-.562-.107-.777-.322a1.1 1.1 0 0 1 0-1.557l.72-.72-.307-.309a.897.897 0 0 0-.636-.262z"/></svg>