<svg xmlns="http://www.w3.org/2000/svg" version="1.2" baseProfile="tiny" viewBox="0 0 24 24"><path d="M18.277 6.321a1.1 1.1 0 0 0-1.556 0L15 8.043l-.308-.308c-1.168-1.168-3.216-1.168-4.384 0l-4.172 4.172c-.584.584-.906 1.363-.906 2.192s.322 1.608.906 2.192l.308.308-1.722 1.722a1.1 1.1 0 1 0 1.556 1.556L8 18.155l.308.308c.584.584 1.362.906 2.192.906s1.608-.322 2.192-.906l4.172-4.172c.584-.584.906-1.362.906-2.192s-.322-1.608-.906-2.192l-.308-.308 1.722-1.722a1.1 1.1 0 0 0-.001-1.556zm-2.969 6.414l-4.172 4.172c-.168.168-.402.253-.636.253s-.468-.084-.636-.253l-.308-.308.722-.722a1.1 1.1 0 1 0-1.556-1.556L8 15.043l-.308-.308c-.168-.168-.261-.395-.261-.636s.093-.468.261-.636l4.172-4.172c.168-.168.394-.261.636-.261s.468.093.636.261l.308.308-.722.722a1.1 1.1 0 1 0 1.556 1.556l.722-.722.308.308c.168.168.261.395.261.636s-.093.468-.261.636z"/></svg>