<svg xmlns="http://www.w3.org/2000/svg" version="1.2" baseProfile="tiny" viewBox="0 0 24 24"><path d="M21.436 7.586l-3.998-4.02c-.752-.756-2.063-.764-2.83-.006-.196.196-.35.436-.418.629-.653 1.362-1.354 2.215-2.254 2.727l-.217.105C10.751 7.506 9.434 8 7 8c-.266 0-.521.052-.766.152a2.022 2.022 0 0 0-1.082 1.084 2.022 2.022 0 0 0 0 1.525c.104.249.25.471.435.651l3.235 3.235L5 20l5.352-3.822 3.227 3.227c.186.189.406.339.656.441a1.974 1.974 0 0 0 1.531 0 1.963 1.963 0 0 0 1.08-1.078c.103-.242.155-.507.155-.768 0-2.436.494-3.752.978-4.721.496-.992 1.369-1.748 2.754-2.414.271-.104.51-.256.711-.457a2.005 2.005 0 0 0-.008-2.822zm-5.248 4.801c-.819 1.643-1.188 3.37-1.195 5.604L7 10c2.139 0 3.814-.335 5.396-1.084l.235-.105c1.399-.699 2.468-1.893 3.388-3.834l3.924 4.051c-1.863.893-3.056 1.96-3.755 3.359z"/></svg>