<svg xmlns="http://www.w3.org/2000/svg" version="1.2" baseProfile="tiny" viewBox="0 0 24 24"><path d="M21.384 7.331c.073-1.199-.354-2.388-1.146-3.179C19.506 3.421 18.445 3 17.326 3c-1.176 0-2.206.453-2.825 1.243-.692.883-1.392 2.625-1.769 3.647l-1.616-1.617a.999.999 0 0 0-1.414 0 .997.997 0 0 0 0 1.414l.293.293-5.231 5.232c-.375.375-.719.912-.968 1.516-.019.043-1.726 4.328-.093 5.959.527.526 1.33.707 2.178.707 1.778-.002 3.753-.787 3.783-.801.602-.248 1.141-.592 1.514-.967l5.232-5.232.293.293a.997.997 0 0 0 1.414 0 .999.999 0 0 0 0-1.414L16.5 11.657c1.023-.376 2.766-1.075 3.648-1.769.721-.562 1.17-1.493 1.236-2.557zM5.119 19.275c-.247-.295-.105-1.508.154-2.58l2.422 2.423c-1.071.261-2.283.403-2.576.157zm4.645-1.061c-.188.188-.511.388-.865.533l-.116.042-3.181-3.18.043-.117c.146-.354.346-.678.533-.864l5.232-5.231 3.586 3.586-5.232 5.231z"/></svg>