<svg xmlns="http://www.w3.org/2000/svg" version="1.2" baseProfile="tiny" viewBox="0 0 24 24"><path d="M11.5 18.573a6.46 6.46 0 0 1-4.596-1.903C5.677 15.442 5 13.81 5 12.073s.677-3.369 1.904-4.597A.999.999 0 1 1 8.318 8.89C7.468 9.741 7 10.871 7 12.073s.468 2.333 1.318 3.183c.85.85 1.979 1.317 3.182 1.317s2.332-.468 3.182-1.317c.851-.85 1.318-1.98 1.318-3.183s-.468-2.333-1.318-3.183a.999.999 0 1 1 1.414-1.414C17.323 8.705 18 10.337 18 12.073s-.677 3.369-1.904 4.597a6.46 6.46 0 0 1-4.596 1.903zm0-7.573a1 1 0 0 1-1-1V5a1 1 0 1 1 2 0v5a1 1 0 0 1-1 1z"/></svg>