<svg xmlns="http://www.w3.org/2000/svg" version="1.2" baseProfile="tiny" viewBox="0 0 24 24"><path d="M17.51 6.062a2.984 2.984 0 0 0-3.01-.729V5a3.001 3.001 0 0 0-6 0v.332a2.99 2.99 0 0 0-3.01.73A8.45 8.45 0 0 0 3 12.073a8.45 8.45 0 0 0 2.49 6.011c1.604 1.605 3.739 2.489 6.01 2.489s4.405-.884 6.01-2.489c1.605-1.605 2.49-3.74 2.49-6.011s-.885-4.405-2.49-6.011zM10.5 5a1 1 0 1 1 2 0v5a1 1 0 1 1-2 0V5zm-1 3.803V10a2 2 0 0 0 4 0V8.818c.095.284.248.554.475.78.661.661 1.025 1.54 1.025 2.475s-.364 1.814-1.025 2.476c-1.322 1.321-3.627 1.321-4.949 0C8.364 13.887 8 13.008 8 12.073s.364-1.814 1.025-2.476c.231-.23.383-.504.475-.794zm6.596 7.867c-1.228 1.228-2.859 1.903-4.596 1.903s-3.368-.676-4.596-1.903C5.677 15.442 5 13.81 5 12.073s.677-3.369 1.904-4.597A.999.999 0 1 1 8.318 8.89C7.468 9.741 7 10.871 7 12.073s.468 2.333 1.318 3.183c.85.85 1.979 1.317 3.182 1.317s2.332-.468 3.182-1.317c.851-.85 1.318-1.98 1.318-3.183s-.468-2.333-1.318-3.183a.999.999 0 1 1 1.414-1.414C17.323 8.705 18 10.337 18 12.073s-.677 3.369-1.904 4.597z"/></svg>