<svg xmlns="http://www.w3.org/2000/svg" version="1.2" baseProfile="tiny" viewBox="0 0 24 24"><path d="M12 21c-4.962 0-9-4.037-9-9s4.038-9 9-9 9 4.037 9 9-4.038 9-9 9zm0-16c-3.86 0-7 3.141-7 7s3.14 7 7 7 7-3.141 7-7-3.14-7-7-7zm0 1.5c-3.033 0-5.5 2.468-5.5 5.5s2.467 5.5 5.5 5.5 5.5-2.468 5.5-5.5-2.467-5.5-5.5-5.5zm4.49 5.402a7.933 7.933 0 0 0-3.103.042 15.172 15.172 0 0 0-.417-.965 7.915 7.915 0 0 0 2.284-2.07 4.47 4.47 0 0 1 1.236 2.993zm-2-3.646a6.918 6.918 0 0 1-1.975 1.832 14.639 14.639 0 0 0-1.692-2.412A4.448 4.448 0 0 1 12 7.5c.921 0 1.776.28 2.49.756zm-4.641-.184c.687.758 1.278 1.59 1.776 2.473a6.928 6.928 0 0 1-3.998.437 4.493 4.493 0 0 1 2.222-2.91zM7.5 12c.468.064.936.121 1.399.121a7.912 7.912 0 0 0 3.185-.683c.123.261.238.524.344.793A7.91 7.91 0 0 0 8.7 15.036 4.47 4.47 0 0 1 7.5 12zm1.948 3.699a6.918 6.918 0 0 1 3.318-2.527 13.72 13.72 0 0 1 .596 3.095A4.458 4.458 0 0 1 12 16.5a4.466 4.466 0 0 1-2.552-.801zm4.872.137c-.099-1-.296-1.983-.593-2.937a6.94 6.94 0 0 1 2.683.001 4.505 4.505 0 0 1-2.09 2.936z"/></svg>