<svg xmlns="http://www.w3.org/2000/svg" version="1.2" baseProfile="tiny" viewBox="0 0 24 24"><path d="M15.279 10.283c.358-.221.597-.521.713-.904a3.854 3.854 0 0 1-1.045.383 1.55 1.55 0 0 0-1.182-.507c-.464 0-.855.163-1.175.479a1.585 1.585 0 0 0-.478 1.158c0 .137.017.26.052.364-1.368-.048-2.499-.614-3.391-1.706a1.644 1.644 0 0 0-.227.82c0 .578.244 1.036.73 1.373a1.81 1.81 0 0 1-.73-.209c0 .413.121.758.365 1.062.243.3.557.492.939.573a1.734 1.734 0 0 1-.435.053.826.826 0 0 1-.296-.037c.104.337.296.609.574.818.277.21.597.32.957.33a3.196 3.196 0 0 1-2.035.694c-.188 0-.32-.002-.4-.017a4.534 4.534 0 0 0 2.521.733c.951 0 1.792-.241 2.522-.723.73-.479 1.271-1.07 1.617-1.767a4.793 4.793 0 0 0 .521-2.174v-.209c.336-.253.609-.538.818-.854a3.452 3.452 0 0 1-.935.267zM12 21c-2.49 0-4.635-.89-6.376-2.646C3.883 16.603 3 14.465 3 12c0-2.488.884-4.634 2.627-6.375C7.367 3.884 9.511 3 12 3c2.466 0 4.604.883 6.354 2.624C20.11 7.366 21 9.512 21 12c0 2.465-.889 4.604-2.644 6.357C16.605 20.11 14.467 21 12 21zm0-16c-1.966 0-3.588.667-4.958 2.04C5.667 8.412 5 10.034 5 12c0 1.944.668 3.562 2.043 4.945C8.415 18.328 10.036 19 12 19c1.943 0 3.56-.673 4.942-2.057C18.327 15.559 19 13.941 19 12c0-1.963-.672-3.585-2.055-4.957C15.562 5.668 13.945 5 12 5z"/></svg>