<svg xmlns="http://www.w3.org/2000/svg" version="1.2" baseProfile="tiny" viewBox="0 0 24 24"><path d="M21.556 11.169l-1.849-1.232.984-1.993a1 1 0 0 0-.832-1.441l-2.218-.143-.144-2.218a.997.997 0 0 0-1.44-.832l-1.991.985-1.233-1.849c-.371-.557-1.293-.557-1.664 0L9.935 4.294 7.943 3.31a.998.998 0 0 0-1.441.832l-.143 2.217-2.218.143a1.002 1.002 0 0 0-.832 1.441l.984 1.993-1.849 1.233a1.001 1.001 0 0 0 0 1.664l1.85 1.233-.985 1.992a1 1 0 0 0 .832 1.441l2.218.143.143 2.218a1 1 0 0 0 1.441.832l1.992-.985 1.233 1.849a1.001 1.001 0 0 0 1.664 0l1.233-1.849 1.991.985a.998.998 0 0 0 1.441-.832l.143-2.217 2.219-.144a.998.998 0 0 0 .832-1.441l-.984-1.992 1.849-1.233a1.001 1.001 0 0 0 0-1.664zm-4.032 2.997l.71 1.435-1.6.104a1.001 1.001 0 0 0-.934.934l-.103 1.598-1.435-.709a.998.998 0 0 0-1.275.342L12 19.2l-.889-1.333a1 1 0 0 0-1.275-.341l-1.436.709-.103-1.598a1.001 1.001 0 0 0-.934-.934L5.767 15.6l.71-1.435a1 1 0 0 0-.342-1.275l-1.333-.889 1.332-.888c.418-.279.564-.825.342-1.275l-.71-1.436 1.6-.103c.502-.033.901-.432.934-.934l.103-1.598 1.435.709c.448.221.996.076 1.275-.342L12 4.803l.889 1.333c.279.418.826.563 1.275.342l1.436-.71.104 1.599c.033.501.433.9.934.933l1.598.103-.709 1.437a1 1 0 0 0 .342 1.275l1.332.888-1.333.889a.997.997 0 0 0-.344 1.274z"/></svg>