<svg viewBox="0 0 1792 1792" xmlns="http://www.w3.org/2000/svg"><path d="M1128 336q0 124-88 212t-212 88q0-124 88-212t212-88zM578 536h100q21 0 40 14t26 33l79 194q5-1 16-3 34-6 54-9.5t60-7 65.5-1 61 10 56.5 23 42.5 42 29 64 5 92T1193 1109q-1 7-3 19.5t-11 50-20.5 73-32.5 81.5-46.5 83-64 70-82.5 50q-13 5-42 5t-65.5-2.5-47.5-2.5q-14 0-49.5 3.5t-63 3.5-43.5-7q-57-25-104.5-78.5t-75-111.5-46.5-112-26-90l-7-35q-15-63-18-115t4.5-88.5 26-64T415 798t52-25.5 58.5-13 62.5-2 59.5 4.5 55.5 8L556 578q-12-18-5.5-30t27.5-12z"/></svg>