<svg viewBox="0 0 1792 1792" xmlns="http://www.w3.org/2000/svg"><path d="M881 895q5 1 14.5 4.5t36 15.5 50.5 26.5 53.5 40 50.5 54.5 35.5 70 14.5 87q0 67-27.5 125.5T1037 1416t-98.5 66.5T830 1523t-102 13H228v-89q41-7 70.5-32.5T328 1349V522q0-24-.5-34t-3.5-24-8.5-19.5-17-13.5-28-12.5T228 407v-71l471 1q57 0 115.5 20.5t108 57 80.5 94 31 124.5q0 51-15.5 96.5t-38 74.5-45 50.5T897 885zm-353-59h139q78 0 130.5-48.5T850 665q0-41-8.5-70.5T812 539t-62.5-39.5T646 486H528v350zm0 500h216q80 0 121-50.5t41-130.5q0-90-62.5-154.5T687 936H528v400z"/></svg>