<svg viewBox="0 0 1792 1792" xmlns="http://www.w3.org/2000/svg"><path d="M153 436h1150q10 0 17.5 7.5t7.5 17.5v1050q0 10-7.5 17.5t-17.5 7.5H153q-10 0-17.5-7.5T128 1511V461q0-10 7.5-17.5T153 436zm75 100v100h100V536H228zm775 0H453q-10 0-17.5 7.5T428 561v350q0 10 7.5 17.5T453 936h550q10 0 17.5-7.5t7.5-17.5V561q0-10-7.5-17.5T1003 536zm125 0v100h100V536h-100zM228 736v100h100V736H228zm900 0v100h100V736h-100zM228 936v100h100V936H228zm900 0v100h100V936h-100zm-125 100H453q-10 0-17.5 7.5T428 1061v350q0 10 7.5 17.5t17.5 7.5h550q10 0 17.5-7.5t7.5-17.5v-350q0-10-7.5-17.5t-17.5-7.5zm-775 100v100h100v-100H228zm900 0v100h100v-100h-100zm-900 200v100h100v-100H228zm900 0v100h100v-100h-100z"/></svg>