<svg viewBox="0 0 1792 1792" xmlns="http://www.w3.org/2000/svg"><path d="M1228 536v269l-103 103-134-134q-15-15-33.5-16.5T923 770l-266 266H328v400H178q-21 0-35.5-14.5T128 1386V386q0-20 14.5-35t35.5-15h250v300h500V336h100zm-400 0H728V336h100v200zm502 428l70 70q15 15 15 35.5t-15 35.5l-131 131 131 131q15 15 15 35.5t-15 35.5l-70 70q-15 15-35.5 15t-35.5-15l-131-131-131 131q-15 15-35.5 15t-35.5-15l-70-70q-15-15-15-35.5t15-35.5l131-131-131-131q-15-15-15-35.5t15-35.5l70-70q15-15 35.5-15t35.5 15l131 131 131-131q15-15 35.5-15t35.5 15z"/></svg>