<svg viewBox="0 0 1792 1792" xmlns="http://www.w3.org/2000/svg"><path d="M728 361q116 0 227 49.5t192.5 131 131 192.5 49.5 227v300q0 10-7.5 17.5t-17.5 7.5h-50q-10 0-17.5-7.5t-7.5-17.5V961q0-127-70.5-231.5T973 568t-245-57-245 57-184.5 161.5T228 961v300q0 10-7.5 17.5T203 1286h-50q-10 0-17.5-7.5T128 1261V961q0-116 49.5-227t131-192.5 192.5-131T728 361zm-380 675h160q8 0 14 6t6 14v460q0 8-6 14t-14 6H348q-8 0-14-6t-6-14v-460q0-8 6-14t14-6zm600 0h160q8 0 14 6t6 14v460q0 8-6 14t-14 6H948q-8 0-14-6t-6-14v-460q0-8 6-14t14-6z"/></svg>