<svg viewBox="0 0 1792 1792" xmlns="http://www.w3.org/2000/svg"><path d="M1128 336v150q0 21-14.5 35.5T1078 536h-50v100q0 91-49.5 165.5T848 911q81 35 130.5 109.5T1028 1186v150h50q21 0 35.5 14.5t14.5 35.5v150H328v-150q0-21 14.5-35.5T378 1336h50v-150q0-91 49.5-165.5T608 911q-81-35-130.5-109.5T428 636V536h-50q-21 0-35.5-14.5T328 486V336h800zM528 536v100q0 60 32.5 109.5T648 819q28 12 44 37t16 55-16 55-44 37q-55 24-87.5 73.5T528 1186v150h400v-150q0-60-32.5-109.5T808 1003q-28-12-44-37t-16-55 16-55 44-37q55-24 87.5-73.5T928 636V536H528z"/></svg>