<svg viewBox="0 0 1792 1792" xmlns="http://www.w3.org/2000/svg"><path d="M528 1536H428V436h100v1100zM678 436h100q21 0 35.5 14.5T828 486v100q0 21-14.5 35.5T778 636H678q-21 0-35.5-14.5T628 586V486q0-21 14.5-35.5T678 436zm0 300h500q21 0 35.5 14.5T1228 786v100q0 21-14.5 35.5T1178 936H678q-21 0-35.5-14.5T628 886V786q0-21 14.5-35.5T678 736zM395 986l-167 125v-75H28V936h200v-75zm283 50h300q21 0 35.5 14.5t14.5 35.5v100q0 21-14.5 35.5T978 1236H678q-21 0-35.5-14.5T628 1186v-100q0-21 14.5-35.5T678 1036zm0 300h600q21 0 35.5 14.5t14.5 35.5v100q0 21-14.5 35.5T1278 1536H678q-21 0-35.5-14.5T628 1486v-100q0-21 14.5-35.5T678 1336z"/></svg>