<svg viewBox="0 0 1792 1792" xmlns="http://www.w3.org/2000/svg"><path d="M278 436h1000q21 0 35.5 14.5T1328 486t-14.5 35.5T1278 536h-50v200h50q21 0 35.5 14.5T1328 786t-14.5 35.5T1278 836h-50v200h50q21 0 35.5 14.5t14.5 35.5-14.5 35.5-35.5 14.5h-50v200h50q21 0 35.5 14.5t14.5 35.5-14.5 35.5-35.5 14.5H278q-21 0-35.5-14.5T228 1386t14.5-35.5T278 1336h50v-200h-50q-21 0-35.5-14.5T228 1086t14.5-35.5T278 1036h50V836h-50q-21 0-35.5-14.5T228 786t14.5-35.5T278 736h50V536h-50q-21 0-35.5-14.5T228 486t14.5-35.5T278 436z"/></svg>