<svg viewBox="0 0 1792 1792" xmlns="http://www.w3.org/2000/svg"><path d="M178 436h200q21 0 35.5 14.5T428 486v200q0 21-14.5 35.5T378 736H178q-21 0-35.5-14.5T128 686V486q0-21 14.5-35.5T178 436zm400 0h700q21 0 35.5 14.5T1328 486v200q0 21-14.5 35.5T1278 736H578q-21 0-35.5-14.5T528 686V486q0-21 14.5-35.5T578 436zM178 836h200q21 0 35.5 14.5T428 886v200q0 21-14.5 35.5T378 1136H178q-21 0-35.5-14.5T128 1086V886q0-21 14.5-35.5T178 836zm400 0h700q21 0 35.5 14.5T1328 886v200q0 21-14.5 35.5T1278 1136H578q-21 0-35.5-14.5T528 1086V886q0-21 14.5-35.5T578 836zm-400 400h200q21 0 35.5 14.5T428 1286v200q0 21-14.5 35.5T378 1536H178q-21 0-35.5-14.5T128 1486v-200q0-21 14.5-35.5T178 1236zm400 0h700q21 0 35.5 14.5t14.5 35.5v200q0 21-14.5 35.5T1278 1536H578q-21 0-35.5-14.5T528 1486v-200q0-21 14.5-35.5T578 1236z"/></svg>