<svg viewBox="0 0 1792 1792" xmlns="http://www.w3.org/2000/svg"><path d="M178 436h400q21 0 35.5 14.5T628 486v400q0 21-14.5 35.5T578 936H178q-21 0-35.5-14.5T128 886V486q0-21 14.5-35.5T178 436zm600 0h400q21 0 35.5 14.5T1228 486v400q0 21-14.5 35.5T1178 936H778q-21 0-35.5-14.5T728 886V486q0-21 14.5-35.5T778 436zm-600 600h400q21 0 35.5 14.5T628 1086v400q0 21-14.5 35.5T578 1536H178q-21 0-35.5-14.5T128 1486v-400q0-21 14.5-35.5T178 1036zm600 0h400q21 0 35.5 14.5t14.5 35.5v400q0 21-14.5 35.5T1178 1536H778q-21 0-35.5-14.5T728 1486v-400q0-21 14.5-35.5T778 1036z"/></svg>