<svg viewBox="0 0 1792 1792" xmlns="http://www.w3.org/2000/svg"><path d="M728 436h250q23 0 45 16.5t38 40.5l238 344q29 29 29 74v100q0 44-30 84.5t-70 40.5H900q28 118 28 125v150q0 44-30 84.5t-70 40.5h-50q-27 0-51.5-20t-37.5-48l-96-198-145-196q-20-27-20-63V611q0-39 27.5-57t72.5-18h61q124-100 139-100zM178 536h100q21 0 35.5 14.5T328 586v500q0 21-14.5 35.5T278 1136H178q-21 0-35.5-14.5T128 1086V586q0-21 14.5-35.5T178 536zm586 0L628 636H528v375l150 213 100 212h50v-175l-50-225h450V911L978 536H764z"/></svg>