<svg viewBox="0 0 1792 1792" xmlns="http://www.w3.org/2000/svg"><path d="M728 359q117 0 224 45.5t184.5 123 123 184.5 45.5 224-45.5 224-123 184.5-184.5 123-224 45.5-224-45.5-184.5-123-123-184.5T151 936t45.5-224 123-184.5 184.5-123T728 359zm0 150q-116 0-214.5 57T358 721.5 301 936t57 214.5T513.5 1306t214.5 57 214.5-57 155.5-155.5 57-214.5-57-214.5T942.5 566 728 509zm-75 127h50q10 0 17.5 7.5T728 661v275h175q10 0 17.5 7.5T928 961v50q0 10-7.5 17.5T903 1036H653q-10 0-17.5-7.5T628 1011V661q0-10 7.5-17.5T653 636z"/></svg>