<svg xmlns="http://www.w3.org/2000/svg" viewBox="0 0 1000 900"><path d="M426 0c13.333 0 20 6.667 20 20v860c0 13.333-6.667 20-20 20h-46c-13.333 0-20-6.667-20-20V440H184c-10.667 0-20-2-28-6-8-1.333-16.667-5.333-26-12L10 340c-6.667-4-10-9.333-10-16s3.333-12 10-16l120-82c9.333-6.667 18-10.667 26-12 5.333-2.667 14.667-4 28-4h176V20c0-13.333 6.667-20 20-20h46m564 208c6.667 4 10 9.333 10 16s-3.333 12-10 16l-118 82c-14.667 8-23.333 12-26 12-9.333 4-18.667 6-28 6H516l-40-230h342c12 0 21.333 1.333 28 4 6.667 2.667 15.333 6.667 26 12l118 82"/></svg>