<svg xmlns="http://www.w3.org/2000/svg" viewBox="0 0 1000 1000"><path d="M950 460c13.333 0 25 4 35 12s15 17.333 15 28c0 26.667-16.667 40-50 40h-48c-33.333 0-50-13.333-50-40 0-10.667 5-20 15-28s21.667-12 35-12h48M500 226c76 0 141 26.667 195 80s81 118 81 194c0 77.333-27 142.667-81 196s-119 80-195 80-140.667-26.667-194-80-80-118.667-80-196c0-76 26.667-140.667 80-194s118-80 194-80m6 474V300c-57.333 0-106 19.667-146 59s-60 86.333-60 141c0 56 20 103.333 60 142s88.667 58 146 58M150 500c0 26.667-16.667 40-50 40H50c-33.333 0-50-13.333-50-40 0-10.667 5-20 15-28s21.667-12 35-12h50c13.333 0 25 4 35 12s15 17.333 15 28m350-350c-10.667 0-20-5-28-15s-12-21.667-12-35V50c0-13.333 4-25 12-35s17.333-15 28-15c10.667 0 20 5 28 15s12 21.667 12 35v50c0 13.333-4 25-12 35s-17.333 15-28 15m0 700c10.667 0 20 5 28 15s12 21.667 12 35v50c0 13.333-4 25-12 35s-17.333 15-28 15c-10.667 0-20-5-28-15s-12-21.667-12-35v-50c0-13.333 4-25 12-35s17.333-15 28-15m368-660l-34 34c-22.667 22.667-44 25.333-64 8-18.667-18.667-16-40 8-64 2.667-4 14-16 34-36 24-22.667 45.333-24.667 64-6s16 40-8 64M168 778c9.333-10.667 20.333-16.667 33-18 12.667-1.333 22.333 2 29 10 8 8 11.333 18.333 10 31-1.333 12.667-6.667 23.667-16 33l-36 36c-9.333 9.333-20.333 14.667-33 16-12.667 1.333-22.333-2-29-10-20-18.667-18-40 6-64 4-2.667 16-14 36-34m20-646l36 36c24 24 26 45.333 6 64-6.667 6.667-16.333 9.333-29 8-12.667-1.333-23.667-6.667-33-16-20-20-32-31.333-36-34-9.333-9.333-14.667-20.333-16-33-1.333-12.667 2-23 10-31 6.667-8 16.333-11.333 29-10 12.667 1.333 23.667 6.667 33 16m590 702c-24-24-26.667-45.333-8-64s40-16 64 8l34 34c24 24 26.667 45.333 8 64s-40 16.667-64-6c-20-20-31.333-32-34-36"/></svg>