<svg xmlns="http://www.w3.org/2000/svg" viewBox="0 0 822.666015625 820"><path d="M187.333 620l116-116v292l-276-16 88-86C38 612.667 0 516 1.333 404c1.333-112 41.333-208 120-288C188 49.333 268 10.667 361.333 0l4 102c-66.667 10.667-124 40-172 88-58.667 58.667-88.667 129.667-90 213-1.333 83.333 26.667 155.667 84 217m332-598l276 16-88 86c77.333 81.333 115.333 178 114 290C820 526 780 622 701.333 702c-64 65.333-144 104.667-240 118l-2-104c65.333-10.667 122-40 170-88 58.667-58.667 88.667-129.667 90-213 1.333-83.333-26.667-155.667-84-217l-114 116-2-292"/></svg>