<svg xmlns="http://www.w3.org/2000/svg" viewBox="0 0 863.333984375 840"><path d="M836.667 102c18.667 17.333 26.667 37.333 24 60l-98 648c-5.333 20-18 30-38 30h-586c-18.667 0-32-10-40-30C36 396.667 4 180.667 2.667 162c-2.667-22.667 4.667-42.667 22-60 4-4 22-18.333 54-43s50.667-39 56-43c12-10.667 30.667-16 56-16h480c25.333 0 44 5.333 56 16 52 38.667 88.667 67.333 110 86m-406 436c37.333 0 70-11.333 98-34s49-52.333 63-89 24-66.333 30-89 10.333-44.667 13-66h-92c-25.333 125.333-62.667 188-112 188s-86.667-62.667-112-188h-92c30.667 185.333 98.667 278 204 278m-352-368h704l-110-116h-484l-110 116"/></svg>