<svg xmlns="http://www.w3.org/2000/svg" viewBox="0 0 900 900"><path d="M150 800c0-26.667 10-50 30-70s43.333-30 70-30c28 0 51.667 10 71 30s29 43.333 29 70c0 28-9.667 51.667-29 71s-43 29-71 29c-26.667 0-50-9.667-70-29s-30-43-30-71m500 0c0-26.667 10-50 30-70s43.333-30 70-30c28 0 51.667 10 71 30s29 43.333 29 70c0 28-9.667 51.667-29 71s-43 29-71 29c-26.667 0-50-9.667-70-29s-30-43-30-71M328 564c-24 6.667-35.333 14.333-34 23 1.333 8.667 16 13 44 13h562v76c0 13.333-6.667 20-20 20H226c-13.333 0-20-6.667-20-20v-76l-10-46-98-454H0V20C0 6.667 6.667 0 20 0h156c13.333 0 20 6.667 20 20v86h704v274c0 14.667-6 23.333-18 26L328 564"/></svg>