<svg xmlns="http://www.w3.org/2000/svg" viewBox="0 0 1000 850"><path d="M456 450v100H0c5.333-150.667 8.667-248 10-292 2.667-72 36-108 100-108h160c10.667-17.333 23-39.667 37-67s21.667-42.333 23-45c9.333-17.333 17-28 23-32s18.333-6 37-6h222c17.333 0 29.333 2.333 36 7 6.667 4.667 14 15 22 31 12 21.333 32 58.667 60 112h160c64 0 97.333 36 100 108l10 292H546V450h-90M382 96l-28 54h292l-28-54c-9.333-17.333-23.333-26-42-26H424c-18.667 0-32.667 8.667-42 26m164 604V600h430c-4 58.667-7.333 114-10 166-4 56-34 84-90 84H126c-60 0-90-28-90-84L26 600h430v100h90"/></svg>