<svg xmlns="http://www.w3.org/2000/svg" viewBox="0 0 960 960"><path d="M480 304c-44 0-66-22.667-66-68s22-68 66-68c45.333 0 68 22.667 68 68s-22.667 68-68 68m98 26c9.333 0 16.667 2.667 22 8 6.667 6.667 10 14 10 22v196h-56v234H406V556h-56V360c0-8 3.333-15.333 10-22 5.333-5.333 12.667-8 22-8h196M480 0c133.333 0 246.667 46.667 340 140s140 206.667 140 340c0 132-46.667 245-140 339S613.333 960 480 960c-132 0-245-47-339-141S0 612 0 480c0-133.333 47-246.667 141-340S348 0 480 0m0 872c108 0 200.333-38.333 277-115s115-169 115-277c0-109.333-38.333-202-115-278S588 88 480 88s-200.333 38-277 114S88 370.667 88 480c0 108 38.333 200.333 115 277s169 115 277 115"/></svg>