<svg xmlns="http://www.w3.org/2000/svg" viewBox="0 0 960 960"><path d="M480 0c133.333 0 246.667 46.667 340 140s140 206.667 140 340c0 132-46.667 245-140 339S613.333 960 480 960c-132 0-245-47-339-141S0 612 0 480c0-133.333 47-246.667 141-340S348 0 480 0M110 350c-14.667 41.333-22 84.667-22 130 0 108 38.333 200.333 115 277s169 115 277 115c73.333 0 140.667-18.667 202-56s108.667-86.667 142-148l-178-80c-5.333 30.667-20.667 55.333-46 74-25.333 20-54 31.333-86 34v74h-56v-74c-52 0-100.667-19.333-146-58l66-66c33.333 29.333 69.333 44 108 44 16 0 30-4 42-12s18-20 18-36c0-12-4.667-22-14-30l-46-20-56-26-76-32-244-110m506 122l242 108c9.333-29.333 14-62.667 14-100 0-109.333-38.333-202-115-278S588 88 480 88c-68 0-130.667 16-188 48s-104 75.333-140 130l182 82c8-24 23.333-44.667 46-62 21.333-14.667 47.333-22.667 78-24v-74h56v74c45.333 2.667 85.333 17.333 120 44l-62 64c-29.333-18.667-57.333-28-84-28-16 0-28.667 2.667-38 8-12 6.667-18 16.667-18 30 0 5.333 1.333 9.333 4 12l60 28 42 18 78 34"/></svg>