<svg xmlns="http://www.w3.org/2000/svg" viewBox="0 0 960 960"><path d="M480 0c133.333 0 246.667 46.667 340 140s140 206.667 140 340c0 132-46.667 245-140 339S613.333 960 480 960c-132 0-245-47-339-141S0 612 0 480c0-133.333 47-246.667 141-340S348 0 480 0M106 364c-12 36-18 74.667-18 116 0 108 38.333 200.333 115 277s169 115 277 115c70.667 0 135.667-17.333 195-52s106.333-81.333 141-140l-152-68v68H538v108H420V680H296v-74h124v-36l-12-24H296v-74h54L106 364m432 242h112l-106-48-6 12v36m126-100l192 86c10.667-38.667 16-76 16-112 0-109.333-38.333-202-115-278S588 88 480 88c-70.667 0-135.333 17-194 51s-105.333 79.667-140 137l158 70-54-98h128l76 166 46 20 82-186h128L588 472h76v34"/></svg>