<svg xmlns="http://www.w3.org/2000/svg" viewBox="0 0 960 960"><path d="M480 0c133.333 0 246.667 46.667 340 140s140 206.667 140 340c0 132-46.667 245-140 339S613.333 960 480 960c-132 0-245-47-339-141S0 612 0 480c0-133.333 47-246.667 141-340S348 0 480 0M110 352c-14.667 41.333-22 84-22 128 0 108 38.333 200.333 115 277s169 115 277 115c73.333 0 140.333-18.333 201-55s108.333-86.333 143-149L578 560H404c6.667 24 15.333 42.667 26 56 25.333 26.667 60 40 104 40 30.667 0 61.333-6.667 92-20l18 90c-37.333 20-78.667 30-124 30-85.333 0-150.667-30.667-196-92-22.667-29.333-38-64-46-104h-52v-58h44v-14c0-2.667.333-6.667 1-12s1-9.333 1-12h-46v-56h10l-126-56m488 112l262 116c8-32 12-65.333 12-100 0-109.333-38.333-202-115-278S588 88 480 88c-68 0-131 16-189 48s-105 75.333-141 130l158 70c5.333-9.333 14.667-22 28-38 48-54.667 109.333-82 184-82 46.667 0 87.333 8 122 24l-24 92c-26.667-13.333-56-20-88-20-42.667 0-76 14.667-100 44-6.667 6.667-12 16-16 28l56 24h136v56h-8"/></svg>