<svg xmlns="http://www.w3.org/2000/svg" viewBox="0 0 960 960"><path d="M794 488l10 4v136l-10 4-116 50-4 2-6-2-252-104-8-4-124 52-124-54V450l116-48-2-2V264l130-56 294 122v118l96 40M658 646v-86h-2v-2l-220-90v86l220 92v-2l2 2m14-112l78-32-72-30-76 32 70 30m102 74v-84l-86 36v84l86-36M480 0c133.333 0 246.667 46.667 340 140s140 206.667 140 340c0 132-46.667 245-140 339S613.333 960 480 960c-132 0-245-47-339-141S0 612 0 480c0-133.333 47-246.667 141-340S348 0 480 0m0 872c108 0 200.333-38.333 277-115s115-169 115-277c0-109.333-38.333-202-115-278S588 88 480 88s-200.333 38-277 114S88 370.667 88 480c0 108 38.333 200.333 115 277s169 115 277 115"/></svg>