<svg xmlns="http://www.w3.org/2000/svg" viewBox="0 0 960 960"><path d="M676 342c8 0 14.667 2.667 20 8s8 11.333 8 18v354c0 6.667-2.667 12.667-8 18s-12 8-20 8H416c-8 0-14.667-2.667-20-8s-8-11.333-8-18V618H284c-6.667 0-12.667-2.667-18-8s-8-12-8-20V238c0-8 2-14 6-18 2.667-4 8.667-7.333 18-10h264c6.667 0 12.667 2.667 18 8s8 12 8 20v104h104m-264 0h108v-78H310v300h78V368c0-6.667 2.667-12.667 8-18 2.667-2.667 8-5.333 16-8m238 354V394H440v302h210M480 0c133.333 0 246.667 46.667 340 140s140 206.667 140 340c0 132-46.667 245-140 339S613.333 960 480 960c-132 0-245-47-339-141S0 612 0 480c0-133.333 47-246.667 141-340S348 0 480 0m0 872c108 0 200.333-38.333 277-115s115-169 115-277c0-109.333-38.333-202-115-278S588 88 480 88s-200.333 38-277 114S88 370.667 88 480c0 108 38.333 200.333 115 277s169 115 277 115"/></svg>