<svg xmlns="http://www.w3.org/2000/svg" viewBox="0 0 960 960"><path d="M480 202c72 0 123 27 153 81s45 119.667 45 197c0 76-15 141-45 195s-81 81-153 81-123-27-153-81-45-119-45-195c0-77.333 15-143 45-197s81-81 153-81m-86 278c0 12 1.333 34 4 66l106-194c9.333-16 7.333-30-6-42-8-2.667-14-4-18-4-57.333 0-86 58-86 174m86 172c57.333 0 86-57.333 86-172 0-26.667-2-54.667-6-84L442 600c-14.667 20-10.667 35.333 12 46 1.333 1.333 3.333 2 6 2 1.333 0 2 .667 2 2 1.333 0 4 .333 8 1s7.333 1 10 1m0-652c133.333 0 246.667 46.667 340 140s140 206.667 140 340c0 132-46.667 245-140 339S613.333 960 480 960c-132 0-245-47-339-141S0 612 0 480c0-133.333 47-246.667 141-340S348 0 480 0m0 872c108 0 200.333-38.333 277-115s115-169 115-277c0-109.333-38.333-202-115-278S588 88 480 88s-200.333 38-277 114S88 370.667 88 480c0 108 38.333 200.333 115 277s169 115 277 115"/></svg>