<svg xmlns="http://www.w3.org/2000/svg" viewBox="0 0 840 840"><path d="M760 420c0 48 26.667 88.667 80 122-8 26.667-19.333 54-34 82-46.667-12-92 2.667-136 44-36 38.667-47.333 84-34 136-26.667 13.333-54.667 25.333-84 36-30.667-54.667-74.667-82-132-82s-101.333 27.333-132 82c-29.333-10.667-57.333-22.667-84-36 13.333-53.333 2-98.667-34-136-36-36-81.333-47.333-136-34-9.333-17.333-20.667-44.667-34-82 54.667-34.667 82-78.667 82-132 0-48-27.333-89.333-82-124 13.333-37.333 24.667-64.667 34-82 49.333 12 94.667-2.667 136-44 36-37.333 47.333-82.667 34-136 28-14.667 56-26 84-34 30.667 53.333 74.667 80 132 80S521.333 53.333 552 0c28 8 56 19.333 84 34-13.333 52-2 97.333 34 136 44 41.333 89.333 56 136 44 14.667 28 26 55.333 34 82-53.333 33.333-80 74.667-80 124M420 602c50.667 0 93.667-17.667 129-53s53-78.333 53-129-17.667-94-53-130-78.333-54-129-54-93.667 18-129 54-53 79.333-53 130 17.667 93.667 53 129 78.333 53 129 53"/></svg>