<svg xmlns="http://www.w3.org/2000/svg" viewBox="0 0 964 962.666015625"><path d="M476.667 1.333c132-1.333 245.333 44 340 136s143.333 204 146 336c1.333 133.333-44 247.333-136 342s-204.667 143.333-338 146c-132 1.333-245.667-44.333-341-137s-143.667-205-145-337C0 354 45 240 137.667 145.333s205.667-142.667 339-144m12 858c104-1.333 192.667-39.333 266-114s109.333-164.667 108-270C861.334 370 823 281 747.667 208.333s-165-108.333-269-107c-105.333 1.333-194.333 39.333-267 114s-108.333 164.667-107 270c1.333 105.333 39.333 194.333 114 267s164.667 108.333 270 107m-234-154c2.667-17.333 6.667-39.333 12-66s19-69.333 41-128 47.667-102.667 77-132 71-54.667 125-76 101-35.333 141-42l60-10c-2.667 17.333-6.667 39.333-12 66s-19 69.333-41 128-47.667 102.667-77 132c-28 28-69.333 52.667-124 74s-102 35.333-142 42l-60 12m180-276c-14.667 13.333-22 29.333-22 48s7.333 35.333 22 50c13.333 14.667 29.667 22 49 22s35.667-7.333 49-22c34.667-34.667 64-96.667 88-186-90.667 24-152.667 53.333-186 88"/></svg>