<svg xmlns="http://www.w3.org/2000/svg" viewBox="0 0 700 880"><path d="M686 582c9.333-13.333 14-12.667 14 2v100c0 49.333-34.667 94.333-104 135s-151.333 61-246 61c-93.333 0-175-20.333-245-61S0 733.333 0 684V584c0-5.333 1.333-8.667 4-10 2.667-1.333 6 1.333 10 8 21.333 34.667 63 63.333 125 86s132.333 34 211 34 149-11.333 211-34 103.667-51.333 125-86m2-254c5.333-10.667 9.333-10.667 12 0v116c0 45.333-34 83.333-102 114s-150.667 46-248 46c-96 0-178.333-15.333-247-46S0 489.333 0 444V328c0-13.333 4.667-13.333 14 0 20 30.667 61.333 55.667 124 75s133.333 29 212 29 149.333-9.667 212-29 104.667-44.333 126-75M350 0c96 0 178.333 13 247 39s103 57 103 93v64c0 38.667-34.333 71.667-103 99s-151 41-247 41-178.333-13.667-247-41S0 234.667 0 196v-64c0-36 34.333-67 103-93S254 0 350 0"/></svg>