<svg xmlns="http://www.w3.org/2000/svg" viewBox="0 0 920 920"><path d="M438 330c-20-36-42-72.333-66-109s-42.667-64.667-56-84c-13.333-19.333-21.333-30.333-24-33-54.667 26.667-101 64-139 112S89.333 318 76 378c121.333 0 242-16 362-48m50 132c5.333-2.667 10-4 14-4-6.667-18.667-17.333-41.333-32-68-121.333 37.333-255.333 56-402 56v14c0 100 33.333 187.333 100 262 2.667-5.333 7-12.333 13-21s19-25.333 39-50 41.333-47.667 64-69 52.333-43.333 89-66 75-40.667 115-54M218 768c-1.333 0-2.667-.667-4-2l-4-4 8 6m502-604c-76-65.333-162.667-98-260-98-32 0-62.667 4-92 12 54.667 72 103.333 148 146 228 92-34.667 160-81.333 204-140l2-2M460 920c-126.667 0-235-45-325-135S0 586.667 0 460s45-235 135-325S333.333 0 460 0s235 45 325 135 135 198.333 135 325-45 235-135 325-198.333 135-325 135m68-396c-144 49.333-246.667 130-308 242l-2 2c73.333 56 154 84 242 84 52 0 103.333-10.667 154-32-16-93.333-44-192.667-84-298l-2 2m16-158c8 16 16.667 34.667 26 56 1.333 1.333 3 4.333 5 9s3.667 8.333 5 11c44-5.333 87-6.667 129-4s75.667 6 101 10 39.333 6.667 42 8c0-92-29.333-174-88-246l-8 10c-5.333 6.667-14 15.667-26 27s-26 23.333-42 36c-16 12.667-36.667 26.667-62 42-25.333 15.333-52.667 29-82 41m60 138c34.667 98.667 60 192 76 280 93.333-61.333 149.333-148.667 168-262-5.333-2.667-18.333-6.333-39-11s-50-8.667-88-12-77-1.667-117 5"/></svg>