<svg xmlns="http://www.w3.org/2000/svg" viewBox="0 0 960 960"><path d="M494 478c-29.333 9.333-56.667 24-82 44s-43.667 37-55 51c-11.333 14-19.667 25.667-25 35-32-38.667-48-81.333-48-128v-4c70.667 0 137.333-9.333 200-28l14 28-4 2m114-148c-21.333 28-54.667 50.667-100 68-17.333-32-40.667-68.667-70-110 9.333-2.667 23.333-4 42-4 48 0 90.667 15.333 128 46M362 634c26.667-53.333 77.333-93.333 152-120 22.667 61.333 36 110 40 146-24 10.667-48.667 16-74 16-45.333 0-84.667-14-118-42m104-222c-61.333 16-120 24-176 24 12-61.333 46.667-106 104-134 21.333 26.667 45.333 63.333 72 110m90 92c8-1.333 20.667-2 38-2 20 0 46.667 3.333 80 10-10.667 54.667-38 97.333-82 128-4-37.333-16-82.667-36-136M480 0c133.333 0 246.667 46.667 340 140s140 206.667 140 340c0 132-46.667 245-140 339S613.333 960 480 960c-132 0-245-47-339-141S0 612 0 480c0-133.333 47-246.667 141-340S348 0 480 0m0 714c65.333 0 121-23 167-69s69-101 69-165c0-65.333-23-121-69-167s-101.667-69-167-69-120.667 23-166 69-68 101.667-68 167c0 64 22.667 119 68 165s100.667 69 166 69m46-282c48-18.667 84-43.333 108-74 28 34.667 42 73.333 42 116-32-5.333-62-8-90-8-20 0-34.667.667-44 2-1.333-1.333-2-2.667-2-4 0-2.667-.667-4-2-4-1.333-2.667-3.333-7-6-13s-4.667-11-6-15"/></svg>