<svg xmlns="http://www.w3.org/2000/svg" viewBox="0 0 909.3330078125 750"><path d="M887.333 420c17.333 29.333 22 61.333 14 96l-34 184c-1.333 13.333-7.667 25-19 35s-24.333 15-39 15h-712c-13.333 0-26-5-38-15s-18.667-21.667-20-35l-34-184c-5.333-34.667-.667-66.667 14-96l158-374C192 15.333 216 0 249.333 0h408c33.333 0 58 15.333 74 46l156 374m-68 132c1.333-14.667-2-27.333-10-38-8-10.667-19.333-16-34-16h-644c-14.667 0-26 5.333-34 16s-11.333 23.333-10 38l14 74c1.333 14.667 7.667 27 19 37s24.333 15 39 15h590c14.667 0 27.667-5 39-15 11.333-10 17.667-22.333 19-37l12-74"/></svg>