<svg xmlns="http://www.w3.org/2000/svg" viewBox="0 0 560 960"><path d="M290 8c9.333 78.667 29.333 151.667 60 219s61.333 120.333 92 159 58 84 82 136 36 105.333 36 160c0 76-27.667 141.333-83 196s-121 82-197 82-141.667-27.333-197-82S0 758 0 682c0-54.667 12-108 36-160s51.333-97.333 82-136 61.333-91.667 92-159S260.667 86.667 270 8c1.333-5.333 5-8 11-8s9 2.667 9 8m-42 392c1.333-2.667.667-7.333-2-14-4-4-8.667-6-14-6s-9.333 2-12 6l-40 58c-21.333 30.667-37.333 54-48 70-10.667 16-22 41-34 75s-18 67.667-18 101c0 16 5.667 29.667 17 41 11.333 11.333 25 17 41 17 38.667 0 58-22.667 58-68 0-62.667 14-144.667 42-246 1.333-4 3-9.667 5-17s3.667-13 5-17"/></svg>