<svg xmlns="http://www.w3.org/2000/svg" viewBox="0 0 716 1006.6669921875"><path d="M76 990.667c-4 13.333-12.667 16-26 8-12-5.333-17.333-16.667-16-34 2.667-66.667 19.333-142 50-226-66.667-102.667-84-208-52-316 6.667 21.333 17.333 47.333 32 78 14.667 30.667 29.333 57.333 44 80 14.667 22.667 25.333 32.667 32 30 5.333-2.667 5.333-30.333 0-83s-9-108-11-166 6.333-110.333 25-157c14.667-29.333 41.333-60.667 80-94s73.333-56.667 104-70c-16 30.667-27 62-33 94s-7.333 58-4 78 10.333 30.667 21 32c8 0 36-40 84-120S489.333 4 512 2.667c30.667-2.667 68.667 7 114 29s72.667 43.667 82 65c8 16 8 42.333 0 79s-21.333 64.333-40 83c-29.333 29.333-78 50-146 62s-106 20-114 24c-10.667 6.667-6.667 18 12 34 36 32 94.667 38.667 176 20-37.333 53.333-82.667 91.333-136 114s-97.333 35.333-132 38c-34.667 2.667-52.667 6-54 10-2.667 16 13.667 34 49 54s69 24.667 101 14c-20 37.333-41 65.333-63 84s-40 30.333-54 35c-14 4.667-39.333 8.333-76 11s-65 5.333-85 8l-70 224"/></svg>