<svg xmlns="http://www.w3.org/2000/svg" viewBox="0 0 910 910"><path d="M809.667 102c41.333 41.333 69.667 84.667 85 130 15.333 45.333 13.667 76-5 92l-134 134c-10.667 10.667-31.333 19.333-62 26-30.667 6.667-62.667 8-96 4l-408 408c-12 12-31 14-57 6s-51-24.667-75-50c-24-24-40.333-48.667-49-74-8.667-25.333-7-44 5-56l408-408c-4-33.333-2.667-65.333 4-96s15.333-51.333 26-62l136-136c16-18.667 46.667-20 92-4s88.667 44.667 130 86m-448 408c21.333 21.333 48 16.667 80-14 30.667-30.667 35.333-58 14-82-9.333-9.333-22-12.667-38-10s-30.667 10.667-44 24c-13.333 13.333-21 27.667-23 43-2 15.333 1.667 28.333 11 39m336-298c20 20 42.667 36.667 68 50 25.333 13.333 46 21.667 62 25 16 3.333 25.333 3.667 28 1 1.333-2.667 0-11.667-4-27s-12.667-35.333-26-60-30-47-50-67-42-36.667-66-50c-24-13.333-43.667-22-59-26-15.333-4-24.333-4.667-27-2-2.667 2.667-2.333 12 1 28s11.667 36.667 25 62 29.333 47.333 48 66"/></svg>