<svg xmlns="http://www.w3.org/2000/svg" viewBox="0 0 960 960"><path d="M480 0c133.333 0 246.667 46.667 340 140s140 206.667 140 340c0 132-46.667 245-140 339S613.333 960 480 960c-132 0-245-47-339-141S0 612 0 480c0-133.333 47-246.667 141-340S348 0 480 0M352 580c26.667 0 50-10 70-30s30-43.333 30-70c0-28-10-52-30-72s-43.333-30-70-30-50 10-70 30-30 44-30 72c0 26.667 10 50 30 70s43.333 30 70 30m256 0c28 0 51.667-10 71-30s29-43.333 29-70c0-28-9.667-52-29-72s-43-30-71-30c-26.667 0-49.667 10-69 30s-29 44-29 72c0 26.667 9.667 50 29 70s42.333 30 69 30"/></svg>