<svg xmlns="http://www.w3.org/2000/svg" viewBox="0 0 940 940"><path d="M868 708c48 22.667 72 60 72 112 0 33.333-11.667 61.667-35 85s-51.667 35-85 35-61.667-11.667-85-35-35-51.667-35-85c0-52 24-89.333 72-112V594c0-52-25.333-78-76-78H596c-29.333 0-55.333-4-78-12v204c48 22.667 72 60 72 112 0 33.333-11.667 61.667-35 85s-51.667 35-85 35-61.667-11.667-85-35-35-51.667-35-85c0-52 24-89.333 72-112V504c-20 8-45.333 12-76 12H246c-22.667 0-40.333 6.333-53 19-12.667 12.667-20 23.667-22 33-2 9.333-3 18-3 26v114c48 22.667 72 60 72 112 0 33.333-11.667 61.667-35 85s-51.667 35-85 35-61.667-11.667-85-35-35-51.667-35-85c0-52 24-89.333 72-112V594c0-42.667 14.333-82 43-118s72.333-54 131-54h100c50.667 0 76-17.333 76-52V230c-48-22.667-72-59.333-72-110 0-33.333 11.667-61.667 35-85s51.667-35 85-35 61.667 11.667 85 35 35 51.667 35 85c0 50.667-24 87.333-72 110v140c0 34.667 26 52 78 52h100c57.333 0 100.333 18 129 54s43 75.333 43 118v114M190 820c0-20-7-36.667-21-50-14-13.333-30.333-20-49-20s-34.667 6.667-48 20c-13.333 13.333-20 30-20 50 0 18.667 6.667 34.667 20 48 13.333 13.333 29.333 20 48 20s35-6.667 49-20 21-29.333 21-48m212-700c0 18.667 6.667 34.667 20 48 13.333 13.333 29.333 20 48 20s35-6.667 49-20 21-29.333 21-48c0-20-7-36.667-21-50-14-13.333-30.333-20-49-20s-34.667 6.667-48 20c-13.333 13.333-20 30-20 50m138 700c0-20-7-36.667-21-50-14-13.333-30.333-20-49-20s-34.667 6.667-48 20c-13.333 13.333-20 30-20 50 0 18.667 6.667 34.667 20 48 13.333 13.333 29.333 20 48 20s35-6.667 49-20 21-29.333 21-48m280 68c18.667 0 35-6.667 49-20s21-29.333 21-48c0-20-7-36.667-21-50-14-13.333-30.333-20-49-20s-34.667 6.667-48 20c-13.333 13.333-20 30-20 50 0 18.667 6.667 34.667 20 48 13.333 13.333 29.333 20 48 20"/></svg>