<svg xmlns="http://www.w3.org/2000/svg" viewBox="0 0 240 840"><path d="M168 608c48 22.667 72 60 72 112 0 33.333-11.667 61.667-35 85s-51.667 35-85 35-61.667-11.667-85-35-35-51.667-35-85c0-52 24-89.333 72-112V230C24 207.333 0 170.667 0 120c0-33.333 11.667-61.667 35-85S86.667 0 120 0s61.667 11.667 85 35 35 51.667 35 85c0 50.667-24 87.333-72 110v378M52 120c0 18.667 6.667 34.667 20 48 13.333 13.333 29.333 20 48 20s35-6.667 49-20 21-29.333 21-48c0-20-7-36.667-21-50-14-13.333-30.333-20-49-20s-34.667 6.667-48 20c-13.333 13.333-20 30-20 50m68 668c18.667 0 35-6.667 49-20s21-29.333 21-48c0-20-7-36.667-21-50-14-13.333-30.333-20-49-20s-34.667 6.667-48 20c-13.333 13.333-20 30-20 50 0 18.667 6.667 34.667 20 48 13.333 13.333 29.333 20 48 20"/></svg>