<svg xmlns="http://www.w3.org/2000/svg" viewBox="0 0 1000 678.666015625"><path d="M406 509.333c22.667-37.333 94-132 214-284S804.667 0 814 5.333c8 4-24 96.667-96 278s-118 290-138 326c-33.333 57.333-78.667 69.333-136 36s-70-78.667-38-136m94-380c-112 0-206.667 42.333-284 127s-116 188.333-116 311c0 20 .667 35.333 2 46 1.333 14.667-2.667 27-12 37s-20.667 15.667-34 17c-13.333 1.333-25.333-2.667-36-12-10.667-9.333-16.667-20.667-18-34 0-5.333-.333-14-1-26s-1-21.333-1-28c0-150.667 48.333-278 145-382s215-156 355-156c48 0 92.667 6 134 18l-70 86c-26.667-2.667-48-4-64-4m362 62c92 102.667 138 228 138 376 0 25.333-.667 44-2 56-1.333 13.333-6.667 24.333-16 33-9.333 8.667-20.667 13-34 13h-4c-14.667-2.667-26.333-9.333-35-20-8.667-10.667-12.333-22.667-11-36 1.333-9.333 2-24.667 2-46 0-100-26.667-189.333-80-268 4-9.333 10.667-26.333 20-51s16.667-43.667 22-57"/></svg>