<svg xmlns="http://www.w3.org/2000/svg" viewBox="0 0 920 780"><path d="M620 454c17.333 0 32.333 8.667 45 26 12.667 17.333 19 38.667 19 64s-6.333 46.667-19 64-27.667 26-45 26c-18.667 0-34.333-8.667-47-26-12.667-17.333-19-38.667-19-64s6.333-46.667 19-64 28.333-26 47-26m226-234c49.333 53.333 74 118 74 194 0 49.333-5.667 93.667-17 133s-25.667 71.333-43 96-38.667 46.333-64 65-48.667 32.333-70 41c-21.333 8.667-45.667 15.333-73 20s-48 7.333-62 8c-14 .667-29 1-45 1-4 0-16 .333-36 1s-36.667 1-50 1c-13.333 0-30-.333-50-1s-32-1-36-1c-16 0-31-.333-45-1s-34.667-3.333-62-8-51.667-11.333-73-20-44.667-22.333-70-41-46.667-40.333-64-65-31.667-56.667-43-96C5.667 507.667 0 463.333 0 414c0-76 24.667-140.667 74-194-5.333-2.667-5.667-29.333-1-80S88.667 42.667 106 0c61.333 6.667 137.333 41.333 228 104 30.667-8 72.667-12 126-12 56 0 98 4 126 12 41.333-28 81-50.667 119-68s65.667-27.333 83-30l26-6c17.333 42.667 28.333 89.333 33 140 4.667 50.667 4.333 77.333-1 80M462 734c110.667 0 194.333-13.333 251-40s85-81.333 85-164c0-48-18-88-54-120-18.667-17.333-40.333-28-65-32s-62.333-4-113 0-85.333 6-104 6h-4c-21.333 0-49-1.333-83-4s-60.667-4.333-80-5c-19.333-.667-40.333 1.667-63 7s-41.333 14.667-56 28c-34.667 30.667-52 70.667-52 120 0 82.667 28 137.333 84 164s139.333 40 250 40h4M302 454c17.333 0 32.333 8.667 45 26 12.667 17.333 19 38.667 19 64s-6.333 46.667-19 64-27.667 26-45 26c-18.667 0-34.333-8.667-47-26-12.667-17.333-19-38.667-19-64s6.333-46.667 19-64 28.333-26 47-26"/></svg>