<svg xmlns="http://www.w3.org/2000/svg" viewBox="0 0 920 920"><path d="M556 0c101.333 0 187.333 35.333 258 106s106 156 106 256c0 94.667-32 177-96 247S681.333 717.333 588 724c-22.667 57.333-60 104.333-112 141s-109.333 55-172 55c-84 0-155.667-30-215-90S0 698.667 0 616c0-64 18-121.667 54-173s82.667-88.333 140-111c8-93.333 46.667-172 116-236S461.333 0 556 0M304 818c78.667 0 136.667-33.333 174-100-69.333-14.667-129-47-179-97s-82.333-109.667-97-179c-66.667 37.333-100 95.333-100 174 0 56 19.667 103.667 59 143s87 59 143 59m4-404c10.667 50.667 34 93.667 70 129s78.667 58.333 128 69c-1.333-53.333-21.333-99.333-60-138s-84.667-58.667-138-60m300 198c58.667-12 107-41.333 145-88s57-100.667 57-162c0-70.667-25-130.667-75-180s-109.667-74-179-74c-60 0-113.667 19.333-161 58s-76.333 87.333-87 146c82.667 1.333 153 31 211 89s87.667 128.333 89 211M104 214c-28 0-52.333-10-73-30S0 140 0 112c0-29.333 10.333-54 31-74S76 8 104 8c29.333 0 54 10 74 30s30 44.667 30 74c0 28-10 52-30 72s-44.667 30-74 30m0-160c-16 0-29.333 5.667-40 17-10.667 11.333-16 25-16 41 0 14.667 5.333 27.667 16 39 10.667 11.333 24 17 40 17s29.667-5.667 41-17c11.333-11.333 17-24.333 17-39 0-16-5.667-29.667-17-41-11.333-11.333-25-17-41-17"/></svg>