<svg xmlns="http://www.w3.org/2000/svg" viewBox="0 0 960 960"><path d="M434 344c5.333 20 5 39-1 57s-16.333 29-31 33h-10c-28 0-48-20-60-60-4-20-3.333-38 2-54 6.667-16 16.667-26 30-30 1.333-1.333 4.667-2 10-2 29.333 0 49.333 18.667 60 56M480 0c133.333 0 246.667 46.667 340 140s140 206.667 140 340c0 132-46.667 245-140 339S613.333 960 480 960c-132 0-245-47-339-141S0 612 0 480c0-133.333 47-246.667 141-340S348 0 480 0m-28 686c40-20 60-52.667 60-98 0-29.333-17.333-60-52-92-17.333-14.667-26-25.333-26-32 0-8 6.667-16.667 20-26 22.667-22.667 34-49.333 34-80 0-38.667-12-64.667-36-78 1.333-1.333 4.667-2.333 10-3 5.333-.667 8.667-1 10-1 26.667-2.667 40-8 40-16v-4H396c-8 0-19 1.333-33 4s-31.667 13.333-53 32-32 44-32 76c0 37.333 12.667 64 38 80 14.667 10.667 33.333 16 56 16h6c-2.667 16 2.667 32.667 16 50h-2c-92 0-138 31.333-138 94 0 26.667 9.333 47.667 28 63 18.667 15.333 35 24.333 49 27 14 2.667 27 4 39 4h8c26.667 0 51.333-5.333 74-16m254-208v-48h-76v-76h-48v76h-76v48h76v76h48v-76h76m-314 58c21.333 0 38.667 5.667 52 17 13.333 11.333 20.667 25.667 22 43 1.333 17.333-5 32-19 44s-32.333 18.667-55 20c-22.667 2.667-42.667-1-60-11s-26.667-23.667-28-41c0-17.333 7.333-33.333 22-48 13.333-13.333 32.667-21.333 58-24h8"/></svg>