<svg xmlns="http://www.w3.org/2000/svg" viewBox="0 0 896 880"><path d="M48 218c0-38.667 8.333-72.667 25-102s35.333-51 56-65 43.667-25.333 69-34c25.333-8.667 44-13.667 56-15 12-1.333 20.667-2 26-2h230v4c0 14.667-26 26.667-78 36-18.667 0-31.333 2-38 6 26.667 13.333 44.667 32 54 56 9.333 24 14 56 14 96 0 68-22.667 120.667-68 158-25.333 25.333-38 43.333-38 54 0 12 16.667 33.333 50 64 69.333 60 104 119.333 104 178 0 93.333-38.667 158-116 194-45.333 22.667-95.333 34-150 34h-4l-4-2c-1.333 1.333-2.667 2-4 2-16 0-34-1.667-54-5s-45-10.333-75-21-54.667-29.667-74-57S0 735.333 0 694c0-40 10.667-73.667 32-101s49-46.333 83-57c34-10.667 63.333-18 88-22s48.333-6 71-6h2c-10.667-14.667-18.667-30.333-24-47-5.333-16.667-8-29.667-8-39l2-14h-14c-42.667 0-79.333-10-110-30-49.333-29.333-74-82.667-74-160m370 452c-2.667-34.667-17-62.667-43-84s-60.333-32-103-32h-16c-42.667 1.333-80.667 16.667-114 46-30.667 28-44.667 59.333-42 94 2.667 34.667 20.333 61.333 53 80s72.333 26.667 119 24c45.333-2.667 81.667-16 109-40s39.667-53.333 37-88m-60-500C338 98 297.333 62 236 62c-8 0-14.667.667-20 2-26.667 8-46 28.667-58 62-10.667 33.333-11.333 68.667-2 106 9.333 34.667 25 63 47 85s45.667 33 71 33c8 0 14-.667 18-2 28-8 49-29.667 63-65s15-73 3-113m388 174h150v94H746v150h-94V438H502v-94h150V194h94v150"/></svg>