<svg xmlns="http://www.w3.org/2000/svg" viewBox="0 0 860 700"><path d="M790 58c46.667 42.667 70 94.667 70 156s-23.333 113.333-70 156L430 700 70 370C23.333 327.333 0 275.333 0 214S23.333 100.667 70 58c42.667-38.667 93.333-58 152-58s108.667 19.333 150 58l58 52 56-52c42.667-38.667 93.333-58 152-58s109.333 19.333 152 58m-54 260c28-26.667 42-61.333 42-104 0-44-12.667-77.333-38-100-25.333-25.333-59.333-38-102-38-34.667 0-69.333 16-104 48l-104 92-106-92c-32-32-66-48-102-48-42.667 0-77.333 12.667-104 38-25.333 24-38 57.333-38 100 0 44 14.667 78.667 44 104l306 286 306-286"/></svg>