<svg xmlns="http://www.w3.org/2000/svg" viewBox="0 0 580 899.3330078125"><path d="M494 60c57.333 41.333 86 102.667 86 184 0 42.667-14 84-42 124-8 13.333-37.333 40-88 80l-46 30c-26.667 22.667-42.667 42.667-48 60-4 10.667-6.667 25.333-8 44 0 9.333-5.333 14-16 14H204c-10.667 0-16-4-16-12 2.667-65.333 12-106.667 28-124 10.667-14.667 26.667-30.667 48-48s40-31.333 56-42l24-14c14.667-10.667 26-22 34-34 18.667-29.333 28-52.667 28-70 0-26.667-8.667-52.667-26-78-18.667-24-49.333-36-92-36-45.333 0-76.667 14.667-94 44-18.667 28-28 58.667-28 92H0C4 166 42 88.667 114 42 160.667 14 216 0 280 0c86.667 0 158 20 214 60M278 696c29.333 0 53.667 10 73 30s28.333 44.667 27 74c-1.333 30.667-12 55-32 73s-44.667 26.333-74 25c-29.333 0-53.667-9.667-73-29s-28.333-44.333-27-75c1.333-30.667 12-55 32-73s44.667-26.333 74-25"/></svg>