<svg xmlns="http://www.w3.org/2000/svg" viewBox="0 0 560 1000"><path d="M560 228c0 29.333-16 61.333-48 96s-64.333 67.667-97 99-49 57-49 77 16.333 45.333 49 76 65 63 97 97 48 66.333 48 97v118c0 22.667-28.667 47-86 73s-122 39-194 39-136.667-13-194-39-86-50.333-86-73V770c0-30.667 16-63 48-97s64.333-66.333 97-97 49-56 49-76-16.333-45.667-49-77-65-64.333-97-99-48-66.667-48-96V110c0-21.333 29-45 87-71S209.333 0 280 0s135 13 193 39 87 49.667 87 71v118M78 116l-18 14c-2.667 5.333-1.333 10 4 14 61.333 34.667 133.333 52 216 52 88 0 161.333-16.667 220-50 9.333-6.667 4-16.667-16-30-64-36-131.333-54-202-54-80 0-148 18-204 54m228 384c0-12 1.333-23 4-33s8.667-21 18-33 16-20.333 20-25c4-4.667 14.333-15 31-31s26.333-25.333 29-28c61.333-61.333 92-102 92-122l2-50c-66.667 36-140.667 54-222 54s-155.333-18-222-54l4 50c0 21.333 30 62 90 122 4 4 11.333 11 22 21s18.333 17.333 23 22l19 19 17 21c11.333 14 15 20.667 11 20-4-.667-1 7 9 23s11 24 3 24c0 6.667-.333 13-1 19s-2.667 12-6 18-6 11.333-8 16-5.667 10.333-11 17l-12 15-15 16c-10 10.667-15.333 15.667-16 15-.667-.667-6.667 4.667-18 16s-17 16.667-17 16c-60 60-90 100.667-90 122v66c5.333-2.667 27.333-10.333 66-23s69.333-27 92-43 34-35.333 34-58c0-20 8.667-30 26-30s26 10 26 30c0 22.667 11 42 33 58s53.333 30.333 94 43c40.667 12.667 63 20.333 67 23v-66c0-20-30.667-60.667-92-122-2.667-2.667-9.667-9.333-21-20s-18.667-17.667-22-21c-3.333-3.333-9.333-9.667-18-19s-14.667-16.667-18-22c-3.333-5.333-7.333-12-12-20s-7.667-15.667-9-23c-1.333-7.333-2-15-2-23"/></svg>