<svg xmlns="http://www.w3.org/2000/svg" viewBox="0 0 790.666015625 990"><path d="M777.333 235.333c13.333 77.333 4 149-28 215s-82 105-150 117c-44 8-87.333 8.667-130 2l-118 194-70 12-104 166c-9.333 18.667-24.667 29.333-46 32l-76 14c-8 2.667-15.333 1.333-22-4s-10.667-12.667-12-22l-16-98c-5.333-20-1.333-38.667 12-56l258-386c-16-33.333-28.667-73.333-38-120-12-70.667 5.667-133 53-187s109-87.667 185-101C546 0 611 15 670.333 58.333s95 102.333 107 177m-126 76c20-29.333 27-61.667 21-97s-23-63-51-83c-28-21.333-58.667-28.667-92-22-33.333 6.667-60 24.667-80 54-5.333 8-9.333 15.667-12 23s-3 14-1 20 3.667 11.333 5 16c1.333 4.667 5.667 10.333 13 17s13.333 11.667 18 15 12 8.667 22 16 17.667 13 23 17c4 2.667 11.333 8 22 16s18.333 13.333 23 16c4.667 2.667 11 6.667 19 12s14.333 8 19 8 10.333-.333 17-1 12.667-3.333 18-8 10.667-11 16-19"/></svg>