<svg xmlns="http://www.w3.org/2000/svg" viewBox="0 0 704.6669921875 1001.3330078125"><path d="M212 960V856h282v104c-46.667 28-94 41.333-142 40-46.667 1.333-93.333-12-140-40m276-164H218c0-48-12-94.667-36-140s-50-83-78-113-52.667-67.333-74-112S0 340 4 292c5.333-80 36.667-148.667 94-206S240 0 352 0c113.333 0 198.333 28.667 255 86s88.333 126 95 206c2.667 40-2.667 77.667-16 113s-30.667 67.333-52 96-43 57-65 85-41 60-57 96-24 74-24 114M110 300c-2.667 2.667-2.667 9.333 0 20s3.333 17.333 2 20c-1.333 2.667.333 9 5 19s6.667 16 6 18c-.667 2 2 8 8 18s9.667 16.333 11 19c1.333 2.667 5.667 9 13 19s12 16.333 14 19c2 2.667 7 9.667 15 21s13.333 19 16 23c58.667 81.333 96 152 112 212h82c16-62.667 53.333-133.333 112-212 2.667-4 11-15.667 25-35s22.333-31.333 25-36c2.667-4.667 8.333-14.333 17-29s14-25.667 16-33c2-7.333 4-16.667 6-28 2-11.333 2.333-23 1-35-10.667-130.667-92-196-244-196-150.667 0-231.333 65.333-242 196"/></svg>