<svg xmlns="http://www.w3.org/2000/svg" viewBox="0 0 1008 760"><path d="M988 424c20 54.667 16.667 113.333-10 176s-71.333 116-134 160c-6.667 0-10.667-.667-12-2-1.333-1.333-6.667-7.667-16-19s-14.667-17.667-16-19c-1.333-4-.667-7.333 2-10 57.333-40 96.333-90.667 117-152s17-110.667-11-148c-10.667 25.333-23.667 50.667-39 76-15.333 25.333-35 52-59 80s-52.667 49.667-86 65c-33.333 15.333-68.667 20.333-106 15-34.667-4-62.667-17.667-84-41s-32-54.333-32-93c0-56 20-105.333 60-148 33.333-33.333 71.333-55.333 114-66l-2-100c-93.333 16-142 24-146 24-4 1.333-7.333 0-10-4 0-1.333-1.667-11-5-29s-5-28.333-5-31c-1.333-1.333-1-2.667 1-4 2-1.333 4.333-2 7-2l156-28c0-73.333-.667-111.333-2-114 0-5.333 2.667-8 8-8 30.667 0 48-.667 52-2 6.667 0 10 2.667 10 8v104c105.333-14.667 160-22 164-22 5.333-2.667 8.667-.667 10 6 0 1.333 1.333 9 4 23s4 22.333 4 25c2.667 6.667 1.333 10.667-4 12l-176 30v102h12c57.333 0 106.667 12 148 36s70 57.333 86 100M618 584c18.667 4 39.333 2 62-6l-4-214c-22.667 8-42.667 21.333-60 40-29.333 29.333-44 65.333-44 108 0 44 15.333 68 46 72m122-28c18.667-16 38-38.667 58-68s35-55.667 45-79 12.333-37 7-41c-24-12-56-18-96-18-1.333 0-3.333.333-6 1s-4.667 1-6 1l-2 204M292 174c6.667 18.667 24.333 73.667 53 165s56.333 178.333 83 261 40 124.667 40 126c0 2.667-1.333 4-4 4h-86c-4 0-6-1.333-6-4l-50-166H146c-32 109.333-48.667 164.667-50 166 0 2.667-2 4-6 4H4c-2.667 0-4-1.333-4-4 6.667-12 65.333-196 176-552 1.333-5.333 4.667-8 10-8h96c6.667 0 10 2.667 10 8M162 490h144l-72-264-72 264"/></svg>