<svg xmlns="http://www.w3.org/2000/svg" viewBox="0 0 1000 560"><path d="M394 408l34 100c-42.667 34.667-98.667 52-168 52-70.667 0-131.667-24.333-183-73S0 372 0 288c0-86.667 26.667-156.333 80-209S196 0 268 0c74.667 0 130.333 15 167 45s67 83 91 159l36 116c32 97.333 99.333 146 202 146 80 0 120-20 120-60 0-36-26-60-78-72l-78-18c-89.333-22.667-134-73.333-134-152 0-58.667 19.333-100.667 58-126S739.333 0 798 0c122.667 0 188.667 48.667 198 146l-114 14c-5.333-46.667-35.333-70-90-70s-82 20.667-82 62c0 33.333 22 55.333 66 66l74 16c100 24 150 79.333 150 166 0 106.667-79.333 160-238 160-90.667 0-158.667-17.667-204-53s-78.667-85-100-149l-36-116c-9.333-26.667-16.667-46.667-22-60-5.333-13.333-13.667-27.667-25-43-11.333-15.333-25.333-26.333-42-33-16.667-6.667-37-10-61-10-42.667 0-80.333 15.333-113 46s-49 78-49 142c0 53.333 15.333 96.667 46 130s67.333 50 110 50c40 0 82.667-18.667 128-56"/></svg>