<svg xmlns="http://www.w3.org/2000/svg" viewBox="0 0 924 922.666015625"><path d="M456.667 1.333c126.667-1.333 235.333 42 326 130s137.333 195.333 140 322C924 580 880.334 689 791.667 780.333s-196.333 138.333-323 141C342 922.666 233 879 141.667 790.333S4 594 2.667 467.333c-2.667-126.667 40.667-235.667 130-327s197.333-137.667 324-139m0 60c-62.667 0-122 14.667-178 44l62 104c37.333-18.667 78-28 122-28s84.667 9.333 122 28l62-104c-58.667-30.667-122-45.333-190-44m-246 522c-18.667-40-28-80.667-28-122 0-42.667 9.333-84 28-124l-102-62c-30.667 58.667-46 122-46 190 1.333 64 16.667 124 46 180l102-62m258 278c65.333-2.667 124.667-18 178-46l-62-104c-40 20-80.667 30-122 30s-82-10-122-30l-62 104c57.333 30.667 120.667 46 190 46m-6-180c61.333 0 113.333-21.667 156-65s64-95 64-155c0-61.333-21.333-113.333-64-156s-94.667-64-156-64-113.333 21.333-156 64-64 94.667-64 156c0 60 21.333 111.667 64 155s94.667 65 156 65m252-98l104 62c30.667-64 45.333-127.333 44-190 0-64-14.667-124-44-180l-104 62c18.667 40 28 81.333 28 124 0 41.333-9.333 82-28 122"/></svg>