<svg xmlns="http://www.w3.org/2000/svg" viewBox="0 0 800 803"><path d="M294 637c9.333-9.333 20.667-14 34-14 13.333 0 25.333 4.667 36 14 21.333 22.667 21.333 46 0 70l-42 40c-37.333 37.333-81.333 56-132 56-52 0-96.667-18.667-134-56S0 665.667 0 615c0-52 18.667-96.667 56-134l148-148c46.667-45.333 94.667-71 144-77s92 8.333 128 43c10.667 10.667 16 22.667 16 36 0 13.333-5.333 25.333-16 36-24 21.333-47.333 21.333-70 0-33.333-32-77.333-20.667-132 34L126 551c-17.333 17.333-26 38.667-26 64s8.667 46 26 62c17.333 17.333 38.333 26 63 26s45.667-8.667 63-26l42-40M744 63c37.333 37.333 56 81.333 56 132 0 52-18.667 96.667-56 134L586 487c-49.333 48-99.333 72-150 72-41.333 0-78.667-16.667-112-50-9.333-9.333-14-20.667-14-34 0-13.333 4.667-25.333 14-36 9.333-9.333 21-14 35-14s25.667 4.667 35 14c33.333 32 74 24 122-24l158-156c18.667-18.667 28-40 28-64 0-25.333-9.333-46-28-62-16-17.333-34.667-27.667-56-31-21.333-3.333-41.333 3.667-60 21l-50 50c-10.667 9.333-22.667 14-36 14-13.333 0-24.667-4.667-34-14-22.667-22.667-22.667-46 0-70l50-50c36-36 78.333-53 127-51s91.667 22.333 129 61"/></svg>