<svg xmlns="http://www.w3.org/2000/svg" viewBox="0 0 960 960"><path d="M480 0c133.333 0 246.667 46.667 340 140s140 206.667 140 340c0 132-46.667 245-140 339S613.333 960 480 960c-132 0-245-47-339-141S0 612 0 480c0-133.333 47-246.667 141-340S348 0 480 0M362 678V366h-96v312h96m-48-352c34.667 0 52-16 52-48s-17.333-48-52-48c-14.667 0-27 4.667-37 14s-15 20.667-15 34c0 32 17.333 48 52 48m404 352V494c0-44-10.333-77.667-31-101s-47.667-35-81-35c-44 0-76 16.667-96 50h-2l-6-42h-84c1.333 18.667 2 52 2 100v212h98V498c0-12 1.333-20 4-24 8-25.333 24.667-38 50-38 32 0 48 22.667 48 68v174h98"/></svg>