<svg xmlns="http://www.w3.org/2000/svg" viewBox="0 0 700 500"><path d="M100 400c13.333 0 25 5 35 15s15 21.667 15 35c0 13.333-5 25-15 35s-21.667 15-35 15H50c-13.333 0-25-5-35-15S0 463.333 0 450c0-13.333 4.667-25 14-35s21.333-15 36-15h50m0-200c13.333 0 25 5 35 15s15 21.667 15 35c0 13.333-5 25-15 35s-21.667 15-35 15H50c-13.333 0-25-5-35-15S0 263.333 0 250c0-13.333 4.667-25 14-35s21.333-15 36-15h50m0-200c13.333 0 25 5 35 15s15 21.667 15 35c0 13.333-5 25-15 35s-21.667 15-35 15H50c-13.333 0-25-5-35-15S0 63.333 0 50c0-13.333 4.667-25 14-35S35.333 0 50 0h50m200 100c-13.333 0-25-5-35-15s-15-21.667-15-35c0-13.333 5-25 15-35s21.667-15 35-15h350c14.667 0 26.667 5 36 15 9.333 10 14 21.667 14 35 0 13.333-5 25-15 35s-21.667 15-35 15H300m350 100c14.667 0 26.667 5 36 15 9.333 10 14 21.667 14 35 0 13.333-5 25-15 35s-21.667 15-35 15H300c-13.333 0-25-5-35-15s-15-21.667-15-35c0-13.333 5-25 15-35s21.667-15 35-15h350m0 200c14.667 0 26.667 5 36 15 9.333 10 14 21.667 14 35 0 13.333-5 25-15 35s-21.667 15-35 15H300c-13.333 0-25-5-35-15s-15-21.667-15-35c0-13.333 5-25 15-35s21.667-15 35-15h350"/></svg>