<svg xmlns="http://www.w3.org/2000/svg" viewBox="0 0 700 900"><path d="M640 350c13.333 0 26.667 6.667 40 20 13.333 13.333 20 26.667 20 40v390c0 13.333-4.667 26.333-14 39-9.333 12.667-20.667 21-34 25l-60 20c-34.667 10.667-66.667 16-96 16H206c-30.667 0-63.333-5.333-98-16l-60-20c-13.333-4-24.667-12.333-34-25-9.333-12.667-14-25.667-14-39V410c0-14.667 5-28.333 15-41 10-12.667 21.667-19 35-19h400V210c0-73.333-33.333-110-100-110s-100 36.667-100 110v40H150v-20c0-73.333 17-130 51-170S284.667 0 350 0c133.333 0 200 76.667 200 230v120h90"/></svg>