<svg xmlns="http://www.w3.org/2000/svg" viewBox="0 0 732.6669921875 1000"><path d="M546 610c32 60 30.667 120-4 180-28 46.667-66.333 76-115 88s-99 3.333-151-26l-64-36-108 184-56-32 206-358c-45.333 6.667-90-2.667-134-28L0 512l186-324 122 70c44 26.667 74.667 60 92 100L606 0l58 34-108 186 64 36c50.667 29.333 83.333 69 98 119 14.667 50 8 97.667-20 143-32 58.667-82.667 89.333-152 92m44-302l-64-38-124 216c0 1.333-.667 3.333-2 6l62 36c34.667 20 68 25.667 100 17 32-8.667 57.333-29 76-61s23.667-64.333 15-97c-8.667-32.667-29.667-59-63-79M150 530c34.667 20 68 25.667 100 17 32-8.667 57.333-29 76-61s23.667-64.667 15-98c-8.667-33.333-29.667-59.333-63-78l-64-38L86 494l64 36m156 270c34.667 20 68 25.667 100 17 32-8.667 57.333-29 76-61s23.333-64.333 14-97c-9.333-32.667-30.667-59-64-79l-62-36-4 4-124 216 64 36"/></svg>