<svg xmlns="http://www.w3.org/2000/svg" viewBox="0 0 1000 803.333984375"><path d="M984 152.667c10.667 6.667 16 16.667 16 30v584c0 13.333-5.333 23.333-16 30-5.333 4-10.667 6-16 6s-11.333-2-18-6l-216-136-216 136c-12 6.667-23.333 6.667-34 0l-218-136-216 136c-10.667 6.667-22 6.667-34 0C5.333 790 0 780 0 766.667v-584c0-13.333 5.333-23.333 16-30l234-146C262 0 273.333 0 284 6.667l216 136 218-136C728.667 0 739.333 0 750 6.667l234 146m-750 450v-506l-168 104v506l168-104m234 104v-506l-168-104v506l168 104m234-104v-506l-170 104v506l170-104m232 104v-506l-168-104v506l168 104"/></svg>