<svg xmlns="http://www.w3.org/2000/svg" viewBox="0 0 867.3330078125 916"><path d="M794.333 311.333c38.667 92 61 178 67 258s-7 126.667-39 140c-18.667 8-39 7-61-3s-43.667-23.333-65-40-54.333-30.333-99-41c-44.667-10.667-94.333-13.333-149-8-18.667 2.667-32.667 9-42 19-9.333 10-11.333 22.333-6 37 14.667 37.333 30 73.333 46 108 2.667 6.667 10.667 14 24 22s21.333 14.667 24 20c9.333 22.667 2 38-22 46a1347.833 1347.833 0 0 1-102 40c-20 6.667-38-7.333-54-42-21.333-50.667-40.667-94.667-58-132-4-8-15.333-13.667-34-17s-34-13.667-46-31c-20 6.667-32.667 11.333-38 14-22.667 8-47.333 4-74-12s-44.667-36-54-60c-10.667-21.333-12.333-47.667-5-79s21.667-51.667 43-61c84-34.667 155-70.667 213-108s99.333-71.667 124-103 44.333-62 59-92c14.667-30 23-56 25-78s7-41.667 15-59 20-29.333 36-36c32-13.333 75.333 10 130 70s102 136 142 228m-28 300c5.333-2.667 8.667-15.333 10-38 1.333-22.667-2.333-55.333-11-98s-22.333-85.333-41-128c-18.667-44-41-85-67-123s-48.333-66-67-84-30.667-25.667-36-23c-5.333 2.667-8.667 16.667-10 42-1.333 25.333 2 60.333 10 105s21.333 89 40 133 41.333 83.667 68 119 49.333 60.667 68 76c18.667 15.333 30.667 21.667 36 19"/></svg>