<svg xmlns="http://www.w3.org/2000/svg" viewBox="0 0 640 1000"><path d="M620 362c13.333 0 20 6.667 20 20v138c0 61.333-23 116-69 164s-113 76-201 84v132h130c13.333 0 20 6.667 20 20v60c0 13.333-6.667 20-20 20H140c-13.333 0-20-6.667-20-20v-60c0-13.333 6.667-20 20-20h130V768c-88-8-155-36-201-84S0 581.333 0 520V382c0-13.333 6.667-20 20-20h30c13.333 0 20 6.667 20 20v138c0 44 19.667 85 59 123s103 57 191 57 151.667-19 191-57 59-79 59-123V382c0-13.333 6.667-20 20-20h30M320 600c-53.333 0-91.667-8.333-115-25s-35-35-35-55V362h300v158c0 20-11.667 38.333-35 55s-61.667 25-115 25M470 80v212H170V80c0-20 11.667-38.333 35-55S266.667 0 320 0s91.667 8.333 115 25 35 35 35 55"/></svg>