<svg xmlns="http://www.w3.org/2000/svg" viewBox="0 0 700 900"><path d="M600 0c28 0 51.667 9.667 71 29s29 43 29 71v700c0 26.667-9.667 50-29 70s-43 30-71 30H100c-26.667 0-50-10-70-30S0 826.667 0 800V100c0-28 10-51.667 30-71S73.333 0 100 0h500M490 476c21.333-29.333 29-60 23-92s-17-58.667-33-80a8672.779 8672.779 0 0 1-49-66c-16.667-22.667-25-40.667-25-54h-60v368c-28-10.667-58-10-90 2-28 9.333-49.333 25.333-64 48-14.667 22.667-18.667 44-12 64 8 21.333 25.667 36.333 53 45 27.333 8.667 55.667 8.333 85-1 58.667-20 88-52.667 88-98V350c24 4 42.333 14.667 55 32 12.667 17.333 18.667 34.667 18 52-.667 17.333-1.667 31.333-3 42-2.667 6.667-2 10 2 10 2.667 0 6.667-3.333 12-10"/></svg>