<svg xmlns="http://www.w3.org/2000/svg" viewBox="0 0 920 920"><path d="M224 306c-14.667 0-28.667 3.333-42 10-32-34.667-62.667-77.333-92-128 36-49.333 78.667-88.667 128-118 61.333 25.333 112 52.667 152 82-4 10.667-6 21.333-6 32 0 4 1.333 11.333 4 22-41.333 32-80 66.667-116 104-10.667-2.667-20-4-28-4m-98 98c0 22.667 6.667 42.667 20 60-40 76-66.667 153.333-80 232C22 625.333 0 546.667 0 460c0-73.333 16.667-142 50-206 25.333 41.333 53.333 78.667 84 112-5.333 16-8 28.667-8 38M462 86c-18.667 0-35.333 4.667-50 14-38.667-28-76.667-51.333-114-70C354 10 408 0 460 0c80 0 156.667 20.667 230 62-50.667 9.333-104.667 26-162 50-17.333-17.333-39.333-26-66-26m146 460c-106.667-16-203.333-53.333-290-112 2.667-13.333 4-23.333 4-30 0-16-4.667-33.333-14-52 25.333-29.333 58-59.333 98-90 17.333 13.333 36 20 56 20 9.333 0 22-2.667 38-8 62.667 72 107.333 152 134 240-10.667 9.333-19.333 20-26 32m128 132c25.333-9.333 43.333-29.333 54-60 38.667-2.667 74.667-8.667 108-18-30.667 97.333-86 174.667-166 232 4-32 6-64.667 6-98 0-6.667-.333-16-1-28s-1-21.333-1-28m-150-66c-126.667 64-228 154.667-304 272-60-24-112.667-60.667-158-110 8-96 34.667-187.333 80-274 4 1.333 10.667 2 20 2 20 0 37.333-4.667 52-14 94.667 65.333 198 106.667 310 124m184-492c100 90.667 150 204 150 340 0 14.667-1.333 36.667-4 66-42.667 12-86 20-130 24-16-37.333-45.333-57.333-88-60-32-97.333-81.333-185.333-148-264 6.667-13.333 10-27.333 10-42v-10c66.667-28 136.667-46 210-54M634 664c9.333 6.667 20 12.667 32 18 1.333 12 2 29.333 2 52 0 53.333-4.667 101.333-14 144-57.333 28-122 42-194 42-38.667 0-76-4-112-12 73.333-106.667 168.667-188 286-244"/></svg>