<svg xmlns="http://www.w3.org/2000/svg" viewBox="0 0 595.666015625 945.3330078125"><path d="M387.333 0c0 28 15.333 60.333 46 97s60.667 70 90 100 49.667 69.667 61 119c11.333 49.333-1.667 100.667-39 154-13.333 22.667-22 28-26 16-1.333-4-1.333-9.333 0-16 6.667-12 8.667-30.667 6-56s-7-51.333-13-78-20.333-51-43-73-50-35.667-82-41v536c1.333 32-11 63.667-37 95s-61 55-105 71c-49.333 18.667-97 21.333-143 8-46-13.333-75.667-38.667-89-76-13.333-37.333-6.667-75.667 20-115s65.333-67.667 116-85c57.333-20 110-21.333 158-4V0h80"/></svg>