<svg xmlns="http://www.w3.org/2000/svg" viewBox="0 0 809.6669921875 810"><path d="M461.667 460c108-108 147.333-176.667 118-206l-8-8c-20-20-33.667-36-41-48-7.333-12-8.667-30-4-54s21-53.333 49-88c13.333-16 25.667-29 37-39 11.333-10 23-15.333 35-16 12-.667 22-1 30-1s17.667 4.333 29 13c11.333 8.667 19.333 14.667 24 18 4.667 3.333 13.333 11.667 26 25s19.667 20.667 21 22c32 32 30 96.667-6 194s-104 195.333-204 294c-100 100-198.333 168.333-295 205s-161 39-193 7c-1.333-1.333-9-8.667-23-22s-22.333-21.667-25-25c-2.667-3.333-8.667-11.333-18-24S0 684 .667 676c.667-8 1.333-18 2-30s5.667-23.667 15-35c9.333-11.333 22-23.667 38-37 28-22.667 51.333-38.333 70-47 18.667-8.667 36.667-9.333 54-2s29 13.333 35 18 19 17 39 37c29.333 29.333 98.667-10.667 208-120"/></svg>