<svg xmlns="http://www.w3.org/2000/svg" viewBox="0 0 920 920"><path d="M250 50c6.667 8 59.333 56 158 144L12 556c-8-32-12-64-12-96 0-86.667 22.333-166.667 67-240S172.667 90 250 50m400-10v278L322 22C364.667 7.333 410.667 0 460 0c65.333 0 128.667 13.333 190 40m70 40c62.667 42.667 111.667 97.667 147 165s53 139 53 215c0 53.333-8.667 104-26 152H720V80M34 630c8-8 30-28 66-60l102-92v362C124.667 786.667 68.667 716.667 34 630m238 250V682h590c-37.333 66.667-87.667 121-151 163s-133 67-209 75h-84c-56-6.667-104.667-20-146-40"/></svg>