<svg xmlns="http://www.w3.org/2000/svg" viewBox="0 0 1004.6669921875 954.6669921875"><path d="M860.667 312.667h-100l-124-150-214 150h-180c-34.667 0-64.667 13-90 39s-38 56.333-38 91v160l-108-296c-6.667-25.333.667-42.667 22-52l680-248c24-6.667 40.667 1.333 50 24l102 282m106 90c10.667 0 19.667 4 27 12 7.333 8 11 17.333 11 28v472c0 10.667-3.667 20-11 28s-16.333 12-27 12h-724c-10.667 0-19.667-4-27-12-7.333-8-11-17.333-11-28v-472c0-10.667 3.667-20 11-28s16.333-12 27-12h724m-56 452v-162l-72-160-166 60-130 132-138-170-92 214v86h598"/></svg>