<svg xmlns="http://www.w3.org/2000/svg" viewBox="0 0 960 960"><path d="M480 0c133.333 0 246.667 46.667 340 140s140 206.667 140 340c0 132-46.667 245-140 339S613.333 960 480 960s-246.667-47-340-141S0 612 0 480c0-133.333 46.667-246.667 140-340S346.667 0 480 0m32 592c54.667 5.333 97.333-16 128-64s42-102 34-162c-6.667-48-31.333-84.667-74-110s-91.333-34.667-146-28c-44 5.333-83 24-117 56s-51.667 71.333-53 118c-2.667 66.667 20.667 105.333 70 116 6.667-16 9.667-27 9-33-.667-6-4-14-10-24s-9.667-19-11-27c-9.333-64 16.667-112 78-144s114-26 158 18c32 32 38.667 81.333 20 148s-51.333 95.333-98 86c-26.667-5.333-37.667-23.333-33-54 4.667-30.667 12.667-59.333 24-86s4.333-46.667-21-60c-28-12-49.667-1-65 33-15.333 34-15 63.667 1 89-2.667 13.333-9.667 41-21 83s-17.333 71-18 87c-.667 16-.333 48.667 1 98 34.667-25.333 60.667-82.667 78-172 30.667 20 52.667 30.667 66 32"/></svg>