<svg xmlns="http://www.w3.org/2000/svg" viewBox="0 0 926.6669921875 780"><path d="M766 338c2.667 21.333 4 38.667 4 52 0 106.667-37.667 198.333-113 275S490.667 780 384 780c-105.333 0-195.667-38.333-271-115S0 496.667 0 390c0-108 37.333-200 112-276S277.333 0 384 0c34.667 0 64.667 3.333 90 10v222c-50.667-17.333-102-14-154 10-46.667 22.667-80.333 56.333-101 101s-22.333 87.667-5 129c17.333 40 49 66.333 95 79 46 12.667 92.333 7.667 139-15 34.667-17.333 63.667-44 87-80s35-76.667 35-122V48c10.667 5.333 18.667 10 24 14 116 72 219.333 110 310 114 21.333 1.333 22.667 18.667 4 52-28 50.667-71.333 86-130 106l-12 4"/></svg>