<svg xmlns="http://www.w3.org/2000/svg" viewBox="0 0 1000 800"><path d="M340 400c0-45.333 15.667-83.333 47-114s69-46 113-46 81.667 15.333 113 46 47 68.667 47 114c0 44-15.667 81.667-47 113s-69 47-113 47-81.667-15.667-113-47-47-69-47-113m-114-60c-9.333 40-31.333 60-66 60H0V280h118c26.667-82.667 75-150 145-202S412 0 500 0c109.333 0 204 38.667 284 116 10.667 12 16 26.333 16 43s-5.333 31-16 43c-12 10.667-26.333 16-43 16s-31-5.333-43-16c-52-54.667-118-82-198-82-66.667 0-125.333 20.667-176 62s-83.333 94-98 158m614 60h160v120H882c-26.667 82.667-74.667 150-144 202s-148.667 78-238 78c-109.333 0-203.333-39.333-282-118-12-12-18-26.333-18-43s6-30.333 18-41c10.667-12 24.333-18 41-18s31 6 43 18c54.667 54.667 120.667 82 198 82 66.667 0 125.333-21 176-63s83.333-94.333 98-157c8-40 30-60 66-60"/></svg>