<svg xmlns="http://www.w3.org/2000/svg" viewBox="0 0 1000 850"><path d="M754 260c-36 0-71 10.667-105 32s-60.667 43.333-80 66-47 57.333-83 104c-32 41.333-57 72.667-75 94s-44 47-78 77-69.667 52-107 66-78 21-122 21H0V580h104c36 0 71.333-10.667 106-32s61.667-43.333 81-66 47-57.333 83-104c41.333-54.667 75-96.667 101-126s64.667-58.667 116-88 105.667-44 163-44h36V0l210 180-210 180V260h-36m-484 88c-49.333-52-104.667-78-166-78H0V130h104c93.333 0 178 36 254 108-9.333 10.667-21.667 25.667-37 45-15.333 19.333-24.333 30.333-27 33-5.333 8-13.333 18.667-24 32m520 242V490l210 180-210 180V730h-36c-93.333 0-180-38.667-260-116 30.667-38.667 54.667-69.333 72-92 0-1.333 2-4.333 6-9s6.667-8.333 8-11c56 58.667 114 88 174 88h36"/></svg>