<svg xmlns="http://www.w3.org/2000/svg" viewBox="0 0 996 860"><path d="M732 432c78.667 25.333 118 70.667 118 136 0 68-42.333 133.667-127 197s-189 95-313 95c-106.667 0-201.667-26-285-78S0 664.667 0 586c0-86.667 48.667-180 146-280 61.333-61.333 123.333-104.333 186-129s107.333-23.667 134 3c24 24 27.333 62.667 10 116-2.667 9.333 0 14 8 14l16-2c49.333-22.667 94-34 134-34s68 11.333 84 34c16 24 15.333 57.333-2 100-4 12 1.333 20 16 24M410 786c81.333-8 148.667-33.667 202-77s77.333-91.667 72-145c-6.667-53.333-40-96-100-128s-130.667-44-212-36-148.667 33.667-202 77-76.667 91.667-70 145c5.333 53.333 38 96 98 128s130.667 44 212 36m586-488v2c0 9.333-3.667 17.333-11 24-7.333 6.667-15.667 10-25 10s-17.333-3.333-24-10c-6.667-6.667-10-14.667-10-24 0-64-22.667-118.333-68-163s-99.333-67-162-67c-10.667 0-19.333-3.333-26-10-6.667-6.667-10-15.333-10-26 0-22.667 12-34 36-34 82.667 0 153.333 29 212 87s88 128.333 88 211m-140-4c2.667 9.333 1.333 18.333-4 27-5.333 8.667-12.667 13.667-22 15-22.667 2.667-36.667-6.667-42-28-5.333-25.333-17.333-47.333-36-66s-40.667-30.667-66-36c-22.667-5.333-31.333-18.667-26-40 5.333-24 19.333-33.333 42-28 38.667 8 72 26.333 100 55s46 62.333 54 101M328 504c32-6.667 61.333-2.667 88 12s42.667 35.333 48 62c6.667 26.667.333 52.333-19 77s-45.667 39.667-79 45c-32 6.667-61.333 2.667-88-12s-42.667-35.333-48-62c-5.333-26.667 1.333-52 20-76s44.667-39.333 78-46"/></svg>