<svg xmlns="http://www.w3.org/2000/svg" viewBox="0 0 960 960"><path d="M588 472c13.333 8 22.667 18 28 30 6.667 13.333 10 28 10 44 0 21.333-6 40-18 56-8 14.667-24 28-48 40-25.333 9.333-51.333 14-78 14-36 0-65.333-6.667-88-20-14.667-8-28-20-40-36-10.667-17.333-16-32.667-16-46 0-9.333 3.333-17.333 10-24 9.333-6.667 18-10 26-10 9.333 0 16.667 2.667 22 8 5.333 2.667 10 10 14 22 1.333 4 3.667 9 7 15s5.667 9.667 7 11c4 5.333 10.667 10.667 20 16 10.667 4 22.667 6 36 6 21.333 0 38-4 50-12 12-9.333 18-20 18-32 0-10.667-3.333-18.667-10-24-6.667-6.667-15.333-12-26-16-4-1.333-11-3-21-5s-17.667-3.667-23-5c-13.333-2.667-35.333-9.333-66-20-13.333-6.667-27.333-17.333-42-32-10.667-14.667-16-32-16-52 0-18.667 6-35.333 18-50 10.667-14.667 26.667-26 48-34 20-8 44-12 72-12 22.667 0 41.333 2.667 56 8 13.333 2.667 27.333 9.333 42 20 12 12 20 21.333 24 28 4 10.667 6 20.667 6 30 0 9.333-3.333 17.333-10 24-6.667 6.667-14.667 10-24 10-8 0-15.333-2-22-6-5.333-5.333-10-12-14-20-6.667-12-14-21.333-22-28-6.667-6.667-20.667-10-42-10-17.333 0-31.333 3.333-42 10-10.667 8-16 16-16 24 0 6.667 2 12 6 16 5.333 5.333 10 8.667 14 10 2.667 1.333 9.333 4 20 8 12 4 23.333 7.333 34 10 24 5.333 42 10 54 14 18.667 6.667 32.667 13.333 42 20M480 0c133.333 0 246.667 46.667 340 140s140 206.667 140 340c0 132-46.667 245-140 339S613.333 960 480 960c-132 0-245-47-339-141S0 612 0 480c0-133.333 47-246.667 141-340S348 0 480 0m116 748c38.667 0 72-14.333 100-43s42-63 42-103c0-22.667-5.333-44.667-16-66 4-18.667 6-36.667 6-54 0-69.333-24-128.667-72-178s-106-74-174-74c-18.667 0-32.667.667-42 2-22.667-14.667-47.333-22-74-22-40 0-74 14.333-102 43s-42 63-42 103c0 26.667 6.667 52 20 76-2.667 10.667-4 27.333-4 50 0 69.333 24 128.667 72 178s105.333 74 172 74c21.333 0 36.667-1.333 46-4 20 12 42.667 18 68 18"/></svg>