<svg xmlns="http://www.w3.org/2000/svg" viewBox="0 0 916.6669921875 946.6669921875"><path d="M180.667 238c28-28 77.667-26.333 149 5s143.667 83.667 217 157 125.667 145.667 157 217 33 121 5 149c-18.667 18.667-49.333 41-92 67s-94.667 52-156 78-126 35.667-194 29c-68-6.667-126.667-34.667-176-84-49.334-49.333-77.334-108-84-176-6.667-68 3-132.667 29-194s52-113.333 78-156 48.332-73.333 67-92m464 480c5.333-6.667 4.333-23-3-49s-23.667-59.667-49-101-57.333-80.667-96-118c-37.333-38.667-76.667-70.667-118-96s-75-41.667-101-49c-26-7.333-42.333-8.333-49-3-5.333 6.667-4.333 23 3 49s23.667 59.667 49 101 56.667 81.333 94 120c38.667 37.333 78.667 68.667 120 94s75 41.667 101 49c26 7.333 42.333 8.333 49 3m6-394c-12 0-23.333-5.333-34-16-10.667-9.333-16-21-16-35s5.333-25.667 16-35l94-96c24-21.333 48-21.333 72 0 21.333 24 21.333 48 0 72l-96 94c-10.667 10.667-22.667 16-36 16m-180-124c-12-6.667-19.667-16.667-23-30-3.333-13.333-1.667-26 5-38l54-96c17.333-29.333 40-36 68-20 12 6.667 19.667 16.667 23 30 3.333 13.333 1.667 26-5 38l-54 96c-9.333 17.333-23.333 26-42 26-9.333 0-18-2-26-6m438 150c6.667 12 8 24.667 4 38-4 13.333-12 23.333-24 30l-96 54c-10.667 5.333-18.667 8-24 8-18.667 0-33.333-8.667-44-26-6.667-12-8-24.667-4-38 4-13.333 12-23.333 24-30l96-54c12-6.667 24.667-8.333 38-5 13.333 3.333 23.333 11 30 23"/></svg>