<svg xmlns="http://www.w3.org/2000/svg" viewBox="0 0 960 960"><path d="M480 0c132 0 245 46.667 339 140s141 206.667 141 340c0 80-18.667 154.667-56 224s-88 126-152 170c-72-124-184.667-188-338-192-117.333-4-216 34-296 114C39.333 704 0 598.667 0 480c0-133.333 46.667-246.667 140-340S346.667 0 480 0m234 650c9.333-17.333 6-30.667-10-40-125.333-76-278.667-94-460-54-20 5.333-27.333 17.333-22 36 5.333 20 17.333 27.333 36 22 164-38.667 302.667-23.333 416 46 17.333 9.333 30.667 6 40-10m58-136c12-22.667 8-39.333-12-50-73.333-45.333-158.667-73.667-256-85-97.333-11.333-189.333-4.333-276 21-22.667 6.667-30.667 22-24 46 6.667 22.667 22 31.333 46 26 74.667-22.667 156-29 244-19s164 34.333 228 73c21.333 13.333 38 9.333 50-12m4-142c25.333 16 46 11.333 62-14 13.333-25.333 8-46-16-62-84-49.333-188.667-79-314-89s-227.333-1-306 27c-12 2.667-21 9.667-27 21s-7 22.333-3 33c4 12 11.333 21 22 27s22 7 34 3c68-24 158.333-31.667 271-23 112.667 8.667 205 34.333 277 77M412 826c86.667 2.667 148.667 42 186 118-40 10.667-79.333 16-118 16-84 0-162-20.667-234-62 44-49.333 99.333-73.333 166-72"/></svg>