<svg xmlns="http://www.w3.org/2000/svg" viewBox="0 0 880 880"><path d="M440 0c121.333 0 225 43 311 129s129 189.667 129 311c0 73.333-17 141.667-51 205s-80.333 115.667-139 157c-66.667-113.333-170-172-310-176-108-4-198.667 30.667-272 104C36 647.333 0 550.667 0 440c0-122.667 42.667-226.667 128-312S317.333 0 440 0m214 596c10.667-14.667 8-27.333-8-38-114.667-70.667-255.333-86.667-422-48-17.333 5.333-24 16-20 32 4 17.333 14.667 24.667 32 22 152-36 279.333-22.667 382 40 14.667 9.333 26.667 6.667 36-8m54-124c12-20 8-36-12-48-66.667-41.333-145-67-235-77s-173.667-3.667-251 19c-21.333 6.667-29.333 21.333-24 44 8 21.333 22 28.667 42 22 69.333-21.333 144.333-27.333 225-18 80.667 9.333 150.333 32 209 68 18.667 13.333 34 10 46-10m4-130c22.667 13.333 41.333 8.667 56-14 13.333-22.667 8.667-41.333-14-56-77.333-45.333-173.333-72.667-288-82-114.667-9.333-208.667-1.333-282 24-9.333 2.667-16.667 9-22 19-5.333 10-6.667 20.333-4 31 6.667 25.333 23.333 34.667 50 28 62.667-22.667 145.667-30 249-22s188.333 32 255 72M376 756c80 4 137.333 40.667 172 110-42.667 9.333-78.667 14-108 14-76 0-147.333-18.667-214-56 38.667-48 88.667-70.667 150-68"/></svg>