<svg xmlns="http://www.w3.org/2000/svg" viewBox="0 0 1000 760"><path d="M552 282v-60c0-14.667-5-27-15-37s-22.333-15-37-15c-13.333 0-25.333 5-36 15-10.667 10-16 22.333-16 37v314c0 61.333-22 114-66 158s-96.667 66-158 66-114-22-158-66S0 597.333 0 536V404h172v132c0 13.333 5.333 25.333 16 36 10.667 10.667 22.667 16 36 16 13.333 0 25.333-5.333 36-16 10.667-10.667 16-22.667 16-36V222c0-61.333 22-113.667 66-157S438.667 0 500 0s114 21.667 158 65 66 95.667 66 157v60l-102 34-70-34m278 122h170v132c0 61.333-22 114-66 158s-96.667 66-158 66-114-22-158-66-66-96.667-66-158V402l70 32 102-32v134c0 13.333 5.333 25.333 16 36 10.667 10.667 22.667 16 36 16 14.667 0 27.333-5 38-15 10.667-10 16-22.333 16-37V404"/></svg>