<svg xmlns="http://www.w3.org/2000/svg" viewBox="0 0 960 960"><path d="M480 0c132 0 245 46.667 339 140s141 206.667 141 340c0 132-47 245-141 339S612 960 480 960c-133.333 0-246.667-47-340-141S0 612 0 480c0-133.333 46.667-246.667 140-340S346.667 0 480 0m0 368c17.333 0 26 8.667 26 26v30l34 18 52-18v-30c0-30.667-11-57-33-79s-48.333-33-79-33-57.333 11-80 33-34 48.333-34 79v160c0 17.333-8.667 26-26 26s-26-8.667-26-26v-68h-88v68c0 30.667 11.333 57 34 79s49.333 33 80 33 57-11 79-33 33-48.333 33-79V394c0-17.333 9.333-26 28-26m252 186v-68h-86v68c0 17.333-8.667 26-26 26-18.667 0-28-8.667-28-26v-68l-52 16-34-16v68c0 30.667 11 57 33 79s49 33 81 33c30.667 0 57-11 79-33s33-48.333 33-79"/></svg>