<svg xmlns="http://www.w3.org/2000/svg" viewBox="0 0 969 1011.3330078125"><path d="M945 25.333c24 70.667 21.333 137-8 199s-72 114.333-128 157l18 24c10.667 18.667 12.667 36.667 6 54l-48 158c-8 20-20 35.333-36 46l-464 328c-28 20-49.333 18.667-64-4l-210-304c-8-12-11-25-9-39s9-25 21-33l464-328c17.333-12 35.333-18 54-18h158c20 0 36 8.667 48 26l28 40c112-86.667 150-182 114-286-6.667-18.667-.667-32 18-40 21.333-5.333 34 1.333 38 20m-216 468c26.667-21.333 38-48 34-80l-32 16c-5.333 2.667-9.333 4-12 4-12 0-21.333-6-28-18-8-20-2.667-33.333 16-40l24-14c-32-22.667-62.667-22.667-92 0-18.667 12-30 29-34 51s.667 42.333 14 61c12 17.333 29 28 51 32s41.667 0 59-12"/></svg>