<svg xmlns="http://www.w3.org/2000/svg" viewBox="0 0 540 1000"><path d="M400 494c42.667 24 76.667 56.667 102 98s38 87.333 38 138c0 74.667-26.333 138.333-79 191s-116.333 79-191 79-138.333-26.333-191-79S0 804.667 0 730c0-50.667 12.667-96.667 38-138s59.333-74 102-98V50c0-33.333 13.333-50 40-50h170c13.333 0 25 5 35 15s15 21.667 15 35v444M270 900c46.667 0 86.667-16.667 120-50s50-73.333 50-120c0-37.333-10.667-70.667-32-100s-49.333-49.333-84-60V200H224v368c-36 10.667-65.667 31-89 61s-35 63.667-35 101c0 46.667 16.667 86.667 50 120s73.333 50 120 50"/></svg>