<svg xmlns="http://www.w3.org/2000/svg" viewBox="0 0 800 906"><path d="M218 582c-1.333-4-20.333-8.333-57-13s-72.667-12.667-108-24-53-27-53-47c0-48 20.667-143 62-285S138.667 0 168 0c96 0 192 14.333 288 43s144 58.333 144 89v342c0 6.667-2.667 14.667-8 24s-13.667 19.333-25 30c-11.333 10.667-22 20.333-32 29-10 8.667-24 19.333-42 32-18 12.667-31.667 22.333-41 29-9.333 6.667-23 16-41 28l-33 22c-33.333 22.667-68 56-104 100s-64.333 78.667-85 104-34.333 34-41 26c-32-50.667-41.667-96.333-29-137 12.667-40.667 32.333-80.333 59-119s40-58.667 40-60m432-4c-8 0-7.333-4.667 2-14 32-33.333 48-68 48-104V142c0-33.333-17.333-68-52-104-6.667-6.667-6-10 2-10 17.333 0 35.667 2.667 55 8s40 20.333 62 45 33 57.667 33 99v242c0 32-6 59-18 81s-27 38-45 48-34 17-48 21-27 6-39 6"/></svg>