<svg xmlns="http://www.w3.org/2000/svg" viewBox="0 0 940 940"><path d="M216 546l326-326 178 178-326 326-178-178m710-244c9.333 9.333 14 21.333 14 36 0 14.667-4.667 26.667-14 36L376 924c-10.667 10.667-22.667 16-36 16-13.333 0-25.333-5.333-36-16l-76-76c8-13.333 12-29.333 12-48 0-28-9.667-52-29-72s-43-30-71-30c-14.667 0-31.333 4.667-50 14l-74-76C5.333 625.333 0 613.333 0 600c0-13.333 5.333-25.333 16-36L566 14c9.333-9.333 21.333-14 36-14 14.667 0 26.667 4.667 36 14l74 76c-8 14.667-12 30.667-12 48 0 28 10 51.667 30 71s44 29 72 29c17.333 0 33.333-4 48-12l76 76M394 804l406-406-258-258-408 406 260 258"/></svg>