<svg xmlns="http://www.w3.org/2000/svg" viewBox="0 0 963 902"><path d="M481.333 554c-60 0-112-9-156-27s-67.333-39.667-70-65c29.333-82.667 48-135.333 56-158 6.667 18.667 26.333 34 59 46s69.667 18 111 18c42.667 0 80-6 112-18s51.333-27.333 58-46c8 22.667 26.667 75.333 56 158-2.667 25.333-26 47-70 65s-96 27-156 27m0-334c-64 0-105.333-14.667-124-44l52-142C416 11.333 440 0 481.333 0s66 11.333 74 34c8 25.333 24.667 72.667 50 142-18.667 29.333-60 44-124 44m440 384c26.667 10.667 40.333 24.333 41 41 .667 16.667-11.667 32.333-37 47l-352 188c-25.333 14.667-55.667 22-91 22s-65.667-7.333-91-22l-354-188C12 678.667 0 663.333 1.333 646c1.333-17.333 15.333-31.333 42-42l188-76-22 60c0 32 26.667 59.333 80 82s117.333 34 192 34 138.667-11.333 192-34 80.667-50 82-82l-22-60 188 76"/></svg>