<svg xmlns="http://www.w3.org/2000/svg" viewBox="0 0 760 960"><path d="M50 374c81.333 46.667 191.333 70 330 70s248.667-23.333 330-70l-54 486c-1.333 9.333-13 21.333-35 36-22 14.667-55.333 29-100 43s-91.667 21-141 21-96-7-140-21-77.333-28.333-100-43c-22.667-14.667-34.667-26.667-36-36L50 374M538 74c62.667 12 115.333 30.333 158 55s64 48.333 64 71v10c0 38.667-37.333 71.667-112 99s-164 41-268 41-193.333-13.667-268-41S0 248.667 0 210v-10c0-22.667 21.333-46.333 64-71s95.333-43 158-55l42-48c14.667-17.333 38-26 70-26h92c34.667 0 58 8.667 70 26l42 48m-54 112h84c-61.333-73.333-96-115.333-104-126-9.333-10.667-20-16-32-16H330c-14.667 0-25.333 5.333-32 16L192 186h84l64-66h82l62 66"/></svg>