<svg xmlns="http://www.w3.org/2000/svg" viewBox="0 0 920 746"><path d="M920 88c-24 36-55.333 68.667-94 98v24c0 86.667-20 170-60 250S664 607.667 580 663s-180.667 83-290 83c-106.667 0-203.333-28-290-84 9.333 1.333 24.667 2 46 2 88 0 166-26.667 234-80-41.333-1.333-78-14-110-38s-54-55.333-66-94c6.667 2.667 18 4 34 4 17.333 0 34-2 50-6-44-9.333-80-31.333-108-66s-42-74.667-42-120v-2c24 13.333 52 21.333 84 24-56-38.667-84-91.333-84-158 0-32 8.667-63.333 26-94 102.667 125.333 232.667 190.667 390 196-4-12-6-26-6-42 0-52 18.333-96.333 55-133S584.667 0 638 0c54.667 0 100 19.333 136 58 40-8 80-22.667 120-44-13.333 44-40.667 78.667-82 104 37.333-5.333 73.333-15.333 108-30"/></svg>