<svg xmlns="http://www.w3.org/2000/svg" viewBox="0 0 940 900"><path d="M736 672c136 48 204 88.667 204 122v106H0V794c0-33.333 68-74 204-122 62.667-22.667 105.333-45.667 128-69s34-55 34-95c0-14.667-7.333-31-22-49s-25.333-42.333-32-73c-1.333-8-4.333-14-9-18s-9.333-6.667-14-8c-4.667-1.333-9.333-7-14-17s-7.667-24.333-9-43c0-10.667 1.667-19.333 5-26 3.333-6.667 6.333-10.667 9-12l4-4c-5.333-33.333-9.333-62.667-12-88-2.667-36 11-73.333 41-112S395.333 0 470 0s127.333 19.333 158 58 44 76 40 112l-12 88c12 5.333 18 19.333 18 42-1.333 18.667-4.333 33-9 43s-9.333 15.667-14 17c-4.667 1.333-9.333 4-14 8s-7.667 10-9 18c-5.333 32-15.667 56.667-31 74s-23 33.333-23 48c0 40 11.667 71.667 35 95s65.667 46.333 127 69"/></svg>