<svg xmlns="http://www.w3.org/2000/svg" viewBox="0 0 1000 800"><path d="M900 0c28 0 51.667 9.667 71 29s29 43 29 71v600c0 26.667-9.667 50-29 70s-43 30-71 30H100c-26.667 0-50-10-70-30S0 726.667 0 700V100c0-28 10-51.667 30-71S73.333 0 100 0h800m0 700V100H100v600h800M450 504v90H200v-90h250m0-150v90H200v-90h250m0-150v90H200v-90h250m346 320l4 70H550c0-46.667 2-70 6-70 56-14.667 84-36.667 84-66 0-10.667-9-29.333-27-56s-27-56-27-88c0-73.333 30-110 90-110s90 36.667 90 110c0 32-9.333 61.333-28 88s-28 45.333-28 56c0 13.333 7 25.333 21 36 14 10.667 28.333 18 43 22l22 8"/></svg>