<svg xmlns="http://www.w3.org/2000/svg" viewBox="0 0 910.6669921875 817"><path d="M896 204.667c-21.333 124-78.333 241-171 351s-174.333 189-245 237c-28 18.667-55 24.333-81 17-26-7.333-48-20-66-38s-32.333-38.333-43-61c-10.667-21.333-36.667-101-78-239s-66-212.333-74-223c-10.667-8-23.333-9.667-38-5-14.667 4.667-29.333 11.667-44 21l-20 14-36-50c12-13.333 27.333-30.667 46-52s52-51 100-89 89.333-60.333 124-67c20-4 37.667-1.667 53 7 15.333 8.667 27.333 20.333 36 35 8.667 14.667 16.333 34.667 23 60 6.667 25.333 11.667 48.667 15 70s7.333 46.333 12 75 9 51 13 67c9.333 36 16.333 62.667 21 80 4.667 17.333 10.333 35.333 17 54s12.667 31.667 18 39c5.333 7.333 11.333 11 18 11 26.667 0 68.667-55.333 126-166 28-50.667 30-92 6-124s-61.333-32.667-112-2c14.667-84 61.333-146.667 140-188 69.333-36 130-38.667 182-8 53.333 30.667 72.667 88.667 58 174"/></svg>