<svg xmlns="http://www.w3.org/2000/svg" viewBox="0 0 44 30.374004364013672"><path d="M24.26.001C32.9.001 40.38 2.787 44 6.846v5.018c-2.646-3.908-9.773-6.707-18.15-6.707-10.632 0-19.25 4.509-19.25 10.071 0 3.604 3.618 6.766 9.056 8.546C7.748 21.894 2.2 17.498 2.2 12.375 2.2 5.541 12.077 0 24.26 0zm-3.42 30.373c-8.64 0-16.12-2.787-19.74-6.845L0 18.51c2.646 3.908 10.873 6.708 19.25 6.708 10.632 0 19.25-4.51 19.25-10.072 0-3.604-3.618-6.766-9.056-8.546C37.352 8.481 42.9 12.877 42.9 17.999c0 6.834-9.877 12.375-22.06 12.375z"/></svg>