<svg xmlns="http://www.w3.org/2000/svg" viewBox="0 0 47.89799499511719 30.091999053955078"><path d="M0 .002h17.367V4.51H5.493v8.303h11.07v4.51H5.493V30.09H0V0zM42.895 8.35h5.003l-6.326 21.741H36.86l-2.397-8.839c-.622-2.277-1.076-4.33-1.531-6.965h-.083c-.413 2.679-.95 4.823-1.529 6.965l-2.563 8.84h-4.755L18.051 8.35h5.208l2.11 9.866 1.28 7.054h.083c.413-2.366 1.075-4.776 1.654-7.01l2.605-9.91h4.134l2.521 9.643c.621 2.545 1.158 4.91 1.613 7.277h.082c.331-2.366.785-4.732 1.323-7.277l2.232-9.643z"/></svg>