<svg xmlns="http://www.w3.org/2000/svg" viewBox="0 0 30.136999130249023 31.69700050354004"><path d="M.001 2.009c1.965-.357 4.688-.625 8.393-.625 4.019 0 6.965.849 8.884 2.455 1.787 1.474 2.947 3.84 2.947 6.652 0 2.858-.893 5.223-2.59 6.831-2.187 2.188-5.624 3.214-9.509 3.214-1.026 0-1.963-.045-2.678-.179v11.34H0V2.009zm5.447 14.018c.67.178 1.563.224 2.678.224 4.108 0 6.608-2.01 6.608-5.536 0-3.349-2.321-5.134-6.117-5.134-1.517 0-2.588.133-3.17.268v10.178zm19.153 15.67V0h5.536v31.697h-5.536z"/></svg>