<svg xmlns="http://www.w3.org/2000/svg" viewBox="0 0 43 41.91699981689453"><path d="M15 24.089V7.375L9 13V7.5L17 0l8 7.5V13l-6-5.625v15.542h16.625l-5.625-6h5.5l7.5 8-7.5 8H30l5.625-6H17.828l-11 11H15l-4 4H0v-11l4-4v8.172l11-11zm6.253 8.361L18.8 37.262v2.655h-1.707v-2.625l-2.346-4.842h1.921l1.195 2.785.17.61h.022l.165-.588 1.252-2.807h1.781zm8.267-10.533h-2.03l-1.308-2.432-.154-.5h-.021l-.175.522-1.314 2.41H22.48l2.42-3.733-2.207-3.734h2.079l1.083 2.239.227.63h.021l.235-.65 1.194-2.219h1.881l-2.235 3.702 2.342 3.765zm-16.48 1H6.96v-.985l3.875-5.095H7.28V15.45h5.76v.955L9.248 21.53h3.792v1.387z"/></svg>