<svg xmlns="http://www.w3.org/2000/svg" viewBox="0 0 41.16600036621094 22.95800018310547"><path d="M0 2.375h1.583V0l2.375.792v1.583h37.208v3.958H0V2.375zm1.583 4.75h38c0 2.111 0 4.222-1.583 5.344-1.584 1.121-4.75 1.253-7.917 1.385h-19c-3.167-.132-6.333-.264-7.917-1.385-1.583-1.122-1.583-3.234-1.583-5.344zm0 15.833c0-2.639.396-5.277 1.451-6.597 1.056-1.32 4.354-1.715 6.466-1.715h22.166c2.111 0 5.41.396 6.466 1.715 1.055 1.32 1.451 3.959 1.451 6.597H38c0-2.11-.396-4.222-1.452-5.277-1.055-1.056-4.354-1.056-6.465-1.056h-19c-2.111 0-5.41 0-6.465 1.056-1.056 1.055-1.452 3.166-1.452 5.277H1.583z"/></svg>