<svg xmlns="http://www.w3.org/2000/svg" viewBox="0 0 42 33.79100036621094"><path d="M5 23c4.424 1.303 12.483 1.805 15.208 5.215V9C17.483 5.59 9.424 5.087 5 3.784V23zM5 .308v-.28c4.424 1.303 12.483 1.806 15.208 5.216l.792.228.792-.256C24.517 1.806 32.577 1.303 37 0v.28c1.229.37 2 .692 2 .692v3l3-1.146v24.146s-17.833 1.25-21 6.791v.028C17.833 28.25 0 27 0 27V2.854L3 4V1s.771-.322 2-.692zm1.5 20.198v-3.122c3.769.859 8.96 1.435 12 3.366v3.121c-3.04-1.93-8.231-2.506-12-3.365zm0-5.385V12c3.769.858 8.96 1.434 12 3.365v3.121c-3.04-1.93-8.231-2.506-12-3.365zm0-5.487V6.513c3.769.858 8.96 1.434 12 3.365V13c-3.04-1.931-8.231-2.507-12-3.366zM37 22.972V3.756c-4.423 1.303-12.483 1.806-15.208 5.216v19.215c2.725-3.41 10.785-3.912 15.208-5.215zm-1.5-2.494c-3.769.859-8.96 1.434-12 3.365v-3.121c3.04-1.931 8.231-2.507 12-3.366v3.122zm0-5.385c-3.769.859-8.96 1.434-12 3.365v-3.121c3.04-1.931 8.231-2.507 12-3.365v3.121zm0-5.487c-3.769.859-8.96 1.435-12 3.366V9.85c3.04-1.931 8.231-2.507 12-3.365v3.121z"/></svg>