<svg xmlns="http://www.w3.org/2000/svg" viewBox="0 0 38 38"><path d="M0 0h3v3H0V0zm3 9H0V6h3v3zm0 6H0v-3h3v3zm1 3v2H0v-2h4zM20 0v4h-2V0h2zm-8 3V0h3v3h-3zM6 3V0h3v3H6zm32-3v38h-3V20h-1v-2h1V0h3zm-9 3V0h3v3h-3zm-6 0V0h3v3h-3zM3 26H0v-3h3v3zm0 6H0v-3h3v3zm0 3v3H0v-3h3zm15-1h2v4h-2v-4zm-6 4v-3h3v3h-3zm-6 0v-3h3v3H6zm23 0v-3h3v3h-3zm-6 0v-3h3v3h-3zm-5-20h2v2h-2v-2zm2 6h-2v-2h2v2zm0 4h-2v-2h2v2zm0 4h-2v-2h2v2zm0-24h-2V6h2v2zm0 4h-2v-2h2v2zm0 4h-2v-2h2v2zM8 18v2H6v-2h2zm4 0v2h-2v-2h2zm4 0v2h-2v-2h2zm14 2v-2h2v2h-2zm-6-2v2h-2v-2h2zm4 0v2h-2v-2h2z"/></svg>