<svg xmlns="http://www.w3.org/2000/svg" viewBox="0 0 38 38"><path d="M0 0h3v18h1v2H3v18H0V0zm20 0v4h-2V0h2zm-8 3V0h3v3h-3zM6 3V0h3v3H6zm32-3v3h-3V0h3zm0 9h-3V6h3v3zm0 6h-3v-3h3v3zm0 23h-3v-3h3v3zm-4-18v-2h4v2h-4zm4 6h-3v-3h3v3zm0 6h-3v-3h3v3zM29 3V0h3v3h-3zm-6 0V0h3v3h-3zm-5 31h2v4h-2v-4zm-6 4v-3h3v3h-3zm-6 0v-3h3v3H6zm23 0v-3h3v3h-3zm-6 0v-3h3v3h-3zm-5-20h2v2h-2v-2zm2 6h-2v-2h2v2zm0 4h-2v-2h2v2zm0 4h-2v-2h2v2zm0-24h-2V6h2v2zm0 4h-2v-2h2v2zm0 4h-2v-2h2v2zM8 18v2H6v-2h2zm4 0v2h-2v-2h2zm4 0v2h-2v-2h2zm14 2v-2h2v2h-2zm-6-2v2h-2v-2h2zm4 0v2h-2v-2h2z"/></svg>