<svg xmlns="http://www.w3.org/2000/svg" viewBox="0 0 32 42"><path d="M3 0h26c1.312 0 3 1.688 3 3v36c0 1.312-1.688 3-3 3H3c-1.312 0-3-1.688-3-3V3c0-1.312 1.688-3 3-3zm2 3a2 2 0 0 0-2 2v3a2 2 0 0 0 2 2h22a2 2 0 0 0 2-2V5a2 2 0 0 0-2-2H5zm0 10a2 2 0 0 0-2 2v2a2 2 0 0 0 2 2h2a2 2 0 0 0 2-2v-2a2 2 0 0 0-2-2H5zm10 0a2 2 0 0 0-2 2v2a2 2 0 0 0 2 2h2a2 2 0 0 0 2-2v-2a2 2 0 0 0-2-2h-2zm10 0a2 2 0 0 0-2 2v2a2 2 0 0 0 2 2h2a2 2 0 0 0 2-2v-2a2 2 0 0 0-2-2h-2zM5 22a2 2 0 0 0-2 2v2a2 2 0 0 0 2 2h2a2 2 0 0 0 2-2v-2a2 2 0 0 0-2-2H5zm10 0a2 2 0 0 0-2 2v2a2 2 0 0 0 2 2h2a2 2 0 0 0 2-2v-2a2 2 0 0 0-2-2h-2zm10 0a2 2 0 0 0-2 2v2a2 2 0 0 0 2 2h2a2 2 0 0 0 2-2v-2a2 2 0 0 0-2-2h-2zM5 32a2 2 0 0 0-2 2v2a2 2 0 0 0 2 2h2a2 2 0 0 0 2-2v-2a2 2 0 0 0-2-2H5zm10 0a2 2 0 0 0-2 2v2a2 2 0 0 0 2 2h2a2 2 0 0 0 2-2v-2a2 2 0 0 0-2-2h-2zm10 0a2 2 0 0 0-2 2v2a2 2 0 0 0 2 2h2a2 2 0 0 0 2-2v-2a2 2 0 0 0-2-2h-2z"/></svg>