<svg xmlns="http://www.w3.org/2000/svg" viewBox="0 0 44.00599670410156 43.0050048828125"><path d="M4.001 39.005V5h5V2a2 2 0 0 1 2-2h4.001a2 2 0 0 1 2 2v3h14.002V2a2 2 0 0 1 2-2h4.001a2 2 0 0 1 2 2v3h5.001v34.005H4zm3-3h34.005V13.001H7.001v23.004zm2-7.001h6.001v5h-6v-5zm8.001 0h6.001v5h-6v-5zm8.001 0h6.001v5h-6v-5zm8.001 0h6.001v5h-6v-5zM9.001 22.003h6.001v5h-6v-5zm8.001 0h6.001v5h-6v-5zm8.001 0h6.001v5h-6v-5zm8.001 0h6.001v5h-6v-5zm-16.002-7.001h6.001v5h-6v-5zm8.001 0h6.001v5h-6v-5zm8.001 0h6.001v5h-6v-5zM34.504 2a1.5 1.5 0 0 0-1.5 1.5v3a1.5 1.5 0 0 0 1.5 1.5h1a1.5 1.5 0 0 0 1.501-1.5v-3a1.5 1.5 0 0 0-1.5-1.5h-1zM12.502 2a1.5 1.5 0 0 0-1.5 1.5v3a1.5 1.5 0 0 0 1.5 1.5h1a1.5 1.5 0 0 0 1.5-1.5v-3a1.5 1.5 0 0 0-1.5-1.5h-1zm5.5 21.003v3h4.001v-3h-4zm-8 0v3h4v-3h-4zm16.002 0v3h4v-3h-4zm8 0v3h4.001v-3h-4zm-16.002-7.001v3h4.001v-3h-4zm8.002 0v3h4v-3h-4zm8 0v3h4.001v-3h-4zm0 14.002v3h4.001v-3h-4zm-8 0v3h4v-3h-4zm-8.002 0v3h4.001v-3h-4zm-8 0v3h4v-3h-4zM3 7v33.005h39.006v1H2V7h1zM1 9v33.005h39.006v1H0V9h1z"/></svg>