<svg xmlns="http://www.w3.org/2000/svg" viewBox="0 0 40.00599670410156 39.0050048828125"><path d="M.001 39.005V5h5V2a2 2 0 0 1 2-2h4.001a2 2 0 0 1 2 2v3h14.002V2a2 2 0 0 1 2-2h4.001a2 2 0 0 1 2 2v3h5.001v34.005H0zm3-3h34.005V13.001H3.001v23.004zm2-7.001h6.001v5h-6v-5zm8.001 0h6.001v5h-6v-5zm8.001 0h6.001v5h-6v-5zm8.002 0h6v5h-6v-5zM5.001 22.003h6.001v5h-6v-5zm8.001 0h6.001v5h-6v-5zm8.001 0h6.001v5h-6v-5zm8.002 0h6v5h-6v-5zm-16.003-7.001h6.001v5h-6v-5zm8.001 0h6.001v5h-6v-5zm8.002 0h6v5h-6v-5zM30.505 2a1.5 1.5 0 0 0-1.5 1.5v3a1.5 1.5 0 0 0 1.5 1.5h1a1.5 1.5 0 0 0 1.5-1.5v-3a1.5 1.5 0 0 0-1.5-1.5h-1zM8.502 2a1.5 1.5 0 0 0-1.5 1.5v3a1.5 1.5 0 0 0 1.5 1.5h1a1.5 1.5 0 0 0 1.5-1.5v-3a1.5 1.5 0 0 0-1.5-1.5h-1zm5.5 21.003v3h4.001v-3h-4z"/></svg>