<svg xmlns="http://www.w3.org/2000/svg" viewBox="0 0 40.00599670410156 39.0050048828125"><path d="M16.003 34.004h-3V20.502c-1.34 1.391-2.848 2.28-4.664 2.945v-3.695c.959-.308 2-.89 3.122-1.748 1.123-.858 1.894-1.859 2.313-3.002h2.229v19.002zm11.001 0v-4h-8v-3l8-12.002h3v12.001h2.001v3h-2v4.001h-3zm0-7v-6.752l-4.75 6.751h4.75zm-27.003 12V5h5V2a2 2 0 0 1 2-2h4.001a2 2 0 0 1 2 2v3h14.002V2a2 2 0 0 1 2-2h4.001a2 2 0 0 1 2 2v3h5.001v34.005H0zm3-3h34.005V13.001H3.001v23.004zM30.505 1.999a1.5 1.5 0 0 0-1.5 1.5v3a1.5 1.5 0 0 0 1.5 1.5h1a1.5 1.5 0 0 0 1.5-1.5v-3a1.5 1.5 0 0 0-1.5-1.5h-1zm-22.003 0a1.5 1.5 0 0 0-1.5 1.5v3a1.5 1.5 0 0 0 1.5 1.5h1a1.5 1.5 0 0 0 1.5-1.5v-3a1.5 1.5 0 0 0-1.5-1.5h-1z"/></svg>