<svg xmlns="http://www.w3.org/2000/svg" viewBox="0 0 58.832000732421875 38.000003814697266"><path d="M3 7h14a3 3 0 0 1 0 6H3a3 3 0 0 1 0-6zm4 9h12a3 3 0 0 1 0 6H7a3 3 0 1 1 0-6zM33 5v24h25.832a34.798 34.798 0 0 1-3.81 9H29V0h24.727a34.972 34.972 0 0 1 2.905 5H33zm6.5 8H42v-.5c0-1.105 1.395-2.5 2.5-2.5h3c1.105 0 2.5 1.395 2.5 2.5v.5h2.5a2.5 2.5 0 0 1 2.5 2.5v6a2.5 2.5 0 0 1-2.5 2.5h-13a2.5 2.5 0 0 1-2.5-2.5v-6a2.5 2.5 0 0 1 2.5-2.5zm.5 1.75a1 1 0 1 0 0 2 1 1 0 0 0 0-2zm6 .25a3 3 0 1 0 0 6 3 3 0 0 0 0-6zM12 25h9a3 3 0 0 1 0 6h-9a3 3 0 0 1 0-6z"/></svg>