<svg xmlns="http://www.w3.org/2000/svg" viewBox="0 0 40.5369987487793 45.47499084472656"><path d="M22.439 36.421c.179 1.756.693 4.774 1.544 9.054h-7.428c.85-3.971 1.275-6.989 1.275-9.054l.504-6.626c0-.411.169-.329.505.247-.707 1.763-1.595 3.269-2.665 4.517-1.818 2.188-4.188 3.282-7.11 3.282-2.743 0-4.952-.93-6.626-2.788C.813 33.071 0 30.725 0 28.015c0-3.107.85-5.651 2.552-7.634 1.646-1.7 3.817-2.551 6.512-2.551 2.483 0 4.678.782 6.585 2.346.432-.31.367-.68-.195-1.112-3.17-2.112-4.754-5.326-4.754-9.64 0-2.593.847-4.808 2.541-6.647C15.066.925 17.323 0 20.011 0c3.04 0 5.323.85 6.853 2.551 1.81 1.996 2.716 4.373 2.716 7.13 0 3.773-1.495 6.89-4.486 9.352-.57.453-.727.837-.473 1.153 2.092-1.57 4.29-2.356 6.595-2.356 2.689 0 4.86.854 6.513 2.562 1.872 1.982 2.808 4.523 2.808 7.623 0 2.717-.909 5.073-2.726 7.069-1.66 1.838-3.858 2.757-6.595 2.757-2.75 0-5.124-1.09-7.12-3.272-.892-1.076-1.776-2.579-2.654-4.506.336-.59.504-.634.504-.134l.494 6.492z"/></svg>