<svg xmlns="http://www.w3.org/2000/svg" viewBox="0 0 35.99999237060547 41.999996185302734"><path d="M1.3 0h25.4A1.3 1.3 0 0 1 28 1.3v6.4A1.3 1.3 0 0 1 26.7 9H11.3A2.3 2.3 0 0 0 9 11.3v21.4A1.3 1.3 0 0 1 7.7 34H1.3A1.3 1.3 0 0 1 0 32.7V1.3A1.3 1.3 0 0 1 1.3 0zm12 12h21.4a1.3 1.3 0 0 1 1.3 1.3v27.4a1.3 1.3 0 0 1-1.3 1.3H13.3a1.3 1.3 0 0 1-1.3-1.3V13.3a1.3 1.3 0 0 1 1.3-1.3zm4.984 18.052c0 .776.147 1.485.44 2.128a4.822 4.822 0 0 0 1.225 1.65 5.696 5.696 0 0 0 1.868 1.071c.722.256 1.515.384 2.38.384.874 0 1.674-.128 2.4-.384a5.616 5.616 0 0 0 1.868-1.07 4.788 4.788 0 0 0 1.213-1.651 5.128 5.128 0 0 0 .434-2.128c0-.52-.066-1.019-.198-1.496a4.702 4.702 0 0 0-.594-1.324 4.652 4.652 0 0 0-.984-1.083 5.014 5.014 0 0 0-1.355-.772 5.325 5.325 0 0 0 1.807-1.652 3.911 3.911 0 0 0 .679-2.235 4.11 4.11 0 0 0-.396-1.79 4.303 4.303 0 0 0-1.107-1.436 5.313 5.313 0 0 0-1.682-.952 6.272 6.272 0 0 0-2.12-.346c-.76 0-1.461.113-2.104.34a5.268 5.268 0 0 0-1.676.946 4.36 4.36 0 0 0-1.114 1.435 4.08 4.08 0 0 0-.402 1.803c0 .818.227 1.563.68 2.235.455.671 1.066 1.222 1.834 1.652a4.79 4.79 0 0 0-1.362.778 4.592 4.592 0 0 0-1.542 2.413 5.714 5.714 0 0 0-.192 1.484zm2.799-.25c0-.477.078-.918.233-1.321.156-.404.372-.753.65-1.045.276-.293.606-.52.989-.681a3.172 3.172 0 0 1 1.243-.242c.47 0 .896.087 1.28.26.384.172.712.407.984.704s.482.646.631 1.047c.15.401.224.828.224 1.279 0 .496-.078.944-.235 1.344-.157.4-.374.742-.65 1.027a2.794 2.794 0 0 1-.983.655c-.38.152-.797.227-1.251.227-.47 0-.897-.073-1.28-.221a2.696 2.696 0 0 1-.984-.643 2.878 2.878 0 0 1-.63-1.028 3.94 3.94 0 0 1-.221-1.361zm.605-8.015c0-.353.06-.69.178-1.007a2.56 2.56 0 0 1 .507-.836c.22-.238.481-.426.786-.562a2.466 2.466 0 0 1 1.015-.203c.354 0 .684.066.99.197a2.4 2.4 0 0 1 .791.545c.222.23.397.507.525.829.128.322.192.668.192 1.037a2.642 2.642 0 0 1-.736 1.853c-.227.234-.491.42-.792.556-.3.136-.624.204-.97.204a2.388 2.388 0 0 1-1.755-.748 2.689 2.689 0 0 1-.73-1.865z"/></svg>