<svg xmlns="http://www.w3.org/2000/svg" viewBox="0 0 35.99999237060547 41.999996185302734"><path d="M1.3 0h25.4A1.3 1.3 0 0 1 28 1.3v6.4A1.3 1.3 0 0 1 26.7 9H11.3A2.3 2.3 0 0 0 9 11.3v21.4A1.3 1.3 0 0 1 7.7 34H1.3A1.3 1.3 0 0 1 0 32.7V1.3A1.3 1.3 0 0 1 1.3 0zm12 12h21.4a1.3 1.3 0 0 1 1.3 1.3v27.4a1.3 1.3 0 0 1-1.3 1.3H13.3a1.3 1.3 0 0 1-1.3-1.3V13.3a1.3 1.3 0 0 1 1.3-1.3zm17.085 6.696v-1.433H18.534v2.446h8.4l-1.962 3.873a55.733 55.733 0 0 0-1.663 3.816 44.627 44.627 0 0 0-1.294 3.798 30.41 30.41 0 0 0-.85 3.804h3.01c.213-1.428.518-2.824.914-4.188a44.383 44.383 0 0 1 1.397-4.063 54.276 54.276 0 0 1 1.793-4.014l2.106-4.04z"/></svg>