<svg xmlns="http://www.w3.org/2000/svg" viewBox="0 0 35.99999237060547 41.999996185302734"><path d="M1.3 0h25.4A1.3 1.3 0 0 1 28 1.3v6.4A1.3 1.3 0 0 1 26.7 9H11.3A2.3 2.3 0 0 0 9 11.3v21.4A1.3 1.3 0 0 1 7.7 34H1.3A1.3 1.3 0 0 1 0 32.7V1.3A1.3 1.3 0 0 1 1.3 0zm12 12h21.4a1.3 1.3 0 0 1 1.3 1.3v27.4a1.3 1.3 0 0 1-1.3 1.3H13.3a1.3 1.3 0 0 1-1.3-1.3V13.3a1.3 1.3 0 0 1 1.3-1.3zm5.38 22.343c1.048.636 2.45.954 4.208.954 1.955 0 3.53-.489 4.726-1.467 1.195-.977 1.793-2.262 1.793-3.853 0-1.153-.371-2.116-1.114-2.888-.743-.772-1.753-1.22-3.03-1.344v-.047c2.375-.668 3.562-2.17 3.562-4.505 0-1.235-.474-2.248-1.423-3.04-.949-.791-2.21-1.187-3.786-1.187-1.641 0-3.064.338-4.267 1.013v2.55c1.048-.85 2.165-1.275 3.353-1.275 2.127 0 3.19.873 3.19 2.62 0 1.898-1.364 2.846-4.093 2.846h-1.31v2.3h1.373c3.075 0 4.612 1.007 4.612 3.02 0 .916-.352 1.642-1.057 2.177-.705.536-1.647.804-2.826.804-1.452 0-2.755-.458-3.911-1.374v2.696z"/></svg>