<svg xmlns="http://www.w3.org/2000/svg" viewBox="0 0 35.99999237060547 41.999996185302734"><path d="M1.3 0h25.4A1.3 1.3 0 0 1 28 1.3v6.4A1.3 1.3 0 0 1 26.7 9H11.3A2.3 2.3 0 0 0 9 11.3v21.4A1.3 1.3 0 0 1 7.7 34H1.3A1.3 1.3 0 0 1 0 32.7V1.3A1.3 1.3 0 0 1 1.3 0zm12 12h21.4a1.3 1.3 0 0 1 1.3 1.3v27.4a1.3 1.3 0 0 1-1.3 1.3H13.3a1.3 1.3 0 0 1-1.3-1.3V13.3a1.3 1.3 0 0 1 1.3-1.3zm16.206 23v-2.462h-8.004v-.063c0-.354.118-.706.352-1.057a5.93 5.93 0 0 1 .923-1.051l1.28-1.075 1.427-1.132 1.548-1.373a8.354 8.354 0 0 0 1.182-1.412 6.248 6.248 0 0 0 .754-1.6 6.587 6.587 0 0 0 .265-1.936c0-.792-.126-1.493-.378-2.104a4.076 4.076 0 0 0-1.07-1.528 4.634 4.634 0 0 0-1.67-.926c-.65-.21-1.375-.315-2.174-.315l-1.4.099-1.249.303-1.15.506-1.102.71v2.76c.694-.676 1.416-1.183 2.165-1.522.75-.34 1.487-.509 2.213-.509.422 0 .81.06 1.164.18.353.12.66.298.92.533a2.4 2.4 0 0 1 .608.878c.145.351.217.762.217 1.231 0 .428-.062.826-.186 1.194a4.33 4.33 0 0 1-.52 1.047l-.804.958-1.039.946-1.237 1.007-1.237 1.04-1.138 1.114a7.743 7.743 0 0 0-.928 1.225 6.391 6.391 0 0 0-.631 1.385 5.142 5.142 0 0 0-.236 1.575V35h11.135z"/></svg>