<svg xmlns="http://www.w3.org/2000/svg" viewBox="0 0 35.99999237060547 41.999996185302734"><path d="M1.3 0h25.4A1.3 1.3 0 0 1 28 1.3v6.4A1.3 1.3 0 0 1 26.7 9H11.3A2.3 2.3 0 0 0 9 11.3v21.4A1.3 1.3 0 0 1 7.7 34H1.3A1.3 1.3 0 0 1 0 32.7V1.3A1.3 1.3 0 0 1 1.3 0zm12 12h21.4a1.3 1.3 0 0 1 1.3 1.3v27.4a1.3 1.3 0 0 1-1.3 1.3H13.3a1.3 1.3 0 0 1-1.3-1.3V13.3a1.3 1.3 0 0 1 1.3-1.3zm13.501 4.867H25.59l-1.368.902-1.312.717-1.316.582-1.387.495v2.45c.768-.198 1.45-.427 2.048-.687a9.114 9.114 0 0 0 1.676-.948V35h2.87V16.867z"/></svg>