<svg xmlns="http://www.w3.org/2000/svg" viewBox="0 0 35.99999237060547 41.999996185302734"><path d="M1.3 0h25.4A1.3 1.3 0 0 1 28 1.3v6.4A1.3 1.3 0 0 1 26.7 9H11.3A2.3 2.3 0 0 0 9 11.3v21.4A1.3 1.3 0 0 1 7.7 34H1.3A1.3 1.3 0 0 1 0 32.7V1.3A1.3 1.3 0 0 1 1.3 0zm12 12h21.4a1.3 1.3 0 0 1 1.3 1.3v27.4a1.3 1.3 0 0 1-1.3 1.3H13.3a1.3 1.3 0 0 1-1.3-1.3V13.3a1.3 1.3 0 0 1 1.3-1.3zm14.809 5.263h-2.894a27.667 27.667 0 0 1-1.524 2.87 48.196 48.196 0 0 1-1.96 2.986l-2.2 2.92-2.233 2.651v2.415h8.028V35h2.783v-3.895h2.632v-2.39h-2.632V17.262zm-2.783 11.451h-5.134l2.466-3.214c.879-1.203 1.768-2.614 2.668-4.231v7.445z"/></svg>