<svg xmlns="http://www.w3.org/2000/svg" viewBox="0 0 50.66600036621094 43.54199981689453"><path d="M50.666 43.542H0v-9.5h4.75v-3.167h3.166v1.583H9.5v-9.5h1.583v-3.166h4.75v15.833H19v-6.333h3.166v-7.917h3.167v11.083h1.928c4.405-6.333.447-19 .447-19h-3.167s0-2.77-1.583-2.77L22.166 9.5l5.938-1.98V5.542h1.121c.686-1.397 1.164-3.204 1.254-5.542h.791s.11 2.844 1.364 5.542h1.011v1.979L39.583 9.5l-.792 1.583s-1.583.792-1.583 2.375h-3.167s-3.958 12.667.448 19h1.927v-7.916h3.167v1.583h1.583v6.333h3.167v4.75h1.583v-1.583h3.167v3.167h1.583v4.75z"/></svg>