<svg xmlns="http://www.w3.org/2000/svg" viewBox="0 0 40.93690872192383 28.000003814697266"><path d="M9.472 18.95l4.95-4.95-4.95-4.95 2.578-2.578 4.95 4.95 4.95-4.95 2.578 2.578-4.95 4.95 4.95 4.95-2.578 2.578-4.95-4.95-4.95 4.95-2.578-2.578zm29.513-1.415l-8.95 8.95C28.932 27.59 28 28 26 28H5a5 5 0 0 1-5-5V5a5 5 0 0 1 5-5h21c2 0 2.932.411 4.035 1.515l8.95 8.95a5 5 0 0 1 0 7.07zM26 25c1 0 1.395-.117 1.914-.636l8.95-8.95a2 2 0 0 0 0-2.828l-8.95-8.95C27.395 3.118 27 3 26 3H5a2 2 0 0 0-2 2v18a2 2 0 0 0 2 2h21z"/></svg>