<svg xmlns="http://www.w3.org/2000/svg" viewBox="0 0 35.701995849609375 34.83518981933594"><path d="M17.851 3.168c8.745 0 15.833 7.09 15.833 15.833 0 8.745-7.088 15.834-15.833 15.834-8.744 0-15.833-7.09-15.833-15.834S9.106 3.168 17.851 3.168zm0 3.958c-6.558 0-11.875 5.317-11.875 11.875 0 6.56 5.317 11.875 11.875 11.875s11.875-5.316 11.875-11.875c0-6.558-5.317-11.875-11.875-11.875zm-.396 3.167c.875 0 1.584.71 1.584 1.583v5.938h5.937c.874 0 1.583.71 1.583 1.583v.792c0 .874-.709 1.583-1.583 1.583h-7.125c-.792-.132-1.583-.264-2.045-.725-.462-.462-.594-1.254-.726-2.046v-7.125c0-.874.709-1.583 1.584-1.583h.791zM28.935.001a6.333 6.333 0 0 1 4.923 10.317 18.272 18.272 0 0 0-9.525-8.336 6.315 6.315 0 0 1 4.6-1.98zm-22.167 0c1.811 0 3.445.76 4.6 1.98a18.272 18.272 0 0 0-9.525 8.336A6.333 6.333 0 0 1 6.768.001z"/></svg>