<svg xmlns="http://www.w3.org/2000/svg" viewBox="0 0 47.5 28.5"><path d="M0 0h47.5v28.5H0V0zm22.407 19.512l-1.592.426-1.921.164c-1.867-.02-3.314-.55-4.34-1.593-1.027-1.042-1.547-2.479-1.561-4.309.039-2.01.606-3.51 1.701-4.5 1.096-.991 2.486-1.485 4.172-1.483a9.696 9.696 0 0 1 2.014.205l1.5.467.877-3.357c-.378-.199-.96-.38-1.742-.54-.784-.162-1.721-.248-2.814-.257-2.869.019-5.246.865-7.132 2.54-1.886 1.674-2.864 4.063-2.933 7.166.003 2.635.814 4.803 2.432 6.505 1.618 1.702 4.025 2.582 7.222 2.642 1.123-.011 2.095-.1 2.916-.265.82-.165 1.422-.342 1.804-.531l-.603-3.28zm15.78 0l-1.592.426-1.921.164c-1.867-.02-3.313-.55-4.34-1.593-1.026-1.042-1.547-2.479-1.56-4.309.038-2.01.605-3.51 1.7-4.5 1.096-.991 2.487-1.485 4.173-1.483a9.702 9.702 0 0 1 2.013.205l1.5.467.878-3.357c-.379-.199-.96-.38-1.743-.54-.783-.162-1.721-.248-2.813-.257-2.87.019-5.246.865-7.133 2.54-1.885 1.674-2.863 4.063-2.933 7.166.003 2.635.814 4.803 2.432 6.505 1.619 1.702 4.026 2.582 7.222 2.642 1.123-.011 2.095-.1 2.916-.265.822-.165 1.423-.342 1.805-.531l-.604-3.28z"/></svg>