<svg xmlns="http://www.w3.org/2000/svg" viewBox="0 0 37.625999450683594 37.625999450683594"><path d="M8.344 2.676l5.482-2.44 1.749 3.928a14.915 14.915 0 0 1 5.705-.148L22.821 0l5.602 2.15-1.542 4.016a14.915 14.915 0 0 1 4.14 3.927l3.93-1.749 2.44 5.482-3.929 1.749c.424 1.907.46 3.842.148 5.705l4.016 1.541-2.15 5.602-4.016-1.542a14.914 14.914 0 0 1-3.927 4.14l1.749 3.93-5.482 2.44-1.749-3.929c-1.907.424-3.842.46-5.705.148l-1.541 4.016-5.602-2.15 1.542-4.016a14.914 14.914 0 0 1-4.14-3.927l-3.93 1.749L.235 23.8l3.929-1.749a14.914 14.914 0 0 1-.148-5.705L0 14.805l2.15-5.602 4.016 1.542a14.914 14.914 0 0 1 3.927-4.14l-1.749-3.93zm6.808 7.915a9 9 0 1 0 7.321 16.444 9 9 0 0 0-7.32-16.444z"/></svg>