<svg xmlns="http://www.w3.org/2000/svg" viewBox="0 0 37.06357192993164 37.06456756591797"><path d="M6.296 8.535L.619 2.858A1.584 1.584 0 0 1 2.858.618l5.677 5.678c4.34-3.255 10.527-2.908 14.475 1.04L7.336 23.01C3.388 19.062 3.04 12.876 6.296 8.535zm23.432 5.52c3.948 3.947 4.295 10.133 1.04 14.474l5.677 5.677a1.584 1.584 0 1 1-2.24 2.24l-5.676-5.678c-4.341 3.255-10.527 2.908-14.475-1.04l3.358-3.359-2.8-2.799a2.376 2.376 0 1 1 3.36-3.359l2.799 2.8 2.24-2.24-2.8-2.799a2.375 2.375 0 1 1 3.36-3.358l2.798 2.798 3.359-3.358z"/></svg>