<svg xmlns="http://www.w3.org/2000/svg" viewBox="0 0 40 28"><path d="M11 23v-8h1v8h-1zm2-8h3v8h-3v-8zm4 0h1v8h-1v-8zm2 8v-8h1v8h-1zm2-8h2v8h-2v-8zm3 0h1v8h-1v-8zm2 0h1v8h-1v-8zm2 0h1v8h-1v-8zM9.51 9.64c.193 0 .29.095.29.286 0 .237-.285.528-.855.875-.57.346-1.121.519-1.654.519a2.06 2.06 0 0 1-1.298-.464c-.395-.31-.593-.761-.593-1.354 0-.603.208-1.273.624-2.009.417-.736.932-1.336 1.548-1.799C8.187 5.232 8.788 5 9.372 5c.349 0 .627.104.835.31.209.208.313.45.313.728l-.07.646a.666.666 0 0 1-.303.336l-.377.14-.26-.107a.383.383 0 0 1-.11-.288l.083-.369.077-.404c0-.181-.06-.272-.182-.272-.373 0-.79.203-1.254.608a5.507 5.507 0 0 0-1.189 1.51c-.33.601-.495 1.132-.495 1.592 0 .306.085.564.256.774.171.21.42.316.749.316l.732-.162c.295-.108.567-.254.817-.438.252-.187.424-.28.516-.28zm5.262-.635a3.093 3.093 0 0 1-1.011 1.532c-.497.415-.994.623-1.49.623-.391 0-.715-.14-.97-.421a1.485 1.485 0 0 1-.381-1.035c0-.669.233-1.326.7-1.973.467-.647 1.032-.971 1.697-.971.454 0 .82.164 1.102.491.28.328.421.718.421 1.171l-.068.58v.003zm-2.08-1.245c-.187.162-.368.422-.546.778a2.384 2.384 0 0 0-.266 1.072c0 .218.04.397.121.538.081.141.188.212.32.212.33 0 .671-.193 1.026-.578.355-.384.533-.816.533-1.296 0-.269-.058-.49-.173-.665a.548.548 0 0 0-.483-.261.795.795 0 0 0-.529.2h-.004zm5.588 1.811c-.244.462-.527.829-.849 1.1-.321.273-.648.409-.978.409-.196 0-.394-.105-.594-.314-.2-.209-.299-.53-.299-.965 0-.306.071-.77.214-1.39l.186-1.166c.102-.217.26-.325.476-.325a.45.45 0 0 1 .353.148l.131.297-.165.776-.205.847-.11.7c0 .342.07.512.211.512.223 0 .524-.221.903-.663.379-.442.626-.895.741-1.357l.313-.89c.09-.14.22-.21.386-.21.27 0 .406.153.406.458l-.071.267c-.166.466-.249.99-.249 1.574 0 .683.115 1.092.344 1.226l.112.164c0 .094-.066.183-.2.266l-.383.125c-.216 0-.382-.144-.499-.431-.116-.288-.174-.674-.174-1.158zm3.004 1.143l-.133.822-.187 1.524c-.031.248-.091.42-.181.516a.435.435 0 0 1-.33.144.516.516 0 0 1-.335-.131c-.105-.088-.158-.185-.158-.291l.096-.732c.38-1.551.588-3.161.624-4.83v-.079l.03-.697.172-.307c.094-.089.228-.133.402-.133.29 0 .436.216.436.649l-.115.897-.046.268a4.58 4.58 0 0 1 1.057-1.24c.407-.33.773-.494 1.095-.494.291 0 .539.105.743.316.204.211.306.476.306.795 0 .852-.324 1.626-.973 2.323-.649.697-1.29 1.046-1.925 1.046-.3 0-.492-.122-.578-.366zm2.281-3.234c-.32 0-.733.317-1.242.95-.509.632-.763 1.13-.763 1.491 0 .094.045.177.136.25l.315.109c.332 0 .713-.265 1.143-.796.43-.53.646-1.043.646-1.538l-.074-.357-.161-.109zm5.688 1.525a3.093 3.093 0 0 1-1.012 1.532c-.498.415-.994.623-1.49.623-.391 0-.715-.14-.97-.421a1.485 1.485 0 0 1-.381-1.035c0-.669.233-1.326.7-1.973.467-.647 1.032-.971 1.697-.971.454 0 .82.164 1.102.491.28.328.421.718.421 1.171l-.068.58v.003zM27.17 7.76c-.186.162-.367.422-.545.778a2.384 2.384 0 0 0-.266 1.072c0 .218.04.397.121.538.081.141.188.212.32.212.33 0 .671-.193 1.026-.578.355-.384.533-.817.533-1.296 0-.269-.058-.49-.173-.665a.548.548 0 0 0-.483-.261.795.795 0 0 0-.529.2h-.004zm6.113 2.684c-.13-.236-.225-.676-.284-1.319-.057-.67-.185-1.005-.383-1.005-.187 0-.511.352-.972 1.054-.46.703-.745 1.222-.851 1.557l-.13.25-.19.099c-.396 0-.594-.182-.594-.547l.104-.844c.09-.568.136-1.261.136-2.081 0-.125.053-.257.159-.397.106-.14.218-.211.336-.211.15 0 .265.038.345.114.08.076.12.277.12.605l-.221 1.446c.578-1.337 1.223-2.005 1.933-2.005.619 0 .981.475 1.088 1.426.102.97.22 1.454.354 1.454l.202-.039.22-.046c.123 0 .184.075.184.224 0 .135-.084.279-.252.432a.906.906 0 0 1-.634.229.654.654 0 0 1-.634-.396h-.036zM4 0h32a4 4 0 0 1 4 4v20a4 4 0 0 1-4 4H4a4 4 0 0 1-4-4V4a4 4 0 0 1 4-4zm32 3H4a1 1 0 0 0-1 1v20a1 1 0 0 0 1 1h32a1 1 0 0 0 1-1V4a1 1 0 0 0-1-1z"/></svg>