<svg xmlns="http://www.w3.org/2000/svg" viewBox="0 0 38 38"><path d="M3.245 20.583H0v-3.166h3.245c.742-7.48 6.691-13.43 14.172-14.172V0h3.166v3.245c7.48.742 13.43 6.691 14.172 14.172H38v3.166h-3.245c-.742 7.48-6.691 13.43-14.172 14.172V38h-3.166v-3.245c-7.48-.742-13.43-6.691-14.172-14.172zm3.186-3.166H9.5v3.166H6.431A12.673 12.673 0 0 0 17.417 31.57V28.5h3.166v3.069A12.673 12.673 0 0 0 31.57 20.583H28.5v-3.166h3.069A12.673 12.673 0 0 0 20.583 6.43V9.5h-3.166V6.431A12.673 12.673 0 0 0 6.43 17.417z"/></svg>