<svg xmlns="http://www.w3.org/2000/svg" viewBox="0 0 42.134002685546875 39.5"><path d="M21.066 0a2.634 2.634 0 1 1 0 5.267 2.634 2.634 0 0 1 0-5.267zM39.5 7.9a2.634 2.634 0 1 1 0 5.267 2.634 2.634 0 0 1 0-5.267zm-36.867 0a2.634 2.634 0 1 1 0 5.267 2.634 2.634 0 0 1 0-5.267zm7.9 14.483l3.95 13.167H27.65l3.95-13.167c-6.584 0-10.534-6.583-10.534-6.583s-3.95 6.583-10.533 6.583zm10.533-15.8s3.95 21.067 17.117 7.9l-7.9 25.017H11.85c-3.073-7.9-7.9-25.017-7.9-25.017 13.166 13.167 17.116-7.9 17.116-7.9zM15.033 32.5l-.75-2h13.5l-.75 2h-12z"/></svg>