<svg xmlns="http://www.w3.org/2000/svg" viewBox="0 0 22.56399917602539 41.484004974365234"><path d="M13.414 41.484V36.32c3.034-.52 5.312-1.622 6.834-3.307 1.523-1.684 2.285-3.686 2.286-6.006.03-2.31-.61-4.233-1.918-5.767-1.308-1.535-3.467-2.828-6.477-3.881-2.238-.775-3.852-1.496-4.843-2.162-.99-.666-1.475-1.4-1.456-2.2-.023-.751.293-1.418.949-2.002.655-.585 1.793-.893 3.412-.925 1.977.037 3.575.26 4.793.668 1.218.409 2.129.785 2.732 1.13l1.478-5.744c-.83-.418-1.838-.785-3.026-1.101-1.189-.316-2.614-.506-4.276-.57V0H8.936v4.808c-2.8.535-4.936 1.602-6.408 3.2-1.472 1.6-2.213 3.553-2.224 5.861.039 2.454.86 4.41 2.463 5.87 1.603 1.459 3.753 2.633 6.452 3.521 1.899.626 3.336 1.287 4.31 1.983.975.696 1.464 1.523 1.468 2.482-.037 1.008-.549 1.789-1.537 2.342-.988.552-2.234.833-3.736.84-1.641-.02-3.163-.25-4.566-.686-1.404-.438-2.627-.962-3.672-1.572L0 34.566c.891.54 2.084 1.013 3.578 1.416 1.493.403 3.104.65 4.832.74v4.762h5.004z"/></svg>