<svg xmlns="http://www.w3.org/2000/svg" viewBox="0 0 28.5 39.013999938964844"><path d="M0 17.813v-4.75h19c.449-.312.792-1.584 1.267-2.89 0-1.831-.683-2.517-2.047-3.642-1.364-1.124-2.355-1.686-4.556-1.686-1.963 0-3.834.405-5.613 1.215-1.778.81-4.552 2.754-5.676 3.836V2.771C3.911 2.027 6.523 1.016 8.313.61 10.102.203 12.004 0 14.02 0c3.531 0 6.431 1.039 8.7 3.115 2.27 2.077 3.405 4.649 3.405 7.715 0 1.488.253 1.145-.396 2.233H28.5v4.75h-6.73c-.928.549-2.324 1.525-3.57 2.074-1.61.733-2.805.56-3.95 1.092H28.5v4.75H9.104c-.649.776-1.045 1.57-1.045 3.175 0 1.895.29 2.19 1.659 3.262 1.37 1.071 2.606 2.002 5.292 2.002 1.868 0 3.815-.441 5.839-1.325 2.024-.885 3.682-1.941 5.276-3.551v6.729c-1.636.818-2.876 1.594-4.734 2.153-1.858.56-4.106.84-6.745.84-2.222 0-4.073-.29-5.554-.871a12.737 12.737 0 0 1-3.978-2.478 10.651 10.651 0 0 1-2.442-3.33c-.578-1.242-.867-2.584-.867-4.025 0-1.092.27-1.689.57-2.58H0v-4.75h5.542c1.409-1.098 2.881-1.9 5.937-3.167H0z"/></svg>