<svg xmlns="http://www.w3.org/2000/svg" viewBox="0 0 24.389995574951172 41.49699401855469"><path d="M18.268 41.496v-6.121c2.53-.212 4.571-.656 6.122-1.331l-1.102-6.4c-1.53.656-3.55 1.014-6.061 1.073-2.214 0-4.102-.67-5.667-2.006-1.565-1.337-2.382-3.333-2.453-5.99.034-2.45.772-4.397 2.216-5.84 1.443-1.444 3.39-2.182 5.843-2.215 2.367.03 4.183.387 5.449 1.073l1.47-7.118a17.523 17.523 0 0 0-2.794-.803 18.014 18.014 0 0 0-3.023-.365V0h-6v5.93C8.24 6.788 5.191 8.6 3.12 11.369 1.05 14.137.01 17.354 0 21.019c.05 4.023 1.126 7.316 3.232 9.878 2.048 2.474 5.06 4.008 9.036 4.604v5.996h6z"/></svg>