<svg xmlns="http://www.w3.org/2000/svg" viewBox="0 0 29.513002395629883 38.11900329589844"><path d="M28.144 29.865c-.63.337-1.536.663-2.715.978-1.18.315-2.44.484-3.784.507-1.439.007-2.793-.221-4.061-.686a8.188 8.188 0 0 1-3.292-2.227c-.855-.962-1.482-2.294-1.881-3.998h14.308v-3.92H11.613v-.994c-.01-.673.01-1.315.057-1.927h15.049V13.68H12.525c.38-1.55.988-2.808 1.824-3.776.895-1.07 1.94-1.862 3.135-2.373a9.531 9.531 0 0 1 3.82-.762c1.27.018 2.462.17 3.576.457 1.114.286 2.05.598 2.808.936l1.596-6.47c-1.04-.465-2.295-.86-3.762-1.184C24.054.183 22.458.014 20.733 0c-2.719.013-5.185.523-7.4 1.53a16.168 16.168 0 0 0-5.681 4.28c-1.84 2.086-3.124 4.71-3.849 7.87H0v3.918h3.19l-.055 1.865v1.057H0v3.919h3.693c.539 3.02 1.58 5.49 3.123 7.406a15.398 15.398 0 0 0 5.957 4.664c2.383 1.066 4.998 1.603 7.847 1.61 1.846-.022 3.542-.24 5.088-.654 1.546-.414 2.814-.893 3.805-1.438l-1.368-6.162z"/></svg>