<svg xmlns="http://www.w3.org/2000/svg" viewBox="0 0 40 38.308475494384766"><path d="M20 4c6.382 0 11.833 3.986 14 9.604v10.792C31.833 30.014 26.382 34 20 34c-1.03 0-2.037-.104-3.009-.302a5 5 0 0 0-7.519-4.013A15.016 15.016 0 0 1 6 24.396V13.604C8.167 7.986 13.618 4 20 4zM5 14.5v9l-.116.757a16.02 16.02 0 0 0 4.502 6.715A4 4 0 1 1 8 34l.008-.261a19.05 19.05 0 0 1-5.68-7.745A2.5 2.5 0 0 1 0 23.5v-9a2.5 2.5 0 0 1 2.329-2.494C5.114 4.974 11.976 0 20 0s14.886 4.974 17.671 12.006A2.5 2.5 0 0 1 40 14.5v9a2.5 2.5 0 0 1-5 0v-9l.117-.757C32.942 7.49 26.995 3 20 3 13.005 3 7.058 7.49 4.884 13.743L5 14.5z"/></svg>