<svg xmlns="http://www.w3.org/2000/svg" viewBox="0 0 34 38"><path d="M17 0c9.389 0 17 2.015 17 4.504V6.5c0 2.485-7.611 4.5-17 4.5S0 8.985 0 6.5v-2C0 2.015 7.611 0 17 0zm17 33.5c0 2.485-7.611 4.5-17 4.5S0 35.985 0 33.5v-6C0 29.985 7.611 32 17 32c9.384 0 16.992-2.013 17-4.496V33.5zm0-9c0 2.485-7.611 4.5-17 4.5S0 26.985 0 24.5v-6C0 20.985 7.611 23 17 23c9.384 0 16.992-2.013 17-4.496V24.5zm0-9c0 2.485-7.611 4.5-17 4.5S0 17.985 0 15.5v-6C0 11.985 7.611 14 17 14c9.384 0 16.992-2.013 17-4.496V15.5z"/></svg>