<svg xmlns="http://www.w3.org/2000/svg" viewBox="0 0 27.70800018310547 35.62526321411133"><path d="M1.187 3.958h25.334c.874 0 1.187 3.563 1.187 3.563H0s.313-3.563 1.187-3.563zM11.479 0h4.75c.437 0 1.583 1.146 1.583 1.583 0 .437-1.146 1.583-1.583 1.583h-4.75c-.437 0-1.583-1.146-1.583-1.583C9.896 1.146 11.042 0 11.479 0zM3.562 8.708h20.584c.874 0 1.583.709 1.583 1.583l-1.583 23.75c0 .875-.71 1.584-1.584 1.584H5.146a1.583 1.583 0 0 1-1.584-1.584l-1.583-23.75c0-.874.709-1.583 1.583-1.583zm2.375 3.167l.396 20.583h2.771l-.396-20.583h-2.77zm6.334 0v20.583h3.166V11.875h-3.166zm6.729 0l-.396 20.583h2.77l.397-20.583H19z"/></svg>