<svg xmlns="http://www.w3.org/2000/svg" viewBox="0 0 38.005001068115234 38.008995056152344"><path d="M.001 14.256h9.501v3.167h1.584c1.583-1.056 4.75-2.112 6.51-4.267 1.76-2.155 3.695-5.41 5.542-7.258 1.845-1.845 3.602-2.286 5.36-2.725V0h9.5v9.502h-9.5V6.34c-1.721.439-3.441.88-5.275 2.725-1.837 1.848-3.787 5.103-5.565 7.258l-.979 1.1h11.826v-3.167h9.5v9.501h-9.5V20.59H16.678c.321.333.647.697.98 1.1 1.777 2.155 3.727 5.41 5.564 7.258 1.836 1.847 3.559 2.287 5.282 2.727v-3.167h9.5v9.501h-9.5v-3.167c-1.76-.44-3.52-.88-5.367-2.727-1.847-1.848-3.783-5.103-5.542-7.258-1.76-2.156-4.927-3.211-6.51-4.267H9.501v3.167H0v-9.501z"/></svg>