<svg xmlns="http://www.w3.org/2000/svg" viewBox="0 0 25.334003448486328 34.83356475830078"><path d="M1.584 0H4.75c.875 0 1.584.709 1.584 1.583V4.75c0 .874-.71 1.583-1.584 1.583H1.584A1.583 1.583 0 0 1 0 4.75V1.583C0 .709.71 0 1.584 0zm9.5 0h3.166c.875 0 1.584.709 1.584 1.583V4.75c0 .874-.71 1.583-1.584 1.583h-3.166A1.583 1.583 0 0 1 9.5 4.75V1.583C9.5.709 10.21 0 11.084 0zm-9.5 9.5H4.75c.875 0 1.584.709 1.584 1.583v3.167c0 .874-.71 1.583-1.584 1.583H1.584A1.583 1.583 0 0 1 0 14.25v-3.167C0 10.209.71 9.5 1.584 9.5zm0 9.5H4.75c.875 0 1.584.709 1.584 1.583v3.167c0 .874-.71 1.583-1.584 1.583H1.584A1.583 1.583 0 0 1 0 23.75v-3.167C0 19.709.71 19 1.584 19zm9.5-9.5h3.166c.875 0 1.584.709 1.584 1.583v3.167c0 .874-.71 1.583-1.584 1.583h-3.166A1.583 1.583 0 0 1 9.5 14.25v-3.167c0-.874.71-1.583 1.584-1.583zm0 9.5h3.166c.875 0 1.584.709 1.584 1.583v3.167c0 .874-.71 1.583-1.584 1.583h-3.166A1.583 1.583 0 0 1 9.5 23.75v-3.167c0-.874.71-1.583 1.584-1.583zm9.5-19h3.166c.875 0 1.584.709 1.584 1.583V4.75c0 .874-.71 1.583-1.584 1.583h-3.166A1.583 1.583 0 0 1 19 4.75V1.583C19 .709 19.71 0 20.584 0zm0 9.5h3.166c.875 0 1.584.709 1.584 1.583v3.167c0 .874-.71 1.583-1.584 1.583h-3.166A1.583 1.583 0 0 1 19 14.25v-3.167c0-.874.71-1.583 1.584-1.583zm0 9.5h3.166c.875 0 1.584.709 1.584 1.583v3.167c0 .874-.71 1.583-1.584 1.583h-3.166A1.583 1.583 0 0 1 19 23.75v-3.167c0-.874.71-1.583 1.584-1.583zm-9.5 9.5h3.166c.875 0 1.584.709 1.584 1.583v3.167c0 .874-.71 1.583-1.584 1.583h-3.166A1.583 1.583 0 0 1 9.5 33.25v-3.167c0-.874.71-1.583 1.584-1.583z"/></svg>