<svg xmlns="http://www.w3.org/2000/svg" viewBox="0 0 36.27178955078125 36.27229309082031"><path d="M7.743 9.982L.619 2.858A1.584 1.584 0 1 1 2.858.618l7.124 7.125c4.342-3.254 10.527-2.908 14.476 1.04L8.783 24.46C4.835 20.51 4.489 14.325 7.743 9.983zm20.14 2.228c3.95 3.948 4.296 10.134 1.04 14.475l6.73 6.73a1.583 1.583 0 1 1-2.24 2.238l-6.727-6.727c-4.34 3.254-10.527 2.907-14.475-1.04l3.359-3.36-2.8-2.798a2.376 2.376 0 1 1 3.36-3.36l2.799 2.8 2.239-2.24-2.8-2.798a2.376 2.376 0 1 1 3.36-3.36l2.799 2.8 3.358-3.359z"/></svg>