<svg xmlns="http://www.w3.org/2000/svg" viewBox="0 0 49.970001220703125 46.54399871826172"><path d="M4.75 46.544c-4.75 0 1.584-5.542 1.584-5.542L9.5 33.877l6.334 6.333L9.5 43.377h20.584l3.166 3.167H4.75zm15.834-7.917h-3.167l-6.333-6.333v-3.167l9.5 9.5zm-2.625-13.708c-2.043 2.334-2.733 4.236-3.313 5.395l-1.583-1.583s-1.98-1.187 2.77-5.937l2.126 2.125zm3.02 11.729l-5.145-5.146c.917-1.606 1.509-3.478 3.203-5.505l7.88 7.88s-4.354 4.354-5.938 2.77zm-.478-12.354c6.705-7.61 17.325-16.457 23.772-22.088A35.044 35.044 0 0 1 49.97 8.14L28.5 32.294l-8-8zM41.278 0l1.476 1.026c-6.528 5.897-16.972 15.246-23.303 22.22l-2.035-2.036L41.278 0z"/></svg>