<svg xmlns="http://www.w3.org/2000/svg" viewBox="0 0 50.11900329589844 49.957000732421875"><path d="M46.695 9.324c-6.717 6.717-.792 12.643-3.03 14.882l-8.958 8.957-1.12-1.12-13.434 17.914c-3.732-2.986-4.478-2.24-11.196-8.957C2.24 34.282 2.986 33.536 0 29.804l17.914-13.435-1.12-1.12 8.957-8.956c2.239-2.24 8.56 3.686 15.278-3.031.78-.78 1.763-1.94 2.812-3.262a35.04 35.04 0 0 1 6.278 6.325c-1.389 1.132-2.612 2.187-3.424 2.999zm-27.102 8.724L3.359 30.364s5.598-1.68 5.598.56c0 2.239-1.12 3.358 1.12 3.358 2.239 0 5.038-1.679 5.038.56 0 2.24-2.52 2.52-.28 4.758 2.239 2.24 6.438-4.198 6.717-2.239 0 2.24-1.12 5.598 0 6.718l10.356-13.715-.56-.56-4.478 4.478 3.36-5.598-1.12-1.12-6.438 4.2 5.318-5.319-2.24-2.239-7.276 7.277 6.157-8.396-1.12-1.12-4.198 4.758 3.08-5.878-1.12-1.12-4.479 2.24 3.359-3.359-.56-.56zm1.678-2.82l1.187-.396s2.77-3.166 5.938-4.75c3.166-1.583 2.77-.395 7.52-.395s10.292-7.521 10.292-7.521H45.02s-3.562 4.75-6.728 6.333c-3.166 1.583-5.541 0-8.708 0s-8.313 6.73-8.313 6.73z"/></svg>