<svg xmlns="http://www.w3.org/2000/svg" viewBox="0 0 38 45.33300018310547"><path d="M5 6.333h25l.083 6.917A7.917 7.917 0 0 1 38 21.166v7.917A7.917 7.917 0 0 1 30.083 37L30 45.333H5v-39zm25 26c1.749 0 4-2.251 4-4v-6c0-1.749-2.251-5-4-5v15zm-22-23v2h19v-2H8zm19 33v-2H8v2h19zm-15.5-28c-.874 0-1.5 1.125-1.5 2v19c0 .874.625 2 1.5 2 .874 0 1.5-1.126 1.5-2v-19c0-.875-.625-2-1.5-2zm6 0c-.874 0-1.5 1.125-1.5 2v19c0 .874.626 2 1.5 2s1.5-1.042 1.5-1.917V16.333c0-.875-.626-2-1.5-2zm6 0c-.874 0-1.5 1.125-1.5 2v19c0 .874.626 2 1.5 2s1.5-1.126 1.5-2v-19c0-.875-.626-2-1.5-2zM4.75 3.563C6 3.333 12.667 0 14.25 1.583c1.583 1.583 3.167 1.583 4.75 1.583 1.583 0 3.167-1.583 6.333-1.583 1.584 0 4.75.792 4.75 2.375-.083 3.375-1.187 1.188-1.187 1.188s-.792-1.584-3.959-1.584c-3.166 0-4.354 1.584-5.937 1.584-1.583 0-4.354-1.584-7.52-1.584-3.168 0-3.605 1.604-5.543 1.188C4 4.333 2 6.333 2.771 8.312c1.229 2.021.396 3.303.396 5.542 0 .396-.417.354-.792-1.584C2 10.333 0 9.501 0 7.917c0-1.583.167-1.75 1.583-3.166C3 3.333 3.5 3.791 4.75 3.562z"/></svg>