<svg xmlns="http://www.w3.org/2000/svg" viewBox="0 0 22.166000366210938 38"><path d="M16.625 35.625l.791-.791H4.75l.791.791h11.084zm-5.542-18.604c1.749 0 2.77-1.376 2.77-3.562 0-2.187-1.021-3.563-2.77-3.563s-2.77 1.377-2.77 3.563 1.021 3.562 2.77 3.562zm0-12.27H19c0-1.584-1.188-3.167-1.188-3.167H4.353S3.166 3.167 3.166 4.75h7.917zm0-4.75h9.5c1.583 3.166 1.583 7.916 1.583 9.5 0 12.666-3.166 12.666-3.562 19L19 36.417C19 38 17.416 38 17.416 38H4.75s-1.584 0-1.584-1.583l.396-7.917C3.166 22.167 0 22.167 0 9.5 0 7.917 0 3.167 1.583 0h9.5zm7.125 12.666h-1.583c-.438 0-1.188.354-1.188.792 0 .437.75.791 1.188.791h1.583a.792.792 0 1 0 0-1.583zm-14.25 0a.792.792 0 1 0 0 1.583h1.583c.438 0 1.188-.354 1.188-.791 0-.438-.75-.792-1.188-.792H3.958z"/></svg>