<svg xmlns="http://www.w3.org/2000/svg" viewBox="0 0 46.70899963378906 30.08300018310547"><path d="M39.981 0h5.145c.874 0 1.583.709 1.583 1.583l-3.958 19.792c0 .874-.709 1.583-1.583 1.583h-1.98a1.583 1.583 0 0 1-1.583-1.583l.792-19.792C38.397.709 39.106 0 39.98 0zm0 30.083h-2.376a1.583 1.583 0 0 1-1.583-1.583l.396-1.583c0-.875.709-1.584 1.583-1.584h2.375c.874 0 1.583.71 1.583 1.584l-.395 1.583c0 .874-.71 1.583-1.584 1.583zM17.417 0c9.619 0 17.416 6.734 17.416 15.042 0 8.307-7.797 15.041-17.416 15.041C7.797 30.083 0 23.349 0 15.042 0 6.734 7.798 0 17.417 0zm-3.959 22.958v2.375h9.5v-2.375h-3.166V19l5.937-7.125h1.98V9.5h-7.917v2.375h2.77l-4.104 4.378L13.854 9.5h2.771V7.125H8.708V9.5h1.98l5.937 9.5v3.958h-3.167z"/></svg>