<svg xmlns="http://www.w3.org/2000/svg" viewBox="0 0 52.246002197265625 52.246002197265625"><path d="M26.123 21.277a4.846 4.846 0 1 1 0 9.692 4.846 4.846 0 0 1 0-9.692zm0-8.077c11.308 0 21 8.077 21 12.923s-9.692 12.923-21 12.923-21-8.077-21-12.923 9.692-12.923 21-12.923zm0 4.038a8.885 8.885 0 1 0 0 17.77 8.885 8.885 0 0 0 0-17.77zM12.37 37.048a30.71 30.71 0 0 0 3.909 1.748l-13.45 13.45A35.21 35.21 0 0 1 0 49.417l12.37-12.369zm27.506-21.85a30.71 30.71 0 0 0-3.909-1.748L49.417 0c.996.889 1.94 1.833 2.829 2.829l-12.37 12.37z"/></svg>