<svg xmlns="http://www.w3.org/2000/svg" viewBox="0 0 38 47.500999450683594"><path d="M0 0h38v38H0V0zm7.917 4.75v12.666h22.166V4.75H7.917zm0 15.833V33.25h22.166V20.583H7.917zM3.958 3.166a2.375 2.375 0 1 0 0 4.75 2.375 2.375 0 0 0 0-4.75zm0 26.917a2.375 2.375 0 1 0 0 4.75 2.375 2.375 0 0 0 0-4.75zm0-6.73a2.375 2.375 0 1 0 0 4.75 2.375 2.375 0 0 0 0-4.75zm0-6.728a2.375 2.375 0 1 0 0 4.75 2.375 2.375 0 0 0 0-4.75zm0-6.73a2.375 2.375 0 1 0 0 4.75 2.375 2.375 0 0 0 0-4.75zm30.084-6.729a2.375 2.375 0 1 0 0 4.75 2.375 2.375 0 0 0 0-4.75zm0 26.917a2.375 2.375 0 1 0 0 4.75 2.375 2.375 0 0 0 0-4.75zm0-6.73a2.375 2.375 0 1 0 0 4.75 2.375 2.375 0 0 0 0-4.75zm0-6.728a2.375 2.375 0 1 0 0 4.75 2.375 2.375 0 0 0 0-4.75zm0-6.73a2.375 2.375 0 1 0 0 4.75 2.375 2.375 0 0 0 0-4.75zM28.5 41.167a3.167 3.167 0 1 1 0 6.334 3.167 3.167 0 0 1 0-6.334zm-9.5 0a3.167 3.167 0 1 1 0 6.334 3.167 3.167 0 0 1 0-6.334zm-9.5 0a3.167 3.167 0 1 1 0 6.334 3.167 3.167 0 0 1 0-6.334z"/></svg>