<svg xmlns="http://www.w3.org/2000/svg" viewBox="0 0 38 38"><path d="M0 0h38v38H0V0zm7.917 4.75v12.667h22.166V4.75H7.917zm0 15.833V33.25h22.166V20.583H7.917zM3.958 3.167a2.375 2.375 0 1 0 0 4.75 2.375 2.375 0 0 0 0-4.75zm0 26.916a2.375 2.375 0 1 0 0 4.75 2.375 2.375 0 0 0 0-4.75zm0-6.729a2.375 2.375 0 1 0 0 4.75 2.375 2.375 0 0 0 0-4.75zm0-6.729a2.375 2.375 0 1 0 0 4.75 2.375 2.375 0 0 0 0-4.75zm0-6.73a2.375 2.375 0 1 0 0 4.75 2.375 2.375 0 0 0 0-4.75zm30.084-6.728a2.375 2.375 0 1 0 0 4.75 2.375 2.375 0 0 0 0-4.75zm0 26.916a2.375 2.375 0 1 0 0 4.75 2.375 2.375 0 0 0 0-4.75zm0-6.729a2.375 2.375 0 1 0 0 4.75 2.375 2.375 0 0 0 0-4.75zm0-6.729a2.375 2.375 0 1 0 0 4.75 2.375 2.375 0 0 0 0-4.75zm0-6.73a2.375 2.375 0 1 0 0 4.75 2.375 2.375 0 0 0 0-4.75z"/></svg>