<svg xmlns="http://www.w3.org/2000/svg" viewBox="0 0 50.67399597167969 34.56500244140625"><path d="M6.334 18.729l.016.018c.118-2.333.923-4.528 2.261-6.464-2.685-3.444-2.63-7.978.124-10.13 2.757-2.153 7.174-1.106 9.866 2.34l.557.788a23.805 23.805 0 0 1 6.179-.804c2.163 0 4.242.283 6.179.804l.556-.788c2.693-3.446 7.11-4.493 9.867-2.34 2.754 2.152 2.808 6.686.123 10.13 1.338 1.936 2.144 4.131 2.262 6.464l.016-.018s0 4.75 6.334 11.085c-4.75 0-6.334-1.584-6.334-1.584s1.583 1.584 3.167 4.751c-1.584 0-3.167-1.584-3.167-1.584v1.584l-3.168-1.584v3.168l-3.167-3.168v3.168l-1.954-2.932c-3.05 1.633-6.74 2.587-10.714 2.587s-7.664-.955-10.714-2.587l-1.955 2.932v-3.168l-3.167 3.168v-3.168l-3.167 1.584v-1.584s-1.583 1.584-3.167 1.584c1.584-3.167 3.167-4.75 3.167-4.75S4.751 29.814 0 29.814c6.334-6.334 6.334-11.085 6.334-11.085zm4.351-14.08c-1.265.988-1.207 3.216.059 5.174 1.48-1.388 3.278-2.56 5.305-3.451-1.615-2.015-4.002-2.787-5.364-1.723zm29.303 0c-1.362-1.064-3.748-.292-5.363 1.723 2.027.89 3.824 2.063 5.305 3.45 1.266-1.957 1.323-4.185.058-5.173zm-22.569 9.33a3.167 3.167 0 1 0 0 6.334 3.167 3.167 0 0 0 0-6.334zm15.836 0a3.167 3.167 0 1 0 0 6.334 3.167 3.167 0 0 0 0-6.334zm-7.918 11.084s-3.167 0-3.167.792c0 3.061 1.418 5.542 3.167 5.542 1.749 0 3.167-2.48 3.167-5.542 0-.792-3.167-.792-3.167-.792zm0-4.75a1.584 1.584 0 1 0 0 3.167 1.584 1.584 0 0 0 0-3.167z"/></svg>