<svg xmlns="http://www.w3.org/2000/svg" viewBox="0 0 38.84299850463867 28.999000549316406"><path d="M31.5 11a3.5 3.5 0 1 1 0 7 3.5 3.5 0 0 1 0-7zm2.5 8s3.638 0 4.843 7.807a9.248 9.248 0 0 1-1.87 1.098c-.086-1.19-.447-3.88-1.973-5.405v6.08c-.989.247-1.839.393-3.5.417v.002c-1.766-.017-2.638-.164-3.657-.42V22.5c-1.526 1.526-1.888 4.215-1.974 5.405A9.246 9.246 0 0 1 24 26.807C25.204 19 28.843 19 28.843 19H34zM0 6h35v5.671a4.5 4.5 0 1 0-6.398 6.272c-3.757-.328-5.472 5.634-6.113 8.057H0V6zm31-2H16c1-3 2.5-4 2.5-4h11.25C30.302 0 31 .698 31 1.25V4z"/></svg>