<svg xmlns="http://www.w3.org/2000/svg" viewBox="0 0 30.575462341308594 40.60326385498047"><path d="M20.22.154a12.642 12.642 0 0 1 8.753 6.46L23.32 9.479a6.344 6.344 0 0 0-2.303-2.35L19.831.084l.388.07zm10.016 14.85l-.25.758a3.168 3.168 0 0 1-6.02-1.17l.053-.796c.054-.279-.149-1.41-.132-1.685l6.058-3.07c.356 1.634.63 4.218.29 5.963zM12.896 8.58L8.623 3.856A12.698 12.698 0 0 1 16.357 0l1.352 6.253a6.343 6.343 0 0 0-4.813 2.327zm-1.31 2.799l-1.058 5.44-5.462-5.094.302-1.555a12.635 12.635 0 0 1 1.68-4.28l4.622 5.111-.085.378zm-2.569 13.21l-5.462-5.093.907-4.663 5.461 5.094-.906 4.663zM6.45 37.801a3.167 3.167 0 1 1-6.217-1.209l1.133-5.828 5.462 5.094-.378 1.943zM2.951 22.604l5.462 5.094-.982 5.052-5.462-5.094.982-5.052z"/></svg>