<svg xmlns="http://www.w3.org/2000/svg" viewBox="0 0 25.132999420166016 40.5"><path d="M18.5 0C19.88 0 21 1.79 21 4s-1.12 4-2.5 4S16 6.21 16 4s1.12-4 2.5-4zm-5.25 1.25c.828 0 1.5 1.12 1.5 2.5s-.672 2.5-1.5 2.5-1.5-1.12-1.5-2.5.672-2.5 1.5-2.5zM9 2.5c.828 0 1.5.895 1.5 2s-.672 2-1.5 2-1.5-.895-1.5-2 .672-2 1.5-2zM5.5 4.75c.828 0 1.5.895 1.5 2s-.672 2-1.5 2-1.5-.895-1.5-2 .672-2 1.5-2zm-2.75 3.5c.552 0 1 .672 1 1.5s-.448 1.5-1 1.5-1-.672-1-1.5.448-1.5 1-1.5zM8 9c9-4.5 15.243 3.809 8 12.5-5 6 9.133 15.543 0 17.5-7 1.5-4.807-7.602-7-11.5C0 11.5 8 9 8 9z"/></svg>