<svg xmlns="http://www.w3.org/2000/svg" viewBox="0 0 39.57921600341797 13.253999710083008"><path d="M1.654 13.254c-.47 0-.863-.145-1.177-.435a1.396 1.396 0 0 1-.47-1.067c0-.436.16-.792.483-1.07.323-.276.726-.415 1.21-.415.488 0 .888.14 1.2.421.31.281.466.636.466 1.064 0 .439-.159.8-.476 1.08-.317.281-.729.422-1.236.422zm15.712-.187h-2.993l-5.352-8.21a12.67 12.67 0 0 1-.653-1.085h-.035c.048.46.073 1.165.073 2.114v7.181h-2.8V0h3.19l5.154 7.954c.236.36.453.716.654 1.068h.035c-.049-.304-.073-.902-.073-1.794V0h2.8v13.067zm10.826 0h-7.84V0h7.467v2.427h-4.48v2.8h4.293v2.427H23.34v2.986h4.853v2.427zM39.58 2.427h-3.733v10.64H32.86V2.427h-3.733V0H39.58v2.427z"/></svg>