<svg xmlns="http://www.w3.org/2000/svg" viewBox="0 0 34.178001403808594 42"><path d="M19.25 0s5.25 2.75 6.25 6.75c0 0 .75-3.75-.25-5.75 2.982.994 8.928 13.843.162 14.98.303 1.003.962 1.332 1.338 1.52 1.716.858.303 1.9-.133 2.179.99.637 1.633 1.663 1.633 2.821 0 1.203-.694 2.264-1.75 2.894.852.07 1.75.423 1.75 1.606 0 1.025-.613 1.583-1.42 1.874L30 33.75c-.82 1.524-4.17 1.399-7.495.836.147.36.062.847-.505 1.414 0 0-2.75 1-3.75 4 0 0-6 2-9-1 0 0 2-6.75 1-10.75 0 0-2.518-.21-3.325-3.321-1.112-.288-4.714-1.61-4.925-6.679 0 0 0-4.5 2-5.5 0 0-3-1.75-4-2.75h5S3.25 6.5 3.25 5.5c0 0 2.75 3 3.75 3C7 8.5 10.25 2 20.25 7c0 0 0-5-1-7zm-9 12.25s2 1 3 4c0 0-2-1-3-1 0 0 3 4.75 2 9.75 0 0-1-2.5-3-2.5-1.363 0-1.797 1.162-1.936 1.901.208 1.08.993 3.913 3.436 3.099 0 0 .5 8.5-1 11.25 0 0 3 2.75 8 .75 0 0 2-3 4-4 0 0 .3-.45.261-1C18.418 33.846 15 32.75 15 32.75l-.75 1-.5-.25 2-2.75.5.5-.75 1c13 4 13.75 1.5 13.75 1.5l-2.981-4.72C24.781 29.34 23 29 23 29v-.5c2 0 4.75.5 4.75-1.5 0-1.323-1.312-1.333-2.201-1.189l-.642.142-.157.047-2.712-2.712A4.002 4.002 0 0 1 14.25 22a4 4 0 0 1 7.378-2.143A4.33 4.33 0 0 1 24.25 19c.701 0 1.36.158 1.933.435.749-.233 1.127-1.05.067-1.685-.965-.482-1.348-1.314-1.486-2.045-1.597-.92-7.014-3.663-14.514-3.455zm15 9.25a1 1 0 1 1 0 2 1 1 0 0 1 0-2zm-6-.5a1 1 0 1 1 0 2 1 1 0 0 1 0-2zm8.5 1.5c0-1.657-1.567-3-3.5-3-.918 0-1.754.303-2.379.8.243.515.379 1.092.379 1.7l-.03.489 2.725 2.952c1.6-.277 2.805-1.488 2.805-2.941zm-9.5-4a3.5 3.5 0 1 0 0 7 3.5 3.5 0 0 0 0-7zm-8 6.5s-2.5-2-.5 1l-.25.25S6.25 22 11 24.5l-.75.5z"/></svg>