<svg xmlns="http://www.w3.org/2000/svg" viewBox="0 0 39.979000091552734 44.33399963378906"><path d="M23.75 3.167v12.498c1.833-.12 6.168 1.29 5.542 17.585.791 4.75 6.333 4.75 7.52-1.583 1.188-4.75-1.979-4.75-3.562-19 0-1.583 0-6.333-6.333-9.5V1.584C33.25 1.584 38 9.5 38 11.084c0 1.583-1.583 1.583-1.583 1.583s.395 9.5 1.979 11.083c1.583 1.584 1.187 6.334 1.187 9.5 0 3.167-4.75 6.334-6.333 6.334-1.583 0-6.333 0-6.333-4.75 0-4.327-.657-13.907-3.167-15.582v20.332c.874 0 1.583.709 1.583 1.583v3.167H0v-3.167c0-.874.709-1.583 1.583-1.583V3.167A3.167 3.167 0 0 1 4.75 0h15.833a3.167 3.167 0 0 1 3.167 3.167zM6.73 17.417h11.874c.875 0 1.98-1.105 1.98-1.98V5.147c0-.875-1.105-1.98-1.98-1.98H6.73c-.874 0-1.979 1.105-1.979 1.98v10.29c0 .875 1.105 1.98 1.98 1.98z"/></svg>