<svg xmlns="http://www.w3.org/2000/svg" viewBox="0 0 40 26.299251556396484"><path d="M20 18a4 4 0 1 1-2.06 7.43L12 22l5.94-3.43A3.982 3.982 0 0 1 20 18zm0-18c11.046 0 20 8.954 20 20v3H30v-3c0-5.523-4.477-10-10-10s-10 4.477-10 10v3H0v-3C0 8.954 8.954 0 20 0zm17 20c0-4.329-1.618-8.28-4.282-11.281l-2.835 2.835A12.95 12.95 0 0 1 33 20h4zM8.716 7.285l2.835 2.835a12.945 12.945 0 0 1 7.426-3.08V3.03A16.931 16.931 0 0 0 8.716 7.285zm19.754 2.853l2.835-2.835a16.931 16.931 0 0 0-10.328-4.275v4.008a12.944 12.944 0 0 1 7.493 3.102zM3 20h4c0-3.234 1.181-6.193 3.135-8.467L7.301 8.698A16.936 16.936 0 0 0 3 20z"/></svg>