<svg xmlns="http://www.w3.org/2000/svg" viewBox="0 0 27.70800018310547 38"><path d="M1.187 26.917h9.5V38h-9.5V26.917zm15.834 0h9.5V38h-9.5V26.917zm-5.542-11.084l-.792 9.105H0l.396-9.105h11.083zm5.542 9.105l-.792-9.105h11.083l.396 9.105H17.021zM5.937 4.75l3.959 1.188-.792-2.771c0-1.75 2.21-3.167 3.958-3.167h1.584c1.749 0 3.958 1.418 3.958 3.167l-.792 2.77 3.959-1.187a3.167 3.167 0 0 1 3.166 3.167v2.375a3.167 3.167 0 0 1-3.166 3.166H5.937a3.167 3.167 0 0 1-3.166-3.166V7.917A3.167 3.167 0 0 1 5.937 4.75zm1.584 3.167a1.583 1.583 0 1 0 0 3.166h1.583c.874 0 1.583.083 1.583-.791L9.104 7.917H7.521zm12.666 0h-1.583l-1.583 2.375c0 .874.709.791 1.583.791h1.583a1.583 1.583 0 1 0 0-3.166zm-6.333-5.542c-.874 0-1.583 1.5-1.583 2.375v1.188c0 .874.709 1.979 1.583 1.979s1.583-1.105 1.583-1.98V4.75c0-.874-.709-2.375-1.583-2.375z"/></svg>