<svg xmlns="http://www.w3.org/2000/svg" viewBox="0 0 44.33399963378906 44.33399963378906"><path d="M22.167 0c12.242 0 22.167 9.925 22.167 22.167s-9.925 22.167-22.167 22.167S0 34.409 0 22.167 9.925 0 22.167 0zM3.232 20.584h6.3a36.16 36.16 0 0 1 1.053-7.406 24.868 24.868 0 0 1-4.046-1.82 18.894 18.894 0 0 0-3.307 9.226zm10.99-15.68a19.046 19.046 0 0 0-5.726 4.069c.907.47 1.91.893 2.994 1.262.741-2.026 1.665-3.827 2.731-5.332zm6.362 15.68V15.01c-2.47-.1-4.83-.43-7.01-.955a34.726 34.726 0 0 0-.875 6.529h7.885zm0-17.154c-2.515.843-4.694 3.662-6.126 7.63 1.898.423 3.96.694 6.126.783V3.43zm20.518 17.154a18.894 18.894 0 0 0-3.307-9.226 24.872 24.872 0 0 1-4.046 1.82 36.16 36.16 0 0 1 1.053 7.406h6.3zm-10.99-15.68c1.067 1.504 1.99 3.305 2.732 5.33a21.78 21.78 0 0 0 2.994-1.261 19.046 19.046 0 0 0-5.725-4.07zm-6.362 15.68h7.884c-.095-2.32-.4-4.52-.874-6.529-2.18.525-4.54.856-7.01.955v5.574zm0-17.154v8.413a35 35 0 0 0 6.126-.782c-1.432-3.969-3.612-6.788-6.126-7.631zm17.352 20.32h-6.3a36.128 36.128 0 0 1-1.053 7.406 24.872 24.872 0 0 1 4.046 1.82 18.894 18.894 0 0 0 3.307-9.226zm-10.99 15.68a19.048 19.048 0 0 0 5.726-4.069c-.907-.47-1.91-.893-2.994-1.262-.741 2.026-1.665 3.827-2.731 5.332zM23.75 23.75v5.574c2.47.1 4.83.43 7.01.955a34.66 34.66 0 0 0 .874-6.529H23.75zm0 17.154c2.514-.843 4.694-3.662 6.126-7.63a35.002 35.002 0 0 0-6.126-.783v8.413zM3.232 23.75a18.894 18.894 0 0 0 3.307 9.226 24.868 24.868 0 0 1 4.046-1.82 36.121 36.121 0 0 1-1.053-7.406h-6.3zm10.99 15.68c-1.067-1.504-1.99-3.305-2.732-5.33a21.767 21.767 0 0 0-2.994 1.261 19.047 19.047 0 0 0 5.725 4.07zm6.362-15.68h-7.885c.096 2.32.4 4.52.875 6.529 2.18-.525 4.54-.856 7.01-.955V23.75zm0 17.154v-8.413a35 35 0 0 0-6.126.782c1.432 3.969 3.611 6.788 6.126 7.631z"/></svg>