<svg xmlns="http://www.w3.org/2000/svg" viewBox="0 0 23.750995635986328 38"><path d="M23.75 30.084c0 4.372-5.316 7.916-11.875 7.916C5.317 38 0 34.456 0 30.084c0-4.202 4.911-7.64 11.116-7.901l.364-.016c1.583 0 1.187-1.583-1.372-4.93-3.962-.816-7.337-3.137-7.337-7.34 0-4.56 3.899-9.488 8.36-9.865L11.084 0H23.75s-3.57 1.785-5.014 3.345c1.848 1.405 3.035 2.945 3.035 4.968 0 3.601-2.82 6.59-5.937 7.916-1.032 3.33 3.166 5.938 5.897 9.437 1.275 1.261 2.02 2.782 2.02 4.418zm-12.666-5.147c-5.247 0-6.334 2.877-6.334 5.937 0 2.375 3.167 3.563 7.125 3.563 5.247 0 8.313-1.294 8.313-4.354s-2.771-4.75-9.104-5.146zm0-22.563c-3.498 0-3.959 2.836-3.959 6.334 0 3.497 1.648 6.333 5.146 6.333s4.354-2.836 4.354-6.333c0-3.498-2.044-6.334-5.541-6.334z"/></svg>