<svg xmlns="http://www.w3.org/2000/svg" viewBox="0 0 55.41699981689453 55.41699981689453"><path d="M23.75 19h3.167v3.167H23.75V19zM19 26.917V23.75h3.167v3.167H19zM19 19h3.167v3.167H19V19zm9.5 0h3.167v3.167H28.5V19zM19 28.5h3.167v3.167H19V28.5zm0 4.75h3.167v3.167H19V33.25zm4.75 0h3.167v3.167H23.75V33.25zm4.75 0h3.167v3.167H28.5V33.25zm4.75 0h3.167v3.167H33.25V33.25zm0-4.75h3.167v3.167H33.25V28.5zm0-4.75h3.167v3.167H33.25V23.75zm0-4.75h3.167v3.167H33.25V19zm-19 0h3.167v3.167H14.25V19zM9.5 19h3.167v3.167H9.5V19zm-4.75 0h3.167v3.167H4.75V19zm9.5 14.25h3.167v3.167H14.25V33.25zm-4.75 0h3.167v3.167H9.5V33.25zm-4.75 0h3.167v3.167H4.75V33.25zm0-9.5h3.167v3.167H4.75V23.75zm0 4.75h3.167v3.167H4.75V28.5zM38 19h3.167v3.167H38V19zm4.75 0h3.167v3.167H42.75V19zM38 33.25h3.167v3.167H38V33.25zm4.75 0h3.167v3.167H42.75V33.25zm4.75 0h3.167v3.167H47.5V33.25zm0-4.75h3.167v3.167H47.5V28.5zm0-4.75h3.167v3.167H47.5V23.75zm0-4.75h3.167v3.167H47.5V19zM0 19h3.167v3.167H0V19zm0 14.25h3.167v3.167H0V33.25zM23.75 47.5h3.167v3.167H23.75V47.5zm4.75 0h3.167v3.167H28.5V47.5zm4.75 0h3.167v3.167H33.25V47.5zm0-4.75h3.167v3.167H33.25V42.75zm0-4.75h3.167v3.167H33.25V38zM38 47.5h3.167v3.167H38V47.5zm4.75 0h3.167v3.167H42.75V47.5zm4.75-4.75h3.167v3.167H47.5V42.75zm0-4.75h3.167v3.167H47.5V38zm-38 9.5h3.167v3.167H9.5V47.5zm4.75 0h3.167v3.167H14.25V47.5zm4.75 0h3.167v3.167H19V47.5zm0-4.75h3.167v3.167H19V42.75zM19 38h3.167v3.167H19V38zm4.75-33.25h3.167v3.167H23.75V4.75zM19 12.667V9.5h3.167v3.167H19zm0-7.917h3.167v3.167H19V4.75zm9.5 0h3.167v3.167H28.5V4.75zm-9.5 9.5h3.167v3.167H19V14.25zm14.25 0h3.167v3.167H33.25V14.25zm0-4.75h3.167v3.167H33.25V9.5zm0-4.75h3.167v3.167H33.25V4.75zm-19 0h3.167v3.167H14.25V4.75zM4.75 9.5h3.167v3.167H4.75V9.5zm0 4.75h3.167v3.167H4.75V14.25zM38 4.75h3.167v3.167H38V4.75zm9.5 9.5h3.167v3.167H47.5V14.25zm4.75 19h3.167v3.167H52.25V33.25zM33.25 0h3.167v3.167H33.25V0zm0 52.25h3.167v3.167H33.25V52.25zM19 0h3.167v3.167H19V0zm0 52.25h3.167v3.167H19V52.25zm-14.25-9.5h3.167v3.167H4.75V42.75zm0-4.75h3.167v3.167H4.75V38zm47.5-19h3.167v3.167H52.25V19z"/></svg>