<svg xmlns="http://www.w3.org/2000/svg" viewBox="0 0 50.6660041809082 44.83000183105469"><path d="M3.166 30.275l3.36-3.359 5.597 5.598 5.598-5.598 3.359 3.36-5.598 5.597 5.598 5.598-3.36 3.359-5.597-5.598-5.598 5.598-3.359-3.36 5.598-5.597-5.598-5.598zM25.333 9.5c4.618 0 6.597 2.638 5.931 8.177a1.978 1.978 0 0 1-.426 3.618c-.343 1.224-.876 2.307-1.547 3.174v4.163c2.2.44 3.959.66 6.598 1.979 2.638 1.32 3.518 2.529 5.277 4.288v6.267h-18.01l-5.294-5.293 5.598-5.598-2.085-2.085v-3.721c-.67-.867-1.204-1.95-1.547-3.174a1.98 1.98 0 0 1-.426-3.618c-.666-5.539 1.313-8.177 5.931-8.177zM0 31.666v-6.267c1.759-1.76 2.639-2.969 5.277-4.288 2.64-1.32 4.399-1.54 6.598-1.98v-4.162c-.67-.867-1.204-1.95-1.547-3.174a1.98 1.98 0 0 1-.426-3.617C9.236 2.638 11.215 0 15.833 0c4.331 0 6.341 3.509 6.025 8.367C19 9.5 17.416 11.083 17.423 15.698a1.979 1.979 0 0 0-.996 1.718c0 .9.204 2.055 1.026 2.296.343 1.224.876 2.307 1.547 3.173v2.93l-1.274-1.274-5.23 5.23-.49.246-5.476-5.476-5.734 5.734 1.392 1.391H0zm37.472-2.243c-2.639-1.32-3.607-1.54-5.806-1.979v-4.559c.67-.866 1.204-1.95 1.547-3.173.822-.24 1.026-1.396 1.026-2.296 0-.735-.4-1.376-.996-1.718.007-4.615-1.577-6.198-4.435-7.33C28.491 3.508 30.502 0 34.833 0c4.618 0 6.597 2.639 5.931 8.177a1.978 1.978 0 0 1-.426 3.618c-.343 1.224-.876 2.307-1.547 3.174v4.163c2.2.44 3.959.66 6.598 1.979 2.638 1.32 3.518 2.529 5.277 4.288v6.267h-9.942c-1.273-1.318-1.064-1.149-3.252-2.243z"/></svg>