<svg xmlns="http://www.w3.org/2000/svg" viewBox="0 0 38 37.23099899291992"><path d="M18.75 0h.5S38 0 38 20c0 9-2 12-3 13 0 0-3 2-2-.75 0-2.314 1-7.25 1-7.25s1 0 1-5c0-6-4-16.5-15-16.5h-2C7 3.5 3 14 3 20c0 5 1 5 1 5s1 4.936 1 7.25C6 35 3 33 3 33c-1-1-3-4-3-13C0 0 18.75 0 18.75 0zM7.553 20.166a3 3 0 0 1 3.389 2.553l1.53 10.893A3 3 0 0 1 9.92 37c-1.64.23-3.657-.913-3.888-2.553L4.5 23.554c-.23-1.64 1.413-3.158 3.053-3.389zm22.894 0c1.64.23 3.284 1.747 3.053 3.388l-1.53 10.893c-.231 1.64-2.248 2.784-3.89 2.553a3 3 0 0 1-2.552-3.388l1.53-10.893a3 3 0 0 1 3.389-2.553zm-5.423 1.78L18.003 28.5v-8.425l-3.628 3.276-1.404-1.521 4.564-4.096-4.564-4.096 1.404-1.521 3.628 2.809V6.5l7.02 7.021-4.212 4.213 4.213 4.213zm-4.68-1.871v3.51l1.637-1.872-1.638-1.639zm0-4.681l1.637-1.639-1.638-1.92v3.559z"/></svg>