<svg xmlns="http://www.w3.org/2000/svg" viewBox="0 0 52.907997131347656 52.907997131347656"><path d="M40.726 16.261c9.311 10.142-10.617 24.718-14.228 26.356v.048l-.084-.048C22.799 40.979 2.868 26.403 12.18 16.261c3.345-3.643 9.348-2.505 14.373 3.555 3.968-5.642 10.837-7.198 14.173-3.555zm-29.11-1.11L0 3.536A35.225 35.225 0 0 1 3.536 0l13.086 13.086c-1.815.125-3.694.636-5.006 2.065zm41.292 34.221a35.225 35.225 0 0 1-3.536 3.536L34.497 38.033a53.122 53.122 0 0 0 3.626-3.446l14.785 14.785z"/></svg>