<svg xmlns="http://www.w3.org/2000/svg" viewBox="0 0 43.27799987792969 37.47200012207031"><path d="M1.847 13.722C0 6.862 5.277 1.583 9.764.792 14.25 0 17.944 3.694 21.639 7.389 25.333 3.694 29.028 0 33.514.792c4.486.791 9.764 6.07 7.917 12.93-1.848 6.861-10.82 15.306-19.792 23.75-8.972-8.444-17.944-16.889-19.792-23.75zm3.623.02c1.435 5.33 9.198 12.419 16.17 18.98 6.97-6.561 14.733-13.65 16.168-18.98 1.436-5.332-1.873-9.037-5.359-9.652-3.486-.615-7.94 5.423-10.81 8.293-2.87-2.87-7.324-8.908-10.81-8.293-3.486.616-6.795 4.32-5.36 9.651z"/></svg>