<svg xmlns="http://www.w3.org/2000/svg" viewBox="0 0 52.90800476074219 52.90700149536133"><path d="M12.452 44.456V26.453l-2.25 1.75-3.25-4.875L26.454 8.701l8.001 6v-4.5l4.001-.75v8.001l7.501 5.876-3.25 4.876-2.25-1.75v18.002H12.451zm13.965-23.403c-2.486 0-4.5 2.35-4.5 5.25s2.014 5.251 4.5 5.251c2.485 0 4.5-2.35 4.5-5.25s-2.015-5.251-4.5-5.251zm-8.964 20.403h18.003s-.3-6.601-1.5-8.402c-1.066-1.598-2.701-1.8-3.301-1.8-.6 0-2.7 2.1-4.2 2.1s-3.826-2.1-4.426-2.1c-.6 0-4.576-.3-4.576 10.202zM49.373 0a35.225 35.225 0 0 1 3.535 3.535L39.456 16.988V9.917L49.372.001zM3.535 52.907A35.224 35.224 0 0 1 0 49.371L11.451 37.92v7.071l-7.916 7.916z"/></svg>