<svg xmlns="http://www.w3.org/2000/svg" viewBox="0 0 39.00499725341797 35.755001068115234"><path d="M5.5 35.755V17.752l-2.25 1.75L0 14.627 19.502 0l8.001 6V1.5l4.001-.75v8.001l7.501 5.876-3.25 4.876-2.25-1.75v18.002H5.499zm13.998-7.121a2.06 2.06 0 1 0 0 4.12 2.06 2.06 0 0 0 0-4.12zm.412-16.483c-3.64 0-6.593 2.768-6.593 6.181v.825h4.121V17.92a2.473 2.473 0 0 1 4.945 0c0 .596 0 .825-1.649 2.473-.824.824-3.296 2.554-3.296 5.356v1.237h4.12v-1.649c0-1.365.825-2.472 2.473-3.296 1.648-.824 2.472-2.884 2.472-4.12 0-3.414-2.952-5.77-6.593-5.77z"/></svg>