<svg xmlns="http://www.w3.org/2000/svg" viewBox="0 0 26 38"><path d="M13.73 22.288a.731.731 0 1 1 0 1.462.731.731 0 0 1 0-1.462zm0 2.68a.73.73 0 1 1 0 1.461.73.73 0 0 1 0-1.461zM0 0h26v4h-3c-.501 3.46-2.162 12.44-7.026 15 4.864 2.56 6.525 11.54 7.026 15h3v4H0v-4h3c.501-3.46 2.162-12.44 7.026-15C5.162 16.44 3.501 7.46 3 4H0V0zm6.5 4s.646 4.724 2.093 8.418c2.356-1.117 6.996-2.92 9.204-1.057C18.984 7.945 19.5 4 19.5 4h-13zm13.026 30S17.385 20.462 13 20.462c-3.796 0-6 10.244-6.51 12.89 2.274-1.623 5.9-4.608 6.875-5.583 0 0 2.704 4.517 5.303 6.231h.858z"/></svg>