<svg xmlns="http://www.w3.org/2000/svg" viewBox="0 0 43.82257843017578 41.37099838256836"><path d="M25.61 2.231c.938 0 1.86.071 2.76.208C33.627.178 38.194 0 40.639 2.445c1.993 1.993 2.243 5.395 1.044 9.431a18.128 18.128 0 0 1 2.135 8.563l-.153 2.375H17.022c.691 4.493 4.273 7.917 8.588 7.917 3.223 0 6.038-1.91 7.543-4.75h9.807c-2.345 7.346-9.226 12.667-17.35 12.667-2.286 0-4.474-.422-6.49-1.19-6.219 3.272-11.804 3.913-14.605 1.112C0 34.055 4.426 22.308 14.402 12.332l2.059-1.959c-3.041 1.591-6.066 3.896-8.723 6.563C9.372 8.556 16.752 2.231 25.61 2.231zm0 9.5c-3.792 0-7.017 2.644-8.213 6.333h16.426c-1.196-3.69-4.421-6.333-8.213-6.333zm13.936-6.818c-1.3-1.3-3.467-1.557-6.128-.928a18.286 18.286 0 0 1 7.232 6.188c.383-2.264.052-4.104-1.104-5.26zM7.078 37.381c1.946 1.945 5.829 1.553 10.406-.643a18.26 18.26 0 0 1-9.239-10.804c-2.649 5.024-3.258 9.355-1.167 11.447z"/></svg>