<svg xmlns="http://www.w3.org/2000/svg" viewBox="0 0 42 36"><path d="M26.25 10.846l-2.838.354 1.998 2.11-1.854 1.25-1.394-2.605-1.398 2.605-1.864-1.25 2.008-2.11-2.848-.354.738-1.956 2.622 1.05L21 7h2.31l-.42 2.94 2.602-1.05.758 1.956zm-7.06 8.19l-2.838.354 1.998 2.11-1.854 1.25-1.395-2.605-1.398 2.605-1.863-1.25 2.008-2.11L11 19.036l.738-1.956 2.622 1.05-.42-2.94h2.31l-.42 2.94 2.602-1.05.758 1.956zm17.06-10.19l-2.838.354 1.998 2.11-1.854 1.25-1.394-2.605-1.398 2.605-1.864-1.25 2.008-2.11-2.848-.354.738-1.956 2.622 1.05L31 5h2.31l-.42 2.94 2.602-1.05.758 1.956zm-23.014 1.19l-2.838.354 1.998 2.11-1.854 1.25-1.394-2.605L7.75 13.75 5.886 12.5l2.008-2.11-2.848-.354.739-1.956 2.621 1.05-.42-2.94h2.31l-.42 2.94 2.602-1.05.758 1.956zM0 0h42v36H0V0zm3 3v30h36V3H3zm4 28l6.083-6.667L16.25 27.5l7.115-6.98L27.5 23l2-2 2 2 3.82-2.292L37 22.5V31H7zm22.5-16.5l4.77 5.088-2.77 1.662-2-2-2 2-3.028-1.817L29.5 14.5z"/></svg>