<svg xmlns="http://www.w3.org/2000/svg" viewBox="0 0 42 36"><path d="M0 0h42v36H0V0zm3 3v30h36V3H3zm13.5 7.206c3.723-2.15 7.134-2.785 9.979-2.716l6.363 11.02c-1.363 2.499-3.62 5.135-7.342 7.284-3.723 2.15-7.134 2.785-9.979 2.716L9.158 17.49c1.363-2.499 3.62-5.135 7.342-7.284zM34.856 10s.294 2.773-.997 6.272l-4.933-8.544c3.676.632 5.93 2.272 5.93 2.272zM7.144 26s-.294-2.773.997-6.272l4.933 8.544C9.398 27.64 7.144 26 7.144 26zm8.794-2.768l.866-.5-.75-1.299 1.732-1 .75 1.3.866-.5-.75-1.3 1.732-1 .75 1.3.866-.5-.75-1.3 1.732-1 .75 1.3.866-.5-.75-1.3 1.732-1 .75 1.3.866-.5-2-3.465-.866.5.75 1.299-1.732 1-.75-1.299-.866.5.75 1.299-1.732 1-.75-1.299-.866.5.75 1.299-1.732 1-.75-1.299-.866.5.75 1.299-1.732 1-.75-1.299-.866.5 2 3.464z"/></svg>