<svg xmlns="http://www.w3.org/2000/svg" viewBox="0 0 42 36"><path d="M22.07 9.896l-2.838.354 1.998 2.11-1.854 1.25-1.394-2.605-1.398 2.605-1.864-1.25 2.008-2.11-2.848-.354.738-1.956 2.622 1.05-.42-2.94h2.31l-.42 2.94 2.602-1.05.758 1.956zM0 0h42v36H0V0zm3 3v30h36V3H3zm6.456 3.76l.488-.225a7.384 7.384 0 0 0-.433 7.45 7.384 7.384 0 0 0 6.282 4.029l-.469.263A6.463 6.463 0 1 1 9.456 6.76zm18.44 3.44a4.593 4.593 0 1 1 0 9.185 4.593 4.593 0 0 1 0-9.185zm-4.592 15.615c-.613.306-1.837 2.755-1.837 2.755s-.358.537-.663 2.43H18.04l.67-3.348s1.837-6.43 5.511-6.43h7.348c3.228 0 5.038 4.961 5.43 6.168V31h-2.011c-.305-1.893-.663-2.43-.663-2.43s-1.225-2.449-1.837-2.755l.23 5.185h-9.645l.23-5.185z"/></svg>