<svg xmlns="http://www.w3.org/2000/svg" viewBox="0 0 42 36"><path d="M0 0h42v36H0V0zm3 3v30h36V3H3zm10.083 3.917A6.333 6.333 0 0 1 6.75 13.25c-.547 0-1.244-.12-1.75-.25V5h7.667c.13.506.416 1.37.416 1.917zM37 31H16c2-1 4-2 7.5-2.667l2.28-.364c.467-1.985 1.474-7.5.18-14.064-1.038 3.055-1.038 6.139-1.038 6.139-1.742-1.743-.871-6.971-.871-6.971-1.743 0-6.1 3.485-6.1 3.485 0-2.614 4.357-5.228 4.357-5.228-5.228.871-6.97 2.614-6.97 2.614 1.742-3.485 6.97-4.357 6.97-4.357h-3.485c1.742-1.742 6.97-.871 6.97-.871 3.486-2.614 5.229-.871 5.229-.871-.871 0-2.614.871-2.614.871 6.97 0 7.842 1.743 7.842 1.743-4.357-.872-7.842 0-7.842 0 5.228 2.614 6.1 6.1 6.1 6.1-3.336-3.337-6.161-4.118-7.302-4.301 1.765 7.706 1.861 10.205 1.501 15.376C31.285 27.38 34.142 27.19 37 27v4z"/></svg>