<svg xmlns="http://www.w3.org/2000/svg" viewBox="0 0 50.66600036621094 39.97999954223633"><path d="M3.166 0H47.5a3.167 3.167 0 0 1 3.166 3.167v22.166A3.167 3.167 0 0 1 47.5 28.5H3.166A3.167 3.167 0 0 1 0 25.333V3.167A3.167 3.167 0 0 1 3.166 0zM4.75 4.75v19h41.166v-19H4.75zm3.166 1.583h7.917v7.917H7.916V6.333zm9.5 0h6.334v7.917h-6.334V6.333zm-9.5 9.5h7.917v6.334H7.916v-6.334zm9.5 0H33.25v6.334H17.416v-6.334zm7.917-9.5h7.917v7.917h-7.917V6.333zm9.5 0h7.917v7.917h-7.917V6.333zm0 9.5h7.917v6.334h-7.917v-6.334zM18.603 33.25h13.46l-6.73 6.73-6.73-6.73z"/></svg>