<svg xmlns="http://www.w3.org/2000/svg" viewBox="0 0 50.66600036621094 36.72699737548828"><path d="M3.166 8.227h24.938l-4.75 4.75H4.75v19h41.166v-19h-8.312l4.75-4.75H47.5a3.167 3.167 0 0 1 3.166 3.167V33.56a3.167 3.167 0 0 1-3.166 3.167H3.166A3.167 3.167 0 0 1 0 33.56V11.394a3.167 3.167 0 0 1 3.166-3.167zM42.396.665c.442.472.664.98.664 1.525l-.17.802-.495.723-9.497 9.497-2.397 2.397-2.3 2.3-2.059 2.058-1.714 1.705-1.229 1.22-.61.61-.99.906-1.404 1.107-1.534.934c-.52.26-.984.39-1.39.39-.318 0-.572-.096-.763-.287-.191-.191-.287-.451-.287-.78 0-.407.13-.868.39-1.382l.934-1.534 1.098-1.403.896-.982L39.345.665l.723-.494L40.87 0c.545 0 1.053.222 1.525.665zM14.983 26.552l1.525 1.525-3.05 1.525 1.525-3.05z"/></svg>