<svg xmlns="http://www.w3.org/2000/svg" viewBox="0 0 41.16600036621094 38"><path d="M0 0h41.166v38H0V0zm3.166 3.166v17.417H38V3.166H3.166zm0 31.667H38v-3.167H3.166v3.167zM38 26.916H3.166v3.167H38v-3.167zm0-4.75H3.166v3.167H38v-3.167zm-28.417-4.75H7.366V6.481h2.217v10.935zm3.03-8.57c-.368 0-.67-.116-.904-.346a1.142 1.142 0 0 1-.353-.849 1.1 1.1 0 0 1 .353-.842c.234-.219.536-.328.904-.328.372 0 .675.11.907.328.232.218.349.5.349.843 0 .349-.117.635-.349.858-.232.224-.535.335-.907.335zm1.108 8.57h-2.217v-7.388h2.217v7.388zm1.33-.251V15.2l1.142.556 1.075.183.974-.144c.237-.095.356-.24.356-.434l-.162-.358-.415-.25-.554-.193-.58-.194-.79-.354-.573-.441-.352-.58-.121-.78c0-.409.092-.762.276-1.058.184-.296.428-.538.734-.726l1.05-.415 1.233-.132 1.013.076 1.014.221v1.772l-.96-.333-1.007-.11-.437.033-.362.098-.247.166-.09.231.133.344.35.247.48.186.524.167.847.343.65.437.417.587.145.802c0 .434-.096.804-.29 1.111-.193.308-.45.558-.77.75l-1.107.423-1.3.133a6.431 6.431 0 0 1-2.296-.4zm11.379.104c-.33.197-.825.295-1.487.295-1.57 0-2.355-.838-2.355-2.514v-3.397h-1.183v-1.626h1.183V8.453l2.216-.642v2.216h1.626v1.626h-1.626v2.983c0 .77.3 1.155.898 1.155l.728-.148v1.626z"/></svg>