<svg xmlns="http://www.w3.org/2000/svg" viewBox="0 0 44.33399963378906 25.333999633789062"><path d="M0 0h44.334v25.334H0V0zm3.167 3.167v19H23.75v-19H3.167zm38 19v-19H25.334v19h15.833zM28.5 9.5H38l-4.75 6.334L28.5 9.5zm-14.925 7.917h-2.218v-1.101h-.03c-.5.832-1.24 1.249-2.221 1.249-.724 0-1.293-.202-1.708-.606-.415-.404-.622-.944-.622-1.618 0-1.424.857-2.246 2.57-2.466l2.025-.265c0-.736-.441-1.104-1.323-1.104-.888 0-1.733.246-2.533.739v-1.738l1.322-.438 1.527-.19c2.14 0 3.21 1.047 3.21 3.14v4.397zm-2.203-2.995v-.482l-1.38.168c-.764.092-1.146.417-1.146.972 0 .251.093.457.278.618.186.16.437.241.754.241.442 0 .801-.143 1.078-.43.277-.286.416-.648.416-1.087z"/></svg>