<svg xmlns="http://www.w3.org/2000/svg" viewBox="0 0 44.33399963378906 26.91699981689453"><path d="M0 0h44.334v26.917H0V0zm3.167 3.167V23.75h38V3.167h-38zm13.015 10.656l-3.424.427 2.41 2.546-2.236 1.508-1.682-3.143-1.686 3.143-2.249-1.508 2.423-2.546-3.436-.427.89-2.36 3.163 1.267-.506-3.546h2.786l-.506 3.546 3.139-1.266.914 2.359zm11.653 0l-3.424.427 2.411 2.546-2.236 1.508-1.683-3.143-1.686 3.143-2.248-1.508 2.422-2.546-3.436-.427.891-2.36 3.163 1.267-.507-3.546h2.787l-.507 3.546 3.139-1.266.914 2.359zm1.853 8.344V4.75h1.979v17.417h-1.98z"/></svg>