<svg xmlns="http://www.w3.org/2000/svg" viewBox="0 0 45.51099395751953 29.003999710083008"><path d="M21.186 22.733c-.674.273-1.49.491-2.45.655-.958.165-1.943.249-2.955.253-2.872-.03-5.098-.847-6.677-2.45-1.579-1.604-2.38-3.813-2.401-6.63.06-3.091.932-5.4 2.617-6.923 1.686-1.524 3.825-2.285 6.419-2.281 1.162.01 2.195.114 3.098.315.903.2 1.672.44 2.306.718l1.352-5.163C21.912.92 21.019.642 19.813.394 18.608.146 17.166.014 15.485 0 11.072.029 7.414 1.33 4.512 3.907 1.611 6.482.107 10.157 0 14.933c.005 4.053 1.252 7.389 3.741 10.007 2.49 2.618 6.194 3.973 11.111 4.064 1.728-.017 3.223-.152 4.486-.407 1.264-.254 2.189-.526 2.777-.818l-.93-5.046zm12.037-5.462l.676-5.12h3.842l-.633 5.12h-3.885zm-1.689 11.347l1.056-7.6h3.842l-1.098 7.6h3.8l1.056-7.6h4.138v-3.747h-3.462l.633-5.12h4.012V8.405h-3.379l1.055-7.178h-3.758l-1.055 7.178h-3.885l1.056-7.178h-3.716l-1.097 7.178h-4.138v3.747h3.547l-.676 5.12h-4.096v3.746h3.463l-1.098 7.6h3.8z"/></svg>