<svg xmlns="http://www.w3.org/2000/svg" viewBox="0 0 41.16600036621094 40.18600082397461"><path d="M0 9.5c14.25-9.5 18.72 2.722 19.093 9.428.372 6.706-6.147 15.16-14.343 9.572v11.084L0 36.417V9.5zm4.563 3.514v11.083c7.451 4.47 10.013.791 10.013-5.542 0-8.941-5.17-9.267-10.013-5.541zm22.353-6.68s-.372 7.17 0 14.25c.745 7.078 9.5 1.583 9.5 1.583V7.917l4.75.58V27.52c0 12.666-12.666 12.064-12.666 12.064l-1.584-4.75c11.084 0 9.687-7.338 9.687-7.338-13.412 5.216-14.437-3.746-14.437-3.746V9.5l4.75-3.166z"/></svg>