<svg xmlns="http://www.w3.org/2000/svg" viewBox="0 0 44.33300018310547 44.33399963378906"><path d="M37.999 11.084a6.333 6.333 0 0 1 6.334 6.333v9.5a6.333 6.333 0 0 1-6.334 6.333H22.166c0 .875.709 1.584 1.583 1.584h9.5V38a6.333 6.333 0 0 1-6.333 6.334h-9.5A6.333 6.333 0 0 1 11.083 38v-8.312a6.333 6.333 0 0 1 6.333-6.334h11.083a6.333 6.333 0 0 0 6.334-6.333v-5.937h3.166zm-9.5 26.125c-.874 0-1.583.667-1.583 1.979 0 1.311.709 1.583 1.583 1.583.875 0 1.584-.272 1.584-1.583 0-1.312-.71-1.98-1.584-1.98zM6.333 33.25A6.333 6.333 0 0 1 0 26.917v-9.5a6.333 6.333 0 0 1 6.333-6.333h15.833c0-.875-.709-1.584-1.583-1.584h-9.5V6.334A6.333 6.333 0 0 1 17.416 0h9.5a6.333 6.333 0 0 1 6.333 6.334v8.312a6.333 6.333 0 0 1-6.333 6.334H15.833A6.333 6.333 0 0 0 9.5 27.313v5.937H6.333zm9.5-26.124c.874 0 1.583-.668 1.583-1.98 0-1.311-.709-1.583-1.583-1.583-.875 0-1.583.272-1.583 1.583 0 1.312.708 1.98 1.583 1.98z"/></svg>