<svg xmlns="http://www.w3.org/2000/svg" viewBox="0 0 39.58399963378906 39.58399963378906"><path d="M39.584 39.584h-5.542l5.541-5.542v5.542zM15.041 33.25l-3.958 3.959V33.25h3.958zm7.916 0l-6.333 6.334h-5.541v-.792l5.54-5.542h6.334zm7.917 0l-6.333 6.334h-6.334l6.334-6.334h6.333zm8.709-7.126v6.335l-7.125 7.124h-6.334l13.459-13.459zM33.25 15.042v-3.959h3.959l-3.959 3.959zm6.334 1.583l-6.334 6.333v-6.333l5.542-5.542h.791v5.542zm0 7.916l-6.334 6.334V24.54l6.334-6.333v6.333zM0 31.667V0h31.667v31.666H0z"/></svg>