<svg xmlns="http://www.w3.org/2000/svg" viewBox="0 0 47.5 47.5"><path d="M36.417 11.083v15.834h-9.5v9.5H11.083V20.583h9.5v-9.5h15.834zM0 0h2.375L0 2.375V0zm10.292 0L0 10.292V3.958L3.958 0h6.334zm-9.5 19L19 .792v6.334L7.125 19H.791zM0 11.875L11.875 0h6.334L0 18.209v-6.334zM8.708 19L19 8.71v6.333l-3.958 3.958H8.708zM47.5 47.5h-2.375l2.375-2.375V47.5zm-10.292 0L47.5 37.208v6.334L43.542 47.5h-6.334zm9.5-19L28.5 46.708v-6.334L40.375 28.5h6.333zm.792 7.125L35.625 47.5H29.29L47.5 29.291v6.334zM38.791 28.5L28.5 38.79v-6.333l3.958-3.958h6.334z"/></svg>