<svg xmlns="http://www.w3.org/2000/svg" viewBox="0 0 38.0050048828125 38.0050048828125"><path d="M19.002 0c10.495 0 19.003 8.507 19.003 19.002s-8.508 19.003-19.003 19.003C8.507 38.005 0 29.497 0 19.002 0 8.507 8.507 0 19.002 0zm0 9.501a9.502 9.502 0 1 0 0 19.003 9.502 9.502 0 0 0 0-19.003zm0-7.522c-2.375 0-4.638.475-6.701 1.336l2.437 5.452a11.05 11.05 0 0 1 4.264-.85c1.511 0 2.952.303 4.265.85l2.437-5.452a17.366 17.366 0 0 0-6.702-1.336zM7.917 19.002c0-1.51.303-2.952.85-4.264l-5.452-2.437a17.365 17.365 0 0 0-1.336 6.701c0 2.375.475 4.639 1.336 6.702l5.452-2.437a11.051 11.051 0 0 1-.85-4.265zm28.108 0c0-2.374-.475-4.638-1.335-6.701l-5.453 2.436a11.05 11.05 0 0 1 .85 4.264c0 1.511-.302 2.952-.85 4.265l5.453 2.437a17.366 17.366 0 0 0 1.336-6.702zM19.002 36.027c2.375 0 4.639-.476 6.702-1.336l-2.437-5.454c-1.313.548-2.754.85-4.265.85-1.51 0-2.952-.302-4.264-.85l-2.437 5.453a17.366 17.366 0 0 0 6.701 1.336z"/></svg>