<svg xmlns="http://www.w3.org/2000/svg" viewBox="0 0 25.333999633789062 42.75"><path d="M9.5 42.75v-2.771l6.334 1.187v1.584H9.5zm-3.166-5.146v-2.771L19 36.416v2.771L6.334 37.604zM19 34.437L6.334 32.854v-2.771L19 31.666v2.771zM12.667 0c6.996 0 12.667 6.025 12.667 13.458 0 4.981-6.334 9.857-6.334 11.658v4.967L6.334 28.5v-3.384C6.334 23.75 0 18.439 0 13.458 0 6.025 5.671 0 12.667 0zM7.521 10.291l-1.187 6.334h1.979L9.5 10.291H7.521zm4.75 0l-1.187 6.334h1.979l1.187-6.334h-1.979zm4.75 0l-1.187 6.334h1.979L19 10.291h-1.979z"/></svg>