<svg xmlns="http://www.w3.org/2000/svg" viewBox="0 0 45.557003021240234 39.557003021240234"><path d="M34.4 19.684l3.931-3.372c.738.314 1.44.698 2.094 1.144l-.706 5.13 5.165.395c.296.731.522 1.497.673 2.29l-4.128 3.128 3.372 3.932a12.184 12.184 0 0 1-1.144 2.094l-5.13-.706-.395 5.165a12.13 12.13 0 0 1-2.29.673l-3.128-4.128-3.932 3.372a12.184 12.184 0 0 1-2.094-1.144l.706-5.13-5.165-.395a12.123 12.123 0 0 1-.672-2.29l4.127-3.128-3.372-3.932c.314-.738.698-1.44 1.144-2.094l5.13.706.395-5.165a12.08 12.08 0 0 1 2.29-.672l3.128 4.127zm-.843 2.987a4.886 4.886 0 1 0 0 9.771 4.885 4.885 0 0 0 0-9.77zM0 0h8v8H0V0zm0 11h8v8H0v-8zM12 0h26v8H12V0zM0 22h8v8H0v-8zm12-11h26v4.132l-3.447 2.777L31.393 14l-3.362 1.34L27.31 19h-1.56l-4.375-.586-.38.586H12v-8zm0 11h8.274l3.135 4.447L19.278 30H12v-8zm21.5 2a3.5 3.5 0 1 1 0 7 3.5 3.5 0 0 1 0-7z"/></svg>