<svg xmlns="http://www.w3.org/2000/svg" viewBox="0 0 38.061744689941406 43.936920166015625"><path d="M20.344 41.268a2.672 2.672 0 0 1-5.344 0l-.792-8.64-2.897-5.117-.547 5.377a2.662 2.662 0 0 1-.403 1.04l-.37.863-4.738 7.42a2.672 2.672 0 0 1-4.466-2.934l4.738-7.42.01-.015 1.564-8.321-.115-.956v-9.352a4.008 4.008 0 0 1 7.549-1.88l4.663 4.488 6.018 1.49a2.004 2.004 0 1 1-.964 3.89l-6.13-1.518a1.994 1.994 0 0 1-.931-.525 1.994 1.994 0 0 1-.792-.47L15 17.346v5.22l-.082.812 4.2 6.927c.43.616.565 1.35.434 2.033l.792 8.93zM9.656.002a4.008 4.008 0 1 1 0 8.016 4.008 4.008 0 0 1 0-8.016zm20.355 19.82l5.1 9.393-5.871 3.187-5.1-9.392 5.87-3.187zM28.066 33.04a2.672 2.672 0 0 1-3.623-1.074l-2.55-4.696a2.672 2.672 0 0 1 1.074-3.623l5.099 9.393zm3.12-13.855a2.672 2.672 0 0 1 3.622 1.074l2.55 4.696a2.672 2.672 0 0 1-1.074 3.623l-5.1-9.393z"/></svg>