<svg xmlns="http://www.w3.org/2000/svg" viewBox="0 0 42.91222381591797 43.27425765991211"><path d="M22.688 40.514c-.306 1.443-2.12 2.76-3.564 2.453-1.444-.306-1.97-2.12-1.662-3.564l1.796-8.45-2.774-3.279-2.965 5.501c-.184.343-1.282.81-1.641.88a2.67 2.67 0 0 1-.876.331l-7.606.944a2.672 2.672 0 0 1-3.122-2.129c-.274-1.45.68-2.452 2.13-2.726l7.605-1.34.018-.003 3.166-6.237.087-.959 1.944-9.147a4.008 4.008 0 0 1 7.775-.269l3.628 5.36 5.577 2.71a2.004 2.004 0 0 1-1.752 3.604l-5.68-2.76a1.995 1.995 0 0 1-.803-.708 1.996 1.996 0 0 1-.676-.623l-1.087-1.606-1.086 5.106-.25.777 3.675 5.32a2.664 2.664 0 0 1 0 2.078l-1.856 8.736zM20.584.422a4.008 4.008 0 1 1-1.666 7.84 4.008 4.008 0 0 1 1.666-7.84zm15.79 23.62l3.035 10.246-6.405 1.897-3.036-10.249 6.405-1.896zm-4.651 12.522a2.672 2.672 0 0 1-3.32-1.803l-1.518-5.124a2.672 2.672 0 0 1 1.803-3.32l3.035 10.247zm5.932-12.903a2.672 2.672 0 0 1 3.32 1.804l1.518 5.123a2.672 2.672 0 0 1-1.803 3.321l-3.035-10.248z"/></svg>