<svg xmlns="http://www.w3.org/2000/svg" viewBox="0 0 65.31200408935547 65.31199645996094"><path d="M41.166 54.229a2.375 2.375 0 0 0 2.375 2.375h16.625l-7.916 6.333H39.583a4.75 4.75 0 0 1-4.75-4.75V37.604H24.541a2.375 2.375 0 0 0-2.375 2.375c0 .263.043.515 0 25.333l-6.333-3.562V39.979a2.375 2.375 0 0 0-2.375-2.375H0v-6.333h13.458a2.375 2.375 0 0 0 2.375-2.375V3.166L22.166 0v6.729a2.381 2.381 0 0 0 2.374 2.375h35.626l5.146 6.333H24.543a2.375 2.375 0 0 0-2.376 2.375v11.084a2.375 2.375 0 0 0 2.375 2.375h11.875a4.75 4.75 0 0 1 4.75 4.75v18.208z"/></svg>