<svg xmlns="http://www.w3.org/2000/svg" viewBox="0 0 68.875 68.78400421142578"><path d="M30.875 22.166a4.75 4.75 0 0 1-4.75 4.75h-4.75v11.875a2.375 2.375 0 0 0 2.375 2.375h45.125L67.292 47.5h-47.5a4.75 4.75 0 0 1-4.75-4.75V26.916H0l2.772-6.333h19.396a2.375 2.375 0 0 0 2.375-2.375V1.188L30.876 0v22.166zm-22.99 6.397l3.959 7.917H8.677v3.166H7.094V36.48H3.927l3.958-7.917zm42.782-12.73l3.958 7.917h-3.166v3.166h-1.584V23.75h-3.166l3.957-7.917zM21.771 67.291c7.517-16.536 13.25-7.698 17.875-19h6.887c-5.517 12.746-11.284 6.465-18.576 20.493l-6.186-1.493zm16.231-41.958C37.21 19 41.168 19 42.752 11.083c1.583-6.333 5.54-7.917 7.124-7.917.529 0 1.501 1.279 3.617 2.454-1.726 1.14-2.75 2.788-3.617 6.255-1.584 6.333-5.542 3.958-5.542 13.458 0 8.135 2.612 8.908 3.363 15.042h-5.955C43.228 31.918 38 33.47 38 25.333zm22.166-3.167l3.958 7.917H60.96v3.167h-1.584v-3.167H56.21l3.958-7.917zM19.001 7.916l3.958 7.917h-3.167V19h-1.583v-3.167h-3.167L19 7.916zM36.418 4.75l3.958 7.916H37.21v3.167h-1.584v-3.167H32.46l3.958-7.916zM33.25 25.333l3.959 7.917h-3.167v3.166h-1.583V33.25h-3.167l3.958-7.917zM53.834 28.5l3.958 7.916h-3.167v3.167h-1.583v-3.167h-3.167l3.959-7.916zm-42.75 12.666l3.958 7.917h-3.167v3.167h-1.583v-3.167H7.125l3.959-7.917zm9.5 7.917L24.542 57h-3.167v3.166h-1.583V57h-3.167l3.959-7.917zM47.5 52.25l3.959 7.916h-3.167v3.167h-1.583v-3.167h-3.167L47.5 52.25z"/></svg>