<svg xmlns="http://www.w3.org/2000/svg" viewBox="0 0 38.004539489746094 38.00639343261719"><path d="M23.005 0h-6.5l-2.25 8.5-6.903-4.508a19.101 19.101 0 0 0-4.413 4.86L19.005 19 35.07 8.853a19.104 19.104 0 0 0-4.413-4.861L23.755 8.5l-2.75-6.25c1 0 3 .5 3 .5-1-2.5-1-2.75-1-2.75zM4.78 12.016l-2.682-1.694A18.919 18.919 0 0 0 .005 19c0 .618.03 1.23.087 1.833l4.688-8.817zm1.696 1.07L.67 24.005a18.88 18.88 0 0 0 1.62 4.037l7.004-13.174-2.82-1.781zm4.515 2.853L3.513 30.003a19.104 19.104 0 0 0 2.618 2.97l8.002-15.05-3.142-1.984zm4.838 3.055L7.704 34.275A18.915 18.915 0 0 0 19.004 38c4.234 0 8.144-1.384 11.302-3.725L22.18 18.994 19.005 21l-3.176-2.006zm8.048-1.071l8.002 15.05a19.104 19.104 0 0 0 2.618-2.97l-7.478-14.064-3.142 1.984zm4.838-3.055l7.005 13.174a18.875 18.875 0 0 0 1.619-4.038l-5.805-10.917-2.82 1.78zm4.515-2.852l4.688 8.817c.057-.603.087-1.215.087-1.833 0-3.127-.755-6.077-2.093-8.678l-2.682 1.694z"/></svg>