<svg xmlns="http://www.w3.org/2000/svg" viewBox="0 0 40 40"><path d="M23.619 2.81h-5.88l-2.037 7.69-6.245-4.079a17.282 17.282 0 0 0-3.993 4.398L20 20l14.536-9.18a17.284 17.284 0 0 0-3.993-4.399L24.298 10.5l-2.489-5.38 2.965.25-1.155-2.56zM7.13 13.68l-2.427-1.533A17.117 17.117 0 0 0 2.81 20l.079 1.658 4.241-7.977zm1.534.97l-5.252 9.877c.35 1.284.844 2.508 1.465 3.653l6.338-11.92-2.55-1.61zm4.085 2.58L5.984 29.954a17.303 17.303 0 0 0 2.368 2.688l7.24-13.617-2.843-1.796zm4.377 2.764L9.775 33.82A17.113 17.113 0 0 0 20 37.19c3.83 0 7.367-1.252 10.225-3.37l-7.351-13.825L20 21.81l-2.874-1.816zm7.282-.97l7.24 13.617c.88-.81 1.674-1.71 2.368-2.687L27.252 17.23l-2.843 1.796zm4.377-2.764l6.338 11.92a17.08 17.08 0 0 0 1.465-3.653l-5.252-9.878-2.551 1.611zm4.085-2.58l4.242 7.977L37.19 20c0-2.829-.683-5.498-1.893-7.852l-2.427 1.533zM20 0c11.046 0 20 8.954 20 20s-8.954 20-20 20S0 31.046 0 20 8.954 0 20 0z"/></svg>