<svg xmlns="http://www.w3.org/2000/svg" viewBox="0 0 38 27.417999267578125"><path d="M0 19.501h3.167v4.75h31.666v-4.75H38v7.917H0v-7.917zm12.27-8.728l.531 3.3c-.41.196-.965.357-1.666.483a13.76 13.76 0 0 1-2.353.195c-2.32-.026-4.135-.69-5.444-1.99-1.309-1.302-1.974-3.086-1.997-5.353.004-2.138.685-3.894 2.043-5.268C4.742.767 6.748.057 9.402.01l1.803.14 1.626.406-.71 3.107c-.512-.263-1.35-.41-2.512-.439-1.197.021-2.142.396-2.833 1.127-.691.73-1.038 1.69-1.039 2.882.029 1.306.415 2.3 1.16 2.98.745.681 1.679 1.024 2.8 1.028 1.05-.01 1.907-.166 2.572-.468zm2.973 3.683V4.82L15.125.306h3.813l.177 1.93h.088c.304-.492.814-.977 1.531-1.455.717-.478 1.7-.735 2.95-.77.96.008 1.782.226 2.467.652a3.772 3.772 0 0 1 1.505 1.744h.06c.555-.742 1.17-1.313 1.845-1.712.752-.442 1.63-.67 2.637-.685 1.41-.01 2.168.48 3.067 1.47.9.99 1.364 2.538 1.394 4.644v8.332h-4.374V6.76c.002-1.034-.165-1.83-.5-2.39-.335-.56-.453-.843-1.146-.85-.511.011-.935.162-1.273.452a2.54 2.54 0 0 0-.74 1.081l-.142 1.128v8.275h-4.375V6.5c.004-.897-.17-1.614-.52-2.152s-.894-.814-1.635-.828c-.59.022-1.063.195-1.419.52-.355.326-.6.673-.736 1.042a2.847 2.847 0 0 0-.182 1.128v8.245h-4.374z"/></svg>