<svg xmlns="http://www.w3.org/2000/svg" viewBox="0 0 38 32.746002197265625"><path d="M0 24.829h3.167v4.75h31.666v-4.75H38v7.917H0v-7.917zm7.74-4.769V.323h12.052v3.75h-7.656v4.498h7.153v3.51h-7.153v7.98H7.74zM26.666 0c1.325.033 2.382.452 3.172 1.257.79.805 1.194 1.793 1.214 2.966-.037 1.279-.48 2.31-1.33 3.097-.85.787-1.889 1.191-3.114 1.214-1.3-.03-2.35-.442-3.15-1.236-.8-.794-1.213-1.79-1.236-2.988.016-1.227.441-2.245 1.275-3.053C24.331.449 25.387.03 26.666 0zm-.058 2.032c-.631.019-1.13.247-1.497.685-.366.437-.554.968-.561 1.593.012.634.212 1.154.598 1.561.385.407.882.617 1.489.63.62-.012 1.12-.224 1.5-.634.38-.41.576-.938.587-1.586a2.406 2.406 0 0 0-.536-1.557c-.357-.44-.883-.67-1.58-.692z"/></svg>