<svg xmlns="http://www.w3.org/2000/svg" viewBox="0 0 38 33.93164825439453"><path d="M0 26.015h3.167v4.75h31.666v-4.75H38v7.917H0v-7.917zm14.3-4.77H9.904V10.312H7.983V7.097h1.92v-.608a9.18 9.18 0 0 1 .417-2.796c.28-.9.73-1.652 1.348-2.256A5.147 5.147 0 0 1 13.573.325 6.572 6.572 0 0 1 15.63.003c.966.024 1.754.123 2.365.296l-.177 3.438c-.38-.14-.863-.213-1.449-.224-.734.02-1.268.292-1.603.816-.335.524-.5 1.18-.495 1.968v.8h2.896v3.214H14.3v10.935zm6.392-16.838l4.396-1.212v3.902h3.222v3.214h-3.222v5.197c-.01.862.12 1.5.388 1.91.268.413.73.617 1.385.614l.743-.025.587-.092.03 3.26-1.193.257-1.704.11c-1.485-.042-2.616-.44-3.393-1.19-.826-.79-1.24-2.18-1.24-4.17v-5.871h-1.92V7.097h1.92v-2.69z"/></svg>