<svg xmlns="http://www.w3.org/2000/svg" viewBox="0 0 38 32.746002197265625"><path d="M0 24.829h3.167v4.75h31.666v-4.75H38v7.917H0v-7.917zm21.092-8.888l.65 3.532c-.41.204-1.059.395-1.943.573-.884.178-1.931.273-3.14.284-3.443-.063-6.035-1.012-7.778-2.844-1.743-1.833-2.616-4.168-2.619-7.005.075-3.343 1.128-5.916 3.159-7.719C11.451.959 14.012.048 17.102.027c1.176.01 2.186.103 3.03.276.843.174 1.469.369 1.877.583l-.946 3.615-1.615-.503a10.439 10.439 0 0 0-2.169-.22c-1.815-.003-3.313.53-4.492 1.596-1.18 1.067-1.791 2.682-1.833 4.847.015 1.97.576 3.518 1.681 4.64 1.105 1.123 2.663 1.695 4.674 1.716l2.069-.177 1.714-.459zM28.144 0c1.325.033 2.382.452 3.172 1.257.79.805 1.194 1.793 1.214 2.966-.037 1.279-.48 2.31-1.33 3.097-.85.787-1.889 1.191-3.114 1.214-1.3-.03-2.35-.442-3.15-1.236-.801-.794-1.213-1.79-1.236-2.988.016-1.227.441-2.245 1.275-3.053C25.809.449 26.865.03 28.144 0zm-.058 2.032c-.631.019-1.13.247-1.497.685-.367.437-.554.968-.562 1.593.013.634.212 1.154.598 1.561.386.407.883.617 1.49.63.62-.012 1.12-.224 1.5-.634.38-.41.576-.938.587-1.586a2.406 2.406 0 0 0-.536-1.557c-.357-.44-.883-.67-1.58-.692z"/></svg>