<svg xmlns="http://www.w3.org/2000/svg" viewBox="0 0 38 38"><path fill-opacity=".604" d="M19 25l5-2v-5.5l-5 2-5-2V23l5 2z"/><path d="M24 17.5V16l-5-3-5 3v1.5l5 2 5-2z"/><path fill-opacity=".404" d="M0 19l13.278-5.59A7.974 7.974 0 0 0 11 19H0z"/><path fill-opacity=".702" d="M19 0v11a7.974 7.974 0 0 0-5.59 2.278L19 0z"/><path fill-opacity=".404" d="M19 0l5.59 13.278A7.974 7.974 0 0 0 19 11V0z"/><path fill-opacity=".702" d="M0 19h11c0 2.176.869 4.148 2.278 5.59L0 19z"/><path fill-opacity=".404" d="M19 38l-5.59-13.278A7.974 7.974 0 0 0 19 27v11z"/><path fill-opacity=".702" d="M19 38V27a7.974 7.974 0 0 0 5.59-2.278L19 38z"/><path fill-opacity=".404" d="M38 19l-13.278 5.59A7.974 7.974 0 0 0 27 19h11z"/><path fill-opacity=".702" d="M38 19H27a7.974 7.974 0 0 0-2.278-5.59L38 19z"/></svg>