<svg xmlns="http://www.w3.org/2000/svg" viewBox="0 0 40 34"><path d="M2 0h36a2 2 0 0 1 2 2v21a2 2 0 0 1-2 2H23v5h4a2 2 0 0 1 2 2v2H11v-2a2 2 0 0 1 2-2h4v-5H2a2 2 0 0 1-2-2V2a2 2 0 0 1 2-2zm1 3v19h34V3H3zm26 1v17H11V4h18zm-13 8h8V5h-8v7zm8 1h-8v7h8v-7zm2.5 0a1.5 1.5 0 1 0 0 3 1.5 1.5 0 0 0 0-3zm0 4a1.5 1.5 0 1 0 0 3 1.5 1.5 0 0 0 0-3zm0-12a1.5 1.5 0 1 0 0 3 1.5 1.5 0 0 0 0-3zm0 4a1.5 1.5 0 1 0 0 3 1.5 1.5 0 0 0 0-3zm-13 4a1.5 1.5 0 1 0 0 3 1.5 1.5 0 0 0 0-3zm0 4a1.5 1.5 0 1 0 0 3 1.5 1.5 0 0 0 0-3zm0-12a1.5 1.5 0 1 0 0 3 1.5 1.5 0 0 0 0-3zm0 4a1.5 1.5 0 1 0 0 3 1.5 1.5 0 0 0 0-3z"/></svg>