<svg xmlns="http://www.w3.org/2000/svg" viewBox="0 0 40.628990173339844 46.789207458496094"><path d="M23.747 46.781C10.632 46.781 0 36.149 0 23.034 0 11.92 7.636 2.588 17.948 0a23.671 23.671 0 0 0-6.866 16.701c0 13.116 10.632 23.747 23.747 23.747a23.79 23.79 0 0 0 5.8-.713 23.674 23.674 0 0 1-16.882 7.046zm8.777-11.952h-6.65v-.889l3.736-4.874h-3.292V27.44h6.206v1.07l-3.54 4.694h3.54v1.625zm6.296-9.499h-8.55v-1.143l4.803-6.267H30.84v-2.09h7.98v1.375l-4.551 6.035h4.551v2.09zm-5.973-11.082H22.396v-1.396l5.87-7.66h-5.174V2.637h9.754v1.68l-5.563 7.377h5.563v2.554z"/></svg>