<svg xmlns="http://www.w3.org/2000/svg" viewBox="0 0 40.17433166503906 39.612327575683594"><path d="M33.622.393a3.167 3.167 0 0 1 3.798 2.373l1.78 7.714-37.026 8.55-1.78-7.715a3.167 3.167 0 0 1 2.372-3.798L33.622.393zM2.648 14.044l.713 3.086 5.932-9.495-3.085.712-3.56 5.697zm5.34 2.017l3.086-.712 5.933-9.495-3.085.712-5.933 9.495zm7.715-1.78l3.085-.713 5.933-9.495-3.085.713-5.933 9.494zm7.713-1.782l3.086-.712 5.933-9.495-3.086.713-5.932 9.494zm7.714-1.78l3.086-.713 2.373-3.798-.712-3.085-4.747 7.595zm5.878 28.893H5.34a3.167 3.167 0 0 1-3.166-3.167V19.03h38v17.416a3.167 3.167 0 0 1-3.166 3.167zm-23.75-19l-6.334 6.333h3.167l6.333-6.333h-3.167zm7.916 0l-6.333 6.333h3.166l6.334-6.333h-3.167zm7.917 0l-6.334 6.333h3.167l6.333-6.333h-3.166zm7.916 0l-6.333 6.333h3.167l4.741-4.74.01-1.593h-1.585zm-31.666 0l-1.584 1.583v3.167l4.75-4.75H5.341z"/></svg>