<svg xmlns="http://www.w3.org/2000/svg" viewBox="0 0 40.17433166503906 49.112327575683594"><path d="M33.622.393a3.167 3.167 0 0 1 3.798 2.373l1.78 7.714-37.026 8.548-1.78-7.713a3.167 3.167 0 0 1 2.372-3.798L33.622.393zm3.386 39.22H5.34a3.167 3.167 0 0 1-3.166-3.168V19.028h38v17.417a3.167 3.167 0 0 1-3.166 3.167zm-6.334 3.165a3.167 3.167 0 1 1 0 6.334 3.167 3.167 0 0 1 0-6.334zm-9.5 0a3.167 3.167 0 1 1 0 6.334 3.167 3.167 0 0 1 0-6.334zm-9.5 0a3.167 3.167 0 1 1 0 6.334 3.167 3.167 0 0 1 0-6.334z"/></svg>