<svg xmlns="http://www.w3.org/2000/svg" viewBox="0 0 33.25 49.08399963378906"><path d="M6.334 28.5l1.583.15V4.75L33.25 0v28.5c0 2.624-2.835 4.75-6.333 4.75s-6.333-2.126-6.333-4.75c0-2.623 2.835-4.75 6.333-4.75l1.583.15V5.641L12.667 8.61v24.64c0 2.624-2.835 4.75-6.333 4.75S0 35.874 0 33.25c0-2.623 2.836-4.75 6.334-4.75zm0 12.667h1.583V47.5h3.167v1.584h-4.75v-7.917zm6.333 7.917v-7.917h1.583v7.917h-1.583zm3.562-7.917h1.98l1.583 5.278 1.583-5.278h1.98l-2.771 7.917H19l-2.77-7.917zm9.105 0h4.75v1.583h-3.167v1.584h3.167v1.583h-3.167V47.5h3.167v1.584h-4.75v-7.917z"/></svg>