<svg xmlns="http://www.w3.org/2000/svg" viewBox="0 0 48.03199768066406 43"><path d="M11 34c0 2-.5 5-1.5 5H31c2.5 0 3-2.5 3-5V15H11v19zm27 0c0 4.372-3 9-6.5 9H5c-2.623 0-5-4.128-5-8.5V17h7v-6h31v23zM4 21v14c0 2.623.625 4.25 1.5 4.25.874 0 1.5-1.627 1.5-4.25V21H4zm19 3h9v10h-9V24zm-10-6h19v3H13v-3zm0 6h8v2h-8v-2zm0 4h8v2h-8v-2zm0 4h8v2h-8v-2zM36 0v6h-3V0h3zm8.922 4.524l-4.243 4.242-2.121-2.12L42.8 2.403l2.122 2.12zm3.11 9.507h-6v-3h6v3zM26.491 3.11l4.243 4.242-2.121 2.122-4.243-4.243 2.122-2.121zM43.68 22.803l-4.316-4.168 2.084-2.158 4.316 4.168-2.084 2.158z"/></svg>