<svg xmlns="http://www.w3.org/2000/svg" viewBox="0 0 38 36"><path d="M38 8v17h-2V10H23V8h15zm-3 21H23V18l3.503 2.75L35 13.5V29zm0-18v.75l-8.5 7L23 16v-5h12zM0 3.5L22 0v36L0 32.5v-29zm10.782 21.043c1.323.081 2.826-.511 3.666-1.536 1.756-2.14 1.9-5.815.637-8.278-.594-1.158-1.808-2.181-3.094-2.383a5.325 5.325 0 0 0-3.15.494c-2.517 1.268-3.61 5.337-2.712 8.01.631 1.876 2.677 3.571 4.653 3.693zm.088-9.947c2.319-.065 3.168 4.81 1.84 6.712-.21.3-.494.565-.822.727a2.24 2.24 0 0 1-1.073.207 2.328 2.328 0 0 1-1.05-.296 2.627 2.627 0 0 1-.83-.786c-1.296-1.876-.345-6.5 1.935-6.564z"/></svg>