<svg xmlns="http://www.w3.org/2000/svg" viewBox="0 0 56.605003356933594 17.814998626708984"><path d="M56.605 17.814H52.25V6.831l-5.187 5.79-4.709-5.336v10.53h-4.75V.001h3.876l5.624 6.729 6-6.73h3.5v17.813zM20.979.002H28.5c3.498 0 6.334 2.085 6.334 5.145 0 1.888-1.079 3.405-2.726 4.29 2.46 2.318 4.705 8.377 4.705 8.377h-5.146s-1.98-7.52-5.146-7.52h-1.187v7.52h-4.355V.002zm4.355 2.77v4.355c4.354 0 4.75-.668 4.75-1.98 0-1.311-.396-2.77-4.75-2.374zM0 17.815L7.125.003h5.146l7.917 17.812h-5.146l-1.425-3.562h-7.6L4.75 17.815H0zM9.594 4.194l-2.451 6.892h5.207L9.594 4.194z"/></svg>