<svg xmlns="http://www.w3.org/2000/svg" viewBox="0 0 44.34748077392578 44.33399963378906"><path d="M22.174 14.25a7.917 7.917 0 1 1 0 15.834 7.917 7.917 0 0 1 0-15.834zm0-14.25c8.205 0 15.368 4.458 19.201 11.084l-18.882.796-.319-.005c-4.25 0-7.9 2.577-9.47 6.254L4.271 9.093C8.304 3.581 14.821 0 22.174 0zm22.167 22.167c0 12.242-9.925 22.167-22.167 22.167l-2.37-.126 5.75-12.317c4.023-1.398 6.912-5.224 6.912-9.724 0-3.26-1.517-6.167-3.883-8.053l13.08-2.516a22.068 22.068 0 0 1 2.68 10.569zm-44.334 0A22.06 22.06 0 0 1 4.087 9.35l7.81 12.274-.015.543c0 5.657 4.564 10.247 10.21 10.291L19.41 44.163C8.472 42.803.007 33.473.007 22.167z"/></svg>