<svg xmlns="http://www.w3.org/2000/svg" viewBox="0 0 37.259002685546875 44"><path d="M16.259 32s-3.25 3 1.75 5c3.828 1.531 2.632-3.504 3.5-4 1.75-1 5.75-2 6.75 0s-4.5 11-11.5 9S2.562 31.517 4.509 25.5c2.75-8.5 23.333-12.497 23-4.5-.25 6-7.25 7-11.25 11zm6.25-22c3.75-10 14.75-7 8.75 1s-10.221 2.924-8.75-1zm-7.931 1.526c-1.602-6.702 5.364-9.066 5.041-2.622-.323 6.444-4.413 5.252-5.041 2.622zm-6.38 2.818c-2.72-5.02 2.349-8.407 3.472-3.18 1.124 5.228-2.405 5.15-3.473 3.18zm-4.443 4.412C0 15.059 3.56 10.703 5.962 15.013c2.402 4.31-.734 5.194-2.207 3.743z"/></svg>