<svg xmlns="http://www.w3.org/2000/svg" viewBox="0 0 45.505001068115234 23.94000244140625"><path d="M5.024 23.603H0V7.432h5.025v16.17zM2.698.001c.823.015 1.467.256 1.932.723.465.466.709 1.062.732 1.789-.007.712-.25 1.304-.728 1.776-.478.473-1.146.718-2.003.736-.809-.018-1.447-.263-1.915-.736C.248 3.817.01 3.225 0 2.513.01 1.786.256 1.19.737.723 1.217.257 1.872.016 2.697 0zm15.48.675c3.459.084 5.7 1.203 7.516 3.358 1.815 2.154 2.73 4.84 2.743 8.056-.047 3.748-1.06 6.652-3.039 8.714-1.979 2.062-4.243 3.108-7.586 3.136-3.338-.074-5.53-1.18-7.366-3.316-1.836-2.136-2.767-4.858-2.793-8.165.043-3.452 1.04-6.262 2.989-8.43C12.591 1.862 14.839.744 18.178.676zm-.1 4.011c-1.742.046-2.689.775-3.632 2.19-.943 1.414-1.42 3.241-1.43 5.481.014 2.265.5 4.084 1.455 5.457.956 1.372 1.894 2.077 3.607 2.114 1.725-.045 2.656-.775 3.586-2.19.93-1.415 1.4-3.242 1.41-5.481-.006-2.104-.468-3.877-1.385-5.318-.917-1.442-1.857-2.193-3.611-2.253zm11.983 16.594l3.465-3.286s2.02 1.614 3.143 1.628c1.245-.01 2.188-.233 2.83-.671.64-.438.963-1.03.966-1.779.012-.69-.296-1.274-.927-1.754-.63-.48-1.658-.946-3.082-1.4-1.885-.662-3.372-1.538-4.46-2.627-1.087-1.09-1.642-2.452-1.665-4.087.018-1.945.769-3.527 2.251-4.745 1.483-1.218 3.59-1.846 6.322-1.884 1.308.01 2.426.508 3.355.704.93.197 2.355 1.893 2.355 1.893l-2.915 2.58s-1.74-1.148-2.866-1.166c-1.17.02-2.042.24-2.617.663-.575.423-.861.929-.86 1.52-.01.694.338 1.268 1.047 1.72.708.451 1.837.94 3.388 1.468 1.95.728 3.39 1.638 4.317 2.73.928 1.094 1.389 2.432 1.381 4.016.016 1.964-.713 3.625-2.188 4.983-1.474 1.357-3.792 2.064-6.952 2.122-1.314-.015-2.529-.561-3.646-.846-1.117-.285-2.642-1.782-2.642-1.782z"/></svg>