<svg xmlns="http://www.w3.org/2000/svg" viewBox="0 0 44.33967971801758 47.5"><path d="M38 0a4.75 4.75 0 1 1 0 9.5A4.75 4.75 0 0 1 38 0zm-1.584 38a4.75 4.75 0 1 1 0 9.5 4.75 4.75 0 0 1 0-9.5zM4.75 19a4.75 4.75 0 1 1 0 9.5 4.75 4.75 0 0 1 0-9.5zm7.125 4.75a7.127 7.127 0 0 0-4.374-6.574C10.176 9.922 17.151 4.75 25.333 4.75c1.946 0 3.823.292 5.59.836a7.126 7.126 0 0 0 9.023 6.02 18.923 18.923 0 0 1 4.387 12.144c0 4.835-1.806 9.248-4.78 12.601a7.125 7.125 0 0 0-10.25 5.984c-1.28.272-2.608.415-3.97.415-8.182 0-15.157-5.172-17.832-12.426a7.127 7.127 0 0 0 4.374-6.574zm13.458-11.083c-6.121 0-11.083 4.962-11.083 11.083s4.962 11.083 11.083 11.083 11.083-4.962 11.083-11.083-4.962-11.083-11.083-11.083z"/></svg>