<svg xmlns="http://www.w3.org/2000/svg" viewBox="0 0 45.91699981689453 42.75"><path d="M7.917 3.167S9.5 0 17.417 0c3.872 0 6.166 1.315 8.169 2.874l-4.522 15.59c-2.157-1.45-4.367-2.63-6.814-2.63-6.333 0-9.5 1.583-9.5 1.583l3.167-14.25zm28.5 4.75c7.917 0 9.5-3.167 9.5-3.167l-4.75 15.833S38 23.75 31.667 23.75c-2.887 0-5.444-1.645-7.973-3.435l4.452-15.352c2.027 1.593 4.333 2.954 8.271 2.954zm-33.25 14.25S4.75 19 12.667 19c3.477 0 5.681 1.06 7.544 2.405l-4.536 15.64c-1.955-1.251-3.969-2.212-6.175-2.212-6.333 0-9.5 1.584-9.5 1.584l3.167-14.25zm28.5 4.75c7.917 0 9.5-3.167 9.5-3.167l-4.75 15.833s-3.167 3.167-9.5 3.167c-3.127 0-5.867-1.93-8.603-3.883l4.466-15.4c2.187 1.796 4.545 3.45 8.887 3.45z"/></svg>