<svg xmlns="http://www.w3.org/2000/svg" viewBox="0 0 36.41699981689453 25.333003997802734"><path d="M19 25.333h-5.541l-3.15-6.135c-.332-.638-.657-.785-.976-1.236l-.97-1.108c-.327-.289-.685-.895-1.074-1.027-.388-.132-.823.198-1.306.198l-1.233-.588v9.896H0L.09 0h7.782c1.168 0 2.243.14 3.223.418.98.28 1.834.701 2.562 1.267.727.565 1.692 1.27 2.103 2.115.411.844.616 1.83.616 2.957 0 .886-.127 1.698-.381 2.437a6.394 6.394 0 0 1-1.086 1.974 6.657 6.657 0 0 1-1.7 1.476c-.663.407-.904.592-1.837 1.012.426.264 3.845 3.9 4.185 4.462L19 25.333zM4.75 4.75v5.937l2.375.396c.615 0 3.585-1.529 3.798-2.075.212-.547.715-1.16.715-1.838 0-1.23.031-.605-.698-1.295-.73-.69-2.965-1.035-4.33-1.035l-1.86-.09zm31.667 0h-6.333v20.583h-4.75V4.75H19V0h17.417v4.75z"/></svg>