<svg xmlns="http://www.w3.org/2000/svg" viewBox="0 0 41.16600036621094 41.16600036621094"><path d="M0 0h41.166v41.166H0V0zm9.441 7.095L7.095 17.651s2.346-1.173 7.037-1.173c1.813 0 3.45.875 5.047 1.95l3.35-11.55c-1.483-1.154-3.182-2.128-6.05-2.128-5.865 0-7.038 2.345-7.038 2.345zm21.111 3.519c-2.917 0-4.625-1.008-6.126-2.188l-3.298 11.372c1.873 1.326 3.767 2.544 5.906 2.544 4.691 0 7.037-2.345 7.037-2.345l3.518-11.729s-1.173 2.346-7.037 2.346zM5.923 21.17L3.578 31.725s2.346-1.173 7.037-1.173c1.634 0 3.125.711 4.574 1.639l3.36-11.586c-1.38-.996-3.013-1.781-5.588-1.781-5.865 0-7.037 2.346-7.037 2.346zm21.112 3.518c-3.217 0-4.963-1.225-6.583-2.556L17.143 33.54c2.027 1.447 4.057 2.876 6.373 2.876 4.691 0 7.037-2.345 7.037-2.345l3.519-11.729s-1.173 2.346-7.037 2.346z"/></svg>