<svg xmlns="http://www.w3.org/2000/svg" viewBox="0 0 50.44499969482422 22.6460018157959"><path d="M.126 6.137l5.112 7.937L0 22.308h5.27l1.45-2.91c.39-.783.779-1.599 1.168-2.447h.095a34.76 34.76 0 0 0 1.198 2.447l1.546 2.91h5.427l-5.143-8.466 5.08-7.705h-5.206L9.528 8.783a57.49 57.49 0 0 0-1.198 2.48h-.064a194.49 194.49 0 0 0-1.262-2.414L5.49 6.137H.127zm20.848 4.826c-2.504 1.037-3.78 2.865-3.828 5.484-.014 1.556.593 2.955 1.82 4.197 1.226 1.242 3.156 1.898 5.788 1.97 2.47-.032 4.4-.656 5.79-1.874 1.39-1.218 2.097-2.84 2.12-4.865-.03-1.397-.396-2.548-1.097-3.453-.7-.905-1.554-1.56-2.56-1.964v-.101c1.044-.554 1.81-1.255 2.298-2.103.488-.848.73-1.75.724-2.708.02-1.384-.504-2.628-1.572-3.735C29.39.705 27.663.121 25.276.057c-2.114.022-3.829.569-5.145 1.64-1.315 1.07-1.993 2.533-2.032 4.387-.001.97.237 1.873.715 2.708.477.836 1.197 1.537 2.16 2.103v.068zm3.982 8.04c-.968-.028-1.725-.34-2.272-.937a3.01 3.01 0 0 1-.815-2.124c.006-.798.238-1.481.696-2.048.459-.567 1.11-.972 1.955-1.215 1.008.265 1.826.693 2.453 1.282.627.59.95 1.362.968 2.318-.013.79-.288 1.438-.826 1.943-.537.504-1.257.765-2.16.782zm.092-15.61c.906.027 1.564.308 1.973.845.409.536.61 1.163.603 1.88-.019.682-.235 1.268-.648 1.758a3.122 3.122 0 0 1-1.504 1c-.866-.266-1.572-.642-2.12-1.127a2.428 2.428 0 0 1-.848-1.833c0-.694.212-1.283.636-1.767.424-.483 1.06-.736 1.908-.757zM48.267.057C47.858 0 47.235.012 46.397.09c-3.338.158-6.057 1.225-8.16 3.203-1.122 1.106-2.005 2.486-2.647 4.139-.641 1.653-.969 3.524-.98 5.612-.008 2.737.67 5.005 2.033 6.804 1.363 1.799 3.451 2.731 6.265 2.798 2.283-.053 4.102-.817 5.456-2.293 1.355-1.476 2.048-3.35 2.081-5.62-.046-2.328-.66-4.112-1.843-5.353-1.183-1.241-2.662-1.868-4.436-1.88-1.986.034-3.51.608-4.57 1.723h-.098c.26-1.292.94-2.42 2.037-3.385 1.097-.964 2.738-1.554 4.923-1.77.71-.073 1.314-.096 1.81-.068V.057zm-5.425 18.915c-1.154-.04-2.017-.494-2.587-1.365-.57-.871-.878-1.921-.923-3.15-.005-.603.072-1.05.232-1.344.24-.564.62-1.03 1.138-1.396.518-.366 1.12-.556 1.809-.568 1.075.031 1.88.416 2.412 1.154.533.738.8 1.64.799 2.706-.01 1.16-.271 2.105-.782 2.834-.511.73-1.21 1.106-2.098 1.13z"/></svg>