<svg xmlns="http://www.w3.org/2000/svg" viewBox="0 0 50.35000228881836 22.6460018157959"><path d="M.126 6.137l5.112 7.937L0 22.308h5.27l1.45-2.91c.39-.783.779-1.599 1.168-2.447h.094a34.84 34.84 0 0 0 1.2 2.447l1.545 2.91h5.427l-5.143-8.466 5.08-7.705h-5.206L9.528 8.783a57.49 57.49 0 0 0-1.198 2.48h-.064a177.2 177.2 0 0 0-1.262-2.414L5.49 6.137H.127zM30.804.057C30.395 0 29.772.012 28.934.09c-3.338.158-6.058 1.225-8.16 3.203-1.123 1.106-2.005 2.486-2.647 4.139-.642 1.653-.969 3.524-.981 5.612-.007 2.737.671 5.005 2.034 6.804 1.363 1.799 3.451 2.731 6.265 2.798 2.283-.053 4.102-.817 5.456-2.293 1.354-1.476 2.048-3.35 2.08-5.62-.045-2.328-.659-4.112-1.842-5.353-1.183-1.241-2.662-1.868-4.436-1.88-1.987.034-3.51.608-4.57 1.723h-.099c.261-1.292.94-2.42 2.038-3.385 1.097-.964 2.738-1.554 4.923-1.77.71-.073 1.314-.096 1.81-.068V.057zm-5.425 18.915c-1.154-.04-2.017-.494-2.587-1.365-.57-.871-.878-1.921-.923-3.15-.006-.603.072-1.05.232-1.344.24-.564.62-1.03 1.138-1.396.518-.366 1.12-.556 1.809-.568 1.075.031 1.88.416 2.412 1.154.533.738.8 1.64.799 2.706-.01 1.16-.271 2.105-.782 2.834-.511.73-1.21 1.106-2.098 1.13zm22.526 3.336v-5.405h2.445V13.23h-2.445V.394h-5.771l-7.78 13.32v3.19h9.145v5.404h4.406zm-9.073-9.078l.031-.07 2.731-4.909a159.281 159.281 0 0 0 1.936-4.183h.092a100.416 100.416 0 0 0-.123 4.183v4.979h-4.667z"/></svg>