<svg xmlns="http://www.w3.org/2000/svg" viewBox="0 0 39 46.00306701660156"><path d="M0 0h24l12 12v16.151c1.856 1.894 3 4.488 3 7.349C39 41.299 34.299 46 28.5 46a10.481 10.481 0 0 1-8.247-4H0V0zm4 4v34h14.3a10.53 10.53 0 0 1-.3-2.5C18 29.701 22.701 25 28.5 25c1.227 0 2.405.21 3.5.597V17H19V4H4zm19 0v9h9l-9-9zm1.998 33.985c0 .473.1.907.298 1.3.198.393.473.73.824 1.011.35.281.77.499 1.257.653.488.154 1.02.231 1.599.231a5.24 5.24 0 0 0 1.612-.235 3.874 3.874 0 0 0 1.258-.66c.352-.283.623-.622.816-1.015a2.94 2.94 0 0 0 .289-1.31c0-.317-.047-.622-.14-.916a2.725 2.725 0 0 0-.421-.816 3.11 3.11 0 0 0-.696-.67 3.746 3.746 0 0 0-.96-.48c.588-.282 1.048-.64 1.382-1.074.333-.434.5-.917.5-1.449 0-.422-.089-.813-.267-1.172a2.797 2.797 0 0 0-.746-.934 3.572 3.572 0 0 0-1.144-.616A4.575 4.575 0 0 0 29 29.61a4.48 4.48 0 0 0-1.442.223c-.44.148-.82.355-1.137.62a2.888 2.888 0 0 0-.745.946c-.18.364-.27.76-.27 1.186 0 .537.157 1.025.47 1.465.312.44.752.8 1.318 1.083-.37.124-.691.284-.965.48a3.016 3.016 0 0 0-.683.663 2.72 2.72 0 0 0-.41.805c-.091.29-.137.59-.137.904zm2.335-.212c0-.239.042-.46.125-.663l.344-.527c.146-.149.32-.263.524-.344.203-.081.422-.121.657-.121.25 0 .475.044.675.132l.519.355c.146.148.258.324.336.528l.118.64c0 .25-.042.476-.125.68a1.494 1.494 0 0 1-.344.516l-.519.328-.66.118-.676-.114-.52-.325a1.412 1.412 0 0 1-.336-.516 1.901 1.901 0 0 1-.118-.688zm.345-4.96l.098-.56.273-.452.423-.305.541-.114.529.11.43.302.285.452.101.566-.106.556-.289.452-.425.305-.525.11-.518-.11-.427-.301-.285-.453-.105-.559z"/></svg>