<svg xmlns="http://www.w3.org/2000/svg" viewBox="0 0 36 42"><path d="M0 0h5v4H4v1H0V0zm23.25 0l3.168 3.168-2.75 2.75L23 5.25V5h-4V0h4.25zM36 12.75V17h-5v-4h-.25l-.668-.668 2.75-2.75L36 12.75zM25.082 7.332l2.75-2.75 3.586 3.586-2.75 2.75-3.586-3.586zM23 11h-4V7h4v4zm2 6v-4h4v4h-4zm11 12h-4v-4h4v4zm-4-10h4v4h-4v-4zM13 4V0h4v4h-4zm23 38h-5v-4h1v-1h4v5zm-11 0v-4h4v4h-4zm-6 0v-4h4v4h-4zm13-11h4v4h-4v-4zm-9-18v4h-4v-4h4zM13 42v-4h4v4h-4zm-6 0v-4h4v4H7zm-7 0v-5h4v1h1v4H0zm0-11h4v4H0v-4zm0-6h4v4H0v-4zm0-6h4v4H0v-4zm0-6h4v4H0v-4zm0-6h4v4H0V7zm7-3V0h4v4H7z"/></svg>