<svg xmlns="http://www.w3.org/2000/svg" viewBox="0 0 39 46.00306701660156"><path d="M0 0h24l12 12v16.151c1.856 1.894 3 4.488 3 7.349C39 41.299 34.299 46 28.5 46a10.481 10.481 0 0 1-8.247-4H0V0zm4 4v34h14.3a10.53 10.53 0 0 1-.3-2.5C18 29.701 22.701 25 28.5 25c1.227 0 2.405.21 3.5.597V17H19V4H4zm19 0v9h9l-9-9zm2.288 36.633c.724.374 1.664.562 2.82.562 1.349 0 2.406-.305 3.172-.914.765-.609 1.148-1.437 1.148-2.483 0-.694-.229-1.279-.687-1.756-.459-.476-1.084-.764-1.875-.862v-.04c1.485-.37 2.227-1.287 2.227-2.75 0-.823-.319-1.492-.957-2.008-.639-.514-1.531-.772-2.678-.772-1.046 0-1.963.197-2.75.593v2.014c.709-.483 1.438-.724 2.188-.724 1.12 0 1.68.455 1.68 1.367 0 .968-.73 1.453-2.188 1.453h-.96v1.89h1.04c.76 0 1.358.135 1.793.406.435.27.652.656.652 1.156 0 .485-.175.863-.527 1.134-.352.27-.843.406-1.473.406-1 0-1.875-.273-2.625-.82v2.148z"/></svg>