<svg xmlns="http://www.w3.org/2000/svg" viewBox="0 0 55.77400207519531 64.17599487304688"><path d="M53.774 40.088H.692a34.72 34.72 0 0 0 1.576 5h46.506v19.088a34.902 34.902 0 0 0 5-2.69V40.088zm-50-7v2h4v-2h-4zm6 0v2h4v-2h-4zm6 0v2h4v-2h-4zm6 0v2h4v-2h-4zm6 0v2h4v-2h-4zm6 0v2h4v-2h-4zm6 0v2h4v-2h-4zm6 0v2h4v-2h-4zm6 0v2h4v-2h-4zm2-5V2.689a34.919 34.919 0 0 0-5-2.689v23.088H.942a34.851 34.851 0 0 0-.942 5h53.774zm-11-11v-5H6.047a34.965 34.965 0 0 0-2.905 5h39.632zm0 39v-5H5.375a35.148 35.148 0 0 0 3.923 5h33.476zm0-49v-5H16.736a35.143 35.143 0 0 0-6.457 5h32.495z"/></svg>