<svg xmlns="http://www.w3.org/2000/svg" viewBox="0 0 53.94300079345703 53.944000244140625"><path d="M53.943 0H5.544a34.916 34.916 0 0 0-2.689 5h3.088v5H1.111c-.088.331-.171.665-.25 1h5.082v5H.07A35.29 35.29 0 0 0 0 17h5.943v5H.07c.028.335.061.668.1 1h5.773v5H1.111c.18.675.378 1.342.596 2h4.236v5H3.806c.173.337.352.67.536 1h1.601v2.602c.322.476.656.943 1 1.401V36h5v5H7.72c.274.339.554.672.84 1h3.383v3.382c.328.287.661.567 1 .84V42h5v5H13.94c.458.344.925.678 1.4 1h2.603v1.601c.33.184.663.363 1 .536V48h5v4.237c.658.217 1.325.416 2 .595V48h5v5.774c.332.038.665.07 1 .1V48h5v5.944c.335-.019.668-.043 1-.07V48h5v5.082a34.93 34.93 0 0 0 1-.25V48h5v3.088a34.912 34.912 0 0 0 5-2.69V0zm-5 42v5h-5v-5h5zm-6 0v5h-5v-5h5zm-6 0v5h-5v-5h5zm-6 0v5h-5v-5h5zm-7 0v5h-5v-5h5zm25-6v5h-5v-5h5zm-6 0v5h-5v-5h5zm-6 0v5h-5v-5h5zm-6 0v5h-5v-5h5zm-7 0v5h-5v-5h5zm-6 0v5h-5v-5h5zm31-6v5h-5v-5h5zm-6 0v5h-5v-5h5zm-6 0v5h-5v-5h5zm-6 0v5h-5v-5h5zm-7 0v5h-5v-5h5zm-6 0v5h-5v-5h5zm-6 0v5h-5v-5h5zm37-7v5h-5v-5h5zm-6 0v5h-5v-5h5zm-6 0v5h-5v-5h5zm-6 0v5h-5v-5h5zm-7 0v5h-5v-5h5zm-6 0v5h-5v-5h5zm-6 0v5h-5v-5h5zm37-6v5h-5v-5h5zm-6 0v5h-5v-5h5zm-6 0v5h-5v-5h5zm-6 0v5h-5v-5h5zm-7 0v5h-5v-5h5zm-6 0v5h-5v-5h5zm-6 0v5h-5v-5h5zm37-6v5h-5v-5h5zm-6 0v5h-5v-5h5zm-6 0v5h-5v-5h5zm-6 0v5h-5v-5h5zm-7 0v5h-5v-5h5zm-6 0v5h-5v-5h5zm-6 0v5h-5v-5h5zm37-6v5h-5V5h5zm-6 0v5h-5V5h5zm-6 0v5h-5V5h5zm-6 0v5h-5V5h5zm-7 0v5h-5V5h5zm-6 0v5h-5V5h5zm-6 0v5h-5V5h5z"/></svg>