<svg xmlns="http://www.w3.org/2000/svg" viewBox="0 0 39 46.00306701660156"><path d="M0 0h24l12 12v16.151c1.856 1.894 3 4.488 3 7.349C39 41.299 34.299 46 28.5 46a10.481 10.481 0 0 1-8.247-4H0V0zm4 4v34h14.3c-.196-.801-.3-1.639-.3-2.5C18 29.701 22.701 25 28.5 25c1.227 0 2.405.21 3.5.597V17H19V4H4zm19 0v9h9l-9-9zm9.866 30.86c0-.828-.09-1.568-.27-2.219-.18-.65-.44-1.2-.781-1.648a3.437 3.437 0 0 0-1.238-1.028c-.484-.237-1.031-.355-1.641-.355a4.37 4.37 0 0 0-1.609.285c-.484.19-.9.46-1.246.809a3.67 3.67 0 0 0-.809 1.25 4.32 4.32 0 0 0-.289 1.608c0 .506.08.969.238 1.39.158.422.38.785.664 1.09a3.048 3.048 0 0 0 2.278.973c1.01 0 1.763-.367 2.258-1.1l.047.015c-.006 1.093-.25 1.93-.729 2.508-.479.578-1.142.867-1.99.867-.829 0-1.537-.193-2.126-.578v2.03c.662.292 1.451.438 2.368.438.765 0 1.45-.145 2.053-.434a4.225 4.225 0 0 0 1.536-1.246c.419-.542.738-1.204.957-1.987.22-.784.329-1.673.329-2.668zm-2.493-1.313l-.105.64-.296.517-.458.347a1.345 1.345 0 0 1-.593.129c-.23 0-.439-.04-.627-.121a1.306 1.306 0 0 1-.48-.356 1.68 1.68 0 0 1-.308-.574l-.11-.776.11-.744.305-.59c.13-.164.285-.293.465-.386.18-.094.377-.14.59-.14.223 0 .428.053.616.16.188.106.347.25.477.433l.305.653.11.809z"/></svg>