<svg xmlns="http://www.w3.org/2000/svg" viewBox="0 0 53.874000549316406 53.874000549316406"><path d="M26.874 16v6h-2v-6h2zm0 11h4v2h-6v-6h2v4zm22 11v6h-3v-6h3zm-3 14h.69a34.862 34.862 0 0 0 7.31-3.601V31.667a9.506 9.506 0 0 0-2.782-6.718L28.924 2.783A9.506 9.506 0 0 0 22.207 0H5.475a34.867 34.867 0 0 0-3.601 7.31V8h-.236c-.11.331-.215.665-.315 1h.551v6H.1c-.038.332-.07.665-.1 1h1.874v6H.001c.028.335.061.668.1 1h1.773v6h-.55c.1.336.204.669.314 1h.236v.69a35.03 35.03 0 0 0 1 2.509V30h6v6H4.273c.379.681.78 1.348 1.202 2h3.399v4.431c.326.362.66.716 1 1.064V38h6v6h-5.495c.348.34.702.674 1.064 1h4.431v3.399a35.05 35.05 0 0 0 2 1.202V45h6v6h-3.199c.82.364 1.657.698 2.509 1h.69v.237c.331.109.665.214 1 .314V52h6v1.774c.332.038.665.07 1 .1V52h6v1.873a34.99 34.99 0 0 0 1-.1V52h6v.55a36.3 36.3 0 0 0 1-.313V52zm.083-26.667C43.804 23.223 40.675 22 37.874 22h-6v-6c0-2.65-1.094-5.593-3-7.727V8.25l17.083 17.083zM2.874 8V5h6v3h-6zm7 0V5h6v3h-6zm8 0V5.178c2.15.387 4.074 1.39 5.585 2.822h-5.585zm7 7V9.636A10.959 10.959 0 0 1 26.83 15h-1.956zm7 14v-2h6v2h-6zm7 0v-1.956A10.96 10.96 0 0 1 44.238 29h-5.364zm7 7v-5.585A10.922 10.922 0 0 1 48.696 36h-2.822zm0 9h3v6h-3v-6zm-1-7v6h-6v-6h6zm-6 13v-6h6v6h-6zm-1-13v6h-6v-6h6zm-6 13v-6h6v6h-6zm-1-13v6h-6v-6h6zm-6 13v-6h6v6h-6zm-1-13v6h-6v-6h6zm-8-2h-6v-6h6v6zm0-7h-6v-6h6v6zm-13-6h6v6h-6v-6zm13-1h-6v-6h6v6zm-13-6h6v6h-6v-6zm13-1h-6V9h6v6zm-13-6h6v6h-6V9zm36 21h6v6h-6v-6zm-7 0h6v6h-6v-6zm-7 0h6v6h-6v-6zm-7-15V9h6v6h-6zm0 7v-6h6v6h-6zm0 7v-6h6v6h-6zm0 7v-6h6v6h-6z"/></svg>