<svg xmlns="http://www.w3.org/2000/svg" viewBox="0 0 39 46.00306701660156"><path d="M0 0h24l12 12v16.151c1.856 1.894 3 4.488 3 7.349C39 41.299 34.299 46 28.5 46a10.481 10.481 0 0 1-8.247-4H0V0zm4 4v34h14.3a10.53 10.53 0 0 1-.3-2.5C18 29.701 22.701 25 28.5 25c1.227 0 2.405.21 3.5.597V17H19V4H4zm19 0v9h9l-9-9zm8.848 25.797h-2.29l-.948 1.77-1.208 1.84-1.344 1.777-1.342 1.589v1.93h4.882V41h2.25v-2.297h1.578V36.86h-1.578v-7.063zm-4.922 7.063l.696-.888.71-.976.672-1.024.594-1.027v3.915h-2.672z"/></svg>