<svg xmlns="http://www.w3.org/2000/svg" viewBox="0 0 39 46.00306701660156"><path d="M0 0h24l12 12v16.151c1.856 1.894 3 4.488 3 7.349C39 41.299 34.299 46 28.5 46a10.481 10.481 0 0 1-8.247-4H0V0zm4 4v34h14.3a10.53 10.53 0 0 1-.3-2.5C18 29.701 22.701 25 28.5 25c1.227 0 2.405.21 3.5.597V17H19V4H4zm19 0v9h9l-9-9zm2.483 36.71c.734.323 1.64.485 2.718.485 1.328 0 2.38-.358 3.156-1.074.776-.716 1.164-1.639 1.164-2.769 0-1.021-.326-1.834-.976-2.438-.651-.604-1.552-.907-2.702-.907l-1.04.048.155-2.242h4.048v-2.016h-5.93l-.42 6.25 2-.132c1.566 0 2.35.554 2.35 1.663 0 .531-.184.952-.55 1.262-.367.31-.876.465-1.528.465a4.6 4.6 0 0 1-2.445-.703v2.108z"/></svg>