<svg xmlns="http://www.w3.org/2000/svg" viewBox="0 0 38.00004577636719 45.91800308227539"><path d="M0 .001h22.958l11.875 11.875v20.062A4.752 4.752 0 0 1 38 36.418v4.75a4.75 4.75 0 0 1-4.75 4.75H12.667a4.75 4.75 0 0 1-4.75-4.75H0V0zm31.667 15.833H19V3.167H3.167v34.834h4.75v-1.584a4.75 4.75 0 0 1 4.75-4.75h19V15.834zm-9.5-11.875v8.708h8.708l-8.708-8.708zM11.083 39.584v1.583h1.584v-1.583h-1.584zm1.584 1.583v1.584h3.166v-1.584h-3.166zm3.166 0h1.584v-6.333H14.25v1.583h1.583v4.75zM19 42.751h1.583v-1.584h3.167v-1.583h-3.167v-3.167h3.167v-1.583H19v7.917zm4.75-3.167h1.583v-3.167H23.75v3.167zm9.5 3.167v-4.75h-3.167v1.583h1.584v1.583H28.5v1.584h4.75zm-4.75-1.584v-4.75h-1.583v4.75H28.5zm0-4.75h4.75v-1.583H28.5v1.583z"/></svg>