<svg xmlns="http://www.w3.org/2000/svg" viewBox="0 0 37.000003814697266 47.89295959472656"><path d="M37 18.58V38c0 1.447-.184 2.538-.552 3.275-.369.736-1.222 1.6-2.102 2.08-.88.478-1.876.717-2.986.717-1.275 0-2.292-.365-3.051-1.096-.759-.731-1.138-1.674-1.138-2.83 0-1.166.45-2.173 1.348-3.022.9-.849 2.061-1.273 3.485-1.273l1.237.124.759.275V24.225l-9 3.122V42c0 1.413-.187 2.514-.56 3.303-.375.789-1.23 1.412-2.14 1.88a6.43 6.43 0 0 1-2.98.7c-1.272 0-2.279-.358-3.02-1.076-.743-.718-1.114-1.656-1.114-2.815 0-1.227.444-2.257 1.332-3.093.888-.836 2.05-1.253 3.485-1.253.679 0 1.289-.05 1.997.232V24l15-5.42zM0 0h23.25L36 12.75v5l-4 1.5V17H19V4H4v34h13.5L14 42H0V0zm23 5.25V13h7.75L23 5.25z"/></svg>