<svg xmlns="http://www.w3.org/2000/svg" viewBox="0 0 53.944000244140625 51.08799743652344"><path d="M15.944 5c6.121 0 11 4.879 11 11v11h11c6.121 0 11 4.879 11 11v13.088a34.922 34.922 0 0 0 5-2.69v-16.73a9.506 9.506 0 0 0-2.782-6.718L28.994 2.783A9.506 9.506 0 0 0 22.277 0H5.545a34.915 34.915 0 0 0-2.689 5h13.088zm12.667 2.917l17.416 17.416C43.874 23.223 40.745 22 37.944 22h-6v-6c0-2.801-1.222-5.93-3.333-8.083zM20.944 11H.862a34.93 34.93 0 0 0-.791 5h20.873v-5zm0 10H0a35.03 35.03 0 0 0 .644 5h20.3v-5zm22 10H2.055a34.819 34.819 0 0 0 2.289 5h38.6v-5zm0 10H7.721a35.212 35.212 0 0 0 4.95 5h30.273v-5z"/></svg>