<svg xmlns="http://www.w3.org/2000/svg" viewBox="0 0 39 46.00306701660156"><path d="M0 0h24l12 12v16.151c1.856 1.894 3 4.488 3 7.349C39 41.299 34.299 46 28.5 46a10.481 10.481 0 0 1-8.247-4H0V0zm4 4v34h14.3a10.53 10.53 0 0 1-.3-2.5C18 29.701 22.701 25 28.5 25c1.227 0 2.405.21 3.5.597V17H19V4H4zm19 0v9h9l-9-9zm5.913 37.195c1.329 0 2.348-.505 3.059-1.515.71-1.01 1.066-2.463 1.066-4.36 0-3.807-1.302-5.71-3.907-5.71-1.37 0-2.416.51-3.136 1.528-.721 1.018-1.082 2.498-1.082 4.44 0 3.744 1.334 5.617 4 5.617zm.108-9.703c1 0 1.5 1.302 1.5 3.906s-.51 3.907-1.53 3.907c-1.047 0-1.57-1.263-1.57-3.79 0-2.682.533-4.023 1.6-4.023z"/></svg>