<svg xmlns="http://www.w3.org/2000/svg" viewBox="0 0 39.21699905395508 48.24800109863281"><path d="M16.307 39.443c-2.237 2.077-6.224 6.307-3.519 5.574 4.36-2.621 7.083-11.026 9.306-16.646-2.587-5.742-.093-10.198 1.874-10.33 2.397-.16 3.021 4.383 3.021 4.383s-2.656-2.007-3.06-3.231c-.459.114-.95 3.836.404 7.953 1.584-1.98 2.375-3.959 2.375-3.959s1.98 1.98-.99 5.018c.53 1.176 3.422 5.918 4.733 6.776 8.299-2.231 8.695 2.145 8.695 2.145-1.282-1.17-4.117-1.29-7.267-.952 3.974 2.088 7.338 1.397 7.338 1.397 0 1.635-5.384 3.429-9.357-.336-4.162.653-8.412 2.655-10.094 3.16-4.494 7.853-9.409 7.23-10.078 5.355-1.188-3.167 6.619-6.307 6.619-6.307zm7.688-9.624l-2.94 8.103c1.726-.495 3.633-1.443 7.053-2.114C27 35 26 34 23.995 29.818zM0 0h23.25L36 12.75V33l-4 .25V17H19V4H4v34h10.5L10 42H0V0zm20 42v-.5l9-3 7 3.5H20zm3-36.75V13h7.75L23 5.25z"/></svg>