<svg xmlns="http://www.w3.org/2000/svg" viewBox="0 0 38 44.33300018310547"><path d="M12.667 6.333H6.333C9.5 3.166 19 4.75 19 4.75c6.333-4.75 9.5-1.584 9.5-1.584-1.583 0-4.75 1.584-4.75 1.584C36.417 4.75 38 7.916 38 7.916c-7.917-1.583-14.25 0-14.25 0C33.25 12.666 34.833 19 34.833 19c-6.06-6.062-11.194-7.482-13.267-7.815 3.432 14.98 3.392 19.13 2.58 29.981 6.333 0 9.104 3.167 9.104 3.167H9.5s4.354-3.167 9.104-3.167c0 0 3.655-11.986.699-26.987-1.886 5.55-1.886 11.154-1.886 11.154-3.167-3.167-1.584-12.667-1.584-12.667C12.667 12.666 4.75 19 4.75 19c0-4.75 7.917-9.5 7.917-9.5C3.167 11.083 0 14.25 0 14.25c3.167-6.334 12.667-7.917 12.667-7.917z"/></svg>