<svg xmlns="http://www.w3.org/2000/svg" viewBox="0 0 38 44.33300018310547"><path d="M12.667 6.333H6.333C9.5 3.167 19 4.75 19 4.75c6.333-4.75 9.5-1.583 9.5-1.583-1.583 0-4.75 1.583-4.75 1.583C36.417 4.75 38 7.917 38 7.917c-7.917-1.584-14.25 0-14.25 0C33.25 12.667 34.833 19 34.833 19c-7.916-7.917-14.25-7.917-14.25-7.917-3.166 6.334-3.166 14.25-3.166 14.25-3.167-3.166-1.584-12.666-1.584-12.666C12.667 12.667 4.75 19 4.75 19c0-4.75 7.917-9.5 7.917-9.5C3.167 11.083 0 14.25 0 14.25c3.167-6.333 12.667-7.917 12.667-7.917zm7.52 8.709l1.584-3.563L24.146 19c1.583 0 .396 6.333.396 6.333 1.583 0 0 6.334 0 6.334 1.583 0-.792 4.75-.792 4.75 1.583 0 .396 4.75.396 4.75 6.333 0 9.104 3.166 9.104 3.166H9.5s4.354-3.166 9.104-3.166c0 0 .396-4.75 1.98-4.75 0 0-.792-4.75.791-4.75 0 0-1.583-6.334 0-6.334 0 0-1.98-6.333-.396-6.333l-.791-3.958z"/></svg>