<svg xmlns="http://www.w3.org/2000/svg" viewBox="0 0 45.12700271606445 45.91699981689453"><path d="M45.127 15.042c0 7.432-6.38 16.625-14.25 16.625H18.849l-3.014 14.25H4.752l.586-2.771h8.518l3.014-14.25h12.027c7.87 0 14.25-9.192 14.25-16.625 0-1.558-.28-2.915-.795-4.087 1.744 1.621 2.775 3.87 2.775 6.858zM8.71 0h19v.04c7.125.37 12.667 4.71 12.667 10.252 0 8.708-6.38 16.625-14.25 16.625H14.495l-3.014 14.25H0L8.71 0zm20.98 12.667c-.185-2.214-1.333-3.354-3.15-3.959h-8.193l-2.345 11.084h6.161c4.694-1.429 7.526-4.53 7.526-7.125z"/></svg>