<svg xmlns="http://www.w3.org/2000/svg" viewBox="0 0 44.33399963378906 42.753562927246094"><path d="M34.834 28.5h6.333l-4.09 4.75h7.257V38h-7.257l4.09 4.75h-6.333l-5.542-7.125 5.542-7.125zM17.417 0a7.917 7.917 0 1 1 0 15.834 7.917 7.917 0 0 1 0-15.834zM9.5 26.917c-1.055.528-3.166 4.75-3.166 4.75S5.278 33.25 4.75 39.584L0 38l1.584-7.916S4.75 19 11.084 19H23.75c4.674 0 7.623 6.035 8.848 9.199l-3.673 4.489-.425-1.021s-2.11-4.222-3.166-4.75l.64 14.38a21.322 21.322 0 0 1-7.765 1.453c-3.34 0-6.5-.765-9.315-2.13L9.5 26.917z"/></svg>