<svg xmlns="http://www.w3.org/2000/svg" viewBox="0 0 39.487998962402344 46.86501693725586"><path d="M27.674 34.951l3.329 3.328 6.157-6.157 2.328 2.329-8.485 8.485-5.657-5.657 2.328-2.328zm8.493-4.086l-3 3h-8.75v10h10v-1.571l3-3.429v8h-16v-16h14.75zM17.417.032a7.917 7.917 0 1 1 0 15.833 7.917 7.917 0 0 1 0-15.833zM9.5 26.948c-1.055.528-3.166 4.75-3.166 4.75s-1.056 1.584-1.584 7.917L0 38.032l1.584-7.917s3.166-11.083 9.5-11.083H23.75c5.767 0 8.909 9.19 9.424 10.833h-5.662c-.693-1.21-1.596-2.626-2.178-2.917l.13 2.917h-5.047v12.804l-2.208.113a21.29 21.29 0 0 1-9.315-2.131L9.5 26.948z"/></svg>