<svg xmlns="http://www.w3.org/2000/svg" viewBox="0 0 49.8849983215332 47.54020690917969"><path d="M4.75 33.282v-11.48L0 26.552V20.22l7.917-8.312 7.917 8.312v6.334l-4.75-4.75v11.48H4.75zm22.167 14.25l-2.945-.16 1.362-20.424c-1.056.528-3.167 4.75-3.167 4.75s-1.056 1.584-1.583 7.917l-4.75-1.583 1.583-7.917s3.167-11.083 9.5-11.083h12.666c6.334 0 9.5 11.083 9.5 11.083l.802 4.542a27.037 27.037 0 0 1-4.061 5.116c-.55-5.605-1.49-8.075-1.49-8.075s-2.111-4.222-3.167-4.75l.899 15.92a26.792 26.792 0 0 1-15.149 4.663zM33.25.032a7.917 7.917 0 1 1 0 15.833 7.917 7.917 0 0 1 0-15.833z"/></svg>