<svg xmlns="http://www.w3.org/2000/svg" viewBox="0 0 38 37.8024787902832"><path d="M25.452 7a5.704 5.704 0 1 1 0 11.407 5.704 5.704 0 0 1 0-11.407zm-5.704 19.393c-.76.38-2.281 3.422-2.281 3.422s-.76 1.14-1.141 5.704l-3.422-1.141 1.14-5.704s2.282-7.985 6.845-7.985h9.126c4.563 0 6.844 7.985 6.844 7.985L38 34.378l-3.422 1.14c-.38-4.562-1.14-5.703-1.14-5.703s-1.522-3.042-2.282-3.422l.46 10.36a15.361 15.361 0 0 1-5.594 1.047c-2.405 0-4.682-.552-6.71-1.535l.436-9.872zM7 0v4a3 3 0 0 1-3 3H0V0h7zM4.5 12l-.5-.016V9.977l.5.023A5.5 5.5 0 0 0 10 4.5L9.977 4h2.006l.017.5A7.5 7.5 0 0 1 4.5 12zM17 5c0 6.627-5.373 12-12 12l-1-.041V14.95L5 15c5.523 0 10-4.477 10-10l-.05-1h2.009L17 5zm5 0l-.011.63a7.51 7.51 0 0 0-2.126 1.405C19.953 6.37 20 5.69 20 5l-.033-1h2.004L22 5zM5 22l-1-.029v-2.004L5 20c5.24 0 9.854-2.688 12.536-6.76a7.44 7.44 0 0 0 .678 2.457A16.967 16.967 0 0 1 5 22z"/></svg>