<svg xmlns="http://www.w3.org/2000/svg" viewBox="0 0 45.125 42.753562927246094"><path d="M39.584 28.5l5.541 7.125-5.541 7.125H33.25L37.34 38h-7.256v-4.75h7.257l-4.09-4.75h6.333zM17.417 0a7.917 7.917 0 1 1 0 15.834 7.917 7.917 0 0 1 0-15.834zM9.5 26.917c-1.055.528-3.166 4.75-3.166 4.75S5.278 33.25 4.75 39.584L0 38l1.584-7.916S4.75 19 11.084 19H23.75c4.218 0 7.032 4.917 8.44 8.2l-3.69 4.467s-2.11-4.222-3.166-4.75l.64 14.38a21.322 21.322 0 0 1-7.765 1.453c-3.34 0-6.5-.765-9.315-2.13L9.5 26.917zm20.584 12.667l-.036-.413.202.357-.166.056z"/></svg>