<svg xmlns="http://www.w3.org/2000/svg" viewBox="0 0 40.79100036621094 33.58137512207031"><path d="M13.771.029a6.26 6.26 0 1 1 0 12.519 6.26 6.26 0 0 1 0-12.52zm-6.26 21.03c-.834.419-2.503 3.757-2.503 3.757s-.835 1.252-1.252 6.26L0 29.823l1.252-6.26s2.504-8.762 7.511-8.762h10.015c5.007 0 7.511 8.763 7.511 8.763l1.252 6.26-3.756 1.25c-.417-5.006-1.251-6.258-1.251-6.258s-1.67-3.338-2.504-3.756l.506 11.37a16.857 16.857 0 0 1-6.14 1.149c-2.64 0-5.138-.605-7.364-1.685l.48-10.834zm15.28-19.23h18v3h-18v-3zm0 6h18v3h-18v-3zm2 6h16v3h-16v-3zm3 6h13v3h-13v-3zm2 6h11v3h-11v-3z"/></svg>