<svg xmlns="http://www.w3.org/2000/svg" viewBox="0 0 47.499996185302734 40.827003479003906"><path d="M1.951 17.867l-.784-.172-.608-.478-.406-.713L0 15.649v-2.458c0-1.722.352-3.3 1.057-4.736a12.192 12.192 0 0 1 2.875-3.769C5.144 3.609 6.56 2.727 8.179 2.042A18.447 18.447 0 0 1 13.353.709l3.701-.345 3.688-.253L24.859 0l3.857.13 3.135.254 2.862.39c1.765.243 3.425.71 4.982 1.402 1.557.691 2.912 1.572 4.065 2.64a12.036 12.036 0 0 1 2.735 3.74c.67 1.425 1.005 2.989 1.005 4.693v2.485l-.163.82-.448.682-.66.459-.804.172H37.64l-.79-.172-.641-.469-.426-.683-.153-.835v-5.301l-.172-.956-.478-.784-.722-.537a2.047 2.047 0 0 0-.905-.201H14.491c-.325 0-.644.067-.956.201l-.813.537-.56.803a2.316 2.316 0 0 0-.214.976v5.203l-.162.855-.456.712-.67.479-.806.172H1.95zm18.632 1.585h6.334v11.479l4.75-4.75v6.333l-7.917 8.313-7.917-8.313v-6.333l4.75 4.75v-11.48z"/></svg>