<svg xmlns="http://www.w3.org/2000/svg" viewBox="0 0 39.618988037109375 39.7449951171875"><path d="M37.506 2.176l-.063.062s2.176.512-7.206 10.9l1.194 6.308.414-.414a1.584 1.584 0 1 1 2.24 2.24l-2.001 2 .448 2.911.153-.153a1.584 1.584 0 0 1 2.24 2.239l-1.878 1.877c.367 3.267.508 6.087.198 7.64 0 0-1.96 1.959-3.079.839 0 0-3.793-12.897-6.384-18.707-9.996 10.164-10.69 9.47-10.69 9.47s1.96 6.438-.28 8.677l-3.918-7.277.063-.063-7.277-3.919c2.239-2.239 8.676-.28 8.676-.28s-.693-.693 9.47-10.69C14.016 13.246 1.12 9.453 1.12 9.453c-1.12-1.12.84-3.08.84-3.08 1.551-.31 4.372-.168 7.64.198l1.876-1.877a1.584 1.584 0 0 1 2.24 2.24l-.154.153 2.91.448 2.001-2a1.583 1.583 0 1 1 2.24 2.238l-.414.414 6.308 1.195c10.388-9.382 10.9-7.206 10.9-7.206z"/></svg>