<svg xmlns="http://www.w3.org/2000/svg" viewBox="0 0 38 19"><path d="M9.5 17.417V19H4.75v-1.583A4.75 4.75 0 0 1 0 12.667V4.75A4.75 4.75 0 0 1 4.75 0h28.5A4.75 4.75 0 0 1 38 4.75v7.917a4.75 4.75 0 0 1-4.75 4.75V19H28.5v-1.583h-19zM8.708 3.959a4.75 4.75 0 1 0 0 9.5 4.75 4.75 0 0 0 0-9.5zm0 2.375a2.375 2.375 0 1 1 0 4.75 2.375 2.375 0 0 1 0-4.75zm11.875-3.167V4.75h6.334V3.167h-6.334zm7.917 0V4.75h6.333V3.167H28.5zm-7.917 3.167v1.583h6.334V6.334h-6.334zm7.917 0v1.583h6.333V6.334H28.5zM20.583 9.5v1.584h6.334V9.5h-6.334zm7.917 0v1.584h6.333V9.5H28.5zm-7.917 3.167v1.583h6.334v-1.583h-6.334zm7.917 0v1.583h6.333v-1.583H28.5z"/></svg>