<svg xmlns="http://www.w3.org/2000/svg" viewBox="0 0 38 38"><path d="M3.167 3.167h3.166v3.166H3.167V3.167zM0 0h9.5v9.5H0V0zm1.583 1.584v6.333h6.334V1.583H1.583zm30.084 1.583h3.166v3.166h-3.166V3.167zM28.5 0H38v9.5h-9.5V0zm1.583 1.584v6.333h6.334V1.583h-6.334zM3.167 31.666h3.166v3.166H3.167v-3.166zM0 28.5h9.5V38H0v-9.5zm1.583 1.583v6.334h6.334v-6.334H1.583zM0 12.667h3.167v3.166h3.166V19h6.334v-3.166H6.333v-3.167h6.334v3.166H19v6.334h-3.167v3.166h6.334v6.334H19v3.166h3.166V38H19v-3.167h-3.167V38h-3.166v-9.5h3.166v3.167H19V28.5h-3.167v-3.167H9.5v-3.166H3.167v3.166H0v-3.166h3.167v-6.334H0v-3.166zM15.833 19h-3.166v3.167h3.166V19zm6.334-3.166h3.166v-3.167H19V9.5h-3.167v3.167h-3.166V9.5h3.166V6.333h-3.166V0h3.166v6.333H19V3.167h3.167V0h3.166v6.333h-3.166V9.5h3.166v3.167H28.5V19h3.167v3.167h3.166V28.5H38v6.333h-3.167v-3.166h-3.166V38h-6.334v-3.167H28.5v-3.166h-3.167V28.5H28.5v3.167h3.167v-6.334H28.5V19h-3.167v6.333h-3.166v-9.5zm9.5-3.167h3.166v3.166H38V19h-6.333v-6.333z"/></svg>