<svg xmlns="http://www.w3.org/2000/svg" viewBox="0 0 47.38055419921875 46.321815490722656"><path d="M33.13 36.417c1.208 0 2.311.452 3.15 1.196 4.804-3.449 7.932-9.082 7.932-15.446 0-1.81-.253-3.562-.726-5.221l-4.569 1.305a14.26 14.26 0 0 1 .545 3.916c0 7.87-6.38 14.25-14.25 14.25-2.71 0-5.245-.757-7.402-2.07a4.75 4.75 0 0 1-5.913-7.093 14.216 14.216 0 0 1-.935-5.087c0-3.577 1.318-6.845 3.494-9.347a4.75 4.75 0 0 1 8.161-4.667 14.324 14.324 0 0 1 2.595-.236c1.358 0 2.672.19 3.916.545l1.305-4.569a19.01 19.01 0 0 0-5.22-.726c-7.963 0-14.78 4.898-17.608 11.845a4.752 4.752 0 0 1-1.34 8.575c.727 9.83 8.931 17.58 18.947 17.58 1.081 0 2.142-.09 3.174-.264a4.75 4.75 0 0 1 4.743-4.486zm4.75 4.75a4.75 4.75 0 0 1-8.594 2.793c-1.32.245-2.682.374-4.074.374-11.85 0-21.53-9.3-22.136-21A4.751 4.751 0 0 1 4.49 14.28C7.67 5.932 15.75 0 25.212 0c2.112 0 4.156.296 6.091.848 1.058.301 2.084.68 3.07 1.128l-.88 3.085-1.333 4.662-.9 3.154-1.298 4.54 4.54-1.297 3.154-.901 4.662-1.332 3.085-.882c.448.987.827 2.013 1.128 3.07a22.19 22.19 0 0 1 .848 6.092c0 7.56-3.784 14.235-9.562 18.236.04.249.062.504.062.764zm-19-25.333c-.84 0-1.63-.218-2.315-.6a11.037 11.037 0 0 0-2.436 6.933c0 1.146.174 2.252.497 3.291a4.75 4.75 0 0 1 5.44 6.527 11.034 11.034 0 0 0 5.146 1.266c6.121 0 11.083-4.962 11.083-11.083 0-1.056-.147-2.078-.423-3.046l-4.57 1.305a6.333 6.333 0 1 1-4.35-4.35l1.305-4.57a11.175 11.175 0 0 0-4.63-.311 4.75 4.75 0 0 1-4.75 4.638zm3.165 6.333a3.167 3.167 0 0 0 6.334 0l-.12-.87-3.047.87.87-3.046-.87-.12a3.167 3.167 0 0 0-3.167 3.166z"/></svg>