<svg xmlns="http://www.w3.org/2000/svg" viewBox="0 0 44.2030029296875 44.33399963378906"><path d="M28.643 40.555c-2.324 2.553-7.639 2.753-12.94.516v3.263H7.787v-8.828C1.507 28.712 0 18.904 4.013 15.924l9.947 9.948 5.15-3.678a4.75 4.75 0 1 1 2.172 2.355l-3.602 5.042 10.963 10.964zM23.62 7.917c6.996 0 12.667 5.671 12.667 12.667a12.6 12.6 0 0 1-2.103 6.99c.339-1.216.52-2.499.52-3.824 0-7.87-6.38-14.25-14.25-14.25-1.326 0-2.608.181-3.825.52a12.607 12.607 0 0 1 6.991-2.103zM25.839 0c10.142 0 18.364 8.68 18.364 19.385 0 3.954-1.122 7.632-3.048 10.699a22.99 22.99 0 0 0 .753-5.853c0-12.044-9.25-21.808-20.66-21.808-1.92 0-3.78.277-5.545.795C18.608 1.185 22.093 0 25.839 0z"/></svg>