<svg xmlns="http://www.w3.org/2000/svg" viewBox="0 0 58.584999084472656 42.78656768798828"><path d="M41.169 20.615h-7.917l-9.5-9.5 9.5-9.5h7.917l-6.334 6.333h10.292c7.433 0 13.458 6.026 13.458 13.46 0 7.431-6.025 13.457-13.458 13.457v-6.333a7.125 7.125 0 0 0 0-14.25H34.835l6.334 6.333zM15.044.032a7.917 7.917 0 1 1 0 15.833 7.917 7.917 0 0 1 0-15.833zM7.127 26.948c-1.056.528-3.167 4.75-3.167 4.75s-.846.48-1.402 5.293L0 28.527c1.028-2.863 3.667-9.495 8.71-9.495h12.667c6.333 0 9.5 11.083 9.5 11.083l1.583 7.917-4.75 1.583c-.527-6.333-1.583-7.917-1.583-7.917s-2.111-4.222-3.167-4.75l.64 14.38a21.32 21.32 0 0 1-7.765 1.454 21.29 21.29 0 0 1-9.314-2.13l.606-13.704z"/></svg>