<svg xmlns="http://www.w3.org/2000/svg" viewBox="0 0 53.83300018310547 42.75"><path d="M27.709 0c1.748 0 1.583 1.418 1.583 3.167l.105 3.167H47.5V9.5h-2.057l8.39 19.792c0 3.06-5.044 5.542-10.291 5.542-5.247 0-10.292-2.481-10.292-5.542L41.641 9.5H29.503l.953 28.6c6.115.447 10.711 2.36 10.711 4.65H14.25c0-2.29 4.596-4.203 10.71-4.65l.954-28.6H12.193l8.39 19.792c0 3.06-5.044 5.542-10.291 5.542C5.045 34.834 0 32.353 0 29.292L8.391 9.5H6.334V6.334H26.02l.105-3.167C26.125 1.418 25.96 0 27.709 0zm22.427 29.292L44.334 14.93v14.362h5.802zm-13.188 0h5.802V14.93l-5.802 14.362zm-20.062 0L11.084 14.93v14.362h5.802zm-13.188 0H9.5V14.93L3.698 29.292z"/></svg>