<svg xmlns="http://www.w3.org/2000/svg" viewBox="0 0 42 42"><path d="M5 0h32c2.623 0 5 2.377 5 5v32c0 2.623-2.377 5-5 5H5c-2.623 0-5-2.377-5-5V5c0-2.623 2.377-5 5-5zm17.577 10.803v13.79c0 1.789-.17 2.942-.507 3.461-.338.519-.866.778-1.583.778-.734 0-1.284-.37-1.651-1.108-.271-.536-.426-1.447-.464-2.734l-2.891.591c.008 2.275.436 3.977 1.283 5.105.847 1.129 2.02 1.693 3.517 1.693 1.131 0 2.084-.285 2.859-.854.774-.57 1.356-1.385 1.745-2.446.389-1.06.583-2.676.583-4.846v-13.43h-2.891zm9.77 19.96c-.264.265-.264.793-.264 1.32v4.75c0 .528 0 1.056.264 1.32s.792.264 1.32.264h1.583c.528 0 1.056 0 1.32-.264.263-.264.263-.792.263-1.32v-4.75c0-.527 0-1.055-.264-1.32-.263-.263-.791-.263-1.319-.263h-1.583c-.528 0-1.056 0-1.32.264zm1.32 1.32h1.583v1.584h-1.583v-1.584zm0 4.75V35.25h1.583v1.583h-1.583z"/></svg>