<svg xmlns="http://www.w3.org/2000/svg" viewBox="0 0 42 42"><path d="M5 0h32c2.623 0 5 2.377 5 5v32c0 2.623-2.377 5-5 5H5c-2.623 0-5-2.377-5-5V5c0-2.623 2.377-5 5-5zm9.823 10.803v21.28h5.233c2.266 0 3.71-.086 4.332-.258.895-.25 1.672-.904 2.329-1.963.657-1.059.985-2.355.985-3.888 0-1.266-.23-2.34-.688-3.221-.458-.883-1.094-1.505-1.907-1.868.613-.4 1.111-1.02 1.495-1.857.383-.837.575-1.773.575-2.808 0-1.127-.24-2.135-.717-3.024-.478-.89-1.064-1.511-1.76-1.864-.695-.352-1.899-.529-3.61-.529h-6.267zm2.892 3.547h1.958c1.788 0 2.871.05 3.249.148.378.098.7.348.965.748.266.4.398.922.398 1.565 0 .72-.162 1.291-.488 1.711-.326.42-.778.68-1.355.779l-2.49.073h-2.237V14.35zm0 8.571h2.706c1.435 0 2.385.084 2.85.252.465.168.838.473 1.12.916.28.444.42 1.009.42 1.695 0 .672-.131 1.224-.394 1.658-.263.434-.587.725-.974.873-.386.148-1.26.222-2.624.222h-3.104V22.92zm15.952 10.746v1.583h1.583c0 .528 0 1.056-.528 1.32-.528.263-1.583.263-2.639.263 0 .528 0 1.056.528 1.32s1.583.264 2.639.264c.528 0 1.056 0 1.32-.528.263-.528.263-1.583.263-2.639v-1.583c0-1.056 0-2.111-.264-2.64-.263-.527-.791-.527-1.319-.527-1.056 0-2.111 0-2.639.264-.528.264-.528.792-.528 1.32 1.056 0 2.111 0 2.64.263.527.264.527.792.527 1.32h-1.583z"/></svg>