<svg xmlns="http://www.w3.org/2000/svg" viewBox="0 0 42 42"><path d="M5 0h32c2.623 0 5 2.377 5 5v32c0 2.623-2.377 5-5 5H5c-2.623 0-5-2.377-5-5V5c0-2.623 2.377-5 5-5zm9.823 10.803v21.28h5.828c1.251 0 2.275-.2 3.072-.602.797-.402 1.476-1 2.037-1.792.561-.793 1.025-1.87 1.392-3.23.367-1.361.55-2.96.55-4.799 0-2.04-.174-3.749-.523-5.123-.35-1.375-.83-2.493-1.444-3.353-.613-.86-1.284-1.473-2.012-1.836s-1.809-.545-3.24-.545h-5.66zm2.892 3.547h1.515c1.342 0 2.246.063 2.715.19a3.054 3.054 0 0 1 1.59 1.038c.438.527.76 1.247.966 2.162.207.914.31 2.166.31 3.754 0 1.53-.101 2.763-.304 3.697-.202.934-.457 1.618-.764 2.053a2.827 2.827 0 0 1-1.184.972c-.484.214-1.262.32-2.335.32h-2.51V14.35zm18.327 22.483h-2.243s3.034-4.42 3.034-4.75v-.791a.792.792 0 0 0-.791-.792h-3.959a.792.792 0 1 0 0 1.583h2.771s-3.562 5.213-3.562 5.542c0 .437.354.792.791.792h3.959a.792.792 0 0 0 0-1.584z"/></svg>