<svg xmlns="http://www.w3.org/2000/svg" viewBox="0 0 42 42"><path d="M5 0h32c2.623 0 5 2.377 5 5v32c0 2.623-2.377 5-5 5H5c-2.623 0-5-2.377-5-5V5c0-2.623 2.377-5 5-5zm29.458 30.5l-2.375 1.583v.792h1.584v5.542h1.583v-7.125a.792.792 0 0 0-.792-.792zM14.824 10.803v11.315c0 3.174.204 5.352.611 6.534.408 1.182 1.065 2.099 1.972 2.75.906.651 2.165.977 3.778.977 1.555 0 2.807-.393 3.755-1.18.949-.787 1.559-1.814 1.83-3.083.271-1.268.406-3.325.406-6.17V10.804h-2.89v11.809c0 2.127-.091 3.513-.272 4.158-.18.645-.515 1.15-1.004 1.515-.488.365-1.122.547-1.9.547-.913 0-1.65-.257-2.21-.771s-.914-1.242-1.062-2.184l-.123-3.51V10.803h-2.892z"/></svg>