<svg xmlns="http://www.w3.org/2000/svg" viewBox="0 0 38.92399597167969 38.92399597167969"><path d="M19.462 4.962c.864 0 1.71.076 2.534.22L24.089 0l5.563 2.249-2.094 5.182a14.578 14.578 0 0 1 3.935 3.935l5.182-2.094 2.249 5.563-5.183 2.093a14.588 14.588 0 0 1 0 5.068l5.183 2.093-2.249 5.563-5.182-2.094a14.58 14.58 0 0 1-3.52 3.645l2.273 5.105-5.48 2.443-2.273-5.106a14.705 14.705 0 0 1-5.565.097l-2.093 5.182-5.563-2.249 2.094-5.182a14.582 14.582 0 0 1-3.935-3.935l-5.182 2.094L0 24.089l5.183-2.093a14.588 14.588 0 0 1 0-5.068L0 14.835l2.249-5.563 5.182 2.094a14.582 14.582 0 0 1 3.52-3.645L8.678 2.616l5.48-2.443 2.273 5.106a14.56 14.56 0 0 1 3.031-.317zm0 4.5c-5.523 0-10 4.477-10 10s4.477 10 10 10 10-4.477 10-10-4.477-10-10-10z"/></svg>