<svg xmlns="http://www.w3.org/2000/svg" viewBox="0 0 47.96440887451172 44.71894836425781"><path d="M6.79 15.835a6.333 6.333 0 0 1 3.955 11.28c1.999 6.083 7.583 10.542 14.253 10.886a8.683 8.683 0 0 0 2.65 6.257l-1.858.077c-10.21 0-18.808-6.903-21.381-16.296a6.336 6.336 0 0 1 2.38-12.204zM32.915.001a6.333 6.333 0 1 1-6.333 6.353c-.263-.013-.526-.02-.792-.02-6.15 0-11.482 3.508-14.104 8.631A8.668 8.668 0 0 0 6.79 13.46l-1.441.118C8.705 5.602 16.593.001 25.789.001c1.603 0 3.166.17 4.67.493a6.314 6.314 0 0 1 2.456-.493zm.792 31.667c1.397 0 2.689.453 3.736 1.22a15.776 15.776 0 0 0 4.18-10.72c0-3.46-1.11-6.66-2.991-9.264a8.688 8.688 0 0 0 2.986-6.255 22.095 22.095 0 0 1 6.339 15.52c0 6.873-3.13 13.016-8.04 17.082a6.333 6.333 0 1 1-6.21-7.583z"/></svg>