<svg xmlns="http://www.w3.org/2000/svg" viewBox="0 0 32 46.34676742553711"><path d="M6.5 46.347L0 41.597v-30.25h5l-.083-2.833a7.917 7.917 0 0 1 15.199-3.11C24.04 5.87 27 9.044 27 13.097v2.25l1.75 1H32v30H6.5zM3.333 18.409l2.625-1.635v26.823l.542.542v-27.71l4.5-.082v-3H2l1.333 5.063zM14 13.347v3h10v-1.25l-2-1.75h-8zm7-2h2.5c-.477-1.35-1.15-2.023-2.5-2.5v2.5zM8.083 8.514L8 11.347h3.25c.568-2.798 2.77-4.727 5.441-5.605a4.75 4.75 0 0 0-8.608 2.772zm9.667 2.833v-2.5c-1.35.477-2.273 1.15-2.75 2.5h2.75z"/></svg>