<svg xmlns="http://www.w3.org/2000/svg" viewBox="0 0 38 37.604000091552734"><path d="M4.75 0c2.375 1.32 4.75 2.639 7.125 2.639S16.625 1.319 19 0c2.375 1.32 4.75 2.639 7.125 2.639S30.875 1.319 33.25 0l3.958 7.52H.792L4.75 0zM38 14.25c0 5.278-1.583 9.5-4.75 14.25S22.167 37.604 19 37.604 7.917 33.25 4.75 28.5C1.583 23.75 0 19.528 0 14.25c0-1.749 0-3.167.396-5.146h37.208C38 11.084 38 12.501 38 14.25zM7.785 24.8c.204 1.3.667 2.277 1.388 2.93.722.655 1.668.982 2.84.982 1.626 0 2.946-.61 3.96-1.83 1.015-1.221 1.523-3.21 1.523-5.968 0-2.71-.483-4.655-1.45-5.838-.966-1.183-2.203-1.775-3.71-1.775-1.385 0-2.525.462-3.42 1.387s-1.342 2.141-1.342 3.65c0 1.45.437 2.626 1.31 3.53.875.903 1.915 1.355 3.12 1.355 1.108 0 2.032-.422 2.77-1.266-.116 1.724-.386 2.858-.808 3.404-.422.545-.934.818-1.537.818-.475 0-.858-.138-1.15-.414-.29-.276-.47-.701-.539-1.275l-2.955.31zm6.755-6.383c0 .746-.191 1.31-.574 1.696a1.913 1.913 0 0 1-1.412.577c-.578 0-1.06-.2-1.446-.6-.386-.4-.579-1.027-.579-1.88 0-.843.178-1.45.533-1.82.355-.37.8-.556 1.337-.556.566 0 1.064.226 1.495.677.43.45.646 1.086.646 1.906zM25.94 28.5h2.956v-2.956h1.9v-2.533h-1.9v-9.5h-2.563l-6.515 9.51v2.523h6.122V28.5zm0-5.489h-3.348l3.348-4.882v4.882z"/></svg>