<svg xmlns="http://www.w3.org/2000/svg" viewBox="0 0 38 22"><path d="M36 0a2 2 0 0 1 2 2v18a2 2 0 0 1-2 2H2a2 2 0 0 1-2-2V5.5L5.5 0H36zm-4 4H16a2 2 0 0 0-2 2v12a2 2 0 0 0 2 2h16a2 2 0 0 0 2-2V6a2 2 0 0 0-2-2zM16 5h6.905c-.77.361-1.423 1.087-1.853 2H15V6a1 1 0 0 1 1-1zm16 0a1 1 0 0 1 1 1v1h-6.052c-.43-.913-1.082-1.639-1.853-2H32zm1 3v3h-5.7c.13-.47.2-.974.2-1.5 0-.516-.067-1.022-.192-1.5H33zm0 4v3h-6.021a5.282 5.282 0 0 0-.647-2.145c.22-.252.414-.54.579-.855H33zm0 4v2a1 1 0 0 1-1 1h-6.47c.79-.66 1.335-1.715 1.447-3H33zm-17 3a1 1 0 0 1-1-1v-2h5.022c.112 1.285.658 2.34 1.447 3H16zm-1-4v-3h6.09c.025.049.051.097.078.145-.626.72-1.05 1.724-1.147 2.855H15zm0-4V8h5.692a5.982 5.982 0 0 0-.192 1.5c0 .526.07 1.03.2 1.5H15zm9-5.25c1.38 0 2.5 1.817 2.5 3.75 0 1.432-.614 2.664-1.495 3.206.604.638.995 1.652.995 2.794 0 1.933-1.12 3.25-2.5 3.25S21 17.433 21 15.5c0-1.432.614-2.664 1.495-3.205-.605-.64-.995-1.653-.995-2.795 0-1.933 1.12-3.75 2.5-3.75z"/></svg>