<svg xmlns="http://www.w3.org/2000/svg" viewBox="0 0 46.357994079589844 33.320316314697266"><path d="M31.697.007c3.643 0 6.597 2.916 6.597 6.514l-.007.288c2.712.81 4.686 3.295 4.686 6.236a6.472 6.472 0 0 1-2.452 5.068c-1.266-2.23-3.54-3.794-6.19-4.05-.16-4.16-4.162-8.119-9.066-8.119-2.751 0-5.216 1.135-6.88 2.93a5.332 5.332 0 0 1-.046-.704c0-2.96 2.436-5.36 5.442-5.36.783 0 1.528.163 2.2.456a6.61 6.61 0 0 1 5.716-3.26zm1.85 15.667c3.56 0 6.497 3.133 6.912 7.177 2.107-.294 4.62-1.254 5.349-4.075 0 0 .55 4.73-5.314 5.616-.07 1.21-.457 2.35-.928 3.36-8.416-.89-21.722-13.934-29.862-14.89 1.221-1.414 2.975-2.3 4.924-2.3 1.371 0 2.646.438 3.707 1.19 1.337-2.58 3.903-4.324 6.848-4.324 4.282 0 7.762 3.69 7.832 8.27.176-.016.353-.024.532-.024zm4.027 14.85c-1.13.93-2.54 1.476-4.026 1.476l-17.352.042h-9.07v-.023c-1.73-.136-3.443-1.027-4.644-2.596-1.748-2.28-1.886-5.307-.546-7.506C.559 20.385 0 18.455.641 16.744c1.016-2.709 4.66-3.853 8.175-2.586a4.5 4.5 0 0 1 .084-.152C23.452 17.818 32.688 33.32 45.627 28.07c-.79 1.29-2.869 3.33-8.053 2.454zM3.23 20.434c1.416-1.146 3.212-1.489 4.908-1.102-.123-.538-.157-2.484-.095-2.87-.156-.077-5.371-1.324-5.801 1.426-.363.966-.128 2.041.534 2.955.143-.143.294-.28.454-.408z"/></svg>