<svg xmlns="http://www.w3.org/2000/svg" viewBox="0 0 41.227378845214844 34.539546966552734"><path d="M10.322 26.623h20.584a3.959 3.959 0 0 1 0 7.917H10.322a3.959 3.959 0 0 1 0-7.917zm-8.44-12.471l7.164-4.136L1.883 5.88A2.928 2.928 0 0 1 4.81.809l11.41 6.588a2.928 2.928 0 0 1 1.465 2.62 2.927 2.927 0 0 1-1.464 2.618L4.81 19.224a2.928 2.928 0 1 1-2.928-5.072zm37.463 0a2.928 2.928 0 1 1-2.928 5.072l-11.411-6.59a2.927 2.927 0 0 1-1.464-2.618 2.927 2.927 0 0 1 1.464-2.62L36.416.81a2.928 2.928 0 1 1 2.929 5.072l-7.163 4.135 7.163 4.136z"/></svg>