<svg xmlns="http://www.w3.org/2000/svg" viewBox="0 0 69.66600036621094 36.41699981689453"><path d="M1.583 3.167h11.083A3.167 3.167 0 0 1 15.833 0h14.25a3.167 3.167 0 0 1 3.167 3.167h3.166A3.167 3.167 0 0 1 39.583 0h14.25A3.167 3.167 0 0 1 57 3.167h11.083l1.583 4.75H57v3.167a3.167 3.167 0 0 1-3.167 3.166h-14.25a3.167 3.167 0 0 1-3.167-3.166V7.917H33.25v3.167a3.167 3.167 0 0 1-3.167 3.166h-14.25a3.167 3.167 0 0 1-3.167-3.166V7.917H0l1.583-4.75zm15.833 0c-.874 0-1.583.709-1.583 1.583V9.5c0 .875.709 1.584 1.583 1.584H28.5c.874 0 1.583-.71 1.583-1.584V4.75c0-.874-.709-1.583-1.583-1.583H17.416zm23.75 0c-.874 0-1.583.709-1.583 1.583V9.5c0 .875.709 1.584 1.583 1.584H52.25c.874 0 1.583-.71 1.583-1.584V4.75c0-.874-.709-1.583-1.583-1.583H41.166zM21.735 21.639l.194.31c1.072 4.861 6.442 7.765 12.904 7.765s11.831-2.904 12.904-7.765l.194-.31c0-1.795 1.594-2.955 3.868-2.955 1.977 0 3.22 1.487 3.617 2.955-.945 7.682-10.607 14.778-20.583 14.778-9.976 0-19.638-7.096-20.583-14.778.397-1.468 1.64-2.955 3.617-2.955 2.274 0 3.867 1.16 3.867 2.955z"/></svg>