<svg xmlns="http://www.w3.org/2000/svg" viewBox="0 0 41.167999267578125 34.055999755859375"><path d="M7.485 19.279l.195.31c1.073 4.86 6.442 7.765 12.904 7.765s11.831-2.905 12.904-7.766l.194-.31c0-1.795 1.594-2.955 3.868-2.955 1.977 0 3.22 1.488 3.617 2.956-.945 7.682-10.607 14.777-20.583 14.777-9.976 0-19.638-7.095-20.583-14.777.397-1.468 1.64-2.956 3.617-2.956 2.274 0 3.867 1.16 3.867 2.956zM3.167 0c1.88 0 3.359.792 5.638.792S12.435 0 14.251 0a3.167 3.167 0 0 1 0 6.334H3.167a3.167 3.167 0 0 1 0-6.334zm23.75 0c1.88 0 3.359.792 5.638.792S36.185 0 38.001 0a3.167 3.167 0 0 1 0 6.334H26.917a3.167 3.167 0 0 1 0-6.334z"/></svg>