<svg xmlns="http://www.w3.org/2000/svg" viewBox="0 0 34.95000457763672 40.785308837890625"><path d="M27.374 30.526a9.474 9.474 0 1 1-16.111-6.76 7.62 7.62 0 0 1-.817-5.034l-6.525-2.79-3.677.978L0 16.004l3.258-.866-3.187-1.362.373-.871 3.173 1.357-1.618-2.937.83-.457L4.665 14.2l6.357 2.718a7.601 7.601 0 0 1 4.582-4.037A4.736 4.736 0 0 1 14.989 5h-2.065V3h2V0h6v3h2v2h-2.112a4.736 4.736 0 0 1-.614 7.88 7.601 7.601 0 0 1 4.52 3.911l5.175-4.604.681-3.744.932.17-.603 3.316 2.59-2.303.63.707-2.58 2.295 3.347-.214.06.945-3.796.243-5.794 5.154.12 1.35a7.546 7.546 0 0 1-.942 3.66 9.445 9.445 0 0 1 2.836 6.76z"/></svg>