<svg xmlns="http://www.w3.org/2000/svg" viewBox="0 0 24.66299819946289 40.4900016784668"><path d="M18.176 31.379c.37 4.095-7.923 4.277-8.882 1.425-.807-2.403.198-3.084 2.578-3.703 2.696-.702 6.055-.462 6.304 2.278zm-7.735-17.943c-4.193-9.134 9.639-8.478 5.443 0-1.377 1.02-4.084 1.121-5.443 0zm13.75-11.963c-3.407 2.13-6.92.333-9.453 0C3.555 0 0 13.046 8.148 18.277c-2.098 1.086-1.96 6.617.287 7.404-5.294.606-6.276 8.067-3.438 11.109 3.453 3.7 14.075 3.455 17.19 0 2.174-2.413 2.476-7.388.571-9.683-1.736-2.094-10.448-2.41-10.312-5.697.094-2.296 3.244-1.935 5.156-2.848 3.598-1.72 5.711-6.866 4.297-10.824.803-.15 1.49-.418 2.293-.569V1.473z"/></svg>