<svg xmlns="http://www.w3.org/2000/svg" viewBox="0 0 38.03171157836914 38.38477325439453"><path d="M13.413 19.002c0 .13-.03.253-.037.384l13.616 6.802c1.165-.984 2.657-1.6 4.304-1.6a6.705 6.705 0 0 1 6.706 6.705 6.706 6.706 0 1 1-13.41 0c0-.135.03-.253.036-.384l-13.616-6.802c-1.169.98-2.657 1.596-4.304 1.596a6.702 6.702 0 0 1-6.706-6.701 6.706 6.706 0 0 1 6.706-6.71c1.647 0 3.135.622 4.304 1.605L24.628 7.09c-.008-.13-.037-.253-.037-.388A6.702 6.702 0 0 1 31.296.002a6.705 6.705 0 1 1 0 13.41c-1.65 0-3.14-.617-4.304-1.605l-13.616 6.81c.008.127.037.25.037.385z"/></svg>