<svg xmlns="http://www.w3.org/2000/svg" viewBox="0 0 38 22.833999633789062"><path d="M38 8.356c-.443-.013-4.465-.397-4.988-.498l.061 10.593 2.277.186m.105 1.706l-1.311-.063-1.463-.178.012 2.508 1.154.097 1.243.093M30.61 5.637c-.93.249-9.438 6.848-9.998 8.465-.124.562.012 5.983.136 6.794.56.127 4.607.017 5.35.144l-.089 1.676c-.727-.06-5.87-.047-8.804-.047-1.491 0-6.285.165-7.757.123l.279-1.596c.808-.06 4.15.152 4.883-.63.364-.388.25-5.543.126-6.413-.31-.933-7.765-10.273-9.713-11.805H0V0h16.935v.16l.057.01-.057.396v1.782h-5.106c2.276 3.327 5.54 7.346 6.93 9.276l6.821-6.177h-4.053l-.572-2.348h14.852l-.11.17h.053l-1.062 1.54-.033.005-.428.633h-2.74c-.355.076-.667.148-.878.19z"/></svg>