<svg xmlns="http://www.w3.org/2000/svg" viewBox="0 0 68.77000427246094 56.165992736816406"><path d="M29.143 24.665c0 1.76-.992 3.186-2.214 3.186-1.223 0-2.214-1.426-2.214-3.186s.99-3.188 2.214-3.188c1.222 0 2.214 1.427 2.214 3.188zm17.815 0c0 1.76-.991 3.186-2.214 3.186-1.222 0-2.214-1.426-2.214-3.186s.992-3.188 2.214-3.188c1.223 0 2.214 1.427 2.214 3.188zM36.393 28.85a.83.83 0 1 1-1.661 0 .83.83 0 0 1 1.661 0zm-2.765 2.1a.267.267 0 0 1 .503-.178 1.514 1.514 0 0 0 1.425 1.008c.638 0 1.21-.405 1.424-1.008a.267.267 0 1 1 .503.178 2.05 2.05 0 0 1-1.927 1.364 2.05 2.05 0 0 1-1.928-1.364zm35.089-3.466c-5.903-1.18-9.326-1.182-12.95-1.027-.132.438-.28.865-.45 1.274 3.578.105 7.272 1.602 13.334 3.313l-.072.256c-6.097-1.72-9.833-3.207-13.375-3.304-1.788 4.057-5.669 6.668-13.755 7.47 1.387.941 2.806 2.726 2.806 6.094v8.64s.178 2.137 2.137 2.85c0 0 1.157.8-.09 1.246 0 0-5.432.445-5.432-4.008v-6.59s.215-2.43-1.068-3.429v10.732s.088 2.582 1.424 3.562c0 0 .89 1.603-1.068 1.158 0 0-3.74-.534-3.919-4.898l-.085-10.955h-.899l-.085 10.955c-.178 4.364-3.919 4.898-3.919 4.898-1.96.445-1.068-1.158-1.068-1.158 1.336-.98 1.424-3.562 1.424-3.562V40.176c-1.283.908-1.068 3.522-1.068 3.522v6.59c0 4.453-5.433 4.008-5.433 4.008-1.247-.445-.089-1.247-.089-1.247 1.96-.712 2.138-2.85 2.138-2.85v-6.044c-8.415 1.877-10.158-3.973-10.158-3.973-1.336-3.43-3.274-4.344-3.274-4.344-2.695-1.848.2-1.804.2-1.804 2.985.223 4.544 3.074 4.544 3.074 2.785 4.791 7.428 3.079 8.894 2.378.446-2.08 1.543-3.31 2.62-4.033-7.583-.818-11.845-3.42-14.007-7.45-3.584.11-9.816 2.142-15.783 3.825l-.073-.257c5.921-1.67 12.099-3.714 15.717-3.83-.211-.42-.4-.853-.57-1.299-3.659-.139-9.509-.626-15.212.514L0 26.694c5.67-1.134 11.484-.657 15.165-.523-.769-2.157-1.084-4.638-1.084-7.404 0-3.663 1.324-6.651 3.493-8.992-.346-.849-1.488-4.265.358-8.88 0 0 2.827-.895 9.232 3.475 2.687-.737 5.567-1.1 8.418-1.1 2.591 0 5.178.3 7.61.907C49.397.024 52.14.895 52.14.895c1.556 3.89.99 6.928.566 8.295 2.425 2.42 3.919 5.601 3.919 9.577 0 2.773-.18 5.259-.78 7.42 3.65-.153 7.045-.14 12.925 1.035l-.053.262zM48.715 18.58c-2.874-2.601-7.712-1.2-13.2-1.2-5.508 0-10.365-1.387-13.234 1.232-1.72 1.571-2.726 3.465-2.726 5.504 0 8.518 7.146 9.846 15.96 9.846 8.815 0 15.96-.26 15.96-9.846 0-2.052-1.018-3.958-2.76-5.536z"/></svg>