<svg xmlns="http://www.w3.org/2000/svg" viewBox="0 0 37.928001403808594 37.92799758911133"><path d="M9.872 25.788a2.293 2.293 0 0 1 2.302-2.28h13.542a2.29 2.29 0 0 1 2.29 2.28 2.3 2.3 0 0 1-2.29 2.28H12.174c-1.273 0-2.302-1.042-2.302-2.28zm2.302-15.997h6.664a2.3 2.3 0 0 1 2.303 2.289c0 1.25-1.03 2.291-2.303 2.291h-6.664a2.306 2.306 0 0 1-2.302-2.291 2.3 2.3 0 0 1 2.302-2.29zm13.658 28.137c6.613 0 11.985-5.386 12.022-11.963l.074-9.684-.111-.526-.318-.663-.537-.416c-.698-.548-4.234.037-5.187-.828-.674-.617-.78-1.732-.985-3.242-.38-2.926-.619-3.079-1.077-4.07C28.048 3.013 23.531.366 20.427 0H12.02C5.407 0 0 5.395 0 11.984v13.98c0 6.578 5.407 11.964 12.02 11.964h13.812z"/></svg>