<svg xmlns="http://www.w3.org/2000/svg" viewBox="0 0 44.30699920654297 38.29999923706055"><path d="M3.966 7.36c0-.957-.195-7.36 8.068-7.36h5.832v6.66h-4.29c-.848 0-1.706.88-1.706 1.533L12 13h5.75a89.997 89.997 0 0 1-.627 5.989L12 19v19H4l-.034-19.011L0 19v-6h4l-.034-5.64zm34.017 13.008c6.324 6.888-7.21 16.787-9.663 17.9v.032l-.056-.032c-2.455-1.113-15.991-11.012-9.667-17.9 2.013-2.192 5.442-1.835 8.571 1.137l-1.594 8.502 2.717-1.019v9.169l3.395-12.564-2.716 1.018 1.676-6.146c2.562-1.82 5.63-1.96 7.337-.097z"/></svg>