<svg xmlns="http://www.w3.org/2000/svg" viewBox="0 0 33.43400192260742 38.02899932861328"><path d="M32.071 24.178c.004 1.134-.353 3.185-1.233 4.47-.872 1.286-1.422 1.765-2.454 1.695-1.324-.105-3.984-4.194-5.673-4.262-2.129-.063-6.74 4.46-10.378 4.476-2.205.009-2.866-.318-3.601-.793C7.624 29 7.069 27.831 7.098 26.22c.027-2.858 2.695-5.538 6.076-5.587 4.295-.056 7.292 4.213 9.457 4.17 1.838-.042 5.35-3.648 7.078-3.654 1.835-.008 2.357 1.891 2.362 3.029zm-13.23 7.032c.402-.369 1.064-.957 1.687-1.215.624-.26.95-.224 1.54-.227.587-.002 1.215.032 1.655.325.44.291.702.948.848 1.31.15.368.003.588-.288.737-.256.145-.294.073-.553-.4-.257-.475-.48-.952-1.767-.946-1.284.005-1.688.448-2.31.962-.622.515-.843.7-1.065.407-.221-.291-.15-.585.253-.953zm6.379 3.056c-.185.182-1.87 1.362-3.852 1.554-1.983.19-4.665.311-6.286-1.147-.257-.256-.188-.62-.003-.766.183-.15.33-.261.55-.262.222 0 .182 0 .295.073.737.583 1.84 1.053 4.19 1.043 2.352-.01 4.004-.672 4.734-1.227.33-.257.477-.038.516.11.036.145.111.366-.144.622zm-.261-27.24c-1.951-1.201-3.794-1.668-5.634-2.87-1.141-.764-2.727-2.588-4.058-4.156-.245 2.527-1.013 3.557-1.893 4.294-1.864 1.469-3.04 1.912-4.654 2.799C7.365 7.795 0 12.217.038 21.663c.039 9.445 8.04 16.366 16.89 16.33 8.855-.036 16.506-6.473 16.466-16.175-.04-9.701-7.257-14.064-8.435-14.791z"/></svg>