<svg xmlns="http://www.w3.org/2000/svg" viewBox="0 0 38.21098709106445 33.09700012207031"><path d="M32.445.173c-5.282-.173-8.857 2.79-10.73 8.892.965-.397 1.902-.6 2.815-.6 1.927 0 2.78 1.086 2.552 3.252-.113 1.313-.964 3.221-2.552 5.73-1.594 2.511-2.784 3.765-3.575 3.765-1.026 0-1.96-1.942-2.814-5.818-.286-1.14-.797-4.045-1.53-8.723-.688-4.332-2.503-6.359-5.454-6.072-1.249.114-3.12 1.255-5.615 3.42A457.795 457.795 0 0 1 0 8.981l1.787 2.31c1.706-1.2 2.703-1.795 2.98-1.795 1.308 0 2.53 2.047 3.665 6.151 1.02 3.767 2.046 7.529 3.07 11.29 1.524 4.109 3.404 6.16 5.614 6.16 3.576 0 7.954-3.36 13.118-10.09 4.995-6.443 7.573-11.519 7.747-15.226.23-4.956-1.615-7.498-5.536-7.608z"/></svg>