<svg xmlns="http://www.w3.org/2000/svg" viewBox="0 0 38.234004974365234 34.62300109863281"><path d="M.425 27.423c4.956 4.504 11.488 7.2 18.79 7.2 4.534 0 9.759-1.272 13.794-3.696a14.27 14.27 0 0 0 1.574-1.04c.692-.5.078-1.272-.614-.964-.307.115-.653.27-.96.386a37.022 37.022 0 0 1-13.373 2.542c-6.84 0-13.448-1.888-18.79-5.005-.499-.268-.846.23-.422.577zm35.312 5.505c1.73-1.463 2.459-4.118 2.497-5.505v-.23c0-.31-.076-.539-.152-.655-.346-.422-2.884-.81-5.073-.154a6.071 6.071 0 0 0-1.653.808c-.384.27-.307.614.077.578.422-.079.962-.115 1.576-.195 1.345-.112 2.921-.152 3.304.347.537.654-.614 3.503-1.115 4.735-.152.387.193.541.539.27zm-13.028-19.89c0 1.63.069 2.904-.778 4.319-.495.991-1.344 1.63-2.264 1.843-.141 0-.352.073-.565.073-1.555 0-2.477-1.205-2.477-2.977 0-2.267 1.345-3.33 3.042-3.827.92-.213 1.982-.283 3.042-.283m0-3.26c-.92.073-1.98.143-3.042.286-1.626.21-3.253.496-4.596 1.131-2.617 1.065-4.386 3.33-4.386 6.66 0 4.183 2.688 6.305 6.082 6.305 1.134 0 2.053-.14 2.9-.352 1.345-.426 2.477-1.205 3.82-2.622.778 1.064.99 1.56 2.334 2.692.354.143.708.143.99-.07a125.09 125.09 0 0 0 3.113-2.692c.353-.286.281-.709.07-1.064-.778-.992-1.555-1.843-1.555-3.753V9.069c0-2.694.21-5.173-1.77-7.013C25.044.566 22.497 0 20.517 0h-.85c-3.607.213-7.426 1.77-8.276 6.235-.14.565.285.779.568.851l3.96.496c.424-.073.636-.426.706-.782.355-1.557 1.628-2.335 3.042-2.478h.284c.846 0 1.767.355 2.264 1.06.563.853.494 1.987.494 2.978v.567z"/></svg>