<svg xmlns="http://www.w3.org/2000/svg" viewBox="0 0 44.13668441772461 30"><path d="M22.068 0c6.3 0 11.627 4.754 13.385 11.295a5.993 5.993 0 0 0-2.367 4.325l-.368 4.205c-3.55-1.773-7.1-3.492-10.65-3.492-3.548 0-7.095 1.717-10.643 3.488l-.375-4.284a5.992 5.992 0 0 0-2.348-4.312C10.48 4.721 15.792 0 22.068 0zm10.11 26H11.965l-.443-5.06c3.516-1.756 7.031-3.44 10.546-3.44 3.517 0 7.035 1.687 10.552 3.443L32.177 26zm-24.11 4v-2l-2.564-7.019-.436.019a5 5 0 1 1 4.985-5.387L11.068 28v2h-3zm28 0h-3v-2l1.015-12.387A5 5 0 1 1 39.068 21l-.436-.019L36.068 28v2z"/></svg>