<svg xmlns="http://www.w3.org/2000/svg" viewBox="0 0 44.33300018310547 41.16600036621094"><path d="M35.625 0c4.81 0 8.708 8.506 8.708 19 0 10.493-3.898 19-8.708 19-1.697 0-3.281-1.06-4.62-2.892-3.044-3.284-6.207-8.192-10.422-8.192-3.166 0-.395 3.167-.395 6.334 0 3.166.395 7.916-4.355 7.916s-9.5-4.75-7.916-6.333C9.5 33.25 9.5 26.916 9.5 26.916 4.75 26.916 0 23.75 0 19s4.75-9.5 17.417-9.5C30.083 9.5 27.708 0 35.625 0zm-8.708 19c0-4.667.77-8.94 2.05-12.247-2.415 2.747-.467 4.33-11.398 6.066-10.23 0-14.067 2.649-14.067 6.485 0 3.837 4.232 4.811 8.069 4.811 0 0 1.187 9.074-.092 10.353-1.279 1.279.183 3.136 4.02 3.136 3.836 0 1.141-4.628 1.141-7.186s-.807-6.668 3.487-6.699c8.373 3.197 5.542 2.653 8.09 5.276-.824-2.903-1.3-6.328-1.3-9.995zm9.5-15.834c-2.13 0-3.934 4.675-4.536 11.115 4.336.272 7.702 2.28 7.702 4.719 0 2.437-3.366 4.446-7.702 4.718.602 6.44 2.405 11.115 4.536 11.115 2.623 0 4.75-7.089 4.75-15.833 0-8.745-2.127-15.834-4.75-15.834zm-1.584 0c-3.497 0-6.333 7.09-6.333 15.834s2.836 15.833 6.333 15.833l.423-.035c-2.889-.543-5.173-7.409-5.173-15.798 0-8.39 2.284-15.256 5.172-15.799l-.422-.035z"/></svg>