<svg xmlns="http://www.w3.org/2000/svg" viewBox="0 0 38 38.295997619628906"><path fill-rule="evenodd" d="M28.092 22.894c-.468-.256-2.766-1.496-3.196-1.671-.43-.175-.745-.267-1.08.199-.336.463-1.289 1.502-1.578 1.81-.29.307-.57.335-1.036.079-.468-.256-1.984-.817-3.741-2.506-1.368-1.315-2.266-2.91-2.526-3.397-.26-.487-.002-.736.245-.964.223-.205.498-.538.746-.807.248-.27.336-.465.506-.776.17-.313.102-.593-.008-.836-.11-.243-.975-2.621-1.336-3.59-.361-.967-.764-.823-1.042-.834-.277-.01-.594-.062-.911-.074-.318-.012-.838.088-1.292.549-.454.459-1.728 1.565-1.815 3.908-.088 2.343 1.533 4.671 1.759 4.997.226.327 3.096 5.405 7.865 7.494 4.77 2.088 4.794 1.452 5.67 1.405.875-.046 2.86-1.047 3.299-2.143.439-1.097.474-2.05.362-2.254-.112-.202-.425-.334-.891-.59zm-8.747 11.29c-3.154 0-6.092-.946-8.544-2.567l-5.968 1.91 1.94-5.767a15.447 15.447 0 0 1-2.957-9.105c0-8.564 6.966-15.53 15.529-15.53 8.563 0 15.53 6.966 15.53 15.53 0 8.563-6.967 15.53-15.53 15.53zm0-34.184C9.042 0 .69 8.352.69 18.655c0 3.525.979 6.82 2.677 9.633L0 38.296l10.329-3.306a18.577 18.577 0 0 0 9.016 2.32C29.647 37.31 38 28.957 38 18.655 38 8.352 29.647 0 19.345 0z"/></svg>