<svg xmlns="http://www.w3.org/2000/svg" viewBox="0 0 37.95099639892578 31.625995635986328"><path d="M35.498 14.57c0-.333-.076-.662-.243-.97l-.004-.004-.002-.004a2.374 2.374 0 0 0-.992-1.042 2.894 2.894 0 0 0-1.408-.358c-.446 0-.89.1-1.285.3 1.254 1.087 2.355 2.398 3.066 3.938.23-.199.424-.443.57-.713.19-.354.298-.755.298-1.147zm-2.493 5.444c0-1.37-.493-2.741-1.292-3.85-1.593-2.214-4.064-3.66-6.634-4.466l-.018-.008a22.89 22.89 0 0 0-1.494-.4 20.687 20.687 0 0 0-4.581-.51c-2.066 0-4.132.303-6.11.914-2.57.818-5.049 2.252-6.638 4.474v.004c-.806 1.11-1.278 2.488-1.278 3.859 0 .506.064 1.012.197 1.505h.002c.289 1.1.855 2.087 1.587 2.948.732.856 1.63 1.59 2.575 2.188.209.13.419.253.633.375 2.744 1.531 5.903 2.201 9.04 2.201.53 0 1.063-.016 1.59-.054 3.16-.262 6.33-1.194 8.895-3.1a10 10 0 0 0 2.17-2.167c.6-.83 1.04-1.758 1.236-2.766v-.004c.082-.38.12-.76.12-1.143zM6.38 12.507c-.408-.19-.83-.325-1.248-.325-.07 0-.141.005-.211.013h-.02c-.6.017-1.205.278-1.659.7-.454.417-.755.978-.778 1.602v.01c-.005.05-.007.1-.007.147 0 .384.118.755.317 1.093.148.252.342.48.56.678.701-1.535 1.796-2.833 3.046-3.917zm22.56-8.193c0 .042.002.084.006.126v.01c.02.531.27 1.024.651 1.391.383.363.891.59 1.407.59h.013l.111.005c.52 0 1.037-.224 1.425-.586.389-.367.645-.865.665-1.4h.001v-.005c.004-.042.005-.08.005-.122 0-.552-.257-1.075-.661-1.467-.402-.388-.943-.629-1.477-.629-.172 0-.343.026-.51.076l-.005.005h-.005a2.22 2.22 0 0 0-1.147.746 1.99 1.99 0 0 0-.478 1.26zm9.003 10.002v.004c.006.085.008.165.008.249 0 .92-.296 1.809-.79 2.56a5.116 5.116 0 0 1-1.826 1.69c.047.367.074.738.074 1.105a9.155 9.155 0 0 1-1.877 5.503h-.002c-2.203 2.93-5.587 4.66-9.003 5.528l-.003.005c-1.822.442-3.7.666-5.578.666-2.8 0-5.598-.502-8.207-1.552h-.004c-2.706-1.117-5.285-2.889-6.866-5.486a8.95 8.95 0 0 1-1.318-4.647c0-.371.025-.742.075-1.105a5.337 5.337 0 0 1-1.788-1.648A4.878 4.878 0 0 1 0 14.7v-.017c0-1.265.55-2.463 1.404-3.344.854-.886 2.02-1.463 3.271-1.463h.052c.13-.009.264-.013.396-.013.629 0 1.259.101 1.857.333h.006c.51.215 1.018.477 1.47.835.147-.076.307-.164.486-.232 2.741-1.623 5.927-2.247 9.032-2.429.027-1.539.216-3.15.966-4.558.625-1.172 1.709-2.083 3-2.4h.012a7.717 7.717 0 0 1 1.48-.139c1.312 0 2.608.308 3.821.793A4.738 4.738 0 0 1 29.456.27l.008-.004.009-.005A5.553 5.553 0 0 1 31.118 0c.59 0 1.185.11 1.743.358V.354l.002.004.01.005c.8.308 1.476.877 1.956 1.58.48.713.762 1.565.762 2.438 0 .16-.009.32-.028.485l-.001.004-.001.009c-.094 1.13-.666 2.12-1.477 2.825-.816.713-1.871 1.143-2.955 1.143a4.39 4.39 0 0 1-.524-.034c-1.075-.084-2.077-.603-2.813-1.379-.739-.771-1.215-1.805-1.215-2.918 0-.05.005-.11.007-.16-1.01-.451-2.08-.822-3.146-.822-.154 0-.308.008-.462.025h-.002a2.407 2.407 0 0 0-1.897 1.299v.004c-.545 1.063-.654 2.302-.67 3.538 3.056.198 6.13.932 8.827 2.48h.004l.039.025c.05.03.145.08.231.126.185-.152.382-.303.605-.439a4.98 4.98 0 0 1 2.755-.813c.43 0 .86.055 1.278.16h.001l.018.004.016.004a5.113 5.113 0 0 1 2.55 1.582c.672.767 1.124 1.733 1.212 2.787zm-25.601 5.958h.01c.242.089.49.131.737.131.614 0 1.212-.249 1.664-.658.451-.413.76-.995.76-1.657v-.055l.002-.097a2.25 2.25 0 0 0-.752-1.653 2.462 2.462 0 0 0-1.662-.67c-.164 0-.332.02-.496.059h-.009a2.416 2.416 0 0 0-1.797 1.61l-.001.005a2.197 2.197 0 0 0-.111.696c0 .514.168 1.007.46 1.42.287.401.696.717 1.186.865m13.284 3.07a1.204 1.204 0 0 0-.658-.203c-.192 0-.39.055-.568.173a11.06 11.06 0 0 1-5.607 1.548c-1.469 0-2.93-.308-4.252-.957l-.007-.005-.006-.004c-.2-.08-.427-.253-.675-.417a2.235 2.235 0 0 0-.403-.224 1.18 1.18 0 0 0-.476-.105c-.141 0-.29.034-.437.097l-.022.008c-.23.089-.41.253-.526.443-.121.198-.18.426-.18.654 0 .206.048.413.148.598.096.178.243.334.436.435 1.891 1.277 4.117 1.855 6.353 1.851 2.015 0 4.042-.464 5.847-1.316l.01-.004.009-.004c.238-.143.554-.27.852-.451.148-.097.292-.203.416-.346.123-.14.223-.312.279-.519a1.086 1.086 0 0 0-.076-.738 1.308 1.308 0 0 0-.457-.514zm1.517-6.114c.098.248.142.51.142.767 0 .514-.178 1.02-.478 1.43a2.276 2.276 0 0 1-1.21.855l-.01.005h-.007c-.232.08-.47.118-.704.118a2.485 2.485 0 0 1-1.527-.54 2.296 2.296 0 0 1-.858-1.396l-.001-.008-.002-.004h.002a2.054 2.054 0 0 1-.05-.443c0-.498.17-.979.45-1.37.28-.397.673-.709 1.134-.87h.007a2.35 2.35 0 0 1 .808-.147c.496 0 .985.152 1.396.426.407.27.737.666.903 1.16l.003.008.004.008h-.002z"/></svg>