<svg xmlns="http://www.w3.org/2000/svg" viewBox="0 0 38 38"><path d="M27.39 31.193c-.752-3.68-1.698-7-2.736-9.962a21.392 21.392 0 0 1 3.04-.216h.042c1.769 0 3.711.22 5.818.7a14.817 14.817 0 0 1-6.165 9.478zM19 33.825a14.726 14.726 0 0 1-8.808-2.922c.524-.864 1.651-2.52 3.441-4.234 1.841-1.765 4.383-3.581 7.702-4.663a73.146 73.146 0 0 1 2.926 10.848 14.735 14.735 0 0 1-5.261.97zM4.176 19c0-.07.004-.141.008-.214.422.016.963.03 1.617.03h.005c2.98-.02 8.182-.27 13.456-1.934.287.628.57 1.283.853 1.962a23.474 23.474 0 0 0-8.348 4.922 25.427 25.427 0 0 0-4.087 4.77C5.502 25.953 4.176 22.634 4.176 19zm8.275-13.279c1.03 1.216 3.091 3.888 5.29 8.062-4.475 1.332-8.98 1.645-11.707 1.644H5.8c-.46 0-.853-.008-1.182-.018 1.064-4.256 3.977-7.78 7.832-9.688zM19 4.177a14.72 14.72 0 0 1 9.242 3.258c-1.942 2.326-4.509 4.011-7.279 5.2-1.946-3.765-3.83-6.458-5.113-8.105A14.528 14.528 0 0 1 19 4.177zm11.64 5.674a14.728 14.728 0 0 1 3.163 8.452c-2.145-.455-4.171-.676-6.063-.676v-.001h-.013c-1.52 0-2.947.138-4.294.376-.33-.801-.658-1.57-.992-2.308 2.998-1.314 5.873-3.185 8.2-5.843zM19 0C8.503 0 0 8.507 0 19s8.503 19 19 19c10.492 0 19-8.507 19-19S29.492 0 19 0z"/></svg>