<svg xmlns="http://www.w3.org/2000/svg" viewBox="0 0 38 37.052001953125"><path d="M19 0c10.493 0 19 6.892 19 15.393 0 3.507-1.447 6.74-3.885 9.329-4.104 4.46-15.739 12.33-16.747 11.545-1.088-.846.567-2.036.423-4.775-.03-.57-.38-.736-.587-.773C7.553 29.986 0 23.404 0 15.393 0 6.892 8.507 0 19 0zm-4.755 10.517a.987.987 0 0 0-.987.987v7.415a.987.987 0 1 0 1.974 0v-7.415a.987.987 0 0 0-.987-.987zm-6.609 0a.987.987 0 0 0-.987.987v7.415c0 .545.442.987.987.987h3.708a.987.987 0 0 0 0-1.974h-2.72v-6.428a.987.987 0 0 0-.988-.987zm9.994 0a.987.987 0 0 0-.987.987v7.415a.987.987 0 1 0 1.974 0v-4.612l3.845 5.223a.987.987 0 0 0 1.372.202.986.986 0 0 0 .425-.812v-7.415a.988.988 0 1 0-1.975 0v4.629l-3.828-5.2-.308-.27a.982.982 0 0 0-.518-.146zm8.946 0a.986.986 0 0 0-.987.988v7.414c0 .545.442.987.987.987h3.747a.987.987 0 0 0 0-1.974h-2.76v-1.733h2.76a.987.987 0 1 0 0-1.974h-2.76v-1.733h2.76a.988.988 0 1 0 0-1.975h-3.747z"/></svg>