<svg xmlns="http://www.w3.org/2000/svg" viewBox="0 0 39.68799591064453 29.555997848510742"><path fill-rule="evenodd" d="M13.245 25.596s-1.781.92-5.755.873C3.517 26.423 0 25.321.046 22.927c.045-2.394 6.577-5.02 13.153-6.122v3.36l-6.988 1.842s-1.196 1.52.412 1.562c3.653.105 6.667-.874 6.667-.874m8.723 3.133v3.175s13.655-4.42 15.665-6.122c2.01-1.706-4.704-5.941-8.312-5.11 0 0-3.833.187-7.307 1.702v2.855l8.814-2.074 3.105 1.385m-13.472 7.917l-5.8-2.487V0s12.605 2.12 14.34 7.364c1.736 5.248-.969 8.651-1.917 8.749-2.65.278-3.655-1.381-3.655-1.381v-8.47l-2.877-1.2-.091 24.494z"/></svg>