<svg xmlns="http://www.w3.org/2000/svg" viewBox="0 0 24 38"><path d="M15.155 31.059c-.64-.376-1.922-1.652-2.155-2.273v-12.75h9v-7h-9v-9L8.037 0c-.243 1.96-.69 3.576-1.342 4.843a10.43 10.43 0 0 1-2.586 3.264C3.038 9.01 1.505 9.805 0 10.286v5.75h5l-.007 12.86c0 1.74.184 3.066.55 3.983.37.911 1.027 1.777 1.979 2.592.95.802 2.099 1.431 3.446 1.875 1.344.434 2.38.654 4.132.654 1.54 0 2.976-.156 4.306-.46 1.328-.313 2.958-.994 4.594-1.754v-6c-1.92 1.254-3.995 2.024-5.937 2.024-1.092 0-2.057-.249-2.908-.751z"/></svg>