<svg xmlns="http://www.w3.org/2000/svg" viewBox="0 0 35.303001403808594 37.99999237060547"><path d="M12.533 18.038c-1.34 1.924-2.86 3.804-5.81 6.266-2.951 2.463-4.203 4.163-4.203 6.67 0 2.506 1.43 6.668 5.499 6.668 4.068 0 6.034-.895 9.253-.895 3.218 0 5.364 1.253 9.431 1.253 4.069 0 5.767-3.849 5.767-6.355 0-2.507-.706-3.925-3.965-6.787-2.088-1.834-3.857-3.329-6.63-7.178-1.37-1.903-2.95-2.148-4.603-2.148-1.654 0-3.398.581-4.74 2.506zM13.07 0c-2.32 0-4.202 2.601-4.202 5.808s1.881 5.807 4.202 5.807c2.32 0 4.202-2.6 4.202-5.807C17.272 2.601 15.39 0 13.07 0zm17.669 11.369c-2.44.036-4.374 2.355-4.32 5.948.053 3.592 2.07 5.23 4.51 5.194 2.438-.037 4.374-1.732 4.321-5.326-.07-4.676-3.928-5.825-4.511-5.816zM25.303.791C22.984.2 20.459 2.265 19.661 5.402c-.8 3.138.432 6.161 2.75 6.753 2.318.591 4.845-1.473 5.643-4.61C29.093 3.46 25.858.933 25.303.791zM8.867 14.182c.226 3.23-1.525 5.985-3.911 6.152-2.386.167-4.504-2.315-4.73-5.546C0 11.558 1.751 8.803 4.138 8.635c2.386-.166 4.504 2.317 4.73 5.547z"/></svg>