<svg xmlns="http://www.w3.org/2000/svg" viewBox="0 0 38 38"><path d="M29.391 13.279c.667 1.165 1.448 2.668 1.448 4.834 0 1.503-.447 3.39-1.334 5.67l-1.752 5.844-6.337-18.848c1.06-.059 2.005-.169 2.005-.169.946-.11.832-1.498-.11-1.444 0 0-2.841.224-4.674.224-1.723 0-4.617-.224-4.617-.224-.946-.054-1.055 1.39-.112 1.444 0 0 .895.11 1.841.17l2.728 7.485-3.835 11.506-6.387-18.992a38.485 38.485 0 0 0 2.009-.169c.946-.11.83-1.498-.113-1.444 0 0-2.838.224-4.674.224a38 38 0 0 1-1.128-.02C7.486 4.607 12.876 1.465 19 1.465c4.565 0 8.723 1.744 11.84 4.602-.072-.004-.148-.012-.224-.012-1.727 0-2.947 1.499-2.947 3.111 0 1.444.836 2.669 1.722 4.113zm3.783 5.392c.997-2.504 1.334-4.501 1.334-6.283 0-.642-.046-1.241-.122-1.803A17.475 17.475 0 0 1 36.536 19c0 6.468-3.51 12.118-8.72 15.153M19 36.535a17.44 17.44 0 0 1-4.954-.714l5.263-15.284L24.7 35.302c.034.084.076.165.123.236-1.82.646-3.783.997-5.823.997zM1.465 19c0-2.542.547-4.957 1.519-7.14l8.364 22.918C5.5 31.941 1.465 25.941 1.465 19zM0 19c0 10.492 8.506 19 19 19 10.492 0 19-8.508 19-19S29.492 0 19 0C8.506 0 0 8.508 0 19z"/></svg>