<svg xmlns="http://www.w3.org/2000/svg" viewBox="0 0 38 38"><path d="M20.398 17.138l.037-.054v.054m11.783 14.67h-5.74V22.63c0-2.307-.832-3.88-2.907-3.88-1.588 0-2.53 1.061-2.945 2.086-.153.367-.19.879-.19 1.39v9.583h-5.74s.076-15.547 0-17.156h5.74v2.432c.76-1.169 2.123-2.836 5.171-2.836 3.778 0 6.61 2.45 6.61 7.723M8.651 12.309h-.039c-1.925 0-3.173-1.317-3.173-2.965 0-1.682 1.285-2.963 3.248-2.963 1.964 0 3.171 1.28 3.21 2.963 0 1.648-1.246 2.965-3.246 2.965zm2.87 19.5H5.779V14.652h5.742M35.194 0H2.808C1.258 0 0 1.218 0 2.722v32.554C0 36.78 1.258 38 2.808 38h32.386C36.745 38 38 36.78 38 35.276V2.722C38 1.218 36.745 0 35.194 0z"/></svg>