<svg xmlns="http://www.w3.org/2000/svg" viewBox="0 0 38.004180908203125 38.084999084472656"><path fill-rule="evenodd" d="M19.384 25.689L14.53 37.553c1.431.346 2.93.532 4.471.532 1.596 0 3.145-.198 4.627-.566M35.354 9.627c.358 1.715.282 3.792-.418 6.076-1.837 5.95-6.389 16.649-8.15 20.723C33.399 33.479 38 26.888 38 19.233a18.67 18.67 0 0 0-2.647-9.606zm-30.97 3.02s-.925-1.179-1.9-1.179h-.997C.528 13.579 0 16.413 0 19.014c0 7.815 4.792 14.52 11.624 17.378M2.144 9.78C5.316 3.868 11.67 0 19 0c4.746 0 9.078 2.023 12.41 4.877-.95-.185-1.99.022-3.037.621-2.449 1.406-3.25 5.38-.076 7.376 1.985 1.237 2.69 4.34 2.622 6.237-.063 1.895-4.606 10.614-4.606 10.614l-4.425-15.191s-.152-1.069-.152-1.377c0-.384.127-.861.367-1.131.165-.182.414-.558.714-.558h2.094V9.779h-11.4v1.69h.355c.371 0 .739.502 1.09.86.417.431.94 2.048 1.574 3.725l1.66 5.459-3.573 8.259-3.922-16.5s.118-1.132.354-1.322c.152-.135.393-.482.668-.482h.105V9.779H2.145z"/></svg>