<svg xmlns="http://www.w3.org/2000/svg" viewBox="0 0 32.42499542236328 37.89900207519531"><path fill-rule="evenodd" d="M22.061 18.25s.362-2.42 1.765-2.42c1.404 0 3.332 3.231 3.332 3.231s-4.398-.811-5.097-.811zm7.388-13.158c-.654-1.129-4.08-2.43-5.858-2.43H19.01S17.539 0 14.08 0c-3.46 0-3.228 1.543-3.228 2.86v5.325L9.283 9.84H2.04S0 11.19 0 14.108c0 2.917.904 13.084 6.984 14.024 7.192 1.114 8.424-2.229 8.424-2.63 0-1.693.042-4.258.042-4.258s2.107 4.024 5.287 4.024c3.181 0 5.03 1.827 5.03 3.708v3.482s-.118 2.18-1.987 2.18h-3.992s-1.31-1.021-1.31-2.432c0-1.41.64-1.794 1.388-1.794.748 0 1.362.087 1.362.087V27.53s-6.024-.04-6.024 4.573c0 4.611 3.15 5.796 5.677 5.796h4.114s7.43-.955 7.43-15.634c0-14.68-2.32-16.045-2.976-17.174zM7.687 8.167l-6.143-.006L9.241.417l.001 6.245-1.555 1.505z"/></svg>