<svg xmlns="http://www.w3.org/2000/svg" viewBox="0 0 38.00629425048828 50.672996520996094"><path d="M12.67 7.917h3.168L25.338 0v26.92l-9.5-9.501H12.67a3.167 3.167 0 0 1-3.167-3.167v-3.169a3.167 3.167 0 0 1 3.167-3.167zm25.333 5.667c0 3.464-1.59 6.557-4.078 8.59l-2.256-2.256a7.906 7.906 0 0 0 3.167-6.334c0-2.59-1.244-4.89-3.167-6.335l2.256-2.255a11.063 11.063 0 0 1 4.078 8.589zm-6.334 0a4.753 4.753 0 0 1-3.283 4.52l-1.468-2.937a1.584 1.584 0 1 0 0-3.167l1.468-2.936a4.753 4.753 0 0 1 3.283 4.52zm-6.333 18.087a3.167 3.167 0 0 1 3.167 3.167v3.167a3.167 3.167 0 0 1-3.167 3.168h-3.168l-9.5 9.5v-26.92l9.5 7.918h3.168zM.003 37.337c0-3.464 1.59-6.557 4.078-8.59l2.256 2.256a7.906 7.906 0 0 0-3.167 6.334c0 2.59 1.244 4.89 3.167 6.335l-2.256 2.256a11.063 11.063 0 0 1-4.078-8.59zm6.334 0a4.753 4.753 0 0 1 3.283-4.52l1.468 2.937a1.584 1.584 0 0 0 0 3.167L9.62 41.857a4.753 4.753 0 0 1-3.283-4.52z"/></svg>