<svg xmlns="http://www.w3.org/2000/svg" viewBox="0 0 60.17304229736328 26.923999786376953"><path d="M34.837 7.918h3.168L47.505 0v26.92l-9.5-9.501h-3.168a3.167 3.167 0 0 1-3.167-3.167v-3.168a3.167 3.167 0 0 1 3.167-3.167zm25.333 5.666c0 3.464-1.59 6.557-4.078 8.59l-2.256-2.256a7.905 7.905 0 0 0 3.167-6.334c0-2.59-1.244-4.89-3.167-6.335l2.256-2.255a11.063 11.063 0 0 1 4.078 8.59zm-6.334 0a4.753 4.753 0 0 1-3.283 4.52l-1.468-2.937a1.584 1.584 0 1 0 0-3.167l1.468-2.936a4.753 4.753 0 0 1 3.283 4.52zm-28.5-5.663a3.167 3.167 0 0 1 3.168 3.167v3.168a3.167 3.167 0 0 1-3.168 3.167h-3.167l-9.501 9.501V.004l9.5 7.917h3.168zM.004 13.588a11.06 11.06 0 0 1 4.078-8.59l2.256 2.255a7.906 7.906 0 0 0-3.167 6.335c0 2.59 1.244 4.89 3.167 6.334l-2.256 2.256a11.063 11.063 0 0 1-4.078-8.59zm6.334 0a4.753 4.753 0 0 1 3.283-4.52l1.468 2.936a1.584 1.584 0 0 0 0 3.167L9.62 18.107a4.753 4.753 0 0 1-3.283-4.52z"/></svg>