<svg xmlns="http://www.w3.org/2000/svg" viewBox="0 0 39.594749450683594 26.963998794555664"><path d="M3.167 7.962h6.334L19.003.044v26.92l-9.502-9.501H3.167A3.167 3.167 0 0 1 0 14.296v-3.167a3.167 3.167 0 0 1 3.167-3.167zm36.422 4.75c0 4.81-1.95 9.165-5.102 12.317l-2.24-2.239a14.207 14.207 0 0 0 4.175-10.078c0-3.977-1.63-7.574-4.257-10.16L34.079 0a17.371 17.371 0 0 1 5.51 12.712zm-6.334 0c0 3.465-1.59 6.558-4.079 8.59l-2.255-2.255a7.906 7.906 0 0 0 3.167-6.335c0-2.59-1.244-4.89-3.167-6.334l2.255-2.256a11.063 11.063 0 0 1 4.079 8.59zm-6.334 0a4.753 4.753 0 0 1-3.283 4.52l-1.468-2.936a1.584 1.584 0 0 0 0-3.167l1.468-2.936a4.753 4.753 0 0 1 3.282 4.52z"/></svg>