<svg xmlns="http://www.w3.org/2000/svg" viewBox="0 0 42.36543655395508 44.33842086791992"><path d="M8.52 4.752a3.167 3.167 0 1 0 0 6.334 3.167 3.167 0 0 0 0-6.334zm0-4.75a7.917 7.917 0 0 1 3.167 15.175v13.984A7.919 7.919 0 0 1 8.52 44.336a7.917 7.917 0 0 1-3.166-15.175V15.177A7.919 7.919 0 0 1 8.52.002zm0 33.25a3.167 3.167 0 1 0 0 6.334 3.167 3.167 0 0 0 0-6.334zm17.417-22.166v4.75L18.02 7.92 25.937.002v4.75h4.75a6.333 6.333 0 0 1 6.333 6.334v18.075a7.919 7.919 0 0 1-3.166 15.175 7.917 7.917 0 0 1-3.167-15.175V14.252a3.167 3.167 0 0 0-3.167-3.166h-1.583zm7.917 22.166a3.167 3.167 0 1 0 0 6.334 3.167 3.167 0 0 0 0-6.334z"/></svg>