<svg xmlns="http://www.w3.org/2000/svg" viewBox="0 0 38.000003814697266 38.000003814697266"><path d="M3.167 38A3.167 3.167 0 0 0 0 34.833v-3.166a3.167 3.167 0 0 0 0-6.334v-3.166a3.167 3.167 0 0 0 0-6.334v-3.166a3.167 3.167 0 0 0 0-6.334V3.167A3.167 3.167 0 0 0 3.167 0h3.166a3.167 3.167 0 0 0 6.334 0h3.166a3.167 3.167 0 0 0 6.334 0h3.166a3.167 3.167 0 0 0 6.334 0h3.166A3.167 3.167 0 0 0 38 3.167v3.166a3.167 3.167 0 0 0 0 6.334v3.166a3.167 3.167 0 0 0 0 6.334v3.166a3.167 3.167 0 0 0 0 6.334v3.166A3.167 3.167 0 0 0 34.833 38h-3.166a3.167 3.167 0 0 0-6.334 0h-3.166a3.167 3.167 0 0 0-6.334 0h-3.166a3.167 3.167 0 0 0-6.334 0H3.167zm17.711-18.992c-.166 1-.51 1.827-1.031 2.48-.522.653-1.091.992-1.709 1.015-.533-.007-.934-.19-1.205-.55-.27-.359-.406-.853-.407-1.483.026-1.299.394-2.39 1.104-3.275.71-.885 1.61-1.345 2.7-1.382l1 .131-.452 3.064zm2.74 8.257a9.693 9.693 0 0 1-2.22.696c-.823.16-1.651.24-2.486.242-2.398-.008-4.339-.703-5.822-2.086-1.484-1.383-2.248-3.408-2.292-6.073.075-3.135.986-5.567 2.734-7.297 1.748-1.73 3.885-2.608 6.411-2.633 2.508.042 4.417.735 5.727 2.08 1.31 1.345 1.97 3.087 1.979 5.226-.044 1.856-.392 3.233-1.044 4.131-.652.898-1.347 1.33-2.084 1.296-.88 0-1.15-.935-.806-2.807l.967-5.963c-.423-.21-.986-.388-1.688-.532a11.108 11.108 0 0 0-2.148-.225c-2.336.063-4.155.81-5.46 2.243-1.303 1.432-1.966 3.172-1.987 5.22.02 1.359.351 2.4.993 3.121.64.722 1.47 1.086 2.489 1.093 1.751-.02 3.148-.81 4.19-2.37h.065c.092.776.384 1.36.879 1.752.494.393 1.125.59 1.894.59 1.77-.023 3.191-.709 4.264-2.057 1.073-1.348 1.624-3.22 1.653-5.615-.042-2.702-.922-4.874-2.64-6.515-1.719-1.641-4.025-2.484-6.92-2.529-3.614.092-6.49 1.277-8.626 3.556-2.136 2.278-3.23 5.097-3.28 8.457.086 3.12 1.084 5.528 2.994 7.223 1.91 1.696 4.214 2.554 6.913 2.575a17.602 17.602 0 0 0 3.111-.237 13.06 13.06 0 0 0 2.82-.844l-.58-1.718z"/></svg>