<svg xmlns="http://www.w3.org/2000/svg" viewBox="0 0 38 38"><g fill-rule="evenodd"><path d="M18.482 24.369l-2.066-3.015L17.742 25l-4.11.596 4.11.597-1.591 3.116 2.265-2.382-.144 5.631s-10.144-4.707-4.508-15.117c0 0-7.028-7.758-.663-12.532 0 0-10.874 6.564-3.978 17.836 0 0-5.702-5.57-2.719-11.205 0 0-5.171 7.293 1.127 15.316 0 0-1.723-1.06-3.248-5.105 0 0 1.112 12.04 14.583 12.198v.002a29.927 29.927 0 0 0 .268 0v-.002c13.471-.158 14.584-12.198 14.584-12.198-1.526 4.044-3.25 5.105-3.25 5.105 6.3-8.023 1.128-15.316 1.128-15.316 2.983 5.636-2.719 11.205-2.719 11.205C35.773 11.474 24.9 4.91 24.9 4.91c6.365 4.774-.663 12.532-.663 12.532 5.636 10.41-4.508 15.117-4.508 15.117l-.144-5.63 2.265 2.381-1.59-3.116 4.11-.597-4.11-.596 1.325-3.647-2.066 3.015-.516-20.16v-.16l-.002.065-.002-.066v.16l-.516 20.161z"/><path d="M19 0C8.507 0 0 8.507 0 19s8.507 19 19 19 19-8.507 19-19S29.493 0 19 0zm0 2.276c9.236 0 16.724 7.488 16.724 16.724S28.236 35.724 19 35.724 2.276 28.236 2.276 19 9.764 2.276 19 2.276z"/></g></svg>