<svg xmlns="http://www.w3.org/2000/svg" viewBox="0 0 32.91800308227539 38"><path d="M8.81 4.395L16.476 0l7.662 4.424c-.28.47-.56.94-.845 1.407l-6.821-3.924C14.2 3.216 11.928 4.525 9.653 5.83L8.81 4.395zm2.928 2.553l4.703-2.932 4.709 2.93-.471.753-2.367-1.368c-.253 2.375-.524 4.749-.77 7.123 1.052.617 2.111 1.224 3.168 1.836l5.783-4.23-2.363-1.37c.138-.26.269-.526.41-.785 1.629.876 3.262 1.743 4.89 2.62l-.187 5.548-.879-.034v-2.736l-6.562 2.895v3.637l6.562 2.892v-2.736l.878-.031c.064 1.85.129 3.7.186 5.55l-4.89 2.616c-.135-.263-.275-.523-.407-.787.79-.453 1.575-.912 2.363-1.367l-5.815-4.262-3.173 1.835.807 7.154 2.366-1.368.471.752-4.674 2.93-4.739-2.93.473-.753 2.395 1.37.773-7.157c.014-.038-.03-.046-.052-.062l-3.087-1.771-5.815 4.261 2.364 1.4-.439.784c-1.621-.872-3.242-1.742-4.86-2.62.05-1.849.1-3.698.156-5.547l.904.033v2.74l6.567-2.898v-3.666l-6.567-2.896v2.738l-.904.033c-.054-1.84-.109-3.68-.155-5.52l4.858-2.647.44.784-2.365 1.37 5.755 4.23c1.066-.612 2.135-1.22 3.198-1.836-.247-2.374-.517-4.748-.77-7.123l-2.397 1.368c-.16-.248-.314-.5-.471-.75zM.005 9.494A4068.89 4068.89 0 0 0 7.66 5.075c.288.465.567.937.845 1.409l-6.851 3.954-.001 7.878H.003c.001-2.94-.003-5.882.002-8.822zm24.437-2.98l.843-1.439c2.544 1.471 5.083 2.95 7.628 4.419.005 2.94 0 5.881.002 8.822h-1.65v-7.878l-6.823-3.924zM.002 19.653h1.651v7.87c2.345 1.375 4.82 2.79 6.854 3.962l-.841 1.438c-2.557-1.467-5.105-2.949-7.661-4.418C0 25.555.004 22.604.003 19.653zm31.263 0h1.65c0 2.951.003 5.902-.002 8.853-2.545 1.469-5.084 2.948-7.628 4.419l-.843-1.439c2.272-1.322 4.555-2.633 6.821-3.963l.002-7.87zM8.809 33.576l.844-1.438 6.818 3.955 6.822-3.955.844 1.438L16.476 38 8.81 33.576z"/></svg>