<svg xmlns="http://www.w3.org/2000/svg" viewBox="0 0 44.80220031738281 24.02593231201172"><path d="M37.677 3.167a3.958 3.958 0 1 1 0 7.916 3.958 3.958 0 0 1 0-7.916zM6.01 1.583a5.542 5.542 0 0 1 5.542 5.542l-.03.581 11.728 6.082a5.517 5.517 0 0 1 3.343-1.121l3.96-5.542a7.125 7.125 0 1 1 7.124 7.125l-5.542 3.958a5.542 5.542 0 1 1-11.08-.207L9.036 11.768A5.542 5.542 0 1 1 6.01 1.583zm22.228 14.792a2.375 2.375 0 0 1-2.157 4.233l-3.395-1.761a3.96 3.96 0 1 0 2.2-4.21l3.352 1.738zM6.01 3.167a3.958 3.958 0 1 0 1.29 7.701L4.673 9.505A2.375 2.375 0 1 1 6.83 5.273l3.133 1.624a3.959 3.959 0 0 0-3.952-3.73zm31.667-1.584a5.542 5.542 0 1 0 0 11.084 5.542 5.542 0 0 0 0-11.084z"/></svg>