<svg xmlns="http://www.w3.org/2000/svg" viewBox="0 0 31.324878692626953 43.067996978759766"><path d="M5.938 28.896l3.157 2.263c1.397-3.951-2.365-6.936-4.345-8.163v2.337c0 1.018.556 2.861 1.188 3.563zm11.877 7.844c1.272-3.299 4.675-5.072 6.46-5.94L14.25 23.75V12.666h-9.5v8.452c7.917 2.632 6.85 8.55 6.072 11.126l6.992 4.496zm2.277 1.432c1.746 1.315 5.02.967 6.336-.78a3.96 3.96 0 0 0-.355-5.174c-3.153 1.36-5.624 3.953-6.43 5.67l.45.284zm-2.675-15.895l10.137 7.043a7.125 7.125 0 0 1 1.403 9.978c-2.369 3.143-7.628 3.77-10.77 1.403L6.81 33.516c-2.853-1.454-5.228-5.2-5.228-8.183V12.666H0V0h20.583v12.666h-3.166v9.611zM3.167 3.167V9.5h14.25V3.166H3.167z"/></svg>