<svg xmlns="http://www.w3.org/2000/svg" viewBox="0 0 45.356998443603516 41.99799728393555"><path d="M39.357 0v6h-3v5c-.641.963-1.163 2.227-1.513 3.688l-2.423-3.26a1 1 0 0 0-1.409-.122l-1.532 1.285A1 1 0 0 0 29.357 14l5.048 6.387c.187 2.698.912 5.052 1.952 6.614V32h3v6h6V0h-6zM7.495 19.344C5.952 22.708 5.426 28.431 0 35.038a30.157 30.157 0 0 0 6.091 6.96c.73-1.356 3.501-5.17 12.529-7.93 0 0 7.977-6.97 11.987-15.516 0 0-.873-5.136-4.432-1.956-3.56 3.18-8.1 9.657-10.771 6.953-5.553-5.623 17.292-8.424 13.483-16.322 0 0-19.719 8.468-21.392 12.117zm1.426-2.429l5.5-3.348s-1.498-.664-3.411-.08c-1.913.586-2.09 3.428-2.09 3.428zm9.267 1.774c4.547 2.618 6.539-1.128 6.539-1.128l-2.178-1.425-4.361 2.553z"/></svg>