<svg xmlns="http://www.w3.org/2000/svg" viewBox="0 0 36 38"><path d="M0 17c2.347-.142 4-2.057 4-5l-.032-5.347C3.968 2.225 7.6.055 12 0v4c-2.347.06-4 1.204-4 4v5c0 3-1.5 5.5-3.5 6 2 .5 3.5 3 3.5 6v5c0 2.796 1.654 3.94 4 4v4c-4.4-.055-8.032-2.225-8.032-6.653L4 26c0-2.943-1.653-4.858-4-5v-4zm36 0v4c-2.347.142-4 2.057-4 5l.032 5.347c0 4.428-3.632 6.598-8.032 6.653v-4c2.347-.06 4-1.204 4-4v-5c0-3 1.5-5.5 3.5-6-2-.5-3.5-3-3.5-6V8c0-2.796-1.653-3.94-4-4V0c4.4.055 8.032 2.225 8.032 6.653L32 12c0 2.943 1.653 4.858 4 5z"/></svg>