<svg xmlns="http://www.w3.org/2000/svg" viewBox="0 0 53.55799865722656 53.55999755859375"><path d="M34.779 28.78l10.495 10.495-4.049.66 3.416 6.203-3.089 1.642-3.439-6.241-3.334 3.334V28.78zm-1-2.25v3.25h-7v-4h10v3.547l-3-2.797zm-21-.75h10v4h-10v-4zm-5 5h2v-6h-2v-2h2v-6h-2v-2h2v-2h2v2h12v-2h2v2h12v-2h2v2h2v2h-2v6h2v2h-2v6h2v2h-1.295l-2.705-2.521V24.78h-12v6h8v2h-8v2h-2v-2h-12v2h-2v-2h-2v-2zm4-8h12v-6h-12v6zm14 0h12v-6h-12v6zm-14 2v6h12v-6h-12zm1-7h10v4h-10v-4zm14 0h10v4h-10v-4zM49.316 0a35.214 35.214 0 0 1 4.242 4.243l-10.779 10.78V13.78h-2v-2h-3.243L49.316 0zM4.242 53.56A35.214 35.214 0 0 1 0 49.317L15.535 33.78h7.244v1.243L4.242 53.559z"/></svg>