<svg xmlns="http://www.w3.org/2000/svg" viewBox="0 0 31.666000366210938 52.645999908447266"><path d="M31.666 14.646H28.5v34.833h3.166v3.167H0v-3.167h3.166V14.646H0V8.313h3.166V5.146h9.5L13.458 0h4.75L19 5.146h9.5v3.167h3.166v6.333zM1.979 9.896v3.167h27.708V9.896H1.979zm4.354 32.063v5.937h7.917v-5.938H6.333zm0-7.917v5.937h7.917v-5.937H6.333zm0-12.667v2.771h1.583v-2.77H6.333zm3.167 0v2.771h1.583v-2.77H9.5zm3.166 0v2.771h1.584v-2.77h-1.584zm-6.333-4.749v2.77h1.583v-2.77H6.333zm3.167 0v2.77h1.583v-2.77H9.5zm3.166 0v2.77h1.584v-2.77h-1.584zm-6.333 9.5v5.938h7.917v-5.938H6.333zm1.583 1.188h4.75v3.562h-4.75v-3.562zm9.5 14.646v5.936h7.917v-5.937h-7.917zm0-7.917v5.937h7.917v-5.937h-7.917zm0-12.667v2.771H19v-2.77h-1.584zm3.167 0v2.771h1.583v-2.77h-1.583zm3.167 0v2.771h1.583v-2.77H23.75zm-6.334-4.75v2.77H19v-2.77h-1.584zm3.167 0v2.77h1.583v-2.77h-1.583zm3.167 0v2.77h1.583v-2.77H23.75zm-6.334 9.5v5.938h7.917v-5.938h-7.917zm0-20.979l-.395-2.77h-2.376l-.395 2.77h3.166zM5.146 6.73v1.584h21.375V6.73H5.144z"/></svg>