<svg xmlns="http://www.w3.org/2000/svg" viewBox="0 0 38 37.409767150878906"><path fill-opacity=".702" d="M17 17.41h4l5.034 7.358-1.545 12.642H17v-20zM28.993.559l-1.815 14.844A7.5 7.5 0 1 1 28.993.559zM3.5 26.409l3.28 5.389-.407 5.612H0v-11h3.5zm3.5-10l.884.099-.57 7.89L7 24.41a4 4 0 1 1 0-8z"/><path d="M27.5 15.41l-.322-.007L28.993.559a7.5 7.5 0 0 1-1.493 14.85zm-1.466 9.358L27.5 26.91l6.5-9.5h4v20H24.489l1.545-12.642zM14 37.41H6.374l.405-5.612.221.362 3.5-5.75H14v11zm-3-17a4 4 0 0 1-3.686 3.988l.57-7.89A4.002 4.002 0 0 1 11 20.41z"/></svg>