<svg xmlns="http://www.w3.org/2000/svg" viewBox="0 0 32.56376647949219 40.57080841064453"><path d="M16.5 31a5.5 5.5 0 1 1-6.5-5.41V13h2v12.59A5.503 5.503 0 0 1 16.5 31zm3.5 0a9 9 0 1 1-13-8.064V4a4 4 0 1 1 8 0v18.935A9 9 0 0 1 20 31zM9 24.29a7 7 0 1 0 4 0V4a2 2 0 0 0-4 0v20.29zM6 3v1H0V3h6zm0 3v1H2V6h4zm0 3v1H0V9h6zm0 3v1H2v-1h4zm0 3v1H0v-1h6zm0 3v1H2v-1h4zm0 3v1H0v-1h6zM25.46 9.36h-4.48v3.173h4.107v2.427H20.98V20h-2.987V6.933h7.467V9.36zm4.474 2.427c-.727 0-1.343-.246-1.849-.738a2.412 2.412 0 0 1-.758-1.797c0-.704.252-1.297.758-1.78.505-.484 1.122-.725 1.85-.725.722 0 1.34.241 1.851.724.512.484.767 1.077.767 1.781a2.4 2.4 0 0 1-.767 1.797 2.575 2.575 0 0 1-1.852.738zm.006-3.734c-.313 0-.578.117-.795.35a1.21 1.21 0 0 0-.325.855c0 .336.108.624.325.863.217.24.482.359.795.359.307 0 .57-.12.79-.359.22-.239.33-.527.33-.863a1.21 1.21 0 0 0-.325-.855 1.044 1.044 0 0 0-.795-.35z"/></svg>