<svg xmlns="http://www.w3.org/2000/svg" viewBox="0 0 38.56800079345703 48.849998474121094"><path d="M11.083 28.267h4.75v7.917h7.917v4.75h-7.917v7.916h-4.75v-7.916H3.167v-4.75h7.916v-7.917zM8.444 17.711c1.584-.527 2.46-.13 2.825-.785.366-.655.884-1.317 1.553-1.986a21.15 21.15 0 0 1 2.427-2.05l3.19-2.092c.824-.497 1.578-1.1 2.264-1.805a18.213 18.213 0 0 0 1.823-2.183c.529-.749.968-1.48 1.316-2.196l.738-1.826c.263-.967.632-1.673 1.106-2.119C26.161.223 26.63 0 27.093 0c.446 0 .835.179 1.166.536.332.358.515.86.55 1.505l.025.48v.481c0 1.178-.125 2.321-.373 3.43-.249 1.11-.625 1.993-1.128 2.65l-.922 1.356-.948 1.518-1.072 1.74 5.172.533 2.144.231 2.114.24 1.904.227 1.505.194c.406.051.73.304.974.759.242.454.364.967.364 1.539l-.081.806-.296.78-.266.532-.39.794-.39.819-.24.617-.16.746-.162 1.085-.163 1.128-.159.815-.442 1.14-.587.914-.605.776-.484.738-.373 1.016-.254.858-.282.789-.43.793-.29.403-.931 1.3-.978 1.123c-.34.329-.706.592-1.098.789-.392.197-.83.296-1.316.296h-2.858V34.6h-7.916v-7.916H9.5V34.6H7.962l.482-16.889zM0 36.477V17.711l6.432-.03v16.92H1.583v1.875H0z"/></svg>