<svg xmlns="http://www.w3.org/2000/svg" viewBox="0 0 38 47.104000091552734"><path d="M19.396 47.104c0-6.334 2.77-12.271 2.77-10.688 0 1.584 3.167-4.75 4.75-7.916 1.584-3.167 3.167-7.521 3.167-7.521l6.334.396S38 7.52 34.833 5.937c-3.166-1.583-6.464.634-9.5-1.187C17.417 0 4.75 3.166 6.333 6.333c0 0-6.333 3.167-4.75 4.75 0 0-1.583 2.375.396 4.75-1.979 2.375-1.187 4.75 0 6.333C.792 24.541 0 26.916 4.75 28.5c3.004 1.001 11.083-2.771 11.083 1.583 0 1.583-3.166 6.333-3.166 9.5 0 6.333 6.729 7.52 6.729 7.52z"/></svg>