<svg xmlns="http://www.w3.org/2000/svg" viewBox="0 0 46.20600128173828 38.884002685546875"><path d="M13.428 38.884A5.006 5.006 0 0 0 8.1 37.457L0 23.427A5.006 5.006 0 0 0 1.428 18.1L32.778 0a5.006 5.006 0 0 0 5.328 1.427l8.1 14.03a5.006 5.006 0 0 0-1.428 5.327l-31.35 18.1zM5.372 20.73c-.957.553-1.193 1.434-.641 2.39l6 10.393c.552.957 1.434 1.193 2.39.64l27.713-16c.957-.551 1.193-1.433.64-2.39l-6-10.392c-.551-.957-1.433-1.193-2.39-.64l-27.712 16zm.375.65l27.712-16a1 1 0 0 1 1.366.366l6 10.392a1 1 0 0 1-.366 1.366l-27.713 16a1 1 0 0 1-1.366-.366l-6-10.392a1 1 0 0 1 .367-1.366zm9.306-.09l-.6-1.039-4.498 2.598.6 1.038 1.606-.928 2.668 4.621 1.278-.737-2.668-4.622 1.614-.932zm1.27-.813a.858.858 0 0 0 .414-.481.696.696 0 0 0-.07-.581.676.676 0 0 0-.464-.343c-.2-.042-.408-.001-.62.122a.87.87 0 0 0-.416.476.672.672 0 0 0 .063.574.696.696 0 0 0 .468.344c.206.047.415.01.625-.111zm3.318 4.325l-2.334-4.041-1.246.72 2.333 4.041 1.247-.72zm3.994-2.501l-.578-1.002c-.185.366-.433.639-.743.818-.35.203-.685.26-1.003.17-.317-.088-.58-.312-.786-.67-.213-.367-.275-.716-.186-1.046.088-.33.311-.599.67-.805.32-.185.667-.256 1.04-.212l-.61-1.057c-.286-.004-.667.132-1.144.407-.69.398-1.126.914-1.309 1.548-.183.633-.077 1.293.32 1.98.343.595.816.97 1.417 1.124.602.154 1.213.052 1.834-.306.53-.307.89-.623 1.078-.95zm4.951-2.663l-2.788-1.248.352-2.735-1.48.855-.126 2.561-.016.01-2.2-3.81-1.246.72 3.455 5.984 1.247-.72-1.158-2.005.016-.01 2.449 1.261 1.495-.863zm2.945-3.921l-.303-.525c-.347-.6-.782-.982-1.307-1.146-.524-.163-1.081-.075-1.67.265-.569.328-.934.8-1.098 1.418-.163.616-.05 1.26.337 1.931.374.648.845 1.048 1.414 1.202.57.154 1.18.042 1.833-.335.598-.345 1.025-.725 1.283-1.14l-.52-.9c-.215.405-.545.735-.99.992-.697.403-1.236.322-1.616-.24l2.637-1.522zm-1.6-.098l-1.487.859a1.3 1.3 0 0 1-.092-.774.775.775 0 0 1 .376-.548c.468-.27.87-.116 1.204.463zm5.71-.118l-.533-.924-.34.35c-.335.193-.623.079-.866-.342l-.944-1.634.908-.525-.53-.919-.909.524-.709-1.227-1.037 1.072.503.873-.655.378.53.92.656-.379 1.07 1.852c.526.912 1.23 1.115 2.108.607.37-.213.62-.422.748-.627z"/></svg>