<svg xmlns="http://www.w3.org/2000/svg" viewBox="0 0 43.9370002746582 42.75"><path d="M24.383 30.4l6.65 6.65 10.054-14.092 2.85 2.85L31.033 42.75l-9.5-9.5 2.85-2.85zm7.283-8.234a15.76 15.76 0 0 1-2.866 9.088l-2.856-2.856a11.8 11.8 0 0 0 1.66-4.648H23.75v-3.167h3.853a11.882 11.882 0 0 0-10.187-10.187v3.854H14.25v-3.854A11.882 11.882 0 0 0 4.063 20.583h3.853v3.167H4.063A11.882 11.882 0 0 0 14.25 33.937v-3.854h3.166v3.854l1.988-.442 3.055 3.056A15.775 15.775 0 0 1 15.833 38C7.089 38 0 30.91 0 22.166c0-8.21 6.249-14.96 14.25-15.755V4.75H9.5V0h12.666v4.75h-4.75v1.661a15.76 15.76 0 0 1 8.438 3.496l1.142-1.143-2.24-2.239 3.36-3.359 6.717 6.718-3.359 3.359-2.239-2.24-1.142 1.143a15.768 15.768 0 0 1 3.573 10.02zM15.833 19a3.167 3.167 0 0 1 0 6.333L9.5 30.083l3.166-7.917A3.167 3.167 0 0 1 15.833 19z"/></svg>