<svg xmlns="http://www.w3.org/2000/svg" viewBox="0 0 37.178009033203125 42.75"><path d="M29.493 39.382v.075h7.43v3.293H25.018v-3.095l5.236-4.873c1.056-.976 1.798-1.795 2.227-2.456.429-.661.643-1.356.643-2.084 0-1.626-.92-2.438-2.759-2.438-1.599 0-3.128.59-4.587 1.773v-3.44c1.599-.916 3.402-1.373 5.41-1.373 1.882 0 3.35.45 4.406 1.353 1.056.903 1.584 2.122 1.584 3.658 0 2.05-1.293 4.17-3.88 6.357l-3.803 3.25zM23.75 23.75v-3.166h3.854a11.882 11.882 0 0 0-10.187-10.187v3.853H14.25v-3.853A11.882 11.882 0 0 0 4.063 20.584h3.854v3.166H4.063A11.882 11.882 0 0 0 14.25 33.937v-3.853h3.167v3.853a11.83 11.83 0 0 0 6.27-2.862v1.02l3.404-.76v1.966a15.785 15.785 0 0 1-11.258 4.7C7.09 38 0 30.91 0 22.167c0-8.21 6.249-14.96 14.25-15.755V4.75H9.5V0h12.667v4.75h-4.75v1.662a15.76 15.76 0 0 1 8.437 3.495l1.142-1.142-2.239-2.24 3.359-3.358 6.717 6.718-3.358 3.358-2.24-2.239-1.142 1.143a15.763 15.763 0 0 1 3.565 9.495l-5.42 2.108H23.75zM15.833 19a3.167 3.167 0 0 1 0 6.334L9.5 30.084l3.167-7.917A3.167 3.167 0 0 1 15.833 19z"/></svg>