<svg xmlns="http://www.w3.org/2000/svg" viewBox="0 0 34.83399963378906 44.58300018310547"><path d="M23.417 28.583v16h-3v-16h3zm1 0l8 8-8 8v-16zm7.25-6.417c0 2.647-.65 5.142-1.797 7.334l-3.096-2.709a11.78 11.78 0 0 0 .83-3.041H23.75v-3.167h3.854a11.882 11.882 0 0 0-10.187-10.187v3.854H14.25v-3.854A11.882 11.882 0 0 0 4.063 20.583h3.854v3.167H4.063A11.882 11.882 0 0 0 14.25 33.937v-3.854h3.167v3.854l2-.377v4.099c-1.176.223-2.458.34-3.583.34C7.089 37.999 0 30.911 0 22.166c0-8.21 6.25-14.96 14.25-15.755V4.75H9.5V0h12.667v4.75h-4.75v1.661a15.76 15.76 0 0 1 8.437 3.496l1.143-1.143-2.24-2.239 3.36-3.359 6.717 6.718-3.36 3.359-2.238-2.24-1.143 1.143a15.768 15.768 0 0 1 3.574 10.02zM15.834 19a3.167 3.167 0 0 1 0 6.333L9.5 30.083l3.167-7.917A3.167 3.167 0 0 1 15.834 19z"/></svg>