<svg xmlns="http://www.w3.org/2000/svg" viewBox="0 0 39.26700210571289 42.75"><path d="M39.267 38.95H37.24v3.8h-3.547v-3.8h-7.852v-2.49l7.567-11.443h3.832v11.147h2.027v2.786zm-5.522-10.133h-.075l-.685 1.401-3.903 5.946h4.611v-5.637l.052-1.71zm-2.078-6.65l-.02.792h-.724l-7.569 11.443v1.702A15.763 15.763 0 0 1 15.834 38C7.088 38 0 30.912 0 22.167c0-8.21 6.249-14.96 14.25-15.755V4.75H9.5V0h12.667v4.75h-4.75v1.662a15.76 15.76 0 0 1 8.437 3.495l1.142-1.142-2.239-2.24 3.359-3.358 6.717 6.718-3.358 3.358-2.24-2.239-1.142 1.143a15.768 15.768 0 0 1 3.574 10.02zM4.063 20.584h3.854v3.166H4.063A11.882 11.882 0 0 0 14.25 33.937v-3.853h3.167v3.853A11.882 11.882 0 0 0 27.604 23.75H23.75v-3.166h3.854a11.882 11.882 0 0 0-10.187-10.187v3.853H14.25v-3.853A11.882 11.882 0 0 0 4.063 20.584zM15.833 19a3.167 3.167 0 0 1 0 6.334L9.5 30.084l3.167-7.917A3.167 3.167 0 0 1 15.833 19zm14.65 9.183a15.852 15.852 0 0 1-3.291 5.015l3.292-5.015z"/></svg>