<svg xmlns="http://www.w3.org/2000/svg" viewBox="0 0 36.923004150390625 43.003997802734375"><path d="M25.523 42.109v-3.412c1.19.844 2.58 1.267 4.168 1.267 1.003 0 1.784-.21 2.342-.632.558-.42.837-1.006.837-1.755 0-.776-.351-1.374-1.053-1.795-.702-.421-1.666-.632-2.894-.632h-1.626v-3.04h1.512c2.37 0 3.554-.74 3.554-2.22 0-1.391-.88-2.086-2.64-2.086-1.18 0-2.326.422-3.44 1.266v-3.325c1.248-.654 2.704-.981 4.366-.981 1.819 0 3.234.404 4.248 1.213 1.013.809 1.52 1.858 1.52 3.149 0 2.296-1.197 3.734-3.59 4.314v.064c1.266.155 2.266.61 2.998 1.361.732.752 1.098 1.676 1.098 2.771 0 1.655-.61 2.963-1.832 3.925-1.222.962-2.91 1.443-5.063 1.443-1.847 0-3.349-.299-4.505-.895zM23.75 23.75v-3.166h3.854a11.882 11.882 0 0 0-10.187-10.187v3.853H14.25v-3.853A11.882 11.882 0 0 0 4.063 20.584h3.854v3.166H4.063A11.882 11.882 0 0 0 14.25 33.937v-3.853h3.167v3.853a11.827 11.827 0 0 0 6.2-2.802l1.044 4.178A15.76 15.76 0 0 1 15.833 38C7.09 38 0 30.912 0 22.167c0-8.21 6.249-14.96 14.25-15.755V4.75H9.5V0h12.667v4.75h-4.75v1.662a15.76 15.76 0 0 1 8.437 3.495l1.142-1.142-2.239-2.24 3.359-3.358 6.717 6.718-3.358 3.358-2.24-2.239-1.142 1.143a15.763 15.763 0 0 1 3.565 9.495l-6.325 2.108H23.75zM15.833 19a3.167 3.167 0 0 1 0 6.334L9.5 30.084l3.167-7.917A3.167 3.167 0 0 1 15.833 19z"/></svg>