<svg xmlns="http://www.w3.org/2000/svg" viewBox="0 0 53.04199981689453 46.70800018310547"><path d="M42.75 22.167C42.75 30.91 35.662 38 26.917 38c-8.744 0-15.833-7.089-15.833-15.833 0-8.21 6.249-14.961 14.25-15.756V4.75h-4.75V0H33.25v4.75H28.5v1.662a15.76 15.76 0 0 1 8.438 3.495l1.142-1.142-2.24-2.24 3.36-3.358 6.717 6.717-3.359 3.359-2.239-2.24-1.142 1.143a15.768 15.768 0 0 1 3.573 10.02zm-27.603-1.584H19v3.167h-3.853a11.882 11.882 0 0 0 10.187 10.187v-3.854H28.5v3.854A11.882 11.882 0 0 0 38.687 23.75h-3.853v-3.167h3.853A11.882 11.882 0 0 0 28.5 10.396v3.854h-3.166v-3.854a11.882 11.882 0 0 0-10.187 10.187zM26.917 19a3.167 3.167 0 0 1 0 6.333l-6.333 4.75 3.166-7.916A3.167 3.167 0 0 1 26.917 19zM8.709 14.25V7.938A22.064 22.064 0 0 0 4.75 20.583c0 12.243 9.925 22.167 22.167 22.167h4.354c12.024 0 21.77-9.924 21.771-22.166 0 14.428-11.697 26.124-26.125 26.124S.792 35.012.792 20.583c0-5.6 1.762-10.788 4.762-15.041H0l3.959-3.959h8.708v8.709L8.709 14.25z"/></svg>