<svg xmlns="http://www.w3.org/2000/svg" viewBox="0 0 41.16699981689453 49.08300018310547"><path d="M30.875 34.833a3.959 3.959 0 1 1 0 7.917 3.959 3.959 0 0 1 0-7.917zm0-2.375a6.334 6.334 0 1 0 0 12.667 6.334 6.334 0 0 0 0-12.667zm0-3.958c5.684 0 10.292 4.608 10.292 10.292s-4.608 10.291-10.292 10.291-10.291-4.607-10.291-10.291S25.191 28.5 30.875 28.5zm.792-6.333c0 1.087-.11 2.149-.318 3.175l-.474-.009c-1.302 0-2.562.185-3.753.53.222-.679.385-1.386.482-2.113H23.75v-3.167h3.854a11.882 11.882 0 0 0-10.187-10.187v3.854H14.25v-3.854A11.882 11.882 0 0 0 4.063 20.583h3.854v3.167H4.063A11.882 11.882 0 0 0 14.25 33.937v-3.854h3.167v3.854l.97-.17a13.392 13.392 0 0 0-.942 4.152L15.834 38C7.089 38 0 30.911 0 22.167c0-8.21 6.25-14.961 14.25-15.756V4.75H9.5V0h12.667v4.75h-4.75v1.662a15.761 15.761 0 0 1 8.437 3.495l1.143-1.142-2.24-2.24 3.36-3.358 6.717 6.717-3.36 3.359-2.238-2.24-1.143 1.143a15.768 15.768 0 0 1 3.574 10.02zM15.834 19a3.167 3.167 0 1 1 0 6.333L9.5 30.083l3.167-7.916A3.167 3.167 0 0 1 15.834 19z"/></svg>