<svg xmlns="http://www.w3.org/2000/svg" viewBox="0 0 34.83300018310547 38"><path d="M31.666 22.167C31.666 30.91 24.578 38 15.833 38 7.089 38 0 30.911 0 22.167c0-8.21 6.249-14.961 14.25-15.756V4.75H9.5V0h12.666v4.75h-4.75v1.662a15.76 15.76 0 0 1 8.438 3.495l1.142-1.142-2.24-2.24 3.36-3.358 6.717 6.717-3.359 3.359-2.239-2.24-1.142 1.143a15.768 15.768 0 0 1 3.573 10.02zM4.063 20.583h3.853v3.167H4.063A11.882 11.882 0 0 0 14.25 33.937v-3.854h3.166v3.854A11.881 11.881 0 0 0 27.603 23.75H23.75v-3.167h3.853a11.882 11.882 0 0 0-10.187-10.187v3.854H14.25v-3.854A11.882 11.882 0 0 0 4.063 20.583zM15.833 19a3.167 3.167 0 0 1 0 6.333L9.5 30.083l3.166-7.916A3.167 3.167 0 0 1 15.833 19z"/></svg>