<svg xmlns="http://www.w3.org/2000/svg" viewBox="0 0 36.41699981689453 42.75"><path d="M22.167 28.5h14.25v14.25h-14.25V28.5zm9.5-6.333c0 1.084-.11 2.144-.317 3.167h-4.07l.323-1.584H23.75v-3.166h3.854a11.882 11.882 0 0 0-10.187-10.187v3.853H14.25v-3.853A11.882 11.882 0 0 0 4.063 20.584h3.854v3.166H4.063A11.882 11.882 0 0 0 14.25 33.937v-3.853h3.167v3.853L19 33.615v4.069a15.906 15.906 0 0 1-3.167.316C7.09 38 0 30.912 0 22.167c0-8.21 6.249-14.96 14.25-15.755V4.75H9.5V0h12.667v4.75h-4.75v1.662a15.76 15.76 0 0 1 8.437 3.495l1.142-1.142-2.239-2.24 3.359-3.358 6.717 6.718-3.358 3.358-2.24-2.239-1.142 1.143a15.768 15.768 0 0 1 3.574 10.02zM15.833 19a3.167 3.167 0 0 1 0 6.334L9.5 30.084l3.167-7.917A3.167 3.167 0 0 1 15.833 19z"/></svg>