<svg xmlns="http://www.w3.org/2000/svg" viewBox="0 0 53.04199981689453 46.70800018310547"><path d="M44.333 14.25l-3.958-3.958V1.583h8.708l3.959 3.959h-5.554c3 4.253 4.762 9.441 4.762 15.041 0 14.429-11.697 26.125-26.125 26.125S0 35.012 0 20.583C0 32.826 9.747 42.75 21.77 42.75h4.355c12.242 0 22.167-9.924 22.167-22.167 0-4.7-1.463-9.059-3.959-12.645v6.312zm-2.375 7.917C41.958 30.91 34.87 38 26.125 38c-8.744 0-15.833-7.089-15.833-15.833 0-8.21 6.249-14.961 14.25-15.756V4.75h-4.75V0h12.666v4.75h-4.75v1.662a15.734 15.734 0 0 1 8.438 3.495 15.935 15.935 0 0 1 4.374 5.658 15.775 15.775 0 0 1 1.438 6.602zm-27.603-1.584h3.853v3.167h-3.853a11.882 11.882 0 0 0 10.187 10.187v-3.854h3.166v3.854A11.882 11.882 0 0 0 37.895 23.75h-3.853v-3.167h3.853a11.882 11.882 0 0 0-10.187-10.187v3.854h-3.166v-3.854a11.882 11.882 0 0 0-10.187 10.187zM26.125 19a3.167 3.167 0 1 1 0 6.333l-6.333 4.75 3.166-7.916A3.167 3.167 0 0 1 26.125 19z"/></svg>