<svg xmlns="http://www.w3.org/2000/svg" viewBox="0 0 38.76000213623047 43.003997802734375"><path d="M27.36 42.247V38.95a8.19 8.19 0 0 0 3.97 1.014c1.058 0 1.886-.244 2.482-.73.596-.487.895-1.147.895-1.978 0-1.742-1.276-2.612-3.828-2.612l-3.012.221v-9.848H38v3.293h-6.84v3.369l1.532-.075c1.897 0 3.383.479 4.457 1.437 1.074.957 1.611 2.246 1.611 3.867 0 1.792-.629 3.256-1.886 4.392-1.258 1.136-2.962 1.704-5.113 1.704-1.744 0-3.21-.252-4.401-.756zM15.833 38C7.09 38 0 30.912 0 22.167c0-8.21 6.249-14.96 14.25-15.755V4.75H9.5V0h12.667v4.75h-4.75v1.662a15.76 15.76 0 0 1 8.437 3.495l1.142-1.142-2.239-2.24 3.359-3.358 6.717 6.718-3.358 3.358-2.24-2.239-1.142 1.143a15.768 15.768 0 0 1 3.574 10.02h-5.542v1.583H23.75v-3.166h3.854a11.882 11.882 0 0 0-10.187-10.187v3.853H14.25v-3.853A11.882 11.882 0 0 0 4.063 20.584h3.854v3.166H4.063A11.882 11.882 0 0 0 14.25 33.937v-3.853h3.167v3.853c3.23-.43 6.05-2.159 7.916-4.644v5.542a15.763 15.763 0 0 1-9.5 3.165zm0-19a3.167 3.167 0 0 1 0 6.334L9.5 30.084l3.167-7.917A3.167 3.167 0 0 1 15.833 19z"/></svg>