<svg xmlns="http://www.w3.org/2000/svg" viewBox="0 0 42.974525451660156 42.974525451660156"><path d="M9.149 26.565c1.186 0 2.31.26 3.32.728L18.762 21l-2.363-2.363-2.24 2.239-2.239-2.24.93-.93c-1.892-.739-3.31-2.242-5.56-4.492C2.652 8.577 0 3.709 1.856 1.854 3.711 0 7.786 1.859 12.424 6.497c2.25 2.25 4.544 4.46 5.284 6.352l.93-.93 2.239 2.24-2.24 2.239 2.364 2.363 6.293-6.293A7.917 7.917 0 0 1 37.376 1.777l-6.06 6.06 4.478 4.478 6.06-6.06a7.917 7.917 0 0 1-9.816 10.425l-6.559 6.56 9.216 9.215.56-.56L40.7 37.34l-3.359 3.36-5.445-5.447.56-.56-9.216-9.215-6.559 6.56a7.917 7.917 0 0 1-10.425 9.816l6.06-6.06-4.478-4.479-6.06 6.06a7.917 7.917 0 0 1 7.371-10.81z"/></svg>