<svg xmlns="http://www.w3.org/2000/svg" viewBox="0 0 34.84475326538086 34.51100158691406"><path d="M17.422 7.594a3.167 3.167 0 1 1 0 6.334 3.167 3.167 0 0 1 0-6.334zm2.575 8.532l2.967 18.385H11.88l2.967-18.385h5.15zm14.842-5.365c0 4.062-1.39 7.799-3.72 10.76l-2.49-1.956a14.19 14.19 0 0 0 3.043-8.804 14.19 14.19 0 0 0-3.044-8.804L31.118 0a17.342 17.342 0 0 1 3.72 10.761zM3.726 21.521a17.342 17.342 0 0 1-3.72-10.76A17.34 17.34 0 0 1 3.726.001l2.49 1.956a14.188 14.188 0 0 0-3.044 8.804c0 3.323 1.137 6.38 3.044 8.804l-2.49 1.957zM26.137 3.913a11.036 11.036 0 0 1 2.368 6.848 11.03 11.03 0 0 1-2.368 6.848l-2.49-1.957a7.883 7.883 0 0 0 1.692-4.891 7.883 7.883 0 0 0-1.692-4.891l2.49-1.957zM8.707 17.609a11.036 11.036 0 0 1-2.368-6.848c0-2.585.884-4.963 2.368-6.848l2.49 1.957a7.883 7.883 0 0 0-1.692 4.891c0 1.846.632 3.545 1.692 4.891l-2.49 1.957z"/></svg>