<svg xmlns="http://www.w3.org/2000/svg" viewBox="0 0 28.5 45.91699981689453"><path d="M5.542 6.333h17.416c1.75 0 3.959 2.21 3.959 3.959v22.166c0 1.75-2.21 3.959-3.959 3.959h-.791v1.9l6.333 7.6h-3.167l-5.277-6.334H8.444l-5.277 6.334H0l6.333-7.6v-1.9h-.791c-1.75 0-3.959-2.21-3.959-3.959V10.292c0-1.75 2.21-3.959 3.959-3.959zm5.541 1.584a1.583 1.583 0 1 0 0 3.166h6.334a1.583 1.583 0 0 0 0-3.166h-6.334zm-3.166 4.75a3.167 3.167 0 0 0-3.167 3.166v1.584a3.167 3.167 0 0 0 3.167 3.166h12.666a3.167 3.167 0 0 0 3.167-3.166v-1.584a3.167 3.167 0 0 0-3.167-3.166H7.917zM7.125 28.5a2.375 2.375 0 1 0 0 4.75 2.375 2.375 0 0 0 0-4.75zm14.25 0a2.375 2.375 0 1 0 0 4.75 2.375 2.375 0 0 0 0-4.75zM18.208 0a2.375 2.375 0 1 1 0 4.75 2.375 2.375 0 0 1 0-4.75zm-7.916 0a2.375 2.375 0 1 1 0 4.75 2.375 2.375 0 0 1 0-4.75z"/></svg>