<svg xmlns="http://www.w3.org/2000/svg" viewBox="0 0 31.666000366210938 38.00055694580078"><path d="M25.333 38a1.583 1.583 0 0 1-1.583-1.583V33.25H7.916v3.167c0 .874-.709 1.583-1.583 1.583H4.75a1.583 1.583 0 0 1-1.584-1.583V33.25H0L1.583 7.125C1.583 3.19 7.963 0 15.833 0s14.25 3.19 14.25 7.125l1.583 26.125H28.5v3.167c0 .874-.71 1.583-1.584 1.583h-1.583zM5.541 23.75a2.375 2.375 0 1 0 0 4.75 2.375 2.375 0 0 0 0-4.75zm20.584 0a2.375 2.375 0 1 0 0 4.75 2.375 2.375 0 0 0 0-4.75zM9.5 3.167a.792.792 0 1 0 0 1.583h12.666a.792.792 0 1 0 0-1.583H9.5zM3.562 18.604h24.542L26.916 8.313c0-.875-.709-1.584-1.583-1.584h-19c-.875 0-1.583.71-1.583 1.584L3.562 18.604z"/></svg>