<svg xmlns="http://www.w3.org/2000/svg" viewBox="0 0 47.5 43.10190200805664"><path d="M8.708 35.185a3.959 3.959 0 1 1 0 7.917 3.959 3.959 0 0 1 0-7.917zm26.917 0a3.959 3.959 0 1 1 0 7.917 3.959 3.959 0 0 1 0-7.917zM47.5 38.352h-6.39a5.543 5.543 0 0 0-10.97 0H14.193a5.543 5.543 0 0 0-10.971 0H0V20.935a3.167 3.167 0 0 1 3.167-3.167h40.375a3.167 3.167 0 0 1 3.166 3.167l.792 17.417zm-1.98-17.417h-2.77v11.083h3.167l-.397-11.083zm-5.937 6.333v-6.333h-7.916v6.333h7.916zm-9.5-6.333h-7.916v6.333h7.916v-6.333zm-9.5 0h-7.916v6.333h7.916v-6.333zm-9.5 0H3.167v6.333h7.916v-6.333zM32.458 5.102l-4.75-4.75h6.334l5.541 4.926V.352h3.167v12.666h-3.167V8.092l-5.541 4.926h-6.334l4.75-4.75h-15.24a6.333 6.333 0 1 1 0-3.167h15.24z"/></svg>