<svg xmlns="http://www.w3.org/2000/svg" viewBox="0 0 47.5 41.16699981689453"><path d="M8.708 17.417a3.959 3.959 0 1 1 0 7.917 3.959 3.959 0 0 1 0-7.917zm26.917 0a3.959 3.959 0 1 1 0 7.917 3.959 3.959 0 0 1 0-7.917zM47.5 20.584h-6.39a5.543 5.543 0 0 0-10.97 0H14.193a5.543 5.543 0 0 0-10.971 0H0V3.167A3.167 3.167 0 0 1 3.167 0h40.375a3.167 3.167 0 0 1 3.166 3.167l.792 17.417zM45.52 3.167h-2.77V14.25h3.167L45.52 3.167zM39.583 9.5V3.167h-7.916V9.5h7.916zm-9.5-6.333h-7.916V9.5h7.916V3.167zm-9.5 0h-7.916V9.5h7.916V3.167zm-9.5 0H3.167V9.5h7.916V3.167zm3.167 28.5h12.667l-6.334-6.333h6.334l8.708 7.916-8.708 7.917h-6.334l6.334-6.333H14.25v-3.167z"/></svg>