<svg xmlns="http://www.w3.org/2000/svg" viewBox="0 0 47.375999450683594 44.94183349609375"><path d="M25.29 42.404l-1.087-9.05c-.378-.584-.133-1.315.035-2.047l4.69-7.114-.38-.722-2.052-3.723-4.66 3.946a2.002 2.002 0 0 1-.488.26l-4.19 8.592c1.841 2.917 1.841 11.744 1.841 11.744H1.583c-1.583-7.917 1.583-9.5 1.583-9.5-1.583-1.583 1.584-6.333 1.584-6.333 1.583-4.75 4.75-1.584 4.75-1.584 1.583-1.583 3.166 0 3.166 0 1.199 0 2.397 2.721 2.909 4.044l3.638-7.46a2.004 2.004 0 0 1 .271-3.01l5.428-4.657-.138-2.907a4.007 4.007 0 0 1 7.703-1.086l3.503 8.67.252.93 3.535 11.405.014.406 6.382 5.501c1.213.84 1.12 2.505.28 3.718-.84 1.213-2.11 1.12-3.322.28l-5.59-5.105-1.061-1.056c-.3-.208-.563-1.273-.764-1.606l-2.877-7.275-3.563 5.146 1.328 8.942a2.672 2.672 0 1 1-5.304.65zM25.05.55a4.008 4.008 0 1 1 3.003 7.432A4.008 4.008 0 0 1 25.05.55z"/></svg>