<svg xmlns="http://www.w3.org/2000/svg" viewBox="0 0 39.2760009765625 39.58300018310547"><path d="M11.875 24.938S5.937 19 5.937 14.25C5.937 9.5 7.521 6.333 9.104 0c0 0 7.125 3.167 7.125 11.083 0 7.917-4.354 13.855-4.354 13.855zM0 38l16.23-16.625s3.433-9.372 5.937-11.875c3.166-3.167 7.125-3.167 15.041-3.167 0 0-3.057 7.358-5.541 11.084C28.5 22.167 17.02 21.77 17.02 21.77L1.583 39.583 0 38zm39.276-9.382s-8.668 4.32-12.613 3.554c-3.946-.767-7.494-3.406-12.499-5.743 0 0 7.439-4.328 14.015-3.05 6.575 1.279 11.097 5.24 11.097 5.24z"/></svg>