<svg xmlns="http://www.w3.org/2000/svg" viewBox="0 0 36.986000061035156 32.0620002746582"><path d="M36.986 0c-7.917 6.333-4.75 9.5-6.333 14.25-1.584 4.75 0 6.333-6.334 11.083-8.11 6.083-15.041 2.375-15.041 2.375-1.584 1.583-7.521 4.354-7.521 4.354L0 28.562c6.334-1.584 7.694-3.625 7.694-3.625-1.583-3.166-3.958-9.104.792-17.02C13.236 0 36.986 0 36.986 0zM10.069 22.166l1.584 1.584s3.166-1.584 4.75-6.334c1.583-4.75 9.5-12.666 9.5-12.666-3.167 1.583-9.5 7.916-11.084 12.666-1.583 4.75-4.75 4.75-4.75 4.75z"/></svg>