<svg xmlns="http://www.w3.org/2000/svg" viewBox="0 0 42.22599792480469 39.58300018310547"><path d="M18.738 10.688a1.583 1.583 0 1 1 0 3.166 1.583 1.583 0 0 1 0-3.166zm5.146 0a1.583 1.583 0 1 1 0 3.166 1.583 1.583 0 0 1 0-3.166zM8.782 31.376c-.725-2.334-1.127-4.914-1.127-7.626l.015-.908c-2.233 1.225-4.74 2.491-5.557 2.491-2.113 0 1.826-4.883 6.98-10.137a20.911 20.911 0 0 1 1.777-3.771C11.377 5.012 15.77 0 21.113 0s9.736 5.012 10.243 11.425a20.911 20.911 0 0 1 1.778 3.771c5.153 5.254 9.092 10.137 6.979 10.137-.818 0-3.324-1.266-5.557-2.491l.015.908c0 2.712-.402 5.291-1.127 7.626l-2.04-.501c0-6.09-2.76-11.29-6.642-13.328l-3.649 6.203-3.649-6.203c-3.883 2.043-6.643 7.258-6.642 13.42l-2.04.409zm8.373-24.251c-2.187 0-3.959 2.127-3.959 4.75s1.773 4.75 3.959 4.75 3.958-2.127 3.958-4.75-1.772-4.75-3.958-4.75zm3.958 4.75c0 1.749 1.772 3.563 3.958 3.563s3.959-1.814 3.959-3.563-1.773-3.563-3.959-3.563-3.958 1.815-3.958 3.563zm-7.917 19.792c3.064 0 5.62 1.36 6.207 3.166h.523v1.584h-.523c-.587 1.806-3.143 3.166-6.207 3.166-3.497 0-6.333-1.772-6.333-3.958s2.835-3.958 6.333-3.958zm15.834 0c3.497 0 6.333 1.772 6.333 3.958s-2.836 3.958-6.333 3.958c-3.064 0-5.62-1.36-6.207-3.166H22.3v-1.584h.523c.587-1.806 3.143-3.166 6.207-3.166z"/></svg>