<svg xmlns="http://www.w3.org/2000/svg" viewBox="0 0 42 37.11800003051758"><path d="M26.5.618C27.118 0 28.382 0 29 .618a1.596 1.596 0 0 1 0 2.25l-4.25 4.25H37c2.623 0 5 2.377 5 5v20c0 2.623-2.377 5-5 5H5c-2.623 0-5-2.377-5-5v-20c0-2.623 2.377-5 5-5h9.25L10 2.868a1.596 1.596 0 0 1 0-2.25c.618-.618 1.882-.618 2.5 0l6.5 6.5h1.25l6.25-6.5zM5 12.118v20h6.453l.391-1.956s1.69-5.91 5.067-5.91h6.756c3.377 0 5.066 5.91 5.066 5.91l.391 1.956H30v-20H5zm31-.333a3.167 3.167 0 1 0 0 6.333 3.167 3.167 0 0 0 0-6.333zm0 9.5a3.167 3.167 0 1 0 0 6.333 3.167 3.167 0 0 0 0-6.333zM7 14.118h7v7H7v-7zm13.289 0a4.222 4.222 0 1 1 0 8.444 4.222 4.222 0 0 1 0-8.444zm-4.222 14.356c-.563.281-1.69 2.533-1.69 2.533s-.179.269-.386 1.111h1.915l.16-3.644zm8.444 0l.162 3.644h1.913c-.207-.842-.386-1.111-.386-1.111s-1.126-2.252-1.689-2.533z"/></svg>