<svg xmlns="http://www.w3.org/2000/svg" viewBox="0 0 29.76799774169922 47.5"><path d="M14.884 12.667a3.167 3.167 0 0 1 3.167 3.166h6.333A3.167 3.167 0 0 1 27.551 19v25.333a3.167 3.167 0 0 1-3.167 3.167h-19a3.167 3.167 0 0 1-3.167-3.167V19a3.167 3.167 0 0 1 3.167-3.167h6.333a3.167 3.167 0 0 1 3.167-3.166zm0-9.5c-5.475 0-10.138 3.473-11.907 8.336L0 10.421C2.211 4.34 8.04 0 14.884 0c6.843 0 12.673 4.342 14.884 10.42l-2.977 1.083c-1.769-4.863-6.432-8.336-11.907-8.336zm0 6.333a6.336 6.336 0 0 0-5.954 4.168l-2.976-1.082a9.504 9.504 0 0 1 17.86 0l-2.976 1.082A6.336 6.336 0 0 0 14.884 9.5zM7.759 25.333a2.375 2.375 0 1 0 0 4.75 2.375 2.375 0 0 0 0-4.75zm7.125 0a2.375 2.375 0 1 0 0 4.75 2.375 2.375 0 0 0 0-4.75zm7.125 0a2.375 2.375 0 1 0 0 4.75 2.375 2.375 0 0 0 0-4.75zm-14.25 6.334a2.375 2.375 0 1 0 0 4.75 2.375 2.375 0 0 0 0-4.75zm7.125 0a2.375 2.375 0 1 0 0 4.75 2.375 2.375 0 0 0 0-4.75zm7.125 0a2.375 2.375 0 1 0 0 4.75 2.375 2.375 0 0 0 0-4.75zM7.759 38a2.375 2.375 0 1 0 0 4.75 2.375 2.375 0 0 0 0-4.75zm7.125 0a2.375 2.375 0 1 0 0 4.75 2.375 2.375 0 0 0 0-4.75zm7.125 0a2.375 2.375 0 1 0 0 4.75 2.375 2.375 0 0 0 0-4.75zm.792-17.417h-3.167a1.584 1.584 0 1 0 0 3.167h3.167a1.584 1.584 0 1 0 0-3.167zm-7.917 0H6.967a1.584 1.584 0 1 0 0 3.167h7.917a1.584 1.584 0 0 0 0-3.167z"/></svg>