<svg xmlns="http://www.w3.org/2000/svg" viewBox="0 0 44.38825607299805 24.055927276611328"><path d="M23.803 18.408a5.542 5.542 0 0 1-11.07.396h3.995a1.584 1.584 0 0 0 3.117-.396v-1.02a5.542 5.542 0 0 1-7.125-5.313V6.533h3.958v5.542a1.584 1.584 0 0 0 3.167 0V6.533h3.958v11.875zm1.584-.792V4.158A3.958 3.958 0 0 1 29.345.2h3.958v3.562H28.95v2.771h2.77V9.7h-2.77v7.916h-3.563zm19 .792a5.542 5.542 0 0 1-11.07.396h3.995a1.584 1.584 0 0 0 3.116-.396v-1.02a5.542 5.542 0 0 1-7.125-5.313V6.533h3.959v5.542a1.583 1.583 0 1 0 3.166 0V6.533h3.959v11.875zM5.982.213c2.651.186 4.737 2.604 5.099 5.133H6.796c-.41-1.98-.812-1.165-1.09-1.184a1.583 1.583 0 0 0-1.492 2.355c.497-.065 1.06-.04 1.73.023l4.37 3.06c.52.84.892 1.883.823 2.875a5.542 5.542 0 0 1-11.015.405h4.285c.35.35.813.768 1.091.788a1.583 1.583 0 0 0 1.491-2.355l-.958.032L.553 7.858C.18 7.15 0 6.311.067 5.355A5.542 5.542 0 0 1 5.982.213z"/></svg>