<svg xmlns="http://www.w3.org/2000/svg" viewBox="0 0 38.38999938964844 39.45800018310547"><path d="M33.751 3.602c.66.677 1.275 1.417 1.844 2.22.57.803 1.061 1.665 1.475 2.586.413.921.736 1.895.97 2.92.233 1.024.35 2.086.35 3.186 0 1.069-.114 2.164-.34 3.285a16.407 16.407 0 0 1-1.122 3.434c-.521 1.168-1.215 2.363-2.081 3.586-.867 1.222-1.94 2.467-3.22 3.734l-1.412 1.398-1.679 1.663a500.32 500.32 0 0 0-1.814 1.804c-.618.618-1.224 1.215-1.818 1.791l-4.288 4.249-4.261-4.308c1.469-1.46 2.89-2.87 4.261-4.229.58-.576 1.183-1.17 1.808-1.781.624-.611 1.233-1.213 1.824-1.804a567.671 567.671 0 0 1 3.09-3.072c1.677-1.68 2.938-3.348 3.784-5.004.847-1.655 1.27-3.266 1.27-4.832 0-1.183-.24-2.324-.722-3.424s-1.217-2.137-2.207-3.114a4.773 4.773 0 0 0-.917-.7 6.925 6.925 0 0 0-1.237-.576 9.97 9.97 0 0 0-1.504-.403 9.224 9.224 0 0 0-1.725-.155c-.616 0-1.26.063-1.933.188a10.1 10.1 0 0 0-2.042.62c-.688.288-1.383.666-2.085 1.132a13.493 13.493 0 0 0-2.061 1.709l-4.493 4.519 7.033 7.052H0V3.068l6.993 6.867 4.513-4.538c1.002-1.126 2.04-2.043 3.113-2.752A15.551 15.551 0 0 1 17.836.996a14.796 14.796 0 0 1 3.196-.791A23.902 23.902 0 0 1 24.08 0c1.007 0 1.978.089 2.913.267.934.178 1.814.429 2.638.752.825.324 1.584.705 2.276 1.145.693.44 1.308.92 1.844 1.438z"/></svg>