<svg xmlns="http://www.w3.org/2000/svg" viewBox="0 0 38.000003814697266 39.58300018310547"><path d="M7.917 19h4.75v7.917h7.916v4.75h-7.916v7.916h-4.75v-7.916H0v-4.75h7.917V19zM19 0c5.542 0 7.917 3.167 7.117 9.813a2.374 2.374 0 0 1-.51 4.342c-.413 1.468-1.053 2.768-1.857 3.808v4.995c2.639.528 4.75.792 7.917 2.375 3.166 1.584 4.222 3.035 6.333 5.146V38H14.25v-4.75h7.917v-7.917H14.25v-7.916h-.391c-.622-.936-1.122-2.04-1.465-3.262a2.376 2.376 0 0 1-.511-4.342C11.083 3.167 13.458 0 19 0zM0 38v-4.75h6.333V38H0z"/></svg>