<svg xmlns="http://www.w3.org/2000/svg" viewBox="0 0 41.1670036315918 43.24700164794922"><path d="M0 28.692l3.36-3.359 5.597 5.598 5.598-5.598 3.359 3.36-5.598 5.597 5.598 5.598-3.36 3.359-5.597-5.598-5.598 5.598L0 39.887l5.598-5.597L0 28.692zM22.167 0c5.542 0 7.917 3.167 7.117 9.813a2.374 2.374 0 0 1-.51 4.342c-.413 1.468-1.053 2.768-1.857 3.808v4.995c2.639.528 4.75.792 7.917 2.375 3.166 1.584 4.222 3.035 6.333 5.146V38H19.192l-3.71-3.71 5.598-5.598-5.474-5.381 1.811-.353v-4.995c-.804-1.04-1.444-2.34-1.856-3.808a2.376 2.376 0 0 1-.511-4.342C14.25 3.167 16.625 0 22.167 0zM9.5 25.333a21.324 21.324 0 0 1 3.33-1.348l-3.826 3.826-1.395-1.395L9.5 25.333z"/></svg>