<svg xmlns="http://www.w3.org/2000/svg" viewBox="0 0 38.000003814697266 38"><path d="M19 0c5.542 0 7.917 3.167 7.117 9.813a2.374 2.374 0 0 1-.51 4.342c-.413 1.468-1.053 2.768-1.857 3.808v4.995c2.639.528 4.75.792 7.917 2.375 3.166 1.584 4.222 3.035 6.333 5.146V38H0v-7.52c2.111-2.112 3.167-3.563 6.333-5.147 3.167-1.583 5.278-1.847 7.917-2.375v-4.995c-.804-1.04-1.444-2.34-1.856-3.808a2.376 2.376 0 0 1-.511-4.342C11.083 3.167 13.458 0 19 0zm-2.77 25.333l1.583 3.167h2.374l1.584-3.167h-5.542zm1.187 4.75L19 36.417l1.583-6.334h-3.166z"/></svg>