<svg xmlns="http://www.w3.org/2000/svg" viewBox="0 0 45 43"><path d="M20 1v3h3V1h-3zM0 16h5v.788l9-1.244V14h2.378l3.649-9H19V0h5v5h-.653l4.364 9H30v1.012l10 .712V15h5v5h-5v-.948l-6 5.768V29h-1.043l2.232 9H37v5h-5v-4.004L24.527 35h-3.519L13 40.038V43H8v-5h2.692l1.328-8.25H11v-3.874l-6-5.047V21H0v-5zm33 12v-3h-3v3h3zM15 15v3h3v-3h-3zm-3 14h3v-3h-3v3zm12 5v-3h-3v3h3zm17-18v3h3v-3h-3zm-8 23v3h3v-3h-3zM9 39v3h3v-3H9zm23.247-2.736L30.446 29H29v-5h2.255l6.272-6.03L30 17.435V19h-5v-5h.012l-3.251-6.704L19 14.106V19h-5v-1.012l-7.263 1.004 6.846 5.758H16v5h-1.506l-1.276 7.145L20 32.668V30h5v2.389l7.247 3.875zM26 18h3v-3h-3v3zM1 17v3h3v-3H1z"/></svg>