<svg xmlns="http://www.w3.org/2000/svg" viewBox="0 0 44.75 42"><path d="M21 19a2 2 0 1 0 0 4 2 2 0 0 0 0-4zm0-2a4 4 0 1 1 0 8 4 4 0 0 1 0-8zm19.75 2a2 2 0 1 0 0 4 2 2 0 0 0 0-4zm4 2a4.002 4.002 0 0 1-3.112 3.901C39.81 34.635 31.265 42 21 42 9.402 42 0 32.598 0 21S9.402 0 21 0c10.265 0 18.81 7.365 20.638 17.099A4.002 4.002 0 0 1 44.75 21zm-8 0c0-1.45.771-2.719 1.925-3.42C37.078 9.273 29.772 3 21 3 11.059 3 3 11.059 3 21s8.059 18 18 18c8.772 0 16.078-6.274 17.675-14.58A3.997 3.997 0 0 1 36.75 21z"/></svg>