<svg xmlns="http://www.w3.org/2000/svg" viewBox="0 0 45.93199920654297 26.175004959106445"><path d="M0 .38v25.413h5.654v-10.64h9.547v10.64h5.653V.38h-5.653v9.88H5.654V.38H.001zm23.56 25.414c1.362.22 3.51.347 6.446.379 2.504.002 4.755-.268 6.753-.81 1.998-.543 3.67-1.373 5.015-2.49 1.222-1.05 2.215-2.452 2.978-4.206.764-1.754 1.157-3.885 1.18-6.393-.013-2.317-.397-4.285-1.151-5.905-.755-1.62-1.794-2.895-3.12-3.825-1.182-.848-2.614-1.484-4.297-1.908C35.68.212 33.631 0 31.214 0a58.535 58.535 0 0 0-4.117.146 45.134 45.134 0 0 0-3.537.385v25.263zm5.653-21.426c.49-.137 1.36-.215 2.605-.235 2.518.006 4.488.714 5.91 2.123 1.423 1.41 2.147 3.48 2.172 6.213-.034 3.128-.825 5.449-2.374 6.961-1.55 1.512-3.653 2.256-6.312 2.23-.35.003-.707-.002-1.071-.014a5.239 5.239 0 0 1-.93-.102V4.368z"/></svg>