<svg xmlns="http://www.w3.org/2000/svg" viewBox="0 0 45.03199768066406 37"><path d="M12.032 0h3v6h-3V0zM3.11 4.524l2.122-2.121 4.242 4.242-2.12 2.122L3.11 4.524zM0 14.031v-3h6v3H0zM21.54 3.11l2.12 2.121-4.242 4.243-2.121-2.122 4.242-4.242zM4.352 22.803l-2.084-2.158 4.316-4.168 2.084 2.158-4.316 4.168zm14.911-2.676l-3.387-3.257v6.403l3.387-3.146zm-8.231-7.937l5.514-1.838 7.077 5.708L38.6 2.082l6.432 4.594v26.648L36.762 37 23.477 24.19l-7.85 6.378-4.595-2.758V12.189zm17.54 7.86l8.44 6.856v-13.76l-8.44 6.905z"/></svg>