<svg xmlns="http://www.w3.org/2000/svg" viewBox="0 0 44.56199645996094 40.4109992980957"><path d="M.001 13.217l9.152.331a15.75 15.75 0 0 0-2.383 5.835L0 13.217zM12.983.097l6.237 6.704a15.74 15.74 0 0 0-5.81 2.444L12.983.097zM31.441 0l-.33 9.152a15.752 15.752 0 0 0-5.835-2.383L31.441 0zm13.12 12.983l-6.704 6.236a15.741 15.741 0 0 0-2.443-5.81l9.148-.426zm-18.953-2.889c5.151 1.38 8.706 5.745 9.303 10.735h8.37v2h-42v-2h8.47a12.77 12.77 0 0 1 .344-1.778c1.81-6.758 8.756-10.768 15.513-8.957zm-3.327 30.317l-7.5-7.5h5.5v-8h4v8h5.5l-7.5 7.5z"/></svg>