<svg xmlns="http://www.w3.org/2000/svg" viewBox="0 0 44.56199645996094 36.525001525878906"><path d="M.001 26.913l9.152.331a15.75 15.75 0 0 0-2.383 5.835L0 26.913zm12.982-13.12l6.237 6.704a15.741 15.741 0 0 0-5.81 2.444l-.427-9.148zm18.458-.097l-.33 9.152a15.75 15.75 0 0 0-5.835-2.383l6.165-6.769zm13.12 12.983l-6.704 6.236a15.74 15.74 0 0 0-2.443-5.81l9.148-.426zM25.609 23.79c5.151 1.38 8.706 5.745 9.303 10.735h8.369v2h-42v-2h8.47a12.77 12.77 0 0 1 .344-1.778c1.81-6.758 8.756-10.768 15.513-8.957zM22.281 0l7.5 7.5h-5.5v8h-4v-8h-5.5l7.5-7.5z"/></svg>