<svg xmlns="http://www.w3.org/2000/svg" viewBox="0 0 47.85200119018555 47.85200119018555"><path d="M47.852 26.948l-8.925 2.05c.67-1.977.955-4.1.791-6.253l8.134 4.203zm-9.144 16.034l-7.76-4.862a15.743 15.743 0 0 0 4.98-3.864l2.78 8.726zm-17.804 4.87l-2.05-8.925c1.977.67 4.1.955 6.253.791l-4.203 8.134zM4.87 38.708l4.862-7.76a15.741 15.741 0 0 0 3.864 4.98l-8.726 2.78zM0 20.904l8.925-2.05a15.75 15.75 0 0 0-.791 6.253L0 20.904zM9.144 4.87l7.76 4.862a15.74 15.74 0 0 0-4.98 3.864L9.144 4.87zM26.948 0l2.05 8.925a15.75 15.75 0 0 0-6.253-.791L26.948 0zm16.034 9.144l-4.862 7.76a15.74 15.74 0 0 0-3.864-4.98l8.726-2.78zm-19.056 2.115c6.996 0 12.667 5.671 12.667 12.667 0 6.996-5.671 12.667-12.667 12.667-6.996 0-12.667-5.671-12.667-12.667 0-6.996 5.671-12.667 12.667-12.667z"/></svg>