<svg xmlns="http://www.w3.org/2000/svg" viewBox="0 0 34.83399963378906 47.5"><path d="M17.417 0C26.162 0 33.25 7.089 33.25 15.833c0 8.745-7.088 15.834-15.833 15.834-8.744 0-15.833-7.09-15.833-15.834S8.672 0 17.417 0zm0 4.75c-6.121 0-11.083 4.962-11.083 11.083 0 6.122 4.962 11.084 11.083 11.084S28.5 21.955 28.5 15.833c0-6.12-4.962-11.083-11.083-11.083zm-.792 9.5h1.584a2.375 2.375 0 0 1 0 4.75h-1.584a2.375 2.375 0 1 1 0-4.75zM28.5 40.375v.032l.792-.032c3.06 0 5.542 2.21 5.542 3.958 0 1.75-2.481 3.167-5.542 3.167l-.585-.017a15.785 15.785 0 0 0-11.29-4.733c-4.42 0-8.418 1.812-11.29 4.733l-.585.017C2.482 47.5 0 46.082 0 44.333c0-1.749 2.481-3.958 5.542-3.958l.792.032v-.032c3.497 0 6.333-3.001 6.333-4.75v-1.342c1.525.36 3.115.55 4.75.55 1.635 0 3.225-.19 4.75-.55v1.342c0 1.749 2.836 4.75 6.333 4.75z"/></svg>