<svg xmlns="http://www.w3.org/2000/svg" viewBox="0 0 26 38"><path d="M4 0h18c2.183 0 4 1.814 4 4v30c0 2.186-1.817 4-4 4H4c-2.183 0-4-1.814-4-4V4c0-2.186 1.817-4 4-4zM3 5v25h5v5.5h1V30h7v5.5h1V30h6V5H3zm7-3v1h6V2h-6zm1.025 29.858v.982h1.22v-1.138l-1.22.156zm1.22 2.26V32.98h-1.22v.982l1.22.156zm1.796-2.646l-1.652.212v1.156h1.652v-1.368zm0 2.875V32.98h-1.652v1.156l1.652.211zm-7.792-1.205v-.547H4.516l.7-.683h-.735l-.98.957.98.956h.735l-.7-.683h1.733zm12.272.76a.308.308 0 0 0 0 .418.327.327 0 0 0 .427 0l.736-.7c.157.084.338.098.53.098.613 0 1.11-.452 1.11-1.05 0-.6-.497-1.085-1.11-1.085-.614 0-1.076.486-1.076 1.084 0 .198.019.383.113.542l-.73.694zm1.692-1.912c.384 0 .694.303.694.677 0 .375-.31.678-.694.678a.686.686 0 0 1-.694-.678c0-.374.311-.677.694-.677z"/></svg>