<svg xmlns="http://www.w3.org/2000/svg" baseProfile="full" viewBox="0 0 76.00 76.00"><path d="M13.803 22.957c2.136-.393 4.866-.612 7.754-.612 4.983 0 8.425 1.136 10.877 3.409 2.571 2.316 4.154 5.811 4.154 10.837 0 5.243-1.623 9.175-4.154 11.71-2.65 2.666-6.883 4.02-12.065 4.02-2.848 0-4.984-.174-6.566-.393v-28.97zM21.36 48.04h.107c6.265 0 9.979-3.843 9.979-11.273.04-6.511-3.362-10.225-9.453-10.225-1.544 0-2.651.13-3.323.305v21.062c.672.131 1.7.131 2.69.131zM60.16 30.735h4.637l-5.864 21.28h-4.37l-2.223-8.651a73.365 73.365 0 0 1-1.418-6.818h-.078c-.382 2.623-.88 4.72-1.417 6.818l-2.376 8.651h-4.408l-5.519-21.28h4.83l1.954 9.657 1.187 6.904h.078c.383-2.316.996-4.675 1.533-6.86l2.414-9.701h3.834l2.337 9.439 1.495 7.122h.077c.306-2.316.729-4.632 1.227-7.122l2.07-9.44z"/></svg>