<svg xmlns="http://www.w3.org/2000/svg" baseProfile="full" viewBox="0 0 76.00 76.00"><path d="M22.911 22.442h7.009l9.776 30.089h-5.891l-2.725-8.527h-9.553l-2.59 8.527h-5.67l9.644-30.089zm1.83 10l-2.321 7.41h7.723l-2.366-7.41c-.58-1.83-1.071-3.884-1.518-5.625h-.09c-.445 1.74-.892 3.84-1.427 5.624zm31.882-1.652h5.492v15.223c0 2.59.088 4.732.178 6.518h-4.82l-.269-3.304h-.09c-.937 1.563-3.08 3.795-6.964 3.795-3.973 0-7.59-2.366-7.59-9.463V30.79h5.492v11.83c0 3.616 1.16 5.938 4.063 5.938 2.187 0 3.615-1.562 4.196-2.947a4.994 4.994 0 0 0 .312-1.697V30.79z"/></svg>