<svg xmlns="http://www.w3.org/2000/svg" baseProfile="full" viewBox="0 0 76.00 76.00"><path d="M21.263 22.577c1.74-.357 4.91-.625 7.99-.625 4.063 0 6.563.491 8.616 1.92 1.876 1.115 3.126 3.08 3.126 5.625 0 2.767-1.74 5.312-5 6.517v.09c3.17.804 6.072 3.304 6.072 7.456 0 2.678-1.161 4.776-2.903 6.204-2.142 1.875-5.67 2.813-11.16 2.813-3.036 0-5.357-.224-6.741-.401v-29.6zm5.446 3.661v8.214h2.812c3.795 0 5.938-1.786 5.938-4.33 0-2.813-2.143-4.108-5.625-4.108-1.607 0-2.544.09-3.125.224zm0 22.053c.715.134 1.653.134 2.902.134 3.527 0 6.651-1.338 6.651-5.044 0-3.482-3.034-4.91-6.83-4.91H26.71v9.82zm25-13.616c1.072-3.08 3.616-4.643 5.939-4.643l1.295.134v5.179a7.663 7.663 0 0 0-1.609-.178c-2.633 0-4.419 1.696-4.91 4.15l-.178 1.698v11.25h-5.491V37.533c0-2.947-.046-5.046-.18-7.01h4.777l.18 4.152h.178z"/></svg>