<svg xmlns="http://www.w3.org/2000/svg" baseProfile="full" viewBox="0 0 76.00 76.00"><path d="M27.722 48.3c-5.555 2.367-6.228 8.534-4.956 7.152 7.477-8.378 11.66-15.19 13.994-20.327-5.16-9.186-4.88-20.49 1.15-18.18 4.677 1.793 2.445 6.138 2.445 6.138s-.624-5.312-3.542-4.479c-.697.174-1.555 6.861 1.284 13.234 1.914-5.36 1.529-8.144 1.529-8.144s4.84 1.261.439 11.59a17.896 17.896 0 0 0 1.817 2.15 30.121 30.121 0 0 0 3.008 3.007c2.966-1.073 5.896-1.849 8.182-1.849 7.286 0 7.095 7.325 7.095 7.325-1.624-3.69-6.567-4.015-11.964-3.052 6.304 3.836 11.44 2.767 11.44 2.767-.537 4.431-7.569 4.836-15.503-1.842-4.325 1.171-8.487 2.829-11.05 3.931-6.597 10.08-12.414 15.017-13.664 9.08-1.583-7.521 8.296-8.502 8.296-8.502zm12.069-8.832l-1.07-1.327-1.087 2.034c-.912 1.635-1.826 3.2-2.731 4.68 1.885-.95 4.329-2.13 6.909-3.21a42.231 42.231 0 0 1-2.021-2.178z"/></svg>