<svg xmlns="http://www.w3.org/2000/svg" baseProfile="full" viewBox="0 0 76.00 76.00"><path d="M24.247 52.16V22.708h5.375V52.16h-5.375zm23.86-31.026h4.922v25.04l.16 5.986h-4.4l-.2-3.365h-.08c-1.161 2.36-3.52 3.846-6.361 3.846-4.64 0-8.32-4.327-8.32-10.882-.04-7.122 4.04-11.36 8.72-11.36 2.681 0 4.6 1.223 5.48 2.796h.08v-12.06zm-9.28 20.45c0 3.89 1.76 6.73 4.882 6.73 2 0 3.759-1.485 4.24-3.801.12-.481.159-1.005.159-1.573v-3.19l-.119-1.399c-.44-2.097-2-3.801-4.24-3.801-3.161 0-4.922 3.058-4.922 7.035z"/></svg>