<svg xmlns="http://www.w3.org/2000/svg" baseProfile="full" viewBox="0 0 76.00 76.00"><path d="M21.854 22.992c1.965-.357 4.689-.624 8.394-.624 4.017 0 6.964.848 8.883 2.455 1.786 1.473 2.947 3.84 2.947 6.652 0 2.857-.893 5.223-2.59 6.83-2.187 2.188-5.624 3.215-9.508 3.215-1.027 0-1.965-.045-2.68-.179v11.34h-5.446V22.992zm5.447 14.018c.67.18 1.563.224 2.68.224 4.106 0 6.606-2.01 6.606-5.536 0-3.348-2.322-5.134-6.116-5.134-1.518 0-2.59.134-3.17.268V37.01zm23.706-1.919c1.072-3.08 3.617-4.643 5.938-4.643l1.295.134v5.179a7.604 7.604 0 0 0-1.608-.179c-2.634 0-4.419 1.696-4.91 4.152l-.179 1.697v11.25h-5.491V37.947c0-2.947-.045-5.044-.178-7.009h4.776l.178 4.152h.18z"/></svg>