<svg xmlns="http://www.w3.org/2000/svg" baseProfile="full" viewBox="0 0 76.00 76.00"><path d="M21.895 23.117c1.923-.35 4.589-.611 8.215-.611 3.933 0 6.817.83 8.696 2.402 1.748 1.443 2.884 3.758 2.884 6.511 0 2.797-.874 5.113-2.534 6.686-2.141 2.141-5.506 3.146-9.307 3.146-1.006 0-1.923-.043-2.623-.175v11.1h-5.33V23.116zm5.331 13.721c.656.175 1.53.218 2.623.218 4.02 0 6.466-1.966 6.466-5.418 0-3.277-2.272-5.025-5.986-5.025-1.486 0-2.534.131-3.103.262v9.963zm15.642.262c0-3.758 3.102-6.686 8.04-6.686 2.36 0 4.414.612 5.637 1.268l-1.049 3.801c-.917-.524-2.622-1.223-4.5-1.223-1.923 0-2.972.918-2.972 2.228 0 1.355 1.005 2.01 3.715 2.972 3.845 1.398 5.636 3.364 5.68 6.51 0 3.845-3.015 6.686-8.652 6.686-2.578 0-4.895-.655-6.467-1.53l1.048-3.888c1.224.743 3.54 1.529 5.463 1.529 2.36 0 3.407-.961 3.407-2.36 0-1.441-.873-2.185-3.494-3.102-4.152-1.442-5.9-3.715-5.856-6.205z"/></svg>