<svg xmlns="http://www.w3.org/2000/svg" baseProfile="full" viewBox="0 0 76.00 76.00"><path d="M34 39.172V22.458l-6 5.625v-5.5l8-7.5 8 7.5v5.5l-6-5.625V38h16.625L49 32h5.5l7.5 8-7.5 8H49l5.625-6H36.828l-11 11H34l-4 4H19V46l4-4v8.172l11-11zm6.253 8.361L37.8 52.345V55h-1.707v-2.625l-2.346-4.842h1.921l1.195 2.785.17.61h.022l.165-.588 1.252-2.807h1.781zM48.52 37h-2.03l-1.308-2.432-.154-.5h-.021l-.175.522L43.518 37H41.48l2.42-3.733-2.207-3.734h2.079l1.083 2.239.227.63h.021l.235-.65 1.194-2.219h1.881l-2.235 3.702L48.52 37zm-16.48 1h-6.08v-.985l3.875-5.095H26.28v-1.387h5.76v.955l-3.792 5.125h3.792V38z"/></svg>