<svg xmlns="http://www.w3.org/2000/svg" baseProfile="full" viewBox="0 0 76.00 76.00"><path d="M40.3 50h-5.306l-3.42-9.119c-.127-.337-.26-.962-.4-1.875h-.057l-.457 1.956L27.227 50H21.9l6.325-14-5.767-14h5.432l2.831 8.394c.22.666.418 1.454.592 2.362h.057l.614-2.437L35.104 22h4.917L34.18 35.881 40.3 50zm15.54-10.667l-5.11 13.775c-1.22 3.315-3.055 4.972-5.506 4.972-.934 0-1.702-.169-2.304-.507v-3.04a2.917 2.917 0 0 0 1.65.507c.98 0 1.662-.476 2.047-1.429l.65-1.58-5.107-12.698h4.327l2.33 7.75c.146.484.26 1.052.341 1.707h.048l.404-1.678 2.355-7.779h3.875z"/></svg>