<svg xmlns="http://www.w3.org/2000/svg" baseProfile="full" viewBox="0 0 76.00 76.00"><path d="M38 15.833A6.333 6.333 0 0 1 38 28.5h5.542L52.25 38l-.102.102a2.376 2.376 0 1 1-2.963 2.963l-.102.102-5.428-5.429.678 5.429H31.667l.678-5.429-5.428 5.429-.102-.102a2.376 2.376 0 1 1-2.963-2.963L23.75 38l8.708-9.5H38a6.333 6.333 0 1 1 0-12.667zM45.125 57a3.167 3.167 0 0 1-6.333 0c0-1.504 1.049-2.764 4.75-5.542l-4.355-4.354 5.542-4.354 5.938 7.917L45.125 57zm-14.25 0l-5.542-6.333 5.938-7.917 5.541 4.354-4.354 4.354c3.701 2.778 4.75 4.038 4.75 5.542a3.167 3.167 0 1 1-6.333 0z"/></svg>