<svg xmlns="http://www.w3.org/2000/svg" baseProfile="full" viewBox="0 0 76.00 76.00"><path d="M38 8c1.99 0 3.935.194 5.817.564l-.779 2.905A27.146 27.146 0 0 0 38 11l-.354.002-.262-2.996L38 8zm28.404 20.319l-2.906.778a26.872 26.872 0 0 0-2.291-4.905l2.464-1.725a29.86 29.86 0 0 1 2.733 5.852zM55.083 17.09l1.725-2.464a30.184 30.184 0 0 1 4.566 4.566l-2.464 1.725a27.164 27.164 0 0 0-3.827-3.827zm-8.18-4.588l.778-2.906c2.061.703 4.02 1.623 5.852 2.733l-1.725 2.464a26.872 26.872 0 0 0-4.905-2.29zm-18.473.243L27.16 10.02a29.789 29.789 0 0 1 6.24-1.668l.262 2.996c-1.81.292-3.56.765-5.23 1.398zm-8.055 4.801l-2.127-2.127a30.067 30.067 0 0 1 5.287-3.708l1.271 2.727a27.07 27.07 0 0 0-4.431 3.108zm-5.937 7.26l-2.727-1.271a30.083 30.083 0 0 1 3.708-5.287l2.127 2.127a27.064 27.064 0 0 0-3.108 4.431zm-3.091 8.854l-2.996-.262a29.789 29.789 0 0 1 1.668-6.24l2.726 1.272a26.804 26.804 0 0 0-1.398 5.23zM11 38c0 1.722.161 3.406.47 5.038l-2.906.779A30.148 30.148 0 0 1 8 38l.006-.617 2.996.263L11 38zm57 0l-.006.617-2.996-.263L65 38c0-1.722-.161-3.406-.47-5.038l2.906-.779C67.806 34.065 68 36.01 68 38zM38 68c-1.99 0-3.935-.194-5.817-.564l.779-2.905c1.632.308 3.316.469 5.038.469l.354-.002.263 2.996L38 68zM9.596 47.681l2.906-.778a26.872 26.872 0 0 0 2.291 4.905l-2.464 1.725a29.855 29.855 0 0 1-2.733-5.852zM20.917 58.91l-1.725 2.464a30.184 30.184 0 0 1-4.566-4.566l2.464-1.725a27.176 27.176 0 0 0 3.827 3.827zm8.18 4.588l-.778 2.906a29.86 29.86 0 0 1-5.852-2.733l1.725-2.464c1.542.92 3.184 1.69 4.905 2.29zm18.473-.243l1.271 2.726a29.788 29.788 0 0 1-6.24 1.668l-.261-2.996c1.81-.292 3.56-.765 5.23-1.398zm8.056-4.801l2.126 2.127a30.078 30.078 0 0 1-5.287 3.708l-1.271-2.727a27.069 27.069 0 0 0 4.432-3.108zm5.936-7.26l2.727 1.271a30.067 30.067 0 0 1-3.709 5.287l-2.126-2.127a27.07 27.07 0 0 0 3.108-4.431zm3.091-8.855l2.996.263a29.795 29.795 0 0 1-1.668 6.24l-2.726-1.272a26.805 26.805 0 0 0 1.398-5.23z"/></svg>