<svg xmlns="http://www.w3.org/2000/svg" baseProfile="full" viewBox="0 0 76.00 76.00"><path d="M17.417 28.5H19v-2.375l2.375.792V28.5h37.208v3.958H17.417V28.5zM19 33.25h38c0 2.111 0 4.222-1.583 5.344-1.584 1.121-4.75 1.253-7.917 1.385h-19c-3.167-.132-6.333-.264-7.917-1.385C19 37.472 19 35.36 19 33.25zm0 15.833c0-2.639.396-5.277 1.451-6.597 1.056-1.32 4.354-1.715 6.466-1.715h22.166c2.111 0 5.41.396 6.466 1.715C56.604 43.806 57 46.445 57 49.083h-1.583c0-2.11-.396-4.222-1.452-5.277-1.055-1.056-4.354-1.056-6.465-1.056h-19c-2.111 0-5.41 0-6.465 1.056-1.056 1.055-1.452 3.166-1.452 5.277H19z"/></svg>