<svg xmlns="http://www.w3.org/2000/svg" baseProfile="full" viewBox="0 0 76.00 76.00"><path d="M26 36c1.044 0 2.036.229 2.926.639L33 29h-2v-2h6v2h-2l-1.6 3h10.062L44 31h-3v-2h6v2h-1l-1.346 2.5H45l1.854 3.245A7 7 0 1 1 43.071 44H37l-5.077-9.23-1.497 2.806A7 7 0 1 1 26 36zm14.077 6h2.994a6.988 6.988 0 0 1 2.338-4.284l-1.557-2.726L40.077 42zm2.308-8H33.5l4.49 8.163L42.384 34zM26 38a5 5 0 1 0 3.459 1.39L27 44h-2l2.982-5.592A4.984 4.984 0 0 0 26 38zm24 0c-.77 0-1.5.174-2.151.485L51 44h-5.9a5.002 5.002 0 0 0 9.9-1 5 5 0 0 0-5-5zm-4.9 4h2.757l-1.428-2.5A4.988 4.988 0 0 0 45.1 42z"/></svg>