<svg xmlns="http://www.w3.org/2000/svg" baseProfile="full" viewBox="0 0 76.00 76.00"><path d="M26 45c1.044 0 2.036.229 2.926.639L33 38h-2v-2h6v2h-2l-1.6 3h10.062L44 40h-3v-2h6v2h-1l-1.346 2.5H45l1.854 3.245A7 7 0 1 1 43.071 53H37l-5.077-9.23-1.497 2.806A7 7 0 1 1 26 45zm14.077 6h2.994a6.99 6.99 0 0 1 2.338-4.284l-1.557-2.726L40.077 51zm2.308-8H33.5l4.49 8.163L42.384 43zM26 47a5 5 0 1 0 3.459 1.39L27 53h-2l2.982-5.592A4.982 4.982 0 0 0 26 47zm24 0c-.77 0-1.5.174-2.151.485L51 53h-5.9a5.002 5.002 0 0 0 9.9-1 5 5 0 0 0-5-5zm-4.9 4h2.757l-1.428-2.5A4.988 4.988 0 0 0 45.1 51zm-8.28-24.32V31h-2.88V18.4h4.433c3.165 0 4.747 1.342 4.747 4.025 0 1.27-.45 2.296-1.351 3.08-.901.783-2.105 1.175-3.61 1.175H36.82zm0-6.12v3.96h1.069c1.447 0 2.171-.668 2.171-2.003 0-1.305-.724-1.957-2.171-1.957H36.82zM30 15h16a3 3 0 0 1 3 3v13a3 3 0 0 1-3 3H30a3 3 0 0 1-3-3V18a3 3 0 0 1 3-3zm0 2a1 1 0 0 0-1 1v13a1 1 0 0 0 1 1h16a1 1 0 0 0 1-1V18a1 1 0 0 0-1-1H30z"/></svg>