<svg xmlns="http://www.w3.org/2000/svg" baseProfile="full" viewBox="0 0 76.00 76.00"><path d="M22 19h2v38h-2V19zm4 38V19h28v38H26zm22.075-12.569l-2.449-3.407a1.018 1.018 0 0 0-.47-.358.996.996 0 0 0-.566-.046l-.386.173-1.534 1.143-.45.206a1.228 1.228 0 0 1-.666-.04 1.177 1.177 0 0 1-.568-.444l-4.146-5.78-.204-.474a1.265 1.265 0 0 1 .042-.684 1.16 1.16 0 0 1 .42-.564l1.534-1.143a.978.978 0 0 0 .354-.475c.067-.192.08-.387.037-.587l-.173-.39-2.452-3.404a1 1 0 0 0-.465-.361.992.992 0 0 0-.568-.046l-.39.173-.775.579a4.802 4.802 0 0 0-1.174 1.22 5.246 5.246 0 0 0-.681 1.497 6.357 6.357 0 0 0-.227 1.682c-.003.587.06 1.183.19 1.789l.398 1.383.617 1.36.41.882.623 1.084 1.005 1.497 1.165 1.534.986 1.168.94 1.002c.475.532.984.998 1.526 1.398.543.399 1.1.72 1.674.96a6.457 6.457 0 0 0 1.74.467c.587.07 1.16.046 1.721-.073l1.012-.325.95-.554.785-.594a1.04 1.04 0 0 0 .39-1.052l-.175-.396z"/></svg>