<svg xmlns="http://www.w3.org/2000/svg" baseProfile="full" viewBox="0 0 76.00 76.00"><path d="M22 47c4.424 1.303 12.483 1.805 15.208 5.215V33C34.483 29.59 26.424 29.087 22 27.784V47zm0-22.692v-.28c4.424 1.303 12.483 1.806 15.208 5.216l.792.228.792-.256C41.517 25.806 49.577 25.303 54 24v.28c1.229.37 2 .692 2 .692v3l3-1.146v24.146s-17.833 1.25-21 6.791v.028C34.833 52.25 17 51 17 51V26.854L20 28v-3s.771-.322 2-.692zm1.5 20.198v-3.122c3.769.859 8.96 1.435 12 3.366v3.121c-3.04-1.93-8.231-2.506-12-3.365zm0-5.385V36c3.769.858 8.96 1.434 12 3.365v3.121c-3.04-1.93-8.231-2.506-12-3.365zm0-5.487v-3.121c3.769.858 8.96 1.434 12 3.365V37c-3.04-1.931-8.231-2.507-12-3.366zM54 46.972V27.756c-4.423 1.303-12.483 1.806-15.208 5.216v19.215c2.725-3.41 10.785-3.912 15.208-5.215zm-1.5-2.494c-3.769.859-8.96 1.434-12 3.365v-3.121c3.04-1.931 8.231-2.507 12-3.366v3.122zm0-5.385c-3.769.859-8.96 1.434-12 3.365v-3.121c3.04-1.931 8.231-2.507 12-3.365v3.121zm0-5.487c-3.769.859-8.96 1.435-12 3.366V33.85c3.04-1.931 8.231-2.507 12-3.365v3.121z"/></svg>