<svg xmlns="http://www.w3.org/2000/svg" baseProfile="full" viewBox="0 0 76.00 76.00"><path d="M25 27l21-8v3.25L28.5 29l3.25 2.25L51 23.75V48.5L31.75 57 25 52V27zm16.893 19.033c-.992.387-1.796 1.505-1.796 2.497s.804 1.482 1.796 1.095 1.796-1.505 1.796-2.497-.804-1.482-1.796-1.095zm.36-14.51c-3.175 1.238-5.749 4.655-5.749 7.63v.72l3.593-1.402v-1.078c0-1.19.965-2.532 2.155-2.996 1.19-.465 2.156.124 2.156 1.314 0 .52 0 .719-1.437 2.716-.719 1-2.874 3.348-2.874 5.792v1.077l3.592-1.401v-1.437c0-1.19.719-2.436 2.155-3.715C47.282 37.464 48 35.388 48 34.31c0-2.976-2.573-4.026-5.748-2.787z"/></svg>