<svg xmlns="http://www.w3.org/2000/svg" baseProfile="full" viewBox="0 0 76.00 76.00"><path d="M35.5 19c2.485 0 4.5.895 4.5 2s-2.015 2-4.5 2-4.5-.895-4.5-2v4c0 1.105 2.015 2 4.5 2s4.5-.895 4.5-2v-3.17l5.65 1.622c.776-.282 1.768-.452 2.85-.452 2.485 0 4.5.895 4.5 2s-2.015 2-4.5 2-4.5-.895-4.5-2v4c0 1.105 2.015 2 4.5 2s4.5-.895 4.5-2v-3.436L58 27v16L44.508 56.53 18 49V33l13.569-13.592.699.2c.818-.375 1.964-.608 3.232-.608zM20 33.568v14l23 6.533v-14l-23-6.533zM56 43V29.006L46 39.033v14L56.005 43H56zm-10-7v-4c0 1.105-2.015 2-4.5 2s-4.5-.895-4.5-2v4c0 1.105 2.015 2 4.5 2s4.5-.895 4.5-2zm-13-4v-4c0 1.105-2.015 2-4.5 2s-4.5-.895-4.5-2v4c0 1.105 2.015 2 4.5 2s4.5-.895 4.5-2z"/></svg>