<svg xmlns="http://www.w3.org/2000/svg" baseProfile="full" viewBox="0 0 76.00 76.00"><path d="M45 31c8.284 0 15 6.716 15 15 0 8.284-6.716 15-15 15-8.284 0-15-6.716-15-15 0-8.284 6.716-15 15-15zm0 2.143c-.65 0-1.29.048-1.914.141-.134.291-.229.61-.229.93 0 1.072-1.071-1.071-2.143 1.072-1.071 2.143 0 0 0 2.143 0 1.071-1.55.296-1.071.535 1.071.536 1.071.536 0 1.607 0 0-2.143-1.071-2.143 0 0 1.072-1.071 1.072-2.143 1.072-1.071 0 0 2.143-1.071 2.143-.824 0-.381-1.267-1.106-1.853a12.76 12.76 0 0 0-.67 2.003c.722.647.843 3.203 1.776 4.135 1.071-1.071 1.071 0 2.143 0 1.071 0 1.071 0 1.607 1.072 1.071 0 1.607 1.071 2.678 2.143 1.072 1.071 3.215 1.071 3.215 2.143 0 1.071-1.072 0-1.072 2.142 0 1.072 0 1.072-1.071 1.072-.675 0-1.35 1.274-1.757 2.218 1.53.642 3.209.996 4.971.996 3.599 0 6.852-1.478 9.186-3.86l-.615-1.23s1.34-2.142.268-3.213c-1.071-1.072-1.071-2.143-1.071-2.143s-2.143 2.143-3.214 1.071c-1.072-1.071-1.072 0-2.143-2.143-1.072-2.143 1.071-3.214 1.071-3.214s0-2.143 1.072-2.143c1.071 0 2.142-2.143 4.285 0 0 0 1.239-.825 2.99-1.027a12.865 12.865 0 0 0-2.219-3.496 1.287 1.287 0 0 1-.77.237c-1.072 0 1.07 2.143 0 2.143-1.072 0-1.072-1.071-2.144-1.071-1.071 0-1.071 1.071-2.142 2.143-1.072 1.071 0 0-1.072-1.072-1.071-1.071 2.143 0 1.072-1.071-1.072-1.072 1.071-1.072 1.071-2.143 0-.84 1.318-1.022 1.887-1.06-.618-.447-1.278-.839-1.887-1.083 1.071 1.072-1.071 2.143-2.143 2.143-1.006 0-.122-1.89-.011-3.008A12.866 12.866 0 0 0 45 33.143zM32.143 46c0 3.782 1.633 7.182 4.231 9.535L35.357 53.5c-1.071 0-1.607-2.41-1.607-3.482 0-.86-.345-1.547.072-2.339-1.511-1.518-.608-.695-.608-1.679 0-.51-.485-1.02-.994-1.415L32.143 46zM18 21h40v15.67a16.097 16.097 0 0 0-3-3.16V26H21v20h8c0 1.025.096 2.028.28 3H18V21z"/></svg>