<svg xmlns="http://www.w3.org/2000/svg" baseProfile="full" viewBox="0 0 76.00 76.00"><path d="M45 40.643a5.357 5.357 0 1 1 0 10.714 5.357 5.357 0 0 1 0-10.714zM45 31c5.552 0 10.4 3.267 12.993 7.75l-12.777.289-.216-.003a6.966 6.966 0 0 0-6.408 4.231l-5.706-6.114A14.979 14.979 0 0 1 45 31zm15 15c0 8.284-6.716 15-15 15l-1.603-.085 3.89-8.335a6.967 6.967 0 0 0 2.05-12.03l8.852-1.202C59.344 41.474 60 43.411 60 46zm-30 0a14.93 14.93 0 0 1 2.76-8.673l5.285 8.305-.01.368a6.964 6.964 0 0 0 6.91 6.964l-1.816 7.92C35.728 59.965 30 53.652 30 46zM18 21h40v15.67a16.097 16.097 0 0 0-3-3.16V26H21v20h8c0 1.025.096 2.028.28 3H18V21z"/></svg>