<svg xmlns="http://www.w3.org/2000/svg" baseProfile="full" viewBox="0 0 76.00 76.00"><path d="M46.5 19a2.5 2.5 0 0 1 0 5l-.636-.082-2.307 2.954c1.592 1.146 2.974 2.768 4.045 4.73C44.87 32.484 41.563 33 38 33c-3.563 0-6.87-.516-9.602-1.398 1.035-1.896 2.361-3.476 3.886-4.614l-2.362-3.023a2.5 2.5 0 1 1 1.675-1.104l2.405 3.077A9.098 9.098 0 0 1 38 25c1.334 0 2.617.3 3.816.852l2.479-3.173A2.5 2.5 0 0 1 46.5 19zm8 21a1.5 1.5 0 0 1 0 3h-4.549a22.026 22.026 0 0 1-.435 3.153l5.29 2.467a1.5 1.5 0 0 1-1.268 2.719l-4.871-2.272c-1.85 4.921-5.45 8.398-9.667 8.877V34.986c3.541-.096 6.791-.703 9.424-1.666l.195.487 5.111-1.962a1.5 1.5 0 1 1 1.075 2.801l-5.323 2.044c.235 1.062.394 2.169.47 3.31H54.5zm-33 0h4.549c.075-1.141.234-2.248.469-3.31l-5.323-2.044a1.5 1.5 0 0 1 1.075-2.8l5.111 1.961.195-.487c2.633.963 5.883 1.57 9.424 1.666v22.958c-4.217-.479-7.816-3.956-9.666-8.877l-4.872 2.272a1.5 1.5 0 0 1-1.268-2.72l5.29-2.466A22.01 22.01 0 0 1 26.049 43H21.5a1.5 1.5 0 1 1 0-3z"/></svg>