<svg xmlns="http://www.w3.org/2000/svg" baseProfile="full" viewBox="0 0 76.01 76.01"><path d="M18.003 57.008V23.003h5v-3a2 2 0 0 1 2-2h4.001a2 2 0 0 1 2 2v3h14.002v-3a2 2 0 0 1 2-2h4.001a2 2 0 0 1 2 2v3h5.001v34.005H18.002zm3-3h34.005V31.004H21.003v23.004zm2-7.001h6.001v5h-6v-5zm8.001 0h6.001v5h-6v-5zm8.001 0h6.001v5h-6v-5zm8.002 0h6v5h-6v-5zm-24.004-7.001h6.001v5h-6v-5zm8.001 0h6.001v5h-6v-5zm8.001 0h6.001v5h-6v-5zm8.002 0h6v5h-6v-5zm-16.003-7.001h6.001v5h-6v-5zm8.001 0h6.001v5h-6v-5zm8.002 0h6v5h-6v-5zm1.5-13.002a1.5 1.5 0 0 0-1.5 1.5v3a1.5 1.5 0 0 0 1.5 1.5h1a1.5 1.5 0 0 0 1.5-1.5v-3a1.5 1.5 0 0 0-1.5-1.5h-1zm-22.003 0a1.5 1.5 0 0 0-1.5 1.5v3a1.5 1.5 0 0 0 1.5 1.5h1a1.5 1.5 0 0 0 1.5-1.5v-3a1.5 1.5 0 0 0-1.5-1.5h-1zm5.5 21.003v3h4.001v-3h-4zm-8 0v3h4v-3h-4zm16.002 0v3h4v-3h-4zm8 0v3h4.001v-3h-4z"/></svg>