<svg xmlns="http://www.w3.org/2000/svg" baseProfile="full" viewBox="0 0 76.01 76.01"><path d="M26.08 46.464l3.63-.444c.103.927.38 1.637.833 2.127.453.491 1 .736 1.643.736.69 0 1.27-.265 1.743-.797.472-.531.709-1.248.709-2.151 0-.854-.212-1.531-.636-2.03-.425-.499-.942-.748-1.552-.748-.403 0-.884.088-1.443.264l.332-3.128c.819.025 1.444-.171 1.874-.587.431-.417.647-.968.647-1.654 0-.585-.165-1.053-.495-1.401-.33-.349-.768-.523-1.317-.523-.537 0-.997.2-1.38.598-.381.399-.614.98-.698 1.745l-3.63-.525c.226-1.144.568-2.058 1.025-2.741.456-.683 1.093-1.22 1.91-1.613.817-.392 1.732-.587 2.745-.587 1.737 0 3.128.558 4.173 1.675.865.917 1.297 1.951 1.297 3.104 0 1.635-.905 2.94-2.715 3.913 1.06.227 1.906.738 2.54 1.533.636.794.953 1.754.953 2.88 0 1.632-.588 3.023-1.764 4.173-1.177 1.15-2.64 1.724-4.39 1.724-1.662 0-3.039-.51-4.131-1.533-1.093-1.022-1.727-2.36-1.903-4.01zm21.925 5.543h-3V38.505c-1.34 1.391-2.848 2.28-4.664 2.945v-3.695c.959-.308 2-.89 3.122-1.748 1.123-.858 1.894-1.859 2.313-3.002h2.229v19.002zm-30.003 5.001V23.003h5.001v-3a2 2 0 0 1 2-2h4.001a2 2 0 0 1 2 2v3h14.002v-3a2 2 0 0 1 2-2h4.001a2 2 0 0 1 2 2v3h5.001v34.005H18.002zm3-3h34.006V31.004H21.003v23.004zm27.505-34.005a1.5 1.5 0 0 0-1.5 1.5v3a1.5 1.5 0 0 0 1.5 1.5h1a1.5 1.5 0 0 0 1.5-1.5v-3a1.5 1.5 0 0 0-1.5-1.5h-1zm-22.003 0a1.5 1.5 0 0 0-1.5 1.5v3a1.5 1.5 0 0 0 1.5 1.5h1a1.5 1.5 0 0 0 1.5-1.5v-3a1.5 1.5 0 0 0-1.5-1.5h-1z"/></svg>