<svg xmlns="http://www.w3.org/2000/svg" baseProfile="full" viewBox="0 0 76.00 76.00"><path d="M30 23c0-2.623 2.377-5 5-5h6c2.623 0 5 2.377 5 5h5a5 5 0 0 1 5 5v14a5 5 0 0 1-5 5H25a5 5 0 0 1-5-5V28a5 5 0 0 1 5-5h5zm-4.5 3c-.828 0-1.5.895-1.5 2s.672 2 1.5 2 1.5-.895 1.5-2-.672-2-1.5-2zM38 28a7 7 0 1 0 0 14 7 7 0 0 0 0-14zm0 2.5a4.5 4.5 0 1 1 0 9 4.5 4.5 0 0 1 0-9zM28.97 58h-2.234l-.585-1.82H22.8L22.222 58H20l3.273-9h2.499l3.198 9zm-3.366-3.64l-.954-3.016-.155-.819h-.05l-.161.792-.973 3.043h2.293zm11.621-.317c0 2.725-1.276 3.837-3.827 3.837-2.475 0-3.713-1.08-3.713-3.741V49h2.08v4.874c0 1.457.569 2.186 1.706 2.186 1.116 0 1.674-.704 1.674-2.11V49h2.08v5.043zm8.45-3.453h-2.6V58h-2.08v-7.41h-2.6V49h7.28v1.59zm4.77 7.29c-1.312 0-2.38-.172-3.206-1.016-.826-.843-1.239-1.943-1.239-3.298 0-1.43.42-2.587 1.257-3.47.839-.884 1.95-1.076 3.334-1.076 1.306 0 2.363.173 3.17 1.018.806.846 1.209 1.961 1.209 3.345 0 1.423-.418 2.57-1.254 3.44-.837.872-1.927 1.057-3.272 1.057zm.087-7.29c-.711 0-1.276.262-1.694.787-.419.525-.628 1.22-.628 2.085 0 .878.21 1.572.628 2.082.418.51.966.766 1.643.766.699 0 1.253-.248 1.663-.744.41-.497.616-1.186.616-2.067 0-.918-.199-1.633-.596-2.143-.398-.51-.942-.766-1.632-.766z"/></svg>