<svg xmlns="http://www.w3.org/2000/svg" baseProfile="full" viewBox="0 0 76.00 76.00"><path d="M21.3 17h25.4a1.3 1.3 0 0 1 1.3 1.3v6.4a1.3 1.3 0 0 1-1.3 1.3H31.3a2.3 2.3 0 0 0-2.3 2.3v21.4a1.3 1.3 0 0 1-1.3 1.3h-6.4a1.3 1.3 0 0 1-1.3-1.3V18.3a1.3 1.3 0 0 1 1.3-1.3zm12 12h21.4a1.3 1.3 0 0 1 1.3 1.3v27.4a1.3 1.3 0 0 1-1.3 1.3H33.3a1.3 1.3 0 0 1-1.3-1.3V30.3a1.3 1.3 0 0 1 1.3-1.3zm13.501 4.867H45.59l-1.368.902-1.312.717-1.316.582-1.387.495v2.45c.768-.198 1.45-.427 2.048-.687a9.114 9.114 0 0 0 1.676-.948V52h2.87V33.867z"/></svg>