<svg xmlns="http://www.w3.org/2000/svg" baseProfile="full" viewBox="0 0 76.00 76.00"><path d="M21.3 17h25.4a1.3 1.3 0 0 1 1.3 1.3v6.4a1.3 1.3 0 0 1-1.3 1.3H31.3a2.3 2.3 0 0 0-2.3 2.3v21.4a1.3 1.3 0 0 1-1.3 1.3h-6.4a1.3 1.3 0 0 1-1.3-1.3V18.3a1.3 1.3 0 0 1 1.3-1.3zm12 12h21.4a1.3 1.3 0 0 1 1.3 1.3v27.4a1.3 1.3 0 0 1-1.3 1.3H33.3a1.3 1.3 0 0 1-1.3-1.3V30.3a1.3 1.3 0 0 1 1.3-1.3zm16.812 13.167c0-1.477-.16-2.735-.477-3.774-.318-1.038-.747-1.885-1.287-2.541-.54-.656-1.166-1.134-1.88-1.435a5.784 5.784 0 0 0-2.27-.451c-.85 0-1.638.142-2.363.425a5.577 5.577 0 0 0-1.892 1.212 5.572 5.572 0 0 0-1.261 1.905c-.305.747-.457 1.583-.457 2.506 0 .842.134 1.605.402 2.288a5.124 5.124 0 0 0 1.106 1.744c.47.479 1.025.848 1.664 1.108.64.26 1.331.39 2.073.39.435 0 .845-.054 1.229-.162.384-.108.733-.251 1.047-.428.314-.177.592-.383.835-.617.243-.235.438-.485.586-.748h.051c0 1.047-.11 1.969-.328 2.764-.22.796-.53 1.462-.935 1.997-.403.536-.892.94-1.466 1.212a4.406 4.406 0 0 1-1.91.407l-.948-.079-.94-.21-.835-.297-.642-.328v2.585l.624.23.841.217.978.16 1.02.062c1.04 0 2.012-.196 2.914-.588.903-.392 1.69-1 2.361-1.825.672-.825 1.2-1.876 1.584-3.155.384-1.278.576-2.803.576-4.574zm-2.993-1.895a2.904 2.904 0 0 1-.837 2.06c-.26.26-.565.466-.914.62-.35.152-.732.229-1.146.229-.462 0-.884-.077-1.267-.23a2.677 2.677 0 0 1-.982-.669 3.098 3.098 0 0 1-.637-1.082c-.153-.43-.23-.923-.23-1.483 0-.512.079-.978.236-1.399.157-.42.37-.78.637-1.077.268-.297.581-.525.94-.686a2.735 2.735 0 0 1 1.133-.242c.443 0 .852.095 1.229.285.376.19.7.459.971.806.272.347.484.763.638 1.248a5.37 5.37 0 0 1 .23 1.62z"/></svg>