<svg xmlns="http://www.w3.org/2000/svg" baseProfile="full" viewBox="0 0 76.00 76.00"><path d="M40.874 51.94c.178 2.786.69 5.553 1.533 8.304H33.96c.679-3.245 1.19-6.012 1.533-8.303l.134-5.597c.425-.453.802-.453 1.131 0-.919 1.646-1.9 2.99-2.942 4.033-1.482 1.482-3.673 2.222-6.575 2.222-2.085 0-3.772-.74-5.062-2.222-1.653-1.653-2.48-3.934-2.48-6.842 0-3.285 3.228-9.287 9.682-18.005l8.797-11.678 8.93 11.606c6.373 8.1 9.56 14.126 9.56 18.077 0 2.901-.827 5.182-2.48 6.842-1.482 1.482-3.252 2.222-5.31 2.222-2.716 0-4.941-.771-6.677-2.315-1.564-1.563-2.428-2.832-2.593-3.806.343-.165.515-.186.515-.062l.751 5.525z"/></svg>