<svg xmlns="http://www.w3.org/2000/svg" baseProfile="full" viewBox="0 0 76.00 76.00"><path d="M38 17.417c11.368 0 20.583 9.215 20.583 20.583 0 11.368-9.215 20.583-20.583 20.583-11.368 0-20.583-9.215-20.583-20.583 0-11.368 9.215-20.583 20.583-20.583zm0 15.833a4.75 4.75 0 1 0 0 9.5 4.75 4.75 0 0 0 0-9.5zm11.769 17.589a17.431 17.431 0 0 0 4.758-7.33l-9.015-3.005a7.921 7.921 0 0 1-2.163 3.332l6.42 7.003zm-5.652 3.473a17.357 17.357 0 0 0 3.302-1.66l-5.137-7.992-1.501.755 3.336 8.897zM26.593 24.838a17.403 17.403 0 0 0-5.64 9.573l9.299 1.958a7.91 7.91 0 0 1 2.563-4.352l-6.222-7.179z"/></svg>