<svg xmlns="http://www.w3.org/2000/svg" baseProfile="full" viewBox="0 0 76.00 76.00"><path d="M23.657 34.764l-.028-3.82h5.643l.349-2.525c.286-2.842 1.248-5.469 2.886-7.88 1.638-2.41 4.36-3.692 8.166-3.845 1.748.084 3.04.36 3.876.83l-.912 3.539c-.845-.348-1.833-.53-2.964-.55-1.919.065-3.354.829-4.304 2.293-.95 1.464-1.53 3.243-1.738 5.339l-.349 2.8h6.506v3.819h-7.213L32.223 46.67c-.391 3.846-1.314 6.9-2.768 9.161-1.455 2.261-3.8 3.418-7.037 3.47-1.916-.038-3.381-.36-4.396-.969l.902-3.549c.94.447 1.991.662 3.156.642 1.714-.01 2.977-.793 3.79-2.35.812-1.556 1.37-3.827 1.676-6.814l1.296-11.498h-5.185zm21.12 12.74l-.543-2.686-.578-2.405-.49-1.461-.55-.51-.29.078-.651.611-.928 1.366-1.93-.752c.736-1.192 1.444-2.083 2.122-2.672.679-.589 1.478-.883 3.19-.883l1.684.505 1.032 1.772.429 1.738.244 1.466 3.515-4.494c.398-.363.78-.618 1.147-.766.366-.147.854-.221 1.463-.221.135 0 1.792.067 2.143.202l-.7 3.028h-2.02c-.042-.284-.132-.484-.269-.6l-.316.177-.746.712-3.558 4.472.6 2.936.499 2.058.384 1.298.359.715.487.355c.17-.064.335-.167.499-.31.297-.26.726-.848 1.287-1.764l1.93.751c-.815 1.305-1.553 2.224-2.212 2.757-.66.532-1.446.799-2.358.799-.133 0-1.724-.092-2.073-.275-.35-.183-.654-.476-.912-.878s-.486-1.027-.684-1.876a35.759 35.759 0 0 1-.569-2.755l-3.728 4.788c-.39.368-.77.626-1.138.774-.369.148-.857.222-1.467.222-.134 0-1.786-.068-2.137-.202l.7-3.028h2.02c.04.284.129.484.265.6l.074-.02.78-.656 3.995-4.966z"/></svg>