<svg xmlns="http://www.w3.org/2000/svg" baseProfile="full" viewBox="0 0 76.01 76.01"><path d="M40.38 19.003c9.184 0 16.628 4.608 16.628 10.293 0 3.605-2.994 6.777-7.527 8.615.967 1.866 2.663 3.918 4.36 6.502-3.528-1.23-8.803-2.42-11.933-4.867l-1.527.043c-9.183 0-16.628-4.608-16.628-10.293s7.445-10.293 16.628-10.293zm3.96 24.545c0 4.81-5.672 8.71-12.669 8.71l-.963-.026c-2.575 2.384-6.15 4.776-10.122 4.776.925-1.85 2.931-3.7 4.124-6.182-3.438-1.558-5.707-4.236-5.707-7.278 0-3.041 2.267-5.719 5.703-7.276 2.941 2.899 8.153 4.826 14.091 4.826l1.528-.043c1.12.876 2.516 1.591 4.008 2.204l.007.289z"/></svg>