<svg xmlns="http://www.w3.org/2000/svg" baseProfile="full" viewBox="0 0 76.00 76.00"><path d="M63.333 55.417H12.667v-9.5h4.75V42.75h3.166v1.583h1.584v-9.5h1.583v-3.166h4.75V47.5h3.167v-6.333h3.166V33.25H38v11.083h1.928c4.405-6.333.447-19 .447-19h-3.167s0-2.77-1.583-2.77l-.792-1.188 5.938-1.98v-1.978h1.121c.686-1.397 1.164-3.204 1.254-5.542h.791s.11 2.844 1.364 5.542h1.011v1.979l5.938 1.979-.792 1.583s-1.583.792-1.583 2.375h-3.167s-3.958 12.667.448 19h1.927v-7.916h3.167V38h1.583v6.333H57v4.75h1.583V47.5h3.167v3.167h1.583v4.75z"/></svg>