<svg xmlns="http://www.w3.org/2000/svg" baseProfile="full" viewBox="0 0 76.00 76.00"><path d="M28.472 42.95l4.95-4.95-4.95-4.95 2.578-2.578 4.95 4.95 4.95-4.95 2.578 2.578-4.95 4.95 4.95 4.95-2.578 2.578-4.95-4.95-4.95 4.95-2.578-2.578zm29.513-1.415l-8.95 8.95C47.932 51.59 47 52 45 52H24a5 5 0 0 1-5-5V29a5 5 0 0 1 5-5h21c2 0 2.932.411 4.035 1.515l8.95 8.95a5 5 0 0 1 0 7.07zM45 49c1 0 1.395-.117 1.914-.636l8.95-8.95a2 2 0 0 0 0-2.828l-8.95-8.95C46.395 27.118 46 27 45 27H24a2 2 0 0 0-2 2v18a2 2 0 0 0 2 2h21z"/></svg>