<svg xmlns="http://www.w3.org/2000/svg" baseProfile="full" viewBox="0 0 76.00 76.00"><path d="M22.39 33.93l11.695 11.694-4.308 4.309-11.695-11.695 4.309-4.308zm-5.23 3.385l-2.463-1.975c-.79-.79-.482-2.467.308-3.257l1.23-1.23c.79-.79 2.289-1.098 3.078-.308l2.155 2.462-4.309 4.308zm18.782 15.08L30.7 50.856l4.308-4.309 1.44 5.342-.506.506zm3.975-36.562c2.186 0 4.333 1.98 4.333 4.167L44 21h12v36H24v-9.25l3 3V54h26V24h-5.5l2 4h-19l2-4H27v11.5L24 32V21h12l-.25-1c0-2.186 1.98-4.167 4.167-4.167zm0 2.375c-.875 0-1.917.668-1.917 1.542 0 .288.365 1.017.5 1.25h3c.135-.233.5-.962.5-1.25 0-.874-1.209-1.542-2.083-1.542z"/></svg>