<svg xmlns="http://www.w3.org/2000/svg" baseProfile="full" viewBox="0 0 76.00 76.00"><path d="M23 54V26a3 3 0 0 1 3-3h4.5s1-.12 1-1.5 1.62-2.5 3-2.5h7c1.38 0 3 1.12 3 2.5s1 1.5 1 1.5H50a3 3 0 0 1 3 3v28a3 3 0 0 1-3 3H26a3 3 0 0 1-3-3zm13-32a2.5 2.5 0 0 0-2.5 2.5c0 1.38-1 2.5-1 2.5h11s-1-1.12-1-2.5A2.5 2.5 0 0 0 40 22h-4zm-7.5 8l1.5-4h-4v28h24V26h-4l1.5 4h-19zm.353 14.29l-.659-.717a.47.47 0 0 1 .026-.666l1.915-1.778a.47.47 0 0 1 .664.024l5.257 5.66 9.041-11.634A.477.477 0 0 1 45.47 35l.29.099 2.064 1.603a.476.476 0 0 1 .085.66L36.29 52.3l-7.437-8.01z"/></svg>