<svg xmlns="http://www.w3.org/2000/svg" baseProfile="full" viewBox="0 0 76.00 76.00"><path d="M38 28.5a9.5 9.5 0 1 1 0 19 9.5 9.5 0 0 1 0-19zm-6.224 8.852c.586 2.176 3.433 4.855 6.279 7.534 2.846-2.679 5.692-5.358 6.278-7.534.586-2.177-1.088-3.85-2.511-4.102-1.423-.251-2.595.92-3.767 2.093-1.172-1.172-2.344-2.344-3.767-2.093-1.423.251-3.097 1.925-2.511 4.102zM19 19h12.667v6.231a14.31 14.31 0 0 0-6.436 6.436H19V19zm38 0v12.667h-6.231a14.31 14.31 0 0 0-6.436-6.436V19H57zm0 38H44.333v-6.231a14.31 14.31 0 0 0 6.436-6.436h6.23V57zm-23.75 0v-3.167l1.874-1.873c.929.19 1.89.29 2.876.29.985 0 1.947-.1 2.876-.29l1.874 1.873V57h-9.5zM19 57V44.333h6.231a14.311 14.311 0 0 0 6.436 6.436V57H19zm38-14.25h-3.167l-1.873-1.874c.19-.929.29-1.89.29-2.876 0-.985-.1-1.947-.29-2.876l1.873-1.874H57v9.5zM42.75 19v3.167l-1.874 1.873c-.929-.19-1.89-.29-2.876-.29-.985 0-1.947.1-2.876.29l-1.874-1.873V19h9.5zM19 33.25h3.167l1.873 1.874c-.19.929-.29 1.89-.29 2.876 0 .985.1 1.947.29 2.876l-1.873 1.874H19v-9.5z"/></svg>