<svg xmlns="http://www.w3.org/2000/svg" baseProfile="full" viewBox="0 0 76.00 76.00"><path d="M17.338 49.33c.738.45 1.742.84 3.012 1.171 1.27.332 2.71.506 4.323.522 3.094-.041 5.488-.748 7.182-2.122 1.694-1.373 2.552-3.165 2.575-5.375-.036-1.66-.528-3.015-1.476-4.067s-2.138-1.718-3.569-1.997v-.076c1.427-.523 2.497-1.275 3.212-2.256.715-.981 1.072-2.124 1.073-3.43-.011-1.717-.696-3.15-2.057-4.299-1.36-1.149-3.331-1.746-5.914-1.79-1.639.017-3.13.207-4.475.568-1.344.362-2.399.786-3.163 1.274l1.177 4.134c.52-.324 1.247-.643 2.18-.957a9.89 9.89 0 0 1 2.95-.507c1.234.015 2.15.257 2.751.727s.9 1.079.898 1.825c-.06 1.02-.547 1.748-1.458 2.182a6.51 6.51 0 0 1-2.912.633h-2.28v4.133h2.356c1.358-.006 2.528.283 3.51.866.983.582 1.497 1.493 1.544 2.73 0 .941-.38 1.72-1.135 2.335-.756.615-1.885.934-3.387.956a11.69 11.69 0 0 1-3.368-.55c-1.04-.338-1.83-.665-2.37-.98l-1.179 4.35zM58.717 35.87h-9.472v4.513h3.885v5.762c-.51.223-1.432.345-2.764.365-2.374-.022-4.284-.799-5.73-2.33-1.444-1.53-2.187-3.681-2.226-6.452.052-2.71.853-4.726 2.404-6.047 1.551-1.321 3.539-1.979 5.963-1.974 1.37.006 2.522.104 3.456.297.934.192 1.744.446 2.431.761l1.216-4.775c-.638-.244-1.565-.485-2.778-.722-1.214-.237-2.643-.364-4.288-.382-4.21.032-7.644 1.192-10.3 3.479-2.656 2.287-4.035 5.51-4.137 9.667.006 1.948.315 3.76.929 5.44.613 1.678 1.497 3.095 2.653 4.25 2.29 2.182 5.71 3.283 10.257 3.3 1.7-.02 3.31-.18 4.83-.476 1.52-.297 2.743-.602 3.67-.917V35.87z"/></svg>