<svg xmlns="http://www.w3.org/2000/svg" baseProfile="full" viewBox="0 0 76.00 76.00"><path d="M43.547 44.323V33.044h6.887v2.143h-4.375v2.57h4.088v2.006h-4.088v4.56h-2.512zm10.872 0h-2.512v-8.086h2.512v8.086zm-1.163-11.801c.411.008.733.128.966.361.232.233.354.532.366.895a1.217 1.217 0 0 1-.364.888c-.24.236-.573.359-1.002.368-.404-.01-.723-.132-.957-.368a1.237 1.237 0 0 1-.358-.888c.005-.363.128-.662.368-.895.24-.233.568-.353.98-.361zM38 22.167c4.43 0 8.434 1.818 11.307 4.75h2.943c6.121 0 11.083 4.962 11.083 11.083S58.371 49.083 52.25 49.083h-2.943A15.785 15.785 0 0 1 38 53.833c-4.43 0-8.434-1.818-11.307-4.75H23.75c-6.121 0-11.083-4.962-11.083-11.083s4.962-11.083 11.083-11.083h2.943A15.786 15.786 0 0 1 38 22.167zm14.25 7.916h-9.5c-3.167 0-1.583 7.917-2.907 7.917-1.843 0-.26 7.917-3.426 7.917H52.25a7.917 7.917 0 1 0 0-15.834zm-28.97 14.24l1.079-4.86.354-1.654.304-1.778h.033l.238 1.788.302 1.675.961 4.829h2.783l2.934-11.279h-2.614l-.927 4.635-.658 3.963h-.034l-.272-1.884-.335-1.933-.91-4.797h-2.733l-.96 4.645-.743 3.969h-.034l-.311-1.9-.363-2.063-.86-4.65h-2.749l2.698 11.294h2.817zm12.282 0v-8.086h-2.513v8.086h2.513zm-1.164-11.801c-.413.008-.74.128-.98.361-.24.233-.363.532-.369.895.005.356.125.652.358.888.234.236.554.359.958.368.428-.01.762-.132 1.001-.368.24-.236.36-.532.364-.888-.011-.363-.133-.662-.366-.895-.232-.233-.554-.353-.966-.361z"/></svg>