<svg xmlns="http://www.w3.org/2000/svg" baseProfile="full" viewBox="0 0 76.00 76.00"><path d="M35.018 28.842s1.258-.572 2.06.343c.8.915 2.86 4.462 2.86 8.009 0 3.546-.916 7.322-1.831 8.58-.916 1.26-1.83 1.26-2.517.801-.687-.457-11.327-8.58-11.9-8.81-.571-.228-.8.344-.228 3.433.572 3.09-.343 4.005-1.144 4.119-.801.114-3.204-.572-3.318-6.98-.114-6.406 1.602-7.436 2.403-7.436 1.505 0 12.931 10.316 13.73 10.183.685-.115 1.029-4.462-.344-7.895-1.487-3.716.229-4.347.229-4.347zm18.391-6.407c3.843 7.631 3.609 14.848 3.578 15.61.03.663.265 7.889-3.578 15.52 0 0-1 1.145-2.488.458-1.487-.686-.973-2.517-.973-2.517s3.115-6.012 3.032-13.397l.002-.114c.08-7.386-3.034-13.501-3.034-13.501s-.514-1.83.973-2.517c1.487-.686 2.488.458 2.488.458zm-7.453 3.432c3.134 5.72 2.922 11.416 2.891 12.177.03.664.243 6.129-2.887 12.312 0 0-1.001 1.145-2.489.458-1.487-.686-.972-2.517-.972-2.517s2.015-2.866 2.341-10.188l.002-.114c-.214-7.323-2.347-10.069-2.347-10.069s-.515-1.83.972-2.517c1.488-.686 2.489.458 2.489.458z"/></svg>