<svg xmlns="http://www.w3.org/2000/svg" baseProfile="full" viewBox="0 0 76.00 76.00"><path d="M32.514 50.643v-6.08h2.926V40.43h-2.926V25.99h-6.907l-9.31 14.984v3.589H27.24v6.08h5.273zM21.654 40.43l.039-.077 3.268-5.523a174.2 174.2 0 0 0 2.317-4.707h.11a106.433 106.433 0 0 0-.147 4.707v5.6h-5.586zM59.84 35.87h-9.47v4.513h3.885v5.762c-.511.223-1.433.345-2.765.365-2.374-.022-4.284-.799-5.729-2.33-1.445-1.53-2.187-3.681-2.227-6.452.052-2.71.854-4.726 2.404-6.047 1.551-1.321 3.539-1.979 5.963-1.974 1.37.006 2.522.104 3.456.297.934.192 1.744.446 2.432.761l1.216-4.775c-.64-.244-1.565-.485-2.779-.722-1.213-.237-2.643-.364-4.288-.382-4.21.032-7.644 1.192-10.3 3.479-2.655 2.287-4.035 5.51-4.137 9.667.006 1.948.315 3.76.929 5.44.613 1.678 1.498 3.095 2.653 4.25 2.29 2.182 5.71 3.283 10.258 3.3 1.7-.02 3.31-.18 4.83-.476 1.519-.297 2.742-.602 3.67-.917V35.87z"/></svg>