<svg xmlns="http://www.w3.org/2000/svg" baseProfile="full" viewBox="0 0 76.00 76.00"><path d="M26.917 19c4.32 0 8.191 2.564 10.804 6.612l-4.573 4.574c-1.45-2.955-3.702-4.853-6.231-4.853C22.544 25.333 19 31.004 19 38c0 6.996 3.544 12.667 7.917 12.667 2.53 0 4.781-1.898 6.23-4.853l4.575 4.574C35.108 54.437 31.236 57 26.916 57c-7.87 0-14.25-8.507-14.25-19s6.38-19 14.25-19zm24.028 0c4.32 0 8.192 2.564 10.805 6.612l-4.574 4.574c-1.45-2.955-3.702-4.853-6.23-4.853-4.373 0-7.917 5.671-7.917 12.667 0 6.996 3.544 12.667 7.916 12.667 2.53 0 4.782-1.898 6.231-4.853l4.574 4.574C59.137 54.437 55.266 57 50.945 57c-7.87 0-14.25-8.507-14.25-19s6.38-19 14.25-19z"/></svg>