<svg xmlns="http://www.w3.org/2000/svg" baseProfile="full" viewBox="0 0 76.00 76.00"><path d="M50.746 56.964v-6.768H35.85v-.12c1.368-1.297 2.305-2.714 2.812-4.251.4-1.387.573-2.804.516-4.25h7.068v-5.63h-8.155a18.15 18.15 0 0 1-.57-4.299c-.032-1.473.346-2.739 1.133-3.798.787-1.06 2.177-1.614 4.168-1.664 2.1.03 3.715.378 4.846 1.047l1.368-6.473c-.634-.35-1.518-.657-2.65-.923-1.134-.266-2.473-.405-4.02-.42-3.878.044-6.96 1.117-9.245 3.22-2.286 2.102-3.455 4.97-3.509 8.605.01 1.655.16 3.224.449 4.706h-4.386v5.628h5.587c.095.768.133 1.566.114 2.395-.075 2.063-.752 3.851-2.031 5.363-1.279 1.512-2.711 2.583-4.297 3.21v4.422h25.698z"/></svg>