<svg xmlns="http://www.w3.org/2000/svg" baseProfile="full" viewBox="0 0 76.00 76.00"><path fill-opacity=".702" d="M38 33c9.384 0 16.992-2.013 17-4.496V52.5c0 2.485-7.611 4.5-17 4.5v-8.02h2.06v-11.2H38V33zm14-9.5h3v2c0 2.485-7.611 4.5-17 4.5v-5c7.732 0 14-.672 14-1.5zm-2.02 17.48h-2.447l-1.488 4.912-.255 1.06h-.03l-.215-1.077-1.473-4.895H41.34L44.565 49l-.41.997c-.243.602-.674.903-1.293.903-.375 0-.722-.107-1.042-.32v1.92c.38.213.865.32 1.455.32 1.548 0 2.708-1.047 3.477-3.14l3.228-8.7z"/><path d="M38 57c-9.389 0-17-2.015-17-4.5v-24c0 2.485 7.611 4.5 17 4.5v4.8h-1.59l-2.287 6.623-.445 1.617h-.048a9.21 9.21 0 0 0-.4-1.6l-2.287-6.64H27.28V49h2.24v-6.193l-.1-2.907h.07l.353 1.563L32.514 49h2.063l2.624-7.615.353-1.485h.063l-.098 2.398V49H38v8zm17-33.5h-3c0-.828-6.268-1.5-14-1.5s-14 .672-14 1.5S30.268 25 38 25v5c-9.389 0-17-2.015-17-4.5v-2c0-2.485 7.611-4.5 17-4.5 9.384 0 16.992 2.013 17 4.5z"/></svg>