<svg xmlns="http://www.w3.org/2000/svg" baseProfile="full" viewBox="0 0 76.00 76.00"><path d="M38 19c9.389 0 17 2.015 17 4.504V25.5c0 2.485-7.611 4.5-17 4.5s-17-2.015-17-4.5v-2c0-2.485 7.611-4.5 17-4.5zm17 33.5c0 2.485-7.611 4.5-17 4.5s-17-2.015-17-4.5v-6c0 2.485 7.611 4.5 17 4.5 9.384 0 16.992-2.013 17-4.496V52.5zm0-9c0 2.485-7.611 4.5-17 4.5s-17-2.015-17-4.5v-6c0 2.485 7.611 4.5 17 4.5 9.384 0 16.992-2.013 17-4.496V43.5zm0-9c0 2.485-7.611 4.5-17 4.5s-17-2.015-17-4.5v-6c0 2.485 7.611 4.5 17 4.5 9.384 0 16.992-2.013 17-4.496V34.5z"/></svg>