<svg xmlns="http://www.w3.org/2000/svg" baseProfile="full" viewBox="0 0 76.00 76.00"><path d="M25.333 23.75h25.334c.874 0 1.187 3.563 1.187 3.563H24.146s.313-3.563 1.187-3.563zm10.292-3.958h4.75c.437 0 1.583 1.146 1.583 1.583 0 .437-1.146 1.583-1.583 1.583h-4.75c-.437 0-1.583-1.146-1.583-1.583 0-.437 1.146-1.583 1.583-1.583zM27.708 28.5h20.584c.874 0 1.583.709 1.583 1.583l-1.583 23.75c0 .875-.71 1.584-1.584 1.584H29.292a1.583 1.583 0 0 1-1.584-1.584l-1.583-23.75c0-.874.709-1.583 1.583-1.583zm2.375 3.167l.396 20.583h2.771l-.396-20.583h-2.77zm6.334 0V52.25h3.166V31.667h-3.166zm6.729 0L42.75 52.25h2.77l.397-20.583h-2.771z"/></svg>