<svg xmlns="http://www.w3.org/2000/svg" baseProfile="full" viewBox="0 0 76.00 76.00"><path d="M27 19h13v12h-1.531l-.174-1.864-.564-5.642c-.083-.83-.098-1.668-.252-2.487a.938.938 0 0 0-.31-.509 1.057 1.057 0 0 0-.549-.248c-.16-.021-.33.038-.473.113a.847.847 0 0 0-.358.326c-.145.27-.215.577-.285.876l-.14.932-.857 4.206L33.632 31H27V19zm0 14h6.224l-.996 4.89a2.838 2.838 0 0 0-.761-.722c-1.117-.709-3.158-.1-4.467.482V33zm25 0v4.255c-1.012.231-2.06.458-3.087.333-1.166-.143-2.46-1.058-3.49-.492-1.163.64-1.1 2.75-2.341 3.22-.707.268-1.826-.534-2.268.08l-.167.434c-.115.866-.214 2.01-.309 3.17h-.657l-1.025-11H52zm0 11h-9.88l.21-1.855c.432.06.89.04 1.305-.095 1.364-.446 2.05-2.081 2.682-3.371.09-.185.379.163.572.236l.315.124c.437.118.871.256 1.319.319 1.15.16 2.329-.013 3.477-.249V44zm-25 0v-3.973c2.472-1.534 3.585-1.483 4.04-.738.509.838.064 2.147.755 2.843.148.15.365.249.575.263a.927.927 0 0 0 .607-.181.944.944 0 0 0 .337-.536c.631-2.886 1.212-5.781 1.789-8.678h1.75l1.1 11H27zm0 2h7v6h-7v-6zm9 0h2.153l.044.44.618 6.181c.117 1.167-.008 3.093 1.14 3.329.696.143.948-1.162 1.022-1.868l.357-3.15.559-4.932H47v11H36V46zm4.02 1.624L39.867 46h.307c-.051.596-.102 1.151-.156 1.624zm-3.75-20.457L36.653 31H35.5c.254-1.278.51-2.556.77-3.833z"/></svg>