<svg xmlns="http://www.w3.org/2000/svg" baseProfile="full" viewBox="0 0 76.00 76.00"><path d="M38.428 26.56c-.574 0-1.339 1.913-.765 3.635-1.53 0-1.148-3.635-1.148-3.635-.382.192-1.53-.191-1.53-.191.956-.191 1.32-.747.956-1.148-3.634-4.017-5.708 3.575-4.59 4.782 4.782 5.165 3.06 6.696 3.06 6.696 1.148 3.06 7.843 9.564 7.843 9.564 3.252-5.356.191-8.99-.574-9.564-.765-.574-.956 1.147-.956 1.147-.574-1.53-2.678-1.147-2.678-1.147 1.147-2.87 4.4-2.296 4.4-2.296s-.192.383-.766.383c-.574 0 1.913.956 2.487 1.339.574.382.191-.766.191-.766 1.53 1.34 1.34 3.252 1.722 4.209.382.956.765-.191.765-.191.574 1.912-.191 3.825 0 4.59.191.766.956.192.956.192-.382 3.634-1.721 5.547-1.721 5.547C54.688 56.975 61 54.871 61 54.871c-1.148.956-4.974 3.634-7.078 2.486-2.104-1.147-4.973.574-4.973.574-1.148-1.721-4.974-3.443-7.46-2.104-13.709 7.382-19.703-4.4-20.468-5.356-.765-.956-1.339 1.34-1.339 1.34-3.443-3.253-.383-7.461-.574-8.609-.191-1.148-1.913.957-1.913.957-1.339-3.444 4.4-7.843 4.4-8.8 0-.956-1.913 0-1.913 0 1.913-3.634 7.843-3.443 7.843-3.443s-.383-2.104-.957-2.869c-.573-.765-.956.574-.956.574-.765-2.295.574-3.252 1.722-5.165.573-1.148-1.34-.765-1.34-.765 1.722-2.487 3.826-1.387 4.974-2.726.574-.574-.765-1.052-.765-1.052 1.53-.813 3.06.909 4.4-.143 1.174-.923-2.296-2.009-2.296-2.009 6.886-.191 5.356 2.87 9.182 5.739 0 .765.191 2.104.191 2.104 2.295 4.208-.383 4.4-.383 4.4 1.148-1.53-2.295-3.444-2.869-3.444zM29.63 38.803c-13.008 4.973.383 17.98 8.417 12.816 0-1.148-2.678-1.34-2.678-1.34-.383-4.973-4.591-5.164-4.591-5.164.765-2.87-.994-6.617-1.148-6.312z"/></svg>