<svg xmlns="http://www.w3.org/2000/svg" baseProfile="full" viewBox="0 0 76.00 76.00"><path d="M45.66 37.15l3.8.907c-.74 2.95-2.07 5.199-3.99 6.748-1.585 1.28-3.462 2.031-5.63 2.254v6.901h13.3V57h-17.1V46.976c-1.809-.247-3.35-.792-4.621-1.636-1.8-1.194-3.169-2.921-4.109-5.184-.94-2.262-1.41-4.691-1.41-7.288 0-2.834.524-5.305 1.57-7.413 1.047-2.108 2.537-3.709 4.468-4.803 1.932-1.095 4.058-1.642 6.377-1.642 2.629 0 4.84.69 6.636 2.072 1.795 1.382 3.044 3.323 3.749 5.825l-3.8.837c-.586-1.983-1.438-3.428-2.556-4.334-1.118-.907-2.523-1.36-4.213-1.36-1.947 0-3.574.503-4.88 1.508-1.307 1.006-2.225 2.355-2.755 4.05a17.426 17.426 0 0 0-.796 5.236c0 2.324.322 4.35.965 6.08.643 1.73 1.643 3.024 2.998 3.88a8.248 8.248 0 0 0 2.377 1.035V29.64h3.8v14.268a6.878 6.878 0 0 0 3.112-1.567c1.334-1.165 2.237-2.896 2.708-5.192z"/></svg>