<svg xmlns="http://www.w3.org/2000/svg" baseProfile="full" viewBox="0 0 76.00 76.00"><path d="M48.916 10.85l1.4 1.4 3.84-5.12a34.819 34.819 0 0 1 8.475 6.24 34.82 34.82 0 0 1 6.24 8.474l-5.12 3.84 1.399 1.4-2.52 2.52-2.518-2.52-15.395 22.112s-14.554-1.12-23.51 7.837l-.56-.56 14.717-14.717c1.153.488 2.816.542 3.756-.397a3.167 3.167 0 1 0-5.156-1.003L19.247 55.074l-.28-.28c8.957-8.957 7.837-23.511 7.837-23.511l22.112-15.395-2.52-2.519 2.52-2.519zm10.356 1.4l-1.12-1.12L28.484 34.08l-1.12 6.718 31.91-28.55z"/></svg>