<svg xmlns="http://www.w3.org/2000/svg" baseProfile="full" viewBox="0 0 76.00 76.00"><path d="M42 21h6v6h-6v-6zm0 7h6v6h-6v-6zm7-7h6v6h-6v-6zm0 7h6v6h-6v-6zm-21-7h6v6h-6v-6zm0 7h6v6h-6v-6zm7-7h6v6h-6v-6zm0 7h6v6h-6v-6zm7 7h6v6h-6v-6zm-14 0h6v6h-6v-6zm0 7h6v6h-6v-6zm0 7h6v6h-6v-6zm7-14h6v6h-6v-6zm0 7h6v6h-6v-6zM21 21h6v6h-6v-6zm0 7h6v6h-6v-6zm0 7h6v6h-6v-6zm0 7h6v6h-6v-6zm0 7h6v6h-6v-6zm14 0h6v6h-6v-6zm1 1v4h4v-4h-4zm13-15h6v6h-6v-6zm1 1v4h4v-4h-4zm-8 6h6v6h-6v-6zm1 1v4h4v-4h-4zm6-1h6v6h-6v-6zm1 1v4h4v-4h-4zm-8 6h6v6h-6v-6zm1 1v4h4v-4h-4zm6-1h6v6h-6v-6zm1 1v4h4v-4h-4zM22 22v4h4v-4h-4zm14 7v4h4v-4h-4zm-7 0v4h4v-4h-4zm-7 7v4h4v-4h-4zm0-7v4h4v-4h-4zm21 0v4h4v-4h-4zm7 0v4h4v-4h-4zm-21-7v4h4v-4h-4zm7 0v4h4v-4h-4zm-7 14v4h4v-4h-4zm-7 7v4h4v-4h-4zm7 0v4h4v-4h-4zm7 0v4h4v-4h-4zm-14 7v4h4v-4h-4zm7 0v4h4v-4h-4zm14-28v4h4v-4h-4zm7 0v4h4v-4h-4zm-7 14v4h4v-4h-4zm-7 0v4h4v-4h-4z"/></svg>