<svg xmlns="http://www.w3.org/2000/svg" baseProfile="full" viewBox="0 0 76.00 76.00"><path d="M62.237 19.825c.812-.812 2.035-1.867 3.424-2.999a35.04 35.04 0 0 0-6.278-6.325c-1.049 1.321-2.032 2.482-2.812 3.262-6.717 6.717-13.039.792-15.278 3.03l-8.957 8.957 1.12 1.12-17.914 13.435c2.986 3.732 2.24 4.478 8.957 11.196 6.718 6.718 7.464 5.971 11.196 8.957L49.13 42.544l1.12 1.12 8.956-8.957c2.24-2.239-3.686-8.165 3.031-14.882zm-27.102 8.724l.56.56-3.359 3.359 4.479-2.24 1.12 1.12-3.08 5.878 4.199-4.758 1.12 1.12-6.158 8.396 7.277-7.277 2.239 2.24-5.318 5.317 6.438-4.198 1.12 1.12-3.36 5.597 4.479-4.478.56.56L37.093 54.58c-1.12-1.12 0-4.478 0-6.718-.28-1.959-4.478 4.479-6.717 2.24-2.24-2.24.28-2.52.28-4.759 0-2.239-2.8-.56-5.038-.56-2.24 0-1.12-1.12-1.12-3.358 0-2.24-5.598-.56-5.598-.56l16.234-12.316z"/></svg>