<svg xmlns="http://www.w3.org/2000/svg" baseProfile="full" viewBox="0 0 76.00 76.00"><path d="M24 20h25l.083 6.917A7.917 7.917 0 0 1 57 34.833v7.917a7.917 7.917 0 0 1-7.917 7.917L49 59H24V20zm25 26c1.749 0 4-2.251 4-4v-6c0-1.749-2.251-5-4-5v15zM27 23v2h19v-2H27zm19 33v-2H27v2h19zM30.5 28c-.874 0-1.5 1.125-1.5 2v19c0 .874.625 2 1.5 2 .874 0 1.5-1.126 1.5-2V30c0-.875-.625-2-1.5-2zm6 0c-.874 0-1.5 1.125-1.5 2v19c0 .874.626 2 1.5 2s1.5-1.042 1.5-1.917V30c0-.875-.626-2-1.5-2zm6 0c-.874 0-1.5 1.125-1.5 2v19c0 .874.626 2 1.5 2s1.5-1.126 1.5-2V30c0-.875-.626-2-1.5-2zM23.75 17.23c1.25-.23 7.917-3.563 9.5-1.98 1.583 1.583 3.167 1.583 4.75 1.583 1.583 0 3.167-1.583 6.333-1.583 1.584 0 4.75.792 4.75 2.375C49 21 47.896 18.813 47.896 18.813s-.792-1.584-3.959-1.584c-3.166 0-4.354 1.584-5.937 1.584-1.583 0-4.354-1.584-7.52-1.584-3.168 0-3.605 1.604-5.543 1.188C23 18 21 20 21.771 21.979c1.229 2.021.396 3.303.396 5.542 0 .396-.417.354-.792-1.584C21 24 19 23.168 19 21.584c0-1.583.167-1.75 1.583-3.166C22 17 22.5 17.458 23.75 17.229z"/></svg>