<svg xmlns="http://www.w3.org/2000/svg" baseProfile="full" viewBox="0 0 76.00 76.00"><path d="M54.23 23.75h5.145c.874 0 1.583.709 1.583 1.583L57 45.125c0 .874-.709 1.583-1.583 1.583h-1.98a1.583 1.583 0 0 1-1.583-1.583l.792-19.792c0-.874.709-1.583 1.583-1.583zm0 30.083h-2.376a1.583 1.583 0 0 1-1.583-1.583l.396-1.583c0-.875.709-1.584 1.583-1.584h2.375c.874 0 1.583.71 1.583 1.584l-.395 1.583c0 .874-.71 1.583-1.584 1.583zM31.666 23.75c9.619 0 17.416 6.734 17.416 15.042 0 8.307-7.797 15.041-17.416 15.041-9.62 0-17.417-6.734-17.417-15.041 0-8.308 7.798-15.042 17.417-15.042zm-3.959 22.958v2.375h9.5v-2.375h-3.166V42.75l5.937-7.125h1.98V33.25h-7.917v2.375h2.77l-4.104 4.378-4.604-6.753h2.771v-2.375h-7.917v2.375h1.98l5.937 9.5v3.958h-3.167z"/></svg>