<svg xmlns="http://www.w3.org/2000/svg" baseProfile="full" viewBox="0 0 76.00 76.00"><path d="M38 33.154a4.846 4.846 0 1 1 0 9.692 4.846 4.846 0 0 1 0-9.692zm0-8.077c11.308 0 21 8.077 21 12.923s-9.692 12.923-21 12.923S17 42.846 17 38s9.692-12.923 21-12.923zm0 4.038a8.885 8.885 0 1 0 0 17.77 8.885 8.885 0 0 0 0-17.77zm-13.753 19.81a30.71 30.71 0 0 0 3.909 1.748l-13.45 13.45a35.21 35.21 0 0 1-2.829-2.829l12.37-12.369zm27.506-21.85a30.71 30.71 0 0 0-3.909-1.748l13.45-13.45c.996.889 1.94 1.833 2.829 2.829l-12.37 12.37z"/></svg>