<svg xmlns="http://www.w3.org/2000/svg" baseProfile="full" viewBox="0 0 76.00 76.00"><path d="M10.292 31.667h5.541v-6.334A6.333 6.333 0 0 1 22.167 19H28.5v6.333h-3.167a3.167 3.167 0 0 0-3.166 3.167v3.167H28.5v4.75h-6.333V57h-6.334V36.417H9.5l.792-4.75zm26.705-1.98l-5.556-5.555a1.55 1.55 0 1 1 2.191-2.191l5.556 5.556c4.248-3.185 10.301-2.846 14.165 1.018L38.015 43.853c-3.864-3.864-4.203-9.917-1.018-14.165zm22.93 5.401c3.863 3.864 4.202 9.917 1.017 14.165l7.14 7.14-2.192 2.19-7.139-7.139c-4.248 3.185-10.301 2.846-14.165-1.018l3.287-3.286-2.74-2.74a2.324 2.324 0 0 1 3.288-3.286l2.739 2.739 2.19-2.191-2.738-2.74a2.324 2.324 0 0 1 3.287-3.286l2.739 2.739 3.286-3.287z"/></svg>