<svg xmlns="http://www.w3.org/2000/svg" baseProfile="full" viewBox="0 0 76.00 76.00"><path d="M10.292 31.667h5.541v-6.334A6.333 6.333 0 0 1 22.167 19H28.5v6.333h-3.167a3.167 3.167 0 0 0-3.166 3.167v3.167H28.5v4.75h-6.333V57h-6.334V36.417H9.5l.792-4.75zm29.08.396l-7.931-7.93a1.55 1.55 0 1 1 2.191-2.192l7.93 7.93c4.249-3.184 10.302-2.845 14.166 1.019L40.39 46.228c-3.864-3.864-4.203-9.917-1.018-14.165zm18.971 1.442c3.864 3.863 4.203 9.917 1.018 14.165l8.722 8.722-2.19 2.191-8.723-8.722c-4.248 3.185-10.302 2.846-14.165-1.018l3.287-3.287-2.74-2.739a2.324 2.324 0 0 1 3.287-3.286l2.74 2.739 2.19-2.192-2.738-2.739a2.324 2.324 0 0 1 3.286-3.286l2.74 2.739 3.286-3.287z"/></svg>