<svg xmlns="http://www.w3.org/2000/svg" baseProfile="full" viewBox="0 0 76.00 76.00"><path d="M24 19h28a5 5 0 0 1 5 5v28a5 5 0 0 1-5 5H24a5 5 0 0 1-5-5V24a5 5 0 0 1 5-5zm0 3a2 2 0 0 0-2 2v28a2 2 0 0 0 2 2h28a2 2 0 0 0 2-2V24a2 2 0 0 0-2-2H24zm14 14a2 2 0 1 1 0 4 2 2 0 0 1 0-4zm12.54 5.027a12.508 12.508 0 0 0-3.717-.965c-1.238-.12-2.458-.037-3.677.046.204 1.62.409 3.24.38 4.885a18.12 18.12 0 0 1-.792 4.952 19.298 19.298 0 0 1-.955 2.496l-.577.146a15.09 15.09 0 0 1-2.671.37c.155-.655.26-1.307.32-1.951.12-1.327.037-2.62-.232-3.834s-.724-2.349-1.18-3.483c-1.478.695-2.956 1.39-4.529 1.87-1.573.48-3.24.746-4.953.778a19.304 19.304 0 0 1-2.675-.137 14.9 14.9 0 0 1-1.488-2.93c.67-.055 1.323-.155 1.953-.299 1.3-.295 2.504-.774 3.575-1.405 1.072-.63 2.01-1.414 2.948-2.198-1.118-1.19-2.236-2.382-3.178-3.73a18.118 18.118 0 0 1-2.271-4.47 19.296 19.296 0 0 1-.695-2.582 15.004 15.004 0 0 1 2.325-2.327c.26.621.557 1.212.889 1.767a12.502 12.502 0 0 0 2.44 2.967c.932.824 1.967 1.474 3.002 2.124.787-1.431 1.574-2.862 2.565-4.176a18.123 18.123 0 0 1 3.55-3.54 19.297 19.297 0 0 1 2.242-1.46c1.029.39 2.01.893 2.927 1.495-.509.438-.978.903-1.403 1.389a12.504 12.504 0 0 0-2.067 3.238c-.496 1.14-.794 2.326-1.092 3.511 1.604.306 3.208.613 4.763 1.149a18.126 18.126 0 0 1 4.465 2.282c.723.505 1.42 1.067 2.083 1.683a14.91 14.91 0 0 1-.517 3.246 13.94 13.94 0 0 0-1.757-.907zM38 34.5a3.5 3.5 0 1 0 0 7 3.5 3.5 0 0 0 0-7z"/></svg>