<svg xmlns="http://www.w3.org/2000/svg" baseProfile="full" viewBox="0 0 76.00 76.00"><path d="M47.951 35.922c0-1.638-.76-2.457-2.281-2.457-1.535 0-2.303.819-2.303 2.457 0 1.67.768 2.506 2.303 2.506 1.52 0 2.281-.835 2.281-2.506zM20.583 53.833L15.833 38h9.5v-9.5h4.75l2.375-7.917H38V28.5h12.667v4.75h4.75V38h4.75l-4.75 15.833H20.583zM40.49 35.922c0-1.638-.76-2.457-2.282-2.457-1.55 0-2.324.819-2.324 2.457 0 1.67.775 2.506 2.324 2.506 1.521 0 2.282-.835 2.282-2.506zm-7.33 0c0-1.638-.774-2.457-2.323-2.457-1.55 0-2.324.819-2.324 2.457 0 1.67.775 2.506 2.324 2.506s2.324-.835 2.324-2.506z"/></svg>