<svg xmlns="http://www.w3.org/2000/svg" baseProfile="full" viewBox="0 0 76.00 76.00"><path d="M19 19h38v38H19V19zm7.917 4.75v12.667h22.166V23.75H26.917zm0 15.833V52.25h22.166V39.583H26.917zm-3.959-17.416a2.375 2.375 0 1 0 0 4.75 2.375 2.375 0 0 0 0-4.75zm0 26.916a2.375 2.375 0 1 0 0 4.75 2.375 2.375 0 0 0 0-4.75zm0-6.729a2.375 2.375 0 1 0 0 4.75 2.375 2.375 0 0 0 0-4.75zm0-6.729a2.375 2.375 0 1 0 0 4.75 2.375 2.375 0 0 0 0-4.75zm0-6.73a2.375 2.375 0 1 0 0 4.75 2.375 2.375 0 0 0 0-4.75zm30.084-6.728a2.375 2.375 0 1 0 0 4.75 2.375 2.375 0 0 0 0-4.75zm0 26.916a2.375 2.375 0 1 0 0 4.75 2.375 2.375 0 0 0 0-4.75zm0-6.729a2.375 2.375 0 1 0 0 4.75 2.375 2.375 0 0 0 0-4.75zm0-6.729a2.375 2.375 0 1 0 0 4.75 2.375 2.375 0 0 0 0-4.75zm0-6.73a2.375 2.375 0 1 0 0 4.75 2.375 2.375 0 0 0 0-4.75z"/></svg>