<svg xmlns="http://www.w3.org/2000/svg" baseProfile="full" viewBox="0 0 76.00 76.00"><path d="M21 19h34v8h7v27h-7v3H21v-3h-7V27h7v-8zm8 4v13h18V23H29zm18 17H29v13h18V40zm-22-4a2 2 0 1 0 0 4 2 2 0 0 0 0-4zm0-7a2 2 0 1 0 0 4 2 2 0 0 0 0-4zm0-7a2 2 0 1 0 0 4 2 2 0 0 0 0-4zm0 28a2 2 0 1 0 0 4 2 2 0 0 0 0-4zm0-7a2 2 0 1 0 0 4 2 2 0 0 0 0-4zm26-7a2 2 0 1 0 0 4 2 2 0 0 0 0-4zm0-7a2 2 0 1 0 0 4 2 2 0 0 0 0-4zm0-7a2 2 0 1 0 0 4 2 2 0 0 0 0-4zm0 28a2 2 0 1 0 0 4 2 2 0 0 0 0-4zm0-7a2 2 0 1 0 0 4 2 2 0 0 0 0-4zm-32-1v9h2v-9h-2zm2-12h-2v9h2v-9zm-4.5 19a1.5 1.5 0 1 0 0 3 1.5 1.5 0 0 0 0-3zm0-5a1.5 1.5 0 1 0 0 3 1.5 1.5 0 0 0 0-3zm0-5a1.5 1.5 0 1 0 0 3 1.5 1.5 0 0 0 0-3zm0-5a1.5 1.5 0 1 0 0 3 1.5 1.5 0 0 0 0-3zm0-5a1.5 1.5 0 1 0 0 3 1.5 1.5 0 0 0 0-3zM57 39v-9h-2v9h2zm-2 12h2v-9h-2v9zm4.5-19a1.5 1.5 0 1 0 0-3 1.5 1.5 0 0 0 0 3zm0 5a1.5 1.5 0 1 0 0-3 1.5 1.5 0 0 0 0 3zm0 5a1.5 1.5 0 1 0 0-3 1.5 1.5 0 0 0 0 3zm0 5a1.5 1.5 0 1 0 0-3 1.5 1.5 0 0 0 0 3zm0 5a1.5 1.5 0 1 0 0-3 1.5 1.5 0 0 0 0 3z"/></svg>