<svg xmlns="http://www.w3.org/2000/svg" baseProfile="full" viewBox="0 0 76.00 76.00"><path d="M48 45h10v3H48v-3zm0 5h10v3H48v-3zm0 5h10v3H48v-3zm-4 0h3v3h-3v-3zm0-5h3v3h-3v-3zm0-5h3v3h-3v-3zM21 19h32v24h-8v-3H29v13h13v4H21V19zm8 4v13h16V23H29zm-4 13a2 2 0 1 0 0 4 2 2 0 0 0 0-4zm0-7a2 2 0 1 0 0 4 2 2 0 0 0 0-4zm0-7a2 2 0 1 0 0 4 2 2 0 0 0 0-4zm0 28a2 2 0 1 0 0 4 2 2 0 0 0 0-4zm0-7a2 2 0 1 0 0 4 2 2 0 0 0 0-4zm24-7a2 2 0 1 0 0 4 2 2 0 0 0 0-4zm0-7a2 2 0 1 0 0 4 2 2 0 0 0 0-4zm0-7a2 2 0 1 0 0 4 2 2 0 0 0 0-4z"/></svg>