<svg xmlns="http://www.w3.org/2000/svg" baseProfile="full" viewBox="0 0 76.00 76.00"><path d="M23.75 22.167h4.75v7.916h-4.75v-7.916zm22.167 0h4.75v7.916h-4.75v-7.916zm2.77-11.084c-12.666 14.25-12.666 28.5-12.666 28.5h9.5c-1.213 3.234-1.703 5.573-1.76 8.442 4.057-.394 7.237-1.482 11.656-3.692L57 47.5s-4.655 3.048-13.173 3.965c.487 6.986 3.277 11.868 3.277 11.868l-2.77 1.584c-2.768-4.152-3.722-9.059-3.918-13.268-6.092.352-13.3-.486-20.624-4.149l1.583-3.167s8.148 4.268 19.01 3.84c.094-4.083.782-5.423.782-5.423h-9.5s0-18.604 13.458-32.854l3.563 1.187z"/></svg>