<svg xmlns="http://www.w3.org/2000/svg" baseProfile="full" viewBox="0 0 76.00 76.00"><path d="M26.798 56.64l-.892-.625a2.178 2.178 0 0 1-.534-3.033l7.26-10.37c-10.95-16.988-8.36-22.209-8.36-22.209l1.338-.936 11.615 16.587.637-.91c-.595-.416-1.19-.833-1.36-2.17-.17-1.339.305-3.442 1.264-5.761C39.87 23.259 45.178 19 45.178 19l-4.818 9.254.446.312 7.494-7.38-4.372 9.566.446.312 7.494-7.38-4.373 9.566.446.312 7.048-7.692s-2.186 6.444-5.182 9.774c-1.851 1.694-3.665 2.86-4.98 3.158-1.316.297-1.911-.12-2.506-.535l-1.773 2.532 7.545 10.776c.69.985.45 2.343-.535 3.033l-.892.624c-.985.69-2.343.45-3.033-.534l-6.245-8.92-.641.45-6.916 9.877a2.178 2.178 0 0 1-3.033.534z"/></svg>