<svg xmlns="http://www.w3.org/2000/svg" baseProfile="full" viewBox="0 0 76.00 76.00"><path d="M44.5 18.5c1.38 0 2.5 1.79 2.5 4s-1.12 4-2.5 4-2.5-1.79-2.5-4 1.12-4 2.5-4zm-5.25 1.25c.828 0 1.5 1.12 1.5 2.5s-.672 2.5-1.5 2.5-1.5-1.12-1.5-2.5.672-2.5 1.5-2.5zM35 21c.828 0 1.5.895 1.5 2s-.672 2-1.5 2-1.5-.895-1.5-2 .672-2 1.5-2zm-3.5 2.25c.828 0 1.5.895 1.5 2s-.672 2-1.5 2-1.5-.895-1.5-2 .672-2 1.5-2zm-2.75 3.5c.552 0 1 .672 1 1.5s-.448 1.5-1 1.5-1-.672-1-1.5.448-1.5 1-1.5zm5.25.75c9-4.5 15.243 3.809 8 12.5-5 6 9.133 15.543 0 17.5-7 1.5-4.807-7.602-7-11.5-9-16-1-18.5-1-18.5z"/></svg>