<svg xmlns="http://www.w3.org/2000/svg" baseProfile="full" viewBox="0 0 76.00 76.00"><path d="M19.235 45.187c-.471 0-.863-.145-1.177-.435a1.396 1.396 0 0 1-.471-1.067c0-.436.161-.792.484-1.07.323-.276.726-.415 1.21-.415.488 0 .888.14 1.199.421.311.281.467.636.467 1.064 0 .439-.159.8-.476 1.08-.317.281-.729.422-1.236.422zM34.947 45h-2.993l-5.352-8.21a12.67 12.67 0 0 1-.653-1.085h-.035c.048.46.073 1.165.073 2.114V45h-2.8V31.933h3.19l5.154 7.954c.236.36.453.716.654 1.068h.035c-.049-.304-.073-.902-.073-1.794v-7.228h2.8V45zM45.773 45h-7.84V31.933H45.4v2.427h-4.48v2.8h4.293v2.427H40.92v2.986h4.853V45zM57.16 34.36h-3.733V45H50.44V34.36h-3.733v-2.427H57.16v2.427z"/></svg>