<svg xmlns="http://www.w3.org/2000/svg" baseProfile="full" viewBox="0 0 76.00 76.00"><path d="M38 15.833c12.242 0 22.167 9.925 22.167 22.167S50.242 60.167 38 60.167 15.833 50.242 15.833 38 25.758 15.833 38 15.833zM38 19c-.961 0-1.906.071-2.828.21-.198.43-.339.901-.339 1.373 0 1.584-1.583-1.583-3.166 1.584-1.584 3.166 0 0 0 3.166 0 1.584-2.292.438-1.584.792 1.584.792 1.584.792 0 2.375 0 0-3.166-1.583-3.166 0s-1.584 1.583-3.167 1.583c-1.583 0 0 3.167-1.583 3.167-1.218 0-.563-1.872-1.635-2.737-.407.949-.74 1.938-.99 2.96 1.068.955 1.247 4.732 2.625 6.11 1.583-1.583 1.583 0 3.166 0 1.584 0 1.584 0 2.375 1.584 1.584 0 2.375 1.583 3.959 3.166 1.583 1.584 4.75 1.584 4.75 3.167 0 1.583-1.584 0-1.584 3.167 0 1.583 0 1.583-1.583 1.583-.997 0-1.994 1.883-2.596 3.278A18.942 18.942 0 0 0 38 57a18.942 18.942 0 0 0 13.574-5.706l-.907-1.815s1.979-3.166.395-4.75c-1.583-1.583-1.583-3.166-1.583-3.166s-3.166 3.166-4.75 1.583c-1.583-1.584-1.583 0-3.166-3.167-1.584-3.166 1.583-4.75 1.583-4.75s0-3.166 1.583-3.166c1.584 0 3.167-3.167 6.334 0 0 0 1.83-1.22 4.418-1.519a19.013 19.013 0 0 0-3.28-5.166 1.902 1.902 0 0 1-1.139.351c-1.583 0 1.584 3.167 0 3.167-1.583 0-1.583-1.584-3.166-1.584-1.584 0-1.584 1.584-3.167 3.167-1.583 1.584 0 0-1.583-1.583-1.584-1.584 3.166 0 1.583-1.584-1.583-1.583 1.584-1.583 1.584-3.166 0-1.242 1.947-1.51 2.788-1.568-.914-.659-1.889-1.238-2.788-1.599 1.583 1.584-1.584 3.167-3.167 3.167-1.488 0-.18-2.794-.017-4.445A19.017 19.017 0 0 0 38 19zM19 38a18.951 18.951 0 0 0 6.253 14.09l-1.503-3.007c-1.583 0-2.375-3.562-2.375-5.145 0-1.271-.51-2.287.107-3.457-2.234-2.243-.899-1.027-.899-2.481 0-.754-.717-1.508-1.47-2.09A19.192 19.192 0 0 0 19 38z"/></svg>