<svg xmlns="http://www.w3.org/2000/svg" baseProfile="full" viewBox="0 0 76.00 76.00"><path d="M49.083 50.667c0 4.372-5.316 7.916-11.875 7.916-6.558 0-11.875-3.544-11.875-7.916 0-4.202 4.911-7.64 11.116-7.901l.364-.016c1.583 0 1.187-1.583-1.372-4.93-3.962-.816-7.337-3.137-7.337-7.34 0-4.56 3.899-9.488 8.36-9.865l-.047-.032h12.666s-3.57 1.785-5.014 3.345c1.848 1.405 3.035 2.945 3.035 4.968 0 3.601-2.82 6.59-5.937 7.916-1.032 3.33 3.166 5.938 5.897 9.437 1.275 1.261 2.02 2.782 2.02 4.418zM36.417 45.52c-5.247 0-6.334 2.877-6.334 5.937 0 2.375 3.167 3.563 7.125 3.563 5.247 0 8.313-1.294 8.313-4.354s-2.771-4.75-9.104-5.146zm0-22.563c-3.498 0-3.959 2.836-3.959 6.334 0 3.497 1.648 6.333 5.146 6.333s4.354-2.836 4.354-6.333c0-3.498-2.044-6.334-5.541-6.334z"/></svg>