<svg xmlns="http://www.w3.org/2000/svg" baseProfile="full" viewBox="0 0 76.00 76.00"><path d="M20.52 53.833v-32.51h11.887c3.643 0 6.443.662 8.4 1.988 1.957 1.325 2.935 3.193 2.935 5.602 0 1.747-.595 3.274-1.785 4.583-1.19 1.308-2.712 2.22-4.565 2.732v.094c2.352.286 4.23 1.14 5.635 2.566 1.406 1.424 2.109 3.16 2.109 5.206 0 2.99-1.075 5.361-3.223 7.112-2.148 1.752-5.082 2.627-8.802 2.627H20.52zm7.431-26.937v7.43h3.142c1.476 0 2.637-.352 3.484-1.059.846-.706 1.27-1.679 1.27-2.917 0-2.303-1.74-3.454-5.218-3.454H27.95zm0 13.004v8.36h3.926c1.674 0 2.986-.383 3.937-1.15.95-.767 1.426-1.813 1.426-3.139 0-1.267-.467-2.263-1.4-2.986-.934-.723-2.24-1.085-3.92-1.085h-3.969zm18.361-5.067h18.209v6.334H46.312v-6.334z"/></svg>