<svg xmlns="http://www.w3.org/2000/svg" baseProfile="full" viewBox="0 0 76.00 76.00"><path d="M18.937 53.833v-32.51h11.886c3.644 0 6.444.662 8.4 1.988 1.957 1.325 2.936 3.193 2.936 5.602 0 1.747-.595 3.274-1.785 4.583-1.19 1.308-2.712 2.22-4.565 2.732v.094c2.351.286 4.23 1.14 5.635 2.566 1.405 1.424 2.108 3.16 2.108 5.206 0 2.99-1.074 5.361-3.222 7.112-2.148 1.752-5.082 2.627-8.802 2.627H18.937zm7.43-26.937v7.43h3.143c1.476 0 2.637-.352 3.483-1.059.847-.706 1.27-1.679 1.27-2.917 0-2.303-1.739-3.454-5.217-3.454h-2.678zm0 13.004v8.36h3.927c1.674 0 2.986-.383 3.937-1.15.95-.767 1.426-1.813 1.426-3.139 0-1.267-.467-2.263-1.4-2.986-.935-.723-2.24-1.085-3.92-1.085h-3.97zm19.945-5.067h5.938v-5.937h6.333v5.937h5.938v6.334h-5.938v5.937H52.25v-5.937h-5.938v-6.334z"/></svg>