<svg xmlns="http://www.w3.org/2000/svg" baseProfile="full" viewBox="0 0 76.00 76.00"><path d="M44.207 52.585c-2.347 1.142-5.412 1.713-9.195 1.713-4.94 0-8.822-1.459-11.647-4.376-2.826-2.917-4.238-6.802-4.238-11.655 0-5.172 1.589-9.366 4.768-12.583 3.178-3.218 7.302-4.826 12.373-4.826 3.14 0 5.786.406 7.939 1.219v7.14c-2.12-1.238-4.534-1.857-7.243-1.857-2.975 0-5.376.934-7.202 2.801-1.827 1.868-2.74 4.398-2.74 7.59 0 3.063.861 5.503 2.584 7.32 1.722 1.816 4.042 2.725 6.96 2.725 2.78 0 5.328-.62 7.64-1.858v6.647zm2.105-17.752h5.938v-5.937h6.333v5.937h5.938v6.334h-5.938v5.937H52.25v-5.937h-5.938v-6.334z"/></svg>