<svg xmlns="http://www.w3.org/2000/svg" baseProfile="full" viewBox="0 0 76.00 76.00"><path d="M50.304 26.933c3.594.303 6.292.454 8.093.454l.456-8.34H37.394c-6.457.09-11.435 1.883-14.935 5.381-3.5 3.499-5.27 8.168-5.312 14.009.103 5.82 1.878 10.348 5.325 13.585s7.95 4.88 13.51 4.93c5.181.023 9.613-1.5 13.295-4.568 3.682-3.068 5.607-7.814 5.775-14.238.002-1.837-.397-3.742-1.196-5.716a13.586 13.586 0 0 0-3.627-5.117l.075-.38zM36.296 48.688c-2.557-.064-4.502-1.082-5.834-3.054-1.331-1.972-2.002-4.516-2.01-7.633-.027-2.767.577-5.212 1.814-7.335 1.237-2.122 3.273-3.24 6.109-3.354 2.64.116 4.536 1.23 5.686 3.345 1.15 2.115 1.713 4.539 1.686 7.271-.026 3.247-.699 5.84-2.02 7.779-1.32 1.938-3.13 2.932-5.43 2.98z"/></svg>