<svg xmlns="http://www.w3.org/2000/svg" baseProfile="full" viewBox="0 0 76.00 76.00"><path d="M34.833 28.5H38v3.167h-3.167V28.5zm-4.75 7.917V33.25h3.167v3.167h-3.167zm0-7.917h3.167v3.167h-3.167V28.5zm9.5 0h3.167v3.167h-3.167V28.5zm-9.5 9.5h3.167v3.167h-3.167V38zm0 4.75h3.167v3.167h-3.167V42.75zm4.75 0H38v3.167h-3.167V42.75zm4.75 0h3.167v3.167h-3.167V42.75zm4.75 0H47.5v3.167h-3.167V42.75zm0-4.75H47.5v3.167h-3.167V38zm0-4.75H47.5v3.167h-3.167V33.25zm0-4.75H47.5v3.167h-3.167V28.5zm-19 0H28.5v3.167h-3.167V28.5zm-4.75 0h3.167v3.167h-3.167V28.5zm-4.75 0H19v3.167h-3.167V28.5zm9.5 14.25H28.5v3.167h-3.167V42.75zm-4.75 0h3.167v3.167h-3.167V42.75zm-4.75 0H19v3.167h-3.167V42.75zm0-9.5H19v3.167h-3.167V33.25zm0 4.75H19v3.167h-3.167V38zm33.25-9.5h3.167v3.167h-3.167V28.5zm4.75 0H57v3.167h-3.167V28.5zm-4.75 14.25h3.167v3.167h-3.167V42.75zm4.75 0H57v3.167h-3.167V42.75zm4.75 0h3.167v3.167h-3.167V42.75zm0-4.75h3.167v3.167h-3.167V38zm0-4.75h3.167v3.167h-3.167V33.25zm0-4.75h3.167v3.167h-3.167V28.5zm-47.5 0h3.167v3.167h-3.167V28.5zm0 14.25h3.167v3.167h-3.167V42.75zM34.833 57H38v3.167h-3.167V57zm4.75 0h3.167v3.167h-3.167V57zm4.75 0H47.5v3.167h-3.167V57zm0-4.75H47.5v3.167h-3.167V52.25zm0-4.75H47.5v3.167h-3.167V47.5zm4.75 9.5h3.167v3.167h-3.167V57zm4.75 0H57v3.167h-3.167V57zm4.75-4.75h3.167v3.167h-3.167V52.25zm0-4.75h3.167v3.167h-3.167V47.5zm-38 9.5h3.167v3.167h-3.167V57zm4.75 0H28.5v3.167h-3.167V57zm4.75 0h3.167v3.167h-3.167V57zm0-4.75h3.167v3.167h-3.167V52.25zm0-4.75h3.167v3.167h-3.167V47.5zm4.75-33.25H38v3.167h-3.167V14.25zm-4.75 7.917V19h3.167v3.167h-3.167zm0-7.917h3.167v3.167h-3.167V14.25zm9.5 0h3.167v3.167h-3.167V14.25zm-9.5 9.5h3.167v3.167h-3.167V23.75zm14.25 0H47.5v3.167h-3.167V23.75zm0-4.75H47.5v3.167h-3.167V19zm0-4.75H47.5v3.167h-3.167V14.25zm-19 0H28.5v3.167h-3.167V14.25zm-9.5 4.75H19v3.167h-3.167V19zm0 4.75H19v3.167h-3.167V23.75zm33.25-9.5h3.167v3.167h-3.167V14.25zm9.5 9.5h3.167v3.167h-3.167V23.75zm4.75 19H66.5v3.167h-3.167V42.75zm-19-33.25H47.5v3.167h-3.167V9.5zm0 52.25H47.5v3.167h-3.167V61.75zM30.083 9.5h3.167v3.167h-3.167V9.5zm0 52.25h3.167v3.167h-3.167V61.75zm-14.25-9.5H19v3.167h-3.167V52.25zm0-4.75H19v3.167h-3.167V47.5zm47.5-19H66.5v3.167h-3.167V28.5z"/></svg>