<svg xmlns="http://www.w3.org/2000/svg" baseProfile="full" viewBox="0 0 76.00 76.00"><path d="M39.583 47.5v4.75H19V47.5h20.583zM38 26.917c4.618 0 6.597 2.638 5.931 8.177a1.978 1.978 0 0 1-.426 3.618c-.343 1.224-.876 2.307-1.547 3.174v4.163c2.2.44 3.959.66 6.598 1.979 2.638 1.32 3.518 2.529 5.277 4.288v6.267H22.167v-4.75h19v-7.916h-7.125v-4.031c-.67-.867-1.204-1.95-1.547-3.174a1.98 1.98 0 0 1-.426-3.618c-.666-5.539 1.313-8.177 5.931-8.177zM12.667 49.083v-6.267c1.759-1.76 2.639-2.969 5.277-4.288 2.64-1.32 4.399-1.54 6.598-1.98v-4.162c-.67-.867-1.204-1.95-1.547-3.174a1.98 1.98 0 0 1-.426-3.617c-.666-5.54 1.313-8.178 5.931-8.178 4.331 0 6.341 3.509 6.025 8.367-2.858 1.133-4.442 2.716-4.435 7.331a1.979 1.979 0 0 0-.996 1.718c0 .9.204 2.055 1.026 2.296.343 1.224.876 2.307 1.547 3.173v4.56c-1.542.307-2.479.508-3.81 1.055h-10.44v3.166h-4.75zm37.472-2.243c-2.639-1.32-3.607-1.54-5.806-1.979v-4.559c.67-.866 1.204-1.95 1.547-3.173.822-.24 1.026-1.396 1.026-2.296 0-.735-.4-1.376-.996-1.718.007-4.615-1.577-6.198-4.435-7.33-.317-4.86 1.694-8.368 6.025-8.368 4.618 0 6.597 2.639 5.931 8.177a1.978 1.978 0 0 1-.426 3.618c-.343 1.224-.876 2.307-1.547 3.174v4.163c2.2.44 3.959.66 6.598 1.979 2.638 1.32 3.518 2.529 5.277 4.288v6.267h-9.942c-1.273-1.318-1.064-1.149-3.252-2.243z"/></svg>