<svg xmlns="http://www.w3.org/2000/svg" baseProfile="full" viewBox="0 0 76.01 76.01"><path d="M51.007 41.006c3.314 0 6 2.388 6 5.334 0 .46-.065.907-.189 1.333l-5.811 9.335-5.812-9.335a4.785 4.785 0 0 1-.19-1.333c0-2.946 2.687-5.334 6.002-5.334zm0 3.667a1.667 1.667 0 1 0 0 3.334 1.667 1.667 0 0 0 0-3.334zM24.003 56.008V38.005l-2 2-3-5 19.002-15.002 7.001 5.527v-3.777l4-.75v7.685l8.002 6.317-2.805 4.674-.783-.261-1.413-1.413v1.139l-1-.055c-.69 0-1.361.077-2 .224v-3.308L38.005 26.92l-11.001 9.085v17.002h6V42.006h10.002V53.007h3.382l1.868 3H24.003z"/></svg>