<svg xmlns="http://www.w3.org/2000/svg" baseProfile="full" viewBox="0 0 76.01 76.01"><path d="M24.003 56.008V38.005l-2.25 1.75-3.25-4.875 19.502-14.627 8.001 6v-4.5l4.001-.75v8.001l7.501 5.876-3.25 4.876-2.25-1.75v18.002H24.002zm13.965-23.403c-2.486 0-4.5 2.35-4.5 5.25s2.014 5.251 4.5 5.251c2.485 0 4.5-2.35 4.5-5.25s-2.015-5.251-4.5-5.251zm-8.964 20.403h18.003s-.3-6.601-1.5-8.402c-1.066-1.598-2.701-1.8-3.301-1.8-.6 0-2.7 2.1-4.2 2.1s-3.826-2.1-4.426-2.1c-.6 0-4.576-.3-4.576 10.202zm31.92-41.456a35.225 35.225 0 0 1 3.535 3.535L51.007 28.54v-7.071l9.916-9.916zM15.086 64.459a35.224 35.224 0 0 1-3.535-3.536l11.451-11.451v7.071l-7.916 7.916z"/></svg>