<svg xmlns="http://www.w3.org/2000/svg" baseProfile="full" viewBox="0 0 76.00 76.00"><path d="M38.73 41.288a.73.73 0 1 1 0 1.462.73.73 0 0 1 0-1.462zm0 2.68a.73.73 0 1 1 0 1.461.73.73 0 0 1 0-1.461zM25 19h26v4h-3c-.501 3.46-2.162 12.44-7.026 15 4.864 2.56 6.525 11.54 7.026 15h3v4H25v-4h3c.501-3.46 2.162-12.44 7.026-15-4.864-2.56-6.525-11.54-7.026-15h-3v-4zm6.5 4s.646 4.724 2.093 8.418c2.356-1.117 6.996-2.92 9.204-1.057C43.984 26.945 44.5 23 44.5 23h-13zm13.026 30S42.385 39.462 38 39.462c-3.796 0-6 10.244-6.51 12.89 2.274-1.623 5.9-4.608 6.875-5.583 0 0 2.704 4.517 5.303 6.231h.858z"/></svg>