<svg xmlns="http://www.w3.org/2000/svg" baseProfile="full" viewBox="0 0 76.00 76.00"><path d="M43.25 30.846l-2.838.354 1.998 2.11-1.854 1.25-1.394-2.605-1.398 2.605-1.864-1.25 2.008-2.11-2.848-.354.738-1.956 2.622 1.05L38 27h2.31l-.42 2.94 2.602-1.05.758 1.956zm-7.06 8.19l-2.838.354 1.998 2.11-1.854 1.25-1.395-2.605-1.398 2.605-1.863-1.25 2.008-2.11L28 39.036l.738-1.956 2.622 1.05-.42-2.94h2.31l-.42 2.94 2.602-1.05.758 1.956zm17.06-10.19l-2.838.354 1.998 2.11-1.854 1.25-1.394-2.605-1.398 2.605-1.864-1.25 2.008-2.11-2.848-.354.738-1.956 2.622 1.05L48 25h2.31l-.42 2.94 2.602-1.05.758 1.956zm-23.014 1.19l-2.838.354 1.998 2.11-1.854 1.25-1.394-2.605-1.398 2.605-1.864-1.25 2.008-2.11-2.848-.354.739-1.956 2.621 1.05-.42-2.94h2.31l-.42 2.94 2.602-1.05.758 1.956zM17 20h42v36H17V20zm3 3v30h36V23H20zm4 28l6.083-6.667L33.25 47.5l7.115-6.98L44.5 43l2-2 2 2 3.82-2.292L54 42.5V51H24zm22.5-16.5l4.77 5.088-2.77 1.662-2-2-2 2-3.028-1.817L46.5 34.5z"/></svg>