<svg xmlns="http://www.w3.org/2000/svg" baseProfile="full" viewBox="0 0 76.00 76.00"><path d="M17 20h42v36H17V20zm3 3v30h36V23H20zm4 28l6.083-6.667L33.25 47.5l12.667-12.667 4.75 4.75L54 36v15H24zm6.083-24.083a6.333 6.333 0 0 1-6.333 6.333c-.547 0-1.244-.12-1.75-.25v-8h7.667c.13.506.416 1.37.416 1.917zM22.167 47.5l6.333-6.333.792.791L23.75 47.5h-1.583zm9.5-3.167l12.666-12.666.792.791-12.667 12.667-.791-.792zm17.416-7.916l3.167-3.167v1.583l-2.375 2.375-.792-.791zM23.75 34.833a7.917 7.917 0 0 0 7.917-7.916h1.583a9.5 9.5 0 0 1-9.5 9.5v-1.584z"/></svg>