<svg xmlns="http://www.w3.org/2000/svg" baseProfile="full" viewBox="0 0 76.00 76.00"><path d="M17 20h42v36H17V20zm3 3v30h36V23H20zm13.5 7.206c3.723-2.15 7.134-2.785 9.979-2.716l6.363 11.02c-1.363 2.499-3.62 5.135-7.342 7.284-3.723 2.15-7.134 2.785-9.979 2.716l-6.363-11.02c1.363-2.499 3.62-5.135 7.342-7.284zM51.856 30s.294 2.773-.997 6.272l-4.933-8.544c3.676.632 5.93 2.272 5.93 2.272zM24.144 46s-.294-2.773.997-6.272l4.933 8.544C26.398 47.64 24.144 46 24.144 46zm8.794-2.768l.866-.5-.75-1.299 1.732-1 .75 1.3.866-.5-.75-1.3 1.732-1 .75 1.3.866-.5-.75-1.3 1.732-1 .75 1.3.866-.5-.75-1.3 1.732-1 .75 1.3.866-.5-2-3.465-.866.5.75 1.299-1.732 1-.75-1.299-.866.5.75 1.299-1.732 1-.75-1.299-.866.5.75 1.299-1.732 1-.75-1.299-.866.5.75 1.299-1.732 1-.75-1.299-.866.5 2 3.464z"/></svg>