<svg xmlns="http://www.w3.org/2000/svg" baseProfile="full" viewBox="0 0 76.00 76.00"><path d="M15.833 23.75h24.938l-4.75 4.75H17.417v19h41.166v-19h-8.312l4.75-4.75h5.146a3.167 3.167 0 0 1 3.166 3.167v22.166a3.167 3.167 0 0 1-3.166 3.167H15.833a3.167 3.167 0 0 1-3.166-3.167V26.917a3.167 3.167 0 0 1 3.166-3.167zM31.271 57h13.458L38 63.73 31.272 57zm23.791-40.812c.443.472.665.98.665 1.525l-.17.802-.495.723-9.497 9.497-2.397 2.397-2.3 2.3-2.059 2.058-1.714 1.705-1.229 1.22-.61.61-.99.906-1.404 1.107-1.534.933c-.52.26-.984.39-1.39.39-.318 0-.572-.095-.763-.286-.191-.191-.287-.451-.287-.78 0-.407.13-.868.39-1.382l.934-1.534 1.098-1.403.896-.982 19.806-19.806.723-.494.802-.171c.545 0 1.053.222 1.525.665zM27.65 42.075l1.525 1.525-3.05 1.525 1.525-3.05z"/></svg>