<svg xmlns="http://www.w3.org/2000/svg" baseProfile="full" viewBox="0 0 76.00 76.00"><path d="M15.833 23.75h44.334a3.167 3.167 0 0 1 3.166 3.167v22.166a3.167 3.167 0 0 1-3.166 3.167H15.833a3.167 3.167 0 0 1-3.166-3.167V26.917a3.167 3.167 0 0 1 3.166-3.167zm1.584 4.75v19h41.166v-19H17.417zm3.166 1.583H28.5V38h-7.917v-7.917zm9.5 0h6.334V38h-6.334v-7.917zm-9.5 9.5H28.5v6.334h-7.917v-6.334zm9.5 0h15.834v6.334H30.083v-6.334zm7.917-9.5h7.917V38H38v-7.917zm9.5 0h7.917V38H47.5v-7.917zm0 9.5h7.917v6.334H47.5v-6.334zM31.27 57h13.46L38 63.73 31.27 57z"/></svg>