<svg xmlns="http://www.w3.org/2000/svg" baseProfile="full" viewBox="0 0 76.00 76.00"><path d="M15.833 25.333h44.334V52.25H15.833V25.333zM19 28.5v20.583h38V28.5H19zm10.408 15.833H27.19v-1.101h-.03c-.5.833-1.24 1.25-2.221 1.25-.724 0-1.293-.203-1.708-.607-.415-.404-.622-.943-.622-1.617 0-1.424.857-2.246 2.57-2.467l2.025-.265c0-.736-.441-1.104-1.323-1.104-.888 0-1.733.247-2.533.74v-1.737l1.322-.439 1.527-.19c2.14 0 3.21 1.047 3.21 3.141v4.396zm-2.203-2.994v-.483l-1.38.169c-.764.092-1.146.416-1.146.972 0 .25.093.456.278.617.186.161.437.242.754.242.442 0 .801-.144 1.078-.43.277-.286.416-.649.416-1.087zm6.223 2.075h-.03v.92H31.18V33.397h2.217v4.717h.03c.57-.879 1.379-1.318 2.429-1.318.964 0 1.706.324 2.227.973.521.649.781 1.536.781 2.661 0 1.22-.303 2.201-.912 2.94-.608.74-1.42 1.11-2.438 1.11-.92 0-1.616-.355-2.087-1.067zm-.065-3.048v.735c0 .463.139.847.416 1.15.277.305.632.457 1.066.457.525 0 .933-.195 1.222-.586.29-.39.434-.943.434-1.659 0-.594-.132-1.058-.397-1.392-.265-.334-.643-.501-1.136-.501-.462 0-.845.166-1.149.498-.304.331-.456.764-.456 1.298zm12.448 3.651c-.503.31-1.23.464-2.182.464-1.111 0-2.01-.34-2.698-1.023-.687-.682-1.031-1.562-1.031-2.641 0-1.244.368-2.225 1.105-2.943.736-.718 1.722-1.077 2.957-1.077.85 0 1.467.12 1.85.36v2.004c-.455-.394-.961-.591-1.52-.591-.624 0-1.117.186-1.482.558-.364.371-.546.884-.546 1.539 0 .635.174 1.134.522 1.497.348.362.827.544 1.436.544.542 0 1.072-.197 1.59-.591v1.9zm1.293 3.483V30.083h1.98V47.5h-1.98z"/></svg>