<svg xmlns="http://www.w3.org/2000/svg" baseProfile="full" viewBox="0 0 76.00 76.00"><path d="M23.75 57L19 42.75V19h33.25v20.583L57 53.833V57H23.75zm25.333-17.417V22.167H22.167v17.416h26.916zm1.32 3.959l-.528-1.584h-3.661l.593 1.584h3.596zm-27.445-1.584l.528 1.584h3.53l-.594-1.584h-3.464zm8.808 1.584l-.594-1.584h-3.958l.593 1.584h3.959zm4.75 0l-.594-1.584h-3.958l.593 1.584h3.959zm4.75 0l-.594-1.584h-3.958l.593 1.584h3.959zm4.75 0l-.594-1.584h-3.958l.593 1.584h3.959zm7.553 9.5l-.527-1.584h-3.266l.594 1.584h3.2zm-27.444-1.584l.528 1.584h3.925l-.594-1.584h-3.859zm9.203 1.584l-.594-1.584h-3.958l.594 1.584h3.958zm4.75 0l-.594-1.584h-3.958l.594 1.584h3.958zm4.75 0l-.594-1.584h-3.958l.594 1.584h3.958zm4.75 0l-.594-1.584h-3.958l.594 1.584h3.958zm-24.509-4.75l.528 1.583h3.794l-.594-1.583h-3.728zm9.072 1.583l-.594-1.583h-3.958l.593 1.583h3.959zm4.75 0l-.594-1.583h-3.958l.593 1.583h3.959zm4.75 0l-.594-1.583h-3.958l.593 1.583h3.959zm4.75 0l-.594-1.583h-3.958l.593 1.583h3.959zm4.123 0l-.528-1.583H48.59l.593 1.583h3.332zm-28.5-4.75l.528 1.583h3.661l-.594-1.583h-3.595zm8.94 1.583l-.595-1.583h-3.958l.594 1.583h3.958zm4.75 0l-.595-1.583h-3.958l.594 1.583h3.958zm4.75 0l-.595-1.583h-3.958l.594 1.583h3.958zm4.75 0l-.595-1.583h-3.958l.594 1.583h3.958zm4.254 0l-.527-1.583H47.4l.594 1.583h3.463z"/></svg>