<svg xmlns="http://www.w3.org/2000/svg" baseProfile="full" viewBox="0 0 76.00 76.00"><path d="M45.44 40.946l12.256 4.919-3 5.196-10.381-8.149a8.042 8.042 0 0 1-1.688 1.615l3.978 5.903-2.165 1.25-3.124-6.397a7.943 7.943 0 0 1-2.183.637l1.877 13.142h-6l1.877-13.139a7.944 7.944 0 0 1-2.248-.661l-3.128 6.405-2.165-1.25 3.988-5.918a8.048 8.048 0 0 1-1.636-1.571l-10.46 8.21-3-5.196 12.34-4.953a7.947 7.947 0 0 1-.543-2.233l-7.028.488v-2.5l7.03.488a7.95 7.95 0 0 1 .544-2.231L18.33 30.083l3-5.196 10.391 8.157a8.046 8.046 0 0 1 1.632-1.556l-3.946-5.856 2.165-1.25 3.097 6.343a7.945 7.945 0 0 1 2.2-.646L35 17h6l-1.868 13.08a7.945 7.945 0 0 1 2.176.634l3.11-6.369 2.165 1.25-3.96 5.876a8.047 8.047 0 0 1 1.658 1.574l10.41-8.17 3 5.195-12.274 4.927c.132.324.242.66.331 1.003h27.196L73 38l-.056 2H45.748c-.083.324-.186.64-.308.946z"/></svg>