<svg xmlns="http://www.w3.org/2000/svg" baseProfile="full" viewBox="0 0 76.00 76.00"><path d="M50.667 25.333v25.334H25.333V25.333h25.334zm-33.25-7.916h2.375l-2.375 2.375v-2.375zm10.292 0L17.417 27.709v-6.334l3.958-3.958h6.334zm8.708 1.188v5.145h-5.542l5.146-5.145h.396zM18.604 36.416v-.395l5.146-5.146v5.541h-5.146zm-1.187-7.125l11.875-11.875h6.334l-6.334 6.333H23.75v5.542l-6.333 6.334v-6.334zm41.166 29.291h-2.375l2.375-2.375v2.375zm-10.292 0l10.292-10.292v6.334l-3.958 3.958h-6.334zm-8.708-1.187V52.25h5.542l-5.146 5.146h-.396zm17.813-17.813v.396l-5.146 5.146v-5.542h5.146zm1.187 7.125L46.708 58.583h-6.333l6.333-6.333h5.542v-5.542l6.333-6.333v6.333z"/></svg>