<svg xmlns="http://www.w3.org/2000/svg" baseProfile="full" viewBox="0 0 76.00 76.00"><path d="M50.667 25.333v15.834h-9.5v9.5H25.333V34.833h9.5v-9.5h15.834zM14.25 14.25h2.375l-2.375 2.375V14.25zm10.292 0L14.25 24.542v-6.334l3.958-3.958h6.334zm-9.5 19L33.25 15.042v6.334L21.375 33.25h-6.334zm-.792-7.125L26.125 14.25h6.334L14.25 32.459v-6.334zm8.708 7.125L33.25 22.96v6.333l-3.958 3.958h-6.334zm38.792 28.5h-2.375l2.375-2.375v2.375zm-10.292 0L61.75 51.458v6.334l-3.958 3.958h-6.334zm9.5-19L42.75 60.958v-6.334L54.625 42.75h6.333zm.792 7.125L49.875 61.75H43.54L61.75 43.541v6.334zm-8.709-7.125L42.75 53.04v-6.333l3.958-3.958h6.334z"/></svg>