<svg xmlns="http://www.w3.org/2000/svg" baseProfile="full" viewBox="0 0 76.01 76.01"><path d="M18.509 44.037l3.359-3.358 5.598 5.597 5.597-5.597 3.36 3.358-5.599 5.598 5.598 5.598-3.359 3.359-5.598-5.598-5.597 5.598-3.36-3.359 5.599-5.598-5.598-5.598zm38.499-6.032l-19.003 9.502-1.257-.629 2.84-2.84-4.332-4.24 2.75 1.374 12.668-6.334 6.334 3.167zm-38.005 0l6.334-3.167 6.996 3.498-2.436 2.436-1.787 1.787-2.39-1.195-3.852-3.759-1.222 1.222-1.643-.822zm19.002-19.002l19.003 9.501-19.003 9.501-19.002-9.501 19.002-9.501zm19.003 28.504l-19.003 9.501-.127-.064 1.71-1.71-5.597-5.599.646-.645 3.368 1.684 12.669-6.334 6.334 3.167z"/></svg>