<svg xmlns="http://www.w3.org/2000/svg" baseProfile="full" viewBox="0 0 76.00 76.00"><path d="M58.584 58.584h-5.542l5.541-5.542v5.542zM34.041 52.25l-3.958 3.959V52.25h3.958zm7.916 0l-6.333 6.334h-5.541v-.792l5.54-5.542h6.334zm7.917 0l-6.333 6.334h-6.334l6.334-6.334h6.333zm8.709-7.126v6.335l-7.125 7.124h-6.334l13.459-13.459zM52.25 34.042v-3.959h3.959l-3.959 3.959zm6.334 1.583l-6.334 6.333v-6.333l5.542-5.542h.791v5.542zm0 7.916l-6.334 6.334V43.54l6.334-6.333v6.333zM19 50.667V19h31.667v31.666H19z"/></svg>