<svg xmlns="http://www.w3.org/2000/svg" baseProfile="full" viewBox="0 0 76.00 76.00"><path d="M23.496 46.129l1.584 2.742 4.325 1.16 4.114-2.376 1.371-.791 2.743-1.584.791 1.371-1.159 4.326-6.856 3.959-8.651-2.319-3.167-5.484 2.318-8.652 6.856-3.958 4.326 1.159.792 1.371-2.743 1.583-1.371.792-4.114 2.375-1.159 4.326zm15.239-17.94l6.856-3.958 8.651 2.318 3.167 5.485-2.318 8.652-6.856 3.958-4.326-1.16-.792-1.37 2.743-1.584 1.371-.791 4.114-2.375 1.159-4.326-1.584-2.742-4.325-1.16-4.114 2.375-1.371.792-2.743 1.583-.791-1.37 1.159-4.326zM33.9 45.15l-2.163-.579-1.188-2.057.58-2.163 10.97-6.333 2.162.58 1.188 2.056-.58 2.163L33.9 45.15z"/></svg>