<svg xmlns="http://www.w3.org/2000/svg" baseProfile="full" viewBox="0 0 76.00 76.00"><path d="M19 34h1v1h-1v-1zm0 2h1v1h-1v-1zm0 2h1v1h-1v-1zm0 2h1v1h1v1h-1v-1h-1v-1zm2-5v-1h1v1h-1zm2 0v-1h1v1h-1zm2 0v-1h1v1h1v1h-1v-1h-1zm1 2h1v1h-1v-1zm0 2h1v1h-1v-1zm0 2h1v1h-1v-1zm-1 1h-1v-1h1v1zm-2 0h-1v-1h1v1zm8-8h1v1h-1v-1zm0 2h1v1h-1v-1zm0 2h1v1h-1v-1zm0 2h1v1h1v1h-1v-1h-1v-1zm2-5v-1h1v1h-1zm2 0v-1h1v1h-1zm2 0v-1h1v1h-1zm20 0v1h-1v-1h-1v-1h1v1h1zm-1 2h1v1h-1v-1zm0 2h1v1h-1v-1zm-18 2h1v1h-1v-1zm-1 1h-1v-1h1v1zm-2 0h-1v-1h1v1zm5 0v-1h1v1h-1zm1-7v-1h1v1h-1zm2 0v-1h1v1h-1zm2 0v-1h1v1h-1zm1 6h1v1h-1v-1zm-1 1h-1v-1h1v1zm-2 0h-1v-1h1v1zm-4-7v-1h1v1h-1zm9 6h1v1h-1v-1zm2 1v-1h1v1h-1zm6-1h1v1h-1v-1zm-1 1h-1v-1h1v1zm-2 0h-1v-1h1v1zm-6-7v-1h1v1h-1zm4 0v-1h1v1h-1zm2 0v-1h1v1h-1zm-4 0v-1h1v1h-1zM19 23h8v8h-8v-8zm12 0h26v8H31v-8zM19 45h8v8h-8v-8zm12 0h26v8H31v-8z"/></svg>