<svg xmlns="http://www.w3.org/2000/svg" baseProfile="full" viewBox="0 0 76.00 76.00"><path d="M31.1 33.34c2.41.029 4.307.725 5.688 2.088 1.381 1.363 2.085 3.221 2.112 5.574-.073 2.83-.89 4.924-2.452 6.279-1.561 1.355-3.431 2.028-5.61 2.019-2.325-.02-4.212-.73-5.66-2.127-1.448-1.398-2.194-3.36-2.238-5.886.027-2.515.761-4.463 2.202-5.845 1.442-1.382 3.427-2.083 5.958-2.102zm-.131 3.16c-1.18.051-2.023.543-2.53 1.474-.505.932-.752 1.994-.739 3.186.003 1.36.283 2.469.838 3.329.555.86 1.365 1.303 2.431 1.331.976-.02 1.746-.448 2.309-1.284.563-.836.85-1.961.862-3.376.009-1.206-.238-2.272-.74-3.198-.502-.925-1.311-1.412-2.431-1.462zM42.14 48.98V38.704l-.04-2.874-.088-2.17h4.105l.156 2.86h.126c.426-1.11 1.04-1.92 1.838-2.428.8-.509 1.59-.76 2.375-.752l.548.008.476.055v4.502l-1.312-.125c-.902.008-1.641.226-2.216.651-.575.426-.945 1.01-1.112 1.752L46.9 41.21v7.769h-4.76zM36 60v3h-3v4h3v3h4v-3h3v-4h-3v-3h-4zm2 13c-12.326 0-23.163-6.371-29.399-16H67.4C61.163 66.629 50.326 73 38 73z"/></svg>