<svg xmlns="http://www.w3.org/2000/svg" baseProfile="full" viewBox="0 0 76.00 76.00"><path fill-opacity=".404" d="M57 19v7h-7v-7h7zm-9 0v7h-7v-7h7zm-9 0v7h-7v-7h7zm18 9v7h-7v-7h7zm-9 0v7h-7v-7h7zm-9 0v7h-7v-7h7zm18 9v7h-7v-7h7zm-9 0v7h-7v-7h7zm-9 0v7h-7v-7h7z"/><path d="M23.65 56.202a2.724 2.724 0 1 1-3.852-3.853l7.874-7.874A11.446 11.446 0 0 1 26 38.5C26 32.149 31.149 27 37.5 27S49 32.149 49 38.5 43.851 50 37.5 50c-2.188 0-4.234-.611-5.975-1.672l-7.874 7.874zM37.5 31a7.5 7.5 0 1 0 0 15 7.5 7.5 0 0 0 0-15z"/></svg>