<svg xmlns="http://www.w3.org/2000/svg" baseProfile="full" viewBox="0 0 76.00 76.00"><path d="M43.153 57.495a2.672 2.672 0 0 1-5.344 0l-.792-8.64-2.897-5.117-.547 5.377a2.662 2.662 0 0 1-.403 1.041l-.37.862-4.738 7.42a2.672 2.672 0 0 1-4.466-2.934l4.738-7.42.01-.015 1.564-8.321-.115-.956V29.44a4.008 4.008 0 0 1 7.549-1.88l4.663 4.488 6.018 1.491a2.004 2.004 0 1 1-.964 3.89l-6.13-1.519a1.994 1.994 0 0 1-.931-.525 1.994 1.994 0 0 1-.792-.469l-1.397-1.344v5.22l-.082.812 4.201 6.927c.43.616.564 1.35.433 2.033l.792 8.93zM32.465 16.229a4.008 4.008 0 1 1 0 8.016 4.008 4.008 0 0 1 0-8.016zM52.82 36.05l5.1 9.392-5.871 3.187-5.1-9.392 5.871-3.187zm-1.945 13.217a2.672 2.672 0 0 1-3.623-1.074l-2.55-4.696a2.672 2.672 0 0 1 1.074-3.623l5.099 9.393zm3.12-13.855a2.672 2.672 0 0 1 3.622 1.074l2.55 4.696a2.672 2.672 0 0 1-1.074 3.623l-5.099-9.393z"/></svg>