<svg xmlns="http://www.w3.org/2000/svg" baseProfile="full" viewBox="0 0 76.00 76.00"><path d="M26 57h-7v-7h4a3 3 0 0 1 3 3v4zm-2.5-12a7.5 7.5 0 0 1 7.5 7.5l-.016.5h-2.006l.022-.5a5.5 5.5 0 0 0-5.5-5.5l-.5.022v-2.006l.5-.016zm20-26a3.5 3.5 0 1 1 0 7 3.5 3.5 0 0 1 0-7zm-6.75 36.22l1.715-8.066c.04-.186.346-1.107.556-1.357l5.209-6.208-1.477-6.847-1.237 2.653c-.363.708-.612 1.003-.967 1.154l-4.91 2.084a1.25 1.25 0 0 1-.977-2.301l4.564-1.937.024-.056 2.75-5.9c.25-1.439 1.674-2.189 3.375-2.189.933 0 2.249.651 2.323.691l6.788 3.625c.416.222.717 1.244.733 1.328l1.031 5.348a1.25 1.25 0 1 1-2.455.473l-1.006-5.222-3.756-2.005c.993 4.31 1.642 7.348 1.688 7.675l1.03 8.143L57 54.416a1.5 1.5 0 0 1-2.516 1.634l-5.03-7.745c-.145-.224-.625-1.241-.673-1.582l-.79-5.623-1.45.403-5.115 6.094-.027.18-1.715 8.068a1.5 1.5 0 0 1-2.934-.624zM24 40c6.627 0 12 5.373 12 12l-.041 1H33.95L34 52c0-5.523-4.477-10-10-10l-1 .05V40.04L24 40zm0-3l-1 .033v-2.004L24 35c2.782 0 5.409.668 7.727 1.853A2.99 2.99 0 0 0 31.5 38c0 .403.08.788.224 1.139A14.93 14.93 0 0 0 24 37zm14.84 6.7l-1.364 1.705a15.049 15.049 0 0 0-3.296-4.422l.32.017c.709 0 1.36-.246 1.874-.657A17.06 17.06 0 0 1 38.84 43.7z"/></svg>