<svg xmlns="http://www.w3.org/2000/svg" baseProfile="full" viewBox="0 0 76.00 76.00"><path d="M58.583 65.313v-28.6C42.521 39.397 33.25 49.56 33.25 61.75l-1.583 2.85v7.442l-7.917-1.98v-5.464C21.883 49.628 14.383 40.084 3.958 38l1.587-12.287c9.41-3.62 15.031-10.467 16.33-18.755l10.607-3.791C35.286 18.53 45.025 26.917 57 26.917l3.167 1.583H71.25l1.583 7.917H66.5v22.166l-7.917 6.73zM62.542 57v-1.583h-.792V57h.792zm0-4.75v-3.167h-.792v3.167h.792zm0-6.333v-1.584h-.792v1.584h.792zm0-4.75V38h-.792v3.167h.792zM23.75 28.5v-8.936c-1.52 2.411-7.094 7.484-11.126 8.936h10.334v7.917h-8.144c2.411 1.519 7.484 7.094 8.936 11.126V28.5zm16.879 0c-2.4-1.559-7.505-7.39-8.962-11.503v28.356c1.519-2.412 7.093-7.485 11.125-8.936H32.459v-3.959h.792v-.791h-.792V28.5h8.17zM7.917 32.458h3.166v-.791H7.917v.791zm6.333 0h1.583v-.791H14.25v.791zm4.75 0h3.167v-.791H19v.791zm17.417 0H38v-.791h-1.583v.791zm4.75 0h3.166v-.791h-3.166v.791zm6.333 0h1.583v-.791H47.5v.791zm4.75 0h3.167v-.791H52.25v.791zm6.333 0h1.584v-.791h-1.584v.791zm4.75 0H66.5v-.791h-3.167v.791zM27.708 66.5v-3.167h-.791V66.5h.791zm0-6.333v-1.584h-.791v1.584h.791zm0-4.75V52.25h-.791v3.167h.791zm0-6.334V47.5h-.791v1.583h.791zm0-4.75v-3.166h-.791v3.166h.791zm0-6.333v-1.583h-.791V38h.791zm0-11.083v-1.584h-.791v1.584h.791zm0-4.75V19h-.791v3.167h.791zm0-6.334V14.25h-.791v1.583h.791zm0-4.75V7.917h-.791v3.166h.791zm0 22.167v-3.167h-.791v3.167h.791z"/></svg>