<svg xmlns="http://www.w3.org/2000/svg" baseProfile="full" viewBox="0 0 76.00 76.00"><path fill-rule="evenodd" d="M27.708 22.75l11.084 3.167 9.5-6.334L62 23v29l-13.708-3.5-9.5 6.333-11.084-3.166L16 56.5v-29l11.708-4.75zm0 24.167l11.334 2.916 9.5-6.333L58 46.25V27l-9.708-2.667-9.5 6.584-11.084-3.167-7.708 3V50l7.708-3.083zM55.75 41h-2.719l-1.957-3.926h-.03c-.032.153-.11.386-1.993 3.926h-2.73l3.242-5-2.956-5h2.784l1.754 3.842h.03c.056-.195.16-.486 1.912-3.842h2.52l-2.993 4.958L55.75 41zM23.5 40a1.5 1.5 0 1 1 0 3 1.5 1.5 0 0 1 0-3zm2-5a1.5 1.5 0 1 1 0 3 1.5 1.5 0 0 1 0-3zm5-1a1.5 1.5 0 1 1 0 3 1.5 1.5 0 0 1 0-3zm3 4a1.5 1.5 0 1 1 0 3 1.5 1.5 0 0 1 0-3zm4 3a1.5 1.5 0 1 1 0 3 1.5 1.5 0 0 1 0-3zm7-6a1.5 1.5 0 1 1 0 3 1.5 1.5 0 0 1 0-3zm-4 2a1.5 1.5 0 1 1 0 3 1.5 1.5 0 0 1 0-3z"/></svg>