<svg xmlns="http://www.w3.org/2000/svg" baseProfile="full" viewBox="0 0 76.00 76.00"><path d="M44.333 59.375a2.375 2.375 0 0 0 2.375 2.375h16.625l-7.916 6.333H42.75a4.75 4.75 0 0 1-4.75-4.75V42.75H27.708a2.375 2.375 0 0 0-2.375 2.375c0 .263.043.515 0 25.333L19 66.896V45.125a2.375 2.375 0 0 0-2.375-2.375H3.167v-6.333h13.458A2.375 2.375 0 0 0 19 34.042V8.312l6.333-3.166v6.729a2.381 2.381 0 0 0 2.374 2.375h35.626l5.146 6.333H27.71a2.375 2.375 0 0 0-2.376 2.375v11.084a2.375 2.375 0 0 0 2.375 2.375h11.875a4.75 4.75 0 0 1 4.75 4.75v18.208z"/></svg>