<svg xmlns="http://www.w3.org/2000/svg" baseProfile="full" viewBox="0 0 76.00 76.00"><path d="M28.5 60L22 55.25V25h5l-.083-2.833a7.917 7.917 0 0 1 15.199-3.11C46.04 19.524 49 22.698 49 26.75V29l1.75 1H54v30H28.5zm-3.167-27.938l2.625-1.635V57.25l.542.542V30.083L33 30v-3h-9l1.333 5.063zM36 27v3h10v-1.25L44 27h-8zm7-2h2.5c-.477-1.35-1.15-2.023-2.5-2.5V25zm-12.917-2.833L30 25h3.25c.568-2.798 2.77-4.727 5.441-5.605a4.75 4.75 0 0 0-8.608 2.772zM39.75 25v-2.5c-1.35.477-2.273 1.15-2.75 2.5h2.75zm-4.525 12.29l-1.29 5.806s1.29-.645 3.87-.645c.997 0 1.898.48 2.776 1.072l1.843-6.352c-.816-.635-1.75-1.171-3.328-1.171-3.226 0-3.87 1.29-3.87 1.29zm11.611 1.935c-1.604 0-2.544-.554-3.37-1.203l-1.813 6.255c1.03.729 2.072 1.399 3.248 1.399 2.58 0 3.87-1.29 3.87-1.29l1.936-6.45s-.645 1.29-3.87 1.29zM33.29 45.031L32 50.836s1.29-.645 3.87-.645c.899 0 1.72.392 2.516.901l1.848-6.372c-.76-.547-1.657-.98-3.074-.98-3.225 0-3.87 1.29-3.87 1.29zm11.611 1.935c-1.769 0-2.73-.674-3.62-1.406l-1.82 6.274c1.115.797 2.231 1.583 3.505 1.583 2.58 0 3.87-1.29 3.87-1.29l1.936-6.451s-.645 1.29-3.87 1.29z"/></svg>