<svg xmlns="http://www.w3.org/2000/svg" baseProfile="full" viewBox="0 0 76.00 76.00"><path d="M49 57.25l-28-5.5v-21L49 25l6 2v28l-6 2.25zM27 35.5V40h6v-5.4l-6 .9zm6 11.65V41h-6v5.25l6 .9zm9-13.9l-8 1.2V40h8v-6.75zm0 15.25V41h-8v6.3l8 1.2zm-1-28.344c1.657-.466 4 .25 4 1.907v2.759l-2 .464v-1.692c0-1.105-.895-1.748-2-1.438l-1 .313v3.424l-2 .464V23.25c-1.105.311-2 .458-2 1.563v1.973l-2 .464v-2.906c0-1.657 2.343-2.628 4-3.094v-.474c0-1.105-.897-1.807-2.001-1.568l-3 .738c-1.105.239-2 1.328-2 2.432L31 27.822l-2 .464v-6.442c-.001-1.657 1.342-3.29 2.999-3.648l5-.988c1.657-.358 3 .695 3 2.352v.909L41 20.156z"/></svg>