<svg xmlns="http://www.w3.org/2000/svg" baseProfile="full" viewBox="0 0 76.00 76.00"><path d="M41.619 20.81h-5.88l-2.037 7.69-6.245-4.079a17.282 17.282 0 0 0-3.993 4.398L38 38l14.536-9.18a17.284 17.284 0 0 0-3.993-4.399L42.298 28.5l-2.489-5.38 2.965.25-1.155-2.56zM25.13 31.68l-2.427-1.533A17.117 17.117 0 0 0 20.81 38l.079 1.658 4.241-7.977zm1.534.97l-5.252 9.877c.35 1.284.844 2.508 1.465 3.653l6.338-11.92-2.55-1.61zm4.085 2.58l-6.765 12.724c.694.976 1.489 1.877 2.368 2.688l7.24-13.617-2.843-1.796zm4.377 2.764L27.775 51.82A17.113 17.113 0 0 0 38 55.19c3.83 0 7.367-1.252 10.225-3.37l-7.351-13.825L38 39.81l-2.874-1.816zm7.282-.97l7.24 13.617c.88-.81 1.674-1.71 2.368-2.687L45.252 35.23l-2.843 1.796zm4.377-2.764l6.338 11.92a17.08 17.08 0 0 0 1.465-3.653l-5.252-9.878-2.551 1.611zm4.085-2.58l4.242 7.977L55.19 38c0-2.829-.683-5.498-1.893-7.852l-2.427 1.533zM38 18c11.046 0 20 8.954 20 20s-8.954 20-20 20-20-8.954-20-20 8.954-20 20-20z"/></svg>