<svg xmlns="http://www.w3.org/2000/svg" baseProfile="full" viewBox="0 0 76.00 76.00"><path d="M42 50l5-5v5h-5zm5-31v7.355c4.794 2.887 8 8.141 8 14.145C55 49.613 47.613 57 38.5 57c-2.589 0-5.039-.596-7.22-1.659l1.279-2.715C34.35 53.506 36.367 54 38.5 54 45.956 54 52 47.956 52 40.5c0-4.234-1.95-8.014-5-10.489V42l-5-5v-9l-6 13h6v-2.5l5 5-5 5V46h-8l-5 11h-6l14.995-29.99C30.773 27.274 25 33.212 25 40.5c0 2.17.512 4.222 1.423 6.04l-1.543 3.277A16.423 16.423 0 0 1 22 40.5C22 31.387 29.387 24 38.5 24l.986.029L42 19h5z"/></svg>