<svg xmlns="http://www.w3.org/2000/svg" baseProfile="full" viewBox="0 0 76.00 76.00"><path d="M42 19h-6.5l-2.25 8.5-6.903-4.508a19.101 19.101 0 0 0-4.413 4.86L38 38l16.066-10.147a19.104 19.104 0 0 0-4.413-4.861L42.75 27.5 40 21.25c1 0 3 .5 3 .5-1-2.5-1-2.75-1-2.75zM23.775 31.016l-2.682-1.694A18.919 18.919 0 0 0 19 38c0 .618.03 1.23.087 1.833l4.688-8.817zm1.696 1.07l-5.805 10.919a18.88 18.88 0 0 0 1.62 4.037l7.004-13.174-2.82-1.781zm4.515 2.853l-7.478 14.064a19.104 19.104 0 0 0 2.618 2.97l8.002-15.05-3.142-1.984zm4.838 3.055l-8.125 15.281A18.915 18.915 0 0 0 38 57c4.233 0 8.143-1.384 11.301-3.725l-8.125-15.281L38 40l-3.176-2.006zm8.048-1.071l8.002 15.05a19.104 19.104 0 0 0 2.618-2.97l-7.478-14.064-3.142 1.984zm4.838-3.055l7.005 13.174a18.875 18.875 0 0 0 1.619-4.038l-5.805-10.917-2.82 1.78zm4.515-2.852l4.688 8.817C56.97 39.23 57 38.618 57 38c0-3.127-.755-6.077-2.093-8.678l-2.682 1.694z"/></svg>