<svg xmlns="http://www.w3.org/2000/svg" baseProfile="full" viewBox="0 0 76.00 76.00"><path d="M19 47.5h3.167v4.75h31.666V47.5H57v7.917H19V47.5zm12.627-4.769h-4.396v-14.15h4.396v14.15zM29.591 22.08c.72.014 1.284.224 1.69.632.407.408.621.93.642 1.566-.007.623-.22 1.141-.638 1.555-.418.413-1.002.627-1.752.643-.708-.016-1.267-.23-1.676-.643-.409-.414-.618-.932-.626-1.555.009-.636.224-1.158.644-1.566.421-.408.993-.619 1.716-.632zm5.62 20.651v-9.635l-.118-4.514h3.82l.202 1.959h.087c.29-.494.805-.984 1.546-1.47.74-.486 1.72-.748 2.94-.785 1.486-.007 2.697.485 3.633 1.475.936.99 1.419 2.52 1.448 4.588v8.383h-4.396V34.87c.007-.928-.17-1.669-.532-2.223-.362-.554-.95-.838-1.762-.852-.623.018-1.126.192-1.508.522a2.82 2.82 0 0 0-.815 1.131c-.11.31-.159.677-.149 1.102v8.18h-4.396z"/></svg>