<svg xmlns="http://www.w3.org/2000/svg" baseProfile="full" viewBox="0 0 76.00 76.00"><path d="M19 47.5h3.167v4.75h31.666V47.5H57v7.917H19V47.5zm8.153-4.769v-9.635l-.118-4.514h3.813l.177 1.93h.089c.303-.492.813-.977 1.53-1.455.717-.478 1.7-.735 2.95-.77.96.008 1.782.226 2.467.652a3.77 3.77 0 0 1 1.505 1.744h.06c.556-.742 1.17-1.312 1.846-1.712.75-.442 1.63-.67 2.636-.685 1.41-.01 2.564.48 3.463 1.47.9.99 1.364 2.538 1.394 4.644v8.331h-4.374v-7.695c.002-1.034-.165-1.83-.5-2.39-.335-.56-.85-.843-1.542-.85-.511.011-.935.162-1.272.452-.338.29-.585.65-.741 1.081l-.142 1.128v8.274H36.02v-7.955c.003-.897-.17-1.614-.52-2.152s-.895-.814-1.636-.828c-.59.022-1.063.195-1.418.52-.356.326-.601.673-.736 1.042a2.847 2.847 0 0 0-.183 1.128v8.245h-4.374z"/></svg>