<svg xmlns="http://www.w3.org/2000/svg" baseProfile="full" viewBox="0 0 76.00 76.00"><path d="M41.958 32.795l9.96-6.468a7.125 7.125 0 1 1 7.76 11.951l-9.959 6.468-7.76-11.951zm-7.916 0l-7.761 11.95-9.96-6.467a7.125 7.125 0 0 1 7.761-11.95l9.96 6.467zm10.291 11.538a1.583 1.583 0 1 1 0 3.167 1.583 1.583 0 0 1 0-3.167zM38 41.167a1.583 1.583 0 1 1 0 3.166 1.583 1.583 0 0 1 0-3.166zm-4.75 4.75a1.583 1.583 0 1 1 0 3.166 1.583 1.583 0 0 1 0-3.166zm1.583 6.333a1.583 1.583 0 1 1 0 3.167 1.583 1.583 0 0 1 0-3.167zM28.5 53.833a1.583 1.583 0 1 1 0 3.167 1.583 1.583 0 0 1 0-3.167zm19 0a1.583 1.583 0 1 1 0 3.167 1.583 1.583 0 0 1 0-3.167zm-6.333-4.75a1.583 1.583 0 1 1 0 3.167 1.583 1.583 0 0 1 0-3.167z"/></svg>