<svg xmlns="http://www.w3.org/2000/svg" baseProfile="full" viewBox="0 0 76.00 76.00"><path d="M33 51l3.417 10.75L24 51h-5V22h38v29H33zm11.724-5.64a16.077 16.077 0 0 0 1.523-2.034l1.304-2.352.902-2.34c.227-.763.34-1.437.34-2.022 0-.585-.113-1.259-.34-2.022l-.902-2.352-1.304-2.353-1.523-2.022H42.69c1.072 1.234 1.883 2.562 2.432 3.984.549 1.422.823 3.01.823 4.765 0 1.742-.274 3.323-.823 4.743-.55 1.42-1.36 2.756-2.432 4.006h2.034zm-8.703-10.527a1.583 1.583 0 1 0 0 3.167h3.166c.875 0 2.376-.709 2.376-1.583 0-.875-1.501-1.584-2.376-1.584h-3.166zm-6.73-4.75c-.874 0-1.583.71-1.583 1.584 0 .874.71 1.187 1.584 1.187h1.583c.874 0 1.583-.313 1.583-1.187 0-.875-.709-1.584-1.583-1.584h-1.583zm0 9.896c-.874 0-1.583.313-1.583 1.188 0 .874.71 1.583 1.584 1.583h1.583c.874 0 1.583-.709 1.583-1.583 0-.875-.709-1.188-1.583-1.188h-1.583z"/></svg>