<svg xmlns="http://www.w3.org/2000/svg" baseProfile="full" viewBox="0 0 76.00 76.00"><path d="M15.833 17.417h44.334v3.166H37.604l-4.75 6.334-4.75-6.334-4.75 6.334-4.75-6.334h-2.77v-3.166zm44.334 9.5v3.166h-2.375l-4.75 6.334-4.75-6.334-4.75 6.334-4.75-6.334H15.833v-3.166h26.521l4.75-6.334 4.75 6.334h8.313zm-7.125 9.5h7.125v3.166H38l-4.75 6.334-4.75-6.334-4.75 6.334L19 39.583h-3.167v-3.166h7.917l4.75-6.334 4.75 6.334h19.792zM47.5 39.583l4.75 6.334h7.917v3.166h-3.959l-4.75 6.334-4.75-6.334H30.875l-4.75 6.334-4.75-6.334h-5.542v-3.166H42.75l4.75-6.334zm3.958 15.834h8.709v3.166H15.833v-3.166h18.208l4.75-6.334 4.75 6.334h7.917z"/></svg>