<svg xmlns="http://www.w3.org/2000/svg" baseProfile="full" viewBox="0 0 76.00 76.00"><path fill-opacity=".604" d="M38 44l5-2v-5.5l-5 2-5-2V42l5 2z"/><path d="M43 36.5V35l-5-3-5 3v1.5l5 2 5-2z"/><path fill-opacity=".404" d="M19 38l13.278-5.59A7.974 7.974 0 0 0 30 38H19z"/><path fill-opacity=".702" d="M38 19v11a7.974 7.974 0 0 0-5.59 2.278L38 19z"/><path fill-opacity=".404" d="M38 19l5.59 13.278A7.974 7.974 0 0 0 38 30V19z"/><path fill-opacity=".702" d="M19 38h11c0 2.176.869 4.148 2.278 5.59L19 38z"/><path fill-opacity=".404" d="M38 57l-5.59-13.278A7.974 7.974 0 0 0 38 46v11z"/><path fill-opacity=".702" d="M38 57V46a7.974 7.974 0 0 0 5.59-2.278L38 57z"/><path fill-opacity=".404" d="M57 38l-13.278 5.59A7.974 7.974 0 0 0 46 38h11z"/><path fill-opacity=".702" d="M57 38H46a7.974 7.974 0 0 0-2.278-5.59L57 38z"/></svg>