<svg xmlns="http://www.w3.org/2000/svg" baseProfile="full" viewBox="0 0 76.00 76.00"><path d="M16.4 47.981l1.66-1.187 7.444 12.496 30.852-18.604 1.661 1.979L25.504 62.06 16.4 47.98zm.626-6.776l1.265-.791 7.444 12.892 30.852-18.209 1.265 2.375-32.117 19-8.709-15.267zm-.401-7.163l32.909-19 9.5 16.454-32.909 19-9.5-16.454zM38 25.333a7.125 7.125 0 1 0 0 14.25 7.125 7.125 0 0 0 0-14.25zm3.278 11.625l-1.083.625-.596-1.03-1.138.443-.952.14-.418-1.466.991-.119 1.075-.422c.324-.19.559-.406.704-.649.145-.243.158-.476.04-.699-.12-.207-.33-.325-.628-.354l-1.181.11c-.696.145-1.308.16-1.837.044-.53-.116-.952-.437-1.267-.963-.287-.501-.37-1.017-.251-1.547.118-.53.448-1.028.987-1.494l-.601-1.041 1.075-.62.557.963.997-.41.792-.14.399 1.428-.733.097-1.121.454c-.347.21-.555.418-.624.627-.069.208-.054.392.045.552.096.176.293.274.59.294l1.32-.137c.782-.148 1.412-.138 1.887.03.475.17.853.505 1.136 1.01.29.502.375 1.03.256 1.585-.12.556-.475 1.079-1.067 1.57l.646 1.119z"/></svg>