<svg xmlns="http://www.w3.org/2000/svg" baseProfile="full" viewBox="0 0 75.99 75.99"><path d="M41.161 61.029c-13.115 0-23.747-10.632-23.747-23.747 0-11.114 7.636-20.446 17.948-23.034a23.671 23.671 0 0 0-6.866 16.701c0 13.116 10.632 23.747 23.747 23.747 2.001 0 3.944-.247 5.8-.713a23.674 23.674 0 0 1-16.882 7.046zm8.777-11.952h-6.65v-.889l3.736-4.874h-3.292v-1.626h6.206v1.07l-3.54 4.694h3.54v1.625zm6.296-9.499h-8.55v-1.143l4.803-6.267h-4.233v-2.09h7.98v1.375l-4.551 6.035h4.551v2.09zm-5.973-11.082H39.81V27.1l5.87-7.66h-5.174v-2.555h9.754v1.68l-5.563 7.377h5.563v2.554z"/></svg>