<svg xmlns="http://www.w3.org/2000/svg" baseProfile="full" viewBox="0 0 76.00 76.00"><path d="M50.448 16.198a3.167 3.167 0 0 1 3.798 2.373l1.78 7.714L19 34.833l-1.781-7.713a3.167 3.167 0 0 1 2.373-3.798l30.856-7.124zm3.386 39.219H22.166A3.167 3.167 0 0 1 19 52.25V34.833h38V52.25a3.167 3.167 0 0 1-3.166 3.167zM47.5 58.583a3.167 3.167 0 1 1 0 6.334 3.167 3.167 0 0 1 0-6.334zm-9.5 0a3.167 3.167 0 1 1 0 6.334 3.167 3.167 0 0 1 0-6.334zm-9.5 0a3.167 3.167 0 1 1 0 6.334 3.167 3.167 0 0 1 0-6.334z"/></svg>