<svg xmlns="http://www.w3.org/2000/svg" baseProfile="full" viewBox="0 0 76.00 76.00"><path d="M50.448 17.781a3.167 3.167 0 0 1 3.798 2.373l1.78 7.714L19 36.417l-1.781-7.714a3.167 3.167 0 0 1 2.373-3.798l30.856-7.124zM19.474 31.432l.713 3.086 5.932-9.495-3.085.712-3.56 5.697zm5.34 2.017l3.086-.712 5.933-9.495-3.085.712-5.933 9.495zm7.715-1.78l3.085-.713 5.933-9.495-3.085.713-5.933 9.494zm7.713-1.782l3.086-.712 5.933-9.495-3.086.713-5.932 9.494zm7.714-1.78l3.086-.713 2.373-3.798-.712-3.085-4.747 7.595zM53.834 57H22.166A3.167 3.167 0 0 1 19 53.833V36.417h38v17.416A3.167 3.167 0 0 1 53.834 57zm-23.75-19l-6.334 6.333h3.167L33.25 38h-3.167zM38 38l-6.333 6.333h3.166L41.167 38H38zm7.917 0l-6.334 6.333h3.167L49.083 38h-3.166zm7.916 0L47.5 44.333h3.167l4.741-4.741.009-1.592h-1.584zm-31.666 0l-1.584 1.583v3.167l4.75-4.75h-3.166z"/></svg>