<svg xmlns="http://www.w3.org/2000/svg" baseProfile="full" viewBox="0 0 76.00 76.00"><path d="M37 19h1c10.493 0 19 8.507 19 19v1a1 1 0 1 1-2 0v-1c0-9.389-7.611-17-17-17h-1a1 1 0 1 1 0-2zM23.19 51.143l.81.107V37l15-3v17c0 1.578-1.706 2.857-3.81 2.857-2.103 0-3.81-1.279-3.81-2.857 0-1.578 1.707-2.857 3.81-2.857l.953.09L36 37.5l-9 1.75V54c0 1.578-1.706 2.857-3.81 2.857S19.38 55.578 19.38 54c0-1.578 1.707-2.857 3.81-2.857zM38 24c7.732 0 14 6.268 14 14v1a1 1 0 1 1-2 0v-1c0-6.627-5.373-12-12-12h-1a1 1 0 1 1 0-2h1zm0 5a9 9 0 0 1 9 9v1a1 1 0 1 1-2 0v-1a7 7 0 0 0-7-7h-1a1 1 0 1 1 0-2h1z"/></svg>