<svg xmlns="http://www.w3.org/2000/svg" baseProfile="full" viewBox="0 0 76.00 76.00"><path d="M28.487 31.667h1.584v1.583h-1.584v-1.583zm.013 7.916h1.583v1.584H28.5v-1.584zm4.75-6.333h1.583v1.583H33.25V33.25zm-1.55 7.917h1.583v1.583H31.7v-1.583zm-1.617-4.75h1.584V38h-1.584v-1.583zm4.75-6.334h1.584v1.584h-1.584v-1.584zm9.5 10.292c.875 0 1.584.75 1.584 1.188 0 .437-.71.791-1.584.791-.874 0-1.583-.354-1.583-.791 0-.438.709-1.188 1.583-1.188zm9.5 0c.875 0 1.584.75 1.584 1.188 0 .437-.71.791-1.584.791-.874 0-1.583-.354-1.583-.791 0-.438.709-1.188 1.583-1.188zM41.167 30.48l5.145 5.542H47.5v-4.354a3.167 3.167 0 0 0-3.167-3.167h-14.25a3.167 3.167 0 0 0-3.166 3.167v8.708c0 1.749 1.417 3.958 3.166 3.958h6.447c-1.327-4.07 1.655-8.884 4.637-13.854zm9.104 5.542l.396-.426V28.5a3.167 3.167 0 0 0-3.167-3.167H26.917A3.167 3.167 0 0 0 23.75 28.5v15.833a3.167 3.167 0 0 0 3.167 3.167H38.68a8.294 8.294 0 0 1-1.382-1.583h-8.006c-1.75 0-3.959-3.001-3.959-4.75V30.875c0-1.749 2.21-3.958 3.959-3.958h15.833c1.749 0 3.958 2.21 3.958 3.958v5.146h1.188zm5.146-5.542s13.629 14.765-3.543 19.858c.477 1.026.693 2.309-1.207 2.309-.85 0-1.113-1.028-1.173-1.98h-3.93c.415.952.47 1.98-1.23 1.98-1.017 0-1.279-1.467-1.336-2.518l-2.096-1.045h-9.947c.63 1.382 1.07 3.167-.872 3.167-.97 0-1.346-1.785-1.491-3.167h-1.674c-.284 1.245-1.398 2.771-5.147 2.771-1.114 0 1.102-2.155 2.514-3.432-1.156-.788-2.118-2.143-2.118-3.297v-2.65c-9.34-1.936-7.837-7.722-6.334-9.225 1.077-1.077 4.349 1.507 6.334 3.27v-8.812c0-1.748 2.21-3.958 3.958-3.958h22.167c1.748 0 3.958 2.21 3.958 3.958v6.181l3.167-3.41zm-14.25 2.771c-4.75 6.333-3.167 15.833 4.75 15.833h4.75c14.25-3.166 4.75-15.833 4.75-15.833L50.667 38h-4.75l-4.75-4.75zm8.312 7.917a.792.792 0 1 1 0 1.583.792.792 0 0 1 0-1.583zm-6.729 3.166h1.583c0 1.584 2.375 3.167 2.375 0 1.584 0 1.584-.742 1.584-.742s0 .742 1.583.742c0 3.167 2.375 1.683 2.375.05l1.583-.05s0 3.167-3.166 3.167c-1.584 0-2.375-1.583-2.375-1.583S47.5 47.5 45.917 47.5c-3.167 0-3.167-3.167-3.167-3.167zm1.583-14.25h1.584v1.584h-1.584v-1.584zm-27.312 5.542c-1.447 1.447 1.074 3.887 5.146 5.505v-2.52c-1.515-1.648-4.067-4.065-5.146-2.985z"/></svg>