<svg xmlns="http://www.w3.org/2000/svg" baseProfile="full" viewBox="0 0 76.00 76.00"><path d="M55 29v21H42v-2h10v-2H42v-2h10v-2H42v-1.416A5 5 0 0 0 49 36h-5v-5c-.711 0-1.387.148-2 .416V29h13zm-10 6h5a5 5 0 0 0-5-5v5zm-3-8h15v18h-1V28H42v-1zm-23-3.5L41 20v36l-22-3.5v-29zm10.24 16.748l1.103.025c1.281-.073 2.774-.6 3.462-1.685.948-1.496.942-4.073-.332-5.304-1.575-1.52-4.351-.743-6.537-.627l.004 11.505 1.157.07 1.158.072-.015-4.056zm.003-5.678l.91-.031c.462.139 1.04.08 1.385.417.768.75.435 2.823-.582 3.17-.258.087-.537.097-.808.115l-.91-.002.005-3.67z"/></svg>