<svg xmlns="http://www.w3.org/2000/svg" baseProfile="full" viewBox="0 0 76.00 76.00"><path d="M19 23.5L41 20v36l-22-3.5v-29zm9.99 16.457l1.102.021c1.282-.076 2.774-.605 3.462-1.69.947-1.491.944-4.066-.33-5.29-1.578-1.516-4.352-.73-6.537-.606l.001 11.475 1.158.068 1.157.068-.013-4.046zm.004-5.665l.91-.033c.462.137 1.04.076 1.385.412.769.747.431 2.816-.583 3.163-.258.088-.537.1-.808.118h-.91l.006-3.66zM57 24v28H42v-7.05l3.5 3.5 4.95-4.95-4.95-4.95-3.5 3.5V31h8v6h-3l4 4 4-4h-3v-8H42v-5h15z"/></svg>