<svg xmlns="http://www.w3.org/2000/svg" baseProfile="full" viewBox="0 0 76.00 76.00"><path d="M42 24h15v28H42v-2h5v-4h-5v-1h5v-4h-5v-1h5v-4h-5v-1h5v-4h-5v-1h5v-4h-5v-2zm13 26v-4h-7v4h7zm0-9h-7v4h7v-4zm0-5h-7v4h7v-4zm0-5h-7v4h7v-4zm0-5h-7v4h7v-4zm-36-2.25l22-4v36.5l-22-4v-28.5zm15.64 20.765l-3.303-7.107 3.215-6.938-2.612.11-1.717 4.116-.207.694-.129.5h-.027c-.403-1.765-1.112-3.446-1.728-5.148l-2.852.12 2.975 6.602-3.258 6.598 2.793.131 1.74-4.317.228-.946h.03c.444 1.894 1.336 3.654 2.073 5.454l2.78.13z"/></svg>