<svg xmlns="http://www.w3.org/2000/svg" baseProfile="full" viewBox="0 0 76.00 76.00"><path d="M45.5 25c6.351 0 11.5 1.343 11.5 3s-5.149 3-11.5 3c-1.22 0-2.396-.05-3.5-.142v-5.717A42.357 42.357 0 0 1 45.5 25zm0 7C51.85 32 57 30.657 57 29v5c0 1.657-5.149 3-11.5 3-1.22 0-2.397-.05-3.5-.141v-5c1.103.091 2.28.141 3.5.141zm0 6C51.85 38 57 36.657 57 35v5c0 1.657-5.149 3-11.5 3-1.22 0-2.397-.05-3.5-.141v-5c1.103.091 2.28.141 3.5.141zm0 6C51.85 44 57 42.657 57 41v5c0 1.657-5.149 3-11.5 3-1.22 0-2.397-.05-3.5-.141v-5c1.103.091 2.28.141 3.5.141zM19 23.5L41 20v36l-22-3.5v-29zm16.48 21.188l-3.662-12.291-1.372.073-1.372.073-3.741 11.52 1.255.077 1.255.077.357-1.273.358-1.283 3.653.131.371 1.365.374 1.375 1.262.078 1.262.078zm-3.805-5l-1.314-.02-1.315-.021 1.12-4.009.182-1.04.057-.001c.274 1.728.81 3.404 1.27 5.092z"/></svg>