<svg xmlns="http://www.w3.org/2000/svg" baseProfile="full" viewBox="0 0 76.00 76.00"><linearGradient x1=".854" x2="1.854" y1=".854" y2=".854" gradientUnits="objectBoundingBox" gradientTransform="rotate(225 .854 .854)"><stop offset="0" stop-opacity="0"/><stop offset="1"/></linearGradient><path d="M19 19h6.333v6.333h6.334V19H38v6.333h6.333V19h6.334v6.333H57v6.334h-6.333V38H57v6.333h-6.333v6.334H57V57h-6.333v-6.333h-6.334V57H38v-6.333h-6.333V57h-6.334v-6.333H19v-6.334h6.333V38H19v-6.333h6.333v-6.334H19V19zm31.667 19h-6.334v6.333h6.334V38zm0-12.667h-6.334v6.334h6.334v-6.334zm-6.334 19H38v6.334h6.333v-6.334zm-6.333 0V38h-6.333v6.333H38zm-6.333 0h-6.334v6.334h6.334v-6.334zm12.666-12.666H38V38h6.333v-6.333zm-6.333 0v-6.334h-6.333v6.334H38zm-6.333 0h-6.334V38h6.334v-6.333z"/></svg>