<svg xmlns="http://www.w3.org/2000/svg" baseProfile="full" viewBox="0 0 76.00 76.00"><path d="M22.958 31.667a2.375 2.375 0 0 1 2.375 2.375v9.5a2.375 2.375 0 0 1-4.75 0v-9.5a2.375 2.375 0 0 1 2.375-2.375zm30.084 0a2.375 2.375 0 0 1 2.375 2.375v9.5a2.375 2.375 0 0 1-4.75 0v-9.5a2.375 2.375 0 0 1 2.375-2.375zm-26.125 0h22.166v16.625a2.375 2.375 0 0 1-2.375 2.375h-2.375v4.75a2.375 2.375 0 1 1-4.75 0v-4.75h-3.166v4.75a2.375 2.375 0 1 1-4.75 0v-4.75h-2.375a2.375 2.375 0 0 1-2.375-2.375V31.667zM29.687 19c.31-.31.81-.31 1.12 0l2.595 2.595c1.476-.647 3.062-1.012 4.598-1.012 1.55 0 3.15.371 4.637 1.03L45.249 19a.792.792 0 0 1 1.12 1.12l-2.26 2.26c2.843 1.726 4.974 4.533 4.974 7.703H26.917c0-3.183 2.148-6 5.01-7.724l-2.24-2.24a.792.792 0 0 1 0-1.119zm4.355 5.542a1.583 1.583 0 1 0 0 3.166 1.583 1.583 0 0 0 0-3.166zm7.916 0a1.583 1.583 0 1 0 0 3.166 1.583 1.583 0 0 0 0-3.166z"/></svg>