<svg xmlns="http://www.w3.org/2000/svg" baseProfile="full" viewBox="0 0 76.00 76.00"><path d="M23.75 34.833c2.186 0 4.75 1.773 4.75 3.959s-2.564 3.958-4.75 3.958h-7.917l1.584-7.917h6.333zm1.583-12.666c2.186 0 4.75 1.772 4.75 3.958s-2.564 3.958-4.75 3.958h-7.916L19 22.167h6.333zm15.834 0c2.186 0 4.75 1.772 4.75 3.958s-2.564 3.958-4.75 3.958h-8.313l1.584-7.916h6.729zm-1.584 12.666c2.186 0 4.75 1.773 4.75 3.959s-2.564 3.958-4.75 3.958h-8.312l1.583-7.917h6.73zM36.417 47.5c2.186 0 4.75 1.772 4.75 3.958 0 2.187-2.564 3.959-4.75 3.959H28.5l1.583-7.917h6.334zm17.416-4.75c2.187 0 4.75 1.772 4.75 3.958s-2.563 3.959-4.75 3.959h-7.916L47.5 42.75h6.333zM57 30.083c2.186 0 4.75 1.773 4.75 3.959S59.186 38 57 38h-7.917l1.584-7.917H57z"/></svg>