<svg xmlns="http://www.w3.org/2000/svg" baseProfile="full" viewBox="0 0 76.00 76.00"><path d="M37 47s-3.25 3 1.75 5c3.828 1.531 2.632-3.504 3.5-4C44 47 48 46 49 48s-4.5 11-11.5 9-14.197-10.483-12.25-16.5C28 32 48.583 28.003 48.25 36 48 42 41 43 37 47zm6.25-22C47 15 58 18 52 26s-10.221 2.924-8.75-1zm-7.931 1.526c-1.602-6.702 5.364-9.066 5.041-2.622-.323 6.444-4.413 5.252-5.041 2.622zm-6.38 2.818c-2.72-5.02 2.349-8.407 3.472-3.18 1.124 5.228-2.405 5.15-3.473 3.18zm-4.443 4.412c-3.755-3.697-.195-8.053 2.207-3.743 2.402 4.31-.734 5.194-2.207 3.743z"/></svg>