<svg xmlns="http://www.w3.org/2000/svg" baseProfile="full" viewBox="0 0 76.00 76.00"><path d="M57 19H8.601a34.916 34.916 0 0 0-2.689 5H9v5H4.168c-.088.331-.171.665-.25 1H9v5H3.127a35.29 35.29 0 0 0-.07 1H9v5H3.127c.028.335.061.668.1 1H9v5H4.168c.18.675.378 1.342.596 2H9v5H6.863c.173.337.352.67.536 1H9v2.602c.322.476.656.943 1 1.401V55h5v5h-4.223c.274.339.554.672.84 1H15v3.382c.328.287.661.567 1 .84V61h5v5h-4.003c.458.344.925.678 1.4 1H21v1.601c.33.184.663.363 1 .536V67h5v4.237c.658.217 1.325.416 2 .595V67h5v5.774c.332.038.665.07 1 .1V67h5v5.944c.335-.019.668-.043 1-.07V67h5v5.082a34.93 34.93 0 0 0 1-.25V67h5v3.088a34.912 34.912 0 0 0 5-2.69V19zm-5 42v5h-5v-5h5zm-6 0v5h-5v-5h5zm-6 0v5h-5v-5h5zm-6 0v5h-5v-5h5zm-7 0v5h-5v-5h5zm25-6v5h-5v-5h5zm-6 0v5h-5v-5h5zm-6 0v5h-5v-5h5zm-6 0v5h-5v-5h5zm-7 0v5h-5v-5h5zm-6 0v5h-5v-5h5zm31-6v5h-5v-5h5zm-6 0v5h-5v-5h5zm-6 0v5h-5v-5h5zm-6 0v5h-5v-5h5zm-7 0v5h-5v-5h5zm-6 0v5h-5v-5h5zm-6 0v5h-5v-5h5zm37-7v5h-5v-5h5zm-6 0v5h-5v-5h5zm-6 0v5h-5v-5h5zm-6 0v5h-5v-5h5zm-7 0v5h-5v-5h5zm-6 0v5h-5v-5h5zm-6 0v5h-5v-5h5zm37-6v5h-5v-5h5zm-6 0v5h-5v-5h5zm-6 0v5h-5v-5h5zm-6 0v5h-5v-5h5zm-7 0v5h-5v-5h5zm-6 0v5h-5v-5h5zm-6 0v5h-5v-5h5zm37-6v5h-5v-5h5zm-6 0v5h-5v-5h5zm-6 0v5h-5v-5h5zm-6 0v5h-5v-5h5zm-7 0v5h-5v-5h5zm-6 0v5h-5v-5h5zm-6 0v5h-5v-5h5zm37-6v5h-5v-5h5zm-6 0v5h-5v-5h5zm-6 0v5h-5v-5h5zm-6 0v5h-5v-5h5zm-7 0v5h-5v-5h5zm-6 0v5h-5v-5h5zm-6 0v5h-5v-5h5z"/></svg>