<svg xmlns="http://www.w3.org/2000/svg" baseProfile="full" viewBox="0 0 76.00 76.00"><path d="M20 17h24l12 12v16.151c1.856 1.894 3 4.488 3 7.349C59 58.299 54.299 63 48.5 63a10.481 10.481 0 0 1-8.247-4H20V17zm4 4v34h14.3a10.53 10.53 0 0 1-.3-2.5C38 46.701 42.701 42 48.5 42c1.227 0 2.405.21 3.5.597V34H39V21H24zm19 0v9h9l-9-9zm2.483 36.71c.734.323 1.64.485 2.718.485 1.328 0 2.38-.358 3.156-1.074.776-.716 1.164-1.639 1.164-2.769 0-1.021-.326-1.834-.976-2.438-.651-.604-1.552-.907-2.702-.907l-1.04.048.155-2.242h4.048v-2.016h-5.93l-.42 6.25 2-.132c1.566 0 2.35.554 2.35 1.663 0 .531-.184.952-.55 1.262-.367.31-.876.465-1.528.465-.865 0-1.68-.234-2.445-.703v2.108z"/></svg>