<svg xmlns="http://www.w3.org/2000/svg" baseProfile="full" viewBox="0 0 76.00 76.00"><path d="M20 17h5v4h-1v1h-4v-5zm23.25 0l3.168 3.168-2.75 2.75L43 22.25V22h-4v-5h4.25zM56 29.75V34h-5v-4h-.25l-.668-.668 2.75-2.75L56 29.75zm-10.918-5.418l2.75-2.75 3.586 3.586-2.75 2.75-3.586-3.586zM43 28h-4v-4h4v4zm2 6v-4h4v4h-4zm11 12h-4v-4h4v4zm-4-10h4v4h-4v-4zM33 21v-4h4v4h-4zm23 38h-5v-4h1v-1h4v5zm-11 0v-4h4v4h-4zm-6 0v-4h4v4h-4zm13-11h4v4h-4v-4zm-9-18v4h-4v-4h4zM33 59v-4h4v4h-4zm-6 0v-4h4v4h-4zm-7 0v-5h4v1h1v4h-5zm0-11h4v4h-4v-4zm0-6h4v4h-4v-4zm0-6h4v4h-4v-4zm0-6h4v4h-4v-4zm0-6h4v4h-4v-4zm7-3v-4h4v4h-4z"/></svg>