<svg xmlns="http://www.w3.org/2000/svg" baseProfile="full" viewBox="0 0 76.00 76.00"><path d="M19 17.417h22.958l11.875 11.875v20.062A4.752 4.752 0 0 1 57 53.834v4.75a4.75 4.75 0 0 1-4.75 4.75H28.5a4.75 4.75 0 0 1-4.75-4.75H19V17.416zM50.667 33.25H38V20.583H22.167v34.834h1.583v-1.584a4.75 4.75 0 0 1 4.75-4.75h22.167V33.25zm-9.5-11.875v8.708h8.708l-8.708-8.708zM28.5 60.167h1.583v-1.584h3.167V57h1.583v-3.167H33.25V52.25H28.5v7.917zM33.25 57h-3.167v-3.167h3.167V57zm19 3.167v-4.75h-3.167V57h1.584v1.583H47.5v-4.75h4.75V52.25H47.5v1.583h-1.583v4.75H47.5v1.584h4.75zM42.75 57h-1.583v-1.583h-1.584v-1.584H38V52.25h-1.583v7.917H38v-4.75h1.583V57h1.584v1.583h1.583v1.584h1.583V52.25H42.75V57z"/></svg>