<svg xmlns="http://www.w3.org/2000/svg" baseProfile="full" viewBox="0 0 76.00 76.00"><path d="M31.667 20.583h-6.334C28.5 17.417 38 19 38 19c6.333-4.75 9.5-1.583 9.5-1.583-1.583 0-4.75 1.583-4.75 1.583C55.417 19 57 22.167 57 22.167c-7.917-1.584-14.25 0-14.25 0 9.5 4.75 11.083 11.083 11.083 11.083-7.916-7.917-14.25-7.917-14.25-7.917-3.166 6.334-3.166 14.25-3.166 14.25-3.167-3.166-1.584-12.666-1.584-12.666-3.166 0-11.083 6.333-11.083 6.333 0-4.75 7.917-9.5 7.917-9.5C22.167 25.333 19 28.5 19 28.5c3.167-6.333 12.667-7.917 12.667-7.917zm7.52 8.709l1.584-3.563 2.375 7.521c1.583 0 .396 6.333.396 6.333 1.583 0 0 6.334 0 6.334 1.583 0-.792 4.75-.792 4.75 1.583 0 .396 4.75.396 4.75 6.333 0 9.104 3.166 9.104 3.166H28.5s4.354-3.166 9.104-3.166c0 0 .396-4.75 1.98-4.75 0 0-.792-4.75.791-4.75 0 0-1.583-6.334 0-6.334 0 0-1.98-6.333-.396-6.333l-.791-3.958z"/></svg>