<svg xmlns="http://www.w3.org/2000/svg" baseProfile="full" viewBox="0 0 76.00 76.00"><path d="M31.417 21h-6.334c3.167-3.167 12.667-1.583 12.667-1.583 6.333-4.75 9.5-1.584 9.5-1.584-1.583 0-4.75 1.584-4.75 1.584 12.667 0 14.25 3.166 14.25 3.166-7.917-1.583-14.25 0-14.25 0 9.5 4.75 11.083 11.084 11.083 11.084-6.06-6.062-11.194-7.482-13.267-7.815 3.432 14.98 3.392 19.13 2.58 29.981C49.229 55.833 52 59 52 59H28.25s4.354-3.167 9.104-3.167c0 0 3.655-11.986.699-26.987C36.167 34.396 36.167 40 36.167 40 33 36.833 34.583 27.333 34.583 27.333c-3.166 0-11.083 6.334-11.083 6.334 0-4.75 7.917-9.5 7.917-9.5-9.5 1.583-12.667 4.75-12.667 4.75C21.917 22.583 31.417 21 31.417 21z"/></svg>