<svg xmlns="http://www.w3.org/2000/svg" baseProfile="full" viewBox="0 0 76.00 76.00"><path d="M60.167 29.292c0 7.432-6.38 16.625-14.25 16.625H33.889l-3.014 14.25H19.792l.586-2.771h8.518l3.014-14.25h12.027c7.87 0 14.25-9.192 14.25-16.625 0-1.558-.28-2.915-.795-4.087 1.744 1.621 2.775 3.87 2.775 6.858zM23.75 14.25h19v.04c7.125.37 12.667 4.71 12.667 10.252 0 8.708-6.38 16.625-14.25 16.625H29.535l-3.014 14.25H15.04L23.75 14.25zm20.98 12.667c-.185-2.214-1.333-3.354-3.15-3.959h-8.193l-2.345 11.084h6.161c4.694-1.429 7.526-4.53 7.526-7.125z"/></svg>