<svg xmlns="http://www.w3.org/2000/svg" baseProfile="full" viewBox="0 0 76.00 76.00"><path d="M46.257 50.086l3.329 3.328 6.157-6.157 2.328 2.329-8.485 8.485-5.657-5.657 2.328-2.328zM54.75 46l-3 3H43v10h10v-1.571L56 54v8H40V46h14.75zM36 15.167A7.917 7.917 0 1 1 36 31a7.917 7.917 0 0 1 0-15.833zm-7.917 26.916c-1.055.528-3.166 4.75-3.166 4.75s-1.056 1.584-1.584 7.917l-4.75-1.583 1.584-7.917s3.166-11.083 9.5-11.083h12.666c5.767 0 8.909 9.19 9.424 10.833h-5.662c-.693-1.21-1.596-2.626-2.178-2.917l.13 2.917H39v12.804l-2.208.113a21.29 21.29 0 0 1-9.315-2.131l.606-13.703z"/></svg>