<svg xmlns="http://www.w3.org/2000/svg" baseProfile="full" viewBox="0 0 76.00 76.00"><path d="M38 17a5.333 5.333 0 1 1 0 10.667A5.333 5.333 0 0 1 38 17zm-5.333 17.383c-.712.356-1.884 3.45-1.24 3.867l-3.463-.637c2.355-.853 2.827-2.279 3.018-4.88l-.181-1.617c.773-.643 1.918-2.066 2.932-2.066h8.534c1.037 0 1.948.441 2.733 1.11l.5 1.84c0 2.174 1.656 2.827 3.386 3.88l-2.42-.05a3.688 3.688 0 0 0-1.747.376c-.455-.78-1.016-1.638-1.386-1.823l.12 2.7c-2.257 2.074-3.386 5.985-3.386 5.985l-.39 1.937-1.144.045c-.767 0-1.52-.06-2.255-.175-.585-1.554-1.86-4.359-3.825-5.667l.214-4.825zm-7.934-7.433a5.333 5.333 0 1 1 0 10.667 5.333 5.333 0 0 1 0-10.667zM19.4 44.333c-.711.356-2.133 3.2-2.133 3.2s-.711 1.067-1.067 5.334L13 51.8l1.067-5.333S16.2 39 20.467 39H29c4.267 0 6.4 7.467 6.4 7.467l1.067 5.333-3.2 1.067C32.91 48.6 32.2 47.533 32.2 47.533s-1.422-2.844-2.133-3.2l.43 9.687c-1.62.633-3.385.98-5.23.98-2.25 0-4.379-.516-6.275-1.435l.408-9.232zm32.333-19.402c2.946.105 5.334 2.578 5.334 5.523a5.11 5.11 0 0 1-5.334 5.144c-2.945-.105-5.333-2.578-5.333-5.523a5.11 5.11 0 0 1 5.333-5.144zM46.4 42.124c-.711.33-2.133 3.124-2.133 3.124s-.711 1.042-1.067 5.296l-3.2-1.18 1.067-5.296s2.133-7.39 6.4-7.239l8.533.304c4.267.152 6.4 7.694 6.4 7.694l1.067 5.372-3.2.953c-.356-4.28-1.067-5.372-1.067-5.372s-1.422-2.895-2.133-3.276l.43 9.703a14.115 14.115 0 0 1-5.23.793 14.698 14.698 0 0 1-6.275-1.659l.408-9.217z"/></svg>