<svg xmlns="http://www.w3.org/2000/svg" baseProfile="full" viewBox="0 0 76.00 76.00"><path d="M39.564 54.473l5.063-4.927c-.654-1.131-.787-2.445-.787-3.846 0-4.252 3.207-7.7 7.46-7.7a7.7 7.7 0 0 1 7.7 7.7c0 4.253-3.448 7.46-7.7 7.46-1.33 0-2.58-.096-3.67-.688l-5.103 4.964c-.752.752-2.211.752-2.963 0-.752-.752-.752-2.211 0-2.963zM51.3 40.888a4.813 4.813 0 1 0 0 9.625 4.813 4.813 0 0 0 0-9.625zM36 16a7.917 7.917 0 1 1 0 15.833A7.917 7.917 0 0 1 36 16zm-7.917 26.917c-1.055.527-3.166 4.75-3.166 4.75s-1.056 1.583-1.584 7.916L18.583 54l1.584-7.917S23.333 35 29.667 35h12.666c1.963 0 3.621 1.064 4.976 2.533A8.999 8.999 0 0 0 42.5 45.5c0 1.2.234 2.344.66 3.39l-4.317 4.317c-1.367 1.367-1.367 4.083 0 5.45.343.343-.784.093-2.051.093-3.34 0-6.5-.766-9.315-2.13l.606-13.703z"/></svg>