<svg xmlns="http://www.w3.org/2000/svg" baseProfile="full" viewBox="0 0 76.00 76.00"><path d="M39.5 38a8.5 8.5 0 1 1-3.978 16.014l-5.254 5.254a2.5 2.5 0 0 1-3.536-3.536l5.254-5.254A8.5 8.5 0 0 1 39.5 38zm0 4a4.5 4.5 0 1 0 0 9 4.5 4.5 0 0 0 0-9zM24.733 23a5.333 5.333 0 1 1 0 10.667 5.333 5.333 0 0 1 0-10.667zM19.4 40.383c-.711.356-2.133 3.2-2.133 3.2s-.711 1.067-1.067 5.334L13 47.85l1.067-5.333s2.133-7.467 6.4-7.467h7.383c.868-2.174 2.83-6 5.883-6h8.534c3.054 0 5.015 3.826 5.883 6h7.383c4.267 0 6.4 7.467 6.4 7.467L63 47.85l-3.2 1.067c-.356-4.267-1.067-5.334-1.067-5.334s-1.422-2.844-2.133-3.2l.431 9.687c-1.621.633-3.386.98-5.231.98a14.45 14.45 0 0 1-3.217-.36 9.961 9.961 0 0 0 .917-4.19c0-5.523-4.477-10-10-10a9.995 9.995 0 0 0-8.576 4.854c-.312-.467-.623-.854-.857-.97l.11 2.49A9.974 9.974 0 0 0 29.5 46.5c0 1.3.248 2.543.7 3.683-1.539.56-3.2.867-4.933.867-2.25 0-4.379-.516-6.275-1.435l.408-9.232zm23.933-6l.116 2.598a7.022 7.022 0 0 1 1.106-1.052c-.42-.696-.895-1.383-1.222-1.546zM38 17a5.333 5.333 0 1 1 0 10.667A5.333 5.333 0 0 1 38 17zm-5.333 17.383c-.327.163-.802.85-1.222 1.546.4.299.768.658 1.107 1.052l.115-2.598zM51.267 23a5.333 5.333 0 1 1 0 10.667 5.333 5.333 0 0 1 0-10.667z"/></svg>