<svg xmlns="http://www.w3.org/2000/svg" baseProfile="full" viewBox="0 0 76.00 76.00"><path d="M29.98 22.2a6.26 6.26 0 1 1 0 12.519 6.26 6.26 0 0 1 0-12.519zm-6.26 21.031c-.834.418-2.503 3.756-2.503 3.756s-.835 1.252-1.252 6.26l-3.756-1.253 1.252-6.259s2.504-8.763 7.511-8.763h10.015c5.007 0 7.511 8.763 7.511 8.763l1.252 6.26-3.756 1.251c-.417-5.007-1.251-6.259-1.251-6.259s-1.67-3.338-2.504-3.756l.506 11.37a16.857 16.857 0 0 1-6.14 1.149c-2.64 0-5.138-.605-7.364-1.685l.48-10.834zM39 24h18v3H39v-3zm0 6h18v3H39v-3zm2 6h16v3H41v-3zm3 6h13v3H44v-3zm2 6h11v3H46v-3z"/></svg>