<svg xmlns="http://www.w3.org/2000/svg" baseProfile="full" viewBox="0 0 76.00 76.00"><path d="M16.201 39.582l-.784-.172-.608-.478-.406-.713-.153-.855v-2.458c0-1.722.352-3.3 1.057-4.736a12.192 12.192 0 0 1 2.875-3.769c1.212-1.077 2.628-1.959 4.247-2.644a18.447 18.447 0 0 1 5.174-1.333l3.701-.345 3.688-.253 4.117-.111 3.857.13 3.135.254 2.862.39c1.765.243 3.425.71 4.982 1.402 1.557.691 2.912 1.572 4.065 2.64a12.036 12.036 0 0 1 2.735 3.74c.67 1.425 1.005 2.989 1.005 4.693v2.485l-.163.82-.448.682-.66.459-.804.172H51.89l-.79-.172-.641-.469-.426-.683-.153-.835v-5.301l-.172-.956-.478-.784-.722-.537a2.047 2.047 0 0 0-.905-.201H28.741c-.325 0-.644.067-.956.201l-.813.537-.56.803a2.316 2.316 0 0 0-.214.976v5.203l-.162.855-.456.712-.67.479-.806.172H16.2zm18.632 1.585h6.334v11.479l4.75-4.75v6.333L38 62.542l-7.917-8.313v-6.333l4.75 4.75v-11.48z"/></svg>