<svg xmlns="http://www.w3.org/2000/svg" baseProfile="full" viewBox="0 0 76.00 76.00"><path d="M50.922 54.233c.115.27.172.544.172.822 0 .385-.102.744-.306 1.077-.205.333-.491.588-.86.764l-1.73.81a9.534 9.534 0 0 1-2.028.669 10.16 10.16 0 0 1-5.35-.347c-1.087-.37-2.126-.9-3.118-1.59a15.834 15.834 0 0 1-2.791-2.5 19.351 19.351 0 0 1-2.335-3.27 40.144 40.144 0 0 1-1.38-2.283c-.41-.728-.877-1.6-1.403-2.617a54.259 54.259 0 0 1-1.592-3.384 43.162 43.162 0 0 1-1.304-3.249 46.187 46.187 0 0 1-.746-2.31 15.21 15.21 0 0 1-.423-1.84 19.548 19.548 0 0 1-.822-5.622c0-1.202.12-2.36.362-3.473a12.344 12.344 0 0 1 1.11-3.104c.5-.958 1.132-1.814 1.9-2.568a9.324 9.324 0 0 1 2.72-1.844l1.707-.785c.27-.115.54-.172.81-.172.38 0 .734.105 1.061.316.327.21.573.502.736.874l3.283 7.455c.115.27.172.54.172.81 0 .397-.102.764-.307 1.102-.204.337-.493.59-.865.758l-3.375 1.552a2.254 2.254 0 0 0-1.024.902 2.455 2.455 0 0 0-.356 1.282c0 .348.065.675.196.982l5.54 12.653c.218.486.517.844.9 1.073a2.339 2.339 0 0 0 2.188.135l3.374-1.552a1.934 1.934 0 0 1 1.86.144c.33.21.58.5.748.868l3.276 7.462z"/></svg>