<svg xmlns="http://www.w3.org/2000/svg" baseProfile="full" viewBox="0 0 76.00 76.00"><path d="M22.018 22.062l.063.063s.512-2.175 10.899 7.207l6.309-1.195-.414-.414a1.583 1.583 0 1 1 2.239-2.239l2 2.001 2.912-.448-.154-.153a1.583 1.583 0 1 1 2.24-2.24l1.876 1.877c3.267-.366 6.088-.508 7.64-.197 0 0 1.959 1.96.84 3.079 0 0-12.897 3.793-18.707 6.383 10.163 9.997 9.47 10.69 9.47 10.69s6.438-1.959 8.677.28l-7.278 3.919-.063-.063-3.918 7.277c-2.24-2.239-.28-8.677-.28-8.677s-.693.694-10.69-9.47c-2.59 5.81-6.384 18.707-6.384 18.707-1.12 1.12-3.079-.84-3.079-.84-.31-1.552-.169-4.372.198-7.64l-1.877-1.876a1.583 1.583 0 1 1 2.24-2.24l.153.154.448-2.91-2.001-2.002a1.583 1.583 0 0 1 2.239-2.239l.414.414 1.195-6.309c-9.383-10.387-7.207-10.899-7.207-10.899z"/></svg>