<svg xmlns="http://www.w3.org/2000/svg" baseProfile="full" viewBox="0 0 76.00 76.00"><path d="M60.167 38h-.09s1.177 1.9-12.802 2.61l-3.616 5.307h.585a1.583 1.583 0 0 1 0 3.166h-2.83l-1.741 2.375h.217a1.583 1.583 0 1 1 0 3.167h-2.654c-2.051 2.57-3.946 4.664-5.263 5.542 0 0-2.77 0-2.77-1.584 0 0 6.437-11.801 8.713-17.741-14.255.118-14.255-.863-14.255-.863s-3.167 5.938-6.333 5.938L19.703 38h.089l-2.375-7.917c3.166 0 6.333 5.938 6.333 5.938s0-.98 14.255-.863c-2.276-5.94-8.713-17.741-8.713-17.741 0-1.584 2.77-1.584 2.77-1.584 1.317.878 3.212 2.973 5.263 5.542h2.654a1.583 1.583 0 0 1 0 3.167h-.217l1.741 2.375h2.83a1.583 1.583 0 1 1 0 3.166h-.585l3.616 5.306C61.343 36.1 60.167 38 60.167 38z"/></svg>