<svg xmlns="http://www.w3.org/2000/svg" baseProfile="full" viewBox="0 0 76.00 76.00"><path fill-opacity=".804" d="M34.18 16.33a21.853 21.853 0 0 0-7.182 2.614l4.092 7.087a13.728 13.728 0 0 1 4.51-1.641l-1.42-8.06z"/><path fill-opacity=".851" d="M26.998 18.944a22.106 22.106 0 0 0-5.851 4.914l6.268 5.26a13.882 13.882 0 0 1 3.675-3.087l-4.092-7.087z"/><path fill-opacity=".902" d="M21.147 23.858a21.98 21.98 0 0 0-3.826 6.616l7.691 2.799a13.802 13.802 0 0 1 2.403-4.155l-6.268-5.26z"/><path fill-opacity=".153" d="M16 38c0 2.644.466 5.178 1.321 7.526l7.691-2.799a13.792 13.792 0 0 1-.83-4.727H16z"/><path fill-opacity=".204" d="M17.321 45.526a21.977 21.977 0 0 0 3.826 6.616l6.268-5.26a13.804 13.804 0 0 1-2.403-4.155l-7.69 2.8z"/><path fill-opacity=".251" d="M21.147 52.142a22.105 22.105 0 0 0 5.851 4.914l4.092-7.087a13.882 13.882 0 0 1-3.675-3.087l-6.268 5.26z"/><path fill-opacity=".302" d="M26.998 57.056a21.855 21.855 0 0 0 7.181 2.613l1.422-8.058a13.728 13.728 0 0 1-4.51-1.642l-4.093 7.087z"/><path fill-opacity=".404" d="M41.82 59.67a21.853 21.853 0 0 0 7.182-2.614l-4.091-7.087a13.728 13.728 0 0 1-4.51 1.642l1.42 8.058z"/><path fill-opacity=".451" d="M49.002 57.056a22.103 22.103 0 0 0 5.851-4.914l-6.267-5.26a13.882 13.882 0 0 1-3.675 3.087L49 57.056z"/><path fill-opacity=".502" d="M54.853 52.142a21.977 21.977 0 0 0 3.826-6.616l-7.69-2.799a13.804 13.804 0 0 1-2.403 4.155l6.267 5.26z"/><path fill-opacity=".651" d="M58.679 30.474a21.978 21.978 0 0 0-3.826-6.616l-6.267 5.26a13.802 13.802 0 0 1 2.403 4.155l7.69-2.8z"/><path fill-opacity=".702" d="M54.853 23.858a22.105 22.105 0 0 0-5.851-4.914l-4.091 7.087a13.882 13.882 0 0 1 3.675 3.087l6.267-5.26zM49.002 18.944a21.855 21.855 0 0 0-7.181-2.613L40.4 24.39c1.617.283 3.138.847 4.51 1.641L49 18.944z"/><path fill-opacity=".353" d="M34.18 59.67A22.14 22.14 0 0 0 38 60c1.303 0 2.58-.113 3.82-.33l-1.42-8.06a13.905 13.905 0 0 1-4.8 0l-1.42 8.06z"/><path fill-opacity=".553" d="M58.679 45.526A21.96 21.96 0 0 0 60 38h-8.181c0 1.66-.293 3.253-.83 4.727l7.69 2.8z"/><path fill-opacity=".753" d="M41.82 16.33A22.14 22.14 0 0 0 38 16c-1.303 0-2.58.113-3.82.33l1.42 8.06a13.903 13.903 0 0 1 4.8 0l1.42-8.06z"/><path fill-opacity=".953" d="M24.183 38c0-1.66.292-3.253.83-4.727l-7.692-2.8A21.96 21.96 0 0 0 16 38h8.183z"/><path fill-opacity=".604" d="M60.01 38c0-2.5-.429-5.04-1.333-7.525l-7.688 2.798c.568 1.56.837 3.157.837 4.726h8.184z"/></svg>