<svg xmlns="http://www.w3.org/2000/svg" baseProfile="full" viewBox="0 0 76.00 76.00"><path d="M28.5 47.5v1.583h-4.75V47.5A4.75 4.75 0 0 1 19 42.75v-7.917a4.75 4.75 0 0 1 4.75-4.75h28.5a4.75 4.75 0 0 1 4.75 4.75v7.917a4.75 4.75 0 0 1-4.75 4.75v1.583H47.5V47.5h-19zm-.792-13.458a4.75 4.75 0 1 0 0 9.5 4.75 4.75 0 0 0 0-9.5zm0 2.375a2.375 2.375 0 1 1 0 4.75 2.375 2.375 0 0 1 0-4.75zm11.875-3.167v1.583h6.334V33.25h-6.334zm7.917 0v1.583h6.333V33.25H47.5zm-7.917 3.167V38h6.334v-1.583h-6.334zm7.917 0V38h6.333v-1.583H47.5zm-7.917 3.166v1.584h6.334v-1.584h-6.334zm7.917 0v1.584h6.333v-1.584H47.5zm-7.917 3.167v1.583h6.334V42.75h-6.334zm7.917 0v1.583h6.333V42.75H47.5z"/></svg>