<svg xmlns="http://www.w3.org/2000/svg" baseProfile="full" viewBox="0 0 76.00 76.00"><path d="M45.917 52.25c1.209 0 2.312.452 3.15 1.196C53.872 49.997 57 44.364 57 38c0-1.81-.253-3.562-.726-5.221l-4.569 1.305A14.26 14.26 0 0 1 52.25 38c0 7.87-6.38 14.25-14.25 14.25-2.71 0-5.245-.757-7.402-2.07a4.75 4.75 0 0 1-5.913-7.093A14.216 14.216 0 0 1 23.75 38c0-3.577 1.318-6.845 3.494-9.347a4.75 4.75 0 0 1 8.161-4.667A14.324 14.324 0 0 1 38 23.75c1.358 0 2.672.19 3.916.545l1.305-4.569A19.01 19.01 0 0 0 38 19c-7.962 0-14.78 4.898-17.607 11.845a4.752 4.752 0 0 1-1.341 8.575C19.78 49.25 27.984 57 38 57c1.081 0 2.142-.09 3.174-.264a4.75 4.75 0 0 1 4.743-4.486zm4.75 4.75a4.75 4.75 0 0 1-8.593 2.793c-1.32.245-2.682.374-4.074.374-11.851 0-21.53-9.3-22.136-21a4.751 4.751 0 0 1 1.413-9.054c3.18-8.348 11.259-14.28 20.723-14.28 2.112 0 4.156.296 6.091.848 1.058.301 2.084.68 3.07 1.128l-.88 3.085-1.333 4.662-.9 3.154-1.298 4.54 4.54-1.297 3.154-.901 4.662-1.332 3.085-.882c.448.987.827 2.013 1.128 3.07.552 1.936.848 3.98.848 6.092 0 7.56-3.784 14.235-9.562 18.236.04.249.062.504.062.764zm-19-25.333c-.84 0-1.63-.218-2.314-.6A11.037 11.037 0 0 0 26.917 38c0 1.146.174 2.252.497 3.291a4.75 4.75 0 0 1 5.44 6.527A11.034 11.034 0 0 0 38 49.084c6.121 0 11.083-4.962 11.083-11.083 0-1.056-.147-2.078-.423-3.046L44.09 36.26a6.333 6.333 0 1 1-4.35-4.35l1.305-4.57a11.175 11.175 0 0 0-4.63-.311 4.75 4.75 0 0 1-4.75 4.638zM34.833 38a3.167 3.167 0 0 0 6.334 0l-.121-.87L38 38l.87-3.046-.87-.12A3.167 3.167 0 0 0 34.833 38z"/></svg>