<svg xmlns="http://www.w3.org/2000/svg" baseProfile="full" viewBox="0 0 76.00 76.00"><path d="M42.75 38h-7.917l-9.5-9.5 9.5-9.5h7.917l-6.333 6.333h10.291c7.433 0 13.459 6.026 13.459 13.459 0 7.432-6.026 13.458-13.459 13.458v-6.333a7.125 7.125 0 1 0 0-14.25H36.417L42.75 38zm-38-9.5l3.167-7.917H28.5L20.583 28.5H4.75zm4.75 3.167h3.167v3.166H9.5v-3.166zm4.75 0h3.167v3.166H14.25v-3.166zm4.75 0h3.167v3.166H19v-3.166zm4.75 3.166v-3.166l3.167 3.166H23.75zm-1.583 14.25H19v-3.166h3.167v3.166zm-4.75 0H14.25v-3.166h3.167v3.166zm-4.75 0H9.5v-3.166h3.167v3.166zm0-4.75H9.5v-3.166h3.167v3.166zm-4.75-4.75H4.75v-3.166h3.167v3.166zm4.75 0H9.5v-3.166h3.167v3.166zm1.583-3.166h3.167v3.166H14.25v-3.166zm4.75 0h3.167v3.166H19v-3.166zm4.75 0h3.167v3.166H23.75v-3.166zm0 4.75h3.167v3.166H23.75v-3.166zm-4.75 0h3.167v3.166H19v-3.166zm-4.75 0h3.167v3.166H14.25v-3.166zm17.417 12.666H7.917V52.25h22.166V38l1.584 1.583v14.25z"/></svg>