<svg xmlns="http://www.w3.org/2000/svg" baseProfile="full" viewBox="0 0 76.00 76.00"><path d="M55.417 44.333c0 9.62-7.798 17.417-17.417 17.417-9.619 0-17.417-7.798-17.417-17.417 0-8.602 6.237-15.747 14.435-17.162L28.5 20.979v-1.583l4.75-5.146h9.5l4.75 5.146v1.583l-6.518 6.192c8.198 1.415 14.435 8.56 14.435 17.162zM38 31.667c-6.996 0-12.667 5.67-12.667 12.666S31.004 57 38 57c6.996 0 12.667-5.671 12.667-12.667 0-6.995-5.671-12.666-12.667-12.666zm.792-7.125l4.75-3.959h-3.167l-1.583 3.959zM41.167 19l.395-3.167-2.77 1.98L41.167 19zm-3.959 5.542l-1.583-3.959h-3.167l4.75 3.959zM34.833 19l2.375-1.188-2.77-1.979.395 3.167z"/></svg>