<svg xmlns="http://www.w3.org/2000/svg" baseProfile="full" viewBox="0 0 76.00 76.00"><path d="M15.833 49.083h44.334c0 .296-.712.408-.804.78-.092.372-.208.768-.348 1.188-.14.42-.301.844-.483 1.274-.182.43-.37.851-.566 1.263a53.275 53.275 0 0 1-1.512 2.992c-1.88.248-3.742.47-5.59.665-.791.1-1.612.197-2.461.29-.85.092-1.696.179-2.538.26a179.759 179.759 0 0 1-4.65.392c-.756.053-1.509.096-2.261.127-.752.032-1.508.048-2.268.048-2.043 0-4.094-.128-6.155-.384a39.148 39.148 0 0 1-6.338-1.35 9.148 9.148 0 0 1-1.951-.851c-.61-.356-1.17-.748-1.682-1.176a12.376 12.376 0 0 1-1.908-1.931 15.828 15.828 0 0 1-1.26-1.853 10.86 10.86 0 0 1-.894-1.955l-.665.221zM38 14.25v31.667H23.75L38 14.25zm3.167 9.5l12.666 22.167H41.167V23.75z"/></svg>