<svg xmlns="http://www.w3.org/2000/svg" baseProfile="full" viewBox="0 0 76.00 76.00"><path d="M38.792 15.833c1.748 0 1.583 1.418 1.583 3.167l.105 3.167h18.103v3.166h-2.057l8.39 19.792c0 3.06-5.044 5.542-10.291 5.542-5.247 0-10.292-2.481-10.292-5.542l8.391-19.792H40.586l.953 28.6c6.115.447 10.711 2.36 10.711 4.65H25.333c0-2.29 4.596-4.203 10.71-4.65l.954-28.6H23.276l8.39 19.792c0 3.06-5.044 5.542-10.291 5.542-5.247 0-10.292-2.481-10.292-5.542l8.391-19.792h-2.057v-3.166h19.686L37.208 19c0-1.749-.165-3.167 1.584-3.167zm22.427 29.292l-5.802-14.362v14.362h5.802zm-13.188 0h5.802V30.763l-5.802 14.362zm-20.062 0l-5.802-14.362v14.362h5.802zm-13.188 0h5.802V30.763l-5.802 14.362z"/></svg>