<svg xmlns="http://www.w3.org/2000/svg" baseProfile="full" viewBox="0 0 76.00 76.00"><path d="M38.792 15.833c1.748 0 1.583 1.418 1.583 3.167l.108 3.422 18.357 5.171-.766 3.073-1.997-.498 8.84 17.332c0 3.06-5.045 5.542-10.292 5.542S44.333 50.56 44.333 47.5l8.056-18.252-11.778-2.936.928 27.62c6.115.448 10.711 2.36 10.711 4.651H25.333c0-2.29 4.596-4.203 10.71-4.65l1.086-28.49-13.314-3.319 7.852 18.251c0 3.06-5.045 5.542-10.292 5.542s-10.292-2.481-10.292-5.542l9.043-19.17-1.996-.498.766-3.073 18.31 4.367.002-3.001c0-1.749-.165-3.167 1.584-3.167zM61.219 47.5l-5.802-14.362V47.5h5.802zm-13.188 0h5.802V33.138L48.031 47.5zm-20.062-7.125l-5.802-14.361v14.361h5.802zm-13.188 0h5.802V26.013l-5.802 14.362z"/></svg>