<svg xmlns="http://www.w3.org/2000/svg" baseProfile="full" viewBox="0 0 76.00 76.00"><path d="M26 42a6.6 6.6 0 0 1 3.251.856l4.287-4.286 3.425 3.623-4.473 4.493c.33.869.51 1.819.51 2.814 0 4.142-3.134 7.5-7 7.5s-7-3.358-7-7.5c0-4.142 3.134-7.5 7-7.5zm0 3c-2.21 0-4 2.015-4 4.5s1.79 4.5 4 4.5 4-2.015 4-4.5-1.79-4.5-4-4.5zm24-3c3.866 0 7 3.358 7 7.5 0 4.142-3.134 7.5-7 7.5s-7-3.358-7-7.5c0-.995.18-1.944.509-2.812-6.105-6.106-12.128-12.163-15.373-16.552-3.345-4.523-3.74-7.276-4.136-10.028l22.749 22.748A6.6 6.6 0 0 1 50 42zm0 3c-2.21 0-4 2.015-4 4.5s1.79 4.5 4 4.5 4-2.015 4-4.5-1.79-4.5-4-4.5zm-2.136-14.864c-1.38 1.867-3.263 4.035-5.44 6.38l-.482-.481c1.938-2.13 3.616-4.102 4.879-5.822 3.09-4.212 3.689-6.498 4.074-9L52 20.108c-.395 2.752-.79 5.505-4.136 10.028zM39.007 33.1l11.25-11.248c-.44 2.078-1.3 4.148-3.831 7.597-1.326 1.807-2.885 3.891-4.926 6.144L39.007 33.1zm-3.204 9.392l-.438-.467-3.439 3.482c.113.191.218.39.315.592l3.562-3.607z"/></svg>