<svg xmlns="http://www.w3.org/2000/svg" baseProfile="full" viewBox="0 0 76.00 76.00"><path d="M22 17h32c2.623 0 5 2.377 5 5v32c0 2.623-2.377 5-5 5H22c-2.623 0-5-2.377-5-5V22c0-2.623 2.377-5 5-5zm8.64 32.083h2.892V32.038l3.179 17.045h2.796l3.224-17.045v17.045h2.891v-21.28h-4.698l-2.793 14.81-2.755-14.81H30.64v21.28zm20.027 1.584v1.583h1.583c0 .528 0 1.056-.528 1.32-.528.263-1.583.263-2.639.263 0 .528 0 1.056.528 1.32s1.583.264 2.639.264c.528 0 1.056 0 1.32-.528.263-.528.263-1.583.263-2.639v-1.583c0-1.056 0-2.111-.264-2.64-.263-.527-.791-.527-1.319-.527-1.056 0-2.111 0-2.639.264-.528.264-.528.792-.528 1.32 1.056 0 2.111 0 2.64.263.527.264.527.792.527 1.32h-1.583z"/></svg>