<svg xmlns="http://www.w3.org/2000/svg" baseProfile="full" viewBox="0 0 76.00 76.00"><path d="M22 17h32c2.623 0 5 2.377 5 5v32c0 2.623-2.377 5-5 5H22c-2.623 0-5-2.377-5-5V22c0-2.623 2.377-5 5-5zm9.825 32.083h12.616v-3.546h-9.36l9.097-14.446v-3.288H32.876v3.547h7.696l-8.747 13.896v3.837zM52.25 47.5c-.874 0-1.583.709-1.583 1.583v4.75c0 .875.709 1.584 1.583 1.584h1.583c.875 0 1.584-.71 1.584-1.584v-4.75c0-.874-.71-1.583-1.584-1.583H52.25zm0 1.583h1.583v4.75H52.25v-4.75zM48.292 47.5a.792.792 0 0 0-.792.792v7.125h1.583v-7.125a.792.792 0 0 0-.791-.792z"/></svg>