<svg xmlns="http://www.w3.org/2000/svg" baseProfile="full" viewBox="0 0 76.00 76.00"><path d="M22 17h32c2.623 0 5 2.377 5 5v32c0 2.623-2.377 5-5 5H22c-2.623 0-5-2.377-5-5V22c0-2.623 2.377-5 5-5zm16.263 24.103h3.942v2.827a6.34 6.34 0 0 1-1.88 1.392c-.704.34-1.383.51-2.038.51-1.396 0-2.503-.58-3.322-1.74-.955-1.346-1.433-3.312-1.433-5.898 0-2.408.435-4.2 1.306-5.376.87-1.175 2.01-1.763 3.417-1.763.906 0 1.686.304 2.34.914.655.61 1.104 1.487 1.347 2.632l2.892-.591c-.315-2.133-1.026-3.75-2.132-4.851-1.106-1.1-2.578-1.651-4.414-1.651-1.528 0-2.841.409-3.939 1.226-1.098.817-1.99 2.053-2.677 3.708-.688 1.655-1.031 3.646-1.031 5.974 0 2.269.34 4.242 1.022 5.92.682 1.678 1.606 2.938 2.772 3.78 1.167.842 2.512 1.263 4.037 1.263 1.251 0 2.5-.326 3.743-.977 1.245-.651 2.205-1.43 2.881-2.334v-8.511h-6.833v3.546zm14.779 12.73h-2.243s3.034-4.42 3.034-4.75v-.791a.792.792 0 0 0-.791-.792h-3.959a.792.792 0 0 0 0 1.583h2.771s-3.562 5.213-3.562 5.542c0 .437.354.792.791.792h3.959a.792.792 0 0 0 0-1.584z"/></svg>