<svg xmlns="http://www.w3.org/2000/svg" baseProfile="full" viewBox="0 0 76.00 76.00"><path d="M22 17h32c2.623 0 5 2.377 5 5v32c0 2.623-2.377 5-5 5H22c-2.623 0-5-2.377-5-5V22c0-2.623 2.377-5 5-5zm19.811 24.399c-.28 1.54-.736 2.663-1.37 3.371-.633.708-1.384 1.062-2.252 1.062-1.183 0-2.145-.57-2.887-1.71-.742-1.141-1.113-3.063-1.113-5.766 0-2.605.385-4.473 1.156-5.604.77-1.132 1.765-1.698 2.984-1.698.854 0 1.595.305 2.223.915.629.61 1.048 1.487 1.26 2.632l2.89-.887c-.386-1.862-.994-3.266-1.823-4.211-1.164-1.33-2.61-1.995-4.341-1.995-2.122 0-3.812.885-5.072 2.655-1.445 2.038-2.168 4.861-2.168 8.47 0 3.414.717 6.126 2.152 8.137 1.245 1.74 2.87 2.609 4.874 2.609 1.597 0 2.942-.543 4.035-1.63 1.094-1.087 1.875-2.81 2.343-5.168l-2.89-1.182zm8.856 9.268v1.583h1.583c0 .528 0 1.056-.528 1.32-.528.263-1.583.263-2.639.263 0 .528 0 1.056.528 1.32s1.584.264 2.639.264c.528 0 1.056 0 1.32-.528.263-.528.263-1.584.263-2.639v-1.583c0-1.056 0-2.111-.264-2.64-.263-.527-.791-.527-1.319-.527-1.056 0-2.111 0-2.639.264-.528.264-.528.791-.528 1.32 1.056 0 2.111 0 2.64.263.527.264.527.792.527 1.32h-1.583z"/></svg>