<svg xmlns="http://www.w3.org/2000/svg" baseProfile="full" viewBox="0 0 76.00 76.00"><path d="M19 31.667a6.333 6.333 0 0 1 3.955 11.28c1.999 6.083 7.583 10.542 14.253 10.886a8.683 8.683 0 0 0 2.651 6.257L38 60.167c-10.21 0-18.808-6.903-21.381-16.296A6.336 6.336 0 0 1 19 31.667zm26.125-15.834a6.333 6.333 0 1 1-6.333 6.353c-.263-.013-.526-.02-.792-.02-6.15 0-11.482 3.508-14.104 8.631A8.668 8.668 0 0 0 19 29.292l-1.441.118C20.915 21.434 28.803 15.833 38 15.833c1.602 0 3.165.17 4.67.493a6.314 6.314 0 0 1 2.455-.493zm.792 31.667c1.397 0 2.689.453 3.736 1.22A15.776 15.776 0 0 0 53.833 38c0-3.46-1.109-6.66-2.991-9.264a8.688 8.688 0 0 0 2.986-6.255A22.095 22.095 0 0 1 60.167 38c0 6.874-3.13 13.017-8.04 17.083a6.333 6.333 0 1 1-6.21-7.583z"/></svg>