<svg xmlns="http://www.w3.org/2000/svg" baseProfile="full" viewBox="0 0 76.00 76.00"><path d="M31.667 19h12.666L57 31.667v12.666L44.333 57H31.667L19 44.333V31.667L31.667 19zm-.792 14.25v1.583h2.375v7.917h1.583v-7.917h2.375V33.25h-6.333zM38 36.417v3.166c0 1.056 0 2.111.528 2.64.528.527 1.583.527 2.639.527 1.055 0 2.11 0 2.639-.528.527-.528.527-1.583.527-2.639v-3.166c0-1.056 0-2.111-.527-2.64-.528-.527-1.584-.527-2.64-.527-1.055 0-2.11 0-2.638.528S38 35.36 38 36.417zm1.847 3.958c-.264-1.32-.264-3.43.264-4.486.528-1.056 1.583-1.056 2.111 0 .528 1.055.528 3.167 0 4.222-.528 1.056-1.583 1.056-2.375.264zm6.07-7.125v9.5H47.5v-3.167h2.375c.528 0 1.056 0 1.517-.527.462-.528.858-1.584 1.254-2.64-.396-1.055-.792-2.11-1.254-2.638-.462-.528-.99-.528-1.517-.528h-3.958zm3.694 1.32c1.452 1.319 1.452 2.374.858 2.902S48.687 38 47.5 38v-3.167c1.188 0 2.375 0 2.111-.264zM28.5 33.25h-3.167c-.527 0-1.055 0-1.32.132-.263.132-.263.396-.263.66v2.375c0 .527 0 1.055.264 1.32.264.263.792.263 1.32.263 1.055 0 2.11 0 2.638.528s.528 1.583 0 2.11c-.528.529-1.583.529-2.11.33-.529-.197-.529-.593-.529-.989H23.75v1.188c0 .527 0 1.055.528 1.32.528.263 1.583.263 2.639.263 1.055 0 2.11 0 2.639-.264.527-.264.527-.791.527-1.32V38c0-.528 0-1.056-.264-1.32-.264-.263-.791-.263-1.319-.263-1.056 0-2.111 0-2.639-.264-.528-.264-.528-.792 0-1.056s1.583-.264 2.111-.132c.528.132.528.396.528.66h1.583v-.792c0-.527 0-1.055-.264-1.32-.263-.263-.791-.263-1.319-.263z"/></svg>