<svg xmlns="http://www.w3.org/2000/svg" baseProfile="full" viewBox="0 0 76.00 76.00"><path d="M55 27a2 2 0 0 1 2 2v18a2 2 0 0 1-2 2H21a2 2 0 0 1-2-2V32.5l5.5-5.5H55zm-4 4H35a2 2 0 0 0-2 2v12a2 2 0 0 0 2 2h16a2 2 0 0 0 2-2V33a2 2 0 0 0-2-2zm-16 1h6.905c-.77.361-1.423 1.087-1.853 2H34v-1a1 1 0 0 1 1-1zm16 0a1 1 0 0 1 1 1v1h-6.052c-.43-.913-1.082-1.639-1.853-2H51zm1 3v3h-5.7c.13-.47.2-.974.2-1.5 0-.516-.067-1.022-.192-1.5H52zm0 4v3h-6.021a5.282 5.282 0 0 0-.647-2.145c.22-.252.414-.54.579-.855H52zm0 4v2a1 1 0 0 1-1 1H44.53c.79-.66 1.335-1.715 1.447-3H52zm-17 3a1 1 0 0 1-1-1v-2h5.022c.112 1.285.658 2.34 1.447 3H35zm-1-4v-3h6.09c.025.049.051.097.078.145-.626.72-1.05 1.724-1.147 2.855H34zm0-4v-3h5.692a5.982 5.982 0 0 0-.192 1.5c0 .526.07 1.03.2 1.5H34zm9-5.25c1.38 0 2.5 1.817 2.5 3.75 0 1.432-.614 2.664-1.495 3.206.604.638.995 1.652.995 2.794 0 1.933-1.12 3.25-2.5 3.25S40 44.433 40 42.5c0-1.432.614-2.664 1.495-3.205-.605-.64-.995-1.653-.995-2.795 0-1.933 1.12-3.75 2.5-3.75z"/></svg>