<svg xmlns="http://www.w3.org/2000/svg" baseProfile="full" viewBox="0 0 76.00 76.00"><path d="M46.89 10.715c3.643 0 6.597 2.917 6.597 6.514l-.006.288c2.711.809 4.685 3.295 4.685 6.237a6.471 6.471 0 0 1-2.451 5.068c-1.267-2.23-3.542-3.795-6.192-4.052-.159-4.16-4.16-8.118-9.065-8.118-2.75 0-5.216 1.136-6.88 2.93l-.046-.704c0-2.96 2.437-5.36 5.442-5.36.783 0 1.528.163 2.2.457a6.61 6.61 0 0 1 5.716-3.26zm1.85 15.667c3.56 0 6.497 3.134 6.913 7.177 2.107-.294 4.62-1.254 5.348-4.074 0 0 .55 4.729-5.314 5.615-.07 1.211-.457 2.35-.928 3.36-8.416-.892-21.722-13.933-29.862-14.89 1.221-1.414 2.975-2.3 4.924-2.3 1.371 0 2.646.438 3.707 1.19 1.337-2.579 3.903-4.324 6.848-4.324 4.282 0 7.762 3.69 7.832 8.27l.532-.024zm4.026 14.85c-1.13.93-2.54 1.477-4.026 1.477l-17.352.041h-9.07v-.023c-1.73-.136-3.443-1.027-4.644-2.595-1.748-2.282-1.886-5.307-.546-7.507-1.377-1.532-1.936-3.462-1.295-5.173 1.016-2.709 4.66-3.853 8.175-2.586l.084-.152c14.552 3.812 23.788 19.314 36.727 14.064-.79 1.29-2.868 3.33-8.053 2.454zM18.423 31.143c1.416-1.147 3.212-1.49 4.908-1.102-.123-.539-.157-2.485-.095-2.872-.155-.075-5.371-1.323-5.801 1.427-.362.967-.128 2.042.535 2.956l.453-.409zm16.41 14.774h6.334v11.479l4.75-4.75v6.333L38 67.292l-7.917-8.313v-6.333l4.75 4.75v-11.48z"/></svg>