<svg xmlns="http://www.w3.org/2000/svg" baseProfile="full" viewBox="0 0 76.00 76.00"><path d="M24.901 44.612l.195.31c1.073 4.86 6.442 7.765 12.904 7.765s11.831-2.905 12.904-7.766l.194-.31c0-1.795 1.594-2.955 3.868-2.955 1.977 0 3.22 1.488 3.617 2.956C57.638 52.294 47.976 59.389 38 59.389c-9.976 0-19.638-7.095-20.583-14.777.397-1.468 1.64-2.956 3.617-2.956 2.274 0 3.867 1.16 3.867 2.956zm-4.318-19.279c1.88 0 3.359.792 5.638.792s3.63-.792 5.446-.792a3.167 3.167 0 0 1 0 6.334H20.583a3.167 3.167 0 0 1 0-6.334zm23.75 0c1.88 0 3.359.792 5.638.792s3.63-.792 5.446-.792a3.167 3.167 0 0 1 0 6.334H44.333a3.167 3.167 0 0 1 0-6.334z"/></svg>