<svg xmlns="http://www.w3.org/2000/svg" baseProfile="full" viewBox="0 0 76.00 76.00"><path d="M4.75 28.5h11.083A3.167 3.167 0 0 1 19 25.333h14.25a3.167 3.167 0 0 1 3.167 3.167h3.166a3.167 3.167 0 0 1 3.167-3.167H57a3.167 3.167 0 0 1 3.167 3.167H71.25l1.583 4.75H60.167v3.167A3.167 3.167 0 0 1 57 39.583H42.75a3.167 3.167 0 0 1-3.167-3.166V33.25h-3.166v3.167a3.167 3.167 0 0 1-3.167 3.166H19a3.167 3.167 0 0 1-3.167-3.166V33.25H3.167L4.75 28.5zm15.833 0c-.874 0-1.583.709-1.583 1.583v4.75c0 .875.709 1.584 1.583 1.584h11.084c.874 0 1.583-.71 1.583-1.584v-4.75c0-.874-.709-1.583-1.583-1.583H20.583zm23.75 0c-.874 0-1.583.709-1.583 1.583v4.75c0 .875.709 1.584 1.583 1.584h11.084c.874 0 1.583-.71 1.583-1.584v-4.75c0-.874-.709-1.583-1.583-1.583H44.333zM24.902 46.972l.194.31c1.072 4.861 6.442 7.765 12.904 7.765s11.831-2.904 12.904-7.765l.194-.31c0-1.795 1.594-2.955 3.868-2.955 1.977 0 3.22 1.487 3.617 2.955C57.638 54.654 47.976 61.75 38 61.75c-9.976 0-19.638-7.096-20.583-14.778.397-1.468 1.64-2.955 3.617-2.955 2.274 0 3.867 1.16 3.867 2.955z"/></svg>