<svg xmlns="http://www.w3.org/2000/svg" baseProfile="full" viewBox="0 0 76.00 76.00"><path d="M24.901 54.361c0 1.796-1.593 2.956-3.867 2.956-1.977 0-3.22-1.488-3.617-2.956C18.362 46.68 28.024 39.583 38 39.583c9.976 0 19.638 7.096 20.583 14.778-.397 1.468-1.64 2.956-3.617 2.956-2.274 0-3.867-1.16-3.867-2.956l-.195-.31c-1.073-4.86-6.442-7.765-12.904-7.765s-11.831 2.904-12.904 7.765l-.195.31zm8.349-27.444c0 4.372-2.481 7.916-5.542 7.916-3.06 0-5.541-3.544-5.541-7.916L28.5 19.08c2.686.549 4.75 3.848 4.75 7.837zm9.5 0c0-3.989 2.064-7.288 4.75-7.837l6.333 7.837c0 4.372-2.48 7.916-5.541 7.916-3.06 0-5.542-3.544-5.542-7.916z"/></svg>