<svg xmlns="http://www.w3.org/2000/svg" baseProfile="full" viewBox="0 0 76.00 76.00"><path d="M27.708 49.083h20.584a3.958 3.958 0 0 1 0 7.917H27.708a3.958 3.958 0 0 1 0-7.917zm-8.44-12.471l7.164-4.136-7.163-4.136a2.928 2.928 0 0 1 2.928-5.071l11.411 6.588a2.928 2.928 0 0 1 1.464 2.62 2.927 2.927 0 0 1-1.464 2.618l-11.411 6.589a2.928 2.928 0 1 1-2.928-5.072zm37.463 0a2.928 2.928 0 1 1-2.928 5.072l-11.411-6.589a2.927 2.927 0 0 1-1.464-2.619 2.927 2.927 0 0 1 1.464-2.619l11.411-6.588a2.928 2.928 0 1 1 2.928 5.072l-7.163 4.135 7.163 4.136z"/></svg>