<svg xmlns="http://www.w3.org/2000/svg" baseProfile="full" viewBox="0 0 76.00 76.00"><path d="M27.708 49.083h20.584a3.958 3.958 0 0 1 0 7.917H27.708a3.958 3.958 0 0 1 0-7.917zm-1.511-19a5.614 5.614 0 1 1 0 11.228 5.614 5.614 0 0 1 0-11.227zm23.606-.143a5.614 5.614 0 1 1 0 11.227 5.614 5.614 0 0 1 0-11.228zm-5.392-.57a2.375 2.375 0 0 1-2.375-4.114l10.97-6.334a2.375 2.375 0 0 1 2.375 4.114l-10.97 6.333zm-23.792-6.334a2.375 2.375 0 0 1 2.375-4.114l10.97 6.334a2.375 2.375 0 0 1-2.375 4.113l-10.97-6.333z"/></svg>