<svg xmlns="http://www.w3.org/2000/svg" baseProfile="full" viewBox="0 0 76.00 76.00"><path d="M38 54.265c5.225 0 10.132-3.851 12.234-8.276H25.766c2.102 4.425 7.009 8.276 12.234 8.276zm16.966-14.574c1.977 0 3.22 1.488 3.617 3.347C57.638 52.765 47.976 61.75 38 61.75c-9.976 0-19.638-8.985-20.583-18.712.397-1.859 1.64-3.347 3.742-3.345v-.002h33.807zm-28.05-19.108a9.5 9.5 0 0 1 9.5 9.5 2.375 2.375 0 0 1-4.75 0 4.75 4.75 0 0 0-9.5 0 2.375 2.375 0 0 1-4.75 0 9.5 9.5 0 0 1 9.5-9.5zm22.167 0a9.5 9.5 0 0 1 9.5 9.5 2.375 2.375 0 1 1-4.75 0 4.75 4.75 0 0 0-9.5 0 2.375 2.375 0 1 1-4.75 0 9.5 9.5 0 0 1 9.5-9.5z"/></svg>