<svg xmlns="http://www.w3.org/2000/svg" baseProfile="full" viewBox="0 0 76.00 76.00"><path d="M39.583 26.34l2.511-2.51 2.24 2.239-4.75 4.75v4.439l3.912-2.26 1.739-6.488 3.059.82-.92 3.43 4.086-2.36 1.49-5.56 7.647 2.049-2.05 7.647-5.406-1.45-4.252 2.455 3.43.92-.82 3.058-6.488-1.738L41.167 38l3.844 2.22 6.488-1.74.82 3.06-3.43.919 4.252 2.454 5.407-1.449 2.049 7.647-7.647 2.05-1.49-5.562-4.085-2.358.919 3.43-3.059.82L43.496 43l-3.913-2.259v4.44l4.75 4.75-2.239 2.238-2.51-2.51v4.909l3.958 3.958-5.598 5.598-5.598-5.598 4.07-4.07v-4.718l-2.51 2.511-2.24-2.24 4.75-4.75v-4.518l-3.843 2.22-1.74 6.488-3.058-.82.92-3.429-4.252 2.455-1.45 5.407-7.646-2.05 2.049-7.646 5.56 1.49 4.086-2.359-3.43-.919.82-3.058 6.488 1.738L34.833 38l-3.913-2.26-6.488 1.74-.82-3.06 3.43-.918-4.085-2.359-5.561 1.49-2.049-7.647 7.647-2.049 1.449 5.407 4.251 2.455-.919-3.43 3.059-.82 1.738 6.49 3.845 2.219v-4.519l-4.75-4.75 2.239-2.239 2.51 2.51v-4.716l-4.07-4.071 5.598-5.598 5.598 5.598-3.959 3.958v4.91zm-3.822-8.923L38 19.656l2.24-2.24L38 15.178l-2.24 2.24zm0 41.166L38 60.823l2.24-2.24L38 56.344l-2.24 2.24zM19.055 29.648l3.058-.82-.82-3.059-3.058.82.82 3.059zM54.706 50.23l3.059-.82-.82-3.059-3.059.82.82 3.059zm0-24.462l-.82 3.059 3.06.82.819-3.06-3.059-.819zM19.055 46.353l-.82 3.058 3.059.82.82-3.059-3.06-.82z"/></svg>