<svg xmlns="http://www.w3.org/2000/svg" baseProfile="full" viewBox="0 0 76.00 76.00"><path d="M46.37 46.018c-.746 1.077-1.842 1.913-3.273 2.516-1.435.604-3.13.908-5.088.908-2.347 0-4.29-.41-5.823-1.241a7.565 7.565 0 0 1-2.651-2.381c-.682-.997-1.026-1.968-1.026-2.918 0-.562.213-1.047.629-1.444.42-.401.961-.6 1.599-.6.524 0 .972.157 1.338.47.363.311.667.763.917 1.363.298.692.623 1.275.968 1.735.343.456.825.84 1.45 1.14.618.296 1.44.448 2.47.448 1.409 0 2.547-.304 3.418-.908.876-.604 1.297-1.343 1.297-2.233 0-.714-.227-1.28-.691-1.719-.47-.448-1.076-.785-1.828-1.022-.755-.24-1.769-.494-3.04-.76-1.705-.376-3.132-.806-4.287-1.304-1.157-.499-2.078-1.183-2.76-2.044-.685-.874-1.026-1.955-1.026-3.238 0-1.225.36-2.314 1.081-3.268.72-.955 1.763-1.685 3.123-2.192 1.355-.51 2.95-.764 4.778-.764 1.461 0 2.725.169 3.795.507 1.067.338 1.957.785 2.668 1.347.707.557 1.227 1.148 1.556 1.769.329.62.495 1.228.495 1.82 0 .552-.214 1.05-.63 1.49a2.07 2.07 0 0 1-1.57.659c-.56 0-.999-.127-1.304-.402-.297-.266-.609-.688-.946-1.275-.426-.819-.936-1.456-1.53-1.912-.578-.448-1.532-.684-2.859-.68-1.227 0-2.21.249-2.951.743-.746.498-1.103 1.077-1.105 1.752.002.427.123.785.37 1.09.248.308.596.578 1.042.802.446.232.9.41 1.357.536.461.13 1.227.32 2.291.57 1.335.287 2.547.608 3.635.958 1.086.355 2.013.777 2.779 1.284a5.402 5.402 0 0 1 1.806 1.925c.433.777.649 1.727.649 2.846 0 1.347-.376 2.555-1.123 3.627zm9.043-5.265c.142-.895.217-1.816.217-2.753 0-9.736-7.893-17.628-17.63-17.628-.935 0-1.855.076-2.752.216A10.596 10.596 0 0 0 29.654 19C23.77 19 19 23.771 19 29.657c0 2.052.582 3.969 1.586 5.594-.139.9-.215 1.812-.215 2.749 0 9.74 7.893 17.628 17.629 17.628.934 0 1.855-.072 2.752-.211 1.625 1 3.54 1.583 5.593 1.583C52.231 57 57 52.233 57 46.347a10.6 10.6 0 0 0-1.587-5.594z"/></svg>