<svg xmlns="http://www.w3.org/2000/svg" baseProfile="full" viewBox="0 0 76.00 76.00"><path d="M50.839 52.282c-1.58 2.317-3.213 4.62-5.792 4.667-2.538.049-3.352-1.508-6.248-1.508-2.9 0-3.806 1.46-6.203 1.557-2.49.093-4.383-2.502-5.975-4.808-3.253-4.716-5.736-13.332-2.397-19.148 1.654-2.888 4.616-4.715 7.827-4.763 2.445-.045 4.755 1.654 6.248 1.654 1.496 0 4.3-2.04 7.248-1.74 1.233.05 4.696.498 6.92 3.762-.176.116-4.133 2.426-4.085 7.237.048 5.748 5.02 7.658 5.079 7.684-.046.135-.795 2.728-2.622 5.406zM40.01 21.878c1.365-1.604 3.672-2.798 5.575-2.878.243 2.229-.65 4.46-1.97 6.069-1.323 1.605-3.489 2.856-5.614 2.689-.289-2.18.782-4.455 2.01-5.88z"/></svg>