<svg xmlns="http://www.w3.org/2000/svg" baseProfile="full" viewBox="0 0 76.00 76.00"><path d="M59.748 27.076a16.54 16.54 0 0 1-4.752 1.302 8.3 8.3 0 0 0 3.638-4.577 16.565 16.565 0 0 1-5.254 2.008 8.263 8.263 0 0 0-6.04-2.613 8.274 8.274 0 0 0-8.274 8.274c0 .648.073 1.28.214 1.885-6.876-.345-12.973-3.639-17.054-8.645a8.234 8.234 0 0 0-1.12 4.16 8.27 8.27 0 0 0 3.68 6.887 8.243 8.243 0 0 1-3.747-1.035v.104a8.28 8.28 0 0 0 6.637 8.113 8.288 8.288 0 0 1-3.737.142 8.282 8.282 0 0 0 7.73 5.746 16.6 16.6 0 0 1-10.277 3.542c-.668 0-1.326-.04-1.973-.116a23.42 23.42 0 0 0 12.683 3.718c15.219 0 23.542-12.608 23.542-23.542 0-.359-.009-.715-.025-1.07a16.81 16.81 0 0 0 4.13-4.283z"/></svg>