<svg xmlns="http://www.w3.org/2000/svg" baseProfile="full" viewBox="0 0 76.00 76.00"><path d="M21.666 44.763a10.412 10.412 0 0 1 .397-1.518c.425-1.244 1.068-2.398 1.758-3.513.343-.552.694-1.1 1.043-1.648.356-.56.72-1.117 1.129-1.64.664-.85 1.48-1.766 2.539-2.108 1.487-.48 2.6 1.068 3.46 2.024.49.543 1.018 1.114 1.692 1.424.31.142.65.216.991.195.498-.032.94-.374 1.312-.682 1.018-.843 1.845-1.908 2.635-2.957.865-1.148 1.701-2.32 2.694-3.367.405-.429.84-.997 1.422-1.187.262-.087.553-.06.807.057.14.064.266.153.376.26.122.12.27.216.41.32 1.063.805 2.047 1.713 2.976 2.669.806.83 1.575 1.7 2.31 2.598.713.877 1.401 1.77 1.997 2.738.717 1.18 1.325 2.42 1.997 3.626.612 1.102 1.233 2.375.62 3.617-.034.065-.067.13-.105.194-1.085 1.834-3.04 2.977-4.974 3.724-2.327.9-4.83 1.329-7.309 1.502-2.563.18-5.155.172-7.715-.068-2.312-.217-4.64-.63-6.815-1.469-1.818-.702-3.57-1.74-4.787-3.298a7.695 7.695 0 0 1-.825-1.31c-.035-.072-.049-.102-.035-.183zM19.19 46.44a13.398 13.398 0 0 0 2.922 3.102c1.596 1.24 3.437 2.129 5.35 2.755 2.212.725 4.526 1.112 6.841 1.304 2.685.224 5.408.22 8.085-.06 2.483-.262 4.957-.778 7.28-1.702a18.853 18.853 0 0 0 5.606-3.464c.427-.383.845-.792 1.182-1.258.292-.393.52-.827.562-1.32.046-.578-.047-1.166-.16-1.73-.127-.626-.296-1.241-.452-1.86-.06-.224-.114-.45-.165-.675-.608-2.677-1.533-5.283-2.795-7.721a28.935 28.935 0 0 0-3.91-5.766c-1.427-1.635-3.09-3.066-4.995-4.107a16.674 16.674 0 0 0-3.188-1.326 18.677 18.677 0 0 0-1.815-.446c-.156-.03-.313-.07-.473-.07H37.292c-.178 0-.355-.008-.532.013a12.55 12.55 0 0 0-1.41.255c-.605.145-1.2.335-1.781.564a16.333 16.333 0 0 0-3.285 1.77c-2.003 1.38-3.743 3.14-5.208 5.08-1.552 2.058-2.793 4.346-3.751 6.739-1.019 2.544-1.723 5.21-2.158 7.916-.056.347-.136.707-.136 1.059v.566c0 .09-.002.14.047.215l.112.167z"/></svg>