<svg xmlns="http://www.w3.org/2000/svg" baseProfile="full" viewBox="0 0 76.00 76.00"><path d="M28.94 48.083c1.803-.004 1.663-.442 1.705-1.39-.012-.893-.275-1.571-.607-1.93-.336-.35-.813-.577-1.158-.688l-.306-.084h-4.045c-.407.003-.664.086-.872.197-.206.11-.37.263-.509.443-.207.262-.331.84-.382 1.002v2.465l6.175-.015zm-6.53 8.223a4.637 4.637 0 0 1-1.555-1.552c-.668-1.097-.75-2.074-.767-2.187l-.005-.064v-7.164l.023-.125c.017-.08.11-.548.41-1.157.3-.602.826-1.874 1.75-2.415a4.453 4.453 0 0 1 2.263-.584h4.254l.09.012c.083.013.656.093 1.403.42.739.326 1.687 1.42 2.345 2.507.437.72.71 1.641.707 2.697.003 1.042-.25 1.444-.677 2.15a4.336 4.336 0 0 1-1.537 1.51c-1.091.63-2.049.664-2.167.677l-6.181.001v.569l.02.105c.026.122.074 1.052.154 1.246.162.395.427.8.852 1.053.289.17.674.309 1.304.312h5.377V57h-5.394c-1.047 0-1.957-.264-2.669-.694zm6.772-30.584c9.854.362 18.313 8.62 18.994 18.391h-2.69c-.327-4.04-2.343-7.914-5.047-10.62-2.847-2.845-6.96-4.905-11.257-5.088v-2.683zm0 6.952c6.292.348 11.373 5.233 12.026 11.44h-2.704a10.102 10.102 0 0 0-2.874-5.81 10.092 10.092 0 0 0-6.448-2.94v-2.69zm0-13.674c14.214.173 25.823 11.158 26.985 25.113h-2.693a24.657 24.657 0 0 0-7.138-15.188 24.653 24.653 0 0 0-17.154-7.242V19z"/></svg>