<svg xmlns="http://www.w3.org/2000/svg" baseProfile="full" viewBox="0 0 76.00 76.00"><path d="M42.554 32.74c1.099-2.67 3.14-8.95 3.454-10.05.314-1.1 1.1-1.256 1.57-1.256h3.77c.627 0 .98.471.824 1.256-3.965 13.975-6.635 18.058-6.635 19 0 2.355 2.513 6.752 4.868 6.752 1.413 0 1.1-2.041 2.67-2.041h2.983c.47 0 .942.47.942 1.256 0 .785-.873 6.91-6.84 6.91s-8.195-7.214-8.195-7.214c-.785 1.57-5.378 7.213-11.031 7.213C20.884 54.566 19 43.888 19 37.607c0-6.28 2.983-16.173 11.463-16.173 8.48 0 12.09 11.306 12.09 11.306zm-18.372 4.396c0 3.612-.157 11.15 6.457 11.306 3.75.157 7.204-4.554 8.843-8.322-2.267-7.851-3.837-12.562-8.862-12.562-6.752.157-6.438 9.578-6.438 9.578z"/></svg>