<svg xmlns="http://www.w3.org/2000/svg" baseProfile="full" viewBox="0 0 76.00 76.00"><path d="M39.014 51.769c-3.218 0-6.068 1.553-7.886 3.93C33.262 56.532 35.574 57 38 57c3.007 0 5.84-.714 8.367-1.96a9.902 9.902 0 0 0-7.353-3.271zM25.99 31.177a33.274 33.274 0 0 1 12.502-2.432c4.382 0 8.56.853 12.394 2.386.52.265.883.785.883 1.405 0 .883-.715 1.596-1.596 1.596-.123 0-.24-.025-.354-.05a30.277 30.277 0 0 0-22.66 0c-.114.025-.227.05-.347.05-.88 0-1.596-.713-1.596-1.596 0-.578.312-1.08.774-1.36zm23.785 7.672a1.066 1.066 0 0 1-.867.464c-.1 0-.192-.03-.285-.055a24.958 24.958 0 0 0-10.13-2.14 25 25 0 0 0-10.065 2.106 1.078 1.078 0 0 1-.351.072c-.37 0-.682-.194-.877-.481l-.206-.616a1.06 1.06 0 0 1 .376-.79 27.024 27.024 0 0 1 11.122-2.386c3.964 0 7.722.857 11.117 2.382.228.194.374.481.38.798M48.157 43.7c-.277.616-.771.743-1.35.477a19.703 19.703 0 0 0-8.316-1.828c-3.048 0-5.934.692-8.517 1.921-.276.13-.884.19-1.157-.6-.274-.785.158-1.232.407-1.346a21.812 21.812 0 0 1 9.267-2.07c3.256 0 6.39.621 9.118 1.998.431.22.824.836.547 1.448zm-22.448 8.774c2.924-4.214 7.785-6.984 13.305-6.984 5.027 0 9.503 2.297 12.475 5.886a18.93 18.93 0 0 0 5.51-13.372C57 27.508 48.495 19 38 19c-10.492 0-19 8.508-19 19.004 0 5.802 2.61 10.986 6.71 14.47z"/></svg>