<svg xmlns="http://www.w3.org/2000/svg" baseProfile="full" viewBox="0 0 76.00 76.00"><path d="M26.153 46.063a2.43 2.43 0 1 1 0 4.86 2.43 2.43 0 0 1 0-4.86zm18.633-10.532a2.43 2.43 0 1 1-2.375 1.914 1.418 1.418 0 0 0 1.859-1.859c.166-.036.339-.055.516-.055zm-12.557 2.43a2.43 2.43 0 1 1-2.266 1.55 1.418 1.418 0 0 0 1.86-1.347l-.009-.167.415-.035zM37.939 19l1.525 10.855-5.27.74-1.525-10.854 5.27-.741zM22.507 48.088c-3.59-5.523-2.097-8.033-.783-9.072a16.982 16.982 0 0 1 6.319-12.283l-.675-4.802 4.11-.577.812 5.783-.954.502c-4.196 2.512-7.006 7.102-7.006 12.348 0 1.026.107 2.026.312 2.99l.7 1.87c-2.43 0-2.835 3.241-2.835 3.241zm33.216-8.101C55.723 49.383 48.106 57 38.71 57a16.945 16.945 0 0 1-10.964-4.004c-.343-.289-.392-.955.223-1.716.614-.761 1.607-.181 1.866.022a14.318 14.318 0 0 0 8.875 3.065c7.942 0 14.38-6.438 14.38-14.38 0-7.083-5.12-12.97-11.86-14.16l-.9-.037-.81-5.857 4.304-.605.653 4.648c6.558 2.363 11.246 8.64 11.246 16.011zm-18.33 9.317c-4.151 0-6.075-1.317-6.075-2.127 0-2.43 2.227 0 6.582 0s8.101-3.038 8.507-3.443c.405-.405 2.43-.101 1.215 1.823-2.836 2.531-6.076 3.747-10.228 3.747z"/></svg>