<svg xmlns="http://www.w3.org/2000/svg" baseProfile="full" viewBox="0 0 76.00 76.00"><path d="M27.326 56.584c3.2-.139 7.089 0 10.879 0 3.912 0 7.918-.26 11.073 0 1.274.105 2.447.869 3.497.193.811-1.044.21-2.446.39-3.85.34-2.667 2.799-5.864-.779-6.545-1.524 1.39-.496 2.707-1.359 4.428-1.045 2.082-4.789 2.803-8.354 3.08-3.06.236-8.422.543-9.52-1.54-.926-1.76-.389-4.487-.389-6.738 0-2.546-.273-4.983.39-6.93 3.886.284 8.913-1.295 11.656.385 1.835 1.125.792 3.326 2.914 4.042 1.461-.392.681-2.28.583-4.042-.063-1.136-.058-2.731 0-4.043.078-1.77.761-3.823-1.167-3.85-1.514 1.178-.375 3.139-1.942 4.235-.501.351-1.589.5-2.33.578-2.911.308-7.479.057-9.91-.385-.334-3.548-.305-8.382 0-11.935 1.32-1.31 4.355-1.355 6.412-1.347 3.604.014 9.224.314 10.297 2.117.583.981.12 3.035 1.165 3.272 2.103.48 1.08-3.27 1.166-5.005.064-1.3.639-2.137.388-3.08-.68-.93-1.694-.463-2.33-.384-6.612.817-16.652.384-23.702.384-.841 0-2.312-.42-2.914.578-.406 2.224 2.629 1.304 3.691 2.502.346.39.856 2.111.971 3.273.308 3.085 0 7.797 0 12.32 0 4.78.363 9.6 0 12.513-.126 1.017-.74 2.655-.97 2.887-1.324 1.322-4.823-.142-4.47 2.696 1.23.827 3.01.264 4.664.191z"/></svg>