<svg xmlns="http://www.w3.org/2000/svg" baseProfile="full" viewBox="0 0 76.00 76.00"><path fill-rule="evenodd" d="M43.151 29.773c-2.959 0-5.432-2.42-5.432-5.404 0-2.986 2.474-5.405 5.432-5.405 2.957 0 5.47 2.42 5.47 5.405 0 2.985-2.513 5.404-5.47 5.404zm-.687 13.584c3.94 1.916 8.077 5.434 9.762 9.501-2.161 1.752-2.442 1.97-4.982 4.106-2.447-4.71-5.41-7.306-9.461-8.345-2.379 3.065-6.25 6.645-12.306 8.297-1.35-2.856-1.717-3.663-2.628-5.818 4.842-1.123 6.607-2.654 8.978-7.194-.17-5.513 1.247-10.932 4.781-13.1 1.838.602 4.877 2.414 5.741 2.689-.122.56.28 1.195 1.764 1.52 1.126.246 3.774.635 6.33-1.683a71.108 71.108 0 0 1 2.806 4.737s-4.892 4.858-10.68 3.332c-.04.755-.068.996-.105 1.958z"/></svg>