<svg xmlns="http://www.w3.org/2000/svg" baseProfile="full" viewBox="0 0 76.00 76.00"><path d="M49.413 49.198c-3.956-.016-6.068-1.965-7.533-5.4l-.418-.936-3.614-8.295c-1.195-2.936-4.172-4.92-7.528-4.92-4.54 0-8.22 3.709-8.22 8.282 0 4.574 3.68 8.283 8.22 8.283 3.166 0 5.923-1.803 7.296-4.447l1.465 3.394a11.276 11.276 0 0 1-8.761 4.17c-6.25 0-11.32-5.1-11.32-11.4 0-6.295 5.07-11.4 11.32-11.4 4.72 0 8.533 2.536 10.467 7.033.147.348 2.047 4.823 3.707 8.63 1.026 2.357 1.9 3.92 4.737 4.017 2.791.096 4.704-1.613 4.704-3.774 0-2.111-1.457-2.618-3.923-3.444-4.429-1.469-6.717-2.945-6.717-6.482 0-3.45 2.33-5.75 6.118-5.75 2.47 0 4.251 1.105 5.484 3.31l-2.419 1.244c-.916-1.285-1.921-1.793-3.2-1.793-1.778 0-3.045 1.246-3.045 2.902 0 2.35 2.086 2.706 5.008 3.67 3.93 1.29 5.759 2.762 5.759 6.44 0 3.86-3.29 6.672-7.587 6.666z"/></svg>