<svg xmlns="http://www.w3.org/2000/svg" baseProfile="full" viewBox="0 0 76.00 76.00"><path d="M37.238 32.03v14.035h15.137v-.017C55.563 45.844 57 43.864 57 41.453c0-2.55-1.926-4.61-4.519-4.61-.666 0-1.213.134-1.792.383-.415-4.045-3.847-7.207-8.073-7.207-2.067 0-3.946.76-5.378 2.01zm-1.513 1.756a6.88 6.88 0 0 0-1.674-.713v12.992h2.39V32.828c-.262.3-.501.625-.716.958zm-4.065-.933v13.212h1.594V32.904a6.564 6.564 0 0 0-1.005-.072c-.2 0-.396.008-.59.021zm-3.186 1.115v12.096h1.593V33.188c-.57.19-1.104.456-1.593.78zm-2.854 4.361c-.11-.067-.217-.135-.334-.194v7.93h1.593V35.463a6.535 6.535 0 0 0-1.26 2.866zm-3.52-.523v8.098c.377.106.773.16 1.183.16h.41v-8.402a4.346 4.346 0 0 0-1.594.144zM19 41.855c0 1.283.585 2.432 1.506 3.209v-6.418A4.18 4.18 0 0 0 19 41.855z"/></svg>