<svg xmlns="http://www.w3.org/2000/svg" baseProfile="full" viewBox="0 0 76.00 76.00"><path d="M52.052 35.735c-.274-.891-2.177-3.513-3.208-4.404-1.03-.9-2.209-.785-2.872 0l-3.924 4.674c-.665.79-.843 2.035-.4 2.77.444.734 1.626 1.148 2.628.924l6.787-1.258c1.225-.296 1.268-1.816.99-2.706zm-1.482 9.888l-6.088-1.748c-.988-.287-2.108-.257-2.488.063-.38.317-.285 1.322.211 2.226l3.843 7.034c.497.903 2.484.751 3.031-.131 0 0 2.316-3.416 2.742-4.695.426-1.284-.265-2.466-1.251-2.749zM38.5 46.978c.02-1.038-.533-1.933-1.23-1.997-.7-.063-1.807.532-2.468 1.322l-4.856 5.822c-.661.79-.333 2.652.63 3.002l5.079 1.765c.966.35 2.668-.692 2.688-1.727M26.358 45.75l6.96-2.466c.97-.342 1.84-1.3 1.937-2.132.094-.832-.61-1.816-1.568-2.196l-7.352-2.917c-.957-.376-2.061.519-2.353 1.988 0 0-.175 5.114 0 6.169.178 1.06 1.406 1.896 2.376 1.554zm2.296-25.06c1.917-1.507 5.6-1.937 7.118-1.642 1.517.292 2.31 1.14 2.32 2.175l.087 13.177c.006 1.035-.53 1.985-1.195 2.111-.668.127-1.651-.49-2.192-1.367l-6.914-11.3c-.536-.882-1.617-1.27.776-3.153z"/></svg>