<svg xmlns="http://www.w3.org/2000/svg" baseProfile="full" viewBox="0 0 76.00 76.00"><path d="M39.616 54.033c-.337 2.504-2.586 4.267-5.026 3.94-2.437-.328-4.139-2.624-3.802-5.127.338-2.502 2.585-4.264 5.022-3.936 2.439.329 4.141 2.621 3.806 5.123zm2.02-12.52l.203-.664-3.072-.7-5.366-1.224-.049 1.68.05 1.65 3.035.648 3.425.73.861.183.055.012.28-.646.578-1.669zm-7.827-6.728l-.097.711 7.405-6.259-3.09-.698-2.489-.562c-.042-.01-.456 1.332-.499 1.463l-.51 1.76c-.286 1.185-.476 2.39-.72 3.585zm3.088-9.93l-.385.774 6.704 1.534c-.099-1.108-.308-2.265-.671-3.319-.274-.795-.656-1.751-1.358-2.27-.821-.607-1.774.022-2.39.619-.798.772-1.346 1.712-1.9 2.662zM35.693 36.75l1.175.26 5.61 1.244c.29-1.387.544-2.788.703-4.196.157-1.4.201-2.81.186-4.217l-7.674 6.909zm5.545-18.72c2.078.442 3.048 2.531 3.501 4.408.502 2.074.575 4.247.506 6.37a54.033 54.033 0 0 1-.78 7.464 48.472 48.472 0 0 1-1.804 7.147c-.37 1.107-.775 2.205-1.28 3.258l-.842 1.53-.312-.245-.36-.256-.728-.455c-1.027-.588-2.121-.947-3.305-1.028-1.098-.075-2.266-.02-3.343.21l-.203.02-.093-.431-.15-.872-.181-1.839a41.006 41.006 0 0 1-.034-3.739c.083-2.522.373-5.036.84-7.515.455-2.41 1.039-4.819 1.87-7.129.625-1.742 1.395-3.521 2.556-4.982 1.008-1.268 2.45-2.276 4.142-1.916z"/></svg>