<svg xmlns="http://www.w3.org/2000/svg" baseProfile="full" viewBox="0 0 76.00 76.00"><path d="M55.71 34.156L36.685 49.131l-7.165-6.346c-.66.193-1.36.299-2.084.299-4 0-7.242-3.149-7.242-7.035 0-3.883 3.242-7.034 7.242-7.034s7.244 3.15 7.244 7.034c0 1.042-.24 2.03-.66 2.92l2.93 4.742 18.775-19.355M57 21.745l-14.215 14.5-5.112-4.927-2.143 2.063c-1.139-3.245-4.312-5.58-8.04-5.58-4.685 0-8.49 3.688-8.49 8.237 0 4.512 3.73 8.173 8.36 8.236l10.277 9.982 11.806-11.469-1.127-1.168L57 34.899V21.744z"/></svg>