<svg xmlns="http://www.w3.org/2000/svg" baseProfile="full" viewBox="0 0 76.00 76.00"><path d="M38 19c-10.492 0-19 8.506-19 19 0 7.78 4.678 14.464 11.373 17.402-.053-1.326-.01-2.919.33-4.363.366-1.542 2.446-10.353 2.446-10.353s-.608-1.213-.608-3.006c0-2.816 1.633-4.919 3.665-4.919 1.728 0 2.563 1.299 2.563 2.853 0 1.737-1.108 4.336-1.678 6.743-.476 2.015 1.01 3.66 3 3.66 3.599 0 6.023-4.624 6.023-10.103 0-4.164-2.804-7.28-7.905-7.28-5.764 0-9.355 4.297-9.355 9.098 0 1.656.488 2.823 1.253 3.727.351.415.4.582.273 1.06-.091.349-.3 1.19-.387 1.524-.127.481-.516.653-.951.475-2.655-1.083-3.892-3.99-3.892-7.258 0-5.398 4.553-11.87 13.58-11.87 7.254 0 12.029 5.25 12.029 10.885 0 7.453-4.144 13.021-10.252 13.021-2.052 0-3.981-1.109-4.642-2.368 0 0-1.103 4.378-1.337 5.223-.403 1.465-1.191 2.93-1.912 4.07 1.709.505 3.514.78 5.385.78C48.493 57 57 48.494 57 38c0-10.494-8.507-19-19-19z"/></svg>