<svg xmlns="http://www.w3.org/2000/svg" baseProfile="full" viewBox="0 0 76.00 76.00"><path d="M46 54h12v3H46v-3zm6-14.25L58.25 46H55v7h-6v-7h-3.25L52 39.75zM35.042 25.906l-11.366 6.923L16.5 26.97l11.374-6.999 7.168 5.934zm11.824 21.15L35.96 53.75V41.045l7.245 5.934 1.796-.97V47h1.866v.055zM24.134 45l3.664 1.978 7.244-5.934V53.75l-10.908-6.695v-2.054zm10.152-4.564l-6.335 5.477-10.916-6.39 6.564-5.554 10.687 6.467zm8.765 5.477l-6.337-5.477 10.687-6.467 6.565 5.554-.279.163L52 38l-6.452 6.452-2.497 1.462zm4.274-13.085L35.96 25.906l7.168-5.934L54.5 26.971l-7.175 5.858z"/></svg>