<svg xmlns="http://www.w3.org/2000/svg" baseProfile="full" viewBox="0 0 76.00 76.00"><path d="M28.908 44.824a2.293 2.293 0 0 1 2.302-2.28h13.542a2.29 2.29 0 0 1 2.29 2.28 2.3 2.3 0 0 1-2.29 2.28H31.21c-1.273 0-2.302-1.042-2.302-2.28zm2.302-15.997h6.664a2.3 2.3 0 0 1 2.303 2.289c0 1.25-1.03 2.291-2.303 2.291H31.21a2.306 2.306 0 0 1-2.302-2.291 2.3 2.3 0 0 1 2.302-2.29zm13.658 28.137c6.613 0 11.985-5.386 12.022-11.963l.074-9.684-.111-.526-.318-.663-.537-.416c-.698-.548-4.234.037-5.187-.828-.674-.617-.78-1.732-.985-3.242-.38-2.926-.619-3.079-1.077-4.07-1.665-3.523-6.182-6.17-9.286-6.536h-8.407c-6.613 0-12.02 5.395-12.02 11.984V45c0 6.578 5.407 11.964 12.02 11.964h13.812z"/></svg>