<svg xmlns="http://www.w3.org/2000/svg" baseProfile="full" viewBox="0 0 76.00 76.00"><path d="M47.838 21.8v22.508h8.086A19.015 19.015 0 0 0 57 38.038c0-6.616-3.51-12.793-9.162-16.239zM28.22 54.301V37.928c-.634.583-7.632 6.954-7.85 7.153 1.523 3.825 4.302 7.072 7.85 9.221zm1.123-33.191C22.963 24.39 19 30.86 19 38.038c0 1.638.246 3.298.69 4.949.517-.473 16.514-15.036 16.843-15.336-.322-.291-6.974-6.342-7.19-6.54zm16.49-.405A18.8 18.8 0 0 0 38 19c-2.264 0-4.492.439-6.634 1.241.502.456 13.822 12.57 14.468 13.16V20.707zM30.216 46.314h24.852C52.156 52.334 46.297 56.388 39.732 57H36.25a19.019 19.019 0 0 1-6.033-1.6v-9.086z"/></svg>