<svg xmlns="http://www.w3.org/2000/svg" baseProfile="full" viewBox="0 0 76.00 76.00"><path d="M46 54h12v3H46v-3zm6-.75L45.75 47H49v-7h6v7h3.25L52 53.25zM35.042 25.906l-11.366 6.923L16.5 26.97l11.374-6.999 7.168 5.934zM46.866 45V46h-1.85l1.85-.999zM35.96 53.75V41.045l7.245 5.934.503-.272 1.417 1.417-9.165 5.626zm-11.825-8.749l3.664 1.978 7.244-5.934V53.75l-10.908-6.695v-2.054zm10.152-4.564l-6.335 5.477-10.916-6.39 6.564-5.554 10.687 6.467zm8.765 5.477l-6.337-5.477 10.687-6.467L53.347 39H48v4.017l-4.95 2.897zm4.274-13.085L35.96 25.906l7.168-5.934L54.5 26.971l-7.175 5.858z"/></svg>