<svg xmlns="http://www.w3.org/2000/svg" baseProfile="full" viewBox="0 0 76.00 76.00"><path d="M41.25 40L28 53.25 14.75 40h26.5zm20-4h-26.5L48 22.75 61.25 36zM24 36V23.234l-1.022.465-.922.321-.978.222-1.088.156V20.44l1.54-.349 1.49-.518 1.49-.73c.499-.281 1.012-.474 1.54-.843H29v18h-5zm32.115 12.401c0 1.335-.155 2.603-.465 3.804-.31 1.2-.793 2.252-1.448 3.155a7.096 7.096 0 0 1-2.53 2.151c-1.03.532-2.263.798-3.699.798l-1.395-.073-1.15-.18-.89-.224-.634-.216v-4.07l.576.31.817.29.958.216.99.087c1.237 0 2.184-.342 2.84-1.027.656-.685.992-1.69 1.007-3.018h-.075a3.773 3.773 0 0 1-1.366 1.083c-.556.267-1.23.401-2.022.401a4.608 4.608 0 0 1-3.315-1.403c-.445-.458-.644-.994-.912-1.67C43.134 48.14 43 47.369 43 46.5c0-1.056.17-1.99.513-2.8.341-.812.652-1.523 1.246-2.072a5.908 5.908 0 0 1 2.096-1.243 7.827 7.827 0 0 1 2.59-.42c.47 0 .963.054 1.48.161.515.107 1.018.287 1.51.538.49.252.958.588 1.402 1.008.445.42.837.943 1.176 1.57.34.626.608 1.364.806 2.214.197.85.296 1.831.296 2.945zm-5.22-2.312l-.094-.78-.279-.7a1.562 1.562 0 0 0-.463-.507 1.14 1.14 0 0 0-.66-.19c-.447 0-.816.18-1.11.537-.292.357-.439.912-.439 1.664 0 .7.145 1.23.434 1.593.289.363.652.545 1.09.545.264 0 .49-.056.68-.167.188-.11.344-.265.468-.463l.28-.693.092-.839z"/></svg>