<svg xmlns="http://www.w3.org/2000/svg" baseProfile="full" viewBox="0 0 76.00 76.00"><path d="M31.667 20.584h3.168l9.5-7.917v26.92l-9.5-9.501h-3.168a3.167 3.167 0 0 1-3.167-3.167V23.75a3.167 3.167 0 0 1 3.167-3.167zM57 26.251c0 3.464-1.59 6.557-4.078 8.59l-2.256-2.256a7.906 7.906 0 0 0 3.167-6.334c0-2.59-1.244-4.89-3.167-6.335l2.256-2.255A11.063 11.063 0 0 1 57 26.25zm-6.334 0a4.753 4.753 0 0 1-3.283 4.52l-1.468-2.937a1.584 1.584 0 1 0 0-3.167l1.468-2.936a4.753 4.753 0 0 1 3.283 4.52zm-6.333 18.087a3.167 3.167 0 0 1 3.167 3.167v3.167a3.167 3.167 0 0 1-3.167 3.168h-3.168l-9.501 9.5V36.42l9.501 7.918h3.168zM19 50.004c0-3.464 1.59-6.557 4.078-8.59l2.256 2.256a7.906 7.906 0 0 0-3.167 6.334c0 2.59 1.244 4.89 3.167 6.335l-2.256 2.256A11.063 11.063 0 0 1 19 50.005zm6.334 0a4.753 4.753 0 0 1 3.283-4.52l1.468 2.937a1.584 1.584 0 0 0 0 3.167l-1.468 2.936a4.753 4.753 0 0 1-3.283-4.52z"/></svg>