<svg xmlns="http://www.w3.org/2000/svg" baseProfile="full" viewBox="0 0 76.01 76.01"><path d="M20.586 33.255h6.334l9.502-7.918v26.92l-9.502-9.501h-6.334a3.167 3.167 0 0 1-3.167-3.167v-3.167a3.167 3.167 0 0 1 3.167-3.167zm30.088 4.75c0 3.465-1.59 6.558-4.079 8.59L44.34 44.34a7.906 7.906 0 0 0 3.167-6.335c0-2.59-1.244-4.89-3.167-6.334l2.255-2.256a11.063 11.063 0 0 1 4.079 8.59zm-6.334 0a4.753 4.753 0 0 1-3.283 4.52l-1.468-2.936a1.584 1.584 0 0 0 0-3.167l1.468-2.936a4.753 4.753 0 0 1 3.282 4.52z"/></svg>