<svg xmlns="http://www.w3.org/2000/svg" baseProfile="full" viewBox="0 0 76.00 76.00"><path d="M31.667 20.584h3.168l9.5-7.917v26.92l-9.5-9.501h-3.168a3.167 3.167 0 0 1-3.167-3.167V23.75a3.167 3.167 0 0 1 3.167-3.167zM57 26.251c0 3.464-1.59 6.557-4.078 8.59l-2.256-2.256a7.906 7.906 0 0 0 3.167-6.334c0-2.59-1.244-4.89-3.167-6.335l2.256-2.255A11.063 11.063 0 0 1 57 26.25zm-6.334 0a4.753 4.753 0 0 1-3.283 4.52l-1.468-2.937a1.584 1.584 0 1 0 0-3.167l1.468-2.936a4.753 4.753 0 0 1 3.283 4.52zm-6.333 18.087a3.167 3.167 0 0 1 3.167 3.167v3.167a3.167 3.167 0 0 1-3.167 3.168h-3.168l-9.501 9.5V36.42l9.501 7.918h3.168zM19 50.004c0-3.464 1.59-6.557 4.078-8.59l2.256 2.256a7.906 7.906 0 0 0-3.167 6.334c0 2.59 1.244 4.89 3.167 6.335l-2.256 2.256A11.063 11.063 0 0 1 19 50.005zm6.334 0a4.753 4.753 0 0 1 3.283-4.52l1.468 2.937a1.584 1.584 0 0 0 0 3.167l-1.468 2.936a4.753 4.753 0 0 1-3.283-4.52zm-9.5-16.9V19.059l1.744-.202 2.241-.08c1.959-.027 3.39.329 4.292 1.067.806.647 1.214 1.63 1.224 2.95-.026.908-.27 1.66-.733 2.255-.463.596-.99 1.006-1.578 1.23v.063c.451.2.815.526 1.092.976.277.45.495 1.01.655 1.68l.586 2.465.474 1.643h-3.04c-.21-.448-.512-1.574-.905-3.377-.179-.895-.437-1.508-.775-1.839-.338-.33-.815-.492-1.43-.484h-.895v5.7h-2.952zm2.952-11.926v3.931h1.192c.761-.008 1.35-.194 1.769-.56.418-.367.63-.867.636-1.501-.006-.65-.203-1.141-.591-1.474-.389-.334-.933-.501-1.635-.503l-1.371.107zM50.67 56.847v-14.11h2.951v11.408h5.32v2.702H50.67z"/></svg>