<svg xmlns="http://www.w3.org/2000/svg" baseProfile="full" viewBox="0 0 76.00 76.00"><path d="M25.333 20.583a3.167 3.167 0 1 0 0 6.334 3.167 3.167 0 0 0 0-6.334zm0-4.75A7.917 7.917 0 0 1 28.5 31.008v13.984a7.919 7.919 0 0 1-3.167 15.175 7.917 7.917 0 0 1-3.166-15.175V31.008a7.919 7.919 0 0 1 3.166-15.175zm0 33.25a3.167 3.167 0 1 0 0 6.334 3.167 3.167 0 0 0 0-6.334zM42.75 26.917v4.75l-7.917-7.917 7.917-7.917v4.75h4.75a6.333 6.333 0 0 1 6.333 6.334v18.075a7.919 7.919 0 0 1-3.166 15.175A7.917 7.917 0 0 1 47.5 44.992V30.083a3.167 3.167 0 0 0-3.167-3.166H42.75zm7.917 22.166a3.167 3.167 0 1 0 0 6.334 3.167 3.167 0 0 0 0-6.334z"/></svg>