<svg xmlns="http://www.w3.org/2000/svg" baseProfile="full" viewBox="0 0 76.00 76.00"><path d="M55.417 39.583a6.333 6.333 0 0 1-6.334 6.334H36.417a7.917 7.917 0 1 1-7.917-.925V31.008a7.919 7.919 0 0 1 3.167-15.175 7.917 7.917 0 0 1 3.166 15.175v8.575h11.084a3.167 3.167 0 0 0 3.166-3.166v-2.242A7.919 7.919 0 0 1 52.25 19a7.917 7.917 0 0 1 3.167 15.175v5.408zM52.25 23.75a3.167 3.167 0 1 0 0 6.333 3.167 3.167 0 0 0 0-6.333zm-20.583-3.167a3.167 3.167 0 1 0 0 6.334 3.167 3.167 0 0 0 0-6.334zm0 28.5a3.167 3.167 0 1 0 0 6.334 3.167 3.167 0 0 0 0-6.334z"/></svg>