<svg xmlns="http://www.w3.org/2000/svg" baseProfile="full" viewBox="0 0 76.00 76.00"><path d="M55.487 38.343l-.385-3.144 9.429-1.157.386 3.143-9.43 1.157zm-2.073-9.447l-2.353-2.12 6.356-7.059 2.354 2.119-6.357 7.06zm.815 18.212l1.186-2.936 8.809 3.559-1.187 2.936-8.808-3.56zM14.25 36.417l3.531-1.59 1.517 13.145-3.465-.472-1.583-11.083zm31.667-14.25c2.639 4.75 5.277 9.5 6.07 14.514.79 5.014-.265 10.291-1.32 15.569l-15.21-2.074-1.415 4.449h-7.917l-1.342-5.905-3.289-.448-1.657-14.37 26.08-11.735zM28.104 52.25h3.959l.847-2.421-5.602-.764.796 3.185z"/></svg>