<svg xmlns="http://www.w3.org/2000/svg" baseProfile="full" viewBox="0 0 76.00 76.00"><path d="M43.5 21.029l5.184 4.365 1.685-.471a17.99 17.99 0 0 0-6.874-4.069l.005.175zM53.601 39.33l-1.03 6.197 1.285 1A17.92 17.92 0 0 0 56 38.018l-2.399 1.313zm-9.78 9.429l-5.434-3.866-6.214 2.331-1.53 6.447 1.916 1.491c1.717.544 3.545.837 5.441.837 1.704 0 3.352-.237 4.914-.679l.907-6.561zm-14.28 4.697l1.53-6.447-5.684-4.366-4.297 1.538a18.06 18.06 0 0 0 7.996 9.46l.455-.185zm-4-11.894l.78-7.447-4.766-3.446C20.555 32.909 20 35.39 20 38c0 1.838.276 3.612.788 5.283l4.753-1.72zm1.465-7.919l6.214-2.581 1.28-6.697-3.772-2.836a18.071 18.071 0 0 0-8.83 8.416l5.108 3.698zM51.72 45.207l1.03-6.197-5.934-4.616-6.465 2.331-1.03 7.447 5.435 3.866 6.964-2.831zm-5.25-11.75l1.03-7.447-5.184-4.366-6.965 2.832-1.28 6.697 5.935 4.615 6.464-2.331zM38 18c11.046 0 20 8.954 20 20s-8.954 20-20 20-20-8.954-20-20 8.954-20 20-20z"/></svg>