<svg xmlns="http://www.w3.org/2000/svg" baseProfile="full" viewBox="0 0 76.00 76.00"><path d="M19.392 37.544c.23-6.07 3.305-11.668 8.929-15.368.016.006.162-.047.096.079-.446.413-8.455 9.874-1.083 17.342 0 0 3.873 3.723 6.876.19 0 0 2.965-3.837-.037-9.653 0 0-.76-1.9-3.497-3.077l2.205-2.432s1.863.799 3.305 2.967c0 0 .077-2.283-1.672-4.715L37.932 19l3.383 3.841s-1.555 2.204-1.67 4.787c0 0 1.062-1.748 3.344-3.003l2.164 2.432s-2.081.685-3.475 3.052c-1.2 2.192-2.122 6.882.053 9.758 0 0 2.435 3.453 6.719-.204 0 0 7.876-7.057-.808-17.26 0 0-.474-.418.059-.19 3.837 2.794 8.433 6.479 8.907 15.675C56.421 49.039 48.954 57 38.048 57c-10.677 0-18.977-8.91-18.656-19.456z"/></svg>