<svg xmlns="http://www.w3.org/2000/svg" baseProfile="full" viewBox="0 0 76.00 76.00"><path d="M53.042 31.667a3.958 3.958 0 1 1 0 7.916 3.958 3.958 0 0 1 0-7.916zm-31.667-1.584a5.542 5.542 0 0 1 5.542 5.542l-.03.581 11.728 6.082a5.517 5.517 0 0 1 3.343-1.121l3.959-5.542a7.125 7.125 0 1 1 7.125 7.125L47.5 46.708a5.542 5.542 0 1 1-11.08-.207l-12.019-6.233a5.542 5.542 0 1 1-3.026-10.185zm22.228 14.792a2.375 2.375 0 0 1-2.157 4.233l-3.395-1.761a3.96 3.96 0 1 0 2.2-4.21l3.352 1.738zM21.375 31.667a3.958 3.958 0 1 0 1.29 7.701l-2.627-1.363a2.375 2.375 0 1 1 2.156-4.232l3.133 1.624a3.959 3.959 0 0 0-3.952-3.73zm31.667-1.584a5.542 5.542 0 1 0 0 11.084 5.542 5.542 0 0 0 0-11.084z"/></svg>