<svg xmlns="http://www.w3.org/2000/svg" baseProfile="full" viewBox="0 0 76.00 76.00"><path d="M19 39.5c0 1.38 2.12 2.5 3.5 2.5s2-1.12 2-2.5L25 25h-5l-1 14.5zM52 43c-1.044 0-1.463-.533-2-1.341-.538.808-1.957 1.341-3 1.341h-1c-1.044 0-1.713-.533-2.25-1.341C43.212 42.467 42.044 43 41 43h-1c-1.044 0-2.213-.533-2.75-1.341-.08.12-.168.234-.264.341H37v11h15V43zm-17.25 0h-1c-1.044 0-2.213-.533-2.75-1.341A2.997 2.997 0 0 1 28.5 43h-1A2.997 2.997 0 0 1 25 41.66c-.538.808-.957 1.341-2 1.341h-1c-.768 0-1.47-.289-2-.764V58h2V45h11v13h23V41.832c-.832.71-2.033 1.168-3 1.168v12H36V42.728c-.38.175-.804.272-1.25.272zM18 58V22h40v38H18v-2zm13.5-18.5c0 1.38 1.37 2.5 2.75 2.5a2.5 2.5 0 0 0 2.5-2.5L37 25h-5l-.5 14.5zm12.75 0c0 1.38.87 2.5 2.25 2.5s3-1.12 3-2.5L49 25h-5l.25 14.5zM31 58V47h-7v11h7zm9.343-7.609l-.682-.731 3.657-3.41.682.731-3.657 3.41zm6.25-1l-.682-.731 3.657-3.41.682.731-3.657 3.41zM30 51v3h-2v-3h2z"/></svg>