<svg xmlns="http://www.w3.org/2000/svg" baseProfile="full" viewBox="0 0 76.00 76.00"><path d="M57.72 34h-3.667l-.96-2.987h-5.496L46.647 34H43l5.43-14.933h3.983L57.72 34zm-5.523-5.973l-1.567-4.95a6.154 6.154 0 0 1-.253-1.344h-.084a4.843 4.843 0 0 1-.263 1.3l-1.597 4.994h3.764zM19.207 57V42.067h5.46c1.673 0 2.96.304 3.858.913.899.609 1.348 1.467 1.348 2.573a3.03 3.03 0 0 1-.82 2.105c-.546.602-1.245 1.02-2.096 1.255v.044c1.08.13 1.942.524 2.588 1.178.645.654.968 1.452.968 2.392 0 1.373-.493 2.462-1.48 3.266C28.047 56.598 26.7 57 24.99 57h-5.783zm3.413-12.373v3.413h1.443c.678 0 1.211-.162 1.6-.487.39-.324.584-.77.584-1.34 0-1.057-.8-1.586-2.397-1.586h-1.23zm0 5.973v3.84h1.803c.77 0 1.372-.176 1.809-.528.436-.353.655-.833.655-1.442 0-.582-.215-1.04-.644-1.372-.429-.332-1.029-.498-1.8-.498H22.62zm10.143-30.864a18.913 18.913 0 0 1 11.23.232l-2.826 3.367a14.933 14.933 0 0 0-7.302.246c-5.136 1.473-8.875 5.451-10.27 10.227l7.394-2.12-2.743 4.948-9.612 2.756-2.757-9.613 2.743-4.947 1.746 6.091c2.111-5.25 6.536-9.506 12.397-11.187zm10.474 36.528a18.912 18.912 0 0 1-11.23-.232l2.826-3.367c2.34.508 4.838.46 7.302-.246 5.136-1.473 8.875-5.451 10.27-10.227l-7.394 2.12 2.743-4.948 9.613-2.756 2.756 9.613-2.743 4.947-1.746-6.091c-2.111 5.25-6.536 9.506-12.397 11.187z"/></svg>