<svg xmlns="http://www.w3.org/2000/svg" baseProfile="full" viewBox="0 0 76.00 76.00"><path d="M21 19h34v4H21v-4zm16.842 37.953c-4.486 0-8.078-1.475-10.777-4.427-2.699-2.951-4.048-6.79-4.048-11.517 0-5.081 1.375-9.134 4.126-12.159 2.75-3.024 6.494-4.537 11.23-4.537 4.368 0 7.888 1.469 10.558 4.406 2.67 2.937 4.006 6.777 4.006 11.518 0 5.152-1.369 9.226-4.105 12.222-2.737 2.996-6.4 4.494-10.99 4.494zm.262-29.466c-3.263 0-5.913 1.21-7.95 3.633-2.038 2.423-3.057 5.606-3.057 9.549 0 3.938.992 7.108 2.978 9.51 1.986 2.4 4.577 3.601 7.774 3.601 3.41 0 6.097-1.145 8.061-3.435 1.964-2.29 2.947-5.495 2.947-9.612 0-4.222-.954-7.485-2.862-9.79-1.908-2.304-4.538-3.456-7.89-3.456z"/></svg>