<svg xmlns="http://www.w3.org/2000/svg" baseProfile="full" viewBox="0 0 76.00 76.00"><path d="M26.45 54.975v-5.158a10.18 10.18 0 0 0 2.133 1.562c.828.464 1.7.854 2.617 1.171.917.317 1.838.563 2.762.738.925.175 1.78.262 2.563.262 2.706 0 4.725-.512 6.058-1.537 1.334-1.026 2-2.5 2-4.421 0-1-.223-1.873-.67-2.617-.448-.744-1.064-1.422-1.85-2.033-.787-.611-1.717-1.199-2.792-1.763L36.954 40H19v-4h11.08a14.199 14.199 0 0 1-.926-.817 9.245 9.245 0 0 1-1.983-2.758c-.48-1.028-.721-2.233-.721-3.617 0-1.694.38-3.168 1.137-4.42a9.635 9.635 0 0 1 2.988-3.096c1.233-.811 2.639-1.416 4.217-1.813a19.688 19.688 0 0 1 4.825-.596c3.733 0 6.455.492 8.166 1.475v4.925c-2.216-1.777-5.064-2.666-8.541-2.666-.961 0-1.923.102-2.884.308-.96.206-1.816.542-2.566 1.008a5.79 5.79 0 0 0-1.834 1.8c-.472.734-.708 1.628-.708 2.684 0 .95.18 1.77.538 2.462.358.692.887 1.322 1.587 1.892.7.57 1.553 1.122 2.558 1.658L39.03 36H57v4H45.674c.257.22.505.445.743.675.91.883 1.633 1.86 2.166 2.93.534 1.069.8 2.295.8 3.678 0 1.834-.365 3.385-1.096 4.654a8.904 8.904 0 0 1-2.954 3.096c-1.239.795-2.668 1.368-4.287 1.721-1.62.353-3.327.53-5.121.53l-2.217-.155a28.644 28.644 0 0 1-2.691-.45 20.624 20.624 0 0 1-2.6-.733c-.817-.292-1.473-.615-1.967-.971z"/></svg>