<svg xmlns="http://www.w3.org/2000/svg" baseProfile="full" viewBox="0 0 76.00 76.00"><path d="M27 58V20h11.994c3.658 0 6.555.794 8.69 2.384 2.134 1.588 3.202 3.658 3.202 6.208 0 2.132-.601 3.986-1.803 5.56-1.201 1.575-2.862 2.694-4.983 3.355v.11c2.556.3 4.597 1.276 6.124 2.927 1.527 1.65 2.29 3.797 2.29 6.438 0 3.28-1.27 5.936-3.808 7.969C46.166 56.983 42.96 58 39.087 58H27zm6.014-33.114v10.857h4.487c2.143 0 3.824-.519 5.043-1.557 1.218-1.037 1.827-2.506 1.827-4.406 0-3.263-2.126-4.894-6.378-4.894h-4.979zm0 15.743v12.485h5.768c2.301 0 4.08-.564 5.335-1.692C45.372 50.294 46 48.74 46 46.762c0-4.09-2.675-6.133-8.024-6.133h-4.962z"/></svg>