<svg xmlns="http://www.w3.org/2000/svg" baseProfile="full" viewBox="0 0 76.00 76.00"><path d="M41.5 49a5.5 5.5 0 1 1-6.5-5.41V31h2v12.59c2.56.471 4.5 2.714 4.5 5.41zm3.5 0a9 9 0 1 1-13-8.064V22a4 4 0 1 1 8 0v18.935A9 9 0 0 1 45 49zm-11-6.71a7 7 0 1 0 4 0V22a2 2 0 0 0-4 0v20.29zM31 21v1h-6v-1h6zm0 3v1h-4v-1h4zm0 3v1h-6v-1h6zm0 3v1h-4v-1h4zm0 3v1h-6v-1h6zm0 3v1h-4v-1h4zm0 3v1h-6v-1h6zm23.32-1h-3.68l-3.772-5.676-.344-.72h-.044V38h-2.987V24.933h2.987v6.178h.044l.361-.73 3.582-5.448h3.48l-4.527 6.233L54.32 38zm3.54-8.213c-.726 0-1.343-.246-1.848-.738a2.412 2.412 0 0 1-.759-1.797c0-.704.253-1.297.759-1.78.505-.484 1.122-.725 1.849-.725.723 0 1.34.241 1.852.724.511.484.767 1.077.767 1.781a2.4 2.4 0 0 1-.767 1.797 2.575 2.575 0 0 1-1.852.738zm.007-3.734c-.313 0-.578.117-.795.35a1.21 1.21 0 0 0-.325.855c0 .336.108.624.325.863.217.24.482.359.795.359.307 0 .57-.12.79-.359.22-.239.33-.527.33-.863a1.21 1.21 0 0 0-.326-.855 1.044 1.044 0 0 0-.794-.35z"/></svg>