<svg xmlns="http://www.w3.org/2000/svg" baseProfile="full" viewBox="0 0 76.00 76.00"><path d="M38 19c10.493 0 19 8.507 19 19s-8.507 19-19 19-19-8.507-19-19 8.507-19 19-19zm-8.04 13.48v1.92h4.825l-4.327 9.003 1.847.917 5.175-10.767V32.48h-7.52zm13.422-.32l-5.102 7.453V41.6h5.12V44h2.08v-2.4h.96v-1.92h-.96v-7.52h-2.097zm.018 7.52h-2.68l2.68-3.915v3.915zM38 21l-1.046.032.366 2.984L38 24l.191.001.262-2.995L38 21zm14.335 7.858l-2.433 1.767.437.755 2.747-1.224-.751-1.298zm1.59 3.179l-2.748 1.223.27.83 2.941-.626-.463-1.427zm.89 3.441l-2.942.626.09.867h3.006l-.155-1.492zm.154 3.551h-3.006l-.09.867 2.941.626.155-1.493zm-.58 3.507l-2.943-.625-.269.83 2.748 1.222.463-1.427zm-1.303 3.308L50.34 44.62l-.437.755 2.433 1.767.751-1.298zm-29.42 1.298l2.432-1.767-.437-.755-2.747 1.224.751 1.298zm-1.59-3.179l2.747-1.223-.27-.83-2.941.626.463 1.427zm-.89-3.441l2.941-.626-.09-.867h-3.006l.155 1.493zm-.155-3.551h3.006l.09-.867-2.941-.626-.155 1.493zm.58-3.507l2.942.626.27-.83-2.748-1.223-.463 1.427zm1.303-3.308l2.747 1.224.437-.755-2.433-1.767-.751 1.298zm1.963-2.963l2.432 1.767.416-.47-2.05-2.198-.798.9zm2.303-2.306l2.05 2.2.696-.526-1.549-2.577-1.197.903zm2.961-1.965l1.549 2.577.79-.369-.98-2.843-1.359.635zm3.306-1.306l.98 2.844.85-.195-.367-2.985-1.463.336zm6.881-.46l-.41 2.973a13.99 13.99 0 0 1 8.704 4.748l2.276-1.954a16.988 16.988 0 0 0-10.57-5.766z"/></svg>