<svg xmlns="http://www.w3.org/2000/svg" baseProfile="full" viewBox="0 0 76.00 76.00"><path d="M41.5 49a5.5 5.5 0 1 1-6.5-5.41V31h2v12.59c2.56.471 4.5 2.714 4.5 5.41zm3.5 0a9 9 0 1 1-13-8.064V22a4 4 0 1 1 8 0v18.935A9 9 0 0 1 45 49zm-11-6.71a7 7 0 1 0 4 0V22a2 2 0 0 0-4 0v20.29zM31 21v1h-6v-1h6zm0 3v1h-4v-1h4zm0 3v1h-6v-1h6zm0 3v1h-4v-1h4zm0 3v1h-6v-1h6zm0 3v1h-4v-1h4zm0 3v1h-6v-1h6zm21.827-1.502c-.943.46-2.175.689-3.696.689-1.985 0-3.545-.587-4.681-1.76-1.136-1.172-1.703-2.733-1.703-4.683 0-2.079.638-3.765 1.916-5.058 1.277-1.293 2.935-1.94 4.973-1.94 1.262 0 2.325.164 3.19.49v2.87c-.851-.497-1.821-.746-2.91-.746-1.196 0-2.16.375-2.895 1.126-.734.75-1.101 1.767-1.101 3.05 0 1.231.346 2.212 1.038 2.942.693.73 1.625 1.095 2.797 1.095 1.118 0 2.142-.248 3.072-.746v2.671zm4.474-7.711c-.727 0-1.344-.246-1.85-.738a2.412 2.412 0 0 1-.758-1.797c0-.704.253-1.297.759-1.78.505-.484 1.122-.725 1.849-.725.723 0 1.34.241 1.852.724.511.484.767 1.077.767 1.781a2.4 2.4 0 0 1-.767 1.797 2.575 2.575 0 0 1-1.852.738zm.006-3.734c-.313 0-.578.117-.795.35a1.21 1.21 0 0 0-.325.855c0 .336.108.624.325.863.217.24.482.359.795.359.307 0 .57-.12.79-.359.22-.239.33-.527.33-.863a1.21 1.21 0 0 0-.325-.855 1.044 1.044 0 0 0-.795-.35z"/></svg>