<svg xmlns="http://www.w3.org/2000/svg" baseProfile="full" viewBox="0 0 76.00 76.00"><path d="M41.5 49a5.5 5.5 0 1 1-6.5-5.41V31h2v12.59c2.56.471 4.5 2.714 4.5 5.41zm3.5 0a9 9 0 1 1-13-8.064V22a4 4 0 1 1 8 0v18.935A9 9 0 0 1 45 49zm-11-6.71a7 7 0 1 0 4 0V22a2 2 0 0 0-4 0v20.29zM31 21v1h-6v-1h6zm0 3v1h-4v-1h4zm0 3v1h-6v-1h6zm0 3v1h-4v-1h4zm0 3v1h-6v-1h6zm0 3v1h-4v-1h4zm0 3v1h-6v-1h6zm19.46-11.64h-4.48v3.173h4.107v2.427H45.98V38h-2.987V24.933h7.467v2.427zm4.474 2.427c-.727 0-1.343-.246-1.849-.738a2.412 2.412 0 0 1-.758-1.797c0-.704.252-1.297.758-1.78.505-.484 1.122-.725 1.85-.725.722 0 1.34.241 1.851.724.512.484.767 1.077.767 1.781a2.4 2.4 0 0 1-.767 1.797 2.575 2.575 0 0 1-1.852.738zm.006-3.734c-.313 0-.578.117-.795.35a1.21 1.21 0 0 0-.325.855c0 .336.108.624.325.863.217.24.482.359.795.359.307 0 .57-.12.79-.359.22-.239.33-.527.33-.863a1.21 1.21 0 0 0-.325-.855 1.044 1.044 0 0 0-.795-.35z"/></svg>