<svg xmlns="http://www.w3.org/2000/svg" baseProfile="full" viewBox="0 0 76.00 76.00"><path d="M38.396 62.146c0-6.334 2.77-12.271 2.77-10.688 0 1.584 3.167-4.75 4.75-7.916 1.584-3.167 3.167-7.521 3.167-7.521l6.334.396S57 22.562 53.833 20.979c-3.166-1.583-6.464.634-9.5-1.187-7.916-4.75-20.583-1.584-19 1.583 0 0-6.333 3.167-4.75 4.75 0 0-1.583 2.375.396 4.75-1.979 2.375-1.187 4.75 0 6.333-1.187 2.375-1.979 4.75 2.771 6.334 3.004 1.001 11.083-2.771 11.083 1.583 0 1.583-3.166 6.333-3.166 9.5 0 6.333 6.729 7.52 6.729 7.52z"/></svg>