<svg xmlns="http://www.w3.org/2000/svg" baseProfile="full" viewBox="0 0 76.00 76.00"><path d="M56.208 33.25l-3.958-3.958v-8.709h8.708l3.959 3.959h-5.554c3 4.253 4.762 9.441 4.762 15.041 0 14.429-11.697 26.125-26.125 26.125S11.875 54.012 11.875 39.583c0 12.243 9.747 22.167 21.77 22.167H38c12.242 0 22.167-9.924 22.167-22.167 0-4.7-1.463-9.059-3.959-12.645v6.312zm-2.375 7.917C53.833 49.91 46.745 57 38 57c-8.744 0-15.833-7.089-15.833-15.833 0-8.21 6.249-14.961 14.25-15.756V23.75h-4.75V19h12.666v4.75h-4.75v1.662a15.734 15.734 0 0 1 8.438 3.495 15.935 15.935 0 0 1 4.374 5.658 15.775 15.775 0 0 1 1.438 6.602zM26.23 39.583h3.853v3.167H26.23a11.882 11.882 0 0 0 10.187 10.187v-3.854h3.166v3.854A11.882 11.882 0 0 0 49.77 42.75h-3.853v-3.167h3.853a11.882 11.882 0 0 0-10.187-10.187v3.854h-3.166v-3.854A11.882 11.882 0 0 0 26.23 39.583zM38 38a3.167 3.167 0 1 1 0 6.333l-6.333 4.75 3.166-7.916A3.167 3.167 0 0 1 38 38z"/></svg>