<svg xmlns="http://www.w3.org/2000/svg" baseProfile="full" viewBox="0 0 76.00 76.00"><path d="M48.493 55.215v.075h7.43v3.293H44.018v-3.095l5.236-4.873c1.056-.976 1.798-1.795 2.227-2.456.429-.661.643-1.356.643-2.084 0-1.626-.92-2.438-2.759-2.438-1.599 0-3.128.59-4.587 1.773v-3.44c1.599-.916 3.402-1.373 5.41-1.373 1.882 0 3.35.45 4.406 1.353 1.056.903 1.584 2.122 1.584 3.658 0 2.05-1.293 4.17-3.88 6.357l-3.803 3.25zM42.75 39.583v-3.166h3.854A11.882 11.882 0 0 0 36.417 26.23v3.853H33.25V26.23a11.882 11.882 0 0 0-10.187 10.187h3.854v3.166h-3.854A11.882 11.882 0 0 0 33.25 49.77v-3.853h3.167v3.853a11.83 11.83 0 0 0 6.27-2.862v1.02l3.404-.76v1.966a15.785 15.785 0 0 1-11.258 4.7C26.09 53.833 19 46.743 19 38c0-8.21 6.249-14.96 14.25-15.755v-1.662H28.5v-4.75h12.667v4.75h-4.75v1.662a15.76 15.76 0 0 1 8.437 3.495l1.142-1.142-2.239-2.24L47.116 19l6.717 6.718-3.358 3.358-2.24-2.239-1.142 1.143a15.763 15.763 0 0 1 3.565 9.495l-5.42 2.108H42.75zm-7.917-4.75a3.167 3.167 0 0 1 0 6.334l-6.333 4.75L31.667 38a3.167 3.167 0 0 1 3.166-3.167z"/></svg>