<svg xmlns="http://www.w3.org/2000/svg" baseProfile="full" viewBox="0 0 76.00 76.00"><path d="M46.36 58.08v-3.297a8.19 8.19 0 0 0 3.97 1.014c1.058 0 1.886-.244 2.482-.73.596-.487.895-1.147.895-1.978 0-1.742-1.276-2.612-3.828-2.612l-3.012.221V40.85H57v3.293h-6.84v3.369l1.532-.075c1.897 0 3.383.479 4.457 1.437 1.074.957 1.611 2.246 1.611 3.867 0 1.792-.629 3.256-1.886 4.392-1.258 1.136-2.962 1.704-5.113 1.704-1.744 0-3.21-.252-4.401-.756zm-11.527-4.247C26.09 53.833 19 46.745 19 38c0-8.21 6.249-14.96 14.25-15.755v-1.662H28.5v-4.75h12.667v4.75h-4.75v1.662a15.76 15.76 0 0 1 8.437 3.495l1.142-1.142-2.239-2.24L47.116 19l6.717 6.718-3.358 3.358-2.24-2.239-1.142 1.143A15.768 15.768 0 0 1 50.667 38h-5.542v1.583H42.75v-3.166h3.854A11.882 11.882 0 0 0 36.417 26.23v3.853H33.25V26.23a11.882 11.882 0 0 0-10.187 10.187h3.854v3.166h-3.854A11.882 11.882 0 0 0 33.25 49.77v-3.853h3.167v3.853c3.23-.43 6.05-2.159 7.916-4.644v5.542a15.763 15.763 0 0 1-9.5 3.165zm0-19a3.167 3.167 0 0 1 0 6.334l-6.333 4.75L31.667 38a3.167 3.167 0 0 1 3.166-3.167z"/></svg>