<svg xmlns="http://www.w3.org/2000/svg" baseProfile="full" viewBox="0 0 76.00 76.00"><path d="M50.667 38c0 1.084-.11 2.144-.317 3.167H46.28l.323-1.584H42.75v-3.166h3.854A11.882 11.882 0 0 0 36.417 26.23v3.853H33.25V26.23a11.882 11.882 0 0 0-10.187 10.187h3.854v3.166h-3.854A11.882 11.882 0 0 0 33.25 49.77v-3.853h3.167v3.853L38 49.448v4.069a15.906 15.906 0 0 1-3.167.316C26.09 53.833 19 46.745 19 38c0-8.21 6.249-14.96 14.25-15.755v-1.662H28.5v-4.75h12.667v4.75h-4.75v1.662a15.76 15.76 0 0 1 8.437 3.495l1.142-1.142-2.239-2.24L47.116 19l6.717 6.718-3.358 3.358-2.24-2.239-1.142 1.143A15.768 15.768 0 0 1 50.667 38zm-15.834-3.167a3.167 3.167 0 0 1 0 6.334l-6.333 4.75L31.667 38a3.167 3.167 0 0 1 3.166-3.167zm6.334 9.5h4.75v14.25h-4.75v-14.25zm14.25 0v14.25h-4.75v-14.25h4.75z"/></svg>