<svg xmlns="http://www.w3.org/2000/svg" baseProfile="full" viewBox="0 0 76.00 76.00"><path d="M44.333 45.917l9.5 8.708-9.5 8.708V45.917zm7.917-6.334c0 2.647-.65 5.142-1.797 7.334l-3.096-2.709c.405-.956.688-1.976.83-3.041h-3.854V38h3.854A11.882 11.882 0 0 0 38 27.813v3.854h-3.167v-3.854A11.882 11.882 0 0 0 24.646 38H28.5v3.167h-3.854a11.882 11.882 0 0 0 10.187 10.187V47.5H38v3.854c1.111-.148 2.57-.45 3.563-.884v4.222c-1.5.47-3.491.725-5.146.725-8.745 0-15.834-7.09-15.834-15.834 0-8.21 6.25-14.96 14.25-15.755v-1.661h-4.75v-4.75H42.75v4.75H38v1.661a15.76 15.76 0 0 1 8.437 3.496l1.143-1.143-2.24-2.239 3.36-3.359 6.717 6.718-3.36 3.359-2.238-2.24-1.143 1.143a15.768 15.768 0 0 1 3.574 10.02zm-15.833-3.166a3.167 3.167 0 0 1 0 6.333l-6.334 4.75 3.167-7.917a3.167 3.167 0 0 1 3.167-3.166z"/></svg>