<svg xmlns="http://www.w3.org/2000/svg" baseProfile="full" viewBox="0 0 76.00 76.00"><path d="M31.667 34.833a3.167 3.167 0 0 1 0 6.334l-6.334 4.75L28.5 38a3.167 3.167 0 0 1 3.167-3.167zm18.208-.791c2.159 0 12.955 20.511 11.875 21.59-1.08 1.08-22.67 1.08-23.75 0-1.08-1.079 9.716-21.59 11.875-21.59zm0 16.193a1.62 1.62 0 1 0 0 3.239 1.62 1.62 0 0 0 0-3.24zm-1.62-9.716l.54 8.24h2.16l.54-8.24h-3.24zM31.668 53.833c-8.745 0-15.834-7.088-15.834-15.833 0-8.21 6.25-14.96 14.25-15.755v-1.662h-4.75v-4.75H38v4.75h-4.75v1.662a15.76 15.76 0 0 1 8.437 3.495l1.143-1.142-2.24-2.24L43.95 19l6.717 6.718-3.36 3.358-2.238-2.239-1.143 1.143a15.807 15.807 0 0 1 2.757 4.985c-1.02.99-2.58 3.33-4.213 6.106l-.512.512h-2.375v-3.166h3.854A11.882 11.882 0 0 0 33.25 26.23v3.853h-3.167V26.23a11.882 11.882 0 0 0-10.187 10.187h3.854v3.166h-3.854A11.882 11.882 0 0 0 30.083 49.77v-3.853h3.167v3.853a11.795 11.795 0 0 0 4.342-1.477l-.146.313-2.432 4.873a15.891 15.891 0 0 1-3.347.354z"/></svg>