<svg xmlns="http://www.w3.org/2000/svg" baseProfile="full" viewBox="0 0 76.00 76.00"><path d="M41.8 47.817l6.65 6.65 10.054-14.092 2.85 2.85L48.45 60.167l-9.5-9.5 2.85-2.85zm7.283-8.234a15.76 15.76 0 0 1-2.866 9.088l-2.856-2.856a11.8 11.8 0 0 0 1.66-4.648h-3.854V38h3.853a11.882 11.882 0 0 0-10.187-10.187v3.854h-3.166v-3.854A11.882 11.882 0 0 0 21.48 38h3.853v3.167H21.48a11.882 11.882 0 0 0 10.187 10.187V47.5h3.166v3.854l1.988-.442 3.055 3.056a15.775 15.775 0 0 1-6.626 1.449c-8.744 0-15.833-7.09-15.833-15.834 0-8.21 6.249-14.96 14.25-15.755v-1.661h-4.75v-4.75h12.666v4.75h-4.75v1.661a15.76 15.76 0 0 1 8.438 3.496l1.142-1.143-2.24-2.239 3.36-3.359 6.717 6.718-3.359 3.359-2.239-2.24-1.142 1.143a15.768 15.768 0 0 1 3.573 10.02zM33.25 36.417a3.167 3.167 0 0 1 0 6.333l-6.333 4.75 3.166-7.917a3.167 3.167 0 0 1 3.167-3.166z"/></svg>