<svg xmlns="http://www.w3.org/2000/svg" baseProfile="full" viewBox="0 0 76.00 76.00"><path d="M17.417 50.667a1.583 1.583 0 0 1-1.584-1.584v-9.5a6.333 6.333 0 0 1 3.542-5.686L25.333 19h25.334l5.959 14.897a6.334 6.334 0 0 1 3.54 5.686v9.5c0 .875-.708 1.584-1.583 1.584H57v3.166a3.167 3.167 0 0 1-6.333 0v-3.166H25.333v3.166a3.167 3.167 0 1 1-6.333 0v-3.166h-1.583zm6.966-17.417h27.234l-3.8-9.5H28.183l-3.8 9.5zm-.237 2.77c-1.75 0-3.563 1.814-3.563 3.563 0 1.75 1.814 3.563 3.563 3.563s3.562-1.814 3.562-3.563c0-1.748-1.813-3.562-3.562-3.562zm27.708 0c-1.749 0-3.562 1.814-3.562 3.563 0 1.75 1.813 3.563 3.562 3.563 1.75 0 3.563-1.814 3.563-3.563s-1.814-3.562-3.563-3.562z"/></svg>