<svg xmlns="http://www.w3.org/2000/svg" baseProfile="full" viewBox="0 0 76.00 76.00"><path d="M26.917 14.25a7.917 7.917 0 0 1 7.916 7.917l-.091 1.208 8.925 3.25a6.333 6.333 0 1 1 2.126 11.143l-6.443 4.855c.152.544.233 1.118.233 1.71 0 .827-.158 1.616-.446 2.34l3.558 3.093a7.917 7.917 0 1 1-3.58 3.181L35.85 50.11a6.333 6.333 0 1 1 .595-11.246l5.503-4.147a6.304 6.304 0 0 1-.781-3.05l.06-.876-8.608-3.133a7.917 7.917 0 1 1-5.703-13.408zm0 3.167a4.75 4.75 0 1 0 0 9.5 4.75 4.75 0 0 0 0-9.5zM47.5 28.5a3.167 3.167 0 1 0 0 6.333 3.167 3.167 0 0 0 0-6.333zm-1.583 23.75a4.75 4.75 0 1 0 0 9.5 4.75 4.75 0 0 0 0-9.5zM33.25 41.167a3.167 3.167 0 1 0 0 6.333 3.167 3.167 0 0 0 0-6.333z"/></svg>