<svg xmlns="http://www.w3.org/2000/svg" baseProfile="full" viewBox="0 0 76.00 76.00"><path d="M22.958 52.25a3.958 3.958 0 1 1 0 7.917 3.958 3.958 0 0 1 0-7.917zm26.917 0a3.958 3.958 0 1 1 0 7.917 3.958 3.958 0 0 1 0-7.917zm11.875 3.167h-6.39a5.543 5.543 0 0 0-10.97 0H28.443a5.543 5.543 0 0 0-10.971 0H14.25V38a3.167 3.167 0 0 1 3.167-3.167h40.375A3.167 3.167 0 0 1 60.958 38l.792 17.417zM59.77 38H57v11.083h3.167L59.77 38zm-5.937 6.333V38h-7.916v6.333h7.916zM44.333 38h-7.916v6.333h7.916V38zm-9.5 0h-7.916v6.333h7.916V38zm-9.5 0h-7.916v6.333h7.916V38zm21.375-15.833l-4.75-4.75h6.334l5.541 4.926v-4.926H57v12.666h-3.167v-4.926l-5.541 4.926h-6.334l4.75-4.75h-15.24a6.333 6.333 0 1 1 0-3.167h15.24z"/></svg>