<svg xmlns="http://www.w3.org/2000/svg" baseProfile="full" viewBox="0 0 76.00 76.00"><path d="M12.255 50.678a.919.919 0 0 1-1.038-.782l-.767-5.459a3.676 3.676 0 0 1 1.576-3.553l2.22-9.043.91-.127 1.82-.256 9.1-1.279 1.819-.256.91-.127 4.627 8.079a3.675 3.675 0 0 1 2.494 2.982l.768 5.459a.919.919 0 0 1-.782 1.038l-.91.127.256 1.82a1.838 1.838 0 0 1-3.64.512l-.256-1.82-14.558 2.046.256 1.82a1.838 1.838 0 1 1-3.64.511l-.255-1.82-.91.128zm2.597-10.57l15.65-2.2-2.951-5.153-11.283 1.586-1.416 5.766zm.087 1.61c-1.005.142-1.9 1.33-1.76 2.335.142 1.006 1.33 1.901 2.336 1.76 1.005-.141 1.9-1.33 1.76-2.335-.142-1.005-1.33-1.9-2.336-1.76zm15.923-2.237c-1.005.141-1.9 1.33-1.76 2.335.142 1.005 1.33 1.9 2.335 1.76 1.005-.142 1.901-1.33 1.76-2.336-.141-1.005-1.33-1.9-2.335-1.76zm9.226 7.733a.919.919 0 0 1-.782-1.037l.768-5.46a3.675 3.675 0 0 1 2.494-2.981l4.627-8.08.91.128 1.82.256 9.099 1.279 1.82.255.91.128 2.22 9.042a3.675 3.675 0 0 1 1.576 3.554l-.767 5.46a.919.919 0 0 1-1.038.781l-.91-.128-.256 1.82a1.838 1.838 0 1 1-3.64-.512l.257-1.82-14.558-2.045-.256 1.82a1.838 1.838 0 0 1-3.64-.512l.256-1.82-.91-.128zm5.41-9.446l15.65 2.2-1.416-5.766-11.283-1.586-2.95 5.152zm-.36 1.574c-1.005-.142-2.194.754-2.335 1.759-.141 1.005.755 2.194 1.76 2.335 1.005.141 2.193-.755 2.334-1.76.142-1.005-.754-2.193-1.759-2.334zm15.923 2.237c-1.005-.141-2.194.755-2.335 1.76-.141 1.005.754 2.193 1.76 2.335 1.005.14 2.193-.755 2.334-1.76.142-1.005-.754-2.194-1.76-2.335zM28.5 19l3.167-1.583 3.166 17.416L28.5 19zm7.52-1.583h3.167l-2.77 17.416-.396-17.416zM44.334 19l3.167 1.583-7.917 15.834L44.333 19z"/></svg>