<svg xmlns="http://www.w3.org/2000/svg" baseProfile="full" viewBox="0 0 76.00 76.00"><path d="M15.936 54.323a1.217 1.217 0 0 1-1.174-1.26l.255-7.3a4.87 4.87 0 0 1 2.873-4.274l4.979-10.496 19.467.68 4.179 10.816a4.87 4.87 0 0 1 2.568 4.464l-.255 7.3a1.217 1.217 0 0 1-1.259 1.174l-1.216-.042-.085 2.433a2.435 2.435 0 1 1-4.867-.17l.085-2.433-19.467-.68-.085 2.434a2.435 2.435 0 0 1-4.867-.17l.085-2.434-1.216-.042zm5.82-13.197l20.927.731-2.665-6.61-15.087-.527-3.175 6.406zM21.5 43.25c-1.344-.047-2.787 1.298-2.834 2.642-.046 1.344 1.299 2.786 2.642 2.833 1.344.047 2.787-1.298 2.834-2.642.047-1.344-1.299-2.786-2.642-2.833zm21.291.744c-1.343-.047-2.786 1.298-2.833 2.642-.047 1.343 1.298 2.786 2.642 2.833 1.344.047 2.786-1.298 2.833-2.642.047-1.344-1.298-2.786-2.642-2.833zm-6.831-20.4l18.47-1.687 5.103 10.16a4.629 4.629 0 0 1 2.871 3.966l.485 6.926a1.157 1.157 0 0 1-1.074 1.235l-1.154.08.161 2.31a2.314 2.314 0 0 1-4.617.322l-.161-2.309-5.375.376a4.87 4.87 0 0 0-2.57-4.185l-2.95-8.188 10.7-.748-3.255-6.733L38.28 26.12l-1.305 3.228-3.348-.117 2.333-5.637zm20.203 10.265c-1.275.09-2.505 1.504-2.416 2.78.09 1.274 1.504 2.504 2.779 2.415 1.275-.09 2.505-1.504 2.415-2.779-.089-1.275-1.503-2.505-2.778-2.416zm-34.694-7.571a3.664 3.664 0 0 1 1.754-3.456l2.683-8.887.913-.08 1.825-.16 9.126-.798 1.825-.16.913-.08 4.185 8.287.434.201-10.306.72-2.98 7.754-10.11.043-.263-3.384zm4.608-4.082l15.697-1.769-2.67-4.888-11.316.99-1.71 5.667zm.003 1.61c-1.008.087-1.962 1.224-1.874 2.232.088 1.008 1.225 1.962 2.233 1.874 1.008-.088 1.962-1.225 1.874-2.233-.088-1.008-1.225-1.962-2.233-1.874z"/></svg>