<svg xmlns="http://www.w3.org/2000/svg" baseProfile="full" viewBox="0 0 76.00 76.00"><path d="M22.958 38a3.958 3.958 0 1 1 0 7.917 3.958 3.958 0 0 1 0-7.917zm26.917 0a3.958 3.958 0 1 1 0 7.917 3.958 3.958 0 0 1 0-7.917zm11.875 3.167h-6.39a5.543 5.543 0 0 0-10.97 0H28.443a5.543 5.543 0 0 0-10.971 0H14.25V23.75a3.167 3.167 0 0 1 3.167-3.167h40.375a3.167 3.167 0 0 1 3.166 3.167l.792 17.417zM59.77 23.75H57v11.083h3.167L59.77 23.75zm-5.937 6.333V23.75h-7.916v6.333h7.916zm-9.5-6.333h-7.916v6.333h7.916V23.75zm-9.5 0h-7.916v6.333h7.916V23.75zm-9.5 0h-7.916v6.333h7.916V23.75zm3.167 28.5h12.667l-6.334-6.333h6.334l8.708 7.916-8.708 7.917h-6.334l6.334-6.333H28.5V52.25z"/></svg>