<svg xmlns="http://www.w3.org/2000/svg" baseProfile="full" viewBox="0 0 76.00 76.00"><path d="M35.625 29.688a1.583 1.583 0 1 1 0 3.166 1.583 1.583 0 0 1 0-3.166zm5.146 0a1.583 1.583 0 1 1 0 3.166 1.583 1.583 0 0 1 0-3.166zM25.669 50.376c-.725-2.334-1.127-4.914-1.127-7.626l.015-.908c-2.233 1.225-4.74 2.491-5.557 2.491-2.113 0 1.826-4.883 6.98-10.137a20.911 20.911 0 0 1 1.777-3.771C28.264 24.012 32.657 19 38 19s9.736 5.012 10.243 11.425a20.911 20.911 0 0 1 1.778 3.771C55.174 39.45 59.113 44.333 57 44.333c-.818 0-3.324-1.266-5.557-2.491l.015.908c0 2.712-.402 5.291-1.127 7.626l-2.04-.501c0-6.09-2.76-11.29-6.642-13.328L38 42.75l-3.649-6.203c-3.883 2.043-6.643 7.258-6.642 13.42l-2.04.409zm8.373-24.251c-2.187 0-3.959 2.127-3.959 4.75s1.773 4.75 3.959 4.75S38 33.498 38 30.875s-1.772-4.75-3.958-4.75zM38 30.875c0 1.749 1.772 3.563 3.958 3.563s3.959-1.814 3.959-3.563-1.773-3.563-3.959-3.563S38 29.127 38 30.875zm-7.917 19.792c3.064 0 5.62 1.36 6.207 3.166h.523v1.584h-.523c-.587 1.806-3.143 3.166-6.207 3.166-3.497 0-6.333-1.772-6.333-3.958s2.835-3.958 6.333-3.958zm15.834 0c3.497 0 6.333 1.772 6.333 3.958s-2.836 3.958-6.333 3.958c-3.064 0-5.62-1.36-6.207-3.166h-.523v-1.584h.523c.587-1.806 3.143-3.166 6.207-3.166z"/></svg>