<svg xmlns="http://www.w3.org/2000/svg" baseProfile="full" viewBox="0 0 76.00 76.00"><path d="M43.5 20.5c.618-.618 1.882-.618 2.5 0a1.596 1.596 0 0 1 0 2.25L41.75 27H54c2.623 0 5 2.377 5 5v20c0 2.623-2.377 5-5 5H22c-2.623 0-5-2.377-5-5V32c0-2.623 2.377-5 5-5h9.25L27 22.75a1.596 1.596 0 0 1 0-2.25c.618-.618 1.882-.618 2.5 0L36 27h1.25l6.25-6.5zM22 32v20h6.453l.391-1.956s1.69-5.91 5.067-5.91h6.756c3.377 0 5.066 5.91 5.066 5.91L46.124 52H47V32H22zm31-.333A3.167 3.167 0 1 0 53 38a3.167 3.167 0 0 0 0-6.333zm0 9.5a3.167 3.167 0 1 0 0 6.333 3.167 3.167 0 0 0 0-6.333zM24 34h7v7h-7v-7zm13.289 0a4.222 4.222 0 1 1 0 8.444 4.222 4.222 0 0 1 0-8.444zm-4.222 14.356c-.563.281-1.69 2.533-1.69 2.533s-.179.269-.386 1.111h1.915l.16-3.644zm8.444 0L41.673 52h1.913c-.207-.842-.386-1.111-.386-1.111s-1.126-2.252-1.689-2.533z"/></svg>