<svg xmlns="http://www.w3.org/2000/svg" baseProfile="full" viewBox="0 0 76.00 76.00"><path d="M38 26.917a3.167 3.167 0 0 1 3.167 3.166H47.5a3.167 3.167 0 0 1 3.167 3.167v25.333A3.167 3.167 0 0 1 47.5 61.75h-19a3.167 3.167 0 0 1-3.167-3.167V33.25a3.167 3.167 0 0 1 3.167-3.167h6.333A3.167 3.167 0 0 1 38 26.917zm0-9.5c-5.475 0-10.138 3.473-11.907 8.336l-2.977-1.082C25.327 18.59 31.156 14.25 38 14.25c6.843 0 12.673 4.342 14.884 10.42l-2.977 1.083C48.138 20.89 43.475 17.417 38 17.417zm0 6.333a6.336 6.336 0 0 0-5.954 4.168l-2.976-1.082a9.504 9.504 0 0 1 17.86 0l-2.976 1.082A6.336 6.336 0 0 0 38 23.75zm-7.125 15.833a2.375 2.375 0 1 0 0 4.75 2.375 2.375 0 0 0 0-4.75zm7.125 0a2.375 2.375 0 1 0 0 4.75 2.375 2.375 0 0 0 0-4.75zm7.125 0a2.375 2.375 0 1 0 0 4.75 2.375 2.375 0 0 0 0-4.75zm-14.25 6.334a2.375 2.375 0 1 0 0 4.75 2.375 2.375 0 0 0 0-4.75zm7.125 0a2.375 2.375 0 1 0 0 4.75 2.375 2.375 0 0 0 0-4.75zm7.125 0a2.375 2.375 0 1 0 0 4.75 2.375 2.375 0 0 0 0-4.75zm-14.25 6.333a2.375 2.375 0 1 0 0 4.75 2.375 2.375 0 0 0 0-4.75zm7.125 0A2.375 2.375 0 1 0 38 57a2.375 2.375 0 0 0 0-4.75zm7.125 0a2.375 2.375 0 1 0 0 4.75 2.375 2.375 0 0 0 0-4.75zm.792-17.417H42.75a1.583 1.583 0 1 0 0 3.167h3.167a1.583 1.583 0 1 0 0-3.167zm-7.917 0h-7.917a1.583 1.583 0 1 0 0 3.167H38a1.583 1.583 0 0 0 0-3.167z"/></svg>