<svg xmlns="http://www.w3.org/2000/svg" baseProfile="full" viewBox="0 0 76.00 76.00"><path d="M44.5 19H49L33 57h-4.5l16-38zM26.508 40.12C21.503 40.12 19 36.707 19 29.88c0-3.54.677-6.24 2.03-8.096C22.384 19.928 24.347 19 26.92 19c4.889 0 7.333 3.47 7.333 10.409 0 3.456-.667 6.105-2.003 7.947C30.915 39.2 29 40.12 26.508 40.12zm.215-17.6c-2.02 0-3.03 2.417-3.03 7.25 0 4.554.99 6.83 2.97 6.83 1.931 0 2.897-2.347 2.897-7.04s-.946-7.04-2.837-7.04zM57 57H44v-4h5V40.75l-4.907.703v-3.52l8.8-1.76L53 53h4v4z"/></svg>