<svg xmlns="http://www.w3.org/2000/svg" baseProfile="full" viewBox="0 0 76.00 76.00"><path d="M28 28h6v6h-6v-6zm15 0h6v6h-6v-6zM20 18h36v19h2v21H18V37h2V18zm2 2v17h32V20H22zm25.013 31.04h-5.052v1.684h-.843c-2.193 0-4.752-3.332-5.718-4.21h13.297v2.525l5.053-3.368-5.053-3.368v2.526H32.874c.966-.88 2.683-4.21 4.876-4.21h.986a2.527 2.527 0 1 0 0-1.685h-.986c-3.741 0-5.654 4.82-7.216 5.895h-2.153a3.37 3.37 0 0 0-6.631.842 3.368 3.368 0 0 0 6.63.842h4.68c1.562 1.074 4.317 5.895 8.058 5.895h.843v1.684h5.052V51.04z"/></svg>