<svg xmlns="http://www.w3.org/2000/svg" baseProfile="full" viewBox="0 0 76.00 76.00"><path d="M17.453 49.367c.725.422 1.716.793 2.972 1.114 1.257.32 2.624.49 4.102.506 3.555-.065 6.162-.86 7.821-2.387 1.66-1.527 2.48-3.396 2.462-5.606.008-1.781-.51-3.287-1.554-4.517-1.044-1.23-2.663-2.253-4.857-3.072-1.745-.593-3.015-1.144-3.812-1.652-.797-.508-1.19-1.153-1.177-1.935-.002-.664.32-1.234.968-1.71.646-.474 1.628-.723 2.943-.745 1.267.02 2.341.16 3.225.42.883.26 1.563.523 2.039.789l1.24-4.582c-.721-.307-1.604-.571-2.65-.792-1.044-.221-2.303-.337-3.774-.348-3.073.043-5.444.75-7.112 2.12-1.668 1.37-2.512 3.15-2.532 5.339.025 1.839.65 3.371 1.873 4.597 1.224 1.225 2.896 2.21 5.017 2.954 1.602.512 2.758 1.037 3.468 1.577.709.54 1.056 1.197 1.042 1.973-.003.841-.366 1.508-1.087 2-.722.493-1.783.745-3.183.756-1.265-.016-2.443-.182-3.536-.495-1.093-.314-2.011-.678-2.755-1.09l-1.143 4.786zM37.897 50.644c1.361.22 3.51.347 6.446.379 2.504.002 4.755-.268 6.753-.81 1.998-.543 3.67-1.373 5.015-2.49 1.222-1.05 2.215-2.452 2.978-4.206.764-1.754 1.157-3.885 1.18-6.393-.014-2.317-.398-4.285-1.152-5.905-.754-1.62-1.793-2.895-3.119-3.825-1.182-.848-2.615-1.484-4.298-1.908-1.683-.424-3.733-.636-6.149-.636-1.439.003-2.811.051-4.117.146a45.13 45.13 0 0 0-3.537.385v25.263zm5.653-21.426c.49-.137 1.36-.215 2.605-.235 2.518.006 4.488.714 5.91 2.123 1.423 1.41 2.147 3.48 2.172 6.213-.034 3.128-.825 5.449-2.374 6.961-1.55 1.512-3.653 2.256-6.312 2.23-.35.003-.707-.002-1.072-.014a5.241 5.241 0 0 1-.93-.102V29.218z"/></svg>