<svg xmlns="http://www.w3.org/2000/svg" baseProfile="full" viewBox="0 0 76.00 76.00"><path d="M14.25 32.165l6.229 16.86h5.32l6.368-16.86h-5.599l-2.205 7.827a74.813 74.813 0 0 0-.944 4.147h-.105a53.254 53.254 0 0 0-.98-4.118l-2.31-7.856H14.25zM39.915 49.026V32.165h-5.239v16.86h5.239zm-2.426-24.609c-.861.017-1.543.268-2.044.754-.502.486-.758 1.108-.769 1.866.01.742.26 1.36.747 1.852s1.153.748 1.997.767c.893-.019 1.59-.275 2.087-.767.499-.493.752-1.11.76-1.852-.024-.758-.28-1.38-.764-1.866-.484-.486-1.156-.737-2.014-.754zM44.185 56.07h5.239v-8.525h.072c.404.534.999.97 1.785 1.309.786.338 1.714.513 2.784.524 2 .013 3.762-.701 5.283-2.143 1.521-1.443 2.322-3.694 2.402-6.754-.058-2.723-.758-4.843-2.1-6.359-1.341-1.516-2.975-2.285-4.901-2.31-2.589.03-4.536.955-5.843 2.777h-.069l-.24-2.424h-4.553c.082 1.596.13 3.506.141 5.73V56.07zm5.239-16.497c0-.301.036-.602.108-.903.197-.795.594-1.437 1.192-1.924a3.293 3.293 0 0 1 2.082-.751c1.224.029 2.148.483 2.77 1.364.622.88.934 2.011.935 3.395-.009 1.461-.341 2.62-.998 3.478-.657.858-1.583 1.296-2.78 1.316-.803-.016-1.49-.254-2.059-.717a3.333 3.333 0 0 1-1.142-1.784 5.317 5.317 0 0 1-.108-1.112v-2.362z"/></svg>