<svg xmlns="http://www.w3.org/2000/svg" baseProfile="full" viewBox="0 0 76.00 76.00"><path d="M26.455 50.646l-5.99-.013-7.27-22.576h5.62l2.76 9.524 1.098 3.989.921 4.064h.101a94.794 94.794 0 0 1 2.053-7.926l2.895-9.651h5.451l-7.639 22.589zm10.384-22.59h5.024v22.59H36.84v-22.59zm9.795 22.59V28.162c1.517-.274 3.808-.422 6.875-.443 3.133 0 5.433.57 6.9 1.71.741.545 1.324 1.274 1.748 2.185.424.911.64 1.963.649 3.156-.001 1.195-.174 2.27-.52 3.223-.346.954-.86 1.726-1.543 2.317-.874.752-1.934 1.312-3.181 1.68-1.247.367-2.632.55-4.154.549l-1.75-.126v8.233h-5.024zm5.025-19.074v7.15c.404.102.976.15 1.716.144 1.375-.01 2.45-.358 3.225-1.042.774-.684 1.168-1.643 1.181-2.875-.006-1.122-.355-1.994-1.047-2.614-.691-.62-1.688-.934-2.99-.943-1.014.006-1.71.066-2.085.18z"/></svg>