<svg xmlns="http://www.w3.org/2000/svg" baseProfile="full" viewBox="0 0 76.00 76.00"><path d="M49.083 41.167A7.917 7.917 0 0 1 57 49.083C57 53.456 53.456 57 49.051 57H22.958a3.958 3.958 0 0 1-.725-7.85l-.066-.858a5.542 5.542 0 0 1 5.288-5.536 9.504 9.504 0 0 1 17.709-.553 7.88 7.88 0 0 1 3.92-1.036zm12.843-.145l-4.156.954a9.15 9.15 0 0 0-3.98-2.74l.002-2.417 8.134 4.203zm-47.852-6.044l8.925-2.05a15.748 15.748 0 0 0-.791 6.253l-8.134-4.203zm9.144-16.034l7.76 4.862a15.74 15.74 0 0 0-4.98 3.864l-2.78-8.726zm17.804-4.87l2.05 8.925a15.75 15.75 0 0 0-6.253-.791l4.203-8.134zm16.034 9.144l-4.862 7.76a15.742 15.742 0 0 0-3.864-4.98l8.726-2.78zM38 25.333c6.996 0 12.667 5.671 12.667 12.667l-.021.733a9.087 9.087 0 0 0-4.38 1.195 10.965 10.965 0 0 0-10.093-6.677c-4.775 0-8.837 3.053-10.34 7.314l-.237.015a12.725 12.725 0 0 1-.263-2.58c0-6.996 5.671-12.667 12.667-12.667z"/></svg>