<svg xmlns="http://www.w3.org/2000/svg" baseProfile="full" viewBox="0 0 76.00 76.00"><path d="M49.083 20.583A7.917 7.917 0 0 1 57 28.5c0 4.372-3.544 7.917-7.949 7.917H22.958a3.958 3.958 0 0 1-.725-7.85l-.066-.859a5.542 5.542 0 0 1 5.288-5.536 9.504 9.504 0 0 1 17.709-.552 7.88 7.88 0 0 1 3.92-1.037zm-28.5 38v-14.25l14.25-1.583v15.833h-14.25zm3.167-3.166h3.167V52.25H23.75v3.167zm4.75 0h3.167V52.25H28.5v3.167zm-4.75-4.75h3.167V47.5H23.75v3.167zm4.75 0h3.167V47.5H28.5v3.167zm7.917-4.75l4.75 1.425v-7.759h1.583v8.234l9.5 2.85v7.916H36.417V45.917zm3.166 9.5h3.167V52.25h-3.167v3.167zm4.75 0H47.5V52.25h-3.167v3.167zm4.75-15.834l6.334 2.375-6.334 2.375h-4.75v-4.75h4.75z"/></svg>