<svg xmlns="http://www.w3.org/2000/svg" baseProfile="full" viewBox="0 0 76.00 76.00"><path d="M15.72 32.388l9.152.331a15.75 15.75 0 0 0-2.383 5.835l-6.77-6.166zm12.982-13.12l6.237 6.704a15.74 15.74 0 0 0-5.81 2.444l-.427-9.148zm18.458-.097l-.33 9.152a15.752 15.752 0 0 0-5.835-2.383l6.165-6.769zm13.12 12.983l-6.704 6.236a15.741 15.741 0 0 0-2.443-5.81l9.148-.426zm-18.953-2.889c5.151 1.38 8.706 5.745 9.303 10.735H59v2H17v-2h8.47a12.77 12.77 0 0 1 .344-1.778c1.81-6.758 8.756-10.768 15.513-8.957zM38 59.582l-7.5-7.5H36v-8h4v8h5.5l-7.5 7.5z"/></svg>