<svg xmlns="http://www.w3.org/2000/svg" baseProfile="full" viewBox="0 0 76.00 76.00"><path d="M38 14.25c8.745 0 15.833 7.089 15.833 15.833 0 8.745-7.088 15.834-15.833 15.834-8.744 0-15.833-7.09-15.833-15.834S29.255 14.25 38 14.25zM38 19c-6.121 0-11.083 4.962-11.083 11.083 0 6.122 4.962 11.084 11.083 11.084s11.083-4.962 11.083-11.084C49.083 23.963 44.121 19 38 19zm-.792 9.5h1.584a2.375 2.375 0 0 1 0 4.75h-1.584a2.375 2.375 0 1 1 0-4.75zm11.875 26.125v.032l.792-.032c3.06 0 5.542 2.21 5.542 3.958 0 1.75-2.481 3.167-5.542 3.167l-.585-.017A15.785 15.785 0 0 0 38 57c-4.42 0-8.418 1.812-11.29 4.733l-.585.017c-3.06 0-5.542-1.418-5.542-3.167 0-1.749 2.481-3.958 5.542-3.958l.792.032v-.032c3.497 0 6.333-3.001 6.333-4.75v-1.342c1.525.36 3.115.55 4.75.55 1.635 0 3.225-.19 4.75-.55v1.342c0 1.749 2.836 4.75 6.333 4.75z"/></svg>