<svg xmlns="http://www.w3.org/2000/svg" baseProfile="full" viewBox="0 0 76.00 76.00"><path d="M52.635 35.48h.428c2.905 0 5.268 2.333 5.268 5.199v.03l.002.03c.193 2.508.286 5.13.278 7.794a98.756 98.756 0 0 1-.278 7.798l-.002.03v.03c0 2.867-2.759 5.199-5.664 5.199h.363c-4.639.194-9.949.287-15 .278-5.056.01-10.365-.084-15.005-.278h.363c-2.904 0-5.663-2.332-5.663-5.199v-.03l-.003-.03a98.577 98.577 0 0 1-.277-7.794c-.008-2.668.085-5.29.277-7.798l.003-.03v-.03c0-2.866 2.759-5.198 5.663-5.198l-.363-.001a356.31 356.31 0 0 1 15.001-.278c5.056-.01 9.97.084 14.608.278zm-1.966 12.033c0-.573.088-.984.265-1.232.176-.248.467-.372.872-.372.388 0 .67.124.847.372.176.248.265.66.265 1.232V48.9h-2.25v-1.386zm4.868 3.511V47.54c0-1.3-.313-2.296-.937-2.988-.626-.693-1.52-1.04-2.685-1.04-1.139 0-2.068.375-2.787 1.123-.72.748-1.08 1.716-1.08 2.905v6.145c0 1.318.328 2.353.983 3.106.655.753 1.553 1.13 2.692 1.13 1.267 0 2.22-.356 2.858-1.066.637-.71.956-1.767.956-3.17v-1.028h-2.62v.951c0 .806-.084 1.327-.251 1.562-.168.236-.464.353-.885.353-.406 0-.692-.139-.86-.417-.168-.279-.252-.778-.252-1.498v-2.583h4.868zM43.51 54.34c0 .436-.074.751-.22.943-.147.193-.376.289-.687.289l-.616-.148-.602-.48V46.41l.524-.417.538-.135c.346 0 .61.12.79.36.183.24.273.59.273 1.052v7.069zm.138-10.656c-.395 0-.785.11-1.17.327-.386.218-.75.535-1.093.953v-5.975h-2.57v18.56h2.57v-1.053c.334.417.697.726 1.087.926.39.2.833.3 1.33.3.755 0 1.331-.258 1.73-.775.398-.516.598-1.261.598-2.235v-7.595c0-1.119-.212-1.97-.637-2.555-.424-.585-1.04-.877-1.845-.877zM33.784 54.25l-.786.737c-.286.193-.523.288-.71.288-.24 0-.412-.072-.519-.218-.106-.145-.16-.38-.16-.704V43.858h-2.545V55.3c0 .815.15 1.427.448 1.835.298.407.742.61 1.33.61.478 0 .97-.145 1.478-.436.507-.291.995-.716 1.464-1.272v1.511h2.546V43.858h-2.546V54.25zM29.1 38.99H20.3v2.694h2.965v15.866h2.867V41.683h2.966v-2.694zm-4.672-24.507h2.888l1.86 7.418h.18l1.773-7.418h2.913L30.705 25.34v7.702h-2.867v-7.355l-3.41-11.205zm12.104 15.352c0 .377.09.668.272.874.18.205.44.307.776.307.346 0 .62-.104.822-.314.203-.21.305-.498.305-.867v-7.456c0-.3-.104-.541-.311-.725-.207-.184-.479-.276-.816-.276-.31 0-.563.092-.757.276-.194.184-.291.425-.291.725v7.456zm-2.62-7.354c0-1.06.343-1.904 1.028-2.533.686-.628 1.606-.943 2.764-.943 1.053 0 1.916.332 2.589.995.672.662 1.009 1.515 1.009 2.559v7.071c0 1.172-.33 2.091-.99 2.758-.66.667-1.568 1-2.724 1-1.114 0-2.005-.344-2.673-1.032-.669-.688-1.003-1.614-1.003-2.777V22.48zm16.816-3.13v13.692h-2.545V31.53c-.47.557-.957.982-1.465 1.273-.507.29-1 .437-1.477.437-.589 0-1.032-.204-1.33-.612-.3-.407-.448-1.019-.448-1.834V19.35h2.545v10.496c0 .325.053.56.16.704.106.145.28.218.518.218.188 0 .424-.096.71-.288l.787-.737V19.35h2.545z"/></svg>