<svg xmlns="http://www.w3.org/2000/svg" baseProfile="full" viewBox="0 0 76.00 76.00"><path d="M49.261 41.562c-.602 1.05-1.42 1.163-2.424.641a118.038 118.038 0 0 1-3.444-1.954c-1.08-.655-.752-1.689-.018-2.073.735-.384 8.251-4.79 9.137-5.212.75-.356 1.483.249.973 1.21-.323.61-3.622 6.339-4.224 7.388zm1.98 5.224c.607.326 2.057.849 2.627 1.205 1.072.669.732 2.094-.008 2.47-.739.373-7.517 4.686-8.408 5.097-.754.348-1.48-.267-.958-1.222.33-.605 3.7-5.896 4.315-6.939.615-1.042 1.434-1.145 2.431-.61zm-11.652 5.691c-.073-.979.03-8.503 0-9.331-.03-.828.705-1.625 1.81-1.012.588.327 2.824 1.65 3.403 2.024.95.613 1.258 1.38.644 2.423-.613 1.042-3.955 5.559-4.324 6.141-.582.92-1.472.583-1.533-.245zm0-30.543c-.03-1.441.735-2.014 2.055-1.227 1.748 1.043 9.389 6.345 10.309 6.959.92.613.92 1.625-.705 2.514-1.626.89-8.746 4.698-9.727 5.28-.981.583-2.024.583-1.993-.98.03-1.565.091-11.105.06-12.546zm-2.916 12.244c.032.828-.703 1.626-1.808 1.014-.589-.326-2.827-1.647-3.406-2.02-.951-.612-1.259-1.378-.647-2.422.612-1.043 3.551-6.355 3.92-6.938.58-.92 1.47-.584 1.533.243.074.979.377 9.295.408 10.123zm-.055 20.957c-.065 1.103-.939 1.614-2.527.66-1.588-.954-7.97-5.46-8.968-6.014-.998-.553-1.525-1.453-.16-2.216 1.366-.763 8.39-4.934 9.619-5.688 1.229-.755 2.11-.382 2.096 1.154-.017 2.035.005 11-.06 12.104zM23.58 43.165c.322-.61 3.614-6.343 4.215-7.393.6-1.05 1.417-1.164 2.422-.644.612.318 2.475 1.601 3.051 1.95 1.08.654.754 1.688.02 2.073-.734.384-7.848 4.8-8.734 5.222-.75.359-1.483-.246-.974-1.209zm2.625-12.616c-.608-.325-2.06-1.24-2.63-1.596-1.074-.667-.734-1.698.005-2.074.739-.375 7.116-4.697 8.006-5.109.754-.348 1.48.265.96 1.222-.33.605-3.297 5.9-3.91 6.943-.614 1.043-1.433 1.147-2.431.614zm32.684.273c.521-.92 1.011-2.024-.645-2.975-1.655-.951-15.987-10.499-17.582-11.48l-.061.03c-.736-.367-3.822-1.073-5.233-.153-1.41.92-13.757 8.82-15.69 9.955-1.931 1.135-1.348 2.638-.367 3.22.981.583 3.71 2.24 4.57 2.821.858.583 1.625 1.288.889 2.546-.736 1.257-5.52 9.598-6.502 11.193-.851 3.104.697 4.07 1.893 4.806 1.196.736 14.371 9.004 15.751 9.801 1.38.798 4.312 1.104 5.631.399 1.319-.706 14.74-8.489 16.211-9.378 2.413-2.524-.025-4.34-.67-4.74-.643-.398-3.133-1.357-4.39-2.154-1.257-.797-1.135-1.319-.46-2.515.649-1.15 6.133-10.457 6.654-11.376z"/></svg>