<svg viewBox="0 0 597 597" xmlns="http://www.w3.org/2000/svg"><path d="M22.743 452.154c1.682-2.706 4.374-2.852 8.089-.497 84.217 48.86 175.865 73.275 274.9 73.275 66.018 0 131.219-12.288 195.584-36.88 1.668-.672 4.11-1.68 7.314-3.027 3.19-1.36 5.47-2.34 6.818-3.043 5.061-2.018 9.01-.995 11.877 3.043 2.853 4.023 1.931 7.739-2.779 11.118-6.042 4.388-13.81 9.435-23.23 15.155-28.95 17.174-61.324 30.5-97.06 39.92-35.694 9.451-70.555 14.162-104.595 14.162-52.546 0-102.254-9.187-149.065-27.546-46.826-18.358-88.781-44.192-125.835-77.575-2.018-1.668-3.043-3.35-3.043-5.076 0-.995.337-2.004 1.025-3.029zm152.093-144.018c0-23.244 5.734-43.125 17.188-59.64 11.454-16.502 27.122-28.965 46.987-37.391 18.184-7.753 40.609-13.312 67.218-16.676 9.1-1.01 23.933-2.355 44.457-4.053v-8.572c0-21.563-2.355-36.045-7.066-43.46-7.066-10.11-18.183-15.156-33.338-15.156h-4.038c-11.132 1.009-20.729 4.549-28.803 10.62-8.09 6.07-13.312 14.482-15.668 25.264-1.346 6.743-4.724 10.62-10.108 11.63l-58.134-7.082c-5.734-1.345-8.587-4.387-8.587-9.098 0-1.009.161-2.195.497-3.54 5.735-29.974 19.793-52.21 42.204-66.706s48.596-22.573 78.584-24.254h12.625c38.415 0 68.418 9.932 89.951 29.827a102.59 102.59 0 0 1 9.363 10.854c2.852 3.877 5.12 7.315 6.801 10.358 1.698 3.027 3.22 7.401 4.55 13.135 1.36 5.735 2.37 9.685 3.043 11.88.688 2.18 1.185 6.904 1.522 14.145.35 7.256.497 11.542.497 12.888v122.295c0 8.762 1.258 16.764 3.789 24.005 2.53 7.242 4.973 12.478 7.344 15.667 2.354 3.204 6.231 8.324 11.629 15.418 2.004 3.043 3.028 5.736 3.028 8.09 0 2.721-1.36 5.047-4.037 7.066-27.97 24.255-43.125 37.39-45.48 39.41-4.053 3.027-8.91 3.364-14.659 1.009-4.71-4.037-8.835-7.914-12.375-11.645-3.54-3.685-6.071-6.392-7.578-8.074-1.522-1.683-3.964-4.974-7.358-9.846-3.35-4.885-5.706-8.176-7.051-9.844-18.857 20.538-37.406 33.338-55.59 38.385-11.453 3.365-25.613 5.062-42.451 5.062-25.936 0-47.25-8.002-63.942-24.02-16.675-15.99-25.014-38.65-25.014-67.95zm86.923-10.093c0 13.121 3.292 23.669 9.86 31.598 6.567 7.9 15.418 11.878 26.536 11.878 1.009 0 2.428-.176 4.286-.512 1.858-.337 3.115-.498 3.803-.498 14.146-3.7 25.089-12.8 32.856-27.297 3.702-6.407 6.466-13.385 8.309-20.962 1.873-7.578 2.867-13.736 3.043-18.447.176-4.71.249-12.463.249-23.244v-12.64c-19.53 0-34.378 1.346-44.457 4.038-29.666 8.397-44.485 27.107-44.485 56.086zm212.217 162.698c.687-1.346 1.697-2.706 3.057-4.037 8.426-5.705 16.501-9.611 24.269-11.615 12.785-3.364 25.249-5.237 37.39-5.544 3.366-.322 6.583-.176 9.597.497 15.14 1.346 24.254 3.877 27.297 7.578 1.346 2.019 2.019 5.047 2.019 9.084v3.54c0 11.806-3.218 25.688-9.597 41.706-6.407 16.019-15.33 28.892-26.784 38.649-1.683 1.36-3.219 2.047-4.55 2.047-.673 0-1.375-.189-2.033-.526-2.033-.995-2.532-2.852-1.522-5.558 12.45-29.287 18.681-49.68 18.681-61.119 0-3.715-.658-6.407-2.019-8.119-3.365-4.022-12.8-6.04-28.292-6.04-5.734 0-12.492.32-20.216 1.008-8.44.995-16.164 1.99-23.274 2.999-2.02 0-3.365-.322-4.053-1.01-.643-.658-.834-1.33-.482-1.989.03-.35.22-.878.512-1.55z"/></svg>