<svg viewBox="0 0 597 597" xmlns="http://www.w3.org/2000/svg"><path d="M59.642 370.688V232.959c0-8.88 3.248-16.464 9.729-22.784 6.48-6.32 14-9.472 22.528-9.472 8.88 0 16.464 3.152 22.783 9.472 6.32 6.32 9.473 13.92 9.473 22.784v137.729c0 8.88-3.168 16.464-9.473 22.783-6.303 6.32-13.903 9.473-22.783 9.473s-16.465-3.152-22.784-9.473c-6.32-6.32-9.473-13.903-9.473-22.783zm88.577 51.2V207.872h293.889v214.016c0 8.88-3.153 16.464-9.473 22.784s-13.903 9.472-22.784 9.472H180.459c-8.864 0-16.464-3.152-22.784-9.472-6.32-6.32-9.456-13.904-9.456-22.784zm0-238.08c0-39.248 14.496-71.504 43.504-96.768 29.024-25.263 63.488-37.887 103.44-37.887 39.92 0 74.416 12.624 103.408 37.887 29.04 25.264 43.536 57.52 43.536 96.768h-293.89zM199.93 22.016c0 1.024 8.176 16.56 24.576 46.593l7.68-4.097-25.088-45.567c-1.36-.689-2.56-1.025-3.584-1.025-2.384 0-3.584 1.36-3.584 4.096zm7.68 413.184c0-9.216 3.248-16.896 9.727-23.04 6.48-6.144 14.512-9.216 24.065-9.216 8.544 0 16.048 3.248 22.527 9.728 6.48 6.48 9.729 13.984 9.729 22.528v103.424c0 9.569-3.249 17.312-9.729 23.296-6.48 5.968-14.512 8.96-24.063 8.96-8.88 0-16.464-3.152-22.785-9.472-6.32-6.32-9.471-13.904-9.471-22.784V435.2zm2.56-317.44c0 5.456 1.952 10.24 5.887 14.336 3.937 4.097 8.624 6.144 14.08 6.144 5.81 0 10.672-1.952 14.593-5.888 3.92-3.92 5.888-8.783 5.888-14.592 0-5.456-1.952-10.144-5.888-14.08-3.92-3.92-8.624-5.888-14.08-5.888s-10.24 1.968-14.336 5.888c-4.096 3.936-6.144 8.624-6.144 14.08zM316.667 435.2c0-9.216 3.311-16.896 9.967-23.04 6.657-6.144 14.592-9.216 23.809-9.216 8.88 0 16.464 3.152 22.783 9.472 6.32 6.336 9.473 13.92 9.473 22.8V538.64c0 9.568-3.233 17.312-9.712 23.296-6.48 5.969-14.496 8.96-24.065 8.96-8.88 0-16.463-3.152-22.784-9.472-6.32-6.32-9.471-13.904-9.471-22.784V435.2zm23.024-317.44c0 5.456 1.983 10.24 5.903 14.336 3.92 4.097 8.624 6.144 14.08 6.144s10.24-1.952 14.336-5.888c4.097-3.92 6.145-8.783 6.145-14.592 0-5.456-1.97-10.144-5.89-14.08-3.935-3.92-8.623-5.888-14.08-5.888-5.454 0-10.239 1.968-14.335 5.888-4.111 3.936-6.16 8.624-6.16 14.08zm18.448-53.248l7.68 4.608 24.576-45.568v-1.023c0-3.073-1.184-4.609-3.584-4.609-2.4 0-5.552 3.152-9.488 9.472-3.904 6.305-7.936 13.824-12.032 22.528s-6.464 13.569-7.152 14.592zM466.17 370.688V233.471c0-8.88 3.152-16.56 9.471-23.04 6.32-6.48 13.905-9.728 22.785-9.728s16.463 3.249 22.784 9.728c6.32 6.48 9.471 14.16 9.471 23.04v137.217c0 8.88-3.15 16.464-9.471 22.783-6.32 6.32-13.905 9.473-22.784 9.473s-16.56-3.152-23.024-9.473c-6.513-6.32-9.584-13.903-9.232-22.783z"/></svg>