<svg viewBox="0 0 597 597" xmlns="http://www.w3.org/2000/svg"><path d="M124.075 439.808c0-21.504 4.767-38.24 14.336-50.192 7.855-10.576 20.48-18.256 37.887-23.024-5.456-13.648-8.19-23.712-8.19-30.224 0-11.264 5.967-23.2 17.919-35.824 12.64-11.952 24.4-17.92 35.328-17.92 5.808 0 12.623 1.536 20.48 4.608-16.384-46.768-28.16-82.272-35.329-106.496-8.191-27.648-12.288-47.28-12.288-58.88 0-16.384 4.097-29.184 12.288-38.4 8.529-9.552 19.968-14.336 34.32-14.336 24.56 0 54.096 50.352 88.56 151.04l8.721 25.088a308.697 308.697 0 0 0 6.128-16.896c34.144-99.663 64.863-149.504 92.176-149.504 13.647 0 24.384 4.608 32.256 13.824 8.208 9.216 12.303 21.168 12.303 35.84 0 9.552-4.095 28.832-12.303 57.856-7.168 24.912-18.416 59.056-33.792 102.4 19.471 4.783 33.471 14 42 27.648 9.2 14.671 13.792 37.36 13.792 68.095 0 60.752-18.096 110.416-54.273 148.992-36.863 38.576-83.647 57.857-140.304 57.857-22.527 0-44.191-4.097-65.008-12.305-20.143-7.151-38.4-18.416-54.784-33.775C158.89 528.91 145.93 512 137.386 494.59c-8.863-18.432-13.311-36.688-13.311-54.784zm33.28-2.56c0 8.528 2.383 18.592 7.168 30.208 4.431 10.928 11.088 22.352 19.967 34.304 14 18.096 30.544 31.92 49.665 41.488 19.439 9.552 41.471 14.336 66.03 14.336 44.033 0 81.073-16.544 111.105-49.664 29.696-32.784 44.544-74.256 44.544-124.416 0-15.697-1.025-27.808-3.056-36.352-1.712-7.504-4.977-13.296-9.729-17.408-9.215-7.84-27.311-14.672-54.271-20.464-26.977-6.144-55.664-9.216-86.032-9.216-7.504 0-12.288 1.024-14.336 3.072-2.384 1.024-3.584 4.432-3.584 10.24 0 14 7.84 23.887 23.552 29.68 17.055 7.184 45.232 10.751 84.48 10.751h14.336c5.456 0 9.392 1.89 11.76 5.649 2.752 2.736 4.624 8.016 5.647 15.872-5.792 5.792-15.183 11.088-28.159 15.872-12.305 4.432-21.328 8.88-27.137 13.312-13.664 9.888-24.56 21.664-32.767 35.328-7.857 13.312-11.76 25.936-11.76 37.872 0 7.184 1.68 15.872 5.104 26.128 3.76 11.248 5.648 18.592 5.648 22.016v3.072l-2.064 7.664c-15.008-1.008-25.936-8.016-32.752-20.993-5.808-10.943-9.056-24.943-9.745-42-1.007.336-3.055.513-6.128.513h-5.647c.336 1.695.512 3.76.512 6.144 0 10.256-3.937 18.96-11.777 26.128-7.84 7.152-17.055 10.752-27.664 10.752-16.031 0-32.24-7.68-48.64-23.04-16.351-15.728-24.543-31.088-24.543-46.096 0-2.736.511-5.472 1.536-8.192.336-2.384 3.072-6.16 8.191-11.264 8.529 10.576 14.337 17.92 17.408 22.015 14.336 20.13 27.313 30.208 38.913 30.208 3.055 0 5.967-1.007 8.704-3.07 2.048-2.033 3.072-3.745 3.072-5.105 0-2.736-2.065-7.664-6.16-14.865-2.72-5.103-9.025-14.159-18.945-27.119-9.551-12.288-17.248-20.816-23.04-25.6-5.12-4.785-8.88-7.168-11.263-7.168-6.48 0-12.8 3.744-18.945 11.263-6.127 7.489-9.199 16.881-9.199 28.145zm46.08-97.792c0 4.432 2.72 12.112 8.192 23.04 4.784 9.216 12.464 20.815 23.04 34.815 10.592 13.664 20.144 24.24 28.672 31.744 8.208 6.817 14.336 10.24 18.432 10.24 2.384 0 4.768-1.2 7.168-3.583 2.368-2.737 3.584-5.472 3.584-8.208 0-4.096-3.072-13.985-9.216-29.68-7.168-17.424-15.008-33.104-23.552-47.104-7.52-11.936-14.16-20.32-19.968-25.088-5.472-5.12-10.752-7.68-15.872-7.68-3.744 0-8.016 2.56-12.8 7.68-5.12 5.12-7.68 9.728-7.68 13.824zm23.04-221.184c0 11.6 4.096 29.871 12.288 54.783 7.52 24.24 18.784 56.672 33.792 97.28 3.424-2.047 8.208-3.072 14.336-3.072.336 0 1.472.08 3.344.256 1.872.177 3.664.257 5.376.257 1.36 0 5.792.336 13.312 1.023L273.579 166.4c-9.552-27.312-17.056-45.056-22.512-53.248-4.448-7.168-8.88-10.752-13.328-10.752-3.072 0-5.632 1.36-7.664 4.096-2.416 3.072-3.6 6.992-3.6 11.776zm85.008 261.12a1448.97 1448.97 0 0 1 9.712 25.616c6.832-7.855 13.664-14.336 20.463-19.472-1.68-.335-4.255-.768-7.664-1.28-3.423-.496-5.967-.944-7.664-1.28-6.832-1.36-11.792-2.575-14.847-3.584zm53.744-104.448l34.32 6.144c15.344-42.32 27.12-76.289 35.312-101.888 8.528-27.649 12.816-44.033 12.816-49.153 0-5.456-1.2-9.727-3.6-12.8-1.36-2.383-3.92-3.584-7.664-3.584-4.784 0-10.08 4.609-15.872 13.825-6.496 9.903-13.84 27.135-22.032 51.712z"/></svg>