<svg viewBox="0 0 597 597" xmlns="http://www.w3.org/2000/svg"><path d="M50.346 259.584c11.265-45.056 32.683-83.883 64.256-116.48 31.574-32.597 69.206-55.21 112.896-67.84 43.691-12.629 88.064-13.311 133.12-2.048 45.056 11.265 83.883 32.683 116.48 64.256 32.597 31.574 55.21 69.206 67.84 112.896 12.629 43.691 13.312 88.064 2.048 133.12-11.264 45.056-32.683 83.883-64.256 116.48-31.574 32.597-69.206 55.21-112.896 67.839-43.69 12.63-88.064 13.313-133.12 2.049-45.056-11.264-83.882-32.683-116.479-64.257-32.598-31.573-55.211-69.205-67.84-112.896-12.63-43.69-13.312-88.064-2.049-133.12zm116.737 138.752l36.864 9.216c2.39.342 5.802 1.195 10.24 2.56 4.437 1.366 7.68 2.219 9.728 2.56l-11.777 46.592 28.16 7.168 11.265-46.08c2.048.683 5.632 1.621 10.752 2.816 5.12 1.195 9.045 2.133 11.776 2.816l-11.264 46.08 28.16 6.656 11.264-46.592c16.384 2.73 30.976 4.01 43.776 3.84 12.8-.17 24.064-3.67 33.792-10.496 9.728-6.826 16.981-17.237 21.76-31.232 10.922-30.72 2.218-53.419-26.112-68.096 20.48-4.437 32.426-18.09 35.84-40.96 4.437-29.355-14.336-50.858-56.32-64.512l11.776-46.592-28.16-6.656-11.264 45.056c-2.73-.682-6.656-1.621-11.776-2.816-5.12-1.195-8.704-2.133-10.753-2.816l11.265-45.056-28.16-7.168-11.264 46.08c-5.12-.683-11.094-2.048-17.92-4.096l-38.912-9.728-7.168 30.208 19.968 4.608c9.557 2.39 13.994 7.85 13.311 16.384l-13.311 52.736c.682 0 1.706.342 3.072 1.024-.342-.341-.854-.512-1.536-.512-.683 0-1.195-.17-1.536-.512l-18.433 73.728c-1.706 6.144-5.973 8.363-12.8 6.656l-20.479-5.12zm93.696-11.776l15.36-61.951c.34 0 3.669.682 9.983 2.048s11.094 2.56 14.336 3.584c3.243 1.024 8.022 2.56 14.336 4.607 6.315 2.048 11.179 4.267 14.592 6.656s6.997 5.206 10.752 8.449 6.23 6.997 7.425 11.263c1.195 4.267 1.109 8.96-.257 14.08-1.024 3.755-2.56 6.998-4.607 9.729-2.049 2.73-4.609 4.778-7.681 6.143-3.072 1.366-6.229 2.56-9.472 3.584s-7.168 1.451-11.776 1.28c-4.608-.17-8.618-.426-12.031-.768-3.414-.341-7.51-1.024-12.288-2.048s-8.448-1.792-11.008-2.303c-2.56-.513-5.889-1.28-9.985-2.304-4.095-1.024-6.655-1.707-7.68-2.049zm22.528-90.112l13.824-56.32c1.024.34 3.157.853 6.4 1.536 3.242.683 6.058 1.28 8.448 1.792 2.39.512 5.462 1.365 9.216 2.56s6.997 2.303 9.728 3.328 5.802 2.474 9.216 4.352c3.413 1.877 5.973 3.754 7.68 5.632 1.707 1.877 3.67 4.18 5.888 6.912 2.219 2.73 3.243 5.547 3.072 8.448-.17 2.901-.426 6.23-.768 9.984-1.024 4.437-2.816 8.106-5.376 11.007-2.56 2.902-5.803 4.865-9.728 5.89a98.46 98.46 0 0 1-11.52 2.303c-3.755.512-8.277.341-13.568-.512a895.365 895.365 0 0 1-12.288-2.049c-2.901-.511-6.827-1.45-11.776-2.815s-7.765-2.048-8.448-2.048z"/></svg>