<svg viewBox="0 0 597 597" xmlns="http://www.w3.org/2000/svg"><path d="M42.667 414.72V225.792c0-44.373 15.872-82.432 47.616-114.176s69.803-47.617 114.176-47.617H317.61c22.186 2.731 45.823 12.459 70.912 29.184 25.088 16.726 42.922 36.353 53.504 58.881.341.682 1.194 2.303 2.56 4.863s2.218 4.267 2.56 5.12c.341.854.938 2.475 1.792 4.865.853 2.389 1.535 4.522 2.048 6.4.512 1.877 1.109 4.522 1.792 7.936a359.155 359.155 0 0 1 2.048 11.263c.682 4.097 1.365 9.046 2.048 14.849 3.072 23.893 7.509 38.4 13.311 43.52 4.78 4.437 16.897 6.911 36.353 7.423 19.455.513 30.549 1.793 33.28 3.84l7.168 5.633 4.095 8.704 1.537 7.168-1.025 131.07c-.34 44.375-16.213 82.348-47.616 113.92C472.576 560.214 434.688 576 390.315 576H204.459c-44.373 0-82.432-15.786-114.176-47.36-31.744-31.573-47.616-69.546-47.616-113.92zm132.608-2.56c0 8.533 3.072 15.787 9.215 21.76s13.483 8.96 22.016 8.96h182.272c8.533 0 15.787-2.987 21.76-8.96s8.96-13.227 8.96-21.76-2.987-15.786-8.96-21.76-13.227-8.96-21.76-8.96H206.506c-8.533 0-15.872 2.987-22.016 8.96s-9.215 13.227-9.215 21.76zm0-185.344c0 8.533 3.072 15.872 9.215 22.016s13.483 9.215 22.016 9.215h89.6c8.534 0 15.787-3.072 21.76-9.215s8.96-13.483 8.96-22.016c0-8.534-2.986-15.787-8.96-21.76s-13.226-8.96-21.76-8.96h-89.6c-8.533 0-15.872 2.986-22.016 8.96s-9.215 13.226-9.215 21.76z"/></svg>