<svg viewBox="0 0 597 597" xmlns="http://www.w3.org/2000/svg"><path d="M-2.005 355.328c0-35.504 12.544-65.872 37.632-91.136 25.087-25.264 55.215-37.888 90.368-37.888l.511.512c0-1.024-.08-2.224-.255-3.584-.176-1.36-.256-2.384-.256-3.072 0-40.272 14.08-74.576 42.24-102.912 28.16-28.336 62.208-42.496 102.144-42.496 35.152 0 66.048 11.264 92.672 33.792s43.008 50.864 49.152 84.992h8.704c39.92 0 73.984 14.16 102.144 42.496s42.256 62.64 42.256 102.912c0 40.288-14.096 74.592-42.256 102.928s-62.223 42.48-102.144 42.48c-2.736 0-4.784-.16-6.144-.495v.495H118.81v-.512c-33.792-1.712-62.367-15.023-85.76-39.935-23.376-24.913-35.056-54.433-35.056-88.577z"/></svg>