<svg viewBox="0 0 597 597" xmlns="http://www.w3.org/2000/svg"><path d="M84.779 318.976c0-36.527 4.96-71.008 14.848-103.424 9.551-31.408 23.712-58.544 42.496-81.408 19.12-22.864 42.16-40.272 69.12-52.224 27.647-12.288 58.015-18.431 91.136-18.431 43.68 0 80.736 10.416 111.104 31.231 30.72 20.144 53.92 46.944 69.647 80.384 15.68 32.432 23.536 65.888 23.536 100.353 0 31.744-8.015 52.223-24.08 61.456-16.032 9.2-38.56 13.807-67.568 13.807H198.443c0 29.008 5.12 54.289 15.36 75.777 9.903 22.192 22.863 38.56 38.911 49.152 17.056 11.248 35.152 16.896 54.288 16.896 13.985 0 26.096-1.697 36.336-5.12 10.576-3.424 21.152-9.04 31.744-16.896 10.56-7.52 20.128-15.536 28.656-24.064 8.528-8.529 19.808-20.32 33.792-35.344 5.12-5.456 13.136-8.193 24.064-8.193 11.616 0 20.832 3.601 27.648 10.752 7.184 7.185 10.768 17.073 10.768 29.697 0 10.927-3.92 24.24-11.775 39.935-7.168 14.673-19.105 29.185-35.825 43.52-15.712 14-35.504 25.6-59.408 34.817-24.223 9.216-51.696 13.823-82.431 13.823-71.329 0-126.801-23.04-166.385-69.103-39.616-46.433-59.408-108.88-59.408-187.393zm113.664-39.936h200.704c-2.4-42.672-12.624-74.752-30.721-96.256-17.408-21.152-40.624-31.744-69.648-31.744-28 0-50.688 10.752-68.096 32.256-17.728 21.504-28.48 53.424-32.24 95.744z"/></svg>