<svg viewBox="0 0 597 597" xmlns="http://www.w3.org/2000/svg"><path d="M79.819 512.512c1.023-10.576 3.071-21.856 6.144-33.792 3.744-15.36 16.032-75.184 36.864-179.456 20.815-104.271 32.928-163.936 36.351-178.943 4.097-17.744 8.193-30.128 12.289-37.12 4.096-7.008 10.752-12.033 19.967-15.105 9.217-3.071 24.065-4.607 44.544-4.607h123.393c20.144 0 43.168.175 69.104.511 25.952.336 45.744.512 59.408.512 14 0 22.528 7.68 25.6 23.04 3.408 16.384-.496 32.08-11.776 47.105-10.24 13.664-24.064 20.48-41.472 20.48H254.923l-25.6 119.295 180.225 1.536c15.024 0 24.24 7.68 27.664 23.04 3.408 15.36-.192 29.697-10.752 43.008-9.216 11.265-21.168 16.897-35.84 16.897H206.284l-24.576 126.976h221.184c21.84 0 34.912 7.423 39.168 22.272 4.257 14.848 1.36 29.775-8.703 44.815-10.065 15.01-21.6 22.513-34.56 22.513H115.66c-10.24 0-18.352-2.896-24.32-8.704-5.983-5.792-9.647-13.664-11.008-23.552-1.36-9.888-1.536-20.144-.512-30.72z"/></svg>