<svg viewBox="0 0 597 597" xmlns="http://www.w3.org/2000/svg"><path d="M124.779 166.912h357.888l-33.792 363.52-145.408 41.473-145.408-41.473zm33.28-30.72V68.095h23.04v22.529h20.48V68.095h22.528v68.097H201.58v-22.528H181.1v22.528h-23.04zm33.28 104.96l12.288 136.191.511-1.023H357.74l-5.12 57.855L303.467 448l-49.664-14.336-3.071-34.816h-45.057l6.145 69.648 91.647 26.113 91.664-26.113 12.8-136.704H244.587l-4.096-45.568h171.52l4.113-45.056H191.34v-.015zm43.008-150.016v-23.04h62.464v23.04h-19.968v45.057H254.33V91.136h-19.984zm72.192 45.056V68.095h24.063l13.824 23.553 14.336-23.553h24.065v68.097h-22.032v-34.816l-16.369 25.6v-.513L329.05 102.4v33.792H306.54zm88.064 0V68.095h22.528v45.057h31.728v23.04h-54.256z"/></svg>