<svg viewBox="0 0 597 597" xmlns="http://www.w3.org/2000/svg"><path d="M88.167 65.6c5.1-1.2 36.9-1.4 210-1.5 226.4-.1 209.8-.6 224.4 6.6 10.3 5.1 20.4 15.2 25.3 25.3 7.3 14.8 6.8-2.3 6.5 226.5l-.2 206-2.2 6.4c-6.6 18.7-19.701 31.8-38.4 38.4l-6.4 2.2-206 .2c-223.6.3-211 .6-223.9-5.1-12.4-5.5-23.4-16.4-29.1-28.9-5.8-12.5-5.5-.3-5.4-222.2 0-197.5.1-204.2 1.9-211.3 2.8-10.6 7.5-18.6 15.5-26.7 7.9-7.8 17.9-13.5 28-15.9zm398.6 60.9l-4.3-3-34.6-.3-34.7-.3-5 2.5c-5.4 2.7-8.8 7-10.2 12.6-.5 1.9-.9 18.4-.8 36.5l.1 33.1 3 4.4c1.7 2.6 4.9 5.6 7.4 7l4.5 2.4 33 .1c36.2.1 38.8-.2 44.3-5.6 6.1-5.9 6.3-7.8 6-44.9-.3-38.1-.5-38.7-8.7-44.5zm-168.2 97.1c-9.4-1.9-20-2.4-30.2-1.4-24.9 2.4-50.3 16.2-66 35.9-28.8 35.9-29.5 84.9-1.9 121.5 12.2 16.1 28.2 27.5 47.799 33.9 13.9 4.5 29 6.1 41.4 4.3 3-.5 7-1.1 8.9-1.3 5.9-.9 18.4-5.5 26.4-9.8 27.2-14.5 47-42.8 51.3-73.6 1.2-8.1.6-24.4-1.1-32.5-8.1-38.7-38.3-69.1-76.6-77zm-174.1 64.9l1.8-8h-21.9c-14 0-22.1.4-22.3 1-.3.6-.3 50.7-.2 111.5l.3 110.5 2.4 3.8c1.3 2.1 4.2 5 6.4 6.5l4.1 2.7 182.5.2 182.6.3 4.5-2.3c2.6-1.4 5.8-4.2 7.5-6.6l3-4.3.3-111.1c.1-66.9-.1-111.3-.7-111.601-.7-.5-39.6-.6-43.4-.2-.5.1-.6.5-.3 1 1 1.6 3.5 14.5 4.1 21.6 1.9 21.1.7 36.8-4.1 56-15.1 59.7-67.2 107.1-127.4 116-51.2 7.7-99.9-8.2-136.1-44.4-13.6-13.7-21.7-24.8-29.9-41.1-15.4-30.7-20.3-68.5-13.2-101.5z"/></svg>