<svg viewBox="0 0 597 597" xmlns="http://www.w3.org/2000/svg"><path d="M42.667 320c0-46.421 11.434-89.259 34.303-128.512 22.87-39.253 53.932-70.315 93.185-93.185C209.408 75.434 252.245 64 298.667 64c46.421 0 89.258 11.434 128.512 34.303 39.253 22.87 70.315 53.932 93.185 93.185 22.869 39.253 34.303 82.09 34.303 128.512s-11.434 89.258-34.303 128.512c-22.87 39.253-53.932 70.315-93.185 93.185C387.926 564.566 345.089 576 298.667 576c-46.421 0-89.259-11.434-128.512-34.303-39.253-22.87-70.315-53.932-93.185-93.185C54.101 409.259 42.667 366.422 42.667 320zm51.2 0c0 56.661 19.968 104.96 59.903 144.896 39.936 39.935 88.235 59.903 144.896 59.903 56.662 0 104.96-19.968 144.896-59.903 39.936-39.936 59.903-88.235 59.903-144.896s-19.967-104.96-59.903-144.896c-39.936-39.936-88.235-59.903-144.896-59.903-56.661 0-104.96 19.967-144.896 59.903C113.835 215.04 93.867 263.339 93.867 320zm93.696 90.112c0-11.264 4.095-20.993 12.287-29.185s18.09-12.288 29.696-12.288c4.438 0 9.216.854 14.336 2.56V217.6l148.48-25.6v201.728c-.342 10.582-4.694 19.798-13.057 27.649s-17.834 11.776-28.416 11.776-19.456-3.67-26.624-11.009c-7.168-7.338-10.752-16.298-10.752-26.88 0-11.263 4.096-20.991 12.288-29.183s17.92-12.288 29.185-12.288c4.437 0 9.216.853 14.336 2.56V249.855l-102.4 18.944v137.729c0 11.263-4.096 20.991-12.288 29.183S236.714 448 225.45 448c-10.581 0-19.541-3.669-26.88-11.007s-11.007-16.299-11.007-26.88z"/></svg>