<svg viewBox="0 0 597 597" xmlns="http://www.w3.org/2000/svg"><path d="M42.41 121.856c-.17-3.755.854-7.254 3.073-10.496 2.218-3.243 4.522-6.059 6.911-8.448s6.4-5.035 12.032-7.937c5.633-2.9 10.24-5.12 13.825-6.655 3.584-1.537 9.216-3.926 16.896-7.168 7.68-3.243 13.568-5.718 17.663-7.425 18.433-7.509 34.987-10.24 49.664-8.191 14.678 2.048 23.894 8.021 27.649 17.92 8.533 22.869 26.026 77.397 52.48 163.584 26.453 86.186 46.165 147.883 59.136 185.088 91.477-30.038 147.115-47.957 166.912-53.76 5.46-2.048 11.86-2.731 19.2-2.048 7.338.682 12.885 4.607 16.64 11.775 7.85 16.043 13.397 32.854 16.64 50.433s3.327 30.293.255 38.144c-6.485 5.12-16.64 10.58-30.464 16.383s-26.71 10.753-38.656 14.849c-11.947 4.096-27.22 9.045-45.823 14.848-18.603 5.802-31.147 9.728-37.633 11.776-3.413 1.024-9.898 3.243-19.455 6.655a1892.316 1892.316 0 0 1-27.137 9.473c-8.533 2.901-18.431 6.144-29.695 9.728-11.264 3.583-21.675 6.57-31.232 8.96s-18.774 4.352-27.649 5.888c-8.874 1.536-16.469 2.133-22.783 1.792-6.315-.342-10.667-1.878-13.057-4.608-6.144-6.144-11.605-15.019-16.383-26.624s-9.728-26.454-14.848-44.544c-5.12-18.09-8.363-29.355-9.729-33.792-14.336-42.667-33.62-100.438-57.855-173.312a274357.34 274357.34 0 0 0-53.248-160c-2.048-4.437-3.158-8.533-3.328-12.287z"/></svg>