<svg viewBox="0 0 597 597" xmlns="http://www.w3.org/2000/svg"><path d="M12.379 377.856v-77.313c0-3.408 1.2-6.4 3.584-8.96s5.456-3.84 9.215-3.84H160.86l-58.88 102.913h-76.8c-3.744 0-6.816-1.185-9.216-3.6-2.384-2.368-3.584-5.44-3.584-9.2zm62.463 124.928l33.792 19.472zm5.136-22.272c-1.023-3.584-.687-6.928 1.025-9.984L236.65 200.192c1.695-3.072 4.271-5.04 7.68-5.888 3.407-.848 6.656-.432 9.727 1.28l33.28 18.944c3.408 1.696 5.552 4.352 6.4 7.936.848 3.584.432 6.912-1.28 9.984L137.322 502.784c-1.712 3.072-4.352 5.024-7.936 5.888s-6.912.416-9.984-1.28l-33.28-19.457c-3.088-1.376-5.12-3.84-6.145-7.423zm157.697-89.856l58.88-102.912h34.32l48.128 102.912H237.675zm39.936-320c.336-3.072 1.359-5.12 3.071-6.145 3.408-1.711 9.473 3.584 18.177 15.873s20.91 32.08 36.607 59.392c15.712 27.312 26.288 45.232 31.744 53.76 9.569 15.008 22.432 37.296 38.656 66.815 16.224 29.52 31.745 58.369 46.592 86.529s22.288 42.4 22.288 42.752c3.744 6.496 3.409 12.64-1.024 18.432-4.432 5.808-9.712 9.904-15.872 12.287-6.144 2.752-10.24 4.288-12.287 4.624-2.065.336-7.17-.863-15.377-3.6-10.224-5.12-42.656-72.192-97.264-201.215-1.696-3.744-4.016-8.96-6.928-15.616s-5.792-13.136-8.688-19.457c-2.912-6.32-6.064-13.471-9.487-21.503a2370.271 2370.271 0 0 1-9.473-22.529 1219.287 1219.287 0 0 1-8.704-21.504c-2.911-7.343-5.216-14-6.911-19.967-1.697-5.985-3.073-11.52-4.097-16.64-1.023-5.12-1.376-9.217-1.023-12.288zm167.936 217.088h120.32c3.408 0 6.4 1.28 8.975 3.84 2.56 2.56 3.84 5.552 3.84 8.96v77.312c0 3.408-1.28 6.384-3.84 8.96-2.56 2.575-5.567 3.84-8.975 3.84H497.77c-1.376-5.473-2.72-9.392-4.096-11.776l-12.288-23.552c-21.84-41.313-33.792-63.824-35.84-67.584zm6.656 162.032c1.007-3.568 3.231-6.224 6.656-7.92l18.943-9.728c3.409-1.696 7.008-1.968 10.752-.768 3.744 1.2 6.496 3.504 8.193 6.928l15.872 30.72c4.095 8.192 2.4 14.848-5.12 19.968l-13.808 8.192c-3.408 1.696-7.009 2.128-10.752 1.28-3.744-.864-6.656-3.008-8.72-6.4l-20.465-31.744c-2.08-3.424-2.591-6.928-1.551-10.528zm39.152 74c.191-5.472.863-9.04 2.063-10.752 1.184-1.712 3.313-4.096 6.384-7.168l12.305-4.608c20.815-4.096 33.088 7.84 36.863 35.84 1.008 10.912.864 23.888-.512 38.912-1.376-4.096-8.88-9.12-22.528-15.088-13.664-5.984-23.023-12.56-28.16-19.712-4.448-6.176-6.575-11.968-6.415-17.424z"/></svg>