<svg viewBox="0 0 597 597" xmlns="http://www.w3.org/2000/svg"><path d="M24.17 395.264c-.335-21.52 3.84-41.392 12.544-59.648 8.705-18.272 20.128-33.456 34.304-45.584 14.16-12.112 29.857-22.864 47.105-32.255 17.232-9.376 34.48-16.721 51.712-22.017s33.024-9.647 47.36-13.056 25.952-5.632 34.815-6.656l13.313-1.536v62.977c-19.456 1.359-37.296 4.687-53.504 9.983s-29.44 11.52-39.68 18.688c-10.24 7.168-19.297 14.944-27.136 23.296-7.84 8.368-13.825 16.56-17.92 24.577-4.096 8.015-7.344 15.263-9.728 21.76-2.385 6.48-3.76 11.776-4.097 15.871l-1.023 6.144a77.999 77.999 0 0 0-1.536 15.36c0 7.504 1.183 14.672 3.584 21.504 4.096 11.616 10.592 21.504 19.456 29.68 8.88 8.208 18.943 15.792 30.208 22.8 11.264 6.992 22.88 12.625 34.815 16.896 11.937 4.273 22.865 7.937 32.769 11.008 9.903 3.072 17.92 5.296 24.063 6.656l9.729 1.552V576c-33.105-3.408-63.057-9.391-89.856-17.92s-48.384-18.175-64.768-28.927-30.56-22.288-42.496-34.56c-11.937-12.272-20.656-24.32-26.112-36.096s-9.648-22.353-12.544-31.745c-2.896-9.376-4.529-16.975-4.865-22.784zM285.29 576V114.176L357.979 64v472.064zm90.113-302.592h-.017v-58.88l26.624 2.56c18.08 1.712 39.52 6.992 64.256 15.872 24.752 8.88 43.952 20.656 57.616 35.328l54.784-31.233v125.44l-160.24-39.936 42.48-17.407-10.751-8.193c-7.52-5.12-18.433-10.416-32.769-15.872-13.311-4.767-26.447-7.343-39.44-7.68h-2.543z"/></svg>