<svg viewBox="0 0 597 597" xmlns="http://www.w3.org/2000/svg"><path d="M102.379 249.344c0-21.504 4.528-42.832 13.568-64s22.016-40.784 38.912-58.88c16.896-18.08 39.088-32.768 66.56-44.032 27.471-11.264 57.952-16.896 91.391-16.896 54.273 0 98.817 16.72 133.633 50.176 34.816 33.456 52.224 72.88 52.224 118.272 0 58.367-14.752 106.575-44.288 144.64s-67.664 57.088-114.432 57.088c-15.345 0-29.777-3.6-43.248-10.752-13.504-7.183-22.977-15.872-28.416-26.128l-20.48 80.912c-1.696 6.464-3.92 13.04-6.656 19.697a215.632 215.632 0 0 1-8.96 19.199c-3.248 6.144-6.48 11.936-9.728 17.408s-6.481 10.592-9.728 15.36c-3.248 4.785-6.064 8.8-8.448 12.033-2.384 3.231-4.609 6.063-6.657 8.447L194.54 576c-1.025 1.376-2.384 1.872-4.096 1.536-1.696-.336-2.72-1.36-3.072-3.055 0-.337-.256-2.737-.769-7.17-.512-4.431-1.023-9.135-1.535-14.078-.513-4.96-1.024-11.345-1.536-19.2a262.426 262.426 0 0 1-.513-22.785c.177-7.344.673-15.456 1.536-24.336.849-8.88 2.128-17.055 3.84-24.56 3.76-16.048 16.385-69.472 37.889-160.271-2.737-5.456-4.96-12.032-6.656-19.712-1.712-7.68-2.56-13.904-2.56-18.689l-.496-7.68c0-21.84 5.536-40.015 16.64-54.528 11.087-14.496 24.496-21.76 40.192-21.76 12.64 0 22.447 4.176 29.44 12.544 7.007 8.353 10.495 18.865 10.495 31.489 0 7.855-1.439 17.488-4.335 28.927-2.896 11.44-6.752 24.577-11.537 39.424-4.767 14.849-8.191 26.88-10.24 36.097-3.407 15.376-.416 28.687 8.96 39.935 9.408 11.264 21.937 16.913 37.649 16.913 26.975 0 49.232-15.28 66.832-45.825 17.568-30.56 26.351-67.504 26.351-110.848 0-33.104-10.752-60.16-32.271-81.152-21.504-20.992-51.536-31.488-90.096-31.488-43.009 0-77.92 13.824-104.704 41.472-26.8 27.648-40.192 60.752-40.192 99.329 0 22.863 6.48 42.143 19.456 57.855 4.431 5.12 5.807 10.592 4.095 16.384-.687 1.713-1.712 5.633-3.07 11.776-1.361 6.145-2.386 10.065-3.073 11.777-.672 3.744-2.384 6.223-5.12 7.407-2.737 1.2-5.808 1.12-9.216-.256-20.16-8.191-35.264-22.271-45.344-42.24-10.08-19.968-15.104-43.264-15.104-69.888z"/></svg>