<svg viewBox="0 0 597 597" xmlns="http://www.w3.org/2000/svg"><path d="M42.667 331.264c0-48.128 11.434-92.586 34.303-133.376 22.87-40.79 53.932-73.045 93.185-96.768s82.09-35.584 128.512-35.584c46.421 0 89.258 11.862 128.512 35.584s70.315 55.979 93.185 96.768c22.869 40.79 34.303 85.248 34.303 133.376 0 1.365-.085 3.072-.256 5.12s-.255 3.755-.255 5.12c-2.732-70.997-28.758-131.243-78.08-180.736-49.323-49.493-108.46-74.24-177.409-74.24s-128.085 24.747-177.408 74.24c-49.322 49.494-75.349 109.74-78.08 180.736 0-1.365-.085-3.072-.256-5.12-.17-2.048-.255-3.755-.255-5.12zm93.696-.512c0-46.421 15.872-86.101 47.615-119.04 31.744-32.939 69.974-49.408 114.688-49.408s82.944 16.47 114.688 49.408c31.744 32.939 47.615 72.619 47.615 119.04 0 1.024-.085 2.73-.255 5.12s-.256 4.096-.256 5.12c-2.73-44.032-19.627-81.408-50.689-112.128-31.061-30.72-68.096-46.08-111.104-46.08s-80.042 15.36-111.104 46.08c-31.062 30.72-47.958 68.096-50.688 112.128 0-1.024-.086-2.73-.256-5.12s-.256-4.096-.256-5.12zm84.992 99.84c0-11.264.768-21.333 2.303-30.208 1.536-8.875 3.328-16.213 5.376-22.016s5.206-10.752 9.472-14.848c4.267-4.096 8.192-7.168 11.776-9.216 3.584-2.048 8.448-3.669 14.592-4.864s11.435-1.877 15.872-2.048c4.438-.17 10.411-.256 17.92-.256 7.51 0 13.483.085 17.92.256 4.438.17 9.728.854 15.872 2.048s11.008 2.816 14.592 4.864c3.584 2.048 7.51 5.12 11.776 9.216 4.267 4.096 7.424 9.045 9.472 14.848s3.84 13.141 5.376 22.016c1.536 8.875 2.304 18.944 2.304 30.208 0 40.277-7.595 74.837-22.783 103.68-15.19 28.843-33.366 43.264-54.529 43.264-21.162 0-39.339-14.42-54.528-43.263-15.189-28.843-22.783-63.404-22.783-103.681zm24.064-143.36c0-15.019 5.205-27.99 15.616-38.912 10.41-10.923 22.955-16.385 37.632-16.385s27.22 5.462 37.631 16.385c10.411 10.922 15.617 23.893 15.617 38.912 0 15.018-5.206 27.989-15.617 38.911-10.41 10.923-22.954 16.385-37.631 16.385s-27.221-5.462-37.632-16.385c-10.41-10.922-15.616-23.893-15.616-38.911z"/></svg>