<svg viewBox="0 0 597 597" xmlns="http://www.w3.org/2000/svg"><path d="M-6.309 318.464c0-21.152 8.447-39.248 25.344-54.272 16.895-15.024 36.096-22.528 57.6-22.528 21.167 0 39.072 6.144 53.76 18.432h2.56c45.727-27.984 102.912-41.984 171.52-41.984l2.56-2.047 35.84-136.704L466.78 97.792c0 .336.336.512 1.008.512.336 0 .336-.176 0-.512.687-.336 2.64-2.992 5.888-7.935 3.248-4.96 5.712-8.113 7.424-9.473C492.73 69.456 506.73 64 523.099 64c16.72 0 30.816 5.552 42.256 16.64 11.44 11.088 17.136 24.992 17.136 41.728s-5.696 31.056-17.136 43.008c-11.44 11.952-25.536 17.92-42.256 17.92-19.457 0-34.32-6.576-44.528-19.712-10.256-13.136-15.376-29.616-15.376-49.408-.688.336-17.312-1.872-49.904-6.656-32.608-4.768-51.296-7.664-56.065-8.704h-1.551c-.672.688-3.504 9.808-8.449 27.392a5118.698 5118.698 0 0 0-15.343 55.808c-5.312 19.632-8.288 30.464-8.976 32.512v1.536l2.56 2.048c24.56 0 49.744 3.504 75.52 10.496 25.775 6.992 48.048 16.816 66.815 29.44l1.553 1.024c.336-.336.672-.512 1.008-.512s.672-.176 1.008-.512c8.528-6.144 14.592-10.4 18.192-12.8 3.584-2.384 8.623-4.608 15.088-6.656 6.496-2.048 13.823-3.072 22.031-3.072 23.2 0 43.01 8.192 59.376 24.576 16.4 16.385 24.609 36.352 24.609 59.904 0 16.048-4.529 30.72-13.584 44.032-9.056 13.312-20.912 23.568-35.584 30.72 0 66.56-44.368 118.288-133.12 155.136-14 6.145-23.569 10.065-28.672 11.76-10.928 3.425-26.448 6.656-46.592 9.728-20.144 3.073-36.017 4.624-47.616 4.624-40.96 0-80.384-5.967-118.272-17.92-.688-.671-12.976-7.168-36.863-19.456-32.433-17.408-58.449-37.2-78.08-59.391-19.632-22.193-29.441-48.817-29.441-79.872h-2.56c-11.264-5.792-21.328-14.336-30.208-25.617l-4.608-6.128c-5.12-9.215-8.351-16.992-9.727-23.312-1.376-6.32-2.048-14.912-2.048-25.84zm17.407 6.144c0 22.512 9.729 41.647 29.185 57.344 1.695-20.145 9.903-39.937 24.576-59.393 14.672-19.456 31.92-36.687 51.712-51.712-12.64-8.863-26.624-13.311-41.984-13.311-16.72 0-31.489 6.912-44.289 20.736-12.8 13.823-19.2 29.264-19.2 46.336zm52.24 74.752c0 18.416 5.296 36.176 15.873 53.248 10.576 17.056 24.144 31.664 40.704 43.76 16.56 12.128 34.048 22.288 52.48 30.464 18.432 8.175 36.352 14 53.76 17.408 25.6 4.784 50.527 7.168 74.752 7.168 41.983 0 81.744-6.736 119.296-20.225 37.536-13.487 69.12-34.384 94.72-62.735h-1.536c10.24-12.977 17.568-24.656 22-35.057 4.432-10.4 6.656-22.783 6.656-37.119 0-18.416-4.512-36-13.569-52.72-9.023-16.736-20.91-31.072-35.584-43.008-14.672-11.952-30.383-22.272-47.103-30.976s-33.777-15.28-51.185-19.712C365.58 242 334.7 238.08 301.93 238.08c-25.263 0-51.12 3.072-77.567 9.216-26.448 6.144-52.048 15.36-76.8 27.648-24.753 12.288-44.976 29.264-60.673 50.943-15.712 21.681-23.552 46.177-23.552 73.473zm95.233-37.376c0-12.64 3.84-22.784 11.52-30.465 7.663-7.68 17.823-11.52 30.463-11.52 12.624 0 23.216 3.84 31.744 11.52 8.528 7.68 12.8 17.824 12.8 30.465 0 12.304-4.352 22.527-13.056 30.72-8.704 8.208-19.2 12.303-31.488 12.303s-22.352-4.095-30.208-12.303c-7.856-8.193-11.775-18.416-11.775-30.72zm18.432 83.968h22.528c8.544 15.36 22.096 27.04 40.704 35.072 18.607 8.016 37.632 12.032 57.088 12.032 19.792 0 38.576-4.016 56.32-12.032 17.743-8.032 32.096-19.713 43.008-35.072h20.991c-8.527 21.168-24.4 37.552-47.632 49.136-23.2 11.632-47.439 17.424-72.687 17.424-24.576 0-48.72-5.888-72.448-17.665-23.728-11.792-39.697-28.063-47.872-48.895zm172.016-83.968c0-12.977 3.92-23.2 11.76-30.72 7.872-7.505 18.288-11.264 31.264-11.264 11.6 0 21.504 4.095 29.68 12.288 8.192 8.208 12.288 18.095 12.288 29.696 0 11.6-4.096 21.664-12.288 30.208-8.192 8.544-18.096 12.815-29.68 12.815-12.64 0-22.976-4.015-30.992-12.032-8.016-8.031-12.032-18.367-12.032-30.991zm130.576-239.616c0 11.952 4.272 22.191 12.8 30.72 8.528 8.544 18.784 12.8 30.72 12.8 12.288 0 22.352-4.192 30.224-12.544 7.84-8.352 11.76-18.688 11.76-30.976 0-11.6-4.096-21.504-12.304-29.696-8.193-8.192-18.08-12.288-29.68-12.288-11.6 0-21.744 4.175-30.464 12.543-8.704 8.369-13.056 18.176-13.056 29.44zm7.168 143.872c18.768 12.288 34.976 28.064 48.624 47.36 13.664 19.28 23.215 39.68 28.688 61.184 20.128-14.672 30.208-31.057 30.208-49.152 0-19.792-6.064-36.865-18.176-51.2-12.129-14.336-27.904-21.504-47.376-21.504-15.344 0-29.344 4.432-41.968 13.312z"/></svg>