<svg viewBox="0 0 597 597" xmlns="http://www.w3.org/2000/svg"><path d="M42.667 507.392c0-18.773 6.656-34.816 19.967-48.128 13.312-13.312 29.355-19.968 48.128-19.968s34.816 6.656 48.128 19.968c13.313 13.312 19.97 29.355 19.97 48.128 0 19.115-6.657 35.243-19.97 48.384-13.312 13.142-29.354 19.712-48.128 19.712s-34.816-6.656-48.128-19.969c-13.311-13.311-19.967-29.354-19.967-48.127zm0-171.52V238.08c61.099 0 117.59 15.104 169.472 45.311 51.882 30.209 92.928 71.254 123.137 123.137 30.207 51.883 45.311 108.373 45.311 169.472h-98.304c0-66.218-23.381-122.709-70.144-169.472-47.104-47.104-103.594-70.656-169.472-70.656zm0-173.568V64c69.29 0 135.509 13.568 198.656 40.704 63.146 27.136 117.589 63.574 163.328 109.312 45.738 45.74 82.175 100.182 109.312 163.328C541.099 440.491 554.667 506.71 554.667 576h-98.304c0-55.978-10.923-109.568-32.769-160.768-21.845-51.2-51.284-95.232-88.319-132.097-37.035-36.864-81.067-66.218-132.097-88.063-51.03-21.846-104.533-32.769-160.512-32.769z"/></svg>