<svg viewBox="0 0 597 597" xmlns="http://www.w3.org/2000/svg"><path d="M42.667 354.304v-68.607l1.28-30.208L47.53 224l7.168-27.135 12.032-28.416 18.176-23.809 25.855-24.32C160.597 82.775 221.354 64 293.034 64h8.192v397.824h63.488V355.328c2.39 3.755 9.045 14.592 19.968 32.512s19.627 31.488 26.112 40.704c9.899 13.654 20.736 22.7 32.512 27.136 11.776 4.437 27.392 6.656 46.848 6.656h18.432V401.92c-15.36 0-26.112-1.195-32.256-3.584s-13.312-9.387-21.504-20.992c-4.778-6.144-11.093-15.787-18.944-28.928a29057.905 29057.905 0 0 0-13.312-22.272l87.552-121.855h-75.776l-69.632 96.767V69.12c46.08 7.51 86.699 24.576 121.856 51.2 9.899 7.51 18.517 15.616 25.856 24.32 7.338 8.704 13.397 16.64 18.175 23.808s8.79 16.64 12.033 28.416 5.632 20.822 7.168 27.136c1.536 6.315 2.73 16.81 3.584 31.488.853 14.678 1.28 24.747 1.28 30.208v68.608l-1.28 30.208L549.802 416l-7.168 27.136-12.033 28.416-18.175 23.808-25.856 24.32C436.735 557.227 374.101 576 298.666 576s-138.07-18.773-187.904-56.32c-9.898-7.51-18.517-15.616-25.855-24.32-7.339-8.704-13.398-16.64-18.176-23.808s-8.79-16.64-12.032-28.416C51.456 431.36 49.066 422.315 47.53 416c-1.537-6.314-2.731-16.81-3.584-31.488-.854-14.677-1.28-24.747-1.28-30.208zm41.471 76.288c22.528 22.87 55.297 34.304 98.305 34.304 27.307 0 50.773-6.997 70.4-20.992 19.626-13.995 29.44-34.133 29.44-60.416 0-17.408-3.072-31.83-9.216-43.264-6.144-11.435-13.824-19.2-23.04-23.296s-19.2-7.424-29.952-9.984c-10.752-2.56-20.736-4.096-29.952-4.608s-16.896-2.474-23.04-5.888c-6.144-3.413-9.216-8.533-9.216-15.36 0-16.042 11.947-23.893 35.84-23.552 19.456 0 34.304 4.95 44.544 14.848l39.935-39.936c-20.48-20.48-49.493-30.72-87.039-30.72-26.624 0-49.067 7.082-67.328 21.248-18.262 14.165-27.393 34.218-27.393 60.16 0 17.408 3.5 31.659 10.497 42.752 6.997 11.094 15.786 18.688 26.368 22.784 10.581 4.096 21.248 6.998 32 8.704s20.906 3.243 30.464 4.608c9.557 1.366 15.872 3.755 18.944 7.168 3.413 3.755 5.12 8.875 5.12 15.36 0 15.702-12.288 23.553-36.864 23.553-26.283 0-45.568-6.145-57.857-18.433z"/></svg>