<svg viewBox="0 0 597 597" xmlns="http://www.w3.org/2000/svg"><path d="M42.667 320.512c0-46.421 11.434-89.259 34.303-128.512 22.87-39.253 53.932-70.315 93.185-93.184 39.253-22.87 82.09-34.304 128.512-34.304 46.421 0 89.258 11.435 128.512 34.304 39.253 22.87 70.315 53.93 93.185 93.184 22.869 39.253 34.303 82.09 34.303 128.512 0 34.475-6.485 67.243-19.456 98.305-12.97 31.06-31.232 58.367-54.784 81.92-20.48-24.918-45.312-44.374-74.496-58.369-29.184-13.994-60.33-20.992-93.44-20.992-36.522 0-70.485 8.448-101.889 25.344-31.402 16.896-57.173 39.851-77.311 68.864-28.33-24.234-50.517-53.247-66.56-87.04-16.043-33.791-24.064-69.802-24.064-108.032zm83.967-73.728c0 5.803 2.049 10.837 6.145 15.103 4.096 4.267 9.215 6.4 15.36 6.4 2.048 0 3.584-.17 4.608-.51 49.151-19.798 100.01-29.697 152.576-29.697 52.565 0 103.424 9.899 152.576 29.696.34 0 1.024.085 2.048.256s1.877.256 2.56.256c5.802 0 10.837-2.134 15.104-6.4 4.266-4.267 6.4-9.301 6.4-15.104 0-8.533-3.926-14.848-11.776-18.944-54.272-21.504-109.91-32.256-166.912-32.256-58.027 0-114.176 10.922-168.448 32.767-6.827 4.438-10.24 10.582-10.24 18.433zm23.553 76.288l3.072 8.191c2.731 4.438 6.657 6.657 11.776 6.657 1.024 0 2.56-.341 4.608-1.024 43.35-18.773 88.576-28.16 135.68-28.16 47.446 0 93.014 9.557 136.705 28.672 1.365.682 2.56 1.023 3.584 1.023 5.12 0 9.045-2.218 11.775-6.655l2.56-8.704c0-4.438-1.706-8.021-5.12-10.752-47.104-21.163-96.938-31.744-149.503-31.744-52.224 0-102.23 10.581-150.017 31.744-3.414 3.413-5.12 6.997-5.12 10.752zm24.576 73.728c3.413 8.533 8.704 11.264 15.872 8.192 36.864-17.408 75.093-26.112 114.688-26.112 38.229 0 75.605 8.192 112.128 24.576 8.192 4.438 14.165 2.39 17.92-6.144 1.706-4.437 1.706-8.362 0-11.776-1.707-3.413-4.097-5.973-7.168-7.68-36.182-18.09-77.142-27.136-122.88-27.136-43.691 0-85.334 9.387-124.93 28.16-6.484 3.414-8.362 9.387-5.631 17.92zm31.232 162.303c12.63-16.383 28.245-29.353 46.847-38.91 18.603-9.558 38.486-14.337 59.649-14.337 38.912 0 71.85 14.678 98.815 44.032-35.499 17.749-73.045 26.624-112.64 26.624-32.085 0-62.976-5.803-92.672-17.409z"/></svg>