<svg viewBox="0 0 597 597" xmlns="http://www.w3.org/2000/svg"><path d="M-37.077 259.584c0-18.768 6.576-34.816 19.711-48.128 13.136-13.312 29.105-19.968 47.873-19.968 16.032 0 30.288 5.04 42.752 15.104 12.463 10.064 20.383 22.784 23.808 38.144L354.09 348.16c10.928-6.48 22.528-9.712 34.832-9.712.672 0 1.777.08 3.313.256 1.535.176 2.815.256 3.84.256l56.319-81.391c.337-24.93 9.408-46.16 27.152-63.745s39.056-26.368 64-26.368c25.248 0 46.752 8.88 64.496 26.624s26.624 39.232 26.624 64.48-8.88 46.752-26.624 64.512c-17.744 17.745-39.248 26.624-64.496 26.624l-87.04 63.504c-1.696 17.409-9.04 32-22.015 43.776-12.977 11.76-28.16 17.664-45.569 17.664-16.384 0-30.72-5.12-43.008-15.36-12.288-10.24-20.144-23.04-23.551-38.383L65.323 317.953c-10.93 6.48-22.529 9.727-34.817 9.727-18.767 0-34.736-6.655-47.872-19.968-13.136-13.311-19.712-29.36-19.712-48.128zm17.92 0c0 13.648 4.864 25.344 14.591 35.072 9.729 9.728 21.425 14.592 35.073 14.592 3.072 0 6.656-.336 10.752-1.024l-20.993-8.192v-.512c-9.551-4.432-16.383-11.6-20.48-21.504-2.047-4.784-3.071-9.552-3.071-14.336 0-5.12 1.024-10.24 3.072-15.36 4.096-10.24 10.928-17.408 20.48-21.504 5.12-2.384 10.415-3.408 15.871-3.072 4.433 0 9.04.848 13.825 2.56v-.512l25.088 10.24c-9.904-17.744-24.736-26.624-44.544-26.624-13.664 0-25.344 4.865-35.073 14.592-9.727 9.728-14.591 21.6-14.591 35.584zM344.346 430.08c9.904 17.744 24.752 26.624 44.56 26.624 13.664 0 25.424-4.864 35.312-14.592 9.904-9.728 14.848-21.584 14.848-35.584 0-13.664-4.848-25.344-14.576-35.072-9.728-9.729-21.6-14.576-35.584-14.576-4.784 0-8.368.336-10.752 1.008l20.464 8.192c10.256 4.096 17.584 11.264 22.016 21.52 2.383 5.104 3.584 10.24 3.584 15.344 0 4.783-1.008 9.728-3.056 14.848-4.096 10.592-11.264 17.935-21.504 22.032-5.12 2.048-10.256 3.056-15.376 3.056-4.784 0-9.712-1.008-14.849-3.056-2.72-1.024-6.91-2.656-12.527-4.88-5.632-2.224-9.809-3.856-12.56-4.864zm138.256-171.52c0 16.72 5.968 31.057 17.92 43.009 11.952 11.951 26.288 17.92 43.008 17.92 17.056 0 31.568-5.97 43.504-17.92 11.952-11.952 17.936-26.288 17.936-43.009 0-16.72-5.984-31.056-17.936-43.008-11.936-11.952-26.432-17.92-43.504-17.92-16.736 0-31.056 5.985-43.007 17.92-11.953 11.937-17.921 26.288-17.921 43.008zm12.8-.512c0-13.312 4.704-24.736 14.08-34.304 9.391-9.551 20.895-14.336 34.56-14.336 13.327 0 24.751 4.785 34.32 14.336 9.567 9.568 14.336 20.992 14.336 34.304 0 13.648-4.769 25.248-14.336 34.816-9.569 9.552-21.008 14.336-34.32 14.336-13.649 0-25.169-4.784-34.56-14.336-9.376-9.552-14.08-21.152-14.08-34.816z"/></svg>