<svg viewBox="0 0 597 597" xmlns="http://www.w3.org/2000/svg"><path d="M-24.717 520.428c10.42 1.014 20.826 1.548 31.22 1.548 61.048 0 115.528-18.732 163.387-56.17-28.424-.352-53.933-9.041-76.477-26.043-22.57-16.99-37.984-38.675-46.323-65.056 6.933 1.418 15.102 2.095 24.456 2.095 12.15 0 23.766-1.575 34.862-4.684-30.517-5.866-55.766-20.891-75.709-44.996C10.744 302.992.78 275.153.78 243.595v-1.574c18.395 10.42 38.31 15.805 59.826 16.13-18.016-11.798-32.338-27.304-42.915-46.57-10.575-19.24-15.87-40.13-15.87-62.675 0-23.597 6.088-45.607 18.212-66.095 32.6 40.586 72.418 72.938 119.431 97.055 47 24.092 97.368 37.53 151.158 40.327-2.432-11.448-3.655-21.516-3.655-30.18 0-36.085 12.84-66.954 38.505-92.62 25.679-25.666 56.704-38.505 93.153-38.505 37.79 0 69.7 13.88 95.73 41.64 30.167-6.257 57.926-17.015 83.255-32.261-9.718 31.558-28.815 55.845-57.238 72.847 25.327-3.109 50.304-10.055 74.929-20.813-16.651 26.017-38.336 48.742-65.056 68.151v17.198c0 34.992-5.125 70.128-15.35 105.355-10.211 35.214-25.848 68.853-46.83 100.972-20.996 32.065-46.05 60.619-75.189 85.569-29.126 24.977-64.08 44.853-104.849 59.592-40.755 14.752-84.555 22.089-131.398 22.089-72.483-.014-139.606-19.605-201.345-58.8z"/></svg>