<svg viewBox="0 0 597 597" xmlns="http://www.w3.org/2000/svg"><path d="M-13.654 409.6c0-54.943 31.409-114.176 94.208-177.664 39.937-39.6 80.225-67.247 120.832-82.943 19.12-7.857 35.664-11.777 49.664-11.777 15.36 0 27.649 4.609 36.865 13.824 8.88 8.88 13.311 21.168 13.311 36.865 0 10.576-2.048 22.863-6.143 36.863-1.36 4.784-.848 7.76 1.536 8.96 2.384 1.2 5.12 1.28 8.191.257l5.12-2.049c32.752-13.663 61.792-20.48 87.04-20.48s43.345 7.168 54.288 21.504c5.105 7.504 7.665 16.384 7.665 26.624 0 10.577-2.737 22.689-8.208 36.352-2.369 3.408-2.816 6.32-1.28 8.704 1.552 2.385 2.911 3.92 4.112 4.608 1.2.672 3.664 1.537 7.423 2.56 21.153 6.496 39.248 17.072 54.288 31.76 15.008 14.656 22.512 32.944 22.512 54.784 0 20.129-6.991 40.688-20.991 61.68s-33.024 40.192-57.088 57.6-54.433 31.744-91.12 43.008c-36.704 11.265-75.696 16.897-116.992 16.897-44.72 0-86.96-6.561-126.72-19.697-39.76-13.135-72.784-32.767-99.072-58.895-26.288-26.113-39.44-55.905-39.44-89.345zm64 24.576c3.409 34.48 24.752 61.952 64 82.432 31.409 16.736 67.073 25.072 107.01 25.072 9.903 0 20.143-.496 30.72-1.536 52.223-5.12 95.743-21.664 130.56-49.664 31.407-25.6 47.104-53.76 47.104-84.48 0-3.072-.176-6.144-.513-9.216-3.407-34.144-24.752-61.44-64-81.92-31.743-16.72-67.584-25.088-107.52-25.088-9.904 0-19.968.512-30.208 1.536-34.464 3.408-65.696 12.112-93.696 26.112-27.984 14-49.488 31.232-64.512 51.712-12.976 18.096-19.456 36.688-19.456 55.808 0 3.088.176 6.144.511 9.232zm81.937 31.744c-4.433-9.888-6.656-19.968-6.656-30.208 0-11.952 3.072-23.904 9.215-35.84 10.592-21.84 28.336-38.24 53.248-49.152 15.36-6.832 30.897-10.24 46.592-10.24 9.217 0 18.433 1.184 27.649 3.584 25.935 6.833 44.544 20.816 55.807 41.984 5.792 10.928 8.689 22.192 8.689 33.792 0 10.928-2.544 22.016-7.664 33.28-10.577 24.224-29.185 41.968-55.808 53.248-15.009 6.464-30.032 9.712-45.057 9.712-11.616 0-23.04-1.872-34.303-5.632-24.928-7.84-42.16-22.688-51.712-44.528zm28.672-9.728c2.048 8.528 7.168 14.496 15.36 17.92 4.432 2.048 9.04 3.072 13.823 3.072 4.097 0 8.193-.688 12.288-2.064 9.569-3.056 16.897-8.688 22.017-16.88 3.407-5.472 5.12-10.944 5.12-16.384 0-2.384-.513-4.96-1.536-7.68-2.049-8.192-7.168-13.984-15.36-17.408-4.432-1.696-8.88-2.544-13.312-2.544-4.097 0-8.352.672-12.8 2.032-9.217 3.072-16.224 8.528-20.992 16.384-3.76 5.456-5.633 11.088-5.633 16.896 0 2.384.336 4.608 1.025 6.656zm72.176-40.448c1.024 3.056 3.248 5.28 6.656 6.656 1.712.688 3.328 1.008 4.864 1.008 1.535 0 3.152-.336 4.863-1.008 3.745-1.376 6.48-3.6 8.193-6.656 1.712-3.072 2.048-6.16 1.024-9.216-1.024-3.072-3.072-5.296-6.144-6.656-3.073-1.024-6.4-.944-9.985.256s-6.239 3.328-7.935 6.4c-1.025 2.048-1.536 4.096-1.536 6.144v3.072zM397.483 97.792a26.324 26.324 0 0 1-.496-5.12c0-4.432 1.376-8.704 4.095-12.8 3.408-5.456 8.368-9.04 14.848-10.752 11.616-2.384 23.217-3.584 34.816-3.584 17.409 0 34.48 2.56 51.216 7.68 28.304 9.216 52.704 25.088 73.185 47.616 20.48 22.528 33.792 48.64 39.935 78.336 2.4 11.952 3.584 23.552 3.584 34.816 0 17.407-2.72 34.128-8.192 50.176v.512c-2.048 6.144-5.968 10.752-11.776 13.824-3.744 1.696-7.503 2.56-11.248 2.56-2.4 0-4.96-.336-7.68-1.024-6.48-2.048-11.088-5.968-13.808-11.776-1.712-3.76-2.56-7.344-2.56-10.752 0-2.72.337-5.296 1.008-7.664v-.512c3.76-11.616 5.648-23.552 5.648-35.84 0-7.84-.688-16.032-2.064-24.576-4.431-21.168-13.984-39.76-28.656-55.809-14.687-16.03-32.095-27.311-52.24-33.792-11.951-3.407-23.888-5.119-35.823-5.119-8.208 0-16.56.864-25.09 2.56a26.455 26.455 0 0 1-5.118.512c-4.784 0-9.217-1.36-13.313-4.096-5.488-3.777-8.895-8.88-10.271-15.376zm20.496 80.384a26.356 26.356 0 0 1-.528-5.12c0-3.407 1.024-6.991 3.088-10.752 3.056-4.784 7.504-7.856 13.296-9.216 6.48-1.36 12.8-2.048 18.96-2.048 22.88 0 42.496 9.04 58.88 27.136 9.904 11.265 16.368 24.064 19.456 38.4 1.008 5.792 1.552 11.424 1.552 16.896 0 8.192-1.376 16.385-4.096 24.576-1.712 5.456-5.12 9.393-10.256 11.776-3.055 1.696-6.16 2.56-9.216 2.56-2.383 0-4.608-.336-6.656-1.023-5.471-1.697-9.568-5.12-12.288-10.24-1.376-3.073-2.063-6.145-2.063-9.216 0-2.385.336-4.609 1.023-6.657 1.376-4.784 2.048-9.216 2.048-13.312 0-9.568-3.584-18.096-10.752-25.6-7.52-8.88-16.735-13.311-27.648-13.311-3.423 0-6.848.336-10.255 1.023-1.681.336-3.217.512-4.577.512-3.76 0-7.344-1.2-10.768-3.584-4.768-3.071-7.84-7.327-9.2-12.8z"/></svg>