<svg viewBox="0 0 597 597" xmlns="http://www.w3.org/2000/svg"><path d="M20.379 139.264v-10.752l1.024-1.023h127.504l1.023 1.023v10.24c0 2.737-1.711 4.096-5.12 4.096l-13.327.513c-11.248.336-16.88 3.76-16.88 10.239 0 4.433 1.2 9.217 3.583 14.336 17.073 41.648 54.961 124.24 113.664 247.809l3.073.496 56.832-113.185c-4.432-10.224-8.192-18.592-11.264-25.071l-38.912-76.801-10.24-20.48c-8.88-17.392-14.672-27.712-17.409-30.96-2.735-3.248-8.367-5.551-16.895-6.912-4.784-.672-7.185-1.856-7.185-3.568v-10.752l1.536-1.024h100.88l2.544.512v10.752c0 2.736-1.695 4.096-5.119 4.096l-7.68 1.024c-4.432.672-7.68 1.536-9.728 2.56s-2.992 3.072-2.816 6.144.848 6.048 2.047 8.96c1.2 2.896 3.665 8.096 7.425 15.616l37.376 76.8 41.472-82.944c5.472-10.928 6.32-18.256 2.56-22.016-2.064-2.72-8.369-4.608-18.976-5.631l-4.624-.513c-1.36 0-2.528-.512-3.584-1.536-.992-.336-1.552-1.36-1.552-3.072v-9.728l1.552-1.024c19.456-.335 51.168-.335 95.2 0l1.024 1.024v10.24c0 2.736-1.537 4.096-4.624 4.096-7.504.336-12.705 1.104-15.6 2.336-2.912 1.184-5.712 3.84-8.464 7.936-7.84 11.616-12.977 19.792-15.344 24.576l-53.744 100.352-1.472 3.552 65.568 134.145 4.096 1.536 103.44-246.272c4.095-9.551 3.6-16.56-1.569-20.992-4.448-4.096-11.103-6.32-19.983-6.655l-9.713-.513c-1.023 0-2.064-.512-3.056-1.536-1.376-.687-2.063-1.695-2.063-3.071v-10.24l1.535-1.025h117.248l1.024 1.025v10.24c0 2.384-1.568 3.92-4.624 4.607-15.68.689-26.975 3.937-33.776 9.729-6.832 5.456-12.624 13.824-17.407 25.088l-128 290.304c-3.425 7.84-7.248 13.056-11.536 15.631-4.256 2.544-8.336 2.369-12.288-.527-3.937-2.896-7.76-8.097-11.569-15.616-12.975-25.6-33.744-70.48-62.448-134.656-35.84 73.728-58.191 118.8-67.071 135.168-14 24.256-26.113 24.4-36.353.496-10.928-25.6-33.103-74.16-66.56-145.664s-55.648-120.4-66.56-146.688c-5.456-14.336-10.24-23.216-14.336-26.624-3.712-3.393-12.592-5.616-26.575-6.64-4.784-.688-7.185-1.873-7.185-3.585z"/></svg>