<svg viewBox="0 0 597 597" xmlns="http://www.w3.org/2000/svg"><path d="M111.275 365.568c.352-17.76 1.872-32.769 4.624-45.088 1.024-6.832 3.84-12.032 8.447-15.616 4.609-3.584 9.296-4.864 14.08-3.84l104.433 42c7.856 2.367 13.312 6.848 16.384 13.312 1.697 3.04 2.544 6.272 2.544 9.696s-.847 6.864-2.544 10.271c-3.072 6.464-8.352 10.945-15.872 13.313l-104.448 32.271c-5.12 1.712-10.08 1.28-14.848-1.279-4.768-2.56-8.016-6.912-9.728-13.04-2.048-8.88-3.071-20.656-3.071-35.345v-6.655zm44.544-244.224c-1.712-2.735-2.56-5.456-2.56-8.191 0-3.073 1.024-6.145 3.071-9.217 4.096-5.808 10.592-10.416 19.456-13.823 27.648-10.577 56.832-18.433 87.552-23.553h2.56c15.36 0 23.728 6.48 25.072 19.456 8.513 106.832 12.817 173.904 12.817 201.217 0 11.264-4.609 18.08-13.825 20.48-2.048.671-4.095 1.024-6.143 1.024-7.168 0-13.504-4.273-18.945-12.8-50.511-79.184-86.864-137.393-109.056-174.593zm35.328 391.68l71.183-84.992c6.449-7.152 12.992-10.752 19.44-10.752 2.768 0 5.488.496 8.224 1.536 8.496 3.743 12.8 11.44 12.8 23.04 0 1.696-.16 3.408-.48 5.104v113.12c-.688 4.816-3.616 8.528-8.72 11.264-3.056 1.664-6.144 2.56-9.216 2.56-2.72 0-5.44-.513-8.208-1.584-12.288-2.032-26.784-6.352-43.52-13.009-16.72-6.655-29.184-13.007-37.375-19.199-6.145-4.768-9.217-9.84-9.217-15.345-.031-3.743 1.68-7.647 5.089-11.743zM341.675 340.48c-2.033-4.112-3.024-8.017-3.024-11.776 0-5.808 2.56-11.44 7.664-16.897l66.56-91.647c2.368-2.72 5.792-4.096 10.256-4.096.992 0 2.24.176 3.6.512 5.776.671 10.752 3.744 14.88 9.215 8.496 8.88 17.6 20.913 27.104 36.096 9.584 15.185 15.872 27.729 18.992 37.632.992 2.736 1.536 5.297 1.536 7.68 0 3.073-.688 5.793-2.064 8.192-2.72 4.433-6.656 7.168-11.76 8.192L368.41 350.72a33.194 33.194 0 0 1-8.193 1.024c-7.952 0-14.11-3.744-18.543-11.263zm6.144 64c4.095-6.48 9.727-9.729 16.895-9.729 3.072 0 6.32.689 9.729 2.048l104.976 35.84c4.72 1.696 8 4.944 9.712 9.729 1.04 2.032 1.536 4.256 1.536 6.656 0 3.407-.689 7.008-2.048 10.752-4.416 10.592-11.52 22.447-21.248 35.584-9.729 13.136-19.2 23.808-28.416 32-4.752 4.735-10.416 7.328-16.897 7.664h-1.535c-5.84 0-9.936-1.568-12.304-4.593l-58.352-97.28c-4.433-5.455-6.656-10.928-6.656-16.384 0-4.096 1.551-8.191 4.608-12.287z"/></svg>