<svg xmlns="http://www.w3.org/2000/svg" viewBox="0 0 1024 1024"><path d="M512 0C229.248 0 0 229.248 0 512s229.248 512 512 512 512-229.248 512-512S794.752 0 512 0zm0 831.936c-35.776 0-64.768-28.544-64.768-63.808 0-35.2 28.992-63.808 64.768-63.808 35.776 0 64.768 28.608 64.768 63.808 0 35.264-28.992 63.808-64.768 63.808zm64.768-259.712c0 37.056-28.992 67.072-64.768 67.072-35.776 0-64.768-30.08-64.768-67.072V259.136c0-37.056 28.992-67.072 64.768-67.072 35.776 0 64.768 30.08 64.768 67.072v313.088z"/></svg>