<svg xmlns="http://www.w3.org/2000/svg" viewBox="0 0 832 1030.4000244140625"><path d="M768 710.4c-38.4 0-64-32-64-64v-256c0-38.4 32-64 64-64 38.4 0 64 32 64 64v256c0 32-25.6 64-64 64zM601.6 857.6h-38.4v108.8c0 38.4-25.6 64-57.6 64s-57.6-25.6-57.6-64V857.6h-70.4v108.8c0 38.4-25.6 64-57.6 64s-57.6-25.6-57.6-64V857.6h-32c-19.2 0-38.4-19.2-38.4-44.8V384h448v422.4c0 32-12.8 51.2-38.4 51.2zM640 326.4H192c0-89.6 32-153.6 76.8-192l-70.4-83.2c-6.4-12.8-6.4-25.6 0-38.4C211.2 0 224 0 236.8 12.8l83.2 96c32-12.8 64-19.2 96-19.2s70.4 6.4 96 19.2l83.2-96C608 0 620.8 0 633.6 12.8s12.8 32 0 38.4l-70.4 83.2c44.8 32 76.8 102.4 76.8 192zm-294.4-128c-12.8 0-25.6 12.8-25.6 32s12.8 32 25.6 32 25.6-12.8 25.6-32-12.8-32-25.6-32zm140.8 0c-12.8 0-25.6 12.8-25.6 32s12.8 32 25.6 32 25.6-19.2 25.6-32-12.8-32-25.6-32zM64 710.4c-38.4 0-64-32-64-64v-256c0-38.4 25.6-64 64-64s64 32 64 64v256c0 32-25.6 64-64 64z"/></svg>