<svg xmlns="http://www.w3.org/2000/svg" viewBox="0 0 1024.0001220703125 640.0000610351562"><path d="M921.6 89.6h-256v-64h256v64zM499.2 352c12.8 25.6 25.6 57.6 25.6 96s-6.4 70.4-25.6 102.4L448 601.6c-19.2 12.8-44.8 25.6-70.4 32S320 640 288 640H0V0h307.2C384 0 441.6 25.6 473.6 70.4c19.2 25.6 25.6 57.6 25.6 96s-12.8 70.4-32 96c-6.4 12.8-19.2 25.6-44.8 32 32 12.8 57.6 32 76.8 57.6zm-352-102.4h134.4c25.6 0 51.2-6.4 70.4-12.8 19.2-12.8 25.6-32 25.6-57.6 0-32-12.8-51.2-32-57.6-25.6-6.4-51.2-12.8-83.2-12.8H147.2v140.8zm243.2 185.6c0-32-12.8-57.6-38.4-70.4-12.8-6.4-38.4-12.8-64-12.8H147.2v172.8h134.4c25.6 0 51.2-6.4 64-12.8 25.6-6.4 44.8-32 44.8-76.8zm627.2-102.4c6.4 19.2 6.4 51.2 6.4 89.6H691.2c0 44.8 19.2 76.8 44.8 96 19.2 12.8 38.4 19.2 64 19.2s51.2-6.4 64-19.2c19.2-6.4 25.6-19.2 32-32h121.6c0 25.6-19.2 57.6-44.8 83.2-38.4 44.8-96 64-172.8 64-57.6 0-115.2-19.2-160-57.6-44.8-32-70.4-96-70.4-179.2 0-76.8 19.2-140.8 64-185.6 44.8-44.8 96-64 166.4-64 38.4 0 76.8 6.4 108.8 19.2 32 12.8 57.6 38.4 76.8 70.4 19.2 32 25.6 64 32 96zm-115.2 12.8c0-32-12.8-57.6-32-70.4-19.2-19.2-44.8-25.6-70.4-25.6-32 0-51.2 6.4-70.4 25.6-19.2 19.2-25.6 38.4-32 70.4h204.8z"/></svg>