<svg xmlns="http://www.w3.org/2000/svg" viewBox="0 0 1080.19189453125 1080.320068359375"><path d="M967.808 112.448C855.36 0 673.024 0 560.513 112.512l-448 448C0 673.024 0 855.36 112.448 967.808s294.784 112.512 407.296 0l94.848-92.16c-51.008-1.152-97.536-17.728-136.96-44.672l-48.448 46.4c-62.528 62.528-163.84 62.528-226.304 0-62.464-62.464-62.464-163.84.064-226.304l448-448c62.528-62.528 163.84-62.528 226.24 0 62.528 62.528 62.592 163.776.064 226.24L654.016 654.08c-18.752 18.752-49.152 18.752-67.904 0s-18.752-49.152 0-67.904L754.688 416c12.48-12.48 12.544-32.768 0-45.248l-45.248-45.248c-12.48-12.48-32.768-12.48-45.248 0L495.616 495.68c-68.736 68.736-68.736 180.16 0 248.896s180.16 68.736 248.896 0l223.232-224.832c112.448-112.448 112.448-294.848.064-407.296z"/></svg>