<svg xmlns="http://www.w3.org/2000/svg" viewBox="0 0 1124.031982421875 1123.968017578125"><path d="M924.031 200C724.095 0 399.935.064 199.935 200 0 399.872 0 724.096 200 924.032c199.936 199.936 524.096 199.936 724.032.064 200-199.936 200-524.16 0-724.096zM797.183 700.992c27.52 27.52 28.224 71.296 1.728 97.856-26.56 26.56-70.4 25.728-97.792-1.728L562.047 658.112 422.463 797.696c-27.52 27.456-71.296 28.224-97.792 1.728-26.56-26.56-25.728-70.4 1.664-97.856l139.648-139.584-139.648-139.648c-27.456-27.392-28.224-71.168-1.664-97.728 26.496-26.56 70.336-25.792 97.792 1.664l139.584 139.584L701.12 326.784c27.456-27.456 71.232-28.224 97.792-1.664 26.496 26.56 25.728 70.336-1.728 97.792L658.175 561.984l139.008 139.008z"/></svg>