<svg xmlns="http://www.w3.org/2000/svg" viewBox="0 0 832 1024"><path d="M746.752 0H86.208C38.656 0 0 38.144 0 64v853.376C0 985.792 38.656 1024 86.208 1024h660.544c47.04 0 85.248-38.208 85.248-85.312V85.312C832 38.144 793.792 0 746.752 0zM448 832H192c-35.392 0-64-28.608-64-64s28.608-64 64-64h256c35.392 0 64 28.608 64 64s-28.608 64-64 64zm192-256H192c-35.392 0-64-28.608-64-64s28.608-64 64-64h448c35.392 0 64 28.608 64 64s-28.608 64-64 64zm0-256H192c-35.392 0-64-28.608-64-64s28.608-64 64-64h448c35.392 0 64 28.608 64 64s-28.608 64-64 64z"/></svg>