<svg xmlns="http://www.w3.org/2000/svg" viewBox="0 0 1024 1024"><path d="M512 0C230.4 0 0 230.4 0 512s230.4 512 512 512 512-230.4 512-512S793.6 0 512 0zm313.6 262.4c51.2 64 83.2 140.8 83.2 230.4-57.6-12.8-115.2-19.2-166.4-19.2-38.4 0-76.8 6.4-115.2 12.8l-25.6-64c83.2-32 160-83.2 224-160zM512 115.2c96 0 179.2 32 249.6 89.6-51.2 64-121.6 108.8-198.4 140.8-51.2-108.8-102.4-179.2-134.4-224 25.6-6.4 51.2-6.4 83.2-6.4zm-179.2 38.4c32 32 83.2 102.4 147.2 217.6C358.4 409.6 236.8 416 160 416h-38.4c32-115.2 108.8-211.2 211.2-262.4zM115.2 512c12.8-6.4 25.6-6.4 44.8-6.4 83.2 0 217.6-6.4 364.8-51.2 6.4 19.2 12.8 32 25.6 51.2C448 537.6 371.2 588.8 320 640c-51.2 51.2-89.6 96-108.8 128-64-70.4-96-160-96-256zM512 908.8c-89.6 0-172.8-32-236.8-76.8 12.8-25.6 44.8-70.4 89.6-115.2 51.2-44.8 115.2-96 204.8-128 32 83.2 57.6 185.6 76.8 294.4-38.4 19.2-83.2 25.6-134.4 25.6zm224-70.4c-19.2-102.4-44.8-185.6-76.8-268.8 25.6-6.4 51.2-6.4 83.2-6.4 44.8 0 102.4 6.4 153.6 19.2-12.8 108.8-70.4 198.4-160 256z"/></svg>