<svg xmlns="http://www.w3.org/2000/svg" viewBox="0 0 1024.0008544921875 1024.1280517578125"><path d="M896 896.128H128v-768h320v-128L89.024.064C39.872.064 0 40 0 89.152v845.952c0 49.152 39.872 89.024 89.024 89.024h845.952c49.152 0 89.024-39.872 89.024-89.024V576.128H896v320zM1024 64c0-14.656-6.08-27.52-14.72-38.272-1.344-1.728-2.048-3.712-3.584-5.312-.192-.128-.256-.384-.384-.576-.384-.32-.448-.832-.832-1.216-4.096-4.096-9.152-6.528-13.952-9.28-2.112-1.216-3.84-3.008-6.08-3.968C975.744 1.6 966.528 0 957.184.256c-.128 0-.256-.064-.384-.064H643.777C606.785.128 576.769 28.736 576.769 64c0 35.2 30.08 63.808 67.136 63.808h161.216l-402.56 403.328c-24.832 24.768-24.832 64.768 0 89.472 24.832 24.768 65.024 24.768 89.792 0l403.968-403.52v163.2c0 37.056 28.608 67.072 63.872 67.072s63.808-30.016 63.808-67.072V67.264c0-.64-.32-1.152-.32-1.728 0-.512.32-1.024.32-1.536z"/></svg>