<svg xmlns="http://www.w3.org/2000/svg" viewBox="0 0 1030.4000244140625 1024"><path d="M0 870.4zm236.8-307.2c89.6 0 153.6-96 140.8-211.2-19.2-121.6-108.8-217.6-198.4-217.6C89.6 128 25.6 224 38.4 345.6c19.2 115.2 108.8 217.6 198.4 217.6zM1024 256v-83.2C1024 76.8 947.2 0 857.6 0H172.8C76.8 0 0 76.8 0 166.4c57.6-51.2 140.8-96 224-96h358.4l-83.2 70.4H390.4c70.4 25.6 115.2 115.2 115.2 204.8 0 76.8-44.8 140.8-102.4 185.6-57.6 44.8-70.4 64-70.4 102.4 0 32 64 89.6 96 108.8 96 64 128 128 128 230.4 0 19.2 0 32-6.4 51.2h307.2c96 0 172.8-76.8 172.8-172.8V320h-192v192h-64V320H576v-64h192V64h64v192h192zM185.6 768h64c-25.6-25.6-51.2-57.6-51.2-96 0-25.6 6.4-44.8 19.2-64h-32C108.8 601.6 44.8 576 0 537.6v275.2c51.2-32 115.2-44.8 185.6-44.8zM6.4 889.6v-19.2c-6.4 6.4-6.4 12.8 0 19.2zm448 64C441.6 896 384 864 313.6 812.8 288 806.4 256 800 224 800c-89.6 0-172.8 32-217.6 89.6C19.2 966.4 89.6 1024 172.8 1024h288v-32c0-12.8 0-25.6-6.4-38.4z"/></svg>