<svg xmlns="http://www.w3.org/2000/svg" viewBox="0 0 1024.06396484375 832"><path d="M938.751 832H85.376C38.208 832 0 794.752 0 748.736V83.264C0 37.248 38.208 0 85.376 0h853.376c47.104 0 85.312 37.248 85.312 83.264v665.472c0 46.016-38.208 83.264-85.312 83.264zm-42.688-704H127.999v511.808s64-64.064 128-128.064c64-64.064 128 0 128 0l64 64s118.72-120.768 192-192.128c66.88-66.944 128 0 128 0l128 128.128.064-383.744zM319.999 384c-35.328 0-64-28.672-64-63.936 0-35.392 28.672-64.064 64-64.064s64 28.672 64 64.064c0 35.264-28.672 63.936-64 63.936z"/></svg>