<svg xmlns="http://www.w3.org/2000/svg" viewBox="0 0 1024 1024"><path d="M928 0H96C44.8 0 0 44.8 0 96v825.6C0 979.2 44.8 1024 96 1024h825.6c57.6 0 96-44.8 96-96V96C1024 44.8 979.2 0 928 0zM512 313.6c108.8 0 198.4 89.6 198.4 198.4S620.8 710.4 512 710.4 313.6 620.8 313.6 512 403.2 313.6 512 313.6zm384 544c0 19.2-19.2 38.4-38.4 38.4H166.4c-19.2 0-38.4-19.2-38.4-38.4V448h89.6c-6.4 25.6-6.4 51.2-6.4 76.8 0 166.4 128 307.2 300.8 307.2s300.8-140.8 300.8-307.2c0-25.6-6.4-51.2-12.8-76.8h96v409.6zm0-576c0 19.2-19.2 38.4-38.4 38.4H742.4c-19.2 0-38.4-19.2-38.4-38.4V166.4c0-19.2 19.2-38.4 38.4-38.4h115.2c19.2 0 38.4 19.2 38.4 38.4v115.2z"/></svg>