<svg xmlns="http://www.w3.org/2000/svg" viewBox="0 0 1030.4000244140625 582.4000244140625"><path d="M780.8 582.4c-204.8 0-275.2-89.6-313.6-204.8L428.8 256c-25.6-89.6-64-153.6-166.4-153.6-70.4 0-147.2 51.2-147.2 198.4 0 115.2 57.6 185.6 140.8 185.6 89.6 0 153.6-70.4 153.6-70.4l44.8 102.4s-64 64-198.4 64c-166.4 0-256-96-256-275.2C0 115.2 89.6 6.4 262.4 6.4 416 6.4 499.2 64 544 217.6l38.4 121.6c25.6 89.6 76.8 147.2 198.4 147.2 76.8 0 121.6-19.2 121.6-64 0-32-19.2-57.6-76.8-76.8l-76.8-19.2c-96-25.6-134.4-76.8-134.4-153.6C614.4 44.8 716.8 0 825.6 0c121.6 0 192 44.8 204.8 153.6l-115.2 12.8c-6.4-51.2-38.4-70.4-89.6-70.4s-83.2 25.6-83.2 64 12.8 57.6 64 70.4l76.8 19.2C972.8 275.2 1024 320 1024 416c0 121.6-96 166.4-243.2 166.4z"/></svg>