<svg xmlns="http://www.w3.org/2000/svg" viewBox="0 0 1080.2548828125 1024"><path d="M967.807 84.352C913.343 29.952 841.023 0 764.159 0c-76.928 0-149.248 29.952-203.648 84.352 0 0-181.696 181.632-192.128 191.936-54.208 54.336-84.096 126.72-84.224 204.096.128 76.8 30.08 148.992 84.352 203.264l23.36 23.424c6.272 6.272 14.528 9.344 22.656 9.344a32.142 32.142 0 0 0 22.656-9.344l45.248-45.248c12.48-12.48 12.48-32.768 0-45.248l-23.424-23.424c-61.376-61.376-62.208-162.048-1.792-224.512l193.856-193.792C681.279 144.64 721.407 128 764.159 128s82.88 16.64 113.152 46.784v.064c62.528 62.592 62.528 163.776 0 226.24l-9.856 9.856c15.424 41.6 24.64 86.208 24.704 133.056 0 8.512-1.216 16.704-1.664 25.024l77.312-77.376c112.448-112.512 112.384-294.912 0-407.296zM688.319 316.864c-6.208-6.272-14.464-9.344-22.592-9.344-8.256 0-16.448 3.136-22.656 9.344l-45.248 45.248c-12.544 12.48-12.544 32.768 0 45.248l23.36 23.424c61.376 61.376 62.272 162.048 1.856 224.512L429.183 849.088C399.039 879.36 358.911 896 316.096 896c-42.688 0-82.816-16.64-113.088-46.784v-.064c-62.528-62.592-62.528-163.776-.064-226.24l9.92-9.856c-15.488-41.6-24.704-86.208-24.704-133.056 0-8.512 1.152-16.704 1.664-25.024l-77.312 77.376C0 644.864.064 827.2 112.512 939.584 166.976 994.048 239.296 1024 316.159 1024s149.184-29.952 203.648-84.352c0 0 181.696-181.632 192.128-191.936 54.208-54.336 84.096-126.72 84.224-204.096-.128-76.8-30.144-148.992-84.352-203.264l-23.488-23.488z"/></svg>