<svg xmlns="http://www.w3.org/2000/svg" viewBox="0 0 1024 896"><path d="M352 0H32C12.8 0 0 12.8 0 32v320c0 19.2 12.8 32 32 32h320c19.2 0 32-12.8 32-32V32c0-19.2-12.8-32-32-32zm0 512H32c-19.2 0-32 12.8-32 32v320c0 19.2 12.8 32 32 32h320c19.2 0 32-12.8 32-32V544c0-19.2-12.8-32-32-32zM992 0H544c-19.2 0-32 12.8-32 32v64c0 19.2 12.8 32 32 32h448c19.2 0 32-12.8 32-32V32c0-19.2-12.8-32-32-32zm0 256H544c-19.2 0-32 12.8-32 32v64c0 19.2 12.8 32 32 32h448c19.2 0 32-12.8 32-32v-64c0-19.2-12.8-32-32-32zm0 256H544c-19.2 0-32 12.8-32 32v64c0 19.2 12.8 32 32 32h448c19.2 0 32-12.8 32-32v-64c0-19.2-12.8-32-32-32zm0 256H544c-19.2 0-32 12.8-32 32v64c0 19.2 12.8 32 32 32h448c19.2 0 32-12.8 32-32v-64c0-19.2-12.8-32-32-32z"/></svg>