<svg xmlns="http://www.w3.org/2000/svg" viewBox="0 0 1023.8720703125 831.6160278320312"><path d="M991.874 0H32C14.4 0 0 15.36 0 34.176v124.672c0 18.048 14.4 32.832 32 32.832h959.872c17.6 0 32-14.72 32-32.832V34.176c0-18.816-14.4-34.176-32-34.176zm0 320H32c-17.6 0-32 15.36-32 34.24v124.608c0 18.112 14.4 32.832 32 32.832h959.872c17.6 0 32-14.72 32-32.832V354.176c0-18.816-14.4-34.176-32-34.176zm0 320H32c-17.6 0-32 15.36-32 34.24v124.608c0 17.984 14.4 32.768 32 32.768h959.872c17.6 0 32-14.72 32-32.768V674.24c0-18.88-14.4-34.24-32-34.24z"/></svg>