<svg xmlns="http://www.w3.org/2000/svg" viewBox="0 0 1024 1024"><path d="M416 0H32C12.8 0 0 12.8 0 32v384c0 19.2 12.8 32 32 32h384c19.2 0 32-12.8 32-32V32c0-19.2-12.8-32-32-32zm576 0H608c-19.2 0-32 12.8-32 32v384c0 19.2 12.8 32 32 32h384c19.2 0 32-12.8 32-32V32c0-19.2-12.8-32-32-32zM416 576H32c-19.2 0-32 12.8-32 32v384c0 19.2 12.8 32 32 32h384c19.2 0 32-12.8 32-32V608c0-19.2-12.8-32-32-32zm576 0H608c-19.2 0-32 12.8-32 32v384c0 19.2 12.8 32 32 32h384c19.2 0 32-12.8 32-32V608c0-19.2-12.8-32-32-32z"/></svg>