<svg xmlns="http://www.w3.org/2000/svg" viewBox="0 0 896 896"><path d="M224 0H32C12.8 0 0 12.8 0 32v192c0 19.2 12.8 32 32 32h192c19.2 0 32-12.8 32-32V32c0-19.2-12.8-32-32-32zm0 320H32c-19.2 0-32 12.8-32 32v192c0 19.2 12.8 32 32 32h192c19.2 0 32-12.8 32-32V352c0-19.2-12.8-32-32-32zM544 0H352c-19.2 0-32 12.8-32 32v192c0 19.2 12.8 32 32 32h192c19.2 0 32-12.8 32-32V32c0-19.2-12.8-32-32-32zm0 320H352c-19.2 0-32 12.8-32 32v192c0 19.2 12.8 32 32 32h192c19.2 0 32-12.8 32-32V352c0-19.2-12.8-32-32-32zM864 0H672c-19.2 0-32 12.8-32 32v192c0 19.2 12.8 32 32 32h192c19.2 0 32-12.8 32-32V32c0-19.2-12.8-32-32-32zm0 320H672c-19.2 0-32 12.8-32 32v192c0 19.2 12.8 32 32 32h192c19.2 0 32-12.8 32-32V352c0-19.2-12.8-32-32-32zM224 640H32c-19.2 0-32 12.8-32 32v192c0 19.2 12.8 32 32 32h192c19.2 0 32-12.8 32-32V672c0-19.2-12.8-32-32-32zm320 0H352c-19.2 0-32 12.8-32 32v192c0 19.2 12.8 32 32 32h192c19.2 0 32-12.8 32-32V672c0-19.2-12.8-32-32-32zm320 0H672c-19.2 0-32 12.8-32 32v192c0 19.2 12.8 32 32 32h192c19.2 0 32-12.8 32-32V672c0-19.2-12.8-32-32-32z"/></svg>