<svg xmlns="http://www.w3.org/2000/svg" viewBox="0 0 1024 896"><path d="M992 0H224c-19.2 0-32 12.8-32 32v64c0 19.2 12.8 32 32 32h768c19.2 0 32-12.8 32-32V32c0-19.2-12.8-32-32-32zm0 256H224c-19.2 0-32 12.8-32 32v64c0 19.2 12.8 32 32 32h768c19.2 0 32-12.8 32-32v-64c0-19.2-12.8-32-32-32zm0 256H224c-19.2 0-32 12.8-32 32v64c0 19.2 12.8 32 32 32h768c19.2 0 32-12.8 32-32v-64c0-19.2-12.8-32-32-32zm0 256H224c-19.2 0-32 12.8-32 32v64c0 19.2 12.8 32 32 32h768c19.2 0 32-12.8 32-32v-64c0-19.2-12.8-32-32-32zM96 0H32C12.8 0 0 12.8 0 32v64c0 19.2 12.8 32 32 32h64c19.2 0 32-12.8 32-32V32c0-19.2-12.8-32-32-32zm0 256H32c-19.2 0-32 12.8-32 32v64c0 19.2 12.8 32 32 32h64c19.2 0 32-12.8 32-32v-64c0-19.2-12.8-32-32-32zm0 256H32c-19.2 0-32 12.8-32 32v64c0 19.2 12.8 32 32 32h64c19.2 0 32-12.8 32-32v-64c0-19.2-12.8-32-32-32zm0 256H32c-19.2 0-32 12.8-32 32v64c0 19.2 12.8 32 32 32h64c19.2 0 32-12.8 32-32v-64c0-19.2-12.8-32-32-32z"/></svg>