<svg xmlns="http://www.w3.org/2000/svg" viewBox="0 0 96.01765441894531 100.03099822998047"><path fill="#D35400" fill-rule="evenodd" d="M94.015 39.019H2.006c-1.104 0-2 .897-2 2.005v57.001c0 1.108.896 2.006 2 2.006h92.009a2.003 2.003 0 0 0 2.001-2.006V41.024a2.003 2.003 0 0 0-2.001-2.005z" clip-rule="evenodd"/><path fill="#ECF0F1" fill-rule="evenodd" d="M3 16.005v82.004c0 1.117.896 2.022 2 2.022h86.001A2.01 2.01 0 0 0 93 98.01V2.021A2.01 2.01 0 0 0 91.001 0L19.004.008 3 16.005z" clip-rule="evenodd"/><path d="M38 72.031l54.997-33 .003 6.98-43.972 26.02H38z" opacity=".1"/><path fill="#F39C12" fill-rule="evenodd" d="M0 98.022c0 1.11.895 2.009 2 2.009h92c1.104 0 2-.899 2-2.009V42.031l-48 29-48-29v55.991z" clip-rule="evenodd"/><path fill="#F1C40F" fill-rule="evenodd" d="M3 16.005l16.001.01V.031L3 16.005z" clip-rule="evenodd"/><path fill="#F1C40F" d="M0 42.031l.052 54 47.948-25-48-29z"/><path fill="#E57E22" d="M96 42.031l-48 29 48 25z"/><path fill-rule="evenodd" d="M96 98.022v-1.991l-48-25 47.328 28.482c.409-.367.672-.896.672-1.491zm-96 0v-1.991l48-25L.672 99.513A1.998 1.998 0 0 1 0 98.022z" opacity=".3" clip-rule="evenodd"/></svg>