<svg xmlns="http://www.w3.org/2000/svg" viewBox="0 0 1023.9990234375 1024"><path d="M960.511 249.728c-21.76-35.968-48.576-71.168-81.344-103.808-33.216-32.896-68.992-59.968-105.6-81.6L837.887 0s93.056 0 139.648 46.528c46.464 46.592 46.464 139.648 46.464 139.648l-63.488 63.552zM387.199 831.232H192.767V636.8l23.36-23.36c39.552 18.56 78.784 44.928 114.176 80.32 35.392 35.328 61.696 74.688 80.32 114.176l-23.424 23.296zm519.552-527.744l-440 448.32c-22.72-37.632-50.688-74.304-84.992-108.352-34.688-34.432-72.064-62.72-110.336-85.312l449.153-440.896c37.824 17.856 75.456 42.944 109.312 76.864s59.008 71.424 76.864 109.376zM127.999 128v767.936h768V576l128-127.936v482.88c0 51.392-41.6 93.056-93.056 93.056H93.056C41.664 1024 0 982.336 0 930.944V93.12C0 41.664 41.664 0 93.056 0H576L448 128H128z"/></svg>