<svg xmlns="http://www.w3.org/2000/svg" viewBox="0 0 1049.60009765625 1024"><path d="M646.4 723.2h-192l-64 300.8H128l25.6-108.8H0L198.4 0h448c134.4 0 288 96 236.8 313.6-38.4 192-192 300.8-371.2 300.8H326.4l-64 300.8h-44.8L204.8 960h134.4l64-300.8h243.2c76.8 0 147.2-25.6 198.4-64l32-25.6c51.2-51.2 83.2-115.2 102.4-192 12.8-76.8 6.4-140.8-32-185.6-19.2-19.2-38.4-38.4-64-51.2 96 38.4 166.4 134.4 134.4 288-38.4 179.2-192 294.4-371.2 294.4zm-153.6-288c70.4 0 134.4-57.6 153.6-128 19.2-70.4-25.6-128-89.6-128h-128l-64 256h128z"/></svg>