<svg xmlns="http://www.w3.org/2000/svg" viewBox="0 0 1024 1024"><path d="M512 0C230.4 0 0 230.4 0 512c0 211.2 128 390.4 307.2 467.2 0-38.4 0-76.8 6.4-115.2 12.8-38.4 64-281.6 64-281.6s-12.8-32-12.8-76.8c0-76.8 44.8-134.4 96-134.4s70.4 32 70.4 76.8-32 115.2-44.8 179.2c-12.8 57.6 25.6 96 83.2 96 96 0 160-121.6 160-275.2 0-115.2-76.8-198.4-211.2-198.4-153.6 0-249.6 115.2-249.6 243.2 0 44.8 12.8 76.8 32 102.4 6.4 12.8 12.8 12.8 6.4 25.6 0 6.4-6.4 32-12.8 38.4-6.4 12.8-12.8 19.2-25.6 12.8-70.4-32-102.4-108.8-102.4-198.4 0-147.2 121.6-320 364.8-320 198.4 0 326.4 140.8 326.4 294.4 0 198.4-108.8 352-275.2 352-57.6 0-108.8-32-128-64 0 0-32 115.2-38.4 140.8-12.8 38.4-32 76.8-51.2 108.8 51.2 32 96 38.4 147.2 38.4 281.6 0 512-230.4 512-512S793.6 0 512 0z"/></svg>