<svg xmlns="http://www.w3.org/2000/svg" viewBox="0 0 896 960.511962890625"><path d="M703.872 140.992l-.128.064c-.896-.64-1.6-1.536-2.624-2.24-29.184-20.032-68.992-12.608-89.024 16.704-19.968 29.312-12.48 69.312 16.64 89.344.768.64 1.536.896 2.24 1.28l-.256.448C713.6 304.64 768 401.088 768 510.336c0 177.536-143.296 321.472-320 321.472S128 687.872 128 510.336c0-109.248 54.4-205.696 137.28-263.744l-.256-.448c.704-.384 1.472-.64 2.24-1.216 29.184-20.032 36.608-60.032 16.64-89.344-20.032-29.312-59.84-36.8-89.024-16.704-.96.704-1.728 1.536-2.688 2.24l-.064-.128C76.097 222.4 0 357.312 0 510.336c0 248.576 200.576 450.176 448 450.176s448-201.6 448-450.176c0-153.024-76.096-287.936-192.128-369.344zM448 576c35.392 0 64-28.608 64-64V64.064C512 28.672 483.392 0 448 0c-35.328 0-64 28.672-64 64.064V512c0 35.392 28.672 64 64 64z"/></svg>