<svg xmlns="http://www.w3.org/2000/svg" viewBox="0 0 1024 1024"><path d="M512 1024C229.248 1024 0 794.752 0 512 0 229.312 229.248 0 512 0s512 229.248 512 512-229.248 512-512 512zm0-192.064c35.776 0 64.768-28.544 64.768-63.808 0-35.2-28.992-63.808-64.768-63.808-35.776 0-64.768 28.608-64.768 63.808 0 35.264 28.992 63.808 64.768 63.808zm138.752-596.224c-33.92-27.904-82.24-43.456-140.032-43.456-42.56 0-78.912 7.68-110.144 20.16-16.576 6.72-69.632 39.68-80.64 48.896l32.384 48.32c5.312 9.344 13.952 14.08 25.92 14.08 4.992 0 10.624-1.984 16.96-5.888 4.608-2.88 41.088-21.696 56.512-26.368 32.32-9.6 67.84-5.696 84.16-.64 22.272 6.848 38.4 19.904 47.36 37.76 5.888 11.776 13.376 44.16-4.224 74.432-14.656 25.088-37.568 44.16-62.848 61.056-13.504 9.216-26.048 18.624-37.376 28.416-.512 0-1.792.96-4.672 3.52 1.408-1.216 3.264-2.304 4.672-3.52 3.2-.128-30.784 43.328-30.784 83.52v64h128v-64c0-33.28 16.128-51.968 16.448-56.704 11.008-7.872 61.056-46.144 72.96-59.904C687.616 433.792 704 400 704 352.384c0-48.832-19.392-88.832-53.248-116.672z"/></svg>