<svg xmlns="http://www.w3.org/2000/svg" viewBox="0 0 1025.4720458984375 1026.9439697265625"><path d="M722.688 606.4c-11.328-11.456-15.104-32.704-8.384-47.296 0 0 47.232-102.464 47.232-177.728C761.536 170.752 591.104 0 380.8 0S0 170.752 0 381.312c0 210.624 170.496 381.376 380.8 381.376 75.2 0 177.408-47.36 177.408-47.36 14.656-6.784 35.968-2.944 47.232 8.448l291.456 291.776c11.456 11.392 30.08 11.392 41.344 0l75.776-75.904c11.456-11.456 11.456-30.144 0-41.472L722.688 606.4zM380.8 586.624c-113.088 0-205.056-92.032-205.056-205.312C175.744 268.096 267.776 176 380.8 176s204.993 92.096 204.993 205.312c0 113.28-91.904 205.312-204.992 205.312z"/></svg>