<svg xmlns="http://www.w3.org/2000/svg" viewBox="0 0 1023.8079833984375 1023.8719482421875"><path d="M511.872 0C229.185 0 0 229.184 0 511.936c0 282.816 229.184 511.936 511.872 511.936 282.752 0 511.936-229.12 511.936-511.936C1023.808 229.184 794.625 0 511.872 0zm166.913 691.52l-14.848 14.976c-12.416 12.352-33.344 12.992-46.464 1.28l-171.52-147.52c-13.12-11.712-23.04-35.712-22.208-53.248l17.856-283.072c.896-17.6 16-31.936 33.664-31.936h21.056c17.6 0 32.704 14.336 33.536 31.936l14.656 231.808c.896 17.536 11.2 42.688 22.848 55.808L680.128 645.12c11.648 12.992 11.136 33.984-1.344 46.4z"/></svg>