<svg xmlns="http://www.w3.org/2000/svg" viewBox="0 0 960 1024"><path d="M896 256h-64v640s-1.984 128-128 128H256c-129.984 0-128-128-128-128V256H64c-35.328 0-64-28.672-64-64s28.672-64 64-64h320V96c0-53.056 42.944-96 96-96 52.992 0 96 42.944 96 96v32h320c35.392 0 64 28.608 64 64s-28.608 64-64 64zm-192 0H256v640h448V256zm-320 64c35.328 0 64 28.672 64 64v384c0 35.392-28.672 64-64 64s-64-28.608-64-64V384c0-35.328 28.672-64 64-64zm192 0c35.392 0 64 28.672 64 64v384c0 35.392-28.608 64-64 64s-64-28.608-64-64V384c0-35.328 28.608-64 64-64z"/></svg>