<svg xmlns="http://www.w3.org/2000/svg" viewBox="0 0 1030.4000244140625 902.4000244140625"><path d="M876.8 6.4C729.6 0 633.6 83.2 582.4 249.6c25.6-12.8 51.2-19.2 76.8-19.2 51.2 0 76.8 32 70.4 89.6 0 38.4-25.6 89.6-70.4 153.6-38.4 70.4-70.4 102.4-96 102.4-25.6 0-51.2-51.2-76.8-160-6.4-25.6-19.2-108.8-38.4-236.8C428.8 64 377.6 6.4 300.8 19.2c-32 0-83.2 32-153.6 96-44.8 38.4-96 83.2-147.2 128l51.2 64C96 275.2 121.6 256 128 256c38.4 0 70.4 57.6 96 166.4 32 108.8 57.6 211.2 83.2 313.6 38.4 108.8 89.6 166.4 153.6 166.4 96 0 211.2-89.6 352-275.2 134.4-179.2 204.8-313.6 211.2-416C1030.4 76.8 979.2 6.4 876.8 6.4z"/></svg>