<svg xmlns="http://www.w3.org/2000/svg" viewBox="0 0 1023.9999389648438 894.719970703125"><path d="M493.184 0c-48.384 0-63.04 27.84-63.04 27.84S247.04 244.032 163.584 244.032H82.24C36.8 244.032 0 280.448 0 325.312v244.096c0 44.928 36.8 81.28 82.176 81.28h82.176c81.024 0 269.568 218.88 269.568 218.88 14.912 15.488 35.904 25.152 59.264 25.152 45.376 0 82.176-36.352 82.176-81.28V81.344C575.36 36.416 538.56 0 493.184 0zm350.784 78.272l-47.424 70.976c86.656 70.4 142.208 177.728 142.208 298.176s-55.488 227.84-142.208 298.112l47.424 70.976C953.408 730.624 1024 597.376 1024 447.424c0-150.016-70.592-283.2-180.032-369.152zm-95.168 142.4l-47.872 71.68c41.344 38.912 67.392 93.76 67.392 155.072s-26.048 116.096-67.392 155.072l47.872 71.616c63.872-54.72 104.576-136 104.576-226.688 0-90.816-40.704-171.968-104.576-226.752z"/></svg>