<svg xmlns="http://www.w3.org/2000/svg" viewBox="0 0 1024.1279296875 1023.3599243164062"><path d="M938.752 191.936H832.064V85.312C832.064 38.208 793.856 0 746.752 0H85.312C38.208 0 0 38.208 0 85.312v660.672c0 47.168 37.248 85.376 83.136 85.376H192v106.688c0 47.104 37.248 85.312 83.136 85.312h665.792c45.952 0 83.2-38.208 83.2-85.312V277.312c-.064-47.104-38.272-85.376-85.376-85.376zM384 64.064c35.328 0 64 28.608 64 63.936 0 35.392-28.672 64-64 64s-64-28.608-64-64c0-35.328 28.672-63.936 64-63.936zm-192 0c35.328 0 64 28.608 64 63.936 0 35.392-28.672 64-64 64s-64-28.608-64-64c0-35.328 28.672-63.936 64-63.936zM128 704l-.064-448H704v448H128zm768 192H320v-64.64h428.864c45.952 0 83.2-38.208 83.2-85.376V448H896v448z"/></svg>