<svg xmlns="http://www.w3.org/2000/svg" viewBox="0 0 832.0000610351562 1030.39990234375"><path d="M512 659.2c-19.2 19.2 0 51.2 0 51.2L640 928s19.2 25.6 38.4 25.6 38.4-12.8 38.4-12.8l102.4-147.2s12.8-19.2 12.8-32c0-25.6-32-32-32-32l-243.2-76.8c-6.4 0-25.6-6.4-44.8 6.4zm-12.8-108.8c12.8 19.2 44.8 12.8 44.8 12.8l243.2-70.4s32-12.8 38.4-32c6.4-19.2-6.4-38.4-6.4-38.4L710.4 288s-12.8-19.2-32-19.2c-25.6 0-38.4 25.6-38.4 25.6L499.2 512s-6.4 19.2 0 38.4zM384 467.2c32-6.4 38.4-51.2 38.4-51.2V70.4c-6.4 0-6.4-38.4-25.6-51.2-32-19.2-44.8-6.4-51.2-6.4L147.2 83.2s-19.2 6.4-32 25.6c-12.8 25.6 12.8 57.6 12.8 57.6l211.2 288s19.2 19.2 44.8 12.8zM339.2 608c0-25.6-32-44.8-32-44.8L89.6 454.4s-32-12.8-44.8-6.4c-19.2 12.8-25.6 25.6-32 32L0 652.8s0 32 6.4 44.8c12.8 19.2 44.8 6.4 44.8 6.4l256-57.6c12.8 0 25.6-6.4 32-38.4zm57.6 96c-19.2-12.8-44.8 6.4-44.8 6.4L179.2 896s-19.2 25.6-12.8 44.8c6.4 19.2 12.8 25.6 25.6 32l172.8 51.2s19.2 6.4 38.4 0c19.2 0 12.8-32 12.8-32l6.4-256s0-25.6-25.6-32z"/></svg>