<svg xmlns="http://www.w3.org/2000/svg" viewBox="0 0 9 10"><path d="M4.5 0C2.02 0 0 2.02 0 4.5c0 1.792 1.063 3.332 2.584 4.055L1.5 10h6L6.416 8.555C7.937 7.832 9 6.292 9 4.5 9 2.02 6.98 0 4.5 0zm-.125 1.012v1.994a1.5 1.5 0 0 0-.844.35L2.12 1.942a3.475 3.475 0 0 1 2.256-.931zm.25 0c.874.03 1.66.377 2.256.931L5.469 3.356l-.002-.002a1.5 1.5 0 0 0-.842-.348V1.012zM1.943 2.119l1.412 1.412s0 .002-.002.002a1.5 1.5 0 0 0-.347.842H1.012c.03-.874.377-1.66.931-2.256zm5.114 0c.554.596.9 1.382.931 2.256H5.994a1.5 1.5 0 0 0-.35-.844L7.058 2.12zM1.012 4.625h1.994a1.5 1.5 0 0 0 .35.844L1.942 6.88a3.475 3.475 0 0 1-.931-2.256zm4.982 0h1.994a3.474 3.474 0 0 1-.931 2.256L5.644 5.469l.002-.002a1.5 1.5 0 0 0 .348-.842zm-2.463 1.02s.002 0 .002.002A1.5 1.5 0 0 0 4 5.911v2.04a3.47 3.47 0 0 1-1.88-.895l1.41-1.412zm1.938 0L6.88 7.056A3.47 3.47 0 0 1 5 7.95V5.912a1.5 1.5 0 0 0 .469-.268z"/></svg>