<svg xmlns="http://www.w3.org/2000/svg" viewBox="0 0 13 14"><path d="M6.5 0C2.919 0 0 2.919 0 6.5c0 2.316 1.225 4.348 3.057 5.5H3l-1 2h9l-1-2h-.057C11.775 10.848 13 8.816 13 6.5 13 2.919 10.081 0 6.5 0zm-.125 1.506v3.5a1.5 1.5 0 0 0-.844.35L3.057 2.88a4.972 4.972 0 0 1 3.318-1.375zm.25 0c1.29.032 2.45.55 3.318 1.375L7.47 5.356l-.002-.002a1.5 1.5 0 0 0-.842-.348v-3.5zm-3.744 1.55l2.475 2.475-.002.002a1.5 1.5 0 0 0-.348.842h-3.5c.032-1.29.55-2.45 1.375-3.318zm7.238 0a4.972 4.972 0 0 1 1.375 3.319h-3.5a1.5 1.5 0 0 0-.35-.844l2.475-2.474zm-8.613 3.57h3.5a1.5 1.5 0 0 0 .35.844L2.88 9.943a4.972 4.972 0 0 1-1.375-3.318zm6.488 0h3.5a4.972 4.972 0 0 1-1.375 3.318L7.645 7.47s0-.002.002-.002a1.5 1.5 0 0 0 .347-.842zm-2.463 1.02s.002 0 .002.002A1.5 1.5 0 0 0 6 7.911v3.563a4.97 4.97 0 0 1-2.943-1.356L5.53 7.645zm1.938 0l2.474 2.474A4.97 4.97 0 0 1 7 11.475V7.912a1.5 1.5 0 0 0 .469-.268z"/></svg>