<svg xmlns="http://www.w3.org/2000/svg" viewBox="0 0 15 9"><path d="M1 0C.446 0 0 .446 0 1v7c0 .554.446 1 1 1h13c.554 0 1-.446 1-1V1c0-.554-.446-1-1-1H1zm0 1h1.5a.5.5 0 1 1-.5.5l-.5.5a.5.5 0 1 1-.5.5V1zm6.5 0C8.88 1 10 2.567 10 4.5S8.88 8 7.5 8 5 6.433 5 4.5 6.12 1 7.5 1zm5 0H14v1.5a.5.5 0 1 1-.5-.5l-.5-.5a.5.5 0 1 1-.5-.5zm-5 1.5c-.323 0-.534.109-.682.25h1.364c-.148-.141-.359-.25-.682-.25zm-.875.5c-.045.091-.062.171-.08.25h1.91c-.018-.079-.034-.159-.08-.25h-1.75zm-.125.5v.25h2V3.5h-2zm0 .5v.25h2V4h-2zm0 .5v.25h2V4.5h-2zm0 .5l-.25.25h2L8.5 5h-2zm-.5.5s.035.102.102.25h2.273L8 5.5H6zM1.5 6a.5.5 0 0 1 0 1l.5.5a.5.5 0 1 1 .5.5H1V6.5a.5.5 0 0 1 .5-.5zm4.738 0c.046.086.076.159.137.25h2.268c.066-.138.107-.25.107-.25H6.238zM13.5 6a.5.5 0 0 1 .5.5V8h-1.5a.5.5 0 1 1 .5-.5l.5-.5a.5.5 0 0 1 0-1zm-6.934.5c.079.091.165.176.26.25h1.42c.1-.077.188-.162.254-.25H6.566z"/></svg>