<svg xmlns="http://www.w3.org/2000/svg" viewBox="0 0 12 12.990001678466797"><path d="M6 2.5a1.5 1.5 0 1 1-3 0 1.5 1.5 0 0 1 3 0zM11 0a1 1 0 1 0 0 2 1 1 0 0 0 0-2zM8.89 12.19L6 8.58V5.5h.5a.49.49 0 0 0 .41-.23l1.94-2.42.06-.08A.49.49 0 0 0 9 2.5a.5.5 0 0 0-.86-.34L6.26 4.5H2.5a.5.5 0 0 0-.36.16l-2 2.54a.49.49 0 0 0-.14.3.5.5 0 0 0 .5.5.49.49 0 0 0 .41-.23L2.74 5.5H3v3.08L.11 12.19a.49.49 0 0 0-.11.3.5.5 0 0 0 .5.5.49.49 0 0 0 .41-.23l3-3.77h1.15l3 3.77a.49.49 0 0 0 .41.23.5.5 0 0 0 .5-.5.49.49 0 0 0-.11-.3h.03z"/></svg>