<svg xmlns="http://www.w3.org/2000/svg" viewBox="0 0 11 8.01099967956543"><path d="M6.5.01c-.676-.01-.676 1.01 0 1H7v.711l-2.748 1.57-.514-1.281h.715c.676.01.676-1.01 0-1H2.426c-.676-.01-.676 1.01 0 1h.234l.432 1.078A2.461 2.461 0 0 0 2.5 3.01C1.125 3.01 0 4.135 0 5.51s1.125 2.5 2.5 2.5S5 6.885 5 5.51c0-.471-.14-.908-.37-1.285l2.472-1.412.402.408A2.507 2.507 0 0 0 6 5.511c0 1.374 1.125 2.5 2.5 2.5S11 6.884 11 5.51c0-1.297-1.003-2.358-2.27-2.478L8 2.304V.51a.5.5 0 0 0-.5-.5h-1zm-4 4c.834 0 1.5.666 1.5 1.5s-.666 1.5-1.5 1.5S1 6.344 1 5.51s.666-1.5 1.5-1.5zm5.955.004h.002a.45.45 0 0 0 .09 0A1.49 1.49 0 0 1 10 5.51c0 .834-.666 1.5-1.5 1.5S7 6.345 7 5.51a1.49 1.49 0 0 1 1.455-1.496z"/></svg>