<svg xmlns="http://www.w3.org/2000/svg" viewBox="0 0 15 11.010000228881836"><path d="M7.5.01c-.676-.01-.676 1.01 0 1H9v1.266L6.197 4.61l-.974-2.6H5.5c.676.01.676-1.01 0-1h-2c-.676-.01-.676 1.01 0 1h.652l.891 2.375A3.45 3.45 0 0 0 3.5 4.01C1.573 4.01 0 5.583 0 7.51s1.573 3.5 3.5 3.5S7 9.437 7 7.51c0-.67-.2-1.291-.53-1.824l2.821-2.35.463 1.16C8.71 5.104 8 6.221 8 7.51c0 1.927 1.573 3.5 3.5 3.5S15 9.437 15 7.51s-1.573-3.5-3.5-3.5c-.283 0-.554.043-.818.107L10 2.412V.51a.5.5 0 0 0-.5-.5h-2zm-4 5a2.48 2.48 0 0 1 1.555.553L3.18 7.125c-.511.427.128 1.195.64.77l1.875-1.563c.188.352.305.75.305 1.178 0 1.387-1.113 2.5-2.5 2.5S1 8.897 1 7.51s1.113-2.5 2.5-2.5zm8 0c1.387 0 2.5 1.113 2.5 2.5s-1.113 2.5-2.5 2.5S9 8.897 9 7.51a2.49 2.49 0 0 1 1.125-2.088l.91 2.274c.246.623 1.18.25.93-.372l-.908-2.27c.143-.024.291-.044.443-.044z"/></svg>