<svg xmlns="http://www.w3.org/2000/svg" viewBox="0 0 9.0600004196167 9.586681365966797"><path d="M7.67.417v1.48a.69.69 0 0 1-.67.71H2.09a.69.69 0 0 1-.7-.7V.417a.345.345 0 0 1 .69 0v.69H3v-.5a.5.5 0 0 1 1 0v.5h1v-.5a.5.5 0 0 1 1 0v.5h1v-.69a.34.34 0 1 1 .67 0zm1.39 8.82a.35.35 0 0 1-.35.35H.35a.35.35 0 0 1 0-.7H.7a.68.68 0 0 0 .7-.7s.7-3.2.7-3.89a.68.68 0 0 1 .69-.69h3.48a.68.68 0 0 1 .7.7c0 .7.7 3.89.7 3.89a.68.68 0 0 0 .7.7h.34a.35.35 0 0 1 .35.35v-.01zM5.5 7.107a1 1 0 1 0-2 0v2h2v-2z"/></svg>