<svg xmlns="http://www.w3.org/2000/svg" viewBox="0 0 12.756800651550293 14"><path d="M6.007 1.5a1.5 1.5 0 1 1-3 0 1.5 1.5 0 0 1 3 0zm2.88 5.68l-2-2a.5.5 0 0 0-.4-.18h-4.73a.74.74 0 0 0-.75.64l-1 7.7a.483.483 0 0 0 0 .14.5.5 0 0 0 .5.5.49.49 0 0 0 .5-.34l1.2-3.89.26-.83.4.44 1.14 1.24v2.9a.5.5 0 0 0 1 0v-3a.48.48 0 0 0-.08-.22L3.487 8.5l1-2.5h1.71l2 1.84a.49.49 0 0 0 .37.17.5.5 0 0 0 .44-.51.49.49 0 0 0-.12-.32zm3.12 4.09a.75.75 0 1 0 0 1.5.75.75 0 0 0 0-1.5zm-3.24-1.53V9a.25.25 0 1 0-.5 0v.74a.49.49 0 0 0-.25.42v3.34a.5.5 0 0 0 1 0v-3.34a.49.49 0 0 0-.25-.42z"/></svg>