<svg xmlns="http://www.w3.org/2000/svg" viewBox="0 0 12.94002628326416 13.005282402038574"><path d="M12.94 8.501a.5.5 0 0 1-.5.5 1 1 0 0 0-.67.34 2.14 2.14 0 0 1-1 .6 1.89 1.89 0 0 1-1.76-.37l-.39-.35a.77.77 0 0 0-1.089-.01l-.011.01c-.14.12-.27.25-.42.37a1.91 1.91 0 0 1-2.46-.07l-.34-.33-.1-.06.3 1.22.49 2a.5.5 0 0 1-.49.65h-4a.5.5 0 0 1-.5-.5v-12a.5.5 0 0 1 .5-.5h1.1a.5.5 0 0 1 .49.39L3 4.061v.14a1.88 1.88 0 0 1 2 .24c.16.13.31.28.47.41a.75.75 0 0 0 1 0c.16-.13.31-.28.47-.41a1.9 1.9 0 0 1 2.45 0c.15.13.29.27.44.39a.75.75 0 0 0 1 0l.47-.41a1.78 1.78 0 0 1 1.13-.42.5.5 0 0 1 0 1 1 1 0 0 0-.67.34 2.14 2.14 0 0 1-1 .6A1.89 1.89 0 0 1 9 5.571l-.33-.34a.77.77 0 0 0-1.089-.01l-.011.01c-.14.12-.27.25-.42.37a1.91 1.91 0 0 1-2.46-.07l-.39-.34a.75.75 0 0 0-1 0l-.06.05.69 2.76a1.9 1.9 0 0 1 1.07.43c.16.13.31.28.47.41a.75.75 0 0 0 1 0c.16-.13.31-.28.47-.41a1.9 1.9 0 0 1 2.45 0c.15.13.29.27.44.39a.75.75 0 0 0 1 0l.47-.41a1.78 1.78 0 0 1 1.13-.41.5.5 0 0 1 .51.5z"/></svg>