<svg xmlns="http://www.w3.org/2000/svg" viewBox="0 0 13.079950332641602 15.048347473144531"><path d="M12.98 14.68a.5.5 0 0 1-.47.32c-.06.01-.12.01-.18 0l-5.79-2.44L.74 15a.5.5 0 0 1-.648-.284L.09 14.71A.5.5 0 0 1 .38 14l4.85-2-4.85-2a.5.5 0 1 1 .36-.93l5.8 2.41 5.8-2.41a.5.5 0 1 1 .36.93l-4.86 2 4.85 2a.5.5 0 0 1 .29.68zM11.04 4.23v.45a1 1 0 0 1-.2.59A17.718 17.718 0 0 1 9.04 7v1.16a.5.5 0 0 1-.32.47l-2.16.87h-.07l-2.17-.87a.5.5 0 0 1-.28-.47V7a17.563 17.563 0 0 1-1.82-1.73 1 1 0 0 1-.18-.59v-.45A4.6 4.6 0 0 1 6.15 0h.75a4.59 4.59 0 0 1 4.14 4.23zm-6-.23a1 1 0 1 0-2 0 1 1 0 0 0 2 0zm1 3a.5.5 0 0 0-1 0v.5a.5.5 0 0 0 1 0V7zm2 0a.5.5 0 0 0-1 0v.5a.5.5 0 0 0 1 0V7zm2-3a1 1 0 1 0-2 0 1 1 0 0 0 2 0z"/></svg>