<svg xmlns="http://www.w3.org/2000/svg" viewBox="0 0 15 12.321000099182129"><path d="M10.3.02c-.386 0-.7-.02-.8.78l-.4 2.521L11.5 5.3h2c1.4 0 1.5-.959 1.5-.959l-1.9-2.219c-.7-.7-1.4-.822-2.1-.822V.8s.067-.78-.7-.78zM4.75.3S3.8.32 3.2.52C2.6.72 2 1.421 2 2.421v3.9C2 8.021 1.3 8.3 1 8.3c0 0-1 .021-1 1.021v2.2s0 .8.8.8H2v-.699c0-.4-.2-.6-.5-.7v-1.1c1 0 1.1-.201 1.5-.301l.55 2.197c.1.3.2.5.5.6h1L6 12.3v-.8c0-.677-1-.7-1-.7V8.3h3.5l.7 2.621c.4 1.4 1.3 1.379 1.3 1.379H12v-.8c0-.713-1-.7-1-.7l.1-4.078L8 4.3H3.5v-2c0-.4.276-.495.5-.5.494-.012.75 0 .75 0a.75.75 0 0 0 0-1.5zm7 2.5a.25.25 0 1 1 0 .5.25.25 0 0 1 0-.5z"/></svg>