<svg xmlns="http://www.w3.org/2000/svg" viewBox="0 0 11 11.124144554138184"><path d="M11 9.456v.77a.83.83 0 0 0-.57.26 1.86 1.86 0 0 1-.81.46 1.74 1.74 0 0 1-1.49-.29l-.33-.27a.71.71 0 0 0-.93 0c-.12.09-.23.2-.35.28a1.75 1.75 0 0 1-2.1-.05l-.33-.27a.69.69 0 0 0-.83 0c-.16.11-.3.25-.46.36a1.75 1.75 0 0 1-2 0l-.26-.21a.82.82 0 0 0-.54-.27v-.77a1.16 1.16 0 0 1 .63.11c.234.13.458.276.67.44a.76.76 0 0 0 .7.2.82.82 0 0 0 .26-.12c.13-.09.25-.2.38-.3a1.75 1.75 0 0 1 2.07 0l.4.31a.69.69 0 0 0 .81 0l.4-.31a1.75 1.75 0 0 1 2.08 0l.38.3a.69.69 0 0 0 .82 0l.4-.31a1.61 1.61 0 0 1 1-.32zm-8.39-1.84L1 5.006l1-.91v-2.94A1.18 1.18 0 0 1 3.19.006h4.62A1.18 1.18 0 0 1 9 1.156v2.94l1 .91-1.61 2.62a2.22 2.22 0 0 0-2.65.14l-.24.24-.2-.18a2.22 2.22 0 0 0-2.69-.21zm.2-4l2.69-1.61 2.69 1.63v-2.48a.36.36 0 0 0-.38-.38H3.19a.36.36 0 0 0-.38.38v2.48-.02z"/></svg>