<svg xmlns="http://www.w3.org/2000/svg" viewBox="0 0 13 15.19349193572998"><path d="M4.33 11.018a3 3 0 0 1 1.85.67l.26.23h.05l.31-.28a2.89 2.89 0 0 1 3.44-.18l2.26-4.44-1.5-1v-3.55a1.54 1.54 0 0 0-1.5-1.45H9a.94.94 0 0 0-1-1H5a.94.94 0 0 0-1 1h-.5A1.54 1.54 0 0 0 2 2.468v3.55l-1.5 1 2.25 4.53a2.93 2.93 0 0 1 1.58-.53zM3 2.468a.47.47 0 0 1 .5-.45h6a.47.47 0 0 1 .5.5v3l-3.5-2L3 5.468v-3zm10 10.55v1a1 1 0 0 0-.68.34 2.15 2.15 0 0 1-1 .6 1.91 1.91 0 0 1-1.77-.37l-.39-.35a.78.78 0 0 0-1.1 0c-.14.12-.27.25-.42.37a1.92 1.92 0 0 1-2.48-.07l-.39-.35a.76.76 0 0 0-1 0c-.19.15-.36.32-.55.47a1.91 1.91 0 0 1-2.35-.06l-.31-.27a.94.94 0 0 0-.56-.31v-1c.259-.032.52.017.75.14a6.2 6.2 0 0 1 .79.58.84.84 0 0 0 .81.25.93.93 0 0 0 .31-.16c.16-.12.29-.26.45-.39a1.92 1.92 0 0 1 2.45 0c.16.13.31.28.47.41a.76.76 0 0 0 1 0c.16-.13.31-.28.47-.41a1.92 1.92 0 0 1 2.46 0c.15.13.29.27.44.39a.76.76 0 0 0 1 0l.47-.41c.32-.26.719-.4 1.13-.4z"/></svg>