<svg xmlns="http://www.w3.org/2000/svg" viewBox="0 0 11 10.011499404907227"><path d="M0 4.011h4.5v1H0v-1zm1 4.79c0 .668.542 1.21 1.21 1.21h2.31v-4H1v2.79zm6.64-5.79H3.36A1.26 1.26 0 0 1 2 1.511a1.41 1.41 0 0 1 1.42-1.5 2.12 2.12 0 0 1 2.1 1.69 2.13 2.13 0 0 1 2.1-1.69A1.43 1.43 0 0 1 9 1.531a1.27 1.27 0 0 1-1.36 1.48zm-2.82-.75a1.43 1.43 0 0 0-1.4-1.5.68.68 0 0 0-.7.75.68.68 0 0 0 .606.747c.031.003.063.004.094.003h1.4zm2.8 0a.68.68 0 0 0 .7-.75.71.71 0 0 0-.7-.75 1.43 1.43 0 0 0-1.4 1.5h1.4zm-1.1 1.75v1H11v-1H6.52zm0 6h2.29A1.21 1.21 0 0 0 10 8.801v-2.79H6.52v4z"/></svg>