<svg xmlns="http://www.w3.org/2000/svg" viewBox="0 0 11.105104446411133 11.016792297363281"><path d="M11.105 3.767a1.75 1.75 0 0 0-1.75-1.75 1.73 1.73 0 0 0-.8.2 1.24 1.24 0 0 0-1.24-1.2 1.19 1.19 0 0 0-.21.05 1.23 1.23 0 0 0-1.25-1.05 1.25 1.25 0 0 0-1.13.73 1.21 1.21 0 0 0-.62-.21 1.23 1.23 0 0 0-1 .55 1.491 1.491 0 0 0-.49-.07 1.51 1.51 0 0 0-1.4 2.08 1.49 1.49 0 0 0-.03 2.92 1.49 1.49 0 0 0 2.55.52h.12c.321 0 .63-.126.86-.35v3.83l-1.61 1h5l-1.6-1v-1a8.42 8.42 0 0 1 2.38-2c.26-.05.5-.167.7-.34a1.49 1.49 0 0 0 .52-1.16 1.46 1.46 0 0 0 0-.17c.61-.29 1-.904 1-1.58zm-4.64 4.5v-2.25h.18a1.52 1.52 0 0 0 .53-.1 1.5 1.5 0 0 0 .89 1 8.821 8.821 0 0 0-1.6 1.35z"/></svg>