<svg xmlns="http://www.w3.org/2000/svg" viewBox="0 0 7.00115966796875 11.043745040893555"><path d="M7.001 10.5a.5.5 0 0 1-.5.5.49.49 0 0 1-.43-.27l-.38-.73h-4.38l-.37.74a.5.5 0 0 1-.94-.24.49.49 0 0 1 .07-.24l1-2a.49.49 0 0 1 .43-.26.5.5 0 0 1 .5.7l-.19.3h3.38l-.19-.3a.5.5 0 0 1 .9-.43l1 2a.49.49 0 0 1 .1.23zm-1-10.5h-5a1 1 0 0 0-1 1v5a1 1 0 0 0 1 1h5a1 1 0 0 0 1-1V1a1 1 0 0 0-1-1zm-4.5 6a.5.5 0 1 1 0-1 .5.5 0 0 1 0 1zm0-2a.5.5 0 0 1-.5-.5v-2a.5.5 0 0 1 .5-.5h1.79v3h-1.79zm4 2a.5.5 0 1 1 0-1 .5.5 0 0 1 0 1zm.5-2.5a.5.5 0 0 1-.5.5h-1.81V1h1.81a.5.5 0 0 1 .5.5v2z"/></svg>