<svg xmlns="http://www.w3.org/2000/svg" viewBox="0 0 9.003103256225586 11.010174751281738"><path d="M2 3.01a1 1 0 1 1-2 0 1 1 0 0 1 2 0zm6.87 1.55L7.3 3.01a1.89 1.89 0 0 0-.5-2.3 2.25 2.25 0 0 0-1.54-.7 1.26 1.26 0 0 0-.91.35 1.79 1.79 0 0 0 .35 2.45 2.25 2.25 0 0 0 1.54.7 1.3 1.3 0 0 0 .69-.21l1.6 1.6a.23.23 0 0 0 .2.12.25.25 0 0 0 .27-.26.24.24 0 0 0-.13-.2zM6.8 2.81a.77.77 0 0 1-.56.2 1.76 1.76 0 0 1-1.19-.55A1.33 1.33 0 0 1 4.7.71a.78.78 0 0 1 .56-.2c.453.023.879.22 1.19.55.549.407.7 1.163.35 1.75zm-1.3 2.2h-5a.5.5 0 0 0-.5.5v5a.5.5 0 0 0 1 0v-2.5h1v2.5a.5.5 0 0 0 1 0v-4.5h2.5a.5.5 0 0 0 0-1z"/></svg>