<svg xmlns="http://www.w3.org/2000/svg" viewBox="0 0 10.648567199707031 13.490175247192383"><path d="M4.186 4a1.5 1.5 0 1 1-3 0 1.5 1.5 0 0 1 3 0zm6.38.55l-1.57-1.59a1.89 1.89 0 0 0-.5-2.25 2.25 2.25 0 0 0-1.54-.7 1.26 1.26 0 0 0-.91.35 1.79 1.79 0 0 0 .35 2.45 2.25 2.25 0 0 0 1.54.7 1.3 1.3 0 0 0 .69-.21l1.56 1.59a.23.23 0 0 0 .2.12.25.25 0 0 0 .25-.25.24.24 0 0 0-.07-.21zM8.496 2.8a.77.77 0 0 1-.56.2 1.76 1.76 0 0 1-1.18-.5 1.33 1.33 0 0 1-.35-1.74.78.78 0 0 1 .55-.26c.468.015.91.217 1.23.56a1.33 1.33 0 0 1 .31 1.74zm.54 2.34a.5.5 0 0 0-.707-.003l-.003.003-1.35 1.36h-4.9a.5.5 0 0 0-.48.38l-.79 3.11-.72 2.87a.5.5 0 0 0 .31.63h.16a.5.5 0 0 0 .47-.34l.8-3.19h1.36v3a.5.5 0 0 0 1 0v-3l1-2.46h2.21l1.65-1.65a.5.5 0 0 0-.01-.7v-.01z"/></svg>