<svg xmlns="http://www.w3.org/2000/svg" viewBox="0 0 11 9.787999153137207"><path d="M.606.001C.303.001 0 .302 0 .605v3.734c0 1.414.578 2.962 3 2.962h.5V5.485l-2.29-.008S1.514 4.34 3.027 4.34c.303 0 .404 0 .606.102V3.028c0-.606.202-1.008.605-1.31.303-.305.552-.417 1.156-.417H6V.696c0-.303-.197-.659-.5-.659-.606 0-1.16.569-2.473.569C2.018.606 1.211 0 .606 0zm1.144 1.8a.75.75 0 1 1 0 1.5.75.75 0 0 1 0-1.5zm3.75.5c-.303 0-.555.424-.555.727v3.733c0 1.413.606 3.027 3.028 3.027S11 8.074 11 6.762V3.028c0-.303-.197-.727-.5-.727-.605 0-1.592.5-2.5.5s-1.894-.5-2.5-.5zm1.25 2a.75.75 0 1 1 0 1.5.75.75 0 0 1 0-1.5zm2.5 0a.75.75 0 1 1 0 1.5.75.75 0 0 1 0-1.5zM6.156 7.367h3.735s-.303 1.211-1.817 1.211-1.918-1.21-1.918-1.21z"/></svg>