<svg xmlns="http://www.w3.org/2000/svg" viewBox="0 0 11.042304992675781 11.090688705444336"><path d="M3.372 2.2a1.1 1.1 0 1 1 1.1-1.1 1.1 1.1 0 0 1-1.1 1.1zm6.94-1.1a1.1 1.1 0 1 0 0 .01V1.1zm-3.76 3.84l-1.81-1.81a.37.37 0 0 0-.27-.12h-2.21a.37.37 0 0 0-.25.1h.03L.182 4.94a.38.38 0 1 0 .53.53l1.58-1.58-1.48 4.12h1.46v2.51a.38.38 0 0 0 .75.11h.02V8.01h.69v2.63a.38.38 0 0 0 .75-.11V8.01h1.44l-1.47-4.12 1.59 1.58a.37.37 0 0 0 .28.12c.21 0 .38-.17.38-.38a.37.37 0 0 0-.15-.27zm2.11 2.07v3.63a.37.37 0 1 0 .73 0V7.01h1.65V3.38a.37.37 0 0 0-.37-.37h-2.92a.37.37 0 0 0-.37.37v3.63h1.28z"/></svg>