<svg xmlns="http://www.w3.org/2000/svg" viewBox="0 0 12.980502128601074 12.925366401672363"><path d="M6.485 4.7c-2.5 0-3 2.28-3 3.47a6.15 6.15 0 0 0-1.7.89 2 2 0 0 0-.4 2.78 2.06 2.06 0 0 0 2.8.4 4 4 0 0 1 2.3-.69 4 4 0 0 1 2.3.69 2 2 0 0 0 2.8-.3 1.93 1.93 0 0 0-.3-2.78l-.1-.1a8.996 8.996 0 0 0-1.7-.89c0-1.18-.5-3.47-3-3.47zM1.065 3a1.58 1.58 0 0 0-.76 2 1.52 1.52 0 0 0 1.61 1.4 1.58 1.58 0 0 0 .76-2A1.52 1.52 0 0 0 1.065 3zm10.85 0a1.58 1.58 0 0 1 .76 2 1.52 1.52 0 0 1-1.61 1.4 1.58 1.58 0 0 1-.76-2 1.52 1.52 0 0 1 1.61-1.4zm-7.85-3c-.68.09-1 .94-.76 1.87a1.77 1.77 0 0 0 1.61 1.53c.68-.09 1-.94.76-1.87A1.77 1.77 0 0 0 4.065 0zm4.85 0c.68.09 1 .94.76 1.87a1.77 1.77 0 0 1-1.62 1.53c-.68-.08-1-.94-.76-1.87A1.77 1.77 0 0 1 8.915 0z"/></svg>