<svg xmlns="http://www.w3.org/2000/svg" viewBox="0 0 11 12.00433349609375"><path d="M6.484.004a.502.502 0 0 0-.375.188L4.45 2.266 2.844.742c-.436-.4-1.084.155-.754.647l1.666 2.4a.5.5 0 0 0 .803.026c.166-.21.441-.678.941-.678s.793.49.941.678a.5.5 0 0 0 .713.072l1.668-1.4c.441-.375 0-1.074-.527-.838L7 2.231V.504a.5.5 0 0 0-.516-.5zM3 5.004L.076 10.928C0 11.005 0 11.16 0 11.313c0 .538.384.691.691.691h9.618c.384 0 .691-.153.691-.69 0-.155 0-.232-.076-.386L8 5.004c-.5 0-1 .5-1 1v.5a.5.5 0 1 1-1 0v-.5a.5.5 0 1 0-1 0v2a.5.5 0 1 1-1 0v-2c0-.5-.5-1-1-1z"/></svg>