<svg xmlns="http://www.w3.org/2000/svg" viewBox="0 0 15.015999794006348 9.527999877929688"><path d="M8.404 1.393S7.698 2.5 7.016 2.5h-2.5c-.682 0-1.298.409-1.773.864L.516 5.5c-.269.258-.493.768-.5 1-.016.5 0 1 0 1s1 0 1-1V6l1-1h.5l.158.29S1.72 7.114 1.72 8.818c0 .682.682.682.682.682h.682s.341 0 0-.34l-.34-.342c-.001-.682.772-1.651 1.272-2.318 0 0 .017 1.158 0 2-.008.41.272 1 .682 1h.682s.34 0 0-.34l-.341-.342C4.726 8.25 5.516 6 5.516 6c1.272 0 1.5.5 3 .5l.364 2.318c.111.71.636.682.636.682h1.5c.34 0 .961-.311.34-.774l-.34-.226v-2c1.214-.172 2-1 2-2h1c.321 0 1 0 1-.5V3l-1.704-1.682C12.559.578 12.016 0 11.016 0 9.563 0 8.88.569 8.404 1.393z"/></svg>