<svg xmlns="http://www.w3.org/2000/svg" viewBox="0 0 28.499998092651367 28.400001525878906"><path d="M0 28.4l2.5-9.9L17.4 3.6l7.4 7.4L9.9 25.9 0 28.4zm4.3-8.9l-1.5 6.1 6.1-1.5L22 11l-4.6-4.6L4.3 19.5z"/><path d="M8.2 25.3c-.6-2.5-2.6-4.5-5.1-5.1l.5-1.9c3.2.8 5.7 3.3 6.5 6.5l-1.9.5z"/><path d="M19.698 7.287l1.414 1.414-13.01 13.02-1.414-1.41zM1.4 27l2.9-.7c-.3-1.1-1.1-1.9-2.2-2.2L1.4 27zm24-16.6L18 3l3-3 .5.1c3.6.5 6.4 3.3 6.9 6.9l.1.5-3.1 2.9zM20.8 3l4.6 4.6.9-.9c-.5-2.3-2.3-4.1-4.6-4.6l-.9.9z"/></svg>