<svg xmlns="http://www.w3.org/2000/svg" viewBox="0 0 34 34"><path d="M17 10c-.6 0-1-.4-1-1V1c0-.6.4-1 1-1s1 .4 1 1v8c0 .6-.4 1-1 1z"/><path d="M17 34c-.6 0-1-.4-1-1v-8c0-.6.4-1 1-1s1 .4 1 1v8c0 .6-.4 1-1 1zm4-23c-.2 0-.3 0-.5-.1-.4-.3-.6-.8-.3-1.3l4-6.9c.3-.4.8-.6 1.3-.3.4.3.6.8.3 1.3l-4 6.9c-.2.2-.5.4-.8.4zM9 31.8c-.2 0-.3 0-.5-.1-.4-.3-.6-.8-.3-1.3l4-6.9c.3-.4.8-.6 1.3-.3.4.3.6.8.3 1.3l-4 6.9c-.2.2-.5.4-.8.4z" opacity=".3"/><path d="M13 11c-.3 0-.6-.2-.8-.5l-4-6.9c-.3-.4-.1-1 .3-1.3.4-.3 1-.1 1.3.3l4 6.9c.3.4.1 1-.3 1.3-.2.2-.3.2-.5.2z" opacity=".93"/><path d="M25 31.8c-.3 0-.6-.2-.8-.5l-4-6.9c-.3-.4-.1-1 .3-1.3.4-.3 1-.1 1.3.3l4 6.9c.3.4.1 1-.3 1.3-.2.1-.3.2-.5.2z" opacity=".3"/><path d="M9 18H1c-.6 0-1-.4-1-1s.4-1 1-1h8c.6 0 1 .4 1 1s-.4 1-1 1z" opacity=".65"/><path d="M33 18h-8c-.6 0-1-.4-1-1s.4-1 1-1h8c.6 0 1 .4 1 1s-.4 1-1 1z" opacity=".3"/><path d="M10.1 13.9c-.2 0-.3 0-.5-.1l-6.9-4c-.4-.3-.6-.8-.3-1.3.3-.4.8-.6 1.3-.3l6.9 4c.4.3.6.8.3 1.3-.2.3-.5.4-.8.4z" opacity=".86"/><path d="M30.9 25.9c-.2 0-.3 0-.5-.1l-6.9-4c-.4-.3-.6-.8-.3-1.3.3-.4.8-.6 1.3-.3l6.9 4c.4.3.6.8.3 1.3-.2.3-.5.4-.8.4z" opacity=".3"/><path d="M3.1 25.9c-.3 0-.6-.2-.8-.5-.3-.4-.1-1 .3-1.3l6.9-4c.4-.3 1-.1 1.3.3.3.4.1 1-.3 1.3l-6.9 4c-.1.2-.3.2-.5.2z" opacity=".44"/><path d="M23.9 13.9c-.3 0-.6-.2-.8-.5-.3-.4-.1-1 .3-1.3l6.9-4c.4-.3 1-.1 1.3.3.3.4.1 1-.3 1.3l-6.9 4c-.2.2-.3.2-.5.2z" opacity=".3"/></svg>