<svg xmlns="http://www.w3.org/2000/svg" viewBox="0 0 37.39999771118164 35.400001525878906"><path d="M7.8 35.4c-.2 0-.4-.1-.6-.2-.4-.3-.5-.7-.4-1.1l3.9-12L.5 14.6c-.4-.3-.5-.7-.4-1.1s.5-.7 1-.7h12.7L17.6.7c.1-.4.5-.7 1-.7s.8.3 1 .7l3.9 12.1h12.7c.4 0 .8.2 1 .6s0 .9-.4 1.1l-10.2 7.4 3.9 12c.1.4 0 .9-.4 1.1s-.8.3-1.2 0l-10.3-7.2-10.2 7.4c-.2.1-.4.2-.6.2zm10.8-9.9c.2 0 .4.1.6.2l8.3 6.1-3.2-9.8c-.1-.4 0-.9.4-1.1l8.3-6.1H22.7c-.4 0-.8-.3-1-.7l-3.1-9.8-3.2 9.8c-.1.4-.5.7-1 .7H4.1l8.3 6.1c.4.3.5.7.4 1.1l-3.1 9.8 8.3-6.1c.2-.1.4-.2.6-.2z"/></svg>