<svg viewBox="0 0 1195 1195" xmlns="http://www.w3.org/2000/svg"><path d="M1062.333 464q-37-88-106-157-68-68-157-106-92-39-193-39-84 0-162 27-39-18-85.5-31.5t-83-18.5-71.5-8.5-51-2.5-22 0q-21 1-32 18t-3 36l87 219q-72 118-72 256 0 101 39 193 38 88 106 157 69 68 158 106 92 39 192 39 101 0 193-39 89-37 157-106 69-68 106-157 39-92 39-193t-39-193zm-432 95q0 17-12 29t-29 12-29-12-12-29v-74q0-17 12-29t29-12 29 12 12 29v74zm238 0q0 17-12 29t-29 12-29-12-12-29v-74q0-17 12-29t29-12 29 12 12 29v74z"/></svg>