<svg viewBox="0 0 1195 1195" xmlns="http://www.w3.org/2000/svg"><path d="M1065.333 611q-31-46-76-76-3-51-22-96-23-53-67-97-44-42-98-64t-116-22q-93 0-169 51-45 30-77 73-24-8-52-8-37 0-70 13.5t-59 39.5q-27 26-41 58-14 33-14 70 0 13 2 26-38 22-67 57-54 65-54 149 0 50 18 93 18 42 53.5 76.5t79 52 92.5 17.5h508q55 0 104-19.5t88.5-58.5 59.5-86q21-49 21-104 0-79-44-145zm-199 41.5q-9 9.5-22.5 9.5t-22.5-9l-95-95v306q0 13-9.5 22.5t-22.5 9.5-22.5-9.5-9.5-22.5V558l-95 95q-9 9-22.5 9t-22.5-9.5-9-22.5 9-23l149-149q10-9 23-9t23 9l149 149q9 10 9 23t-9 22.5z"/></svg>