<svg viewBox="0 0 1195 1195" xmlns="http://www.w3.org/2000/svg"><path d="M1013.333 319h-159V201q0-30-21.5-51.5t-51.5-21.5h-368q-30 0-51.5 21.5t-21.5 51.5v118h-159q-13 0-22.5 9.5t-9.5 23.5q0 13 9.5 22.5t22.5 9.5h33v695q0 30 21.5 51.5t51.5 21.5h619q30 0 51.5-21.5t21.5-51.5V384h33q14 0 23.5-9.5t9.5-22.5q0-14-9.5-23.5t-22.5-9.5zm-609 0V201q0-9 9-9h368q9 0 9 9v119h-386v-1zm511 760q0 9-9 9h-619q-9 0-9-9V384h637v695zm-510-535v384q0 14-9.5 23t-22.5 9-22.5-9-9.5-23V544q0-13 9.5-22.5t22.5-9.5 22.5 9.5 9.5 22.5zm224 0v384q0 14-9.5 23t-22.5 9-22.5-9-9.5-23V544q0-13 9.5-22.5t22.5-9.5 22.5 9.5 9.5 22.5zm225 0v384q0 14-9.5 23t-22.5 9-22.5-9-9.5-23V544q0-13 9.5-22.5t22.5-9.5 22.5 9.5 9.5 22.5z"/></svg>