<svg viewBox="0 0 1195 1195" xmlns="http://www.w3.org/2000/svg"><path d="M757.333 512q13 0 22.5 9t9.5 23v448q0 14-9.5 23.5t-22.5 8.5q-13 0-22.5-9t-9.5-23V544q0-14 9.5-23t22.5-9zm0 576q13 0 22.5 9.5t9.5 22.5-9.5 22.5-22.5 9.5-22.5-9.5-9.5-22.5 9.5-22.5 22.5-9.5zm-512-703h384q13 0 22.5 9.5t9.5 22.5-9.5 22.5-22.5 9.5h-384q-13 0-22.5-9.5t-9.5-22.5 9.5-22.5 22.5-9.5zm0 192h192q13 0 22.5 9.5t9.5 22.5-9.5 22.5-22.5 9.5h-192q-13 0-22.5-9.5t-9.5-22.5 9.5-22.5 22.5-9.5zm0 192h192q13 0 22.5 9.5t9.5 22.5-9.5 22.5-22.5 9.5h-192q-13 0-22.5-9.5t-9.5-22.5 9.5-22.5 22.5-9.5zm-159-576v832q0 26 18.5 45t45.5 19h480q13 0 22.5-9.5t9.5-22.5q0-14-9.5-23t-22.5-9h-480V193h832v832h-98q-13 0-22.5 9t-9.5 23q0 13 9.5 22.5t22.5 9.5h98q26 0 45-19t19-45V193q0-27-19-45.5t-45-18.5h-832q-27 0-45.5 18.5t-18.5 45.5z"/></svg>