<svg viewBox="0 0 1196 1196" xmlns="http://www.w3.org/2000/svg"><path d="M1043.417 574q-9-34-30-60t-45-40q-36-21-79-21h-116q19-52 24-118v-3q0-63-18-108-17-43-50-67-31-23-70-26-33-3-66 8-46 15-67 61-10 24-18 74-4 21-6 31-21 96-87 167-35 37-74 60-28 16-61 16h-122q-30 0-51.5 21.5t-21.5 51.5v392q0 30 21 51t51 21h172q36 0 104 22 43 14 70.5 21t86 15 125.5 8h2q131 0 191-66 28-31 37-71 2-9 3-17 41-31 52-75 8-37-6-76 36-33 42-74 6-38-13-75 15-28 21-57 6-34-1-66zm-894 439V621q0-9 9-9h119v409h-120q-8 0-8-8zm812-296q16 22 12 46-4 25-37 47-11 8-13.5 20.5t4.5 23.5q17 27 10 54-6 25-37 44-18 11-16 30 2 33-24 61-41 44-144 45h-1q-62 0-116.5-7.5t-80.5-14.5-65-20q-71-23-112-25V602q17-6 33-15 46-28 87-71 78-83 104-197 3-13 6-35 6-42 14-60t27-24q47-15 79 8 42 31 42 123-5 63-23 106-12 29 5 54.5t48 25.5h126q26 0 46 12 36 21 45 60 10 42-21 91-13 20 2 37z"/></svg>