<svg viewBox="0 0 1196 1196" xmlns="http://www.w3.org/2000/svg"><path d="M645.417 654q-14 14-7 32 11 27 11 56 0 63-45 108l-197 197q-45 45-108.5 45t-108-44.5-44.5-108 45-108.5q137-137 192-190 9-9 9-22t-9-22-21.5-9-21.5 9q-194 192-192 192-63 62-63 150.5t63 151.5q62 62 150.5 62t151.5-62l197-198q46-46 58.5-109t-10.5-120q-6-15-22-18.5t-28 8.5zm-96-26q14-14 7-32-11-27-11-56 0-63 45-108l198-197q44-45 107.5-45t108 44.5 44.5 108-44 108.5q-138 137-193 190-9 9-9 22t9 22 21.5 9 21.5-9l192-192q63-62 63-150.5t-63-151.5q-62-62-150.5-62t-150.5 62l-198 198q-46 46-58.5 109t10.5 120q6 15 22 18.5t28-8.5z"/></svg>