<svg viewBox="0 0 1195 1195" xmlns="http://www.w3.org/2000/svg"><path d="M597.333 128q-139 0-257 68.5T153.833 383t-68.5 257 68.5 257 186.5 186.5 257 68.5 257-68.5 186.5-186.5 68.5-257-68.5-257-186.5-186.5-257-68.5zm-256 414q0 13-9.5 22.5t-22.5 9.5-22.5-9.5-9.5-22.5v-64q0-13 9.5-22.5t22.5-9.5 22.5 9.5 9.5 22.5v64zm512 194q0 14-9 23t-23 9h-448q-13 0-22.5-9t-9.5-23q0-13 9.5-22.5t22.5-9.5h448q14 0 23 9.5t9 22.5zm63-194q0 13-9.5 22.5t-22.5 9.5-22.5-9.5-9.5-22.5v-64q0-13 9.5-22.5t22.5-9.5 22.5 9.5 9.5 22.5v64z"/></svg>