<svg viewBox="0 0 1196 1196" xmlns="http://www.w3.org/2000/svg"><path d="M1001.417 321q18 0 31 13t13 31v488q0 18-13 31t-31 13h-676l-12 5-141 57q-10 2-18 2h-5q2-11 9-26l1-1v-1l50-116 5-12V365q0-18 13-31t31-13h743zm0-64h-743q-45 0-76.5 31.5t-31.5 76.5v427l-49 115q-26 53-10.5 85.5t63.5 32.5q17 0 37-4l146-60h664q45 0 76.5-31.5t31.5-76.5V365q0-45-32-76.5t-76-31.5zm-564 384q-14 0-23-9.5t-9-22.5v-64q0-13 9-22.5t23-9.5q13 0 22.5 9.5t9.5 22.5v64q0 13-9.5 22.5t-22.5 9.5zm192 0q-13 0-22.5-9.5t-9.5-22.5v-64q0-13 9.5-22.5t22.5-9.5 22.5 9.5 9.5 22.5v64q0 13-9.5 22.5t-22.5 9.5zm193 0q-14 0-23-9.5t-9-22.5v-64q0-13 9-22.5t23-9.5q13 0 22.5 9.5t9.5 22.5v64q0 13-9.5 22.5t-22.5 9.5z"/></svg>