<svg viewBox="0 0 1195 1195" xmlns="http://www.w3.org/2000/svg"><path d="M597.333 192q91 0 174 35 81 34 143 96t96 143q35 83 35 174t-35 174q-34 81-96 143t-143 96q-83 35-174 35t-174-35q-81-34-143-96t-96-143q-35-83-35-174t35-174q34-81 96-143t143-96q83-35 174-35zm0-64q-139 0-257 68.5T153.833 383t-68.5 257 68.5 257 186.5 186.5 257 68.5 257-68.5 186.5-186.5 68.5-257-68.5-257-186.5-186.5-257-68.5zm288 511h-576q-13 0-22.5-9.5t-9.5-22.5 9.5-22.5 22.5-9.5h576q13 0 22.5 9.5t9.5 22.5-9.5 22.5-22.5 9.5z"/></svg>