<svg viewBox="0 0 1195 1195" xmlns="http://www.w3.org/2000/svg"><path d="M597.333 192q91 0 174 35 81 34 143 96t96 143q35 83 35 174t-35 174q-34 81-96 143t-143 96q-83 35-174 35t-174-35q-81-34-143-96t-96-143q-35-83-35-174t35-174q34-81 96-143t143-96q83-35 174-35zm0-64q-139 0-257 68.5T153.833 383t-68.5 257 68.5 257 186.5 186.5 257 68.5 257-68.5 186.5-186.5 68.5-257-68.5-257-186.5-186.5-257-68.5zm-64 316l231 196-231 196V444zm-40-112q-9 0-16.5 6.5t-7.5 15.5v572q0 9 7.5 15t17 6 16.5-6l335-285q8-7 8-16t-8-16l-335-285q-7-7-17-7z"/></svg>