<svg viewBox="0 0 1195 1195" xmlns="http://www.w3.org/2000/svg"><path d="M597.333 1088h64v64h-64v-64zm0-832h-64v128h64v-64h64v-64h64v-64h-64v-64h-192v64h128v64zm-512 320h64v64h-64v-64zm960 64h64v64h-64v-64zm-64-128v128h-128V512h-192V384h-64v128h-64v64h256v64h-192v64h64v128h128v-64h-64v-64h256v-64h64V512h-64zm-448 384V768h-64v192h64v64h-64v64h128V960h128v-64h-192zm-384-384h128v64h-128v-64zm512 512h64v64h-64v-64zm-576-320h64v64h-64v-64zm448-128h-128v-64h-64v64h-64v64h64v128h64V640h128v-64zm-384-128h192q27 0 45.5-18.5t18.5-45.5V192q0-27-18.5-45.5t-45.5-18.5h-192q-27 0-45.5 18.5t-18.5 45.5v192q0 27 18.5 45.5t45.5 18.5zm0-256h192v192h-192V192zm64 64h64v64h-64v-64zm832-128h-192q-27 0-45.5 18.5t-18.5 45.5v192q0 27 18.5 45.5t45.5 18.5h192q27 0 45.5-18.5t18.5-45.5V192q0-27-18.5-45.5t-45.5-18.5zm0 256h-192V192h192v192zm-128-128h64v64h-64v-64zm128 576h-192q-27 0-45.5 18.5t-18.5 45.5v192q0 27 18.5 45.5t45.5 18.5h192q27 0 45.5-18.5t18.5-45.5V896q0-27-18.5-45.5t-45.5-18.5zm0 256h-192V896h192v192zm-128-128h64v64h-64v-64zm-576-128h-192q-27 0-45.5 18.5t-18.5 45.5v192q0 27 18.5 45.5t45.5 18.5h192q27 0 45.5-18.5t18.5-45.5V896q0-27-18.5-45.5t-45.5-18.5zm0 256h-192V896h192v192zm-128-128h64v64h-64v-64z"/></svg>