<svg viewBox="0 0 1195 1195" xmlns="http://www.w3.org/2000/svg"><path d="M597.333 128q-139 0-257 68.5T153.833 383t-68.5 257 68.5 257 186.5 186.5 257 68.5 257-68.5 186.5-186.5 68.5-257-68.5-257-186.5-186.5-257-68.5zm30 802q0 13-9 22.5t-23 9.5q-13 0-22.5-9.5t-9.5-22.5 9.5-22.5 22.5-9.5q14 0 23 9.5t9 22.5zm66-220q-36 19-51 35t-15 46v11q0 13-9 22.5t-23 9.5q-13 0-22.5-9.5t-9.5-22.5v-11q0-48 24.5-79.5t75.5-58.5q35-18 55.5-52.5t20.5-74.5q0-60-42-102t-102-42q-62 0-103 37-30 28-38 68-2 11-11 18.5t-20 7.5q-16 0-25.5-11.5t-6.5-26.5q12-62 59-104 59-53 145-53 87 0 147.5 61t60.5 147q0 58-29.5 107.5t-80.5 76.5z"/></svg>