<svg viewBox="0 0 1196 1196" xmlns="http://www.w3.org/2000/svg"><path d="M597.417 193q6 0 10 7l117 248 15 31 33 5 263 40q7 1 9 9 3 11-3 17l-190 193-23 24 5 32 45 272q2 11-5 16h-1q-2 2-5 2-2 0-5-1l-234-129-31-17-31 17-234 129h-1q-2 1-4 1-3 0-5-2h-1q-7-6-5-16l45-272 5-32-23-24-190-193q-6-7-3-17 2-8 9-9l263-40 33-5 15-31 117-248q4-7 10-7zm0-64q-22 0-40 12t-28 32l-117 248-262 40q-22 3-38.5 17.5t-23 36-1.5 43 21 37.5l190 193-45 273q-4 22 4 43t26 34q20 15 44 15 19 0 36-9l234-129 235 129q16 9 35 9 25 0 44-15 18-13 26-34t4-43l-44-273 189-193q16-15 21-37t-1.5-43.5-23-36-38.5-17.5l-262-40-117-248q-10-20-28-32t-40-12z"/></svg>