<svg viewBox="0 0 1195 1195" xmlns="http://www.w3.org/2000/svg"><path d="M220.655 376.678c89.446-76.8 160.102-137.523 351.846-29.184 92.11 52.019 166.4 71.68 228.198 71.578 108.288 0 178.483-60.211 239.155-112.282 21.658-18.586 24.422-51.61 6.246-73.677-18.278-22.118-50.534-24.986-72.192-6.4-89.395 76.902-160.102 137.626-351.846 29.184-253.338-143.002-372.019-41.114-467.354 40.806-21.606 18.586-24.37 51.507-6.195 73.677 18.227 22.016 50.483 24.934 72.141 6.298zM973.91 488.192c-89.395 76.8-160.102 137.626-351.846 29.184-253.338-143.104-372.019-41.165-467.354 40.704-21.606 18.586-24.422 51.61-6.195 73.677 18.176 22.118 50.483 24.986 72.141 6.4 89.446-76.851 160.102-137.574 351.846-29.286 92.11 52.122 166.4 71.68 228.198 71.68 108.288 0 178.483-60.211 239.155-112.384 21.658-18.586 24.422-51.61 6.246-73.626-18.227-22.17-50.534-24.934-72.192-6.349zm0 261.427c-89.395 76.902-160.102 137.626-351.846 29.286-253.338-143.104-372.019-41.216-467.354 40.704-21.606 18.586-24.422 51.61-6.195 73.677 18.176 22.118 50.483 24.883 72.141 6.298 89.446-76.8 160.102-137.472 351.846-29.184 92.11 52.019 166.4 71.68 228.198 71.68 108.288 0 178.483-60.314 239.155-112.384 21.658-18.586 24.422-51.61 6.246-73.677-18.227-22.118-50.534-24.934-72.192-6.4z"/></svg>