<svg viewBox="0 0 1195 1195" xmlns="http://www.w3.org/2000/svg"><path d="M1024 329.386l-196.053-164.48-54.827 65.28 196.053 164.48 54.827-65.28zm-602.454-99.413l-54.827-65.28-196.053 164.48 54.827 65.28 196.053-164.48zM597.12 256c-212.267 0-383.787 171.947-383.787 384s171.52 384 383.787 384 384.213-171.947 384.213-384S809.386 256 597.12 256zm.213 682.666c-164.907 0-298.667-133.76-298.667-298.667s133.76-298.667 298.667-298.667S896 475.092 896 639.999 762.453 938.666 597.333 938.666zm-62.507-233.6l-90.453-90.453-45.227 45.227 135.68 135.68L791.04 539.307l-45.227-45.227-210.987 210.987z"/></svg>