<svg viewBox="0 0 1280 1280" xmlns="http://www.w3.org/2000/svg"><path d="M457.13 950.714q0-30.286-21.428-51.714t-51.714-21.429T332.274 899t-21.43 51.714 21.43 51.714 51.714 21.429 51.714-21.429 21.429-51.714zM237.704 658.143h219.429V511.857h-90.286q-8 1.143-12.571 5.143l-111.43 111.429q-4 6.857-5.142 12.571v17.143zM969.13 950.714q0-30.286-21.43-51.714t-51.713-21.429T844.274 899t-21.43 51.714 21.43 51.714 51.714 21.429 51.714-21.429 21.429-51.714zm73.143-384V457q0-8-5.143-13.143t-13.143-5.143h-128v-128q0-8-5.143-13.143t-13.143-5.143H767.988q-8 0-13.143 5.143t-5.143 13.143v128h-128q-8 0-13.143 5.143T603.416 457v109.714q0 8 5.143 13.143T621.702 585h128v128q0 8 5.143 13.143t13.143 5.143h109.714q8 0 13.143-5.143T895.988 713V585h128q8 0 13.143-5.143t5.143-13.143zm146.286-310.857v658.286q0 14.857-10.857 25.714t-25.714 10.857h-109.714q0 60.571-42.857 103.429T895.988 1097t-103.428-42.857-42.857-103.429h-219.43q0 60.571-42.856 103.429T383.987 1097t-103.428-42.857-42.857-103.429h-73.143q-14.857 0-25.714-10.857t-10.857-25.714 10.857-25.714 25.714-10.857V639.858q0-14.857 7.429-33.143t18.286-29.143l113.143-113.143q10.857-10.857 29.143-18.286t33.143-7.429h91.429V255.857q0-14.857 10.857-25.714t25.714-10.857h658.286q14.857 0 25.714 10.857t10.857 25.714z"/></svg>