<svg viewBox="0 0 1537 1537" xmlns="http://www.w3.org/2000/svg"><path d="M177.75 755.857h50.857l-25.714-61.714zm354.857 300.572l42.286-45.143-40-45.143H441.75v28h81.143v31.429H441.75v30.857h90.857zm90.286-44.572l56.571 62.857v-124zM787.464 985q0-18.857-22.857-18.857h-48v39.429h47.429q23.429 0 23.429-20.571zm165.143-2.286q0-16.571-24-16.571H881.75V1001h46.286q24.571 0 24.571-18.286zM793.75 716.429q0-16.571-24-16.571h-46.857v34.286h46.286q24.571 0 24.571-17.714zm262.286 39.428h50.857l-25.143-61.714zm-546.857-88.571v154.857h-37.714V701l-53.714 121.143H385.18L331.466 701v121.143h-75.429l-14.286-34.286h-77.143l-14.286 34.286h-40l66.286-154.857h54.857l62.857 146.857V667.286h60.571l48.571 105.143 44-105.143h61.714zM826.893 985q0 11.429-3.143 20t-8 14.286-12.857 9.429-14.857 5.714-18 2.571-18 .571-18.571-.286-16.857-.286v52h-72l-45.714-51.429-47.429 51.429H405.179V934.142H553.75l45.714 50.857 46.857-50.857h118.286q62.286 0 62.286 50.857zM660.607 790.143v32h-124V667.286h124v32.571H573.75v28h84.571v31.429H573.75v30.857h86.857zm765.714 319.429v130.857q0 31.429-22 54T1350.892 1317H185.178q-31.429 0-53.429-22.571t-22-54V853h63.429l14.286-34.857h31.429L233.179 853H357.75v-26.286L368.607 853h64.571l11.429-26.857V853H753.75v-56.571l5.714-.571q5.714 0 5.714 8v49.143h159.429v-13.143q13.143 6.857 31.429 10.286t30 3.714 36-.286 29.429-.571l14.286-34.857h32l14.286 34.857h129.714v-33.143l19.429 33.143h104v-216h-102.857v25.143l-14.286-25.143h-105.714v25.143l-13.143-25.143H986.894q-39.429 0-62.286 12.571v-12.571h-98.286v12.571q-13.714-12.571-41.714-12.571H425.751L401.18 692.43l-24.571-55.429H263.466v25.143l-12.571-25.143h-96.571l-44.571 102.286V515.858q0-31.429 22-54t53.429-22.571h1165.714q31.429 0 53.429 22.571t22 54v387.429h-68.571q-29.143 0-46.286 12.571v-12.571h-101.143q-31.429 0-44.571 12.571v-12.571H985.183v12.571q-17.714-12.571-49.714-12.571H816.04v12.571q-13.143-12.571-52-12.571H630.326l-30.857 33.143-28.571-33.143H371.469v216h196l31.429-33.714 29.714 33.714h120.571v-50.857h12q33.714 0 51.429-7.429v58.286h99.429v-56.571h4.571q4.571 0 5.714 1.143t1.143 5.714v49.714h302.286q32.571 0 50.286-13.714v13.714h96q34.286 0 54.286-9.714zM993.179 975.857q0 13.143-6.857 24.571t-19.429 16.571q14.286 5.143 19.429 14.857t5.143 26.286v30.857h-37.143v-25.714q0-18.857-6.857-24.857t-26.286-6H881.75v56.571h-37.143V934.142h88q27.429 0 44 8.571t16.571 33.143zM834.893 709q0 13.714-7.143 25.143t-19.143 16.571q14.857 5.143 19.714 14.571t4.857 26.571v30.286h-37.143q0-5.143.286-15.143t0-14.286-1.714-10.571-4.857-9.143-10-4.857-16.857-2h-40v56h-36.571V667.285l87.429.571q28 0 44.571 8.286t16.571 32.857zm302.286 348v32H1013.75V934.143h123.429v32h-86.286v28h84.571v31.429h-84.571v30.857zM893.75 667.286v154.857h-37.714V667.286h37.714zm396 372.571q0 49.143-58.286 49.143h-72v-33.143h72q19.429 0 19.429-14.286 0-9.143-9.714-12t-23.714-2.857-28.286-2-24-12.857-9.714-31.429q0-22.286 14.857-34.286t37.714-12h74.286v32.571h-68q-20.571 0-20.571 14.286 0 9.143 10 11.714t24 2.286 28 1.429 24 12.286 10 31.143zm136.571-28.571V1069q-13.714 20-50.286 20h-71.429v-33.143h71.429q18.857 0 18.857-14.286 0-7.429-7.143-10.857t-17.714-3.143-22.857-1.143-22.857-4.571-17.714-13.714-7.143-27.714q0-22.286 15.143-34.286t38-12h73.714v32.571h-67.429q-20.571 0-20.571 14.286 0 11.429 16.571 12.571t39.143 2.857 32.286 14.857zm-94.285-343.429v154.286h-52.571l-69.714-116v116h-75.429l-14.857-34.286h-76.571l-14.286 34.286h-42.857q-73.714 0-73.714-76 0-78.857 76-78.857h36V701q-4 0-16-.571t-16.286-.286-13.143 1.143T966.322 705t-8.286 7.714-6.571 13.143T949.751 745q0 21.714 7.714 33.143t28.286 11.429h16.571l52.571-121.714h55.429l62.286 146.286V667.858h56.571l65.143 107.429V667.858h37.714z"/></svg>