<svg viewBox="0 0 1195 1195" xmlns="http://www.w3.org/2000/svg"><path d="M1013.301 675.04L976.95 922.368l-73.568-71.36c-58.272 49.248-166.336 116.256-323.328 116.256-157.92 0-267.136-65.376-325.248-112.224l-67.136 65.12-38.336-245.088 252.576 37.184-69.6 67.552c48.832 36.256 125.44 79.968 201.728 79.968l-.224-403.488c-55.712-19.392-95.808-70.624-95.808-131.36 0-77.376 64.608-140.096 144.32-140.096 79.68 0 144.32 62.72 144.32 140.096 0 61.664-41.344 113.44-98.368 132.128.352 78.72 1.632 404.224-.128 404.224 72.96 0 148.288-47.488 197.344-85.888l-65.024-63.136 252.832-37.216zM656.725 322.656c0-39.872-33.312-72.224-74.4-72.224s-74.432 32.352-74.432 72.224c0 39.904 33.344 72.256 74.432 72.256s74.4-32.352 74.4-72.256z"/></svg>