<svg viewBox="0 0 1195 1195" xmlns="http://www.w3.org/2000/svg"><path d="M981.333 448c-35.2 0-64 28.8-64 64v256c0 35.2 28.8 64 64 64s64-28.8 64-64V512c0-35.2-28.8-64-64-64zm-768 0c-35.2 0-64 28.8-64 64v256c0 35.2 28.8 64 64 64s64-28.8 64-64V512c0-35.2-28.802-64-64-64zm96 352c0 53.02 42.98 96 96 96v128c0 35.2 28.8 64 64 64s64-28.8 64-64V896h128v128c0 35.2 28.8 64 64 64s64-28.8 64-64V896c53.02 0 96-42.98 96-96V448h-576v352zM883.55 384.002c-9.716-87.884-59.004-163.792-129.62-209.646l32.024-64.046c7.904-15.806 1.496-35.028-14.31-42.932s-35.03-1.496-42.932 14.312l-32.142 64.286-8.35-3.316c-28.568-9.502-59.122-14.66-90.886-14.66-31.762 0-62.316 5.158-90.888 14.656l-8.348 3.316-32.142-64.282c-7.904-15.808-27.128-22.212-42.932-14.312-15.808 7.904-22.214 27.126-14.312 42.932l32.022 64.046C370.117 220.208 320.83 296.118 311.111 384v32h574.222v-31.998h-1.784zM501.333 320c-17.674 0-32-14.328-32-32 0-17.648 14.288-31.958 31.93-31.996l.094.002.052-.002c17.638.042 31.924 14.35 31.924 31.996 0 17.672-14.326 32-32 32zm192 0c-17.674 0-32-14.328-32-32 0-17.646 14.286-31.954 31.924-31.996l.05.002.096-.002c17.64.038 31.93 14.348 31.93 31.996 0 17.672-14.326 32-32 32z"/></svg>