<svg viewBox="0 0 1365 1365" xmlns="http://www.w3.org/2000/svg"><path d="M371.786 840.857q0-37.714-26.857-64.571t-64.571-26.857-64.571 26.857-26.857 64.571 26.857 64.571 64.571 26.857 64.571-26.857 26.857-64.571zM392.357 658h580.571l-50.857-204q-1.143-4.571-8-10t-12-5.429H463.214q-5.143 0-12 5.429t-8 10zm784 182.857q0-37.714-26.857-64.571t-64.571-26.857-64.571 26.857-26.857 64.571 26.857 64.571 64.571 26.857 64.571-26.857 26.857-64.571zM1267.786 786v219.429q0 8-5.143 13.143t-13.143 5.143h-54.857v73.143q0 45.714-32 77.714t-77.714 32-77.714-32-32-77.714v-73.143H390.072v73.143q0 45.714-32 77.714t-77.714 32-77.714-32-32-77.714v-73.143h-54.857q-8 0-13.143-5.143t-5.143-13.143V786q0-53.143 37.429-90.571T225.501 658h16l60-239.429q13.143-53.714 59.429-90t102.286-36.286h438.857q56 0 102.286 36.286t59.429 90l60 239.429h16q53.143 0 90.571 37.429T1267.788 786z"/></svg>