<svg viewBox="0 0 1195 1195" xmlns="http://www.w3.org/2000/svg"><path d="M1014.058 469.333c-23.467 0-32.725 38.4-32.725 85.333v85.333c0 46.933 9.26 85.333 32.725 85.333s32.725-38.4 32.725-85.333h62.55v-85.333h-62.593c0-46.933-9.259-85.333-32.683-85.333zm-160.725-128c-42.667 0-42.667 38.4-42.667 85.333v128H384v-128c0-46.933 0-85.333-42.667-85.333-46.933 0-85.333 38.4-85.333 85.333v341.333c0 46.933 38.4 85.333 85.333 85.333 42.667 0 42.667-38.4 42.667-85.333v-128h426.667v128c0 46.933 0 85.333 42.667 85.333 46.933 0 85.333-38.4 85.333-85.333V426.666c0-46.933-38.4-85.333-85.333-85.333zm-672.725 128c23.467 0 32.725 38.4 32.725 85.333v85.333c0 46.933-9.259 85.333-32.725 85.333s-32.725-38.4-32.725-85.333H85.334v-85.333h62.592c0-46.933 9.26-85.333 32.683-85.333z"/></svg>