<svg viewBox="0 0 1195 1195" xmlns="http://www.w3.org/2000/svg"><path d="M959.373 213.96C862.667 117.258 734.093 64 597.333 64S332 117.258 235.293 213.96C138.591 310.666 85.333 439.24 85.333 576s53.258 265.334 149.96 362.04C332 1034.742 460.573 1088 597.333 1088s265.334-53.258 362.04-149.96c96.702-96.706 149.96-225.28 149.96-362.04s-53.258-265.334-149.96-362.04zM981.333 576c0 82.814-26.354 159.588-71.112 222.38L374.955 263.112C437.747 218.354 514.52 192 597.333 192c211.738 0 384 172.262 384 384zm-768 0c0-82.814 26.354-159.586 71.112-222.378l535.27 535.268C756.921 933.646 680.147 960 597.333 960c-211.738 0-384-172.262-384-384z"/></svg>