<svg viewBox="0 0 1195 1195" xmlns="http://www.w3.org/2000/svg"><path d="M1043.13 448h-57.407c-35.166 0-65.988-29.742-68.39-64 .004-182.668-147.258-320-331.19-320H418.32C234.507 64 85.463 212 85.333 394.666v362.798C85.333 940.118 234.507 1088 418.317 1088h358.42c183.948 0 332.596-147.882 332.596-330.536V523.082c0-36.502-29.44-75.082-66.204-75.082zM405.332 320h192c35.2 0 64 28.8 64 64s-28.8 64-64 64h-192c-35.2 0-64-28.8-64-64s28.8-64 64-64zm384 512h-384c-35.2 0-64-28.8-64-64s28.8-64 64-64h384c35.2 0 64 28.8 64 64s-28.8 64-64 64z"/></svg>