<svg viewBox="0 0 1344 1344" xmlns="http://www.w3.org/2000/svg"><path d="M320 320H128c-17.6 0-32 14.4-32 32v704c0 17.6 14.4 32 32 32h192c17.6 0 32-14.4 32-32V352c0-17.6-14.4-32-32-32zm-32 192H160v-64h128v64zm352-192H448c-17.6 0-32 14.4-32 32v704c0 17.6 14.4 32 32 32h192c17.6 0 32-14.4 32-32V352c0-17.6-14.4-32-32-32zm-32 192H480v-64h128v64zm253.088-142.52l-171.464 86.394c-15.716 7.918-22.096 27.258-14.178 42.976l287.978 571.548c7.918 15.718 27.258 22.098 42.976 14.178l171.464-86.392c15.716-7.92 22.096-27.26 14.178-42.974L904.064 383.66c-7.92-15.718-27.26-22.1-42.976-14.18zM1024 1056c0 17.673-14.327 32-32 32s-32-14.327-32-32c0-17.673 14.327-32 32-32s32 14.327 32 32z"/></svg>