<svg viewBox="0 0 1195 1195" xmlns="http://www.w3.org/2000/svg"><path d="M692.906 597.76l98.987 98.987c11.947-30.933 18.773-64.427 18.773-99.413 0-34.773-6.613-68.053-18.347-98.773l-99.413 99.2zm225.707-225.92l-53.973 53.973c26.667 51.413 42.027 109.653 42.027 171.733s-15.36 120.107-42.027 171.733l51.2 51.2c41.173-66.133 65.493-143.573 65.493-226.773 0-81.493-23.253-157.227-62.72-221.867zm-163.2 42.24L512 170.667h-42.667v323.627L273.706 298.667l-60.373 60.373 238.293 238.293-238.293 238.293 60.373 60.373 195.627-195.627v323.627H512l243.413-243.413-183.04-183.253 183.04-183.253zm-200.747-80l80.213 80.213-80.213 80V334.08zm80.214 446.506l-80.213 80V700.159l80.213 80.427z"/></svg>