<svg viewBox="0 0 1195 1195" xmlns="http://www.w3.org/2000/svg"><path d="M377.762 768q0-30.286-21.429-51.714t-51.714-21.429-51.714 21.429T231.476 768t21.43 51.714 51.713 21.429 51.714-21.429T377.763 768zm585.142 0q0-30.286-21.429-51.714t-51.714-21.429-51.714 21.429T816.618 768t21.43 51.714 51.713 21.429 51.714-21.429T962.905 768zM936.62 541.714l-41.143-219.429q-2.857-13.143-12.857-21.429t-23.143-8.286h-524.57q-13.144 0-23.144 8.286t-12.857 21.429l-41.143 219.429q-2.857 17.143 8 30.286t28 13.143H900.62q17.143 0 28-13.143t8-30.286zM807.476 192q0-11.429-8-19.429t-19.429-8H414.333q-11.429 0-19.429 8t-8 19.429 8 19.429 19.43 8h365.713q11.43 0 19.43-8t8-19.429zm228.571 414.286v344.571h-73.143V1024q0 30.286-21.429 51.714t-51.714 21.429-51.714-21.429T816.618 1024v-73.143H377.761V1024q0 30.286-21.429 51.714t-51.714 21.429-51.714-21.429T231.475 1024v-73.143h-73.143V606.286q0-64 14.286-127.429l58.857-259.429q5.143-44.571 55.714-78.286t131.43-50.857 178.57-17.143T775.76 90.285t131.43 50.857 55.713 78.286l60 259.429q13.143 58.286 13.143 127.429z"/></svg>