<svg viewBox="0 0 1195 1195" xmlns="http://www.w3.org/2000/svg"><path d="M256 768h128V640H256v128zm42.666-85.334h42.667v42.667h-42.667v-42.667zm128 85.334h128V640h-128v128zm42.667-85.334H512v42.667h-42.667v-42.667zm-42.667 256h128v-128h-128v128zm42.667-85.333H512V896h-42.667v-42.667zM256 938.666h128v-128H256v128zm42.666-85.333h42.667V896h-42.667v-42.667zM597.333 768h128V640h-128v128zM640 682.666h42.667v42.667H640v-42.667zM512 512h42.667v-42.667H512V512zm-85.334 0h42.667v-42.667h-42.667V512zM256 597.333h682.667v-384H256v384zM298.666 256H896v298.667H298.666V256zm640-170.667H256c-70.699 0-128 57.301-128 128v768c0 70.699 57.301 128 128 128h682.667c70.7 0 128-57.301 128-128v-768c0-70.699-57.3-128-128-128zm42.667 896c0 23.595-19.072 42.667-42.667 42.667H256c-23.595 0-42.667-19.072-42.667-42.667v-768c0-23.595 19.072-42.667 42.667-42.667h682.667c23.595 0 42.667 19.072 42.667 42.667v768zm-384-42.667h128v-128h-128v128zM640 853.333h42.667V896H640v-42.667zm128 85.333h170.667V639.999H768v298.667zm42.666-256H896v213.333h-85.333V682.666zM341.333 512H384v-42.667h-42.667V512z"/></svg>