<svg viewBox="0 0 1195 1195" xmlns="http://www.w3.org/2000/svg"><path d="M469.333 128h-320c-35.2 0-64 28.8-64 64v320c0 35.2 28.796 64 64 64h320c35.2 0 64-28.8 64-64V192c0-35.2-28.8-64-64-64zm0 256h-320v-64h320v64zm512-256h-320c-35.204 0-64 28.8-64 64v832c0 35.2 28.796 64 64 64h320c35.2 0 64-28.8 64-64V192c0-35.2-28.8-64-64-64zm0 576h-320v-64h320v64zm0-192h-320v-64h320v64zm-512 128h-320c-35.2 0-64 28.8-64 64v320c0 35.2 28.796 64 64 64h320c35.2 0 64-28.8 64-64V704c0-35.2-28.8-64-64-64zm0 256h-128v128h-64V896h-128v-64h128V704h64v128h128v64z"/></svg>