<svg viewBox="0 0 1537 1537" xmlns="http://www.w3.org/2000/svg"><path d="M293.75 850.143h-8.571q-10.857 0-10.857-10.286 0-16 10.857-48.571 2.857-8.571 8.571-11.143t16-2.571q44 0 44 28 0 23.429-17.429 34t-42.571 10.571zm195.429 92q-26.857 0-26.857-16.571 0-35.429 70.286-35.429l1.714 1.714q-2.857 50.286-45.143 50.286zm442.285-90.857h-8.571q-10.857 0-10.857-10.857 0-16 10.857-48.571 2.857-8.571 8.286-10.857t16.286-2.286q44 0 44 28 0 23.429-17.429 34t-42.571 10.571zm195.429 91.428q-26.857 0-26.857-17.143 0-35.429 70.286-35.429l1.714 1.714q-2.857 50.857-45.143 50.857zM322.893 733H249.75q-4.571 0-8.286 2.286t-4.857 4.286-4 7.143q-1.714 4-25.714 108.571t-24 109.714q0 4 3.143 7.143t7.714 3.143h35.429q14.286 0 18.571-19.714l8.571-39.429 18.571-19.714q26.857 0 50-4.286t46-14 36.286-30 13.429-48.286q0-20.571-8.286-34.857t-23.429-20.857-30.571-8.857T322.892 733zm197.714 54.857q-21.714 0-42.286 3.429-1.143 0-4.857.571t-5.143.857l-4.286.857-4.286 1.143-3.714 1.714-3.714 2.286-2.857 2.857-2.571 4-2.286 5.143q-5.143 16.571-5.143 22.286t5.143 5.714q2.857 0 12.286-2.857t11.143-3.429q17.143-4.571 33.143-4.571 42.286 0 42.286 20.571 0 6.286-5.714 8-4.571 1.143-10.286 1.714t-12.286.857-10 .857q-21.714 2.286-36.857 5.714t-32.286 11.143-26 22.286-8.857 35.714q0 21.714 14.857 34t36.571 12.286q13.714 0 26-3.714t18.857-7.429 22-13.429q-1.714 4-1.714 8.571t3.143 7.714 7.143 3.143h32q.571-.571 4-2t4.286-2 2.857-2 2.857-3.143 1.429-4.571l25.714-110.857q2.286-7.429 2.286-17.143 0-46.286-82.857-46.286zm301.714 2.857h-42.286q-12.571 0-22.286 13.143-2.857 4-16.857 29.143t-26.571 46.571-14.857 22l-2.857-2.286q0-44-15.429-94.857-.571-2.857-2-4.857t-3.429-3.714-3.714-2.857-4.857-1.714-4.857-.857-5.429-.571-5.143-.286h-10.571q-21.714 0-21.714 12l.571 2.857q2.857 30.286 14.286 86.286t14.286 81.714q1.143 9.143 1.143 13.714 0 10.857-17.429 35.143t-17.429 33.429q0 7.429 22.857 7.429 34.857 0 43.429-14.286l140-237.143q5.714-11.429 5.714-14.857 0-5.143-4.571-5.143zm138.286-56.571h-73.714q-10.286 0-16.571 13.143-3.429 7.429-26.571 109.429t-23.143 108.857q0 11.429 24.571 11.429h14.571l5.429-.571 4.857-1.143 4.857-1.714 3.714-2.571 3.143-3.429 1.714-4.857 12-52q1.143-5.714 6-9.714t11.143-4q26.857 0 50-4t46-14 36.286-30 13.429-48q0-20.571-8.286-34.857t-23.429-20.857-30.571-8.857-35.429-2.286zm197.714 53.714q-14.857 0-42.286 3.429-21.714 3.429-27.429 9.143-4 4.571-6.286 10.857-4.571 13.714-4.571 22.286 0 5.714 4.571 5.714.571 0 23.429-6.857 17.143-4.571 33.143-4.571 42.286 0 42.286 20.571 0 6.857-5.714 8-2.286.571-32.571 4-21.714 2.286-36.857 5.714t-32.286 11.143-26 22.286-8.857 35.714 14.857 33.429 36.571 12.286q13.714 0 25.714-3.429t19.429-7.429 21.714-13.714q-1.714 8.571-1.714 9.143 0 2.857 1.143 4.857t3.714 3.143 4.571 2 6 1.143 5.429.286h10q24 0 27.429-14.286l25.714-110.857q1.714-8.571 1.714-17.714 0-46.286-82.857-46.286zm184-52h-31.429q-14.286 0-18.857 22.857-5.714 25.143-20.857 95.429t-24.286 108.571v2.857q0 9.143 9.143 10.286h33.143q5.714 0 10.571-3.714t6-9.429L1353.178 749h-.571l.571-2.857q0-4-3.143-7.143t-7.714-3.143zm84-223.428v731.429q0 29.714-21.714 51.429t-51.429 21.714H182.892q-29.714 0-51.429-21.714t-21.714-51.429V512.429q0-29.714 21.714-51.429t51.429-21.714h1170.286q29.714 0 51.429 21.714t21.714 51.429z"/></svg>