<svg viewBox="0 0 1195 1195" xmlns="http://www.w3.org/2000/svg"><path d="M213.333 960h896v128h-1024V64h128zm160-64c-53.02 0-96-42.98-96-96s42.98-96 96-96c2.828 0 5.622.148 8.388.386L484.913 532.4c-9.84-15.07-15.58-33.062-15.58-52.402 0-53.02 42.98-96 96-96s96 42.98 96 96c0 19.342-5.74 37.332-15.58 52.402l103.192 171.986a97.727 97.727 0 0 1 8.388-.386c2.136 0 4.248.094 6.35.23L934.04 406.108c-10.536-15.408-16.706-34.036-16.706-54.11 0-53.02 42.98-96 96-96s96 42.98 96 96-42.98 96-96 96c-2.14 0-4.248-.094-6.35-.232L836.627 745.89c10.536 15.406 16.706 34.036 16.706 54.11 0 53.02-42.98 96-96 96s-96-42.98-96-96c0-19.34 5.74-37.332 15.578-52.402l-103.19-171.984c-2.766.238-5.56.386-8.388.386s-5.622-.146-8.388-.386L453.753 747.6c9.84 15.068 15.58 33.06 15.58 52.4 0 53.02-42.98 96-96 96z"/></svg>