<svg viewBox="0 0 1195 1195" xmlns="http://www.w3.org/2000/svg"><path d="M343.611 510.542L197.08 256.74C290.897 139.276 435.313 64 597.333 64c187.432 0 351.31 100.736 440.532 251h-417.77c-7.504-.65-15.092-1-22.762-1-121.874 0-224.578 83.644-253.722 196.542zM780.64 389h293.46c22.74 57.93 35.234 121.004 35.234 187 0 280.826-226.1 508.804-506.186 511.926l209.394-362.678c29.48-42.378 46.792-93.826 46.792-149.248 0-73.17-30.164-139.42-78.694-187zM411.333 576c0-102.56 83.44-186 186-186s186 83.44 186 186-83.44 186-186 186-186-83.44-186-186zm256.182 252.442L520.937 1082.32C274.405 1045.436 85.333 832.804 85.333 576c0-91.218 23.884-176.846 65.696-251.024L360.06 687.03C401.927 776.142 492.535 838 597.333 838c24.3 0 47.836-3.34 70.182-9.558z"/></svg>