<svg viewBox="0 0 1195 1195" xmlns="http://www.w3.org/2000/svg"><path d="M1109.333 721.542c0-82.09-56.678-150.9-132.996-169.48C973.095 423.362 867.88 320 738.475 320c-75.792 0-143.266 35.494-186.854 90.732-24.442-31.598-62.69-51.96-105.708-51.96-73.81 0-133.642 59.874-133.642 133.722 0 6.436.48 12.76 1.364 18.954-11.222-2.024-22.766-3.138-34.57-3.138-106.998-.002-193.732 86.786-193.732 193.842C85.333 809.214 172.067 896 279.063 896l656.262-.012c96.138-.184 174.008-78.212 174.008-174.446z"/></svg>