<svg viewBox="0 0 1195 1195" xmlns="http://www.w3.org/2000/svg"><path d="M1109.333 544.002c0-98.334-80-178.292-178.334-178.292-4.792 0-9.542.208-14.292.582-46.25-57.708-115.958-91.956-191.376-91.956-75.376 0-145.124 34.248-191.376 91.958a182.09 182.09 0 0 0-14.376-.582c-98.246-.002-178.246 79.956-178.246 178.29 0 10.292 1.376 20.208 3 30.084-1.084 1.416-2.376 2.708-3.416 4.166a221.881 221.881 0 0 0-31.584-2.25c-123.5 0-224 100.498-224 223.998 0 123.502 100.5 224 224 224 27.376 0 54.168-5 79.418-14.666 57.914 50.5 131.582 78.666 208.582 78.666 77.084 0 150.666-28.166 208.582-78.666C831.165 1019 857.957 1024 885.333 1024c123.5 0 224-100.498 224-224 0-51.376-18.084-98.166-47.332-135.998 29.164-31.792 47.332-73.666 47.332-120zM885.333 960c-34.25 0-65.832-10.998-91.876-29.332C746.5 987.25 676.581 1024 597.333 1024c-79.25 0-149.168-36.75-196.124-93.332-26 18.334-57.624 29.332-91.876 29.332-88.376 0-160-71.624-160-160s71.624-159.998 160-159.998c21.624 0 42.124 4.376 60.876 12.124 1.124-2.124 2.5-4 3.624-6.042 11.25-20.542 25.124-39.376 41.332-56.084 46.168-47.832 110.334-78 182.168-78 99.418 0 184.668 57.332 227.082 140.124 11.292-4.624 23.336-7.626 35.75-9.624l25.168-2.5c24.668 0 47.75 6.084 68.624 16 22.624 10.832 42.042 26.748 57.292 46.376 21 27.042 34.084 60.708 34.084 97.624 0 88.376-71.624 160-160 160zm131.124-340.75c-36.958-26.916-82-43.248-131.124-43.248-10.624 0-21.124.75-31.584 2.25-59.748-81.416-154.042-130.25-256.416-130.25-68.25 0-132.624 22.084-185.876 60.668 14.958-45.708 57.458-78.958 108.124-78.958 15.5 0 30.124 3.124 43.5 8.664 30.376-59.124 91.25-100.04 162.25-100.04S857.247 379.25 887.5 438.376c13.458-5.54 28.166-8.664 43.498-8.664 63.168 0 114.334 51.166 114.334 114.292.002 28.956-11.122 55.08-28.874 75.246z"/></svg>