<svg viewBox="0 0 1195 1195" xmlns="http://www.w3.org/2000/svg"><path d="M955.457 588.332c9.75-7.25 19.624-14.374 28.458-23.208 26.416-26.458 46.542-58.666 59.584-95.708 4.166-11.584 1.208-24.584-7.544-33.25-8.708-8.75-21.624-11.708-33.246-7.584-70.792 25-147.376 8-199.792-44.5-52.498-52.5-69.582-129.042-44.498-199.792a32.015 32.015 0 0 0-7.584-33.292c-8.666-8.666-21.624-11.666-33.25-7.582-37.084 13.166-69.25 33.25-95.668 59.666-67.082 67-87.958 162-64.958 247.584-86.5 11.042-164.25 57-216.042 127.584a221.881 221.881 0 0 0-31.584-2.25c-123.5 0-224 100.498-224 224 0 123.5 100.5 224 224 224 27.376 0 54.168-5.002 79.418-14.668 57.912 50.5 131.58 78.668 208.58 78.668 77.084 0 150.666-28.168 208.582-78.668 25.25 9.666 52.042 14.668 79.418 14.668 123.5 0 224-100.5 224-224 .002-98.876-64.832-182.042-153.874-211.668zM667.165 248.334c5.084-5.166 10.542-9.958 16.292-14.458-4.5 71.958 21.458 142.75 74.208 195.458 52.752 52.75 123.542 78.666 195.502 74.208-27.584 35.168-65.584 57.042-106.252 66.376-54.75-69.5-135.208-113.248-223.916-120.374-24.542-67.918-10.166-146.878 44.166-201.21z"/></svg>