<svg viewBox="0 0 1195 1195" xmlns="http://www.w3.org/2000/svg"><path d="M1031.083 432.042l-448-298.666a31.998 31.998 0 0 0-35.5 0l-448 298.666a31.999 31.999 0 0 0-14.25 26.624v298.666c0 10.7 5.348 20.692 14.25 26.624l448 298.666c5.374 3.584 11.562 5.376 17.75 5.376s12.376-1.792 17.75-5.376l448-298.666a31.999 31.999 0 0 0 14.25-26.624V458.666a31.999 31.999 0 0 0-14.25-26.624zm-465.75 286.834L399.021 608l166.312-110.874L731.645 608 565.333 718.876zm32-277.334v-221.75l358.31 238.876-166.31 110.874-192-128zm-64 0l-192 128-166.312-110.874 358.312-238.876v221.75zM283.645 608l-134.312 89.542V518.46L283.645 608zm57.688 38.458l192 128v221.748L175.021 757.334l166.312-110.876zm256 128l192-128 166.312 110.876-358.312 238.874v-221.75zM847.021 608l134.312-89.54v179.084L847.021 608z"/></svg>