<svg viewBox="0 0 1195 1195" xmlns="http://www.w3.org/2000/svg"><path d="M449.055 786.052l41.298-57.816L445.1 682.98l-57.818 41.296a159.049 159.049 0 0 0-34.266-14.192L341.333 640h-64l-11.68 70.086a159.049 159.049 0 0 0-34.266 14.192L173.57 682.98l-45.256 45.256 41.298 57.816a159.049 159.049 0 0 0-14.192 34.266L85.333 832v64l70.086 11.682a159.09 159.09 0 0 0 14.192 34.266l-41.298 57.816 45.254 45.256 57.818-41.296a159.049 159.049 0 0 0 34.266 14.192L277.333 1088h64l11.68-70.086a159.049 159.049 0 0 0 34.266-14.192l57.818 41.296 45.254-45.256-41.298-57.816a159.049 159.049 0 0 0 14.192-34.266L533.333 896v-64l-70.086-11.682a159.09 159.09 0 0 0-14.192-34.266zM309.333 928c-35.348 0-64-28.654-64-64s28.652-64 64-64 64 28.654 64 64-28.652 64-64 64zm800-480v-64l-67.382-12.25a287.178 287.178 0 0 0-4.724-23.79l57.558-37.1-24.492-59.128-66.944 14.468a287.474 287.474 0 0 0-13.492-20.13l39.006-56.342-45.256-45.254-56.342 39.006a289.382 289.382 0 0 0-20.13-13.494l14.468-66.944-59.128-24.494-37.1 57.558a287.178 287.178 0 0 0-23.79-4.724L789.333 64h-64l-12.252 67.382a287.341 287.341 0 0 0-23.79 4.724l-37.098-57.558-59.128 24.492 14.468 66.944a288.201 288.201 0 0 0-20.13 13.494l-56.342-39.006-45.254 45.254 39.006 56.342a288.201 288.201 0 0 0-13.494 20.13l-66.944-14.468-24.492 59.128 57.558 37.1a287.014 287.014 0 0 0-4.724 23.79L405.333 384v64l67.382 12.25a287.178 287.178 0 0 0 4.724 23.79l-57.558 37.1 24.492 59.128 66.944-14.468a288.674 288.674 0 0 0 13.494 20.13l-39.006 56.342 45.254 45.256 56.342-39.006a288.176 288.176 0 0 0 20.13 13.492l-14.468 66.944 59.128 24.492 37.102-57.558a286.967 286.967 0 0 0 23.788 4.724L725.333 768h64l12.252-67.382a287.505 287.505 0 0 0 23.79-4.724l37.1 57.558 59.128-24.492-14.468-66.944a288.176 288.176 0 0 0 20.13-13.492l56.342 39.006 45.256-45.256-39.006-56.342a288.648 288.648 0 0 0 13.492-20.13l66.944 14.468 24.492-59.13-57.558-37.1a287.014 287.014 0 0 0 4.724-23.79l67.382-12.25zm-352 107.2c-76.878 0-139.2-62.322-139.2-139.2s62.32-139.2 139.2-139.2 139.2 62.322 139.2 139.2c0 76.878-62.32 139.2-139.2 139.2z"/></svg>