<svg viewBox="0 0 1195 1195" xmlns="http://www.w3.org/2000/svg"><path d="M997.333 800H605.461c11.488-19.808 20.288-41.28 26.112-64h365.76c17.696 0 32 14.304 32 32 0 17.664-14.304 32-32 32zm0-96H637.781c1.312-10.496 2.208-21.152 2.208-32 0-10.88-.896-21.504-2.208-32h359.552c17.696 0 32 14.304 32 32 0 17.664-14.304 32-32 32zm0-96h-365.76c-5.856-22.72-14.624-44.192-26.112-64h391.872c17.696 0 32 14.304 32 32 0 17.664-14.304 32-32 32zm0-96H583.637c-20.8-25.952-46.496-47.776-75.808-64h489.504c17.696 0 32 14.304 32 32 0 17.664-14.304 32-32 32zm0-96h-512c-17.696 0-32-14.336-32-32 0-17.696 14.304-32 32-32h512c17.696 0 32 14.304 32 32 0 17.664-14.304 32-32 32zm0-96h-512c-17.696 0-32-14.336-32-32 0-17.696 14.304-32 32-32h512c17.696 0 32 14.304 32 32 0 17.664-14.304 32-32 32zm-384 352c0 123.712-100.32 224-224 224-123.712 0-224-100.288-224-224s100.288-224 224-224c123.68 0 224 100.288 224 224zM468.63 696.352c-3.232-7.648-7.392-14.304-12.608-19.968s-11.136-10.528-17.792-14.592a205.112 205.112 0 0 0-20.384-10.912 948.66 948.66 0 0 0-20.384-9.088c-6.656-2.848-12.64-5.92-17.888-9.184-5.28-3.264-9.472-7.008-12.608-11.2s-4.704-9.152-4.704-14.912c0-3.84.704-7.488 2.08-10.944 1.408-3.424 3.52-6.4 6.4-8.864 2.848-2.432 6.432-4.384 10.688-5.76 4.256-1.408 9.28-2.08 15.008-2.08 7.328 0 14.048.864 20.192 2.656 6.112 1.824 11.52 3.776 16.192 5.984 4.672 2.176 8.608 4.192 11.808 6.048s5.536 2.752 7.008 2.752 2.624-.384 3.488-1.184c.832-.8 1.536-2.048 1.984-3.808.48-1.728.768-3.936.992-6.592.192-2.688.288-5.984.288-9.856 0-3.456-.064-6.368-.192-8.672-.128-2.336-.384-4.288-.672-5.824-.352-1.536-.736-2.784-1.184-3.712-.512-.928-1.376-2.048-2.72-3.36-1.344-1.344-4.064-3.008-8.192-4.96-4.128-1.984-8.864-3.776-14.176-5.344-5.344-1.6-11.072-2.848-17.184-3.776-1.248-.192-2.528-.128-3.776-.288v-33.088h-31.488v33.088c-5.792.768-11.392 1.92-16.832 3.488-10.592 3.072-19.776 7.68-27.584 13.888s-14.016 14.016-18.592 23.36c-4.608 9.408-6.88 20.288-6.88 32.672 0 10.784 1.6 20.064 4.768 27.776 3.2 7.712 7.36 14.432 12.512 20.096s10.944 10.496 17.472 14.56c6.528 4.096 13.28 7.712 20.192 10.912 6.944 3.2 13.664 6.208 20.192 9.088s12.352 5.952 17.472 9.184c5.152 3.296 9.312 7.008 12.512 11.2 3.2 4.224 4.8 9.248 4.8 15.104 0 5.088-.928 9.696-2.784 13.856-1.888 4.128-4.576 7.584-8.096 10.4s-7.808 4.96-12.864 6.496c-5.088 1.536-10.784 2.304-17.216 2.304-9.728 0-18.304-1.088-25.696-3.296s-13.76-4.64-19.104-7.328c-5.344-2.656-9.696-5.056-13.088-7.296-3.392-2.176-6.016-3.296-7.904-3.296-1.344 0-2.528.384-3.488 1.088-1.024.736-1.824 1.984-2.4 3.712-.608 1.76-1.024 4-1.312 6.816s-.416 6.272-.416 10.4c0 6.144.384 10.848 1.088 14.112.736 3.296 1.984 5.792 3.712 7.488 1.728 1.728 4.544 3.68 8.48 5.952s8.832 4.384 14.688 6.432c5.856 2.016 12.64 3.776 20.288 5.248 7.648 1.44 15.968 2.144 24.896 2.144.384 0 .736-.064 1.152-.064v30.816h31.456V801.28c1.504-.384 3.104-.576 4.576-.992 11.584-3.456 21.728-8.64 30.4-15.488s15.52-15.392 20.608-25.664c5.056-10.272 7.552-22.176 7.552-35.776.032-10.336-1.568-19.328-4.736-27.008zM583.637 832h413.696c17.696 0 32 14.304 32 32 0 17.664-14.304 32-32 32H507.83c29.312-16.224 55.008-38.048 75.808-64z"/></svg>