<svg viewBox="0 0 1195 1195" xmlns="http://www.w3.org/2000/svg"><path d="M597.333 64c-282.77 0-512 229.23-512 512s229.23 512 512 512 512-229.23 512-512-229.23-512-512-512zm-416 512c0-229.75 186.25-416 416-416 109.574 0 209.232 42.386 283.534 111.628L469.333 448 292.961 859.534C223.72 785.232 181.333 685.574 181.333 576zM670.5 649.166l-256.082 109.75 109.75-256.082L670.5 649.166zM597.333 992C487.76 992 388.1 949.614 313.801 880.372L725.333 704l176.372-411.532c69.242 74.298 111.628 173.958 111.628 283.532 0 229.75-186.25 416-416 416z"/></svg>