<svg viewBox="0 0 1195 1195" xmlns="http://www.w3.org/2000/svg"><path d="M981.333 426.666v-42.667l-128 85.333-128-85.333v42.667l128 85.333 128-85.333zM1024 213.333H170.667c-47.147 0-85.333 38.187-85.333 85.333v597.333c0 47.147 38.187 85.333 85.333 85.333H1024c47.147 0 84.907-38.187 84.907-85.333l.427-597.333c0-47.147-38.187-85.333-85.333-85.333zm-597.334 128c70.613 0 128 57.387 128 128 0 70.827-57.387 128-128 128s-128-57.173-128-128c0-70.613 57.387-128 128-128zm256 512h-512v-42.667c0-85.333 170.667-132.267 256-132.267s256 46.933 256 132.267v42.667zm341.334-256H682.667v-256H1024v256z"/></svg>