<svg viewBox="0 0 1195 1195" xmlns="http://www.w3.org/2000/svg"><path d="M815.476 686.857v62.286q0 28.571-20.857 50.857t-53.714 34.571-67.429 18.571-67.143 6.286q-117.143 0-195.714-79.429t-78.57-197.714q0-116 77.713-193.714t193.714-77.714q19.43 0 43.143 2.571t53.143 10.286 52.857 19.429 39.43 32.286 16 46.286v62.286q0 9.143-9.144 9.143h-67.429q-9.143 0-9.143-9.143v-40q0-24.571-37.429-38.571t-78.57-14q-80 0-130.572 52.286t-50.57 135.714q0 86.286 52.285 142.571t133.43 56.286q38.856 0 78.856-13.714t40-37.714v-40q0-4 2.571-6.571t6-2.571h68q3.43 0 6.286 2.571t2.857 6.571zM597.19 219.429q-74.286 0-142 29.143t-116.57 78-78 116.571-29.144 142 29.143 142 78 116.571 116.571 78 142 29.143 142-29.143 116.571-78 78-116.571 29.143-142-29.143-142-78-116.571-116.57-78-142-29.143zm438.857 365.714q0 119.429-58.857 220.286T817.476 965.143 597.19 1024t-220.286-58.857T217.19 805.429t-58.857-220.286 58.857-220.286 159.714-159.714 220.286-58.857 220.286 58.857T977.19 364.857t58.857 220.286z"/></svg>