<svg viewBox="0 0 1195 1195" xmlns="http://www.w3.org/2000/svg"><path d="M431.047 777.714q87.43 0 146.857-59.429 8-10.286 1.714-20.571l-25.714-46.857q-3.429-7.429-13.714-9.714-9.143-1.143-15.429 6.286l-2.286 1.714q-2.286 2.286-6.57 5.714t-10 7.429-13.43 8.286-16.286 7.714-19.143 5.429-21.429 2q-43.429 0-71.429-28.571t-28-72.571q0-43.429 27.43-71.714t69.713-28.286q21.143 0 40.857 8t28.857 16l9.143 8q6.286 6.286 14.857 5.714 9.143-1.143 13.714-8l30.286-44.571q7.43-11.429-1.143-22.286-1.714-2.286-6.286-6.857t-17.143-13.429-27.714-16-38.57-12.857-49.144-5.714q-84.57 0-140.57 55.143t-56 137.429q0 83.429 55.428 138t141.143 54.571zm360 0q87.43 0 146.857-59.429 8-10.286 2.286-20.571l-25.714-46.857q-4.57-8-14.286-9.714-9.143-1.143-15.429 6.286l-2.286 1.714q-2.286 2.286-6.57 5.714t-10 7.429-13.43 8.286-16.286 7.714-19.143 5.429-21.429 2q-43.429 0-71.429-28.571t-28-72.571q0-43.429 27.43-71.714t69.713-28.286q21.143 0 40.857 8t28.857 16l9.143 8q6.286 6.286 14.857 5.714 9.143-1.143 13.714-8l30.286-44.571q7.43-11.429-1.143-22.286-1.714-2.286-6.286-6.857t-17.143-13.429-27.714-16-38.57-12.857-49.144-5.714q-84 0-140.286 55.143t-56.286 137.429q0 83.429 55.43 138t141.142 54.571zM597.333 164.572q-85.714 0-163.429 33.429t-134 89.714-89.714 134-33.429 163.429 33.43 163.429 89.713 134 134 89.714 163.43 33.429 163.428-33.429 134-89.714 89.714-134 33.43-163.429-33.43-163.429-89.714-134-134-89.714-163.429-33.429zm0-91.429q104 0 198.857 40.571t163.43 109.143 109.142 163.429 40.571 198.857T1068.763 784 959.618 947.429 796.19 1056.572t-198.857 40.571-198.857-40.571-163.429-109.143T125.904 784t-40.57-198.857 40.57-198.857 109.143-163.429 163.43-109.143 198.856-40.571z"/></svg>