<svg viewBox="0 0 1195 1195" xmlns="http://www.w3.org/2000/svg"><path d="M597.333 896C550.186 896 512 934.187 512 981.333s38.187 85.333 85.333 85.333 85.333-38.187 85.333-85.333S644.48 896 597.333 896zm-256-768C294.186 128 256 166.187 256 213.333s38.187 85.333 85.333 85.333 85.333-38.187 85.333-85.333S388.48 128 341.333 128zm0 256C294.186 384 256 422.187 256 469.333s38.187 85.333 85.333 85.333 85.333-38.187 85.333-85.333S388.48 384 341.333 384zm0 256C294.186 640 256 678.187 256 725.333s38.187 85.333 85.333 85.333 85.333-38.187 85.333-85.333S388.48 640 341.333 640zm512-341.334c47.147 0 85.333-38.187 85.333-85.333S900.48 128 853.333 128 768 166.187 768 213.333s38.187 85.333 85.333 85.333zM597.333 640C550.186 640 512 678.187 512 725.333s38.187 85.333 85.333 85.333 85.333-38.187 85.333-85.333S644.48 640 597.333 640zm256 0C806.186 640 768 678.187 768 725.333s38.187 85.333 85.333 85.333 85.333-38.187 85.333-85.333S900.48 640 853.333 640zm0-256C806.186 384 768 422.187 768 469.333s38.187 85.333 85.333 85.333 85.333-38.187 85.333-85.333S900.48 384 853.333 384zm-256 0C550.186 384 512 422.187 512 469.333s38.187 85.333 85.333 85.333 85.333-38.187 85.333-85.333S644.48 384 597.333 384zm0-256C550.186 128 512 166.187 512 213.333s38.187 85.333 85.333 85.333 85.333-38.187 85.333-85.333S644.48 128 597.333 128z"/></svg>