<svg viewBox="0 0 1195 1195" xmlns="http://www.w3.org/2000/svg"><path d="M768 290.133c42.24 0 76.8-34.347 76.8-76.8s-34.56-76.8-76.8-76.8c-42.453 0-76.8 34.347-76.8 76.8s34.347 76.8 76.8 76.8zm128 307.2c-117.76 0-213.333 95.573-213.333 213.333S778.24 1023.999 896 1023.999s213.333-95.573 213.333-213.333S1013.76 597.333 896 597.333zM896 960c-82.56 0-149.333-66.773-149.333-149.333S813.44 661.334 896 661.334s149.333 66.773 149.333 149.333S978.56 960 896 960zM716.8 512H896v-76.8H759.467l-82.56-139.307c-12.587-21.333-35.84-35.627-62.507-35.627-20.053 0-38.187 8.107-51.2 21.333L405.333 439.252C392.106 452.479 384 470.612 384 490.665c0 26.88 14.293 49.493 36.267 62.72L563.2 639.998v213.333H640v-276.48l-96-71.253 98.987-99.413L716.8 511.998zm-418.134 85.333c-117.76 0-213.333 95.573-213.333 213.333s95.573 213.333 213.333 213.333S512 928.426 512 810.666s-95.573-213.333-213.333-213.333zm0 362.667c-82.56 0-149.333-66.773-149.333-149.333s66.773-149.333 149.333-149.333S448 728.107 448 810.667 381.226 960 298.666 960z"/></svg>