<svg viewBox="0 0 1195 1195" xmlns="http://www.w3.org/2000/svg"><path d="M892.586 299.093C883.84 273.92 859.946 256 832 256H362.666c-27.947 0-51.84 17.92-60.587 43.093l-88.747 255.573v341.333c0 23.467 19.2 42.667 42.667 42.667h42.667c23.68 0 42.667-19.2 42.667-42.667v-42.667h512v42.667c0 23.467 19.2 42.667 42.667 42.667h42.667c23.68 0 42.667-19.2 42.667-42.667V554.666l-88.747-255.573zm-529.92 426.24c-35.413 0-64-28.587-64-64s28.587-64 64-64 64 28.587 64 64-28.587 64-64 64zm469.334 0c-35.413 0-64-28.587-64-64s28.587-64 64-64 64 28.587 64 64-28.587 64-64 64zM298.666 512l64-192H832l64 192H298.666z"/></svg>