<svg viewBox="0 0 1195 1195" xmlns="http://www.w3.org/2000/svg"><path d="M597.333 64c-282.77 0-512 229.23-512 512s229.23 512 512 512 512-229.23 512-512-229.23-512-512-512zm0 960.002c-62.958 0-122.872-13.012-177.23-36.452l233.148-262.29a32.003 32.003 0 0 0 8.082-21.26v-96c0-17.674-14.326-32-32-32-112.99 0-232.204-117.462-233.374-118.626A31.994 31.994 0 0 0 373.333 448h-128c-17.672 0-32 14.328-32 32v192a31.998 31.998 0 0 0 17.69 28.622l110.31 55.156v187.886c-116.052-80.956-192-215.432-192-367.664 0-68.714 15.49-133.806 43.138-192h116.862a32.005 32.005 0 0 0 22.628-9.372l128-128c6-6.002 9.372-14.14 9.372-22.628v-77.412c40.562-12.074 83.518-18.588 128-18.588 70.406 0 137.004 16.26 196.282 45.2-4.144 3.502-8.176 7.164-12.046 11.036C745.303 220.5 725.333 268.714 725.333 320s19.97 99.5 56.236 135.764c36.434 36.432 85.218 56.264 135.634 56.26 3.166 0 6.342-.08 9.518-.236 13.814 51.802 38.752 186.656-8.404 372.334-.444 1.744-.696 3.488-.842 5.224-81.324 83.08-194.7 134.656-320.142 134.656z"/></svg>