<svg viewBox="0 0 1195 1195" xmlns="http://www.w3.org/2000/svg"><path d="M981.333 512h16c26.4 0 48-21.6 48-48V304c0-26.4-21.6-48-48-48h-16V64h-128v192h-16c-26.4 0-48 21.6-48 48v160c0 26.4 21.6 48 48 48h16v576h128V512zm-128-192h128v128h-128V320zm-176 576c26.4 0 48-21.6 48-48V688c0-26.4-21.6-48-48-48h-16V64h-128v576h-16c-26.4 0-48 21.6-48 48v160c0 26.4 21.6 48 48 48h16v192h128V896h16zm-144-192h128v128h-128V704zm-176-192c26.4 0 48-21.6 48-48V304c0-26.4-21.6-48-48-48h-16V64h-128v192h-16c-26.4 0-48 21.6-48 48v160c0 26.4 21.6 48 48 48h16v576h128V512h16zm-144-192h128v128h-128V320z"/></svg>