<svg viewBox="0 0 1195 1195" xmlns="http://www.w3.org/2000/svg"><path d="M533.333 192v-16c0-26.4-21.6-48-48-48h-160c-26.4 0-48 21.6-48 48v16h-192v128h192v16c0 26.4 21.6 48 48 48h160c26.4 0 48-21.6 48-48v-16h576V192h-576zm-192 128V192h128v128h-128zm576 176c0-26.4-21.6-48-48-48h-160c-26.4 0-48 21.6-48 48v16h-576v128h576v16c0 26.4 21.6 48 48 48h160c26.4 0 48-21.6 48-48v-16h192V512h-192v-16zm-192 144V512h128v128h-128zm-192 176c0-26.4-21.6-48-48-48h-160c-26.4 0-48 21.6-48 48v16h-192v128h192v16c0 26.4 21.6 48 48 48h160c26.4 0 48-21.6 48-48v-16h576V832h-576v-16zm-192 144V832h128v128h-128z"/></svg>