<svg viewBox="0 0 1195 1195" xmlns="http://www.w3.org/2000/svg"><path d="M482.56 810.666l104.107-104.107 104.107 104.107 45.227-45.227-104.107-104.107 104.107-104.107-45.227-45.227-104.107 104.107L482.56 511.998l-45.227 45.227L541.44 661.332 437.333 765.439l45.227 45.227zM896 213.333h-42.667V128H768v85.333H426.667V128h-85.333v85.333h-42.667c-47.147 0-84.907 38.187-84.907 85.333l-.427 597.333c0 47.147 38.187 85.333 85.333 85.333H896c47.147 0 85.333-38.187 85.333-85.333V298.666c0-47.147-38.187-85.333-85.333-85.333zM896 896H298.667V426.667H896V896z"/></svg>