<svg viewBox="0 0 1195 1195" xmlns="http://www.w3.org/2000/svg"><path d="M597.333 256c-223.318 0-416.882 130.042-512 320 95.118 189.958 288.682 320 512 320 223.312 0 416.876-130.042 512-320-95.116-189.958-288.688-320-512-320zm252.45 169.704C909.945 464.078 960.925 515.478 999.217 576c-38.292 60.522-89.274 111.922-149.436 150.296C774.187 774.514 686.891 800 597.333 800c-89.56 0-176.858-25.486-252.452-73.704C284.723 687.924 233.743 636.524 195.45 576c38.292-60.524 89.274-111.924 149.434-150.296 3.918-2.5 7.876-4.922 11.86-7.3-9.96 27.328-15.41 56.822-15.41 87.596 0 141.382 114.616 256 256 256 141.382 0 256-114.618 256-256 0-30.774-5.452-60.268-15.408-87.598a481.379 481.379 0 0 1 11.858 7.302zM597.333 480c0 53.02-42.98 96-96 96s-96-42.98-96-96 42.98-96 96-96 96 42.982 96 96z"/></svg>