<svg viewBox="0 0 1195 1195" xmlns="http://www.w3.org/2000/svg"><path d="M502.395 418.542c-7.208-6.792-15.582-12.168-25.082-16.124-9.624-3.876-19.876-5.876-30.75-5.876-10.918 0-21.168 2-30.75 5.876-9.5 3.958-17.876 9.334-25.084 16.124-7.166 6.832-12.792 14.832-16.918 24.082-4.084 9.21-6.124 18.958-6.124 29.168 0 10.25 2.04 20 6.124 29.208 4.126 9.208 9.752 17.25 16.918 24.042 7.208 6.832 15.584 12.25 25.084 16.124 9.582 3.958 19.832 5.916 30.75 5.916 10.876 0 21.124-1.958 30.75-5.916 9.5-3.876 17.876-9.292 25.082-16.124 7.168-6.792 12.792-14.834 16.832-24.042 4.084-9.208 6.21-18.958 6.21-29.208 0-10.208-2.126-19.958-6.21-29.168-4.04-9.25-9.664-17.25-16.832-24.082zm-30.708 77.332c-6.876 6.834-15.25 10.252-25.124 10.252s-18.25-3.418-25.124-10.252c-6.792-6.832-10.25-14.832-10.25-24.082 0-9.5 3.458-17.666 10.25-24.292 6.876-6.666 15.25-9.958 25.124-9.958s18.25 3.292 25.124 9.958c6.748 6.624 10.208 14.792 10.208 24.292 0 9.25-3.46 17.25-10.208 24.082zm355.29-30.208v-63H583.813v352.792h70.126V611.582h147.958v-62.958H653.94v-82.958h173.038z"/></svg>