<svg viewBox="0 0 1195 1195" xmlns="http://www.w3.org/2000/svg"><path d="M469.333 576c0-70.692 57.308-128 128-128s128 57.308 128 128c0 70.692-57.308 128-128 128s-128-57.308-128-128zm280.348-281.474C849.533 348.684 917.333 454.424 917.333 576s-67.8 227.316-167.652 281.474c44.066-70.126 71.652-170.27 71.652-281.474s-27.586-211.348-71.652-281.474zM373.333 576c0 111.204 27.584 211.348 71.652 281.474C345.133 803.314 277.333 697.576 277.333 576s67.8-227.314 167.652-281.474c-44.068 70.126-71.652 170.27-71.652 281.474zm-192 0c0 171.9 54.404 326.184 140.652 431.722C179.683 916.774 85.333 757.408 85.333 576s94.35-340.774 236.652-431.722C235.737 249.816 181.333 404.1 181.333 576zm691.352-431.72c142.298 90.946 236.648 250.312 236.648 431.72s-94.35 340.774-236.648 431.72C958.93 902.184 1013.333 747.9 1013.333 576S958.93 249.816 872.685 144.28z"/></svg>