<svg viewBox="0 0 1195 1195" xmlns="http://www.w3.org/2000/svg"><path d="M662.581 663.072v105.376h127.872V896.32H662.581v127.872H532.757V896.32h-127.84V768.448h127.84v-105.76c-109.92-28.64-191.136-128.288-191.136-247.136 0-141.216 114.496-255.712 255.712-255.712 141.248 0 255.68 114.496 255.68 255.712 0 119.328-79.872 219.264-190.432 247.52zm-65.248-375.36c-70.624 0-127.872 57.216-127.872 127.84 0 70.592 57.248 127.84 127.872 127.84s127.872-57.248 127.872-127.84c0-70.624-57.248-127.84-127.872-127.84z"/></svg>