<svg viewBox="0 0 1195 1195" xmlns="http://www.w3.org/2000/svg"><path d="M452.895 64C209.537 64 85.333 204.162 85.333 465.856v549.034l238.39-238.628V497.366c0-108.416 28.73-177.406 125.118-192.894 33.672-6.584 103.75-4.278 148.306-4.278V465.79c0 1.51.208 4.206.594 5.586 1.87 6.704 7.93 11.616 15.116 11.63 4.062.008 7.868-2.104 11.79-5.97L1037.77 64.062 452.895 64zm418.048 311.746v278.89c0 108.414-28.736 177.414-125.116 192.894-33.672 6.582-103.756 4.278-148.312 4.278V686.214c0-1.5-.206-4.204-.594-5.582-1.864-6.712-7.922-11.622-15.112-11.63-4.064-.008-7.866 2.112-11.79 5.966l-413.124 412.966 584.874.066c243.354 0 367.564-140.168 367.564-401.852V137.12l-238.39 238.626z"/></svg>