<svg viewBox="0 0 1195 1195" xmlns="http://www.w3.org/2000/svg"><path d="M648.533 758.989V367.411c42.24-19.456 71.68-61.85 71.68-111.411 0-67.891-54.989-122.88-122.88-122.88S474.453 188.109 474.453 256c0 49.51 29.491 91.955 71.68 111.411V759.04c-42.24 19.405-71.68 61.85-71.68 111.36 0 67.891 54.99 122.88 122.88 122.88s122.88-55.04 122.88-122.88c0-49.51-29.44-91.955-71.68-111.411zm-51.2-573.901c39.117 0 70.861 31.693 70.861 70.912 0 39.117-31.744 70.912-70.86 70.912-39.169 0-70.862-31.795-70.862-70.912 0-39.219 31.693-70.912 70.861-70.912zm0 756.224c-39.219 0-70.912-31.795-70.912-70.912 0-39.219 31.693-70.912 70.912-70.912 39.117 0 70.861 31.693 70.861 70.912 0 39.117-31.744 70.912-70.86 70.912z"/></svg>