<svg viewBox="0 0 1195 1195" xmlns="http://www.w3.org/2000/svg"><path d="M925.013 256c0-67.891-54.989-122.88-122.88-122.88S679.253 188.109 679.253 256c0 49.203 29.082 91.341 70.861 110.95-4.198 81.101-65.024 108.646-170.752 148.275-44.544 16.742-93.645 35.277-135.629 63.181V367.411c42.24-19.456 71.68-61.901 71.68-111.411 0-67.891-54.989-122.88-122.88-122.88S269.653 188.109 269.653 256c0 49.51 29.491 91.955 71.68 111.411V759.04c-42.24 19.405-71.68 61.85-71.68 111.36 0 67.891 54.99 122.88 122.88 122.88s122.88-55.04 122.88-122.88c0-49.203-29.082-91.341-70.86-110.95 4.197-81.05 65.074-108.646 170.751-148.275 103.936-39.014 232.5-87.603 237.568-243.507 42.445-19.354 72.141-61.952 72.141-111.667zm-532.48-70.912c39.117 0 70.861 31.693 70.861 70.912 0 39.117-31.744 70.912-70.86 70.912-39.169 0-70.862-31.795-70.862-70.912 0-39.219 31.693-70.912 70.861-70.912zm0 756.224c-39.219 0-70.912-31.795-70.912-70.912 0-39.219 31.693-70.912 70.912-70.912 39.117 0 70.861 31.693 70.861 70.912 0 39.117-31.744 70.912-70.86 70.912zm409.6-614.4c-39.219 0-70.912-31.795-70.912-70.912 0-39.219 31.693-70.912 70.912-70.912 39.117 0 70.861 31.693 70.861 70.912 0 39.117-31.744 70.912-70.86 70.912z"/></svg>