<svg viewBox="0 0 1195 1195" xmlns="http://www.w3.org/2000/svg"><path d="M856.85 384c18.125-12.88 35.511-27.216 51.443-43.148 33.402-33.402 55.746-74.5 62.912-115.722 7.858-45.186-3.672-87.14-31.63-115.1-22.3-22.298-52.51-34.086-87.364-34.086-49.632 0-101.922 23.824-143.46 65.362-66.476 66.476-105.226 158.238-126.076 223.722-15.44-65.802-46.206-154.644-106.018-214.458C444.563 118.478 403.543 102 364.811 102c-31.654 0-61.78 11.004-84.26 33.486-49.986 49.988-43.232 137.786 15.086 196.104 20.792 20.792 45.098 38.062 70.72 52.412H149.333v256h64v448h768V640h64V384H856.85zm-97.19-191.782c27.723-27.724 62.321-44.274 92.55-44.274 10.7 0 25.707 2.254 36.45 12.998 26.03 26.028 11.411 86.308-31.28 128.998-43.947 43.946-103.06 74.168-154.433 94.06h-50.672c18.568-57.548 52.058-136.456 107.384-191.782zM319.266 224.89c-.702-9.12-.05-26.248 12.196-38.494C341.707 176.152 355.251 174 364.811 174c21.258 0 43.468 10.016 60.932 27.48 33.872 33.872 61.766 87.772 80.668 155.876.51 1.84 1.008 3.67 1.496 5.486a574.213 574.213 0 0 1-5.486-1.496c-68.104-18.904-122.002-46.798-155.874-80.67-15.828-15.826-25.77-36.16-27.28-55.786zM533.333 1024h-256V608h256v416zm0-448h-320V448h320v128zm384 448h-256V608h256v416zm64-448h-320V448h320v128z"/></svg>