<svg viewBox="0 0 1195 1195" xmlns="http://www.w3.org/2000/svg"><path d="M644.4 128H376.46c-120.12 0-233.17 91.006-233.17 196.422 0 107.726 81.881 194.666 204.087 194.666 8.498 0 16.756-.17 24.842-.752-7.93 15.186-13.602 32.288-13.602 50.042 0 29.938 16.104 54.21 36.468 74.024-15.386 0-30.242.448-46.452.448-148.782-.002-263.3 94.758-263.3 193.02 0 96.778 125.542 157.314 274.334 157.314 169.624 0 263.306-96.244 263.306-193.028 0-77.6-22.896-124.072-93.686-174.134-24.216-17.144-70.53-58.836-70.53-83.344 0-28.72 8.196-42.868 51.428-76.646 44.312-34.624 75.672-83.302 75.672-139.916 0-67.406-30.02-133.098-86.372-154.772h84.954L644.4 128zm-93.587 655.458c2.126 8.972 3.284 18.206 3.284 27.628 0 78.2-50.392 139.31-194.974 139.31-102.842 0-177.116-65.104-177.116-143.3 0-76.642 92.126-140.444 194.964-139.332 24 .254 46.368 4.116 66.67 10.69 55.826 38.826 95.876 60.762 107.172 105.004zM386.151 491.776c-69.038-2.064-134.636-77.226-146.552-167.86-11.916-90.666 34.37-160.042 103.388-157.99 69.01 2.074 134.638 74.814 146.558 165.458 11.906 90.66-34.39 162.458-103.394 160.392zM917.333 320V128h-64v192h-192v64h192v192h64V384h192v-64z"/></svg>