<svg viewBox="0 0 1195 1195" xmlns="http://www.w3.org/2000/svg"><path d="M1095.507 979.75L546.873 480.292l25.534-25.598c20.894-20.954 32.188-48.03 33.918-75.61 1.002-.45 2.002-.912 2.958-1.442l102.99-64.402c13.934-16.392 12.916-42.268-2.284-57.502L530.87 76.13c-15.19-15.234-40.998-16.262-57.344-2.284L409.29 177.114c-.526.966-.99 1.966-1.44 2.974-27.502 1.736-54.5 13.056-75.398 34.006l-97.428 97.702c-20.898 20.956-32.184 48.026-33.918 75.604-1.004.45-2.004.916-2.964 1.446L95.155 453.252c-13.942 16.39-12.916 42.264 2.276 57.496l179.12 179.604c15.194 15.238 40.996 16.262 57.35 2.286l64.228-103.27c.528-.958.988-1.96 1.442-2.966 27.502-1.738 54.504-13.05 75.398-34.004l28.292-28.372 498.122 550.114c14.436 15.944 36.7 18.518 49.474 5.712l50.356-50.488c12.764-12.808 10.196-35.132-5.706-49.614z"/></svg>