<svg viewBox="0 0 1195 1195" xmlns="http://www.w3.org/2000/svg"><path d="M373.333 640h-64v448h64c17.6 0 32-14.4 32-32V672c0-17.6-14.4-32-32-32zm448 0c-17.602 0-32 14.4-32 32v384c0 17.6 14.398 32 32 32h64V640h-64zm288-64c0-282.77-229.23-512-512-512s-512 229.23-512 512c0 61.412 10.83 120.29 30.656 174.848C96.511 784.054 85.333 822.718 85.333 864c0 112.846 83.448 206.188 192 221.716V642.298a222.63 222.63 0 0 0-87.754 32.378A417.595 417.595 0 0 1 181.333 592c0-229.75 186.25-416 416-416s416 186.25 416 416c0 28.314-2.83 55.968-8.22 82.696-26.1-16.546-55.854-27.848-87.78-32.418v443.44c108.548-15.532 192-108.874 192-221.714 0-41.274-11.178-79.934-30.648-113.138 19.828-54.566 30.648-113.452 30.648-174.866z"/></svg>