<svg viewBox="0 0 1195 1195" xmlns="http://www.w3.org/2000/svg"><path d="M816.762 658.286h174.286q-2.857 3.429-5.714 6t-5.143 4.286l-1.714 2.286-356 342.857q-10.286 10.286-25.143 10.286t-25.143-10.286l-356.57-344q-2.858-1.143-12-11.429h210.856q12.571 0 22.571-7.714t12.857-19.714l40-160.571L598.476 851.43q3.43 11.429 13.143 18.857t22.286 7.429q12 0 21.714-7.429t13.143-18.857l83.43-277.143 32 64q10.285 20 32.57 20zm292.571-244.572q0 82.857-58.857 171.429H839.62L776.19 458.857q-4.57-9.714-14.57-15.429t-20.858-4.571q-25.714 2.857-32 26.286l-73.714 245.714-112-392Q519.62 307.428 509.62 300t-22.57-7.429-22.287 7.714-12.57 19.714l-66.287 265.143H144.191q-58.857-88.571-58.857-171.429 0-125.714 72.571-196.571t200.571-70.857q35.43 0 72.286 12.286t68.571 33.143 54.571 39.143 43.43 38.857q20.57-20.571 43.428-38.857t54.571-39.143 68.571-33.143 72.286-12.286q128 0 200.571 70.857t72.571 196.571z"/></svg>