<svg viewBox="0 0 1195 1195" xmlns="http://www.w3.org/2000/svg"><path d="M869.321 816.012c-64.104 0-124.372-24.96-169.7-70.288L597.333 643.442l-102.276 102.27c-45.332 45.336-105.6 70.3-169.706 70.3-64.118 0-124.39-24.964-169.722-70.3C110.297 700.378 85.333 640.108 85.333 576s24.964-124.38 70.296-169.714c45.334-45.332 105.608-70.296 169.714-70.296 64.108 0 124.38 24.964 169.712 70.296l102.278 102.276L699.61 406.286c45.332-45.332 105.604-70.298 169.712-70.298 64.112 0 124.384 24.966 169.71 70.298 45.338 45.334 70.302 105.606 70.302 169.714 0 64.112-24.964 124.382-70.3 169.71-45.326 45.336-105.598 70.302-169.712 70.302zM767.053 678.288c27.322 27.31 63.64 42.354 102.268 42.352 38.634 0 74.958-15.044 102.276-42.362 27.316-27.322 42.364-63.644 42.364-102.278s-15.046-74.956-42.364-102.274c-27.32-27.318-63.64-42.364-102.276-42.364-38.632 0-74.956 15.044-102.278 42.364L664.775 576l102.278 102.288zM325.345 431.362c-38.634 0-74.956 15.044-102.274 42.364-27.32 27.318-42.364 63.64-42.364 102.274 0 38.632 15.044 74.954 42.364 102.276 27.32 27.316 63.642 42.364 102.274 42.364 38.634 0 74.956-15.044 102.272-42.362L529.893 576 427.617 473.726c-27.318-27.32-63.64-42.366-102.272-42.364z"/></svg>