<svg viewBox="0 0 1195 1195" xmlns="http://www.w3.org/2000/svg"><path d="M858.453 358.624c12.096 12.064 12.096 31.648 0 43.744-12.096 12.064-21.92 21.888-21.92 21.888l21.92 21.888c24.16 24.16 24.16 63.328 0 87.52L530.293 861.76c-24.192 24.192-63.36 24.192-87.52 0l-21.888-21.888-87.488 87.552 43.744 43.744c12.096 12.064 12.096 31.616 0 43.744-12.096 12.064-31.68 12.064-43.744 0L158.357 839.84c-12.064-12.064-12.064-31.616 0-43.744 12.096-12.064 31.68-12.064 43.744 0l43.744 43.744 87.52-87.488-21.888-21.888c-24.192-24.128-24.192-63.328 0-87.488L639.67 314.848c24.192-24.192 63.328-24.192 87.488 0l21.888 21.888 21.888-21.888c12.096-12.096 31.68-12.096 43.744 0l10.944 10.944 175.04-175.04v43.744L847.51 347.648l10.944 10.976zm-153.152-21.888c-12.064-12.096-31.648-12.096-43.744 0l-65.632 65.632 43.744 43.744L617.781 468l-43.744-43.744-65.632 65.632 43.744 43.776-21.888 21.888-43.776-43.776-21.888 21.888 87.52 87.488-21.888 21.888-87.52-87.488-65.568 65.568 87.488 87.488-21.888 21.888-87.488-87.488-21.888 21.888c-12.096 12.064-12.096 31.68 0 43.744L464.63 839.904c12.096 12.128 31.68 12.128 43.776 0l328.128-328.128c12.128-12.064 12.128-31.648 0-43.744L705.301 336.736zm-87.488 43.744l21.888-21.888 87.488 87.488-21.888 21.888-87.488-87.488zm0 175.008l-87.488-87.52 21.888-21.888 87.488 87.52-21.888 21.888zM399.03 599.264l21.888-21.888 43.744 43.744-21.888 21.888-43.744-43.744zm644.448-234.912c0 23.2-18.816 41.984-41.984 41.984-23.232 0-42.016-18.816-42.016-41.984 0-23.232 42.016-86.656 42.016-86.656s41.984 63.456 41.984 86.656z"/></svg>