<svg viewBox="0 0 1195 1195" xmlns="http://www.w3.org/2000/svg"><path d="M939.333 64h-684c-93.5 0-170 76.5-170 170v684c0 93.5 76.5 170 170 170h684c93.5 0 170-76.5 170-170V234c0-93.5-76.5-170-170-170zm-526.2 448h368.4c6.988 20.058 10.8 41.59 10.8 64 0 107.524-87.476 195-195 195s-195-87.476-195-195c0-22.41 3.812-43.942 10.8-64zm568.2.05V896c0 35.2-28.8 64-64 64h-640c-35.2 0-64-28.8-64-64V512h100.108a290.86 290.86 0 0 0-7.108 64c0 160.458 130.542 291 291 291s291-130.542 291-291a290.74 290.74 0 0 0-7.108-64l100.108.05zm0-224.05c0 17.6-14.4 32-32 32h-64c-17.6 0-32-14.4-32-32v-64c0-17.6 14.4-32 32-32h64c17.6 0 32 14.4 32 32v64z"/></svg>