<svg viewBox="0 0 1195 1195" xmlns="http://www.w3.org/2000/svg"><path d="M351.337 340.678c32.832-32.844 86.002-32.844 118.804-.032l7.826 7.868 101.104-101.156-7.874-7.88c-57.624-57.7-138.514-77.878-212.42-60.522C348.183 113.774 291.69 64.032 223.603 64c-75.65 0-136.954 61.442-136.97 137.158 0 65.336 45.59 120 106.662 133.83-23.138 77.45-4.242 164.834 56.846 225.984l227.826 227.9 100.996-101.214-227.81-227.886c-32.682-32.722-32.742-86.126.184-119.094zm756.708-139.52C1108.061 125.396 1046.727 64 971.061 64c-69.234 0-126.478 51.444-135.682 118.238-77.074-22.664-163.784-3.496-224.64 57.408l-227.84 227.9 101.102 101.172 227.766-227.856c32.94-32.966 85.988-32.906 118.684-.184 32.8 32.83 32.8 86.114-.032 118.956l-7.794 7.836 101.01 101.248 7.858-7.928c60.458-60.566 79.678-146.756 57.612-223.638 67.15-8.834 118.94-66.364 118.94-135.994zM991.6 815.064c18.102-74.458-1.976-156.324-60.108-214.5l-227.49-227.992L602.9 473.694l227.52 228.012c32.94 32.996 32.864 86.096.184 118.848-32.802 32.814-86.004 32.814-118.836-.03l-7.766-7.79L603.007 913.98l7.732 7.728c61.516 61.594 149.618 80.438 227.368 56.488C850.74 1040.878 906.041 1088 972.365 1088c75.604 0 136.968-61.35 136.968-137.126 0-69.2-51.18-126.456-117.734-135.81zm-293.922-222.38L470.141 820.676c-32.71 32.768-86.034 32.828-118.944-.124-32.818-32.904-32.832-86.098-.044-118.97l7.808-7.774-101.086-101.124-7.734 7.712c-58.76 58.802-78.56 141.834-59.45 216.982-60.398 14.26-105.358 68.634-105.358 133.496C85.317 1026.62 146.665 1088 222.315 1088c65.1-.032 119.588-45.418 133.54-106.382 74.702 18.552 156.998-1.304 215.344-59.756l227.49-227.96-101.012-101.218z"/></svg>