<svg viewBox="0 0 1195 1195" xmlns="http://www.w3.org/2000/svg"><path d="M379.047 756l46.286-170.857h-90.857l42.857 171.429q.571.571.571 1.714t.571 1.714q0-.571.286-2t.286-2zm66.286-244l20-73.143H298.476L316.762 512h128.571zm109.714 0h79.43l-20-73.143h-40zM811.62 756.572l44.571-171.429h-92.57L809.904 756q0 .571.286 2t.857 2q0-.571.286-1.714t.286-1.714zM875.047 512l18.857-73.143H724.19L743.62 512h131.428zm234.286 18.286v36.571q0 8-5.143 13.143t-13.143 5.143H969.333l-93.714 352q-4 13.714-17.714 13.714h-90.857q-13.714 0-17.714-13.714l-94.857-352H535.048l-95.429 352q-4 13.714-17.714 13.714h-90.857q-6.286 0-11.143-4t-6-9.714l-91.429-352H103.62q-8 0-13.143-5.143t-5.143-13.143v-36.571q0-8 5.143-13.143T103.62 512h100l-18.857-73.143H103.62q-8 0-13.143-5.143t-5.143-13.143V384q0-8 5.143-13.143t13.143-5.143h62.286l-50.857-196.571q-2.857-8.571 2.857-16 5.714-6.857 14.857-6.857h78.286q14.857 0 17.714 13.714l51.43 205.714h205.142L540.764 160q4-13.714 17.713-13.714h72q13.714 0 17.714 13.714l56 205.714h208.571L965.905 160q2.857-13.714 17.714-13.714h78.286q9.143 0 14.857 6.857 5.714 7.429 2.857 16l-52 196.571h63.43q8 0 13.142 5.143t5.143 13.143v36.571q0 8-5.143 13.143t-13.143 5.143h-82.857L988.762 512h102.286q8 0 13.143 5.143t5.143 13.143z"/></svg>