<svg viewBox="0 0 1195 1195" xmlns="http://www.w3.org/2000/svg"><path d="M532.047 689.143q-.57 1.714-7.143-.286t-18-6.571l-11.429-5.143q-25.143-11.429-49.714-28-4-2.857-23.429-18t-21.714-16.286q-38.286 58.857-76.57 103.429-46.287 54.286-60 62.857-2.287 1.143-11.144 2.286t-10.57 0q3.428-2.286 46.856-52.571 12-13.714 48.857-65.714t44.857-67.429q9.714-17.143 29.143-56.286t20.571-44.286q-4.57-.571-62.857 18.857-4.57 1.143-15.714 4.286t-19.714 5.429-9.714 2.857q-1.143 1.143-1.143 6t-.57 5.429q-2.858 5.714-17.715 8.571-13.143 4-26.857 0-10.286-2.286-16-12-2.286-3.429-2.857-13.143 3.43-1.143 14-2.857t16.857-3.429q33.143-9.143 60-18.286 57.143-20 58.286-20 5.714-1.143 24.571-11.143t25.143-12.286q5.143-1.714 12.286-4.571t8.286-3.143 3.43.286q1.142 6.857-.572 18.857 0 1.143-7.143 15.429t-15.143 30.571T449.764 532q-14.286 28.571-44 74.857l36.571 16q6.857 3.429 42.571 18.286t38.571 16q2.286.571 6 14.571t2.571 17.429zM414.904 411.429q1.714 8.571-2.286 16-6.857 13.143-28.57 21.714Q366.903 456 349.76 456q-14.857-1.714-28-14.857-8-8.571-10.286-23.429l.571-1.714q1.714 1.714 11.143 2.857t15.143 0 33.143-9.143q20.571-6.857 31.43-8 9.713 0 12 9.714zm398.858 73.714l36 129.714-79.429-24zM180.62 942.286L577.19 809.715V220.001L180.62 353.144v589.143zm709.143-181.143l58.286 17.714L844.62 403.428l-57.143-17.714L664.047 692l58.286 17.714 25.714-62.857L868.618 684zM602.333 211.429l327.43 105.143V99.429zm177.714 756l90.286 7.429-30.857 91.429-22.857-37.714q-74.286 47.429-157.714 61.714-33.143 6.857-52 6.857h-48q-45.143 0-114-22.286t-104.857-48.571q-4.57-4-4.57-9.143 0-4.571 2.856-7.714t7.43-3.143q2.285 0 10.285 4.286t17.43 9.429 11.713 6.286q41.714 21.143 91.143 35.143t90 14q54.286 0 95.43-8.286t89.713-28.857q8.571-4 17.43-8.857t19.428-10.857 16.286-9.429zm256-616.572v616.571L593.761 826.857q-8 3.429-214.286 72.857T169.19 969.143q-7.429 0-10.286-7.429 0-.571-.57-1.714V344q1.713-5.143 2.285-5.714 2.857-3.429 11.43-6.286 60.57-20 85.142-28.571V84l318.857 113.143q1.143 0 91.714-31.429t180.571-62 92.286-30.571q11.43 0 11.43 12V324z"/></svg>