<svg viewBox="0 0 1195 1195" xmlns="http://www.w3.org/2000/svg"><path d="M1109.333 333.666c0-98.292-80-178.248-178.334-178.248-4.792 0-9.542.166-14.292.54C870.457 98.292 800.751 64 725.333 64c-75.376 0-145.124 34.292-191.376 91.958-4.75-.374-9.542-.54-14.376-.54-98.248 0-178.248 79.958-178.248 178.248 0 10.292 1.376 20.25 3 30.084-1.084 1.416-2.376 2.708-3.416 4.166a221.881 221.881 0 0 0-31.584-2.25c-123.5 0-224 100.5-224 224 0 123.502 100.5 224 224 224 27.376 0 54.168-4.998 79.418-14.666 36.708 32 80.208 53.876 126.414 66.416L469.333 896l64 64-64 128 192-128-64-64 9.624-19.166c73.5-2.25 143.5-29.458 198.958-77.834 25.25 9.668 52.042 14.666 79.418 14.666 123.5 0 224-100.498 224-224 0-51.332-18.084-98.166-47.332-136 29.164-31.75 47.332-73.624 47.332-120z"/></svg>