<svg viewBox="0 0 1195 1195" xmlns="http://www.w3.org/2000/svg"><path d="M469.333 832l64 64-64 192 192-192-64-64 64-128-192 128zm640-498.334c0-98.292-80-178.248-178.334-178.248-4.792 0-9.542.166-14.292.54C870.457 98.292 800.751 64 725.333 64c-75.376 0-145.124 34.292-191.376 91.958-4.75-.374-9.542-.54-14.376-.54-98.248 0-178.248 79.958-178.248 178.248 0 10.292 1.376 20.25 3 30.084-1.084 1.416-2.376 2.708-3.416 4.166a221.881 221.881 0 0 0-31.584-2.25c-123.5 0-224 100.5-224 224 0 123.502 100.5 224 224 224 27.376 0 54.168-4.998 79.418-14.666 2.208 1.918 4.832 3.25 7.082 5.124l56.624-37.75c-18.876-13.376-36.5-28.25-51.25-46-26 18.292-57.624 29.292-91.876 29.292-88.376 0-160-71.582-160-160 0-88.334 71.624-160 160-160 21.624 0 42.124 4.418 60.876 12.166 1.124-2.166 2.5-4 3.624-6.084a260.414 260.414 0 0 1 41.332-56.084c46.168-47.792 110.334-78 182.168-78 99.418 0 184.668 57.334 227.082 140.166 11.292-4.666 23.336-7.666 35.75-9.666l25.168-2.5c24.668 0 47.75 6.084 68.624 16 22.624 10.834 42.042 26.75 57.292 46.416 21 27.042 34.084 60.668 34.084 97.584 0 88.418-71.624 160-160 160-34.25 0-65.832-11-91.876-29.292-28 33.75-64.876 59.124-106.292 75.124l-11.958 23.876 36.5 36.5c34.124-13.292 66.042-32.376 94.208-56.876 25.25 9.668 52.042 14.666 79.418 14.666 123.5 0 224-100.498 224-224 0-51.332-18.084-98.166-47.332-136 29.166-31.746 47.334-73.62 47.334-119.996zm-92.876 75.25c-36.958-26.876-82-43.25-131.124-43.25-10.624 0-21.124.75-31.584 2.25-59.748-81.374-154.04-130.25-256.416-130.25-68.25 0-132.624 22.124-185.876 60.708 14.958-45.706 57.458-78.956 108.124-78.956 15.5 0 30.124 3.124 43.5 8.666C593.457 168.916 654.333 128 725.333 128s131.916 40.916 162.168 100.084c13.458-5.542 28.166-8.666 43.498-8.666 63.168 0 114.334 51.166 114.334 114.248 0 29-11.124 55.126-28.876 75.25z"/></svg>