<svg viewBox="0 0 1195 1195" xmlns="http://www.w3.org/2000/svg"><path d="M341.333 256l-128-128h-64v64l128 128zm64-192h64v128h-64zm256 320h128v64h-128zm64-192v-64h-64l-128 128 64 64zm-640 192h128v64h-128zm320 256h64v128h-64zm-256 0v64h64l128-128-64-64zm946 306L459.215 309.882c-18.668-18.668-49.214-18.668-67.882 0L331.215 370c-18.668 18.668-18.668 49.214 0 67.882L967.333 1074c18.668 18.668 49.214 18.668 67.882 0l60.118-60.118c18.668-18.668 18.668-49.214 0-67.882zm-530-338l-192-192 64-64 192 192-64 64z"/></svg>