<svg viewBox="0 0 1195 1195" xmlns="http://www.w3.org/2000/svg"><path d="M816.762 91.429q0-8 5.143-13.143t13.143-5.143h237.714q14.857 0 25.714 10.857t10.857 25.714v237.714q0 8-5.143 13.143t-13.143 5.143h-36.57q-8 0-13.144-5.143t-5.143-13.143V197.714l-239.429 240q49.714 59.429 74 135.143t17.43 158q-12.572 142.857-114.572 246.286t-244.857 117.714q-93.143 9.714-179.429-22.571t-146.57-92.571-92.572-146.571-22.57-179.429q14.285-142.857 117.713-244.857T451.62 294.287q82.286-6.857 158 17.429t135.143 74l239.43-239.429H835.048q-8 0-13.143-5.143t-5.143-13.143V91.43zM487.62 1024q66.857 0 127.714-26t105.143-70.286 70.286-105.143 26-127.714-26-127.714T720.476 462t-105.143-70.286-127.714-26-127.714 26T254.762 462t-70.286 105.143-26 127.714 26 127.714 70.286 105.143T359.905 998t127.714 26z"/></svg>