<svg viewBox="0 0 1537 1537" xmlns="http://www.w3.org/2000/svg"><path d="M493.179 899.286h-7.429q-26.857 0-26.857 18.286 0 12.571 11.429 12.571 9.714 0 16-8.571t6.857-22.286zm225.714-20.572h35.429V877q.571-2.286.286-3.714t-.571-4-1.143-4.571-2.571-3.714-4.286-2.857-6.571-1.143q-16 0-20.571 21.714zm308.571 20.572h-6.857q-27.429 0-27.429 18.286 0 12.571 11.429 12.571 9.714 0 16-8.571t6.857-22.286zm182.286-14.857q0-23.429-17.143-23.429-10.857 0-17.714 11.429t-6.857 29.143q0 24 16 24 11.429 0 18.571-11.429t7.143-29.714zm-825.714-80.572h49.714l-25.143 149.714h-32l18.286-114.857-40.571 114.857h-22.286l-2.286-114.286-19.429 114.286h-30.286l25.143-149.714h46.286L352.607 897zM528.607 865q0 3.429-2.286 24-9.143 57.714-9.714 64.571H489.75l.571-12.571q-11.429 14.857-33.143 14.857-13.143 0-21.429-9.143t-8.286-24q0-22.286 14.857-34.571t41.714-12.286q8 0 13.143.571 0-1.714.286-3.143t.571-2.571.286-1.714q0-11.429-20.571-11.429-16.571 0-33.714 5.714 0-2.286 4-27.429 21.714-6.286 38.286-6.286 42.286 0 42.286 35.429zm89.143-33.143l-4.571 28q-12.571-1.714-23.429-1.714-15.429 0-15.429 9.714 0 4.571 2.571 6.857T589.178 881q22.857 10.857 22.857 34.286 0 41.143-49.714 40.571-19.429 0-33.143-3.429 0-1.143 4-28 16.571 4.571 29.143 4.571 18.286 0 18.286-10.857 0-4-2.571-6.571t-12.286-7.143q-24.571-11.429-24.571-33.714 0-41.143 48-41.143 17.143 0 28.571 2.286zm50.286 0h16l-4 29.714h-16.571q-1.143 9.714-3.714 23.143t-4 22T654.322 917q0 9.143 10.857 9.143 4.571 0 9.143-1.143l-4.571 26.857q-12 4-22.857 4-24.571 0-25.714-26.857 0-6.857 4.571-32 1.714-11.429 14.286-83.429h31.429zm116 41.715q0 13.143-4 29.714h-63.429q-1.714 12.571 5.714 18.857t21.714 6.286q17.143 0 33.143-8l-5.143 30.857q-17.143 4.571-32.571 4.571-54.286 0-54.286-54.286 0-31.429 15.714-51.714t39.714-20.286q20 0 31.714 12t11.714 32zm79.428-42.286q-7.429 13.143-12.571 35.429-12.571-1.143-17.714 13.714t-14.286 73.143h-32l1.714-8q12.571-74.286 16.571-113.714h29.143l-1.714 18.857q8-12 14.571-16.857t16.286-2.571zm106.857-23.429l-5.143 32.571q-16-8-28.571-8-17.714 0-29.143 15.714t-11.429 40.286q0 17.143 7.714 26.857t22 9.714q12 0 27.429-7.429l-5.714 33.714q-16 4.571-28.571 4.571-25.714 0-40.857-17.429t-15.143-47.143q0-40 20.286-65.429t52.286-25.429q14.857 0 34.857 7.429zM1062.893 865q0 10.286-2.286 24-7.429 45.143-9.714 64.571h-26.286l.571-12.571q-11.429 14.857-33.714 14.857-13.143 0-21.143-9.143t-8-24q0-22.286 14.571-34.571t41.429-12.286q8.571 0 13.143.571 1.143-4 1.143-7.429 0-11.429-20.571-11.429-16.571 0-33.714 5.714 0-2.286 4.571-27.429 21.714-6.286 38.286-6.286 41.714 0 41.714 35.429zm80.571-33.714q-8 13.714-12 35.429-13.143-1.143-18 13.143t-14.571 73.714h-32l1.714-8q10.857-59.429 16.571-113.714h29.714q0 6.286-2.286 18.857 8.571-12 15.143-16.857t15.714-2.571zm80.572-27.429h32l-24.571 149.714h-30.286l1.714-10.857q-13.143 13.143-29.714 13.143-17.714 0-28.286-13.714t-10.571-36.571q0-30.286 15.714-52.571t36.857-22.286q17.714 0 30.286 16.571zm63.428 74.286q0-84.571-41.429-156T1132.892 609t-156.286-41.714q-103.429 0-187.429 62.857 72.571 66.286 97.714 162.286H858.32q-25.143-85.714-90.286-144.571-65.143 58.857-90.286 144.571h-28.571q25.143-96 97.714-162.286-84-62.857-187.429-62.857-84.571 0-156.286 41.714T290.033 722.143t-41.429 156 41.429 156 113.143 113.143T559.462 1189q103.429 0 187.429-62.857-68.571-63.429-94.286-150.857h28.571q26.286 78.857 86.857 133.143 60.571-54.286 86.857-133.143h28.571q-25.714 87.429-94.286 150.857 84 62.857 187.429 62.857 84.571 0 156.286-41.714t113.143-113.143 41.429-156zm138.857-365.714v731.429q0 29.714-21.714 51.429t-51.429 21.714H182.892q-29.714 0-51.429-21.714t-21.714-51.429V512.429q0-29.714 21.714-51.429t51.429-21.714h1170.286q29.714 0 51.429 21.714t21.714 51.429z"/></svg>