<svg viewBox="0 0 1195 1195" xmlns="http://www.w3.org/2000/svg"><path d="M588.8 550.4c-96.853-25.173-128-50.987-128-91.52 0-46.507 42.88-79.147 115.2-79.147 75.947 0 104.107 36.267 106.667 89.6h94.293c-2.773-73.6-47.787-140.587-136.96-162.56v-93.44H512v92.16c-82.773 18.133-149.333 71.467-149.333 154.027 0 98.56 81.707 147.627 200.533 176.213 106.88 25.6 128 62.933 128 103.04 0 29.227-20.693 76.16-115.2 76.16-87.893 0-122.667-39.467-127.147-89.6h-94.08c5.333 93.44 75.093 145.707 157.227 163.413v92.587h128V889.6c82.987-16 149.333-64 149.333-151.68 0-120.747-103.68-162.133-200.533-187.52z"/></svg>