<svg viewBox="0 0 1537 1537" xmlns="http://www.w3.org/2000/svg"><path d="M1424.607 958.143q6.857 58.857-12.571 113.429t-56.571 93.429-90.571 60.571-112.286 17.714q-92-6.286-159.714-71.429t-76.857-156.571Q909.18 951.857 931.751 895t67.714-97.429l-40.571-61.143q-54.857 45.714-86.286 110.857t-31.429 139.429q0 15.429-10.571 26.571t-26 11.143H618.894q-13.143 93.714-85.143 156.571t-168 62.857q-105.714 0-180.857-75.143t-75.143-180.857 75.143-180.857 180.857-75.143q43.429 0 86.857 15.429l13.714-25.714q-70.286-62.857-173.714-62.857h-36.571q-14.857 0-25.714-10.857t-10.857-25.714 10.857-25.714 25.714-10.857h73.143q44.571 0 82.857 7.714t66.571 22 40.857 22.571 29.143 20.857h358.286l-48.571-73.143H731.466q-17.143 0-28-12.857t-8-30q2.286-13.143 13.143-21.714t24.571-8.571h144.571q18.857 0 30.286 16l40 60 65.143-65.143q10.857-10.857 26.286-10.857h57.714q14.857 0 25.714 10.857T1133.751 549v73.143q0 14.857-10.857 25.714t-25.714 10.857H994.894L1060.608 757q74.857-36 157.143-20.571 81.714 14.857 139.429 76.857t67.429 144.857zM365.75 1170.714q65.714 0 116-41.429t63.429-104.857H365.75q-20 0-31.429-17.714-10.286-18.286-.571-36l84-158.286q-26.857-7.429-52-7.429-75.429 0-129.143 53.714t-53.714 129.143 53.714 129.143 129.143 53.714zm804.571 0q75.429 0 129.143-53.714t53.714-129.143-53.714-129.143T1170.321 805q-34.286 0-69.143 13.714l99.429 148.571q8.571 13.143 5.714 28t-15.429 22.857q-8.571 6.286-20.571 6.286-20 0-30.286-16.571l-99.429-148.571q-53.143 54.286-53.143 128.571 0 75.429 53.714 129.143t129.143 53.714z"/></svg>