<svg viewBox="0 0 1195 1195" xmlns="http://www.w3.org/2000/svg"><path d="M597.333 426.666c-94.293 0-170.667 76.373-170.667 170.667S503.04 768 597.333 768 768 691.627 768 597.333s-76.373-170.667-170.667-170.667zm381.44 128C959.146 376.746 817.92 235.519 640 215.893V128h-85.333v87.893C376.747 235.52 235.52 376.746 215.894 554.666h-87.893v85.333h87.893c19.627 177.92 160.853 319.147 338.773 338.773v87.893H640v-87.893c177.92-19.627 319.147-160.853 338.773-338.773h87.893v-85.333h-87.893zM597.333 896c-164.907 0-298.667-133.76-298.667-298.667s133.76-298.667 298.667-298.667S896 432.426 896 597.333 762.24 896 597.333 896z"/></svg>