<svg viewBox="0 0 1195 1195" xmlns="http://www.w3.org/2000/svg"><path d="M917.333 448h-640c-70.656 0-128 57.344-128 128v64c0 47.25 25.844 88.062 64 110.25V960h256v128h256V960h256V750.25c38.125-22.188 64-62.938 64-110.25v-64c0-70.656-57.375-128-128-128zm-512 448h-128V640h-64v-64c0-35.312 28.688-64 64-64h81.72c-11 18.875-17.72 40.562-17.72 64v128c0 47.25 25.844 88.062 64 110.25V896zm320-128V640h-64v384h-128V640h-64v128c-35.312 0-64-28.625-64-64V576c0-35.312 28.688-64 64-64h256c35.375 0 64 28.688 64 64v128c0 35.375-28.625 64-64 64zm256-128h-64v256h-128v-81.75c38.125-22.188 64-62.938 64-110.25V576c0-23.438-6.75-45.125-17.75-64h81.75c35.375 0 64 28.688 64 64v64zM453.021 381.375C488.208 421.875 539.49 448 597.333 448c57.875 0 109.125-26.125 144.312-66.625C763.458 420.938 805.021 448 853.333 448c70.625 0 128-57.344 128-128s-57.375-128-128-128c-25.625 0-49.375 7.688-69.375 20.688C764.208 127.562 688.395 64 597.333 64s-166.906 63.562-186.625 148.688c-20.03-13-43.78-20.688-69.375-20.688-70.656 0-128 57.344-128 128s57.344 128 128 128c48.312 0 89.844-27.062 111.688-66.625zM853.333 256c35.375 0 64 28.594 64 64s-28.625 64-64 64c-35.312 0-64-28.594-64-64s28.688-64 64-64zm-256-128c70.625 0 128 57.344 128 128s-57.375 128-128 128c-70.656 0-128-57.344-128-128s57.344-128 128-128zm-256 256c-35.312 0-64-28.594-64-64s28.688-64 64-64c35.406 0 64 28.594 64 64s-28.594 64-64 64z"/></svg>