<svg viewBox="0 0 1195 1195" xmlns="http://www.w3.org/2000/svg"><path d="M567.547 342.857q0 34.286-10.857 64.857t-36 52.857-60 22.286q-43.429 0-78.857-32.857t-52.57-77.429-17.144-86.286q0-34.286 10.857-64.857t36-52.857 60-22.286q44 0 79.143 32.857t52.286 77.143 17.143 86.571zm-195.428 276q0 45.714-24 79.429t-68 33.714q-43.429 0-80.857-31.714T141.833 624t-20-86.857q0-45.714 24-79.714t68-34q43.43 0 80.857 31.714t57.43 76.571 20 87.143zm225.143-15.428q67.43 0 145.714 55.714t130.857 135.429 52.571 145.429q0 26.286-9.714 43.714t-27.714 25.714-36.857 11.429-43.429 3.143q-38.857 0-107.143-25.714t-104.286-25.714q-37.714 0-110 25.429t-114.57 25.429q-104.572 0-104.572-83.429 0-49.143 32-109.429t79.714-110 107.143-83.429 110.286-33.714zm136.571-120.572q-34.857 0-60-22.286t-36-52.857-10.857-64.857q0-42.286 17.143-86.571t52.286-77.143 79.143-32.857q34.857 0 60 22.286t36 52.857 10.857 64.857q0 41.714-17.143 86.286t-52.57 77.429-78.858 32.857zm246.857-59.428q44 0 68 34t24 79.714q0 42.286-20 86.857t-57.429 76.286T914.404 732q-44 0-68-33.714t-24-79.429q0-42.286 20-87.143t57.43-76.571 80.856-31.714z"/></svg>