<svg viewBox="0 0 1195 1195" xmlns="http://www.w3.org/2000/svg"><path d="M938.666 746.666c-53.12 0-104.533-8.533-152.32-24.32-14.72-4.693-31.573-1.28-43.307 10.453l-93.867 94.08c-120.96-61.44-219.52-160.213-281.173-280.96l93.867-94.293c11.733-11.733 15.147-28.587 10.453-43.307-15.787-47.787-24.32-99.2-24.32-152.32a42.52 42.52 0 0 0-42.667-42.667H256c-23.467 0-42.667 18.987-42.667 42.667 0 400.64 324.693 725.333 725.333 725.333a42.52 42.52 0 0 0 42.667-42.667V789.332a42.52 42.52 0 0 0-42.667-42.667zM597.333 213.333V640l128-128h256V213.333h-384z"/></svg>