<svg viewBox="0 0 1195 1195" xmlns="http://www.w3.org/2000/svg"><path d="M938.666 746.666c-53.12 0-104.533-8.533-152.32-24.32-14.72-4.693-31.573-1.28-43.307 10.453l-93.867 94.08c-120.96-61.44-219.52-160.213-281.173-280.96l93.867-94.08c11.733-11.733 15.147-28.587 10.453-43.307-15.787-48-24.32-99.413-24.32-152.533a42.52 42.52 0 0 0-42.667-42.667H256c-23.467 0-42.667 18.987-42.667 42.667 0 400.64 324.693 725.333 725.333 725.333a42.52 42.52 0 0 0 42.667-42.667V789.332a42.52 42.52 0 0 0-42.667-42.667zm0-490.666v-21.333C938.666 175.787 890.88 128 832 128s-106.667 47.787-106.667 106.667V256c-23.68 0-42.667 19.2-42.667 42.667v170.667c0 23.467 18.987 42.667 42.667 42.667h213.333c23.68 0 42.667-19.2 42.667-42.667V298.667c0-23.467-18.987-42.667-42.667-42.667zm-34.133 0H759.466v-21.333c0-40.107 32.427-72.533 72.533-72.533s72.533 32.427 72.533 72.533V256z"/></svg>