<svg viewBox="0 0 1195 1195" xmlns="http://www.w3.org/2000/svg"><path d="M526.523 728.422c-26.93 141.005-59.75 276.173-157.082 346.778-30.003-213.094 44.083-373.094 78.541-542.976-58.726-98.816 7.066-297.574 130.816-248.576 152.32 60.211-131.89 367.206 58.88 405.606 199.22 39.987 280.525-345.6 156.98-470.989-178.433-181.146-519.476-4.25-477.492 255.078 10.19 63.386 75.674 82.586 26.163 170.086-114.227-25.293-148.326-115.405-143.923-235.52 7.066-196.608 176.59-334.182 346.675-353.28 215.091-24.115 416.973 79.002 444.877 281.293 31.386 228.403-97.075 475.802-327.117 457.984-62.362-4.864-88.474-35.789-137.318-65.485z"/></svg>