<svg viewBox="0 0 1195 1195" xmlns="http://www.w3.org/2000/svg"><path d="M405.333 128h-256v256h256V128zm64-64v384h-384V64h384zm-256 128h128v128h-128zm832-64h-256v256h256V128zm64-64v384h-384V64h384zm-256 128h128v128h-128zm-448 576h-256v256h256V768zm64-64v384h-384V704h384zm-256 128h128v128h-128zm320-768h64v64h-64zm64 64h64v64h-64zm-64 64h64v64h-64zm64 64h64v64h-64zm-64 64h64v64h-64zm64 64h64v64h-64zm-64 64h64v64h-64zm0 128h64v64h-64zm64 64h64v64h-64zm-64 64h64v64h-64zm64 64h64v64h-64zm-64 64h64v64h-64zm64 64h64v64h-64zm-64 64h64v64h-64zm64 64h64v64h-64zm448-448h64v64h-64zm-896 0h64v64h-64zm64-64h64v64h-64zm-128 0h64v64h-64zm256 0h64v64h-64zm64 64h64v64h-64zm64-64h64v64h-64zm192 64h64v64h-64zm64-64h64v64h-64zm64 64h64v64h-64zm64-64h64v64h-64zm64 64h64v64h-64zm64-64h64v64h-64zm64 192h64v64h-64zm-384 0h64v64h-64zm64-64h64v64h-64zm64 64h64v64h-64zm128 0h64v64h-64zm64-64h64v64h-64zm64 192h64v64h-64zm-384 0h64v64h-64zm64-64h64v64h-64zm128 0h64v64h-64zm64 64h64v64h-64zm64-64h64v64h-64zm64 192h64v64h-64zm-320-64h64v64h-64zm64 64h64v64h-64zm64-64h64v64h-64zm64 64h64v64h-64zm-192 64h64v64h-64zm128 0h64v64h-64zm128 0h64v64h-64z"/></svg>