<svg viewBox="0 0 1195 1195" xmlns="http://www.w3.org/2000/svg"><path d="M533.333 768h128v128h-128zm256-448c35.346 0 64 28.654 64 64v192l-192 128h-128v-64l192-128v-64h-320V320h384zm-192-160c-111.118 0-215.584 43.272-294.156 121.844S181.333 464.882 181.333 576s43.272 215.584 121.844 294.156S486.215 992 597.333 992s215.584-43.272 294.156-121.844S1013.333 687.118 1013.333 576 970.061 360.416 891.49 281.844 708.451 160 597.333 160zm0-96c282.77 0 512 229.23 512 512s-229.23 512-512 512-512-229.23-512-512 229.23-512 512-512z"/></svg>