<svg viewBox="0 0 1195 1195" xmlns="http://www.w3.org/2000/svg"><path d="M885.333 192c-10.624 0-21.124.75-31.584 2.25C794.001 112.834 699.71 64 597.333 64S400.71 112.834 340.917 194.25c-10.46-1.5-20.96-2.25-31.584-2.25-123.5 0-224 100.5-224 224s100.5 224 224 224c27.376 0 54.168-5 79.418-14.666C446.665 675.834 520.333 704 597.333 704c77.084 0 150.666-28.166 208.582-78.666C831.165 635 857.957 640 885.333 640c123.5 0 224-100.5 224-224s-100.5-224-224-224zm-350 832c0 35.376 28.624 64 64 64s64-28.624 64-64-64-128-64-128-64 92.624-64 128zm254-64c0 35.376 28.624 64 64 64s64-28.624 64-64-64-128-64-128-64 92.624-64 128zm-512-128c0 35.376 28.624 64 64 64s64-28.624 64-64-64-128-64-128-64 92.624-64 128z"/></svg>