<svg viewBox="0 0 1195 1195" xmlns="http://www.w3.org/2000/svg"><path d="M885.333 256c-10.624 0-21.124.75-31.584 2.25C794.001 176.834 699.71 128 597.333 128S400.71 176.834 340.917 258.25c-10.46-1.5-20.96-2.25-31.584-2.25-123.5 0-224 100.5-224 224s100.5 224 224 224c27.376 0 54.168-5 79.418-14.666C446.665 739.834 520.333 768 597.333 768c77.084 0 150.666-28.166 208.582-78.666C831.165 699 857.957 704 885.333 704c123.5 0 224-100.5 224-224s-100.5-224-224-224zm0 384c-34.25 0-65.832-11-91.876-29.334C746.501 667.25 676.581 704 597.333 704c-79.25 0-149.168-36.75-196.124-93.334C375.21 629 343.583 640 309.333 640c-88.376 0-160-71.624-160-160s71.624-160 160-160c21.624 0 42.124 4.416 60.876 12.166C412.667 249.334 497.915 192 597.333 192s184.668 57.334 227.082 140.166C843.21 324.416 863.751 320 885.333 320c88.376 0 160 71.624 160 160s-71.624 160-160 160zm-352 320c0 35.376 28.624 64 64 64s64-28.624 64-64-64-128-64-128-64 92.624-64 128z"/></svg>