<svg viewBox="0 0 1195 1195" xmlns="http://www.w3.org/2000/svg"><path d="M680.762 474.857q0-50.286-34.286-69.143-18.857-10.286-66.857-10.286h-70.286v160.571h92.571q37.714 0 58.286-21.143t20.571-60zm29.714 162.857L827.62 850.857q4.571 9.714-.57 17.714-4.572 9.143-15.43 9.143h-86.857q-11.429 0-16-9.714L597.905 659.429h-88.57v200q0 8-5.144 13.143t-13.143 5.143h-76.57q-8 0-13.144-5.143t-5.143-13.143V310.858q0-8 5.143-13.143t13.143-5.143h168q73.143 0 108.571 13.714Q739.62 324 767.62 368.572t28 102.857q0 52.571-24.286 94.571t-66 62.571q3.43 5.714 5.143 9.143zM597.333 164.572q-85.714 0-163.429 33.429t-134 89.714-89.714 134-33.429 163.429 33.43 163.429 89.713 134 134 89.714 163.43 33.429 163.428-33.429 134-89.714 89.714-134 33.43-163.429-33.43-163.429-89.714-134-134-89.714-163.429-33.429zm512 420.571q0 104-40.57 198.857T959.618 947.429 796.19 1056.572t-198.857 40.571-198.857-40.571-163.429-109.143T125.904 784t-40.57-198.857 40.57-198.857 109.143-163.429 163.43-109.143 198.856-40.571 198.857 40.571 163.43 109.143 109.142 163.429 40.571 198.857z"/></svg>