<svg viewBox="0 0 1195 1195" xmlns="http://www.w3.org/2000/svg"><path d="M1096.746 796.586c-129.92-123.52-305.92-199.253-499.413-199.253S227.84 673.066 97.92 796.586c-7.893 7.68-12.587 18.56-12.587 30.293s4.693 22.4 12.587 30.08l105.6 105.6c7.68 7.68 18.347 12.587 30.08 12.587 11.52 0 22.187-4.693 29.867-12.16 33.92-31.36 72.107-58.027 113.707-78.933 14.08-7.04 23.893-21.547 23.893-38.4v-132.48c61.867-19.84 127.787-30.507 196.267-30.507s134.4 10.667 196.267 30.72v132.48c0 16.853 9.813 31.36 23.893 38.4 41.6 20.907 80 47.573 113.707 78.933 7.68 7.467 18.133 12.16 29.867 12.16s22.4-4.693 30.293-12.587l105.6-105.6c7.68-7.68 12.587-18.347 12.587-30.08-.213-11.947-4.907-22.827-12.8-30.507zM988.16 352.213l-60.373-60.373-151.893 151.893 60.373 60.373s147.2-150.187 151.893-151.893zM640 170.666h-85.333v213.333H640V170.666zm-281.6 333.44l60.373-60.373L266.88 291.84l-60.373 60.373C211.2 353.92 358.4 504.106 358.4 504.106z"/></svg>