<svg viewBox="0 0 1195 1195" xmlns="http://www.w3.org/2000/svg"><path d="M827.833 396q0-57.143-37.143-92.571T692.976 268H510.12v256h182.857q60.571 0 97.714-35.429T827.833 396zm135.43 0q0 110.286-72.287 180t-186.57 69.714H510.118v67.429H798.69q8 0 13.143 5.143t5.143 13.143v73.143q0 8-5.143 13.143t-13.143 5.143H510.12v109.714q0 8-5.43 13.143t-12.857 5.143h-95.429q-8 0-13.143-5.143t-5.143-13.143V822.858h-128q-8 0-13.143-5.143t-5.143-13.143v-73.143q0-8 5.143-13.143t13.143-5.143h128v-67.429h-128q-8 0-13.143-5.143t-5.143-13.143v-85.143q0-7.429 5.143-12.857t13.143-5.429h128V164.57q0-8 5.143-13.143t13.143-5.143h308q114.286 0 186.571 69.714t72.286 180z"/></svg>