<svg viewBox="0 0 1241 1241" xmlns="http://www.w3.org/2000/svg"><path d="M88.667 771.616L445.05 1128s85.088-201.952-34.656-321.696C291.963 687.872 88.667 771.616 88.667 771.616zm956 28.32L863.675 980.928l22.624 22.624L1067.29 822.56l-22.624-22.624zm90.496 45.248l-203.616-203.68c-24.992-24.928-65.568-24.928-90.496 0l-17.856 17.856-49.92-49.92 89.504-89.504c24.992-24.992 22.176-68.352-2.816-93.344L749.659 316.288c-24.992-24.992-65.504-24.992-90.496 0l-81.376 78.528-42.88-42.88 2.912-2.88c24.992-24.992 24.992-65.536 0-90.528L334.17 54.848c-24.992-24.992-65.504-24.992-90.528 0L107.899 190.624c-24.992 24.992-24.992 65.536 0 90.528L311.547 484.8c24.992 24.992 65.504 24.992 90.528 0l44.512-44.512 44.096 44.48-81.888 81.888c-24.992 24.992-15.552 164.096-15.552 164.096l55.136 55.136s139.072 9.44 164.064-15.552l70.848-70.816 49.92 49.92-27.968 27.968c-24.992 24.992-24.992 65.504 0 90.496l203.68 203.616c24.992 24.992 65.504 24.992 90.496 0l135.744-135.744c24.992-25.088 24.992-65.6 0-90.592zM130.523 213.248L266.299 77.472c12.48-12.512 32.736-12.512 45.248 0L130.523 258.496c-12.512-12.48-12.512-32.768 0-45.248zm22.624 67.872L334.17 100.096l22.624 22.624L175.77 303.744l-22.624-22.624zm45.248 45.248l181.024-181.024L402.043 168 221.05 348.992l-22.656-22.624zm45.28 45.28l180.992-181.024 22.656 22.624-181.024 181.024-22.624-22.624zm45.248 45.248l181.024-181.024 22.624 22.624L311.547 439.52l-22.624-22.624zm90.496 45.248c-12.48 12.512-32.736 12.512-45.248 0L515.195 281.12c12.512 12.512 12.512 32.768 0 45.248L379.419 462.144zm90.304 169.792l-16.96-16.992 233.92-233.92 16.992 16.96-233.952 233.952zm258.144 168l135.808-135.808c12.512-12.448 32.736-12.448 45.248 0L727.867 845.184c-12.512-12.512-12.512-32.736 0-45.248zm384.672 113.12L976.795 1048.8c-12.512 12.512-32.736 12.512-45.248 0L795.77 913.024l180.992-180.992-22.624-22.624L773.083 890.4l-22.624-22.624L931.515 686.72l180.992 181.056c12.544 12.544 12.544 32.8.032 45.28zm-22.624-67.872l-180.992 180.992 22.624 22.624 180.992-180.992-22.624-22.624zm-90.496-90.496L818.427 935.68l22.624 22.624 180.992-180.992-22.624-22.624z"/></svg>