<svg viewBox="0 0 1195 1195" xmlns="http://www.w3.org/2000/svg"><path d="M384 1109.333h85.333V1024H384v85.333zm170.666 0H640V1024h-85.333v85.333zM640 170.666h-85.333v426.667H640V170.666zM792.106 274.56l-61.653 61.653c73.6 45.013 122.88 125.867 122.88 218.453 0 141.44-114.56 256-256 256s-256-114.56-256-256c0-92.587 49.28-173.44 122.88-218.453L402.56 274.56C314.027 336.213 256 438.613 256 554.667 256 743.254 408.747 896 597.333 896s341.333-152.747 341.333-341.333c0-116.053-58.027-218.453-146.56-280.107zm-66.773 834.773h85.333V1024h-85.333v85.333z"/></svg>