<svg viewBox="0 0 1195 1195" xmlns="http://www.w3.org/2000/svg"><path d="M384 1109.333h85.333V1024H384v85.333zM597.333 640c70.613 0 127.573-57.387 127.573-128l.427-256c0-70.827-57.173-128-128-128-70.613 0-128 57.173-128 128v256c0 70.613 57.387 128 128 128zm-42.667 469.333H640V1024h-85.333v85.333zm170.667 0h85.333V1024h-85.333v85.333zM896 512h-72.533c0 128-108.16 217.6-226.133 217.6-117.76 0-226.133-89.6-226.133-217.6h-72.533c0 145.707 116.053 266.027 256 286.72v139.947h85.333V798.72c139.947-20.693 256-141.013 256-286.72z"/></svg>