<svg viewBox="0 0 1195 1195" xmlns="http://www.w3.org/2000/svg"><path d="M433.493 563.2c0 90.522 73.37 163.891 163.84 163.891 90.522 0 163.79-73.37 163.79-163.891 0-90.47-73.268-163.84-163.79-163.84s-163.84 73.37-163.84 163.84zm-116.275-61.44c28.11-128.819 142.797-225.28 280.115-225.28 79.155 0 150.784 32.102 202.701 83.968 24.013 24.013 62.925 24.013 86.886 0 24.013-24.013 24.013-62.925 0-86.886C812.834 199.476 710.434 153.6 597.333 153.6c-183.398 0-338.637 120.525-390.81 286.771H85.333V563.2h163.79c51.148 0 63.743-41.626 68.095-61.44zm628.275 61.44c-51.149 0-63.744 41.677-68.045 61.389-28.109 128.819-142.797 225.28-280.115 225.28-79.206 0-150.835-32.102-202.7-84.019-24.014-24.013-62.926-24.013-86.939 0-23.962 24.013-23.962 62.925 0 86.886C381.832 926.925 484.232 972.8 597.332 972.8c183.398 0 338.586-120.627 390.81-286.72h121.19V563.2h-163.84z"/></svg>