<svg viewBox="0 0 1195 1195" xmlns="http://www.w3.org/2000/svg"><path d="M949.333 768c-45.16 0-85.92 18.738-115.012 48.83L403.317 601.328c1.314-8.252 2.016-16.706 2.016-25.328s-.702-17.076-2.016-25.326l431.004-215.502C863.413 365.262 904.173 384 949.333 384c88.366 0 160-71.634 160-160s-71.634-160-160-160-160 71.634-160 160c0 8.622.704 17.076 2.016 25.326L360.345 464.83C331.253 434.74 290.493 416 245.333 416c-88.366 0-160 71.636-160 160 0 88.368 71.634 160 160 160 45.16 0 85.92-18.738 115.012-48.828L791.35 902.674A161.12 161.12 0 0 0 789.333 928c0 88.368 71.634 160 160 160s160-71.632 160-160c0-88.364-71.634-160-160-160z"/></svg>