<svg viewBox="0 0 1365 1365" xmlns="http://www.w3.org/2000/svg"><path d="M1132.357 1107.714q10.857-10.857 25.714-10.857t25.714 10.857l73.143 73.143-51.429 51.429-47.429-47.429-47.429 47.429q-10.286 10.857-25.714 10.857t-25.714-10.857l-47.429-47.429-47.429 47.429q-10.857 10.857-25.714 10.857t-25.714-10.857l-47.429-47.429-47.429 47.429q-10.857 10.857-25.714 10.857t-25.714-10.857l-47.429-47.429-47.429 47.429q-10.857 10.857-25.714 10.857t-25.714-10.857l-47.429-47.429-47.429 47.429q-10.857 10.857-25.714 10.857t-25.714-10.857l-47.429-47.429-47.429 47.429q-10.857 10.857-25.714 10.857t-25.714-10.857l-47.429-47.429-47.429 47.429q-10.857 10.857-25.714 10.857t-25.714-10.857l-73.143-73.143 51.429-51.429 47.429 47.429 47.429-47.429q10.857-10.857 25.714-10.857t25.714 10.857l47.429 47.429 47.429-47.429q10.857-10.857 25.714-10.857t25.714 10.857l47.429 47.429 47.429-47.429q10.857-10.857 25.714-10.857t25.714 10.857l47.429 47.429 47.429-47.429q10.857-10.857 25.714-10.857t25.714 10.857l47.429 47.429 47.429-47.429q10.857-10.857 25.714-10.857t25.714 10.857l47.429 47.429 47.429-47.429q10.857-10.857 25.714-10.857t25.714 10.857l47.429 47.429zM232.929 1086q-10.857 10.857-25.714 10.857T181.501 1086l-73.143-73.143 51.429-51.429 47.429 46.857 47.429-46.857q10.857-10.857 25.714-10.857t25.714 10.857l47.429 46.857 36.571-36.571V804.285l-120-179.429q-9.714-14.857-4-32.286t22.857-23.143l101.143-33.143V365.427h73.143v-73.143h146.286v-73.143h146.286v73.143h146.286v73.143h73.143v170.857l101.143 33.143q17.143 5.714 22.857 23.143t-4 32.286l-120 179.429v167.429l10.857-10.286q10.857-10.857 25.714-10.857t25.714 10.857l47.429 46.857 47.429-46.857q10.857-10.857 25.714-10.857t25.714 10.857l73.143 73.143-51.429 51.429-47.429-47.429-47.429 47.429q-10.286 10.857-25.714 10.857T1059.216 1086l-47.429-47.429L964.358 1086q-10.857 10.857-25.714 10.857T912.93 1086l-47.429-47.429L818.072 1086q-10.857 10.857-25.714 10.857T766.644 1086l-47.429-47.429L671.786 1086q-10.857 10.857-25.714 10.857T620.358 1086l-47.429-47.429L525.5 1086q-10.857 10.857-25.714 10.857T474.072 1086l-47.429-47.429L379.214 1086q-10.857 10.857-25.714 10.857T327.786 1086l-47.429-47.429zm230.285-647.428v73.143l219.429-73.143 219.429 73.143v-73.143h-73.143v-73.143H536.358v73.143h-73.143z"/></svg>