<svg viewBox="0 0 1195 1195" xmlns="http://www.w3.org/2000/svg"><path d="M737.417 951.376l-36-20.752c1.084-6.248 1.916-12.622 1.916-19.248 0-6.624-.832-13-2-19.25l36.084-20.792c16.834-9.834 22.582-31.458 12.916-48.208-9.752-16.958-31.334-22.75-48.25-13l-36.376 21c-9.752-8.292-20.75-14.792-33-19.208v-41.792c0-19.542-15.876-35.376-35.376-35.376S562 750.584 562 770.126v41.75c-12.252 4.376-23.292 10.958-33.042 19.25l-36.292-21c-16.958-9.75-38.584-4-48.334 12.958-9.75 16.834-3.876 38.5 13 48.252l35.918 20.75c-1.168 6.292-1.918 12.668-1.918 19.292 0 6.626.75 13 1.918 19.248l-35.916 20.75c-16.918 9.75-22.75 31.5-13 48.376s31.376 22.624 48.25 12.876l36.334-20.876c9.748 8.25 20.792 14.75 33.084 19.124v41.876c0 19.498 15.832 35.248 35.332 35.248s35.376-15.75 35.376-35.248v-41.876c12.25-4.376 23.376-10.876 33.042-19.25l36.334 21c16.916 9.75 38.498 4 48.25-12.876 9.748-16.874 3.998-38.5-12.918-48.374zm-140.084-4.626c-19.5 0-35.376-15.876-35.376-35.376s15.876-35.292 35.376-35.292 35.334 15.792 35.334 35.292-15.834 35.376-35.334 35.376zm436.332-90.25l-24.166-6.416c-.582-7.666-2.416-14.958-5.792-21.958l17.542-17.542c8.25-8.25 8.208-21.584 0-29.708-8.166-8.208-21.416-8.25-29.666 0l-17.582 17.5c-6.918-3.25-14.292-5.124-21.918-5.75l-6.418-24.124c-2.998-11.166-14.5-17.876-25.748-14.876-11.208 3.042-17.75 14.542-14.834 25.75l6.418 23.792a67.844 67.844 0 0 0-9 7.334c-2.75 2.834-5.084 5.832-7.252 8.918l-23.792-6.418c-11.208-2.998-22.792 3.752-25.792 14.876-2.998 11.25 3.752 22.708 14.834 25.75l24 6.458c.668 7.542 2.584 14.916 5.958 21.918l-17.624 17.624c-8.166 8.208-8.124 21.458.084 29.624 8.166 8.166 21.416 8.25 29.584.084l17.664-17.666c6.918 3.414 14.336 5.332 22.002 5.914l6.332 24.042c3.084 11.208 14.5 17.876 25.752 14.876 11.166-3 17.914-14.498 14.916-25.834l-6.418-23.792c3-2.124 6.084-4.5 8.918-7.25 2.75-2.792 5.084-5.876 7.248-8.958l23.834 6.418c11.208 3 22.75-3.708 25.708-14.834 3-11.17-3.624-22.668-14.792-25.752zm-71.708 13.376c-8.25 8.25-21.542 8.208-29.75 0-8.124-8.124-8.208-21.458 0-29.708 8.208-8.166 21.542-8.166 29.75 0 8.126 8.208 8.126 21.582 0 29.708zM323.21 749l-23.75 6.376c-2.208-3-4.5-6.042-7.292-8.876-2.832-2.75-5.832-5.124-8.958-7.25l6.376-23.876c3-11.208-3.668-22.75-14.75-25.708-11.25-3-22.75 3.668-25.75 14.834l-6.5 24.124c-7.624.624-14.916 2.5-21.876 5.792l-17.624-17.542c-8.25-8.25-21.5-8.208-29.668 0-8.208 8.208-8.208 21.5 0 29.708l17.542 17.542a62.646 62.646 0 0 0-5.792 21.958l-24.084 6.416c-11.25 3.084-17.918 14.5-14.916 25.75 3.042 11.166 14.542 17.75 25.792 14.834l23.75-6.46c2.124 3.208 4.5 6.21 7.376 9.002 2.75 2.75 5.75 5.208 8.876 7.25l-6.376 23.792c-3 11.25 3.668 22.834 14.832 25.834 11.252 3 22.668-3.666 25.668-14.876l6.5-24c7.624-.624 15-2.542 22-5.876l17.582 17.584c8.168 8.248 21.418 8.082 29.668-.084 8.124-8.124 8.25-21.416 0-29.624L304.211 818c3.376-6.92 5.376-14.376 5.876-22.002l24.124-6.376c11.124-3.042 17.792-14.5 14.792-25.75-3.002-11.12-14.502-17.788-25.794-14.872zm-60.752 56.916c-8.208 8.208-21.5 8.208-29.75 0-8.124-8.166-8.124-21.542 0-29.666 8.25-8.166 21.542-8.166 29.75 0s8.126 21.5 0 29.666zM1109.333 416c0-123.5-100.5-224-224-224-10.624 0-21.124.75-31.584 2.25C794.001 112.834 699.71 64 597.333 64S400.71 112.834 340.917 194.25c-10.46-1.5-20.96-2.25-31.584-2.25-123.5 0-224 100.5-224 224s100.5 224 224 224c27.376 0 54.168-5 79.418-14.666C446.665 675.834 520.333 704 597.333 704c77.084 0 150.666-28.166 208.582-78.666C831.165 635 857.957 640 885.333 640c123.5 0 224-100.5 224-224zM793.457 546.666C746.501 603.25 676.581 640 597.333 640c-79.25 0-149.168-36.75-196.124-93.334C375.21 565 343.583 576 309.333 576c-88.376 0-160-71.624-160-160s71.624-160 160-160c21.624 0 42.124 4.416 60.876 12.166C412.667 185.334 497.915 128 597.333 128s184.668 57.334 227.082 140.166C843.21 260.416 863.751 256 885.333 256c88.376 0 160 71.624 160 160s-71.624 160-160 160c-34.25 0-65.832-11-91.876-29.334z"/></svg>