<svg viewBox="0 0 1195 1195" xmlns="http://www.w3.org/2000/svg"><path d="M277.333 576c0-12.18.704-24.196 2.03-36.022l-184.98-60.104A514.592 514.592 0 0 0 85.333 576c0 147.23 62.166 279.922 161.654 373.324l114.284-157.296C309.147 735.102 277.333 659.27 277.333 576zm640 0c0 83.268-31.812 159.102-83.938 216.028L947.68 949.324c99.488-93.402 161.654-226.094 161.654-373.324 0-32.862-3.132-64.986-9.048-96.126l-184.98 60.104A323.638 323.638 0 0 1 917.333 576zm-256-313.592c91.934 18.662 169.544 76.742 214.45 155.826l184.978-60.102c-73.196-155.42-222.24-268.06-399.428-290.156v194.432zm-342.45 155.824c44.906-79.084 122.516-137.164 214.45-155.826V67.976C356.145 90.072 207.103 202.712 133.907 358.13l184.976 60.102zM729.89 867.328C689.5 885.736 644.617 896 597.333 896s-92.166-10.264-132.554-28.67l-114.292 157.31c73.206 40.366 157.336 63.36 246.846 63.36s173.64-22.994 246.848-63.36L729.89 867.328z"/></svg>