<svg viewBox="0 0 1195 1195" xmlns="http://www.w3.org/2000/svg"><path d="M853.333 128c-141.385 0-256 83.75-256 186.875 0 123.875 32 194.125 0 389.125 0-288-177-405.783-256-405.783C344.6 266.047 310.378 256 310.378 256s-14 7.124-19.354 21.583c-17.23-20.053-36.154-17.54-36.154-17.54l-8.49 37.081S129.333 338 127.743 503.416c13.59 21.584 98.9 38.686 159.476 27.702 57.157 2.956 42.991 50.648 30.193 63.446C263.416 648.562 213.333 576 149.333 576s-64 64 0 64 64 64 192 64c-198 77 0 256 0 256h-64c-64 0-64 64-64 64h384c192 0 320-64 320-222.182 0-54.34-27.699-114.629-64-162.228-70.943-93.023 14.453-171.156 64-127.59s192 64 192-128c0-141.385-114.615-256-256-256zm-608 320c-17.674 0-32-14.327-32-32s14.326-32 32-32c17.673 0 32 14.326 32 32s-14.327 32-32 32z"/></svg>