<svg viewBox="0 0 1195 1195" xmlns="http://www.w3.org/2000/svg"><path d="M413.333 128c-75.11 0-136 100.29-136 224 0 68.83 17.02 141.84 34 254.54 13.3 88.29 45.67 161.46 102 161.46s94.08-48.79 94.08-137.97c0-30.37-24.97-78.75-26.08-120.03-2.02-74.46 49.93-104.17 49.93-173 0-123.71-42.83-209-117.93-209zm366.97 256c-75.1 0-117.93 85.29-117.93 209 0 68.83 51.95 98.54 49.93 173-1.109 41.28-26.08 89.66-26.08 120.03 0 89.18 37.75 137.97 94.08 137.97s88.7-73.17 102-161.46c16.98-112.7 34-185.71 34-254.54 0-123.71-60.89-224-136-224z"/></svg>