<svg viewBox="0 0 1195 1195" xmlns="http://www.w3.org/2000/svg"><path d="M1109.333 576v64H874.827c27.504 38.51 42.506 82.692 42.506 128 0 70.878-36.66 139.026-100.58 186.964C757.395 999.482 679.47 1024 597.333 1024c-82.138 0-160.062-24.518-219.42-69.036-63.92-47.938-100.58-116.086-100.58-186.964h128c0 69.382 87.926 128 192 128s192-58.618 192-128-87.926-128-192-128h-512v-64h299.518a306.89 306.89 0 0 1-6.938-5.036c-63.92-47.94-100.58-116.086-100.58-186.964s36.66-139.024 100.58-186.964C437.271 152.518 515.195 128 597.333 128c82.136 0 160.062 24.518 219.42 69.036 63.92 47.94 100.58 116.086 100.58 186.964h-128c0-69.382-87.926-128-192-128s-192 58.618-192 128 87.926 128 192 128c78.978 0 154.054 22.678 212.482 64h299.518z"/></svg>