<svg viewBox="0 0 1195 1195" xmlns="http://www.w3.org/2000/svg"><path d="M440.563 640c14.876-73.042 79.376-128 156.792-128 77.418 0 141.916 54.958 156.752 128h64C802.44 531.75 709.94 448 597.355 448c-112.542 0-205.082 83.75-220.75 192h63.958zm156.792-256c17.666 0 32-14.334 32-32v-64c0-17.666-14.334-32-32-32-17.664 0-32 14.334-32 32v64c0 17.666 14.336 32 32 32zm294.124-6.166c-12.498-12.5-32.748-12.5-45.25 0l-45.25 45.25c-12.498 12.5-12.498 32.75 0 45.25 12.502 12.5 32.752 12.5 45.25 0l45.25-45.25c12.5-12.5 12.5-32.75 0-45.25zm-497.792 45.25l-45.25-45.25c-12.498-12.5-32.746-12.5-45.25 0-12.498 12.5-12.498 32.75 0 45.25l45.25 45.25c12.504 12.5 32.752 12.5 45.25 0 12.504-12.5 12.504-32.75 0-45.25zM789.355 704h-384c-17.664 0-32 14.334-32 32s14.336 32 32 32h384c17.666 0 32-14.334 32-32s-14.334-32-32-32zm-64 128h-256c-17.664 0-32 14.334-32 32s14.336 32 32 32h256c17.666 0 32-14.334 32-32s-14.334-32-32-32z"/></svg>