<svg viewBox="0 0 1195 1195" xmlns="http://www.w3.org/2000/svg"><path d="M725.333 210.588v135.958c36.206 15.804 69.5 38.408 98.274 67.18 60.442 60.44 93.726 140.8 93.726 226.274s-33.286 165.834-93.726 226.274S682.81 960 597.333 960 431.5 926.714 371.06 866.274 277.333 725.474 277.333 640s33.286-165.834 93.726-226.274c28.774-28.774 62.068-51.378 98.274-67.182V210.588c-185.048 55.08-320 226.472-320 429.412 0 247.424 200.578 448 448 448 247.424 0 448-200.576 448-448 0-202.94-134.95-374.332-320-429.412zM533.333 64h128v512h-128z"/></svg>