<svg viewBox="0 0 1195 1195" xmlns="http://www.w3.org/2000/svg"><path d="M213.333 597.333c0 94.293 38.827 179.2 100.48 240.853l-100.48 100.48h256v-256l-95.36 95.36c-46.507-46.293-75.307-110.08-75.307-180.693 0-111.36 71.253-205.867 170.667-241.067v-89.173c-147.2 37.973-256 171.307-256 330.24zm341.333 213.333H640v-85.333h-85.333v85.333zM981.333 256h-256v256l95.36-95.36C867.2 462.933 896 526.72 896 597.333c0 111.36-71.253 205.867-170.667 241.067v88.96c147.2-37.76 256-171.093 256-330.027 0-94.293-38.827-179.2-100.48-240.853L981.333 256zM554.666 640H640V384h-85.333v256z"/></svg>