<svg viewBox="0 0 1493 1493" xmlns="http://www.w3.org/2000/svg"><path d="M1338.667 320h-384c-26.4 0-63.274 15.274-81.942 33.942L396.609 830.058c-18.668 18.668-18.668 49.214 0 67.882l412.118 412.118c18.668 18.668 49.214 18.668 67.882 0l476.118-476.118c18.666-18.666 33.94-55.54 33.94-81.94V368c0-26.4-21.6-48-48-48zm-240 384c-53.02 0-96-42.98-96-96s42.98-96 96-96 96 42.98 96 96-42.98 96-96 96zm-864 160l544-544h-80c-26.4 0-63.274 15.274-81.942 33.942L140.609 830.058c-18.668 18.668-18.668 49.214 0 67.882l412.118 412.118c18.668 18.668 49.214 18.668 67.882 0L650.667 1280l-416-416z"/></svg>