<svg viewBox="0 0 1195 1195" xmlns="http://www.w3.org/2000/svg"><path d="M784.111 428.134c-6.81-18.176 181.197-186.061 71.578-322.099C830.04 74.24 743 258.355 619.401 341.709c-68.198 45.978-226.867 143.872-226.867 197.99v350.31c0 65.075 251.597 133.99 442.778 133.99 70.093 0 171.622-439.091 171.622-508.826 0-70.042-216.115-68.813-222.822-87.04zm-442.778 4.864c-33.69 0-153.6 20.48-153.6 159.898v248.218c0 139.315 119.91 154.675 153.6 154.675 33.638 0-51.2-29.286-51.2-115.712V553.779c0-90.522 84.838-120.781 51.2-120.781z"/></svg>