<svg viewBox="0 0 1195 1195" xmlns="http://www.w3.org/2000/svg"><path d="M410.555 698.266c6.81 18.227-181.197 186.061-71.526 322.099 25.651 31.795 112.691-152.32 236.288-235.622 68.147-46.029 226.816-143.923 226.816-198.042v-350.31c0-65.075-251.597-133.99-442.778-133.99-70.093 0-171.622 439.091-171.622 508.877 0 69.99 216.115 68.762 222.822 86.989zm442.778-4.864c33.69 0 153.6-20.48 153.6-159.898V285.286c0-139.315-119.91-154.675-153.6-154.675-33.638 0 51.2 29.286 51.2 115.712v326.298c0 90.522-84.838 120.781-51.2 120.781z"/></svg>