<svg viewBox="0 0 1195 1195" xmlns="http://www.w3.org/2000/svg"><path d="M974.39 317.952c30.687 74.016 16.063 162.368-44.129 222.56-66.272 66.272-166.432 76.64-244.288 32.704l-56.288 61.472 40.16 40.32 24-24c12.256-12.288 32.16-12.288 44.416 0l194.624 196.608c12.288 12.256 12.288 32.16 0 44.416l-88.832 88.832c-12.256 12.288-32.16 12.288-44.416 0L605.013 784.256c-12.288-12.256-12.288-32.16 0-44.416l21.92-21.92-38.272-38.368L319.51 973.6c-24.544 24.544-64.32 24.544-88.832 0l-22.208-22.208c-24.544-24.544-24.544-64.32 0-88.832l306.624-256.8-203.648-204.192-64.32-.032-74.432-119.68 59.904-60 122.4 74.912.8 62.976L561.813 566.56l59.936-50.176C563.157 436.512 569.27 324 641.461 251.808c59.904-59.904 147.776-74.784 221.6-44.672L731.093 337.28l111.072 111.072 132.224-130.4zM282.132 893.888c-12.256-12.256-32.128-12.256-44.416 0-12.288 12.288-12.288 32.16 0 44.448 12.288 12.256 32.16 12.256 44.416 0 12.288-12.32 12.288-32.192 0-44.448z"/></svg>