<svg viewBox="0 0 1315 1315" xmlns="http://www.w3.org/2000/svg"><path d="M583.63 487v66.857q0 7.429-5.428 12.571t-12.857 5.143H395.059v464q0 7.429-5.143 12.857t-12.571 5.429h-77.143q-7.43 0-12.857-5.143t-5.43-13.143v-464H112.203q-7.43 0-12.857-5.143t-5.43-12.571V487q0-8 5.144-13.143t13.143-5.143h453.143q7.429 0 12.857 5.429T583.63 487zm593.144-1.714l44 549.143q.57 7.429-4.571 13.714-5.714 5.714-13.143 5.714h-76.571q-6.857 0-12-4.857t-5.714-11.714l-26.286-336-108 242.857Q969.918 955 957.918 955h-68.571q-11.43 0-16.571-10.857l-107.43-244-25.713 337.143q-.571 6.857-5.714 11.714t-12 4.857h-77.143q-7.43 0-13.143-5.714-5.143-5.714-5.143-13.714l44.57-549.143q.572-6.857 5.715-11.714t12-4.857h81.143q11.429 0 16.57 10.857l125.715 297.143q5.714 13.714 11.429 29.143 1.714-4 5.429-14t6-15.143l126.286-297.143q5.143-10.857 16.57-10.857h80.572q7.429 0 12.57 4.857t5.715 11.714z"/></svg>