<svg viewBox="0 0 1195 1195" xmlns="http://www.w3.org/2000/svg"><path d="M938.666 512h-128v-48.64c73.6-18.987 128-85.12 128-164.693h-128V256c0-23.467-18.987-42.667-42.667-42.667H426.666C403.2 213.333 384 232.533 384 256v42.667H256c0 79.36 54.613 145.707 128 164.693V512H256c0 79.36 54.613 145.707 128 164.693v48.64H256c0 79.36 54.613 145.707 128 164.693v48.64c0 23.467 19.2 42.667 42.667 42.667H768c23.68 0 42.667-19.2 42.667-42.667v-48.64c73.6-18.987 128-85.12 128-164.693h-128v-48.64c73.6-18.987 128-85.333 128-164.693zM597.333 896C550.186 896 512 857.813 512 810.667s38.187-85.333 85.333-85.333 85.333 38.187 85.333 85.333S644.48 896 597.333 896zm0-213.334c-47.147 0-85.333-38.187-85.333-85.333S550.187 512 597.333 512s85.333 38.187 85.333 85.333-38.187 85.333-85.333 85.333zm0-213.333C550.186 469.333 512 431.146 512 384s38.187-85.333 85.333-85.333 85.333 38.187 85.333 85.333-38.187 85.333-85.333 85.333z"/></svg>