<svg viewBox="0 0 1195 1195" xmlns="http://www.w3.org/2000/svg"><path d="M597.333 669.594c122.368 0 224.87-41.574 231.066-95.898-18.227-50.995-38.093-106.701-57.6-161.382-13.517 38.963-88.32 66.611-173.466 66.611s-159.949-27.648-173.466-66.611a640638.383 640638.383 0 0 0-57.549 161.382c6.195 54.323 108.646 95.898 231.014 95.898zm0-343.296c57.55 0 110.95-17.818 126.618-45.517-21.555-60.518-40.038-112.486-51.763-145.203-7.782-21.862-43.059-33.178-74.854-33.178s-67.072 11.315-74.854 33.178a277322.92 277322.92 0 0 0-51.763 145.203c15.667 27.699 69.12 45.517 126.618 45.517zm449.536 393.881l-192.256-77.517 22.17 61.798c-1.126 65.485-128.205 117.709-279.45 117.709-151.194 0-278.374-52.173-279.45-117.709l22.17-61.798-192.256 77.517c-53.914 21.709-56.218 61.901-5.018 89.293l361.574 193.894c51.098 27.392 134.81 27.392 185.958 0l361.626-193.894c51.15-27.392 48.845-67.584-5.069-89.293z"/></svg>