<svg viewBox="0 0 1195 1195" xmlns="http://www.w3.org/2000/svg"><path d="M780.047 73.143q105.714 0 180.857 53.429t75.143 129.429v512q0 74.286-71.714 126.857t-174.57 55.429l121.713 115.429q9.143 8.571 4.571 20t-17.143 11.429H295.475q-12.57 0-17.143-11.429t4.571-20l121.714-115.429q-102.857-2.857-174.57-55.429t-71.715-126.857v-512q0-76 75.143-129.429t180.857-53.429h365.714zm-182.857 768q45.714 0 77.714-32t32-77.714-32-77.714-77.714-32-77.714 32-32 77.714 32 77.714 77.714 32zM926.333 512V219.429H268.047V512h658.286z"/></svg>