<svg viewBox="0 0 1195 1195" xmlns="http://www.w3.org/2000/svg"><path d="M1061.333 832h-16V624c0-61.756-50.242-112-112-112h-272V384h16c26.4 0 48-21.6 48-48V176c0-26.4-21.6-48-48-48h-160c-26.4 0-48 21.6-48 48v160c0 26.4 21.6 48 48 48h16v128h-272c-61.756 0-112 50.244-112 112v208h-16c-26.4 0-48 21.6-48 48v160c0 26.4 21.6 48 48 48h160c26.4 0 48-21.6 48-48V880c0-26.4-21.6-48-48-48h-16V640h256v192h-16c-26.4 0-48 21.6-48 48v160c0 26.4 21.6 48 48 48h160c26.4 0 48-21.6 48-48V880c0-26.4-21.6-48-48-48h-16V640h256v192h-16c-26.4 0-48 21.6-48 48v160c0 26.4 21.6 48 48 48h160c26.4 0 48-21.6 48-48V880c0-26.4-21.6-48-48-48zm-784 192h-128V896h128v128zm384 0h-128V896h128v128zm-128-704V192h128v128h-128zm512 704h-128V896h128v128z"/></svg>