<svg viewBox="0 0 1195 1195" xmlns="http://www.w3.org/2000/svg"><path d="M926.62 548.572q0 109.143-54 201.714T726.047 896.857t-201.714 54h-91.429q-8 0-13.143-5.143t-5.143-13.143V583.428l-122.857 37.714q-1.714.571-5.143.571-5.714 0-10.857-3.429-7.429-5.714-7.429-14.857v-73.143q0-13.143 13.143-17.714l133.143-40.571v-53.143L291.762 456.57q-1.714.571-5.143.571-5.714 0-10.857-3.429-7.429-5.714-7.429-14.857v-73.143q0-13.143 13.143-17.714l133.143-40.571V164.57q0-8 5.143-13.143t13.143-5.143h91.43q8 0 13.142 5.143t5.143 13.143v103.429l214.286-66.286q8.571-2.857 16 2.857t7.43 14.857v73.143q0 13.143-13.144 17.714l-224.57 69.143v53.143l214.285-66.286q8.571-2.857 16 2.857t7.43 14.857v73.143q0 13.143-13.144 17.714l-224.57 69.143v278.286q107.428-7.429 181.713-86.286t74.286-187.429q0-8 5.143-13.143t13.143-5.143h91.43q8 0 13.142 5.143t5.143 13.143z"/></svg>