<svg viewBox="0 0 1195 1195" xmlns="http://www.w3.org/2000/svg"><path d="M372.69 799.429L226.404 945.715q-5.714 5.143-13.143 5.143-6.857 0-13.143-5.143-5.143-5.714-5.143-13.143t5.143-13.143l146.286-146.286Q352.118 768 359.547 768t13.143 5.143q5.143 5.714 5.143 13.143t-5.143 13.143zm96.572 23.428v182.857q0 8-5.143 13.143T450.976 1024t-13.143-5.143-5.143-13.143V822.857q0-8 5.143-13.143t13.143-5.143 13.143 5.143 5.143 13.143zm-128-128q0 8-5.143 13.143t-13.143 5.143H140.12q-8 0-13.143-5.143t-5.143-13.143 5.143-13.143 13.143-5.143h182.857q8 0 13.143 5.143t5.143 13.143zM1063.547 768q0 68.571-48.57 116l-84 83.429q-47.43 47.429-116 47.429-69.144 0-116.572-48.571L507.548 774.858q-12-12-24-32l136.571-10.286 156 156.571q15.43 15.429 38.857 15.714t38.857-15.143l84-83.429q16-16 16-38.286 0-22.857-16-38.857l-156.57-157.143 10.285-136.571q20 12 32 24l192 192q48 49.143 48 116.571zm-352.57-413.714l-136.572 10.286-156-156.571q-16-16-38.857-16-22.286 0-38.857 15.429l-84 83.429q-16 16-16 38.286 0 22.857 16 38.857l156.571 156.571-10.286 137.143q-20-12-32-24l-192-192q-48-49.143-48-116.571 0-68.571 48.571-116l84-83.429q47.43-47.429 116-47.429 69.143 0 116.571 48.571l190.857 191.429q12 12 24 32zm361.713 48q0 8-5.143 13.143t-13.143 5.143H871.547q-8 0-13.143-5.143t-5.143-13.143 5.143-13.143T871.547 384h182.857q8 0 13.143 5.143t5.143 13.143zM761.833 91.429v182.857q0 8-5.143 13.143t-13.143 5.143-13.143-5.143-5.143-13.143V91.429q0-8 5.143-13.143t13.143-5.143 13.143 5.143 5.143 13.143zm232.571 86.285L848.118 324q-6.286 5.143-13.143 5.143T821.832 324q-5.143-5.714-5.143-13.143t5.143-13.143l146.286-146.286q5.714-5.143 13.143-5.143t13.143 5.143q5.143 5.714 5.143 13.143t-5.143 13.143z"/></svg>