<svg viewBox="0 0 1195 1195" xmlns="http://www.w3.org/2000/svg"><path d="M725.333 384v170.667H768V640H640V298.667h85.333L597.333 128l-128 170.667h85.333V640h-128v-88.32c30.08-15.573 51.2-46.08 51.2-82.347 0-51.84-42.027-93.867-93.867-93.867s-93.867 42.027-93.867 93.867c0 36.267 21.12 66.773 51.2 82.347V640c0 47.147 38.187 85.333 85.333 85.333h128v130.133c-30.293 15.573-51.2 46.72-51.2 83.2 0 51.84 42.027 93.867 93.867 93.867s93.867-42.027 93.867-93.867c0-36.48-20.907-67.627-51.2-83.2V725.333h128c47.147 0 85.333-38.187 85.333-85.333v-85.333H896V384H725.332z"/></svg>