<svg viewBox="0 0 1344 1344" xmlns="http://www.w3.org/2000/svg"><path d="M864 962.612v-52.78C934.498 870.104 992 771.06 992 672c0-159.058 0-288-192-288S608 512.942 608 672c0 99.06 57.502 198.104 128 237.832v52.78C518.898 980.36 352 1087.032 352 1216h896c0-128.968-166.898-235.64-384-253.388zm-440.804 24.716c55.31-36.15 124.08-63.636 199.788-80.414-15.054-17.784-28.708-37.622-40.492-59.02C552.078 792.66 536 731.836 536 672c0-86.042 0-167.31 30.6-233.762 29.706-64.504 83.128-104.496 159.222-119.488C708.908 242.27 663.882 192 544 192c-192 0-192 128.942-192 288 0 99.06 57.502 198.104 128 237.832v52.78C262.898 788.36 96 895.032 96 1024h279.006c14.518-12.91 30.596-25.172 48.19-36.672z"/></svg>