<svg viewBox="0 0 1195 1195" xmlns="http://www.w3.org/2000/svg"><path d="M890.12 402.286q0 126.286-84.287 219.714T597.547 729.143v148.571h128q8 0 13.143 5.143T743.833 896v36.571q0 8-5.143 13.143t-13.143 5.143h-128v128q0 8-5.143 13.143t-13.143 5.143h-36.57q-8 0-13.144-5.143t-5.143-13.143v-128h-128q-8 0-13.143-5.143t-5.143-13.143V896q0-8 5.143-13.143t13.143-5.143h128V729.143Q438.69 720 369.261 670.286t-106.286-128-30-166.857q6.286-76.571 46-142.286t104-107.429 140.286-50.286q97.143-10.857 182.286 30.857t134.857 121.143 49.714 174.857zm-585.144 0q0 105.714 75.143 180.857t180.857 75.143 180.857-75.143 75.143-180.857-75.143-180.857-180.857-75.143-180.857 75.143-75.143 180.857z"/></svg>