<svg viewBox="0 0 1195 1195" xmlns="http://www.w3.org/2000/svg"><path d="M1053.525 350.208C1002.018 645.786 714.325 896 627.797 953.19c-86.528 57.088-165.53-22.886-194.15-83.507-32.819-68.966-131.02-443.187-156.774-474.163-25.754-31.027-102.912 30.976-102.912 30.976l-37.427-49.971s156.723-190.72 276.02-214.579c126.463-25.242 126.258 197.837 156.671 321.638C598.615 603.494 618.428 672 644.131 672s74.854-66.816 128.614-169.216c53.914-102.605-2.304-193.126-107.57-128.717 42.137-257.382 439.858-319.283 388.351-23.859z"/></svg>