<svg viewBox="0 0 1537 1537" xmlns="http://www.w3.org/2000/svg"><path d="M1238.321 931.857h-78.857q8-21.143 37.714-102.286l1.714-5.143q2.286-5.714 5.714-14.857t5.143-14.857l6.857 31.429zm-825.142-37.143l-33.143-168.571q-6.286-30.857-42.857-30.857H184.036l-1.143 7.429q177.714 45.143 230.286 192zm102.285-199.428l-92.571 250.286-9.714-50.857q-14.857-40-48.571-74t-74.857-50.571l77.143 291.429h100l149.143-366.286H515.466zm79.429 366.857h94.857l59.429-366.857h-94.857zm438.857-357.714Q994.321 689 948.607 689q-70.286 0-114.857 33.714t-45.143 87.429q-.571 58.286 82.857 99.429 27.429 13.143 38.286 23.429t10.857 22.286q0 17.143-17.143 26.286t-39.429 9.143q-49.143 0-89.143-18.857l-12.571-6.286-13.143 82.286q42.286 19.429 105.714 19.429 74.286.571 119.143-33.714t46-91.429q0-60.571-80-99.429-28-14.286-40.571-24t-12.571-21.714q0-12.571 14-22t40.286-9.429q40-.571 70.857 13.714l8.571 4.571zm242.857-9.143h-73.143q-37.143 0-49.714 30.857l-140.571 336h99.429l20-54.857h121.143q2.857 12.571 11.429 54.857h88zm149.714-182.857v731.429q0 29.714-21.714 51.429t-51.429 21.714H182.892q-29.714 0-51.429-21.714t-21.714-51.429V512.429q0-29.714 21.714-51.429t51.429-21.714h1170.286q29.714 0 51.429 21.714t21.714 51.429z"/></svg>