<svg viewBox="0 0 1195 1195" xmlns="http://www.w3.org/2000/svg"><path d="M1045.333 683.148V768h-84.852L853.333 660.852 746.185 768h-84.852v-84.852L768.481 576 661.333 468.852V384h84.852l107.148 107.148L960.481 384h84.852v84.852L938.185 576l107.148 107.148zM501.34 1024a31.985 31.985 0 0 1-22.634-9.374L232.08 768H117.333c-17.672 0-32-14.326-32-32V416c0-17.672 14.328-32 32-32H232.08l246.626-246.628a31.996 31.996 0 0 1 34.874-6.936A31.999 31.999 0 0 1 533.333 160v832a31.997 31.997 0 0 1-31.994 32z"/></svg>