<svg viewBox="0 0 1195 1195" xmlns="http://www.w3.org/2000/svg"><path d="M213.333 702.002h768c17.666 0 32-14.334 32-32s-14.334-32-32-32h-768c-17.666 0-32 14.334-32 32s14.334 32 32 32zm768 64h-768c-17.666 0-32 14.334-32 32s14.334 32 32 32h768c17.666 0 32-14.334 32-32s-14.334-32-32-32zm0 128h-768c-17.666 0-32 14.334-32 32s14.334 32 32 32h768c17.666 0 32-14.334 32-32s-14.334-32-32-32zM495.417 574c-.666-.666-1.502-1.084-2.166-1.75-74.876-74.876-74.876-196.668 0-271.584 5.124-5.084 10.54-9.916 16.292-14.416-4.502 71.916 21.458 142.75 74.208 195.458 52.748 52.792 123.58 78.666 195.498 74.166-5.334 6.792-11.748 12.25-17.792 18.124H844.5c10.084-16.084 18.5-33.5 25.166-52.126 4.042-11.708 1.084-24.666-7.666-33.334-8.582-8.708-21.584-11.708-33.248-7.582-70.752 24.998-147.292 7.958-199.75-44.5-52.502-52.5-69.584-129.042-44.502-199.792 4.166-11.624 1.166-24.542-7.582-33.292-8.668-8.708-21.626-11.666-33.25-7.542-37.042 13.084-69.25 33.208-95.666 59.584-86.418 86.42-97.71 219.544-34.544 318.586h81.96z"/></svg>