<svg viewBox="0 0 1195 1195" xmlns="http://www.w3.org/2000/svg"><path d="M383.317 636.501l60.416 60.416c39.34-39.339 93.653-63.744 153.6-63.744s114.261 24.405 153.6 63.744l60.416-60.416c-54.784-54.784-130.432-88.661-214.016-88.661s-159.232 33.877-214.016 88.661zm214.016-283.349c-137.344 0-261.675 55.68-351.659 145.664l60.501 60.501c74.581-74.624 177.58-120.832 291.157-120.832s216.576 46.208 291.157 120.832l60.501-60.501c-89.984-89.984-214.315-145.664-351.659-145.664zm0 372.181c-35.328 0-64 28.672-64 64s28.672 64 64 64 64-28.672 64-64-28.672-64-64-64z"/></svg>