<svg viewBox="0 0 1537 1537" xmlns="http://www.w3.org/2000/svg"><path d="M963.464 1302.714L794.893 905.571q-14.286 28-90.571 174.571t-113.429 222.571q-.571.571-15.714.286t-15.143-.857q-46.857-110.286-146-335.429T265.75 626.142q-12-28.571-38-61.429t-59.143-57.429-58.286-24.571q0-2.857-.286-13.714t-.286-15.429h333.143v28.571q-22.286 1.143-45.429 9.143t-38 24.571-5.714 36.571q14.857 33.714 123.714 285.143t134.571 308.571q17.714-34.857 80-152.286t74.857-141.429q-10.857-22.286-72-160.571t-77.714-168.571q-21.714-39.429-114.857-40.571v-28.571l293.143.571v26.857q-34.286 1.143-53.429 14.286t-7.143 39.429q18.857 40 49.714 108.286t49.143 107.143q62.857-122.286 98.857-207.429 13.714-31.429-5.714-45.429t-73.714-15.143q.571-4 .571-14.286v-13.714q36.571 0 97.429-.286t102.857-.571 52.857-.286v28q-35.429 1.143-68 18.857t-51.429 46.286L865.748 799.283q7.429 18.857 72.857 165.714t69.429 156.571l252-581.143q-8-21.714-28.286-35.714t-37.143-18-31.714-4.571v-28.571l262.857 2.286.571 1.143-.571 25.143q-79.429 2.286-114.857 82.857-300.571 694.857-319.429 737.714h-28z"/></svg>