<svg viewBox="0 0 1195 1195" xmlns="http://www.w3.org/2000/svg"><path d="M947.333 448c-53 0-96 43-96 96 0 11.292 2.334 21.916 5.876 32H243.333c-17.666 0-32 14.334-32 32s14.334 32 32 32h704c53 0 96-43 96-96s-43-96-96-96zm-704 64h384c53 0 96-43 96-96s-43-96-96-96-96 43-96 96c0 11.292 2.334 21.916 5.876 32H243.333c-17.666 0-32 14.334-32 32s14.334 32 32 32zm512 192c-1.876 0-3.668.416-5.582.582-1.25-.082-2.292-.582-3.542-.582H252.501c-22.75 0-41.168 14.334-41.168 32s18.418 32 41.168 32H665.21c-3.542 10.084-5.876 20.752-5.876 32 0 53 43 96 96 96s96-43 96-96-43-96-96-96z"/></svg>