<svg viewBox="0 0 1195 1195" xmlns="http://www.w3.org/2000/svg"><path d="M919.417 396.166c-47.958-49.084-114.25-77.542-183.46-77.542-69.124 0-135.376 28.458-183.33 77.542-105.626 4.918-190.042 92.376-190.042 199.168 0 109.916 89.418 199.332 199.376 199.332 11.668 0 23.208-1 34.542-2.998 41.458 27.082 89.834 41.708 139.458 41.708 49.708 0 98.126-14.626 139.544-41.708a199.966 199.966 0 0 0 34.582 2.998c109.874 0 199.25-89.416 199.25-199.332-.004-106.792-84.38-194.25-189.92-199.168zm-9.334 334.5c-16.624 0-32.75-2.998-48-8.834-35 30.5-79.5 47.544-126.126 47.544-46.498 0-90.998-17.044-125.998-47.544-15.25 5.836-31.5 8.834-48 8.834-74.624 0-135.376-60.75-135.376-135.332 0-74.626 60.75-135.376 135.376-135.376 6.376 0 12.75.458 19.042 1.376 36.208-49.166 93.082-78.708 154.956-78.708 61.876 0 118.876 29.542 155.002 78.708a131.708 131.708 0 0 1 19.124-1.376c74.624 0 135.25 60.75 135.25 135.376 0 74.582-60.624 135.332-135.25 135.332zM373.333 768h-256c-17.666 0-32 14.334-32 32s14.334 32 32 32h256c17.666 0 32-14.334 32-32s-14.334-32-32-32zm-256-64h128c17.666 0 32-14.334 32-32s-14.334-32-32-32h-128c-17.666 0-32 14.334-32 32s14.334 32 32 32zm64-128h128c17.666 0 32-14.334 32-32s-14.334-32-32-32h-128c-17.666 0-32 14.334-32 32s14.334 32 32 32z"/></svg>