<svg viewBox="0 0 1195 1195" xmlns="http://www.w3.org/2000/svg"><path d="M1075.333 510h-163.25c-16.126-143.584-136.874-256-284.75-256-99.624 0-187.5 50.916-239.25 128h-208.75c-17.666 0-32 14.334-32 32s14.334 32 32 32H357c-7.248 20.416-11.958 41.792-14.416 64h-99.25c-17.666 0-32 14.334-32 32s14.334 32 32 32h99.25c2.458 22.168 7.168 43.624 14.416 64H185.165c-20.914 0-37.832 14.334-37.832 32s16.918 32 37.832 32h202.918c51.75 77.124 139.624 128 239.25 128 99.624 0 187.5-50.876 239.248-128h74.92c20.914 0 37.832-14.334 37.832-32s-16.918-32-37.832-32h-43.834c7.248-20.376 11.916-41.832 14.416-64h163.25c17.666 0 32-14.334 32-32s-14.334-32-32-32zm-649.542-64h201.542c17.666 0 32-14.334 32-32s-14.334-32-32-32H471.041c40.418-39.458 95.458-64 156.292-64 112.582 0 205.084 83.75 220.75 192h-441.5c3.25-22.624 9.668-44.084 19.208-64zm201.542 320c-60.834 0-115.876-24.582-156.292-64h312.542c-40.374 39.418-95.416 64-156.25 64zm201.5-128H425.791c-9.54-19.916-15.958-41.376-19.208-64h441.5c-3.25 22.624-9.668 44.084-19.25 64z"/></svg>