<svg viewBox="0 0 1195 1195" xmlns="http://www.w3.org/2000/svg"><path d="M919.417 205.584C871.457 156.458 805.167 128 735.957 128c-69.124 0-135.376 28.458-183.33 77.584-105.626 4.876-190.042 92.334-190.042 199.084 0 109.956 89.418 199.416 199.376 199.416a198.81 198.81 0 0 0 34.542-3c41.458 27.042 89.834 41.666 139.458 41.666 49.708 0 98.126-14.624 139.544-41.666 11.414 1.998 22.916 3 34.582 3 109.874 0 199.25-89.46 199.25-199.416-.004-106.752-84.38-194.252-189.92-199.084zM373.333 577.376h-256c-17.666 0-32 14.292-32 32 0 17.706 14.334 32 32 32h256c17.666 0 32-14.294 32-32 0-17.708-14.334-32-32-32zm-256-64h128c17.666 0 32-14.292 32-32s-14.334-32-32-32h-128c-17.666 0-32 14.292-32 32s14.334 32 32 32zm64-128h128c17.666 0 32-14.292 32-32s-14.334-32-32-32h-128c-17.666 0-32 14.292-32 32s14.334 32 32 32zm352 446.624c0 35.376 28.624 64 64 64s64-28.624 64-64-64-128-64-128-64 92.624-64 128zm256 128c0 35.376 28.624 64 64 64s64-28.624 64-64-64-128-64-128-64 92.624-64 128z"/></svg>