<svg viewBox="0 0 1195 1195" xmlns="http://www.w3.org/2000/svg"><path d="M378.521 64l-69.188 137.234L240.145 64h-88.248l124.71 217.314.726-.43V448h64V280.884l.726.43L466.77 64zm186.812 128c17.346 0 32 14.654 32 32v128c0 17.346-14.654 32-32 32s-32-14.654-32-32V224c0-17.346 14.654-32 32-32zm0-64c-52.8 0-96 43.2-96 96v128c0 52.8 43.2 96 96 96s96-43.2 96-96V224c0-52.8-43.2-96-96-96zm288 0v251.968c-27.922 23.288-64 37.332-64-45.634V128h-64v219.324h.096c.986 52.91 12.142 148.168 127.904 70.712V448h64V128h-64zm96 640c-17.644 0-32 14.356-32 32v32h64v-32c0-17.644-14.356-32-32-32zm-288 32v168c21.666 21.666 64 24 64-8V810c0-32-32-42-64-10zM1104.1 645.54c-2.792-36.862-16.046-66.942-39.778-90.244-23.726-23.298-54.08-35.994-91.068-38.08C903.47 513.738 743.801 512 603.537 512c-140.266 0-311.294 1.738-381.078 5.216-36.986 2.086-67.342 14.782-91.068 38.08-23.728 23.302-36.988 53.382-39.778 90.244-4.188 75.116-6.28 102.352-6.28 139.91 0 37.56 2.092 93.894 6.28 169.012 2.792 36.862 16.05 66.944 39.778 90.244 23.726 23.298 54.082 35.992 91.068 38.08 69.782 3.476 240.81 5.214 381.078 5.214 140.266 0 299.934-1.738 369.716-5.214 36.988-2.088 67.342-14.782 91.068-38.08 23.73-23.3 36.986-53.382 39.778-90.244 3.49-62.598 5.234-118.934 5.234-169.012 0-50.076-1.744-77.314-5.234-139.91zM277.333 1024h-64V704h-64v-64h192v64h-64v320zm256 0h-64v-29.962c-121.666 68.294-126.918 2.198-127.904-50.712h-.096V768h64v176.334c0 38.666 36.078 34.924 64 11.634V768h64v256zm256-64.914c0 66.892-68.504 86.402-128 34.39V1024h-64V640h64v104c64-64 128-40 128 24v191.086zm256-127.086v32h-128v64c0 17.644 14.356 32 32 32s32-14.356 32-32v-32h64v32c0 52.934-43.066 96-96 96s-96-43.066-96-96V800c0-52.934 43.066-96 96-96s96 43.066 96 96v32z"/></svg>