<svg xmlns="http://www.w3.org/2000/svg" data-tags="remove-circle, cancel, close, remove, delete" data-du="" viewBox="0 0 1200 1200"><path d="M104.313 0v699.844H0v254.062h367.281V699.844H262.97V0H104.313zM520.75 0v451.75H416.344v254.063h367.312V451.75H679.313V0H520.75zm416.281 0v201.625H832.72v254.063H1200V201.625h-104.313V0H937.032zm-51.093 252.031h260.843v50.438H885.938V252.03zm51.093 246.094V1200h158.657V498.125H937.03zm-467.437 4.031h260.812v50.438H469.594v-50.438zm51.156 244.031V1200h158.563V746.187H520.75zM53.219 750.22h260.844v50.437H53.219V750.22zm51.125 246.093V1200H263V996.312H104.344z"/></svg>