<svg xmlns="http://www.w3.org/2000/svg" data-tags="remove-circle, cancel, close, remove, delete" viewBox="0 0 1200 1200" data-du=""><path d="M709.515.007c-.547.012-1.094.039-1.637.063-32.364 1.444-64.713 31.74-70.976 91.666l-7.872 697.99c-5.189 125.227-142.08 167.03-205.81 97.118-75.037 97.223-204.71 19.813-213.776-91.321-14.126-83.9-28.78-167.831-41.943-251.816-2.542-26.818 2.413-54.485 15.745-79.605l-65.591-225.719c-23.02-68.16-128.593-72.87-116.728 24.78l141.635 793.292c12.174 65.204 48.564 138.617 129.828 143.545h434.102c35.847 0 63.164-6.978 81.965-20.896 161.44-121.679 132.631-373.001 353.995-468.794 51.953-31.315 83.29-129 29.631-168.545-88.635-79.617-317.355 62.572-357.144 205.92L779.83 94.336C777.496 32.267 744.811.52 711.153.007a45.6 45.6 0 0 0-1.638 0zM490.48 388.32a88.425 88.425 0 0 0-7.872.438c-34.676 3.444-65.704 27.55-65.969 76.66l27.553 309.24c2.336 52.706 43.064 90.058 80.453 89.818 32.66-.21 62.784-29.106 62.505-101.566l-10.517-304.008c-4.7-45.342-46.472-70.981-86.153-70.582zm-198.41 68.452c-4.7.062-9.36.59-13.949 1.566-33.287 7.082-61.577 38.258-54.255 94.517l44.588 266.164c11.993 43.965 41.72 60.28 69.023 54.636 30.867-6.38 58.643-40.821 54.255-95.08l-26.23-257.048c-6.894-43.325-40.535-65.195-73.432-64.755z"/></svg>