<svg xmlns="http://www.w3.org/2000/svg" data-tags="remove-circle, cancel, close, remove, delete" data-du="" viewBox="0 0 1200 1200"><path d="M0 99.87v1000.26h100.26V99.87H0zm186.135 0v1000.26h24.09V99.87h-24.09zm57.883 0v1000.26h76.22V99.87h-76.22zm153.658 0v1000.26h32.526V99.87h-32.526zm118.449 0v1000.26h24.04V99.87h-24.04zm34.379 0v1000.26h99.626V99.87h-99.626zm159.411 0v1000.26h50.18V99.87h-50.18zm149.025 0v1000.26h11.119V99.87H858.94zm87.63 0v1000.26h33.502V99.87H946.57zm119.376 0v1000.26h24.09V99.87h-24.09zm34.428 0v1000.26H1200V99.87h-99.626z"/></svg>