<svg xmlns="http://www.w3.org/2000/svg" data-tags="remove-circle, cancel, close, remove, delete" data-du="" viewBox="0 0 1200 1200"><path d="M510.202 1050.983c0 82.3-66.717 149.017-149.017 149.017s-149.018-66.717-149.018-149.018c0-82.3 66.717-149.017 149.018-149.017 82.3 0 149.017 66.717 149.017 149.018zm0-450.983c0 82.3-66.717 149.017-149.017 149.017S212.167 682.3 212.167 600s66.717-149.017 149.018-149.017c82.3 0 149.017 66.717 149.017 149.017zm0-450.983c0 82.3-66.717 149.018-149.017 149.018s-149.018-66.717-149.018-149.018C212.167 66.717 278.884 0 361.185 0c82.3 0 149.017 66.717 149.017 149.017zm477.63 901.966c0 82.3-66.716 149.017-149.017 149.017-82.3 0-149.017-66.717-149.017-149.018 0-82.3 66.717-149.017 149.017-149.017s149.018 66.717 149.018 149.018zm0-450.983c0 82.3-66.716 149.017-149.017 149.017-82.3 0-149.017-66.717-149.017-149.017s66.717-149.017 149.017-149.017S987.833 517.7 987.833 600zm0-450.983c0 82.3-66.716 149.018-149.017 149.018-82.3 0-149.017-66.717-149.017-149.018C689.798 66.717 756.515 0 838.815 0s149.018 66.717 149.018 149.017z"/></svg>