<svg xmlns="http://www.w3.org/2000/svg" data-tags="remove-circle, cancel, close, remove, delete" viewBox="0 0 1200 1200" data-du=""><path d="M1093.636 0L683.919 409.716c-29.44-16.92-67.651-12.834-92.81 12.325-21.045 21.044-27.336 51.225-18.931 77.762-57.81-29.55-124.29-34.53-191.205-5.992C255.457 556.096 168.86 685.686 0 700.745c12.889 26.535 29.579 56.125 50.049 88.725 71.005 11.18 140.925-11.4 195.558-67.14-21.22 66.046-73.074 115.338-143.2 141.02 18.196 24.26 39.008 49.729 62.51 76.264 80.851-27.028 109.762-64.018 34.115 36.294 31.904 33.138 66.075 68.28 108.064 97.849 18.654-68.878 68.928-121.768 140.953-148.987-55.188 51.726-77.289 126.649-63.668 206.933 41.698 28.051 79.998 50.86 114.873 68.297 29.705-127.434 116.39-259.615 206.934-380.972 29.215-61.498 24.482-127.952-6.605-191.407 26.684 8.698 57.168 2.481 78.375-18.725 25.16-25.16 29.245-63.37 12.325-92.81L1200 106.368 1093.638.01z"/></svg>