<svg xmlns="http://www.w3.org/2000/svg" data-tags="remove-circle, cancel, close, remove, delete" viewBox="0 0 1200 1200" data-du=""><path d="M600 0C268.635 0 0 268.635 0 600s268.635 600 600 600 600-268.635 600-600S931.365 0 600 0zM389.352 221.555h62.257v118.58h-62.257v-118.58zm359.033 0h62.183v118.58h-62.183v-118.58zm-486.336 56.982h82.838v106.054h151.172V278.537H703.85v106.054h151.245V278.537h82.837v166.034H262.048V278.537zm0 209.618h675.886v490.283H262.049V488.155zm265.498 113.306c-47.488.244-92.28 24.558-93.456 79.101h54.126c.25-21.632 13.48-35.315 37.573-36.767 22.618.293 32.146 16.909 33.18 40.21-.271 31.679-36.784 36.37-63.356 35.816v42.774c16.255.016 34.88-.78 51.563 6.152 12.932 5.732 18.37 20.944 18.383 35.816-.241 24.62-11.823 43.855-41.088 45.85-23.02-.32-34.207-18.311-35.376-41.968h-55.005c0 56.191 31.153 84.301 93.456 84.301 22.094-.151 44.638-8.405 63.282-23.145a81.44 81.44 0 0 0 29.736-61.157c-.213-36.175-23.544-58.435-58.96-67.676 18.87-6.62 38.119-16.89 47.606-36.621 7.58-17.105 4.33-36.706-1.757-55.079-12.944-30.757-45.504-47.268-79.907-47.606zm189.847 5.273c-18.634 18.052-42.22 32.589-70.752 43.653v48.046c24.456-7.278 46.708-19.516 66.798-36.694v225.8h52.44V606.732h-48.486z"/></svg>