<svg xmlns="http://www.w3.org/2000/svg" data-tags="remove-circle, cancel, close, remove, delete" data-du="" viewBox="0 0 1200 1200"><path d="M600 0C268.63 0 0 268.63 0 600s268.63 600 600 600 600-268.63 600-600S931.37 0 600 0zm0 86.93c130.718 0 250.016 48.884 340.616 129.37-66.563 87.81-167.724 146.266-269.036 185.866C616.335 301.12 548.332 194.59 479.103 101.254 517.868 91.89 558.36 86.93 600 86.93zm-218.275 48.632c66.895 100.025 131.657 192.829 190.92 297.873-149.748 38.792-318.895 62.06-475.152 62.461 32.945-159.88 140.294-292.564 284.232-360.334zM997.53 275.608c71.56 87.59 114.718 199.269 115.502 321.01-118.663-23.374-236.687-29.539-356.877-17.439-13.539-33.69-29.874-65.683-45.555-100.19 103.609-41.787 214.344-113.31 286.93-203.381zM614.286 512.804c12.86 27.336 27.734 56.291 41.68 85.904-167.102 73.683-344.815 172.172-437.12 344.757C136.845 852.525 86.93 732.091 86.93 600c0-5.016.085-10.026.228-15.008 178.986-.868 354.622-23.269 527.128-72.188zm497.036 129.901zm-225.911 9.992c74.603-.232 151.623 10.19 221.276 28.496-22.78 143.31-104.914 266.844-220.403 344.642-27.552-125.257-53.8-245.099-100.19-365.957 31.994-4.77 65.406-7.075 99.317-7.18zm223.936 9.309c-.35 2.904-.704 5.811-1.102 8.7.4-2.896.75-5.789 1.102-8.7zM691.11 683.32c47.318 122.162 84.457 257.458 109.308 389.134-61.575 26.156-129.3 40.616-200.418 40.616-118.664 0-227.9-40.302-314.817-107.941C378.098 854.345 522.01 740.299 691.11 683.32z"/></svg>