<svg xmlns="http://www.w3.org/2000/svg"><path d="M754.722 199.33c-65.372.001-119.224 19.023-161.554 57.066-42.331 37.51-69.659 92.165-81.982 163.966h323.911v141.46H499.13l-1.607 28.131v37.776l1.607 26.524h285.332v143.068H512.793c27.327 130.208 113.328 195.311 258.004 195.311 76.624 0 150.3-15.27 221.032-45.814v205.76C929.67 1184.194 851.17 1200 756.329 1200c-131.28 0-239.25-35.633-323.911-106.899-84.662-71.266-137.977-169.859-159.946-295.78H162.358V654.253H257.2c-2.143-12.323-3.215-28.934-3.215-49.832l1.608-42.6h-93.235v-141.46h106.899c19.825-129.67 73.14-232.014 159.946-307.032C516.008 37.777 624.513 0 754.722 0c100.736.001 195.043 21.97 282.92 65.908l-78.767 186.47c-36.974-16.61-71.535-29.47-103.684-38.58-32.15-9.644-65.64-14.467-100.469-14.468" font-size="1646.082" font-weight="700" letter-spacing="0" word-spacing="0" font-family="Open Sans"/></svg>