<svg xmlns="http://www.w3.org/2000/svg" data-tags="remove-circle, cancel, close, remove, delete" data-du="" viewBox="0 0 1200 1200"><path d="M779.843 599.925c0 95.33-80.665 172.612-180.169 172.612s-180.169-77.281-180.169-172.612c0-95.332 80.665-172.613 180.169-172.613s180.169 77.281 180.169 172.613zM600 240.52c-103.026.457-209.814 25.538-310.904 73.556-75.058 37.122-148.206 89.497-211.702 154.141C46.209 501.218 6.43 549 0 599.981c.76 44.161 48.13 98.67 77.394 131.763 59.543 62.107 130.786 113.017 211.702 154.18 94.271 45.75 198.616 72.09 310.904 73.555 103.123-.463 209.887-25.833 310.866-73.556 75.058-37.122 148.244-89.535 211.74-154.18 31.185-32.998 70.962-80.781 77.394-131.762-.76-44.161-48.13-98.67-77.394-131.763-59.543-62.107-130.823-112.98-211.74-154.141C816.644 268.36 712.042 242.2 600 240.52zm-.076 89.247c156.119 0 282.675 120.994 282.675 270.251 0 149.257-126.556 270.25-282.675 270.25-156.12 0-282.675-120.993-282.675-270.25s126.556-270.25 282.675-270.25z"/></svg>