<svg xmlns="http://www.w3.org/2000/svg" data-tags="remove-circle, cancel, close, remove, delete" data-du="" viewBox="0 0 1200 1200"><path d="M669.727 273.516c-22.89-2.475-46.15-3.894-69.727-4.248-103.026.457-209.823 25.517-310.913 73.535-75.058 37.122-148.173 89.53-211.67 154.175C46.232 529.978 6.43 577.76 0 628.74c.76 44.16 48.153 98.67 77.417 131.763 59.543 62.106 130.754 113.012 211.67 154.174 2.75 1.335 5.51 2.654 8.276 3.955l-75.072 131.101 102.006 60.286 551.415-960.032-98.185-60.008zm232.837 65.479l-74.927 129.858c34.469 44.781 54.931 100.005 54.931 159.888 0 149.256-126.522 270.263-282.641 270.263-6.75 0-13.29-.728-19.922-1.171l-49.585 85.84c22.868 2.448 45.99 4.233 69.58 4.54 103.123-.463 209.861-25.812 310.84-73.535 75.058-37.122 148.247-89.53 211.743-154.174 31.185-33 70.985-80.782 77.417-131.763-.76-44.161-48.153-98.67-77.417-131.763-59.543-62.107-130.827-113.013-211.743-154.175-2.732-1.325-5.528-2.516-8.276-3.808zm-302.637 19.482c6.845 0 13.637.275 20.361.732l-58.081 100.562c-81.514 16.526-142.676 85.88-142.676 168.897 0 20.853 3.84 40.82 10.913 59.326.008.02-.008.052 0 .073l-58.227 100.855c-34.55-44.823-54.932-100.23-54.932-160.181 0-149.257 126.523-270.264 282.642-270.264zm168.97 212.036L638.012 797.271c81.076-16.838 141.797-85.875 141.797-168.603 0-20.474-4.086-39.939-10.914-58.155z"/></svg>