<svg xmlns="http://www.w3.org/2000/svg" data-tags="remove-circle, cancel, close, remove, delete" data-du="" viewBox="0 0 1200 1200"><path d="M600 0C387.135 0 214.538 172.598 214.538 385.462c0 187.75 134.31 344.181 312.055 378.478v124.08H361.278v146.74h165.315V1200h146.74v-165.24h165.315V888.02H673.333V763.94c177.78-34.269 312.13-190.702 312.13-378.478C985.462 172.598 812.864 0 600 0zm0 153.278c128.231 0 232.184 103.953 232.184 232.184 0 128.232-103.953 232.184-232.184 232.184S367.816 513.694 367.816 385.462c0-128.231 103.953-232.184 232.184-232.184z"/></svg>