<svg xmlns="http://www.w3.org/2000/svg" data-tags="remove-circle, cancel, close, remove, delete" data-du="" viewBox="0 0 1200 1200"><path d="M381.64 1200C135.78 1061.434 71.049 930.279 108.057 751.149c27.321-132.272 116.782-239.886 125.36-371.904 38.215 69.544 54.182 119.692 58.453 192.364C413.413 422.695 493.731 216.546 498.487 0c0 0 316.575 186.01 337.348 466.98 27.253-57.913 40.972-149.891 13.718-209.504 81.758 59.615 560.293 588.838-64.818 942.524 117.528-228.838 30.32-537.612-173.738-680.218 13.627 61.32-10.266 290.02-100.543 390.515 25.014-167.916-23.8-238.919-23.8-238.919s-16.754 94.055-81.758 189.067C345.537 947.206 304.407 1039.29 381.64 1200z"/></svg>