<svg xmlns="http://www.w3.org/2000/svg" viewBox="0 0 1200 1200"><path d="M1041.282 793.277c-11.946-19.626-26.879-32.213-44.799-37.761-37.166-11.894-78.649-11.087-103.679 16-27.979 37.061-28.68 92.603 0 124.799 43.744 41.293 121.007 20.886 148.478-19.84v-83.198zm98.559-331.515C1179.946 498.455 1200 550.507 1200 617.92v389.114c-.653 10.752-9.477 19.059-19.199 19.199h-120.318c-10.753-.65-19.061-9.478-19.2-19.199v-11.521c-40.166 30.48-86.642 44.523-133.117 44.8-52.74-1.544-98.588-20.205-134.398-53.119-44.099-44.131-61.091-98.389-61.438-154.238 1.735-61.103 19.384-116.096 62.078-155.517 39.387-33.317 85.968-48.971 133.759-49.279 52.905 0 97.278 14.079 133.117 42.239v-37.12c0-58.879-30.72-88.318-92.158-88.318-47.785 0-91.305 20.053-130.558 60.159-10.422 9.223-25.115 5.606-30.72-5.12l-47.359-81.919c-4.267-8.533-2.986-16.213 3.84-23.039 29.014-29.014 62.719-50.986 101.118-65.919 95.16-33.015 222.168-31.195 294.394 32.639zm-787.188-63.999l-84.479 302.075h170.237l-85.758-302.075zm351.994 595.191c1.706 5.12 2.561 8.533 2.561 10.24-.359 11.383-9.095 19.069-19.2 19.198H536.971c-9.387 0-15.36-4.692-17.92-14.079l-42.239-148.478H229.775l-42.239 148.478c-2.56 9.387-8.96 14.079-19.2 14.079H19.858c-15.959-1.328-21.994-11.124-19.199-24.318l250.876-824.308c3.414-9.386 9.813-14.08 19.2-14.08h165.118c9.386 0 15.785 4.694 19.199 14.08l249.595 819.188z"/></svg>