<svg xmlns="http://www.w3.org/2000/svg"><path d="M676.062 0c105.192.001 210.384 22.119 315.577 66.352l-75.253 186.11c-84.694-34.524-158.059-51.787-220.095-51.788-42.077.001-74.444 12.139-97.1 36.413-22.657 23.737-33.986 57.991-33.985 102.765v156.17h303.439V673.23h-303.44V788.94c0 91.707-40.728 158.598-122.184 200.675h580.984V1200h-848.01V999.326c55.563-23.736 93.594-50.978 114.093-81.727 21.038-30.748 31.557-73.094 31.557-127.04V673.23H177.613V496.023h144.032V338.233c0-108.428 30.749-191.772 92.246-250.033C475.927 29.4 563.317 0 676.062 0" font-size="1657.181" font-weight="700" letter-spacing="0" word-spacing="0" font-family="Open Sans"/></svg>