<svg xmlns="http://www.w3.org/2000/svg" viewBox="0 0 1200 1200"><path d="M750.588 371.765l230.589-145.882L755.294 0 609.412 324.706 524.706 70.588 298.824 221.176l188.235 150.588H58.824v301.177h75.294V1200h931.764V672.941h75.295V371.765H750.588zm23.756-272.854l118.195 118.195-241.099 152.89L774.344 98.911zm-279.831 59.675l66.739 200.216-166.848-133.477 100.109-66.739zm30.193 966.12H209.412v-475.35h315.294v475.35zm0-527.059H134.118V447.059h390.588v150.588zm465.882 527.059H675.294v-475.35h315.294v475.35zm75.294-527.059H675.294V447.059h390.588v150.588z"/></svg>