<svg xmlns="http://www.w3.org/2000/svg" data-tags="remove-circle, cancel, close, remove, delete" data-du="" viewBox="0 0 1200 1200"><path d="M600 0C268.63 0 0 268.63 0 600s268.63 600 600 600 600-268.63 600-600S931.37 0 600 0zM251.147 335.815h697.706v528.37H251.147v-528.37zm85.767 85.035v358.3h526.172v-358.3H336.914zm447.656 28.344l58.96 34.058-121.948 211.523-32.227 56.03-27.978-58.3-43.579-91.04-64.16 99.975-23.365 36.475-29.956-31.42-38.159-40.138-62.11 51.856-43.652-52.295 86.573-72.29 24.463-20.435 22.046 23.072 30.249 31.86 73.681-114.844 32.96-51.342 26.44 55.078 42.04 87.744 89.722-155.567z"/></svg>