<svg xmlns="http://www.w3.org/2000/svg" data-tags="remove-circle, cancel, close, remove, delete" data-du="" viewBox="0 0 1200 1200"><path d="M600 0C268.63 0 0 268.63 0 600s268.63 600 600 600 600-268.63 600-600S931.37 0 600 0zm-1.216 333.625c55.343.727 101.183 45.781 116.414 103.191 5.806 23.425 6.461 47.189.608 71.999-8.827 34.928-26.498 69.048-59.423 90.007l47.987 22.796 114.02 55.205c11.199 4.8 16.792 14.4 16.792 28.8v110.372c0 22.763 1.808 42.392-26.405 50.418H388.792c-27.134-.39-28.258-27.874-27.622-50.418V705.623c0-14.4 6.01-24.415 18.01-30.016l117.59-53.989L542.401 600c-20.8-13.6-37.202-32.383-49.202-56.383-14.41-31.683-20.123-72.814-9.612-110.41 13.288-50.963 54.904-96.75 115.197-99.583zm-195.592 50.38c17.6 0 33.586 5.215 47.986 15.615-3.994 11.199-7.376 23.009-10.182 35.41-2.8 12.399-4.218 25.38-4.218 38.982 0 20 2.797 39.2 8.397 57.599 5.598 18.4 13.61 35.217 24.012 50.418-4.8 6.4-11.186 11.993-19.187 16.793l-88.83 40.805c-12 6.4-21.599 15.376-28.799 26.976-7.2 11.6-10.79 24.62-10.79 39.02v110.372h-87.576c-12.705-.198-21.285-13.002-21.618-26.368V685.22c0-12 4.384-20.012 13.183-24.012L358.777 600c-34.416-21.157-51.02-59.395-52.773-101.976.606-52.461 34.991-109.66 97.188-114.02zm393.579 0c55.29.874 95.228 55.692 97.226 114.02-.304 38.595-15.37 75.862-50.418 100.797l130.814 62.386c8.8 4.8 13.183 12.813 13.183 24.012v104.408c-.132 12.391-6.82 25.102-21.58 26.367h-90.008V705.623c0-14.4-3.59-27.42-10.79-39.02-7.2-11.6-16.8-20.576-28.8-26.975-37.303-17.339-80.146-29.784-108.016-58.815 20.8-32 31.193-67.6 31.193-106.8 0-24.801-4.384-49.215-13.184-73.215 14.451-9.542 31.558-16.525 50.38-16.793z"/></svg>