<svg xmlns="http://www.w3.org/2000/svg" data-tags="remove-circle, cancel, close, remove, delete" data-du="" viewBox="0 0 1200 1200"><path d="M596.847 188.488c-103.344 0-187.12 97.81-187.12 218.465 0 83.678 40.295 156.352 99.468 193.047l-68.617 31.801-182.6 84.688c-17.64 8.821-26.443 23.779-26.443 44.947v201.102c1.45 25.143 16.536 48.577 40.995 48.974h649.62c27.924-2.428 42.05-24.92 42.326-48.974V761.436c0-21.168-8.804-36.126-26.444-44.947l-175.988-84.688-73.138-34.65c56.745-37.522 95.06-108.625 95.06-190.198 0-120.655-83.776-218.465-187.12-218.465zm-301.824 76.824c-44.473 1.689-79.719 20.932-106.497 51.595-29.62 36.918-44.06 80.75-44.339 124.354 1.82 64.478 30.669 125.519 82.029 157.447L21.163 693.997C7.05 699.289 0 711.636 0 731.04V892.44c1.102 21.406 12.216 39.394 33.055 39.704h136.284V761.436c2.255-45.64 23.687-82.53 62.196-100.532l136.246-64.817c10.584-6.175 20.731-14.568 30.433-25.152-56.176-86.676-63.977-190.492-27.773-281.801-23.546-14.41-50.009-23.671-75.418-23.823zm608.587 0c-29.084.608-55.96 11.318-78.04 26.443 35.217 92.138 25.503 196.017-26.482 276.52 11.467 13.23 23.404 23.378 35.752 30.433l130.965 62.197c39.899 21.88 60.47 59.097 60.867 100.531v170.707h140.235c23.063-1.99 32.893-20.387 33.093-39.703V731.042c0-17.64-7.05-29.987-21.163-37.045L976.406 597.38c52.498-38.708 78.86-96.72 79.369-156.117-1.395-47.012-15.756-90.665-44.339-124.354-29.866-32.4-66.91-51.253-107.827-51.596z"/></svg>