<svg xmlns="http://www.w3.org/2000/svg" data-tags="remove-circle, cancel, close, remove, delete" data-du="" viewBox="0 0 1200 1200"><path d="M1200 972.137V556.628c-2.192-43.972-37.788-75.723-76.898-76.252H936.995c-53.196-40.853-90.897-97.553-142.165-138.61-18.093-14.432-32.094-30.48-42.003-48.142-32.213-63.282-12.695-136.955-58.481-187.4-92.008-39.482-202.232 15.751-233.28 102.424-24.404 70.78-8.05 141.366 22.294 203.877-109.856-.18-219.71.708-329.564 1.292C64.363 420.496.594 480.71 0 566.322c.244 86.275 74.623 149.016 153.796 150.565h129.241c4.308 25.417 12.709 48.465 25.202 69.143-7.24 53.145 9.327 105.247 41.357 142.811 17.576 306.751 419.443 124.761 569.951 120.194h203.555c44.281-2.096 76.37-37.59 76.898-76.898zm-277.221 0c-120.425 2.592-531.909 184.659-492.407-76.252-43.546-23.47-60.3-86.285-33.603-126.01-40.566-40.004-52.118-90.264-12.924-129.886-38.772 0-77.114-.216-115.024-.646-37.91-.431-76.252-.646-115.024-.646-44.37-.933-75.122-33.488-75.606-72.375 1.013-45.976 35.913-75.137 75.606-75.606 150.384-.008 298.632-1.277 438.126-1.292-12.554-100.763-132.77-237.585-10.017-316.963 19.652-9.652 35.368-13.749 55.897-10.017 3.446 1.724 5.385 3.447 5.816 5.17.43 1.723 1.077 4.524 1.938 8.4 13.045 79.87 25.221 159.731 87.238 212.602 68.262 52.342 108.514 134.749 186.752 168.012h3.231z"/></svg>