<svg xmlns="http://www.w3.org/2000/svg" data-tags="remove-circle, cancel, close, remove, delete" data-du="" viewBox="0 0 1200 1200"><path d="M227.863 1200h415.509c43.972-2.192 75.723-37.788 76.252-76.898V936.995c40.853-53.196 97.553-90.897 138.61-142.165 14.432-18.093 30.48-32.094 48.142-42.003 63.282-32.213 136.955-12.695 187.4-58.481 39.482-92.008-15.751-202.232-102.424-233.28-70.78-24.404-141.366-8.05-203.877 22.294.18-109.856-.708-219.71-1.292-329.564C779.504 64.363 719.29.594 633.679 0c-86.276.244-149.017 74.623-150.566 153.796v129.241c-25.417 4.308-48.465 12.709-69.143 25.202-53.145-7.24-105.247 9.327-142.811 41.357-306.751 17.576-124.761 419.443-120.194 569.951v203.554c2.096 44.282 37.59 76.37 76.898 76.898zm0-277.221C225.27 802.354 43.205 390.87 304.115 430.372c23.47-43.546 86.285-60.3 126.01-33.603 40.004-40.566 90.264-52.118 129.886-12.924 0-38.772.216-77.114.646-115.024.431-37.91.647-76.252.647-115.024.932-44.37 33.487-75.122 72.374-75.606 45.976 1.013 75.137 35.913 75.606 75.606.008 150.384 1.277 298.631 1.292 438.126 100.763-12.554 237.585-132.77 316.963-10.017 9.652 19.652 13.749 35.368 10.016 55.897-1.723 3.446-3.446 5.385-5.17 5.816-1.722.43-4.522 1.077-8.4 1.938-79.87 13.045-159.73 25.221-212.6 87.238-52.343 68.262-134.75 108.514-168.013 186.752v3.231z"/></svg>