<svg xmlns="http://www.w3.org/2000/svg" data-tags="remove-circle, cancel, close, remove, delete" data-du="" viewBox="0 0 1200 1200"><path d="M1050 975V675c0-248.512-201.487-450-450-450-248.512 0-450 201.488-450 450v300c-11.048 106.906-147.598 78.946-150 0V675C0 343.613 268.65 75 600 75s600 268.613 600 600v300c-11.048 106.906-147.598 78.946-150 0zM262.5 750h75c20.7 0 37.5 16.763 37.5 37.5v375c0 20.738-16.8 37.5-37.5 37.5h-75c-20.7 0-37.5-16.762-37.5-37.5v-375c0-20.737 16.8-37.5 37.5-37.5zm600 0h75c20.737 0 37.5 16.763 37.5 37.5v375c0 20.738-16.763 37.5-37.5 37.5h-75c-20.738 0-37.5-16.762-37.5-37.5v-375c0-20.737 16.762-37.5 37.5-37.5z"/></svg>