<svg xmlns="http://www.w3.org/2000/svg" data-tags="remove-circle, cancel, close, remove, delete" data-du="" viewBox="0 0 1200 1200"><path d="M832.486 46.17c-48.317.496-97.872 9.931-146.357 29.284l-2.201.934-2.202 1.134c-30.735 15.652-58.748 35.233-83.651 58.436C464.052 20.042 250.682 11.63 104.705 143.23l-1.468 1.335-1.334 1.4C-26.152 279.72-23.153 485.712 53.607 648.474l.667 1.267.667 1.334c90.404 167.407 259.216 309.652 413.054 426.596l.4.333.334.267c9.897 7.256 26.914 22.257 46.562 37.023 19.647 14.765 41.839 30.948 74.312 37.156l7.271 1.401 7.338-.6c34.082-2.94 47.452-15.524 69.843-29.619 22.39-14.094 47.177-31.986 72.644-51.565 50.203-38.594 102.148-83.079 136.35-114.804.442-.408 1.167-.996 1.602-1.4.07-.06.13-.14.2-.2 72.051-61.484 143.423-132.362 203.925-215.733.02-.025.048-.042.066-.067.114-.153.22-.313.334-.467 95.955-129.193 142.502-303.296 86.987-474.825l-1-3.069-1.335-2.868C1111.497 123.88 977.435 44.68 832.486 46.17zM834.22 151.7c104.434-2.402 195.973 53.518 241.415 149.159 41.99 133.896 5.694 270.32-72.51 375.364l-.2.267-.2.267c-54.481 75.18-120.46 140.989-188.85 199.189l-.868.8-.867.8c-30.796 28.667-82.924 73.323-130.547 109.935-23.811 18.306-46.639 34.665-64.373 45.828-6.667 4.198-13.007 7.059-18.21 9.273-5.47-2.989-12.412-7.196-19.613-12.608-14.5-10.897-29.94-24.808-46.762-37.223-.262-.2-.538-.4-.8-.6-149.295-113.554-306.55-251.435-382.17-390.44-61.39-131.154-58.71-288.133 28.018-380.368 117.926-104.852 293.122-82.057 380.5 25.55l42.56 52.365 41.159-53.433c23.682-30.723 51.944-54.21 86.253-72.045 35.963-14.048 71.694-21.29 106.065-22.08z"/></svg>