<svg xmlns="http://www.w3.org/2000/svg"><path d="M109.217 0v52.567C106.194 455.64 53.525 319.939 333.037 600c-284.6 280.454-223.82 149.32-223.82 547.433V1200h981.519v-52.567c2.991-402.971 55.98-268.044-223.408-547.433 284.422-279.638 223.408-149.58 223.408-547.433V0H109.217zM214.35 105.133h771.253c14.357 296.432-18.397 245.502-230.39 457.495L718.252 600l36.96 37.372c236.757 234.1 230.39 153.273 230.39 457.495H214.35c-14.4-296.414 18.597-245.735 230.39-457.906L481.701 600l-36.96-36.961c-236.6-234.336-230.39-153.658-230.39-457.906zM321.126 321.15c90.783 77.596 218.087 111.987 244.764 265.708h50.924C614.68 448.637 770.24 398.088 878.416 321.15c-214.42 23.112-301.874 35.512-557.29 0zm276.797 439.014c-140.023-.882-279.087 70.906-276.386 218.07h557.29c.102-143.634-140.88-217.187-280.904-218.07z"/></svg>