<svg xmlns="http://www.w3.org/2000/svg" data-tags="remove-circle, cancel, close, remove, delete" data-du="" viewBox="0 0 1200 1200"><path d="M600 0C268.63 0 0 268.63 0 600s268.63 600 600 600 600-268.63 600-600S931.37 0 600 0zm-20.361 221.777h40.722v120.044H579.64V221.777zm-166.553 36.035l68.848 98.292-33.399 23.437-68.847-98.291 33.398-23.438zm373.828 0l33.398 23.438-68.847 98.291-33.399-23.437 68.848-98.292zM600 374.634c99.754 0 180.615 60.549 180.615 135.278L678.003 820.68H521.997L419.385 509.912c0-74.73 80.867-135.278 180.615-135.278zm-324.39 36.035l112.793 41.089-13.989 38.305-112.72-41.088 13.916-38.306zm648.78 0l13.916 38.306-112.793 41.088-13.916-38.305 112.793-41.09zM382.983 585.938l10.547 39.404-115.942 31.054-10.547-39.404 115.942-31.054zm434.034 0l115.942 31.054-10.547 39.404-115.942-31.054 10.547-39.404zm-297.29 257.446h160.546v53.98H519.727v-53.98zm0 80.86h160.546v53.979H519.727v-53.98z"/></svg>