<svg xmlns="http://www.w3.org/2000/svg" data-tags="remove-circle, cancel, close, remove, delete" data-du="" viewBox="0 0 1200 1200"><path d="M0 0v342.26h355.225c54.647-70.087 140.227-115.282 236.499-115.282 96.277 0 181.925 45.188 236.572 115.283H1200V0H0zm960.278 50.903h112.207c39.947 0 72.07 32.197 72.07 72.144v93.97c0 39.946-32.123 72.143-72.07 72.143H960.279c-39.946 0-72.07-32.197-72.07-72.143v-93.97c0-39.947 32.124-72.144 72.07-72.144zm-828.515 1.099h40.942v237.231h-40.942V52.002zm70.385 0h42.188v237.231h-42.188V52.002zm71.631 0h40.943V289.234h-40.943V52.001zm-172.705 6.372v230.86h-42.26V123.046c0-14.37 4.055-27.485 12.158-39.331 8.102-11.839 18.162-20.268 30.102-25.342zm490.21 202.588c-145.562 0-263.598 117.507-263.598 262.353 0 144.847 118.036 262.28 263.598 262.28s263.599-117.433 263.599-262.28c0-144.846-118.037-262.353-263.599-262.353zm0 53.247c116.065 0 210.132 93.611 210.132 209.106 0 115.496-94.067 209.107-210.132 209.107-116.065 0-210.132-93.611-210.132-209.107 0-115.495 94.067-209.106 210.132-209.106zM0 390.747V1200h1200V390.747H859.13c20.129 39.853 31.422 84.892 31.422 132.495 0 163.595-133.803 296.192-298.828 296.192-165.025 0-298.755-132.597-298.755-296.192 0-47.614 11.357-92.634 31.494-132.495H0z"/></svg>