<svg xmlns="http://www.w3.org/2000/svg" data-tags="remove-circle, cancel, close, remove, delete" data-du="" viewBox="0 0 1200 1200"><path d="M600 0C268.63 0 0 268.63 0 600s268.63 600 600 600 600-268.63 600-600S931.37 0 600 0zM392.212 342.847h415.503c27.965 1.893 49.067 22.242 49.438 48.046v416.895c-1.982 29.059-23.122 49.012-49.438 49.365H392.212c-29.04-1.98-49.012-23.074-49.365-49.365V390.893c1.602-27.83 24.77-47.716 49.365-48.046zm69.946 94.628c-14.911.37-24.526 11.846-24.683 24.757V736.45c.387 14.886 11.809 24.6 24.683 24.756h275.61c14.918-.387 24.603-11.852 24.757-24.756V462.232c-.366-14.946-11.816-24.602-24.757-24.757h-275.61z"/></svg>