<svg xmlns="http://www.w3.org/2000/svg" data-tags="remove-circle, cancel, close, remove, delete" data-du="" viewBox="0 0 1200 1200"><path d="M600 0C268.63 0 0 268.63 0 600c0 331.371 268.63 600 600 600 331.371 0 600-268.629 600-600S931.371 0 600 0zM390.156 322.25c40.347.104 61.879 3.768 97.063 15.969 61.92 21.472 114.65 65.88 150.875 127.031 56.368 107.528 105.136 234.599 144.781 318.281 53.083 73.153 161.504 69.769 201.5 25.438 91.953-101.92-47.67-158.69-96.75-175.125-54.96-17.18-119.476-46.854-143.938-97.407-44.838-127.702 37.599-211.41 143.938-208.53 32.992-4.742 95.703 14.374 136.813 80.843l-53.532 29.031c-22.696-24.026-55.043-43.972-86.125-44.25-69.215-9.748-107.115 78.542-65.281 127.594 14.114 14.532 31.36 22.521 96.531 44.594 93.11 31.288 161.002 62.153 166.125 158.125 6.323 129.558-122.361 207.246-252.75 177.187-52.51-14.256-95.908-51.567-123.5-106.125-48.506-94.569-82.44-210.832-132.406-294.281-41.935-66.639-108.827-103.227-188.625-103.125-97.803-1.316-183.43 75.955-211.156 153.875-20.661 83.009-.388 167.227 57.437 224.125 135.674 120.268 285.37 41.503 344.906-43.219 2.516 0 33.688 67.033 33.688 72.438-40.51 48.754-116.558 90.961-172.406 101.375-29.79 5.195-77.7 5.248-105.938.125C222.148 886.394 131.07 801.942 100.344 692 54.74 508.422 174.698 361.914 312.813 329.875c23.109-6.101 34.475-7.311 69-7.594 2.866-.023 5.653-.038 8.343-.031z"/></svg>