<svg xmlns="http://www.w3.org/2000/svg" viewBox="0 0 1200 1200"><path d="M600 0C268.629 0 0 268.629 0 600s268.629 600 600 600 600-268.629 600-600S931.371 0 600 0zm-4.321 274.658c81.026.386 155.088 52.056 186.548 124.146 10.761 25.109 16.479 50.903 16.479 78.882v71.338h98.291v376.318H303.003V549.023h90.381c-.819-50.406-1.856-108.07 15.82-150.22 34.37-75.91 105.448-124.531 186.475-124.145zm-4.395 119.824c-44.881.945-74.48 35.074-78.809 83.203v71.338h167.139v-72.07c-2.06-45.64-36.603-81.214-83.936-82.471a93.282 93.282 0 0 0-4.394 0z"/></svg>