<svg xmlns="http://www.w3.org/2000/svg" viewBox="0 0 1200 1200"><path d="M600 0C293.176 0 43.523 234.737 43.523 523.305c0 15.135.684 30.436 2.042 45.638L56.5 798.955l351.616-28.87-10.936-229.866c-.474-5.497-.802-11.281-.802-16.914 0-105.6 91.37-191.373 203.621-191.373S803.62 417.773 803.62 523.305c0 5.633-.259 11.35-.802 16.914l-10.863 229.866 351.544 28.87 10.936-230.013a514.531 514.531 0 0 0 2.041-45.638C1156.477 234.737 906.824 0 600 0zM419.636 905.905L68.311 936.671l22.965 262.017 351.325-30.766-22.965-262.017zm360.291 1.313l-22.892 262.09L1108.359 1200l22.893-262.017-351.325-30.765z"/></svg>