<svg xmlns="http://www.w3.org/2000/svg" viewBox="0 0 1200 1200"><path d="M727.498 0v167.082h182.347L669.487 405.84c-67.443-43.645-147.834-68.973-234.15-68.973-238.345 0-431.585 193.202-431.585 431.547C3.751 1006.76 196.992 1200 435.337 1200c238.345 0 431.548-193.24 431.548-431.586 0-90.596-27.904-174.67-75.601-244.09l236.321-236.321V468.75h167.082c0-146.475 1.587-322.656 1.561-468.75h-468.75zM435.337 510.575c142.412 0 257.839 115.427 257.839 257.839s-115.427 257.878-257.839 257.878-257.878-115.466-257.878-257.878 115.465-257.839 257.878-257.839z"/></svg>