<svg xmlns="http://www.w3.org/2000/svg" viewBox="0 0 1200 1200"><path d="M364.798 80.329l-30.419 790.778c-40.935-21.006-92.292-30.095-146.179-22.449C72.007 865.114-11.66 952.766 1.329 1044.407c12.992 91.648 117.714 152.585 233.902 136.124 103.119-14.613 180.524-85.303 187.557-165.075l.023.045c.015-.181.026-.452.042-.656.172-2.027.27-4.08.345-6.119 4.327-82.369 30.816-708.027 30.816-708.027l652.415-67.219-29.467 563.479c-41.867-23.303-95.68-33.684-152.264-25.665-116.192 16.473-199.854 104.105-186.863 195.759 12.986 91.638 117.709 152.587 233.901 136.107 105.314-14.906 183.778-88.319 187.895-170.171l.05-.049c2.208-36.783 39.018-886.141 40.318-916.156L364.798 80.329z"/></svg>