<svg xmlns="http://www.w3.org/2000/svg" viewBox="0 0 1200 1200"><path d="M330.889 894.143l-.924 74.683H0v-74.683c0-90.524 76.231-163.034 166.756-163.034s165.299 72.516 164.133 163.034zm-14.193-339.729c0 82.966-66.974 150.224-149.939 150.224-82.967 0-150.508-67.258-150.508-150.224 0-82.967 67.542-150.224 150.508-150.224s149.939 67.257 149.939 150.224zm423.391 328.287l-1.064 86.124h-380.52v-86.124c0-104.395 87.911-188.014 192.306-188.014s190.623 83.627 189.278 188.014zm-16.366-391.779c0 95.678-77.234 173.24-172.912 173.24S377.241 586.6 377.241 490.922c0-95.677 77.89-173.239 173.567-173.239s172.913 77.562 172.913 173.239zm476.261 380.337l-1.206 97.566H767.704v-97.566c0-118.264 99.59-212.991 217.854-212.991s215.948 94.738 214.424 212.991zm-18.54-443.828c0 108.389-87.495 196.255-195.885 196.255-108.389 0-196.626-87.866-196.626-196.255s88.237-196.256 196.626-196.256c108.39 0 195.885 87.867 195.885 196.256z"/></svg>