<svg xmlns="http://www.w3.org/2000/svg" viewBox="0 0 1200 1200"><path d="M1156.8 460.801c-1.741 127.977-57.59 244.043-148 318.399-117.563 89.48-265.186 119.294-397.601 121.6v72.001c-3.547 92.429-57.571 172.648-134.399 207.999-28.249 13.41-59.447 19.088-88 19.2-40.263-.487-79.431-12.662-112-28.8v-208c27.473 19.357 58.955 32.385 90.4 23.2 27.814-10.323 40.547-32.076 40.8-58.4V350.4h203.2v360c46.689-.646 92.747-5.771 135.2-15.2 55.651-13.509 108.655-34.821 148.8-70.4 49.263-46.933 70.78-102.816 71.2-164-.764-90.595-46.352-165.932-116-209.6-78.943-45.167-166.48-60.457-250.4-60.8-90.493 1.983-179.56 19.778-252 64.8-73.984 47.895-113.732 127.091-114.4 205.6 4.699 56.578 19.186 135.352 57.6 171.2L161.6 771.2c-42.053-42.059-69.765-93.552-88-145.601-17.898-55.054-30.173-109.86-30.4-164.8 2.212-133.607 61.584-254.216 155.2-332.8C316.522 35.655 464.832.706 600 0c147.994 2.516 294.258 39.785 403.2 127.2 102.159 86.84 152.695 212.531 153.6 333.601z"/></svg>