<svg xmlns="http://www.w3.org/2000/svg" viewBox="0 0 1200 1200"><path d="M1183.326 997.842l-169.186 167.83c-24.974 25.612-58.078 34.289-90.317 34.328-142.571-4.271-277.333-74.304-387.981-146.215C354.22 921.655 187.574 757.82 82.984 559.832 42.87 476.809-4.198 370.878.299 278.209c.401-34.86 9.795-69.073 34.346-91.543L203.831 17.565c35.132-29.883 69.107-19.551 91.589 15.257l136.111 258.102c14.326 30.577 6.109 63.339-15.265 85.187l-62.332 62.3c-3.848 5.272-6.298 11.271-6.36 17.801 23.902 92.522 96.314 177.799 160.281 236.486 63.967 58.688 132.725 138.199 221.977 157.022 11.032 3.077 24.545 4.158 32.438-3.179l72.509-73.743c24.996-18.945 61.086-28.205 87.772-12.714h1.272l245.51 144.943c36.04 22.592 39.798 66.252 13.993 92.815z"/></svg>