<svg xmlns="http://www.w3.org/2000/svg" viewBox="0 0 1200 1200"><path d="M600 0c356.454 6.666 597.673 280.025 600 600-6.375 340.923-280.025 597.673-600 600-59.191-.229-116.981-9.442-169.763-24.622 11.231-18.143 22.462-38.229 33.693-60.259 23.687-48.151 34.503-99.721 46.652-149.028 5.184-21.166 12.527-49.028 22.03-83.585 10.367 19.87 29.158 37.148 56.372 51.835 71.035 34.562 159.039 23.144 222.246-9.071 88.677-50.368 140.639-128.602 168.467-216.414 53.582-203.642-15.509-399.439-200.217-478.186-222.715-67.084-471.269 16.639-557.883 215.767-37.816 133.073-35.578 303.927 95.896 359.611 6.915 2.592 13.178 2.592 18.79 0 12.34-7.05 26.651-68.155 23.975-80.993-.864-3.888-3.888-9.288-9.071-16.199-72.663-98.369-28.379-244.762 39.524-318.143 115.467-99.179 295.177-115.283 401.08-20.734 93.934 109.583 72.6 280.129 12.311 388.769-33.313 53.126-78 93.273-138.013 93.952-63.17-1.398-110.815-54.853-94.601-115.334 13.78-70.979 52.015-146.255 53.132-212.527-3.053-55.122-30.656-90.083-81.642-90.713-81.388 10.263-114.243 86.357-115.335 155.508 2.602 33.23 4.618 67.053 19.438 94.601-17.278 69.979-30.67 126.35-40.173 169.114-14.567 75.874-43.132 155.23-47.3 228.726-1.296 24.19-1.513 46.652-.648 67.387C136.638 1044.027 1.314 838.081 0 600 6.476 253.707 280.025 2.327 600 0z"/></svg>