<svg xmlns="http://www.w3.org/2000/svg" viewBox="0 0 1200 1200"><path d="M600 35.306c-331.358 0-600 268.642-600 600 0 254.237 158.227 471.312 381.507 558.642v-52.857c-195.6-84.58-332.482-279.088-332.482-505.784C49.025 330.96 295.654 84.129 600 84.129s550.975 246.83 550.975 551.177c0 226.696-136.882 421.204-332.481 505.784v52.857C1041.866 1106.662 1200 889.61 1200 635.306c0-331.358-268.642-600-600-600zm-.202 119.032c-226.008 0-409.146 183.34-409.146 409.348 0 152.787 83.745 285.818 207.801 356.086v-43.78c-102.395-66.167-170.275-181.276-170.275-312.306 0-205.298 166.323-371.823 371.62-371.823 205.298 0 371.823 166.525 371.823 371.823 0 131.029-68.023 246.139-170.478 312.307v43.779c124.115-70.268 208.002-203.3 208.002-356.086.001-226.01-183.339-409.348-409.347-409.348zM600 286.886c-135.063 0-244.52 109.456-244.52 244.519 0 68.819 28.502 130.89 74.244 175.319v-57.498c-23.163-33.465-36.719-74.055-36.719-117.821 0-114.354 92.639-206.994 206.994-206.994s207.195 92.639 207.195 206.994c0 43.767-13.519 84.356-36.718 117.82v57.298c45.622-44.417 74.042-106.401 74.042-175.118.002-135.063-109.455-244.52-244.518-244.52zm0 127.506c-64.605 0-117.014 52.408-117.014 117.014S535.395 648.218 600 648.218s117.014-52.207 117.014-116.813S664.605 414.392 600 414.392zm0 264.089c-140.271 0-142.031 51.647-142.031 51.647s-.54 150.782 12.105 229.59C482.719 1038.526 535.44 1200 535.44 1200h129.12s52.741-162.076 65.366-240.888 12.105-228.984 12.105-228.984S740.271 678.48 600 678.48z"/></svg>