<svg xmlns="http://www.w3.org/2000/svg" viewBox="0 0 1200 1200"><path d="M471.747 0c-94.045 0-170.273 76.304-170.273 170.44 0 46.55 18.624 88.768 48.842 119.529H0v284.069c31.224-36.108 77.389-59.006 128.842-59.006 94.044 0 170.273 76.304 170.273 170.44 0 94.138-76.229 170.44-170.274 170.44-51.453 0-97.618-22.896-128.842-59.004v403.09h368c-38.914-31.237-63.832-79.198-63.832-133.014 0-94.138 76.229-170.441 170.274-170.441 94.044 0 170.273 76.304 170.273 170.44 0 53.816-24.918 101.777-63.832 133.016h328.253V843.945c30.828 30.945 73.48 50.07 120.59 50.07 94.045 0 170.273-76.305 170.273-170.441 0-94.138-76.229-170.441-170.273-170.441-47.109 0-89.762 19.125-120.59 50.07V289.969H593.179c30.227-30.763 48.843-72.971 48.843-119.528C642.021 76.304 565.792 0 471.747 0z"/></svg>