<svg xmlns="http://www.w3.org/2000/svg" viewBox="0 0 1200 1200"><path d="M600 0C268.629 0 0 268.629 0 600s268.629 600 600 600 600-268.629 600-600S931.371 0 600 0zm-10.84 150.366c72.81.176 131.308 23.199 172.119 65.332s59.525 93.882 59.912 145.679c-.506 54.584-4.674 79.714-48.56 145.679S618.408 668.475 639.258 775.635l-84.229-1.465c-37.307-75.07-27.828-165.374.586-225.146s49.711-78.979 72.803-134.253c23.092-55.274-31.621-117.719-81.519-118.14s-68.904 20.18-84.521 55.444h-68.335c-5.902-3.408-18.63-7.206-14.429-69.507S516.351 150.19 589.16 150.366zm4.248 695.142c56.338 0 101.88 45.615 101.88 101.953s-45.542 102.173-101.88 102.173-101.953-45.835-101.953-102.173 45.615-101.953 101.953-101.953z"/></svg>