<svg xmlns="http://www.w3.org/2000/svg" viewBox="0 0 1200 1200"><path d="M600 0C268.629 0 0 268.629 0 600s268.629 600 600 600 600-268.629 600-600S931.371 0 600 0zm0 252.466c96.469 0 183.717 39.359 246.68 102.832l100.854-71.777v323.73L637.72 503.979l91.26-64.966c-35.33-28.42-80.103-45.483-128.979-45.483-114.03 0-206.47 92.439-206.47 206.47S485.97 806.47 600 806.47c76.528 0 143.194-41.709 178.857-103.564l122.314 70.313C841.148 877.346 728.821 947.534 600 947.534c-191.932 0-347.534-155.603-347.534-347.534S408.068 252.466 600 252.466z"/></svg>