<svg xmlns="http://www.w3.org/2000/svg" viewBox="0 0 1200 1200"><path d="M284.146 943.869v97.896h472.858v-97.896H284.146zm8.004-176.091l-6.773 97.896 471.627 32.017 6.156-97.281-471.01-32.632zm-145.305-40.635V1200H894.305V727.143h-78.193v394.048H225.039V727.143h-78.194zM327.86 559.672l-23.396 94.817 458.697 113.904 23.396-95.433L327.86 559.672zm101.591-237.045l-49.872 84.351 407.594 239.508 49.872-84.967-407.594-238.892zM678.193 97.896l-81.271 54.797 262.903 392.201 81.272-54.182L678.193 97.896zM995.896 0l-97.281 11.698 57.261 469.164 97.28-11.698L995.896 0z"/></svg>