<svg xmlns="http://www.w3.org/2000/svg" viewBox="0 0 1200 1200"><path d="M30.702 440.542V92.705C33.359 39.559 76.183.64 123.407 0h347.836c55.938 3.476 122.726 25.407 158.596 65.89l514.859 573.088c32.341 40.943 33.256 97.599 0 131.779l-403 403c-39.513 35.748-98.469 34.226-131.779 0L96.591 599.137C59.17 554.944 31.218 495.859 30.702 440.542zm150.933-200.734c2.193 51.71 42.984 89.029 88.875 89.641 51.859-2.316 89.028-43.651 89.641-89.641-2.284-51.883-43.829-88.273-89.641-88.875-51.734 2.161-88.275 43.163-88.875 88.875z"/></svg>