<svg xmlns="http://www.w3.org/2000/svg" viewBox="0 0 1200 1200"><path d="M0 467.479V176.805c3.479-45.64 36.064-76.909 77.47-77.47h290.673c38.559.646 74.477 14.596 105.962 33.613l455.537 500.355c27.467 35.271 28.876 79.164 0 108.843l-336.771 335.491c-34.029 29.362-81.72 32.02-108.842 0L55.062 600.01C24.908 562.69.447 513.568 0 467.479zm146.938-115.246c32.17 29.661 78.342 26.916 105.961 0 29.526-31.898 27.06-78.551 0-105.961-31.94-29.075-78.454-26.768-105.961 0-29.199 34.102-28.102 76.707 0 105.961zm359.5-251.618h111.403c46.704 2.88 101.973 21.285 131.892 55.062L1178.7 634.583c28.986 33.471 27.808 81.543 0 110.123l-335.491 335.491c-46.495 26.357-89.107 24.519-117.806-8.964l329.088-329.088c29.633-32.788 26.469-80.076 0-108.843L670.618 203.787c-45.439-56.713-143.265-100.611-164.18-103.172z"/></svg>