<svg xmlns="http://www.w3.org/2000/svg" viewBox="0 0 1200 1200"><path d="M1141.254 797.171H842.888c6.042 48.99 14.657 96.04 25.361 141.725 5.814 86.875-52.362 149.479-113.38 190.955-15.913 9.946-32.82 12.432-50.723 7.459-16.914-5.968-29.346-17.901-37.296-35.804L531.094 797.171H393.845c-36.075-2.562-59.249-27.022-59.674-59.673V134.796c2.563-36.075 27.023-59.249 59.674-59.673h551.979c30.137 2.299 59.875 13.033 84.289 26.853 42.32 25.706 72.122 61.157 85.78 104.429l83.543 519.158c4.976 39.368-23.686 71.11-58.182 71.608zm-923.446 11.934H43.263C19.021 807.35.333 789.81 0 767.334V101.976c1.926-25.64 20.297-41.478 43.263-41.771h174.545c25.302 1.761 42.947 18.557 43.263 41.771v665.358c-2.084 24.651-21.114 41.471-43.263 41.771z"/></svg>