<svg xmlns="http://www.w3.org/2000/svg" viewBox="0 0 1200 1200"><path d="M600 0C446.454 0 292.879 58.549 175.728 175.704c-234.304 234.309-234.304 614.255 0 848.563 234.303 234.31 614.241 234.31 848.544 0 234.304-234.309 234.304-614.255 0-848.563C907.121 58.549 753.546 0 600 0zm0 156.734c113.438 0 226.909 43.228 313.462 129.782 173.105 173.109 173.105 453.829 0 626.938s-453.818 173.109-626.924 0-173.105-453.829 0-626.938C373.091 199.962 486.563 156.734 600 156.734zM538.626 257.44v280.291h-155.34V691.17h308.775V257.44H538.626z"/></svg>