<svg xmlns="http://www.w3.org/2000/svg" viewBox="0 0 1200 1200"><path d="M175.901 775.15c1.34-84.942 24.997-161.363 67.555-227.437 43.851-65.677 92.564-129.583 133.235-190.657 64.563-99.565 119.289-202.698 152.751-308.504C541.073 15.363 567.479-3.406 600 .513c36.243-2.225 61.341 17.08 70.558 48.04 35.234 114.567 91.42 214.71 153.502 308.504 42.394 69.12 90.82 122.467 132.483 190.657 45.203 71.836 67.148 149.555 67.556 227.437-2.581 116.193-48.298 224.208-123.477 300.998C816.77 1156.717 706.456 1199.234 600 1200c-116.136-2.474-223.853-48.567-300.247-123.852-80.402-84.12-123.086-194.44-123.852-300.998zm186.154 93.828c2.783 61.17 51.378 105.853 105.837 106.588 61.716-2.731 105.123-52.149 105.837-106.588 0-21.518-5.505-40.283-16.514-56.296-12.101-15.747-24.03-32.046-33.777-47.664-15.442-25.218-30.541-50.295-38.282-76.938-2.001-10.009-7.756-14.262-17.264-12.761-9.008-2.002-15.013 2.252-18.015 12.761-8.094 28.541-22.238 53.7-37.156 76.938-10.493 17.508-23.07 31.135-34.152 47.664-11.51 16.513-17.015 35.278-16.514 56.296z"/></svg>