<svg xmlns="http://www.w3.org/2000/svg" viewBox="0 0 1200 1200"><path d="M0 384.806h243.816L610.6 85.866v1028.269l-366.784-298.94H0V384.806zm748.41-48.764c72.085 72.084 108.834 159.717 110.247 262.897 0 98.94-36.749 183.746-110.247 254.418l-74.205-76.325c50.883-50.884 76.325-110.954 76.325-180.212 0-70.672-25.442-132.156-76.325-184.453l74.205-76.325zm127.208-125.088c106.008 106.007 159.011 233.922 159.011 383.745 0 149.824-53.003 278.445-159.011 385.866l-78.445-78.445c84.806-83.393 127.209-185.513 127.209-306.36s-42.403-223.675-127.208-308.48l78.444-76.326zM992.227 94.346c65.018 65.018 115.9 140.636 152.649 226.855 36.749 86.22 55.124 177.386 55.124 273.498 0 96.113-18.375 187.633-55.124 274.559s-87.632 162.897-152.649 227.916l-76.325-76.326c117.314-117.314 175.972-259.01 175.972-425.088s-58.657-307.774-175.972-425.088l76.325-76.326z"/></svg>