<svg xmlns="http://www.w3.org/2000/svg" viewBox="0 0 1200 1200"><path d="M476.719 0c-65.602.471-117.577 50.855-120.375 119.094.477 66.402 51.394 117.868 120.375 120.406 61.426-.832 115.989-51.475 119.094-120.406C595.347 52.962 544.729 3.015 476.719 0zM510 266.375c-27.32 0-50.372 9.175-69.156 27.531-15.261 15.318-32.347 49.101-26.875 76.219h-1.281L483.125 709.5c7.265 38.873 39.258 63.938 81.969 66.594 98.116-.27 204.507-2.497 304.781-1.281l169.063 294.563c19.023 40.147 67.734 48.603 103.094 19.219 16.965-16.834 23.826-45.475 12.156-70.438L958.25 677.469c-14.117-29.208-41.97-45.662-76.844-47.375H663.688l-25.594-125.5h170.313c36.819 2.723 63.343-25.375 55.719-64.031-5.602-18.888-25.174-36.279-48.031-37.156H616.313c-10.069-51.463-8.466-82.573-48.031-117.813-16.649-12.807-36.084-19.219-58.282-19.219zm-183.719 145.25a72.873 72.873 0 0 0-16.063 2.031C234.774 443.012 166.901 493.457 114.28 563.5 67.911 628.887 41.987 707.595 40 794.031c.772 102.443 44.761 207.568 123.594 286.875 76.408 72.773 182.465 116.699 296.469 119.094 83.152-.458 166.274-25.016 242.063-73.625 68.07-46.237 121.414-112.588 153.656-195.313 5.977-14.515 11.106-30.758 15.375-48.688 6.25-28.186-9.57-51.084-39.688-60.188-27.394-6.07-51.893 9.045-61.469 38.438a187.143 187.143 0 0 1-11.531 37.125c-21.749 57.507-62.232 107.283-115.906 146-52.185 35.487-114.684 54.813-182.5 56.344-80.65-.574-158.332-31.316-223.469-89.625-55.969-54.264-90.982-131.912-92.844-216.438.358-60.255 19.762-119.715 56.344-173.531 35.875-49.807 86.096-88.272 147.281-113.344 25.783-8.456 39.673-35.15 30.719-64.031-8.649-20.76-29.024-31.807-51.813-31.499z"/></svg>