<svg xmlns="http://www.w3.org/2000/svg" viewBox="0 0 1200 1200"><path d="M600 0C268.629 0 0 268.629 0 600s268.629 600 600 600 600-268.629 600-600S931.371 0 600 0zm163.403 239.868c22.73-.064 45.519 3.784 67.163 11.572L711.108 370.898l32.959 85.034 85.034 32.959L948.56 369.434c24.922 69.263 9.648 149.8-45.85 205.298s-135.962 70.771-205.225 45.85l-339.624 339.55-117.993-117.993 339.551-339.624c-24.922-69.263-9.648-149.726 45.85-205.225 38.155-38.155 88.127-57.281 138.134-57.422zm-430.81 578.54c-13.543 13.542-13.543 35.457 0 48.999 13.542 13.542 35.457 13.542 48.999 0 13.542-13.543 13.542-35.457 0-48.999-14.679-13.344-36.351-12.267-48.999 0z"/></svg>