<svg xmlns="http://www.w3.org/2000/svg" data-tags="remove-circle, cancel, close, remove, delete" data-du="" viewBox="0 0 1200 1200"><path d="M1200 1066.325L978.182 844.507c60.81-87.069 96.743-192.795 96.743-307.045C1074.925 240.63 834.218 0 537.462 0S0 240.63 0 537.462c0 296.833 240.63 537.463 537.462 537.463 114.25 0 220.053-35.933 307.122-96.743L1066.402 1200zM537.386 921.441c-211.99 0-383.902-171.835-383.902-383.902 0-212.067 171.911-383.901 383.902-383.901 212.067 0 383.902 171.834 383.902 383.901.077 212.067-171.758 383.902-383.902 383.902zM307.045 614.243h460.682v-153.56H307.045z"/></svg>