<svg xmlns="http://www.w3.org/2000/svg" viewBox="0 0 8 8"><path d="M4.5 0C3.29 0 2.23.86 2 2 .9 2 0 2.9 0 4c0 .53.2.99.53 1.34.26-.22.6-.34.97-.34.2 0 .39.05.56.13C2.23 4.49 2.8 4 3.5 4c.69 0 1.27.49 1.44 1.13.17-.07.36-.13.56-.13.63 0 1.15.39 1.38.94.64-.17 1.13-.75 1.13-1.44 0-.65-.42-1.29-1-1.5v-.5A2.5 2.5 0 0 0 4.51 0zM3.34 5a.5.5 0 0 0-.34.5v2a.5.5 0 1 0 1 0v-2a.5.5 0 0 0-.59-.5.5.5 0 0 0-.06 0zm-2 1a.5.5 0 0 0-.34.5v1a.5.5 0 1 0 1 0v-1a.5.5 0 0 0-.59-.5.5.5 0 0 0-.06 0zm4 0a.5.5 0 0 0-.34.5v1a.5.5 0 1 0 1 0v-1a.5.5 0 0 0-.59-.5.5.5 0 0 0-.06 0z"/></svg>