<svg xmlns="http://www.w3.org/2000/svg" viewBox="0 0 512 512"><path d="M384 256c-70.7 0-128 57.3-128 128s57.3 128 128 128 128-57.3 128-128-57.3-128-128-128zm85.3 149.3H298.7v-42.7h170.7v42.7zm-256-21.3c0-87 65.2-158.7 149.3-169.2v-1.5c5.5-8 21.3-21.3 21.3-42.7s-21.3-42.7-21.3-53.3C362.7 32 319.2 0 256 0c-60.5 0-106.7 32-106.7 117.3 0 10.7-21.3 32-21.3 53.3s15.2 35.4 21.3 42.7c0 0 0 21.3 10.7 53.3 0 10.7 21.3 21.3 32 32 0 10.7 0 21.3-10.7 42.7L64 362.7C21.3 373.3 0 448 0 512h271.4c-35.5-31.3-58.1-77-58.1-128z"/></svg>