<svg xmlns="http://www.w3.org/2000/svg" viewBox="0 0 512 512"><path d="M256 192c-35.4 0-64 28.6-64 64s28.6 64 64 64 64-28.6 64-64-28.6-64-64-64zm0-42.7c23.5 0 42.7-19.1 42.7-42.7v-64C298.7 19.1 279.5 0 256 0c-23.5 0-42.7 19.1-42.7 42.7v64c0 23.5 19.2 42.6 42.7 42.6zm0 213.4c-23.5 0-42.7 19.1-42.7 42.7v64c0 23.5 19.1 42.7 42.7 42.7 23.5 0 42.7-19.1 42.7-42.7v-64c0-23.6-19.2-42.7-42.7-42.7zm213.3-149.4h-64c-23.5 0-42.7 19.1-42.7 42.7 0 23.5 19.1 42.7 42.7 42.7h64c23.5 0 42.7-19.1 42.7-42.7 0-23.5-19.1-42.7-42.7-42.7zm-320 42.7c0-23.5-19.1-42.7-42.7-42.7h-64C19.1 213.3 0 232.5 0 256c0 23.5 19.1 42.7 42.7 42.7h64c23.5 0 42.6-19.2 42.6-42.7zm242.5 75.4c-16.7-16.6-43.7-16.6-60.4 0-16.6 16.7-16.6 43.7 0 60.4l45.3 45.3c16.6 16.6 43.7 16.6 60.3 0 16.6-16.7 16.6-43.7 0-60.3l-45.2-45.4zM120.2 180.6c16.7 16.6 43.7 16.6 60.4 0 16.6-16.7 16.6-43.7 0-60.4L135.3 75C118.7 58.3 91.6 58.3 75 75c-16.6 16.7-16.6 43.7 0 60.3l45.2 45.3zm271.6 0l45.3-45.3c16.6-16.6 16.6-43.7 0-60.3-16.7-16.6-43.7-16.6-60.3 0l-45.3 45.3c-16.6 16.7-16.6 43.7 0 60.4 16.6 16.5 43.6 16.5 60.3-.1zM120.2 331.4L75 376.7c-16.6 16.6-16.6 43.7 0 60.3 16.7 16.6 43.7 16.6 60.3 0l45.3-45.3c16.6-16.7 16.6-43.7 0-60.4-16.7-16.5-43.7-16.5-60.4.1z"/></svg>