<svg xmlns="http://www.w3.org/2000/svg" viewBox="0 0 512 512"><path d="M310.5 374.8c-8.2-16.9-18.8-29.2-37.1-21.7l-36.1 13.4c-28.9 13.4-43.3 0-57.8-20.2l-65-147.8c-8.2-16.9-3.9-32.8 14.4-40.3l50.5-20.2c18.3-7.6 15.4-23.4 7.2-40.3l-43.3-80.6c-8.2-16.9-25-21-43.3-13.5-36.5 15.1-66.9 38.8-86.5 73.9-24 42.9-12 102.6-7.2 127.7 4.8 25.1 21.6 69.1 43.3 114.2 21.7 45.2 40.7 80.7 57.7 100.8 17 20.1 57.8 75.1 108.3 87.4 41.4 10 86.1 1.6 122.7-13.5 18.4-7.5 18.4-23.4 10.2-40.4l-38-78.9zm200.7-178H333.9l78.8-78.8h-59.1l-98.5 98.5 98.5 98.5h59.1l-78.8-78.8h177.3v-39.4z"/></svg>