<svg xmlns="http://www.w3.org/2000/svg" viewBox="0 0 512 512"><path d="M256 377.8c21-.4 19.3-9.4 41.8-9.1 34.5.6 43.1-13.6 43.5-36.1.5-26.5-31.6-43.8-34.9-51.6-3.3-7.8-25.1-120.7-25.1-120.7s-3.1-8.6-25.3-8.6-25.3 8.6-25.3 8.6-21.9 112.9-25.1 120.7c-3.3 7.8-35.4 25.1-34.9 51.6.4 22.5 9 36.7 43.5 36.1 22.5-.4 20.8 8.7 41.8 9.1zM511.6 20c-35-7-69.4-20-105-19.8-20.4.1-40.9 3.6-61.1 6.9-22.7 3.7-44.7 12-67.3 15.1-7.3 1-14.7 1.4-22.1 1.4-7.4 0-14.8-.4-22.1-1.4-22.7-3.1-44.6-11.4-67.3-15.1C146.5 3.8 125.9.3 105.6.2 69.8 0 35.3 13 .4 20c0 11.9-2.1 27.1 3.1 35.5C8.9 64.1 18 72 20.4 83.7c5.6 27.7 13.5 54.9 23.7 80.9 4.9 12.6 14.2 21.5 24.6 27.6 25 14.6 54.7 16.8 82.1 12.2 39.1-6.6 60.3-40.7 76.5-79.7 6-15.9 6.7-34.2 14.7-48.6 3-5.4 8.5-6 14-5.7 5.6-.3 11.1.2 14 5.7 8 14.5 8.6 32.8 14.7 48.6 16.2 39 37.4 73.2 76.5 79.7 27.5 4.6 57.1 2.5 82.1-12.2 10.4-6.1 19.7-14.9 24.6-27.6 10.1-26 18.1-53.2 23.6-80.9 2.3-11.7 11.4-19.6 16.8-28.2 5.4-8.3 3.3-23.6 3.3-35.5zM204.3 131.2c-19.4 46.8-54.3 56.6-80.1 56.6-10.1 0-20.6-1.5-31.3-4.5-19.1-5.3-33.3-21-40-44.2-9-31-12.7-55.9-11.6-78.3 1.4-29 27.9-34.9 57.3-38.7 13.7-1.8 24.7-2.7 34.6-2.7h.1c13.3 0 23.8 1.2 33.6 3.6 28.5 7 44.7 16.7 50.9 30.5 6.9 15.4 3 37.9-13.5 77.7zm254.8 7.9c-6.7 23.2-21 38.9-40.1 44.2-10.7 3-21.2 4.5-31.3 4.5-25.8 0-60.7-9.8-80.1-56.6-16.5-39.8-20.4-62.3-13.4-77.7 6.2-13.8 22.4-23.5 50.9-30.5 9.7-2.4 20.3-3.6 33.6-3.6h.1c9.9.1 20.9.9 34.6 2.7 29.4 3.9 55.9 9.7 57.3 38.7 1.1 22.4-2.6 47.3-11.6 78.3zm-83.4 297c-68.4-38-110.1-12-119.8-4.8-9.7-7.2-51.3-33.3-119.8 4.8C68.1 474 34 408.7 30 399.1c6.3 15.4 80.4 178 180.5 83.5 15.9-15 31.6-19.1 45.4-18.9 13.8-.1 29.5 4 45.4 18.9 100.1 94.5 174.2-68.2 180.5-83.5-3.9 9.7-38 74.9-106.1 37z"/></svg>