<svg xmlns="http://www.w3.org/2000/svg" viewBox="0 0 512 512"><path d="M469.3 362.7H42.7C19.1 362.7 0 381.8 0 405.3V448c0 23.5 19.1 42.7 42.7 42.7h426.7c23.5 0 42.7-19.1 42.7-42.7v-42.7c-.1-23.5-19.2-42.6-42.8-42.6zM85.3 448H42.7v-42.7h42.7V448zm298.7 0h-21.3v-42.7H384V448zm42.7 0h-21.3v-42.7h21.3V448zm42.6 0H448v-42.7h21.3V448zm0-256H42.7C19.1 192 0 211.1 0 234.7v42.7C0 300.9 19.1 320 42.7 320h426.7c23.5 0 42.7-19.1 42.7-42.7v-42.7c-.1-23.5-19.2-42.6-42.8-42.6zm-384 85.3H42.7v-42.7h42.7v42.7zm298.7 0h-21.3v-42.7H384v42.7zm42.7 0h-21.3v-42.7h21.3v42.7zm42.6 0H448v-42.7h21.3v42.7zm0-256H42.7C19.1 21.3 0 40.5 0 64v42.7c0 23.5 19.1 42.7 42.7 42.7h426.7c23.5 0 42.7-19.1 42.7-42.7V64c-.1-23.5-19.2-42.7-42.8-42.7zm-384 85.4H42.7V64h42.7v42.7zm298.7 0h-21.3V64H384v42.7zm42.7 0h-21.3V64h21.3v42.7zm42.6 0H448V64h21.3v42.7z"/></svg>