<svg xmlns="http://www.w3.org/2000/svg" viewBox="0 0 64 64"><path d="M1792 192v-128q0 -26 -19 -45t-45 -19h-1664q-26 0 -45 19t-19 45v128q0 26 19 45t45 19h1664q26 0 45 -19t19 -45zM1792 576v-128q0 -26 -19 -45t-45 -19h-1664q-26 0 -45 19t-19 45v128q0 26 19 45t45 19h1664q26 0 45 -19t19 -45zM1792 960v-128q0 -26 -19 -45 t-45 -19h-1664q-26 0 -45 19t-19 45v128q0 26 19 45t45 19h1664q26 0 45 -19t19 -45zM1792 1344v-128q0 -26 -19 -45t-45 -19h-1664q-26 0 -45 19t-19 45v128q0 26 19 45t45 19h1664q26 0 45 -19t19 -45z"/></svg>