<svg viewBox="0 0 1792 1792" xmlns="http://www.w3.org/2000/svg"><path d="M1408 1193q0-11-2-16-3-8-38.5-29.5T1279 1098l-53-29q-5-3-19-13t-25-15-21-5q-18 0-47 32.5t-57 65.5-44 33q-7 0-16.5-3.5T981 1157t-17-9.5-14-8.5q-99-55-170.5-126.5T653 842q-2-3-8.5-14t-9.5-17-6.5-15.5T625 779q0-13 20.5-33.5t45-38.5 45-39.5T756 631q0-10-5-21t-15-25-13-19q-3-6-15-28.5T683 492t-26.5-47.5-25-40.5-16.5-18-16-2q-48 0-101 22-46 21-80 94.5T384 631q0 16 2.5 34t5 30.5 9 33 10 29.5 12.5 33 11 30q60 164 216.5 320.5T971 1358q6 2 30 11t33 12.5 29.5 10 33 9 30.5 5 34 2.5q57 0 130.5-34t94.5-80q22-53 22-101zm256-777v960q0 119-84.5 203.5T1376 1664H416q-119 0-203.5-84.5T128 1376V416q0-119 84.5-203.5T416 128h960q119 0 203.5 84.5T1664 416z"/></svg>