<svg viewBox="0 0 1792 1792" xmlns="http://www.w3.org/2000/svg"><path d="M256 597q0-108 37.5-203.5T397 227t152-123 185-78T936 0q158 0 294 66.5T1451 260t85 287q0 96-19 188t-60 177-100 149.5-145 103-189 38.5q-68 0-135-32t-96-88q-10 39-28 112.5t-23.5 95-20.5 71-26 71-32 62.5-46 77.5-62 86.5l-14 5-9-10q-15-157-15-188 0-92 21.5-206.5T604 972t52-203q-32-65-32-169 0-83 52-156t132-73q61 0 95 40.5T937 514q0 66-44 191t-44 187q0 63 45 104.5t109 41.5q55 0 102-25t78.5-68 56-95 38-110.5 20-111 6.5-99.5q0-173-109.5-269.5T909 163q-200 0-334 129.5T441 621q0 44 12.5 85t27 65 27 45.5T520 847q0 28-15 73t-37 45q-2 0-17-3-51-15-90.5-56t-61-94.5-32.5-108T256 597z"/></svg>