<?xml version="1.0" encoding="utf-8"?><svg xmlns="http://www.w3.org/2000/svg" xmlns:xlink="http://www.w3.org/1999/xlink" style="display:none;"><symbol viewBox="0 0 1195 1195" id="si-ant-aliwangwang"><path d="M1062.333 464q-37-88-106-157-68-68-157-106-92-39-193-39-84 0-162 27-39-18-85.5-31.5t-83-18.5-71.5-8.5-51-2.5-22 0q-21 1-32 18t-3 36l87 219q-72 118-72 256 0 101 39 193 38 88 106 157 69 68 158 106 92 39 192 39 101 0 193-39 89-37 157-106 69-68 106-157 39-92 39-193t-39-193zm-432 95q0 17-12 29t-29 12-29-12-12-29v-74q0-17 12-29t29-12 29 12 12 29v74zm238 0q0 17-12 29t-29 12-29-12-12-29v-74q0-17 12-29t29-12 29 12 12 29v74z"/></symbol><symbol viewBox="0 0 1195 1195" id="si-ant-aliwangwang-o"><path d="M169.333 192q44 2 85 9 94 14 162 46l24 12 25-9q68-24 141-24 88 0 168 34 78 33 137.5 92.5t91.5 136.5q34 80 34 168t-34 168q-32 77-92 137t-137 92q-80 34-168 34t-167-34q-78-33-137.5-92.5t-92.5-136.5q-34-80-34-168 0-59 16-116t46-107l17-27-12-29zm-26-64h-12q-21 1-32 18t-3 36l87 219q-72 118-72 256 0 101 39 193 38 88 106 157 69 68 158 106 92 39 192 39 101 0 193-39 89-37 157-106 69-68 106-157 39-92 39-193t-39-193q-37-88-106-157-68-68-157-106-92-39-193-39-84 0-162 28-55-26-123.5-41t-106.5-18-71-3zm487 431q0 17-12 29t-29 12-29-12-12-29v-74q0-17 12-29t29-12 29 12 12 29v74zm238 0q0 17-12 29t-29 12-29-12-12-29v-74q0-17 12-29t29-12 29 12 12 29v74z"/></symbol><symbol viewBox="0 0 1195 1195" id="si-ant-android"><path d="M341.333 859q0 31 21.5 52t51.5 21h37v165q0 23 16 39t38.5 16 39-16 16.5-39V932h74v165q0 23 16 39t39 16 39-16 16-39V932h35q31 0 52-21.5t21-51.5V493h-512v366zm-110-399q-30 0-51.5 21.5t-21.5 51.5v253q0 30 21.5 51.5t51.5 21.5 51.5-21.5 21.5-51.5V533q0-30-21.5-51.5t-51.5-21.5zm506-250l38-64q6-10-4-16-9-6-15 4l-41 66q-50-18-117-18-68 0-118 19l-41-67q-6-10-15.5-4t-3.5 16l39 64q-118 58-118 226v15h512v-15q0-170-116-226zm-258 136q-12 0-20-8.5t-8-20.5 8-20 20-8 20.5 8 8.5 20-8.5 20.5-20.5 8.5zm237 0q-12 0-20.5-8.5t-8.5-20.5 8.5-20 20.5-8 20.5 8 8.5 20-8.5 20.5-20.5 8.5zm247 114q-30 0-51.5 21.5t-21.5 51.5v253q0 30 21.5 51.5t51.5 21.5 51.5-21.5 21.5-51.5V533q0-30-21.5-51.5t-51.5-21.5z"/></symbol><symbol viewBox="0 0 1195 1195" id="si-ant-apple"><path d="M987.333 477q-21-31-49-52.5t-55.5-31-46.5-13.5-36-4q-35-4-75 7.5t-73 25-48 13.5q-17 0-75-22.5t-94-21.5q-65 1-121.5 35.5t-90.5 92.5q-32 57-40 129t5.5 141.5 39.5 133 60 112.5q20 30 34.5 48t36 40 44.5 32.5 46 9.5q30-1 78.5-21.5t89.5-20.5q40 0 88 20.5t81 20.5q25-1 47-11t42.5-30.5 33.5-37.5 34-47q43-64 71-146-8-3-17.5-8t-33-22.5-40.5-38.5-31.5-58-15.5-80q0-36 11.5-69.5t25-53.5 34-39 26.5-23.5 14-9.5zm-186-349q-39 2-81 23.5t-70 54.5q-27 30-41.5 73t-9.5 85q41 3 80.5-17.5t68.5-54.5q28-35 43-78t10-86z"/></symbol><symbol viewBox="0 0 1196 1196" id="si-ant-appstore"><path d="M444.417 1153h-270q-37 0-63-26t-26-63V794q0-37 26-63t63-26h270q37 0 63 26t26 63v270q0 37-26 63t-63 26zm0-576h-270q-37 0-63-26t-26-63V218q0-37 26-63t63-26h270q37 0 63 26t26 63v270q0 37-26 63t-63 26zm576 576h-270q-37 0-63-26t-26-63V794q0-37 26-63t63-26h270q37 0 63 26t26 63v270q0 37-26 63t-63 26zm0-576h-270q-37 0-63-26t-26-63V218q0-37 26-63t63-26h270q37 0 63 26t26 63v270q0 37-26 63t-63 26z"/></symbol><symbol viewBox="0 0 1196 1196" id="si-ant-appstore-o"><path d="M444.417 769q10 0 17.5 7.5t7.5 17.5v270q0 10-7.5 17.5t-17.5 7.5h-270q-10 0-17.5-7.5t-7.5-17.5V794q0-10 7.5-17.5t17.5-7.5h270zm0-64h-270q-37 0-63 26t-26 63v270q0 37 26 63t63 26h270q37 0 63-26t26-63V794q0-37-26-63t-63-26zm0-512q10 0 17.5 7.5t7.5 17.5v270q0 10-7.5 17.5t-17.5 7.5h-270q-10 0-17.5-7.5t-7.5-17.5V218q0-10 7.5-17.5t17.5-7.5h270zm0-64h-270q-37 0-63 26t-26 63v270q0 37 26 63t63 26h270q37 0 63-26t26-63V218q0-37-26-63t-63-26zm576 640q10 0 17.5 7.5t7.5 17.5v270q0 10-7.5 17.5t-17.5 7.5h-270q-10 0-17.5-7.5t-7.5-17.5V794q0-10 7.5-17.5t17.5-7.5h270zm0-64h-270q-37 0-63 26t-26 63v270q0 37 26 63t63 26h270q37 0 63-26t26-63V794q0-37-26-63t-63-26zm0-512q10 0 17.5 7.5t7.5 17.5v270q0 10-7.5 17.5t-17.5 7.5h-270q-10 0-17.5-7.5t-7.5-17.5V218q0-10 7.5-17.5t17.5-7.5h270zm0-64h-270q-37 0-63 26t-26 63v270q0 37 26 63t63 26h270q37 0 63-26t26-63V218q0-37-26-63t-63-26z"/></symbol><symbol viewBox="0 0 1195 1195" id="si-ant-area-chart"><path d="M1077.333 1088h-896q-13 0-22.5-9.5t-9.5-22.5V160q0-13-9.5-22.5t-22.5-9.5-22.5 9.5-9.5 22.5v928q0 26 19 45t45 19h928q13 0 22.5-9.5t9.5-22.5-9.5-22.5-22.5-9.5zm-94-448l-239-239q-9-9-22.5-9t-22.5 9l-139 139-212-212q-7-7-17-8h-22q-13 0-22.5 9.5t-9.5 22.5l2 544q0 27 18.5 45.5t45.5 18.5h576q26 0 45-19t19-45V640z"/></symbol><symbol viewBox="0 0 1195 1195" id="si-ant-arrow-down"><path d="M878.333 870q-9-9-22.5-9t-22.5 9l-172 172V160q0-13-9.5-22.5t-22.5-9.5-22.5 9.5-9.5 22.5v883l-172-172q-9-10-22.5-10t-22.5 10q-10 9-10 22.5t10 22.5l226 227q9 9 22.5 9t22.5-9l227-228q9-9 9-22.5t-9-22.5z"/></symbol><symbol viewBox="0 0 1195 1195" id="si-ant-arrow-left"><path d="M367.333 857q9-9 9-22.5t-9-22.5l-172-172h882q13 0 22.5-9.5t9.5-22.5-9.5-22.5-22.5-9.5h-883l172-172q10-9 10-22.5t-10-22.5q-9-10-22.5-10t-22.5 10l-227 226q-9 9-9 22.5t9 22.5l228 227q9 9 22.5 9t22.5-9z"/></symbol><symbol viewBox="0 0 1196 1196" id="si-ant-arrow-right"><path d="M827.417 858q-9-9-9-22.5t9-22.5l172-172h-882q-13 0-22.5-9.5t-9.5-22.5 9.5-22.5 22.5-9.5h883l-172-172q-10-9-10-22.5t10-22.5q9-10 22.5-10t22.5 10l227 226q9 9 9 22.5t-9 22.5l-228 227q-9 9-22.5 9t-22.5-9z"/></symbol><symbol viewBox="0 0 1195 1195" id="si-ant-arrow-salt"><path d="M530.333 707q-10-10-23-10t-23 10l-335 335V799q0-14-9-23t-23-9q-13 0-22.5 9t-9.5 23v321q0 13 9.5 22.5t22.5 9.5h320q13 0 22.5-9.5t9.5-22.5q0-14-9.5-23t-22.5-9h-243l336-336q9-9 9-22.5t-9-22.5zm135-134q9 10 22.5 10t22.5-10l335-335v243q0 14 9.5 23t22.5 9 22.5-9 9.5-23V160q0-13-9.5-22.5t-22.5-9.5h-320q-13 0-22.5 9.5t-9.5 22.5q0 14 9.5 23t22.5 9h243l-335 336q-10 9-10 22.5t10 22.5z"/></symbol><symbol viewBox="0 0 1195 1195" id="si-ant-arrow-up"><path d="M878.333 410q-9 9-22.5 9t-22.5-9l-172-172v882q0 13-9.5 22.5t-22.5 9.5-22.5-9.5-9.5-22.5V237l-172 172q-9 10-22.5 10t-22.5-10q-10-9-10-22.5t10-22.5l226-227q9-9 22.5-9t22.5 9l227 228q9 9 9 22.5t-9 22.5z"/></symbol><symbol viewBox="0 0 1196 1196" id="si-ant-backward"><path d="M542.417 199l-447 419q-10 9-10 22.5t10 23.5l447 419q15 14 34.5 6t19.5-29V222q0-21-19.5-29.5t-34.5 6.5zm513 0l-447 419q-10 9-10 22.5t10 23.5l447 419q15 14 34.5 6t19.5-29V222q0-21-19.5-29.5t-34.5 6.5z"/></symbol><symbol viewBox="0 0 1195 1195" id="si-ant-bar-chart"><path d="M1077.333 1088h-896q-13 0-22.5-9.5t-9.5-22.5V160q0-13-9.5-22.5t-22.5-9.5-22.5 9.5-9.5 22.5v928q0 26 19 45t45 19h928q13 0 22.5-9.5t9.5-22.5-9.5-22.5-22.5-9.5zm-767-128q-13 0-22.5-9t-9.5-23V607q0-14 9.5-23t22.5-9 22.5 9 9.5 23v321q0 14-9.5 23t-22.5 9zm193 0q-14 0-23-9t-9-23V479q0-13 9-22.5t23-9.5q13 0 22.5 9.5t9.5 22.5v449q0 14-9.5 23t-22.5 9zm192 0q-14 0-23-9t-9-23V800q0-14 9-23t23-9q13 0 22.5 9t9.5 23v128q0 14-9.5 23t-22.5 9zm192 0q-14 0-23-9t-9-23V289q0-14 9-23t23-9q13 0 22.5 9t9.5 23v639q0 14-9.5 23t-22.5 9z"/></symbol><symbol viewBox="0 0 1195 1195" id="si-ant-bars"><path d="M277.333 352q0-13 9.5-22.5t22.5-9.5h768q13 0 22.5 9.5t9.5 22.5q0 14-9.5 23t-22.5 9h-768q-13 0-22.5-9t-9.5-23zm-192 0q0-14 9.5-23t22.5-9 22.5 9 9.5 23q0 13-9.5 22.5t-22.5 9.5-22.5-9.5-9.5-22.5zm192 320q0-14 9.5-23t22.5-9h768q13 0 22.5 9t9.5 23q0 13-9.5 22.5t-22.5 9.5h-768q-13 0-22.5-9.5t-9.5-22.5zm-192-2q0-13 9.5-22.5t22.5-9.5 22.5 9.5 9.5 22.5q0 14-9.5 23t-22.5 9-22.5-9-9.5-23zm192 323q0-13 9.5-22.5t22.5-9.5h768q13 0 22.5 9.5t9.5 22.5-9.5 22.5-22.5 9.5h-768q-13 0-22.5-9.5t-9.5-22.5zm-192-1q0-13 9.5-22.5t22.5-9.5 22.5 9.5 9.5 22.5-9.5 22.5-22.5 9.5-22.5-9.5-9.5-22.5z"/></symbol><symbol viewBox="0 0 1195 1195" id="si-ant-book"><path d="M789.333 482q0 13-9.5 22.5t-22.5 9.5h-320q-13 0-22.5-9.5t-9.5-22.5 9.5-22.5 22.5-9.5h320q13 0 22.5 9.5t9.5 22.5zm0 192q0 13-9.5 22.5t-22.5 9.5h-320q-13 0-22.5-9.5t-9.5-22.5 9.5-22.5 22.5-9.5h320q13 0 22.5 9.5t9.5 22.5zm0 192q0 13-9.5 22.5t-22.5 9.5h-320q-13 0-22.5-9.5t-9.5-22.5 9.5-22.5 22.5-9.5h320q13 0 22.5 9.5t9.5 22.5zm128-674h-128v-32q0-13-9-22.5t-22.5-9.5-23 9.5-9.5 22.5v32h-95v-32q0-13-9.5-22.5t-23-9.5-22.5 9.5-9 22.5v32h-96v-32q0-13-9.5-22.5t-22.5-9.5-22.5 9.5-9.5 22.5v32h-129q-26 0-45 19t-19 45v832q0 26 19 45t45 19h640q26 0 45-19t19-45V256q0-26-19-45t-45-19zm-9 888h-622V265h120v23q0 13 9.5 22.5t22.5 9.5 22.5-9.5 9.5-22.5v-23h96v23q0 13 9 22.5t22.5 9.5 23-9.5 9.5-22.5v-23h95v23q0 13 9.5 22.5t23 9.5 22.5-9.5 9-22.5v-23h119v815z"/></symbol><symbol viewBox="0 0 1195 1195" id="si-ant-calculator"><path d="M949.333 193h-704q-13 0-22.5 9t-9.5 23v832q0 13 9.5 22.5t22.5 9.5h704q13 0 22.5-9.5t9.5-22.5V225q0-14-9.5-23t-22.5-9zm-32 832h-640V257h640v768zm-544-450h448q13 0 22.5-9.5t9.5-22.5V353q0-13-9.5-22.5t-22.5-9.5h-448q-13 0-22.5 9.5t-9.5 22.5v189q0 14 9.5 23.5t22.5 9.5zm32-190h384v125h-384V385zm-32 383h32v32q0 13 9 22.5t23 9.5q13 0 22.5-9.5t9.5-22.5v-32h31q13 0 22.5-9.5t9.5-22.5-9.5-22.5-22.5-9.5h-31v-32q0-13-9.5-22.5t-22.5-9.5q-14 0-23 9.5t-9 22.5v32h-32q-13 0-22.5 9.5t-9.5 22.5 9.5 22.5 22.5 9.5zm0 193h127q13 0 22.5-9.5t9.5-22.5-9.5-22.5-22.5-9.5h-127q-13 0-22.5 9.5t-9.5 22.5 9.5 22.5 22.5 9.5zm448-321h-127q-14 0-23 9.5t-9 22.5 9 22.5 23 9.5h127q13 0 22.5-9.5t9.5-22.5-9.5-22.5-22.5-9.5zm0 129h-127q-14 0-23 9.5t-9 22.5q0 14 9 23t23 9h127q13 0 22.5-9t9.5-23q0-13-9.5-22.5t-22.5-9.5zm0 128h-127q-14 0-23 9.5t-9 22.5 9 22.5 23 9.5h127q13 0 22.5-9.5t9.5-22.5-9.5-22.5-22.5-9.5z"/></symbol><symbol viewBox="0 0 1195 1195" id="si-ant-calendar"><path d="M1045.333 318h-192v-94q0-13-9.5-22.5t-22.5-9.5-22.5 9.5-9.5 22.5v94h-192v-94q0-13-9.5-22.5t-22.5-9.5-22.5 9.5-9.5 22.5v94h-192v-94q0-13-9.5-22.5t-22.5-9.5-22.5 9.5-9.5 22.5v94h-128q-26 0-45 19t-19 45v640q0 27 19 45.5t45 18.5h896q26 0 45-18.5t19-45.5V382q0-26-19-45t-45-19zm-768 75v23q0 13 9.5 22.5t22.5 9.5 22.5-9.5 9.5-22.5v-23h192v23q0 13 9.5 22.5t22.5 9.5 22.5-9.5 9.5-22.5v-23h192v23q0 13 9.5 22.5t22.5 9.5 22.5-9.5 9.5-22.5v-23h181v119h-867q-3 0-7 1V393h117zm-117 618V575q4 1 7 1h867v435h-874zm597-369h-320q-13 0-22.5 9.5t-9.5 22.5 9.5 22.5 22.5 9.5h320q13 0 22.5-9.5t9.5-22.5-9.5-22.5-22.5-9.5zm0 192h-320q-13 0-22.5 9.5t-9.5 22.5 9.5 22.5 22.5 9.5h320q13 0 22.5-9.5t9.5-22.5-9.5-22.5-22.5-9.5z"/></symbol><symbol viewBox="0 0 1195 1195" id="si-ant-camera"><path d="M596.333 576q-53 0-90.5 37.5t-37.5 90.5 37.5 90.5 90.5 37.5 90.5-37.5 37.5-90.5-37.5-90.5-90.5-37.5zm449-257h-199l-111-118q-10-9-25-9h-227q-15 0-24 9l-112 118h-198q-26 0-45 19t-19 45v640q0 26 19 45t45 19h896q26 0 45-19t19-45V383q0-26-19-45t-45-19zm-549-61h202l58 61h-318zm100.5 638q-79.5 0-136-56.5t-56.5-136 56.5-135.5 136-56 135.5 56 56 135.5-56 136-135.5 56.5z"/></symbol><symbol viewBox="0 0 1195 1195" id="si-ant-camera-o"><path d="M1045.333 319h-199l-111-118q-10-9-25-9h-227q-15 0-24 9l-112 118h-198q-26 0-45 19t-19 45v640q0 26 19 45t45 19h896q26 0 45-19t19-45V383q0-26-19-45t-45-19zm-549-61h202l58 61h-318zm538 754h-874V394h874v618zm-438-436q53 0 90.5 37.5t37.5 90.5-37.5 90.5-90.5 37.5-90.5-37.5-37.5-90.5 37.5-90.5 90.5-37.5zm0-64q-79 0-135.5 56t-56.5 135.5 56.5 136 136 56.5 135.5-56.5 56-136-56-135.5-136-56z"/></symbol><symbol viewBox="0 0 1195 1195" id="si-ant-caret-circle-down"><path d="M597.333 128q-139 0-257 68.5T153.833 383t-68.5 257 68.5 257 186.5 186.5 257 68.5 257-68.5 186.5-186.5 68.5-257-68.5-257-186.5-186.5-257-68.5zm301 421l-285 305q-7 7-16 7t-16-7l-285-305q-10-10-4.5-23.5t19.5-13.5h572q14 0 19.5 13.5t-4.5 23.5z"/></symbol><symbol viewBox="0 0 1195 1195" id="si-ant-caret-circle-left"><path d="M597.333 128q-139 0-257 68.5T153.833 383t-68.5 257 68.5 257 186.5 186.5 257 68.5 257-68.5 186.5-186.5 68.5-257-68.5-257-186.5-186.5-257-68.5zm91 813l-305-285q-6-7-6-16t6-16l305-285q11-10 24-4.5t13 20.5v571q0 14-13 19.5t-24-4.5z"/></symbol><symbol viewBox="0 0 1195 1195" id="si-ant-caret-circle-o-down"><path d="M597.333 192q91 0 174 35 81 34 143 96t96 143q35 83 35 174t-35 174q-34 81-96 143t-143 96q-83 35-174 35t-174-35q-81-34-143-96t-96-143q-35-83-35-174t35-174q34-81 96-143t143-96q83-35 174-35zm0-64q-139 0-257 68.5T153.833 383t-68.5 257 68.5 257 186.5 186.5 257 68.5 257-68.5 186.5-186.5 68.5-257-68.5-257-186.5-186.5-257-68.5zm301 421l-285 305q-7 7-16 7t-16-7l-285-305q-10-10-4.5-23.5t19.5-13.5h572q14 0 19.5 13.5t-4.5 23.5z"/></symbol><symbol viewBox="0 0 1195 1195" id="si-ant-caret-circle-o-left"><path d="M597.333 192q91 0 174 35 81 34 143 96t96 143q35 83 35 174t-35 174q-34 81-96 143t-143 96q-83 35-174 35t-174-35q-81-34-143-96t-96-143q-35-83-35-174t35-174q34-81 96-143t143-96q83-35 174-35zm0-64q-139 0-257 68.5T153.833 383t-68.5 257 68.5 257 186.5 186.5 257 68.5 257-68.5 186.5-186.5 68.5-257-68.5-257-186.5-186.5-257-68.5zm91 813l-305-285q-6-7-6-16t6-16l305-285q11-10 24-4.5t13 20.5v571q0 14-13 19.5t-24-4.5z"/></symbol><symbol viewBox="0 0 1195 1195" id="si-ant-caret-circle-o-right"><path d="M597.333 192q91 0 174 35 81 34 143 96t96 143q35 83 35 174t-35 174q-34 81-96 143t-143 96q-83 35-174 35t-174-35q-81-34-143-96t-96-143q-35-83-35-174t35-174q34-81 96-143t143-96q83-35 174-35zm0-64q-139 0-257 68.5T153.833 383t-68.5 257 68.5 257 186.5 186.5 257 68.5 257-68.5 186.5-186.5 68.5-257-68.5-257-186.5-186.5-257-68.5zm215 528l-305 285q-11 10-24 4.5t-13-19.5V354q0-14 13-19.5t24 4.5l305 285q6 7 6 16t-6 16z"/></symbol><symbol viewBox="0 0 1195 1195" id="si-ant-caret-circle-o-up"><path d="M597.333 192q91 0 174 35 81 34 143 96t96 143q35 83 35 174t-35 174q-34 81-96 143t-143 96q-83 35-174 35t-174-35q-81-34-143-96t-96-143q-35-83-35-174t35-174q34-81 96-143t143-96q83-35 174-35zm0-64q-139 0-257 68.5T153.833 383t-68.5 257 68.5 257 186.5 186.5 257 68.5 257-68.5 186.5-186.5 68.5-257-68.5-257-186.5-186.5-257-68.5zm286 639h-572q-14 0-19.5-13t4.5-24l285-305q7-6 16-6t16 6l285 305q10 11 4.5 24t-19.5 13z"/></symbol><symbol viewBox="0 0 1195 1195" id="si-ant-caret-circle-right"><path d="M597.333 128q-139 0-257 68.5T153.833 383t-68.5 257 68.5 257 186.5 186.5 257 68.5 257-68.5 186.5-186.5 68.5-257-68.5-257-186.5-186.5-257-68.5zm215 528l-305 285q-11 10-24 4.5t-13-19.5V354q0-14 13-19.5t24 4.5l305 285q6 7 6 16t-6 16z"/></symbol><symbol viewBox="0 0 1195 1195" id="si-ant-caret-circle-up"><path d="M597.333 128q-139 0-257 68.5T153.833 383t-68.5 257 68.5 257 186.5 186.5 257 68.5 257-68.5 186.5-186.5 68.5-257-68.5-257-186.5-186.5-257-68.5zm286 639h-572q-14 0-19.5-13t4.5-24l285-305q7-6 16-6t16 6l285 305q10 11 4.5 24t-19.5 13z"/></symbol><symbol viewBox="0 0 1195 1195" id="si-ant-caret-down"><path d="M1099.333 389l-476 558q-11 12-26 12t-26-12l-476-558q-16-19-7-43.5t33-24.5h952q24 0 33 24.5t-7 43.5z"/></symbol><symbol viewBox="0 0 1195 1195" id="si-ant-caret-left"><path d="M848.333 138l-558 476q-12 11-12 26t12 26l558 476q19 16 43.5 7t24.5-33V164q0-24-24.5-33t-43.5 7z"/></symbol><symbol viewBox="0 0 1195 1195" id="si-ant-caret-right"><path d="M346.333 138l558 476q12 11 12 26t-12 26l-558 476q-19 16-43.5 7t-24.5-33V164q0-24 24.5-33t43.5 7z"/></symbol><symbol viewBox="0 0 1195 1195" id="si-ant-caret-up"><path d="M1099.333 891l-476-558q-11-12-26-12t-26 12l-476 558q-16 19-7 43.5t33 24.5h952q24 0 33-24.5t-7-43.5z"/></symbol><symbol viewBox="0 0 1195 1195" id="si-ant-check"><path d="M1100.333 220q-10-9-23-9t-23 9l-644 648-269-267q-10-10-23-10t-23 10q-9 9-9 22.5t9 22.5l292 290q10 9 23 9t23-9l667-671q9-9 9-22.5t-9-22.5z"/></symbol><symbol viewBox="0 0 1195 1195" id="si-ant-check-circle"><path d="M597.333 128q-104 0-199 41t-163 109-109 163-41 199 41 199 109 163 163 109 199 41 199-41 163-109 109-163 41-199-41-199-109-163-163-109-199-41zm309 376l-415 405q-10 9-23 9t-23-9l-158-152q-10-9-10-22.5t10-22.5q9-10 22.5-10t22.5 10l136 129 393-382q9-9 22.5-9t22.5 9q10 9 10 22.5t-10 22.5z"/></symbol><symbol viewBox="0 0 1195 1195" id="si-ant-check-circle-o"><path d="M906.333 459q-9-9-22.5-9t-22.5 9l-393 382-136-129q-9-10-22.5-10t-22.5 10q-10 9-10 22.5t10 22.5l158 152q10 9 23 9t23-9l415-405q10-9 10-22.5t-10-22.5zm-309-267q91 0 174 36 80 33 142 96 63 62 96 142 36 83 36 174t-36 174q-33 80-96 142-62 63-142 96-83 36-174 36t-174-36q-80-33-143-96-61-61-95-142-36-83-36-174t36-174q33-80 96-142 62-63 142-96 83-36 174-36zm0-64q-104 0-199 41t-163 109-109 163-41 199 41 199 109 163 163 109 199 41 199-41 163-109 109-163 41-199-41-199-109-163-163-109-199-41z"/></symbol><symbol viewBox="0 0 1195 1195" id="si-ant-chrome"><path d="M343.333 575l-146-254q71-90 176-141.5t224-51.5q138 0 255 68t185 183h-417q-11-1-23-1-90 0-161 55.5t-93 141.5zm437-122h294q35 90 35 187 0 103-40 197.5t-108 163-161.5 109.5-196.5 42l209-363q47-67 47-149 0-110-79-187zm-369 187q0-77 54.5-131.5t131.5-54.5 131.5 54.5 54.5 131.5-54.5 131.5-131.5 54.5-131.5-54.5-54.5-131.5zm256 252l-146 254q-123-18-222.5-89t-156.5-181-57-236q0-135 66-251l209 362q32 68 96 109.5t141 41.5q35 0 70-10z"/></symbol><symbol viewBox="0 0 1195 1195" id="si-ant-circle-down"><path d="M597.333 128q-139 0-257 68.5T153.833 383t-68.5 257 68.5 257 186.5 186.5 257 68.5 257-68.5 186.5-186.5 68.5-257-68.5-257-186.5-186.5-257-68.5zm280 438l-258 257q-10 9-23 9t-23-9l-256-256q-9-10-9-23t9.5-22.5 22.5-9.5 23 10l233 233 235-235q10-9 23-9t22.5 9.5 9.5 22.5-9 23z"/></symbol><symbol viewBox="0 0 1195 1195" id="si-ant-circle-left"><path d="M597.333 128q-139 0-257 68.5T153.833 383t-68.5 257 68.5 257 186.5 186.5 257 68.5 257-68.5 186.5-186.5 68.5-257-68.5-257-186.5-186.5-257-68.5zm120 746q9 9 9 22.5t-9.5 23-22.5 9.5-23-10l-256-256q-9-9-9-22.5t9-22.5l257-258q10-9 23-9t22.5 9 9.5 22.5-9 22.5l-235 236z"/></symbol><symbol viewBox="0 0 1195 1195" id="si-ant-circle-o-down"><path d="M597.333 192q91 0 174 35 81 34 143 96t96 143q35 83 35 174t-35 174q-34 81-96 143t-143 96q-83 35-174 35t-174-35q-81-34-143-96t-96-143q-35-83-35-174t35-174q34-81 96-143t143-96q83-35 174-35zm0-64q-139 0-257 68.5T153.833 383t-68.5 257 68.5 257 186.5 186.5 257 68.5 257-68.5 186.5-186.5 68.5-257-68.5-257-186.5-186.5-257-68.5zm22 695l258-257q9-10 9-23t-9-23q-10-9-23-9t-23 9l-235 235-233-233q-10-10-23-10t-23 10q-9 9-9 22t9 23l256 256q10 9 23 9t23-9z"/></symbol><symbol viewBox="0 0 1195 1195" id="si-ant-circle-o-left"><path d="M597.333 192q91 0 174 35 81 34 143 96t96 143q35 83 35 174t-35 174q-34 81-96 143t-143 96q-83 35-174 35t-174-35q-81-34-143-96t-96-143q-35-83-35-174t35-174q34-81 96-143t143-96q83-35 174-35zm0-64q-139 0-257 68.5T153.833 383t-68.5 257 68.5 257 186.5 186.5 257 68.5 257-68.5 186.5-186.5 68.5-257-68.5-257-186.5-186.5-257-68.5zm-182 490l257-258q10-9 23-9t23 9q9 9 9 22.5t-9 22.5l-235 236 234 233q9 9 9 22.5t-9 22.5q-10 10-23 10t-23-10l-256-256q-9-9-9-22.5t9-22.5z"/></symbol><symbol viewBox="0 0 1195 1195" id="si-ant-circle-o-right"><path d="M597.333 192q91 0 174 35 81 34 143 96t96 143q35 83 35 174t-35 174q-34 81-96 143t-143 96q-83 35-174 35t-174-35q-81-34-143-96t-96-143q-35-83-35-174t35-174q34-81 96-143t143-96q83-35 174-35zm0-64q-139 0-257 68.5T153.833 383t-68.5 257 68.5 257 186.5 186.5 257 68.5 257-68.5 186.5-186.5 68.5-257-68.5-257-186.5-186.5-257-68.5zm182 490l-256-258q-10-9-23-9t-23 9q-9 9-9 22.5t9 22.5l235 236-234 233q-9 9-9 22.5t9 22.5q10 10 23 10t23-10l256-256q9-9 9-22.5t-10-22.5z"/></symbol><symbol viewBox="0 0 1195 1195" id="si-ant-circle-o-up"><path d="M597.333 192q91 0 174 35 81 34 143 96t96 143q35 83 35 174t-35 174q-34 81-96 143t-143 96q-83 35-174 35t-174-35q-81-34-143-96t-96-143q-35-83-35-174t35-174q34-81 96-143t143-96q83-35 174-35zm0-64q-139 0-257 68.5T153.833 383t-68.5 257 68.5 257 186.5 186.5 257 68.5 257-68.5 186.5-186.5 68.5-257-68.5-257-186.5-186.5-257-68.5zm22 330l258 256q9 10 9 23t-9 23q-10 9-23 9t-23-9l-235-235-233 234q-10 9-23 9t-23-9q-9-10-9-23t9-22l256-256q10-10 23-10t23 10z"/></symbol><symbol viewBox="0 0 1195 1195" id="si-ant-circle-right"><path d="M597.333 128q-139 0-257 68.5T153.833 383t-68.5 257 68.5 257 186.5 186.5 257 68.5 257-68.5 186.5-186.5 68.5-257-68.5-257-186.5-186.5-257-68.5zm183 535l-256 256q-10 10-23 10t-22.5-9.5-9.5-23 9-22.5l234-233-235-236q-9-9-9-22.5t9.5-22.5 22.5-9 23 9l256 258q10 9 10 22.5t-9 22.5z"/></symbol><symbol viewBox="0 0 1195 1195" id="si-ant-circle-up"><path d="M597.333 128q-139 0-257 68.5T153.833 383t-68.5 257 68.5 257 186.5 186.5 257 68.5 257-68.5 186.5-186.5 68.5-257-68.5-257-186.5-186.5-257-68.5zm279.5 631.5q-9.5 9.5-22.5 9.5t-23-9l-235-235-233 234q-10 9-23 9t-22.5-9.5-9.5-22.5 9-22l256-256q10-10 23-10t23 10l258 256q9 10 9 23t-9.5 22.5z"/></symbol><symbol viewBox="0 0 1195 1195" id="si-ant-clock-circle"><path d="M597.333 128q-139 0-257 68.5T153.833 383t-68.5 257 68.5 257 186.5 186.5 257 68.5 257-68.5 186.5-186.5 68.5-257-68.5-257-186.5-186.5-257-68.5zm254 544q0 13-9 22.5t-23 9.5h-190q-13 0-22.5-9.5t-9.5-22.5V353q0-13 9.5-22.5t22.5-9.5 22.5 9.5 9.5 22.5v287h158q14 0 23 9.5t9 22.5z"/></symbol><symbol viewBox="0 0 1195 1195" id="si-ant-clock-circle-o"><path d="M597.333 192q91 0 174 35 81 34 143 96t96 143q35 83 35 174t-35 174q-34 81-96 143t-143 96q-83 35-174 35t-174-35q-81-34-143-96t-96-143q-35-83-35-174t35-174q34-81 96-143t143-96q83-35 174-35zm0-64q-139 0-257 68.5T153.833 383t-68.5 257 68.5 257 186.5 186.5 257 68.5 257-68.5 186.5-186.5 68.5-257-68.5-257-186.5-186.5-257-68.5zm222 512h-158V353q0-13-9.5-22.5t-22.5-9.5-22.5 9.5-9.5 22.5v319q0 13 9.5 22.5t22.5 9.5h190q14 0 23-9.5t9-22.5-9-22.5-23-9.5z"/></symbol><symbol viewBox="0 0 1195 1195" id="si-ant-cloud"><path d="M1065.333 611q-31-46-76-76-3-51-22-96-23-53-67-97-44-42-98-64t-116-22q-93 0-169 51-45 30-77 73-24-8-52-8-37 0-70 13.5t-59 39.5q-27 26-41 58-14 33-14 70 0 13 2 26-38 22-67 57-54 65-54 149 0 50 18 93 18 42 53.5 76.5t79 52 92.5 17.5h508q55 0 104-19.5t88.5-58.5 59.5-86q21-49 21-104 0-79-44-145z"/></symbol><symbol viewBox="0 0 1195 1195" id="si-ant-cloud-download"><path d="M1065.333 611q-31-46-76-76-3-51-22-96-23-53-67-97-44-42-98-64t-116-22q-93 0-169 51-45 30-77 73-24-8-52-8-37 0-70 13.5t-59 39.5q-27 26-41 58-14 33-14 70 0 13 2 26-38 22-67 57-54 65-54 149 0 50 18 93 18 42 53.5 76.5t79 52 92.5 17.5h508q55 0 104-19.5t88.5-58.5 59.5-86q21-49 21-104 0-79-44-145zm-199 126l-149 150q-10 9-23 9t-23-9l-149-150q-9-9-9-22.5t9-22.5 22.5-9 22.5 9l95 95V481q0-14 9.5-23t22.5-9 22.5 9 9.5 23v306l95-95q9-9 22.5-9t22.5 9 9 22.5-9 22.5z"/></symbol><symbol viewBox="0 0 1195 1195" id="si-ant-cloud-download-o"><path d="M687.333 320q49 0 91 17 43 17 77 51 35 34 53 76 15 34 17 75l2 32 27 17q32 21 55 54l3 5q16 25 25 52 8 27 8 57 0 42-15 78-16 36-46.5 66t-67.5 45-80 15h-508q-37 0-69-13-31-13-57-38-27-26-40-57t-13-67q0-30 10-57.5t29-51.5q22-26 50-42l38-22-6-43q-1-7-1-17 0-23 8-44 9-21 27-38 17-17 38-25 22-9 46-9 19 0 35 5l43 13 26-37q25-33 61-57 60-40 134-40zm0-64q-94 0-170 51-45 30-76 73-25-8-53-8-37 0-70 13.5t-59 39.5q-27 26-41 58-13 33-13 70 0 13 1 26-38 22-67 57-54 65-54 149 0 50 18 93 18 42 53.5 76.5t79 52 92.5 17.5h508q55 0 104-19.5t88.5-58.5 59.5-86q21-49 21-104 0-79-44-145-31-46-76-76-3-51-22-97-23-52-67-96-44-42-98-64-53-22-115-22zm7 193q-13 0-22.5 9t-9.5 23v306l-95-95q-9-9-22.5-9t-22.5 9-9 22.5 9 22.5l149 150q10 9 23 9t23-9l149-150q9-9 9-22.5t-9-22.5-22.5-9-22.5 9l-95 95V481q0-14-9.5-23t-22.5-9z"/></symbol><symbol viewBox="0 0 1195 1195" id="si-ant-cloud-o"><path d="M687.333 320q49 0 91 17 43 17 77 51 35 34 53 76 15 34 17 75l2 32 27 17q32 21 55 54l3 5q16 25 25 52 8 27 8 57 0 42-15 78-16 36-46.5 66t-67.5 45-80 15h-508q-37 0-69-13-31-13-57-38-27-26-40-57t-13-67q0-30 10-57.5t29-51.5q22-26 50-42l38-22-6-43q-1-7-1-17 0-23 8-44 9-21 27-38 17-17 38-25 22-9 46-9 19 0 35 5l43 13 26-37q25-33 61-57 60-40 134-40zm0-64q-94 0-170 51-45 30-76 73-25-8-53-8-37 0-70 13.5t-59 39.5q-27 26-41 58-13 33-13 70 0 13 1 26-38 22-67 57-54 65-54 149 0 50 18 93 18 42 53.5 76.5t79 52 92.5 17.5h508q55 0 104-19.5t88.5-58.5 59.5-86q21-49 21-104 0-79-44-145-31-46-76-76-3-51-22-97-23-52-67-96-44-42-98-64-53-22-115-22z"/></symbol><symbol viewBox="0 0 1195 1195" id="si-ant-cloud-upload"><path d="M1065.333 611q-31-46-76-76-3-51-22-96-23-53-67-97-44-42-98-64t-116-22q-93 0-169 51-45 30-77 73-24-8-52-8-37 0-70 13.5t-59 39.5q-27 26-41 58-14 33-14 70 0 13 2 26-38 22-67 57-54 65-54 149 0 50 18 93 18 42 53.5 76.5t79 52 92.5 17.5h508q55 0 104-19.5t88.5-58.5 59.5-86q21-49 21-104 0-79-44-145zm-199 41.5q-9 9.5-22.5 9.5t-22.5-9l-95-95v306q0 13-9.5 22.5t-22.5 9.5-22.5-9.5-9.5-22.5V558l-95 95q-9 9-22.5 9t-22.5-9.5-9-22.5 9-23l149-149q10-9 23-9t23 9l149 149q9 10 9 23t-9 22.5z"/></symbol><symbol viewBox="0 0 1195 1195" id="si-ant-cloud-upload-o"><path d="M687.333 320q49 0 91 17 43 17 77 51 35 34 53 76 15 34 17 75l2 32 27 17q32 21 55 54l3 5q16 25 25 52 8 27 8 57 0 42-15 78-16 36-46.5 66t-67.5 45-80 15h-508q-37 0-69-13-31-13-57-38-27-26-40-57t-13-67q0-30 10-57.5t29-51.5q22-26 50-42l38-22-6-43q-1-7-1-17 0-23 8-44 9-21 27-38 17-17 38-25 22-9 46-9 19 0 35 5l43 13 26-37q25-33 61-57 60-40 134-40zm0-64q-94 0-170 51-45 30-76 73-25-8-53-8-37 0-70 13.5t-59 39.5q-27 26-41 58-13 33-13 70 0 13 1 26-38 22-67 57-54 65-54 149 0 50 18 93 18 42 53.5 76.5t79 52 92.5 17.5h508q55 0 104-19.5t88.5-58.5 59.5-86q21-49 21-104 0-79-44-145-31-46-76-76-3-51-22-97-23-52-67-96-44-42-98-64-53-22-115-22zm39 608V558l95 95q9 9 22.5 9t22.5-9q9-10 9-23t-9-23l-149-149q-10-9-23-9t-23 9l-149 149q-9 10-9 23t9 23q9 9 22.5 9t22.5-9l95-95v306q0 13 9.5 22.5t22.5 9.5 22.5-9.5 9.5-22.5z"/></symbol><symbol viewBox="0 0 1195 1195" id="si-ant-code"><path d="M321.333 440q-9-10-22.5-10t-22.5 10l-182 181q-9 9-9 22.5t9 22.5l182 182q9 10 22.5 10t22.5-10q10-9 10-22.5t-10-22.5l-159-159 159-159q10-10 10-23t-10-22zm552 0q9-10 22.5-10t22.5 10l182 181q9 9 9 22.5t-9 22.5l-182 182q-9 10-22.5 10t-22.5-10q-10-9-10-22.5t10-22.5l159-159-159-159q-10-10-10-23t10-22zm-97-180q12 6 16 19t-2 24l-371 704q-7 12-19.5 16t-24.5-2q-11-7-15-19.5t2-24.5l371-703q6-12 18.5-16t24.5 2z"/></symbol><symbol viewBox="0 0 1195 1195" id="si-ant-copy"><path d="M835.333 145q-16-17-40-17h-378q-28 0-49 18.5t-25 45.5h-79q-48 0-81.5 33.5t-33.5 81.5v730q0 48 33.5 81.5t81.5 33.5h604q48 0 81.5-33.5t33.5-81.5v-80q27-5 44.5-26t17.5-48V378q0-24-17-40zm117 207h-159V193zm-33 685q0 21-14.5 36t-35.5 15h-605q-21 0-36-15t-15-36V307q0-21 15-36t36-15h78v627q0 31 22 53t53 22h502v79zm62-155q0 12-12 12h-552q-4 0-7.5-3.5t-3.5-8.5V204q0-5 3.5-8.5t7.5-3.5h308v192q0 13 9.5 22.5t22.5 9.5h224v466zm-160-307h-255q-13 0-22.5-9.5t-9.5-22.5 9.5-22.5 22.5-9.5h255q13 0 22.5 9.5t9.5 22.5-9.5 22.5-22.5 9.5zm0 129h-255q-13 0-22.5-9.5t-9.5-22.5 9.5-22.5 22.5-9.5h255q13 0 22.5 9.5t9.5 22.5-9.5 22.5-22.5 9.5zm-128 129h-128q-13 0-22.5-9.5t-9.5-22.5 9.5-22.5 22.5-9.5h128q14 0 23 9.5t9 22.5-9 22.5-23 9.5z"/></symbol><symbol viewBox="0 0 1195 1195" id="si-ant-credit-card"><path d="M1045.333 256h-896q-26 0-45 19t-19 45v640q0 26 19 45t45 19h896q26 0 45-19t19-45V320q0-26-19-45t-45-19zm-896 64h896v129h-896V320zm896 640h-896V513h896v447zm-768-352v128q0 13-9.5 22.5t-22.5 9.5-22.5-9.5-9.5-22.5V608q0-13 9.5-22.5t22.5-9.5 22.5 9.5 9.5 22.5zm129 0v128q0 13-9.5 22.5t-22.5 9.5-22.5-9.5-9.5-22.5V608q0-13 9.5-22.5t22.5-9.5 22.5 9.5 9.5 22.5z"/></symbol><symbol viewBox="0 0 1195 1195" id="si-ant-cross"><path d="M959.333 278q-9-9-22.5-9t-22.5 9l-317 317-317-317q-9-9-22.5-9t-22.5 9-9 22.5 9 22.5l317 317-317 317q-9 9-9 22.5t9 22.5 22.5 9 22.5-9l317-317 317 317q9 9 22.5 9t22.5-9 9-22.5-9-22.5l-317-317 317-317q9-9 9-22.5t-9-22.5z"/></symbol><symbol viewBox="0 0 1195 1195" id="si-ant-cross-circle"><path d="M597.333 128q-139 0-257 68.5T153.833 383t-68.5 257 68.5 257 186.5 186.5 257 68.5 257-68.5 186.5-186.5 68.5-257-68.5-257-186.5-186.5-257-68.5zm241 703q9 10 9.5 23t-8.5 23q-10 9-23 9t-23-9l-196-192-196 192q-10 9-23 9t-23-10q-9-9-9-22.5t10-22.5l195-191-195-191q-9-10-9.5-23t8.5-23q10-9 23-9t23 9l196 192 196-192q10-9 23-9t23 10q9 9 9 22.5t-10 22.5l-195 191z"/></symbol><symbol viewBox="0 0 1195 1195" id="si-ant-cross-circle-o"><path d="M643.333 640l195-191q9-10 9.5-23t-8.5-23q-10-9-23-9t-23 9l-196 192-196-192q-10-9-23-9t-23 10q-9 9-9 22.5t10 22.5l195 191-195 191q-9 10-9.5 23t8.5 23q10 9 23 9t23-9l196-192 196 192q10 9 23 9t23-10q9-9 9-22.5t-10-22.5zm-46-448q91 0 174 35 81 34 143 96t96 143q35 83 35 174t-35 174q-34 81-96 143t-143 96q-83 35-174 35t-174-35q-81-34-143-96t-96-143q-35-83-35-174t35-174q34-81 96-143t143-96q83-35 174-35zm0-64q-139 0-257 68.5T153.833 383t-68.5 257 68.5 257 186.5 186.5 257 68.5 257-68.5 186.5-186.5 68.5-257-68.5-257-186.5-186.5-257-68.5z"/></symbol><symbol viewBox="0 0 1195 1195" id="si-ant-customerservice"><path d="M968.333 422q-8-33-21-64-29-67-82-119-53-51-122-80-71-29-148.5-29t-148.5 29q-68 28-121 80t-82 119q-14 31-22 65-59 19-97 70t-38 116q0 80 57 137 41 41 96 53 15 3 27-6.5t12-25.5l-2-263q0-128 93-219 94-91 226-91t225 91q93 90 93 218v276q0 128-93 218-45 44-103 68 6-20 6-42-1-50-37-85.5t-86-37.5q-53-1-91 36t-38 90q0 52 36 88.5t88 37.5h5q75-1 143-29 69-28 122-80t82-119q27-62 30-131 42-15 74-47 57-57 57-137 0-66-39.5-118t-100.5-69zm-780 279q-38-38-38-92 0-35 17-65t45-47v223q-13-8-24-19zm411 387h-3q-25 0-43-18t-18-43.5 18-44 44-18.5 44 18.5 18 43.5-17.5 43-42.5 19zm407-387q-13 13-29 22V494q30 17 48.5 47.5t18.5 67.5q0 54-38 92z"/></symbol><symbol viewBox="0 0 1195 1195" id="si-ant-delete"><path d="M1013.333 319h-159V201q0-30-21.5-51.5t-51.5-21.5h-368q-30 0-51.5 21.5t-21.5 51.5v118h-159q-13 0-22.5 9.5t-9.5 23.5q0 13 9.5 22.5t22.5 9.5h33v695q0 30 21.5 51.5t51.5 21.5h619q30 0 51.5-21.5t21.5-51.5V384h33q14 0 23.5-9.5t9.5-22.5q0-14-9.5-23.5t-22.5-9.5zm-609 0V201q0-9 9-9h368q9 0 9 9v119h-386v-1zm511 760q0 9-9 9h-619q-9 0-9-9V384h637v695zm-510-535v384q0 14-9.5 23t-22.5 9-22.5-9-9.5-23V544q0-13 9.5-22.5t22.5-9.5 22.5 9.5 9.5 22.5zm224 0v384q0 14-9.5 23t-22.5 9-22.5-9-9.5-23V544q0-13 9.5-22.5t22.5-9.5 22.5 9.5 9.5 22.5zm225 0v384q0 14-9.5 23t-22.5 9-22.5-9-9.5-23V544q0-13 9.5-22.5t22.5-9.5 22.5 9.5 9.5 22.5z"/></symbol><symbol viewBox="0 0 1195 1195" id="si-ant-desktop"><path d="M1045.333 193h-896q-26 0-45 18.5t-19 45.5v576q0 26 19 45t45 19h416v127h-192q-13 0-22.5 9.5t-9.5 22.5 9.5 22.5 22.5 9.5h448q14 0 23-9.5t9-22.5-9-22.5-23-9.5h-192V897h416q26 0 45-19t19-45V257q0-27-19-45.5t-45-18.5zm0 640h-896V257h896v576z"/></symbol><symbol viewBox="0 0 1196 1196" id="si-ant-dislike"><path d="M1044.417 642q-6-28-21-57 19-37 13-75-6-42-42-74 14-39 6-76-11-44-52-75-1-8-3-17-9-41-37-71-60-66-191-66h-2q-67 0-125.5 7.5t-86 15-70.5 21.5q-68 22-104 22h-172q-30 0-51 21t-21 51v392q0 30 21.5 51t51.5 21h122q33 0 61 17 38 23 74 60 66 71 87 167 2 9 6 31 8 50 18 74 21 46 67 61 33 11 66 8 39-3 70-26 33-24 50-67 18-44 18-108v-2q-5-67-24-119h116q43 0 79-21 24-14 45-40t29-60q8-32 2-66zm-887-381h120v409h-119q-9 0-9-9V269q0-8 8-8zm802 341q31 49 21 91-9 39-44 60-21 12-47 12h-126q-31 0-48 25.5t-5 54.5q18 43 23 106 0 92-42 123-32 23-79 8-19-6-27-24t-14-60q-4-24-6-35-26-113-104-197-41-43-87-71-16-9-33-15V261q41-2 112-25 40-13 65.5-20t80-14 116.5-7h2q102 0 143 44 26 28 24 61-2 19 16 30 31 19 37 44 7 27-10 54-7 11-4.5 24t13.5 20q33 22 37 47 4 24-12 46-15 17-2 37z"/></symbol><symbol viewBox="0 0 1195 1195" id="si-ant-double-left"><path d="M715.333 137q10 10 10 23t-10 23l-482 457 482 457q10 10 10 23t-10 23q-10 9-24 9t-24-9l-506-480q-10-10-10-23t10-23l506-480q10-9 24-9t24 9zm256 0q10 10 10 23t-10 23l-482 457 482 457q10 10 10 23t-10 23q-10 9-24 9t-24-9l-506-480q-10-10-10-23t10-23l506-480q10-9 24-9t24 9z"/></symbol><symbol viewBox="0 0 1195 1195" id="si-ant-double-right"><path d="M417.333 137q-10 10-10 23t10 23l482 457-482 457q-10 10-10 23t10 23q10 9 24 9t24-9l506-480q10-10 10-23t-10-23l-506-480q-10-9-24-9t-24 9zm-256 0q-10 10-10 23t10 23l482 457-482 457q-10 10-10 23t10 23q10 9 24 9t24-9l506-480q10-10 10-23t-10-23l-506-480q-10-9-24-9t-24 9z"/></symbol><symbol viewBox="0 0 1196 1196" id="si-ant-down"><path d="M1100.417 333q-10-10-23-10t-23 10l-457 482-457-482q-10-10-23-10t-23 10q-9 10-9 24t9 24l480 506q10 10 23 10t23-10l480-506q9-10 9-24t-9-24z"/></symbol><symbol viewBox="0 0 1195 1195" id="si-ant-download"><path d="M423.333 769l181 181q10 10 23 10t23-10l181-181q9-9 9-22.5t-9-22.5q-10-9-23-9t-23 9l-126 126V160q0-13-9.5-22.5t-22.5-9.5-22.5 9.5-9.5 22.5v690l-126-126q-10-9-23-9t-23 9q-9 9-9 22.5t9 22.5zm622 95v192q0 13-9.5 22.5t-22.5 9.5h-832q-13 0-22.5-9.5t-9.5-22.5V864q0-13-9.5-22.5t-22.5-9.5-22.5 9.5-9.5 22.5v224q0 26 19 45t45 19h896q26 0 45-19t19-45V864q0-13-9.5-22.5t-22.5-9.5-22.5 9.5-9.5 22.5z"/></symbol><symbol viewBox="0 0 1196 1196" id="si-ant-edit"><path d="M1077.417 1152h-960q-13 0-22.5-9.5t-9.5-22.5 9.5-22.5 22.5-9.5h960q13 0 22.5 9.5t9.5 22.5-9.5 22.5-22.5 9.5zm12-905l-98-98q-20-20-49-20t-49 20l-480 481-133 281q-8 18 2.5 34t29.5 16q7 0 15-3l281-133 481-480q20-20 20-49t-20-49zm-518 525l-198 93 93-198 348-348 105 105zm472-472l-79 79-105-105 79-79q2-2 4-2t4 2l97 97q2 2 2 4t-2 4z"/></symbol><symbol viewBox="0 0 1195 1195" id="si-ant-ellipsis"><path d="M149.333 704q-26 0-45-18.5t-19-45.5 19-45.5 45-18.5q27 0 46 18.5t19 45.5-19 45.5-46 18.5zm448 0q-27 0-45.5-19t-18.5-46 18.5-46 45.5-19 45.5 19 18.5 46-18.5 46-45.5 19zm448 0q-27 0-46-18.5t-19-45.5 19-45.5 46-18.5q26 0 45 18.5t19 45.5-19 45.5-45 18.5z"/></symbol><symbol viewBox="0 0 1195 1195" id="si-ant-enter"><path d="M985.333 514V322q0-17-11.5-28.5t-28-11.5-28.5 11.5-12 28.5v192q0 92-65 157t-157 65h-340l113-112q11-12 11-28.5t-11.5-28-28-11.5-28.5 12l-178 178q-12 12-12 28.5t12 28.5l183 183q12 12 28.5 12t28.5-11.5 12-28-12-28.5l-114-114h336q125 0 213.5-88.5t88.5-213.5z"/></symbol><symbol viewBox="0 0 1195 1195" id="si-ant-environment"><path d="M597.333 385q-66 0-113 47t-47 113 47 113 113 47 113-47 47-113-47-113-113-47zm0-257q-116 0-218 51.5t-163 141-61 194.5q0 65 19 131t48.5 121 71 109.5 79.5 94.5 81.5 78 70 58.5 51.5 37.5q21 15 42 0 25-17 51.5-37.5t70-58.5 81.5-78 79.5-94.5 71-109.5 48.5-121 19-131q0-105-61-194.5t-163-141-218-51.5zm158.5 575.5q-65.5 65.5-158.5 65.5t-158.5-65.5-65.5-158.5 65.5-158.5 158.5-65.5 158.5 65.5 65.5 158.5-65.5 158.5z"/></symbol><symbol viewBox="0 0 1195 1195" id="si-ant-environment-o"><path d="M597.333 192q75 0 146 26 68 26 121 72 53 45 82 103 29 59 29 122 0 96-47 196-41 86-115 173-92 108-216 198-124-90-216-198-74-87-115-173-47-101-47-196 0-64 29-122t82-103q53-46 121-72 71-26 146-26zm0-64q-116 0-218 51.5t-163 141-61 194.5q0 65 19 131t48.5 121 71 109.5 79.5 94.5 81.5 78 70 58.5 51.5 37.5q9 7 21 7t21-7q25-17 51.5-37.5t70-58.5 81.5-78 79.5-94.5 71-109.5 48.5-121 19-131q0-105-61-194.5t-163-141-218-51.5zm0 641q-93 0-158.5-65.5t-65.5-158.5 65.5-158.5 158.5-65.5 158.5 65.5 65.5 158.5-65.5 158.5-158.5 65.5zm0-384q-66 0-113 47t-47 113 47 113 113 47 113-47 47-113-47-113-113-47z"/></symbol><symbol viewBox="0 0 1195 1195" id="si-ant-exception"><path d="M757.333 512q13 0 22.5 9t9.5 23v448q0 14-9.5 23.5t-22.5 8.5q-13 0-22.5-9t-9.5-23V544q0-14 9.5-23t22.5-9zm0 576q13 0 22.5 9.5t9.5 22.5-9.5 22.5-22.5 9.5-22.5-9.5-9.5-22.5 9.5-22.5 22.5-9.5zm-512-703h384q13 0 22.5 9.5t9.5 22.5-9.5 22.5-22.5 9.5h-384q-13 0-22.5-9.5t-9.5-22.5 9.5-22.5 22.5-9.5zm0 192h192q13 0 22.5 9.5t9.5 22.5-9.5 22.5-22.5 9.5h-192q-13 0-22.5-9.5t-9.5-22.5 9.5-22.5 22.5-9.5zm0 192h192q13 0 22.5 9.5t9.5 22.5-9.5 22.5-22.5 9.5h-192q-13 0-22.5-9.5t-9.5-22.5 9.5-22.5 22.5-9.5zm-159-576v832q0 26 18.5 45t45.5 19h480q13 0 22.5-9.5t9.5-22.5q0-14-9.5-23t-22.5-9h-480V193h832v832h-98q-13 0-22.5 9t-9.5 23q0 13 9.5 22.5t22.5 9.5h98q26 0 45-19t19-45V193q0-27-19-45.5t-45-18.5h-832q-27 0-45.5 18.5t-18.5 45.5z"/></symbol><symbol viewBox="0 0 1195 1195" id="si-ant-exclamation"><path d="M564.333 960q-13 0-22.5-9.5t-9.5-22.5V160q0-13 9.5-22.5t22.5-9.5 22.5 9.5 9.5 22.5v768q0 13-9.5 22.5t-22.5 9.5zm-1 192q-13 0-22.5-9.5t-9.5-22.5 9.5-22.5 22.5-9.5 22.5 9.5 9.5 22.5-9.5 22.5-22.5 9.5z"/></symbol><symbol viewBox="0 0 1195 1195" id="si-ant-exclamation-circle"><path d="M597.333 128q-139 0-257 68.5T153.833 383t-68.5 257 68.5 257 186.5 186.5 257 68.5 257-68.5 186.5-186.5 68.5-257-68.5-257-186.5-186.5-257-68.5zm32 800q0 13-9.5 22.5t-22.5 9.5-22.5-9.5-9.5-22.5 9.5-22.5 22.5-9.5 22.5 9.5 9.5 22.5zm0-128q0 13-9.5 22.5t-22.5 9.5-22.5-9.5-9.5-22.5V352q0-13 9.5-22.5t22.5-9.5 22.5 9.5 9.5 22.5v448z"/></symbol><symbol viewBox="0 0 1195 1195" id="si-ant-exclamation-circle-o"><path d="M597.333 832q-13 0-22.5-9.5t-9.5-22.5V352q0-13 9.5-22.5t22.5-9.5 22.5 9.5 9.5 22.5v448q0 13-9.5 22.5t-22.5 9.5zm0 128q-13 0-22.5-9.5t-9.5-22.5 9.5-22.5 22.5-9.5 22.5 9.5 9.5 22.5-9.5 22.5-22.5 9.5zm0-768q91 0 174 35 81 34 143 96t96 143q35 83 35 174t-35 174q-34 81-96 143t-143 96q-83 35-174 35t-174-35q-81-34-143-96t-96-143q-35-83-35-174t35-174q34-81 96-143t143-96q83-35 174-35zm0-64q-139 0-257 68.5T153.833 383t-68.5 257 68.5 257 186.5 186.5 257 68.5 257-68.5 186.5-186.5 68.5-257-68.5-257-186.5-186.5-257-68.5z"/></symbol><symbol viewBox="0 0 1195 1195" id="si-ant-export"><path d="M1008.333 713q-15 0-25.5 10.5t-10.5 25.5v236q0 12-9 21t-21 9h-690q-12 0-21-9t-9-21V295q0-12 9-21t21-9h310q15 0 25.5-10.5t10.5-25.5-10.5-25.5-25.5-10.5h-310q-42 0-72 30t-30 72v690q0 42 30 72t72 30h690q42 0 72-30t30-72V749q0-15-10.5-25.5t-25.5-10.5zm28-289l-231-220q-17-17-39-7.5t-22 33.5v118q-187 12-286 162-24 36-40.5 78t-20 58-4.5 26q-3 15 6 27t24 14q2 1 5 1 14 0 24-9t12-22q1-7 4-21t17-49.5 34-64.5q87-129 257-130 3 1 4 1 15 0 25.5-10.5t10.5-25.5v-69l141 134-141 118v-58q0-15-10.5-25.5t-25.5-10.5-25.5 10.5-10.5 25.5v135q0 23 21 32 7 4 15 4 13 0 23-9l231-192q13-11 13.5-27t-11.5-27z"/></symbol><symbol viewBox="0 0 1196 1196" id="si-ant-eye"><path d="M1015.417 449q-64-80-156-126-113-57-262-57t-262 57q-92 45-157 126-27 35-50.5 82.5t-33 76-9.5 33.5 9.5 33.5 33 76 51.5 82.5q64 80 156 126 114 57 262 57t262-57q92-46 157-126 27-35 50.5-82.5t33-76 9.5-33.5-9.5-33.5-33-76-51.5-82.5zm-418 382q-79 0-135-56t-56-135 56-135 135-56 135 56 56 135-56 135-135 56zm0-318q-53 0-90 37t-37 90 37 90 90 37 90-37 37-90-37-90-90-37z"/></symbol><symbol viewBox="0 0 1196 1196" id="si-ant-eye-o"><path d="M597.417 330q134 0 233 50 80 40 135 109 48 60 78 152-30 92-78 151v1q-55 69-135 109-100 50-233 50t-234-50q-79-40-135-109-48-60-77-152 29-92 77-152 56-69 136-109 100-50 233-50zm0-64q-148 0-262 57-92 45-156 126-28 35-51.5 82.5t-33 76-9.5 33.5 9.5 33.5 33 76 51.5 82.5q64 80 156 126 114 57 262 57t262-57q92-46 157-126 27-35 50.5-82.5t33-76 9.5-33.5-9.5-33.5-33-76-50.5-82.5q-65-80-157-126-113-57-262-57zm0 247q53 0 90 37t37 90-37 90-90 37-90-37-37-90 37-90 90-37zm0-64q-79 0-135 56t-56 135 56 135 135 56 135-56 56-135-56-135-135-56z"/></symbol><symbol viewBox="0 0 1195 1195" id="si-ant-fast-backward"><path d="M1058.333 201l-420 416q-7 8-9 18V224q0-21-18-29.5t-33 6.5l-419 416q-10 9-10 22.5t10 23.5l419 416q15 15 33 6.5t18-29.5V645q2 10 9 18l420 416q14 15 32.5 6.5t18.5-29.5V224q0-21-18.5-29.5t-32.5 6.5zm-941-9q-13 0-22.5 9.5t-9.5 22.5v832q0 13 9.5 22.5t22.5 9.5 22.5-9.5 9.5-22.5V224q0-13-9.5-22.5t-22.5-9.5z"/></symbol><symbol viewBox="0 0 1195 1195" id="si-ant-fast-forward"><path d="M136.333 201l420 416q7 8 9 18V224q0-21 18-29.5t33 6.5l420 416q9 9 9 22.5t-9 23.5l-420 416q-15 15-33 6.5t-18-29.5V645q-2 10-9 18l-420 416q-14 15-32.5 6.5t-18.5-29.5V224q0-21 18.5-29.5t32.5 6.5zm941-9q13 0 22.5 9.5t9.5 22.5v832q0 13-9.5 22.5t-22.5 9.5-22.5-9.5-9.5-22.5V224q0-13 9.5-22.5t22.5-9.5z"/></symbol><symbol viewBox="0 0 1195 1195" id="si-ant-file"><path d="M722.333 192l195 218v669q0 3-4 6t-9 3h-614q-5 0-9-3t-4-6V201q0-3 4-6t9-3h432zm29-64h-461q-32 0-54.5 21.5t-22.5 51.5v878q0 30 22.5 51.5t54.5 21.5h614q32 0 54.5-21.5t22.5-51.5V385zm-26 256V128h-64v256q0 26 19 45t45 19h253v-64h-253z"/></symbol><symbol viewBox="0 0 1195 1195" id="si-ant-file-excel"><path d="M722.333 192l195 218v669q0 3-4 6t-9 3h-614q-5 0-9-3t-4-6V201q0-3 4-6t9-3h432zm29-64h-461q-32 0-54.5 21.5t-22.5 51.5v878q0 30 22.5 51.5t54.5 21.5h614q32 0 54.5-21.5t22.5-51.5V385zm-26 256V128h-64v256q0 26 19 45t45 19h253v-64h-253zm33 130q-14 0-22 10l-139 167-139-167q-8-10-22-10-18 0-25.5 16.5t3.5 30.5l146 175-146 175q-11 14-3.5 30.5t25.5 16.5q14 0 22-10l139-168 139 168q8 10 22 10 18 0 25.5-16.5t-3.5-30.5l-146-175 146-176q11-13 3.5-29.5t-25.5-16.5z"/></symbol><symbol viewBox="0 0 1195 1195" id="si-ant-file-jpg"><path d="M722.333 192l195 218v669q0 3-4 6t-9 3h-614q-5 0-9-3t-4-6V201q0-3 4-6t9-3h432zm29-64h-461q-32 0-54.5 21.5t-22.5 51.5v878q0 30 22.5 51.5t54.5 21.5h614q32 0 54.5-21.5t22.5-51.5V385zm-26 256V128h-64v256q0 26 19 45t45 19h253v-64h-253zm-189 192q0-27-19-45.5t-45-18.5h-97q-13 0-22.5 9t-9.5 23q0 13 9.5 22.5t22.5 9.5h65q13 0 22.5 9t9.5 23v319q0 13-9.5 22.5t-22.5 9.5h-1q-13 0-22.5-9t-9.5-22v-62q0-14-9.5-23t-22.5-9-22.5 9-9.5 23v93q0 26 19 45t45 19h65q26 0 45-19t19-45V576zm64 0v416q0 13 9.5 22.5t22.5 9.5 22.5-9.5 9.5-22.5V767h123q26 0 45-18.5t19-45.5V576q0-27-19-45.5t-45-18.5h-123q-27 0-45.5 18.5t-18.5 45.5zm64 95v-63q0-14 9.5-23t22.5-9h59q13 0 22.5 9t9.5 23v63q0 13-9.5 22.5t-22.5 9.5h-59q-13 0-22.5-9.5t-9.5-22.5zm157 354q-14 0-23-9.5t-9-22.5 9-22.5 23-9.5q13 0 22.5 9.5t9.5 22.5-9.5 22.5-22.5 9.5z"/></symbol><symbol viewBox="0 0 1195 1195" id="si-ant-file-pdf"><path d="M751.333 128h-461q-32 0-54.5 21.5t-22.5 51.5v878q0 30 22.5 51.5t54.5 21.5h614q32 0 54.5-21.5t22.5-51.5V385zm143 256h-169V195zm10 704h-614q-5 0-9-3t-4-6V201q0-3 4-6t9-3h371v192q0 26 19 45t45 19h192v631q0 3-4 6t-9 3zm-50-252q-1-7-8-13-15-15-68-16-35 0-81 6-26-15-38-26-44-42-68-106 1-4 3-11 2-10 4.5-26t6-49.5 1.5-47.5q-1-5-2-9l-2-4q-9-21-26-20l-9-1q-25 0-30 20-12 44 18 161l-4 12q-13 31-45 93l-1 4q-22 42-42 77l-14 7q-14 7-28 16-71 42-79 80-3 16 7 22l13 7q8 4 17 4 46 0 119-128 92-30 184-44 34 19 71 31t63 12q9 0 16-2 10-3 16-11 9-14 6-38zm-482 156q5-13 22-34.5t41-40.5q1-2 12-11-46 73-75 86zm201-462q7 0 11.5 15t4.5 35q1 30-12 53-9-27-9-67 0-36 5-36zm-60 329q13-23 22-40 23-44 38-85 26 47 64 80 3 2 10 8-75 15-134 37zm323-3q-5 3-18 3-21 0-73-22 19-1 34-1 24 0 42 4 8 2 12.5 6t4 6.5-1.5 3.5z"/></symbol><symbol viewBox="0 0 1195 1195" id="si-ant-file-ppt"><path d="M722.333 192l195 218v669q0 3-4 6t-9 3h-614q-5 0-9-3t-4-6V201q0-3 4-6t9-3h432zm29-64h-461q-32 0-54.5 21.5t-22.5 51.5v878q0 30 22.5 51.5t54.5 21.5h614q32 0 54.5-21.5t22.5-51.5V385zm-26 256V128h-64v256q0 26 19 45t45 19h253v-64h-253zm1 319V576v127zm0-191h-257q-26 0-45 18.5t-19 44.5v416q0 13 9 22.5t23 9.5q13 0 22.5-9.5t9.5-22.5V767h257q27 0 45.5-18.5t18.5-45.5V576q0-27-18.5-45.5t-45.5-18.5zm-32 191h-193q-14 0-23-9.5t-9-22.5v-63q0-14 9-23t23-9h193q14 0 23 9t9 23v63q0 13-9 22.5t-23 9.5z"/></symbol><symbol viewBox="0 0 1195 1195" id="si-ant-file-text"><path d="M751.333 128h-461q-32 0-54.5 21.5t-22.5 51.5v878q0 30 22.5 51.5t54.5 21.5h614q32 0 54.5-21.5t22.5-51.5V385zm143 256h-169V195zm10 704h-614q-5 0-9-3t-4-6V201q0-3 4-6t9-3h371v192q0 26 19 45t45 19h192v631q0 3-4 6t-9 3zm-531-512h256q13 0 22.5-9.5t9.5-22.5-9.5-22.5-22.5-9.5h-256q-13 0-22.5 9.5t-9.5 22.5 9.5 22.5 22.5 9.5zm448 128h-448q-13 0-22.5 9.5t-9.5 22.5 9.5 22.5 22.5 9.5h448q14 0 23-9.5t9-22.5-9-22.5-23-9.5zm-192 256h-256q-13 0-22.5-9.5t-9.5-22.5 9.5-22.5 22.5-9.5h256q13 0 22.5 9.5t9.5 22.5-9.5 22.5-22.5 9.5z"/></symbol><symbol viewBox="0 0 1195 1195" id="si-ant-file-unknown"><path d="M722.333 192l195 218v669q0 3-4 6t-9 3h-614q-5 0-9-3t-4-6V201q0-3 4-6t9-3h432zm29-64h-461q-32 0-54.5 21.5t-22.5 51.5v878q0 30 22.5 51.5t54.5 21.5h614q32 0 54.5-21.5t22.5-51.5V385zm-26 256V128h-64v256q0 26 19 45t45 19h253v-64h-253zm-128 518q-13 0-22.5-9t-9.5-23v-2q0-34 19-62t51-41q28-12 45-37.5t17-55.5q0-42-29-71.5t-71-29.5q-35 0-62 21.5t-35 54.5q-3 11-11.5 18t-19.5 7q-16 0-25.5-12.5t-5.5-27.5q13-54 57.5-89t101.5-35q68 0 116 48t48 116q0 51-29 92-27 41-73 60-30 12-30 44v2q0 14-9.5 23t-22.5 9zm-1 123q-13 0-22.5-9.5t-9.5-22.5 9.5-22.5 22.5-9.5 22.5 9.5 9.5 22.5-9.5 22.5-22.5 9.5z"/></symbol><symbol viewBox="0 0 1196 1196" id="si-ant-filter"><path d="M1009.417 193l-353 443-14 17v247q0 18-10.5 42.5t-22.5 36.5l-58 56V653l-13-18-353-442h824zm60-64h-944q-30 0-38 16.5t11 40.5l389 489v440q0 38 23 38 13 0 29-16l115-113q21-21 36.5-57t15.5-67V676l390-490q19-24 11-40.5t-38-16.5z"/></symbol><symbol viewBox="0 0 1195 1195" id="si-ant-folder"><path d="M490.333 256q5 0 11 5t7 10l19 77v1q5 23 26 39 20 17 45 17h437q10 0 10 11v597q0 5-3 8t-6 3h-878q-9 0-9-11V267q0-11 9-11h332zm0-64h-332q-30 0-51.5 22t-21.5 53v746q0 31 21.5 53t51.5 22h878q30 0 51.5-22t21.5-53V416q0-31-21.5-53t-51.5-22h-437q-3 0-6-2.5t-4-4.5l-18-77q-7-28-30-46.5t-51-18.5z"/></symbol><symbol viewBox="0 0 1196 1196" id="si-ant-folder-open"><path d="M1063.417 579h1V465q0-29-20.5-49.5t-48.5-20.5h-425q-2 0-5-2.5t-4-4.5l-17-71q-6-25-28-42.5t-48-17.5h-314q-28 0-48.5 20.5t-20.5 48.5v692q0 27 18 46 20 23 51 23 619 1 804 0 23 0 40.5-15t22.5-38l42-195 45-205q5-21-9-38t-36-17zm-914 272V326q0-5 5-5h314q4 0 8 4 5 3 6 7l17 71v1q6 23 26 39 21 16 45 16h425q5 0 5 5v115h-755q-17 0-29.5 10t-15.5 26zm850-18l-41 190h-781l82-380h782z"/></symbol><symbol viewBox="0 0 1196 1196" id="si-ant-forward"><path d="M652.417 199l447 419q10 9 10 22.5t-10 23.5l-447 419q-15 14-34.5 6t-19.5-29V222q0-21 19.5-29.5t34.5 6.5zm-513 0l448 419q9 9 9 22.5t-9 23.5l-448 419q-15 14-34.5 6t-19.5-29V222q0-21 19.5-29.5t34.5 6.5z"/></symbol><symbol viewBox="0 0 1195 1195" id="si-ant-frown"><path d="M597.333 192q91 0 174 35 81 34 143 96t96 143q35 83 35 174t-35 174q-34 81-96 143t-143 96q-83 35-174 35t-174-35q-81-34-143-96t-96-143q-35-83-35-174t35-174q34-81 96-143t143-96q83-35 174-35zm0-64q-139 0-257 68.5T153.833 383t-68.5 257 68.5 257 186.5 186.5 257 68.5 257-68.5 186.5-186.5 68.5-257-68.5-257-186.5-186.5-257-68.5zm-288 446q-13 0-22.5-9.5t-9.5-22.5v-64q0-13 9.5-22.5t22.5-9.5 22.5 9.5 9.5 22.5v64q0 13-9.5 22.5t-22.5 9.5zm575 0q-13 0-22.5-9.5t-9.5-22.5v-64q0-13 9.5-22.5t22.5-9.5 22.5 9.5 9.5 22.5v64q0 13-9.5 22.5t-22.5 9.5zm-607 131zm640 0zm-320-65q-106 0-182 74-61 60-73 144-2 14 7.5 25t23.5 11q12 0 21-8t11-19q9-62 55-107 57-56 137-56t137 56q46 45 55 107 2 12 11 19.5t21 7.5q14 0 24-11t7-25q-12-83-73-144-76-74-182-74z"/></symbol><symbol viewBox="0 0 1195 1195" id="si-ant-frown-circle"><path d="M597.333 128q-139 0-257 68.5T153.833 383t-68.5 257 68.5 257 186.5 186.5 257 68.5 257-68.5 186.5-186.5 68.5-257-68.5-257-186.5-186.5-257-68.5zm-256 414q0 13-9.5 22.5t-22.5 9.5-22.5-9.5-9.5-22.5v-64q0-13 9.5-22.5t22.5-9.5 22.5 9.5 9.5 22.5v64zm480 352q-12 0-21-8t-11-19q-9-62-55-107-57-56-137-56t-137 56q-46 45-55 107-2 12-11 19.5t-21 7.5q-14 0-23.5-11t-7.5-25q12-83 73-144 76-74 182.5-74t181.5 74q61 60 74 144 2 14-8 25t-24 11zm95-352q0 13-9.5 22.5t-22.5 9.5-22.5-9.5-9.5-22.5v-64q0-13 9.5-22.5t22.5-9.5 22.5 9.5 9.5 22.5v64z"/></symbol><symbol viewBox="0 0 1195 1195" id="si-ant-github"><path d="M85.333 653q0 166 95.5 298.5t247.5 185.5q6 1 10 1t6.5-1.5 4-3 2-5 .5-4.5v-101q-37 4-66-.5t-45.5-14-29-23.5-17-25.5-9-24-5.5-14.5q-9-15-27-27.5t-27-20-2-14.5q50-26 113 66 34 51 119 30 10-41 40-70-116-21-172-86t-56-158q0-87 55-151-22-65 6-137 29-2 65 11.5t50.5 23 25.5 17.5q57-16 128.5-16t129.5 16q13-9 29-19t49-21.5 61-9.5q27 71 6 135 56 64 56 152 0 92-56.5 157.5t-171.5 85.5q43 43 43 104v129q0 1 1 3 0 6 .5 9t4.5 6 11 3q154-52 251.5-185.5t97.5-300.5q0-104-40.5-199t-109-163.5-163.5-109-199-40.5-199 40.5-163.5 109-109 163.5-40.5 199z"/></symbol><symbol viewBox="0 0 1196 1196" id="si-ant-hdd"><path d="M933.417 166q-5-17-19-27t-31-10h-578q-18 0-32 10.5t-19 26.5q-169 607-169 612v321q0 23 16 38.5t38 15.5h916q22 0 38-15.5t16-38.5l1-330zm-620 27h562l168 576h-892zm732 896h-896V833h896v256zm-352-64q13 0 22.5-9.5t9.5-22.5v-64q0-13-9.5-22.5t-22.5-9.5-22.5 9.5-9.5 22.5v64q0 13 9.5 22.5t22.5 9.5zm128.5 0q13.5 0 22.5-9.5t9-22.5v-64q0-13-9-22.5t-22.5-9.5-23 9.5-9.5 22.5v64q0 13 9.5 22.5t23 9.5zm128 0q13.5 0 22.5-9.5t9-22.5v-64q0-13-9-22.5t-22.5-9.5-23 9.5-9.5 22.5v64q0 13 9.5 22.5t23 9.5z"/></symbol><symbol viewBox="0 0 1196 1196" id="si-ant-heart"><path d="M821.417 195q-67 0-125.5 30t-98.5 82q-40-52-98.5-82t-125.5-30q-119 0-204 89.5t-84 214.5q1 69 29.5 129.5t77.5 102.5q3 3 9 8 10 9 170 154.5t205 185.5q9 8 21 8t21-8q34-30 185-167.5t197-178.5q51-42 80-103.5t29-131.5q0-125-84.5-214t-203.5-89z"/></symbol><symbol viewBox="0 0 1196 1196" id="si-ant-heart-o"><path d="M821.417 260q88 0 153 65 33 33 51 77 19 45 19 95-1 56-24 105-22 47-62 80l-2 2q-50 45-199 181-118 108-160 145-44-39-242-220-101-92-110-99-10-9-10-10-40-33-62-81t-22-102q-1-50 18-95 18-44 51-77 65-66 153-66 50 0 95 23t77 64q20 25 52 25t52-25q32-41 77-64t95-23zm0-65q-67 0-125.5 30t-98.5 82q-40-52-98.5-82t-125.5-30q-119 0-204 89.5t-84 214.5q1 69 29.5 129.5t77.5 102.5q3 3 9 8 10 9 170 154.5t205 185.5q9 8 21 8t21-8q34-30 185-167.5t197-178.5q51-42 80-103.5t29-131.5q0-125-84.5-214t-203.5-89z"/></symbol><symbol viewBox="0 0 1195 1195" id="si-ant-home"><path d="M1085.333 618l-465-481q-10-9-23-9t-23 9l-464 480q-9 9-9 22.5t9 22.5q9 10 22.5 10t22.5-10l58-58v484q0 27 19 45.5t45 18.5h639q27 0 45.5-18.5t18.5-45.5V604l60 60q10 9 23 9t22-9q10-10 10-23t-10-23zm-551 470V832h127v256h-127zm382 0h-191V832q0-26-18.5-45t-45.5-19h-127q-26 0-45 19t-19 45v256h-193V540l320-335 319 335v548z"/></symbol><symbol viewBox="0 0 1196 1196" id="si-ant-ie"><path d="M858.417 720h248q3-24 3-53 0-124-62-232 65-174-15-256-39-39-136-32t-214 59q-17-1-36-1-161 0-286 98.5t-163 251.5q104-133 235-196-16 14-68 67-90 90-156 197.5t-94.5 199-28 165 32.5 105.5q52 47 133 42.5t185-55.5q98 50 210 50 151 0 271-87t167-226h-250q-27 49-74.5 78t-105 29-105-29-74.5-78q-24-45-24-96v-1h407zm-406-122q4-77 60.5-130.5t134-53.5 133.5 53.5 61 130.5h-389zm577-367q52 53 4 183-80-122-215-177 153-65 211-6zm-846 846q-32-36-24.5-101.5t51.5-152.5q27 76 78 138t119 103q-77 35-134 39t-90-26z"/></symbol><symbol viewBox="0 0 1195 1195" id="si-ant-inbox"><path d="M1109.333 637l-242-402q-13-22-38-22h-459q-26 0-39 22l-246 410v349q0 30 21.5 51.5t51.5 21.5h878q30 0 51.5-21.5t21.5-51.5V637zm-86 71l-60 27h-129q-16 2-26 11l-115 102h-192l-115-102q-10-9-26-11h-189v-66l222-371h413l217 363v47z"/></symbol><symbol viewBox="0 0 1195 1195" id="si-ant-info"><path d="M565.333 128q13 0 22.5 9.5t9.5 22.5-9.5 22.5-22.5 9.5-22.5-9.5-9.5-22.5 9.5-22.5 22.5-9.5zm32 224q0-14-9.5-23t-22.5-9h-128q-13 0-22.5 9t-9.5 23q0 13 9.5 22.5t22.5 9.5h96v704h-96q-13 0-22.5 9.5t-9.5 22.5 9.5 22.5 22.5 9.5h255q13 0 23-9.5t10-22.5-10-22.5-23-9.5h-95V352z"/></symbol><symbol viewBox="0 0 1195 1195" id="si-ant-info-circle"><path d="M597.333 128q-139 0-257 68.5T153.833 383t-68.5 257 68.5 257 186.5 186.5 257 68.5 257-68.5 186.5-186.5 68.5-257-68.5-257-186.5-186.5-257-68.5zm0 192q13 0 22.5 9.5t9.5 22.5-9.5 22.5-22.5 9.5-22.5-9.5-9.5-22.5 9.5-22.5 22.5-9.5zm96 640h-192q-13 0-22.5-9.5t-9.5-22.5 9.5-22.5 22.5-9.5h62V574h-62q-14 0-23-9.5t-9-23 9-22.5 23-9h94q14 0 23 9t9 23v354h66q13 0 22.5 9.5t9.5 22.5-9.5 22.5-22.5 9.5z"/></symbol><symbol viewBox="0 0 1195 1195" id="si-ant-info-circle-o"><path d="M597.333 320q13 0 22.5 9.5t9.5 22.5-9.5 22.5-22.5 9.5-22.5-9.5-9.5-22.5 9.5-22.5 22.5-9.5zm96 576h-66V542q0-14-9-23t-23-9h-94q-14 0-23 9t-9 22.5 9 23 23 9.5h62v322h-62q-13 0-22.5 9.5t-9.5 22.5 9.5 22.5 22.5 9.5h192q13 0 22.5-9.5t9.5-22.5-9.5-22.5-22.5-9.5zm-96-704q91 0 174 35 81 34 143 96t96 143q35 83 35 174t-35 174q-34 81-96 143t-143 96q-83 35-174 35t-174-35q-81-34-143-96t-96-143q-35-83-35-174t35-174q34-81 96-143t143-96q83-35 174-35zm0-64q-139 0-257 68.5T153.833 383t-68.5 257 68.5 257 186.5 186.5 257 68.5 257-68.5 186.5-186.5 68.5-257-68.5-257-186.5-186.5-257-68.5z"/></symbol><symbol viewBox="0 0 1195 1195" id="si-ant-laptop"><path d="M1109.333 960h-1024v32q0 13 9.5 22.5t22.5 9.5h447v-32h64v32h449q13 0 22.5-9.5t9.5-22.5v-32zm-64-640v512h-896V320h896zm0-64h-896q-26 0-45 19t-19 45v512q0 27 19 45.5t45 18.5h896q26 0 45-18.5t19-45.5V320q0-26-19-45t-45-19z"/></symbol><symbol viewBox="0 0 1195 1195" id="si-ant-left"><path d="M842.333 137q10 10 10 23t-10 23l-482 457 482 457q10 10 10 23t-10 23q-10 9-24 9t-24-9l-506-480q-10-10-10-23t10-23l506-480q10-9 24-9t24 9z"/></symbol><symbol viewBox="0 0 1196 1196" id="si-ant-like"><path d="M1043.417 574q-9-34-30-60t-45-40q-36-21-79-21h-116q19-52 24-118v-3q0-63-18-108-17-43-50-67-31-23-70-26-33-3-66 8-46 15-67 61-10 24-18 74-4 21-6 31-21 96-87 167-35 37-74 60-28 16-61 16h-122q-30 0-51.5 21.5t-21.5 51.5v392q0 30 21 51t51 21h172q36 0 104 22 43 14 70.5 21t86 15 125.5 8h2q131 0 191-66 28-31 37-71 2-9 3-17 41-31 52-75 8-37-6-76 36-33 42-74 6-38-13-75 15-28 21-57 6-34-1-66zm-894 439V621q0-9 9-9h119v409h-120q-8 0-8-8zm812-296q16 22 12 46-4 25-37 47-11 8-13.5 20.5t4.5 23.5q17 27 10 54-6 25-37 44-18 11-16 30 2 33-24 61-41 44-144 45h-1q-62 0-116.5-7.5t-80.5-14.5-65-20q-71-23-112-25V602q17-6 33-15 46-28 87-71 78-83 104-197 3-13 6-35 6-42 14-60t27-24q47-15 79 8 42 31 42 123-5 63-23 106-12 29 5 54.5t48 25.5h126q26 0 46 12 36 21 45 60 10 42-21 91-13 20 2 37z"/></symbol><symbol viewBox="0 0 1196 1196" id="si-ant-line-chart"><path d="M973.917 328q-9.5-9-22.5-9t-23 9l-285 435-115-116q-13-12-30-9-10 2-17 9l-258 258q-10 10-10 23t9.5 22.5 23 9.5 22.5-9l236-237 116 116q10 10 23 10 14 0 24-10l306-457q10-9 10-22.5t-9.5-22.5zm104.5 761h-897q-13 0-22.5-9.5t-9.5-22.5V161q0-13-9.5-22.5t-22.5-9.5-22.5 9.5-9.5 22.5v928q0 26 19 45t45 19h929q13 0 22.5-9.5t9.5-22.5-9.5-22.5-22.5-9.5z"/></symbol><symbol viewBox="0 0 1196 1196" id="si-ant-link"><path d="M645.417 654q-14 14-7 32 11 27 11 56 0 63-45 108l-197 197q-45 45-108.5 45t-108-44.5-44.5-108 45-108.5q137-137 192-190 9-9 9-22t-9-22-21.5-9-21.5 9q-194 192-192 192-63 62-63 150.5t63 151.5q62 62 150.5 62t151.5-62l197-198q46-46 58.5-109t-10.5-120q-6-15-22-18.5t-28 8.5zm-96-26q14-14 7-32-11-27-11-56 0-63 45-108l198-197q44-45 107.5-45t108 44.5 44.5 108-44 108.5q-138 137-193 190-9 9-9 22t9 22 21.5 9 21.5-9l192-192q63-62 63-150.5t-63-151.5q-62-62-150.5-62t-150.5 62l-198 198q-46 46-58.5 109t10.5 120q6 15 22 18.5t28-8.5z"/></symbol><symbol viewBox="0 0 1195 1195" id="si-ant-lock"><path d="M982.333 576v-42q0-82-31-158-29-73-82-129t-122-87q-72-32-150-32t-150 32q-69 31-122 87.5t-83 128.5q-30 76-30 158v545q0 30 20.5 51.5t48.5 21.5h632q28 0 48.5-21.5t20.5-51.5V576zm-706-42q0-70 26-134 25-62 69-109 45-47 102-72h1q58-27 123-27 64 0 123 26 58 26 102 73 45 48 70 109 26 64 26 134v42h-642v-42zm642 545q0 9-5 9h-632q-5 0-5-9V640h642v439zm-258-311q0-26-18.5-44.5t-44.5-18.5-44.5 18.5-18.5 44.5q0 36 31 55v106q0 13 9.5 22.5t22.5 9.5 22.5-9.5 9.5-22.5V822q31-18 31-54z"/></symbol><symbol viewBox="0 0 1195 1195" id="si-ant-logout"><path d="M406.333 609q0 13 9.5 22.5t22.5 9.5h562l-155 155q-9 9-9 22.5t9 22.5 22.5 9 22.5-9l210-209q9-10 9-23t-9-23l-210-209q-9-9-22.5-9t-22.5 9-9 22.5 9 22.5l155 155h-562q-13 0-22.5 9.5t-9.5 22.5zm671 287q-13 0-22.5 9.5t-9.5 22.5v160h-896V192h896v159q0 13 9.5 22.5t22.5 9.5 22.5-9.5 9.5-22.5V192q0-26-19-45t-45-19h-896q-26 0-45 19t-19 45v896q0 26 19 45t45 19h896q26 0 45-19t19-45V928q0-13-9.5-22.5t-22.5-9.5z"/></symbol><symbol viewBox="0 0 1195 1195" id="si-ant-mail"><path d="M1109.333 315q-2-25-20.5-42t-43.5-17h-896q-26 0-45 19t-19 45v640q0 26 19 45t45 19h896q26 0 45-19t19-45V315zm-112 5l-400 303-382-303h782zm48 640h-896V349l428 339q19 16 39 1l429-325v596z"/></symbol><symbol viewBox="0 0 1195 1195" id="si-ant-meh"><path d="M597.333 192q91 0 174 35 81 34 143 96t96 143q35 83 35 174t-35 174q-34 81-96 143t-143 96q-83 35-174 35t-174-35q-81-34-143-96t-96-143q-35-83-35-174t35-174q34-81 96-143t143-96q83-35 174-35zm0-64q-139 0-257 68.5T153.833 383t-68.5 257 68.5 257 186.5 186.5 257 68.5 257-68.5 186.5-186.5 68.5-257-68.5-257-186.5-186.5-257-68.5zm-288 446q-13 0-22.5-9.5t-9.5-22.5v-64q0-13 9.5-22.5t22.5-9.5 22.5 9.5 9.5 22.5v64q0 13-9.5 22.5t-22.5 9.5zm575 0q-13 0-22.5-9.5t-9.5-22.5v-64q0-13 9.5-22.5t22.5-9.5 22.5 9.5 9.5 22.5v64q0 13-9.5 22.5t-22.5 9.5zm-607 131zm640 0zm-96 63h-448q-13 0-22.5-9t-9.5-23q0-13 9.5-22.5t22.5-9.5h448q14 0 23 9.5t9 22.5q0 14-9 23t-23 9z"/></symbol><symbol viewBox="0 0 1195 1195" id="si-ant-meh-circle"><path d="M597.333 128q-139 0-257 68.5T153.833 383t-68.5 257 68.5 257 186.5 186.5 257 68.5 257-68.5 186.5-186.5 68.5-257-68.5-257-186.5-186.5-257-68.5zm-256 414q0 13-9.5 22.5t-22.5 9.5-22.5-9.5-9.5-22.5v-64q0-13 9.5-22.5t22.5-9.5 22.5 9.5 9.5 22.5v64zm512 194q0 14-9 23t-23 9h-448q-13 0-22.5-9t-9.5-23q0-13 9.5-22.5t22.5-9.5h448q14 0 23 9.5t9 22.5zm63-194q0 13-9.5 22.5t-22.5 9.5-22.5-9.5-9.5-22.5v-64q0-13 9.5-22.5t22.5-9.5 22.5 9.5 9.5 22.5v64z"/></symbol><symbol viewBox="0 0 1195 1195" id="si-ant-menu-fold"><path d="M86.333 353q0-13 9.5-22.5t22.5-9.5h959q13 0 22.5 9.5t9.5 22.5-9.5 22.5-22.5 9.5h-959q-13 0-22.5-9.5t-9.5-22.5zm319 318q0-14 9.5-23t22.5-9h640q13 0 22.5 9t9.5 23q0 13-9.5 22.5t-22.5 9.5h-640q-13 0-22.5-9.5t-9.5-22.5zm-319 320q0-13 9.5-22.5t22.5-9.5h959q13 0 22.5 9.5t9.5 22.5-9.5 22.5-22.5 9.5h-959q-13 0-22.5-9.5t-9.5-22.5zm173-212l-170-131q-4-4-4-9.5t4-8.5l170-132q5-4 11.5-1t6.5 10v264q0 6-6.5 9t-11.5-1z"/></symbol><symbol viewBox="0 0 1195 1195" id="si-ant-menu-unfold"><path d="M1076.333 385h-959q-13 0-22.5-9.5t-9.5-22.5 9.5-22.5 22.5-9.5h959q13 0 22.5 9.5t9.5 22.5-9.5 22.5-22.5 9.5zm-319 318h-640q-13 0-22.5-9.5t-9.5-22.5q0-14 9.5-23t22.5-9h640q13 0 22.5 9t9.5 23q0 13-9.5 22.5t-22.5 9.5zm319 320h-959q-13 0-22.5-9.5t-9.5-22.5 9.5-22.5 22.5-9.5h959q13 0 22.5 9.5t9.5 22.5-9.5 22.5-22.5 9.5zm-159-253V507q0-7 6.5-10t11.5 1l170 132q4 3 4 8.5t-4 9.5l-170 131q-5 4-11.5 1t-6.5-10z"/></symbol><symbol viewBox="0 0 1196 1196" id="si-ant-message"><path d="M1001.417 321q18 0 31 13t13 31v488q0 18-13 31t-31 13h-676l-12 5-141 57q-10 2-18 2h-5q2-11 9-26l1-1v-1l50-116 5-12V365q0-18 13-31t31-13h743zm0-64h-743q-45 0-76.5 31.5t-31.5 76.5v427l-49 115q-26 53-10.5 85.5t63.5 32.5q17 0 37-4l146-60h664q45 0 76.5-31.5t31.5-76.5V365q0-45-32-76.5t-76-31.5zm-564 384q-14 0-23-9.5t-9-22.5v-64q0-13 9-22.5t23-9.5q13 0 22.5 9.5t9.5 22.5v64q0 13-9.5 22.5t-22.5 9.5zm192 0q-13 0-22.5-9.5t-9.5-22.5v-64q0-13 9.5-22.5t22.5-9.5 22.5 9.5 9.5 22.5v64q0 13-9.5 22.5t-22.5 9.5zm193 0q-14 0-23-9.5t-9-22.5v-64q0-13 9-22.5t23-9.5q13 0 22.5 9.5t9.5 22.5v64q0 13-9.5 22.5t-22.5 9.5z"/></symbol><symbol viewBox="0 0 1195 1195" id="si-ant-minus"><path d="M119.333 576h956q14 0 24 9.5t10 22.5-10 22.5-24 9.5h-956q-14 0-24-9.5t-10-22.5 10-22.5 24-9.5z"/></symbol><symbol viewBox="0 0 1195 1195" id="si-ant-minus-circle"><path d="M597.333 128q-139 0-257 68.5T153.833 383t-68.5 257 68.5 257 186.5 186.5 257 68.5 257-68.5 186.5-186.5 68.5-257-68.5-257-186.5-186.5-257-68.5zm320 479q0 13-9.5 22.5t-22.5 9.5h-576q-13 0-22.5-9.5t-9.5-22.5 9.5-22.5 22.5-9.5h576q13 0 22.5 9.5t9.5 22.5z"/></symbol><symbol viewBox="0 0 1195 1195" id="si-ant-minus-circle-o"><path d="M597.333 192q91 0 174 35 81 34 143 96t96 143q35 83 35 174t-35 174q-34 81-96 143t-143 96q-83 35-174 35t-174-35q-81-34-143-96t-96-143q-35-83-35-174t35-174q34-81 96-143t143-96q83-35 174-35zm0-64q-139 0-257 68.5T153.833 383t-68.5 257 68.5 257 186.5 186.5 257 68.5 257-68.5 186.5-186.5 68.5-257-68.5-257-186.5-186.5-257-68.5zm288 511h-576q-13 0-22.5-9.5t-9.5-22.5 9.5-22.5 22.5-9.5h576q13 0 22.5 9.5t9.5 22.5-9.5 22.5-22.5 9.5z"/></symbol><symbol viewBox="0 0 1195 1195" id="si-ant-minus-square"><path d="M1045.333 1151q26 0 45-19t19-45V193q0-27-19-45.5t-45-18.5h-896q-26 0-45 18.5t-19 45.5v894q0 26 19 45t45 19h896zm0-64h-896V193h896v894zm-128-447q0 13-9.5 22.5t-22.5 9.5h-576q-13 0-22.5-9.5t-9.5-22.5 9.5-22.5 22.5-9.5h576q13 0 22.5 9.5t9.5 22.5z"/></symbol><symbol viewBox="0 0 1195 1195" id="si-ant-mobile"><path d="M917.333 202q0-30-21-52t-50-22h-498q-29 0-50 22t-21 52v877q0 30 21 51.5t50 21.5l498-2q29 0 50-21.5t21-51.5V202zm-576 0q0-10 7-10h498q7 0 7 10v693h-512V202zm512 875q0 9-7 9l-498 2q-7 0-7-9V959h512v118zm-256-21q-13 0-22.5-9t-9.5-23q0-13 9.5-22.5t22.5-9.5 22.5 9.5 9.5 22.5-9.5 22.5-22.5 9.5z"/></symbol><symbol viewBox="0 0 1195 1195" id="si-ant-notification"><path d="M597.333 192q58 0 111 22 51 22 91 61 39 40 61 91 22 53 23 110v230q0 24 9 46t26 39l43 43h-728l45-45q16-16 24.5-36.5t8.5-42.5V477q0-58 22-111 22-51 62-91 40-39 91-61 53-22 111-22zm0-64q-95 0-175.5 46.5t-127.5 127-47 174.5v234q0 20-14 34l-67 67q-17 17-17 42v10q0 15 10 25t24 10h828q14 0 24-10t10-25v-10q0-25-17-42l-65-65q-16-16-16-39V476q-1-94-47.5-174.5t-127-127-175.5-46.5zm0 1024q-71 0-125-45t-67-113q-3-15 6.5-26.5t24.5-11.5q11 0 20 7.5t11 18.5q10 46 46 76t84 30 84-30 46-76q2-11 10.5-18.5t20.5-7.5q15 0 24.5 11.5t6.5 26.5q-13 68-67 113t-125 45z"/></symbol><symbol viewBox="0 0 1195 1195" id="si-ant-paper-clip"><path d="M1020.833 363.5q-81.5-81.5-197.5-81.5-54-1-105 20-52 21-92 60l-268 269q-46 45-45.5 110t46 110.5 109.5 45.5h1q64 0 109-45l236-236q9-9 9-22.5t-9-22.5q-9-10-22.5-10t-22.5 10l-236 235q-26 27-64 27h-1q-38 0-64.5-27t-27-65 26.5-65l269-268q62-62 151-62t152 63 63 152-62 151l-285 285q-91 91-221 91t-222-92-92-222 91-221l367-368q10-9 10-22.5t-10-22.5q-9-10-22-10t-23 10l-368 368q-53 53-82 124-27 68-27 142t28 142q28 71 83 125 54 54 125 83 67 28 142 28h1q73 0 141-27 70-28 124-82l285-285q40-40 61-93 20-50 20-104 0-116-81.5-197.5z"/></symbol><symbol viewBox="0 0 1195 1195" id="si-ant-pause"><path d="M373.333 1152q-13 0-22.5-9.5t-9.5-22.5V160q0-13 9.5-22.5t22.5-9.5 22.5 9.5 9.5 22.5v960q0 13-9.5 22.5t-22.5 9.5zm446 0q-13 0-22.5-9.5t-9.5-22.5V160q0-13 9.5-22.5t22.5-9.5 22.5 9.5 9.5 22.5v960q0 13-9.5 22.5t-22.5 9.5z"/></symbol><symbol viewBox="0 0 1195 1195" id="si-ant-pause-circle"><path d="M597.333 128q-139 0-257 68.5T153.833 383t-68.5 257 68.5 257 186.5 186.5 257 68.5 257-68.5 186.5-186.5 68.5-257-68.5-257-186.5-186.5-257-68.5zm-128 736q0 13-9.5 22.5t-22.5 9.5h-1q-13 0-22-9.5t-9-22.5V416q0-13 9-22.5t22-9.5h1q13 0 22.5 9.5t9.5 22.5v448zm320 0q0 13-9 22.5t-22 9.5h-1q-13 0-22.5-9.5t-9.5-22.5V416q0-13 9.5-22.5t22.5-9.5h1q13 0 22.5 9.5t9.5 22.5z"/></symbol><symbol viewBox="0 0 1195 1195" id="si-ant-pause-circle-o"><path d="M437.333 896h-1q-13 0-22-9.5t-9-22.5V416q0-13 9-22.5t22-9.5h1q13 0 22.5 9.5t9.5 22.5v448q0 13-9.5 22.5t-22.5 9.5zm321 0h-1q-13 0-22.5-9.5t-9.5-22.5V416q0-13 9.5-22.5t22.5-9.5h1q13 0 22.5 9.5t9.5 22.5v448q0 13-9.5 22.5t-22.5 9.5zm-161-704q91 0 174 35 81 34 143 96t96 143q35 83 35 174t-35 174q-34 81-96 143t-143 96q-83 35-174 35t-174-35q-81-34-143-96t-96-143q-35-83-35-174t35-174q34-81 96-143t143-96q83-35 174-35zm0-64q-139 0-257 68.5T153.833 383t-68.5 257 68.5 257 186.5 186.5 257 68.5 257-68.5 186.5-186.5 68.5-257-68.5-257-186.5-186.5-257-68.5z"/></symbol><symbol viewBox="0 0 1195 1195" id="si-ant-pay-circle"><path d="M597.333 128q-139 0-257 68.5T153.833 383t-68.5 257 68.5 257 186.5 186.5 257 68.5 257-68.5 186.5-186.5 68.5-257-68.5-257-186.5-186.5-257-68.5zm-148 204q9-10 22.5-10t22.5 10l103 102 103-102q9-10 22.5-10t22.5 10q9 9 9 22.5t-9 22.5l-125 125q-9 9-22.5 9.5t-22.5-9.5l-126-125q-9-9-9-22.5t9-22.5zm405 274q0 13-9 22.5t-23 9.5h-193v132h128q14 0 23 9.5t9 22.5-9 22.5-23 9.5h-128v92q0 13-9.5 22.5t-22.5 9.5-22.5-9.5-9.5-22.5v-92h-125q-14 0-23-9.5t-9-22.5 9-22.5 23-9.5h125V638h-191q-14 0-23-9.5t-9-22.5 9-22.5 23-9.5h448q14 0 23 9.5t9 22.5z"/></symbol><symbol viewBox="0 0 1195 1195" id="si-ant-pay-circle-o"><path d="M597.333 128q-139 0-257 68.5T153.833 383t-68.5 257 68.5 257 186.5 186.5 257 68.5 257-68.5 186.5-186.5 68.5-257-68.5-257-186.5-186.5-257-68.5zm317 829q-62 62-143 96-83 35-174 35t-174-35q-81-34-143-96t-96-143q-35-83-35-174t35-174q34-81 96-143t143-96q83-35 174-35t174 35q81 34 143 96t96 143q35 83 35 174t-35 174q-34 81-96 143zm-339-455q9 9 22.5 9t22.5-9l125-125q9-9 9-22.5t-9-22.5q-9-10-22.5-10t-22.5 10l-103 102-103-102q-9-10-22.5-10t-22.5 10q-9 9-9 22.5t9 22.5zm247 72h-448q-14 0-23 9.5t-9 22.5 9 22.5 23 9.5h191v132h-125q-14 0-23 9.5t-9 22.5 9 22.5 23 9.5h125v92q0 13 9.5 22.5t22.5 9.5 22.5-9.5 9.5-22.5v-92h128q14 0 23-9.5t9-22.5-9-22.5-23-9.5h-128V638h193q14 0 23-9.5t9-22.5-9-22.5-23-9.5z"/></symbol><symbol viewBox="0 0 1196 1196" id="si-ant-phone"><path d="M912.417 193q15 0 36 20 22 20 50 64 37 57 45 127 8 73-16 155-23 79-73 160-51 80-125 154-52 52-108 93-55 41-112 68-55 27-109 41t-103 14q-92 0-164-47-42-27-62-47-20-21-22-37-1-12 12-25 45-45 85-73 47-32 74-32h8q5 3 16 13 12 10 44 41 41 41 57 52v1h1q22 15 50 15 26 0 57-13t69-41q48-34 122-105l1-1 2-2q87-92 123-148 18-28 27-53 8-21 9-40 2-33-16-58-10-15-49-54l-3-3q-30-30-41-43-10-11-13-17-7-22 26-72 28-45 79-95 12-12 23-12zm0-64q-38 0-68 30-55 55-88 106-49 75-33 126 5 15 20 33t50 53q37 38 45 49 15 21-22 80-32 50-116 138-71 68-115 100-58 42-89 42-8 0-14-4-12-9-49-45-35-35-53-50t-33-20q-13-4-27-4-46 0-110 45-45 31-95 80-34 34-29 77 6 63 112 131 88 57 199 57 116 0 240.5-61.5t236.5-173.5q79-78 134-165 55-88 80-176 56-192-36-335-33-50-66.5-81.5t-73.5-31.5z"/></symbol><symbol viewBox="0 0 1195 1195" id="si-ant-picture"><path d="M1045.333 192h-896q-26 0-45 19t-19 45v768q0 26 19 45t45 19h896q26 0 45-19t19-45V256q0-26-19-45t-45-19zm-896 64h896v714l-236-348q-7-12-21-14t-25 7l-154 125-174-243q-10-14-28-13t-26 17l-232 448V256zm855 768h-822l231-447 184 255 179-145zm-182-642q13 0 22.5 9.5t9.5 22.5-9.5 22.5-22.5 9.5-22.5-9.5-9.5-22.5 9.5-22.5 22.5-9.5zm0-64q-40 0-68 28t-28 68 28 68 68 28 68-28 28-68-28-68-68-28z"/></symbol><symbol viewBox="0 0 1195 1195" id="si-ant-pie-chart"><path d="M551.333 1152q96 0 181-36t150-101l-331-328V222q-94 0-180.5 36.5t-149 99-99.5 148.5-37 180.5 37 181 99.5 148.5 149 99 180.5 37zm65-532h493q0-100-39-191t-105-157-157.5-105-191.5-39v492zm26 65l332 327q64-64 99.5-148.5t35.5-178.5h-467z"/></symbol><symbol viewBox="0 0 1195 1195" id="si-ant-play-circle"><path d="M533.333 836l231-196-231-196v392zm64-708q-139 0-257 68.5T153.833 383t-68.5 257 68.5 257 186.5 186.5 257 68.5 257-68.5 186.5-186.5 68.5-257-68.5-257-186.5-186.5-257-68.5zm248 528l-335 285q-7 6-16.5 6t-17-6-7.5-16V354q0-9 7.5-15.5t17-6.5 16.5 7l335 285q8 7 8 16t-8 16z"/></symbol><symbol viewBox="0 0 1195 1195" id="si-ant-play-circle-o"><path d="M597.333 192q91 0 174 35 81 34 143 96t96 143q35 83 35 174t-35 174q-34 81-96 143t-143 96q-83 35-174 35t-174-35q-81-34-143-96t-96-143q-35-83-35-174t35-174q34-81 96-143t143-96q83-35 174-35zm0-64q-139 0-257 68.5T153.833 383t-68.5 257 68.5 257 186.5 186.5 257 68.5 257-68.5 186.5-186.5 68.5-257-68.5-257-186.5-186.5-257-68.5zm-64 316l231 196-231 196V444zm-40-112q-9 0-16.5 6.5t-7.5 15.5v572q0 9 7.5 15t17 6 16.5-6l335-285q8-7 8-16t-8-16l-335-285q-7-7-17-7z"/></symbol><symbol viewBox="0 0 1195 1195" id="si-ant-plus"><path d="M1075.333 576h-446V162q0-14-9.5-24t-22.5-10-22.5 10-9.5 24v414h-446q-14 0-24 9.5t-10 22.5 10 22.5 24 9.5h446v478q0 14 9.5 24t22.5 10 22.5-10 9.5-24V640h446q14 0 24-9.5t10-22.5-10-22.5-24-9.5z"/></symbol><symbol viewBox="0 0 1195 1195" id="si-ant-plus-circle"><path d="M597.333 128q-139 0-257 68.5T153.833 383t-68.5 257 68.5 257 186.5 186.5 257 68.5 257-68.5 186.5-186.5 68.5-257-68.5-257-186.5-186.5-257-68.5zm320 512q0 13-9.5 22.5t-22.5 9.5h-256v256q0 13-9.5 22.5t-22.5 9.5-22.5-9.5-9.5-22.5V672h-256q-13 0-22.5-9.5t-9.5-22.5 9.5-22.5 22.5-9.5h256V352q0-13 9.5-22.5t22.5-9.5 22.5 9.5 9.5 22.5v256h256q13 0 22.5 9.5t9.5 22.5z"/></symbol><symbol viewBox="0 0 1195 1195" id="si-ant-plus-circle-o"><path d="M597.333 192q91 0 174 35 81 34 143 96t96 143q35 83 35 174t-35 174q-34 81-96 143t-143 96q-83 35-174 35t-174-35q-81-34-143-96t-96-143q-35-83-35-174t35-174q34-81 96-143t143-96q83-35 174-35zm0-64q-139 0-257 68.5T153.833 383t-68.5 257 68.5 257 186.5 186.5 257 68.5 257-68.5 186.5-186.5 68.5-257-68.5-257-186.5-186.5-257-68.5zm288 480h-256V352q0-13-9.5-22.5t-22.5-9.5-22.5 9.5-9.5 22.5v256h-256q-13 0-22.5 9.5t-9.5 22.5 9.5 22.5 22.5 9.5h256v256q0 13 9.5 22.5t22.5 9.5 22.5-9.5 9.5-22.5V672h256q13 0 22.5-9.5t9.5-22.5-9.5-22.5-22.5-9.5z"/></symbol><symbol viewBox="0 0 1195 1195" id="si-ant-plus-square"><path d="M1045.333 1151q26 0 45-19t19-45V193q0-27-19-45.5t-45-18.5h-896q-26 0-45 18.5t-19 45.5v894q0 26 19 45t45 19h896zm0-64h-896V193h896v894zm-160-479h-256V352q0-13-9.5-22.5t-22.5-9.5-22.5 9.5-9.5 22.5v256h-256q-13 0-22.5 9.5t-9.5 22.5 9.5 22.5 22.5 9.5h256v256q0 13 9.5 22.5t22.5 9.5 22.5-9.5 9.5-22.5V672h256q13 0 22.5-9.5t9.5-22.5-9.5-22.5-22.5-9.5z"/></symbol><symbol viewBox="0 0 1195 1195" id="si-ant-poweroff"><path d="M597.333 512q-13 0-22.5-9.5t-9.5-22.5V160q0-13 9.5-22.5t22.5-9.5 22.5 9.5 9.5 22.5v320q0 13-9.5 22.5t-22.5 9.5zm126-329v6q0 20 20 27 14 5 28 11 81 34 143 96t96 143q35 83 35 174t-35 174q-34 81-96 143t-143 96q-83 35-174 35t-174-35q-81-34-143-96t-96-143q-35-83-35-174t35-174q34-81 96-143t143-96q14-6 26-10 22-8 22-30 0-17-13.5-26.5t-29.5-4.5q-152 53-247.5 185.5T85.333 640q0 139 68.5 257t186.5 186.5 257 68.5 257-68.5 186.5-186.5 68.5-257q0-167-97-300t-250-185q-15-5-27 4t-12 24z"/></symbol><symbol viewBox="0 0 1195 1195" id="si-ant-pushpin"><path d="M1034.333 1031l-223-223 206-207q11-11 10-26t-13-25q-72-58-163-74t-175 12l-215-170q2-60-30-110-9-13-25-14.5t-27 9.5l-219 219q-11 11-9.5 27t14.5 24q50 33 110 31l170 215q-28 84-11.5 175.5t74.5 163.5q10 12 25 13t26-10l206-207 223 223q10 10 23.5 10t23-9.5 9.5-23-10-23.5z"/></symbol><symbol viewBox="0 0 1195 1195" id="si-ant-pushpin-o"><path d="M388.333 296q2 10 1 20l-1 36 29 23 214 170 30 24 37-12q44-15 90-15 49 0 95 16 26 10 51 24l-169 170-43 43-13 13-169 170q-27-45-36-96-13-72 10-141l12-37-24-30-170-214-23-29-36 1h-4q-8 0-16-1zm15-103q-14 0-24 10l-219 219q-11 11-9.5 27t14.5 24q48 31 104 31h6l170 215q-28 84-11.5 175.5t74.5 163.5q11 13 27 13 14 0 24-10l206-207 223 223q10 10 23.5 10t23-9.5 9.5-23-10-23.5l-223-223 206-207q11-11 10-26t-13-25q-98-80-226-80-57 0-112 18l-215-170q2-60-30-110-10-15-28-15z"/></symbol><symbol viewBox="0 0 1195 1195" id="si-ant-qrcode"><path d="M597.333 1088h64v64h-64v-64zm0-832h-64v128h64v-64h64v-64h64v-64h-64v-64h-192v64h128v64zm-512 320h64v64h-64v-64zm960 64h64v64h-64v-64zm-64-128v128h-128V512h-192V384h-64v128h-64v64h256v64h-192v64h64v128h128v-64h-64v-64h256v-64h64V512h-64zm-448 384V768h-64v192h64v64h-64v64h128V960h128v-64h-192zm-384-384h128v64h-128v-64zm512 512h64v64h-64v-64zm-576-320h64v64h-64v-64zm448-128h-128v-64h-64v64h-64v64h64v128h64V640h128v-64zm-384-128h192q27 0 45.5-18.5t18.5-45.5V192q0-27-18.5-45.5t-45.5-18.5h-192q-27 0-45.5 18.5t-18.5 45.5v192q0 27 18.5 45.5t45.5 18.5zm0-256h192v192h-192V192zm64 64h64v64h-64v-64zm832-128h-192q-27 0-45.5 18.5t-18.5 45.5v192q0 27 18.5 45.5t45.5 18.5h192q27 0 45.5-18.5t18.5-45.5V192q0-27-18.5-45.5t-45.5-18.5zm0 256h-192V192h192v192zm-128-128h64v64h-64v-64zm128 576h-192q-27 0-45.5 18.5t-18.5 45.5v192q0 27 18.5 45.5t45.5 18.5h192q27 0 45.5-18.5t18.5-45.5V896q0-27-18.5-45.5t-45.5-18.5zm0 256h-192V896h192v192zm-128-128h64v64h-64v-64zm-576-128h-192q-27 0-45.5 18.5t-18.5 45.5v192q0 27 18.5 45.5t45.5 18.5h192q27 0 45.5-18.5t18.5-45.5V896q0-27-18.5-45.5t-45.5-18.5zm0 256h-192V896h192v192zm-128-128h64v64h-64v-64z"/></symbol><symbol viewBox="0 0 1195 1195" id="si-ant-question"><path d="M565.333 958q-13 0-22.5-9.5t-9.5-22.5v-5q0-78 40.5-145t110.5-104q62-34 98.5-94t36.5-131q0-105-74-179-75-75-181-75-105 1-179 75-63 63-72 150-2 13-11 21t-21 8q-14 0-24-10.5t-8-24.5q12-111 91-190 93-93 225-93 65 0 124 25 57 24 101 68t68 102q25 59 25 123 0 89-45.5 164.5T714.333 728q-54 29-85.5 81t-31.5 112v5q0 13-9.5 22.5t-22.5 9.5zm0 194q-13 0-22.5-9.5t-9.5-22.5 9.5-22.5 22.5-9.5 22.5 9.5 9.5 22.5-9.5 22.5-22.5 9.5z"/></symbol><symbol viewBox="0 0 1195 1195" id="si-ant-question-circle"><path d="M597.333 128q-139 0-257 68.5T153.833 383t-68.5 257 68.5 257 186.5 186.5 257 68.5 257-68.5 186.5-186.5 68.5-257-68.5-257-186.5-186.5-257-68.5zm30 802q0 13-9 22.5t-23 9.5q-13 0-22.5-9.5t-9.5-22.5 9.5-22.5 22.5-9.5q14 0 23 9.5t9 22.5zm66-220q-36 19-51 35t-15 46v11q0 13-9 22.5t-23 9.5q-13 0-22.5-9.5t-9.5-22.5v-11q0-48 24.5-79.5t75.5-58.5q35-18 55.5-52.5t20.5-74.5q0-60-42-102t-102-42q-62 0-103 37-30 28-38 68-2 11-11 18.5t-20 7.5q-16 0-25.5-11.5t-6.5-26.5q12-62 59-104 59-53 145-53 87 0 147.5 61t60.5 147q0 58-29.5 107.5t-80.5 76.5z"/></symbol><symbol viewBox="0 0 1195 1195" id="si-ant-question-circle-o"><path d="M595.333 834q-13 0-22.5-9.5t-9.5-22.5v-11q0-48 24.5-79.5t75.5-57.5q35-19 55.5-53.5t20.5-74.5q0-59-42-101.5t-102-42.5q-62 0-103 37-30 28-38 68-2 12-11 19t-20 7q-16 0-25.5-11.5t-6.5-26.5q12-62 59-103 59-54 145-54 87 0 147.5 61t60.5 147q0 58-29.5 107.5t-80.5 76.5q-36 19-51 35t-15 46v11q0 13-9 22.5t-23 9.5zm0 128q-13 0-22.5-9.5t-9.5-22.5 9.5-22.5 22.5-9.5q14 0 23 9.5t9 22.5-9 22.5-23 9.5zm2-770q91 0 174 35 81 34 143 96t96 143q35 83 35 174t-35 174q-34 81-96 143t-143 96q-83 35-174 35t-174-35q-81-34-143-96t-96-143q-35-83-35-174t35-174q34-81 96-143t143-96q83-35 174-35zm0-64q-139 0-257 68.5T153.833 383t-68.5 257 68.5 257 186.5 186.5 257 68.5 257-68.5 186.5-186.5 68.5-257-68.5-257-186.5-186.5-257-68.5z"/></symbol><symbol viewBox="0 0 1195 1195" id="si-ant-reload"><path d="M1078.333 640q-12 0-20.5 8t-9.5 20q-4 77-34 148-35 81-97.5 143.5t-143.5 96.5q-83 36-175.5 36t-175.5-36q-82-34-144.5-96.5t-96.5-143.5q-35-84-35-176t35-176q35-81 97-143.5t144-96.5q83-36 175-36 112 0 211 52 58 30 106 77l-118-21q-13-2-23.5 5.5t-13.5 20.5q-2 13 5.5 24t20.5 13l189 34q13 2 24-5.5t13-20.5l34-189q2-13-5.5-23.5t-20.5-13.5q-13-2-24 5.5t-13 20.5l-20 113q-56-56-126-93-111-59-239-59-104 0-199 40-92 39-162 110-71 71-110 163-41 95-41 199t41 199q39 92 109 163 72 71 163 110 95 40 199 40 105 0 200-40 92-39 162-110 71-71 110-163 34-80 39-167 1-13-8-22.5t-22-9.5z"/></symbol><symbol viewBox="0 0 1195 1195" id="si-ant-retweet"><path d="M972.333 328l-191-191q-10-9-23-9t-23 9q-9 10-9 23t9 23l137 137-755-1q-13 0-22.5 9.5t-9.5 22.5v256q0 13 9.5 22.5t22.5 9.5 22.5-9.5 9.5-22.5V384h722l-135 135q-10 10-10 23t10 23q9 9 22.5 9t22.5-9l191-191q9-10 9-23t-9-23zm-750 624l191 191q10 9 23 9t23-9q9-10 9-23t-9-23l-137-137 755 1q13 0 22.5-9.5t9.5-22.5V673q0-13-9.5-22.5t-22.5-9.5-22.5 9.5-9.5 22.5v223h-722l136-135q9-10 9-23t-9-23q-10-9-23-9t-23 9l-191 191q-9 10-9 23t9 23z"/></symbol><symbol viewBox="0 0 1195 1195" id="si-ant-right"><path d="M352.333 137q-10 10-10 23t10 23l482 457-482 457q-10 10-10 23t10 23q10 9 24 9t24-9l506-480q10-10 10-23t-10-23l-506-480q-10-9-24-9t-24 9z"/></symbol><symbol viewBox="0 0 1195 1195" id="si-ant-rollback"><path d="M981.333 351q0-13-9-22.5t-23-9.5l-755 1 137-137q9-10 9-23t-9-23q-9-9-22.5-9t-22.5 9l-192 191q-9 10-9 23t9 23l194 193q9 9 22.5 9t22.5-9q9-10 9-23t-9-23l-138-137h722v704h-352q-13 0-22.5 9.5t-9.5 22.5 9.5 22.5 22.5 9.5h384q14 0 23-9.5t9-22.5V351z"/></symbol><symbol viewBox="0 0 1195 1195" id="si-ant-save"><path d="M1100.333 373l-236-236q-9-9-22-9h-693q-26 0-45 19t-19 45v896q0 26 19 45t45 19h896q26 0 45-19t19-45V395q0-13-9-22zm-374 11h-386V192h386v192zm319 704h-896V192h127v192q0 26 19 45t45 19h386q26 0 45-19t19-45V192h39l216 216v680zm-319-479q0 13-9.5 22.5t-22.5 9.5h-386q-13 0-22.5-9.5t-9.5-22.5 9.5-22.5 22.5-9.5h386q13 0 22.5 9.5t9.5 22.5zm0 190q0 13-9.5 22.5t-22.5 9.5h-386q-13 0-22.5-9.5t-9.5-22.5 9.5-22.5 22.5-9.5h386q13 0 22.5 9.5t9.5 22.5z"/></symbol><symbol viewBox="0 0 1195 1195" id="si-ant-scan"><path d="M149.333 128q-26 0-45 19t-19 45v157q0 14 9.5 23.5t23.5 9.5 23.5-9.5 9.5-23.5V226q0-13 9.5-22.5t22.5-9.5h123q14 0 23.5-9.5t9.5-23.5-9.5-23.5-23.5-9.5h-157zm-64 960q0 26 19 45t45 19h157q14 0 23.5-9.5t9.5-23.5-9.5-23.5-23.5-9.5h-123q-13 0-22.5-9.5t-9.5-22.5V931q0-14-9.5-23.5t-23.5-9.5-23.5 9.5-9.5 23.5v157zm960 64q26 0 45-19t19-45V931q0-14-9.5-23.5t-23.5-9.5-23.5 9.5-9.5 23.5v123q0 13-9.5 22.5t-22.5 9.5h-123q-14 0-23.5 9.5t-9.5 23.5 9.5 23.5 23.5 9.5h157zm-2-1024h-155q-14 0-23.5 9.5t-9.5 23.5 9.5 23.5 23.5 9.5h123q13 0 22.5 9.5t9.5 22.5v123q0 14 9.5 23.5t23.5 9.5 23.5-9.5 9.5-23.5V192q0-26-19-45t-45-19h-2zm-766 256v512q0 26 19 45t45 19h512q26 0 45-19t19-45V384q0-26-19-45t-45-19h-512q-26 0-45 18.5t-19 45.5zm546 514h-452q-13 0-22.5-9.5t-9.5-22.5V414q0-13 9.5-22.5t22.5-9.5h452q13 0 22.5 9.5t9.5 22.5v452q0 13-9.5 22.5t-22.5 9.5z"/></symbol><symbol viewBox="0 0 1195 1195" id="si-ant-search"><path d="M1100.333 1097l-283-282q100-117 100-271 0-172-122-294t-294-122-294 122-122 294 122 294 294 122q154 0 271-100l282 283q10 9 23 9t23-9q9-10 9-23t-9-23zm-462-229q-65 28-137 28t-137-28q-63-26-112-75t-75-112q-28-65-28-137t28-137q26-63 75-112t112-75q65-28 137-28t137 28q63 26 112 75t75 112q28 65 28 137t-28 137q-26 63-75 112t-112 75z"/></symbol><symbol viewBox="0 0 1195 1195" id="si-ant-setting"><path d="M597.333 192q26 0 54 4l16 46 10 31 32 9q32 10 62 26l29 15 29-15 43-21q44 34 78 77l-22 43-14 30 15 29q15 30 26 62l9 31 31 11 46 15q4 29 4 54v1q0 26-4 54l-46 16-31 10-10 32q-9 32-25 62l-16 29 15 29 22 43q-18 23-36 42h-1q-18 18-41 36l-43-22-29-15-29 16q-30 15-62 25l-32 10-10 31-15 46q-29 4-55 4t-55-4l-15-46-10-31-32-10q-33-10-62-25l-29-16-29 15-43 22q-23-18-42-36-18-19-36-42l22-43 15-29-16-29q-16-31-25-62l-10-32-31-10-46-15q-4-29-4-55t4-55l46-15 31-10 9-32q10-32 26-62l15-29-14-29-22-43q34-44 77-78l44 22 29 15 29-16q30-15 62-26l32-9 10-31 15-46q30-4 55-4zm0-64q-37 0-81 7l-22 4-28 83q-39 12-73 30l-78-39-18 13q-66 48-115 114l-13 18 40 78q-19 36-31 73l-83 28-3 22q-7 44-7 81t7 81l3 22 83 28q12 38 31 73l-39 78 13 18q24 34 52 62 26 26 62 52l18 13 78-39q36 19 73 30l28 84 22 3q44 7 81 7t81-7l22-3 27-84q38-11 74-30l78 39 18-13q35-26 62-52 27-27 52-62l13-18-39-79q18-35 30-73l83-27 4-22q7-44 7-81t-7-81l-4-22-83-28q-12-38-30-73l39-78-13-18q-49-67-115-115l-18-13-78 39q-35-18-73-30l-27-83-22-3q-44-7-81-7zm0 386q52 0 89 37t37 89-37 89-89 37-89-37-37-89 37-89 89-37zm0-64q-79 0-134.5 55.5t-55.5 134.5 55.5 134.5 134.5 55.5 134.5-55.5 55.5-134.5-55.5-134.5-134.5-55.5z"/></symbol><symbol viewBox="0 0 1195 1195" id="si-ant-share-alt"><path d="M859.333 372q50 0 86-35.5t36-86-36-86.5-86.5-36-86.5 36-36 86q0 27 11 51l-196 178q-52-31-114-31-93 0-158.5 65.5t-65.5 158.5 66 158.5 158 65.5q64 0 118-34l129 117q-11 24-11 51 0 50 35.5 86t86 36 86.5-36 36-86.5-36-86.5-86-36q-39 0-70 23l-121-109q57-64 57-149 0-88-59-152l186-170q32 22 71 22zm-.5-180q24.5 0 41.5 17t17 41-17 41-41.5 17-41.5-17-17-41 17-41 41.5-17zm-534.5 593q-47-47-47-113t47-113 113-47 113 47 47 113-46.5 113-113 47-113.5-47zm471 187q24 0 41 17t17 41-17 41-41 17-41-17-17-41 17-41 41-17z"/></symbol><symbol viewBox="0 0 1196 1196" id="si-ant-shopping-cart"><path d="M1078.417 834h-711l49-66 582-1q11 0 20-7t11-19l80-447q2-15-7-26t-24-11l-742-2-8-37q-3-11-11.5-18.5t-19.5-7.5l-180 1q-13 0-22.5 9t-9.5 22 9.5 22.5 22.5 9.5h154l29 138 68 331-89 122q-12 16-3 33.5t29 17.5h94q-36 32-36 81 0 45 32 77.5t77.5 32.5 78-32.5 32.5-77.5q0-49-36-81h230q-36 32-36 81 0 45 32 77.5t78 32.5 78-32.5 32-77.5q0-49-36-81h153q13 0 22.5-9.5t9.5-22.5-9.5-22.5-22.5-9.5zm-37-515l-69 386-541 1-82-389zm-568 706q-19 0-32.5-13.5t-13.5-32.5 13.5-32.5 32.5-13.5 32.5 13.5 13.5 32.5-13.5 32.5-32.5 13.5zm378 0q-19 0-32.5-13.5t-13.5-32.5 13.5-32.5 32.5-13.5 32.5 13.5 13.5 32.5-13.5 32.5-32.5 13.5z"/></symbol><symbol viewBox="0 0 1195 1195" id="si-ant-shrink"><path d="M94.333 1143q10 9 23 9t23-9l335-335v243q0 13 9 22.5t23 9.5q13 0 22.5-9.5t9.5-22.5V729q0-13-9.5-22.5t-22.5-9.5l-320 1q-13 0-22.5 9.5t-9.5 22.5 9.5 22.5 22.5 9.5h243l-336 335q-9 10-9 23t9 23zm1006-1006q-10-9-23-9t-23 9l-335 335V229q0-13-9-22.5t-23-9.5q-13 0-22.5 9.5t-9.5 22.5v322q0 13 9.5 22.5t22.5 9.5l320-1q13 0 22.5-9.5t9.5-22.5-9.5-22.5-22.5-9.5h-243l336-335q9-10 9-23t-9-23z"/></symbol><symbol viewBox="0 0 1195 1195" id="si-ant-smile"><path d="M597.333 192q91 0 174 35 81 34 143 96t96 143q35 83 35 174t-35 174q-34 81-96 143t-143 96q-83 35-174 35t-174-35q-81-34-143-96t-96-143q-35-83-35-174t35-174q34-81 96-143t143-96q83-35 174-35zm0-64q-139 0-257 68.5T153.833 383t-68.5 257 68.5 257 186.5 186.5 257 68.5 257-68.5 186.5-186.5 68.5-257-68.5-257-186.5-186.5-257-68.5zm-288 446q-13 0-22.5-9.5t-9.5-22.5v-64q0-13 9.5-22.5t22.5-9.5 22.5 9.5 9.5 22.5v64q0 13-9.5 22.5t-22.5 9.5zm575 0q-13 0-22.5-9.5t-9.5-22.5v-64q0-13 9.5-22.5t22.5-9.5 22.5 9.5 9.5 22.5v64q0 13-9.5 22.5t-22.5 9.5zm-607 131zm640 0zm-320 189q-106 0-182-74-61-60-73-144-2-14 7.5-25t23.5-11q12 0 21 8t11 19q9 62 55 107 57 56 137 56t137-56q46-45 55-107 2-12 11-19.5t21-7.5q14 0 24 11t7 25q-12 83-73 144-76 74-182 74z"/></symbol><symbol viewBox="0 0 1195 1195" id="si-ant-smile-circle"><path d="M597.333 128q-139 0-257 68.5T153.833 383t-68.5 257 68.5 257 186.5 186.5 257 68.5 257-68.5 186.5-186.5 68.5-257-68.5-257-186.5-186.5-257-68.5zm-256 414q0 13-9.5 22.5t-22.5 9.5-22.5-9.5-9.5-22.5v-64q0-13 9.5-22.5t22.5-9.5 22.5 9.5 9.5 22.5v64zm511 134q-12 83-73 144-76 74-182 74t-182-74q-61-60-73-144-2-14 7.5-25t23.5-11q12 0 21 8t11 19q9 62 55 107 57 56 137 56t137-56q46-45 55-107 2-12 11-19.5t21-7.5q14 0 24 11t7 25zm64-134q0 13-9.5 22.5t-22.5 9.5-22.5-9.5-9.5-22.5v-64q0-13 9.5-22.5t22.5-9.5 22.5 9.5 9.5 22.5v64z"/></symbol><symbol viewBox="0 0 1196 1196" id="si-ant-solution"><path d="M1013.417 257h-832q-40 0-68 28t-28 68v578q0 40 28 68t68 28h334q13 0 22.5-9.5t9.5-22.5-9.5-22.5-22.5-9.5h-334q-13 0-22.5-9.5t-9.5-22.5V353q0-13 9.5-22.5t22.5-9.5h832q14 0 23 9.5t9 22.5v546q0 13 9.5 22.5t22.5 9.5q14 0 23-9.5t9-22.5V353q0-40-28-68t-68-28zm-351 225q0-13-9.5-22.5t-22.5-9.5h-384q-13 0-22.5 9.5t-9.5 22.5 9.5 22.5 22.5 9.5h384q13 0 22.5-9.5t9.5-22.5zm-128 127q0-13-9.5-22.5t-22.5-9.5h-256q-13 0-22.5 9.5t-9.5 22.5q0 14 9.5 23t22.5 9h256q13 0 22.5-9t9.5-23zm-288 96q-13 0-22.5 9.5t-9.5 22.5 9.5 22.5 22.5 9.5h192q13 0 22.5-9.5t9.5-22.5-9.5-22.5-22.5-9.5h-192zm681 184q-20-20-44-33 35-37 35-88 0-53-37.5-90.5t-90.5-37.5-90.5 37.5-37.5 90.5q0 51 35 88-24 13-44 33-56 55-56 134v35q0 13 9.5 22.5t22.5 9.5q14 0 23-9.5t9-22.5v-35q0-52 37-89t89-37h6q51 0 88 37t37 89v35q0 13 9.5 22.5t22.5 9.5 22.5-9.5 9.5-22.5v-35q0-79-55-134zm-137.5-185q26.5 0 45.5 18.5t19 45.5-19 45.5-45.5 18.5-45-18.5-18.5-45.5 18.5-45.5 45-18.5z"/></symbol><symbol viewBox="0 0 1195 1195" id="si-ant-star"><path d="M1105.833 513.5q-6.5-21.5-23-36t-38.5-17.5l-262-40-117-248q-10-20-28-32t-40-12-40 12-28 32l-117 248-262 40q-22 3-38.5 17.5t-23 36-1.5 43 21 37.5l190 193-45 273q-4 22 4 43t26 34q20 15 44 15 19 0 36-9l234-129 235 129q16 9 35 9 25 0 44-15 18-13 26-34t4-43l-44-273 189-193q16-15 21-37t-1.5-43.5z"/></symbol><symbol viewBox="0 0 1196 1196" id="si-ant-star-o"><path d="M597.417 193q6 0 10 7l117 248 15 31 33 5 263 40q7 1 9 9 3 11-3 17l-190 193-23 24 5 32 45 272q2 11-5 16h-1q-2 2-5 2-2 0-5-1l-234-129-31-17-31 17-234 129h-1q-2 1-4 1-3 0-5-2h-1q-7-6-5-16l45-272 5-32-23-24-190-193q-6-7-3-17 2-8 9-9l263-40 33-5 15-31 117-248q4-7 10-7zm0-64q-22 0-40 12t-28 32l-117 248-262 40q-22 3-38.5 17.5t-23 36-1.5 43 21 37.5l190 193-45 273q-4 22 4 43t26 34q20 15 44 15 19 0 36-9l234-129 235 129q16 9 35 9 25 0 44-15 18-13 26-34t4-43l-44-273 189-193q16-15 21-37t-1.5-43.5-23-36-38.5-17.5l-262-40-117-248q-10-20-28-32t-40-12z"/></symbol><symbol viewBox="0 0 1195 1195" id="si-ant-step-backward"><path d="M310.333 128q13 0 22.5 10.5t9.5 26.5v475q0-15 12-26l558-476q19-16 43.5-7t24.5 33v952q0 24-24.5 33t-43.5-7l-558-476q-12-11-12-26v475q0 16-9.5 26.5t-22.5 10.5-22.5-10.5-9.5-26.5V164q0-15 9.5-25.5t22.5-10.5z"/></symbol><symbol viewBox="0 0 1195 1195" id="si-ant-step-forward"><path d="M948.333 128q-13 0-22.5 10.5t-9.5 26.5v475q0-15-12-26l-558-476q-19-16-43.5-7t-24.5 33v952q0 24 24.5 33t43.5-7l558-476q12-10 12-26v475q0 16 9.5 26.5t22.5 10.5 22.5-10.5 9.5-26.5V164q0-15-9.5-25.5t-22.5-10.5z"/></symbol><symbol viewBox="0 0 1195 1195" id="si-ant-swap"><path d="M315.333 998q9 9 22.5 9t22.5-9q10-10 10-23t-10-23l-184-184h901q13 0 22.5-9.5t9.5-22.5-9.5-22.5-22.5-9.5h-960q-13 0-22.5 9.5t-9.5 22.5v18q0 14 9 23zm564-716q-9-9-22.5-9t-22.5 9q-10 10-10 23t10 23l184 184h-901q-13 0-22.5 9.5t-9.5 22.5 9.5 22.5 22.5 9.5h960q13 0 22.5-9.5t9.5-22.5v-18q0-13-9-23z"/></symbol><symbol viewBox="0 0 1195 1195" id="si-ant-swap-left"><path d="M315.333 933q9 9 22.5 9t22.5-9q10-10 10-23t-10-23l-184-184h901q13 0 22.5-9.5t9.5-22.5-9.5-22.5-22.5-9.5h-960q-13 0-22.5 9.5t-9.5 22.5v18q0 13 9 23z"/></symbol><symbol viewBox="0 0 1195 1195" id="si-ant-swap-right"><path d="M879.333 346q-9-9-22.5-9t-22.5 9q-10 10-10 23t10 23l184 184h-901q-13 0-22.5 9.5t-9.5 22.5 9.5 22.5 22.5 9.5h960q13 0 22.5-9.5t9.5-22.5v-18q0-13-9-23z"/></symbol><symbol viewBox="0 0 1195 1195" id="si-ant-tablet"><path d="M597.333 991q14 0 23.5 9.5t9.5 23.5-9.5 23.5-23.5 9.5-23.5-9.5-9.5-23.5 9.5-23.5 23.5-9.5zm447-799q0-26-19-45t-45-19h-765q-26 0-45 19t-19 45v896q0 27 19 45.5t46 18.5l764-2q26 0 45-18.5t19-45.5V192zm-67 862q0 13-9.5 22.5t-22.5 9.5h-695q-13 0-22.5-9.5t-9.5-22.5v-91h759v91zm0-155h-759V231q0-15 9.5-25.5t22.5-10.5h695q13 0 22.5 10.5t9.5 25.5v668z"/></symbol><symbol viewBox="0 0 1195 1195" id="si-ant-tag"><path d="M1085.333 694l-545-550q-16-16-39-16h-331q-35 0-60 24.5t-25 59.5v340q0 22 16 38l544 537q25 25 60 25t60-25l319-315q25-24 25-58.5t-24-59.5zm-752-190q-53 0-90.5-37.5t-37.5-90.5 37.5-90.5 90.5-37.5 90.5 37.5 37.5 90.5-37.5 90.5-90.5 37.5zm.5-192q-26.5 0-45.5 19t-19 45.5 19 45 45.5 18.5 45-18.5 18.5-45-18.5-45.5-45-19z"/></symbol><symbol viewBox="0 0 1196 1196" id="si-ant-tag-o"><path d="M497.417 193l542 547q6 6 6 14t-6 14l-319 315q-6 6-15 6t-15-6l-541-535V213q0-8 6-14t15-6h327zm4-64h-331q-35 0-60 24.5t-25 59.5v340q0 22 16 38l544 537q25 25 60 25t60-25l319-315q25-24 25-58.5t-24-59.5l-545-550q-16-16-39-16zm-167.5 184q26.5 0 45 19t18.5 45.5-18.5 45-45 18.5-45.5-18.5-19-45 19-45.5 45.5-19zm-.5-64q-53 0-90.5 37.5t-37.5 90.5 37.5 90.5 90.5 37.5 90.5-37.5 37.5-90.5-37.5-90.5-90.5-37.5z"/></symbol><symbol viewBox="0 0 1195 1195" id="si-ant-tags"><path d="M307.833 446q-13.5 0-23 9.5t-9.5 23 9.5 23 23 9.5 23-9.5 9.5-23-9.5-23-23-9.5zm781.5 266l-449-453q-13-14-32-14h-453q-29 0-49.5 20.5t-20.5 48.5v280q0 18 13 32l448 443q21 20 50 20t49-20l41-41 41 41q20 20 49 20t50-20l263-260q20-20 20-48.5t-20-48.5zm-781-137q-40 0-68.5-28t-28.5-68 28.5-68.5 68.5-28.5 68 28.5 28 68.5-28 68-68 28zm735 189l-262 259q-2 2-5 2t-4-2l-40-39 176-175q21-20 21-48.5t-20-48.5l-399-403h90l443 448q2 1 2 3t-2 4z"/></symbol><symbol viewBox="0 0 1195 1195" id="si-ant-tags-o"><path d="M307.833 446q13.5 0 23 9.5t9.5 23-9.5 23-23 9.5-23-9.5-9.5-23 9.5-23 23-9.5zm.5-64q-40 0-68.5 28.5t-28.5 68.5 28.5 68 68.5 28 68-28 28-68-28-68.5-68-28.5zm781 330l-449-453q-13-14-32-14h-453q-29 0-49.5 20.5t-20.5 48.5v280q0 18 13 32l448 443q21 20 50 20t49-20l41-41 41 41q20 20 49 20t50-20l263-260q20-20 20-48.5t-20-48.5zm-448 272l-40 39q-2 2-5 2t-5-2l-442-437V314q0-5 6-5h265l443 448q2 1 2 3t-2 3l-177 175zm402-220l-262 259q-2 2-5 2t-4-2l-40-39 176-175q21-20 21-48.5t-20-48.5l-399-403h90l443 448q2 1 2 3t-2 4z"/></symbol><symbol viewBox="0 0 1195 1195" id="si-ant-team"><path d="M970.333 619q-41-41-95-60 62-26 100-82t38-125q0-93-65.5-158.5t-158.5-65.5q-71 0-128.5 41t-81.5 106q-32-39-77-61t-97-22q-93 0-158.5 65.5t-65.5 158.5q0 69 38 125t100 82q-54 19-95 60-75 75-75 181v191q0 40 28 68t68 28h320q31 0 55.5-18t34.5-46h294q40 0 68-28t28-68V800q0-106-75-181zm-294-380q47-47 113-47t113 47 47 113-47 113-113 47-113-47-47-113 47-113zm-384 290q-47-47-47-113t47-113 113-47 113 47 47 113-47 113-113 47-113-47zm305 526q0 13-9.5 22.5t-22.5 9.5h-320q-13 0-22.5-9.5t-9.5-22.5V864q0-79 56.5-135.5t135.5-56.5 136 56q1 2 2 3 54 55 54 133v191zm-27-387q-36-30-79-45 43-18 75.5-52t48.5-78q36 44 88 66-54 19-95 60-22 23-38 49zm411 323q0 13-9.5 22.5t-22.5 9.5h-288V864q0-80-46-146 15-30 38-53 57-57 136-57t135.5 56.5 56.5 135.5v191z"/></symbol><symbol viewBox="0 0 1195 1195" id="si-ant-to-top"><path d="M811.333 295l-158-158q-9-9-22.5-9t-22.5 9l-158 158q-10 10-10 23t10 23q9 9 22.5 9t22.5-9l104-104v692q0 13 9 22.5t23 9.5q13 0 22.5-9.5t9.5-22.5V237l103 104q9 9 22.5 9t22.5-9q9-10 9-23t-9-23zm298 825q0 13-9.5 22.5t-22.5 9.5h-960q-13 0-22.5-9.5t-9.5-22.5 9.5-22.5 22.5-9.5h960q13 0 22.5 9.5t9.5 22.5z"/></symbol><symbol viewBox="0 0 1195 1195" id="si-ant-unlock"><path d="M597.333 961q-13 0-22.5-9.5t-9.5-22.5V801q0-14 9.5-23t22.5-9 22.5 9 9.5 23v128q0 13-9.5 22.5t-22.5 9.5zm355-585q-30-73-83-129t-122-87q-72-32-150-32t-150 32q-69 31-122 87.5t-83 128.5q-6 16-10 30-5 16 4.5 29t25.5 13q24 0 31-22 4-13 9-26 25-61 70-108 44-48 101-73h1q58-27 123-27 64 0 123 26 58 26 102 73 45 48 70 109 26 64 26 134v42h-642q-26 0-45 19t-19 45v439q0 30 20.5 51.5t48.5 21.5h632q28 0 48.5-21.5t20.5-51.5V534q0-82-30-158zm-34 703q0 9-5 9h-632q-5 0-5-9V640h642v439z"/></symbol><symbol viewBox="0 0 1196 1196" id="si-ant-up"><path d="M1100.417 887q-10 10-23 10t-23-10l-457-482-457 482q-10 10-23 10t-23-10q-9-10-9-24t9-24l480-506q10-10 23-10t23 10l480 506q9 10 9 24t-9 24z"/></symbol><symbol viewBox="0 0 1195 1195" id="si-ant-upload"><path d="M423.333 364q10 9 23 9t23-9l126-127v691q0 13 9.5 22.5t22.5 9.5 22.5-9.5 9.5-22.5V237l126 127q10 9 23 9t23-9q9-10 9-23t-9-23l-181-181q-10-9-23-9t-23 9l-181 181q-9 10-9 23t9 23zm622 500v192q0 13-9.5 22.5t-22.5 9.5h-832q-13 0-22.5-9.5t-9.5-22.5V864q0-13-9.5-22.5t-22.5-9.5-22.5 9.5-9.5 22.5v224q0 26 19 45t45 19h896q26 0 45-19t19-45V864q0-13-9.5-22.5t-22.5-9.5-22.5 9.5-9.5 22.5z"/></symbol><symbol viewBox="0 0 1195 1195" id="si-ant-user"><path d="M888.333 775q-24-57-68-101t-101-68l-2-1q30-17 55-42 75-74 75-180 0-105-74.5-180t-180.5-75-180.5 74.5-74.5 180.5 75 180q26 26 58 44-57 24-100 67-44 44-68 101-25 59-25 124v221q0 13 9.5 22.5t22.5 9.5 22.5-9.5 9.5-22.5V899q0-105 74.5-179.5t179.5-74.5 179.5 74.5 74.5 179.5v221q0 13 9.5 22.5t22.5 9.5 22.5-9.5 9.5-22.5V899q0-64-25-124zm-487-392q0-79 56-135t135-56 135 56 56 135-56 135-135 56-135-56-56-135z"/></symbol><symbol viewBox="0 0 1195 1195" id="si-ant-verticle-left"><path d="M288.333 1097l482-457-482-457q-10-10-10-23t10-22.5 24-9.5 24 9l506 480q10 10 10 23t-10 23l-506 480q-10 9-24 9t-24-9.5-10-22.5 10-23zm597-969q13 0 22.5 9.5t9.5 22.5v960q0 13-9.5 22.5t-22.5 9.5-22.5-9.5-9.5-22.5V160q0-13 9.5-22.5t22.5-9.5z"/></symbol><symbol viewBox="0 0 1195 1195" id="si-ant-verticle-right"><path d="M907.333 1097l-482-457 482-457q10-10 10-23t-10-22.5-24-9.5-24 9l-506 480q-10 10-10 23t10 23l506 480q10 9 24 9t24-9.5 10-22.5-10-23zm-597-969q-13 0-22.5 9.5t-9.5 22.5v960q0 13 9.5 22.5t22.5 9.5 22.5-9.5 9.5-22.5V160q0-13-9.5-22.5t-22.5-9.5z"/></symbol><symbol viewBox="0 0 1195 1195" id="si-ant-video-camera"><path d="M1098.333 455q-17-14-36-4l-139 74V322q0-26-19-45t-45-19h-710q-26 0-45 19t-19 45v637q0 26 19 45t45 19h710q26 0 45-19t19-45V739l137 87q8 5 17 5 11 0 20-7 12-9 12-25V480q0-15-11-25zm-271 504h-646q-13 0-22.5-9.5t-9.5-22.5V354q0-13 9.5-22.5t22.5-9.5h646q13 0 22.5 9.5t9.5 22.5v573q0 13-9.5 22.5t-22.5 9.5zm218-218l-121-77v-67l121-64v208z"/></symbol><symbol viewBox="0 0 1195 1195" id="si-ant-windows"><path d="M600.333 682v387l509 83V682h-509zm509-84V128l-509 84v386h509zm-594 0V226l-430 72v300h430zm-430 84v303l430 70V682h-430z"/></symbol></svg>