<?xml version="1.0" encoding="utf-8"?><svg xmlns="http://www.w3.org/2000/svg" xmlns:xlink="http://www.w3.org/1999/xlink" style="width:0;height:0;position:absolute;overflow:hidden;" version="1.1"><defs><symbol viewBox="0 0 34 28" aria-labelledby="aasi-evil-archive-title" id="si-evil-archive"><title id="aasi-evil-archive-title">icon archive</title><path d="M34 8h-2V3c0-.6-.4-1-1-1H3c-.6 0-1 .4-1 1v5H0V3c0-1.7 1.3-3 3-3h28c1.7 0 3 1.3 3 3v5zm-5 20H5c-1.7 0-3-1.3-3-3V8h2v17c0 .6.4 1 1 1h24c.6 0 1-.4 1-1V8h2v17c0 1.7-1.3 3-3 3z"/><path d="M21 14h-8c-.6 0-1-.4-1-1s.4-1 1-1h8c.6 0 1 .4 1 1s-.4 1-1 1zM0 6h34v2H0z"/></symbol><symbol viewBox="0 0 34 34" aria-labelledby="absi-evil-arrow-down-title" id="si-evil-arrow-down"><title id="absi-evil-arrow-down-title">icon arrow-down</title><path d="M17 34C7.6 34 0 26.4 0 17S7.6 0 17 0s17 7.6 17 17-7.6 17-17 17zm0-32C8.7 2 2 8.7 2 17s6.7 15 15 15 15-6.7 15-15S25.3 2 17 2z"/><path d="M17 26.4l-9.7-9.7 1.4-1.4 8.3 8.3 8.3-8.3 1.4 1.4z"/><path d="M16 8h2v17h-2z"/></symbol><symbol viewBox="0 0 34 34" aria-labelledby="acsi-evil-arrow-left-title" id="si-evil-arrow-left"><title id="acsi-evil-arrow-left-title">icon arrow-left</title><path d="M17 34C7.6 34 0 26.4 0 17S7.6 0 17 0s17 7.6 17 17-7.6 17-17 17zm0-32C8.7 2 2 8.7 2 17s6.7 15 15 15 15-6.7 15-15S25.3 2 17 2z"/><path d="M17.3 26.7L7.6 17l9.7-9.7 1.4 1.4-8.3 8.3 8.3 8.3z"/><path d="M9 16h17v2H9z"/></symbol><symbol viewBox="0 0 34 34" aria-labelledby="adsi-evil-arrow-right-title" id="si-evil-arrow-right"><title id="adsi-evil-arrow-right-title">icon arrow-right</title><path d="M17 34C7.6 34 0 26.4 0 17S7.6 0 17 0s17 7.6 17 17-7.6 17-17 17zm0-32C8.7 2 2 8.7 2 17s6.7 15 15 15 15-6.7 15-15S25.3 2 17 2z"/><path d="M16.7 26.7l-1.4-1.4 8.3-8.3-8.3-8.3 1.4-1.4 9.7 9.7z"/><path d="M8 16h17v2H8z"/></symbol><symbol viewBox="0 0 34 34" aria-labelledby="aesi-evil-arrow-up-title" id="si-evil-arrow-up"><title id="aesi-evil-arrow-up-title">icon arrow-up</title><path d="M17 34C7.6 34 0 26.4 0 17S7.6 0 17 0s17 7.6 17 17-7.6 17-17 17zm0-32C8.7 2 2 8.7 2 17s6.7 15 15 15 15-6.7 15-15S25.3 2 17 2z"/><path d="M25.3 18.7L17 10.4l-8.3 8.3-1.4-1.4L17 7.6l9.7 9.7z"/><path d="M16 9h2v17h-2z"/></symbol><symbol viewBox="0 0 34 32" aria-labelledby="afsi-evil-bell-title" id="si-evil-bell"><title id="afsi-evil-bell-title">icon bell</title><path d="M34 28c-6.5 0-7.4-6.3-8.2-11.9C24.9 9.9 24.1 4 17 4S9.1 9.9 8.2 16.1C7.4 21.7 6.5 28 0 28v-2c4.6 0 5.3-3.9 6.2-10.1C7.1 9.7 8.2 2 17 2s9.9 7.7 10.8 13.9C28.7 22.1 29.4 26 34 26v2z"/><path d="M17 32c-2.8 0-5-2.2-5-5h2c0 1.7 1.3 3 3 3s3-1.3 3-3h2c0 2.8-2.2 5-5 5z"/><path d="M0 26h34v2H0zM19 2c0 1.1-.9 1.5-2 1.5s-2-.4-2-1.5.9-2 2-2 2 .9 2 2z"/></symbol><symbol viewBox="0 0 30 30" aria-labelledby="agsi-evil-calendar-title" id="si-evil-calendar"><title id="agsi-evil-calendar-title">icon calendar</title><path d="M27 30H3c-1.7 0-3-1.3-3-3V5c0-1.7 1.1-3 2.5-3H4v2H2.5c-.2 0-.5.4-.5 1v22c0 .6.4 1 1 1h24c.6 0 1-.4 1-1V5c0-.6-.3-1-.5-1H26V2h1.5C28.9 2 30 3.3 30 5v22c0 1.7-1.3 3-3 3z"/><path d="M7 6c-.6 0-1-.4-1-1V1c0-.6.4-1 1-1s1 .4 1 1v4c0 .6-.4 1-1 1zm16 0c-.6 0-1-.4-1-1V1c0-.6.4-1 1-1s1 .4 1 1v4c0 .6-.4 1-1 1zM10 2h10v2H10zM2 8h26v2H2zm22 4h2v2h-2zm-4 0h2v2h-2zm-4 0h2v2h-2zm-4 0h2v2h-2zm-4 0h2v2H8zm16 4h2v2h-2zm-4 0h2v2h-2zm-4 0h2v2h-2zm-4 0h2v2h-2zm-4 0h2v2H8zm-4 0h2v2H4zm20 4h2v2h-2zm-4 0h2v2h-2zm-4 0h2v2h-2zm-4 0h2v2h-2zm-4 0h2v2H8zm-4 0h2v2H4zm16 4h2v2h-2zm-4 0h2v2h-2zm-4 0h2v2h-2zm-4 0h2v2H8zm-4 0h2v2H4z"/></symbol><symbol viewBox="0 0 33.999996185302734 27.899999618530273" aria-labelledby="ahsi-evil-camera-title" id="si-evil-camera"><title id="ahsi-evil-camera-title">icon camera</title><g transform="translate(-8 -10.1)"><path d="M39 38H11c-1.7 0-3-1.3-3-3V17c0-1.7 1.3-3 3-3h6c.2 0 .5-.2.6-.3l1.1-2.2c.4-.8 1.4-1.4 2.3-1.4h8c.9 0 1.9.6 2.3 1.4l1.1 2.2c.1.2.4.3.6.3h6c1.7 0 3 1.3 3 3v18c0 1.7-1.3 3-3 3zM11 16c-.6 0-1 .4-1 1v18c0 .6.4 1 1 1h28c.6 0 1-.4 1-1V17c0-.6-.4-1-1-1h-6c-.9 0-1.9-.6-2.3-1.4l-1.1-2.2c-.1-.2-.4-.4-.6-.4h-8c-.2 0-.5.2-.6.3l-1.1 2.2c-.4.9-1.4 1.5-2.3 1.5h-6z"/><path d="M25 34c-5 0-9-4-9-9s4-9 9-9 9 4 9 9-4 9-9 9zm0-16c-3.9 0-7 3.1-7 7s3.1 7 7 7 7-3.1 7-7-3.1-7-7-7z"/><circle cx="35" cy="18" r="1"/><path d="M12 12h4v1h-4zm13 9v-1c-2.8 0-5 2.2-5 5h1c0-2.2 1.8-4 4-4z"/></g></symbol><symbol viewBox="0 0 34 32" aria-labelledby="aisi-evil-cart-title" id="si-evil-cart"><title id="aisi-evil-cart-title">icon cart</title><path d="M29 26H7c-.3 0-.6-.2-.8-.4s-.2-.6-.1-.9L8 19.9 6.1 2H0V0h7c.5 0 .9.4 1 .9l2 19c0 .2 0 .3-.1.5L8.5 24H30l-1 2z"/><path d="M9.2 21l-.4-2L32 14.2V6H8V4h25c.6 0 1 .4 1 1v10c0 .5-.3.9-.8 1l-24 5zM30 32c-2.2 0-4-1.8-4-4s1.8-4 4-4 4 1.8 4 4-1.8 4-4 4zm0-6c-1.1 0-2 .9-2 2s.9 2 2 2 2-.9 2-2-.9-2-2-2zM6 32c-2.2 0-4-1.8-4-4s1.8-4 4-4 4 1.8 4 4-1.8 4-4 4zm0-6c-1.1 0-2 .9-2 2s.9 2 2 2 2-.9 2-2-.9-2-2-2z"/></symbol><symbol viewBox="0 0 32 26" aria-labelledby="ajsi-evil-chart-title" id="si-evil-chart"><title id="ajsi-evil-chart-title">icon chart</title><path d="M10 24H8V14H4v10H2V12h8zm10 0h-2V8h-4v16h-2V6h8zm10 0h-2V2h-4v22h-2V0h8zM0 24h32v2H0z"/></symbol><symbol viewBox="0 0 34 34" aria-labelledby="aksi-evil-check-title" id="si-evil-check"><title id="aksi-evil-check-title">icon check</title><path d="M17 34C7.6 34 0 26.4 0 17S7.6 0 17 0s17 7.6 17 17-7.6 17-17 17zm0-32C8.7 2 2 8.7 2 17s6.7 15 15 15 15-6.7 15-15S25.3 2 17 2z"/><path d="M15 24.4l-8.7-8.7 1.4-1.4 7.3 7.3 11.3-11.3 1.4 1.4z"/></symbol><symbol viewBox="0 0 19.400001525878906 11.100000381469727" aria-labelledby="alsi-evil-chevron-down-title" id="si-evil-chevron-down"><title id="alsi-evil-chevron-down-title">icon chevron-down</title><path d="M9.7 11.1L0 1.4 1.4 0l8.3 8.3L18 0l1.4 1.4z"/></symbol><symbol viewBox="0 0 11.099998474121094 19.400001525878906" aria-labelledby="amsi-evil-chevron-left-title" id="si-evil-chevron-left"><title id="amsi-evil-chevron-left-title">icon chevron-left</title><path d="M9.7 19.4L0 9.7 9.7 0l1.4 1.4-8.3 8.3 8.3 8.3z"/></symbol><symbol viewBox="0 0 11.100000381469727 19.399999618530273" aria-labelledby="ansi-evil-chevron-right-title" id="si-evil-chevron-right"><title id="ansi-evil-chevron-right-title">icon chevron-right</title><path d="M1.4 19.4L0 18l8.3-8.3L0 1.4 1.4 0l9.7 9.7z"/></symbol><symbol viewBox="0 0 19.399999618530273 11.099998474121094" aria-labelledby="aosi-evil-chevron-up-title" id="si-evil-chevron-up"><title id="aosi-evil-chevron-up-title">icon chevron-up</title><path d="M18 11.1L9.7 2.8l-8.3 8.3L0 9.7 9.7 0l9.7 9.7z"/></symbol><symbol viewBox="0 0 34 34" aria-labelledby="apsi-evil-clock-title" id="si-evil-clock"><title id="apsi-evil-clock-title">icon clock</title><path d="M17 34C7.6 34 0 26.4 0 17S7.6 0 17 0s17 7.6 17 17-7.6 17-17 17zm0-32C8.7 2 2 8.7 2 17s6.7 15 15 15 15-6.7 15-15S25.3 2 17 2z"/><path d="M22.3 25.7L16 19.4V8h2v10.6l5.7 5.7z"/></symbol><symbol viewBox="0 0 27.436004638671875 27.43500328063965" aria-labelledby="aqsi-evil-close-title" id="si-evil-close"><title id="aqsi-evil-close-title">icon close</title><path d="M26.022 0l1.414 1.414-26.022 26.02L0 26.021z"/><path d="M1.414 0l26.022 26.02-1.414 1.415L0 1.415z"/></symbol><symbol viewBox="0 0 34 34" aria-labelledby="arsi-evil-close-o-title" id="si-evil-close-o"><title id="arsi-evil-close-o-title">icon close-o</title><path d="M17 34C7.6 34 0 26.4 0 17S7.6 0 17 0s17 7.6 17 17-7.6 17-17 17zm0-32C8.7 2 2 8.7 2 17s6.7 15 15 15 15-6.7 15-15S25.3 2 17 2z"/><path d="M24.283 8.302l1.414 1.415-15.98 15.98-1.414-1.414z"/><path d="M9.717 8.302l15.98 15.98-1.414 1.415-15.98-15.98z"/></symbol><symbol viewBox="0 0 34 32" aria-labelledby="assi-evil-comment-title" id="si-evil-comment"><title id="assi-evil-comment-title">icon comment</title><path d="M7 32H5l1.2-1.6c.8-1.1 1.3-2.5 1.6-4.2C2.8 23.9 0 19.6 0 14 0 5.4 6.5 0 17 0s17 5.4 17 14c0 8.8-6.4 14-17 14h-.7c-1.6 1.9-4.4 4-9.3 4zM17 2C7.6 2 2 6.5 2 14c0 6.4 3.9 9.4 7.2 10.7l.7.3-.1.8c-.2 1.6-.5 3-1.1 4.2 3.3-.4 5.2-2.1 6.3-3.5l.3-.4H17c13.5 0 15-8.4 15-12C32 6.5 26.4 2 17 2z"/></symbol><symbol viewBox="0 0 34 26" aria-labelledby="atsi-evil-credit-card-title" id="si-evil-credit-card"><title id="atsi-evil-credit-card-title">icon credit-card</title><path d="M31 26H3c-1.7 0-3-1.3-3-3V3c0-1.7 1.3-3 3-3h28c1.7 0 3 1.3 3 3v20c0 1.7-1.3 3-3 3zM3 2c-.6 0-1 .4-1 1v20c0 .6.4 1 1 1h28c.6 0 1-.4 1-1V3c0-.6-.4-1-1-1H3z"/><path d="M1 4h32v6H1zm3 10h1v2H4zm2 0h1v2H6zm2 0h1v2H8zm3 0h1v2h-1zm2 0h1v2h-1zm2 0h1v2h-1zm3 0h1v2h-1zm2 0h1v2h-1zm2 0h1v2h-1zm3 0h1v2h-1zm2 0h1v2h-1zm2 0h1v2h-1z"/></symbol><symbol viewBox="0 0 34 26" aria-labelledby="ausi-evil-envelope-title" id="si-evil-envelope"><title id="ausi-evil-envelope-title">icon envelope</title><path d="M23.796 12.244l9.97 9.97-1.415 1.414-9.97-9.97zm-13.518.043l1.414 1.414-9.9 9.9-1.414-1.41z" opacity=".9"/><path d="M17 17.9c-1.5 0-3.1-.6-4.2-1.8L.3 3.7l1.4-1.4 12.5 12.5c1.6 1.6 4.1 1.6 5.7 0L32.4 2.3l1.4 1.4-12.6 12.5c-1.1 1.1-2.7 1.7-4.2 1.7z"/><path d="M31 26H3c-1.7 0-3-1.3-3-3V3c0-1.7 1.3-3 3-3h28c1.7 0 3 1.3 3 3v20c0 1.7-1.3 3-3 3zM3 2c-.6 0-1 .4-1 1v20c0 .6.4 1 1 1h28c.6 0 1-.4 1-1V3c0-.6-.4-1-1-1H3z"/></symbol><symbol viewBox="0 0 34 34" aria-labelledby="avsi-evil-exclamation-title" id="si-evil-exclamation"><title id="avsi-evil-exclamation-title">icon exclamation</title><path d="M17 34C7.6 34 0 26.4 0 17S7.6 0 17 0s17 7.6 17 17-7.6 17-17 17zm0-32C8.7 2 2 8.7 2 17s6.7 15 15 15 15-6.7 15-15S25.3 2 17 2z"/><path d="M16 24h2v2h-2zm1.6-2h-1.2l-.4-8V8h2v6z"/></symbol><symbol viewBox="0 0 28 28" aria-labelledby="awsi-evil-external-link-title" id="si-evil-external-link"><title id="awsi-evil-external-link-title">icon external-link</title><path d="M26.288.297l1.414 1.415-14.99 14.99-1.414-1.414z"/><path d="M28 10h-2V2h-8V0h10zm-5 18H3c-1.7 0-3-1.3-3-3V5c0-1.7 1.3-3 3-3h11v2H3c-.6 0-1 .4-1 1v20c0 .6.4 1 1 1h20c.6 0 1-.4 1-1V14h2v11c0 1.7-1.3 3-3 3z"/></symbol><symbol viewBox="0 0 34 22" aria-labelledby="axsi-evil-eye-title" id="si-evil-eye"><title id="axsi-evil-eye-title">icon eye</title><path d="M17 22C5.5 22 .3 11.9.1 11.4c-.1-.3-.1-.6 0-.9C.3 10.1 5.5 0 17 0s16.7 10.1 16.9 10.6c.1.3.1.6 0 .9-.2.4-5.4 10.5-16.9 10.5zM2.1 11C3.2 12.9 8 20 17 20s13.7-7.1 14.9-9C30.8 9.1 26 2 17 2S3.3 9.1 2.1 11z"/><path d="M17 20c-5 0-9-4-9-9s4-9 9-9 9 4 9 9-4 9-9 9zm0-16c-3.9 0-7 3.1-7 7s3.1 7 7 7 7-3.1 7-7-3.1-7-7-7z"/><path d="M17 16c-2.8 0-5-2.2-5-5 0-.6.4-1 1-1s1 .4 1 1c0 1.7 1.3 3 3 3s3-1.3 3-3-1.3-3-3-3c-.6 0-1-.4-1-1s.4-1 1-1c2.8 0 5 2.2 5 5s-2.2 5-5 5z"/></symbol><symbol viewBox="0 0 37.89999771118164 38" aria-labelledby="aysi-evil-gear-title" id="si-evil-gear"><title id="aysi-evil-gear-title">icon gear</title><path d="M19 28c-5 0-9-4-9-9s4-9 9-9 9 4 9 9-4 9-9 9zm0-16c-3.9 0-7 3.1-7 7s3.1 7 7 7 7-3.1 7-7-3.1-7-7-7z"/><path d="M21.7 38h-5.4l-1.5-4.6c-1-.3-2-.7-2.9-1.2l-4.4 2.2-3.8-3.8 2.2-4.4c-.5-.9-.9-1.9-1.2-2.9L0 21.7v-5.4l4.6-1.5c.3-1 .7-2 1.2-2.9L3.6 7.5l3.8-3.8 4.4 2.2c.9-.5 1.9-.9 2.9-1.2L16.3 0h5.4l1.5 4.6c1 .3 2 .7 2.9 1.2l4.4-2.2 3.8 3.8-2.2 4.4c.5.9.9 1.9 1.2 2.9l4.6 1.5v5.4l-4.6 1.5c-.3 1-.7 2-1.2 2.9l2.2 4.4-3.8 3.8-4.4-2.2c-.9.5-1.9.9-2.9 1.2L21.7 38zm-4-2h2.6l1.4-4.3.5-.1c1.2-.3 2.3-.8 3.4-1.4l.5-.3 4 2 1.8-1.8-2-4 .3-.5c.6-1 1.1-2.2 1.4-3.4l.1-.5 4.3-1.4v-2.6l-4.3-1.4-.1-.5c-.3-1.2-.8-2.3-1.4-3.4l-.3-.5 2-4-1.8-1.8-4 2-.5-.3c-1.1-.6-2.2-1.1-3.4-1.4l-.5-.1L20.3 2h-2.6l-1.4 4.3-.5.1c-1.2.3-2.3.8-3.4 1.4l-.5.3-4-2-1.8 1.8 2 4-.3.5c-.6 1-1.1 2.2-1.4 3.4l-.1.5L2 17.7v2.6l4.3 1.4.1.5c.3 1.2.8 2.3 1.4 3.4l.3.5-2 4 1.8 1.8 4-2 .5.3c1.1.6 2.2 1.1 3.4 1.4l.5.1 1.4 4.3z"/></symbol><symbol viewBox="0 0 34 29.700000762939453" aria-labelledby="azsi-evil-heart-title" id="si-evil-heart"><title id="azsi-evil-heart-title">icon heart</title><path d="M17 29.7l-.6-.5C3.5 18.7 0 15 0 9c0-5 4-9 9-9 4.1 0 6.4 2.3 8 4.1C18.6 2.3 20.9 0 25 0c5 0 9 4 9 9 0 6-3.5 9.7-16.4 20.2l-.6.5zM9 2C5.1 2 2 5.1 2 9c0 5.1 3.2 8.5 15 18.1 11.8-9.6 15-13 15-18.1 0-3.9-3.1-7-7-7-3.5 0-5.4 2.1-6.9 3.8L17 7.1l-1.1-1.3C14.4 4.1 12.5 2 9 2z"/></symbol><symbol viewBox="0 0 34 26" aria-labelledby="basi-evil-image-title" id="si-evil-image"><title id="basi-evil-image-title">icon image</title><path d="M31 26H3c-1.7 0-3-1.3-3-3V3c0-1.7 1.3-3 3-3h28c1.7 0 3 1.3 3 3v20c0 1.7-1.3 3-3 3zM3 2c-.6 0-1 .4-1 1v20c0 .6.4 1 1 1h28c.6 0 1-.4 1-1V3c0-.6-.4-1-1-1H3z"/><path d="M22 12c-2.2 0-4-1.8-4-4s1.8-4 4-4 4 1.8 4 4-1.8 4-4 4zm0-6c-1.1 0-2 .9-2 2s.9 2 2 2 2-.9 2-2-.9-2-2-2zm5.3 19.7L11 10.4 1.7 19 .3 17.6 11 7.6l17.7 16.7z"/><path d="M32.4 20.7L27 16.3 22.5 20l-1.3-1.6 5.8-4.7 6.6 5.4z"/></symbol><symbol viewBox="0 0 32.000003814697266 30" aria-labelledby="bbsi-evil-like-title" id="si-evil-like"><title id="bbsi-evil-like-title">icon like</title><path d="M32 15.2c0-2.1-1.7-3.2-4-3.2h-6.7c.5-1.8.7-3.5.7-5 0-5.8-1.6-7-3-7-.9 0-1.6.1-2.5.6-.3.2-.4.4-.5.7l-1 5.4c-1.1 2.8-3.8 5.3-6 7V28c.8 0 1.6.4 2.6.9 1.1.5 2.2 1.1 3.4 1.1h9.5c2 0 3.5-1.6 3.5-3 0-.3 0-.5-.1-.7 1.2-.5 2.1-1.5 2.1-2.8 0-.6-.1-1.1-.3-1.6.8-.5 1.5-1.4 1.5-2.4 0-.6-.3-1.2-.6-1.7.8-.6 1.4-1.6 1.4-2.6zm-2.1 0c0 1.3-1.3 1.4-1.5 2-.2.7.8.9.8 2.1 0 1.2-1.5 1.2-1.7 1.9-.2.8.5 1 .5 2.2v.2c-.2 1-1.7 1.1-2 1.5-.3.5 0 .7 0 1.8 0 .6-.7 1-1.5 1H15c-.8 0-1.6-.4-2.6-.9-.8-.4-1.6-.8-2.4-1V15.5c2.5-1.9 5.7-4.7 6.9-8.2v-.2l.9-5c.4-.1.7-.1 1.2-.1.2 0 1 1.2 1 5 0 1.5-.3 3.1-.8 5H19c-.6 0-1 .4-1 1s.4 1 1 1h9c1 0 1.9.5 1.9 1.2z"/><path d="M8 30H2c-1.1 0-2-.9-2-2V14c0-1.1.9-2 2-2h6c1.1 0 2 .9 2 2v14c0 1.1-.9 2-2 2zM2 14v14h6V14H2z"/></symbol><symbol viewBox="0 0 29.799997329711914 29.80000114440918" aria-labelledby="bcsi-evil-link-title" id="si-evil-link"><title id="bcsi-evil-link-title">icon link</title><path d="M13.9 20.1c0 .2.1.5.1.8 0 1.4-.5 2.6-1.5 3.6l-2 2c-1 1-2.2 1.5-3.6 1.5-2.8 0-5.1-2.3-5.1-5.1 0-1.4.5-2.6 1.5-3.6l2-2c1-1 2.2-1.5 3.6-1.5.3 0 .5 0 .8.1l1.5-1.5c-.7-.3-1.5-.4-2.3-.4-1.9 0-3.6.7-4.9 2l-2 2c-1.3 1.3-2 3-2 4.9 0 3.8 3.1 6.9 6.9 6.9 1.9 0 3.6-.7 4.9-2l2-2c1.3-1.3 2-3 2-4.9 0-.8-.1-1.6-.4-2.3l-1.5 1.5zm9-20.1C21 0 19.3.7 18 2l-2 2c-1.3 1.3-2 3-2 4.9 0 .8.1 1.6.4 2.3l1.5-1.5c0-.2-.1-.5-.1-.8 0-1.4.5-2.6 1.5-3.6l2-2c1-1 2.2-1.5 3.6-1.5 2.8 0 5.1 2.3 5.1 5.1 0 1.4-.5 2.6-1.5 3.6l-2 2c-1 1-2.2 1.5-3.6 1.5-.3 0-.5 0-.8-.1l-1.5 1.5c.7.3 1.5.4 2.3.4 1.9 0 3.6-.7 4.9-2l2-2c1.3-1.3 2-3 2-4.9 0-3.8-3.1-6.9-6.9-6.9z"/><path d="M9.9 20.9c-.3 0-.5-.1-.7-.3-.4-.4-.4-1 0-1.4l10-10c.4-.4 1-.4 1.4 0s.4 1 0 1.4l-10 10c-.2.2-.4.3-.7.3z"/></symbol><symbol viewBox="0 0 26 36.5" aria-labelledby="bdsi-evil-location-title" id="si-evil-location"><title id="bdsi-evil-location-title">icon location</title><path d="M13 36.5l-.8-.9C11.7 35.1 0 21.3 0 13 0 5.8 5.8 0 13 0s13 5.8 13 13c0 8.3-11.7 22.1-12.2 22.7l-.8.8zM13 2C6.9 2 2 6.9 2 13c0 6.4 8.4 17.2 11 20.4 2.6-3.2 11-14 11-20.4 0-6.1-4.9-11-11-11z"/><path d="M13 18c-2.8 0-5-2.2-5-5s2.2-5 5-5 5 2.2 5 5-2.2 5-5 5zm0-8c-1.7 0-3 1.3-3 3s1.3 3 3 3 3-1.3 3-3-1.3-3-3-3z"/></symbol><symbol viewBox="0 0 22 30" aria-labelledby="besi-evil-lock-title" id="si-evil-lock"><title id="besi-evil-lock-title">icon lock</title><g transform="translate(-14 -10)"><path d="M34 23h-2v-4c0-3.9-3.1-7-7-7s-7 3.1-7 7v4h-2v-4c0-5 4-9 9-9s9 4 9 9v4z"/><path d="M33 40H17c-1.7 0-3-1.3-3-3V25c0-1.7 1.3-3 3-3h16c1.7 0 3 1.3 3 3v12c0 1.7-1.3 3-3 3zM17 24c-.6 0-1 .4-1 1v12c0 .6.4 1 1 1h16c.6 0 1-.4 1-1V25c0-.6-.4-1-1-1H17z"/><circle cx="25" cy="28" r="2"/><path d="M25.5 28h-1l-1 6h3z"/></g></symbol><symbol viewBox="0 0 34 34" aria-labelledby="bfsi-evil-minus-title" id="si-evil-minus"><title id="bfsi-evil-minus-title">icon minus</title><path d="M17 34C7.6 34 0 26.4 0 17S7.6 0 17 0s17 7.6 17 17-7.6 17-17 17zm0-32C8.7 2 2 8.7 2 17s6.7 15 15 15 15-6.7 15-15S25.3 2 17 2z"/><path d="M8 16h18v2H8z"/></symbol><symbol viewBox="0 0 30 24" aria-labelledby="bgsi-evil-navicon-title" id="si-evil-navicon"><title id="bgsi-evil-navicon-title">icon navicon</title><path d="M0 0h30v4H0zm0 10h30v4H0zm0 10h30v4H0z"/></symbol><symbol viewBox="0 0 33.70000076293945 30.399999618530273" aria-labelledby="bhsi-evil-paperclip-title" id="si-evil-paperclip"><title id="bhsi-evil-paperclip-title">icon paperclip</title><path d="M6.5 30.4c-1.5 0-3.1-.6-4.2-1.8-2.3-2.3-2.3-6.1 0-8.5l17-17c3.1-3.1 8.2-3.1 11.3 0 3.1 3.1 3.1 8.2 0 11.3L17.8 27.2l-1.4-1.4 12.7-12.7c2.3-2.3 2.3-6.1 0-8.5-2.3-2.3-6.1-2.3-8.5 0l-17 17c-.8.8-1.2 1.8-1.2 2.8 0 1.1.4 2.1 1.2 2.8 1.6 1.6 4.1 1.6 5.7 0L22 14.5c.8-.8.8-2 0-2.8-.8-.8-2-.8-2.8 0l-8.5 8.4-1.4-1.4 8.5-8.5c1.6-1.6 4.1-1.6 5.7 0 1.6 1.6 1.6 4.1 0 5.7L10.7 28.6c-1.1 1.2-2.7 1.8-4.2 1.8z"/></symbol><symbol viewBox="0 0 28.499998092651367 28.400001525878906" aria-labelledby="bisi-evil-pencil-title" id="si-evil-pencil"><title id="bisi-evil-pencil-title">icon pencil</title><path d="M0 28.4l2.5-9.9L17.4 3.6l7.4 7.4L9.9 25.9 0 28.4zm4.3-8.9l-1.5 6.1 6.1-1.5L22 11l-4.6-4.6L4.3 19.5z"/><path d="M8.2 25.3c-.6-2.5-2.6-4.5-5.1-5.1l.5-1.9c3.2.8 5.7 3.3 6.5 6.5l-1.9.5z"/><path d="M19.698 7.287l1.414 1.414-13.01 13.02-1.414-1.41zM1.4 27l2.9-.7c-.3-1.1-1.1-1.9-2.2-2.2L1.4 27zm24-16.6L18 3l3-3 .5.1c3.6.5 6.4 3.3 6.9 6.9l.1.5-3.1 2.9zM20.8 3l4.6 4.6.9-.9c-.5-2.3-2.3-4.1-4.6-4.6l-.9.9z"/></symbol><symbol viewBox="0 0 34 34" aria-labelledby="bjsi-evil-play-title" id="si-evil-play"><title id="bjsi-evil-play-title">icon play</title><path d="M17 34C7.6 34 0 26.4 0 17S7.6 0 17 0s17 7.6 17 17-7.6 17-17 17zm0-32C8.7 2 2 8.7 2 17s6.7 15 15 15 15-6.7 15-15S25.3 2 17 2z"/><path d="M12 25.7V8.3L27 17l-15 8.7zm2-14v10.5l9-5.3-9-5.2z"/></symbol><symbol viewBox="0 0 34 34" aria-labelledby="bksi-evil-plus-title" id="si-evil-plus"><title id="bksi-evil-plus-title">icon plus</title><path d="M17 34C7.6 34 0 26.4 0 17S7.6 0 17 0s17 7.6 17 17-7.6 17-17 17zm0-32C8.7 2 2 8.7 2 17s6.7 15 15 15 15-6.7 15-15S25.3 2 17 2z"/><path d="M8 16h18v2H8z"/><path d="M16 8h2v18h-2z"/></symbol><symbol viewBox="0 0 24.19999885559082 30" aria-labelledby="blsi-evil-pointer-title" id="si-evil-pointer"><title id="blsi-evil-pointer-title">icon pointer</title><path d="M21.2 30h-12c-.6 0-1-.4-1-1 0-1.5-.7-2.4-1.8-3.8-.6-.7-1.3-1.6-2-2.7-1.9-3-3.6-6.6-4-7.9-.4-1.3-.1-2.2.3-2.7.4-.6 1.2-.9 2.1-.9 1.2 0 2.4 1 3.5 2.3V3c0-1.7 1.3-3 3-3s3 1.3 3 3v4.2c.3-.1.6-.2 1-.2 1.1 0 2 .6 2.5 1.4.4-.3.9-.4 1.4-.4 1.4 0 2.5.9 2.9 2.2.3-.1.7-.2 1.1-.2 1.7 0 3 1.3 3 3v3c0 2.6-.5 4.7-1 6.7s-1 3.9-1 6.3c0 .6-.4 1-1 1zm-11.1-2h10.1c.1-2.2.6-4 1-5.8.5-2 1-3.9 1-6.2v-3c0-.6-.4-1-1-1s-1 .4-1 1v1c0 .6-.4 1-1 1s-1-.4-1-1v-3c0-.6-.4-1-1-1s-1 .4-1 1v2c0 .6-.4 1-1 1s-1-.4-1-1v-3c0-.6-.4-1-1-1s-1 .4-1 1v2c0 .6-.4 1-1 1s-1-.4-1-1V3c0-.6-.4-1-1-1s-1 .4-1 1v15c0 .6-.4 1-1 1s-1-.4-1-1v-.8C5.3 14.9 3.4 13 2.7 13c-.2 0-.4 0-.5.1-.1.1-.1.4 0 .9.3 1.1 1.8 4.3 3.8 7.5.6 1 1.2 1.7 1.8 2.5 1.1 1.2 2.1 2.3 2.3 4z"/></symbol><symbol viewBox="0 0 34 34" aria-labelledby="bmsi-evil-question-title" id="si-evil-question"><title id="bmsi-evil-question-title">icon question</title><path d="M17 34C7.6 34 0 26.4 0 17S7.6 0 17 0s17 7.6 17 17-7.6 17-17 17zm0-32C8.7 2 2 8.7 2 17s6.7 15 15 15 15-6.7 15-15S25.3 2 17 2z"/><path d="M11.8 11.6c.3-.8.6-1.4 1.2-1.9.5-.5 1.1-.9 1.9-1.2s1.6-.4 2.5-.4c.7 0 1.4.1 2 .3.6.2 1.2.5 1.7.9s.9.9 1.1 1.5c.3.6.4 1.3.4 2 0 1-.2 1.8-.6 2.5s-1 1.3-1.6 2l-1.3 1.3c-.3.3-.6.6-.7.9-.2.3-.3.7-.3 1.1-.1.4-.1.7-.1 1.5h-1.6c0-.8 0-1.1.1-1.7.1-.5.3-1 .5-1.5.2-.4.5-.8.9-1.2.4-.4.9-.8 1.4-1.4.5-.5.9-1 1.2-1.5s.5-1.2.5-1.8c0-.5-.1-1-.3-1.4-.2-.4-.5-.8-.8-1.1-.3-.3-.7-.5-1.2-.7-.5-.2-.9-.3-1.4-.3-.7 0-1.3.1-1.8.4-.5.2-1 .6-1.3 1-.3.4-.6.9-.8 1.5s-.4.9-.4 1.6h-1.6c0-.9.1-1.6.4-2.4zM18 24v2h-2v-2h2z"/></symbol><symbol viewBox="0 0 26 26" aria-labelledby="bnsi-evil-redo-title" id="si-evil-redo"><title id="bnsi-evil-redo-title">icon redo</title><path d="M13 26C5.8 26 0 20.2 0 13S5.8 0 13 0c5.4 0 10.1 3.4 11.9 8.7l-1.9.7C21.5 4.8 17.6 2 13 2 6.9 2 2 6.9 2 13s4.9 11 11 11c4.3 0 8.2-2.5 10-6.4l1.8.8C22.7 23 18.1 26 13 26z"/><path d="M26 10h-8V8h6V2h2z"/></symbol><symbol viewBox="0 0 30 25.89999771118164" aria-labelledby="bosi-evil-refresh-title" id="si-evil-refresh"><title id="bosi-evil-refresh-title">icon refresh</title><path d="M15 25.9c-7.2 0-13-5.8-13-13 0-3.2 1.2-6.2 3.3-8.6l1.5 1.3C5 7.6 4 10.2 4 12.9c0 6.1 4.9 11 11 11 1.6 0 3.1-.3 4.6-1l.8 1.8c-1.7.8-3.5 1.2-5.4 1.2zm9.7-4.3l-1.5-1.3c1.8-2 2.8-4.6 2.8-7.3 0-6.1-4.9-11-11-11-1.6 0-3.1.3-4.6 1l-.8-1.8C11.3.4 13.1 0 15 0c7.2 0 13 5.8 13 13 0 3.1-1.2 6.2-3.3 8.6z"/><path d="M8 11.9H6v-6H0v-2h8zm22 10h-8v-8h2v6h6z"/></symbol><symbol viewBox="0 0 37.599998474121094 23" aria-labelledby="bpsi-evil-retweet-title" id="si-evil-retweet"><title id="bpsi-evil-retweet-title">icon retweet</title><path d="M31.8 21.5h-2v-18c0-.6-.4-1-1-1h-17v-2h17c1.7 0 3 1.3 3 3v18z"/><path d="M30.8 23L24 15.2l1.6-1.4 5.2 6.2 5.2-6.2 1.6 1.4zm-5-.5h-17c-1.7 0-3-1.3-3-3v-18h2v18c0 .6.4 1 1 1h17v2z"/><path d="M12 9.2L6.8 3 1.6 9.2 0 7.8 6.8 0l6.8 7.8z"/></symbol><symbol viewBox="0 0 15 30" aria-labelledby="bqsi-evil-sc-facebook-title" id="si-evil-sc-facebook"><title id="bqsi-evil-sc-facebook-title">icon sc-facebook</title><path d="M10 10V7c0-1.3.3-2 2.4-2H15V0h-4C6 0 4 3.3 4 7v3H0v5h4v15h6V15h4.4l.6-5h-5z"/></symbol><symbol viewBox="0 0 30 29.300003051757812" aria-labelledby="brsi-evil-sc-github-title" id="si-evil-sc-github"><title id="brsi-evil-sc-github-title">icon sc-github</title><path fill-rule="evenodd" d="M15 0C6.7 0 0 6.7 0 15c0 6.6 4.3 12.2 10.3 14.2.8.1 1-.3 1-.7v-2.6c-4.2.9-5.1-2-5.1-2-.7-1.7-1.7-2.2-1.7-2.2-1.4-.9.1-.9.1-.9 1.5.1 2.3 1.5 2.3 1.5 1.3 2.3 3.5 1.6 4.4 1.2.1-1 .5-1.6 1-2-3.3-.4-6.8-1.7-6.8-7.4 0-1.6.6-3 1.5-4-.2-.4-.7-1.9.1-4 0 0 1.3-.4 4.1 1.5 1.2-.3 2.5-.5 3.8-.5 1.3 0 2.6.2 3.8.5 2.9-1.9 4.1-1.5 4.1-1.5.8 2.1.3 3.6.1 4 1 1 1.5 2.4 1.5 4 0 5.8-3.5 7-6.8 7.4.5.5 1 1.4 1 2.8v4.1c0 .4.3.9 1 .7 6-2 10.2-7.6 10.2-14.2C30 6.7 23.3 0 15 0z" clip-rule="evenodd"/></symbol><symbol viewBox="0 0 44 28" aria-labelledby="bssi-evil-sc-google-plus-title" id="si-evil-sc-google-plus"><title id="bssi-evil-sc-google-plus-title">icon sc-google-plus</title><path fill-rule="evenodd" d="M14 12v4.8h7.9c-.3 2.1-2.4 6-7.9 6-4.8 0-8.7-4-8.7-8.8S9.2 5.2 14 5.2c2.7 0 4.5 1.2 5.6 2.2l3.8-3.7C20.9 1.4 17.8 0 14 0 6.3 0 0 6.3 0 14s6.3 14 14 14c8.1 0 13.4-5.7 13.4-13.7 0-.9-.1-1.6-.2-2.3H14zm30 0h-4V8h-4v4h-4v4h4v4h4v-4h4z" clip-rule="evenodd"/></symbol><symbol viewBox="0 0 26 26" aria-labelledby="btsi-evil-sc-instagram-title" id="si-evil-sc-instagram"><title id="btsi-evil-sc-instagram-title">icon sc-instagram</title><path fill-rule="evenodd" d="M23 11h-2.3c.2.6.3 1.3.3 2 0 4.4-3.6 8-8 8s-8-3.6-8-8c0-.7.1-1.4.3-2H3v11c0 .6.4 1 1 1h18c.6 0 1-.4 1-1V11zm0-7c0-.6-.4-1-1-1h-3c-.6 0-1 .4-1 1v3c0 .6.4 1 1 1h3c.6 0 1-.4 1-1V4zM13 8c-2.8 0-5 2.2-5 5s2.2 5 5 5 5-2.2 5-5-2.2-5-5-5m10 18H3c-1.7 0-3-1.3-3-3V3c0-1.7 1.3-3 3-3h20c1.7 0 3 1.3 3 3v20c0 1.7-1.3 3-3 3" clip-rule="evenodd"/></symbol><symbol viewBox="0 0 26 26" aria-labelledby="busi-evil-sc-linkedin-title" id="si-evil-sc-linkedin"><title id="busi-evil-sc-linkedin-title">icon sc-linkedin</title><path d="M24.1 0H1.9C.8 0 0 .8 0 1.9v22.2c0 1 .9 1.9 1.9 1.9h22.2c1.1 0 1.9-.8 1.9-1.9V1.9C26 .8 25.1 0 24.1 0zM8 22H4V10h4v12zM6 8.4C4.7 8.4 3.6 7.3 3.6 6c0-1.3 1.1-2.4 2.4-2.4 1.3 0 2.4 1.1 2.4 2.4 0 1.3-1.1 2.4-2.4 2.4zM22 22h-4v-6c0-1.6-.4-3.2-2-3.2s-2 1.6-2 3.2v6h-4V10h4v1.4h.2c.5-1 1.8-1.8 3.3-1.8C21.2 9.6 22 12 22 15v7z"/></symbol><symbol viewBox="0 0 18.599998474121094 30.599998474121094" aria-labelledby="bvsi-evil-sc-odnoklassniki-title" id="si-evil-sc-odnoklassniki"><title id="bvsi-evil-sc-odnoklassniki-title">icon sc-odnoklassniki</title><path d="M9.3 16c-4.4 0-8-3.6-8-8s3.6-8 8-8 8 3.6 8 8-3.6 8-8 8zm0-12.2C7 3.8 5.1 5.7 5.1 8s1.9 4.2 4.2 4.2 4.2-1.9 4.2-4.2-1.9-4.2-4.2-4.2z"/><path d="M17.9 16.8c-.7-.9-1.9-1-2.8-.4 0 0-2.2 1.6-5.8 1.6-3.6 0-5.8-1.6-5.8-1.6-.9-.7-2.1-.5-2.8.4-.7.9-.5 2.1.4 2.8.1.1 2.2 1.7 5.7 2.2l-5.3 5.4c-.8.8-.8 2.1 0 2.8.4.4.9.6 1.4.6.5 0 1-.2 1.4-.6l5-5.1 5 5.1c.4.4.9.6 1.4.6.5 0 1-.2 1.4-.6.8-.8.8-2 0-2.8l-5.3-5.4c3.5-.6 5.6-2.2 5.7-2.2.9-.7 1.1-2 .4-2.8z"/></symbol><symbol viewBox="0 0 30.000003814697266 30" aria-labelledby="bwsi-evil-sc-pinterest-title" id="si-evil-sc-pinterest"><title id="bwsi-evil-sc-pinterest-title">icon sc-pinterest</title><path d="M15 0C6.7 0 0 6.7 0 15c0 6.4 4 11.8 9.5 14-.1-1.2-.2-3 .1-4.3.3-1.2 1.8-7.5 1.8-7.5s-.4-.9-.4-2.2c0-2.1 1.2-3.6 2.7-3.6 1.3 0 1.9 1 1.9 2.1 0 1.3-.8 3.2-1.2 5-.4 1.5.7 2.7 2.2 2.7 2.7 0 4.7-2.8 4.7-6.9 0-3.6-2.6-6.1-6.3-6.1-4.3 0-6.8 3.2-6.8 6.5 0 1.3.5 2.7 1.1 3.4.1.1.1.3.1.4-.1.5-.4 1.5-.4 1.7-.1.3-.2.3-.5.2-1.9-.9-3-3.6-3-5.8 0-4.7 3.4-9.1 9.9-9.1 5.2 0 9.2 3.7 9.2 8.7 0 5.2-3.3 9.3-7.8 9.3-1.5 0-2.9-.8-3.4-1.7 0 0-.8 2.9-.9 3.6-.3 1.3-1.3 2.9-1.9 3.9 1.4.5 2.9.7 4.4.7 8.3 0 15-6.7 15-15S23.3 0 15 0z"/></symbol><symbol viewBox="0 0 27.89999771118164 27.799999237060547" aria-labelledby="bxsi-evil-sc-skype-title" id="si-evil-sc-skype"><title id="bxsi-evil-sc-skype-title">icon sc-skype</title><path d="M26.9 16.2c.1-.8.2-1.6.2-2.4 0-1.8-.3-3.5-1-5.1-.7-1.6-1.6-3-2.8-4.2-1.2-1.2-2.6-2.2-4.2-2.8-1.6-.7-3.4-1-5.1-1-.8 0-1.7.1-2.5.2C10.4.3 9.1 0 7.8 0 5.7 0 3.7.8 2.3 2.3.8 3.8 0 5.7 0 7.8c0 1.3.3 2.6 1 3.8-.1.7-.2 1.5-.2 2.3 0 1.8.3 3.5 1 5.1.7 1.6 1.6 3 2.8 4.2 1.2 1.2 2.6 2.2 4.2 2.8 1.6.7 3.4 1 5.1 1 .8 0 1.6-.1 2.3-.2 1.2.7 2.5 1 3.9 1 2.1 0 4.1-.8 5.5-2.3 1.5-1.5 2.3-3.4 2.3-5.5 0-1.3-.3-2.6-1-3.8zM14 21.9c-4.7 0-6.8-2.3-6.8-4 0-.9.7-1.5 1.6-1.5 2 0 1.5 2.9 5.2 2.9 1.9 0 3-1 3-2.1 0-.6-.3-1.4-1.6-1.7l-4.2-1c-3.4-.8-4-2.7-4-4.4 0-3.6 3.3-4.9 6.5-4.9 2.9 0 6.3 1.6 6.3 3.7 0 .9-.8 1.4-1.7 1.4-1.7 0-1.4-2.4-4.9-2.4-1.7 0-2.7.8-2.7 1.9 0 1.1 1.4 1.5 2.5 1.7l3.1.7c3.4.8 4.2 2.7 4.2 4.6.1 2.9-2.1 5.1-6.5 5.1z"/></symbol><symbol viewBox="0 0 44 20" aria-labelledby="bysi-evil-sc-soundcloud-title" id="si-evil-sc-soundcloud"><title id="bysi-evil-sc-soundcloud-title">icon sc-soundcloud</title><path d="M38 8h-.2c-.9-4.6-5-8-9.8-8-3.1 0-5.9 1.4-7.7 3.7-.2.3-.3.6-.3 1.2l-.4 9.1.4 5.5c0 .3.3.5.5.5H38c3.3 0 6-2.7 6-6s-2.7-6-6-6zM16.9 4c-.3 0-.5.2-.5.5l-.8 9v1l.8 5c0 .3.3.5.6.5h.2c.3 0 .5-.2.6-.5l.8-5c0-.3.1-.7 0-1l-.8-9c0-.3-.3-.5-.5-.5h-.4zm-4 1c-.3 0-.5.2-.5.5l-.8 8v1l.8 5c0 .3.3.5.6.5h.2c.3 0 .5-.2.6-.5l.8-5c0-.3.1-.7 0-1l-.8-8c0-.3-.3-.5-.5-.5h-.4zM9 8c-.3 0-.5.2-.6.5l-.8 5v1l.8 5c0 .3.3.5.6.5s.5-.2.6-.5l.8-5v-1l-.8-5C9.5 8.2 9.3 8 9 8zM5 7c-.3 0-.5.2-.6.5l-.9 6v1l.8 5c.2.3.4.5.7.5.3 0 .5-.2.6-.5l.8-5c0-.3.1-.7 0-1l-.9-6c0-.3-.2-.5-.5-.5zm-3.7 3c-.3 0-.5.2-.6.5l-.6 3c-.1.3-.1.7 0 1l.6 4c.1.3.3.5.6.5s.5-.2.6-.5l.6-4v-1l-.6-3c-.1-.3-.3-.5-.6-.5z"/></symbol><symbol viewBox="0 0 31.599998474121094 27.200000762939453" aria-labelledby="bzsi-evil-sc-telegram-title" id="si-evil-sc-telegram"><title id="bzsi-evil-sc-telegram-title">icon sc-telegram</title><path d="M28.6.6L.9 11.6c-.9.3-.8 1.6.1 1.9l7 2.2 2.8 8.8c.2.7 1.1.9 1.6.4l4.1-3.8 7.8 5.7c.6.4 1.4.1 1.6-.6L31.3 3c.3-1.7-1.2-3-2.7-2.4zM12.4 17.4l-.9 5.2-2-7.2L29 2.6 12.4 17.4z"/></symbol><symbol viewBox="0 0 16.000001907348633 28" aria-labelledby="casi-evil-sc-tumblr-title" id="si-evil-sc-tumblr"><title id="casi-evil-sc-tumblr-title">icon sc-tumblr</title><path d="M14.7 22.4c-.5.2-1.5.5-2.3.5-2.2.1-2.7-1.6-2.7-2.8v-8.7h5.6V7.2H9.8V0H5.7c-.1 0-.2.1-.2.2-.2 2.2-1.3 6-5.5 7.5v3.6h2.8v9.1c0 3.1 2.3 7.6 8.4 7.5 2.1 0 4.3-.9 4.8-1.6l-1.3-3.9z"/></symbol><symbol viewBox="0 0 29.200002670288086 23.900001525878906" aria-labelledby="cbsi-evil-sc-twitter-title" id="si-evil-sc-twitter"><title id="cbsi-evil-sc-twitter-title">icon sc-twitter</title><path d="M29.2 2.7c-1.1.5-2.2.8-3.5 1 1.2-.8 2.2-1.9 2.7-3.3-1.2.7-2.5 1.2-3.8 1.5C23.5.7 21.9 0 20.2 0c-3.3 0-6.1 2.7-6.1 6.1 0 .5.1.9.2 1.4-5-.2-9.5-2.7-12.5-6.3C1.3 1.9 1 2.9 1 4c0 2.1 1.1 4 2.7 5-1 0-1.9-.3-2.7-.8v.1c0 2.9 2.1 5.4 4.9 5.9-.5.1-1 .2-1.6.2-.4 0-.8 0-1.1-.1.8 2.4 3 4.2 5.7 4.2-2.1 1.6-4.7 2.6-7.5 2.6-.5 0-1 0-1.4-.1 2.4 1.9 5.6 2.9 9 2.9 11.1 0 17.2-9.2 17.2-17.2v-.8c1.2-.9 2.2-1.9 3-3.2z"/></symbol><symbol viewBox="0 0 27.900001525878906 24.20000457763672" aria-labelledby="ccsi-evil-sc-vimeo-title" id="si-evil-sc-vimeo"><title id="ccsi-evil-sc-vimeo-title">icon sc-vimeo</title><path d="M27.7 5.7c-.1 2.7-2 6.4-5.6 11.1-3.8 4.9-7 7.4-9.6 7.4-1.6 0-3-1.5-4.1-4.5-.7-2.7-1.5-5.5-2.2-8.2C5.4 8.5 4.5 7 3.5 7c-.2 0-.9.4-2.2 1.3L0 6.6C1.4 5.4 2.7 4.2 4 3 5.8 1.4 7.2.6 8.1.5c2.2-.2 3.5 1.3 4 4.4.5 3.4.9 5.5 1.1 6.4.6 2.8 1.3 4.2 2.1 4.2.6 0 1.5-.9 2.6-2.8 1.2-1.8 1.8-3.2 1.9-4.2.2-1.6-.5-2.4-1.9-2.4-.7 0-1.3.2-2 .5 1.4-4.5 4-6.6 7.8-6.5 2.8.1 4.2 1.9 4 5.6z"/></symbol><symbol viewBox="0 0 33.900001525878906 19.099998474121094" aria-labelledby="cdsi-evil-sc-vk-title" id="si-evil-sc-vk"><title id="cdsi-evil-sc-vk-title">icon sc-vk</title><path fill-rule="evenodd" d="M16.3 18.8h2s.6-.1.9-.4c.3-.3.3-.9.3-.9s0-2.6 1.2-3c1.2-.4 2.8 2.6 4.4 3.7 1.2.9 2.1.7 2.1.7l4.4-.1s2.3-.1 1.2-2c-.1-.1-.6-1.3-3.3-3.8-2.8-2.6-2.4-2.1.9-6.6 2-2.7 2.8-4.3 2.6-5.1-.2-.7-1.7-.5-1.7-.5h-5s-.4-.1-.6.1c-.3.2-.4.5-.4.5s-.8 2.1-1.8 3.9C21.3 9 20.4 9.2 20.1 9c-.8-.5-.6-2.2-.6-3.3 0-3.6.6-5.1-1.1-5.5-.5-.1-.9-.2-2.3-.2-1.8 0-3.3 0-4.1.4-.6.3-1 .9-.7.9.3 0 1.1.2 1.5.7.4.9.4 2.4.4 2.4s.3 4.3-.7 4.8c-.7.4-1.6-.4-3.6-3.8-1-1.7-1.8-3.7-1.8-3.7s-.1-.4-.4-.6C6.4.9 5.9.8 5.9.8H1.2s-.7 0-1 .3c-.2.3 0 .8 0 .8s3.7 8.6 7.9 13c3.9 4.2 8.2 3.9 8.2 3.9z" clip-rule="evenodd"/></symbol><symbol viewBox="0 0 30 21" aria-labelledby="cesi-evil-sc-youtube-title" id="si-evil-sc-youtube"><title id="cesi-evil-sc-youtube-title">icon sc-youtube</title><path d="M29.7 4.6s-.3-2.1-1.2-3C27.4.4 26.1.4 25.5.3 21.3 0 15 0 15 0S8.7 0 4.5.3c-.6.1-1.9.1-3 1.3-.9.9-1.2 3-1.2 3S0 7 0 9.4v2.2c0 2.4.3 4.9.3 4.9s.3 2.1 1.2 3c1.1 1.2 2.6 1.2 3.3 1.3 2.4.1 10.2.2 10.2.2s6.3 0 10.5-.3c.6-.1 1.9-.1 3-1.3.9-.9 1.2-3 1.2-3s.3-2.4.3-4.8V9.4c0-2.4-.3-4.8-.3-4.8zm-17.8 9.8V6l8.1 4.2-8.1 4.2z"/></symbol><symbol viewBox="0 0 31.661998748779297 31.66100311279297" aria-labelledby="cfsi-evil-search-title" id="si-evil-search"><title id="cfsi-evil-search-title">icon search</title><path d="M13 26C5.8 26 0 20.2 0 13S5.8 0 13 0s13 5.8 13 13-5.8 13-13 13zm0-24C6.9 2 2 6.9 2 13s4.9 11 11 11 11-4.9 11-11S19.1 2 13 2zm9.682 19.267l8.98 8.98-1.414 1.414-8.98-8.98z"/></symbol><symbol viewBox="0 0 26 34.400001525878906" aria-labelledby="cgsi-evil-share-apple-title" id="si-evil-share-apple"><title id="cgsi-evil-share-apple-title">icon share-apple</title><path d="M18.3 8.1L13 2.8 7.7 8.1 6.3 6.7 13 0l6.7 6.7z"/><path d="M12 1.4h2v21h-2z"/><path d="M23 34.4H3c-1.7 0-3-1.3-3-3v-18c0-1.7 1.3-3 3-3h7v2H3c-.6 0-1 .4-1 1v18c0 .6.4 1 1 1h20c.6 0 1-.4 1-1v-18c0-.6-.4-1-1-1h-7v-2h7c1.7 0 3 1.3 3 3v18c0 1.7-1.3 3-3 3z"/></symbol><symbol viewBox="0 0 30 30" aria-labelledby="chsi-evil-share-google-title" id="si-evil-share-google"><title id="chsi-evil-share-google-title">icon share-google</title><path d="M5 20c-2.8 0-5-2.2-5-5s2.2-5 5-5 5 2.2 5 5-2.2 5-5 5zm0-8c-1.7 0-3 1.3-3 3s1.3 3 3 3 3-1.3 3-3-1.3-3-3-3zm20-2c-2.8 0-5-2.2-5-5s2.2-5 5-5 5 2.2 5 5-2.2 5-5 5zm0-8c-1.7 0-3 1.3-3 3s1.3 3 3 3 3-1.3 3-3-1.3-3-3-3zm0 28c-2.8 0-5-2.2-5-5s2.2-5 5-5 5 2.2 5 5-2.2 5-5 5zm0-8c-1.7 0-3 1.3-3 3s1.3 3 3 3 3-1.3 3-3-1.3-3-3-3z"/><path d="M9.007 15.885l12.88 6.44-.895 1.788-12.88-6.44zm11.986-10l.894 1.79-12.88 6.438-.894-1.79z"/></symbol><symbol viewBox="0 0 34 34" aria-labelledby="cisi-evil-spinner-title" id="si-evil-spinner"><title id="cisi-evil-spinner-title">icon spinner</title><path d="M17 10c-.6 0-1-.4-1-1V1c0-.6.4-1 1-1s1 .4 1 1v8c0 .6-.4 1-1 1z"/><path d="M17 34c-.6 0-1-.4-1-1v-8c0-.6.4-1 1-1s1 .4 1 1v8c0 .6-.4 1-1 1zm4-23c-.2 0-.3 0-.5-.1-.4-.3-.6-.8-.3-1.3l4-6.9c.3-.4.8-.6 1.3-.3.4.3.6.8.3 1.3l-4 6.9c-.2.2-.5.4-.8.4zM9 31.8c-.2 0-.3 0-.5-.1-.4-.3-.6-.8-.3-1.3l4-6.9c.3-.4.8-.6 1.3-.3.4.3.6.8.3 1.3l-4 6.9c-.2.2-.5.4-.8.4z" opacity=".3"/><path d="M13 11c-.3 0-.6-.2-.8-.5l-4-6.9c-.3-.4-.1-1 .3-1.3.4-.3 1-.1 1.3.3l4 6.9c.3.4.1 1-.3 1.3-.2.2-.3.2-.5.2z" opacity=".93"/><path d="M25 31.8c-.3 0-.6-.2-.8-.5l-4-6.9c-.3-.4-.1-1 .3-1.3.4-.3 1-.1 1.3.3l4 6.9c.3.4.1 1-.3 1.3-.2.1-.3.2-.5.2z" opacity=".3"/><path d="M9 18H1c-.6 0-1-.4-1-1s.4-1 1-1h8c.6 0 1 .4 1 1s-.4 1-1 1z" opacity=".65"/><path d="M33 18h-8c-.6 0-1-.4-1-1s.4-1 1-1h8c.6 0 1 .4 1 1s-.4 1-1 1z" opacity=".3"/><path d="M10.1 13.9c-.2 0-.3 0-.5-.1l-6.9-4c-.4-.3-.6-.8-.3-1.3.3-.4.8-.6 1.3-.3l6.9 4c.4.3.6.8.3 1.3-.2.3-.5.4-.8.4z" opacity=".86"/><path d="M30.9 25.9c-.2 0-.3 0-.5-.1l-6.9-4c-.4-.3-.6-.8-.3-1.3.3-.4.8-.6 1.3-.3l6.9 4c.4.3.6.8.3 1.3-.2.3-.5.4-.8.4z" opacity=".3"/><path d="M3.1 25.9c-.3 0-.6-.2-.8-.5-.3-.4-.1-1 .3-1.3l6.9-4c.4-.3 1-.1 1.3.3.3.4.1 1-.3 1.3l-6.9 4c-.1.2-.3.2-.5.2z" opacity=".44"/><path d="M23.9 13.9c-.3 0-.6-.2-.8-.5-.3-.4-.1-1 .3-1.3l6.9-4c.4-.3 1-.1 1.3.3.3.4.1 1-.3 1.3l-6.9 4c-.2.2-.3.2-.5.2z" opacity=".3"/></symbol><symbol viewBox="0 0 34 34" aria-labelledby="cjsi-evil-spinner-2-title" id="si-evil-spinner-2"><title id="cjsi-evil-spinner-2-title">icon spinner-2</title><g transform="translate(-8 -8)"><circle cx="25" cy="10" r="2"/><circle cx="25" cy="40" r="2" opacity=".3"/><circle cx="32.5" cy="12" r="2" opacity=".3"/><circle cx="17.5" cy="38" r="2" opacity=".3"/><circle cx="17.5" cy="12" r="2" opacity=".93"/><circle cx="32.5" cy="38" r="2" opacity=".3"/><circle cx="10" cy="25" r="2" opacity=".65"/><circle cx="40" cy="25" r="2" opacity=".3"/><circle cx="12" cy="17.5" r="2" opacity=".86"/><circle cx="38" cy="32.5" r="2" opacity=".3"/><circle cx="12" cy="32.5" r="2" opacity=".44"/><circle cx="38" cy="17.5" r="2" opacity=".3"/></g></symbol><symbol viewBox="0 0 34.999996185302734 36.400001525878906" aria-labelledby="cksi-evil-spinner-3-title" id="si-evil-spinner-3"><title id="cksi-evil-spinner-3-title">icon spinner-3</title><path d="M34.8 17.1c-.3-6.1-4-11.8-9.5-14.4C19.3 0 12 1.1 7 5.3c-4.8 4-7 10.5-5.6 16.6 1.3 6 6 10.9 11.9 12.5 7.1 2 13.6-1.4 17.6-7.2-3.6 4.8-9.1 8-15.2 6.9C9.6 33 4.6 28.4 3.2 22.4 1.7 16 4.7 9.3 10.4 6c5.9-3.4 14.2-2.1 18.1 3.7 1 1.4 1.7 3.1 2 4.8.3 1.4.2 2.9.4 4.3.2 1.3 1.3 3 2.8 2.1 1.3-.8 1.2-2.5 1.1-3.8 0-.4.1.7 0 0z"/></symbol><symbol viewBox="0 0 37.39999771118164 35.400001525878906" aria-labelledby="clsi-evil-star-title" id="si-evil-star"><title id="clsi-evil-star-title">icon star</title><path d="M7.8 35.4c-.2 0-.4-.1-.6-.2-.4-.3-.5-.7-.4-1.1l3.9-12L.5 14.6c-.4-.3-.5-.7-.4-1.1s.5-.7 1-.7h12.7L17.6.7c.1-.4.5-.7 1-.7s.8.3 1 .7l3.9 12.1h12.7c.4 0 .8.2 1 .6s0 .9-.4 1.1l-10.2 7.4 3.9 12c.1.4 0 .9-.4 1.1s-.8.3-1.2 0l-10.3-7.2-10.2 7.4c-.2.1-.4.2-.6.2zm10.8-9.9c.2 0 .4.1.6.2l8.3 6.1-3.2-9.8c-.1-.4 0-.9.4-1.1l8.3-6.1H22.7c-.4 0-.8-.3-1-.7l-3.1-9.8-3.2 9.8c-.1.4-.5.7-1 .7H4.1l8.3 6.1c.4.3.5.7.4 1.1l-3.1 9.8 8.3-6.1c.2-.1.4-.2.6-.2z"/></symbol><symbol viewBox="0 0 28.39999771118164 28.000003814697266" aria-labelledby="cmsi-evil-tag-title" id="si-evil-tag"><title id="cmsi-evil-tag-title">icon tag</title><path d="M12.4 28c-.9 0-1.7-.3-2.3-.9l-8.9-8.9C0 17 0 14.9 1.2 13.7L13.1 1.8c1-1 3-1.8 4.5-1.8h7.6c1.8 0 3.2 1.4 3.2 3.2v7.6c0 1.5-.8 3.4-1.8 4.5L14.7 27.1c-.6.6-1.4.9-2.3.9zm5.2-26.1c-1 0-2.4.6-3 1.3L2.7 15.1c-.5.5-.5 1.2 0 1.7l8.9 8.9c.5.4 1.2.4 1.7 0l11.9-11.9c.7-.7 1.3-2.1 1.3-3V3.2c0-.7-.5-1.2-1.2-1.2h-7.7z"/><path d="M20.4 11.9c-2.2 0-4-1.8-4-4s1.8-4 4-4 4 1.8 4 4-1.8 4-4 4zm0-6c-1.1 0-2 .9-2 2s.9 2 2 2 2-.9 2-2-.9-2-2-2z"/></symbol><symbol viewBox="0 0 26 32" aria-labelledby="cnsi-evil-trash-title" id="si-evil-trash"><title id="cnsi-evil-trash-title">icon trash</title><path d="M8 10h2v16H8zm4 0h2v16h-2zm4 0h2v16h-2zM0 4h26v2H0zm18 0h-2V3c0-.6-.4-1-1-1h-4c-.6 0-1 .4-1 1v1H8V3c0-1.7 1.3-3 3-3h4c1.7 0 3 1.3 3 3v1z"/><path d="M19 32H7c-1.6 0-3-1.3-3.2-2.9L2 5.1l2-.2 1.8 24c0 .6.6 1.1 1.2 1.1h12c.6 0 1.1-.5 1.2-1.1l1.8-24 2 .2-1.8 24C22 30.7 20.6 32 19 32z"/></symbol><symbol viewBox="0 0 34 30" aria-labelledby="cosi-evil-trophy-title" id="si-evil-trophy"><title id="cosi-evil-trophy-title">icon trophy</title><path d="M20.6 19.4c3-2.3 7.4-5.7 7.4-18.4V0H6v1c0 12.7 4.5 16.1 7.4 18.4 1.7 1.3 2.6 2 2.6 3.6v3c-1.6.2-3.2.8-3.8 2H10c-1.1 0-2 .9-2 2h18c0-1.1-.9-2-2-2h-2.2c-.6-1.2-2.1-1.8-3.8-2v-3c0-1.6.8-2.3 2.6-3.6zm-3.6.5c-.6-.8-1.5-1.5-2.3-2.1C12 15.7 8.3 12.9 8.1 2h18c-.2 10.8-3.9 13.7-6.6 15.8-1 .7-1.9 1.3-2.5 2.1z"/><path d="M10.8 17C10.7 17 0 14.7 0 3V2h7v2H2c.6 9.2 9.1 11 9.2 11l-.4 2zm12.4 0l-.4-2c.4-.1 8.6-1.9 9.2-11h-5V2h7v1c0 11.7-10.7 14-10.8 14z"/></symbol><symbol viewBox="0 0 26 26.000001907348633" aria-labelledby="cpsi-evil-undo-title" id="si-evil-undo"><title id="cpsi-evil-undo-title">icon undo</title><path d="M13 26c-5.1 0-9.7-3-11.8-7.6l1.8-.8C4.8 21.5 8.7 24 13 24c6.1 0 11-4.9 11-11S19.1 2 13 2C8.4 2 4.5 4.8 2.9 9.3L1 8.6C2.9 3.4 7.6 0 13 0c7.2 0 13 5.8 13 13s-5.8 13-13 13z"/><path d="M8 10H0V2h2v6h6z"/></symbol><symbol viewBox="0 0 22 30" aria-labelledby="cqsi-evil-unlock-title" id="si-evil-unlock"><title id="cqsi-evil-unlock-title">icon unlock</title><g transform="translate(-14 -10)"><path d="M18 23h-2v-4c0-5 4-9 9-9 4.5 0 8.4 3.4 8.9 7.9l-2 .2c-.4-3.5-3.4-6.1-6.9-6.1-3.9 0-7 3.1-7 7v4z"/><path d="M33 40H17c-1.7 0-3-1.3-3-3V25c0-1.7 1.3-3 3-3h16c1.7 0 3 1.3 3 3v12c0 1.7-1.3 3-3 3zM17 24c-.6 0-1 .4-1 1v12c0 .6.4 1 1 1h16c.6 0 1-.4 1-1V25c0-.6-.4-1-1-1H17z"/><circle cx="25" cy="28" r="2"/><path d="M25.5 28h-1l-1 6h3z"/></g></symbol><symbol viewBox="0 0 34 34" aria-labelledby="crsi-evil-user-title" id="si-evil-user"><title id="crsi-evil-user-title">icon user</title><path d="M17 34C7.6 34 0 26.4 0 17S7.6 0 17 0s17 7.6 17 17-7.7 17-17 17zm0-32C8.7 2 2 8.7 2 17s6.7 15 15 15 15-6.7 15-15S25.2 2 17 2z"/><path d="M7.2 29.3l-1.8-.8c.5-1.2 2.1-1.9 3.8-2.7C10.9 25 13 24.1 13 23v-1.5c-.6-.5-1.6-1.6-1.8-3.2-.5-.5-1.3-1.4-1.3-2.6 0-.7.3-1.3.5-1.7-.2-.8-.4-2.3-.4-3.5C10 6.6 12.7 4 17 4c1.2 0 2.7.3 3.5 1.2 1.9.4 3.5 2.6 3.5 5.3 0 1.7-.3 3.1-.5 3.8.2.3.4.8.4 1.4 0 1.3-.7 2.2-1.3 2.6-.2 1.6-1.1 2.6-1.7 3.1V23c0 .9 1.8 1.6 3.4 2.2 1.9.7 3.9 1.5 4.6 3.1L27 29c-.3-.8-1.9-1.4-3.4-1.9-2.2-.8-4.7-1.7-4.7-4v-2.6l.5-.3s1.2-.8 1.2-2.4v-.7l.6-.3c.1 0 .6-.3.6-1.1 0-.2-.2-.5-.3-.6l-.4-.4.2-.5s.5-1.6.5-3.6c0-1.9-1.1-3.3-2-3.3h-.6l-.3-.5c0-.4-.7-.8-1.9-.8-3.1 0-5 1.7-5 4.5 0 1.3.5 3.5.5 3.5l.1.5-.4.5c-.1 0-.3.3-.3.7 0 .5.6 1.1.9 1.3l.4.3v.5c0 1.5 1.3 2.3 1.3 2.4l.5.3v2.6c0 2.4-2.6 3.6-5 4.6-1.1.4-2.6 1.1-2.8 1.6z"/></symbol></defs></svg>