<?xml version="1.0" encoding="utf-8"?><svg xmlns="http://www.w3.org/2000/svg" xmlns:xlink="http://www.w3.org/1999/xlink" style="width:0;height:0;position:absolute;overflow:hidden;" version="1.1"><defs><symbol viewBox="0 0 1024 1024" aria-labelledby="aasi-flat-alert-circle-title" id="si-flat-alert-circle"><title id="aasi-flat-alert-circle-title">icon alert-circle</title><path d="M512 0C229.248 0 0 229.248 0 512s229.248 512 512 512 512-229.248 512-512S794.752 0 512 0zm0 831.936c-35.776 0-64.768-28.544-64.768-63.808 0-35.2 28.992-63.808 64.768-63.808 35.776 0 64.768 28.608 64.768 63.808 0 35.264-28.992 63.808-64.768 63.808zm64.768-259.712c0 37.056-28.992 67.072-64.768 67.072-35.776 0-64.768-30.08-64.768-67.072V259.136c0-37.056 28.992-67.072 64.768-67.072 35.776 0 64.768 30.08 64.768 67.072v313.088z"/></symbol><symbol viewBox="0 0 832 1030.4000244140625" aria-labelledby="absi-flat-android-title" id="si-flat-android"><title id="absi-flat-android-title">icon android</title><path d="M768 710.4c-38.4 0-64-32-64-64v-256c0-38.4 32-64 64-64 38.4 0 64 32 64 64v256c0 32-25.6 64-64 64zM601.6 857.6h-38.4v108.8c0 38.4-25.6 64-57.6 64s-57.6-25.6-57.6-64V857.6h-70.4v108.8c0 38.4-25.6 64-57.6 64s-57.6-25.6-57.6-64V857.6h-32c-19.2 0-38.4-19.2-38.4-44.8V384h448v422.4c0 32-12.8 51.2-38.4 51.2zM640 326.4H192c0-89.6 32-153.6 76.8-192l-70.4-83.2c-6.4-12.8-6.4-25.6 0-38.4C211.2 0 224 0 236.8 12.8l83.2 96c32-12.8 64-19.2 96-19.2s70.4 6.4 96 19.2l83.2-96C608 0 620.8 0 633.6 12.8s12.8 32 0 38.4l-70.4 83.2c44.8 32 76.8 102.4 76.8 192zm-294.4-128c-12.8 0-25.6 12.8-25.6 32s12.8 32 25.6 32 25.6-12.8 25.6-32-12.8-32-25.6-32zm140.8 0c-12.8 0-25.6 12.8-25.6 32s12.8 32 25.6 32 25.6-19.2 25.6-32-12.8-32-25.6-32zM64 710.4c-38.4 0-64-32-64-64v-256c0-38.4 25.6-64 64-64s64 32 64 64v256c0 32-25.6 64-64 64z"/></symbol><symbol viewBox="0 0 947.2000732421875 1036.800048828125" aria-labelledby="acsi-flat-apple-title" id="si-flat-apple"><title id="acsi-flat-apple-title">icon apple</title><path d="M947.2 748.8C915.2 902.4 832 960 800 998.4c-32 25.6-121.6 25.6-153.6 6.4-38.4-25.6-134.4-25.6-166.4 0-44.8 32-115.2 19.2-128 12.8C96 838.4 0 300.8 364.8 243.2c64-12.8 134.4 32 134.4 32 51.2 25.6 70.4 12.8 115.2-6.4 96-44.8 243.2-44.8 313.6 76.8-147.2 96-153.6 294.4 19.2 403.2zM742.4 0c12.8 70.4-64 224-204.8 230.4C524.8 192 569.6 12.8 742.4 0z"/></symbol><symbol viewBox="0 0 575.16796875 898.176025390625" aria-labelledby="adsi-flat-arrow-left-title" id="si-flat-arrow-left"><title id="adsi-flat-arrow-left-title">icon arrow-left</title><path d="M0 447.232L447.168 0l128 131.008-321.151 318.016L575.168 769.92 446.912 898.176 0 447.232z"/></symbol><symbol viewBox="0 0 575.16796875 898.112060546875" aria-labelledby="aesi-flat-arrow-right-title" id="si-flat-arrow-right"><title id="aesi-flat-arrow-right-title">icon arrow-right</title><path d="M128.255 898.112L.063 769.856 321.151 448.96 0 131.008 128 0l447.168 447.232-446.912 450.88z"/></symbol><symbol viewBox="0 0 1024.0001220703125 640.0000610351562" aria-labelledby="afsi-flat-behance-title" id="si-flat-behance"><title id="afsi-flat-behance-title">icon behance</title><path d="M921.6 89.6h-256v-64h256v64zM499.2 352c12.8 25.6 25.6 57.6 25.6 96s-6.4 70.4-25.6 102.4L448 601.6c-19.2 12.8-44.8 25.6-70.4 32S320 640 288 640H0V0h307.2C384 0 441.6 25.6 473.6 70.4c19.2 25.6 25.6 57.6 25.6 96s-12.8 70.4-32 96c-6.4 12.8-19.2 25.6-44.8 32 32 12.8 57.6 32 76.8 57.6zm-352-102.4h134.4c25.6 0 51.2-6.4 70.4-12.8 19.2-12.8 25.6-32 25.6-57.6 0-32-12.8-51.2-32-57.6-25.6-6.4-51.2-12.8-83.2-12.8H147.2v140.8zm243.2 185.6c0-32-12.8-57.6-38.4-70.4-12.8-6.4-38.4-12.8-64-12.8H147.2v172.8h134.4c25.6 0 51.2-6.4 64-12.8 25.6-6.4 44.8-32 44.8-76.8zm627.2-102.4c6.4 19.2 6.4 51.2 6.4 89.6H691.2c0 44.8 19.2 76.8 44.8 96 19.2 12.8 38.4 19.2 64 19.2s51.2-6.4 64-19.2c19.2-6.4 25.6-19.2 32-32h121.6c0 25.6-19.2 57.6-44.8 83.2-38.4 44.8-96 64-172.8 64-57.6 0-115.2-19.2-160-57.6-44.8-32-70.4-96-70.4-179.2 0-76.8 19.2-140.8 64-185.6 44.8-44.8 96-64 166.4-64 38.4 0 76.8 6.4 108.8 19.2 32 12.8 57.6 38.4 76.8 70.4 19.2 32 25.6 64 32 96zm-115.2 12.8c0-32-12.8-57.6-32-70.4-19.2-19.2-44.8-25.6-70.4-25.6-32 0-51.2 6.4-70.4 25.6-19.2 19.2-25.6 38.4-32 70.4h204.8z"/></symbol><symbol viewBox="0 0 100.18299865722656 100.00000762939453" aria-labelledby="agsi-flat-book-title" id="si-flat-book"><title id="agsi-flat-book-title">icon book</title><g fill-rule="evenodd" clip-rule="evenodd"><path fill="#C0392B" d="M6 100h88a6 6 0 0 0 6-6V6a6 6 0 0 0-6-6H6a6 6 0 0 0-6 6v88a6 6 0 0 0 6 6z"/><path fill="#E74C3C" d="M100 30h-.025a5.5 5.5 0 0 0-5.475-5H6.25C2.937 25 0 22.314 0 19V6a6 6 0 0 1 6-6h88c3.313 0 6 2.687 6 6.001V30z"/><path d="M5 100h2V0H5v100z" opacity=".15"/><path fill="#fff" d="M7 100h2V0H7v100z" opacity=".15"/><path fill="#fff" d="M100 10.001a5 5 0 0 0-5-5H7a2 2 0 0 0-2 2v11a2 2 0 0 0 2 2h87a6 6 0 0 1 6 6v-15h-.101c.066-.323.101-.658.101-1z"/><path fill="#95A5A6" d="M100 15.423v-3.921s.183-4-5-4H5v2h89a5.995 5.995 0 0 1 5.98 5.616c-.107-1-.789-3.615-4.98-3.615H5v2h89a5.995 5.995 0 0 1 5.98 5.616c-.107-1.001-.789-3.616-4.98-3.616H5v2h89a6 6 0 0 1 6 6v-8.08z" opacity=".2"/><path fill="#2980B9" d="M80 100h10V25H80v75z"/><path fill="#3498DB" d="M80 25.007h10V0H80v25.007z"/><path d="M82 100h2V0h-2v100zM86 0v100h2V0h-2z" opacity=".1"/></g></symbol><symbol viewBox="0 0 896 1024.0001220703125" aria-labelledby="ahsi-flat-bookmark-title" id="si-flat-bookmark"><title id="ahsi-flat-bookmark-title">icon bookmark</title><path d="M704 256h128c35.392 0 64 28.672 64 64v640c0 35.392-28.608 64-64 64H160C71.616 1024 0 952.384 0 864V160.064C0 71.68 71.616 0 160 0h672c35.392 0 64 28.672 64 64 0 35.392-28.608 64.064-64 64.064H192c-35.328 0-64 28.608-64 64s28.672 64 64 64h128v256l64-64 64 64v-256h256z"/></symbol><symbol viewBox="0 0 1024 1024.1279296875" aria-labelledby="aisi-flat-bubble-title" id="si-flat-bubble"><title id="aisi-flat-bubble-title">icon bubble</title><path d="M895.424 0H127.552C.257 0 0 128.064 0 128.064V640s.704 128.064 128 128.064h256s53.568 1.472 73.344 23.936l289.344 226.496c4.736 3.776 7.616 5.632 10.432 5.632 8 0 10.368-5.504 10.368-14.592V795.2c0-15.104 9.984-27.2 23.424-27.2H896c125.312 0 128-128.064 128-128.064V128.064S1022.72 0 895.424 0zM896 640H640v128L475.392 640H128V128.064h768V640z"/></symbol><symbol viewBox="0 0 100 100" aria-labelledby="ajsi-flat-calendar-title" id="si-flat-calendar"><title id="ajsi-flat-calendar-title">icon calendar</title><path fill="#EBEDED" d="M100 95a5 5 0 0 1-5 5H5a5 5 0 0 1-5-5V5a5 5 0 0 1 5-5h90a5 5 0 0 1 5 5v90z"/><path fill="#D4D7DA" d="M95 97H5a5 5 0 0 1-5-5v3a5 5 0 0 0 5 5h90a5 5 0 0 0 5-5v-3a5 5 0 0 1-5 5z"/><path fill="#E64C3C" d="M0 31V5a5 5 0 0 1 5-5h90a5 5 0 0 1 5 5v26H0z"/><path fill="#C03A2B" d="M0 28h100v2.75H0z"/><path fill="#fff" d="M30.344 8.576l2.672 7.855h.032l2.528-7.855h3.536V20H36.76v-8.096h-.032L33.928 20h-1.936l-2.8-8.016h-.032V20h-2.352V8.576h3.536zm11.04 4.368c.234-.353.533-.635.896-.849a3.918 3.918 0 0 1 1.224-.456c.453-.09.909-.136 1.368-.136.416 0 .837.029 1.264.088s.816.174 1.168.344c.352.171.64.408.864.713.224.304.336.706.336 1.208v4.304c0 .373.021.73.064 1.072.042.341.117.597.224.768h-2.304l-.104-.392-.056-.408c-.363.373-.79.635-1.28.784a5.184 5.184 0 0 1-1.504.224 4.06 4.06 0 0 1-1.104-.144 2.55 2.55 0 0 1-.896-.448 2.086 2.086 0 0 1-.6-.769c-.144-.309-.216-.677-.216-1.104 0-.47.083-.856.248-1.16a2.08 2.08 0 0 1 .64-.728c.261-.182.56-.317.896-.408s.675-.163 1.016-.216c.341-.054.677-.097 1.008-.129.331-.031.624-.079.88-.144a1.52 1.52 0 0 0 .608-.28c.149-.122.218-.301.208-.536 0-.245-.04-.439-.12-.584a.885.885 0 0 0-.32-.336 1.25 1.25 0 0 0-.464-.159 3.75 3.75 0 0 0-.568-.04c-.448 0-.8.096-1.056.287-.256.192-.405.513-.448.961h-2.272c.032-.533.165-.975.4-1.327zm4.488 3.208a3.647 3.647 0 0 1-.464.12l-.52.079-.544.08a4.133 4.133 0 0 0-.504.128c-.166.054-.31.126-.432.217s-.221.205-.296.344-.112.315-.112.528c0 .202.037.373.112.512s.176.248.304.328c.128.08.277.136.448.168.17.032.347.048.528.048.448 0 .795-.074 1.04-.224.246-.149.427-.328.544-.536.118-.208.189-.419.216-.633.026-.213.04-.384.04-.512v-.848a1.01 1.01 0 0 1-.36.201zm6.552-4.424v1.536h.032c.106-.256.25-.493.432-.712.182-.218.39-.405.624-.56s.485-.274.752-.36c.267-.085.544-.128.832-.128.149 0 .314.026.496.08v2.112l-.384-.057-.433-.023c-.416 0-.768.069-1.056.208s-.521.328-.696.567c-.176.24-.302.521-.376.841a4.601 4.601 0 0 0-.111 1.04V20h-2.272v-8.272h2.16zm7.727 1.488c-.362 0-.666.083-.912.248a1.988 1.988 0 0 0-.6.64c-.154.262-.264.55-.328.864a4.489 4.489 0 0 0 0 1.849c.064.31.168.589.312.84s.338.456.584.616c.245.159.544.239.896.239.544 0 .963-.151 1.256-.456.294-.304.478-.712.553-1.224h2.191c-.149 1.099-.576 1.936-1.28 2.512-.703.576-1.605.864-2.703.864a4.521 4.521 0 0 1-1.704-.312 3.77 3.77 0 0 1-1.32-.872 3.981 3.981 0 0 1-.848-1.336 4.631 4.631 0 0 1-.305-1.704c0-.641.094-1.235.28-1.784.187-.55.461-1.024.824-1.424.362-.4.805-.712 1.328-.937.522-.224 1.12-.336 1.792-.336.49 0 .962.064 1.416.192.453.128.858.322 1.216.584.357.261.647.587.872.976.224.39.352.851.384 1.384h-2.224c-.148-.949-.709-1.423-1.68-1.423zm7.504-4.64v4.304h.048c.288-.479.656-.829 1.104-1.048a2.97 2.97 0 0 1 1.312-.328c.608 0 1.106.083 1.496.248.39.166.696.395.92.688.225.293.382.65.472 1.071.091.422.137.889.137 1.4V20h-2.272v-4.672c0-.683-.106-1.192-.319-1.528-.214-.336-.593-.504-1.137-.504-.618 0-1.066.185-1.344.552-.277.368-.416.974-.416 1.816V20h-2.272V8.576h2.271z"/><path fill="#35495E" d="M26.77 55.045c.49-1.579 1.226-2.959 2.208-4.14.981-1.181 2.215-2.101 3.703-2.761 1.487-.658 3.197-.988 5.129-.988 1.472 0 2.875.229 4.209.689s2.507 1.12 3.519 1.979c1.012.858 1.817 1.917 2.415 3.174.598 1.258.897 2.668.897 4.232 0 1.625-.261 3.021-.782 4.186a11.004 11.004 0 0 1-2.07 3.105 17.666 17.666 0 0 1-2.921 2.461 249.937 249.937 0 0 1-3.289 2.185 42.728 42.728 0 0 0-3.22 2.323 14.578 14.578 0 0 0-2.76 2.897h15.226V80H25.39c0-1.87.268-3.496.805-4.876a12.964 12.964 0 0 1 2.185-3.703 19.141 19.141 0 0 1 3.243-3.013 143.75 143.75 0 0 1 3.933-2.807c.705-.49 1.457-.988 2.254-1.494a15.002 15.002 0 0 0 2.185-1.68 8.961 8.961 0 0 0 1.656-2.069c.444-.767.667-1.641.667-2.622 0-1.564-.453-2.783-1.357-3.657-.905-.874-2.063-1.312-3.473-1.312-.951 0-1.756.224-2.415.667a4.975 4.975 0 0 0-1.587 1.748 8.053 8.053 0 0 0-.851 2.393 13.66 13.66 0 0 0-.253 2.599h-6.256c-.062-1.84.153-3.549.644-5.129zm23.966 17.503v-5.979L64.721 47.8h5.842v19.366h4.277v5.382h-4.277V80h-6.21v-7.452H50.736zm13.478-16.56l-8.325 11.178h8.464V55.988h-.139z"/></symbol><symbol viewBox="0 0 1024.1280517578125 1024" aria-labelledby="aksi-flat-calendar-solid-title" id="si-flat-calendar-solid"><title id="aksi-flat-calendar-solid-title">icon calendar-solid</title><path d="M0 383.488V275.776c0-45.952 38.208-83.136 85.312-83.136h107.392v-90.432C192.704 81.152 214.272 0 240.896 0h96.384c26.624 0 48.192 81.152 48.192 102.208v90.432h319.232v-90.432C704.704 81.152 726.336 0 752.896 0h96.384c26.624 0 48.192 81.152 48.192 102.208v90.432h41.28c47.168 0 85.376 37.184 85.376 83.136v107.776H0zm1024.064 65.088V940.8c0 45.952-38.208 83.2-85.376 83.2H85.312C38.208 1024 0 986.752 0 940.8V448.576h1024.064z"/></symbol><symbol viewBox="0 0 100.00000762939453 100" aria-labelledby="alsi-flat-chat-title" id="si-flat-chat"><title id="alsi-flat-chat-title">icon chat</title><path fill="#C0392B" fill-rule="evenodd" d="M100 58a6 6 0 0 1-6 6H21a6 6 0 0 1-6-6V6a6 6 0 0 1 6-6h73a6 6 0 0 1 6 6v52z" clip-rule="evenodd"/><path fill="#E74C3C" fill-rule="evenodd" d="M85 73c0 3.223-2.74 6-6 6H66c-1.113 0-2 .754-2 2v18c0 .738-.253 1-.917 1-.232 0-.471-.154-.865-.457L38.251 81c-3-2-6.129-2.006-6.129-2.006l-26.22-.002C2.642 78.992 0 76.379 0 73.156V22.031C0 18.81 2.896 15.984 6 16h73c3.562 0 6 2.778 6 6v51z" clip-rule="evenodd"/><path fill="#fff" d="M58.5 40.072a13.15 13.15 0 0 1-3.771 1.035 6.601 6.601 0 0 0 2.887-3.633 13.22 13.22 0 0 1-4.168 1.594 6.566 6.566 0 0 0-11.357 4.491c0 .512.058 1.016.17 1.497a18.65 18.65 0 0 1-13.532-6.859 6.535 6.535 0 0 0-.889 3.298 6.559 6.559 0 0 0 2.921 5.465 6.524 6.524 0 0 1-2.974-.822l-.001.084a6.571 6.571 0 0 0 5.267 6.438 6.617 6.617 0 0 1-2.964.112 6.567 6.567 0 0 0 6.133 4.558 13.167 13.167 0 0 1-9.72 2.718A18.568 18.568 0 0 0 36.563 63c12.076 0 18.679-10.004 18.679-18.68 0-.284-.006-.568-.018-.85a13.33 13.33 0 0 0 3.276-3.398z"/></symbol><symbol viewBox="0 0 1024.9599609375 773.2479248046875" aria-labelledby="amsi-flat-check-title" id="si-flat-check"><title id="amsi-flat-check-title">icon check</title><path d="M921.985 12.544C909.632 0 889.216 0 876.865 12.544L400.705 487.04c-12.48 12.544-32.833 12.544-45.249 0l-208.64-212.736c-6.144-6.208-14.272-9.408-22.336-9.472-8.256 0-16.576 3.008-22.848 9.472l-92.16 83.008C3.328 363.584 0 371.456 0 379.648c0 8.32 3.328 17.024 9.472 23.232L219.84 623.872c12.416 12.48 32.832 33.024 45.248 45.632l90.432 91.264c12.416 12.48 32.768 12.48 45.248 0L1012.48 149.44c12.48-12.48 12.48-33.088 0-45.632l-90.496-91.264z"/></symbol><symbol viewBox="0 0 1024 1024" aria-labelledby="ansi-flat-check-circle-title" id="si-flat-check-circle"><title id="ansi-flat-check-circle-title">icon check-circle</title><path d="M512 0C229.248 0 0 229.184 0 511.936 0 794.752 229.248 1024 512 1024s512-229.248 512-512.064C1024 229.184 794.752 0 512 0zm330.88 407.872L475.584 775.104c-7.488 7.488-19.712 7.488-27.136 0l-54.271-54.784c-7.424-7.552-19.712-19.904-27.136-27.392l-126.336-132.8c-3.712-3.712-5.696-8.96-5.696-13.888 0-4.992 1.984-9.728 5.696-13.504l55.36-49.92c3.776-3.84 8.768-5.632 13.696-5.632a19.57 19.57 0 0 1 13.44 5.632l125.248 127.872a18.97 18.97 0 0 0 27.136 0l285.888-285.12c7.424-7.488 19.712-7.488 27.136 0l54.336 54.912c7.424 7.488 7.424 19.84-.064 27.392z"/></symbol><symbol viewBox="0 0 1024 1024" aria-labelledby="aosi-flat-checkbox-checked-title" id="si-flat-checkbox-checked"><title id="aosi-flat-checkbox-checked-title">icon checkbox-checked</title><path d="M768 0H256C112.64 0 0 112.64 0 256v512c0 143.36 112.64 256 256 256h512c143.36 0 256-112.64 256-256V256C1024 112.64 911.36 0 768 0zm76.8 409.6L476.16 778.24c-5.12 5.12-20.48 5.12-25.6 0l-56.32-56.32-25.6-25.6-128-133.12c-5.12-5.12-5.12-10.24-5.12-15.36s0-10.24 5.12-15.36l56.32-51.2c5.12 0 10.24-5.12 10.24-5.12 5.12 0 10.24 0 15.36 5.12l122.88 128c5.12 5.12 20.48 5.12 25.6 0l286.72-286.72c5.12-5.12 20.48-5.12 25.6 0l56.32 56.32c10.24 10.24 10.24 20.48 5.12 30.72z"/></symbol><symbol viewBox="0 0 1024 1024" aria-labelledby="apsi-flat-checkbox-unchecked-title" id="si-flat-checkbox-unchecked"><title id="apsi-flat-checkbox-unchecked-title">icon checkbox-unchecked</title><path d="M256 0h512c143.36 0 256 112.64 256 256v512c0 143.36-112.64 256-256 256H256C112.64 1024 0 911.36 0 768V256C0 112.64 112.64 0 256 0z"/></symbol><symbol viewBox="0 0 1080.19189453125 1080.320068359375" aria-labelledby="aqsi-flat-clip-title" id="si-flat-clip"><title id="aqsi-flat-clip-title">icon clip</title><path d="M967.808 112.448C855.36 0 673.024 0 560.513 112.512l-448 448C0 673.024 0 855.36 112.448 967.808s294.784 112.512 407.296 0l94.848-92.16c-51.008-1.152-97.536-17.728-136.96-44.672l-48.448 46.4c-62.528 62.528-163.84 62.528-226.304 0-62.464-62.464-62.464-163.84.064-226.304l448-448c62.528-62.528 163.84-62.528 226.24 0 62.528 62.528 62.592 163.776.064 226.24L654.016 654.08c-18.752 18.752-49.152 18.752-67.904 0s-18.752-49.152 0-67.904L754.688 416c12.48-12.48 12.544-32.768 0-45.248l-45.248-45.248c-12.48-12.48-32.768-12.48-45.248 0L495.616 495.68c-68.736 68.736-68.736 180.16 0 248.896s180.16 68.736 248.896 0l223.232-224.832c112.448-112.448 112.448-294.848.064-407.296z"/></symbol><symbol viewBox="0 0 100.00001525878906 100.00000762939453" aria-labelledby="arsi-flat-clipboard-title" id="si-flat-clipboard"><title id="arsi-flat-clipboard-title">icon clipboard</title><path fill="#27AE60" d="M100 94a6 6 0 0 1-6 6H6a6 6 0 0 1-6-6V16a6 6 0 0 1 6-6h88a6 6 0 0 1 6 6v78z"/><path fill="#fff" fill-rule="evenodd" d="M82 87a2 2 0 0 1-2 2H20a2 2 0 0 1-2-2V18a2 2 0 0 1 2-2h60a2 2 0 0 1 2 2v69z" clip-rule="evenodd"/><path fill="#BDC3C7" fill-rule="evenodd" d="M72 20H28a3 3 0 0 1-3-3v-7a3 3 0 0 1 3-3h15a7 7 0 1 1 14 0h15a3 3 0 0 1 3 3v7a3 3 0 0 1-3 3zM50 4a3 3 0 1 0 0 6 3 3 0 0 0 0-6z" clip-rule="evenodd"/><path fill="#A1A6A9" fill-rule="evenodd" d="M72 20H28a3 3 0 0 1-3-3v-2a3 3 0 0 0 3 3h44a3 3 0 0 0 3-3v2a3 3 0 0 1-3 3z" clip-rule="evenodd"/><path fill-rule="evenodd" d="M94 97H6a6 6 0 0 1-6-6v3a6 6 0 0 0 6 6h88a6 6 0 0 0 6-6v-3a6 6 0 0 1-6 6z" opacity=".15" clip-rule="evenodd"/><path fill="#BDC3C7" fill-rule="evenodd" d="M41 40.999v3h31v-3H41zM41 55h31v-3.001H41V55zm0 10.998h31v-2.999H41v2.999zm0 11.001h31v-3H41v3zm-13-31h7v-7h-7v7zm0 11h7v-7h-7v7zm0 11h7v-7h-7v7zM28 79h7v-7.001h-7V79z" clip-rule="evenodd"/><path fill="#27AE60" fill-rule="evenodd" d="M41 29v3.001h31V29H41zm-5.073-1.214l-.708-.713a.25.25 0 0 0-.354 0l-3.728 3.703a.248.248 0 0 1-.354 0l-1.633-1.66a.25.25 0 0 0-.354 0l-.722.648a.248.248 0 0 0-.074.175l.011.054H28v.998h.011l.063.127 1.647 1.725.354.355.708.713a.25.25 0 0 0 .354 0l4.79-4.771.067-.144H36v-.998h-.006a.25.25 0 0 0-.067-.212z" clip-rule="evenodd"/><path fill="#A1A6A9" fill-rule="evenodd" d="M50 4a2.99 2.99 0 0 1 2.816 2c.112-.313.184-.646.184-.999a3 3 0 0 0-6.001 0c0 .353.072.686.184 1A2.991 2.991 0 0 1 50 4z" clip-rule="evenodd"/></symbol><symbol viewBox="0 0 100 100" aria-labelledby="assi-flat-clocks-title" id="si-flat-clocks"><title id="assi-flat-clocks-title">icon clocks</title><g transform="translate(-.001)"><circle cx="50.001" cy="50" r="50" fill="#223447"/><path fill="#fff" d="M50 10c22.093 0 40 17.909 40 40S72.094 90 50 90c-22.091 0-40-17.909-40-40s17.91-40 40-40z"/><path fill="#DAD9D9" d="M50 10.015c-11.806 0-22.413 5.119-29.733 13.254C27.352 16.896 36.723 13.015 47 13.015c22.085 0 39.986 17.902 39.986 39.985 0 10.277-3.881 19.646-10.254 26.729C84.871 72.41 89.988 61.805 89.988 50c0-22.083-17.902-39.985-39.988-39.985z"/><path fill="#223447" d="M73 46a4 4 0 0 1 0 8H54a4 4 0 0 1 0-8h19z"/><path fill="#223447" d="M28.775 28.781c1.173-1.17 2.987-1.26 4.254.006L50 45.757c1.265 1.265 1.18 3.066.008 4.235-1.173 1.17-2.983 1.273-4.25.008L28.786 33.03c-1.267-1.266-1.184-3.08-.012-4.249z"/><path fill="#223447" d="M46 43.1a7.998 7.998 0 1 1-2.928 10.923A7.997 7.997 0 0 1 46 43.1z"/><path fill="#E44D41" d="M30.201 66.97a2 2 0 0 0 2.828 2.829l18.385-18.385a2 2 0 0 0-2.828-2.828L30.2 66.97z"/></g></symbol><symbol viewBox="0 0 1024 1024" aria-labelledby="atsi-flat-cmd-title" id="si-flat-cmd"><title id="atsi-flat-cmd-title">icon cmd</title><path d="M800 448h-96v128h96c123.712 0 224 100.288 224 224s-100.288 224-224 224-224-100.224-224-224v-96H448v96c0 123.776-100.288 224-224 224S0 923.776 0 800s100.288-224 224-224h96V448h-96C100.288 448 0 347.776 0 224 0 100.288 100.288 0 224 0s224 100.288 224 224v96h128v-96C576 100.288 676.288 0 800 0s224 100.288 224 224c0 123.776-100.288 224-224 224zM320 224c0-52.992-43.008-96-96-96s-96 43.008-96 96c0 53.056 43.008 96 96 96h96v-96zm0 544v-64h-96c-52.992 0-96 43.008-96 96s43.008 96 96 96 96-43.008 96-96v-32zm384 32c0 52.992 43.008 96 96 96s96-43.008 96-96-43.008-96-96-96h-96v96zM576 448H448v128h128V448zm224-320c-52.992 0-96 43.008-96 96v96h96c52.992 0 96-42.944 96-96 0-52.992-43.008-96-96-96z"/></symbol><symbol viewBox="0 0 113.90399169921875 112.8479995727539" aria-labelledby="ausi-flat-compas-title" id="si-flat-compas"><title id="ausi-flat-compas-title">icon compas</title><g transform="translate(0 1.848)"><circle cx="50" cy="61" r="50" fill="#3498DA"/><path fill="#27AE60" fill-rule="evenodd" d="M15.511 97.184C5.961 88.076 0 75.239 0 61.002 0 33.387 22.386 11 50.001 11c14.395 0 27.359 6.091 36.482 15.826L15.511 97.184z" clip-rule="evenodd"/><path fill="#95A5A6" fill-rule="evenodd" d="M84.489 24.816C94.039 33.924 100 46.761 100 60.998c0 13.668-5.484 26.055-14.372 35.08-14.109-14.109-9.155-9.144-36.401-36.304l35.262-34.958z" clip-rule="evenodd"/><path fill="#F1C40F" d="M88.062 93.404L55.488 60.832l32.418-32.417a50.354 50.354 0 0 0-5.053-5.088L12.326 93.854a50.364 50.364 0 0 0 5.089 5.053L49.832 66.49l32.573 32.572a50.207 50.207 0 0 0 5.657-5.658z"/><path fill-rule="evenodd" d="M104.287 36.302c-6.477 6.476-16.362 7.425-23.864 2.892l-4.205 4.205c10.024 13.692 8.892 33.002-3.48 45.374-13.668 13.668-35.829 13.668-49.497 0s-13.668-35.829 0-49.497c12.559-12.56 32.283-13.569 46.006-3.048l4.223-4.223c-4.146-7.426-3.082-16.979 3.23-23.292 7.618-7.617 19.969-7.617 27.588 0 7.616 7.618 7.616 19.97-.001 27.589zm-3.557-24.021c-5.659-5.665-14.835-5.665-20.494 0-5.659 5.664-5.659 14.849 0 20.514 5.659 5.664 14.835 5.664 20.494 0 5.66-5.665 5.66-14.85 0-20.514z" opacity=".05" clip-rule="evenodd"/><path fill="#E74C3C" fill-rule="evenodd" d="M106.287 33.356c-6.477 6.476-16.362 7.425-23.864 2.892l-4.205 4.206c10.024 13.692 8.892 33.001-3.48 45.374-13.668 13.668-35.829 13.668-49.497 0s-13.668-35.829 0-49.497c12.559-12.56 32.283-13.569 46.006-3.048l4.223-4.222c-4.146-7.426-3.082-16.98 3.23-23.292 7.618-7.617 19.969-7.617 27.588 0 7.616 7.617 7.616 19.969-.001 27.587zm-3.557-24.02c-5.659-5.665-14.835-5.665-20.494 0-5.659 5.664-5.659 14.849 0 20.514 5.659 5.664 14.835 5.664 20.494 0 5.66-5.665 5.66-14.85 0-20.514z" clip-rule="evenodd"/><circle cx="50" cy="61" r="27" fill="#fff" fill-rule="evenodd" clip-rule="evenodd"/><circle cx="50.5" cy="43.75" r="2.5" fill="#ECF0F1" fill-rule="evenodd" clip-rule="evenodd"/><circle cx="50.5" cy="78.75" r="2.5" fill="#ECF0F1" fill-rule="evenodd" clip-rule="evenodd"/><circle cx="32.5" cy="60.75" r="2.5" fill="#ECF0F1" fill-rule="evenodd" clip-rule="evenodd"/><circle cx="68.5" cy="60.75" r="2.5" fill="#ECF0F1" fill-rule="evenodd" clip-rule="evenodd"/><path fill-rule="evenodd" d="M50 34c-7.965 0-15.122 3.45-20.064 8.936A26.894 26.894 0 0 1 48 36c14.912 0 27 12.088 27 27a26.896 26.896 0 0 1-6.936 18.064C73.55 76.122 77 68.965 77 61c0-14.912-12.088-27-27-27z" opacity=".15" clip-rule="evenodd"/><path fill="#34495E" d="M65.141 44.533L53.31 64.696 33.312 76.362l31.829-31.829z"/><path fill="#306DAB" d="M33.312 76.362l11.831-20.163 19.998-11.667-31.829 31.83z"/><path fill="#C0392B" fill-rule="evenodd" d="M78.807 24.561l8.021 8.021c1.952 1.954 1.403 4.252-.354 6.01s-4.058 2.307-6.01.354l-8.021-8.021c-1.953-1.952-1.404-4.253.354-6.01 1.758-1.758 4.057-2.307 6.01-.354z" clip-rule="evenodd"/></g></symbol><symbol viewBox="0 0 1024.06396484375 832" aria-labelledby="avsi-flat-credit-card-title" id="si-flat-credit-card"><title id="avsi-flat-credit-card-title">icon credit-card</title><path d="M767.999 640.448c35.392 0 64-28.672 64-64.064s-28.608-64.064-64-64.064-64 28.672-64 64.064 28.608 64.064 64 64.064zM938.751 0H85.376C38.208 0 0 38.208 0 85.376V746.56C0 793.728 38.208 832 85.376 832h853.376c47.104 0 85.312-38.272 85.312-85.44V85.376C1024.064 38.208 985.856 0 938.752 0zm-42.688 703.808H127.999V448.256h768.064v255.552zm0-447.68H127.999V128.064h768.064v128.064z"/></symbol><symbol viewBox="0 0 839.4239501953125 839.8720092773438" aria-labelledby="awsi-flat-cross-title" id="si-flat-cross"><title id="awsi-flat-cross-title">icon cross</title><path d="M826.944 103.104c12.48 12.416 12.48 32.832 0 45.248L578.048 397.376c-12.352 12.416-12.352 32.832 0 45.312l248.768 249.088c12.48 12.416 12.48 32.832 0 45.248l-90.623 90.432c-12.352 12.416-32.768 12.416-45.248 0l-248.64-249.088c-12.416-12.416-32.832-12.416-45.248 0L148.16 827.264c-12.416 12.48-32.832 12.48-45.248 0L12.416 736.64C0 724.288 0 703.872 12.416 691.392l248.96-248.896c12.416-12.416 12.416-32.832 0-45.312L12.608 148.16c-12.416-12.48-12.416-32.832 0-45.248l90.56-90.496C115.584 0 136 0 148.416 12.416l248.64 249.024c12.416 12.48 32.832 12.48 45.248.064l248.832-248.96c12.48-12.352 32.896-12.352 45.248 0l90.56 90.56z"/></symbol><symbol viewBox="0 0 1124.031982421875 1123.968017578125" aria-labelledby="axsi-flat-cross-circle-title" id="si-flat-cross-circle"><title id="axsi-flat-cross-circle-title">icon cross-circle</title><path d="M924.031 200C724.095 0 399.935.064 199.935 200 0 399.872 0 724.096 200 924.032c199.936 199.936 524.096 199.936 724.032.064 200-199.936 200-524.16 0-724.096zM797.183 700.992c27.52 27.52 28.224 71.296 1.728 97.856-26.56 26.56-70.4 25.728-97.792-1.728L562.047 658.112 422.463 797.696c-27.52 27.456-71.296 28.224-97.792 1.728-26.56-26.56-25.728-70.4 1.664-97.856l139.648-139.584-139.648-139.648c-27.456-27.392-28.224-71.168-1.664-97.728 26.496-26.56 70.336-25.792 97.792 1.664l139.584 139.584L701.12 326.784c27.456-27.456 71.232-28.224 97.792-1.664 26.496 26.56 25.728 70.336-1.728 97.792L658.175 561.984l139.008 139.008z"/></symbol><symbol viewBox="0 0 832 1024" aria-labelledby="aysi-flat-document-title" id="si-flat-document"><title id="aysi-flat-document-title">icon document</title><path d="M746.752 0H86.208C38.656 0 0 38.144 0 64v853.376C0 985.792 38.656 1024 86.208 1024h660.544c47.04 0 85.248-38.208 85.248-85.312V85.312C832 38.144 793.792 0 746.752 0zM448 832H192c-35.392 0-64-28.608-64-64s28.608-64 64-64h256c35.392 0 64 28.608 64 64s-28.608 64-64 64zm192-256H192c-35.392 0-64-28.608-64-64s28.608-64 64-64h448c35.392 0 64 28.608 64 64s-28.608 64-64 64zm0-256H192c-35.392 0-64-28.608-64-64s28.608-64 64-64h448c35.392 0 64 28.608 64 64s-28.608 64-64 64z"/></symbol><symbol viewBox="0 0 1024 1024" aria-labelledby="azsi-flat-dribbble-title" id="si-flat-dribbble"><title id="azsi-flat-dribbble-title">icon dribbble</title><path d="M512 0C230.4 0 0 230.4 0 512s230.4 512 512 512 512-230.4 512-512S793.6 0 512 0zm313.6 262.4c51.2 64 83.2 140.8 83.2 230.4-57.6-12.8-115.2-19.2-166.4-19.2-38.4 0-76.8 6.4-115.2 12.8l-25.6-64c83.2-32 160-83.2 224-160zM512 115.2c96 0 179.2 32 249.6 89.6-51.2 64-121.6 108.8-198.4 140.8-51.2-108.8-102.4-179.2-134.4-224 25.6-6.4 51.2-6.4 83.2-6.4zm-179.2 38.4c32 32 83.2 102.4 147.2 217.6C358.4 409.6 236.8 416 160 416h-38.4c32-115.2 108.8-211.2 211.2-262.4zM115.2 512c12.8-6.4 25.6-6.4 44.8-6.4 83.2 0 217.6-6.4 364.8-51.2 6.4 19.2 12.8 32 25.6 51.2C448 537.6 371.2 588.8 320 640c-51.2 51.2-89.6 96-108.8 128-64-70.4-96-160-96-256zM512 908.8c-89.6 0-172.8-32-236.8-76.8 12.8-25.6 44.8-70.4 89.6-115.2 51.2-44.8 115.2-96 204.8-128 32 83.2 57.6 185.6 76.8 294.4-38.4 19.2-83.2 25.6-134.4 25.6zm224-70.4c-19.2-102.4-44.8-185.6-76.8-268.8 25.6-6.4 51.2-6.4 83.2-6.4 44.8 0 102.4 6.4 153.6 19.2-12.8 108.8-70.4 198.4-160 256z"/></symbol><symbol viewBox="0 0 1024 960" aria-labelledby="basi-flat-dropbox-title" id="si-flat-dropbox"><title id="basi-flat-dropbox-title">icon dropbox</title><path d="M512 179.2L723.2 0 1024 198.4 819.2 364.8 512 179.2zm512 352L723.2 729.6 512 556.8l300.8-185.6 211.2 160zM300.8 729.6L0 531.2l204.8-166.4 307.2 192-211.2 172.8zM0 198.4L300.8 0 512 179.2l-300.8 192L0 198.4zm512 396.8l211.2 179.2 89.6-57.6v64L512 960 211.2 780.8v-64l89.6 51.2L512 595.2z"/></symbol><symbol viewBox="0 0 896 1024" aria-labelledby="bbsi-flat-exit-title" id="si-flat-exit"><title id="bbsi-flat-exit-title">icon exit</title><path d="M0 896V704h128v192.128h640V128H128v192H0V128C0 57.344 57.344 0 128 0h640c70.72 0 128 57.344 128 128v768c0 70.72-57.28 128-128 128H128C57.344 1024 0 966.72 0 896zm264.768-624c23.232-22.272 60.864-22.272 84.096 0l209.408 196.8c6.528 6.208 10.496 13.568 13.504 21.184.064.128.064.192.128.32a54.592 54.592 0 0 1 3.648 17.984c.256 2.24.448 4.416.256 6.72-.128 2.688-1.024 5.248-1.664 7.936-2.176 11.264-6.656 22.208-15.872 30.976l-209.408 196.8c-23.232 22.272-60.864 22.272-84.096 0-23.168-22.272-23.168-58.24 0-80.512L384 576H64c-34.112 0-64-32.064-64-64.64C0 478.848 29.888 448 64 448h320l-119.232-95.552c-23.232-22.144-23.232-58.304 0-80.448z"/></symbol><symbol viewBox="0 0 1024.0008544921875 1024.1280517578125" aria-labelledby="bcsi-flat-export-title" id="si-flat-export"><title id="bcsi-flat-export-title">icon export</title><path d="M896 896.128H128v-768h320v-128L89.024.064C39.872.064 0 40 0 89.152v845.952c0 49.152 39.872 89.024 89.024 89.024h845.952c49.152 0 89.024-39.872 89.024-89.024V576.128H896v320zM1024 64c0-14.656-6.08-27.52-14.72-38.272-1.344-1.728-2.048-3.712-3.584-5.312-.192-.128-.256-.384-.384-.576-.384-.32-.448-.832-.832-1.216-4.096-4.096-9.152-6.528-13.952-9.28-2.112-1.216-3.84-3.008-6.08-3.968C975.744 1.6 966.528 0 957.184.256c-.128 0-.256-.064-.384-.064H643.777C606.785.128 576.769 28.736 576.769 64c0 35.2 30.08 63.808 67.136 63.808h161.216l-402.56 403.328c-24.832 24.768-24.832 64.768 0 89.472 24.832 24.768 65.024 24.768 89.792 0l403.968-403.52v163.2c0 37.056 28.608 67.072 63.872 67.072s63.808-30.016 63.808-67.072V67.264c0-.64-.32-1.152-.32-1.728 0-.512.32-1.024.32-1.536z"/></symbol><symbol viewBox="0 0 1025.7919921875 705.85595703125" aria-labelledby="bdsi-flat-eye-title" id="si-flat-eye"><title id="bdsi-flat-eye-title">icon eye</title><path d="M512.96 0C174.016 0 0 352.896 0 352.896s131.328 352.96 512.96 352.96c345.472 0 512.832-351.616 512.832-351.616S857.153 0 512.96 0zm.768 573.504c-123.968 0-213.504-96.576-213.504-220.608 0-124.096 89.536-220.544 213.504-220.544 123.904 0 213.44 96.448 213.44 220.544 0 124.032-89.6 220.608-213.44 220.608zm0-352.96c-70.784.128-128.128 61.44-128.128 132.352 0 70.848 57.344 132.352 128.128 132.352s128.065-61.504 128.065-132.352c0-70.912-57.28-132.544-128.064-132.352z"/></symbol><symbol viewBox="0 0 1024 1024" aria-labelledby="besi-flat-facebook-title" id="si-flat-facebook"><title id="besi-flat-facebook-title">icon facebook</title><path d="M928 1024H96c-51.2 0-96-44.8-96-96V96C0 44.8 44.8 0 96 0h825.6C979.2 0 1024 44.8 1024 96v825.6c0 57.6-44.8 102.4-96 102.4zM748.8 192C627.2 192 576 275.2 576 358.4V448h-64v128h64v384h128V576h128V448H704v-70.4c0-38.4 6.4-57.6 51.2-57.6H832V198.4s-38.4-6.4-83.2-6.4z"/></symbol><symbol viewBox="0 0 1024 896.06396484375" aria-labelledby="bfsi-flat-folder-title" id="si-flat-folder"><title id="bfsi-flat-folder-title">icon folder</title><path d="M896 128s-278.016-.064-320-.064S486.017 0 448 0H128C57.344 0 0 57.28 0 128v640.064c0 126.656 128 128 128 128h768c70.656 0 128-57.344 128-128v-512C1024 185.344 966.656 128 896 128zm.064 640.064H128V128h254.017c40 0 89.984 128 128 128h386.048v512.064z"/></symbol><symbol viewBox="0 0 1049.5999755859375 1043.2000732421875" aria-labelledby="bgsi-flat-foursquare-title" id="si-flat-foursquare"><title id="bgsi-flat-foursquare-title">icon foursquare</title><path d="M998.4 608L608 998.4c-44.8 44.8-121.6 44.8-166.4 0L44.8 608C0 563.2 0 486.4 44.8 441.6L435.2 51.2C486.4 0 563.2 0 608 44.8L787.2 224 524.8 492.8 422.4 390.4c-32-32-83.2-32-108.8 0l-83.2 83.2c-32 32-32 76.8 0 108.8l236.8 236.8c25.6 25.6 57.6 25.6 83.2 19.2 12.8-6.4 19.2-6.4 25.6-19.2L972.8 416l19.2 19.2c57.6 51.2 57.6 128 6.4 172.8zM563.2 748.8c-12.8 12.8-44.8 12.8-44.8 12.8s-32 0-38.4-12.8L300.8 563.2c-12.8-12.8-12.8-38.4 0-57.6l51.2-51.2c12.8-12.8 44.8-12.8 57.6 0L524.8 576l352-352c12.8-12.8 44.8-12.8 57.6 0l51.2 51.2c12.8 12.8 12.8 44.8 0 57.6l-422.4 416z"/></symbol><symbol viewBox="0 0 1023.7440185546875 1024" aria-labelledby="bhsi-flat-gear-title" id="si-flat-gear"><title id="bhsi-flat-gear-title">icon gear</title><path d="M918.143 432.96c-17.344-2.56-35.968-18.304-41.344-35.008l-26.111-63.232c-8.128-15.552-6.272-39.872 4.352-53.952l42.112-56.192c10.624-14.08 9.728-36.352-1.984-49.536l-46.272-46.4c-13.12-11.712-35.52-12.544-49.6-1.984l-56.128 42.24c-14.144 10.496-38.4 12.48-54.016 4.288l-63.168-26.048c-16.832-5.312-32.64-24-35.008-41.472l-9.984-69.504c-2.496-17.408-18.816-33.152-36.352-34.944 0 0-10.816-1.216-32.768-1.216s-32.768 1.216-32.768 1.216c-17.536 1.792-33.92 17.536-36.352 34.944l-9.984 69.504c-2.432 17.472-18.176 36.16-35.008 41.472l-63.168 26.048c-15.552 8.192-39.808 6.208-53.888-4.288l-56.256-42.24c-14.016-10.624-36.416-9.728-49.6 1.984l-46.208 46.272c-11.648 13.184-12.544 35.52-1.984 49.6l42.176 56.192c10.56 14.08 12.48 38.4 4.288 53.952l-26.048 63.296c-5.376 16.704-24 32.448-41.408 35.008l-69.504 9.792c-17.472 2.56-33.216 18.88-35.008 36.416 0 0-1.152 10.88-1.152 32.832 0 21.952 1.152 32.896 1.152 32.896 1.856 17.472 17.6 33.792 35.008 36.288l69.504 9.856c17.408 2.496 36.032 18.304 41.408 35.008l26.112 63.232c8.192 15.616 6.272 39.808-4.288 53.888l-42.176 56.256c-10.56 14.144-13.12 33.28-5.632 42.496 7.424 9.216 28.864 32.064 28.928 32.064 0 .128 7.232 6.72 16 14.656 8.768 8.064 44.48 19.2 58.56 8.64l56.256-42.112c14.08-10.624 38.336-12.544 53.888-4.352l63.04 25.984c16.832 5.44 32.576 24 35.008 41.472l9.984 69.504c2.432 17.344 18.816 33.28 36.288 35.072 0 0 10.88 1.152 32.832 1.152s32.768-1.152 32.768-1.152c17.472-1.792 33.856-17.664 36.352-35.072l9.984-69.504c2.368-17.472 18.112-36.032 35.008-41.472l63.104-25.984c15.616-8.192 39.872-6.272 54.016 4.224l56.256 42.24c14.144 10.56 36.352 9.664 49.6-1.92l46.272-46.336c11.648-13.184 12.48-35.52 1.856-49.6l-42.112-56.256c-10.624-14.08-12.48-38.272-4.352-53.888l26.112-63.232c5.376-16.768 24-32.512 41.344-35.008l69.504-9.856c17.344-2.496 33.152-18.816 35.008-36.288 0 0 1.152-10.88 1.152-32.896 0-21.952-1.152-32.832-1.152-32.832-1.856-17.536-17.6-33.856-35.008-36.416l-69.44-9.792zM511.871 640c-70.656 0-128-57.344-128-128 0-70.72 57.344-128 128-128 70.592 0 128 57.344 128 128s-57.344 128-128 128z"/></symbol><symbol viewBox="0 0 100.00100708007812 100.00000762939453" aria-labelledby="bisi-flat-gift-box-title" id="si-flat-gift-box"><title id="bisi-flat-gift-box-title">icon gift-box</title><path fill="#E74C3C" d="M100 94a6 6 0 0 1-6 6H6a6 6 0 0 1-6-6V6a6 6 0 0 1 6-6h88a6 6 0 0 1 6 6v88z"/><path fill="#C0392B" fill-rule="evenodd" d="M68.494 10.847L50.207 0H74.59l-6.096 10.847zM33.832 0c-.212.913-.548 1.81-1.027 2.662L21.059 23.57.443 11.342 0 11.048V6a6 6 0 0 1 6-6h27.832zM2.658 49.794l1.955-3.479a9.712 9.712 0 0 1 13.488-3.617c4.742 2.814 6.399 8.996 3.696 13.808L10.051 77.414 0 71.453V48.218l2.658 1.576zm19.509 42.704a9.712 9.712 0 0 1 13.487-3.617l3.432 2.033 1.956-3.479a9.71 9.71 0 0 1 13.487-3.617c4.742 2.816 6.4 8.996 3.697 13.809L56.895 100H21.189c-.618-2.459-.346-5.145.978-7.502zm35.321-27.807L36.872 52.463c-4.746-2.815-6.398-8.997-3.697-13.809a9.712 9.712 0 0 1 13.487-3.617l3.432 2.034 1.956-3.479a9.714 9.714 0 0 1 13.488-3.618c4.742 2.817 6.4 8.998 3.697 13.811L57.488 64.691zm26.821-24.95c-4.746-2.815-6.398-8.997-3.697-13.81a9.71 9.71 0 0 1 13.486-3.617l3.432 2.034 1.957-3.479c.158-.283.332-.554.514-.815v28.995l-15.692-9.308zM73.301 93.584c-4.746-2.814-6.398-8.996-3.697-13.809a9.711 9.711 0 0 1 13.488-3.617l3.432 2.035 1.955-3.48A9.7 9.7 0 0 1 100 70.207v23.791c0 .412-.043.814-.121 1.201l-1.771 3.154A5.971 5.971 0 0 1 94 100h-9.885l-10.814-6.416zM7.093 96.541A10.103 10.103 0 0 1 10.58 100H6c-2.843 0-5.211-1.982-5.83-4.637a9.722 9.722 0 0 1 6.923 1.178z" clip-rule="evenodd"/><path fill-rule="evenodd" d="M70.116 47.232c1.354-.733 2.475-1.552 3.399-2.485 5.881-5.944 5.956-15.538.168-21.385a14.568 14.568 0 0 0-10.43-4.345c-4.043 0-7.855 1.603-10.74 4.516-.946.957-1.772 2.124-2.511 3.539-.74-1.42-1.568-2.594-2.518-3.553-2.882-2.912-6.696-4.529-10.738-4.529-3.952 0-7.655 1.514-10.43 4.315-5.789 5.849-5.714 15.385.169 21.33.957.968 2.131 1.791 3.55 2.52-1.311.684-2.494 1.477-3.438 2.401-2.935 2.88-4.551 6.709-4.551 10.782.001 3.983 1.558 7.705 4.384 10.477 2.761 2.709 6.432 4.201 10.336 4.201 3.996 0 7.776-1.551 10.646-4.366 1.004-.985 1.857-2.229 2.586-3.606.728 1.377 1.581 2.621 2.585 3.605 2.871 2.816 6.652 4.367 10.647 4.367 3.903 0 7.575-1.492 10.337-4.201 2.825-2.771 4.382-6.492 4.383-10.477 0-4.072-1.615-7.9-4.551-10.783-.904-.891-2.033-1.658-3.283-2.323zM31.964 28.951c2.689-2.644 7.127-2.566 9.912.171 2.926 2.875 4.149 13.854 4.128 13.877-.022.022-10.941-1.43-13.866-4.305-2.786-2.738-2.863-7.1-.174-9.743zm9.833 35.071c-2.76 2.59-7.155 2.661-9.819.161-2.663-2.5-2.587-6.627.172-9.217 2.897-2.719 13.839-3.975 13.861-3.954.021.021-1.316 10.291-4.214 13.01zm26.253.162c-2.669 2.5-7.073 2.429-9.838-.161-2.904-2.72-4.244-12.989-4.222-13.01.021-.021 10.984 1.235 13.889 3.954 2.764 2.59 2.84 6.717.171 9.217zm-.17-25.398c-2.903 2.898-13.861 4.236-13.883 4.213-.022-.022 1.317-10.963 4.22-13.861 2.764-2.759 7.167-2.835 9.835-.171 2.668 2.663 2.591 7.059-.172 9.819z" opacity=".15" clip-rule="evenodd"/><path fill="#fff" fill-rule="evenodd" d="M100 39H74.981c4.361-6 3.955-14.332-1.298-19.639a14.568 14.568 0 0 0-10.43-4.345c-3.386 0-6.602 1.137-9.254 3.213V0h-8v18.214c-2.651-2.079-5.869-3.226-9.253-3.226-3.952 0-7.655 1.514-10.43 4.314C21.031 24.645 20.651 33 25.102 39H0v8h25.316a14.945 14.945 0 0 0-3.268 9.336c.001 3.983 1.558 7.705 4.384 10.477 2.761 2.709 6.432 4.201 10.336 4.201 3.373 0 6.584-1.116 9.232-3.153V100h8V67.86a15.083 15.083 0 0 0 9.232 3.153c3.903 0 7.575-1.492 10.337-4.201 2.825-2.771 4.382-6.492 4.383-10.477 0-3.427-1.156-6.673-3.268-9.336H100V39zM58.217 25.138c2.764-2.759 7.167-2.835 9.835-.171 2.668 2.664 2.591 7.06-.172 9.819-2.896 2.89-13.799 4.228-13.88 4.213v-.043c.069-.728 1.415-11.02 4.217-13.818zm-26.253-.187c2.689-2.644 7.127-2.566 9.912.171 2.812 2.763 4.05 13.003 4.124 13.82v.057c-.102.011-10.948-1.44-13.862-4.305-2.786-2.738-2.863-7.1-.174-9.743zm9.833 35.071c-2.76 2.59-7.155 2.661-9.819.161-2.663-2.5-2.587-6.627.172-9.217 2.868-2.691 13.614-3.948 13.851-3.954v.108c-.132 1.096-1.476 10.342-4.204 12.902zm26.253.162c-2.669 2.5-7.073 2.429-9.838-.161-2.741-2.568-4.088-11.856-4.212-12.909v-.101c.217.003 11.001 1.26 13.879 3.954 2.764 2.59 2.84 6.717.171 9.217z" clip-rule="evenodd"/><path fill-rule="evenodd" d="M94 100H6c-3.313 0-6-2.687-6-6.001V80a6 6 0 0 0 6 6h88a6 6 0 0 0 6-6v13.999A6.001 6.001 0 0 1 94 100z" opacity=".2" clip-rule="evenodd"/></symbol><symbol viewBox="0 0 1024 832.0001220703125" aria-labelledby="bjsi-flat-github-title" id="si-flat-github"><title id="bjsi-flat-github-title">icon github</title><path d="M0 428.8c0 44.8 6.4 89.6 12.8 128s19.2 70.4 38.4 96c12.8 25.6 32 51.2 57.6 70.4s51.2 38.4 76.8 51.2c25.6 12.8 57.6 25.6 96 32l108.8 19.2S467.2 832 512 832s83.2 0 121.6-6.4 70.4-6.4 108.8-19.2c38.4-6.4 70.4-19.2 96-32s51.2-32 76.8-51.2c25.6-19.2 44.8-44.8 57.6-70.4 12.8-25.6 25.6-57.6 38.4-96 12.8-38.4 12.8-83.2 12.8-128 0-83.2-25.6-153.6-83.2-217.6l6.4-25.6c0-12.8 6.4-25.6 6.4-44.8v-64L934.4 0h-32c-12.8 0-25.6 6.4-44.8 6.4-19.2 6.4-38.4 12.8-64 25.6l-76.8 51.2C665.6 70.4 595.2 64 512 64s-153.6 6.4-198.4 19.2c-32-19.2-57.6-32-83.2-44.8-25.6-12.8-44.8-19.2-64-25.6L128 0H89.6L70.4 76.8c-6.4 25.6-6.4 44.8 0 64 0 19.2 6.4 32 6.4 44.8 0 12.8 6.4 19.2 6.4 25.6C25.6 275.2 0 345.6 0 428.8zm128 128c0-44.8 19.2-89.6 64-134.4 12.8-12.8 25.6-19.2 44.8-25.6 19.2-6.4 38.4-12.8 57.6-12.8h64c19.2 0 44.8 0 76.8 6.4h153.6c25.6 0 51.2-6.4 70.4-6.4h64c19.2 0 44.8 6.4 57.6 12.8 19.2 6.4 32 12.8 44.8 25.6 44.8 38.4 64 83.2 64 134.4 0 25.6-6.4 51.2-12.8 76.8l-25.6 57.6c-12.8 12.8-25.6 25.6-44.8 38.4-19.2 12.8-38.4 19.2-57.6 25.6-19.2 6.4-44.8 12.8-70.4 12.8-32 0-57.6 6.4-76.8 6.4C576 768 544 768 512 768h-89.6c-25.6 0-51.2 0-76.8-6.4-32 0-51.2-6.4-70.4-12.8-19.2-6.4-38.4-12.8-57.6-25.6-25.6-12.8-44.8-19.2-51.2-38.4-12.8-12.8-19.2-32-25.6-57.6C128 608 128 582.4 128 556.8zM640 544c0 51.2 25.6 96 64 96s64-44.8 64-96-25.6-96-64-96c-32 0-64 44.8-64 96zm-384 0c0 51.2 32 96 64 96s64-44.8 64-96-25.6-96-64-96-64 44.8-64 96z"/></symbol><symbol viewBox="0 0 1030.4000244140625 1024" aria-labelledby="bksi-flat-google-plus-title" id="si-flat-google-plus"><title id="bksi-flat-google-plus-title">icon google-plus</title><path d="M0 870.4zm236.8-307.2c89.6 0 153.6-96 140.8-211.2-19.2-121.6-108.8-217.6-198.4-217.6C89.6 128 25.6 224 38.4 345.6c19.2 115.2 108.8 217.6 198.4 217.6zM1024 256v-83.2C1024 76.8 947.2 0 857.6 0H172.8C76.8 0 0 76.8 0 166.4c57.6-51.2 140.8-96 224-96h358.4l-83.2 70.4H390.4c70.4 25.6 115.2 115.2 115.2 204.8 0 76.8-44.8 140.8-102.4 185.6-57.6 44.8-70.4 64-70.4 102.4 0 32 64 89.6 96 108.8 96 64 128 128 128 230.4 0 19.2 0 32-6.4 51.2h307.2c96 0 172.8-76.8 172.8-172.8V320h-192v192h-64V320H576v-64h192V64h64v192h192zM185.6 768h64c-25.6-25.6-51.2-57.6-51.2-96 0-25.6 6.4-44.8 19.2-64h-32C108.8 601.6 44.8 576 0 537.6v275.2c51.2-32 115.2-44.8 185.6-44.8zM6.4 889.6v-19.2c-6.4 6.4-6.4 12.8 0 19.2zm448 64C441.6 896 384 864 313.6 812.8 288 806.4 256 800 224 800c-89.6 0-172.8 32-217.6 89.6C19.2 966.4 89.6 1024 172.8 1024h288v-32c0-12.8 0-25.6-6.4-38.4z"/></symbol><symbol viewBox="0 0 1074.0479736328125 896.4480590820312" aria-labelledby="blsi-flat-heart-title" id="si-flat-heart"><title id="blsi-flat-heart-title">icon heart</title><path d="M973.568 450.176c100.48-102.784 100.352-269.312 0-372.032C922.176 25.664 854.592 0 787.328 1.152c-94.144 1.536-249.344 128.96-249.344 128.96S378.368.896 281.984 1.024C216.256 1.152 150.592 26.88 100.48 78.08.064 180.864 0 347.328 100.48 450.112l436.544 446.336 436.544-446.272z"/></symbol><symbol viewBox="0 0 1023.9990234375 1030.27197265625" aria-labelledby="bmsi-flat-home-title" id="si-flat-home"><title id="bmsi-flat-home-title">icon home</title><path d="M1023.999 939.52c0 50.176-41.6 90.752-93.12 90.752H639.616v-351.68c0-53.056-38.016-96.128-85.056-96.128h-85.12c-46.976 0-85.12 43.072-85.12 96.128v351.68H93.056C41.664 1030.272 0 989.696 0 939.52V460.544c0-23.36 9.344-44.48 24.192-60.544l-.96-1.856L449.151 25.152C483.455 0 539.135 0 573.439 25.152l427.264 372.992-.448 2.368c14.592 16.064 23.744 36.928 23.744 60.032V939.52z"/></symbol><symbol viewBox="0 0 896 1024" aria-labelledby="bnsi-flat-html5-title" id="si-flat-html5"><title id="bnsi-flat-html5-title">icon html5</title><path d="M0 0l64 896 384 128 384-128L896 0H0zm716.8 300.8H288L300.8 416h409.6l-32 352L448 832l-230.4-64-12.8-179.2H320v89.6l128 32 128-32 12.8-147.2H198.4l-32-345.6h563.2l-12.8 115.2z"/></symbol><symbol viewBox="0 0 1024.06396484375 832" aria-labelledby="bosi-flat-image-title" id="si-flat-image"><title id="bosi-flat-image-title">icon image</title><path d="M938.751 832H85.376C38.208 832 0 794.752 0 748.736V83.264C0 37.248 38.208 0 85.376 0h853.376c47.104 0 85.312 37.248 85.312 83.264v665.472c0 46.016-38.208 83.264-85.312 83.264zm-42.688-704H127.999v511.808s64-64.064 128-128.064c64-64.064 128 0 128 0l64 64s118.72-120.768 192-192.128c66.88-66.944 128 0 128 0l128 128.128.064-383.744zM319.999 384c-35.328 0-64-28.672-64-63.936 0-35.392 28.672-64.064 64-64.064s64 28.672 64 64.064c0 35.264-28.672 63.936-64 63.936z"/></symbol><symbol viewBox="0 0 1024 1024" aria-labelledby="bpsi-flat-info-circle-title" id="si-flat-info-circle"><title id="bpsi-flat-info-circle-title">icon info-circle</title><path d="M512 0C229.248 0 0 229.248 0 512c0 282.688 229.248 512 512 512 282.816 0 512-229.248 512-512S794.816 0 512 0zm64.768 764.864c0 37.056-28.992 67.072-64.768 67.072s-64.768-30.016-64.768-67.072V451.776c0-37.056 28.992-67.072 64.768-67.072s64.768 30.016 64.768 67.072v313.088zM512 319.68c-35.776 0-64.768-28.608-64.768-63.872s28.992-63.744 64.768-63.744 64.768 28.544 64.768 63.808S547.776 319.68 512 319.68z"/></symbol><symbol viewBox="0 0 1024 1024" aria-labelledby="bqsi-flat-instagram-title" id="si-flat-instagram"><title id="bqsi-flat-instagram-title">icon instagram</title><path d="M928 0H96C44.8 0 0 44.8 0 96v825.6C0 979.2 44.8 1024 96 1024h825.6c57.6 0 96-44.8 96-96V96C1024 44.8 979.2 0 928 0zM512 313.6c108.8 0 198.4 89.6 198.4 198.4S620.8 710.4 512 710.4 313.6 620.8 313.6 512 403.2 313.6 512 313.6zm384 544c0 19.2-19.2 38.4-38.4 38.4H166.4c-19.2 0-38.4-19.2-38.4-38.4V448h89.6c-6.4 25.6-6.4 51.2-6.4 76.8 0 166.4 128 307.2 300.8 307.2s300.8-140.8 300.8-307.2c0-25.6-6.4-51.2-12.8-76.8h96v409.6zm0-576c0 19.2-19.2 38.4-38.4 38.4H742.4c-19.2 0-38.4-19.2-38.4-38.4V166.4c0-19.2 19.2-38.4 38.4-38.4h115.2c19.2 0 38.4 19.2 38.4 38.4v115.2z"/></symbol><symbol viewBox="0 0 1030.4000244140625 582.4000244140625" aria-labelledby="brsi-flat-lastfm-title" id="si-flat-lastfm"><title id="brsi-flat-lastfm-title">icon lastfm</title><path d="M780.8 582.4c-204.8 0-275.2-89.6-313.6-204.8L428.8 256c-25.6-89.6-64-153.6-166.4-153.6-70.4 0-147.2 51.2-147.2 198.4 0 115.2 57.6 185.6 140.8 185.6 89.6 0 153.6-70.4 153.6-70.4l44.8 102.4s-64 64-198.4 64c-166.4 0-256-96-256-275.2C0 115.2 89.6 6.4 262.4 6.4 416 6.4 499.2 64 544 217.6l38.4 121.6c25.6 89.6 76.8 147.2 198.4 147.2 76.8 0 121.6-19.2 121.6-64 0-32-19.2-57.6-76.8-76.8l-76.8-19.2c-96-25.6-134.4-76.8-134.4-153.6C614.4 44.8 716.8 0 825.6 0c121.6 0 192 44.8 204.8 153.6l-115.2 12.8c-6.4-51.2-38.4-70.4-89.6-70.4s-83.2 25.6-83.2 64 12.8 57.6 64 70.4l76.8 19.2C972.8 275.2 1024 320 1024 416c0 121.6-96 166.4-243.2 166.4z"/></symbol><symbol viewBox="0 0 1080.2548828125 1024" aria-labelledby="bssi-flat-link-title" id="si-flat-link"><title id="bssi-flat-link-title">icon link</title><path d="M967.807 84.352C913.343 29.952 841.023 0 764.159 0c-76.928 0-149.248 29.952-203.648 84.352 0 0-181.696 181.632-192.128 191.936-54.208 54.336-84.096 126.72-84.224 204.096.128 76.8 30.08 148.992 84.352 203.264l23.36 23.424c6.272 6.272 14.528 9.344 22.656 9.344a32.142 32.142 0 0 0 22.656-9.344l45.248-45.248c12.48-12.48 12.48-32.768 0-45.248l-23.424-23.424c-61.376-61.376-62.208-162.048-1.792-224.512l193.856-193.792C681.279 144.64 721.407 128 764.159 128s82.88 16.64 113.152 46.784v.064c62.528 62.592 62.528 163.776 0 226.24l-9.856 9.856c15.424 41.6 24.64 86.208 24.704 133.056 0 8.512-1.216 16.704-1.664 25.024l77.312-77.376c112.448-112.512 112.384-294.912 0-407.296zM688.319 316.864c-6.208-6.272-14.464-9.344-22.592-9.344-8.256 0-16.448 3.136-22.656 9.344l-45.248 45.248c-12.544 12.48-12.544 32.768 0 45.248l23.36 23.424c61.376 61.376 62.272 162.048 1.856 224.512L429.183 849.088C399.039 879.36 358.911 896 316.096 896c-42.688 0-82.816-16.64-113.088-46.784v-.064c-62.528-62.592-62.528-163.776-.064-226.24l9.92-9.856c-15.488-41.6-24.704-86.208-24.704-133.056 0-8.512 1.152-16.704 1.664-25.024l-77.312 77.376C0 644.864.064 827.2 112.512 939.584 166.976 994.048 239.296 1024 316.159 1024s149.184-29.952 203.648-84.352c0 0 181.696-181.632 192.128-191.936 54.208-54.336 84.096-126.72 84.224-204.096-.128-76.8-30.144-148.992-84.352-203.264l-23.488-23.488z"/></symbol><symbol viewBox="0 0 1024 1024" aria-labelledby="btsi-flat-linkedin-title" id="si-flat-linkedin"><title id="btsi-flat-linkedin-title">icon linkedin</title><path d="M928 1024H96c-51.2 0-96-44.8-96-96V96C0 44.8 44.8 0 96 0h825.6C979.2 0 1024 44.8 1024 96v825.6c0 57.6-44.8 102.4-96 102.4zM262.4 192c-44.8 0-76.8 32-76.8 76.8 0 38.4 25.6 76.8 70.4 76.8 44.8 0 70.4-32 70.4-76.8 6.4-44.8-19.2-76.8-64-76.8zm76.8 198.4H192V832h147.2V390.4zm537.6 192c0-134.4-64-204.8-160-204.8-76.8 0-108.8 44.8-128 70.4v-64H435.2v441.6h147.2V588.8c0-12.8 0-25.6 6.4-32 12.8-25.6 32-51.2 76.8-51.2 51.2 0 70.4 38.4 70.4 96V832h147.2V582.4z"/></symbol><symbol viewBox="0 0 1023.8720703125 831.6160278320312" aria-labelledby="busi-flat-list-title" id="si-flat-list"><title id="busi-flat-list-title">icon list</title><path d="M991.874 0H32C14.4 0 0 15.36 0 34.176v124.672c0 18.048 14.4 32.832 32 32.832h959.872c17.6 0 32-14.72 32-32.832V34.176c0-18.816-14.4-34.176-32-34.176zm0 320H32c-17.6 0-32 15.36-32 34.24v124.608c0 18.112 14.4 32.832 32 32.832h959.872c17.6 0 32-14.72 32-32.832V354.176c0-18.816-14.4-34.176-32-34.176zm0 320H32c-17.6 0-32 15.36-32 34.24v124.608c0 17.984 14.4 32.768 32 32.768h959.872c17.6 0 32-14.72 32-32.768V674.24c0-18.88-14.4-34.24-32-34.24z"/></symbol><symbol viewBox="0 0 1024 896" aria-labelledby="bvsi-flat-list-bulleted-title" id="si-flat-list-bulleted"><title id="bvsi-flat-list-bulleted-title">icon list-bulleted</title><path d="M992 64H352c-19.2 0-32 12.8-32 32v64c0 19.2 12.8 32 32 32h640c19.2 0 32-12.8 32-32V96c0-19.2-12.8-32-32-32zm0 320H352c-19.2 0-32 12.8-32 32v64c0 19.2 12.8 32 32 32h640c19.2 0 32-12.8 32-32v-64c0-19.2-12.8-32-32-32zm0 320H352c-19.2 0-32 12.8-32 32v64c0 19.2 12.8 32 32 32h640c19.2 0 32-12.8 32-32v-64c0-19.2-12.8-32-32-32zM256 128c0 70.692-57.308 128-128 128C57.308 256 0 198.692 0 128 0 57.308 57.308 0 128 0c70.692 0 128 57.308 128 128zm0 320c0 70.692-57.308 128-128 128C57.308 576 0 518.692 0 448c0-70.692 57.308-128 128-128 70.692 0 128 57.308 128 128zm0 320c0 70.692-57.308 128-128 128C57.308 896 0 838.692 0 768c0-70.692 57.308-128 128-128 70.692 0 128 57.308 128 128z"/></symbol><symbol viewBox="0 0 1024 896" aria-labelledby="bwsi-flat-list-columned-title" id="si-flat-list-columned"><title id="bwsi-flat-list-columned-title">icon list-columned</title><path d="M992 0H32C12.8 0 0 12.8 0 32v64c0 19.2 12.8 32 32 32h960c19.2 0 32-12.8 32-32V32c0-19.2-12.8-32-32-32zm0 256H32c-19.2 0-32 12.8-32 32v64c0 19.2 12.8 32 32 32h960c19.2 0 32-12.8 32-32v-64c0-19.2-12.8-32-32-32zm0 256H32c-19.2 0-32 12.8-32 32v64c0 19.2 12.8 32 32 32h960c19.2 0 32-12.8 32-32v-64c0-19.2-12.8-32-32-32zm0 256H32c-19.2 0-32 12.8-32 32v64c0 19.2 12.8 32 32 32h960c19.2 0 32-12.8 32-32v-64c0-19.2-12.8-32-32-32z"/></symbol><symbol viewBox="0 0 1024 1024" aria-labelledby="bxsi-flat-list-large-thumbnails-title" id="si-flat-list-large-thumbnails"><title id="bxsi-flat-list-large-thumbnails-title">icon list-large-thumbnails</title><path d="M416 0H32C12.8 0 0 12.8 0 32v384c0 19.2 12.8 32 32 32h384c19.2 0 32-12.8 32-32V32c0-19.2-12.8-32-32-32zm576 0H608c-19.2 0-32 12.8-32 32v384c0 19.2 12.8 32 32 32h384c19.2 0 32-12.8 32-32V32c0-19.2-12.8-32-32-32zM416 576H32c-19.2 0-32 12.8-32 32v384c0 19.2 12.8 32 32 32h384c19.2 0 32-12.8 32-32V608c0-19.2-12.8-32-32-32zm576 0H608c-19.2 0-32 12.8-32 32v384c0 19.2 12.8 32 32 32h384c19.2 0 32-12.8 32-32V608c0-19.2-12.8-32-32-32z"/></symbol><symbol viewBox="0 0 1024 896" aria-labelledby="bysi-flat-list-numbered-title" id="si-flat-list-numbered"><title id="bysi-flat-list-numbered-title">icon list-numbered</title><path d="M992 0H224c-19.2 0-32 12.8-32 32v64c0 19.2 12.8 32 32 32h768c19.2 0 32-12.8 32-32V32c0-19.2-12.8-32-32-32zm0 256H224c-19.2 0-32 12.8-32 32v64c0 19.2 12.8 32 32 32h768c19.2 0 32-12.8 32-32v-64c0-19.2-12.8-32-32-32zm0 256H224c-19.2 0-32 12.8-32 32v64c0 19.2 12.8 32 32 32h768c19.2 0 32-12.8 32-32v-64c0-19.2-12.8-32-32-32zm0 256H224c-19.2 0-32 12.8-32 32v64c0 19.2 12.8 32 32 32h768c19.2 0 32-12.8 32-32v-64c0-19.2-12.8-32-32-32zM96 0H32C12.8 0 0 12.8 0 32v64c0 19.2 12.8 32 32 32h64c19.2 0 32-12.8 32-32V32c0-19.2-12.8-32-32-32zm0 256H32c-19.2 0-32 12.8-32 32v64c0 19.2 12.8 32 32 32h64c19.2 0 32-12.8 32-32v-64c0-19.2-12.8-32-32-32zm0 256H32c-19.2 0-32 12.8-32 32v64c0 19.2 12.8 32 32 32h64c19.2 0 32-12.8 32-32v-64c0-19.2-12.8-32-32-32zm0 256H32c-19.2 0-32 12.8-32 32v64c0 19.2 12.8 32 32 32h64c19.2 0 32-12.8 32-32v-64c0-19.2-12.8-32-32-32z"/></symbol><symbol viewBox="0 0 896 896" aria-labelledby="bzsi-flat-list-small-thumbnails-title" id="si-flat-list-small-thumbnails"><title id="bzsi-flat-list-small-thumbnails-title">icon list-small-thumbnails</title><path d="M224 0H32C12.8 0 0 12.8 0 32v192c0 19.2 12.8 32 32 32h192c19.2 0 32-12.8 32-32V32c0-19.2-12.8-32-32-32zm0 320H32c-19.2 0-32 12.8-32 32v192c0 19.2 12.8 32 32 32h192c19.2 0 32-12.8 32-32V352c0-19.2-12.8-32-32-32zM544 0H352c-19.2 0-32 12.8-32 32v192c0 19.2 12.8 32 32 32h192c19.2 0 32-12.8 32-32V32c0-19.2-12.8-32-32-32zm0 320H352c-19.2 0-32 12.8-32 32v192c0 19.2 12.8 32 32 32h192c19.2 0 32-12.8 32-32V352c0-19.2-12.8-32-32-32zM864 0H672c-19.2 0-32 12.8-32 32v192c0 19.2 12.8 32 32 32h192c19.2 0 32-12.8 32-32V32c0-19.2-12.8-32-32-32zm0 320H672c-19.2 0-32 12.8-32 32v192c0 19.2 12.8 32 32 32h192c19.2 0 32-12.8 32-32V352c0-19.2-12.8-32-32-32zM224 640H32c-19.2 0-32 12.8-32 32v192c0 19.2 12.8 32 32 32h192c19.2 0 32-12.8 32-32V672c0-19.2-12.8-32-32-32zm320 0H352c-19.2 0-32 12.8-32 32v192c0 19.2 12.8 32 32 32h192c19.2 0 32-12.8 32-32V672c0-19.2-12.8-32-32-32zm320 0H672c-19.2 0-32 12.8-32 32v192c0 19.2 12.8 32 32 32h192c19.2 0 32-12.8 32-32V672c0-19.2-12.8-32-32-32z"/></symbol><symbol viewBox="0 0 1024 896" aria-labelledby="casi-flat-list-thumbnailed-title" id="si-flat-list-thumbnailed"><title id="casi-flat-list-thumbnailed-title">icon list-thumbnailed</title><path d="M352 0H32C12.8 0 0 12.8 0 32v320c0 19.2 12.8 32 32 32h320c19.2 0 32-12.8 32-32V32c0-19.2-12.8-32-32-32zm0 512H32c-19.2 0-32 12.8-32 32v320c0 19.2 12.8 32 32 32h320c19.2 0 32-12.8 32-32V544c0-19.2-12.8-32-32-32zM992 0H544c-19.2 0-32 12.8-32 32v64c0 19.2 12.8 32 32 32h448c19.2 0 32-12.8 32-32V32c0-19.2-12.8-32-32-32zm0 256H544c-19.2 0-32 12.8-32 32v64c0 19.2 12.8 32 32 32h448c19.2 0 32-12.8 32-32v-64c0-19.2-12.8-32-32-32zm0 256H544c-19.2 0-32 12.8-32 32v64c0 19.2 12.8 32 32 32h448c19.2 0 32-12.8 32-32v-64c0-19.2-12.8-32-32-32zm0 256H544c-19.2 0-32 12.8-32 32v64c0 19.2 12.8 32 32 32h448c19.2 0 32-12.8 32-32v-64c0-19.2-12.8-32-32-32z"/></symbol><symbol viewBox="0 0 704.2570190429688 1024.7679443359375" aria-labelledby="cbsi-flat-location-title" id="si-flat-location"><title id="cbsi-flat-location-title">icon location</title><path d="M352.128 528.32c-87.872 0-159.104-73.728-159.104-164.8 0-91.136 71.232-164.864 159.104-164.864s159.104 73.728 159.104 164.864c0 91.008-71.232 164.8-159.104 164.8zm0-528.32C157.632 0 0 163.328 0 364.8c0 190.272 159.488 435.776 265.984 555.264 39.808 44.544 86.144 104.704 86.144 104.704s49.792-60.352 92.48-106.304c106.369-114.496 259.649-344.448 259.649-553.6C704.257 163.328 546.625 0 352.129 0z"/></symbol><symbol viewBox="0 0 896 1024" aria-labelledby="ccsi-flat-lock-title" id="si-flat-lock"><title id="ccsi-flat-lock-title">icon lock</title><path d="M832 1024H64c-35.328 0-64-28.608-64-64.064V512c0-35.328 28.672-64 64-64h64V320C128 143.296 271.232 0 448 0s320 143.296 320 320v128h64c35.392 0 64 28.672 64 64v447.936c0 35.456-28.608 64.064-64 64.064zM640 320c0-105.984-85.952-192-192-192s-192 86.016-192 192v128h384V320z"/></symbol><symbol viewBox="0 0 100 100" aria-labelledby="cdsi-flat-loop-title" id="si-flat-loop"><title id="cdsi-flat-loop-title">icon loop</title><circle cx="50" cy="50" r="50" fill="#E74C3C"/><path fill="none" stroke="#F0C419" stroke-width="8" stroke-miterlimit="10" stroke-dashoffset="43" d="M12.5 50.5c0 10 7 17 17 17 17 0 26-34 43-34 10 0 18 7 18 17s-8 17-18 17c-17 0-26-34-43-34-10 0-17 7-17 17z" stroke-linecap="square" stroke-dasharray="216,9.999999974752427e-7"/><path d="M45.938 50.5l5.047 6.516s-2.141 2.797-3.5 4.25c0 0-3.621-3.552-5.746-5.583 1.308-1.402 4.199-5.183 4.199-5.183z" opacity=".15"/></symbol><symbol viewBox="0 0 96.01765441894531 100.03099822998047" aria-labelledby="cesi-flat-mail-title" id="si-flat-mail"><title id="cesi-flat-mail-title">icon mail</title><path fill="#D35400" fill-rule="evenodd" d="M94.015 39.019H2.006c-1.104 0-2 .897-2 2.005v57.001c0 1.108.896 2.006 2 2.006h92.009a2.003 2.003 0 0 0 2.001-2.006V41.024a2.003 2.003 0 0 0-2.001-2.005z" clip-rule="evenodd"/><path fill="#ECF0F1" fill-rule="evenodd" d="M3 16.005v82.004c0 1.117.896 2.022 2 2.022h86.001A2.01 2.01 0 0 0 93 98.01V2.021A2.01 2.01 0 0 0 91.001 0L19.004.008 3 16.005z" clip-rule="evenodd"/><path d="M38 72.031l54.997-33 .003 6.98-43.972 26.02H38z" opacity=".1"/><path fill="#F39C12" fill-rule="evenodd" d="M0 98.022c0 1.11.895 2.009 2 2.009h92c1.104 0 2-.899 2-2.009V42.031l-48 29-48-29v55.991z" clip-rule="evenodd"/><path fill="#F1C40F" fill-rule="evenodd" d="M3 16.005l16.001.01V.031L3 16.005z" clip-rule="evenodd"/><path fill="#F1C40F" d="M0 42.031l.052 54 47.948-25-48-29z"/><path fill="#E57E22" d="M96 42.031l-48 29 48 25z"/><path fill-rule="evenodd" d="M96 98.022v-1.991l-48-25 47.328 28.482c.409-.367.672-.896.672-1.491zm-96 0v-1.991l48-25L.672 99.513A1.998 1.998 0 0 1 0 98.022z" opacity=".3" clip-rule="evenodd"/></symbol><symbol viewBox="0 0 100 100" aria-labelledby="cfsi-flat-map-title" id="si-flat-map"><title id="cfsi-flat-map-title">icon map</title><path fill="#F2F2F2" fill-rule="evenodd" d="M75 87.425L50 100 25 87.425 0 100V12.576L25 0l25 12.576L75 0l25 12.576V100L75 87.425z" clip-rule="evenodd"/><path fill="none" stroke="#6BC9F2" stroke-width="4" stroke-miterlimit="10" d="M15 60V32l9.988-5.006L50 41l25-12 12 4" clip-rule="evenodd"/><path fill="none" stroke="#E64C3C" stroke-width="4" stroke-miterlimit="10" d="M15 61v-8l10-5 25 13 25-11 12-5V32" clip-rule="evenodd"/><path fill="none" stroke="#F29C1F" stroke-width="4" stroke-miterlimit="10" d="M15 61l35 18 17-8V43l20-10" clip-rule="evenodd"/><path fill="#fff" fill-rule="evenodd" d="M87 36.5c-1.93 0-3.5-1.57-3.5-3.5s1.57-3.5 3.5-3.5 3.5 1.57 3.5 3.5-1.57 3.5-3.5 3.5z" clip-rule="evenodd"/><path fill="#2980BA" d="M87 31c1.103 0 2 .897 2 2s-.897 2-2 2-2-.897-2-2 .897-2 2-2m0-3a5 5 0 1 0 .001 10.001A5 5 0 0 0 87 28z"/><path fill="#fff" fill-rule="evenodd" d="M15 64.5c-1.93 0-3.5-1.57-3.5-3.5s1.57-3.5 3.5-3.5 3.5 1.57 3.5 3.5-1.57 3.5-3.5 3.5z" clip-rule="evenodd"/><path fill="#2980BA" d="M15 59c1.103 0 2 .897 2 2s-.897 2-2 2-2-.897-2-2 .897-2 2-2m0-3a5 5 0 1 0 .001 10.001A5 5 0 0 0 15 56z"/><path fill="#2C3E50" fill-rule="evenodd" d="M0 100l25-12.576V0L0 12.576V100zm50-87.424V100l25-12.576V0L50 12.576z" opacity=".15" clip-rule="evenodd"/></symbol><symbol viewBox="0 0 657.0869750976562 1024" aria-labelledby="cgsi-flat-mic-title" id="si-flat-mic"><title id="cgsi-flat-mic-title">icon mic</title><path d="M618.495 553.6c-28.672-17.664-65.408-7.232-81.92 23.36-.576 1.024-.576 2.24-1.152 3.264l-1.472-.96C491.968 653.696 416.255 704 328.768 704s-163.136-50.304-205.184-124.736l-1.408.832c-.704-1.6-.704-3.456-1.6-5.12-16.576-30.528-53.312-41.024-82.048-23.36S0 608.448 16.576 638.976c1.28 2.24 3.264 3.648 4.672 5.696l-1.088.704c53.12 94.208 143.104 161.6 248.576 180.608V896H148.671c-33.152 0-60.032 28.672-60.032 64 0 35.392 26.88 64 60.032 64h360.128c33.216 0 60.032-28.608 60.032-64 0-35.328-26.816-64-60.032-64h-120v-69.952c105.472-19.008 195.456-86.528 248.576-180.672l-.384-.256c1.088-1.472 2.624-2.432 3.456-4.096 16.64-30.656 6.784-69.76-21.952-87.424zM328.768 640c99.456 0 180.032-85.952 180.032-192V192c0-106.048-80.64-192-180.032-192-99.456 0-180.096 85.952-180.096 192v256c0 106.048 80.64 192 180.096 192z"/></symbol><symbol viewBox="0 0 575.9999389648438 896" aria-labelledby="chsi-flat-mute-title" id="si-flat-mute"><title id="chsi-flat-mute-title">icon mute</title><path d="M492.8 0c-51.2 0-64 25.6-64 25.6S249.6 243.2 166.4 243.2H83.2C38.4 243.2 0 281.6 0 326.4v243.2c0 44.8 38.4 83.2 83.2 83.2h83.2c83.2 0 268.8 217.6 268.8 217.6 12.8 12.8 32 25.6 57.6 25.6 44.8 0 83.2-38.4 83.2-83.2V83.2C576 38.4 537.6 0 492.8 0z"/></symbol><symbol viewBox="0 0 1023.9990234375 1024" aria-labelledby="cisi-flat-new-title" id="si-flat-new"><title id="cisi-flat-new-title">icon new</title><path d="M960.511 249.728c-21.76-35.968-48.576-71.168-81.344-103.808-33.216-32.896-68.992-59.968-105.6-81.6L837.887 0s93.056 0 139.648 46.528c46.464 46.592 46.464 139.648 46.464 139.648l-63.488 63.552zM387.199 831.232H192.767V636.8l23.36-23.36c39.552 18.56 78.784 44.928 114.176 80.32 35.392 35.328 61.696 74.688 80.32 114.176l-23.424 23.296zm519.552-527.744l-440 448.32c-22.72-37.632-50.688-74.304-84.992-108.352-34.688-34.432-72.064-62.72-110.336-85.312l449.153-440.896c37.824 17.856 75.456 42.944 109.312 76.864s59.008 71.424 76.864 109.376zM127.999 128v767.936h768V576l128-127.936v482.88c0 51.392-41.6 93.056-93.056 93.056H93.056C41.664 1024 0 982.336 0 930.944V93.12C0 41.664 41.664 0 93.056 0H576L448 128H128z"/></symbol><symbol viewBox="0 0 100.00000762939453 99" aria-labelledby="cjsi-flat-paper-bag-title" id="si-flat-paper-bag"><title id="cjsi-flat-paper-bag-title">icon paper-bag</title><path fill="#F39C12" d="M100 93a6 6 0 0 1-6 6H6a6 6 0 0 1-6-6V20h100v73z"/><path fill="#E57D22" d="M4 0h92v20H4z"/><path fill="#F39C12" d="M96 20h-8V8l8-8zM4 20h8V8L4 0z"/><path fill="#F1C40F" d="M12 8v12H0zm76 0v12h12z"/><circle cx="26" cy="40" r="5" opacity=".3"/><circle cx="74" cy="40" r="5" opacity=".3"/><path fill="none" stroke="#fff" stroke-width="6" stroke-miterlimit="10" d="M74 40c0 13.254-10.745 24-24 24S26 53.255 26 40" clip-rule="evenodd" stroke-linecap="round"/></symbol><symbol viewBox="0 0 1068.7998046875 1075.199951171875" aria-labelledby="cksi-flat-path-title" id="si-flat-path"><title id="cksi-flat-path-title">icon path</title><path d="M262.4 89.6c-134.4 51.2-224 147.2-249.6 288-12.8 83.2-6.4 172.8 32 249.6 6.4 19.2 19.2 32 32 51.2L96 697.6c12.8-6.4 25.6-6.4 32-12.8 44.8-25.6 76.8-64 115.2-96-128-153.6 6.4-332.8 172.8-377.6 160-38.4 371.2 25.6 416 192 19.2 64 6.4 140.8-44.8 192-25.6 25.6-64 44.8-102.4 51.2-25.6 6.4-44.8 6.4-70.4 0-12.8-6.4-25.6-6.4-38.4-6.4-19.2-6.4-38.4-6.4-38.4-25.6V345.6c0-19.2 0-12.8-12.8-19.2-12.8 0-25.6 0-38.4-6.4-38.4 0-83.2 0-121.6 6.4-12.8 0-19.2 0-19.2 19.2v140.8l6.4 294.4c0 32 0 102.4-32 115.2-38.4 19.2-70.4-19.2-108.8-25.6 6.4 51.2-25.6 147.2 32 172.8 51.2 25.6 115.2 32 172.8 12.8 115.2-38.4 153.6-172.8 140.8-275.2C736 832 934.4 742.4 1011.2 582.4c57.6-115.2 32-262.4-51.2-358.4C793.6 38.4 480 0 262.4 89.6z"/></symbol><symbol viewBox="0 0 960 1024" aria-labelledby="clsi-flat-pause-title" id="si-flat-pause"><title id="clsi-flat-pause-title">icon pause</title><path d="M256 0H64C28.672 0 0 28.608 0 64v896c0 35.392 28.672 64 64 64h192c35.328 0 64-28.608 64-64V64c0-35.392-28.672-64-64-64zm640 0H704c-35.392 0-64 28.608-64 64v896c0 35.392 28.608 64 64 64h192c35.392 0 64-28.608 64-64V64c0-35.392-28.608-64-64-64z"/></symbol><symbol viewBox="0 0 1049.60009765625 1024" aria-labelledby="cmsi-flat-paypal-title" id="si-flat-paypal"><title id="cmsi-flat-paypal-title">icon paypal</title><path d="M646.4 723.2h-192l-64 300.8H128l25.6-108.8H0L198.4 0h448c134.4 0 288 96 236.8 313.6-38.4 192-192 300.8-371.2 300.8H326.4l-64 300.8h-44.8L204.8 960h134.4l64-300.8h243.2c76.8 0 147.2-25.6 198.4-64l32-25.6c51.2-51.2 83.2-115.2 102.4-192 12.8-76.8 6.4-140.8-32-185.6-19.2-19.2-38.4-38.4-64-51.2 96 38.4 166.4 134.4 134.4 288-38.4 179.2-192 294.4-371.2 294.4zm-153.6-288c70.4 0 134.4-57.6 153.6-128 19.2-70.4-25.6-128-89.6-128h-128l-64 256h128z"/></symbol><symbol viewBox="0 0 100.01700592041016 100.00199890136719" aria-labelledby="cnsi-flat-pencils-title" id="si-flat-pencils"><title id="cnsi-flat-pencils-title">icon pencils</title><path fill="#e74c3c" d="M50.008 74.001V100h.072l-.072.002c-12.816-.008-25.662-4.828-35.417-14.584C4.82 75.646 0 62.838.008 50c.009-12.816 4.829-25.662 14.583-35.417L33.008 33c-4.682 4.683-6.996 10.849-7 17-.004 6.162 2.31 12.311 7 17 4.683 4.684 10.848 6.996 17 7.001z"/><path fill-opacity=".15" d="M50.008 92c-23.196 0-42-18.805-42-42 0-11.598 4.701-22.098 12.302-29.699l-5.719-5.718C7.876 21.299.008 33.438.008 50c0 27.062 21.625 50 50 50v-8z"/><path fill="#fff" fill-opacity=".15" d="M32.936 67c-4.689-4.689-7.003-10.838-7-17 .004-6.151 2.316-12.317 7-17l-5.627-5.627c-5.791 5.79-9.373 13.79-9.373 22.627 0 17.673 14.327 32 32 32v-7.999c-6.152-.005-12.316-2.317-17-7.001z"/><path fill="#EFC22D" d="M63.008 87L50.022 74.009V74l-.008.001-.001-.001-.005.001c-3.309.011-6.009 5.826-6.009 13 0 7.181 2.709 13.001 6.022 13.001v-.022L63.008 87z"/><path fill="#2D3E4F" d="M58.766 82.757A5.982 5.982 0 0 0 57.008 87c0 1.656.672 3.156 1.757 4.242L63.008 87l-4.242-4.243z"/><path fill="#3498db" d="M50.008 26.001V.002h-.072L50.008 0C62.824.008 75.67 4.828 85.425 14.584c9.771 9.771 14.592 22.58 14.584 35.417C100 62.818 95.18 75.664 85.425 85.419L67.007 67.002c4.683-4.682 6.996-10.85 7-17 .004-6.162-2.312-12.31-7-17-4.683-4.683-10.849-6.996-16.999-7.001z"/><path fill-opacity=".1" d="M67.007 33.002c4.688 4.689 7.004 10.838 7 17-.004 6.15-2.317 12.318-7 17l5.627 5.627c5.791-5.789 9.373-13.789 9.373-22.627 0-17.672-14.326-32-32-32v7.999c6.151.005 12.317 2.318 17 7.001z"/><path fill="#fff" fill-opacity=".15" d="M50.009 8.001c23.195 0 41.999 18.805 41.999 42 0 11.599-4.701 22.099-12.302 29.699l5.72 5.718c6.715-6.716 14.582-18.855 14.582-35.417 0-27.062-21.624-50-49.999-50v8z"/><path fill="#EFC22D" d="M37.008 13.002l12.986 12.991v.009l.008-.001.001.001.005-.001c3.309-.011 6.008-5.826 6.008-13C56.016 5.821 53.307 0 49.994 0v.021L37.008 13.002z"/><path fill="#2D3E4F" d="M41.25 17.245a5.982 5.982 0 0 0 1.758-4.243 5.985 5.985 0 0 0-1.757-4.242l-4.243 4.242 4.242 4.243z"/></symbol><symbol viewBox="0 0 1024 896" aria-labelledby="cosi-flat-photo-title" id="si-flat-photo"><title id="cosi-flat-photo-title">icon photo</title><path d="M897.024 128h-147.84l-42.88-90.624C696.512 16.064 661.248 0 626.944 0h-244.8c-34.304 0-69.568 16.064-79.424 37.376L260.864 128H128C0 128 0 192 0 192v640s0 64 128 64h768c128 0 128-64 128-64V192s0-64-126.976-64zM512 767.936c-141.376 0-256-114.496-256-255.872C256 370.624 370.624 256 512 256s256 114.624 256 256.064c0 141.376-114.624 255.872-256 255.872zM512 352c-88.384 0-160 71.616-160 160 0 88.32 71.616 160 160 160s160-71.68 160-160c0-88.384-71.616-160-160-160z"/></symbol><symbol viewBox="0 0 1024 1024" aria-labelledby="cpsi-flat-pinterest-title" id="si-flat-pinterest"><title id="cpsi-flat-pinterest-title">icon pinterest</title><path d="M512 0C230.4 0 0 230.4 0 512c0 211.2 128 390.4 307.2 467.2 0-38.4 0-76.8 6.4-115.2 12.8-38.4 64-281.6 64-281.6s-12.8-32-12.8-76.8c0-76.8 44.8-134.4 96-134.4s70.4 32 70.4 76.8-32 115.2-44.8 179.2c-12.8 57.6 25.6 96 83.2 96 96 0 160-121.6 160-275.2 0-115.2-76.8-198.4-211.2-198.4-153.6 0-249.6 115.2-249.6 243.2 0 44.8 12.8 76.8 32 102.4 6.4 12.8 12.8 12.8 6.4 25.6 0 6.4-6.4 32-12.8 38.4-6.4 12.8-12.8 19.2-25.6 12.8-70.4-32-102.4-108.8-102.4-198.4 0-147.2 121.6-320 364.8-320 198.4 0 326.4 140.8 326.4 294.4 0 198.4-108.8 352-275.2 352-57.6 0-108.8-32-128-64 0 0-32 115.2-38.4 140.8-12.8 38.4-32 76.8-51.2 108.8 51.2 32 96 38.4 147.2 38.4 281.6 0 512-230.4 512-512S793.6 0 512 0z"/></symbol><symbol viewBox="0 0 896 1025.4720458984375" aria-labelledby="cqsi-flat-play-title" id="si-flat-play"><title id="cqsi-flat-play-title">icon play</title><path d="M880 485.696l-832-480C38.144 0 25.856 0 16 5.696c-9.856 5.76-16 16.32-16 27.776v960c0 11.456 6.144 22.016 16 27.712 4.928 2.88 10.496 4.288 16 4.288s11.072-1.408 16-4.288l832-480c9.856-5.696 16-16.256 16-27.712s-6.144-22.016-16-27.776z"/></symbol><symbol viewBox="0 0 960 960" aria-labelledby="crsi-flat-plus-title" id="si-flat-plus"><title id="crsi-flat-plus-title">icon plus</title><path d="M896 576.064H576V896c0 35.392-28.608 64-64 64h-64c-35.328 0-64-28.608-64-64V576.064H64c-35.328 0-64-28.736-64-64.064v-64.064c0-35.328 28.672-63.872 64-63.872h320V64c0-35.328 28.672-64 64-64h64c35.392 0 64 28.672 64 64v320.064h320c35.392 0 64 28.544 64 63.872V512c0 35.328-28.608 64.064-64 64.064z"/></symbol><symbol viewBox="0 0 1024 1024.1280517578125" aria-labelledby="cssi-flat-plus-circle-title" id="si-flat-plus-circle"><title id="cssi-flat-plus-circle-title">icon plus-circle</title><path d="M512 0C229.248 0 0 229.312 0 512.064c0 282.816 229.248 512.064 512 512.064s512-229.248 512-512.064C1024 229.312 794.752 0 512 0zm252.224 576.768H576.832v187.52c0 36.992-28.992 67.072-64.768 67.072s-64.768-30.08-64.768-67.072v-187.52H259.137c-36.992 0-67.072-28.928-67.072-64.704s30.08-64.768 67.072-64.768h188.16v-188.16c0-37.056 28.992-67.072 64.768-67.072s64.768 30.016 64.768 67.072v188.16h187.456c37.056 0 67.072 29.056 67.072 64.768s-30.016 64.704-67.136 64.704z"/></symbol><symbol viewBox="0 0 896 960.511962890625" aria-labelledby="ctsi-flat-power-title" id="si-flat-power"><title id="ctsi-flat-power-title">icon power</title><path d="M703.872 140.992l-.128.064c-.896-.64-1.6-1.536-2.624-2.24-29.184-20.032-68.992-12.608-89.024 16.704-19.968 29.312-12.48 69.312 16.64 89.344.768.64 1.536.896 2.24 1.28l-.256.448C713.6 304.64 768 401.088 768 510.336c0 177.536-143.296 321.472-320 321.472S128 687.872 128 510.336c0-109.248 54.4-205.696 137.28-263.744l-.256-.448c.704-.384 1.472-.64 2.24-1.216 29.184-20.032 36.608-60.032 16.64-89.344-20.032-29.312-59.84-36.8-89.024-16.704-.96.704-1.728 1.536-2.688 2.24l-.064-.128C76.097 222.4 0 357.312 0 510.336c0 248.576 200.576 450.176 448 450.176s448-201.6 448-450.176c0-153.024-76.096-287.936-192.128-369.344zM448 576c35.392 0 64-28.608 64-64V64.064C512 28.672 483.392 0 448 0c-35.328 0-64 28.672-64 64.064V512c0 35.392 28.672 64 64 64z"/></symbol><symbol viewBox="0 0 1024 1024" aria-labelledby="cusi-flat-question-circle-title" id="si-flat-question-circle"><title id="cusi-flat-question-circle-title">icon question-circle</title><path d="M512 1024C229.248 1024 0 794.752 0 512 0 229.312 229.248 0 512 0s512 229.248 512 512-229.248 512-512 512zm0-192.064c35.776 0 64.768-28.544 64.768-63.808 0-35.2-28.992-63.808-64.768-63.808-35.776 0-64.768 28.608-64.768 63.808 0 35.264 28.992 63.808 64.768 63.808zm138.752-596.224c-33.92-27.904-82.24-43.456-140.032-43.456-42.56 0-78.912 7.68-110.144 20.16-16.576 6.72-69.632 39.68-80.64 48.896l32.384 48.32c5.312 9.344 13.952 14.08 25.92 14.08 4.992 0 10.624-1.984 16.96-5.888 4.608-2.88 41.088-21.696 56.512-26.368 32.32-9.6 67.84-5.696 84.16-.64 22.272 6.848 38.4 19.904 47.36 37.76 5.888 11.776 13.376 44.16-4.224 74.432-14.656 25.088-37.568 44.16-62.848 61.056-13.504 9.216-26.048 18.624-37.376 28.416-.512 0-1.792.96-4.672 3.52 1.408-1.216 3.264-2.304 4.672-3.52 3.2-.128-30.784 43.328-30.784 83.52v64h128v-64c0-33.28 16.128-51.968 16.448-56.704 11.008-7.872 61.056-46.144 72.96-59.904C687.616 433.792 704 400 704 352.384c0-48.832-19.392-88.832-53.248-116.672z"/></symbol><symbol viewBox="0 0 1024 1024" aria-labelledby="cvsi-flat-radio-checked-title" id="si-flat-radio-checked"><title id="cvsi-flat-radio-checked-title">icon radio-checked</title><path d="M512 0C230.4 0 0 230.4 0 512s230.4 512 512 512 512-230.4 512-512S793.6 0 512 0zm0 819.2c-168.96 0-307.2-138.24-307.2-307.2S343.04 204.8 512 204.8c168.96 0 307.2 138.24 307.2 307.2 0 168.96-138.24 307.2-307.2 307.2zm0-460.8c-87.04 0-153.6 66.56-153.6 153.6S424.96 665.6 512 665.6 665.6 599.04 665.6 512c0-87.04-66.56-153.6-153.6-153.6z"/></symbol><symbol viewBox="0 0 1024 1024" aria-labelledby="cwsi-flat-radio-unchecked-title" id="si-flat-radio-unchecked"><title id="cwsi-flat-radio-unchecked-title">icon radio-unchecked</title><path d="M512 0C230.4 0 0 230.4 0 512s230.4 512 512 512 512-230.4 512-512S793.6 0 512 0zm0 819.2c-168.96 0-307.2-138.24-307.2-307.2S343.04 204.8 512 204.8c168.96 0 307.2 138.24 307.2 307.2 0 168.96-138.24 307.2-307.2 307.2z"/></symbol><symbol viewBox="0 0 960 960" aria-labelledby="cxsi-flat-resize-title" id="si-flat-resize"><title id="cxsi-flat-resize-title">icon resize</title><path d="M800 288L586.944 496.448 461.248 370.752 672 160.064 512 0h448v448L800 288zM494.977 585.472L288 787.968 455.488 960H0V507.712L160 672l210.752-210.752 124.225 124.224z"/></symbol><symbol viewBox="0 0 143.89300537109375 113.34000396728516" aria-labelledby="cysi-flat-retina-title" id="si-flat-retina"><title id="cysi-flat-retina-title">icon retina</title><g transform="translate(26.893)"><path fill="#26B99A" d="M50 4c27.614 0 50 22.386 50 50 0 27.613-22.386 50-50 50S0 81.613 0 54C0 26.386 22.386 4 50 4z"/><path fill="#fff" d="M81.309 43.339L45.441 79.208a1.876 1.876 0 0 1-2.651 0L22.504 58.71c-.362-.366-.556-1.374-.556-1.859 0-.484.194-.947.556-1.315l5.404-4.871a1.835 1.835 0 0 1 1.338-.55 1.85 1.85 0 0 1 1.313.55L42.79 63.143c.728.743 1.92.743 2.651 0l27.918-27.835a1.86 1.86 0 0 1 2.647 0l5.302 5.354c.732.734.732 1.942.001 2.677z"/><circle cx="84.625" cy="33" r="26" opacity=".15"/><path fill="#26B99A" d="M87.999 56.5C72.836 56.5 60.5 44.163 60.5 29S72.836 1.5 87.999 1.5C103.163 1.5 115.5 13.836 115.5 29c0 15.163-12.337 27.5-27.501 27.5z"/><path fill="#ECF0F1" d="M87.999 3C102.336 3 114 14.663 114 29s-11.664 26-26.001 26C73.663 55 62 43.336 62 29S73.663 3 87.999 3m0-3C71.984 0 59 12.984 59 29c0 16.017 12.984 29 28.999 29C104.016 58 117 45.016 117 29S104.016 0 87.999 0z"/><path fill="#fff" d="M107.314 30.594l-81.091 81.092c-1.653 1.654-4.349 1.654-5.994 0L8.242 99.589c-1.644-1.674-4.348-4.391-5.993-6.063l-27.885-29.303a4.454 4.454 0 0 1-1.257-3.082c0-1.094.439-2.141 1.257-2.974l12.218-11.01a4.151 4.151 0 0 1 3.025-1.246 4.18 4.18 0 0 1 2.969 1.246L20.229 75.37a4.19 4.19 0 0 0 5.994 0l63.121-62.932a4.207 4.207 0 0 1 5.984 0l11.986 12.102c1.655 1.661 1.655 4.393 0 6.054z" clip-path="url(#b)"/></g></symbol><symbol viewBox="0 90 612 612" aria-labelledby="czsi-flat-ribbon-title" id="si-flat-ribbon"><title id="czsi-flat-ribbon-title">icon ribbon</title><path fill="#C0392B" d="M582.1 702v-59.7l29.9-29.9v59.7L582.1 702zM0 119.9L29.9 90h59.7l-29.9 29.9H0z"/><path fill="#E74C3C" d="M29.9 90h231.4L612 440.8v231.4L29.9 90z"/><text transform="rotate(45.001 -29925.754 24461.152)" fill="#FFF" font-family="'Lato-Regular'" font-size="97.01">POPULAR</text><g fill="#FFF"><path d="M214.4 184.4l-16.7 16.7-11.6-11.6 50-50 17.6 17.6c3.5 3.5 6.1 7 7.8 10.3 1.7 3.4 2.6 6.6 2.8 9.7.2 3.1-.3 6-1.6 8.8-1.2 2.8-3 5.3-5.3 7.6-2.5 2.5-5.2 4.4-8.1 5.7-2.9 1.3-5.9 1.8-9 1.7-3.1-.2-6.4-1.1-9.7-2.8-3.4-1.7-6.8-4.3-10.2-7.7l-6-6zm8.8-8.8l6 6c3 3 5.9 4.5 8.7 4.4s5.4-1.5 8-4c1.1-1.1 2-2.4 2.6-3.6.6-1.3.9-2.6.9-4s-.4-2.8-1.1-4.2c-.7-1.4-1.8-2.9-3.2-4.3l-6-6-15.9 15.7zM304.2 257.6c-3.6 3.6-7.6 6.4-12 8.2-4.4 1.9-8.8 2.8-13.4 2.8s-9.1-.9-13.6-2.8-8.7-4.8-12.6-8.7c-3.9-3.9-6.8-8.1-8.7-12.6s-2.8-9-2.8-13.6 1-9 2.8-13.4c1.9-4.4 4.6-8.3 8.2-12 3.6-3.6 7.6-6.4 12-8.2 4.4-1.9 8.8-2.8 13.4-2.8s9.1.9 13.6 2.8 8.7 4.8 12.6 8.7 6.8 8.1 8.6 12.6c1.9 4.5 2.8 9 2.8 13.6 0 4.5-1 9-2.8 13.4-1.7 4.4-4.5 8.4-8.1 12zm-11.8-11.9c2.5-2.5 4.4-5 5.7-7.6 1.3-2.6 2.1-5.2 2.3-7.8.2-2.6-.2-5.1-1.3-7.6-1-2.5-2.6-4.8-4.8-7-2.2-2.2-4.6-3.9-7.1-4.9s-5-1.4-7.6-1.3c-2.6.2-5.2.9-7.8 2.3-2.6 1.3-5.2 3.2-7.6 5.7-2.5 2.5-4.4 5-5.7 7.7-1.3 2.6-2.1 5.2-2.3 7.8s.3 5.1 1.3 7.6 2.7 4.8 4.9 7.1c2.2 2.2 4.6 3.8 7 4.9s5 1.4 7.5 1.3c2.6-.2 5.2-.9 7.8-2.3 2.6-1.5 5.2-3.4 7.7-5.9zM313.1 283l-16.7 16.7-11.6-11.6 50-50 17.6 17.6c3.5 3.5 6.1 7 7.8 10.3 1.7 3.4 2.6 6.6 2.8 9.7.2 3.1-.3 6-1.6 8.8-1.2 2.8-3 5.3-5.3 7.6-2.5 2.5-5.2 4.4-8.1 5.7-2.9 1.3-5.9 1.8-9 1.7-3.1-.2-6.4-1.1-9.7-2.8-3.4-1.7-6.8-4.3-10.2-7.7l-6-6zm8.7-8.7l6 6c3 3 5.9 4.5 8.7 4.4 2.8-.1 5.4-1.5 8-4 1.1-1.1 2-2.4 2.6-3.6.6-1.3.9-2.6.9-4s-.4-2.8-1.1-4.2c-.7-1.4-1.8-2.9-3.2-4.3l-6-6-15.9 15.7zM358.5 343.5c1.6 1.6 3.2 2.7 4.9 3.4 1.7.7 3.5 1 5.3.9s3.6-.6 5.5-1.6c1.8-.9 3.6-2.3 5.4-4l29.6-29.6 11.6 11.6-29.6 29.6c-3.1 3.1-6.4 5.4-9.9 6.9-3.6 1.6-7.2 2.3-10.9 2.3s-7.4-.8-11.1-2.4-7.2-4.1-10.5-7.4-5.8-6.8-7.4-10.5-2.4-7.4-2.4-11.1.8-7.3 2.4-10.9c1.6-3.5 3.9-6.8 7-9.9l29.6-29.6 11.6 11.6-29.6 29.6c-1.8 1.8-3.1 3.6-4 5.4s-1.5 3.7-1.6 5.5.2 3.6.9 5.3c.5 1.7 1.6 3.4 3.2 4.9zM399.2 384l18.5 18.5-9.3 9.3-30.1-30.1 50-50 11.6 11.6-40.7 40.7zM460.5 463.8l-9-9c-1-1-1.6-2.1-1.8-3.2-.2-1.1 0-2.2.4-3.2l5.8-11.7-19-19-11.7 5.8c-.9.4-1.9.5-3.1.4s-2.2-.7-3.2-1.7l-9.1-9.1 69.3-30.6 11.9 11.9-30.5 69.4zm-13-51.2l13.7 13.7 9.1-18.3c.6-1.2 1.2-2.5 2-4.1s1.7-3.2 2.6-5c-1.8 1-3.4 1.9-5 2.7-1.6.8-3 1.5-4.2 2l-18.2 9zM494.6 461l-18.5 18.5-11.6-11.6 50-50 16.3 16.3c3.6 3.6 6.3 7.1 8.1 10.4s2.9 6.4 3.1 9.3c.3 2.9-.1 5.7-1.2 8.2-1.1 2.5-2.7 4.9-4.8 7-1.6 1.6-3.4 2.9-5.2 3.9-1.9 1-3.9 1.7-5.9 2.1-2.1.4-4.2.4-6.4.1s-4.4-.9-6.7-1.9c.4 1.2.6 2.4.7 3.6s0 2.5-.3 3.9l-6.8 28-10.5-10.5c-1.9-1.9-2.6-4.1-2-6.4l6.2-22.8c.3-1 .3-1.9.1-2.7s-.8-1.6-1.7-2.5l-2.9-2.9zm8-8l4.7 4.7c1.6 1.6 3.1 2.7 4.6 3.4 1.5.7 3 1.1 4.4 1.1s2.8-.3 4-.9c1.3-.6 2.5-1.5 3.6-2.6 2.2-2.2 3.2-4.6 3-7.3s-1.8-5.5-4.8-8.5l-4.7-4.7-14.8 14.8z"/></g></symbol><symbol viewBox="0 0 1025.4720458984375 1026.9439697265625" aria-labelledby="dasi-flat-search-title" id="si-flat-search"><title id="dasi-flat-search-title">icon search</title><path d="M722.688 606.4c-11.328-11.456-15.104-32.704-8.384-47.296 0 0 47.232-102.464 47.232-177.728C761.536 170.752 591.104 0 380.8 0S0 170.752 0 381.312c0 210.624 170.496 381.376 380.8 381.376 75.2 0 177.408-47.36 177.408-47.36 14.656-6.784 35.968-2.944 47.232 8.448l291.456 291.776c11.456 11.392 30.08 11.392 41.344 0l75.776-75.904c11.456-11.456 11.456-30.144 0-41.472L722.688 606.4zM380.8 586.624c-113.088 0-205.056-92.032-205.056-205.312C175.744 268.096 267.776 176 380.8 176s204.993 92.096 204.993 205.312c0 113.28-91.904 205.312-204.992 205.312z"/></symbol><symbol viewBox="0 0 1030.4000244140625 1024" aria-labelledby="dbsi-flat-skype-title" id="si-flat-skype"><title id="dbsi-flat-skype-title">icon skype</title><path d="M979.2 588.8c6.4-25.6 6.4-51.2 6.4-76.8 0-262.4-211.2-473.6-473.6-473.6-25.6 0-51.2 0-76.8 6.4C396.8 12.8 345.6 0 288 0 128 0 0 128 0 288c0 57.6 12.8 108.8 44.8 153.6-6.4 19.2-6.4 44.8-6.4 70.4 0 262.4 211.2 473.6 473.6 473.6 25.6 0 51.2 0 76.8-6.4 44.8 25.6 96 44.8 153.6 44.8 160 0 288-128 288-288-6.4-57.6-19.2-108.8-51.2-147.2zM736 729.6c-19.2 32-51.2 51.2-89.6 70.4-38.4 19.2-83.2 25.6-134.4 25.6-64 0-115.2-12.8-160-32-32-12.8-51.2-38.4-70.4-64-19.2-32-25.6-57.6-25.6-83.2 0-12.8 6.4-25.6 19.2-38.4 12.8-12.8 25.6-19.2 44.8-19.2 12.8 0 25.6 6.4 38.4 12.8 6.4 6.4 12.8 19.2 19.2 38.4 6.4 19.2 19.2 32 25.6 44.8 6.4 12.8 19.2 25.6 38.4 32 19.2 6.4 38.4 12.8 64 12.8 38.4 0 70.4-6.4 89.6-25.6 25.6-19.2 32-38.4 32-57.6 0-19.2-6.4-32-19.2-44.8-6.4-19.2-19.2-25.6-38.4-32-19.2-6.4-51.2-12.8-83.2-19.2-44.8-12.8-83.2-25.6-115.2-38.4-32-12.8-57.6-32-76.8-51.2-19.2-25.6-25.6-57.6-25.6-89.6 0-32 12.8-64 32-89.6C320 256 345.6 236.8 384 224c38.4-12.8 76.8-19.2 128-19.2 38.4 0 70.4 6.4 102.4 12.8 25.6 6.4 51.2 19.2 70.4 38.4 19.2 12.8 32 32 44.8 44.8s12.8 32 12.8 51.2c0 12.8-6.4 25.6-19.2 38.4-12.8 12.8-25.6 19.2-44.8 19.2-12.8 0-25.6-6.4-32-12.8-6.4-6.4-19.2-19.2-25.6-32-12.8-25.6-25.6-38.4-44.8-51.2-12.8-12.8-38.4-19.2-76.8-19.2-32 0-57.6 6.4-76.8 19.2-19.2 12.8-32 25.6-32 44.8 0 12.8 6.4 19.2 12.8 32l25.6 19.2c12.8 6.4 25.6 12.8 38.4 12.8 12.8 6.4 32 6.4 64 12.8 32 12.8 64 25.6 96 32 32 6.4 51.2 19.2 76.8 32 19.2 12.8 38.4 32 51.2 51.2 6.4 25.6 12.8 51.2 12.8 76.8 0 38.4-12.8 70.4-32 102.4z"/></symbol><symbol viewBox="0 0 1024 1023.9999389648438" aria-labelledby="dcsi-flat-spotify-title" id="si-flat-spotify"><title id="dcsi-flat-spotify-title">icon spotify</title><path d="M179.2 902.4C256 787.2 390.4 716.8 537.6 716.8c134.4 0 256 64 339.2 160 89.6-96 147.2-224 147.2-364.8C1024 230.4 793.6 0 512 0S0 230.4 0 512c0 153.6 70.4 294.4 179.2 390.4zm608-236.8c-6.4 19.2-19.2 19.2-38.4 12.8-70.4-32-147.2-51.2-224-51.2-83.2 0-160 19.2-230.4 51.2-6.4 6.4-25.6 6.4-32-19.2-6.4-12.8 6.4-25.6 12.8-32 76.8-38.4 160-57.6 249.6-57.6s172.8 19.2 243.2 51.2c12.8 12.8 25.6 25.6 19.2 44.8zm44.8-128c-6.4 6.4-12.8 12.8-25.6 12.8H800c-83.2-38.4-179.2-64-275.2-64S339.2 505.6 256 544h-6.4c-12.8 0-19.2-6.4-25.6-12.8l-6.4-12.8c0-6.4 6.4-19.2 12.8-19.2 89.6-38.4 192-64 300.8-64 108.8 0 211.2 25.6 300.8 64v38.4zM185.6 326.4c102.4-44.8 217.6-64 339.2-64 115.2 0 230.4 25.6 332.8 64 12.8 6.4 25.6 19.2 25.6 38.4 0 25.6-19.2 44.8-44.8 44.8H832C736 371.2 633.6 352 524.8 352s-211.2 19.2-307.2 51.2h-6.4c-25.6 0-44.8-19.2-44.8-44.8 0-6.4 6.4-25.6 19.2-32zm352 556.8C448 883.2 371.2 928 326.4 992c57.6 19.2 121.6 32 185.6 32 83.2 0 160-19.2 224-51.2-44.8-57.6-115.2-89.6-198.4-89.6z"/></symbol><symbol viewBox="0 0 960.1279907226562 960.06396484375" aria-labelledby="ddsi-flat-star-title" id="si-flat-star"><title id="ddsi-flat-star-title">icon star</title><path d="M0 480.064C288 448 448 288 480 0c32.064 288 192.064 448 480.128 480.064-288.064 32-448.064 192-480.128 480-32-288-192-448-480-480z"/></symbol><symbol viewBox="0 0 1024.0009765625 1024" aria-labelledby="desi-flat-star-2-title" id="si-flat-star-2"><title id="desi-flat-star-2-title">icon star-2</title><path d="M1024 512L643.2 640l-10.304 384L387.2 719.04 0 828.416 228.992 512 0 195.584l387.2 109.312L632.897 0l10.304 384 380.8 128z"/></symbol><symbol viewBox="0 0 1024 778.239990234375" aria-labelledby="dfsi-flat-stumbleupon-title" id="si-flat-stumbleupon"><title id="dfsi-flat-stumbleupon-title">icon stumbleupon</title><path d="M565.888 289.792l69.824 33.728 105.408-33.728v-61.184C741.12 102.528 638.336 0 512 0S282.944 102.592 282.944 228.608v321.024c0 29.632-24.192 53.696-53.824 53.696s-53.824-24.064-53.824-53.696v-134.4H0v134.4C0 675.712 102.72 778.24 229.12 778.24c126.336 0 229.12-102.592 229.12-228.608V228.608c0-29.568 24.192-53.696 53.824-53.696 29.696 0 53.888 24.128 53.888 53.696l-.064 61.184zm282.816 125.44v134.4c0 29.632-24.128 53.696-53.824 53.696-29.696 0-53.888-24.064-53.888-53.696V412.544l-105.344 33.728-69.824-33.728v137.088c0 126.08 102.784 228.608 229.12 228.608S1024 675.648 1024 549.632v-134.4H848.704z"/></symbol><symbol viewBox="0 0 1027.7760009765625 832" aria-labelledby="dgsi-flat-tag-title" id="si-flat-tag"><title id="dgsi-flat-tag-title">icon tag</title><path d="M1012.737 379.84l-241.217-352C759.552 10.432 739.84 0 718.72 0H64C28.608 0 0 28.672 0 64v704c0 35.328 28.608 64 64 64h654.72c21.12 0 40.896-10.368 52.8-27.84l241.216-352c15.04-21.76 15.04-50.56 0-72.32zM735.999 512c-52.992 0-96-43.008-96-96s43.008-96 96-96 96 43.008 96 96-43.008 96-96 96z"/></symbol><symbol viewBox="0 0 1023.8079833984375 1023.8719482421875" aria-labelledby="dhsi-flat-time-title" id="si-flat-time"><title id="dhsi-flat-time-title">icon time</title><path d="M511.872 0C229.185 0 0 229.184 0 511.936c0 282.816 229.184 511.936 511.872 511.936 282.752 0 511.936-229.12 511.936-511.936C1023.808 229.184 794.625 0 511.872 0zm166.913 691.52l-14.848 14.976c-12.416 12.352-33.344 12.992-46.464 1.28l-171.52-147.52c-13.12-11.712-23.04-35.712-22.208-53.248l17.856-283.072c.896-17.6 16-31.936 33.664-31.936h21.056c17.6 0 32.704 14.336 33.536 31.936l14.656 231.808c.896 17.536 11.2 42.688 22.848 55.808L680.128 645.12c11.648 12.992 11.136 33.984-1.344 46.4z"/></symbol><symbol viewBox="0 0 100.01100158691406 100" aria-labelledby="disi-flat-toilet-paper-title" id="si-flat-toilet-paper"><title id="disi-flat-toilet-paper-title">icon toilet-paper</title><g transform="translate(.011)"><path fill="#F1C40F" fill-rule="evenodd" d="M78.993 26h21l.007 74H39.865v-.004l-.355.004C17.682 100-.011 94.27-.011 87.199L-.007 13h79v13z" clip-rule="evenodd"/><path fill="#F39C12" d="M40 13h39v13H40z"/><ellipse cx="39.5" cy="13" fill="#E67E22" rx="39.5" ry="13"/><ellipse cx="40.334" cy="12.812" opacity=".2" rx="16" ry="4.5"/><path fill="#F39C12" fill-rule="evenodd" d="M40.668 93a2 2 0 1 0 0 4 2 2 0 0 0 0-4zm0-8a2 2 0 1 0 0 4 2 2 0 0 0 0-4zm0-8a2 2 0 1 0 0 4 2 2 0 0 0 0-4zm0-8a2 2 0 1 0 0 4 2 2 0 0 0 0-4zm0-16a2 2 0 1 0 0 4 2 2 0 0 0 0-4zm0-8a2 2 0 1 0 0 4 2 2 0 0 0 0-4zm0-12a2 2 0 1 0 0-3.998 2 2 0 0 0 0 3.998zm0 4a2 2 0 1 0 0 4 2 2 0 0 0 0-4zm0 24a2 2 0 1 0 0 4 2 2 0 0 0 0-4z" clip-rule="evenodd"/></g></symbol><symbol viewBox="0 0 960 1024" aria-labelledby="djsi-flat-trash-title" id="si-flat-trash"><title id="djsi-flat-trash-title">icon trash</title><path d="M896 256h-64v640s-1.984 128-128 128H256c-129.984 0-128-128-128-128V256H64c-35.328 0-64-28.672-64-64s28.672-64 64-64h320V96c0-53.056 42.944-96 96-96 52.992 0 96 42.944 96 96v32h320c35.392 0 64 28.608 64 64s-28.608 64-64 64zm-192 0H256v640h448V256zm-320 64c35.328 0 64 28.672 64 64v384c0 35.392-28.672 64-64 64s-64-28.608-64-64V384c0-35.328 28.672-64 64-64zm192 0c35.392 0 64 28.672 64 64v384c0 35.392-28.608 64-64 64s-64-28.608-64-64V384c0-35.328 28.608-64 64-64z"/></symbol><symbol viewBox="0 0 768 512" aria-labelledby="dksi-flat-triangle-down-title" id="si-flat-triangle-down"><title id="dksi-flat-triangle-down-title">icon triangle-down</title><path d="M0 0l384 512L768 0H0z"/></symbol><symbol viewBox="0 0 768 384" aria-labelledby="dlsi-flat-triangle-down-small-title" id="si-flat-triangle-down-small"><title id="dlsi-flat-triangle-down-small-title">icon triangle-down-small</title><path d="M384 384L0 0h768L384 384z"/></symbol><symbol viewBox="0 0 768 896" aria-labelledby="dmsi-flat-triangle-left-large-title" id="si-flat-triangle-left-large"><title id="dmsi-flat-triangle-left-large-title">icon triangle-left-large</title><path d="M768 896L0 448 768 0v896z"/></symbol><symbol viewBox="0 0 768 896" aria-labelledby="dnsi-flat-triangle-right-large-title" id="si-flat-triangle-right-large"><title id="dnsi-flat-triangle-right-large-title">icon triangle-right-large</title><path d="M0 0l768 448L0 896V0z"/></symbol><symbol viewBox="0 0 768 512" aria-labelledby="dosi-flat-triangle-up-title" id="si-flat-triangle-up"><title id="dosi-flat-triangle-up-title">icon triangle-up</title><path d="M768 512L384 0 0 512h768z"/></symbol><symbol viewBox="0 0 768 384" aria-labelledby="dpsi-flat-triangle-up-small-title" id="si-flat-triangle-up-small"><title id="dpsi-flat-triangle-up-small-title">icon triangle-up-small</title><path d="M768 384H0L384 0l384 384z"/></symbol><symbol viewBox="0 0 640 1024" aria-labelledby="dqsi-flat-tumblr-title" id="si-flat-tumblr"><title id="dqsi-flat-tumblr-title">icon tumblr</title><path d="M384 448v236.8c0 57.6 0 96 6.4 108.8 6.4 19.2 19.2 32 38.4 44.8 25.6 12.8 51.2 19.2 76.8 19.2 51.2 0 83.2-6.4 134.4-38.4v153.6c-44.8 19.2-83.2 32-115.2 38.4-38.4 12.8-76.8 12.8-115.2 12.8-44.8 0-76.8-6.4-108.8-19.2-38.4-12.8-64-32-89.6-51.2-25.6-19.2-44.8-44.8-51.2-70.4-12.8-25.6-12.8-57.6-12.8-108.8v-352H0V275.2c38.4-12.8 83.2-32 115.2-57.6 25.6-25.6 51.2-51.2 70.4-89.6 19.2-32 32-76.8 38.4-128h160v256h256v192H384z"/></symbol><symbol viewBox="0 0 1024 831.9999389648438" aria-labelledby="drsi-flat-twitter-title" id="si-flat-twitter"><title id="drsi-flat-twitter-title">icon twitter</title><path d="M1024 96c-38.4 19.2-76.8 25.6-121.6 32 44.8-25.6 76.8-64 89.6-115.2-38.4 25.6-83.2 38.4-134.4 51.2-38.4-38.4-96-64-153.6-64-108.8 0-204.8 96-204.8 211.2 0 19.2 0 32 6.4 44.8-172.8-6.4-332.8-89.6-435.2-217.6-19.2 32-25.6 64-25.6 102.4 0 70.4 38.4 134.4 96 172.8-32 0-64-12.8-96-25.6 0 102.4 70.4 185.6 166.4 204.8-19.2 12.8-38.4 12.8-57.6 12.8-12.8 0-25.6 0-38.4-6.4 25.6 83.2 102.4 147.2 198.4 147.2C243.2 704 153.6 736 51.2 736H0c96 64 204.8 96 320 96 384 0 595.2-320 595.2-595.2v-25.6c44.8-32 83.2-70.4 108.8-115.2z"/></symbol><symbol viewBox="0 0 1024 1024" aria-labelledby="dssi-flat-upload-title" id="si-flat-upload"><title id="dssi-flat-upload-title">icon upload</title><path d="M896 1024H704V896h192.064V256H128v640h192v128H128C57.344 1024 0 966.656 0 896V128C0 57.344 57.344 0 128 0h768c70.656 0 128 57.344 128 128v768c0 70.656-57.344 128-128 128zM192 64.064c-35.392 0-64 28.608-64 63.936 0 35.392 28.608 64 64 64s64-28.608 64-64c0-35.328-28.608-63.936-64-63.936zm192 0c-35.392 0-64 28.608-64 63.936 0 35.392 28.608 64 64 64s64-28.608 64-64c0-35.328-28.608-63.936-64-63.936zM271.937 759.296c-22.208-23.232-22.208-60.864 0-84.16l196.928-209.408c6.144-6.464 13.44-10.496 21.12-13.44.064-.064.192-.064.32-.128 5.888-2.24 11.84-3.456 17.984-3.712 2.24-.192 4.416-.384 6.656-.256 2.752.192 5.376 1.024 8 1.6 11.328 2.24 22.272 6.72 30.976 15.872l196.864 209.408c22.272 23.296 22.272 60.928 0 84.16-22.272 23.104-58.304 23.104-80.576 0L576 640v319.936c0 34.176-32.064 64.064-64.64 64.064-32.512 0-63.36-29.888-63.36-64.064V640l-95.488 119.296c-22.272 23.168-58.304 23.168-80.576 0z"/></symbol><symbol viewBox="0 0 896 1023.93603515625" aria-labelledby="dtsi-flat-user-title" id="si-flat-user"><title id="dtsi-flat-user-title">icon user</title><path d="M449.024 363.712c106.56 0 193.024-81.344 193.024-181.888C641.984 81.408 555.584 0 449.024 0S256 81.408 256 181.824c0 100.48 86.464 181.888 193.024 181.888zM600.32 376.32c-42.56 29.44-94.592 47.424-151.296 47.424-56.96 0-109.12-18.112-151.744-47.744C124.032 413.312 0 512.832 0 630.016v258.88C0 906.048 14.4 920 32 920h64c17.6 0 32-12.608 32-28.096V690.048c0-16.64 9.536-9.984 21.376-9.984 11.776 0 21.312 9.024 21.312 19.968l.32 179.968c.896 10.368 9.6 84.416 20.544 86.592 0 0 66.56 57.344 256.448 57.344 191.232 0 256.448-57.344 256.448-57.344 10.944-2.112 19.712-76.16 20.544-86.592l.32-179.968c0-11.008 9.536-19.968 21.376-19.968 11.776 0 21.312 9.024 21.312 19.968v191.872C768 907.392 782.4 920 800 920h64c17.6 0 32-14.016 32-31.104v-258.88c0-116.864-123.392-216.128-295.68-253.696z"/></symbol><symbol viewBox="0 0 1024 704.7039794921875" aria-labelledby="dusi-flat-video-title" id="si-flat-video"><title id="dusi-flat-video-title">icon video</title><path d="M960.258 703.936v.768L704 448.448v127.488C704 646.656 646.656 704 576 704H128C57.344 704 0 646.656 0 575.936V128.064C0 57.344 57.344 0 128 0h448c70.656 0 128 57.344 128 128.064V256.64l256-256V0c35.392 0 64 28.608 64 64v576c0 35.264-28.544 63.808-63.744 63.936z"/></symbol><symbol viewBox="0 0 1030.4000244140625 902.4000244140625" aria-labelledby="dvsi-flat-vimeo-title" id="si-flat-vimeo"><title id="dvsi-flat-vimeo-title">icon vimeo</title><path d="M876.8 6.4C729.6 0 633.6 83.2 582.4 249.6c25.6-12.8 51.2-19.2 76.8-19.2 51.2 0 76.8 32 70.4 89.6 0 38.4-25.6 89.6-70.4 153.6-38.4 70.4-70.4 102.4-96 102.4-25.6 0-51.2-51.2-76.8-160-6.4-25.6-19.2-108.8-38.4-236.8C428.8 64 377.6 6.4 300.8 19.2c-32 0-83.2 32-153.6 96-44.8 38.4-96 83.2-147.2 128l51.2 64C96 275.2 121.6 256 128 256c38.4 0 70.4 57.6 96 166.4 32 108.8 57.6 211.2 83.2 313.6 38.4 108.8 89.6 166.4 153.6 166.4 96 0 211.2-89.6 352-275.2 134.4-179.2 204.8-313.6 211.2-416C1030.4 76.8 979.2 6.4 876.8 6.4z"/></symbol><symbol viewBox="0 0 908.800048828125 1056" aria-labelledby="dwsi-flat-vine-title" id="si-flat-vine"><title id="dwsi-flat-vine-title">icon vine</title><path d="M0 217.6c19.2 128 128 659.2 377.6 812.8 38.4 25.6 83.2 19.2 115.2-6.4C614.4 921.6 736 748.8 768 665.6c64 6.4 108.8-12.8 108.8-12.8v-128H761.6c-140.8 0-236.8-166.4-179.2-313.6 38.4-102.4 108.8-25.6 121.6 0 12.8 32 6.4 115.2-6.4 172.8 19.2 51.2 140.8 76.8 166.4 38.4 32-96 44.8-262.4-38.4-352C768 32 627.2 0 524.8 64s-102.4 204.8-96 275.2c6.4 70.4 32 217.6 172.8 300.8 12.8 12.8-153.6 230.4-160 217.6-185.6-179.2-249.6-544-262.4-640H0z"/></symbol><symbol viewBox="0 0 1023.9999389648438 894.719970703125" aria-labelledby="dxsi-flat-volume-title" id="si-flat-volume"><title id="dxsi-flat-volume-title">icon volume</title><path d="M493.184 0c-48.384 0-63.04 27.84-63.04 27.84S247.04 244.032 163.584 244.032H82.24C36.8 244.032 0 280.448 0 325.312v244.096c0 44.928 36.8 81.28 82.176 81.28h82.176c81.024 0 269.568 218.88 269.568 218.88 14.912 15.488 35.904 25.152 59.264 25.152 45.376 0 82.176-36.352 82.176-81.28V81.344C575.36 36.416 538.56 0 493.184 0zm350.784 78.272l-47.424 70.976c86.656 70.4 142.208 177.728 142.208 298.176s-55.488 227.84-142.208 298.112l47.424 70.976C953.408 730.624 1024 597.376 1024 447.424c0-150.016-70.592-283.2-180.032-369.152zm-95.168 142.4l-47.872 71.68c41.344 38.912 67.392 93.76 67.392 155.072s-26.048 116.096-67.392 155.072l47.872 71.616c63.872-54.72 104.576-136 104.576-226.688 0-90.816-40.704-171.968-104.576-226.752z"/></symbol><symbol viewBox="0 0 1024 1024" aria-labelledby="dysi-flat-window-title" id="si-flat-window"><title id="dysi-flat-window-title">icon window</title><path d="M896 0H128C57.344 0 0 57.344 0 128v768c0 70.656 57.344 128 128 128h768c70.656 0 128-57.344 128-128V128c0-70.656-57.344-128-128-128zM384 64.064c35.328 0 64 28.608 64 63.936 0 35.392-28.672 64-64 64s-64-28.608-64-64c0-35.328 28.672-63.936 64-63.936zm-192 0c35.328 0 64 28.608 64 63.936 0 35.392-28.672 64-64 64s-64-28.608-64-64c0-35.328 28.672-63.936 64-63.936zM896.064 896H128V256h768.064v640z"/></symbol><symbol viewBox="0 0 1024.1279296875 1023.3599243164062" aria-labelledby="dzsi-flat-windows-title" id="si-flat-windows"><title id="dzsi-flat-windows-title">icon windows</title><path d="M938.752 191.936H832.064V85.312C832.064 38.208 793.856 0 746.752 0H85.312C38.208 0 0 38.208 0 85.312v660.672c0 47.168 37.248 85.376 83.136 85.376H192v106.688c0 47.104 37.248 85.312 83.136 85.312h665.792c45.952 0 83.2-38.208 83.2-85.312V277.312c-.064-47.104-38.272-85.376-85.376-85.376zM384 64.064c35.328 0 64 28.608 64 63.936 0 35.392-28.672 64-64 64s-64-28.608-64-64c0-35.328 28.672-63.936 64-63.936zm-192 0c35.328 0 64 28.608 64 63.936 0 35.392-28.672 64-64 64s-64-28.608-64-64c0-35.328 28.672-63.936 64-63.936zM128 704l-.064-448H704v448H128zm768 192H320v-64.64h428.864c45.952 0 83.2-38.208 83.2-85.376V448H896v448z"/></symbol><symbol viewBox="0 0 903.530029296875 963.764892578125" aria-labelledby="easi-flat-windows-8-title" id="si-flat-windows-8"><title id="easi-flat-windows-8-title">icon windows-8</title><path d="M409.6 867.388V524.047h493.93v439.718L409.6 867.389zm0-777.035L903.53 0v439.718H409.6V90.353zm-78.306 349.364H0V168.658l331.294-60.235v331.294zm0 409.6L0 783.058V524.046h331.294v325.271z"/></symbol><symbol viewBox="0 0 1024 1024" aria-labelledby="ebsi-flat-wordpress-title" id="si-flat-wordpress"><title id="ebsi-flat-wordpress-title">icon wordpress</title><path d="M518.4 544l115.2 313.6v6.4c-38.4 12.8-83.2 19.2-128 19.2-38.4 0-76.8-6.4-108.8-12.8L518.4 544zM896 512c0 140.8-76.8 256-192 326.4l115.2-332.8c19.2-51.2 32-96 32-134.4v-38.4C883.2 384 896 448 896 512zm-768 0c0-51.2 12.8-108.8 32-153.6l185.6 486.4C217.6 787.2 128 659.2 128 512zm64-204.8c70.4-102.4 185.6-166.4 320-166.4 102.4 0 192 38.4 262.4 96H768c-38.4 0-64 32-64 64s19.2 57.6 38.4 89.6c12.8 25.6 32 57.6 32 102.4 0 32-12.8 70.4-32 121.6l-38.4 128-140.8-403.2c25.6 0 44.8-6.4 44.8-6.4 19.2 0 19.2-32 0-32 0 0-64 6.4-102.4 6.4-38.4 0-102.4-6.4-102.4-6.4-19.2 0-25.6 32 0 32 0 0 19.2 0 38.4 6.4l57.6 160L416 742.4 275.2 339.2c25.6-6.4 44.8-6.4 44.8-6.4 19.2 0 19.2-32 0-32 0 0-64 6.4-102.4 6.4H192zM851.2 0H172.8C76.8 0 0 76.8 0 172.8v678.4c0 96 76.8 172.8 172.8 172.8h678.4c96 0 172.8-76.8 172.8-172.8V172.8C1024 76.8 947.2 0 851.2 0zM960 512c0 249.6-198.4 448-448 448S64 761.6 64 512 262.4 64 512 64s448 198.4 448 448z"/></symbol><symbol viewBox="0 0 832.0000610351562 1030.39990234375" aria-labelledby="ecsi-flat-yelp-title" id="si-flat-yelp"><title id="ecsi-flat-yelp-title">icon yelp</title><path d="M512 659.2c-19.2 19.2 0 51.2 0 51.2L640 928s19.2 25.6 38.4 25.6 38.4-12.8 38.4-12.8l102.4-147.2s12.8-19.2 12.8-32c0-25.6-32-32-32-32l-243.2-76.8c-6.4 0-25.6-6.4-44.8 6.4zm-12.8-108.8c12.8 19.2 44.8 12.8 44.8 12.8l243.2-70.4s32-12.8 38.4-32c6.4-19.2-6.4-38.4-6.4-38.4L710.4 288s-12.8-19.2-32-19.2c-25.6 0-38.4 25.6-38.4 25.6L499.2 512s-6.4 19.2 0 38.4zM384 467.2c32-6.4 38.4-51.2 38.4-51.2V70.4c-6.4 0-6.4-38.4-25.6-51.2-32-19.2-44.8-6.4-51.2-6.4L147.2 83.2s-19.2 6.4-32 25.6c-12.8 25.6 12.8 57.6 12.8 57.6l211.2 288s19.2 19.2 44.8 12.8zM339.2 608c0-25.6-32-44.8-32-44.8L89.6 454.4s-32-12.8-44.8-6.4c-19.2 12.8-25.6 25.6-32 32L0 652.8s0 32 6.4 44.8c12.8 19.2 44.8 6.4 44.8 6.4l256-57.6c12.8 0 25.6-6.4 32-38.4zm57.6 96c-19.2-12.8-44.8 6.4-44.8 6.4L179.2 896s-19.2 25.6-12.8 44.8c6.4 19.2 12.8 25.6 25.6 32l172.8 51.2s19.2 6.4 38.4 0c19.2 0 12.8-32 12.8-32l6.4-256s0-25.6-25.6-32z"/></symbol><symbol viewBox="0 0 1024 704.0000610351562" aria-labelledby="edsi-flat-youtube-title" id="si-flat-youtube"><title id="edsi-flat-youtube-title">icon youtube</title><path d="M1017.6 153.6c0-83.2-64-147.2-147.2-147.2C755.2 0 633.6 0 512 0 390.4 0 268.8 0 153.6 6.4 70.4 6.4 6.4 70.4 6.4 153.6 0 224 0 288 0 352s0 128 6.4 198.4c0 83.2 64 147.2 147.2 147.2C268.8 704 390.4 704 512 704c121.6 0 243.2 0 358.4-6.4 83.2 0 147.2-64 147.2-147.2 6.4-64 6.4-128 6.4-198.4 0-64 0-128-6.4-198.4zM384 576V128l320 224-320 224z"/></symbol></defs></svg>