<?xml version="1.0" encoding="utf-8"?><svg xmlns="http://www.w3.org/2000/svg" xmlns:xlink="http://www.w3.org/1999/xlink" style="display:none;"><symbol viewBox="0 0 20 28" id="si-geom-bookmark"><path d="M0 0h20v28l-10-6-10 6z"/></symbol><symbol viewBox="0 0 28 30" id="si-geom-calendar"><path d="M0 4h4V2a2 2 0 0 1 4 0v2h12V2a2 2 0 0 1 4 0v2h4v6H0m0 2h28v18H0"/></symbol><symbol viewBox="0 0 32 26" id="si-geom-camera"><path d="M0 4h8l2-4h12l2 4h8v22H0zm9 11a7 7 0 0 0 14 0 7 7 0 0 0-14 0"/></symbol><symbol viewBox="0 0 32.00304412841797 28" id="si-geom-chat"><path d="M32 12a16 12 0 0 0-32 0 16 12 0 0 0 16 12h2c2 2 6 4 10 4-1-1-2-4-2-6.625A16 12 0 0 0 32 12"/></symbol><symbol viewBox="0 0 30 22" id="si-geom-check"><path d="M0 10l4-4 8 8L26 0l4 4-18 18z"/></symbol><symbol viewBox="0 0 30 18" id="si-geom-chevronDown"><path d="M0 4l15 14L30 4l-4-4-11 10L4 0z"/></symbol><symbol viewBox="0 0 18 30" id="si-geom-chevronLeft"><path d="M14 0l4 4L8 15l10 11-4 4L0 15z"/></symbol><symbol viewBox="0 0 18 30" id="si-geom-chevronRight"><path d="M4 0l14 15L4 30l-4-4 10-11L0 4z"/></symbol><symbol viewBox="0 0 30 18" id="si-geom-chevronUp"><path d="M0 14L15 0l15 14-4 4L15 8 4 18z"/></symbol><symbol viewBox="0 0 32.000003814697266 32" id="si-geom-clock"><path d="M16 0A16 16 0 0 0 0 16a16 16 0 0 0 16 16 16 16 0 0 0 16-16A16 16 0 0 0 16 0m0 4a12 12 0 0 1 12 12 12 12 0 0 1-12 12A12 12 0 0 1 4 16 12 12 0 0 1 16 4m-2 2v11.25L22 22l2.25-3.5L18 14.75V6z"/></symbol><symbol viewBox="0 0 24 24" id="si-geom-close"><path d="M0 4l4-4 8 8 8-8 4 4-8 8 8 8-4 4-8-8-8 8-4-4 8-8z"/></symbol><symbol viewBox="0 0 32 24" id="si-geom-cloud"><path d="M7 10a7 7 0 0 0-7 7 7 7 0 0 0 7 7h20a5 5 0 0 0 5-5 5 5 0 0 0-5-5 10 10 0 0 0 1-4A10 10 0 0 0 18 0 10 10 0 0 0 8 10a7 7 0 0 0-1 0"/></symbol><symbol viewBox="0 0 32 32" id="si-geom-cog"><path d="M14 0h4l1 6 1.707.707L26 3.293 28.707 6l-3.414 5.293L26 13l6 1v4l-6 1-.707 1.707L28.707 26 26 28.707l-5.293-3.414L19 26l-1 6h-4l-1-6-1.707-.707L6 28.707 3.293 26l3.414-5.293L6 19l-6-1v-4l6-1 .707-1.707L3.293 6 6 3.293l5.293 3.414L13 6l1-6zm2 10a6 6 0 0 0 0 12 6 6 0 0 0 0-12"/></symbol><symbol viewBox="0 0 26 26" id="si-geom-compose"><path d="M0 2h12v4H4v16h16v-8h4v12H0zm22-2l4 4-14 14H8v-4z"/></symbol><symbol viewBox="0 0 32.000003814697266 32" id="si-geom-dribbble"><path d="M16 0A16 16 0 0 0 0 16a16 16 0 0 0 16 16 16 16 0 0 0 16-16A16 16 0 0 0 16 0M5 11.5A12 12 0 0 1 11 5a46 46 0 0 1 2.5 4.25A46 46 0 0 1 5 11.5M15 4a12 12 0 0 1 6.5 1.25 46 46 0 0 1-4.5 2.5A50 50 0 0 0 15 4M4 16a50 50 0 0 0 11-3 46 46 0 0 1 1 2.5 26 26 0 0 0-10 7A12 12 0 0 1 4 16m14.5-4.5A50 50 0 0 0 25 8a12 12 0 0 1 3 5.75 26 26 0 0 0-8.25.75 50 50 0 0 0-1.25-3m-1.5 8a46 46 0 0 1 1 8.5 12 12 0 0 1-9.25-2.5 22 22 0 0 1 8.25-6m3.75-1.25a22 22 0 0 1 7.25-.5 12 12 0 0 1-6 8.75 50 50 0 0 0-1.25-8.25"/></symbol><symbol viewBox="0 0 24 24" id="si-geom-expand"><path d="M12 0h12v12l-4-4-4 4-4-4 4-4zM0 12l4 4 4-4 4 4-4 4 4 4H0z"/></symbol><symbol viewBox="0 0 24 24" id="si-geom-external"><path d="M0 0h8v4H4v16h16v-4h4v8H0zm12 0h12v12l-4-4-8 8-4-4 8-8z"/></symbol><symbol viewBox="0 0 16 29" id="si-geom-facebook"><path d="M0 11h5V7c0-6 4-7 11-6v5c-4 0-5 0-5 3v2h5l-1 6h-4v12H5V17H0z"/></symbol><symbol viewBox="0 0 24 28" id="si-geom-file"><path d="M0 0v28h24V8l-8-8z"/></symbol><symbol viewBox="0 0 32 24" id="si-geom-folder"><path d="M0 0v24h32V4H16l-4-4z"/></symbol><symbol viewBox="0 0 28 28" id="si-geom-geolocation"><path d="M0 16L28 0 12 28V16z"/></symbol><symbol viewBox="0 0 32 27" id="si-geom-github"><path d="M0 15c0-6 3-8 3-9-.5-2-.5-5 0-6 3 0 6 2 7 3 2-1 4-1 6-1s4 0 6 1c1-1 4-3 7-3 .5 1 .5 4 0 6 0 1 3 3 3 9 0 7-2 12-16 12S0 22 0 15m3 2c0 4 1 8 13 8s13-4 13-8-1-6-13-6-13 2-13 6m5 1a2.5 4.167 0 0 0 5 0 2.5 4.167 0 0 0-5 0m16 0a2.5 4.167 0 0 0-5 0 2.5 4.167 0 0 0 5 0z"/></symbol><symbol viewBox="0 0 28 28" id="si-geom-grid"><path d="M0 0h8v8H0zm10 0h8v8h-8zm10 0h8v8h-8zM0 10h8v8H0zm10 0h8v8h-8zm10 0h8v8h-8zM0 20h8v8H0zm10 0h8v8h-8zm10 0h8v8h-8z"/></symbol><symbol viewBox="0 0 32 28" id="si-geom-heart"><path d="M0 8c0-4 3-8 8-8 4 0 7 3 8 4 1-1 4-4 8-4 6 0 8 4 8 8 0 8-14 19-16 20C14 27 0 16 0 8"/></symbol><symbol viewBox="0 0 32 30" id="si-geom-home"><path d="M16 0l16 16h-4v14h-8V20h-8v10H4V16H0z"/></symbol><symbol viewBox="0 0 32 32" id="si-geom-info"><path d="M16 0a16 16 0 0 1 0 32 16 16 0 0 1 0-32m3 15h-6v11h6zm-3-9a3 3 0 0 0 0 6 3 3 0 0 0 0-6"/></symbol><symbol viewBox="0 0 32 16" id="si-geom-link"><path d="M0 8a8 8 0 0 1 8-8h6a8 8 0 0 1 8 8h-4a4 4 0 0 0-4-4H8a4 4 0 0 0-4 4 4 4 0 0 0 4 4l2 4H8a8 8 0 0 1-8-8zm22-8h2a8 8 0 0 1 8 8 8 8 0 0 1-8 8h-6a8 8 0 0 1-8-8h4a4 4 0 0 0 4 4h6a4 4 0 0 0 4-4 4 4 0 0 0-4-4z"/></symbol><symbol viewBox="0 0 25 22" id="si-geom-list"><path d="M0 3a3 3 0 0 0 6 0 3 3 0 0 0-6 0m9-2h16v4H9zM0 11a3 3 0 0 0 6 0 3 3 0 0 0-6 0m9-2h16v4H9zM0 19a3 3 0 0 0 6 0 3 3 0 0 0-6 0m9-2h16v4H9z"/></symbol><symbol viewBox="0 0 24 28" id="si-geom-lock"><path d="M18 14v-4a6 6 0 0 0-12 0v4zM0 14h2v-4a10 10 0 0 1 20 0v4h2v14H0z"/></symbol><symbol viewBox="0 0 32 20" id="si-geom-mail"><path d="M0 0l16 10L32 0zm0 3v17h32V3L16 13z"/></symbol><symbol viewBox="0 0 30.1162052154541 28" id="si-geom-musicNote"><path d="M.116 22a6 6 0 0 0 12 0V6h14v10a6 6 0 0 0-8 6 6 6 0 0 0 12 0V0h-22v16a6 6 0 0 0-8 6"/></symbol><symbol viewBox="0 0 24 24" id="si-geom-next"><path d="M0 0l20 10V0h4v24h-4V14L0 24z"/></symbol><symbol viewBox="0 0 32.000003814697266 32" id="si-geom-no"><path d="M16 0A16 16 0 0 0 0 16a16 16 0 0 0 16 16 16 16 0 0 0 16-16A16 16 0 0 0 16 0m0 6a10 10 0 0 1 4.675 1L7 20.675A10 10 0 0 1 6 16 10 10 0 0 1 16 6m10 10a10 10 0 0 1-10 10 10 10 0 0 1-4.675-1L25 11.325A10 10 0 0 1 26 16"/></symbol><symbol viewBox="0 0 24 24" id="si-geom-pause"><path d="M0 0h8v24H0zm16 0h8v24h-8z"/></symbol><symbol viewBox="0 0 32 24" id="si-geom-picture"><path d="M0 0v24h32V0zm4 20l6-14 5 8 3-4 6 10zM25 3a4 4 0 0 1 0 8 4 4 0 0 1 0-8"/></symbol><symbol viewBox="0 0 24.000003814697266 32" id="si-geom-pin"><path d="M0 12a12 12 0 0 1 24 0c0 8-12 20-12 20S0 20 0 12m7 0a5 5 0 0 0 10 0 5 5 0 0 0-10 0z"/></symbol><symbol viewBox="0 0 24 24" id="si-geom-play"><path d="M0 0l24 12L0 24z"/></symbol><symbol viewBox="0 0 24 24" id="si-geom-previous"><path d="M0 0h4v10L24 0v24L4 14v10H0z"/></symbol><symbol viewBox="0 0 28.000001907348633 28.106983184814453" id="si-geom-refresh"><path d="M14 .053a14 14 0 0 0-14 14 14 14 0 0 0 14 14 14 14 0 0 0 10-4l-2.75-3a10 10 0 0 1-7.25 3 10 10 0 0 1-10-10 10 10 0 0 1 10-10 10 10 0 0 1 7.25 3l-4.25 4h11v-11l-4 4a14 14 0 0 0-10-4"/></symbol><symbol viewBox="0 0 32 18" id="si-geom-repost"><path d="M7 0l7 7H9v6h7v4H5V7H0zm9 1h11v10h5l-7 7-7-7h5V5h-7z"/></symbol><symbol viewBox="0 0 32.000003814697266 32" id="si-geom-search"><path d="M12 0A12 12 0 0 0 0 12a12 12 0 0 0 12 12 12 12 0 0 0 6.5-1.75L28 32l4-4-9.75-9.5A12 12 0 0 0 24 12 12 12 0 0 0 12 0m0 4a8 8 0 0 1 0 16 8 8 0 0 1 0-16"/></symbol><symbol viewBox="0 0 30 26" id="si-geom-shoppingCart"><path d="M0 0h5l1 4h24l-2 14H6L3.5 2H0zm10 20a3 3 0 0 0 0 6 3 3 0 0 0 0-6m14 0a3 3 0 0 0 0 6 3 3 0 0 0 0-6"/></symbol><symbol viewBox="0 0 28 30" id="si-geom-skull"><path d="M14 0C4 0 0 4 0 14v8l4 2v6h20v-6l4-2v-8C28 4 24 0 14 0M7 12a4.5 4.5 0 0 1 0 9 4.5 4.5 0 0 1 0-9m14 0a4.5 4.5 0 0 1 0 9 4.5 4.5 0 0 1 0-9"/></symbol><symbol viewBox="0 0 14 20" id="si-geom-speaker"><path d="M0 6h6l8-6v20l-8-6H0z"/></symbol><symbol viewBox="0 0 30 22.75" id="si-geom-speakerVolume"><path d="M0 7.375h6l8-6v20l-8-6H0zm30 4a16 16 0 0 1-4.75 11.375l-2-2.125a13 13 0 0 0 3.75-9.25 13 13 0 0 0-3.75-9.25l2-2.125A16 16 0 0 1 30 11.375m-7 0a9 9 0 0 1-2.625 6.375l-2.125-2.125a6 6 0 0 0 1.75-4.25 6 6 0 0 0-1.75-4.25L20.375 5A9 9 0 0 1 23 11.375"/></symbol><symbol viewBox="0 0 32 31" id="si-geom-star"><path d="M16 0l5 11 11 1-9 7 3 12-10-6-10 6 3-12-9-7 11-1"/></symbol><symbol viewBox="0 0 30 30" id="si-geom-tag"><path d="M0 16L16 0l13 1 1 13-16 16zm20-9a3 3 0 0 0 6 0 3 3 0 0 0-6 0"/></symbol><symbol viewBox="0 0 26 28" id="si-geom-trash"><path d="M1 2h6l2-2h8l2 2h6l1 4H0zm1 6h22l-1 20H3z"/></symbol><symbol viewBox="0 0 24 18" id="si-geom-triangleDown"><path d="M0 0h24L12 18z"/></symbol><symbol viewBox="0 0 18 24" id="si-geom-triangleLeft"><path d="M18 0v24L0 12z"/></symbol><symbol viewBox="0 0 18 24" id="si-geom-triangleRight"><path d="M0 0v24l18-12z"/></symbol><symbol viewBox="0 0 24 18" id="si-geom-triangleUp"><path d="M0 18h24L12 0z"/></symbol><symbol viewBox="0 0 32 26.373424530029297" id="si-geom-twitter"><path d="M2 .364c4 4 8 8 13 7a6 6 0 0 1 7-7 6 6 0 0 1 4 2 8 8 0 0 0 5-2 8 8 0 0 1-3 4 8 8 0 0 0 4-1 8 8 0 0 1-4 4 18 18 0 0 1-18 19 18 18 0 0 1-10-3 12 12 0 0 0 8-3 8 8 0 0 1-5-4 8 8 0 0 0 3-.5 8 8 0 0 1-6-7.5 8 8 0 0 0 3 1 8 8 0 0 1-1-9"/></symbol><symbol viewBox="0 0 28 26" id="si-geom-user"><path d="M8 6a6 6 0 0 1 12 0v4a6 6 0 0 1-12 0zM0 24c1-3 8-6 12-6h4c4 0 11 3 12 6v2H0z"/></symbol><symbol viewBox="0 0 32 20" id="si-geom-video"><path d="M0 0v20h24v-7l8 4V3l-8 4V0z"/></symbol><symbol viewBox="0 0 32 30" id="si-geom-warning"><path d="M15 0h2l15 29-1 1H1l-1-1zm4 8h-6l1 12h4zm-3 14a3 3 0 0 0 0 6 3 3 0 0 0 0-6"/></symbol></svg>