<?xml version="1.0" encoding="utf-8"?><svg xmlns="http://www.w3.org/2000/svg" xmlns:xlink="http://www.w3.org/1999/xlink" style="display:none;"><symbol viewBox="0 0 11 11" id="si-maki-aerialway-11"><path d="M9 4.5H6V3.1a1 1 0 0 0 .43-.52L9.5 2a.5.5 0 0 0 0-1l-3.25.61a1 1 0 0 0-1.69.32L1.5 2.5a.5.5 0 0 0 0 1l3.25-.61A1 1 0 0 0 5 3.1v1.4H2a1 1 0 0 0-1 1V9a1 1 0 0 0 1 1h7a1 1 0 0 0 1-1V5.5a1 1 0 0 0-1-1zm-4 4H2.5v-3H5v3zm3.5 0H6v-3h2.5v3z"/></symbol><symbol viewBox="0 0 15 15" id="si-maki-aerialway-15"><path d="M13 5H8V2.6a1 1 0 0 0 .42-.46l5.08-.64a.5.5 0 0 0 0-1l-5.22.65a1 1 0 0 0-.78-.4 1 1 0 0 0-.92.62L1.5 2a.5.5 0 0 0 0 1l5.22-.65c.077.1.172.185.28.25V5H2a1 1 0 0 0-1 1v7a1 1 0 0 0 1 1h11a1 1 0 0 0 1-1V6a1 1 0 0 0-1-1zm-6 6H3V7h4v4zm5 0H8V7h4v4z"/></symbol><symbol viewBox="0 0 11 11" id="si-maki-airfield-11"><path d="M5 .5H3.5C3 .5 3 0 3.5 0h4c.5 0 .5.5 0 .5H6s.5.5.5 1.5v1H11v1.5l-4.5 2L6 10l1.5.5v.5h-4v-.5L5 10l-.5-3.5-4.5-2V3h4.5V2C4.5 1 5 .5 5 .5z"/></symbol><symbol viewBox="0 0 15 15" id="si-maki-airfield-15"><path d="M6.818.682H4.773C4.09.682 4.09 0 4.773 0h5.454c.682 0 .682.682 0 .682H8.182S9 1.272 9 2.636V4h6v2L9 8l-.5 5 2.5 1.318V15H4v-.682L6.5 13 6 8 0 6V4h6V2.636c0-1.363.818-1.954.818-1.954z"/></symbol><symbol viewBox="0 0 11 11" id="si-maki-airport-11"><path d="M6.5 6.4V6l4.5.5V5L6.5 3.2V1.5C6.5.5 6 0 5.5 0s-1 .5-1 1.5v1.7L0 5v1.4L4.5 6v3.3L3 10v1l2.5-.5L8 11v-1l-1.5-.8V6.4z"/></symbol><symbol viewBox="0 0 15 15" id="si-maki-airport-15"><path d="M15 6.818V8.5l-6.5-1-.318 4.773L11 14v1l-3.5-.682L4 15v-1l2.818-1.727L6.5 7.5 0 8.5V6.818L6.5 4.5v-3s0-1.5 1-1.5 1 1.5 1 1.5v2.818l6.5 2.5z"/></symbol><symbol viewBox="0 0 11 11" id="si-maki-alcohol-shop-11"><path d="M7 4v2.5a1.5 1.5 0 0 0 1 1.41V10h-.5a.5.5 0 0 0 0 1h2a.5.5 0 0 0 0-1H9V7.91a1.5 1.5 0 0 0 1-1.41V4H7zm2.5 2.5a1 1 0 1 1-2 0v-2h2v2zM4.21 2.85V2.5a.355.355 0 1 0 0-.71v-.35a.35.35 0 0 0-.36-.35h-.71a.35.35 0 0 0-.36.34v.36a.355.355 0 1 0 0 .71v.35C2.79 3.87 1 5 1 6v4.25a.7.7 0 0 0 .71.71h3.58a.79.79 0 0 0 .71-.67V6c0-.91-1.79-2.19-1.79-3.15zM3.5 9a1.5 1.5 0 1 1 0-3 1.5 1.5 0 0 1 0 3z"/></symbol><symbol viewBox="0 0 15 15" id="si-maki-alcohol-shop-15"><path d="M14 4h-4v3.5a2 2 0 0 0 1.5 1.93V13H11a.5.5 0 0 0 0 1h2a.5.5 0 0 0 0-1h-.5V9.43A2 2 0 0 0 14 7.5V4zm-1 3.5a1 1 0 1 1-2 0V5h2v2.5zm-7.5-5V2a.5.5 0 0 0 0-1V.5A.5.5 0 0 0 5 0H4a.5.5 0 0 0-.5.5V1a.5.5 0 0 0 0 1v.5C3.5 3.93 1 5.57 1 7v6a1 1 0 0 0 1 1h5a1.1 1.1 0 0 0 1-1V7c0-1.35-2.5-3.15-2.5-4.5zm-1 9.5a2.5 2.5 0 1 1 0-5 2.5 2.5 0 0 1 0 5z"/></symbol><symbol viewBox="0 0 11 11" id="si-maki-america-football-11"><path d="M5.53 2C2.47 2 1 5.5 1 5.5S2.47 9 5.53 9 10 5.5 10 5.5 8.6 2 5.53 2zM7 6H4a.5.5 0 0 1 0-1h3a.5.5 0 0 1 0 1z"/></symbol><symbol viewBox="0 0 15 15" id="si-maki-america-football-15"><path d="M7.53 3C3.09 3 1 7.5 1 7.5S3.09 12 7.53 12 14 7.5 14 7.5 12 3 7.53 3zM11 7v1.5a.5.5 0 0 1-1 0V8H8v.5a.5.5 0 0 1-1 0V8H5v.5a.5.5 0 0 1-1 0v-2a.5.5 0 0 1 1 0V7h2v-.5a.5.5 0 0 1 1 0V7h2v-.5a.5.5 0 0 1 1 0V7z"/></symbol><symbol viewBox="0 0 11 11" id="si-maki-amusement-park-11"><path d="M5.5 1C3.02 1 1 3.02 1 5.5c0 1.792 1.063 3.332 2.584 4.055L2.5 11h6L7.416 9.555C8.937 8.832 10 7.292 10 5.5 10 3.02 7.98 1 5.5 1zm-.125 1.012v1.994a1.5 1.5 0 0 0-.844.35L3.12 2.942a3.475 3.475 0 0 1 2.256-.931zm.25 0c.874.03 1.66.377 2.256.931L6.469 4.356l-.002-.002a1.5 1.5 0 0 0-.842-.348V2.012zM2.943 3.119l1.412 1.412s0 .002-.002.002a1.5 1.5 0 0 0-.347.842H2.012c.03-.874.377-1.66.931-2.256zm5.114 0c.554.596.9 1.382.931 2.256H6.994a1.5 1.5 0 0 0-.35-.844L8.058 3.12zM2.012 5.625h1.994a1.5 1.5 0 0 0 .35.844L2.942 7.88a3.475 3.475 0 0 1-.931-2.256zm4.982 0h1.994a3.474 3.474 0 0 1-.931 2.256L6.644 6.469l.002-.002a1.5 1.5 0 0 0 .348-.842zm-2.463 1.02s.002 0 .002.002A1.5 1.5 0 0 0 5 6.911v2.04a3.47 3.47 0 0 1-1.88-.895l1.41-1.412zm1.938 0L7.88 8.056A3.47 3.47 0 0 1 6 8.95V6.912a1.5 1.5 0 0 0 .469-.268z"/></symbol><symbol viewBox="0 0 15 15" id="si-maki-amusement-park-15"><path d="M7.5 0C3.919 0 1 2.919 1 6.5c0 2.316 1.225 4.348 3.057 5.5H4l-1 2h9l-1-2h-.057C12.775 10.848 14 8.816 14 6.5 14 2.919 11.081 0 7.5 0zm-.125 1.506v3.5a1.5 1.5 0 0 0-.844.35L4.057 2.88a4.972 4.972 0 0 1 3.318-1.375zm.25 0c1.29.032 2.45.55 3.318 1.375L8.47 5.356l-.002-.002a1.5 1.5 0 0 0-.842-.348v-3.5zm-3.744 1.55l2.475 2.475-.002.002a1.5 1.5 0 0 0-.348.842h-3.5c.032-1.29.55-2.45 1.375-3.318zm7.238 0a4.972 4.972 0 0 1 1.375 3.319h-3.5a1.5 1.5 0 0 0-.35-.844l2.475-2.474zm-8.613 3.57h3.5a1.5 1.5 0 0 0 .35.844L3.88 9.943a4.972 4.972 0 0 1-1.375-3.318zm6.488 0h3.5a4.972 4.972 0 0 1-1.375 3.318L8.645 7.47s0-.002.002-.002a1.5 1.5 0 0 0 .347-.842zm-2.463 1.02s.002 0 .002.002A1.5 1.5 0 0 0 7 7.911v3.563a4.97 4.97 0 0 1-2.943-1.356L6.53 7.645zm1.938 0l2.474 2.474A4.97 4.97 0 0 1 8 11.475V7.912a1.5 1.5 0 0 0 .469-.268z"/></symbol><symbol viewBox="0 0 11 11" id="si-maki-aquarium-11"><path d="M8 1c-.876 0-1.85.092-3.004.527C3.843 1.962 2.848 2.657 2 3.5c-.852.847-2 2.5-2 3s1.135 1.943 2.678 2.621c1.542.678 2.39.798 3.283.895.797.086 1.942-.027 2.885-.233C9.592 9.621 10.994 9.31 11 9c0 0-2.756-.063-3-.5-.249-.445-.25-1.586 0-2 .258-.428 2.5 1 2.5 1 .644.258.644-4.258 0-4 0 0-2.277 1.447-2.5 1-.25-.5-.25-1.5 0-2 .223-.447 3-.5 3-.5 0-.5-2.124-1-3-1zM3.514 4.502a1.014 1.014 0 1 1 0 2.028 1.014 1.014 0 0 1 0-2.028z"/></symbol><symbol viewBox="0 0 15 15" id="si-maki-aquarium-15"><path d="M10.9 11.6c-.3-.6-.3-2.3 0-2.8.4-.6 3.4 1.4 3.4 1.4.9.4.9-6.1 0-5.7 0 0-3.1 2.1-3.4 1.4-.3-.7-.3-2.1 0-2.8.3-.6 4.1-.7 4.1-.7 0-.7-2.9-1.4-4.1-1.4s-2.5.1-4.1.8c-1.6.6-2.9 1.6-4.1 2.8S0 8.2 0 8.9s1.5 2.8 3.7 3.7 3.3 1.1 4.5 1.3c1.1.1 2.6 0 3.9-.3 1-.2 2.9-.7 2.9-1.1 0-.2-3.8-.3-4.1-.9zM4.5 9.3C3.7 9.3 3 8.6 3 7.8s.7-1.5 1.5-1.5S6 7 6 7.8s-.7 1.5-1.5 1.5z"/></symbol><symbol viewBox="0 0 11 11" id="si-maki-art-gallery-11"><path d="M8.21 3L5.85.65a.5.5 0 0 0-.707-.003L5.14.65 2.79 3H1.5a.5.5 0 0 0-.5.5v6a.5.5 0 0 0 .5.5h8a.5.5 0 0 0 .5-.5v-6a.5.5 0 0 0-.5-.5H8.21zM5.5 1.71L6.79 3H4.21L5.5 1.71zM9 9H2V4h7v5zM4.5 5.5a.5.5 0 1 1-1 0 .5.5 0 0 1 1 0zM8 8H4l.75-1.5.5 1L6.5 5 8 8z"/></symbol><symbol viewBox="0 0 15 15" id="si-maki-art-gallery-15"><path d="M10.71 4L7.85 1.15a.5.5 0 0 0-.707-.003l-.003.003L4.29 4H1.5a.5.5 0 0 0-.5.5v9a.5.5 0 0 0 .5.5h12a.5.5 0 0 0 .5-.5v-9a.5.5 0 0 0-.5-.5h-2.79zM7.5 2.21L9.29 4H5.71L7.5 2.21zM13 13H2V5h11v8zM5 8a1 1 0 1 1 0-2 1 1 0 0 1 0 2zm7 4H4.5L6 9l1.25 2.5L9.5 7l2.5 5z"/></symbol><symbol viewBox="0 0 11 11" id="si-maki-attraction-11"><path d="M4.5 1.5s-.5 0-.7.5l-.3.5H1c-.6 0-1 .4-1 1v5c0 .6.4 1 1 1h9c.6 0 1-.4 1-1v-5c0-.6-.4-1-1-1H7.5L7.2 2c-.2-.5-.7-.5-.7-.5h-2zm1 2C6.9 3.5 8 4.6 8 6S6.9 8.5 5.5 8.5 3 7.4 3 6s1.1-2.5 2.5-2.5zm0 1.5c-.6 0-1 .4-1 1s.4 1 1 1 1-.4 1-1-.4-1-1-1z"/></symbol><symbol viewBox="0 0 15 15" id="si-maki-attraction-15"><path d="M6 2c-.554 0-.752.505-1 1l-.5 1h-2C1.669 4 1 4.669 1 5.5v5c0 .831.669 1.5 1.5 1.5h10c.831 0 1.5-.669 1.5-1.5v-5c0-.831-.669-1.5-1.5-1.5h-2L10 3c-.25-.5-.446-1-1-1H6zM2.5 5a.5.5 0 1 1 0 1 .5.5 0 0 1 0-1zm5 0a3 3 0 1 1 0 6 3 3 0 0 1 0-6zm0 1.5a1.5 1.5 0 0 0 0 3 1.5 1.5 0 0 0 0-3z"/></symbol><symbol viewBox="0 0 11 11" id="si-maki-bakery-11"><path d="M4.5 2c-1 0-1 1-1 1L5 7.5s0 .5.5.5.5-.5.5-.5L7.5 3s0-1-1-1h-2zM9 3.5l-2 4h1.5l1 1h.5c1 0 1-.9 1-.9V6.3L9 3.5zM0 6.3v1.2s.03 1.01 1 1c.97-.01.5 0 .5 0l1-1H4l-2-4-2 2.8z"/></symbol><symbol viewBox="0 0 15 15" id="si-maki-bakery-15"><path d="M5.294 4.382L6 9.5s0 1 1 1h1c1 0 1-1 1-1l.706-5.118C9.706 3 7.5 3 7.5 3S5.291 3 5.294 4.382zM3.5 5C2 5 2 6 2 6l1 4h1.5c.755 0 .794-.765.794-.765L4.5 5h-1zm-2 2.5s-.618-.03-1.059.412C0 8.352 0 8.794 0 8.794V11h.882C2 11 2 10 2 10l-.5-2.5zm10-2.5C13 5 13 6 13 6l-1 4h-1.5c-.755 0-.794-.765-.794-.765L10.5 5h1zm2 2.5s.618-.03 1.059.412c.441.44.441.882.441.882V11h-.882C13 11 13 10 13 10l.5-2.5z"/></symbol><symbol viewBox="0 0 11 11" id="si-maki-bank-11"><path d="M1 2C0 2 0 3 0 3v5c0 1 1 1 1 1h9c1 0 1-1 1-1V3s0-1-1-1H1zm0 1h1.5a.5.5 0 1 1-.5.5l-.5.5a.5.5 0 1 1-.5.5V3zm4.5 0c1.105 0 2 1.12 2 2.5S6.605 8 5.5 8s-2-1.12-2-2.5.895-2.5 2-2.5zm3 0H10v1.5a.5.5 0 1 1-.5-.5L9 3.5a.5.5 0 1 1-.5-.5zm-7 3a.5.5 0 0 1 0 1l.5.5a.5.5 0 1 1 .5.5H1V6.5a.5.5 0 0 1 .5-.5zm8 0a.5.5 0 0 1 .5.5V8H8.5a.5.5 0 1 1 .5-.5l.5-.5a.5.5 0 0 1 0-1z"/><path d="M4.902 4.25a1.157 1.157 0 0 0-.2.25h1.597a1.158 1.158 0 0 0-.201-.25H4.902zm-.316.5a1.48 1.48 0 0 0-.065.25h1.96a1.479 1.479 0 0 0-.065-.25h-1.83zm-.086.5c0 .084.006.168.02.25h1.959c.013-.082.02-.166.021-.25h-2zm.086.5a1.3 1.3 0 0 0 .117.25H6.3c.046-.077.084-.161.115-.25H4.586zm.316.5l.034.031L4.5 6.5h2l-.436-.219.034-.031H4.902zm-.32.5c.029.079.056.16.11.25h1.626c.053-.091.078-.171.106-.25H4.582zm.31.5c.147.141.341.25.608.25.274 0 .47-.108.617-.25H4.893z"/></symbol><symbol viewBox="0 0 15 15" id="si-maki-bank-15"><path d="M1 3c-.554 0-1 .446-1 1v7c0 .554.446 1 1 1h13c.554 0 1-.446 1-1V4c0-.554-.446-1-1-1H1zm0 1h1.5a.5.5 0 1 1-.5.5l-.5.5a.5.5 0 1 1-.5.5V4zm6.5 0C8.88 4 10 5.567 10 7.5S8.88 11 7.5 11 5 9.433 5 7.5 6.12 4 7.5 4zm5 0H14v1.5a.5.5 0 1 1-.5-.5l-.5-.5a.5.5 0 1 1-.5-.5zm-5 1.5c-.323 0-.534.109-.682.25h1.364c-.148-.141-.359-.25-.682-.25zm-.875.5c-.045.091-.062.171-.08.25h1.91c-.018-.079-.034-.159-.08-.25h-1.75zm-.125.5v.25h2V6.5h-2zm0 .5v.25h2V7h-2zm0 .5v.25h2V7.5h-2zm0 .5l-.25.25h2L8.5 8h-2zm-.5.5s.035.102.102.25h2.273L8 8.5H6zM1.5 9a.5.5 0 0 1 0 1l.5.5a.5.5 0 1 1 .5.5H1V9.5a.5.5 0 0 1 .5-.5zm4.738 0c.046.086.076.159.137.25h2.268c.066-.138.107-.25.107-.25H6.238zM13.5 9a.5.5 0 0 1 .5.5V11h-1.5a.5.5 0 1 1 .5-.5l.5-.5a.5.5 0 0 1 0-1zm-6.934.5c.079.091.165.176.26.25h1.42c.1-.077.188-.162.254-.25H6.566z"/></symbol><symbol viewBox="0 0 11 11" id="si-maki-bar-11"><path d="M5.488 1C4.976 1 .5 1 1 1.5L5 6v2.5C5 9 2.5 9 2.5 10h6C8.5 9 6 9 6 8.5V6l4-4.5C10.5 1 6 1 5.488 1zM2.5 2h6l-1 1h-4l-1-1z"/></symbol><symbol viewBox="0 0 15 15" id="si-maki-bar-15"><path d="M7.5 1c-2 0-7 .25-6.5.75L7 8v4c0 1-3 .5-3 2h7c0-1.5-3-1-3-2V8l6-6.25c.5-.5-4.5-.75-6.5-.75zm0 1c2.5 0 4.75.25 4.75.25L11.5 3h-8l-.75-.75S5 2 7.5 2z"/></symbol><symbol viewBox="0 0 11 11" id="si-maki-baseball-11"><path d="M7 3a1 1 0 1 1-2 0 1 1 0 0 1 2 0zm2.85 7.24l-3-4.85a.86.86 0 0 0-.5-.39H2.5a.5.5 0 0 0 0 1H5l.92 1.09-2.73 3a.49.49 0 0 0-.19.41.5.5 0 0 0 .5.5.49.49 0 0 0 .33-.13l3-2.71L9 10.81a.49.49 0 0 0 .38.19.5.5 0 0 0 .5-.5.49.49 0 0 0-.03-.26zM4 .28A.28.28 0 0 0 3.72 0a.49.49 0 0 0-.25.16L2 4.59a.48.48 0 0 0 0 .13c0 .155.125.28.28.28a.49.49 0 0 0 .26-.16L4 .41a.472.472 0 0 0 0-.13z"/></symbol><symbol viewBox="0 0 15 15" id="si-maki-baseball-15"><path d="M10 3.5a1.5 1.5 0 1 1-3 0 1.5 1.5 0 0 1 3 0zM7 .28A.28.28 0 0 0 6.72 0a.49.49 0 0 0-.25.16L4 4.59a.48.48 0 0 0 0 .13c0 .155.125.28.28.28a.49.49 0 0 0 .26-.16L7 .41a.472.472 0 0 0 0-.13zm5.9 13.92L10 6.39A.49.49 0 0 0 9.52 6h-5a.5.5 0 0 0 0 1H7l1.45 2.51-4.27 4.61a.49.49 0 0 0-.18.38.5.5 0 0 0 .5.5.49.49 0 0 0 .33-.13l4.45-4.15 2.76 4a.51.51 0 0 0 .44.26c.28 0 .51-.22.52-.5a.5.5 0 0 0-.1-.28z"/></symbol><symbol viewBox="0 0 11 11" id="si-maki-basketball-11"><path d="M11 1a1 1 0 1 1-2 0 1 1 0 0 1 2 0zM4.5 3a1.5 1.5 0 1 0 0-3 1.5 1.5 0 0 0 0 3zm3.89 6.69L6 6.59V4.5h.5a.49.49 0 0 0 .41-.23l1.5-2A.49.49 0 0 0 8.5 2a.5.5 0 0 0-.86-.34L6.25 3.5H2.5a.5.5 0 0 0-.36.16l-2 2.54a.49.49 0 0 0-.14.3.5.5 0 0 0 .5.5.49.49 0 0 0 .41-.23L2.74 4.5H3v2.09L.61 9.69a.5.5 0 0 0 .39.81.49.49 0 0 0 .41-.23L3.94 7h1.12l2.52 3.27A.5.5 0 0 0 8.5 10a.49.49 0 0 0-.11-.3v-.01z"/></symbol><symbol viewBox="0 0 15 15" id="si-maki-basketball-15"><path d="M9 3.5a1.5 1.5 0 1 1-3 0 1.5 1.5 0 0 1 3 0zM14 1a1 1 0 1 0 0 2 1 1 0 0 0 0-2zm-2.11 12.19L9 9.58V6.5h.5a.49.49 0 0 0 .41-.23l1.94-2.42.06-.08A.49.49 0 0 0 12 3.5a.5.5 0 0 0-.86-.34L9.26 5.5H5.5a.5.5 0 0 0-.36.16l-2 2.54a.49.49 0 0 0-.14.3.5.5 0 0 0 .5.5.49.49 0 0 0 .41-.23L5.74 6.5H6v3.08l-2.89 3.61a.49.49 0 0 0-.11.3.5.5 0 0 0 .5.5.49.49 0 0 0 .41-.23l3-3.77h1.15l3 3.77a.49.49 0 0 0 .41.23.5.5 0 0 0 .5-.5.49.49 0 0 0-.11-.3h.03z"/></symbol><symbol viewBox="0 0 11 11" id="si-maki-beer-11"><path d="M5.5 1c-2.3 0-3 .66-3 .66v2a6.6 6.6 0 0 0 .66 2.65 4.13 4.13 0 0 1 0 3s0 .66 2.32.66 2.32-.66 2.32-.66a4.13 4.13 0 0 1 0-3 6.6 6.6 0 0 0 .66-2.65v-2S7.8 1 5.5 1zm0 8.28a4.77 4.77 0 0 1-1.56-.18c.133-.479.2-.973.2-1.47h2.72c-.014.22-.014.44 0 .66.034.274.087.544.16.81a4.77 4.77 0 0 1-1.52.19v-.01zm2.32-6a8.24 8.24 0 0 1-4.63 0L3.18 2a8.28 8.28 0 0 1 4.64 0s.03 1.33 0 1.33v-.05z"/></symbol><symbol viewBox="0 0 15 15" id="si-maki-beer-15"><path d="M12 5V2s-1-1-4.5-1S3 2 3 2v3a9.27 9.27 0 0 0 1 4 5.63 5.63 0 0 1 0 4.5s0 1 3.5 1 3.5-1 3.5-1A5.63 5.63 0 0 1 11 9a9.27 9.27 0 0 0 1-4zm-4.5 8.5a7.368 7.368 0 0 1-2.36-.28c.203-.722.304-1.47.3-2.22h4.12c-.004.75.097 1.498.3 2.22a7.368 7.368 0 0 1-2.36.28zm0-8.5A10.65 10.65 0 0 1 4 4.5v-2A10.74 10.74 0 0 1 7.5 2a10.74 10.74 0 0 1 3.5.5v2c-1.13.36-2.314.53-3.5.5z"/></symbol><symbol viewBox="0 0 11 11" id="si-maki-bicycle-11"><path d="M6.5 1.5c-.676-.01-.676 1.01 0 1H7v.711l-2.748 1.57L3.738 3.5h.715c.676.01.676-1.01 0-1H2.426c-.676-.01-.676 1.01 0 1h.234l.432 1.078A2.461 2.461 0 0 0 2.5 4.5C1.125 4.5 0 5.625 0 7s1.125 2.5 2.5 2.5S5 8.375 5 7c0-.471-.14-.908-.37-1.285l2.472-1.412.402.408A2.507 2.507 0 0 0 6 7.001c0 1.374 1.125 2.5 2.5 2.5S11 8.374 11 7c0-1.297-1.003-2.358-2.27-2.478L8 3.794V2a.5.5 0 0 0-.5-.5h-1zm-4 4C3.334 5.5 4 6.166 4 7s-.666 1.5-1.5 1.5S1 7.834 1 7s.666-1.5 1.5-1.5zm5.955.004h.002a.45.45 0 0 0 .09 0A1.49 1.49 0 0 1 10 7c0 .834-.666 1.5-1.5 1.5S7 7.835 7 7a1.49 1.49 0 0 1 1.455-1.496z"/></symbol><symbol viewBox="0 0 15 15" id="si-maki-bicycle-15"><path d="M7.5 2c-.676-.01-.676 1.01 0 1H9v1.266L6.197 6.6 5.223 4H5.5c.676.01.676-1.01 0-1h-2c-.676-.01-.676 1.01 0 1h.652l.891 2.375A3.45 3.45 0 0 0 3.5 6C1.573 6 0 7.573 0 9.5S1.573 13 3.5 13 7 11.427 7 9.5c0-.67-.2-1.291-.53-1.824l2.821-2.35.463 1.16C8.71 7.094 8 8.211 8 9.5c0 1.927 1.573 3.5 3.5 3.5S15 11.427 15 9.5 13.427 6 11.5 6c-.283 0-.554.043-.818.107L10 4.402V2.5a.5.5 0 0 0-.5-.5h-2zm-4 5a2.48 2.48 0 0 1 1.555.553L3.18 9.115c-.511.427.128 1.195.64.77l1.875-1.563c.188.352.305.75.305 1.178C6 10.887 4.887 12 3.5 12S1 10.887 1 9.5 2.113 7 3.5 7zm8 0C12.887 7 14 8.113 14 9.5S12.887 12 11.5 12 9 10.887 9 9.5a2.49 2.49 0 0 1 1.125-2.088l.91 2.274c.246.623 1.18.25.93-.372l-.908-2.27C11.2 7.02 11.348 7 11.5 7z"/></symbol><symbol viewBox="0 0 11 11" id="si-maki-bicycle-share-11"><path d="M8 0a1 1 0 1 0 0 2 1 1 0 0 0 0-2zM6.014 2a.5.5 0 0 0-.368.147l-2 2a.5.5 0 0 0 0 .707L5 6.207V8.5a.5.5 0 1 0 1 0V6a.5.5 0 0 0-.144-.353l-.752-.752L6.27 3.692l.832 1.11A.5.5 0 0 0 7.5 5h2a.5.5 0 1 0 0-1H7.75L6.4 2.2a.5.5 0 0 0-.386-.2zm-3.65 4.004a2.502 2.502 0 0 0-2.36 2.492 2.5 2.5 0 1 0 4.367 1.666.5.5 0 0 0-.748-.664 1.498 1.498 0 1 1-2.62-1 1.499 1.499 0 0 1 .97-1.4 1.498 1.498 0 0 1 1.654.408.5.5 0 1 0 .749-.663h-.001a2.506 2.506 0 0 0-2.012-.838zm6.279 0a2.499 2.499 0 0 0-2.014.838.5.5 0 1 0 .75.664 1.495 1.495 0 0 1 1.652-.408c.584.221.968.776.969 1.4a1.498 1.498 0 0 1-2.62 1 .5.5 0 1 0-.745.664 2.503 2.503 0 0 0 2.758.674 2.5 2.5 0 1 0-.75-4.832z"/></symbol><symbol viewBox="0 0 15 15" id="si-maki-bicycle-share-15"><path d="M10 1a1 1 0 1 0 0 2 1 1 0 0 0 0-2zM8.145 2.994a.5.5 0 0 0-.348.143l-2.64 2.5a.5.5 0 0 0 .042.763L7 7.75v2.75c-.01.676 1.01.676 1 0v-3a.5.5 0 0 0-.2-.4l-.767-.577 1.818-1.72.749.998A.5.5 0 0 0 10 6h1.5c.676.01.676-1.01 0-1h-1.25L9.5 4l-.6-.8a.5.5 0 0 0-.384-.206h-.371zM3 7a3 3 0 1 0 0 6 3 3 0 0 0 0-6zm9 0a3 3 0 1 0 0 6 3 3 0 0 0 0-6zM3 8a2 2 0 1 1 0 4 2 2 0 0 1 0-4zm9 0a2 2 0 1 1 0 4 2 2 0 0 1 0-4z"/></symbol><symbol viewBox="0 0 11 11" id="si-maki-building-11"><path d="M2 1v9h4V6h2v4h1V1H2zm3 8H3V6h2v3zm0-4H3V3h2v2zm3 0H6V3h2v2z"/></symbol><symbol viewBox="0 0 15 15" id="si-maki-building-15"><path d="M3 2v11h5v-3h3v3h1V2H3zm4 10H4v-2h3v2zm0-3H4V7h3v2zm0-3H4V4h3v2zm4 3H8V7h3v2zm0-3H8V4h3v2z"/></symbol><symbol viewBox="0 0 11 11" id="si-maki-bus-11"><path d="M3 0C2 0 1 .531 1 2v7.5s0 .5.5.5l.5.016v.484s0 .5.5.5H3s.5 0 .5-.5v-.484l4-.016v.5s0 .5.5.5h.5c.5 0 .5-.5.5-.5v-.484L9.5 10s.5 0 .5-.5V2c0-1.5-1-2-2-2H3zm.75 1h3.5a.25.25 0 1 1 0 .5h-3.5a.25.25 0 1 1 0-.5zM3 2h5c1 0 1 1 1 1v2s0 1-1 1H3C2 6 2 5 2 5V3s0-1 1-1zm-.25 5.5a.75.75 0 1 1 0 1.5.75.75 0 0 1 0-1.5zm5.5 0a.75.75 0 1 1 0 1.5.75.75 0 0 1 0-1.5z"/></symbol><symbol viewBox="0 0 15 15" id="si-maki-bus-15"><path d="M4 0C2.636 0 1 .743 1 2.746V12s0 1 1 1v1s0 1 1 1 1-1 1-1v-1h7v1s0 1 1 1 1-1 1-1v-1s1 0 1-1V2.746C14 .701 12.764 0 11.4 0H4zm.25 1.5h6.5a.25.25 0 1 1 0 .5h-6.5a.25.25 0 1 1 0-.5zM3 3h9c1 0 1 .967 1 .967V7s0 1-1 1H3C2 8 2 7 2 7V4s0-1 1-1zm0 7a1 1 0 1 1 0 2 1 1 0 0 1 0-2zm9 0a1 1 0 1 1 0 2 1 1 0 0 1 0-2z"/></symbol><symbol viewBox="0 0 11 11" id="si-maki-cafe-11"><path d="M7 9.5a.5.5 0 0 1-.5.5h-4a.5.5 0 0 1 0-1h4a.5.5 0 0 1 .5.5zM8 3H7V2H2v4a2.5 2.5 0 0 0 4.79 1H8a2 2 0 1 0 0-4zm0 3H7V4h1a1 1 0 1 1 0 2z"/></symbol><symbol viewBox="0 0 15 15" id="si-maki-cafe-15"><path d="M12 5h-2V3H2v4a4 4 0 0 0 7.45 2H12a2 2 0 1 0 0-4zm0 3H9.86A4 4 0 0 0 10 7V6h2a1 1 0 1 1 0 2zm-2 4.5a.5.5 0 0 1-.5.5h-7a.5.5 0 0 1 0-1h7a.5.5 0 0 1 .5.5z"/></symbol><symbol viewBox="0 0 11 11" id="si-maki-campsite-11"><path d="M5.92 2.19a.5.5 0 0 0-.85 0L1.5 8h-1a.42.42 0 0 0-.5.39V9.5a.49.49 0 0 0 .5.5h10a.49.49 0 0 0 .5-.5V8.39a.42.42 0 0 0-.5-.39h-1L5.92 2.19zM5.5 3l3 5h-6l3-5z"/></symbol><symbol viewBox="0 0 15 15" id="si-maki-campsite-15"><path d="M7 1.5l-5.5 9H1c-1 0-1 1-1 1v1s0 1 1 1h13c1 0 1-1 1-1v-1s0-1-1-1h-.5L8 1.5c-.2-.4-.8-.4-1 0zM7.5 5l3.2 5.5H4.2L7.5 5z"/></symbol><symbol viewBox="0 0 11 11" id="si-maki-car-11"><path d="M9 4l-.89-2.66A.5.5 0 0 0 7.64 1H3.36a.5.5 0 0 0-.47.34L2 4a1 1 0 0 0-1 1v3h1v1a1 1 0 1 0 2 0V8h3v1a1 1 0 1 0 2 0V8h1V5a1 1 0 0 0-1-1zM3 7a1 1 0 1 1 0-2 1 1 0 0 1 0 2zm0-3l.62-2h3.76L8 4H3zm5 3a1 1 0 1 1 0-2 1 1 0 0 1 0 2z"/></symbol><symbol viewBox="0 0 15 15" id="si-maki-car-15"><path d="M14 7a1.5 1.5 0 0 0-1.15-1.45l-1.39-3.24A.5.5 0 0 0 11 2H4a.5.5 0 0 0-.44.28L2.15 5.54A1.5 1.5 0 0 0 1 7v3.5h1v1a1 1 0 1 0 2 0v-1h7v1a1 1 0 1 0 2 0v-1h1V7zM4.3 3h6.4l1.05 2.5h-8.5L4.3 3zM3 9a1 1 0 1 1 0-2 1 1 0 0 1 0 2zm9 0a1 1 0 1 1 0-2 1 1 0 0 1 0 2z"/></symbol><symbol viewBox="0 0 11 11" id="si-maki-castle-11"><path d="M8.67.81v1.48A.69.69 0 0 1 8 3H3.09a.69.69 0 0 1-.7-.7V.81a.345.345 0 0 1 .69 0v.69H4V1a.5.5 0 0 1 1 0v.5h1V1a.5.5 0 0 1 1 0v.5h1V.81a.34.34 0 1 1 .67 0zm1.39 8.82a.35.35 0 0 1-.35.35H1.35a.35.35 0 0 1 0-.7h.35a.68.68 0 0 0 .7-.7s.7-3.2.7-3.89A.68.68 0 0 1 3.79 4h3.48a.68.68 0 0 1 .7.7c0 .7.7 3.89.7 3.89a.68.68 0 0 0 .7.7h.34a.35.35 0 0 1 .35.35v-.01zM6.5 7.5a1 1 0 1 0-2 0v2h2v-2z"/></symbol><symbol viewBox="0 0 15 15" id="si-maki-castle-15"><path d="M11 4H4a1 1 0 0 1-1-1V.5a.5.5 0 0 1 1 0V2h1V1a1 1 0 1 1 2 0v1h1V1a1 1 0 1 1 2 0v1h1V.5a.5.5 0 0 1 1 0V3a1 1 0 0 1-1 1zm3 10.5a.5.5 0 0 1-.5.5h-12a.5.5 0 0 1 0-1H2a1 1 0 0 0 1-1s1-6 1-7a1 1 0 0 1 1-1h5a1 1 0 0 1 1 1c0 1 1 7 1 7a1 1 0 0 0 1 1h.5a.5.5 0 0 1 .5.49v.01zm-5-4a1.5 1.5 0 0 0-3 0V14h3v-3.5z"/></symbol><symbol viewBox="0 0 11 11" id="si-maki-cemetery-11"><path d="M8.65 8H8l1-5.61A.36.36 0 0 0 8.63 2H7.16c0-.65-.7-1-1.67-1s-1.83.35-1.83 1H2.35a.36.36 0 0 0-.35.39L3 8h-.65a.35.35 0 0 0-.35.36V10h7V8.36A.35.35 0 0 0 8.66 8h-.01zM7 5H4V4h3v1z"/></symbol><symbol viewBox="0 0 15 15" id="si-maki-cemetery-15"><path d="M11.46 12h-.68L12 3.55a.52.52 0 0 0-.56-.55h-1.18c0-.92-1.23-2-2.75-2S4.77 2.08 4.77 3H3.54a.52.52 0 0 0-.54.55L4.2 12h-.65a.53.53 0 0 0-.55.5V14h9v-1.51a.52.52 0 0 0-.54-.49zM4.5 5h6v1h-6V5z"/></symbol><symbol viewBox="0 0 11 11" id="si-maki-cinema-11"><path d="M10 5.5v2a.5.5 0 0 1-1 0 .66.66 0 0 0-.51-.5H8v1.63a.37.37 0 0 1-.37.37H1.37A.37.37 0 0 1 1 8.63V5.37A.37.37 0 0 1 1.37 5h6.26a.37.37 0 0 1 .37.37V6h.49A.66.66 0 0 0 9 5.5a.5.5 0 0 1 1 0zM2.5 2a1.5 1.5 0 1 0 0 3 1.5 1.5 0 0 0 0-3zm0 2a.5.5 0 1 1 0-1 .5.5 0 0 1 0 1zM6 1a2 2 0 1 0 0 4 2 2 0 0 0 0-4zm0 3a1 1 0 1 1 0-2 1 1 0 0 1 0 2z"/></symbol><symbol viewBox="0 0 15 15" id="si-maki-cinema-15"><path d="M14 7.5v2a.5.5 0 0 1-1 0s.06-.5-1-.5h-1v2.5a.5.5 0 0 1-.5.5h-8a.5.5 0 0 1-.5-.5v-4a.5.5 0 0 1 .5-.5h8a.5.5 0 0 1 .5.5V8h1c1.06 0 1-.5 1-.5a.5.5 0 0 1 1 0zM4 3a2 2 0 1 0 0 4 2 2 0 0 0 0-4zm0 3a1 1 0 1 1 0-2 1 1 0 0 1 0 2zm4.5-4a2.5 2.5 0 1 0 0 5 2.5 2.5 0 0 0 0-5zm0 4a1.5 1.5 0 1 1 0-3 1.5 1.5 0 0 1 0 3z"/></symbol><symbol viewBox="0 0 11 11" id="si-maki-circle-11"><path d="M10 5.5a4.5 4.5 0 1 1-9 0 4.5 4.5 0 0 1 9 0z"/></symbol><symbol viewBox="0 0 15 15" id="si-maki-circle-15"><path d="M14 7.5a6.5 6.5 0 1 1-13 0 6.5 6.5 0 0 1 13 0z"/></symbol><symbol viewBox="0 0 11 11" id="si-maki-circle-stroked-11"><path d="M5.5 0a5.5 5.5 0 1 1 0 11 5.5 5.5 0 0 1 0-11zm0 1.222a4.278 4.278 0 1 0 0 8.556 4.278 4.278 0 0 0 0-8.556z"/></symbol><symbol viewBox="0 0 15 15" id="si-maki-circle-stroked-15"><path d="M7.5 0a7.5 7.5 0 1 1 0 15 7.5 7.5 0 0 1 0-15zm0 1.667a5.833 5.833 0 1 0 0 11.666 5.833 5.833 0 0 0 0-11.666z"/></symbol><symbol viewBox="0 0 11 11" id="si-maki-clothing-store-11"><path d="M2.5 1l-2 2v2h2v5h6V5h2V3l-2-2H7L5.5 4 4 1H2.5z"/></symbol><symbol viewBox="0 0 15 15" id="si-maki-clothing-store-15"><path d="M3.5 1L0 4v3h2.9l.1 7h9V7h3V4l-3.5-3H10L7.5 5 5 1H3.5z"/></symbol><symbol viewBox="0 0 11 11" id="si-maki-college-11"><path d="M2 7.3c.3-.2.5-.5.5-.8 0-.4-.2-.7-.6-.9V4.4L5.5 6 11 3.5 5.5 1 0 3.5l1.2.5v1.6c-.4.2-.6.5-.6.9 0 .3.2.6.5.8L.6 9c-.3 1 .5 1 .5 1h1s.8 0 .5-1L2 7.3z"/><path d="M3.5 6.2v.3c0 .4-.2.8-.4 1.1.2.4.4.8.4 1.4v.6c.5.2 1.2.4 2 .4C8 10 9 8.5 9 8.5v-3L5.5 7.1l-2-.9z"/></symbol><symbol viewBox="0 0 15 15" id="si-maki-college-15"><path d="M7.5 1L0 4.5l2 .9v1.7c-.6.2-1 .8-1 1.4s.4 1.2 1 1.4v.1l-.9 2.1C.8 13 1 14 2.5 14s1.7-1 1.4-1.9L3 10c.6-.3 1-.8 1-1.5s-.4-1.2-1-1.4V5.9L7.5 8 15 4.5 7.5 1zm4.4 6.5l-4.5 2L5 8.4v.1c0 .7-.3 1.3-.8 1.8l.6 1.4v.1c.1.4.2.8.1 1.2.7.3 1.5.5 2.5.5 3.3 0 4.5-2 4.5-3v-3z"/></symbol><symbol viewBox="0 0 11 11" id="si-maki-commercial-11"><path d="M0 5a4.71 4.71 0 0 1 1-3h9a4.71 4.71 0 0 1 1 3H0zm2 1v5h4V7h2v4h1V6H2zm3 3H3V7h2v2z"/></symbol><symbol viewBox="0 0 15 15" id="si-maki-commercial-15"><path d="M14 7H1a11.431 11.431 0 0 1 1-4h11a11.429 11.429 0 0 1 1 4zM3 8h9v6h-1V9H8v5H3V8zm1 3h3V9H4v2z"/></symbol><symbol viewBox="0 0 11 11" id="si-maki-cricket-11"><path d="M6 1a1 1 0 1 1-2 0 1 1 0 0 1 2 0zm2.88 4.18l-1-2A.5.5 0 0 0 7.5 3H2.77a.74.74 0 0 0-.77.65l-1 6.71a.483.483 0 0 0 0 .14.5.5 0 0 0 .5.5.49.49 0 0 0 .5-.36l1.22-3.89.21-.83.4.44L5 7.6v2.9a.5.5 0 0 0 1 0v-3a.48.48 0 0 0-.1-.28L4.45 5.5 5.5 4h1.71l.92 1.84A.49.49 0 0 0 8.5 6a.5.5 0 0 0 .5-.49.88.88 0 0 0-.12-.33zM10.5 8a.5.5 0 1 0 0 1 .5.5 0 0 0 0-1zM8.69 8v-.75a.25.25 0 1 0-.5 0V8a.49.49 0 0 0-.25.42v2.08a.5.5 0 0 0 1 0V8.41A.49.49 0 0 0 8.69 8z"/></symbol><symbol viewBox="0 0 15 15" id="si-maki-cricket-15"><path d="M8 1.5a1.5 1.5 0 1 1-3 0 1.5 1.5 0 0 1 3 0zm2.88 5.68l-2-2a.5.5 0 0 0-.4-.18H3.75a.74.74 0 0 0-.75.64l-1 7.7a.483.483 0 0 0 0 .14.5.5 0 0 0 .5.5.49.49 0 0 0 .5-.34l1.2-3.89.26-.83.4.44L6 10.6v2.9a.5.5 0 0 0 1 0v-3a.48.48 0 0 0-.08-.22L5.48 8.5l1-2.5h1.71l2 1.84a.49.49 0 0 0 .37.17.5.5 0 0 0 .44-.51.49.49 0 0 0-.12-.32zM14 11.27a.75.75 0 1 0 0 1.5.75.75 0 0 0 0-1.5zm-3.24-1.53V9a.25.25 0 1 0-.5 0v.74a.49.49 0 0 0-.25.42v3.34a.5.5 0 0 0 1 0v-3.34a.49.49 0 0 0-.25-.42z"/></symbol><symbol viewBox="0 0 11 11" id="si-maki-cross-11"><path d="M2.2 1.19l3.3 3.3L8.8 1.2a.67.67 0 0 1 .5-.2.75.75 0 0 1 .7.7.66.66 0 0 1-.2.48L6.49 5.5 9.8 8.82c.13.126.202.3.2.48a.75.75 0 0 1-.7.7.67.67 0 0 1-.5-.2L5.5 6.51 2.21 9.8a.67.67 0 0 1-.5.2.75.75 0 0 1-.71-.71.66.66 0 0 1 .2-.48L4.51 5.5 1.19 2.18A.66.66 0 0 1 1 1.7a.75.75 0 0 1 .7-.7.67.67 0 0 1 .5.19z"/></symbol><symbol viewBox="0 0 15 15" id="si-maki-cross-15"><path d="M2.64 1.27L7.5 6.13l4.84-4.84A.92.92 0 0 1 13 1a1 1 0 0 1 1 1 .9.9 0 0 1-.27.66L8.84 7.5l4.89 4.89A.9.9 0 0 1 14 13a1 1 0 0 1-1 1 .92.92 0 0 1-.69-.27L7.5 8.87l-4.85 4.85A.92.92 0 0 1 2 14a1 1 0 0 1-1-1 .9.9 0 0 1 .27-.66L6.16 7.5 1.27 2.61A.9.9 0 0 1 1 2a1 1 0 0 1 1-1c.24.003.47.1.64.27z"/></symbol><symbol viewBox="0 0 11 11" id="si-maki-dam-11"><path d="M10 7.51a.5.5 0 0 1-.5.5 1 1 0 0 0-.67.34 2.14 2.14 0 0 1-1 .6 1.89 1.89 0 0 1-1.76-.37l-.34-.35a.77.77 0 0 0-1.08 0L5 9.38a.5.5 0 0 1-.5.62h-3a.5.5 0 0 1-.5-.5v-8a.5.5 0 0 1 .49-.5h.7a.5.5 0 0 1 .49.39l.73 2.51.1-.06c.16-.12.31-.27.49-.4a1.9 1.9 0 0 1 2.45 0c.15.13.29.27.44.39a.75.75 0 0 0 1 0l.41-.4A1.78 1.78 0 0 1 9.49 3a.5.5 0 0 1 0 1 1 1 0 0 0-.67.34 2.14 2.14 0 0 1-1 .6 1.89 1.89 0 0 1-1.76-.37l-.33-.34a.77.77 0 0 0-1.089-.011l-.011.011c-.14.12-.27.25-.42.37a2 2 0 0 1-.52.29l.67 2.32a1.88 1.88 0 0 1 2.06.24c.15.13.29.27.44.39a.75.75 0 0 0 1 0l.44-.42A1.78 1.78 0 0 1 9.49 7a.5.5 0 0 1 .51.51z"/></symbol><symbol viewBox="0 0 15 15" id="si-maki-dam-15"><path d="M13.94 9.5a.5.5 0 0 1-.5.5 1 1 0 0 0-.67.34 2.14 2.14 0 0 1-1 .6 1.89 1.89 0 0 1-1.76-.37l-.39-.35a.77.77 0 0 0-1.089-.011l-.011.011c-.14.12-.27.25-.42.37a1.91 1.91 0 0 1-2.46-.07l-.34-.33-.1-.06.3 1.22.49 2a.5.5 0 0 1-.49.65h-4a.5.5 0 0 1-.5-.5v-12a.5.5 0 0 1 .5-.5h1.1a.5.5 0 0 1 .49.39L4 5.06v.14a1.88 1.88 0 0 1 2 .24c.16.13.31.28.47.41a.75.75 0 0 0 1 0c.16-.13.31-.28.47-.41a1.9 1.9 0 0 1 2.45 0c.15.13.29.27.44.39a.75.75 0 0 0 1 0l.47-.41A1.78 1.78 0 0 1 13.43 5a.5.5 0 0 1 0 1 1 1 0 0 0-.67.34 2.14 2.14 0 0 1-1 .6A1.89 1.89 0 0 1 10 6.57l-.33-.34a.77.77 0 0 0-1.089-.011l-.011.011c-.14.12-.27.25-.42.37a1.91 1.91 0 0 1-2.46-.07l-.39-.34a.75.75 0 0 0-1 0l-.06.05L4.93 9A1.9 1.9 0 0 1 6 9.43c.16.13.31.28.47.41a.75.75 0 0 0 1 0c.16-.13.31-.28.47-.41a1.9 1.9 0 0 1 2.45 0c.15.13.29.27.44.39a.75.75 0 0 0 1 0l.47-.41A1.78 1.78 0 0 1 13.43 9a.5.5 0 0 1 .51.5z"/></symbol><symbol viewBox="0 0 11 11" id="si-maki-danger-11"><path d="M6.62 8.5l3.11 1.55-.45.89L5.5 9.06l-3.78 1.89-.45-.89L4.38 8.5l-3.1-1.55.45-.89L5.5 7.94l3.78-1.89.44.9-3.1 1.55zM8.5 3.21v.29l-1 1v1l-2 1-2-1v-1l-1-1V3a2.9 2.9 0 0 1 3-3 3.09 3.09 0 0 1 3 3.21zm-3.79-.5a.79.79 0 1 0-.79.79.79.79 0 0 0 .79-.79zM5 4.5h-.5v1H5v-1zm1.5 0H6v1h.5v-1zm1.36-1.79a.79.79 0 1 0-.79.79.79.79 0 0 0 .79-.79z"/></symbol><symbol viewBox="0 0 15 15" id="si-maki-danger-15"><path d="M13.94 14.68a.5.5 0 0 1-.47.32c-.06.01-.12.01-.18 0L7.5 12.56 1.7 15a.5.5 0 0 1-.648-.284l-.002-.006a.5.5 0 0 1 .29-.71l4.85-2-4.85-2a.5.5 0 1 1 .36-.93l5.8 2.41 5.8-2.41a.5.5 0 1 1 .36.93L8.8 12l4.85 2a.5.5 0 0 1 .29.68zM12 4.23v.45a1 1 0 0 1-.2.59A17.718 17.718 0 0 1 10 7v1.16a.5.5 0 0 1-.32.47l-2.16.87h-.07l-2.17-.87A.5.5 0 0 1 5 8.16V7a17.563 17.563 0 0 1-1.82-1.73A1 1 0 0 1 3 4.68v-.45A4.6 4.6 0 0 1 7.11 0h.75A4.59 4.59 0 0 1 12 4.23zM6 4a1 1 0 1 0-2 0 1 1 0 0 0 2 0zm1 3a.5.5 0 0 0-1 0v.5a.5.5 0 0 0 1 0V7zm2 0a.5.5 0 0 0-1 0v.5a.5.5 0 0 0 1 0V7zm2-3a1 1 0 1 0-2 0 1 1 0 0 0 2 0z"/></symbol><symbol viewBox="0 0 11 11" id="si-maki-dentist-11"><path d="M5.48 6A2 2 0 0 0 4 7c-.46 1.21-.14 3-.82 3S2.7 8.49 2.5 7a16.259 16.259 0 0 0-.76-1.89C1.53 3.7 1 1.28 2.67 1S4.35 2.52 5.5 2.52 6.67.72 8.33 1s1.14 2.7.93 4.11A16.259 16.259 0 0 0 8.5 7c-.2 1.49 0 3-.68 3S7.46 8.21 7 7a2 2 0 0 0-1.48-1h-.04z"/></symbol><symbol viewBox="0 0 15 15" id="si-maki-dentist-15"><path d="M4.36 14c-1 0-.56-2.67-.86-5-.1-.76-1-1.49-1.12-2.06C2 5 1.39 1.44 3.66 1S6 3 7.54 3 9.11.64 11.39 1s1.59 3.9 1.29 5.9c-.1.45-1.1 1.48-1.18 2.06-.33 2.4.32 5-.8 5-.93 0-1.32-2.72-2-4.5C8.43 8.63 8.06 8 7.54 8 6 8 5.75 14 4.36 14z"/></symbol><symbol viewBox="0 0 11 11" id="si-maki-doctor-11"><path d="M9.5 5.87A1.48 1.48 0 1 0 7.65 7.3v.42a1.855 1.855 0 1 1-3.71 0A3.27 3.27 0 0 1 5.05 5.4H5a2.58 2.58 0 0 0 1.17-2.12V1.79A1.11 1.11 0 0 0 5.06.68H4.5a.37.37 0 0 0 0 .74h.55a.37.37 0 0 1 .37.37v1.49a1.85 1.85 0 0 1-1.84 1.85v.27-.27a1.85 1.85 0 0 1-1.86-1.84v-1.5a.37.37 0 0 1 .37-.37h.52a.37.37 0 0 0 0-.74h-.52A1.11 1.11 0 0 0 1 1.79v1.49A2.58 2.58 0 0 0 2.1 5.4a3.27 3.27 0 0 1 1.1 2.32 2.595 2.595 0 1 0 5.19 0V7.3A1.48 1.48 0 0 0 9.5 5.87zM8 6.61a.74.74 0 1 1 .74-.74.74.74 0 0 1-.74.74z"/></symbol><symbol viewBox="0 0 15 15" id="si-maki-doctor-15"><path d="M5.5 7A2.5 2.5 0 0 1 3 4.5v-2a.5.5 0 0 1 .5-.5H4a.5.5 0 0 0 0-1h-.5A1.5 1.5 0 0 0 2 2.5v2a3.49 3.49 0 0 0 1.51 2.87A4.41 4.41 0 0 1 5 10.5a3.5 3.5 0 1 0 7 0v-.57a2 2 0 1 0-1 0v.57a2.5 2.5 0 0 1-5 0 4.41 4.41 0 0 1 1.5-3.13A3.49 3.49 0 0 0 9 4.5v-2A1.5 1.5 0 0 0 7.5 1H7a.5.5 0 0 0 0 1h.5a.5.5 0 0 1 .5.5v2A2.5 2.5 0 0 1 5.5 7m6 2a1 1 0 1 1 0-2 1 1 0 0 1 0 2z"/></symbol><symbol viewBox="0 0 11 11" id="si-maki-dog-park-11"><path d="M7.5 1s-.346.037-.5.5l-.5 2 2 1.5H10c1 0 1-1 1-1L9.5 2.5C9 2 8.5 2 8 2v-.5S8 1 7.5 1zm-5 1s-.353-.007-.723.178S1 2.833 1 3.5v2C1 6.5 1 7 .5 7c0 0-.5 0-.5.5v2s0 .5.5.5.5-.5.5-.5V8c.354 0 .69-.137 1-.299V9.5s0 .5.5.5.5-.5.5-.5V7h3l.664 1.992C7 10 7.5 10 7.5 10H8s.5 0 .5-.5S8 9 8 9V6.5c0-.89-.632-1.255-1-1.5L5.498 4H2v-.5c0-.333.092-.362.223-.428A.786.786 0 0 1 2.5 3c.676.01.676-1.01 0-1z"/></symbol><symbol viewBox="0 0 15 15" id="si-maki-dog-park-15"><path d="M10.3 1.22c-.386 0-.7-.02-.8.78l-.4 2.521L11.5 6.5h2c1.4 0 1.5-.959 1.5-.959l-1.9-2.219c-.7-.7-1.4-.822-2.1-.822V2s.067-.78-.7-.78zm-5.55.28s-.95.02-1.55.22c-.6.2-1.2.901-1.2 1.901v3.9C2 9.221 1.3 9.5 1 9.5c0 0-1 .021-1 1.021v2.2s0 .8.8.8H2v-.699c0-.4-.2-.6-.5-.7v-1.1c1 0 1.1-.201 1.5-.301l.55 2.197c.1.3.2.5.5.6h1L6 13.5v-.8c0-.677-1-.7-1-.7V9.5h3.5l.7 2.621c.4 1.4 1.3 1.379 1.3 1.379H12v-.8c0-.713-1-.7-1-.7l.1-4.078L8 5.5H3.5v-2c0-.4.276-.495.5-.5.494-.012.75 0 .75 0a.75.75 0 0 0 0-1.5zm7 2.5a.25.25 0 1 1 0 .5.25.25 0 0 1 0-.5z"/></symbol><symbol viewBox="0 0 11 11" id="si-maki-drinking-water-11"><path d="M5 11H3a.51.51 0 0 1-.5-.4L1 5.6a.5.5 0 0 1 .5-.6h5a.5.5 0 0 1 .5.6l-1.49 5A.51.51 0 0 1 5 11zM2.76 8h2.46l.67-2H2.11zM4.5 0A1.5 1.5 0 0 0 3 1.51v2a.5.5 0 0 0 .5.5h1A.5.5 0 0 0 5 3.5v-1a.5.5 0 0 1 .5-.5H10V0H4.5z"/></symbol><symbol viewBox="0 0 15 15" id="si-maki-drinking-water-15"><path d="M6 1a2 2 0 0 0-2 2v3.5a.5.5 0 0 0 .5.5h2a.5.5 0 0 0 .5-.5v-2a.5.5 0 0 1 .5-.5H14V1H6zm1 14H4a.5.5 0 0 1-.48-.38L2 8.62A.5.5 0 0 1 2.5 8h6a.5.5 0 0 1 .5.62l-1.5 6A.5.5 0 0 1 7 15zm-3.35-4h3.71l.5-2H3.14z"/></symbol><symbol viewBox="0 0 11 11" id="si-maki-embassy-11"><path d="M5.5 2a4.07 4.07 0 0 0-2.41 1.06.36.36 0 0 0-.09.24v3.32a.34.34 0 0 0 .57.27 3.23 3.23 0 0 1 1.93-.67C6.61 6.22 6.85 7 8 7a3.08 3.08 0 0 0 1.83-.84.36.36 0 0 0 .17-.32V2.37A.35.35 0 0 0 9.5 2a3.13 3.13 0 0 1-1.5.67C6.85 2.67 6.65 2 5.5 2zm-4-.5a1 1 0 1 1 0 2 1 1 0 0 1 0-2zm.5 3v6a.5.5 0 0 1-1 0v-6a.5.5 0 0 1 1 0z"/></symbol><symbol viewBox="0 0 15 15" id="si-maki-embassy-15"><path d="M6.65 2C5.43 2 4.48 3.38 4.11 3.82a.49.49 0 0 0-.11.32v4.4a.44.44 0 0 0 .72.36 3 3 0 0 1 1.93-1.17C8.06 7.73 8.6 9 10.07 9a5.28 5.28 0 0 0 2.73-1.09.49.49 0 0 0 .2-.4V2.45a.44.44 0 0 0-.62-.45 5.75 5.75 0 0 1-2.31 1.06C8.6 3.08 8.12 2 6.65 2zM2.5 3a1 1 0 1 1 0-2 1 1 0 0 1 0 2zM3 4v9.48a.5.5 0 0 1-1 0V4a.5.5 0 0 1 1 0z"/></symbol><symbol viewBox="0 0 11 11" id="si-maki-entrance-11"><path d="M4 2.25a.75.75 0 1 1 1.5 0 .75.75 0 0 1-1.5 0zM9.27 4H7.88a.73.73 0 0 0-.52.21l-4 4a.73.73 0 0 1-.51.21H1.73a.73.73 0 1 0 0 1.46h1.89a.73.73 0 0 0 .51-.21l4-4a.73.73 0 0 1 .48-.17h.66a.73.73 0 0 0 .73-.73.73.73 0 0 0-.73-.77zm-4.52-.5a.75.75 0 0 0-.75.75V6l1.5-1.5v-.25a.75.75 0 0 0-.75-.75z"/></symbol><symbol viewBox="0 0 15 15" id="si-maki-entrance-15"><path d="M7 6.5v-1a1 1 0 1 0-2 0v3l2-2zm-2.35 4.06L5 3a1 1 0 1 1 2 0 1 1 0 0 1-2 0l-.35 7.56z"/><path d="M14 6a1 1 0 0 1-1 1h-1.58a1 1 0 0 0-.71.29l-5.42 5.42a1 1 0 0 1-.7.29H2a1 1 0 1 1 0-2h1.59a1 1 0 0 0 .7-.29l5.42-5.42a1 1 0 0 1 .71-.29H13a1 1 0 0 1 1 1z"/></symbol><symbol viewBox="0 0 11 11" id="si-maki-farm-11"><path d="M6 5L4 4 2 5 1 7v3h1.5V8h3v2H7V7zM5 7H3V5.5h2V7zM10 2a1 1 0 0 0-2 0v8h2V2z"/></symbol><symbol viewBox="0 0 15 15" id="si-maki-farm-15"><path d="M8 7L5 5 2 7 1 9v4h2v-2h4v2h2V9zM6 9H4V7h2v2zm8 4h-3V3.5a1.5 1.5 0 0 1 3 0V13z"/></symbol><symbol viewBox="0 0 11 11" id="si-maki-fast-food-11"><path d="M10 8a2 2 0 0 1-2 2H3a2 2 0 0 1-2-2h9zm0-3H1a1 1 0 1 0 0 2h9a1 1 0 1 0 0-2zM8.55 1H2.46A1.46 1.46 0 0 0 1 2.46V4h9V2.47A1.46 1.46 0 0 0 8.55 1zm-5 2A.5.5 0 1 1 4 2.5a.5.5 0 0 1-.5.5h.05zm4 0A.5.5 0 1 1 8 2.5a.5.5 0 0 1-.5.5h.05z"/></symbol><symbol viewBox="0 0 15 15" id="si-maki-fast-food-15"><path d="M14 8a1 1 0 0 1-1 1H2a1 1 0 1 1 0-2h11a1 1 0 0 1 1 1zM3.5 10H2a3 3 0 0 0 3 3h5a3 3 0 0 0 3-3H3.5zM3 6H2V4a2 2 0 0 1 2-2h7a2 2 0 0 1 2 2v2H3zm8-1.5a.5.5 0 1 0 1 0 .5.5 0 0 0-1 0zm-2-1a.5.5 0 1 0 1 0 .5.5 0 0 0-1 0zm-2 1a.5.5 0 1 0 1 0 .5.5 0 0 0-1 0zm-2-1a.5.5 0 1 0 1 0 .5.5 0 0 0-1 0zm-2 1a.5.5 0 1 0 1 0 .5.5 0 0 0-1 0z"/></symbol><symbol viewBox="0 0 11 11" id="si-maki-ferry-11"><path d="M11 9.45v.77a.83.83 0 0 0-.57.26 1.86 1.86 0 0 1-.81.46 1.74 1.74 0 0 1-1.49-.29l-.33-.27a.71.71 0 0 0-.93 0c-.12.09-.23.2-.35.28a1.75 1.75 0 0 1-2.1-.05l-.33-.27a.69.69 0 0 0-.83 0c-.16.11-.3.25-.46.36a1.75 1.75 0 0 1-2 0l-.26-.21a.82.82 0 0 0-.54-.27v-.77a1.16 1.16 0 0 1 .63.11c.234.13.458.276.67.44a.76.76 0 0 0 .7.2.82.82 0 0 0 .26-.12c.13-.09.25-.2.38-.3a1.75 1.75 0 0 1 2.07 0l.4.31a.69.69 0 0 0 .81 0l.4-.31a1.75 1.75 0 0 1 2.08 0l.38.3a.69.69 0 0 0 .82 0l.4-.31a1.61 1.61 0 0 1 1-.32zM2.61 7.61L1 5l1-.91V1.15A1.18 1.18 0 0 1 3.19 0h4.62A1.18 1.18 0 0 1 9 1.15v2.94L10 5 8.39 7.62a2.22 2.22 0 0 0-2.65.14L5.5 8l-.2-.18a2.22 2.22 0 0 0-2.69-.21zm.2-4L5.5 2l2.69 1.63V1.15a.36.36 0 0 0-.38-.38H3.19a.36.36 0 0 0-.38.38v2.48-.02z"/></symbol><symbol viewBox="0 0 15 15" id="si-maki-ferry-15"><path d="M5.33 11a3 3 0 0 1 1.85.67l.26.23h.05l.31-.28a2.89 2.89 0 0 1 3.44-.18L13.5 7 12 6V2.45A1.54 1.54 0 0 0 10.5 1H10a.94.94 0 0 0-1-1H6a.94.94 0 0 0-1 1h-.5A1.54 1.54 0 0 0 3 2.45V6L1.5 7l2.25 4.53A2.93 2.93 0 0 1 5.33 11zM4 2.45A.47.47 0 0 1 4.5 2h6a.47.47 0 0 1 .5.5v3l-3.5-2L4 5.45v-3zM14 13v1a1 1 0 0 0-.68.34 2.15 2.15 0 0 1-1 .6 1.91 1.91 0 0 1-1.77-.37l-.39-.35a.78.78 0 0 0-1.1 0c-.14.12-.27.25-.42.37a1.92 1.92 0 0 1-2.48-.07l-.39-.35a.76.76 0 0 0-1 0c-.19.15-.36.32-.55.47a1.91 1.91 0 0 1-2.35-.06l-.31-.27A.94.94 0 0 0 1 14v-1c.259-.032.52.017.75.14a6.2 6.2 0 0 1 .79.58.84.84 0 0 0 .81.25.93.93 0 0 0 .31-.16c.16-.12.29-.26.45-.39a1.92 1.92 0 0 1 2.45 0c.16.13.31.28.47.41a.76.76 0 0 0 1 0c.16-.13.31-.28.47-.41a1.92 1.92 0 0 1 2.46 0c.15.13.29.27.44.39a.76.76 0 0 0 1 0l.47-.41c.32-.26.719-.4 1.13-.4z"/></symbol><symbol viewBox="0 0 11 11" id="si-maki-fire-station-11"><path d="M5.5 0l-2 4L2 2c-.405.712-2 2.167-2 4 0 2.7 2.8 5 5.5 5S11 8.7 11 6c0-1.833-1.595-3.288-2-4L7.5 4l-2-4zm0 5.5s2 1.585 2 3c0 .611-.778 1.278-2 1.278s-2-.667-2-1.278c0-1.366 2-3 2-3z"/></symbol><symbol viewBox="0 0 15 15" id="si-maki-fire-station-15"><path d="M7.5.5L5 4.5l-1.5-2C2.945 3.475.804 5.792.804 8.304a6.696 6.696 0 1 0 13.392 0c0-2.512-2.141-4.829-2.696-5.804l-1.5 2-2.5-4zm0 6.5S10 9.562 10 11.5c0 .837-.826 2-2.5 2S5 12.337 5 11.5C5 9.628 7.5 7 7.5 7z"/></symbol><symbol viewBox="0 0 11 11" id="si-maki-fuel-11"><path d="M9.5 3H9V1.5a.5.5 0 0 0-1 0V3a1 1 0 0 0 1 1v4.25a.25.25 0 1 1-.5 0V6.5A1.5 1.5 0 0 0 7 5V2a1 1 0 0 0-1-1H2a1 1 0 0 0-1 1v7a1 1 0 0 0 1 1h4a1 1 0 0 0 1-1V6a.5.5 0 0 1 .5.5v1.75a1.25 1.25 0 1 0 2.5 0V3.5a.5.5 0 0 0-.5-.5zM6 4.5a.49.49 0 0 1-.48.5h-3A.51.51 0 0 1 2 4.5V3a.5.5 0 0 1 .5-.5h3A.5.5 0 0 1 6 3v1.5z"/></symbol><symbol viewBox="0 0 15 15" id="si-maki-fuel-15"><path d="M13 6v5.5a.5.5 0 0 1-1 0v-2A1.5 1.5 0 0 0 10.5 8H9V2a1 1 0 0 0-1-1H2a1 1 0 0 0-1 1v11a1 1 0 0 0 1 1h6a1 1 0 0 0 1-1V9h1.5a.5.5 0 0 1 .5.5v2a1.5 1.5 0 0 0 3 0V5a1 1 0 0 0-1-1V2.49a.5.5 0 0 0-.5-.49.51.51 0 0 0-.5.55V5a1 1 0 1 0 1-1M8 6.5a.5.5 0 0 1-.5.5h-5a.5.5 0 0 1-.5-.5v-3a.5.5 0 0 1 .5-.5h5a.5.5 0 0 1 .5.5v3z"/></symbol><symbol viewBox="0 0 11 11" id="si-maki-garden-11"><path d="M10 6a4 4 0 0 1-4.25 4A4 4 0 0 1 1.5 6a4 4 0 0 1 3.9 2.26V5h-2a.89.89 0 0 1-.9-.88V1.84a.35.35 0 0 1 .64-.21L4.28 3 5.45.67a.35.35 0 0 1 .6 0L7.22 3l1.13-1.38a.35.35 0 0 1 .65.21v2.28a.89.89 0 0 1-.89.89H6.1v3.26A4 4 0 0 1 10 6z"/></symbol><symbol viewBox="0 0 15 15" id="si-maki-garden-15"><path d="M13 8c0 3.31-2.19 6-5.5 6S2 11.31 2 8a5.33 5.33 0 0 1 5 3.61V7H4.5A1.5 1.5 0 0 1 3 5.5v-3a.5.5 0 0 1 .9-.3l1.53 2 1.65-3a.5.5 0 0 1 .84 0l1.65 3 1.53-2a.5.5 0 0 1 .9.3v3A1.5 1.5 0 0 1 10.5 7H8v4.61A5.33 5.33 0 0 1 13 8z"/></symbol><symbol viewBox="0 0 11 11" id="si-maki-garden-center-11"><path d="M10.875 5.164l-.007-.008-.029-.029-.971-.97A.5.5 0 0 0 9 4.494v1.148L7 7.646V3a2 2 0 0 0-4 0 2 2 0 0 0 0 4v1a1 1 0 0 0 1 1h2a.984.984 0 0 0 .833-.48L9.36 5.99h1.061a.5.5 0 0 0 .453-.826zM1.5 5A1.5 1.5 0 0 1 3 3.5v3A1.5 1.5 0 0 1 1.5 5zm2-2a1.5 1.5 0 0 1 3 0h-3z"/></symbol><symbol viewBox="0 0 15 15" id="si-maki-garden-center-15"><path d="M4 5v-.5a2.5 2.5 0 0 1 5 0v5.793l2.365-2.365-.347-1.295-.001-.006h-.001a.5.5 0 0 1 .838-.481l2 2a.5.5 0 0 1-.479.838l-.01-.003-1.293-.346L9 11.707V12a1 1 0 0 1-1 1H5a1 1 0 0 1-1-1v-.464L1.732 9.268a2.503 2.503 0 0 1 0-3.536A2.493 2.493 0 0 1 3.5 5H4zm0 1h-.5a1.5 1.5 0 0 0-1.061 2.561L4 10.121V6zm4-1v-.5a1.5 1.5 0 0 0-3 0V5h3z"/></symbol><symbol viewBox="0 0 11 11" id="si-maki-gift-11"><path d="M0 5h4.5v1H0V5zm1 4.79c0 .668.542 1.21 1.21 1.21h2.31V7H1v2.79zM7.64 4H3.36A1.26 1.26 0 0 1 2 2.5 1.41 1.41 0 0 1 3.42 1a2.12 2.12 0 0 1 2.1 1.69A2.13 2.13 0 0 1 7.62 1 1.43 1.43 0 0 1 9 2.52 1.27 1.27 0 0 1 7.64 4zm-2.82-.75a1.43 1.43 0 0 0-1.4-1.5.68.68 0 0 0-.7.75.68.68 0 0 0 .606.747c.031.003.063.004.094.003h1.4zm2.8 0a.68.68 0 0 0 .7-.75.71.71 0 0 0-.7-.75 1.43 1.43 0 0 0-1.4 1.5h1.4zM6.52 5v1H11V5H6.52zm0 6h2.29A1.21 1.21 0 0 0 10 9.79V7H6.52v4z"/></symbol><symbol viewBox="0 0 15 15" id="si-maki-gift-15"><path d="M6.5 5v2H0V5h6.5zm2 0v2H15V5H8.5zM1 8v4.5A1.5 1.5 0 0 0 2.5 14h4V8H1zm7.5 0v6h4a1.5 1.5 0 0 0 1.5-1.5V8H8.5zm2-8a3 3 0 0 0-3 2.25A3 3 0 0 0 4.5 0a1.94 1.94 0 0 0-2 2 1.73 1.73 0 0 0 1.91 2h6.13a1.75 1.75 0 0 0 2-2 2 2 0 0 0-2.04-2zm-6 3a.92.92 0 0 1-1-1 .92.92 0 0 1 1-1 2 2 0 0 1 2 2h-2zm6 0h-2a2 2 0 0 1 2-2 1 1 0 0 1 1 1 .92.92 0 0 1-1 1z"/></symbol><symbol viewBox="0 0 11 11" id="si-maki-golf-11"><path d="M4.05.638c-.518.543.223 1.175.678.675L5.224.77l2.332 1.393L3.306 4.5c-.293.162-.341.44-.234.721l.889 2.317-.935 2.804c-.129.385.171.649.474.658a.468.468 0 0 0 .475-.341l.92-2.764.853-.283.252.505V10.5s0 .5.5.5.5-.5.5-.5V8.117a.84.84 0 0 0-.064-.362l-1.281-3.34 2.552-1.403c.187-.08.29-.254.29-.512 0-.226-.217-.413-.456-.556L4.905.071c-.16-.096-.275-.043-.323.007l-.533.56zM3 2a1 1 0 1 0 0 2 1 1 0 0 0 0-2z"/></symbol><symbol viewBox="0 0 15 15" id="si-maki-golf-15"><path d="M3.4 1.1v.2c0 .4.3.7.7.7.3 0 .5-.2.6-.5l.2-.5 5.6 2.3L6.6 6c-.4.3-.4.7-.3 1.1l.9 2.1-1.3 3.9c-.2.5.2.9.6.9.3 0 .5-.1.6-.5l1.4-4 .1.3v3.5s0 .7.7.7.7-.7.7-.7V10c0-.2 0-.3-.1-.5L8.5 6.1l2.7-1.9c.2-.2.4-.3.4-.6s-.2-.5-.4-.6L4 .1c-.088 0-.118.018-.2.1l-.4.9zM5.5 3C4.7 3 4 3.7 4 4.5S4.7 6 5.5 6 7 5.3 7 4.5 6.3 3 5.5 3z"/></symbol><symbol viewBox="0 0 11 11" id="si-maki-grocery-11"><path d="M9.75 1.5c-.004 0-.318-.006-.63.188C8.803 1.881 8.5 2.3 8.5 3H1l.75 3.5c.107.5.75.5.75.5h6s-.003.247-.152.496S7.93 8 7.25 8H2c-.338-.005-.338.505 0 .5h5.25c.82 0 1.302-.37 1.527-.746C9.003 7.378 9 7 9 7V3c0-.567.196-.772.38-.887C9.567 2 9.747 2 9.747 2h.504c.338.005.338-.505 0-.5h-.5zm-2.5 7a.75.75 0 1 0 0 1.5.75.75 0 0 0 0-1.5zm-4 0a.75.75 0 1 0 0 1.5.75.75 0 0 0 0-1.5z"/></symbol><symbol viewBox="0 0 15 15" id="si-maki-grocery-15"><path d="M13.2 1.5s-1.391-.041-1.946.5c-.534.52-.754.918-.754 2H1.2l1.394 4.814c.003.008.01.015.013.022.235.657.848 1.13 1.579 1.158l.013.006h6.5v.2s.001.3-.199.7c-.2.4-.3.6-1.1.6H2.9c-1 0-1 1.5 0 1.5h6.4c1.2 0 2.1-.7 2.4-1.4.3-.7.3-1.3.3-1.3V4c0-.524.229-1 .7-1h.55a.75.75 0 0 0 0-1.5h-.05zM9.2 13c-.6 0-1 .4-1 1s.4 1 1 1 1-.4 1-1-.4-1-1-1zm-5 0c-.6 0-1 .4-1 1s.4 1 1 1 1-.4 1-1-.4-1-1-1z"/></symbol><symbol viewBox="0 0 11 11" id="si-maki-hairdresser-11"><path d="M1.5 2A1.5 1.5 0 0 0 0 3.5v1c0 .5.5.5.5.5h1C3 5 4 5.5 4 5.5S3 6 1.5 6h-1S0 6 0 6.5v1a1.5 1.5 0 0 0 3 0v-.615c.808-.158 1.587-.453 2.225-.742L8.5 8C10 8.75 11 8 11 8L6.5 5.5 11 3s-1-.75-2.5 0L5.225 4.857C4.587 4.568 3.808 4.273 3 4.115V3.5A1.5 1.5 0 0 0 1.5 2zm0 1a.5.5 0 1 1 0 1 .5.5 0 0 1 0-1zm3.732 2.25h.018a.25.25 0 1 1-.018 0zM1.5 7a.5.5 0 1 1 0 1 .5.5 0 0 1 0-1z"/></symbol><symbol viewBox="0 0 15 15" id="si-maki-hairdresser-15"><path d="M15 3s-2-.6-3.5.5l-4.3 3c-.8-.6-2-1.3-3.2-1.7V4c0-1.1-.9-2-2-2s-2 .9-2 2v1.5c0 .5.5.5.5.5h2C4.5 6 6 7.5 6 7.5S4.5 9 2.5 9h-2S0 9 0 9.5V11c0 1.1.9 2 2 2s2-.9 2-2v-.8c1.2-.4 2.4-1.1 3.2-1.7l4.3 3c1.5 1.1 3.5.5 3.5.5L8.5 7.5 15 3zM3 5H1V4c0-.6.4-1 1-1s1 .4 1 1v1zm0 6c0 .6-.4 1-1 1s-1-.4-1-1v-1h2v1zm4.25-3a.5.5 0 1 1 0-1 .5.5 0 0 1 0 1z"/></symbol><symbol viewBox="0 0 11 11" id="si-maki-harbor-11"><path d="M5.5 0A2.5 2.5 0 0 0 3 2.5a2.493 2.493 0 0 0 1.75 2.371v4.545c-.659-.115-1.338-.375-1.893-.857C2.09 7.89 1.5 6.829 1.5 5A.75.75 0 1 0 0 5c0 2.17.773 3.735 1.873 4.691S4.333 11 5.5 11s2.527-.352 3.627-1.309S11 7.171 11 5c.014-1.014-1.514-1.014-1.5 0 0 1.83-.589 2.89-1.357 3.559-.555.482-1.234.742-1.893.857V4.875A2.494 2.494 0 0 0 5.5 0zm0 1.5a1 1 0 1 1 0 2 1 1 0 0 1 0-2z"/></symbol><symbol viewBox="0 0 15 15" id="si-maki-harbor-15"><path d="M7.5 0C5.5 0 4 1.567 4 3.5a3.492 3.492 0 0 0 2.5 3.338v6.039c-.93-.165-1.875-.55-2.648-1.27-1.053-.98-1.85-2.54-1.85-5.109a1 1 0 1 0-2.002 0c0 3.003 1.012 5.196 2.49 6.572C3.968 14.447 5.838 15 7.5 15c1.666 0 3.535-.56 5.012-1.94s2.486-3.573 2.486-6.562c.065-1.395-2.063-1.395-1.998 0 0 2.553-.8 4.115-1.853 5.1-.774.722-1.718 1.11-2.647 1.277V6.842A3.494 3.494 0 0 0 11 3.5C11 1.567 9.5 0 7.5 0zm0 2a1.5 1.5 0 1 1 0 3 1.5 1.5 0 0 1 0-3z"/></symbol><symbol viewBox="0 0 11 11" id="si-maki-heart-11"><path d="M10.06 4.76a27 27 0 0 1-4.2 5.36.49.49 0 0 1-.71 0A27.003 27.003 0 0 1 .94 4.76C-.88 1.12 3.74-1.31 5.5 2.33c1.76-3.64 6.38-1.21 4.56 2.43z"/></symbol><symbol viewBox="0 0 15 15" id="si-maki-heart-15"><path d="M13.91 6.75c-1.17 2.25-4.3 5.31-6.07 6.94a.5.5 0 0 1-.67 0C5.39 12.06 2.26 9 1.09 6.75-1.48 1.8 5-1.5 7.5 3.45c2.5-4.95 8.98-1.65 6.41 3.3z"/></symbol><symbol viewBox="0 0 11 11" id="si-maki-heliport-11"><path d="M3 1c-.277 0-.5.223-.5.5s.224.482.5.5h3v2H2.912a1.5 1.5 0 1 0-.39 1.596L4.5 8.5c.681 1 1.5 1 2 1h3.535s.965 0 .965-1v-1c0-.5-.5-1-.5-1l-2-2S8 4 7.5 4H7V2h3a.499.499 0 1 0 0-1H3zM1.5 4a.5.5 0 1 1 0 1 .5.5 0 0 1 0-1zm6.25 1s.25 0 .75.5L10 7H7.5S7 7 7 6.5v-1s0-.5.5-.5h.25z"/></symbol><symbol viewBox="0 0 15 15" id="si-maki-heliport-15"><path d="M4 2C3 2 3 3 4 3h4v1c-.277 0-.5.223-.5.5V5H3.932A1.998 1.998 0 0 0 0 5.5a2 2 0 0 0 2 2 2 2 0 0 0 1.053-.303L5.5 10.5C6.507 11.95 8.318 12 9 12h5s1 0 1-1v-.994c0-.733-.126-1.132-.5-1.506l-3-3s-.592-.5-1.273-.5H9.5v-.5c0-.277-.223-.5-.5-.5V3h4c1 0 1-1 0-1H4zM2 4.5a1 1 0 1 1 0 2 1 1 0 0 1 0-2zM10 6c.5 0 .79.323 1 .5L13.5 9H10S9 9 9 8V7s0-1 1-1z"/></symbol><symbol viewBox="0 0 11 11" id="si-maki-hospital-11"><path d="M10 4H7V1a1.08 1.08 0 0 0-1-1H5a1.08 1.08 0 0 0-1 1v3H1a1.08 1.08 0 0 0-1 1v1a1.08 1.08 0 0 0 1 1h3v3a1.08 1.08 0 0 0 1 1h1a1.08 1.08 0 0 0 1-1V7h3a1.08 1.08 0 0 0 1-1V5a1 1 0 0 0-1-1z"/></symbol><symbol viewBox="0 0 15 15" id="si-maki-hospital-15"><path d="M7 1c-.6 0-1 .4-1 1v4H2c-.6 0-1 .4-1 1v1c0 .6.4 1 1 1h4v4c0 .6.4 1 1 1h1c.6 0 1-.4 1-1V9h4c.6 0 1-.4 1-1V7c0-.6-.4-1-1-1H9V2c0-.6-.4-1-1-1H7z"/></symbol><symbol viewBox="0 0 11 11" id="si-maki-ice-cream-11"><path d="M4 6a2.49 2.49 0 0 0 1.5-.5c.432.325.959.5 1.5.5l-1 4.69a.5.5 0 0 1-.92 0L4 6zm3-4h-.09a1.5 1.5 0 1 0-2.82 0H4a1.5 1.5 0 1 0 1.5 1.5A1.5 1.5 0 1 0 7 2z"/></symbol><symbol viewBox="0 0 15 15" id="si-maki-ice-cream-15"><path d="M5.44 8.17a3.48 3.48 0 0 0 2-.63c.464.323 1 .53 1.56.6h.44L8 13.7a.5.5 0 0 1-.92 0L5.44 8.17zm6-3.5a2 2 0 1 1-4 0 2 2 0 1 1-2-2h.12a2 2 0 1 1 3.75 0h.13a2 2 0 0 1 2 2z"/></symbol><symbol viewBox="0 0 11 11" id="si-maki-industry-11"><path d="M10 1v8H1V6l2.11-1.78c.32-.32.89-.31.89.14V6l2.13-1.86A.5.5 0 0 1 7 4.5V8h2V1h1z"/></symbol><symbol viewBox="0 0 15 15" id="si-maki-industry-15"><path d="M14 1v12H1V8.72a.5.5 0 0 1 .17-.37l3-3.22a.5.5 0 0 1 .83.38v3l3.16-3.37a.5.5 0 0 1 .84.37V11h3V1h2z"/></symbol><symbol viewBox="0 0 11 11" id="si-maki-information-11"><path d="M5.599.94c-.6 0-1.1.5-1.1 1.1s.5 1.1 1.1 1.1 1.1-.5 1.1-1.1-.5-1.1-1.1-1.1zM3 4l-.001.74S4.5 4.634 4.5 6v1.5c0 1.5-1.501 1.74-1.501 1.74L3 10h5.2l-.001-.76s-1.2 0-1.2-1.5L7 5s0-1-1-1H3z"/></symbol><symbol viewBox="0 0 15 15" id="si-maki-information-15"><path d="M7.5 1C6.7 1 6 1.7 6 2.5S6.7 4 7.5 4 9 3.3 9 2.5 8.3 1 7.5 1zM4 5v1s2 0 2 2v2c0 2-2 2-2 2v1h7v-1s-2 0-2-2V6c0-.5-.5-1-1-1H4z"/></symbol><symbol viewBox="0 0 11 11" id="si-maki-laundry-11"><path d="M5 0L4 2H2S1 2 1 3v7s0 1 1 1h7c1 0 1-1 1-1V1c0-1-1-1-1-1H5zm1 1h3v1H6V1zm-.5 3a2.5 2.5 0 1 1 0 5 2.5 2.5 0 0 1 0-5z"/></symbol><symbol viewBox="0 0 15 15" id="si-maki-laundry-15"><path d="M8 1L6 3H3S2 3 2 4v9c0 1 1 1 1 1h9s1 0 1-1V2c0-1-1-1-1-1H8zm.5 1h2a.499.499 0 1 1 0 1h-2a.499.499 0 1 1 0-1zm-1 4a3 3 0 1 1 0 6 3 3 0 0 1 0-6z"/></symbol><symbol viewBox="0 0 11 11" id="si-maki-library-11"><path d="M0 1v7c3.26 0 5.49 2 5.49 2S7.76 8 11 8V1C7 1 5.49 2.725 5.49 2.725S4 1 0 1zm1 1c1.195-.031 3.053.402 4 1.348L5.5 4l.5-.652c.962-.93 2.8-1.36 4-1.348v5c-2 0-3.354.856-4.51 1.781C4.35 7.853 3 7 1 7V2zm1 1.303v.181c.823.17 2.1.687 3 1.176v-.228c-.917-.479-2.176-.972-3-1.13zm7 0c-.824.157-2.083.65-3 1.129v.228c.9-.489 2.177-1.007 3-1.176v-.181zm-7 .92v.181c.822.154 2.099.659 3 1.133v-.195c-.917-.476-2.176-.967-3-1.12zm7 0c-.824.152-2.083.643-3 1.119v.195c.901-.474 2.178-.979 3-1.133v-.181zm-7 .894V5.3c.822.155 2.098.659 3 1.133v-.196c-.918-.475-2.176-.965-3-1.119zm7 0c-.824.154-2.082.644-3 1.12v.195c.902-.474 2.178-.979 3-1.133v-.182zM2 6v.182c.82.14 2.097.629 3 1.087v-.15C4.082 6.645 2.824 6.154 2 6zm7 0c-.824.154-2.082.644-3 1.12v.15c.903-.459 2.18-.948 3-1.088V6z"/></symbol><symbol viewBox="0 0 15 15" id="si-maki-library-15"><path d="M7.47 4.92S5.7 3 1 3v8c4.7 0 6.47 2 6.47 2S9.3 11 14 11V3C9.3 3 7.47 4.92 7.47 4.92zM13 10a10.84 10.84 0 0 0-5.53 1.68A10.56 10.56 0 0 0 2 10V4c3.4.26 4.73 1.6 4.75 1.61l.73.74.72-.75S9.6 4.26 13 4v6zm-5 .24l-.1-.17A14.519 14.519 0 0 1 12 8.89v.2a14.27 14.27 0 0 0-4 1.18v-.03zm0-1l-.1-.17A14.51 14.51 0 0 1 12 7.9v.2a14.29 14.29 0 0 0-4 1.19v-.05zm0-1l-.1-.17A14.491 14.491 0 0 1 12 6.9v.2a14.24 14.24 0 0 0-4 1.19v-.05zm0-1l-.1-.17A14.45 14.45 0 0 1 12 5.9v.2a14.28 14.28 0 0 0-4 1.19v-.05zm-1.1 3A13.9 13.9 0 0 0 3 9.08v-.2c1.387.203 2.736.614 4 1.22l-.1.14zm0-1A13.899 13.899 0 0 0 3 8.1v-.2a14.12 14.12 0 0 1 4 1.21l-.1.13zm0-1A13.86 13.86 0 0 0 3 7.1v-.2c1.387.199 2.735.607 4 1.21l-.1.13zm0-1A13.899 13.899 0 0 0 3 6.1v-.2a14.1 14.1 0 0 1 4 1.21l-.1.13z"/></symbol><symbol viewBox="0 0 11 11" id="si-maki-lighthouse-11"><path d="M7 6l1 5H3l1-5h1.2V2h-.92a.32.32 0 0 1-.12-.6L5.38 1a.29.29 0 0 1 .24 0l1.22.4a.32.32 0 0 1-.12.6h-.91v4H7zm1-3v.5l3-.5v-.5L8 3zm0 2.5l3 .5v-.5L8 5v.5zM3 3l-3-.5V3l3 .5V3zm0 2l-3 .5V6l3-.5V5z"/></symbol><symbol viewBox="0 0 15 15" id="si-maki-lighthouse-15"><path d="M4.5 6L0 7v-.5l4.5-1V6zm0-2.5L0 2.5V3l4.5 1v-.5zm6 0V4L15 3v-.5l-4.5 1zm0 2.5L15 7v-.5l-4.5-1V6zM8 7V2h2.5a.51.51 0 0 0 .2-1l-3-1a.5.5 0 0 0-.41 0l-3 1a.51.51 0 0 0 .2 1H7v5H5l-2 7h9l-2-7H8z"/></symbol><symbol viewBox="0 0 11 11" id="si-maki-lodging-11"><path d="M1.5 2a.5.5 0 0 0-.5.5v6a.5.5 0 0 0 1 0V8h7v.5a.5.5 0 0 0 1 0v-1a.5.5 0 0 0-.5-.5H2V2.5a.5.5 0 0 0-.5-.5zm2 0a1 1 0 1 0 0 2 1 1 0 0 0 0-2zM6 3a1 1 0 0 0-1 1v1H3a.5.5 0 0 0 0 1h7V5a2 2 0 0 0-2-2H6z"/></symbol><symbol viewBox="0 0 15 15" id="si-maki-lodging-15"><path d="M.5 2.5c-.3 0-.5.2-.5.5v9.5c0 .3.2.5.5.5s.5-.2.5-.5V11h13v1.5c0 .3.2.5.5.5s.5-.2.5-.5v-2c0-.3-.2-.5-.5-.5H1V3c0-.3-.2-.5-.5-.5zm3 .5C2.7 3 2 3.7 2 4.5S2.7 6 3.5 6 5 5.3 5 4.5 4.3 3 3.5 3zM7 4C5.5 4 5.5 5.5 5.5 5.5V7h-3c-.3 0-.5.2-.5.5v1c0 .3.2.5.5.5H15V6.5C15 4 12.5 4 12.5 4H7z"/></symbol><symbol viewBox="0 0 11 11" id="si-maki-marker-11"><path d="M5.5-.018c-1.787 0-3.871 1.092-3.871 3.872C1.629 5.739 4.607 9.908 5.5 11c.794-1.092 3.871-5.161 3.871-7.147 0-2.779-2.084-3.87-3.871-3.87z"/></symbol><symbol viewBox="0 0 15 15" id="si-maki-marker-15"><path d="M7.5 0C5.068 0 2.23 1.486 2.23 5.27c0 2.568 4.054 8.244 5.27 9.73 1.081-1.486 5.27-7.027 5.27-9.73C12.77 1.487 9.932 0 7.5 0z"/></symbol><symbol viewBox="0 0 11 11" id="si-maki-monument-11"><path d="M5.5 0L4 2v4.5h3V2L5.5 0zM3 7L2 8v3h7V8L8 7H3z"/></symbol><symbol viewBox="0 0 15 15" id="si-maki-monument-15"><path d="M7.5 0L6 2.5v7h3v-7L7.5 0zM3 11.5V15h9v-3.5L10.5 10h-6L3 11.5z"/></symbol><symbol viewBox="0 0 11 11" id="si-maki-mountain-11"><path d="M5.518 1.232a.556.556 0 0 0-.495.268l-4 6.66c-.222.37.045.84.477.84h8c.432 0 .7-.47.477-.84l-4-6.66a.556.556 0 0 0-.46-.268zm.002.922L8.431 7H7.76L6.416 5.773 5.519 7l-.894-1.227L3.281 7H2.61l2.91-4.846z"/></symbol><symbol viewBox="0 0 15 15" id="si-maki-mountain-15"><path d="M7.5 2c-.3 0-.4.2-.6.4l-5.8 9.5c-.1.1-.1.3-.1.4 0 .5.4.7.7.7h11.6c.4 0 .7-.2.7-.7 0-.2 0-.2-.1-.4L8.2 2.4C8 2.2 7.8 2 7.5 2zm0 1.5L10.8 9H10L8.5 7.5 7.5 9l-1-1.5L5 9h-.9l3.4-5.5z"/></symbol><symbol viewBox="0 0 11 11" id="si-maki-museum-11"><path d="M5.5 0L1 2v1h9V2L5.5 0zM2 4v4L1 9v1h9V9L9 8V4H2zm1.49 1a.5.5 0 0 1 .36.15L5.5 6.79l1.65-1.64A.5.5 0 0 1 8 5.5v3a.5.5 0 0 1-1 0V6.71L5.85 7.85a.5.5 0 0 1-.707.003L5.14 7.85 4 6.71V8.5a.5.5 0 0 1-1 0v-3a.5.5 0 0 1 .49-.5z"/></symbol><symbol viewBox="0 0 15 15" id="si-maki-museum-15"><path d="M7.5 0L1 3.445V4h13v-.555L7.5 0zM2 5v5l-1 1.555V13h13v-1.445L13 10V5H2zm2.615 1a.625.625 0 0 1 .451.184L7.5 8.617l2.434-2.433A.625.625 0 0 1 11 6.625v4.242a.625.625 0 1 1-1.25 0V8.133L7.941 9.94a.625.625 0 0 1-.882 0L5.25 8.133v2.734a.625.625 0 1 1-1.25 0V6.625c0-.341.274-.62.615-.625z"/></symbol><symbol viewBox="0 0 11 11" id="si-maki-music-11"><path d="M9.5.5a.489.489 0 0 0-.22.05L3.5 2a.5.5 0 0 0-.5.5v4.59A1.5 1.5 0 1 0 4 8.5V5.38l5-1.25v1.46A1.5 1.5 0 1 0 10 7V1a.5.5 0 0 0-.5-.5zM4 4.38v-1.5l5-1.25v1.5L4 4.38z"/></symbol><symbol viewBox="0 0 15 15" id="si-maki-music-15"><path d="M13.5 1a.49.49 0 0 0-.23.06L4.5 3.5A.5.5 0 0 0 4 4v6.28A2 2 0 0 0 3 10a2 2 0 1 0 2 2V7.36l8-2.22v3.64a2 2 0 0 0-1-.28 2 2 0 1 0 2 2v-9a.5.5 0 0 0-.5-.5zM13 4.14L5 6.36v-2l8-2.22v2z"/></symbol><symbol viewBox="0 0 11 11" id="si-maki-park-11"><path d="M11 3.75A1.75 1.75 0 0 0 9.25 2a1.73 1.73 0 0 0-.8.2A1.24 1.24 0 0 0 7.21 1a1.19 1.19 0 0 0-.21.05A1.23 1.23 0 0 0 5.75 0a1.25 1.25 0 0 0-1.13.73A1.21 1.21 0 0 0 4 .52a1.23 1.23 0 0 0-1 .55A1.491 1.491 0 0 0 2.51 1a1.51 1.51 0 0 0-1.4 2.08A1.49 1.49 0 0 0 1.08 6a1.49 1.49 0 0 0 2.55.52h.12c.321 0 .63-.126.86-.35V10L3 11h5l-1.6-1V9a8.42 8.42 0 0 1 2.38-2c.26-.05.5-.167.7-.34A1.49 1.49 0 0 0 10 5.5a1.46 1.46 0 0 0 0-.17c.61-.29 1-.904 1-1.58zm-4.64 4.5V6h.18a1.52 1.52 0 0 0 .53-.1 1.5 1.5 0 0 0 .89 1 8.821 8.821 0 0 0-1.6 1.35z"/></symbol><symbol viewBox="0 0 15 15" id="si-maki-park-15"><path d="M14 5.75a1.75 1.75 0 0 0-1-1.61A1.24 1.24 0 0 0 11.75 3a1.197 1.197 0 0 0-.29.06 1.2 1.2 0 0 0-2-.78 1.25 1.25 0 1 0-2.5 0s.04.02.04.05a1.22 1.22 0 0 0-2 .74A1.491 1.491 0 0 0 4.51 3a1.5 1.5 0 0 0-1.4 2.07 1.49 1.49 0 0 0 0 2.87A1.49 1.49 0 0 0 6 7.71c.183.16.41.26.65.29v5L5 14h5l-1.6-1v-2a6.8 6.8 0 0 1 2.77-2A1.49 1.49 0 0 0 13 7.52a1.472 1.472 0 0 0 0-.16 1.75 1.75 0 0 0 1-1.61zm-5.6 4.51V6.82c.27.48.778.779 1.33.78h.28c.016.44.224.849.57 1.12a7.25 7.25 0 0 0-2.18 1.54z"/></symbol><symbol viewBox="0 0 11 11" id="si-maki-parking-11"><path d="M8.1 6.1a3.53 3.53 0 0 1-2.29.66H3.9V10H2V1h3.93a3.2 3.2 0 0 1 2.16.69 2.69 2.69 0 0 1 .81 2.16 2.76 2.76 0 0 1-.8 2.25zM6.64 2.86a1.56 1.56 0 0 0-1-.3H3.9v2.65h1.72a1.48 1.48 0 0 0 1-.32 1.31 1.31 0 0 0 .36-1 1.23 1.23 0 0 0-.34-1.03z"/></symbol><symbol viewBox="0 0 15 15" id="si-maki-parking-15"><path d="M11.85 8.37a5.1 5.1 0 0 1-3.31 1H5.79V14H3V1h5.72a4.63 4.63 0 0 1 3.13 1A3.88 3.88 0 0 1 13 5.12a4 4 0 0 1-1.15 3.25zM9.75 3.7a2.25 2.25 0 0 0-1.47-.43H5.79v3.82h2.49a2.13 2.13 0 0 0 1.47-.47c.38-.395.57-.935.52-1.48a1.77 1.77 0 0 0-.52-1.44z"/></symbol><symbol viewBox="0 0 11 11" id="si-maki-parking-garage-11"><path d="M7.25 7.44a2.35 2.35 0 0 1-1.53.44H4.45V10H3.19V4H5.8a2.13 2.13 0 0 1 1.44.46c.385.372.583.897.54 1.43a1.84 1.84 0 0 1-.53 1.55zm-1-2.16a1 1 0 0 0-.68-.2H4.45v1.76H5.6a1 1 0 0 0 .68-.22.87.87 0 0 0 .24-.68.82.82 0 0 0-.24-.66h-.03zm4.16-2a.5.5 0 0 0-.19-.68L5.72.1a.5.5 0 0 0-.49 0L.73 2.6a.5.5 0 0 0 .49.87l4.28-2.4 4.26 2.37a.5.5 0 0 0 .679-.198l.001-.002-.03.04z"/></symbol><symbol viewBox="0 0 15 15" id="si-maki-parking-garage-15"><path d="M10.5 10.14a3.53 3.53 0 0 1-2.29.66h-1.9V14h-1.9V5h3.92a3.2 3.2 0 0 1 2.16.69 2.69 2.69 0 0 1 .81 2.15 2.76 2.76 0 0 1-.8 2.3zM9 6.9a1.56 1.56 0 0 0-1-.3H6.31v2.65H8a1.48 1.48 0 0 0 1-.32 1.31 1.31 0 0 0 .36-1A1.23 1.23 0 0 0 9 6.9zm5.41-2.69a.5.5 0 0 0-.24-.66L7.5.45.79 3.55a.501.501 0 1 0 .42.91L7.5 1.55l6.29 2.9a.5.5 0 0 0 .66-.24h-.04z"/></symbol><symbol viewBox="0 0 11 11" id="si-maki-pharmacy-11"><path d="M6 4l2-2a.732.732 0 0 1 0-.21.75.75 0 1 1 .75.75h-.11L7.5 4H6zm3.48 1.83L8.65 7.5l.83 1.67V10h-8v-.83l.84-1.67-.84-1.67V5h8v.83zM7.5 7H6V5.5H5V7H3.5v1H5v1.5h1V8h1.5V7z"/></symbol><symbol viewBox="0 0 15 15" id="si-maki-pharmacy-15"><path d="M9.5 4l1.07-1.54c.06.005.12.005.18 0A1.25 1.25 0 1 0 9.5 1.25v.1L7 4h2.5zM12 6V5H3v1l1.5 3.5L3 13v1h9v-1l-1-3.5L12 6zm-2 4H8v2H7v-2H5V9h2V7h1v2h2v1z"/></symbol><symbol viewBox="0 0 11 11" id="si-maki-picnic-site-11"><path d="M2.75 2c-.416 0-.75.334-.75.75s.334.75.75.75H4L3.54 5H1.75a.749.749 0 1 0 0 1.5h1.326L2 10h1l1.076-3.5h2.848L8 10h1L7.924 6.5H9.25a.749.749 0 1 0 0-1.5H7.46L7 3.5h1.25c.415 0 .75-.334.75-.75S8.665 2 8.25 2h-5.5zM5 3.5h1L6.46 5H4.54L5 3.5z"/></symbol><symbol viewBox="0 0 15 15" id="si-maki-picnic-site-15"><path d="M4 3c-.554 0-1 .446-1 1s.446 1 1 1h1.297l-.645 2H2.5c-.554 0-1 .446-1 1s.446 1 1 1h1.51l-.969 3.01a.75.75 0 1 0 1.426.465l.002-.004L5.586 9h3.828l1.117 3.47a.75.75 0 1 0 1.428-.46L10.99 9h1.51c.554 0 1-.446 1-1s-.446-1-1-1h-2.152l-.645-2H11c.554 0 1-.446 1-1s-.446-1-1-1H4zm2.873 2h1.254l.644 2H6.23l.644-2z"/></symbol><symbol viewBox="0 0 11 11" id="si-maki-pitch-11"><path d="M4 2a1 1 0 1 1 0-2 1 1 0 0 1 0 2zm6.5 6H9L8 5 7 3.25 8 3l2.3 1a.531.531 0 0 0 .36-1L8 2H6L4 3 3 4H1.47a.5.5 0 0 0 0 1H4l1-1 1 2-2 1v3.5a.5.5 0 0 0 1 0V7.39L7 7l1 2h2.5a.5.5 0 0 0 0-1z"/></symbol><symbol viewBox="0 0 15 15" id="si-maki-pitch-15"><path d="M5 3a1 1 0 1 1 0-2 1 1 0 0 1 0 2zm7.5 7H10L9 7 8 5.25 9 5l2.3 1a.539.539 0 0 0 .4-1L9 4H7L5 5 4 6H2.5a.5.5 0 0 0 0 1H5l1-1 1 2-2 2v3.5a.5.5 0 0 0 1 0v-3.11L8 9l1 2h3.5a.5.5 0 0 0 0-1z"/></symbol><symbol viewBox="0 0 11 11" id="si-maki-place-of-worship-11"><path d="M5.52 0L4 2v1h3V2L5.52 0zM4 4L2 5v5h7V5L7 4H4zm7 1.5V10h-1V5.5a.5.5 0 0 1 1 0zm-10 0V10H0V5.5a.5.5 0 0 1 1 0z"/></symbol><symbol viewBox="0 0 15 15" id="si-maki-place-of-worship-15"><path d="M7.5 0l-2 2v2h4V2l-2-2zm-2 4.5L4 6h7L9.5 4.5h-4zM2 6.5a1 1 0 0 0-1 1V13h2V7.5a1 1 0 0 0-1-1zm2 0V13h7V6.5H4zm9 0a1 1 0 0 0-1 1V13h2V7.5a1 1 0 0 0-1-1z"/></symbol><symbol viewBox="0 0 11 11" id="si-maki-playground-11"><path d="M1 .79a1 1 0 1 1-.005.02L1 .79zm9.85 7.37l-2-2A.49.49 0 0 0 8.5 6h-.13l-1.87.55V4a.49.49 0 0 0 .5-.41.5.5 0 0 0-.38-.59H6.5V0h-.22v3l-4.46.55A1 1 0 0 0 1 4.3a1 1 0 0 0 0 .43l.81 3.13a1 1 0 0 0 .71.68.993.993 0 0 0 .46 0H3l3.29-.89v1.62l-3 .74a.524.524 0 0 0 .31 1 .946.946 0 0 0 .17 0l4-1a.522.522 0 0 0-.3-1L7.27 9l-.77.22V7.58l1.83-.51 1.81 1.78a.5.5 0 1 0 .72-.69h-.01zM6.28 6.61l-2.07.46-.71-2.74L6.28 4v2.61z"/></symbol><symbol viewBox="0 0 15 15" id="si-maki-playground-15"><path d="M2 1.15a1.5 1.5 0 1 1 2.903.757A1.5 1.5 0 0 1 2 1.15zm11 11.17a1 1 0 0 1-.796 1.17H12.2a1 1 0 0 1-1.07-.49L9.45 9.63 8 9.92l-.22.08h-.06v2.15l.62-.15h.14a.52.52 0 0 1 .19 1l-5 1a.51.51 0 0 1-.17 0 .52.52 0 0 1-.2-1l4.15-.83V10l-3.22.58a1 1 0 0 1-1.21-.68H3L2 5.83a1 1 0 0 1 0-.43 1 1 0 0 1 .8-.75l4.7-.52V0h.22v4.1h.06L8 4.08 8.4 4h.21a.5.5 0 0 1 .37.6.49.49 0 0 1-.49.4L8 5.08h-.28v2.86h.06L8 7.88l1.81-.36a1 1 0 0 1 1 .6l2 3.94a.999.999 0 0 1 .19.26zM7.5 5.13L5 5.4l.74 2.94L7.5 8V5.13z"/></symbol><symbol viewBox="0 0 11 11" id="si-maki-police-11"><path d="M4.5.5l.5 1h3l.5-1h-4zM5 2v1a1.5 1.5 0 0 0 3 0V2H5zM1.75 3C1 3 1 3.75 1 3.75v3a.75.75 0 0 0 .975.715L4 6.826V10l4-5H5s-.195 0-.424.072L2.5 5.727V3.75S2.5 3 1.75 3zm7.021 2.389L5 10h4V6a.98.98 0 0 0-.229-.611z"/></symbol><symbol viewBox="0 0 15 15" id="si-maki-police-15"><path d="M5.5 1L6 2h5l.5-1h-6zM6 2.5v1.25S6 6.5 8.5 6.5 11 3.75 11 3.75V2.5H6zM1.984 3.986A1 1 0 0 0 1 5v4a1 1 0 0 0 1.217.977L5 9.357V14l5.879-6.93a1.58 1.58 0 0 0-.438-.07H6.5L3 7.754V5a1 1 0 0 0-1.016-1.014zm9.764 3.725L6.412 14H12V8.559c0-.314-.094-.604-.252-.848z"/></symbol><symbol viewBox="0 0 11 11" id="si-maki-post-11"><path d="M10 5.5V9a1 1 0 0 1-1 1H2a1 1 0 0 1-1-1V5.5a.5.5 0 0 1 .5-.5.49.49 0 0 1 .21 0L5.5 7l3.8-2a.488.488 0 0 1 .2 0 .5.5 0 0 1 .5.5zM1.25 2.92l.08.08L5.5 5l4.19-2h.06a.49.49 0 0 0 .25-.5.5.5 0 0 0-.5-.5h-8a.5.5 0 0 0-.5.5.49.49 0 0 0 .25.42z"/></symbol><symbol viewBox="0 0 15 15" id="si-maki-post-15"><path d="M14 6.5V12a1 1 0 0 1-1 1H2a1 1 0 0 1-1-1V6.5a.5.5 0 0 1 .5-.5.49.49 0 0 1 .21 0l5.79 4 5.8-4a.488.488 0 0 1 .2 0 .5.5 0 0 1 .5.5zM1.25 3.92l.08.08L7.5 8l6.19-4h.06a.49.49 0 0 0 .25-.5.5.5 0 0 0-.5-.5h-12a.5.5 0 0 0-.5.5.49.49 0 0 0 .25.42z"/></symbol><symbol viewBox="0 0 11 11" id="si-maki-prison-11"><path d="M2 1v9h7V1H2zm1 1h1v3H3V2zm2 0h1v3H5V2zm2 0h1v2H7V2zm.5 3a.5.5 0 1 1 0 1 .5.5 0 0 1 0-1zM3 6h1v3H3V6zm2 0h1v3H5V6zm2 1h1v2H7V7z"/></symbol><symbol viewBox="0 0 15 15" id="si-maki-prison-15"><path d="M3.5 1v13H12V1H3.5zm6 1H11v3.5H9.5V2zm-5 .055H6V7H4.5V2.055zm2.5 0h1.5V7H7V2.055zM10.25 6.5a.75.75 0 0 1 0 1.5.75.75 0 0 1 0-1.5zM7 8h1.473l.027 5H7.027L7 8zm-2.5.166H6V13H4.5V8.166zM9.5 9H11v4H9.5V9z"/></symbol><symbol viewBox="0 0 11 11" id="si-maki-rail-11"><path d="M9 10.5a.5.5 0 0 1-.5.5.49.49 0 0 1-.43-.27L7.69 10H3.31l-.37.74A.5.5 0 0 1 2 10.5a.49.49 0 0 1 .07-.24l1-2A.49.49 0 0 1 3.5 8a.5.5 0 0 1 .5.7l-.19.3h3.38L7 8.7a.5.5 0 0 1 .9-.43l1 2a.49.49 0 0 1 .1.23zM8 0H3a1 1 0 0 0-1 1v5a1 1 0 0 0 1 1h5a1 1 0 0 0 1-1V1a1 1 0 0 0-1-1zM3.5 6a.5.5 0 1 1 0-1 .5.5 0 0 1 0 1zm0-2a.5.5 0 0 1-.5-.5v-2a.5.5 0 0 1 .5-.5h1.79v3H3.5zm4 2a.5.5 0 1 1 0-1 .5.5 0 0 1 0 1zM8 3.5a.5.5 0 0 1-.5.5H5.69V1H7.5a.5.5 0 0 1 .5.5v2z"/></symbol><symbol viewBox="0 0 15 15" id="si-maki-rail-15"><path d="M3 1a1 1 0 0 0-1 1v8a1 1 0 0 0 1 1h9a1 1 0 0 0 1-1V2a1 1 0 0 0-1-1H3zm2.75.5h3.51a.25.25 0 1 1 0 .5H5.75a.25.25 0 1 1 0-.5zM3.5 3H7v4H3.5a.5.5 0 0 1-.5-.5v-3a.5.5 0 0 1 .5-.5zM8 3h3.5a.5.5 0 0 1 .5.5v3a.5.5 0 0 1-.5.5H8V3zM5 8a1 1 0 1 1 0 2 1 1 0 0 1 0-2zm5 0a1 1 0 1 1 0 2 1 1 0 0 1 0-2zm.445 3.994a.504.504 0 0 0-.425.676l.17.33H4.81l.13-.27a.5.5 0 0 0-.91-.41l-1 2a.487.487 0 0 0-.03.18.5.5 0 0 0 .5.5.49.49 0 0 0 .43-.26v-.05H4l.31-.69h6.38l.31.69v.05a.49.49 0 0 0 .43.26.5.5 0 0 0 .5-.5.49.49 0 0 0 0-.24l-1-2a.5.5 0 0 0-.485-.266z"/></symbol><symbol viewBox="0 0 11 11" id="si-maki-rail-light-11"><path d="M4 0c-.5 0-.5.5-.5.5s0 .5.5.5h1v.97L4 2S3 2 3 3v3c0 2 2 2 2 2h1s2 0 2-2V3c0-1-1-1-1-1H6V1h1c.5 0 .5-.5.5-.5S7.5 0 7 0H4zm1.5 3l1.5.5V5H4V3.5L5.5 3zm0 3a.499.499 0 1 1 0 1 .499.499 0 1 1 0-1zM2.834 8.5L2 11h1.5l.334-1h3.332l.334 1H9l-.834-2.5H6.668l.166.5H4.166l.166-.5H2.834z"/></symbol><symbol viewBox="0 0 15 15" id="si-maki-rail-light-15"><path d="M5.5 0C5 0 5 .5 5 .5v1a.499.499 0 1 0 1 0V1h1v2H6S4 3 4 5v3c0 3 3 3 3 3h1s3 0 3-3V5c0-2-2-2-2-2H8V1h1v.5a.499.499 0 1 0 1 0v-1c0-.5-.5-.5-.5-.5h-4zm2 4l2.045.773L10 6.5c.132.5-.5.5-.5.5h-4s-.632 0-.5-.5l.455-1.727L7.5 4zm0 4a.5.5 0 1 1 0 1 .5.5 0 0 1 0-1zm-3.375 4L3 15h1.5l.375-1h5.25l.375 1H12l-1.125-3h-1.5l.375 1h-4.5l.375-1h-1.5z"/></symbol><symbol viewBox="0 0 11 11" id="si-maki-rail-metro-11"><path d="M3.5 0C3 0 3 .5 3 .5L2 5v1c0 1.024 1 1 1 1h5s1 0 1-1V5L8 .5S8 0 7.5 0h-4zM4 1h3l.5 3h-4L4 1zm-.5 4a.5.5 0 1 1 0 1 .5.5 0 0 1 0-1zm1.75 0h.5a.25.25 0 1 1 0 .5h-.5a.25.25 0 1 1 0-.5zM7.5 5a.5.5 0 1 1 0 1 .5.5 0 0 1 0-1zM3 8l-1 3h1.5l.334-1h3.332l.334 1H9L8 8H6.5l.334 1H4.166L4.5 8H3z"/></symbol><symbol viewBox="0 0 15 15" id="si-maki-rail-metro-15"><path d="M5.5 0s-.75 0-1 1L3 6.5V10c0 1 1 1 1 1h7s1 0 1-1V6.5L10.5 1c-.273-1-1-1-1-1h-4zm1 1.5h2s.536 0 .75 1L10 6c.215 1.002-1 1-1 1H6s-1.215.002-1-1l.75-3.5c.214-1 .75-1 .75-1zM5 8a1 1 0 1 1 0 2 1 1 0 0 1 0-2zm1.75 0h1.5a.25.25 0 1 1 0 .5h-1.5a.25.25 0 1 1 0-.5zM10 8a1 1 0 1 1 0 2 1 1 0 0 1 0-2zm-5.875 4L3 15h1.5l.375-1h5.25l.375 1H12l-1.125-3h-1.5l.375 1h-4.5l.375-1h-1.5z"/></symbol><symbol viewBox="0 0 11 11" id="si-maki-ranger-station-11"><path d="M6.334 0L5 1v3L1 6.055V10h3V7h3v3h3V6.055L6 4V2.25L6.334 2l1.332 1L9 2V0L7.666 1 6.334 0z"/></symbol><symbol viewBox="0 0 15 15" id="si-maki-ranger-station-15"><path d="M9 .5l-2 1v3.773L2 8v6h4v-4h3v4h4V8L8 5.273V4l1-.5 2 1 2-1v-3l-2 1-2-1z"/></symbol><symbol viewBox="0 0 11 11" id="si-maki-religious-christian-11"><path d="M4.5 0v3H2v2h2.5v6h2V5H9V3H6.5V0h-2z"/></symbol><symbol viewBox="0 0 15 15" id="si-maki-religious-christian-15"><path d="M6 .955V4H3v3h3v8h3V7h3V4H9V1c0-1-.978-1-.978-1H6.99S6 0 6 .955z"/></symbol><symbol viewBox="0 0 11 11" id="si-maki-religious-jewish-11"><path d="M11 8H7.1l-1.6 3-1.6-3H0l1.95-2.5L0 3h3.9l1.6-3 1.6 3H11L9.05 5.5 11 8z"/></symbol><symbol viewBox="0 0 15 15" id="si-maki-religious-jewish-15"><path d="M15 12H9.78L7.5 15l-2.26-3H0l2.7-4L0 4h5.3l2.2-4 2.34 4H15l-2.56 4L15 12z"/></symbol><symbol viewBox="0 0 11 11" id="si-maki-religious-muslim-11"><path d="M4.9 0C2.2 0 0 2.2 0 4.9s2.2 4.9 4.9 4.9c.9 0 1.7-.2 2.4-.6h-.6c-2.4 0-4.3-1.9-4.3-4.3S4.3.6 6.7.6h.6C6.5.2 5.8 0 4.9 0zm3.6 2l-.816 1.7L6 4l1 1.5L6.5 7l2-1 2 1-.5-1.5L11 4l-1.5-.3-1-1.7z"/></symbol><symbol viewBox="0 0 15 15" id="si-maki-religious-muslim-15"><path d="M6.794 0C3 0 0 3 0 6.794s3 6.794 6.794 6.794c2.118 0 4.412-.706 5.647-2.294-.794.53-2.294 1.147-3.441 1.147-2.912 0-5.118-2.912-5.118-5.823S6.088 1.148 9 1.148c1.059 0 2.559.617 3.441 1.146C11.206.706 8.911 0 6.794 0zM11 3l-1 2.5H7L9.5 7l-1 3L11 8.5l2.5 1.5-1-3L15 5.5h-3L11 3z"/></symbol><symbol viewBox="0 0 11 11" id="si-maki-restaurant-11"><path d="M2.25 0l-.5 3.5c-.07.495 1.24 1.4 1.25 2V11h1V5.5c0-.6 1.32-1.505 1.25-2L4.75 0h-.5l.25 2.75-.75.5V0h-.5v3.25l-.75-.5L2.75 0h-.5zM9 0C7.5 0 7.006 1.724 7 3v3h1v5h1V0z"/></symbol><symbol viewBox="0 0 15 15" id="si-maki-restaurant-15"><path d="M3.5 0l-1 5.5c-.146.805 1.782 1.181 1.75 2L4 14c-.038 1 1 1 1 1s1.038 0 1-1l-.25-6.5c-.031-.818 1.733-1.18 1.75-2L6.5 0H6l.25 4-.75.5L5.25 0h-.5L4.5 4.5 3.75 4 4 0h-.5zM12 0c-.736 0-1.964.655-2.455 1.637C9.135 2.373 9 4.018 9 5v2.5c0 .818 1.09 1 1.5 1L10 14c-.09.996 1 1 1 1s1 0 1-1V0z"/></symbol><symbol viewBox="0 0 11 11" id="si-maki-roadblock-11"><path d="M5.5 0a5.5 5.5 0 1 0 0 11 5.5 5.5 0 0 0 0-11zM2 4.5h7v2H2v-2z"/></symbol><symbol viewBox="0 0 15 15" id="si-maki-roadblock-15"><path d="M7.5 0a7.5 7.5 0 1 0 0 15 7.5 7.5 0 0 0 0-15zM3 6h9v3H3V6z"/></symbol><symbol viewBox="0 0 11 11" id="si-maki-rocket-11"><path d="M9 1C7.488 1 5.408 2.146 4.049 4H3c-.801 0-1.184.367-1.5 1L1 6h2l1 1 1 1v2l1-.5c.633-.316 1-.699 1-1.5V6.951C8.854 5.592 10 3.512 10 2V1H9zM7.5 3a.5.5 0 1 1 0 1 .5.5 0 0 1 0-1zM2.75 7.25l-.25.25C2 8 2 9 2 9s.945.055 1.5-.5l.25-.25-1-1z"/></symbol><symbol viewBox="0 0 15 15" id="si-maki-rocket-15"><path d="M12.555 1C10.41 1 7.534 2.471 5.602 5H4c-1.157 0-1.82.864-2.277 1.777L1.11 8H4l1.5 1.5L7 11v2.889l1.223-.612C9.136 12.821 10 12.157 10 11V9.398c2.529-1.932 4-4.809 4-6.953V1h-1.445zM10 4a1 1 0 1 1 0 2 1 1 0 1 1 0-2zm-6.5 6l-.5.5c-.722.722-1 2.5-1 2.5s1.698-.198 2.5-1l.5-.5L3.5 10z"/></symbol><symbol viewBox="0 0 11 11" id="si-maki-school-11"><path d="M8.5 9V8H10V6H7.5V5H10V3H8.5V2H10V1H6v9h4V9H8.5zM4 7H1V1h3v6zm0 1l-1.5 2L1 8h3z"/></symbol><symbol viewBox="0 0 15 15" id="si-maki-school-15"><path d="M11 13v-1h2v-1H9.5v-1H13V9h-2V8h2V7h-2V6h2V5H9.5V4H13V3h-2V2h2V1H8v13h5v-1h-2zm-5-2H2V1h4v10zm0 1l-2 2-2-2h4z"/></symbol><symbol viewBox="0 0 11 11" id="si-maki-shelter-11"><path d="M4 5v3h6v2H2V5.67L1 6V4l9-3v2L4 5z"/></symbol><symbol viewBox="0 0 15 15" id="si-maki-shelter-15"><path d="M4 7v5h9.5v2H2V7.78l-1 .38V6l13-5v2.14L4 7z"/></symbol><symbol viewBox="0 0 11 11" id="si-maki-shop-11"><path d="M9.6 4H8.49L8.2 2.27a1.47 1.47 0 0 0-1.06-1.11A2.799 2.799 0 0 0 6.33 1H4.67a2.798 2.798 0 0 0-.8.14A1.47 1.47 0 0 0 2.8 2.27L2.51 4H1.34a.37.37 0 0 0-.34.49l1.21 4.7c.135.47.56.799 1.05.81h4.48a1.12 1.12 0 0 0 1.06-.81l1.2-4.7A.37.37 0 0 0 9.6 4zM3.27 4l.27-1.61a.68.68 0 0 1 .55-.52c.185-.06.376-.093.57-.1h1.67c.194.007.385.04.57.1a.68.68 0 0 1 .55.52L7.73 4H3.27z"/></symbol><symbol viewBox="0 0 15 15" id="si-maki-shop-15"><path d="M13.33 6H11.5l-.39-2.33A2 2 0 0 0 9.7 2.18 3.76 3.76 0 0 0 8.62 2H6.38a3.76 3.76 0 0 0-1.08.18 2 2 0 0 0-1.41 1.49L3.5 6H1.67a.5.5 0 0 0-.48.65l1.88 6.3A1.5 1.5 0 0 0 4.5 14h6a1.5 1.5 0 0 0 1.42-1.05l1.88-6.3a.5.5 0 0 0-.47-.65zM4.52 6l.36-2.17a.91.91 0 0 1 .74-.7c.246-.078.502-.121.76-.13h2.24c.261.008.52.051.77.13a.91.91 0 0 1 .74.7L10.48 6h-6 .04z"/></symbol><symbol viewBox="0 0 11 11" id="si-maki-skiing-11"><path d="M11 3.68a1.09 1.09 0 1 1-2.18-.008A1.09 1.09 0 0 1 11 3.68zM10.17 9a.25.25 0 0 0-.33-.11 1.9 1.9 0 0 1-1.59.18L3.69 6.81l1.9-1V3.68l1.09.55v2.18L7.77 7l1.09-.55-1.09-.59V2.59L5.59 1.5 4.5 2v3.32l-1.9 1-2-1a.25.25 0 1 0-.22.45L8 9.54c.24.101.5.149.76.14a2.85 2.85 0 0 0 1.28-.33.25.25 0 0 0 .13-.35z"/></symbol><symbol viewBox="0 0 15 15" id="si-maki-skiing-15"><path d="M15 4.5a1.5 1.5 0 1 1-3 0 1.5 1.5 0 0 1 3 0zm-1.28 7.39a.25.25 0 0 0-.33-.11 2.69 2.69 0 0 1-2.28.25L4.78 8.86 7.5 7.5v-3l1.5.75v3l1.5.75 1.5-.75-1.5-.75V3l-3-1.5-1.5.75v4.5L3.28 8.11.61 6.78a.25.25 0 1 0-.22.45l10.5 5.25c.316.135.657.2 1 .19a3.84 3.84 0 0 0 1.72-.44.25.25 0 0 0 .113-.335l-.003-.005z"/></symbol><symbol viewBox="0 0 11 11" id="si-maki-soccer-11"><path d="M9 1.25a1.25 1.25 0 1 1-2.5-.001A1.25 1.25 0 0 1 9 1.25zm0 7.23a1 1 0 1 0 0 2 1 1 0 0 0 0-2zm1.81-3.39L8.94 3.18A.48.48 0 0 0 8.56 3H1.51a.5.5 0 0 0 0 1H5L2.07 8.3a.488.488 0 0 0 0 .2.511.511 0 0 0 1 .21H3L4.16 7H6l-1.93 3.24a.49.49 0 0 0-.07.26.51.51 0 0 0 1 .2l3.67-6.38 1.48 1.48a.5.5 0 1 0 .7-.71h-.04z"/></symbol><symbol viewBox="0 0 15 15" id="si-maki-soccer-15"><path d="M11 1.5a1.5 1.5 0 1 1-3 0 1.5 1.5 0 0 1 3 0zm0 9.5a1 1 0 1 0 0 2 1 1 0 0 0 0-2zm1.84-4.91l-1.91-1.91a.48.48 0 0 0-.37-.18H3.5a.5.5 0 0 0 0 1h2.7L3 11.3a.488.488 0 0 0 0 .2.511.511 0 0 0 1 .21L5 10h2l-1.93 4.24a.49.49 0 0 0-.07.26.51.51 0 0 0 1 .2l4.7-9.38 1.44 1.48a.5.5 0 0 0 .7-.71z"/></symbol><symbol viewBox="0 0 11 11" id="si-maki-square-11"><path d="M9 10H2a1 1 0 0 1-1-1V2a1 1 0 0 1 1-1h7a1 1 0 0 1 1 1v7a1 1 0 0 1-1 1z"/></symbol><symbol viewBox="0 0 15 15" id="si-maki-square-15"><path d="M13 14H2a1 1 0 0 1-1-1V2a1 1 0 0 1 1-1h11a1 1 0 0 1 1 1v11a1 1 0 0 1-1 1z"/></symbol><symbol viewBox="0 0 11 11" id="si-maki-square-stroked-11"><path d="M9.19 1H1.81a.81.81 0 0 0-.81.81v7.38c0 .447.363.81.81.81h7.38a.81.81 0 0 0 .81-.81V1.81A.81.81 0 0 0 9.19 1zM2 2h7v7H2V2z"/></symbol><symbol viewBox="0 0 15 15" id="si-maki-square-stroked-15"><path d="M12.7 2.3v10.4H2.3V2.3h10.4M13 1H2a1 1 0 0 0-1 1v11a1 1 0 0 0 1 1h11a1 1 0 0 0 1-1V2a1 1 0 0 0-1-1z"/></symbol><symbol viewBox="0 0 11 11" id="si-maki-stadium-11"><path d="M5 0v3.012c-2.208.097-3.912.806-4 1.67v3.681C1 9.267 3.014 10 5.5 10S10 9.267 10 8.363V4.682c-.088-.864-1.79-1.574-4-1.67v-.44L8.5 1.5 5 0zM1.818 5.752c.319.178.72.332 1.182.453v2.46c-.75-.237-1.179-.568-1.182-.915V5.752zm7.364.004V7.75c-.002.348-.43.68-1.182.916V6.203c.461-.12.862-.271 1.182-.447zM4 6.398a11.066 11.066 0 0 0 3 0v2.493C6.528 8.962 6.017 9 5.5 9S4.472 8.962 4 8.89V6.399z"/></symbol><symbol viewBox="0 0 15 15" id="si-maki-stadium-15"><path d="M7 1v4.01c-2.83.094-4.998.957-5 1.99v4.5c0 1.105 2.462 2 5.5 2s5.5-.895 5.5-2V7c-.002-1.034-2.17-1.896-5-1.99v-.947l3-1.313L7 1zM3 8.146c.515.268 1.201.485 2 .633v2.967c-1.205-.269-2-.726-2-1.246V8.146zm9 .002V10.5c0 .52-.795.977-2 1.246V8.781c.799-.148 1.485-.366 2-.633zm-6 .774a14.68 14.68 0 0 0 3 .002v2.984c-.471.056-.971.092-1.5.092s-1.029-.036-1.5-.092V8.922z"/></symbol><symbol viewBox="0 0 11 11" id="si-maki-star-11"><path d="M5.4 0L4 3.5H0l3 3L1.5 11l3.9-2.6L9.5 11 8 6.5l3-3H7L5.4 0z"/></symbol><symbol viewBox="0 0 15 15" id="si-maki-star-15"><path d="M7.5 0l-2 5h-5l4 3.5-2 6 5-3.5 5 3.5-2-6 4-3.5h-5l-2-5z"/></symbol><symbol viewBox="0 0 11 11" id="si-maki-star-stroked-11"><path d="M5.5 2.69l.59 1.47.25.63h1.81l-1 .9-.5.44.18.63.56 1.69-1.32-.92-.57-.41-.57.4-1.31.92.55-1.68.21-.63-.5-.43-1-.9h1.78l.25-.63.59-1.48M5.5 0L4 3.79H.19l3 2.66L1.71 11 5.5 8.34 9.29 11 7.78 6.45l3-2.66H7L5.5 0z"/></symbol><symbol viewBox="0 0 15 15" id="si-maki-star-stroked-15"><path d="M7.5 3.19l1.07 2.68.25.63h3l-2 1.75-.5.44.23.63 1 3.13-2.48-1.77-.57-.4-.57.4-2.52 1.77 1-3.13.21-.63-.5-.44-2-1.75h3l.25-.63L7.5 3.19M7.5.5l-2 5h-5l4 3.5-2 6 5-3.5 5 3.5-2-6 4-3.5h-5l-2-5z"/></symbol><symbol viewBox="0 0 11 11" id="si-maki-suitcase-11"><path d="M8 3V1.578L7.36 1H3.64L3 1.748V3H1.5l-.5.5v6l.5.5h8l.5-.5v-6L9.5 3H8zM4 2h3v1H4V2z"/></symbol><symbol viewBox="0 0 15 15" id="si-maki-suitcase-15"><path d="M11 4V2c0-1-1-1-1-1H5.05S3.946 1.002 4 2v2H2S1 4 1 5v7c0 1 1 1 1 1h11s1 0 1-1V5c0-1-1-1-1-1h-2zM5.5 2.5h4V4h-4V2.5z"/></symbol><symbol viewBox="0 0 11 11" id="si-maki-sushi-11"><path d="M3.5 2.5c-.3 0-.5.1-.5.4h-.9c-1.1 0-2 .8-2 1.9 0 .5.3 1 .7 1.4-.5.3-.8.7-.8 1.3C0 8.3.7 9 1.6 9h5.8C8.3 9 9 8.3 9 7.5c0-.2 0-.4-.1-.6l1 .5c.4.2.8 0 1-.3.2-.4-.053-.794-.343-.944L9.8 5.8l.5-.1c.4-.1.7-.4.6-.8-.1-.4-.4-.6-.8-.6H10l-1.6.3C8 3.9 7.3 3.1 6 3c0 0 0-.5-.5-.5h-2zm.5 1h1v4.4H4V3.5zm3 2.4c.2 0 .3.1.4.3l.1-.1c.1-.2.3-.2.5-.1s.2.3.1.5l-.3.5c.1.1.2.2.2.4 0 .3-.2.5-.6.5H6v-1h.7v-.6c0-.2.1-.4.3-.4zM1.9 6c.1 0 .3 0 .4.2l.1.2c.1-.1.2-.1.3-.1.2 0 .3.2.3.3v1.3H1.6c-.4 0-.6-.2-.6-.5s.2-.5.6-.5h.3l-.2-.4c-.1-.2 0-.4.1-.5h.1z"/></symbol><symbol viewBox="0 0 15 15" id="si-maki-sushi-15"><path d="M5.5 3a.5.5 0 0 0-.5.5H2.75A2.744 2.744 0 0 0 .943 8.313 1.998 1.998 0 0 0 0 10c0 1.1.9 2 2 2h8c1.1 0 2-.9 2-2 0-.488-.186-.93-.48-1.277l2.177.963a.75.75 0 1 0 .606-1.372l-1.81-.802 1.63-.272a.75.75 0 1 0-.246-1.48l-2.13.355C11.258 4.952 10.038 3.784 8 3.55V3.5a.5.5 0 0 0-.5-.5h-2zM6 4h1v7H6V4zm3.5 4c.259 0 .464.197.49.45l.076-.134a.5.5 0 1 1 .866.5l-.258.448A.986.986 0 0 1 11 10c0 .563-.437 1-1 1H8V9h1v-.5c0-.277.223-.5.5-.5zm-7.06.07a.498.498 0 0 1 .494.246l.2.348A.493.493 0 0 1 3.5 8.5c.277 0 .5.223.5.5h1v2H2c-.563 0-1-.437-1-1s.437-1 1-1h.174l-.106-.184a.497.497 0 0 1 .371-.746z"/></symbol><symbol viewBox="0 0 11 11" id="si-maki-swimming-11"><path d="M8.004.494l-.7.502-2.7 1.602c-.3.099-.4.598-.202.898l.6 1.002-2.5 2 1 1.002 2-1.002L7.504 7.5l1-1.002-3.002-3.502 3.002-1.5V.494h-.5zm1.002 2.502zM2 7.998L0 9v1l2-1 1.5 1 2-1 2 1L9 9l2 1V9L9 7.998 7.5 9l-2-1.002L3.5 9 2 7.998z"/></symbol><symbol viewBox="0 0 15 15" id="si-maki-swimming-15"><path d="M10.111 2c-.112 0-.435.147-.435.147l-3.322 1.68c-.443.175-.618.881-.352 1.234l.97 1.408-3.97 2.029L5 9.998l2.502-1.5 2.5 1.5 1.002-1.002-3-4 2.557-1.53c.528-.266.443-.704.443-.97C11 2.286 10.644 2 10.111 2zm2.141 3a1.75 1.75 0 1 0-.003 3.501A1.75 1.75 0 0 0 12.252 5zM2.5 10L0 11.5V13l2.5-1.5L5 13l2.502-1.5 2.5 1.5L12 11.5l3 1.5v-1.5L12 10l-1.998 1.5-2.5-1.5L5 11.5 2.5 10z"/></symbol><symbol viewBox="0 0 11 11" id="si-maki-telephone-11"><path d="M3.57 5.88a.37.37 0 0 0 0 .52l.43.44-1.76 1.78L2 8.41a1.6 1.6 0 0 1-.52-1v-1a1.6 1.6 0 0 1 .52-1L2.29 5 5 2.31l.26-.26a1.6 1.6 0 0 1 1-.52h1a1.6 1.6 0 0 1 1 .52l.34.21L6.84 4l-.44-.43a.37.37 0 0 0-.52 0L3.57 5.88zm-.09 3L3 9.4a.73.73 0 0 0 1 0l.74-.74a.73.73 0 0 0 0-1l-.52.52-.74.7zm5.31-5.32l-.71.71-.52.53a.73.73 0 0 0 1 0l.71-.71a.73.73 0 0 0 0-1l-.48.47z"/></symbol><symbol viewBox="0 0 15 15" id="si-maki-telephone-15"><path d="M4.51 8.88a.51.51 0 0 0 0 .72l.72.72-2.16 2.18-.37-.37a2.24 2.24 0 0 1-.7-1.44V9.24a2.24 2.24 0 0 1 .7-1.45l.36-.36 4.35-4.35.36-.36A2.24 2.24 0 0 1 9.22 2h1.45a2.24 2.24 0 0 1 1.45.72l.36.36-2.17 2.18-.73-.73a.51.51 0 0 0-.72 0L4.51 8.88zm.34 4l-.72.72a1 1 0 0 0 1.45 0l.72-.72a1 1 0 0 0 0-1.45l-.72.72-.73.73zm8-8l-.75.72-.72.72a1 1 0 0 0 1.45 0l.72-.72a1 1 0 0 0 0-1.45l-.7.73z"/></symbol><symbol viewBox="0 0 11 11" id="si-maki-tennis-11"><path d="M3 3a1 1 0 1 1-2 0 1 1 0 0 1 2 0zm6.87 1.55L8.3 3A1.89 1.89 0 0 0 7.8.7 2.25 2.25 0 0 0 6.26 0a1.26 1.26 0 0 0-.91.35A1.79 1.79 0 0 0 5.7 2.8a2.25 2.25 0 0 0 1.54.7 1.3 1.3 0 0 0 .69-.21l1.6 1.6a.23.23 0 0 0 .2.12.25.25 0 0 0 .27-.26.24.24 0 0 0-.13-.2zM7.8 2.8a.77.77 0 0 1-.56.2 1.76 1.76 0 0 1-1.19-.55A1.33 1.33 0 0 1 5.7.7a.78.78 0 0 1 .56-.2c.453.023.879.22 1.19.55.549.407.7 1.163.35 1.75zM6.5 5h-5a.5.5 0 0 0-.5.5v5a.5.5 0 0 0 1 0V8h1v2.5a.5.5 0 0 0 1 0V6h2.5a.5.5 0 0 0 0-1z"/></symbol><symbol viewBox="0 0 15 15" id="si-maki-tennis-15"><path d="M8 4.5a1.5 1.5 0 1 1-3 0 1.5 1.5 0 0 1 3 0zm6.38.55l-1.57-1.59a1.89 1.89 0 0 0-.5-2.25 2.25 2.25 0 0 0-1.54-.7 1.26 1.26 0 0 0-.91.35 1.79 1.79 0 0 0 .35 2.45 2.25 2.25 0 0 0 1.54.7 1.3 1.3 0 0 0 .69-.21L14 5.39a.23.23 0 0 0 .2.12.25.25 0 0 0 .25-.25.24.24 0 0 0-.07-.21zM12.31 3.3a.77.77 0 0 1-.56.2 1.76 1.76 0 0 1-1.18-.5 1.33 1.33 0 0 1-.35-1.74.78.78 0 0 1 .55-.26c.468.015.91.217 1.23.56a1.33 1.33 0 0 1 .31 1.74zm.54 2.34a.5.5 0 0 0-.707-.003l-.003.003L10.79 7h-4.9a.5.5 0 0 0-.48.38l-.79 3.11-.72 2.87a.5.5 0 0 0 .31.63h.16a.5.5 0 0 0 .47-.34l.8-3.19H7v3a.5.5 0 0 0 1 0v-3L9 8h2.21l1.65-1.65a.5.5 0 0 0-.01-.7v-.01z"/></symbol><symbol viewBox="0 0 11 11" id="si-maki-theatre-11"><path d="M.606.7C.303.7 0 1.001 0 1.304v3.734C0 6.452.578 8 3 8h.5V6.184l-2.29-.008s.304-1.137 1.817-1.137c.303 0 .404 0 .606.102V3.727c0-.606.202-1.008.605-1.31C4.541 2.112 4.79 2 5.394 2H6v-.605c0-.303-.197-.659-.5-.659-.606 0-1.16.569-2.473.569-1.009 0-1.816-.606-2.421-.606zM1.75 2.5a.75.75 0 1 1 0 1.5.75.75 0 0 1 0-1.5zM5.5 3c-.303 0-.555.424-.555.727V7.46c0 1.413.606 3.027 3.028 3.027S11 8.773 11 7.461V3.727c0-.303-.197-.727-.5-.727-.605 0-1.592.5-2.5.5S6.106 3 5.5 3zm1.25 2a.75.75 0 1 1 0 1.5.75.75 0 0 1 0-1.5zm2.5 0a.75.75 0 1 1 0 1.5.75.75 0 0 1 0-1.5zM6.156 8.066h3.735s-.303 1.211-1.817 1.211-1.918-1.21-1.918-1.21z"/></symbol><symbol viewBox="0 0 15 15" id="si-maki-theatre-15"><path d="M2 1S1 1 1 2v5.158C1 8.888 1.354 11 4.5 11H5V8L2.5 9s0-2.5 2.5-2.5V5c0-.708.087-1.32.5-1.775.381-.42 1.005-1.258 2.656-.471L9 3.303V2s0-1-1-1c-.708 0-1.978 1-3 1S2.787 1 2 1zm1 2a1 1 0 1 1 0 2 1 1 0 0 1 0-2zm4 1S6 4 6 5v5c0 2 1 4 4 4s4-2 4-4V5c0-1-1-1-1-1-.708 0-1.978 1-3 1S7.787 4 7 4zm1 2a1 1 0 1 1 0 2 1 1 0 0 1 0-2zm4 0a1 1 0 1 1 0 2 1 1 0 0 1 0-2zm-4.5 4h5s0 2.5-2.5 2.5S7.5 10 7.5 10z"/></symbol><symbol viewBox="0 0 11 11" id="si-maki-toilet-11"><path d="M3.33 2.19a1.1 1.1 0 1 1 1.1-1.1 1.1 1.1 0 0 1-1.1 1.1zm6.94-1.1a1.1 1.1 0 1 0 0 .01v-.01zM6.51 4.93L4.7 3.12A.37.37 0 0 0 4.43 3H2.22a.37.37 0 0 0-.25.1H2L.14 4.93a.38.38 0 1 0 .53.53l1.58-1.58L.77 8h1.46v2.51a.38.38 0 0 0 .75.11H3V8h.69v2.63a.38.38 0 0 0 .75-.11V8h1.44L4.41 3.88 6 5.46a.37.37 0 0 0 .28.12c.21 0 .38-.17.38-.38a.37.37 0 0 0-.15-.27zM8.62 7v3.63a.37.37 0 1 0 .73 0V7H11V3.37a.37.37 0 0 0-.37-.37H7.71a.37.37 0 0 0-.37.37V7h1.28z"/></symbol><symbol viewBox="0 0 15 15" id="si-maki-toilet-15"><path d="M4.5 3a1.5 1.5 0 1 1 0-3 1.5 1.5 0 0 1 0 3zM14 1.5a1.5 1.5 0 1 0-3 0 1.5 1.5 0 0 0 3 0zM8.86 6.64L6.38 4.15A.51.51 0 0 0 6 4H3a.51.51 0 0 0-.35.14L.14 6.63a.52.52 0 1 0 .73.73L3 5.2 1 11h2v3.33a.503.503 0 0 0 0 .15.51.51 0 0 0 1 0V11h1v3.5a.51.51 0 0 0 1 0 .503.503 0 0 0 0-.15V11h2L6 5.2l2.14 2.16a.51.51 0 0 0 .38.17A.52.52 0 0 0 9 7a.51.51 0 0 0-.14-.36zM14.5 4h-4a.5.5 0 0 0-.5.5v5a.5.5 0 0 0 1 0v5a.5.5 0 0 0 1 0v-5h1v5a.5.5 0 0 0 1 0v-5a.5.5 0 0 0 1 0v-5a.5.5 0 0 0-.5-.5z"/></symbol><symbol viewBox="0 0 11 11" id="si-maki-town-hall-11"><path d="M5.5 0L1 2v1h9V2L5.5 0zM2 4v4L1 9v1h9V9L9 8V4H2zm1 1h1v3H3V5zm2 0h1v3H5V5zm2 0h1v3H7V5z"/></symbol><symbol viewBox="0 0 15 15" id="si-maki-town-hall-15"><path d="M7.5 0L1 3.445V4h13v-.555L7.5 0zM2 5v5l-1 1.555V13h13v-1.445L13 10V5H2zm2 1h1v5.5H4V6zm3 0h1v5.5H7V6zm3 0h1v5.5h-1V6z"/></symbol><symbol viewBox="0 0 11 11" id="si-maki-triangle-11"><path d="M5.517 1.232a.556.556 0 0 0-.493.268l-4 6.66c-.223.37.044.84.476.84h8c.432 0 .699-.47.476-.84l-4-6.66a.556.556 0 0 0-.459-.268z"/></symbol><symbol viewBox="0 0 15 15" id="si-maki-triangle-15"><path d="M7.538 2c-.294 0-.488.177-.615.385l-5.846 9.538C1 12 1 12.153 1 12.308c0 .538.385.692.692.692h11.616c.384 0 .692-.154.692-.692 0-.154 0-.231-.077-.385l-5.77-9.538C8.029 2.177 7.789 2 7.539 2z"/></symbol><symbol viewBox="0 0 11 11" id="si-maki-triangle-stroked-11"><path d="M5.517 1.232a.556.556 0 0 0-.493.268l-4 6.66c-.223.37.044.84.476.84h8c.432 0 .699-.47.476-.84l-4-6.66a.556.556 0 0 0-.459-.268zM5.5 2.861l3.02 5.03H2.48l3.02-5.03z"/></symbol><symbol viewBox="0 0 15 15" id="si-maki-triangle-stroked-15"><path d="M7.524 1.5a.77.77 0 0 0-.69.395l-5.5 9.87C1.022 12.307 1.395 13 2 13h11c.605 0 .978-.692.666-1.236l-5.5-9.869a.773.773 0 0 0-.642-.395zM7.5 3.9l4.127 7.47H3.373L7.5 3.9z"/></symbol><symbol viewBox="0 0 11 11" id="si-maki-veterinary-11"><path d="M5.5 4.32a2.2 2.2 0 0 0-2.14 2.46 4.4 4.4 0 0 0-1.21.63 1.42 1.42 0 0 0-.29 2 1.48 1.48 0 0 0 2 .28 2.89 2.89 0 0 1 1.64-.52 2.89 2.89 0 0 1 1.64.49c.6.495 1.49.41 1.985-.191l.015-.019a1.35 1.35 0 0 0-.21-2l-.08-.04a6.4 6.4 0 0 0-1.21-.63A2.2 2.2 0 0 0 5.5 4.32zm-3.87-1.2a1.11 1.11 0 0 0-.55 1.44 1.08 1.08 0 0 0 1.15 1 1.11 1.11 0 0 0 .55-1.44 1.08 1.08 0 0 0-1.15-1zm7.74 0c.541.254.784.89.55 1.44a1.08 1.08 0 0 1-1.15 1 1.11 1.11 0 0 1-.55-1.44 1.08 1.08 0 0 1 1.15-1zM3.77 1a1 1 0 0 0-.55 1.32 1.26 1.26 0 0 0 1.16 1.09 1 1 0 0 0 .558-1.3l-.008-.02A1.26 1.26 0 0 0 3.77 1zm3.46 0a1 1 0 0 1 .558 1.3l-.008.02a1.26 1.26 0 0 1-1.16 1.09 1 1 0 0 1-.559-1.3l.009-.02A1.26 1.26 0 0 1 7.23 1z"/></symbol><symbol viewBox="0 0 15 15" id="si-maki-veterinary-15"><path d="M7.5 6c-2.5 0-3 2.28-3 3.47a6.15 6.15 0 0 0-1.7.89 2 2 0 0 0-.4 2.78 2.06 2.06 0 0 0 2.8.4 4 4 0 0 1 2.3-.69 4 4 0 0 1 2.3.69 2 2 0 0 0 2.8-.3 1.93 1.93 0 0 0-.3-2.78l-.1-.1a8.996 8.996 0 0 0-1.7-.89C10.5 8.29 10 6 7.5 6zM2.08 4.3a1.58 1.58 0 0 0-.76 2 1.52 1.52 0 0 0 1.61 1.4 1.58 1.58 0 0 0 .76-2 1.52 1.52 0 0 0-1.61-1.4zm10.85 0a1.58 1.58 0 0 1 .76 2 1.52 1.52 0 0 1-1.61 1.4 1.58 1.58 0 0 1-.76-2 1.52 1.52 0 0 1 1.61-1.4zm-7.85-3c-.68.09-1 .94-.76 1.87A1.77 1.77 0 0 0 5.93 4.7c.68-.09 1-.94.76-1.87A1.77 1.77 0 0 0 5.08 1.3zm4.85 0c.68.09 1 .94.76 1.87A1.77 1.77 0 0 1 9.07 4.7c-.68-.08-1-.94-.76-1.87A1.77 1.77 0 0 1 9.93 1.3z"/></symbol><symbol viewBox="0 0 11 11" id="si-maki-volcano-11"><path d="M3 1l1.5 3h2L8 3V2L6 3V1h-.5L5 2.5 3.5 1H3zm.522 4L1.023 9.16c-.223.37.044.84.476.84h8c.432 0 .7-.47.477-.84L7.479 5H7v.5a.499.499 0 1 1-1 0 .5.5 0 0 0-1 0v2a.499.499 0 1 1-1 0V5h-.478z"/></symbol><symbol viewBox="0 0 15 15" id="si-maki-volcano-15"><path d="M8.484 1a.502.502 0 0 0-.375.188L6.45 3.262 4.844 1.738c-.436-.4-1.084.155-.754.647l1.666 2.4a.5.5 0 0 0 .803.026c.166-.21.441-.678.941-.678s.793.49.941.678a.5.5 0 0 0 .713.072l1.668-1.4c.441-.375 0-1.074-.527-.838L9 3.227V1.5a.5.5 0 0 0-.516-.5zM5 6l-2.924 5.924C2 12.001 2 12.155 2 12.309c0 .538.384.691.691.691h9.618c.384 0 .691-.153.691-.691 0-.154 0-.231-.076-.385L10 6c-.5 0-1 .5-1 1v.5a.499.499 0 1 1-1 0V7a.5.5 0 1 0-1 0v2a.499.499 0 1 1-1 0V7c0-.5-.5-1-1-1z"/></symbol><symbol viewBox="0 0 11 11" id="si-maki-warehouse-11"><path d="M3 11H0V8h3v3zm4-3H4v3h3V8zm4 0H8v3h3V8zM5 4H2v3h3V4zm4 0H6v3h3V4zm1.44-.76a.5.5 0 0 0-.19-.68L5.75.06a.5.5 0 0 0-.49 0l-4.5 2.5a.5.5 0 0 0 .49.87L5.5 1.07l4.26 2.37a.5.5 0 0 0 .679-.198l.001-.002z"/></symbol><symbol viewBox="0 0 15 15" id="si-maki-warehouse-15"><path d="M13.5 5a.5.5 0 0 1-.22-.05L7.5 2 1.72 4.93A.514.514 0 0 1 1.28 4L7.5.92 13.72 4a.512.512 0 0 1-.22 1zM5 10H2v3h3v-3zm4 0H6v3h3v-3zm4 0h-3v3h3v-3zm-2-4H8v3h3V6zM7 6H4v3h3V6z"/></symbol><symbol viewBox="0 0 11 11" id="si-maki-waste-basket-11"><path d="M9 4l-1.17 7H3.17L2 4h7zm.25-1.75A.25.25 0 0 1 9 2.5H2A.25.25 0 1 1 2 2h2V0h3v2h2a.25.25 0 0 1 .25.25zM6.5 2V.5h-2V2h2z"/></symbol><symbol viewBox="0 0 15 15" id="si-maki-waste-basket-15"><path d="M12.41 5.58l-1.34 8a.5.5 0 0 1-.49.41H4.42a.5.5 0 0 1-.49-.41l-1.34-8A.5.5 0 0 1 3.08 5h8.83a.5.5 0 0 1 .5.58zM13 3.5a.5.5 0 0 1-.5.5h-10a.5.5 0 0 1 0-1H5V1.5a.5.5 0 0 1 .5-.5h4a.5.5 0 0 1 .5.5V3h2.5a.5.5 0 0 1 .5.5zM9 3V2H6v1h3z"/></symbol><symbol viewBox="0 0 11 11" id="si-maki-water-11"><path d="M5.5 11C3.59 11 2 9 2 7s2.61-5.81 3.5-7C6.39 1.19 9 5 9 7s-1.59 4-3.5 4z"/></symbol><symbol viewBox="0 0 15 15" id="si-maki-water-15"><path d="M7.49 15A5.84 5.84 0 0 1 2 9.5C2 6.6 6.25 1.66 7.49 0c1.24 1.66 5 6.59 5 9.49S10.17 15 7.49 15z"/></symbol><symbol viewBox="0 0 11 11" id="si-maki-wetland-11"><path d="M1.11 3.33A1.58 1.58 0 0 1 2.19 3 1.71 1.71 0 0 1 4 4.41l.57 3.39a1.66 1.66 0 0 0-1.44 0l-.57-3.39a1.6 1.6 0 0 0-1.45-1.08zm4.34 4.88a2.47 2.47 0 0 1 .94-.47l.9-5.5a1.6 1.6 0 0 1 1.45-1.08A1.58 1.58 0 0 0 7.65.8a1.71 1.71 0 0 0-1.81 1.44L4.9 7.88c.197.086.382.197.55.33zm3.13-.36c.113-.094.233-.177.36-.25l.5-3.21a1.6 1.6 0 0 1 1.45-1.09 1.58 1.58 0 0 0-1.09-.36A1.71 1.71 0 0 0 8 4.39l-.48 3c.381.069.74.226 1.05.46h.01zm1.56.9a1.29 1.29 0 0 0-.86.3l-.34.3a.54.54 0 0 1-.7 0l-.33-.28a1.38 1.38 0 0 0-1.77 0l-.34.3a.54.54 0 0 1-.69 0l-.34-.32A1.38 1.38 0 0 0 3 9.06c-.11.09-.21.19-.32.28a.67.67 0 0 1-.22.11.61.61 0 0 1-.58-.18 4.465 4.465 0 0 0-.57-.42.89.89 0 0 0-.51-.1.36.36 0 0 0 0 .72.67.67 0 0 1 .46.23l.22.2a1.37 1.37 0 0 0 1.69 0c.14-.1.26-.23.4-.34a.54.54 0 0 1 .71 0l.25.29a1.38 1.38 0 0 0 1.78 0c.11-.08.2-.18.3-.27a.56.56 0 0 1 .79 0l.29.3c.36.311.856.414 1.31.27a1.55 1.55 0 0 0 .69-.43.68.68 0 0 1 .49-.25.366.366 0 1 0-.05-.73l.01.01z"/></symbol><symbol viewBox="0 0 15 15" id="si-maki-wetland-15"><path d="M1.48 4.5A2.18 2.18 0 0 1 3 4a2.36 2.36 0 0 1 2.5 2l.78 4.68a2.3 2.3 0 0 0-2 .05L3.48 6a2.21 2.21 0 0 0-2-1.5zm6 6.74a3.41 3.41 0 0 1 1.3-.65L10 3a2.21 2.21 0 0 1 2-1.5 2.18 2.18 0 0 0-1.5-.5A2.36 2.36 0 0 0 8 3l-1.3 7.79c.279.115.54.267.78.45zm4.32-.5c.157-.128.324-.241.5-.34L13 6a2.21 2.21 0 0 1 2-1.5 2.18 2.18 0 0 0-1.5-.5A2.36 2.36 0 0 0 11 6l-.67 4a3.41 3.41 0 0 1 1.47.74zM14 12a1.78 1.78 0 0 0-1.19.42l-.47.41a.75.75 0 0 1-1 0c-.15-.12-.29-.26-.44-.39a1.9 1.9 0 0 0-2.45 0c-.16.13-.31.28-.47.41a.75.75 0 0 1-1 0c-.16-.13-.31-.28-.47-.41a1.9 1.9 0 0 0-2.44 0c-.15.13-.29.27-.44.39a.92.92 0 0 1-.3.16.84.84 0 0 1-.8-.25 6.167 6.167 0 0 0-.79-.58 1.23 1.23 0 0 0-.68-.16H1a.5.5 0 0 0 0 1 .93.93 0 0 1 .64.31l.36.26a1.9 1.9 0 0 0 2.33.06c.19-.14.36-.32.55-.47a.75.75 0 0 1 1 0l.39.35a1.91 1.91 0 0 0 2.46.07c.15-.11.27-.25.42-.37a.77.77 0 0 1 1.089-.011l.011.011.39.35a1.89 1.89 0 0 0 1.76.37 2.14 2.14 0 0 0 1-.6A1 1 0 0 1 14 13a.5.5 0 0 0 0-1z"/></symbol><symbol viewBox="0 0 11 11" id="si-maki-wheelchair-11"><path d="M9 2a1 1 0 1 1-2 0 1 1 0 0 1 2 0zM2.5 4a.5.5 0 0 0 .18 0l1.79-.83.46.48-.54.85a3.74 3.74 0 0 1 2.07 1.06l.44-.8a.64.64 0 0 0-.2-.89L4.85 2.15A.49.49 0 0 0 4.3 2l-2 1a.51.51 0 0 0 .2 1zm4.09 4.2a2.74 2.74 0 0 1-.51 1.57 2.42 2.42 0 0 1-.71.71 2.74 2.74 0 0 1-1.58.52A2.8 2.8 0 0 1 1 8.2a2.74 2.74 0 0 1 .52-1.58 4.01 4.01 0 0 1 .71-.71 2.74 2.74 0 0 1 1.56-.51 2.8 2.8 0 0 1 2.8 2.8zm-1.4.69a1.54 1.54 0 0 0 .18-.69 1.58 1.58 0 0 0-1.58-1.57 1.54 1.54 0 0 0-.69.18 2.14 2.14 0 0 0-.71.7 1.54 1.54 0 0 0-.18.7 1.58 1.58 0 0 0 1.58 1.57 1.54 1.54 0 0 0 .7-.18 1.9 1.9 0 0 0 .7-.71zM9 6.4a.49.49 0 0 0-.53-.4H6.82c.223.305.398.642.52 1H8l1 2.59a.5.5 0 0 0 .49.4h.1a.5.5 0 0 0 .413-.574L10 9.4l-1-3z"/></symbol><symbol viewBox="0 0 15 15" id="si-maki-wheelchair-15"><path d="M12 1.5a1.5 1.5 0 1 1-3 0 1.5 1.5 0 0 1 3 0zM2.82 4.87l1.74-1.71 1.85 1.29-.74 1.25a5.49 5.49 0 0 1 2.71 1.88l.88-1.5a.86.86 0 0 0-.34-1.17l-.62-.37L4.79 2.1a.5.5 0 0 0-.64.05l-2 2a.5.5 0 0 0 .67.72zm5.31 6.07a4.11 4.11 0 0 1-1.54 3.16 4 4 0 0 1-2.52.9A4.07 4.07 0 0 1 0 10.94a4 4 0 0 1 .91-2.53 4.17 4.17 0 0 1 .63-.63 4 4 0 0 1 2.53-.91 4.07 4.07 0 0 1 4.06 4.07zM6 12.21A2.29 2.29 0 0 0 2.79 9a1.72 1.72 0 0 0-.63.63 2.29 2.29 0 0 0 3.17 3.17 3.14 3.14 0 0 0 .67-.59zm8.2 1l-2.49-5a.75.75 0 0 0-.71-.46H8.51c.33.458.586.964.76 1.5h1.26l2.29 4.58a.754.754 0 1 0 1.35-.67l.03.05z"/></symbol><symbol viewBox="0 0 11 11" id="si-maki-zoo-11"><path d="M8 2c-.9 0-1.5.5-1.8 1.1 0 0-.7.9-1.2.9H3c-.5 0-1 .5-1 .5l-2 2V7h.5l1.2-1.2.2.2S1 7.7 1 9c0 .5.5.5.5.5H2s.2 0 0-.2l-.2-.2c0-.5.8-1.4 1.2-1.9v1.4c0 .3.111.9.411.9h.5s.2 0 0-.2l-.2-.2c-.2-.4.589-1.6.589-1.6h1.8L6.6 9c.2.5.5.5.5.5h1c.2 0 .7-.2.2-.5l-.2-.2V7c1 0 1.1-1.3 1.5-1.7l.7-.1c.2 0 .8-.2.8-.8V4L9.9 3C9.4 2.4 8.7 2 8 2z"/></symbol><symbol viewBox="0 0 15 15" id="si-maki-zoo-15"><path d="M8.388 3.893S7.682 5 7 5H4.5c-.682 0-1.298.409-1.773.864L.5 8c-.269.258-.493.768-.5 1-.016.5 0 1 0 1s1 0 1-1v-.5l1-1h.5l.158.29s-.954 1.824-.954 3.528c0 .682.682.682.682.682h.682s.341 0 0-.34l-.34-.342C2.727 10.636 3.5 9.667 4 9c0 0 .017 1.158 0 2-.008.41.272 1 .682 1h.682s.34 0 0-.34l-.341-.342C4.71 10.75 5.5 8.5 5.5 8.5c1.272 0 1.5.5 3 .5l.364 2.318c.111.71.636.682.636.682H11c.34 0 .961-.311.34-.774L11 11V9c1.214-.172 2-1 2-2h1c.321 0 1 0 1-.5v-1l-1.704-1.682C12.543 3.078 12 2.5 11 2.5c-1.453 0-2.136.569-2.612 1.393z"/></symbol></svg>