<?xml version="1.0" encoding="utf-8"?><svg xmlns="http://www.w3.org/2000/svg" xmlns:xlink="http://www.w3.org/1999/xlink" style="width:0;height:0;position:absolute;overflow:hidden;" version="1.1"><defs><symbol viewBox="0 0 1671.5 2011" aria-labelledby="aasi-mfglabs-anchor-title" id="si-mfglabs-anchor"><title id="aasi-mfglabs-anchor-title">icon anchor</title><path d="M0 1308.5q0-15.5 10-26.5l209-251 45 56 159 197q10 13 8 28t-15 25q-22 17-46 0l-48-39q33 124 129 206.5T684 1617q12 1 21 0t21.5-15 12.5-42V763q0-20-12-32t-24-14l-11-2h-82q-40 0-68.5-28T513 619t28-68 69-28h85q4-1 7.5-2t9-3.5 10-6 8.5-8.5 6.5-12.5T739 474v-20q-63-28-101.5-87T599 236q0-97 69-166.5T835 0t168 69.5 70 166.5q0 72-39.5 131T931 454v21q0 9 2.5 16t7 12 9 8.5 9.5 5.5 9 3.5 7 2.5h88q39 0 67.5 28t28.5 68q0 39-28.5 67.5T1063 715h-84q-5 0-13 1.5T944.5 730 931 762v798q0 28 12.5 42t22 15 21.5 0q137-30 233.5-112.5T1350 1298l-48 39q-13 10-27.5 8t-25.5-13q-17-25 0-48l159-197 44-56 210 251q10 13 8.5 31t-14.5 29q-12 10-28 10t-27-10l-61-52q-34 210-178.5 366.5T1012 1866q-2 2-4 2-29 7-50.5 26t-28.5 44q-8 32-34 52.5t-60 20.5q-33 0-58.5-20.5T743 1938q-7-25-28.5-44t-50.5-26q-3 0-5-2-205-53-349.5-209.5T131 1290l-60 52q-13 11-31 9.5T10 1336q-10-12-10-27.5zM718 236q0 39 21 70v-10q0-40 28-68t68-28 68 27.5 28 68.5v10q23-32 23-70 0-48-35-82t-84-34-83 34-34 82z"/></symbol><symbol viewBox="0 0 1675 1920" aria-labelledby="absi-mfglabs-arrow_down-title" id="si-mfglabs-arrow_down"><title id="absi-mfglabs-arrow_down-title">icon arrow_down</title><path d="M0 1031q0-51 37-88t89-37 88 37l498 497V126q0-53 37-89.5T838 0t88 36.5 36 89.5v1314l499-497q37-37 88.5-37t88.5 37q37 36 37 88t-37 89l-800 800-801-800q-37-39-37-89z"/></symbol><symbol viewBox="0 0 1921 1675" aria-labelledby="acsi-mfglabs-arrow_left-title" id="si-mfglabs-arrow_left"><title id="acsi-mfglabs-arrow_left-title">icon arrow_left</title><path d="M0 838L800 37q39-37 89-37 51 0 88 37t37 88.5-37 89.5L479 712h1315q53 0 90 37t37 89-37 88-90 36H479l498 499q37 37 37 88.5t-37 88.5-88.5 37-88.5-37z"/></symbol><symbol viewBox="0 0 1921 1676" aria-labelledby="adsi-mfglabs-arrow_right-title" id="si-mfglabs-arrow_right"><title id="adsi-mfglabs-arrow_right-title">icon arrow_right</title><path d="M0 838q0-53 36.5-88.5T125 714h1316L944 214q-38-37-38-89t38-87q36-38 86.5-38t90.5 38l800 800-800 800q-41 38-90 38t-87-38-38-89.5 38-87.5l497-497H125q-52 0-88.5-37T0 838z"/></symbol><symbol viewBox="0 0 1674 1920" aria-labelledby="aesi-mfglabs-arrow_up-title" id="si-mfglabs-arrow_up"><title id="aesi-mfglabs-arrow_up-title">icon arrow_up</title><path d="M0 889.5Q0 837 37 800L837 0l801 800q36 37 36 90 0 52-36 88-37 37-89 37t-88-37L962 480v1315q0 52-36 88.5t-89 36.5q-52 0-88.5-36.5T712 1795V480L214 978q-37 37-88.5 37T37 978Q0 942 0 889.5z"/></symbol><symbol viewBox="0 0 1821 1920" aria-labelledby="afsi-mfglabs-at-title" id="si-mfglabs-at"><title id="afsi-mfglabs-at-title">icon at</title><path d="M0 979q0-403 266-683Q546 0 984 0q358 0 590 202 247 214 247 568 0 277-157 478-155 200-357 200-102 0-160-64-56-64-56-133 0-3 1-8.5t1-9.5q0-3 .5-11t.5-12q-45 91-96 140-95 95-230 95-136 0-227-106-92-107-92-298 0-222 140-416 141-195 340-195 117 0 185 71 51 57 67 127l40-154h213l-145 532q-6 25-14.5 57.5t-9.5 38.5q-7 29-7 55 0 37 23 69 23 33 72 33 97 0 196-138 98-140 98-367 0-337-268-485-164-93-376-93-385 0-617 256-210 229-210 554 0 361 247 569 219 186 531 186 216 0 401-87 102-45 211-129l27-20q8-7 20-11.5t27.5-6 31.5 9 26 33.5q12 33 7 58t-17 39l-13 15q-159 135-347 207-189 71-387 71-469 0-727-318Q0 1340 0 979zm696 86q0 89 38 145 37 55 106 55 120 0 199-199 76-200 76-314 0-66-35-110-36-44-97-44-118 0-202 159-85 158-85 308z"/></symbol><symbol viewBox="0 0 1699 1875" aria-labelledby="agsi-mfglabs-attachment-title" id="si-mfglabs-attachment"><title id="agsi-mfglabs-attachment-title">icon attachment</title><path d="M0 1533q0 141 99 242 100 100 240 100t240-100l987-992q133-133 133-326 0-191-133-324T1243.5 0 921 133L170 888l112 115 751-756q88-88 211-88t211 88q87 87 87 210t-87 212l-988 992q-53 53-128 53t-128-53q-52-52-52-128t52-128l822-828q18-18 43.5-18t43.5 18q17 17 17 43 0 25-17 42l-617 622 112 114 616-622q65-65 65-156 0-94-65-157-64-65-154.5-65T922 463L99 1291Q0 1392 0 1533z"/></symbol><symbol viewBox="0 0 1920 1920" aria-labelledby="ahsi-mfglabs-black_question-title" id="si-mfglabs-black_question"><title id="ahsi-mfglabs-black_question-title">icon black_question</title><path d="M0 960q0-195 76-373t204.5-306.5T586.5 76 960 0q195 0 373 76t306.5 204.5T1844 587t76 373-76 373-204.5 306.5T1333 1844t-373 76q-196 0-373.5-76t-306-204.5T76 1333 0 960zm683-360l63 208q94-60 189-60 102 0 102 46 0 9-3.5 16.5t-12.5 15-14.5 11T986 848t-19 10l-82 43q-44 24-56.5 51t-12.5 75v77h239v-32q0-15 .5-21t5-12.5 13.5-10.5q1 0 21.5-10t36-17.5T1169 979t37-27q40-34 61-75t21-114q0-101-85.5-170T986 524q-175 0-303 76zm98 683q0 65 42 100.5t113 35.5q69 0 111-35.5t42-100.5-42-101-111-36q-71 0-113 36t-42 101z"/></symbol><symbol viewBox="0 0 1886 1355" aria-labelledby="aisi-mfglabs-check-title" id="si-mfglabs-check"><title id="aisi-mfglabs-check-title">icon check</title><path d="M0 692.5Q0 764 50 814l503 491q50 50 124 50 72 0 122-50L1834 291q52-50 52-121t-52-120q-52-50-123.5-50T1587 50L677 943 297 571q-52-50-123.5-50T50 571Q0 621 0 692.5z"/></symbol><symbol viewBox="0 0 1920 1920" aria-labelledby="ajsi-mfglabs-check_circle-title" id="si-mfglabs-check_circle"><title id="ajsi-mfglabs-check_circle-title">icon check_circle</title><path d="M0 960q0-195 76-373t204.5-306.5T587 76 960 0t373 76 306.5 204.5T1844 587t76 373-76 373-204.5 306.5T1333 1844t-373 76-373-76-306.5-204.5T76 1333 0 960zm362 64q0 45 31 77l314 313q29 32 77 32 45 0 77-32l645-645q32-32 32-77t-32-76-77-31-77 31l-568 568-237-236q-31-32-76.5-32T393 948q-31 31-31 76z"/></symbol><symbol viewBox="0 0 1675 1014" aria-labelledby="aksi-mfglabs-chevron_down-title" id="si-mfglabs-chevron_down"><title id="aksi-mfglabs-chevron_down-title">icon chevron_down</title><path d="M0 125q0-51 37-88t89-37 88 37l624 622 623-622q37-37 89-37t88 37q37 37 37 88.5t-37 88.5l-800 800L37 214Q0 175 0 125z"/></symbol><symbol viewBox="0 0 1014 1675" aria-labelledby="alsi-mfglabs-chevron_left-title" id="si-mfglabs-chevron_left"><title id="alsi-mfglabs-chevron_left-title">icon chevron_left</title><path d="M0 838L801 37q37-37 88-37 50 0 89 37 36 37 36 89t-36 89L354 838l624 624q36 36 36 88t-36 89q-37 36-89 36t-88-36z"/></symbol><symbol viewBox="0 0 1015 1675" aria-labelledby="amsi-mfglabs-chevron_right-title" id="si-mfglabs-chevron_right"><title id="amsi-mfglabs-chevron_right-title">icon chevron_right</title><path d="M0 1549.5q0-51.5 37-88.5l624-623L37 214Q0 177 0 125.5T37 37t89-37 89 37l800 801-800 800q-39 37-89 37t-89-37q-37-37-37-88.5z"/></symbol><symbol viewBox="0 0 1673 1014" aria-labelledby="ansi-mfglabs-chevron_up-title" id="si-mfglabs-chevron_up"><title id="ansi-mfglabs-chevron_up-title">icon chevron_up</title><path d="M0 888.5Q0 836 37 800L837 0l800 800q36 36 36 88 0 53-36 90-37 36-89 36t-89-36L837 354 214 978q-37 36-89 36t-88-36Q0 941 0 888.5z"/></symbol><symbol viewBox="0 0 2476.166748046875 1500" aria-labelledby="aosi-mfglabs-cloud-title" id="si-mfglabs-cloud"><title id="aosi-mfglabs-cloud-title">icon cloud</title><path d="M3 953q-4.5-92 20-176.5T94 617t117.5-133 158-92q158-60 319-26 75-165 228-265.5T1256.5 0q127 0 242.5 49.5t199 133 133 199 49.5 242.5q0 19-4 55 3 0 7.5-2t6.5-2q165-64 326 7.5t225 236.5q40 114 24 221.5t-88 198-181 132.5q-75 28-148 29h-1473v-1q-175 0-322.5-99.5T41.5 1132Q7.5 1045 3 953z"/></symbol><symbol viewBox="0 0 2487.500244140625 1499" aria-labelledby="apsi-mfglabs-cloud_download-title" id="si-mfglabs-cloud_download"><title id="apsi-mfglabs-cloud_download-title">icon cloud_download</title><path d="M3.667 906q5.5-112 48.5-211t127.5-180 194.5-125q132-56 316-30 81-162 232-261t337-99q169 0 311 84.5t223 226 81 304.5v59h15q165-65 325.5 7.5t229.5 232.5q65 165-7.5 326t-232.5 230l-34 8.5-33 8.5-27.5 6-29.5 4.5-26 1.5h-1484q-173 0-316.5-99.5T45.167 1124q-47-106-41.5-218zm918-212.5q-12.5 19.5 8.5 41.5l269 449q15 16 30 16 7 0 14.5-4t11.5-8l4-4 286-449q12-24-.5-42.5t-45.5-18.5h-105V465h-315v209h-120q-25 0-37.5 19.5z"/></symbol><symbol viewBox="0 0 2476.166748046875 1499" aria-labelledby="aqsi-mfglabs-cloud_upload-title" id="si-mfglabs-cloud_upload"><title id="aqsi-mfglabs-cloud_upload-title">icon cloud_upload</title><path d="M3 952q-4.5-92 19.5-176.5t71-159 118-132.5 158-92q158-60 319-26 75-165 228-265.5T1256.5 0q127 0 242.5 49.5t199 133 133 199 49.5 242.5q0 19-4 55 3 0 7.5-2t6.5-3q164-64 325.5 8.5T2441.5 919q40 114 24 221.5t-88 198-181 132.5q-72 26-148 28h-611v-344h139q38 0 50.5-22t-7.5-53l-350-564q-14-20-33-20-9 0-17.5 5t-12.5 10l-4 5-350 564q-20 31-6.5 53t51.5 22h137v344l-459-1q-175 0-322.5-99.5T41.5 1131Q7.5 1044 3 952z"/></symbol><symbol viewBox="0 0 1920 1920" aria-labelledby="arsi-mfglabs-color_balance-title" id="si-mfglabs-color_balance"><title id="arsi-mfglabs-color_balance-title">icon color_balance</title><path d="M0 960q0-195 76-372.5T281 281 587.5 76 960 0t373 76 306.5 205T1844 587.5t76 372.5-76 372.5-204.5 306.5-306.5 205-373 76-372.5-76T281 1639 76 1332.5 0 960zm813 462q0 95 66.5 161.5T1041 1650q6 0 22 2 167-25 303.5-122t215.5-247 79-323q0-184-89-342t-242.5-253.5T993 260q124 196 124 429 0 166-63 314.5T878 1265q-65 68-65 157z"/></symbol><symbol viewBox="0 0 1619 1920" aria-labelledby="assi-mfglabs-connected_object-title" id="si-mfglabs-connected_object"><title id="assi-mfglabs-connected_object-title">icon connected_object</title><path d="M0 1740V180q0-74 52.5-127T179 0h1261q74 0 126.5 53t52.5 127v1560q0 74-52.5 127t-126.5 53H179q-74 0-126.5-53T0 1740zm367-602q0 121 59 223t161.5 161.5T810 1582q184 0 314.5-130t130.5-314-130.5-314.5T810 693q-90 0-172 35.5t-141.5 95-94.5 142-35 172.5zm120-15q6-129 99.5-219.5T810 813q122 0 213 80.5t108 199.5q0 1-.5 3.5t-.5 4.5q0 43-31 74t-74 31q-44 0-73-29-111-111-266-111-110 0-199 57zm713-792q0 37 26.5 63t63.5 26 63-26 26-63-26-63.5-63-26.5q-38 0-64 26t-26 64z"/></symbol><symbol viewBox="0 0 2219 1200" aria-labelledby="atsi-mfglabs-coverflow-title" id="si-mfglabs-coverflow"><title id="atsi-mfglabs-coverflow-title">icon coverflow</title><path d="M0 921q0 16 17 27.5T59 960t42.5-11.5T119 921V278q0-16-17.5-27T59 240t-42 11-17 27v643zm254 120q0 16 17.5 27.5T314 1080t42.5-11.5T374 1041V158q0-16-17.5-27T314 120t-42.5 11-17.5 27v883zm288 80q0 32 23.5 55.5T621 1200h978q32 0 55-23.5t23-55.5V80q0-34-23-57t-55-23H621q-33 0-56 23.5T542 80v1041zm1303-80V158q0-16 17.5-27t41.5-11q25 0 43 11t18 27v883q0 16-18 27.5t-43 11.5q-24 0-41.5-11.5T1845 1041zm254-120V278q0-16 17.5-27t42.5-11 42.5 11 17.5 27v643q0 16-17.5 27.5T2159 960t-42.5-11.5T2099 921z"/></symbol><symbol viewBox="0 0 2219 1194" aria-labelledby="ausi-mfglabs-coverflow_line-title" id="si-mfglabs-coverflow_line"><title id="ausi-mfglabs-coverflow_line-title">icon coverflow_line</title><path d="M0 916V276q0-16 18-26.5T61 239t42 10.5 17 26.5v640q0 16-17 27.5T61 955t-43-11.5T0 916zm255 120V158q0-16 17.5-27.5T315 119q24 0 42 11.5t18 27.5v878q0 16-18 27t-42 11q-25 0-42.5-11t-17.5-27zm288 79V78q0-32 23-55t55-23h978q32 0 55.5 23t23.5 55v1037q0 32-23.5 55.5T1599 1194H621q-32 0-55-23.5t-23-55.5zm179-100h776V178H722v837zm1124 21V158q0-16 17-27.5t42-11.5 43 11.5 18 27.5v878q0 16-18 27t-43 11-42-11-17-27zm255-120V276q0-16 17-26.5t42-10.5 42 10.5 17 26.5v640q0 16-17 27.5t-42 11.5-42-11.5-17-27.5z"/></symbol><symbol viewBox="0 0 1920 1920" aria-labelledby="avsi-mfglabs-data_science-title" id="si-mfglabs-data_science"><title id="avsi-mfglabs-data_science-title">icon data_science</title><path d="M0 960q0-196 76-373.5t204.5-306T586.5 76 960 0q195 0 373 76t306.5 204.5 204.5 306 76 373.5q0 195-76 373t-204.5 306.5T1333 1844t-373 76q-196 0-373.5-76t-306-204.5T76 1333 0 960zm181 0q0 100 27 203 72-195 211-337-2-4-4-12.5t-2-9.5h-11q-100 0-210 28-11 66-11 128zm41-251q95-18 180-18 4 0 11 .5t11 .5q21-42 60-67t87-25q57 0 104 37 184-94 397-98 10-23 22-38-150-197-385-279-172 59-300.5 187T222 709zm55 624q86 158 234.5 263.5T842 1730q174-101 281-263-40-46-40-106 0-70 52-119-71-130-182-228.5T704 861q-50 68-133 68-39 0-76-20-173 181-218 424zm457-597q1 3 1.5 9t.5 9q162 61 292.5 175.5T1241 1197q24-99 24-191 0-113-38-240h-3q-55 0-97.5-32t-59.5-82q-177 7-333 84zm161-554q171 98 292 260 18-5 37-5 63 0 109.5 43t52.5 105q186 61 331 187-65-257-275.5-425T960 179q-10 0-20.5.5t-24 1.5-20.5 1zm135 1554q99-8 204-47 0-6 2-23.5t2-27.5q0-46-9-114-2-1-7-1-78 119-192 213zm303-1011q44 145 44 281 0 114-28 226 64 49 64 129 0 85-74 137 11 71 11 136 178-103 284.5-282.5T1741 960v-3q-155-188-381-263-14 19-27 31z"/></symbol><symbol viewBox="0 0 1920 1920" aria-labelledby="awsi-mfglabs-data_science_black-title" id="si-mfglabs-data_science_black"><title id="awsi-mfglabs-data_science_black-title">icon data_science_black</title><path d="M0 960q0-196 76-373.5t204.5-306T586.5 76 960 0q173 0 331.5 58.5T1577 225q85 64 146 154 197 258 197 581 0 195-76 373t-204.5 306.5T1333 1844t-373 76q-196 0-373.5-76t-306-204.5T76 1333 0 960zm192-128q104-28 210-28h11q0 1 2 9.5t4 12.5q-142 145-211 336 23 88 69 172 45-244 218-425 35 20 76 20 83 0 133-68 138 54 249 152.5t182 228.5q-52 49-52 119 0 59 40 107-110 163-280 262 59 9 117 9 35 0 71-3 114-95 191-213h3l2 1q10 63 10 114l-3 51q64-24 116-55 0-65-11-136 74-52 74-137 0-80-64-129 28-112 28-226 0-136-44-281 15-13 26-31 227 75 380 261 0-91-22-184-148-127-331-186-6-62-52.5-105T1224 437q-19 0-37 5-122-163-293-260-90 9-183 39 233 84 383 280-12 15-22 38-213 4-397 98-47-37-104-37-48 0-87 25t-60 67q-4 0-11-.5t-11-.5q-85 0-180 18-19 57-30 123zm542-96q163-80 333-84 17 50 59.5 82t97.5 32h3q37 124 37 240 0 98-24 191-80-152-211-266.5T736 754q0-3-.5-9t-1.5-9z"/></symbol><symbol viewBox="0 0 2651 2133.666748046875" aria-labelledby="axsi-mfglabs-discussion-title" id="si-mfglabs-discussion"><title id="axsi-mfglabs-discussion-title">icon discussion</title><path d="M0 814q0-221 140-408.5T520 109 1043 0q213 0 406 64.5T1781 238t221.5 259.5T2085 814q0 133-52.5 257T1884 1295.5t-224 176-287.5 116.5-329.5 41q-212 0-397-61l-238 166q-133 85-187.5 49.5T198 1585l48-248q-117-108-181.5-242.5T0 814zm1331 959q242-48 441-169t324.5-297.5T2250 925q182 73 291.5 210t109.5 301q0 101-45 196t-126 171l35 175q20 114-17.5 139t-131.5-35l-167-118q-130 44-279 44-179 0-334-63t-255-172z"/></symbol><symbol viewBox="0 0 2160 1737" aria-labelledby="aysi-mfglabs-display_screen-title" id="si-mfglabs-display_screen"><title id="aysi-mfglabs-display_screen-title">icon display_screen</title><path d="M0 1256V179q0-74 53.5-126.5T181 0h1800q74 0 126.5 52.5T2160 179v1077q0 74-52.5 127.5T1981 1437h-520q17 161 59 186 29 17 54.5 27.5t36.5 12.5l11 2v72H542v-72q36-3 101-42 43-27 60-186H181q-74 0-127.5-53.5T0 1256z"/></symbol><symbol viewBox="0 0 1920 1920" aria-labelledby="azsi-mfglabs-download-title" id="si-mfglabs-download"><title id="azsi-mfglabs-download-title">icon download</title><path d="M0 1504v-148q0-68 48.5-116t116.5-48 116 48 48 116v148q0 36 25.5 61t60.5 25h1090q35 0 60.5-25t25.5-61v-148q0-68 48-116t116-48 116.5 48 48.5 116v148q0 172-121.5 294T1505 1920H415q-172 0-293.5-122T0 1504zm317-735q0-68 49-116 48-48 116-48t116 48l216 216V164q0-68 48-116T978 0t116.5 48 48.5 116v705l226-226q48-48 116-48t116 48q49 48 49 116.5T1601 876l-506 506q-50 50-117 50-66 0-116-50L366 886q-49-49-49-117z"/></symbol><symbol viewBox="0 0 1920 1920" aria-labelledby="basi-mfglabs-dribbble-title" id="si-mfglabs-dribbble"><title id="basi-mfglabs-dribbble-title">icon dribbble</title><path d="M0 957q0-194 75.5-371T279 280.5 584.5 76 957 0q196 0 374.5 76T1639 280.5 1844 586t76 371q0 196-76 374t-205 307-307.5 205.5T957 1920t-373-76.5T279 1638 75.5 1331 0 957zm160 41q4 141 59.5 270T373 1500q118-180 289.5-311T1040 986q-23-45-48-112-368 130-720 130-17 0-54-3t-58-3zm6-160h106q339 0 649-112-124-234-330-478-169 90-281.5 245.5T166 838zm324 774q223 149 467 149 135 0 254-43-26-294-118-578-185 61-338.5 182T490 1612zM751 189q186 231 319 478 242-108 442-283-111-108-253.5-166T957 160q-92 0-206 29zm390 627q8 21 25.5 65t26.5 64q157-30 261-30 120 0 306 42 0-232-142-449-227 190-477 308zm106 283q79 241 118 549 145-84 244-223t134-309q-147-35-289-35-109 0-207 18z"/></symbol><symbol viewBox="0 0 1920 1920" aria-labelledby="bbsi-mfglabs-dribbble_circle-title" id="si-mfglabs-dribbble_circle"><title id="bbsi-mfglabs-dribbble_circle-title">icon dribbble_circle</title><path d="M0 960q0-195 76-373t204.5-306.5T587 76 960 0t373 76 306.5 204.5T1844 587t76 373-76 373-204.5 306.5T1333 1844t-373 76-373-76-306.5-204.5T76 1333 0 960zm374-2q0 120 46 228.5T544 1374t186 125.5 228 46.5q160 0 295.5-78.5t214-214T1546 958q0-159-78.5-293.5t-214-213T958 373q-120 0-228 46.5t-186 125T420 731t-46 227zm97 26q13 0 35 1.5t33 1.5q214 0 440-80 12 33 30 69-126 44-231 124t-177 190q-125-129-130-306zm3-99q19-115 88.5-210.5T735 525q123 147 201 292-187 68-397 68h-65zm199 473q140-213 368-288 57 171 72 354-69 25-155 25-148 0-285-91zm159-869q74-19 126-19 196 0 339 138-123 108-271 173-77-145-194-292zm238 383q149-68 292-188 87 130 87 274-113-26-187-26-62 0-159 18-5-12-16-39t-17-39zm65 172q61-10 127-10 86 0 177 22-23 104-83 188.5T1207 1380q-24-193-72-336z"/></symbol><symbol viewBox="0 0 1920 1462" aria-labelledby="bcsi-mfglabs-eye-title" id="si-mfglabs-eye"><title id="bcsi-mfglabs-eye-title">icon eye</title><path d="M0 732q0-61 31.5-138T120 435.5 264 276t189.5-139.5 235-99T960 0t271.5 37.5 235 99T1656 276t144 159.5 88.5 158.5 31.5 138q0 60-31.5 137t-88.5 158.5-144 159-189.5 139-235 99T960 1462t-271.5-37.5-235-99-189.5-139-144-159T31.5 869 0 732zm480 0q0 130 64.5 240t175 174 240.5 64 240.5-64 175-174 64.5-240-64.5-240.5-175-175T960 252t-240.5 64.5-175 175T480 732zm279 0q0 83 59 142t142 59 142-59 59-142q0-84-59-143.5T960 529t-142 59.5T759 732z"/></symbol><symbol viewBox="0 0 896 1920" aria-labelledby="bdsi-mfglabs-facebook-title" id="si-mfglabs-facebook"><title id="bdsi-mfglabs-facebook-title">icon facebook</title><path d="M0 960h199v960h396V960h266l35-331H597V464q0-38 3.5-58.5t16-40 39.5-27 72-7.5h166V0H629Q399 0 299 109T199 430v199H0v331z"/></symbol><symbol viewBox="0 0 1920 1920" aria-labelledby="besi-mfglabs-facebook_circle-title" id="si-mfglabs-facebook_circle"><title id="besi-mfglabs-facebook_circle-title">icon facebook_circle</title><path d="M0 960q0-195 76-373t205-306.5T587.5 76 960 0t373 76 306.5 204.5T1844 587t76 373-76 373-204.5 306.5T1333 1844t-373 76-372.5-76T281 1639.5 76 1333 0 960zm719 0h107v518h214V960h144l18-179h-161v-90q0-40 12-55.5t59-15.5h89V441h-143q-125 0-178.5 59T826 674v107H719v179z"/></symbol><symbol viewBox="0 0 3015 1637.33349609375" aria-labelledby="bfsi-mfglabs-fast_backward-title" id="si-mfglabs-fast_backward"><title id="bfsi-mfglabs-fast_backward-title">icon fast_backward</title><path d="M0 1502V136q0-53 37-90.5T127 8h251q53 0 90 37.5t37 90.5v585L1616 33q62-42 107.5-15t45.5 106v586L2862 33q62-42 107.5-15t45.5 106v1391q0 79-45.5 105t-107.5-15L1769 928v587q0 79-45.5 105t-107.5-15L505 917v585q0 53-37 90.5t-90 37.5H127q-53 0-90-37.5T0 1502z"/></symbol><symbol viewBox="0 0 3015 1637.33349609375" aria-labelledby="bgsi-mfglabs-fast_forward-title" id="si-mfglabs-fast_forward"><title id="bgsi-mfglabs-fast_forward-title">icon fast_forward</title><path d="M0 1515V124Q0 45 45 18t109 15l1092 677V124q0-79 45-106t109 15l1110 688V136q0-53 37-90.5T2637 8h251q53 0 90 37.5t37 90.5v1366q0 53-37 90t-90 37h-251q-53 0-90-37t-37-90V917l-1110 688q-64 41-109 15t-45-105V928L154 1605q-64 41-109 15T0 1515z"/></symbol><symbol viewBox="0 0 1166 1920" aria-labelledby="bhsi-mfglabs-female_sign-title" id="si-mfglabs-female_sign"><title id="bhsi-mfglabs-female_sign-title">icon female_sign</title><path d="M0 582q0-118 46.5-226T171 170 357 46 583 0q157 0 291.5 78t213 212 78.5 292q0 203-126 360.5T721 1147v161h196q58 0 98.5 40t40.5 98-40.5 99-98.5 41H721v195q0 58-40 98.5t-98 40.5-99-40.5-41-98.5v-195H248q-58 0-98-41t-40-99 40-98 98-40h195v-161q-193-47-318-204.5T0 582zm279 0q0 126 89 215t215 89 215-89 89-215-89-215-215-89-215 89-89 215z"/></symbol><symbol viewBox="0 0 2150.666748046875 1549" aria-labelledby="bisi-mfglabs-file_alt-title" id="si-mfglabs-file_alt"><title id="bisi-mfglabs-file_alt-title">icon file_alt</title><path d="M0 1375V333q0-72 51.5-122.5T175 160h59q5-67 55-113.5T408 0h390q68 0 118 46.5T971 160h719q72 0 123.5 50.5T1865 333v174h135q72 0 113.5 51t28.5 123l-203 694q-13 72-74.5 123t-134.5 51H175q-72 0-123.5-51T0 1375zm175-348l100-346q14-72 75.5-123T485 507h1205V333H175v694zm81 348h1474q10 0 23-10.5t15-21.5l1-8 2-8 188-646H485q-9 0-22.5 10.5T448 713l-1 8-2 8z"/></symbol><symbol viewBox="0 0 1920 1561" aria-labelledby="bjsi-mfglabs-file_close-title" id="si-mfglabs-file_close"><title id="bjsi-mfglabs-file_close-title">icon file_close</title><path d="M0 1385V336q0-72 53.5-123.5T181 161h60q6-68 57.5-114.5T421 0h400q71 0 122.5 46.5T1000 161h739q75 0 128 51.5t53 123.5v1049q0 72-53 124t-128 52H181q-74 0-127.5-52T0 1385z"/></symbol><symbol viewBox="0 0 1920 1561" aria-labelledby="bksi-mfglabs-file_close_alt-title" id="si-mfglabs-file_close_alt"><title id="bksi-mfglabs-file_close_alt-title">icon file_close_alt</title><path d="M0 1385V336q0-72 53.5-123.5T181 161h61q5-68 56.5-114.5T421 0h401q71 0 122 46.5t56 114.5h741q74 0 126.5 51.5T1920 336v1049q0 72-52.5 124t-126.5 52H181q-74 0-127.5-52T0 1385zm181 0h1560V336H181v1049z"/></symbol><symbol viewBox="0 0 1920 1625" aria-labelledby="blsi-mfglabs-git-title" id="si-mfglabs-git"><title id="blsi-mfglabs-git-title">icon git</title><path d="M0 904q0 240 72 383 77 152 239 225 164 77 335 95 154 18 332 18 77 0 193-6 97-6 206.5-26.5T1566 1539q90-38 166-102.5t118-149.5q70-143 70-383 0-274-157-458 31-93 31-195 0-135-58-251-119 0-212.5 42T1302 184q-157-37-324-37-182 0-356 40Q491 84 397.5 42T185 0q-59 115-59 251 0 103 31 197Q0 632 0 904zm258 203q0-142 81.5-237T554 775q53 0 225 25 88 13 181 13t182-13q175-25 225-25 133 0 214 95t81 237q0 101-37 178-37 74-92.5 117.5T1391 1472q-142 43-334 43H863q-95 0-172-9-82-8-165-35t-137-68q-59-46-95-122.5T258 1107zm185 0q0 47 15 95 15 52 51.5 89.5T591 1329q48 0 84-39 63-73 63-183 0-46-13-94-15-52-51.5-89.5T591 886q-48 0-84 40-64 69-64 181zm739 0q0 47 15 95 15 52 51 89.5t81 37.5q49 0 85-39 63-73 63-183 0-43-14-94-15-52-51.5-89.5T1329 886q-48 0-82 40-65 69-65 181z"/></symbol><symbol viewBox="0 0 1920 1920" aria-labelledby="bmsi-mfglabs-git_circle-title" id="si-mfglabs-git_circle"><title id="bmsi-mfglabs-git_circle-title">icon git_circle</title><path d="M0 960q0-195 76-373t204.5-306.5T587 76 960 0t373 76 306.5 204.5T1844 587t76 373-76 373-204.5 306.5T1333 1844t-373 76-373-76-306.5-204.5T76 1333 0 960zm405 64q0 135 40 218 48 91 137 129 95 44 191 54 81 10 190 10 61 0 110-3 128-6 226-45 116-49 163-145 40-85 40-218 0-157-91-263 19-51 19-111 0-75-33-143-68 0-122 24t-126 81q-91-22-186-22-107 0-203 24-76-59-129-83t-121-24q-35 68-35 143 0 52 19 112-89 104-89 262zm147 116q0-82 46.5-136.5T721 949q29 0 128 15 43 7 104 7 60 0 103-7 103-15 129-15 76 0 122.5 54.5T1354 1140q0 57-21 101-39 79-134 107-81 24-191 24H897q-58 0-98-4-111-12-173-60-74-55-74-168zm105 0q0 31 9 54 8 30 29 51t47 21q27 0 48-22 36-42 36-104 0-30-8-55-9-30-29.5-51t-46.5-21q-27 0-48 22-37 43-37 105zm423 0q0 30 8 54 8 30 28.5 51t46.5 21q28 0 50-22 35-40 35-104 0-30-8-55-8-30-29-51t-48-21-46 22q-37 41-37 105z"/></symbol><symbol viewBox="0 0 1920 1920" aria-labelledby="bnsi-mfglabs-git_circle_alt-title" id="si-mfglabs-git_circle_alt"><title id="bnsi-mfglabs-git_circle_alt-title">icon git_circle_alt</title><path d="M0 960q0-195 76-373t204.5-306.5T587 76 960 0t372.5 76T1639 280.5 1844 587t76 373-76 373-205 306.5-306.5 204.5-372.5 76-373-76-306.5-204.5T76 1333 0 960zm376 404q0 64 38.5 108.5T511 1531q53 15 120 15 251 0 251-210 0-51-27-86t-71-50q-3-1-34.5-10t-48.5-13q-99-25-99-71 0-49 55-58 86-17 137-79.5T845 818q0-25-12-58 48-13 55-15V604q-87 33-151 33-57-33-124-33-97 0-163 64.5T384 829q0 58 33.5 115.5T499 1019v3q-42 20-42 96 0 58 46 86v4q-127 43-127 156zm142-8q0-72 109-72 116 0 116 69 0 74-105 74-120 0-120-71zm15-526q0-101 85-101 40 0 62 28.5t22 71.5q0 95-84 95-85 0-85-94zm404-426q0 41 28 71t67 30 67-30.5 28-70.5q0-41-27.5-71.5T1032 302t-67.5 30-27.5 72zm17 812h155q-3-45-3-101V697q0-47 3-86H954q4 38 4 89v423q0 51-4 93zm220-474l41-3h14q6 1 12 1v2h-2v245q0 84 16 135 21 67 76 89 33 14 75 14 70 0 121-28v-136q-35 24-77 24-59 0-59-92V740h58q17 0 30 1t30 1V611h-118q0-92 3-114h-157q4 24 4 61v53h-67v131z"/></symbol><symbol viewBox="0 0 1920 1920" aria-labelledby="bosi-mfglabs-globe-title" id="si-mfglabs-globe"><title id="bosi-mfglabs-globe-title">icon globe</title><path d="M0 960q0-196 76-373.5t204.5-306T587 76 960 0t373 76 306.5 204.5 204.5 306 76 373.5q0 195-76 373t-204.5 306.5T1333 1844t-373 76-373-76-306.5-204.5T76 1333 0 960zm181 0q0 156 59.5 298t161 245.5 241 167T937 1739q-15-17-23-69-2-13-5-50.5t-7-56.5q-2-13-36-111-10-31-22-39.5t-46-10.5q-18-1-51-1.5t-56-2-53-4.5-51-11.5-42-22-34-36.5-18-54q-22-127 78-211 51-42 107-56.5T809 990q50 1 86 28 45 37 91 39 10 1 45 4t57.5 4.5 52-2.5 48.5-14v-13q0-4 2-15.5t2.5-19-2-15.5-10.5-12q-9-4-42-1.5t-40-8.5q-18-17 4.5-34t61.5-32 44-20q29-30-12-38-40-8-79 9-8 4-13 8-18 17-36 59-5 13-18.5 33.5T1032 980q-3-5-11-12.5t-11-11.5q-6-7-23-41-2-4-5-12.5t-5-13.5-6-12.5-8-10-11-5.5-14 1q-2 21 14 47t16 40q1 27-12 24.5T927 947q-4-6-11-18.5t-11-18-12-12.5-18.5-8.5-24.5.5q-26 4-41 15-4 3-15 16t-20 16q-6 35-54 33-2 0-12.5-.5t-17-1-15.5-2-15-4.5-9-8q-5-10 4.5-43.5T673 867t21.5-13.5 39-2.5 27.5 1q4-18-10-33.5T735 798q-2-11-2-16.5t7-8 13-2.5h15l13-1q37-7 61-31 1-1 7.5-6.5t9.5-7.5l10.5-7 11-5 11.5-2.5 12 1.5q4 1 12 9.5t13 9.5q7 2 32-7 26-9 39-21t27-36q26-42 8-71-12-17-31-12t-29 25q-3 7-6 22t-7.5 25.5T949 673q-10 7-32 8.5t-34-4.5q-9-4-13-12.5t-4-15 1.5-20.5 1.5-18q0-8 2-15t4.5-12 7.5-11 8.5-9.5 10-9.5 10.5-10q16-16 33.5-24.5T985 511t35 1 41.5 8 37.5 9q35 7 74-36 6-8 17.5-17.5t16-17.5 4.5-23q0-14-2.5-48.5t-3.5-58 3.5-53T1224 227q-128-47-264-47-96 0-193 25l-1 5q0 38 4 43 9 11 33 15t46 5 37 13.5 9 37.5q-7 28-39.5 62.5T790 445q-41 30-100 38-1 0-11.5 1.5t-15 1.5-16 1-18 0-16.5-2-15.5-3.5-11-6.5-8-10.5T576 450q1-18 17.5-32.5t34.5-21 44-14.5 34-11q2-25-7-33.5t-24.5-4-34 11.5-35.5 12-30-2q-5-16 11.5-27t18.5-15q9-21-18-38-59 32-107 72 21 3 35 13t13 29q0 10-4.5 18t-8.5 12-12.5 11.5T490 441q-30 28-44 51-6 9-14 43.5T409 579q-23 13-31.5 1T367 542v-17l-2.5-5.5-7.5-5.5q-13-4-37 2-139 199-139 444zm1010 148q-3 62 41 109 55 57 107 66 21 4 58.5-3t50.5-7q1 34-39 108-44 76-67 100-5 5-14.5 13.5t-14 13-11 12.5-8 14-1.5 15 4 19q2 5 8.5 18t6.5 16-2 19q-3 8-8 12.5t-14 8.5-13 7q-9 6-23.5 17t-26 19.5-24.5 15.5q238-78 389-281.5T1741 960q0-26-4-74-8 11-9 24-5 35-5 43 0 7 1.5 28.5t.5 37.5-8 24q-6 7-13 8t-15-4-14.5-11-15-14-13.5-11q-18-12-29-18.5t-26.5-12-30.5-4.5-32 9q-36 18-80 18-7 0-22.5-1t-25.5-1-22.5 2.5-20.5 7.5q2 22 15.5 41t34.5 20q10 0 15-3.5t9.5-9.5 10.5-9q15-10 47-8 3 52 0 63t-13 25.5-12 25.5q-1 5-3.5 19.5t-4.5 21-7.5 16-13.5 16.5q-16 13-35 18.5t-35-4.5q-6-5-16.5-19.5T1330 1202q-6-5-11-9t-10-10-7.5-9.5-8-12-8.5-12.5q-12-17-42.5-37t-39.5-30q-8 5-9.5 8.5t-2.5 17.5z"/></symbol><symbol viewBox="0 0 1920 1920" aria-labelledby="bpsi-mfglabs-globe_black-title" id="si-mfglabs-globe_black"><title id="bpsi-mfglabs-globe_black-title">icon globe_black</title><path d="M0 960q0-196 76-373.5t204.5-306T587 76 960 0t373 76 306.5 204.5 204.5 306 76 373.5q0 195-76 373t-204.5 306.5T1333 1844t-373 76-373-76-306.5-204.5T76 1333 0 960zm320-444q28-5 36-1 5 3 7.5 5t3 5 .5 7v10q2 59 42 37 15-9 22.5-44t12.5-43q11-18 46-51 4-3 12.5-10.5T515 419t8.5-12 4.5-18q1-19-13.5-29T479 347q-90 71-159 169zm171 756q6 36 24.5 61t40 38 56.5 20 60 8 66 2 60 2q34 2 46 10.5t22 39.5q4 11 13 34.5t14.5 41 8.5 34.5q4 20 7 58t5 51q8 50 23 67 4 0 11.5.5t11.5.5q121 0 246-40 15-9 39-28t30-23q4-2 13-6t14-8.5 8-13.5q4-6 2.5-14t-2.5-12-5.5-12-6.5-14q-4-10-4.5-19t1.5-15.5 8-14 11-12 14-13 14-13.5q27-27 67-100 41-74 40-108-14-1-51.5 6.5t-58.5 3.5q-51-9-106-66-45-47-42-110 1-13 2.5-17t9.5-9q10 11 41 31.5t42 36.5q4 5 10.5 14.5t9.5 14 9.5 11.5 14.5 13 18.5 21 17.5 20q16 10 35.5 4.5t35.5-18.5q8-7 13.5-17t7-17 4-20.5 3.5-18.5q3-11 12.5-26t12.5-25 0-64q-33 0-48 8-4 2-13 13t-21 10q-22-1-35-20t-15-41q8-6 20.5-8t21-2 26 1 22.5 1q37 0 80-18 17-8 32-9.5t30.5 4.5 26.5 12 29 19q5 4 13.5 11.5t15 13.5 14.5 11 15 4 13-8q7-8 8-24.5t-.5-38-1.5-27.5l5-42q1-6 9-24-22-227-162-406t-350-255q-15 24-18.5 59t.5 86.5 4 62.5q0 15-4.5 23.5t-16 17.5-17.5 17q-38 43-74 36-10-2-38-9t-41-8-35-1-39 8.5-34 24.5q-3 3-12 11.5T887.5 568t-9 11.5-8 15T868 611q0 3-1.5 18t-1 20.5T870 664t13 14q12 6 33 4.5t32-8.5q8-6 12.5-17t8-26 6.5-22q10-20 29-25t31 12q18 28-8 72-15 24-28 36t-38 20q-2 1-8.5 4t-12 4-11.5 0q-5-2-13-10.5t-12-9.5q-24-7-62 28-28 26-61 30-4 1-13 1h-15l-13 2.5-7 8 2 16.5q2 6 15.5 21t10.5 33q-6 0-22-.5t-26 0-22 4-18 11.5q-8 12-17.5 45t-4.5 42q9 16 69 16 48 4 54-32 9-4 19.5-16t15.5-16q15-12 41-15 14-2 24.5-.5T893 899t12 12 11 17.5 11 18.5q20 31 34 27 8-3 7-25 0-14-16-39.5T938 864q11 0 16.5-1t12 8 9 13.5 7 15.5 6.5 15q11 29 21 42 1 1 10 9.5t12 14.5q3-4 17-27t20-37q17-41 37-59 21-19 72-19 44 0 43 20-1 8-12 19-6 6-44 21t-61 32-5 34q11 10 40.5 8t41.5 3q8 4 11 11.5t2.5 14-3 19-2.5 16.5v12q-24 14-57.5 16.5t-88.5-2.5-57-5q-43-2-91-39-22-17-39-22t-48-7q-146-5-237 70-102 85-80 212zm83-917q13 7 30.5 2t36-12 34-11.5 24.5 4 7 33.5q-8 3-34 11t-44 15-34.5 21.5T576 451q0 8 2.5 14t8 10 11.5 7 15.5 3.5 16 1.5 18 0 16-1 15-1.5T690 483q59-8 100-37 92-69 105-122 6-25-9-37.5T849 273t-46-5-33-15q-4-5-4-43 0-4 1-5-133 44-180 70 26 19 18 38-2 4-19 15t-12 27z"/></symbol><symbol viewBox="0 0 1920 1920" aria-labelledby="bqsi-mfglabs-google_plus-title" id="si-mfglabs-google_plus"><title id="bqsi-mfglabs-google_plus-title">icon google_plus</title><path d="M0 1560q0 79 35 139 61 112 214 169 130 52 279 52t273.5-40 204.5-106.5 124-152 44-178.5q0-129-69-222-53-72-142-139-30-23-66-56-70-58-70-114 0-66 92-149 31-27 76-74 40-44 65.5-111t25.5-148q0-104-45.5-196.5T914 90h156l155-90H721Q612 0 505 22 344 58 235 186T126 475q0 169 122 283t296 114q18 0 80-6-3 12-17 49-8 21-8 50 0 79 74 172-76 1-174 15-225 36-346 123-70 52-111.5 132T0 1560zm214-54q0-69 31-124 56-97 193-139 119-37 247-37 18 0 57 3 1 0 33.5 22.5T816 1259q28 19 73 56 3 3 18 17t26.5 26 17.5 20q3 4 6.5 9.5t8.5 13.5 9 13q12 19 20 39 16 50 16 89 0 71-31 125.5t-86 85.5q-104 60-246 60-156 0-286-71-68-35-108-97t-40-139zM339 353q0-116 61-193.5T565 82q74 0 136 46t99 122q72 152 72 297 0 121-51.5 188T661 802q-57 0-112-30-92-52-156-185-54-117-54-234zm843 89h296v296h147V442h295V294h-295V0h-147v294h-296v148z"/></symbol><symbol viewBox="0 0 1920 1920" aria-labelledby="brsi-mfglabs-google_plus_circle-title" id="si-mfglabs-google_plus_circle"><title id="brsi-mfglabs-google_plus_circle-title">icon google_plus_circle</title><path d="M0 960q0-195 76-373t204.5-306.5T587 76 960 0t373 76 306.5 204.5T1844 587t76 373-76 373-204.5 306.5T1333 1844t-373 76q-196 0-377-77h2q218 0 348-104t130-248q0-95-50-163-41-53-106-104-36-28-49-40-51-43-51-85 0-52 67-110 18-17 56-55 68-72 68-190 0-77-33.5-146.5T871 491h114l116-66H728q-76 0-159 17-120 26-200.5 120.5T288 776q0 125 90.5 209t218.5 84q13 0 59-4-1 5-6.5 19.5T643 1101q-5 15-5 37 0 57 55 127-63 1-128 11-169 28-256 92-45 33-74 80.5t-37 96.5Q0 1288 0 960zm353 578q0-55 23-92 39-68 143-102 84-28 182-28 23 0 43 2 4 2 54 37 2 2 14.5 11t23.5 17.5 15 12.5q3 3 13.5 13t20 19 13.5 15q1 4 17 26 12 17 15 30 12 36 12 65 0 109-87 157-77 44-182 44-113 0-210-52-50-26-80-72t-30-103zm93-853q0-86 45-143t122-57q54 0 100 34.5t73 89.5q54 114 54 220 0 88-38.5 138.5T683 1018q-42 0-83-22-70-43-114-138-40-86-40-173zm623 67h218v218h108V752h219V643h-219V425h-108v218h-218v109z"/></symbol><symbol viewBox="0 0 2057 1019" aria-labelledby="bssi-mfglabs-hard_drive-title" id="si-mfglabs-hard_drive"><title id="bssi-mfglabs-hard_drive-title">icon hard_drive</title><path d="M0 876V467q0-53 35-93h-1l191-251q43-61 118-61h135Q707 0 1029 0q321 0 550 62h135q75 0 118 61l191 251h-1q35 40 35 93v409q0 59-42 101t-101 42H144q-60 0-102-42T0 876zm203-123q0 32 22.5 54.5T280 830h181q31 0 53.5-22.5T537 753t-22.5-54.5T461 676H280q-32 0-54.5 22.5T203 753zm149-483q0 46 90.5 84.5t246.5 61 340 22.5 339.5-22.5 246-61T1705 270t-90.5-84.5-246-61T1029 102t-340 22.5-246.5 61T352 270zm299 483q0 32 22.5 54.5T728 830h22q31 0 53.5-22.5T826 753t-22.5-54.5T750 676h-22q-32 0-54.5 22.5T651 753zm175-483q0-20 60-35.5t143-15.5q82 0 141.5 15.5T1230 270t-59 35-142 15q-84 0-143.5-15T826 270z"/></symbol><symbol viewBox="0 0 1878.6666259765625 1739" aria-labelledby="btsi-mfglabs-hashtag-title" id="si-mfglabs-hashtag"><title id="btsi-mfglabs-hashtag-title">icon hashtag</title><path d="M8.667 1163q10-51 52.5-85.5t94.5-34.5h305l74-347h-278q-57 0-94-44-35-45-23-104 10-52 52-86t94-34h305l65-307q11-52 53.5-86.5t94.5-34.5q60 0 95 44t22 104l-59 280h343l65-307q11-52 53-86.5t94-34.5q60 0 95 44 36 42 23 104l-59 280h277q58 0 95 44 35 45 23 104-10 52-52 86t-94 34h-305l-75 347h278q58 0 95 44 35 45 23 105-11 52-52.5 86t-93.5 34h-307l-64 307q-11 52-53 86t-94 34q-58 0-95-43-35-45-23-104l60-280h-344l-66 307q-11 52-52.5 86t-93.5 34q-58 0-95-43-35-45-23-104l60-280h-278q-59 0-95-45-36-42-23-104zm723-120h343l74-347h-344z"/></symbol><symbol viewBox="0 0 1920 1739" aria-labelledby="busi-mfglabs-heart-title" id="si-mfglabs-heart"><title id="busi-mfglabs-heart-title">icon heart</title><path d="M0 510q0-211 150.5-360.5T513 0q142 0 261 71t186 189q67-118 186-189t261-71q212 0 362.5 149.5T1920 510q0 196-130 340l-702 827q-52 62-128 62t-128-62L130 850Q0 706 0 510z"/></symbol><symbol viewBox="0 0 1920 1739" aria-labelledby="bvsi-mfglabs-heart_broken-title" id="si-mfglabs-heart_broken"><title id="bvsi-mfglabs-heart_broken-title">icon heart_broken</title><path d="M0 510q0-211 150.5-360.5T513 0q165 0 300 97l-29 511q1 25 19 42.5t43 17.5h21q25 0 37 16.5t5 40.5l-117 353q-7 24-2.5 27t18.5-17l397-546q14-19 7.5-33.5T1181 494h-158q-25 0-36-16t-1-38l167-373q118-67 254-67 212 0 362.5 149.5T1920 510q0 194-130 340l-702 827q-52 62-127.5 62T832 1677L131 850Q0 704 0 510z"/></symbol><symbol viewBox="0 0 1884.3333740234375 1655" aria-labelledby="bwsi-mfglabs-home-title" id="si-mfglabs-home"><title id="bwsi-mfglabs-home-title">icon home</title><path d="M3.667 839.5q-5.5-31.5 42.5-75.5l780-720q48-44 116.5-44t116.5 44l779 720q48 44 42.5 75.5t-61.5 31.5h-187v625q0 65-47 112t-112 47h-1061q-65 0-112-47t-47-112V871h-188q-56 0-61.5-31.5z"/></symbol><symbol viewBox="0 0 2281 1001" aria-labelledby="bxsi-mfglabs-inbox-title" id="si-mfglabs-inbox"><title id="bxsi-mfglabs-inbox-title">icon inbox</title><path d="M0 841V449q0-55 39-104L250 69Q299 0 381 0h1520q81 0 130 69l211 276q39 49 39 104v392q0 66-47 113t-113 47H160q-66 0-113-47T0 841zm258.5-403.5Q273 463 315 463h432q0 66 46.5 113T906 623h469q66 0 112.5-47t46.5-113h432q42 0 56-25.5t-8-60.5l-113-184q-23-36-68.5-61.5T1745 106H536q-42 0-87 25.5T381 193L266 377q-22 35-7.5 60.5z"/></symbol><symbol viewBox="0 0 1920 1920" aria-labelledby="bysi-mfglabs-information_black-title" id="si-mfglabs-information_black"><title id="bysi-mfglabs-information_black-title">icon information_black</title><path d="M0 960q0-196 76-373.5t204.5-306T586.5 76 960 0q195 0 373 76t306.5 204.5 204.5 306 76 373.5q0 195-76 373t-204.5 306.5T1333 1844t-373 76q-196 0-373.5-76t-306-204.5T76 1333 0 960zm816-348q0 59 39.5 94T960 741q66 0 105-35t39-94-39-93.5T960 484q-65 0-104.5 35T816 612zm9 823h271V822H825v613z"/></symbol><symbol viewBox="0 0 1920 1920" aria-labelledby="bzsi-mfglabs-information_white-title" id="si-mfglabs-information_white"><title id="bzsi-mfglabs-information_white-title">icon information_white</title><path d="M0 960q0-196 76-373.5t204.5-306T586.5 76 960 0q195 0 373 76t306.5 204.5 204.5 306 76 373.5q0 195-76 373t-204.5 306.5T1333 1844t-373 76q-196 0-373.5-76t-306-204.5T76 1333 0 960zm240 0q0 146 57 279.5t153.5 230 230 153.5 279.5 57 279.5-57 230-153.5 153.5-230 57-279.5-57-279.5-153.5-230-230-153.5T960 240t-279.5 57-230 153.5-153.5 230T240 960zm576-348q0-58 39.5-93T960 484q66 0 105 34.5t39 93.5-39 94-105 35q-65 0-104.5-35T816 612zm9 823V822h271v613H825z"/></symbol><symbol viewBox="0 0 1920 1920" aria-labelledby="casi-mfglabs-instagram-title" id="si-mfglabs-instagram"><title id="casi-mfglabs-instagram-title">icon instagram</title><path d="M0 1560V971h441q49 171 193 280.5T960 1361t326-109.5T1479 971h441v589q0 149-105.5 254.5T1560 1920H360q-149 0-254.5-105.5T0 1560zm0-888V360q0-149 105.5-254.5T360 0h1200q149 0 254.5 105.5T1920 360v312h-441q-49-171-193-281T960 281 634 391 441 672H0zm661 149q0 125 87.5 212.5T960 1121q125 0 213-88t88-212-88-212-213-88q-124 0-211.5 87.5T661 821z"/></symbol><symbol viewBox="0 0 1920 1920" aria-labelledby="cbsi-mfglabs-instagram_circle-title" id="si-mfglabs-instagram_circle"><title id="cbsi-mfglabs-instagram_circle-title">icon instagram_circle</title><path d="M0 960q0-195 76-373t204.5-306.5T587 76 960 0t373 76 306.5 204.5T1844 587t76 373-76 373-204.5 306.5T1333 1844t-373 76-373-76-306.5-204.5T76 1333 0 960zm551 266q0 64 44.5 109t108.5 45h512q64 0 108.5-45t44.5-109V974h-188q-20 73-81.5 120T960 1141t-139-47-83-120H551v252zm0-380h187q22-73 83-119t139-46 139.5 46 81.5 119h188V714q0-64-44.5-108.5T1216 561H704q-64 0-108.5 44.5T551 714v132zm281 64q0 53 37.5 90.5T960 1038t90.5-37.5T1088 910t-37.5-90.5T960 782t-90.5 37.5T832 910z"/></symbol><symbol viewBox="0 0 1920 1920" aria-labelledby="ccsi-mfglabs-isight-title" id="si-mfglabs-isight"><title id="ccsi-mfglabs-isight-title">icon isight</title><path d="M0 960q0-195 76-373t204.5-306.5T587 76 960 0t373 76 306.5 204.5T1844 587t76 373-76 372.5-204.5 306.5-306.5 205-373 76-373-76-306.5-205T76 1332.5 0 960zm360 0q0 162 80.5 300.5t218.5 219 301 80.5 301-80.5 218.5-219T1560 960q0-163-80.5-301T1261 440.5 960 360t-301 80.5T440.5 659 360 960zm362 307q202-13 341.5-161T1203 754q0-55-11-108 73 54 115.5 137t42.5 177q0 161-114.5 275T960 1349q-133 0-238-82z"/></symbol><symbol viewBox="0 0 1920 1235" aria-labelledby="cdsi-mfglabs-letter-title" id="si-mfglabs-letter"><title id="cdsi-mfglabs-letter-title">icon letter</title><path d="M0 1235L465 0h300l426 1132 251-669h188l290 772h-197l-53-156h-276l-55 156H914l-87-249H389l-88 249H0zm454-475h307L608 318zm981 179h192l-96-278z"/></symbol><symbol viewBox="0 0 1920 1920" aria-labelledby="cesi-mfglabs-linked_in-title" id="si-mfglabs-linked_in"><title id="cesi-mfglabs-linked_in-title">icon linked_in</title><path d="M0 1560V360q0-149 105.5-254.5T360 0h1200q149 0 254.5 105.5T1920 360v1200q0 149-105.5 254.5T1560 1920H360q-149 0-254.5-105.5T0 1560zm320 0q0 16 12 28t28 12h240q16 0 28-11.5t12-28.5V760q0-16-12-28t-28-12H360q-16 0-28 12t-12 28v800zm0-1085q0 64 45 109.5T474 630q67 0 110-46 45-45 45-109t-45.5-109.5T474 320t-109 45.5T320 475zm400 1085q0 16 19 28t38 12h228q14 0 24.5-12t10.5-28v-436q0-175 143-175 59 0 78 26t19 94v491q0 16 15 28t33 12h232q16 0 28-11.5t12-28.5v-543q0-157-90.5-240.5T1255 693q-113 0-197 57-17 10-18 15 0-45-43-45H777q-20 0-38.5 10T720 755v805z"/></symbol><symbol viewBox="0 0 1920 1920" aria-labelledby="cfsi-mfglabs-linked_in_circle-title" id="si-mfglabs-linked_in_circle"><title id="cfsi-mfglabs-linked_in_circle-title">icon linked_in_circle</title><path d="M0 960q0-195 76-373t204.5-306.5T587 76 960 0t373 76 306.5 204.5T1844 587t76 373-76 373-204.5 306.5T1333 1844t-373 76-373-76-306.5-204.5T76 1333 0 960zm465 309q0 77 54.5 131t131.5 54h619q77 0 131.5-54t54.5-131V650q0-77-54.5-131T1270 465H651q-77 0-131.5 54T465 650v619zm166 0V857q0-8 6-14.5t14-6.5h124q8 0 14 6.5t6 14.5v412q0 8-6 14.5t-14 6.5H651q-8 0-14-6.5t-6-14.5zm0-560q0-32 23.5-56t55.5-24q33 0 56.5 23.5T790 709t-23 56q-24 24-57 24-32 0-55.5-23T631 709zm206 560V854q0-8 9.5-13t18.5-5h114q23 0 23 23 0-3 8-8 46-29 103-29 84 0 130.5 42.5T1290 989v280q0 8-6 14.5t-14 6.5h-120q-9 0-16.5-6.5t-7.5-14.5v-253q0-34-10.5-48t-40.5-14q-73 0-73 90v225q0 8-6 14.5t-13 6.5H865q-9 0-18.5-6.5T837 1269z"/></symbol><symbol viewBox="0 0 1920 1477" aria-labelledby="cgsi-mfglabs-list-title" id="si-mfglabs-list"><title id="cgsi-mfglabs-list-title">icon list</title><path d="M0 1329q0 61 43 104.5t104 43.5h66q61 0 104-43.5t43-104.5-43-104-104-43h-66q-61 0-104 43T0 1329zm0-590q0 61 43 104t104 43h66q61 0 104-43t43-104-43-104.5T213 591h-66q-61 0-104 43.5T0 739zm0-591q0 61 43 104t104 43h66q61 0 104-43t43-104-43-104.5T213 0h-66Q86 0 43 43.5T0 148zm480 1181q0 61 43 104.5t104 43.5h1146q61 0 104-43.5t43-104.5-43-104-104-43H627q-61 0-104 43t-43 104zm0-590q0 61 43 104t104 43h1146q61 0 104-43t43-104-43-104.5-104-43.5H627q-61 0-104 43.5T480 739zm0-591q0 61 43 104t104 43h1146q61 0 104-43t43-104-43-104.5T1773 0H627q-61 0-104 43.5T480 148z"/></symbol><symbol viewBox="0 0 2280 1680" aria-labelledby="chsi-mfglabs-mail-title" id="si-mfglabs-mail"><title id="chsi-mfglabs-mail-title">icon mail</title><path d="M0 1500V180q0-16 5-38l942 944q79 79 194 79 113 0 192-79l944-944q3 20 3 38v1320q0 74-52.5 127t-126.5 53H181q-74 0-127.5-53T0 1500zM129 8q26-8 52-8h1920q24 0 50 8l-949 948q-25 25-62 25t-62-25z"/></symbol><symbol viewBox="0 0 1544 1545" aria-labelledby="cisi-mfglabs-male_sign-title" id="si-mfglabs-male_sign"><title id="cisi-mfglabs-male_sign-title">icon male_sign</title><path d="M0 947q0-121 47-231t127-190 190-127 231-47q166 0 309 86l211-212h-97q-47 0-80.5-33T904 113t33.5-80T1018 0h413q47 0 80 33t33 80v412q0 47-33 80.5t-80 33.5-80.5-33.5T1317 525v-98l-212 212q87 142 87 308 0 162-80 299.5t-217.5 218T595 1545q-161 0-298.5-80.5t-217-218T0 947zm285 0q0 128 91 220t219 92q129 0 220.5-91.5T907 947t-91.5-220.5T595 635q-128 0-219 92t-91 220z"/></symbol><symbol viewBox="0 0 1920 1920" aria-labelledby="cjsi-mfglabs-math-title" id="si-mfglabs-math"><title id="cjsi-mfglabs-math-title">icon math</title><path d="M0 960q0-196 76-373.5t204.5-306T586.5 76 960 0q195 0 373 76t306.5 204.5 204.5 306 76 373.5q0 195-76 373t-204.5 306.5T1333 1844t-373 76q-196 0-373.5-76t-306-204.5T76 1333 0 960zm181 0q0 158 61.5 302.5t166 249 249 166.5 302.5 62 303-62 249.5-166.5 166.5-249 62-302.5-62-302.5-166.5-249T1263 242t-303-62-302.5 62-249 166.5-166 249T181 960zm240-63q0-32 24-55t58-23h220l167 255 93-533h313q35 0 60 23.5t25 55.5-25 55.5-60 23.5h-174l-139 802-351-527H503q-34 0-58-22.5T421 897z"/></symbol><symbol viewBox="0 0 1920 1920" aria-labelledby="cksi-mfglabs-math_black-title" id="si-mfglabs-math_black"><title id="cksi-mfglabs-math_black-title">icon math_black</title><path d="M0 960q0-196 76-373.5t204.5-306T587 76 960 0t373 76 306.5 204.5 204.5 306 76 373.5q0 195-76 373t-204.5 306.5T1333 1844t-373 76-373-76-306.5-204.5T76 1333 0 960zm421-63q0 32 24 54.5t58 22.5h129l351 527 139-802h174q35 0 60-23.5t25-55.5-25-55.5-60-23.5H983l-92 533-168-255H503q-34 0-58 23t-24 55z"/></symbol><symbol viewBox="0 0 1920 1920" aria-labelledby="clsi-mfglabs-math_ico-title" id="si-mfglabs-math_ico"><title id="clsi-mfglabs-math_ico-title">icon math_ico</title><path d="M0 709q0-64 49-109.5T166 554h440l336 510L1125 0h627q70 0 119 46t49 111-49 111-119 46h-349l-278 1606L423 864H166q-68 0-117-45.5T0 709z"/></symbol><symbol viewBox="0 0 1894 1895.33349609375" aria-labelledby="cmsi-mfglabs-measure-title" id="si-mfglabs-measure"><title id="cmsi-mfglabs-measure-title">icon measure</title><path d="M0 1367.5Q0 1432 46 1479l368 368q40 40 95 45t101-25l-196-197 84-84 199 200 85-85-200-199 84-84 199 198 85-83-199-200 83-83 200 198 80-80-200-198 85-85 200 199 83-84-199-200 85-84 199 200 84-85-200-199 85-84 199 200 84-85-198-200 83-83 200 199 85-85-200-199 84-84 196 195q27-45 21-99t-44-92L1478 46q-47-46-111.5-46T1255 47L47 1256q-47 47-47 111.5z"/></symbol><symbol viewBox="0 0 2339 1200" aria-labelledby="cnsi-mfglabs-mfg_icon-title" id="si-mfglabs-mfg_icon"><title id="cnsi-mfglabs-mfg_icon-title">icon mfg_icon</title><path d="M0 216q0 90 65.5 153.5T223 433h257v767l1175-767h462q92 0 157-63.5t65-153.5q0-89-65-152.5T2117 0h-597L925 388V0H223Q131 0 65.5 63.5T0 216z"/></symbol><symbol viewBox="0 0 1920 1920" aria-labelledby="cosi-mfglabs-mfg_icon_circle-title" id="si-mfglabs-mfg_icon_circle"><title id="cosi-mfglabs-mfg_icon_circle-title">icon mfg_icon_circle</title><path d="M0 960q0-195 76-373t204.5-306.5T587 76 960 0t373 76 306.5 204.5T1844 587t76 373-76 372.5-204.5 306.5-306.5 205-373 76-373-76-306.5-205T76 1332.5 0 960zm334-94q0 49 35 84t84 35h138v423l630-423h246q49 0 84-35t35-84-35-84.5-84-35.5h-320L829 961V746H453q-49 0-84 35.5T334 866z"/></symbol><symbol viewBox="0 0 1799.666748046875 445" aria-labelledby="cpsi-mfglabs-minus-title" id="si-mfglabs-minus"><title id="cpsi-mfglabs-minus-title">icon minus</title><path d="M0 345V100q0-42 29.5-71T101 0h1596q42 0 72.5 29t29.5 71v245q0 42-30 71t-72 29H101q-42 0-71.5-29T0 345z"/></symbol><symbol viewBox="0 0 1920 1920" aria-labelledby="cqsi-mfglabs-movie-title" id="si-mfglabs-movie"><title id="cqsi-mfglabs-movie-title">icon movie</title><path d="M0 1740V180q0-74 53.5-127T181 0h240v360h1080V0h240q74 0 126.5 53t52.5 127v1560q0 74-52.5 127t-126.5 53h-240v-360H421v360H181q-74 0-127.5-53T0 1740zm151-90v120h120v-120H151zm0-181h120v-120H151v120zm0-299h120v-120H151v120zm0-301h120V749H151v120zm0-299h120V450H151v120zm0-301h120V149H151v120zm270 991h1080V660H421v600zm1228 390v120h120v-120h-120zm0-181h120v-120h-120v120zm0-299h120v-120h-120v120zm0-301h120V749h-120v120zm0-299h120V450h-120v120zm0-301h120V149h-120v120z"/></symbol><symbol viewBox="0 0 1257 1979" aria-labelledby="crsi-mfglabs-mute_off-title" id="si-mfglabs-mute_off"><title id="crsi-mfglabs-mute_off-title">icon mute_off</title><path d="M0 1104V887q0-37 26-63t63-26 63.5 26 26.5 63v217q0 182 132 311.5T629 1545q185 0 316.5-129.5T1077 1104V887q0-37 26.5-63t63.5-26 63.5 26 26.5 63v217q0 231-153.5 403.5T722 1715v87h280q37 0 64 26t27 62q0 37-26.5 63t-64.5 26H262q-37 0-63-26t-26-63q0-36 26-62t63-26h281v-86q-151-20-275.5-106t-196-219.5T0 1104zm296-10V328q0-136 97.5-232T629 0q137 0 234 96t97 232v766q0 136-97 232t-234 96q-138 0-235.5-96T296 1094z"/></symbol><symbol viewBox="0 0 1807 1979" aria-labelledby="cssi-mfglabs-mute_on-title" id="si-mfglabs-mute_on"><title id="cssi-mfglabs-mute_on-title">icon mute_on</title><path d="M0 209q0-37 26-63 26-25 64-25t64 25l1627 1604q26 25 26 62t-26 62q-25 26-63 26t-64-26L26 272Q0 246 0 209zm243 895V887q0-37 26.5-63t64.5-26q37 0 63.5 26t26.5 63v217q0 182 131.5 311.5T872 1545q121 0 221-57l130 129q-116 76-256 98v87h280q37 0 63.5 26t26.5 62q0 37-26.5 63t-63.5 26H506q-37 0-63.5-26t-26.5-63q0-36 26.5-62t63.5-26h280v-86q-151-20-275.5-106t-196-219.5T243 1104zm296-10V944l460 452q-63 26-127 26-138 0-235.5-96T539 1094zm0-735v-31q0-136 97.5-232T872 0t235.5 96 97.5 232v687zm781 769q0-4 .5-12t.5-12V887q0-37 26-63t63-26q38 0 64.5 26t26.5 63v217q0 87-27 176z"/></symbol><symbol viewBox="0 0 1920 1920" aria-labelledby="ctsi-mfglabs-octopus-title" id="si-mfglabs-octopus"><title id="ctsi-mfglabs-octopus-title">icon octopus</title><path d="M0 960q0 265 129 481 129 223 350 351t481 128q261 0 483-128 222-129 349.5-350.5T1920 960q0-264-128-483-129-222-350.5-349.5T960 0Q695 0 479 129 256 258 128 479T0 960zm160 0q0-160 63-309t172-257q109-109 257-171.5T960 160t309 62.5T1527 394q108 108 170.5 257t62.5 309q0 172-70.5 328t-198 269.5T1200 1722v-282q0-105-86-164 211-19 308.5-107t97.5-279q0-148-91-249 18-54 18-104 0-74-34-136-67 0-120 22t-130 76q-93-21-192-21-113 0-211 23-75-55-129.5-77.5T507 401q-33 63-33 136 0 52 17 105-91 98-91 248 0 191 97 278t311 107q-57 38-79 111-49 17-102 17-40 0-69-18-9-5-16.5-10.5T526 1361t-13-12.5-13-15.5-10.5-14-12-16-10.5-14q-47-62-112-62-35 0-35 15 0 6 17 20 32 28 34 30 24 19 27 24 29 36 44 79 56 125 192 125 22 0 86-10v212q-164-51-291.5-164.5t-198-269.5T160 960z"/></symbol><symbol viewBox="0 0 1920 1920" aria-labelledby="cusi-mfglabs-paperplane-title" id="si-mfglabs-paperplane"><title id="cusi-mfglabs-paperplane-title">icon paperplane</title><path d="M0 960q0-195 76-373t204.5-306.5T587 76 960 0t373 76 306.5 204.5T1844 587t76 373-76 373-204.5 306.5T1333 1844t-373 76-373-76-306.5-204.5T76 1333 0 960zm181 0q0 212 104.5 391.5t283.5 284T960 1740t391.5-104.5 284.5-284T1741 960q0-158-62-302.5t-166.5-249T1263 242t-303-62-302.5 62-249 166.5-166 249T181 960zm242-410q13-14 47-1l1083 437q22 8 30.5 20t2 25-26.5 23l-193 93-135 238q-19 29-48.5 32t-54.5-22l-26-27q-3-3-4-3l-59-60-145 68q-32 14-66 1.5t-50-44.5L426 596q-16-32-3-46zm207 134q-1 2 5 9.5t19 19.5l386 344q28 24 68.5 31.5t70.5-5.5q31-13 30.5-36t-32.5-42L664 699q-16-9-24.5-13t-9.5-2z"/></symbol><symbol viewBox="0 0 1920 1920" aria-labelledby="cvsi-mfglabs-paperplane_black-title" id="si-mfglabs-paperplane_black"><title id="cvsi-mfglabs-paperplane_black-title">icon paperplane_black</title><path d="M0 960q0-195 76-373t204.5-306.5T587 76 960 0t373 76 306.5 204.5T1844 587t76 373-76 373-204.5 306.5T1333 1844t-373 76-373-76-306.5-204.5T76 1333 0 960zm410-410q-13 14 3 46l352 734q16 32 49.5 44.5t65.5-1.5l146-68 59 60 3 3 27 27q24 25 54 22t48-32l135-238 193-93q31-16 29.5-35.5T1541 986L457 549q-34-13-47 1zm206 134q3-4 34 15l515 306q31 19 31.5 42t-29.5 36q-31 13-71.5 5.5T1027 1057L641 713q-28-25-25-29z"/></symbol><symbol viewBox="0 0 2357 1764" aria-labelledby="cwsi-mfglabs-paperplane_ico-title" id="si-mfglabs-paperplane_ico"><title id="cwsi-mfglabs-paperplane_ico-title">icon paperplane_ico</title><path d="M17 18.333q25.5-27.5 93.5.5l2175 875q43 17 59.5 42t3 50.5-53.5 46.5l-387 186-270 478q-37 58-96.5 63.5t-109.5-43.5l-53-54q-5-5-7-6l-119-121-292 137q-65 29-133 4t-99-90l-706-1475q-31-66-5.5-93.5zm414 271q-5.5 7.5 48.5 55.5l776 692q54 49 136.5 64.5t142.5-10.5q61-26 60-72.5t-64-83.5l-1030-616q-64-37-69.5-29.5z"/></symbol><symbol viewBox="0 0 1506 1680" aria-labelledby="cxsi-mfglabs-pause-title" id="si-mfglabs-pause"><title id="cxsi-mfglabs-pause-title">icon pause</title><path d="M0 1547q0 55 38 94t93 39h260q55 0 93-39t38-94V131q0-55-38-93T391 0H131Q76 0 38 38T0 131v1416zm983 0q0 55 38.5 94t92.5 39h261q54 0 92.5-39t38.5-94V131q0-55-38.5-93T1375 0h-261q-54 0-92.5 38T983 131v1416z"/></symbol><symbol viewBox="0 0 1416 1897" aria-labelledby="cysi-mfglabs-placepin-title" id="si-mfglabs-placepin"><title id="cysi-mfglabs-placepin-title">icon placepin</title><path d="M0 707q0-143 56-275 51-125 151-226 97-97 225-150Q562 0 707 0q148 0 276 56 127 53 225 150 100 100 152 226 56 132 56 275t-56 275q-36 81-74 134l-468 711q-46 70-110 70t-111-70l-467-711q-46-64-74-134Q0 850 0 707zm445 0q0 110 76 186 78 78 186 78 111 0 187-78 77-75 77-186 0-109-77-186-76-78-187-78-108 0-186 78-76 78-76 186z"/></symbol><symbol viewBox="0 0 1350 1634.3333740234375" aria-labelledby="czsi-mfglabs-play-title" id="si-mfglabs-play"><title id="czsi-mfglabs-play-title">icon play</title><path d="M0 1511.167v-1388q0-79 45.5-105.5t107.5 15.5l1156 715q41 29 41 69 0 18-10 35.5t-20 25.5l-11 8-1156 716q-62 41-107.5 14.5T0 1511.167z"/></symbol><symbol viewBox="0 0 1920 1797" aria-labelledby="dasi-mfglabs-printer-title" id="si-mfglabs-printer"><title id="dasi-mfglabs-printer-title">icon printer</title><path d="M0 1427V379q0-72 53.5-123.5T181 204h120v-29q0-73 52.5-124T480 0h960q74 0 126.5 51t52.5 124v41q0-2 1.5-5.5t1.5-6.5h117q74 0 127.5 51.5T1920 379v1048q0 72-53 123t-128 51h-120v20q0 73-52.5 124.5T1440 1797H480q-74 0-126.5-51.5T301 1621v-20H181q-75 0-128-51T0 1427zm421 194q0 23 17 39.5t42 16.5h960q25 0 43-16.5t18-39.5V927q-43-24-92-24H510q-47 0-89 24v694zm0-1254q31 12 60 12h960q25 0 60-11V175q0-23-18-39t-43-16H480q-25 0-42 16t-17 39v192z"/></symbol><symbol viewBox="0 0 2160 1613.5001220703125" aria-labelledby="dbsi-mfglabs-random-title" id="si-mfglabs-random"><title id="dbsi-mfglabs-random-title">icon random</title><path d="M0 1455.167v-356h470q56 0 105-20 65 173 202 298-145 78-307 78H0zm0-940v-355h470q132 0 252 51.5t206.5 138 138 206.5 51.5 252q0 120 85.5 205.5t206.5 85.5h173q3 0 8 .5t8 .5v-108q0-32 19-43.5t45 5.5l480 295q17 11 17 28 0 7-4 14.5t-8 10.5l-5 4-480 294q-26 17-45 6t-19-43v-110q-3 0-8 1t-8 1h-173q-132 0-252-51.5t-206.5-138-138-206-51.5-251.5q0-121-85.5-207t-206.5-86H0zm1102-278q140-77 308-77h173q3 0 8 .5t8 .5v-110q0-32 19-43.5t45 5.5l480 296q17 12 17 28 0 8-4 15t-8 10l-5 3-480 295q-26 17-45 6t-19-43v-109q-3 0-8 .5t-8 .5h-173q-53 0-105 21-66-175-203-299z"/></symbol><symbol viewBox="0 0 2088.5 1920" aria-labelledby="dcsi-mfglabs-reload-title" id="si-mfglabs-reload"><title id="dcsi-mfglabs-reload-title">icon reload</title><path d="M7 777q10.5-17 40.5-17h141q35-161 122-301.5T520 217 800.5 58t328-58q195 0 372.5 76t306.5 204 205 305.5 76 372.5-76 373-205 307-306.5 205.5-372.5 76.5q-330 0-591-204-49-38-56.5-99.5t30.5-109.5q38-49 99.5-56.5t109.5 30.5q182 140 408 140 180 0 332-89t240.5-241.5 88.5-332.5q0-134-52.5-256.5t-141-211-211-141-256.5-52.5q-219 0-392.5 129.5T497.5 760h89q30 0 40 17t-6 42l-276 454q-12 16-28 16-7 0-13.5-4t-9.5-8l-3-4-278-454q-16-25-5.5-42z"/></symbol><symbol viewBox="0 0 1920 1477" aria-labelledby="ddsi-mfglabs-reorder-title" id="si-mfglabs-reorder"><title id="ddsi-mfglabs-reorder-title">icon reorder</title><path d="M0 1329q0 61 44 104.5t104 43.5h1625q61 0 104-43.5t43-104.5-43-104-104-43H148q-60 0-104 43T0 1329zm0-590q0 61 44 104t104 43h1625q61 0 104-43t43-104-43-104.5-104-43.5H148q-60 0-104 43.5T0 739zm0-591q0 61 44 104t104 43h1625q61 0 104-43t43-104-43-104.5T1773 0H148Q88 0 44 43.5T0 148z"/></symbol><symbol viewBox="0 0 1920 1915" aria-labelledby="desi-mfglabs-reorder_square-title" id="si-mfglabs-reorder_square"><title id="desi-mfglabs-reorder_square-title">icon reorder_square</title><path d="M0 1809v-586q0-44 31-75.5t75-31.5h585q44 0 75.5 31.5T798 1223v586q0 44-31.5 75t-75.5 31H106q-44 0-75-31t-31-75zM0 692V106q0-44 31-75t75-31h585q44 0 75.5 31t31.5 75v586q0 44-31.5 75.5T691 799H106q-44 0-75-31.5T0 692zm1121 1117v-586q0-44 31.5-75.5t74.5-31.5h587q43 0 74.5 31.5t31.5 75.5v586q0 44-31 75t-75 31h-587q-43 0-74.5-31t-31.5-75zm0-1117V106q0-43 31.5-74.5T1227 0h587q44 0 75 31.5t31 74.5v586q0 44-31.5 75.5T1814 799h-587q-43 0-74.5-31.5T1121 692z"/></symbol><symbol viewBox="0 0 1920 1915" aria-labelledby="dfsi-mfglabs-reorder_square_line-title" id="si-mfglabs-reorder_square_line"><title id="dfsi-mfglabs-reorder_square_line-title">icon reorder_square_line</title><path d="M0 1809v-586q0-44 31.5-75.5T106 1116h587q43 0 74.5 31.5T799 1223v586q0 44-31.5 75t-74.5 31H106q-44 0-75-31t-31-75zM0 692V106q0-43 31-74.5T106 0h587q43 0 74.5 31.5T799 106v586q0 44-31.5 75.5T693 799H106q-43 0-74.5-31.5T0 692zm181 1043h437v-438H181v438zm0-1117h437V180H181v438zm940 1191v-586q0-44 31.5-75.5t74.5-31.5h587q43 0 74.5 31.5t31.5 75.5v586q0 44-31 75t-75 31h-587q-43 0-74.5-31t-31.5-75zm0-1117V106q0-43 31.5-74.5T1227 0h587q44 0 75 31.5t31 74.5v586q0 44-31.5 75.5T1814 799h-587q-43 0-74.5-31.5T1121 692zm181 1043h439v-438h-439v438zm0-1117h439V180h-439v438z"/></symbol><symbol viewBox="0 0 1889 1420" aria-labelledby="dgsi-mfglabs-reply-title" id="si-mfglabs-reply"><title id="dgsi-mfglabs-reply-title">icon reply</title><path d="M0 641q0-14 7-28t13-20l7-7L799 25q42-32 72.5-11T902 96v228l55 4q197 17 371.5 111t298 240 193.5 339 67 402q-124-219-330.5-358T1101 902q-101-9-199 3v281q0 61-30.5 82t-72.5-11L27 695Q0 672 0 641z"/></symbol><symbol viewBox="0 0 1902.3333740234375 1420" aria-labelledby="dhsi-mfglabs-retweet-title" id="si-mfglabs-retweet"><title id="dhsi-mfglabs-retweet-title">icon retweet</title><path d="M7.667 879q11.5-19 43.5-19h129V156q0-65 45-110.5t110-45.5h983l-212 314h-615v546h130q32 0 43 19t-6 45l-294 480q-12 16-29 16-7 0-14-4t-11-8l-3-4-294-480q-17-26-5.5-45zm577.5 541l211-313h615V560h-130q-32 0-43-19t6-44l294-480q11-17 28-17 7 0 14.5 4t11.5 8l3 5 294 480q17 25 5.5 44t-43.5 19h-129v704q0 65-45.5 110.5t-110.5 45.5h-981z"/></symbol><symbol viewBox="0 0 1862.333251953125 1863.166748046875" aria-labelledby="disi-mfglabs-ringbell-title" id="si-mfglabs-ringbell"><title id="disi-mfglabs-ringbell-title">icon ringbell</title><path d="M1.333 726q2-44 30-85 31-47 80.5-71.5t99.5-20.5q6 0 17 2 84 8 154-14 189-61 489-361 111-111 259.5-150t296.5 0 259 150 150 259.5 0 296.5-150 259q-83 83-147 157t-104 129.5-67.5 106-39.5 84.5-17 68-4 54 3 43q2 12 2 18 4 50-21 100t-71 81q-41 27-85 29.5t-95-12.5q-1 0-21.5-5t-41.5-11-59-21-76.5-33-90.5-49-104-68-115.5-90.5-125.5-115.5q-56-56-104.5-112t-84-105-65-95-50-86.5-35.5-74-25-63-15-48-9-34.5-4-17q-15-51-13-95zm201 134q10 61 48 137.5t107.5 168.5 157.5 180q181 180 349 266t226 27q43-46 4-156.5t-144-246.5q-16 22-29 35-68 67-165 67t-165-67q-68-68-68-166t68-166q13-11 34-27-136-105-246-144.5t-156 3.5q-31 28-21 89z"/></symbol><symbol viewBox="0 0 1920 1821" aria-labelledby="djsi-mfglabs-settings-title" id="si-mfglabs-settings"><title id="djsi-mfglabs-settings-title">icon settings</title><path d="M0 906q0-77 15-169 102 7 193.5-40T352 559q52-94 47-196t-62-187Q469 62 645 0q47 85 131 135.5T960 186t183.5-50.5T1274 0q174 62 308 176-44 81-44 174.5t48 176.5q49 85 133 132t179 47q22 101 22 200 0 66-14 153-92 2-172.5 49.5T1605 1239q-51 90-48.5 188.5T1611 1609q-135 124-298 190-47-86-131.5-137T997 1611q-107 0-195.5 57.5T670 1821q-169-54-313-169 57-84 61.5-185.5T370 1271q-54-95-150.5-142.5T18 1093Q0 1009 0 906zm600 0q0 149 105.5 254.5T960 1266t254.5-105.5T1320 906t-105.5-254.5T960 546 705.5 651.5 600 906z"/></symbol><symbol viewBox="0 0 1920 1696" aria-labelledby="dksi-mfglabs-share-title" id="si-mfglabs-share"><title id="dksi-mfglabs-share-title">icon share</title><path d="M0 1351V346q0-143 101.5-244.5T346 0h265q58 0 98 40t40 96q0 58-40 98t-98 40H346q-30 0-51 21t-21 51v1005q0 29 21 50.5t51 21.5h1205q30 0 51-21.5t21-50.5v-123q0-56 40-96.5t96-40.5q57 0 97 40t40 97v123q0 143-101 244t-244 101H346q-143 0-244.5-101T0 1351zm499-185q93-166 248.5-270.5T1091 774q86-5 150 4v211q0 46 23.5 62t54.5-8l580-424q21-16 21-40 0-11-5-21t-11-15l-5-5-580-423q-31-25-54.5-9.5T1241 167v174q-13 0-41 2-148 13-279.5 84T696 607.5 549.5 863 499 1166z"/></symbol><symbol viewBox="0 0 1619 1920" aria-labelledby="dlsi-mfglabs-sheet-title" id="si-mfglabs-sheet"><title id="dlsi-mfglabs-sheet-title">icon sheet</title><path d="M0 1740V180q0-74 52.5-127T179 0h728q7 0 12 1h1q78 6 125 53l522 502q22 24 33 50 4 10 5 13 1 2 4.5 10t4.5 13q5 23 5 42v1056q0 74-52.5 127t-126.5 53H179q-74 0-126.5-53T0 1740zm179 0h1261V787h-272q-149 0-254.5-105.5T808 427V180H179v1560zM989 427q0 74 52.5 126.5T1168 606h242L989 208v219z"/></symbol><symbol viewBox="0 0 1920 1920" aria-labelledby="dmsi-mfglabs-signin-title" id="si-mfglabs-signin"><title id="dmsi-mfglabs-signin-title">icon signin</title><path d="M0 941q0-68 48.5-116T165 777h705L643 550q-48-48-48-116t48-117q49-48 117.5-48T877 317l506 508q49 48 49 116t-49 116l-496 497q-48 48-116.5 48T654 1554t-48-116 48-117l216-215H165q-68 0-116.5-48.5T0 941zm1192 814q0-68 48.5-116.5T1357 1590h147q36 0 61.5-25t25.5-61V414q0-35-25.5-60t-61.5-25h-147q-68 0-116.5-48.5T1192 164t48.5-116T1357 0h147q173 0 294.5 121T1920 414v1090q0 173-122 294.5T1504 1920h-147q-68 0-116.5-48.5T1192 1755z"/></symbol><symbol viewBox="0 0 1920 1920" aria-labelledby="dnsi-mfglabs-signout-title" id="si-mfglabs-signout"><title id="dnsi-mfglabs-signout-title">icon signout</title><path d="M0 1504q0 172 121.5 294T415 1920h148q68 0 116.5-48.5T728 1755t-48.5-116.5T563 1590H415q-35 0-60.5-25t-25.5-61V414q0-35 25.5-60t60.5-25h148q68 0 116.5-48.5T728 164 679.5 48 563 0H415Q243 0 121.5 121T0 414v1090zm488-516q0-68 48.5-116T653 824h705l-225-227q-49-48-49-116.5t49-116.5q48-48 116-48t116 48l507 508q48 48 48 116t-48 116l-497 497q-48 48-116 48t-117-48q-48-48-48-116t49-117l215-215H653q-67 0-116-49t-49-116z"/></symbol><symbol viewBox="0 0 1141 1920" aria-labelledby="dosi-mfglabs-smartphone-title" id="si-mfglabs-smartphone"><title id="dosi-mfglabs-smartphone-title">icon smartphone</title><path d="M0 1714V205q0-85 59-145T202 0h736q84 0 143.5 60t59.5 145v1509q0 85-59.5 145.5T938 1920H202q-84 0-143-60T0 1714zm480-125q0 38 26.5 64.5T570 1680t64-27 27-64-27-63-64-26-63.5 26-26.5 63z"/></symbol><symbol viewBox="0 0 2149 1192" aria-labelledby="dpsi-mfglabs-soundcloud-title" id="si-mfglabs-soundcloud"><title id="dpsi-mfglabs-soundcloud-title">icon soundcloud</title><path d="M0 978q0 40 29 60.5t62 14.5q31-6 43.5-22t12.5-53V688q0-31-21.5-52.5T73 614q-30 0-51.5 21.5T0 688v290zm230 124q0 29 20.5 43.5T303 1160q33 0 53.5-14.5T377 1102V426q0-30-21.5-51.5T303 353q-30 0-51.5 21.5T230 426v676zm229 32q0 29 21 43.5t54 14.5q32 0 52.5-14.5T607 1134V517q0-31-21.5-53T534 442q-31 0-53 22t-22 53v617zm230 3q0 55 74 55t74-55V137q0-84-51-95-33-8-65 19t-32 76v1000zm234 29V78q0-52 31-62 67-16 133-16 153 0 285 72t213.5 196.5T1680 543q61-26 130-26 140 0 239.5 99t99.5 238q0 140-99.5 239t-238.5 98H941q-9-3-13.5-11t-4.5-14z"/></symbol><symbol viewBox="0 0 1929.166748046875 1817.33349609375" aria-labelledby="dqsi-mfglabs-star-title" id="si-mfglabs-star"><title id="dqsi-mfglabs-star-title">icon star</title><path d="M16 684.5q24-76 208-76h462l141-425v-2q38-114 89-154.5t101.5 0 88.5 154.5l1 2 140 425h462q120 0 174 35t30.5 94.5T1792 867.5l-10 8-362 259 139 424 3 4q56 174-9 222.5t-214-58.5l-6-4-5-3-362-260-367 263-4 4q-149 107-215 58.5t-8-222.5l1-2v-3l139-423-362-259-4-4-5-4q-149-107-125-183z"/></symbol><symbol viewBox="0 0 2064 1920" aria-labelledby="drsi-mfglabs-star_empty-title" id="si-mfglabs-star_empty"><title id="drsi-mfglabs-star_empty-title">icon star_empty</title><path d="M17 783q-25.5-64 32.5-101.5t187-37.5h495l151-456v-2q30-92 69-139t81-47q41 0 80 47t69 139l2 2 149 456h495q129 0 187 37.5T2047 783t-130.5 139l-10 8-389 278 150 452 2 7q39 122 22.5 186.5t-81.5 64.5q-75 0-179-77l-12-7-387-278-393 281-6 4q-107 79-180 79-65 0-81.5-65.5t22.5-187.5l2-7 150-452-389-278-4-5-6-3Q42.5 847 17 783zm338.5 53l416 297-43 134-117 354 421-301 420 301-116-354-44-134 416-297h-514l-43-132-119-359-163 491h-514z"/></symbol><symbol viewBox="0 0 995 1848.5" aria-labelledby="dssi-mfglabs-star_half-title" id="si-mfglabs-star_half"><title id="dssi-mfglabs-star_half-title">icon star_half</title><path d="M16 754.833q-24-61.5 32-98t180-36.5h476l144-437 1-3q29-89 67.5-135t78.5-44v1491l-380 276-6 4q-101 72-168 74.5t-82.5-60.5 20.5-182l1-3 1-2 144-437-373-266-5-5-6-3q-101-72-125-133.5z"/></symbol><symbol viewBox="0 0 1032.6666259765625 1920" aria-labelledby="dtsi-mfglabs-star_half_empty-title" id="si-mfglabs-star_half_empty"><title id="dtsi-mfglabs-star_half_empty-title">icon star_half_empty</title><path d="M16.667 783q-25-64 33-101.5t187-37.5h495l150-456 1-2q30-92 69-139t81-47v345l-163 491h-514l416 297-43 134-117 354 421-301v236l-393 281-6 4q-107 79-180 79-66 0-82-65.5t23-187.5l2-7 149-452-388-278-5-5-6-3q-105-75-130-139z"/></symbol><symbol viewBox="0 0 1682 1557.3333740234375" aria-labelledby="dusi-mfglabs-step_backward-title" id="si-mfglabs-step_backward"><title id="dusi-mfglabs-step_backward-title">icon step_backward</title><path d="M0 1428.667v-1300q0-50 35.5-85.5t85.5-35.5h239q50 0 85 35.5t35 85.5v557l1057-655q60-39 102.5-14t42.5 100v1323q0 76-42.5 101t-102.5-15l-1057-654v557q0 50-35.5 85.5t-84.5 35.5H121q-49 0-85-36t-36-85z"/></symbol><symbol viewBox="0 0 1795 1653.166748046875" aria-labelledby="dvsi-mfglabs-step_forward-title" id="si-mfglabs-step_forward"><title id="dvsi-mfglabs-step_forward-title">icon step_forward</title><path d="M0 1507V117q0-84 43-94.5T174 59l1100 695V117q0-43 36.5-80T1390 0h232q81 0 127 35t46 82v1390q0 47-46 82t-127 35h-232q-43 0-79.5-37t-36.5-80V928L174 1624q-88 40-131 7.5T0 1507z"/></symbol><symbol viewBox="0 0 1682 1683" aria-labelledby="dwsi-mfglabs-stop-title" id="si-mfglabs-stop"><title id="dwsi-mfglabs-stop-title">icon stop</title><path d="M0 1550V135q0-54 38.5-93.5T131 0h1421q54 0 92 39t38 94v1415q0 55-38 94t-92 41H131q-54 0-92.5-39T0 1550z"/></symbol><symbol viewBox="0 0 1435 1920" aria-labelledby="dxsi-mfglabs-tablet-title" id="si-mfglabs-tablet"><title id="dxsi-mfglabs-tablet-title">icon tablet</title><path d="M0 1740V180q0-74 52.5-127T179 0h1077q74 0 126.5 53t52.5 127v1560q0 74-52.5 127t-126.5 53H179q-74 0-126.5-53T0 1740zm631-139q0 38 26.5 64t63.5 26 63-26.5 26-63.5-26-63-63-26-63.5 26-26.5 63z"/></symbol><symbol viewBox="0 0 1813 1920" aria-labelledby="dysi-mfglabs-trash_can-title" id="si-mfglabs-trash_can"><title id="dysi-mfglabs-trash_can-title">icon trash_can</title><path d="M0 275q0-75 121-138T451 37 906 0q247 0 456 37t330 100 121 138q-21 165-79 466t-113.5 565-58.5 283q-13 74-81.5 138t-165 105-204.5 64.5-205 23.5-205-23.5-204-64.5-164.5-105-81.5-138q-8-43-67-328.5t-114-570T0 275zm259 458l77 375 178-154zm11-397q0 65 186 110.5T906 492q265 0 451-45.5T1543 336q0-66-186.5-112T906 178t-450 46-186 112zm113 1000l43 210 101-87zm16-638l207 178 146-127q-194-12-353-51zm11 504l207 179 197-169-208-179zm101 428q146 62 304 77l-198-169zm185-676l208 179 197-169-204-183zm13 505l209 181 194-171-208-179zm286-247l207 178 189-164-201-182zm29 493q145-17 275-73l-96-84zm17-955l150 136 217-187q-162 41-367 51zm239 216l191 172 84-408zm14 503l92 80 40-196z"/></symbol><symbol viewBox="0 0 1694.5 1920" aria-labelledby="dzsi-mfglabs-trophy-title" id="si-mfglabs-trophy"><title id="dzsi-mfglabs-trophy-title">icon trophy</title><path d="M.667 559q1-71 37-130 41-67 117.5-98t167.5-17q-2-66-2-102 0-91 141.5-151.5T847.667 0q243 0 384.5 60.5t141.5 151.5q0 3-3 102 91-14 168 17t119 98q36 59 36.5 130t-34.5 141q-27 54-93.5 104t-192.5 125q-73 44-108.5 66.5t-95.5 64-99 78.5-64 74q-25 50-25 116 0 100 65.5 189.5t151.5 115.5q84 26 113.5 55t29.5 89-137.5 101.5-356.5 41.5-357-41.5-138-101.5 29.5-89 113.5-55q86-26 151.5-115.5t65.5-189.5q0-66-25-116-20-30-54-63t-63.5-56.5-84.5-60-79.5-51.5-85.5-52q-85-50-130.5-80t-91.5-70.5-65-78.5q-34-70-33-141zm185-38q-25 38 4 100 19 37 203 148-39-118-57-273-4-1-13-4t-13-4q-37-5-41-5-59 0-83 38zm330-301q0 40 97 68t235 28q137 0 233.5-28t96.5-68-96.5-68-233.5-28-234.5 28-97.5 68zm786 549q184-111 203-148 29-61 5-100-33-51-125-33-8 2-26 8-19 162-57 273z"/></symbol><symbol viewBox="0 0 1920 1561" aria-labelledby="easi-mfglabs-twitter-title" id="si-mfglabs-twitter"><title id="easi-mfglabs-twitter-title">icon twitter</title><path d="M0 1358q0 15 15 27 25 17 89 50 244 126 512 126 334 0 607-172 130-82 231-197.5t160.5-241 89-251.5 27.5-245v-35q117-84 183-192 6-12 6-18 0-13-10-23t-23-10q-7 0-24 8-12 4-29.5 10t-30 10.5-16.5 5.5q26-29 54-78.5t28-72.5q0-13-10-22.5t-24-9.5q-8 0-16 5-114 61-213 83Q1485 0 1317 0q-172 0-293 120T903 410q0 30 4 49-169-14-326-81T299 198q-29-28-112-117-12-12-28-12-12 0-25 16-26 39-41 95.5T78 291q0 149 93 260l-29-14q-25-11-37-11-17 0-28.5 10T65 562q0 105 54 199t146 150l-12-2q-2 0-5.5-1t-5.5-1.5-3-.5q-13 0-22.5 10t-9.5 22q0 1 2 11 34 104 113 176.5t185 97.5q-174 107-384 107-14 0-45-3-42-2-46-2-13 0-22.5 10T0 1358z"/></symbol><symbol viewBox="0 0 1920 1920" aria-labelledby="ebsi-mfglabs-twitter_circle-title" id="si-mfglabs-twitter_circle"><title id="ebsi-mfglabs-twitter_circle-title">icon twitter_circle</title><path d="M0 960q0-195 76-373t204.5-306.5T587 76 960 0t373 76 306.5 204.5T1844 587t76 373-76 373-204.5 306.5T1333 1844t-373 76-373-76-306.5-204.5T76 1333 0 960zm389 408q0 10 9 16 13 10 55 32 149 76 313 76 206 0 372-105 80-51 142-122.5t98.5-149T1433 960t17-151v-22q72-52 112-119 4-6 4-11 0-8-6.5-14.5T1545 636l-15 5q-39 16-45 17 17-20 33.5-50t16.5-44q0-7-6.5-13t-14.5-6q-4 0-10 2-74 40-131 53-74-72-178-72-105 0-179 74t-74 179q0 13 2 31-214-20-371-162-28-27-70-72-7-8-17-8-11 0-15 10-36 50-36 128 0 90 59 160-2 0-20-8-14-7-21-7-10 0-17 6t-7 16q0 66 33 123.5t89 92.5h-3q-2-1-5-1-3-1-8-1-8 0-14 5.5t-6 13.5q0 1 2 7 20 63 68.5 108t113.5 61q-106 66-235 66-3 0-29-2-7 0-16-.5t-11-.5q-7 0-13 6.5t-6 14.5z"/></symbol><symbol viewBox="0 0 1920 1920" aria-labelledby="ecsi-mfglabs-upload-title" id="si-mfglabs-upload"><title id="ecsi-mfglabs-upload-title">icon upload</title><path d="M0 1504v-148q0-68 48.5-116t116.5-48 116 48 48 116v148q0 36 25.5 61t61.5 25h1089q35 0 60.5-25t25.5-61v-148q0-68 48-116t116-48 116.5 48 48.5 116v148q0 172-121.5 294T1505 1920H416q-172 0-294-121.5T0 1504zm318-833.5q0-68.5 48-116.5L872 48Q920 0 989 0q68 0 116 48l497 496q48 49 48 117t-48 116q-49 48-117 48t-116-48l-216-216v706q0 68-48 116.5T989 1432q-67 0-116-48.5T824 1267V561L598 787q-48 48-116 48t-116-48-48-116.5z"/></symbol><symbol viewBox="0 0 2099 1920" aria-labelledby="edsi-mfglabs-user-title" id="si-mfglabs-user"><title id="edsi-mfglabs-user-title">icon user</title><path d="M0 1920q0-18 2-47.5t22-95T80 1676q35-35 139-77t235-88.5 192-77.5q77-39 119.5-114t42.5-156q0-55-66-130-67-77-108.5-209.5T592 518q0-130 37-231.5T730 124t145.5-92.5T1050 0t173.5 31.5 145 92.5T1470 286.5t37 231.5q0 173-41 305.5T1358 1033q-67 76-67 130 0 80 43 155.5t120 114.5q61 31 192 77.5t234 88.5 138 77q36 36 56 97t22 104l3 43H0z"/></symbol><symbol viewBox="0 0 2039 1920" aria-labelledby="eesi-mfglabs-user_female-title" id="si-mfglabs-user_female"><title id="eesi-mfglabs-user_female-title">icon user_female</title><path d="M0 1920q0-18 2-46.5t22-92.5 55-100q34-35 134-76.5t227-87.5 187-76q66-34 106.5-97t48.5-133H616q-4-18-10-48.5T586 1041t-24-177-14.5-197 1.5-199.5T579.5 301 647 185q38-39 85.5-52.5t69.5.5q2 0 3-1 0-3 5-16 26-69 85-98 36-19 127-16 4 0 14 .5t14 .5h3q51 4 115 22 55 16 102 41t95.5 71.5 81.5 108 51 154.5 12 206q-7 137-19 250t-23 176-21.5 106-16.5 58l-7 15h-166q8 71 48 133.5t106 96.5q60 30 187 76t227.5 87.5T1960 1681q35 36 55 95.5t22 101.5l2 42H0z"/></symbol><symbol viewBox="0 0 2002 1884.833251953125" aria-labelledby="efsi-mfglabs-user_male-title" id="si-mfglabs-user_male"><title id="efsi-mfglabs-user_male-title">icon user_male</title><path d="M0 1884.833q0-18 2-46t21.5-91.5 54.5-98.5q34-34 132-74.5t222.5-85.5 183.5-75q74-36 114-109.5t40-151.5q0-55-63-126-37-44-64-120-89-37-89-149 0-83 29-120-8-56-18-165-2-16-4.5-42.5t5-90.5 31.5-108q38-67 96.5-92.5t95.5-9.5q1 0 1-1 2-10 9-26.5t29-44 51-42.5q16-8 52-12.5t87.5-1 107 15.5 111 43.5 99.5 77.5 72.5 121.5 29.5 171.5q1 21 0 41-8 92-19 165 29 37 29 120 0 112-89 149-27 76-64 120-63 71-63 126 0 78 40 151.5t114 109.5q59 30 183.5 75t223 85.5 132.5 74.5q35 35 54 94t21 101l2 41H0z"/></symbol><symbol viewBox="0 0 2461 1920" aria-labelledby="egsi-mfglabs-users-title" id="si-mfglabs-users"><title id="egsi-mfglabs-users-title">icon users</title><path d="M0 1577q40-16 122-45.5t142.5-53.5 102.5-45q75-39 117-114.5t42-156.5q0-55-64-130-38-43-67-124-92-36-92-155 0-88 28-125-10-80-18-169-9-113 54.5-220.5t172-173T765 0q88 0 173.5 39.5T1087 142t99.5 147.5T1216 459q-10 114-18 169 29 38 29 125 0 118-92 155-31 84-66 124-66 75-66 130 0 81 42 156.5t118 114.5q61 31 190 77.5t231 88.5 136 77q36 36 56 97t22 104l2 43H0v-343zm1445-613q0-71 24-102-11-67-15-138-7-93 44.5-183T1639 394.5t184-56.5 184 56.5T2147.5 541t44.5 183q-4 71-15 138 24 31 24 102 0 97-75 127-23 67-54 102-18 21-26.5 32.5t-18 33-9.5 41.5q0 65 34.5 127.5t96.5 93.5q36 18 87.5 38.5T2358 1605t103 38v277h-520q0-8-.5-22t-6-53-15-74.5-29.5-77-47-68.5q-49-50-109-89.5t-163-76.5q56-69 56-159 0-20-9.5-41.5t-17.5-33-25-32.5q-28-31-55-101-75-33-75-128z"/></symbol><symbol viewBox="0 0 2512 2512" aria-labelledby="ehsi-mfglabs-vector-title" id="si-mfglabs-vector"><title id="ehsi-mfglabs-vector-title">icon vector</title><path d="M0 1890l278-278 97 97 450-450q-62-91-52-203.5T863 862q80-80 192.5-89.5T1259 826l451-452-97-97L1890 0l278 277-278 278-97-97-291 291q136-32 251-32 207 0 397 79t336 225q26 26 26 63t-26 63-63 26-63-26q-122-122-278.5-186.5T1753 896q-198 0-375 86 30 81 10.5 170t-83.5 153q-65 64-153 83.5T983 1378q-77 160-86 336.5t55 346 194 299.5q26 26 26 62.5t-26 62.5q-27 27-63 27-34 0-61-27-197-196-267-459.5t-4-524.5l-293 292 97 97-277 278zm167 0l111 111 109-111-109-110zM1781 277l109 111 110-111-110-109z"/></symbol><symbol viewBox="0 0 1834.0001220703125 1835.1666259765625" aria-labelledby="eisi-mfglabs-vector_pen-title" id="si-mfglabs-vector_pen"><title id="eisi-mfglabs-vector_pen-title">icon vector_pen</title><path d="M22.667 1404.167q-34 34 9.5 118t119 160.5 158.5 120.5 119 8l456-457q-113-78-220-185-48-48-94.5-102.5t-68.5-85.5l-23-31zm555-484.5q-16-48.5 7-70.5 23-23 47-84t35-124l8-42q11-63 61.5-127t108.5-89l813-363q59-25 69-10.5t-36 60.5l-416 414q-87 89-108 109-43-21-93.5-13t-86.5 43q-46 46-46 111t46 112q47 47 112 47t111-47q35-35 43.5-85t-12.5-93q29-30 108-109l416-416q46-46 60-36t-11 69l-363 814q-26 58-89.5 107.5t-127.5 60.5l-41 8q-63 11-124 35t-84 47-70.5 7-93.5-62l-181-179q-46-46-62-94.5z"/></symbol><symbol viewBox="0 0 2281 1393.0001220703125" aria-labelledby="ejsi-mfglabs-video_camera-title" id="si-mfglabs-video_camera"><title id="ejsi-mfglabs-video_camera-title">icon video_camera</title><path d="M0 1078.667v-765q0-127 89-217.5t213-90.5h1125q121 0 208 86t93 208l426-272q52-35 89.5-13t37.5 89v1184q0 67-37.5 90t-89.5-12l-426-273q-5 123-92.5 208.5t-208.5 85.5H302q-125 0-213.5-90.5T0 1078.667zm1303-723q0 37 26.5 63.5t63.5 26.5 63.5-26.5 26.5-63.5-26.5-63.5-63.5-26.5-63.5 26.5-26.5 63.5z"/></symbol><symbol viewBox="0 0 1920 1920" aria-labelledby="eksi-mfglabs-warning-title" id="si-mfglabs-warning"><title id="eksi-mfglabs-warning-title">icon warning</title><path d="M0 960q0-196 76-373.5t204.5-306T586.5 76 960 0q195 0 372.5 76T1639 280.5t205 306 76 373.5q0 195-76 373t-205 306.5-306.5 204.5-372.5 76q-196 0-373.5-76t-306-204.5T76 1333 0 960zm793-403l55 501q5 42 35.5 72.5T957 1165q49 5 87.5-26t43.5-81l55-501v-34q-8-72-64-118t-128-39-118.5 63T793 557zm25 843q0 62 44 106t106 44 106-44 44-106-44-106q-42-42-106-42t-106 42q-44 44-44 106z"/></symbol><symbol viewBox="0 0 1920 1920" aria-labelledby="elsi-mfglabs-warning_alt-title" id="si-mfglabs-warning_alt"><title id="elsi-mfglabs-warning_alt-title">icon warning_alt</title><path d="M0 960q0-196 76-373.5t204.5-306T586.5 76 960 0q195 0 373 76t306.5 204.5 204.5 306 76 373.5q0 195-76 373t-204.5 306.5T1333 1844t-373 76q-196 0-373.5-76t-306-204.5T76 1333 0 960zm240 0q0 196 96.5 361.5t262.5 262 361 96.5q196 0 361.5-96.5t262-262T1680 960q0-195-96.5-361t-262-262.5T960 240q-146 0-279.5 57t-230 153.5-153.5 230T240 960zm554-403q-7-72 39-128t119-63q72-7 128 39t63 118q2 18 0 34l-55 501q-4 49-42.5 80.5T957 1165q-43-4-73.5-34.5T848 1058zm24 843q0-64 45-106 41-42 105.5-42t105.5 42q45 42 45 106t-45 106q-42 45-106 45-63 0-105-45-45-42-45-106z"/></symbol><symbol viewBox="0 0 1920 1920" aria-labelledby="emsi-mfglabs-white_question-title" id="si-mfglabs-white_question"><title id="emsi-mfglabs-white_question-title">icon white_question</title><path d="M0 960q0-196 76-373.5t204.5-306T586.5 76 960 0q195 0 373 76t306.5 204.5 204.5 306 76 373.5q0 195-76 372.5T1639.5 1639 1333 1844t-373 76q-196 0-373.5-76t-306-205T76 1332.5 0 960zm240 0q0 146 57 279.5t153.5 230 230 153.5 279.5 57 279.5-57 230-153.5 153.5-230 57-279.5q0-196-96.5-361.5t-262.5-262T960 240t-361 96.5-262.5 262T240 960zm443-362l63 208q92-59 190-59 101 0 101 47 0 8-3.5 15t-7.5 11.5-12.5 10.5-13.5 9-17 9l-16 8-82 44q-44 24-56.5 51t-12.5 75v75h239v-32q0-15 1-21t5-11.5 13-10.5q2-1 21.5-10t35.5-17 38-21.5 38-26.5q39-35 60-76t21-113q0-101-85.5-170.5T986 523q-170 0-303 75zm98 685q0 65 42 100.5t113 35.5q69 0 111-35.5t42-100.5-42-101-111-36q-71 0-113 36t-42 101z"/></symbol></defs></svg>