<?xml version="1.0" encoding="utf-8"?><svg xmlns="http://www.w3.org/2000/svg" xmlns:xlink="http://www.w3.org/1999/xlink" style="display:none;"><symbol viewBox="0 0 2389 2389" id="si-mfglabs-anchor"><path d="M359.167 1619.5q0-15.5 10-26.5l209-251 45 56 159 197q10 13 8 28t-15 25q-22 17-46 0l-48-39q33 124 129 206.5t233 112.5q12 1 21 0t21.5-15 12.5-42v-797q0-20-12-32t-24-14l-11-2h-82q-40 0-68.5-28t-28.5-68 28-68 69-28h85q4-1 7.5-2t9-3.5 10-6 8.5-8.5 6.5-12.5 2.5-16.5v-20q-63-28-101.5-87t-38.5-131q0-97 69-166.5t167-69.5 168 69.5 70 166.5q0 72-39.5 131t-102.5 87v21q0 9 2.5 16t7 12 9 8.5 9.5 5.5 9 3.5 7 2.5h88q39 0 67.5 28t28.5 68q0 39-28.5 67.5t-67.5 28.5h-84q-5 0-13 1.5t-21.5 13.5-13.5 32v798q0 28 12.5 42t22 15 21.5 0q137-30 233.5-112.5t129.5-206.5l-48 39q-13 10-27.5 8t-25.5-13q-17-25 0-48l159-197 44-56 210 251q10 13 8.5 31t-14.5 29q-12 10-28 10t-27-10l-61-52q-34 210-178.5 366.5t-349.5 209.5q-2 2-4 2-29 7-50.5 26t-28.5 44q-8 32-34 52.5t-60 20.5q-33 0-58.5-20.5t-33.5-52.5q-7-25-28.5-44t-50.5-26q-3 0-5-2-205-53-349.5-209.5t-178.5-366.5l-60 52q-13 11-31 9.5t-30-15.5q-10-12-10-27.5zm718-1072.5q0 39 21 70v-10q0-40 28-68t68-28 68 27.5 28 68.5v10q23-32 23-70 0-48-35-82t-84-34-83 34-34 82z"/></symbol><symbol viewBox="0 0 2389 2389" id="si-mfglabs-arrow_down"><path d="M357.667 1454q0-51 37-88t89-37 88 37l498 497V549q0-53 37-89.5t89-36.5 88 36.5 36 89.5v1314l499-497q37-37 88.5-37t88.5 37q37 36 37 88t-37 89l-800 800-801-800q-37-39-37-89z"/></symbol><symbol viewBox="0 0 2389 2389" id="si-mfglabs-arrow_left"><path d="M234.167 1311l800-801q39-37 89-37 51 0 88 37t37 88.5-37 89.5l-498 497h1315q53 0 90 37t37 89-37 88-90 36h-1315l498 499q37 37 37 88.5t-37 88.5-88.5 37-88.5-37z"/></symbol><symbol viewBox="0 0 2389 2389" id="si-mfglabs-arrow_right"><path d="M234.167 1323q0-53 36.5-88.5t88.5-35.5h1316l-497-500q-38-37-38-89t38-87q36-38 86.5-38t90.5 38l800 800-800 800q-41 38-90 38t-87-38-38-89.5 38-87.5l497-497h-1316q-52 0-88.5-37t-36.5-89z"/></symbol><symbol viewBox="0 0 2389 2389" id="si-mfglabs-arrow_up"><path d="M357.667 1308.5q0-52.5 37-89.5l800-800 801 800q36 37 36 90 0 52-36 88-37 37-89 37t-88-37l-499-498v1315q0 52-36 88.5t-89 36.5q-52 0-88.5-36.5t-36.5-88.5V899l-498 498q-37 37-88.5 37t-88.5-37q-37-36-37-88.5z"/></symbol><symbol viewBox="0 0 2389 2389" id="si-mfglabs-at"><path d="M284.667 1336q0-403 266-683 280-296 718-296 358 0 590 202 247 214 247 568 0 277-157 478-155 200-357 200-102 0-160-64-56-64-56-133 0-3 1-8.5t1-9.5q0-3 .5-11t.5-12q-45 91-96 140-95 95-230 95-136 0-227-106-92-107-92-298 0-222 140-416 141-195 340-195 117 0 185 71 51 57 67 127l40-154h213l-145 532q-6 25-14.5 57.5t-9.5 38.5q-7 29-7 55 0 37 23 69 23 33 72 33 97 0 196-138 98-140 98-367 0-337-268-485-164-93-376-93-385 0-617 256-210 229-210 554 0 361 247 569 219 186 531 186 216 0 401-87 102-45 211-129l27-20q8-7 20-11.5t27.5-6 31.5 9 26 33.5q12 33 7 58t-17 39l-13 15q-159 135-347 207-189 71-387 71-469 0-727-318-214-262-214-623zm696 86q0 89 38 145 37 55 106 55 120 0 199-199 76-200 76-314 0-66-35-110-36-44-97-44-118 0-202 159-85 158-85 308z"/></symbol><symbol viewBox="0 0 2389 2389" id="si-mfglabs-attachment"><path d="M345.167 1935q0 141 99 242 100 100 240 100t240-100l987-992q133-133 133-326 0-191-133-324t-322.5-133-322.5 133l-751 755 112 115 751-756q88-88 211-88t211 88q87 87 87 210t-87 212l-988 992q-53 53-128 53t-128-53q-52-52-52-128t52-128l822-828q18-18 43.5-18t43.5 18q17 17 17 43 0 25-17 42l-617 622 112 114 616-622q65-65 65-156 0-94-65-157-64-65-154.5-65t-154.5 65l-823 828q-99 101-99 242z"/></symbol><symbol viewBox="0 0 2389 2389" id="si-mfglabs-black_question"><path d="M170.667 1317q0-195 76-373t204.5-306.5 306-204.5 373.5-76q195 0 373 76t306.5 204.5 204.5 306.5 76 373-76 373-204.5 306.5-306.5 204.5-373 76q-196 0-373.5-76t-306-204.5-204.5-306.5-76-373zm683-360l63 208q94-60 189-60 102 0 102 46 0 9-3.5 16.5t-12.5 15-14.5 11-20.5 11.5-19 10l-82 43q-44 24-56.5 51t-12.5 75v77h239v-32q0-15 .5-21t5-12.5 13.5-10.5q1 0 21.5-10t36-17.5 37.5-21.5 37-27q40-34 61-75t21-114q0-101-85.5-170t-216.5-69q-175 0-303 76zm98 683q0 65 42 100.5t113 35.5q69 0 111-35.5t42-100.5-42-101-111-36q-71 0-113 36t-42 101z"/></symbol><symbol viewBox="0 0 2389 2389" id="si-mfglabs-check"><path d="M252.167 1339.5q0 71.5 50 121.5l503 491q50 50 124 50 72 0 122-50l1035-1014q52-50 52-121t-52-120q-52-50-123.5-50t-123.5 50l-910 893-380-372q-52-50-123.5-50t-123.5 50q-50 50-50 121.5z"/></symbol><symbol viewBox="0 0 2389 2389" id="si-mfglabs-check_circle"><path d="M170.667 1317q0-195 76-373t204.5-306.5 306.5-204.5 373-76 373 76 306.5 204.5 204.5 306.5 76 373-76 373-204.5 306.5-306.5 204.5-373 76-373-76-306.5-204.5-204.5-306.5-76-373zm362 64q0 45 31 77l314 313q29 32 77 32 45 0 77-32l645-645q32-32 32-77t-32-76-77-31-77 31l-568 568-237-236q-31-32-76.5-32t-77.5 32q-31 31-31 76z"/></symbol><symbol viewBox="0 0 2389 2389" id="si-mfglabs-chevron_down"><path d="M357.667 941q0-51 37-88t89-37 88 37l624 622 623-622q37-37 89-37t88 37q37 37 37 88.5t-37 88.5l-800 800-801-800q-37-39-37-89z"/></symbol><symbol viewBox="0 0 2389 2389" id="si-mfglabs-chevron_left"><path d="M687.667 1311l801-801q37-37 88-37 50 0 89 37 36 37 36 89t-36 89l-624 623 624 624q36 36 36 88t-36 89q-37 36-89 36t-88-36z"/></symbol><symbol viewBox="0 0 2389 2389" id="si-mfglabs-chevron_right"><path d="M687.667 2034.5q0-51.5 37-88.5l624-623-624-624q-37-37-37-88.5t37-88.5 89-37 89 37l800 801-800 800q-39 37-89 37t-89-37q-37-37-37-88.5z"/></symbol><symbol viewBox="0 0 2389 2389" id="si-mfglabs-chevron_up"><path d="M358.167 1691.5q0-52.5 37-88.5l800-800 800 800q36 36 36 88 0 53-36 90-37 36-89 36t-89-36l-622-624-623 624q-37 36-89 36t-88-36q-37-37-37-89.5z"/></symbol><symbol viewBox="0 0 2879 2879" id="si-mfglabs-cloud"><path d="M206.167 1928q-4.5-92 20-176.5t71-159.5 117.5-133 158-92q158-60 319-26 75-165 228-265.5t340-100.5q127 0 242.5 49.5t199 133 133 199 49.5 242.5q0 19-4 55 3 0 7.5-2t6.5-2q165-64 326 7.5t225 236.5q40 114 24 221.5t-88 198-181 132.5q-75 28-148 29h-1473v-1q-175 0-322.5-99.5t-211.5-267.5q-34-87-38.5-179z"/></symbol><symbol viewBox="0 0 2881 2881" id="si-mfglabs-cloud_download"><path d="M205.25 1894q5.5-112 48.5-211t127.5-180 194.5-125q132-56 316-30 81-162 232-261t337-99q169 0 311 84.5t223 226 81 304.5v59h15q165-65 325.5 7.5t229.5 232.5q65 165-7.5 326t-232.5 230l-34 8.5-33 8.5-27.5 6-29.5 4.5-26 1.5h-1484q-173 0-316.5-99.5T246.75 2112q-47-106-41.5-218zm918-212.5q-12.5 19.5 8.5 41.5l269 449q15 16 30 16 7 0 14.5-4t11.5-8l4-4 286-449q12-24-.5-42.5t-45.5-18.5h-105v-209h-315v209h-120q-25 0-37.5 19.5z"/></symbol><symbol viewBox="0 0 2879 2879" id="si-mfglabs-cloud_upload"><path d="M206.167 1939q-4.5-92 19.5-176.5t71-159 118-132.5 158-92q158-60 319-26 75-165 228-265.5t340-100.5q127 0 242.5 49.5t199 133 133 199 49.5 242.5q0 19-4 55 3 0 7.5-2t6.5-3q164-64 325.5 8.5t225.5 236.5q40 114 24 221.5t-88 198-181 132.5q-72 26-148 28h-611v-344h139q38 0 50.5-22t-7.5-53l-350-564q-14-20-33-20-9 0-17.5 5t-12.5 10l-4 5-350 564q-20 31-6.5 53t51.5 22h137v344l-459-1q-175 0-322.5-99.5t-211.5-267.5q-34-87-38.5-179z"/></symbol><symbol viewBox="0 0 2389 2389" id="si-mfglabs-color_balance"><path d="M170.667 1317q0-195 76-372.5t205-306.5 306.5-205 372.5-76 373 76 306.5 205 204.5 306.5 76 372.5-76 372.5-204.5 306.5-306.5 205-373 76-372.5-76-306.5-205-205-306.5-76-372.5zm813 462q0 95 66.5 161.5t161.5 66.5q6 0 22 2 167-25 303.5-122t215.5-247 79-323q0-184-89-342t-242.5-253.5-336.5-104.5q124 196 124 429 0 166-63 314.5t-176 261.5q-65 68-65 157z"/></symbol><symbol viewBox="0 0 2389 2389" id="si-mfglabs-connected_object"><path d="M385.167 2097V537q0-74 52.5-127t126.5-53h1261q74 0 126.5 53t52.5 127v1560q0 74-52.5 127t-126.5 53h-1261q-74 0-126.5-53t-52.5-127zm367-602q0 121 59 223t161.5 161.5 222.5 59.5q184 0 314.5-130t130.5-314-130.5-314.5-314.5-130.5q-90 0-172 35.5t-141.5 95-94.5 142-35 172.5zm120-15q6-129 99.5-219.5t223.5-90.5q122 0 213 80.5t108 199.5q0 1-.5 3.5t-.5 4.5q0 43-31 74t-74 31q-44 0-73-29-111-111-266-111-110 0-199 57zm713-792q0 37 26.5 63t63.5 26 63-26 26-63-26-63.5-63-26.5q-38 0-64 26t-26 64z"/></symbol><symbol viewBox="0 0 2589 2589" id="si-mfglabs-coverflow"><path d="M184.917 1809q0 16 17 27.5t42 11.5 42.5-11.5 17.5-27.5v-643q0-16-17.5-27t-42.5-11-42 11-17 27v643zm254 120q0 16 17.5 27.5t42.5 11.5 42.5-11.5 17.5-27.5v-883q0-16-17.5-27t-42.5-11-42.5 11-17.5 27v883zm288 80q0 32 23.5 55.5t55.5 23.5h978q32 0 55-23.5t23-55.5V968q0-34-23-57t-55-23h-978q-33 0-56 23.5t-23 56.5v1041zm1303-80v-883q0-16 17.5-27t41.5-11q25 0 43 11t18 27v883q0 16-18 27.5t-43 11.5q-24 0-41.5-11.5t-17.5-27.5zm254-120v-643q0-16 17.5-27t42.5-11 42.5 11 17.5 27v643q0 16-17.5 27.5t-42.5 11.5-42.5-11.5-17.5-27.5z"/></symbol><symbol viewBox="0 0 2589 2589" id="si-mfglabs-coverflow_line"><path d="M184.917 1806v-640q0-16 18-26.5t43-10.5 42 10.5 17 26.5v640q0 16-17 27.5t-42 11.5-43-11.5-18-27.5zm255 120v-878q0-16 17.5-27.5t42.5-11.5q24 0 42 11.5t18 27.5v878q0 16-18 27t-42 11q-25 0-42.5-11t-17.5-27zm288 79V968q0-32 23-55t55-23h978q32 0 55.5 23t23.5 55v1037q0 32-23.5 55.5t-55.5 23.5h-978q-32 0-55-23.5t-23-55.5zm179-100h776v-837h-776v837zm1124 21v-878q0-16 17-27.5t42-11.5 43 11.5 18 27.5v878q0 16-18 27t-43 11-42-11-17-27zm255-120v-640q0-16 17-26.5t42-10.5 42 10.5 17 26.5v640q0 16-17 27.5t-42 11.5-42-11.5-17-27.5z"/></symbol><symbol viewBox="0 0 2389 2389" id="si-mfglabs-data_science"><path d="M170.667 1317q0-196 76-373.5t204.5-306 306-204.5 373.5-76q195 0 373 76t306.5 204.5 204.5 306 76 373.5q0 195-76 373t-204.5 306.5-306.5 204.5-373 76q-196 0-373.5-76t-306-204.5-204.5-306.5-76-373zm181 0q0 100 27 203 72-195 211-337-2-4-4-12.5t-2-9.5h-11q-100 0-210 28-11 66-11 128zm41-251q95-18 180-18 4 0 11 .5t11 .5q21-42 60-67t87-25q57 0 104 37 184-94 397-98 10-23 22-38-150-197-385-279-172 59-300.5 187t-186.5 300zm55 624q86 158 234.5 263.5t330.5 133.5q174-101 281-263-40-46-40-106 0-70 52-119-71-130-182-228.5t-249-152.5q-50 68-133 68-39 0-76-20-173 181-218 424zm457-597q1 3 1.5 9t.5 9q162 61 292.5 175.5t212.5 267.5q24-99 24-191 0-113-38-240h-3q-55 0-97.5-32t-59.5-82q-177 7-333 84zm161-554q171 98 292 260 18-5 37-5 63 0 109.5 43t52.5 105q186 61 331 187-65-257-275.5-425t-481.5-168q-10 0-20.5.5t-24 1.5-20.5 1zm135 1554q99-8 204-47 0-6 2-23.5t2-27.5q0-46-9-114-2-1-7-1-78 119-192 213zm303-1011q44 145 44 281 0 114-28 226 64 49 64 129 0 85-74 137 11 71 11 136 178-103 284.5-282.5t106.5-391.5v-3q-155-188-381-263-14 19-27 31z"/></symbol><symbol viewBox="0 0 2389 2389" id="si-mfglabs-data_science_black"><path d="M170.667 1317q0-196 76-373.5t204.5-306 306-204.5 373.5-76q173 0 331.5 58.5t285.5 166.5q85 64 146 154 197 258 197 581 0 195-76 373t-204.5 306.5-306.5 204.5-373 76q-196 0-373.5-76t-306-204.5-204.5-306.5-76-373zm192-128q104-28 210-28h11q0 1 2 9.5t4 12.5q-142 145-211 336 23 88 69 172 45-244 218-425 35 20 76 20 83 0 133-68 138 54 249 152.5t182 228.5q-52 49-52 119 0 59 40 107-110 163-280 262 59 9 117 9 35 0 71-3 114-95 191-213h3l2 1q10 63 10 114l-3 51q64-24 116-55 0-65-11-136 74-52 74-137 0-80-64-129 28-112 28-226 0-136-44-281 15-13 26-31 227 75 380 261 0-91-22-184-148-127-331-186-6-62-52.5-105t-109.5-43q-19 0-37 5-122-163-293-260-90 9-183 39 233 84 383 280-12 15-22 38-213 4-397 98-47-37-104-37-48 0-87 25t-60 67q-4 0-11-.5t-11-.5q-85 0-180 18-19 57-30 123zm542-96q163-80 333-84 17 50 59.5 82t97.5 32h3q37 124 37 240 0 98-24 191-80-152-211-266.5t-293-176.5q0-3-.5-9t-1.5-9z"/></symbol><symbol viewBox="0 0 3093 3093" id="si-mfglabs-discussion"><path d="M220.917 1654q0-221 140-408.5t380-296.5 523-109q213 0 406 64.5t332 173.5 221.5 259.5 82.5 316.5q0 133-52.5 257t-148.5 224.5-224 176-287.5 116.5-329.5 41q-212 0-397-61l-238 166q-133 85-187.5 49.5t-22.5-198.5l48-248q-117-108-181.5-242.5t-64.5-280.5zm1331 959q242-48 441-169t324.5-297.5 153.5-381.5q182 73 291.5 210t109.5 301q0 101-45 196t-126 171l35 175q20 114-17.5 139t-131.5-35l-167-118q-130 44-279 44-179 0-334-63t-255-172z"/></symbol><symbol viewBox="0 0 2520 2520" id="si-mfglabs-display_screen"><path d="M180 1816V739q0-74 53.5-126.5T361 560h1800q74 0 126.5 52.5T2340 739v1077q0 74-52.5 127.5T2161 1997h-520q17 161 59 186 29 17 54.5 27.5t36.5 12.5l11 2v72H722v-72q36-3 101-42 43-27 60-186H361q-74 0-127.5-53.5T180 1816z"/></symbol><symbol viewBox="0 0 2389 2389" id="si-mfglabs-download"><path d="M170.667 1861v-148q0-68 48.5-116t116.5-48 116 48 48 116v148q0 36 25.5 61t60.5 25h1090q35 0 60.5-25t25.5-61v-148q0-68 48-116t116-48 116.5 48 48.5 116v148q0 172-121.5 294t-293.5 122h-1090q-172 0-293.5-122t-121.5-294zm317-735q0-68 49-116 48-48 116-48t116 48l216 216V521q0-68 48-116t116-48 116.5 48 48.5 116v705l226-226q48-48 116-48t116 48q49 48 49 116.5t-49 116.5l-506 506q-50 50-117 50-66 0-116-50l-496-496q-49-49-49-117z"/></symbol><symbol viewBox="0 0 2389 2389" id="si-mfglabs-dribbble"><path d="M170.667 1314q0-194 75.5-371t203.5-305.5 305.5-204.5 372.5-76q196 0 374.5 76t307.5 204.5 205 305.5 76 371q0 196-76 374t-205 307-307.5 205.5-374.5 76.5-373-76.5-305-205.5-203.5-307-75.5-374zm160 41q4 141 59.5 270t153.5 232q118-180 289.5-311t377.5-203q-23-45-48-112-368 130-720 130-17 0-54-3t-58-3zm6-160h106q339 0 649-112-124-234-330-478-169 90-281.5 245.5t-143.5 344.5zm324 774q223 149 467 149 135 0 254-43-26-294-118-578-185 61-338.5 182t-264.5 290zm261-1423q186 231 319 478 242-108 442-283-111-108-253.5-166t-301.5-58q-92 0-206 29zm390 627q8 21 25.5 65t26.5 64q157-30 261-30 120 0 306 42 0-232-142-449-227 190-477 308zm106 283q79 241 118 549 145-84 244-223t134-309q-147-35-289-35-109 0-207 18z"/></symbol><symbol viewBox="0 0 2389 2389" id="si-mfglabs-dribbble_circle"><path d="M170.667 1317q0-195 76-373t204.5-306.5 306.5-204.5 373-76 373 76 306.5 204.5 204.5 306.5 76 373-76 373-204.5 306.5-306.5 204.5-373 76-373-76-306.5-204.5-204.5-306.5-76-373zm374-2q0 120 46 228.5t124 187.5 186 125.5 228 46.5q160 0 295.5-78.5t214-214 78.5-295.5q0-159-78.5-293.5t-214-213-295.5-78.5q-120 0-228 46.5t-186 125-124 186.5-46 227zm97 26q13 0 35 1.5t33 1.5q214 0 440-80 12 33 30 69-126 44-231 124t-177 190q-125-129-130-306zm3-99q19-115 88.5-210.5t172.5-149.5q123 147 201 292-187 68-397 68h-65zm199 473q140-213 368-288 57 171 72 354-69 25-155 25-148 0-285-91zm159-869q74-19 126-19 196 0 339 138-123 108-271 173-77-145-194-292zm238 383q149-68 292-188 87 130 87 274-113-26-187-26-62 0-159 18-5-12-16-39t-17-39zm65 172q61-10 127-10 86 0 177 22-23 104-83 188.5t-149 135.5q-24-193-72-336z"/></symbol><symbol viewBox="0 0 2389 2389" id="si-mfglabs-eye"><path d="M170.667 1317q0-61 31.5-138t88.5-158.5 144-159.5 189.5-139.5 235-99 271.5-37.5 271.5 37.5 235 99 189.5 139.5 144 159.5 88.5 158.5 31.5 138q0 60-31.5 137t-88.5 158.5-144 159-189.5 139-235 99-271.5 37.5-271.5-37.5-235-99-189.5-139-144-159-88.5-158.5-31.5-137zm480 0q0 130 64.5 240t175 174 240.5 64 240.5-64 175-174 64.5-240-64.5-240.5-175-175-240.5-64.5-240.5 64.5-175 175-64.5 240.5zm279 0q0 83 59 142t142 59 142-59 59-142q0-84-59-143.5t-142-59.5-142 59.5-59 143.5z"/></symbol><symbol viewBox="0 0 2389 2389" id="si-mfglabs-facebook"><path d="M746.667 1317h199v960h396v-960h266l35-331h-299V821q0-38 3.5-58.5t16-40 39.5-27 72-7.5h166V357h-265q-230 0-330 109t-100 321v199h-199v331z"/></symbol><symbol viewBox="0 0 2389 2389" id="si-mfglabs-facebook_circle"><path d="M170.667 1317q0-195 76-373t205-306.5 306.5-204.5 372.5-76 373 76 306.5 204.5 204.5 306.5 76 373-76 373-204.5 306.5-306.5 204.5-373 76-372.5-76-306.5-204.5-205-306.5-76-373zm719 0h107v518h214v-518h144l18-179h-161v-90q0-40 12-55.5t59-15.5h89V798h-143q-125 0-178.5 59t-53.5 174v107h-107v179z"/></symbol><symbol viewBox="0 0 3516 3516" id="si-mfglabs-fast_backward"><path d="M251.167 2966V1600q0-53 37-90.5t90-37.5h251q53 0 90 37.5t37 90.5v585l1111-688q62-42 107.5-15t45.5 106v586l1093-677q62-42 107.5-15t45.5 106v1391q0 79-45.5 105t-107.5-15l-1093-677v587q0 79-45.5 105t-107.5-15l-1111-688v585q0 53-37 90.5t-90 37.5h-251q-53 0-90-37.5t-37-90.5z"/></symbol><symbol viewBox="0 0 3516 3516" id="si-mfglabs-fast_forward"><path d="M251.167 2979V1588q0-79 45-106t109 15l1092 677v-586q0-79 45-106t109 15l1110 688v-585q0-53 37-90.5t90-37.5h251q53 0 90 37.5t37 90.5v1366q0 53-37 90t-90 37h-251q-53 0-90-37t-37-90v-585l-1110 688q-64 41-109 15t-45-105v-587l-1092 677q-64 41-109 15t-45-105z"/></symbol><symbol viewBox="0 0 2389 2389" id="si-mfglabs-female_sign"><path d="M612.167 939q0-118 46.5-226t124.5-186 186-124 226-46q157 0 291.5 78t213 212 78.5 292q0 203-126 360.5t-319 204.5v161h196q58 0 98.5 40t40.5 98-40.5 99-98.5 41h-196v195q0 58-40 98.5t-98 40.5-99-40.5-41-98.5v-195h-195q-58 0-98-41t-40-99 40-98 98-40h195v-161q-193-47-318-204.5t-125-360.5zm279 0q0 126 89 215t215 89 215-89 89-215-89-215-215-89-215 89-89 215z"/></symbol><symbol viewBox="0 0 2503 2503" id="si-mfglabs-file_alt"><path d="M178.75 2014V972q0-72 51.5-122.5t123.5-50.5h59q5-67 55-113.5t119-46.5h390q68 0 118 46.5t55 113.5h719q72 0 123.5 50.5t51.5 122.5v174h135q72 0 113.5 51t28.5 123l-203 694q-13 72-74.5 123t-134.5 51h-1555q-72 0-123.5-51t-51.5-123zm175-348l100-346q14-72 75.5-123t134.5-51h1205V972h-1515v694zm81 348h1474q10 0 23-10.5t15-21.5l1-8 2-8 188-646h-1474q-9 0-22.5 10.5t-14.5 21.5l-1 8-2 8z"/></symbol><symbol viewBox="0 0 2389 2389" id="si-mfglabs-file_close"><path d="M170.667 1921V872q0-72 53.5-123.5t127.5-51.5h60q6-68 57.5-114.5t122.5-46.5h400q71 0 122.5 46.5t56.5 114.5h739q75 0 128 51.5t53 123.5v1049q0 72-53 124t-128 52h-1558q-74 0-127.5-52t-53.5-124z"/></symbol><symbol viewBox="0 0 2389 2389" id="si-mfglabs-file_close_alt"><path d="M170.667 1921V872q0-72 53.5-123.5t127.5-51.5h61q5-68 56.5-114.5t122.5-46.5h401q71 0 122 46.5t56 114.5h741q74 0 126.5 51.5t52.5 123.5v1049q0 72-52.5 124t-126.5 52h-1560q-74 0-127.5-52t-53.5-124zm181 0h1560V872h-1560v1049z"/></symbol><symbol viewBox="0 0 2389 2389" id="si-mfglabs-git"><path d="M170.667 1408q0 240 72 383 77 152 239 225 164 77 335 95 154 18 332 18 77 0 193-6 97-6 206.5-26.5t188.5-53.5q90-38 166-102.5t118-149.5q70-143 70-383 0-274-157-458 31-93 31-195 0-135-58-251-119 0-212.5 42t-221.5 142q-157-37-324-37-182 0-356 40-131-103-224.5-145t-212.5-42q-59 115-59 251 0 103 31 197-157 184-157 456zm258 203q0-142 81.5-237t214.5-95q53 0 225 25 88 13 181 13t182-13q175-25 225-25 133 0 214 95t81 237q0 101-37 178-37 74-92.5 117.5t-141.5 69.5q-142 43-334 43h-194q-95 0-172-9-82-8-165-35t-137-68q-59-46-95-122.5t-36-173.5zm185 0q0 47 15 95 15 52 51.5 89.5t81.5 37.5q48 0 84-39 63-73 63-183 0-46-13-94-15-52-51.5-89.5t-82.5-37.5q-48 0-84 40-64 69-64 181zm739 0q0 47 15 95 15 52 51 89.5t81 37.5q49 0 85-39 63-73 63-183 0-43-14-94-15-52-51.5-89.5t-82.5-37.5q-48 0-82 40-65 69-65 181z"/></symbol><symbol viewBox="0 0 2389 2389" id="si-mfglabs-git_circle"><path d="M170.667 1317q0-195 76-373t204.5-306.5 306.5-204.5 373-76 373 76 306.5 204.5 204.5 306.5 76 373-76 373-204.5 306.5-306.5 204.5-373 76-373-76-306.5-204.5-204.5-306.5-76-373zm405 64q0 135 40 218 48 91 137 129 95 44 191 54 81 10 190 10 61 0 110-3 128-6 226-45 116-49 163-145 40-85 40-218 0-157-91-263 19-51 19-111 0-75-33-143-68 0-122 24t-126 81q-91-22-186-22-107 0-203 24-76-59-129-83t-121-24q-35 68-35 143 0 52 19 112-89 104-89 262zm147 116q0-82 46.5-136.5t122.5-54.5q29 0 128 15 43 7 104 7 60 0 103-7 103-15 129-15 76 0 122.5 54.5t46.5 136.5q0 57-21 101-39 79-134 107-81 24-191 24h-111q-58 0-98-4-111-12-173-60-74-55-74-168zm105 0q0 31 9 54 8 30 29 51t47 21q27 0 48-22 36-42 36-104 0-30-8-55-9-30-29.5-51t-46.5-21q-27 0-48 22-37 43-37 105zm423 0q0 30 8 54 8 30 28.5 51t46.5 21q28 0 50-22 35-40 35-104 0-30-8-55-8-30-29-51t-48-21-46 22q-37 41-37 105z"/></symbol><symbol viewBox="0 0 2389 2389" id="si-mfglabs-git_circle_alt"><path d="M170.667 1317q0-195 76-373t204.5-306.5 306.5-204.5 373-76 372.5 76 306.5 204.5 205 306.5 76 373-76 373-205 306.5-306.5 204.5-372.5 76-373-76-306.5-204.5-204.5-306.5-76-373zm376 404q0 64 38.5 108.5t96.5 58.5q53 15 120 15 251 0 251-210 0-51-27-86t-71-50q-3-1-34.5-10t-48.5-13q-99-25-99-71 0-49 55-58 86-17 137-79.5t51-150.5q0-25-12-58 48-13 55-15V961q-87 33-151 33-57-33-124-33-97 0-163 64.5t-66 160.5q0 58 33.5 115.5t81.5 74.5v3q-42 20-42 96 0 58 46 86v4q-127 43-127 156zm142-8q0-72 109-72 116 0 116 69 0 74-105 74-120 0-120-71zm15-526q0-101 85-101 40 0 62 28.5t22 71.5q0 95-84 95-85 0-85-94zm404-426q0 41 28 71t67 30 67-30.5 28-70.5q0-41-27.5-71.5t-67.5-30.5-67.5 30-27.5 72zm17 812h155q-3-45-3-101v-418q0-47 3-86h-155q4 38 4 89v423q0 51-4 93zm220-474l41-3h14q6 1 12 1v2h-2v245q0 84 16 135 21 67 76 89 33 14 75 14 70 0 121-28v-136q-35 24-77 24-59 0-59-92v-253h58q17 0 30 1t30 1V968h-118q0-92 3-114h-157q4 24 4 61v53h-67v131z"/></symbol><symbol viewBox="0 0 2389 2389" id="si-mfglabs-globe"><path d="M170.667 1317q0-196 76-373.5t204.5-306 306.5-204.5 373-76 373 76 306.5 204.5 204.5 306 76 373.5q0 195-76 373t-204.5 306.5-306.5 204.5-373 76-373-76-306.5-204.5-204.5-306.5-76-373zm181 0q0 156 59.5 298t161 245.5 241 167 294.5 68.5q-15-17-23-69-2-13-5-50.5t-7-56.5q-2-13-36-111-10-31-22-39.5t-46-10.5q-18-1-51-1.5t-56-2-53-4.5-51-11.5-42-22-34-36.5-18-54q-22-127 78-211 51-42 107-56.5t131-12.5q50 1 86 28 45 37 91 39 10 1 45 4t57.5 4.5 52-2.5 48.5-14v-13q0-4 2-15.5t2.5-19-2-15.5-10.5-12q-9-4-42-1.5t-40-8.5q-18-17 4.5-34t61.5-32 44-20q29-30-12-38-40-8-79 9-8 4-13 8-18 17-36 59-5 13-18.5 33.5t-18.5 30.5q-3-5-11-12.5t-11-11.5q-6-7-23-41-2-4-5-12.5t-5-13.5-6-12.5-8-10-11-5.5-14 1q-2 21 14 47t16 40q1 27-12 24.5t-29-26.5q-4-6-11-18.5t-11-18-12-12.5-18.5-8.5-24.5.5q-26 4-41 15-4 3-15 16t-20 16q-6 35-54 33-2 0-12.5-.5t-17-1-15.5-2-15-4.5-9-8q-5-10 4.5-43.5t17.5-43.5 21.5-13.5 39-2.5 27.5 1q4-18-10-33.5t-16-20.5q-2-11-2-16.5t7-8 13-2.5h15l13-1q37-7 61-31 1-1 7.5-6.5t9.5-7.5l10.5-7 11-5 11.5-2.5 12 1.5q4 1 12 9.5t13 9.5q7 2 32-7 26-9 39-21t27-36q26-42 8-71-12-17-31-12t-29 25q-3 7-6 22t-7.5 25.5-12.5 16.5q-10 7-32 8.5t-34-4.5q-9-4-13-12.5t-4-15 1.5-20.5 1.5-18q0-8 2-15t4.5-12 7.5-11 8.5-9.5 10-9.5 10.5-10q16-16 33.5-24.5t39.5-8.5 35 1 41.5 8 37.5 9q35 7 74-36 6-8 17.5-17.5t16-17.5 4.5-23q0-14-2.5-48.5t-3.5-58 3.5-53 15.5-48.5q-128-47-264-47-96 0-193 25l-1 5q0 38 4 43 9 11 33 15t46 5 37 13.5 9 37.5q-7 28-39.5 62.5t-65.5 58.5q-41 30-100 38-1 0-11.5 1.5t-15 1.5-16 1-18 0-16.5-2-15.5-3.5-11-6.5-8-10.5-2.5-14.5q1-18 17.5-32.5t34.5-21 44-14.5 34-11q2-25-7-33.5t-24.5-4-34 11.5-35.5 12-30-2q-5-16 11.5-27t18.5-15q9-21-18-38-59 32-107 72 21 3 35 13t13 29q0 10-4.5 18t-8.5 12-12.5 11.5-12.5 10.5q-30 28-44 51-6 9-14 43.5t-23 43.5q-23 13-31.5 1t-10.5-38v-17l-2.5-5.5-7.5-5.5q-13-4-37 2-139 199-139 444zm1010 148q-3 62 41 109 55 57 107 66 21 4 58.5-3t50.5-7q1 34-39 108-44 76-67 100-5 5-14.5 13.5t-14 13-11 12.5-8 14-1.5 15 4 19q2 5 8.5 18t6.5 16-2 19q-3 8-8 12.5t-14 8.5-13 7q-9 6-23.5 17t-26 19.5-24.5 15.5q238-78 389-281.5t151-459.5q0-26-4-74-8 11-9 24-5 35-5 43 0 7 1.5 28.5t.5 37.5-8 24q-6 7-13 8t-15-4-14.5-11-15-14-13.5-11q-18-12-29-18.5t-26.5-12-30.5-4.5-32 9q-36 18-80 18-7 0-22.5-1t-25.5-1-22.5 2.5-20.5 7.5q2 22 15.5 41t34.5 20q10 0 15-3.5t9.5-9.5 10.5-9q15-10 47-8 3 52 0 63t-13 25.5-12 25.5q-1 5-3.5 19.5t-4.5 21-7.5 16-13.5 16.5q-16 13-35 18.5t-35-4.5q-6-5-16.5-19.5t-18.5-21.5q-6-5-11-9t-10-10-7.5-9.5-8-12-8.5-12.5q-12-17-42.5-37t-39.5-30q-8 5-9.5 8.5t-2.5 17.5z"/></symbol><symbol viewBox="0 0 2389 2389" id="si-mfglabs-globe_black"><path d="M170.667 1317q0-196 76-373.5t204.5-306 306.5-204.5 373-76 373 76 306.5 204.5 204.5 306 76 373.5q0 195-76 373t-204.5 306.5-306.5 204.5-373 76-373-76-306.5-204.5-204.5-306.5-76-373zm320-444q28-5 36-1 5 3 7.5 5t3 5 .5 7v10q2 59 42 37 15-9 22.5-44t12.5-43q11-18 46-51 4-3 12.5-10.5t12.5-11.5 8.5-12 4.5-18q1-19-13.5-29t-35.5-13q-90 71-159 169zm171 756q6 36 24.5 61t40 38 56.5 20 60 8 66 2 60 2q34 2 46 10.5t22 39.5q4 11 13 34.5t14.5 41 8.5 34.5q4 20 7 58t5 51q8 50 23 67 4 0 11.5.5t11.5.5q121 0 246-40 15-9 39-28t30-23q4-2 13-6t14-8.5 8-13.5q4-6 2.5-14t-2.5-12-5.5-12-6.5-14q-4-10-4.5-19t1.5-15.5 8-14 11-12 14-13 14-13.5q27-27 67-100 41-74 40-108-14-1-51.5 6.5t-58.5 3.5q-51-9-106-66-45-47-42-110 1-13 2.5-17t9.5-9q10 11 41 31.5t42 36.5q4 5 10.5 14.5t9.5 14 9.5 11.5 14.5 13 18.5 21 17.5 20q16 10 35.5 4.5t35.5-18.5q8-7 13.5-17t7-17 4-20.5 3.5-18.5q3-11 12.5-26t12.5-25 0-64q-33 0-48 8-4 2-13 13t-21 10q-22-1-35-20t-15-41q8-6 20.5-8t21-2 26 1 22.5 1q37 0 80-18 17-8 32-9.5t30.5 4.5 26.5 12 29 19q5 4 13.5 11.5t15 13.5 14.5 11 15 4 13-8q7-8 8-24.5t-.5-38-1.5-27.5l5-42q1-6 9-24-22-227-162-406t-350-255q-15 24-18.5 59t.5 86.5 4 62.5q0 15-4.5 23.5t-16 17.5-17.5 17q-38 43-74 36-10-2-38-9t-41-8-35-1-39 8.5-34 24.5q-3 3-12 11.5t-12.5 12.5-9 11.5-8 15-2.5 16.5q0 3-1.5 18t-1 20.5 4.5 14.5 13 14q12 6 33 4.5t32-8.5q8-6 12.5-17t8-26 6.5-22q10-20 29-25t31 12q18 28-8 72-15 24-28 36t-38 20q-2 1-8.5 4t-12 4-11.5 0q-5-2-13-10.5t-12-9.5q-24-7-62 28-28 26-61 30-4 1-13 1h-15l-13 2.5-7 8 2 16.5q2 6 15.5 21t10.5 33q-6 0-22-.5t-26 0-22 4-18 11.5q-8 12-17.5 45t-4.5 42q9 16 69 16 48 4 54-32 9-4 19.5-16t15.5-16q15-12 41-15 14-2 24.5-.5t18.5 8.5 12 12 11 17.5 11 18.5q20 31 34 27 8-3 7-25 0-14-16-39.5t-14-45.5q11 0 16.5-1t12 8 9 13.5 7 15.5 6.5 15q11 29 21 42 1 1 10 9.5t12 14.5q3-4 17-27t20-37q17-41 37-59 21-19 72-19 44 0 43 20-1 8-12 19-6 6-44 21t-61 32-5 34q11 10 40.5 8t41.5 3q8 4 11 11.5t2.5 14-3 19-2.5 16.5v12q-24 14-57.5 16.5t-88.5-2.5-57-5q-43-2-91-39-22-17-39-22t-48-7q-146-5-237 70-102 85-80 212zm83-917q13 7 30.5 2t36-12 34-11.5 24.5 4 7 33.5q-8 3-34 11t-44 15-34.5 21.5-17.5 32.5q0 8 2.5 14t8 10 11.5 7 15.5 3.5 16 1.5 18 0 16-1 15-1.5 11.5-1.5q59-8 100-37 92-69 105-122 6-25-9-37.5t-37-13.5-46-5-33-15q-4-5-4-43 0-4 1-5-133 44-180 70 26 19 18 38-2 4-19 15t-12 27z"/></symbol><symbol viewBox="0 0 2389 2389" id="si-mfglabs-google_plus"><path d="M170.667 1917q0 79 35 139 61 112 214 169 130 52 279 52t273.5-40 204.5-106.5 124-152 44-178.5q0-129-69-222-53-72-142-139-30-23-66-56-70-58-70-114 0-66 92-149 31-27 76-74 40-44 65.5-111t25.5-148q0-104-45.5-196.5t-126.5-143.5h156l155-90h-504q-109 0-216 22-161 36-270 164t-109 289q0 169 122 283t296 114q18 0 80-6-3 12-17 49-8 21-8 50 0 79 74 172-76 1-174 15-225 36-346 123-70 52-111.5 132t-41.5 153zm214-54q0-69 31-124 56-97 193-139 119-37 247-37 18 0 57 3 1 0 33.5 22.5t40.5 27.5q28 19 73 56 3 3 18 17t26.5 26 17.5 20q3 4 6.5 9.5t8.5 13.5 9 13q12 19 20 39 16 50 16 89 0 71-31 125.5t-86 85.5q-104 60-246 60-156 0-286-71-68-35-108-97t-40-139zm125-1153q0-116 61-193.5t165-77.5q74 0 136 46t99 122q72 152 72 297 0 121-51.5 188t-159.5 67q-57 0-112-30-92-52-156-185-54-117-54-234zm843 89h296v296h147V799h295V651h-295V357h-147v294h-296v148z"/></symbol><symbol viewBox="0 0 2389 2389" id="si-mfglabs-google_plus_circle"><path d="M170.667 1317q0-195 76-373t204.5-306.5 306.5-204.5 373-76 373 76 306.5 204.5 204.5 306.5 76 373-76 373-204.5 306.5-306.5 204.5-373 76q-196 0-377-77h2q218 0 348-104t130-248q0-95-50-163-41-53-106-104-36-28-49-40-51-43-51-85 0-52 67-110 18-17 56-55 68-72 68-190 0-77-33.5-146.5t-93.5-106.5h114l116-66h-373q-76 0-159 17-120 26-200.5 120.5t-80.5 213.5q0 125 90.5 209t218.5 84q13 0 59-4-1 5-6.5 19.5t-6.5 16.5q-5 15-5 37 0 57 55 127-63 1-128 11-169 28-256 92-45 33-74 80.5t-37 96.5q-198-257-198-585zm353 578q0-55 23-92 39-68 143-102 84-28 182-28 23 0 43 2 4 2 54 37 2 2 14.5 11t23.5 17.5 15 12.5q3 3 13.5 13t20 19 13.5 15q1 4 17 26 12 17 15 30 12 36 12 65 0 109-87 157-77 44-182 44-113 0-210-52-50-26-80-72t-30-103zm93-853q0-86 45-143t122-57q54 0 100 34.5t73 89.5q54 114 54 220 0 88-38.5 138.5t-118.5 50.5q-42 0-83-22-70-43-114-138-40-86-40-173zm623 67h218v218h108v-218h219v-109h-219V782h-108v218h-218v109z"/></symbol><symbol viewBox="0 0 2400 2400" id="si-mfglabs-hard_drive"><path d="M171.417 1692v-409q0-53 35-93h-1l191-251q43-61 118-61h135q229-62 551-62 321 0 550 62h135q75 0 118 61l191 251h-1q35 40 35 93v409q0 59-42 101t-101 42h-1770q-60 0-102-42t-42-101zm203-123q0 32 22.5 54.5t54.5 22.5h181q31 0 53.5-22.5t22.5-54.5-22.5-54.5-53.5-22.5h-181q-32 0-54.5 22.5t-22.5 54.5zm149-483q0 46 90.5 84.5t246.5 61 340 22.5 339.5-22.5 246-61 90.5-84.5-90.5-84.5-246-61-339.5-22.5-340 22.5-246.5 61-90.5 84.5zm299 483q0 32 22.5 54.5t54.5 22.5h22q31 0 53.5-22.5t22.5-54.5-22.5-54.5-53.5-22.5h-22q-32 0-54.5 22.5t-22.5 54.5zm175-483q0-20 60-35.5t143-15.5q82 0 141.5 15.5t59.5 35.5-59 35-142 15q-84 0-143.5-15t-59.5-35z"/></symbol><symbol viewBox="0 0 2389 2389" id="si-mfglabs-hashtag"><path d="M263.667 1610q10-51 52.5-85.5t94.5-34.5h305l74-347h-278q-57 0-94-44-35-45-23-104 10-52 52-86t94-34h305l65-307q11-52 53.5-86.5t94.5-34.5q60 0 95 44t22 104l-59 280h343l65-307q11-52 53-86.5t94-34.5q60 0 95 44 36 42 23 104l-59 280h277q58 0 95 44 35 45 23 104-10 52-52 86t-94 34h-305l-75 347h278q58 0 95 44 35 45 23 105-11 52-52.5 86t-93.5 34h-307l-64 307q-11 52-53 86t-94 34q-58 0-95-43-35-45-23-104l60-280h-344l-66 307q-11 52-52.5 86t-93.5 34q-58 0-95-43-35-45-23-104l60-280h-278q-59 0-95-45-36-42-23-104zm723-120h343l74-347h-344z"/></symbol><symbol viewBox="0 0 2389 2389" id="si-mfglabs-heart"><path d="M170.667 947q0-211 150.5-360.5t362.5-149.5q142 0 261 71t186 189q67-118 186-189t261-71q212 0 362.5 149.5t150.5 360.5q0 196-130 340l-702 827q-52 62-128 62t-128-62l-702-827q-130-144-130-340z"/></symbol><symbol viewBox="0 0 2389 2389" id="si-mfglabs-heart_broken"><path d="M170.667 947q0-211 150.5-360.5t362.5-149.5q165 0 300 97l-29 511q1 25 19 42.5t43 17.5h21q25 0 37 16.5t5 40.5l-117 353q-7 24-2.5 27t18.5-17l397-546q14-19 7.5-33.5t-31.5-14.5h-158q-25 0-36-16t-1-38l167-373q118-67 254-67 212 0 362.5 149.5t150.5 360.5q0 194-130 340l-702 827q-52 62-127.5 62t-128.5-62l-701-827q-131-146-131-340z"/></symbol><symbol viewBox="0 0 2389 2389" id="si-mfglabs-home"><path d="M256.667 1336.5q-5.5-31.5 42.5-75.5l780-720q48-44 116.5-44t116.5 44l779 720q48 44 42.5 75.5t-61.5 31.5h-187v625q0 65-47 112t-112 47h-1061q-65 0-112-47t-47-112v-625h-188q-56 0-61.5-31.5z"/></symbol><symbol viewBox="0 0 2661 2661" id="si-mfglabs-inbox"><path d="M190.083 1890v-392q0-55 39-104l211-276q49-69 131-69h1520q81 0 130 69l211 276q39 49 39 104v392q0 66-47 113t-113 47h-1961q-66 0-113-47t-47-113zm258.5-403.5q14.5 25.5 56.5 25.5h432q0 66 46.5 113t112.5 47h469q66 0 112.5-47t46.5-113h432q42 0 56-25.5t-8-60.5l-113-184q-23-36-68.5-61.5t-87.5-25.5h-1209q-42 0-87 25.5t-68 61.5l-115 184q-22 35-7.5 60.5z"/></symbol><symbol viewBox="0 0 2389 2389" id="si-mfglabs-information_black"><path d="M170.667 1317q0-196 76-373.5t204.5-306 306-204.5 373.5-76q195 0 373 76t306.5 204.5 204.5 306 76 373.5q0 195-76 373t-204.5 306.5-306.5 204.5-373 76q-196 0-373.5-76t-306-204.5-204.5-306.5-76-373zm816-348q0 59 39.5 94t104.5 35q66 0 105-35t39-94-39-93.5-105-34.5q-65 0-104.5 35t-39.5 93zm9 823h271v-613h-271v613z"/></symbol><symbol viewBox="0 0 2389 2389" id="si-mfglabs-information_white"><path d="M170.667 1317q0-196 76-373.5t204.5-306 306-204.5 373.5-76q195 0 373 76t306.5 204.5 204.5 306 76 373.5q0 195-76 373t-204.5 306.5-306.5 204.5-373 76q-196 0-373.5-76t-306-204.5-204.5-306.5-76-373zm240 0q0 146 57 279.5t153.5 230 230 153.5 279.5 57 279.5-57 230-153.5 153.5-230 57-279.5-57-279.5-153.5-230-230-153.5-279.5-57-279.5 57-230 153.5-153.5 230-57 279.5zm576-348q0-58 39.5-93t104.5-35q66 0 105 34.5t39 93.5-39 94-105 35q-65 0-104.5-35t-39.5-94zm9 823v-613h271v613h-271z"/></symbol><symbol viewBox="0 0 2389 2389" id="si-mfglabs-instagram"><path d="M170.667 1917v-589h441q49 171 193 280.5t326 109.5 326-109.5 193-280.5h441v589q0 149-105.5 254.5t-254.5 105.5h-1200q-149 0-254.5-105.5t-105.5-254.5zm0-888V717q0-149 105.5-254.5t254.5-105.5h1200q149 0 254.5 105.5t105.5 254.5v312h-441q-49-171-193-281t-326-110-326 110-193 281h-441zm661 149q0 125 87.5 212.5t211.5 87.5q125 0 213-88t88-212-88-212-213-88q-124 0-211.5 87.5t-87.5 212.5z"/></symbol><symbol viewBox="0 0 2389 2389" id="si-mfglabs-instagram_circle"><path d="M170.667 1317q0-195 76-373t204.5-306.5 306.5-204.5 373-76 373 76 306.5 204.5 204.5 306.5 76 373-76 373-204.5 306.5-306.5 204.5-373 76-373-76-306.5-204.5-204.5-306.5-76-373zm551 266q0 64 44.5 109t108.5 45h512q64 0 108.5-45t44.5-109v-252h-188q-20 73-81.5 120t-139.5 47-139-47-83-120h-187v252zm0-380h187q22-73 83-119t139-46 139.5 46 81.5 119h188v-132q0-64-44.5-108.5t-108.5-44.5h-512q-64 0-108.5 44.5t-44.5 108.5v132zm281 64q0 53 37.5 90.5t90.5 37.5 90.5-37.5 37.5-90.5-37.5-90.5-90.5-37.5-90.5 37.5-37.5 90.5z"/></symbol><symbol viewBox="0 0 2389 2389" id="si-mfglabs-isight"><path d="M170.667 1317q0-195 76-373t204.5-306.5 306.5-204.5 373-76 373 76 306.5 204.5 204.5 306.5 76 373-76 372.5-204.5 306.5-306.5 205-373 76-373-76-306.5-205-204.5-306.5-76-372.5zm360 0q0 162 80.5 300.5t218.5 219 301 80.5 301-80.5 218.5-219 80.5-300.5q0-163-80.5-301t-218.5-218.5-301-80.5-301 80.5-218.5 218.5-80.5 301zm362 307q202-13 341.5-161t139.5-352q0-55-11-108 73 54 115.5 137t42.5 177q0 161-114.5 275t-275.5 114q-133 0-238-82z"/></symbol><symbol viewBox="0 0 2389 2389" id="si-mfglabs-letter"><path d="M170.667 1934l465-1235h300l426 1132 251-669h188l290 772h-197l-53-156h-276l-55 156h-425l-87-249h-438l-88 249h-301zm454-475h307l-153-442zm981 179h192l-96-278z"/></symbol><symbol viewBox="0 0 2389 2389" id="si-mfglabs-linked_in"><path d="M170.667 1917V717q0-149 105.5-254.5t254.5-105.5h1200q149 0 254.5 105.5t105.5 254.5v1200q0 149-105.5 254.5t-254.5 105.5h-1200q-149 0-254.5-105.5t-105.5-254.5zm320 0q0 16 12 28t28 12h240q16 0 28-11.5t12-28.5v-800q0-16-12-28t-28-12h-240q-16 0-28 12t-12 28v800zm0-1085q0 64 45 109.5t109 45.5q67 0 110-46 45-45 45-109t-45.5-109.5-109.5-45.5-109 45.5-45 109.5zm400 1085q0 16 19 28t38 12h228q14 0 24.5-12t10.5-28v-436q0-175 143-175 59 0 78 26t19 94v491q0 16 15 28t33 12h232q16 0 28-11.5t12-28.5v-543q0-157-90.5-240.5t-254.5-83.5q-113 0-197 57-17 10-18 15 0-45-43-45h-220q-20 0-38.5 10t-18.5 25v805z"/></symbol><symbol viewBox="0 0 2389 2389" id="si-mfglabs-linked_in_circle"><path d="M170.667 1317q0-195 76-373t204.5-306.5 306.5-204.5 373-76 373 76 306.5 204.5 204.5 306.5 76 373-76 373-204.5 306.5-306.5 204.5-373 76-373-76-306.5-204.5-204.5-306.5-76-373zm465 309q0 77 54.5 131t131.5 54h619q77 0 131.5-54t54.5-131v-619q0-77-54.5-131t-131.5-54h-619q-77 0-131.5 54t-54.5 131v619zm166 0v-412q0-8 6-14.5t14-6.5h124q8 0 14 6.5t6 14.5v412q0 8-6 14.5t-14 6.5h-124q-8 0-14-6.5t-6-14.5zm0-560q0-32 23.5-56t55.5-24q33 0 56.5 23.5t23.5 56.5-23 56q-24 24-57 24-32 0-55.5-23t-23.5-57zm206 560v-415q0-8 9.5-13t18.5-5h114q23 0 23 23 0-3 8-8 46-29 103-29 84 0 130.5 42.5t46.5 124.5v280q0 8-6 14.5t-14 6.5h-120q-9 0-16.5-6.5t-7.5-14.5v-253q0-34-10.5-48t-40.5-14q-73 0-73 90v225q0 8-6 14.5t-13 6.5h-118q-9 0-18.5-6.5t-9.5-14.5z"/></symbol><symbol viewBox="0 0 2389 2389" id="si-mfglabs-list"><path d="M170.667 1907q0 61 43 104.5t104 43.5h66q61 0 104-43.5t43-104.5-43-104-104-43h-66q-61 0-104 43t-43 104zm0-590q0 61 43 104t104 43h66q61 0 104-43t43-104-43-104.5-104-43.5h-66q-61 0-104 43.5t-43 104.5zm0-591q0 61 43 104t104 43h66q61 0 104-43t43-104-43-104.5-104-43.5h-66q-61 0-104 43.5t-43 104.5zm480 1181q0 61 43 104.5t104 43.5h1146q61 0 104-43.5t43-104.5-43-104-104-43h-1146q-61 0-104 43t-43 104zm0-590q0 61 43 104t104 43h1146q61 0 104-43t43-104-43-104.5-104-43.5h-1146q-61 0-104 43.5t-43 104.5zm0-591q0 61 43 104t104 43h1146q61 0 104-43t43-104-43-104.5-104-43.5h-1146q-61 0-104 43.5t-43 104.5z"/></symbol><symbol viewBox="0 0 2660 2660" id="si-mfglabs-mail"><path d="M190 2209V889q0-16 5-38l942 944q79 79 194 79 113 0 192-79l944-944q3 20 3 38v1320q0 74-52.5 127t-126.5 53H371q-74 0-127.5-53T190 2209zM319 717q26-8 52-8h1920q24 0 50 8l-949 948q-25 25-62 25t-62-25z"/></symbol><symbol viewBox="0 0 2389 2389" id="si-mfglabs-male_sign"><path d="M422.667 1491q0-121 47-231t127-190 190-127 231-47q166 0 309 86l211-212h-97q-47 0-80.5-33t-33.5-80 33.5-80 80.5-33h413q47 0 80 33t33 80v412q0 47-33 80.5t-80 33.5-80.5-33.5-33.5-80.5v-98l-212 212q87 142 87 308 0 162-80 299.5t-217.5 218-299.5 80.5q-161 0-298.5-80.5t-217-218-79.5-299.5zm285 0q0 128 91 220t219 92q129 0 220.5-91.5t91.5-220.5-91.5-220.5-220.5-91.5q-128 0-219 92t-91 220z"/></symbol><symbol viewBox="0 0 2389 2389" id="si-mfglabs-math"><path d="M170.667 1317q0-196 76-373.5t204.5-306 306-204.5 373.5-76q195 0 373 76t306.5 204.5 204.5 306 76 373.5q0 195-76 373t-204.5 306.5-306.5 204.5-373 76q-196 0-373.5-76t-306-204.5-204.5-306.5-76-373zm181 0q0 158 61.5 302.5t166 249 249 166.5 302.5 62 303-62 249.5-166.5 166.5-249 62-302.5-62-302.5-166.5-249-249.5-166.5-303-62-302.5 62-249 166.5-166 249-61.5 302.5zm240-63q0-32 24-55t58-23h220l167 255 93-533h313q35 0 60 23.5t25 55.5-25 55.5-60 23.5h-174l-139 802-351-527h-129q-34 0-58-22.5t-24-54.5z"/></symbol><symbol viewBox="0 0 2389 2389" id="si-mfglabs-math_black"><path d="M170.667 1317q0-196 76-373.5t204.5-306 306.5-204.5 373-76 373 76 306.5 204.5 204.5 306 76 373.5q0 195-76 373t-204.5 306.5-306.5 204.5-373 76-373-76-306.5-204.5-204.5-306.5-76-373zm421-63q0 32 24 54.5t58 22.5h129l351 527 139-802h174q35 0 60-23.5t25-55.5-25-55.5-60-23.5h-313l-92 533-168-255h-220q-34 0-58 23t-24 55z"/></symbol><symbol viewBox="0 0 2389 2389" id="si-mfglabs-math_ico"><path d="M170.667 1066q0-64 49-109.5t117-45.5h440l336 510 183-1064h627q70 0 119 46t49 111-49 111-119 46h-349l-278 1606-702-1056h-257q-68 0-117-45.5t-49-109.5z"/></symbol><symbol viewBox="0 0 2389 2389" id="si-mfglabs-measure"><path d="M249.667 1738.5q0 64.5 46 111.5l368 368q40 40 95 45t101-25l-196-197 84-84 199 200 85-85-200-199 84-84 199 198 85-83-199-200 83-83 200 198 80-80-200-198 85-85 200 199 83-84-199-200 85-84 199 200 84-85-200-199 85-84 199 200 84-85-198-200 83-83 200 199 85-85-200-199 84-84 196 195q27-45 21-99t-44-92l-368-369q-47-46-111.5-46t-111.5 47l-1208 1209q-47 47-47 111.5z"/></symbol><symbol viewBox="0 0 2729 2729" id="si-mfglabs-mfg_icon"><path d="M194.917 1224q0 90 65.5 153.5t157.5 63.5h257v767l1175-767h462q92 0 157-63.5t65-153.5q0-89-65-152.5t-157-63.5h-597l-595 388v-388h-702q-92 0-157.5 63.5t-65.5 152.5z"/></symbol><symbol viewBox="0 0 2389 2389" id="si-mfglabs-mfg_icon_circle"><path d="M170.667 1317q0-195 76-373t204.5-306.5 306.5-204.5 373-76 373 76 306.5 204.5 204.5 306.5 76 373-76 372.5-204.5 306.5-306.5 205-373 76-373-76-306.5-205-204.5-306.5-76-372.5zm334-94q0 49 35 84t84 35h138v423l630-423h246q49 0 84-35t35-84-35-84.5-84-35.5h-320l-318 215v-215h-376q-49 0-84 35.5t-35 84.5z"/></symbol><symbol viewBox="0 0 2389 2389" id="si-mfglabs-minus"><path d="M295.667 1439v-245q0-42 29.5-71t71.5-29h1596q42 0 72.5 29t29.5 71v245q0 42-30 71t-72 29h-1596q-42 0-71.5-29t-29.5-71z"/></symbol><symbol viewBox="0 0 2389 2389" id="si-mfglabs-movie"><path d="M170.667 2097V537q0-74 53.5-127t127.5-53h240v360h1080V357h240q74 0 126.5 53t52.5 127v1560q0 74-52.5 127t-126.5 53h-240v-360h-1080v360h-240q-74 0-127.5-53t-53.5-127zm151-90v120h120v-120h-120zm0-181h120v-120h-120v120zm0-299h120v-120h-120v120zm0-301h120v-120h-120v120zm0-299h120V807h-120v120zm0-301h120V506h-120v120zm270 991h1080v-600h-1080v600zm1228 390v120h120v-120h-120zm0-181h120v-120h-120v120zm0-299h120v-120h-120v120zm0-301h120v-120h-120v120zm0-299h120V807h-120v120zm0-301h120V506h-120v120z"/></symbol><symbol viewBox="0 0 2389 2389" id="si-mfglabs-mute_off"><path d="M566.167 1431v-217q0-37 26-63t63-26 63.5 26 26.5 63v217q0 182 132 311.5t318 129.5q185 0 316.5-129.5t131.5-311.5v-217q0-37 26.5-63t63.5-26 63.5 26 26.5 63v217q0 231-153.5 403.5t-381.5 207.5v87h280q37 0 64 26t27 62q0 37-26.5 63t-64.5 26h-740q-37 0-63-26t-26-63q0-36 26-62t63-26h281v-86q-151-20-275.5-106t-196-219.5-71.5-286.5zm296-10V655q0-136 97.5-232t235.5-96q137 0 234 96t97 232v766q0 136-97 232t-234 96q-138 0-235.5-96t-97.5-232z"/></symbol><symbol viewBox="0 0 2389 2389" id="si-mfglabs-mute_on"><path d="M291.667 536q0-37 26-63 26-25 64-25t64 25l1627 1604q26 25 26 62t-26 62q-25 26-63 26t-64-26l-1628-1602q-26-26-26-63zm243 895v-217q0-37 26.5-63t64.5-26q37 0 63.5 26t26.5 63v217q0 182 131.5 311.5t316.5 129.5q121 0 221-57l130 129q-116 76-256 98v87h280q37 0 63.5 26t26.5 62q0 37-26.5 63t-63.5 26h-741q-37 0-63.5-26t-26.5-63q0-36 26.5-62t63.5-26h280v-86q-151-20-275.5-106t-196-219.5-71.5-286.5zm296-10v-150l460 452q-63 26-127 26-138 0-235.5-96t-97.5-232zm0-735v-31q0-136 97.5-232t235.5-96 235.5 96 97.5 232v687zm781 769q0-4 .5-12t.5-12v-217q0-37 26-63t63-26q38 0 64.5 26t26.5 63v217q0 87-27 176z"/></symbol><symbol viewBox="0 0 2389 2389" id="si-mfglabs-octopus"><path d="M170.667 1317q0 265 129 481 129 223 350 351t481 128q261 0 483-128 222-129 349.5-350.5t127.5-481.5q0-264-128-483-129-222-350.5-349.5t-481.5-127.5q-265 0-481 129-223 129-351 350t-128 481zm160 0q0-160 63-309t172-257q109-109 257-171.5t308-62.5 309 62.5 258 171.5q108 108 170.5 257t62.5 309q0 172-70.5 328t-198 269.5-291.5 164.5v-282q0-105-86-164 211-19 308.5-107t97.5-279q0-148-91-249 18-54 18-104 0-74-34-136-67 0-120 22t-130 76q-93-21-192-21-113 0-211 23-75-55-129.5-77.5t-123.5-22.5q-33 63-33 136 0 52 17 105-91 98-91 248 0 191 97 278t311 107q-57 38-79 111-49 17-102 17-40 0-69-18-9-5-16.5-10.5t-15.5-13.5-13-12.5-13-15.5-10.5-14-12-16-10.5-14q-47-62-112-62-35 0-35 15 0 6 17 20 32 28 34 30 24 19 27 24 29 36 44 79 56 125 192 125 22 0 86-10v212q-164-51-291.5-164.5t-198-269.5-70.5-328z"/></symbol><symbol viewBox="0 0 2389 2389" id="si-mfglabs-paperplane"><path d="M170.667 1317q0-195 76-373t204.5-306.5 306.5-204.5 373-76 373 76 306.5 204.5 204.5 306.5 76 373-76 373-204.5 306.5-306.5 204.5-373 76-373-76-306.5-204.5-204.5-306.5-76-373zm181 0q0 212 104.5 391.5t283.5 284 391 104.5 391.5-104.5 284.5-284 105-391.5q0-158-62-302.5t-166.5-249-249.5-166.5-303-62-302.5 62-249 166.5-166 249-61.5 302.5zm242-410q13-14 47-1l1083 437q22 8 30.5 20t2 25-26.5 23l-193 93-135 238q-19 29-48.5 32t-54.5-22l-26-27q-3-3-4-3l-59-60-145 68q-32 14-66 1.5t-50-44.5l-352-734q-16-32-3-46zm207 134q-1 2 5 9.5t19 19.5l386 344q28 24 68.5 31.5t70.5-5.5q31-13 30.5-36t-32.5-42l-513-306q-16-9-24.5-13t-9.5-2z"/></symbol><symbol viewBox="0 0 2389 2389" id="si-mfglabs-paperplane_black"><path d="M170.667 1317q0-195 76-373t204.5-306.5 306.5-204.5 373-76 373 76 306.5 204.5 204.5 306.5 76 373-76 373-204.5 306.5-306.5 204.5-373 76-373-76-306.5-204.5-204.5-306.5-76-373zm410-410q-13 14 3 46l352 734q16 32 49.5 44.5t65.5-1.5l146-68 59 60 3 3 27 27q24 25 54 22t48-32l135-238 193-93q31-16 29.5-35.5t-33.5-32.5l-1084-437q-34-13-47 1zm206 134q3-4 34 15l515 306q31 19 31.5 42t-29.5 36q-31 13-71.5 5.5t-68.5-31.5l-386-344q-28-25-25-29z"/></symbol><symbol viewBox="0 0 2739 2739" id="si-mfglabs-paperplane_ico"><path d="M207.167 752.5q25.5-27.5 93.5.5l2175 875q43 17 59.5 42t3 50.5-53.5 46.5l-387 186-270 478q-37 58-96.5 63.5t-109.5-43.5l-53-54q-5-5-7-6l-119-121-292 137q-65 29-133 4t-99-90l-706-1475q-31-66-5.5-93.5zm414 271q-5.5 7.5 48.5 55.5l776 692q54 49 136.5 64.5t142.5-10.5q61-26 60-72.5t-64-83.5l-1030-616q-64-37-69.5-29.5z"/></symbol><symbol viewBox="0 0 2389 2389" id="si-mfglabs-pause"><path d="M441.667 2024q0 55 38 94t93 39h260q55 0 93-39t38-94V608q0-55-38-93t-93-38h-260q-55 0-93 38t-38 93v1416zm983 0q0 55 38.5 94t92.5 39h261q54 0 92.5-39t38.5-94V608q0-55-38.5-93t-92.5-38h-261q-54 0-92.5 38t-38.5 93v1416z"/></symbol><symbol viewBox="0 0 2389 2389" id="si-mfglabs-placepin"><path d="M486.667 1064q0-143 56-275 51-125 151-226 97-97 225-150 130-56 275-56 148 0 276 56 127 53 225 150 100 100 152 226 56 132 56 275t-56 275q-36 81-74 134l-468 711q-46 70-110 70t-111-70l-467-711q-46-64-74-134-56-132-56-275zm445 0q0 110 76 186 78 78 186 78 111 0 187-78 77-75 77-186 0-109-77-186-76-78-187-78-108 0-186 78-76 78-76 186z"/></symbol><symbol viewBox="0 0 2389 2389" id="si-mfglabs-play"><path d="M520.167 2011V623q0-79 45.5-105.5t107.5 15.5l1156 715q41 29 41 69 0 18-10 35.5t-20 25.5l-11 8-1156 716q-62 41-107.5 14.5t-45.5-105.5z"/></symbol><symbol viewBox="0 0 2389 2389" id="si-mfglabs-printer"><path d="M170.667 1845V797q0-72 53.5-123.5t127.5-51.5h120v-29q0-73 52.5-124t126.5-51h960q74 0 126.5 51t52.5 124v41q0-2 1.5-5.5t1.5-6.5h117q74 0 127.5 51.5t53.5 123.5v1048q0 72-53 123t-128 51h-120v20q0 73-52.5 124.5t-126.5 51.5h-960q-74 0-126.5-51.5t-52.5-124.5v-20h-120q-75 0-128-51t-53-123zm421 194q0 23 17 39.5t42 16.5h960q25 0 43-16.5t18-39.5v-694q-43-24-92-24h-899q-47 0-89 24v694zm0-1254q31 12 60 12h960q25 0 60-11V593q0-23-18-39t-43-16h-960q-25 0-42 16t-17 39v192z"/></symbol><symbol viewBox="0 0 2520 2520" id="si-mfglabs-random"><path d="M180 2077v-356h470q56 0 105-20 65 173 202 298-145 78-307 78H180zm0-940V782h470q132 0 252 51.5t206.5 138 138 206.5 51.5 252q0 120 85.5 205.5T1590 1721h173q3 0 8 .5t8 .5v-108q0-32 19-43.5t45 5.5l480 295q17 11 17 28 0 7-4 14.5t-8 10.5l-5 4-480 294q-26 17-45 6t-19-43v-110q-3 0-8 1t-8 1h-173q-132 0-252-51.5t-206.5-138-138-206T942 1430q0-121-85.5-207T650 1137H180zm1102-278q140-77 308-77h173q3 0 8 .5t8 .5V673q0-32 19-43.5t45 5.5l480 296q17 12 17 28 0 8-4 15t-8 10l-5 3-480 295q-26 17-45 6t-19-43v-109q-3 0-8 .5t-8 .5h-173q-53 0-105 21-66-175-203-299z"/></symbol><symbol viewBox="0 0 2433 2433" id="si-mfglabs-reload"><path d="M178.25 1171q10.5-17 40.5-17h141q35-161 122-301.5T691.25 611t280.5-159 328-58q195 0 372.5 76t306.5 204 205 305.5 76 372.5-76 373-205 307-306.5 205.5-372.5 76.5q-330 0-591-204-49-38-56.5-99.5t30.5-109.5q38-49 99.5-56.5t109.5 30.5q182 140 408 140 180 0 332-89t240.5-241.5 88.5-332.5q0-134-52.5-256.5t-141-211-211-141-256.5-52.5q-219 0-392.5 129.5T668.75 1154h89q30 0 40 17t-6 42l-276 454q-12 16-28 16-7 0-13.5-4t-9.5-8l-3-4-278-454q-16-25-5.5-42z"/></symbol><symbol viewBox="0 0 2564 2564" id="si-mfglabs-reorder"><path d="M322.167 2057q0 61 44 104.5t104 43.5h1625q61 0 104-43.5t43-104.5-43-104-104-43h-1625q-60 0-104 43t-44 104zm0-590q0 61 44 104t104 43h1625q61 0 104-43t43-104-43-104.5-104-43.5h-1625q-60 0-104 43.5t-44 104.5zm0-591q0 61 44 104t104 43h1625q61 0 104-43t43-104-43-104.5-104-43.5h-1625q-60 0-104 43.5t-44 104.5z"/></symbol><symbol viewBox="0 0 2389 2389" id="si-mfglabs-reorder_square"><path d="M170.667 2168v-586q0-44 31-75.5t75-31.5h585q44 0 75.5 31.5t31.5 75.5v586q0 44-31.5 75t-75.5 31h-585q-44 0-75-31t-31-75zm0-1117V465q0-44 31-75t75-31h585q44 0 75.5 31t31.5 75v586q0 44-31.5 75.5t-75.5 31.5h-585q-44 0-75-31.5t-31-75.5zm1121 1117v-586q0-44 31.5-75.5t74.5-31.5h587q43 0 74.5 31.5t31.5 75.5v586q0 44-31 75t-75 31h-587q-43 0-74.5-31t-31.5-75zm0-1117V465q0-43 31.5-74.5t74.5-31.5h587q44 0 75 31.5t31 74.5v586q0 44-31.5 75.5t-74.5 31.5h-587q-43 0-74.5-31.5t-31.5-75.5z"/></symbol><symbol viewBox="0 0 2389 2389" id="si-mfglabs-reorder_square_line"><path d="M170.667 2168v-586q0-44 31.5-75.5t74.5-31.5h587q43 0 74.5 31.5t31.5 75.5v586q0 44-31.5 75t-74.5 31h-587q-44 0-75-31t-31-75zm0-1117V465q0-43 31-74.5t75-31.5h587q43 0 74.5 31.5t31.5 74.5v586q0 44-31.5 75.5t-74.5 31.5h-587q-43 0-74.5-31.5t-31.5-75.5zm181 1043h437v-438h-437v438zm0-1117h437V539h-437v438zm940 1191v-586q0-44 31.5-75.5t74.5-31.5h587q43 0 74.5 31.5t31.5 75.5v586q0 44-31 75t-75 31h-587q-43 0-74.5-31t-31.5-75zm0-1117V465q0-43 31.5-74.5t74.5-31.5h587q44 0 75 31.5t31 74.5v586q0 44-31.5 75.5t-74.5 31.5h-587q-43 0-74.5-31.5t-31.5-75.5zm181 1043h439v-438h-439v438zm0-1117h439V539h-439v438z"/></symbol><symbol viewBox="0 0 2389 2389" id="si-mfglabs-reply"><path d="M251.667 1256q0-14 7-28t13-20l7-7 772-561q42-32 72.5-11t30.5 82v228l55 4q197 17 371.5 111t298 240 193.5 339 67 402q-124-219-330.5-358t-455.5-160q-101-9-199 3v281q0 61-30.5 82t-72.5-11l-772-562q-27-23-27-54z"/></symbol><symbol viewBox="0 0 2389 2389" id="si-mfglabs-retweet"><path d="M251.167 1485q11.5-19 43.5-19h129V762q0-65 45-110.5t110-45.5h983l-212 314h-615v546h130q32 0 43 19t-6 45l-294 480q-12 16-29 16-7 0-14-4t-11-8l-3-4-294-480q-17-26-5.5-45zm577.5 541l211-313h615v-547h-130q-32 0-43-19t6-44l294-480q11-17 28-17 7 0 14.5 4t11.5 8l3 5 294 480q17 25 5.5 44t-43.5 19h-129v704q0 65-45.5 110.5t-110.5 45.5h-981z"/></symbol><symbol viewBox="0 0 2389 2389" id="si-mfglabs-ringbell"><path d="M268.167 1132q2-44 30-85 31-47 80.5-71.5t99.5-20.5q6 0 17 2 84 8 154-14 189-61 489-361 111-111 259.5-150t296.5 0 259 150 150 259.5 0 296.5-150 259q-83 83-147 157t-104 129.5-67.5 106-39.5 84.5-17 68-4 54 3 43q2 12 2 18 4 50-21 100t-71 81q-41 27-85 29.5t-95-12.5q-1 0-21.5-5t-41.5-11-59-21-76.5-33-90.5-49-104-68-115.5-90.5-125.5-115.5q-56-56-104.5-112t-84-105-65-95-50-86.5-35.5-74-25-63-15-48-9-34.5-4-17q-15-51-13-95zm201 134q10 61 48 137.5t107.5 168.5 157.5 180q181 180 349 266t226 27q43-46 4-156.5t-144-246.5q-16 22-29 35-68 67-165 67t-165-67q-68-68-68-166t68-166q13-11 34-27-136-105-246-144.5t-156 3.5q-31 28-21 89z"/></symbol><symbol viewBox="0 0 2389 2389" id="si-mfglabs-settings"><path d="M170.667 1312q0-77 15-169 102 7 193.5-40t143.5-138q52-94 47-196t-62-187q132-114 308-176 47 85 131 135.5t184 50.5 183.5-50.5 130.5-135.5q174 62 308 176-44 81-44 174.5t48 176.5q49 85 133 132t179 47q22 101 22 200 0 66-14 153-92 2-172.5 49.5t-128.5 130.5q-51 90-48.5 188.5t54.5 181.5q-135 124-298 190-47-86-131.5-137t-184.5-51q-107 0-195.5 57.5t-131.5 152.5q-169-54-313-169 57-84 61.5-185.5t-48.5-195.5q-54-95-150.5-142.5t-201.5-35.5q-18-84-18-187zm600 0q0 149 105.5 254.5t254.5 105.5 254.5-105.5 105.5-254.5-105.5-254.5-254.5-105.5-254.5 105.5-105.5 254.5z"/></symbol><symbol viewBox="0 0 2389 2389" id="si-mfglabs-share"><path d="M170.667 1850V845q0-143 101.5-244.5t244.5-101.5h265q58 0 98 40t40 96q0 58-40 98t-98 40h-265q-30 0-51 21t-21 51v1005q0 29 21 50.5t51 21.5h1205q30 0 51-21.5t21-50.5v-123q0-56 40-96.5t96-40.5q57 0 97 40t40 97v123q0 143-101 244t-244 101h-1205q-143 0-244.5-101t-101.5-244zm499-185q93-166 248.5-270.5t343.5-121.5q86-5 150 4v211q0 46 23.5 62t54.5-8l580-424q21-16 21-40 0-11-5-21t-11-15l-5-5-580-423q-31-25-54.5-9.5t-23.5 61.5v174q-13 0-41 2-148 13-279.5 84t-224.5 180.5-146.5 255.5-50.5 303z"/></symbol><symbol viewBox="0 0 2389 2389" id="si-mfglabs-sheet"><path d="M385.167 2097V537q0-74 52.5-127t126.5-53h728q7 0 12 1h1q78 6 125 53l522 502q22 24 33 50 4 10 5 13 1 2 4.5 10t4.5 13q5 23 5 42v1056q0 74-52.5 127t-126.5 53h-1261q-74 0-126.5-53t-52.5-127zm179 0h1261v-953h-272q-149 0-254.5-105.5t-105.5-254.5V537h-629v1560zm810-1313q0 74 52.5 126.5t126.5 52.5h242l-421-398v219z"/></symbol><symbol viewBox="0 0 2389 2389" id="si-mfglabs-signin"><path d="M170.667 1298q0-68 48.5-116t116.5-48h705l-227-227q-48-48-48-116t48-117q49-48 117.5-48t116.5 48l506 508q49 48 49 116t-49 116l-496 497q-48 48-116.5 48t-116.5-48-48-116 48-117l216-215h-705q-68 0-116.5-48.5t-48.5-116.5zm1192 814q0-68 48.5-116.5t116.5-48.5h147q36 0 61.5-25t25.5-61V771q0-35-25.5-60t-61.5-25h-147q-68 0-116.5-48.5t-48.5-116.5 48.5-116 116.5-48h147q173 0 294.5 121t121.5 293v1090q0 173-122 294.5t-294 121.5h-147q-68 0-116.5-48.5t-48.5-116.5z"/></symbol><symbol viewBox="0 0 2389 2389" id="si-mfglabs-signout"><path d="M170.667 1861q0 172 121.5 294t293.5 122h148q68 0 116.5-48.5t48.5-116.5-48.5-116.5-116.5-48.5h-148q-35 0-60.5-25t-25.5-61V771q0-35 25.5-60t60.5-25h148q68 0 116.5-48.5t48.5-116.5-48.5-116-116.5-48h-148q-172 0-293.5 121t-121.5 293v1090zm488-516q0-68 48.5-116t116.5-48h705l-225-227q-49-48-49-116.5t49-116.5q48-48 116-48t116 48l507 508q48 48 48 116t-48 116l-497 497q-48 48-116 48t-117-48q-48-48-48-116t49-117l215-215h-705q-67 0-116-49t-49-116z"/></symbol><symbol viewBox="0 0 2389 2389" id="si-mfglabs-smartphone"><path d="M624.667 2071V562q0-85 59-145t143-60h736q84 0 143.5 60t59.5 145v1509q0 85-59.5 145.5t-143.5 60.5h-736q-84 0-143-60t-59-146zm480-125q0 38 26.5 64.5t63.5 26.5 64-27 27-64-27-63-64-26-63.5 26-26.5 63z"/></symbol><symbol viewBox="0 0 2506 2506" id="si-mfglabs-soundcloud"><path d="M179 1798q0 40 29 60.5t62 14.5q31-6 43.5-22t12.5-53v-290q0-31-21.5-52.5T252 1434q-30 0-51.5 21.5T179 1508v290zm230 124q0 29 20.5 43.5T482 1980q33 0 53.5-14.5T556 1922v-676q0-30-21.5-51.5T482 1173q-30 0-51.5 21.5T409 1246v676zm229 32q0 29 21 43.5t54 14.5q32 0 52.5-14.5T786 1954v-617q0-31-21.5-53t-51.5-22q-31 0-53 22t-22 53v617zm230 3q0 55 74 55t74-55V957q0-84-51-95-33-8-65 19t-32 76v1000zm234 29V898q0-52 31-62 67-16 133-16 153 0 285 72t213.5 196.5T1859 1363q61-26 130-26 140 0 239.5 99t99.5 238q0 140-99.5 239t-238.5 98h-870q-9-3-13.5-11t-4.5-14z"/></symbol><symbol viewBox="0 0 2389 2389" id="si-mfglabs-star"><path d="M244.167 1092q24-76 208-76h462l141-425v-2q38-114 89-154.5t101.5 0 88.5 154.5l1 2 140 425h462q120 0 174 35t30.5 94.5-121.5 129.5l-10 8-362 259 139 424 3 4q56 174-9 222.5t-214-58.5l-6-4-5-3-362-260-367 263-4 4q-149 107-215 58.5t-8-222.5l1-2v-3l139-423-362-259-4-4-5-4q-149-107-125-183z"/></symbol><symbol viewBox="0 0 2389 2389" id="si-mfglabs-star_empty"><path d="M179.667 1140q-25.5-64 32.5-101.5t187-37.5h495l151-456v-2q30-92 69-139t81-47q41 0 80 47t69 139l2 2 149 456h495q129 0 187 37.5t32.5 101.5-130.5 139l-10 8-389 278 150 452 2 7q39 122 22.5 186.5t-81.5 64.5q-75 0-179-77l-12-7-387-278-393 281-6 4q-107 79-180 79-65 0-81.5-65.5t22.5-187.5l2-7 150-452-389-278-4-5-6-3q-105-75-130.5-139zm338.5 53l416 297-43 134-117 354 421-301 420 301-116-354-44-134 416-297h-514l-43-132-119-359-163 491h-514z"/></symbol><symbol viewBox="0 0 2389 2389" id="si-mfglabs-star_half"><path d="M708.167 1112.5q-24-61.5 32-98t180-36.5h476l144-437 1-3q29-89 67.5-135t78.5-44v1491l-380 276-6 4q-101 72-168 74.5t-82.5-60.5 20.5-182l1-3 1-2 144-437-373-266-5-5-6-3q-101-72-125-133.5z"/></symbol><symbol viewBox="0 0 2389 2389" id="si-mfglabs-star_half_empty"><path d="M690.167 1140q-25-64 33-101.5t187-37.5h495l150-456 1-2q30-92 69-139t81-47v345l-163 491h-514l416 297-43 134-117 354 421-301v236l-393 281-6 4q-107 79-180 79-66 0-82-65.5t23-187.5l2-7 149-452-388-278-5-5-6-3q-105-75-130-139z"/></symbol><symbol viewBox="0 0 2389 2389" id="si-mfglabs-step_backward"><path d="M353.667 1967V667q0-50 35.5-85.5t85.5-35.5h239q50 0 85 35.5t35 85.5v557l1057-655q60-39 102.5-14t42.5 100v1323q0 76-42.5 101t-102.5-15l-1057-654v557q0 50-35.5 85.5t-84.5 35.5h-239q-49 0-85-36t-36-85z"/></symbol><symbol viewBox="0 0 2389 2389" id="si-mfglabs-step_forward"><path d="M297.167 1982V592q0-84 43-94.5t131 36.5l1100 695V592q0-43 36.5-80t79.5-37h232q81 0 127 35t46 82v1390q0 47-46 82t-127 35h-232q-43 0-79.5-37t-36.5-80v-579l-1100 696q-88 40-131 7.5t-43-124.5z"/></symbol><symbol viewBox="0 0 2389 2389" id="si-mfglabs-stop"><path d="M353.667 2025V610q0-54 38.5-93.5t92.5-41.5h1421q54 0 92 39t38 94v1415q0 55-38 94t-92 41h-1421q-54 0-92.5-39t-38.5-94z"/></symbol><symbol viewBox="0 0 2389 2389" id="si-mfglabs-tablet"><path d="M477.167 2097V537q0-74 52.5-127t126.5-53h1077q74 0 126.5 53t52.5 127v1560q0 74-52.5 127t-126.5 53h-1077q-74 0-126.5-53t-52.5-127zm631-139q0 38 26.5 64t63.5 26 63-26.5 26-63.5-26-63-63-26-63.5 26-26.5 63z"/></symbol><symbol viewBox="0 0 2389 2389" id="si-mfglabs-trash_can"><path d="M288.667 632q0-75 121-138t330-100 455-37q247 0 456 37t330 100 121 138q-21 165-79 466t-113.5 565-58.5 283q-13 74-81.5 138t-165 105-204.5 64.5-205 23.5-205-23.5-204-64.5-164.5-105-81.5-138q-8-43-67-328.5t-114-570-70-415.5zm259 458l77 375 178-154zm11-397q0 65 186 110.5t450 45.5q265 0 451-45.5t186-110.5q0-66-186.5-112t-450.5-46-450 46-186 112zm113 1000l43 210 101-87zm16-638l207 178 146-127q-194-12-353-51zm11 504l207 179 197-169-208-179zm101 428q146 62 304 77l-198-169zm185-676l208 179 197-169-204-183zm13 505l209 181 194-171-208-179zm286-247l207 178 189-164-201-182zm29 493q145-17 275-73l-96-84zm17-955l150 136 217-187q-162 41-367 51zm239 216l191 172 84-408zm14 503l92 80 40-196z"/></symbol><symbol viewBox="0 0 2389 2389" id="si-mfglabs-trophy"><path d="M348.167 916q1-71 37-130 41-67 117.5-98t167.5-17q-2-66-2-102 0-91 141.5-151.5t385.5-60.5q243 0 384.5 60.5t141.5 151.5q0 3-3 102 91-14 168 17t119 98q36 59 36.5 130t-34.5 141q-27 54-93.5 104t-192.5 125q-73 44-108.5 66.5t-95.5 64-99 78.5-64 74q-25 50-25 116 0 100 65.5 189.5t151.5 115.5q84 26 113.5 55t29.5 89-137.5 101.5-356.5 41.5-357-41.5-138-101.5 29.5-89 113.5-55q86-26 151.5-115.5t65.5-189.5q0-66-25-116-20-30-54-63t-63.5-56.5-84.5-60-79.5-51.5-85.5-52q-85-50-130.5-80t-91.5-70.5-65-78.5q-34-70-33-141zm185-38q-25 38 4 100 19 37 203 148-39-118-57-273-4-1-13-4t-13-4q-37-5-41-5-59 0-83 38zm330-301q0 40 97 68t235 28q137 0 233.5-28t96.5-68-96.5-68-233.5-28-234.5 28-97.5 68zm786 549q184-111 203-148 29-61 5-100-33-51-125-33-8 2-26 8-19 162-57 273z"/></symbol><symbol viewBox="0 0 2389 2389" id="si-mfglabs-twitter"><path d="M170.667 1894q0 15 15 27 25 17 89 50 244 126 512 126 334 0 607-172 130-82 231-197.5t160.5-241 89-251.5 27.5-245v-35q117-84 183-192 6-12 6-18 0-13-10-23t-23-10q-7 0-24 8-12 4-29.5 10t-30 10.5-16.5 5.5q26-29 54-78.5t28-72.5q0-13-10-22.5t-24-9.5q-8 0-16 5-114 61-213 83-121-115-289-115-172 0-293 120t-121 290q0 30 4 49-169-14-326-81t-282-180q-29-28-112-117-12-12-28-12-12 0-25 16-26 39-41 95.5t-15 110.5q0 149 93 260l-29-14q-25-11-37-11-17 0-28.5 10t-11.5 26q0 105 54 199t146 150l-12-2q-2 0-5.5-1t-5.5-1.5-3-.5q-13 0-22.5 10t-9.5 22q0 1 2 11 34 104 113 176.5t185 97.5q-174 107-384 107-14 0-45-3-42-2-46-2-13 0-22.5 10t-9.5 23z"/></symbol><symbol viewBox="0 0 2389 2389" id="si-mfglabs-twitter_circle"><path d="M170.667 1317q0-195 76-373t204.5-306.5 306.5-204.5 373-76 373 76 306.5 204.5 204.5 306.5 76 373-76 373-204.5 306.5-306.5 204.5-373 76-373-76-306.5-204.5-204.5-306.5-76-373zm389 408q0 10 9 16 13 10 55 32 149 76 313 76 206 0 372-105 80-51 142-122.5t98.5-149 54.5-155.5 17-151v-22q72-52 112-119 4-6 4-11 0-8-6.5-14.5t-14.5-6.5l-15 5q-39 16-45 17 17-20 33.5-50t16.5-44q0-7-6.5-13t-14.5-6q-4 0-10 2-74 40-131 53-74-72-178-72-105 0-179 74t-74 179q0 13 2 31-214-20-371-162-28-27-70-72-7-8-17-8-11 0-15 10-36 50-36 128 0 90 59 160-2 0-20-8-14-7-21-7-10 0-17 6t-7 16q0 66 33 123.5t89 92.5h-3q-2-1-5-1-3-1-8-1-8 0-14 5.5t-6 13.5q0 1 2 7 20 63 68.5 108t113.5 61q-106 66-235 66-3 0-29-2-7 0-16-.5t-11-.5q-7 0-13 6.5t-6 14.5z"/></symbol><symbol viewBox="0 0 2389 2389" id="si-mfglabs-upload"><path d="M170.667 1861v-148q0-68 48.5-116t116.5-48 116 48 48 116v148q0 36 25.5 61t61.5 25h1089q35 0 60.5-25t25.5-61v-148q0-68 48-116t116-48 116.5 48 48.5 116v148q0 172-121.5 294t-293.5 122h-1089q-172 0-294-121.5t-122-294.5zm318-833.5q0-68.5 48-116.5l506-506q48-48 117-48 68 0 116 48l497 496q48 49 48 117t-48 116q-49 48-117 48t-116-48l-216-216v706q0 68-48 116.5t-116 48.5q-67 0-116-48.5t-49-116.5V918l-226 226q-48 48-116 48t-116-48-48-116.5z"/></symbol><symbol viewBox="0 0 2449 2449" id="si-mfglabs-user"><path d="M174.917 2328q0-18 2-47.5t22-95 56-101.5q35-35 139-77t235-88.5 192-77.5q77-39 119.5-114t42.5-156q0-55-66-130-67-77-108.5-209.5t-41.5-305.5q0-130 37-231.5t101-162.5 145.5-92.5 174.5-31.5 173.5 31.5 145 92.5 101.5 162.5 37 231.5q0 173-41 305.5t-108 209.5q-67 76-67 130 0 80 43 155.5t120 114.5q61 31 192 77.5t234 88.5 138 77q36 36 56 97t22 104l3 43h-2099z"/></symbol><symbol viewBox="0 0 2389 2389" id="si-mfglabs-user_female"><path d="M175.667 2277q0-18 2-46.5t22-92.5 55-100q34-35 134-76.5t227-87.5 187-76q66-34 106.5-97t48.5-133h-166q-4-18-10-48.5t-20-121.5-24-177-14.5-197 1.5-199.5 30.5-166.5 67.5-116q38-39 85.5-52.5t69.5.5q2 0 3-1 0-3 5-16 26-69 85-98 36-19 127-16 4 0 14 .5t14 .5h3q51 4 115 22 55 16 102 41t95.5 71.5 81.5 108 51 154.5 12 206q-7 137-19 250t-23 176-21.5 106-16.5 58l-7 15h-166q8 71 48 133.5t106 96.5q60 30 187 76t227.5 87.5 134.5 76.5q35 36 55 95.5t22 101.5l2 42h-2039z"/></symbol><symbol viewBox="0 0 2389 2389" id="si-mfglabs-user_male"><path d="M193.667 2277q0-18 2-46t21.5-91.5 54.5-98.5q34-34 132-74.5t222.5-85.5 183.5-75q74-36 114-109.5t40-151.5q0-55-63-126-37-44-64-120-89-37-89-149 0-83 29-120-8-56-18-165-2-16-4.5-42.5t5-90.5 31.5-108q38-67 96.5-92.5t95.5-9.5q1 0 1-1 2-10 9-26.5t29-44 51-42.5q16-8 52-12.5t87.5-1 107 15.5 111 43.5 99.5 77.5 72.5 121.5 29.5 171.5q1 21 0 41-8 92-19 165 29 37 29 120 0 112-89 149-27 76-64 120-63 71-63 126 0 78 40 151.5t114 109.5q59 30 183.5 75t223 85.5 132.5 74.5q35 35 54 94t21 101l2 41h-2002z"/></symbol><symbol viewBox="0 0 2870 2870" id="si-mfglabs-users"><path d="M205 2346q40-16 122-45.5t142.5-53.5 102.5-45q75-39 117-114.5t42-156.5q0-55-64-130-38-43-67-124-92-36-92-155 0-88 28-125-10-80-18-169-9-113 54.5-220.5t172-173T970 769q88 0 173.5 39.5T1292 911t99.5 147.5T1421 1228q-10 114-18 169 29 38 29 125 0 118-92 155-31 84-66 124-66 75-66 130 0 81 42 156.5t118 114.5q61 31 190 77.5t231 88.5 136 77q36 36 56 97t22 104l2 43H205v-343zm1445-613q0-71 24-102-11-67-15-138-7-93 44.5-183t140.5-146.5 184-56.5 184 56.5 140.5 146.5 44.5 183q-4 71-15 138 24 31 24 102 0 97-75 127-23 67-54 102-18 21-26.5 32.5t-18 33-9.5 41.5q0 65 34.5 127.5t96.5 93.5q36 18 87.5 38.5T2563 2374t103 38v277h-520q0-8-.5-22t-6-53-15-74.5-29.5-77-47-68.5q-49-50-109-89.5t-163-76.5q56-69 56-159 0-20-9.5-41.5t-17.5-33-25-32.5q-28-31-55-101-75-33-75-128z"/></symbol><symbol viewBox="0 0 2931 2931" id="si-mfglabs-vector"><path d="M209.333 2415l278-278 97 97 450-450q-62-91-52-203.5t90-193.5q80-80 192.5-89.5t203.5 53.5l451-452-97-97 277-277 278 277-278 278-97-97-291 291q136-32 251-32 207 0 397 79t336 225q26 26 26 63t-26 63-63 26-63-26q-122-122-278.5-186.5t-328.5-64.5q-198 0-375 86 30 81 10.5 170t-83.5 153q-65 64-153 83.5t-169-10.5q-77 160-86 336.5t55 346 194 299.5q26 26 26 62.5t-26 62.5q-27 27-63 27-34 0-61-27-197-196-267-459.5t-4-524.5l-293 292 97 97-277 278zm167 0l111 111 109-111-109-110zm1614-1613l109 111 110-111-110-109z"/></symbol><symbol viewBox="0 0 2389 2389" id="si-mfglabs-vector_pen"><path d="M299.167 1771q-34 34 9.5 118t119 160.5 158.5 120.5 119 8l456-457q-113-78-220-185-48-48-94.5-102.5t-68.5-85.5l-23-31zm555-484.5q-16-48.5 7-70.5 23-23 47-84t35-124l8-42q11-63 61.5-127t108.5-89l813-363q59-25 69-10.5t-36 60.5l-416 414q-87 89-108 109-43-21-93.5-13t-86.5 43q-46 46-46 111t46 112q47 47 112 47t111-47q35-35 43.5-85t-12.5-93q29-30 108-109l416-416q46-46 60-36t-11 69l-363 814q-26 58-89.5 107.5t-127.5 60.5l-41 8q-63 11-124 35t-84 47-70.5 7-93.5-62l-181-179q-46-46-62-94.5z"/></symbol><symbol viewBox="0 0 2661 2661" id="si-mfglabs-video_camera"><path d="M190.083 1931v-765q0-127 89-217.5t213-90.5h1125q121 0 208 86t93 208l426-272q52-35 89.5-13t37.5 89v1184q0 67-37.5 90t-89.5-12l-426-273q-5 123-92.5 208.5t-208.5 85.5h-1125q-125 0-213.5-90.5t-88.5-217.5zm1303-723q0 37 26.5 63.5t63.5 26.5 63.5-26.5 26.5-63.5-26.5-63.5-63.5-26.5-63.5 26.5-26.5 63.5z"/></symbol><symbol viewBox="0 0 2389 2389" id="si-mfglabs-warning"><path d="M170.667 1317q0-196 76-373.5t204.5-306 306-204.5 373.5-76q195 0 372.5 76t306.5 204.5 205 306 76 373.5q0 195-76 373t-205 306.5-306.5 204.5-372.5 76q-196 0-373.5-76t-306-204.5-204.5-306.5-76-373zm793-403l55 501q5 42 35.5 72.5t73.5 34.5q49 5 87.5-26t43.5-81l55-501v-34q-8-72-64-118t-128-39-118.5 63-39.5 128zm25 843q0 62 44 106t106 44 106-44 44-106-44-106q-42-42-106-42t-106 42q-44 44-44 106z"/></symbol><symbol viewBox="0 0 2389 2389" id="si-mfglabs-warning_alt"><path d="M170.667 1317q0-196 76-373.5t204.5-306 306-204.5 373.5-76q195 0 373 76t306.5 204.5 204.5 306 76 373.5q0 195-76 373t-204.5 306.5-306.5 204.5-373 76q-196 0-373.5-76t-306-204.5-204.5-306.5-76-373zm240 0q0 196 96.5 361.5t262.5 262 361 96.5q196 0 361.5-96.5t262-262 96.5-361.5q0-195-96.5-361t-262-262.5-361.5-96.5q-146 0-279.5 57t-230 153.5-153.5 230-57 279.5zm554-403q-7-72 39-128t119-63q72-7 128 39t63 118q2 18 0 34l-55 501q-4 49-42.5 80.5t-88.5 26.5q-43-4-73.5-34.5t-35.5-72.5zm24 843q0-64 45-106 41-42 105.5-42t105.5 42q45 42 45 106t-45 106q-42 45-106 45-63 0-105-45-45-42-45-106z"/></symbol><symbol viewBox="0 0 2389 2389" id="si-mfglabs-white_question"><path d="M170.667 1317q0-196 76-373.5t204.5-306 306-204.5 373.5-76q195 0 373 76t306.5 204.5 204.5 306 76 373.5q0 195-76 372.5t-204.5 306.5-306.5 205-373 76q-196 0-373.5-76t-306-205-204.5-306.5-76-372.5zm240 0q0 146 57 279.5t153.5 230 230 153.5 279.5 57 279.5-57 230-153.5 153.5-230 57-279.5q0-196-96.5-361.5t-262.5-262-361-96.5-361 96.5-262.5 262-96.5 361.5zm443-362l63 208q92-59 190-59 101 0 101 47 0 8-3.5 15t-7.5 11.5-12.5 10.5-13.5 9-17 9l-16 8-82 44q-44 24-56.5 51t-12.5 75v75h239v-32q0-15 1-21t5-11.5 13-10.5q2-1 21.5-10t35.5-17 38-21.5 38-26.5q39-35 60-76t21-113q0-101-85.5-170.5t-216.5-69.5q-170 0-303 75zm98 685q0 65 42 100.5t113 35.5q69 0 111-35.5t42-100.5-42-101-111-36q-71 0-113 36t-42 101z"/></symbol></svg>