<?xml version="1.0" encoding="utf-8"?><svg xmlns="http://www.w3.org/2000/svg" xmlns:xlink="http://www.w3.org/1999/xlink" style="width:0;height:0;position:absolute;overflow:hidden;" version="1.1"><defs><symbol viewBox="0 0 15.789999008178711 13.979999542236328" aria-labelledby="aasi-oct-alert-title" id="si-oct-alert"><title id="aasi-oct-alert-title">icon alert</title><path d="M8.77.5C8.59.19 8.26 0 7.9 0s-.69.19-.87.5L.18 12.48c-.18.31-.18.69 0 1 .19.31.52.5.87.5h13.7c.36 0 .69-.19.86-.5.17-.31.18-.69.01-1L8.77.5zm.13 11.48h-2v-2h2v2zm0-3h-2v-4h2v4z"/></symbol><symbol viewBox="0 0 10 10" aria-labelledby="absi-oct-arrow-down-title" id="si-oct-arrow-down"><title id="absi-oct-arrow-down-title">icon arrow-down</title><path d="M7 4V0H3v4H0l5 6 5-6z"/></symbol><symbol viewBox="0 0 10 10" aria-labelledby="acsi-oct-arrow-left-title" id="si-oct-arrow-left"><title id="acsi-oct-arrow-left-title">icon arrow-left</title><path d="M6 0L0 5l6 5V7h4V3H6z"/></symbol><symbol viewBox="0 0 10 10" aria-labelledby="adsi-oct-arrow-right-title" id="si-oct-arrow-right"><title id="adsi-oct-arrow-right-title">icon arrow-right</title><path d="M10 5L4 0v3H0v4h4v3z"/></symbol><symbol viewBox="0 0 6 6" aria-labelledby="aesi-oct-arrow-small-down-title" id="si-oct-arrow-small-down"><title id="aesi-oct-arrow-small-down-title">icon arrow-small-down</title><path d="M4 2V0H2v2H0l3 4 3-4z"/></symbol><symbol viewBox="0 0 6 6" aria-labelledby="afsi-oct-arrow-small-left-title" id="si-oct-arrow-small-left"><title id="afsi-oct-arrow-small-left-title">icon arrow-small-left</title><path d="M4 2V0L0 3l4 3V4h2V2z"/></symbol><symbol viewBox="0 0 6 6" aria-labelledby="agsi-oct-arrow-small-right-title" id="si-oct-arrow-small-right"><title id="agsi-oct-arrow-small-right-title">icon arrow-small-right</title><path d="M6 3L2 0v2H0v2h2v2z"/></symbol><symbol viewBox="0 0 6 6" aria-labelledby="ahsi-oct-arrow-small-up-title" id="si-oct-arrow-small-up"><title id="ahsi-oct-arrow-small-up-title">icon arrow-small-up</title><path d="M3 0L0 4h2v2h2V4h2z"/></symbol><symbol viewBox="0 0 10 10" aria-labelledby="aisi-oct-arrow-up-title" id="si-oct-arrow-up"><title id="aisi-oct-arrow-up-title">icon arrow-up</title><path d="M5 0L0 6h3v4h4V6h3z"/></symbol><symbol viewBox="0 0 14.188944816589355 16" aria-labelledby="ajsi-oct-beaker-title" id="si-oct-beaker"><title id="ajsi-oct-beaker-title">icon beaker</title><path d="M13.889 14.59L10.509 7V3h1V2h-9v1h1v4l-3.37 7.59a1 1 0 0 0 .91 1.41h11.94c.72 0 1.2-.75.91-1.41h-.01zM3.259 10l1.25-3V3h5v4l1.25 3h-7.5zm4.25-2h1v1h-1V8zm-1-1h-1V6h1v1zm0-3h1v1h-1V4zm0-3h-1V0h1v1z"/></symbol><symbol viewBox="0 0 14.010000228881836 15" aria-labelledby="aksi-oct-bell-title" id="si-oct-bell"><title id="aksi-oct-bell-title">icon bell</title><path d="M14 11v1H0v-1l.73-.58c.77-.77.81-2.55 1.19-4.42C2.69 2.23 6 1 6 1c0-.55.45-1 1-1s1 .45 1 1c0 0 3.39 1.23 4.16 5 .38 1.88.42 3.66 1.19 4.42l.66.58H14zm-7 4c1.11 0 2-.89 2-2H5c0 1.11.89 2 2 2z"/></symbol><symbol viewBox="0 0 8.760000228881836 12" aria-labelledby="alsi-oct-bold-title" id="si-oct-bold"><title id="alsi-oct-bold-title">icon bold</title><path d="M0 0h3.83c2.48 0 4.3.75 4.3 2.95 0 1.14-.63 2.23-1.67 2.61v.06c1.33.3 2.3 1.23 2.3 2.86 0 2.39-1.97 3.52-4.61 3.52H0V0zm3.66 4.95c1.67 0 2.38-.66 2.38-1.69 0-1.17-.78-1.61-2.34-1.61H2.13v3.3h1.53zm.27 5.39c1.77 0 2.75-.64 2.75-1.98 0-1.27-.95-1.81-2.75-1.81h-1.8v3.8h1.8v-.01z"/></symbol><symbol viewBox="0 0 15 12" aria-labelledby="amsi-oct-book-title" id="si-oct-book"><title id="amsi-oct-book-title">icon book</title><path d="M2 3h4v1H2V3zm0 3h4V5H2v1zm0 2h4V7H2v1zm11-5H9v1h4V3zm0 2H9v1h4V5zm0 2H9v1h4V7zm2-6v9c0 .55-.45 1-1 1H8.5l-1 1-1-1H1c-.55 0-1-.45-1-1V1c0-.55.45-1 1-1h5.5l1 1 1-1H14c.55 0 1 .45 1 1zm-8 .5L6.5 1H1v9h6V1.5zm7-.5H8.5l-.5.5V10h6V1z"/></symbol><symbol viewBox="0 0 10 16" aria-labelledby="ansi-oct-bookmark-title" id="si-oct-bookmark"><title id="ansi-oct-bookmark-title">icon bookmark</title><path d="M9 0H1C.27 0 0 .27 0 1v15l5-3.09L10 16V1c0-.73-.27-1-1-1zm-.78 4.25L6.36 5.61l.72 2.16c.06.22-.02.28-.2.17L5 6.6 3.12 7.94c-.19.11-.25.05-.2-.17l.72-2.16-1.86-1.36c-.17-.16-.14-.23.09-.23l2.3-.03.7-2.16h.25l.7 2.16 2.3.03c.23 0 .27.08.09.23h.01z"/></symbol><symbol viewBox="0 0 14 12" aria-labelledby="aosi-oct-briefcase-title" id="si-oct-briefcase"><title id="aosi-oct-briefcase-title">icon briefcase</title><path d="M9 2V1c0-.55-.45-1-1-1H6c-.55 0-1 .45-1 1v1H1c-.55 0-1 .45-1 1v8c0 .55.45 1 1 1h12c.55 0 1-.45 1-1V3c0-.55-.45-1-1-1H9zM6 1h2v1H6V1zm7 6H8v1H6V7H1V3h1v3h10V3h1v4z"/></symbol><symbol viewBox="0 0 15.612157821655273 16.002742767333984" aria-labelledby="apsi-oct-broadcast-title" id="si-oct-broadcast"><title id="apsi-oct-broadcast-title">icon broadcast</title><path d="M9.612 9.003h-1c.55 0 1-.45 1-1v-1c0-.55-.45-1-1-1h-1c-.55 0-1 .45-1 1v1c0 .55.45 1 1 1h-1c-.55 0-1 .45-1 1v2h1v3c0 .55.45 1 1 1h1c.55 0 1-.45 1-1v-3h1v-2c0-.55-.45-1-1-1zm-2-2h1v1h-1v-1zm2 4h-1v4h-1v-4h-1v-1h3v1zm2.09-3.5c0-1.98-1.61-3.59-3.59-3.59a3.593 3.593 0 0 0-3.5 4.4v1.98c-.61-.77-1-1.73-1-2.8 0-2.48 2.02-4.5 4.5-4.5s4.5 2.02 4.5 4.5c0 1.06-.39 2.03-1 2.8v-1.98c.06-.27.09-.53.09-.81zm3.91 0c0 2.88-1.63 5.38-4 6.63v-1.05a6.553 6.553 0 0 0 3.09-5.58 6.59 6.59 0 0 0-6.59-6.59 6.59 6.59 0 0 0-6.59 6.59c0 2.36 1.23 4.42 3.09 5.58v1.05a7.497 7.497 0 0 1 3.5-14.13c4.14 0 7.5 3.36 7.5 7.5z"/></symbol><symbol viewBox="0 0 14 12" aria-labelledby="aqsi-oct-browser-title" id="si-oct-browser"><title id="aqsi-oct-browser-title">icon browser</title><path d="M5 1h1v1H5V1zM3 1h1v1H3V1zM1 1h1v1H1V1zm12 10H1V3h12v8zm0-9H7V1h6v1zm1-1c0-.55-.45-1-1-1H1C.45 0 0 .45 0 1v10c0 .55.45 1 1 1h12c.55 0 1-.45 1-1V1z"/></symbol><symbol viewBox="0 0 13.34000015258789 13" aria-labelledby="arsi-oct-bug-title" id="si-oct-bug"><title id="arsi-oct-bug-title">icon bug</title><path d="M10.17 9h3V8h-3V7l3.17-1.03-.34-.94-2.83.97V5c0-.55-.45-1-1-1V3c0-.48-.36-.88-.83-.97L9.37 1h1.8V0h-2.2l-2 2h-.59L4.37 0h-2.2v1h1.8L5 2.03c-.47.09-.83.48-.83.97v1c-.55 0-1 .45-1 1v1L.34 5.03 0 5.97 3.17 7v1h-3v1h3v1L0 11.03l.34.94L3.17 11v1c0 .55.45 1 1 1h1l1-1V5h1v7l1 1h1c.55 0 1-.45 1-1v-1l2.83.97.34-.94L10.17 10V9zm-2-5h-3V3h3v1z"/></symbol><symbol viewBox="0 0 13 14" aria-labelledby="assi-oct-calendar-title" id="si-oct-calendar"><title id="assi-oct-calendar-title">icon calendar</title><path d="M12 1h-1v1.5c0 .28-.22.5-.5.5h-2c-.28 0-.5-.22-.5-.5V1H5v1.5c0 .28-.22.5-.5.5h-2c-.28 0-.5-.22-.5-.5V1H1c-.55 0-1 .45-1 1v11c0 .55.45 1 1 1h11c.55 0 1-.45 1-1V2c0-.55-.45-1-1-1zm0 12H1V4h11v9zM4 2H3V0h1v2zm6 0H9V0h1v2zM5 6H4V5h1v1zm2 0H6V5h1v1zm2 0H8V5h1v1zm2 0h-1V5h1v1zM3 8H2V7h1v1zm2 0H4V7h1v1zm2 0H6V7h1v1zm2 0H8V7h1v1zm2 0h-1V7h1v1zm-8 2H2V9h1v1zm2 0H4V9h1v1zm2 0H6V9h1v1zm2 0H8V9h1v1zm2 0h-1V9h1v1zm-8 2H2v-1h1v1zm2 0H4v-1h1v1zm2 0H6v-1h1v1zm2 0H8v-1h1v1z"/></symbol><symbol viewBox="0 0 12 9.5" aria-labelledby="atsi-oct-check-title" id="si-oct-check"><title id="atsi-oct-check-title">icon check</title><path d="M12 1.5l-8 8-4-4L1.5 4 4 6.5 10.5 0z"/></symbol><symbol viewBox="0 0 15 12.5" aria-labelledby="ausi-oct-checklist-title" id="si-oct-checklist"><title id="ausi-oct-checklist-title">icon checklist</title><path d="M15 6.5l-6 6-3-3L7.5 8 9 9.5 13.5 5 15 6.5zM4.7 10.2l.8.8H1c-.55 0-1-.45-1-1V1c0-.55.45-1 1-1h7c.55 0 1 .45 1 1v6.5l-.8-.8c-.39-.39-1.03-.39-1.42 0L4.7 8.8a.996.996 0 0 0 0 1.41v-.01zM3 2h5V1H3v1zm0 2h5V3H3v1zm0 2h3V5H3v1zM2 7H1v1h1V7zm0-2H1v1h1V5zm0-2H1v1h1V3zm0-2H1v1h1V1z"/></symbol><symbol viewBox="0 0 10 6.5" aria-labelledby="avsi-oct-chevron-down-title" id="si-oct-chevron-down"><title id="avsi-oct-chevron-down-title">icon chevron-down</title><path d="M5 6.5l-5-5L1.5 0 5 3.75 8.5 0 10 1.5z"/></symbol><symbol viewBox="0 0 6.5 10" aria-labelledby="awsi-oct-chevron-left-title" id="si-oct-chevron-left"><title id="awsi-oct-chevron-left-title">icon chevron-left</title><path d="M5 0l1.5 1.5L2.75 5 6.5 8.5 5 10 0 5z"/></symbol><symbol viewBox="0 0 6.5 10" aria-labelledby="axsi-oct-chevron-right-title" id="si-oct-chevron-right"><title id="axsi-oct-chevron-right-title">icon chevron-right</title><path d="M6.5 5l-5 5L0 8.5 3.75 5 0 1.5 1.5 0z"/></symbol><symbol viewBox="0 0 10 6.5" aria-labelledby="aysi-oct-chevron-up-title" id="si-oct-chevron-up"><title id="aysi-oct-chevron-up-title">icon chevron-up</title><path d="M10 5L8.5 6.5 5 2.75 1.5 6.5 0 5l5-5z"/></symbol><symbol viewBox="0 0 14 14" aria-labelledby="azsi-oct-circle-slash-title" id="si-oct-circle-slash"><title id="azsi-oct-circle-slash-title">icon circle-slash</title><path d="M7 0C3.14 0 0 3.14 0 7s3.14 7 7 7 7-3.14 7-7-3.14-7-7-7zm0 1.3c1.3 0 2.5.44 3.47 1.17l-8 8A5.755 5.755 0 0 1 1.3 7c0-3.14 2.56-5.7 5.7-5.7zm0 11.41c-1.3 0-2.5-.44-3.47-1.17l8-8c.73.97 1.17 2.17 1.17 3.47 0 3.14-2.56 5.7-5.7 5.7z"/></symbol><symbol viewBox="0 0 14 14" aria-labelledby="basi-oct-circuit-board-title" id="si-oct-circuit-board"><title id="basi-oct-circuit-board-title">icon circuit-board</title><path d="M3 4c0-.55.45-1 1-1s1 .45 1 1-.45 1-1 1-1-.45-1-1zm8 0c0-.55-.45-1-1-1s-1 .45-1 1 .45 1 1 1 1-.45 1-1zm0 6c0-.55-.45-1-1-1s-1 .45-1 1 .45 1 1 1 1-.45 1-1zm2-10H5v2.17c.36.19.64.47.83.83h2.34c.42-.78 1.33-1.28 2.34-1.05.75.19 1.36.8 1.53 1.55.31 1.38-.72 2.59-2.05 2.59-.8 0-1.48-.44-1.83-1.09H5.83c-.42.8-1.33 1.28-2.34 1.03-.73-.17-1.34-.78-1.52-1.52C1.72 3.49 2.2 2.59 3 2.17V0H1C.45 0 0 .45 0 1v12c0 .55.45 1 1 1l5-5h2.17c.42-.78 1.33-1.28 2.34-1.05.75.19 1.36.8 1.53 1.55.31 1.38-.72 2.59-2.05 2.59-.8 0-1.48-.44-1.83-1.09H6.99L4 14h9c.55 0 1-.45 1-1V1c0-.55-.45-1-1-1z"/></symbol><symbol viewBox="0 0 14 15" aria-labelledby="bbsi-oct-clippy-title" id="si-oct-clippy"><title id="bbsi-oct-clippy-title">icon clippy</title><path d="M2 12h4v1H2v-1zm5-6H2v1h5V6zm2 3V7l-3 3 3 3v-2h5V9H9zM4.5 8H2v1h2.5V8zM2 11h2.5v-1H2v1zm9 1h1v2c-.02.28-.11.52-.3.7-.19.18-.42.28-.7.3H1c-.55 0-1-.45-1-1V3c0-.55.45-1 1-1h3c0-1.11.89-2 2-2 1.11 0 2 .89 2 2h3c.55 0 1 .45 1 1v5h-1V5H1v9h10v-2zM2 4h8c0-.55-.45-1-1-1H8c-.55 0-1-.45-1-1s-.45-1-1-1-1 .45-1 1-.45 1-1 1H3c-.55 0-1 .45-1 1z"/></symbol><symbol viewBox="0 0 14 14" aria-labelledby="bcsi-oct-clock-title" id="si-oct-clock"><title id="bcsi-oct-clock-title">icon clock</title><path d="M8 7h3v2H7c-.55 0-1-.45-1-1V3h2v4zM7 1.3c3.14 0 5.7 2.56 5.7 5.7s-2.56 5.7-5.7 5.7A5.71 5.71 0 0 1 1.3 7c0-3.14 2.56-5.7 5.7-5.7zM7 0C3.14 0 0 3.14 0 7s3.14 7 7 7 7-3.14 7-7-3.14-7-7-7z"/></symbol><symbol viewBox="0 0 16 14" aria-labelledby="bdsi-oct-cloud-download-title" id="si-oct-cloud-download"><title id="bdsi-oct-cloud-download-title">icon cloud-download</title><path d="M9 11h2l-3 3-3-3h2V6h2v5zm3-8c0-.44-.91-3-4.5-3C5.08 0 3 1.92 3 4 1.02 4 0 5.52 0 7c0 1.53 1 3 3 3h3V8.7H3C1.38 8.7 1.3 7.28 1.3 7c0-.17.05-1.7 1.7-1.7h1.3V4c0-1.39 1.56-2.7 3.2-2.7 2.55 0 3.13 1.55 3.2 1.8v1.2H12c.81 0 2.7.22 2.7 2.2 0 2.09-2.25 2.2-2.7 2.2h-2V10h2c2.08 0 4-1.16 4-3.5C16 4.06 14.08 3 12 3z"/></symbol><symbol viewBox="0 0 16 12" aria-labelledby="besi-oct-cloud-upload-title" id="si-oct-cloud-upload"><title id="besi-oct-cloud-upload-title">icon cloud-upload</title><path d="M7 7H5l3-3 3 3H9v5H7V7zm5-4c0-.44-.91-3-4.5-3C5.08 0 3 1.92 3 4 1.02 4 0 5.52 0 7c0 1.53 1 3 3 3h3V8.7H3C1.38 8.7 1.3 7.28 1.3 7c0-.17.05-1.7 1.7-1.7h1.3V4c0-1.39 1.56-2.7 3.2-2.7 2.55 0 3.13 1.55 3.2 1.8v1.2H12c.81 0 2.7.22 2.7 2.2 0 2.09-2.25 2.2-2.7 2.2h-2V10h2c2.08 0 4-1.16 4-3.5C16 4.06 14.08 3 12 3z"/></symbol><symbol viewBox="0 0 14 10" aria-labelledby="bfsi-oct-code-title" id="si-oct-code"><title id="bfsi-oct-code-title">icon code</title><path d="M9.5 0L8 1.5 11.5 5 8 8.5 9.5 10 14 5 9.5 0zm-5 0L0 5l4.5 5L6 8.5 2.5 5 6 1.5 4.5 0z"/></symbol><symbol viewBox="0 0 14 13.5" aria-labelledby="bgsi-oct-comment-title" id="si-oct-comment"><title id="bgsi-oct-comment-title">icon comment</title><path d="M13 0H1C.45 0 0 .45 0 1v8c0 .55.45 1 1 1h2v3.5L6.5 10H13c.55 0 1-.45 1-1V1c0-.55-.45-1-1-1zm0 9H6l-2 2V9H1V1h12v8z"/></symbol><symbol viewBox="0 0 16 14" aria-labelledby="bhsi-oct-comment-discussion-title" id="si-oct-comment-discussion"><title id="bhsi-oct-comment-discussion-title">icon comment-discussion</title><path d="M15 0H6c-.55 0-1 .45-1 1v2H1c-.55 0-1 .45-1 1v6c0 .55.45 1 1 1h1v3l3-3h4c.55 0 1-.45 1-1V8h1l3 3V8h1c.55 0 1-.45 1-1V1c0-.55-.45-1-1-1zM9 10H4.5L3 11.5V10H1V4h4v3c0 .55.45 1 1 1h3v2zm6-3h-2v1.5L11.5 7H6V1h9v6z"/></symbol><symbol viewBox="0 0 16 11" aria-labelledby="bisi-oct-credit-card-title" id="si-oct-credit-card"><title id="bisi-oct-credit-card-title">icon credit-card</title><path d="M12 7H2V6h10v1zm4-6v9c0 .55-.45 1-1 1H1c-.55 0-1-.45-1-1V1c0-.55.45-1 1-1h14c.55 0 1 .45 1 1zm-1 3H1v6h14V4zm0-3H1v1h14V1zM6 8H2v1h4V8z"/></symbol><symbol viewBox="0 0 8 2" aria-labelledby="bjsi-oct-dash-title" id="si-oct-dash"><title id="bjsi-oct-dash-title">icon dash</title><path d="M0 0v2h8V0z"/></symbol><symbol viewBox="0 0 15 15" aria-labelledby="bksi-oct-dashboard-title" id="si-oct-dashboard"><title id="bksi-oct-dashboard-title">icon dashboard</title><path d="M8 4H7V3h1v1zm4 3h-1v1h1V7zM5 4H4v1h1V4zM4 7H3v1h1V7zm11-5.5l-.5-.5L8 6c-.06-.02-1 0-1 0-.55 0-1 .45-1 1v1c0 .55.45 1 1 1h1c.55 0 1-.45 1-1v-.92l6-5.58zm-1.59 4.09c.19.61.3 1.25.3 1.91 0 3.42-2.78 6.2-6.2 6.2-3.42 0-6.21-2.78-6.21-6.2 0-3.42 2.78-6.2 6.2-6.2 1.2 0 2.31.34 3.27.94l.94-.94A7.459 7.459 0 0 0 7.51 0C3.36 0 0 3.36 0 7.5 0 11.64 3.36 15 7.5 15c4.14 0 7.5-3.36 7.5-7.5 0-1.03-.2-2.02-.59-2.91l-1 1z"/></symbol><symbol viewBox="0 0 12 14" aria-labelledby="blsi-oct-database-title" id="si-oct-database"><title id="blsi-oct-database-title">icon database</title><path d="M6 14c-3.31 0-6-.9-6-2v-2c0-.17.09-.34.21-.5.67.86 3 1.5 5.79 1.5s5.12-.64 5.79-1.5c.13.16.21.33.21.5v2c0 1.1-2.69 2-6 2zm0-4c-3.31 0-6-.9-6-2V6c0-.11.04-.21.09-.31.03-.06.07-.13.12-.19C.88 6.36 3.21 7 6 7s5.12-.64 5.79-1.5c.05.06.09.13.12.19.05.1.09.21.09.31v2c0 1.1-2.69 2-6 2zm0-4c-3.31 0-6-.9-6-2V2C0 .9 2.69 0 6 0s6 .9 6 2v2c0 1.1-2.69 2-6 2zm0-5c-2.21 0-4 .45-4 1s1.79 1 4 1 4-.45 4-1-1.79-1-4-1z"/></symbol><symbol viewBox="0 0 16 15" aria-labelledby="bmsi-oct-desktop-download-title" id="si-oct-desktop-download"><title id="bmsi-oct-desktop-download-title">icon desktop-download</title><path d="M4 6h3V0h2v6h3l-4 4-4-4zm11-4h-4v1h4v8H1V3h4V2H1c-.55 0-1 .45-1 1v9c0 .55.45 1 1 1h5.34c-.25.61-.86 1.39-2.34 2h8c-1.48-.61-2.09-1.39-2.34-2H15c.55 0 1-.45 1-1V3c0-.55-.45-1-1-1z"/></symbol><symbol viewBox="0 0 16 12" aria-labelledby="bnsi-oct-device-camera-title" id="si-oct-device-camera"><title id="bnsi-oct-device-camera-title">icon device-camera</title><path d="M15 1H7c0-.55-.45-1-1-1H2c-.55 0-1 .45-1 1-.55 0-1 .45-1 1v9c0 .55.45 1 1 1h14c.55 0 1-.45 1-1V2c0-.55-.45-1-1-1zM6 3H2V2h4v1zm4.5 7C8.56 10 7 8.44 7 6.5S8.56 3 10.5 3 14 4.56 14 6.5 12.44 10 10.5 10zM13 6.5C13 7.88 11.87 9 10.5 9S8 7.87 8 6.5 9.13 4 10.5 4 13 5.13 13 6.5z"/></symbol><symbol viewBox="0 0 16 11.279999732971191" aria-labelledby="bosi-oct-device-camera-video-title" id="si-oct-device-camera-video"><title id="bosi-oct-device-camera-video-title">icon device-camera-video</title><path d="M15.2.23L10 3.86V1.14c0-.55-.45-1-1-1H1c-.55 0-1 .45-1 1v9c0 .55.45 1 1 1h8c.55 0 1-.45 1-1V7.42l5.2 3.63c.33.23.8 0 .8-.41v-10c0-.41-.47-.64-.8-.41z"/></symbol><symbol viewBox="0 0 16 13" aria-labelledby="bpsi-oct-device-desktop-title" id="si-oct-device-desktop"><title id="bpsi-oct-device-desktop-title">icon device-desktop</title><path d="M15 0H1C.45 0 0 .45 0 1v9c0 .55.45 1 1 1h5.34c-.25.61-.86 1.39-2.34 2h8c-1.48-.61-2.09-1.39-2.34-2H15c.55 0 1-.45 1-1V1c0-.55-.45-1-1-1zm0 9H1V1h14v8z"/></symbol><symbol viewBox="0 0 10 16" aria-labelledby="bqsi-oct-device-mobile-title" id="si-oct-device-mobile"><title id="bqsi-oct-device-mobile-title">icon device-mobile</title><path d="M9 0H1C.45 0 0 .45 0 1v14c0 .55.45 1 1 1h8c.55 0 1-.45 1-1V1c0-.55-.45-1-1-1zM5 15.3c-.72 0-1.3-.58-1.3-1.3 0-.72.58-1.3 1.3-1.3.72 0 1.3.58 1.3 1.3 0 .72-.58 1.3-1.3 1.3zM9 12H1V2h8v10z"/></symbol><symbol viewBox="0 0 13 16" aria-labelledby="brsi-oct-diff-title" id="si-oct-diff"><title id="brsi-oct-diff-title">icon diff</title><path d="M6 7h2v1H6v2H5V8H3V7h2V5h1v2zm-3 6h5v-1H3v1zM7.5 2L11 5.5V15c0 .55-.45 1-1 1H1c-.55 0-1-.45-1-1V3c0-.55.45-1 1-1h6.5zM10 6L7 3H1v12h9V6zM8.5 0H3v1h5l4 4v8h1V4.5L8.5 0z"/></symbol><symbol viewBox="0 0 14 14" aria-labelledby="bssi-oct-diff-added-title" id="si-oct-diff-added"><title id="bssi-oct-diff-added-title">icon diff-added</title><path d="M13 0H1C.45 0 0 .45 0 1v12c0 .55.45 1 1 1h12c.55 0 1-.45 1-1V1c0-.55-.45-1-1-1zm0 13H1V1h12v12zM6 8H3V6h3V3h2v3h3v2H8v3H6V8z"/></symbol><symbol viewBox="0 0 14 14" aria-labelledby="btsi-oct-diff-ignored-title" id="si-oct-diff-ignored"><title id="btsi-oct-diff-ignored-title">icon diff-ignored</title><path d="M13 0H1C.45 0 0 .45 0 1v12c0 .55.45 1 1 1h12c.55 0 1-.45 1-1V1c0-.55-.45-1-1-1zm0 13H1V1h12v12zm-8.5-2H3V9.5L9.5 3H11v1.5L4.5 11z"/></symbol><symbol viewBox="0 0 14 14" aria-labelledby="busi-oct-diff-modified-title" id="si-oct-diff-modified"><title id="busi-oct-diff-modified-title">icon diff-modified</title><path d="M13 0H1C.45 0 0 .45 0 1v12c0 .55.45 1 1 1h12c.55 0 1-.45 1-1V1c0-.55-.45-1-1-1zm0 13H1V1h12v12zM4 7c0-1.66 1.34-3 3-3s3 1.34 3 3-1.34 3-3 3-3-1.34-3-3z"/></symbol><symbol viewBox="0 0 14 14" aria-labelledby="bvsi-oct-diff-removed-title" id="si-oct-diff-removed"><title id="bvsi-oct-diff-removed-title">icon diff-removed</title><path d="M13 0H1C.45 0 0 .45 0 1v12c0 .55.45 1 1 1h12c.55 0 1-.45 1-1V1c0-.55-.45-1-1-1zm0 13H1V1h12v12zm-2-5H3V6h8v2z"/></symbol><symbol viewBox="0 0 14 14" aria-labelledby="bwsi-oct-diff-renamed-title" id="si-oct-diff-renamed"><title id="bwsi-oct-diff-renamed-title">icon diff-renamed</title><path d="M6 8H3V6h3V3l5 4-5 4V8zm8-7v12c0 .55-.45 1-1 1H1c-.55 0-1-.45-1-1V1c0-.55.45-1 1-1h12c.55 0 1 .45 1 1zm-1 0H1v12h12V1z"/></symbol><symbol viewBox="0 0 12 6" aria-labelledby="bxsi-oct-ellipses-title" id="si-oct-ellipses"><title id="bxsi-oct-ellipses-title">icon ellipses</title><path d="M11 0H1C.45 0 0 .45 0 1v4c0 .55.45 1 1 1h10c.55 0 1-.45 1-1V1c0-.55-.45-1-1-1zM4 4H2V2h2v2zm3 0H5V2h2v2zm3 0H8V2h2v2z"/></symbol><symbol viewBox="0 0 12 6" aria-labelledby="bysi-oct-ellipsis-title" id="si-oct-ellipsis"><title id="bysi-oct-ellipsis-title">icon ellipsis</title><path d="M11 0H1C.45 0 0 .45 0 1v4c0 .55.45 1 1 1h10c.55 0 1-.45 1-1V1c0-.55-.45-1-1-1zM4 4H2V2h2v2zm3 0H5V2h2v2zm3 0H8V2h2v2z"/></symbol><symbol viewBox="0 0 16 12" aria-labelledby="bzsi-oct-eye-title" id="si-oct-eye"><title id="bzsi-oct-eye-title">icon eye</title><path d="M8.06 0C3 0 0 6 0 6s3 6 8.06 6C13 12 16 6 16 6s-3-6-7.94-6zM8 10c-2.2 0-4-1.78-4-4 0-2.2 1.8-4 4-4 2.22 0 4 1.8 4 4 0 2.22-1.78 4-4 4zm2-4c0 1.11-.89 2-2 2-1.11 0-2-.89-2-2 0-1.11.89-2 2-2 1.11 0 2 .89 2 2z"/></symbol><symbol viewBox="0 0 12 14" aria-labelledby="casi-oct-file-title" id="si-oct-file"><title id="casi-oct-file-title">icon file</title><path d="M6 4H2V3h4v1zM2 7h7V6H2v1zm0 2h7V8H2v1zm0 2h7v-1H2v1zm10-7.5V13c0 .55-.45 1-1 1H1c-.55 0-1-.45-1-1V1c0-.55.45-1 1-1h7.5L12 3.5zM11 4L8 1H1v12h10V4z"/></symbol><symbol viewBox="0 0 12 14" aria-labelledby="cbsi-oct-file-binary-title" id="si-oct-file-binary"><title id="cbsi-oct-file-binary-title">icon file-binary</title><path d="M4 11h1v1H2v-1h1V9H2V8h2v3zm8-7.5V13c0 .55-.45 1-1 1H1c-.55 0-1-.45-1-1V1c0-.55.45-1 1-1h7.5L12 3.5zM11 4L8 1H1v12h10V4zM8 3H6v1h1v2H6v1h3V6H8V3zM2 3h3v4H2V3zm1 3h1V4H3v2zm3 2h3v4H6V8zm1 3h1V9H7v2z"/></symbol><symbol viewBox="0 0 12 14" aria-labelledby="ccsi-oct-file-code-title" id="si-oct-file-code"><title id="ccsi-oct-file-code-title">icon file-code</title><path d="M8.5 0H1C.45 0 0 .45 0 1v12c0 .55.45 1 1 1h10c.55 0 1-.45 1-1V3.5L8.5 0zM11 13H1V1h7l3 3v9zM5 5.98L3.5 7.5 5 9l-.5 1L2 7.5 4.5 5l.5.98zM7.5 5L10 7.5 7.5 10 7 9.02 8.5 7.5 7 6l.5-1z"/></symbol><symbol viewBox="0 0 14 12" aria-labelledby="cdsi-oct-file-directory-title" id="si-oct-file-directory"><title id="cdsi-oct-file-directory-title">icon file-directory</title><path d="M13 2H7V1c0-.66-.31-1-1-1H1C.45 0 0 .45 0 1v10c0 .55.45 1 1 1h12c.55 0 1-.45 1-1V3c0-.55-.45-1-1-1zM6 2H1V1h5v1z"/></symbol><symbol viewBox="0 0 12 14" aria-labelledby="cesi-oct-file-media-title" id="si-oct-file-media"><title id="cesi-oct-file-media-title">icon file-media</title><path d="M6 4h2v2H6V4zm6-.5V13c0 .55-.45 1-1 1H1c-.55 0-1-.45-1-1V1c0-.55.45-1 1-1h7.5L12 3.5zM11 4L8 1H1v11l3-5 2 4 2-2 3 3V4z"/></symbol><symbol viewBox="0 0 12 14" aria-labelledby="cfsi-oct-file-pdf-title" id="si-oct-file-pdf"><title id="cfsi-oct-file-pdf-title">icon file-pdf</title><path d="M8.5 0H1a1 1 0 0 0-1 1v12a1 1 0 0 0 1 1h10a1 1 0 0 0 1-1V3.5L8.5 0zM1 1h4a.68.68 0 0 0-.31.2 1.08 1.08 0 0 0-.23.47 4.22 4.22 0 0 0-.09 1.47c.06.609.173 1.211.34 1.8A21.78 21.78 0 0 1 3.6 7.6c-.5 1-.8 1.66-.91 1.84a7.16 7.16 0 0 0-.69.3 4.19 4.19 0 0 0-1 .64V1zm4.42 4.8a5.65 5.65 0 0 0 1.17 2.09c.275.237.595.417.94.53-.64.09-1.23.2-1.81.33a12.22 12.22 0 0 0-1.81.59c-.587.243.22-.44.61-1.25.365-.74.67-1.51.91-2.3l-.01.01zM11 13H1.5a.74.74 0 0 1-.17 0 2.12 2.12 0 0 0 .73-.44 10.14 10.14 0 0 0 1.78-2.38c.31-.13.58-.23.81-.31l.42-.14c.45-.13.94-.23 1.44-.33s1-.16 1.48-.2a8.65 8.65 0 0 0 1.39.53c.403.11.814.188 1.23.23h.38V13H11zm0-4.86a3.74 3.74 0 0 0-.64-.28 4.22 4.22 0 0 0-.75-.11c-.411.003-.822.03-1.23.08a3 3 0 0 1-1-.64 6.07 6.07 0 0 1-1.29-2.33c.111-.661.178-1.33.2-2 .02-.25.02-.5 0-.75a1.05 1.05 0 0 0-.2-.88.82.82 0 0 0-.61-.23H8l3 3v4.14z"/></symbol><symbol viewBox="0 0 14 12" aria-labelledby="cgsi-oct-file-submodule-title" id="si-oct-file-submodule"><title id="cgsi-oct-file-submodule-title">icon file-submodule</title><path d="M10 5H4v7h9c.55 0 1-.45 1-1V6h-4V5zM9 7H5V6h4v1zm4-5H7V1c0-.66-.31-1-1-1H1C.45 0 0 .45 0 1v10c0 .55.45 1 1 1h2V5c0-.55.45-1 1-1h6c.55 0 1 .45 1 1h3V3c0-.55-.45-1-1-1zM6 2H1V1h5v1z"/></symbol><symbol viewBox="0 0 14 12" aria-labelledby="chsi-oct-file-symlink-directory-title" id="si-oct-file-symlink-directory"><title id="chsi-oct-file-symlink-directory-title">icon file-symlink-directory</title><path d="M13 2H7V1c0-.66-.31-1-1-1H1C.45 0 0 .45 0 1v10c0 .55.45 1 1 1h12c.55 0 1-.45 1-1V3c0-.55-.45-1-1-1zM1 1h5v1H1V1zm6 9V8c-.98-.02-1.84.22-2.55.7C3.74 9.18 3.26 9.95 3 11c.02-1.64.39-2.88 1.13-3.73C4.86 6.43 5.82 6 7.01 6V4l4 3-4 3H7z"/></symbol><symbol viewBox="0 0 12 14" aria-labelledby="cisi-oct-file-symlink-file-title" id="si-oct-file-symlink-file"><title id="cisi-oct-file-symlink-file-title">icon file-symlink-file</title><path d="M8.5 0H1C.45 0 0 .45 0 1v12c0 .55.45 1 1 1h10c.55 0 1-.45 1-1V3.5L8.5 0zM11 13H1V1h7l3 3v9zM6 3.5l4 3-4 3v-2c-.98-.02-1.84.22-2.55.7-.71.48-1.19 1.25-1.45 2.3.02-1.64.39-2.88 1.13-3.73.73-.84 1.69-1.27 2.88-1.27v-2H6z"/></symbol><symbol viewBox="0 0 12 14" aria-labelledby="cjsi-oct-file-text-title" id="si-oct-file-text"><title id="cjsi-oct-file-text-title">icon file-text</title><path d="M6 4H2V3h4v1zM2 7h7V6H2v1zm0 2h7V8H2v1zm0 2h7v-1H2v1zm10-7.5V13c0 .55-.45 1-1 1H1c-.55 0-1-.45-1-1V1c0-.55.45-1 1-1h7.5L12 3.5zM11 4L8 1H1v12h10V4z"/></symbol><symbol viewBox="0 0 12 14" aria-labelledby="cksi-oct-file-zip-title" id="si-oct-file-zip"><title id="cksi-oct-file-zip-title">icon file-zip</title><path d="M8.5 0H1a1 1 0 0 0-1 1v12a1 1 0 0 0 1 1h10a1 1 0 0 0 1-1V3.5L8.5 0zM11 13H1V1h3v1h1V1h3l3 3v9zM5 3V2h1v1H5zM4 3h1v1H4V3zm1 2V4h1v1H5zM4 5h1v1H4V5zm1 2V6h1v1H5zM4 8.28A2 2 0 0 0 3 10v1h4v-1a2 2 0 0 0-2-2V7H4v1.28zM6 9v1H4V9h2z"/></symbol><symbol viewBox="0 0 12.789999961853027 15.380000114440918" aria-labelledby="clsi-oct-flame-title" id="si-oct-flame"><title id="clsi-oct-flame-title">icon flame</title><path d="M5.85.01c.81 2.17.41 3.38-.52 4.31-.98 1.05-2.55 1.83-3.63 3.36-1.45 2.05-1.7 6.53 3.53 7.7-2.2-1.16-2.67-4.52-.3-6.61-.61 2.03.53 3.33 1.94 2.86 1.39-.47 2.3.53 2.27 1.67-.02.78-.31 1.44-1.13 1.81 3.42-.59 4.78-3.42 4.78-5.56 0-2.84-2.53-3.22-1.25-5.61-1.52.13-2.03 1.13-1.89 2.75.09 1.08-1.02 1.8-1.86 1.33-.67-.41-.66-1.19-.06-1.78C8.98 5.01 9.48 2.15 5.85.02L5.83 0l.02.01z"/></symbol><symbol viewBox="0 0 14 15" aria-labelledby="cmsi-oct-fold-title" id="si-oct-fold"><title id="cmsi-oct-fold-title">icon fold</title><path d="M7 9l3 3H8v3H6v-3H4l3-3zm3-6H8V0H6v3H4l3 3 3-3zm4 2c0-.55-.45-1-1-1h-2.5l-1 1h3l-2 2h-7l-2-2h3l-1-1H1c-.55 0-1 .45-1 1l2.5 2.5L0 10c0 .55.45 1 1 1h2.5l1-1h-3l2-2h7l2 2h-3l1 1H13c.55 0 1-.45 1-1l-2.5-2.5L14 5z"/></symbol><symbol viewBox="0 0 14 13.970000267028809" aria-labelledby="cnsi-oct-gear-title" id="si-oct-gear"><title id="cnsi-oct-gear-title">icon gear</title><path d="M14 7.76v-1.6l-1.94-.64-.45-1.09.88-1.84-1.13-1.13-1.81.91-1.09-.45L7.77 0h-1.6l-.63 1.94-1.11.45-1.84-.88-1.13 1.13.91 1.81-.45 1.09L0 6.22v1.59l1.94.64.45 1.09-.88 1.84 1.13 1.13 1.81-.91 1.09.45.69 1.92h1.59l.63-1.94 1.11-.45 1.84.88 1.13-1.13-.92-1.81.47-1.09L14 7.74v.02zM7 9.99c-1.66 0-3-1.34-3-3s1.34-3 3-3 3 1.34 3 3-1.34 3-3 3z"/></symbol><symbol viewBox="0 0 13 13" aria-labelledby="cosi-oct-gift-title" id="si-oct-gift"><title id="cosi-oct-gift-title">icon gift</title><path d="M12.02 3h-1.38c.19-.33.33-.67.36-.91.06-.67-.11-1.22-.52-1.61C10.12.1 9.67 0 9.12 0h-.11C8.48.02 7.9.25 7.48.58c-.42.33-.73.72-.97 1.2-.23-.48-.55-.88-.97-1.2C5.12.26 4.54 0 4.01 0h-.03c-.56 0-1.06.09-1.44.48-.41.39-.58.94-.52 1.61.03.23.17.58.36.91H1c-.55 0-1 .45-1 1v3h1v5c0 .55.45 1 1 1h9c.55 0 1-.45 1-1V7h1V4c0-.55-.45-1-1-1h.02zm-4.78-.88c.17-.36.42-.67.75-.92.3-.23.72-.39 1.05-.41h.09c.45 0 .66.11.8.25s.33.39.3.95c-.05.19-.25.61-.5 1h-2.9l.41-.88v.01zM3.11 1.04c.13-.13.31-.25.91-.25.31 0 .72.17 1.03.41.33.25.58.55.75.92l.42.88h-2.9c-.25-.39-.45-.81-.5-1-.03-.56.16-.81.3-.95l-.01-.01zm2.91 10.95h-4V7h4v5-.01zm0-6h-5V4h5v2-.01zm5 6h-4V7h4v5-.01zm1-6h-5V4h5v2-.01z"/></symbol><symbol viewBox="0 0 12 13" aria-labelledby="cpsi-oct-gist-title" id="si-oct-gist"><title id="cpsi-oct-gist-title">icon gist</title><path d="M7.5 4L10 6.5 7.5 9l-.75-.75L8.5 6.5 6.75 4.75 7.5 4zm-3 0L2 6.5 4.5 9l.75-.75L3.5 6.5l1.75-1.75L4.5 4zM0 12V1c0-.55.45-1 1-1h10c.55 0 1 .45 1 1v11c0 .55-.45 1-1 1H1c-.55 0-1-.45-1-1zm1 0h10V1H1v11z"/></symbol><symbol viewBox="0 0 13.780001640319824 12" aria-labelledby="cqsi-oct-gist-secret-title" id="si-oct-gist-secret"><title id="cqsi-oct-gist-secret-title">icon gist-secret</title><path d="M7.89 8.5l1 3.5h-4l1-3.5L5.14 7h3.5l-.75 1.5zm2-4.5h-6l-2 1h10l-2-1zm-1-4l-2 1-2-1-1 3h6l-1-3zm4.03 7.75L9.89 7l1 2-2 3h3.22c.45 0 .86-.31.97-.75l.56-2.28c.14-.53-.19-1.08-.72-1.22zM3.89 7l-3.03.75c-.53.14-.86.69-.72 1.22l.56 2.28c.11.44.52.75.97.75h3.22l-2-3 1-2z"/></symbol><symbol viewBox="0 0 10 14.002388000488281" aria-labelledby="crsi-oct-git-branch-title" id="si-oct-git-branch"><title id="crsi-oct-git-branch-title">icon git-branch</title><path d="M10 4.002c0-1.11-.89-2-2-2a1.993 1.993 0 0 0-1 3.72v.3c-.02.52-.23.98-.63 1.38-.4.4-.86.61-1.38.63-.83.02-1.48.16-2 .45v-4.76a1.993 1.993 0 0 0-1-3.72c-1.11 0-1.99.89-1.99 2a2 2 0 0 0 1 1.72v6.56c-.59.35-1 .99-1 1.72 0 1.11.89 2 2 2 1.11 0 2-.89 2-2 0-.53-.2-1-.53-1.36.09-.06.48-.41.59-.47.25-.11.56-.17.94-.17 1.05-.05 1.95-.45 2.75-1.25s1.2-1.98 1.25-3.02h-.02c.61-.36 1.02-1 1.02-1.73zm-8-3.2c.66 0 1.2.55 1.2 1.2 0 .65-.55 1.2-1.2 1.2-.65 0-1.2-.55-1.2-1.2 0-.65.55-1.2 1.2-1.2zm0 12.41c-.66 0-1.2-.55-1.2-1.2 0-.65.55-1.2 1.2-1.2.65 0 1.2.55 1.2 1.2 0 .65-.55 1.2-1.2 1.2zm6-8c-.66 0-1.2-.55-1.2-1.2 0-.65.55-1.2 1.2-1.2.65 0 1.2.55 1.2 1.2 0 .65-.55 1.2-1.2 1.2z"/></symbol><symbol viewBox="0 0 14 8" aria-labelledby="cssi-oct-git-commit-title" id="si-oct-git-commit"><title id="cssi-oct-git-commit-title">icon git-commit</title><path d="M10.86 3c-.45-1.72-2-3-3.86-3-1.86 0-3.41 1.28-3.86 3H0v2h3.14c.45 1.72 2 3 3.86 3 1.86 0 3.41-1.28 3.86-3H14V3h-3.14zM7 6.2c-1.22 0-2.2-.98-2.2-2.2 0-1.22.98-2.2 2.2-2.2 1.22 0 2.2.98 2.2 2.2 0 1.22-.98 2.2-2.2 2.2z"/></symbol><symbol viewBox="0 0 14.328922271728516 16" aria-labelledby="ctsi-oct-git-compare-title" id="si-oct-git-compare"><title id="ctsi-oct-git-compare-title">icon git-compare</title><path d="M5.164 12h-1c-.27-.02-.48-.11-.69-.31-.21-.2-.3-.42-.31-.69V4.72a1.993 1.993 0 0 0-1-3.72 1.993 1.993 0 0 0-1 3.72V11c.03.78.34 1.47.94 2.06.6.59 1.28.91 2.06.94h1v2l3-3-3-3v2zm-3-10.2c.66 0 1.2.55 1.2 1.2 0 .65-.55 1.2-1.2 1.2-.65 0-1.2-.55-1.2-1.2 0-.65.55-1.2 1.2-1.2zm11 9.48V5c-.03-.78-.34-1.47-.94-2.06-.6-.59-1.28-.91-2.06-.94h-1V0l-3 3 3 3V4h1c.27.02.48.11.69.31.21.2.3.42.31.69v6.28a1.993 1.993 0 0 0 1 3.72 1.993 1.993 0 0 0 1-3.72zm-1 2.92c-.66 0-1.2-.55-1.2-1.2 0-.65.55-1.2 1.2-1.2.65 0 1.2.55 1.2 1.2 0 .65-.55 1.2-1.2 1.2z"/></symbol><symbol viewBox="0 0 12 14.014898300170898" aria-labelledby="cusi-oct-git-merge-title" id="si-oct-git-merge"><title id="cusi-oct-git-merge-title">icon git-merge</title><path d="M10 6.013c-.73 0-1.38.41-1.73 1.02v-.02c-1.05-.02-2.27-.36-3.13-1.02-.75-.58-1.5-1.61-1.89-2.44A1.993 1.993 0 0 0 2 .003c-1.11 0-2 .9-2 2.01a2 2 0 0 0 1 1.72v6.56c-.59.35-1 .99-1 1.72 0 1.11.89 2 2 2a1.993 1.993 0 0 0 1-3.72v-3.61c.67.7 1.44 1.27 2.3 1.69.86.42 2.03.63 2.97.64v-.02c.36.61 1 1.02 1.73 1.02 1.11 0 2-.89 2-2 0-1.11-.89-2-2-2zm-6.8 6c0 .66-.55 1.2-1.2 1.2-.65 0-1.2-.55-1.2-1.2 0-.65.55-1.2 1.2-1.2.65 0 1.2.55 1.2 1.2zM2 3.213c-.66 0-1.2-.55-1.2-1.2 0-.65.55-1.2 1.2-1.2.65 0 1.2.55 1.2 1.2 0 .65-.55 1.2-1.2 1.2zm8 6c-.66 0-1.2-.55-1.2-1.2 0-.65.55-1.2 1.2-1.2.65 0 1.2.55 1.2 1.2 0 .65-.55 1.2-1.2 1.2z"/></symbol><symbol viewBox="0 0 12.328922271728516 15.002387046813965" aria-labelledby="cvsi-oct-git-pull-request-title" id="si-oct-git-pull-request"><title id="cvsi-oct-git-pull-request-title">icon git-pull-request</title><path d="M11.164 11.28V5c-.03-.78-.34-1.47-.94-2.06-.6-.59-1.28-.91-2.06-.94h-1V0l-3 3 3 3V4h1c.27.02.48.11.69.31.21.2.3.42.31.69v6.28a1.993 1.993 0 0 0 1 3.72 1.993 1.993 0 0 0 1-3.72zm-1 2.92c-.66 0-1.2-.55-1.2-1.2 0-.65.55-1.2 1.2-1.2.65 0 1.2.55 1.2 1.2 0 .65-.55 1.2-1.2 1.2zm-6-11.2c0-1.11-.89-2-2-2a1.993 1.993 0 0 0-1 3.72v6.56a1.993 1.993 0 0 0 1 3.72 1.993 1.993 0 0 0 1-3.72V4.72c.59-.34 1-.98 1-1.72zm-.8 10c0 .66-.55 1.2-1.2 1.2-.65 0-1.2-.55-1.2-1.2 0-.65.55-1.2 1.2-1.2.65 0 1.2.55 1.2 1.2zm-1.2-8.8c-.66 0-1.2-.55-1.2-1.2 0-.65.55-1.2 1.2-1.2.65 0 1.2.55 1.2 1.2 0 .65-.55 1.2-1.2 1.2z"/></symbol><symbol viewBox="0 0 13.979997634887695 14" aria-labelledby="cwsi-oct-globe-title" id="si-oct-globe"><title id="cwsi-oct-globe-title">icon globe</title><path d="M7 0C3.14 0 0 3.14 0 7s3.14 7 7 7c.48 0 .94-.05 1.38-.14-.17-.08-.2-.73-.02-1.09.19-.41.81-1.45.2-1.8-.61-.35-.44-.5-.81-.91-.37-.41-.22-.47-.25-.58-.08-.34.36-.89.39-.94.02-.06.02-.27 0-.33 0-.08-.27-.22-.34-.23-.06 0-.11.11-.2.13-.09.02-.5-.25-.59-.33-.09-.08-.14-.23-.27-.34-.13-.13-.14-.03-.33-.11s-.8-.31-1.28-.48c-.48-.19-.52-.47-.52-.66-.02-.2-.3-.47-.42-.67-.14-.2-.16-.47-.2-.41-.04.06.25.78.2.81-.05.02-.16-.2-.3-.38-.14-.19.14-.09-.3-.95s.14-1.3.17-1.75c.03-.45.38.17.19-.13-.19-.3 0-.89-.14-1.11-.13-.22-.88.25-.88.25.02-.22.69-.58 1.16-.92.47-.34.78-.06 1.16.05.39.13.41.09.28-.05-.13-.13.06-.17.36-.13.28.05.38.41.83.36.47-.03.05.09.11.22s-.06.11-.38.3c-.3.2.02.22.55.61s.38-.25.31-.55c-.07-.3.39-.06.39-.06.33.22.27.02.5.08.23.06.91.64.91.64-.83.44-.31.48-.17.59.14.11-.28.3-.28.3-.17-.17-.19.02-.3.08-.11.06-.02.22-.02.22-.56.09-.44.69-.42.83 0 .14-.38.36-.47.58-.09.2.25.64.06.66-.19.03-.34-.66-1.31-.41-.3.08-.94.41-.59 1.08.36.69.92-.19 1.11-.09.19.1-.06.53-.02.55.04.02.53.02.56.61.03.59.77.53.92.55.17 0 .7-.44.77-.45.06-.03.38-.28 1.03.09.66.36.98.31 1.2.47.22.16.08.47.28.58.2.11 1.06-.03 1.28.31.22.34-.88 2.09-1.22 2.28-.34.19-.48.64-.84.92s-.81.64-1.27.91c-.41.23-.47.66-.66.8 3.14-.7 5.48-3.5 5.48-6.84 0-3.86-3.14-7-7-7L7 0zm1.64 6.56c-.09.03-.28.22-.78-.08-.48-.3-.81-.23-.86-.28 0 0-.05-.11.17-.14.44-.05.98.41 1.11.41.13 0 .19-.13.41-.05.22.08.05.13-.05.14zM6.34.7c-.05-.03.03-.08.09-.14.03-.03.02-.11.05-.14.11-.11.61-.25.52.03-.11.27-.58.3-.66.25zm1.23.89c-.19-.02-.58-.05-.52-.14.3-.28-.09-.38-.34-.38-.25-.02-.34-.16-.22-.19.12-.03.61.02.7.08.08.06.52.25.55.38.02.13 0 .25-.17.25zm1.47-.05c-.14.09-.83-.41-.95-.52-.56-.48-.89-.31-1-.41-.11-.1-.08-.19.11-.34.19-.15.69.06 1 .09.3.03.66.27.66.55.02.25.33.5.19.63h-.01z"/></symbol><symbol viewBox="0 0 8 7" aria-labelledby="cxsi-oct-grabber-title" id="si-oct-grabber"><title id="cxsi-oct-grabber-title">icon grabber</title><path d="M8 0v1H0V0h8zM0 4h8V3H0v1zm0 3h8V6H0v1z"/></symbol><symbol viewBox="0 0 16 15" aria-labelledby="cysi-oct-graph-title" id="si-oct-graph"><title id="cysi-oct-graph-title">icon graph</title><path d="M16 14v1H0V0h1v14h15zM5 13H3V8h2v5zm4 0H7V3h2v10zm4 0h-2V6h2v7z"/></symbol><symbol viewBox="0 0 12 11" aria-labelledby="czsi-oct-heart-title" id="si-oct-heart"><title id="czsi-oct-heart-title">icon heart</title><path d="M11.2 1C10.68.37 9.95.05 9 0c-.97 0-1.69.42-2.2 1-.51.58-.78.92-.8 1-.02-.08-.28-.42-.8-1C4.68.42 4.03 0 3 0 2.05.05 1.31.38.8 1 .28 1.61.02 2.28 0 3c0 .52.09 1.52.67 2.67C1.25 6.82 3.01 8.61 6 11c2.98-2.39 4.77-4.17 5.34-5.33C11.91 4.51 12 3.5 12 3c-.02-.72-.28-1.39-.8-2.02V1z"/></symbol><symbol viewBox="0 0 14 14" aria-labelledby="dasi-oct-history-title" id="si-oct-history"><title id="dasi-oct-history-title">icon history</title><path d="M8 12H6V5h5v2H8v5zM7 0C4.81 0 2.87 1.02 1.59 2.59L0 1v4h4L2.5 3.5C3.55 2.17 5.17 1.3 7 1.3c3.14 0 5.7 2.56 5.7 5.7s-2.56 5.7-5.7 5.7A5.71 5.71 0 0 1 1.3 7c0-.34.03-.67.09-1H.08C.03 6.33 0 6.66 0 7c0 3.86 3.14 7 7 7s7-3.14 7-7-3.14-7-7-7z"/></symbol><symbol viewBox="0 0 16 14" aria-labelledby="dbsi-oct-home-title" id="si-oct-home"><title id="dbsi-oct-home-title">icon home</title><path d="M16 8l-3-3V1h-2v2L8 0 0 8h2l1 5c0 .55.45 1 1 1h8c.55 0 1-.45 1-1l1-5h2zm-4 5H9V9H7v4H4L2.81 6.69 8 1.5l5.19 5.19L12 13z"/></symbol><symbol viewBox="0 0 10 10" aria-labelledby="dcsi-oct-horizontal-rule-title" id="si-oct-horizontal-rule"><title id="dcsi-oct-horizontal-rule-title">icon horizontal-rule</title><path d="M1 4h2v2h1V0H3v3H1V0H0v6h1V4zm9 2V4H9v2h1zm0-3V1H9v2h1zM7 3V1h2V0H6v6h1V4h2V3H7zm-7 7h10V8H0v2z"/></symbol><symbol viewBox="0 0 14 12" aria-labelledby="ddsi-oct-hubot-title" id="si-oct-hubot"><title id="ddsi-oct-hubot-title">icon hubot</title><path d="M3 4c-.55 0-1 .45-1 1v2c0 .55.45 1 1 1h8c.55 0 1-.45 1-1V5c0-.55-.45-1-1-1H3zm8 1.75L9.75 7h-1.5L7 5.75 5.75 7h-1.5L3 5.75V5h.75L5 6.25 6.25 5h1.5L9 6.25 10.25 5H11v.75zM5 9h4v1H5V9zm2-9C3.14 0 0 2.91 0 6.5V11c0 .55.45 1 1 1h12c.55 0 1-.45 1-1V6.5C14 2.91 10.86 0 7 0zm6 11H1V6.5C1 3.41 3.64.91 7 .91s6 2.5 6 5.59V11z"/></symbol><symbol viewBox="0 0 14 14" aria-labelledby="desi-oct-inbox-title" id="si-oct-inbox"><title id="desi-oct-inbox-title">icon inbox</title><path d="M14 8L12.87.86c-.08-.48-.5-.86-1-.86H2.13c-.5 0-.92.38-1 .86L0 8v5c0 .55.45 1 1 1h12c.55 0 1-.45 1-1V8zm-3.28.55l-.44.89c-.17.34-.52.56-.91.56H4.61c-.38 0-.72-.22-.89-.55l-.44-.91c-.17-.33-.52-.55-.89-.55H1l1-7h10l1 7h-1.38c-.39 0-.73.22-.91.55l.01.01z"/></symbol><symbol viewBox="0 0 14 14" aria-labelledby="dfsi-oct-info-title" id="si-oct-info"><title id="dfsi-oct-info-title">icon info</title><path d="M6.3 4.71a.942.942 0 0 1-.28-.7c0-.28.09-.52.28-.7.19-.18.42-.28.7-.28.28 0 .52.09.7.28.18.19.28.42.28.7 0 .28-.09.52-.28.7a1 1 0 0 1-.7.3c-.28 0-.52-.11-.7-.3zM8 7.01c-.02-.25-.11-.48-.31-.69-.2-.19-.42-.3-.69-.31H6c-.27.02-.48.13-.69.31-.2.2-.3.44-.31.69h1v3c.02.27.11.5.31.69.2.2.42.31.69.31h1c.27 0 .48-.11.69-.31.2-.19.3-.42.31-.69H8V7v.01zM7 1.32C3.86 1.32 1.3 3.86 1.3 7c0 3.14 2.56 5.7 5.7 5.7s5.7-2.55 5.7-5.7c0-3.15-2.56-5.69-5.7-5.69v.01zM7 0c3.86 0 7 3.14 7 7s-3.14 7-7 7-7-3.12-7-7 3.14-7 7-7z"/></symbol><symbol viewBox="0 0 15 14.005208015441895" aria-labelledby="dgsi-oct-issue-closed-title" id="si-oct-issue-closed"><title id="dgsi-oct-issue-closed-title">icon issue-closed</title><path d="M6 9.005h2v2H6v-2zm2-6H6v5h2v-5zm1.5 1.5l-1 1 2.5 2.5 4-4.5-1-1-3 3.5-1.5-1.5zm-2.5 8.2a5.71 5.71 0 0 1-5.7-5.7c0-3.14 2.56-5.7 5.7-5.7 1.83 0 3.45.88 4.5 2.2l.92-.92A6.947 6.947 0 0 0 7 .005c-3.86 0-7 3.14-7 7s3.14 7 7 7 7-3.14 7-7l-1.52 1.52c-.66 2.41-2.86 4.19-5.48 4.19v-.01z"/></symbol><symbol viewBox="0 0 14 14" aria-labelledby="dhsi-oct-issue-opened-title" id="si-oct-issue-opened"><title id="dhsi-oct-issue-opened-title">icon issue-opened</title><path d="M7 1.3c3.14 0 5.7 2.56 5.7 5.7s-2.56 5.7-5.7 5.7A5.71 5.71 0 0 1 1.3 7c0-3.14 2.56-5.7 5.7-5.7zM7 0C3.14 0 0 3.14 0 7s3.14 7 7 7 7-3.14 7-7-3.14-7-7-7zm1 3H6v5h2V3zm0 6H6v2h2V9z"/></symbol><symbol viewBox="0 0 14 14" aria-labelledby="disi-oct-issue-reopened-title" id="si-oct-issue-reopened"><title id="disi-oct-issue-reopened-title">icon issue-reopened</title><path d="M8 8H6V3h2v5zm-2 3h2V9H6v2zm6.33-2H10l1.5 1.5c-1.05 1.33-2.67 2.2-4.5 2.2A5.71 5.71 0 0 1 1.3 7c0-.34.03-.67.09-1H.08C.03 6.33 0 6.66 0 7c0 3.86 3.14 7 7 7 2.19 0 4.13-1.02 5.41-2.59L14 13V9h-1.67zM1.67 5H4L2.5 3.5C3.55 2.17 5.17 1.3 7 1.3c3.14 0 5.7 2.56 5.7 5.7 0 .34-.03.67-.09 1h1.31c.05-.33.08-.66.08-1 0-3.86-3.14-7-7-7-2.19 0-4.13 1.02-5.41 2.59L0 1v4h1.67z"/></symbol><symbol viewBox="0 0 4.630000114440918 13" aria-labelledby="djsi-oct-italic-title" id="si-oct-italic"><title id="djsi-oct-italic-title">icon italic</title><path d="M1.81 4h1.98L2 13H0l1.81-9zm.36-2.7C2.17.6 2.75 0 3.5 0c.56 0 1.13.38 1.13 1.03 0 .75-.59 1.3-1.33 1.3-.58 0-1.13-.38-1.13-1.03z"/></symbol><symbol viewBox="0 0 13.000000953674316 16" aria-labelledby="dksi-oct-jersey-title" id="si-oct-jersey"><title id="dksi-oct-jersey-title">icon jersey</title><path d="M3.5 6l-.5.5v5l.5.5h2l.5-.5v-5L5.5 6h-2zM5 11H4V7h1v4zm6.27-7.25C11.05 2.37 10.96 1.12 11 0H8.02c0 .27-.13.48-.39.69-.25.2-.63.3-1.13.3-.5 0-.88-.09-1.13-.3-.23-.2-.36-.42-.36-.69H2c.05 1.13-.03 2.38-.25 3.75C1.55 5.13.95 5.88 0 6v9c.02.27.11.48.31.69.2.21.42.3.69.31h11c.27-.02.48-.11.69-.31.21-.2.3-.42.31-.69V6c-.95-.13-1.53-.88-1.75-2.25h.02zM12 15H1V7c.89-.5 1.48-1.25 1.72-2.25S3.03 2.5 3 1h1c-.02.78.16 1.47.52 2.06.36.58 1.02.89 2 .94.98-.02 1.64-.33 2-.94.36-.59.5-1.28.48-2.06h1c.02 1.42.13 2.55.33 3.38.2.81.69 2 1.67 2.63v8V15zM7.5 6l-.5.5v5l.5.5h2l.5-.5v-5L9.5 6h-2zM9 11H8V7h1v4z"/></symbol><symbol viewBox="0 0 14 13" aria-labelledby="dlsi-oct-key-title" id="si-oct-key"><title id="dlsi-oct-key-title">icon key</title><path d="M12.83 1.17C12.08.42 11.14.03 10 0 8.87.03 7.92.42 7.17 1.17S6.04 2.86 6.01 4c0 .3.03.59.09.89L0 11v1l1 1h2l1-1v-1h1v-1h1V9h2l1.09-1.11c.3.08.59.11.91.11 1.14-.03 2.08-.42 2.83-1.17S13.97 5.14 14 4c-.03-1.14-.42-2.08-1.17-2.83zM11 4.38c-.77 0-1.38-.61-1.38-1.38 0-.77.61-1.38 1.38-1.38.77 0 1.38.61 1.38 1.38 0 .77-.61 1.38-1.38 1.38z"/></symbol><symbol viewBox="0 0 16 11" aria-labelledby="dmsi-oct-keyboard-title" id="si-oct-keyboard"><title id="dmsi-oct-keyboard-title">icon keyboard</title><path d="M10 3H9V2h1v1zM3 4H2v1h1V4zm5-2H7v1h1V2zM4 2H2v1h2V2zm8 7h2V8h-2v1zM8 5h1V4H8v1zM4 8H2v1h2V8zm8-6h-1v1h1V2zm2 0h-1v1h1V2zm-2 5h2V4h-2v3zm4-6v9c0 .55-.45 1-1 1H1c-.55 0-1-.45-1-1V1c0-.55.45-1 1-1h14c.55 0 1 .45 1 1zm-1 0H1v9h14V1zM6 5h1V4H6v1zm0-3H5v1h1V2zM4 5h1V4H4v1zm1 4h6V8H5v1zm5-4h1V4h-1v1zM3 6H2v1h1V6zm5 0v1h1V6H8zM6 6v1h1V6H6zM5 6H4v1h1V6zm5 1h1V6h-1v1z"/></symbol><symbol viewBox="0 0 14 14" aria-labelledby="dnsi-oct-law-title" id="si-oct-law"><title id="dnsi-oct-law-title">icon law</title><path d="M7 3c-.83 0-1.5-.67-1.5-1.5S6.17 0 7 0s1.5.67 1.5 1.5S7.83 3 7 3zm7 6c0 1.11-.89 2-2 2h-1c-1.11 0-2-.89-2-2l2-4h-1c-.55 0-1-.45-1-1H8v8c.42 0 1 .45 1 1h1c.42 0 1 .45 1 1H3c0-.55.58-1 1-1h1c0-.55.58-1 1-1h.03L6 4H5c0 .55-.45 1-1 1H3l2 4c0 1.11-.89 2-2 2H2c-1.11 0-2-.89-2-2l2-4H1V4h3c0-.55.45-1 1-1h4c.55 0 1 .45 1 1h3v1h-1l2 4zM2.5 6L1 9h3L2.5 6zM13 9l-1.5-3L10 9h3z"/></symbol><symbol viewBox="0 0 11 16" aria-labelledby="dosi-oct-light-bulb-title" id="si-oct-light-bulb"><title id="dosi-oct-light-bulb-title">icon light-bulb</title><path d="M5.5 0C2.48 0 0 2.19 0 5c0 .92.55 2.25 1 3 1.34 2.25 1.78 2.78 2 4v1h5v-1c.22-1.22.66-1.75 2-4 .45-.75 1-2.08 1-3 0-2.81-2.48-5-5.5-5zm3.64 7.48c-.25.44-.47.8-.67 1.11-.86 1.41-1.25 2.06-1.45 3.23-.02.05-.02.11-.02.17H4c0-.06 0-.13-.02-.17-.2-1.17-.59-1.83-1.45-3.23-.2-.31-.42-.67-.67-1.11C1.44 6.78 1 5.65 1 5c0-2.2 2.02-4 4.5-4 1.22 0 2.36.42 3.22 1.19C9.55 2.94 10 3.94 10 5c0 .66-.44 1.78-.86 2.48zM3 14h5c-.23 1.14-1.3 2-2.5 2s-2.27-.86-2.5-2z"/></symbol><symbol viewBox="0 0 15 10" aria-labelledby="dpsi-oct-link-title" id="si-oct-link"><title id="dpsi-oct-link-title">icon link</title><path d="M3 6h1v1H3C1.5 7 0 5.31 0 3.5S1.55 0 3 0h4c1.45 0 3 1.69 3 3.5 0 1.41-.91 2.72-2 3.25V5.59c.58-.45 1-1.27 1-2.09C9 2.22 7.98 1 7 1H3c-.98 0-2 1.22-2 2.5S2 6 3 6zm9-3h-1v1h1c1 0 2 1.22 2 2.5S12.98 9 12 9H8c-.98 0-2-1.22-2-2.5 0-.83.42-1.64 1-2.09V3.25c-1.09.53-2 1.84-2 3.25C5 8.31 6.55 10 8 10h4c1.45 0 3-1.69 3-3.5S13.5 3 12 3z"/></symbol><symbol viewBox="0 0 12 12" aria-labelledby="dqsi-oct-link-external-title" id="si-oct-link-external"><title id="dqsi-oct-link-external-title">icon link-external</title><path d="M11 8h1v3c0 .55-.45 1-1 1H1c-.55 0-1-.45-1-1V1c0-.55.45-1 1-1h3v1H1v10h10V8zM6 0l2.25 2.25L5 5.5 6.5 7l3.25-3.25L12 6V0H6z"/></symbol><symbol viewBox="0 0 12.010000228881836 14" aria-labelledby="drsi-oct-list-ordered-title" id="si-oct-list-ordered"><title id="drsi-oct-list-ordered-title">icon list-ordered</title><path d="M12.01 12c0 .59 0 1-.59 1H4.6c-.59 0-.59-.41-.59-1 0-.59 0-1 .59-1h6.81c.59 0 .59.41.59 1h.01zM4.6 3h6.81C12 3 12 2.59 12 2c0-.59 0-1-.59-1H4.6c-.59 0-.59.41-.59 1 0 .59 0 1 .59 1zm6.81 3H4.6c-.59 0-.59.41-.59 1 0 .59 0 1 .59 1h6.81C12 8 12 7.59 12 7c0-.59 0-1-.59-1zm-9.4-6h-.72C.99.19.71.25.26.34V1h.75v2.14H.17V4h2.84v-.86h-1V0zm.25 8.13c-.17 0-.45.03-.66.06.53-.56 1.14-1.25 1.14-1.89C2.72 5.52 2.18 5 1.38 5c-.59 0-.97.2-1.38.64l.58.58c.19-.19.38-.38.64-.38.28 0 .48.16.48.52 0 .53-.77 1.2-1.7 2.06V9h3l-.09-.88h-.66l.01.01zm-.08 3.78v-.03c.44-.19.64-.47.64-.86 0-.7-.56-1.11-1.44-1.11-.48 0-.89.19-1.28.52l.55.64c.25-.2.44-.31.69-.31.27 0 .42.13.42.36 0 .27-.2.44-.86.44v.75c.83 0 .98.17.98.47 0 .25-.23.38-.58.38-.28 0-.56-.14-.81-.38l-.48.66c.3.36.77.56 1.41.56.83 0 1.53-.41 1.53-1.16 0-.5-.31-.81-.77-.94v.01z"/></symbol><symbol viewBox="0 0 11.989999771118164 12" aria-labelledby="dssi-oct-list-unordered-title" id="si-oct-list-unordered"><title id="dssi-oct-list-unordered-title">icon list-unordered</title><path d="M2 11c0 .59 0 1-.59 1H.59C0 12 0 11.59 0 11c0-.59 0-1 .59-1h.81c.59 0 .59.41.59 1H2zm2.59-9h6.81c.59 0 .59-.41.59-1 0-.59 0-1-.59-1H4.59C4 0 4 .41 4 1c0 .59 0 1 .59 1zM1.41 5H.59C0 5 0 5.41 0 6c0 .59 0 1 .59 1h.81c.59 0 .59-.41.59-1 0-.59 0-1-.59-1h.01zm0-5H.59C0 0 0 .41 0 1c0 .59 0 1 .59 1h.81c.59 0 .59-.41.59-1 0-.59 0-1-.59-1h.01zm10 5H4.59C4 5 4 5.41 4 6c0 .59 0 1 .59 1h6.81c.59 0 .59-.41.59-1 0-.59 0-1-.59-1h.01zm0 5H4.59C4 10 4 10.41 4 11c0 .59 0 1 .59 1h6.81c.59 0 .59-.41.59-1 0-.59 0-1-.59-1h.01z"/></symbol><symbol viewBox="0 0 12 16" aria-labelledby="dtsi-oct-location-title" id="si-oct-location"><title id="dtsi-oct-location-title">icon location</title><path d="M6 0C2.69 0 0 2.5 0 5.5 0 10.02 6 16 6 16s6-5.98 6-10.5C12 2.5 9.31 0 6 0zm0 14.55C4.14 12.52 1 8.44 1 5.5 1 3.02 3.25 1 6 1c1.34 0 2.61.48 3.56 1.36.92.86 1.44 1.97 1.44 3.14 0 2.94-3.14 7.02-5 9.05zM8 5.5c0 1.11-.89 2-2 2-1.11 0-2-.89-2-2 0-1.11.89-2 2-2 1.11 0 2 .89 2 2z"/></symbol><symbol viewBox="0 0 12 15" aria-labelledby="dusi-oct-lock-title" id="si-oct-lock"><title id="dusi-oct-lock-title">icon lock</title><path d="M4 13H3v-1h1v1zm8-6v7c0 .55-.45 1-1 1H1c-.55 0-1-.45-1-1V7c0-.55.45-1 1-1h1V4c0-2.2 1.8-4 4-4s4 1.8 4 4v2h1c.55 0 1 .45 1 1zM3.8 6h4.41V4c0-1.22-.98-2.2-2.2-2.2-1.22 0-2.2.98-2.2 2.2v2H3.8zM11 7H2v7h9V7zM4 8H3v1h1V8zm0 2H3v1h1v-1z"/></symbol><symbol viewBox="0 0 24.260000228881836 12.0600004196167" aria-labelledby="dvsi-oct-logo-gist-title" id="si-oct-logo-gist"><title id="dvsi-oct-logo-gist-title">icon logo-gist</title><path d="M4.7 6.73h2.45v4.02c-.55.27-1.64.34-2.53.34-2.56 0-3.47-2.2-3.47-5.05 0-2.85.91-5.06 3.48-5.06 1.28 0 2.06.23 3.28.73V.66C7.27.33 6.25 0 4.63 0 1.13 0 0 2.69 0 6.03c0 3.34 1.11 6.03 4.63 6.03 1.64 0 2.81-.27 3.59-.64V5.73H4.7v1zm6.39 3.72V4.06h-1.05v6.28c0 1.25.58 1.72 1.72 1.72v-.89c-.48 0-.67-.16-.67-.7v-.02zm.25-8.72c0-.44-.33-.78-.78-.78s-.77.34-.77.78.33.78.77.78.78-.34.78-.78zm4.34 5.69c-1.5-.13-1.78-.48-1.78-1.17 0-.77.33-1.34 1.88-1.34 1.05 0 1.66.16 2.27.36v-.94c-.69-.3-1.52-.39-2.25-.39-2.2 0-2.92 1.2-2.92 2.31 0 1.08.47 1.88 2.73 2.08 1.55.13 1.77.63 1.77 1.34 0 .73-.44 1.42-2.06 1.42-1.11 0-1.86-.19-2.33-.36v.94c.5.2 1.58.39 2.33.39 2.38 0 3.14-1.2 3.14-2.41 0-1.28-.53-2.03-2.75-2.23h-.03zm8.58-2.47v-.86h-2.42v-2.5l-1.08.31v2.11l-1.56.44v.48h1.56v5c0 1.53 1.19 2.13 2.5 2.13.19 0 .52-.02.69-.05v-.89c-.19.03-.41.03-.61.03-.97 0-1.5-.39-1.5-1.34V4.94h2.42v.02-.01z"/></symbol><symbol viewBox="0 0 44.660003662109375 12.120000839233398" aria-labelledby="dwsi-oct-logo-github-title" id="si-oct-logo-github"><title id="dwsi-oct-logo-github-title">icon logo-github</title><path d="M18.53 10.04h-.02c.009 0 .015.01.024.011h.006l-.01-.01zm.004.011c-.093.001-.327.05-.574.05-.78 0-1.05-.36-1.05-.83V6.14h1.59c.09 0 .16-.08.16-.19v-1.7c0-.09-.08-.17-.16-.17h-1.59V1.97c0-.08-.05-.13-.14-.13h-2.16c-.09 0-.14.05-.14.13v2.17s-1.09.27-1.16.28c-.08.02-.13.09-.13.17v1.36c0 .11.08.19.17.19h1.11v3.28c0 2.44 1.7 2.69 2.86 2.69.53 0 1.17-.17 1.27-.22.06-.02.09-.09.09-.16v-1.5a.177.177 0 0 0-.146-.18zm23.696-2.2c0-1.81-.73-2.05-1.5-1.97-.6.04-1.08.34-1.08.34v3.52s.49.34 1.22.36c1.03.03 1.36-.34 1.36-2.25zm2.43-.16c0 3.43-1.11 4.41-3.05 4.41-1.64 0-2.52-.83-2.52-.83s-.04.46-.09.52c-.03.06-.08.08-.14.08h-1.48c-.1 0-.19-.08-.19-.17l.02-11.11c0-.09.08-.17.17-.17h2.13c.09 0 .17.08.17.17v3.77s.82-.53 2.02-.53l-.01-.02c1.2 0 2.97.45 2.97 3.88zm-8.72-3.61h-2.1c-.11 0-.17.08-.17.19v5.44s-.55.39-1.3.39-.97-.34-.97-1.09V4.26c0-.09-.08-.17-.17-.17h-2.14c-.09 0-.17.08-.17.17v5.11c0 2.2 1.23 2.75 2.92 2.75 1.39 0 2.52-.77 2.52-.77s.05.39.08.45c.02.05.09.09.16.09h1.34c.11 0 .17-.08.17-.17l.02-7.47c0-.09-.08-.17-.19-.17zm-23.7-.01h-2.13c-.09 0-.17.09-.17.2v7.34c0 .2.13.27.3.27h1.92c.2 0 .25-.09.25-.27V4.24c0-.09-.08-.17-.17-.17zM11.19.691c-.77 0-1.38.61-1.38 1.38 0 .77.61 1.38 1.38 1.38.75 0 1.36-.61 1.36-1.38 0-.77-.61-1.38-1.36-1.38zm16.49-.25h-2.11c-.09 0-.17.08-.17.17v4.09h-3.31V.61c0-.09-.08-.17-.17-.17h-2.13c-.09 0-.17.08-.17.17v11.11c0 .09.09.17.17.17h2.13c.09 0 .17-.08.17-.17V6.97h3.31l-.02 4.75c0 .09.08.17.17.17h2.13c.09 0 .17-.08.17-.17V.61c0-.09-.08-.17-.17-.17zM8.81 5.36v5.74c0 .04-.01.11-.06.13 0 0-1.25.89-3.31.89C2.95 12.12 0 11.34 0 6.2S2.58 0 5.1.01c2.18 0 3.06.49 3.2.58.04.05.06.09.06.14l-.42 1.78c0 .09-.09.2-.2.17-.36-.11-.9-.33-2.17-.33-1.47 0-3.05.42-3.05 3.73s1.5 3.7 2.58 3.7c.92 0 1.25-.11 1.25-.11v-2.3H4.88c-.11 0-.19-.08-.19-.17V5.36c0-.09.08-.17.19-.17h3.74c.11 0 .19.08.19.17z"/></symbol><symbol viewBox="0 0 14 10" aria-labelledby="dxsi-oct-mail-title" id="si-oct-mail"><title id="dxsi-oct-mail-title">icon mail</title><path d="M0 1v8c0 .55.45 1 1 1h12c.55 0 1-.45 1-1V1c0-.55-.45-1-1-1H1C.45 0 0 .45 0 1zm13 0L7 6 1 1h12zM1 2.5l4 3-4 3v-6zM2 9l3.5-3L7 7.5 8.5 6 12 9H2zm11-.5l-4-3 4-3v6z"/></symbol><symbol viewBox="0 0 14 15" aria-labelledby="dysi-oct-mail-read-title" id="si-oct-mail-read"><title id="dysi-oct-mail-read-title">icon mail-read</title><path d="M6 5H4V4h2v1zm3 1H4v1h5V6zm5-.48V14c0 .55-.45 1-1 1H1c-.55 0-1-.45-1-1V5.52c0-.33.16-.63.42-.81L2 3.58V3c0-.55.45-1 1-1h1.2L7 0l2.8 2H11c.55 0 1 .45 1 1v.58l1.58 1.13c.27.19.42.48.42.81zM3 7.5L7 10l4-2.5V3H3v4.5zm-2 6l4.5-3-4.5-3v6zm11 .5l-5-3-5 3h10zm1-6.5l-4.5 3 4.5 3v-6z"/></symbol><symbol viewBox="0 0 12 10.380000114440918" aria-labelledby="dzsi-oct-mail-reply-title" id="si-oct-mail-reply"><title id="dzsi-oct-mail-reply-title">icon mail-reply</title><path d="M6 0L0 4.5 6 9V6c1.73 0 5.14.95 6 4.38C12 5.83 8.94 3.33 6 3V0z"/></symbol><symbol viewBox="0 0 16 15.670001983642578" aria-labelledby="easi-oct-mark-github-title" id="si-oct-mark-github"><title id="easi-oct-mark-github-title">icon mark-github</title><path d="M8 0C3.58 0 0 3.58 0 8c0 3.54 2.29 6.53 5.47 7.59.4.07.55-.17.55-.38 0-.19-.01-.82-.01-1.49-2.01.37-2.53-.49-2.69-.94-.09-.23-.48-.94-.82-1.13-.28-.15-.68-.52-.01-.53.63-.01 1.08.58 1.23.82.72 1.21 1.87.87 2.33.66.07-.52.28-.87.51-1.07-1.78-.2-3.64-.89-3.64-3.95 0-.87.31-1.59.82-2.15-.08-.2-.36-1.02.08-2.12 0 0 .67-.21 2.2.82.64-.18 1.32-.27 2-.27.68 0 1.36.09 2 .27 1.53-1.04 2.2-.82 2.2-.82.44 1.1.16 1.92.08 2.12.51.56.82 1.27.82 2.15 0 3.07-1.87 3.75-3.65 3.95.29.25.54.73.54 1.48 0 1.07-.01 1.93-.01 2.2 0 .21.15.46.55.38A8.013 8.013 0 0 0 16 8c0-4.42-3.58-8-8-8z"/></symbol><symbol viewBox="0 0 16 10" aria-labelledby="ebsi-oct-markdown-title" id="si-oct-markdown"><title id="ebsi-oct-markdown-title">icon markdown</title><path d="M14.85 0H1.15C.52 0 0 .52 0 1.15v7.69C0 9.48.52 10 1.15 10h13.69c.64 0 1.15-.52 1.15-1.15v-7.7C16 .52 15.48 0 14.85 0zM9 8H7V5L5.5 6.92 4 5v3H2V2h2l1.5 2L7 2h2v6zm2.99.5L9.5 5H11V2h2v3h1.5l-2.51 3.5z"/></symbol><symbol viewBox="0 0 16 14" aria-labelledby="ecsi-oct-megaphone-title" id="si-oct-megaphone"><title id="ecsi-oct-megaphone-title">icon megaphone</title><path d="M10 0c-.17 0-.36.05-.52.14C8.04 1.02 4.5 3.58 3 4c-1.38 0-3 .67-3 2.5S1.63 9 3 9c.3.08.64.23 1 .41V14h2v-3.45c1.34.86 2.69 1.83 3.48 2.31.16.09.34.14.52.14.52 0 1-.42 1-1V1c0-.58-.48-1-1-1zm0 12c-.38-.23-.89-.58-1.5-1-.16-.11-.33-.22-.5-.34V2.31c.16-.11.31-.2.47-.31.61-.41 1.16-.77 1.53-1v11zm2-6h4v1h-4V6zm0 2l4 2v1l-4-2V8zm4-6v1l-4 2V4l4-2z"/></symbol><symbol viewBox="0 0 14 15" aria-labelledby="edsi-oct-mention-title" id="si-oct-mention"><title id="edsi-oct-mention-title">icon mention</title><path d="M6.58 15c1.25 0 2.52-.31 3.56-.94l-.42-.94c-.84.52-1.89.83-3.03.83-3.23 0-5.64-2.08-5.64-5.72 0-4.37 3.23-7.18 6.58-7.18 3.45 0 5.22 2.19 5.22 5.2 0 2.39-1.34 3.86-2.5 3.86-1.05 0-1.36-.73-1.05-2.19l.73-3.75H8.98l-.11.72c-.41-.63-.94-.83-1.56-.83-2.19 0-3.66 2.39-3.66 4.38 0 1.67.94 2.61 2.3 2.61.84 0 1.67-.53 2.3-1.25.11.94.94 1.45 1.98 1.45 1.67 0 3.77-1.67 3.77-5C14 2.61 11.59 0 7.83 0 3.66 0 0 3.33 0 8.33 0 12.71 2.92 15 6.58 15zm-.31-5c-.73 0-1.36-.52-1.36-1.67 0-1.45.94-3.22 2.41-3.22.52 0 .84.2 1.25.83l-.52 3.02c-.63.73-1.25 1.05-1.78 1.05V10z"/></symbol><symbol viewBox="0 0 13 16" aria-labelledby="eesi-oct-milestone-title" id="si-oct-milestone"><title id="eesi-oct-milestone-title">icon milestone</title><path d="M7 2H5V0h2v2zm4 5H1c-.55 0-1-.45-1-1V4c0-.55.45-1 1-1h10l2 2-2 2zM7 4H5v2h2V4zM5 16h2V8H5v8z"/></symbol><symbol viewBox="0 0 15 16" aria-labelledby="efsi-oct-mirror-title" id="si-oct-mirror"><title id="efsi-oct-mirror-title">icon mirror</title><path d="M14.5 4.7L7.5 0l-7 4.7c-.3.19-.5.45-.5.8V16l7.5-4 7.5 4V5.5c0-.34-.2-.61-.5-.8zm-.5 9.8l-6-3.25V10H7v1.25L1 14.5v-9l6-4V6h1V1.5l6 4v9zM5 7h5V5l3 3-3 3V9H5v2L2 8l3-3v2z"/></symbol><symbol viewBox="0 0 15.978633880615234 13.15999984741211" aria-labelledby="egsi-oct-mortar-board-title" id="si-oct-mortar-board"><title id="egsi-oct-mortar-board-title">icon mortar-board</title><path d="M7.83 9.19L4 8c-4-8 0 1.5 0 2.5S5.8 12 8 12s4-.5 4-1.5V8L8.17 9.19a.73.73 0 0 1-.36 0h.02zm.28-6.39a.34.34 0 0 0-.2 0L.27 5.18a.35.35 0 0 0 0 .67L2 6.4v1.77c-.3.17-.5.5-.5.86 0 .19.05.36.14.5-.08.14-.14.31-.14.5v2.58c0 .55 2 .55 2 0v-2.58c0-.19-.05-.36-.14-.5.08-.14.14-.31.14-.5 0-.38-.2-.69-.5-.86V6.72l4.89 1.53c.06.02.14.02.2 0l7.64-2.38a.35.35 0 0 0 0-.67L8.1 2.81l.01-.01zM8.02 6c-.55 0-1-.22-1-.5s.45-.5 1-.5 1 .22 1 .5-.45.5-1 .5z"/></symbol><symbol viewBox="0 0 15.530000686645508 12.380001068115234" aria-labelledby="ehsi-oct-mute-title" id="si-oct-mute"><title id="ehsi-oct-mute-title">icon mute</title><path d="M8 1v10.38c0 .67-.81 1-1.28.53L3 8.19H1c-.55 0-1-.45-1-1v-2c0-.55.45-1 1-1h2L6.72.47C7.19 0 8 .33 8 1zm7.53 3.22l-1.06-1.06-1.97 1.97-1.97-1.97-1.06 1.06 1.97 1.97-1.97 1.97 1.06 1.06 1.97-1.97 1.97 1.97 1.06-1.06-1.97-1.97 1.97-1.97z"/></symbol><symbol viewBox="0 0 16 8" aria-labelledby="eisi-oct-no-newline-title" id="si-oct-no-newline"><title id="eisi-oct-no-newline-title">icon no-newline</title><path d="M16 1v3c0 .55-.45 1-1 1h-3v2L9 4l3-3v2h2V1h2zM8 4c0 2.2-1.8 4-4 4S0 6.2 0 4s1.8-4 4-4 4 1.8 4 4zM1.5 5.66L5.66 1.5C5.18 1.19 4.61 1 4 1 2.34 1 1 2.34 1 4c0 .61.19 1.17.5 1.66zM7 4c0-.61-.19-1.17-.5-1.66L2.34 6.5c.48.31 1.05.5 1.66.5 1.66 0 3-1.34 3-3z"/></symbol><symbol viewBox="0 0 16 13.309999465942383" aria-labelledby="ejsi-oct-octoface-title" id="si-oct-octoface"><title id="ejsi-oct-octoface-title">icon octoface</title><path d="M14.7 3.65c.13-.32.55-1.59-.13-3.31 0 0-1.05-.33-3.44 1.3-1-.28-2.07-.32-3.13-.32s-2.13.04-3.13.32C2.48 0 1.43.34 1.43.34c-.68 1.72-.26 2.99-.13 3.31C.49 4.52 0 5.64 0 7c0 5.15 3.33 6.31 7.98 6.31S16 12.15 16 7c0-1.36-.49-2.48-1.3-3.35zM8 12.33c-3.3 0-5.98-.15-5.98-3.35 0-.76.38-1.48 1.02-2.07 1.07-.98 2.9-.46 4.96-.46 2.07 0 3.88-.52 4.96.46.65.59 1.02 1.3 1.02 2.07 0 3.19-2.68 3.35-5.98 3.35zM5.49 7.32c-.66 0-1.2.8-1.2 1.78s.54 1.79 1.2 1.79c.66 0 1.2-.8 1.2-1.79s-.54-1.78-1.2-1.78zm5.02 0c-.66 0-1.2.79-1.2 1.78s.54 1.79 1.2 1.79c.66 0 1.2-.8 1.2-1.79s-.53-1.78-1.2-1.78z"/></symbol><symbol viewBox="0 0 16 12.99899959564209" aria-labelledby="eksi-oct-organization-title" id="si-oct-organization"><title id="eksi-oct-organization-title">icon organization</title><path d="M16 11.999c0 .439-.45 1-1 1H7.995c-.539 0-.994-.447-.995-.999H1c-.54 0-1-.561-1-1 0-2.634 3-4 3-4s.229-.409 0-1c-.841-.621-1.058-.59-1-3C2.058.581 3.367 0 4.5 0S6.942.58 7 3c.058 2.41-.159 2.379-1 3-.229.59 0 1 0 1s1.549.711 2.42 2.088C9.196 8.369 10 7.999 10 7.999s.229-.409 0-1c-.841-.62-1.058-.59-1-3 .058-2.419 1.367-3 2.5-3s2.437.581 2.495 3c.059 2.41-.158 2.38-1 3-.229.59 0 1 0 1S16 9.365 16 11.999"/></symbol><symbol viewBox="0 0 15 12.960003852844238" aria-labelledby="elsi-oct-package-title" id="si-oct-package"><title id="elsi-oct-package-title">icon package</title><path d="M0 2.74v7.47c0 .45.3.84.75.97l6.5 1.73c.16.05.34.05.5 0l6.5-1.73c.45-.13.75-.52.75-.97V2.74c0-.45-.3-.84-.75-.97L7.75.03a1.4 1.4 0 0 0-.5 0L.75 1.77C.3 1.9 0 2.29 0 2.74zm7 9.09l-6-1.59V3.47l6 1.61v6.75zM1 2.47l2.5-.67L10 3.53l-2.5.67L1 2.47zm13 7.77l-6 1.59V5.08l2-.55v2.44l2-.53V4l2-.53v6.77zM12 3L5.5 1.27l2-.53L14 2.47 12 3z"/></symbol><symbol viewBox="0 0 12 15" aria-labelledby="emsi-oct-paintcan-title" id="si-oct-paintcan"><title id="emsi-oct-paintcan-title">icon paintcan</title><path d="M6 0C2.69 0 0 2.69 0 6v1c0 .55.45 1 1 1v5c0 1.1 2.24 2 5 2s5-.9 5-2V8c.55 0 1-.45 1-1V6c0-3.31-2.69-6-6-6zm3 10v.5c0 .28-.22.5-.5.5s-.5-.22-.5-.5V10c0-.28-.22-.5-.5-.5s-.5.22-.5.5v2.5c0 .28-.22.5-.5.5s-.5-.22-.5-.5v-2c0-.28-.22-.5-.5-.5s-.5.22-.5.5v.5c0 .55-.45 1-1 1s-1-.45-1-1v-1c-.55 0-1-.45-1-1V7.2c.91.49 2.36.8 4 .8 1.64 0 3.09-.31 4-.8V9c0 .55-.45 1-1 1zM6 7c-1.68 0-3.12-.41-3.71-1C2.88 5.41 4.32 5 6 5c1.68 0 3.12.41 3.71 1-.59.59-2.03 1-3.71 1zm0-3c-2.76 0-5 .89-5 2 0-2.76 2.24-5 5-5s5 2.24 5 5c0-1.1-2.24-2-5-2z"/></symbol><symbol viewBox="0 0 13.690000534057617 13.592443466186523" aria-labelledby="ensi-oct-pencil-title" id="si-oct-pencil"><title id="ensi-oct-pencil-title">icon pencil</title><path d="M0 10.592v3h3l8-8-3-3-8 8zm3 2H1v-2h1v1h1v1zm10.3-9.3l-1.3 1.3-3-3 1.3-1.3a.996.996 0 0 1 1.41 0l1.59 1.59c.39.39.39 1.02 0 1.41z"/></symbol><symbol viewBox="0 0 12.000266075134277 14.000266075134277" aria-labelledby="eosi-oct-person-title" id="si-oct-person"><title id="eosi-oct-person-title">icon person</title><path d="M12 13.002a.998.998 0 0 1-.998.998h-10A1 1 0 0 1 0 12.999V12c0-2.633 4-4 4-4s.23-.409 0-1c-.84-.62-.944-1.59-1-4C3.173.587 4.867 0 6 0s2.827.586 3 3c-.056 2.41-.159 3.38-1 4-.229.59 0 1 0 1s4 1.367 4 4v1.002z"/></symbol><symbol viewBox="0 0 14.470000267028809 14.332551002502441" aria-labelledby="epsi-oct-pin-title" id="si-oct-pin"><title id="epsi-oct-pin-title">icon pin</title><path d="M9 .533v.8l.5 1-4.5 3H1.2c-.44 0-.67.53-.34.86L4 9.333l-4 5 5-4 3.14 3.14a.5.5 0 0 0 .86-.34v-3.8l3-4.5 1 .5h.8c.44 0 .67-.53.34-.86L9.86.193a.5.5 0 0 0-.86.34z"/></symbol><symbol viewBox="0 0 14 9" aria-labelledby="eqsi-oct-plug-title" id="si-oct-plug"><title id="eqsi-oct-plug-title">icon plug</title><path d="M14 3V2h-4V0H8v1H6c-1.03 0-1.77.81-2 2L3 4C1.34 4 0 5.34 0 7v2h1V7c0-1.11.89-2 2-2l1 1c.25 1.16.98 2 2 2h2v1h2V7h4V6h-4V3h4z"/></symbol><symbol viewBox="0 0 12 12" aria-labelledby="ersi-oct-plus-title" id="si-oct-plus"><title id="ersi-oct-plus-title">icon plus</title><path d="M12 7H7v5H5V7H0V5h5V0h2v5h5z"/></symbol><symbol viewBox="0 0 7 7" aria-labelledby="essi-oct-plus-small-title" id="si-oct-plus-small"><title id="essi-oct-plus-small-title">icon plus-small</title><path d="M4 3V0H3v3H0v1h3v3h1V4h3V3H4z"/></symbol><symbol viewBox="0 0 8 8" aria-labelledby="etsi-oct-primitive-dot-title" id="si-oct-primitive-dot"><title id="etsi-oct-primitive-dot-title">icon primitive-dot</title><path d="M0 4c0-2.2 1.8-4 4-4s4 1.8 4 4-1.8 4-4 4-4-1.8-4-4z"/></symbol><symbol viewBox="0 0 8 8" aria-labelledby="eusi-oct-primitive-square-title" id="si-oct-primitive-square"><title id="eusi-oct-primitive-square-title">icon primitive-square</title><path d="M8 8H0V0h8z"/></symbol><symbol viewBox="0 0 14 12" aria-labelledby="evsi-oct-pulse-title" id="si-oct-pulse"><title id="evsi-oct-pulse-title">icon pulse</title><path d="M11.5 6.4L8.8 3.8 6.6 6.9 5.5 0 2.38 6.4H0v2h3.6l.9-1.8.9 5.4L9 6.9l1.6 1.5H14v-2z"/></symbol><symbol viewBox="0 0 14 14" aria-labelledby="ewsi-oct-question-title" id="si-oct-question"><title id="ewsi-oct-question-title">icon question</title><path d="M6 9h2v2H6V9zm4-3.5C10 7.64 8 8 8 8H6c0-.55.45-1 1-1h.5c.28 0 .5-.22.5-.5v-1c0-.28-.22-.5-.5-.5h-1c-.28 0-.5.22-.5.5V6H4c0-1.5 1.5-3 3-3s3 1 3 2.5zM7 1.3c3.14 0 5.7 2.56 5.7 5.7s-2.56 5.7-5.7 5.7A5.71 5.71 0 0 1 1.3 7c0-3.14 2.56-5.7 5.7-5.7zM7 0C3.14 0 0 3.14 0 7s3.14 7 7 7 7-3.14 7-7-3.14-7-7-7z"/></symbol><symbol viewBox="0 0 13.169999122619629 12.670000076293945" aria-labelledby="exsi-oct-quote-title" id="si-oct-quote"><title id="exsi-oct-quote-title">icon quote</title><path d="M6.16 1.84C3.73 3.4 2.55 5.01 2.55 7.7c.16-.05.3-.05.44-.05 1.27 0 2.5.86 2.5 2.41 0 1.61-1.03 2.61-2.5 2.61-1.9 0-2.99-1.52-2.99-4.25C0 4.62 1.75 1.89 5.02 0l1.14 1.84zm7 0C10.73 3.4 9.55 5.01 9.55 7.7c.16-.05.3-.05.44-.05 1.27 0 2.5.86 2.5 2.41 0 1.61-1.03 2.61-2.5 2.61-1.89 0-2.98-1.52-2.98-4.25 0-3.8 1.75-6.53 5.02-8.42l1.14 1.84h-.01z"/></symbol><symbol viewBox="0 0 15.989999771118164 14.723795890808105" aria-labelledby="eysi-oct-radio-tower-title" id="si-oct-radio-tower"><title id="eysi-oct-radio-tower-title">icon radio-tower</title><path d="M4.78 5.844c.25-.25.25-.67 0-.92-.32-.33-.48-.76-.48-1.19 0-.43.16-.86.48-1.19.25-.26.25-.67 0-.92a.613.613 0 0 0-.45-.19c-.16 0-.33.06-.45.19-.57.58-.85 1.35-.85 2.11 0 .76.29 1.53.85 2.11.25.25.66.25.9 0zM2.32.254a.651.651 0 0 0-.92 0c-.93.96-1.4 2.22-1.4 3.47 0 1.26.47 2.52 1.4 3.48.25.26.66.26.91 0s.25-.68 0-.94c-.68-.7-1.02-1.62-1.02-2.54 0-.92.34-1.84 1.02-2.54a.66.66 0 0 0 .01-.93zm5.69 5.1a1.62 1.62 0 1 0-1.62-1.62c-.01.89.72 1.62 1.62 1.62zm6.57-5.09a.628.628 0 0 0-.91 0c-.25.26-.25.68 0 .94.68.7 1.02 1.62 1.02 2.54 0 .92-.34 1.83-1.02 2.54-.25.26-.25.68 0 .94a.651.651 0 0 0 .92 0c.93-.96 1.4-2.22 1.4-3.48a5.048 5.048 0 0 0-1.41-3.48zm-6.57 6.39c-.41 0-.83-.1-1.2-.3l-3.15 8.37h1.49l.86-1h4l.84 1h1.49L9.2 6.354c-.38.2-.78.3-1.19.3zm-.01.48l1.01 3.6h-2l.99-3.6zm-1.99 5.59l1-1h2l1 1h-4zm5.19-11.1c-.25.25-.25.67 0 .92.32.33.48.76.48 1.19 0 .43-.16.86-.48 1.19-.25.26-.25.67 0 .92a.63.63 0 0 0 .9 0c.57-.58.85-1.35.85-2.11 0-.76-.28-1.53-.85-2.11a.634.634 0 0 0-.9 0z"/></symbol><symbol viewBox="0 0 13.5 13.5" aria-labelledby="ezsi-oct-reply-title" id="si-oct-reply"><title id="ezsi-oct-reply-title">icon reply</title><path d="M5.5 3.5c3.92.44 8 3.125 8 10-2.312-5.062-4.75-6-8-6V11L0 5.5 5.5 0v3.5z"/></symbol><symbol viewBox="0 0 12 16" aria-labelledby="fasi-oct-repo-title" id="si-oct-repo"><title id="fasi-oct-repo-title">icon repo</title><path d="M4 9H3V8h1v1zm0-3H3v1h1V6zm0-2H3v1h1V4zm0-2H3v1h1V2zm8-1v12c0 .55-.45 1-1 1H6v2l-1.5-1.5L3 16v-2H1c-.55 0-1-.45-1-1V1c0-.55.45-1 1-1h10c.55 0 1 .45 1 1zm-1 10H1v2h2v-1h3v1h5v-2zm0-10H2v9h9V1z"/></symbol><symbol viewBox="0 0 16 16" aria-labelledby="fbsi-oct-repo-clone-title" id="si-oct-repo-clone"><title id="fbsi-oct-repo-clone-title">icon repo-clone</title><path d="M15 0H9v7c0 .55.45 1 1 1h1v1h1V8h3c.55 0 1-.45 1-1V1c0-.55-.45-1-1-1zm-4 7h-1V6h1v1zm4 0h-3V6h3v1zm0-2h-4V1h4v4zM4 5H3V4h1v1zm0-2H3V2h1v1zM2 1h6V0H1C.45 0 0 .45 0 1v12c0 .55.45 1 1 1h2v2l1.5-1.5L6 16v-2h5c.55 0 1-.45 1-1v-3H2V1zm9 10v2H6v-1H3v1H1v-2h10zM3 8h1v1H3V8zm1-1H3V6h1v1z"/></symbol><symbol viewBox="0 0 12 16" aria-labelledby="fcsi-oct-repo-force-push-title" id="si-oct-repo-force-push"><title id="fcsi-oct-repo-force-push-title">icon repo-force-push</title><path d="M10 9H8v7H6V9H4l2.25-3H4l3-4 3 4H7.75L10 9zm1-9H1C.45 0 0 .45 0 1v12c0 .55.45 1 1 1h4v-1H1v-2h4v-1H2V1h9v9H9v1h2v2H9v1h2c.55 0 1-.45 1-1V1c0-.55-.45-1-1-1z"/></symbol><symbol viewBox="0 0 10.328920364379883 14.004775047302246" aria-labelledby="fdsi-oct-repo-forked-title" id="si-oct-repo-forked"><title id="fdsi-oct-repo-forked-title">icon repo-forked</title><path d="M8.164.002a1.993 1.993 0 0 0-1 3.72v1.28l-2 2-2-2v-1.28a1.993 1.993 0 0 0-1-3.72 1.993 1.993 0 0 0-1 3.72v1.78l3 3v1.78a1.993 1.993 0 0 0 1 3.72 1.993 1.993 0 0 0 1-3.72v-1.78l3-3v-1.78a1.993 1.993 0 0 0-1-3.72zm-6 3.2c-.66 0-1.2-.55-1.2-1.2 0-.65.55-1.2 1.2-1.2.65 0 1.2.55 1.2 1.2 0 .65-.55 1.2-1.2 1.2zm3 10c-.66 0-1.2-.55-1.2-1.2 0-.65.55-1.2 1.2-1.2.65 0 1.2.55 1.2 1.2 0 .65-.55 1.2-1.2 1.2zm3-10c-.66 0-1.2-.55-1.2-1.2 0-.65.55-1.2 1.2-1.2.65 0 1.2.55 1.2 1.2 0 .65-.55 1.2-1.2 1.2z"/></symbol><symbol viewBox="0 0 16 16" aria-labelledby="fesi-oct-repo-pull-title" id="si-oct-repo-pull"><title id="fesi-oct-repo-pull-title">icon repo-pull</title><path d="M13 8V6H7V4h6V2l3 3-3 3zM4 2H3v1h1V2zm7 5h1v6c0 .55-.45 1-1 1H6v2l-1.5-1.5L3 16v-2H1c-.55 0-1-.45-1-1V1c0-.55.45-1 1-1h10c.55 0 1 .45 1 1v2h-1V1H2v9h9V7zm0 4H1v2h2v-1h3v1h5v-2zM4 6H3v1h1V6zm0-2H3v1h1V4zM3 9h1V8H3v1z"/></symbol><symbol viewBox="0 0 12 16" aria-labelledby="ffsi-oct-repo-push-title" id="si-oct-repo-push"><title id="ffsi-oct-repo-push-title">icon repo-push</title><path d="M4 3H3V2h1v1zM3 5h1V4H3v1zm4 0L4 9h2v7h2V9h2L7 5zm4-5H1C.45 0 0 .45 0 1v12c0 .55.45 1 1 1h4v-1H1v-2h4v-1H2V1h9.02L11 10H9v1h2v2H9v1h2c.55 0 1-.45 1-1V1c0-.55-.45-1-1-1z"/></symbol><symbol viewBox="0 0 16 16" aria-labelledby="fgsi-oct-rocket-title" id="si-oct-rocket"><title id="fgsi-oct-rocket-title">icon rocket</title><path d="M12.17 3.83c-.27-.27-.47-.55-.63-.88-.16-.31-.27-.66-.34-1.02-.58.33-1.16.7-1.73 1.13-.58.44-1.14.94-1.69 1.48-.7.7-1.33 1.81-1.78 2.45H3L0 10h3l2-2c-.34.77-1.02 2.98-1 3l1 1c.02.02 2.23-.64 3-1l-2 2v3l3-3v-3c.64-.45 1.75-1.09 2.45-1.78.55-.55 1.05-1.13 1.47-1.7.44-.58.81-1.16 1.14-1.72-.36-.08-.7-.19-1.03-.34a3.39 3.39 0 0 1-.86-.63M16 0s-.09.38-.3 1.06c-.2.7-.55 1.58-1.06 2.66-.7-.08-1.27-.33-1.66-.72-.39-.39-.63-.94-.7-1.64C13.36.84 14.23.48 14.92.28 15.62.08 16 0 16 0"/></symbol><symbol viewBox="0 0 10 10" aria-labelledby="fhsi-oct-rss-title" id="si-oct-rss"><title id="fhsi-oct-rss-title">icon rss</title><path d="M2 10H0V8c1.11 0 2 .89 2 2zM0 0v1a9 9 0 0 1 9 9h1C10 4.48 5.52 0 0 0zm0 4v1c2.75 0 5 2.25 5 5h1c0-3.31-2.69-6-6-6z"/></symbol><symbol viewBox="0 0 16 12" aria-labelledby="fisi-oct-ruby-title" id="si-oct-ruby"><title id="fisi-oct-ruby-title">icon ruby</title><path d="M13 4L8 9V2h3l2 2zm3 0l-8 8-8-8 4-4h8l4 4zm-8 6.5L14.5 4l-3-3h-7l-3 3L8 10.5z"/></symbol><symbol viewBox="0 0 14.992444038391113 15.000000953674316" aria-labelledby="fjsi-oct-search-title" id="si-oct-search"><title id="fjsi-oct-search-title">icon search</title><path d="M14.7 13.3l-3.81-3.83A5.93 5.93 0 0 0 12 6c0-3.31-2.69-6-6-6S0 2.69 0 6s2.69 6 6 6c1.3 0 2.48-.41 3.47-1.11l3.83 3.81c.19.2.45.3.7.3.25 0 .52-.09.7-.3a.996.996 0 0 0 0-1.41v.01zM6 10.7c-2.59 0-4.7-2.11-4.7-4.7 0-2.59 2.11-4.7 4.7-4.7 2.59 0 4.7 2.11 4.7 4.7 0 2.59-2.11 4.7-4.7 4.7z"/></symbol><symbol viewBox="0 0 12 14" aria-labelledby="fksi-oct-server-title" id="si-oct-server"><title id="fksi-oct-server-title">icon server</title><path d="M11 5H1c-.55 0-1 .45-1 1v2c0 .55.45 1 1 1h10c.55 0 1-.45 1-1V6c0-.55-.45-1-1-1zM2 8H1V6h1v2zm2 0H3V6h1v2zm2 0H5V6h1v2zm2 0H7V6h1v2zm3-8H1C.45 0 0 .45 0 1v2c0 .55.45 1 1 1h10c.55 0 1-.45 1-1V1c0-.55-.45-1-1-1zM2 3H1V1h1v2zm2 0H3V1h1v2zm2 0H5V1h1v2zm2 0H7V1h1v2zm3-1h-1V1h1v1zm0 8H1c-.55 0-1 .45-1 1v2c0 .55.45 1 1 1h10c.55 0 1-.45 1-1v-2c0-.55-.45-1-1-1zm-9 3H1v-2h1v2zm2 0H3v-2h1v2zm2 0H5v-2h1v2zm2 0H7v-2h1v2z"/></symbol><symbol viewBox="0 0 15 12" aria-labelledby="flsi-oct-settings-title" id="si-oct-settings"><title id="flsi-oct-settings-title">icon settings</title><path d="M3 5H2V0h1v5zm-1 7h1V9H2v3zm5 0h1V6H7v6zm5 0h1v-2h-1v2zm1-12h-1v6h1V0zM8 0H7v2h1V0zM4 6H1c-.55 0-1 .45-1 1s.45 1 1 1h3c.55 0 1-.45 1-1s-.45-1-1-1zm5-3H6c-.55 0-1 .45-1 1s.45 1 1 1h3c.55 0 1-.45 1-1s-.45-1-1-1zm5 4h-3c-.55 0-1 .45-1 1s.45 1 1 1h3c.55 0 1-.45 1-1s-.45-1-1-1z"/></symbol><symbol viewBox="0 0 14 16" aria-labelledby="fmsi-oct-shield-title" id="si-oct-shield"><title id="fmsi-oct-shield-title">icon shield</title><path d="M7 0L0 2v6.02C0 12.69 5.31 16 7 16c1.69 0 7-3.31 7-7.98V2L7 0zM5 11l1.14-2.8a.568.568 0 0 0-.25-.59C5.33 7.25 5 6.66 5 6c0-1.09.89-2 1.98-2C8.06 4 9 4.91 9 6c0 .66-.33 1.25-.89 1.61-.19.13-.3.36-.25.59L9 11H5z"/></symbol><symbol viewBox="0 0 13 16" aria-labelledby="fnsi-oct-sign-in-title" id="si-oct-sign-in"><title id="fnsi-oct-sign-in-title">icon sign-in</title><path d="M6 6.75V12h4V8h1v4c0 .55-.45 1-1 1H6v3L.55 13.28c-.33-.17-.55-.52-.55-.91V1c0-.55.45-1 1-1h9c.55 0 1 .45 1 1v3h-1V1H2l4 2v2.25L9 3v2h4v2H9v2L6 6.75z"/></symbol><symbol viewBox="0 0 16 16.010000228881836" aria-labelledby="fosi-oct-sign-out-title" id="si-oct-sign-out"><title id="fosi-oct-sign-out-title">icon sign-out</title><path d="M12 9V7H8V5h4V3l4 3-4 3zm-2 3H6V3L2 1h8v3h1V1c0-.55-.45-1-1-1H1C.45 0 0 .45 0 1v11.38c0 .39.22.73.55.91L6 16.01V13h4c.55 0 1-.45 1-1V8h-1v4z"/></symbol><symbol viewBox="0 0 16 16" aria-labelledby="fpsi-oct-smiley-title" id="si-oct-smiley"><title id="fpsi-oct-smiley-title">icon smiley</title><path d="M8 0C3.58 0 0 3.58 0 8s3.58 8 8 8 8-3.58 8-8-3.58-8-8-8zm4.81 12.81a6.72 6.72 0 0 1-2.17 1.45c-.83.36-1.72.53-2.64.53-.92 0-1.81-.17-2.64-.53-.81-.34-1.55-.83-2.17-1.45a6.773 6.773 0 0 1-1.45-2.17A6.59 6.59 0 0 1 1.21 8c0-.92.17-1.81.53-2.64.34-.81.83-1.55 1.45-2.17.62-.62 1.36-1.11 2.17-1.45A6.59 6.59 0 0 1 8 1.21c.92 0 1.81.17 2.64.53.81.34 1.55.83 2.17 1.45.62.62 1.11 1.36 1.45 2.17.36.83.53 1.72.53 2.64 0 .92-.17 1.81-.53 2.64-.34.81-.83 1.55-1.45 2.17zM4 6.8v-.59c0-.66.53-1.19 1.2-1.19h.59c.66 0 1.19.53 1.19 1.19v.59c0 .67-.53 1.2-1.19 1.2H5.2C4.53 8 4 7.47 4 6.8zm5 0v-.59c0-.66.53-1.19 1.2-1.19h.59c.66 0 1.19.53 1.19 1.19v.59c0 .67-.53 1.2-1.19 1.2h-.59C9.53 8 9 7.47 9 6.8zm4 3.2c-.72 1.88-2.91 3-5 3s-4.28-1.13-5-3c-.14-.39.23-1 .66-1h8.59c.41 0 .89.61.75 1z"/></symbol><symbol viewBox="0 0 16 14" aria-labelledby="fqsi-oct-squirrel-title" id="si-oct-squirrel"><title id="fqsi-oct-squirrel-title">icon squirrel</title><path d="M12 0C9.79 0 8 1.31 8 2.92 8 4.86 8.5 5.95 8 9c0-4.5-2.77-6.34-4-6.34.05-.5-.48-.66-.48-.66s-.22.11-.3.34c-.27-.31-.56-.27-.56-.27l-.13.58S.7 3.29.68 5.87c.2.33 1.53.6 2.47.43.89.05.67.79.47.99C2.78 8.13 2 7 1 7S0 8 1 8s1 1 3 1c-3.09 1.2 0 4 0 4H3c-1 0-1 1-1 1h6c3 0 5-1 5-3.47 0-.85-.43-1.79-1-2.53-1.11-1.46.23-2.68 1-2 .77.68 3 1 3-2 0-2.21-1.79-4-4-4zM2.5 5c-.28 0-.5-.22-.5-.5s.22-.5.5-.5.5.22.5.5-.22.5-.5.5z"/></symbol><symbol viewBox="0 0 14 13" aria-labelledby="frsi-oct-star-title" id="si-oct-star"><title id="frsi-oct-star-title">icon star</title><path d="M14 5l-4.9-.64L7 0 4.9 4.36 0 5l3.6 3.26L2.67 13 7 10.67 11.33 13l-.93-4.74z"/></symbol><symbol viewBox="0 0 14 14" aria-labelledby="fssi-oct-stop-title" id="si-oct-stop"><title id="fssi-oct-stop-title">icon stop</title><path d="M10 0H4L0 4v6l4 4h6l4-4V4l-4-4zm3 9.5L9.5 13h-5L1 9.5v-5L4.5 1h5L13 4.5v5zM6 3h2v5H6V3zm0 6h2v2H6V9z"/></symbol><symbol viewBox="0 0 12.129372596740723 12.959999084472656" aria-labelledby="ftsi-oct-sync-title" id="si-oct-sync"><title id="ftsi-oct-sync-title">icon sync</title><path d="M10.3 5.88a4.15 4.15 0 0 1-1.2 3.6 4.346 4.346 0 0 1-5.41.54l1.17-1.14-4.3-.6.6 4.2 1.31-1.26c2.36 1.74 5.7 1.57 7.84-.54a5.876 5.876 0 0 0 1.74-4.46l-1.75-.34zm-7.28-2.4a4.346 4.346 0 0 1 5.41-.54L7.26 4.08l4.3.6-.6-4.2-1.31 1.26C7.29 0 3.95.17 1.8 2.28.56 3.51 0 5.13.07 6.74l1.75.35a4.17 4.17 0 0 1 1.2-3.61z"/></symbol><symbol viewBox="0 0 13.082443237304688 13.190000534057617" aria-labelledby="fusi-oct-tag-title" id="si-oct-tag"><title id="fusi-oct-tag-title">icon tag</title><path d="M6.73.73C6.26.26 5.62 0 4.96 0H2.5C1.13 0 0 1.13 0 2.5v2.47c0 .66.27 1.3.73 1.77l6.06 6.06c.39.39 1.02.39 1.41 0l4.59-4.59a.996.996 0 0 0 0-1.41L6.73.73zM1.38 6.09c-.31-.3-.47-.7-.47-1.13V2.5c0-.88.72-1.59 1.59-1.59h2.47c.42 0 .83.16 1.13.47l6.14 6.13-4.73 4.73-6.13-6.15zM2.01 2h2v2H2V2h.01z"/></symbol><symbol viewBox="0 0 15.989999771118164 14" aria-labelledby="fvsi-oct-tasklist-title" id="si-oct-tasklist"><title id="fvsi-oct-tasklist-title">icon tasklist</title><path d="M15.41 9H7.59C7 9 7 8.59 7 8c0-.59 0-1 .59-1h7.81c.59 0 .59.41.59 1 0 .59 0 1-.59 1h.01zM9.59 4C9 4 9 3.59 9 3c0-.59 0-1 .59-1h5.81c.59 0 .59.41.59 1 0 .59 0 1-.59 1H9.59zM0 3.91l1.41-1.3L3 4.2 7.09 0 8.5 1.41 3 6.91l-3-3zM7.59 12h7.81c.59 0 .59.41.59 1 0 .59 0 1-.59 1H7.59C7 14 7 13.59 7 13c0-.59 0-1 .59-1z"/></symbol><symbol viewBox="0 0 12.533446311950684 16" aria-labelledby="fwsi-oct-telescope-title" id="si-oct-telescope"><title id="fwsi-oct-telescope-title">icon telescope</title><path d="M7.653 9l3 6h-1l-2-4v5h-1v-6l-2 5h-1l2-5 2-1zm-1-9h-1v1h1V0zm-2 3h-1v1h1V3zm-3-2h-1v1h1V1zM.283 9a.52.52 0 0 0-.16.67l.55.92c.13.23.41.31.64.2l1.39-.66-1.16-2-1.27.86.01.01zm7.89-5.39l-5.8 3.95 1.23 2.14 6.33-3.03-1.77-3.06h.01zm4.22 1.28l-1.47-2.52a.51.51 0 0 0-.72-.17l-1.2.83 1.84 3.2 1.33-.64c.27-.13.36-.44.22-.7z"/></symbol><symbol viewBox="0 0 14 12" aria-labelledby="fxsi-oct-terminal-title" id="si-oct-terminal"><title id="fxsi-oct-terminal-title">icon terminal</title><path d="M7 8h4v1H7V8zM4 9l3-3-3-3-.75.75L5.5 6 3.25 8.25 4 9zm10-8v10c0 .55-.45 1-1 1H1c-.55 0-1-.45-1-1V1c0-.55.45-1 1-1h12c.55 0 1 .45 1 1zm-1 0H1v10h12V1z"/></symbol><symbol viewBox="0 0 17.31999969482422 12" aria-labelledby="fysi-oct-text-size-title" id="si-oct-text-size"><title id="fysi-oct-text-size-title">icon text-size</title><path d="M13.62 7.08L12.1 1.66h-.06l-1.5 5.42h3.08zM5.7 8.13S4.68 4.52 4.53 4.02h-.08L3.32 8.13H5.7zM17.31 12h-2.25l-.95-3.25h-4.07L9.09 12H6.84l-.69-2.33H2.87L2.17 12H0l3.3-9.59h2.5l2.17 6.34L10.86 0h2.52l3.94 12h-.01z"/></symbol><symbol viewBox="0 0 11.989999771118164 10" aria-labelledby="fzsi-oct-three-bars-title" id="si-oct-three-bars"><title id="fzsi-oct-three-bars-title">icon three-bars</title><path d="M11.41 6H.59C0 6 0 5.59 0 5c0-.59 0-1 .59-1H11.4c.59 0 .59.41.59 1 0 .59 0 1-.59 1h.01zm0-4H.59C0 2 0 1.59 0 1c0-.59 0-1 .59-1H11.4c.59 0 .59.41.59 1 0 .59 0 1-.59 1h.01zM.59 8H11.4c.59 0 .59.41.59 1 0 .59 0 1-.59 1H.59C0 10 0 9.59 0 9c0-.59 0-1 .59-1z"/></symbol><symbol viewBox="0 0 16.020000457763672 16.010000228881836" aria-labelledby="gasi-oct-thumbsdown-title" id="si-oct-thumbsdown"><title id="gasi-oct-thumbsdown-title">icon thumbsdown</title><path d="M15.98 7.83l-.97-5.95C14.84.5 13.13 0 12 0H5.69c-.2 0-.38.05-.53.14L3.72 1H2C.94 1 0 1.94 0 3v4c0 1.06.94 2.02 2 2h2c.91 0 1.39.45 2.39 1.55.91 1 .88 1.8.63 3.27-.08.5.06 1 .42 1.42.39.47.98.77 1.56.77 1.83 0 3-3.72 3-5.02l-.02-.98h2.04c1.16 0 1.95-.8 1.98-1.97 0-.06.02-.13-.02-.2v-.01zm-1.97 1.19h-1.99c-.7 0-1.03.28-1.03.97l.03 1.03c0 1.27-1.17 4-2 4-.5 0-1.08-.5-1-1 .25-1.58.34-2.78-.89-4.14C6.11 8.75 5.36 8 4 8V2l1.67-1H12c.73 0 1.95.31 2 1l.02.02 1 6c-.03.64-.38 1-1 1h-.01z"/></symbol><symbol viewBox="0 0 16.010000228881836 16" aria-labelledby="gbsi-oct-thumbsup-title" id="si-oct-thumbsup"><title id="gbsi-oct-thumbsup-title">icon thumbsup</title><path d="M14 14c-.05.69-1.27 1-2 1H5.67L4 14V8c1.36 0 2.11-.75 3.13-1.88 1.23-1.36 1.14-2.56.88-4.13-.08-.5.5-1 1-1 .83 0 2 2.73 2 4l-.02 1.03c0 .69.33.97 1.02.97h2c.63 0 .98.36 1 1l-1 6L14 14zm0-8h-2.02l.02-.98C12 3.72 10.83 0 9 0c-.58 0-1.17.3-1.56.77-.36.41-.5.91-.42 1.41.25 1.48.28 2.28-.63 3.28-1 1.09-1.48 1.55-2.39 1.55H2C.94 7 0 7.94 0 9v4c0 1.06.94 2 2 2h1.72l1.44.86c.16.09.33.14.52.14h6.33c1.13 0 2.84-.5 3-1.88l.98-5.95c.02-.08.02-.14.02-.2-.03-1.17-.84-1.97-2-1.97H14z"/></symbol><symbol viewBox="0 0 16.190000534057617 15.999999046325684" aria-labelledby="gcsi-oct-tools-title" id="si-oct-tools"><title id="gcsi-oct-tools-title">icon tools</title><path d="M4.67 7.27c.26.26 1.28 1.33 1.28 1.33l.56-.58-.88-.91 1.69-1.8s-.76-.74-.43-.45c.32-1.19.03-2.51-.87-3.44C5.12.5 3.85.2 2.71.51l1.93 2-.51 1.96-1.89.52-1.93-2C0 4.17.29 5.48 1.19 6.4c.94.98 2.29 1.26 3.48.87zm6.44 1.94l-2.33 2.3 3.84 3.98c.31.33.73.49 1.14.49.41 0 .82-.16 1.14-.49.63-.65.63-1.7 0-2.35l-3.79-3.93zm5.08-6.68L13.74 0 6.52 7.46l.88.91-4.31 4.46-.99.53-1.39 2.27.35.37 2.2-1.44.51-1.02 4.32-4.46.88.91 7.22-7.46z"/></symbol><symbol viewBox="0 0 11 14" aria-labelledby="gdsi-oct-trashcan-title" id="si-oct-trashcan"><title id="gdsi-oct-trashcan-title">icon trashcan</title><path d="M10 1H8c0-.55-.45-1-1-1H4c-.55 0-1 .45-1 1H1c-.55 0-1 .45-1 1v1c0 .55.45 1 1 1v9c0 .55.45 1 1 1h7c.55 0 1-.45 1-1V4c.55 0 1-.45 1-1V2c0-.55-.45-1-1-1zM9 13H2V4h1v8h1V4h1v8h1V4h1v8h1V4h1v9zm1-10H1V2h9v1z"/></symbol><symbol viewBox="0 0 12 6" aria-labelledby="gesi-oct-triangle-down-title" id="si-oct-triangle-down"><title id="gesi-oct-triangle-down-title">icon triangle-down</title><path d="M0 0l6 6 6-6z"/></symbol><symbol viewBox="0 0 6 12" aria-labelledby="gfsi-oct-triangle-left-title" id="si-oct-triangle-left"><title id="gfsi-oct-triangle-left-title">icon triangle-left</title><path d="M6 0L0 6l6 6z"/></symbol><symbol viewBox="0 0 6 12" aria-labelledby="ggsi-oct-triangle-right-title" id="si-oct-triangle-right"><title id="ggsi-oct-triangle-right-title">icon triangle-right</title><path d="M0 12l6-6-6-6z"/></symbol><symbol viewBox="0 0 12 6" aria-labelledby="ghsi-oct-triangle-up-title" id="si-oct-triangle-up"><title id="ghsi-oct-triangle-up-title">icon triangle-up</title><path d="M12 6L6 0 0 6z"/></symbol><symbol viewBox="0 0 14 15" aria-labelledby="gisi-oct-unfold-title" id="si-oct-unfold"><title id="gisi-oct-unfold-title">icon unfold</title><path d="M11.5 7.5L14 10c0 .55-.45 1-1 1H9v-1h3.5l-2-2h-7l-2 2H5v1H1c-.55 0-1-.45-1-1l2.5-2.5L0 5c0-.55.45-1 1-1h4v1H1.5l2 2h7l2-2H9V4h4c.55 0 1 .45 1 1l-2.5 2.5zM6 6h2V3h2L7 0 4 3h2v3zm2 3H6v3H4l3 3 3-3H8V9z"/></symbol><symbol viewBox="0 0 15.004648208618164 12.380001068115234" aria-labelledby="gjsi-oct-unmute-title" id="si-oct-unmute"><title id="gjsi-oct-unmute-title">icon unmute</title><path d="M11 6.21c0 1.09-.45 2.09-1.17 2.83l-.67-.67c.55-.56.89-1.31.89-2.16 0-.85-.34-1.61-.89-2.16l.67-.67A3.99 3.99 0 0 1 11 6.21zM6.72.47L3 4.19H1c-.55 0-1 .45-1 1v2c0 .55.45 1 1 1h2l3.72 3.72c.47.47 1.28.14 1.28-.53V1c0-.67-.81-1-1.28-.53zm5.94.08l-.67.67a6.996 6.996 0 0 1 2.06 4.98c0 1.94-.78 3.7-2.06 4.98l.67.67A7.973 7.973 0 0 0 15 6.19c0-2.22-.89-4.22-2.34-5.66v.02zm-1.41 1.41l-.69.67a5.05 5.05 0 0 1 1.48 3.58c0 1.39-.56 2.66-1.48 3.56l.69.67A5.971 5.971 0 0 0 13 6.21c0-1.65-.67-3.16-1.75-4.25z"/></symbol><symbol viewBox="0 0 16.23000144958496 16.23000144958496" aria-labelledby="gksi-oct-unverified-title" id="si-oct-unverified"><title id="gksi-oct-unverified-title">icon unverified</title><path d="M15.79 7.18l-1.08-1.34c-.17-.22-.28-.48-.31-.77l-.19-1.7a1.51 1.51 0 0 0-1.33-1.33l-1.7-.19c-.3-.03-.56-.16-.78-.33L9.06.44C8.51 0 7.73 0 7.18.44L5.84 1.52c-.22.17-.48.28-.77.31l-1.7.19c-.7.08-1.25.63-1.33 1.33l-.19 1.7c-.03.3-.16.56-.33.78L.44 7.17C0 7.72 0 8.5.44 9.05l1.08 1.34c.17.22.28.48.31.77l.19 1.7c.08.7.63 1.25 1.33 1.33l1.7.19c.3.03.56.16.78.33l1.34 1.08c.55.44 1.33.44 1.88 0l1.34-1.08c.22-.17.48-.28.77-.31l1.7-.19c.7-.08 1.25-.63 1.33-1.33l.19-1.7c.03-.3.16-.56.33-.78l1.08-1.34c.44-.55.44-1.33 0-1.88zm-6.67 4.44c0 .28-.22.5-.5.5h-1c-.27 0-.5-.22-.5-.5v-1c0-.28.23-.5.5-.5h1c.28 0 .5.22.5.5v1zm1.56-4.89c-.06.17-.17.33-.3.47-.13.16-.14.19-.33.38-.16.17-.31.3-.52.45-.11.09-.2.19-.28.27-.08.08-.14.17-.19.27-.05.1-.08.19-.11.3-.03.11-.03.13-.03.25H7.25c0-.22 0-.31.03-.48.03-.19.08-.36.14-.52.06-.14.14-.28.25-.42.11-.13.23-.25.41-.38.27-.19.36-.3.48-.52.12-.22.2-.38.2-.59 0-.27-.06-.45-.2-.58-.13-.13-.31-.19-.58-.19-.09 0-.19.02-.3.05-.11.03-.17.09-.25.16-.08.07-.14.11-.2.2a.41.41 0 0 0-.09.28h-2c0-.38.13-.56.27-.83.16-.27.36-.5.61-.67.25-.17.55-.3.88-.38.33-.08.7-.13 1.09-.13.44 0 .83.05 1.17.13.34.09.63.22.88.39.23.17.41.38.55.63.13.25.19.55.19.88 0 .22 0 .42-.08.59l-.02-.01z"/></symbol><symbol viewBox="0 0 16.23000144958496 16.23000144958496" aria-labelledby="glsi-oct-verified-title" id="si-oct-verified"><title id="glsi-oct-verified-title">icon verified</title><path d="M15.79 7.18l-1.08-1.34c-.17-.22-.28-.48-.31-.77l-.19-1.7a1.51 1.51 0 0 0-1.33-1.33l-1.7-.19c-.3-.03-.56-.16-.78-.33L9.06.44C8.51 0 7.73 0 7.18.44L5.84 1.52c-.22.17-.48.28-.77.31l-1.7.19c-.7.08-1.25.63-1.33 1.33l-.19 1.7c-.03.3-.16.56-.33.78L.44 7.17C0 7.72 0 8.5.44 9.05l1.08 1.34c.17.22.28.48.31.77l.19 1.7c.08.7.63 1.25 1.33 1.33l1.7.19c.3.03.56.16.78.33l1.34 1.08c.55.44 1.33.44 1.88 0l1.34-1.08c.22-.17.48-.28.77-.31l1.7-.19c.7-.08 1.25-.63 1.33-1.33l.19-1.7c.03-.3.16-.56.33-.78l1.08-1.34c.44-.55.44-1.33 0-1.88zm-9.17 4.94l-3.5-3.5 1.5-1.5 2 2 5-5 1.5 1.55-6.5 6.45z"/></symbol><symbol viewBox="0 0 14 10" aria-labelledby="gmsi-oct-versions-title" id="si-oct-versions"><title id="gmsi-oct-versions-title">icon versions</title><path d="M13 0H7c-.55 0-1 .45-1 1v8c0 .55.45 1 1 1h6c.55 0 1-.45 1-1V1c0-.55-.45-1-1-1zm-1 8H8V2h4v6zM4 1h1v1H4v6h1v1H4c-.55 0-1-.45-1-1V2c0-.55.45-1 1-1zM1 2h1v1H1v4h1v1H1c-.55 0-1-.45-1-1V3c0-.55.45-1 1-1z"/></symbol><symbol viewBox="0 0 12 16" aria-labelledby="gnsi-oct-watch-title" id="si-oct-watch"><title id="gnsi-oct-watch-title">icon watch</title><path d="M6 8h2v1H5V5h1v3zm6 0c0 2.22-1.2 4.16-3 5.19V15c0 .55-.45 1-1 1H4c-.55 0-1-.45-1-1v-1.81C1.2 12.16 0 10.22 0 8s1.2-4.16 3-5.19V1c0-.55.45-1 1-1h4c.55 0 1 .45 1 1v1.81c1.8 1.03 3 2.97 3 5.19zm-1 0c0-2.77-2.23-5-5-5S1 5.23 1 8s2.23 5 5 5 5-2.23 5-5z"/></symbol><symbol viewBox="0 0 10.459999084472656 10.459999084472656" aria-labelledby="gosi-oct-x-title" id="si-oct-x"><title id="gosi-oct-x-title">icon x</title><path d="M6.71 5.23l3.75 3.75-1.48 1.48-3.75-3.75-3.75 3.75L0 8.98l3.75-3.75L0 1.48 1.48 0l3.75 3.75L8.98 0l1.48 1.48z"/></symbol><symbol viewBox="0 0 10 16" aria-labelledby="gpsi-oct-zap-title" id="si-oct-zap"><title id="gpsi-oct-zap-title">icon zap</title><path d="M10 7H6l3-7-9 9h4l-3 7z"/></symbol></defs></svg>