<?xml version="1.0" encoding="utf-8"?><svg xmlns="http://www.w3.org/2000/svg" xmlns:xlink="http://www.w3.org/1999/xlink" style="width:0;height:0;position:absolute;opacity:0;"><symbol viewBox="0 0 8 7" id="si-open-account-login"><path d="M3 0v1h4v5H3v1h5V0H3zm1 2v1H0v1h4v1l2-1.5L4 2z"/></symbol><symbol viewBox="0 0 8 7" id="si-open-account-logout"><path d="M3 0v1h4v5H3v1h5V0H3zM2 2L0 3.5 2 5V4h4V3H2V2z"/></symbol><symbol viewBox="0 0 8 6" id="si-open-action-redo"><path d="M3.5 0C1.57 0 0 1.57 0 3.5a2.5 2.5 0 0 1 5 0V4H4l2 2 2-2H7v-.5C7 1.57 5.43 0 3.5 0z"/></symbol><symbol viewBox="0 0 8 6" id="si-open-action-undo"><path d="M4.5 0C2.57 0 1 1.57 1 3.5V4H0l2 2 2-2H3v-.5a2.5 2.5 0 0 1 5 0C8 1.57 6.43 0 4.5 0z"/></symbol><symbol viewBox="0 0 8 7" id="si-open-align-center"><path d="M0 0v1h8V0H0zm1 2v1h6V2H1zM0 4v1h8V4H0zm1 2v1h6V6H1z"/></symbol><symbol viewBox="0 0 8 7" id="si-open-align-left"><path d="M0 0v1h8V0H0zm0 2v1h6V2H0zm0 2v1h8V4H0zm0 2v1h6V6H0z"/></symbol><symbol viewBox="0 0 8 7" id="si-open-align-right"><path d="M0 0v1h8V0H0zm2 2v1h6V2H2zM0 4v1h8V4H0zm2 2v1h6V6H2z"/></symbol><symbol viewBox="0 0 8.010000228881836 7.9800004959106445" id="si-open-aperture"><path d="M4 0c-.69 0-1.34.19-1.91.5l3.22 2.34.75-2.25C5.46.23 4.75 0 4 0zM1.25 1.13C.49 1.86 0 2.87 0 4.01c0 .25.02.48.06.72l3.09-2.22-1.91-1.38zm5.63.13L5.66 5.01h2.19c.08-.32.16-.65.16-1 0-1.07-.44-2.03-1.13-2.75zM2.16 4.48L.41 5.73c.55 1.13 1.6 1.99 2.88 2.22L2.16 4.48zm1.56 1.53l.63 1.97c1.33-.12 2.46-.88 3.09-1.97H3.72z"/></symbol><symbol viewBox="0 0 5 8" id="si-open-arrow-bottom"><path d="M2 0v5H0l2.53 3L5 5H3V0H2z"/></symbol><symbol viewBox="0 0 8 8" id="si-open-arrow-circle-bottom"><path d="M4 0C1.79 0 0 1.79 0 4s1.79 4 4 4 4-1.79 4-4-1.79-4-4-4zM3 1h2v3h2L4 7 1 4h2V1z"/></symbol><symbol viewBox="0 0 8 8" id="si-open-arrow-circle-left"><path d="M4 0C1.79 0 0 1.79 0 4s1.79 4 4 4 4-1.79 4-4-1.79-4-4-4zm0 1v2h3v2H4v2L1 4l3-3z"/></symbol><symbol viewBox="0 0 8 8" id="si-open-arrow-circle-right"><path d="M4 0C1.79 0 0 1.79 0 4s1.79 4 4 4 4-1.79 4-4-1.79-4-4-4zm0 1l3 3-3 3V5H1V3h3V1z"/></symbol><symbol viewBox="0 0 8 8" id="si-open-arrow-circle-top"><path d="M4 0C1.79 0 0 1.79 0 4s1.79 4 4 4 4-1.79 4-4-1.79-4-4-4zm0 1l3 3H5v3H3V4H1l3-3z"/></symbol><symbol viewBox="0 0 8 5" id="si-open-arrow-left"><path d="M3 0L0 2.53 3 5V3h5V2H3V0z"/></symbol><symbol viewBox="0 0 8 5" id="si-open-arrow-right"><path d="M5 0v2H0v1h5v2l3-2.53L5 0z"/></symbol><symbol viewBox="0 0 6 8" id="si-open-arrow-thick-bottom"><path d="M2 0v5H0l3.03 3L6 5H4V0H2z"/></symbol><symbol viewBox="0 0 8 6" id="si-open-arrow-thick-left"><path d="M3 0L0 3.03 3 6V4h5V2H3V0z"/></symbol><symbol viewBox="0 0 8 6" id="si-open-arrow-thick-right"><path d="M5 0v2H0v2h5v2l3-3.03L5 0z"/></symbol><symbol viewBox="0 0 6 8" id="si-open-arrow-thick-top"><path d="M2.97 0L0 3h2v5h2V3h2L2.97 0z"/></symbol><symbol viewBox="0 0 5 8" id="si-open-arrow-top"><path d="M2.47 0L0 3h2v5h1V3h2L2.47 0z"/></symbol><symbol viewBox="0 0 8.010000228881836 5.670000076293945" id="si-open-audio"><path d="M1.16.01C.44.73 0 1.72 0 2.82s.43 2.12 1.16 2.84l.72-.72C1.34 4.4 1 3.65 1 2.81c0-.83.33-1.55.88-2.09L1.16 0zm5.69 0l-.72.72c.54.54.88 1.26.88 2.09 0 .83-.33 1.58-.88 2.13l.72.72c.72-.72 1.16-1.74 1.16-2.84 0-1.1-.43-2.09-1.16-2.81zM2.6 1.42c-.36.36-.59.86-.59 1.41 0 .55.23 1.08.59 1.44l.69-.72c-.18-.18-.28-.44-.28-.72 0-.28.1-.5.28-.69l-.69-.72zm2.81 0l-.69.72c.18.18.28.41.28.69 0 .28-.1.54-.28.72l.69.72c.36-.36.59-.89.59-1.44 0-.55-.23-1.05-.59-1.41z"/></symbol><symbol viewBox="0 0 7 8" id="si-open-audio-spectrum"><path d="M4 0v8h1V0H4zM2 1v6h1V1H2zm4 1v4h1V2H6zM0 3v2h1V3H0z"/></symbol><symbol viewBox="0 0 4 8" id="si-open-badge"><path d="M2 0C.9 0 0 .9 0 2s.9 2 2 2 2-.9 2-2-.9-2-2-2zM1 4.81V8l1-1 1 1V4.81c-.31.11-.65.19-1 .19s-.69-.08-1-.19z"/></symbol><symbol viewBox="0 0 8 8" id="si-open-ban"><path d="M4 0C1.8 0 0 1.8 0 4s1.8 4 4 4 4-1.8 4-4-1.8-4-4-4zm0 1c.66 0 1.26.21 1.75.56L1.56 5.75C1.21 5.26 1 4.66 1 4c0-1.66 1.34-3 3-3zm2.44 1.25C6.79 2.74 7 3.34 7 4c0 1.66-1.34 3-3 3-.66 0-1.26-.21-1.75-.56l4.19-4.19z"/></symbol><symbol viewBox="0 0 8 7" id="si-open-bar-chart"><path d="M0 0v7h8V6H1V0H0zm5 0v5h2V0H5zM2 2v3h2V2H2z"/></symbol><symbol viewBox="0 0 7.989999771118164 8.020000457763672" id="si-open-basket"><path d="M3.96.02c-.13.01-.26.08-.34.19L1.28 3.02H0v1h1v3.66c0 .18.16.34.34.34h5.31c.18 0 .34-.16.34-.34V4.02h1v-1H6.71C6.44 2.69 4.32.16 4.3.14 4.19.05 4.08 0 3.96.01zm.03 1.28l1.44 1.72H2.55L3.99 1.3zm-1.5 3.72c.28 0 .5.22.5.5v1c0 .28-.22.5-.5.5s-.5-.22-.5-.5v-1c0-.28.22-.5.5-.5zm3 0c.28 0 .5.22.5.5v1c0 .28-.22.5-.5.5s-.5-.22-.5-.5v-1c0-.28.22-.5.5-.5z"/></symbol><symbol viewBox="0 0 7.990000247955322 6" id="si-open-battery-empty"><path d="M.09.01C.03.01 0 .05 0 .1v5.81c0 .05.04.09.09.09H6.9c.05 0 .09-.04.09-.09V4h1V2h-1V.09C6.99.03 6.95 0 6.9 0H.09zm.91 1h5v4H1v-4z"/></symbol><symbol viewBox="0 0 7.990000247955322 6" id="si-open-battery-full"><path d="M.09.01C.03.01 0 .05 0 .1v5.81c0 .05.04.09.09.09H6.9c.05 0 .09-.04.09-.09V4h1V2h-1V.09C6.99.03 6.95 0 6.9 0H.09z"/></symbol><symbol viewBox="0 0 8.010000228881836 8.002705574035645" id="si-open-beaker"><path d="M1.34.003a.506.506 0 0 0 .16 1H2v1.41c-.09.17-1.2 2.31-1.66 3.09-.16.26-.34.61-.34 1.06 0 .39.15.77.41 1.03s.64.41 1.03.41h5.13c.38 0 .74-.16 1-.41h.03c.26-.26.41-.64.41-1.03 0-.45-.19-.8-.34-1.06-.46-.78-1.57-2.92-1.66-3.09v-1.41h.5a.5.5 0 1 0 0-1h-5a.5.5 0 0 0-.09 0 .5.5 0 0 0-.06 0zm1.66 1h2v1.63l.06.09s.63 1.23 1.19 2.28h-4.5c.56-1.05 1.19-2.28 1.19-2.28l.06-.09v-1.63z"/></symbol><symbol viewBox="0 0 8 8" id="si-open-bell"><path d="M4 0C2.9 0 2 .9 2 2 2 3.04 1.48 3.98.66 4.66.25 5 0 5.48 0 6h8c0-.52-.24-1-.66-1.34C6.52 3.98 6 3.04 6 2a2 2 0 0 0-2-2zM3 7c0 .55.45 1 1 1s1-.45 1-1H3z"/></symbol><symbol viewBox="0 0 5.5 8" id="si-open-bluetooth"><path d="M1.5 0v2.5l-.75-.75L0 2.5 1.5 4 0 5.5l.75.75.75-.75V8H2l3.5-2.5-2.25-1.53L5.5 2.5 2 0h-.5zm1 1.5l1.5 1-1.5 1v-2zm0 3l1.5 1-1.5 1v-2z"/></symbol><symbol viewBox="0 0 8 8" id="si-open-bold"><path d="M0 0v1c.55 0 1 .45 1 1v4c0 .55-.45 1-1 1v1h5.5A2.5 2.5 0 0 0 8 5.5c0-1-.59-1.85-1.44-2.25A2 2 0 0 0 5 0H0zm3 1h1c.55 0 1 .45 1 1s-.45 1-1 1H3V1zm0 3h1.5C5.33 4 6 4.67 6 5.5S5.33 7 4.5 7H3V4z"/></symbol><symbol viewBox="0 0 5 8" id="si-open-bolt"><path d="M3 0L0 5h2v3l3-5H3V0z"/></symbol><symbol viewBox="0 0 7 8" id="si-open-book"><path d="M1 0C.93 0 .87.01.81.03.42.11.11.42.03.81 0 .87 0 .93 0 1v5.5C0 7.33.67 8 1.5 8H7V7H1.5c-.28 0-.5-.22-.5-.5s.22-.5.5-.5H7V.5c0-.28-.22-.5-.5-.5H6v3L5 2 4 3V0H1z"/></symbol><symbol viewBox="0 0 4 8" id="si-open-bookmark"><path d="M0 0v8l2-2 2 2V0H0z"/></symbol><symbol viewBox="0 0 8.010000228881836 8" id="si-open-box"><path d="M.01 0v1h8V0h-8zm0 2v5.91c0 .05.04.09.09.09h7.81c.05 0 .09-.04.09-.09V2H5.03v1.03H3V2H0z"/></symbol><symbol viewBox="0 0 8.010000228881836 8" id="si-open-briefcase"><path d="M3.01 0c-.55 0-1 .45-1 1v1H.1c-.06 0-.09.04-.09.09V4.5c0 .28.22.5.5.5h7c.28 0 .5-.22.5-.5V2.09c0-.06-.04-.09-.09-.09H6.01V1c0-.55-.45-1-1-1h-2zm0 1h2v1h-2V1zm-3 4.91v2c0 .05.04.09.09.09h7.81c.05 0 .09-.04.09-.09v-2c-.16.06-.32.09-.5.09h-7c-.18 0-.34-.04-.5-.09z"/></symbol><symbol viewBox="0 0 6 8.010000228881836" id="si-open-british-pound"><path d="M3 0c-.62 0-1.16.26-1.5.69-.34.43-.5.99-.5 1.56 0 .69.16 1.25.25 1.75H0v1h1.22c-.11.45-.37.96-1.06 1.66L0 6.79v1.22h6v-1H1.09c.64-.73.98-1.4 1.13-2H4v-1H2.28C2.2 3.33 2 2.77 2 2.26c0-.39.11-.73.28-.94.17-.21.37-.31.72-.31.39 0 .61.11.75.25s.25.36.25.75h1c0-.58-.17-1.1-.53-1.47C4.1.17 3.58.01 3 .01z"/></symbol><symbol viewBox="0 0 8.011695861816406 8.002705574035645" id="si-open-browser"><path d="M.352.003a.5.5 0 0 0-.34.5v7a.5.5 0 0 0 .5.5h7a.5.5 0 0 0 .5-.5v-7a.5.5 0 0 0-.5-.5h-7a.5.5 0 0 0-.09 0 .5.5 0 0 0-.06 0zm1.16 1c.28 0 .5.22.5.5s-.22.5-.5.5-.5-.22-.5-.5.22-.5.5-.5zm2 0h3c.28 0 .5.22.5.5s-.22.5-.5.5h-3c-.28 0-.5-.22-.5-.5s.22-.5.5-.5zm-2.5 2h6v4h-6v-4z"/></symbol><symbol viewBox="0 0 7.96999979019165 7.970000267028809" id="si-open-brush"><path d="M7.43.01c-.03 0-.04.02-.06.03L3.62 2.7c-.04.03-.1.11-.13.16l-.13.25c.72.23 1.27.78 1.5 1.5l.25-.13c.05-.03.12-.08.16-.13L7.93.6c.03-.05.04-.09 0-.13L7.49.03C7.47.01 7.45 0 7.43 0zM2.65 3.98c-.74 0-1.31.61-1.31 1.34 0 .99-.55 1.85-1.34 2.31.39.22.86.34 1.34.34C2.81 7.97 4 6.79 4 5.31c0-.74-.61-1.34-1.34-1.34z"/></symbol><symbol viewBox="0 0 7.200721263885498 7.709999084472656" id="si-open-bug"><path d="M3.59.01C2.4.01 1.61 1.7 2.4 2.51c-.09.07-.2.14-.28.22L.81 2.07a.5.5 0 0 0-.34-.06.5.5 0 0 0-.09.94l1.16.56c-.09.16-.19.33-.25.5H.6a.5.5 0 0 0-.09 0 .502.502 0 1 0 .09 1h.5c0 .23.02.45.06.66l-.78.41a.5.5 0 1 0 .44.88l.66-.34c.25.46.62.85 1.03 1.09.35-.19.59-.44.59-.72V5.55a.5.5 0 0 0 0-.09v-.81a.5.5 0 0 0 0-.22c.05-.23.26-.41.5-.41.28 0 .5.22.5.5v.88a.5.5 0 0 0 0 .09v.06a.5.5 0 0 0 0 .09v1.34c0 .27.24.53.59.72.41-.25.79-.63 1.03-1.09l.66.34a.5.5 0 1 0 .44-.88l-.78-.41c.04-.21.06-.43.06-.66h.5a.5.5 0 1 0 0-1h-.69c-.06-.17-.16-.34-.25-.5l1.16-.56A.5.5 0 0 0 6.51 2a.5.5 0 0 0-.13.06l-1.31.66c-.09-.08-.19-.15-.28-.22.78-.83 0-2.5-1.19-2.5z"/></symbol><symbol viewBox="0 0 6.990000247955322 7.070000171661377" id="si-open-bullhorn"><path d="M6 0v6c.03.01.07 0 .09 0h.81c.05 0 .09-.04.09-.09V.1c0-.06-.04-.09-.09-.09h-.91zM5 .5L2.09 1.97c-.05.02-.13.03-.19.03H.09C.03 2 0 2.04 0 2.09V3.9c0 .06.04.09.09.09H1l1.03 2.72c.11.25.44.36.69.25.25-.11.36-.44.25-.69l-.75-1.78c.03-.14.13-.22.28-.22v-.03L5 5.49v-5z"/></symbol><symbol viewBox="0 0 6.990000247955322 7.990000247955322" id="si-open-calculator"><path d="M.09 0C.03 0 0 .04 0 .09V7.9c0 .05.04.09.09.09H6.9c.05 0 .09-.04.09-.09V.09C6.99.03 6.95 0 6.9 0H.09zM1 1h5v2H1V1zm0 3h1v1H1V4zm2 0h1v1H3V4zm2 0h1v3H5V4zM1 6h1v1H1V6zm2 0h1v1H3V6z"/></symbol><symbol viewBox="0 0 7.009999752044678 8" id="si-open-calendar"><path d="M.01 0v2h7V0h-7zm0 3v4.91c0 .05.04.09.09.09h6.81c.05 0 .09-.04.09-.09V3H0zm1 1h1v1h-1V4zm2 0h1v1h-1V4zm2 0h1v1h-1V4zm-4 2h1v1h-1V6zm2 0h1v1h-1V6z"/></symbol><symbol viewBox="0 0 7.990000247955322 7.990000247955322" id="si-open-camera-slr"><path d="M4.11 0c-.05 0-.1.04-.13.09L3.04 1.9c-.02.05-.07.09-.13.09H1.5c-.83 0-1.5.67-1.5 1.5V7.9c0 .05.04.09.09.09H7.9c.05 0 .09-.04.09-.09V2.09c0-.06-.04-.09-.09-.09h-.81c-.05 0-.1-.04-.13-.09L6.02.1C5.99.05 5.95.01 5.89.01H4.08zM1.52 3c.28 0 .5.22.5.5s-.22.5-.5.5-.5-.22-.5-.5.22-.5.5-.5zm3.5 0c1.1 0 2 .9 2 2s-.9 2-2 2-2-.9-2-2 .9-2 2-2zm0 1c-.55 0-1 .45-1 1s.45 1 1 1 1-.45 1-1-.45-1-1-1z"/></symbol><symbol viewBox="0 0 8 4" id="si-open-caret-bottom"><path d="M0 0l4 4 4-4H0z"/></symbol><symbol viewBox="0 0 4 8" id="si-open-caret-left"><path d="M4 0L0 4l4 4V0z"/></symbol><symbol viewBox="0 0 4 8" id="si-open-caret-right"><path d="M0 0v8l4-4-4-4z"/></symbol><symbol viewBox="0 0 8 4" id="si-open-caret-top"><path d="M4 0L0 4h8L4 0z"/></symbol><symbol viewBox="0 0 8.06399917602539 6.0027055740356445" id="si-open-cart"><path d="M.464.003a.506.506 0 0 0 .16 1h1.5l.09.25.41 1.25.41 1.25c.04.13.21.25.34.25h3.5c.14 0 .3-.12.34-.25l.81-2.5c.04-.13-.02-.25-.16-.25h-4.44l-.38-.72a.5.5 0 0 0-.44-.28h-2a.5.5 0 0 0-.09 0 .5.5 0 0 0-.06 0zm3.16 5c-.28 0-.5.22-.5.5s.22.5.5.5.5-.22.5-.5-.22-.5-.5-.5zm3 0c-.28 0-.5.22-.5.5s.22.5.5.5.5-.22.5-.5-.22-.5-.5-.5z"/></symbol><symbol viewBox="0 0 8 7" id="si-open-chat"><path d="M0 0v5l1-1h1V1h3V0H0zm3 2v4h4l1 1V2H3z"/></symbol><symbol viewBox="0 0 7.849999904632568 6.34999942779541" id="si-open-check"><path d="M6.41 0l-.69.72L2.94 3.5l-.81-.78L1.41 2 0 3.41l.72.72 1.5 1.5.69.72.72-.72 3.5-3.5.72-.72L6.41 0z"/></symbol><symbol viewBox="0 0 8 5.5" id="si-open-chevron-bottom"><path d="M1.5 0L0 1.5l4 4 4-4L6.5 0 4 2.5 1.5 0z"/></symbol><symbol viewBox="0 0 5.5 8" id="si-open-chevron-left"><path d="M4 0L0 4l4 4 1.5-1.5L3 4l2.5-2.5L4 0z"/></symbol><symbol viewBox="0 0 5.5 8" id="si-open-chevron-right"><path d="M1.5 0L0 1.5 2.5 4 0 6.5 1.5 8l4-4-4-4z"/></symbol><symbol viewBox="0 0 8 5.5" id="si-open-chevron-top"><path d="M4 0L0 4l1.5 1.5L4 3l2.5 2.5L8 4 4 0z"/></symbol><symbol viewBox="0 0 8 8" id="si-open-circle-check"><path d="M4 0C1.79 0 0 1.79 0 4s1.79 4 4 4 4-1.79 4-4-1.79-4-4-4zm2 1.78l.72.72L3.5 5.72 1.78 4l.72-.72 1 1L6 1.78z"/></symbol><symbol viewBox="0 0 8 8" id="si-open-circle-x"><path d="M4 0C1.79 0 0 1.79 0 4s1.79 4 4 4 4-1.79 4-4-1.79-4-4-4zM2.5 1.78L4 3.28l1.5-1.5.72.72L4.72 4l1.5 1.5-.72.72L4 4.72l-1.5 1.5-.72-.72L3.28 4l-1.5-1.5.72-.72z"/></symbol><symbol viewBox="0 0 7 8" id="si-open-clipboard"><path d="M3.5 0c-.28 0-.5.22-.5.5V1h-.75c-.14 0-.25.11-.25.25V2h3v-.75C5 1.11 4.89 1 4.75 1H4V.5c0-.28-.22-.5-.5-.5zM.25 1C.11 1 0 1.11 0 1.25v6.5c0 .14.11.25.25.25h6.5c.14 0 .25-.11.25-.25v-6.5C7 1.11 6.89 1 6.75 1H6v2H1V1H.25z"/></symbol><symbol viewBox="0 0 8 8" id="si-open-clock"><path d="M4 0C1.8 0 0 1.8 0 4s1.8 4 4 4 4-1.8 4-4-1.8-4-4-4zm0 1c1.66 0 3 1.34 3 3S5.66 7 4 7 1 5.66 1 4s1.34-3 3-3zm-.5 1v2.22l.16.13.5.5.34.38.72-.72-.38-.34-.34-.34V2.02h-1z"/></symbol><symbol viewBox="0 0 8 6" id="si-open-cloud"><path d="M4.5 0C3.29 0 2.23.86 2 2 .9 2 0 2.9 0 4s.9 2 2 2h4.5C7.33 6 8 5.33 8 4.5c0-.65-.42-1.29-1-1.5v-.5A2.5 2.5 0 0 0 4.5 0z"/></symbol><symbol viewBox="0 0 8 8" id="si-open-cloud-download"><path d="M4.5 0C3.29 0 2.23.86 2 2 .9 2 0 2.9 0 4c0 .37.11.71.28 1H3v-.5C3 3.67 3.67 3 4.5 3S6 3.67 6 4.5V5h1.91c.06-.16.09-.32.09-.5 0-.65-.42-1.29-1-1.5v-.5A2.5 2.5 0 0 0 4.5 0zm-.16 4a.5.5 0 0 0-.34.5V6H2.5l2 2 2-2H5V4.5a.5.5 0 0 0-.59-.5.5.5 0 0 0-.06 0z"/></symbol><symbol viewBox="0 0 8 8" id="si-open-cloud-upload"><path d="M4.5 0C3.29 0 2.23.86 2 2 .9 2 0 2.9 0 4c0 .37.11.71.28 1H2.5l2-2 2 2h1.41c.06-.16.09-.32.09-.5 0-.65-.42-1.29-1-1.5v-.5A2.5 2.5 0 0 0 4.5 0zm0 4.5L2 7h2v.5a.5.5 0 1 0 1 0V7h2L4.5 4.5z"/></symbol><symbol viewBox="0 0 8 8" id="si-open-cloudy"><path d="M2.5 0A2.5 2.5 0 0 0 0 2.5c0 .39.09.74.25 1.06.3-.21.64-.37 1-.47C1.8 1.84 3.07 1 4.5 1c-.46-.6-1.18-1-2-1zm2 2C3.29 2 2.23 2.86 2 4 .9 4 0 4.9 0 6s.9 2 2 2h4.5C7.33 8 8 7.33 8 6.5c0-.65-.42-1.29-1-1.5v-.5A2.5 2.5 0 0 0 4.5 2z"/></symbol><symbol viewBox="0 0 8 6" id="si-open-code"><path d="M5 0L2 6h1l3-6H5zM1 1L0 3l1 2h1L1 3l1-2H1zm5 0l1 2-1 2h1l1-2-1-2H6z"/></symbol><symbol viewBox="0 0 8.020000457763672 8.020000457763672" id="si-open-cog"><path d="M3.51 0l-.5 1.19c-.1.03-.19.08-.28.13L1.54.82l-.72.72.5 1.19c-.05.1-.09.18-.13.28L0 3.51v1l1.19.5c.04.1.08.18.13.28l-.5 1.19.72.72 1.19-.5c.09.04.18.09.28.13l.5 1.19h1l.5-1.19c.09-.04.19-.08.28-.13l1.19.5.72-.72-.5-1.19c.04-.09.09-.19.13-.28l1.19-.5v-1l-1.19-.5c-.03-.09-.08-.19-.13-.28l.5-1.19-.72-.72-1.19.5c-.09-.04-.19-.09-.28-.13L4.51 0h-1zm.5 2.5c.83 0 1.5.67 1.5 1.5s-.67 1.5-1.5 1.5-1.5-.67-1.5-1.5.67-1.5 1.5-1.5z"/></symbol><symbol viewBox="0 0 8 8" id="si-open-collapse-down"><path d="M0 0v2h8V0H0zm2 3l2 2 2-2H2zM0 7v1h8V7H0z"/></symbol><symbol viewBox="0 0 8 8" id="si-open-collapse-left"><path d="M0 0v8h1V0H0zm6 0v8h2V0H6zM5 2L3 4l2 2V2z"/></symbol><symbol viewBox="0 0 8 8" id="si-open-collapse-right"><path d="M0 0v8h2V0H0zm7 0v8h1V0H7zM3 2v4l2-2-2-2z"/></symbol><symbol viewBox="0 0 8 8" id="si-open-collapse-up"><path d="M0 0v1h8V0H0zm4 3L2 5h4L4 3zM0 6v2h8V6H0z"/></symbol><symbol viewBox="0 0 7 7" id="si-open-command"><path d="M1.5 0C.67 0 0 .67 0 1.5S.67 3 1.5 3H2v1h-.5C.67 4 0 4.67 0 5.5S.67 7 1.5 7 3 6.33 3 5.5V5h1v.5C4 6.33 4.67 7 5.5 7S7 6.33 7 5.5 6.33 4 5.5 4H5V3h.5C6.33 3 7 2.33 7 1.5S6.33 0 5.5 0 4 .67 4 1.5V2H3v-.5C3 .67 2.33 0 1.5 0zm0 1c.28 0 .5.22.5.5V2h-.5c-.28 0-.5-.22-.5-.5s.22-.5.5-.5zm4 0c.28 0 .5.22.5.5s-.22.5-.5.5H5v-.5c0-.28.22-.5.5-.5zM3 3h1v1H3V3zM1.5 5H2v.5c0 .28-.22.5-.5.5S1 5.78 1 5.5s.22-.5.5-.5zM5 5h.5c.28 0 .5.22.5.5s-.22.5-.5.5-.5-.22-.5-.5V5z"/></symbol><symbol viewBox="0 0 8 8" id="si-open-comment-square"><path d="M.09.01C.03.01 0 .05 0 .1v5.81c0 .05.04.09.09.09H6l2 2V.09C8 .03 7.96 0 7.91 0H.1z"/></symbol><symbol viewBox="0 0 8 8" id="si-open-compass"><path d="M4 0C1.8 0 0 1.8 0 4s1.8 4 4 4 4-1.8 4-4-1.8-4-4-4zm0 1c1.66 0 3 1.34 3 3S5.66 7 4 7 1 5.66 1 4s1.34-3 3-3zm2 1L3 3 2 6l3-1 1-3zM4 3.5c.28 0 .5.22.5.5s-.22.5-.5.5-.5-.22-.5-.5.22-.5.5-.5z"/></symbol><symbol viewBox="0 0 8 8" id="si-open-contrast"><path d="M4 0C1.8 0 0 1.8 0 4s1.8 4 4 4 4-1.8 4-4-1.8-4-4-4zm0 1c1.66 0 3 1.34 3 3S5.66 7 4 7V1z"/></symbol><symbol viewBox="0 0 8 8" id="si-open-copywriting"><path d="M0 0v1h8V0H0zm0 2v1h5V2H0zm0 3v1h8V5H0zm0 2v1h6V7H0zm7.5 0c-.28 0-.5.22-.5.5s.22.5.5.5.5-.22.5-.5-.22-.5-.5-.5z"/></symbol><symbol viewBox="0 0 8 6" id="si-open-credit-card"><path d="M.25 0C.11 0 0 .11 0 .25V1h8V.25C8 .11 7.89 0 7.75 0H.25zM0 2v3.75c0 .14.11.25.25.25h7.5c.14 0 .25-.11.25-.25V2H0zm1 2h1v1H1V4zm2 0h1v1H3V4z"/></symbol><symbol viewBox="0 0 8 8" id="si-open-crop"><path d="M1 0v1H0v1h1v5h5v1h1V7h1V6H7V1.5l1-1-.5-.5-1 1H2V0H1zm1 2h3.5L2 5.5V2zm4 .5V6H2.5L6 2.5z"/></symbol><symbol viewBox="0 0 8 8" id="si-open-dashboard"><path d="M4 0C1.8 0 0 1.8 0 4s1.8 4 4 4 4-1.8 4-4-1.8-4-4-4zm0 1c1.66 0 3 1.34 3 3S5.66 7 4 7 1 5.66 1 4s1.34-3 3-3zm0 1c-.28 0-.5.22-.5.5s.22.5.5.5.5-.22.5-.5S4.28 2 4 2zM2.34 3a.5.5 0 0 0-.19.84l.91.91C3.04 4.83 3 4.91 3 5c0 .55.45 1 1 1s1-.45 1-1-.45-1-1-1c-.09 0-.17.04-.25.06l-.91-.91a.5.5 0 0 0-.44-.16.5.5 0 0 0-.06 0zM5.5 3c-.28 0-.5.22-.5.5s.22.5.5.5.5-.22.5-.5-.22-.5-.5-.5z"/></symbol><symbol viewBox="0 0 8 8" id="si-open-data-transfer-download"><path d="M3 0v3H1l3 3 3-3H5V0H3zM0 7v1h8V7H0z"/></symbol><symbol viewBox="0 0 8 8" id="si-open-data-transfer-upload"><path d="M0 0v1h8V0H0zm4 2L1 5h2v3h2V5h2L4 2z"/></symbol><symbol viewBox="0 0 8 6" id="si-open-delete"><path d="M2 0L0 3l2 3h6V0H2zm1.5.78L5 2.28 6.5.78l.72.72L5.72 3l1.5 1.5-.72.72L5 3.72l-1.5 1.5-.72-.72L4.28 3l-1.5-1.5.72-.72z"/></symbol><symbol viewBox="0 0 8 6" id="si-open-dial"><path d="M4 0C1.8 0 0 1.8 0 4h1c0-1.66 1.34-3 3-3s3 1.34 3 3h1c0-2.2-1.8-4-4-4zm-.59 2.09A2 2 0 0 0 4 6c1.11 0 2-.89 2-2 0-.9-.59-1.65-1.41-1.91L4 2.97l-.59-.88z"/></symbol><symbol viewBox="0 0 7 8" id="si-open-document"><path d="M0 0v8h7V4H3V0H0zm4 0v3h3L4 0zM1 2h1v1H1V2zm0 2h1v1H1V4zm0 2h4v1H1V6z"/></symbol><symbol viewBox="0 0 5.009999752044678 8.010000228881836" id="si-open-dollar"><path d="M2.01 0v1h-.75C.58 1 .01 1.57.01 2.25v.5c0 .68.44 1.24 1.09 1.41l2.56.66c.14.04.34.29.34.44v.5c0 .14-.11.25-.25.25h-2.5A.56.56 0 0 1 1 5.95v-.94H0v1c0 .34.2.63.44.78.23.16.52.22.81.22H2v1h1v-1h.75C4.44 7.01 5 6.45 5 5.76v-.5c0-.68-.44-1.24-1.09-1.41l-2.56-.66c-.14-.04-.34-.29-.34-.44v-.5c0-.14.11-.25.25-.25h2.5c.11 0 .21.04.25.06V3h1V2c0-.34-.2-.63-.44-.78-.23-.16-.52-.22-.81-.22h-.75V0h-1z"/></symbol><symbol viewBox="0 0 8 6" id="si-open-double-quote-sans-left"><path d="M0 0v6l3-3V0H0zm5 0v6l3-3V0H5z"/></symbol><symbol viewBox="0 0 8 6" id="si-open-double-quote-sans-right"><path d="M3 0L0 3v3h3V0zm5 0L5 3v3h3V0z"/></symbol><symbol viewBox="0 0 8 6" id="si-open-double-quote-serif-left"><path d="M3 0C1.35 0 0 1.35 0 3v3h3V3H1c0-1.11.89-2 2-2V0zm5 0C6.35 0 5 1.35 5 3v3h3V3H6c0-1.11.89-2 2-2V0z"/></symbol><symbol viewBox="0 0 8 6" id="si-open-double-quote-serif-right"><path d="M0 0v3h2c0 1.11-.89 2-2 2v1c1.65 0 3-1.35 3-3V0H0zm5 0v3h2c0 1.11-.89 2-2 2v1c1.65 0 3-1.35 3-3V0H5z"/></symbol><symbol viewBox="0 0 6 8.219999313354492" id="si-open-droplet"><path d="M3 0l-.34.34C2.55.45 0 3.03 0 5.22c0 1.65 1.35 3 3 3s3-1.35 3-3C6 3.04 3.45.45 3.34.34L3 0zM1.5 4.72c.28 0 .5.22.5.5 0 .55.45 1 1 1 .28 0 .5.22.5.5s-.22.5-.5.5c-1.1 0-2-.9-2-2 0-.28.22-.5.5-.5z"/></symbol><symbol viewBox="0 0 8 8" id="si-open-eject"><path d="M4 0L0 5h8L4 0zM0 6v2h8V6H0z"/></symbol><symbol viewBox="0 0 6 8" id="si-open-elevator"><path d="M3 0L0 3h6L3 0zM0 5l3 3 3-3H0z"/></symbol><symbol viewBox="0 0 8 2" id="si-open-ellipses"><path d="M0 0v2h2V0H0zm3 0v2h2V0H3zm3 0v2h2V0H6z"/></symbol><symbol viewBox="0 0 8 6" id="si-open-envelope-closed"><path d="M0 0v1l4 2 4-2V0H0zm0 2v4h8V2L4 4 0 2z"/></symbol><symbol viewBox="0 0 8 8" id="si-open-envelope-open"><path d="M4 0L0 2v6h8V2L4 0zm0 1.13l3 1.5v1.88l-3 1.5-3-1.5V2.63l3-1.5zM2 3.01v1l2 1 2-1v-1H2z"/></symbol><symbol viewBox="0 0 8.010000228881836 8" id="si-open-euro"><path d="M6 0C4.14 0 2.6 1.28 2.16 3H.25L0 4h2.01c0 .35.07.68.16 1H.2L.01 6h2.56c.7 1.19 1.97 2 3.44 2 .73 0 1.41-.21 2-.56V6.22c-.53.48-1.22.78-2 .78-.89 0-1.67-.39-2.22-1h2.22l.16-1H3.2a3.01 3.01 0 0 1-.19-1h3.34l.16-1H3.2a2.988 2.988 0 0 1 4.56-1.44L7.92.5C7.35.19 6.71 0 6.01 0z"/></symbol><symbol viewBox="0 0 8 7" id="si-open-excerpt"><path d="M0 0v1h7V0H0zm0 2v1h5V2H0zm0 2v1h8V4H0zm0 2v1h1V6H0zm2 0v1h1V6H2zm2 0v1h1V6H4z"/></symbol><symbol viewBox="0 0 8 8" id="si-open-expand-down"><path d="M0 0v1h8V0H0zm2 2l2 2 2-2H2zM0 6v2h8V6H0z"/></symbol><symbol viewBox="0 0 8 8" id="si-open-expand-left"><path d="M0 0v8h1V0H0zm6 0v8h2V0H6zM2 2v4l2-2-2-2z"/></symbol><symbol viewBox="0 0 8 8" id="si-open-expand-right"><path d="M0 0v8h2V0H0zm7 0v8h1V0H7zM6 2L4 4l2 2V2z"/></symbol><symbol viewBox="0 0 8 8" id="si-open-expand-up"><path d="M0 0v2h8V0H0zm4 4L2 6h4L4 4zM0 7v1h8V7H0z"/></symbol><symbol viewBox="0 0 8 8" id="si-open-external-link"><path d="M0 0v8h8V6H7v1H1V1h1V0H0zm4 0l1.5 1.5L3 4l1 1 2.5-2.5L8 4V0H4z"/></symbol><symbol viewBox="0 0 8 6" id="si-open-eye"><path d="M4.03 0C1.5 0 0 3 0 3s1.5 3 4.03 3C6.5 6 8 3 8 3S6.5 0 4.03 0zM4 1a2 2 0 0 1 2 2c0 1.11-.89 2-2 2a2 2 0 1 1 0-4zm0 1c-.55 0-1 .45-1 1s.45 1 1 1 1-.45 1-1c0-.1-.04-.19-.06-.28a.495.495 0 1 1-.66-.66A.875.875 0 0 0 4 2z"/></symbol><symbol viewBox="0 0 8.170000076293945 8.15000057220459" id="si-open-eyedropper"><path d="M3.31.14a.5.5 0 0 0-.19.84l.63.63L.16 5.27 0 5.43v2.72h2.69l.16-.16 3.66-3.66.63.66a.5.5 0 1 0 .72-.69l-.94-.94.66-.66c.59-.58.59-1.54 0-2.13C7.01 0 6.02 0 5.45.57l-.66.66-.94-.94a.5.5 0 0 0-.47-.16.5.5 0 0 0-.06 0zm1.16 2.19l1.31 1.31L2.62 6.8 1.34 5.49l3.13-3.16z"/></symbol><symbol viewBox="0 0 7 8" id="si-open-file"><path d="M0 0v8h7V4H3V0H0zm4 0v3h3L4 0z"/></symbol><symbol viewBox="0 0 7 8" id="si-open-fire"><path d="M2 0c1 2-2 3-2 5s2 3 2 3c-.98-1.98 2-3 2-5S2 0 2 0zm3 3c1 2-2 3-2 5h3c.4 0 1-.5 1-2 0-2-2-3-2-3z"/></symbol><symbol viewBox="0 0 8 8" id="si-open-flag"><path d="M0 0v8h1V0H0zm2 0v4h2v1h4L6 3.03 8 1H5V0H2z"/></symbol><symbol viewBox="0 0 4 8" id="si-open-flash"><path d="M1.5 0L0 3h2l-.66 2H0l1 3 3-3H2.5L4 2H2l1-2H1.5z"/></symbol><symbol viewBox="0 0 8 8" id="si-open-folder"><path d="M0 0v2h8V1H3V0H0zm0 3v4.5c0 .28.22.5.5.5h7c.28 0 .5-.22.5-.5V3H0z"/></symbol><symbol viewBox="0 0 7 8.010000228881836" id="si-open-fork"><path d="M1.5 0C.67 0 0 .67 0 1.5c0 .66.41 1.2 1 1.41V5.1c-.59.2-1 .75-1 1.41 0 .83.67 1.5 1.5 1.5S3 7.34 3 6.51c0-.6-.34-1.1-.84-1.34.09-.09.21-.16.34-.16h2c.82 0 1.5-.68 1.5-1.5v-.59c.59-.2 1-.75 1-1.41C7 .68 6.33.01 5.5.01S4 .68 4 1.51c0 .66.41 1.2 1 1.41v.59c0 .28-.22.5-.5.5h-2c-.17 0-.35.04-.5.09V2.91c.59-.2 1-.75 1-1.41C3 .67 2.33 0 1.5 0z"/></symbol><symbol viewBox="0 0 8 8" id="si-open-fullscreen-enter"><path d="M0 0v4l1.5-1.5L3 4l1-1-1.5-1.5L4 0H0zm5 4L4 5l1.5 1.5L4 8h4V4L6.5 5.5 5 4z"/></symbol><symbol viewBox="0 0 8 8" id="si-open-fullscreen-exit"><path d="M1 0L0 1l1.5 1.5L0 4h4V0L2.5 1.5 1 0zm3 4v4l1.5-1.5L7 8l1-1-1.5-1.5L8 4H4z"/></symbol><symbol viewBox="0 0 8 8" id="si-open-globe"><path d="M4 0C1.79 0 0 1.79 0 4s1.79 4 4 4 4-1.79 4-4-1.79-4-4-4zm0 1c.33 0 .64.09.94.19-.21.2-.45.38-.41.56.04.18.69.13.69.5 0 .27-.42.35-.13.66.35.35-.64.98-.66 1.44-.03.83.84.97 1.53.97.42 0 .53.2.5.44-.54.77-1.46 1.25-2.47 1.25-.38 0-.73-.09-1.06-.22.22-.44-.28-1.31-.75-1.59-.23-.23-.72-.14-1-.25-.09-.27-.18-.54-.19-.84.03-.05.08-.09.16-.09.19 0 .45.38.59.34.18-.04-.74-1.31-.31-1.56.2-.12.6.39.47-.16-.12-.51.36-.28.66-.41.26-.11.45-.41.13-.59-.06-.03-.13-.1-.22-.19.45-.27.97-.44 1.53-.44zm2.31 1.09c.18.22.32.46.44.72v.03c-.04.07-.11.11-.22.22-.28.28-.32-.21-.44-.31-.13-.12-.6.02-.66-.13-.07-.18.5-.42.88-.53z"/></symbol><symbol viewBox="0 0 8 8" id="si-open-graph"><path d="M7.03 0L4 3 3 2 0 5.03l1 1L3 4l1 1 4-4-.97-1zM0 7v1h8V7H0z"/></symbol><symbol viewBox="0 0 7 7" id="si-open-grid-four-up"><path d="M0 0v1h1V0H0zm2 0v1h1V0H2zm2 0v1h1V0H4zm2 0v1h1V0H6zM0 2v1h1V2H0zm2 0v1h1V2H2zm2 0v1h1V2H4zm2 0v1h1V2H6zM0 4v1h1V4H0zm2 0v1h1V4H2zm2 0v1h1V4H4zm2 0v1h1V4H6zM0 6v1h1V6H0zm2 0v1h1V6H2zm2 0v1h1V6H4zm2 0v1h1V6H6z"/></symbol><symbol viewBox="0 0 8 8" id="si-open-grid-three-up"><path d="M0 0v2h2V0H0zm3 0v2h2V0H3zm3 0v2h2V0H6zM0 3v2h2V3H0zm3 0v2h2V3H3zm3 0v2h2V3H6zM0 6v2h2V6H0zm3 0v2h2V6H3zm3 0v2h2V6H6z"/></symbol><symbol viewBox="0 0 8 8" id="si-open-grid-two-up"><path d="M0 0v3h3V0H0zm5 0v3h3V0H5zM0 5v3h3V5H0zm5 0v3h3V5H5z"/></symbol><symbol viewBox="0 0 7.010000228881836 8.00999927520752" id="si-open-hard-drive"><path d="M.19 0C.08 0 0 .08 0 .19V3.5c0 .28.22.5.5.5h6c.28 0 .5-.22.5-.5V.19C7 .08 6.92 0 6.81 0H.18zM0 4.91v2.91c0 .11.08.19.19.19h6.63c.11 0 .19-.08.19-.19V4.91c-.16.06-.32.09-.5.09h-6c-.18 0-.34-.04-.5-.09zM5.5 6c.28 0 .5.22.5.5s-.22.5-.5.5-.5-.22-.5-.5.22-.5.5-.5z"/></symbol><symbol viewBox="0 0 7 7" id="si-open-header"><path d="M0 0v1h.5c.28 0 .5.22.5.5v4c0 .28-.22.5-.5.5H0v1h3V6h-.5c-.28 0-.5-.22-.5-.5V4h3v1.5c0 .28-.22.5-.5.5H4v1h3V6h-.5c-.28 0-.5-.22-.5-.5v-4c0-.28.22-.5.5-.5H7V0H4v1h.5c.28 0 .5.22.5.5V3H2V1.5c0-.28.22-.5.5-.5H3V0H0z"/></symbol><symbol viewBox="0 0 8 7" id="si-open-headphones"><path d="M4 0C2.35 0 1 1.35 1 3v1H.5a.5.5 0 0 0-.5.5v2a.5.5 0 0 0 .5.5h1a.5.5 0 0 0 .5-.5V3c0-1.11.89-2 2-2 1.11 0 2 .89 2 2v3.5a.5.5 0 0 0 .5.5h1a.5.5 0 0 0 .5-.5v-2a.5.5 0 0 0-.5-.5H7V3c0-1.65-1.35-3-3-3z"/></symbol><symbol viewBox="0 0 8 6.820000171661377" id="si-open-heart"><path d="M2 0C1.45 0 .96.23.59.59.23.95 0 1.44 0 2c0 .55.23 1.04.59 1.41L4 6.82l3.41-3.41C7.77 3.05 8 2.56 8 2 8 1.45 7.77.96 7.41.59 7.05.23 6.56 0 6 0c-.55 0-1.04.23-1.41.59C4.23.95 4 1.44 4 2 4 1.45 3.77.96 3.41.59 3.05.23 2.56 0 2 0z"/></symbol><symbol viewBox="0 0 8 7" id="si-open-home"><path d="M4 0L0 3h1v4h2V5h2v2h2V2.97L8 3 4 0z"/></symbol><symbol viewBox="0 0 8 8" id="si-open-image"><path d="M0 0v8h8V0H0zm1 1h6v3L6 3 5 4l2 2v1H6L2 3 1 4V1z"/></symbol><symbol viewBox="0 0 8.010000228881836 8.010000228881836" id="si-open-inbox"><path d="M.19 0C.08 0 0 .08 0 .19v7.63c0 .11.08.19.19.19h7.63c.11 0 .19-.08.19-.19V.19c0-.11-.08-.19-.19-.19H.19zM1 2h6v3H6L5 6H3L2 5H1V2z"/></symbol><symbol viewBox="0 0 8 4" id="si-open-infinity"><path d="M2 0C.69 0 0 1.01 0 2s.69 2 2 2c.79 0 1.42-.56 2-1.22C4.58 3.44 5.19 4 6 4c1.31 0 2-1.01 2-2s-.69-2-2-2c-.81 0-1.42.56-2 1.22C3.42.56 2.79 0 2 0zm0 1c.42 0 .88.47 1.34 1-.46.53-.92 1-1.34 1-.74 0-1-.54-1-1 0-.46.26-1 1-1zm4 0c.74 0 1 .54 1 1 0 .46-.26 1-1 1-.43 0-.89-.47-1.34-1 .46-.53.91-1 1.34-1z"/></symbol><symbol viewBox="0 0 4 8" id="si-open-info"><path d="M3 0c-.55 0-1 .45-1 1s.45 1 1 1 1-.45 1-1-.45-1-1-1zM1.5 2.5C.67 2.5 0 3.17 0 4h1c0-.28.22-.5.5-.5s.5.22.5.5-1 1.64-1 2.5C1 7.36 1.67 8 2.5 8S4 7.33 4 6.5H3c0 .28-.22.5-.5.5S2 6.78 2 6.5C2 6.14 3 4.66 3 4c0-.81-.67-1.5-1.5-1.5z"/></symbol><symbol viewBox="0 0 6.989999771118164 8.010000228881836" id="si-open-italic"><path d="M1.99 0v1h1.63l-.06.13-2 5-.34.88H0v1h5v-1H3.37l.06-.13 2-5L5.77 1h1.22V0h-5z"/></symbol><symbol viewBox="0 0 8 7" id="si-open-justify-center"><path d="M0 0v1h8V0H0zm0 2v1h8V2H0zm0 2v1h8V4H0zm1 2v1h6V6H1z"/></symbol><symbol viewBox="0 0 8 7" id="si-open-justify-left"><path d="M0 0v1h8V0H0zm0 2v1h8V2H0zm0 2v1h8V4H0zm0 2v1h6V6H0z"/></symbol><symbol viewBox="0 0 8 7" id="si-open-justify-right"><path d="M0 0v1h8V0H0zm0 2v1h8V2H0zm0 2v1h8V4H0zm2 2v1h6V6H2z"/></symbol><symbol viewBox="0 0 8 8" id="si-open-key"><path d="M5.5 0A2.5 2.5 0 0 0 3 2.5c0 .16 0 .32.03.47L0 6v2h3V6h2V5l.03-.03c.15.03.31.03.47.03a2.5 2.5 0 0 0 0-5zM6 1c.55 0 1 .45 1 1s-.45 1-1 1-1-.45-1-1 .45-1 1-1z"/></symbol><symbol viewBox="0 0 8.010000228881836 6.0027055740356445" id="si-open-laptop"><path d="M1.34.003a.5.5 0 0 0-.34.5v3.5H0v1.5c0 .28.22.5.5.5h7.01c.28 0 .5-.22.5-.5v-1.5h-1v-3.5a.5.5 0 0 0-.5-.5h-5a.5.5 0 0 0-.09 0 .5.5 0 0 0-.06 0zm.66 1h4v3H5v1H3v-1H2v-3z"/></symbol><symbol viewBox="0 0 8 8" id="si-open-layers"><path d="M0 0v4h4V0H0zm5 2v3H2v1h4V2H5zm2 2v3H4v1h4V4H7z"/></symbol><symbol viewBox="0 0 5.150417804718018 8.087509155273438" id="si-open-lightbulb"><path d="M3.51.043a.5.5 0 0 0-.13.06l-3 1.5a.5.5 0 1 0 .44.88l3-1.5a.5.5 0 0 0-.31-.94zm1 1.5a.5.5 0 0 0-.13.06l-4 2a.5.5 0 1 0 .44.88l4-2a.5.5 0 0 0-.31-.94zm0 2a.5.5 0 0 0-.13.06l-3 1.5a.5.5 0 0 0 .22.94h2a.506.506 0 0 0 .16-1l1.06-.56a.5.5 0 0 0-.31-.94zm-2.56 3.5a.506.506 0 0 0 .16 1h1a.5.5 0 1 0 0-1h-1a.5.5 0 0 0-.09 0 .5.5 0 0 0-.06 0z"/></symbol><symbol viewBox="0 0 8.114398002624512 8.130000114440918" id="si-open-link-broken"><path d="M1.985 0v1h-1v1h2V0h-1zm3.88.03a1.9 1.9 0 0 0-.53.09c-.27.1-.53.25-.75.47l-.44.44a.5.5 0 1 0 .69.69l.44-.44c.11-.11.24-.17.38-.22.35-.12.78-.07 1.06.22.39.39.39 1.04 0 1.44l-1.5 1.5a.5.5 0 1 0 .69.69l1.5-1.5a1.98 1.98 0 0 0-.97-3.34c-.18-.04-.38-.04-.56-.03zm-3.59 2.91a.5.5 0 0 0-.19.16l-1.5 1.5a1.98 1.98 0 0 0 0 2.81c.56.56 1.36.72 2.06.47.27-.1.53-.25.75-.47l.44-.44a.5.5 0 1 0-.69-.69l-.44.44c-.11.11-.24.17-.38.22-.35.12-.78.07-1.06-.22-.39-.39-.39-1.04 0-1.44l1.5-1.5a.5.5 0 0 0-.44-.84.5.5 0 0 0-.06 0zM4.995 6v2h1V7h1V6h-2z"/></symbol><symbol viewBox="0 0 8.104397773742676 8.09000015258789" id="si-open-link-intact"><path d="M5.865 0a1.9 1.9 0 0 0-.53.09c-.27.1-.53.25-.75.47a.5.5 0 1 0 .69.69c.11-.11.24-.17.38-.22.35-.12.78-.07 1.06.22.39.39.39 1.04 0 1.44l-1.5 1.5c-.44.44-.8.48-1.06.47-.26-.01-.41-.13-.41-.13a.506.506 0 1 0-.5.88s.34.22.84.25c.5.03 1.2-.16 1.81-.78l1.5-1.5a1.98 1.98 0 0 0-.97-3.34c-.18-.04-.38-.04-.56-.03zm-2 2.31c-.5-.02-1.19.15-1.78.75l-1.5 1.5a1.98 1.98 0 0 0 0 2.81c.56.56 1.36.72 2.06.47.27-.1.53-.25.75-.47a.5.5 0 1 0-.69-.69c-.11.11-.24.17-.38.22-.35.12-.78.07-1.06-.22-.39-.39-.39-1.04 0-1.44l1.5-1.5c.4-.4.75-.45 1.03-.44.28.01.47.09.47.09a.5.5 0 1 0 .44-.88s-.34-.2-.84-.22z"/></symbol><symbol viewBox="0 0 8 7" id="si-open-list"><path d="M.5 0C.22 0 0 .22 0 .5s.22.5.5.5.5-.22.5-.5S.78 0 .5 0zM2 0v1h6V0H2zM.5 2c-.28 0-.5.22-.5.5s.22.5.5.5.5-.22.5-.5S.78 2 .5 2zM2 2v1h6V2H2zM.5 4c-.28 0-.5.22-.5.5s.22.5.5.5.5-.22.5-.5S.78 4 .5 4zM2 4v1h6V4H2zM.5 6c-.28 0-.5.22-.5.5s.22.5.5.5.5-.22.5-.5S.78 6 .5 6zM2 6v1h6V6H2z"/></symbol><symbol viewBox="0 0 8 7" id="si-open-list-rich"><path d="M0 0v3h3V0H0zm4 0v1h4V0H4zm0 2v1h3V2H4zM0 4v3h3V4H0zm4 0v1h4V4H4zm0 2v1h3V6H4z"/></symbol><symbol viewBox="0 0 8 8" id="si-open-location"><path d="M8 0L0 4l3 1 1 3 4-8z"/></symbol><symbol viewBox="0 0 6 7" id="si-open-lock-locked"><path d="M3 0C1.9 0 1 .9 1 2v1H0v4h6V3H5V2c0-1.1-.9-2-2-2zm0 1c.56 0 1 .44 1 1v1H2V2c0-.56.44-1 1-1z"/></symbol><symbol viewBox="0 0 6 8" id="si-open-lock-unlocked"><path d="M3 0C1.9 0 1 .9 1 2h1c0-.56.44-1 1-1s1 .44 1 1v2H0v4h6V4H5V2c0-1.1-.9-2-2-2z"/></symbol><symbol viewBox="0 0 8 7" id="si-open-loop"><path d="M6 0v1H1c-.55 0-1 .45-1 1v1h1V2h5v1l2-1.5L6 0zM2 4L0 5.5 2 7V6h5c.55 0 1-.45 1-1V4H7v1H2V4z"/></symbol><symbol viewBox="0 0 8 6" id="si-open-loop-circular"><path d="M4 0C2.35 0 1 1.35 1 3H0l1.5 2L3 3H2c0-1.11.89-2 2-2V0zm2.5 1L5 3h1c0 1.11-.89 2-2 2v1c1.65 0 3-1.35 3-3h1L6.5 1z"/></symbol><symbol viewBox="0 0 8 8" id="si-open-loop-square"><path d="M1 0v2h1V1h4v2H5l1.5 2.5L8 3H7V0H1zm.5 2.5L0 5h1v3h6V6H6v1H2V5h1L1.5 2.5z"/></symbol><symbol viewBox="0 0 8.133487701416016 8.133487701416016" id="si-open-magnifying-glass"><path d="M3.5.01C1.57.01 0 1.58 0 3.51s1.57 3.5 3.5 3.5c.59 0 1.17-.14 1.66-.41a1 1 0 0 0 .13.13l1 1a1.02 1.02 0 1 0 1.44-1.44l-1-1a1 1 0 0 0-.16-.13c.27-.49.44-1.06.44-1.66 0-1.93-1.57-3.5-3.5-3.5zm0 1c1.39 0 2.5 1.11 2.5 2.5 0 .66-.24 1.27-.66 1.72l-.03.03a1 1 0 0 0-.13.13c-.44.4-1.04.63-1.69.63-1.39 0-2.5-1.11-2.5-2.5s1.11-2.5 2.5-2.5z"/></symbol><symbol viewBox="0 0 8.01633358001709 8.010000228881836" id="si-open-map"><path d="M0 .01v8h8V5.63a.5.5 0 0 0 0-.22V0H0zm1 1h6v4H5.5a.5.5 0 0 0-.09 0 .502.502 0 1 0 .09 1H7v1H1v-6zm2.5 1c-.83 0-1.5.67-1.5 1.5 0 1 1.5 2.5 1.5 2.5S5 4.51 5 3.51c0-.83-.67-1.5-1.5-1.5zm0 1c.28 0 .5.22.5.5s-.22.5-.5.5-.5-.22-.5-.5.22-.5.5-.5z"/></symbol><symbol viewBox="0 0 6 8" id="si-open-map-marker"><path d="M3 0C1.34 0 0 1.34 0 3c0 2 3 5 3 5s3-3 3-5c0-1.66-1.34-3-3-3zm0 1a2 2 0 0 1 2 2c0 1.11-.89 2-2 2a2 2 0 1 1 0-4z"/></symbol><symbol viewBox="0 0 6 6" id="si-open-media-pause"><path d="M0 0v6h2V0H0zm4 0v6h2V0H4z"/></symbol><symbol viewBox="0 0 6 6" id="si-open-media-play"><path d="M0 0v6l6-3-6-3z"/></symbol><symbol viewBox="0 0 6 6" id="si-open-media-record"><path d="M3 0C1.34 0 0 1.34 0 3s1.34 3 3 3 3-1.34 3-3-1.34-3-3-3z"/></symbol><symbol viewBox="0 0 8 6" id="si-open-media-skip-backward"><path d="M4 0L0 3l4 3V0zm0 3l4 3V0L4 3z"/></symbol><symbol viewBox="0 0 8 6" id="si-open-media-skip-forward"><path d="M0 0v6l4-3-4-3zm4 3v3l4-3-4-3v3z"/></symbol><symbol viewBox="0 0 7 6" id="si-open-media-step-backward"><path d="M0 0v6h2V0H0zm2 3l5 3V0L2 3z"/></symbol><symbol viewBox="0 0 7 6" id="si-open-media-step-forward"><path d="M0 0v6l5-3-5-3zm5 3v3h2V0H5v3z"/></symbol><symbol viewBox="0 0 6 6" id="si-open-media-stop"><path d="M0 0v6h6V0H0z"/></symbol><symbol viewBox="0 0 8 8" id="si-open-medical-cross"><path d="M2 0v2H0v4h2v2h4V6h2V2H6V0H2z"/></symbol><symbol viewBox="0 0 8 6.970000267028809" id="si-open-menu"><path d="M0 0v1h8V0H0zm0 2.97v1h8v-1H0zm0 3v1h8v-1H0z"/></symbol><symbol viewBox="0 0 6.021695613861084 8.055989265441895" id="si-open-microphone"><path d="M2.912.026a1 1 0 0 0-.13.03 1 1 0 0 0-.78 1v2a1 1 0 1 0 2 0v-2a1 1 0 0 0-1.09-1.03zm-2.56 2.03a.5.5 0 0 0-.34.5v.5c0 1.48 1.09 2.69 2.5 2.94v1.06h-.5c-.55 0-1 .45-1 1h4.01c0-.55-.45-1-1-1h-.5v-1.06c1.41-.24 2.5-1.46 2.5-2.94v-.5a.5.5 0 1 0-1 0v.5c0 1.11-.89 2-2 2-1.11 0-2-.89-2-2v-.5a.5.5 0 0 0-.59-.5.5.5 0 0 0-.06 0z"/></symbol><symbol viewBox="0 0 8 2" id="si-open-minus"><path d="M0 0v2h8V0H0z"/></symbol><symbol viewBox="0 0 8.011695861816406 8.002705574035645" id="si-open-monitor"><path d="M.352.003a.5.5 0 0 0-.34.5v5a.5.5 0 0 0 .5.5h2.5v1h-1c-.55 0-1 .45-1 1h6c0-.55-.45-1-1-1h-1v-1h2.5a.5.5 0 0 0 .5-.5v-5a.5.5 0 0 0-.5-.5h-7a.5.5 0 0 0-.09 0 .5.5 0 0 0-.06 0zm.66 1h6v4h-6v-4z"/></symbol><symbol viewBox="0 0 7.779999732971191 7.780000686645508" id="si-open-moon"><path d="M2.72 0A3.988 3.988 0 0 0 0 3.78c0 2.21 1.79 4 4 4 1.76 0 3.25-1.14 3.78-2.72-.4.13-.83.22-1.28.22-2.21 0-4-1.79-4-4 0-.45.08-.88.22-1.28z"/></symbol><symbol viewBox="0 0 7 7" id="si-open-move"><path d="M3.5 0L2 1.5h1V3H1.5V2L0 3.5 1.5 5V4H3v1.5H2L3.5 7 5 5.5H4V4h1.5v1L7 3.5 5.5 2v1H4V1.5h1L3.5 0z"/></symbol><symbol viewBox="0 0 8 8" id="si-open-musical-note"><path d="M8 0C3 0 2 1 2 1v4.09A1.64 1.64 0 0 0 1.5 5C.67 5 0 5.67 0 6.5S.67 8 1.5 8 3 7.33 3 6.5V2.53c.73-.23 1.99-.44 4-.5v2.06A1.64 1.64 0 0 0 6.5 4C5.67 4 5 4.67 5 5.5S5.67 7 6.5 7 8 6.33 8 5.5V0z"/></symbol><symbol viewBox="0 0 7.440094470977783 8.26009464263916" id="si-open-paperclip"><path d="M5.26 0c-.51 0-1.02.21-1.41.59L1.07 3.31a2.746 2.746 0 0 0 0 3.88 2.746 2.746 0 0 0 3.88 0L6.2 5.94l-.69-.69-1.16 1.13-.09.13c-.69.69-1.81.69-2.5 0-.68-.68-.66-1.78 0-2.47l2.78-2.75c.39-.39 1.04-.39 1.44 0 .39.39.37 1.01 0 1.41l-2.5 2.47c-.1.1-.27.1-.38 0-.1-.1-.1-.27 0-.38l.06-.03.91-.94-.69-.69-.97.97c-.48.48-.48 1.27 0 1.75s1.27.49 1.75 0l2.5-2.44c.78-.78.78-2.04 0-2.81C6.27.21 5.77.01 5.25.01z"/></symbol><symbol viewBox="0 0 8 8" id="si-open-pencil"><path d="M6 0L5 1l2 2 1-1-2-2zM4 2L0 6v2h2l4-4-2-2z"/></symbol><symbol viewBox="0 0 8 8.010000228881836" id="si-open-people"><path d="M5.5 0c-.51 0-.95.35-1.22.88.45.54.72 1.28.72 2.13 0 .29-.03.55-.09.81.19.11.38.19.59.19.83 0 1.5-.9 1.5-2s-.67-2-1.5-2zm-3 1C1.67 1 1 1.9 1 3s.67 2 1.5 2S4 4.1 4 3s-.67-2-1.5-2zm4.75 3.16c-.43.51-1.02.82-1.69.84.27.38.44.84.44 1.34V7h2V5.34c0-.52-.31-.97-.75-1.19zm-6.5 1C.31 5.38 0 5.83 0 6.35v1.66h5V6.35c0-.52-.31-.97-.75-1.19C3.8 5.69 3.19 6 2.5 6S1.2 5.68.75 5.16z"/></symbol><symbol viewBox="0 0 8 8" id="si-open-person"><path d="M4 0C2.9 0 2 1.12 2 2.5S2.9 5 4 5s2-1.12 2-2.5S5.1 0 4 0zM1.91 5C.85 5.05 0 5.92 0 7v1h8V7c0-1.08-.84-1.95-1.91-2-.54.61-1.28 1-2.09 1-.81 0-1.55-.39-2.09-1z"/></symbol><symbol viewBox="0 0 5.010000228881836 8.010000228881836" id="si-open-phone"><path d="M.19 0C.08 0 0 .08 0 .19v7.63c0 .11.08.19.19.19h4.63c.11 0 .19-.08.19-.19V.19c0-.11-.08-.19-.19-.19H.19zM1 1h3v5H1V1zm1.5 5.5c.28 0 .5.22.5.5s-.22.5-.5.5S2 7.28 2 7s.22-.5.5-.5z"/></symbol><symbol viewBox="0 0 8 8.000274658203125" id="si-open-pie-chart"><path d="M3.5 0c-.97 0-1.84.4-2.47 1.03L4 4V.03A4.07 4.07 0 0 0 3.5 0zM5 1.06v3.41L2.28 7.19c.61.5 1.37.81 2.22.81C6.43 8 8 6.43 8 4.5c0-1.76-1.31-3.19-3-3.44zM.91 2.37C.35 2.91 0 3.66 0 4.5c0 .96.46 1.79 1.16 2.34l2.13-2.13L.91 2.37z"/></symbol><symbol viewBox="0 0 7 8.002705574035645" id="si-open-pin"><path d="M1.34.003a.506.506 0 0 0 .16 1H2v2H1c-.55 0-1 .45-1 1h3v3l.44 1 .56-1v-3h3c0-.55-.45-1-1-1H5v-2h.5a.5.5 0 1 0 0-1h-4a.5.5 0 0 0-.09 0 .5.5 0 0 0-.06 0z"/></symbol><symbol viewBox="0 0 8 8" id="si-open-play-circle"><path d="M4 0C1.79 0 0 1.79 0 4s1.79 4 4 4 4-1.79 4-4-1.79-4-4-4zM3 2l3 2-3 2V2z"/></symbol><symbol viewBox="0 0 8 8" id="si-open-plus"><path d="M3 0v3H0v2h3v3h2V5h3V3H5V0H3z"/></symbol><symbol viewBox="0 0 7 8" id="si-open-power-standby"><path d="M3 0v4h1V0H3zM1.72 1.44l-.38.31C.53 2.39 0 3.39 0 4.5 0 6.43 1.57 8 3.5 8S7 6.43 7 4.5c0-1.11-.53-2.11-1.34-2.75l-.38-.31-.63.78.38.31C5.61 2.99 6 3.7 6 4.5 6 5.89 4.89 7 3.5 7S1 5.89 1 4.5c0-.8.36-1.51.94-1.97l.41-.31-.63-.78z"/></symbol><symbol viewBox="0 0 8 8" id="si-open-print"><path d="M2 0v2h4V0H2zM.09 3C.03 3 0 3.04 0 3.09V5.9c0 .05.04.09.09.09H1v-2h6v2h.91c.05 0 .09-.04.09-.09V3.09C8 3.03 7.96 3 7.91 3H.1zM2 5v3h4V5H2z"/></symbol><symbol viewBox="0 0 8 7" id="si-open-project"><path d="M0 0v7h1V0H0zm7 0v7h1V0H7zM2 1v1h2V1H2zm1 2v1h2V3H3zm1 2v1h2V5H4z"/></symbol><symbol viewBox="0 0 8.010000228881836 7.320000648498535" id="si-open-pulse"><path d="M3.25 0l-.47 1.53L2 4.09l-.03-.06-.09-.34H0v1h1.16l.38 1.16.47 1.47.47-1.5.78-2.5.78 2.5.41 1.34.53-1.28.59-1.47.13.28h2.31v-1H6.32l-.38-.75-.5-.97L5.03 3l-.47 1.19-.84-2.66L3.25 0z"/></symbol><symbol viewBox="0 0 8 8" id="si-open-puzzle-piece"><path d="M3 0c-.28 0-.54.1-.72.28C2.1.46 2 .72 2 1c0 .28.18.48.28.72.03.06.03.16.03.28H0v6h2.31c0-.12-.01-.22-.03-.28C2.18 7.48 2 7.28 2 7c0-.28.1-.54.28-.72C2.46 6.1 2.72 6 3 6c.28 0 .54.1.72.28.18.18.28.44.28.72 0 .28-.18.48-.28.72-.03.06-.03.16-.03.28H6V5.69c.12 0 .22.01.28.03.24.1.44.28.72.28.28 0 .54-.1.72-.28C7.9 5.54 8 5.28 8 5c0-.28-.1-.54-.28-.72C7.54 4.1 7.28 4 7 4c-.28 0-.48.18-.72.28-.06.03-.16.03-.28.03V2H3.69c0-.12.01-.22.03-.28.1-.24.28-.44.28-.72 0-.28-.1-.54-.28-.72C3.54.1 3.28 0 3 0z"/></symbol><symbol viewBox="0 0 4.970000743865967 8" id="si-open-question-mark"><path d="M2.47 0C1.62 0 .99.26.59.66c-.4.4-.54.9-.59 1.28l1 .13c.04-.25.12-.5.31-.69C1.5 1.19 1.8 1 2.47 1c.66 0 1.02.16 1.22.34.2.18.28.4.28.66 0 .83-.34 1.06-.84 1.5-.5.44-1.16 1.08-1.16 2.25V6h1v-.25c0-.83.31-1.06.81-1.5.5-.44 1.19-1.08 1.19-2.25 0-.48-.17-1.02-.59-1.41C3.95.2 3.31 0 2.47 0zm-.5 7v1h1V7h-1z"/></symbol><symbol viewBox="0 0 8.010000228881836 8" id="si-open-rain"><path d="M4.5 0C3.29 0 2.23.86 2 2 .9 2 0 2.9 0 4c0 .53.2.99.53 1.34.26-.22.6-.34.97-.34.2 0 .39.05.56.13C2.23 4.49 2.8 4 3.5 4c.69 0 1.27.49 1.44 1.13.17-.07.36-.13.56-.13.63 0 1.15.39 1.38.94.64-.17 1.13-.75 1.13-1.44 0-.65-.42-1.29-1-1.5v-.5A2.5 2.5 0 0 0 4.51 0zM3.34 5a.5.5 0 0 0-.34.5v2a.5.5 0 1 0 1 0v-2a.5.5 0 0 0-.59-.5.5.5 0 0 0-.06 0zm-2 1a.5.5 0 0 0-.34.5v1a.5.5 0 1 0 1 0v-1a.5.5 0 0 0-.59-.5.5.5 0 0 0-.06 0zm4 0a.5.5 0 0 0-.34.5v1a.5.5 0 1 0 1 0v-1a.5.5 0 0 0-.59-.5.5.5 0 0 0-.06 0z"/></symbol><symbol viewBox="0 0 8 8" id="si-open-random"><path d="M6 0v1h-.5c-.35 0-.56.1-.78.38L3.31 3.16 1.78 1.38C1.56 1.12 1.34 1 1 1H0v1h1c-.05 0 .01.04.03.03l1.63 1.91L1 6H0v1h1c.35 0 .56-.1.78-.38l1.53-1.91 1.66 1.91c.22.26.44.38.78.38H6v1l2-1.5L6 5v1h-.22c-.01-.01-.05-.04-.06-.03L3.97 3.91 5.5 2H6v1l2-1.5L6 0z"/></symbol><symbol viewBox="0 0 7.989999771118164 8" id="si-open-reload"><path d="M4 0C1.8 0 0 1.8 0 4s1.8 4 4 4c1.1 0 2.12-.43 2.84-1.16l-.72-.72c-.54.54-1.29.88-2.13.88-1.66 0-3-1.34-3-3s1.34-3 3-3c.83 0 1.55.36 2.09.91L4.99 3h3V0L6.8 1.19C6.08.47 5.09 0 3.99 0z"/></symbol><symbol viewBox="0 0 8 8" id="si-open-resize-both"><path d="M4 0l1.66 1.66-4 4L0 4v4h4L2.34 6.34l4-4L8 4V0H4z"/></symbol><symbol viewBox="0 0 5 8" id="si-open-resize-height"><path d="M2.5 0L0 3h2v2H0l2.5 3L5 5H3V3h2L2.5 0z"/></symbol><symbol viewBox="0 0 8 5" id="si-open-resize-width"><path d="M3 0L0 2.5 3 5V3h2v2l3-2.5L5 0v2H3V0z"/></symbol><symbol viewBox="0 0 8 8" id="si-open-rss"><path d="M1 0v1c3.32 0 6 2.68 6 6h1c0-3.86-3.14-7-7-7zm0 2v1c2.21 0 4 1.79 4 4h1c0-2.76-2.24-5-5-5zm0 2v1c1.11 0 2 .89 2 2h1c0-1.65-1.35-3-3-3zm0 2c-.55 0-1 .45-1 1s.45 1 1 1 1-.45 1-1-.45-1-1-1z"/></symbol><symbol viewBox="0 0 8 8" id="si-open-rss-alt"><path d="M0 0v2c3.33 0 6 2.67 6 6h2c0-4.41-3.59-8-8-8zm0 3v2c1.67 0 3 1.33 3 3h2c0-2.75-2.25-5-5-5zm0 3v2h2a2 2 0 0 0-2-2z"/></symbol><symbol viewBox="0 0 8 8" id="si-open-script"><path d="M3 0c-.55 0-1 .45-1 1v5.5c0 .28-.22.5-.5.5S1 6.78 1 6.5V5H0v2c0 .55.45 1 1 1h5c.55 0 1-.45 1-1V4H3V1.5c0-.28.22-.5.5-.5s.5.22.5.5V3h4V1c0-.55-.45-1-1-1H3z"/></symbol><symbol viewBox="0 0 8 7" id="si-open-share"><path d="M5 0v2C1 2 0 4.05 0 7c.52-1.98 2-3 4-3h1v2l3-3.16L5 0z"/></symbol><symbol viewBox="0 0 8 7" id="si-open-share-boxed"><path d="M.75 0C.34 0 0 .34 0 .75v5.5c0 .41.34.75.75.75h4.5c.41 0 .75-.34.75-.75V5H5v1H1V1h2V0H.75zM6 0v1C3.95 1 2.3 2.54 2.06 4.53 2.27 3.65 3.05 3 4 3h2v1l2-2-2-2z"/></symbol><symbol viewBox="0 0 8 8" id="si-open-shield"><path d="M4 0l-.19.09-3.5 1.47-.31.13V2c0 1.66.67 3.12 1.47 4.19.4.53.83.97 1.25 1.28.42.31.83.53 1.28.53.46 0 .86-.22 1.28-.53.42-.31.85-.75 1.25-1.28C7.33 5.12 8 3.66 8 2v-.31l-.31-.13L4.19.09 4 0zm0 1.09V7c-.04 0-.33-.07-.66-.31s-.71-.63-1.06-1.09a6.26 6.26 0 0 1-1.22-3.28L4 1.1z"/></symbol><symbol viewBox="0 0 7 8" id="si-open-signal"><path d="M6 0v8h1V0H6zM4 1v7h1V1H4zM2 3v5h1V3H2zM0 5v3h1V5H0z"/></symbol><symbol viewBox="0 0 7 8" id="si-open-signpost"><path d="M3 0v1H1L0 2l1 1h2v5h1V4h2l1-1-1-1H4V0H3z"/></symbol><symbol viewBox="0 0 8 8" id="si-open-sort-ascending"><path d="M2 0v6H0l2.5 2L5 6H3V0H2zm2 0v1h2V0H4zm0 2v1h3V2H4zm0 2v1h4V4H4z"/></symbol><symbol viewBox="0 0 8 8" id="si-open-sort-descending"><path d="M2 0v6H0l2.5 2L5 6H3V0H2zm2 0v1h4V0H4zm0 2v1h3V2H4zm0 2v1h2V4H4z"/></symbol><symbol viewBox="0 0 8 7" id="si-open-spreadsheet"><path d="M.75 0C.34 0 0 .34 0 .75v5.5c0 .41.34.75.75.75h6.5c.41 0 .75-.34.75-.75V.75C8 .34 7.66 0 7.25 0H.75zM1 1h1v1H1V1zm2 0h4v1H3V1zM1 3h1v1H1V3zm2 0h4v1H3V3zM1 5h1v1H1V5zm2 0h4v1H3V5z"/></symbol><symbol viewBox="0 0 8 8" id="si-open-star"><path d="M4 0L3 3H0l2.5 2-1 3L4 6l2.5 2-1-3L8 3H5L4 0z"/></symbol><symbol viewBox="0 0 8 8" id="si-open-sun"><path d="M4 0c-.28 0-.5.22-.5.5s.22.5.5.5.5-.22.5-.5S4.28 0 4 0zM1.5 1c-.28 0-.5.22-.5.5s.22.5.5.5.5-.22.5-.5-.22-.5-.5-.5zm5 0c-.28 0-.5.22-.5.5s.22.5.5.5.5-.22.5-.5-.22-.5-.5-.5zM4 2c-1.1 0-2 .9-2 2s.9 2 2 2 2-.9 2-2-.9-2-2-2zM.5 3.5c-.28 0-.5.22-.5.5s.22.5.5.5.5-.22.5-.5-.22-.5-.5-.5zm7 0c-.28 0-.5.22-.5.5s.22.5.5.5.5-.22.5-.5-.22-.5-.5-.5zM1.5 6c-.28 0-.5.22-.5.5s.22.5.5.5.5-.22.5-.5-.22-.5-.5-.5zm5 0c-.28 0-.5.22-.5.5s.22.5.5.5.5-.22.5-.5-.22-.5-.5-.5zM4 7c-.28 0-.5.22-.5.5s.22.5.5.5.5-.22.5-.5S4.28 7 4 7z"/></symbol><symbol viewBox="0 0 6.990000247955322 7.990000247955322" id="si-open-tablet"><path d="M.34 0A.35.35 0 0 0 0 .34v7.31c0 .18.16.34.34.34h6.31c.18 0 .34-.16.34-.34V.34A.35.35 0 0 0 6.65 0H.34zM1 1h5v5H1V1zm2.5 5.5c.38 0 .63.42.44.75s-.68.33-.88 0c-.19-.33.05-.75.44-.75z"/></symbol><symbol viewBox="0 0 8 8" id="si-open-tag"><path d="M0 0v3l5 5 3-3-5-5H0zm2 1c.55 0 1 .45 1 1s-.45 1-1 1-1-.45-1-1 .45-1 1-1z"/></symbol><symbol viewBox="0 0 8 5" id="si-open-tags"><path d="M0 0v2l3 3 1.5-1.5L5 3 3 1 2 0H0zm3.41 0l3 3-1.19 1.22L6 5l2-2-3-3H3.41zM1.5 1c.28 0 .5.22.5.5s-.22.5-.5.5-.5-.22-.5-.5.22-.5.5-.5z"/></symbol><symbol viewBox="0 0 8 8" id="si-open-target"><path d="M4 0C1.8 0 0 1.8 0 4s1.8 4 4 4 4-1.8 4-4-1.8-4-4-4zm0 1c1.66 0 3 1.34 3 3S5.66 7 4 7 1 5.66 1 4s1.34-3 3-3zm0 1c-1.1 0-2 .9-2 2s.9 2 2 2 2-.9 2-2-.9-2-2-2zm0 1c.56 0 1 .44 1 1s-.44 1-1 1-1-.44-1-1 .44-1 1-1z"/></symbol><symbol viewBox="0 0 8 7" id="si-open-task"><path d="M0 0v7h7V3.41l-1 1V6H1V1h3.59l1-1H0zm7 0L4 3 3 2 2 3l2 2 4-4-1-1z"/></symbol><symbol viewBox="0 0 7.990000247955322 7.990000247955322" id="si-open-terminal"><path d="M.09 0C.03 0 0 .04 0 .09V7.9c0 .05.04.09.09.09H7.9c.05 0 .09-.04.09-.09V.09C7.99.03 7.95 0 7.9 0H.09zM1.5.78L3.22 2.5 1.5 4.22.78 3.5l1-1-1-1L1.5.78zM4 3h3v1H4V3z"/></symbol><symbol viewBox="0 0 8 8" id="si-open-text"><path d="M0 0v2h.5c0-.55.45-1 1-1H3v5.5c0 .28-.22.5-.5.5H2v1h4V7h-.5c-.28 0-.5-.22-.5-.5V1h1.5c.55 0 1 .45 1 1H8V0H0z"/></symbol><symbol viewBox="0 0 7 7.050000190734863" id="si-open-thumb-down"><path d="M0 0v4h1V0H0zm2 0v4c.28 0 .53.09.72.28.19.19 1.15 2.12 1.28 2.38.13.26.39.39.66.31.26-.08.4-.36.31-.63-.08-.26-.47-1.59-.47-1.84S4.72 4 5 4h1.5c.28 0 .5-.22.5-.5S5.97.31 5.97.31A.518.518 0 0 0 5.5 0H2z"/></symbol><symbol viewBox="0 0 7 7.010000228881836" id="si-open-thumb-up"><path d="M4.47.01C4.28.03 4.1.16 4 .35c-.13.26-1.09 2.19-1.28 2.38-.19.19-.44.28-.72.28v4h3.5c.21 0 .39-.13.47-.31C5.97 6.7 7 3.79 7 3.51c0-.28-.22-.5-.5-.5H5c-.28 0-.5-.25-.5-.5S4.89.93 4.97.67a.504.504 0 0 0-.31-.63C4.59.02 4.54 0 4.47.01zM0 3.01v4h1v-4H0z"/></symbol><symbol viewBox="0 0 7.134547710418701 8" id="si-open-timer"><path d="M2.125 0v1h1v.03a3.503 3.503 0 0 0 .5 6.97c1.93 0 3.5-1.57 3.5-3.5 0-.45-.1-.87-.25-1.25l-.91.38c.11.29.16.57.16.88 0 1.39-1.11 2.5-2.5 2.5s-2.5-1.11-2.5-2.5 1.11-2.5 2.5-2.5c.3 0 .59.05.88.16l.34-.94c-.23-.08-.47-.12-.72-.16v-.06h1v-1h-3zm5 1.16s-3.65 2.81-3.84 3c-.19.2-.19.49 0 .69.19.2.49.2.69 0 .2-.2 3.16-3.69 3.16-3.69z"/></symbol><symbol viewBox="0 0 8 7" id="si-open-transfer"><path d="M6 0v1H0v1h6v1l2-1.5L6 0zM2 4L0 5.5 2 7V6h6V5H2V4z"/></symbol><symbol viewBox="0 0 7 8" id="si-open-trash"><path d="M3 0c-.55 0-1 .45-1 1H1c-.55 0-1 .45-1 1h7c0-.55-.45-1-1-1H5c0-.55-.45-1-1-1H3zM1 3v4.81c0 .11.08.19.19.19h4.63c.11 0 .19-.08.19-.19V3h-1v3.5c0 .28-.22.5-.5.5s-.5-.22-.5-.5V3h-1v3.5c0 .28-.22.5-.5.5s-.5-.22-.5-.5V3h-1z"/></symbol><symbol viewBox="0 0 7 8" id="si-open-underline"><path d="M1 0v4c0 1.1 1.12 2 2.5 2H4c1.1 0 2-.9 2-2V0H5v4c0 .55-.45 1-1 1s-1-.45-1-1V0H1zM0 7v1h7V7H0z"/></symbol><symbol viewBox="0 0 8 7" id="si-open-vertical-align-bottom"><path d="M.09 0C.03 0 0 .04 0 .09V4.9c0 .05.04.09.09.09H1.9c.05 0 .09-.04.09-.09V.09C1.99.03 1.95 0 1.9 0H.09zm6 0A.09.09 0 0 0 6 .09V4.9c0 .05.04.09.09.09H7.9c.05 0 .09-.04.09-.09V.09C7.99.03 7.95 0 7.9 0H6.09zm-3 2c-.06 0-.09.04-.09.09V4.9c0 .05.04.09.09.09H4.9c.05 0 .09-.04.09-.09V2.09c0-.06-.04-.09-.09-.09H3.09zM0 6v1h8V6H0z"/></symbol><symbol viewBox="0 0 8.010000228881836 7" id="si-open-vertical-align-center"><path d="M.1 0C.04 0 .01.04.01.09V2h2V.09c0-.06-.04-.09-.09-.09H.11zm6 0a.09.09 0 0 0-.09.09V2h2V.09c0-.06-.04-.09-.09-.09H6.11zm-3 1c-.06 0-.09.04-.09.09V2h2v-.91A.09.09 0 0 0 4.92 1H3.11zM.01 3v1h8V3h-8zm0 2v1.91c0 .05.04.09.09.09h1.81c.05 0 .09-.04.09-.09V5H0zm3 0v.91c0 .05.04.09.09.09h1.81c.05 0 .09-.04.09-.09V5H3zm3 0v1.91c0 .05.04.09.09.09h1.81c.05 0 .09-.04.09-.09V5H6z"/></symbol><symbol viewBox="0 0 8 6.990000247955322" id="si-open-vertical-align-top"><path d="M0 0v1h8V0H0zm.09 2C.03 2 0 2.04 0 2.09V6.9c0 .05.04.09.09.09H1.9c.05 0 .09-.04.09-.09V2.09c0-.06-.04-.09-.09-.09H.09zm3 0c-.06 0-.09.04-.09.09V4.9c0 .05.04.09.09.09H4.9c.05 0 .09-.04.09-.09V2.09c0-.06-.04-.09-.09-.09H3.09zm3 0a.09.09 0 0 0-.09.09V6.9c0 .05.04.09.09.09H7.9c.05 0 .09-.04.09-.09V2.09c0-.06-.04-.09-.09-.09H6.09z"/></symbol><symbol viewBox="0 0 8 5" id="si-open-video"><path d="M.5 0C.22 0 0 .23 0 .5v4c0 .28.23.5.5.5h5c.28 0 .5-.22.5-.5V3l1 1h1V1H7L6 2V.5c0-.28-.22-.5-.5-.5h-5z"/></symbol><symbol viewBox="0 0 8 8" id="si-open-volume-high"><path d="M3.34 0L2 2H0v4h2l1.34 2H4V0h-.66zM5 1v1c.17 0 .34.02.5.06.86.22 1.5 1 1.5 1.94a1.987 1.987 0 0 1-2 2v1c.25 0 .48-.04.72-.09h.03C7.05 6.58 8 5.4 8 4c0-1.4-.95-2.58-2.25-2.91C5.52 1.03 5.26 1 5 1zm0 2v2c.09 0 .18-.01.25-.03.43-.11.75-.51.75-.97a.997.997 0 0 0-1-1z"/></symbol><symbol viewBox="0 0 6.000800132751465 8" id="si-open-volume-low"><path d="M3.34 0L2 2H0v4h2l1.34 2H4V0h-.66zM5 3v2c.09 0 .18-.01.25-.03.43-.11.75-.51.75-.97a.997.997 0 0 0-1-1z"/></symbol><symbol viewBox="0 0 4 8" id="si-open-volume-off"><path d="M3.34 0L2 2H0v4h2l1.34 2H4V0h-.66z"/></symbol><symbol viewBox="0 0 6.990000247955322 7.990000247955322" id="si-open-warning"><path d="M3.1 0c-.06 0-.1.04-.13.09L.03 6.9c-.02.05-.03.13-.03.19v.81c0 .05.04.09.09.09H6.9c.05 0 .09-.04.09-.09v-.81c0-.05-.01-.14-.03-.19L4.02.09A.142.142 0 0 0 3.89 0h-.81zm-.09 3h1v2h-1V3zm0 3h1v1h-1V6z"/></symbol><symbol viewBox="0 0 7.529999732971191 8" id="si-open-wifi"><path d="M3.75 0C2.37 0 1.09.4 0 1.09l.53.81c.93-.59 2.03-.91 3.22-.91 1.2 0 2.32.31 3.25.91l.53-.81C6.44.39 5.13 0 3.75 0zm0 3c-.79 0-1.5.23-2.13.63l.53.84c.47-.3 1-.47 1.59-.47.59 0 1.16.17 1.63.47l.53-.84C5.28 3.24 4.53 3 3.74 3zm0 3c-.55 0-1 .45-1 1s.45 1 1 1 1-.45 1-1-.45-1-1-1z"/></symbol><symbol viewBox="0 0 8.119999885559082 8.010000228881836" id="si-open-wrench"><path d="M5.61 0a2.5 2.5 0 0 0-2.5 2.5c0 .32.08.62.19.91L.39 6.29C0 6.68 0 7.34.39 7.73c.2.2.46.28.72.28.26 0 .52-.09.72-.28l2.88-2.91c.28.11.58.19.91.19a2.5 2.5 0 0 0 2.5-2.5c0-.16 0-.32-.03-.47l-.97.97h-2v-2l.97-.97C5.94.01 5.78.01 5.62.01zm-4.5 6.5c.28 0 .5.22.5.5s-.22.5-.5.5-.5-.22-.5-.5.22-.5.5-.5z"/></symbol><symbol viewBox="0 0 7.849999904632568 7.849999904632568" id="si-open-x"><path d="M1.41 0L0 1.41l.72.72L2.5 3.94.72 5.72 0 6.41l1.41 1.44.72-.72 1.81-1.81 1.78 1.81.69.72 1.44-1.44-.72-.69-1.81-1.78 1.81-1.81.72-.72L6.41 0l-.69.72L3.94 2.5 2.13.72 1.41 0z"/></symbol><symbol viewBox="0 0 7 8" id="si-open-yen"><path d="M0 0l2.25 3H0v1h3v1H0v1h3v2h1V6h3V5H4V4h3V3H4.75L7 0H6L3.69 3h-.38L1 0H0z"/></symbol><symbol viewBox="0 0 8.12348747253418 8.12348747253418" id="si-open-zoom-in"><path d="M3.5 0C1.57 0 0 1.57 0 3.5S1.57 7 3.5 7c.61 0 1.19-.16 1.69-.44a1 1 0 0 0 .09.13l1 1.03a1.02 1.02 0 1 0 1.44-1.44l-1.03-1a1 1 0 0 0-.13-.09c.27-.5.44-1.08.44-1.69C7 1.57 5.43 0 3.5 0zm0 1C4.89 1 6 2.11 6 3.5c0 .59-.2 1.14-.53 1.56l-.03.03a1 1 0 0 0-.06.03 1 1 0 0 0-.25.28c-.44.37-1.01.59-1.63.59-1.39 0-2.5-1.11-2.5-2.5S2.11.99 3.5.99zM3 2v1H2v1h1v1h1V4h1V3H4V2H3z"/></symbol><symbol viewBox="0 0 8.12348747253418 8.12348747253418" id="si-open-zoom-out"><path d="M3.5 0C1.57 0 0 1.57 0 3.5S1.57 7 3.5 7c.61 0 1.19-.16 1.69-.44a1 1 0 0 0 .09.13l1 1.03a1.02 1.02 0 1 0 1.44-1.44l-1.03-1a1 1 0 0 0-.13-.09c.27-.5.44-1.08.44-1.69C7 1.57 5.43 0 3.5 0zm0 1C4.89 1 6 2.11 6 3.5c0 .59-.2 1.14-.53 1.56l-.03.03a1 1 0 0 0-.06.03 1 1 0 0 0-.25.28c-.44.37-1.01.59-1.63.59-1.39 0-2.5-1.11-2.5-2.5S2.11.99 3.5.99zM2 3v1h3V3H2z"/></symbol></svg>