<svg viewBox="0 0 1195 1195" xmlns="http://www.w3.org/2000/svg"><path d="M277.333 352q0-13 9.5-22.5t22.5-9.5h768q13 0 22.5 9.5t9.5 22.5q0 14-9.5 23t-22.5 9h-768q-13 0-22.5-9t-9.5-23zm-192 0q0-14 9.5-23t22.5-9 22.5 9 9.5 23q0 13-9.5 22.5t-22.5 9.5-22.5-9.5-9.5-22.5zm192 320q0-14 9.5-23t22.5-9h768q13 0 22.5 9t9.5 23q0 13-9.5 22.5t-22.5 9.5h-768q-13 0-22.5-9.5t-9.5-22.5zm-192-2q0-13 9.5-22.5t22.5-9.5 22.5 9.5 9.5 22.5q0 14-9.5 23t-22.5 9-22.5-9-9.5-23zm192 323q0-13 9.5-22.5t22.5-9.5h768q13 0 22.5 9.5t9.5 22.5-9.5 22.5-22.5 9.5h-768q-13 0-22.5-9.5t-9.5-22.5zm-192-1q0-13 9.5-22.5t22.5-9.5 22.5 9.5 9.5 22.5-9.5 22.5-22.5 9.5-22.5-9.5-9.5-22.5z"/></svg>