<svg viewBox="0 0 1195 1195" xmlns="http://www.w3.org/2000/svg"><path d="M597.333 192q91 0 174 35 81 34 143 96t96 143q35 83 35 174t-35 174q-34 81-96 143t-143 96q-83 35-174 35t-174-35q-81-34-143-96t-96-143q-35-83-35-174t35-174q34-81 96-143t143-96q83-35 174-35zm0-64q-139 0-257 68.5T153.833 383t-68.5 257 68.5 257 186.5 186.5 257 68.5 257-68.5 186.5-186.5 68.5-257-68.5-257-186.5-186.5-257-68.5zm-182 490l257-258q10-9 23-9t23 9q9 9 9 22.5t-9 22.5l-235 236 234 233q9 9 9 22.5t-9 22.5q-10 10-23 10t-23-10l-256-256q-9-9-9-22.5t9-22.5z"/></svg>