<svg viewBox="0 0 1195 1195" xmlns="http://www.w3.org/2000/svg"><path d="M968.333 422q-8-33-21-64-29-67-82-119-53-51-122-80-71-29-148.5-29t-148.5 29q-68 28-121 80t-82 119q-14 31-22 65-59 19-97 70t-38 116q0 80 57 137 41 41 96 53 15 3 27-6.5t12-25.5l-2-263q0-128 93-219 94-91 226-91t225 91q93 90 93 218v276q0 128-93 218-45 44-103 68 6-20 6-42-1-50-37-85.5t-86-37.5q-53-1-91 36t-38 90q0 52 36 88.5t88 37.5h5q75-1 143-29 69-28 122-80t82-119q27-62 30-131 42-15 74-47 57-57 57-137 0-66-39.5-118t-100.5-69zm-780 279q-38-38-38-92 0-35 17-65t45-47v223q-13-8-24-19zm411 387h-3q-25 0-43-18t-18-43.5 18-44 44-18.5 44 18.5 18 43.5-17.5 43-42.5 19zm407-387q-13 13-29 22V494q30 17 48.5 47.5t18.5 67.5q0 54-38 92z"/></svg>