<svg viewBox="0 0 1195 1195" xmlns="http://www.w3.org/2000/svg"><path d="M1008.333 713q-15 0-25.5 10.5t-10.5 25.5v236q0 12-9 21t-21 9h-690q-12 0-21-9t-9-21V295q0-12 9-21t21-9h310q15 0 25.5-10.5t10.5-25.5-10.5-25.5-25.5-10.5h-310q-42 0-72 30t-30 72v690q0 42 30 72t72 30h690q42 0 72-30t30-72V749q0-15-10.5-25.5t-25.5-10.5zm28-289l-231-220q-17-17-39-7.5t-22 33.5v118q-187 12-286 162-24 36-40.5 78t-20 58-4.5 26q-3 15 6 27t24 14q2 1 5 1 14 0 24-9t12-22q1-7 4-21t17-49.5 34-64.5q87-129 257-130 3 1 4 1 15 0 25.5-10.5t10.5-25.5v-69l141 134-141 118v-58q0-15-10.5-25.5t-25.5-10.5-25.5 10.5-10.5 25.5v135q0 23 21 32 7 4 15 4 13 0 23-9l231-192q13-11 13.5-27t-11.5-27z"/></svg>