<svg viewBox="0 0 1196 1196" xmlns="http://www.w3.org/2000/svg"><path d="M597.417 330q134 0 233 50 80 40 135 109 48 60 78 152-30 92-78 151v1q-55 69-135 109-100 50-233 50t-234-50q-79-40-135-109-48-60-77-152 29-92 77-152 56-69 136-109 100-50 233-50zm0-64q-148 0-262 57-92 45-156 126-28 35-51.5 82.5t-33 76-9.5 33.5 9.5 33.5 33 76 51.5 82.5q64 80 156 126 114 57 262 57t262-57q92-46 157-126 27-35 50.5-82.5t33-76 9.5-33.5-9.5-33.5-33-76-50.5-82.5q-65-80-157-126-113-57-262-57zm0 247q53 0 90 37t37 90-37 90-90 37-90-37-37-90 37-90 90-37zm0-64q-79 0-135 56t-56 135 56 135 135 56 135-56 56-135-56-135-135-56z"/></svg>