<svg viewBox="0 0 1195 1195" xmlns="http://www.w3.org/2000/svg"><path d="M751.333 128h-461q-32 0-54.5 21.5t-22.5 51.5v878q0 30 22.5 51.5t54.5 21.5h614q32 0 54.5-21.5t22.5-51.5V385zm143 256h-169V195zm10 704h-614q-5 0-9-3t-4-6V201q0-3 4-6t9-3h371v192q0 26 19 45t45 19h192v631q0 3-4 6t-9 3zm-50-252q-1-7-8-13-15-15-68-16-35 0-81 6-26-15-38-26-44-42-68-106 1-4 3-11 2-10 4.5-26t6-49.5 1.5-47.5q-1-5-2-9l-2-4q-9-21-26-20l-9-1q-25 0-30 20-12 44 18 161l-4 12q-13 31-45 93l-1 4q-22 42-42 77l-14 7q-14 7-28 16-71 42-79 80-3 16 7 22l13 7q8 4 17 4 46 0 119-128 92-30 184-44 34 19 71 31t63 12q9 0 16-2 10-3 16-11 9-14 6-38zm-482 156q5-13 22-34.5t41-40.5q1-2 12-11-46 73-75 86zm201-462q7 0 11.5 15t4.5 35q1 30-12 53-9-27-9-67 0-36 5-36zm-60 329q13-23 22-40 23-44 38-85 26 47 64 80 3 2 10 8-75 15-134 37zm323-3q-5 3-18 3-21 0-73-22 19-1 34-1 24 0 42 4 8 2 12.5 6t4 6.5-1.5 3.5z"/></svg>