<svg viewBox="0 0 1196 1196" xmlns="http://www.w3.org/2000/svg"><path d="M933.417 166q-5-17-19-27t-31-10h-578q-18 0-32 10.5t-19 26.5q-169 607-169 612v321q0 23 16 38.5t38 15.5h916q22 0 38-15.5t16-38.5l1-330zm-620 27h562l168 576h-892zm732 896h-896V833h896v256zm-352-64q13 0 22.5-9.5t9.5-22.5v-64q0-13-9.5-22.5t-22.5-9.5-22.5 9.5-9.5 22.5v64q0 13 9.5 22.5t22.5 9.5zm128.5 0q13.5 0 22.5-9.5t9-22.5v-64q0-13-9-22.5t-22.5-9.5-23 9.5-9.5 22.5v64q0 13 9.5 22.5t23 9.5zm128 0q13.5 0 22.5-9.5t9-22.5v-64q0-13-9-22.5t-22.5-9.5-23 9.5-9.5 22.5v64q0 13 9.5 22.5t23 9.5z"/></svg>