<svg viewBox="0 0 1195 1195" xmlns="http://www.w3.org/2000/svg"><path d="M982.333 576v-42q0-82-31-158-29-73-82-129t-122-87q-72-32-150-32t-150 32q-69 31-122 87.5t-83 128.5q-30 76-30 158v545q0 30 20.5 51.5t48.5 21.5h632q28 0 48.5-21.5t20.5-51.5V576zm-706-42q0-70 26-134 25-62 69-109 45-47 102-72h1q58-27 123-27 64 0 123 26 58 26 102 73 45 48 70 109 26 64 26 134v42h-642v-42zm642 545q0 9-5 9h-632q-5 0-5-9V640h642v439zm-258-311q0-26-18.5-44.5t-44.5-18.5-44.5 18.5-18.5 44.5q0 36 31 55v106q0 13 9.5 22.5t22.5 9.5 22.5-9.5 9.5-22.5V822q31-18 31-54z"/></svg>