<svg viewBox="0 0 1195 1195" xmlns="http://www.w3.org/2000/svg"><path d="M595.333 834q-13 0-22.5-9.5t-9.5-22.5v-11q0-48 24.5-79.5t75.5-57.5q35-19 55.5-53.5t20.5-74.5q0-59-42-101.5t-102-42.5q-62 0-103 37-30 28-38 68-2 12-11 19t-20 7q-16 0-25.5-11.5t-6.5-26.5q12-62 59-103 59-54 145-54 87 0 147.5 61t60.5 147q0 58-29.5 107.5t-80.5 76.5q-36 19-51 35t-15 46v11q0 13-9 22.5t-23 9.5zm0 128q-13 0-22.5-9.5t-9.5-22.5 9.5-22.5 22.5-9.5q14 0 23 9.5t9 22.5-9 22.5-23 9.5zm2-770q91 0 174 35 81 34 143 96t96 143q35 83 35 174t-35 174q-34 81-96 143t-143 96q-83 35-174 35t-174-35q-81-34-143-96t-96-143q-35-83-35-174t35-174q34-81 96-143t143-96q83-35 174-35zm0-64q-139 0-257 68.5T153.833 383t-68.5 257 68.5 257 186.5 186.5 257 68.5 257-68.5 186.5-186.5 68.5-257-68.5-257-186.5-186.5-257-68.5z"/></svg>