<svg viewBox="0 0 1195 1195" xmlns="http://www.w3.org/2000/svg"><path d="M307.833 446q13.5 0 23 9.5t9.5 23-9.5 23-23 9.5-23-9.5-9.5-23 9.5-23 23-9.5zm.5-64q-40 0-68.5 28.5t-28.5 68.5 28.5 68 68.5 28 68-28 28-68-28-68.5-68-28.5zm781 330l-449-453q-13-14-32-14h-453q-29 0-49.5 20.5t-20.5 48.5v280q0 18 13 32l448 443q21 20 50 20t49-20l41-41 41 41q20 20 49 20t50-20l263-260q20-20 20-48.5t-20-48.5zm-448 272l-40 39q-2 2-5 2t-5-2l-442-437V314q0-5 6-5h265l443 448q2 1 2 3t-2 3l-177 175zm402-220l-262 259q-2 2-5 2t-4-2l-40-39 176-175q21-20 21-48.5t-20-48.5l-399-403h90l443 448q2 1 2 3t-2 4z"/></svg>