<svg viewBox="0 0 1195 1195" xmlns="http://www.w3.org/2000/svg"><path d="M970.333 619q-41-41-95-60 62-26 100-82t38-125q0-93-65.5-158.5t-158.5-65.5q-71 0-128.5 41t-81.5 106q-32-39-77-61t-97-22q-93 0-158.5 65.5t-65.5 158.5q0 69 38 125t100 82q-54 19-95 60-75 75-75 181v191q0 40 28 68t68 28h320q31 0 55.5-18t34.5-46h294q40 0 68-28t28-68V800q0-106-75-181zm-294-380q47-47 113-47t113 47 47 113-47 113-113 47-113-47-47-113 47-113zm-384 290q-47-47-47-113t47-113 113-47 113 47 47 113-47 113-113 47-113-47zm305 526q0 13-9.5 22.5t-22.5 9.5h-320q-13 0-22.5-9.5t-9.5-22.5V864q0-79 56.5-135.5t135.5-56.5 136 56q1 2 2 3 54 55 54 133v191zm-27-387q-36-30-79-45 43-18 75.5-52t48.5-78q36 44 88 66-54 19-95 60-22 23-38 49zm411 323q0 13-9.5 22.5t-22.5 9.5h-288V864q0-80-46-146 15-30 38-53 57-57 136-57t135.5 56.5 56.5 135.5v191z"/></svg>