<svg xmlns="http://www.w3.org/2000/svg" version="1" viewBox="0 0 692.7499389648438 480.0009765625"><g fill-rule="evenodd" clip-path="url(#a)" transform="translate(101.475) scale(.9375)"><path fill="#ffe900" d="M-107.85.239H629.8v511.29h-737.65z"/><path fill="#35a100" d="M-108.24.239l.86 368.58L466.6-.001l-574.84.238z"/><path fill="#c70000" d="M630.69 511.53l-1.347-383.25-578.98 383.54 580.33-.283z"/><path d="M-107.87 396.61l.49 115.39 125.25-.16L629.63 101.7l-.69-100.32L505.18.239l-613.05 396.37z"/><path fill="#fff" d="M380.455 156.62l-9.913-42.245 33.354 27.075 38.014-24.636-17.437 41.311 33.404 27.021-44.132-1.541-17.37 41.333-9.835-42.265-44.138-1.48zM105.21 335.53l-9.913-42.245 33.354 27.075 38.014-24.636-17.437 41.311 33.404 27.021-44.132-1.541-17.37 41.333-9.835-42.265-44.138-1.48z"/></g></svg>