<svg xmlns="http://www.w3.org/2000/svg" version="1" viewBox="0 0 640 281.2049865722656"><g fill-rule="evenodd"><rect fill="#fff" rx="0" ry="0"/><rect y="320.7" fill="#fff" rx="0" ry="0"/><path fill="#fff" d="M0 0h480v159.3H0zm201.9 281l-28.822-20.867-28.68 21.072 10.667-34.242-28.628-21.145 35.418-.295 10.985-34.138 11.221 34.06 35.418.045-28.481 21.344L201.9 281zm307.64 0l-28.822-20.867-28.68 21.072 10.667-34.242-28.628-21.145 35.418-.295 10.985-34.138 11.221 34.06 35.418.045-28.481 21.344L509.54 281z"/><rect y="320.7" rx="0" ry="0"/><path fill="red" d="M0 0h640v159.3H0z"/><path fill="#090" d="M201.9 281l-28.822-20.867-28.68 21.072 10.667-34.242-28.628-21.145 35.418-.295 10.985-34.138 11.221 34.06 35.418.045-28.481 21.344L201.9 281zm307.64 0l-28.822-20.867-28.68 21.072 10.667-34.242-28.628-21.145 35.418-.295 10.985-34.138 11.221 34.06 35.418.045-28.481 21.344L509.54 281z"/></g></svg>