<svg xmlns="http://www.w3.org/2000/svg" viewBox="0 0 960.0001220703125 480.00286865234375"><g clip-path="url(#a)" transform="scale(.9375)"><path fill="#319208" fill-rule="evenodd" d="M0 438.86h1024v73.143H0z"/><path fill="#de2010" fill-rule="evenodd" d="M0 292.57h1024v73.143H0z"/><path fill="#ffd200" fill-rule="evenodd" d="M0 365.71h1024v73.143H0z"/><path fill="#de2010" fill-rule="evenodd" d="M0 146.29h1024v73.143H0z"/><path fill="#ffd200" fill-rule="evenodd" d="M0 73.143h1024v73.143H0z"/><path fill="#319208" fill-rule="evenodd" d="M0 0h1024v73.143H0z"/><path fill-rule="evenodd" d="M28.891 0v512l343.77-256L28.891 0z"/><path fill-rule="evenodd" d="M0 0h29.257v512H0z"/><path fill-rule="evenodd" d="M0 0v512l373.03-256L0 0z"/><path fill-rule="evenodd" d="M0 219.43h1024v73.143H0z"/><path fill="#fff" fill-rule="evenodd" d="M0 0v512l343.77-256L0 0z"/><path fill="#d62419" fill-rule="evenodd" d="M131.957 114.662l27.271 90.366 97.405.854-77.523 53.863 29.296 92.886-75.178-57.08-79.296 56.566 31.054-89.142-78.309-57.931 94.387 1.985z"/><path fill="#f7df00" fill-rule="evenodd" stroke="#000" stroke-width="1.468" d="M50.042 166.226c1.657-2.985 1.988-4.643 10.612-8.292 11.275-32.832 40.129-19.898 56.048 25.537 14.592 6.301 101.814 71.303 100.488 74.951-.663 3.317-11.608.664-11.608.664s-17.245 73.625-17.576 73.625c-32.171-4.311-82.249-4.975-116.411-4.311.331-5.639-9.286-42.451-9.286-42.451s-8.292-2.653 5.638-30.843c14.924-35.485 17.909-93.192-17.908-88.88z"/><path fill="none" stroke="#000" stroke-width="1.468" d="M79.55 152.953a3.648 3.648 0 1 1-7.297 0 3.648 3.648 0 0 1 7.296 0zm36.154 30.519s-28.522 16.25-36.813 15.918m126.689 59.694c-1.99-1.659-105.791-6.633-101.484-41.788m16.583 42.449s11.275 6.633 20.892-10.613m-8.291 10.282s7.96 7.296 19.568-8.622M62.644 285.95s7.295.995 8.623-3.317m25.859 46.097c0-.331-7.296-47.094-7.296-47.094 36.039 3.206 73.404 3.428 108.113 9.619"/><path fill="none" stroke="#000" stroke-width="1.468" d="M93.483 282.296l9.948 11.607 10.282-9.95 8.622 9.287m2.658.337l8.622-7.628 9.287 8.954m1.649-.005l9.618-8.622 7.296 8.623m3.986.339l8.623-5.97 7.627 7.297m5.971-.335l6.301-5.97"/><path fill="none" stroke="#000" stroke-width="1.468" d="M91.821 292.906l10.613 12.272 10.612-9.619 9.286 9.95 10.613-9.286 8.955 10.612 10.944-9.286s8.29 10.281 9.286 10.281 10.944-8.622 10.944-8.622l9.618 10.612 13.265-10.612m-102.474 5.639s85.564 3.317 99.492 6.634m-85.229-45.431s81.252 4.312 94.187 9.286"/><path fill="none" stroke="#000" stroke-width="1.468" d="M91.16 232.218c.664 4.975-5.306 22.22-11.606 28.19-8.624 6.965-7.629 21.557-7.629 21.557.995 5.97 13.93 5.306 15.588 2.322 1.326-13.598 15.918-16.583 15.918-16.583s20.231-5.637 28.854-22.551m-.335 30.177a4.311 4.311 0 1 1-8.624 0 4.311 4.311 0 0 1 8.623 0zm19.237 1.66a4.311 4.311 0 1 1-8.622.001 4.311 4.311 0 0 1 8.622 0z"/></g></svg>