<svg xmlns="http://www.w3.org/2000/svg" viewBox="0 0 1792 1776"><path d="M960 256q0-26-19-45t-45-19-45 19-19 45 19 45 45 19 45-19 19-45zm832 928v352q0 22-20 30-8 2-12 2-13 0-23-9l-93-93q-119 143-318.5 226.5T896 1776t-429.5-83.5T148 1466l-93 93q-9 9-23 9-4 0-12-2-20-8-20-30v-352q0-14 9-23t23-9h352q22 0 30 20 8 19-7 35l-100 100q67 91 189.5 153.5T768 1543V896H576q-26 0-45-19t-19-45V704q0-26 19-45t45-19h192V477q-58-34-93-92.5T640 256q0-106 75-181T896 0t181 75 75 181q0 70-35 128.5t-93 92.5v163h192q26 0 45 19t19 45v128q0 26-19 45t-45 19h-192v647q149-20 271.5-82.5T1485 1307l-100-100q-15-16-7-35 8-20 30-20h352q14 0 23 9t9 23z"/></svg>