<svg xmlns="http://www.w3.org/2000/svg" viewBox="0 0 2176 1408"><path d="M192 1056q-66 0-113 47t-47 113 47 113 113 47 113-47 47-113-47-113-113-47zm512 0q-66 0-113 47t-47 113 47 113 113 47 113-47 47-113-47-113-113-47zm0-512q-66 0-113 47t-47 113 47 113 113 47 113-47 47-113-47-113-113-47zm768 512q-66 0-113 47t-47 113 47 113 113 47 113-47 47-113-47-113-113-47zm512 0q-66 0-113 47t-47 113 47 113 113 47 113-47 47-113-47-113-113-47zm-512-512q-66 0-113 47t-47 113 47 113 113 47 113-47 47-113-47-113-113-47zm512 0q-66 0-113 47t-47 113 47 113 113 47 113-47 47-113-47-113-113-47zm0-512q-66 0-113 47t-47 113 47 113 113 47 113-47 47-113-47-113-113-47zM384 1216q0 80-56 136t-136 56-136-56-56-136 56-136 136-56 136 56 56 136zm512 0q0 80-56 136t-136 56-136-56-56-136 56-136 136-56 136 56 56 136zM384 704q0 80-56 136t-136 56-136-56T0 704t56-136 136-56 136 56 56 136zm512 0q0 80-56 136t-136 56-136-56-56-136 56-136 136-56 136 56 56 136zM384 192q0 80-56 136t-136 56-136-56T0 192 56 56 192 0t136 56 56 136zm1280 1024q0 80-56 136t-136 56-136-56-56-136 56-136 136-56 136 56 56 136zM896 192q0 80-56 136t-136 56-136-56-56-136 56-136T704 0t136 56 56 136zm1280 1024q0 80-56 136t-136 56-136-56-56-136 56-136 136-56 136 56 56 136zm-512-512q0 80-56 136t-136 56-136-56-56-136 56-136 136-56 136 56 56 136zm512 0q0 80-56 136t-136 56-136-56-56-136 56-136 136-56 136 56 56 136zm-512-512q0 80-56 136t-136 56-136-56-56-136 56-136 136-56 136 56 56 136zm512 0q0 80-56 136t-136 56-136-56-56-136 56-136 136-56 136 56 56 136z"/></svg>