<svg xmlns="http://www.w3.org/2000/svg" viewBox="0 0 1408 1792"><path d="M384 1312v64q0 13-9.5 22.5T352 1408h-64q-13 0-22.5-9.5T256 1376v-64q0-13 9.5-22.5t22.5-9.5h64q13 0 22.5 9.5t9.5 22.5zm0-256v64q0 13-9.5 22.5T352 1152h-64q-13 0-22.5-9.5T256 1120v-64q0-13 9.5-22.5t22.5-9.5h64q13 0 22.5 9.5t9.5 22.5zm256 0v64q0 13-9.5 22.5T608 1152h-64q-13 0-22.5-9.5T512 1120v-64q0-13 9.5-22.5t22.5-9.5h64q13 0 22.5 9.5t9.5 22.5zM384 800v64q0 13-9.5 22.5T352 896h-64q-13 0-22.5-9.5T256 864v-64q0-13 9.5-22.5T288 768h64q13 0 22.5 9.5T384 800zm768 512v64q0 13-9.5 22.5t-22.5 9.5h-64q-13 0-22.5-9.5t-9.5-22.5v-64q0-13 9.5-22.5t22.5-9.5h64q13 0 22.5 9.5t9.5 22.5zm-256-256v64q0 13-9.5 22.5T864 1152h-64q-13 0-22.5-9.5T768 1120v-64q0-13 9.5-22.5t22.5-9.5h64q13 0 22.5 9.5t9.5 22.5zM640 800v64q0 13-9.5 22.5T608 896h-64q-13 0-22.5-9.5T512 864v-64q0-13 9.5-22.5T544 768h64q13 0 22.5 9.5T640 800zM384 544v64q0 13-9.5 22.5T352 640h-64q-13 0-22.5-9.5T256 608v-64q0-13 9.5-22.5T288 512h64q13 0 22.5 9.5T384 544zm768 512v64q0 13-9.5 22.5t-22.5 9.5h-64q-13 0-22.5-9.5t-9.5-22.5v-64q0-13 9.5-22.5t22.5-9.5h64q13 0 22.5 9.5t9.5 22.5zM896 800v64q0 13-9.5 22.5T864 896h-64q-13 0-22.5-9.5T768 864v-64q0-13 9.5-22.5T800 768h64q13 0 22.5 9.5T896 800zM640 544v64q0 13-9.5 22.5T608 640h-64q-13 0-22.5-9.5T512 608v-64q0-13 9.5-22.5T544 512h64q13 0 22.5 9.5T640 544zM384 288v64q0 13-9.5 22.5T352 384h-64q-13 0-22.5-9.5T256 352v-64q0-13 9.5-22.5T288 256h64q13 0 22.5 9.5T384 288zm768 512v64q0 13-9.5 22.5T1120 896h-64q-13 0-22.5-9.5T1024 864v-64q0-13 9.5-22.5t22.5-9.5h64q13 0 22.5 9.5t9.5 22.5zM896 544v64q0 13-9.5 22.5T864 640h-64q-13 0-22.5-9.5T768 608v-64q0-13 9.5-22.5T800 512h64q13 0 22.5 9.5T896 544zM640 288v64q0 13-9.5 22.5T608 384h-64q-13 0-22.5-9.5T512 352v-64q0-13 9.5-22.5T544 256h64q13 0 22.5 9.5T640 288zm512 256v64q0 13-9.5 22.5T1120 640h-64q-13 0-22.5-9.5T1024 608v-64q0-13 9.5-22.5t22.5-9.5h64q13 0 22.5 9.5t9.5 22.5zM896 288v64q0 13-9.5 22.5T864 384h-64q-13 0-22.5-9.5T768 352v-64q0-13 9.5-22.5T800 256h64q13 0 22.5 9.5T896 288zm256 0v64q0 13-9.5 22.5T1120 384h-64q-13 0-22.5-9.5T1024 352v-64q0-13 9.5-22.5t22.5-9.5h64q13 0 22.5 9.5t9.5 22.5zM896 1664h384V128H128v1536h384v-224q0-13 9.5-22.5t22.5-9.5h320q13 0 22.5 9.5t9.5 22.5v224zM1408 64v1664q0 26-19 45t-45 19H64q-26 0-45-19t-19-45V64q0-26 19-45T64 0h1280q26 0 45 19t19 45z"/></svg>