<svg xmlns="http://www.w3.org/2000/svg" viewBox="0 0 1664 1792"><path d="M1536 256q52 0 90 38t38 90v1280q0 52-38 90t-90 38H128q-52 0-90-38t-38-90V384q0-52 38-90t90-38h128v-96q0-66 47-113T416 0h64q66 0 113 47t47 113v96h384v-96q0-66 47-113t113-47h64q66 0 113 47t47 113v96h128zm-384-96v288q0 14 9 23t23 9h64q14 0 23-9t9-23V160q0-14-9-23t-23-9h-64q-14 0-23 9t-9 23zm-768 0v288q0 14 9 23t23 9h64q14 0 23-9t9-23V160q0-14-9-23t-23-9h-64q-14 0-23 9t-9 23zm1152 1504V640H128v1024h1408zm-640-576h224q14 0 23 9t9 23v64q0 14-9 23t-23 9H896v224q0 14-9 23t-23 9h-64q-14 0-23-9t-9-23v-224H544q-14 0-23-9t-9-23v-64q0-14 9-23t23-9h224V864q0-14 9-23t23-9h64q14 0 23 9t9 23v224z"/></svg>