<svg xmlns="http://www.w3.org/2000/svg" viewBox="0 0 2304 1536"><path d="M858 1113V420q-106 41-172 135.5T620 767t66 211.5T858 1113zm504-346q0-117-66-211.5T1124 420v694q106-41 172-135.5t66-211.5zm215 0q0 159-78.5 294T1285 1274.5 991 1353q-119 0-227.5-46.5t-187-125-125-187T405 767q0-159 78.5-294T697 259.5 991 181t294 78.5T1498.5 473t78.5 294zm383 7q0-139-55.5-261.5T1757 307t-213.5-131-252.5-48H990q-176 0-323.5 81t-235 230T344 774q0 171 87 317.5T667 1323t323 85h301q129 0 251.5-50.5t214.5-135 147.5-202.5 55.5-246zm344-646v1280q0 52-38 90t-90 38H128q-52 0-90-38t-38-90V128q0-52 38-90t90-38h2048q52 0 90 38t38 90z"/></svg>