<svg xmlns="http://www.w3.org/2000/svg" viewBox="0 0 2304 1536"><path d="M1951 870q0 26-15.5 44.5T1897 938q-8 2-18 2h-153V800h153q10 0 18 2 23 5 38.5 23.5T1951 870zm-18-213q0 25-15 42t-38 21q-3 1-15 1h-139V592h139q3 0 8.5.5t6.5.5q23 4 38 21.5t15 42.5zM728 821V513H500v308q0 58-38 94.5T357 952q-108 0-229-59v112q53 15 121 23t109 9l42 1q328 0 328-217zm714 184V892q-99 52-200 59-108 8-169-41t-61-142 61-142 169-41q101 7 200 58V531q-48-12-100-19.5t-80-9.5l-28-2q-127-6-218.5 14T875 574t-71 88-22 106 22 106 71 88 140.5 60 218.5 14q101-4 208-31zm734-115q0-54-43-88.5T2024 762v-3q57-8 89-41.5t32-79.5q0-55-41-88t-107-36q-3 0-12-.5t-14-.5h-455v510h491q74 0 121.5-36.5T2176 890zm128-762v1280q0 52-38 90t-90 38H128q-52 0-90-38t-38-90V128q0-52 38-90t90-38h2048q52 0 90 38t38 90z"/></svg>