<svg xmlns="http://www.w3.org/2000/svg" viewBox="0 0 1664 1664"><path d="M439 1271l-256 256q-10 9-23 9-12 0-23-9-9-10-9-23t9-23l256-256q10-9 23-9t23 9q9 10 9 23t-9 23zm169 41v320q0 14-9 23t-23 9-23-9-9-23v-320q0-14 9-23t23-9 23 9 9 23zm-224-224q0 14-9 23t-23 9H32q-14 0-23-9t-9-23 9-23 23-9h320q14 0 23 9t9 23zm1264 128q0 120-85 203l-147 146q-83 83-203 83-121 0-204-85l-334-335q-21-21-42-56l239-18 273 274q27 27 68 27.5t68-26.5l147-146q28-28 28-67 0-40-28-68l-274-275 18-239q35 21 56 42l336 336q84 86 84 204zm-617-724l-239 18-273-274q-28-28-68-28-39 0-68 27L236 381q-28 28-28 67 0 40 28 68l274 274-18 240q-35-21-56-42L100 652q-84-86-84-204 0-120 85-203L248 99q83-83 203-83 121 0 204 85l334 335q21 21 42 56zm633 84q0 14-9 23t-23 9h-320q-14 0-23-9t-9-23 9-23 23-9h320q14 0 23 9t9 23zM1120 32v320q0 14-9 23t-23 9-23-9-9-23V32q0-14 9-23t23-9 23 9 9 23zm407 151l-256 256q-11 9-23 9t-23-9q-9-10-9-23t9-23l256-256q10-9 23-9t23 9q9 10 9 23t-9 23z"/></svg>