<svg xmlns="http://www.w3.org/2000/svg" viewBox="0 0 1536 1536"><path d="M1197 896h-109q-26 0-45-19t-19-45V704q0-26 19-45t45-19h109q-32-108-112.5-188.5T896 339v109q0 26-19 45t-45 19H704q-26 0-45-19t-19-45V339q-108 32-188.5 112.5T339 640h109q26 0 45 19t19 45v128q0 26-19 45t-45 19H339q32 108 112.5 188.5T640 1197v-109q0-26 19-45t45-19h128q26 0 45 19t19 45v109q108-32 188.5-112.5T1197 896zm339-192v128q0 26-19 45t-45 19h-143q-37 161-154.5 278.5T896 1329v143q0 26-19 45t-45 19H704q-26 0-45-19t-19-45v-143q-161-37-278.5-154.5T207 896H64q-26 0-45-19T0 832V704q0-26 19-45t45-19h143q37-161 154.5-278.5T640 207V64q0-26 19-45t45-19h128q26 0 45 19t19 45v143q161 37 278.5 154.5T1329 640h143q26 0 45 19t19 45z"/></svg>