<svg xmlns="http://www.w3.org/2000/svg" viewBox="0 0 1792 1792"><path d="M896 816Q792 620 736 538 597 336 389 220q-34-19-70-36-89-40-94-32t34 38l39 31q62 43 112.5 93.5T505 431t70.5 113T646 675q9 17 13 25 44 84 84 153t98 154 115.5 150 131 123.5T1236 1371q153 66 154 60 1-3-49-37-53-36-81-57-77-58-179-211T896 816zm-347 543q-76-60-132.5-125t-98-143.5-71-154.5T189 750t-52-209-60.5-252T0 0q273 0 497.5 36t379 92 271 144.5T1333 445t110 198.5 56 199.5 12.5 198.5-9.5 173-20 143.5-13 107l323 327h-104l-281-285q-22 2-91.5 14t-121.5 19-138 6-160.5-17-167.5-59-179-111z"/></svg>