<svg xmlns="http://www.w3.org/2000/svg" viewBox="0 0 1792 1152"><path d="M1664 576q-152-236-381-353 61 104 61 225 0 185-131.5 316.5T896 896 579.5 764.5 448 448q0-121 61-225-229 117-381 353 133 205 333.5 326.5T896 1024t434.5-121.5T1664 576zM944 192q0-20-14-34t-34-14q-125 0-214.5 89.5T592 448q0 20 14 34t34 14 34-14 14-34q0-86 61-147t147-61q20 0 34-14t14-34zm848 384q0 34-20 69-140 230-376.5 368.5T896 1152t-499.5-139T20 645Q0 610 0 576t20-69q140-229 376.5-368T896 0t499.5 139T1772 507q20 35 20 69z"/></svg>