<svg xmlns="http://www.w3.org/2000/svg" viewBox="0 0 1792 1792"><path d="M288 384q66 0 113 47t47 113v1088q0 66-47 113t-113 47H160q-66 0-113-47T0 1632V544q0-66 47-113t113-47h128zm1376 163q58 34 93 93t35 128v768q0 106-75 181t-181 75H672q-66 0-113-47t-47-113V96q0-40 28-68t68-28h672q40 0 88 20t76 48l152 152q28 28 48 76t20 88v163zm-736 989v-128q0-14-9-23t-23-9H768q-14 0-23 9t-9 23v128q0 14 9 23t23 9h128q14 0 23-9t9-23zm0-256v-128q0-14-9-23t-23-9H768q-14 0-23 9t-9 23v128q0 14 9 23t23 9h128q14 0 23-9t9-23zm0-256V896q0-14-9-23t-23-9H768q-14 0-23 9t-9 23v128q0 14 9 23t23 9h128q14 0 23-9t9-23zm256 512v-128q0-14-9-23t-23-9h-128q-14 0-23 9t-9 23v128q0 14 9 23t23 9h128q14 0 23-9t9-23zm0-256v-128q0-14-9-23t-23-9h-128q-14 0-23 9t-9 23v128q0 14 9 23t23 9h128q14 0 23-9t9-23zm0-256V896q0-14-9-23t-23-9h-128q-14 0-23 9t-9 23v128q0 14 9 23t23 9h128q14 0 23-9t9-23zm256 512v-128q0-14-9-23t-23-9h-128q-14 0-23 9t-9 23v128q0 14 9 23t23 9h128q14 0 23-9t9-23zm0-256v-128q0-14-9-23t-23-9h-128q-14 0-23 9t-9 23v128q0 14 9 23t23 9h128q14 0 23-9t9-23zm0-256V896q0-14-9-23t-23-9h-128q-14 0-23 9t-9 23v128q0 14 9 23t23 9h128q14 0 23-9t9-23zm96-384V384h-160q-40 0-68-28t-28-68V128H640v512h896z"/></svg>