<svg xmlns="http://www.w3.org/2000/svg" viewBox="0 0 1536 1792"><path d="M640 384V256H512v128h128zm128 128V384H640v128h128zM640 640V512H512v128h128zm128 128V640H640v128h128zm700-388q28 28 48 76t20 88v1152q0 40-28 68t-68 28H96q-40 0-68-28t-28-68V96q0-40 28-68T96 0h896q40 0 88 20t76 48zm-444-244v376h376q-10-29-22-41l-313-313q-12-12-41-22zm384 1528V640H992q-40 0-68-28t-28-68V128H768v128H640V128H128v1536h1280zM781 943l107 349q8 27 8 52 0 83-72.5 137.5T640 1536t-183.5-54.5T384 1344q0-25 8-52 21-63 120-396V768h128v128h79q22 0 39 13t23 34zm-141 465q53 0 90.5-19t37.5-45-37.5-45-90.5-19-90.5 19-37.5 45 37.5 45 90.5 19z"/></svg>