<svg xmlns="http://www.w3.org/2000/svg" viewBox="0 0 1920 1664"><path d="M384 1472v-128q0-26-19-45t-45-19H192q-26 0-45 19t-19 45v128q0 26 19 45t45 19h128q26 0 45-19t19-45zm0-384V960q0-26-19-45t-45-19H192q-26 0-45 19t-19 45v128q0 26 19 45t45 19h128q26 0 45-19t19-45zm0-384V576q0-26-19-45t-45-19H192q-26 0-45 19t-19 45v128q0 26 19 45t45 19h128q26 0 45-19t19-45zm1024 768V960q0-26-19-45t-45-19H576q-26 0-45 19t-19 45v512q0 26 19 45t45 19h768q26 0 45-19t19-45zM384 320V192q0-26-19-45t-45-19H192q-26 0-45 19t-19 45v128q0 26 19 45t45 19h128q26 0 45-19t19-45zm1408 1152v-128q0-26-19-45t-45-19h-128q-26 0-45 19t-19 45v128q0 26 19 45t45 19h128q26 0 45-19t19-45zm-384-768V192q0-26-19-45t-45-19H576q-26 0-45 19t-19 45v512q0 26 19 45t45 19h768q26 0 45-19t19-45zm384 384V960q0-26-19-45t-45-19h-128q-26 0-45 19t-19 45v128q0 26 19 45t45 19h128q26 0 45-19t19-45zm0-384V576q0-26-19-45t-45-19h-128q-26 0-45 19t-19 45v128q0 26 19 45t45 19h128q26 0 45-19t19-45zm0-384V192q0-26-19-45t-45-19h-128q-26 0-45 19t-19 45v128q0 26 19 45t45 19h128q26 0 45-19t19-45zm128-160v1344q0 66-47 113t-113 47H160q-66 0-113-47T0 1504V160Q0 94 47 47T160 0h1600q66 0 113 47t47 113z"/></svg>