<svg xmlns="http://www.w3.org/2000/svg" viewBox="0 0 1797.3333740234375 1737"><path d="M907 1737q-283 0-504.5-150.5T73 1188Q15 1057 6 887t26-332.5 111-312T322 0l-11 281q11-14 68-15.5t70 15.5q42-81 160.5-138T844 84q-54 45-119.5 148.5T666 396q25 8 62.5 13.5t63 7.5 68 4 50.5 3q15 5 9.5 45.5T889 545q-5 7-16.5 18.5T816 599t-101 34l15 189-139-67q-18 43-7.5 81.5t36 66.5 65.5 41.5 81 6.5q51-9 98-34.5t83.5-45T1021 854q61 4 89.5 33t19.5 65q-1 2-2.5 5.5T1119 970t-18 15.5-31.5 10.5-46.5 1q-60 95-144.5 135.5T669 1162q74 61 162.5 82.5t168.5 6 154.5-52 128-87.5 80.5-104q43-91 39-192.5T1364.5 626 1286 501q87 38 137 79.5t77 112.5q15-170-57.5-343T1233 66q265 77 412 279.5T1796 863q2 127-40.5 255T1632 1356t-189 196-247.5 135.5T907 1737z"/></svg>