<svg xmlns="http://www.w3.org/2000/svg" viewBox="0 0 1728 1536"><path d="M768 872V680q-181 16-384 117v185q205-96 384-110zm0-418V257q-172 8-384 126v189q215-111 384-118zm832 463V733q-235 116-384 71V580q-20-6-39-15-5-3-33-17t-34.5-17-31.5-15-34.5-15.5-32.5-13-36-12.5-35-8.5-39.5-7.5-39.5-4-44-2q-23 0-49 3v222h19q102 0 192.5 29t197.5 82q19 9 39 15v188q42 17 91 17 120 0 293-92zm0-427V301q-169 91-306 91-45 0-78-8v196q148 42 384-90zM256 128q0 35-17.5 64T192 238v1266q0 14-9 23t-23 9H96q-14 0-23-9t-9-23V238q-29-17-46.5-46T0 128q0-53 37.5-90.5T128 0t90.5 37.5T256 128zm1472 64v763q0 39-35 57-10 5-17 9-218 116-369 116-88 0-158-35l-28-14q-64-33-99-48t-91-29-114-14q-102 0-235.5 44T353 1143q-15 9-33 9-16 0-32-8-32-19-32-56V346q0-35 31-55 35-21 78.5-42.5t114-52T632 147t155-19q112 0 209 31t209 86q38 19 89 19 122 0 310-112 22-12 31-17 31-16 62 2 31 20 31 55z"/></svg>