<svg xmlns="http://www.w3.org/2000/svg" viewBox="0 0 1664 1776"><path d="M640 992V768q0-16-16-16h-96q-16 0-16 16v224q0 16 16 16h96q16 0 16-16zm512 0V768q0-16-16-16h-96q-16 0-16 16v224q0 16 16 16h96q16 0 16-16zm512 32v752h-640v-320q0-80-56-136t-136-56-136 56-56 136v320H0v-752q0-16 16-16h96q16 0 16 16v112h128V512q0-16 16-16h96q16 0 16 16v112h128V512q0-16 16-16h96q16 0 16 16v112h128V512q0-6 2.5-9.5t8.5-5 9.5-2 11.5 0 9 .5V105q-32-15-32-50 0-23 16.5-39T832 0t38.5 16T887 55q0 35-32 50v17q45-10 83-10 21 0 59.5 7.5t54.5 7.5q17 0 47-7.5t37-7.5q16 0 16 16v210q0 15-35 21.5t-62 6.5q-18 0-54.5-7.5T945 351q-40 0-90 12v133q1 0 9-.5t11.5 0 9.5 2 8.5 5 2.5 9.5v112h128V512q0-16 16-16h96q16 0 16 16v112h128V512q0-16 16-16h96q16 0 16 16v624h128v-112q0-16 16-16h96q16 0 16 16z"/></svg>