<svg xmlns="http://www.w3.org/2000/svg" viewBox="0 0 1920 1024"><path d="M832 576V448q0-14-9-23t-23-9H608V224q0-14-9-23t-23-9H448q-14 0-23 9t-9 23v192H224q-14 0-23 9t-9 23v128q0 14 9 23t23 9h192v192q0 14 9 23t23 9h128q14 0 23-9t9-23V608h192q14 0 23-9t9-23zm576 64q0-53-37.5-90.5T1280 512t-90.5 37.5T1152 640t37.5 90.5T1280 768t90.5-37.5T1408 640zm256-256q0-53-37.5-90.5T1536 256t-90.5 37.5T1408 384t37.5 90.5T1536 512t90.5-37.5T1664 384zm256 128q0 212-150 362t-362 150q-192 0-338-128H850q-146 128-338 128-212 0-362-150T0 512t150-362T512 0h896q212 0 362 150t150 362z"/></svg>