<svg xmlns="http://www.w3.org/2000/svg" viewBox="0 0 1731 1731"><path d="M1731 1496q0 53-37 90l-107 108q-39 37-91 37-53 0-90-37l-363-364q-38-36-38-90 0-53 43-96L792 888l-126 126q-14 14-34 14t-34-14q2 2 12.5 12t12.5 13 10 11.5 10 13.5 6 13.5 5.5 16.5 1.5 18q0 38-28 68-3 3-16.5 18t-19 20.5T574 1235t-22 15.5-22 9-26 4.5q-40 0-68-28L28 828Q0 800 0 760q0-13 4.5-26t9-22T29 690t16.5-18.5 20.5-19T84 636q30-28 68-28 10 0 18 1.5t16.5 5.5 13.5 6 13.5 10 11.5 10 13 12.5 12 12.5q-14-14-14-34t14-34l348-348q14-14 34-14t34 14q-2-2-12.5-12T641 225t-10-11.5-10-13.5-6-13.5-5.5-16.5-1.5-18q0-38 28-68 3-3 16.5-18t19-20.5T690 29t22-15.5 22-9T760 0q40 0 68 28l408 408q28 28 28 68 0 13-4.5 26t-9 22-15.5 22-16.5 18.5-20.5 19-18 16.5q-30 28-68 28-10 0-18-1.5t-16.5-5.5-13.5-6-13.5-10-11.5-10-13-12.5-12-12.5q14 14 14 34t-14 34L888 792l256 256q43-43 96-43 52 0 91 37l363 363q37 39 37 91z"/></svg>