<svg xmlns="http://www.w3.org/2000/svg" viewBox="0 0 1536 1344"><path d="M928 1164V448H608v716q0 25 18 38.5t46 13.5h192q28 0 46-13.5t18-38.5zM472 320h195L541 159q-26-31-69-31-40 0-68 28t-28 68 28 68 68 28zm688-96q0-40-28-68t-68-28q-43 0-69 31L870 320h194q40 0 68-28t28-68zm376 256v320q0 14-9 23t-23 9h-96v416q0 40-28 68t-68 28H224q-40 0-68-28t-28-68V832H32q-14 0-23-9t-9-23V480q0-14 9-23t23-9h440q-93 0-158.5-65.5T248 224t65.5-158.5T472 0q107 0 168 77l128 165L896 77q61-77 168-77 93 0 158.5 65.5T1288 224t-65.5 158.5T1064 448h440q14 0 23 9t9 23z"/></svg>