<svg xmlns="http://www.w3.org/2000/svg" viewBox="0 0 1536 1536"><path d="M519 1072q4-6-3-13-9-7-14-2-4 6 3 13 9 7 14 2zm-28-41q-5-7-12-4-6 4 0 12 7 8 12 5 6-4 0-13zm-41-40q2-4-5-8-7-2-8 2-3 5 4 8 8 2 9-2zm21 23q2-1 1.5-4.5t-3.5-5.5q-6-7-10-3t1 11q6 6 11 2zm86 75q2-7-9-11-9-3-13 4-2 7 9 11 9 3 13-4zm42 3q0-8-12-8-10 0-10 8t11 8 11-8zm39-7q-2-7-13-5t-9 9q2 8 12 6t10-10zm642-317q0-212-150-362T768 256 406 406 256 768q0 167 98 300.5T606 1254q18 3 26.5-5t8.5-20q0-52-1-95-6 1-15.5 2.5t-35.5 2-48-4-43.5-20T468 1073q-23-59-57-74-2-1-4.5-3.5l-8-8-7-9.5 4-7.5L415 967q6 0 15 2t30 15.5 33 35.5q16 28 37.5 42t43.5 14 38-3.5 30-9.5q7-47 33-69-49-6-86-18.5t-73-39-55.5-76T441 741q0-79 53-137-24-62 5-136 19-6 54.5 7.5T614 505l26 16q58-17 128-17t128 17q11-7 28.5-18t55.5-26 57-9q29 74 5 136 53 58 53 137 0 57-14 100.5t-35.5 70T992 956t-62.5 26-68.5 12q35 31 35 95 0 40-.5 89t-.5 51q0 12 8.5 20t26.5 5q154-52 252-185.5t98-300.5zm256-480v960q0 119-84.5 203.5T1248 1536H288q-119 0-203.5-84.5T0 1248V288Q0 169 84.5 84.5T288 0h960q119 0 203.5 84.5T1536 288z"/></svg>