<svg xmlns="http://www.w3.org/2000/svg" viewBox="0 0 1664 1792"><path d="M640 128q-53 0-90.5 37.5T512 256v896L361 950q-41-54-107-54-52 0-89 38t-37 90q0 43 26 77l384 512q38 51 102 51h718q22 0 39.5-13.5t22.5-34.5l92-368q24-96 24-194V837q0-41-28-71t-68-30-68 28-28 68h-32v-61q0-48-32-81.5t-80-33.5q-46 0-79 33t-33 79v64h-32v-90q0-55-37-94.5T928 608q-53 0-90.5 37.5T800 736v96h-32V262q0-55-37-94.5T640 128zm0-128q107 0 181.5 77.5T896 262v220q22-2 32-2 99 0 173 69 47-21 99-21 113 0 184 87 27-7 56-7 94 0 159 67.5t65 161.5v217q0 116-28 225l-92 368q-16 64-68 104.5t-118 40.5H640q-60 0-114.5-27.5T435 1690L51 1178q-51-68-51-154 0-105 74.5-180.5T254 768q71 0 130 35V256q0-106 75-181T640 0zm128 1408v-384h-32v384h32zm256 0v-384h-32v384h32zm256 0v-384h-32v384h32z"/></svg>