<svg xmlns="http://www.w3.org/2000/svg" viewBox="0 0 1668 1536"><path d="M1620 1536q-44 0-132.5-3.5T1354 1529q-44 0-132 3.5t-132 3.5q-24 0-37-20.5t-13-45.5q0-31 17-46t39-17 51-7 45-15q33-21 33-140l-1-391q0-21-1-31-13-4-50-4H498q-38 0-51 4-1 10-1 31l-1 371q0 142 37 164 16 10 48 13t57 3.5 45 15 20 45.5q0 26-12.5 48t-36.5 22q-47 0-139.5-3.5T325 1529q-43 0-128 3.5T70 1536q-23 0-35.5-21T22 1470q0-30 15.5-45t36-17.5 47.5-7.5 42-15q33-23 33-143l-1-57V372q0-3 .5-26t0-36.5T194 271t-3.5-42-6.5-36.5-11-31.5-16-18q-15-10-45-12t-53-2-41-14T0 70q0-26 12-48T48 0q46 0 138.5 3.5T325 7q42 0 126.5-3.5T578 0q25 0 37.5 22T628 70q0 30-17 43.5T572.5 128t-49.5 4-43 13q-35 21-35 160l1 320q0 21 1 32 13 3 39 3h699q25 0 38-3 1-11 1-32l1-320q0-139-35-160-18-11-58.5-12.5t-66-13T1040 70q0-26 12.5-48T1090 0q44 0 132 3.5T1354 7q43 0 129-3.5T1612 0q25 0 37.5 22t12.5 48q0 30-17.5 44t-40 14.5-51.5 3-44 12.5q-35 23-35 161l1 943q0 119 34 140 16 10 46 13.5t53.5 4.5 41.5 15.5 18 44.5q0 26-12 48t-36 22z"/></svg>