<svg xmlns="http://www.w3.org/2000/svg" viewBox="0 0 1792 1536"><path d="M1664 468q0-81-21.5-143t-55-98.5T1506 167t-94-31-98-8-112 25.5-110.5 64-86.5 72-60 61.5q-18 22-49 22t-49-22q-24-28-60-61.5t-86.5-72-110.5-64T478 128t-98 8-94 31-81.5 59.5-55 98.5T128 468q0 168 187 355l581 560 580-559q188-188 188-356zm128 0q0 221-229 450l-623 600q-18 18-44 18t-44-18L228 916q-10-8-27.5-26T145 824.5 77 727 23.5 606 0 468q0-220 127-344T478 0q62 0 126.5 21.5t120 58T820 148t76 68q36-36 76-68t95.5-68.5 120-58T1314 0q224 0 351 124t127 344z"/></svg>