<svg xmlns="http://www.w3.org/2000/svg" viewBox="0 0 1536 1792"><path d="M1504 1600q14 0 23 9t9 23v128q0 14-9 23t-23 9H32q-14 0-23-9t-9-23v-128q0-14 9-23t23-9h1472zm-1374-64q3-55 16-107t30-95 46-87 53.5-76 64.5-69.5 66-60 70.5-55T543 939t65-43q-43-28-65-43t-66.5-47.5-70.5-55-66-60-64.5-69.5-53.5-76-46-87-30-95-16-107h1276q-3 55-16 107t-30 95-46 87-53.5 76-64.5 69.5-66 60-70.5 55T993 853t-65 43q43 28 65 43t66.5 47.5 70.5 55 66 60 64.5 69.5 53.5 76 46 87 30 95 16 107H130zM1504 0q14 0 23 9t9 23v128q0 14-9 23t-23 9H32q-14 0-23-9t-9-23V32Q0 18 9 9t23-9h1472z"/></svg>