<svg xmlns="http://www.w3.org/2000/svg" viewBox="0 0 1414 1792"><path d="M1030 32q0-14 9-23t23-9h288q26 0 45 19t19 45v288q0 14-9 23t-23 9h-64q-14 0-23-9t-9-23V218l-254 255q126 158 126 359 0 221-147.5 384.5T646 1404v132h96q14 0 23 9t9 23v64q0 14-9 23t-23 9h-96v96q0 14-9 23t-23 9h-64q-14 0-23-9t-9-23v-96h-96q-14 0-23-9t-9-23v-64q0-14 9-23t23-9h96v-132q-149-16-270.5-103T61 1077.5 8 786q16-204 160-353.5T515 260q118-14 228 19t198 103l255-254h-134q-14 0-23-9t-9-23V32zM582 1280q185 0 316.5-131.5T1030 832 898.5 515.5 582 384 265.5 515.5 134 832t131.5 316.5T582 1280z"/></svg>