<svg xmlns="http://www.w3.org/2000/svg" viewBox="0 0 1792 1408"><path d="M514 1067l81-299H436l75 300q1 1 1 3t1 3q0-1 .5-3.5t.5-3.5zm116-427l35-128H373l32 128h225zm192 0h139l-35-128h-70zm449 428l78-300h-162l81 299q0 1 .5 3.5t1.5 3.5q0-1 .5-3t.5-3zm111-428l33-128h-297l34 128h230zm410 32v64q0 14-9 23t-23 9h-213l-164 616q-7 24-31 24h-159q-24 0-31-24L996 768H787l-167 616q-7 24-31 24H430q-11 0-19.5-7t-10.5-17L240 768H32q-14 0-23-9t-9-23v-64q0-14 9-23t23-9h175l-33-128H32q-14 0-23-9t-9-23v-64q0-14 9-23t23-9h109L52 40q-5-15 5-28Q67 0 83 0h137q26 0 31 24l90 360h359l97-360q7-24 31-24h126q24 0 31 24l98 360h365l93-360q5-24 31-24h137q16 0 26 12 10 13 5 28l-91 344h111q14 0 23 9t9 23v64q0 14-9 23t-23 9h-145l-34 128h179q14 0 23 9t9 23z"/></svg>