<svg xmlns="http://www.w3.org/2000/svg" viewBox="0 0 1536 1792"><path d="M654 1078q-1 3-12.5-.5T610 1066l-20-9q-44-20-87-49-7-5-41-31.5T424 948q-67 103-134 181-81 95-105 110-4 2-19.5 4t-18.5 0q6-4 82-92 21-24 85.5-115T393 918q17-30 51-98.5t36-77.5q-8-1-110 33-8 2-27.5 7.5T308 792t-17 5q-2 2-2 10.5t-1 9.5q-5 10-31 15-23 7-47 0-18-4-28-21-4-6-5-23 6-2 24.5-5t29.5-6q58-16 105-32 100-35 102-35 10-2 43-19.5t44-21.5q9-3 21.5-8t14.5-5.5 6 .5q2 12-1 33 0 2-12.5 27T527 769.5 510 803q-25 50-77 131l64 28q12 6 74.5 32t67.5 28q4 1 10.5 25.5t4.5 30.5zM449 592q3 15-4 28-12 23-50 38-30 12-60 12-26-3-49-26-14-15-18-41l1-3q3 3 19.5 5t26.5 0 58-16q36-12 55-14 17 0 21 17zm698 129l63 227-139-42zM39 1521l694-232V257L39 490v1031zm1241-317l102 31-181-657-100-31-216 536 102 31 45-110 211 65zM777 242l573 184V46zm311 1323l158 13-54 160-40-66q-130 83-276 108-58 12-91 12h-84q-79 0-199.5-39T318 1668q-8-7-8-16 0-8 5-13.5t13-5.5q4 0 18 7.5t30.5 16.5 20.5 11q73 37 159.5 61.5T714 1754q95 0 167-14.5t157-50.5q15-7 30.5-15.5t34-19 28.5-16.5zm448-1079v1079l-774-246q-14 6-375 127.5T19 1568q-13 0-18-13 0-1-1-3V474q3-9 4-10 5-6 20-11 106-35 149-50V19l558 198q2 0 160.5-55t316-108.5T1369 0q20 0 20 21v418z"/></svg>