<svg xmlns="http://www.w3.org/2000/svg" viewBox="0 0 1792 1408"><path d="M1280 576q0-26-19-45t-45-19q-172 0-318 49.5t-259.5 134T403 915q-19 21-19 45 0 26 19 45t45 19q24 0 45-19 27-24 74-71t67-66q137-124 268.5-176t313.5-52q26 0 45-19t19-45zm512-198q0 95-20 193-46 224-184.5 383T1230 1222q-214 108-438 108-148 0-286-47-15-5-88-42t-96-37q-16 0-39.5 32t-45 70-52.5 70-60 32q-30 0-51-11t-31-24-27-42q-2-4-6-11t-5.5-10-3-9.5T0 1287q0-35 31-73.5t68-65.5 68-56 31-48q0-4-14-38t-16-44q-9-51-9-104 0-115 43.5-220t119-184.5 170.5-139T696 219q55-18 145-25.5t179.5-9 178.5-6 163.5-24T1476 98l29.5-29.5 29.5-28 27-20 36.5-16L1642 0q39 0 70.5 46t47.5 112 24 124 8 96z"/></svg>