<svg xmlns="http://www.w3.org/2000/svg" viewBox="0 0 1792 1408"><path d="M384 1056v64q0 13-9.5 22.5T352 1152h-64q-13 0-22.5-9.5T256 1120v-64q0-13 9.5-22.5t22.5-9.5h64q13 0 22.5 9.5t9.5 22.5zm0-256v64q0 13-9.5 22.5T352 896h-64q-13 0-22.5-9.5T256 864v-64q0-13 9.5-22.5T288 768h64q13 0 22.5 9.5T384 800zm0-256v64q0 13-9.5 22.5T352 640h-64q-13 0-22.5-9.5T256 608v-64q0-13 9.5-22.5T288 512h64q13 0 22.5 9.5T384 544zm1152 512v64q0 13-9.5 22.5t-22.5 9.5H544q-13 0-22.5-9.5T512 1120v-64q0-13 9.5-22.5t22.5-9.5h960q13 0 22.5 9.5t9.5 22.5zm0-256v64q0 13-9.5 22.5T1504 896H544q-13 0-22.5-9.5T512 864v-64q0-13 9.5-22.5T544 768h960q13 0 22.5 9.5t9.5 22.5zm0-256v64q0 13-9.5 22.5T1504 640H544q-13 0-22.5-9.5T512 608v-64q0-13 9.5-22.5T544 512h960q13 0 22.5 9.5t9.5 22.5zm128 704V416q0-13-9.5-22.5T1632 384H160q-13 0-22.5 9.5T128 416v832q0 13 9.5 22.5t22.5 9.5h1472q13 0 22.5-9.5t9.5-22.5zm128-1088v1088q0 66-47 113t-113 47H160q-66 0-113-47T0 1248V160Q0 94 47 47T160 0h1472q66 0 113 47t47 113z"/></svg>