<svg xmlns="http://www.w3.org/2000/svg" viewBox="0 0 1777 1783"><path d="M366 1611q0 80-54.5 126T176 1783q-106 0-172-66l57-88q49 45 106 45 29 0 50.5-14.5T239 1617q0-64-105-56l-26-56q8-10 32.5-43.5t42.5-54 37-38.5v-1q-16 0-48.5 1t-48.5 1v53H17v-152h333v88l-95 115q51 12 81 49t30 88zm2-627v159H6q-6-36-6-54 0-51 23.5-93T80 928t66-47.5 56.5-43.5 23.5-45q0-25-14.5-38.5T172 740q-46 0-81 58L6 739q24-51 71.5-79.5T183 631q73 0 123 41.5T356 785q0 50-34 91.5T247 941t-75.5 50.5T136 1044h127v-60h105zm1409 319v192q0 13-9.5 22.5t-22.5 9.5H529q-13 0-22.5-9.5T497 1495v-192q0-14 9-23t23-9h1216q13 0 22.5 9.5t9.5 22.5zM369 404v99H34v-99h107q0-41 .5-122t.5-121v-12h-2q-8 17-50 54l-71-76L155 0h106v404h108zm1408 387v192q0 13-9.5 22.5t-22.5 9.5H529q-13 0-22.5-9.5T497 983V791q0-14 9-23t23-9h1216q13 0 22.5 9.5t9.5 22.5zm0-512v192q0 13-9.5 22.5T1745 503H529q-13 0-22.5-9.5T497 471V279q0-13 9.5-22.5T529 247h1216q13 0 22.5 9.5t9.5 22.5z"/></svg>