<svg xmlns="http://www.w3.org/2000/svg" viewBox="0 0 1536 1536"><path d="M1472 0q26 0 45 19t19 45v416q0 14-9 23t-23 9h-64q-14 0-23-9t-9-23V218l-213 214 140 140q9 10 9 23t-9 22l-46 46q-9 9-22 9t-23-9l-140-141-78 79q126 156 126 359 0 117-45.5 223.5t-123 184-184 123T576 1536t-223.5-45.5-184-123-123-184T0 960t45.5-223.5 123-184 184-123T576 384q203 0 359 126l78-78-172-172q-9-10-9-23t9-22l46-46q9-9 22-9t23 9l172 172 213-213h-261q-14 0-23-9t-9-23V32q0-14 9-23t23-9h416zM576 1408q185 0 316.5-131.5T1024 960 892.5 643.5 576 512 259.5 643.5 128 960t131.5 316.5T576 1408z"/></svg>