<svg xmlns="http://www.w3.org/2000/svg" viewBox="0 0 1158 1800.666748046875"><path d="M646 644q217 24 364.5 187.5T1158 1216q0 167-87 306t-236 212-319 54q-133-15-245.5-88t-182-188T8 1263q-12-155 52.5-292t186-224T518 644V512H358q-14 0-23-9t-9-23v-64q0-14 9-23t23-9h160V219l-92 92q-10 9-23 9t-22-9l-46-46q-9-9-9-22t9-23L537 19q19-19 45-19t45 19l202 201q9 10 9 23t-9 22l-46 46q-9 9-22 9t-23-9l-92-92v165h160q14 0 23 9t9 23v64q0 14-9 23t-23 9H646v132zm-64 1020q185 0 316.5-131.5T1030 1216 898.5 899.5 582 768 265.5 899.5 134 1216t131.5 316.5T582 1664z"/></svg>