<svg xmlns="http://www.w3.org/2000/svg" viewBox="0 0 1536 1536"><path d="M1311 714v114q0 24-13.5 38t-37.5 14h-202q-24 0-38-14t-14-38V714q0-24 14-38t38-14h202q24 0 37.5 14t13.5 38zM821 944V694q0-53-32.5-85.5T703 576H570q-68 0-96 52-28-52-96-52H248q-53 0-85.5 32.5T130 694v250q0 22 21 22h55q22 0 22-22V714q0-24 13.5-38t38.5-14h94q24 0 38 14t14 38v230q0 22 21 22h54q22 0 22-22V714q0-24 14-38t38-14h97q24 0 37.5 14t13.5 38v230q0 22 22 22h55q21 0 21-22zm589-96V694q0-53-33-85.5t-86-32.5h-264q-53 0-86 32.5T908 694v410q0 21 22 21h55q21 0 21-21V924q31 42 94 42h191q53 0 86-32.5t33-85.5zm126-616v1072q0 96-68 164t-164 68H232q-96 0-164-68T0 1304V232q0-96 68-164T232 0h1072q96 0 164 68t68 164z"/></svg>