<svg xmlns="http://www.w3.org/2000/svg" viewBox="0 0 2304 1358"><path d="M1645 881q0-59-34-106.5t-87-68.5q-7 45-23 92-7 24-27.5 38t-44.5 14q-12 0-24-3-31-10-45-38.5t-4-58.5q23-71 23-143 0-123-61-227.5T1152 214t-228-61q-134 0-247 73T510 420q108 28 188 106 22 23 22 55t-22 54-54 22-55-22q-75-75-180-75-106 0-181 74.5T153 815t75 180.5 181 74.5h1046q79 0 134.5-55.5T1645 881zm153 0q0 142-100.5 242T1455 1223H409q-169 0-289-119.5T0 815q0-153 100-267t249-136q62-184 221-298T924 0q235 0 408.5 158.5T1529 548q116 25 192.5 118.5T1798 881zm250 0q0 175-97 319-23 33-64 33-24 0-43-13-26-17-32-48.5t12-57.5q71-104 71-233t-71-233q-18-26-12-57t32-49 57.5-11.5T1951 563q97 142 97 318zm256 0q0 244-134 443-23 34-64 34-23 0-42-13-26-18-32.5-49t11.5-57q108-164 108-358 0-195-108-357-18-26-11.5-57.5T2064 418q26-18 57-12t49 33q134 198 134 442z"/></svg>