<svg xmlns="http://www.w3.org/2000/svg" viewBox="0 0 1400 1528"><path d="M1400 1253q0 117-79 196t-196 79q-135 0-235-100L113 652Q0 537 0 381q0-159 110-270T379 0q158 0 273 113l605 606q10 10 10 22 0 16-30.5 46.5T1190 818q-13 0-23-10L561 201q-79-77-181-77-106 0-179 75t-73 181q0 105 76 181l776 777q63 63 145 63 64 0 106-42t42-106q0-82-63-145L629 527q-26-24-60-24-29 0-48 19t-19 48q0 32 25 59l410 410q10 10 10 22 0 16-31 47t-47 31q-12 0-22-10L437 719q-63-61-63-149 0-82 57-139t139-57q88 0 149 63l581 581q100 98 100 235z"/></svg>