<svg xmlns="http://www.w3.org/2000/svg" viewBox="0 0 1664 1536"><path d="M780 344q0 60-19 113.5T698 550t-105 39q-76 0-138-57.5T363 396t-30-151q0-60 19-113.5T415 39 520 0q77 0 138.5 57.5t91.5 135T780 344zM438 827q0 80-42 139t-119 59q-76 0-141.5-55.5T35 836 0 684q0-80 42-139.5T161 485q76 0 141.5 55.5t100.5 134T438 827zm394-27q118 0 255 97.5t229 237 92 254.5q0 46-17 76.5t-48.5 45-64.5 20-76 5.5q-68 0-187.5-45T832 1446q-66 0-192.5 44.5T439 1535q-183 0-183-146 0-86 56-191.5T451.5 1005 639 859t193-59zm239-211q-61 0-105-39t-63-92.5T884 344q0-74 30-151.5t91.5-135T1144 0q61 0 105 39t63 92.5 19 113.5q0 73-30 151t-92 135.5-138 57.5zm432-104q77 0 119 59.5t42 139.5q0 74-35 152t-100.5 133.5T1387 1025q-77 0-119-59t-42-139q0-74 35-152.5t100.5-134T1503 485z"/></svg>