<svg xmlns="http://www.w3.org/2000/svg" viewBox="0 0 1536 1536"><path d="M1280 1152q0-52-38-90t-90-38-90 38-38 90 38 90 90 38 90-38 38-90zM512 384q0-52-38-90t-90-38-90 38-38 90 38 90 90 38 90-38 38-90zm1024 768q0 159-112.5 271.5T1152 1536t-271.5-112.5T768 1152t112.5-271.5T1152 768t271.5 112.5T1536 1152zM1440 64q0 20-13 38L371 1510q-19 26-51 26H160q-26 0-45-19t-19-45q0-20 13-38L1165 26q19-26 51-26h160q26 0 45 19t19 45zM768 384q0 159-112.5 271.5T384 768 112.5 655.5 0 384t112.5-271.5T384 0t271.5 112.5T768 384z"/></svg>