<svg xmlns="http://www.w3.org/2000/svg" viewBox="0 0 1536 1536"><path d="M1248 0q119 0 203.5 84.5T1536 288v960q0 119-84.5 203.5T1248 1536H523q85-122 108-210 9-34 53-209 21 39 73.5 67t112.5 28q181 0 295.5-147.5T1280 691q0-84-35-162.5t-96.5-139-152.5-97T799 256q-104 0-194.5 28.5t-153 76.5T344 470.5t-66.5 128T256 731q0 102 39.5 180T412 1021q13 5 23.5 0t14.5-19q10-44 15-61 6-23-11-42-50-62-50-150 0-150 103.5-256.5T778 386q149 0 232.5 81t83.5 210q0 168-67.5 286T853 1081q-60 0-97-43.5T733 934q8-34 26.5-92.5t29.5-102 11-74.5q0-49-26.5-81.5T698 551q-61 0-103.5 56.5T552 747q0 72 24 121l-98 414q-24 100-7 254H288q-119 0-203.5-84.5T0 1248V288Q0 169 84.5 84.5T288 0h960z"/></svg>