<svg xmlns="http://www.w3.org/2000/svg" viewBox="0 0 1664 1408"><path d="M768 192v704q0 104-40.5 198.5T618 1258t-163.5 109.5T256 1408h-64q-26 0-45-19t-19-45v-128q0-26 19-45t45-19h64q106 0 181-75t75-181v-32q0-40-28-68t-68-28H192q-80 0-136-56T0 576V192q0-80 56-136T192 0h384q80 0 136 56t56 136zm896 0v704q0 104-40.5 198.5T1514 1258t-163.5 109.5T1152 1408h-64q-26 0-45-19t-19-45v-128q0-26 19-45t45-19h64q106 0 181-75t75-181v-32q0-40-28-68t-68-28h-224q-80 0-136-56t-56-136V192q0-80 56-136t136-56h384q80 0 136 56t56 136z"/></svg>