<svg xmlns="http://www.w3.org/2000/svg" viewBox="0 0 1536 1536"><path d="M512 1152q0-53-37.5-90.5T384 1024t-90.5 37.5T256 1152t37.5 90.5T384 1280t90.5-37.5T512 1152zm351 94q-13-232-177-396T290 673q-14-1-24 9t-10 23v128q0 13 8.5 22t21.5 10q154 11 264 121t121 264q1 13 10 21.5t22 8.5h128q13 0 23-10t9-24zm384 1q-5-154-56-297.5t-139.5-260-205-205-260-139.5T289 289q-14-1-23 9-10 10-10 23v128q0 13 9 22t22 10q204 7 378 111.5T943.5 871t111.5 378q1 13 10 22t22 9h128q13 0 23-10 11-9 9-23zm289-959v960q0 119-84.5 203.5T1248 1536H288q-119 0-203.5-84.5T0 1248V288Q0 169 84.5 84.5T288 0h960q119 0 203.5 84.5T1536 288z"/></svg>