<svg xmlns="http://www.w3.org/2000/svg" viewBox="0 0 1536 1536"><path d="M1280 1020q0-22-22-27-67-14-118-58t-80-109q-7-14-7-25 0-15 19.5-26t42.5-17 42.5-20.5T1177 701q0-19-18.5-31.5T1120 657q-11 0-31 8t-32 8q-4 0-12-2 5-63 5-115 0-78-17-114-36-78-102.5-121.5T778 277q-198 0-275 165-18 38-18 115 0 38 6 114-10 2-15 2-11 0-31.5-8t-30.5-8q-20 0-37.5 12.5T359 702q0 21 19.5 35.5T421 758t42.5 17 19.5 26q0 11-7 25-64 138-198 167-22 5-22 27 0 47 138 69 2 5 6 26t11 30.5 23 9.5q13 0 38.5-5t38.5-5q35 0 67.5 15t54.5 32.5 57.5 32.5 76.5 15q43 0 79-15t57.5-32.5 54-32.5 67.5-15q13 0 39 4.5t39 4.5q15 0 22.5-9.5t11.5-31 5-24.5q138-22 138-69zm256-732v960q0 119-84.5 203.5T1248 1536H288q-119 0-203.5-84.5T0 1248V288Q0 169 84.5 84.5T288 0h960q119 0 203.5 84.5T1536 288z"/></svg>