<svg xmlns="http://www.w3.org/2000/svg" viewBox="0 0 1792 1536"><path d="M1582 454q0 101-71.5 172.5T1338 698t-172.5-71.5T1094 454t71.5-172.5T1338 210t172.5 71.5T1582 454zm-770 742q0-104-73-177t-177-73q-27 0-54 6l104 42q77 31 109.5 106.5T723 1252q-31 77-107 109t-152 1q-21-8-62-24.5t-61-24.5q32 60 91 96.5t130 36.5q104 0 177-73t73-177zm830-741q0-126-89.5-215.5T1337 150q-127 0-216.5 89.5T1031 455q0 127 89.5 216t216.5 89q126 0 215.5-89t89.5-216zm150 0q0 189-133.5 322T1337 910l-437 319q-12 129-109 218t-229 89q-121 0-214-76t-118-192L0 1176V747l389 157q79-48 173-48 13 0 35 2l284-407q2-187 135.5-319T1337 0q188 0 321.5 133.5T1792 455z"/></svg>