<svg xmlns="http://www.w3.org/2000/svg" viewBox="0 0 1166 1792"><path d="M785 572q0 80-57 136.5T592 765q-60 0-111-35-62 67-115 146-247 371-202 859 1 22-12.5 38.5T117 1792h-5q-20 0-35-13.5T60 1745q-14-126-3.5-247.5t29.5-217 54-186T209 939t74-125q61-90 132-165-16-35-16-77 0-80 56.5-136.5T592 379t136.5 56.5T785 572zm381 11q0 158-78 292t-212.5 212-292.5 78q-64 0-131-14-21-5-32.5-23.5T413 1088q5-20 23-31.5t39-7.5q51 13 108 13 97 0 186-38t153-102 102-153 38-186-38-186-102-153-153-102-186-38-186 38-153 102-102 153-38 186q0 114 52 218 10 20 3.5 40T134 871t-39.5 3T64 848Q0 725 0 583q0-119 46.5-227T171 170 357 46 583 0q158 0 292.5 78T1088 290.5t78 292.5z"/></svg>