<svg xmlns="http://www.w3.org/2000/svg" viewBox="0 0 1600 1536"><path d="M256 320q0 26-19 45t-45 19q-27 0-45.5-19T128 320q0-27 18.5-45.5T192 256q26 0 45 18.5t19 45.5zm160 512V192q0-26-19-45t-45-19H64q-26 0-45 19T0 192v640q0 26 19 45t45 19h288q26 0 45-19t19-45zm1129-149q55 61 55 149-1 78-57.5 135t-134.5 57h-277q4 14 8 24t11 22 10 18q18 37 27 57t19 58.5 10 76.5q0 24-.5 39t-5 45-12 50-24 45-40 40.5-60 26T992 1536q-26 0-45-19-20-20-34-50t-19.5-52-12.5-61q-9-42-13.5-60.5T850 1245t-31-48q-33-33-101-120-49-64-101-121t-76-59q-25-2-43-20.5T480 833V192q0-26 19-44.5t45-19.5q35-1 158-44 77-26 120.5-39.5t121.5-29T1088 0h129q133 2 197 78 58 69 49 181 39 37 54 94 17 61 0 117 46 61 43 137 0 32-15 76z"/></svg>