<svg xmlns="http://www.w3.org/2000/svg" viewBox="0 0 1536 1536"><path d="M1097 951l-146 146q-10 10-23 10t-23-10L768 960l-137 137q-10 10-23 10t-23-10L439 951q-10-10-10-23t10-23l137-137-137-137q-10-10-10-23t10-23l146-146q10-10 23-10t23 10l137 137 137-137q10-10 23-10t23 10l146 146q10 10 10 23t-10 23L960 768l137 137q10 10 10 23t-10 23zm215-183q0-148-73-273t-198-198-273-73-273 73-198 198-73 273 73 273 198 198 273 73 273-73 198-198 73-273zm224 0q0 209-103 385.5T1153.5 1433 768 1536t-385.5-103T103 1153.5 0 768t103-385.5T382.5 103 768 0t385.5 103T1433 382.5 1536 768z"/></svg>