<svg xmlns="http://www.w3.org/2000/svg" viewBox="0 0 2048 1280"><path d="M1152 640q0-104-40.5-198.5T1002 278 838.5 168.5 640 128t-198.5 40.5T278 278 168.5 441.5 128 640t40.5 198.5T278 1002t163.5 109.5T640 1152t198.5-40.5T1002 1002t109.5-163.5T1152 640zm768 0q0-104-40.5-198.5T1770 278t-163.5-109.5T1408 128h-386q119 90 188.5 224t69.5 288-69.5 288-188.5 224h386q104 0 198.5-40.5T1770 1002t109.5-163.5T1920 640zm128 0q0 130-51 248.5t-136.5 204-204 136.5-248.5 51H640q-130 0-248.5-51t-204-136.5T51 888.5 0 640t51-248.5 136.5-204T391.5 51 640 0h768q130 0 248.5 51t204 136.5 136.5 204 51 248.5z"/></svg>