<svg xmlns="http://www.w3.org/2000/svg" viewBox="0 0 1664 1792"><path d="M1280 32q0-14 9-23t23-9h288q26 0 45 19t19 45v288q0 14-9 23t-23 9h-64q-14 0-23-9t-9-23V218l-254 255q126 158 126 359 0 221-147.5 384.5T896 1404v132h96q14 0 23 9t9 23v64q0 14-9 23t-23 9h-96v96q0 14-9 23t-23 9h-64q-14 0-23-9t-9-23v-96h-96q-14 0-23-9t-9-23v-64q0-14 9-23t23-9h96v-132q-217-24-364.5-187.5T256 832q0-201 126-359l-52-53-101 111q-9 10-22 10.5t-23-7.5l-48-44q-10-8-10.5-21.5T134 445l105-115-111-112v134q0 14-9 23t-23 9H32q-14 0-23-9t-9-23V64q0-26 19-45T64 0h288q14 0 23 9t9 23v64q0 14-9 23t-23 9H219l106 107 86-94q9-10 22-10.5t23 7.5l48 44q10 8 10.5 21.5T506 227l-90 99 57 56q158-126 359-126t359 126l255-254h-134q-14 0-23-9t-9-23V32zM832 1280q185 0 316.5-131.5T1280 832t-131.5-316.5T832 384 515.5 515.5 384 832t131.5 316.5T832 1280z"/></svg>