<svg xmlns="http://www.w3.org/2000/svg" viewBox="0 0 1408 1536"><path d="M512 608v576q0 14-9 23t-23 9h-64q-14 0-23-9t-9-23V608q0-14 9-23t23-9h64q14 0 23 9t9 23zm256 0v576q0 14-9 23t-23 9h-64q-14 0-23-9t-9-23V608q0-14 9-23t23-9h64q14 0 23 9t9 23zm256 0v576q0 14-9 23t-23 9h-64q-14 0-23-9t-9-23V608q0-14 9-23t23-9h64q14 0 23 9t9 23zm128 724V384H256v948q0 22 7 40.5t14.5 27 10.5 8.5h832q3 0 10.5-8.5t14.5-27 7-40.5zM480 256h448l-48-117q-7-9-17-11H546q-10 2-17 11zm928 32v64q0 14-9 23t-23 9h-96v948q0 83-47 143.5t-113 60.5H288q-66 0-113-58.5T128 1336V384H32q-14 0-23-9t-9-23v-64q0-14 9-23t23-9h309l70-167q15-37 54-63t79-26h320q40 0 79 26t54 63l70 167h309q14 0 23 9t9 23z"/></svg>