<svg xmlns="http://www.w3.org/2000/svg" viewBox="0 0 1664 1600"><path d="M896 764v580q0 104-76 180t-180 76-180-76-76-180q0-26 19-45t45-19 45 19 19 45q0 50 39 89t89 39 89-39 39-89V764q33-11 64-11t64 11zm768 27q0 13-9.5 22.5T1632 823q-11 0-23-10-49-46-93-69t-102-23q-68 0-128 37t-103 97q-7 10-17.5 28t-14.5 24q-11 17-28 17-18 0-29-17-4-6-14.5-24t-17.5-28q-43-60-102.5-97T832 721t-127.5 37T602 855q-7 10-17.5 28T570 907q-11 17-29 17-17 0-28-17-4-6-14.5-24T481 855q-43-60-103-97t-128-37q-58 0-102 23t-93 69q-12 10-23 10-13 0-22.5-9.5T0 791q0-5 1-7 45-183 172.5-319.5t298-204.5T832 192q140 0 274.5 40T1353 345.5t194.5 187T1663 784q1 2 1 7zM896 64v98q-42-2-64-2t-64 2V64q0-26 19-45t45-19 45 19 19 45z"/></svg>