<svg xmlns="http://www.w3.org/2000/svg" viewBox="0 0 1792 1792"><path d="M1374 657q-6-26-28.5-39.5T1297 610q-261 62-401 62t-401-62q-26-6-48.5 7.5T418 657t7.5 48.5T465 734q194 46 303 58-2 158-15.5 269T726 1216.5 685 1332l-9 21q-10 25 1 49t36 34q9 4 23 4 44 0 60-41l8-20q54-139 71-259h42q17 120 71 259l8 20q16 41 60 41 14 0 23-4 25-10 36-34t1-49l-9-21q-28-71-41-115.5t-26.5-155.5-15.5-269q109-12 303-58 26-6 39.5-28.5t7.5-48.5zm-350-145q0-53-37.5-90.5T896 384t-90.5 37.5T768 512t37.5 90.5T896 640t90.5-37.5T1024 512zm576 384q0 143-55.5 273.5t-150 225-225 150T896 1600t-273.5-55.5-225-150-150-225T192 896t55.5-273.5 150-225 225-150T896 192t273.5 55.5 225 150 150 225T1600 896zM896 128q-156 0-298 61T353 353 189 598t-61 298 61 298 164 245 245 164 298 61 298-61 245-164 164-245 61-298-61-298-164-245-245-164-298-61zm896 768q0 182-71 348t-191 286-286 191-348 71-348-71-286-191-191-286T0 896t71-348 191-286T548 71 896 0t348 71 286 191 191 286 71 348z"/></svg>