<svg xmlns="http://www.w3.org/2000/svg" viewBox="0 0 1804 1803"><path d="M1796 540q12 155-52.5 292t-186 224-271.5 103v260h224q14 0 23 9t9 23v64q0 14-9 23t-23 9h-224v224q0 14-9 23t-23 9h-64q-14 0-23-9t-9-23v-224H646v224q0 14-9 23t-23 9h-64q-14 0-23-9t-9-23v-224H294q-14 0-23-9t-9-23v-64q0-14 9-23t23-9h224v-260q-150-16-271.5-103t-186-224T8 540q17-206 164.5-356.5T525 14q206-21 377 94 171-115 377-94 205 19 352.5 169.5T1796 540zM902 900q128-131 128-313T902 274Q774 405 774 587t128 313zm-320 135q115 0 218-57-154-165-154-391 0-224 154-391-103-57-218-57-185 0-316.5 131.5T134 587t131.5 316.5T582 1035zm576 384v-260q-137-15-256-94-119 79-256 94v260h512zm64-384q185 0 316.5-131.5T1670 587t-131.5-316.5T1222 139q-115 0-218 57 154 167 154 391 0 226-154 391 103 57 218 57z"/></svg>