<svg xmlns="http://www.w3.org/2000/svg" viewBox="0 0 1458 1671"><path d="M1458 827v198q-101 23-198 23-65 136-165.5 271T913 1534.5 785 1641q-80 45-162-3-28-17-60.5-43.5t-85-83.5T375 1382.5t-107.5-184-105.5-244T70.5 640 0 250h283q26 218 70 398.5t104.5 317T579 1201t140 195q169-169 287-406-142-72-223-220t-81-333q0-192 104-314.5T1090 0q178 0 273 105.5t95 297.5q0 159-58 286-7 1-19.5 3t-46 2-63-6-62-25.5T1159 611q31-103 31-184 0-87-29-132t-79-45q-53 0-85 49.5T965 440q0 186 105 293.5T1337 841q62 0 121-14z"/></svg>