<svg xmlns="http://www.w3.org/2000/svg" viewBox="0 0 1536 1548"><path d="M985 852q13 0 97.5 44t89.5 53q2 5 2 15 0 33-17 76-16 39-71 65.5T984 1132q-57 0-190-62-98-45-170-118T476 767q-72-107-71-194v-8q3-91 74-158 24-22 52-22 6 0 18 1.5t19 1.5q19 0 26.5 6.5T610 422q8 20 33 88t25 75q0 21-34.5 57.5T599 689q0 7 5 15 34 73 102 137 56 53 151 101 12 7 22 7 15 0 54-48.5t52-48.5zm-203 530q127 0 243.5-50t200.5-134 134-200.5 50-243.5-50-243.5T1226 310t-200.5-134T782 126t-243.5 50T338 310 204 510.5 154 754q0 203 120 368l-79 233 242-77q158 104 345 104zM782 0q153 0 292.5 60T1315 221t161 240.5 60 292.5-60 292.5-161 240.5-240.5 161-292.5 60q-195 0-365-94L0 1548l136-405Q28 965 28 754q0-153 60-292.5T249 221 489.5 60 782 0z"/></svg>