<svg xmlns="http://www.w3.org/2000/svg" version="1.2" overflow="inherit" viewBox="0 0 47.999000549316406 46.0369987487793"><path d="M38.922 26.124c.463.227 1.027.223 1.253-.011.229-.233.031-.601-.438-.817l-8.178-3.788c-.469-.218-1.257-.273-1.749-.125l-2.925.877c-.497.149-1.145.271-1.439.271-.294 0-.539-.414-.539-.922V12.69c0-.507.423-.923.941-.923h21.209c.52 0 .942-.415.942-.923V7.849c0-.508-.407-1.042-.902-1.187L24.762.145C24.267 0 23.455 0 22.96.147L.899 6.661C.405 6.806 0 7.342 0 7.849v2.994c0 .508.423.923.94.923h20.93c.518 0 .941.416.941.923v8.924a.936.936 0 0 1-.941.924h-.38c-.518.001-1.244-.289-1.616-.643l-5.046-4.819c-.373-.355-1.099-.644-1.617-.644h-2.334c-.516 0-1.139-.305-1.382-.676-.241-.372-.803-.674-1.248-.674s-.582.348-.302.776l.044.067c.28.427.281 1.13.006 1.559l-2.524 3.924a1.13 1.13 0 0 0 .196 1.402l.179.161c.385.34 1.071.428 1.53.191l2.704-1.407c.46-.238 1.061-.083 1.34.344l2.967 4.542a1.073 1.073 0 0 1-.208 1.376l-1.357 1.133c-.395.328-.625 1.001-.511 1.498l1.759 7.652c.114.497.619.8 1.121.675l1.223-.302a.96.96 0 0 0 .709-1.128l-1.191-5.175a.978.978 0 0 1 .702-1.146l3.007-.806a8.581 8.581 0 0 1 1.849-.241h.38c.518 0 .941.415.941.92v9.177a.934.934 0 0 1-.941.921H.94a.934.934 0 0 0-.94.924v2.992c0 .513.423.927.94.927h45.728c.518 0 .94-.414.94-.925V42.12a.934.934 0 0 0-.94-.924H25.849a.933.933 0 0 1-.941-.921v-9.177c0-.505.423-.92.941-.92h1.084c.518 0 1.345.107 1.848.241l3.007.806c.502.133.818.65.702 1.146l-1.188 5.175a.953.953 0 0 0 .705 1.128l1.225.302a.915.915 0 0 0 1.12-.675l1.761-7.652c.117-.497-.105-1.16-.488-1.482-.382-.318-.719-.996-.749-1.502l-.153-2.707c-.031-.506.326-.735.79-.507l3.409 1.673z"/></svg>