<svg xmlns="http://www.w3.org/2000/svg" version="1.2" overflow="inherit" viewBox="0 0 48 48"><path d="M0 5.381s2.257 4 2.257 6.556L.013 18.292c0 .594.401.796.876.456l7.383-5.296c1.491 1.101 4.412 2.562 6.533 3.762V21.5l4.735-2.696c1.52.345 3.062.564 4.713.564 9.949 0 18.026-6.455 18.026-7.531 0-.935-6.074-5.933-14.201-7.223L19.042 0v4.987c-4.236 1.174-8.569 3.609-10.769 5.234L.863 4.925C.389 4.584 0 4.787 0 5.381m34.251 7.766c-1.171 0-2.122-.963-2.122-2.153s.951-2.152 2.122-2.152c1.173 0 2.118.962 2.118 2.152s-.945 2.153-2.118 2.153M48 31.88c0-.595-.389-.798-.863-.456l-7.374 5.298c-2.2-1.625-6.489-4.06-10.731-5.233V26.5l-9.072 4.613c-8.13 1.289-14.221 6.289-14.221 7.224 0 1.076 8.069 7.534 18.017 7.534 1.65 0 3.229-.224 4.747-.57L33.273 48v-4.285c2.118-1.203 5.005-2.662 6.489-3.767l7.364 5.297c.479.345.869.139.869-.451 0 0-2.248-3.799-2.248-6.357C45.748 35.879 48 31.88 48 31.88m-32.785 6.388c-1.172 0-2.119-.961-2.119-2.153 0-1.188.947-2.148 2.119-2.148 1.17 0 2.12.961 2.12 2.148 0 1.192-.949 2.153-2.12 2.153"/></svg>