<svg xmlns="http://www.w3.org/2000/svg" version="1.2" overflow="inherit" viewBox="0 0 33 50.209999084472656"><path d="M12.855 10.597c2.242 0 4.041-1.854 4.041-4.138 0-2.285-1.799-4.139-4.041-4.139-2.225 0-4.042 1.854-4.042 4.139 0 2.284 1.817 4.138 4.042 4.138zM14 12H2c-2 0-2 3 0 3h12c2 0 2-3 0-3zm19 1.254c0-4.587-1.605-8.969-4.53-12.422C28.483.82 27.732 0 27.732 0l-11.38 11.648-.194.192.108.146c.175.319.272.674.312 1.028.012.146 0 .297-.017.448-.022.308-.08.61-.209.896l-.012.029-.073.174-.074.146c-.5.786-1.356 1.293-2.396 1.293H7v16L4.813 47.233c-.239 1.255.717 2.476 1.943 2.72C7.982 50.21 9.75 49.268 10 48l2-17h1l3.39 17.128c.25 1.268 2.002 2.082 3.239 1.825 1.216-.244 1.894-1.465 1.655-2.72L18 30.969V17.357l9.326 9.135s.953-.825.953-.836C31.19 22.206 33 17.823 33 13.254zM30.939 15c-.334 3-2.082 6.628-4.273 9.282C24.641 22.215 20 18.322 18 15.771V15h12.939zm0-3H17.902c2.395-3 6.873-7.033 9.168-9.375C29.271 5.275 30.617 8 30.939 12z"/></svg>