<svg xmlns="http://www.w3.org/2000/svg" version="1.2" overflow="inherit" viewBox="0 0 34 48.006004333496094"><g transform="translate(-8 -1)"><path d="M41.405 21.888l-2.459-10.266c-.431-1.791-2.246-2.916-4.047-2.474-1.584.387-2.354 1.484-2.666 2.256-.369.911-2.016 5.039-2.401 5.892-.135.296-.42.452-.478.478-.327.145-3.6 1.526-3.6 1.526v.006a1.882 1.882 0 0 0-1.094 1.703c0 1.043.854 1.889 1.907 1.889.227 0 .443-.047.646-.119v.007l4.345-1.806c.596-.278.887-.63 1.183-1.143.124-.216.501-1.12.808-1.862l2.622 10.965-.003 16.99c-.005 1.688 1.161 3.064 2.865 3.07 1.706.006 2.939-1.357 2.95-3.048L42 25.899c-.002-.943-.377-3.184-.595-4.011z"/><ellipse cx="31.899" cy="4.82" rx="3.855" ry="3.82"/><path d="M17.131 37.102v4.28a2.26 2.26 0 0 0 1.353-.763c.346-.407.519-.883.519-1.431 0-.49-.145-.913-.435-1.269-.294-.352-.773-.624-1.437-.817zm-2.644-6.647c-.26.35-.391.738-.391 1.162 0 .39.119.748.354 1.08.238.334.597.604 1.074.808v-3.797a2.056 2.056 0 0 0-1.037.747zm10.17-5.084h.004l-5.975-11.987-.001.011a2.721 2.721 0 0 0-2.455-1.535h-5.507C9.22 11.859 8 13.067 8 14.557V49h16.966V26.723a3.156 3.156 0 0 0-.309-1.352zM20.505 42.14c-.81.907-1.934 1.463-3.371 1.667v2.053h-1.607v-1.998c-1.278-.153-2.313-.626-3.113-1.415-.796-.791-1.305-1.906-1.526-3.347l2.89-.309a3.61 3.61 0 0 0 .665 1.517c.323.424.685.731 1.083.921v-4.598c-1.446-.41-2.509-1.031-3.182-1.858-.677-.83-1.015-1.837-1.015-3.023 0-1.2.381-2.208 1.148-3.025.764-.815 1.78-1.286 3.05-1.409v-1.087h1.607v1.087c1.172.138 2.107.535 2.801 1.189.692.653 1.135 1.532 1.328 2.629l-2.801.362c-.171-.862-.613-1.449-1.328-1.756v4.29c1.771.477 2.978 1.093 3.621 1.849.641.758.963 1.729.963 2.914 0 1.324-.404 2.439-1.213 3.347z"/></g></svg>