<svg xmlns="http://www.w3.org/2000/svg" version="1.2" overflow="inherit" viewBox="0 0 57.407997131347656 23.53700065612793"><path d="M41.36.968c.333 5.205-2.192 8.854-2.192 8.854.328-4.009-1.297-9.55-1.297-9.55-1.388-.272-3.606.02-3.606.02.32 4.324-1.879 8.1-3.503 9.49.803-4.795-.475-8.423-.475-8.423-2.197-.554-5.346-.215-5.346-.215.684 5.101-2.13 8.854-2.13 8.854.466-3.556-1.434-8.117-1.434-8.117-1.613-.105-4.183.42-4.183.42 1.355 2.421.273 7.742.273 7.742-.739-4.351-3.223-6.917-3.223-6.917C0 9.192 3.752 17.549 10.717 20.038c6.571 2.344 27.744 3.499 37.217-.611C57.408 15.315 50.737 3.76 41.36.968z"/></svg>