<svg xmlns="http://www.w3.org/2000/svg" version="1.2" overflow="inherit" viewBox="0 0 31.027000427246094 48"><path d="M27.682 24.801c-1.438-1.134-3.596-2.04-6.474-2.717L19 21.563v-9.43l.299.122C21.173 13.204 22.18 15 22.318 17h7.516c-.137-4-1.615-6.958-4.434-9.048C23.527 6.563 21.391 5.67 19 5.22V0h-7v5.06c-3.237.4-5.804 1.442-7.689 3.136C1.843 10.414.61 13.198.61 16.55c0 3.673 1.261 6.373 3.783 8.1 1.412.979 3.957 1.888 7.607 2.73v10.216c-1.331-.367-2.374-.971-3.109-1.844C8.182 34.904 7.707 34 7.465 32H0c0 4 1.411 6.87 4.234 9.096 2.038 1.606 4.632 2.582 7.766 3.005V48h7v-3.833c3.333-.399 6.024-1.463 8.062-3.204 2.643-2.26 3.965-5.1 3.965-8.519 0-3.335-1.115-5.882-3.345-7.643zM9.668 18.984c-1.215-.66-1.822-1.662-1.822-3 0-1.456.616-2.597 1.848-3.409.65-.429 1.424-.741 2.306-.947v8.224c-1.085-.316-1.868-.606-2.332-.868zm10.475 18.407a9.74 9.74 0 0 1-1.143.306V29c1.205.357 2.156.746 2.848 1.164 1.092.677 1.639 1.64 1.639 2.875-.001 2.116-1.116 3.573-3.344 4.352z"/></svg>