<svg xmlns="http://www.w3.org/2000/svg" version="1.2" overflow="inherit" viewBox="0 0 27.306001663208008 50.3043098449707"><path d="M17.386 13.61c1.897 0 3.441-1.688 3.441-3.764 0-2.077-1.544-3.765-3.441-3.765-1.9 0-3.445 1.688-3.445 3.765 0 2.076 1.545 3.764 3.445 3.764zm9.547 32.873l-4.881-16.482v-13c0-1.766-2.006-2-2.006-2h-6.562s-.863.495-1.432 1l-3.229 1.48-3.988-4.434c-.65-.844-1.797-1-2.569-.29-.782.71-.822 1.98-.173 2.835l5.084 5.555c.347.401.823.668 1.361.668.396 0-.192-.14.114-.369l3.4-1.445v10l-5.176 16.45c-.376 1.488.912 3.02 2.281 3.42 1.362.4 3.003-.488 3.369-1.977l4.597-14.78 4.622 14.814c.363 1.498 1.895 2.376 3.256 1.976 1.361-.398 2.305-1.932 1.932-3.42zM1.189 17.475a.432.432 0 0 0 .65 0l.061-.056c.174-.2.184-.522 0-.716l-.995-1.116a.444.444 0 0 0-.662-.005l-.05.061c-.182.2-.193.517-.01.711l1.006 1.121zM10.71 4.838l-5.875 6.946.713.794 6.555-6.18 4.358-4.392c.174-.21.284-.488.284-.789 0-.666-.488-1.21-1.087-1.216a1.06 1.06 0 0 0-.75.306L10.71 4.838z"/></svg>