<svg xmlns="http://www.w3.org/2000/svg" version="1.2" overflow="inherit" viewBox="0 0 50 30.894001007080078"><path d="M40.909 12.651c-1.266 0-2.469.26-3.562.727l-3.076-5.271 2.318-3.973a1.14 1.14 0 0 0-.409-1.555c-.238-.138-.503-.388-.754-.347L35.229 2h-4.547c-.627 0-1.136.873-1.136 1.5 0 .628.509 1.5 1.136 1.5h2.947l-1.327 2H19.024l2.652-5h1.051c.627 0 1.136-.372 1.136-1s-.509-1-1.136-1h-5.683c-.626 0-1.136.372-1.136 1s.509 1 1.136 1h1.999l-6.389 11.165c-1.094-.467-2.299-.62-3.564-.62-5.02 0-9.09 4.124-9.09 9.144 0 5.021 4.07 9.117 9.091 9.117s9.091-4.057 9.091-9.078c0-2.94-1.402-5.541-3.57-7.204l2.433-4.166 6.974 11.956.027.038.03.045.023.034.09.104.011.013.031.028.032.026.088.07.037.024.029.019.012.007.004.004.096.047.011.005.023.012.008.002.073.026.068.022.014.004.025.004.044.009.204.021.001.062.004.059h6.891c.562 4 4.378 7.895 9.013 7.895 5.021 0 9.091-4.101 9.091-9.122.001-5.02-4.069-9.121-9.09-9.121zm-25 9.091a6.818 6.818 0 1 1-13.636 0 6.817 6.817 0 0 1 6.818-6.817c.847 0 1.655.161 2.403.444l-3.385 5.802a1.139 1.139 0 0 0 .981 1.709c.391 0 .771-.202.983-.563l3.386-5.806a6.804 6.804 0 0 1 2.45 5.231zM25 19.244L19.024 9h11.953L25 19.244zm7.954-8.685l2.434 4.268C33.506 16.271 32.206 18 31.896 21h-4.918l5.976-10.441zm3.587 6.345L38.932 21h-4.738c.274-2 1.126-3.075 2.347-4.096zm4.368 11.719c-3.377 0-6.175-2.623-6.716-5.623h6.713l.005-.059.203-.053.046-.023.189-.066.021-.016.113-.058.027-.021.101-.073.078-.066.076-.083.068-.085.057-.092.052-.095.039-.104.031-.104.017-.104.013-.123.003-.035-.005-.064-.014-.124-.023-.106-.033-.104-.052-.113-.027-.059-3.385-5.802a6.785 6.785 0 0 1 2.403-.444c3.767 0 6.819 3.083 6.819 6.848.001 3.767-3.052 6.851-6.819 6.851z"/></svg>