<svg xmlns="http://www.w3.org/2000/svg" version="1.2" overflow="inherit" viewBox="0 0 48 32.196998596191406"><path d="M47 32.197c-1 0-1.854-.226-2.734-.615-.916-.411-1.852-.652-2.923-.652a7.065 7.065 0 0 0-2.954.652 7.192 7.192 0 0 1-2.897.615 7.262 7.262 0 0 1-2.908-.615 7.26 7.26 0 0 0-2.991-.652c-1.07 0-2.091.241-3.007.652-.88.39-1.877.615-2.91.615a7.245 7.245 0 0 1-2.912-.615 7.333 7.333 0 0 0-3.002-.652 7.27 7.27 0 0 0-3.002.652 7.268 7.268 0 0 1-2.913.615 7.316 7.316 0 0 1-2.923-.615 7.27 7.27 0 0 0-2.997-.652 7.34 7.34 0 0 0-3.008.652A7.422 7.422 0 0 1 0 32.197v-4.27c1 0 2.031-.23 2.918-.621a7.346 7.346 0 0 1 3.005-.652c1.066 0 2.095.242 2.999.652a7.295 7.295 0 0 0 2.924.621c1.034 0 2.026-.23 2.913-.621a7.29 7.29 0 0 1 3.003-.652 7.35 7.35 0 0 1 3.002.652c.881.391 1.88.621 2.913.621s2.032-.23 2.912-.621a7.368 7.368 0 0 1 3.009-.652c1.066 0 2.088.242 2.997.652a7.289 7.289 0 0 0 2.919.621c1.038 0 2.026-.23 2.918-.621a7.28 7.28 0 0 1 2.997-.652c1.071 0 1.921.242 2.837.652.88.391 1.734.621 2.734.621v4.27zm-46.972-18l-.017 9.91c1.033 0 2.026-.311 2.913-.701.91-.412 1.937-.697 3.002-.697 1.066 0 2.093.219 2.997.631a7.279 7.279 0 0 0 5.836-.015 7.26 7.26 0 0 1 3.002-.656c1.066 0 2.087.239 3.002.651a7.212 7.212 0 0 0 5.825-.001 7.336 7.336 0 0 1 3.009-.653c1.066 0 2.088.241 2.997.653a7.284 7.284 0 0 0 2.919.614c.292 0 .572-.061.858-.093.521-.109 1.049-.159 1.555-.356l.034-.017c3.76-1.492 7.003-5.011 9.028-7.766L48 14.197H.028zm26.776-11h7.044c.079 0 1.902-.281 2.514 1.053l2.647 5.947h-9.023l-3.182-7zM8 9.579c0 .466-.384.618-.855.618H3.272C2.8 10.197 2 10.045 2 9.579V3.85c0-.46.8-.653 1.272-.653h3.872c.472 0 .856.193.856.653v5.729zm16 0c0 .466-.418.618-.895.618h-3.867c-.477 0-1.238-.152-1.238-.618V3.85c0-.46.761-.653 1.238-.653h3.867c.477 0 .895.193.895.653v5.729zm-8 0c0 .466-.416.618-.892.618h-3.844c-.478 0-1.264-.152-1.264-.618V3.85c0-.46.786-.653 1.264-.653h3.844c.476 0 .892.193.892.653v5.729zm21.545-7.077C36.394 0 33.279.197 33.279.197H.005l-.005 12h41.715l-4.17-9.695z"/></svg>