<svg xmlns="http://www.w3.org/2000/svg" version="1.2" overflow="inherit" viewBox="0 0 47.96799850463867 48.96500015258789"><path d="M20.434 6.654L18 9.965h-5.684c.701 2 2.996 3.886 6.201 3.26.95-.064 4.155-.573 5.483-.26 1.768.424 1.031.426 4.201 2.97L44 28.965c.968.855 2.206.505 3.063-.461.857-.968.905-2.684-.063-3.539l-20-16c-1.252-1.005-1.568-2.397-2-4C24.16 2.21 21.071 0 18.039 0 15.596 0 12.967 2.113 12 3.965h6l2.434 2.689zm13.72 24.311l-6.182-10.73c-.244-.445-.861-1.27-1.368-1.27H9.396c-.507 0-1.124.825-1.369 1.27L2 30.965h-.154C.831 30.965 0 31.334 0 32.35v9.23c0 1.016.831 1.385 1.846 1.385H4v3.23c0 1.524.938 2.77 2.461 2.77h.923c1.524 0 2.616-1.246 2.616-2.77v-3.23h16v3.23c0 1.523 1.092 2.77 2.615 2.77h.923c1.524 0 2.462-1.246 2.462-2.77v-3.23h2.154c1.015 0 1.846-.369 1.846-1.385v-9.23c0-1.016-.831-1.385-1.846-1.385zM5.077 37.888a2.308 2.308 0 1 1 0-4.615 2.308 2.308 0 0 1 0 4.615zm1.846-6.923l3.741-7.828c.227-.454.829-1.172 1.336-1.172h12c.507 0 1.108.718 1.336 1.172l3.741 7.828H6.923zm24 6.923a2.308 2.308 0 1 1 0-4.616 2.308 2.308 0 0 1 0 4.616z"/></svg>