<svg xmlns="http://www.w3.org/2000/svg" version="1.2" overflow="inherit" viewBox="0 0 47.98099899291992 50"><path d="M46.783 11.883c-.688-.542-2.533-.977-3.914-1.301L41 10.332V5.814l.957-.015C42.854 6.254 44.146 7 44.213 8h3.604c-.067-2-1.586-3.262-2.938-4.264C43.982 3.071 43 2.716 41 2.501V0h-2v2.424c-2 .192-2.646.69-3.549 1.503-1.181 1.063-1.707 2.397-1.707 4.003 0 1.76.503 3.053 1.712 3.881.676.469 1.544.905 3.544 1.309v4.895c-1-.177-1.002-.132-1.355-.551-.34-.406-.433-1.464-.549-1.464H33.52c0 2 .541 2.958 1.895 4.025.976.769 1.585.905 3.585 1.107V23h2v-1.836c2-.193 3.699-.702 4.676-1.536 1.268-1.083 2.305-2.444 2.305-4.082-.001-1.598-.129-2.818-1.198-3.663zm-8.765-2.786c-.582-.317-.806-.797-.806-1.438 0-.698.193-1.244.783-1.634.311-.205.005-.354 1.005-.453v3.94c-1-.152-.762-.29-.982-.415zm4.343 8.82c-.168.058-1.361.104-1.361.145v-4.167c2 .172 1.846.357 2.178.558.521.324.783.786.783 1.377 0 1.016-.535 1.713-1.6 2.087zM37.52 30h-.553l-6.144-11.125c-.265-.481-.933-.875-1.483-.875H10.699c-.55 0-1.218.394-1.483.875L3.072 30H2.52C1.419 30 0 30.9 0 32v10c0 1.1 1.419 2 2.52 2H4v3c0 1.65 1.87 3 3.52 3h1c1.65 0 2.48-1.35 2.48-3v-3h17v3c0 1.65 1.869 3 3.52 3h1c1.65 0 2.48-1.35 2.48-3v-3h2.52c1.1 0 1.48-.9 1.48-2V32c0-1.1-.381-2-1.48-2zm-31.5 8a2.5 2.5 0 1 1 0-5 2.5 2.5 0 0 1 0 5zm2-8l4.053-8.105c.245-.493.897-.895 1.447-.895h13c.55 0 1.201.402 1.447.895L32.02 30h-24zm26 8a2.5 2.5 0 1 1 0-5 2.5 2.5 0 0 1 0 5z"/></svg>