<svg xmlns="http://www.w3.org/2000/svg" version="1.2" overflow="inherit" viewBox="0 0 39 49.75199890136719"><path d="M35 3.752H16.077C14.574 1.752 12.111 0 9.325 0 4.748 0 1.038 3.576 1.038 8.153c0 4.578 3.71 8.037 8.287 8.037 3.481 0 6.459-2.438 7.688-5.438h2.755l1.997-1.998 1.996 1.998h1.245l1.996-1.998 1.997 1.998h1.244l1.997-1.998 1.997 1.998H35v.281l-.174.041 3.94-3.862L35 3.752zm-28.357 6.61a2.4 2.4 0 1 1 .003-4.801 2.4 2.4 0 0 1-.003 4.801zM37 29.752h-.553l-6.144-11.125c-.265-.481-.933-.875-1.483-.875H10.18c-.55 0-1.218.394-1.483.875L2.552 29.752H2c-1.1 0-2 .9-2 2v10c0 1.1.9 2 2 2h2v3c0 1.65 1.35 3 3 3h1c1.65 0 3-1.35 3-3v-3h17v3c0 1.65 1.35 3 3 3h1c1.65 0 3-1.35 3-3v-3h2c1.1 0 2-.9 2-2v-10c0-1.1-.9-2-2-2zm-31.5 8a2.5 2.5 0 1 1 0-5 2.5 2.5 0 0 1 0 5zm2-8l4.053-8.105c.246-.493.897-.895 1.447-.895h13c.55 0 1.201.402 1.447.895l4.053 8.105h-24zm26 8a2.5 2.5 0 1 1 0-5 2.5 2.5 0 0 1 0 5z"/></svg>