<svg xmlns="http://www.w3.org/2000/svg" version="1.2" overflow="inherit" viewBox="0 0 50 46.5"><path d="M49 8.989c.604-.457 1-1.173 1-1.989a2.5 2.5 0 1 0-5 0 2.49 2.49 0 0 0 1 1.989V24.5h-9v8h10v-.297a3.994 3.994 0 0 0 2.5-3.703c0-.691-.191-1.332-.5-1.899V8.989zM6 15.5c1.021 0 1.73.172 3 0 0 0-4.016 2.666-4.016 6H10s.006-5.554 3-9l-1-1s-2 1-4 0c0 0-2 0-4 1v-1H3v6h1s0-2 2-2zm14 0c1.021 0 1.73.172 3 0 0 0-4.016 2.666-4.016 6H24s.006-5.554 3-9l-1-1s-2 1-4 0c0 0-2 0-4 1v-1h-1v6h1s0-2 2-2zm18-10v-2H25.88C25.424 1.498 23.641 0 21.5 0s-3.924 1.498-4.38 3.5H5v2H0v41h44v-41h-6zm-22 4h12v14H16v-14zm-14 0h12v14H2v-14zm36 32H5v-7h33v7zm4-18H30v-14h12v14zm-8-8c1.021 0 1.73.172 3 0 0 0-4.016 2.666-4.016 6H38s.006-5.554 3-9l-1-1s-2 1-4 0c0 0-2 0-4 1v-1h-1v6h1s0-2 2-2z"/></svg>