<svg xmlns="http://www.w3.org/2000/svg" version="1.2" overflow="inherit" viewBox="0 0 46.167999267578125 20.118000030517578"><path d="M13.767 8.117c-.033-1-.32-1.731-.806-2.206-.475-.513-1.137-.885-1.976-.885-2.871 0-3.345 2.919-3.345 5.199 0 2.897 1.104 4.783 3.345 4.783 1.976 0 2.749-.892 2.969-2.892h7.717c-.662 6-5.365 8.002-10.686 8.002C4.78 20.118 0 16.628 0 10.131 0 3.557 4.625 0 10.985 0c5.133 0 9.991 2.117 10.532 8.117h-7.75zm24.497 0c-.033-1-.331-1.731-.806-2.206-.475-.513-1.137-.885-1.988-.885-2.858 0-3.333 2.919-3.333 5.199 0 2.897 1.104 4.783 3.333 4.783 1.988 0 2.761-.892 2.981-2.892h7.717c-.662 6-5.365 8.002-10.698 8.002-6.204 0-10.973-3.49-10.973-9.987C24.497 3.557 29.123 0 35.47 0c5.146 0 9.991 2.117 10.544 8.117h-7.75z"/></svg>