<svg xmlns="http://www.w3.org/2000/svg" version="1.2" overflow="inherit" viewBox="0 0 46 44"><path d="M39 17h-.272a1.966 1.966 0 0 0-.266-.365L26.918 4.267c.051-.247.082-.503.082-.767C27 1.567 25.576 0 23.818 0h-3.637C18.424 0 17 1.567 17 3.5c0 .264.032.52.082.767L5.538 16.635a2.062 2.062 0 0 0-.266.365H0v7h2v15a5 5 0 0 0 5 5h32a5 5 0 0 0 5-5V24h2v-7h-7zM20.182 7h3.637l.163-.018L33.331 17H10.669l9.35-10.018.163.018zM11 38c0 1.1-.9 2-2 2s-2-.9-2-2V26c0-1.1.9-2 2-2s2 .9 2 2v12zm9 0c0 1.1-.9 2-2 2s-2-.9-2-2V26c0-1.1.9-2 2-2s2 .9 2 2v12zm10 0c0 1.1-.9 2-2 2s-2-.9-2-2V26c0-1.1.9-2 2-2s2 .9 2 2v12zm9 0c0 1.1-.9 2-2 2s-2-.9-2-2V26c0-1.1.9-2 2-2s2 .9 2 2v12z"/></svg>