<svg xmlns="http://www.w3.org/2000/svg" version="1.2" overflow="inherit" viewBox="0 0 48.26500701904297 30.032270431518555"><path d="M17.1 14.574l-9.204-5.19 3.199-5.61 9.206 5.187zm18.37 4.788l-15.552-8.76-1.599 2.808 15.55 8.761zm1.888 1.065l-1.604 2.806 8.02 4.514 1.604-2.803zm-2.16 2.806c-.123.22-.459.271-.751.111-.291-.164-.42-.475-.296-.697l1.875-3.285c.129-.223.465-.277.754-.11.287.163.417.481.293.704l-1.875 3.277zm11.832 1.8a1.98 1.98 0 0 0-1.011-.249l-2.051 3.592c.165.301.411.564.735.74.904.512 2.041.217 2.538-.652l.526-.93c.498-.875.17-1.99-.737-2.502zM21.191 7.88a.899.899 0 0 1-1.225.342L11.91 3.68a.892.892 0 0 1-.339-1.223.904.904 0 0 1 1.23-.334l8.054 4.536a.89.89 0 0 1 .336 1.221zm1.129-1.972a.902.902 0 0 1-1.227.34l-8.059-4.54A.885.885 0 0 1 12.697.49a.9.9 0 0 1 1.23-.34l8.056 4.536a.891.891 0 0 1 .337 1.222zm-6.808 11.944a.907.907 0 0 1-1.229.334l-8.062-4.542a.894.894 0 0 1-.338-1.223.91.91 0 0 1 1.229-.334l8.058 4.542a.898.898 0 0 1 .342 1.223zm1.126-1.979a.902.902 0 0 1-1.234.335l-8.056-4.537a.9.9 0 0 1-.339-1.223.902.902 0 0 1 1.231-.335l8.055 4.537a.898.898 0 0 1 .343 1.223zm-13.519 8.08h14.204v1.632H3.119zm17.306 3.405a1.152 1.152 0 0 0-1.135-.963H1.156a1.15 1.15 0 0 0-1.135.963H0v2.674h20.446v-2.674h-.021z"/></svg>