<svg xmlns="http://www.w3.org/2000/svg" version="1.2" overflow="inherit" viewBox="0 0 24.106998443603516 48.5"><g transform="translate(-10.914 -.5)"><circle cx="22.875" cy="4.625" r="4.125"/><path d="M32.913 32l-5.909-16.237-.034-.167c0-.237.199-.429.447-.429.211 0 .388.141.435.329L31.869 26c.267.601 1.365 1 2.087 1 .965 0 1.065-1.895 1.044-2l-4.017-10.357C30.634 12.322 28.29 10 25.615 10H20.38c-2.675 0-5.193 2.322-5.542 4.643L11.001 25c-.087.199 0 2 1.043 2 .811 0 1.89-.283 2.087-1l3.875-10.549a.447.447 0 0 1 .421-.284c.247 0 .446.192.446.428l-.028.153L13.088 32c-.011.048 0 .951 0 1 0 .346.835 1 1.198 1H18v13.095c0 1.04.916 1.905 2 1.905s2-.866 2-1.905V33.991c0-.283 2-.274 2 .009v13c0 1.04.917 2 2 2 1.086 0 2-.961 2-2V34h3.869c.362 0 1.044-.654 1.044-1 0-.08.029-.931 0-1z"/></g></svg>