<svg xmlns="http://www.w3.org/2000/svg" version="1.2" overflow="inherit" viewBox="0 0 46 48.25040817260742"><path d="M23.076 6.604a3.193 3.193 0 0 0 3.203-3.194c0-1.755-1.43-3.193-3.203-3.193s-3.203 1.438-3.203 3.193a3.194 3.194 0 0 0 3.203 3.194zm20.088 36.608a6.935 6.935 0 0 0-2.918-.649 7.018 7.018 0 0 0-2.918.649c-.857.377-1.818.605-2.824.605s-1.979-.229-2.838-.605c-.881-.41-1.875-.649-2.916-.649s-2.037.239-2.918.649a7.128 7.128 0 0 1-2.836.605 7.147 7.147 0 0 1-2.837-.605 6.923 6.923 0 0 0-2.917-.649 7.006 7.006 0 0 0-2.917.649 7.015 7.015 0 0 1-2.817.605 7.11 7.11 0 0 1-2.837-.605c-.881-.41-1.876-.649-2.917-.649s-2.036.239-2.917.649A7.13 7.13 0 0 1 0 43.818v4.23a6.946 6.946 0 0 0 2.837-.605c.881-.41 1.876-.649 2.917-.649s2.036.239 2.917.649a6.907 6.907 0 0 0 5.654 0 7.003 7.003 0 0 1 2.917-.649c1.041 0 2.036.239 2.917.649a6.946 6.946 0 0 0 5.673 0c.881-.41 1.877-.649 2.918-.649s2.035.239 2.916.649c.859.388 1.832.605 2.838.605s1.967-.217 2.824-.605a7.018 7.018 0 0 1 2.918-.649c1.041 0 2.035.239 2.918.649.867.388 1.83.605 2.836.605v-4.23a7.122 7.122 0 0 1-2.836-.606zM43.428.091c-.23-.091-.578-.035-.762.137L30.949 12.024c-.183-.08-.426.024-.644.024h-4.426c-.756-1-4.759-4.906-4.759-4.906-.205-.206-.469-.395-.732-.463-.915-.799-2.299-.825-3.18.053l-6.848 6.87c-.263.262-.36.608-.36.996v4.45H0v2h10v11.523c0 1.426 1.068 2.578 2.493 2.578 1.416 0 2.507-1.152 2.507-2.578V21.048h7v15H0v3h24v-18h3v-2H15v-.824l6.475-6.431 2.643 2.711c.284.296.696.544 1.12.544h5.066c.872 0 1.696-.133 1.696-1 0-.206.066-.817 0-1 2.768-2.76 10-9.547 11-10.927v36.927h1V.661c0-.251-.344-.467-.572-.57z"/></svg>