<svg xmlns="http://www.w3.org/2000/svg" version="1.2" overflow="inherit" viewBox="0 0 45.94200134277344 47.33300018310547"><path d="M43.102 8.08c.549-.549 1.322-1.146 2.111-1.866l.729-.611-1.987-2.23-.649.607c-2.746 2.495-4.398 4.003-5.205 7.094-.801 3.073-.833 6.184-.749 9.092.088 2.998.201 4.976 1.039 7.182l.316.813c.804 2.023 2.021 5.079 2.021 9.01 0 4.749-1.924 7.158-5.718 7.158-3.452 0-5.314-2.304-5.532-6.856-.099-2.017.467-4.507 1.062-7.138.503-2.221 1.021-4.519 1.276-6.958.282-2.689-.071-4.611-1.104-5.765C29.386 16.131 27.345 16 25.547 16H25V2.139C25 .939 24.129 0 22.936 0H2.295C1.104 0 0 .939 0 2.139V46h25V19h.548c1.23 0 2.504.138 2.937.621.232.26.588 1.102.353 3.373-.237 2.264-.739 4.503-1.223 6.636-.641 2.839-1.249 5.539-1.129 7.973.295 6.179 3.404 9.73 8.524 9.73 5.457 0 8.715-3.798 8.715-10.168 0-4.509-1.395-8.022-2.232-10.127l-.302-.767c-.602-1.589-.737-3.062-.82-5.632.963-.022 2.129-.045 2.653-.045 1.199 0 1.802-.703 2.059-1.921.15-.71-.082-1.641-.082-3.331v-.448c-.001-4.467-.684-5.743-1.899-6.814zM22 17H3V4h19v13zm20-1.654c0 .873.23 1.708.201 2.239-.598.009-1.286.025-1.986.041.026-1.929.24-3.893.733-5.784.134-.504.094-.948.296-1.362.533.513.756 1.282.756 4.416v.45z"/></svg>