<svg xmlns="http://www.w3.org/2000/svg" version="1.2" overflow="inherit" viewBox="0 0 48 32.00111770629883"><path d="M34.484 7.034c-.248 0-.484-.167-.484-.411V.443C34 .199 33.866 0 33.617 0H14.382C14.133 0 14 .199 14 .443v6.18c0 .244-.269.377-.519.377H.449C.203 7 0 7.267 0 7.508v6.87c0 .242.203.622.449.622h20.986c.249 0 .565-.38.565-.622v-1.465c0-.244.092-.913.34-.913h3.321c.248 0 .339.669.339.913v1.465c0 .242.316.622.563.622h20.985c.25 0 .452-.38.452-.622v-6.87c0-.242-.202-.508-.451-.508H34.518l-.034.034zM17.093 7C16.845 7 17 6.867 17 6.624V3.111c0-.245-.155-.111.093-.111h13.814c.248 0 .093-.134.093.111v3.513c0 .243.155.376-.093.376H17.093zm8.962 14.712c0 .242-.146.288-.394.288H22.34c-.248 0-.34.107-.34-.135v-4.938c0-.242-.316-.927-.564-.927H.449c-.246 0-.449.685-.449.927v14.629A.45.45 0 0 0 .449 32h47.1a.449.449 0 0 0 .451-.443v-14.63c0-.242-.202-.927-.451-.927H26.563c-.247 0-.563.685-.563.927v4.938l.055-.153z"/></svg>