<svg xmlns="http://www.w3.org/2000/svg" version="1.2" overflow="inherit" viewBox="0 0 47.38779067993164 47.289207458496094"><path d="M16.656 43.467a1.007 1.007 0 0 1-.05 1.416l-2.172 2.031a.999.999 0 0 1-1.41-.051L.373 33.231a1.007 1.007 0 0 1 .051-1.416L2.6 29.787a.998.998 0 0 1 1.411.051l12.645 13.629zm16.14-25.65a1.007 1.007 0 0 1-.05 1.416l-13.67 12.77a.999.999 0 0 1-1.412-.051l-3.263-3.521a1.007 1.007 0 0 1 .051-1.416l13.667-12.77a.997.997 0 0 1 1.41.051l3.267 3.521zM21.307 39.12c.374.403.351 1.04-.05 1.416l-2.176 2.03a.998.998 0 0 1-1.41-.051L5.027 28.883a1.007 1.007 0 0 1 .05-1.416l2.171-2.029a.999.999 0 0 1 1.411.051L21.307 39.12zM42.37 18.306a1.007 1.007 0 0 1-.052 1.416l-2.174 2.03a1 1 0 0 1-1.412-.05L26.088 8.073a1.006 1.006 0 0 1 .05-1.416l2.18-2.035a.997.997 0 0 1 1.41.051L42.37 18.306zm4.644-4.34a1.009 1.009 0 0 1-.05 1.417l-2.17 2.029a.997.997 0 0 1-1.41-.05L30.74 3.727a1.009 1.009 0 0 1 .05-1.417L32.963.277a.995.995 0 0 1 1.41.05l12.641 13.639z"/></svg>