<svg xmlns="http://www.w3.org/2000/svg" version="1.2" overflow="inherit" viewBox="0 0 46 48.619998931884766"><path d="M41.633 8.803C44.05 8.803 46 6.828 46 4.401 46 1.969 44.05 0 41.633 0c-2.404 0-4.354 1.969-4.354 4.401-.001 2.427 1.95 4.402 4.354 4.402zM29 47h12s1-.103 1-1v-1h1s.411 2.709-1.857 3H29v-1zM1 38l8 8s.659.248 1.291-.384l.632-.637L12 46s-1.795 2.62-3.604 1.207L0 38.727 1 38zm30.905-3.248l.014 7.968c0 1.498 1.056 2.711 2.54 2.711 1.361 0 2.541-1.585 2.541-2.711V31.632c0-.772-.174-1.473-.688-1.967l-6.38-6.488 8.586-8.63c1.607-2.024.778-4.451.778-4.451-.883-2.692-3.902-2.785-3.902-2.785l-22.029-.006a2.137 2.137 0 0 0-2.126 2.147c0 1.195.958 2.148 2.13 2.148l15.212.024-6.402 6.438c-.919.947-1.385 2.012-1.385 3.404a4.74 4.74 0 0 0 1.411 3.405l9.7 9.881zm-11.063-8.666a4.92 4.92 0 0 1-.563-.644L7.567 38.3a2.693 2.693 0 0 0-.698 3.299 2.632 2.632 0 0 0 4.053.83L23.97 29.237l-3.128-3.151z"/></svg>