<svg xmlns="http://www.w3.org/2000/svg" version="1.2" overflow="inherit" viewBox="0 0 45.17860412597656 48.145999908447266"><path d="M33.35 0c-2.256 0-4.087 1.859-4.087 4.139 0 2.289 1.831 4.137 4.087 4.137 2.27 0 4.107-1.848 4.107-4.137C37.457 1.859 35.618 0 33.35 0zM2.408 28.54a1.2 1.2 0 0 0-1.664-.395 1.227 1.227 0 0 0-.388 1.686 1.224 1.224 0 0 0 1.676.389 1.23 1.23 0 0 0 .376-1.68zm.842 3.376a1.213 1.213 0 0 0-1.675-.381 1.22 1.22 0 0 0-.377 1.672 1.186 1.186 0 0 0 1.658.395c.571-.36.744-1.111.394-1.686zm.837 3.387a1.196 1.196 0 0 0-1.669-.391 1.22 1.22 0 0 0-.387 1.686 1.215 1.215 0 0 0 2.056-1.295zm.832 3.376a1.214 1.214 0 0 0-1.657-.396 1.236 1.236 0 0 0-.395 1.69c.355.576 1.1.75 1.675.391.56-.359.732-1.11.377-1.685zm19.67 6.881a1.237 1.237 0 0 0-.794 1.547 1.22 1.22 0 0 0 1.527.795c.637-.209.991-.896.792-1.534a1.233 1.233 0 0 0-1.526-.808zm3.443.03c-.64.195-.987.891-.783 1.527a1.21 1.21 0 0 0 1.526.799 1.23 1.23 0 0 0 .781-1.538 1.209 1.209 0 0 0-1.524-.788zm3.465.011a1.215 1.215 0 0 0-.792 1.54c.204.637.887.995 1.526.787.632-.195.984-.887.773-1.537-.192-.639-.876-1-1.507-.79zm3.44.014a1.231 1.231 0 0 0-.784 1.536c.211.644.895.995 1.526.791a1.222 1.222 0 0 0-.743-2.327zM43.168 16h-7.156l-3.539-5.787a3.915 3.915 0 0 0-3.403-2.267 3.047 3.047 0 0 0-.833.089L10.25 12.308a2.036 2.036 0 0 0-1.51 2.455 2 2 0 0 0 2.402 1.529l12.011-2.188L14.024 30H4.26l2.162 7.893c.073.256.073-.026.157.109.304.502.954.491 1.44.185.266-.157.44-.518.488-.804L9.8 33.364l.05-.184 6.016-.035c1.198 0 2.224-.335 2.833-1.35l2.768-4.633 6.161 6.323L25.017 44h9.042c.582 0 1.06-.609 1.06-1.189 0-.459-.282-.841-.63-1.036l-3.905-2.216 1.874-7.475s.465-1.589-1.009-3.044l-5.04-5.103s2.693-4.472 4.42-7.345L33.17 20h9.961c1.123 0 2.028-.873 2.04-1.993A1.98 1.98 0 0 0 43.168 16z"/></svg>