<svg xmlns="http://www.w3.org/2000/svg" version="1.2" overflow="inherit" viewBox="0 0 43.023563385009766 38.49999237060547"><path d="M43 11.662l-.013-.101a1.27 1.27 0 0 0-.127-.362L36.524 1s-.808-1-1-1h-27L.404 10.853l-.096.1L.295 11a1.78 1.78 0 0 0-.168.35l-.033.097a1.575 1.575 0 0 0 .013.95l.038.109c.05.129.114.247.188.352l19.63 24.867.04.057c.102.13.225.245.375.35l.114.071c.112.07.229.126.399.188l.11.037c.193.049.36.072.523.072.165 0 .326-.022.543-.078l.133-.047c.13-.046.247-.103.388-.19l.088-.055c.15-.107.272-.223.339-.314L42.67 12.923a1.747 1.747 0 0 0 .33-.79l.015-.129.008-.102-.024-.24zM32.46 11l2.798-5.063L38.054 11H32.46zm-1.678 3h6.638L26.356 28.015 30.782 14zM29.14 9.482L25.099 4h7.07l-3.03 5.482zM16.196 14h10.659l-5.331 16.877L16.196 14zm1.057-3l4.27-5.796L25.796 11h-8.542zm-3.008-1.972L12.393 4h5.557l-3.705 5.028zm2.449 18.988L5.629 14h6.639l4.426 14.016zM9.189 5.972L11.042 11H5.484l3.705-5.028z"/></svg>