<svg xmlns="http://www.w3.org/2000/svg" version="1.2" overflow="inherit" viewBox="0 0 42 48"><path d="M42 28v20H27v-4H14v4H0V28zm-9.051-3.645c-.574-2.509-1.869-4.715-3.91-6.401C27.062 16.311 24.723 16 22.01 15H22V8.672l.524-.141 1.147-.425c.441-.149.84-.274 1.256-.362.408-.097.691-.138.885-.138.377 0 .854.06 1.412.182.568.138 1.173.287 1.788.456.641.194 1.213.341 1.768.466.529.121.972.171 1.339.171.584.001.881-.08 1.881-.258V1.381c-1 .238-1.177.369-1.882.369-.367 0-.821-.056-1.351-.19-.553-.106-1.123-.271-1.764-.457A22.502 22.502 0 0 0 27.27.657c-.543-.129-.896-.191-1.28-.191-1.273 0-2.99.301-3.99.856V0h-2v15h-.063c-2.692 1-5.049 1.368-7.024 3.011-2.002 1.688-3.302 3.751-3.917 6.261 0 0-1.917-.272-1.917 1.728h27.97c0-2-2.1-1.645-2.1-1.645z"/></svg>