<svg xmlns="http://www.w3.org/2000/svg" version="1.2" overflow="inherit" viewBox="0 0 50 30.381999969482422"><path d="M46 22.382v8h4v-12H4V2.042C4 .919 3.131 0 2 0 .873 0 0 .918 0 2.042v28.34h4v-8h42zM10.33 10.234a3.687 3.687 0 0 0 3.687-3.694 3.68 3.68 0 0 0-3.687-3.675A3.678 3.678 0 0 0 6.647 6.54a3.686 3.686 0 0 0 3.683 3.694zM50 15.382l-.014-4.871c-.013-1.606-1.36-2.618-2.939-2.809L18.09 4.869l-.215-.009C16.869 4.86 16 5.694 16 6.695v5.687H8.547c-1.011 0-1.826.5-1.826 1.499 0 1.015.815 1.501 1.826 1.501H50z"/></svg>