<svg xmlns="http://www.w3.org/2000/svg" version="1.2" overflow="inherit" viewBox="0 0 36.36057662963867 49.939998626708984"><path d="M13.174 3.758C13.196 1.702 11.506 0 9.445.022 7.339 0 5.637 1.702 5.648 3.758c-.011 2.105 1.691 3.791 3.797 3.796a3.746 3.746 0 0 0 3.729-3.796zm10.842 20.63L11.954 9.755c-.627-.93-4.122-1.321-5.6-.134L.485 20.3l1.444 9.027c1.468 2.357 4.38-.028 3.562-1.316l-.985-6.395 2.536-5.12v12l-6 16c-1.042 3.494 3.969 5.365 5 2l7-18v-9l-2.937-4.062a.418.418 0 0 1 .639-.538l10.034 11.866c1.615 2.207 4.851-.14 3.238-2.374zm-4.615 20.298l-5.925-14.743-2.434 6.553 3.477 10.169c1.399 3.275 6.316 1.359 4.882-1.979zm15.713 3.383l.022.034c.235.28.65.308.93.078a.674.674 0 0 0 .123-.856L25.023 27.938l-.033-.039a.652.652 0 0 0-.919-.073c-.246.213-.269.571-.111.856l11.154 19.387z"/></svg>