<svg xmlns="http://www.w3.org/2000/svg" version="1.2" overflow="inherit" viewBox="0 0 50.82200622558594 51.058284759521484"><path d="M48.846 27.698c-1.396 6.519-6.192 11.874-12.516 13.976a18.88 18.88 0 0 1-5.975.973 18.873 18.873 0 0 1-17.93-12.914 18.716 18.716 0 0 1 1.03-14.404 18.773 18.773 0 0 1 10.93-9.46 18.923 18.923 0 0 1 13.71.689l.935-1.763C32.767.926 24.966 0 17.952 2.333 11.609 4.442 6.468 8.892 3.476 14.861.484 20.831 0 27.607 2.112 33.941a24.997 24.997 0 0 0 23.747 17.105c2.682 0 5.343-.433 7.911-1.286a24.961 24.961 0 0 0 17.052-21.774l-1.976-.288zM36.521 15.649l-5.014-9.384-2.55 10.477-10.429 2.05 9.547 5.421-1.642 10.796 8.107-7.374 10.046 4.82-5.131-10.027 8.124-7.842z"/></svg>