<svg xmlns="http://www.w3.org/2000/svg" version="1.2" overflow="inherit" viewBox="0 0 33.82426071166992 46.000526428222656"><path d="M17.507 20.572a2.743 2.743 0 0 0-2.741 2.74 2.743 2.743 0 0 0 2.741 2.74 2.744 2.744 0 0 0 2.741-2.74c0-1.511-1.23-2.74-2.741-2.74zM33.824 2.073A2.073 2.073 0 0 0 31.752 0H2.073A2.073 2.073 0 0 0 0 2.073v41.856C0 45.073.928 46 2.073 46h29.679a2.07 2.07 0 0 0 2.072-2.071V2.073zM17.507 36.415c-7.225 0-13.103-5.877-13.103-13.103 0-7.224 5.878-13.102 13.103-13.102 7.224 0 13.101 5.878 13.101 13.102-.001 7.226-5.878 13.103-13.101 13.103z"/></svg>