<svg xmlns="http://www.w3.org/2000/svg" version="1.2" overflow="inherit" viewBox="0 0 48.65599822998047 48.08399963378906"><path d="M48.415 7.313c-.242-1.088-.257-1.229-2.7-1.229h-2.456l-.491-1.349C42.12 2.778 39.942.913 37.772.369 36.516.055 32.042 0 21.123.076 7.396.172 6.073.25 4.715.861 1.675 2.227 0 5.671.898 8.704c.627 2.114 1.945 3.679 3.817 4.52 1.357.61 2.68.674 16.407.769 10.918.077 15.393-.01 16.648-.325 2.177-.545 4.349-2.477 5.003-4.452.493-1.485.515-1.5 2.125-1.394l1.625.107.108 5.126.107 5.125-4.763 1.125c-2.616.619-5.893 1.41-7.28 1.759a897.908 897.908 0 0 1-7.464 1.815l-4.944 1.183-.001 2.596c-.001 2.58.225 2.604-1.316 3.892l-1.314 1.295v16.239h7V31.845l-1.431-1.312c-1.526-1.276-1.498-1.369-1.382-3.332l.151-2.018 1.764-.439c.961-.243 4.022-.987 6.795-1.658 2.773-.669 7.534-1.818 10.575-2.554l5.528-1.336v-5.328c0-2.928-.109-5.951-.241-6.555zM24.431 43.72c0 .842-.159 1.016-1.015 1.105-1.078.11-1.544-.424-1.314-1.504.09-.421.461-.603 1.229-.603.976.001 1.1.115 1.1 1.002z"/></svg>