<svg xmlns="http://www.w3.org/2000/svg" version="1.2" overflow="inherit" viewBox="0 0 46 47.32099914550781"><path d="M5.206 29.141c2.885 0 5.219-2.399 5.219-5.368 0-2.953-2.334-5.353-5.219-5.353C2.333 18.42 0 20.82 0 23.773c0 2.968 2.333 5.368 5.206 5.368zm29.23 9.216a.53.53 0 0 1 .741.117l.965 1.372a.578.578 0 0 1-.116.766l-7.08 5.287a.536.536 0 0 1-.743-.118l-.962-1.372a.575.575 0 0 1 .116-.764l7.079-5.288zm-8.003-6.817l-2.808-5.063-1.474 1.107 2.808 5.09zm-6.551-11.827L8.962 0 6.873.014l11.522 20.82zm10.281 10.43C30.78 29.682 32.192 29 33 29h10c1.974 0 3 1.986 3 4.004C46 35.034 44.974 36 43 36h-9l-10.836 8.502c-3.808 2.819-6.116-.278-6.116-.278l-8.483-8.729c-1.423-1.753-1.115-5.089.591-6.566l11.739-8.597c1.166-1 2.897-.843 3.885.343.976 1.2.822 2.994-.346 3.996l-7.515 5.657 5.399 5.484 7.845-5.669z"/></svg>