<svg xmlns="http://www.w3.org/2000/svg" version="1.2" overflow="inherit" viewBox="0 0 48 46"><path d="M44.971 42.396c0-1.994-3.638-7.567-3.638-7.567s-3.693 5.573-3.693 7.567c0 1.99 1.642 3.604 3.666 3.604 2.023 0 3.665-1.614 3.665-3.604zM18.666 11.171h-7.331V3.944h1.999V0H0v3.944h2v11.17c0 2.904 2.388 5.257 5.333 5.257h11.333v1.972h4.001V9.201h-4.001v1.97zm27.332 16.428v-11.17c0-2.903-2.387-5.257-5.329-5.257H29.334v-1.97h-4.001v13.143h4.001v-1.973h7.332v7.227h-1.997v3.944H48v-3.944h-2.002z"/></svg>