<svg xmlns="http://www.w3.org/2000/svg" version="1.2" overflow="inherit" viewBox="0 0 48 48.00282669067383"><path d="M30 24.005a5.999 5.999 0 1 0 0 11.998 6 6 0 0 0 0-11.998zM42.001 12L37.06 2.033a2.991 2.991 0 0 0-2.839-2.03H25.98a2.992 2.992 0 0 0-2.854 2.075l-5.119 9.925H5.999a6.004 6.004 0 0 0-5.999 6v30h48v-30A6.005 6.005 0 0 0 42.001 12zM9 24.005a2.998 2.998 0 0 1-3.001-2.998c0-1.662 1.342-3.003 3.001-3.003s2.999 1.34 2.999 3.003A2.996 2.996 0 0 1 9 24.005zm21 18.004c-6.625 0-12.001-5.377-12.001-12.006 0-6.626 5.375-12 12.001-12 6.626 0 12.001 5.373 12.001 12 0 6.629-5.375 12.006-12.001 12.006z"/></svg>