<svg xmlns="http://www.w3.org/2000/svg" version="1.2" overflow="inherit" viewBox="0 0 48 40.23100280761719"><path d="M0 0l7.617 7.893 2.927-2.664L7.894.024zm34.336 22.108c1.439.402 2.988-.424 3.396-1.909.395-1.458-.445-2.991-1.898-3.405l-1.127-.315-1.463 5.302 1.092.327zm-.887-5.97l-9.115-2.603c-.6-.158-1.205.208-1.374.815l-.852 3.089c-.167.608.156 1.228.768 1.411l9.122 2.579 1.451-5.291zm1.438 8.781a6.037 6.037 0 0 0-2.564-1.484L21.27 20.298l-6.79-12.21c-.36-.632-.936-1.131-1.68-1.338-1.488-.425-3.036.462-3.443 1.97a2.79 2.79 0 0 0 .216 2.067l8.494 15.104s.696 1.131 2.447 1.716l15.442 4.391 7.162 7.369c.24.255.553.449.924.56 1.08.304 2.207-.354 2.52-1.437.205-.765-.035-1.568-.576-2.067L34.887 24.919zm8.244 3.053l1.605 2.128L48 26.487l-2.758-1.558c.262-1.958-.938-3.854-2.857-4.401-2.111-.597-4.307.644-4.893 2.785-.602 2.153.635 4.365 2.746 4.962 1.008.291 2.028.133 2.893-.303z"/></svg>