<svg xmlns="http://www.w3.org/2000/svg" version="1.2" overflow="inherit" viewBox="0 0 36.345001220703125 48.262996673583984"><path d="M19.139 8.092c2.297.169 4.306-1.468 4.488-3.648.184-2.191-1.53-4.108-3.827-4.277-2.3-.167-4.309 1.46-4.487 3.651-.179 2.19 1.536 4.103 3.826 4.274zm17.206 32.062l-1.388-12h-2.252c.021-1 .018-1.111-.051-1.718-.067-.621-.264-1.075-.585-1.218.263-.28.438-.636.472-1.037a1.76 1.76 0 0 0-.74-1.575l-5.732-3.768-4.22-7.946c-.699-1.04-1.883-1.879-3.312-1.999-1.098-.076-2.108.287-2.925.827l-8.374 6.482a1.658 1.658 0 0 0-.577.865L4.71 24.918l-.148.233v.003h-.016c-.327 0-.625.312-.739.725-.11.405-.245.94-.245 1.373v.902H1.388L0 40.154h5.609L3.15 44.089c-.16.305-.348.736-.381 1.152-.121 1.49 1.039 2.785 2.594 2.904 1.111.074 2.067-.462 2.648-1.318l4.15-6.673h.543l-.085-.737 1.151-1.852c.125-.248.522-.855.566-1.143l1.406-6.11 6.001 6.273 1.884 9.431c.301 1.115 1.263 2.035 2.543 2.129 1.557.118 2.92-.981 3.044-2.468l-.017-.548-.984-4.975h8.132zM4.519 27.144c.056-.473.233-.742.545-.742l.117-.002c.315.381.783.642 1.323.686a1.904 1.904 0 0 0 1.553-.633.677.677 0 0 1 .197.326c.083.287.131.616.131.887 0 .162-.008.488-.019.488H4.49c-.013 0-.009-.643.029-1.01zm5.731 1.01H9.065c.025-1 .018-1.111-.047-1.718-.056-.52-.203-.922-.436-1.128l1.479-6.442 2.917-2.257-2.728 11.545zm21.758 0h-3.879c-.016 0-.011-.643.029-1.01.052-.473.232-.742.545-.742.449 0 .856-.014 1.217-.022.363-.013.858-.031 1.481-.031.239 0 .401.142.491.431.086.287.132.616.132.887l-.016.487zm-12.546-2.283l1.88-7.936 1.581 2.983c.125.205.273.374.468.533l5.647 3.703h-.853c-.327 0-.447.312-.56.725-.107.405-.063.94-.063 1.373v.902H25.03l-.409 3.53-5.159-5.813z"/></svg>