<svg xmlns="http://www.w3.org/2000/svg" version="1.2" overflow="inherit" viewBox="0 0 44.534812927246094 48"><path d="M31.856 7.581c2.079 0 3.749-1.691 3.749-3.785S33.936 0 31.856 0c-2.07 0-3.742 1.702-3.742 3.796s1.672 3.785 3.742 3.785zM15.954 22.953l13.477-8.812a3.837 3.837 0 0 0 1.174-5.262 3.739 3.739 0 0 0-5.202-1.187l-9.936 6.493a3.742 3.742 0 0 0-1.294 1.411L3.829 36.221c-.609 1.221-.132 2.699 1.063 3.315a2.427 2.427 0 0 0 3.275-1.076l7.787-15.507zm26.25-1.444a3.878 3.878 0 0 0 1.217-5.308l-1.307.806a2.312 2.312 0 0 1-.729 3.18L0 46.689.819 48l41.385-26.491z"/></svg>