<svg xmlns="http://www.w3.org/2000/svg" version="1.2" overflow="inherit" viewBox="0 0 42 48"><path d="M19 46.689v-6.342l-3.357 1.992L14 41.305v-2.229l5-2.986v-4.168l-4 2.451v-4.416l-4 2.094v5.99l-1.653 1.23L8 38.16v-4.012L2.426 37.27 0 36.271v-2.529l5.685-3.17L2 28.75v-2.32l2.123-1.127 5.214 3.068 3.612-2.084-.082-.065-3.665-2.123 3.568-2.228-3.577-2.083L3.98 22.84 2 21.871v-2.307l3.542-1.978L0 14.533v-2.529l2.321-1.114L8 14.087v-4.076l1.485-1.127 1.943 1.18-.056 6.105 3.673 2.122.033-4.311L19 16.079v-4.167l-5-2.988V6.71l1.643-1.05L19 7.652V1.324L20.994 0 23 1.324v6.328l3.906-2.031L29 6.84v1.992l-6 3.08v4.167l4-2.267v4.534l4-2.084V9.738l1.455-.866L34 9.737v4.167l5.842-3.08L42 12.042v2.359l-5.495 3.17L40 19.525v2.254l-1.83.996-5.327-3.158-3.679 2.346 3.549 2.228-3.659 2.122 3.772 1.992 5.389-2.986L40 26.535v2.15l-3.32 1.887 5.32 3.17v2.49l-2.522 1.037L34 34.281v3.955l-1.52 1.049L31 38.236v-6.002l-4-2.213v4.168l-4-2.268v4.168l5 2.986v2.359l-1.647.904L23 40.348v6.342L20.994 48 19 46.689zm-1.466-22.597L19.42 27h3.514l1.613-2.908L22.843 21h-3.514l-1.795 3.092z"/></svg>