<svg xmlns="http://www.w3.org/2000/svg" version="1.2" overflow="inherit" viewBox="0 0 46 46"><path d="M43.699 22.145l-7.89-13.293C35.495 8.268 34.737 8 34.088 8H27V2c0-1.1-.9-2-2-2h-5c-1.1 0-2 .9-2 2v6h-5.96c-.65 0-1.44.268-1.754.852L2.365 22.25C1.064 22.25 0 23.237 0 24.572v12.139C0 38.046 1.064 39 2.365 39H5v3.78C5 44.784 6.328 46 8.279 46h1.183C11.413 46 13 44.784 13 42.78V39h20v3.78c0 2.004 1.714 3.22 3.665 3.22h1.184C39.8 46 41 44.784 41 42.78V39h2.763c1.3 0 2.237-.954 2.237-2.289V24.572c0-1.335-1-2.427-2.301-2.427zm-37.194 9.71c-1.633 0-2.958-1.358-2.958-3.034 0-1.677 1.324-3.035 2.958-3.035s2.957 1.358 2.957 3.035c0 1.676-1.323 3.034-2.957 3.034zM8.279 22l5.384-9.377c.292-.598 1.063-.623 1.713-.623h15.376c.65 0 1.421.025 1.712.623L37.849 22H8.279zm31.343 9.855c-1.632 0-2.957-1.358-2.957-3.034 0-1.677 1.325-3.035 2.957-3.035 1.633 0 2.958 1.358 2.958 3.035 0 1.676-1.325 3.034-2.958 3.034z"/></svg>