<svg xmlns="http://www.w3.org/2000/svg" version="1.2" overflow="inherit" viewBox="0 0 48.011383056640625 48.00450134277344"><path d="M4.818 23.214A1.843 1.843 0 0 0 2.98 25.05c0 1.007.828 1.82 1.838 1.82a1.82 1.82 0 0 0 1.826-1.82 1.833 1.833 0 0 0-1.826-1.835zM30.306 7.955a3.975 3.975 0 0 0 3.98-3.969 3.986 3.986 0 0 0-7.973 0c0 2.198 1.79 3.97 3.993 3.97zm17.13 35.412l-6.476-7.626s-2.023-11.774-2.023-11.799l-.303-1.335c.012.013-.814-3.714-1.447-6.627 1.01.582 1.922 1.104 1.97 1.13.05.107 3.433 6.53 3.433 6.53.258.474.686.826 1.195.982a2.01 2.01 0 0 0 1.547-.146 1.95 1.95 0 0 0 .984-1.189 1.9 1.9 0 0 0-.135-1.529l-3.71-7.054s-.147-.255-.341-.448c-.268-.267-.855-.595-.855-.595L34.07 9.57c-.914-.46-1.924-.618-2.936-.4-.416.085-.803.243-1.24.486-.051.011-1.646.715-2.57 2.878l-3.7 7.43-5.833 1.128-.134.048-5.266-3.715c-1.181-.825-1.326-3.302-1.34-3.399-.145-1.699-1.12-3.302-2.678-4.407C6.962 8.623 5.256 8.2 3.697 8.452c-1.218.207-2.252.838-2.91 1.762a4.27 4.27 0 0 0-.778 2.5l.073.803c.269 1.564 1.23 3.021 2.643 4.03 1.424 1.006 3.117 1.432 4.675 1.165l.366-.073c.036-.024 2.374-.742 3.518.037 0 .011 3.938 2.78 4.986 3.52-.11.17-.304.545-.292.935a2.023 2.023 0 0 0 2.41 1.967l6.988-1.36s.598-.183.854-.366c.33-.23.572-.715.572-.715l1.838-3.69s1.268 5.96 1.289 6.068c-.145.146-5.732 6.058-5.732 6.058l-.215.122c-.551.496-.973 1.151-.973 1.845v12.526c0 1.338 1.167 2.418 2.506 2.418 1.328 0 2.494-1.08 2.494-2.418V35.123c1-.533 4.844-5.036 5.988-6.229.123.704 1.252 7.056 1.252 7.056.098.56.379 1.068.78 1.48 0 .013 7.7 9.07 7.7 9.07a2.525 2.525 0 0 0 1.657.848 2.47 2.47 0 0 0 1.769-.568 2.436 2.436 0 0 0 .853-1.848 2.39 2.39 0 0 0-.571-1.565zM9.032 16.053c-.426.595-1.083.983-1.9 1.13-1.144.192-2.423-.135-3.493-.912-1.083-.766-1.815-1.857-2.01-2.998l-.05-.57c0-.596.16-1.129.489-1.59 1.059-1.48 3.48-1.578 5.404-.219 1.913 1.36 2.619 3.678 1.56 5.16z"/></svg>