<svg xmlns="http://www.w3.org/2000/svg" version="1.2" overflow="inherit" viewBox="0 0 46 43"><path d="M44 10H32V6.024C32 3.173 30.159 0 27.311 0h-9.592C14.868 0 13 3.173 13 6.024V10H2c-1.1 0-2 .9-2 2v29c0 1.1.9 2 2 2h42c1.1 0 2-.9 2-2V12c0-1.1-.9-2-2-2zM28 40H17v-1.067c0-.023.613-.053.906-.088s.55-.094.761-.176c.375-.141.795-.343.948-.606S20 37.45 20 37.017v-10.23c0-.41-.248-.771-.436-1.081s-.499-.56-.78-.747c-.211-.141-.359-.275-.787-.404S17 24.343 17 24.308v-1.283l8.175-.457-.175.263v13.957c0 .41.316.759.492 1.046s.542.501.87.642c.234.105.485.199.767.281s.871.14.871.176V40zm-9.381-23.761c0-.891.343-1.652 1.028-2.285s1.503-.949 2.452-.949 1.764.316 2.443.949 1.02 1.395 1.02 2.285-.343 1.649-1.028 2.276-1.497.94-2.435.94c-.949 0-1.767-.313-2.452-.94s-1.028-1.385-1.028-2.276zM29 10H16V6.024C16 4.957 17.08 3 18.147 3h8.052C27.264 3 29 4.957 29 6.024V10z"/></svg>