<svg xmlns="http://www.w3.org/2000/svg" version="1.2" overflow="inherit" viewBox="0 0 46 48.23600387573242"><path d="M46 48.236a6.83 6.83 0 0 1-2.83-.622 6.943 6.943 0 0 0-2.92-.657 6.867 6.867 0 0 0-2.92.657 6.863 6.863 0 0 1-2.829.622 6.873 6.873 0 0 1-2.841-.622 6.874 6.874 0 0 0-2.92-.657 6.86 6.86 0 0 0-2.91.657 6.865 6.865 0 0 1-2.84.622c-1.008 0-1.97-.23-2.829-.622a6.862 6.862 0 0 0-2.918-.657 6.944 6.944 0 0 0-2.921.657 6.807 6.807 0 0 1-2.823.622c-1.008 0-1.97-.23-2.829-.622a6.867 6.867 0 0 0-2.92-.657 6.943 6.943 0 0 0-2.92.657 6.826 6.826 0 0 1-2.83.622V43.96c1.008 0 1.97-.231 2.829-.625a7.156 7.156 0 0 1 2.92-.644c1.042 0 2.039.242 2.92.644a6.788 6.788 0 0 0 2.829.625 6.786 6.786 0 0 0 2.824-.625 7.153 7.153 0 0 1 2.921-.644c1.042 0 2.035.242 2.918.644a6.788 6.788 0 0 0 2.829.625 6.843 6.843 0 0 0 2.84-.625 7.066 7.066 0 0 1 2.91-.644c1.041 0 2.037.242 2.92.644a6.84 6.84 0 0 0 2.841.625c.995 0 1.97-.231 2.829-.625a7.073 7.073 0 0 1 2.92-.644c1.031 0 2.027.242 2.92.644a6.8 6.8 0 0 0 2.83.625v4.276zm-18.578-8.83a6.336 6.336 0 0 1 1.318-.138c1.041 0 2.037.241 2.92.644a6.84 6.84 0 0 0 2.841.624c.995 0 1.97-.23 2.829-.624.607-.274 1.26-.495 1.959-.587-.379-11.473-12.268-21.709-12.828-22.239-.584-.531-1.123-1.694-.744-3.067l2.839-9.453c.505-1.465.253-3.424-.445-4.012C27.71.231 26.862 0 26.288.658L18.606 9.43c-1.684 1.799-.274 3.724-.308 3.713-2.613-.946-5.681-.312-7.542.46L4.41 16.844c-.63.265-.904 1.071-.572 1.613 1.054 1.696 4.547 1.707 11.825.911 11.759-1.269 11.771 17.698 11.759 20.038z"/></svg>