<svg viewBox="0 0 2833 2833" xmlns="http://www.w3.org/2000/svg"><path d="M202.333 2338q0-40 27-67 28-26 64-26h578q118 0 201.5 84.5t83.5 202.5q0 119-83 202.5t-202 83.5-203-84q-25-25-25-64t24.5-64.5 64.5-25.5q37 0 65 26 32 31 74 31t73-30.5 31-74.5q0-42-31-72.5t-73-30.5h-578q-37 0-64-26.5t-27-64.5zm0-324q0-39 27-66 28-26 64-26h1125q42 0 73-31t31-74-31-73.5-73-30.5q-44 0-73 30-29 24-68 24t-63.5-24.5-24.5-63.5q0-40 24-65 81-81 205-81 119 0 202.5 83t83.5 201-83.5 201.5-202.5 83.5h-1125q-38 0-64.5-25.5t-26.5-62.5zm229-252q0 13 17 13h154q13 0 23-16 36-87 112-144t170-64l56-8q21 0 21-18l8-55q17-173 146.5-290.5t305.5-117.5q177 0 307 116.5t148 291.5l8 63q0 18 18 18h173q145 0 248.5 102t103.5 245-103.5 245-248.5 102h-737q-20 0-20 18v148q0 18 20 18h737q145 0 267.5-71t194-193.5 71.5-266.5q0-145-71.5-267t-194-193-267.5-71h-33q-50-213-223.5-349t-397.5-136q-226 0-400 140.5t-221 359.5q-137 32-243 131.5t-147 235.5v4q-2 5-2 9z"/></svg>