<svg viewBox="0 0 3366 3366" xmlns="http://www.w3.org/2000/svg"><path d="M240.417 2358q0 180 107 321.5t275 188.5q15 2 26-8l125-150q-143 0-245-103.5t-102-248.5q0-133 90.5-231t225.5-114l52-3q21 0 21-20l8-58q17-173 147-290t305-117q176 0 307 117t148 290l7 63q7 18 23 18h175q141 0 243 101.5t102 243.5q0 135-90.5 236t-220.5 112q-78 9-96 30l-234 301q-22 30-17 67t33 60q24 27 63.5 22t63.5-38l205-262q131-13 239.5-87t171.5-191 63-250q0-115-45-214 126-153 126-355 0-113-45-217t-120.5-179-179.5-120-218-45q-240 0-414 186-127-70-290-70-226 0-400 140.5t-221 359.5q-181 41-297.5 185t-116.5 329zm416 879q12 35 49 51 35 16 71 1t49-50q15-33 .5-66.5t-47.5-49.5q-35-16-70.5-2t-48.5 49q-13 41-3 67zm193-293v12q3 35 32 59 28 24 67 21t61-31l233-301q23-29 20-67.5t-31-60.5q-29-24-67.5-20t-64.5 33l-229 299q-21 26-21 56zm55 519q0 10 6 32 14 35 49 49 18 7 38 7 15 0 33-5 34-13 47-47 16-35 2.5-71t-47.5-49q-35-16-71.5-1.5t-48.5 48.5q-8 17-8 37zm178-253v11q3 36 35 62 24 26 64 21.5t64-36.5l442-558q22-32 18-68.5t-33-62.5q-29-23-66-18.5t-60 33.5l-444 561q-20 24-20 55zm62-2164q0 39 29 63l65 70q25 25 58 28 33 5 65.5-24t32.5-68q0-36-26-64l-69-69q-24-26-62-26-39 0-66 26t-27 64zm314 2286q0 19 7 33 14 35 48 49 17 8 37 8 10 0 32-6 36-14 49-49 16-35 2.5-70.5t-47.5-48.5q-35-16-71.5-2t-49.5 48q-7 18-7 38zm257-1815q113-103 264-103 158 0 270 109.5t112 265.5q0 106-55 198-155-155-371-155h-36q-44-184-184-315zm173-561q0 37 26.5 62.5t64.5 25.5q39 0 66-25.5t27-62.5V735q0-37-27.5-64t-65.5-27q-37 0-64 26.5t-27 64.5v221zm595 243q0 38 24 64 28 27 65.5 27.5t60.5-27.5l159-154q26-26 26-65 0-38-27.5-65.5t-64.5-27.5q-35 0-64 27l-155 157q-24 26-24 64zm83 1270q0 38 26 64l70 67q26 26 58 29h6q28 0 66-29 26-26 26-62 0-38-26-67l-70-66q-26-27-63-27-39 0-66 26.5t-27 64.5zm160-680q0 38 26 64 26 29 64 29h218q38 0 65-27.5t27-65.5q0-37-27-62.5t-65-25.5h-218q-38 0-64 25.5t-26 62.5z"/></svg>