<svg viewBox="0 0 3364 3364" xmlns="http://www.w3.org/2000/svg"><path d="M240.25 2353q0 179 106.5 320t275.5 188l-70 181q-8 23 15 23h227l-152 449h31l465-604q6-7 2-14.5t-15-7.5h-234l266-496q12-23-15-23h-316q-15 0-25 16l-114 307q-115-29-190-123.5t-75-215.5q0-135 90-233t225-114l54-3q19 0 24-15l8-63q17-173 146.5-290.5t305.5-117.5q174 0 305.5 117.5t149.5 290.5l8 63q0 18 19 18h172q143 0 246 102.5t103 244.5q0 139-95.5 241.5t-232.5 109.5q-21 0-21 19v143q0 18 21 18 141-4 258.5-76.5t185.5-193 68-261.5q0-117-46-215 122-154 122-351 0-152-75.5-281.5t-205-205-281.5-75.5q-115 0-223.5 48t-187.5 133q-129-69-290-69-227 0-402.5 140.5T648.25 1837q-177 41-292.5 186t-115.5 330zm873 1058q0 24 17 50t49 36q18 4 27 4 24 0 41-8 34-13 46-61l29-110q10-40-9-71.5t-57-39.5q-33-11-66 8t-45 55l-27 111q-5 22-5 26zm25-2369q0 37 27 64l69 70q25 25 59 28 33 5 65-24t32-68q0-37-27-64l-67-70q-26-26-64-26-40 0-67 26t-27 64zm118 1857q-1 26 15 50.5t51 34.5q34 11 66.5-6.5t44.5-59.5l32-110q11-35-8.5-67.5t-57.5-43.5q-36-11-68.5 7.5t-43.5 56.5l-26 112q-5 22-5 26zm302 179q0 23 11 42 21 34 58 46 18 6 30 6 20 0 33-8 32-12 48-64l27-108q11-38-7-69.5t-54-41.5q-37-11-69.5 7t-43.5 54l-30 111q-3 14-3 25zm146-514q0 28 17.5 53.5t52.5 35.5q27 9 65-5 32-14 46-61l29-107q10-40-8.5-71.5t-56.5-39.5q-36-11-68 6.5t-43 53.5l-31 113q-3 21-3 22zm11-1050q107-103 261-103 157 0 267.5 109.5t110.5 266.5q0 105-50 193-154-154-375-154h-33q-47-190-181-312zm170-562q0 38 26.5 65t64.5 27 63.5-26.5 25.5-65.5V732q0-39-25.5-65.5t-63.5-26.5-64.5 27-26.5 65v220zm595 244q0 39 25 64 22 25 58.5 27.5t67.5-27.5l154-154q28-26 28-64t-28-64q-26-28-64-28-37 0-62 28l-154 154q-25 25-25 64zm83 1271q0 37 27 64l69 67q29 27 66 27l2 2q35 0 58-29 28-26 28-64 0-37-28-65l-66-66q-29-29-65-29-38 0-64.5 27.5t-26.5 65.5zm156-680q0 39 28 63 25 28 64 28h220q38 0 65-26.5t27-64.5-26.5-63.5-65.5-25.5h-220q-39 0-65.5 25.5t-26.5 63.5z"/></svg>