<svg viewBox="0 0 3341 3341" xmlns="http://www.w3.org/2000/svg"><path d="M238.667 2335q0 139 68 258.5t185 191.5 256 78q19 0 19-18v-142q0-20-19-20-136-7-232-108.5t-96-239.5q0-132 90-229.5t223-113.5l56-3q20 0 20-19l8-58q17-173 145.5-289t303.5-116q172 0 302.5 116.5t149.5 288.5l7 62q0 18 18 18h173q141 0 244.5 102t103.5 241q0 138-96 239.5t-233 108.5q-19 0-19 20v142q0 18 19 18 139-4 256-76.5t184-192.5 67-259q0-118-44-213 124-152 124-352 0-151-75-279.5t-203-203-278-74.5q-248 0-413 185-131-70-287-70-225 0-399 139.5t-223 356.5q-176 42-290.5 185t-114.5 326zm630 94q0 61 45 104t108 43q64 0 107-42.5t43-104.5q0-39-37.5-107t-69.5-106q-34-36-43-45l-38 43q-43 46-79 110t-36 105zm265-1399q0 41 26 65l69 70q67 50 129 0 26-31 26-68t-26-63l-68-69q-30-27-65-27-39 0-65 27t-26 65zm52 1821q0 105 72.5 176.5t175.5 71.5q104 0 177-73t73-175q0-86-86-210-74-97-136-159-13-9-28-24l-25 24q-57 52-136 157-87 121-87 212zm157-706q0 40 30.5 69t73.5 29q41 0 70-29t29-69q0-66-99-171l-26 27q-29 32-53.5 74.5t-24.5 69.5zm360-646q106-106 263-106 156 0 265.5 110t109.5 267q0 94-55 196-155-153-370-153h-35q-46-186-178-314zm171-561q0 38 27.5 65t64.5 27 62-27 25-65V721q0-38-24.5-63t-62.5-25-65 25-27 63v217zm588 247q0 39 27 63 28 26 60 26 28 0 65-26l153-153q29-29 29-66 0-39-27-65t-65-26q-35 0-62 27l-153 153q-27 27-27 67zm86 1256q0 40 25 68l69 62q23 29 63 29 39 0 62-29 29-26 29-62 0-35-29-62l-65-69q-28-26-65-26-38 0-63.5 26t-25.5 63zm154-671q0 36 27 62 28 26 67 26h216q38 0 64.5-25.5t26.5-62.5q0-38-27-64.5t-64-26.5h-216q-38 0-66 27t-28 64z"/></svg>