<svg viewBox="0 0 2389 2389" xmlns="http://www.w3.org/2000/svg"><path d="M301.167 1931q0-8 2-22v-508q44 79 123 126.5t172 47.5q94 0 172.5-47.5t122.5-126.5q44 79 122.5 126.5t172.5 47.5q93 0 171.5-47.5t122.5-126.5q45 79 123 126.5t171 47.5 172-47.5 123-126.5v513q0 3 .5 8.5t.5 8.5q0 2-.5 7.5t-.5 8.5q-5 37-32 64t-64 32q-3 0-8.5 1t-8.5 1q-2 0-7.5-1t-8.5-1h-1511q-3 0-8 1t-8 1-8.5-1-7.5-1q-36-5-62-30t-34-60q-2-14-2-22zm588-1182.5q0-25.5 18-44.5l236-237 3-2q1 0 1-1 1 0 1-1 1 0 1-1h1q1 0 1-1t1-2h2l1-1h1l1-1h1l1-1h1q1-1 2-1h1q0-1 2-1 1-1 2-1l4-2h1q1 0 1-1h7l1-1h13q1 0 2 1h6q0 1 1 1h2q2 2 3 2l2 1h2l1 1h1l1 1q1 0 1 1h2q1 0 1 .5t1 .5q1 1 2 1 0 2 1 2l1 1h2l1 1 1 1 1 1 2 2 237 237q19 19 19 44.5t-19 43.5q-18 19-43.5 19t-43.5-19l-131-130v736q0 25-18 43t-44 18-44.5-18-18.5-43V662l-130 130q-19 19-44.5 19t-43.5-19q-18-18-18-43.5z"/></svg>