<svg viewBox="0 0 2711 2711" xmlns="http://www.w3.org/2000/svg"><path d="M193.667 1689q0-42 29-66 23-24 66-24h222q39 0 64.5 25.5t25.5 64.5q0 38-26 65t-64 27h-222q-39 0-67-27t-28-65zm99 542q0-37 28-65 26-25 65-25h1942q39 0 66 26t27 64-27.5 65.5-65.5 27.5h-1942q-38 0-65.5-27.5t-27.5-65.5zm218-1298q0-41 25-63 27-29 66-29 38 0 65 29l154 156q28 26 28 64 0 40-25.5 65.5t-64.5 25.5q-35 0-64-26l-159-157q-25-22-25-65zm277 756q0 139 57 249 5 15 26 15h178q12 0 14.5-6.5t-7.5-17.5q-85-104-85-240 0-159 114-271t272-112q159 0 271.5 112t112.5 271q0 137-85 240-6 10-6 13-1 5 3 8t11 3h181q14 0 22-15 60-113 60-249 0-153-77-284.5t-208.5-208.5-284.5-77-284.5 77-208 208.5-76.5 284.5zm477-846V620q0-38 27-66t65-28 66 28 28 66v223q0 38-28 66t-66 28-65-28-27-66zm600 247q0-39 26-64l154-156q27-29 66-29 40 0 66.5 26.5t26.5 65.5q0 41-24 65l-161 157q-26 24-63 24-40 1-65.5-24t-25.5-65zm248 599q0-43 26-66 23-24 63-24h223q39 0 66.5 25.5t27.5 64.5q0 38-28 65t-66 27h-223q-37 0-63-27t-26-65z"/></svg>