<svg viewBox="0 0 2506 2506" xmlns="http://www.w3.org/2000/svg"><path d="M179 2054q0-42 30-66 22-25 67-25h1956q40 0 68 26t28 65q0 38-28.5 66.5T2232 2149H276q-40 0-68.5-28.5T179 2054zm210-884q0-42 25-67 27-28 69-28 37 0 64 28l160 160q29 29 29 67 0 37-29 66-24 29-64.5 28.5T574 1396l-160-160q-25-24-25-66zm313 596q-7 25 16 25h159q11 0 24-18 48-102 142-162t209-60q116 0 212 60t144 162q13 18 24 18h158q20 0 16-25-54-181-207.5-294T1252 1359q-192 0-344 113t-206 294zm459-689V849q0-40 26-68t65-28q40 0 67 27.5t27 68.5v228q0 41-27 68t-67 27q-39 0-65-27.5t-26-67.5zm610 253q0-38 27-67l164-160q25-28 66-28 39 0 64 27t25 68q0 42-25 66l-158 160q-27 27-60 30-36 4-69.5-26t-33.5-70z"/></svg>