<svg viewBox="0 0 2389 2389" xmlns="http://www.w3.org/2000/svg"><path d="M420.167 1302q0-157 61.5-300.5t165.5-248 248-166.5 302-62h125q26 7 26 30l5 96q3 103 43 195.5t106.5 160.5 157.5 109.5 192 45.5l91 7q26 0 26 25v108q1 162-63 311h-219q81-119 103-270-268-56-429.5-230t-186.5-409q-155 8-283.5 95.5t-199 221.5-70.5 281q0 171 89 311h-226q-64-148-64-311zm27 643q0-42 32-74 29-29 72-29h343q17 0 30 8l251 237 255-237q11-8 31-8h352q43 0 73.5 30t30.5 73-30.5 73.5-73.5 30.5h-286l-334 303q-20 14-36 0l-329-303h-277q-43 0-73.5-30.5t-30.5-73.5z"/></svg>