<svg viewBox="0 0 2389 2389" xmlns="http://www.w3.org/2000/svg"><path d="M170.667 1279q0-157 61-299.5t164-245.5 245.5-164 298.5-61q157 0 299.5 61t245.5 164 164 245.5 61 299.5q0 156-61 298.5t-164 245.5-245.5 164-299.5 61q-156 0-298.5-61t-245.5-164-164-245.5-61-298.5zm183 0q0 80 10 147t39 142.5 77 138.5 128 127 189 117q69 15 143 15 140 0 267-54.5t219.5-146.5 147-219.5 54.5-266.5q0-186-92.5-344.5t-251-251-344.5-92.5q-87 0-158 18-90 43-160 93.5T506.167 808t-77 110.5-47 119-22 119.5-6.5 122z"/></svg>