<svg viewBox="0 0 2720 2720" xmlns="http://www.w3.org/2000/svg"><path d="M194.25 1806q0 212 149 366t363 161q19 0 19-18v-143q0-18-19-18-136-7-233-109.5t-97-238.5 90.5-235 224.5-110l57-8q21 0 21-18l7-55q17-175 146.5-293t305.5-118q174 0 305 117.5t149 290.5l8 61q0 19 18 19h173q145 0 248.5 103t103.5 246q0 136-97 238.5t-233 109.5q-22 0-22 18v143q0 18 22 18 140-4 257-76t184.5-192 67.5-259q0-146-69-265 118-106 162-275l18-77q2-2 2-8 0-12-17-17l-65-18q-70-21-124.5-61t-86-89.5-47-101-15.5-101.5q0-43 11-92l12-66q4-15-15-24l-85-26q-70-17-133-17-59 0-120 14t-126 44-126 85.5-106 130.5q-129-53-254-53-226 0-401.5 140.5T601.25 1289q-180 45-293.5 188t-113.5 329zm681 436q0 38 25.5 64.5t62.5 26.5q38 0 63.5-26.5t25.5-64.5q0-36-25.5-62t-63.5-26q-37 0-62.5 26t-25.5 62zm0 388q0 36 26 62t62 26q38 0 63.5-25t25.5-63-25.5-63-63.5-25-63 25-25 63zm342-181q0 39 26 63 26 26 62 26 38 0 65-26t27-63q0-38-27-65.5t-65-27.5q-35 0-61.5 27.5t-26.5 65.5zm0-388q0 38 26 62 26 26 62 26 39 0 65.5-25t26.5-63q0-37-27-63.5t-65-26.5q-36 0-62 26.5t-26 63.5zm0 780q0 35 26 61 27 27 62 27 38 0 65-25.5t27-62.5q0-38-27-65.5t-65-27.5q-35 0-61.5 27.5t-26.5 65.5zm345-599q0 38 26.5 64.5t63.5 26.5 62.5-26.5 25.5-64.5q0-36-25.5-62t-62.5-26-63.5 26-26.5 62zm0 388q0 36 26 62t64 26 63-25.5 25-62.5q0-38-25-63t-63-25-64 25-26 63zm73-1694q50-87 138.5-134.5t182.5-49.5q24 0 35 2v33q0 155 83.5 292.5t231.5 209.5q-25 58-81 114-142-126-344-126h-33q-44-197-213-341z"/></svg>