<svg viewBox="0 0 2842 2842" xmlns="http://www.w3.org/2000/svg"><path d="M202 1537q0-184 115.5-328.5T609 1023q50-219 225-359t401-140q221 0 393.5 137t224.5 351h35q144 0 266 69.5t193 190.5 71 265q0 184-113 329 103 88 241 93l70 6q19 0 19 20v82q1 162-78 299t-215.5 216.5T2044 2662q-123 0-233.5-47T1621 2488t-125.5-190-46.5-231H714q-214-10-363-163t-149-367zm182 0q0 139 96.5 241T714 1887h1194q137-7 233.5-109t96.5-241q0-140-104-243t-246-103h-173q-18 0-18-18l-8-62q-18-173-149-289.5T1235 705q-176 0-305.5 116.5T784 1111l-8 62q0 18-21 18h-56q-134 16-224.5 114.5T384 1537zm1219 530q0 127 64 231.5t164.5 160.5 212.5 56q99 0 194.5-48t169-145.5T2499 2098q-172-35-290-139-135 104-301 108h-305z"/></svg>