<svg viewBox="0 0 2681 2681" xmlns="http://www.w3.org/2000/svg"><path d="M191.5 1779v-2q0-185 115.5-330t292.5-186q49-219 224.5-359.5T1226.5 761q159 0 290 70 80-85 188-133.5t223-48.5q152 0 281.5 75.5t205 205 75.5 281.5q0 197-122 351 46 98 46 215 0 141-68 261.5t-185.5 193-258.5 76.5q-21 0-21-18v-143q0-19 21-19 137-7 232.5-109.5t95.5-241.5q0-142-103-244t-246-102h-172q-19 0-19-19l-8-63q-18-173-149.5-290.5T1226.5 941q-176 0-305.5 117.5T774.5 1349l-8 63q-5 15-24 15l-54 4q-135 16-225 113.5t-90 232.5v4q2 2 3 2 1 136 96 237 45 47 98 71v2q60 31 132 36 18 0 18 18v143q0 18-18 18-78-4-153-31-121-40-209.5-131.5T214.5 1932q-23-75-23-153zm587 765q0-5 2-14t2-13l10-62q11-38 44-57t72-9q36 11 54 44t7 67l-15 64q-16 70-81 70-5 0-15.5-1.5t-13.5-1.5q-33-10-49.5-35t-16.5-52zm79-315q0-38 25-63t63-25 63 25 25 63q0 37-25 62t-63 25q-37 0-61-26-27-25-27-61zm175 638q0-6 4-24l14-63q11-36 44-54t67-7q37 7 56 39t9 73l-14 62q-17 66-85 66-8 0-26-4-35-10-52-35.5t-17-52.5zm84-310q0-37 25-61.5t63-24.5 63 24.5 25 61.5q0 38-25 63t-63 25q-36 0-62-26t-26-62zm66-242q0-15 3-28l24-96q11-38 44-57t68-9q38 11 56.5 43t7.5 67l-28 96q-13 44-44 60t-68 6q-32-6-48.5-32t-14.5-50zm295 229q0-5 1.5-15t1.5-12l10-62q11-38 44-57t72-9q36 11 54.5 44t7.5 67l-15 64q-16 70-81 70-5 0-16-1.5t-14-1.5q-32-10-48.5-35t-16.5-52zm79-315q0-38 25-63t63-25 63 25 25 63q0 37-25 62t-63 25-62-26q-26-24-26-61zm110-1291q134 122 181 312h33q221 0 375 154 50-88 50-193 0-157-110.5-266.5T1927.5 835q-154 0-261 103z"/></svg>