<svg viewBox="0 0 2662 2662" xmlns="http://www.w3.org/2000/svg"><path d="M190.167 1753q0 143 70 264.5t191 192.5 264 71h1153q143 0 264.5-71t192.5-192.5 71-264.5q0-102-45-213 121-148 121-352 0-152-74-280.5t-202.5-203.5-280.5-75q-239 0-413 186-122-69-287-69-225 0-397.5 139t-221.5 357q-179 40-292.5 183t-113.5 328zm182 0q0-133 89-230t224-113l73-3 7-77q22-173 150-289.5t300-116.5q175 0 305 117t147 289l11 80h190q141 0 243 101.5t102 241.5q0 144-101.5 247t-243.5 103h-1153q-139 0-241-104t-102-246zm1283-836q110-106 260-106 158 0 268.5 109.5t110.5 267.5q0 99-55 196-153-153-371-153h-33q-44-178-180-314z"/></svg>