<svg viewBox="0 0 2716 2716" xmlns="http://www.w3.org/2000/svg"><path d="M194 1799q0 177 106 316.5T575 2306l-69 181q-7 22 15 22h226l-138 446h30l451-600q6-7 2-14.5t-15-7.5H845l264-495q11-23-14-23H779q-14 0-24 16l-114 307q-114-29-189.5-124.5T376 1799q0-133 90.5-231T691 1454l56-8q21 0 21-19l8-54q17-173 146.5-290T1227 966q174 0 305 117.5t149 289.5l8 61q0 20 18 20h173q145 0 248 101.5t103 243.5q0 136-96 236t-235 110q-20 0-20 20v145q0 19 20 19 213-7 361.5-161.5T2410 1799q0-139-70-261 122-118 161-280l20-73q1-1 1-7 0-13-16-17l-66-18q-92-27-156-89.5t-90.5-130T2168 789q0-44 11-91l12-65q4-16-15-25l-85-26q-75-15-132-15-59-1-120.5 12.5t-126.5 43-125.5 84T1481 835q-136-49-254-49-226 0-401 140.5T601 1285q-177 42-292 185.5T194 1799zm841 1089q0 27 17 52.5t52 35.5q14 3 26 3 69 0 85-65l14-63q10-41-9-73t-56-39q-34-11-67 7.5t-44 54.5l-14 63q-4 18-4 24zm84-310q0 36 26 62t62 26q38 0 63-25t25-63q0-37-25-62t-63-25-63 25-25 62zm66-242q-2 24 14.5 50t48.5 32q37 10 68-6t44-60l28-96q11-35-7.5-67t-56.5-43q-35-11-68 8.5t-44 56.5l-24 96q-3 13-3 29zm295 229q0 27 16 51.5t49 34.5q5 0 15 2t15 2q65 0 81-70l15-64q11-34-7.5-67t-54.5-44q-40-10-72.5 8.5T1493 2475l-10 63q0 2-1.5 12t-1.5 15zm79-315q0 37 26 61 24 26 62 26t63-25 25-62q0-38-25-63t-63-25-63 25-25 63zm75-1317q53-89 143-137.5t188-48.5h23v34q0 102 36 198t108.5 177 171.5 129q-27 60-81 110-146-125-343-125h-35q-45-201-211-337z"/></svg>