<svg viewBox="0 0 2707 2707" xmlns="http://www.w3.org/2000/svg"><path d="M193.333 1793q0 213 148.5 366t362.5 163q18 0 18-18v-146q0-19-18-19-139-11-234-110.5t-95-235.5q0-134 90.5-233.5t223.5-110.5l56-8q21 0 21-18l8-55q17-173 146-289.5t304-116.5q174 0 304 116t148 290l8 62q0 19 19 19h172q145 0 247.5 101t102.5 243q0 136-95 235.5t-234 110.5q-21 0-21 19v146q0 18 21 18 213-7 360.5-161t147.5-368q0-143-73-264 128-116 165-275l16-77q1-1 1-7 0-12-17-17l-62-18q-91-26-155-88t-91-131.5-27-140.5q0-39 10-84l15-66q5-15-15-24l-84-26q-70-17-133-17-58 0-119 14t-127 43.5-128 85-107 130.5q-113-48-249-48-226 0-400.5 139.5t-224.5 357.5q-176 42-291 185.5t-115 327.5zm818 496q-8 23 15 23h230l-140 442h32l445-596q6-7 3-14.5t-14-7.5h-235l246-449q11-23-15-23h-314q-13 0-23 15zm619-1360q53-91 141.5-139t183.5-48q20 0 29 2v33q0 154 83 291t231 209q-25 59-80 114-147-126-343-126h-34q-45-200-211-336z"/></svg>