<svg viewBox="0 0 2389 2389" xmlns="http://www.w3.org/2000/svg"><path d="M317.167 1813q0-126 72.5-223t193.5-135q51-174 212-266v-37q0-233 147.5-410.5t373.5-219.5q57-10 115-10h3q33 0 75 5 41 3 78 12l97 30q21 11 17 28l-14 75q-12 51-12 103 0 56 17.5 114.5t53 115 97 103 141.5 70.5l76 22q18 4 18 19 0 6-1 8l-19 73q-9 39-23 78-24 70-75 146 0-1-1-1-70 101-175 168 22 54 22 132 0 158-110.5 269.5t-265.5 111.5h-731q-155 0-268.5-113t-113.5-268zm211 0q0 72 49.5 122.5t121.5 50.5h731q69 0 119.5-51t50.5-122q0-69-50.5-119.5t-119.5-50.5h-140q-17 0-27-24l-9-68q-11-92-79.5-154t-161.5-62q-91 0-157.5 62t-77.5 154l-11 59q0 24-20 24l-67 9q-66 6-109 54.5t-43 115.5zm472-683h13q148 0 265.5 83.5t164.5 223.5q124 0 217 77 111-69 163-187-166-84-259.5-240t-93.5-332v-36q-5 0-13-.5t-13-.5q-98 0-189 42t-154 120l-3-2q-87 108-98 252z"/></svg>