<svg viewBox="0 0 2718 2718" xmlns="http://www.w3.org/2000/svg"><path d="M194.167 1799q0 178 106 317.5t275 190.5l-70 180q-4 22 16 22h226l-104 374h31l417-527q6-8 1.5-15.5t-15.5-7.5h-232l264-494q11-23-14-23h-316q-14 0-24 15l-114 307q-115-29-190-124.5t-75-214.5q0-133 90.5-231.5t224.5-114.5l56-8q21 0 21-18l8-55q17-173 146.5-290t304.5-117q173 0 304.5 117.5t150.5 289.5l7 63q0 18 19 18h173q145 0 248 101.5t103 244.5q0 136-96 236t-235 111q-20 0-20 18v147q0 19 20 19 140-5 257.5-77t185-192.5 67.5-261.5q0-139-70-261 127-121 166-280l15-77q2-2 2-8 0-11-17-16l-60-19q-91-26-156-87.5t-92.5-131.5-27.5-141q0-42 9-85l15-65q7-16-15-25-34-14-96.5-28t-122.5-14q-58 0-119 14t-126.5 43.5-127.5 85-107 130.5q-132-48-254-48-226 0-401 140t-225 358q-177 42-292 186t-115 329zm864 1048q0 26 15.5 49.5t47.5 32.5q17 3 32 3 65 0 81-67l247-938q10-38-7.5-69.5t-53.5-41.5q-37-11-69.5 6.5t-42.5 52.5l-247 943q-3 14-3 29zm445-322q0 26 15.5 49t49.5 33q5 0 16.5 1.5t17.5 1.5q61 0 77-67l160-616q10-39-8-70t-54-41q-37-11-69 6t-42 53l-160 621q-3 16-3 29zm132-1593q53-91 141.5-139t187.5-48q20 0 29 1v34q0 154 83.5 291t231.5 210q-29 67-84 114-147-126-343-126h-34q-45-199-212-337z"/></svg>