<svg viewBox="0 0 2580 2580" xmlns="http://www.w3.org/2000/svg"><path d="M184.25 1684q0-184 115-327.5t291-184.5q50-218 225-358t400-140q220 0 392.5 136.5t224.5 350.5h34q143 0 265 69.5t193 190 71 263.5q0 140-67.5 260.5t-184.5 192.5-256 76q-21 0-21-18v-142q0-19 21-19 136-7 232.5-109t96.5-241-104-241.5-246-102.5h-172q-19 0-19-18l-8-62q-18-173-148.5-289.5T1215.25 854q-175 0-304.5 116.5T765.25 1260l-8 57q0 20-21 20l-56 3q-133 16-223.5 114t-90.5 230q0 139 96 241t233 109q18 0 18 19v142q0 18-18 18-214-10-362.5-163t-148.5-366zm571 713q0-7 4-21l174-615q10-31 34.5-47t49.5-16q11 0 26 3 38 7 57.5 39t8.5 71l-174 611q-20 68-88 68-6 0-12-2-9-3-11-3-35-10-52-35.5t-17-52.5zm280 300l260-936q7-31 32-47t52-16q14 0 29 3 35 10 52 41.5t7 68.5l-259 937q-6 27-31 46t-54 19q-15 0-27-5-32-8-55-42-18-28-6-69zm440-297q0-6 4-24l174-615q9-31 32.5-47t49.5-16q13 0 28 3 33 9 49.5 33t16.5 50q0 5-2 14.5t-2 12.5l-174 611q-6 31-30 49.5t-54 18.5l-26-5q-32-9-49-34.5t-17-50.5z"/></svg>