<svg viewBox="0 0 2389 2389" xmlns="http://www.w3.org/2000/svg"><path d="M286.667 1048q0-150 94.5-268.5t239.5-150.5q41-180 184.5-295t328.5-115q180 0 322 112.5t184 286.5h29q180 0 307 125.5t127 304.5q0 96-39.5 181.5t-109.5 146.5v3q0 95-59.5 169.5t-149.5 94.5q-23 100-97 169t-174 85q46 55 46 121 0 77-54.5 132t-131.5 55-131.5-55-54.5-132q0-31 11-61h-11q-93 0-160-67t-67-160q0-64 32-114-83-46-120-133h-136v-1q-172-11-291-136t-119-298zm149-26q0 128 90 218t217 90q79 0 146-36 19 119 111 198t216 79q139 0 237-98 66 76 164 76 91 0 155.5-64.5t64.5-155.5q64-43 101-110.5t37-146.5q0-127-91-215.5t-219-88.5q-89 0-163 47 9-39 9-84 0-154-110-262t-266-108q-150 0-259 104t-114 253q-3 0-9-.5t-10-.5q-126 0-216.5 89.5t-90.5 215.5z"/></svg>