<svg viewBox="0 0 2396 2396" xmlns="http://www.w3.org/2000/svg"><path d="M171.167 1449q104-5 176-80.5t72-179.5q0 104 72 179.5t176 80.5q-104 5-176 80.5t-72 179.5q0-104-72-179.5t-176-80.5zm248-768q202-10 342.5-156.5t140.5-349.5q0 203 141 349.5t343 156.5q-133 6-244 75.5t-175.5 184-64.5 248.5q0-204-140.5-351t-342.5-157zm354 1149q152-7 258-117.5t106-263.5q0 153 105.5 263.5t257.5 117.5q-152 7-257.5 117.5t-105.5 263.5q0-153-106-263.5t-258-117.5zm727-506q152-7 257-117t105-264q0 153 106 263.5t258 117.5q-152 7-258 117t-106 263q0-153-105-263t-257-117z"/></svg>