<svg viewBox="0 0 3016 3016" xmlns="http://www.w3.org/2000/svg"><path d="M215.417 1904q0-44 32-72 28-28 73-28h246q43 0 71 28.5t28 71.5q0 45-28.5 75.5t-70.5 30.5h-246q-43 0-74-31.5t-31-74.5zm351-838q0-45 27-72 32-32 75-32 46 0 72 32l173 174q74 70 0 144-30 30-69 30-35 0-72-30l-179-174q-27-29-27-72zm210 1416q0-42 32-74 29-29 72-29h343q17 0 30 8l251 237 255-237q11-8 31-8h352q43 0 73.5 30t30.5 73-30.5 73.5-73.5 30.5h-286l-335 303q-20 14-35 0l-329-303h-277q-43 0-73.5-30.5t-30.5-73.5zm100-578q0 159 62 280 9 17 29 17h199q13 0 16-8t-8-19q-95-119-95-270 0-176 126-299.5t304-123.5q176 0 301.5 124t125.5 299q0 151-95 270-11 11-8 19t16 8h201q21 0 26-17 66-125 66-280 0-127-50.5-244.5t-135.5-202.5-202-135.5-245-50.5-245 50.5-202 135.5-135.5 202.5-50.5 244.5zm529-940V716q0-43 30.5-73.5t73.5-30.5 73.5 30.5 30.5 73.5v248q0 43-30.5 73.5t-73.5 30.5-73.5-30.5-30.5-73.5zm669 276q0-45 28-72l174-174q26-32 72-32 44 0 73 30.5t29 73.5q0 45-27 72l-177 174q-37 30-74 30-42 0-70-29.5t-28-72.5zm276 664q0-43 28-71.5t71-28.5h247q43 0 73.5 29t30.5 71q0 43-30.5 74.5t-73.5 31.5h-247q-42 0-70.5-30.5t-28.5-75.5z"/></svg>