<svg viewBox="0 0 2389 2389" xmlns="http://www.w3.org/2000/svg"><path d="M652.167 1803q0-136 63-253.5t176-196.5V295q0-128 88-217t216-89q129 0 217.5 89t88.5 217v1058q113 79 175 196.5t62 253.5q0 148-72.5 273t-197.5 197.5-273 72.5q-147 0-272-72.5t-198-197.5-73-273zm187 0q0 149 104.5 254.5t251.5 105.5q149 0 256.5-107t107.5-253q0-100-51.5-184.5t-140.5-131.5l-30-15q-16-7-16-31V295q0-52-36-86t-90-34q-52 0-88.5 34t-36.5 86v1146q0 24-15 31l-29 15q-88 47-137.5 131t-49.5 185zm83 0q0 114 78 194t188 80 191-80.5 81-193.5q0-101-69.5-178t-168.5-91V751q0-10-10.5-20.5t-23.5-10.5q-14 0-22.5 9t-8.5 22v783q-98 14-166.5 91t-68.5 178z"/></svg>