<svg viewBox="0 0 2389 2389" xmlns="http://www.w3.org/2000/svg"><path d="M170.667 1281q0-209 103.5-386.5t280.5-280.5 385-103q156 0 298 61t245 164 164 245.5 61 299.5q0 156-61 298.5t-164 245-245 163-298 60.5q-157 0-299.5-61t-245.5-164-163.5-244.5-60.5-297.5zm169 0q0 243 177 422 177 177 423 177 162 0 300-80.5t219-218.5 81-300-81-300.5-219-219-300-80.5-300 80.5-219 219-81 300.5zm270 142.5q6-22.5 26-34.5l245-143V826q0-24 16.5-40.5t40.5-16.5 40.5 16.5 16.5 40.5v455q0 19-11.5 34t-28.5 20l-262 152q-12 8-28 8-33 0-49-29-12-20-6-42.5z"/></svg>