<svg viewBox="0 0 2512 2512" xmlns="http://www.w3.org/2000/svg"><path d="M188.417 1262q0 28 18 43 19 18 45 18h1109q28 0 49 20t21 49-21 50-49 21q-29 0-50-22-20-17-43-17-26 0-43.5 17t-17.5 42q0 26 18 44 57 57 136 57t134.5-56 55.5-136q0-79-55.5-135.5t-134.5-56.5h-1109q-26 0-44.5 18.5t-18.5 43.5zm0-216q0 27 18 42 19 17 45 17h1473q79 0 135-56t56-135-56-134.5-135-55.5q-78 0-135 54-17 20-17 45 0 26 17 42.5t43 16.5q24 0 44-17 19-19 48-19 28 0 49 19.5t21 48.5-21 50-49 21h-1473q-26 0-44.5 18t-18.5 43zm1386 874q0 117 91.5 177.5t246.5 60.5q95 0 168-19t114-47 66.5-66.5 33.5-70.5 8-65q0-66-38-113.5t-100-60.5l2-3v1q72-10 119-63.5t47-126.5q0-61-28-104.5t-76-65.5-98-31.5-108-9.5q-76 0-137 15t-99 39.5-63 57-35 64.5-10 66q0 55 29 96t80 57v3q-90 10-151.5 65.5t-61.5 143.5zm226-24q0-56 45-82t108-26q65 0 94.5 29.5t29.5 63.5v14q0 45-40.5 68t-103.5 23l3-1q-22 0-43-3t-43.5-12-36-28-13.5-46zm81-328q0-51 39.5-74t95.5-23q48 0 81.5 21.5t33.5 67.5q0 12-5 25t-18 28.5-42 25.5-70 10q-64 0-89.5-24.5t-25.5-56.5z"/></svg>