<svg viewBox="0 0 2489 2489" xmlns="http://www.w3.org/2000/svg"><path d="M186.75 1242q0 28 18 43 19 18 45 18h1109q28 0 49 20t21 49-21 50-49 21q-29 0-50-22-20-17-43-17-26 0-43.5 17t-17.5 42q0 26 18 44 57 57 136 57t134.5-56 55.5-136q0-79-55.5-135.5t-134.5-56.5h-1109q-26 0-44.5 18.5t-18.5 43.5zm0-216q0 27 18 42 19 17 45 17h1473q79 0 135-56t56-135-56-134.5-135-55.5q-78 0-135 54-17 20-17 45 0 26 17 42.5t43 16.5q24 0 44-17 19-19 48-19 28 0 49 19.5t21 48.5-21 50-49 21h-1473q-26 0-44.5 18t-18.5 43zm1397 884q3 63 30 109t71.5 71 95.5 36.5 111 11.5q91 0 165.5-34t120.5-86.5 77.5-120.5 44-131.5 12.5-122.5q0-169-86.5-259.5t-231.5-90.5q-149 0-252 91t-103 239q0 106 67.5 173t173.5 67q57 0 111.5-23t76.5-58h3q-19 76-62 130t-113 54q-46 0-63-11-20-17-26-45h-223zm274-307q0-50 31-86.5t92-36.5q54 0 82.5 27.5t28.5 81.5q0 15-6 33t-19 38-39 33-60 13-57.5-12-34-30.5-14.5-33.5-4-27z"/></svg>