<svg xmlns="http://www.w3.org/2000/svg" viewBox="0 0 16 16"><path d="M8.5 4h-5a.5.5 0 0 1 0-1h5a.5.5 0 0 1 0 1zm-4 5h-1a.5.5 0 0 0 0 1h1a.5.5 0 0 0 0-1zm2.031 4.5a.5.5 0 0 1-.5.5H1.438A.44.44 0 0 1 1 13.562V.438C1 .197 1.197 0 1.487 0h9.537L14 3v1.532a.5.5 0 1 1-1-.001V4h-2.976V1H2v12H6.031a.5.5 0 0 1 .5.5zM11 3h2l-2-2v2zM4.5 7h-1a.5.5 0 0 0 0 1h1a.5.5 0 0 0 0-1zm1.25-1.5a.5.5 0 0 0-.5-.5H3.5a.5.5 0 0 0 0 1h1.75a.5.5 0 0 0 .5-.5zm9.629 9.354a.594.594 0 0 1-.838-.058l-2.174-2.493a4.096 4.096 0 1 1 1.823-3.405c0 .99-.366 1.887-.952 2.595l2.2 2.522a.595.595 0 0 1-.059.839zm-5.284-2.978c1.642 0 2.978-1.336 2.978-2.978S11.737 5.92 10.095 5.92c-1.643 0-2.978 1.336-2.978 2.978s1.335 2.978 2.978 2.978z"/></svg>