<svg xmlns="http://www.w3.org/2000/svg" viewBox="0 0 16 16"><path d="M13.562 8.95c-.276 0-.527.224-.527.5 0 2.303-3.034 4.2-5.034 4.466V9h2.476a.504.504 0 0 0 .514-.503c0-.283-.229-.473-.514-.497H8V5.95c1-.229 2.034-1.238 2.034-2.45 0-1.381-1.105-2.5-2.486-2.5S5.021 2.119 5.021 3.5C5.021 4.712 6 5.721 7 5.95V8H4.647c-.283.024-.513.214-.513.497 0 .285.23.503.513.503H7v4.916c-2-.266-4.973-2.163-4.973-4.466 0-.276-.207-.5-.483-.5s-.492.224-.492.5c0 3.19 3.887 5.5 6.504 5.5 2.618 0 6.502-2.31 6.502-5.5a.496.496 0 0 0-.496-.5zm-7.5-5.45c0-.827.673-1.5 1.5-1.5s1.5.673 1.5 1.5S8.389 5 7.562 5s-1.5-.673-1.5-1.5z"/></svg>