<svg xmlns="http://www.w3.org/2000/svg" viewBox="0 0 16 16"><path d="M13.474 10.948c-.609 0-1.169.216-1.606.575l.003-.008s-.82.841-2.129.548l-3.925-1.051c-.807-.292-1.157-.871-1.285-1.16a2.32 2.32 0 0 0-.418-.785h.003S3.4 8.239 3.678 7.05l.609-2.277c.23-.695.745-.971 1.006-1.104.369-.137.684-.386.902-.706a1.847 1.847 0 0 1 1.345-.647h3.541c.578.047.916.419 1.021.555l.02.029s.438.59.253 1.274l-.383 1.432-.012.037c-.153.57-.485.849-.673.965a1.47 1.47 0 0 0-.646.445l-.008.008a1.42 1.42 0 0 0-.143.208c-.28.301-.723.309-.754.309h-.061a1.019 1.019 0 0 1-.698-.353l-.032-.041a.807.807 0 0 1-.148-.592l.038-.139a.814.814 0 0 1 .36-.416 1.053 1.053 0 1 0-1.275-.442c.135.392.088.69.088.69l-.001.004-.028.107c-.045.11-.158.279-.443.422A1.262 1.262 0 1 0 9 8.773c.364-.342.718-.352.718-.352h.126c.165.013.464.08.708.379a1.474 1.474 0 1 0 2.382-1.73c-.105-.223-.277-.676-.164-1.102a.458.458 0 0 0 .015-.064l.389-1.453c.205-.613.749-.91.922-.991a1.683 1.683 0 0 0-.622-3.25c-.521 0-.989.239-1.299.612l.001-.007s-.458.658-1.327.658h-3.15c-.87-.001-1.323-.427-1.489-.629a1.895 1.895 0 1 0-3.058 2.235c.322.46.438 1.05.286 1.605l-.008.037-.565 2.108c-.355 1.256-1.39 1.534-1.39 1.534l.009.003a2.317 2.317 0 1 0 2.383 3.878 2.415 2.415 0 0 1 1.99-.342c.064.018.126.03.185.042l3.484.934c1.024.317 1.467 1.208 1.567 1.442A2.527 2.527 0 0 0 16 13.474a2.525 2.525 0 0 0-2.526-2.526z"/></svg>