<svg xmlns="http://www.w3.org/2000/svg" viewBox="0 0 16 16"><path d="M14.854 1.209C13.898.223 10.772.016 8.316.016h-.108c-.08-.002-.421-.014-.912-.014-1.853 0-4.316.142-5.521.809C.01 1.788-.046 6.112.014 7.957c-.06 1.874-.003 6.256 1.761 7.235 1.203.665 3.666.807 5.518.807.492 0 .835-.011.916-.014h.109c2.455 0 5.581-.207 6.537-1.193 1.079-1.111 1.16-5.113 1.145-6.791.015-1.679-.066-5.679-1.146-6.792zm-.595 13.015a1.472 1.472 0 0 1-.466.295V9.013a.551.551 0 0 0-.551-.553H12.14a.553.553 0 0 0-.553.553v5.983c-.307.035-.616.062-.918.085V12.32a.55.55 0 0 0-.552-.551H9.015a.55.55 0 0 0-.553.551v2.846h-.267s-.256.008-.652.01v-4.234a.551.551 0 0 0-.552-.551H5.888a.551.551 0 0 0-.552.551v4.175c-.306-.021-.615-.05-.919-.085V8.184a.55.55 0 0 0-.55-.55H2.763a.551.551 0 0 0-.552.55v6.305l-.032-.014C.656 13.631.837 8.134.843 7.956a24.654 24.654 0 0 1 .13-3.278c.364-.128 1.938-.582 4.11.306 1.367.557 3.038 1.727 3.634 3.344l.479 1.3.313-1.35c.446-1.939 1.388-2.723 2.078-3.042v.987c0 .105.037.194.113.269a.375.375 0 0 0 .537 0l1.448-1.446a.379.379 0 0 0 0-.538L12.236 3.06a.364.364 0 0 0-.266-.113.371.371 0 0 0-.27.112.372.372 0 0 0-.114.269l.001 1.017c-.771.257-1.898.937-2.579 2.729-.876-1.363-2.361-2.347-3.612-2.856-1.983-.809-3.523-.629-4.289-.442.194-1.038.521-1.945 1.072-2.25C3.292.908 5.909.823 7.296.823c.544 0 .899.013.899.013h.122c.784 0 5.07.042 5.942.942.962.993.914 6.222.914 6.222s.048 5.23-.914 6.224z"/></svg>