<svg xmlns="http://www.w3.org/2000/svg" viewBox="0 0 16 16"><path d="M8 1a7 7 0 1 0 .001 13.999A7 7 0 0 0 8 1zm0 13.012A6.012 6.012 0 1 1 8 1.988a6.012 6.012 0 0 1 0 12.024zm4-6.007c0 .283-.23.513-.514.513l-5.734-.005 2.401 2.401a.514.514 0 0 1-.725.726L4.15 8.363l-.004-.008a.515.515 0 0 1-.106-.159.515.515 0 0 1-.033-.164C4.007 8.021 4 8.012 4 8c0-.008.005-.014.005-.021a.524.524 0 0 1 .035-.175.49.49 0 0 1 .09-.135c.008-.01.011-.022.021-.032L7.428 4.36a.514.514 0 0 1 .726.726l-2.401 2.4h5.734c.283 0 .513.236.513.519z"/></svg>