<svg xmlns="http://www.w3.org/2000/svg" viewBox="0 0 16 16"><path d="M7.223 2.561l4.949 4.95-5.656 5.656-4.95-4.949 5.657-5.657m-.707-.707L.858 7.511a.997.997 0 0 0 0 1.414l4.95 4.949a.997.997 0 0 0 1.414 0l5.656-5.656a.999.999 0 0 0 0-1.414L7.93 1.854a.999.999 0 0 0-1.414 0zM.858 8.925l4.95 4.949a.997.997 0 0 0 1.414 0l5.656-5.656a.993.993 0 0 0 .293-.707H.858a.999.999 0 0 0 0 1.414zm1.414-7.779a.5.5 0 0 0 0 .707L6.869 6.45a.5.5 0 0 0 .707-.707L2.979 1.146a.5.5 0 0 0-.707 0zm11.317 7.062s-1.839 2.839-2 4c-.275 1.981 1 2.214 2 2.214s2.195-.223 2-2.214c-.105-1.067-2-4-2-4z"/></svg>