<svg xmlns="http://www.w3.org/2000/svg" viewBox="0 0 16 16"><path d="M12.1 5c.2.4.5.6.8.6h.9c.6 0 1-.6 1-1.2V1.8c0-.7-.4-1.2-1-1.2H13c-.6 0-1 .6-1 1.2v.3c-.7.3-1.2 1.2-2 2.6-.4.6-.8 1.5-1.2 2-.1-.4-.5-.7-.8-.7H7c-.5 0-.9.5-1 1.1-.3-.3-.7-.8-1-1.1-.4-.5-.8-.9-1.1-1.2V3.7c0-.7-.4-1.2-1-1.2H2c-.6 0-1 .5-1 1.2v2.5c0 .7.4 1.2 1 1.2h.9c.5 0 1-.5 1-1.2.1.2.2.3.4.5.5.5.9 1.1 1.4 1.4-.5.4-1 .9-1.4 1.4-.2.1-.3.3-.5.4-.1-.6-.5-1-1-1H2c-.6 0-1 .6-1 1.2v2.5c0 .7.4 1.2 1 1.2h.9c.6 0 1-.6 1-1.2v-1.4c.3-.2.7-.6 1.1-1 .3-.3.7-.8 1-1.1v.7c0 .6.5 1.2 1 1.2h1c.6 0 1-.6 1-1.2v-.2c.3.5.7 1.1 1 1.5.7 1.2 1.3 2.1 2 2.4v.3c0 .7.4 1.2 1 1.2h.9c.6 0 1-.6 1-1.2v-2.5c0-.7-.4-1.2-1-1.2H13c-.4 0-.7.3-.9.7-.1-.2-.3-.5-.4-.7-.5-.8-.9-1.5-1.4-2 .5-.6.9-1.4 1.4-2.3.1-.3.3-.5.4-.8zm.9-3.2c0-.1 0-.2.1-.2h.8s.1.1.1.2v2.5c0 .1 0 .2-.1.2H13s-.1-.1-.1-.2V1.8zM2.9 6.2c0 .1 0 .2-.1.2H2V3.7v-.2h.8s.1.1.1.2v2.5zm0 6.5c0 .1 0 .2-.1.2H2s-.1-.1-.1-.2v-2.5c.1-.1.1-.2.1-.3h.8s.1.1.1.2v2.6zM8 9.8c0 .1 0 .2-.1.2h-.8S7 9.9 7 9.8V7.2c0-.1.1-.2.1-.2h.8s.1.1.1.2v2.6zm5 1.5c0-.1 0-.2.1-.2h.8s.1.1.1.2v2.5c0 .1 0 .2-.1.2H13s-.1-.1-.1-.2v-2.5z"/></svg>