<svg xmlns="http://www.w3.org/2000/svg" viewBox="0 0 16 16"><path d="M2 8h7v1H2V8zm0 3h5v-1H2v1zm1-4H2V2h3v5H3zm0-3h1V3H3v1zm0 2h1V5H3v1zm3-4h3v5H6V2zm2 3H7v1h1V5zM7 3v1h1V3H7zm4 3h-1v1h1V6zm1 5V9h-1v2h-1v1h1v1h1v-1h1v-1h-1zM2 13h3v-1H2v1zm9-12V0h-1v1h1zm2 0V0h-1v1h1zm0 14v-1h-1v1h1zM9 1V0H8v1h1zM7 1V0H6v1h1zM5 1V0H4v1h1zM3 1V0H2v1h1zm8 14v-1h-1v1h1zm-2 0v-1H8v1h1zm-2 0v-1H6v1h1zm-2 0v-1H4v1h1zm-2 0v-1H2v1h1zM1 7V6H0v1h1zm0-6V0H0v1h1zm0 14v-1H0v1h1zM1 3V2H0v1h1zm0 2V4H0v1h1zm0 4V8H0v1h1zm0 2v-1H0v1h1zm0 2v-1H0v1h1zm14 0v-1h-1v1h1zm0-6V6h-1v1h1zm0 8v-1h-1v1h1zm0-12V2h-1v1h1zm0-2V0h-1v1h1zm0 4V4h-1v1h1zm0 4V8h-1v1h1zm0 2v-1h-1v1h1zm-2-9h-1v5h1V2z"/></svg>