<svg xmlns="http://www.w3.org/2000/svg" viewBox="0 0 16 16"><g><path d="M13.8 6.3l-2.3-.7.9-3.5c0-.1 0-.3-.1-.4-.1-.1-.2-.2-.3-.2L9.8.9h-.4c-.1.2-.2.3-.2.4l-1 3.4L5.6 4h-.4c-.1 0-.2.3-.2.4l-1.4 5C3.3 10.7 2 12 2 12c-.1.1-.2.3-.1.5 0 .2.2.3.4.4l8.2 2.2h.1c.1 0 .3-.1.4-.2.1-.1 1.3-1.4 1.8-2.8.5-1.3 1.4-5.1 1.4-5.2 0-.3-.2-.5-.4-.6zm-2 5.4c-.4.9-1.1 1.8-1.4 2.3l-1.1-.3c.5-.6 1.1-1.5 1.4-2.5.1-.3-.1-.5-.4-.6-.3-.1-.5.1-.6.4-.3 1.1-1.2 2.1-1.5 2.4l-.9-.2c.5-.6 1.1-1.5 1.3-2.4.1-.3-.1-.5-.4-.6-.3-.1-.5.1-.6.4-.3 1-1.1 2-1.4 2.4l-1-.3c.5-.6 1.1-1.5 1.4-2.4.1-.3-.1-.5-.4-.6-.2-.2-.5 0-.5.2-.3 1-1.1 2-1.5 2.4l-.9-.3c.5-.6 1.1-1.5 1.3-2.4L5.8 5l2.6.7h.4c.1 0 .2-.1.3-.2L10 2l1.3.3-.9 3.5c-.1.3.1.5.3.6l2.3.7c-.2 1.1-.8 3.7-1.2 4.6z"/><path d="M5.7 7.4c0 .3.1.5.4.6l5.3 1.5h.1c.2 0 .4-.1.5-.4.1-.3-.1-.5-.3-.6L6.4 7c-.3 0-.6.1-.7.4z"/></g></svg>