<svg xmlns="http://www.w3.org/2000/svg" viewBox="0 0 24 24"><path d="M17.482 22.85a.5.5 0 0 1-.5-.5v-2.644a.5.5 0 0 1 .142-.349c.024-.025 2.412-2.524 3.16-6.782.182-1.037.38-1.895.539-2.584.493-2.137.471-2.39-.241-2.71a.423.423 0 0 0-.35.001c-.609.242-1.286 1.424-1.57 2.112l-.224.722a.5.5 0 0 1-.978-.157c.001-.031.044-3.067 0-4.212l-.009-.298c-.034-1.324-.143-2.138-1.361-2.291-.711-.086-1.174.557-1.322.802v5.456a.5.5 0 0 1-1 0V3.85c-.123-.243-.589-1-1.618-1-1.017 0-1.359.654-1.438.846v5.681a.5.5 0 0 1-1 0V7.83c-.037-.216-.587-1.22-1.075-2.006-.197-.362-.829-1.271-1.572-1.45-.342-.084-.677-.006-1.028.235-1.014.695.135 2.872.626 3.802.086.164.158.3.205.4.235.5.523.997.803 1.477.492.846.88 1.514.88 2.034 0 .182 0 .607-.381.769-.418.17-.677-.08-1.449-.837l-.503-.49c-1.166-1.124-2.395-1.03-2.895-.706-.201.13.007 1.151.788 2.455.094.156.204.371.334.629.525 1.037 1.404 2.771 3.212 4.271.557.463 1.497 1.547 1.497 2.677v1.261a.5.5 0 0 1-1 0V21.09c0-.701-.696-1.542-1.135-1.908-1.967-1.63-2.905-3.48-3.465-4.587-.118-.232-.215-.426-.3-.566-.534-.892-1.649-3.047-.474-3.808.974-.634 2.707-.55 4.133.825l.094.092c-.067-.118-.135-.234-.2-.346a20.735 20.735 0 0 1-.844-1.554 9.722 9.722 0 0 0-.185-.36c-.615-1.166-2.055-3.896-.307-5.094.592-.406 1.21-.533 1.833-.382 1.331.325 2.164 1.857 2.198 1.922.069.11.139.226.21.343V3.611c0-.046.006-.093.019-.137.162-.562.873-1.624 2.419-1.624 1.114 0 1.802.566 2.185 1.047.397-.415 1.029-.84 1.881-.73 2.158.27 2.207 2.14 2.236 3.256l.009.287c.018.459.021 1.195.02 1.927.361-.536.834-1.066 1.382-1.284.38-.151.77-.146 1.13.016 1.534.69 1.26 1.878.806 3.847a45.55 45.55 0 0 0-.529 2.532c-.704 4.012-2.726 6.521-3.286 7.153v2.448a.503.503 0 0 1-.502.501z"/></svg>