<svg xmlns="http://www.w3.org/2000/svg" viewBox="0 0 16 16"><path d="M12.915 7.344c-.514 0-1.006.192-1.406.555v-1.64a1.77 1.77 0 0 0-1.76-1.767v-.007l-1.631.001c.348-.381.547-.881.547-1.406A2.088 2.088 0 0 0 6.579.995 2.088 2.088 0 0 0 4.495 3.08c0 .514.191 1.004.555 1.406H2.738v.009C1.777 4.511 1 5.295 1 6.259h.005l.005 1.82c-.059.435.093.948.565 1.116.199.072.588.117.951-.395a1.086 1.086 0 0 1 1.971.626c0 .6-.487 1.086-1.086 1.086-.354 0-.688-.176-.896-.475-.348-.504-.756-.422-.914-.363-.466.168-.611.684-.596 1.053v2.506H1A1.77 1.77 0 0 0 2.769 15h6.973a1.77 1.77 0 0 0 1.768-1.768v-2.266c.381.348.881.547 1.406.547a2.088 2.088 0 0 0 2.085-2.086 2.09 2.09 0 0 0-2.086-2.083zm0 3.17c-.355 0-.688-.176-.896-.475-.348-.506-.757-.424-.915-.365-.466.168-.61.684-.595 1.053v2.506a.768.768 0 0 1-.768.768H2.769A.77.77 0 0 1 2 13.232h.005v-2.266a2.085 2.085 0 0 0 3.492-1.539 2.088 2.088 0 0 0-2.086-2.084 2.08 2.08 0 0 0-1.406.555v-1.64H2a.77.77 0 0 1 .769-.768v-.005l2.46-.005c.059.008.119.013.18.013.389 0 .793-.169.938-.579.071-.199.116-.587-.396-.949a1.086 1.086 0 1 1 1.714-.885c0 .355-.176.688-.477.898-.501.346-.421.753-.363.913.168.467.673.613 1.053.595h1.863v.006c.424 0 .768.345.768.768l.004 1.82c-.059.435.094.949.566 1.117.199.072.588.117.95-.395a1.084 1.084 0 1 1 .886 1.712z"/></svg>