<svg xmlns="http://www.w3.org/2000/svg" viewBox="0 0 16 16"><path d="M12.184 13.557a7.164 7.164 0 0 1-3.027 1.34l-.016.002A6.522 6.522 0 0 1 7.998 15C4.142 15 1.016 11.831 1 7.97c.015-3.512 2.617-6.405 5.998-6.891v3.062a3.99 3.99 0 0 0-3 3.858 4 4 0 0 0 4 4c.754 0 1.45-.221 2.052-.583l2.134 2.141zm1.16-10.072L11.205 5.63c.492.665.793 1.479.793 2.37a3.97 3.97 0 0 1-1.048 2.679l2.125 2.132A6.975 6.975 0 0 0 14.998 8a6.971 6.971 0 0 0-1.654-4.515zm-.749-.756A6.966 6.966 0 0 0 7.998 1v3a3.96 3.96 0 0 1 2.463.87l2.134-2.141z"/></svg>