<svg xmlns="http://www.w3.org/2000/svg" viewBox="0 0 24 24"><path d="M12 2.559c-1.489 0-2.914.291-4.273.871-1.357.58-2.529 1.361-3.512 2.343-.982.982-1.763 2.154-2.343 3.512A10.767 10.767 0 0 0 1 13.559c0 1.523.295 2.963.884 4.322a10.996 10.996 0 0 0 2.456 3.561h15.32a11.007 11.007 0 0 0 2.456-3.561c.59-1.36.884-2.799.884-4.322 0-1.489-.291-2.914-.871-4.274-.58-1.357-1.36-2.529-2.344-3.512-.981-.982-2.152-1.763-3.513-2.343A10.763 10.763 0 0 0 12 2.559zm6.999 17.311H5.002c-1.621-1.786-2.432-3.889-2.432-6.312a9.25 9.25 0 0 1 1.265-4.727 9.355 9.355 0 0 1 3.438-3.438C8.722 4.552 10.298 4.13 12 4.13s3.278.422 4.727 1.263c1.448.844 2.595 1.989 3.438 3.438s1.265 3.025 1.265 4.727c-.001 2.423-.812 4.526-2.431 6.312zM5.371 13.117l-1.988-.367.197-1.105 1.988.368-.197 1.104zm13.063-1.105l1.988-.369.196 1.104-1.989.37-.195-1.105zM7.287 8.845L5.985 7.297l.86-.711 1.299 1.547-.857.712zm9.428 0l-.86-.712 1.302-1.547.859.711-1.301 1.548zm-5.278-3.93h1.129v2.014h-1.129V4.915zm.612 8.693L8.661 9.827l1.89 4.617c-.327.589-.317 1.17.026 1.743.244.393.596.643 1.055.749.457.105.883.032 1.276-.221a1.68 1.68 0 0 0 .749-1.057 1.603 1.603 0 0 0-.208-1.265c-.328-.506-.794-.768-1.4-.785z"/></svg>