<svg xmlns="http://www.w3.org/2000/svg" viewBox="0 0 16 16"><path d="M14.84 5.658l-2.154-3.469a.397.397 0 0 0-.216-.157.402.402 0 0 0-.107-.028c-.007 0-.011-.004-.017-.004H3.673c-.006 0-.012.004-.019.005a.373.373 0 0 0-.148.038c-.01.005-.022.006-.032.012-.002.002-.005.001-.008.003a.387.387 0 0 0-.123.122c-.003.003-.007.004-.009.008L1.161 5.656c-.004.007-.001.014-.005.02a.395.395 0 0 0-.056.193c0 .007.004.014.004.021 0 .013.005.023.007.036.011.07.038.134.081.188.004.006.003.013.008.019l6.538 7.415a.4.4 0 0 0 .3.136h.001a.401.401 0 0 0 .301-.138l6.462-7.415a.399.399 0 0 0 .038-.473zM3.668 3.161L5.07 5.469H2.223l1.445-2.308zm6.023 3.108l-1.688 5.646-1.688-5.646h3.376zm-3.144-.8l1.456-2.512 1.456 2.512H6.547zM8.837 2.8h2.785l-1.426 2.346L8.837 2.8zM5.81 5.146L4.384 2.8h2.785L5.81 5.146zm-.33 1.123l1.587 5.31-4.682-5.31H5.48zm5.046 0h3.095L8.91 11.674l1.616-5.405zm.411-.8l1.406-2.315 1.438 2.315h-2.844z"/></svg>