<svg xmlns="http://www.w3.org/2000/svg" viewBox="0 0 16 16"><path d="M15 8c0-.957-.193-1.869-.541-2.699v-.026h-.009a7.004 7.004 0 0 0-6.369-4.271L8.073 1l-.006.003C8.044 1.003 8.022 1 8 1a7 7 0 0 0 0 14l.066-.003.007.003.008-.004A6.998 6.998 0 0 0 15 8zm-6.926 6.035c-.487-.404-1.361-1.4-1.762-3.526h3.52c-.401 2.131-1.275 3.126-1.758 3.526zM6.201 9.704a13.599 13.599 0 0 1 .043-3.623H9.9a13.45 13.45 0 0 1 .045 3.623H6.201zM1.805 8c0-.67.11-1.314.308-1.919h3.306c-.078.59-.124 1.243-.124 1.967 0 .604.037 1.148.093 1.656H2.049A6.145 6.145 0 0 1 1.805 8zM8.07 1.985c.463.412 1.262 1.387 1.687 3.29H6.383c.421-1.909 1.216-2.877 1.687-3.29zm2.657 4.096h3.16c.197.605.307 1.249.307 1.919 0 .592-.088 1.162-.244 1.704h-3.192c.056-.508.093-1.052.093-1.656 0-.724-.046-1.377-.124-1.967zm2.828-.806h-2.962c-.339-1.662-.951-2.716-1.489-3.365a6.21 6.21 0 0 1 4.451 3.365zM7.063 1.884c-.542.646-1.167 1.707-1.51 3.391H2.445a6.199 6.199 0 0 1 4.618-3.391zM2.34 10.509h3.162c.32 1.808.961 2.933 1.526 3.602a6.209 6.209 0 0 1-4.688-3.602zm6.801 3.576c.56-.672 1.187-1.793 1.503-3.576h3.015a6.212 6.212 0 0 1-4.518 3.576z"/></svg>