<svg xmlns="http://www.w3.org/2000/svg" viewBox="0 0 16 16"><path d="M14 14.5a.5.5 0 0 1-.5.5h-11a.5.5 0 0 1 0-1h11a.5.5 0 0 1 .5.5zM7.486 1.514v8.734l-2.4-2.401a.514.514 0 0 0-.726.726l3.276 3.277c.01.01.022.013.032.021a.49.49 0 0 0 .135.09.53.53 0 0 0 .175.035c.008-.001.014.004.022.004.012 0 .021-.007.032-.007a.548.548 0 0 0 .164-.032.52.52 0 0 0 .159-.106l.008-.005 3.276-3.277a.51.51 0 0 0 0-.725.514.514 0 0 0-.726 0l-2.401 2.401.005-8.734C8.518 1.23 8.288 1 8.005 1s-.519.23-.519.514z"/></svg>