<svg xmlns="http://www.w3.org/2000/svg" viewBox="0 0 16 16"><path d="M13.9 7.279l-2.332-2.187A.329.329 0 0 0 11.334 5a.319.319 0 0 0-.234.093.282.282 0 0 0-.1.219V7H8V4h1.688a.289.289 0 0 0 .22-.1.335.335 0 0 0 .092-.234.338.338 0 0 0-.093-.234L7.72 1.1a.292.292 0 0 0-.441 0L5.093 3.432A.325.325 0 0 0 5 3.666c0 .091.029.169.093.234.061.068.134.1.219.1H7v3H4V5.312a.284.284 0 0 0-.1-.22A.322.322 0 0 0 3.666 5a.325.325 0 0 0-.234.093L1.1 7.279a.293.293 0 0 0 0 .441l2.332 2.188a.342.342 0 0 0 .468-.001.287.287 0 0 0 .1-.219V8h3v3H5.312a.284.284 0 0 0-.22.1.322.322 0 0 0-.092.234c0 .089.029.167.093.234L7.279 13.9a.293.293 0 0 0 .441 0l2.188-2.332a.342.342 0 0 0-.001-.468.287.287 0 0 0-.219-.1H8V8h3v1.688c0 .084.032.157.1.22.065.06.143.092.234.092a.338.338 0 0 0 .234-.093L13.9 7.72a.292.292 0 0 0 0-.441z"/></svg>