<svg xmlns="http://www.w3.org/2000/svg" viewBox="0 0 16 16"><path d="M14.803 5.709c0 .012-.006.02-.006.032a.544.544 0 0 1-.033.163.516.516 0 0 1-.106.158l-.005.004-3.777 3.77c-.1.101-.23.136-.362.136s-.264-.077-.364-.178a.582.582 0 0 1 0-.782L13.051 6H4.396C4.064 6 2 6.91 2 9.431V12s.074.611-.493.611C.986 12.611 1 12 1 12V9.431c0-2.822 2.115-4.168 3.182-4.395.035-.008.119-.036.156-.036h8.713l-2.9-2.802c-.201-.2-.201-.427 0-.626a.511.511 0 0 1 .725 0l3.777 3.775c.01.01.014.022.021.032a.564.564 0 0 1 .09.136.58.58 0 0 1 .035.174c0 .007.004.013.004.02zM14 11v3H2c-1 0-1 1 0 1h12a1 1 0 0 0 1-1v-3c0-1-1-1-1 0z"/></svg>