<svg xmlns="http://www.w3.org/2000/svg" viewBox="0 0 16 16"><path d="M14.811 3.294a1.84 1.84 0 0 0-1.838-1.84H3.03c-1.015 0-1.84.825-1.84 1.84 0 .446.166.868.457 1.203.018.025.028.054.051.077l4.079 4.078v4.279a.517.517 0 0 0 1.034 0V8.438a.516.516 0 0 0-.151-.365L2.465 3.88c-.008-.009-.01-.021-.019-.029a.808.808 0 0 1 .584-1.364h9.943a.807.807 0 0 1 .584 1.361c-.004.004-.006.009-.008.013L9.205 8.204a.512.512 0 0 0-.15.365v5.461a.515.515 0 1 0 1.032 0V8.783l4.215-4.214c.006-.006.008-.015.014-.021.317-.341.495-.786.495-1.254z"/></svg>