<svg xmlns="http://www.w3.org/2000/svg" viewBox="0 0 16 16"><path d="M6.532 14.845c-.761-.451-1.306-1.244-1.337-2.177-.045-1.743 1.166-2.598 1.883-3.766 1.026-1.68.746-2.722.746-2.722s.856.482 1.354 2.271a4.14 4.14 0 0 1 .14 1.557c-.077 1.26-.622 2.395-.622 2.395s.949-.202 1.213-1.929c.437.451.841 1.104.887 1.789.078 1.183-.621 2.271-1.68 2.737 1.833-.42 3.143-1.975 3.594-3.111.575-1.43.42-2.706.326-3.811-.124-1.508.404-2.629.404-2.629s-1.011.296-1.758 1.524c-.342.561-.482 1.384-.482 1.384s.078-.73-.405-2.068c-.481-1.307-.918-1.773-1.183-2.737-.341-1.292.42-2.552.42-2.552s-3.016.561-4.386 3.189c-1.213 2.333-.715 3.734-.715 3.734s-.514-.483-.778-1.152-.205-1.275-.205-1.275-2.144 2.364-1.101 5.336c.7 2.084 2.052 3.453 3.685 4.013z"/></svg>