<svg xmlns="http://www.w3.org/2000/svg" viewBox="0 0 16 16"><path d="M14.912 12.41h-.544L11.79 6.122s-.074-.104-.229-.121c-.155-.016-.395.081-.395.081l-2.75 6.328h-.114c-.231 0-.302.1-.302.315 0 .213.124.275.355.275H9.96c.229 0 .419-.064.419-.275 0-.215-.189-.314-.419-.314h-.414l.579-1.364h2.986l.588 1.364h-.663c-.231 0-.42.1-.42.314s.188.275.42.275h1.876c.232 0 .419-.062.419-.275 0-.215-.186-.315-.419-.315zm-4.518-1.953L11.665 7.6l1.208 2.857h-2.479zm-6.315 1.615h-.65l.908-2.142h3.952l.952-2.162-2.284-5.576s-.119-.164-.361-.189c-.243-.025-.622.126-.622.126l-4.321 9.943h-.177c-.365 0-.476.157-.476.494 0 .336.196.434.559.434H4.08c.364 0 .659-.1.659-.434-.001-.337-.296-.494-.66-.494zm2.68-7.558l1.897 4.49H4.76l1.999-4.49z"/></svg>