<svg xmlns="http://www.w3.org/2000/svg" viewBox="0 0 16 16"><path d="M13.896 11.756c-.028.098-.154.166-.321.256a.598.598 0 0 1-.45.055.564.564 0 0 1-.289-.213l-1.504-1.99-1.825 1.98c-.218.236-.465.271-.747.104-.116-.068-.328-.32-.353-.434-.024-.113.021-.232.137-.359l2.018-2.196-1.47-1.945c-.061-.089-.067-.193-.019-.311.046-.118.155-.188.271-.257a.728.728 0 0 1 .433-.088c.114.007.217.072.312.192l1.222 1.593 1.479-1.611c.128-.142.273-.192.413-.232.139-.04.414.104.564.188.154.083.234.179.244.287.009.108-.033.214-.129.319l-1.807 1.96 1.783 2.445c.056.073.07.161.038.257zM9.252 2.009c-.627-.071-1.94-.165-2.736.35-.798.517-1.256 1.405-1.478 2.461l-.313 1.492H2.478c-.261 0-.469.075-.491.543.022.255.23.457.491.457H4.51l-1.339 6.542s-.343 1.067.407 1.114c.655.041.785-1.025.785-1.025l1.35-6.631h1.715a.5.5 0 0 0 0-1H5.926l.297-1.462c.635-2.33 1.819-1.764 2.913-1.764.179 0 .854.047.901-.415.06-.578-.521-.632-.785-.662zM1.978 6.928c0-.03.007-.045.009-.072-.002-.015-.009-.028-.009-.044v.116z"/></svg>