<svg xmlns="http://www.w3.org/2000/svg" viewBox="0 0 16 16"><path d="M12.2 2.021l-.566-.565a1.552 1.552 0 0 0-2.198-.001L2.263 8.626c-.213.215-1.013 3.231-1.065 3.302L1 12.721l.792-.199c.069-.052 3.086-.853 3.3-1.066l7.173-7.173c.301-.302.454-.702.453-1.099.002-.395-.216-.862-.518-1.163zm-7.803 8.741c.012.063-2.348.907-2.354.901.007.006.853-2.353.915-2.344l5.455-5.454 1.439 1.44-5.455 5.457zm7.172-7.173l-1.021 1.022-1.439-1.44 1.021-1.022a.577.577 0 0 1 .407-.168.58.58 0 0 1 .403.168l.565.566c.112.114.232.321.232.469a.559.559 0 0 1-.168.405zM8.55 12a.5.5 0 0 1-.5-.5v.115c0-.547.223-.615.5-.615h5.95a.5.5 0 0 1 0 1H8.55z"/></svg>