<svg xmlns="http://www.w3.org/2000/svg" viewBox="0 0 16 16"><path d="M12.718 3.184c.002-.395-.216-.861-.518-1.163l-.566-.565a1.552 1.552 0 0 0-2.198-.001L2.263 8.626c-.213.215-1.013 3.231-1.065 3.302L1 12.721l.792-.199c.069-.052 3.086-.853 3.3-1.066l7.173-7.173c.3-.303.454-.703.453-1.099zm-8.321 7.578c.012.063-2.348.907-2.354.901.007.006.853-2.353.915-2.344l5.455-5.454 1.439 1.44-5.455 5.457zm7.172-7.173l-1.021 1.022-1.439-1.44 1.021-1.022a.577.577 0 0 1 .407-.168.58.58 0 0 1 .403.168l.565.566c.112.114.232.321.232.469a.559.559 0 0 1-.168.405zM15 11.5a.5.5 0 0 1-.5.5H12v2.5c0 .276-.199.5-.475.5-.277 0-.525-.224-.525-.5V12H8.55a.495.495 0 0 1-.491-.457c.022-.468.23-.543.491-.543H11V8.5c0-.276.248-.5.525-.5.276 0 .475.224.475.5V11h2.5a.5.5 0 0 1 .5.5zm-6.95 0c0 .016.007.028.009.043-.002.027-.009.042-.009.072V11.5z"/></svg>