<svg xmlns="http://www.w3.org/2000/svg" viewBox="0 0 24 24"><path d="M12 22.5C6.211 22.5 1.5 17.789 1.5 12 1.5 6.21 6.211 1.5 12 1.5S22.5 6.21 22.5 12a.5.5 0 0 1-1 0c0-5.238-4.262-9.5-9.5-9.5S2.5 6.762 2.5 12s4.262 9.5 9.5 9.5c3.902 0 7.467-2.446 8.868-6.087a.5.5 0 0 1 .933.359C20.253 19.797 16.314 22.5 12 22.5zm.438-8.622c0-1.129.738-1.77 1.854-2.741l.099-.085c.909-.791 1.239-2.157.803-3.325-.437-1.168-1.547-1.865-2.97-1.865-2.795 0-3.582 2.061-3.608 3.151a.498.498 0 0 0 .485.51.507.507 0 0 0 .515-.483c.007-.223.147-2.178 2.608-2.178 1.373 0 1.863.762 2.033 1.216.289.772.068 1.705-.522 2.219l-.098.085c-1.181 1.025-2.199 1.911-2.199 3.496a.5.5 0 0 0 1 0zm-.459 1.76a1 1 0 1 0 0 2 1 1 0 1 0 0-2z"/></svg>