<svg xmlns="http://www.w3.org/2000/svg" viewBox="0 0 16 16"><path d="M8 1a7 7 0 1 0 .001 13.999A7 7 0 0 0 8 1zm0 13.012A6.012 6.012 0 1 1 8 1.988a6.012 6.012 0 0 1 0 12.024zM6.076 5.151c.416-.442.987-.664 1.712-.664.671 0 1.209.189 1.612.568.404.378.605.862.605 1.451 0 .356-.072.646-.219.868-.146.223-.447.549-.9.979-.329.315-.544.58-.644.797-.1.217-.149.338-.149.763h-.899c0-.481.057-.671.172-.965.114-.295.369-.632.763-1.012l.413-.398c.124-.114.224-.234.3-.358a1.301 1.301 0 0 0-.092-1.54c-.2-.244-.533-.366-.997-.366-.574 0-.971.209-1.191.626-.124.233-.194.568-.211 1.005h-.899c0-.726.208-1.311.624-1.754zM7.146 11h1v.995h-1V11z"/></svg>