<svg xmlns="http://www.w3.org/2000/svg" viewBox="0 0 16 16"><path d="M15 6h-2V1H1v1h5v1H4.312a.298.298 0 0 0-.22.093.3.3 0 0 0-.092.219c0 .083.03.157.093.22L6.28 5.907c.062.062.136.093.22.093s.157-.031.22-.093l2.188-2.375c.061-.062.092-.136.092-.22s-.031-.157-.093-.22A.3.3 0 0 0 8.688 3H7V2h5v4H1v4h11v4l-5 .007V13h1.688c.084 0 .158-.03.22-.093.062-.062.092-.136.092-.219s-.03-.157-.093-.22L6.72 10.093C6.658 10.031 6.584 10 6.5 10s-.157.031-.22.093l-2.188 2.375c-.061.062-.092.136-.092.22s.031.157.093.22a.3.3 0 0 0 .219.092H6v1.009l-5 .007V15h12v-5h2V6z"/></svg>