<svg xmlns="http://www.w3.org/2000/svg" viewBox="0 0 16 16"><path d="M12 9.268v-.444c0-2.23-1.229-3.796-3-3.895v-.018H8V1.896c0-.237-.264-.429-.5-.429s-.5.192-.5.429v3.015h-.5v.019c-1.771.099-3 1.664-3 3.895v.444A2.635 2.635 0 0 0 1 11.893a2.645 2.645 0 0 0 2.64 2.641 2.645 2.645 0 0 0 2.641-2.641 2.632 2.632 0 0 0-1.78-2.482v-.587c0-1.45.672-2.913 2.172-2.913h2.156c1.5 0 2.172 1.463 2.172 2.913v.586a2.632 2.632 0 0 0-1.78 2.482 2.645 2.645 0 0 0 2.641 2.641 2.645 2.645 0 0 0 2.64-2.641A2.64 2.64 0 0 0 12 9.268zm-6.72 2.625c0 .904-.736 1.641-1.641 1.641S2 12.797 2 11.893a1.64 1.64 0 0 1 3.28 0zm6.58 1.64a1.641 1.641 0 1 1 0 0z"/></svg>