<svg xmlns="http://www.w3.org/2000/svg" viewBox="0 0 16 16"><path d="M13.5 5h-11C1.673 5 1 4.327 1 3.5v-1C1 1.673 1.673 1 2.5 1h11c.827 0 1.5.673 1.5 1.5v1c0 .827-.673 1.5-1.5 1.5zm-11-3c-.275 0-.5.225-.5.5v1c0 .275.225.5.5.5h11c.275 0 .5-.225.5-.5v-1c0-.275-.225-.5-.5-.5h-11zm1 .5a.5.5 0 1 0 0 1 .5.5 0 0 0 0-1zm2 0a.5.5 0 1 0 0 1 .5.5 0 0 0 0-1zM13 3a.5.5 0 0 0-.5-.5h-2a.5.5 0 0 0 0 1h2A.5.5 0 0 0 13 3zm.5 7h-11C1.673 10 1 9.327 1 8.5v-1C1 6.673 1.673 6 2.5 6h11c.827 0 1.5.673 1.5 1.5v1c0 .827-.673 1.5-1.5 1.5zm-11-3c-.275 0-.5.225-.5.5v1c0 .275.225.5.5.5h11c.275 0 .5-.225.5-.5v-1c0-.275-.225-.5-.5-.5h-11zm1 .5a.5.5 0 1 0 0 1 .5.5 0 0 0 0-1zm2 0a.5.5 0 1 0 0 1 .5.5 0 0 0 0-1zM13 8a.5.5 0 0 0-.5-.5h-2a.5.5 0 0 0 0 1h2A.5.5 0 0 0 13 8zm.5 7h-11c-.827 0-1.5-.673-1.5-1.5v-1c0-.827.673-1.5 1.5-1.5h11c.827 0 1.5.673 1.5 1.5v1c0 .827-.673 1.5-1.5 1.5zm-11-3c-.275 0-.5.225-.5.5v1c0 .275.225.5.5.5h11c.275 0 .5-.225.5-.5v-1c0-.275-.225-.5-.5-.5h-11zm1 .5a.5.5 0 1 0 0 1 .5.5 0 0 0 0-1zm2 0a.5.5 0 1 0 0 1 .5.5 0 0 0 0-1zm7.5.5a.5.5 0 0 0-.5-.5h-2a.5.5 0 0 0 0 1h2a.5.5 0 0 0 .5-.5z"/></svg>