<svg xmlns="http://www.w3.org/2000/svg" viewBox="0 0 16 16"><path d="M1 1.5a.5.5 0 0 1 .5-.5h13a.5.5 0 0 1 0 1h-13a.5.5 0 0 1-.5-.5zm0 12a.5.5 0 0 0 .5.5h13a.5.5 0 0 0 0-1h-13a.5.5 0 0 0-.5.5zm4-9a.5.5 0 0 0 .5.5h9a.5.5 0 0 0 0-1h-9a.5.5 0 0 0-.5.5zm0 3a.5.5 0 0 0 .5.5h9a.5.5 0 0 0 0-1h-9a.5.5 0 0 0-.5.5zm0 3a.5.5 0 0 0 .5.5h9a.5.5 0 0 0 0-1h-9a.5.5 0 0 0-.5.5zm-3.432-.542L3.9 7.625a.323.323 0 0 0 0-.469L1.568 4.822a.32.32 0 0 0-.236-.097.32.32 0 0 0-.234.098.319.319 0 0 0-.098.234v4.668c0 .09.032.168.098.233a.324.324 0 0 0 .47 0z"/></svg>