<svg xmlns="http://www.w3.org/2000/svg" viewBox="0 0 24 24"><path fill="#289DE9" fill-rule="evenodd" d="M8.5 19.5c-3.859 0-7-3.141-7-7 0-3.86 3.141-7 7-7s7 3.14 7 7c0 3.859-3.141 7-7 7z" clip-rule="evenodd"/><path fill="#666" d="M8.5 6a6.5 6.5 0 1 1 0 13 6.5 6.5 0 0 1 0-13m0-1C4.364 5 1 8.364 1 12.5S4.364 20 8.5 20s7.5-3.364 7.5-7.5S12.636 5 8.5 5z"/><g><path fill="#666" d="M15.5 6a6.5 6.5 0 1 1 0 13 6.5 6.5 0 0 1 0-13m0-1C11.364 5 8 8.364 8 12.5s3.364 7.5 7.5 7.5 7.5-3.364 7.5-7.5S19.636 5 15.5 5z"/></g></svg>