<svg xmlns="http://www.w3.org/2000/svg" viewBox="0 0 16 16"><path d="M4.849 10.206a.514.514 0 0 1 0 .727c-.1.1-.23.059-.362.059s-.263-.051-.362-.15L2.15 8.905a.02.02 0 0 1-.004-.008c-.045-.044-.082-.149-.107-.208-.021-.053-.029-.009-.033-.064 0-.012-.006-.021-.006-.032 0-.008.004-.014.004-.021a.411.411 0 0 1 .035-.146.514.514 0 0 1 .09-.135c.008-.011.012-.024.021-.033l1.974-2.146c.2-.201.525-.109.725.092.201.2.201.525 0 .726L3.282 8.578l1.567 1.628zM15 6H6v5h9V6zM5 2H1V1h5v4H1v-.984L5 4V2m0 11H1v-1h5v4H1v-.984L5 15v-2"/></svg>