<svg xmlns="http://www.w3.org/2000/svg" viewBox="0 0 16 16"><path d="M6.663 4.021c.4-.085.817-.143 1.265-.143 3.188 0 5.503 2.672 6.344 3.565.246.261.323.986-.039 1.412-.289.34-.721.867-1.321 1.399l-1.974-1.969c.007-.085.025-.167.025-.254a2.952 2.952 0 0 0-2.952-2.952c-.089 0-.174.019-.261.026L6.663 4.021zm1.694 6.927c-.115.014-.228.035-.346.035A2.953 2.953 0 0 1 5.058 8.03c0-.116.021-.226.034-.339L3.244 5.849c-.596.526-1.083 1.057-1.458 1.451-.338.355-.344 1.076-.074 1.369 1.237 1.341 3.168 3.468 6.216 3.468a7.8 7.8 0 0 0 1.475-.147l-1.046-1.042zm4.519 1.902a.5.5 0 0 0 0-.707L3.684 2.951a.5.5 0 0 0-.707.707l9.192 9.192a.5.5 0 0 0 .707 0z"/></svg>