<svg xmlns="http://www.w3.org/2000/svg" viewBox="0 0 38 38"><path d="M37 19h-7.025c-.256-5.39-4.584-9.719-9.975-9.975V2a.5.5 0 0 0-1 0v7.025C13.609 9.281 9.281 13.61 9.025 19H2a.5.5 0 0 0 0 1h7.025c.256 5.39 4.584 9.719 9.975 9.975V37a.5.5 0 0 0 1 0v-7.025c5.391-.256 9.719-4.585 9.975-9.975H37a.5.5 0 0 0 0-1zm-8.025 0H23.95a4.475 4.475 0 0 0-3.949-3.949v-5.025c4.838.253 8.72 4.135 8.974 8.974zM19 19h-2.949A3.485 3.485 0 0 1 19 16.051V19zm0 1v2.949A3.484 3.484 0 0 1 16.051 20H19zm1 0h2.949A3.485 3.485 0 0 1 20 22.949V20zm0-1v-2.949A3.484 3.484 0 0 1 22.949 19H20zm-1-8.975v5.025a4.476 4.476 0 0 0-3.949 3.949h-5.025c.253-4.838 4.135-8.72 8.974-8.974zM10.025 20h5.025a4.475 4.475 0 0 0 3.949 3.949v5.025c-4.838-.253-8.72-4.135-8.974-8.974zM20 28.975V23.95a4.476 4.476 0 0 0 3.949-3.949h5.025c-.253 4.838-4.135 8.72-8.974 8.974z"/></svg>