<svg xmlns="http://www.w3.org/2000/svg" viewBox="0 0 24 24"><path fill="#666" d="M8.5 6a6.5 6.5 0 1 1 0 13 6.5 6.5 0 0 1 0-13m0-1C4.364 5 1 8.364 1 12.5S4.364 20 8.5 20s7.5-3.364 7.5-7.5S12.636 5 8.5 5z"/><path fill="#666" d="M15.5 6a6.5 6.5 0 1 1 0 13 6.5 6.5 0 0 1 0-13m0-1C11.364 5 8 8.364 8 12.5s3.364 7.5 7.5 7.5 7.5-3.364 7.5-7.5S19.636 5 15.5 5z"/><path fill="#289DE9" fill-rule="evenodd" d="M9 12.5a6.49 6.49 0 0 0 3 5.471 6.488 6.488 0 0 0 0-10.943A6.49 6.49 0 0 0 9 12.5z" clip-rule="evenodd"/></svg>