<svg xmlns="http://www.w3.org/2000/svg" viewBox="0 0 16 16"><path d="M8.477 7.491c0-.275.224-.501.5-.501s.5.226.5.501a.5.5 0 0 1-1 0zm4.926 6.81c-.549.65-1.439.72-1.796.72-.087 0-.143-.004-.152-.005l-2.844.001v.001H4.503c-.002 0-.048.004-.126.004-.33 0-1.229-.066-1.782-.722-.824-.977-.355-2.094-.335-2.141l3.267-6.863V3.891a1.529 1.529 0 0 1-.676-.373c-.186-.183-.407-.512-.407-1.043 0-.419.14-.78.405-1.044.439-.438 1.059-.452 1.14-.452h4.023c.637.034 1.544.46 1.544 1.496 0 .798-.522 1.226-1.043 1.395l.003 1.428 3.217 6.848c.027.06.496 1.178-.33 2.155zm-9.052-4.207c.506.223 1.561.51 3.137.018 1.721-.538 3.126-.536 3.997-.445L9.516 5.41l-.005-2.441.487-.013c.165-.007.558-.07.558-.481 0-.422-.44-.487-.576-.497l-1.673.001H5.988c-.201.003-.544.073-.544.496 0 .223.081.303.108.329.132.13.379.157.428.152l.509-.009.039.509-.049 2.168-2.128 4.47zm8.47 2.462l-.834-1.803c-.481-.104-2.074-.353-4.201.313a6.52 6.52 0 0 1-1.945.314c-.867 0-1.508-.202-1.919-.386l-.75 1.577c0 .003-.23.586.189 1.083.29.343.896.373 1.104.364l2.923-.001v-.001h4.108c.25.02.854-.02 1.144-.362.422-.5.184-1.092.181-1.098z"/></svg>