<svg xmlns="http://www.w3.org/2000/svg" viewBox="0 0 16 16"><path d="M1.5 7.5a.5.5 0 0 1-.337-.869l3.875-3.999a.518.518 0 0 1 .441-.12c.158.033.29.141.354.289l.505 1.154 2.119-2.729A.504.504 0 0 1 8.888 1a.503.503 0 0 1 .419.248l1.318 2.26 1.318-2.26A.502.502 0 0 1 12.361 1a.508.508 0 0 1 .432.226l2.125 4a.5.5 0 1 1-.836.548L12.4 2.449l-1.344 2.303c-.18.307-.684.307-.863 0L8.85 2.449 6.668 5.275a.5.5 0 0 1-.876-.074l-.595-1.36-3.36 3.528A.494.494 0 0 1 1.5 7.5zm10.377 6.329l3-4c.182-.208.16-.523-.048-.705s-.524-.163-.706.047l-2.566 3.505-2.264-3.45A.529.529 0 0 0 8.862 9a.503.503 0 0 0-.419.248l-1.295 2.22L4.943 7.77a.5.5 0 0 0-.384-.264.475.475 0 0 0-.435.167l-3 3.498a.499.499 0 1 0 .753.658l2.52-2.949 2.286 3.853a.5.5 0 0 0 .432.268c.2.016.352-.091.443-.248L8.9 10.449l2.182 3.325a.501.501 0 0 0 .383.225L11.5 14a.502.502 0 0 0 .377-.171z"/></svg>