<svg xmlns="http://www.w3.org/2000/svg" viewBox="0 0 16 16"><path d="M14 4.521c0 .276-.224.45-.5.45h-9c-.276 0-.5-.174-.5-.45a.5.5 0 0 1 .5-.5h9a.5.5 0 0 1 .5.5zm0 4a.5.5 0 0 0-.5-.5h-9a.5.5 0 0 0-.5.5c0 .276.224.45.5.45h9c.276 0 .5-.174.5-.45zm0 4a.5.5 0 0 0-.5-.5h-9a.5.5 0 0 0-.5.5c0 .276.224.45.5.45h9c.276 0 .5-.174.5-.45zM2.483 2.83h-.226c-.062.124-.165.251-.313.383s-.319.243-.515.336v.34c.109-.04.232-.101.37-.182s.248-.161.333-.242v2.24h.352V2.83zm-.985 6.632c.039-.063.089-.127.148-.19s.195-.184.406-.36c.253-.214.434-.382.542-.504s.187-.239.233-.35.07-.224.07-.338c0-.226-.08-.414-.24-.566s-.377-.229-.651-.229c-.272 0-.489.07-.65.212s-.255.346-.28.616l.362.037c0-.18.052-.32.154-.422s.237-.152.406-.152c.16 0 .29.048.39.144s.149.213.149.353c0 .133-.055.273-.164.423s-.319.35-.631.605c-.2.164-.354.309-.46.434s-.183.252-.231.381a.612.612 0 0 0-.041.244h1.893v-.338H1.498zm-.195 4.233a.904.904 0 0 0 .626.225c.278 0 .509-.087.691-.261s.273-.386.273-.636c0-.185-.047-.339-.141-.462s-.226-.204-.395-.243c.13-.06.229-.141.295-.242s.1-.214.1-.338a.71.71 0 0 0-.406-.643.938.938 0 0 0-.432-.101c-.227 0-.416.064-.568.194s-.25.312-.293.548l.352.062c.026-.172.085-.301.176-.387s.205-.129.342-.129c.138 0 .251.042.338.127s.131.191.131.32c0 .163-.06.283-.18.361a.726.726 0 0 1-.461.113l-.039.309c.099-.026.182-.039.248-.039a.54.54 0 0 1 .56.556c0 .169-.057.312-.171.426s-.254.172-.419.172c-.14 0-.258-.044-.354-.132s-.166-.229-.206-.429l-.352.047a.869.869 0 0 0 .285.582z"/></svg>