<svg xmlns="http://www.w3.org/2000/svg" viewBox="0 0 16 16"><path d="M1.879 12.893c-.021-.021-.027-.037-.046-.059-.011-.009-.025-.013-.036-.023l.082.082zM13.437 1.854a.5.5 0 0 0-.707-.707l-1.233 1.236C10.422 1.478 9.11 1 7.785 1a5.779 5.779 0 0 0-4.1 1.699c-2.148 2.146-2.234 5.543-.309 7.822l-1.579 1.582c-.184.185-.278.385.036.73a.496.496 0 0 0 .671-.023l1.544-1.548L7.784 15l4.1-4.102c2.144-2.143 2.233-5.531.319-7.809l1.234-1.235zM2.985 6.798c0-1.281.5-2.486 1.406-3.392A4.77 4.77 0 0 1 7.785 2a4.74 4.74 0 0 1 3.006 1.089L9.402 4.481A2.977 2.977 0 0 0 7.784 4c-1.654 0-3 1.346-3 3 0 .586.17 1.145.482 1.626L4.082 9.814a4.74 4.74 0 0 1-1.097-3.016zM9.784 7a1.998 1.998 0 0 1-3.128 1.649l2.776-2.782c.221.323.352.712.352 1.133zm-4 0a2 2 0 0 1 2-2c.32 0 .618.082.886.215L6.001 7.89A1.99 1.99 0 0 1 5.784 7zm6.799-.202a4.76 4.76 0 0 1-1.406 3.393l-3.393 3.395-3.029-3.031L5.95 9.357a2.968 2.968 0 0 0 3.956-.236 2.97 2.97 0 0 0 .231-3.96l1.361-1.365a4.741 4.741 0 0 1 1.085 3.002z"/></svg>