<svg xmlns="http://www.w3.org/2000/svg" viewBox="0 0 16 16"><path fill="#989898" d="M13.816 7.282s.041-.224.086-.224c.044 0-.24.071-.24.071l-.318-.098-.282.289s-.207.185-.254-.198l-.288-.059s-.405-.358.053-.379l.178-.133.033-.175.279-.241.23-.243.205.039s-.201.874.023.62.404-.402.484-.402.699-.91.699-.91l.068.081s.357.023.222-.168c-.136-.192-.009-.11.044-.11s.426-.327.337-.484c-.089-.156.145.086.145.086l.136-.139s-.213-.598-.188-.667c.023-.071.139-.167.139-.178 0-.013.302.273.298-.219-.003-.494.151-1.069.074-1.141s-.308.201-.308.201l-.136.018-.07.137-.314.144-.15-.121-.109-.255-.339-.088s-.181.002-.181-.009c0-.013-.134.059-.134.059l-.152-.195s-.631-.927-.703-.933c-.074-.006-.316.023-.417-.068-.101-.091-.34.06-.366.092-.027.032-.252.15-.316.136-.064-.014-.289.381-.029.292.26-.087.033.299-.03.341-.062.042-.153.419-.144.451.008.032.085.13-.09.257-.174.127-.375.129-.467.089-.091-.041-.223.63-.197.671.026.041.089.101.089.101s.089-.089.145-.054c.056.036.171-.038.206.021.036.058.016-.32.385-.062.369.257.375.331.053.334-.32.003-.012.037-.336.133l-.062.13-.053-.065s-.115.14-.143.14c-.026 0-.006.138-.006.138s-.197.178-.396.169-.078.364-.609.195l-.112.092s-.073.304.023.343c.098.038.009.178-.077.178s-.168.365-.305.36c-.135-.007-.641.132-.641.132l-.717.301s-.1-.007-.115-.064c-.015-.06-.472-.069-.52-.069-.048 0-.246-.329-.831-.183-.584.148-.824-.136-.836-.132-.011.002-.247-.526-.247-.526l-.512-.342s-.708-.023-.671-.234l.098-.177s-.009-.143 0-.168l.041-.113s-.383-.32-.667-.946l-.085-.05s-.128.03-.175.016c-.046-.013.02.116-.323.197-.344.081-.093.432-.093.432s.159.399-.658-.16c0 0-.146.453-.286.515-.14.062.051.168.051.168l-.635-.018s.144.131-.011.212l.008-.004v.199l.041.114s-.026.254-.22.371v.145l-.146.059-.031.07-.155-.03s-.341.163-.341.175-.331-.015-.331-.039c0-.023-.162.144-.162.144L.76 5.653l-.04-.094s-.166.013-.199-.024c-.034-.035-.046.093-.237.093h.009L.2 5.711v.079l-.129.142.014.249.115-.025.148.144s.084.492-.255.405c-.339-.085.362.354.362.354s.057.099-.078.19c-.135.089.328.271.328.271s.181.076.345.014.707.104.364.468l-.182.178h-.189l.022.097-.057.059.076.131.064.046.002.2h-.104l-.073.081-.126-.133s-.069.14.011.186c.079.043.006.237-.034.282-.039.043.616.65.616.65l.125-.064s.341.242.341.281.229.266.229.266l.128-.029s.106-.004.026.152c-.08.158.177.156.177.156l.366.305h.195s.306.203.514.088c.208-.115.252.023.146.17-.107.146.247-.094.254-.155.006-.061.232-.131.343.029.111.158.153.068.192.061.041-.006.143.008.186.09.045.082.335-.018.313-.094-.022-.074.208-.154.208-.154l.177.004s.193-.244.47-.117l.24-.118.093.078-.058.062.131.094s-.408.246.243.205c.652-.039.266.877.177 1.098-.088.221-.184.275-.184.275l.02.213.368-.033-.017.1s.026.275.173.275c.146 0 .086.209-.016.352 0 0 .227.043.239.109.014.066.218.207.322.102.104-.104.133.039.129.15-.004.113.17 0 .17 0l-.04-.293s-.078-.141.126-.121c.203.02.249-.121.249-.121l.108.061.11-.066.048.016.061-.025.075.066.055-.07.107.027.119-.047.041-.139s.157-.141.235.031c.077.174.414.078.414.078l-.072.117.278.316s.098-.113.262.01c.164.121.19-.016.19-.016v-.105l.266.143.202.002s-.131.35.113.387c.243.035.118-.109.118-.109s-.207-.156.014-.252c.223-.1.791-.338.791-.338l.193-.164-.045-.199.154.115s.788-.014.986-.516l.164-.162.143-.176-.041-.061.377-.436s.647-1.518.586-1.602c-.062-.08.2-.275-.529-.244-.728.028.338-.347.409-.347.07 0-.062-.32-.062-.32l-.426-.321-.266-.477s-.407-.177-.266-.371c.143-.193.44-.725.721-.721M10.393 14.809v.055s.121.047.133.09c.013.047.107-.047.184.016s.053-.102.124-.1.065-.121.133-.121c.069 0 .057-.344.196-.418.139-.072-.208-.195-.182-.111l-.162.039h-.178l-.059.076h-.064v.084s-.261.225-.118.4l-.007-.01zM14.634 11.246a.79.79 0 0 0-.275.342c-.051.117-.09.176-.118.191l.028.217V12l-.021.148c-.008.049 0 .08.012.088l.162.105h.004l.004.012a.28.28 0 0 0 .062.105.13.13 0 0 0 .051.043l.023-.258v-.008l.114-.275.04-.326v-.004l.004-.004.035-.086-.027-.076v-.004h-.004l-.008-.102.004-.004.004-.004.02-.023.012-.027-.126-.054z"/><circle cx="10" cy="5.162" r="2" fill="#262626" opacity=".5"/><circle cx="6.5" cy="10.662" r="1.5" fill="#020202"/><circle cx="9.5" cy="10.66" r=".5" fill="#262626" opacity=".8"/><circle cx="13.5" cy="11.66" r=".5" fill="#262626" opacity=".8"/><path fill="#262626" d="M13 9.166c0 .549-.447.994-1 .994s-1-.445-1-.994c0-.553.447-1.004 1-1.004s1 .451 1 1.004z" opacity=".8"/><circle cx="6" cy="7.162" r="1" fill="#262626" opacity=".8"/></svg>