<svg xmlns="http://www.w3.org/2000/svg" viewBox="0 0 16 16"><path d="M10 7h4c.6 0 1-.6 1-1.2V3.2c0-.6-.4-1.2-1-1.2h-4c-.3 0-.6.2-.8.5-.8.2-1.2 1.1-2 3 0 .2-.2.7-.4 1.1-.2-.4-.5-.6-.8-.6H2c-.6 0-1 .6-1 1.2v2.5c0 .7.4 1.3 1 1.3h4c.6 0 1-.6 1-1.2v-.2c.3.3.6.7.8 1 .5.6.8 1 1.2 1.3v.8c0 .7.4 1.2 1 1.2h4c.6 0 1-.6 1-1.2v-2.5c0-.6-.4-1.2-1-1.2h-4c-.6 0-1 .6-1 1.2v.3c-.1-.2-.3-.3-.4-.5-.3-.3-.6-.7-.8-1 .5-.6.9-1.6 1.3-2.7.2.4.5.7.9.7zM6 9.8c0 .1 0 .2-.1.2H2.1C2 10 2 9.9 2 9.8V7.2c0-.1 0-.2.1-.2H6V9.8zm4 .4c0-.1 0-.2.1-.2H14s.1.1.1.2v2.5c0 .1 0 .2-.1.2h-3.9s-.1-.1-.1-.2v-2.5zm.1-7.2H14v2.7c0 .2 0 .3-.1.3H10V3.3c0-.2 0-.3.1-.3z"/></svg>