<svg xmlns="http://www.w3.org/2000/svg" viewBox="0 0 16 16"><path fill="#215F8B" d="M13.585 2.173l-.026-.086-.071-.122-.06-.032-.059.032-.035.07-.004.008h-.012l-.11.021c-.013.008-.024.012-.032.023l-.022.027-.06.047-.016.008-.051.008a.28.28 0 0 1-.105-.059l-.005-.004c-.079-.079-.118-.134-.118-.166V1.839l.012-.02-.113-.039-.005.039c0 .012-.012.027-.031.039l-.039.016-.016-.004v-.004l-.061-.012.012.043-.103-.066h-.003l-.004-.004a.374.374 0 0 1-.023-.134c0-.039.004-.062.021-.079l.022-.043-.008-.035-.102.016c-.051.004-.086.035-.105.095v.004l-.06.091.06-.004h.004l.004-.004.004.008.047.02h.009l.008.004v.012l.009.082.022.078v.012l-.13.256c-.023.035-.035.13-.043.271v.012l-.053.098.035.039v.008c.006.06 0 .095-.016.103l-.012.004c-.027.017-.117.11-.264.287l-.01.012-.007-.007-.013-.008c-.051-.036-.099-.067-.125-.099-.023-.016-.082-.027-.182-.027l-.003.181-.004.004-.07.342a.831.831 0 0 0-.02.239l.027.036.023-.048h.004l.004-.008.092-.047.25.039.027-.031.035-.062.008-.004.005-.004.099-.02.129-.008c.039.008.087.059.146.137.156.079.243.15.263.213a.091.091 0 0 1 0 .082c-.012.027-.039.043-.078.047h-.004c-.191-.008-.304-.008-.342.004l-.095.063c-.117.087-.196.13-.239.13l-.078.012-.047.197c-.012.059-.031.099-.065.126a.26.26 0 0 1-.144.062.538.538 0 0 0-.195.074l-.066.142-.004.004h-.008l-.182.075h-.012l-.09-.02a.405.405 0 0 1-.162-.056.209.209 0 0 0-.152-.012.38.38 0 0 0-.066.239c.004.048.017.079.027.087l.027-.004.031-.02.008.126a.116.116 0 0 1-.047.098.377.377 0 0 1-.105.047l-.033.009c-.039.016-.121.122-.243.314v.004h-.005l-.117.071c.02 0 .031.008.027.023-.004.016-.017.02-.047.023l-.334-.006c-.373-.012-.664.091-.871.303l-.004.004-.008.003h-.004l-.139.016-.007.004h-.008l-.039-.095-.141.035a.578.578 0 0 1-.283-.07 1.15 1.15 0 0 1-.283-.173.49.49 0 0 0-.22-.095l-.126-.011-.141.02a1.207 1.207 0 0 1-.299.007 1.925 1.925 0 0 1-.417-.09l-.011.024h.008l.004.004v.004l.004.039.035.075.082.103.004.012-.015.073v.004h-.004l-.047.063.051.052c.02.02.031.035.031.051l.012.075.059.059v.008l.007.05v.039l.035.027.024-.008.004-.012c.012-.031.032-.046.059-.05l.032-.012.207-.02.083-.031.008-.004.012-.008.044.094h.004a.084.084 0 0 1-.012.062l-.115.163.008.027.052.051.052.031h.004c.023.032.042.051.066.059a.172.172 0 0 1 .078.063l.004.012.039.016.012.004h.004l.012.044.004.043.016.062.099.016h.009l.004.004v.004l.004.008.027.055.078.027.055-.027-.01-.032-.051-.047.008-.008v-.008l.043-.082h.095l.004.004.134.047.074-.012.059-.055c.067-.083.11-.119.138-.099l.032-.004c.034 0 .055.004.065.008.005.009.009.016.009.024 0 .016.016.047.039.091v.008l.012.055v.011l-.016.063v.004l-.004.004-.067.079-.003.004-.143.062-.02.04-.02.113.012.055.036.059.016.013.047.031h.165l.138-.02.021-.02c.02-.024.039-.032.052-.032l.094.016.009-.016c-.01-.027-.01-.05.006-.074l.039-.066v-.13l.069-.204.004-.004v-.004h.004v-.004l.123-.099.008-.008.105.048c.055.039.082.07.082.09l-.008.086-.035.056-.027.078V7.3l.027.039.035-.004.008-.004.061.004a.14.14 0 0 1 .065.082l.036.012h.008l.133.063.059.02.084-.012.035-.048.047-.191.005-.106v-.008l.007-.004.004-.004.074-.063.043-.055.004-.004.079-.035.047-.027.06-.023-.033-.119.135.016v.004l.07.027v-.004l.02-.075v-.012l.012.004h.008l.063.017h.03l.061-.067h.004l.004-.004h.004l.078-.016.066-.062.035-.051v-.065c0-.023.012-.039.035-.051h.013l.075.008.031-.02.012-.056.078-.023h.008l.098.012.079-.02.048-.047.031-.062-.061-.062V6.2l-.012-.048-.016-.071v-.004l.035-.062c0-.02.013-.047.043-.078l.043-.086v-.004h.005l.039-.063.059-.118.056.078.004.004v.004l.021.079v.004l.013.078.055.023h.004l.017.008.005-.004.045-.081.024-.079.012.004.012.004.113.039.057-.043.004-.004h.008l.057-.004.038-.067v-.083l.027-.125.008.004h.013l.086.02.039-.071h.012l.078-.008h.011v.004l.008.004.04.056v.003l.004.004v.008l.008.078.039.035.055-.051.013.016a.08.08 0 0 1 .026.062v.07l-.026.071.02.031.039.044.166.023.005.004.006.005.013.012.047-.066h.004l.039-.04-.02-.059-.043-.251.113.055h.008l.051.062.033.031.047-.031.164-.181h.004l.06-.044.067-.094.004-.008.091.023h.043c0-.035.008-.059.012-.074l.065-.078.02-.012.078.027.095-.012.063-.067.03-.06-.02-.031-.055.027-.004-.004-.004-.004-.071-.06-.003-.004.026-.105.008-.079-.02-.066-.056-.021v-.005l-.003-.004-.004-.004-.045-.093-.008-.012-.067.078-.066.043-.016.008-.004-.004-.004-.008-.071-.066v-.004l-.052-.109v-.004l-.023-.079v-.122l-.008-.07-.055-.021h-.004V4.22l-.125-.099.008-.012.059-.062v-.008h.008l.066-.008h.004c.02 0 .039.012.055.031l.057.043.059-.047.044-.06v-.05l-.017-.125-.012-.051-.086-.016v-.051l-.08-.099-.004-.003-.039-.07-.008-.008v-.008l.086-.114v-.004l.004-.004v-.004h.008l.037-.004.043-.035.052-.157h.004v-.004l.062-.07v-.005h.008l.07-.02v.008l.047.039.017.004.028-.122-.028-.087-.005-.004v-.007l.013-.098v-.008l.048-.051.031-.056.004-.047a.41.41 0 0 0-.035-.122v-.097l.02-.083a.23.23 0 0 1-.026-.083l.011-.109z"/><path fill="#215F8B" d="M8.034 6.958h-.063l-.02.043.035.035v.008l.016.051.004.004v.012l-.008.003-.086.044-.004.004H7.9c-.066-.008-.101-.027-.113-.055l-.025-.047-.118-.024-.031-.148a.092.092 0 0 1-.055-.032l-.004-.008c-.02-.027-.035-.043-.059-.047a.182.182 0 0 1-.082-.071l-.047-.028h-.004l-.063-.062-.016-.055v-.004l.126-.174c.004-.011.008-.019.004-.023l-.024-.055-.067.028h-.004v.004h-.004l-.172.011-.067.016-.023.023-.012.024c-.016.02-.039.032-.075.024l-.004-.004-.059-.044-.004-.097a.167.167 0 0 1-.058-.067l-.016-.087-.039-.047-.044-.036-.02-.012.071-.09.016-.051-.079-.098h-.004v-.004l-.035-.079v-.004L6.682 5.7l-.051-.039v-.004l-.055-.058-.07-.012-.078.023-.012.016-.012.109v.123l-.013.004-.074.028v.004l-.071.004a.794.794 0 0 1-.117.055l-.008.003h-.004l-.134-.031-.055.059a.142.142 0 0 1-.075.039l-.082.066-.043.067v.004l-.004.004a.341.341 0 0 1-.06.075l-.047.059v.004l-.004.004-.027.02a.173.173 0 0 1-.055.011l-.098-.008-.023.035-.035.063.016.063-.008.154.027.047v.004l.012.035h.055l.094.02.122.008.056-.008h.012l.105.04h.004l.055.043.118.043h.004l.078.047.192.176.087.04.035-.017.035-.066-.02-.105c0-.031.023-.051.07-.07l.009-.006.24.142.027-.008.055-.031h.008l.031.004.047-.039.008-.004.012.008.142.097.004.004.09.074a.357.357 0 0 1 .082.083l.043.048.036-.004.039-.075.083.06h.008l.066.082.177.133.052.06.152-.044.008.114.066.066v.004l.056.082v.012l.059.271.06.109-.08.202v.012l-.066.016v.059l-.004.003-.067.11h-.008l-.094.008-.095.079c.013.012.028.02.056.031.039.012.043.044.023.097v.005l-.066.067h-.005l-.004.006h-.008l-.188-.026-.004.067.02.142.157.065v.008l.06-.02.004-.004.008-.004.004.008h.004l.042.024h.066l.024-.005-.024-.072-.015-.079V8.91l.004-.004v-.004l.023-.027.008-.008.004-.004.043-.061.004-.003.071-.055h.004V8.74h.004l.087-.012v.024c0 .026.004.047.008.06l.016.035.023.052.078.043.216.021H8.538v.02l-.008.07.062.066.047.02.009.004v.004l.002.005v.068l-.02.079.026.02c.03-.004.06-.004.087.017l.091.043.056-.043.059-.063.004-.027.004-.008.008-.004.008-.008v-.009l-.02-.083-.004-.043-.004-.004v-.004l.004-.004v-.005l.031-.051.004-.003.062-.043h.135l.02-.008-.004-.067-.02-.061-.042-.068-.004-.003V8.663l.022-.058.004-.005.106-.155.004-.004h.004l.008-.004h.023l.039.004.09.051.06.017.008-.028-.012-.007v-.012c0-.023.012-.043.036-.062l.07-.051.004-.004v-.004c.039-.012.062-.02.078-.02l.062-.008h.008l.04.008.027-.098v-.068c0-.043 0-.07.013-.078l.028-.051-.036-.046-.047-.032-.098-.027c-.02 0-.055-.021-.113-.071l-.06-.027h-.004l-.004-.006-.069-.086h-.068l-.004-.003h-.004l-.059-.032-.035.047-.008.186.012.07h.027l.004.004.055.016v.008l.027.066h.004v.008l-.016.122v.012l-.003.003-.055.032-.008.005-.004-.004h-.004l-.027-.008-.063.023h-.004l.004.012.004.004.012.105c0 .016-.008.023-.023.027h-.049a.063.063 0 0 1-.045-.023l-.049-.035-.004-.004h-.004v-.004l-.027-.066a.156.156 0 0 0-.066-.031h-.008l-.055-.04h-.008v-.008l-.016-.068.008-.05h.004v-.004l.023-.028v-.02l-.023-.07-.057-.05v-.008l-.013-.162-.039-.039h-.004l-.005-.004-.032-.074-.141-.016a.126.126 0 0 1-.074-.067h-.064a.212.212 0 0 1-.075-.051l-.008-.008a.322.322 0 0 1-.047-.071l-.004-.004-.011-.063v-.007l.023-.121v-.004l.023-.052v-.008h.004l.15-.063.06-.07.012-.059-.008-.043a.332.332 0 0 1-.039-.103l-.032.004-.056-.004a.478.478 0 0 0-.086.091l-.067.062h-.004l-.004.004c-.05.012-.086.02-.105.012l-.13-.047z"/><path fill="#509BC2" d="M9.079 6.993l-.071.197v.133l-.039.067-.008.047c.008.027-.004.052-.031.067l-.008.004h-.004l-.004-.004-.098-.012-.052.047-.149.024h-.062l.039.028.142.016h.016l.004.003v.004l.034.086.04.027c.012.016.02.039.02.082l.004.107.048.043h.004v.004h.004l.022.078v.043l-.027.04-.008.035.012.04.047.032c.051.02.078.032.09.052l.028.059c.03.016.047.031.055.047l.036.012h.004l-.018-.087c-.005-.02-.005-.039.004-.047.009-.013.017-.021.033-.024l.059-.02.004-.004h.004l.004.004.027.008.035-.02v-.008l.011-.099-.023-.046-.032-.016-.039-.004h-.007l-.008-.004-.016-.101.004-.201.008-.008.06-.082.086.047h.051l.039-.256c-.013-.028-.023-.047-.049-.059l-.023-.004v.004h-.012l-.062.012-.004-.008-.004-.004-.043-.055v-.003l-.004-.004v-.099l.016-.055.016-.023c0-.017.004-.032.02-.052l.017-.02.004-.066-.06-.055-.079-.039-.107.09z"/><path fill="#023057" d="M6.395 5.579l.004-.004h.005v-.004l-.127-.357-.078-.063v-.008l-.02-.146-.165-.023h-.011V4.97l-.004-.008v-.004a.456.456 0 0 0-.15-.177.338.338 0 0 0-.121-.067c-.028-.016-.055-.027-.075-.043-.052-.035-.228-.062-.538-.07h-.012l-.035-.055a.35.35 0 0 1-.031-.103c0-.043.051-.185.16-.417l-.055-.171-.058-.276c-.008-.039-.075-.074-.194-.109-.023-.008-.047-.016-.07-.031a.177.177 0 0 1-.09-.1.225.225 0 0 0-.118-.117l-.004-.004-.004-.004-.048-.244-.188.02-.02.052c-.023.082-.046.121-.074.121l-.122.039c-.074.028-.121.059-.144.094a.338.338 0 0 0-.033.126.55.55 0 0 1-.039.153.194.194 0 0 1-.114.109c-.102.04-.275-.027-.514-.195l-.322.412.039.169h.004l.004.008-.008.004v.004a.1.1 0 0 1-.066.044c-.032.008-.063-.004-.1-.028-.031-.024-.121-.043-.266-.051l-.067-.004-.098-.008-.105.02.047.067c.039.051.055.082.051.102l-.044.256.021.137h.004v.004l-.006.003-.078.256c-.004.023-.012.035-.02.031h-.007v-.004l-.012-.023c-.017-.031-.024-.043-.036-.039-.008.004-.02.019-.023.054a.392.392 0 0 1-.126.192l-.071.056-.035.02h-.004l-.256.004-.097.094h-.016l-.271-.039c-.043.047-.086.062-.13.055-.039-.012-.107.003-.201.038l-.109.13-.004.008-.174.004v-.146H.617l-.02.062-.083.02H.507l-.004-.003H.499a.452.452 0 0 0-.177-.063c-.035-.004-.078.02-.142.074a.54.54 0 0 0-.137.155c.012.008.02.023.02.047a.27.27 0 0 1 .012.082.124.124 0 0 1-.032.067c-.02.012-.031.047-.043.11l.062.043.087-.091.11.122v.008l.024.216v.004H.279l-.062.299H.201c-.091 0-.15.004-.174.02.004.02.043.052.11.095l.055-.008h.013l.004.004.129.125c.051.043.047.118-.02.229l.02.121.051.012H.59l-.103.093.06.031.078.044.212.09.004.004h.008l.02.322c.003.063.051.11.144.141l.016-.008h.008l.221.031h.015v-.003l.004-.008a.366.366 0 0 0 .039-.082v-.008c-.004-.035.012-.066.043-.09a.178.178 0 0 0 .062-.075l.004-.004c.012-.031.051-.039.118-.02h.004l.076.044.247.047.153-.011.11-.048a.168.168 0 0 1 .048-.047c.02-.004.047.004.078.031l.017.008c.015.012.027.036.042.079l.078.059H2.471l.083.035.153-.012.086-.027.225.02.098-.027.114-.047a.281.281 0 0 1 .09-.04h.215l.079-.028a.165.165 0 0 1 .083-.031h.125l.059.044.17.035c.023 0 .047.02.086.055l.07.047.008.008.162.004h.004l.074.038.098.02h.004l.083.012.023-.048-.035-.078-.016-.078v-.004h-.004l.012-.012.055-.075v-.004h.005v-.004l.055-.04-.013-.023-.023-.078c0-.012-.012-.02-.036-.035l-.059-.063-.075-.063-.004-.008-.008-.004.004-.004v-.008l.012-.075v-.055l-.035-.094.091-.02.043-.043h.11l.109-.016h.004l.074.008.087-.031.099-.012.062-.027h.004l.169-.032.028-.027-.007-.032-.032-.055v-.004l-.004-.003v-.004l.008-.059.004-.004v-.083l-.016-.071v-.004l.04-.078c.016-.035.035-.055.059-.055l.102.008a.097.097 0 0 0 .055-.023l.154-.209v-.004l.004-.004.082-.066.008-.008a.208.208 0 0 0 .062-.027l.02-.02c.026-.036.051-.051.066-.051l.134.027.113-.055h.008l.066-.008.056-.024v-.091l.016-.113v-.008l.02-.031-.001-.004z"/><path fill="#215F8B" d="M6.529 6.923l-.035.027c0 .016.008.051.02.102v.004l.004.004h-.005l-.042.098-.059.024-.013.004h-.004l-.102-.047h-.004v-.004l-.192-.177-.075-.043-.118-.044v-.004H5.9l-.055-.039-.097-.031-.056.004h-.004l-.126-.008h-.004l-.089-.02h-.055l-.043.032c-.025.012-.056.015-.096.023l-.082.016-.07.023-.004.004v.004-.004l-.086.009-.091.035h-.013l-.074-.008-.113.016h-.095l-.039.039h-.004l-.048.012.02.047v.074l-.012.067.067.055h.004l.056.063c.035.027.051.047.051.07l.02.059.027.059c-.004 0-.004.004-.004.004l-.078.055-.052.068.012.058.036.082.004.008v.004l-.008.031c-.008.02-.016.036-.028.044-.023.02-.062.02-.126 0l-.098-.02h-.008l-.07-.035-.114-.004.004.004-.012.197c-.004.027-.025.039-.052.043-.012.004-.02.02-.016.051v.004h-.003l-.008.05a.218.218 0 0 1 .055.06l.02.095v.035c-.005.019-.009.035-.017.051l-.027.078-.051.098v.02l.008.047.051.067a.154.154 0 0 1 .027.043l.048.067.071.078c.027.028.047.04.055.04l.074-.048c.016-.012.027-.021.047-.021.016 0 .039.013.075.037h.004v.004l.039.047.02.048.017.021.012.008.051.035.026.004a.09.09 0 0 1 .043.03c.008.011.051.027.126.048h.004l.118.043h.008l.082.039.142.035.004.004.184.008.082-.03h.075v.004l.004.003.062.078v.004l.04.063.031.035.043.02.005.003.004.004.035.078v.004h.004v.004l.02.087.055.02h.008l.044.028.059-.013.017-.059v-.004l.004-.004.066-.066.074.02v.008l.035.079.075-.026.007-.077v-.01l.004-.004.051-.026-.012-.109v-.012l.059-.122.059-.023-.023-.11h.059l-.005-.053-.031-.105v-.008l.008-.075v-.012l.008-.005.039-.049.008-.009h.012l.106.021h.004l.087.023.074-.023.043.086.004.004v.062l.012.06c.008.023.023.039.039.043h.008c.035.008.056.022.06.047.004.021.02.047.047.078l.035.052v.004l.024.043.035-.004.066-.059.043.09.086.027h.005l.003.004.043.078.02.013.004-.074v-.017l.173-.004.004-.016c.004-.007.004-.023-.004-.034a.213.213 0 0 1-.02-.073c-.004-.03 0-.055.008-.062.012-.017.02-.017.039-.012l.071.022.008-.051-.13-.059h-.008l-.004-.006v-.006l-.019-.158.004-.1V8.745l.216.028.056-.052c.012-.02.008-.034 0-.038-.056-.02-.084-.043-.084-.067 0-.012.004-.028.023-.036l.091-.091.098-.004.051-.086v-.082l.075-.016a.623.623 0 0 1 .039-.103l.032-.067-.055-.097v-.008l-.035-.133v-.004l-.025-.138-.047-.078-.07-.07v-.008L7.9 7.591l-.004-.075-.13.039-.004-.004-.058-.067-.177-.133h-.004l-.066-.086-.044-.028-.027.043v.008l-.004.004H7.37l-.056.004-.008.004h-.003l-.129-.142c-.027-.012-.055-.04-.095-.079l-.059-.043-.004-.004-.067-.039-.039.032-.004.007-.004-.004h-.004l-.035-.007-.039.02-.004.003-.004.004h-.004l-.054.008a9.523 9.523 0 0 1-.229-.133z"/><path fill="#215F8B" d="M6.762 8.852l-.091-.03-.095-.01-.031.035-.008.067.004.004.027.104.004.077v.023h-.047l.02.095-.074.027-.031.06.039.031.008.004.136.108.004.005h.004v.008l.02.099.063.091a.49.49 0 0 0 .071.079h.004l.004.004v.004l-.004.005v.087a.419.419 0 0 1 .015.149c.035.053.051.088.051.11 0 .017.012.047.031.09v.005a.33.33 0 0 1-.008.143c-.011.027.005.076.048.147l.004.005.003.006-.004.008-.062.139a.214.214 0 0 1 .016.071l-.016.129c-.008.043-.008.065.012.073l.023.017c.035.017.047.036.047.056l-.004.067.02.008.004.004.012-.012c.012-.013.024-.026.028-.048l.008-.012.004-.008c.016-.009.023-.021.035-.035a.165.165 0 0 0-.004-.076l-.008-.02.021-.004c.062-.016.099-.012.11.016l.031.08v.008l.016.129.051.027h.007l.031.027.031-.035.036-.027h.012c.027.008.043.027.052.056l.016.102.004.017.105.229.043.043.004.004v.004l.019.094.008.09.004.009c.027-.04.052-.06.067-.052.016.004.02.012.02.027v.113c.02.004.035 0 .039-.012l.04-.055.043-.045a.147.147 0 0 1 .086-.035h.003l.082.021.024-.012.043-.056-.007-.084c-.027-.047-.039-.086-.031-.113l.012-.071v-.008l.004-.009.075-.043h.004l.054-.037.062-.09.008-.065-.07-.166.156.071V10.922l.06-.051.114-.031h.008l.066.146v.008l-.007.055.007.051c.008.023.023.035.035.035.016 0 .031-.012.047-.031l.004-.008h.004l.095-.031h.005c.051 0 .074.013.086.035l.008.105v.004l.021.004.039.012.06-.004.099-.027.06-.051.002-.043-.027-.031-.104-.035-.008-.004v-.004l-.117-.119.012-.008.06-.051.004-.004.06-.023h.012l.078.017h.004l.005.004v-.03l-.035-.06-.056-.027-.074-.11-.006-.006v-.004l-.035-.129v-.099l.062-.06h.094l.221.021.104-.146v-.01h.008l.082-.044.043-.086.004-.004.099-.083.041-.085v-.004h.004v-.004l.039-.039.048-.078.015-.122v-.012l.004-.004.063-.043.017-.016-.094-.016-.158.009-.004-.005-.059-.047H9.57v-.004l-.031-.048-.008.005-.004.008c-.007.012-.028.017-.052.017l-.022.01c-.009.003-.013.008-.023.003-.008 0-.013-.012-.021-.03a.114.114 0 0 0-.036-.06l-.004-.002v-.003h-.004l-.02-.052H9.33l-.059.039-.003.004h-.004l-.138.027h-.008l-.008-.005-.09-.061-.004-.004v-.004h-.004l-.024-.048-.066.07c-.047.056-.082.073-.106.056l-.091-.047-.063-.009-.008.004-.058-.043-.004-.004-.012-.002.027-.106v-.037l-.035-.017h-.004l-.082-.09.004-.065-.205-.021-.078-.042c-.02-.012-.035-.036-.047-.075l-.012-.028-.015-.06-.029.004-.062.052-.075.091.016.066.023.086v.005h.004l-.004.004v.004c-.008.022-.032.035-.067.035h-.078l-.047-.023-.06.023-.011.004-.008-.004-.008.055-.004.009v.012h-.011l-.099-.033c0 .03.004.056.02.083.012.027.016.048.004.07l-.012.034c-.012.01-.047.014-.098.01h-.066l-.004.11-.087-.031h-.004l-.004-.003-.044-.083-.094-.033-.023-.051-.035.029h-.004l-.059.012h-.016l-.032-.072-.031-.045-.004-.004a.344.344 0 0 1-.055-.092c0-.004-.008-.012-.027-.016l-.016-.004a.11.11 0 0 1-.059-.07l-.016-.068v-.054l-.027-.052-.047.017h-.011z"/><path fill="#043960" d="M1.465 7.567v.005a.25.25 0 0 1-.075.085c-.023.012-.031.032-.031.055v.012c0 .021-.012.051-.043.099l-.004.02c-.008.012-.023.02-.051.02l-.224-.029v.004l-.016.051v.004l-.004.004c-.058.083-.097.141-.101.18-.004.02.02.091.07.213l.035.082c.016.039.004.086-.031.138l-.07.07H.802l-.024-.13-.032.162.052.078c.004.012.004.02 0 .022l-.009.01c-.016.012-.039.051-.063.117-.023.06-.011.119.036.183h.095c.032.007.079.058.146.147l.004.008c0 .028.012.048.031.063l.208.193v.004l.094.118h.055l.058-.107.008-.008.004-.004.146.035v.012l.02.1.172.199.06.023.004.004.026.016.004.005.13.192.106-.015h.012l.008.008.003.009.091.188.11.066.09.023.043.122h.067l.004.004.142.078v.004l.004.004.102.126.15-.027h.008l.055.023h.004l.094.083.169.013.103-.017c.137-.022.224-.012.255.022.021.031.009.062-.039.103l-.039.039c-.012.021.004.052.055.099l.004.008h-.006l.032.023.012-.012c.098-.186.176-.286.231-.307.059-.02.181.031.373.148l.235.043-.004.008v.008l-.012.11.118.017-.003.149a.428.428 0 0 0 .079.118c.023.016.141.016.35 0l.121-.062.117-.164.139-.004.066-.021.26-.15h.004l.004-.004c.148-.016.235-.021.259 0l.169.144.051.02.008.008.066.027.004.004v-.024l.028-.119c-.012-.035-.012-.062 0-.086.008-.021.027-.031.059-.039.06-.012.114.039.169.148l.008.004h.004l.099-.043c.02-.004.027-.023.027-.044l-.02-.069v-.004c-.008-.031 0-.06.031-.07l.035-.027.087-.095.059-.13c-.051-.082-.066-.141-.051-.182l.012-.109a.26.26 0 0 1-.036-.106.276.276 0 0 0-.047-.094h-.003v-.013l-.012-.141a.225.225 0 0 1 0-.094.278.278 0 0 1-.075-.082l-.06-.079-.004-.004v-.012l-.02-.1-.058-.045v.005l-.113-.091v.009l.016.12v.017l-.06.026-.008.075v.012l-.138.054-.047-.11-.027-.008-.043.044-.027.079-.099.028-.056-.039-.078-.025-.023-.11-.031-.068-.047-.02-.004-.006-.036-.043-.035-.062-.055-.072h-.048l-.078.027-.004.004-.2-.013-.154-.03c-.011-.008-.039-.02-.082-.047l-.118-.039c-.091-.024-.141-.042-.153-.067l-.02-.013-.027-.005-.071-.04-.008-.003c-.012-.017-.023-.03-.031-.044l-.016-.036-.032-.047-.051-.024-.02.012-.02.016-.011.007a.135.135 0 0 1-.055.026c-.031.01-.062-.006-.098-.045l-.074-.079a.383.383 0 0 1-.056-.082l-.02-.03a.352.352 0 0 1-.058-.08c-.012-.036-.016-.067-.004-.098V8.51l.051-.087.027-.09.012-.058-.02-.091-.058-.052.012-.074c0-.055.02-.082.059-.09.012-.004.02-.012.016-.027v-.004l.004-.079v-.095h-.009l-.004-.004-.016-.008v-.004h-.004l-.07-.047h-.004l-.055-.047-.185-.035-.059-.043h-.109c-.016 0-.035.012-.063.027h-.004l-.087.032h-.215c-.032.008-.06.016-.075.031-.024.02-.068.035-.126.055l-.102.023v.004h-.008l-.145-.015-.013-.004.005.004-.005-.004-.051-.004-.086.027-.172.016H2.55l-.004-.004-.087-.031h-.07c-.032-.008-.067-.032-.106-.079l-.004-.007c-.008-.036-.02-.051-.024-.059l-.02-.012-.035-.02-.032.032-.004.008-.125.051h-.012l-.153.015c-.023 0-.067-.012-.126-.027l-.133-.024h-.004l-.079-.043h-.067z"/><path fill="#509BC2" d="M6.352 12.458l-.016.051c.023 0 .055-.017.087-.039l.004-.004h.008l.156-.021.103-.051.039.055.008.005-.047.073.056.056v.016l-.04.166.103.074.184.008-.027.035c-.117.146-.172.231-.168.261l.07.016c.094.008.149.035.169.07.023.047.047.094.067.148l.105.061.066.012.138-.119.071.107v.004l.004.004.023.098.059.012.09.031.024-.008v-.006l-.017-.102-.004-.004-.051-.232v-.008l.031-.16.008.004h.012l.106.008.134-.1.012.008c.07.057.118.101.142.131A.541.541 0 0 0 8.187 13l.004-.004.008-.01.196.053.087-.071.004-.004.004-.004h.004l.004.004.082.016.268-.234.082.024.004.004.004.004.004.004.02.035.021-.023h.004v-.004h.004l.079-.043.059-.057-.016-.121-.013-.017-.076.031c-.024.008-.044.016-.071.016h-.086a.092.092 0 0 1-.057-.026l-.008-.125c-.026-.017-.039-.024-.049-.024l-.021.008-.028.017-.054.01h-.015l-.004-.008-.031-.056-.004-.051.031-.148h.004v-.004l.035-.074-.109-.1-.004-.004-.004-.004v-.113l.004-.004.062-.181-.039-.099-.035-.01-.043.004-.044.067-.055-.039-.056-.032-.043-.108-.016-.078v-.009l-.004-.004.012-.008.051-.07.012-.008h.004l.04-.008.043-.013.204-.008h.004l.027.012.008.004.031.013.056-.023.048-.036.023-.039.004-.021-.004-.086-.045-.008-.082.027c-.023.028-.051.048-.077.048-.027 0-.051-.023-.074-.066h-.004v-.004l-.004-.055v-.008l.004-.052-.043-.106-.083.024-.035.032.012.117-.13-.06.031.071.004.004v.008l-.012.078v.008h-.004l-.074.105-.122.074-.012.073c-.004.013.012.043.031.082l.005.004v.004l.008.103v.013l-.004.003-.048.062-.004.004h-.004l-.035.023h-.017l-.09-.021c-.016 0-.035.009-.055.024l-.039.046-.031.039c-.02.034-.048.043-.091.034-.027-.004-.036-.03-.027-.065v-.028l-.004-.027-.017.02c-.012.017-.023.021-.039.021-.016-.004-.027-.021-.035-.047v-.004l-.008-.091-.02-.088-.039-.039-.004-.005-.081-.188-.004-.004-.024-.057v-.004h-.004v-.004l-.016-.102-.012-.016-.016.012c-.028.033-.048.053-.056.053-.012 0-.031-.016-.062-.039l-.058-.027-.008-.004-.004-.004v-.002l-.004-.009-.004-.077-.012-.061-.031-.079h-.031a.15.15 0 0 1-.009.079.15.15 0 0 1-.047.061.148.148 0 0 1-.035.062c-.024.022-.044.022-.067.008l-.012-.004c-.023-.009-.027-.035-.023-.087v-.02l-.051-.031c-.02-.008-.031-.032-.035-.067l.02-.176-.008-.027-.062.07-.044.03-.012.027a.21.21 0 0 1 .023.082c0 .04-.02.071-.055.083l-.071.027-.02.012-.004.028v.109c.004.034.008.055.02.055a.066.066 0 0 0 .075-.008l.023-.013.075.173v.014c-.027.31-.056.486-.091.533a.079.079 0 0 1-.052.026.123.123 0 0 1-.074-.021c-.102.205-.169.312-.2.326h.004c-.016.004-.023.056-.02.146l.023.021.008.008.008.008-.034.046z"/><path fill="#215F8B" d="M9.812 10.662l-.026-.012-.03.021-.021.035c-.016.034-.031.055-.059.055-.017 0-.035-.012-.047-.022l-.005-.004-.004-.005-.012-.039v-.004l-.005-.053-.022-.004-.004.004-.012.04v.056l-.005.004-.004.004-.046.062-.006.009h-.009L9.4 10.8h-.007V10.809l-.031.043.012.026h.004l-.028.043h-.086v-.017l-.008-.008-.013-.008-.017.027-.004.013h-.056l-.004-.004-.036-.028-.004-.008v-.004h-.004v-.008l-.063-.012-.047.02-.026.02.077.092.104.031.004.004.005.005.051.047-.021.078v.012h-.005l-.066.056v.004h-.005l-.11.03h-.004l-.062.008H8.941l-.043-.017-.023-.004-.023.04h-.004v.004l-.053.036h-.003l-.071.031h-.004l-.082-.027-.181.008-.039.012-.004.004h-.036l-.043.061.008.066.04.09.043.022h.004v.005l.015.012.028-.041.004-.004.004-.004h.004l.059-.008h.008v.004l.06.017.059.135h-.006v.004l-.023.073-.02.047v.004l-.027.065v.084l.047.047h.004l.062.056.008.004.004.005-.047.108-.012.051.016-.008h.004l.039-.017.071-.039h.004l.079.013h.004l.117.047h.13l.035-.047.005-.004.004-.004.066-.031.062-.056.009-.004.047-.016.05-.038.06-.078.083.03.012.004v.005l.004.004c.013.031.023.047.035.051l.051-.008h.013l.026.008h.004v.005l.066.022h.021l.004-.016.008-.023v-.004l.004-.004.004-.005v-.004l.023-.017.004-.004.044-.035h.004l.004-.004h.008l.039.004c0-.022.012-.047.035-.07.027-.02.047-.031.059-.027l.023-.016h.004v-.004l.02-.02v-.005h.005l.004-.004h.004l.063-.016h.035l.016-.013.013-.022.021-.039-.008-.004a.199.199 0 0 1-.049-.103l-.004-.004h.004v-.005l.016-.087c0-.027.008-.047.028-.066l-.01-.068c-.005-.009-.013-.017-.032-.021l-.126.051.009-.129c.004-.021.043-.057.117-.1l-.035-.137a.12.12 0 0 1 .035-.114l-.008-.022h-.039l-.012.004-.021.055c-.016.021-.031.031-.047.031h-.008l-.039-.027h-.008v-.012l-.012-.027-.004-.039v-.004l-.004.008-.004.014h-.07l-.008-.017-.012-.043v-.059l-.044-.074v-.062l-.016-.029z"/><path fill="#80C3E2" d="M10.611 11.68l.004.004.008.008-.051.08a.11.11 0 0 1-.079.039h-.008l-.04-.023-.039.004-.078.059c-.02.008-.043-.012-.078-.059l-.023.051h-.004l-.004.004-.027.027h-.051l-.053.016-.062.047h-.021l-.022.017c-.021.021-.027.036-.017.052l.027.039-.109-.012-.06.048-.008.02v.005l-.013.03-.004.004-.004.005h-.053l-.07-.027-.022-.004-.056.008c-.022 0-.051-.027-.074-.071l-.047-.021-.039.061H9.43l-.057.044h-.004v.004h-.008l-.043.013-.062.055-.066.027-.048.062h-.158l-.121-.047-.066-.009-.06.033h-.004l-.04.016c-.02.008-.035.021-.047.023l-.008.021v.047l.02.032.096-.032c.02 0 .047.013.082.032l.008.004.004.004.004.133.021.004h.081l.051-.012.008-.008a.27.27 0 0 1 .096-.031l.016-.004.008.011.022.048v.004l.013.129v.013l-.07.075h-.006v.004l-.084.037-.026.031.012.023.17.016.004.004.004.003.065.039.147-.004v.021l.008.075v.008h.005l-.066.066c-.008.086.009.137.043.148l.126.067.1.066.082-.039.008-.004.008-.004.004.004.126.096.021.008.031-.041.008-.008.004-.004H9.901l.073.012.017-.129.094.17.079.004.012.004h.008v.059l.033-.008.129-.174.055.083v-.035l.039-.079.035-.059h.1l.016-.109h.009l.009.004.073.012.009-.039-.027-.062v-.008l.017-.043v-.01l.004-.004h.004v-.004l.205-.108-.01-.105v-.004l.041-.079.008-.016.062-.146.004-.004.052-.051.03-.059v-.008l.027-.049-.023-.06v-.004h-.004v-.062h-.036l-.059.027c-.027.021-.066.012-.118-.021-.021-.016-.021-.055-.008-.113l-.031-.004-.017.021c-.035.039-.062.062-.07.062s-.012 0-.02-.004c-.004-.012-.013-.03-.013-.062 0-.035 0-.06.013-.065.008-.013.016-.018.022-.009l.075-.139.02-.052.012-.059-.043-.035c-.012-.012-.016-.039-.008-.078v-.023c0-.012-.008-.027-.023-.039h-.008l-.004.012c-.013.031-.039.047-.082.035a.127.127 0 0 0-.072.002z"/><path fill="#043960" d="M10.375 9.857l-.027-.062-.043-.062-.047-.012h-.004v-.005h-.004l-.039-.021h-.008l-.018.004-.051.009h-.004l-.008-.004-.052-.021v-.002h-.004v-.004l-.038-.039-.042-.044-.039-.024-.043.039-.054.039-.017.12v.004l-.051.085v.008h-.004l-.04.039-.047.091-.004.008c-.035.026-.066.056-.098.078l-.038.069c-.008.021-.039.043-.099.066l-.039.068-.067.091h-.004v.004h-.008l-.314-.02-.034.035v.066l.03.13.067.095.056.031v.004h.004c.031.039.048.066.048.086v.051l-.021.021.012.008h.017l.022-.047h.008l.062.021.004.02h.031l-.008-.023-.004-.008.043-.066c.008-.02.027-.026.056-.02l.07.004.04-.051v-.048l.016-.052v-.004l.004-.004.004-.004.027-.016v-.004h.004l.004.004.059.008v.008l.013.047v.024l.008.035.017.004.02-.026v-.004l.031-.045.004-.008.044-.02h.002l.004-.004.049.016h.005l.008.004.027.057v.055l.039.074v.063l.012.023h.012l.017-.021.004-.008.048.026h.008v.012l.016.068.02.012.004-.008.021-.052v-.004l.004-.009h.008l.028-.016h.004v-.004h.035l-.008-.021v-.009l-.021-.184-.075-.123-.141-.164-.004-.004-.008-.105-.049-.081V10.2l-.004-.005.004-.008.023-.102h.016l.248-.016.133-.07.004-.004c.048-.016.078-.036.087-.057a.16.16 0 0 0 .017-.081z"/><path fill="#509BC2" d="M9.516 7.468l-.025-.004-.039.24.068.078.062.027h.004l.004.004.082.067.113.027h.004l.061.04h.004v.008l.043.062.008.008-.005.009-.039.063c-.007.008-.007.027-.007.058h.004v.075l-.004.004-.037.119-.005.019h-.007l-.011-.004-.052-.011-.066.003-.059.02-.066.055-.016.015.086.043-.008.017c-.004.02-.023.039-.054.052l-.055.003-.091-.036-.083-.047h-.035l-.098.142-.02.047v.082l.039.065v.004l.022.063v.009l.004.09v.013l.004.008-.06.013h-.119l-.055.034-.024.039.004.004.023.118h.005v.047l.027.057.082.055.123-.028.059-.039.008-.005h.054l.031.074a.148.148 0 0 1 .044.064l.026-.004h.017l.004-.009.056-.043.051.09.056.035h.078l.06-.008h.012l.141.021h.004v.004l.059.035v.004l.051.039v.004l.035.041.041.016.062-.008V9.57l-.032-.057h-.006v-.002l-.022-.103.055-.055.004-.003h.004l.047-.008h.052l.016-.02-.031-.045-.113-.073-.031-.043-.004-.005-.002-.004.004-.008.031-.059.008.008.078.02.209-.008.004.004h.004l.059.021.04-.035-.021-.121-.074-.048c-.063-.035-.084-.122-.071-.263l-.062-.031-.008-.004h-.009v-.012l-.012-.104.086-.401a1.125 1.125 0 0 1-.056-.235l-.008-.117.008-.129v-.008l.009-.008.077-.06v-.062a.154.154 0 0 0-.026-.071l-.051-.055h-.009v-.011l-.008-.094v-.004l-.004-.004.008-.004v-.004l.103-.131V7.06l-.031-.059v-.004l-.004-.008.052-.062v-.004h.004l.056-.043-.009-.052h-.026l-.046-.008-.023.095-.012-.004-.102-.04-.062-.012.023.099-.087.027-.127.067-.039.051v.004h-.004l-.067.059-.011.095v.008l-.036.132H9.9l-.015.063v.004l-.004.004-.043.06h-.005v.004l-.004.003h-.004l-.095.012v.004l-.003-.004-.141-.047-.004-.004-.066-.032z"/><path fill="#80C3E2" d="M11.35 6.411l.016-.02-.027-.062-.027-.031-.03.051v.004l-.052.059-.004.004h-.008l-.096.027h-.008l-.09-.017-.051.017-.013.043-.004.008-.043.027-.008.004h-.008l-.079-.008-.004.008v.079l-.004.004-.043.055v.004h-.004l-.074.074h-.004l-.004.004-.078.016-.051.056.013.067V6.9l-.013.003-.06.055-.03.039.022.051v.087l-.044.062v.004l-.059.068.008.078.052.047v.004c.024.039.036.07.036.099v.086h-.006l-.004.004-.078.059-.008.117.008.118c0 .04.017.114.056.224v.012l-.085.402.008.077.06.028.095-.095h.004l.303-.118.079-.07.008-.008.004.004h.008l.171.016a.6.6 0 0 0 .15-.051v-.083l.004-.004h.004l.047-.043-.012-.052v-.015l.004-.004c.016-.016.016-.031.004-.043-.012-.023-.008-.055.012-.09l.021-.027-.004-.056-.06-.071c-.026-.02-.03-.047-.016-.074a.186.186 0 0 1 .039-.066l.016-.066.043-.095.013-.044.062-.117-.043-.074-.121-.075h-.008v-.01l-.024-.063v-.012l.009-.105v-.004l.027-.078c-.004-.027 0-.047.012-.063.008-.008.02-.016.031-.016l.074-.012.02-.043.02-.13-.016-.047-.066-.016h-.004l-.078-.039-.004-.004v-.007l-.004-.004-.004-.095v-.02l.102-.024zM11.557 10.596l.004-.004h-.008v-.008l-.03-.061-.005-.004v-.007l.009-.094c0-.013-.013-.022-.035-.039h-.024l-.039.047h-.004l-.098.047-.016-.065V10.4l.008-.031-.008-.039-.012-.004-.017.031h-.004v.004l-.122.104-.004.008h-.02l-.035-.016-.004-.004-.039-.035-.062-.022-.004-.004-.039-.027-.13-.027h-.004l-.088-.044v.004l-.065-.03-.086-.009-.03.004.026.146h-.013l-.086.009H10.42l-.047-.031-.078.035-.07.094-.062.171.02.184.029.105c.004.012.004.016 0 .021l-.012.002c-.021.012-.028.04-.024.079l.041.16-.014.004c-.07.041-.107.072-.111.088l-.008.056.067-.028.004-.004h.004c.048 0 .075.018.079.057l.012.086-.004.012-.008.008c-.012.012-.02.023-.02.039l-.013.092c.004.03.017.055.031.066l.082.098.073-.059.061-.008h.004l.004.008.039.012c.012 0 .023-.004.036-.016l.035-.053-.009-.03a.077.077 0 0 1 .035-.027h.095c.016.009.026.005.026-.004.013-.028.023-.04.035-.048.012 0 .031.004.045.016.026.024.047.045.047.071l-.008.071.016.012c.022.02.039.039.039.055l-.017.07c-.012.039-.022.066-.038.075v-.005l-.061.127.021.008.094.004.021.008-.008.016a.177.177 0 0 0-.013.086c.031.021.052.031.062.021l.055-.022.027-.012h.051l.053-.056v-.065a.063.063 0 0 1 .008-.053c.018-.014.049-.014.097.013l.095.061c.03.023.055.031.069.031v-.004c.008-.017 0-.047-.021-.088l-.051-.078v-.008h.004l.004-.008c.051-.07.105-.095.17-.07l.146.065.06-.039h.004v-.008l-.008-.008.004-.004.004-.009c.047-.078.062-.137.047-.168-.012-.027-.031-.039-.047-.039h-.013l-.007-.041h.008c.027-.014.043-.024.047-.041l-.012-.02-.062-.059v-.002l-.03-.086c-.013-.067-.021-.127-.013-.183v-.038l-.039.034-.035.039-.012-.164v-.008h.004c.086-.126.146-.201.164-.222l-.039-.116c-.012-.06-.02-.095-.02-.11l-.07-.031-.037-.009z"/><path fill="#509BC2" d="M10.19 9.138l-.005.015.021.023.102.071v.004h.004l.062.071-.007.008-.039.047-.004.004-.004.008h-.066l-.039.004-.027.027.012.035v.004l.004.039.035.052v.114l.03.012.056.016h.004l.004.004.005.004.051.07v.004l.026.07V9.897a.184.184 0 0 1-.021.065.251.251 0 0 1-.108.075l-.134.078h-.004l-.244.017-.016.06.043.078v.008l.012.104.133.156h.004v.004l.057.091.004-.012v-.005l.043-.121.004-.004.078-.103.004-.004.099-.047h.008l.062.039.084-.009-.027-.139.016-.004.075-.008.078.004h.009v.004l.156.071.135.028h.008l.043.031.062.022v.004l.039.035.022.008.045-.039v-.004l.066-.051.035-.067.062.035v.008l.016.053v.012l-.008.031.004.009.039-.021.055-.055h.053v.004h.004l.034.023c.023.022.032.043.023.062l-.005.088.024.043.009.005c.094-.103.155-.152.194-.152h.106l.023-.051.082-.04h.004l.103-.008.106-.055v-.003h.066l-.012-.032.004-.008.016-.017-.146-.311v-.006l-.004-.004.063-.086-.02-.02-.105-.02h-.012v-.008l-.066-.069.003-.017-.004.004-.004.005-.059-.04c-.028.035-.057.06-.088.066-.027.012-.07-.02-.129-.091l-.031-.038c-.004-.009-.031 0-.074.016-.067.022-.11.027-.13.016-.021-.02-.028-.061-.021-.11.005-.043 0-.066-.008-.078l-.51-.027a.342.342 0 0 1-.106-.059l-.078-.021a.559.559 0 0 1-.168-.162l-.052.043-.075-.024-.213.004-.06-.018z"/><path fill="#EAECEA" d="M12.756 12.566c.035-.004.055-.02.062-.039v-.004l.004-.012h.016l.071-.004v-.051a.1.1 0 0 1-.06-.023l-.117-.105v-.004l-.051-.149-.07-.069a1.647 1.647 0 0 0-.201 0l-.016.004.004.047v.02h-.012l-.062.027-.012-.008c-.051-.051-.084-.07-.104-.06-.138.066-.216.099-.238.082-.017.004-.035.021-.063.047l-.013.017-.016-.017c-.039-.034-.06-.065-.06-.09 0-.017.028-.047.075-.098a.484.484 0 0 0 .082-.106l-.012-.021c-.016-.008-.047.01-.086.041-.039.027-.063.039-.08.035-.008 0-.016-.013-.02-.031l-.004-.008-.035-.063-.074.048-.008.008-.004-.008h-.002a.962.962 0 0 0-.157-.07c-.036-.013-.071.004-.106.047l.035.06c.023.06.035.099.023.126a.034.034 0 0 1-.031.023c-.023.008-.059 0-.102-.035-.035-.023-.062-.043-.086-.055l-.049-.021v.004l.004.01v.086l-.062.069v.065l.027.072.005.004-.044.066-.027.062v.004l-.059.059-.098.225.004.121-.004.004-.213.122-.012.022.026.063v.008l-.02.082-.086-.012-.02.104h-.11l-.022.039-.033.067-.02.246.023.053.004.008v.051l.048.061.004.008v.047l.126-.008.008-.013v-.004h.004v-.004l.035-.047-.078-.071-.008-.008-.043-.036-.004-.004-.005-.004v-.076h.067l.008-.026-.027-.078h.152l.271-.131.035-.06.008-.021.056.023h.004l.004.012.023.028.027-.005-.008-.059h.091l.086.016.035-.059.004-.004v-.004l.008-.005.095-.026.017-.139.099.088.039.008.02-.023-.008-.298v-.025l.066.012h.004l.008.004.004.005.105.192.135-.017.023-.008.02-.048-.039-.031-.012-.013.09-.031.008-.004.004-.004.035.039.031-.017v-.06l.02-.004h.067a.151.151 0 0 1 .11.062l.008.016.027-.094c.016-.023.047-.027.094-.008l.008.004v.004l.004.004a.03.03 0 0 0 .016.008c.021-.008.092-.055.205-.146 0-.056.031-.086.082-.103z"/><path fill="#80C3E2" d="M12.771 10.266l-.004-.004-.086-.074-.047.022c-.033.071-.076.114-.131.135-.017.009-.035.004-.048-.008-.016-.021-.008-.063.021-.131l-.129.083-.004.008H12.225l-.103.052v.009l-.108.004-.06.031-.026.055-.009.008h-.131c-.022 0-.073.039-.155.121.039.017.059.031.065.044l.004.022v-.004l.06.221.004.012v.016h-.004l-.008.004h-.005l-.155.217.008.056c.022-.021.043-.023.059-.017.02.008.027.039.02.086a.46.46 0 0 0 .039.236l.056.059c.02.021.026.039.022.06l-.027.04.035.047c.021.04.004.105-.043.2l.051.087.009.02.032-.02c.051-.048.095-.061.13-.048.022.008.034.026.039.048.004.027-.027.074-.099.146l-.056.069.026.043c.041-.034.072-.047.092-.039.023 0 .09-.022.204-.081.034-.021.083 0 .142.059l.023-.012-.004-.048-.012-.009c-.009-.012 0-.022.012-.035l-.021-.075a.065.065 0 0 1 0-.039.116.116 0 0 1 .043-.027l.035-.031-.021-.047v-.004h.004v-.004c.017-.023.017-.043.013-.055-.017-.027-.004-.047.026-.076l.043-.039-.008-.008-.012-.012.051-.023v-.062c0-.023.021-.055.075-.094l.024-.02-.061-.066c-.02-.028-.012-.062.023-.1v-.011l.122-.102.004-.027c-.022-.008-.031-.051-.021-.116.017-.107.062-.158.146-.171h.008l.052.027h.055l.053-.062.004-.004.062-.039-.009-.056v-.012l.009-.009.016-.008.02-.023.004-.004-.039-.066a.866.866 0 0 1-.098-.152c-.021-.035-.018-.074.012-.119l-.07-.043-.125-.011z"/><path fill="#215F8B" d="M13.094 10.792l-.008.004-.066.047-.059.065h-.004v.009h-.087l-.048-.027c-.059.017-.09.056-.102.132l-.004.065.047-.043-.031.129v.008l-.131.114c-.02.023-.026.043-.02.055l.024.028c.026.022.043.043.038.06a.04.04 0 0 1-.012.03l-.082.07a.312.312 0 0 1 0 .087v.012l-.004.004-.031.012c0 .021-.01.031-.028.052l-.043.044v.004c.008.02.008.043-.009.078.021.039.021.066 0 .078l-.038.039-.009.004-.02.009v.008l.027.095h.008a.982.982 0 0 1 .217 0h.008v.004l.086.086v.004h.004l.051.146.106.1.043.016.005-.123.099.1.016-.017.07-.146.012-.082.013.004h.008l.074.004-.004-.06v-.02h.012l.1.004c.051-.052.074-.095.074-.132l-.016-.141.086.027.022-.039-.038-.039-.013-.016.078-.079.004.008h.009l.048.026v-.012l-.032-.07.013-.012.021-.013-.008-.026-.04-.074.008-.004.008-.008.107-.06.004-.043c-.091-.048-.139-.087-.131-.106.004-.017.012-.021.031-.021l.119.021.004-.07v-.008l.059-.06.016-.043a.142.142 0 0 1-.055-.039l-.004-.008v-.008l.004-.021-.004-.009-.008-.004-.004.004c-.008.017-.027.028-.057.028a.145.145 0 0 1-.105-.049v-.004h-.004l-.031-.055-.008.008a.111.111 0 0 1-.047.066c-.051.023-.099.031-.146.013a.106.106 0 0 1-.062-.071l-.012-.078c-.013-.074-.027-.117-.052-.129a.08.08 0 0 0-.065-.017l.004.066-.005.009z"/><path fill="#215F8B" d="M13.715 9.669a.398.398 0 0 1-.105.039.458.458 0 0 1-.118-.027l-.09-.012c-.027.012-.06.051-.103.117l.06.126-.099.055h-.004l-.08-.023c.032.06.041.095.028.109l-.009.031a.291.291 0 0 1-.051.09l-.137.122.034.021-.022.021c-.031.026-.039.06-.023.082l.094.146h.004v.004l.043.078v.004l.004.004-.004.009v.013l-.008.008c.021 0 .035.008.055.021.033.02.057.073.067.155l.017.08c.008.02.016.03.035.039.031.016.07.012.105-.013.02-.012.031-.022.027-.035l-.004-.004v-.009l.065-.047.009.008.051.087c.021.017.039.022.07.022l.021-.004-.018-.047.075.031h.025l.004.008.07.057.02-.032-.004-.134.004-.004.047-.06c.004-.008 0-.022-.02-.043l-.012-.012.008-.009.004-.008.012-.004.1-.162.008.004.021.004.008.006v.008l-.008.062h.008l.109-.1-.008-.051h-.02l-.039.004.066-.18-.059-.01h-.008v-.008l-.021-.023c-.012-.022-.012-.043.005-.062l.094-.004h.06c0-.02-.013-.055-.047-.113l-.082-.026.086-.082v-.021l-.043.01h-.017v-.006l-.004-.004-.004-.008c-.013-.039-.035-.07-.07-.083l-.157.004-.066.079v.004l-.02-.004-.248-.079.239-.062c.017 0 .056-.039.121-.117l-.082-.059-.069.019z"/><path fill="#80C3E2" d="M12.779 8.984h-.004v-.002c-.043-.15-.082-.232-.109-.244l-.138-.047c-.079-.023-.134-.039-.157-.056a.528.528 0 0 1-.148-.17H12.2l.004.004a.515.515 0 0 0 .105.166l.004.004.005.009-.063.112c-.023.043-.048.062-.07.056a.461.461 0 0 1-.1-.109l-.066-.02c0 .02.013.059.039.121v.014l-.012.045-.07.031-.022.008c-.012.012-.012.031-.008.056.008.06.004.094-.009.108-.008.009-.012.009-.021.009h-.003l-.079-.015c.005.016.017.03.035.043a.53.53 0 0 1 .103.146l.004.012.035-.008a.156.156 0 0 1 .121.026l.045.053.003.004v.003h-.004l-.006.102c.014.016.021.035.014.051-.008.02-.024.031-.053.035-.031 0-.047.021-.055.06v.004l-.031.067.047.047.104.02h.008l.051.055-.062.095.146.313.004.008-.022.027.008.024h.004l.267-.169-.043.078a.457.457 0 0 0-.062.146.187.187 0 0 0 .109-.118l.005-.008h.005l.074-.039.004-.008.104.094.118.004.004.004.057.037.145-.127a.246.246 0 0 0 .039-.074l.016-.03c.004-.017-.016-.056-.055-.122l-.035-.053.174.061.051-.027-.051-.109-.005-.004.087-.113-.039-.059c-.035-.039-.06-.06-.074-.06l-.008.005-.045.043-.008-.005h-.008l-.07-.022-.02-.063a.136.136 0 0 1-.078-.047l-.044-.026c-.035-.017-.056-.035-.056-.056-.008-.022 0-.051.023-.086.044-.063.066-.115.066-.153v-.054l.027.004.09.004a.358.358 0 0 0 .035-.116l-.027-.004a.655.655 0 0 1-.145.082c-.044.012-.099-.013-.178-.066v-.007l-.003-.004z"/><path fill="#666766" d="M12.352 6.353l-.012-.008c-.021 0-.039.02-.06.062l-.013-.008-.002.004.004.004-.036.036-.017.008-.043.023-.005.027c.005.044-.008.075-.026.087l-.017.047c-.004.012-.008.043-.004.086l.022.118c.009.016.029.035.068.052l.09.023a.178.178 0 0 0 .09-.035l-.021-.044v-.011l.009-.035v-.005l.043-.078h.073l.021-.004a.483.483 0 0 0-.074-.121l-.027-.039a.3.3 0 0 1-.035-.115c-.009-.035-.021-.059-.028-.074z"/><path fill="#023057" d="M11.994 6.204l-.008.012-.012-.004-.051-.008-.005.023v.012h-.013l-.082.031-.004.012c-.013.027 0 .051.028.082l.008.008-.008.012a.373.373 0 0 1-.1.106c-.016.012-.02.023-.02.035l.027.036.043.016.035.004c.047 0 .078.004.092.023l.039.027c.026.012.051.02.069.02.017 0 .035-.012.051-.043l.031-.035.022-.075-.02-.087.031.008.052.004.022-.016.009-.02-.039-.113.012-.039c.013-.023.027-.031.043-.035h.005l-.009-.028-.092.004v-.004l-.082-.059a.122.122 0 0 0-.102-.02l-.012.009c-.008.016 0 .031.023.039.021.015.029.035.017.063z"/><path fill="#509BC2" d="M13.459 5.206l-.047.062c-.008.012-.012.035-.004.074v.023h-.098l-.067-.02-.052.079-.008.01-.062.039-.055.06-.008.012-.098.113v.004h-.004l-.075.039-.06-.039v-.005l-.056-.059-.034-.02.026.16.023.087-.059.056-.08.122v.051l-.004.004h-.004l-.021.031.017.028h.03l.113.031h.008v.004h.004l.022.023.031.017h.008v.004c.014.016.021.031.021.047l.012.035.123.035.034-.008.035-.047.094-.182h.005v-.003l.043-.059.004-.004.074-.035.053-.004c.02-.031.035-.047.055-.047.012 0 .031.008.062.023l.008.004v.004l.065.102v.004h.004v.008l.009.075-.005.083-.02.07v.008h-.001l-.051.062-.022.051.004.087h.008l.027-.012.03-.027.009-.008.004-.008.04.035v.067h-.004l-.036.016-.013.016v.035l-.002.005-.024.043h-.004l-.008.004-.031.004-.031.008-.023.043.005.008.129-.016.024-.02.043-.113.289-.299h.01l.062-.031.004-.004v.004h.052l.051-.012.056-.023.039-.044.062-.173v-.004l.244-.256v-.004l-.016-.136a.074.074 0 0 1-.035-.023l-.008-.008v.004l-.039.003a.107.107 0 0 1-.048-.035l-.013-.023v-.004l-.002-.004V5.3a.21.21 0 0 1-.076-.051l-.051-.055-.047-.067c-.008-.016-.008-.039-.004-.075l.004-.02-.028-.035-.004.031-.035.067h-.012a.19.19 0 0 1-.082-.016c-.023-.008-.035-.028-.035-.052v-.014h-.021l-.075.02-.055-.055-.02-.004-.021.021.022.039.009.012-.039.083h-.005v.004h-.004l-.069.079-.004.004h-.009l-.109.011-.073-.021z"/><path fill="#043960" d="M13.545 4.003l-.016-.082-.039.023h-.004l-.094.035-.004-.008-.016-.003v.043l-.004.004-.047.071h-.004v.004h-.004l-.071.06h-.008v.008l-.011-.008c-.047-.02-.078-.044-.086-.063-.008-.008-.013-.008-.021-.012l-.051.008-.03.03.082.071.066.027.004.004h.004l.004.008v.004l.013.078h.005v.122l.016.071.047.109.056.051.043-.031.031-.039v-.003h.004l.056-.066.047.043v.008l.047.09.06.023.032.095v.008l-.004.087v.004h-.004l-.024.078.044.039.047-.023.047-.047.012.008.039.012.047.043.053-.012c.039-.012.059 0 .07.027v.035l.008.004.056.016.022-.051v-.02c0-.016.005-.031.017-.035l.031.004c.043.02.062.047.062.078l-.007.027v.048l.043.063.053.055c.016.02.035.027.055.035h.008c.014.008.021.027.021.07v.178c.008.016.02.027.031.031h.008c.022-.012.039-.008.059.012l.012.008c.02.004.035.02.039.051l.008.098.092-.184c.026-.099.059-.158.103-.166.035-.012.09.008.16.047l.256.021.008-.056-.118-.113c-.055-.031-.078-.055-.07-.07l.091.004c.083.027.161-.02.235-.154h.004l.086-.082.013-.181v-.02H15.386l.066-.016h.012l.008.004v.004l.138.146.04-.016.008-.023-.075-.071-.012-.008-.015-.013.114-.067-.008-.164-.048.008h-.004l-.062-.031a.367.367 0 0 1-.102-.048c-.023-.012-.039-.023-.039-.039v.004c0 .016-.004.023-.012.027-.012.008-.027.012-.057.012h-.003l-.006-.004h-.004l-.055-.039-.047.039c-.023.021-.039.036-.039.052l.022.051c.013.016.013.023.009.035-.009.012-.027.023-.056.027l-.022.012c-.027.008-.052.004-.066-.016l-.008-.012-.103-.106c-.048-.016-.075-.036-.087-.06-.008-.012-.012-.023-.008-.031a.168.168 0 0 0-.02-.071l-.021.012-.004.008c0 .012.004.024.017.04l.004.008.004.004-.004.008-.056.091-.09-.02-.019-.012v-.013a.066.066 0 0 0 0-.055l-.013-.031-.073-.056-.005-.004c-.009.012-.017.012-.024.016l-.069-.008c-.022-.004-.039-.008-.047-.023-.004-.008-.004-.023.004-.043l.004-.012-.03-.055-.139.008c.004.02 0 .031-.008.047-.004.012-.02.016-.031.016-.021.008-.044 0-.062-.02v-.004h-.004c-.031-.035-.043-.062-.043-.086l-.027-.04-.039.028c-.035.02-.059.02-.07.004l-.017-.004-.039.004-.106.035a.1.1 0 0 1-.059.02h-.012a.106.106 0 0 1-.078-.027l-.063-.051-.081-.123z"/><path fill="#509BC2" d="M15.989 3.265l-.059-.385.004-.008h.004c.027-.043.044-.078.035-.105l-.016-.024c-.044-.027-.062-.09-.052-.196h-.035c-.026-.004-.06.008-.09.027-.031.023-.052.051-.056.07-.016.048-.066.079-.153.107l-.021.121v.004l-.003.004-.043.078-.004.008h-.008l-.389.071h-.015v-.008l-.115-.122.035-.035-.043-.059-.056-.039-.004-.004h-.004v-.007l-.021-.106-.098.007-.008-.008-.086-.052-.311-.055-.261-.012-.006.008c-.013 0-.021-.004-.022-.012l-.15-.338a2.669 2.669 0 0 0-.203-.262 3.181 3.181 0 0 0-.205-.239l-.219-.216-.036-.02L13 1.454h-.004l-.008-.008a.308.308 0 0 0-.126-.051c-.052-.02-.169.02-.354.117l-.008.004.008.055h.004v.004h-.004v.008l-.031.063v.004h-.004l-.004.043c0 .036.008.075.021.106l.028.02.059-.004.053.012.02-.016c0-.035.012-.062.027-.07h.039l.137.039.031.004-.044.074v.09c0 .021.035.067.105.135.044.031.07.047.095.051l.021-.004.02-.008.066-.067.051-.031V2.02l.107-.016.03-.067.095-.055.082.047v.004l.008.004.078.135.031.09v.011l-.016.109.031.075v.012l-.023.087v.078a.8.8 0 0 1 .036.13l-.008.066v.004l-.04.056v.004l-.039.047-.004.086.023.091.004.004-.003.004-.024.137-.021.02c-.016.012-.034.012-.059 0h-.009l-.033-.039-.039.012-.051.054-.055.161v.004l-.006.004-.055.047h-.008l-.032.004-.062.091.03.059.009.008.078.098v.036l.088.012.016.079v.004l.012.094.023.02.078-.023.073-.043.013-.008.027.133.035.052.008.004.028.055.06.048c.008.012.026.012.047.012l.02.004.035-.016a.306.306 0 0 1 .087-.028l.022-.012.056-.004c.021 0 .028.004.04.016l.079-.051h.008l.008.004.004-.004.008.008c.031.035.047.067.047.083l.035.059.028.008h.008l-.009-.008c-.005-.02-.005-.031 0-.039.008-.012.022-.02.047-.02l.146-.004.004-.007h.008v.008h.008l.043.082-.004.043h-.004l.055.012h.004c-.004-.012-.004-.02.004-.027l.021-.004.131.09a.072.072 0 0 1 .022.048l.004.055.043.008.027-.047c-.012-.023-.02-.048-.016-.063s.008-.027.023-.035l.012-.012c0-.008.004-.012.012-.016l.035.004c.02.012.035.051.043.118v.008l.008.004c.004.016.028.027.062.039h.004l.005.004.126.13.059-.02-.008-.02a.083.083 0 0 1-.02-.051c0-.027.02-.056.059-.083l.066-.06.078.056h.017l.017-.087v-.017l.016-.004.062.008c.012.012.02.023.02.043 0 .017-.012.036-.022.052l.013.008c.039.02.069.035.094.039h.004l.051.028.04-.004-.062-.287a.377.377 0 0 1-.109-.126c-.027-.048-.012-.114.051-.192.035-.039.078-.078.126-.118l.004-.008h.056l.004.008.048.021h.098c.039-.021.074-.079.114-.174.02-.055.02-.169.003-.346zM13.723 7.174l-.008.004c0 .02-.013.031-.031.031l-.154-.016a.853.853 0 0 1-.211-.055l-.217.205.008.086v.008l-.02.004c-.17.023-.261.008-.271-.047l-.02-.243-.197-.012-.082.173-.008-.074c-.004-.06-.017-.095-.027-.103l-.086.043-.04.052-.004.004h-.004l-.078.027c-.088.07-.162.145-.229.224l-.208.282.043.099v.016l-.004.004c-.016.023-.008.06.016.099a.343.343 0 0 1 .049.168v.01l-.17.1v.039l.078.035c.009.004.013.012.013.016v.008c-.004.02.026.047.087.074l.145.039.043-.027.049-.066.039-.113.113.043.016.012v.01c-.02.047-.008.078.027.098l.125.004a.227.227 0 0 0 .104-.043c.016-.02.039-.023.073-.02.043.008.082.023.109.059l.027-.066.008-.012h.004c.02-.012.032-.031.049-.059a.157.157 0 0 1 .062-.075l.056-.031.003-.004.004.004h.004l.031.008.008.004.043-.196v-.005l.062-.012c.062-.043.095-.079.091-.11l-.012-.06c-.017-.039-.017-.066-.009-.078.013-.012.021-.016.031-.016.027 0 .061.008.092.023l.008-.062v-.007l.004-.004.066-.031.008-.035h-.039l-.008-.004.004-.02v-.012l.004-.009H13.413c.027 0 .06-.016.095-.047l.248-.177h.008l.078.035.03-.004-.021-.082V7.28l.005-.004.004-.004.044-.071-.014-.008-.027.008v.004h-.004l-.078.012h-.024v-.004l-.004-.012-.017-.027h-.013z"/><path fill="#215F8B" d="M14.072 9.511l.028-.031v-.003l-.099-.078c-.052-.035-.095-.047-.127-.043l-.043.016v.082a.172.172 0 0 1-.047.082l-.017.017.039.047h.004l.013.031.047.019c.028-.021.048-.027.067-.023l.082.018.006-.031c.004-.055.024-.089.047-.103z"/><path fill="#80C3E2" d="M13.502 8.648a.449.449 0 0 1-.113-.198c-.113 0-.181-.02-.213-.059-.022-.035-.069-.059-.137-.078l-.019-.003.02-.067-.012-.008-.02-.004c-.048.023-.08.048-.092.079a.226.226 0 0 1-.06.078c-.021.062-.039.094-.06.094-.012.004-.02-.004-.027-.016l-.03-.027a.16.16 0 0 0-.065-.023l-.039.007a.206.206 0 0 1-.127.055l-.148-.008c-.048-.023-.066-.07-.056-.129l-.056-.02-.026.078v.004l-.004.004-.013.016.035.008h.008l.005.004v.004a.758.758 0 0 0 .146.167c.016.008.062.022.146.047l.143.051c.043.02.086.105.133.26.062.043.104.062.13.059a1.16 1.16 0 0 0 .142-.082l.004-.004.003-.006.009.005.069.017h.008v.012l-.004.013a.433.433 0 0 1-.059.163l-.094.005v.004c0 .039-.027.099-.079.174a.093.093 0 0 0-.021.055l.092.062c.022.026.039.034.059.034h.02l.02.065.043.017.022-.023c.013-.012.029-.021.041-.016.039 0 .07.022.109.074l.035.048.002-.007c.023-.016.066-.012.129.01l.104.022.095-.032.039-.02.026-.021-.022-.026c-.008-.017 0-.037.021-.057.022-.02.039-.039.039-.062V9.4c-.009-.022-.004-.039.004-.047.008-.016.035-.022.065-.031.052-.008.114.017.188.078l-.027-.078-.043-.06-.009-.071-.066-.011h-.004v-.003l-.177-.103-.086-.016v-.02l-.004-.09c-.059-.165-.107-.264-.142-.3zM12.822 6.232l-.031-.016h-.004l-.023-.024-.11-.032h-.027l-.02.008-.045-.083.005-.004.03-.039v-.047l.004-.008.021-.031-.016-.008-.061-.012-.101-.016h-.009l-.059-.059v-.002l-.02-.04-.004-.012.031-.083V5.65l-.031.031-.004.004-.008.012-.008-.012-.012-.004-.059-.047-.008-.008v-.008l-.013-.086-.026-.044-.061.004-.035.063-.004.008-.004.004-.094-.02-.017.086v.086l-.004.004-.05.08v.008l-.008.004h-.004l-.061.004-.06.048-.009.008h-.008l-.004-.004-.109-.036-.016.04v.004l-.047.078a.053.053 0 0 1-.031.027l-.048-.008-.061-.028-.008-.008-.004-.004v-.003l-.013-.095-.021-.07-.012-.021-.025.056-.046.063-.039.09v.008h-.004l-.035.051c0 .016-.012.039-.035.074l.023.091.116.13.039.082V6.4l-.004.008h-.004l-.031.04-.008.008-.078.016.009.062.059.032.086.02.023.078v.008l-.021.134v.004l-.031.059v.013h-.008l-.099.016v.039l-.025.084-.012.098.02.056.121.075.004.004.051.086v.003l.004.004-.004.004-.062.138-.017.039-.038.091-.016.07-.004.008v.004a.108.108 0 0 0-.039.055c-.004.008-.004.016.004.023l.004.004.039.044.021.031.008-.004.004.012v.02l.009.023.034.013.142.031a.36.36 0 0 0 .139-.031.236.236 0 0 1 .138-.017l.009-.027-.049-.106-.006-.009h.004l.225-.311.24-.231h.004l.074-.027.039-.043v-.004a.348.348 0 0 1 .09-.052l-.023-.02-.051-.051v-.003h-.004l-.039-.047-.006-.008v-.008l.021-.023-.052.012-.11-.027c-.044-.02-.07-.044-.079-.071a.514.514 0 0 1-.026-.188c-.017.02-.035.023-.056.023l-.082-.02-.056-.039-.067-.016h-.032a.09.09 0 0 1-.059-.023c-.023-.016-.035-.031-.039-.047-.008-.032 0-.052.027-.071s.059-.052.086-.091c-.027-.035-.039-.07-.027-.105l.004-.004c.004-.02.036-.035.096-.055.004-.02.012-.032.02-.036l.061.004-.01-.008c-.038-.023-.052-.051-.03-.083l.03-.023a.15.15 0 0 1 .121.016l.091.063h.082l.028.023.008.032c0 .02-.012.031-.026.031-.021 0-.028.02-.032.043l.04.094c.023-.035.047-.055.07-.059.012 0 .026.008.039.023a.35.35 0 0 1 .03.09.313.313 0 0 0 .026.099l.031.044a.374.374 0 0 1 .084.137l.152-.02.066-.035.062-.078.028-.075V6.486l.02-.079v-.004l.004-.008h.004l.06-.039.013-.008-.004-.004-.1-.031h-.007V6.31l-.021-.059-.007-.019z"/><path fill="#80C3E2" d="M10.846 8.446h-.002l-.299.123-.091.087c-.017.133 0 .212.047.234l.087.056h.004v.004l.023.146a.579.579 0 0 0 .152.161l.086.02.013.004v.004c.013.017.04.031.091.048l.235.012c.173 0 .271.013.291.031.021.016.022.055.021.112-.005.039 0 .063.004.067l.086-.021c.066-.023.105-.023.125-.004l.031.039c.047.06.079.084.088.08a.195.195 0 0 0 .077-.071l.009-.013.07.043.043-.035c.012-.055.039-.082.086-.086l.02-.008-.008-.017-.008-.008.004-.005.004-.098c-.031-.047-.069-.062-.112-.055-.044.012-.074.012-.087-.004-.008-.014-.008-.021-.008-.036a.728.728 0 0 0-.09-.119c-.049-.039-.061-.073-.049-.108l.008-.012.11.02-.008-.066c-.005-.04 0-.066.021-.087.008-.017.027-.022.047-.026l.047-.018v-.02c-.035-.074-.047-.129-.03-.152l.022-.02a.27.27 0 0 1 .105.022l.004.004v.009c.043.051.066.081.079.09l.075-.121a.99.99 0 0 1-.115-.167l-.059.041-.008-.008-.156-.041h-.004v-.003c-.067-.031-.107-.066-.111-.102l-.094-.043v-.091l.172-.103a.542.542 0 0 0-.038-.133l-.027-.055-.118.012a.395.395 0 0 1-.156.035l-.123-.027v-.042l-.02-.004-.035-.013-.008-.023v-.004l-.004-.012v-.015l-.008.004-.007.103-.004.035c-.008.02-.017.031-.008.039.02.027.016.059-.005.086l.017.067-.004.004-.008.004-.048.043v.091l-.011.003a.543.543 0 0 1-.182.059l-.171-.012-.076.066h-.004z"/><path fill="#215F8B" d="M14.258 11.695a.781.781 0 0 0-.275.342c-.051.117-.09.177-.118.191l.028.217v.004l-.021.148c-.008.049 0 .079.012.088l.162.105h.004l.004.012a.28.28 0 0 0 .062.105.14.14 0 0 0 .051.043l.023-.26v-.008l.113-.273.041-.326v-.003l.004-.004.035-.088-.027-.074v-.004h-.004l-.008-.102.004-.005.004-.004.02-.022.012-.027-.126-.055zM10.387 13.992l-.012.021v.005l-.004.008-.16.039.008.021.051.06a.04.04 0 0 0-.012.004l-.078.039-.119.09c-.038.047-.03.135.027.265l.119.012h.004v.005l.117.055.126-.021c.052-.012.11-.06.185-.149h.004l.009-.008.055-.016-.016-.165v-.008l.069-.103v-.004h.004l.057-.044a.189.189 0 0 0-.016-.126c-.018-.031-.037-.043-.057-.043l.008.059-.104-.02-.048.025h-.217z"/></svg>