<svg xmlns="http://www.w3.org/2000/svg" viewBox="0 0 16 16"><path d="M8 7.5a.302.302 0 0 1-.093.22L5.532 9.907c-.062.063-.136.093-.22.093s-.157-.03-.22-.093A.299.299 0 0 1 5 9.688V8H3.5a.5.5 0 0 1 0-1H5V5.312a.3.3 0 0 1 .093-.22.304.304 0 0 1 .439.001L7.907 7.28A.303.303 0 0 1 8 7.5zm1 0c0 .084.031.158.093.22l2.375 2.188c.062.062.136.092.22.092s.157-.03.22-.093A.299.299 0 0 0 12 9.688V8h1.5a.5.5 0 0 0 0-1H12V5.312a.3.3 0 0 0-.093-.22.304.304 0 0 0-.439.001L9.093 7.28A.303.303 0 0 0 9 7.5zM7 2v2h1V2a1 1 0 0 0-1-1H2a1 1 0 0 0-1 1v11a1 1 0 0 0 1 1h5a1 1 0 0 0 1-1v-2H7v2H2V2h5m3 0h5v11h-5v-2H9v2a1 1 0 0 0 1 1h5a1 1 0 0 0 1-1V2a1 1 0 0 0-1-1h-5a1 1 0 0 0-1 1v2h1V2"/></svg>