<svg xmlns="http://www.w3.org/2000/svg" viewBox="0 0 16 16"><path d="M13.136 4h-.578c-1.291 0-1.289-2-2.201-2H4.863A1.864 1.864 0 0 0 3 3.864V6h1V3.864C4 3.388 4.388 3 4.863 3h5.304c.062.096.141.24.198.347C10.7 3.965 11.261 5 12.558 5h.578c.444 0 .864.486.864 1v6.137a.865.865 0 0 1-.864.863H4.863A.865.865 0 0 1 4 12.137V11H3v1.137C3 13.166 3.835 14 4.863 14h8.272c1.03 0 1.865-.834 1.865-1.863V6c0-1.029-.835-2-1.864-2z"/><path d="M7.771 10.841L9.85 8.812l.005-.008c.044-.044.081-.149.106-.207.021-.054.029-.01.033-.064 0-.012.006-.022.006-.033 0-.008-.004-.014-.004-.021a.411.411 0 0 0-.035-.146.514.514 0 0 0-.09-.135c-.008-.01-.012-.024-.021-.033L7.771 6.088c-.2-.201-.525-.109-.725.092a.512.512 0 0 0 0 .726l1.201 1.109-6.713.001c-.293 0-.531.2-.53.483-.001.283.237.464.531.464h6.713l-1.201 1.243a.514.514 0 0 0 0 .727c.1.1.23.059.362.059s.263-.052.362-.151z"/></svg>