<svg xmlns="http://www.w3.org/2000/svg" viewBox="0 0 16 16"><path d="M9.21 7.248l-.633 4.457c.25.182.423.462.423.795a1 1 0 1 1-2 0c0-.436.281-.796.668-.934l1.055-4.434.487.116zm5.308-.789l-1.732 1.167c.125.439.214.895.214 1.374 0 .795-.203 1.537-.533 2.205l1.654 1.187a6.956 6.956 0 0 0 .397-5.933zM3.411 3.723A6.978 6.978 0 0 0 1 9c0 1.23.32 2.386.877 3.391l1.655-1.187A4.966 4.966 0 0 1 3 9c0-1.417.595-2.689 1.541-3.599l-1.13-1.678zM8 2a6.967 6.967 0 0 0-3.789 1.119l1.121 1.665A4.965 4.965 0 0 1 8 4c1.919 0 3.564 1.093 4.403 2.679l1.681-1.133A6.993 6.993 0 0 0 8 2z"/></svg>