<svg xmlns="http://www.w3.org/2000/svg" viewBox="0 0 16 16"><path d="M2.821 3.078h6.085s.992.031 1.01.902c.018.881-1.01.883-1.01.883H5.634s-.775-.118-1.085.695c-.12.315-1.148 3.184-1.548 4.442-.113.355.157.451.377.457.23.008.437.004.628 0 .256-.002.473-.1.592-.457.256-.777 1.089-2.85 1.197-3.123.279-.705.645-.633 1.049-.633h7.683c.955 0 1.313.516 1.036 1.312L14.4 13.271c-.297.917-1.19 1.729-2.145 1.729H2.854C1.858 15 1 14.15 1 13.195v-8.35c0-.954.867-1.767 1.821-1.767zm9.111 1.104c-.456-.036-.543-.061-.135-.468.285-.312.649-.603.649-.603.011-.028-.284-.748-1.487-1.273s-2.951-.011-3.422.232c-.223.191-.9.299-.285-.325C8.293.768 9.768.156 11.365.611c1.486.427 2.178 1.287 2.23 1.405-.007.009-.009.015.001.015 0 0 .003-.006-.001-.015.032-.044.254-.207.635-.558.326-.332.421-.25.459.154.047.76.021 2.929.021 2.929s-2.032-.252-2.778-.359z"/></svg>