<svg xmlns="http://www.w3.org/2000/svg" viewBox="0 0 16 16"><path d="M9.291 9.536c.13.222.209.477.209.752a1.5 1.5 0 1 1-1.5-1.5c.075 0 .146.011.218.022l4.03-5.033.33.207-3.287 5.552zM8 4c.644 0 1.262.107 1.844.297.044.014.5.094.672-.297.163-.371-.173-.595-.312-.642A7 7 0 0 0 1 10c0 .647.095 1.271.26 1.866 0 0 .288.441.725.215.361-.188.242-.451.211-.571A5.88 5.88 0 0 1 2 10c0-3.309 2.691-6 6-6zm4.938 1.828c-.297.297-.07.678-.043.718a5.955 5.955 0 0 1 .875 5.097c-.022.075.001.471.324.536.491.1.646-.312.646-.312a6.947 6.947 0 0 0-1.078-5.979c-.091-.125-.504-.281-.724-.06z"/></svg>