<svg xmlns="http://www.w3.org/2000/svg" viewBox="0 0 16 16"><path d="M8 1a7 7 0 1 0 .001 13.999A7 7 0 0 0 8 1zm5.984 6.5h-2.138a.972.972 0 0 0-.685-.467l-2.35-3.581A.968.968 0 0 0 9 2.9a.992.992 0 0 0-.564-.89 6.004 6.004 0 0 1 5.548 5.49zm-5.52 1.629A.975.975 0 0 0 8 9a.983.983 0 0 0-.435.109L5.988 8.058C5.989 8.038 6 8.021 6 8a.977.977 0 0 0-.134-.472L8.049 3.89c.006 0 .011-.003.018-.003L10.16 7.49A.97.97 0 0 0 10 8c0 .023.012.042.013.065L8.464 9.129zm-.9-7.119A.993.993 0 0 0 7 2.9c0 .194.07.365.166.519l-2.15 3.584C5.01 7.003 5.005 7 5 7a.986.986 0 0 0-.847.5H2.014a6.006 6.006 0 0 1 5.55-5.49zM2.014 8.5h2.14c.173.293.48.5.846.5a.983.983 0 0 0 .435-.109l1.577 1.052C7.01 9.963 7 9.979 7 10c0 .366.207.673.5.847v3.14A6.007 6.007 0 0 1 2.014 8.5zM8.5 13.986v-3.14c.293-.173.5-.48.5-.846 0-.018-.009-.031-.01-.049l1.672-1.02c.107.04.218.069.338.069a.987.987 0 0 0 .847-.5h2.138A6.004 6.004 0 0 1 8.5 13.986z"/></svg>