<svg xmlns="http://www.w3.org/2000/svg" viewBox="0 0 24 24"><path d="M17.43 7h-11V6h11v1zm0 1.104h-11v1h11v-1zm3.5-2.535c0-1.378-1.121-2.5-2.5-2.5h-13a2.503 2.503 0 0 0-2.5 2.5v10.996h6.5v-.5c0-1.391 1.145-2.564 2.5-2.564 1.363 0 2.516 1.174 2.516 2.564v.5h6.484V5.569zm-9 6.931c-1.763 0-3.226 1.335-3.466 3.064H3.93V5.569c0-.827.673-1.5 1.5-1.5h13c.827 0 1.5.673 1.5 1.5v9.996h-4.521c-.248-1.706-1.741-3.065-3.479-3.065zm9 7v-1.125h-1V19.5c0 .827-.673 1.5-1.5 1.5h-13c-.827 0-1.5-.673-1.5-1.5v-1.375h-1V19.5c0 1.379 1.122 2.5 2.5 2.5h13c1.379 0 2.5-1.121 2.5-2.5zm-3.5-9.396h-11v1h11v-1z"/></svg>