<svg xmlns="http://www.w3.org/2000/svg" viewBox="0 0 16 16"><path d="M2.953 1.5a.5.5 0 0 1 .5-.5h10a.5.5 0 0 1 0 1h-10a.5.5 0 0 1-.5-.5zm6.028 11.986V5.752l2.4 2.401a.513.513 0 1 0 .726-.726L8.831 4.15c-.01-.01-.022-.013-.032-.021a.51.51 0 0 0-.135-.089.53.53 0 0 0-.175-.035c-.008 0-.013-.005-.021-.005-.012 0-.021.007-.032.007a.555.555 0 0 0-.165.032.52.52 0 0 0-.159.106l-.008.005-3.276 3.278a.51.51 0 0 0 0 .725c.201.2.525.2.726 0l2.401-2.401v7.734c0 .284.225.514.508.514s.518-.23.518-.514z"/></svg>