<svg xmlns="http://www.w3.org/2000/svg" viewBox="0 0 24 24"><path d="M13.2 10.7h-2.6v2.6h2.6v-2.6zm-1.3 8.2H4.7C2.3 18.9.4 17 .4 14.6c0-2.1 1.4-3.8 3.4-4.2.4-3.9 3.7-6.8 7.6-6.8 3 0 5.8 1.8 7 4.5 2.8.2 5 2.6 5 5.4 0 3-2.4 5.4-5.4 5.4h-2.1c-.3 0-.5-.2-.5-.5s.2-.5.5-.5H18c2.4 0 4.4-2 4.4-4.4 0-2.4-1.9-4.4-4.3-4.4h-.3l-.1-.3c-1-2.5-3.5-4.2-6.2-4.2C8 4.6 5 7.4 4.8 10.9v.4h-.4c-1.7.2-2.9 1.6-2.9 3.3 0 1.8 1.5 3.3 3.3 3.3H12c.3 0 .5.2.5.5s-.3.5-.6.5zm0-1.9c-2.8 0-5-2.2-5-5s2.2-5 5-5 5 2.2 5 5-2.2 5-5 5zm0-9c-2.2 0-4 1.8-4 4s1.8 4 4 4 4-1.8 4-4-1.8-4-4-4z"/></svg>