<svg xmlns="http://www.w3.org/2000/svg" viewBox="0 0 16 16"><path d="M3.233 15h-2v-2.334l2-1.609V15zm3.917-4.75L6.136 9.068l-.986.801V15h2v-4.75zm3.916-.787l-2 1.865V15h2V9.463zm3.917-3.526l-2 1.891V15h2V5.937zM14.733 4a.5.5 0 0 0-.767-.641l-5.25 4.987-2.597-2.551L1.2 9.84a.5.5 0 0 0 .599.801l4.286-3.51 2.647 2.62L14.733 4zm1.038 1.052l.001-2.766a.507.507 0 0 0-.511-.512l-2.768.001a.497.497 0 0 0-.364.146.5.5 0 0 0-.15.366.5.5 0 0 0 .148.363l2.767 2.766c.1.1.22.149.363.149a.493.493 0 0 0 .365-.149.494.494 0 0 0 .149-.364z"/></svg>