<svg xmlns="http://www.w3.org/2000/svg" viewBox="0 0 24 24"><path d="M22.9 3.5c0 .3-.2.5-.5.5H3.9v10.5c0 .8.7 1.5 1.5 1.5h13c.8 0 1.5-.7 1.5-1V6.5c0-.3.2-.5.5-.5s.5.2.5.5V15c0 .9-1.1 2-2.5 2h-4.8l4 4c.2.2.2.5 0 .7-.2.2-.5.2-.7 0L12.2 17h-.4l-4.7 4.7c-.2.2-.5.2-.7 0-.2-.2-.2-.5 0-.7l4-4h-5c-1.4 0-2.5-1.1-2.5-2.5V4H1.4c-.3 0-.5-.2-.5-.5s.2-.5.5-.5h9.5V2h2v1h9.5c.3 0 .5.2.5.5zm-6.1 3l-2.8.6c-.2 0-.3.2-.4.3l-1.1 3.4-1.4-2.1c-.1-.2-.3-.2-.5-.2s-.3.2-.4.3l-.9 2.7-1-.9c-.1-.1-.3-.2-.5-.1-.2 0-.3.2-.4.3l-1.2 3.1c-.1.3 0 .5.3.6h.2c.2 0 .4-.1.5-.3l1-2.4 1 .9c.1.1.3.2.5.1.2 0 .3-.2.3-.3l.8-2.4 1.4 2.1c.1.2.3.2.5.2s.3-.2.4-.3L14.5 8l2.5-.5c.3-.1.4-.3.4-.6-.1-.3-.3-.4-.6-.4z"/></svg>