<svg xmlns="http://www.w3.org/2000/svg" viewBox="0 0 24 24"><path d="M7.916 8l6.668 4-6.668 4V8zm15.576 1.646a.5.5 0 0 0-.707 0l-1.812 1.812C20.688 5.92 16.105 1.5 10.5 1.5 4.711 1.5 0 6.209 0 12c0 5.79 4.711 10.5 10.5 10.5 4.314 0 8.253-2.705 9.802-6.729a.499.499 0 1 0-.932-.359c-1.401 3.641-4.967 6.088-8.868 6.088-5.238 0-9.5-4.262-9.5-9.5s4.262-9.5 9.5-9.5c5.065 0 9.205 3.988 9.476 8.987L18.121 9.63a.5.5 0 0 0-.707.707l2.695 2.695a.504.504 0 0 0 .708 0l2.681-2.68a.503.503 0 0 0-.006-.706z"/></svg>