<svg xmlns="http://www.w3.org/2000/svg" viewBox="0 0 16 16"><path d="M15.814 7.667l-2.32 2.32c-.119.118-.281.186-.449.186s-.328-.067-.449-.186l-2.318-2.32a.636.636 0 0 1 .898-.897l1.234 1.236V8a5.575 5.575 0 0 0-5.57-5.57C3.769 2.43 1.27 4.928 1.27 8s2.499 5.57 5.57 5.57a5.542 5.542 0 0 0 3.941-1.631.633.633 0 1 1 .896.896 6.789 6.789 0 0 1-4.837 2.004C3.068 14.838 0 11.771 0 8s3.068-6.84 6.84-6.84A6.847 6.847 0 0 1 13.68 8v.006l1.236-1.236a.635.635 0 0 1 .898.897zm-6.07.235l-5-3v6l5-3z"/></svg>