<svg xmlns="http://www.w3.org/2000/svg" viewBox="0 0 24 24"><path d="M19 12.5a.5.5 0 0 1-.5.5h-12a.5.5 0 0 1 0-1h12a.5.5 0 0 1 .5.5zm-.5 2.5h-12a.5.5 0 0 0 0 1h12a.5.5 0 0 0 0-1zm0 3h-12a.5.5 0 0 0 0 1h12a.5.5 0 0 0 0-1zM23 5v3.199a.5.5 0 0 1-1 0V5.414L19.586 3H19v4c0 .878-1.121 2-2.5 2h-8A2.503 2.503 0 0 1 6 6.5V3H4.5C3.673 3 3 3.673 3 4.5v15c0 .827.673 1.5 1.5 1.5h16c.827 0 1.5-.673 1.5-1v-6.837a.5.5 0 0 1 1 0v6.865h-.004C22.973 20.902 21.864 22 20.5 22h-16A2.503 2.503 0 0 1 2 19.5v-15C2 3.122 3.122 2 4.5 2H20l3 3zm-5-2h-3v3h-3V3H7v3.5C7 7.327 7.673 8 8.5 8h8c.827 0 1.5-.673 1.5-1V3z"/></svg>