<svg xmlns="http://www.w3.org/2000/svg" viewBox="0 0 16 16"><path d="M12.2 1H2.5C1.6 1 1 1.7 1 2.5v11c0 .8.6 1.5 1.5 1.5h11c.8 0 1.5-.7 1.5-1.5V3.3L12.2 1zM5 2h1.5v2h3V2H11v3.5c0 .3-.3.5-.5.5h-5c-.3 0-.5-.2-.5-.5V2zm9 11.5c0 .3-.2.5-.5.5h-11c-.3 0-.5-.2-.5-.5v-11c0-.3.2-.5.5-.5H4v3.5C4 6.3 4.6 7 5.5 7h5c.8 0 1.5-.7 1.5-1.5V2l2 1.7v9.8zm-2-5c0 .3-.3.5-.5.5h-7c-.3 0-.5-.2-.5-.5s.2-.5.5-.5h7c.2 0 .5.2.5.5zm0 2c0 .3-.2.5-.5.5h-7c-.3 0-.5-.2-.5-.5s.2-.5.5-.5h7c.2 0 .5.2.5.5zm0 2c0 .3-.2.5-.5.5h-7c-.3 0-.5-.2-.5-.5s.2-.5.5-.5h7c.2 0 .5.2.5.5z"/></svg>