<svg xmlns="http://www.w3.org/2000/svg" viewBox="0 0 16 16"><path d="M11 8.5c0 .3-.2.5-.5.5h-6c-.3 0-.5-.2-.5-.5s.2-.5.5-.5h6c.3 0 .5.2.5.5zm1 2c0-.3-.2-.5-.5-.5h-7c-.3 0-.5.2-.5.5s.2.5.5.5h7c.3 0 .5-.2.5-.5zm0 2c0-.3-.2-.5-.5-.5h-7c-.3 0-.5.2-.5.5s.2.5.5.5h7c.3 0 .5-.2.5-.5zm2.5-2.5c-.3 0-.5.2-.5.5v3c0 .3-.2.5-.5.5h-11c-.3 0-.5-.2-.5-.5v-11c0-.3.2-.5.5-.5H4v3.5C4 6.3 4.7 7 5.5 7h7.8l-1.1 1.1c-.2.2-.2.5 0 .7.2.2.5.2.7 0l2-2c.1 0 .1-.1.1-.3 0-.1-.1-.3-.2-.4l-2-2c-.2-.2-.5-.2-.7 0-.2.2-.2.5 0 .7L13.2 6H5.5c-.3 0-.5-.2-.5-.5V2h2v2h3V1.5c0-.3-.2-.5-.5-.5h-7C1.7 1 1 1.7 1 2.5v11c0 .8.7 1.5 1.5 1.5h11c.8 0 1.5-.7 1.5-1.5v-3c0-.3-.2-.5-.5-.5z"/></svg>