<svg xmlns="http://www.w3.org/2000/svg" viewBox="0 0 24 24"><path d="M5.93 12.5a.5.5 0 0 1 .5-.5h9a.5.5 0 0 1 0 1h-9a.5.5 0 0 1-.5-.5zm12.5 2.5h-12a.5.5 0 0 0 0 1h12a.5.5 0 0 0 0-1zm0 3h-12a.5.5 0 0 0 0 1h12a.5.5 0 0 0 0-1zm4-5.337a.5.5 0 0 0-.5.5V20c0 .327-.673 1-1.5 1h-16c-.827 0-1.5-.673-1.5-1.5v-15c0-.827.673-1.5 1.5-1.5h1.5v3.5c0 1.378 1.121 2.5 2.5 2.5h12.748v.016l-1.854 1.854a.512.512 0 1 0 .724.726l2.73-2.729.004-.008a.518.518 0 0 0 .107-.159.55.55 0 0 0 .033-.164c0-.012.006-.021.006-.032 0-.008-.004-.014-.004-.021a.612.612 0 0 0-.035-.174.536.536 0 0 0-.09-.136c-.008-.01-.012-.022-.021-.032l-2.75-2.748a.511.511 0 0 0-.725 0 .511.511 0 0 0 0 .725l1.873 1.873V8H8.43c-.827 0-1.5-.673-1.5-1.5V3h6v3h3a.5.5 0 0 0 .5-.5V4c0-.818-.977-1.835-2.223-1.973V2H4.43a2.503 2.503 0 0 0-2.5 2.5v15c0 1.379 1.122 2.5 2.5 2.5h16c1.364 0 2.473-1.098 2.496-1.972h.004v-6.865a.5.5 0 0 0-.5-.5z"/></svg>