<svg xmlns="http://www.w3.org/2000/svg" viewBox="0 0 16 16"><path d="M3.093 7.28l2.375-2.188c.062-.061.136-.092.22-.092s.157.031.22.093A.3.3 0 0 1 6 5.312V7h1.5a.5.5 0 0 1 0 1H6v1.688c0 .084-.03.158-.093.22-.062.062-.136.092-.219.092s-.158-.03-.22-.093L3.093 7.72C3.031 7.658 3 7.584 3 7.5s.031-.157.093-.22zm10.814 0l-2.375-2.188c-.062-.061-.136-.092-.22-.092s-.157.031-.22.093a.3.3 0 0 0-.092.219V7H9.5a.5.5 0 0 0 0 1H11v1.688c0 .084.03.158.093.22.062.062.136.092.219.092s.157-.03.22-.093l2.375-2.188a.303.303 0 0 0 0-.439zM7 2v2h1V2a1 1 0 0 0-1-1H2a1 1 0 0 0-1 1v11a1 1 0 0 0 1 1h5a1 1 0 0 0 1-1v-2H7v2H2V2h5m3 0h5v11h-5v-2H9v2a1 1 0 0 0 1 1h5a1 1 0 0 0 1-1V2a1 1 0 0 0-1-1h-5a1 1 0 0 0-1 1v2h1V2"/></svg>