<svg xmlns="http://www.w3.org/2000/svg" viewBox="0 0 16 16"><path d="M14 5v9a1 1 0 0 1-1 1H4a1 1 0 0 1-1-1V5h2.552c1.138 0 1.138 1 0 1H4v8h9V6h-1.484c-1.138 0-1.138-1 0-1H14zm-3.15-1.771L8.821 1.15l-.008-.004c-.044-.045-.149-.082-.208-.107-.053-.021-.009-.029-.064-.033-.012 0-.021-.006-.032-.006-.008 0-.014.004-.022.004a.411.411 0 0 0-.146.035.54.54 0 0 0-.135.09c-.01.008-.023.012-.032.021L6.097 3.229c-.201.2-.109.525.092.725.2.201.525.201.726 0l1.109-1.201.001 6.714c0 .293.2.531.483.53.283.001.464-.237.464-.531V2.752l1.243 1.201a.514.514 0 0 0 .727 0c.1-.1.059-.23.059-.362s-.052-.263-.151-.362z"/></svg>