<svg xmlns="http://www.w3.org/2000/svg" viewBox="0 0 16 16"><path d="M11.5 9c-.798 0-1.5.381-1.957.962L6.906 8.644C6.961 8.437 7 8.224 7 8s-.039-.437-.094-.644l2.637-1.318A2.482 2.482 0 0 0 11.5 7 2.5 2.5 0 1 0 9 4.5c0 .224.039.437.094.644L6.458 6.462A2.485 2.485 0 0 0 4.5 5.5a2.5 2.5 0 1 0 0 5c.798 0 1.5-.381 1.958-.962l2.636 1.318c-.055.206-.094.42-.094.644A2.5 2.5 0 1 0 11.5 9zm0-6c.827 0 1.5.673 1.5 1.5S12.327 6 11.5 6 10 5.327 10 4.5 10.673 3 11.5 3zm-7 6.5C3.673 9.5 3 8.827 3 8s.673-1.5 1.5-1.5S6 7.173 6 8s-.673 1.5-1.5 1.5zm7 3.5c-.827 0-1.5-.673-1.5-1.5s.673-1.5 1.5-1.5 1.5.673 1.5 1.5-.673 1.5-1.5 1.5z"/></svg>