<svg xmlns="http://www.w3.org/2000/svg" viewBox="0 0 16 16"><path d="M8.209 12.533l3.5 2.338a.568.568 0 0 0 .642-.938l-3.114-1.991h4.17a.568.568 0 0 0 .568-.568v-8.42h.41c.314 0 .568-.154.568-.469 0-.313-.254-.469-.568-.469H8.971v-.421c-.002-.331-.034-.469-.32-.568-.261-.061-1.026 0-1.198 0-.313 0-.419.254-.419.567v.421H1.568c-.312.001-.568.156-.568.469 0 .314.256.469.568.469h.46v8.42c0 .314.254.568.568.568h4.476l-3.163 1.991a.57.57 0 0 0 .322 1.038c.11 0 .222-.032.319-.1l3.659-2.337zm4.795-1.379H2.966V2.953h10.038v8.201z"/><path d="M7 8.77L9.875 7 7 5.23z"/></svg>