<svg xmlns="http://www.w3.org/2000/svg" viewBox="0 0 16 16"><path d="M8.256 12.562l3.5 2.338a.568.568 0 0 0 .642-.938l-3.114-1.991h4.17a.55.55 0 0 0 .547-.568v-8.42h.41c.314 0 .568-.154.568-.469 0-.313-.254-.468-.568-.468H9v-.422c-.002-.331-.034-.469-.319-.568-.261-.06-1.026 0-1.198 0-.313 0-.419.254-.419.568v.421H1.568c-.312 0-.568.155-.568.469 0 .314.256.469.568.469h.46v8.42c0 .314.254.568.568.568h4.522l-3.163 1.991A.57.57 0 0 0 4.277 15c.11 0 .222-.032.319-.1l3.66-2.338zM13.038 11H3V2.982h10.038V11zM11 8.676c0 .179.146.324.324.324h.352A.324.324 0 0 0 12 8.676V5.434a.324.324 0 0 0-.324-.325h-.352a.325.325 0 0 0-.324.325v3.242zM9 7.361v1.314c0 .18.146.325.326.325h.349A.325.325 0 0 0 10 8.676V7.361a.325.325 0 0 0-.325-.325h-.349A.326.326 0 0 0 9 7.361zM5.857 9C4.868 9 4 8.115 4 7.108c0-.988.757-1.823 1.708-1.823a.14.14 0 0 1 .14.144v1.529c0 .14.152.151.152.151h1.571c.08 0 .145.061.145.141 0 .951-.852 1.75-1.859 1.75zm2.257-2.407H6.537a.131.131 0 0 1-.132-.132V4.885c0-.074.06-.134.134-.134 1.007 0 1.71.702 1.71 1.709a.134.134 0 0 1-.135.133z"/></svg>