<svg xmlns="http://www.w3.org/2000/svg" viewBox="0 0 16 16"><path d="M3.5 5.7c-.3-.2-.6-.3-1-.3H2c-.2 0-.2.2-.4.3-.1.1-.2.2-.2.3-.1.1-.2.3-.2.4 0 .2.1.3.2.4s.2.2.4.3c.2.1.4.2.6.2.2 0 .4.1.7.1.2.1.4.1.7.2.2.1.4.2.5.3.2.1.3.3.4.5.1.2.2.4.2.7 0 .3-.1.6-.2.8-.1.2-.3.4-.5.5-.2.1-.5.2-.7.3-.3.1-.5.1-.8.1-.3 0-.6 0-.9-.1-.3-.1-.5-.2-.8-.4-.2-.1-.4-.3-.5-.6-.1-.3-.2-.6-.2-.9H1c0 .2 0 .4.1.6.1.2.2.3.4.4s.3.2.5.2c.2.1.4.1.6.1h.5c.2 0 .4-.1.6-.1s.2-.2.3-.4c.1-.1.1-.3.1-.5s-.1-.4-.2-.5c0-.1-.2-.2-.3-.2s-.4-.2-.6-.2-.5-.1-.7-.2c-.2 0-.4-.1-.7-.2s-.4-.1-.5-.2-.4-.3-.5-.4C.5 7 .5 6.8.5 6.5c0-.3.1-.5.2-.7s.3-.4.5-.5c.1-.2.3-.3.6-.4.2 0 .5-.1.8-.1.3 0 .6 0 .8.1.2.1.4.2.6.4s.3.3.4.6c.1.2.2.5.2.8h-.7c0-.5-.1-.8-.4-1zM9.6 10.5c-.4.2-.8.3-1.4.3-.5 0-.9-.1-1.2-.2-.3-.2-.6-.4-.9-.7-.1-.3-.3-.6-.4-1-.1-.3-.2-.7-.2-1.1 0-.4.1-.8.2-1.1.1-.4.3-.7.5-1 .2-.2.5-.5.8-.6.3-.2.7-.2 1.2-.2s.9.1 1.2.2c.3.2.6.4.9.7s.4.6.5 1c.1.3.2.6.2 1s-.1.9-.2 1.2c-.1.4-.4.7-.6 1l.8.6-.4.5-1-.6zm0-.8c.2-.2.4-.5.5-.8.1-.3.2-.7.2-1 0-.3 0-.6-.1-.9s-.3-.6-.4-.8c-.2-.2-.4-.4-.7-.5-.2-.2-.5-.2-.9-.2s-.6 0-.9.2c-.2.1-.4.3-.6.5-.1.2-.2.5-.3.8s-.1.5-.1.8c0 .3 0 .6.1.9s.2.5.4.8c.1.2.3.3.5.5.3.1.5.2.9.2.3 0 .5-.1.8-.2l-.6-.5.4-.5.8.7zM12.7 5v5h3v.6h-3.8V5h.8z"/></svg>