<svg xmlns="http://www.w3.org/2000/svg" viewBox="0 0 16 16"><path d="M8 2.575l1.545 3.131.232.473.521.075 3.455.502-2.5 2.438-.376.365.089.519.589 3.44-3.089-1.625L8 11.648l-.466.244-3.089 1.625.591-3.441.089-.518-.377-.367-2.501-2.435 3.455-.502.521-.075.232-.473L8 2.575m0-1.27a.782.782 0 0 0-.703.437L5.559 5.265l-3.887.564a.786.786 0 0 0-.436 1.338L4.05 9.908l-.665 3.871a.785.785 0 0 0 1.138.826L8 12.777l3.477 1.828c.115.061.24.09.365.09a.8.8 0 0 0 .461-.148.79.79 0 0 0 .312-.768l-.663-3.871 2.812-2.741a.785.785 0 1 0-.435-1.338l-3.888-.564-1.737-3.524A.787.787 0 0 0 8 1.305z"/></svg>