<svg xmlns="http://www.w3.org/2000/svg" viewBox="0 0 16 16"><path d="M1 8a7 7 0 1 0 14.001-.001A7 7 0 0 0 1 8zm13.012.001A6.012 6.012 0 1 1 1.989 8 6.012 6.012 0 0 1 14.012 8zm-5.447-.315a.504.504 0 0 1 .71 0l1.936 1.936a.507.507 0 0 1 0 .709l-1.936 1.937a.502.502 0 0 1-.71-.709L9.624 10.5H5.143a.5.5 0 0 1 0-1h4.5l-.02-.048-1.058-1.057a.503.503 0 0 1 0-.709zm-1.13-3.874a.503.503 0 0 1 0 .709L6.376 5.578h4.481a.5.5 0 0 1 0 1h-4.5l.02.048 1.058 1.058a.503.503 0 0 1-.71.709L4.789 6.457a.507.507 0 0 1 0-.709l1.936-1.937a.501.501 0 0 1 .71.001z"/></svg>