<svg xmlns="http://www.w3.org/2000/svg" viewBox="0 0 16 16"><path d="M12.697 5.246a.553.553 0 0 1-.773-.12 4.842 4.842 0 0 0-3.185-1.94 4.872 4.872 0 0 0-.891-.049c-.124.005-.245.022-.368.035a5.07 5.07 0 0 0-.537.079 4.89 4.89 0 0 0-.452.132c-.132.043-.262.085-.388.138a4.858 4.858 0 0 0-.524.266c-.078.045-.156.088-.232.137a4.827 4.827 0 0 0-.66.514 4.94 4.94 0 0 0-.562.618 4.854 4.854 0 0 0-.987 2.937v.005l1.08-1.082a.555.555 0 1 1 .785.785L2.977 9.729a.553.553 0 0 1-.785 0L.162 7.7a.556.556 0 0 1 0-.785.556.556 0 0 1 .785 0l1.082 1.082v-.005c0-.255.016-.507.047-.754.029-.233.095-.455.15-.68.009-.034.015-.069.024-.102.048-.181.103-.358.167-.532.071-.197.152-.39.243-.576.064-.126.133-.248.204-.369.123-.212.253-.417.4-.609.056-.072.115-.139.174-.208a6.051 6.051 0 0 1 .666-.686c.225-.196.465-.372.717-.533.036-.022.069-.048.105-.07.267-.162.549-.298.84-.416.046-.019.092-.04.139-.057.287-.109.587-.193.893-.255.06-.012.118-.025.179-.035.298-.052.601-.08.91-.085.041 0 .08-.011.122-.011v.012c.298.001.6.018.902.065a5.93 5.93 0 0 1 3.907 2.383.551.551 0 0 1-.121.772zm-9.514 6.281a5.918 5.918 0 0 0 4.808 2.448v.012c.042 0 .081-.011.122-.011.31-.006.612-.034.91-.086.061-.01.119-.023.179-.035.306-.062.605-.146.893-.256.047-.018.093-.038.139-.057.291-.119.573-.255.84-.416.036-.022.069-.048.105-.07a6.113 6.113 0 0 0 .84-.642c.194-.178.374-.372.544-.576.059-.068.118-.135.174-.207.146-.193.276-.398.399-.609.071-.121.141-.243.204-.369a6.077 6.077 0 0 0 .41-1.108c.009-.033.015-.067.023-.103.056-.225.121-.446.15-.68.031-.247.047-.499.047-.754v-.006l1.081 1.082a.556.556 0 0 0 .786-.785l-2.03-2.029a.555.555 0 0 0-.785 0l-2.027 2.029a.555.555 0 1 0 .785.785l1.08-1.082v.005a4.851 4.851 0 0 1-.99 2.94 4.73 4.73 0 0 1-.651.694 4.798 4.798 0 0 1-.568.435c-.076.049-.154.092-.232.137a4.937 4.937 0 0 1-.523.266c-.126.054-.257.096-.389.139a4.517 4.517 0 0 1-.452.131 4.792 4.792 0 0 1-.537.08c-.122.013-.243.03-.368.035a4.872 4.872 0 0 1-.891-.049 4.848 4.848 0 0 1-3.185-1.94.552.552 0 1 0-.891.652z"/></svg>