<svg xmlns="http://www.w3.org/2000/svg" viewBox="0 0 16 16"><path d="M2.349 2.005a.5.5 0 0 0-.188.844l1.916 1.913a.501.501 0 1 0 .688-.688L2.849 2.161a.499.499 0 0 0-.438-.156.32.32 0 0 0-.062 0zm3.996-.996a.5.5 0 0 0-.344.5V3.5a.5.5 0 0 0 .998 0V1.509a.499.499 0 0 0-.592-.5.32.32 0 0 0-.062 0zM1.428 6.002A.506.506 0 0 0 1.584 7H3.5a.498.498 0 1 0 0-.998H1.584a.492.492 0 0 0-.094 0 .32.32 0 0 0-.062 0zM12.429 9c-.277.043-.466.22-.423.496.043.275.302.547.578.504H14.5c.276 0 .5-.306.5-.582S14.776 9 14.5 9h-1.916a.492.492 0 0 0-.094 0 .331.331 0 0 0-.063 0h.002zm-3.081 3.009a.501.501 0 0 0-.345.5V14.5a.498.498 0 1 0 .997 0v-1.991a.498.498 0 0 0-.591-.5.331.331 0 0 0-.063 0h.002zm2-1.004a.5.5 0 0 0-.188.844l1.915 1.913a.5.5 0 1 0 .688-.687l-1.915-1.913a.498.498 0 0 0-.438-.156.331.331 0 0 0-.063 0h.001zm-6.036 2.557a2.99 2.99 0 0 1-2.121-.877 3.004 3.004 0 0 1 0-4.242l1.371-1.371a.5.5 0 0 1 .707.707l-1.372 1.37a2.001 2.001 0 0 0 0 2.828 2.003 2.003 0 0 0 2.828 0l1.371-1.371a.5.5 0 0 1 .707.707l-1.371 1.371a2.983 2.983 0 0 1-2.12.878zm5.659-4.62a.5.5 0 0 1-.354-.853l1.371-1.371a2.003 2.003 0 0 0 0-2.828 2.003 2.003 0 0 0-2.828 0L7.789 5.261a.5.5 0 0 1-.707-.707l1.371-1.371a3.002 3.002 0 0 1 4.242 0 3.002 3.002 0 0 1 0 4.242l-1.371 1.371a.494.494 0 0 1-.353.146z"/></svg>