<svg xmlns="http://www.w3.org/2000/svg" viewBox="0 0 16 16"><path d="M12.518 5.818a5.225 5.225 0 0 0-10.059 1.65C1.076 7.624 0 9.047 0 10.473 0 12.006 1.243 13.5 2.775 13.5h9.633C14.393 13.5 16 11.641 16 9.658c0-1.948-1.549-3.782-3.482-3.84zm-.11 6.682H8.5V8.157l1.231 1.201a.505.505 0 0 0 .72 0c.1-.1.019-.23.019-.362s-.034-.263-.134-.362l-2.02-2.078c-.002-.002 0-.003-.003-.005-.045-.045-.147-.081-.206-.107-.053-.021-.008-.029-.063-.033-.012 0-.021-.006-.032-.006-.008 0-.014.004-.021.004-.06.003-.089.014-.146.035a.54.54 0 0 0-.135.09c-.01.008-.023.012-.032.022L5.601 8.634c-.201.2-.109.525.092.725.2.201.512.201.712 0L7.5 8.157V12.5H2.775C1.796 12.5 1 11.453 1 10.473c0-.903.675-1.785 1.571-1.886l.837-.158.049-.872c.129-2.229 1.981-3.992 4.216-3.992a4.197 4.197 0 0 1 3.916 2.636l.245.602.653.016C13.896 6.862 15 8.248 15 9.658c0 1.429-1.162 2.842-2.592 2.842z"/></svg>