<svg xmlns="http://www.w3.org/2000/svg" viewBox="0 0 24 24"><path d="M18.55 8.014A7.648 7.648 0 0 0 11.552 3.5a7.687 7.687 0 0 0-7.636 6.832A4.308 4.308 0 0 0 .5 14.551a4.32 4.32 0 0 0 4.309 4.316c-.001 0 2.789.043 5.533.046.021.001.075.005.154.005.311 0 .986-.088 1.473-.559.484-.469.532-1.386.507-1.445v-6.158l2.243 2.201a.514.514 0 0 0 .727 0c.1-.1.059-.23.059-.362s-.051-.263-.15-.362l-3.028-3.078-.008-.005c-.045-.045-.149-.081-.208-.106-.054-.021-.01-.029-.064-.033-.012 0-.021-.006-.032-.006-.008 0-.014.004-.021.004a.411.411 0 0 0-.146.035.514.514 0 0 0-.135.09c-.01.008-.023.012-.032.021l-3.077 3.078c-.201.2-.109.525.092.725.2.201.525.201.726 0l2.109-2.201.001 6.291c-.003.021-.013.04-.013.062 0 .248-.065.43-.199.556-.258.239-.738.262-.935.249-2.755 0-5.556-.047-5.565-.047a3.32 3.32 0 0 1-3.316-3.316 3.307 3.307 0 0 1 2.938-3.291.5.5 0 0 0 .442-.469A6.681 6.681 0 0 1 11.552 4.5a6.654 6.654 0 0 1 6.196 4.182c.074.184.25.307.449.312a4.416 4.416 0 0 1 4.303 4.435 4.443 4.443 0 0 1-4.438 4.438h-2.116a.5.5 0 0 0 0 1h2.116a5.444 5.444 0 0 0 5.438-5.438 5.406 5.406 0 0 0-4.95-5.415z"/></svg>