<svg xmlns="http://www.w3.org/2000/svg" viewBox="0 0 16 16"><path d="M8 1.002A7 7 0 1 0 8 15 7 7 0 1 0 8 1.002zm4.934 11.097c-.64-.268-2.15-.791-3.085-1.067-.08-.025-.092-.029-.092-.361 0-.273.112-.55.222-.783.119-.254.261-.681.312-1.062.143-.165.335-.49.459-1.108.109-.546.058-.744-.014-.931-.008-.02-.016-.039-.021-.058-.027-.129.01-.793.104-1.309.064-.354-.016-1.106-.503-1.729-.308-.393-.896-.876-1.972-.943l-.59.001c-1.058.065-1.646.549-1.954.941-.487.622-.568 1.375-.503 1.729.094.516.131 1.18.103 1.305-.004.022-.013.042-.021.061-.071.187-.122.385-.014.931.124.618.317.943.459 1.108.051.382.192.809.312 1.062.087.186.128.438.128.796 0 .332-.013.335-.087.359-.967.285-2.506.841-3.079 1.093A6.395 6.395 0 0 1 1.583 8c0-3.538 2.879-6.417 6.417-6.417S14.417 4.462 14.417 8a6.397 6.397 0 0 1-1.483 4.099z"/></svg>