<svg xmlns="http://www.w3.org/2000/svg" viewBox="0 0 16 16"><path d="M13.552 12.353c-.955-.651-2.995-1.216-3.299-1.39s-.607-.304-.607-.867c0-.564.309-.863.738-1.26.805-.742.65-1.584 1.171-1.975.427-.319.64-.565.707-1.043.011-.071.018-.152.021-.242.001-.037.009-.062.009-.104 0-.738-.607-.738-.607-.738s0 .021-.217-1.193c-.209-1.174-1.393-2.426-3.037-2.51v-.008c-.033 0-.062.003-.094.004-.027-.001-.054-.004-.082-.004v.007c-.008 0-.015.002-.023.003-.008-.001-.015-.003-.023-.003v-.007c-.028 0-.055.003-.082.004-.031-.001-.061-.004-.094-.004v.008c-1.645.084-2.828 1.336-3.037 2.51-.217 1.215-.217 1.193-.217 1.193s-.607 0-.607.738c0 .041.008.066.009.104.004.09.011.171.021.242.067.478.28.724.707 1.043.521.391.366 1.233 1.171 1.975.43.396.738.695.738 1.26 0 .563-.304.693-.607.867s-2.344.738-3.299 1.39S2 13.351 2 13.914C2 14.869 3.216 15 3.216 15h10.032s1.216-.131 1.216-1.086c0-.563.043-.91-.912-1.561z"/></svg>