<svg xmlns="http://www.w3.org/2000/svg" viewBox="0 0 16 16"><path d="M6 8v7H3V8h3zm-.803-2.982l1.702-3.117A.718.718 0 0 0 7 1.535c-.002-.116-.08-.228-.235-.337a.719.719 0 0 0-.168-.073.663.663 0 0 0-.467.04.396.396 0 0 0-.183.168L4.591 3.95 3.186 1.293a.352.352 0 0 0-.331-.191.8.8 0 0 0-.419.115.466.466 0 0 0-.232.332.578.578 0 0 0 .058.39l1.703 3.079V6.5c0 .115.048.229.14.337S4.356 7 4.58 7c.225 0 .385-.05.477-.154a.503.503 0 0 0 .14-.346V5.018zM10 8v7h3V8h-3zm2.197-2.982l1.702-3.117A.728.728 0 0 0 14 1.535c-.002-.115-.08-.228-.235-.337a.723.723 0 0 0-.168-.072.683.683 0 0 0-.466.039.401.401 0 0 0-.183.168L11.591 3.95l-1.405-2.656a.352.352 0 0 0-.331-.191.8.8 0 0 0-.419.115.463.463 0 0 0-.232.331.578.578 0 0 0 .058.39l1.703 3.079V6.5c0 .115.048.229.14.337s.251.163.475.163c.225 0 .385-.051.477-.154a.501.501 0 0 0 .141-.346V5.018z"/></svg>