<svg xmlns="http://www.w3.org/2000/svg" viewBox="0 0 16 16"><path d="M10.494 7.898c0 .221-.178.4-.398.4H8.494v1.6a.4.4 0 1 1-.798 0v-1.6H6.094a.4.4 0 1 1 0-.8h1.602v-1.6a.399.399 0 1 1 .798 0v1.6h1.602a.4.4 0 0 1 .398.4zm3.349 6.077l-2.535-2.932a4.483 4.483 0 0 0 1.287-3.145 4.5 4.5 0 1 0-4.5 4.5c.901 0 1.737-.271 2.44-.728h.001c.002.003 0 .009.003.012l2.548 2.946a.5.5 0 0 0 .756-.653zm-5.748-2.577c-1.93 0-3.5-1.57-3.5-3.5s1.57-3.5 3.5-3.5 3.5 1.57 3.5 3.5-1.571 3.5-3.5 3.5zM15 10v-.5a.5.5 0 0 0-1 0v.5a.5.5 0 0 0 1 0zm0-3.699V5.234a.5.5 0 0 0-1 0V6.3a.5.5 0 0 0 1 .001zm0-4.265v-.5a.5.5 0 0 0-.5-.5H14a.5.5 0 0 0 0 1 .5.5 0 0 0 1 0zm-3.772-.5a.5.5 0 0 0-.5-.5H9.637a.5.5 0 0 0 0 1h1.091a.5.5 0 0 0 .5-.5zm-4.364 0a.5.5 0 0 0-.5-.5H5.273a.5.5 0 0 0 0 1h1.091a.5.5 0 0 0 .5-.5zM2 2.036a.5.5 0 0 0 0-1h-.5a.5.5 0 0 0-.5.5v.5a.5.5 0 0 0 1 0zm0 8.701V9.649a.5.5 0 0 0-1 0v1.088a.5.5 0 0 0 1 0zm0-4.35V5.299a.5.5 0 0 0-1 0v1.088a.5.5 0 0 0 1 0zm.5 8.113A.5.5 0 0 0 2 14a.5.5 0 0 0-1 0v.5a.5.5 0 0 0 .5.5H2a.5.5 0 0 0 .5-.5zm3.161 0a.5.5 0 0 0-.5-.5h-.79a.5.5 0 0 0 0 1h.79a.5.5 0 0 0 .5-.5zm2.87 0a.5.5 0 0 0-.5-.5h-.5a.5.5 0 0 0 0 1h.5a.5.5 0 0 0 .5-.5z"/></svg>