<svg xmlns="http://www.w3.org/2000/svg" viewBox="0 0 11 11"><path d="M5.5 1C3.02 1 1 3.02 1 5.5c0 1.792 1.063 3.332 2.584 4.055L2.5 11h6L7.416 9.555C8.937 8.832 10 7.292 10 5.5 10 3.02 7.98 1 5.5 1zm-.125 1.012v1.994a1.5 1.5 0 0 0-.844.35L3.12 2.942a3.475 3.475 0 0 1 2.256-.931zm.25 0c.874.03 1.66.377 2.256.931L6.469 4.356l-.002-.002a1.5 1.5 0 0 0-.842-.348V2.012zM2.943 3.119l1.412 1.412s0 .002-.002.002a1.5 1.5 0 0 0-.347.842H2.012c.03-.874.377-1.66.931-2.256zm5.114 0c.554.596.9 1.382.931 2.256H6.994a1.5 1.5 0 0 0-.35-.844L8.058 3.12zM2.012 5.625h1.994a1.5 1.5 0 0 0 .35.844L2.942 7.88a3.475 3.475 0 0 1-.931-2.256zm4.982 0h1.994a3.474 3.474 0 0 1-.931 2.256L6.644 6.469l.002-.002a1.5 1.5 0 0 0 .348-.842zm-2.463 1.02s.002 0 .002.002A1.5 1.5 0 0 0 5 6.911v2.04a3.47 3.47 0 0 1-1.88-.895L4.53 6.644zm1.938 0L7.88 8.056A3.47 3.47 0 0 1 6 8.95V6.912a1.5 1.5 0 0 0 .469-.268z"/></svg>