<svg xmlns="http://www.w3.org/2000/svg" viewBox="0 0 15 15"><path d="M9 3.5a1.5 1.5 0 1 1-3 0 1.5 1.5 0 0 1 3 0zM14 1a1 1 0 1 0 0 2 1 1 0 0 0 0-2zm-2.11 12.19L9 9.58V6.5h.5a.49.49 0 0 0 .41-.23l1.94-2.42.06-.08A.49.49 0 0 0 12 3.5a.5.5 0 0 0-.86-.34L9.26 5.5H5.5a.5.5 0 0 0-.36.16l-2 2.54a.49.49 0 0 0-.14.3.5.5 0 0 0 .5.5.49.49 0 0 0 .41-.23L5.74 6.5H6v3.08l-2.89 3.61a.49.49 0 0 0-.11.3.5.5 0 0 0 .5.5.49.49 0 0 0 .41-.23l3-3.77h1.15l3 3.77a.49.49 0 0 0 .41.23.5.5 0 0 0 .5-.5.49.49 0 0 0-.11-.3h.03z"/></svg>