<svg xmlns="http://www.w3.org/2000/svg" viewBox="0 0 11 11"><path d="M6 1a1 1 0 1 1-2 0 1 1 0 0 1 2 0zm2.88 4.18l-1-2A.5.5 0 0 0 7.5 3H2.77a.74.74 0 0 0-.77.65l-1 6.71a.483.483 0 0 0 0 .14.5.5 0 0 0 .5.5.49.49 0 0 0 .5-.36l1.22-3.89.21-.83.4.44L5 7.6v2.9a.5.5 0 0 0 1 0v-3a.48.48 0 0 0-.1-.28L4.45 5.5 5.5 4h1.71l.92 1.84A.49.49 0 0 0 8.5 6a.5.5 0 0 0 .5-.49.88.88 0 0 0-.12-.33zM10.5 8a.5.5 0 1 0 0 1 .5.5 0 0 0 0-1zM8.69 8v-.75a.25.25 0 1 0-.5 0V8a.49.49 0 0 0-.25.42v2.08a.5.5 0 0 0 1 0V8.41A.49.49 0 0 0 8.69 8z"/></svg>