<svg xmlns="http://www.w3.org/2000/svg" viewBox="0 0 11 11"><path d="M10 7.51a.5.5 0 0 1-.5.5 1 1 0 0 0-.67.34 2.14 2.14 0 0 1-1 .6 1.89 1.89 0 0 1-1.76-.37l-.34-.35a.77.77 0 0 0-1.08 0L5 9.38a.5.5 0 0 1-.5.62h-3a.5.5 0 0 1-.5-.5v-8a.5.5 0 0 1 .49-.5h.7a.5.5 0 0 1 .49.39l.73 2.51.1-.06c.16-.12.31-.27.49-.4a1.9 1.9 0 0 1 2.45 0c.15.13.29.27.44.39a.75.75 0 0 0 1 0l.41-.4A1.78 1.78 0 0 1 9.49 3a.5.5 0 0 1 0 1 1 1 0 0 0-.67.34 2.14 2.14 0 0 1-1 .6 1.89 1.89 0 0 1-1.76-.37l-.33-.34a.77.77 0 0 0-1.089-.011l-.011.011c-.14.12-.27.25-.42.37a2 2 0 0 1-.52.29l.67 2.32a1.88 1.88 0 0 1 2.06.24c.15.13.29.27.44.39a.75.75 0 0 0 1 0l.44-.42A1.78 1.78 0 0 1 9.49 7a.5.5 0 0 1 .51.51z"/></svg>