<svg xmlns="http://www.w3.org/2000/svg" viewBox="0 0 15 15"><path d="M5.33 11a3 3 0 0 1 1.85.67l.26.23h.05l.31-.28a2.89 2.89 0 0 1 3.44-.18L13.5 7 12 6V2.45A1.54 1.54 0 0 0 10.5 1H10a.94.94 0 0 0-1-1H6a.94.94 0 0 0-1 1h-.5A1.54 1.54 0 0 0 3 2.45V6L1.5 7l2.25 4.53A2.93 2.93 0 0 1 5.33 11zM4 2.45A.47.47 0 0 1 4.5 2h6a.47.47 0 0 1 .5.5v3l-3.5-2L4 5.45v-3zM14 13v1a1 1 0 0 0-.68.34 2.15 2.15 0 0 1-1 .6 1.91 1.91 0 0 1-1.77-.37l-.39-.35a.78.78 0 0 0-1.1 0c-.14.12-.27.25-.42.37a1.92 1.92 0 0 1-2.48-.07l-.39-.35a.76.76 0 0 0-1 0c-.19.15-.36.32-.55.47a1.91 1.91 0 0 1-2.35-.06l-.31-.27A.94.94 0 0 0 1 14v-1c.259-.032.52.017.75.14a6.2 6.2 0 0 1 .79.58.84.84 0 0 0 .81.25.93.93 0 0 0 .31-.16c.16-.12.29-.26.45-.39a1.92 1.92 0 0 1 2.45 0c.16.13.31.28.47.41a.76.76 0 0 0 1 0c.16-.13.31-.28.47-.41a1.92 1.92 0 0 1 2.46 0c.15.13.29.27.44.39a.76.76 0 0 0 1 0l.47-.41c.32-.26.719-.4 1.13-.4z"/></svg>