<svg xmlns="http://www.w3.org/2000/svg" viewBox="0 0 15 15"><path d="M7.47 4.92S5.7 3 1 3v8c4.7 0 6.47 2 6.47 2S9.3 11 14 11V3C9.3 3 7.47 4.92 7.47 4.92zM13 10a10.84 10.84 0 0 0-5.53 1.68A10.56 10.56 0 0 0 2 10V4c3.4.26 4.73 1.6 4.75 1.61l.73.74.72-.75S9.6 4.26 13 4v6zm-5 .24l-.1-.17A14.519 14.519 0 0 1 12 8.89v.2a14.27 14.27 0 0 0-4 1.18v-.03zm0-1l-.1-.17A14.51 14.51 0 0 1 12 7.9v.2a14.29 14.29 0 0 0-4 1.19v-.05zm0-1l-.1-.17A14.491 14.491 0 0 1 12 6.9v.2a14.24 14.24 0 0 0-4 1.19v-.05zm0-1l-.1-.17A14.45 14.45 0 0 1 12 5.9v.2a14.28 14.28 0 0 0-4 1.19v-.05zm-1.1 3A13.9 13.9 0 0 0 3 9.08v-.2c1.387.203 2.736.614 4 1.22l-.1.14zm0-1A13.899 13.899 0 0 0 3 8.1v-.2a14.12 14.12 0 0 1 4 1.21l-.1.13zm0-1A13.86 13.86 0 0 0 3 7.1v-.2c1.387.199 2.735.607 4 1.21l-.1.13zm0-1A13.899 13.899 0 0 0 3 6.1v-.2a14.1 14.1 0 0 1 4 1.21l-.1.13z"/></svg>