<svg xmlns="http://www.w3.org/2000/svg" viewBox="0 0 11 11"><path d="M11 3.75A1.75 1.75 0 0 0 9.25 2a1.73 1.73 0 0 0-.8.2A1.24 1.24 0 0 0 7.21 1a1.19 1.19 0 0 0-.21.05A1.23 1.23 0 0 0 5.75 0a1.25 1.25 0 0 0-1.13.73A1.21 1.21 0 0 0 4 .52a1.23 1.23 0 0 0-1 .55A1.491 1.491 0 0 0 2.51 1a1.51 1.51 0 0 0-1.4 2.08A1.49 1.49 0 0 0 1.08 6a1.49 1.49 0 0 0 2.55.52h.12c.321 0 .63-.126.86-.35V10L3 11h5l-1.6-1V9a8.42 8.42 0 0 1 2.38-2c.26-.05.5-.167.7-.34A1.49 1.49 0 0 0 10 5.5a1.46 1.46 0 0 0 0-.17c.61-.29 1-.904 1-1.58zm-4.64 4.5V6h.18a1.52 1.52 0 0 0 .53-.1 1.5 1.5 0 0 0 .89 1 8.821 8.821 0 0 0-1.6 1.35z"/></svg>