<svg xmlns="http://www.w3.org/2000/svg" viewBox="0 0 15 15"><path d="M2 1.15a1.5 1.5 0 1 1 2.903.757A1.5 1.5 0 0 1 2 1.15zm11 11.17a1 1 0 0 1-.796 1.17H12.2a1 1 0 0 1-1.07-.49L9.45 9.63 8 9.92l-.22.08h-.06v2.15l.62-.15h.14a.52.52 0 0 1 .19 1l-5 1a.51.51 0 0 1-.17 0 .52.52 0 0 1-.2-1l4.15-.83V10l-3.22.58a1 1 0 0 1-1.21-.68H3L2 5.83a1 1 0 0 1 0-.43 1 1 0 0 1 .8-.75l4.7-.52V0h.22v4.1h.06L8 4.08 8.4 4h.21a.5.5 0 0 1 .37.6.49.49 0 0 1-.49.4L8 5.08h-.28v2.86h.06L8 7.88l1.81-.36a1 1 0 0 1 1 .6l2 3.94a.999.999 0 0 1 .19.26zM7.5 5.13L5 5.4l.74 2.94L7.5 8V5.13z"/></svg>