<svg xmlns="http://www.w3.org/2000/svg" viewBox="0 0 11 11"><path d="M3.5 2.5c-.3 0-.5.1-.5.4h-.9c-1.1 0-2 .8-2 1.9 0 .5.3 1 .7 1.4-.5.3-.8.7-.8 1.3C0 8.3.7 9 1.6 9h5.8C8.3 9 9 8.3 9 7.5c0-.2 0-.4-.1-.6l1 .5c.4.2.8 0 1-.3.2-.4-.053-.794-.343-.944L9.8 5.8l.5-.1c.4-.1.7-.4.6-.8-.1-.4-.4-.6-.8-.6H10l-1.6.3C8 3.9 7.3 3.1 6 3c0 0 0-.5-.5-.5h-2zm.5 1h1v4.4H4V3.5zm3 2.4c.2 0 .3.1.4.3l.1-.1c.1-.2.3-.2.5-.1s.2.3.1.5l-.3.5c.1.1.2.2.2.4 0 .3-.2.5-.6.5H6v-1h.7v-.6c0-.2.1-.4.3-.4zM1.9 6c.1 0 .3 0 .4.2l.1.2c.1-.1.2-.1.3-.1.2 0 .3.2.3.3v1.3H1.6c-.4 0-.6-.2-.6-.5s.2-.5.6-.5h.3l-.2-.4c-.1-.2 0-.4.1-.5h.1z"/></svg>