<svg xmlns="http://www.w3.org/2000/svg" viewBox="0 0 15 15"><path d="M4.5 3a1.5 1.5 0 1 1 0-3 1.5 1.5 0 0 1 0 3zM14 1.5a1.5 1.5 0 1 0-3 0 1.5 1.5 0 0 0 3 0zM8.86 6.64L6.38 4.15A.51.51 0 0 0 6 4H3a.51.51 0 0 0-.35.14L.14 6.63a.52.52 0 1 0 .73.73L3 5.2 1 11h2v3.33a.503.503 0 0 0 0 .15.51.51 0 0 0 1 0V11h1v3.5a.51.51 0 0 0 1 0 .503.503 0 0 0 0-.15V11h2L6 5.2l2.14 2.16a.51.51 0 0 0 .38.17A.52.52 0 0 0 9 7a.51.51 0 0 0-.14-.36zM14.5 4h-4a.5.5 0 0 0-.5.5v5a.5.5 0 0 0 1 0v5a.5.5 0 0 0 1 0v-5h1v5a.5.5 0 0 0 1 0v-5a.5.5 0 0 0 1 0v-5a.5.5 0 0 0-.5-.5z"/></svg>