<svg xmlns="http://www.w3.org/2000/svg" viewBox="0 0 15 15"><path d="M7.5 6c-2.5 0-3 2.28-3 3.47a6.15 6.15 0 0 0-1.7.89 2 2 0 0 0-.4 2.78 2.06 2.06 0 0 0 2.8.4 4 4 0 0 1 2.3-.69 4 4 0 0 1 2.3.69 2 2 0 0 0 2.8-.3 1.93 1.93 0 0 0-.3-2.78l-.1-.1a8.996 8.996 0 0 0-1.7-.89C10.5 8.29 10 6 7.5 6zM2.08 4.3a1.58 1.58 0 0 0-.76 2 1.52 1.52 0 0 0 1.61 1.4 1.58 1.58 0 0 0 .76-2 1.52 1.52 0 0 0-1.61-1.4zM12.93 4.3a1.58 1.58 0 0 1 .76 2 1.52 1.52 0 0 1-1.61 1.4 1.58 1.58 0 0 1-.76-2 1.52 1.52 0 0 1 1.61-1.4zM5.08 1.3c-.68.09-1 .94-.76 1.87A1.77 1.77 0 0 0 5.93 4.7c.68-.09 1-.94.76-1.87A1.77 1.77 0 0 0 5.08 1.3zM9.93 1.3c.68.09 1 .94.76 1.87A1.77 1.77 0 0 1 9.07 4.7c-.68-.08-1-.94-.76-1.87A1.77 1.77 0 0 1 9.93 1.3z"/></svg>