<svg xmlns="http://www.w3.org/2000/svg" viewBox="0 0 15 15"><path d="M8.484 1a.502.502 0 0 0-.375.188L6.45 3.262 4.844 1.738c-.436-.4-1.084.155-.754.647l1.666 2.4a.5.5 0 0 0 .803.026c.166-.21.441-.678.941-.678s.793.49.941.678a.5.5 0 0 0 .713.072l1.668-1.4c.441-.375 0-1.074-.527-.838L9 3.227V1.5a.5.5 0 0 0-.516-.5zM5 6l-2.924 5.924C2 12.001 2 12.155 2 12.309c0 .538.384.691.691.691h9.618c.384 0 .691-.153.691-.691 0-.154 0-.231-.076-.385L10 6c-.5 0-1 .5-1 1v.5a.499.499 0 1 1-1 0V7a.5.5 0 1 0-1 0v2a.499.499 0 1 1-1 0V7c0-.5-.5-1-1-1z"/></svg>