<svg xmlns="http://www.w3.org/2000/svg" viewBox="0 0 15 15"><path d="M1.48 4.5A2.18 2.18 0 0 1 3 4a2.36 2.36 0 0 1 2.5 2l.78 4.68a2.3 2.3 0 0 0-2 .05L3.48 6a2.21 2.21 0 0 0-2-1.5zm6 6.74a3.41 3.41 0 0 1 1.3-.65L10 3a2.21 2.21 0 0 1 2-1.5 2.18 2.18 0 0 0-1.5-.5A2.36 2.36 0 0 0 8 3l-1.3 7.79c.279.115.54.267.78.45zm4.32-.5c.157-.128.324-.241.5-.34L13 6a2.21 2.21 0 0 1 2-1.5 2.18 2.18 0 0 0-1.5-.5A2.36 2.36 0 0 0 11 6l-.67 4a3.41 3.41 0 0 1 1.47.74zM14 12a1.78 1.78 0 0 0-1.19.42l-.47.41a.75.75 0 0 1-1 0c-.15-.12-.29-.26-.44-.39a1.9 1.9 0 0 0-2.45 0c-.16.13-.31.28-.47.41a.75.75 0 0 1-1 0c-.16-.13-.31-.28-.47-.41a1.9 1.9 0 0 0-2.44 0c-.15.13-.29.27-.44.39a.92.92 0 0 1-.3.16.84.84 0 0 1-.8-.25 6.167 6.167 0 0 0-.79-.58 1.23 1.23 0 0 0-.68-.16H1a.5.5 0 0 0 0 1 .93.93 0 0 1 .64.31l.36.26a1.9 1.9 0 0 0 2.33.06c.19-.14.36-.32.55-.47a.75.75 0 0 1 1 0l.39.35a1.91 1.91 0 0 0 2.46.07c.15-.11.27-.25.42-.37a.77.77 0 0 1 1.089-.011l.011.011.39.35a1.89 1.89 0 0 0 1.76.37 2.14 2.14 0 0 0 1-.6A1 1 0 0 1 14 13a.5.5 0 0 0 0-1z"/></svg>