<svg xmlns="http://www.w3.org/2000/svg" viewBox="0 0 14 16.071435928344727"><path d="M13 6.071c-.55 0-1 .45-1 1v4c0 .55.45 1 1 1s1-.45 1-1v-4c0-.55-.45-1-1-1zm-12 0c-.55 0-1 .45-1 1v4c0 .55.45 1 1 1s1-.45 1-1v-4c0-.55-.45-1-1-1zm1.5 5.5a1.5 1.5 0 0 0 1.5 1.5v2c0 .55.45 1 1 1s1-.45 1-1v-2h2v2c0 .55.45 1 1 1s1-.45 1-1v-2a1.5 1.5 0 0 0 1.5-1.5v-5.5h-9v5.5zm8.972-6.5a4.5 4.5 0 0 0-2.025-3.276l.5-1a.5.5 0 0 0-.895-.448L8.55 1.351 8.42 1.3a4.504 4.504 0 0 0-2.84 0l-.13.052L4.948.347a.5.5 0 0 0-.895.447l.5 1.001a4.499 4.499 0 0 0-2.025 3.276v.5H11.5v-.5h-.028zm-5.972-1a.5.5 0 0 1-.001-1h.002a.5.5 0 0 1-.001 1zm3 0a.5.5 0 0 1-.001-1h.003a.5.5 0 0 1-.001 1z"/></svg>