<svg xmlns="http://www.w3.org/2000/svg" viewBox="0 0 18 16.000999450683594"><path d="M7.5 2.001a7 7 0 0 0-2.272.369 5.79 5.79 0 0 0-1.773.963C2.517 4.092 2 5.064 2 6.07c0 .562.157 1.109.467 1.623.323.537.811 1.028 1.41 1.421a2 2 0 0 1 .881 1.374c.014.094.025.188.034.282a3.62 3.62 0 0 0 .127-.122 1.999 1.999 0 0 1 1.662-.567c.303.038.611.058.918.058a7 7 0 0 0 2.272-.369 5.807 5.807 0 0 0 1.774-.963C12.483 8.048 13 7.076 13 6.07s-.517-1.978-1.455-2.737a5.753 5.753 0 0 0-1.774-.963 7 7 0 0 0-2.272-.369zm0-2c4.142 0 7.5 2.717 7.5 6.069s-3.358 6.069-7.5 6.069a9.16 9.16 0 0 1-1.169-.074C4.72 13.67 2.86 13.957 1 14v-.393c1.004-.49 1.813-1.382 1.813-2.402 0-.142-.011-.282-.032-.419C1.085 9.673 0 7.974 0 6.069 0 2.717 3.358 0 7.5 0zm8.063 13.604c0 .874.567 1.639 1.438 2.059v.337c-1.611-.036-3.09-.283-4.487-1.658-.33.041-.669.063-1.013.063-1.492 0-2.866-.402-3.963-1.079 2.261-.008 4.395-.732 6.013-2.042a7.346 7.346 0 0 0 1.913-2.302 6.23 6.23 0 0 0 .704-3.4C17.302 6.519 18 7.796 18 9.203c0 1.633-.94 3.089-2.41 4.043a2.361 2.361 0 0 0-.027.359z"/></svg>