<svg xmlns="http://www.w3.org/2000/svg" viewBox="0 0 15.999999046325684 15.619868278503418"><path d="M15.998 9.002v-1h-3.02a5.785 5.785 0 0 0-1.12-3.004h2.53l1.095-4.38-.97-.242-.905 3.62h-2.729l-.042-.031A2.996 2.996 0 0 0 7.999 0a2.996 2.996 0 0 0-2.838 3.964l-.042.032H2.39L1.485.376l-.97.243L1.61 4.998h2.53a5.785 5.785 0 0 0-1.12 3.004H0v1h3.021c.059.713.242 1.388.526 1.996H1.61L.515 15.377l.97.243.905-3.621h1.756c.917 1.219 2.303 1.996 3.854 1.996s2.937-.777 3.854-1.996h1.756l.905 3.62.97-.242-1.095-4.38h-1.937a5.903 5.903 0 0 0 .526-1.995H16z"/></svg>