<svg xmlns="http://www.w3.org/2000/svg" viewBox="0 0 16.751379013061523 16.001876831054688"><path d="M4.378 6.98l-2.29-3.966A7.986 7.986 0 0 1 8.342.002a7.994 7.994 0 0 1 6.883 3.922H8.697a4.1 4.1 0 0 0-4.32 3.055zm6.828-1.9h4.585a8 8 0 0 1-7.358 10.922l3.272-5.667a4.08 4.08 0 0 0-.499-5.254zm-5.77 2.923c0-1.603 1.304-2.906 2.906-2.906s2.906 1.304 2.906 2.906-1.304 2.906-2.906 2.906-2.906-1.304-2.906-2.906zm4.003 3.944l-2.29 3.967A8.001 8.001 0 0 1 1.37 4.08l3.266 5.657a4.1 4.1 0 0 0 4.804 2.21z"/></svg>