<svg xmlns="http://www.w3.org/2000/svg" viewBox="0 0 15.057999610900879 16.000999450683594"><path d="M11.824 6.138c-.922 0-1.751.384-2.341 1.011-.25.265-.684.58-1.153.856.22-.842.917-1.902 1.4-2.367a3.27 3.27 0 0 0 1-2.367C10.73 1.476 9.301.019 7.53 0c-1.771.019-3.2 1.475-3.2 3.271 0 .932.38 1.771 1 2.367.484.465 1.18 1.525 1.4 2.367-.469-.277-.903-.591-1.153-.856a3.197 3.197 0 0 0-2.341-1.011C1.449 6.138 0 7.601 0 9.409s1.448 3.271 3.236 3.271c.923 0 1.751-.396 2.341-1.023.263-.279.726-.627 1.223-.916-.047 2.308-1.149 4.003-2.271 4.67v.59h6v-.59c-1.122-.668-2.224-2.363-2.271-4.67.498.289.961.637 1.223.916a3.21 3.21 0 0 0 2.341 1.023c1.787 0 3.236-1.464 3.236-3.271s-1.448-3.271-3.236-3.271z"/></svg>