<svg xmlns="http://www.w3.org/2000/svg" viewBox="0 0 15 15.056755065917969"><path d="M14.778 4.78l-7-4.668a.5.5 0 0 0-.555 0l-7 4.667A.501.501 0 0 0 0 5.195v4.667c0 .167.084.323.223.416l7 4.667a.5.5 0 0 0 .554 0l7-4.667A.501.501 0 0 0 15 9.862V5.195a.501.501 0 0 0-.223-.416zM7.501 9.26L4.902 7.528l2.599-1.732L10.1 7.528 7.501 9.26zm.5-4.333V1.462L13.6 5.194l-2.599 1.732-3-2zm-1 0l-3 2-2.599-1.732 5.599-3.732v3.465zM3.1 7.528l-2.099 1.4V6.128L3.1 7.53zm.901.601l3 2v3.465L1.402 9.862 4.001 8.13zm4 2l3-2L13.6 9.861l-5.599 3.732v-3.465zm3.901-2.6l2.099-1.4v2.798l-2.099-1.399z"/></svg>