<svg xmlns="http://www.w3.org/2000/svg" viewBox="0 0 15.436001777648926 16"><path d="M14.309 9.535a3.053 3.053 0 0 1 1.127-4.164l-1.572-2.723a3.017 3.017 0 0 1-1.529.414A3.052 3.052 0 0 1 9.293 0H6.148a3.009 3.009 0 0 1-.406 1.535c-.839 1.454-2.706 1.948-4.17 1.106L0 5.364a3 3 0 0 1 1.123 1.117 3.053 3.053 0 0 1-1.12 4.16l1.572 2.723c.448-.261.967-.41 1.522-.41A3.052 3.052 0 0 1 6.139 16h3.145a3.012 3.012 0 0 1 .406-1.519 3.053 3.053 0 0 1 4.163-1.11l1.572-2.723a3.008 3.008 0 0 1-1.116-1.113zm-6.59 1.705a3.24 3.24 0 1 1 0-6.48 3.24 3.24 0 0 1 0 6.48z"/></svg>