<svg xmlns="http://www.w3.org/2000/svg" viewBox="0 0 16 16.00200080871582"><path d="M5.683 11.284l.645-.903-.707-.707-.903.645a2.515 2.515 0 0 0-.535-.222L4 9.002H3l-.183 1.095a2.444 2.444 0 0 0-.535.222l-.903-.645-.707.707.645.903a2.515 2.515 0 0 0-.222.535L0 12.002v1l1.095.183c.053.188.128.368.222.535l-.645.903.707.707.903-.645c.168.094.347.168.535.222L3 16.002h1l.183-1.095c.188-.053.368-.128.535-.222l.903.645.707-.707-.645-.903c.094-.168.168-.347.222-.535L7 13.003v-1l-1.095-.183a2.444 2.444 0 0 0-.222-.535zM3.5 13.502a1 1 0 1 1 0-2 1 1 0 0 1 0 2zm12.5-7.5v-1l-1.053-.191a4.147 4.147 0 0 0-.074-.372l.899-.58-.383-.924-1.046.226a4.432 4.432 0 0 0-.211-.315l.609-.88-.707-.707-.88.609a4.8 4.8 0 0 0-.315-.211l.226-1.046-.924-.383-.58.899a4.53 4.53 0 0 0-.372-.074L10.998 0h-1l-.191 1.053c-.126.019-.25.044-.372.074l-.58-.899-.924.383.226 1.046a4.432 4.432 0 0 0-.315.211l-.88-.609-.707.707.609.88a4.8 4.8 0 0 0-.211.315l-1.046-.226-.383.924.899.58a4.53 4.53 0 0 0-.074.372l-1.053.191v1l1.053.191c.019.126.044.25.074.372l-.899.58.383.924 1.046-.226c.066.108.136.213.211.315l-.609.88.707.707.88-.609a4.8 4.8 0 0 0 .315.211l-.226 1.046.924.383.58-.899c.122.03.246.054.372.074l.191 1.053h1l.191-1.053c.126-.019.25-.044.372-.074l.58.899.924-.383-.226-1.046c.108-.066.213-.136.315-.211l.88.609.707-.707-.609-.88a4.8 4.8 0 0 0 .211-.315l1.046.226.383-.924-.899-.58a4.53 4.53 0 0 0 .074-.372L16 6.002zm-5.5 1.675a2.175 2.175 0 1 1 0-4.35 2.175 2.175 0 0 1 0 4.35z"/></svg>