<svg xmlns="http://www.w3.org/2000/svg" viewBox="0 0 12 12"><path d="M9.5 12A2.502 2.502 0 0 1 7 9.5V8H5v1.5C5 10.879 3.878 12 2.5 12S0 10.879 0 9.5 1.122 7 2.5 7H4V5H2.5C1.122 5 0 3.878 0 2.5S1.122 0 2.5 0 5 1.122 5 2.5V4h2V2.5C7 1.122 8.121 0 9.5 0S12 1.122 12 2.5 10.879 5 9.5 5H8v2h1.5C10.879 7 12 8.121 12 9.5S10.879 12 9.5 12zM8 8v1.5c0 .827.673 1.5 1.5 1.5s1.5-.673 1.5-1.5S10.327 8 9.5 8H8zM2.5 8C1.673 8 1 8.673 1 9.5S1.673 11 2.5 11 4 10.327 4 9.5V8H2.5zM5 7h2V5H5v2zm3-3h1.5c.827 0 1.5-.673 1.5-1.5S10.327 1 9.5 1 8 1.673 8 2.5V4zM2.5 1C1.673 1 1 1.673 1 2.5S1.673 4 2.5 4H4V2.5C4 1.673 3.327 1 2.5 1z"/></svg>