<svg xmlns="http://www.w3.org/2000/svg" viewBox="0 0 17.732513427734375 17.616729736328125"><path d="M10.864 8a1 1 0 0 1-1-1l.002-.054c.032-.741.706-1.234 1.275-1.518.543-.271 1.08-.407 1.102-.413a.5.5 0 1 1 .242.97c-.275.07-.602.189-.89.334A.998.998 0 0 1 10.863 8zm-5.62-2.015a.5.5 0 1 1 .241-.97c.023.006.56.141 1.102.413.568.284 1.243.776 1.275 1.518L7.864 7a1 1 0 1 1-1.732-.681 4.638 4.638 0 0 0-.89-.334zm3.62 6.515a3.5 3.5 0 0 0 3.002-1.699l1.286.772C12.278 13.027 10.685 14 8.864 14s-3.413-.973-4.288-2.427l1.286-.772A3.498 3.498 0 0 0 8.864 12.5zm8-10.5c0-.711-.149-1.387-.416-2a5.016 5.016 0 0 1-2.726 2.643C12.375 1.612 10.692 1 8.865 1s-3.51.613-4.857 1.643A5.013 5.013 0 0 1 1.282 0a4.979 4.979 0 0 0-.416 2c0 1.15.388 2.208 1.04 3.053a8 8 0 1 0 13.92 0A4.979 4.979 0 0 0 16.866 2zm-8 13.5a6.5 6.5 0 1 1 0-13 6.5 6.5 0 0 1 0 13z"/></svg>