<svg xmlns="http://www.w3.org/2000/svg" viewBox="0 0 17.732513427734375 17.616729736328125"><path d="M16.864 2c0-.711-.149-1.387-.416-2a5.016 5.016 0 0 1-2.726 2.643C12.375 1.612 10.692 1 8.865 1s-3.51.613-4.857 1.643A5.013 5.013 0 0 1 1.282 0a4.979 4.979 0 0 0-.416 2c0 1.15.388 2.208 1.04 3.053a8 8 0 1 0 13.92 0A4.979 4.979 0 0 0 16.866 2zM9.865 6.946c.032-.741.706-1.234 1.275-1.518.543-.271 1.08-.407 1.102-.413a.5.5 0 1 1 .242.97c-.275.07-.602.189-.89.334A.998.998 0 0 1 10.862 8a1 1 0 0 1-1-1l.002-.054zM4.88 5.379a.5.5 0 0 1 .606-.364c.023.006.56.141 1.102.413.568.284 1.243.776 1.275 1.518L7.864 7a1 1 0 1 1-1.732-.681 4.638 4.638 0 0 0-.89-.334.5.5 0 0 1-.364-.606zM8.864 14a4.999 4.999 0 0 1-4.288-2.427l1.286-.772C6.474 11.819 7.59 12.5 8.864 12.5s2.39-.681 3.002-1.699l1.286.772A4.996 4.996 0 0 1 8.864 14z"/></svg>