<svg xmlns="http://www.w3.org/2000/svg" viewBox="0 0 16.066375732421875 15.139217376708984"><path d="M14.846.293a.75.75 0 0 0-1.06 0l-3.16 3.16a8.815 8.815 0 0 0-2.56-.379c-3.49 0-6.515 2.032-8 5a9.176 9.176 0 0 0 2.702 3.236L.284 13.794a.75.75 0 0 0 1.06 1.061l13.5-13.5a.75.75 0 0 0 0-1.06zm-8.28 4.78a1.5 1.5 0 0 1 1.421 1.02L6.085 7.993a1.5 1.5 0 0 1 .481-2.92zm-4.779 3a7.594 7.594 0 0 1 2.52-2.462 3.981 3.981 0 0 0-.24 1.37c0 .857.27 1.651.73 2.302l-.953.952a7.625 7.625 0 0 1-2.057-2.162zm10.28-1.094c0-.424-.067-.833-.19-1.217L6.85 10.79a4 4 0 0 0 5.217-3.81z"/><path d="M13.035 4.604l-1.084 1.084.06.037c.94.6 1.736 1.403 2.334 2.348a7.594 7.594 0 0 1-2.335 2.348 7.326 7.326 0 0 1-5.725.933l-1.2 1.201a8.808 8.808 0 0 0 2.981.518c3.49 0 6.514-2.032 8-5a9.142 9.142 0 0 0-3.03-3.469z"/></svg>