<svg xmlns="http://www.w3.org/2000/svg" viewBox="0 0 16 13.492000579833984"><path d="M6 6.746a2 2 0 1 1 3.999-.001A2 2 0 0 1 6 6.746zm4.38-4.398a4.999 4.999 0 0 1 0 8.796c.689-1.096 1.12-2.66 1.12-4.398s-.431-3.302-1.12-4.398zM4.5 6.746c0 1.738.431 3.302 1.12 4.398a4.999 4.999 0 0 1 0-8.796C4.931 3.444 4.5 5.008 4.5 6.746zm-3 0c0 2.686.85 5.097 2.198 6.746C1.475 12.071 0 9.581 0 6.746S1.474 1.421 3.698 0C2.35 1.649 1.5 4.06 1.5 6.746zM12.302 0C14.525 1.421 16 3.911 16 6.746s-1.474 5.325-3.698 6.746c1.348-1.649 2.198-4.06 2.198-6.746S13.65 1.649 12.302 0z"/></svg>