<svg xmlns="http://www.w3.org/2000/svg" viewBox="0 0 14 16"><path d="M8.997 7.436h.691l-.797 3.534-1.036-4.969H6.19L4.985 10.97l-.903-4.969H2.341l1.767 7.998h1.701l1.192-4.73 1.066 4.73h1.568l2.025-7.998H8.997v1.435z"/><path d="M13.341 3.579c-.347-.473-.831-1.027-1.362-1.558S10.894 1.006 10.421.659C9.615.068 9.224 0 9 0H1.25C.561 0 0 .561 0 1.25v13.5C0 15.439.561 16 1.25 16h11.5c.689 0 1.25-.561 1.25-1.25V5c0-.224-.068-.615-.659-1.421zm-2.07-.85c.48.48.856.912 1.134 1.271H9.999V1.595c.359.278.792.654 1.271 1.134zM13 14.75c0 .136-.114.25-.25.25H1.25a.253.253 0 0 1-.25-.25V1.25c0-.135.115-.25.25-.25H9v3.5a.5.5 0 0 0 .5.5H13v9.75z"/></svg>