<svg xmlns="http://www.w3.org/2000/svg" viewBox="0 0 16.000999450683594 16.001998901367188"><path d="M5.743.001C1.941.001 0 2.191 0 6.28v8.579l3.725-3.729V6.772c0-1.694.449-2.772 1.955-3.014.526-.103 1.621-.067 2.317-.067v2.587a.247.247 0 0 0 .245.269c.063 0 .123-.033.184-.093L14.881.001 5.742 0zm6.532 4.871V9.23c0 1.694-.449 2.772-1.955 3.014-.526.103-1.621.067-2.317.067V9.724a.414.414 0 0 0-.009-.087.246.246 0 0 0-.236-.182c-.064 0-.123.033-.184.093l-6.455 6.453 9.139.001c3.802 0 5.743-2.19 5.743-6.279V1.144l-3.725 3.729z"/></svg>