<svg xmlns="http://www.w3.org/2000/svg" viewBox="0 0 14.000000953674316 15.812999725341797"><path d="M11.056 4.813a6.27 6.27 0 0 0 .804-.674c.522-.522.871-1.164.983-1.808.123-.706-.057-1.362-.494-1.798C12.001.185 11.529 0 10.984 0c-.775 0-1.593.372-2.242 1.021-1.039 1.039-1.644 2.472-1.97 3.496-.241-1.028-.722-2.416-1.657-3.351C4.614.665 3.973.407 3.367.407c-.495 0-.965.172-1.317.523-.781.781-.675 2.153.236 3.064.325.325.705.595 1.105.819H0v4h1v7h12v-7h1v-4h-2.945zM9.537 1.816c.433-.433.974-.692 1.446-.692.167 0 .402.035.57.203.407.407.178 1.349-.489 2.016-.687.687-1.61 1.159-2.413 1.47h-.792c.29-.899.813-2.132 1.678-2.997zm-6.881.511c-.011-.143-.001-.41.191-.601a.727.727 0 0 1 .521-.194c.332 0 .679.157.952.429.529.529.965 1.371 1.26 2.436l.023.086-.086-.023c-1.064-.295-1.906-.731-2.436-1.26a1.42 1.42 0 0 1-.426-.872zm3.345 12.486h-4v-6.5h4v6.5zm0-7h-5v-2h5v2zm6 7h-4v-6.5h4v6.5zm1-7h-5v-2h5v2z"/></svg>