<svg xmlns="http://www.w3.org/2000/svg" viewBox="0 0 13.999258995056152 16"><path d="M10.39 8C12.54 6.635 14 4.012 14 1c0-.339-.02-.672-.055-1H.055A9.155 9.155 0 0 0 0 1c0 3.012 1.457 5.635 3.61 7C1.456 9.365 0 11.988 0 15c0 .339.02.672.054 1h13.891c.036-.328.054-.661.054-1 0-3.012-1.457-5.635-3.609-7zM1.5 15c0-2.921 1.252-5.397 3.5-6.214V7.214C2.751 6.397 1.5 3.92 1.5 1h11c0 2.921-1.254 5.397-3.5 6.214v1.572c2.246.817 3.5 3.294 3.5 6.214h-11zm7.181-4.538c-1.12-.635-1.18-1.459-1.182-1.959V7.499c0-.5.06-1.327 1.184-1.963.602-.349 1.122-.88 1.516-1.537H3.8c.395.657.916 1.188 1.518 1.538 1.12.635 1.181 1.459 1.182 1.959V8.5c0 .5-.059 1.327-1.184 1.963-1.135.659-1.98 1.964-2.236 3.537h7.84c-.257-1.574-1.103-2.879-2.239-3.538z"/></svg>