<svg xmlns="http://www.w3.org/2000/svg" viewBox="0 0 15.979801177978516 15.292999267578125"><path d="M12.25 8.799h3.688c.028-.256.04-.517.04-.784a6.835 6.835 0 0 0-.924-3.442c.607-1.614.586-2.984-.227-3.803-.773-.77-2.848-.645-5.194.394A6.876 6.876 0 0 0 2.44 6.345c1.01-1.293 2.072-2.231 3.492-2.913-.129.121-.882.87-1.009.996C1.18 8.17 0 13.058 1.27 14.328c.965.965 2.715.802 4.725-.182a6.836 6.836 0 0 0 3.113.744 6.869 6.869 0 0 0 6.501-4.648h-3.717a3.026 3.026 0 0 1-5.32 0 3.042 3.042 0 0 1-.358-1.432v-.011h6.035zM6.22 6.987c.085-1.517 1.347-2.728 2.887-2.728s2.802 1.21 2.887 2.728H6.22zm8.573-5.454c.524.529.511 1.503.063 2.719a6.895 6.895 0 0 0-3.2-2.619c1.408-.604 2.553-.684 3.137-.1zM2.239 14.087c-.668-.669-.467-2.072.394-3.763a6.902 6.902 0 0 0 2.927 3.581c-1.491.677-2.712.792-3.321.182z"/></svg>