<svg xmlns="http://www.w3.org/2000/svg" viewBox="0 0 16.599172592163086 16.28608512878418"><path d="M4.753 4.503a1.312 1.312 0 0 1 1.856 0l.122.123 1.58-1.581-.123-.123a3.538 3.538 0 0 0-3.32-.946A2.142 2.142 0 0 0 2.758.18a2.143 2.143 0 1 0-.473 4.234 3.552 3.552 0 0 0 .888 3.53l3.56 3.562L8.31 9.925 4.75 6.364a1.318 1.318 0 0 1 .003-1.861zm11.824-2.18a2.141 2.141 0 0 0-4.26-.296 3.543 3.543 0 0 0-3.51.897l-3.56 3.56 1.58 1.582 3.559-3.56a1.31 1.31 0 0 1 1.854-.003 1.316 1.316 0 0 1-.001 1.859l-.122.122 1.578 1.582.123-.124a3.55 3.55 0 0 0 .9-3.494 2.142 2.142 0 0 0 1.858-2.125zm-1.82 9.592a3.55 3.55 0 0 0-.94-3.352L10.264 5l-1.58 1.58 3.555 3.563A1.313 1.313 0 1 1 10.384 12l-.121-.122-1.578 1.582.12.12a3.544 3.544 0 0 0 3.554.884 2.14 2.14 0 0 0 4.238-.427c0-1.081-.8-1.976-1.84-2.122zM10.165 8.44L6.61 12.003a1.316 1.316 0 0 1-1.86-1.861l.122-.121-1.58-1.58-.12.12a3.55 3.55 0 0 0-.93 3.39 2.142 2.142 0 0 0-1.645 2.086 2.141 2.141 0 0 0 4.227.48 3.539 3.539 0 0 0 3.365-.933l3.555-3.562-1.578-1.582z"/></svg>