<svg xmlns="http://www.w3.org/2000/svg" viewBox="0 0 16.115001678466797 16.114999771118164"><path d="M15.659 5.025l-1.58-1.58-1.409-1.409-1.58-1.58C10.703.069 10.013 0 9.557.304l-4.319 2.88a1.162 1.162 0 0 0-.383 1.444l1.101 2.203c.034.067.073.139.115.213L.5 12.615l-.5 3.5h3v-1h2v-2h2v-2h2v-1.112c.1.06.196.113.284.157l2.203 1.101c.49.245 1.14.072 1.444-.383l2.88-4.319c.304-.456.236-1.146-.152-1.533zM2.355 13.469l-.707-.707 4.868-4.868.707.707-4.868 4.868zm11.974-6.733l-.707.707a.502.502 0 0 1-.707 0L8.672 3.2a.502.502 0 0 1 0-.707l.707-.707a.502.502 0 0 1 .707 0l4.243 4.243a.502.502 0 0 1 0 .707z"/></svg>