<svg xmlns="http://www.w3.org/2000/svg" viewBox="0 0 11.608999252319336 15.008298873901367"><path d="M10.02 12.628v-.002l-.005-6.82-1.992.096H4.087v-.336c0-1.274.091-2.546.269-3.042.123-.343.353-.652.683-.919.322-.26.643-.393.955-.393.262 0 .48.045.647.134.235.134.464.36.682.67.577.82.812 1.037.939 1.13.216.158.477.238.776.238.292 0 .546-.109.757-.324a1.09 1.09 0 0 0 .315-.792c0-.335-.139-.69-.414-1.057C9.428.853 9.013.56 8.464.336A4.743 4.743 0 0 0 6.671.007c-.949 0-1.813.228-2.568.678a4.405 4.405 0 0 0-1.725 1.863c-.359.728-.333 2.105-.355 3.355H.058V7.02H2.02v5.073c0 1.12-.342 1.422-.472 1.583a1.225 1.225 0 0 1-.944.455H0v.878h6.021v-.878h-.105c-1.424 0-1.828-.154-1.828-1.888l-.001-5.223h2.191c1.163 0 1.43.054 1.491.077.074.028.169.075.204.143.014.026.081.391.081 1.296v3.917c0 .913-.111 1.217-.179 1.32-.145.221-.319.344-.854.357v.88h4.588v-.874c-1.431 0-1.588-.153-1.588-1.505z"/></svg>