<svg xmlns="http://www.w3.org/2000/svg" viewBox="0 0 16 16"><path d="M13.333 0H2.667A2.675 2.675 0 0 0 0 2.667v10.666C0 14.8 1.2 16 2.667 16h10.666C14.801 16 16 14.8 16 13.333V2.667A2.674 2.674 0 0 0 13.333 0zM4 4h8c.143 0 .281.031.409.088L8 9.231 3.591 4.088A.982.982 0 0 1 4 4zm-1 7V5l.002-.063 2.932 3.421-2.9 2.9A.967.967 0 0 1 3 11zm9 1H4c-.088 0-.175-.012-.258-.034L6.588 9.12l1.413 1.648L9.414 9.12l2.846 2.846a.967.967 0 0 1-.258.034zm1-1c0 .088-.012.175-.034.258l-2.9-2.9 2.932-3.421L13 5v6z"/></svg>