<svg xmlns="http://www.w3.org/2000/svg" viewBox="0 0 17.320533752441406 15.000920295715332"><path d="M8.66 0a8 8 0 0 1 3.875 15h-7.75A8 8 0 0 1 8.66 0zm4.53 12.53A6.364 6.364 0 0 0 15.066 8H13.66V7h1.33a6.346 6.346 0 0 0-.666-2H12.66V4h1.004a6.372 6.372 0 0 0-3.005-2.088V3h-1V1.67a6.506 6.506 0 0 0-2 0v1.33h-1V1.91a6.384 6.384 0 0 0-3.005 2.09h1.004v1H2.994a6.346 6.346 0 0 0-.665 2h1.33v1H2.251c0 1.71.666 3.32 1.876 4.53.167.167.343.324.524.47h3.006l.571-8h.857l.571 8h3.006c.182-.146.357-.303.524-.47z"/></svg>