<svg xmlns="http://www.w3.org/2000/svg" viewBox="0 0 14.362245559692383 14.208878517150879"><path d="M7.429.001a6.93 6.93 0 0 0-2.525 13.384c-.06-.547-.116-1.391.025-1.988.125-.541.813-3.444.813-3.444s-.206-.416-.206-1.028c0-.963.559-1.684 1.253-1.684.59 0 .878.444.878.975 0 .594-.378 1.484-.575 2.306-.166.691.344 1.253 1.025 1.253 1.23 0 2.178-1.3 2.178-3.175 0-1.659-1.194-2.819-2.894-2.819-1.972 0-3.128 1.478-3.128 3.009 0 .597.228 1.234.516 1.581.056.069.066.128.047.2a95.89 95.89 0 0 1-.194.787c-.031.128-.1.153-.231.094-.866-.403-1.406-1.669-1.406-2.684 0-2.188 1.587-4.194 4.578-4.194 2.403 0 4.272 1.712 4.272 4.003 0 2.388-1.506 4.313-3.597 4.313-.703 0-1.362-.366-1.588-.797 0 0-.347 1.322-.431 1.647-.156.603-.578 1.356-.862 1.816a6.93 6.93 0 0 0 8.984-6.622A6.931 6.931 0 0 0 7.43 0z"/></svg>