<svg xmlns="http://www.w3.org/2000/svg" viewBox="0 0 16.728025436401367 16.420902252197266"><path d="M16.728 8.42a8 8 0 1 0-10.786 7.502l-.214.499h6l-.214-.5a8.002 8.002 0 0 0 5.214-7.5zm-8.394 1.92a1 1 0 1 1 .788 0l-.394-.92-.394.92zm.804.039a2 2 0 1 0-.82-.001l-1.166 2.72a4.002 4.002 0 0 1-2.424-3.676c0-2.21 1.79-4.188 4-4.188s4 1.978 4 4.188a4 4 0 0 1-2.424 3.677l-1.166-2.72zm2.347 5.475l-1.155-2.695A5.002 5.002 0 0 0 8.728 3.42a5 5 0 0 0-1.602 9.738L5.97 15.854A6.997 6.997 0 0 1 1.73 9.42c0-3.865 3.133-7.185 6.997-7.185s6.997 3.32 6.997 7.185a7 7 0 0 1-4.24 6.433z"/></svg>