<svg xmlns="http://www.w3.org/2000/svg" viewBox="0 0 14.141112327575684 16"><path d="M14.141 9.5V7a1.502 1.502 0 0 0-2.236-1.307 1.5 1.5 0 0 0-2.264-.31 1.494 1.494 0 0 0-1.5-.297V1.5c0-.827-.673-1.5-1.5-1.5s-1.5.673-1.5 1.5v6.167l-2.75-1.466A1.502 1.502 0 0 0 .602 8.582l.012.011L4.351 12h-.71a.5.5 0 0 0-.5.5v3a.5.5 0 0 0 .5.5h10a.5.5 0 0 0 .5-.5v-3a.5.5 0 0 0-.5-.5h-.691l1.138-2.276a.496.496 0 0 0 .053-.224zm-1 4a.5.5 0 1 1-1 0 .5.5 0 0 1 1 0zm0-4.118L11.832 12H5.835L1.291 7.857a.5.5 0 0 1 .614-.782l3.5 1.866A.499.499 0 0 0 6.14 8.5v-7a.5.5 0 0 1 1 0v5a.5.5 0 0 0 1 0 .5.5 0 0 1 1 0 .5.5 0 0 0 1 0 .5.5 0 0 1 1 0V7a.5.5 0 0 0 1 0 .5.5 0 0 1 1 0v2.382z"/></svg>