<svg xmlns="http://www.w3.org/2000/svg" viewBox="0 0 16 14.141112327575684"><path d="M9.5 14.141H7a1.502 1.502 0 0 1-1.307-2.236 1.5 1.5 0 0 1-.31-2.264 1.494 1.494 0 0 1-.297-1.5H1.5c-.827 0-1.5-.673-1.5-1.5s.673-1.5 1.5-1.5h6.167l-1.466-2.75A1.502 1.502 0 0 1 8.582.602l.011.012L12 4.351v-.71a.5.5 0 0 1 .5-.5h3a.5.5 0 0 1 .5.5v10a.5.5 0 0 1-.5.5h-3a.5.5 0 0 1-.5-.5v-.691l-2.276 1.138a.496.496 0 0 1-.224.053zm4-1a.5.5 0 1 0 0-1 .5.5 0 0 0 0 1zm-4.118 0L12 11.832V5.835L7.857 1.291a.5.5 0 0 0-.782.614l1.866 3.5a.499.499 0 0 1-.441.735h-7a.5.5 0 0 0 0 1h5a.5.5 0 0 1 0 1 .5.5 0 0 0 0 1 .5.5 0 0 1 0 1 .5.5 0 0 0 0 1H7a.5.5 0 0 1 0 1 .5.5 0 0 0 0 1h2.382z"/></svg>