<svg xmlns="http://www.w3.org/2000/svg" viewBox="0 0 16.003005981445312 16.004093170166016"><path d="M0 8.027v.003c.002.061.009.12.021.177l.011.09.011.095.019.128.045.296.068.326c.011.058.028.117.044.178l.049.188c.009.032.016.065.027.097l.031.098.065.203.017.052.019.052.039.105.081.215.094.218.048.111c.016.037.035.073.053.111l.11.224c.039.075.081.149.123.224l.063.113c.021.038.045.074.068.112l.14.224c.198.295.417.587.66.864.245.275.511.535.792.775.284.236.582.452.886.642.306.188.619.349.928.487l.232.095c.038.015.076.032.115.046l.115.041c.038.014.151.054.226.078l.224.066c.037.011.073.022.109.031l.109.027.213.052.207.04.101.019.049.009.049.007.192.027.093.013.091.009.174.015c.056.005.111.011.164.012h.011a1 1 0 0 0 1 .982l.025-.001h.004a1.02 1.02 0 0 0 .177-.021l.09-.011.095-.011.128-.019.296-.045.326-.068c.058-.011.117-.028.178-.044l.188-.049c.032-.009.065-.016.097-.027l.098-.031.203-.065.052-.017.052-.019.105-.039.215-.081.218-.094.111-.048c.037-.016.073-.035.111-.053l.224-.11c.075-.039.149-.081.224-.123l.113-.063c.038-.021.074-.045.112-.068l.224-.14c.295-.197.587-.417.864-.66.275-.245.535-.511.775-.792.236-.284.452-.582.642-.886.188-.306.349-.619.487-.928l.095-.232c.015-.038.032-.076.046-.115l.04-.115c.013-.038.054-.151.078-.226l.066-.224c.011-.037.022-.073.031-.109l.027-.109.052-.213.04-.207.019-.101.009-.049a.753.753 0 0 0 .007-.05l.027-.192.013-.093.009-.091.015-.174c.005-.056.011-.111.012-.165l.001-.025a1 1 0 0 0 .996-1l-.001-.025v-.003a1.02 1.02 0 0 0-.021-.177l-.011-.09-.011-.095-.019-.128-.045-.296-.068-.326c-.011-.058-.028-.117-.044-.178l-.049-.188c-.009-.032-.016-.065-.027-.097l-.031-.098-.065-.203-.017-.052-.019-.052-.039-.105-.081-.215-.094-.218-.048-.111c-.016-.037-.035-.073-.053-.111l-.11-.224c-.039-.075-.081-.149-.123-.224l-.063-.113c-.021-.038-.045-.074-.068-.112l-.14-.224a8.307 8.307 0 0 0-.66-.864 8.164 8.164 0 0 0-.792-.775 8.155 8.155 0 0 0-.886-.642 8.024 8.024 0 0 0-.928-.487l-.232-.095c-.038-.015-.076-.032-.115-.046l-.115-.04c-.038-.013-.151-.054-.226-.078l-.224-.066c-.037-.01-.073-.022-.109-.031l-.109-.027a54.114 54.114 0 0 0-.213-.052l-.207-.04-.101-.019-.049-.009-.049-.007-.192-.027-.093-.013-.091-.009-.174-.015C9.135.989 9.08.983 9.027.982L8.988.981A1 1 0 0 0 7.989 0l-.025.001h-.003a1.02 1.02 0 0 0-.177.021l-.09.011-.095.011-.128.019-.296.045-.326.068c-.058.011-.117.028-.178.044l-.188.049c-.032.009-.065.016-.097.027l-.098.031-.203.065-.052.017-.052.019-.105.039-.215.081-.218.094-.111.048c-.037.016-.073.035-.111.053l-.224.11c-.075.039-.149.081-.224.123l-.113.063c-.038.021-.074.045-.112.068l-.224.14a8.448 8.448 0 0 0-.864.66 8.164 8.164 0 0 0-.775.792 8.155 8.155 0 0 0-.642.886 8.024 8.024 0 0 0-.487.928l-.095.232c-.015.038-.032.076-.046.115l-.04.115c-.013.038-.054.151-.078.226l-.066.224-.032.109c-.01.036-.018.073-.027.109l-.052.213-.04.207-.019.101-.009.049a.753.753 0 0 0-.007.05l-.027.192-.013.093-.009.091-.015.174c-.005.056-.011.111-.012.165l-.001.025a1 1 0 0 0-.967.999l.001.025zm1.148-1.014l.002-.009c.01-.051.026-.102.04-.155l.045-.163.024-.084.028-.086.058-.176.015-.045.017-.045.035-.091.073-.186.084-.189.043-.096.048-.096.098-.194c.034-.065.073-.128.109-.194l.056-.098c.019-.033.04-.064.061-.096l.124-.194a7.38 7.38 0 0 1 .583-.744c.217-.236.451-.459.697-.665.25-.202.511-.385.776-.547.268-.159.541-.294.808-.41l.202-.079c.033-.013.066-.027.099-.038l.1-.033c.033-.011.131-.045.196-.065l.194-.054c.032-.009.063-.019.095-.026l.094-.021.184-.042.179-.032.087-.015.043-.008c.014-.003.029-.003.043-.005l.166-.02.08-.01.078-.006.15-.011c.049-.003.095-.008.142-.008l.256-.006.2.007.085.002a11.23 11.23 0 0 1 .34.024l.022-.001h.004a1 1 0 0 0 .962-.84l.025.006c.051.01.102.026.155.04l.163.045.084.024.086.028.176.058.045.015.045.017.091.035.186.073.189.084.096.043.096.048.194.098c.065.034.129.073.194.109l.098.056c.033.019.064.04.096.061l.194.124c.255.176.506.369.744.583.236.217.459.451.665.697.202.25.385.511.547.776.159.268.294.541.41.808l.079.202c.013.033.027.066.038.099l.033.1c.011.033.045.131.065.196l.054.194c.009.032.019.063.026.095l.021.094.042.184.032.179.015.087.008.043c.003.014.003.029.005.043l.02.166.01.08.006.078.011.15c.003.049.008.095.008.142l.006.256-.007.2-.002.085a11.23 11.23 0 0 1-.024.34l.001.022v.004a1 1 0 0 0 .823.959l-.003.014c-.01.051-.025.102-.04.155l-.045.163-.024.084-.028.086-.058.176-.015.045-.017.045-.035.091-.073.186-.084.189-.043.096-.048.096-.098.194c-.034.065-.073.129-.109.194l-.056.098c-.019.033-.04.064-.061.096l-.124.194a7.38 7.38 0 0 1-.583.744 7.422 7.422 0 0 1-.697.665c-.25.202-.511.385-.776.547a7.227 7.227 0 0 1-.808.41l-.202.079c-.033.013-.066.027-.099.038l-.1.033c-.033.011-.131.045-.196.065l-.194.054c-.032.009-.063.019-.095.026l-.094.021-.184.042-.179.032-.087.015-.043.008c-.015.003-.029.003-.043.005l-.166.02-.08.01-.078.006-.15.011c-.049.003-.095.008-.142.008a77.64 77.64 0 0 0-.256.006l-.2-.007-.085-.002a11.23 11.23 0 0 1-.34-.024l-.022.001h-.003a1.001 1.001 0 0 0-.961.834c-.05-.01-.101-.025-.153-.039l-.163-.045-.084-.024-.086-.028-.176-.058-.045-.015-.045-.017-.091-.035a31.884 31.884 0 0 1-.186-.073 17.554 17.554 0 0 0-.189-.084l-.096-.043-.096-.048-.194-.098c-.065-.034-.129-.073-.194-.109l-.098-.056c-.033-.019-.064-.04-.096-.061l-.194-.124a7.238 7.238 0 0 1-.744-.583 7.422 7.422 0 0 1-.665-.697 7.276 7.276 0 0 1-.547-.776 7.227 7.227 0 0 1-.41-.808l-.079-.202c-.013-.033-.027-.066-.038-.099l-.033-.1c-.011-.033-.045-.131-.065-.196l-.054-.194c-.009-.032-.019-.063-.026-.095l-.021-.094a78.832 78.832 0 0 0-.042-.184l-.032-.179-.015-.087-.008-.043c-.003-.015-.003-.029-.005-.043a12.365 12.365 0 0 1-.02-.166l-.01-.08-.006-.078-.011-.15c-.003-.049-.008-.095-.008-.142a77.64 77.64 0 0 0-.006-.256l.007-.2.002-.085A11.23 11.23 0 0 1 2 8.004l-.001-.022v-.003a1 1 0 0 0-.851-.964z"/></svg>