<svg xmlns="http://www.w3.org/2000/svg" viewBox="0 0 16.001392364501953 15.156000137329102"><path d="M8 15.156c-2.137 0-4.146-.832-5.657-2.343S0 9.293 0 7.156C0 5.643.425 4.17 1.228 2.895A8.02 8.02 0 0 1 4.421 0l.672 1.341a6.53 6.53 0 0 0-2.596 2.354A6.48 6.48 0 0 0 1.5 7.156c0 3.584 2.916 6.5 6.5 6.5s6.5-2.916 6.5-6.5c0-1.23-.345-2.426-.997-3.461a6.515 6.515 0 0 0-2.596-2.354L11.579 0a8.02 8.02 0 0 1 3.193 2.895A7.981 7.981 0 0 1 16 7.156c0 2.137-.832 4.146-2.343 5.657S10.137 15.156 8 15.156z"/></svg>