<svg xmlns="http://www.w3.org/2000/svg" viewBox="0 0 15.214001655578613 15.505001068115234"><path d="M7.753 4.664a.933.933 0 0 1-.933-.933V.933a.933.933 0 0 1 1.866 0v2.798a.933.933 0 0 1-.933.933zm0 10.841a.583.583 0 0 1-.583-.583v-2.798a.583.583 0 1 1 1.166 0v2.798a.583.583 0 0 1-.583.583zM5.655 5.168a.875.875 0 0 1-.758-.437L3.498 2.308a.874.874 0 0 1 1.514-.874l1.399 2.423a.874.874 0 0 1-.756 1.311zm5.596 9.342a.525.525 0 0 1-.455-.262l-1.399-2.423a.525.525 0 1 1 .909-.525l1.399 2.423a.525.525 0 0 1-.454.787zM4.118 6.646a.813.813 0 0 1-.407-.109L1.288 5.138a.817.817 0 0 1 .816-1.414l2.423 1.399a.817.817 0 0 1-.408 1.523zm9.692 5.246a.461.461 0 0 1-.233-.063l-2.423-1.399a.467.467 0 0 1 .466-.808l2.423 1.399a.467.467 0 0 1-.233.87zM3.556 8.686H.758a.758.758 0 0 1 0-1.516h2.798a.758.758 0 1 1 0 1.516zm11.192-.292H11.95a.466.466 0 1 1 0-.932h2.798a.466.466 0 1 1 0 .932zM1.696 12.125a.698.698 0 0 1-.35-1.305l2.423-1.399a.7.7 0 1 1 .699 1.211l-2.423 1.399a.69.69 0 0 1-.349.094zm9.692-5.829a.466.466 0 0 1-.233-.87l2.423-1.399a.466.466 0 1 1 .466.808l-2.423 1.399a.469.469 0 0 1-.233.063zm-7.133 8.331a.64.64 0 0 1-.555-.962l1.399-2.423a.641.641 0 1 1 1.111.641l-1.399 2.423a.64.64 0 0 1-.556.321zM9.851 4.76a.467.467 0 0 1-.404-.7l1.399-2.423a.467.467 0 0 1 .808.466l-1.399 2.423a.464.464 0 0 1-.404.233z"/></svg>