<svg xmlns="http://www.w3.org/2000/svg" viewBox="0 0 16.36207389831543 14.599233627319336"><path d="M11.122 3.74a1.5 1.5 0 1 1 3 0 1.5 1.5 0 0 1-3 0zm3.975-2.476a3.5 3.5 0 0 0-5.94 1.975L5.96 8.086c-.43.022-.856.132-1.25.328L2.245 6.486A1.313 1.313 0 0 0 .628 8.554l2.436 1.905a3.157 3.157 0 1 0 6.168.228l3.89-3.484a3.5 3.5 0 0 0 1.976-5.939zm-8.975 12.08a2.105 2.105 0 0 1-2.105-2.105v-.033l1.047.817A1.312 1.312 0 0 0 6.68 9.955l-.992-.776a2.105 2.105 0 1 1 .434 4.165zm6.5-7.105a2.5 2.5 0 1 1 0-5 2.5 2.5 0 0 1 0 5z"/></svg>