<svg xmlns="http://www.w3.org/2000/svg" viewBox="0 0 16 15"><path d="M15.25 11H15V7.75C15 6.785 14.215 6 13.25 6H9V4h.25c.412 0 .75-.338.75-.75V.75A.752.752 0 0 0 9.25 0h-2.5A.752.752 0 0 0 6 .75v2.5c0 .412.338.75.75.75H7v2H2.75C1.785 6 1 6.785 1 7.75V11H.75a.753.753 0 0 0-.75.75v2.5c0 .412.338.75.75.75h2.5c.413 0 .75-.338.75-.75v-2.5a.752.752 0 0 0-.75-.75H3V8h4v3h-.25a.753.753 0 0 0-.75.75v2.5c0 .412.338.75.75.75h2.5c.412 0 .75-.338.75-.75v-2.5a.753.753 0 0 0-.75-.75H9V8h4v3h-.25a.753.753 0 0 0-.75.75v2.5c0 .412.338.75.75.75h2.5c.412 0 .75-.338.75-.75v-2.5a.753.753 0 0 0-.75-.75zM3 14H1v-2h2v2zm6 0H7v-2h2v2zM7 3V1h2v2H7zm8 11h-2v-2h2v2z"/></svg>