<svg xmlns="http://www.w3.org/2000/svg" viewBox="0 0 18 15.99899959564209"><path d="M12 12.04v-.825c1.102-.621 2-2.168 2-3.716 0-2.485 0-4.5-3-4.5s-3 2.015-3 4.5c0 1.548.898 3.095 2 3.716v.825c-3.392.277-6 1.944-6 3.959h14c0-2.015-2.608-3.682-6-3.959z"/><path d="M5.112 12.426c.864-.565 1.939-.994 3.122-1.256a5.667 5.667 0 0 1-.633-.922A5.726 5.726 0 0 1 6.875 7.5c0-1.344 0-2.614.478-3.653.464-1.008 1.299-1.633 2.488-1.867C9.577.785 8.873 0 7 0 4 0 4 2.015 4 4.5c0 1.548.898 3.095 2 3.716v.825C2.608 9.318 0 10.985 0 13h4.359c.227-.202.478-.393.753-.573z"/></svg>