<svg xmlns="http://www.w3.org/2000/svg" viewBox="0 0 17.001998901367188 14.04202938079834"><path d="M13.908 13.449a.75.75 0 0 1-.53-1.281c1.369-1.369 2.123-3.19 2.123-5.127s-.754-3.757-2.123-5.127A.75.75 0 1 1 14.439.853c1.653 1.653 2.563 3.85 2.563 6.187s-.91 4.534-2.563 6.187a.748.748 0 0 1-.53.22zm-2.664-1.414a.75.75 0 0 1-.53-1.281 5.256 5.256 0 0 0 0-7.425.75.75 0 1 1 1.061-1.061c1.275 1.275 1.977 2.97 1.977 4.773s-.702 3.498-1.977 4.773a.748.748 0 0 1-.53.22zM8.579 10.62a.75.75 0 0 1-.53-1.281 3.254 3.254 0 0 0 0-4.596.75.75 0 1 1 1.061-1.061 4.756 4.756 0 0 1 0 6.718.748.748 0 0 1-.53.22zm-2.078 3.422a.504.504 0 0 1-.354-.146l-3.854-3.854H.5a.5.5 0 0 1-.5-.5v-5a.5.5 0 0 1 .5-.5h1.793L6.147.188a.499.499 0 0 1 .854.354v13a.5.5 0 0 1-.5.5z"/></svg>