<svg xmlns="http://www.w3.org/2000/svg" viewBox="0 0 14.211708068847656 9.000686645507812"><path d="M14.212.149c0 .05-.016.097-.047.141-.031.041-.066.063-.106.063-.313.031-.57.131-.766.3-.2.169-.403.497-.613.975L9.455 8.9c-.022.069-.081.1-.178.1a.205.205 0 0 1-.178-.1l-1.81-3.781L5.21 8.9c-.044.069-.1.1-.178.1-.094 0-.153-.034-.184-.1L1.68 1.631c-.197-.45-.406-.766-.625-.944S.53.396.14.356C.106.356.074.337.046.303A.173.173 0 0 1 .002.181c0-.119.034-.178.1-.178.28 0 .578.013.888.038.288.025.556.038.809.038.256 0 .563-.013.913-.038.366-.025.69-.038.975-.038.069 0 .1.059.1.178s-.022.175-.063.175c-.281.022-.506.094-.67.216s-.243.281-.243.481c0 .1.034.228.1.378l2.616 5.912 1.487-2.806L5.63 1.634c-.25-.519-.453-.853-.612-1.003S4.615.39 4.29.356c-.031 0-.056-.019-.084-.053S4.165.228 4.165.181c0-.119.028-.178.088-.178.28 0 .54.013.778.038.228.025.469.038.728.038.253 0 .519-.013.803-.038.29-.025.578-.038.859-.038.069 0 .1.059.1.178s-.02.175-.063.175c-.566.038-.847.2-.847.481 0 .125.066.322.197.588l.916 1.859.912-1.7c.125-.241.19-.444.19-.606 0-.388-.28-.594-.846-.619-.05 0-.075-.059-.075-.175 0-.044.012-.081.037-.119s.05-.056.075-.056c.203 0 .45.013.747.038.28.025.516.038.697.038.13 0 .322-.013.575-.031.319-.028.588-.044.803-.044.05 0 .075.05.075.15 0 .134-.047.203-.137.203-.328.034-.594.125-.794.272s-.45.481-.75 1.006L8.01 3.878l1.644 3.35 2.428-5.647c.084-.206.125-.397.125-.569 0-.412-.281-.631-.847-.659-.05 0-.075-.059-.075-.175 0-.119.037-.178.113-.178.206 0 .45.013.734.038.262.025.48.038.656.038.188 0 .4-.013.644-.038.253-.025.48-.038.684-.038.063 0 .094.05.094.15z"/></svg>