<svg xmlns="http://www.w3.org/2000/svg" viewBox="0 0 15.99899959564209 11.253999710083008"><path d="M15.836 2.428s-.156-1.103-.637-1.587C14.59.204 13.908.2 13.596.163 11.359 0 7.999 0 7.999 0h-.006S4.634 0 2.396.163C2.083.201 1.402.204.793.841.312 1.325.159 2.428.159 2.428S0 3.722 0 5.019v1.213c0 1.294.159 2.591.159 2.591s.156 1.103.634 1.588c.609.637 1.409.616 1.766.684 1.281.122 5.441.159 5.441.159s3.363-.006 5.6-.166c.313-.037.994-.041 1.603-.678.481-.484.637-1.588.637-1.588s.159-1.294.159-2.591V5.018c-.003-1.294-.162-2.591-.162-2.591zM6.342 7.703V3.206l4.322 2.256-4.322 2.241z"/></svg>