<svg xmlns="http://www.w3.org/2000/svg" viewBox="0 0 13.108965873718262 13.094987869262695"><path d="M11.548 1.56a4.004 4.004 0 0 0-5.657 0L1.56 5.891a4.004 4.004 0 0 0 0 5.657c1.52 1.52 3.963 1.547 5.53.104.022-.016.048-.024.068-.045l.057-.057.002-.002.001-.001 1.697-1.696a2.449 2.449 0 0 0 0-3.458 2.449 2.449 0 0 0-3.458 0L4.112 7.74a.5.5 0 0 0 .707.707L6.165 7.1a1.447 1.447 0 0 1 2.043 0 1.449 1.449 0 0 1 0 2.043L6.51 10.84a3.002 3.002 0 0 1-4.242 0 3.003 3.003 0 0 1 0-4.243l4.331-4.331a3.002 3.002 0 0 1 4.242 0 3.003 3.003 0 0 1 0 4.243.5.5 0 0 0 .707.707 4.001 4.001 0 0 0 0-5.656z"/></svg>