<svg xmlns="http://www.w3.org/2000/svg" viewBox="0 0 14.317642211914062 14.059268951416016"><path d="M7.4.03a7 7 0 1 0 .002 13.999A7 7 0 0 0 7.4.03zm0 13.012a6.012 6.012 0 1 1 0-12.024 6.012 6.012 0 0 1 0 12.024zm4-6.007c0 .283-.23.513-.513.513l-5.734-.005 2.4 2.401a.514.514 0 0 1-.724.726L3.55 7.393l-.004-.008a.515.515 0 0 1-.106-.159.515.515 0 0 1-.033-.164c0-.011-.007-.02-.007-.032 0-.008.005-.014.005-.021a.524.524 0 0 1 .035-.175.49.49 0 0 1 .09-.135c.008-.01.01-.022.02-.032L6.83 3.39a.514.514 0 0 1 .726.726l-2.401 2.4h5.734c.283 0 .513.236.513.519z"/></svg>