<svg xmlns="http://www.w3.org/2000/svg" viewBox="0 0 15.331999778747559 14.000000953674316"><path d="M4.672 10.695c-.025-.539-.051-.643-.549-.177a7.844 7.844 0 0 0-.743.743c-.031.011-.872-.369-1.444-1.816-.569-1.444.113-3.49.418-4.037.238-.256.392-1.054-.371-.353C.784 6.247 0 7.967.471 9.876c.44 1.777 1.431 2.634 1.568 2.699.011-.007.017-.009.017.004 0 0-.007.001-.017-.004-.053.034-.258.292-.688.729-.406.369-.313.485.164.547.896.087 3.467.149 3.467.149s-.216-2.416-.31-3.305zM9.359 1c.551 0 1 .449 1 1v4c0 .551-.449 1-1 1h-4c-.551 0-1-.449-1-1V2c0-.551.449-1 1-1h4m0-1h-4a2 2 0 0 0-2 2v4a2 2 0 0 0 2 2h4a2 2 0 0 0 2-2V2a2 2 0 0 0-2-2zm5.973 8v4a2 2 0 0 1-2 2h-4a2 2 0 0 1-2-2V9h2.027c1.654 0 3-1.346 3-3h.973a2 2 0 0 1 2 2z"/></svg>