<svg xmlns="http://www.w3.org/2000/svg" viewBox="0 0 15.600006103515625 13.300018310546875"><path d="M1.8 4.5l-.3-1.2-.1-.3L1 4.6H.6l-.6-2h.4l.3 1.2.1.4s0-.2.1-.4l.3-1.2h.4l.3 1.2.1.4.1-.4.3-1.2h.3l-.6 2h-.3zm2.1.1c-.3 0-.5-.1-.7-.3-.2-.2-.3-.4-.3-.8s.1-.7.3-.8c.2-.2.4-.2.6-.2.3 0 .5.1.7.3.2.2.3.4.3.8 0 .3 0 .5-.1.6-.1.1-.2.3-.3.3-.2 0-.4.1-.5.1zm-.5-.5c.1.1.3.2.4.2.2 0 .3-.1.4-.2s.2-.3.2-.6-.1-.4-.2-.6c-.1-.1-.3-.2-.4-.2-.2 0-.3.1-.4.2-.1.1-.2.3-.2.6s.1.5.2.6zm2.1-.6c0-.1 0-.3.1-.4 0-.1.1-.1.1-.2.1 0 .1-.1.2-.1s.2 0 .3.1l.1-.3c-.1-.1-.2-.1-.4-.1-.1 0-.2 0-.2.1s-.1.1-.2.3v-.3h-.3v2h.3V3.5zm1 .6c-.1-.2-.1-.3-.1-.6 0-.2 0-.4.1-.6.1-.2.2-.3.3-.4.1-.1.3-.1.5-.1.1 0 .2 0 .3.1.1.1.2.1.2.2v-1h.3v2.8h-.3v-.3c-.1.2-.3.3-.6.3-.2 0-.3 0-.4-.1-.1 0-.2-.2-.3-.3zm.2-.6c0 .3.1.5.2.6.1.1.2.2.4.2.1 0 .3-.1.4-.2.1-.1.2-.3.2-.6s-.1-.5-.2-.6-.2-.2-.4-.2-.3.1-.4.2c-.1.2-.2.4-.2.6zm.8 4.7l-.4-.1c0 .2-.1.3-.2.4s-.2.1-.4.1-.3-.1-.5-.2c-.1-.1-.2-.4-.2-.7 0-.3.1-.5.2-.7.1-.1.3-.2.5-.2.1 0 .2 0 .3.1.1.1.2.2.2.4l.4-.1c0-.2-.1-.4-.3-.5-.2-.1-.4-.2-.6-.2-.2 0-.4 0-.6.1-.2.1-.3.2-.4.4-.1.2-.1.4-.1.7 0 .4.1.7.3.9s.4.3.8.3c.3 0 .5-.1.6-.2.2 0 .3-.3.4-.5zm.3.8h.4V5.8h-.4V9zm1.9 0c-.3 0-.6-.1-.8-.3-.2-.2-.3-.5-.3-.9s.1-.7.4-1c.2-.2.4-.3.7-.3.3 0 .6.1.8.3s.3.5.3.9c0 .3 0 .5-.1.7-.1.2-.2.3-.4.4-.2.2-.4.2-.6.2zm-.5-.5c.1.1.3.2.5.2s.4-.1.5-.2c.1-.1.2-.4.2-.7 0-.3-.1-.5-.2-.7-.1-.1-.3-.2-.5-.2s-.4.1-.5.2c-.1.1-.2.4-.2.7s.1.5.2.7zm3.5-.6c0 .2 0 .3-.1.5s-.1.2-.2.2c-.1.1-.2.1-.3.1s-.2 0-.3-.1l-.2-.2V6.7h-.4v1.8c0 .1.1.2.1.3.1.1.1.1.3.2.1.1.2.1.4.1.3 0 .6-.1.7-.4V9h.4V6.7h-.4v1.2zm2.9-2.1V9h-.4v-.3c-.1.2-.4.3-.6.3-.2 0-.4-.1-.5-.2s-.3-.2-.4-.4c-.1-.2-.1-.4-.1-.6 0-.2 0-.4.1-.6s.2-.3.3-.4.3-.2.5-.2c.1 0 .3 0 .4.1.1.1.2.1.3.2V5.8h.4zm-.3 2.1c0-.3-.1-.6-.2-.7s-.3-.2-.5-.2-.3.1-.4.2-.2.4-.2.7c0 .3.1.5.2.7.1.1.3.2.4.2.2 0 .3-.1.4-.2s.3-.5.3-.7zM9.6 4v.2h.2V4H11l.1-.1v-.4h-.2v.2H9.6v-.3h-.2v.3h-.6L9 4h.6zm.1-1.1c0-.1-.1-.2-.1-.4v-.3c0-.1.1-.2.1-.2.1 0 .1-.1.2-.1h1.2c.1 0 .1 0 .2-.1v.3c-.1 0-.1 0-.2.1.1.1.1.2.2.3 0 .1.1.2.1.3 0 .2 0 .3-.1.4-.1.1-.2.1-.3.1-.1 0-.2 0-.2-.1s-.1-.1-.2-.1c0-.1-.1-.1-.1-.2v-.2c0-.2-.1-.4-.1-.5h-.1c-.1 0-.2 0-.2.1-.1.1-.1.2-.1.3 0 .1 0 .2.1.3 0 .1.1.1.2.1v.3c-.1 0-.2-.1-.3-.1s-.3-.2-.3-.3zm.8-.8c0 .1.1.3.1.5 0 .1 0 .2.1.2s.1.1.1.1h.1c.1 0 .1 0 .2-.1 0-.1.1-.1.1-.2s0-.2-.1-.3c0-.1-.1-.1-.2-.2h-.4zM9.6.8c0-.2.1-.4.2-.5h-.2V0H11c.3 0 .4 0 .5.1.1.1.2.1.3.2.1.1.1.3.1.4 0 .2 0 .4-.1.5-.1.1-.2.2-.4.2v-.3c.1 0 .1 0 .2-.1s.1-.2.1-.3c0-.1 0-.2-.1-.3-.1-.1-.1-.1-.2-.1H11c.1.1.2.3.2.5s-.1.4-.2.5c-.2.1-.4.2-.6.2-.2 0-.3 0-.4-.1s-.2-.1-.3-.2c-.1-.1-.1-.2-.1-.4zm.2 0c0 .1 0 .2.2.3.1.1.2.1.4.1s.4 0 .5-.1c.1-.1.1-.2.1-.3s0-.2-.1-.3c-.1-.1-.3-.1-.5-.1s-.4 0-.5.1c0 .1-.1.2-.1.3zM3 12.3c0 .1 0 .1.1.2h-.3c0-.1-.1-.1-.1-.2-.1.1-.2.2-.3.2-.1 0-.2.1-.3.1-.2 0-.3 0-.4-.1-.1-.1-.2-.2-.2-.4 0-.1 0-.2.1-.2 0-.1.1-.1.2-.2.1 0 .1-.1.2-.1h.3c.2 0 .4-.1.5-.1v-.1c0-.1 0-.2-.1-.3-.1-.1-.2-.1-.3-.1-.1 0-.2 0-.3.1-.1 0-.1.1-.1.3h-.3c0-.1.1-.2.1-.3s.1-.1.3-.2c.1 0 .2-.1.4-.1.1 0 .3 0 .4.1.1 0 .2.1.2.1s.1.1.1.2v.7c-.2.2-.2.3-.2.4zm-.3-.7c-.1 0-.3.1-.5.1-.1 0-.2 0-.3.1-.1 0-.1.1-.1.1v.1c0 .1 0 .1.1.2s.1.1.3.1c.1 0 .2 0 .3-.1s.2-.1.2-.2v-.4zm1.9-.8h.3v1.5c0 .3 0 .5-.1.6s-.1.2-.3.3c-.1.1-.3.1-.4.1-.2 0-.4 0-.5-.1s-.2-.2-.2-.4h.3c0 .1 0 .2.1.2.1.1.2.1.3.1.1 0 .2 0 .3-.1l.2-.2v-.4c-.1.2-.3.2-.5.2s-.4-.1-.6-.3c-.1-.2-.2-.4-.2-.6 0-.2 0-.3.1-.5s.1-.2.3-.3c.1-.1.2-.1.4-.1s.4.1.5.2v-.2zm0 .8c0-.2 0-.4-.1-.5-.1-.1-.2-.2-.3-.2-.1 0-.2.1-.3.2-.1.1-.1.3-.1.5s0 .4.1.5c.1.1.2.2.3.2.1 0 .2-.1.3-.2 0-.1.1-.2.1-.5zm.7-1.1h.3v-.3h-.3v.3zm0 2h.3v-1.7h-.3v1.7zm.7 0h.3v-2.4H6v2.4zM8.1 11c.1.2.2.4.2.7v.1H7c0 .2.1.3.2.4s.2.2.4.2c.1 0 .2 0 .3-.1.1-.1.1-.1.2-.3h.3c0 .2-.1.3-.3.4s-.3.1-.5.1c-.3 0-.5-.1-.6-.2-.1-.2-.2-.4-.2-.7 0-.3.1-.5.2-.7.2-.2.3-.2.6-.2.1 0 .3.1.5.3zm-.1.5c0-.1-.1-.3-.1-.3-.1-.1-.2-.2-.4-.2-.1 0-.2 0-.3.1-.1.1-.1.2-.2.4h1zm3.3 0c.1.1.1.2.1.4 0 .1 0 .2-.1.3 0 .1-.1.2-.2.2-.1.1-.2.1-.3.1H9.5v-2.4h.9c.2 0 .3 0 .4.1.1 0 .2.1.3.2.1.1.1.2.1.3 0 .1 0 .2-.1.3s-.1.2-.3.2c.3.1.4.2.5.3zm-1.4-.4h.8c.1 0 .1-.1.2-.1 0-.1.1-.1.1-.2s0-.2-.1-.2-.1-.1-.2-.1h-.9v.6zm1.2.7c0-.1 0-.2-.1-.2 0-.1-.1-.1-.2-.1h-1v.8h.8c.1 0 .1 0 .2-.1l.1-.1c.2-.1.2-.2.2-.3zm.7-1.3h.3v-.3h-.3v.3zm0 2h.3v-1.7h-.3v1.7zM3.8 9v.4l.1.1v.1c-.1 0-.1 0-.1-.1s-.1-.1-.1-.1V9s0-.1.1-.1h.8v.2h-.1c0 .1.1.1.1.2v.2c0 .1 0 .2-.1.2 0 .1-.1.1-.2.1h-.1s-.1 0-.1-.1v-.2c0-.1 0-.2-.1-.3L3.8 9zM4 9c0 .1 0 .1.1.2v.2c0 .1 0 0 .1 0h.1v-.3L4.2 9H4zm.5-.5H3.3v.1h1.2v-.1zm-1.2-.3h.2v-.1h-.2v.1zm.3 0h.9v-.1h-.9v.1zm.9-.8c0-.1-.1-.1-.1-.1h-.2l-.1.1s0 .1-.1.2v.2h-.2v-.2l.1-.1v-.1c-.1 0-.1 0-.1.1l-.1.1V8s0 .1.1.1H4l.1-.1s0-.1.1-.2c0-.1 0-.1.1-.2h.2V8l-.1.1v.1c.1 0 .2-.1.2-.1 0-.1.1-.1.1-.3-.2-.3-.2-.4-.2-.4zm0-.5h-.9V7h.9v-.1zm-1.1 0h-.2V7h.2v-.1zm1.1-.7c0-.1-.1-.1-.1-.1h-.2l-.1.1s0 .1-.1.2v.2h-.2v-.2l.1-.1v-.1c-.1 0-.1 0-.1.1l-.1.1v.4s0 .1.1.1H4l.1-.1s0-.1.1-.2c0-.1 0-.1.1-.2h.2v.4l-.1.1V7c.1 0 .2-.1.2-.1s.1-.1.1-.3c-.2-.3-.2-.4-.2-.4z"/></svg>