<svg xmlns="http://www.w3.org/2000/svg" viewBox="0 0 13.999500274658203 13.584531784057617"><path d="M8.694 13.585l1.346-3.168 3.222 3.02.737-.786-3.223-3.021 3.076-1.548L5.814 5.63l2.88 7.955zM6.59 2.505a.702.702 0 0 1-1.402 0V.702A.7.7 0 0 1 5.89 0a.7.7 0 0 1 .7.7v1.804zm-2.74.579a.702.702 0 0 1-.99.99L1.583 2.8a.7.7 0 1 1 .991-.99L3.85 3.084zm3.825-.265a.703.703 0 0 0 0 .992.703.703 0 0 0 .992 0L9.94 2.536a.7.7 0 0 0 0-.991.699.699 0 0 0-.99 0L7.675 2.819zM2.503 5.263a.701.701 0 1 1 0 1.402L.7 6.664a.7.7 0 1 1 0-1.401h1.803zM3.346 7.7a.7.7 0 0 1 .991.002.7.7 0 0 1 .001.99L3.063 9.967a.7.7 0 1 1-.99-.991L3.345 7.7z"/></svg>