<svg xmlns="http://www.w3.org/2000/svg" viewBox="0 0 13 12.916010856628418"><path d="M5.68 12.916a.5.5 0 0 1-.397-.196L3.208 10H1.463C.656 10 0 9.428 0 8.621V1.463C0 .656.656 0 1.463 0h10.074C12.344 0 13 .656 13 1.463v7.158C13 9.428 12.344 10 11.537 10H8.151l-2.073 2.72a.504.504 0 0 1-.398.196zM1.463 1A.464.464 0 0 0 1 1.463v7.158c0 .255.208.463.463.463h1.993a.5.5 0 0 1 .397.196l1.827 2.312L7.507 9.28a.502.502 0 0 1 .397-.196h3.633A.464.464 0 0 0 12 8.621V1.463A.464.464 0 0 0 11.537 1H1.463zm1.193 2h7.828c.284.024.514.207.514.49a.498.498 0 0 1-.514.496H2.656a.499.499 0 0 1-.514-.496c.001-.283.231-.466.514-.49zm0 3h7.828c.284.024.514.207.514.49a.498.498 0 0 1-.514.496H2.656a.499.499 0 0 1-.514-.496c.001-.283.231-.466.514-.49z"/></svg>