<svg xmlns="http://www.w3.org/2000/svg" viewBox="0 0 22.553001403808594 22.516000747680664"><path d="M19.552 11.016c-.969 0-1.884.472-2.456 1.275l-.039.054a1.186 1.186 0 0 1-.012-.354V8.016a2.503 2.503 0 0 0-2.486-2.499v-.01h-3.972a1.509 1.509 0 0 1-.321-.041l.002-.001A3.004 3.004 0 0 0 11.558 3c0-1.654-1.346-3-3-3s-3 1.346-3 3a3.02 3.02 0 0 0 1.275 2.456l.054.039a1.22 1.22 0 0 1-.354.012H2.498v.014A2.5 2.5 0 0 0 .045 8.016h.009l.004 3.908c-.058.426.026 1.211.705 1.453.421.15.811-.02 1.165-.518a2.001 2.001 0 0 1 3.632 1.157c0 1.104-.897 2-2 2a2.01 2.01 0 0 1-1.653-.874c-.396-.575-.819-.575-1.106-.468-.773.281-.752 1.297-.748 1.39v3.909c-.001.015-.008.027-.008.043 0 1.379 1.122 2.5 2.5 2.5h12.5a.5.5 0 0 0 0-1h-12.5c-.827 0-1.5-.673-1.5-1.5h.009v-3.971a1.136 1.136 0 0 1 .041-.321l.001.003a3.003 3.003 0 0 0 2.464 1.289c1.654 0 3-1.346 3-3s-1.346-3-3-3a3.02 3.02 0 0 0-2.456 1.275l-.039.054a1.186 1.186 0 0 1-.012-.354V8.016h-.008c0-.827.673-1.5 1.5-1.5v-.009l3.921-.004c.069.009.148.014.232.014.435 0 1.019-.15 1.222-.72.151-.422-.02-.811-.519-1.165A2.002 2.002 0 0 1 8.558 1c1.103 0 2 .897 2 2a2.01 2.01 0 0 1-.874 1.653c-.576.396-.573.82-.468 1.106.281.772 1.296.753 1.39.748h3.896c.014.002.027.009.043.009.827 0 1.5.673 1.5 1.5l.004 3.908c-.057.426.026 1.211.705 1.453.42.15.811-.02 1.165-.518a2.001 2.001 0 0 1 3.633 1.156c0 1.104-.897 2-2 2a2.01 2.01 0 0 1-1.653-.874c-.396-.575-.818-.575-1.105-.468-.773.281-.752 1.297-.748 1.39v3.453a.5.5 0 0 0 1 0v-3.471a1.137 1.137 0 0 1 .04-.321l.001.003a3.008 3.008 0 0 0 2.466 1.289c1.654 0 3-1.346 3-3s-1.347-3-3.001-3z"/></svg>