<svg xmlns="http://www.w3.org/2000/svg" viewBox="0 0 13.99959945678711 14.000883102416992"><path d="M11.184 12.558a7.164 7.164 0 0 1-3.027 1.34l-.016.002a6.522 6.522 0 0 1-1.143.1C3.142 14 .016 10.833 0 6.97.015 3.46 2.617.567 5.998.08v3.062a3.99 3.99 0 0 0-3 3.858 4 4 0 0 0 4 4c.754 0 1.45-.221 2.052-.583l2.134 2.14zm1.16-10.072L10.205 4.63c.492.665.793 1.479.793 2.37A3.97 3.97 0 0 1 9.95 9.68l2.125 2.132A6.975 6.975 0 0 0 13.998 7a6.971 6.971 0 0 0-1.654-4.515zm-.749-.756A6.966 6.966 0 0 0 6.998 0v3a3.96 3.96 0 0 1 2.463.87l2.134-2.14z"/></svg>