<svg xmlns="http://www.w3.org/2000/svg" viewBox="0 0 14.649999618530273 14.147000312805176"><path d="M12.805 2.69c.017-.029.038-.061.051-.086.708-1.38-.097-2.604-.097-2.604l-2.594 2.595-1.21 1.21-1.831 1.833L1.699.213s-.705 1.122.004 2.502c.39.757 2.292 2.666 3.979 4.366L4.664 8.099c-1.275-.692-2.526-.37-3.468.572C.009 9.86 0 11.765 1.189 12.952s3.129 1.195 4.316.008a3.03 3.03 0 0 0 .702-3.225c.229-.223.634-.615 1.128-1.104.498.486.9.876 1.131 1.098a3.043 3.043 0 0 0 4.996 3.23c1.188-1.188 1.082-3.01-.105-4.197-.941-.942-2.311-1.171-3.584-.478L8.728 7.241c1.166-1.195 2.371-2.472 3.203-3.447 0 0 .742-.849.874-1.104zm-8.168 9.395zm2.098-5.498a.75.75 0 1 1 1.061 1.06.75.75 0 0 1-1.061-1.06zm5.856 2.942a1.809 1.809 0 1 1-2.557 2.559 1.809 1.809 0 0 1 2.557-2.559z"/></svg>