<svg xmlns="http://www.w3.org/2000/svg" viewBox="0 0 19.25 22"><path d="M9.625 0C4.989 0 0 1.398 0 4.469v13.062C0 20.601 4.989 22 9.625 22s9.625-1.399 9.625-4.469V4.469C19.25 1.398 14.26 0 9.625 0zm8.25 17.531c0 1.708-3.693 3.094-8.25 3.094-4.556 0-8.25-1.386-8.25-3.094v-2.569c1.421 1.465 4.846 2.226 8.25 2.226 3.403 0 6.829-.761 8.25-2.226v2.569zm0-4.125h-.003l.003.021c0 1.697-3.693 3.072-8.25 3.072-4.556 0-8.25-1.375-8.25-3.072l.003-.021h-.003v-2.569c1.421 1.463 4.846 2.225 8.25 2.225 3.403 0 6.829-.762 8.25-2.225v2.569zm0-4.125h-.003l.003.021c0 1.697-3.693 3.072-8.25 3.072-4.556 0-8.25-1.375-8.25-3.072l.003-.021h-.003V6.919c1.802 1.373 5.104 2.019 8.25 2.019s6.448-.646 8.25-2.018v2.361zm-8.25-1.719c-4.556 0-8.25-1.386-8.25-3.094 0-1.709 3.694-3.094 8.25-3.094 4.557 0 8.25 1.384 8.25 3.094 0 1.709-3.693 3.094-8.25 3.094zm6.188 9.626c.381 0 .688.307.688.688s-.307.688-.688.688a.688.688 0 1 1 0-1.376zm0-4.126c.381 0 .688.307.688.688s-.307.688-.688.688-.688-.307-.688-.688.307-.688.688-.688zm0-4.124c.381 0 .688.307.688.688s-.307.688-.688.688a.688.688 0 0 1 0-1.376z"/></svg>