<svg xmlns="http://www.w3.org/2000/svg" viewBox="0 0 120 120"><path d="M5.6 60.5H0v-.9h5.6v.9zm114.4-1h-5.6v.9h5.6v-.9zM60.5 5.6V0h-.9v5.6h.9zm0 114.4v-5.6h-.9v5.6h.9zm38.3-98.1l4-4-.7-.7-4 4 .7.7zm-80.9 80.9l4-4-.7-.7-4 4 .7.7zm80.2-4l4 4 .7-.7-4-4-.7.7zM17.2 17.9l4 4 .7-.7-4-4-.7.7zm97.3 28l3.6-1-.2-.9-3.6 1 .2.9zM2.2 76l3.6-1-.2-.9-3.6 1 .2.9zm106.7-43.7l3.2-1.9-.5-.8-3.2 1.9.5.8zM8.3 90.4l3.2-1.9-.5-.8-3.2 1.9.5.8zm80.2-78.9l1.9-3.2-.8-.5-1.9 3.2.8.5zM30.4 112.2l1.9-3.2-.8-.5-1.9 3.2.8.5zM75 5.8l1-3.6-.9-.2-1 3.6.9.2zM44.9 118.1l1-3.6-.9-.2-1 3.6.9.2zm1-112.6l-1-3.6-.9.3 1 3.6.9-.3zM76 117.8l-1-3.6-.9.2 1 3.6.9-.2zM32.3 11.1l-1.9-3.2-.8.5 1.9 3.2.8-.5zm58.1 100.6l-1.9-3.2-.8.5 1.9 3.2.8-.5zM11.5 31.5l-3.2-1.9-.5.8 3.2 1.9.5-.8zm100.7 58.1l-3.2-1.9-.5.8 3.2 1.9.5-.8zM5.8 45l-3.6-1-.2.9 3.6 1 .2-.9zm112.3 30.1l-3.6-1-.2.9 3.6 1 .2-.9zM82 8.2l1.4-3.5-.9-.4-1.4 3.5.9.4zM37.5 115.6l1.4-3.5-.9-.4-1.4 3.5.9.4zM67.8 4.3l.5-3.7-.9-.1-.5 3.7.9.1zM52.6 119.5l.5-3.7-.9-.1-.5 3.7.9.1zm.5-115.3L52.6.5l-.9.1.5 3.7.9-.1zm15.2 115.2l-.5-3.7-.9.1.5 3.7.9-.1zM38.9 7.9l-1.4-3.5-.9.4L38 8.3l.9-.4zm44.5 107.4l-1.4-3.5-.9.4 1.4 3.5.9-.4zM26.1 15.1l-2.3-3-.7.6 2.3 3 .7-.6zm70.8 92.2l-2.3-3-.7.6 2.3 3 .7-.6zM15.7 25.4l-3-2.3-.6.7 3 2.3.6-.7zm92.2 70.8l-3-2.3-.6.7 3 2.3.6-.7zM8.2 38l-3.5-1.4-.4.9 3.5 1.4.4-.9zm107.4 44.5l-3.5-1.4-.4.9 3.5 1.4.4-.9zM4.3 52.2l-3.7-.5-.1.9 3.7.5.1-.9zm115.2 15.2l-3.7-.5-.1.9 3.7.5.1-.9zM4.2 66.9l-3.7.5.1.9 3.7-.5-.1-.9zm115.2-15.2l-3.7.5.1.9 3.7-.5-.1-.9zM7.9 81.1l-3.5 1.4.4.9L8.3 82l-.4-.9zm107.4-44.5l-3.5 1.4.4.9 3.5-1.4-.4-.9zM15.1 93.9l-3 2.3.6.7 3-2.3-.6-.7zm92.2-70.8l-3 2.3.6.7 3-2.3-.6-.7zm-81.9 81.2l-2.3 3 .7.6 2.3-3-.7-.6zm70.8-92.2l-2.3 3 .7.6 2.3-3-.7-.6z"/></svg>