<svg xmlns="http://www.w3.org/2000/svg" viewBox="0 0 14.984624862670898 14.28499984741211"><path d="M14.832 6.785l-4.426 7.172a.701.701 0 0 1-.561.327l-.031.001a.703.703 0 0 1-.557-.276L6.392 10.44a.698.698 0 0 1 1.112-.842l2.254 2.762 3.893-6.311a.696.696 0 1 1 1.181.736zm-3.696-3.261L5.568 9.215 0 3.524 1.758 0h7.619l1.759 3.524zm-6.068.398h-3.28l3.28 3.352V3.922zm1 3.352l3.279-3.352H6.068v3.352zm3.65-4.352l-.81-1.621-1.864 1.621h2.674zM7.73 1H3.416l2.152 1.878L7.73 1zM1.418 2.922h2.679L2.231 1.294l-.813 1.628z"/></svg>