<svg xmlns="http://www.w3.org/2000/svg" viewBox="0 0 22.041078567504883 18.615001678466797"><path d="M21.925 5.84L18.446.236a.488.488 0 0 0-.289-.201c-.037-.012-.072-.025-.111-.029-.008 0-.016-.006-.024-.006H4.01C4 0 3.991.007 3.981.007a.5.5 0 0 0-.175.046c-.015.006-.03.008-.045.016l-.01.004a.508.508 0 0 0-.154.152c-.002.004-.008.006-.01.01L.077 5.839c-.006.007-.003.016-.007.025a.48.48 0 0 0-.07.24c0 .009.005.017.005.026 0 .016.006.028.009.044.013.089.047.17.101.237.005.007.004.017.01.023l10.562 11.978c.095.107.231.17.375.17.119.033.282-.063.377-.172l5.898-6.782a.501.501 0 0 0-.754-.657l-4.446 5.116 2.834-9.483h5.431l-1.999 2.302a.5.5 0 1 0 .754.658l2.721-3.131a.501.501 0 0 0 .047-.593zM4.004 1.452l2.523 4.152H1.403l2.601-4.152zm3.461 3.77L4.9 1h5.013L7.465 5.222zm3.54-4.114l2.606 4.496H8.4l2.605-4.496zM7.039 6.604l2.786 9.32-8.218-9.32h5.432zm1.044 0h5.845l-2.923 9.777-2.922-9.777zM12.098 1h5.014l-2.566 4.222L12.098 1zm5.917.438l2.586 4.166h-5.118l2.532-4.166z"/></svg>