<svg xmlns="http://www.w3.org/2000/svg" viewBox="0 0 13.832653045654297 11.684000015258789"><path d="M13.74 3.658L11.586.189a.397.397 0 0 0-.216-.157.402.402 0 0 0-.107-.028c-.007 0-.011-.004-.017-.004H2.573c-.006 0-.012.004-.019.005a.373.373 0 0 0-.148.038c-.01.005-.022.006-.032.012-.002.002-.005.001-.008.003a.387.387 0 0 0-.123.122c-.003.003-.007.004-.009.008L.061 3.656c-.004.007-.001.014-.005.02A.395.395 0 0 0 0 3.869c0 .007.004.014.004.021 0 .013.005.023.007.036.011.07.038.134.081.188.004.006.003.013.008.019l6.538 7.415a.4.4 0 0 0 .3.136h.001a.401.401 0 0 0 .301-.138l6.462-7.415a.399.399 0 0 0 .038-.473zM2.568 1.161L3.97 3.469H1.123l1.445-2.308zm6.023 3.108L6.903 9.915 5.215 4.269h3.376zm-3.144-.8L6.903.957l1.456 2.512H5.447zM7.737.8h2.785L9.096 3.146 7.737.8zM4.71 3.146L3.284.8h2.785L4.71 3.146zm-.33 1.123l1.587 5.31-4.682-5.31H4.38zm5.046 0h3.095L7.81 9.674l1.616-5.405zm.411-.8l1.406-2.315 1.438 2.315H9.837z"/></svg>