<svg xmlns="http://www.w3.org/2000/svg" viewBox="0 0 13.000627517700195 13.000626564025879"><path d="M12.9 6.28l-2.332-2.187A.329.329 0 0 0 10.334 4a.319.319 0 0 0-.234.093.282.282 0 0 0-.1.219V6H7V3h1.688a.289.289 0 0 0 .22-.1A.335.335 0 0 0 9 2.667a.338.338 0 0 0-.093-.234L6.72.1a.292.292 0 0 0-.44 0L4.092 2.433A.325.325 0 0 0 4 2.667c0 .09.03.169.093.234.061.068.134.1.22.1H6v3H3V4.313a.284.284 0 0 0-.1-.22A.322.322 0 0 0 2.666 4a.325.325 0 0 0-.234.093L.1 6.28a.293.293 0 0 0 0 .44L2.432 8.91a.342.342 0 0 0 .468-.001.287.287 0 0 0 .1-.22V7.002h3v3H4.312a.284.284 0 0 0-.22.1.322.322 0 0 0-.092.234c0 .089.03.167.093.234L6.28 12.9a.293.293 0 0 0 .441 0l2.188-2.332a.342.342 0 0 0 0-.468.287.287 0 0 0-.22-.1H7V7h3v1.688c0 .084.032.157.1.22.065.06.143.092.234.092a.338.338 0 0 0 .234-.093L12.9 6.72a.292.292 0 0 0 0-.441z"/></svg>