<svg xmlns="http://www.w3.org/2000/svg" viewBox="0 0 14.00100040435791 12.285168647766113"><path d="M13.955 2.924l.001-.004a.235.235 0 0 0 .019-.043l.01-.02c.004-.013.004-.023.007-.034.003-.013.006-.024.007-.035V2.77c.001-.018.002-.034 0-.05l-.005-.025c-.002-.014-.004-.029-.008-.044l-.008-.02a.366.366 0 0 0-.018-.046l-.001-.003a.226.226 0 0 0-.013-.02c-.008-.012-.015-.025-.024-.036l-.025-.027-.023-.023a.27.27 0 0 0-.039-.027l-.016-.01-.006-.004h-.002L9.565.046 9.558.043 9.526.03a.365.365 0 0 0-.035-.014L9.47.011a.263.263 0 0 0-.047-.01h-.016a.313.313 0 0 0-.053.001l-.02.004a.294.294 0 0 0-.048.01l-.022.01c-.015.005-.028.01-.043.018l-.006.003L7 1.287 4.785.046 4.779.044C4.765.036 4.75.032 4.736.026a.497.497 0 0 0-.022-.009.295.295 0 0 0-.05-.01L4.647.003a.351.351 0 0 0-.056 0h-.012a.299.299 0 0 0-.052.01l-.016.002-.04.017a.108.108 0 0 0-.028.011l-.008.004L.188 2.433l-.006.003c-.007.004-.012.01-.017.013a.24.24 0 0 0-.063.05l-.024.026c-.01.011-.017.025-.025.037l-.012.018-.001.004c-.008.014-.013.03-.018.043-.003.008-.007.015-.009.023-.004.011-.005.023-.007.036-.002.011-.005.021-.006.032v.07l.006.027a.257.257 0 0 0 .008.04.214.214 0 0 1 .01.022c.006.015.012.03.019.043l.001.004c.002.002.005.004.006.008a.368.368 0 0 0 .064.077c.015.014.032.026.05.04l.019.012.006.003 1.907 1.01-1.657.8c-.006.001-.012.006-.018.01-.012.006-.023.012-.033.02-.01.006-.018.014-.027.022s-.018.015-.025.024l-.025.03-.014.017c-.002.001-.003.005-.005.008l-.018.033-.014.03-.01.032-.007.036-.003.032-.002.035c0 .013.002.023.004.034a.2.2 0 0 0 .014.066.235.235 0 0 0 .014.037l.003.01.007.01c.013.022.026.045.044.065.004.004.007.01.012.014.019.02.039.037.062.054l2.144 1.424a.342.342 0 0 0-.01.08v2.117l.002.018a.4.4 0 0 0 .005.051c.002.012.006.021.01.033a.414.414 0 0 0 .01.033c.004.012.01.021.015.031.005.01.01.021.017.031.006.01.014.018.021.027.008.008.014.018.022.027l.038.031c.006.004.01.01.016.012l.001.002 4.109 2.81v.001l.024.012.023.014c.013.006.026.012.04.016a.505.505 0 0 0 .035.01c.026.006.052.01.079.01v.002L7 12.281a.333.333 0 0 0 .078-.01c.006 0 .01-.002.016-.004a.505.505 0 0 0 .059-.022.485.485 0 0 0 .023-.012l.023-.014c.001 0 .002 0 .002-.002l4.109-2.81.018-.015.035-.029.023-.027c.006-.01.014-.018.021-.027l.016-.03c.006-.01.012-.02.016-.032l.011-.033c.003-.012.007-.02.009-.033a.319.319 0 0 0 .006-.053l.002-.016V6.995a.327.327 0 0 0-.01-.078l2.145-1.425a.525.525 0 0 0 .062-.053l.011-.015a.36.36 0 0 0 .051-.075l.004-.009a.292.292 0 0 0 .014-.038l.01-.029c.002-.012.004-.023.004-.036.002-.01.004-.02.004-.033l-.001-.035-.003-.033-.008-.033c-.004-.012-.006-.023-.011-.034l-.013-.028a.253.253 0 0 0-.02-.036l-.004-.008-.014-.016a.376.376 0 0 0-.05-.054.186.186 0 0 0-.027-.022.186.186 0 0 0-.035-.022c-.006-.003-.012-.009-.018-.01l-1.656-.8 1.906-1.009.006-.004.018-.012a.311.311 0 0 0 .053-.04l.018-.018a.291.291 0 0 0 .045-.06l.007-.006zm-4.567 4.51L7.699 6.33l3.42-1.843 1.564.755-3.295 2.19zm-4.776 0l-3.296-2.19 1.564-.756L6.3 6.331 4.612 7.433zM4.61.768l1.667.934-3.396 1.975-1.777-.939L4.61.77zM7 5.896l-3.378-1.82L7 2.111l3.379 1.963L7 5.896zm.722-4.194L9.389.768l3.507 1.97-1.776.94-3.398-1.976zM4.412 8.16a.196.196 0 0 0 .014.006.35.35 0 0 0 .062.03.429.429 0 0 0 .029.011.335.335 0 0 0 .089.012l.004.002.004-.002c.03 0 .06-.004.089-.012l.028-.012a.307.307 0 0 0 .062-.027l.013-.006 1.837-1.199v4.283l-3.395-2.32V7.387l1.164.773zm6.34.766l-3.395 2.32V6.963l1.837 1.2a.387.387 0 0 0 .075.034c.01.002.018.006.027.01.029.008.06.012.09.012l.004.002.002-.002a.29.29 0 0 0 .119-.024.392.392 0 0 0 .062-.029c.005-.004.01-.004.014-.006l1.165-.773v1.54z"/></svg>