<svg xmlns="http://www.w3.org/2000/svg" viewBox="0 0 13.177999496459961 14.033857345581055"><path d="M4.044 13.87a.367.367 0 0 1-.507 0 .36.36 0 0 1-.001-.508l1.431-1.436-.484-.002c-2.558-.01-3.539-1.14-3.897-1.81a2.285 2.285 0 0 1-.284-.971c.624 1.315 2.126 2.063 4.185 2.063h.489L3.537 9.769a.36.36 0 0 1 0-.508.367.367 0 0 1 .508 0l2.051 2.048c.067.069.105.159.105.255s-.038.188-.105.254L4.044 13.87zM7.27 2.186a.364.364 0 0 0 .001.51l2.051 2.048a.37.37 0 0 0 .508 0 .36.36 0 0 0-.002-.508L8.39 2.799h.488c2.057 0 3.562.749 4.184 2.064a2.273 2.273 0 0 0-.281-.971c-.359-.67-1.342-1.8-3.898-1.811l-.484-.002L9.829.643a.358.358 0 0 0 0-.508.367.367 0 0 0-.506 0L7.27 2.185zM.146 6.155c-.11.154-.146.3-.111.438a.541.541 0 0 0 .245.332c.308.205.564.164.77-.125L5.197.998a.525.525 0 0 0 .104-.39C5.284.477 5.19.358 5.024.257c-.167-.103-.321-.13-.462-.082-.141.048-.274.159-.395.332L.146 6.155zM1.349.382C1.238.235 1.127.156 1.007.146.887.136.746.19.579.305a.595.595 0 0 0-.231.342.448.448 0 0 0 .047.38L4.542 6.79a.647.647 0 0 0 .322.26c.119.039.268 0 .448-.115.167-.11.262-.223.283-.342a.382.382 0 0 0-.061-.313L1.349.382zm10.026 10.67l1.701-3.118a.74.74 0 0 0 .102-.366c-.002-.115-.08-.228-.236-.337a.704.704 0 0 0-.398-.095c-.08.006-.16.027-.236.062s-.137.09-.182.168l-1.357 2.617-1.404-2.656c-.07-.128-.182-.191-.332-.191s-.289.038-.418.115a.47.47 0 0 0-.232.332.573.573 0 0 0 .059.39l1.703 3.079v2.482c0 .115.047.229.139.337s.249.163.474.163.385-.051.477-.154a.506.506 0 0 0 .141-.346v-2.482z"/></svg>