<svg xmlns="http://www.w3.org/2000/svg" viewBox="0 0 13.957000732421875 13.967999458312988"><path d="M9.908 5.918h-.951v-.95h.951v.95zm0 1.088h-.951v.95h.951v-.95zm0 1.962h-.951v.95h.951v-.95zm0 2.051h-.951v.949h.951v-.949zm2.044-4.013h-.951v.95h.951v-.95zm0 1.962h-.951v.95h.951v-.95zm0 2.051h-.951v.949h.951v-.949zM0 2.748v8.512l6.921.69V2.017L0 2.748zm5.371 6.594c-.136.088-.249.117-.34.088a.501.501 0 0 1-.244-.197L3.462 7.39 2.14 9.241c-.156.219-.35.25-.584.094a.417.417 0 0 1-.186-.251c-.026-.104.001-.216.084-.332l1.485-2.087-1.295-1.801a.342.342 0 0 1-.037-.289.446.446 0 0 1 .175-.259c.126-.087.234-.127.324-.12s.177.067.26.179l1.1 1.55L4.503 4.47c.092-.131.191-.215.299-.252s.224-.016.35.062c.126.078.197.167.211.266s-.012.199-.08.295L3.985 6.657l1.553 2.188c.049.068.064.147.048.237s-.089.178-.215.26zM11.057 0H1.395a.44.44 0 0 0-.438.438v1.346l1-.092V.943h8v3.025h3V13h-11v-.68l-1-.096v1.306c0 .242.197.438.438.438H13.52c.24 0 .437-.196.437-.438V2.968L11.057 0zm-.125 3V1.068L12.957 3h-2.025z"/></svg>