<svg xmlns="http://www.w3.org/2000/svg" viewBox="0 0 17.00200080871582 17.006999969482422"><path d="M11.002 5.504l.002-.009-.002-.011V.521c0-.287.225-.521.5-.518a.51.51 0 0 1 .501.519v4.481h4.481a.51.51 0 0 1 .518.5c0 .275-.23.5-.52.5h-4.963l-.009-.002-.007.002a.482.482 0 0 1-.296-.111c-.02-.015-.041-.023-.057-.04-.005-.005-.007-.011-.012-.017a.49.49 0 0 1-.136-.331zM5.502.003a.51.51 0 0 0-.501.519v4.481H.52a.509.509 0 0 0-.518.5c0 .275.23.5.52.5h4.963l.009-.002.007.002a.482.482 0 0 0 .296-.111c.02-.015.041-.023.057-.04.005-.005.007-.011.012-.017a.49.49 0 0 0 .136-.331L6 5.495l.002-.011V.521a.507.507 0 0 0-.5-.518zm10.98 11h-4.963l-.009.002-.007-.002a.486.486 0 0 0-.297.112c-.019.014-.04.022-.056.039-.005.005-.007.011-.012.017a.49.49 0 0 0-.136.331l.002.009-.002.011v4.964c0 .286.225.521.5.518a.51.51 0 0 0 .501-.519v-4.482h4.481a.51.51 0 0 0 .518-.5.51.51 0 0 0-.52-.5zm-10.617.168c-.005-.006-.007-.012-.012-.017-.016-.017-.037-.025-.056-.039a.48.48 0 0 0-.296-.112l-.008.002-.009-.002H.522a.51.51 0 0 0-.52.5c-.002.275.232.5.518.5h4.481v4.481c0 .288.226.52.501.519.275.003.5-.231.5-.518v-4.964L6 11.51l.002-.008a.487.487 0 0 0-.137-.331zm2.637-4.168a1.5 1.5 0 1 0 .001 3.001 1.5 1.5 0 0 0-.001-3.001z"/></svg>