<svg xmlns="http://www.w3.org/2000/svg" viewBox="0 0 13.619999885559082 12.499999046325684"><path d="M13.62 1.544C13.62.529 12.796 0 11.782 0H1.84C.825 0 0 .529 0 1.544c0 .446.166.72.457 1.055.018.025.045-.02.067.003L4.62 6.605v4.279c0 .285.215.517.5.517s.5-.231.5-.516V6.392a.516.516 0 0 0-.151-.365L1.275 1.834c-.008-.009-.01-.021-.019-.029-.144-.15-.224-.069-.224-.277.001-.446.362-.528.808-.528h9.942c.443 0 .805.082.805.527 0 .207-.078.264-.221.414-.004.004-.005-.061-.008-.057L7.892 6.193c-.096.097-.272.194-.272.33v5.461c0 .286.215.516.5.516s.5-.23.5-.516V6.737l4.352-4.214c.006-.006.077.133.084.126.318-.34.564-.637.564-1.105z"/></svg>