<svg xmlns="http://www.w3.org/2000/svg" viewBox="0 0 14 14"><path d="M7 0a7 7 0 1 0 0 14A7 7 0 0 0 7 0zm0 13.012C3.68 13.012.99 10.321.99 7S3.68.988 7 .988a6.012 6.012 0 0 1 0 12.024zM3.514 6.486h5.734l-2.401-2.4a.514.514 0 0 1 .726-.726l3.277 3.276c.01.01.013.022.021.032a.49.49 0 0 1 .09.135.53.53 0 0 1 .035.175c-.001.008.004.014.004.022 0 .012-.007.021-.007.032a.548.548 0 0 1-.032.164.52.52 0 0 1-.106.159l-.005.008-3.278 3.277a.51.51 0 0 1-.725 0 .514.514 0 0 1 0-.726l2.401-2.401-5.734.005c-.284 0-.514-.23-.514-.513s.23-.519.514-.519z"/></svg>