<svg xmlns="http://www.w3.org/2000/svg" viewBox="0 0 13.005892753601074 13.011154174804688"><path d="M13 .514l.003.01v3.964a.507.507 0 0 1-.5.518.51.51 0 0 1-.501-.52V1.715L8.866 4.85a.507.507 0 0 1-.72.013.51.51 0 0 1 .013-.721l3.137-3.136H8.52a.509.509 0 0 1-.518-.5c0-.275.23-.5.52-.5h3.963a.03.03 0 0 1 .009.002.48.48 0 0 1 .304.11c.019.014.04.023.056.039.005.005.007.01.012.016a.49.49 0 0 1 .136.332L13 .514zm-11.29.492h2.775c.286 0 .52-.225.518-.5a.51.51 0 0 0-.52-.5H.52a.03.03 0 0 0-.01.002L.505.006a.48.48 0 0 0-.297.112C.189.132.167.14.15.157.147.162.145.169.14.173a.487.487 0 0 0-.137.332l.002.009-.002.01V4.49c0 .286.225.52.5.517a.51.51 0 0 0 .5-.52V1.715L4.14 4.85c.202.203.526.21.72.013a.51.51 0 0 0-.013-.721L1.71 1.006zm11.293 7.518a.507.507 0 0 0-.5-.518.51.51 0 0 0-.501.519v2.773L8.866 8.162a.507.507 0 0 0-.72-.013.51.51 0 0 0 .013.72l3.137 3.137H8.52a.509.509 0 0 0-.518.5c0 .275.23.5.52.5h3.963l.009-.002.007.002a.477.477 0 0 0 .296-.112c.019-.014.04-.022.057-.04.005-.004.007-.01.012-.015a.488.488 0 0 0 .136-.332l-.002-.01.002-.01V8.524zm-8.518 3.482H1.71L4.847 8.87a.508.508 0 0 0 .012-.72.507.507 0 0 0-.72.013l-3.136 3.136V8.525a.508.508 0 0 0-.5-.52.507.507 0 0 0-.5.519v3.964l.002.01-.002.01c0 .129.054.243.137.332l.01.016c.017.017.039.025.057.039a.487.487 0 0 0 .297.11l.008-.001.009.002h3.962a.51.51 0 0 0 .52-.5.509.509 0 0 0-.518-.5z"/></svg>