<svg xmlns="http://www.w3.org/2000/svg" viewBox="0 0 12.042001724243164 13.165000915527344"><path d="M11.918 9.912c-.028.098-.154.166-.321.256a.598.598 0 0 1-.45.055.564.564 0 0 1-.289-.213L9.354 8.02 7.529 10c-.218.236-.465.271-.747.104-.116-.068-.328-.32-.353-.434-.024-.113.021-.232.137-.359l2.018-2.196-1.47-1.945c-.061-.089-.067-.193-.019-.311.046-.118.155-.188.271-.257a.728.728 0 0 1 .433-.088c.114.007.217.072.312.192l1.222 1.593 1.479-1.611c.128-.142.273-.192.413-.232.139-.04.414.104.564.188.154.083.234.179.244.287.009.108-.033.214-.129.319l-1.807 1.96 1.783 2.445c.056.073.07.161.038.257zM7.274.165C6.647.094 5.334 0 4.538.515 3.74 1.032 3.282 1.92 3.06 2.976l-.313 1.492H.5c-.261 0-.469.075-.491.543.022.255.23.457.491.457h2.032L1.193 12.01s-.343 1.067.407 1.114c.655.041.785-1.025.785-1.025l1.35-6.631H5.45a.5.5 0 0 0 0-1H3.948l.297-1.462C4.88.676 6.064 1.242 7.158 1.242c.179 0 .854.047.901-.415.06-.578-.521-.632-.785-.662zM0 5.084c0-.03.007-.045.009-.072C.007 4.997 0 4.984 0 4.968v.116z"/></svg>