<svg xmlns="http://www.w3.org/2000/svg" viewBox="0 0 14 11.721830368041992"><path d="M11.2 1.022l-.566-.565A1.552 1.552 0 0 0 8.436.456l-7.173 7.17C1.05 7.843.25 10.859.198 10.93L0 11.722l.792-.2c.069-.051 3.086-.852 3.3-1.065l7.173-7.173c.301-.302.454-.702.453-1.1.002-.394-.216-.861-.518-1.162zm-7.803 8.74c.012.064-2.348.908-2.354.902.007.006.853-2.353.915-2.344l5.455-5.454 1.439 1.44-5.455 5.457zm7.172-7.172L9.548 3.612l-1.439-1.44L9.13 1.15a.577.577 0 0 1 .407-.168.58.58 0 0 1 .403.168l.565.566c.112.114.232.32.232.469a.559.559 0 0 1-.168.405zM7.55 11a.5.5 0 0 1-.5-.5v.116c0-.547.223-.615.5-.615h5.95a.5.5 0 0 1 0 1H7.55z"/></svg>