<svg xmlns="http://www.w3.org/2000/svg" viewBox="0 0 21 21"><path d="M10.5 21C4.711 21 0 16.289 0 10.5 0 4.71 4.711 0 10.5 0S21 4.71 21 10.5a.5.5 0 0 1-1 0C20 5.262 15.738 1 10.5 1S1 5.262 1 10.5 5.262 20 10.5 20c3.902 0 7.467-2.446 8.868-6.087a.5.5 0 0 1 .933.359C18.753 18.297 14.814 21 10.5 21zm.438-8.622c0-1.129.738-1.77 1.854-2.741l.099-.085c.909-.791 1.239-2.157.803-3.325-.437-1.168-1.547-1.865-2.97-1.865-2.795 0-3.582 2.061-3.608 3.151a.498.498 0 0 0 .485.51.507.507 0 0 0 .515-.483c.007-.223.147-2.178 2.608-2.178 1.373 0 1.863.762 2.033 1.216.289.772.068 1.705-.522 2.219l-.098.085c-1.181 1.025-2.199 1.911-2.199 3.496a.5.5 0 0 0 1 0zm-.459 1.76a1 1 0 1 0 0 2 1 1 0 1 0 0-2z"/></svg>