<svg xmlns="http://www.w3.org/2000/svg" viewBox="0 0 14.317642211914062 14.059268951416016"><path d="M7.4.03a7 7 0 1 0 .002 13.999A7 7 0 0 0 7.4.03zm0 13.012a6.012 6.012 0 1 1 0-12.024 6.012 6.012 0 0 1 0 12.024zM5.478 4.181c.416-.442.987-.664 1.712-.664.67 0 1.209.189 1.612.568.404.378.605.862.605 1.451 0 .356-.072.646-.22.868-.145.223-.446.549-.9.979-.328.315-.543.58-.643.797-.1.217-.15.338-.15.763h-.898c0-.481.057-.671.172-.965.114-.295.369-.632.763-1.012l.413-.398c.124-.114.224-.234.3-.358a1.301 1.301 0 0 0-.092-1.54c-.2-.244-.533-.366-.997-.366-.574 0-.971.209-1.191.626-.124.233-.194.568-.211 1.005h-.9c0-.726.209-1.311.625-1.754zm1.07 5.849h1v.995h-1v-.995z"/></svg>