<svg xmlns="http://www.w3.org/2000/svg" viewBox="0 0 14.791999816894531 16.01599884033203"><path d="M5.243.742l-1.306.754h.007l-.619.357-1.579.912s-.82.468-1.261 1.217C0 4.805.028 6.24.028 6.24v3.535S0 11.211.485 12.034c.441.749 1.261 1.217 1.261 1.217l1.364.787.006.009 1.552.896h.002l.573.33s1.229.743 2.185.734c.869-.009 1.683-.484 1.683-.484l.54-.311h.006l3.388-1.957s.82-.468 1.262-1.217c.485-.823.456-2.259.456-2.259V7.876l.008.012v-2.15s.004-.944-.423-1.701c-.471-.832-1.729-1.525-1.729-1.525l-1.306-.754.005.01-.349-.201h.004L9.111.492S8.297.016 7.428.008C6.472 0 5.243.742 5.243.742z"/></svg>