<svg xmlns="http://www.w3.org/2000/svg" viewBox="0 0 15.48699951171875 13.166000366210938"><path d="M10.797.828c-.047.462-.723.414-.902.414-1.091 0-2.276-.566-2.912 1.765l-.297 1.462h1.502a.5.5 0 0 1 0 1H6.473L5.123 12.1s-.13 1.066-.785 1.025c-.75-.047-.406-1.114-.406-1.114L5.27 5.469H4.238a.494.494 0 0 1-.491-.457c.022-.468.23-.543.491-.543h1.247l.313-1.492c.222-1.057.68-1.945 1.478-2.461C8.073 0 9.385.094 10.012.165c.264.03.844.084.785.663zM2.736 5.01a.5.5 0 1 0-.977-.215L.057 12.449c-.057.255-.026.475.425.597a.494.494 0 0 0 .552-.381L2.736 5.01zm1.002.074c0-.03.007-.045.009-.072-.003-.015-.009-.028-.009-.043v.115zm-.963-3.276a.75.75 0 1 0 0 1.5.75.75 0 0 0 0-1.5zm7.499 11.132c.256-.214.324-.634.154-.938-.006-.013-.682-1.238-.574-2.994.107-1.714 1.115-2.885 1.139-2.912a.774.774 0 0 0 .037-.949.498.498 0 0 0-.793-.025c-.055.063-1.359 1.543-1.497 3.817-.139 2.239.724 3.775.759 3.841a.53.53 0 0 0 .422.281.5.5 0 0 0 .353-.121zm2.951.071a.511.511 0 0 0 .467-.18c.049-.056 1.189-1.362 1.49-3.583.305-2.254-.684-4-.725-4.07-.174-.303-.523-.372-.779-.157-.256.216-.32.637-.146.938.016.032.775 1.405.545 3.105-.234 1.74-1.133 2.787-1.143 2.797a.777.777 0 0 0-.031.951.53.53 0 0 0 .322.199z"/></svg>