<svg xmlns="http://www.w3.org/2000/svg" viewBox="0 0 11 12.996999740600586"><path d="M11 2.997v9a1 1 0 0 1-1 1H1a1 1 0 0 1-1-1v-9h2.552c1.138 0 1.138 1 0 1H1v8h9v-8H8.516c-1.138 0-1.138-1 0-1H11zM8 6.406c0-.132.041-.263-.059-.362a.514.514 0 0 0-.727 0L5.972 7.245V.532c0-.294-.181-.532-.464-.531-.283-.001-.483.237-.483.53l-.002 6.714-1.109-1.201a.512.512 0 0 0-.726 0c-.201.199-.292.524-.091.724l2.077 2.079c.009.01.022.014.032.021a.54.54 0 0 0 .135.09.421.421 0 0 0 .146.035c.008 0 .014.004.022.004.011 0 .021-.006.032-.006.055-.004.011-.012.064-.033.059-.025.163-.062.208-.106l.008-.005 2.028-2.078c.1-.1.151-.231.151-.363z"/></svg>