<svg xmlns="http://www.w3.org/2000/svg" viewBox="0 0 16.978879928588867 15.777113914489746"><path d="M15.075 4.433a6.916 6.916 0 0 0-9.439-2.528 6.85 6.85 0 0 0-3.16 4.015H.576a.577.577 0 0 0 0 1.155H6.04a.577.577 0 1 0 0-1.155H3.846c.457-1.22 1.29-2.245 2.432-2.904a5.633 5.633 0 0 1 7.688 2.059 5.634 5.634 0 0 1-2.06 7.689 5.634 5.634 0 0 1-7.688-2.061l-.003-.006 1.706.459a.642.642 0 0 0 .332-1.24l-3.202-.857a.65.65 0 0 0-.487.063.648.648 0 0 0-.299.39l-.857 3.2a.642.642 0 1 0 1.24.333l.456-1.707.003.006a6.916 6.916 0 0 0 9.44 2.529 6.919 6.919 0 0 0 2.528-9.44z"/></svg>