<svg xmlns="http://www.w3.org/2000/svg" viewBox="0 0 15 14"><path d="M9.206 10.15a.514.514 0 0 1 .727 0c.1.1.059.23.059.363a.51.51 0 0 1-.15.361L7.905 12.85l-.008.005c-.045.045-.149.081-.208.106-.054.021-.01.029-.064.033-.012 0-.021.006-.032.006-.008 0-.014-.004-.021-.004a.411.411 0 0 1-.146-.035.514.514 0 0 1-.135-.09c-.01-.008-.023-.012-.032-.021l-2.146-1.975c-.201-.199-.109-.525.092-.725a.512.512 0 0 1 .726 0l1.648 1.568 1.627-1.568zM5 0v9h5V0H5zM1 10v4H0V9h4v5h-.984L3 10H1m11 0v4h-1V9h4v5h-.984L14 10h-2"/></svg>