<svg xmlns="http://www.w3.org/2000/svg" viewBox="0 0 13.152998924255371 10.283677101135254"><path d="M5.221 1.26c.4-.086.817-.144 1.265-.144 3.188 0 5.503 2.672 6.344 3.565.246.261.323.986-.039 1.412-.289.34-.721.867-1.321 1.4l-1.974-1.97c.007-.085.025-.167.025-.254a2.952 2.952 0 0 0-2.952-2.952c-.089 0-.174.02-.261.026L5.221 1.26zm1.694 6.926c-.115.014-.228.035-.346.035a2.953 2.953 0 0 1-2.953-2.953c0-.116.021-.226.034-.339L1.802 3.087C1.206 3.613.719 4.144.344 4.538.006 4.893 0 5.614.27 5.908c1.237 1.34 3.168 3.467 6.216 3.467a7.8 7.8 0 0 0 1.475-.147L6.915 8.186zm4.519 1.902a.5.5 0 0 0 0-.707L2.242.19a.5.5 0 0 0-.707.707l9.192 9.192a.5.5 0 0 0 .707 0z"/></svg>