<svg xmlns="http://www.w3.org/2000/svg" viewBox="0 0 22 15"><path fill="#666" d="M7.5 1a6.5 6.5 0 1 1 0 13 6.5 6.5 0 0 1 0-13m0-1C3.364 0 0 3.364 0 7.5S3.364 15 7.5 15 15 11.636 15 7.5 11.636 0 7.5 0z"/><path fill="#666" d="M14.5 1a6.5 6.5 0 1 1 0 13 6.5 6.5 0 0 1 0-13m0-1C10.364 0 7 3.364 7 7.5s3.364 7.5 7.5 7.5S22 11.636 22 7.5 18.636 0 14.5 0z"/><path fill="#289DE9" fill-rule="evenodd" d="M8 7.5a6.49 6.49 0 0 0 3 5.471 6.488 6.488 0 0 0 0-10.943A6.49 6.49 0 0 0 8 7.5z" clip-rule="evenodd"/></svg>