<svg xmlns="http://www.w3.org/2000/svg" viewBox="0 0 12.580986976623535 11.585063934326172"><path d="M3.29 11.584a2.994 2.994 0 0 1-2.121-.877 3.004 3.004 0 0 1 0-4.242l1.37-1.372c.094-.082 1.657-1.402 3.3-.477a.5.5 0 0 1-.492.872c-1.023-.579-2.084.301-2.13.339L1.877 7.172a2.001 2.001 0 0 0 0 2.828 2.003 2.003 0 0 0 2.828 0l1.37-1.371a.5.5 0 0 1 .708.707L5.41 10.707a2.994 2.994 0 0 1-2.121.877zm6.75-4.801l1.37-1.371a3.002 3.002 0 0 0 0-4.242 3.002 3.002 0 0 0-4.241 0L5.798 2.542a.5.5 0 0 0 .707.707l1.37-1.371a2.003 2.003 0 0 1 2.829 0c.779.78.779 2.049 0 2.828L9.362 6.051c-.045.038-1.105.918-2.13.338a.5.5 0 1 0-.491.871c.423.238.84.328 1.229.328 1.12 0 2.002-.744 2.07-.805z"/></svg>