<svg xmlns="http://www.w3.org/2000/svg" viewBox="0 0 13.885860443115234 14.016502380371094"><path d="M13.484 8.022a.5.5 0 0 0-.602.371 5.972 5.972 0 0 1-5.832 4.615c-1.685 0-3.22-.7-4.317-1.847-.137-.14-.255-.292-.375-.443-.096-.12-.194-.238-.28-.367-.08-.116-.143-.239-.212-.359a6.087 6.087 0 0 1-.293-.554c-.036-.082-.062-.166-.094-.249a6.123 6.123 0 0 1-.242-.734 5.953 5.953 0 0 1 .062-3.086c.064-.22.129-.44.215-.65.095-.229.213-.449.338-.669A5.954 5.954 0 0 1 7.05 1.008a5.973 5.973 0 0 1 5.833 4.615.498.498 0 0 0 .6.371.498.498 0 0 0 .372-.602A6.97 6.97 0 0 0 7.05.008a6.961 6.961 0 0 0-5.943 3.317l-.011.013c-.048.077-.077.161-.121.24a6.641 6.641 0 0 0-.383.757c-.105.252-.18.51-.253.77-.028.096-.071.187-.095.288-.002.007 0 .013-.001.02a6.942 6.942 0 0 0-.001 3.154c.002.02-.002.037.002.057.006.025.018.05.024.074.072.291.17.573.28.854.037.097.068.196.11.291.099.223.22.436.343.647.08.142.156.284.245.418.102.15.218.29.33.434.14.176.278.35.433.511.032.034.057.073.09.106l.012-.012a6.956 6.956 0 0 0 4.939 2.061 6.97 6.97 0 0 0 6.805-5.385.499.499 0 0 0-.371-.6z"/></svg>