<svg xmlns="http://www.w3.org/2000/svg" viewBox="0 0 12.665999412536621 14.042482376098633"><path d="M.428 11.935c-.021-.02-.027-.037-.046-.059-.011-.009-.025-.013-.036-.023l.082.082zM11.986.896a.5.5 0 0 0-.707-.707l-1.233 1.236C8.971.52 7.659.042 6.334.042a5.779 5.779 0 0 0-4.1 1.7C.086 3.886 0 7.283 1.925 9.562L.346 11.145c-.184.185-.278.385.036.73a.496.496 0 0 0 .671-.023l1.544-1.548 3.736 3.738 4.1-4.102c2.144-2.143 2.233-5.53.319-7.809L11.986.896zM1.534 5.84c0-1.28.5-2.486 1.406-3.392a4.77 4.77 0 0 1 3.394-1.406 4.74 4.74 0 0 1 3.006 1.09L7.951 3.522a2.977 2.977 0 0 0-1.618-.48c-1.654 0-3 1.345-3 3 0 .585.17 1.144.482 1.625L2.631 8.856A4.74 4.74 0 0 1 1.534 5.84zm6.799.202a1.998 1.998 0 0 1-3.128 1.65l2.776-2.783c.221.323.352.712.352 1.133zm-4 0a2 2 0 0 1 2-2c.32 0 .618.082.886.215L4.55 6.932a1.99 1.99 0 0 1-.217-.89zm6.799-.202a4.76 4.76 0 0 1-1.406 3.393l-3.393 3.395-3.029-3.03 1.195-1.199a2.968 2.968 0 0 0 3.956-.236 2.97 2.97 0 0 0 .231-3.96l1.361-1.365a4.741 4.741 0 0 1 1.085 3.002z"/></svg>