<svg xmlns="http://www.w3.org/2000/svg" viewBox="0 0 14 13.406000137329102"><path d="M14 7.906v4c0 .827-.673 1.5-1.5 1.5h-11c-.827 0-1.5-.673-1.5-1.5v-4c0-.827.673-1.5 1.5-1.5H3v1H1.5c-.275 0-.5.225-.5.5v4c0 .275.225.5.5.5h11c.275 0 .5-.225.5-.5v-4c0-.275-.225-.5-.5-.5H11v-1h1.5c.827 0 1.5.673 1.5 1.5zm-4-4.047v4.143c0 .23-.193.404-.439.404H4.456c-.247 0-.435-.174-.435-.404V3.859c0-.229.188-.404.435-.404h.595v-.832c0-.039-.123-2.322 1.963-2.322l.006.001c.021 0 2.002-.302 1.991 2.321v.832h.55c.246 0 .439.176.439.404zm-4.23-.404H8.2v-.832c0-1.639-1.106-1.571-1.221-1.575-1.285 0-1.209 1.568-1.209 1.575v.832z"/></svg>