<svg xmlns="http://www.w3.org/2000/svg" viewBox="0 0 14 11.90000057220459"><path d="M9 5h4c.6 0 1-.6 1-1.2V1.2c0-.6-.4-1.2-1-1.2H9c-.3 0-.6.2-.8.5-.8.2-1.2 1.1-2 3 0 .2-.2.7-.4 1.1-.2-.4-.5-.6-.8-.6H1c-.6 0-1 .6-1 1.2v2.5C0 8.4.4 9 1 9h4c.6 0 1-.6 1-1.2v-.2c.3.3.6.7.8 1 .5.6.8 1 1.2 1.3v.8c0 .7.4 1.2 1 1.2h4c.6 0 1-.6 1-1.2V8.2c0-.6-.4-1.2-1-1.2H9c-.6 0-1 .6-1 1.2v.3c-.1-.2-.3-.3-.4-.5-.3-.3-.6-.7-.8-1 .5-.6.9-1.6 1.3-2.7.2.4.5.7.9.7zM5 7.8c0 .1 0 .2-.1.2H1.1C1 8 1 7.9 1 7.8V5.2c0-.1 0-.2.1-.2H5v2.8zm4 .4c0-.1 0-.2.1-.2H13s.1.1.1.2v2.5c0 .1 0 .2-.1.2H9.1s-.1-.1-.1-.2V8.2zM9.1 1H13v2.7c0 .2 0 .3-.1.3H9V1.3c0-.2 0-.3.1-.3z"/></svg>