<svg xmlns="http://www.w3.org/2000/svg" viewBox="0 0 15 13"><path d="M7 6.5a.302.302 0 0 1-.093.22L4.532 8.907C4.47 8.97 4.396 9 4.312 9s-.157-.03-.22-.093A.299.299 0 0 1 4 8.688V7H2.5a.5.5 0 0 1 0-1H4V4.312a.3.3 0 0 1 .093-.22.304.304 0 0 1 .439.001L6.907 6.28A.303.303 0 0 1 7 6.5zm1 0c0 .084.031.158.093.22l2.375 2.188c.062.062.136.092.22.092s.157-.03.22-.093A.299.299 0 0 0 11 8.688V7h1.5a.5.5 0 0 0 0-1H11V4.312a.3.3 0 0 0-.093-.22.304.304 0 0 0-.439.001L8.093 6.28A.303.303 0 0 0 8 6.5zM6 1v2h1V1a1 1 0 0 0-1-1H1a1 1 0 0 0-1 1v11a1 1 0 0 0 1 1h5a1 1 0 0 0 1-1v-2H6v2H1V1h5m3 0h5v11H9v-2H8v2a1 1 0 0 0 1 1h5a1 1 0 0 0 1-1V1a1 1 0 0 0-1-1H9a1 1 0 0 0-1 1v2h1V1"/></svg>