<svg xmlns="http://www.w3.org/2000/svg" viewBox="0 0 13.996999740600586 12"><path d="M12.133 2h-.578c-1.291 0-1.289-2-2.201-2H3.86a1.864 1.864 0 0 0-1.863 1.864V4h1V1.864c0-.476.388-.864.863-.864h5.304c.062.096.141.24.198.347.335.618.896 1.653 2.193 1.653h.578c.444 0 .864.486.864 1v6.137a.865.865 0 0 1-.864.863H3.86a.865.865 0 0 1-.863-.863V9h-1v1.137c0 1.029.835 1.863 1.863 1.863h8.272c1.03 0 1.865-.834 1.865-1.863V4c0-1.029-.835-2-1.864-2z"/><path d="M6.768 8.841l2.079-2.029.005-.008c.044-.044.081-.149.106-.207.021-.054.029-.01.033-.064 0-.012.006-.022.006-.033 0-.008-.004-.014-.004-.021a.411.411 0 0 0-.035-.146.514.514 0 0 0-.09-.135c-.008-.01-.012-.024-.021-.033L6.768 4.088c-.2-.201-.525-.109-.725.092a.512.512 0 0 0 0 .726l1.201 1.109-6.713.001c-.293 0-.531.2-.53.483-.001.283.237.464.531.464h6.713L6.044 8.206a.514.514 0 0 0 0 .727c.1.1.23.059.362.059s.263-.052.362-.151z"/></svg>