<svg xmlns="http://www.w3.org/2000/svg" viewBox="0 0 22.029998779296875 20.580001831054688"><path d="M22.006 18.438v-.016l-1.168-4.152a.762.762 0 0 0-.355-.464c-.168-.099-.307-.248-.509-.194a.763.763 0 0 0-.54.937l.621 2.491-8.345-4.818V2.604l1.848 1.785a.761.761 0 0 0 1.079 0c.148-.148.088-.342.088-.539a.759.759 0 0 0-.224-.538L11.486.223c-.002-.003-.006-.004-.012-.007-.066-.067-.223-.121-.31-.158-.08-.032-.014-.044-.096-.05-.017 0-.032-.008-.048-.008-.012 0-.02.006-.031.006a.61.61 0 0 0-.219.052.77.77 0 0 0-.199.133c-.016.012-.034.018-.048.032l-3.085 3.09c-.3.297-.162.781.136 1.077a.76.76 0 0 0 1.078 0l1.649-1.785.001 9.711-8.329 4.808.623-2.492a.763.763 0 0 0-.54-.936c-.203-.054-.34.095-.51.193a.762.762 0 0 0-.355.464L.024 18.507c-.002.004 0 .008 0 .014-.024.093.006.253.017.348.012.085-.031.035.006.106.008.017.008.033.016.047.006.011.016.016.021.024.048.074.085.104.153.163a.795.795 0 0 0 .217.106c.017.007.033.021.052.025l4.218 1.13c.407.11.757-.25.863-.658a.76.76 0 0 0-.538-.933l-2.373-.536 8.409-4.855 8.266 4.772-2.372.536a.76.76 0 0 0-.538.933c.106.408.457.769.863.658l4.219-1.13c.02-.005.035-.018.053-.025a.789.789 0 0 0 .216-.106c.069-.059.105-.089.153-.163.006-.01.016-.014.021-.024.008-.014.008-.029.017-.046.035-.072-.007-.022.005-.107.012-.096.042-.257.018-.348z"/></svg>