<svg xmlns="http://www.w3.org/2000/svg" viewBox="0 0 13 12.904825210571289"><path d="M13 .5a.5.5 0 0 1-.5.5H.5a.5.5 0 0 1 0-1h12a.5.5 0 0 1 .5.5zm0 3a.5.5 0 0 0-.5-.5H.5a.5.5 0 0 0 0 1h12a.5.5 0 0 0 .5-.5zm-8 6a.5.5 0 0 0-.5-.5h-4a.5.5 0 0 0 0 1h4a.5.5 0 0 0 .5-.5zM10.487 6H.5a.5.5 0 0 0 0 1h9.987c.827 0 1.5.673 1.5 1.5s-.673 1.5-1.5 1.5H7.89v-.033h-.006l1.002-1.002a.514.514 0 1 0-.727-.727l-1.878 1.878a.514.514 0 0 0 0 .727l1.878 1.877a.515.515 0 0 0 .727-.728L7.891 11h2.597c1.379 0 2.5-1.121 2.5-2.5S11.866 6 10.487 6z"/></svg>