<svg xmlns="http://www.w3.org/2000/svg" viewBox="0 0 11.16869068145752 11.288999557495117"><path d="M11.169 2.501A.51.51 0 0 1 10.65 3H6.689a.51.51 0 0 1-.52-.5.51.51 0 0 1 .518-.5h3.965a.51.51 0 0 1 .517.501zM10.65 7H6.687a.51.51 0 0 0-.518.5c0 .275.23.5.52.5h3.963a.509.509 0 0 0 .517-.499A.51.51 0 0 0 10.65 7zm0 2H6.687a.51.51 0 0 0-.518.5c0 .275.23.5.52.5h3.963a.509.509 0 0 0 .517-.499A.51.51 0 0 0 10.65 9zm-6-7H3.17V.518a.508.508 0 0 0-.5-.518.51.51 0 0 0-.5.52V2H.687a.51.51 0 0 0-.518.5c0 .275.23.5.52.5h1.48v1.482a.51.51 0 0 0 .5.518.51.51 0 0 0 .5-.518V3H4.65a.51.51 0 0 0 .518-.499A.51.51 0 0 0 4.652 2zM3.378 8.618l1.755-1.755a.51.51 0 0 0 .012-.72.51.51 0 0 0-.721.014L2.669 7.911.915 6.156a.509.509 0 0 0-.72-.013.508.508 0 0 0 .014.721l1.753 1.754-1.755 1.755a.512.512 0 0 0-.013.72.51.51 0 0 0 .72-.012l1.755-1.756 1.756 1.756c.2.201.523.208.719.013s.189-.519-.013-.721L3.377 8.618z"/></svg>