<svg xmlns="http://www.w3.org/2000/svg" viewBox="0 0 11.718999862670898 11.872807502746582"><path d="M11.2 1.173l-.567-.565A1.554 1.554 0 0 0 8.435.607l-7.172 7.17C1.049 7.994.25 11.01.198 11.08L0 11.873l.792-.2c.069-.051 3.085-.852 3.3-1.065l7.172-7.173c.303-.303.455-.703.454-1.1.001-.394-.216-.861-.518-1.162zm-7.803 8.74c.013.064-2.348.908-2.354.902.006.006.852-2.354.915-2.344l5.454-5.454 1.441 1.44-5.456 5.457zm7.173-7.172L9.548 3.763l-1.439-1.44L9.13 1.3a.575.575 0 0 1 .81 0l.565.566c.112.114.232.32.231.469a.557.557 0 0 1-.166.405z"/></svg>