<svg xmlns="http://www.w3.org/2000/svg" viewBox="0 0 10 12.04699993133545"><path d="M8.66 1.125L2.152 11.617c-.167.286-.354.43-.562.43a.59.59 0 0 1-.359-.137.426.426 0 0 1-.18-.355c0-.109.052-.242.156-.398L7.754.579c.114-.192.215-.337.301-.434S8.264 0 8.426 0c.156 0 .282.046.379.137A.48.48 0 0 1 8.949.5c0 .109-.096.317-.289.625zM2 1c.551 0 1 .449 1 1v2c0 .551-.449 1-1 1s-1-.449-1-1V2c0-.551.449-1 1-1m0-1a2 2 0 0 0-2 2v2a2 2 0 0 0 4 0V2a2 2 0 0 0-2-2zm6 7a1 1 0 0 1 1 1v2a1 1 0 0 1-2 0V8a1 1 0 0 1 1-1m0-1a2 2 0 0 0-2 2v2a2 2 0 0 0 4 0V8a2 2 0 0 0-2-2z"/></svg>