<svg xmlns="http://www.w3.org/2000/svg" viewBox="0 0 14.043000221252441 13.991999626159668"><path d="M5.539 10.025h-.55v-.832C5 6.57 3.02 6.872 2.998 6.872l-.006-.001c-2.086 0-1.963 2.283-1.963 2.322v.832H.435c-.247 0-.435.176-.435.405v3.143c0 .23.188.404.435.404h5.104c.247 0 .439-.174.439-.404V10.43c0-.229-.193-.405-.439-.405zm-3.79-.832c0-.007-.077-1.575 1.209-1.575.114.004 1.221-.063 1.221 1.575v.832h-2.43v-.832zM14 12.891c0 .955-1.216 1.086-1.216 1.086h-5.11s-.642.015-.642-.612l-.021-3.077c.025-2.954-.761-4.026-2.561-4.612-.521-.39-.737-.489-.737-1.227 0-.738.607-.738.607-.738s0 .021.216-1.194C4.746 1.338 5.899.08 7.791.007V0c.028 0 .054.003.082.003.031 0 .061-.003.093-.003v.008c1.645.083 2.829 1.335 3.038 2.509.217 1.215.217 1.194.217 1.194s.607 0 .607.738-.216.999-.737 1.389c-.521.391-.366 1.232-1.171 1.974-.43.396-.738.695-.738 1.26 0 .563.304.693.607.867s2.344.738 3.299 1.39.912.998.912 1.562z"/></svg>