<svg xmlns="http://www.w3.org/2000/svg" viewBox="0 0 13.192999839782715 16"><path d="M12.767 5.703a1.097 1.097 0 0 0-.773-.314h-1.066c-.227-.587-.696-.784-.979-.798H8.752c-.229-.662-.774-.914-1.098-.953l-.026-.004H6.403V1.336a1.212 1.212 0 0 0-.302-.857C5.816.161 5.377 0 4.795 0c-.568 0-1.009.157-1.309.469-.348.36-.364.792-.363.887V6.89c-.588-.594-1.142-.898-1.643-.898C.191 5.992 0 6.741 0 7.187c0 .378.161.907.18.967l.017.056 3.69 5.899V16h7.536l1.77-4.616V6.9c0-.524-.143-.926-.426-1.197zm-.496 5.511l-1.481 3.864H4.81v-1.233L1.043 7.823C.995 7.657.92 7.353.92 7.187c0-.132.026-.156.034-.165.048-.049.214-.107.526-.107.462 0 1.243.83 1.627 1.392l.016-.01v1.537h.922v-8.48l-.001-.017c0-.001.009-.128.106-.229.118-.122.34-.187.645-.187.293 0 .512.058.613.165.068.07.074.16.076.188l-.003.008v5.49h.922V4.556H7.56c.074.02.377.13.377.719v1.498h.92v-1.26h1.069l-.031.001c.095.026.241.191.241.652v1.499h.921V6.31h.942l.02-.002s.062.015.11.061c.092.087.142.277.142.532v4.313z"/></svg>