<svg xmlns="http://www.w3.org/2000/svg" viewBox="0 0 23 15.299999237060547"><path d="M12.8 7.1h-2.6v2.6h2.6V7.1zm-1.3 8.2H4.3C1.9 15.3 0 13.4 0 11c0-2.1 1.4-3.8 3.4-4.2C3.8 2.9 7.1 0 11 0c3 0 5.8 1.8 7 4.5 2.8.2 5 2.6 5 5.4 0 3-2.4 5.4-5.4 5.4h-2.1c-.3 0-.5-.2-.5-.5s.2-.5.5-.5h2.1c2.4 0 4.4-2 4.4-4.4 0-2.4-1.9-4.4-4.3-4.4h-.3l-.1-.3c-1-2.5-3.5-4.2-6.2-4.2-3.5 0-6.5 2.8-6.7 6.3v.4H4c-1.7.2-2.9 1.6-2.9 3.3 0 1.8 1.5 3.3 3.3 3.3h7.2c.3 0 .5.2.5.5s-.3.5-.6.5zm0-1.9c-2.8 0-5-2.2-5-5s2.2-5 5-5 5 2.2 5 5-2.2 5-5 5zm0-9c-2.2 0-4 1.8-4 4s1.8 4 4 4 4-1.8 4-4-1.8-4-4-4z"/></svg>