<svg xmlns="http://www.w3.org/2000/svg" viewBox="0 0 12.068195343017578 8.000993728637695"><path d="M.76 8.001a.64.64 0 0 1-.489-.233.892.892 0 0 1 0-1.134l4.124-2.633L.271 1.368a.892.892 0 0 1 0-1.134.629.629 0 0 1 .98 0l4.614 3.2a.891.891 0 0 1 0 1.133l-4.615 3.2a.648.648 0 0 1-.49.234zm10.79-6H7.586a.509.509 0 0 0-.518.5c0 .275.23.5.52.5h3.963a.509.509 0 0 0 .517-.499.51.51 0 0 0-.518-.501zm0 3H7.586a.509.509 0 0 0-.518.5c0 .275.23.5.52.5h3.963a.509.509 0 0 0 .517-.499.51.51 0 0 0-.518-.501z"/></svg>