<svg xmlns="http://www.w3.org/2000/svg" viewBox="0 0 14.317642211914062 14.059268951416016"><path d="M7.4.03a7 7 0 1 0 .002 13.999A7 7 0 0 0 7.4.03zM3.695 5.543l1.404.514a2.483 2.483 0 0 0-.197.973c0 1.127.754 2.07 1.78 2.382l-.41 1.437c-1.654-.49-2.87-2.005-2.87-3.819 0-.527.108-1.027.293-1.487zm3.719 1.431c.198.173.849.741 1.509 1.341a1.988 1.988 0 0 1-1.163.679l-.346-2.02zm-.01-.054L7.4 6.905l-.004.014-.051-.002.04.036-.568 1.98A1.993 1.993 0 0 1 5.4 7.03c0-.285.062-.555.169-.801l1.827.669s-.423-.703-.97-1.604c.289-.163.619-.264.974-.264 1.099 0 1.988.886 1.998 1.982L7.403 6.92zm.44 2.565a2.482 2.482 0 0 0 1.445-.833c.449.415.854.808 1.067 1.054a3.964 3.964 0 0 1-2.26 1.254l-.252-1.475zm3.55-2.379L9.9 7.036V7.03c0-1.378-1.12-2.5-2.5-2.5-.45 0-.866.129-1.231.338l-.78-1.277a3.952 3.952 0 0 1 2.012-.561 4 4 0 0 1 4 4c0 .026-.007.05-.008.076zM1.389 7.03c0-.77.15-1.503.414-2.18l1.143.418A4.764 4.764 0 0 0 2.6 7.03c0 2.177 1.465 3.998 3.454 4.584-.143.507-.26.926-.33 1.187A6.012 6.012 0 0 1 1.39 7.03zm7.047 5.916l-.206-1.2c2.25-.396 3.97-2.354 3.97-4.716 0-2.647-2.152-4.8-4.8-4.8-.89 0-1.713.26-2.428.684a91.871 91.871 0 0 0-.651-1.04 5.975 5.975 0 0 1 3.08-.856 6.01 6.01 0 0 1 1.035 11.928z"/></svg>