<svg xmlns="http://www.w3.org/2000/svg" viewBox="0 0 12 12.033770561218262"><path d="M3.084 3.822a.474.474 0 0 1 .107-.012h7.057L7.347.91a.514.514 0 0 1 .726-.726L11.85 3.96c.01.01.013.022.021.032a.532.532 0 0 1 .089.136.524.524 0 0 1 .035.174c0 .008.005.014.005.022 0 .012-.007.02-.007.032a.548.548 0 0 1-.032.164.52.52 0 0 1-.106.159l-.005.008-3.777 3.777a.51.51 0 0 1-.725 0 .515.515 0 0 1 0-.727l2.901-2.9H3.25c-.332.086-2.223.687-2.223 3.207 0 2.518 1.944 2.922 2.201 2.963H4.73a.514.514 0 0 1 0 1.027H3.191a.625.625 0 0 1-.062-.004C2.047 11.897 0 10.895 0 8.044c0-2.822 2.018-3.996 3.084-4.222z"/></svg>