<svg xmlns="http://www.w3.org/2000/svg" viewBox="0 0 16.040605545043945 13.68459415435791"><path d="M15.814 6.507l-2.32 2.32c-.119.118-.281.186-.449.186s-.328-.067-.449-.186l-2.318-2.32a.635.635 0 1 1 .898-.898l1.234 1.237V6.84a5.575 5.575 0 0 0-5.57-5.57c-3.071 0-5.571 2.498-5.571 5.57s2.5 5.57 5.571 5.57a5.542 5.542 0 0 0 3.941-1.631.634.634 0 1 1 .896.896 6.789 6.789 0 0 1-4.837 2.004C3.068 13.678 0 10.611 0 6.84S3.068 0 6.84 0a6.847 6.847 0 0 1 6.84 6.84v.006l1.236-1.237a.635.635 0 1 1 .898.898z"/></svg>