<svg xmlns="http://www.w3.org/2000/svg" viewBox="0 0 14.839831352233887 13.228287696838379"><path d="M2.299 13.228h-2v-2.334l2-1.609v3.943zm3.917-4.75L5.202 7.296l-.986.801v5.131h2v-4.75zm3.916-.787l-2 1.865v3.672h2V7.691zm3.917-3.526l-2 1.891v7.172h2V4.165zm-.25-1.937a.5.5 0 0 0-.767-.64l-5.25 4.986-2.597-2.55L.266 8.067a.5.5 0 0 0 .599.801l4.286-3.51 2.647 2.62 6.001-5.75zm1.038 1.052l.001-2.766a.507.507 0 0 0-.511-.512l-2.768.001a.497.497 0 0 0-.364.146.5.5 0 0 0-.15.366.5.5 0 0 0 .148.363l2.767 2.766c.1.1.22.15.363.15a.493.493 0 0 0 .365-.15.494.494 0 0 0 .149-.364z"/></svg>