<svg xmlns="http://www.w3.org/2000/svg" viewBox="0 0 21 20"><path d="M17 10.5a.5.5 0 0 1-.5.5h-12a.5.5 0 0 1 0-1h12a.5.5 0 0 1 .5.5zm-.5 2.5h-12a.5.5 0 0 0 0 1h12a.5.5 0 0 0 0-1zm0 3h-12a.5.5 0 0 0 0 1h12a.5.5 0 0 0 0-1zM21 3v3.199a.5.5 0 0 1-1 0V3.414L17.586 1H17v4c0 .878-1.121 2-2.5 2h-8A2.503 2.503 0 0 1 4 4.5V1H2.5C1.673 1 1 1.673 1 2.5v15c0 .827.673 1.5 1.5 1.5h16c.827 0 1.5-.673 1.5-1v-6.837a.5.5 0 0 1 1 0v6.865h-.004C20.973 18.902 19.864 20 18.5 20h-16A2.503 2.503 0 0 1 0 17.5v-15C0 1.122 1.122 0 2.5 0H18l3 3zm-5-2h-3v3h-3V1H5v3.5C5 5.327 5.673 6 6.5 6h8c.827 0 1.5-.673 1.5-1V1z"/></svg>