<svg xmlns="http://www.w3.org/2000/svg" viewBox="0 0 13.003336906433105 13.282679557800293"><path d="M12.808 2.218a.416.416 0 0 0-.244-.093L6.603.022a.395.395 0 0 0-.226 0L.416 2.125a.398.398 0 0 0-.231.093.54.54 0 0 0-.185.395v8.109c0 .229.149.428.344.484l5.975 2.031a.386.386 0 0 0 .054.019l.018.006a.416.416 0 0 0 .225 0l.024-.008.029-.011 5.986-2.037a.5.5 0 0 0 .345-.483v-8.11a.55.55 0 0 0-.192-.395zM6.489 1.023l4.444 1.622-4.435 1.546-2.864-.996-1.509-.534 4.364-1.638zM1 3.31l2.893 1.021L6 5.108v7.026l-5-1.799V3.31zm6 8.824V5.108l2.562-.945L12 3.302v7.033l-5 1.799z"/></svg>