<svg xmlns="http://www.w3.org/2000/svg" viewBox="0 0 13.97900104522705 8.916000366210938"><path d="M9.371 0l.065.018a.498.498 0 0 1 .3.727c-.299.522-.601 1.042-.902 1.562L5.186 8.628a.56.56 0 0 1-.191.21.612.612 0 0 1-.175.068.094.094 0 0 0-.023.01h-.129A.45.45 0 0 0 4.62 8.9a.5.5 0 0 1-.325-.735l2.698-4.673C7.612 2.419 8.232 1.347 8.85.274a.515.515 0 0 1 .249-.232c.037-.015.076-.023.115-.034L9.233 0h.138zM0 4.445c.006-.013.014-.025.017-.038a.506.506 0 0 1 .14-.251c.869-.869 1.738-1.739 2.608-2.607a.475.475 0 0 1 .51-.122c.193.062.308.2.34.4a.48.48 0 0 1-.142.432l-1.811 1.81-.504.505-.025.026a.555.555 0 0 0 .032.035l2.307 2.307a.5.5 0 0 1-.219.84.479.479 0 0 1-.487-.128c-.163-.161-.324-.324-.486-.486A2090.79 2090.79 0 0 0 .174 5.062a.529.529 0 0 1-.159-.278c-.002-.01-.01-.02-.015-.029v-.31zm13.979.335l-.015.052a.495.495 0 0 1-.125.208l-.88.883-.297.299-1.044 1.047c-.128.129-.254.26-.385.387a.48.48 0 0 1-.512.118.475.475 0 0 1-.337-.407.48.48 0 0 1 .146-.426l1.14-1.145.98-.984.212-.208-.032-.034-.509-.512-1.317-1.321c-.161-.161-.324-.321-.482-.485a.477.477 0 0 1-.121-.496.478.478 0 0 1 .376-.345.483.483 0 0 1 .464.141l1.05 1.054 1.168 1.172.385.387a.435.435 0 0 1 .127.243c.001.004.005.007.007.01l.001.362z"/></svg>