<svg xmlns="http://www.w3.org/2000/svg" viewBox="0 0 18.904016494750977 20.267990112304688"><path d="M18.747 19.416l-4.933-5.798-.001-.001c-.016-.025-.025-.053-.045-.074a.5.5 0 0 0-.707-.031 7.185 7.185 0 0 1-4.86 1.888c-3.97 0-7.2-3.229-7.2-7.2 0-3.97 3.23-7.2 7.2-7.2s7.2 3.23 7.2 7.2c0 .923-.172 1.823-.512 2.673a.497.497 0 0 0 .278.649.498.498 0 0 0 .649-.278A8.15 8.15 0 0 0 16.4 8.2c0-4.521-3.679-8.2-8.2-8.2S0 3.679 0 8.2s3.679 8.2 8.2 8.2a8.175 8.175 0 0 0 5.126-1.81l4.658 5.475a.502.502 0 0 0 .763-.649z"/></svg>