<svg xmlns="http://www.w3.org/2000/svg" viewBox="0 0 14.300000190734863 14.699999809265137"><path d="M13.9 5.9c.3-.2.4-.5.3-1 0 0-.3-.8-.6-1.3s-.8-1.2-.9-1.2c-.3-.3-.6-.4-.9-.3h-.1c-.9.5-2.1.2-2.6-.7-.1-.2-.2-.7-.2-.7 0-.4-.3-.7-.7-.7H6.1c-.1 0-.2.1-.3.1-.4.2-.5.4-.6.6-.1.3-.4 1.2-.9 1.5-.5.3-1.4.1-1.7 0-.3 0-.6 0-.8.1l-.3.3L.4 4.5c-.2.3-.1.8.2 1 0 0 .3.3.5.6.5.9.2 2.1-.7 2.6H.3c-.2.2-.3.6-.1 1 0 0 .3.8.6 1.3s.8 1.2.9 1.2c.3.3.6.4.9.3h.1c.9-.5 2.1-.2 2.6.7.2.3.2.7.2.7 0 .4.4.7.8.8h2.1c.1 0 .2-.1.3-.1.2-.1.4-.4.5-.6.1-.3.4-1.3.9-1.5.5-.3 1.5-.1 1.8 0 .2.1.5 0 .8-.1.1-.1.2-.1.3-.2l1.1-1.8c.2-.4.1-.8-.3-1.1 0 0-.3-.3-.5-.6-.6-1.1-.3-2.3.6-2.8zm-5.2 4c-1.4.8-3.3.3-4.1-1.1-.8-1.4-.3-3.3 1.1-4.1S9 4.4 9.8 5.8c.8 1.4.3 3.3-1.1 4.1z"/></svg>