<svg xmlns="http://www.w3.org/2000/svg" viewBox="0 0 11 14"><path d="M11 4v9a1 1 0 0 1-1 1H1a1 1 0 0 1-1-1V4h2.552c1.138 0 1.138 1 0 1H1v8h9V5H8.516c-1.138 0-1.138-1 0-1H11zM7.85 2.229L5.821.15 5.813.146C5.769.101 5.664.064 5.605.039 5.552.018 5.596.01 5.541.006 5.529.006 5.52 0 5.509 0c-.008 0-.014.004-.022.004a.411.411 0 0 0-.146.035.54.54 0 0 0-.135.09c-.01.008-.023.012-.032.021L3.097 2.229c-.201.2-.109.525.092.725.2.201.525.201.726 0l1.109-1.201.001 6.714c0 .293.2.531.483.53.283.001.464-.237.464-.531V1.752l1.243 1.201a.514.514 0 0 0 .727 0c.1-.1.059-.23.059-.362s-.052-.263-.151-.362z"/></svg>