<svg xmlns="http://www.w3.org/2000/svg" viewBox="0 0 12 12.000000953674316"><path d="M9.5 7c-.798 0-1.5.381-1.957.962L4.906 6.644C4.961 6.437 5 6.224 5 6s-.039-.437-.094-.644l2.637-1.318A2.482 2.482 0 0 0 9.5 5 2.5 2.5 0 1 0 7 2.5c0 .224.039.437.094.644L4.458 4.462A2.485 2.485 0 0 0 2.5 3.5a2.5 2.5 0 1 0 0 5c.798 0 1.5-.381 1.958-.962l2.636 1.318C7.039 9.062 7 9.276 7 9.5A2.5 2.5 0 1 0 9.5 7zm0-6c.827 0 1.5.673 1.5 1.5S10.327 4 9.5 4 8 3.327 8 2.5 8.673 1 9.5 1zm-7 6.5C1.673 7.5 1 6.827 1 6s.673-1.5 1.5-1.5S4 5.173 4 6s-.673 1.5-1.5 1.5zm7 3.5C8.673 11 8 10.327 8 9.5S8.673 8 9.5 8s1.5.673 1.5 1.5-.673 1.5-1.5 1.5z"/></svg>