<svg xmlns="http://www.w3.org/2000/svg" viewBox="0 0 13.952999114990234 14.081985473632812"><path d="M7.209 11.567l3.5 2.338a.568.568 0 0 0 .642-.938l-3.114-1.991h4.17a.568.568 0 0 0 .568-.568v-8.42h.41c.314 0 .568-.154.568-.469 0-.313-.254-.469-.568-.469H7.971V.629C7.969.298 7.937.16 7.651.061c-.261-.061-1.026 0-1.198 0-.313 0-.419.254-.419.567v.421H.568C.256 1.05 0 1.205 0 1.518c0 .314.256.469.568.469h.46v8.42c0 .314.254.568.568.568h4.476l-3.163 1.991a.57.57 0 0 0 .322 1.038c.11 0 .222-.032.319-.1l3.659-2.337zm4.795-1.379H1.966V1.987h10.038v8.201z"/><path d="M6 7.804l2.875-1.77L6 4.264z"/></svg>