<svg xmlns="http://www.w3.org/2000/svg" viewBox="0 0 13.978999137878418 14.08078670501709"><path d="M7.256 11.566l3.5 2.338a.568.568 0 0 0 .642-.938l-3.114-1.991h4.17a.55.55 0 0 0 .547-.568v-8.42h.41c.314 0 .568-.154.568-.469 0-.313-.254-.468-.568-.468H8V.628C7.998.297 7.966.159 7.681.06 7.42 0 6.655.06 6.483.06c-.313 0-.419.254-.419.568v.421H.568c-.312 0-.568.155-.568.469 0 .314.256.469.568.469h.46v8.42c0 .314.254.568.568.568h4.522l-3.163 1.991a.57.57 0 0 0 .322 1.038c.11 0 .222-.032.319-.1l3.66-2.338zm4.782-1.562H2V1.986h10.038v8.018zM10 7.68c0 .179.146.324.324.324h.352A.324.324 0 0 0 11 7.68V4.438a.324.324 0 0 0-.324-.325h-.352a.325.325 0 0 0-.324.325V7.68zM8 6.365v1.314c0 .18.146.325.326.325h.349A.325.325 0 0 0 9 7.68V6.365a.325.325 0 0 0-.325-.325h-.349A.326.326 0 0 0 8 6.365zM4.857 8.004C3.868 8.004 3 7.119 3 6.112c0-.988.757-1.823 1.708-1.823a.14.14 0 0 1 .14.144v1.529c0 .14.152.151.152.151h1.571c.08 0 .145.061.145.141 0 .951-.852 1.75-1.859 1.75zm2.257-2.407H5.537a.131.131 0 0 1-.132-.132V3.889c0-.074.06-.134.134-.134 1.007 0 1.71.702 1.71 1.709a.134.134 0 0 1-.135.133z"/></svg>