<svg xmlns="http://www.w3.org/2000/svg" viewBox="0 0 12.790000915527344 13.007804870605469"><path d="M12.597 10.008L9.8 12.858l-.008.005c-.045.045-.15.08-.209.106-.053.02-.01.029-.064.033-.012 0-.021.006-.031.006-.008 0-.014-.004-.021-.004-.061-.003-.09-.014-.146-.035a.514.514 0 0 1-.135-.09c-.01-.008-.023-.012-.033-.021l-3.008-2.85c-.201-.2-.109-.525.093-.725a.511.511 0 0 1 .725 0l2.07 1.973L9.035.538c0-.293.199-.531.482-.53.283-.001.434.237.434.53v10.718l2.012-1.973a.514.514 0 0 1 .727 0c.1.1.059.23.059.362s-.052.263-.152.363zM3.824 5.026l.479 1.003a.9.9 0 0 0 .23.31c.1.087.253.128.46.122.1 0 .193-.014.28-.041a.544.544 0 0 0 .215-.121.348.348 0 0 0 .105-.203.595.595 0 0 0-.04-.292L3.473.377A.531.531 0 0 0 3.258.12a.782.782 0 0 0-.444-.112.79.79 0 0 0-.446.112.527.527 0 0 0-.215.257L.093 5.785c-.093.246-.078.42.045.523.124.102.289.153.495.153.207 0 .363-.044.471-.131a.885.885 0 0 0 .25-.345l.439-.96h2.031zM2.043 4.008l.771-2 .77 2H2.043zm-1.059 4a.635.635 0 0 0-.36.107c-.106.072-.159.19-.159.356 0 .17.057.29.17.36s.229.104.35.104h2.62l-3.38 3.504c-.073.09-.11.174-.11.248 0 .08.047.154.141.22.091.068.201.1.327.1h4.211a.67.67 0 0 0 .35-.103c.113-.07.17-.19.17-.36 0-.165-.054-.284-.16-.356s-.227-.107-.359-.107h-2.86l3.39-3.504c.094-.117.141-.217.141-.297 0-.063-.044-.125-.131-.184a.509.509 0 0 0-.291-.088H.984z"/></svg>