<svg xmlns="http://www.w3.org/2000/svg" viewBox="0 0 13.523292541503906 6.842692852020264"><path d="M5.12 4.619c0 .39-.101.74-.301 1.051-.201.311-.495.553-.881.729s-.845.264-1.375.264c-.636 0-1.16-.119-1.573-.359a2.1 2.1 0 0 1-.714-.692C.091 5.321 0 5.041 0 4.769c0-.158.055-.294.165-.407a.56.56 0 0 1 .42-.169c.138 0 .254.043.35.131.094.088.175.219.243.392.082.205.17.377.266.515.095.138.229.251.402.34.173.09.4.135.681.135.387 0 .701-.091.942-.271.242-.181.363-.405.363-.675a.71.71 0 0 0-.196-.521 1.262 1.262 0 0 0-.505-.306 9.066 9.066 0 0 0-.829-.225 5.89 5.89 0 0 1-1.162-.379 1.872 1.872 0 0 1-.742-.593c-.184-.25-.275-.561-.275-.933 0-.354.097-.67.29-.945s.473-.487.839-.635C1.618.075 2.049 0 2.544 0c.396 0 .737.05 1.026.147.288.099.528.229.718.392.19.162.33.333.417.512s.132.354.132.523a.616.616 0 0 1-.165.419.518.518 0 0 1-.409.187c-.149 0-.263-.037-.34-.111a1.51 1.51 0 0 1-.254-.368 1.67 1.67 0 0 0-.421-.569C3.083.996 2.82.928 2.457.928c-.337 0-.608.074-.815.222-.206.148-.31.326-.31.534 0 .129.035.24.105.334s.167.175.29.242.248.12.374.158.334.094.624.166c.363.086.692.18.987.281.294.104.545.228.751.374.206.147.367.332.483.556.116.225.174.499.174.824zm.909-2.728h.132V1.17c0-.193.005-.346.016-.455a.673.673 0 0 1 .085-.283.568.568 0 0 1 .497-.278.59.59 0 0 1 .413.172.501.501 0 0 1 .156.278c.022.111.033.267.033.468v.819H7.8c.17 0 .299.04.389.12a.4.4 0 0 1 .135.31c0 .162-.064.274-.191.339s-.311.096-.547.096h-.225v2.206c0 .188.006.332.02.433a.454.454 0 0 0 .105.246c.057.063.15.095.279.095.07 0 .166-.013.285-.037.121-.025.215-.038.281-.038a.36.36 0 0 1 .262.117.39.39 0 0 1 .117.287c0 .193-.105.342-.316.444s-.516.153-.91.153c-.375 0-.66-.062-.853-.188s-.32-.3-.38-.522-.09-.521-.09-.893V2.756h-.158c-.173 0-.305-.041-.396-.123s-.136-.186-.136-.313c0-.125.047-.229.143-.31.095-.079.234-.119.415-.119zm4.311 3.041v1.002c0 .243-.057.425-.17.547a.576.576 0 0 1-.436.182c-.174 0-.314-.061-.426-.184s-.168-.305-.168-.545v-3.34c0-.539.195-.809.584-.809.199 0 .344.062.432.188s.076.253.086.499c.143-.246.35-.373.5-.499s.354-.188.605-.188.496.062.732.188c.238.126.357.293.357.501a.475.475 0 0 1-.152.362.472.472 0 0 1-.328.144c-.043 0-.15-.027-.318-.082a1.477 1.477 0 0 0-.445-.081.653.653 0 0 0-.432.139.882.882 0 0 0-.258.411 2.866 2.866 0 0 0-.129.647c-.022.252-.034.556-.034.918zm2.431.408a.751.751 0 1 0 .002 1.502.751.751 0 0 0-.002-1.502z"/></svg>