<svg xmlns="http://www.w3.org/2000/svg" viewBox="0 0 12.242321014404297 11.295900344848633"><path d="M11.641 11.296h-11a.6.6 0 0 1-.468-.976l3.74-4.653L.173.975A.599.599 0 0 1 .643 0h11a.6.6 0 1 1 0 1.2H1.887l3.264 4.093a.601.601 0 0 1 0 .75l-3.258 4.052h9.747a.6.6 0 1 1 0 1.2zm-4-8.143a.5.5 0 0 0-1 0 .5.5 0 1 0 1 0zm2 0a.5.5 0 0 0-1 0 .5.5 0 1 0 1 0zm2 0a.5.5 0 0 0-1 0 .5.5 0 1 0 1 0zm-4 2a.5.5 0 0 0-1 0 .5.5 0 1 0 1 0zm2 0a.5.5 0 0 0-1 0 .5.5 0 1 0 1 0zm2 0a.5.5 0 0 0-1 0 .5.5 0 1 0 1 0zm-4.999 2.5a1 1 0 0 0 1 1h3a1 1 0 1 0 0-2h-3a1 1 0 0 0-1 1z"/></svg>