<svg xmlns="http://www.w3.org/2000/svg" viewBox="0 0 14.00155258178711 14.001551628112793"><path d="M0 7.001a7 7 0 1 0 14.001 0 7 7 0 0 0-14 0zm13.012.001a6.012 6.012 0 1 1-12.023 0 6.012 6.012 0 0 1 12.023 0zm-5.447-.315a.504.504 0 0 1 .71 0l1.936 1.936a.507.507 0 0 1 0 .71l-1.936 1.936a.502.502 0 0 1-.71-.709l1.06-1.059H4.142a.5.5 0 0 1 0-1h4.5l-.02-.048-1.058-1.057a.503.503 0 0 1 0-.709zm-1.13-3.874a.503.503 0 0 1 0 .71L5.376 4.578h4.481a.5.5 0 0 1 0 1h-4.5l.02.048 1.058 1.058a.503.503 0 0 1-.71.71L3.79 5.457a.507.507 0 0 1 0-.709l1.936-1.937a.501.501 0 0 1 .71.001z"/></svg>