<svg xmlns="http://www.w3.org/2000/svg" viewBox="0 0 14 14.08799934387207"><path d="M6 12.088H5v-1h1v1zm2-1H7v1h1v-1zm2 0H9v1h1v-1zm2 0h-1v1h1v-1zm2-2v4.982l-11 .018v-.014l-3 .014V.105l4-.017v9.016l10-.016zm-1 1l-9-.002v3.016l9-.014v-3zM5.045 2.779c.025.059.061.162.106.207a.028.028 0 0 0 .005.008L7.131 4.93c.1.1.23.15.361.15.133 0 .264.041.363-.059a.514.514 0 0 0 0-.727L6.661 3.055H11v3.338L9.773 5.226a.514.514 0 0 0-.727 0c-.2.199-.292.526-.091.725l2.146 1.975c.008.01.021.014.031.021a.451.451 0 0 0 .281.125c.008 0 .014.004.021.004.012 0 .021-.006.033-.006.055-.004.01-.012.064-.033.059-.025.162-.062.207-.107l.008-.004 1.936-1.975c.1-.1.15-.23.15-.361 0-.133.041-.264-.059-.363a.514.514 0 0 0-.727 0L11.964 6.27c.013-.057.036-.107.036-.165v-3.05c0-.553-.447-.95-1-.95H7c-.076 0-.144.024-.215.039l1.07-1.125a.514.514 0 0 0 0-.727C7.656.091 7.33 0 7.131.201L5.156 2.347c-.01.008-.014.021-.021.031a.548.548 0 0 0-.09.135.405.405 0 0 0-.035.147c0 .008-.004.014-.004.021 0 .012.006.021.006.033.004.055.011.01.033.065z"/></svg>