<svg xmlns="http://www.w3.org/2000/svg" viewBox="0 0 15.218000411987305 12.931608200073242"><path d="M.057 12.168c.085.273 1.547.724 3.537.747 1.426.017 3.091-.215 3.569-.708 0 0 .055-.18-.239-.33a27.231 27.231 0 0 0-2.081-.72c-.055-.017-.062-.021-.062-.243 0-.185.075-.372.149-.53.081-.17.176-.458.21-.716.097-.111.227-.331.311-.748.073-.367.039-.502-.01-.628a.37.37 0 0 1-.014-.04c-.02-.086.006-.534.068-.882.045-.238-.01-.746-.339-1.166-.207-.265-.604-.591-1.33-.637h-.397c-.713.046-1.11.372-1.318.637-.328.42-.383.928-.339 1.166.063.348.088.796.069.88a.188.188 0 0 1-.014.042c-.048.126-.082.26-.01.628.084.417.214.637.311.748.034.258.13.546.21.717.059.125.086.296.086.537 0 .225-.009.227-.059.242a23.98 23.98 0 0 0-2.077.738s-.288.079-.231.266zm8 0c.085.273 1.547.724 3.537.747 1.426.017 3.091-.215 3.569-.708 0 0 .055-.18-.239-.33a27.231 27.231 0 0 0-2.081-.72c-.055-.017-.062-.021-.062-.243 0-.185.075-.372.149-.53.081-.17.176-.458.21-.716.097-.111.227-.331.311-.748.073-.367.039-.502-.01-.628a.37.37 0 0 1-.014-.04c-.02-.086.006-.534.068-.882.045-.238-.01-.746-.339-1.166-.207-.265-.604-.591-1.33-.637h-.397c-.713.046-1.11.372-1.318.637-.328.42-.383.928-.339 1.166.063.348.088.796.069.88a.26.26 0 0 1-.015.042c-.048.126-.082.26-.01.628.084.417.214.637.311.748.034.258.13.546.21.717.059.125.086.296.086.537 0 .225-.009.227-.059.242a23.98 23.98 0 0 0-2.077.738c.001 0-.287.079-.23.266zm3.397-9.131a.361.361 0 0 1-.229.456l-2.75.916a.367.367 0 0 1-.453-.227.36.36 0 0 1 .227-.454l1.93-.644-.437-.218c-3.067-1.807-5.574-.947-6.57.236.11-.205.286-.405.663-.784.617-.62 2.752-1.947 6.223-.095l.435.213L9.856.514a.36.36 0 0 1 .225-.455.366.366 0 0 1 .454.227l.919 2.75z"/></svg>