<svg xmlns="http://www.w3.org/2000/svg" viewBox="0 0 12 12.050725936889648"><path d="M8.916 3.839a.474.474 0 0 0-.107-.012H1.751l2.901-2.9A.513.513 0 1 0 3.926.2L.15 3.977c-.01.01-.013.022-.021.032a.532.532 0 0 0-.089.136.525.525 0 0 0-.036.174c0 .008-.004.014-.004.022 0 .01.006.02.006.032a.52.52 0 0 0 .033.164.52.52 0 0 0 .106.159l.005.008L3.927 8.48a.51.51 0 0 0 .726 0 .514.514 0 0 0 0-.727l-2.901-2.9H8.75c.332.086 2.223.687 2.223 3.207 0 2.518-1.944 2.922-2.201 2.963H7.27a.514.514 0 0 0 0 1.027h1.539a.625.625 0 0 0 .062-.004C9.953 11.914 12 10.912 12 8.06c0-2.822-2.018-3.996-3.084-4.222z"/></svg>