<svg xmlns="http://www.w3.org/2000/svg" viewBox="0 0 14.004770278930664 14.01755142211914"><path d="M1.354 1.024a.5.5 0 0 0-.188.844l1.916 1.913a.501.501 0 1 0 .688-.688L1.854 1.18a.499.499 0 0 0-.438-.156.32.32 0 0 0-.062 0zM5.35.028a.5.5 0 0 0-.344.5V2.52a.5.5 0 0 0 .998 0V.53a.499.499 0 0 0-.592-.5.32.32 0 0 0-.062 0zM.433 5.021a.506.506 0 0 0 .156.998h1.916a.499.499 0 1 0 0-.998H.589a.492.492 0 0 0-.094 0 .32.32 0 0 0-.062 0zm11 2.998c-.276.043-.465.22-.422.496.043.275.302.547.578.504h1.916c.276 0 .5-.306.5-.582s-.224-.418-.5-.418h-1.916a.492.492 0 0 0-.094 0 .331.331 0 0 0-.063 0h.002zm-3.08 3.01a.501.501 0 0 0-.345.5v1.99a.498.498 0 1 0 .997 0v-1.99a.498.498 0 0 0-.591-.5.331.331 0 0 0-.063 0h.002zm2-1.005a.5.5 0 0 0-.188.844l1.915 1.913a.5.5 0 1 0 .688-.687l-1.915-1.913a.498.498 0 0 0-.438-.156.331.331 0 0 0-.063 0zm-6.036 2.557a2.99 2.99 0 0 1-2.121-.877 3.004 3.004 0 0 1 0-4.242l1.37-1.37a.5.5 0 0 1 .708.706l-1.372 1.37a2.001 2.001 0 0 0 0 2.828 2.003 2.003 0 0 0 2.828 0l1.37-1.37a.5.5 0 0 1 .708.706l-1.371 1.371a2.983 2.983 0 0 1-2.12.878zm5.659-4.62a.5.5 0 0 1-.354-.853l1.37-1.37a2.003 2.003 0 0 0 0-2.829 2.003 2.003 0 0 0-2.827 0L6.794 4.28a.5.5 0 0 1-.707-.707l1.37-1.37a3.002 3.002 0 0 1 4.243 0 3.002 3.002 0 0 1 0 4.241l-1.371 1.371a.494.494 0 0 1-.353.146z"/></svg>