<svg xmlns="http://www.w3.org/2000/svg" viewBox="0 0 16 11.272897720336914"><path d="M12.518 3.59A5.225 5.225 0 0 0 2.459 5.24C1.076 5.398 0 6.82 0 8.247c0 1.533 1.243 3.027 2.775 3.027h9.633c1.985 0 3.592-1.86 3.592-3.842 0-1.948-1.549-3.782-3.482-3.84zm-.11 6.683H8.5V5.93l1.231 1.2a.505.505 0 0 0 .72 0c.1-.1.019-.23.019-.361s-.034-.263-.134-.362l-2.02-2.078c-.002-.002 0-.003-.003-.005-.045-.045-.147-.081-.206-.107-.053-.021-.008-.03-.063-.033-.012 0-.021-.006-.032-.006-.008 0-.014.004-.021.004-.06.003-.089.014-.146.035a.54.54 0 0 0-.135.09c-.01.008-.023.012-.032.022L5.601 6.407c-.201.2-.109.525.092.725.2.2.512.2.712 0L7.5 5.93v4.343H2.775C1.796 10.273 1 9.226 1 8.246c0-.903.675-1.785 1.571-1.886l.837-.158.049-.872c.129-2.23 1.981-3.992 4.216-3.992a4.197 4.197 0 0 1 3.916 2.636l.245.602.653.016C13.896 4.635 15 6.02 15 7.43c0 1.429-1.162 2.842-2.592 2.842z"/></svg>