<svg xmlns="http://www.w3.org/2000/svg" viewBox="0 0 23.01679801940918 15.426526069641113"><path d="M18.052 4.523A7.648 7.648 0 0 0 11.054.009 7.687 7.687 0 0 0 3.418 6.84 4.308 4.308 0 0 0 .002 11.06a4.32 4.32 0 0 0 4.31 4.316c-.002 0 2.788.043 5.532.046.021 0 .075.005.154.005.311 0 .986-.088 1.473-.56.484-.468.532-1.385.507-1.444V7.265l2.243 2.2a.514.514 0 0 0 .727 0c.1-.1.06-.23.06-.361s-.052-.263-.15-.362l-3.029-3.078-.008-.005c-.045-.045-.149-.081-.208-.106-.054-.021-.01-.03-.064-.033-.012 0-.02-.006-.032-.006-.008 0-.014.004-.02.004a.411.411 0 0 0-.147.035.514.514 0 0 0-.135.09c-.01.008-.023.012-.032.02L8.106 8.743c-.2.2-.109.525.092.725.2.2.525.2.726 0l2.11-2.201v6.29c-.003.022-.013.04-.013.063 0 .248-.065.43-.199.556-.258.239-.738.262-.935.249-2.755 0-5.556-.047-5.565-.047a3.32 3.32 0 0 1-3.316-3.316A3.307 3.307 0 0 1 3.944 7.77a.5.5 0 0 0 .442-.47 6.681 6.681 0 0 1 6.668-6.291A6.654 6.654 0 0 1 17.25 5.19c.074.184.25.307.45.312a4.416 4.416 0 0 1 4.302 4.435 4.443 4.443 0 0 1-4.438 4.438h-2.116a.5.5 0 0 0 0 1h2.116a5.444 5.444 0 0 0 5.438-5.438 5.406 5.406 0 0 0-4.95-5.415z"/></svg>