<svg xmlns="http://www.w3.org/2000/svg" viewBox="0 0 14.874995231628418 14.083474159240723"><path d="M7.437.043a7 7 0 1 0 0 13.998 7 7 0 1 0 0-13.998zm4.934 11.097c-.64-.268-2.15-.791-3.085-1.067-.08-.025-.092-.03-.092-.361 0-.273.112-.55.222-.783.12-.254.261-.681.312-1.062.143-.165.335-.49.46-1.108.108-.546.057-.744-.015-.931-.008-.02-.016-.04-.02-.058-.028-.13.01-.793.103-1.31.064-.353-.016-1.105-.503-1.728-.308-.393-.896-.876-1.972-.943h-.59c-1.058.066-1.646.55-1.954.942-.487.622-.568 1.375-.503 1.729.094.516.131 1.18.103 1.305-.004.022-.013.042-.02.06-.072.188-.123.386-.015.932.124.618.317.943.46 1.108.05.382.191.809.311 1.062.087.186.128.438.128.796 0 .332-.013.335-.087.359-.967.285-2.506.84-3.079 1.093A6.395 6.395 0 0 1 1.02 7.04C1.02 3.503 3.9.624 7.437.624s6.417 2.879 6.417 6.417a6.397 6.397 0 0 1-1.483 4.099z"/></svg>