<svg xmlns="http://www.w3.org/2000/svg" viewBox="0 0 4.823975563049316 13.917237281799316"><path d="M3.823 6.917v7h-3v-7h3zm-.802-2.982L4.723.818a.728.728 0 0 0 .101-.366c-.002-.115-.08-.228-.235-.337A.749.749 0 0 0 4.42.042a.683.683 0 0 0-.466.04.396.396 0 0 0-.183.167L2.414 2.866 1.009.21A.352.352 0 0 0 .678.02a.8.8 0 0 0-.419.114.467.467 0 0 0-.232.332.578.578 0 0 0 .058.39l1.703 3.08v1.481c0 .115.048.23.14.337s.252.163.475.163c.225 0 .385-.05.477-.154a.501.501 0 0 0 .141-.346V3.935z"/></svg>