<svg xmlns="http://www.w3.org/2000/svg" viewBox="0 0 11.822972297668457 13.918971061706543"><path d="M3.823 6.919v7h-3v-7h3zM3.02 3.937L4.722.82a.718.718 0 0 0 .101-.366c-.002-.116-.08-.228-.235-.337A.719.719 0 0 0 4.42.044a.663.663 0 0 0-.467.04.396.396 0 0 0-.183.168L2.414 2.869 1.009.212A.352.352 0 0 0 .678.021a.8.8 0 0 0-.419.115.466.466 0 0 0-.232.332.578.578 0 0 0 .058.39l1.703 3.079v1.482c0 .115.048.229.14.337s.251.163.475.163c.225 0 .385-.05.477-.154a.503.503 0 0 0 .14-.346V3.937zm4.803 2.982v7h3v-7h-3zm2.197-2.982L11.722.82a.728.728 0 0 0 .101-.366c-.002-.115-.08-.228-.235-.337a.723.723 0 0 0-.168-.072.683.683 0 0 0-.466.039.401.401 0 0 0-.183.168L9.414 2.869 8.009.213a.352.352 0 0 0-.331-.191.8.8 0 0 0-.419.115.463.463 0 0 0-.232.331.578.578 0 0 0 .058.39l1.703 3.079v1.482c0 .115.048.229.14.337s.251.163.475.163c.225 0 .385-.051.477-.154a.501.501 0 0 0 .141-.346V3.937z"/></svg>