<svg xmlns="http://www.w3.org/2000/svg" viewBox="0 0 18.925020217895508 20.299888610839844"><path d="M7.7 12.2V8.7H4.2a.5.5 0 0 1 0-1h3.5V4.2a.5.5 0 0 1 1 0v3.5h3.5a.5.5 0 0 1 0 1H8.7v3.5a.5.5 0 0 1-1 0zm11.046 7.217l-4.933-5.798-.001-.001c-.016-.025-.025-.053-.045-.074a.5.5 0 0 0-.707-.031 7.185 7.185 0 0 1-4.86 1.888c-3.97 0-7.2-3.229-7.2-7.2s3.23-7.2 7.2-7.2a7.208 7.208 0 0 1 6.688 9.873.496.496 0 0 0 .278.649.497.497 0 0 0 .649-.278A8.14 8.14 0 0 0 16.4 8.2c0-4.521-3.679-8.2-8.2-8.2S0 3.679 0 8.2s3.679 8.2 8.2 8.2a8.175 8.175 0 0 0 5.126-1.81l4.658 5.475a.502.502 0 0 0 .705.057.5.5 0 0 0 .057-.705z"/></svg>