<svg viewBox="0 0 1195 1195" xmlns="http://www.w3.org/2000/svg"><path d="M813.243 794.125c6.234-1.894 12.903-1.933 19.366-1.933h16.094V553.476h-493.05v179.379l.946-2.163 16.687-38.139h36.168l4.497 8.956.12-8.956h42.594l8.994 20.749 9.35-20.749h117.82s12.215-.022 18.183 0c8.26.034 14.161 4.578 14.161 4.578v-4.578h36.758v4.697s4.616-2.21 7.143-2.76c3.277-.982 6.745-1.263 10.138-1.733 4.847-.042 9.741-.239 14.592-.2h45.082l4.89 9.391v-9.391h39.364l5.602 9.075v-9.075h38.302v80.665h-38.537l-7.808-12.271v12.271h-48.197l-5.598-12.937h-11.712l-5.444 12.937h-18.304s-14.908.115-22.046-1.933c-2.602-.67-7.415-2.88-7.415-2.88v4.813h-59.879v-18.897s.17-1.583-1.31-2.04c-.89-.273-2.91-.209-2.91-.209v21.141H481.99v-9.156l-4.024 9.156h-24.333l-4.143-9.544v9.544h-46.664l-5.363-12.821-12.032-.042-5.325 12.864h-24.457v273.31H848.7v-176.47c-6.058 2.547-12.625 3.072-19.247 2.957-.619-.009-22.882 0-22.882 0h-12.894v-4.77s-4.898 4.757-14.712 4.77H661.682v-18.897s-.098-1.651-.934-1.813c-1.165-.222-3.584-.158-3.584-.158v20.868h-37.359v-21.654s-5.363 1.813-8.162 2.287c-5.167.789-15.582.593-15.582.593v18.774h-45.005l-11.204-12.267-11.67 12.267h-73.719v-80.823h74.786l11.003 12.109 11.597-12.109h48.081c3.99.354 8.01.435 11.994.986 3.311.55 6.434 1.971 9.271 3.746v-4.732h35.895s6.583-.158 9.861.273c3.947.239 7.923.631 11.673 1.856 2.13.67 6.033 2.645 6.033 2.645v-4.774h67.926v4.851s3.904-2.402 6.114-3.077c4.143-1.263 8.482-1.459 12.783-1.775 11.793.038 35.533 0 35.533 0v4.851c-.005 0 3.981-2.287 6.23-2.918zm-251.516-78.042v-12.109H515.34v58.022h46.425v-12.19l-32.346-.038.158-11.047 1.817-.154h29.623l-.043-4.616v-7.458l-31.24-.077V716.12zm87.92-12.108l-14.516.077.081 57.945h14.434zm-144.444 0h-22.998l-4.143 9.741-12.74 29.619-5.205-11.439-12.822-27.925h-22.759l-.038 54.664-1.105-2.526-17.118-39.838-5.167-12.305h-20.71l-24.85 58.023h15.108l.593-1.263 4.77-11.52h29.031l5.01 12.783h28.201v-45.363l12.74 28.322 7.693 17.041h12.19l11.515-26.112 8.482-18.142v44.254h14.358l-.038-58.014zm-124.087 32.852l.827-2.048 8.44-20.155 5.563 12.779 3.707 9.425h-18.538zm293.068-16.289c1.89-2.402 5.052-3.234 7.89-3.862 5.405-.273 16.29-.158 16.29-.158v-12.54h-9.192c-5.957-.042-12.066 0-17.745 2.01-1.779.827-3.669 1.421-5.214 2.646-3.55 2.722-6.387 6.468-7.808 10.765-1.306 3.435-1.617 7.138-2.168 10.765-.239 2.287-.158 4.616-.086 6.904.512 4.062.91 8.325 2.923 11.994 2.014 4.77 5.88 8.832 10.808 10.53 3.354 1.464 6.985 2.134 10.611 2.406 6.545-.115 19.678 0 19.678 0l4.933-12.74h29.107l5.163 12.74h28.288l.115-43.034 26.351 43.149 19.606-.115.038-58.022h-14.51l-.044 39.556-9.344-15.224-2.765-4.727-9.506-15.778-1.97-3.823h-21.778v37.47l-.154 16.525-23.155-53.995H709.76l-16.017 37.312s-2.483 5.563-3.507 8.401c-4.258.2-8.52.042-12.663-1.063-3.392-1.024-5.086-4.536-6.149-7.612-1.182-5.128-1.152-10.534.111-15.62.554-1.779 1.621-3.358 2.65-4.859zm38.336 11.558l4.856-11.793 2.526-5.679 4.928 11.635 2.364 5.721 1.78 4.697h-18.147l1.694-4.583zm-85.828-7.1c.947-4.373.91-9.229-1.302-13.248-1.54-2.88-4.42-4.732-7.338-6.038-3.469-1.302-7.215-1.775-10.93-1.732-11.952.038-35.816.038-35.816.038V762h14.041l-.038-18.577.038-2.445s9.9-.038 14.673.043c3.311.081 6.861.273 9.698 2.21.913.79 1.754 1.493 2.13 2.995.396 1.561.652 3.012.711 4.732.124 3.725.081 11.046.081 11.046h14.122s.316-11.874-.473-17.787c-.512-2.646-2.21-4.971-4.3-6.631-1.222-.905-2.599-1.536-3.824-2.483 3.87-2.257 7.262-5.73 8.525-10.107zm-17.472 2.761c-2.568 1.421-5.563 1.182-8.409 1.143h-15.459v-12.817h2.841s10.803-.119 16.214.115c1.694.115 3.465.474 5.005 1.263 3.477 2.287 3.12 8.047-.192 10.296zm131.546 88.238v-12.147h-46.464l.034 58.219h46.43v-12.151l-32.307-.038v-11.435h31.518V826.33H708.46v-10.334zm36.8 33.49c-9.588.081-28.759.081-28.759.081v12.505s18.62.009 27.93.043c5.831.013 6.826-.435 10.056-1.382 3.392-1.067 6.234-3.349 8.44-6.114 2.09-3.115 2.486-6.942 2.764-10.577.115-4.216-.793-8.598-3.434-11.947-1.933-1.937-4.416-3.243-7.023-4.024-6.942-2.014-14.277-1.263-21.418-1.856-1.105-.354-2.402-.674-3.034-1.736-1.698-1.967-1.067-5.128.79-6.745 2.167-1.416 4.85-1.339 7.337-1.378h23.98s.037-8.955.037-12.502h-29.939c-5.32-.081-10.803 2.44-14.238 6.626-4.655 5.913-4.727 14.511-1.22 21.026 1.89 2.918 4.965 4.889 8.277 5.837 4.147 1.139 8.405 2.01 12.706 1.89 2.88-.038 5.76.197 8.635.474 1.578.55 3.392 1.656 3.588 3.503.115 1.344.24 2.923-.708 4.027-.98 1.613-2.952 2.248-4.77 2.248zm71.59-16.768c-2.794-3.546-7.335-4.962-11.639-5.598-2.637-.2-5.278-.635-7.923-.474-2.918.158-5.76-.354-8.678-.392-1.775-.32-3.942-1.186-4.297-3.238-.554-1.536-.473-3.43.79-4.659 1.462-1.336 3.464-2.043 5.481-2.043 14.05-.005 26.351 0 26.351 0V803.85h-29.11c-3.632.034-7.378.943-10.492 2.837-3.434 1.89-6.038 5.209-7.219 8.955-1.259 3.746-.98 7.813-.235 11.639 1.182 3.704 3.511 7.334 7.177 8.952 3.635 1.775 7.731 2.245 11.716 2.88 3.392.315 6.788-.081 10.181.397 1.105.158 2.326 0 3.354.632 2.402 1.019 3.631 4.373 2.087 6.584-.909 1.736-2.756 2.841-4.697 2.799-9.587.043-28.792.043-28.792.043v12.505s19.17.017 28.753 0c3.2-.009 6.153-.632 9.114-1.502 3.55-1.105 7.023-3.234 8.635-6.703 1.933-3.195 2.564-6.985 2.368-10.654.192-3.707-.789-7.454-2.923-10.496zM609.02 804.595c-3.192-.67-6.494-.747-9.784-.747-14.04-.009-42.125 0-42.125 0l-17.984 18.808-17.199-18.808h-55.855v58.219h54.908l9.071-9.544 8.678-9.19 17.118 18.739h27.178v-19.213s14.003 0 20.945-.154c3.793-.315 7.573-1.067 11.047-2.603 2.25-1.067 4.062-2.757 5.717-4.536 2.091-2.641 3.196-5.957 3.434-9.267.827-4.933-.273-10.057-2.64-14.438-2.928-4.032-7.698-6.4-12.51-7.266zm-89.46 39.369l-5.56 5.875-33.925.043v-11.515h30.293v-12.032h-30.293v-10.253h34.355l15.343 16.926-10.214 10.957zm49.148.823v11.716l-3-3.43-17.673-19.725 7.296-8.043 13.372-14.4v33.882zm39.488-17.467c-.75 1.613-2.53 2.44-4.182 2.952-2.722.67-5.559.315-8.325.397-4.18-.081-12.663-.12-12.663-.12v-14.515s10.296 0 15.43-.038c1.727-.086 3.43 0 5.124.158 2.445.081 4.813 2.287 5.44 4.613.278 2.21.44 4.621-.823 6.553zm78.331-4.541c.551-3.823.354-8.047-1.817-11.397-3.273-4.578-9.698-7.343-15.262-7.501-1.976-.111-5.125-.034-5.125-.034H630.83c-.077 19.405 0 58.219 0 58.219h14.2v-21.065s6.827-.239 10.218-.162c3.985.086 8.124-.312 11.91 1.029 2.922.947 4.377 4.024 4.615 6.865.24 4.45.115 13.329.115 13.329h14.088s.077-9.425 0-14.161c-.278-2.918-.554-6.118-2.53-8.443-1.617-2.048-4.139-2.923-6.114-4.497 4.66-2.36 8.525-6.856 9.194-12.181zm-16.37 3.355c-1.183 1.851-3.435 2.526-5.48 2.683-6.549.354-19.644.034-19.644.034v-12.817h-.08s10.017-.038 15.065-.038c2.014.158 4.083.277 6.076.593 2.15.337 4.535 1.502 4.89 3.789.204 1.933.358 4.096-.828 5.755z"/></svg>