<svg viewBox="0 0 1195 1195" xmlns="http://www.w3.org/2000/svg"><path d="M536.636 902.438c-12.749 0-22.6 3.187-22.6 3.187-1.818.457-2.873 1.51-2.873 3.192v9.238c0 1.698 1.054 2.906 2.872 2.44 0 0 11.387-2.586 20.327-2.586 8.956 0 12.446 4.245 12.446 12.139v6.08c-1.979-.298-9.408-.921-14.567-.921-16.837 0-26.398 7.74-26.398 23.365 0 15.326 8.661 22.759 23.377 22.759 7.138 0 13.5-2.722 18.363-5.769v1.353c0 1.69 1.212 2.906 2.885 2.906h10.16c1.667 0 2.884-1.221 2.884-2.906v-46.87c-.03-18.202-6.699-27.606-26.875-27.606zm10.15 60.681c-4.394 2.279-9.553 4.104-14.25 4.104-6.682 0-10.01-3.332-10.01-9.118 0-6.524 3.328-10.001 11.53-10.001h12.73v15.014zm87.24-34.897v48.691c0 1.685-1.199 2.88-2.88 2.88h-10.918c-1.68 0-2.889-1.212-2.889-2.88v-47.181c0-7.125-2.138-11.678-10.172-11.678-4.702 0-9.86 2.134-14.11 4.408v54.451c0 1.685-1.212 2.88-2.885 2.88h-10.93c-1.669 0-2.886-1.212-2.886-2.88v-70.075c0-1.664 1.216-2.875 2.885-2.875h10.168c1.673 0 2.885 1.212 2.885 2.875v2.265c4.403-3.332 10.92-6.664 19.56-6.664 16.553 0 22.173 10.026 22.173 25.784zM489.574 676.194s14.682 14.69 14.682 35.469c0 0 0 20.77-14.682 35.464 0 0-14.707 14.69-35.469 14.69 0 0-20.779 0-35.464-14.69 0 0-14.703-14.686-14.703-35.464 0 0 0-20.779 14.703-35.469 0 0 14.686-14.699 35.464-14.699-.005.005 20.762.005 35.47 14.699zm257.928 226.244c-6.212 0-11.823 1.976-16.384 4.702v-32.166c0-1.651-1.207-2.867-2.867-2.867h-10.948c-1.668 0-2.85 1.238-2.85 2.867v101.944c0 1.69 1.216 2.88 2.85 2.88h27.013c18.812 0 27.776-10.005 27.776-26.551v-24.273c0-16.222-7.753-26.534-24.589-26.534zm7.894 50.369c0 7.582-3.49 12.557-12.595 12.557h-11.678v-44.745c4.105-1.962 8.802-3.49 12.903-3.49 8.346 0 11.384 5.317 11.384 12.894v22.788h-.013zm161.57-45.824l-33.689 98.91c-.615 1.51-1.51 2.735-3.178 2.735H867.82c-1.68 0-2.893-1.353-2.299-2.867l8.64-25.319-24.094-73.605c-.448-1.51.457-2.875 2.28-2.875h12.005c1.664 0 2.867 1.067 3.323 2.718l15.466 48.094 16.243-48.094c.597-1.506 1.651-2.718 3.332-2.718h11.985c1.813 0 2.88 1.506 2.265 3.021zm-218.312-34.894h-10.927c-1.68 0-2.875 1.229-2.875 2.88v31.543c-4.56-2.253-10.01-4.087-16.247-4.087-16.837 0-24.712 10.325-24.712 26.555v25.796c0 16.214 7.876 26.551 24.712 26.551 6.524 0 12.288-2.419 17.007-5.308v.875c0 1.702 1.225 2.901 2.871 2.901h10.168c1.668 0 2.893-1.212 2.893-2.901V874.967c.005-1.647-1.22-2.88-2.889-2.88zm-13.799 90.889c-4.096 1.967-8.649 3.503-12.753 3.503-8.333 0-11.52-5.337-11.52-12.933v-23.505c0-7.582 3.196-12.889 11.52-12.889 4.091 0 8.65 1.207 12.753 2.889v42.935zm157.777-56.141v70.076c0 1.69-1.207 2.906-2.867 2.906h-10.168c-1.694 0-2.87-1.221-2.87-2.906v-2.253c-4.413 3.324-10.937 6.664-19.598 6.664-16.55 0-22.16-9.997-22.16-25.796v-48.691c0-1.664 1.22-2.875 2.904-2.875h10.914c1.69 0 2.905 1.212 2.905 2.875v47.198c0 7.121 2.112 11.665 10.142 11.665 4.706 0 9.886-2.12 14.12-4.403v-54.459c0-1.664 1.211-2.875 2.87-2.875h10.936c1.647 0 2.871 1.212 2.871 2.875zm-359.7 30.196l20.778 39.88c.76 1.395-.295 2.906-1.979 2.906h-12.293c-1.668 0-3.034-1.361-3.798-2.906l-20.625-39.574 18.808-30.498c.921-1.37 2.283-2.875 3.947-2.875h12.293c1.668 0 2.577 1.506 1.668 2.875l-18.799 30.191zm-103.784-62.064V885.9c0 1.681-1.212 2.889-2.885 2.889h-10.918c-1.668 0-2.885-1.221-2.885-2.889v-10.931c0-1.651 1.221-2.88 2.885-2.88h10.918c1.677 0 2.885 1.233 2.885 2.88zm-56.882 31.868v9.246c0 1.685-1.058 2.59-2.87 2.449 0 0-6.537-.926-12.139-.926-9.856 0-13.056 5.773-13.056 13.961v20.471c0 8.49 3.49 14.131 13.206 14.131 5.918 0 12.13-.918 12.13-.918 1.673-.162 2.731.615 2.731 2.279v9.259c0 1.664-.763 2.739-2.87 3.195 0 0-6.994 1.365-13.207 1.365-18.359 0-28.663-10.005-28.663-28.834V931.28c0-18.799 10.172-28.825 28.663-28.825 6.835 0 13.206 1.353 13.206 1.353 1.95.307 2.871 1.365 2.871 3.029zm27.302-31.868v101.944c0 1.685-1.203 2.88-2.88 2.88h-10.927c-1.673 0-2.893-1.212-2.893-2.88V874.97c0-1.651 1.22-2.88 2.893-2.88h10.927c1.677 0 2.88 1.233 2.88 2.88zm114.542 0v101.944c0 1.685-1.212 2.88-2.885 2.88h-10.93c-1.669 0-2.873-1.212-2.873-2.88V874.97c0-1.651 1.216-2.88 2.872-2.88h10.931c1.673 0 2.885 1.233 2.885 2.88zm72.41-134.322c-11.11-11.102-11.11-26.761-11.11-26.761 0-15.659 11.11-26.671 11.11-26.671 11.017-11.102 26.76-11.102 26.76-11.102h79.326l-20.677-20.582c-11.008-11.004-11.008-26.569-11.008-26.569 0-15.565 11.008-26.573 11.008-26.573 11.013-11.017 26.577-11.017 26.577-11.017 15.565 0 26.577 11.017 26.577 11.017l85.034 84.937c10.936 11.016 10.936 26.573 10.936 26.573 0 15.557-11.013 26.573-11.013 26.573l-84.94 85.043c-11 10.91-26.578 10.91-26.578 10.91-15.552 0-26.577-10.91-26.577-10.91-11.02-11.012-11.02-26.582-11.02-26.582 0-15.56 11.02-26.577 11.02-26.577l20.663-20.68h-79.313c-15.76-.013-26.777-11.03-26.777-11.03zm-157.372 166.19v70.076c0 1.69-1.212 2.906-2.885 2.906h-10.918c-1.668 0-2.885-1.221-2.885-2.906v-70.076c0-1.664 1.221-2.875 2.885-2.875h10.918c1.677 0 2.885 1.212 2.885 2.875zm57.651 0v9.246c0 1.685-1.063 2.59-2.875 2.449 0 0-6.519-.926-12.135-.926-9.865 0-13.056 5.773-13.056 13.961v20.471c0 8.49 3.503 14.131 13.205 14.131 5.905 0 12.13-.918 12.13-.918 1.668-.162 2.731.615 2.731 2.279v9.259c0 1.664-.76 2.739-2.875 3.195 0 0-6.976 1.365-13.188 1.365-18.363 0-28.676-10.005-28.676-28.834V931.28c0-18.799 10.151-28.825 28.676-28.825 6.831 0 13.188 1.353 13.188 1.353 1.967.307 2.875 1.365 2.875 3.029z"/></svg>