<svg viewBox="0 0 1195 1195" xmlns="http://www.w3.org/2000/svg"><path d="M743.906 787.286h-.367v-35.238h38.946c.235 0 .448.013.696.03.235.017.465.034.7.056.23.013.464.034.695.068.264.013.482.047.7.064.234.017.396.056.533.077l.162.034c.235.034.482.086.7.149.234.034.46.094.698.167.231.06.461.124.712.192.247.068.461.158.696.239.217.085.465.166.7.247.25.09.481.209.698.312.251.111.478.205.696.341.247.106.478.243.717.354.231.141.461.273.696.405a9.8 9.8 0 0 1 .696.465c.235.149.482.337.7.507.263.175.481.354.716.563.251.197.478.406.696.623.251.226.465.448.696.699.251.256.482.517.7.785.25.307.481.593.698.896.247.341.482.699.696 1.058.251.409.5.84.712 1.263.27.525.465 1.058.7 1.608.297.746.515 1.553.698 2.368.294 1.276.431 2.632.431 4.066 0 1.408-.167 2.786-.43 4.075a17.179 17.179 0 0 1-.7 2.381 13.49 13.49 0 0 1-.699 1.6c-.213.427-.46.853-.712 1.263a12.79 12.79 0 0 1-.696 1.049c-.217.307-.448.61-.699.9-.217.273-.448.55-.699.781-.23.243-.443.482-.696.7a9.54 9.54 0 0 1-.696.631 8.065 8.065 0 0 1-.717.563c-.217.167-.465.358-.699.507a9.716 9.716 0 0 1-.696.44c-.235.145-.465.294-.696.418-.239.119-.47.251-.717.358-.217.098-.443.234-.696.341-.217.098-.448.184-.699.281-.217.089-.448.188-.699.273-.235.064-.448.154-.696.222-.23.069-.482.137-.712.201-.239.077-.465.124-.699.175-.217.051-.465.085-.699.132l-.162.034c-.136.017-.333.034-.534.077-.2.017-.435.051-.699.064-.23.022-.465.055-.696.072-.235.017-.465.034-.699.047a7.57 7.57 0 0 1-.696.034c-.25 0-.499.022-.699.022h-37.88v-.042zm-.367 59.733h42.351c.217 0 .448-.034.7-.034.212-.043.46-.043.695-.077.251 0 .465-.034.7-.043.25-.026.442-.034.698-.068.247-.026.478-.06.691-.086.256-.034.504-.068.7-.098.148-.043.285-.077.417-.106l.282-.068c.251-.026.448-.089.712-.175l.7-.2c.234-.077.464-.183.695-.252.24-.098.465-.166.7-.264s.464-.2.698-.315c.231-.115.461-.217.712-.367.251-.115.448-.235.7-.35.212-.132.481-.264.695-.401.251-.149.478-.298.7-.457.25-.141.477-.325.695-.465.251-.2.482-.367.717-.55.231-.183.461-.384.7-.584.23-.252.46-.457.711-.7.247-.264.482-.49.696-.751.251-.273.482-.542.717-.858s.461-.632.696-.981c.264-.333.465-.734.7-1.075.263-.418.46-.866.698-1.284.247-.567.495-1.101.691-1.698.298-.76.504-1.541.7-2.394.332-1.391.498-2.885.498-4.45 0-1.549-.167-3.025-.499-4.433-.197-.815-.4-1.6-.699-2.385a20.609 20.609 0 0 0-.69-1.625c-.24-.448-.44-.918-.7-1.331-.235-.367-.435-.726-.699-1.092-.235-.333-.46-.666-.696-.969-.235-.281-.435-.567-.717-.824a5.208 5.208 0 0 0-.696-.768 4.228 4.228 0 0 0-.712-.666c-.239-.235-.47-.418-.699-.632-.235-.166-.465-.367-.717-.534a8.601 8.601 0 0 0-.696-.49c-.222-.149-.448-.333-.699-.474-.213-.123-.448-.273-.696-.375-.25-.149-.448-.281-.699-.35-.25-.098-.448-.252-.712-.35-.235-.098-.465-.217-.699-.315s-.46-.2-.699-.281c-.23-.086-.46-.149-.696-.252-.235-.034-.465-.132-.699-.2-.23-.06-.46-.115-.712-.175l-.282-.068c-.128-.026-.278-.06-.418-.077a13.615 13.615 0 0 0-.699-.098 2.904 2.904 0 0 1-.69-.115c-.257 0-.449-.034-.7-.034a4.66 4.66 0 0 0-.699-.06c-.235-.034-.482-.034-.696-.068-.25 0-.482 0-.699-.034h-42.35v38.229zm-58.376-264.111H578.498c-.24.013-.47.013-.7.034l-.735.013c-.2 0-.448.017-.695.034-.239 0-.448.034-.7.034-.197.013-.448.034-.695.047-.235.017-.448.034-.7.051l-.695.064c-.235.022-.465.042-.7.059s-.478.055-.695.09l-.7.064-.7.089c-.23.034-.46.064-.695.107-.235.034-.465.068-.695.081-.235.034-.465.069-.7.115l-.695.115-.7.124c-.235.055-.465.089-.717.136-.217.047-.46.081-.695.141-.252.034-.465.086-.7.137l-.695.149c-.252.047-.465.106-.695.154-.256.051-.465.12-.7.171a6.414 6.414 0 0 0-.695.175c-.256.047-.465.115-.7.17l-.7.209-.695.179c-.252.077-.448.145-.7.209a7.538 7.538 0 0 0-.695.222c-.217.047-.448.137-.7.197l-.712.243a11.28 11.28 0 0 0-.7.235c-.235.089-.46.154-.717.256-.214.081-.443.158-.695.256-.248.068-.443.171-.695.26-.217.081-.482.183-.7.264-.252.089-.482.192-.712.273l-.7.29-.695.29c-.235.098-.465.2-.7.307-.217.102-.46.196-.7.307-.23.094-.46.218-.695.316-.235.111-.465.205-.712.341-.235.106-.448.222-.7.341l-.695.358-.7.354c-.235.12-.478.243-.7.358-.23.124-.443.239-.712.354-.217.141-.465.273-.695.397-.235.119-.465.251-.7.375-.217.137-.465.264-.695.406-.239.136-.465.269-.717.409-.235.128-.448.29-.7.423-.23.132-.443.29-.695.44-.217.141-.448.307-.7.448-.23.149-.482.298-.695.457-.235.149-.448.325-.683.474-.248.162-.46.325-.729.474-.217.162-.465.35-.7.499-.217.171-.46.354-.695.507-.235.179-.465.358-.7.534-.23.166-.46.354-.695.52-.252.192-.465.354-.7.563a6.113 6.113 0 0 0-.695.567c-.252.197-.465.371-.695.568-.239.192-.465.392-.7.597-.252.205-.465.392-.7.618-.252.218-.495.406-.695.623-.252.209-.465.435-.734.648-.214.226-.465.423-.695.649-.235.243-.448.457-.7.695-.235.226-.448.444-.695.7-.235.218-.448.474-.7.713-.235.243-.443.49-.695.734-.235.256-.465.49-.7.747s-.443.516-.7.763c-.23.273-.443.534-.695.802-.235.273-.448.546-.695.819-.252.273-.465.559-.7.849-.252.29-.482.584-.729.875-.217.298-.448.589-.7.913-.235.307-.443.632-.7.943-.23.325-.46.632-.695.955-.235.341-.448.678-.687.999-.243.358-.474.695-.7 1.058-.243.358-.457.712-.7 1.071-.23.379-.469.746-.695 1.13-.235.375-.457.781-.695 1.173-.235.406-.457.815-.7 1.221-.235.435-.457.857-.695 1.275-.239.444-.474.883-.717 1.344-.235.457-.457.93-.7 1.416-.23.49-.469.982-.712 1.494-.235.529-.457 1.058-.7 1.6-.23.563-.469 1.131-.695 1.719-.235.615-.474 1.233-.695 1.865-.256.67-.474 1.353-.7 2.018-.252.746-.474 1.498-.7 2.253-.235.849-.474 1.694-.687 2.569a55.053 55.053 0 0 0-.7 3.025 72.382 72.382 0 0 0-1.506 14.707v94.737c.5-.405.99-.832 1.506-1.241.217-.188.457-.38.7-.563.231-.167.452-.358.687-.546.243-.184.465-.354.7-.525.243-.192.461-.358.7-.52.222-.179.461-.328.695-.504.226-.149.465-.324.695-.486l.7-.482c.243-.149.465-.325.712-.457l.7-.457c.243-.158.461-.303.717-.44.222-.162.461-.29.695-.435.243-.149.465-.278.7-.418.24-.137.461-.273.695-.41.243-.128.465-.29.695-.406.243-.145.457-.273.7-.392l.7-.375.687-.371c.252-.123.465-.26.695-.384.256-.115.465-.231.7-.35l.7-.367.73-.345.7-.346c.23-.106.442-.222.694-.325l.695-.325.7-.325.7-.307.695-.312.7-.29.695-.29.7-.281.695-.273.734-.269c.2-.085.443-.183.695-.273l.7-.264c.2-.089.443-.179.7-.261.231-.081.443-.175.695-.256l.695-.243.7-.252c.235-.068.465-.158.695-.243l.7-.243c.235-.068.461-.149.695-.217l.7-.222.73-.226.682-.197.695-.209.7-.196.695-.205.7-.201 1.413-.371.862-.205.7-.17.695-.175.7-.162.695-.179.7-.166.7-.158.73-.149.694-.154.7-.149.695-.158 1.382-.269.712-.145.7-.128.695-.136.695-.128.717-.115.7-.123.712-.115 1.395-.231.7-.089.695-.115.7-.098.695-.089.7-.098.7-.081.695-.09.695-.102.7-.086.695-.089.717-.081.7-.072.695-.081.7-.068.695-.086.695-.051.7-.072 1.395-.137.7-.047 1.413-.103.691-.042.7-.051.7-.047.717-.034.695-.047 3.486-.171.683-.038.7-.017.734-.034.691-.013.7-.017.7-.013.695-.022h.7l1.395-.025.695-.022h.7l.73-.013h7.674l.7.013h.698l.691.022.7.013h.698l.73.013h.7l.698.022.696.013.696.017.7.013.695.017.7.013.698.034.691.043h.367l.333.013.734.034.696.013.7.034.698.056.691.034.7.03 1.398.102.696.056 1.395.102.696.068.7.064.698.051.696.072.717.051.696.064 1.413.136.7.072.695.09.717.064.696.086.7.064 1.39.179.7.081.711.086.7.089.698.081.696.086.7.098.711.09.7.102.698.094.696.103.696.123.717.081.7.103.69.107.7.115.698.102.712.102.7.107.695.115.683.123.696.115.734.115.7.115.695.145.7.115.695.123.696.133.7.115.698.128.696.133.696.115.7.141.698.149.696.137.7.141.698.128.73.145.696.128.7.149.695.145.7.128.698.162.726.128.7.149.698.158.696.149.7.162.698.149.691.162.7.149.698.175.73.166.7.149.698.175.7.171v30.635l-.7-.354-.699-.346-.699-.354-.73-.337-.699-.341-.699-.358-.69-.325-.7-.341-.699-.324-.696-.325-.699-.328-.699-.325-.726-.298-.699-.303-.699-.307-.696-.307-.699-.307-.696-.29-.73-.29-.699-.286-.699-.29-.696-.29-1.399-.546-.696-.264-.696-.26-.699-.256-.699-.252-.696-.243-.696-.256-.699-.235-.696-.226-.699-.243-.734-.214-1.378-.448-.696-.218-.699-.226-.712-.209-.699-.197-.699-.209-.69-.201-.7-.188-.717-.183-.696-.192-.696-.162-.699-.175-1.413-.345-.699-.167-.696-.158-1.399-.298-.712-.141-.699-.137-.69-.141-.7-.136-.699-.115-.696-.141-.717-.115-.696-.115-.699-.145-.699-.094-.712-.103-.696-.107-1.413-.2-.699-.089-.699-.098-.696-.069-.696-.081-.699-.069-.696-.089-1.033.175-.699-.068-.69-.047-.688-.077-.69-.047-.44-.034-.264-.013-.699-.056-.717-.034-.696-.03-.696-.034-.699-.043-.699-.013-.696-.017-.696-.013h-.699l-.717-.017h-1.392l-.717.017h-.696l-.717.013c-.217 0-.443 0-.699.017-.25.013-.443.013-.699.038l-1.39.069-.7.047-.696.055c-.217.013-.448.034-.7.047s-.443.034-.7.068l-.7.072-.69.089-.7.064-.7.098-.696.107-.7.103c-.23.034-.443.068-.712.115-.217.034-.465.068-.7.111-.23.047-.46.081-.69.128-.24.047-.47.069-.7.137-.257.034-.47.085-.718.141l-.7.137c-.23.064-.443.115-.695.175l-.695.167c-.239.047-.448.115-.7.17-.235.06-.482.12-.678.175-.252.068-.469.128-.734.205l-.7.196c-.214.056-.46.137-.695.209-.239.081-.465.136-.7.217-.23.068-.46.158-.7.226-.23.081-.46.149-.69.239-.24.085-.47.166-.7.264a6.577 6.577 0 0 0-.7.256c-.236.098-.462.192-.696.273-.235.081-.465.179-.7.273-.252.098-.465.196-.695.298-.256.107-.465.209-.7.303-.235.111-.46.226-.7.329-.248.098-.46.222-.695.337-.248.128-.465.226-.729.345-.235.115-.448.243-.7.354-.235.124-.46.243-.695.359-.235.115-.465.256-.7.388-.235.141-.443.273-.7.392-.23.141-.443.29-.695.435-.23.132-.448.277-.695.439-.235.149-.465.307-.7.44-.235.149-.448.324-.695.473-.235.175-.448.325-.7.504-.235.167-.46.337-.695.507-.252.175-.465.358-.7.546a6.971 6.971 0 0 0-.7.559c-.248.205-.478.371-.695.576-.235.209-.465.393-.7.619-.23.196-.46.423-.695.623-.235.226-.465.448-.695.683-.239.226-.482.47-.7.687-.235.256-.465.495-.7.747-.235.256-.46.512-.695.772-.235.248-.465.521-.7.815-.23.269-.46.554-.695.845-.235.307-.465.597-.7.905-.23.325-.478.644-.712.956-.252.345-.465.674-.695 1.016-.256.375-.482.713-.717 1.088-.235.367-.465.773-.7 1.182-.23.405-.478.827-.695 1.255-.235.461-.482.905-.7 1.378-.264.482-.482.99-.712 1.502a34.138 34.138 0 0 0-.7 1.634 35.506 35.506 0 0 0-.695 1.869 41.279 41.279 0 0 0-.7 2.125c-.252.84-.495 1.685-.7 2.56a46.576 46.576 0 0 0-.695 3.298 55.748 55.748 0 0 0-.712 5.133 63.944 63.944 0 0 0-.298 6.264c0 2.146.098 4.258.298 6.264.166 1.767.397 3.461.712 5.125.2 1.101.418 2.21.695 3.286.205.883.448 1.733.7 2.568.217.726.448 1.425.7 2.125a41 41 0 0 0 .695 1.861c.217.534.448 1.067.7 1.668.217.465.443.99.712 1.493.2.435.435.901.7 1.365.217.392.465.824.695 1.224.217.367.465.785.7 1.165.235.367.461.751.717 1.092.214.358.443.666.695.998.235.333.443.632.712.981.217.315.465.593.7.918.235.298.465.559.695.858.235.264.465.534.7.802.235.281.461.525.695.768s.465.49.7.751c.217.226.461.443.7.691.231.235.461.448.695.683.235.2.465.435.695.632.235.2.465.384.7.601.217.209.448.358.695.601.217.158.448.341.7.525.217.2.448.367.7.534.235.166.443.367.695.49.235.183.465.358.7.507.248.123.461.298.695.457.235.149.465.298.7.435.248.106.465.298.695.418.252.115.465.315.695.418.256.132.465.281.7.401.235.132.465.264.7.384s.461.226.695.341c.252.141.465.264.7.367.248.115.482.235.73.333.234.141.447.235.694.367.2.098.452.217.7.315.235.115.443.217.7.315.231.115.443.217.695.315.235.086.448.183.7.281.235.068.461.2.695.273.235.089.465.175.7.29.231.068.461.158.7.226.231.077.461.175.691.26.24.068.47.141.7.217.235.089.461.158.7.226.235.068.461.149.695.217.24.068.482.132.7.2.231.086.465.149.734.217.197.034.443.098.678.166.252.034.461.115.7.166l.695.166c.252.068.465.098.695.166.256.068.465.098.7.132.248.068.461.115.717.149.231.068.461.098.7.149.231.043.461.077.691.132.235.034.47.089.7.123.235.034.461.077.712.106.222.034.47.068.7.098l.695.089.7.115.7.068.691.086.7.068c.256.034.448.068.7.068.252.034.482.034.7.068l.695.043.7.06.7.034.69.051c.256 0 .448 0 .7.043h.698l.717.026h4.22l.696-.026h.696l.7-.043.698-.051 1.391-.068.717-.026.7-.043.263-.034.44-.034.69-.034.687-.086.691-.051.7-.06.698-.077.696-.098.7-.068.698-.06.691-.098.7-.106.698-.089.7-.098.73-.149.698-.115 2.091-.295.7-.149.73-.115.698-.115.696-.149.696-.132.7-.166.698-.132.696-.166.696-.132.7-.158.695-.175.7-.149.733-.183.696-.158 1.395-.367.696-.2.7-.166 1.398-.435.691-.2.7-.2.733-.2.696-.2.7-.243.698-.217 1.378-.478.691-.226.7-.235.698-.252.696-.252.712-.264.7-.235 1.398-.529.696-.281.696-.273.7-.264.695-.281 1.4-.563.711-.315.7-.298.711-.281.696-.315.7-.315.698-.307.712-.298.7-.333.695-.35.7-.315.711-.333.7-.333.698-.35.691-.35.7-.333.716-.325.696-.367.696-.333.7-.367v30.609l-.7.166-.696.183-.696.166-.717.183-.699.166-.69.166-.7.166-.699.132-.712.166-.699.166-.913.567-.699.149-.699.123-.696.149-.696.175-.699.123-.73.175-.699.123-.699.166-1.39.264-.7.098-2.786.529-.699.149-.699.115-.717.115-.696.149-.696.098-1.399.264-.712.115-.699.115-.696.132-.699.089-.696.068-.717.141-.699.089-.69.098-1.4.231-.717.098-.69.098-.7.132-.699.086-.699.098-.712.098-.696.115-.699.098-.699.068-.69.098-.722.086-.696.086-.696.077-.699.089-.696.06-.699.106-1.413.137-.678.086-.699.077-.73.077-.699.068-.699.043-.69.055-.692.068-.699.034-.699.077-.696.06-.699-.026-.699.06-.69.034-.7.068-.699.034-.696.051-.699.034-.73.034-1.395.068h-.346l-.354.017-1.395.034-2.09.103h-.7l-.734.034h-.696l-.696.034h-.699l-.696.034h-2.829l-.699.034h-7.347l-.695-.034h-1.395l-.734-.034h-.7l-.7-.034h-.69l-2.096-.103-.7-.017-2.09-.103-.667.098-2.09-.103-.7-.043-.696-.06-.7-.051-.695-.034-.7-.068-.729-.034-.7-.06-.7-.068-.695-.043-.7-.068-.695-.077-.695-.086-.683-.068-.695-.086-.7-.068-.717-.115-.695-.068-.7-.106-.695-.06-2.095-.295-.695-.051-.7-.115-1.395-.197-.695-.132-.695-.115-.717-.115-.7-.132-.712-.132-.7-.098-.695-.089-.7-.141-.712-.132-1.399-.264-.695-.149-.695-.158-.7-.149-.712-.175-.7-.158-.695-.149-.7-.166-.7-.183-.712-.166-.695-.2-.7-.183-.695-.217-.738-.179-1.395-.401-.7-.192-.695-.217-.695-.235-.717-.149-.683-.2a6.771 6.771 0 0 0-.695-.252c-.252-.086-.465-.166-.7-.252l-.499-.333-.729-.235c-.235-.098-.448-.166-.695-.264-.235-.068-.448-.183-.7-.26l-.695-.273c-.235-.089-.448-.2-.7-.264l-.7-.273-1.39-.563-.7-.315-.696-.298-.7-.298-.695-.298-2.095-.998c-.235-.089-.465-.235-.712-.333l-.7-.341-.712-.35-.7-.35a6.346 6.346 0 0 0-.7-.35c-.23-.132-.46-.281-.695-.367l-.7-.392-.695-.358-.695-.273c-.243-.132-.465-.281-.7-.401-.243-.141-.465-.298-.7-.401l-.695-.418c-.243-.149-.457-.315-.7-.418a5.916 5.916 0 0 0-.712-.435l-.7-.465c-.243-.149-.452-.333-.712-.457l-.7-.448c-.239-.183-.474-.367-.695-.499-.243-.166-.474-.35-.7-.482-.243-.183-.457-.35-.7-.499-.239-.158-.452-.367-.695-.525-.243-.175-.452-.367-.695-.55s-.474-.35-.7-.55c-.507-.418-1.019-.832-1.498-1.267v167.1H615.76c.24 0 .465 0 .7-.009.23-.026.464-.026.698-.026.231 0 .461-.017.7-.017l.69-.034.7-.051c.234-.017.46-.017.698-.026.235-.026.461-.034.696-.06l.712-.068c.217-.026.465-.026.7-.06.25-.034.464-.077.711-.106.24-.034.47-.034.7-.068.234-.034.46-.068.698-.089l.696-.098c.235-.034.465-.077.717-.106.247-.034.448-.077.696-.106.251-.043.448-.077.7-.132l.698-.123.691-.123c.256-.068.482-.098.7-.149.25-.034.447-.086.716-.149l1.395-.333c.235-.034.461-.098.696-.166s.465-.115.7-.183c.23-.068.46-.115.711-.2.217-.086.448-.115.7-.183l.695-.2.7-.192c.25-.077.477-.141.698-.243.231-.06.443-.123.712-.2.235-.098.461-.183.7-.252l.69-.273.7-.235c.234-.086.47-.166.698-.252.235-.086.461-.183.717-.281.231-.068.443-.183.696-.264.213-.086.448-.183.696-.298l.7-.298.698-.273.712-.325c.217-.089.461-.217.7-.333.234-.089.46-.192.695-.333.217-.123.465-.226.7-.341.23-.098.46-.217.698-.35.231-.098.461-.252.691-.367.235-.115.47-.264.7-.367l.698-.367.696-.358.7-.392a6.53 6.53 0 0 1 .695-.375c.251-.141.465-.298.696-.401.251-.166.504-.298.7-.418.25-.149.447-.298.698-.418.251-.132.448-.315.7-.448.263-.149.442-.307.73-.448.216-.123.442-.298.695-.426.235-.132.435-.333.7-.499.234-.149.442-.333.695-.465.251-.183.448-.35.7-.499.25-.166.447-.35.698-.499.247-.158.443-.367.73-.525a9.88 9.88 0 0 1 .696-.542c.235-.158.435-.341.7-.559.234-.166.43-.35.695-.55.235-.217.448-.35.7-.601.25-.183.447-.35.698-.55.247-.226.443-.435.696-.623.251-.235.465-.401.696-.632.256-.217.465-.418.7-.632.246-.235.447-.435.73-.666.238-.235.434-.448.698-.691.235-.243.448-.448.7-.7.23-.235.442-.465.695-.7.251-.264.443-.499.696-.734.256-.26.448-.517.7-.768.234-.226.447-.517.695-.76.24-.281.465-.534.7-.802.23-.298.442-.567.698-.841.231-.298.443-.593.7-.883.23-.298.442-.584.69-.866.235-.333.448-.618.7-.935.234-.307.447-.632.698-.943.235-.315.461-.649.696-.969.235-.35.465-.683.734-1.015.231-.367.431-.691.7-1.058.196-.367.43-.717.69-1.067.24-.367.448-.734.687-1.127.247-.401.461-.768.678-1.182.264-.418.482-.815.7-1.25.263-.418.472-.841.711-1.293.247-.418.482-.901.696-1.365.251-.448.482-.935.7-1.425.25-.482.477-1.015.698-1.502.247-.559.478-1.075.691-1.642.286-.584.482-1.152.721-1.75.264-.632.461-1.259.696-1.907.264-.7.478-1.391.696-2.074.264-.768.482-1.549.7-2.325.263-.901.481-1.8.695-2.692.298-1.067.5-2.168.712-3.26a67.02 67.02 0 0 0 .7-4.327c.383-3.059.6-6.149.6-9.267V582.913h-1.95zm-200.236 0H378.231c-.235 0-.452.013-.695.034l-.704.013c-.235 0-.457.017-.695.034-.235 0-.457.034-.7.034-.235.013-.457.013-.687.047l-.717.051-.695.064c-.243.022-.482.042-.717.059-.226.017-.465.055-.695.069l-.7.081-.695.089c-.243.034-.465.047-.7.106a7.845 7.845 0 0 1-.695.081c-.243.034-.465.068-.7.115l-.7.115c-.239.042-.478.077-.712.123-.243.055-.465.089-.695.137s-.465.081-.7.141c-.243.047-.482.103-.712.15l-.7.149c-.243.06-.457.111-.717.158-.226.047-.452.115-.695.166-.243.06-.457.111-.7.179-.243.064-.469.115-.695.162l-.712.192c-.243.064-.457.115-.7.196-.243.072-.457.141-.7.205-.222.068-.457.136-.695.226-.243.064-.457.149-.7.213l-.695.243-.717.243c-.239.081-.452.149-.695.251-.226.073-.457.158-.7.243-.239.081-.457.167-.695.256l-.542.264-.712.273-.7.29c-.243.098-.46.192-.7.295-.222.094-.46.217-.695.325-.243.102-.482.196-.712.307-.243.098-.465.214-.7.316-.243.123-.465.226-.695.35a6.873 6.873 0 0 0-.7.354l-.7.367a4.169 4.169 0 0 0-.695.346c-.243.128-.457.243-.717.367-.226.115-.46.248-.695.371-.243.115-.482.264-.695.389-.243.136-.457.251-.7.375-.243.128-.457.29-.7.406-.239.136-.474.273-.712.409-.243.132-.457.29-.7.418-.243.145-.452.294-.696.426a8.58 8.58 0 0 1-.7.448c-.239.149-.452.307-.696.456-.243.15-.474.325-.696.47-.243.162-.457.325-.717.503-.226.15-.457.325-.7.487l-.696.516c-.243.167-.457.354-.7.525-.243.188-.47.358-.713.52-.243.192-.457.367-.696.563-.239.192-.457.358-.7.563-.218.183-.457.392-.7.593-.234.188-.457.371-.696.598-.234.188-.457.392-.717.598-.214.196-.452.405-.696.606-.234.226-.457.435-.717.648-.218.222-.452.431-.696.645-.234.243-.457.456-.7.699-.234.222-.457.457-.696.7-.234.234-.457.473-.7.712-.234.239-.47.486-.7.726-.23.26-.47.503-.713.746-.234.26-.452.517-.696.768-.234.273-.457.534-.717.806-.234.264-.457.538-.7.815-.23.269-.452.563-.696.845-.234.294-.474.584-.7.875-.23.286-.47.597-.687.896-.243.307-.46.619-.717.943-.222.325-.46.632-.696.956-.243.346-.465.683-.7.999-.239.35-.478.695-.696 1.037-.26.358-.482.713-.713 1.071-.243.367-.465.76-.7 1.114-.243.392-.465.781-.7 1.173-.239.406-.478.815-.696 1.221-.243.435-.482.857-.7 1.275-.243.444-.478.896-.696 1.344-.243.457-.482.93-.717 1.416-.239.49-.46.982-.696 1.494-.243.529-.465 1.058-.696 1.583-.243.581-.482 1.144-.7 1.715-.26.618-.457 1.233-.7 1.851-.243.687-.47 1.365-.713 2.043-.243.746-.457 1.498-.7 2.253-.243.849-.487 1.694-.696 2.569a63.532 63.532 0 0 0-.7 3.025 72.653 72.653 0 0 0-1.498 14.728v178.726c.507.264 1.002.465 1.498.717l.7.35.696.325.7.333.713.333 1.4.666.695.298.696.35.717.273.696.333.7.298.696.298.7.315.7.281.713.298.696.298.7.298.696.29.717.264.687.298.7.252.696.281.7.252.717.281.696.264.713.235.7.264.7.235.696.243.7.29.696.226.717.2.696.273.717.209.696.235.7.217 1.395.401.713.217.7.183.696.217.7.2.717.183.696.158.696.209.7.158.696.2.7.166.712.183.7.166.7.183.695.132.695.166.717.132.695.132.7.166.7.132.695.149.7.098.712.123.695.106.7.141.7.106.712.123.7.098.695.077.7.089.687.098.726.098.687.077.7.06.695.086 1.395.137.717.034.695.068.7.034.695.068h.717l.695.051 2.112.103h1.413l.695.034h2.094l.7-.034h.695c.243 0 .474-.034.712-.034.243-.034.457-.034.7-.034.243-.034.457-.034.717-.086.222 0 .452 0 .695-.034s.457-.034.7-.068l.695-.068c.243-.034.452-.068.695-.098.243 0 .457-.026.7-.086l.7-.098c.235-.026.452-.098.695-.132.235-.034.457-.098.7-.132.231-.034.47-.089.712-.123.235-.043.457-.106.7-.141.231-.068.452-.123.695-.158.217-.068.457-.141.695-.209.24-.086.457-.115.7-.175.235-.068.474-.132.7-.2.235-.086.457-.149.712-.217.217-.068.457-.166.7-.235.231-.098.452-.166.695-.235.235-.098.457-.2.7-.264.235-.098.452-.183.691-.281s.478-.2.712-.315c.243-.098.465-.2.695-.298.243-.098.465-.226.7-.325.226-.106.465-.235.695-.35.243-.132.482-.243.7-.35.243-.132.478-.264.695-.401.243-.098.465-.235.717-.367.226-.132.465-.281.695-.418.243-.132.465-.315.7-.418.243-.166.465-.35.695-.465.243-.158.465-.333.7-.49.24-.166.465-.367.695-.534.243-.166.465-.35.7-.534.243-.2.457-.384.7-.584.26-.217.478-.435.712-.623.243-.217.457-.418.695-.666.243-.252.457-.448.7-.734.243-.252.474-.499.712-.734.243-.281.457-.534.7-.802.243-.307.474-.567.717-.875.243-.333.452-.632.695-.969.243-.298.474-.632.7-.998.24-.367.47-.726.695-1.092a37.6 37.6 0 0 0 .695-1.199c.243-.448.474-.926.7-1.365.243-.474.474-1.024.7-1.523.256-.601.47-1.144.695-1.775.26-.7.49-1.399.7-2.125.273-.918.503-1.817.695-2.791.325-1.531.56-3.111.717-4.711.098-1.267.15-2.56.15-3.909v-83.955h62.254v83.976c0 2.449-.098 4.842-.337 7.215a68.517 68.517 0 0 1-.7 4.983c-.209 1.084-.426 2.202-.7 3.277-.205.883-.44 1.75-.695 2.59a53.739 53.739 0 0 1-.7 2.159c-.226.632-.44 1.233-.695 1.869a34.776 34.776 0 0 1-.712 1.659c-.226.534-.457 1.05-.7 1.523-.226.474-.457.96-.717 1.399-.222.435-.452.883-.695 1.301-.243.401-.457.802-.7 1.165-.243.358-.452.76-.695 1.127-.226.333-.452.7-.695 1.033-.243.358-.457.691-.7 1.024-.235.315-.457.632-.7.952-.235.298-.452.584-.695.866a12.92 12.92 0 0 1-.7.824c-.217.281-.452.567-.695.849-.217.264-.457.517-.7.768-.23.264-.452.482-.712.734-.217.235-.457.448-.695.691-.222.235-.443.448-.7.7-.217.235-.457.418-.7.632-.235.235-.457.418-.695.666-.235.192-.457.375-.687.576-.243.183-.465.35-.726.576a6.632 6.632 0 0 1-.69.542c-.227.217-.462.367-.7.534-.223.217-.462.367-.696.534-.243.166-.465.333-.695.49-.243.166-.465.333-.717.474a3.516 3.516 0 0 1-.695.443c-.243.183-.465.35-.7.465a6.663 6.663 0 0 1-.695.448c-.243.132-.465.281-.7.401-.243.149-.465.298-.7.392a4.422 4.422 0 0 1-.712.418 4.987 4.987 0 0 1-.695.384c-.226.115-.465.252-.7.367-.243.132-.465.264-.695.367a9.337 9.337 0 0 1-.717.35c-.226.115-.465.252-.7.367-.222.098-.452.2-.695.315-.226.123-.457.235-.695.367l-.7.333-.712.298c-.226.106-.457.209-.7.341-.243.086-.474.183-.717.281l-.695.298-.7.298c-.239.098-.452.166-.695.264a4.936 4.936 0 0 1-.695.281c-.226.098-.474.183-.7.281l-.717.264c-.239.068-.452.158-.695.226-.243.106-.457.175-.717.264l-.695.252-.695.235c-.243.086-.474.149-.7.217l-.7.235-.712.2c-.217.068-.457.166-.7.235l-.695.217c-.217.068-.457.098-.7.166-.235.068-.469.132-.712.217l-.7.158c-.235.077-.457.175-.695.209-.217.06-.457.123-.7.2l-.695.158a4.946 4.946 0 0 1-.7.166c-.23.077-.452.115-.712.183l-.7.132c-.235.068-.457.098-.695.183l-.7.132-.687.132a9.386 9.386 0 0 0-.7.166l-2.095.397c-.256.034-.46.098-.695.132-.243.034-.482.068-.717.115l-.695.098c-.226.068-.465.089-.695.132l-1.399.214-.712-.35c-.226.034-.443.086-.7.089l-.695.123-.7.06-.695.106-.729.123-1.395.179-.695.086-.7.068-.7.094-.7.068-.695.077-.7.068-.695.022-.717.068-.695.068-.717.026-.695.043-.7.034-1.413.103-.61.086-.695.051-.695.034-.7.022h-.695l-2.812.137h-.695l-.695.034h-.7l-.717.034h-.695l-.7.034h-9.758l-.695-.034h-2.112l-.695-.034h-.717l-.687-.034h-.7l-.695-.034h-.7l-2.808-.137-.618-.086-2.82-.137-.7-.051-.7-.034-.695-.043-.717-.06-.695-.034-.7-.068-.695-.026-.7-.068-.695-.043-.717-.068-.7-.017-.7-.086-.695-.043-.61-.115-.712-.068-.7-.06-.7-.055-.695-.068-.712-.068-.7-.106-1.395-.154-.7-.06-.695-.068-.717-.086-1.39-.197-.7-.068-.7-.098-.713-.068-.7-.098-1.395-.171-1.39-.197-.718-.068-.7-.098-.696-.132-.7-.086-.713-.098-1.395-.214-.7-.098-.696-.123-.717-.106-.696-.098-.717-.089-.696-.132-.7-.106-.696-.123-.7-.115-.7-.132-.713-.115-.696-.132-.717-.132-.7-.132-.696-.115-.7-.132-.687-.115-.717-.132-.696-.132-.7-.141-.696-.175-.713-.149-.7-.158-.7-.141-.696-.132-1.395-.298-.717-.158-.696-.149-.696-.166-.7-.149-.7-.2-.713-.166-2.095-.499c-.986-.281-1.498-.401-1.498-.401v152.525h107.742c.235 0 .474 0 .717-.034h.695c.222 0 .457-.034.7-.034l.7-.034.695-.051c.235-.017.457-.017.7-.034.231-.009.452-.034.695-.043l.691-.077c.24-.034.461-.034.695-.068.243-.034.465-.068.7-.098.243-.026.461-.026.712-.06.243-.034.465-.089.7-.115l.695-.068c.226-.034.465-.068.7-.115.24-.034.461-.089.695-.115.243-.051.465-.089.7-.123l.712-.123c.226-.034.465-.098.7-.132.243-.068.465-.098.695-.132.243-.034.465-.098.7-.166l.712-.166.7-.166c.243-.051.461-.115.7-.183.222-.034.452-.098.695-.166s.452-.115.695-.183c.243-.098.457-.132.717-.2l.695-.2.717-.2c.226-.068.457-.123.7-.226.24-.077.452-.149.695-.226.243-.098.457-.158.695-.226l.7-.281.695-.235c.243-.068.474-.166.717-.264.243-.068.457-.166.7-.264.24-.086.452-.149.712-.252.243-.098.457-.217.7-.315.226-.068.452-.2.695-.298l.695-.29.7-.325c.235-.089.457-.192.717-.307.217-.098.452-.235.695-.333.235-.132.457-.235.7-.333.231-.132.452-.235.695-.367.252-.115.47-.217.712-.35.235-.115.457-.252.7-.35l.7-.358c.217-.141.452-.264.695-.409.235-.132.457-.26.7-.341.231-.149.47-.281.695-.401.235-.132.457-.264.717-.418.214-.132.452-.281.695-.401.235-.132.474-.298.695-.435.24-.166.457-.29.7-.418.235-.175.457-.315.7-.465.235-.132.474-.29.717-.443.214-.141.452-.325.687-.465.24-.166.461-.333.695-.465.226-.166.465-.35.7-.499.243-.2.478-.367.7-.517.24-.183.461-.341.695-.525.243-.183.465-.358.712-.517.226-.183.465-.367.7-.567.243-.166.465-.367.695-.567.243-.2.465-.367.7-.567.243-.235.461-.392.695-.601.243-.209.465-.392.7-.623.243-.2.457-.401.7-.632.243-.2.452-.401.695-.666.243-.2.452-.401.695-.632.243-.26.457-.443.7-.7.243-.226.457-.457.695-.691.243-.264.474-.448.717-.7.243-.264.457-.499.7-.734.24-.264.452-.49.712-.76.243-.264.457-.542.695-.802.243-.264.457-.534.7-.802.243-.281.474-.567.695-.824.243-.298.457-.567.7-.866s.457-.567.7-.901c.24-.315.457-.593.695-.918.243-.298.457-.61.7-.926.243-.35.452-.666.695-.981.235-.367.474-.7.7-1.033.231-.367.47-.691.695-1.058.235-.35.474-.734.717-1.067.235-.358.452-.768.695-1.135.235-.341.474-.76.7-1.144.231-.418.47-.849.695-1.259.235-.426.457-.841.7-1.284.231-.435.47-.918.695-1.365.235-.465.457-.952.7-1.433.235-.49.47-1.007.695-1.51.235-.55.474-1.075.691-1.625.26-.601.482-1.152.721-1.775.235-.632.457-1.267.691-1.882.24-.691.478-1.391.695-2.091a64.02 64.02 0 0 0 .7-2.342c.26-.901.495-1.784.695-2.701a54.85 54.85 0 0 0 .7-3.234c.273-1.433.517-2.893.712-4.356.375-3.034.601-6.135.601-9.267V582.895h-1.63zm400.768 0H778.79a7.96 7.96 0 0 0-.696.034l-.699.013c-.23 0-.448 0-.699.017-.247 0-.478.03-.712.03-.217.022-.46.034-.696.055l-.717.034-.696.064a9.829 9.829 0 0 0-.699.069c-.23.022-.482.055-.712.077l-.699.069a8.947 8.947 0 0 0-.699.081c-.23.034-.46.051-.712.086-.235.042-.448.072-.696.106-.239.017-.448.069-.712.098l-.699.115c-.235.034-.465.068-.699.111-.235.047-.46.094-.699.132-.23.034-.46.081-.696.132l-.708.141-.696.149c-.235.051-.465.115-.696.162a5.893 5.893 0 0 0-.699.167c-.25.068-.495.115-.699.175l-.696.184a6.287 6.287 0 0 0-.73.192c-.235.068-.465.115-.699.196-.213.069-.465.141-.696.209-.239.069-.465.137-.699.201-.25.072-.465.141-.699.222l-.73.226c-.217.081-.465.149-.699.231-.23.081-.46.158-.696.256-.235.068-.448.175-.696.243-.25.085-.448.171-.699.251l-.699.273-.73.273c-.217.081-.435.179-.699.29-.23.081-.443.179-.696.286-.235.103-.448.197-.696.298-.239.111-.435.209-.699.307-.25.106-.448.222-.699.325-.25.103-.443.226-.699.346l-.69.337c-.257.115-.449.243-.7.354-.25.115-.448.243-.699.354-.247.119-.448.243-.73.358-.217.123-.435.26-.699.375-.23.115-.43.256-.699.375-.23.12-.443.269-.69.384-.24.145-.44.273-.7.423-.235.128-.435.264-.699.405-.247.137-.448.29-.696.427l-.699.44a9.272 9.272 0 0 1-.734.457l-.69.448-.7.474c-.235.149-.47.325-.699.49l-.696.499c-.239.171-.465.342-.699.508-.23.175-.465.341-.699.516l-.696.542-.696.55c-.235.183-.482.371-.699.555-.235.192-.46.375-.699.584-.235.209-.46.392-.696.597-.235.197-.465.406-.734.606-.23.205-.443.418-.696.619-.235.222-.465.426-.683.644-.25.217-.482.426-.712.653-.235.214-.46.44-.699.679-.23.217-.46.456-.712.7-.247.231-.46.474-.699.712-.247.248-.46.486-.696.726-.217.251-.465.495-.699.746-.25.252-.478.529-.699.781-.247.261-.478.507-.712.785s-.46.55-.696.837c-.235.286-.465.554-.699.832-.23.294-.465.584-.696.862-.235.307-.482.618-.699.926-.235.303-.46.615-.696.921-.235.325-.482.64-.699.965-.23.325-.46.665-.712 1.002-.217.341-.448.7-.699 1.037-.247.363-.482.717-.696 1.075-.25.371-.482.746-.699 1.118-.25.393-.478.781-.712 1.157l-.699 1.229c-.23.406-.46.827-.699 1.28-.23.44-.46.879-.69 1.336-.265.482-.47.943-.718 1.416-.25.495-.482.986-.699 1.506-.25.521-.443 1.071-.699 1.596a30.739 30.739 0 0 0-.696 1.72 53.582 53.582 0 0 0-.696 1.851 48.317 48.317 0 0 0-.699 2.043c-.25.729-.482 1.493-.712 2.24-.235.84-.47 1.702-.699 2.551a72.532 72.532 0 0 0-.717 3.046 73.417 73.417 0 0 0-1.494 14.763v75.144l108.923.179.696.034.435.034.965.047.696.06 1.395.102.696.081.7.068.698.09 1.43.166.695.103c.235.034.448.077.696.123l.7.115c.25.034.464.085.698.137.264.038.461.106.7.141l.69.133c.264.051.482.119.734.158.247.055.448.115.7.171l.695.188c.264.051.465.115.7.171.263.069.46.128.698.205.264.069.478.133.691.218.264.072.47.141.7.209.263.081.46.149.698.243.264.064.461.149.73.231.24.069.448.175.7.256.25.081.46.17.698.26.231.094.461.183.691.29.264.098.482.184.7.298.234.107.46.192.733.29.235.123.448.226.696.325.24.102.448.243.7.346.196.098.442.226.698.354.231.115.461.243.691.354.24.115.47.261.7.375.234.128.47.269.698.406.235.141.482.29.696.426.24.162.465.29.7.448.23.149.481.307.698.457.231.149.461.325.726.487.205.179.448.345.7.516.234.184.447.354.698.559.235.175.461.371.7.58.234.192.46.389.695.619.231.197.465.418.683.644.247.217.461.44.712.67.235.261.465.504.696.743.24.264.482.507.717.781.251.273.478.555.696.827.256.307.482.598.717.905.235.337.482.649.7.977.23.367.46.712.695 1.079.235.393.482.781.696 1.186.24.443.482.896.7 1.365.263.507.481 1.037.698 1.578.264.632.495 1.263.712 1.912.251.802.5 1.63.7 2.483a33.95 33.95 0 0 1 .711 4.216c.098 1.13.167 2.299.167 3.503 0 1.127-.068 2.253-.167 3.379-.145 1.413-.367 2.791-.712 4.13-.2.84-.423 1.668-.699 2.47-.217.644-.443 1.28-.712 1.911-.217.52-.435 1.071-.699 1.591-.217.478-.46.939-.699 1.395-.213.41-.46.819-.696 1.233-.235.371-.465.726-.696 1.105-.217.354-.465.7-.699 1.019-.235.325-.46.623-.717.935-.217.286-.443.581-.696.87-.235.269-.448.537-.717.798-.213.261-.46.517-.696.763-.235.243-.465.482-.712.721-.217.222-.452.444-.683.679-.235.209-.46.427-.696.631-.239.205-.465.405-.699.614-.23.184-.465.375-.699.559-.25.188-.46.358-.699.546-.247.167-.46.341-.726.504-.217.175-.47.328-.699.482-.235.149-.46.315-.699.457-.213.149-.46.286-.696.44-.23.137-.465.286-.699.418-.23.132-.46.269-.699.388a4.684 4.684 0 0 1-.69.345c-.236.132-.47.251-.7.367-.25.128-.46.231-.699.367-.247.115-.46.214-.696.345-.25.115-.443.218-.734.311-.217.102-.435.205-.699.298-.23.089-.43.205-.69.298-.24.069-.449.184-.7.269-.25.085-.448.162-.699.248-.247.085-.46.149-.73.251-.239.069-.435.149-.699.234-.23.069-.435.132-.699.218a6.832 6.832 0 0 1-.69.218c-.24.064-.44.128-.7.196-.235.072-.435.115-.699.184a7.739 7.739 0 0 0-.696.184c-.235.034-.452.102-.699.132l-.734.167c-.217.051-.43.098-.69.149l-.7.128c-.235.034-.435.089-.699.119l-.699.128-.623.102v.827l.657.047.7.055.698.064.696.069.696.072.734.098.696.064c.251.034.448.069.7.098l.698.137c.247.034.448.064.696.115l.7.111.695.132c.256.069.448.098.7.132.246.069.447.098.73.162.216.055.434.089.698.154.235.051.448.098.7.166.23.047.442.115.695.183s.443.128.696.162c.235.089.448.137.734.217l.696.2c.205.089.435.149.7.217.196.068.434.166.698.231.231.089.443.149.696.239.235.064.443.162.696.235.235.098.448.183.7.264.234.086.447.171.695.269.24.098.448.2.7.298.23.098.447.2.677.281.251.089.465.217.751.307.201.106.435.209.696.325.235.089.44.209.683.341.251.098.465.217.7.35.25.115.442.252.695.35.247.132.461.252.683.384.264.132.461.252.712.384.251.149.465.281.7.409.246.149.481.29.711.418.264.175.461.315.7.465.263.132.481.315.711.465.247.149.465.333.696.499.251.166.465.333.7.499.25.166.481.367.698.525.247.209.461.367.7.593.246.183.472.375.69.593.256.217.47.418.717.618.235.235.465.465.7.666.263.252.477.465.711.7.251.26.465.49.7.76.277.264.481.534.698.802.247.264.473.567.712.832.264.298.461.61.696.926.27.315.465.632.7.969.263.367.464.734.695 1.084.264.384.465.785.7 1.173.263.435.46.883.716 1.331.247.534.443 1.007.691 1.541.286.584.482 1.182.7 1.817.285.726.481 1.493.698 2.291.312 1.127.516 2.308.696 3.524.201 1.459.316 2.966.316 4.519 0 1.591-.115 3.158-.316 4.651-.179 1.267-.384 2.483-.696 3.656-.217.802-.414 1.6-.699 2.377-.217.632-.414 1.267-.699 1.882-.247.525-.414 1.041-.69 1.575-.218.482-.449.918-.718 1.374-.235.443-.435.841-.699 1.233-.23.35-.435.768-.696 1.118-.235.341-.43.666-.699 1.007-.235.333-.43.632-.696.969-.239.298-.435.601-.712.901-.217.264-.448.525-.699.793a7.937 7.937 0 0 1-.699.768c-.235.29-.448.482-.712.734-.235.264-.439.448-.699.7a8.465 8.465 0 0 1-.717.632c-.217.192-.443.409-.69.623-.24.2-.453.384-.7.567-.217.2-.448.367-.699.567-.235.183-.448.367-.699.534-.23.2-.448.35-.696.534-.23.158-.443.307-.712.448-.217.158-.435.341-.699.443-.23.166-.435.315-.712.435-.217.132-.448.298-.699.435-.235.115-.448.264-.712.401-.222.132-.439.264-.683.358-.25.123-.443.273-.696.367-.235.106-.448.26-.699.367-.247.115-.448.264-.683.367-.264.106-.46.226-.696.333-.264.098-.465.2-.75.298-.232.098-.449.2-.679.333-.25.098-.46.183-.699.281-.247.115-.46.217-.696.315-.25.086-.465.166-.699.252-.25.086-.46.183-.696.252-.25.098-.465.158-.696.252-.25.086-.47.158-.699.243l-.699.243c-.264.06-.46.123-.696.192-.264.068-.465.149-.734.2-.25.068-.443.132-.696.2s-.448.098-.696.166c-.25.068-.465.098-.699.183-.264.068-.465.115-.699.166l-.73.149c-.25.034-.443.132-.699.166a5.753 5.753 0 0 0-.696.132l-.699.098-.696.132c-.25.034-.448.06-.699.098-.25.034-.448.068-.699.098-.247.034-.46.068-.696.098l-.734.06c-.23.034-.443.068-.696.068a3.822 3.822 0 0 1-.696.077h-.699l-.699.068-1.39.068-.978.089c-.239.026-.448.026-.717.034-.235 0-.465 0-.699.026l-.696.009H708.18v147.541l107.158-.017h.7l1.39-.034c.264 0 .5 0 .734-.017.235 0 .461-.017.7-.034l.695-.034c.264-.009.465-.034.696-.051a8.29 8.29 0 0 0 .7-.068 3.96 3.96 0 0 0 .695-.077c.27 0 .465-.043.7-.043.263-.034.464-.068.698-.098.264 0 .461-.034.73-.068.235-.026.465-.06.7-.06l.695-.141.696-.098.7-.089c.25-.034.464-.068.698-.132.264-.043.461-.077.7-.132l.69-.132.734-.149c.247-.051.448-.098.7-.149.263-.051.46-.098.695-.166l.7-.166.698-.183.691-.183a4.17 4.17 0 0 0 .7-.2c.263-.068.46-.132.698-.2.264-.068.461-.098.73-.2l.7-.2c.25-.068.46-.132.698-.192l.691-.252c.264-.086.47-.149.7-.235.234-.089.46-.183.733-.252.247-.106.448-.166.696-.264l.7-.252c.196-.086.442-.183.698-.281.231-.086.461-.183.691-.281.24-.086.47-.183.7-.315.234-.068.47-.166.698-.26.235-.123.461-.226.696-.333.24-.106.465-.209.7-.325l.698-.307.726-.367c.205-.098.448-.217.7-.315.234-.115.447-.252.698-.35.235-.149.461-.252.7-.367.234-.132.447-.264.695-.367a5.72 5.72 0 0 1 .683-.35c.247-.149.461-.273.712-.341.235-.149.465-.29.696-.409.24-.123.482-.26.717-.401l.696-.392c.256-.132.482-.298.717-.418s.465-.281.7-.418c.23-.149.46-.315.695-.435.235-.158.465-.298.696-.457.24-.149.465-.298.7-.465.234-.132.464-.315.698-.465.235-.166.461-.333.712-.482.217-.166.461-.35.7-.482.246-.183.481-.367.711-.517.235-.183.465-.367.696-.55.24-.158.47-.367.7-.525.234-.2.481-.367.711-.567.256-.2.47-.367.7-.567.216-.2.447-.384.698-.584.247-.217.482-.384.696-.601.251-.217.482-.375.7-.623.25-.2.442-.384.711-.632.235-.217.465-.418.7-.649s.46-.435.698-.666c.231-.243.461-.457.696-.666.231-.26.465-.49.696-.726.235-.252.465-.465.7-.7.234-.264.46-.499.716-.726.217-.298.443-.542.691-.768.256-.298.482-.534.7-.832.25-.264.481-.534.698-.815.251-.281.482-.567.712-.824.235-.325.465-.584.7-.883s.46-.584.695-.901c.217-.315.465-.632.7-.935.23-.333.464-.632.711-.96.251-.35.448-.666.7-1.015.234-.35.447-.666.698-1.015.231-.367.448-.709.696-1.075.235-.35.478-.734.7-1.084.23-.392.477-.76.695-1.156.235-.401.448-.802.696-1.199.24-.401.448-.832.7-1.267.234-.409.481-.858.711-1.293.235-.465.47-.969.7-1.408.234-.482.46-.981.698-1.485.247-.517.461-1.033.696-1.566.235-.559.465-1.11.712-1.69.24-.601.448-1.19.683-1.792.251-.666.5-1.301.696-1.967.251-.709.504-1.459.7-2.223a40.73 40.73 0 0 0 .698-2.457c.264-.969.495-1.925.7-2.91.277-1.182.494-2.406.73-3.627.293-1.809.528-3.648.695-5.5.183-2.125.282-4.258.282-6.409V582.826h-1.51v.077z"/></svg>