<svg viewBox="0 0 1195 1195" xmlns="http://www.w3.org/2000/svg"><path d="M337.16 748.898c-3.37-17.024-14.613-27.862-30.063-34.565-13.013-5.615-26.705-7.095-40.806-6.524-15.684.657-30.605 4.135-44.15 12.062-24.739 14.481-38.636 35.503-37.488 64.982.734 18.398 9.288 32.055 25.323 40.952 13.031 7.19 27.27 9.241 42.044 9.984 7.778-.998 15.722-1.51 23.407-3.166 19.853-4.25 36.906-13.577 49.208-30.139 11.85-15.975 16.393-33.993 12.527-53.585zm-76.889 65.135c-11.87 2.338-22.954.482-31.82-8.615-6.888-7.13-8.918-16.005-8.206-25.528.917-11.755 4.514-22.673 11.533-32.251 9.681-13.197 22.442-20.856 34.855-21.218 21.201 0 32.866 9.011 35.375 25.497 3.776 24.982-9.873 55.868-41.737 62.114zm578.585-61.628c-4.642 23.185-10.317 46.166-15.565 69.24-.6 2.654-1.144 5.334-1.942 7.928-.25.772-1.31 1.826-1.976 1.826-10.568.086-21.115.03-31.676 0-.25 0-.482-.286-1.083-.572.918-4.31 1.758-8.7 2.71-13.073 4.591-21.206 9.374-42.355 13.71-63.603.806-3.942.725-8.29-.018-12.233-1.357-7.121-8.324-12.117-16.14-12.719-11.453-.827-21.842 2.91-31.37 8.529-8.124 4.731-15.599 10.445-23.3 15.944-1.25.922-2.184 2.786-2.568 4.391a8753.485 8753.485 0 0 0-15.198 69.897c-.567 2.757-1.707 3.648-4.5 3.623-9.042-.183-18.083-.086-27.124-.086-1.067 0-2.15-.188-3.734-.298 1.2-5.777 2.291-11.166 3.434-16.584 6.917-32.49 13.76-64.99 20.711-97.502 1.408-6.643.124-5.768 7.023-5.82 8.683-.025 17.35.064 26.01 0 2.3-.025 3.251.371 2.59 3.021-1.425 5.82-2.415 11.755-3.759 18.193 3.217-2.244 5.858-4.219 8.64-6.072 11.84-8.192 24.726-14.033 39.032-16.055 13.034-1.826 25.95-1.625 38.042 4.587 14.481 7.462 21.12 22.149 18.053 37.44zm170.953-.597c-2.125-16.281-11.542-27.682-25.668-35.277-13.159-7.099-27.35-9.331-42.218-8.76-12.006.448-23.557 2.565-34.649 6.993-17.89 7.185-32.61 18.363-40.952 36.168-8.96 19.141-8.9 38.353 3.131 56.371 8.043 12.032 20.006 18.875 33.566 23.155 14.9 4.676 30.216 5.303 45.77 4.079 14.348-1.113 28.116-4.536 41.522-9.813 4.501-1.767 7.266-4.104 7.851-9.238.601-5.192 2.125-10.265 3.443-16.201-1.88.802-2.885 1.258-3.934 1.63-9.417 3.563-18.649 7.599-28.266 10.551-15.04 4.647-30.45 5.875-45.85 1.596-18.79-5.218-31.326-18.483-27.716-39.813.482-2.718 1.327-3.942 4.442-3.942 34.885.149 69.726.119 104.631.119.742 0 1.566.231 2.193-.069.9-.423 2.168-1.161 2.202-1.856.41-5.201 1.186-10.526.504-15.697zm-37.202 1.31H902.37c8.017-15.083 19.426-24.089 36.25-25.664 6.985-.666 13.683-.295 20.335 1.796 9.514 3.017 15.343 9.519 17.25 19.384.746 3.913.303 4.485-3.597 4.485zm-327.79-33.156c-18.986-12.595-40.303-14.089-62.075-11.063-8.938 1.255-17.779 2.538-26.863 2.483-43.059-.179-86.114-.055-129.203-.055-8.598 0-17.067 1.105-25.3 3.498-13.189 3.887-25.145 9.988-33.52 21.243-8.69 11.721-11.478 24.465-4.313 38.021 3.7 6.998 9.903 11.49 16.81 15.023 3.021 1.531 6.23 2.825 9.25 4.165-4.847 1.541-9.724 2.885-14.45 4.621-5.433 1.937-10.56 4.583-14.63 8.815-5.599 5.815-5.599 13.487.447 18.68 3.08 2.649 6.814 4.676 10.573 6.327 4.805 2.082 9.911 3.478 14.267 4.933-6.822 1.37-14.28 2.624-21.637 4.361-7.616 1.771-15.07 4.109-21.538 8.785-4.6 3.337-7.173 7.611-6.422 13.546.534 4.39 2.833 7.731 5.896 10.637 5.474 5.303 12.19 8.469 19.286 10.863 19.418 6.464 39.437 8.141 59.793 7.458 9.724-.341 19.298-1.382 28.745-3.592 11.09-2.582 21.658-6.404 30.4-14.106 11.158-9.75 10.39-24.952-.115-33.762-6.366-5.274-13.824-8.294-21.594-10.692-15.94-4.906-32.546-6.618-48.858-9.724a102.922 102.922 0 0 1-16.99-4.822c-3.899-1.51-3.976-5.073-.443-7.36 2.176-1.395 4.693-2.68 7.215-3.08 10.91-1.877 21.83-3.652 32.793-5.09 11.05-1.455 21.888-3.524 32.06-8.239 9.241-4.181 17.46-9.809 22.963-18.555 7.731-12.232 8.998-28.241-2.202-40.154-.892-.934-1.702-1.881-2.748-3.021h52.514c-2.509 2.748-4.898 5.167-7.045 7.731-13.026 15.765-18.248 33.894-14.985 53.999 2.966 18.09 13.93 30.268 30.7 36.869 21.785 8.601 44.13 8.601 66.444 2.223 31.595-9.096 57.605-35.576 55.803-73.839-.798-15.97-7.898-28.433-21.03-37.125zM414.818 843.861c3.815-.542 7.987.913 11.87 1.937 6.267 1.656 12.454 3.563 18.586 5.645 2.338.853 4.553 2.283 6.558 3.793 4.058 3.085 4.237 6.989.598 10.582-3.899 3.934-8.926 5.7-14.123 6.584-7.108 1.229-14.323 1.882-19.328 2.513-14.293-.87-26.496-.743-38.153-4.68-2.983-1.024-5.939-2.479-8.499-4.305-3.913-2.825-4.07-6.959-.06-9.553 4.122-2.68 8.661-5.146 13.376-6.4 9.6-2.582 19.366-4.659 29.175-6.114zm39.761-75.371c-5.738 7.21-13.453 10.987-22.425 12.357-2.41.333-4.847.512-6.587.683-9.724-.423-18.236-2.159-25.272-8.345-8.055-7.065-9.59-17.916-3.486-26.722 6.438-9.297 15.72-13.973 26.748-15.492 7.834-1.105 15.343.03 22.498 3.358 7.983 3.708 13.21 9.724 13.794 18.761.375 5.738-1.74 10.923-5.269 15.403zm158.745 32.337c-9.336 9.297-20.906 13.777-30.456 13.978-19.464.026-31.543-9.382-34.449-24.444-1.967-10.056-.055-19.865 3.707-29.231 6.442-16.247 17.395-28.058 34.59-33.143 7.441-2.159 15.001-2.389 22.503-.111 11.793 3.537 18.65 11.84 20.305 23.667 2.59 18.893-2.594 35.657-16.2 49.285z"/></svg>