<svg viewBox="0 0 1195 1195" xmlns="http://www.w3.org/2000/svg"><path d="M851.541 717.602c-22.635 0-40.516 5.999-54.19 8.734l-4.217 34.381c6.848-3.272 28.408-9.271 46.311-9.822 17.881-.55 28.4 3.273 24.726 18.556-53.14 0-88.926 10.914-96.29 45.299-10.526 58.94 54.208 57.305 79.983 31.654l-3.166 14.191h47.36l20.527-93.871c8.397-39.851-27.909-49.664-61.043-49.122zm3.15 96.052c-2.634 12.553-12.617 18.014-24.727 18.573-10.518.534-20.002-8.755-13.159-19.652 5.274-9.284 20.002-11.469 28.941-11.469h11.576c-1.049 4.361-1.59 8.192-2.633 12.548zm98.384-133.176l-39.168 180.118h48.094l39.66-180.118h-48.586zm-220.992.555h-88.059l-39.023 179.563h51.15l13.183-59.49h36.39c35.848 0 65.383-21.828 73.302-58.94 8.96-42.031-21.624-61.133-46.942-61.133zm-1.566 61.128c-3.166 13.641-16.883 24.563-30.076 24.563h-23.727l10.552-49.122h25.318c13.184 0 21.09 10.918 17.933 24.559zm-340.16-24.559c-22.349 0-40.026 5.999-53.017 8.734l-4.155 34.381c6.233-3.272 27.554-9.271 45.218-9.822 17.677-.55 28.07 3.273 24.947 18.556-52.493 0-87.834 10.914-95.113 45.299-10.398 58.94 53.53 57.305 78.477 31.654l-3.11 14.191h47.29l20.267-93.871c8.32-39.851-28.062-49.664-60.805-49.122zm3.635 96.052c-2.594 12.553-12.997 18.014-24.947 18.573-10.398.534-19.23-8.755-12.476-19.652 5.192-9.284 19.746-11.469 28.066-11.469h11.951c-1.033 4.361-2.07 8.192-2.594 12.548zm77.778-93.475h47.296l7.625 83.631 46.281-83.631h48.807L509.4 920.316h-52.88l34.576-58.837-19.324-141.299zm-199.045-39.146h-88.29L145.31 860.596h51.82l12.688-59.49h37c35.422 0 65.032-21.828 72.96-58.94 8.986-42.031-21.145-61.133-47.053-61.133zm-1.587 61.128c-3.17 13.641-16.384 24.563-29.602 24.563h-24.32l11.102-49.122h25.378c12.685 0 21.145 10.918 17.442 24.559zm740.911-38.404v-21.231h-7.923v-2.846h19.085v2.846h-7.957v21.231h-3.205zm14.318 0V679.68h4.774l5.71 17.041c.524 1.583.917 2.769 1.151 3.563.273-.879.708-2.168 1.293-3.857l5.777-16.747h4.293v24.077h-3.067v-20.16l-7.023 20.16h-2.867l-6.967-20.488v20.488h-3.072z"/></svg>