<svg viewBox="0 0 1195 1195" xmlns="http://www.w3.org/2000/svg"><path d="M238.43 787.017c.114-7.407 1.766-13.039 4.965-16.887 1.673-1.6 3.776-2.952 6.32-4.066 2.657-1.186 5.217-1.766 7.713-1.766h30.221c13.321.119 20.101 7.407 20.314 21.888v44.561c-.089 5.15-2.107 9.617-6.007 13.342-3.853 3.917-8.452 5.918-13.81 6.033h-28.588v32.132H238.43v-95.237zm48.375 4.21c-.098-3.367-1.677-5.103-4.766-5.214h-16.47c-3.904.234-5.9 2.368-6.012 6.392v29.602c.111 4.16 2.334 6.267 6.656 6.4h15.083c1.575 0 2.888-.593 3.921-1.784 1.08-.883 1.591-2.035 1.591-3.461v-31.936zm86.763-.515c.098-3.256-1.788-4.804-5.696-4.697H325.3v-21.721h47.927c13.961.231 21.051 6.981 21.291 20.288v45.423c-.115 5.752-1.869 10.491-5.278 14.25-3.579 3.899-8.179 5.858-13.829 5.858h-28.962c-14.114-.115-21.256-6.558-21.47-19.349v-17.531c.102-13.376 6.942-20.165 20.467-20.403h28.122v-2.117zm-27.452 33.394c0 1.233.572 2.21 1.694 2.949.986.883 2.24 1.349 3.836 1.349h16.24c3.664 0 5.571-1.433 5.682-4.301v-6.075c0-3.307-1.945-4.975-5.84-4.975h-16.082c-2.125 0-3.589.35-4.403 1.015-.734.793-1.127 2.334-1.127 4.634v5.406zm107.776 36.421c1.681-.086 3.12-.691 4.296-1.775 1.14-.998 1.702-2.159 1.702-3.473v-5.159h-27.055c-3.537 0-6.366-.448-8.469-1.339-2.214-.815-4.429-2.342-6.656-4.493-2.116-2.291-3.639-4.693-4.553-7.185-.973-2.283-1.464-5.192-1.464-8.691v-64.12h21.142v57.233c0 4.591 1.87 6.882 5.666 6.882h14.925c1.771 0 3.307-.593 4.6-1.784 1.25-.99 1.868-2.185 1.868-3.601v-58.731h20.958v94.575c-.11 7.002-1.907 12.599-5.368 16.849-3.515 4.258-8.325 6.425-14.45 6.533h-49.337v-21.726h42.193zm43.554-32.119h37.675c3.447-.132 5.235-1.514 5.337-4.151v-1.95c0-.576-.162-1.199-.503-1.873-.837-1.634-1.865-2.449-3.089-2.449h-18.683c-5.543-.106-10.262-2.026-14.247-5.7-4.015-3.409-6.072-7.582-6.195-12.514v-16.188c.222-12.63 7.082-19.059 20.6-19.29h43.681v21.722h-37c-4.344 0-6.54 1.327-6.54 3.981v2.107c0 2.761 2.24 4.135 6.702 4.135h18.611c4.962.111 9.19 2.014 12.714 5.717 3.558 3.729 5.397 8.171 5.512 13.32v15.842c-.11 4.45-2.168 8.883-6.135 13.317-1.92 2.168-3.909 3.665-5.87 4.51-2.044.785-4.826 1.173-8.372 1.173h-44.199v-21.709zm128.218-37.696c.086-3.256-1.797-4.804-5.705-4.697H577.4v-21.721h47.923c13.961.231 21.052 6.981 21.261 20.288v45.423c-.115 5.752-1.873 10.491-5.265 14.25-3.554 3.899-8.158 5.858-13.81 5.858h-28.993c-14.084-.115-21.257-6.558-21.44-19.349v-17.531c.09-13.376 6.925-20.165 20.472-20.403h28.117v-2.117zm-27.469 33.394c0 1.233.576 2.21 1.711 2.949.99.883 2.236 1.349 3.814 1.349h16.27c3.66 0 5.558-1.433 5.67-4.301v-6.075c0-3.307-1.968-4.975-5.855-4.975h-16.09c-2.107 0-3.567.35-4.378 1.015-.75.793-1.148 2.334-1.148 4.634v5.406zm65.575-72.119c.136-5.862 2.295-10.577 6.528-14.101 4.113-3.588 9.502-5.427 16.175-5.529h13.423v20.979h-8.128c-4.463.103-6.75 2.24-6.843 6.362v4.612h14.976v21.735h-14.976v64.089h-21.15v-98.146zm70.08 69.005v1.349c0 1.75.442 3.115 1.36 4.126.662 1.284 1.553 1.942 2.752 1.942h43.431v21.709h-46.178c-4.207 0-7.496-.392-9.817-1.182a17.795 17.795 0 0 1-6.8-4.091c-2.318-2.291-3.905-4.642-4.694-7.048-.875-2.5-1.31-5.841-1.31-9.993l-.188-43.46c.247-13.133 7.104-19.819 20.578-20.049h28.501c13.163.231 19.823 7.151 20.045 20.779v17.178l-47.68 18.743zm26.166-30.694v-.504c0-1.118-.457-2.065-1.365-2.778-.99-.683-2.184-1.002-3.635-1.002H740.31c-1.899 0-3.418.52-4.59 1.608-1.464.999-2.21 2.313-2.21 3.946v8.713l26.508-9.984zm66.25 59.818c-3.196 0-6.119-.281-8.76-.832-2.782-.457-5.559-1.733-8.393-3.909-2.902-2.526-4.889-5.351-5.99-8.49-1.165-3.077-1.723-6.55-1.723-10.483v-40.525c-.124-3.306.205-6.213.981-8.726.708-2.522 2.206-4.97 4.458-7.377 2.577-2.535 5.201-4.215 7.966-5.039 2.675-.679 5.674-1.007 9.045-1.007h32.401v5.073h-31.659c-5.572 0-9.976 1.148-13.188 3.456-3.28 2.505-4.945 6.831-4.945 12.915v40.546c0 2.858.423 5.623 1.288 8.315.896 2.624 2.381 4.941 4.497 6.959 2.3 1.741 4.595 2.841 6.835 3.286 2.33.507 4.838.76 7.484.76h30.203v5.073h-30.503zm118.356-23.373c0 3.269-.26 6.127-.674 8.649-.683 2.743-2.09 5.385-4.216 7.894-4.438 4.676-9.942 6.967-16.499 6.835h-25.259c-6.562 0-11.879-1.959-16-5.858-4.21-3.857-6.327-9.216-6.327-16.089v-13.06c.205-14.75 7.552-22.285 22.011-22.639h42.073v-5.718c0-4.706-1.365-8.84-4.074-12.391-1.732-2.304-3.763-3.84-6.08-4.633-2.35-.606-4.966-.922-7.898-.922h-45.896v-5.077h43.515c3.963 0 7.565.273 10.83.837 1.672.333 3.195.977 4.6 1.925 1.488.9 2.874 2.21 4.163 3.925 3.91 5.035 5.803 10.841 5.73 17.382v38.942zm-5.043-29.209H897.1c-5.09.119-9.075 1.698-11.938 4.723-2.97 3.077-4.442 7.3-4.442 12.659v12.923c0 2.5.27 4.8.798 6.865.542 2.176 1.873 4.118 3.985 5.79 3.657 3.034 7.731 4.539 12.155 4.539h25.745c10.756-.115 16.18-5.79 16.18-17.033v-30.469zm52.532-28.728c-11.776.231-17.578 6.648-17.374 19.298v62.011h-5.039v-61.977c-.247-16.273 7.501-24.401 23.232-24.401h5.624v5.073h-6.442zm90.615 57.31c-.448 16.35-9.11 24.375-25.98 24.043h-18.765c-3.963 0-7.518-.35-10.64-.998-3.222-.841-6.312-2.808-9.28-5.875-2.232-2.757-3.67-5.534-4.255-8.401-.773-2.85-1.11-5.999-.994-9.476V788.52c.226-16.623 8.593-24.887 25.135-24.764h39.727v-28.002h5.061v90.363zm-5.06-57.276h-40.034c-2.88 0-5.462.315-7.795.939-2.44.546-4.8 2.026-6.993 4.438-2.125 2.193-3.443 4.361-4.002 6.532-.742 2.202-1.075 4.83-.952 7.902v39.535c0 6.575 1.894 11.042 5.76 13.457 1.907 1.101 3.99 1.933 6.341 2.491 2.334.632 4.933.935 7.813.935h17.494c6.541 0 11.895-1.51 16.005-4.539 4.13-2.841 6.23-7.757 6.366-14.759v-56.93zm-956.642-7.803c1.647-.734 3.315-1.314 4.971-1.673 3.055-14.558 15.962-25.494 31.428-25.494 15.48 0 28.377 10.944 31.437 25.51 4.75.901 8.67 2.829 11.737 5.679.111-2.795 0-5.495-.325-8.022-1.963-22.012-20.416-39.291-42.914-39.291-23.172 0-42.023 18.373-43.004 41.322a64.311 64.311 0 0 0-.107 6.213c1.942-1.651 4.16-3.123 6.775-4.245zm61.546 3.256h-51.627c-2.487 0-5.065.58-7.71 1.766-2.556 1.114-4.659 2.466-6.336 4.066-3.204 3.849-4.843 9.485-4.958 16.887v40.358c.111 7.433 1.753 13.06 4.958 16.883 1.677 1.642 3.785 2.974 6.336 4.109 2.645 1.165 5.227 1.75 7.71 1.75h51.627c13.325-.115 20.11-7.433 20.322-21.901v-42.035c-.213-14.472-6.998-21.765-20.322-21.883z"/></svg>