<svg viewBox="0 0 1195 1195" xmlns="http://www.w3.org/2000/svg"><path d="M849.877 932.779c0-15.642-7.373-28.015-23.914-28.015-14.669 0-25.497 10.714-25.497 28.348 0 19.298 11.584 27.913 27.832 27.913 8.452 0 15.641-2.338 21.47-6.075l-1.659-11.678c-5.977 3.43-11.768 5.602-17.745 5.602-7.254 0-12.369-3.307-13.256-11.767h32.478c.18-.866.294-2.68.294-4.327zm-32.87-4.817c.566-8.286 3.87-12.382 8.494-12.382 5.082 0 7.936 4.224 8.457 12.382h-16.952zm-35.38 2.521l17.681 27.784-17.34 2.449-15.684-25.945v25.156h-16.58v-76.979l16.58-2.671v47.727l14.438-22.127h17.942l-17.037 24.606zm16.807-287.458l57.122-10.227v219.281h-57.122V643.025zM939 852.075h-57.157V643.029L939 632.802v219.272zm3.085 91.191c0 11.358-7.859 17.562-22.187 17.562-8.61 0-16.662-2.44-22.306-5.418l2.023-12.694c6.387 3.993 14.23 6.413 20.433 6.413 4.608 0 6.822-1.536 6.822-4.075 0-2.76-1.536-3.976-9.19-5.841-13.535-3.541-19.29-7.151-19.29-17.305 0-10.039 7.48-16.772 20.702-16.772 7.301 0 14.361 1.45 19.968 3.998l-2.053 12.663c-5.875-3.2-12.59-5.077-17.8-5.077-3.929 0-5.717 1.43-5.717 3.554 0 2.202 1.544 3.413 9.157 5.512 14.353 3.789 19.44 7.458 19.44 17.481zm-279.21-91.191h-57.61v-90.24c0-47.117 26.808-70.797 79.603-72.507 0 0 9.51-.367 15.151.827v46.882c-33.463 1.156-37.145 13.248-37.145 41.429v73.609zm-165.56 0H438.34V644.446l58.97-11.648v114.543c22.138-26.778 31.282-52.642 32.554-55.842h67.426c-1.928 6.149-13.96 43.209-41.39 77.982 0 0 30.574 53.573 37.554 82.594h-70.618s-8.448-38.558-25.519-64.171l-.005 64.171zm393.587 52.723l2.786 16.977c-8.09.546-14.106 3.742-18.245 8.154v29.999h-16.649v-54.041h14.587l1.762 10.68c3.311-6.17 7.821-11.2 15.757-11.767zm-173.393-256.64c0-15.552 12.604-28.168 28.13-28.168 15.57 0 28.173 12.616 28.173 28.168 0 15.56-12.6 28.16-28.173 28.16-15.527 0-28.13-12.613-28.13-28.16zm56.704 203.917h-57.118v-160.38h57.118v160.38zm-59.409 52.723c-14.843 0-25.907 10.906-25.907 28.224 0 17.31 10.905 27.998 25.8 27.998 15.001 0 26.134-10.794 26.134-28.139-.009-17.293-11.02-28.083-26.027-28.083zm0 42.791c-6.285 0-9.813-5.978-9.813-14.664 0-8.837 3.422-14.438 9.813-14.438 6.387 0 9.962 5.824 9.962 14.558 0 8.726-3.576 14.545-9.962 14.545zm-204.869-14.81c0-15.642-7.368-28.015-23.906-28.015-14.678 0-25.493 10.714-25.493 28.348 0 19.298 11.592 27.913 27.781 27.913 8.49 0 15.675-2.338 21.512-6.075l-1.656-11.678c-5.952 3.43-11.81 5.602-17.758 5.602-7.296 0-12.335-3.307-13.243-11.767h32.457c.2-.866.307-2.68.307-4.327zm-32.865-4.817c.563-8.286 3.878-12.382 8.495-12.382 5.086 0 7.932 4.224 8.495 12.382h-16.99zm-53.095-144.223c0 35.166-28.216 70.686-91.192 70.686-29.179 0-54.072-2.885-76.177-8.691v-51.226c14.742 6.046 39.061 12.433 64.106 12.433 22.835 0 36.446-7.556 36.446-20.424 0-15.556-16.614-16.499-22.874-16.883-73.77-5.022-81.703-48.653-81.703-67.174 0-32.128 22.822-69.658 87.228-69.658 37.334 0 57.49 5.841 74.841 11.904l.91.264v49.728l-.64-.171c-6.982-2.957-15.19-5.846-15.19-5.846-14.67-4.42-35.23-9.092-51.098-9.092-9.032 0-33.096 0-33.096 18.15 0 15.057 16.696 16.137 23.915 16.623 52.962 3.55 84.523 29.491 84.523 69.376zm127.078 122.147h16.128l-19.217 55.134c-4.85 14.139-11.478 18.986-23.274 18.986-3.307 0-4.74-.363-6.28-.683l-2.096-13.32c1.767.538 3.426.875 6.664.875 3.712 0 7.023-1.43 8.798-5.184l.666-1.664-19.639-52.83 17.87-2.087 10.453 34.091 9.928-33.318zM369.1 904.798c-14.882 0-25.92 10.906-25.92 28.224 0 17.31 10.94 27.998 25.805 27.998 14.993 0 26.163-10.794 26.163-28.139 0-17.293-11.034-28.083-26.048-28.083zm0 42.791c-6.285 0-9.813-5.978-9.813-14.664 0-8.837 3.418-14.438 9.813-14.438 6.434 0 9.937 5.824 9.937 14.558 0 8.726-3.503 14.545-9.937 14.545zm-34.368-26.053v38.392h-16.768v-33.89c0-3.827-1.425-6.486-5.304-6.486-2.96 0-5.833 1.899-8.802 4.74v35.665H287.21v-33.899c0-3.853-1.425-6.486-5.29-6.486-3.086 0-5.872 1.882-8.838 4.731v35.648h-16.657v-54.067h14.673l1.233 7.39c4.851-4.962 9.814-8.482 16.773-8.482 7.37 0 11.47 3.635 13.418 8.482 4.847-4.851 10.142-8.482 16.883-8.482 10.026.005 15.326 6.285 15.326 16.743zm117.33 0v38.392h-16.773v-33.89c0-3.827-1.54-6.486-5.526-6.486-3.195 0-6.157 1.899-9.152 4.839v35.537h-16.644v-54.041h14.673l1.212 7.39c4.851-4.719 10.035-8.482 16.887-8.482 10.031.005 15.322 6.285 15.322 16.743zm152.801-16.738c-6.4 0-11.02 3.52-14.442 7.027v-31.548l-16.66 2.671v73.775c6.28 2.449 14.48 3.836 23.162 3.836 16.648 0 27.371-9.029 27.371-29.099 0-18.296-8.384-26.663-19.43-26.663zm-8.396 42.462c-2.522 0-3.836-.363-6.046-1.011v-21.406c2.757-3.085 5.637-5.192 9.182-5.192 4.727 0 8.047 3.857 8.047 12.937-.017 10.68-4.68 14.673-11.183 14.673zm60.241-42.462c-14.895 0-25.95 10.906-25.95 28.224 0 17.31 10.944 27.998 25.835 27.998 15.006 0 26.134-10.794 26.134-28.139 0-17.293-11.05-28.083-26.018-28.083zm0 42.791c-6.314 0-9.817-5.978-9.817-14.664 0-8.837 3.422-14.438 9.817-14.438 6.387 0 9.924 5.824 9.924 14.558 0 8.726-3.537 14.545-9.924 14.545z"/></svg>