<svg viewBox="0 0 1195 1195" xmlns="http://www.w3.org/2000/svg"><path d="M914.244 650.15c3.332 2.501 6.664 5.837 8.888 9.169 6.11 8.887 8.61 19.443 6.946 31.658h31.663l-47.774 131.657h47.774l47.774-131.656h61.098l14.725-40.827H914.245zm-2.223 16.947c-7.774-11.387-23.889-16.947-48.606-16.947h-57.77l-62.49 172.485h53.048l22.78-60.826c1.113 2.5 14.441 60.826 14.441 60.826h55.83s-10.279-42.774-17.779-59.993c-1.946-4.719-3.883-9.724-6.387-13.888 15.552-5.555 38.332-18.33 48.056-44.16 5.547-15.552 5.265-28.33-1.122-37.495zm-46.379 38.051c-4.723 13.883-14.165 22.221-31.385 22.221h-9.165l15.28-41.664h8.882c16.102 0 21.94 4.723 16.39 19.443zM378.74 649.873h-98.043c-15.556 0-30.835 0-44.165 6.942-13.333 6.942-25.275 20.553-34.718 48.329-1.945 5.832-3.055 10.833-3.055 15.279-.278 4.446.56 8.333 2.496 11.387 1.945 4.168 5.282 8.056 9.442 11.388 4.173 3.055 9.17 5.555 14.442 7.219.278 0 3.055.837 6.392 1.668 3.614 1.114 7.496 2.5 10.274 3.333 1.395.277 3.06.832 4.446 1.668 1.668 1.109 3.055 2.223 3.61 3.609.558 1.391.836 2.5.836 3.614.278 1.387 0 2.778-.554 4.165-1.109 3.614-3.337 6.387-6.942 7.501-3.614 1.668-8.614 2.223-16.947 2.223H124.877l-15.552 44.164H217.37c10.001 0 28.886 0 46.938-7.51 17.78-7.774 35.004-22.767 42.22-53.602 2.5-11.665 1.945-21.107-2.497-28.331-4.719-7.224-12.779-12.774-24.717-16.111 0 0-2.5-.832-5.56-1.387-3.055-1.113-6.669-2.223-8.61-2.777-3.05-.832-5.278-2.496-6.665-4.719-1.668-2.223-1.668-5-1.109-7.778.827-3.055 3.055-4.997 5.828-6.942 2.778-1.387 6.387-2.223 10.833-2.223h63.053c.55-.832.832-1.387 1.11-2.219 11.382-16.388 25.552-29.445 40.545-38.891zm96.652 16.389c-8.329-12.497-23.048-18.329-43.606-18.329-13.05 0-26.108 2.777-38.323 8.333-17.502 8.337-33.33 22.221-45.832 40.273-8.614 11.942-15.556 25.831-21.107 41.11-10.56 29.162-10.56 52.774.273 68.326 6.114 8.883 18.611 19.166 44.442 19.166h.281c47.22 0 82.21-30.831 104.712-92.216 5.555-16.111 13.33-46.387-.84-66.663zm-50.265 69.157c-14.72 40.555-25.276 50.556-41.387 50.556-15.829 0-21.107-10.001-6.387-49.997 10.833-30.276 24.998-49.442 41.942-49.442 16.39 0 20.275 9.447 5.832 48.883zm238.592-85.546h-100.27c-27.773 0-48.607 14.166-58.604 41.105l-47.5 131.383h52.218l24.162-67.495h46.387l13.051-36.109h-45.829l7.224-21.107c1.387-3.891 5.278-6.669 10.555-6.669h54.443c.554-.832.827-1.387 1.386-2.219 11.384-16.388 27.495-29.444 42.774-38.89zm96.094 16.389c-8.61-12.497-23.33-18.329-43.606-18.329-13.06 0-26.389 2.777-38.605 8.333-17.22 8.337-33.054 22.221-45.832 40.273-8.333 11.942-15.552 25.831-20.83 41.11-10.833 29.162-10.833 52.774 0 68.326 6.387 8.883 18.885 19.166 44.715 19.166 47.492 0 82.491-30.831 104.712-92.216 5.837-16.111 13.611-46.387-.554-66.663zm-50.27 69.157c-14.72 40.555-25.28 50.556-41.383 50.556-15.83 0-21.11-10.001-6.664-49.997 11.111-30.276 25.275-49.442 42.218-49.442 16.384 0 19.994 9.447 5.828 48.883zm-527.727 183.04c-1.945 5.278-4.442 9.719-7.493 13.892-3.055 4.164-6.39 7.774-10.56 10.833-3.887 2.774-8.61 4.719-13.61 6.387-4.72 1.668-10.002 2.496-15.553 2.496-5.559 0-10.282-.827-13.883-2.223-3.895-1.387-6.669-3.324-8.614-6.11-1.942-2.774-2.773-6.11-2.773-10.27 0-4.168.555-8.887 2.773-14.166l18.885-52.224c0-.555.278-.827.56-1.11.272-.559.827-.837 1.663-1.11.837-.281 1.946-.281 2.778-.559 1.386 0 2.773-.273 4.446-.273 1.946 0 3.055.273 4.165.273 1.114.273 1.67.273 2.223.559.837.269 1.11.55 1.386 1.11v1.11l-18.329 50.551c-1.386 3.328-2.223 6.383-2.223 8.887 0 2.223.554 4.438 1.386 6.11 1.118 1.668 2.505 3.055 4.446 3.614 1.664.832 4.165 1.11 6.66 1.11 2.782 0 5.56-.273 7.778-1.11 2.505-.827 5-1.945 6.946-3.887 2.223-1.395 3.891-3.332 5.555-5.56 1.664-2.777 3.05-5.269 4.168-8.055l18.611-51.661c0-.555.278-.827.832-1.11.278-.559 1.114-.837 1.668-1.11.832-.281 1.664-.281 2.778-.559 1.386 0 2.501-.273 4.446-.273 1.386 0 3.055.273 4.168.273.837.273 1.664.273 2.223.559.55.269.828.55 1.11 1.11.272.277.272.555 0 1.11l-18.616 51.384zm-15.552-69.712c-1.114 3.332-2.223 5.278-4.173 6.664-1.386 1.11-4.165 1.673-7.496 1.673-3.332 0-5.273-.563-6.11-1.673-.832-1.387-.559-3.332.554-6.387.832-3.055 2.496-5.278 4.17-6.392 1.667-1.382 4.167-1.945 7.495-1.945 3.332 0 5.56.563 6.11 1.673.837 1.387.837 3.328-.55 6.387zm28.886 0c-1.114 3.332-2.5 5.278-4.446 6.664-1.386 1.11-3.887 1.673-7.496 1.673-3.337 0-5.282-.563-6.11-1.673-.832-1.387-.559-3.332.555-6.387 1.391-3.055 2.501-5.278 4.165-6.392 1.668-1.382 4.168-1.945 7.782-1.945 3.332 0 5.273.563 6.106 1.673.832 1.387.56 3.328-.555 6.387zm70.545 75.827c-1.105 3.324-2.496 5.832-4.44 8.325-1.388 2.509-3.61 4.723-5.556 6.669-2.5 1.668-4.719 3.328-6.946 4.719-2.774 1.387-5.55 2.496-8.05 3.614-2.779.55-5.838 1.387-8.61 1.668-3.056.555-6.11.827-9.443.827h-22.775c-1.668 0-2.496-.559-3.055-1.387-.828-1.11-.828-2.223 0-4.168l26.944-74.718c.56-1.937 1.664-3.328 3.055-4.164a6.787 6.787 0 0 1 4.165-1.391h21.39c5 0 9.164.555 12.5 1.391 3.333.832 6.11 2.223 7.774 3.887 1.946 1.945 2.778 4.168 3.337 6.946.278 2.774-.28 6.114-1.39 9.719-.838 1.945-1.947 3.882-3.05 5.555-1.114 1.942-2.783 3.887-4.174 5.274-1.668 1.391-3.055 2.5-5 3.887-1.94 1.113-4.168 2.223-6.114 2.782 2.227.269 4.173 1.105 5.841 2.219 1.66 1.391 2.774 2.505 3.606 4.446 1.118 1.668 1.668 3.61 1.668 5.837-.005 2.505-.554 5.282-1.673 8.064zm-18.33.551c.832-1.945 1.11-3.606 1.11-5.274 0-1.391-.555-3.055-1.669-3.891-.827-1.11-1.94-1.945-3.887-2.496-1.664-.559-4.165-.832-7.496-.832h-10l-9.162 24.162h12.774c2.223 0 4.446-.277 6.114-.555 2.22-.281 3.614-1.113 5.274-2.223 1.668-1.113 3.055-2.223 4.173-3.606 1.105-1.673 2.21-3.341 2.77-5.286zm9.17-36.66c.277-1.668.558-3.332.558-4.45 0-1.387-.28-2.777-.84-3.61-.827-.555-1.94-1.387-3.333-1.945-1.387-.555-3.328-.832-6.387-.832H238.2l-8.333 22.221h9.72c2.496 0 4.72 0 6.11-.827 1.946-.559 3.61-1.387 4.72-2.505 1.386-.827 2.773-2.223 3.613-3.61 1.113-1.11 1.946-2.774 2.505-4.442zm72.767 54.989c-.554 1.118-.832 2.223-1.387 3.332-.554.837-.832 1.395-1.113 1.945-.273.559-.827.837-1.387 1.11-.28.281-.827.559-1.109.559h-42.778c-1.387 0-2.496-.559-3.05-1.387-.832-1.11-.832-2.223 0-4.168l26.94-74.718c.56-1.937 1.668-3.328 3.055-4.164 1.11-.837 2.774-1.391 3.887-1.391h42.773c.277 0 .56 0 .837.281.277.269.55.827.55 1.387 0 .555-.273 1.387-.273 1.945-.277.832-.555 1.937-1.113 3.324-.55 1.118-1.11 2.223-1.387 3.337a15.724 15.724 0 0 0-1.11 1.945c-.559.555-.832.827-1.387 1.11-.28.277-.837.277-1.113.277h-30.549l-7.5 21.107h25.83c.278 0 .56 0 .832.277.273.273.273.55.273 1.113.281.55 0 1.11 0 2.219a41.918 41.918 0 0 1-1.105 3.059c-.28 1.391-.832 2.223-1.109 3.05-.559.837-.837 1.673-1.387 2.223-.559.559-.84.827-1.109.827-.278.281-.837.281-1.118.281h-25.826l-8.892 24.162h30.835c.273 0 .832.277 1.11.559 0 .273.277.555.277 1.113 0 .555 0 1.387-.278 1.942-.286.845-.563 2.236-1.118 3.341zm82.491 4.45c0 .55-.277.827-.555 1.387-.277.277-.832.55-1.668.832-.827.273-1.659.273-3.055.55h-9.447c-1.105-.273-2.219-.273-2.774-.55-.55-.281-.827-.555-.827-1.113v-1.11l-.84-19.443c-.274-1.945-.274-3.896-.55-5.56-.278-1.668-.838-3.055-1.665-4.168-.555-1.113-1.387-2.219-2.782-2.777a17.376 17.376 0 0 0-4.442-.555h-5.274l-11.947 32.499c-.273.277-.55.827-.827 1.11-.559.277-1.11.827-1.668.827-.832.281-1.664.559-3.055.559-.832.273-2.5.273-3.89.273-1.943 0-3.333 0-4.165-.273-1.11 0-2.223-.273-2.777-.559-.555 0-.832-.55-.832-.827-.28-.277-.28-.827 0-1.11l28.05-77.777c.84-1.937 1.944-3.328 3.054-4.164 1.391-.837 2.5-1.391 4.173-1.391h27.494c1.387.281 2.782.281 3.891.555 3.337.559 5.832 1.391 8.055 2.505 2.496 1.11 4.168 2.774 5.555 4.442 1.11 2.223 1.668 4.442 1.668 7.215 0 2.509-.555 5.282-1.668 8.618-1.113 3.055-2.5 5.832-3.887 8.055-1.668 2.5-3.332 4.446-5.555 6.387a49.859 49.859 0 0 1-6.942 5.005c-2.5 1.11-5.278 2.223-8.333 3.055 1.11.827 2.22 1.659 3.055 2.223.827.832 1.387 1.945 1.945 3.328.555 1.11.832 2.777 1.11 4.168.555 1.668.555 3.614.832 5.56l.832 16.943v3.614c-.013.832-.29 1.391-.29 1.668zm-1.108-58.053c.832-2.774 1.11-5.274.555-6.942-.555-2.223-2.223-3.332-4.723-4.164-.827-.281-1.942-.559-2.774-.559-1.11-.277-2.774-.277-4.723-.277h-7.778l-8.887 24.443h8.887c2.505 0 4.723-.277 6.67-1.113 2.218-.55 3.886-1.387 5.828-2.219 1.387-1.387 2.774-2.777 4.173-3.896.827-1.664 1.942-3.328 2.774-5.274zm108.603 56.108c-.559 1.11-1.113 1.945-1.945 2.223-.555.827-1.668 1.387-2.5 1.659-1.11.281-2.496.559-3.61.832h-11.669c-1.668-.273-2.777-.55-3.337-.832-.832-.269-1.387-.827-1.387-1.659-.277-.277-.277-1.118 0-2.223l5.837-54.161h-.277L467.9 945.959c-.555.827-.837 1.945-1.668 2.223-.555.827-1.387 1.387-2.496 1.659-.832.281-2.223.559-3.89.832h-11.67c-1.387-.273-2.774-.55-3.332-.832-.832-.269-1.11-.827-1.387-1.659-.28-.277-.28-1.118 0-2.223l7.774-74.714c0-1.673.281-3.055.56-3.614.272-1.113.55-1.945 1.386-2.223.832-.55 1.942-1.11 3.055-1.11 1.387 0 3.332-.273 5.274-.273 1.95 0 3.896.273 5 .273 1.11 0 1.945.273 2.5.559.555.269.832.55.832 1.11.277.277 0 1.11 0 1.945l-8.879 65.549 39.163-65.272c.277-.559.827-1.391 1.387-1.945.56-.559 1.11-1.118 1.945-1.387.55-.281 1.668-.559 3.055-.559 1.11 0 2.774-.273 4.72-.273 2.222 0 3.886.273 4.996.273 1.113 0 2.223.273 2.5.559.56.269 1.11.827 1.11 1.387.277.555.277 1.387 0 1.945l-7.493 65.272 38.887-65.549c.277-.563.832-1.113 1.105-1.668.281-.559.841-1.118 1.668-1.387.832-.281 1.668-.559 2.777-.559 1.391 0 2.777-.273 4.997-.273 1.668 0 3.337.273 4.446.273.832 0 1.664.559 1.942 1.11.277.277.277 1.113-.277 2.223-.273.559-1.11 1.942-1.942 3.882l-46.656 74.445zm89.434-2.505c-.554 1.118-1.114 2.223-1.39 3.332-.274.837-.833 1.395-1.11 1.945-.555.559-.833.837-1.387 1.11-.554.281-.832.559-1.114.559h-42.774c-1.668 0-2.496-.559-3.332-1.387-.555-1.11-.555-2.223 0-4.168l27.221-74.718c.555-1.937 1.664-3.328 3.055-4.164a6.777 6.777 0 0 1 4.164-1.391h42.22c.558 0 .831 0 1.113.281.273.269.273.827.273 1.387 0 .555 0 1.387-.273 1.945-.278.832-.554 1.937-1.114 3.324-.554 1.118-.827 2.223-1.114 3.337-.273.832-.827 1.387-1.386 1.945-.273.555-.827.827-1.11 1.11-.554.277-.837.277-1.114.277h-30.553l-7.5 21.107h25.834c.278 0 .554 0 .837.277.27.273.27.55.27 1.113v2.219a41.934 41.934 0 0 1-1.11 3.059c-.56 1.391-.833 2.223-1.387 3.05-.278.837-.832 1.673-1.114 2.223-.273.559-.832.827-1.11.827-.554.281-.837.281-1.395.281h-25.826l-8.61 24.162h30.553c.56 0 .832.277 1.11.559.278.273.278.555.56 1.113 0 .555-.279 1.387-.279 1.942-.282.845-.832 2.236-1.11 3.341zm36.663 4.45c-.282.277-.554.827-.832 1.11s-.837.827-1.668.827c-.837.281-1.946.559-2.778.559-1.386.273-2.778.273-4.446.273-1.664 0-2.774 0-4.164-.273-1.114 0-1.946-.273-2.223-.559-.559 0-1.118-.55-1.118-.827-.273-.277-.273-.827 0-1.11l29.171-80.827c.27-.555.554-.827.827-1.11.56-.559.832-.837 1.668-1.11.837-.281 1.946-.281 2.774-.559 1.386 0 2.774-.273 4.173-.273 1.942 0 3.332.273 4.164.273 1.386.273 2.223.273 2.778.559.278.269.832.55.832 1.11.273.277.273.555 0 1.11l-29.159 80.827zm84.156-23.339c-1.39 4.45-3.887 8.333-6.664 11.67-2.778 3.61-6.114 6.387-9.723 8.61-3.887 2.505-7.774 3.887-11.942 5.278-4.45 1.113-8.615 1.942-12.779 1.942-3.055 0-5.828-.277-8.056-.827-2.5-.563-4.446-1.113-6.11-1.945-1.668-.837-3.055-1.387-4.168-1.942-.832-.832-1.668-1.673-1.946-2.223s-.554-1.113-.278-2.5c0-1.113.56-2.777 1.391-4.442.554-1.673.832-2.505 1.11-3.618.554-.827 1.114-1.668 1.391-2.219.551-.559.832-.837 1.386-1.113.273-.281.554-.555 1.114-.555.551 0 1.386.555 2.218 1.387.832.277 1.946 1.391 3.614 2.223 1.114.832 3.06 1.664 5.278 2.223 2.223.832 4.723 1.113 8.056 1.113 2.223 0 4.164 0 6.114-.555 1.668-.559 3.332-1.118 4.72-2.223 1.667-.832 2.773-2.223 3.886-3.332 1.386-1.387 2.223-3.05 2.5-4.719.827-1.942.827-3.328.278-5-.278-1.387-1.114-2.496-2.5-3.61-1.39-1.118-2.778-2.223-4.723-3.055-1.946-.837-3.883-1.945-5.555-3.063-1.946-.827-3.61-2.219-5.555-3.606-1.39-1.11-2.778-3.055-3.887-4.723-.832-1.942-1.386-4.164-1.668-6.664 0-2.5.554-5.555 1.668-9.165 1.668-4.164 3.61-8.055 6.391-11.111 2.491-2.777 5.551-5.282 8.606-7.501 3.332-1.95 6.946-3.614 10.833-4.723 3.887-.832 7.778-1.387 11.665-1.387 2.223 0 4.164.273 6.11.555 1.668.281 3.614.559 5 1.118 1.673.55 2.778 1.11 4.168 1.942 1.114.55 1.946 1.113 2.223 1.391 0 .55 0 .827.273 1.11 0 .273 0 .827-.273 1.387v1.664c-.278.837-.837 1.945-1.114 3.059a27.823 27.823 0 0 0-1.386 3.337c-.554.827-.832 1.387-1.114 1.942-.278.832-.559 1.113-1.11 1.387-.278.273-.837.555-1.39.555s-1.115-.277-1.669-1.11c-1.114-.559-2.223-1.387-3.328-1.945-1.118-.555-2.778-1.387-4.45-1.945-1.942-.827-4.168-1.113-6.383-1.113-1.946 0-3.89.281-5.282.837-1.664.555-2.774 1.11-4.164 1.937-1.386.841-2.223 1.673-3.328 3.059-.837 1.113-1.673 2.223-1.95 3.614-.554 1.945-.554 3.332 0 5 .278 1.113 1.114 2.5 2.778 3.614 1.114 1.113 2.774 1.942 4.442 3.059 1.946.827 3.891 1.942 5.837 2.774 1.668 1.11 3.61 2.496 5.27 3.614 1.672 1.387 3.336 3.332 4.172 4.992 1.114 1.95 1.668 4.173 1.942 6.664.005 2.5-.546 5.555-1.937 8.883zm90.825-6.106c-2.223 5.278-4.442 9.719-7.505 13.892-3.055 4.164-6.387 7.774-10.556 10.833-3.883 2.774-8.606 4.719-13.602 6.387-4.723 1.668-10.279 2.496-15.833 2.496-5.278 0-10-.827-13.888-2.223-3.614-1.387-6.387-3.324-8.333-6.11-1.946-2.774-3.055-6.11-3.055-10.27 0-4.168.832-8.887 2.774-14.166l18.89-52.219c.272-.555.272-.827.831-1.11.282-.559.832-.837 1.668-1.11.832-.281 1.673-.281 2.774-.559 1.391 0 2.5-.273 4.446-.273 1.668 0 3.055.273 4.168.273 1.114.273 1.668.273 2.223.559.554.269 1.11.55 1.11 1.11.278.277.278.555 0 1.11l-18.048 50.555c-1.39 3.328-2.223 6.383-2.223 8.887 0 2.223.554 4.438 1.386 6.11 1.114 1.668 2.5 3.055 4.442 3.614 1.668.832 4.173 1.11 6.664 1.11 2.774 0 5.56-.273 7.778-1.11 2.5-.827 5-1.945 6.946-3.887 1.942-1.395 3.883-3.332 5.551-5.56 1.673-2.777 3.06-5.269 3.891-8.055l18.89-51.661c0-.555.277-.827.826-1.11.282-.559.837-.837 1.673-1.11.832-.281 1.668-.281 2.778-.559 1.391 0 2.496-.273 4.446-.273 1.386 0 2.774.273 3.883.273.837.273 1.946.273 2.505.559.554.269.827.55 1.11 1.11v1.11l-18.607 51.375zm85.27 25.554c-.274 1.113-.828 2.223-1.669 3.055-.55.837-1.386 1.118-1.942 1.668-.832.559-1.668 1.11-2.778 1.391-.554.273-1.386.273-2.5.273h-7.215c-1.668 0-2.782 0-3.895-.559-1.105-.269-1.664-.827-2.496-1.659-.554-.559-1.114-1.945-1.386-3.337-.559-1.113-.832-3.059-1.118-5.274l-6.664-39.995c-.554-2.5-.827-5-1.114-7.501 0-3.059-.273-5.555-.273-8.06-1.114 3.059-2.223 6.118-3.337 9.161-.827 3.063-2.218 6.669-3.328 10.005L849.814 947.9c-.278.277-.559.55-.837 1.11-.554.277-1.11.559-1.659.827-.559.281-1.395.559-2.505.559-1.39.273-2.5.273-4.168.273-1.386 0-2.774 0-3.614-.273-1.11 0-1.668-.273-2.223-.559-.554-.269-.832-.55-.832-.827v-1.11l27.776-76.936c.832-2.223 2.223-3.618 3.891-4.719a7.5 7.5 0 0 1 4.72-1.673h9.441c1.668 0 3.055.281 4.168.555.832.277 1.664.837 2.5 1.391.554.827 1.11 1.391 1.391 2.777.27 1.11.551 2.774.827 4.164l5.278 31.385c.278 1.945.551 3.614 1.11 5.56 0 1.659.278 3.606.278 5.551.278 1.95.56 3.891.832 5.278.278 1.942.278 3.614.554 5.555 1.114-3.055 1.946-6.664 3.06-9.997 1.385-3.059 2.495-6.387 3.327-9.165l14.716-40.277c0-.55.282-.827.841-1.382.273-.277 1.105-.559 1.664-.837.554-.269 1.668-.555 2.778-.555 1.114-.273 2.223-.273 3.891-.273 1.386 0 2.496 0 3.61.273 1.11 0 1.664.281 1.946.555.554.277.832.559 1.105.837 0 .555 0 .832-.269 1.382l-27.776 76.663zm117.212-66.104c-.559 1.382-1.118 2.223-1.673 3.328-.273.837-.559 1.677-1.114 2.223-.278.555-.832.832-1.11 1.113-.278.277-.837.277-1.11.277-.84 0-1.39-.277-2.227-.837-1.105-.827-2.496-1.942-4.164-2.777-1.942-1.105-4.173-1.664-6.664-2.491-2.774-.837-6.114-1.391-10-1.391s-7.779.832-11.662 2.223c-3.89 1.387-7.5 3.614-10.833 6.114-3.332 2.496-6.387 5.832-8.888 9.438a56.709 56.709 0 0 0-6.39 12.228c-1.665 4.711-2.775 9.165-2.775 12.77 0 3.887.554 6.946 2.223 9.442 1.386 2.505 3.328 4.446 6.106 5.841 2.778 1.105 6.391 1.664 10.005 1.664 2.223 0 4.168 0 6.383-.559 1.668-.559 3.887-.832 5.832-1.945l7.223-19.716H975.9c-.833 0-1.387-.559-1.387-1.668 0-1.118.278-2.5 1.386-5 .278-1.113.554-2.223 1.114-3.059.278-1.105.827-1.382 1.114-1.942.554-.55.827-1.113 1.386-1.113.278-.273.554-.555 1.11-.555h28.89c.55 0 1.104.277 1.663.555.278 0 .832.563 1.114 1.113.273.559.273.837.273 1.391 0 .832-.273 1.664-.554 2.777l-12.5 33.882c-.555 1.387-1.11 2.496-1.669 3.332-1.114 1.11-2.218 1.945-3.887 2.496-1.668.559-3.614 1.118-6.11 1.668-2.223.559-4.446 1.11-6.946 1.668s-4.719.837-7.219 1.113c-2.223.273-4.719.273-6.946.273-6.942 0-12.774-1.113-17.216-3.055-4.723-1.945-8.333-4.719-10.556-8.61-2.5-3.614-3.618-8.055-3.618-13.334 0-5.555 1.118-11.387 3.618-18.607 2.496-6.946 5.828-13.06 10.001-18.607a74.367 74.367 0 0 1 13.888-14.166c5.551-3.891 11.111-7.215 17.216-9.161 6.391-2.223 12.78-3.059 19.443-3.059 3.61 0 6.946.273 10.005.837 2.774.273 5 1.105 7.215 1.664a81.708 81.708 0 0 1 4.723 2.223c1.11 1.113 1.942 1.664 2.496 2.496.282.559.282 1.668.282 2.505-.278 1.11-.55 3.059-1.383 4.997z"/></svg>