<svg viewBox="0 0 1195 1195" xmlns="http://www.w3.org/2000/svg"><path d="M557.448 785.101c2.466 0 4.702-1.617 6.584-4.284 2.701-3.618 4.702-12.101 5.133-14.383 2.432-10.282 2.035-16.683-3.435-16.683-6.985 0-9.715 8.601-12.032 18.85-.802 3.55-1.45 6.818-1.416 10.018.068 6.481 4.433 6.481 5.167 6.481zM663.8 847.082l2.317-7.667H633.9l-4.668 15.535s6.25-5.717 16.952-7.565c2.437-.452 17.617-.303 17.617-.303zm44.8 62.687h16.5l4.735-15.851h-16.452zm-51.183-42.637l2.035-6.366h-31.949l-1.967 6.434H653.2c3.247-.384 3.934.086 4.216-.068zm58.701 17.617s6.285-3.2 9.634-4.216c3.4-.768 8.567-1.416 8.567-1.416l4.002-13.15h-16.534l-5.67 18.782zm10.1-143.783c5.85-2.85 10.401-8.751 11.95-15.765 1.698-7.685-.734-13.568-6.635-15.851-.35-.034-15.3-1.319-15.3-1.319l-2.902-.298-.098 1.233-.235 1.617c.034-.115-7.215 31.416-7.215 31.416l-.298 1.583h3.934c6.08 0 11.981-.201 16.798-2.615zm51.498 45.099c2.466 0 6.75-1.583 8.55-4.135.965-1.275 1.835-3.196 2.586-5.222.738-2.97 1.497-5.935 2.197-8.926.482-2.07.888-3.899 1.263-5.632.473-6.963-1.86-11.05-6.28-11.05-7 0-9.698 8.516-12.049 18.581-.815 3.584-1.467 6.848-1.433 10.018.154 6.366 4.467 6.366 5.167 6.366zm135.151-205.414H384.012c-24.465 0-48.917 19.917-54.618 44.433l-81.53 349.901c-5.702 24.435 9.53 44.365 33.932 44.365h528.798c24.465 0 48.952-19.934 54.698-44.365l81.485-349.901c5.755-24.517-9.442-44.433-33.912-44.433zM787.82 737.302c3.67 1.412 6.054 3.678 7.697 6.327.102-.811.213-1.63.32-2.479l.802-.649c10.568-1.502 13.5-1.933 24.482-3.968l.316.917a3870.74 3870.74 0 0 0-5.952 24.982c-4.032 17.467-5.5 26.334-7.048 35.464l-.968.734c-10.633-.085-13.683-.085-23.5.333l-.62-.802c.324-1.246.644-2.488.973-3.729-3.592 3.021-7.47 5.125-11.653 5.346-3.968.201-7.867-.35-12.216-2.202-13.649-5.316-11.452-20.233-9.532-28.399 1.817-8.098 5.018-16.55 11.682-22.716 9.481-8.627 20.514-11.012 25.216-9.16zm-103.885-9.635c0-.051 6.818-31.65 6.818-31.65s.5-2.466.768-3.849c3.131.384 10.765.448 29.798.217l7.335-.068c14.865.068 27.75.235 34.218 9.284 2.552 3.401 3.434 7.749 3.434 12.152 0 3.349-.499 6.698-1.182 9.514-2.633 11.481-8.534 20.933-17.165 27.332-12.685 9.336-28.869 9.336-43.2 9.336h-1.514c-1.033.567-2.065 2.001-2.065 2.001-.2.499-3.48 14.268-3.48 14.268-.035 0-3.884 18.765-4.532 21.935-2.867-.315-9.686-.315-26.299-.115.751-3.174 17.067-70.357 17.067-70.357zm-84.536 48.218c4.386-19.269 5.385-26.632 6.617-36.433l.785-.567c10.168-1.433 12.685-1.732 23.702-3.968l.85 1.032-1.584 6.136c1.817-1.118 3.665-2.232 5.517-3.2 5.167-2.551 10.982-3.315 14.15-3.315 4.782 0 10.098 1.348 12.364 6.933 2.048 4.983.65 11.102-2.116 23.168l-1.383 6.166c-2.902 13.418-3.315 15.885-4.869 25.101l-1.067.802c-8.832-.149-11.848-.149-22.165.401l-.384-.785c.883-3.934 1.881-7.782 2.8-11.75l1.198-5.368c1.933-8.315 3.784-18.001 3.968-20.966.201-1.767.815-6.2-4.232-6.2-2.202 0-4.399 1.032-6.664 2.082-1.199 4.433-3.75 16.883-4.984 22.549-2.466 11.951-2.649 13.333-3.768 19.234l-.785.802c-9.049-.149-12.168-.149-22.618.401l-.465-.9a2462.285 2462.285 0 0 0 5.133-21.355zm8.82 56.166l-4.152 13.918h-31.288l-3.384 2.935c-1.467 1.416-1.967.832-3.865 1.851-1.767.883-5.466 2.649-10.283 2.649h-10.018l4.032-13.368h3.017c2.534 0 4.284-.235 5.167-.785.998-.649 2.116-2.065 3.35-4.352l5.78-10.449h22.733l-4.002 7.599h22.912zm-195.555-72.849c-3.166 11.131-6.716 23.667-20.284 31.685-7.817 4.783-19.384 7.399-31.719 7.399-9.566 0-26.483-1.549-32.418-11.917-1.85-3.268-2.782-7.134-2.782-11.865l2.167-15.966 1.118-4.886 13.017-57.549s.618-3.166.785-3.716c.298.401 4.702.619 29.517.401-.034.183-.068.384-.183.768-2.283 6.75-15.03 57.817-15.03 57.817 0 .085-2.433 15.266-2.433 15.266l.15 2.581c.784 7.518 5.43 11.482 13.417 11.482 4.966 0 9.25-1.468 12.915-4.501 6.47-5.218 8.367-13.299 10.983-24.631.034-.051 12.181-56.085 12.834-59.183 1.698.401 7.02.584 25.015.401-.115.183-.149.384-.235.768-2.23 6.899-15.368 59.934-15.368 59.934l-1.467 5.713zm72.035 6.464l-1.416 6.166c-2.816 13.418-3.286 15.885-4.868 25.101l-1.033.802c-8.785-.149-11.917-.149-22.2.401l-.384-.785c.883-3.934 1.851-7.782 2.735-11.75l1.267-5.368c1.9-8.315 3.75-18.001 3.968-20.966.2-1.767.815-6.2-4.267-6.2-2.134 0-4.365 1.033-6.635 2.082-1.233 4.433-3.733 16.883-4.933 22.549-2.55 11.951-2.7 13.333-3.849 19.234l-.734.802c-9.067-.149-12.233-.149-22.664.401l-.465-.9c1.733-7.083 3.464-14.25 5.133-21.351 4.382-19.269 5.432-26.632 6.618-36.433l.85-.567c10.184-1.433 12.65-1.732 23.666-3.968l.935 1.032-1.698 6.136c1.882-1.118 3.665-2.232 5.551-3.2 5.201-2.551 10.983-3.315 14.15-3.315 4.85 0 10.133 1.348 12.334 6.933 2.074 4.979.691 11.097-2.06 23.163zm36.931-3.934c-.969 4.25-2 8.401-2.935 12.566-1.967 8.866-2.765 12.181-3.234 14.584-.465 2.232-.584 3.464-1.349 8.051l-.499.418-.465.384c-5.317-.034-8.75-.149-12.066-.034-3.315.034-6.55.201-11.48.435l-.265-.435-.315-.465c1.35-5.082 2.082-6.848 2.752-8.666.683-1.817 1.301-3.618 2.5-8.785 1.55-6.75 2.5-11.452 3.115-15.582.734-4.002 1.118-7.399 1.668-11.332l.384-.298.418-.384c5.282-.734 8.632-1.233 12.066-1.784 3.464-.448 6.95-1.152 12.416-2.202l.2.465.15.499c-1.008 4.164-2.058 8.333-3.06 12.565zm1.153-18.03c-5.815 4.083-14.567 4.933-19.452 2.082-4.95-2.966-4.284-8.601 1.566-12.565 5.866-4.049 14.584-4.983 19.55-2.048 4.902 2.897 4.168 8.478-1.664 12.531zm7.8 24.281c1.881-8.132 5-16.618 11.75-22.865 9.398-8.666 21.43-9.165 26.482-9.165 8.401 0 16.5 1.882 21.082 7.749 3.017 3.849 5.418 10.168 2.334 23.702-.952 4.083-3.682 13.999-9.65 20.667-7.749 8.218-18.049 10.982-28.102 10.982-3.934 0-10.035-.499-14.267-2.317-13.713-5.551-11.529-20.467-9.63-28.753zm47.833 160.819H552.7c-2.082 0-3.618-.298-5.849-.802-2.168-.55-3.132-1.514-4.083-2.983-.935-1.502-2.398-2.735-1.399-5.965l7.4-24.435h-12.686l4.216-13.965h12.714l3.384-11.366h-12.685l4.05-13.299h55.832l-4.135 13.299h-22.315l-3.48 11.366h22.834l-4.168 13.735h-22.818l-5.55 18.466c-.667 2.035 5.43 2.3 7.632 2.3l11.401-1.566-4.578 15.215zm46.067 0h-14.985c-4.783 0-8.25-.115-10.683-.298-2.317-.2-4.73 0-6.366-1.233-1.382-1.233-3.515-2.867-3.464-4.519.15-1.531.802-4.083 1.767-7.599l27.303-90.534h19.5l-2.85 9.817s6.164-4.933 10.482-6.699c4.284-1.583 14-3.017 14-3.017l31.564-.183-10.752 35.818c-1.817 6.118-3.934 10.082-5.248 11.899-1.182 1.817-2.582 3.401-5.317 4.898-2.649 1.433-5.082 2.231-7.317 2.466-2.082.149-5.282.2-9.715.264h-30.417l-8.55 28.301c-.815 2.816-1.199 4.168-.665 4.933.435.649 1.467 1.416 2.902 1.416l13.418-1.267-4.604 15.535zm48.62-37.819c-.769 2.701-1.434 4.702-3.466 6.434-2.134 1.817-4.634 3.716-10.483 3.716l-10.833.448-.086 9.715c-.115 2.735.62 2.466 1.05 2.901.498.499.951.683 1.416.883l3.434-.2 10.334-.567-4.284 14.183H648.32c-8.298 0-14.468-.2-16.465-1.784-2-1.267-2.265-2.85-2.23-5.585l.767-37.901h18.936l-.264 7.748h4.548c1.566 0 2.615-.149 3.27-.567.584-.435.998-1.015 1.266-1.967l1.9-6.067h14.881l-1.826 8.61zm66.298 37.7h-20.318l1.383-4.502h-41.233l4.117-13.5h4.198l21.632-71.702 4.318-14.451H734.2l-2.168 7.283s5.517-3.968 10.752-5.317c4.331-1.152 25.694-1.69 32.85-1.839v-.038h22.134l.217 8.235c-.149 1.399 1.05 2.048 3.635 2.048h4.501l-4.117 13.602h-11.95c-10.335.734-14.269-3.699-14-8.7l-.222-8.089-2.245 7.274h-7.082l-21.35 70.618h5.768l-4.467 14.584h-5.7l-1.358 4.493zm91.55-62.716h-22.199l-3.465 11.067h22.268l-3.699 12.101h-24.05l-4.285 5.099h9.766l2.385 15.249c.264 1.514.264 2.517.768 3.166.5.534 3.434.815 5.133.815h2.966l-4.519 14.835h-7.518c-1.152 0-2.885-.086-5.282-.183-2.23-.2-3.818-1.514-5.35-2.283-1.384-.649-3.435-2.317-3.935-5.167l-2.35-15.215-10.949 14.985c-3.465 4.749-8.167 8.367-16.115 8.367h-15.3l4.014-13.248h5.85c1.698 0 3.166-.666 4.284-1.233 1.118-.465 2.116-1.05 3.234-2.701l15.966-22.486h-21.082l3.618-12.101h24.098l3.418-11.067h-23.783l4.05-13.649h66.183l-4.12 13.649zm13.982-42.082l-.904 1.033h.136l-8.55 14.651c-2.7 5.017-7.718 8.751-15.702 8.785l-13.602-.235 3.968-13.184h2.667c1.383 0 2.385-.068 3.15-.448.698-.235 1.198-.785 1.75-1.583l4.812-7.611-.047-.103c6.835-10.283 8.516-14.716 15.616-26.432-1.267-13.115-1.85-17.349-2.885-25.95-.619-5.133-1.433-10.368-2.048-15.565-1.318-10.599-.999-9.101-2.317-15.817l-.068-.149c.068-.418.068-.802.183-1.152l.815-.734c10.518-1.349 10.782-1.698 22.165-3.899l.952.968 1.514 29.265c.034.649.034 1.032.068 1.651 6.05-13.5 5.832-9.8 13.265-26.948l.034.166c.051-.166.086-.35.115-.465l.734-.734c9.984-1.349 11.951-1.698 22.818-3.899l.85.969c.012-.017-43.738 75.034-49.49 87.42zm-114.93 15.1l-5.483 18.048s6.165-2.782 9.485-3.699c3.4-.901 8.482-1.199 8.482-1.199l3.968-13.15h-16.452zm58.853-62.272c1.357-3.656 2.321-7.693 2.663-9.109.452-1.993.683-3.781.798-5.449a358.83 358.83 0 0 1-1.263 5.632c-.704 2.991-1.459 5.952-2.197 8.926z"/></svg>