<svg viewBox="0 0 1195 1195" xmlns="http://www.w3.org/2000/svg"><path d="M921.771 850.735c0-3.985 2.902-6.882 6.524-6.882 3.99 0 6.886 2.901 6.886 6.882 0 3.627-2.902 6.89-6.886 6.89-3.622 0-6.524-3.269-6.524-6.89zm6.523 5.073c2.902 0 5.436-2.176 5.436-5.073s-2.538-5.073-5.436-5.073c-2.538 0-5.073 2.176-5.073 5.073s2.538 5.073 5.073 5.073zm-.725-2.176h-1.45v-5.798h3.988c.726.367.726 1.092.726 1.817 0 .358-.359 1.084-1.088 1.45l1.451 2.534h-1.813l-.726-2.176h-1.088v2.171-3.26h.726c.362 0 .73 0 .73-.367.36 0 .36-.358.36-.726 0 0 0-.358-.36-.358 0-.367-.367 0-.73 0h-.726v4.711zM395.52 672.554l-64.69 174.507-6.943-35.452c-15.642-42.351-46.102-80.99-91.525-106.885l59.157 223.501 69.948-.009 104.051-255.663H395.52zm55.424 255.775l41.344-255.992h66.142l-41.374 255.992h-66.112zm305.894-249.681c-13.082-5.184-33.689-10.791-59.226-10.791-65.408 0-111.368 34.735-111.757 84.424-.418 36.889 32.858 57.374 57.898 69.657 25.766 12.536 34.394 20.574 34.291 31.783-.217 17.084-20.625 24.883-39.616 24.883-26.394 0-40.474-3.801-62.118-13.418l-8.584-4.007-9.233 57.25c15.441 7.232 43.968 13.334 73.67 13.717 69.41 0 114.525-34.377 115.066-87.501.29-29.167-17.374-51.306-55.565-69.577-23.023-11.84-37.325-19.69-37.099-31.727.051-10.633 11.976-21.99 37.927-21.99 21.615-.444 37.167 4.557 49.46 9.834l5.883 2.966 9.003-55.505zm169.46-6.076h-51.042c-15.842 0-27.69 4.608-34.692 21.243L742.44 928.366h69.466s11.35-31.518 13.893-38.459c7.6 0 74.991.132 84.6.132 2.043 8.969 8.086 38.323 8.086 38.323h61.376l-53.559-255.791zm-81.494 164.983c5.534-14.673 26.36-71.535 26.36-71.535-.418.691 5.376-14.856 8.793-24.435l4.408 22.127s12.702 61.065 15.317 73.843h-54.878zM270.822 668.194h-106.61l-.603 4.399c82.858 21.159 137.541 73.302 160.273 134.793l-23.125-117.598c-3.964-16.277-15.578-21-29.935-21.594z"/></svg>