<svg xmlns="http://www.w3.org/2000/svg" viewBox="0 0 1017.9398803710938 231.59906005859375"><path d="M106.619 117.022l-6.323 25.344c7.803 1.937 31.876 9.668 35.435-4.63 3.716-14.912-21.308-18.765-29.112-20.714zm8.624-34.585l-5.73 22.981c6.498 1.621 26.53 8.231 29.777-4.779 3.38-13.56-17.553-16.581-24.047-18.202zm25.911-68.425C84.954 0 28.024 34.206 14.016 90.428 0 146.637 34.202 203.572 90.398 217.587c56.218 14.012 113.148-20.19 127.16-76.403 14.016-56.218-20.194-113.156-76.403-127.173zm20.877 86.84c-1.51 10.223-7.177 15.168-14.695 16.9 10.326 5.38 15.586 13.619 10.577 27.921-6.213 17.758-20.975 19.26-40.606 15.543l-4.766 19.094-11.51-2.875 4.701-18.829a417.766 417.766 0 0 1-9.177-2.389l-4.715 18.931-11.499-2.872 4.766-19.127c-2.688-.683-5.423-1.421-8.205-2.116L61.918 147.3l5.718-13.18s8.482 2.257 8.362 2.091c3.264.807 4.71-1.322 5.278-2.735l7.531-30.186c.422.102.832.205 1.221.303a10.037 10.037 0 0 0-1.199-.388l5.367-21.547c.145-2.445-.704-5.529-5.363-6.694.18-.12-8.362-2.078-8.362-2.078l3.067-12.292 15.877 3.963-.017.06a367.02 367.02 0 0 0 7.352 1.723l4.72-18.905 11.506 2.867-4.62 18.535c3.088.709 6.2 1.416 9.22 2.171l4.591-18.415 11.512 2.867-4.714 18.91c14.528 5.017 25.16 12.523 23.07 26.483zm156.31-26.479c8.506 0 15.858 1.523 22.037 4.514 6.204 3.021 11.328 7.1 15.437 12.22 4.053 5.145 7.07 11.161 9.02 18.061 1.932 6.912 2.905 14.349 2.905 22.306 0 12.224-2.24 23.769-6.762 34.658-4.522 10.906-10.654 20.356-18.457 28.421-7.8 8.06-17.007 14.413-27.627 19.111-10.599 4.693-22.127 7.036-34.5 7.036-1.6 0-4.41-.047-8.389-.123-3.976-.086-8.542-.49-13.654-1.186-5.15-.717-10.59-1.775-16.34-3.2a81.292 81.292 0 0 1-16.338-5.846l45.943-193.049 41.147-6.375-16.448 68.501a64.143 64.143 0 0 1 10.611-3.712c3.546-.883 7.347-1.336 11.413-1.336zm-34.518 113.681c6.195 0 12.036-1.519 17.52-4.519 5.503-2.995 10.247-7.04 14.224-12.079 3.976-5.069 7.125-10.765 9.421-17.144 2.3-6.37 3.461-13.017 3.461-19.934 0-8.495-1.42-15.117-4.25-19.909-2.833-4.77-8.064-7.173-15.67-7.173-2.489 0-5.7.478-9.682 1.327-3.998.896-7.565 2.774-10.769 5.589l-17.514 72.755c1.058.188 1.993.363 2.786.529.781.179 1.642.312 2.5.401a29.8 29.8 0 0 0 3.204.154h4.77zm126.601 28.936h-39.305l33.19-139.673h39.577L410.422 216.99zm19.122-156.697c-5.487 0-10.462-1.63-14.873-4.903-4.45-3.255-6.656-8.26-6.656-15.01 0-3.712.755-7.189 2.248-10.474 1.52-3.281 3.503-6.106 5.986-8.507 2.483-2.381 5.36-4.279 8.623-5.713 3.286-1.413 6.784-2.117 10.505-2.117 5.483 0 10.432 1.63 14.861 4.902 4.416 3.29 6.635 8.295 6.635 15.01 0 3.721-.75 7.219-2.257 10.496-1.502 3.277-3.48 6.097-5.969 8.499-2.462 2.385-5.363 4.28-8.623 5.701-3.286 1.442-6.767 2.116-10.479 2.116zm48.773-17.77l41.161-6.383-10.108 41.173h44.088l-7.957 32.388H501.68l-11.669 48.857c-1.075 4.075-1.69 7.88-1.86 11.409-.193 3.554.255 6.601 1.317 9.169 1.054 2.577 2.952 4.553 5.71 5.957 2.742 1.43 6.663 2.142 11.814 2.142 4.241 0 8.371-.397 12.361-1.199a87.765 87.765 0 0 0 12.062-3.311l2.936 30.285c-5.312 1.95-11.063 3.627-17.267 5.034-6.204 1.43-13.55 2.116-22.04 2.116-12.212 0-21.676-1.813-28.422-5.423-6.737-3.639-11.498-8.601-14.344-14.895-2.812-6.267-4.066-13.491-3.716-21.623.363-8.158 1.596-16.734 3.716-25.762l26.043-109.935zm73.409 118.707c0-12.032 1.946-23.377 5.837-34.001 3.891-10.632 9.49-19.925 16.751-27.904 7.236-7.936 16.056-14.225 26.428-18.841 10.33-4.591 21.893-6.908 34.641-6.908 7.98 0 15.1.755 21.371 2.27 6.293 1.523 11.994 3.494 17.14 5.969l-13.556 30.818c-3.542-1.434-7.21-2.701-11.013-3.849-3.806-1.173-8.452-1.737-13.943-1.737-13.115 0-23.492 4.523-31.202 13.534-7.693 9.019-11.567 21.163-11.567 36.394 0 9.024 1.95 16.325 5.858 21.909 3.891 5.585 11.072 8.358 21.504 8.358 5.145 0 10.12-.542 14.865-1.583 4.8-1.067 9.03-2.398 12.758-3.985l2.936 31.599c-4.97 1.925-10.449 3.665-16.465 5.197-6.024 1.467-13.197 2.227-21.513 2.227-10.986 0-20.275-1.604-27.883-4.774-7.603-3.204-13.893-7.471-18.846-12.881-4.975-5.414-8.55-11.738-10.756-19-2.218-7.236-3.345-14.861-3.345-22.814zm174.592 59.472c-9.378 0-17.523-1.433-24.435-4.258-6.89-2.833-12.604-6.801-17.118-11.951-4.53-5.12-7.91-11.187-10.223-18.185-2.317-6.993-3.434-14.733-3.434-23.211 0-10.641 1.702-21.278 5.163-31.894 3.434-10.628 8.53-20.177 15.28-28.667 6.697-8.504 14.954-15.454 24.677-20.872 9.72-5.385 20.894-8.094 33.447-8.094 9.207 0 17.318 1.434 24.32 4.263 6.976 2.824 12.723 6.826 17.26 11.951 4.496 5.15 7.905 11.196 10.205 18.193 2.308 6.976 3.456 14.737 3.456 23.227 0 10.607-1.686 21.243-5.043 31.885-3.332 10.59-8.303 20.164-14.86 28.672-6.546 8.49-14.734 15.437-24.564 20.839-9.817 5.389-21.197 8.103-34.129 8.103zm19.652-113.655c-5.824 0-10.986 1.694-15.39 5.035-4.424 3.379-8.14 7.633-11.136 12.757-3.029 5.15-5.282 10.76-6.797 16.862-1.506 6.118-2.24 11.896-2.24 17.387 0 8.862 1.43 15.769 4.237 20.731 2.85 4.945 7.966 7.424 15.407 7.424 5.846 0 10.974-1.681 15.407-5.056 4.4-3.353 8.124-7.608 11.144-12.74 3.008-5.115 5.265-10.752 6.784-16.862 1.485-6.097 2.25-11.913 2.25-17.395 0-8.832-1.43-15.752-4.259-20.714-2.84-4.945-7.979-7.428-15.407-7.428zM847.757 216.99h-39.343l33.191-139.673H881.2L847.758 216.99zm19.102-156.697c-5.49 0-10.457-1.63-14.865-4.903-4.429-3.255-6.652-8.26-6.652-15.01 0-3.712.764-7.189 2.261-10.474 1.502-3.281 3.495-6.106 5.982-8.507 2.471-2.381 5.371-4.279 8.627-5.713 3.27-1.413 6.76-2.117 10.471-2.117 5.5 0 10.457 1.63 14.878 4.902 4.42 3.29 6.664 8.295 6.664 15.01 0 3.721-.802 7.219-2.283 10.496-1.489 3.277-3.48 6.097-5.957 8.499-2.496 2.385-5.359 4.28-8.623 5.701-3.294 1.442-6.779 2.116-10.505 2.116zm42.655 23.385c2.982-.87 6.314-1.92 9.937-3.063 3.64-1.144 7.702-2.202 12.237-3.161 4.493-.986 9.558-1.787 15.13-2.406 5.572-.631 11.917-.943 18.966-.943 20.731 0 35.021 6.037 42.91 18.069 7.885 12.041 9.246 28.514 4.13 49.395l-18.078 75.418h-39.557l17.514-73.834a157.704 157.704 0 0 0 2.534-13.423c.623-4.313.59-8.115-.145-11.409-.696-3.256-2.338-5.913-4.894-7.983-2.59-2.026-6.51-3.047-11.827-3.047-5.12 0-10.334.55-15.663 1.613L916.95 216.979h-39.573L909.513 83.68z"/></svg>