<svg xmlns="http://www.w3.org/2000/svg" viewBox="0 0 535.0189819335938 535.0109252929688"><path d="M326.127 32.375C196.297 0 64.764 79.036 32.397 208.896 0 338.739 79.04 470.259 208.862 502.631c129.873 32.38 261.397-46.651 293.79-176.495 32.367-129.856-46.66-261.389-176.525-293.76zm48.23 200.597c-3.49 23.607-16.585 35.038-33.962 39.044 23.864 12.429 36.002 31.48 24.435 64.504-14.349 41.007-48.448 44.476-93.807 35.895l-11.008 44.109-26.594-6.63 10.858-43.516a1039.685 1039.685 0 0 1-21.2-5.495l-10.902 43.721-26.56-6.63 11-44.194c-6.208-1.596-12.527-3.281-18.96-4.889l-34.608-8.632 13.197-30.434s19.606 5.209 19.341 4.822c7.531 1.865 10.867-3.046 12.19-6.315l17.391-69.721c.977.239 1.92.474 2.812.7a21.082 21.082 0 0 0-2.765-.887l12.403-49.775c.325-5.649-1.617-12.779-12.39-15.466.414-.286-19.31-4.805-19.31-4.805l7.073-28.403 36.672 9.156-.03.137c5.517 1.374 11.2 2.671 16.986 3.993l10.906-43.678 26.573 6.626-10.675 42.82c7.143 1.625 14.314 3.272 21.312 5.013l10.607-42.538 26.59 6.631-10.889 43.686c33.578 11.563 58.142 28.898 53.317 61.154zm-128.02 37.359l-14.606 58.543c18.04 4.48 73.638 22.332 81.864-10.697 8.585-34.445-49.233-43.353-67.26-47.846zm19.92-79.894l-13.235 53.09c15.01 3.746 61.295 19.012 68.791-11.03 7.813-31.334-40.546-38.319-55.557-42.061z"/></svg>