<svg xmlns="http://www.w3.org/2000/svg" viewBox="0 0 649.5523071289062 462.7811279296875"><path d="M123.947 302.681c-3.289-1.707-15.82-7.274-38.74-7.274C34.245 295.407 0 329.609 0 380.497c0 49.993 31.595 82.283 80.495 82.283 20.574 0 36.007-4.168 42.97-7.731a2.245 2.245 0 0 0 1.16-2.543l-4.007-16.384c-.158-.657-.615-1.207-1.229-1.502s-1.327-.29-1.937.009c-8.094 3.899-20.638 6.323-32.72 6.323-36.66 0-58.544-22.865-58.544-61.159 0-38.733 22.882-62.801 59.721-62.801 15.736 0 26.053 3.959 30.805 6.315a2.26 2.26 0 0 0 1.89.06 2.23 2.23 0 0 0 1.267-1.399l5.188-16.618a2.242 2.242 0 0 0-1.113-2.666zm105.821 128.133v-42.36c0-22.058-7.914-48.35-45.615-48.35-14.097 0-28.638 3.801-38.89 10.168a2.24 2.24 0 0 0-.947 2.641l4.711 13.807a2.278 2.278 0 0 0 1.413 1.408c.67.226 1.395.123 1.984-.264 7.493-5.034 18.214-8.043 28.69-8.043h.451c15.385 0 23.198 7.974 23.198 23.719v.086c-44.237.29-68.574 16.026-68.574 44.373 0 17.293 12.75 34.782 37.128 34.782 13.36 0 25.698-5.257 33.87-14.267l1.121 9.698a2.27 2.27 0 0 0 2.24 2.001h18.649a2.252 2.252 0 0 0 2.253-2.257c0-.252-.038-.482-.11-.709-1.03-6.916-1.57-16.047-1.57-26.432zm-51.264 12.249c-10.692 0-17.075-6.507-17.075-17.399 0-15.45 14.375-23.283 42.718-23.283h1.084v17.433c0 1.408-.149 3.575-.819 5.815-2.765 8.043-11.213 17.433-25.907 17.433zm132.497-102.472l-.478-.06c-1.733-.226-3.375-.426-5.449-.426-12.655 0-24.022 7.185-30.609 18.85l-.606-14.349a2.254 2.254 0 0 0-2.248-2.159h-18.146c-.623 0-1.224.252-1.647.709a2.264 2.264 0 0 0-.606 1.69c.644 9.651.938 20.502.938 35.183v77.926a2.252 2.252 0 0 0 2.253 2.257h20.736a2.255 2.255 0 0 0 2.257-2.257v-60.373c0-3.298.248-6.664.67-9.182 2.752-15.023 12.553-24.358 25.587-24.358 2.726 0 4.702 0 6.58.409a2.23 2.23 0 0 0 1.898-.443 2.247 2.247 0 0 0 .841-1.758v-19.426a2.237 2.237 0 0 0-1.97-2.231zm78.2 1.856h-27.443v-24.892c0-.717-.337-1.391-.909-1.809a2.244 2.244 0 0 0-1.997-.358l-20.263 6.084a2.26 2.26 0 0 0-1.609 2.168v18.808h-15.41a2.25 2.25 0 0 0-2.258 2.248v15.675a2.253 2.253 0 0 0 2.257 2.257h15.411v59.516c0 14.558 2.808 24.776 8.61 31.249 5.568 6.05 14.106 9.382 24.051 9.382 9.357 0 16-1.834 19.123-2.935a2.262 2.262 0 0 0 1.51-2.257l-.947-15.685a2.243 2.243 0 0 0-.965-1.715 2.278 2.278 0 0 0-1.946-.307c-2.568.785-5.482 1.31-11.362 1.31-9.442 0-13.299-5.717-13.299-19.742v-58.812h27.443a2.252 2.252 0 0 0 2.253-2.257V344.7a2.254 2.254 0 0 0-2.253-2.253zm107.891 88.367v-42.36c0-22.058-7.914-48.35-45.615-48.35-14.097 0-28.638 3.801-38.895 10.168a2.245 2.245 0 0 0-.943 2.641l4.711 13.807a2.278 2.278 0 0 0 1.413 1.408c.67.226 1.395.123 1.976-.264 7.501-5.034 18.218-8.043 28.697-8.043h.448c15.385 0 23.198 7.974 23.198 23.719v.086c-44.232.29-68.574 16.026-68.574 44.373 0 17.293 12.753 34.782 37.13 34.782 13.362 0 25.697-5.257 33.868-14.267l1.122 9.698a2.263 2.263 0 0 0 2.24 2.001h18.645a2.253 2.253 0 0 0 2.257-2.257c0-.252-.043-.482-.11-.709-1.03-6.916-1.567-16.047-1.567-26.432zm-51.277 12.249c-10.688 0-17.067-6.507-17.067-17.399 0-15.45 14.375-23.283 42.713-23.283h1.088v17.433c0 1.408-.149 3.575-.819 5.815-2.769 8.043-11.213 17.433-25.915 17.433zm124.233-76.608c-22.814-8.768-30.13-15.642-30.13-28.31 0-10.641 8.558-21.385 27.672-21.385 15.876 0 26.018 5.474 28.745 7.159a2.25 2.25 0 0 0 1.946.2 2.263 2.263 0 0 0 1.37-1.391l5.658-16.618a2.253 2.253 0 0 0-1.003-2.675c-4.152-2.415-15.957-8.034-36.006-8.034-31.573 0-53.628 18.534-53.628 45.073 0 21.107 14.208 36.502 43.418 47.048 20.74 7.693 28.455 15.557 28.455 29 0 15.207-11.865 24.657-30.967 24.657-12.519 0-25.39-3.627-35.315-9.942a2.264 2.264 0 0 0-3.363 1.216l-5.418 17.084a2.26 2.26 0 0 0 .9 2.568c9.336 6.183 26.914 10.666 41.78 10.666 42.537 0 57.633-25.792 57.633-47.885 0-22.733-12.485-37.218-41.745-48.435zm77.252-24.008h-20.74a2.253 2.253 0 0 0-2.257 2.248v113.258a2.255 2.255 0 0 0 2.257 2.257h20.74a2.251 2.251 0 0 0 2.25-2.257V344.698a2.253 2.253 0 0 0-2.25-2.253zm0-46.968h-20.74a2.255 2.255 0 0 0-2.257 2.257v20.135a2.255 2.255 0 0 0 2.257 2.257h20.74a2.251 2.251 0 0 0 2.25-2.257v-20.135a2.253 2.253 0 0 0-2.25-2.257zM364.633 25.067c0 13.844-18.174 25.066-40.593 25.066s-40.593-11.222-40.593-25.066S301.621 0 324.041 0s40.593 11.222 40.593 25.067zm-78.37 128.652v41.391c0 21.491-7.163 27.059-23.074 26.261-19.592-.977-86.759-15.274-86.759-69.244 0-55.855 99.21-74.816 149.627-74.816 35.814 0 121.967 9.502 148.036 66.854 3.981 8.76-5.29 11.187-11.144 3.981-31.04-38.2-176.687-58.897-176.687 5.572zm73.391 49.417V161.75c0-21.491 7.16-27.059 23.078-26.265 19.588.981 86.754 15.279 86.754 69.243 0 55.851-99.213 74.808-149.632 74.808-35.815 0-121.963-9.493-148.032-66.85-3.985-8.755 5.291-11.183 11.14-3.981 31.036 38.203 176.691 58.901 176.691-5.568z"/></svg>