<svg xmlns="http://www.w3.org/2000/svg" viewBox="0 0 749.4240112304688 319.56298828125"><path d="M195.482 146.265h196.177c-1.74-38.742-11.626-78.695-41.605-104.354C314.359 11.341 251.844 0 195.981 0 137.822 0 73.515 12.446 37.636 45.243 6.702 73.484 0 118.941 0 159.781c0 42.782 13.1 92.531 46.67 121.207 35.694 30.486 93.537 38.575 149.316 38.575 54.187 0 112.883-9.127 148.361-38.093 35.38-28.906 47.616-77.615 47.616-121.69v-.205h-196.48v-13.312zm209.35 13.316v152.854l272.9-.205c39.931-1.993 71.692-34.893 71.692-75.298 0-40.401-31.757-75.405-71.693-77.418v.069h-272.9zm339.595-83.383c0-38.929-30.882-69.798-69.816-69.798-2.683 0-5.999-.504-8.61-.218H404.826V146.27h275.14c36.087-3.102 64.461-33.208 64.461-70.072z"/></svg>