<svg xmlns="http://www.w3.org/2000/svg" viewBox="0 0 763.18701171875 488.154052734375"><path d="M459.912 205.175c0 33.101-26.833 59.934-59.934 59.934s-59.934-26.834-59.934-59.934c0-33.101 26.834-59.934 59.934-59.934 33.101 0 59.934 26.834 59.934 59.934zM763.144 0L0 .077v488.077h763.187L763.144 0zM5.482 5.551l752.192-.017v265.69c-3.174 2.223-209.817 146.491-585.928 211.4H5.504c.008-5.418-.022-471.629-.022-477.073zm716.98 151.189l2.718 3.763h2.824l-3.192-4.002c1.365-.367 2.125-1.361 2.125-2.71 0-1.937-1.33-2.995-3.669-2.995h-3.11v9.707h2.316v-3.763h-.013zm0-4.16h.423c1.144 0 1.736.414 1.736 1.246 0 .858-.61 1.288-1.766 1.288h-.393v-2.535zm1.266 11.516c4.591 0 8.35-3.81 8.35-8.465 0-4.634-3.759-8.461-8.35-8.461a8.411 8.411 0 0 0-8.452 8.461 8.434 8.434 0 0 0 8.452 8.465zm-.034-15.402c3.691 0 6.698 3.157 6.698 6.95 0 3.819-3.008 6.938-6.698 6.938-3.707 0-6.74-3.089-6.74-6.938 0-3.865 2.99-6.95 6.74-6.95zm-9.574 33.284c0-20.677-14.242-32.606-39.082-32.606h-31.936V259.81h21.517v-44.365h2.808l29.811 44.365h26.491l-34.76-46.528c16.217-3.298 25.152-14.395 25.152-31.304zm-43.217 18.24h-6.293v-33.451h6.635c13.423 0 20.711 5.619 20.711 16.367-.005 11.106-7.296 17.084-21.052 17.084zM66.735 149.372h-31.62V259.81h31.454c16.726 0 28.8-3.951 39.403-12.749 12.6-10.428 20.05-26.142 20.05-42.394 0-32.589-24.35-55.296-59.287-55.296zm25.164 82.965c-6.767 6.114-15.56 8.781-29.478 8.781h-5.78v-73.032h5.78c13.918 0 22.366 2.488 29.478 8.93 7.45 6.635 11.93 16.913 11.93 27.49 0 10.602-4.48 21.197-11.93 27.832zm44.032-82.965h21.543V259.81h-21.543V149.372zm74.22 42.38c-12.929-4.783-16.727-7.936-16.727-13.905 0-6.955 6.762-12.241 16.051-12.241 6.451 0 11.76 2.654 17.365 8.943l11.277-14.759c-9.267-8.102-20.348-12.245-32.452-12.245-19.537 0-34.445 13.568-34.445 31.646 0 15.215 6.942 23.006 27.175 30.285 8.435 2.974 12.723 4.958 14.89 6.289 4.301 2.811 6.46 6.788 6.46 11.426 0 8.947-7.118 15.578-16.727 15.578-10.274 0-18.55-5.137-23.514-14.728l-13.918 13.401c9.925 14.57 21.846 21.031 38.238 21.031 22.383 0 38.09-14.882 38.09-36.267-.006-17.549-7.267-25.493-31.766-34.454zm38.557 12.916c0 32.461 25.493 57.625 58.291 57.625 9.276 0 17.216-1.822 27.008-6.434v-25.361c-8.615 8.619-16.243 12.096-26.01 12.096-21.692 0-37.09-15.731-37.09-38.093 0-21.201 15.885-37.93 36.091-37.93 10.274 0 18.048 3.665 27.008 12.429v-25.344c-9.459-4.796-17.233-6.784-26.5-6.784-32.632.005-58.799 25.685-58.799 57.796zm256.102 18.884l-29.448-74.18h-23.535l46.865 113.275h11.592l47.71-113.275h-23.35zm62.925 36.263h61.09v-18.701H589.26v-29.811h38.11v-18.705h-38.11v-24.512h39.565v-18.714h-61.09z"/></svg>