<svg xmlns="http://www.w3.org/2000/svg" viewBox="0 0 306.27001953125 362.069091796875"><path d="M168.997 310.401h7.42v7.42h-7.42v-7.42zM20.581 343.442v-7.56c0-3.221 0-7.42-1.817-10.223-1.404-1.822-3.503-2.795-5.743-3.221-.418 0-1.259-.137-2.522-.137-1.959 0-8.26.277-9.8 6.861C.14 331.543.14 334.9.14 335.46v11.204c0 3.781-.14 8.542 1.817 11.618 1.681 2.663 5.18 3.503 8.26 3.503 5.602 0 8.12-1.959 9.241-4.344 1.118-2.658 1.118-7.002.981-9.937h-7.142v3.221c.141 1.677.141 3.217-1.399 4.339-.559.418-1.122.559-1.404.559-.837 0-1.259-.418-1.54-.559-1.26-1.122-1.26-2.385-1.4-4.062v-7.56H20.58zM7.559 331.964c.281-1.399.281-2.526 1.4-3.221.703-.423 1.258-.563 1.54-.563.7 0 1.263.277 1.681.7.841.841.981 1.959 1.122 3.221v5.598H7.559v-5.735zm17.225-21.563h7.56v51.102h-7.56v-51.102zm32.76 33.041v-7.56c0-3.221 0-7.42-1.818-10.223-1.399-1.822-3.503-2.795-5.602-3.221-.559 0-1.399-.137-2.658-.137-1.962 0-8.264.277-9.8 6.861-.559 2.381-.559 5.738-.559 6.298v11.204c0 3.781-.14 8.542 1.817 11.618 1.681 2.663 5.18 3.503 8.264 3.503 5.598 0 8.12-1.959 9.241-4.344 1.118-2.658 1.118-7.002 1.118-9.937h-7.283v3.221c.141 1.677.141 3.217-1.259 4.339-.7.418-1.259.559-1.536.559-.84 0-1.263-.418-1.54-.559-1.123-1.122-1.26-2.385-1.4-4.062v-7.56h13.014zm-13.018-11.478c.277-1.399.277-2.526 1.4-3.221.7-.423 1.398-.563 1.54-.563.7 0 1.26.277 1.681.7.841.841.977 1.959 1.118 3.221v5.598h-5.738v-5.735zm29.96 19.038c0 2.385-.14 4.621-2.663 4.621-2.24 0-2.522-1.399-2.663-2.236 0-.277-.14-.704-.14-1.122-.142-3.358-.278-6.72-.278-10.082 0-3.498 0-6.998.141-10.5.277-1.118.56-2.24 1.4-2.935.417-.141.98-.281 1.398-.281 1.26 0 1.681.423 1.96.841.7 1.122.7 3.781.7 7.002h7.42c-.142-5.18 0-7.842-1.26-9.8-.977-1.541-3.498-4.062-8.26-4.062-.423 0-2.24 0-3.78.426-1.4.273-4.763 1.259-6.303 5.598-.277.977-.423 1.399-.559 3.221-.14 2.103-.28 4.058-.418 6.021-.14 4.058 0 7.983.137 12.041 0 3.08.141 6.302 2.103 8.819 2.517 3.358 7.42 3.358 8.401 3.358 2.663 0 4.762-.695 5.602-.977.56-.423 1.541-.841 2.381-2.099 1.822-2.236 1.96-4.621 2.1-7.42v-5.457l-7.42-.141v5.167zm20.3 3.781c-.559-.563-.559-1.681-.559-3.362v-21.982h2.94v-6.575h-2.94v-10.082h-7.56v10.082h-2.94v6.575h3.085v26.885c0 1.399.137 1.959.277 2.522.277.7.56.981.977 1.541 1.122 1.263 2.663 1.263 4.344 1.118h4.762l.141-6.157c-.423 0-.7-.137-.98-.137-.564-.145-1.123-.145-1.546-.426zm14.286-29.124c-.7.977-1.122 1.959-1.817 4.621l.277-7.416h-7.283v38.639h7.702v-23.377c0-1.959.141-3.358 1.404-4.898 1.681-2.099 4.2-1.962 6.856-1.822l.141-9.241c-3.22.273-5.462.559-7.279 3.495zm29.26 22.122c0-2.236-.14-4.48-.14-6.716 0-7.142.276-11.063-1.26-14.139-1.118-2.381-3.217-4.344-8.542-4.344-5.18 0-7.42 2.236-8.678 4.344-1.54 2.658-1.404 5.043-1.54 7.978v9.241c0 3.362-.142 9.664 1.117 12.881 1.541 3.644 5.043 5.043 8.683 5.043 4.062 0 7.56-1.122 9.241-5.184 1.26-2.944 1.118-8.824 1.118-9.105zm-7.419 1.123c-.14 3.358 0 5.317-1.259 6.438-.28.423-.84.559-1.399.559-.84 0-1.54-.559-1.962-1.399-.559-1.118-.7-3.358-.7-6.438v-8.683c0-3.776 0-6.438.281-7.838.277-2.103 1.541-2.94 2.517-2.94.423 0 1.263.141 1.822 1.259.56 1.263.56 3.085.56 3.221.14 1.962.14 3.784.14 5.743v10.078zm29.82-25.481c-1.396-.981-2.659-.981-3.359-.981-3.22 0-5.184 1.959-5.884 2.663-.418.277-.7.841-1.118 1.118l-.14-3.353h-7.285v38.639h7.283v-24.918c-.14-1.962-.14-4.348 1.4-6.021.276-.141.976-.841 1.958-.841.277 0 .7 0 1.258.423 1.118.837 1.263 1.959 1.263 3.358v27.998h7.557V329.73c-.273-2.671-.554-4.77-2.936-6.306zm8.123-.559h7.424v38.639h-7.424v-38.639zm25.203 28.138c0 2.385 0 4.621-2.658 4.621-2.104 0-2.526-1.399-2.663-2.236 0-.277-.14-.704-.14-1.122-.142-3.358-.279-6.72-.279-10.082 0-3.498.136-6.998.278-10.5.141-1.118.423-2.24 1.263-2.935.418-.141.977-.281 1.54-.281 1.118 0 1.677.423 1.954.841.704 1.122.704 3.781.704 7.002h7.28c0-5.18 0-7.842-1.26-9.8-.84-1.541-3.503-4.062-8.12-4.062-.423 0-2.38 0-3.92.426-1.4.273-4.762 1.259-6.303 5.598-.282.977-.423 1.399-.563 3.221-.14 2.103-.278 4.058-.278 6.021-.282 4.058 0 7.983 0 12.041.136 3.08.278 6.302 2.24 8.819 2.518 3.358 7.28 3.358 8.401 3.358 2.521 0 4.621-.695 5.457-.977.56-.423 1.54-.841 2.521-2.099 1.681-2.236 1.822-4.621 1.962-7.42v-5.457l-7.419-.141v5.167zm33.605 0c0 2.385-.14 4.621-2.663 4.621-2.24 0-2.52-1.399-2.663-2.236 0-.277-.136-.704-.136-1.122-.136-3.358-.278-6.72-.278-10.082 0-3.498 0-6.998.141-10.5.273-1.118.56-2.24 1.4-2.935.422-.141.976-.281 1.394-.281 1.263 0 1.686.423 1.962.841.7 1.122.7 3.781.7 7.002h7.418c-.136-5.18 0-7.842-1.263-9.8-.977-1.541-3.499-4.062-8.26-4.062-.423 0-2.24 0-3.78.426-1.399.273-4.76 1.259-6.306 5.598-.278.977-.423 1.399-.559 3.221-.14 2.103-.282 4.058-.423 6.021-.136 4.058 0 7.983.136 12.041 0 3.08.141 6.302 2.104 8.819 2.521 3.358 7.42 3.358 8.401 3.358 2.663 0 4.761-.695 5.598-.977.563-.423 1.54-.841 2.385-2.099 1.822-2.236 1.958-4.621 2.095-7.42v-5.457l-7.415-.141c.01 1.668.01 3.345.01 5.167zm27.442-26.606c-2.099-1.959-6.725-2.095-7-2.095-.705 0-6.02.137-8.265 3.358-1.122 1.959-1.399 4.621-1.259 9.241h6.856c-.136-2.517 0-4.062.841-5.043.278-.559.56-.695 1.26-.695.562 0 1.121.273 1.398.273.981.841.981 2.103.981 2.526s0 .695-.14 1.399c-.279 2.517-1.405 2.799-3.5 3.917-.704.563-4.198 2.658-5.043 3.498-2.52 1.822-3.08 3.925-3.362 7.142v2.385c0 2.24-.136 5.738.841 7.974 1.54 3.503 4.343 3.644 5.457 3.644 1.54 0 3.644-.423 4.761-1.536.423-.559.841-1.263 1.122-1.822v3.085h7.143v-29.125c-.273-4.485-.554-6.724-2.09-8.128zm-5.32 28.71c0 .837-.278 1.681-1.122 2.236a2.688 2.688 0 0 1-1.122.277c-.563 0-.837-.277-1.122-.418-.84-.704-.84-1.545-.84-2.658-.137-.841-.274-1.822-.274-2.663 0-2.663.418-4.199 1.118-4.902.56-.695 1.54-1.399 1.54-1.536.7-.559 1.4-1.122 1.962-1.685.136 5.466.136 9.664-.14 11.349zm24.218-14.003c-.84-.977-1.536-1.822-2.38-2.799-1.537-1.399-3.5-3.08-3.5-5.043 0-1.536 1.122-3.08 2.658-3.08 3.362 0 3.221 4.48 3.085 6.861l6.72.141c0-3.221.136-6.442-1.54-9.241-1.259-1.962-3.22-3.503-8.264-3.503-5.598 0-7.702 2.381-8.678 4.902-.84 1.822-.98 3.781-.98 4.48 0 4.621 2.662 7.138 3.783 8.115.418.563.837.841 1.26 1.263a57.228 57.228 0 0 0 4.061 4.062c2.24 2.381 3.085 3.08 3.644 4.757.278.704.278 1.541.278 1.822 0 .704-.278 4.199-3.08 4.199-1.123 0-2.24-.423-2.664-1.259-.84-1.263-.84-4.058-.699-7.983h-6.856v5.32c0 1.822.141 2.663.273 3.358.841 2.944 3.085 6.442 9.383 6.442 4.621 0 7.557-1.399 8.683-2.935 1.817-2.381 1.817-7.42 1.817-7.983 0-4.058-1.54-6.716-4.48-9.664-.84-.832-1.677-1.531-2.52-2.231zm28.983-15.543a6.146 6.146 0 0 0-3.784-1.259c-2.658 0-4.62 1.536-6.716 3.358v-15.257h-7.419v51.102h7.42v-26.317c0-1.399.135-3.784 1.398-5.043.56-.704 1.536-.704 1.822-.704 2.8 0 2.518 3.925 2.518 4.062v28.147h7.42v-29.824c0-3.08 0-6.302-2.659-8.264zm-81.105-151.245v58.983s-5.52.443-12.813 0c-7.288-.222-9.497-4.638-9.497-7.949 0-3.533-.222-141.389 0-153.319 0-5.747 5.961-9.28 9.497-9.502 7.07-.222 12.595 0 12.595 0v54.566h84.386V0s-92.305.141-134.759.086V0s-7.035.013-18.03.025A284.004 284.004 0 0 1 150.964 0c-.132 0-.273.025-.409.03C113.747.081 39.609.163 26.587 0 10.459 0 2.062 18.334 2.062 22.093c0 3.976.222 235.72 0 243.669 1.988 21.209 23.86 24.743 23.86 24.743H306.27V172.319h-84.39zM74.977 69.364c0-3.533 5.082-9.28 11.046-9.498 5.743-.222 12.151.218 12.151.218v55.01H74.976v-45.73zm50.441 102.951c-.005 5.619-.005 11.158-.009 16.567H97.957v42.641h-11.93c-8.615-.443-11.046-7.953-11.046-8.837v-50.59l50.44.115c-.005.034-.005.064-.005.102z"/></svg>