<svg xmlns="http://www.w3.org/2000/svg" viewBox="0 0 949.8411865234375 206.48004150390625"><path d="M73.997 0C25.007 0 0 28.263 0 81.03V191.74l47.992-48.115V87.387c0-21.858 5.781-35.77 25.186-38.895 6.78-1.327 20.886-.862 29.858-.862v33.391c0 .303.042.85.12 1.126.374 1.352 1.594 2.346 3.041 2.346.82.005 1.583-.427 2.376-1.203L191.739.013 73.996 0zm84.156 62.865V119.1c0 21.858-5.786 35.776-25.186 38.89-6.78 1.327-20.886.866-29.858.866v-33.39c0-.299-.042-.85-.119-1.128a3.184 3.184 0 0 0-3.042-2.35c-.819 0-1.587.425-2.373 1.206l-83.166 83.27 117.74.016c48.99 0 73.996-28.267 73.996-81.032V14.745l-47.992 48.12zm493.603 86.098c-.094 15.66.79 22.11 3.49 30.093 2.112 5.85 5.154 10.765 9.421 14.793 7.936 8.034 18.948 11.47 36.135 11.575l20.424.132c.837 0 2.71-.106 3.465-.333a8.317 8.317 0 0 0 5.543-5.418c.247-.785.39-2.649.393-3.515l.086-13.257c0-.824-.098-2.7-.337-3.46a8.277 8.277 0 0 0-5.41-5.535c-.78-.252-2.654-.392-3.52-.4l-6.938-.035c-8.593-.06-15.023-2.55-18.36-7.483-2.744-4.007-3.315-8.618-3.226-23.957l.273-44.966c.01-.862.15-2.739.401-3.516a8.306 8.306 0 0 1 5.538-5.418c.76-.226 2.624-.337 3.465-.333l-.013-.013 19.38.115c.831.005 2.7-.102 3.46-.325a8.329 8.329 0 0 0 5.538-5.418c.247-.785.39-2.662.397-3.516l.086-13.248c.005-.827-.11-2.7-.333-3.464a8.299 8.299 0 0 0-5.414-5.534c-.785-.25-2.658-.393-3.52-.397l-19.396-.123c-.862 0-2.735-.14-3.51-.393a8.307 8.307 0 0 1-5.424-5.538c-.226-.76-.333-2.624-.328-3.464l.231-36.548c.005-.832-.106-2.705-.333-3.464a8.307 8.307 0 0 0-5.414-5.534c-.785-.25-2.663-.393-3.515-.397L662.019.53c-.832-.006-2.7.106-3.46.332a8.294 8.294 0 0 0-5.535 5.418c-.25.776-.397 2.654-.397 3.516l-.866 139.17zm297.988-84.39c0-.862-.14-2.735-.389-3.512a8.333 8.333 0 0 0-5.538-5.418c-.76-.23-2.633-.337-3.465-.328l-27.004.12c-17.178.11-28.19 3.55-36.13 11.583-4.266 4.02-7.309 8.943-9.42 14.792-2.706 7.983-3.593 14.44-3.496 30.088l-.508 84.143c-.005.832.102 2.71.333 3.464.781 2.615 2.816 4.711 5.414 5.534.785.252 2.654.401 3.52.401l22.46.132c.832.017 2.705-.098 3.461-.333a8.313 8.313 0 0 0 5.538-5.41c.247-.776.39-2.658.397-3.524l.457-72.026.094-2.3c-.09-15.347.486-19.947 3.23-23.958 3.332-4.928 11.413-5.777 19.998-5.828l11.88-.042c.856-.008 2.738-.154 3.51-.397a8.3 8.3 0 0 0 5.418-5.538c.226-.76.337-2.632.333-3.464l-.094-18.18zm-558.05-36.015c-.03.952-.154 2.394-.363 3.064a8.274 8.274 0 0 1-5.495 5.45c-.755.233-2.628.357-3.464.357h-38.264c-9.51 0-22.395.922-30.378 2.454-17.489 2.757-26.385 14.421-26.385 33.75v1.707c0 .832.123 12.058.35 12.813a8.288 8.288 0 0 0 5.45 5.5c.784.248 2.662.38 3.52.38h85.703c.866 0 2.743.132 3.52.371a8.303 8.303 0 0 1 5.45 5.504c.23.76.353 2.63.353 3.464v17.544c0 .858-.132 2.735-.375 3.515a8.285 8.285 0 0 1-5.495 5.45c-.76.225-2.628.35-3.464.35h-85.683c-.832 0-2.7.122-3.456.357a8.261 8.261 0 0 0-5.5 5.45c-.252.784-.375 2.648-.375 3.514v56.683c0 .858-.132 2.743-.38 3.515a8.274 8.274 0 0 1-5.495 5.45c-.76.234-2.624.35-3.464.35l-24.6.016c-.124 0-.296-.009-.449-.017-.952-.026-2.398-.14-3.067-.358a8.284 8.284 0 0 1-5.449-5.5c-.23-.76-.354-2.615-.354-3.46V87.126c1.233-36.822 6.442-51.853 22.707-66.889 10.125-9.203 23.313-15.03 41.101-17.489C317.42 1.213 320.48.91 338.579.91h43.801c.862 0 2.735.128 3.52.371a8.308 8.308 0 0 1 5.45 5.5c.208.704.332 2.321.345 3.23 0 .072.005.171.005.235l-.005-.005v17.87l.017-.014c.005.128-.005.307-.013.461zM758.842 148.99c-.094 15.65.793 22.11 3.495 30.093 2.107 5.841 5.154 10.765 9.421 14.793 7.932 8.026 18.948 11.47 36.135 11.575l20.42.123c.841.01 2.713-.098 3.465-.333a8.297 8.297 0 0 0 5.538-5.41c.247-.785.39-2.658.397-3.524l.081-13.248c.005-.832-.098-2.7-.333-3.46a8.265 8.265 0 0 0-5.414-5.535c-.78-.252-2.654-.392-3.515-.4l-6.938-.044c-8.593-.05-15.023-2.543-18.36-7.475-2.747-4.007-3.319-8.618-3.23-23.957l.273-44.97c.01-.863.154-2.74.405-3.513a8.3 8.3 0 0 1 5.534-5.423c.764-.222 2.63-.337 3.465-.333l-.017-.013 19.38.12c.831.004 2.7-.108 3.464-.329a8.339 8.339 0 0 0 5.538-5.415c.243-.785.39-2.662.397-3.52l.086-13.248c0-.827-.11-2.7-.333-3.46a8.31 8.31 0 0 0-5.418-5.538c-.785-.248-2.658-.393-3.515-.397l-19.4-.119c-.857 0-2.735-.145-3.51-.397a8.308 8.308 0 0 1-5.424-5.534c-.222-.764-.328-2.624-.324-3.464l.231-36.553c.005-.832-.11-2.7-.337-3.46a8.315 8.315 0 0 0-5.41-5.538c-.785-.252-2.663-.393-3.52-.397L769.101.55c-.832-.005-2.7.102-3.465.328a8.315 8.315 0 0 0-5.534 5.418c-.25.781-.397 2.654-.397 3.515l-.857 139.175zm-297.538 47.245c0 .866-.132 2.743-.37 3.524a8.314 8.314 0 0 1-5.505 5.45c-.76.225-2.628.357-3.46.357l-22.457.01c-.115 0-.295-.01-.452-.01-.943-.043-2.394-.166-3.063-.375a8.266 8.266 0 0 1-5.453-5.49c-.23-.76-.35-2.633-.35-3.465v-186c0-.858.128-2.74.371-3.516a8.288 8.288 0 0 1 5.5-5.448c.7-.218 2.321-.329 3.226-.346h22.69c.858 0 2.735.128 3.515.375a8.308 8.308 0 0 1 5.45 5.5c.23.76.353 2.63.353 3.461v185.976zm123.59-31.894c0 .866-.129 2.743-.376 3.524a8.308 8.308 0 0 1-5.5 5.45c-.76.225-2.629.35-3.465.35h-25.07c-16.265 0-22.094-3.376-22.094-13.193 0-8.6 5.824-13.807 15.351-13.807h31.833c.857 0 2.74.132 3.515.375a8.288 8.288 0 0 1 5.448 5.5c.231.76.35 2.624.35 3.464v8.337h.005zm37.737-73.207c-2.15-7.053-5.824-13.192-10.125-18.402-9.809-11.047-22.088-15.962-42.039-16.264-4.297 0-9.809-.303-16.87-.303h-46.852c-.832 0-2.7.12-3.46.354a8.313 8.313 0 0 0-5.505 5.444c-.243.781-.37 2.663-.37 3.524V78.73c0 .832.12 2.705.35 3.464a8.325 8.325 0 0 0 5.447 5.5c.785.243 2.658.375 3.52.375h46.865c20.412 0 28.894 4.37 30.84 17.438-.005.88-.136 2.688-.38 3.456a8.266 8.266 0 0 1-5.5 5.45c-.76.225-2.62.35-3.46.35h-27.376c-23.625 0-35.588 2.456-43.57 8.272-11.039 7.983-17.798 22.716-17.798 38.366 0 20.233 11.972 37.423 28.856 41.715 8.27 2.151 14.417 2.457 37.423 2.457h64.034c.837 0 2.705-.123 3.465-.35a8.296 8.296 0 0 0 5.5-5.449c.243-.785.371-2.658.371-3.515v-74.752c0-16.264-.606-21.478-3.366-30.375z"/></svg>