<svg xmlns="http://www.w3.org/2000/svg" viewBox="0 0 979.47900390625 302.93402099609375"><path d="M438.673 211.968c-31.637 0-56.32-25.327-56.32-56.798 0-31.163 24.99-56.785 56.32-56.785 17.702 0 31.62 7.117 42.394 19.614l-16.78 14.549c-6.167-7.274-15.502-12.501-25.789-12.501-18.812 0-33.365 15.356-33.365 35.119 0 20.091 15.19 35.281 33.365 35.281 8.072 0 16.926-2.377 22.626-8.069v-13.773h-22.135v-19.131h43.178v41.766c-10.599 12.642-24.52 20.728-43.495 20.728zm84.645-1.443v-18.654h13.755v-73.242h-13.755v-18.82h50.134v18.82h-13.76v73.242h13.76v18.654h-50.134zm107.043 0v-89.839h-21.206V99.809h65.182v20.877h-21.2v89.839h-22.776zm97.865 0v-89.839h-21.214V99.809h65.16v20.877h-21.184v89.839h-22.763zm79.752 0v-18.654h13.751v-73.242h-13.75v-18.82h50.145v18.82h-13.769v73.242h13.77v18.654h-50.148zm95.436 0V99.809h40.328c21.816 0 35.737 14.075 35.737 36.377s-13.927 36.228-35.737 36.228h-17.88v38.11h-22.448zm54.392-74.338c0-10.12-6.48-15.813-17.553-15.813h-14.395v31.471h14.395c10.918 0 17.553-5.534 17.553-15.659zM151.458 0C67.81 0 0 67.81 0 151.463c0 83.657 67.81 151.471 151.458 151.471 83.67 0 151.466-67.815 151.466-151.471C302.924 67.81 235.131.001 151.458.001zm69.96 138.299l-68.91 93.299-68.912-93.299c-5.829-6.857-11.648-30.728 8.367-43.921 17.041-11.239 33.233-2.726 41.72 7.134 3.16 3.682 8.588 8.013 18.824 8.013 10.24 0 15.663-4.335 18.83-8.013 8.481-9.861 24.673-18.373 41.723-7.134 20.015 13.192 14.191 37.06 8.358 43.921z"/></svg>