<svg xmlns="http://www.w3.org/2000/svg" viewBox="0 0 701.4830322265625 422.34100341796875"><path d="M214.736 236.708c0 5.543 3.541 9.105 9.66 9.105 10.943 0 18.67-9.152 19.314-22.336-2.897-.303-4.19-.35-6.118-.35-15.134 0-22.856 4.565-22.856 13.581zM491.588.001c-54.016 0-103.688 20.663-140.663 54.741-2.547 2.33-4.95 4.813-7.377 7.266 2.398-2.423 4.77-4.877 7.283-7.181.03-.025.06-.06.09-.086C313.584 21.026 264.278 0 209.899 0 94.255 0 0 94.618 0 211.35c0 116.374 94.255 210.991 209.9 210.991 54.377 0 103.68-20.668 141.021-54.741 36.98 34.074 86.648 54.741 140.663 54.741 116.002 0 209.894-94.618 209.894-210.991C701.483 94.622 607.585 0 491.588 0zM339.89 65.614a219.928 219.928 0 0 0-10.202 11.606h-.005a220.404 220.404 0 0 1 10.206-11.606zM148.753 263.221l16.09-84.369-37.027 84.369h-24.46l-4.506-83.84-16.089 83.84h-24.46l20.918-109.743h42.163l1.925 67.976 29.943-67.976h43.781l-21.243 109.743h-27.033zm122.623-47.395l-5.794 31.71-.964 5.666-.644 4.531-.32 3.072-.307 2.419h-22.536l.65-9.229c-6.763 7.334-16.09 10.76-28.34 10.76-14.486 0-24.46-9.933-24.46-24.354 0-21.735 17.381-34.423 47.316-34.423 2.901 0 6.76.261 10.94.696.644-2.944.964-4.177.964-5.798 0-5.893-4.83-8.089-17.382-8.089-7.73 0-16.418.922-22.212 2.462l-3.86.969-2.249.576 3.546-20.091c13.517-3.435 22.204-4.706 32.183-4.706 23.173 0 35.41 9.058 35.41 26.163-.01 4.386-.33 7.736-1.938 17.669zm56.658 28.844c9.664 0 18.351-1.767 28.002-5.675l-4.489 22.336a104.55 104.55 0 0 1-27.37 3.61c-30.255 0-46.024-13.721-46.024-40.013 0-30.601 19.951-53.154 46.99-53.154 22.207 0 36.372 12.621 36.372 32.406 0 6.601-.968 13.014-3.23 22.067h-53.427c-.32 1.365-.32 1.979-.32 2.812 0 10.334 8.047 15.611 23.497 15.611zm103.006-50.266c-7.078-.827-14.165-1.319-19.639-1.319-8.687 0-13.2 2.462-13.2 7.254 0 4.177 1.301 5.192 12.56 9.715 13.85 5.414 19.315 12.582 19.315 24.849 0 20.356-13.2 29.764-42.168 29.764-3.542 0-8.37-.26-14.809-.743-3.217-.226-5.794-.482-7.403-.802l-4.83-.879-1.28-.214 3.857-20.582c8.687 2.419 16.09 3.524 24.461 3.524 10.624 0 15.454-2.505 15.454-8.047 0-4.091-1.617-5.41-12.557-9.856-14.486-5.846-20.919-13.627-20.919-24.879 0-16.49 10.62-30.208 40.875-30.216 6.434 0 17.054.798 24.133 1.762l-3.848 20.668zm42.171 48.819c2.902 0 5.16-.264 7.082-.841l-3.533 19.798c-7.403 2.018-13.2 2.897-19.319 2.897-13.84 0-21.244-6.942-21.244-19.606 0-2.509.32-5.188.64-8l1.61-8.764 1.283-7.074 12.561-68.151h26.718l-3.857 20.488h13.832l-3.857 21.721h-13.84l-7.079 37.24c-.324 1.634-.324 2.858-.324 3.695-.005 4.621 2.89 6.596 9.327 6.596zm65.99-44.147c-12.882 0-17.059 9.583-26.723 64.145h-27.033l16.418-89.255h24.465l-2.573 13.547c8.367-10.555 14.806-14.515 23.492-14.515.968 0 1.937.089 2.897.222 0 .047.968.222 2.261.529.316.09.64.09 2.893.969l-9.655 25.237-3.226-.653c-1.284-.145-2.249-.226-3.217-.226zm100.116 23.706c-4.186 29.671-24.793 42.858-52.467 42.858-30.583 0-42.816-18.509-42.816-41.152 0-31.616 20.92-53.069 53.115-53.069 27.998 0 42.808 17.63 42.808 40.269 0 5.543 0 5.901-.64 11.094zm-42.812-29.598c-13.84 0-22.208 16.264-22.208 30.605 0 12.135 5.794 20.275 15.458 20.087 5.794 0 18.342-7.953 20.591-21.854.64-3.251.96-6.81.96-10.68 0-9.327-3.86-18.159-14.8-18.159zm-259.127 10.462c0-7.254-4.502-11.477-12.553-11.477-8.69 0-14.81 5.671-17.378 16.008l29.935.047c-.005-1.894-.005-3.387-.005-4.578z"/></svg>