<svg xmlns="http://www.w3.org/2000/svg" viewBox="0 0 709.5070190429688 429.03497314453125"><path d="M479.227 0h25.088c.551.145 1.092.367 1.651.426 5.423.585 10.885.913 16.264 1.737 44.151 6.737 82.816 25.178 114.522 56.576 52.194 51.687 72.755 114.59 61.85 187.089-7.023 46.686-28.442 86.643-62.97 118.878-49.192 45.935-107.683 64.329-174.333 55.42-38.39-5.128-72.504-20.766-102.4-45.462-2.675-2.214-5.287-4.497-7.97-6.779-.448.337-.802.572-1.114.845-32.106 28.539-69.342 45.995-111.966 51.806-23.625 3.217-47.147 2.474-70.45-2.488-46.15-9.831-84.823-32.623-115.747-68.202-28.288-32.55-44.966-70.413-50.197-113.267-.504-4.104-.973-8.214-1.455-12.322v-25.6c.158-.726.367-1.442.465-2.176 1.11-8.534 1.711-17.16 3.375-25.583C13.274 123.176 36.314 83.137 73 51.205c32.12-27.96 69.482-44.514 111.802-49.737 4.104-.507 8.214-.977 12.318-1.464h25.6c.457.145.904.371 1.374.427 4.911.529 9.851.875 14.741 1.566 40.47 5.726 76.121 22.166 107.315 48.457 1.6 1.349 3.183 2.722 4.775 4.088 2.073-1.809 3.917-3.456 5.803-5.048 31.864-26.906 68.471-42.957 109.88-48.03C470.815.943 475.022.482 479.229 0zM38.088 159.8L20.429 266.146h20.86l13.49-79.714c.141.022.278.042.414.069l1.797 79.821c4.608 0 8.87-.111 13.125.051 1.89.072 2.6-.644 3.196-2.338 7.782-21.999 15.642-43.973 23.488-65.95 1.527-4.28 3.09-8.546 4.634-12.817.103.038.205.077.312.115-4.262 26.885-8.52 53.773-12.804 80.827h22.314c5.892-35.464 11.776-70.874 17.673-106.376-.623-.086-.955-.167-1.284-.167-10.752-.009-21.504.034-32.256-.06-1.736-.013-2.129.879-2.55 2.176-4.648 14.25-9.32 28.493-13.983 42.739-2.24 6.84-4.488 13.67-6.733 20.506-.132-.026-.264-.055-.397-.081-.37-21.683-.743-43.367-1.118-65.147H38.089zm615.28 29.854c-.398-.128-.505-.132-.555-.184-.337-.384-.662-.776-.994-1.165-5-5.871-10.97-9.92-18.986-10.202-9.42-.328-17.003 3.733-22.852 10.611-14.31 16.84-18.683 36.467-13.269 57.647 5.593 21.871 28.19 28.066 44.971 13.017.36-.325.764-.598 1.433-1.113-.328 2.858-.615 5.342-.904 7.877h21.192c5.777-35.507 11.524-70.853 17.306-106.373H658.4c-.846 4.992-1.682 9.928-2.51 14.865-.84 4.95-1.664 9.899-2.52 15.018zm-469.386 76.578c1.075-7.685 2.078-15.096 3.158-22.498 1.826-12.553 4.14-25.054 5.45-37.662 1.68-16.137-7.092-26.244-23.135-27.977-9.813-1.058-19.337.371-28.868 2.526-3.597.81-5.529 2.133-5.832 6.114-.363 4.792-1.476 9.528-2.346 14.788 1.64-.427 2.837-.696 4.01-1.046 8.79-2.624 17.784-3.213 26.825-2.159 7.296.849 10.01 6.289 7.057 12.621-5.175 0-10.193-.197-15.19.051-5.995.295-11.776 1.728-17.199 4.416-14.097 6.985-18.419 21.423-16.192 34.663 1.408 8.354 5.743 14.899 14.302 16.901 10.287 2.402 19.81.248 27.606-7.411.576-.567.935-1.357 1.395-2.048.183.166.367.329.546.49v8.235c6.216-.005 12.254-.005 18.415-.005zm358.708.009c.922-6.541 1.775-12.873 2.713-19.187.947-6.404 2.087-12.783 2.936-19.204 1.11-8.435 2.577-16.879 2.867-25.352.448-12.975-6.797-21.338-19.597-23.833-10.966-2.137-21.688-.435-32.4 2.035-3.393.781-5.223 2.048-5.522 5.824-.389 4.881-1.489 9.703-2.308 14.712.65 0 .981.055 1.288-.013a23.88 23.88 0 0 0 1.958-.554c9.096-2.923 18.445-3.439 27.818-2.27 7.232.9 9.613 6.263 6.4 12.553-5.09 0-10.03-.197-14.942.051a43.879 43.879 0 0 0-16.973 4.344c-17.664 8.525-19.545 29.274-14.533 40.73 2.415 5.526 6.477 9.63 12.42 10.91 10.453 2.245 19.985.217 27.84-7.535.542-.534 1.067-1.079 1.822-1.843v8.635h18.21zm-182.472-35.76c1.971-7.603 3-15.062 2.897-22.698-.278-20.847-15.786-33.302-36.74-29.824-12.279 2.035-20.553 9.886-26.219 20.531-6.579 12.365-8.486 25.706-6.545 39.458 2.483 17.579 12.041 27.132 29.175 29.662 9.575 1.416 19.021.312 28.403-1.911 2.83-.67 4.288-1.843 4.28-4.834-.006-1.425.485-2.85.72-4.279.717-4.386 1.421-8.776 2.181-13.47-1.01.457-1.62.76-2.24 1.019-9.762 4.118-19.844 5.589-30.242 3.123-7.173-1.694-10.918-6.882-10.96-14.101-.014-2.151.711-2.739 2.811-2.726 13.223.086 26.445.043 39.671.043.913.009 1.835.009 2.808.009zm125.504-44.735c1.267-7.309 2.538-14.409 3.657-21.538.09-.563-.738-1.656-1.36-1.877-3.043-1.088-6.128-2.091-9.25-2.893-20.716-5.312-38.52-.431-51.444 16.849-14.13 18.901-16.994 40.623-11.665 63.223 3.447 14.622 12.672 24.49 27.746 28.01 9.681 2.257 19.15.58 28.52-1.971.566-.154 1.156-1.152 1.28-1.834.9-4.945 1.688-9.911 2.5-14.873.383-2.355.741-4.714 1.11-7.048-4.762 1.502-9.059 3.226-13.518 4.185-13.367 2.889-23.625-3.998-26.082-17.374-1.762-9.6-.802-19.042 2.611-28.155 6.827-18.193 21.602-24.636 39.611-17.404 2.035.827 4.037 1.737 6.285 2.701zm-233.929-5.85c-.286-.243-.4-.423-.538-.444-10.223-1.575-20.476-2.752-30.759-.64-18.79 3.853-28.442 23.446-19.75 40.013 3.17 6.041 8.576 9.544 14.447 12.497 2.437 1.221 4.885 2.423 7.266 3.746 2.663 1.476 3.801 3.759 3.384 6.839-.406 2.961-2.095 4.881-4.856 5.637-2.279.627-4.71 1.288-7.014 1.118-7.099-.529-14.169-1.447-21.529-2.245-.904 5.445-1.97 11.558-2.85 17.698-.068.469 1.084 1.502 1.796 1.651 10.338 2.159 20.783 2.739 31.266 1.433 7.134-.887 13.913-2.94 18.89-8.598 12.108-13.755 7.19-36.058-9.609-43.947-2.692-1.267-5.509-2.406-7.91-4.104-1.345-.952-2.539-2.846-2.792-4.476-.623-4.002 1.58-6.728 6.033-7.287 3.857-.487 7.813-.358 11.716-.286 3.195.06 6.383.44 9.656.679 1.088-6.656 2.13-13.022 3.153-19.286zm36.181 66.97c-1.566 0-2.825.009-4.079 0-1.276-.009-2.56.034-3.836-.051-3.836-.26-5.555-2.018-5.67-5.811-.035-1.105 0-2.227.182-3.311 1.976-11.669 4.02-23.334 5.957-35.012.256-1.536.875-1.954 2.33-1.916 3.14.089 6.284.025 9.612.025.964-7.104 1.894-13.986 2.875-21.218h-11.554l2.454-13.073c-7.21 0-14.19-.047-21.163.094-.503.009-1.284 1.34-1.42 2.142-3.585 21.423-7.156 42.846-10.587 64.294-.938 5.871-2.06 11.823-1.984 17.724.154 11.452 6.784 17.541 18.193 17.387 3.464-.047 6.912-.845 10.381-1.199 4.08-.414 6.281-2.168 6.451-6.678.162-4.454 1.19-8.875 1.856-13.397zm75.008 19.452c7.274 0 14.336.043 21.402-.081.538-.009 1.421-1.071 1.536-1.75 1.476-8.563 2.594-17.195 4.301-25.707a378.137 378.137 0 0 1 6.183-26.065c1.536-5.598 5.295-9.066 11.597-8.793.133.005.278-.158.324-.188 1.23-4.245 2.274-8.465 3.687-12.557 1.4-4.062 3.17-8 4.856-12.185-10.765-1.459-15.783 5.922-21.226 12.975.61-4.036 1.216-8.077 1.826-12.113h-20.442c-4.685 28.873-9.34 57.531-14.042 86.464zm232.282-62.255l8.657-25.135c-10.419-1.399-15.385 6.016-20.847 12.936.61-4.002 1.212-8 1.856-12.207-.994-.081-1.736-.184-2.479-.188-5.206-.013-10.407.06-15.607-.042-1.822-.038-2.437.529-2.726 2.381-3.618 23.227-7.343 46.443-11.029 69.662-.773 4.856-1.502 9.711-2.287 14.844 7.24 0 14.221.043 21.192-.089.486-.009 1.26-1.195 1.383-1.92 1.625-9.489 2.923-19.038 4.783-28.476a256.406 256.406 0 0 1 5.74-23.283c1.6-5.389 5.136-9.075 11.365-8.482zm52.821 13.61c-.298 5.849-1.007 11.61-3.533 16.913-1.263 2.649-2.893 5.257-4.877 7.399-3.639 3.93-8.333 5.243-13.529 3.665-4.872-1.481-6.788-5.534-7.535-10.065-1.399-8.49-.696-16.87 2.991-24.712 1.344-2.855 3.345-5.585 5.611-7.782 5.598-5.427 17.643-5.508 19.925 6.489.512 2.663.644 5.397.947 8.094zm-480.576 10.065c-.286 7.147-1.817 13.611-7.343 18.479-3.046 2.683-6.712 3.618-10.692 3.106-2.743-.354-4.659-1.894-5.662-4.531-2.053-5.393.29-12.062 5.372-14.784 5.721-3.063 11.853-3.161 18.325-2.27zm358.908.005c-.269 6.839-1.822 12.962-6.737 17.788-2.944 2.893-6.54 4.177-10.683 3.865-3.768-.286-6.503-2.757-7.168-6.473-.999-5.589 1.605-10.961 6.72-13.334 5.658-2.624 11.618-2.731 17.87-1.848zm-209.323-15.015c1.43-10.974 8.657-16.973 16.875-15.377 4.736.917 7.548 3.806 8.077 8.619.235 2.172.038 4.391.038 6.758h-24.99z"/></svg>