<svg xmlns="http://www.w3.org/2000/svg" viewBox="0 0 924.4900512695312 246.08355712890625"><path d="M111.326.008H39.497a9.97 9.97 0 0 0-9.86 8.431L.58 192.618c-.58 3.635 2.236 6.921 5.922 6.921h34.295c4.911 0 9.088-3.575 9.861-8.431l7.834-49.685c.755-4.868 4.945-8.431 9.856-8.431h22.737c47.317 0 74.624-22.895 81.754-68.275 3.217-19.849.141-35.452-9.156-46.37C153.473 6.353 135.365.009 111.327.009zm8.286 67.273c-3.925 25.775-23.625 25.775-42.662 25.775H66.11l7.602-48.132a5.99 5.99 0 0 1 5.914-5.056h4.97c12.97 0 25.208 0 31.526 7.394 3.772 4.411 4.928 10.965 3.49 20.019zm206.43-.828H291.64c-2.935 0-5.462 2.137-5.909 5.051l-1.527 9.617-2.406-3.482c-7.445-10.808-24.05-14.421-40.623-14.421-38.007 0-70.477 28.787-76.796 69.18-3.29 20.147 1.387 39.403 12.813 52.83 10.48 12.361 25.481 17.498 43.324 17.498 30.626 0 47.611-19.687 47.611-19.687l-1.536 9.562c-.58 3.652 2.236 6.929 5.901 6.929h30.981c4.923 0 9.088-3.575 9.865-8.443l18.586-117.721c.601-3.623-2.206-6.912-5.88-6.912zm-47.953 66.944c-3.32 19.652-18.914 32.845-38.81 32.845-9.988 0-17.97-3.204-23.099-9.272-5.082-6.033-7.014-14.601-5.397-24.162 3.098-19.49 18.957-33.118 38.55-33.118 9.762 0 17.707 3.247 22.938 9.369 5.243 6.183 7.322 14.818 5.82 24.337zm231.14-66.944h-34.575a10.02 10.02 0 0 0-8.264 4.377l-47.675 70.221-20.21-67.481a9.996 9.996 0 0 0-9.57-7.117h-33.963c-4.135 0-6.993 4.027-5.679 7.914l38.067 111.731-35.798 50.526c-2.812 3.981.022 9.459 4.885 9.459h34.53a9.975 9.975 0 0 0 8.2-4.293L514.144 75.851c2.756-3.968-.077-9.399-4.915-9.399zM623.672.008h-71.846a9.988 9.988 0 0 0-9.856 8.431l-29.056 184.179c-.58 3.635 2.24 6.921 5.905 6.921h36.864c3.426 0 6.353-2.505 6.89-5.905l8.247-52.207a9.966 9.966 0 0 1 9.851-8.431h22.725c47.33 0 74.633-22.895 81.766-68.275 3.221-19.849.124-35.452-9.169-46.37C665.804 6.353 647.709.008 623.671.008zm8.277 67.273c-3.917 25.775-23.607 25.775-42.667 25.775h-10.828l7.616-48.132a5.969 5.969 0 0 1 5.901-5.056h4.966c12.962 0 25.207 0 31.543 7.394 3.76 4.411 4.903 10.965 3.47 20.019zm206.413-.828h-34.376c-2.957 0-5.466 2.137-5.9 5.051l-1.524 9.617-2.41-3.482c-7.449-10.808-24.038-14.421-40.619-14.421-38.01 0-70.46 28.787-76.792 69.18-3.277 20.147 1.391 39.403 12.813 52.83 10.5 12.361 25.476 17.498 43.323 17.498 30.63 0 47.6-19.687 47.6-19.687l-1.529 9.562c-.572 3.652 2.236 6.929 5.918 6.929h30.976c4.903 0 9.083-3.575 9.861-8.443l18.594-117.721c.563-3.623-2.245-6.912-5.935-6.912zm-47.948 66.944c-3.294 19.652-18.91 32.845-38.806 32.845-9.97 0-17.97-3.204-23.1-9.272-5.073-6.033-6.993-14.601-5.393-24.162 3.111-19.49 18.944-33.118 38.541-33.118 9.766 0 17.698 3.247 22.938 9.369 5.27 6.183 7.343 14.818 5.82 24.337zM878.909 5.065l-29.474 187.554c-.572 3.635 2.236 6.921 5.905 6.921h29.636a9.962 9.962 0 0 0 9.856-8.431L923.914 6.921c.576-3.635-2.236-6.921-5.9-6.921h-33.192a6.016 6.016 0 0 0-5.913 5.065z"/></svg>