<svg xmlns="http://www.w3.org/2000/svg" viewBox="0 0 492.2389221191406 450.59490966796875"><path d="M343.831 354.257h-.294c-6.725-10.573-18.202-15.761-30.528-15.761-23.078 0-42.154 17.51-42.154 40.994 0 23.654 18.65 41.293 42.154 41.293 12.186 0 23.667-5.303 30.528-15.62h.294v13.773h10.027v-78.438h-10.027v13.76zm-30.84 57.502c-18.355 0-32.11-13.495-32.11-31.834 0-18.483 13.478-32.41 32.11-32.41 17.788 0 31.377 14.746 31.377 32.257 0 17.498-13.59 31.987-31.377 31.987zm67.79-366.886c0-24.68-20.195-44.873-44.87-44.873h-179.55c-24.695 0-44.898 20.194-44.898 44.873v179.55c0 24.7 20.194 44.869 44.898 44.869h179.52c24.7 0 44.885-20.173 44.885-44.868l.013-179.55zm-48.987 161.173c0 7.846-6.4 14.263-14.25 14.263H174.722c-7.859 0-14.28-6.417-14.28-14.263V63.236c0-7.85 6.42-14.255 14.28-14.255h142.822c7.833 0 14.25 6.405 14.25 14.255v142.81zm-85.537 134.186h10.095v78.784h-9.514v-12.233h-.294c-4.595 9.659-14.814 14.127-25.19 14.127-10.236 0-20.599-3.627-27.085-11.815-5.61-7.036-6.908-16.534-6.908-25.344v-43.52h10.053v43.358c0 16.28 5.918 28.237 23.936 28.237 6.622 0 11.798-1.715 16.704-6.315 6.904-6.651 8.188-14.434 8.188-23.65l.017-41.63zm36.58-234.146v57.118c0 4.484-3.666 8.158-8.163 8.158h-57.118c-4.502 0-8.149-3.686-8.149-8.158v-57.118c0-4.493 3.648-8.162 8.15-8.162h57.117c4.497-.005 8.162 3.682 8.162 8.162zm168.246 232.406c-22.528 0-40.726 18.923-40.726 41.28 0 22.524 18.197 41.007 40.862 41.007 17.352 0 32.82-11.183 38.558-27.533h-10.586c-4.318 11.644-16.043 18.513-28.096 18.513-15.326 0-29.7-12.928-30.404-28.394h71.394c0-1.011.154-1.87.154-2.863-.005-22.67-18.206-42.01-41.157-42.01zm-30.409 35.839c2.437-15.34 14.912-26.812 30.545-26.812 15.791 0 28.083 11.473 30.678 26.812h-61.222zM73.415 388.113c0 8.943-3.882 17.288-10.918 23.53-6.878 6.107-16.022 9.43-25.719 9.43h-.098c-10.248 0-20.109-3.946-27.05-10.853C3.435 404.004 0 396.016 0 387.594h10.39c0 5.623 2.324 11.055 6.57 15.3 5.008 4.988 12.198 7.834 19.72 7.834h.086c14.477 0 26.27-10.12 26.27-22.567-.013-9.336-5.18-16.751-30.327-22.541-10.223-2.398-17.122-5.572-21.709-9.98-4.889-4.718-7.274-11.05-7.274-19.288 0-16.24 14.575-29.487 32.478-29.487 8.593 0 16.67 2.96 22.793 8.315 6.323 5.526 9.813 12.997 9.813 21.065H58.421c0-10.488-9.945-18.986-22.22-18.986-11.994 0-22.115 8.75-22.115 19.098 0 9.476 3.247 15.027 20.975 19.144 18.944 4.339 38.32 11.639 38.358 32.615zm85.508-33.856h-.286c-6.737-10.457-18.35-15.761-30.54-15.761-23.07 0-42.155 17.51-42.155 40.994 0 23.654 18.65 41.293 42.154 41.293 12.19 0 23.803-5.303 30.541-15.62h.298v45.432h10.018V340.498h-10.036v13.76zm-30.826 57.502c-18.346 0-32.103-13.495-32.103-31.834 0-18.483 13.47-32.41 32.103-32.41 17.796 0 31.407 14.746 31.407 32.257 0 17.498-13.606 31.987-31.407 31.987zm278.186-73.267v10.603c-13.76 1.127-22.357 9.894-22.357 23.932v45.9h-10.039v-78.43h10.04v11.338h.281v-.03c4.288-10.04 11.9-12.603 22.076-13.312z"/></svg>