<svg xmlns="http://www.w3.org/2000/svg" viewBox="0 0 816.2539672851562 358.35302734375"><path d="M758.162 182.878c0-3.985 2.905-6.882 6.52-6.882 3.993 0 6.89 2.906 6.89 6.882 0 3.631-2.906 6.89-6.89 6.89-3.615 0-6.52-3.269-6.52-6.89zm6.52 5.073c2.904 0 5.435-2.176 5.435-5.073s-2.538-5.069-5.436-5.069c-2.534 0-5.069 2.176-5.069 5.07 0 2.896 2.538 5.072 5.07 5.072zm-.727-2.176h-1.45v-5.798h3.993c.726.367.726 1.092.726 1.817 0 .358-.359 1.084-1.088 1.45l1.451 2.534h-1.813l-.726-2.176h-1.092v2.171-3.26h.726c.367 0 .734 0 .734-.367.36 0 .36-.363.36-.729 0 0 0-.358-.36-.358 0-.367-.367 0-.734 0h-.726v4.714zM231.911 4.697L167.221 179.2l-6.943-35.452c-15.642-42.346-46.102-80.986-91.525-106.88L127.91 260.37l69.948-.009L301.909 4.697h-69.998zm55.424 255.775L328.679 4.48h66.142l-41.374 255.992h-66.112zm305.894-249.68C580.152 5.606 559.54 0 534.003 0c-65.408 0-111.368 34.735-111.757 84.424-.418 36.89 32.862 57.378 57.898 69.662 25.766 12.536 34.398 20.57 34.291 31.778-.217 17.088-20.625 24.883-39.616 24.883-26.398 0-40.474-3.8-62.118-13.423l-8.584-4.002-9.233 57.25c15.441 7.232 43.968 13.334 73.67 13.721 69.413 0 114.525-34.38 115.066-87.505.29-29.167-17.37-51.306-55.56-69.577-23.024-11.84-37.326-19.69-37.099-31.727.051-10.633 11.976-21.99 37.927-21.99 21.615-.444 37.167 4.557 49.46 9.834l5.883 2.966 9-55.505zm169.463-6.077h-51.041c-15.846 0-27.69 4.608-34.697 21.243L578.829 260.51h69.466s11.35-31.518 13.893-38.459c7.6 0 74.991.132 84.6.132 2.043 8.97 8.09 38.32 8.09 38.32h61.376L762.695 4.714zm-81.497 164.983c5.534-14.669 26.364-71.535 26.364-71.535-.423.691 5.376-14.856 8.793-24.435l4.408 22.127s12.702 61.065 15.317 73.843h-54.882zM107.213.338H.603L0 4.735c82.858 21.16 137.541 73.302 160.273 134.788L137.148 21.926C133.184 5.653 121.57.93 107.213.337zm207.932 356.291h10.89l.008-.055 28.736-.175 1.433-10.794-28.702.166 3.158-23.12 21.866-.172 1.438-10.79-21.832.17 2.837-20.787 27.806-.17 1.438-10.795-38.664.222zm104.994 0h10.897v-.055l28.736-.175 1.442-10.794-28.706.166 3.166-23.12 21.854-.172 1.447-10.79-21.824.17 2.833-20.787 27.798-.17 1.447-10.795-38.664.222zm-29.478-76.522l-12.036.222-10.419 76.301h10.897v-.055l28.736-.175 1.442-10.794-28.706.166zm155.336 10.965h21.462l-9.088 65.558h10.902l.01-.055.776-.175 8.325-65.327 23.864-.17 1.433-10.796-56.226.222zm93.372-10.965l-23.177.226-11.358 76.301 10.897-.235h.781l4.002-32.278 5.862-.005 17.575 32.281h11.776l-17.233-32.264c21.636-5.329 27.895-44.288.875-44.027zm-4.804 34.62h-12.53l3.22-25.297 13.398.175c12.058.15 5.927 25.122-4.087 25.122zm73.906-37.197c-18.283 0-35.208 18.095-37.798 40.414-2.582 22.31 10.15 40.41 28.433 40.41s35.208-18.096 37.79-40.41c2.59-22.319-10.138-40.414-28.424-40.414zm19.264 40.413c-1.869 16.137-14.28 31.3-27.515 31.3-13.218 0-22.259-15.163-20.382-31.3 1.87-16.14 14.114-31.3 27.337-31.3s22.438 15.16 20.561 31.3zm77.351-37.615l-8.662 54.9-26.513-54.9h-10.59l-12.309 76.301 10.893-.23h.793l8.367-58.984 28.621 58.983h9.088l10.598-76.07zm-329.385 37.615c-2.7 22.31 10.538 40.41 29.551 40.41 7.035 0 13.88-2.48 19.853-6.738v-12.873c-5.133 5.21-11.687 8.431-18.509 8.431-13.75 0-23.322-13.09-21.385-29.23 1.95-16.142 14.682-29.232 28.424-29.232 6.652 0 12.318 3.055 16.175 8.034l5.837-10.108c-5.244-5.692-12.412-9.11-20.663-9.11-19.008 0-36.6 18.095-39.283 40.414z"/></svg>