<svg xmlns="http://www.w3.org/2000/svg" viewBox="0 0 962.6610107421875 345.97296142578125"><path d="M634.451 323.402a11881.263 11881.263 0 0 1-13.095-37.952c-.486-1.455-1.275-1.967-2.808-1.928-3.542.12-7.078.158-10.615-.038-2.163-.137-2.99.789-3.644 2.675a7941.516 7941.516 0 0 1-15.232 42.432c-1.728 4.856-3.465 9.673-5.393 15.023 3.836 0 7.215-.081 10.598.038 1.51.043 2.146-.55 2.577-1.925.947-3.03 2.082-6.016 2.986-9.002.473-1.416 1.2-2.043 2.812-2.01 5.115.137 10.245.043 15.377.043 6.038 0 6 0 7.928 5.82.746 2.32 1.101 5.385 2.731 6.605 1.574 1.178 4.582.414 6.942.435 1.813.038 3.618.022 5.683.022-.256-.981-.375-1.476-.529-1.95-2.09-6.058-4.173-12.151-6.319-18.287zm-30.298-2.832c2.786-8.081 5.543-16.047 8.49-24.538a9277.02 9277.02 0 0 1 7.944 24.538h-16.434zm-6.429-111.347c9.083 5.918 19.23 7.76 29.866 8.08 4.207-.434 8.49-.626 12.621-1.394 15.693-2.97 27.277-11.464 32.994-26.663 5.39-14.276 5.423-28.89.768-43.41-3.678-11.378-10.914-19.817-21.785-24.972-7.356-3.473-15.18-4.766-23.258-4.911-10.855-.18-21.299 1.455-30.596 7.407-12.979 8.243-18.462 20.847-20.058 35.54-.883 8.308-.43 16.568 1.69 24.658 2.815 10.68 8.336 19.507 17.757 25.664zm20.27-56.346c.115-2.373.981-4.787 1.81-7.057 1.258-3.286 3.754-5.035 7.273-5.141 3.657-.137 6.413 1.31 7.983 4.71 2.142 4.62 2.441 9.583 2.79 14.54.158 2.156.021 4.336.021 6.507.24.017.448.042.687.06-.827 6.183-1.297 12.429-2.594 18.543-1.144 5.445-4.539 7.667-9.399 7.215-2.812-.197-5.244-1.357-6.174-4.05-1.255-3.737-2.67-7.59-2.867-11.404-.239-7.958.115-15.95.47-23.923zm87.062 132.573c-.017 18.837-.017 37.675 0 56.469 0 1.336-.546 1.77-1.788 1.77-4.838-.021-9.655.06-14.49-.097-.823-.022-2.005-.866-2.338-1.634-5.547-11.716-10.99-23.475-16.46-35.213-1.724-3.716-3.462-7.411-5.189-11.127-.12.017-.235.017-.354.06v45.188c0 2.786 0 2.786-2.889 2.808h-9.502v-2.437c0-18.385.021-36.75-.038-55.155 0-1.967.47-2.637 2.518-2.594 4.638.115 9.357.115 14.038 0 1.617-.043 2.398.572 3.072 2.005 6.682 14.2 13.423 28.356 20.13 42.513.201.435.435.789.845 1.536.064-.91.098-1.378.098-1.89 0-13.922.043-27.84-.038-41.762 0-1.945.61-2.48 2.48-2.398 2.67.158 5.345.08 7.978.038 1.46-.01 1.928.567 1.928 1.92zM953.632 8.092c-2.513-.363-5.129-.098-7.629-.098v13.675c.24 0 .512.017.807.017v-6.183c2.518-.785 4.071-.384 5.034 1.754.572 1.229 1.318 2.398 2.142 3.46.375.482 1.067.747 1.613 1.109.12-.136.256-.303.38-.443-1.24-1.976-2.5-3.942-3.802-6 .947-.263 1.69-.383 2.321-.686 1.77-.824 2.48-2.458 1.851-4.088-.418-1.041-1.694-2.351-2.718-2.517zm-.662 5.78c-.827.347-1.85.18-2.125.206-3.737 0-4.8-1.532-3.776-4.514.077-.264.29-.691.414-.67 2.223.166 4.501.286 6.664.709.435.08.827 1.694.627 2.44-.197.717-1.063 1.506-1.805 1.83zM733.493 214.706a961.3 961.3 0 0 0-25.754 0c-1.732 0-2.398-.354-2.398-2.24.077-30.613.038-61.257 0-91.904 0-1.558.435-2.15 2.104-2.134 13.862.038 27.682.038 41.51-.017 1.55 0 2.104.61 2.556 1.937a14837.47 14837.47 0 0 0 18.991 54.374c.201.589.512 1.152 1.182 1.63v-57.737h30.553v96.05h-2.082c-13.743 0-27.413-.037-41.139.044-1.57 0-2.197-.474-2.752-1.984a18347.378 18347.378 0 0 0-18.875-54.447c-.273-.68-.61-1.365-1.395-2.001v3.11c0 17.61-.043 35.188.038 52.805.017 2.022-.572 2.513-2.538 2.513zM950.018 2.272c-6.878.089-12.56 5.78-12.51 12.587.064 6.853 5.905 12.505 12.903 12.446 6.801-.06 12.25-5.632 12.207-12.527-.013-7.207-5.444-12.582-12.6-12.505zm.12 23.783c-5.995.038-10.918-5.056-10.918-11.358 0-6.242 4.958-11.217 11.072-11.158 6.174.06 10.658 4.894 10.637 11.422-.017 6.302-4.616 11.055-10.79 11.094zM760.036 314.592c6.212 4.685 6.806 14.396 1.77 21.2-3.34 4.54-7.944 7.02-13.274 8.218-7.254 1.656-14.45 1.656-21.448-1.058-6.49-2.517-9.835-7.518-10.462-14.336-.43-4.403-.316-4.403 4.13-4.403 2.48 0 4.92-.077 7.356.06.534.022 1.574.768 1.574 1.182-.043 9.199 7.274 11.008 14.195 9.656 1.69-.333 3.5-1.084 4.817-2.146 4.463-3.495 3.426-9.75-1.903-11.558-4.09-1.378-8.337-2.24-12.446-3.58-2.654-.826-5.29-1.906-7.808-3.148-11.955-5.974-9.438-20.642-2.91-26.287 2.867-2.457 6.135-4.027 9.77-4.86 6.054-1.297 12.13-1.374 18.107.495 7.63 2.432 12.544 9.374 11.716 16.87h-11.716c-1.237-2.342-1.984-4.78-3.52-6.473-3.495-3.934-11.716-3.226-14.882.98-3.183 4.169-1.199 9.396 4.327 11.013 4.327 1.297 8.807 2.159 13.061 3.635 3.37 1.16 6.793 2.454 9.544 4.539zm-185.617 10.97c-.819-5.62-2.274-10.735-9.596-11.673 1.225-.495 1.928-.79 2.637-1.063 5.777-2.522 9.178-7.514 8.926-13.568-.239-6.41-3.047-11.524-9.24-13.846-3.342-1.255-7.139-1.651-10.757-1.767-8-.295-16.025-.043-24.009-.12-1.924 0-2.437.576-2.437 2.479.081 18.363.038 36.749.038 55.155.043.747.081 1.514.158 2.32h13.253v-23.888c4.621 0 9.003-.12 13.414.08 1.924.078 3.461 1.414 3.951 3.462.414 1.613.67 3.226.883 4.877.768 5.11 1.476 10.223 2.206 15.475h14.038c-.508-1.651-1.16-3.008-1.417-4.505-.704-4.45-1.413-8.913-2.048-13.418zm-17.988-16.158c-4.07.392-8.2.239-12.313.197-.414 0-1.139-.866-1.139-1.301-.094-4.834-.059-9.634-.059-14.55 5.052 0 9.831-.354 14.506.12 3.52.37 5.308 3.639 5.231 7.842-.11 3.955-2.547 7.317-6.225 7.693zm366.788 13.449c-.845-4.842-3.388-8.222-8.986-8.97 1.101-.434 1.728-.75 2.338-1.023 7.181-3.106 9.2-8.295 9.126-13.841-.08-6.801-4.266-12.365-10.679-14.118-3.144-.845-6.524-1.221-9.83-1.301-7.707-.158-15.412-.038-23.105-.038-.845 0-1.673.08-2.61.158v59.815h13.132v-23.911h11.247c4.561 0 6.038 1.318 6.703 5.82.807 5.52 1.634 11.089 2.518 16.615.081.593.65 1.53 1.02 1.553 4.385.098 8.75.06 12.722.06-.823-4.54-1.655-8.827-2.398-13.073-.457-2.594-.746-5.188-1.199-7.744zm-17.878-13.415c-3.793.277-7.629.158-11.443.239-1.259.043-1.613-.627-1.59-1.771.02-2.12 0-4.288 0-6.49 0-2.125.02-4.33 0-6.451-.022-1.221.413-1.656 1.654-1.613 3.673.158 7.351.08 11.025.273 4.365.158 6.81 2.795 6.963 7.356.158 4.45-2.598 8.162-6.609 8.457zm-40.055 23.91h2.5v10.172h-40.742v-59.836c.91-.038 1.732-.115 2.56-.115 11.601 0 23.22.038 34.821-.043 2.104-.038 2.812.512 2.654 2.637-.175 2.36-.038 4.736-.038 7.39h-26.936c0 4.446-.043 8.653.098 12.898 0 .354 1.395.98 2.142.98 6.682.082 13.41.039 20.091.06 2.875 0 2.875 0 2.875 2.809v7.219c-1.259.06-2.24.137-3.247.154h-18.82c-3.2 0-3.2-.017-3.2 3.324-.022 3.384.058 6.784-.039 10.146-.043 1.63.41 2.24 2.181 2.223 7.667-.098 15.4-.017 23.1-.017zm-29-120.49h-11.639V3.808h11.64v209.05zm-22.255 70.822c.593 0 1.14.08 1.903.158v9.677h-25.54c0 4.599-.038 8.969.098 13.312.021.414 1.318 1.079 2.061 1.079 6.332.08 12.663.043 19.013.043 2.85 0 2.85 0 2.85 2.85v7.47h-23.923v25.366c-4.229 0-8.12.038-12.015-.064-.389 0-.9-.704-1.139-1.173-.175-.44-.038-.986-.038-1.531 0-18.214 0-36.454-.043-54.703 0-1.613.24-2.517 2.163-2.517 11.53.034 23.066.034 34.611.034zm-384.107.26c3.725.08 7.433.017 11.618.017-1.817 3.422-3.4 6.49-5.03 9.514-4.78 8.952-9.567 17.894-14.277 26.9-.478.867-.709 2.044-.709 3.047-.077 5.978-.098 11.976 0 17.954.017 1.809-.58 2.398-2.36 2.32-2.872-.12-5.769-.12-8.649 0-1.656.039-2.095-.554-2.078-2.124.081-5.901.103-11.836 0-17.736-.038-1.455-.4-3.003-1.088-4.284-5.897-11.21-11.934-22.336-17.91-33.506-.308-.593-.535-1.161-.974-2.087 4.975 0 9.506-.038 14.038.064.601.017 1.425.824 1.733 1.433 3.648 7.923 7.207 15.846 10.795 23.79.18.398.354.79.683 1.515 1.728-3.721 3.341-7.181 4.954-10.658 2.231-4.822 4.531-9.656 6.707-14.49.53-1.26 1.178-1.736 2.547-1.673zM397.932 28.67h-23.74V2.98h85.15v25.59h-23.539v70.41h-37.866c-.005-23.356-.005-46.737-.005-70.31zM164.614 95.896c-.017-30.076-.017-60.14-.017-90.223 0-2.83 0-2.83 2.833-2.83 22.592 0 45.162.018 67.737-.05 1.848 0 2.555.435 2.538 2.377-.098 6.784-.038 13.55-.038 20.36 0 .64-.08 1.268-.128 2.172h-36.454V38.27h33.664v24.845h-33.62v11.059h37.524v24.768h-73.869c-.089-1.054-.17-2.031-.17-3.046zM132.23 48.565c-3.345 15.377-6.707 30.767-10.048 46.149-.964 4.386-.964 4.386-5.389 4.386H80.138c-2.978-20.714-5.939-41.348-8.896-61.994h-.713c-2.936 20.62-5.918 41.24-8.896 61.994h-7.07c-10.509 0-21.039-.06-31.565.056-2.074.02-2.675-.743-3.059-2.535a6368.435 6368.435 0 0 0-8.197-38.392C7.898 40.445 4.012 22.67.149 4.912.021 4.34.059 3.782 0 2.958h33.583c2.722 20.135 5.436 40.23 8.141 60.327h.635c2.94-20.037 5.897-40.056 8.896-60.267.79-.038 1.553-.12 2.321-.12 11.554 0 23.074.039 34.63-.037 1.8 0 2.38.443 2.644 2.313 1.87 13.197 3.921 26.338 5.88 39.483.925 6.203 1.77 12.382 2.636 18.573.226 0 .444.017.687.038 2.692-20.053 5.418-40.111 8.111-60.245h33.77c-.649 3.187-1.246 6.28-1.894 9.34-2.59 12.019-5.189 24.102-7.813 36.202zm415.45 69.78c1.613-.016 2.146.483 2.107 2.096-.098 2.654-.02 5.342-.02 7.995v83.28c0 2.945 0 2.945-2.953 2.945-10.893 0-21.782-.038-32.63.043-1.814 0-2.19-.593-2.19-2.24.025-30.635.025-61.257.025-91.904 0-.618.081-1.25.133-2.133h16.91c6.194-.017 12.411.038 18.62-.081zm157.73-21.72c0-30.44 0-60.868-.038-91.286-.038-1.958.512-2.534 2.518-2.534 13.645.094 27.273.077 40.9 0 1.613 0 2.261.559 2.752 1.984 6.277 18.082 12.587 36.122 18.897 54.183.217.644.534 1.28.823 1.916.18-.022.418-.06.534-.077V2.98h30.422v95.987c-.576.038-1.16.11-1.677.11-13.726 0-27.409-.033-41.096.043-1.809 0-2.675-.461-3.285-2.231-5.875-17.135-11.832-34.25-17.792-51.366-.554-1.6-1.178-3.196-2.206-4.787-.038.635-.136 1.284-.136 1.954 0 18.022-.038 36.057.043 54.08 0 1.967-.495 2.406-2.419 2.389-8.69-.094-17.267-.038-25.976-.038-.61 0-1.237-.043-2.104-.094-.077-.87-.158-1.66-.158-2.402zM190.321 285.647c-.017 18.683-.017 37.363 0 56.038.022 1.498-.46 2.065-2.014 2.01-3.579-.081-7.168-.022-10.914-.022v-49.55c-.119-.016-.264-.06-.384-.08-1.31 4.09-2.615 8.162-3.92 12.293-3.786 11.993-7.57 23.966-11.435 35.985-.209.567-1.169 1.238-1.797 1.276-2.458.158-4.906 0-7.347.12-1.476.094-2.172-.534-2.624-1.928-2.632-8.71-5.329-17.284-8.03-25.971-2.15-7.006-4.347-13.961-6.882-20.945v1.788c0 14.793-.038 29.615.022 44.382.017 2.099-.67 2.769-2.692 2.654-3.089-.137-6.186-.043-9.425-.043v-60.087h9.72c3.021 0 6.067.08 9.083-.043 1.634-.038 2.253.534 2.696 2.065 3.785 13.269 7.66 26.526 11.482 39.778.06.192.158.392.444 1.019 4.228-13.487 8.397-26.582 12.377-39.736.687-2.223 1.591-3.247 4.147-3.127 5.115.239 10.236.12 15.37.043 1.604-.043 2.145.512 2.124 2.082zM485.963 99.079c-.286 0-.55-.056-1.033-.111V2.963h72.623v24.742h-36.455v10.569H554.6V63.16h-33.54v10.978c.785.038 1.532.115 2.321.115 11.09 0 22.2.042 33.271-.022 1.723 0 2.36.405 2.317 2.253-.158 6.929-.08 13.849-.017 20.762.017 1.425-.418 1.869-1.869 1.869-23.638-.038-47.39-.038-71.12-.038zm440.76 113.779h-11.584V3.808h11.584v209.05zM623.543 64.51c3.182.26 6.13.315 9.002.806 2.398.375 4.01 2.006 4.54 4.403.571 2.518.925 5.073 1.356 7.629a3173.57 3173.57 0 0 1 3.38 19.755c.238 1.412.826 2.035 2.436 2.035 11.013-.081 22.067-.038 33.092-.038.615 0 1.241-.081 1.514-.098-1.216-7.433-2.437-14.72-3.58-22.003-.708-4.476-1.122-9.002-1.967-13.435-1.259-6.678-5.462-10.748-12.032-12.377-1.216-.303-2.36-.61-4.109-1.05 1.16-.383 1.677-.541 2.184-.72 5.111-1.61 9.711-3.99 12.933-8.542 3.622-5.154 4.053-11.046 3.52-16.986-.726-8.704-5.014-14.963-13.466-18.1-6.45-2.397-13.176-2.84-19.938-2.88-17.856-.093-35.665-.037-53.44-.037h-2.32v96.103h36.888c.005-11.422.005-22.72.005-34.462zm.08-39.88c4.066-.15 8.06-.423 11.874 1.207 3.303 1.425 4.245 4.228 4.23 7.569-.065 3.699-1.482 6.558-4.899 8.23-3.495 1.729-7.232 1.614-11.226 1.345.021-6.17.021-12.138.021-18.351zM262.368 72.36c-.038-.502-.038-1.001-.038-1.505 0-.367.06-.708.137-1.25h35.818c.384 1.65.627 3.205 1.11 4.672 1.344 4.262 4.69 5.999 10.411 5.534 4.08-.346 7.224-3.174 7.803-7.13.423-2.735-1.186-5.435-4.442-6.626-3.767-1.387-7.659-2.445-11.524-3.618-7.288-2.24-14.716-4.053-21.807-6.762-12.663-4.86-16.952-14.942-15.5-27.913 1.432-12.988 9.621-20.233 21.384-24.183C296.11.118 306.806-.001 317.571.865c6.805.52 13.393 1.993 19.387 5.359 8.721 4.885 12.83 12.527 13.073 22.345 0 .217 0 .422-.038.648-.026.12-.106.235-.264.563-.61.038-1.305.115-2.018.115-9.647 0-19.306-.022-28.97.017-1.674 0-2.6-.213-2.826-2.214-.315-3.017-2.35-5.128-5.555-5.435-2.577-.248-5.295.08-7.855.657-2.27.512-3.618 2.32-3.746 4.757-.12 2.313.935 4.228 3.111 4.992 4.13 1.425 8.375 2.555 12.561 3.806 6.541 1.954 13.206 3.554 19.606 5.918 15.104 5.517 21.385 16.849 18.445 32.7-2.248 12.04-10.087 18.983-21.175 22.895-8.397 2.93-17.139 3.678-25.976 3.558-7.894-.094-15.663-.943-23.113-3.703-11.942-4.378-18.786-12.694-19.849-25.481zm63.983 142.426c-13.93 3.22-27.86 3.34-41.634-.67-9.527-2.714-17.314-8-21.06-17.656-1.395-3.541-2.437-7.51-2.474-11.286-.248-21.85-.149-43.695-.149-65.561 0-.282.072-.538.128-1.088h37.713v2.64c0 19.973-.017 39.95.081 59.918 0 2.099.503 4.284 1.288 6.25 1.17 3.029 3.725 4.327 6.882 4.168 3.067-.154 5.24-1.848 6.144-4.638.687-2.12.981-4.561.981-6.767.09-18.74.06-37.504.06-56.252v-5.252h37.901v2.52c0 20.477.017 40.948-.017 61.44-.009 16.854-9.288 28.412-25.843 32.232zm87.471-.277h-30.567c-.038-.824-.098-1.575-.12-2.36 0-30.421.022-60.817-.03-91.29 0-2.035.55-2.534 2.513-2.517 13.637.08 27.264.08 40.901.022 1.613-.022 2.36.427 2.901 2.018 6.302 18.197 12.702 36.386 19.085 54.562.166.503.423.969.627 1.467.217-.043.426-.081.623-.098v-57.81h30.392v96.005c-.729.038-1.37.115-1.997.115-13.696 0-27.4 0-41.113.038-1.63 0-2.36-.448-2.9-2.043-6.205-17.971-12.447-35.887-18.68-53.807-.326-.905-.71-1.77-1.072-2.671-.175.017-.384.055-.58.077.017 19.418.017 38.805.017 58.29zm-33.143 120.883c-.149 2.637-.038 5.312-.038 8.123h-41.075v-2.654c0-18.231.038-36.502-.017-54.745-.022-2.1.601-2.632 2.654-2.594 11.623.08 23.232.08 34.833 0 2.193-.038 2.923.593 2.743 2.795-.205 2.36-.047 4.714-.047 7.232h-26.979c0 4.485-.06 8.653.098 12.822 0 .392 1.327 1.063 2.053 1.079 6.703.064 13.427.022 20.135.043.904 0 1.84.098 2.863.179v9.85c-1.092.039-2.095.155-3.059.155-6.643 0-13.274.043-19.917-.038-1.69 0-2.23.529-2.193 2.223.081 4.403.022 8.772.022 13.376 1.071.034 1.916.11 2.743.11 7.731 0 15.437.044 23.151-.033 1.608 0 2.112.469 2.031 2.078zm129.804-51.827h10.538v10.304c-4.446 0-8.773 0-13.06.06-5.347.038-4.443-.534-4.486 4.442-.038 14.157 0 28.275 0 42.415v2.889c-4.147 0-8.098.022-12.032-.06-.414 0-.999-.73-1.122-1.26-.175-.75-.08-1.57-.08-2.36 0-14.55-.039-29.12.042-43.728 0-1.928-.58-2.48-2.457-2.398-4.382.115-8.798-.043-13.184.08-1.613.039-2.202-.511-2.09-2.086.097-1.967.136-3.891-.023-5.858-.166-1.967.618-2.437 2.48-2.437 11.814.034 23.65-.005 35.472-.005zm-267.188 1.062c-6.36-2.398-12.86-2.833-19.503-1.514-7.416 1.48-13.137 5.334-16.922 11.878-3.097 5.368-4.463 11.187-5.056 17.399.55 4.267.746 8.593 1.673 12.783 1.732 7.783 6.186 13.683 13.615 17.067 6.844 3.123 14.012 3.733 21.303 2.082 7.77-1.81 13.91-5.978 17.293-13.372 4.808-10.543 5.397-21.393 1.17-32.286-2.544-6.524-6.849-11.461-13.573-14.038zm2.514 28.51c.022 4.62-.273 9.24-2.193 13.529-2.825 6.332-6.762 8.887-13.23 8.729-6.423-.154-10.608-3.422-12.604-9.336-2.774-8.298-2.79-16.755.107-24.99 2.172-6.174 7.057-9.241 13.465-9.161 5.82.08 10.628 3.379 12.603 9.395 1.23 3.8 1.651 7.846 2.42 11.763-.2.03-.376.068-.568.068zM325.079 286c-.08 13.41-.038 26.82-.038 40.23 0 5.112-.038 10.224.022 15.378.017 1.656-.58 2.108-2.112 2.108a499.85 499.85 0 0 0-13.854 0c-1.425 0-2.134-.452-2.76-1.813-6.92-15.04-13.93-30.021-20.933-45.01-.226-.43-.474-.861-.99-1.825v45.4c0 3.184 0 3.205-3.324 3.205h-8.938v-60.11h4.975c3.823 0 7.646.082 11.452-.042 1.613-.038 2.42.534 3.111 2.01 6.703 14.238 13.487 28.47 20.271 42.709.137.354.325.666.785.98v-2.871c0-13.414.038-26.82-.038-40.27 0-2.025.56-2.674 2.555-2.56 2.457.159 4.906.12 7.343 0 1.916-.076 2.496.556 2.474 2.48z"/></svg>