<svg xmlns="http://www.w3.org/2000/svg" viewBox="0 0 1573 1776.33349609375"><path d="M120 1023q-180-384 55-724Q339 62 680 9q26-7 58-9h67q466 14 683 414 102 189 51 417-41 181-137 338-207 322-427 520-12 12-32 28-74 56-136.5 58T667 1727q-46-27-79-63-314-320-468-641zm12-236q3 17 10 47t10 43q45 201 185 312.5T685 1321q46 5 54.5-3.5t9.5-55.5q-2-13-5-41.5t-6-41.5q-40-215-203-313-29-18-66.5-36t-65-29-73.5-28.5-67-26.5q-25-10-85-12-55 0-46 53zm725 469q-4 49 6.5 59.5t58.5 4.5q61-7 128-23 171-43 280-182 54-66 82.5-143t50.5-183q8-36-3.5-49.5T1413 731q-94 16-170 43-184 69-280 185.5T857 1256z"/></svg>