<svg xmlns="http://www.w3.org/2000/svg" viewBox="0 0 2216 1543"><path d="M0 1013q0 214 149 367t363 163q18 0 18-18v-143q0-19-18-19-137-7-233.5-109T182 1013q0-133 90.5-231.5T497 667l56-3q21 0 21-18l8-59q16-173 145.5-289.5T1033 181q174 0 305 116.5T1487 587l8 62q0 18 18 18h173q142 0 246.5 103t104.5 243q0 139-97 241t-234 109q-20 0-20 19v143q0 18 20 18 140-4 257.5-76.5t185-192.5 67.5-261q0-144-71-265t-193-190.5-266-69.5h-35q-52-214-224.5-351T1033 0Q807 0 632 140T407 499q-176 41-291.5 185.5T0 1013zm743 163q0 38 26 64l276 278q20 25 61 25 45 0 65-25l277-278q26-28 26-64 0-37-26-62t-64-25-66 25l-120 118V807q0-38-27-63t-65-25-63 25-25 63v425l-117-118q-28-25-67-25-40 0-65.5 24.5T743 1176z"/></svg>