<svg xmlns="http://www.w3.org/2000/svg" viewBox="0 0 2370 1554"><path d="M0 1099q0-159 99-282.5T353 658q41-188 190-307.5T886 231q189 0 337.5 116.5T1416 646h29q188 0 321 132.5t133 320.5-133 321.5-321 133.5H455q-92 0-176.5-36T133 1421t-97-145.5T0 1099zm155 0q0 122 88 209.5t212 87.5h990q124 0 212-87.5t88-209.5-88-209-212-87h-148q-16 0-16-16l-7-52q-16-151-126.5-250.5T886 385 623.5 485 498 735l-7 45q0 16-17 16l-48 7q-115 10-193 95t-78 201zm944-930q-16 15 8 22 69 30 115 59 18 5 24-3 97-92 226-92t223.5 86.5T1801 455l10 68h151q104 0 179 74.5t75 177.5q0 96-66 167t-163 82q-16 0-16 17v121q0 17 16 17 161-10 272-127t111-277q0-169-119.5-288.5T1962 367h-16q-42-160-175.5-263.5T1472 0q-226 0-373 169z"/></svg>