<svg xmlns="http://www.w3.org/2000/svg" viewBox="0 0 2539 1876"><path d="M0 1454q0-39 27-65t67-26h957q38 0 63 25.5t25 65.5q0 38-25.5 63.5T1051 1543H94q-40 0-67-25.5T0 1454zm281-326q0-38 29-64 23-24 63-24h960q37 0 61.5 25t24.5 63-24.5 65-61.5 27H373q-37 0-64.5-27.5T281 1128zm66-249q0 15 18 15h152q15 0 25-15 36-87 111-144t168-64l58-7q18 0 18-19l7-55q18-174 148.5-290T1359 184q174 0 302 114.5T1811 587l8 63q0 17 19 17h171q145 0 247.5 102t102.5 247q0 140-104 243.5T2009 1363h-735q-19 0-19 18v143q0 19 19 19h735q108 0 206.5-41.5t169-112.5 112.5-168.5 42-204.5q0-144-70.5-265.5t-192.5-192-267-70.5h-33q-52-215-224.5-351.5T1359 0q-227 0-401.5 141.5T736 503q-138 31-242 129.5T349 869v2q-2 4-2 8zm122 905q0-39 28-64 24-25 63-25h959q39 0 65.5 25.5t26.5 63.5-27 65-65 27H560q-37 0-64-27t-27-65z"/></svg>