<svg xmlns="http://www.w3.org/2000/svg" viewBox="0 0 2358 2044"><path d="M0 816q0-148 92.5-265T326 402q41-176 181.5-289T829 0q176 0 314.5 110.5T1323 393h28q176 0 300.5 123.5T1776 816q0 1-.5 4t-.5 6q120 128 120 304 0 121-60.5 224.5t-163 163.5-222.5 60q-154 0-273.5-95T1018 1242H409q-171-7-290-130.5T0 816zm145 0q0 112 77.5 194.5T409 1098h605q6-4 12-4h104q5 0 9 4h229q109-5 187-87.5t78-194.5q0-113-84-195.5T1351 538h-138q-15 0-15-15l-7-50q-14-139-119-233.5T829 145q-142 0-246 94T465 473l-6 50q0 15-17 15h-43q-108 12-181 91t-73 187zm661 961q-40-52 0-104l121-123q22-19 55-19 30 0 49 19t19 50q0 32-19 51l-122 126q-20 20-52 20-31 0-51-20zm362-535q34 86 110.5 139t170.5 53q124 0 210.5-89t86.5-215q0-62-20-112-53 98-148.5 159t-209.5 65h-200zm208 553q0-30 21.5-50t51.5-20q29 0 53 22 20 20 20 48v175q0 30-21.5 52t-51.5 22-51.5-22-21.5-52v-175zm470-195q0-29 20.5-49t50.5-20q31 0 50 19l126 123q21 23 21 51 0 30-21.5 51.5T2040 1797q-33 0-53-20l-121-126q-20-23-20-51zm0-940q0-31 20-50l121-126q22-20 53-20 30 0 53 20 21 24 21 54 0 28-21 51l-126 123q-20 20-50 20t-50.5-20.5T1846 660zm194 470q0-30 20-51t50-21h173q31 0 53 21t22 51q0 31-22 52.5t-53 21.5h-173q-30 0-50-21.5t-20-52.5z"/></svg>