<svg xmlns="http://www.w3.org/2000/svg" viewBox="0 0 2875 2840"><path d="M0 1710q0 177 105 316t274 190l-68 181q-7 22 15 22h226l-133 421h31l445-575q6-7 1.5-14.5T881 2243H649l264-494q11-23-15-23H584q-15 0-25 15l-114 307q-114-29-189-124t-75-214q0-133 90.5-231T496 1365l56-7q21 0 21-19l6-54q17-173 147-290t305-117q174 0 304.5 117t149.5 290l6 62q0 18 19 18h172q145 0 247.5 101t102.5 244q0 136-95 235.5T1703 2056q-21 0-21 19v146q0 18 21 18 213-7 361.5-161t148.5-368q0-118-46-214 126-153 126-354 0-150-75.5-279T2013 658.5 1733 583q-247 0-414 185-129-69-288-69-226 0-401 140t-224 358q-177 41-291.5 184.5T0 1710zm863 1022q-2 24 14.5 47t49.5 35q11 3 22 3 27 0 54-16t36-50l244-914q10-37-7-68.5t-52-42.5q-37-11-69.5 7t-42.5 54l-246 917q-3 13-3 28zm35-2331q0 38 27 63l68 70q27 27 65 27.5t61-27.5q30-24 30-64 0-38-27-63l-67-70q-28-26-65-26-40 0-66 26t-26 64zm408 2005q0 19 12 40 20 32 53 46 11 5 32 5 24 0 35-6 32-13 44-62l159-592q10-38-8-69t-54-42q-37-11-68.5 7t-41.5 54l-159 595q0 4-2 12t-2 12zm163-1535q107-103 264-103 156 0 266.5 109t110.5 265q0 100-55 197-159-157-373-157h-33q-49-188-180-311zm172-560q0 37 27.5 64.5T1733 403q38 0 63-27t25-65V92q0-38-25-65t-63-27q-37 0-64.5 27T1641 92v219zm590 244q0 39 28 64 23 27 60.5 27t64.5-27l154-155q28-25 28-63t-27-65-65-27q-35 0-61 28l-154 154q-28 25-28 64zm86 1265q0 36 26 64l70 67q20 23 58 26l1 1q2 0 5 .5t5 .5q30 0 56-28 28-26 28-64 0-37-28-65l-69-65q-26-29-62-29-37 0-63.5 27t-26.5 65zm155-678q0 37 29 64 29 29 65 29h217q37 0 64.5-27.5t27.5-65.5q0-37-27-62.5t-65-25.5h-217q-40 0-67 25.5t-27 62.5z"/></svg>