<svg xmlns="http://www.w3.org/2000/svg" viewBox="0 0 2709 2267"><path d="M0 1485q0 38 28 64 25 27 64 27h1005q37 0 62.5-26.5t25.5-64.5q0-37-25-62.5t-63-25.5H92q-38 0-65 25.5T0 1485zm36 656q0 39 27 64 26 27 64 27h1006q38 0 65-27t27-64-27-62.5-65-25.5H127q-38 0-64.5 25.5T36 2141zm146-331q0 38 27 63t67 25h1003q38 0 63-25t25-63q0-40-25-65.5t-63-25.5H276q-40 0-67 26t-27 65zm259-677q0-38 28-66 28-26 64-26h217q37 0 62 27t25 65-25 64.5-62 26.5H533q-38 0-65-27t-27-64zm305-738q0-36 26-65 31-26 67-26 35 0 63 26l152 157q26 24 26 63 0 38-25.5 63.5T991 639q-39 0-63-26L772 461q-26-28-26-66zm272 725v-7q3-146 79-269.5t203-195 274-71.5q112 0 215 44.5t177.5 119T2085 918t44 215q0 150-74 277.5t-201 202-277 75.5h-21q-11 0-19-8t-8-19v-130q0-21 23-21h26q154-1 263.5-111.5T1951 1133q0-154-110.5-263T1574 761q-151 0-260 104t-115 253q0 9-8 18.5t-27 9.5h-122q-24 0-24-26zm466 1054v-212q0-38 26-64t64-26q39 0 65 26t26 64v212q0 39-26.5 66t-64.5 27-64-26.5-26-66.5zm0-1865V91q0-38 26.5-64.5T1574 0t64 27 27 64v218q0 37-26.5 61.5T1574 395t-64-24.5-26-61.5zm588 1406q0-37 24-60 24-25 61-25 39 0 64 25l155 152q26 28 26 65t-26 63q-64 50-128 0l-152-152q-24-27-24-68zm0-1165q0-40 24-63l152-157q28-26 63-26 38 0 64.5 27t26.5 64q0 40-26 66l-155 152q-29 26-64 26-36 0-60.5-25.5T2072 550zm241 583q0-37 27-66 26-26 60-26h216q37 0 65 27.5t28 64.5-28 64-65 27h-216q-37 0-62-26.5t-25-64.5z"/></svg>