<svg xmlns="http://www.w3.org/2000/svg" viewBox="0 0 2864 2821"><path d="M0 1706q0 138 68 257t185.5 191 256.5 76q18 0 18-18v-142q0-20-18-20-136-7-232.5-108.5T181 1706q0-132 90.5-230T495 1362l56-6q19 0 19-20l8-54q17-175 145.5-291.5T1027 874q174 0 304.5 116.5T1479 1279l8 62q0 18 18 18h172q144 0 246 102.5t102 244.5q0 134-96.5 235.5T1697 2050q-20 0-20 20v142q0 18 20 18 212-7 360-160t148-364q0-121-46-217 126-151 126-352 0-150-75-278.5T2006 655t-279-75q-246 0-413 185-130-70-287-70-225 0-399 139.5T405 1191q-179 44-292 187T0 1706zm585 819q0 33 26 61 28 26 62 26 38 0 63-25t25-62q0-38-25.5-63t-62.5-25-62.5 25-25.5 63zm92-387q0 38 25.5 65t62.5 27 62.5-27 25.5-65q0-36-25.5-62t-62.5-26-62.5 26-25.5 62zm202 595q0 35 26 61 27 27 62 27 38 0 64.5-25t26.5-63-27-64.5-64-26.5q-35 0-61.5 27t-26.5 64zm16-2334q0 39 26 63l70 70q26 26 57 27 33 5 65-23.5t32-67.5-26-68l-68-65q-24-27-62-27-40 0-67 26.5T895 399zm75 1944q0 35 27 64 26 26 61 26 38 0 65-26t27-64q0-37-27-63.5t-65-26.5q-36 0-62 26.5t-26 63.5zm46-384q0 36 26 62t62 26q38 0 64.5-25.5t26.5-62.5-26.5-63-64.5-26q-36 0-62 26t-26 63zm253 566q0 34 25 61 28 26 64 26 38 0 63-25t25-62q0-38-25-63t-63-25-63.5 25.5-25.5 62.5zm91-387q0 38 26 65t63 27 62.5-27 25.5-65q0-36-25.5-62t-62.5-26-63 26-26 62zm104-1272q110-106 263-106 155 0 265 111t110 266q0 100-54 196-153-153-371-153h-34q-47-187-179-314zm171-556q0 37 27 62t65 25 63-25 25-62V92q0-38-25.5-65T1727 0t-64.5 27.5T1635 92v218zm588 242q0 37 27 63 24 25 59.5 27.5T2376 615l153-153q28-28 28-65 0-38-27.5-65t-64.5-27q-35 0-62 27l-153 156q-27 25-27 64zm86 1258q0 40 26 66l68 67q39 26 68 26 33 0 59.5-27.5t26.5-65.5q0-36-28-62l-66-69q-28-26-65-26t-63 26.5-26 64.5zm154-673q0 38 28 63 27 29 66 29h216q37 0 64-27t27-65-27-64.5-64-26.5h-216q-38 0-66 27t-28 64z"/></svg>