<svg xmlns="http://www.w3.org/2000/svg" viewBox="0 0 2883 2895"><path d="M0 1714v-1q0-185 115.5-329T408 1198q49-219 224.5-360T1035 697q159 0 290 70 80-85 188-133.5t223-48.5q152 0 281.5 75.5t205 205T2298 1147q0 197-122 351 46 98 46 215 0 141-68 261.5T1968.5 2168t-258.5 77q-21 0-21-19v-143q0-19 21-19 137-7 232.5-109.5T2038 1713q0-142-103-244t-246-102h-172q-19 0-19-18l-8-63q-18-173-149.5-290.5T1035 878q-176 0-305.5 117.5T583 1286l-8 63q-5 14-24 14l-54 4q-135 16-225 113.5T182 1713v5h3q2 156 118 259 35 31 79 52v2q66 30 129 33 18 0 18 18v143q0 18-18 18-83-5-158-32v2q-133-46-225.5-153T9 1814v-4q-1-1-1-3-8-40-8-93zm587 765q0-5 2-13.5t2-12.5l10-63q11-38 43.5-56.5t72.5-8.5q36 11 54 43.5t7 66.5l-15 64q-16 70-81 70-5 0-15.5-1.5T653 2566q-33-10-49.5-35t-16.5-52zm79-314q0-38 25-63t63-25 63 25 25 63q0 37-25 61.5t-63 24.5q-37 0-61-26-27-25-27-60zm175 638q0-6 4-24l14-62q11-36 44-54.5t67-7.5q37 7 56 39t9 73l-14 63q-16 65-85 65-8 0-26-4-35-10-52-35.5t-17-52.5zm57-2401q0-38 27-64t67-26q38 0 64 26l67 70q27 27 27 64 0 39-32 68.5t-65 24.5q-33-3-59-29l-69-70q-27-27-27-64zm27 2092q0-37 25-62t63-25 63 25 25 62q0 38-25 63t-63 25q-35 0-62-27-26-26-26-61zm66-243q0-15 3-28l24-96q11-37 44-56.5t68-8.5q38 11 56.5 42.5t7.5 66.5l-28 96q-13 44-44 60.5t-68 6.5q-32-6-48.5-32.5T991 2251zm295 229q0-5 1.5-14t1.5-12l10-63q11-38 43.5-56.5t72.5-8.5q36 11 54.5 44t7.5 67l-15 64q-16 69-81 69-5 0-16-1.5t-14-1.5q-32-10-48.5-35t-16.5-52zm79-314q0-38 25-63t63-25 63 25 25 63q0 37-25 62t-63 25q-37 0-62-27-26-24-26-60zm110-1292q134 122 181 312h33q220 0 375 155 50-88 50-194 0-157-110.5-266.5T1736 771q-154 0-261 103zm170-562V93q0-38 27-65.5T1736 0q38 0 63.5 27t25.5 66v219q0 39-25.5 66t-63.5 27q-37 0-64-27.5t-27-65.5zm595 245q0-39 25-64l154-155q24-27 62-27 39 0 64 27 28 26 28 64t-28 64l-154 155q-31 30-67.5 27.5T2265 621q-25-25-25-64zm83 1270q0-38 26.5-65t64.5-27q37 0 65 28l66 67q28 28 28 65 0 38-28 64-22 28-58 28l-2-2q-38 0-66-26l-69-68q-27-27-27-64zm156-680q0-38 26.5-63.5t65.5-25.5h220q39 0 65.5 25.5t26.5 63.5-27 65-65 27h-220q-38 0-64-29-28-24-28-63z"/></svg>