<svg xmlns="http://www.w3.org/2000/svg" viewBox="0 0 2885 2851"><path d="M0 1715q0 214 149 367.5T512 2246q19 0 19-18v-143q0-19-19-19-137-7-233.5-109.5T182 1715q0-133 90.5-231T497 1370l57-4q21 0 21-19l7-59q17-173 146.5-289.5T1034 882q174 0 305.5 116.5T1489 1288l8 62q0 20 18 20h173q143 0 247.5 102.5T2040 1715q0 139-97 241.5T1709 2066q-21 0-21 19v143q0 18 21 18 214-7 362-161.5t148-369.5q0-119-44-214 126-154 126-355 0-151-76-280.5T2019.5 660 1739 584q-250 0-416 187-128-70-289-70-226 0-401.5 140T407 1200q-177 42-292 186T0 1715zm569 753q16 35 49 48 32 16 67.5 2.5T733 2471q16-35 2.5-69t-47.5-47q-32-17-66.5-3t-50.5 50q-15 27-2 66zm69-303q0 22 10 41 31 49 95 49 51 0 74-69l111-343q13-39-7.5-71.5T862 1732q-35-11-67.5 6.5T751 1792l-110 344q-3 15-3 29zm199 599q0 21 5 31 14 35 48 48 15 8 37 8 10 0 32-6 35-13 50.5-48.5t-.5-70.5-48-48.5-66 .5q-31 12-44.5 37.5T837 2764zm65-2362q0 40 26 64l69 69q26 26 58 29 33 5 65.5-24.5T1153 471q0-38-26-64l-68-68q-30-27-66-27-39 0-65 26t-26 64zm13 2075q0 26 17 51t51 35q18 4 26 4 24 0 41-8 32-13 46-61l192-655q11-38-6-69.5t-53-41.5q-38-11-70.5 6t-43.5 54l-196 660q-4 20-4 25zm368-41q0 20 7 33 14 33 48 47 17 8 37 8 10 0 32-6 36-14 49-47 13-35 0-67.5t-45-48.5q-36-17-70-3t-51 50q-7 13-7 34zm77-274q0 25 16.5 48.5t49.5 33.5q14 3 27 3 62 0 84-65l110-339q12-37-7-69t-55-42q-38-11-68.5 6t-42.5 54l-109 341q-5 22-5 29zm114-1288q107-103 265-103 156 0 267 109.5t111 265.5q0 100-55 197-153-154-374-154h-33q-47-185-181-315zm173-562q0 38 27 65t65 27q37 0 62.5-27t25.5-65V92q0-38-25.5-65T1739 0q-38 0-65 27t-27 65v220zm592 244q0 39 27 64 24 28 61.5 27.5T2392 620l154-154q29-24 29-64 0-38-27.5-65t-65.5-27q-35 0-61 29l-155 153q-27 25-27 64zm86 1270q0 36 26 64l70 67q23 29 64 29 38 0 61-29 29-26 29-64t-29-65l-69-66q-25-28-62-28t-63.5 27-26.5 65zm156-680q0 38 28 64 28 28 66 28h217q38 0 65.5-27t27.5-65q0-37-27-62.5t-66-25.5h-217q-40 0-67 25.5t-27 62.5z"/></svg>