<svg xmlns="http://www.w3.org/2000/svg" viewBox="0 0 3105 2571"><path d="M0 2141q0 39 26 65 70 29 94 29h840q38 0 64.5-27.5t26.5-65.5q0-37-26.5-62.5T960 2054H120q-42 0-81 25.5T0 2141zm149-320q0 38 27 63 24 28 62 28h1003q38 0 65-26.5t27-64.5-27-65-65-27H238q-37 0-63 27t-26 65zm112-253q0 14 18 14h148q19 0 23-14 41-85 116-140.5t169-66.5h58q17 0 17-20l8-60q11-114 74-207.5T1055.5 927t215.5-53q174 0 304 117t148 290l8 60q0 20 19 20h171q142 0 245.5 102t103.5 242q0 144-103 246.5T1921 2054h-735q-18 0-18 20v142q0 19 18 19h735q144 0 266-71t193-193 71-266q0-116-46-214 124-154 124-350 0-150-75.5-279t-205-204.5T1968 582q-117 0-223.5 47.5T1559 763q-132-69-288-69-226 0-401 140t-223 358q-136 34-239.5 133.5T263 1561q-2 2-2 7zm76 913q0 38 28 63 25 27 62 27h1005q37 0 63-26.5t26-63.5q0-40-25.5-66.5T1432 2388H427q-38 0-64 26.5t-26 66.5zm798-2081q0 40 26 64l68 70q26 26 64 26 41 0 66.5-25.5T1385 469q0-37-26-63l-69-69q-27-27-61-27-40 0-67 26.5t-27 63.5zm572 467q106-101 261-101 156 0 265.5 109.5T2343 1141q0 107-49 193-151-152-373-152h-32q-46-184-182-315zm171-557q0 38 26.5 63t63.5 25q40 0 64.5-24.5T2057 310V92q0-39-25-65.5T1968 0q-37 0-63.5 27T1878 92v218zm589 244q0 39 27 64 20 26 64 26 43 0 63-26l156-154q26-24 26-66 0-37-26.5-63.5T2712 308t-65 25l-153 158q-27 26-27 63zm85 1265q0 39 25 64l70 67q39 29 65 29t65-29q26-26 26-64 0-37-26-65l-68-65q-30-28-69-28-38 0-63 26t-25 65zm154-674q0 39 29 65 29 27 64 27h217q36 0 62.5-27t26.5-65q0-36-26-60.5t-63-24.5h-217q-39 0-66 24.5t-27 60.5z"/></svg>