<svg xmlns="http://www.w3.org/2000/svg" viewBox="0 0 2883 2874"><path d="M0 1713q0 179 106.5 320T382 2221l-70 181q-8 23 15 23h227l-152 449h31l465-604q6-7 2-14.5t-15-7.5H651l266-496q12-23-15-23H586q-15 0-25 16l-114 307q-115-29-190-123.5T182 1713q0-135 90-233t225-114l54-3q19 0 24-15l8-63q17-173 146.5-290.5T1035 877q174 0 305.5 117.5T1490 1285l8 63q0 18 19 18h172q143 0 246 102.5t103 244.5q0 139-95.5 241.5T1710 2064q-21 0-21 19v143q0 18 21 18 141-4 258.5-76.5t185.5-193 68-261.5q0-117-46-215 122-154 122-351 0-152-75.5-281.5t-205-205T1736 585q-115 0-223.5 48T1325 766q-129-69-290-69-227 0-402.5 140.5T408 1197q-177 41-292.5 186T0 1713zM898 402q0 37 27 64l69 70q25 25 59 28 33 5 65-24t32-68q0-37-27-64l-67-70q-26-26-64-26-40 0-67 26t-27 64zm125 1959q0 39 26 63 26 26 62 26 38 0 65-26t27-63q0-38-27-65.5t-65-27.5q-35 0-61.5 27.5T1023 2361zm0-388q0 38 26 62 26 26 62 26 39 0 65.5-25t26.5-63q0-37-27-63.5t-65-26.5q-36 0-62 26.5t-26 63.5zm0 780q0 35 26 61 27 27 62 27 38 0 65-25.5t27-62.5q0-38-27-65.5t-65-27.5q-35 0-61.5 27.5T1023 2753zm345-599q0 38 26.5 64.5t63.5 26.5 62.5-26.5 25.5-64.5q0-36-25.5-62t-62.5-26-63.5 26-26.5 62zm0 388q0 36 26 62t64 26 63-25.5 25-62.5q0-38-25-63t-63-25-64 25-26 63zm107-1668q107-103 261-103 157 0 267.5 109.5T2114 1147q0 105-50 193-154-154-375-154h-33q-47-190-181-312zm170-562q0 38 26.5 65t64.5 27 63.5-26.5T1825 312V92q0-39-25.5-65.5T1736 0t-64.5 27-26.5 65v220zm595 244q0 39 25 64 22 25 58.5 27.5T2391 620l154-154q28-26 28-64t-28-64q-26-28-64-28-37 0-62 28l-154 154q-25 25-25 64zm83 1271q0 37 27 64l69 67q29 27 66 27l2 2q35 0 58-29 28-26 28-64 0-37-28-65l-66-66q-29-29-65-29-38 0-64.5 27.5T2323 1827zm156-680q0 39 28 63 25 28 64 28h220q38 0 65-26.5t27-64.5-26.5-63.5-65.5-25.5h-220q-39 0-65.5 25.5T2479 1147z"/></svg>