<svg xmlns="http://www.w3.org/2000/svg" viewBox="0 0 2871 2885"><path d="M0 1711q0 212 146 363t360 161q19 0 19-18v-142q0-19-19-19-137-7-231-106.5T181 1711q0-135 90-234t224-110l56-8q17 0 17-15l8-59q20-175 147.5-290T1026 880t305.5 115 147.5 287l7 62q4 18 23 18h171q142 0 244 102.5t102 246.5q0 139-94 238.5T1701 2056q-21 0-21 19v142q0 18 21 18 213-7 359-159t146-365q0-108-41-214 124-154 124-357 0-113-44-216.5T2126 745t-178.5-119.5T1730 581q-246 0-412 186-143-70-292-70-226 0-398.5 140T406 1197q-180 41-293 184.5T0 1711zm571 750q0 27 17.5 54t50.5 37q37 11 68.5-4t42.5-60l15-65q8-36-10.5-67.5T699 2313q-36-11-68 8t-42 57l-15 63q-3 9-3 20zm82-309q0 35 26 61 25 27 60 27 38 0 64.5-25.5T830 2152t-26.5-62.5T739 2064q-37 0-61.5 25t-24.5 63zm65-243q-2 25 14 48.5t51 34.5q33 10 66.5-7.5T894 1930l29-96q12-39-7-69.5t-58-41.5q-35-11-67.5 7t-43.5 53l-26 98q-3 27-3 28zm123 885q0 27 17 52.5t52 35.5q14 3 26 3 69 0 85-65l14-63q10-41-9-73t-56-39q-34-11-67 7.5t-44 54.5l-14 63q-4 18-4 24zm60-2394q0 38 26 64l70 68q22 25 57.5 27.5T1121 532q26-26 26-63 0-38-26-64l-67-69q-25-25-63-28-37 0-63.5 27T901 400zm24 2084q0 36 26 62t62 26q38 0 63-25t25-63q0-37-25-62t-63-25-63 25-25 62zm66-242q-2 24 14.5 50t48.5 32q37 10 68-6t44-60l28-96q11-35-7.5-67t-56.5-43q-35-11-68 8.5t-44 56.5l-24 96q-3 13-3 29zm295 229q0 27 16 51.5t49 34.5q5 0 15 2t15 2q65 0 81-70l15-64q11-34-7.5-67t-54.5-44q-40-10-72.5 8.5T1299 2381l-10 63q0 2-1.5 12t-1.5 15zm79-315q0 37 26 61 24 26 62 26t63-25 25-62q0-38-25-63t-63-25-63 25-25 63zm65-247q0 27 17 51.5t52 34.5q3 0 13 2t15 2q17 0 39-10 33-17 43-56l26-96q10-36-7.5-67.5T1574 1727q-37-11-68.5 6t-42.5 54l-30 97q0 3-1.5 11.5t-1.5 13.5zm37-1036q106-106 263-106 158 0 269 108.5t111 264.5q0 106-57 200-157-157-373-157h-33q-45-175-180-310zm176-562q0 37 24.5 61.5T1730 397q39 0 66-24.5t27-61.5V91q0-37-27.5-64T1730 0q-37 0-62 26.5T1643 91v220zm589 242q0 40 24 64 57 57 129 0l153-153q27-27 27-67 0-38-26.5-64.5T2474 306q-37 0-65 26l-153 158q-24 23-24 63zm83 1264q0 37 29 63l65 67q32 26 65 26 32 0 64-26 27-25 27-63 0-36-27-66l-69-65q-24-27-61-27t-64 27q-29 27-29 64zm158-677q0 38 28 63 29 29 66 29h216q37 0 62.5-27t25.5-65-25.5-64.5-62.5-26.5h-216q-38 0-66 27t-28 64z"/></svg>