<svg xmlns="http://www.w3.org/2000/svg" viewBox="0 0 2869 2846"><path d="M0 1700q0 213 148.5 365.5T511 2229q18 0 18-18v-143q0-19-18-19-136-7-231-108.5T185 1700q0-134 89.5-231T499 1356l53-4q21 0 21-19l6-57q17-173 146.5-289.5T1031 870q175 0 305 116.5t146 289.5l8 61q0 19 19 19h178q140 0 242 102t102 242q0 136-95.5 237T1705 2049q-18 0-18 19v143q0 18 18 18 140-4 256-76.5t182.5-192T2210 1700q0-114-44-209 121-150 121-350 0-114-44-217.5T2124 745t-178.5-119-217.5-44q-241 0-406 177-127-68-291-68-226 0-399.5 139.5T411 1188q-180 41-295.5 184T0 1700zm578 714q0 29 17 57t48 38q31 11 65.5-6.5T755 2444l27-112q11-33-7.5-66.5T720 2221q-40-10-72 9t-39 57l-30 106q-1 7-1 21zm139-503q0 61 68 84 35 12 68-5.5t44-56.5l26-110q11-33-7-66t-54-45q-39-10-71 8.5t-39 55.5l-32 109q-3 13-3 26zm130 841q0 26 18 53t52 38q1 0 10.5 1.5t15.5 1.5q22 0 39-8 30-13 44-62l29-106q11-37-7.5-69.5T993 2558q-37-11-69.5 7.5T881 2620l-30 109q-4 16-4 23zm49-2354q0 40 27 66l70 69q54 54 125 0 26-28 26-65t-26-65l-67-70q-26-26-64-26-37 0-64 26.5T896 398zm95 1843q0 27 17 54t50 37q37 11 68-5t43-60l26-108q11-37-6.5-69.5T1135 2046q-40-11-72.5 8.5T1023 2111l-30 110q-2 6-2 20zm297 184q4 60 67 88l27 4q26 0 50.5-17t34.5-53l31-108q10-38-9.5-70.5T1432 2229q-33-11-66 7.5t-44 54.5l-29 109q-1 4-2 9t-2 8.5-1 7.5zm149-508q0 26 16.5 51.5t48.5 34.5l27 3q31 0 55-19t30-50l29-106q11-38-7-69.5t-54-41.5q-37-11-68.5 6.5T1472 1780l-32 113q-3 13-3 24zm35-1052q106-102 256-102 157 0 268 110.5t111 267.5q0 90-50 188-153-153-370-153h-36q-43-181-179-311zm165-558q0 40 25.5 65.5T1728 398t65.5-25.5T1819 307V92q0-40-25.5-66T1728 0t-65.5 26-25.5 66v215zm592 245q0 40 24 65 33 27 66 27 30 0 63-27l153-153q26-29 26-67t-26-64-63-26-65 26l-154 153q-24 28-24 66zm84 1262q0 37 28 67l66 68q33 33 66 33 31 0 62-33 29-29 28-65.5t-28-63.5l-69-70q-26-26-61-26-38 0-65 26.5t-27 63.5zm157-673q0 36 26 62t62 26h218q41 0 67-25t26-63q0-40-26.5-66t-66.5-26h-218q-37 0-62.5 27t-25.5 65z"/></svg>