<svg xmlns="http://www.w3.org/2000/svg" viewBox="0 0 2867 2235"><path d="M0 1706q0 144 70.5 266T262 2164.5t264 70.5h1155q143 0 265-70.5t193-192.5 71-266q0-106-45-213 122-149 122-353 0-114-44-217.5T2124 744t-178.5-119-217.5-44q-237 0-414 186-124-70-288-70-225 0-398 139.5T406 1194q-179 41-292.5 184T0 1706zm182 0q0-134 89.5-231T496 1362l53-3q20 0 20-19l7-58q22-173 150-289.5T1026 876q176 0 306.5 117t146.5 289l8 62q4 18 22 18h172q141 0 243 102t102 242q0 145-101.5 247.5T1681 2056H526q-140 0-242-103.5T182 1706zM897 397q0 39 26 67l70 68q40 30 68 27 33 0 59-27.5t26-66.5-28-63l-63-70q-29-26-65-26-39 0-66 26.5T897 397zm570 472q111-107 261-107 158 0 268.5 110t110.5 268q0 100-54 196-155-153-372-153h-34q-40-174-180-314zm173-563q0 41 25 66t63 25q41 0 66-25t25-66V88q0-38-25.5-63T1728 0q-38 0-63 25t-25 63v218zm589 245q0 41 24 66 34 26 66 26 29 0 63-26l153-153q26-29 26-68 0-38-26-64t-63-26q-38 0-62 26l-157 153q-24 29-24 66zm85 1262q0 38 27 67l69 67q24 26 62 26t63.5-26.5 25.5-66.5q0-36-26-62l-69-69q-26-26-61-26-38 0-64.5 26t-26.5 64zm156-673q0 37 28 62 26 26 65 26h218q37 0 61.5-25t24.5-63-24.5-64.5-61.5-26.5h-218q-38 0-65.5 27t-27.5 64z"/></svg>