<svg xmlns="http://www.w3.org/2000/svg" viewBox="0 0 1627.3333740234375 1857"><path d="M.667 1740q0-48 31-81.5t75-33.5v-2l1404 4q10-2 11-2 44 1 75 35t30 82q0 48-31 81t-75 33v1l-1391-3q-16 2-24 2-44-1-75-34.5t-30-81.5zm88-583q-2-68 17-162 9-48 47-146 4-8 14-30 2 3 4 5t2 3q17 71 52 128 33 52 87 74 42 17 117 19 3 0 8.5.5t8.5.5q-53-53-84-107-48-83-61-193-10-86 10-209 4-24 31-108 24-75 68-137 52-78 149-161 59-50 166-114 11-7 37-20 0 3-.5 5.5t-.5 4V12q-39 92-52 185-10 84 26 158 27 58 98 123 15 15 63.5 61.5t74.5 72.5l27 27q42-61 47-144 7-88-15-192 0-1 1-12 4 3 32 26 89 80 137 143 77 100 113 186 30 73 40 149 9 68 8 112-2 125-27 209-11 34-20 55 40-11 69-28 40-25 64-70 26-46 41-105 0-2 3-5 1 3 5 9.5t5 10.5q20 50 29 103 12 60 8 121-3 46-17 86-13 38-24 62-30 61-66 104-10 12-15 17h-1171q-2-2-7-6t-8-7q-43-41-88-121-13-24-31-74-19-50-22-111z"/></svg>