<svg xmlns="http://www.w3.org/2000/svg" viewBox="0 0 1771 1596"><path d="M0 1482q0-8 2-22V952q44 79 123 126.5t172 47.5q94 0 172.5-47.5T592 952q44 79 122.5 126.5T887 1126q93 0 171.5-47.5T1181 952q45 79 123 126.5t171 47.5 172-47.5T1770 952v513q0 3 .5 8.5t.5 8.5q0 2-.5 7.5t-.5 8.5q-5 37-32 64t-64 32q-3 0-8.5 1t-8.5 1q-2 0-7.5-1t-8.5-1H130q-3 0-8 1t-8 1-8.5-1-7.5-1q-36-5-62-30t-34-60q-2-14-2-22zM588 299.5q0-25.5 18-44.5L842 18l3-2q1 0 1-1 1 0 1-1 1 0 1-1h1q1 0 1-1t1-2h2l1-1h1l1-1h1l1-1h1q1-1 2-1h1q0-1 2-1 1-1 2-1l4-2h1q1 0 1-1h7l1-1h13q1 0 2 1h6q0 1 1 1h2q2 2 3 2l2 1h2l1 1h1l1 1q1 0 1 1h2q1 0 1 .5t1 .5q1 1 2 1 0 2 1 2l1 1h2l1 1 1 1 1 1 2 2 237 237q19 19 19 44.5t-19 43.5q-18 19-43.5 19t-43.5-19L949 213v736q0 25-18 43t-44 18-44.5-18-18.5-43V213L694 343q-19 19-44.5 19T606 343q-18-18-18-43.5z"/></svg>