<svg xmlns="http://www.w3.org/2000/svg" viewBox="0 0 2641 1874"><path d="M0 1455q0-39 27-65t67-26h1991q40 0 65.5 25.5t25.5 65.5q0 37-26.5 62t-64.5 25H94q-40 0-67-25t-27-62zm279-335q0-39 28-64 24-24 63-24h1992q37 0 62 25.5t25 62.5q0 38-25 64.5t-62 26.5H370q-38 0-64.5-27t-26.5-64zm14-254q0 14 16 14h153q10 0 21-17 38-83 113.5-136T762 667l59-8q18 0 18-19l7-53q17-173 146.5-288.5T1296 183q173 0 301.5 114T1744 583l8 61q0 18 21 18h170q103 0 187.5 55T2256 863q11 17 22 17h153q19 0 15-24-47-164-186-268t-317-104h-34q-53-213-223.5-348.5T1296 0q-224 0-398 140.5T675 499q-136 32-238.5 129T294 860v-4q-1 3-1 10zm172 916q0-38 28-63 24-24 64-24h1993q38 0 64.5 25t26.5 62q0 38-27 65t-64 27H557q-37 0-64.5-27.5T465 1782z"/></svg>