<svg xmlns="http://www.w3.org/2000/svg" viewBox="0 0 2318 2157"><path d="M0 1150q0-38 29-65 27-27 66-27h220q38 0 64.5 27t26.5 65q0 40-26.5 67t-64.5 27H95q-40 0-67.5-27T0 1150zm312-748q0-37 26-66 30-27 70-27 34 0 63 27l155 158q27 25 27 64 0 38-26.5 64.5T563 649q-41 0-65-27L338 468q-26-28-26-66zm278 748q0-113 45.5-217.5t122-180 181.5-121 219-45.5q153 0 284 76.5T1649 869t76 281q0 24-3 45-45-27-103-27-39 0-77 16 1-11 1-34 0-156-113-266.5T1158 773q-158 0-270.5 110.5T775 1150v19q-47 3-90 27-1 1-11 8t-20 14.5-25 20-28 25.5q-11-51-11-114zm3 390v-16q-1-15 2-35 8-57 45-109 21-26 29-33 1-3 4-6l4-4q4-2 13-11 3-4 8.5-8t7.5-6q8-8 15-11l18-12q23-15 53-15h3q16 0 28 3 5 2 14 7v1q23 10 36.5 30.5T887 1360q0 27-15 45-10 14-24 25-3 1-6.5 3t-4.5 2l-6 4q-6 5-10.5 9t-11.5 11.5-12 14.5-9.5 16.5-5.5 18.5v16q6 24 12 38 11 22 36 47 2 3 26 27 138 125 129 267-3 48-22.5 92.5t-45.5 75-42 45.5-27 22q-1 1-6 4.5t-8 4.5q-13 6-23 7-14 2-21 2-48 0-76-32-23-28-19-63t35-57l2-2q2-2 5-4.5t7.5-6.5 9-9 9-11 9-12.5 9-14.5 7.5-16 5-17.5 2-18.5q3-32-16-64-8-17-24-35-11-13-16-17-15-18-16-19-3-2-7.5-6t-6.5-5q-24-22-36-38-20-25-26-34-31-42-42-83-7-23-8-34 0-3-2-8.5t-2-9.5zm414-36q0-9 1-15 4-35 21-68.5t37.5-56.5 40-40.5 33.5-26.5l13-8q24-15 53-15 18 0 32 3 1 0 5.5 2.5t6.5 4.5q2 0 3 1 1 0 8 5 32 19 40 58 0 3 .5 7t.5 5q0 5-2 12.5t-2 9.5q-11 36-45 53-53 35-56 74-1 13 0 23 4 19 18 42 18 26 26 34 25 25 30 29 20 18 50 54 87 104 79 213-3 48-22.5 93t-45.5 74.5-43 45.5-27 22l-13 9q-17 6-22 7-18 2-21 2h-3q-13 0-20-2-3 0-8.5-1.5t-7.5-1.5q-1 0-3-1t-4-2.5-3-1.5q-24-17-28-22-25-29-20-63.5t36-56.5l3-4q4-3 9.5-8.5l12.5-12.5 13.5-17 12.5-20.5 9.5-23.5 4.5-26q2-64-74-135-30-27-47-46-89-105-82-208zm58-1190V93q0-39 27.5-66T1158 0q39 0 66 27t27 66v221q0 38-27 63t-66 25q-38 0-65.5-25t-27.5-63zm358 1175q4-35 21-68.5t37.5-56.5 40-40.5 32.5-26.5l14-8q4-3 11-8 18-7 40-7 54 0 82 41 8 11 11 24 2 4 2 9v12q0 50-48 75-51 34-56 74-6 54 73 128 140 124 131 267-3 48-22.5 92.5t-46 75-42 45.5-26.5 22q-26 16-44 17-5 1-16 1-48 0-74-32-24-28-20-63t34-57q5-2 19-15t30.5-41 18.5-56q3-64-75-135-66-58-100-124-36-70-27-145zm244-931q0-40 24-64l156-158q29-27 65-27 38 0 65.5 27.5T2005 402q0 40-28 66l-158 154q-29 27-65 27-37 0-62-26.5t-25-64.5zm246 592q0-35 28-65 25-27 62-27h220q38 0 66.5 27.5t28.5 64.5q0 39-28 66.5t-67 27.5h-220q-39 0-64.5-27t-25.5-67z"/></svg>