<svg xmlns="http://www.w3.org/2000/svg" viewBox="0 0 1654 2357"><path d="M0 1814q0-21 1-31v-9q0-3 .5-6t.5-5 .5-5 .5-4v-2q0-5 2-12.5t2-9.5v-3q0-2 .5-5t.5-4l9-39q0-1 1-2v-2l4-15q1-1 1-2 1-2 1-3v-3q6-20 11-30 0-1 2-3 1-2 5-16 27-61 67-115l6-8q1-1 3-4t3-4q1-2 7-6 1-3 4-6t4-6q6-4 7-8 2-1 7-6l7-8 811-889-41 235L1654 0l-446 868 446-337-404 811 289-199-499 889q0 1-2 4.5t-3 5.5q-1 1-2 4t-2 5q-1 1-2.5 5t-2.5 5q-69 134-198 215t-285 81q-147 0-272-73T73 2086 0 1814zm128 0q0 172 121.5 293.5T543 2229q131 0 237-75.5T930 1957q27-68 27-143 0-172-121-293t-293-121q-160 0-277 107-65 57-101.5 137T128 1814z"/></svg>