<svg xmlns="http://www.w3.org/2000/svg" viewBox="0 0 2549 2045"><path d="M0 1566q0 38 29 64 29 29 65 29h627q42 0 73.5 30t31.5 73q0 41-32 72.5t-73 31.5q-40 0-72-32-30-28-66-28-37 0-63 27t-26 65 26 64q83 83 201 83 119 0 202-82.5t83-200.5q0-119-83.5-203T721 1475H94q-38 0-66 27t-28 64zm0-321q0 36 29 62 24 26 65 26h1172q118 0 201.5-83t83.5-201-83.5-200.5T1266 766q-122 0-202 80-24 27-24 67 0 38 24 62.5t64 24.5 65-24q30-30 73-30 41 0 72 30t31 73-31 74-72 31H94q-38 0-66 27t-28 64zm283-250q0 13 18 13h153q13 0 23-15 36-87 111.5-144T758 785l56-7q20 0 20-20l7-53q17-173 147-289.5T1293 299t304 115.5T1745 705l7 61q0 19 19 19h174q144 0 246 101t102 243q0 143-102 244.5T1945 1475h-737q-18 0-18 19v146q0 19 18 19h737q143 0 264.5-71t192-193 70.5-266q0-119-45-216 122-160 122-355 0-114-44.5-217.5t-119.5-178T2206.5 44 1990 0q-247 0-414 185-125-65-283-65-226 0-399.5 139.5T673 617q-136 32-241 131T286 981v4q-3 8-3 10zm1443-707q115-109 264-109 156 0 267.5 112T2369 558q0 97-54 197-153-153-370-153h-35q-37-171-184-314z"/></svg>