<svg xmlns="http://www.w3.org/2000/svg" viewBox="0 0 2333 2421"><path d="M0 1245q0 212 149 366t363 161q19 0 19-18v-143q0-18-19-18-136-7-233-110t-97-238q0-136 90.5-235.5T497 899l57-7q21 0 21-19l7-54q17-176 146.5-293.5T1034 408q174 0 305.5 117T1489 815l8 61q0 20 18 20h173q145 0 248.5 103t103.5 246q0 88-44 166.5T1875.5 1539t-166.5 54q-21 0-21 18v143q0 18 21 18 141-4 258-76t184.5-191.5T2219 1245q0-141-73-268 133-119 169-280l15-73q3-3 3-8 0-9-18-17l-59-19q-92-27-157-90.5t-92.5-133T1979 219q-3-34 10-88l14-62q7-16-14-25l-85-26q-65-18-138-18-58 0-119.5 14t-127 44-127.5 86.5T1285 276q-130-49-251-49-226 0-401.5 140.5T407 727q-180 46-293.5 189T0 1245zm577 752q0 27 17.5 54t50.5 37q37 11 68-4t42-60l15-65q8-36-10-67.5t-55-42.5q-36-11-68.5 8t-42.5 57l-15 63q-2 6-2 20zm81-309q0 34 27 61 25 27 60 27 38 0 64-25.5t26-62.5-26-62.5-64-25.5q-37 0-62 25t-25 63zm65-243q-2 25 14.5 48.5T789 1528q33 10 66-7.5t44-54.5l30-96q12-39-7-69.5t-58-41.5q-35-11-67.5 7t-43.5 53l-26 98q0 3-2 12.5t-2 15.5zm124 885q0 28 16.5 53t51.5 35q13 3 27 3 68 0 84-65l15-63q10-41-9-73t-56-39q-34-11-67 7.5t-44 54.5l-15 63q-3 14-3 24zm83-310q0 35 27 62 26 26 61 26 38 0 63-25t25-63q0-37-25-62t-63-25-63 25-25 62zm67-242q-2 24 14 50t48 32q37 10 68-6t44-60l29-96q11-35-7.5-67t-56.5-43q-35-11-68 8.5t-44 56.5l-24 96q-3 13-3 29zm294 229q0 26 16.5 51t49.5 35q5 0 14.5 2t14.5 2q65 0 81-70l15-64q11-34-7-67t-54-44q-40-10-72.5 8.5T1305 1917l-10 63q0 4-2 13t-2 14zm79-315q0 36 27 61 24 26 61 26 38 0 63-25t25-62q0-38-25-63t-63-25-63 25-25 63zm65-247q0 27 17.5 51.5t52.5 34.5q3 0 13 2t15 2q16 0 38-10 34-18 44-56l26-96q10-36-8-67.5t-54-42.5q-37-11-68 6t-42 54l-30 97q0 4-2 12.5t-2 12.5zm7-1072q51-92 140-142.5t184-49.5q15 0 32 3v34q-2 157 82.5 294.5T2117 719q-31 65-85 118-148-122-344-122h-33q-50-208-213-342z"/></svg>