<svg xmlns="http://www.w3.org/2000/svg" viewBox="0 0 2286 2089"><path d="M0 1129q0 105 40 200.5t108.5 165T311 1607t199 48q19 0 19-18v-143q0-18-19-18-139-10-234-110t-95-237q0-134 90.5-233T495 785l56-6q20 0 20-19l8-55q11-114 74-207t162-145.5 215-52.5q174 0 303.5 115T1482 702l7 62q0 18 20 18h171q144 0 247 102.5t103 244.5q0 137-95 237t-234 110q-21 0-21 18v143q0 18 21 18 214-10 361-161.5t147-364.5q0-102-50-220 127-159 127-349 0-152-75.5-281t-204-204T1727 0q-254 0-413 185-130-68-284-68-225 0-400 140.5T406 617q-179 41-292.5 184T0 1129zm816 493q-4 22 15 22h231l-141 445h31l446-595q6-7 2.5-14.5t-14.5-7.5h-233l245-452q12-23-15-23h-314q-12 0-22 15zm647-1334q107-106 264-106t266.5 110T2103 560q0 95-55 192-155-149-368-149h-33q-47-190-184-315z"/></svg>