<svg xmlns="http://www.w3.org/2000/svg" viewBox="0 0 2328 2388.66650390625"><path d="M0 1232.667q0 177 106 316.5t275 190.5l-69 181q-7 22 15 22h226l-138 446h30l451-600q6-7 2-14.5t-15-7.5H651l264-495q11-23-14-23H585q-14 0-24 16l-114 307q-114-29-189.5-124.5t-75.5-214.5q0-133 90.5-231t224.5-114l56-8q21 0 21-19l8-54q17-173 146.5-290t304.5-117q174 0 305 117.5t149 289.5l8 61q0 20 18 20h173q145 0 248 101.5t103 243.5q0 136-96 236t-235 110q-20 0-20 20v145q0 19 20 19 213-7 361.5-161.5t148.5-368.5q0-139-70-261 122-118 161-280l20-73q1-1 1-7 0-13-16-17l-66-18q-92-27-156-89.5t-90.5-130-25.5-134.5q0-44 11-91l12-65q4-16-15-25l-85-26q-75-15-132-15-59-1-120.5 12.5t-126.5 43-125.5 84-105.5 128.5q-136-49-254-49-226 0-401 140.5t-225 358.5q-177 42-292 185.5t-115 328.5zm872 1052q0 25 16.5 50t48.5 35q25 5 29 5 15 0 39-11 33-16 45-56l30-112q10-35-8.5-67.5t-56.5-43.5q-35-10-67.5 9t-43.5 57l-29 107zm143-507q0 69 65 80 22 5 29 5 60 0 82-67l32-109q10-35-9-67.5t-57-43.5q-36-11-68.5 7.5t-43.5 56.5l-27 108q-3 14-3 30zm299 178q2 27 19 51.5t51 36.5q26 6 35 6 55 0 76-72l26-109q11-37-6.5-70t-53.5-44q-40-10-72.5 9t-39.5 57l-31 110q0 4-2 12.5t-2 12.5zm126-1589q53-89 143-137.5t188-48.5h23v34q0 102 36 198t108.5 177 171.5 129q-27 60-81 110-146-125-343-125h-35q-45-201-211-337zm21 1077q0 69 69 88 22 4 32 4 58 0 79-69l30-111q1-8 1-23 2-27-15-52.5t-52-35.5q-2 0-10.5-1.5t-13.5-1.5q-26 0-51 16.5t-35 50.5l-31 109q0 1-1.5 11t-1.5 15z"/></svg>