<svg xmlns="http://www.w3.org/2000/svg" viewBox="0 0 2334 2440"><path d="M0 1237q0 179 106.5 320.5T381 1746q14 3 26-8l120-150q-140 0-242.5-104T182 1237q0-134 90-231.5T497 896l53-7q20 0 20-20l8-57q20-174 150-291t305-117q174 0 305 117.5T1488 812l7 62q0 18 19 18h173q141 0 243.5 102t102.5 243q0 136-90 236.5T1722 1585q-72 9-92 30l-249 310q-25 28-20 67 4 38 33.5 63t60.5 25q36 0 68-40l218-276q99-10 187.5-55.5T2080 1593t100-163 37-193q0-139-73-260 130-118 169-280v-10l21-82-81-28q-92-27-156.5-89t-92-131-27.5-140q0-41 9-85l20-83-89-25q-1 0-3-1.5t-4-2.5-4.5-2-3.5-1q-70-17-133-17-61 1-122.5 15t-128 44-128.5 86-107 132q-120-52-250-52-226 0-401 140T407 723q-181 44-294 186.5T0 1237zm395 852q0 21 7 33 14 35 46 49 35 16 71 3t49-47q16-35 1.5-71.5T521 2007q-35-16-70.5-2.5T402 2053q-7 15-7 36zm197-261v12q3 36 35 59 21 24 58 23t70-34l248-311q22-28 18-66.5t-32-61.5-67-19-61 36l-248 305q-21 24-21 57zm61 556q14 34 49 48 17 8 35 8 10 0 32-6 34-14 47-47 13-35 1-69t-47-51q-35-13-67 .5t-48 46.5q-17 30-2 70zm170-284v9q4 36 34 61.5t60 25.5q35 0 64-36l460-572q23-27 20-66t-31-62q-32-23-70.5-19.5T1299 1472l-456 572q-20 25-20 56zm374 118q0 18 8 35 13 36 50 50 36 14 65 2 35-14 49-49 16-35 3.5-68.5T1325 2138q-35-13-69.5 0t-50.5 45q-8 19-8 35zm244-1847q50-92 138.5-140.5T1767 184q19 0 28 1v32q0 155 85.5 293.5T2114 720q-40 75-84 119-142-126-343-126h-34q-48-205-212-342z"/></svg>