<svg xmlns="http://www.w3.org/2000/svg" viewBox="0 0 2298 2309"><path d="M0 1128q0 179 106.5 320T382 1636l-70 181q-8 23 15 23h227l-152 449h31l465-604q6-7 2-14.5t-15-7.5H651l266-496q12-23-15-23H586q-15 0-25 16l-114 307q-115-29-190-123.5T182 1128q0-135 90-233t225-114l54-3q19 0 24-15l8-63q17-173 146.5-290.5T1035 292q174 0 305.5 117.5T1490 700l8 63q0 18 19 18h172q143 0 246 102.5t103 244.5q0 139-95.5 241.5T1710 1479q-21 0-21 19v143q0 18 21 18 141-4 258.5-76.5t185.5-193 68-261.5q0-117-46-215 122-154 122-351 0-152-75.5-281.5t-205-205T1736 0q-115 0-223.5 48T1325 181q-129-69-290-69-227 0-402.5 140.5T408 612q-177 41-292.5 186T0 1128zm841 1090q0 27 17 52.5t52 35.5q14 3 26 3 69 0 85-65l14-63q10-41-9-73t-56-39q-34-11-67 7.5t-44 54.5l-14 63q-4 18-4 24zm84-310q0 36 26 62t62 26q38 0 63-25t25-63q0-37-25-62t-63-25-63 25-25 62zm66-242q-2 24 14.5 50t48.5 32q37 10 68-6t44-60l28-96q11-35-7.5-67t-56.5-43q-35-11-68 8.5t-44 56.5l-24 96q-3 13-3 29zm295 229q0 27 16 51.5t49 34.5q5 0 15 2t15 2q65 0 81-70l15-64q11-34-7.5-67t-54.5-44q-40-10-72.5 8.5T1299 1805l-10 63q0 2-1.5 12t-1.5 15zm79-315q0 37 26 61 24 26 62 26t63-25 25-62q0-38-25-63t-63-25-63 25-25 63zm110-1291q107-103 261-103 157 0 267.5 109.5T2114 562q0 105-50 193-154-154-375-154h-33q-47-190-181-312z"/></svg>