<svg xmlns="http://www.w3.org/2000/svg" viewBox="0 0 2297 2248"><path d="M0 1129q0 213 149 366.5T512 1659q19 0 19-18v-143q0-18-19-18-137-8-233.5-110T182 1129q0-133 90.5-231T497 784l56-4q21 0 21-19l8-58q17-173 146.5-290T1033 296q174 0 305 117t149 290l8 61q0 20 18 20h173q145 0 248 101.5t103 243.5q0 138-97 240.5T1706 1480q-20 0-20 18v143q0 18 20 18 214-7 362.5-161.5T2217 1129q0-114-46-214 126-154 126-354 0-152-75.5-281.5T2017 75 1737 0q-248 0-415 185-129-69-289-69-226 0-401 140.5T407 615q-177 42-292 185.5T0 1129zm585 823q0 33 26 61 28 26 62 26 38 0 63-25t25-62q0-38-25.5-63t-62.5-25-62.5 25-25.5 63zm92-387q0 38 25.5 65t62.5 27 62.5-27 25.5-65q0-36-25.5-62t-62.5-26-62.5 26-25.5 62zm202 595q0 35 26 61 27 27 62 27 38 0 64.5-25t26.5-63-27-64.5-64-26.5q-35 0-61.5 27t-26.5 64zm91-390q0 35 27 64 26 26 61 26 38 0 65-26t27-64q0-37-27-63.5t-65-26.5q-36 0-62 26.5t-26 63.5zm46-384q0 36 26 62t62 26q38 0 64.5-25.5t26.5-62.5-26.5-63-64.5-26q-36 0-62 26t-26 63zm253 566q0 34 25 61 28 26 64 26 38 0 63-25t25-62q0-38-25-63t-63-25-63.5 25.5-25.5 62.5zm91-387q0 38 26 65t63 27 62.5-27 25.5-65q0-36-25.5-62t-62.5-26-63 26-26 62zm112-1276q108-108 265-108t266.5 111T2113 561q0 94-54 196-154-154-373-154h-33q-47-186-181-314z"/></svg>