<svg xmlns="http://www.w3.org/2000/svg" viewBox="0 0 2288 2279"><path d="M0 1125q0 178 106 318t273 187l-68 179q-8 23 15 23h226l-111 447h30l423-600q6-7 1.5-15t-15.5-8H648l264-492q11-23-15-23H583q-14 0-24 15l-114 306q-114-28-188.5-122T182 1125q0-133 89.5-230.5T495 781l57-4q19 0 19-19l8-57q11-113 74-206.5T815.5 348t214.5-53q173 0 303 117t148 289l8 60q0 20 18 20h173q142 0 245.5 102t103.5 242q0 138-96 239.5T1701 1473q-21 0-21 19v143q0 18 21 18 139-4 256-76.5t184-192.5 67-259q0-117-45-214 125-148 125-353 0-113-44.5-216T2124 164 1946 44.5 1730 0q-247 0-412 185-129-69-288-69-225 0-400 139.5T406 613q-176 41-291 184.5T0 1125zm846 1054q0 26 15.5 49t48.5 33l27 3q67 0 85-64l259-948q10-37-7-68.5t-52-42.5q-37-11-69.5 6.5T1110 1201l-261 949q-3 27-3 29zm442-324q0 64 66 85 27 3 28 3 18 0 37-8 32-14 45-59l175-624q10-37-8-68.5t-54-42.5q-37-11-69 6.5t-42 53.5l-173 628q-5 23-5 26zm178-1568q108-102 264-102 155 0 265 109t110 264q0 101-54 197-154-154-371-154h-34q-45-183-180-314z"/></svg>