<svg xmlns="http://www.w3.org/2000/svg" viewBox="0 0 2323 2300"><path d="M0 1144q0 181 106.5 321T386 1657q16 2 27-8l121-156q-143 0-246.5-102.5T184 1144q0-138 91.5-239T504 793l56-8q17 0 17-15l8-60q19-176 150.5-294T1043 298q178 0 310.5 117T1503 707l8 63q4 18 22 18h174q144 0 248 105t104 251q0 135-91 235.5T1744 1493q-76 0-97 30l-233 256q-25 29-20.5 66.5t33.5 67.5q21 28 62.5 24.5t64.5-40.5l209-222q132-13 243-87.5t175.5-192T2246 1144q0-101-46-222 123-156 123-354 0-156-76-286.5t-207-206T1755 0q-251 0-416 182-139-69-296-69-229 0-404.5 142T413 621q-183 41-298 186.5T0 1144zm405 800q0 23 5 34 13 34 47 47 36 16 72.5 2.5T578 1979q16-35 2-71.5t-49-49.5q-36-13-70 .5t-50 47.5q-6 13-6 38zm196-261q0 37 34 71 68 58 134-16l234-260q24-28 19.5-65.5T989 1352q-29-22-67-17t-63 31l-235 254q-23 34-23 63zm69 526q0 19 8 34 14 36 44 49 19 8 39 8 12 0 34-6 34-15 47-48 16-32 2.5-68t-47.5-49q-36-17-70-3t-52 51q-5 15-5 32zm178-255v14q3 39 34 64 23 29 63.5 25.5t63.5-40.5l450-524q25-29 21-68t-37-61q-28-23-64.5-20t-61.5 32l-450 525q-19 20-19 53zm387 89q-11 36 0 66 14 35 48 52 17 8 38 8 10 0 32-6 36-14 49-49 16-36 3-70t-47-47q-36-17-70.5-3.5T1235 2043zm256-1752q109-109 264-109 161 0 273.5 112.5T2141 568q0 100-55 194-156-156-379-156h-34q-40-182-182-315z"/></svg>