<svg xmlns="http://www.w3.org/2000/svg" viewBox="0 0 2331 2381"><path d="M0 1233q0 213 148.5 366T511 1762q18 0 18-18v-146q0-19-18-19-139-11-234-110.5T182 1233q0-132 90-230t224-114l56-8q21 0 21-18l8-55q17-173 146-289.5T1031 402q174 0 304 116t148 290l8 62q0 19 19 19h172q144 0 247 101t103 243q0 136-95 235.5T1703 1579q-21 0-21 19v146q0 18 21 18 213-7 360.5-161t147.5-368q0-139-69-259 130-117 169-279v-14l20-84-81-22q-130-39-202-144.5T1976 214q0-42 9-83l21-85-91-27-14-4q-75-15-133-15-60 0-122 14t-128.5 44-128 85.5T1283 275q-119-52-252-52-226 0-399.5 140T411 721q-180 41-295.5 184T0 1233zm576 722q0 24 16 47.5t48 35.5q35 12 68-5.5t44-54.5l30-113q11-33-7.5-66t-54.5-44q-37-10-69.5 9t-44.5 57l-25 106q-5 25-5 28zm138-505q0 18 11 38 12 28 57 41 39 10 70-6.5t43-55.5l30-110q11-37-7.5-68.5T863 1247q-39-10-71 7.5t-43 55.5l-29 108q-6 22-6 32zm134 838q0 27 16.5 52.5T913 2376q17 5 24 5 14 0 40-11 32-13 46-59l32-112q11-34-7.5-67t-54.5-44q-39-10-71.5 8.5T878 2153l-27 108q-3 13-3 27zm142-509q0 24 16 47.5t49 35.5q36 11 68-6t43-56l29-111q11-34-6.5-66.5T1136 1579q-39-10-72.5 9t-44.5 57l-26 107zm299 188q0 60 68 80 14 3 26 3 24 0 39-7 34-13 47-61l29-109q10-40-8.5-71.5T1433 1762q-37-11-68.5 7.5T1322 1824l-29 111q0 4-2 15.5t-2 16.5zm148-514q0 25 16.5 49t49.5 34q23 5 25 5 14 0 40-11 33-13 47-59l30-111q10-35-9-67t-57-43q-35-11-67 7.5t-43 55.5l-28 113q-4 18-4 27zm4-1084q51-90 141.5-140t193.5-50h22q-1 14-1 40 0 152 83.5 289T2112 717q-35 69-83 117-149-129-347-129h-34q-40-189-207-336z"/></svg>