<svg xmlns="http://www.w3.org/2000/svg" viewBox="0 0 2331 2382"><path d="M0 1239q0 213 149 366.5T512 1769q19 0 19-18v-143q0-18-19-18-137-8-233.5-110T182 1239q0-133 90.5-231.5T497 893l57-4q21 0 21-18l7-58q17-173 147-290.5T1034 405q174 0 305 117.5T1488 813l8 61q0 19 18 19h173q143 0 247.5 102.5T2039 1239q0 139-96.5 241T1709 1590q-22 0-22 18v143q0 18 22 18 213-7 361-161.5t148-368.5q0-141-73-262 129-117 169-279l15-77q2-1 2-7 0-12-17-17l-60-19q-91-26-156-88.5T2005.5 358 1978 221q-3-36 9-88l15-65q7-16-15-26l-84-26q-72-16-135-16-60 0-122 14t-128 43.5-128 85T1283 273q-132-48-249-48-226 0-401.5 140.5T407 725q-177 41-292 185T0 1239zm593 729q0 27 17.5 52.5T663 2056q37 11 68.5-4.5T774 1992l153-626q10-40-9-72t-56-39q-35-11-67.5 7t-43.5 54l-154 629q0 2-2 10t-2 13zm278 328q0 25 16.5 49t47.5 33q18 4 26 4 70 0 87-63l240-953q10-39-7.5-69.5T1227 1255q-37-11-70.5 7.5T1115 1316l-241 952q0 2-1.5 12.5T871 2296zm444-319q0 57 67 79 22 6 32 6 18 0 37-8 33-13 42-62l153-626q10-38-8-69t-54-42q-37-11-70 7t-41 54l-153 629q-5 28-5 32zm126-1605q51-93 139.5-141.5T1768 184q19 0 29 1v32q-2 155 82 293t236 210q-36 73-84 114-147-121-344-121h-33q-44-203-213-341z"/></svg>