<svg xmlns="http://www.w3.org/2000/svg" viewBox="0 0 2681 1982"><path d="M0 1564q0 40 29 64 27 28 65 28h1018q37 0 62.5-27t25.5-65-25.5-65-62.5-27H94q-38 0-66 27.5T0 1564zm281-323q0 36 29 62 26 26 64 26h1019q38 0 63-25t25-63-25.5-64.5-62.5-26.5H374q-38 0-65.5 27t-27.5 64zm122-249q0 12 21 12h152q14 0 24-15 36-87 112-144t169-64l58-8q19 0 19-19l8-54q17-173 147-290t306-117 306 116 148 291l8 61q0 20 18 20h173q146 0 248.5 101t102.5 244q0 142-102.5 244T2072 1472h-737q-18 0-18 18v147q0 19 18 19h737q145 0 267.5-71t194-193 71.5-266q0-113-47-214 123-161 123-351 0-152-75.5-281.5T2401 75 2119 0q-244 0-410 178-136-65-290-65-149 0-280.5 63t-221 177T797 612q-140 32-244.5 128.5T407 972zm66 902q0 37 28 62 26 26 64 26h1020q38 0 64.5-25t26.5-63-27-65-64-27H561q-37 0-64.5 27.5T469 1894zM1856 286q108-104 263-104 158 0 269 110.5T2499 561q0 101-52 189-157-153-375-153h-34q-39-175-182-311z"/></svg>