<svg xmlns="http://www.w3.org/2000/svg" viewBox="0 0 2323 2001"><path d="M0 1233q0 213 148.5 366T511 1763q19 0 19-19v-142q0-19-19-19-137-7-233-109t-96-241q0-133 90-231t224-114l56-4q21 0 21-19l8-58q17-173 146.5-289.5T1032 401q174 0 305 117t149 289l7 61q0 20 19 20h173q142 0 245.5 102.5T2034 1233q0 139-96 241t-233 109q-20 0-20 19v142q0 19 20 19 140-5 257.5-77t185-192.5T2215 1233q0-139-73-261 125-119 164-275l15-78q2-1 2-7 0-12-17-17l-61-18q-91-26-156-87.5T1996.5 360 1969 223q0-46 12-91l14-65q4-16-14-25l-85-26q-72-16-135-16-58 0-119 14t-126.5 43-127.5 84-107 128q-130-49-249-49-226 0-401 140.5T406 719q-177 42-291.5 185.5T0 1233zm633 94q0 61 44.5 104t108.5 43 107-42.5 43-104.5q0-41-37-109t-69-105q-17-19-44-46l-37 44q-43 47-79.5 110.5T633 1327zm319 425q0 105 73 177t176 72q105 0 177.5-73t72.5-176q0-88-85-213-71-93-137-159-13-9-28-24l-25 24q-63 58-136 158-38 53-63 111t-25 103zm157-711q0 41 30.5 70t74.5 29q41 0 70-29t29-70q0-68-99-173l-27 29q-29 32-53.5 74.5T1109 1041zm326-674q56-91 143-137.5t183-46.5q19 0 29 2v32q0 154 84 292t233 210q-25 60-80 110-148-122-342-122h-35q-49-210-215-340z"/></svg>