<svg xmlns="http://www.w3.org/2000/svg" viewBox="0 0 2328 2412.66650390625"><path d="M0 1251.667v-39q7-179 121-317t286-178q50-218 225-358t401-140q118 0 254 49 45-74 105.5-128.5t125.5-84 126.5-43T1765 .667q62 0 132 14l85 27q19 9 15 25l-12 65q-11 47-11 90 0 49 15.5 101t47 101.5 85.5 90.5 124 62l66 18q16 4 16 17 0 6-1 7l-20 73q-39 162-161 280 70 122 70 261 0 214-148.5 368.5t-361.5 161.5q-20 0-20-20v-145q0-19 20-19 139-10 235-110t96-236q0-143-103-244.5t-248-101.5h-173q-18 0-18-19l-8-62q-18-172-149-289.5t-305-117.5q-175 0-304.5 117t-146.5 290l-8 55q0 18-21 18l-56 8q-134 16-224.5 114.5t-90.5 231.5v2l1 1h2q1 84 39 158t104 122h1l1 1 1 1q35 25 66 37 54 24 114 26 18 0 18 18v143q0 19-18 19-149-7-272-88h-1q-106-69-169.5-180t-68.5-241zm587 744q0-5 2-13.5t2-12.5l10-63q11-38 43.5-56.5t72.5-8.5q36 11 54 44t7 67l-15 64q-16 69-81 69-5 0-15.5-1.5t-13.5-1.5q-33-10-49.5-35t-16.5-52zm79-314q0-38 25-63t63-25 63 25 25 63q0 37-25 62t-63 25q-36 0-61-27-27-25-27-60zm175 640q0-6 4-24l14-63q11-36 44-54.5t67-7.5q37 7 56 39t9 73l-14 63q-16 65-85 65-12 0-26-3-35-10-52-35.5t-17-52.5zm84-310q0-37 25-62t63-25 63 25 25 62q0 38-25 63t-63 25q-36 0-62-26t-26-62zm66-242q0-15 3-29l24-96q11-37 44-56.5t68-8.5q38 11 56.5 43t7.5 67l-28 96q-13 44-44 60t-68 6q-32-6-48.5-32t-14.5-50zm295 228q0-5 1.5-14t1.5-12l10-63q11-38 43.5-56.5t72.5-8.5q36 11 54.5 44t7.5 67l-15 64q-16 70-81 70-5 0-15-2t-15-2q-32-10-48.5-35t-16.5-52zm79-314q0-38 25-63t63-25 63 25 25 63q0 37-25 62t-63 25-62-26q-26-24-26-61zm75-1318q166 136 211 337h35q196 0 343 126 54-49 81-111-99-48-171.5-129t-108.5-177-36-198v-33h-23q-99 0-188.5 48t-142.5 137z"/></svg>