<svg xmlns="http://www.w3.org/2000/svg" viewBox="0 0 2539 1539"><path d="M0 1007q0 39 30 66 26 30 67 30h1567q46 0 78 32t32 79q0 46-31.5 76.5T1664 1321t-78-31q-26-28-64-28-40 0-68.5 27.5T1425 1355q0 40 30 67 90 88 209 88 125 0 214-86t89-210-89.5-213.5T1664 911H97q-40 0-68.5 28T0 1007zm0-350q0 37 30 65 28 28 67 28h2138q125 0 214.5-87t89.5-210q0-124-89.5-212T2235 153q-123 0-208 85-29 26-29 71 0 41 27.5 67t67.5 26q39 0 67-26 30-33 75-33 46 0 77.5 32t31.5 78-31.5 77-77.5 31H97q-40 0-68.5 28T0 657zm168 738q0 38 26 62 26 26 62 26 39 0 66-25t27-63q0-37-27.5-63.5T256 1305q-36 0-62 26.5t-26 63.5zM269 336q0 38 26 62 26 26 62 26 39 0 65.5-25t26.5-63q0-37-27-63.5T357 246q-36 0-62 26.5T269 336zM592 90q0 38 26 62 26 26 62 26 39 0 66-25t27-63q0-37-27.5-63.5T680 0q-36 0-62 26.5T592 90zm10 1237q0 37 27 62 26 26 61 26 39 0 66-25t27-63q0-37-27.5-63.5T690 1237q-36 0-62 26.5t-26 63.5zm446-1048q0 38 26 62 26 26 62 26 39 0 66-25t27-63q0-37-27.5-63.5T1136 189q-36 0-62 26.5t-26 63.5zm34 1172q0 37 27 62 26 26 61 26 39 0 66-25t27-63q0-37-27.5-63.5T1170 1361q-36 0-62 26.5t-26 63.5zm478-1189q0 37 26 61 27 27 62 27 39 0 66-25t27-63q0-37-27.5-64t-65.5-27q-35 0-61.5 27t-26.5 64zm543 753q0 38 26 62 26 26 62 26 39 0 65.5-25t26.5-63q0-37-27-63.5t-65-26.5q-36 0-62 26.5t-26 63.5z"/></svg>