<svg xmlns="http://www.w3.org/2000/svg" viewBox="0 0 1609 1611"><path d="M0 807q0-31 21-53t51-22q31 0 52 22t21 53q0 30-21.5 51T72 879t-51-21.5T0 807zm211 0q0-31 21-53t51-22h344L384 489q-22-20-22-50.5t22-52.5 52-22 52 22l242 242V286q0-31 22-53t53-22q30 0 51 22t21 53v345l244-245q22-22 51.5-22t52.5 22q19 22 19 52.5t-19 50.5L982 732h344q29 0 50.5 22t21.5 53q0 29-21.5 50.5T1326 879H981l244 244q19 20 19 50t-19 52q-23 22-52.5 22t-51.5-22L877 980v346q0 31-21 52.5t-51 21.5q-31 0-53-21.5t-22-52.5V983l-242 242q-22 22-52 22t-52-22-22-52 22-50l245-244H283q-30 0-51-21.5T211 807zm2 516.5q0-29.5 22-51.5 20-22 50.5-22t52.5 22 22 51.5-22 51.5-52.5 22-50.5-22q-22-22-22-51.5zm0-1036q0-29.5 22-51.5 20-22 50.5-22t52.5 22 22 51.5-22 52.5q-22 22-52.5 22T235 340q-22-23-22-52.5zM730 1537q0-29 22-50.5t53-21.5q30 0 51 21.5t21 50.5q0 31-21 52.5t-51 21.5q-31 0-53-21.5t-22-52.5zm0-1463q0-31 22-52.5T805 0q30 0 51 21.5T877 74q0 29-21 50.5T805 146q-31 0-53-21.5T730 74zm519 1249.5q0-29.5 22-51.5 20-22 50.5-22t52.5 22 22 51.5-22 51.5-52.5 22-50.5-22q-22-22-22-51.5zm0-1036q0-29.5 22-51.5 20-22 50.5-22t52.5 22 22 51.5-22 52.5q-22 22-52.5 22t-50.5-22q-22-23-22-52.5zM1463 807q0-31 21.5-53t52.5-22q29 0 50.5 22t21.5 53q0 29-21.5 50.5T1537 879q-31 0-52.5-21.5T1463 807z"/></svg>