<svg xmlns="http://www.w3.org/2000/svg" viewBox="0 0 2539 1357"><path d="M0 854q0 39 30 66 26 30 67 30h1567q46 0 78 32t32 79q0 46-31.5 76.5T1664 1168t-78-31q-26-28-64-28-40 0-68.5 27.5T1425 1202q0 40 30 67 90 88 209 88 125 0 214-86t89-210-89.5-213.5T1664 758H97q-40 0-68.5 28T0 854zm0-350q0 37 30 65 28 28 67 28h2138q125 0 214.5-87t89.5-210q0-124-89.5-212T2235 0q-123 0-208 85-29 26-29 71 0 41 27.5 67t67.5 26q39 0 67-26 30-33 75-33 46 0 77.5 32t31.5 78-31.5 77-77.5 31H97q-40 0-68.5 28T0 504z"/></svg>