<svg xmlns="http://www.w3.org/2000/svg" viewBox="0 0 1086 2357"><path d="M0 1814q0-136 63-253.5T239 1364V306q0-128 88-217T543 0q129 0 217.5 89T849 306v1058q113 79 175 196.5t62 253.5q0 148-72.5 273T816 2284.5 543 2357q-147 0-272-72.5T73 2087 0 1814zm187 0q0 149 104.5 254.5T543 2174q149 0 256.5-107T907 1814q0-100-51.5-184.5T715 1498l-30-15q-16-7-16-31V306q0-52-36-86t-90-34q-52 0-88.5 34T418 306v1146q0 24-15 31l-29 15q-88 47-137.5 131T187 1814zm83 0q0 114 78 194t188 80 191-80.5 81-193.5q0-101-69.5-178T570 1545V762q0-10-10.5-20.5T536 731q-14 0-22.5 9t-8.5 22v783q-98 14-166.5 91T270 1814z"/></svg>