<svg xmlns="http://www.w3.org/2000/svg" viewBox="0 0 2214 2180"><path d="M0 1011q0 177 106 317t275 191l-70 179q-5 23 15 23h227l-105 459h30l418-613q6-7 1.5-14.5T882 1545H650l264-495q11-23-15-23H585q-15 0-25 16l-114 306q-114-29-189-124t-75-214q0-133 90.5-231T497 666l56-7q21 0 21-19l7-54q17-173 146.5-290T1032 179q174 0 304.5 117T1486 586l7 62q0 18 19 18h171q145 0 248 101.5t103 243.5q0 136-95 235.5T1704 1357q-21 0-21 19v146q0 18 21 18 213-7 361.5-161t148.5-368q0-144-71-265.5t-193.5-192T1683 483h-33q-53-213-225.5-348T1032 0Q806 0 631 140T407 498q-177 41-292 184.5T0 1011zm869 1036q0 63 62 82 2 0 12 1.5t15 1.5q27 0 52.5-15.5t34.5-51.5l240-927q10-38-7-69t-53-42q-27-3-28-3-26 0-50.5 16t-33.5 48l-241 930q-3 14-3 29zm443-327q0 21 11 40 22 35 54 47 17 5 32 5t34-8q33-14 45-61l154-605q5-23 5-29 0-24-17-48t-49-34q-27-3-28-3-27 0-50 15.5t-32 48.5l-156 608q0 3-1.5 11.5t-1.5 12.5z"/></svg>