<svg xmlns="http://www.w3.org/2000/svg" viewBox="0 0 1485 1541"><path d="M0 831q0 71 74 121 135 95 408 95 123 0 228-21 111-24 181-75t70-120q0-21-8-42 142-35 223-94.5t81-136.5q0-19-6-41 234-83 234-224 0-90-102-160Q1183 0 797 0 615 0 467 32 308 64 209.5 134T111 293q0 53 33 97Q23 459 23 558q0 77 75 135Q0 750 0 831zm41 307q0 75 92.5 117.5T366 1298q142 0 235-42.5t93-117.5q0-28-18-47t-46-19q-23 0-41 16t-23 39q-20 16-75 29.5T366 1170q-113 0-183-32 16-16 17.5-41t-10.5-42q-16-22-41.5-27t-47.5 9q-60 40-60 101zm87-307q0-1 13-12 9-9 38.5-23t65.5-24l8-4q166 55 387 55 97 0 176-11l18 16q-9 16-43 34-41 22-127 39t-182 17-182.5-17T171 862q-34-15-43-31zm8 575q0 65 73.5 100t182.5 35q111 0 186-35t75-100q0-26-19-46t-45-20q-48 0-63 49-40 25-134 25-82 0-131-25-15-49-63-49-26 0-44 19t-18 47zm14-848q0-8 10-19 25-31 97-60 197 105 540 105 175 0 329-32v6q0 15-19 31-42 37-156 70-124 37-311 37-188 0-312-37-119-33-159-70-19-15-19-31zm89-265q0-18 24-40 46-43 183-83 146-43 351-43 206 0 354 43 138 40 183 83 23 23 23 40t-23 38q-45 43-183 84-148 43-354 43-205 0-351-43-138-40-183-84-24-21-24-38z"/></svg>