<svg xmlns="http://www.w3.org/2000/svg" viewBox="0 0 2295 2210"><path d="M0 1058v-34q0-16 11-26.5T38 987h809q16 0 27 10.5t11 26.5v34q0 16-11 26.5t-27 10.5h-47v176h226q4-45 37.5-76t79.5-31 79 31 37 76h141V909q-22-1-37.5-17.5T1347 852v-33q0-23 17.5-40t41.5-17h212q24 0 40.5 17t16.5 40v33q0 23-14.5 39.5T1624 909v362h166q44 0 75.5 32t31.5 76v312l398 519h-506v-324h-76q17 42 17 89 0 97-68.5 166t-165.5 69-166-69-69-166q0-47 17-89h-107q18 44 18 89 0 97-69.5 166T953 2210t-165.5-69-68.5-166q0-47 17-89H610q19 47 19 89 0 97-69.5 166T393 2210t-166-69-69-166q0-46 18-90-39-6-65-36t-26-70v-92h-2v-592H38q-16 0-27-10.5T0 1058zm219 421q0 34 24 57.5t58 23.5h154q34 0 57-23.5t23-57.5v-245q0-33-23.5-56.5T455 1154H301q-34 0-58 24t-24 56v245zM1230 285q0 66 50 111 0 32 28 72.5t60 46.5q7 36 33 60.5t63 32.5q-17 17-17 42 0 29 19.5 48.5T1515 718t49-20 20-48q0-3-1.5-10t-1.5-11h3q34 0 58-24.5t24-58.5q0-16-13-40 28-15 44-50h48q63-5 107.5-49.5T1897 299q0-54-35-96t-89-55q-13-64-66-106T1587 0q-65 0-115 40t-66 104h-12q-66 0-115 41.5t-49 99.5z"/></svg>