<svg xmlns="http://www.w3.org/2000/svg" viewBox="0 0 2136 1429"><path d="M0 538q0 28 18 43 19 18 45 18h1109q28 0 49 20t21 49-21 50-49 21q-29 0-50-22-20-17-43-17-26 0-43.5 17t-17.5 42q0 26 18 44 57 57 136 57t134.5-56 55.5-136q0-79-55.5-135.5T1172 476H63q-26 0-44.5 18.5T0 538zm0-216q0 27 18 42 19 17 45 17h1473q79 0 135-56t56-135-56-134.5T1536 0q-78 0-135 54-17 20-17 45 0 26 17 42.5t43 16.5q24 0 44-17 19-19 48-19 28 0 49 19.5t21 48.5-21 50-49 21H63q-26 0-44.5 18T0 322zm1396 858q0 43 17 84t53 79.5 102.5 62T1724 1429q193 0 281-77t88-208q0-58-32.5-106t-84.5-54v-2q69-12 114.5-62t45.5-120q0-49-18-87t-46.5-62-68.5-39.5-80.5-21.5-85.5-6q-148 0-243 71.5T1477 870h217q7-49 40.5-76.5T1818 766q46 0 72.5 19.5T1917 839q0 75-135 75h-50l-31 149h47q109 0 109 75 0 50-36 77t-88 27q-61 0-89-36-27-34-22-95h-221q-5 30-5 69z"/></svg>