<svg xmlns="http://www.w3.org/2000/svg" viewBox="0 0 2136 1434"><path d="M0 538q0 28 18 43 19 18 45 18h1109q28 0 49 20t21 49-21 50-49 21q-29 0-50-22-20-17-43-17-26 0-43.5 17t-17.5 42q0 26 18 44 57 57 136 57t134.5-56 55.5-136q0-79-55.5-135.5T1172 476H63q-26 0-44.5 18.5T0 538zm0-216q0 27 18 42 19 17 45 17h1473q79 0 135-56t56-135-56-134.5T1536 0q-78 0-135 54-17 20-17 45 0 26 17 42.5t43 16.5q24 0 44-17 19-19 48-19 28 0 49 19.5t21 48.5-21 50-49 21H63q-26 0-44.5 18T0 322zm1414 792q0 83 26 146.5t70 100.5 97 55 112 18q82 0 150-27.5t111.5-74T2056 1231t48.5-115.5 24-110 7.5-91.5q0-155-85.5-240T1824 589q-79 0-152.5 37.5t-131 104-92 166.5-34.5 217zm219 6q0-24 4.5-61.5t17.5-89 32.5-94.5 55-73.5T1822 771t69 28 25 84q0 154-53 261.5T1732 1252q-99 0-99-132z"/></svg>