<svg xmlns="http://www.w3.org/2000/svg" viewBox="0 0 2157 1429"><path d="M0 538q0 28 18 43 19 18 45 18h1109q28 0 49 20t21 49-21 50-49 21q-29 0-50-22-20-17-43-17-26 0-43.5 17t-17.5 42q0 26 18 44 57 57 136 57t134.5-56 55.5-136q0-79-55.5-135.5T1172 476H63q-26 0-44.5 18.5T0 538zm0-216q0 27 18 42 19 17 45 17h1473q79 0 135-56t56-135-56-134.5T1536 0q-78 0-135 54-17 20-17 45 0 26 17 42.5t43 16.5q24 0 44-17 19-19 48-19 28 0 49 19.5t21 48.5-21 50-49 21H63q-26 0-44.5 18T0 322zm1357 1107h706l43-202h-392v-3q32-15 92-39t101.5-41 92.5-47 82-61 53-79.5 22-106.5q0-89-46-149.5t-115-86-155-25.5q-155 0-253.5 83.5T1470 919h223q0-59 34.5-100t97.5-41q48 0 72 25.5t24 57.5q0 19-3.5 34.5t-16.5 30-22.5 23.5-36.5 24-42.5 23-56.5 27q-141 69-175 89-128 77-177 190-25 56-34 127z"/></svg>