<svg xmlns="http://www.w3.org/2000/svg" viewBox="0 0 2554 1434"><path d="M0 538q0 28 18 43 19 18 45 18h1109q28 0 49 20t21 49-21 50-49 21q-29 0-50-22-20-17-43-17-26 0-43.5 17t-17.5 42q0 26 18 44 57 57 136 57t134.5-56 55.5-136q0-79-55.5-135.5T1172 476H63q-26 0-44.5 18.5T0 538zm0-216q0 27 18 42 19 17 45 17h1473q79 0 135-56t56-135-56-134.5T1536 0q-78 0-135 54-17 20-17 45 0 26 17 42.5t43 16.5q24 0 44-17 19-19 48-19 28 0 49 19.5t21 48.5-21 50-49 21H63q-26 0-44.5 18T0 322zm1375 1112h263l176-852h-263zm379 0h706l43-203h-391v-2q32-15 92-39t101-41 92-47 82-61.5 53-80 22-106.5q0-89-46-149t-115-85-155-25q-155 0-253 83.5T1868 925h221q0-60 35-101t99-41q48 0 71.5 25.5T2318 867q0 52-35 81t-133 77q-6 2-9 4-142 68-176 88-127 76-176 186-26 58-35 131z"/></svg>