<svg xmlns="http://www.w3.org/2000/svg" data-tags="remove-circle, cancel, close, remove, delete" data-du="" viewBox="0 0 1200 1200"><path d="M600 0C268.635 0 0 268.635 0 600s268.635 600 600 600 600-268.635 600-600S931.365 0 600 0zM263.687 263.688h672.625V382.75h-73.218v65.5h73.218v119h-73.218v65.5h73.218v119h-73.218v65.5h73.218v119.094H263.688zm299.688 117.468c-53.693 0-97.188 43.558-97.188 97.25 0 38.05 21.842 70.971 53.688 86.938l-124.438 74.5h-1.53v105.094h338.937V639.843h-1.532l-124.437-74.5c31.846-15.967 53.688-48.887 53.688-86.938 0-53.692-43.495-97.25-97.188-97.25z"/></svg>