<svg xmlns="http://www.w3.org/2000/svg" data-tags="remove-circle, cancel, close, remove, delete" data-du="" viewBox="0 0 915.0130004882812 1200"><path d="M463.089 480.001c-135.544-2.098-239.083-111.057-240-240C225.327 105.667 335.124.942 463.088 0c135.661 5.13 239.036 108.97 240 240-2.667 134.44-111.906 239.09-240 240.001zm194.042 49.787c170.593 1.991 257.095 151.63 257.882 301.268V1200H747.778V875.747c-4.072-22.416-19.255-30.018-33.164-27.821-13.022 2.057-24.928 12.702-25.559 27.82V1200h-464.67V875.747c-3.558-21.334-17.129-29.538-30.33-28.71-14.139.888-27.854 12.136-28.393 28.71V1200H.98V831.056C0 671.583 100.882 530.969 260.117 529.788z"/></svg>