<svg xmlns="http://www.w3.org/2000/svg" data-tags="remove-circle, cancel, close, remove, delete" data-du="" viewBox="0 0 1200 1200"><path d="M0 0v97.285h150.591v1005.478H0V1200h654.4c187.637 0 325.366-28.1 413.15-84.363 88.304-56.263 132.449-143.888 132.45-262.841 0-87.876-31.53-158.346-94.607-211.395-63.078-53.049-153.75-85.201-272.02-96.456 97.77-10.716 171.354-36.961 220.766-78.755 49.937-41.794 74.904-98.337 74.906-169.604 0-99.13-36.007-173.314-108.018-222.61C949.01 24.68 841.254 0 697.753 0H0zm454.163 97.285h103.288c93.036 0 160.572 15.787 202.625 47.4 42.574 31.612 63.884 82.244 63.885 151.901 0 69.123-21.818 120.584-65.445 154.34-43.632 33.222-110.653 49.839-201.065 49.838H454.163V97.285zm0 499.935h112.749c99.345 0 173.443 21.163 222.327 63.492 48.883 42.333 73.344 106.352 73.345 192.084 0 85.2-24.206 148.19-72.565 188.914-48.359 40.724-122.708 61.053-223.107 61.053H454.163V597.22z" font-size="40" font-weight="700" letter-spacing="0" word-spacing="0" font-family="Serif"/></svg>