<svg xmlns="http://www.w3.org/2000/svg" data-tags="remove-circle, cancel, close, remove, delete" data-du="" viewBox="0 0 1233.162841796875 1025.3570556640625"><path d="M1030.013 0C874.836 153.668 646.766 247.727 427.042 260.957H100.748C49.358 261.663 2.898 305.352 0 362.978V510.11c.701 51.37 43.068 99.122 100.7 102.022h130.82c-34.962 118.567 2.594 238.596 43.15 356.415 60.167 56.81 197.785 49.742 242.639-24.195-95.524-75.091-142.05-277.145-26.89-326.98 196.286 22.272 390.75 122.01 539.594 255.716 51.17-.701 97.705-42.745 100.7-100.063V531.708c102.45-36.382 81.738-164.258 0-190.28v-240.68c-.683-51.364-43.073-97.799-100.7-100.699zm2.596 130.136v613.453c-143.83-112.075-321.537-187.283-504.868-221.04V351.225c179.894-27.072 355.835-110.078 504.868-221.088z" font-size="1353.902" font-style="italic" letter-spacing="0" word-spacing="0" font-family="Serif"/></svg>