<svg xmlns="http://www.w3.org/2000/svg" data-tags="remove-circle, cancel, close, remove, delete" data-du="" viewBox="0 0 1200 1000.93798828125"><path d="M600 .001L0 117.19v766.56l600 117.188 600-117.188V117.19L600 0zM381.844 266.564c93.039 0 173.443 54.347 211.125 133H479.344c-25.249-24.406-59.61-39.469-97.5-39.469-77.505 0-140.313 62.839-140.313 140.344S304.34 640.75 381.844 640.75c37.866 0 72.225-14.966 97.469-39.343h113.625c-37.694 78.635-118.078 132.937-211.094 132.937-129.175 0-233.875-104.731-233.875-233.906s104.7-233.875 233.875-233.875zm459.094 0c93.038 0 173.411 54.347 211.093 133H938.438c-25.25-24.406-59.61-39.469-97.5-39.469-77.506 0-140.344 62.839-140.344 140.344S763.432 640.75 840.937 640.75c37.866 0 72.163-14.966 97.407-39.343H1052c-37.694 78.635-118.047 132.937-211.063 132.937-129.174 0-233.875-104.731-233.875-233.906s104.7-233.875 233.875-233.875z"/></svg>