<svg xmlns="http://www.w3.org/2000/svg" data-tags="remove-circle, cancel, close, remove, delete" data-du="" viewBox="0 0 1317.1580810546875 1317.1580810546875"><path d="M234.315 1082.843c234.314 234.315 614.214 234.315 848.528 0 234.315-234.314 234.315-614.214 0-848.528C848.529 0 468.629 0 234.315 234.315 0 468.629 0 848.529 234.315 1082.843zm58.574-58.574c-201.966-201.967-201.966-529.413 0-731.38 201.967-201.966 529.413-201.966 731.38 0 201.966 201.967 201.966 529.413 0 731.38-201.967 201.966-529.413 201.966-731.38 0zm58.523-31.282l398.11-243.465 243.465-398.11-27.241-27.241-398.11 243.465-243.465 398.11 27.241 27.241z"/></svg>