<svg xmlns="http://www.w3.org/2000/svg" data-tags="remove-circle, cancel, close, remove, delete" data-du="" viewBox="0 0 1200 1152.83203125"><path d="M0 0v927.1l600 225.732L1200 927.1V0zm287.33 368.042c85.63 1.335 145.204 44.391 145.751 130.078h-92.87c.063-22.87-9.761-44.64-30.323-53.32-23.2-8.298-52.19-4.187-67.09 15.454-15.955 23.85-13.11 50.549-13.11 78.662-.88 37.46 18.295 69.844 56.323 70.093 38.528-1.94 56.835-20.738 57.202-55.445h89.868c-2.157 92.031-64.41 127.729-145.752 128.1-102.733.625-156.27-71.725-157.104-156.884-.605-102.698 72.001-155.902 157.104-156.738zm324.975 0c61.677-.651 132.208 26.193 133.96 93.53v5.127h-91.187v-1.685c-.564-22.112-20.636-30.675-39.111-30.761-13.39.342-39.816 3.222-40.21 19.775 3.371 26.164 68.358 30.933 88.55 35.889 46.903 9.965 88.957 36.56 90.307 85.986-1.52 80.015-66.448 105.504-133.447 105.762-79.6-.57-149.041-19.703-149.634-107.886h91.992c-.858 31.54 23.761 38.174 48.78 38.232 14.99-.002 42.55-.542 42.773-20.214-3.03-24.25-70.219-30.547-89.429-35.45-49.614-12.437-88.86-38.27-89.209-91.333 3.43-77.205 72.728-96.733 135.865-96.972zm318.164 0c66.097.554 133.886 25.561 133.886 98.657h-91.113c.813-23.003-20.373-32.359-39.111-32.446-13.39.342-39.816 3.222-40.21 19.775 2.864 25.832 68.603 30.993 88.55 35.889 32.666 7.886 66.02 21.116 81.885 50.537 5.301 9.601 8.062 21.406 8.35 35.45-1.465 80.035-66.423 105.503-133.448 105.76-79.554-.548-149.03-19.75-149.634-107.885h91.992c-.497 20.145 10.264 33.738 28.638 36.914 16.626 1.562 62.68 7.11 62.988-18.896-3.62-24.639-69.895-30.464-89.428-35.45-49.664-12.445-88.86-38.22-89.21-91.332 3.442-77.258 72.65-96.734 135.865-96.973z"/></svg>