<svg xmlns="http://www.w3.org/2000/svg" viewBox="0 0 1200 1042.2850341796875"><path d="M1123.2 296.228h-75.429v149.485H600.685V296.228h-76.8v229.028h76.8v441.6h223.543V747.428h76.8v219.429h145.371v-441.6h76.801V296.228zM677.486 76.8v293.485h293.485V76.8H677.486zM1200 224.914v377.143h-76.8v440.228H523.886V602.056H300.343v145.371h71.314v75.429h76.8v219.429H75.429V822.856h76.8v144h219.429v-144H152.229v-75.429h71.314V602.056H75.429v-76.8h371.657V224.914h153.6V0h447.086v224.914H1200zm-828.343 0V153.6h75.429v71.314h-75.429zm-296.228 0v300.343H0V224.914h75.429zm76.8 0h-76.8V153.6h76.8v71.314zm219.428-71.315H152.229v-76.8h219.429v76.8z"/></svg>