<svg xmlns="http://www.w3.org/2000/svg" data-tags="remove-circle, cancel, close, remove, delete" data-du="" viewBox="0 0 770.925048828125 1200"><path d="M385.462 0C172.597 0 0 172.598 0 385.462c0 187.75 134.31 344.181 312.055 378.478v124.08H146.74v146.74h165.315V1200h146.74v-165.24H624.11V888.02H458.795V763.94c177.78-34.269 312.13-190.702 312.13-378.478C770.924 172.598 598.326 0 385.462 0zm0 153.278c128.231 0 232.184 103.953 232.184 232.184 0 128.232-103.953 232.184-232.184 232.184S153.278 513.694 153.278 385.462c0-128.231 103.953-232.184 232.184-232.184z"/></svg>