<svg xmlns="http://www.w3.org/2000/svg" viewBox="0 0 1115.5938720703125 1200"><path d="M0 935.926h186.061V763.958c0-54.408 26.559-114.484 77.32-164.729 50.762-50.243 126.065-104.842 249.904-191.528 124.394-87.076 199.566-135.567 233.346-165.807s30.882-25.376 30.882-69.388V0h147.863v172.507c0 66.078-27.619 132.54-80.093 179.515s-125.164 91.312-247.208 176.742c-122.6 85.82-195.159 140.381-230.651 175.511-35.491 35.129-33.5 36.641-33.5 59.685v171.967h194.147L264.073 1200 0 935.926zm587.524 0h189.988V763.958c0-23.043 1.914-24.554-33.577-59.684-23.477-23.237-65.093-56.146-124.76-99.808 7.49-5.281 13.418-9.555 21.333-15.095 43.674-30.571 75.183-51.648 107.816-73.777 41.579 31.394 73.875 58.12 99.653 83.636 50.762 50.243 77.397 110.32 77.397 164.729v171.968h190.22L851.598 1200 587.524 935.926z"/></svg>