<svg xmlns="http://www.w3.org/2000/svg" data-tags="remove-circle, cancel, close, remove, delete" data-du="" viewBox="0 0 1200 1200"><path d="M0 0v1200h1200V0H0zm809.326 164.868c41.483-.073 79.594 7.106 111.695 11.792 70.057 18.582 98.021 47.087 96.972 97.266l2.564 79.98c-11.153 72.763-42.175 75.897-72.217 82.544 11.16 8.574 22.033 3.851 28.418 43.872v97.998c-22.083 52.12-53.59 57.388-85.181 61.963l-38.672-2.637-2.563 327.686c-5.103 60.446-41.613 63.358-74.854 72.217h-147.07c-44.915-.912-68.777-30.692-74.78-85.108-17.083 66.94-49.165 96.337-95.435 90.308l-126.416-2.637c-84.441-9.148-77.553-50.506-82.617-87.67l-2.563-314.796c-35.837-11.885-69.445-29.307-67.09-136.67 2.46-94.796 36.41-104.31 72.29-108.398 9.99-122.621 74.913-208.57 245.068-224.414 75.234-5.577 129.368 9.935 180.615 28.345 45.548-24.276 90.354-31.567 131.836-31.64zm-292.895 76.758c-15.731.176-26.829 2.506-44.092 1.318-140.096 17.56-134.361 130.255-137.549 195.63l1.831 27.393-71.191-3.662 1.83 100.341h65.699l-3.662 397.632h134.985V562.646l175.122-3.662v401.294l134.986 3.662-1.831-404.956h122.24v-89.428H772.56c4.402-60.462-16.62-142.354 74.853-129.492 32.885 4.183 64.257 10.54 87.524 29.15l1.832-100.269c-45.002-19.253-104.423-27.575-169.117-18.97-148.196 19.722-124.164 133.79-128.247 223.243l-169.629-1.831V403.93c4.252-34.992 10.45-68.806 76.612-65.699 21.38-2.895 48.024 9.406 78.442 20.069l-1.831-94.849c-58.458-18.738-86.342-22.052-106.567-21.826z"/></svg>