<svg xmlns="http://www.w3.org/2000/svg" viewBox="0 0 848.010009765625 1200"><path d="M500.067 0c105.192.001 210.384 22.119 315.577 66.352l-75.253 186.11c-84.694-34.524-158.059-51.787-220.095-51.788-42.077.001-74.444 12.139-97.1 36.413-22.657 23.737-33.986 57.991-33.985 102.765v156.17H692.65V673.23H389.21v115.71c0 91.707-40.728 158.598-122.184 200.675H848.01V1200H0V999.326c55.563-23.736 93.594-50.978 114.093-81.727 21.038-30.748 31.557-73.094 31.557-127.04V673.23H1.618V496.023H145.65v-157.79c0-108.428 30.749-191.772 92.246-250.033C299.932 29.4 387.322 0 500.067 0" font-size="1657.181" font-weight="700" letter-spacing="0" word-spacing="0" font-family="Open Sans"/></svg>