<svg xmlns="http://www.w3.org/2000/svg" viewBox="0 0 1082.35302734375 1200"><path d="M691.764 371.765l230.589-145.882L696.47 0 550.588 324.706 465.882 70.588 240 221.176l188.235 150.588H0v301.177h75.294V1200h931.764V672.941h75.295V371.765H691.764zM715.52 98.911l118.195 118.195-241.099 152.89L715.52 98.911zm-279.831 59.675l66.739 200.216L335.58 225.325l100.109-66.739zm30.193 966.12H150.588v-475.35h315.294v475.35zm0-527.059H75.294V447.059h390.588v150.588zm465.882 527.059H616.47v-475.35h315.294v475.35zm75.294-527.059H616.47V447.059h390.588v150.588z"/></svg>