<svg xmlns="http://www.w3.org/2000/svg" viewBox="0 0 1200 1200"><path d="M600 0C268.629 0 0 268.629 0 600s268.629 600 600 600 600-268.629 600-600S931.371 0 600 0zm0 65.332c295.289 0 534.668 239.379 534.668 534.668S895.289 1134.668 600 1134.668 65.332 895.289 65.332 600 304.711 65.332 600 65.332zM334.644 221.924c-15.228 44.26-20.507 92.298-6.885 134.253-16.457 18.263-29.235 39.243-38.379 62.988-24.371 77.026-18.418 175.425 34.937 234.961 18.743 20.548 44.172 37.441 76.172 50.684 31.999 13.241 73.127 21.688 123.413 25.342-33.751 15.771-57.543 25.407-65.845 60.278-37.647 25.156-83.427 19.153-116.602-8.203-26.217-19.143-38.094-53.164-67.163-65.771-1.828-1.826-7.539-3.188-17.139-4.102-9.6-.914-17.146 1.81-22.632 8.203-2.743 2.739-2.541 5.666.659 8.862 22.006 17.897 43.187 36.867 55.591 59.619 11.886 24.657 24.188 42.711 36.987 54.126 35.507 23.993 83.126 36.476 124.805 21.24-4.86 29.329 8.252 75.13-1.392 101.367-3.658 7.306-8.89 13.71-15.747 19.189-6.112 5.962-25.06 13.42-21.24 22.559 1.828 4.109 8.218 6.631 19.189 7.544 24.151-.616 48.193-10.381 62.402-29.443 5.029-6.85 7.544-15.774 7.544-26.733v-112.28c0-12.785 2.717-21.913 8.203-27.393 5.485-5.479 11.471-9.16 17.871-10.986v147.949c0 12.785-1.156 23.753-3.442 32.886s-4.324 15.536-6.152 19.189c-4.197 7.039-12.221 13.535-12.378 21.899 0 2.739 1.635 4.305 4.834 4.761 24.02-1.042 51.889-15.133 61.67-34.937 7.771-16.438 11.646-33.737 11.646-52.002V802.734h30.176v145.239c0 18.265 4.149 35.563 12.378 52.002s21.962 27.001 41.162 31.567c10.057 2.74 16.85 3.826 20.508 3.369 3.657-.457 5.291-2.021 4.834-4.761-2.202-8.298-6.791-15.397-11.646-21.899-6.4-8.219-9.595-25.591-9.595-52.075V808.228c6.4 1.826 12.588 5.507 18.53 10.986s8.862 14.607 8.862 27.393v112.28c0 10.959 2.515 19.884 7.544 26.733 15.283 19.437 38.315 29.297 62.402 29.443 10.972-.913 17.361-3.435 19.189-7.544s.47-7.515-4.102-10.254c-4.571-2.74-10.281-6.825-17.139-12.305s-12.09-11.884-15.747-19.189c-4.104-47.109-.104-97.608-3.442-145.239-6.589-51.979-26.596-69.079-66.504-88.989 47.543-3.653 86.633-12.376 117.261-26.074 91.558-44.485 116.875-113.258 117.261-205.444-1.444-59.33-18.57-111.086-57.642-150.732 5.485-21.004 7.12-42.867 4.834-65.698s-7.115-43.405-14.429-61.67c-33.825 1.826-62.174 8.635-85.034 20.508-22.857 11.873-39.309 21.957-49.365 30.176-81.016-18.393-167.743-18.503-245.435 2.71-39.752-32.516-89.022-50.631-135.788-53.395z"/></svg>