<svg xmlns="http://www.w3.org/2000/svg" viewBox="0 0 1202.52294921875 605.6090087890625"><path d="M1120.189 298.474H733.712l49.909 227.792h312.254l24.314-227.792zm-652.661 0H81.05l24.315 227.792h312.253l49.91-227.792zm723.047-66.546c8.535 9.384 11.948 19.622 10.237 30.714l-33.272 307.135c-4.564 20.081-18.878 35.561-38.393 35.832h-376.24c-20.232-1.345-33.639-14.035-37.111-31.993l-60.147-267.463c-32.547-20.271-75.345-17.317-110.057-2.56l-60.147 270.022c-4.772 19.452-18.653 31.768-37.112 31.993H72.092c-21.166-1.672-35.301-16.94-37.112-35.832L1.706 262.642C0 250.698 2.986 240.46 10.664 231.928L443.212 9.255C463.96 0 484.509 8.889 493.121 27.171c7.223 20.882 2.533 44.668-16.636 53.749L202.624 205.054h792.152L720.914 80.919c-20.315-11.516-25.569-34.709-17.916-53.749C713.86 7.691 735.862 1.225 754.187 9.254l436.388 222.674z"/></svg>