<svg xmlns="http://www.w3.org/2000/svg" data-tags="remove-circle, cancel, close, remove, delete" data-du="" viewBox="0 0 1200 1200"><path d="M600 0C268.63 0 0 268.63 0 600s268.63 600 600 600 600-268.63 600-600S931.37 0 600 0zm-4.834 153.589c33.6 0 65.806 3.38 96.606 10.18 30.801 6.795 60.258 16.637 88.257 29.444-4-.8-9.2-1.99-15.6-3.59-32.06-6.358-61.664-9.153-91.26 10.768-18.21 11.35-38.185 20.09-61.157 19.19-27.2 0-54.578-4.57-82.178-13.77-27.6-9.2-52.228-19.416-73.828-30.616 44-14.4 90.36-21.606 139.16-21.606zm-259.497 91.553c7.625.03 14.9.887 21.9 2.636 11.199 2.8 18.851 8.632 22.85 17.432 5.601 11.2 13.365 21.601 23.365 31.201 10 9.6 20.588 17.995 31.787 25.196 6.4 1.6 11.601 3.16 15.6 4.76 11.883 4.181 18.277 15.397 31.202 15.6 9.6-3.2 17.251-.749 22.852 7.252 17.675 8.865 33.334 21.168 44.384 38.379-10.837 18.037-23.235 37.779-43.213 47.973.8 0 1.172.26 1.172.66s.445.585 1.246.585c3.203 5.6 1.57 9.984-4.835 13.184-4 1.6-7.752 2.789-11.352 3.589-3.6.8-7.426 1.616-11.426 2.417-10.4 1.6-17.234 3.606-20.434 6.006 0 1.6-1.19 2.417-3.59 2.417 0 .8-2.563 3.363-7.763 7.763-5.2 4.4-9.397 13.427-12.598 27.027-.8 3.2-2.434 6.394-4.834 9.595 2.4 22.4 3.032 39.822 1.832 52.221-1.2 12.4-6.216 19.792-15.015 22.193-3.997.8-9.198-.017-15.6-2.417-5.601-1.6-12.621-4.609-21.021-9.01-8.4-4.4-18.17-11.42-29.37-21.02 1.639 14.528 5.92 29.486 10.766 44.385 10.291-2.02 28.009-.85 20.435 14.429-5.423 5.492-3.94 9.22 3.589 12.012 3.194.8 6.388 3.622 9.594 8.422 12.416 1.097 25.167 1.381 39.038-1.245 11.6-1.6 23.934-1.972 37.134-1.172s26.238 3.81 39.038 9.01c36.484 15.25 66.09 63.335 106.202 81.005 9.994 6.4 18.205 12.79 24.609 19.19 6.4 6.399 9.595 13.605 9.595 21.606-.067 27.75-2.509 55.992-9.595 84.009-2.4 7.2-9.793 17.156-22.192 29.956-12.398 12.8-26.625 24.835-42.628 36.035a83.314 83.314 0 0 0-16.772 16.772c-4 5.6-7.826 12.807-11.426 21.607-3.6 8.8-5.42 19.2-5.42 31.2-6.4 12.001-11.786 23.033-16.186 33.033s-8.152 18.136-11.353 24.536c-3.2 8.8-6.467 16.007-9.668 21.607-31.843-1.852-61.58-13.777-91.186-31.201 3.456-56.88 14.784-113.26 20.434-169.19 1.6-5.6 1.155-10.8-1.245-15.6-25.726-51.13-55.906-76.68-49.145-147.583 1.6-8 2.344-14.018 2.344-18.018-10.578-10.422-25.32-18.521-35.962-31.201-72.703-34.077-148.433-36.684-201.636-112.793 8.8-58.4 28.228-111.967 58.228-160.767s67.407-90.404 112.207-124.804c4.8-.6 9.487-.898 14.062-.88zm548.73 12.89c49.6 41.6 88.827 91.973 117.627 151.172 28.8 59.2 43.14 123.985 43.14 194.385v8.423l-38.379 12.011c-16.24-4.473-33.541 7.29-40.796 22.779l20.435 7.177c3.2 1.6 5.205 3.235 6.006 4.835 4.445 11.387-.252 25.224-3.662 37.207-6.419 8.462-16.952 16.409-25.196 25.195-.8 4-1.172 10.017-1.172 18.017 0 12.8-5.2 28.403-15.6 46.802 1.6 5.6 1.6 10.8 0 15.6a134.024 134.024 0 0 1-10.767 29.957c-5.586 9.6-8.854 18.44-9.668 26.44-3.2 21.6-12.784 41.586-28.784 59.986-21.6 22.4-40.397 32.356-56.397 29.956-7.2-1.6-12.586-6.17-16.186-13.77-11.82-25.037-19.184-51.247-31.787-78.589-8.522-22.712-2.333-48.874-.586-73.242.648-18.066-11.363-34.493-15.015-52.148-.803-6 .758-14.21 4.761-24.61-.788-.8-4.54-2.247-11.352-4.248-36.307-10.173-62.698 9.258-93.604-18.603-12.4-11.2-20.61-27.173-24.61-47.974-4.8-28.8.773-54.803 16.773-78.003.8-2.4 1.245-4.778 1.245-7.178 0-5.6.372-9.611 1.172-12.011 3.98-.8 7.36-2.434 10.18-4.834 2.78-2.4 4.971-4.778 6.593-7.178 2.4-3.197 4.033-6.392 4.834-9.595 85.418-7.79 103.662-23.725 180.029 21.607l34.79-24.024c-8-13.6-15.02-23.556-21.02-29.956-20.257-21.276-45.834-24.94-66.578 0l-84.009-7.25c-10.998 10.788-30.197 11.121-45.63 12.01 0-7.2-2.006-14.405-6.005-21.606-4.8-9.6-7.178-17.177-7.178-22.778 0-5.596 1.189-9.98 3.589-13.183 25.445-33.53 20.412-35.882 30.615-80.42 3.6-10.4 10.175-23.179 19.775-38.38 22.427-31.82 107.814-49.329 152.418-53.979z"/></svg>