<svg xmlns="http://www.w3.org/2000/svg" data-tags="remove-circle, cancel, close, remove, delete" data-du="" viewBox="0 0 1200 1200.0009765625"><path d="M0 0v211.01c74.675-72.258 199.448-106.512 310.84-107.446h369.726L582.13 182.96H475.928c25.667 23.617 49.47 48.991 68.408 80.566 24.49 41.642 37.345 90.585 37.793 142.017-.225 49.503-12.142 104.751-42.92 150.952-25.13 36.948-61.216 68.971-99.17 98.511-24.958 25.068-46.733 45.963-48.56 85.693.298 29.623 19.69 56.336 46.07 75.513 44.153 34.241 81.944 62.856 123.413 98.51 39.778 34.328 76.737 76.82 100.415 128.614 20.23 46.964 20.444 104.048 6.445 156.665H1200V418.286H978.662v223.902h-95.874V418.286H661.377v-92.139h221.411V103.564h95.874v222.583H1200V0H0zm219.14 164.941a163.74 163.74 0 0 0-64.38 14.722c-41.848 20.485-72.58 53.537-83.788 103.71-8.648 51.9-6.732 106.827 6.445 162.452 15.619 63.449 46.705 123.65 102.905 167.652 42.386 29.936 106.587 34.403 160.62 19.775 42.243-12.572 72.503-52.489 88.916-95.947 14.905-47.123 9.75-100.67-3.222-154.76-16.858-69.078-50.391-135.771-109.424-186.183-27.078-21.028-62.067-32.211-98.071-31.42zM0 646.07v304.468c60.193-44.471 143.76-49.895 219.434-52.441 23.454 0 43.659-.392 60.717-1.246-11.94-16.204-23.642-33.285-35.156-51.196-25.905-41.492-19.517-92.12-.66-136.963C155.81 720.046 76.972 703.726 0 646.07zm296.558 299.195c-42.026.153-82.908 7.89-124.512 13.623C107.48 971.407 46.29 997.158 0 1048.975V1200h565.503c1.939-5.89 2.49-12.563 2.49-19.19-.437-43.96-29.634-83.997-65.259-114.477-50.033-42.51-108.02-76.984-163.696-118.36-14.34-1.977-28.472-2.76-42.48-2.71z"/></svg>