<svg xmlns="http://www.w3.org/2000/svg" data-tags="remove-circle, cancel, close, remove, delete" data-du="" viewBox="0 0 1171.7420654296875 1206.2430419921875"><path d="M1145.531 24.328c26.211 30.386 25.35 69.361 0 95.401L981.229 285.357c-30.122 26.331-68.203 25.186-94.076 0-25.703-29.557-25.892-70.498 0-95.402l164.303-165.627c28.654-24.328 69.464-23.898 94.076 0zm-820.185 731.41c28.655-24.327 69.465-23.9 94.076 0 25.218 28.722 26.39 71.742 0 95.4l-299.453 302.105c-30.123 26.332-68.204 25.187-94.077 0-25.703-29.557-25.892-70.496 0-95.4zM614.2 535.785c-2.398-48.684-41.57-84.217-84.801-84.801-48.012 2.65-84.197 41.672-84.801 84.8-2.052 30.883-22.076 51.303-50.351 51.676-31.261-2.295-50.004-23.78-50.35-51.675 1.745-51.924 20.345-98.005 54.325-132.502 37.863-35.457 83.352-53.979 131.177-54.326 51.85 1.685 96.85 20.496 131.177 54.326 35.504 38.095 53.977 84.437 54.325 132.502-2.051 30.882-22.076 51.302-50.35 51.675-31.262-2.295-50.004-23.78-50.35-51.675zm-84.801-382.93c101.717 2.181 195.904 42.973 262.353 109.314 69.994 74.182 107.973 170.781 108.652 264.34-2.101 85.07-17.162 125.4-56.976 190.803-21.732 51.807-71.85 90.23-98.714 137.14-15.23 48.48-4.017 101.298-5.963 155.026-.726 59.92-24.186 126.913-65.588 159.665-46.38 27.033-94.792 37.1-137.14 37.1-35.224-2.742-57.584-28.23-59.625-59.626-1.146-16.34 5.282-31.612 15.9-42.4 26.689-27.214 52.868-16.911 85.464-25.176 11.77-3.74 28.768-8.2 33.125-20.538 7.502-23.134 7.261-51.45 7.288-70.888 2.199-49.368-7.06-94.803 3.312-141.114 7.11-29.837 18.804-58.065 36.438-80.826 11.916-15.676 25.548-29.46 35.776-43.063 14.716-18.207 26.64-37.904 38.425-56.314 12.715-19.453 22.673-38.744 34.451-57.638 9.455-27.19 13.176-55.696 13.25-82.15-2.398-69.876-27.81-131.798-73.538-178.216-50.965-47.664-112.462-73.064-176.89-73.538-69.801 2.337-130.641 27.96-176.89 73.538-47.712 51.197-73.062 113.549-73.538 178.215-2.56 35.69-26.988 60.506-59.626 60.95-35.86-2.689-60.506-28.344-60.95-60.95 2.316-102.083 42.856-196.705 108.65-264.34 73.011-70.833 169.267-108.64 262.354-109.315z"/></svg>