<svg xmlns="http://www.w3.org/2000/svg" data-tags="remove-circle, cancel, close, remove, delete" data-du="" viewBox="0 0 1073.2679443359375 1200"><path d="M504.298 0v190.423h64.679V0h-64.685zm-264.11 57.225l-52.992 37.103 109.202 155.946 52.964-37.103L240.188 57.225zm592.887 0L723.902 213.171l52.971 37.103L886.076 94.328l-52.993-37.103zm-296.45 185.3c-158.227 0-286.494 96.083-286.494 214.624l162.772 492.949h247.47l162.759-492.949c0-118.54-128.258-214.624-286.493-214.624zM22.099 299.673L0 360.487l178.85 65.115 22.18-60.785-178.935-65.144zm1029.063 0l-178.936 65.148 22.106 60.792 178.936-65.124-22.106-60.816zM192.391 577.68l-183.9 49.327 16.686 62.43 183.9-49.254-16.683-62.503zm688.48 0l-16.673 62.501 183.9 49.248 16.673-62.432-183.9-49.318zM409.297 986.032v85.685h254.686v-85.672H409.295zm0 128.283V1200h254.686v-85.672H409.295z"/></svg>