<svg xmlns="http://www.w3.org/2000/svg" viewBox="0 0 1165.682861328125 1209.1409912109375"><path d="M286.717 1192.141C182.28 1165.246 105.68 1069.835 93.49 964.007c-23.08-160.204 44.718-317.02 135.177-445.663-16.909-37.531-40.052-57.891-73.673-7.597C93.784 595.338 49.119 691.232 19.07 790.864 0 661.975 93.501 538.471 152.951 447.51c-11.486-52.463-75.317-122.89-72.83-121.87-33.757-41.903-70.968-126.808-35.385-176.344C93.092 67.729 183.004 0 280.955 2.677c61.017 14.684 90.492 77.374 127.756 122.418l40.318 54.205c135.72-72.425 288.857-135.355 445.388-106.573 115.711 17.944 211.82 113.125 231.811 228.35 39.455 194.442-45.17 390.009-158.971 543.92-118.005 155.853-276.178 293.804-468.855 344.16-68.984 14.278-142.735 19.984-211.685 2.984zm271.143-77.139c147.709-48.02 259.345-164.772 358.199-279.331 108.022-137.278 180.814-318.714 145.224-494.763C1035.355 227.9 930.804 140.671 814.76 136.187c-112.862-7.301-225.229 27.746-324.56 79-2.052 16.06 23.763 67.841 48.398 40.632 105.267-54.697 234.001-79.119 348.772-41.607 74.227 27.575 127.934 99.504 130.064 179.14 13.922 168.725-89.033 321.502-208.214 431.129-38.951 45.985-82.9 63.757-145.065 32.699-87.803-40.233-179.218-73.61-264.774-118.166-56.838-53.307-96.694-121.896-144.783-182.937-16.609 20.17-32.907 55.436-47.431 81.532-58.382 115.376-97.943 262.342-26.646 381.363 61.213 106.393 198.182 136.349 311.142 112.639 22.409-4.03 44.53-9.624 66.197-16.609zm158.243-262.918c-18.934-109.047-30.83-219.677-44.642-329.212-49.373-80.107-112.426-154.089-160.988-232.934-51.491-68.835-104.534-144.614-159.538-203.342-28.913-49.583-87.979-78.293-141.994-49.745-72.089 30.272-144.603 88.57-159.963 168.942 17.892 63.098 67.167 114.26 102.268 169.411 88.004 115.901 165.699 238.6 252.708 342.665 104.838 45.795 215.023 91.796 314.688 139.57l-2.539-5.355zm-291.438-174.73c-46.224-22.827-65.73-82.577-100.964-120.671-48.272-67.828-102.071-132.563-142.295-205.558 13.167-48.973 29.363-58.326 57.817-91.87 41.876-29.772 125.264-106.629 178.191-31.077 69.986 88.861 139.687 178.67 198.529 275.384l56.825 234.239-50.031 39.788c-50.415-28.791-198.072-100.235-198.072-100.235zM376.27 454.272c-40.997-55.332-79.269-113.36-125.588-164.303-59.311 39.491-21.892 91.014 9.993 140.043 52.833 68.707 100.03 142.015 156.712 207.595 79.699-73.095-25.967-149.079-41.117-183.335zm208.954 55.582c-14.482-50.992-57.932-92.274-86.729-137.288-40.301-54.161-79.581-109.114-121.47-162.072-27.248 14.682-57.617 16.023-79.293 38.744 41.114 64.485 87.902 131.433 133.357 193.777 44.234 55.052 100.031 88.492 154.135 66.839zM130.815 301.203c-45.394-54.645 24.622-113.716 63.375-148.183 35.606-29.96 80.917-52.334 126.248-44.948 28.612 4.663 63.739 41.026 39.437 57.033-59.549 39.224-135.272 66.623-175.568 134.59-18.814 35.33-31.462 35.703-53.492 1.508zm49.365-38.301c34.689-54.205 98.191-75.646 149.521-109.022-8.29-60.952-86.97-10.274-115.606 13.074-28.544 27.404-110.808 88.104-55.515 121.188 9.773-5.995 14.986-16.408 21.6-25.24zM82.693 223.54c-11.05-61.002 42.111-113.276 90.051-142.988 27.512-16.751 121.544-49.395 112.197 2.847-72.169 22.986-136.146 72.475-176.011 137.354-6.076 10.58-22.031 21.739-26.237 2.787zM856.28 715.762c70.806-94.021 131.017-217.054 94.355-336.569-35.271-106.211-163.588-141.645-263.702-121.233-40.517 14.208-133.658 15.358-128.746 63.391 42.544 61.404 88.479 120.351 133.085 180.253 15.141 111.158 27.553 224.09 44.977 333.839 45.874-32.594 83.999-76.565 120.031-119.681z"/></svg>