<svg xmlns="http://www.w3.org/2000/svg" viewBox="0 0 1200 1200"><path d="M338.611 0l-59.2 278.697L1.318 344.979l279.788 58.946 66.542 277.08 59.129-278.768 278.142-66.188-279.766-58.969L338.611 0zM1072.8 12.671L854.259 230.348l119.2 118.733 218.518-217.685L1072.8 12.671zM774.776 309.509L0 1081.265 119.19 1200l774.776-771.756-119.2-118.735h.01zm240.236 138.212L983.389 596.62l-148.612 35.462 149.482 31.477 35.529 148.032 31.601-148.899L1200 627.23l-149.482-31.478-35.506-148.031zM771.247 718.285L736.4 882.49l-163.836 38.977 164.8 34.711 39.177 163.244 34.848-164.205 163.835-39.023-164.776-34.734-39.201-163.175z"/></svg>