<svg xmlns="http://www.w3.org/2000/svg" viewBox="0 0 1192.5230712890625 1200"><path d="M723.747 0v167.082h182.347L665.736 405.84c-67.443-43.645-147.834-68.973-234.15-68.973C193.241 336.867.001 530.069.001 768.414 0 1006.76 193.241 1200 431.586 1200c238.345 0 431.548-193.24 431.548-431.586 0-90.596-27.904-174.67-75.601-244.09l236.321-236.321V468.75h167.082c0-146.475 1.587-322.656 1.561-468.75h-468.75zM431.586 510.575c142.412 0 257.839 115.427 257.839 257.839s-115.427 257.878-257.839 257.878-257.878-115.466-257.878-257.878 115.465-257.839 257.878-257.839z"/></svg>