<svg xmlns="http://www.w3.org/2000/svg" viewBox="0 0 800.0990600585938 1200"><path d="M367.676 0c-30.626 2.389-60.652 8.271-89.722 17.065v160.913h-65.918V43.14c-29.282 14.495-57.049 32.007-82.251 52.808-.133.11-.233.256-.366.366v657.275c.133.11.233.256.366.366 76.472 63.345 173.181 97.225 270.264 97.412 99.333-.036 195.305-35.544 270.264-97.412.134-.11.234-.256.366-.366V96.313c-.134-.11-.234-.256-.366-.366-25.032-20.735-52.406-37.949-81.079-52.222v134.253h-65.918V17.505C494.063 8.594 463.989 2.485 433.594 0v177.979h-65.918V0zM0 525.22v336.548c24.117 22.257 50.082 42.47 77.637 60.498 63.482 41.534 135.354 71.234 212.549 85.84v-38.818h219.727v38.818c77.195-14.605 149.066-44.306 212.549-85.84 27.555-18.028 53.52-38.241 77.637-60.498V525.22h-77.637v297.876c-87.98 71.848-200.15 114.99-322.412 114.99s-234.432-43.143-322.412-114.99V525.22H0zm509.912 482.885c-35.589 6.733-72.323 10.254-109.863 10.254s-74.274-3.521-109.863-10.254v109.497H160.181V1200h479.737v-82.397H509.912v-109.498z"/></svg>