<svg xmlns="http://www.w3.org/2000/svg" viewBox="0 0 1211.658935546875 1180.2080078125"><path d="M376.458 63.545l-30.419 790.778c-40.935-21.006-92.292-30.095-146.179-22.449C83.667 848.33 0 935.982 12.989 1027.624c12.992 91.647 117.714 152.584 233.902 136.123 103.119-14.613 180.524-85.303 187.557-165.075l.023.045c.015-.18.026-.452.042-.656.172-2.027.27-4.08.345-6.119 4.327-82.369 30.816-708.027 30.816-708.027l652.415-67.219-29.467 563.48c-41.867-23.304-95.68-33.685-152.264-25.666-116.192 16.473-199.854 104.105-186.863 195.76 12.986 91.637 117.709 152.586 233.901 136.106 105.314-14.906 183.778-88.319 187.895-170.17l.05-.05c2.208-36.783 39.018-886.14 40.318-916.156L376.458 63.545z"/></svg>