<svg xmlns="http://www.w3.org/2000/svg" viewBox="0 0 1200.4000244140625 1290.967041015625"><path d="M1.822 634.634C0 624.647.449 616.166.449 605.776v-2.748c163.322-14.011 341.241-55.151 473.665-149.787 37.996 17.409 75.363 15.034 111.208-2.748 75.103 75.855 148.807 128.574 247.13 159.405 10.067 25.652 26.086 45.349 48.053 59.091-26.543 65.961-63.612 124.135-111.208 174.521-70.346-50.674-163.231-13.979-194.958 59.091-220.011-2.384-441.76-98.642-572.517-267.967zm571.143 354.54c-112.313 58.005-230.856 89.277-351.473 82.451C128.196 993.341 60.967 891.009 26.535 784.42c151.522 130.23 352.912 204.549 546.43 204.754zm248.503-16.49c127.807-26.659 245.244-78.05 340.489-156.657-125.012 325.938-501.479 474.94-810.035 336.676 100.162-14.432 194.251-49.026 274.588-94.818 80.285 46.005 175.831-2.388 194.958-85.201zm236.146-335.302c49.196-3.631 97.167-7.251 142.786-15.116-.089 12.283-1.357 24.374-1.373 35.729-85.771 109.766-214.696 184.761-343.235 219.87 47.965-58.234 83.545-122.923 108.462-188.264 39.174-5.082 71.173-23.077 93.36-52.219zm21.968-87.948c-5.416-40.734-25.791-73.796-57.664-94.819 10.072-93.269 11.733-184.275 4.119-272.089 96.156 99.264 154.383 225.964 170.244 351.792-34.781 7.329-73.682 12.368-116.699 15.116zM410.959 391.402C289.675 467.819 147.663 504.94 7.314 516.454 42.364 297.412 191.56 116.381 391.737 42.359c5.438 71.134 21.91 139.81 48.054 199.257-41.973 42.622-51.941 97.264-28.832 149.786zm236.145-101.69c63.215-78.489 115.77-158.695 145.532-252.851 51.256 17.408 97.479 39.852 138.667 67.336 14.386 113.183 16.386 225.917 5.492 331.18-49.729 8.488-88.824 38.745-105.717 82.451-73.416-26.577-133.514-76.069-186.72-129.174 13.363-34.478 13.868-66.795 2.746-98.942zm-127.683-81.077c-25.544-63.148-42.217-124.34-42.561-191.012C553.459 0 636.156.587 708.887 14.875c-27.786 77.786-71.688 149.88-118.073 208.876-16.322-6.971-56.076-22.499-71.393-15.116z"/></svg>