<svg xmlns="http://www.w3.org/2000/svg" viewBox="0 0 1200 1200"><path d="M600 0C268.629 0 0 268.629 0 600s268.629 600 600 600 600-268.629 600-600S931.371 0 600 0zm143.555 224.194c47.139.435 91.52 21.573 133.228 63.281 46.312 47.408 72.894 107.943 55.591 177.905-9.887 37.073-33.313 74.951-70.386 113.672-112.296 110.136-213.272 212.743-342.335 341.09-24.688 24.254-68.792 53.867-113.672 55.664-37.326-.292-67.417-15.64-95.215-43.286-29.573-29.951-51.442-68.897-48.193-117.407 4.119-34.603 21.024-66.728 50.684-96.387l287.988-287.915c42.561-42.188 102.468-74.845 159.375-26.001 51.455 53.302 18.59 111.002-27.173 158.203L467.725 827.49l-50.684-51.929 264.478-264.478c12.081-12.13 36.761-33.344 27.173-55.591-12.499-11.283-42.437 13.995-55.591 27.173L365.186 770.654c-14.399 14.503-26.921 29.747-29.663 51.855-2.472 18.948 6.155 38.309 25.928 58.081 38.333 35.553 65.014 25.398 106.274-12.305 109.787-109.787 197.893-196.937 310.84-309.595 37.129-37.129 63.963-60.532 83.423-111.841 15.347-57.831-44.042-140.052-111.255-149.487-44.113-4.116-82.581 24.848-114.917 55.591L320.654 668.042l-51.855-50.61 315.088-316.406c49.432-48.607 99.479-74.14 150.146-76.611 3.167-.155 6.379-.249 9.522-.221z"/></svg>