<svg xmlns="http://www.w3.org/2000/svg" viewBox="0 0 1213.328857421875 1212.3179931640625"><path d="M1187.524 1010.16l-169.186 167.83c-24.974 25.612-58.078 34.289-90.317 34.328-142.571-4.271-277.333-74.304-387.981-146.215C358.418 933.973 191.772 770.138 87.182 572.15 47.068 489.127 0 383.196 4.497 290.527c.401-34.86 9.795-69.073 34.346-91.543L208.029 29.883C243.161 0 277.136 10.332 299.618 45.14l136.111 258.102c14.326 30.577 6.109 63.339-15.265 85.187l-62.332 62.3c-3.848 5.272-6.298 11.271-6.36 17.801 23.902 92.522 96.314 177.799 160.281 236.486 63.967 58.688 132.725 138.199 221.977 157.022 11.032 3.077 24.545 4.158 32.438-3.179l72.509-73.743c24.996-18.945 61.086-28.205 87.772-12.714h1.272l245.51 144.943c36.04 22.592 39.798 66.252 13.993 92.815z"/></svg>