<svg xmlns="http://www.w3.org/2000/svg" viewBox="0 0 1200 1191.366943359375"><path d="M910.828 87.898C1088.896 198.957 1198.984 390.991 1200 593.631c0 67.94-11.465 132.908-34.395 194.904H910.828V87.898zm228.026 763.058c-94.882 190.637-281.383 312.875-484.076 333.758-103.906 6.653-216.735-13.006-300.638-49.682V850.956h784.714zM0 593.631C2.652 366.325 132.909 165.697 326.115 66.243L554.14 270.065 21.656 747.771C7.219 695.118 0 643.737 0 593.631zm290.446 507.007C177.14 1029.632 90.612 926.587 43.313 812.739l247.133-222.93v510.829zm556.688-650.956L389.809 38.217C459.643 14.742 531.65.249 600 0c86.624 0 169.002 17.834 247.134 53.503v396.179z"/></svg>