<svg xmlns="http://www.w3.org/2000/svg" viewBox="0 0 1200 1001.5139770507812"><path d="M0 0v1001.514h1200V0H0zm92.065 93.604h1015.869v814.307H92.065V93.604zm209.4 117.553c-28.65 0-52.756 9.762-72.29 29.297s-29.297 43.64-29.297 72.29c0 27.349 9.763 50.778 29.297 70.313s43.64 29.297 72.29 29.297c27.348 0 50.778-9.763 70.313-29.297s29.297-42.964 29.297-70.313c0-28.65-9.763-52.755-29.297-72.29s-42.965-29.297-70.313-29.297zm431.689 49.512L502.661 610.327 380.273 508.74 199.878 743.115v68.408h800.244V536.719l-266.968-276.05z"/></svg>