<svg xmlns="http://www.w3.org/2000/svg" viewBox="0 0 594.8059692382812 1200.2340087890625"><path d="M285.206.234C188.053 0 11.212 93.504 5.606 176.634c-5.606 83.13 11.325 88.253 19.2 92.8h91.2c20.839-47.054 46.22-74.561 112.8-74s139.612 83.846 108.8 157.6c-30.813 73.754-59.285 99.443-97.2 179.2-37.914 79.757-50.579 200.231-.8 300.4l112.4 2c-27.82-142.988 119.44-270.381 178-358.4 58.559-88.019 64.125-121.567 64.8-194.4-.516-69.114-25.544-138.181-80-194.4S382.358.468 285.206.234zm5.599 927.601c-75.174 0-136 60.825-136 135.999 0 75.175 60.826 136.4 136 136.4 75.175 0 136-61.226 136-136.4s-60.825-135.999-136-135.999z"/></svg>