<svg xmlns="http://www.w3.org/2000/svg" viewBox="0 0 1200 1200"><path d="M600 0C308.74 0 66.009 207.555 11.499 482.813h166.553C229.37 297.756 398.603 161.719 600 161.719c121.069 0 230.474 49.195 309.668 128.613l-192.48 192.48H1200V0l-175.781 175.781C915.653 67.181 765.698 0 600 0zM0 717.188V1200l175.781-175.781C284.346 1132.819 434.302 1200 600 1200c291.26 0 533.991-207.555 588.501-482.813h-166.553C970.631 902.243 801.397 1038.281 600 1038.281c-121.069 0-230.474-49.195-309.668-128.613l192.48-192.48H0z"/></svg>