<svg xmlns="http://www.w3.org/2000/svg" viewBox="0 0 1209.7939453125 1158.56201171875"><path d="M1205.322 385.926l-50.323 288.696c-6.206 31.891-31.615 51.283-60.917 51.646H360.424l-14.566 82.106h699.226c36.819 2.798 61.793 28.88 62.242 62.241-2.677 36.743-28.757 61.786-62.242 62.242H271.697c-41.827-3.762-66.768-37.103-62.242-74.16l33.107-180.104-50.323-505.88-143.023-45.024C14.265 113.812 0 82.194 8.163 49.556 21.736 15.541 54.259 0 86.296 8.503l182.752 58.269c24.62 9.229 38.783 29.382 42.377 52.972l10.594 100.646 829.006 92.7c38.09 8.251 58.769 38.422 54.297 72.836zm-744.126 677.619c0 52.476-42.54 95.017-95.017 95.017s-95.017-42.541-95.017-95.017c0-52.477 42.541-95.018 95.017-95.018s95.017 42.542 95.017 95.018zm567.252 0c0 52.476-42.541 95.017-95.018 95.017s-95.017-42.541-95.017-95.017c0-52.477 42.54-95.018 95.017-95.018s95.018 42.542 95.018 95.018z"/></svg>