<svg xmlns="http://www.w3.org/2000/svg" viewBox="0 0 1212.3350830078125 1228.22998046875"><path d="M955.568 777.604c.628-93.532-54.738-155.718-130.31-190.649-37.215-15.906-75.342-28.896-111.693-37.873-49.287-12.466-95.359-20.749-144.431-34.663-39.77-9.401-88.462-39.91-89.869-75.747 9.04-63.575 86.471-77.962 133.519-78.313 70.348-2.685 114.432 32.603 145.073 84.733 22.441 37.604 40.65 59.956 82.166 60.34 45.188-2.544 80.287-38.254 80.881-79.598-6.312-93.112-89.408-146.796-165.614-172.034-98.416-24.873-206.476-25.613-297.85 8.987-86.917 32.104-146.669 104.271-147.641 190.008 4.361 157.553 162.757 202.847 281.159 228.522 36.063 7.187 70.827 14.699 103.991 25.677 44.354 16.105 81.553 40.425 82.165 87.301 0 28.244-14.122 51.78-42.366 70.61-60.433 29.738-135.052 45.752-195.144 14.122-42.898-20.496-63.704-55.097-80.881-93.72-17.959-39.956-40.076-65.019-82.166-65.476-44.125 1.645-82.824 33.313-83.449 74.463 6.991 82.327 64.543 150.175 129.667 184.872 123.328 50.646 259.403 60.462 378.73 11.554 92.749-39.805 153.097-120.722 154.063-213.116zm223.387-23.108c22.253 46.218 33.38 95.003 33.38 146.356-1.959 89.621-37.484 172.712-95.646 231.732-66.881 62.597-147.329 95.036-231.731 95.646-55.731-.939-108.133-14.065-154.061-38.515-107.267 18.633-232.149 3.248-323.526-35.306-138.648-62.618-244.957-173.389-301.059-301.06-43.081-115.007-54.947-223.055-32.737-333.796C0 386.633 21.93 226.075 124.286 122.206 237.689 13.763 401.551 0 530.619 76.63c183.417-29.618 371.484 35.62 495.561 157.912 106.941 111.563 164.588 257.766 165.614 399.273-.175 41.777-4.675 82.747-12.839 120.681z"/></svg>