<svg xmlns="http://www.w3.org/2000/svg" viewBox="0 0 1194.9140625 1200"><path d="M63.166.001l.001 579.635c-13.786-9.185-38.357-16.869-50.988-7.637C0 586.08 17.312 606.627 24.945 619.757c75.666 76.157 153.204 125.098 244.566 164.97-20.668 64.695-26.747 129.517-20.365 193.617 13.583 112.039 90.133 220.854 210.182 221.656 57.417-1.311 119.215-42.689 119.757-101.899V845.858c14.569 4.165 28.825 10.305 43.313 12.767v235.638c0 16.985 4.015 31.645 12.082 43.959 24.9 35.984 65.21 57.688 107.637 57.979 125.635-5.016 196.026-108.185 210.22-221.657 6.149-67.075-2.776-134.995-20.402-193.655 83.3-42.063 235.092-103.806 261.778-200.607 1.201-12.01-10.105-16.479-19.415-16.565-15.069.618-27.271 6.225-38.526 14.628L1135.774 0 63.166.001zm62.387 63.715h946.504v552.85c-15.781 10.016-31.056 16.648-47.112 24.201l-838.222 8.929c-21.702-8.279-40.548-21.704-61.17-30.585V63.716zm312.842 293.389c-78.094 0-141.375 63.319-141.375 141.413s63.281 141.376 141.375 141.376 141.414-63.282 141.414-141.376-63.321-141.413-141.414-141.413zm335.144 0c-78.094 0-141.375 63.319-141.375 141.413s63.281 141.376 141.375 141.376 141.413-63.282 141.413-141.375-63.319-141.414-141.413-141.414z"/></svg>