<svg xmlns="http://www.w3.org/2000/svg" viewBox="0 0 1206.761962890625 565.7431640625"><path d="M728.819.536c-27.848.195-55.799 4.82-82.565 14.521-5.576 2.089-14.611 5.147-18.573 14.221l1.219 479.958c2.368 5.221 5.486 8.119 10.693 9.98h426.733c69.749 1.225 124.104-58.435 132.902-131.101 7.534-78.679-40.545-149.14-124.91-161.362-23.963-3.457-53.819-.022-78.101 9.568-.813.364-1.046-.552-1.67-6.304-5.993-52.697-28.083-99.161-63.58-142.807C882.094 33.37 805.812 0 728.819.536zM596.612 35.637c-8.141 0-15.933 115.9-17.223 347.712 19.941 177.772 17.697 182.389 36.527 0-2.673-231.824-11.163-347.715-19.304-347.712zm-51.573 27.598c-8.141.252-15.758 107.207-16.716 320.115 19.94 177.772 17.696 182.389 36.527 0-3.005-213.916-11.671-320.367-19.811-320.115zM395.402 96.31c-.061 0-.126 0-.188.023-7.658 1.158-14.854 96.507-16.791 287.021 19.941 177.771 17.678 182.389 36.509 0-3.669-190.689-11.805-286.7-19.53-287.04v-.004zm50.243 8.968c-7.892-.162-15.532 92.359-17.485 278.072 19.94 177.772 17.696 182.389 36.527 0-3.006-185.064-11.151-277.91-19.042-278.072zm-99.677 3.733c-8.223.087-15.67 91.61-15.965 274.339 19.94 177.772 17.678 182.389 36.508 0-3.337-183.073-12.32-274.425-20.543-274.339zm149.28 5.44a.509.509 0 0 0-.188.023c-8.058 1.247-15.533 92.121-16.491 268.88 19.941 177.771 17.696 182.389 36.527 0-3.312-180.327-11.846-268.746-19.849-268.898v-.005zm-197.945 11.952c-7.084-.068-13.8 84.202-17.054 256.947 19.941 177.772 17.697 182.389 36.527 0-4.7-169.797-12.278-256.88-19.473-256.947zm-47.672 47.764c-6.73-.411-13.522 68.905-18.46 209.183 19.941 177.772 17.697 182.389 36.527 0-4.664-138.633-11.336-208.772-18.067-209.183zm-96.974 69.49c-3.985.808-7.915 44.78-16.678 133.558 18.855 175.808 16.734 180.374 34.539 0-9.576-89.276-13.749-134.392-17.861-133.558zm-48.084 3.64c-3.985.792-7.915 43.898-16.678 130.913 18.855 172.314 16.734 176.79 34.539 0-9.427-86.158-13.621-130.354-17.672-130.913-.065 0-.126-.023-.189 0zm95.474 1.988c-4.215.809-8.367 44.8-17.635 133.577 19.941 175.807 17.697 180.373 36.527 0-9.97-87.903-14.401-133.006-18.686-133.577-.066 0-.139-.023-.206 0zM57.821 270.842c-3.985.666-7.934 36.964-16.697 110.2 18.854 145.034 16.734 148.801 34.539 0-9.427-72.516-13.603-109.729-17.654-110.2h-.188zm-44.182 39.811c-3.258.428-6.474 23.76-13.639 70.877 15.415 93.307 13.679 95.729 28.235 0-7.828-47.382-11.235-71.321-14.596-70.877z"/></svg>