<svg xmlns="http://www.w3.org/2000/svg" viewBox="0 0 1200 1192.623046875"><path d="M0 346.722h282.787L708.197 0v1192.623l-425.41-346.721H0v-499.18zm868.033-56.558c83.606 83.607 126.229 185.246 127.868 304.918 0 114.754-42.623 213.114-127.868 295.082l-86.066-88.524c59.017-59.017 88.525-128.688 88.525-209.017 0-81.967-29.509-153.278-88.525-213.934l86.066-88.525zm147.541-145.082C1138.524 268.033 1200 416.394 1200 590.164c0 173.771-61.476 322.951-184.426 447.541l-90.984-90.983c98.361-96.721 147.541-215.164 147.541-355.327 0-140.164-49.18-259.427-147.541-357.788l90.984-88.525z"/></svg>