<svg xmlns="http://www.w3.org/2000/svg" viewBox="0 0 906.31103515625 1200"><path d="M137.301 943.869v97.896h472.858v-97.896H137.301zm8.004-176.091l-6.773 97.896 471.627 32.017 6.156-97.281-471.01-32.632zM0 727.143V1200h747.46V727.143h-78.193v394.048H78.194V727.143H0zm181.015-167.471l-23.396 94.817 458.697 113.904 23.396-95.433-458.697-113.288zm101.591-237.045l-49.872 84.351 407.594 239.508 49.872-84.967-407.594-238.892zM531.348 97.896l-81.271 54.797L712.98 544.894l81.272-54.182L531.348 97.896zM849.051 0L751.77 11.698l57.261 469.164 97.28-11.698L849.051 0z"/></svg>