<svg xmlns="http://www.w3.org/2000/svg" viewBox="0 0 1200 1146.2239990234375"><path d="M605.847 0l-37.454 107.019-112.955 322.837-342.009-1.483L0 427.839l90.281 68.734 272.087 207.211-107.137 324.737-35.495 107.731 93.249-64.58 281.11-194.747 275.827 202.227 91.468 67.072-32.646-108.622-98.412-327.586 277.607-199.792 92.061-66.3-113.37-2.493-341.949-7.716-104.23-325.687L605.847 0zm-3.205 239.145l77.935 243.538 8.25 25.819 27.066.594 255.646 5.698-207.509 149.4-22.021 15.788 7.835 25.938 73.542 244.903-206.202-151.18-21.844-16.026-22.259 15.433-210.179 145.601 80.13-242.825 8.429-25.701-21.546-16.441-203.354-154.86 255.646 1.128 27.066.119 8.962-25.583 84.407-241.343z"/></svg>