<svg xmlns="http://www.w3.org/2000/svg" viewBox="0 0 1235.98388671875 1200"><path d="M1075.341 231.76c131.618 176.24 160.643 407.959 79.297 601.287-101.286 224.85-320.8 365.262-553.788 366.953-229.359-2.552-432.951-132.474-535.091-327.039h261.744c113.074-.813 210-70.317 211.458-175.106-.053-57.375-21.431-110.063-67.692-138.412-40.655-23.181-83.378-27.767-126.359-35.408-26.686-5.588-67.144-10.978-67.692-41.201 2.476-48.569 53.951-52.613 87.677-52.79h181.803c26.044.684 51.756 2.17 74.783 11.588 23.791 11.057 35.874 27.712 36.103 51.502v181.545c1.797 60.139 21.35 111.326 63.824 148.713 43.148 34.727 94.059 49.272 145.056 49.57 54.485-1.484 106.175-16.448 145.055-49.57 44.651-41.658 63.449-93.777 63.824-148.713V231.76zM600.85 0c124.423 1.608 241.951 41.194 337.817 104.292v575.536c-3.203 42.194-33.751 71.574-72.205 72.104-42.135-3.179-72.947-33.539-73.495-72.104V507.296c-1.571-76.377-22.485-156.605-96.703-184.764-19.772-7.296-40.833-10.944-63.18-10.944H337.817c-52.301 1.314-100.536 16.079-137.964 47.64-38.972 35.861-57.663 80.438-58.022 128.755.58 33.016 8.106 65.892 25.143 91.417 28.273 38.543 68.882 56.633 110.242 64.378 33.069 7.842 67.005 7.889 97.993 18.025 22.555 8.43 29.497 21.535 29.655 42.489-1.311 24.92-14.557 35.828-35.458 41.846-29.71 6.936-60.42 5.781-88.322 5.794H19.341C7.025 700.704.12 648.59 0 600 6.34 264.631 280.421 2.327 600.85 0z"/></svg>