<svg xmlns="http://www.w3.org/2000/svg" viewBox="0 0 1147.251953125 1209.505126953125"><path d="M0 440.542V92.705C2.657 39.559 45.481.64 92.705 0h347.836c55.938 3.476 122.726 25.407 158.596 65.89l514.859 573.088c32.341 40.943 33.256 97.599 0 131.779l-403 403c-39.513 35.748-98.469 34.226-131.779 0L65.889 599.137C28.468 554.944.516 495.859 0 440.542zm150.933-200.734c2.193 51.71 42.984 89.029 88.875 89.641 51.859-2.316 89.028-43.651 89.641-89.641-2.284-51.883-43.829-88.273-89.641-88.875-51.734 2.161-88.275 43.163-88.875 88.875z"/></svg>