<svg xmlns="http://www.w3.org/2000/svg" viewBox="0 0 1202.553955078125 1079.43212890625"><path d="M717.534.457c42.51-.457 82.731 43.455 110.594 74.778 65.434 80.402 29.326 169.5 14.94 267.032h298.455c40.347.301 61.031 30.64 58.225 71.631l-83.567 517.807c-18.937 66.216-92.545 124.506-170.138 132.786H393.96c-32.659-.426-57.13-23.607-59.691-59.691V401.959c.424-32.656 23.607-57.13 59.691-59.691h137.251L666.999 37.882C674.551 21.454 694.346.828 717.534.457zM217.89 330.331c22.971.293 41.284 16.174 43.21 41.819v665.534c-.333 22.48-18.962 39.99-43.21 41.748H43.286c-22.155-.303-41.2-17.093-43.286-41.748V372.15c.316-23.22 17.976-40.059 43.286-41.819H217.89z"/></svg>