<svg xmlns="http://www.w3.org/2000/svg" viewBox="0 0 1317.1519775390625 1258.576904296875"><path d="M658.576 0C505.03 0 351.455 58.549 234.304 175.704 0 410.013 0 789.959 234.304 1024.267c234.303 234.31 614.241 234.31 848.544 0 234.304-234.309 234.304-614.255 0-848.563C965.697 58.549 812.122 0 658.576 0zm0 156.734c113.438 0 226.909 43.228 313.462 129.782 173.105 173.109 173.105 453.829 0 626.938s-453.818 173.109-626.924 0-173.105-453.829 0-626.938c86.553-86.554 200.025-129.782 313.462-129.782zM597.202 257.44v280.291h-155.34V691.17h308.775V257.44H597.202z"/></svg>