<svg xmlns="http://www.w3.org/2000/svg" viewBox="0 0 1200 1025.2969970703125"><path d="M1200 132.352c-8.026 16.946-22.966 38.351-44.816 64.214s-48.829 48.606-80.937 68.227c.893 7.135 1.562 13.824 2.007 20.067 3.463 96.12-19.56 195.847-51.505 278.93C962.831 718.262 867.954 842.585 732.441 927c-141.314 81.057-305.891 98.297-457.525 83.612C174.25 999.051 75.033 966.179 0 904.258c137.233 16.405 265.305-30.28 366.555-105.686-112.472 2.846-194.191-78.514-232.775-172.575 17.393 4.558 35.588 4.008 52.174 2.676 20.416-1.918 39.796-3.833 58.863-8.026C173.1 597.508 110.348 554.972 77.593 490.88 58.38 450.27 49.705 411.598 49.5 367.803c33.605 17.694 74.028 34.937 111.037 33.445-55.892-47.347-100.7-107.858-109.03-177.258-5.259-57.866 9.221-110.689 30.101-159.866 83.607 91.885 177.415 167.502 285.618 214.047 73.998 30.302 147.786 46.507 224.081 46.823-8.807-68.145-1.959-134.05 30.1-189.967 37.731-60.118 92.779-94.998 154.516-112.375C864.26 0 950.419 31.997 1004.686 93.555c58.521-6.321 114.58-32.283 159.197-58.863-18.958 57.41-55.874 114.492-109.699 141.806 51.248-9.49 100.15-24.661 145.816-44.146z"/></svg>