<svg xmlns="http://www.w3.org/2000/svg" viewBox="0 0 720.1429443359375 1200"><path d="M720.143 786.85c-.001 76.03-27.496 137.238-82.487 183.621-54.991 45.906-109.426 73.401-208.41 82.487V1200h-143.37v-144.172c-116.677-2.39-196.456-22.953-284.441-61.685v-189.36c41.602 20.561 91.572 38.732 149.91 54.512 58.817 15.78 88.625 25.105 134.53 27.974V664.913l-25.504-18.65c-94.68-37.297-161.865-77.704-201.554-121.219C19.606 481.052 0 426.778 0 362.223c0-69.336 27.017-126.24 81.052-170.711 54.513-44.949 107.752-72.205 204.824-81.77V0h143.372v106.874c109.503 4.783 185.934 26.78 274.399 65.99l-67.426 167.84c-74.598-30.604-128.554-49.253-206.975-55.948v211.596c93.245 35.865 136.92 66.946 176.132 93.246 39.688 26.3 68.618 55.23 86.79 86.79 18.648 31.56 27.973 68.38 27.974 110.46m-215.9 10.76c0-20.084-8.13-37.06-24.387-50.927-16.26-13.867-18.094-28.212-50.61-43.037v178.602c65.033-10.998 74.996-39.211 74.997-84.639M215.899 362.223c0 21.04 7.172 38.494 21.518 52.361 14.823 13.39 15.94 27.257 48.458 41.602v-168.56c-61.686 9.087-69.976 33.952-69.976 74.597" font-weight="bold" font-family="Open Sans"/></svg>