<svg xmlns="http://www.w3.org/2000/svg" viewBox="0 0 1038.74609375 1200"><path d="M470.478 0L632.39 346.347C634.691 258.753 561.499 52.008 470.478 0zm506.718 24.356c-2.345.21-4.849 2.874-7.557 8.217-36.746 67.145-100.152 107.015-159.417 123.69-60.256 16.911-122.929 57.26-145.92 103.001-26.861 62.373-15.342 111.878 10.784 168.075 32.949-4.992 65.923-17.72 93.832-31.106 71.591-34.855 133.606-89.475 173.943-153.402 16.222-25.709 19.396-21.096 5.429 7.85-26.3 54.5-112.469 130.87-220.676 195.659-24.117 14.44-24.472 14.938-13.646 24.356 34.63 30.131 72.585 48.367 107.036 51.281 149.417.688 213.554-159.392 217.742-270.637-1.112-72.184-13.321-165.462-57.517-224.711-1.342-1.685-2.626-2.399-4.033-2.273zM432.549 334.902C194.241 334.902.001 529.143.001 767.451 0 1005.76 194.241 1200 432.549 1200c238.309 0 432.476-194.24 432.476-432.549 0-59.577-12.063-116.655-33.967-168.441l-90.75 38.369c16.889 39.929 26.264 83.804 26.264 130.072 0 179.681-140.413 325.315-317.956 333.655C654.079 960.734 747.091 597.2 637.232 366.082c8.727 158.612 1.567 590.192-244.006 733.118-166.393-19.355-294.773-159.99-294.773-331.748 0-185.076 149.02-334.022 334.096-334.022 46.269 0 89.997 9.229 129.926 26.117l38.442-90.603c-51.786-21.905-108.791-34.042-168.368-34.042z"/></svg>