<svg xmlns="http://www.w3.org/2000/svg" viewBox="0 0 1200 1200"><path d="M599.314 1200C264.241 1193.56 2.343 918.889 0 599.314 6.515 264.491 279.729 2.343 599.314 0 934.157 6.694 1197.654 279.298 1200 599.314c-6.619 335.092-280.682 598.34-600.686 600.686zm0-1157.486C288.196 48.64 43.307 302.232 41.143 599.314c6.051 311.366 261.102 556.007 558.171 558.171 311.366-6.052 556.007-261.102 558.172-558.171-5.873-311.347-261.532-554.638-558.172-556.8zm-144 1047.771l153.6-441.6 160.457 432c-108.102 36.189-210.303 38.382-314.057 9.6zM337.371 309.943c-56.23 7.644-110.916 10.37-164.571 8.229C274.677 172.521 437.796 90.579 599.314 89.143c132.11 2.5 255.27 52.438 345.6 134.4-41.893-3.097-66.977 15.276-85.028 46.628-26.235 80.939 29.201 140.852 60.343 201.6 29.444 55.505 27.109 118.619 10.971 172.8l-76.8 261.944-185.142-549.944c19.291-1.795 38.708-2.373 56.229-5.486 20.737-4.617 25.286-23.914 10.971-35.657-4.57-3.657-9.6-5.485-15.086-5.485l-111.085 8.229h-84.343c-23.813 1.406-91.052-21.597-96.687 9.6-2.911 12.017 6.059 21.436 16.457 23.314 18.346 2.377 39.365 5.076 56.229 6.857l80.914 216.686L470.4 906.515 283.886 356.571c19.736-1.714 39.733-2.312 57.6-5.486 14.63-1.833 21.028-9.147 19.2-21.943-2.593-11.377-12.734-19.064-23.315-19.199zm-205.714 85.029l245.486 663.771c-88.577-43.659-158.606-107.864-208.458-184.458C77.49 728.754 67.897 544.121 131.657 394.972zm959.315 340.799c-40.303 131.609-122.617 240.614-236.571 306.515 5.485-14.629 14.171-39.314 26.057-74.058l142.629-414.171c13.714-40.229 23.314-85.029 28.8-134.4 1.852-20.199 1.914-40.564-1.371-58.971 58.438 126.042 75.016 250.891 40.456 375.085z"/></svg>