<svg xmlns="http://www.w3.org/2000/svg" viewBox="0 0 1222.217041015625 1222.2159423828125"><path d="M984.091 41.521C868.695 0 734.617 25.452 642.153 117.916c-92.463 92.463-117.916 226.542-76.395 341.937L0 1025.612l196.604 196.604 565.759-565.76c115.396 41.522 249.474 16.069 341.937-76.395 92.464-92.463 117.917-226.542 76.395-341.937L981.742 437.077l-141.708-54.896-54.896-141.708L984.091 41.521zM236.18 986.036c22.563 22.563 22.563 59.143 0 81.705-22.562 22.563-59.143 22.563-81.705 0-22.563-22.563-22.563-59.143 0-81.705 22.562-22.562 59.143-22.562 81.705 0z"/></svg>