<svg viewBox="0 0 2240 2240" xmlns="http://www.w3.org/2000/svg"><path d="M800 1792q0-53-37.5-90.5T672 1664t-90.5 37.5T544 1792t37.5 90.5T672 1920t90.5-37.5T800 1792zm-384-512h384v-256H642q-14 2-22 9l-195 195q-7 12-9 22v30zm1280 512q0-53-37.5-90.5T1568 1664t-90.5 37.5-37.5 90.5 37.5 90.5 90.5 37.5 90.5-37.5 37.5-90.5zm128-672V928q0-14-9-23t-23-9h-224V672q0-14-9-23t-23-9h-192q-14 0-23 9t-9 23v224h-224q-14 0-23 9t-9 23v192q0 14 9 23t23 9h224v224q0 14 9 23t23 9h192q14 0 23-9t9-23v-224h224q14 0 23-9t9-23zm256-544v1152q0 26-19 45t-45 19h-192q0 106-75 181t-181 75-181-75-75-181H928q0 106-75 181t-181 75-181-75-75-181H288q-26 0-45-19t-19-45 19-45 45-19v-416q0-26 13-58t32-51l198-198q19-19 51-32t58-13h160V576q0-26 19-45t45-19h1152q26 0 45 19t19 45z"/></svg>