<svg viewBox="0 0 1792 1792" xmlns="http://www.w3.org/2000/svg"><path d="M1007 859q8 63-50.5 101T845 966q-39-17-53.5-58t-.5-82 52-58q36-18 72.5-12t64 35.5T1007 859zm111-21q-14-107-113-164t-197-13q-63 28-100.5 88.5T673 879q4 91 77.5 155t165.5 56q91-8 152-84t50-168zm239-542q-20-27-56-44.5t-58-22-71-12.5q-291-47-566 2-43 7-66 12t-55 22-50 43q30 28 76 45.5t73.5 22T672 375q228 29 448 1 63-8 89.5-12t72.5-21.5 75-46.5zm57 1035q-8 26-15.5 76.5t-14 84-28.5 70-58 56.5q-86 48-189.5 71.5t-202 22T705 1693q-46-8-81.5-18t-76.5-27-73-43.5-52-61.5q-25-96-57-292l6-16 18-9q223 148 506.5 148t507.5-148q21 6 24 23t-5 45-8 37zm181-961q-26 167-111 655-5 30-27 56t-43.5 40-54.5 31q-252 126-610 88-248-27-394-139-15-12-25.5-26.5t-17-35-9-34-6-39.5-5.5-35q-9-50-26.5-150t-28-161.5T214 472t-22-158q3-26 17.5-48.5T241 228t45-30 46-22.5 48-18.5q125-46 313-64 379-37 676 50 155 46 215 122 16 20 16.5 51t-5.5 54z"/></svg>