<svg viewBox="0 0 2688 2688" xmlns="http://www.w3.org/2000/svg"><path d="M1050 2009v-693q-106 41-172 135.5T812 1663t66 211.5 172 134.5zm504-346q0-117-66-211.5T1316 1316v694q106-41 172-135.5t66-211.5zm215 0q0 159-78.5 294T1477 2170.5t-294 78.5q-119 0-227.5-46.5t-187-125-125-187T597 1663q0-159 78.5-294T889 1155.5t294-78.5 294 78.5 213.5 213.5 78.5 294zm383 7q0-139-55.5-261.5T1949 1203t-213.5-131-252.5-48h-301q-176 0-323.5 81t-235 230-87.5 335q0 171 87 317.5T859 2219t323 85h301q129 0 251.5-50.5t214.5-135 147.5-202.5 55.5-246zm344-646v1280q0 52-38 90t-90 38H320q-52 0-90-38t-38-90V1024q0-52 38-90t90-38h2048q52 0 90 38t38 90z"/></svg>