<svg viewBox="0 0 1792 1792" xmlns="http://www.w3.org/2000/svg"><path d="M576 1312v64q0 13-9.5 22.5T544 1408h-64q-13 0-22.5-9.5T448 1376v-64q0-13 9.5-22.5t22.5-9.5h64q13 0 22.5 9.5t9.5 22.5zm0-256v64q0 13-9.5 22.5T544 1152h-64q-13 0-22.5-9.5T448 1120v-64q0-13 9.5-22.5t22.5-9.5h64q13 0 22.5 9.5t9.5 22.5zm256 0v64q0 13-9.5 22.5T800 1152h-64q-13 0-22.5-9.5T704 1120v-64q0-13 9.5-22.5t22.5-9.5h64q13 0 22.5 9.5t9.5 22.5zM576 800v64q0 13-9.5 22.5T544 896h-64q-13 0-22.5-9.5T448 864v-64q0-13 9.5-22.5T480 768h64q13 0 22.5 9.5T576 800zm768 512v64q0 13-9.5 22.5t-22.5 9.5h-64q-13 0-22.5-9.5t-9.5-22.5v-64q0-13 9.5-22.5t22.5-9.5h64q13 0 22.5 9.5t9.5 22.5zm-256-256v64q0 13-9.5 22.5t-22.5 9.5h-64q-13 0-22.5-9.5T960 1120v-64q0-13 9.5-22.5t22.5-9.5h64q13 0 22.5 9.5t9.5 22.5zM832 800v64q0 13-9.5 22.5T800 896h-64q-13 0-22.5-9.5T704 864v-64q0-13 9.5-22.5T736 768h64q13 0 22.5 9.5T832 800zm512 256v64q0 13-9.5 22.5t-22.5 9.5h-64q-13 0-22.5-9.5t-9.5-22.5v-64q0-13 9.5-22.5t22.5-9.5h64q13 0 22.5 9.5t9.5 22.5zm-256-256v64q0 13-9.5 22.5T1056 896h-64q-13 0-22.5-9.5T960 864v-64q0-13 9.5-22.5T992 768h64q13 0 22.5 9.5t9.5 22.5zm256 0v64q0 13-9.5 22.5T1312 896h-64q-13 0-22.5-9.5T1216 864v-64q0-13 9.5-22.5t22.5-9.5h64q13 0 22.5 9.5t9.5 22.5zm-256 864h384V512h-256v32q0 40-28 68t-68 28H672q-40 0-68-28t-28-68v-32H320v1152h384v-224q0-13 9.5-22.5t22.5-9.5h320q13 0 22.5 9.5t9.5 22.5v224zm0-1184V160q0-13-9.5-22.5T1056 128h-64q-13 0-22.5 9.5T960 160v96H832v-96q0-13-9.5-22.5T800 128h-64q-13 0-22.5 9.5T704 160v320q0 13 9.5 22.5T736 512h64q13 0 22.5-9.5T832 480v-96h128v96q0 13 9.5 22.5T992 512h64q13 0 22.5-9.5t9.5-22.5zm512-32v1280q0 26-19 45t-45 19H256q-26 0-45-19t-19-45V448q0-26 19-45t45-19h320V96q0-40 28-68t68-28h448q40 0 68 28t28 68v288h320q26 0 45 19t19 45z"/></svg>