<svg viewBox="0 0 2240 2240" xmlns="http://www.w3.org/2000/svg"><path d="M1696 800q0-14 9-23t23-9h288q26 0 45 19t19 45v288q0 14-9 23t-23 9h-64q-14 0-23-9t-9-23V986l-254 255q76 95 107.5 214t9.5 247q-31 182-166 312t-318 156q-210 29-384.5-80T705 1790q-117-6-221-57.5t-177.5-133T193 1407t-32-230q9-135 78-252t182-191.5T669 644q118-14 227.5 19T1095 766l255-254h-134q-14 0-23-9t-9-23v-64q0-14 9-23t23-9h288q26 0 45 19t19 45v288q0 14-9 23t-23 9h-64q-14 0-23-9t-9-23V602l-254 255q59 74 93 169 182 9 328 124l255-254h-134q-14 0-23-9t-9-23v-64zm-512 416q0-20-4-58-162 25-271 150t-109 292q0 20 4 58 162-25 271-150t109-292zm-896 0q0 168 111 294t276 149q-3-29-3-59 0-210 135-369.5t338-196.5q-53-120-163.5-193T736 768q-185 0-316.5 131.5T288 1216zm960 832q185 0 316.5-131.5T1696 1600q0-168-111-294t-276-149q3 29 3 59 0 210-135 369.5T839 1782q53 120 163.5 193t245.5 73z"/></svg>