<svg viewBox="0 0 1792 1792" xmlns="http://www.w3.org/2000/svg"><path d="M463 945l-101 101q-42-103-42-214V704q0-26 19-45t45-19 45 19 19 45v128q0 53 15 113zm1114-602l-361 361v128q0 132-94 226t-226 94q-55 0-109-19l-96 96q97 51 205 51 185 0 316.5-131.5T1344 832V704q0-26 19-45t45-19 45 19 19 45v128q0 221-147.5 384.5T960 1404v132h256q26 0 45 19t19 45-19 45-45 19H576q-26 0-45-19t-19-45 19-45 45-19h256v-132q-125-13-235-81l-254 254q-10 10-23 10t-23-10l-82-82q-10-10-10-23t10-23L1449 215q10-10 23-10t23 10l82 82q10 10 10 23t-10 23zm-380-132L576 832V320q0-132 94-226T896 0q102 0 184.5 59T1197 211z"/></svg>