<svg viewBox="0 0 1792 1792" xmlns="http://www.w3.org/2000/svg"><path d="M1664 896q0 156-61 298t-164 245-245 164-298 61-298-61-245-164-164-245-61-298q0-182 80.5-343T435 283q43-32 95.5-25t83.5 50q32 42 24.5 94.5T589 487q-98 74-151.5 181T384 896q0 104 40.5 198.5T534 1258t163.5 109.5T896 1408t198.5-40.5T1258 1258t109.5-163.5T1408 896q0-121-53.5-228T1203 487q-42-32-49.5-84.5T1178 308q31-43 84-50t95 25q146 109 226.5 270t80.5 343zm-640-768v640q0 52-38 90t-90 38-90-38-38-90V128q0-52 38-90t90-38 90 38 38 90z"/></svg>