<svg viewBox="0 0 1792 1792" xmlns="http://www.w3.org/2000/svg"><path d="M1407 1148q0-22-22-27-67-15-118-59t-80-108q-7-19-7-25 0-15 19.5-26t43-17 43-20.5T1305 829q0-19-18.5-31.5T1248 785q-12 0-32 8t-31 8q-4 0-12-2 5-95 5-114 0-79-17-114-36-78-103-121.5T906 406q-199 0-275 165-17 35-17 114 0 19 5 114-4 2-14 2-12 0-32-7.5t-30-7.5q-21 0-38.5 12T487 830q0 21 19.5 35.5t43 20.5 43 17 19.5 26q0 6-7 25-64 138-198 167-22 5-22 27 0 46 137 68 2 5 6 26t11.5 30.5 23.5 9.5q12 0 37.5-4.5t39.5-4.5q35 0 67 15t54 32.5 57.5 32.5 76.5 15q43 0 79-15t57.5-32.5 53.5-32.5 67-15q14 0 39.5 4t38.5 4q16 0 23-10t11-30 6-25q137-22 137-68zm257-252q0 209-103 385.5T1281.5 1561 896 1664t-385.5-103T231 1281.5 128 896t103-385.5T510.5 231 896 128t385.5 103T1561 510.5 1664 896z"/></svg>