<svg xmlns="http://www.w3.org/2000/svg" viewBox="0 0 66.47355651855469 66.39900207519531"><path d="M64.432 14.717c1.128 0 2.042-.897 2.042-1.996V6.81c0-1.102-.914-2-2.042-2h-4.586V3.207A3.207 3.207 0 0 0 56.64 0H3.207A3.206 3.206 0 0 0 0 3.207v59.986a3.21 3.21 0 0 0 3.206 3.206h53.432a3.21 3.21 0 0 0 3.206-3.206v-1.67h4.586c1.128 0 2.042-.894 2.042-1.996v-5.912c0-1.102-.914-2-2.042-2h-4.586v-5.699h4.586c1.128 0 2.042-.894 2.042-1.991v-5.912c0-1.102-.914-2-2.042-2h-4.586v-5.699h4.586c1.128 0 2.042-.897 2.042-1.996v-5.912c0-1.098-.914-1.996-2.042-1.996h-4.586v-5.695h4.587zM45.628 46.881c0 1.152-.804 2.088-1.795 2.088H15.987c-.992 0-1.795-.935-1.795-2.088v-8.604c0-.856.447-1.625 1.127-1.941l10.9-5.077c-2.583-1.557-4.351-4.689-4.351-8.304 0-5.168 3.599-9.356 8.04-9.356 4.444 0 8.043 4.188 8.043 9.356 0 3.562-1.708 6.655-4.226 8.238l10.789 5.148c.674.325 1.115 1.085 1.115 1.937v8.603z"/></svg>