<svg xmlns="http://www.w3.org/2000/svg" viewBox="0 0 82.9439926147461 72.79499816894531"><path d="M82.642 67.772l.006-.004-.139-.24c-.068-.128-.134-.257-.216-.375L44.603 1.87C43.992.761 42.827 0 41.47 0 40 0 38.739.887 38.185 2.153l-.004-.002L.784 66.927l.036.021A3.553 3.553 0 0 0 0 69.205a3.59 3.59 0 0 0 3.588 3.59h75.767a3.59 3.59 0 0 0 3.589-3.589c0-.511-.11-.994-.302-1.434zm-41.135-1.757c-2.874 0-5.201-2.257-5.201-5.13 0-2.874 2.326-5.2 5.201-5.2 2.803 0 5.13 2.325 5.13 5.2a5.123 5.123 0 0 1-5.13 5.13zm5.13-45.367v28.299h-.002l.002.016c0 1.173-.95 2.094-2.094 2.094l-.014-.001v.001h-6.093c-1.174 0-2.123-.921-2.123-2.094l.002-.016h-.002V20.724c-.001-.026-.008-.051-.008-.077 0-1.117.865-1.996 1.935-2.078v-.016h6.288v.001c1.149.007 2.074.897 2.103 2.039h.005v.055h.001z"/></svg>