<svg xmlns="http://www.w3.org/2000/svg" viewBox="0 0 69.27700805664062 69.22198486328125"><path d="M65.87 0H3.407A3.407 3.407 0 0 0 0 3.407V6.55a3.407 3.407 0 0 0 3.407 3.407H65.87a3.407 3.407 0 0 0 3.407-3.407V3.407A3.407 3.407 0 0 0 65.87 0zm0 19.755H3.407A3.407 3.407 0 0 0 0 23.162v3.143a3.407 3.407 0 0 0 3.407 3.407H65.87a3.407 3.407 0 0 0 3.407-3.407v-3.143a3.408 3.408 0 0 0-3.407-3.407zm0 19.755H3.407A3.407 3.407 0 0 0 0 42.917v3.143a3.407 3.407 0 0 0 3.407 3.407H65.87a3.407 3.407 0 0 0 3.407-3.407v-3.143a3.408 3.408 0 0 0-3.407-3.407zm0 19.755H3.407A3.407 3.407 0 0 0 0 62.672v3.143a3.407 3.407 0 0 0 3.407 3.407H65.87a3.407 3.407 0 0 0 3.407-3.407v-3.143a3.408 3.408 0 0 0-3.407-3.407z"/></svg>