<svg xmlns="http://www.w3.org/2000/svg" viewBox="0 0 69.27755737304688 69.7239990234375"><path d="M65.87 0H3.409A3.407 3.407 0 0 0 0 3.407V6.55a3.407 3.407 0 0 0 3.407 3.407H65.87a3.407 3.407 0 0 0 3.407-3.407V3.407A3.407 3.407 0 0 0 65.87 0zM3.409 29.87h45.634a3.407 3.407 0 0 0 3.407-3.407V23.32a3.407 3.407 0 0 0-3.407-3.407H3.408A3.407 3.407 0 0 0 0 23.32v3.143a3.406 3.406 0 0 0 3.407 3.407zm55.634 29.897H3.408A3.407 3.407 0 0 0 0 63.174v3.143a3.407 3.407 0 0 0 3.407 3.407h55.634a3.407 3.407 0 0 0 3.407-3.407h.015v-3.143h-.015a3.408 3.408 0 0 0-3.407-3.407zM3.408 49.802h38.82a3.407 3.407 0 0 0 3.407-3.407v-3.143a3.407 3.407 0 0 0-3.407-3.407H3.408A3.407 3.407 0 0 0 0 43.252v3.143a3.407 3.407 0 0 0 3.407 3.407z"/></svg>