<svg xmlns="http://www.w3.org/2000/svg" viewBox="0 0 69.27700805664062 69.7239990234375"><path d="M65.87 0H3.407A3.407 3.407 0 0 0 0 3.407V6.55a3.407 3.407 0 0 0 3.407 3.407H65.87a3.407 3.407 0 0 0 3.407-3.407V3.407A3.407 3.407 0 0 0 65.87 0zm0 19.922H20.235a3.407 3.407 0 0 0-3.407 3.407v3.143a3.407 3.407 0 0 0 3.407 3.407h45.634a3.407 3.407 0 0 0 3.407-3.407v-3.143a3.407 3.407 0 0 0-3.406-3.407zm-.015 39.845H10.221a3.407 3.407 0 0 0-3.407 3.407v3.143a3.407 3.407 0 0 0 3.407 3.407h55.634a3.407 3.407 0 0 0 3.407-3.407h.015v-3.143h-.015a3.408 3.408 0 0 0-3.407-3.407zm3.422-16.515a3.407 3.407 0 0 0-3.407-3.407H27.05a3.407 3.407 0 0 0-3.407 3.407v3.143a3.407 3.407 0 0 0 3.407 3.407h38.82a3.407 3.407 0 0 0 3.407-3.407v-3.143z"/></svg>