<svg xmlns="http://www.w3.org/2000/svg" viewBox="0 0 75.82516479492188 75.99806213378906"><path d="M70.4 56.44V19.56a10.413 10.413 0 0 0 5.424-9.143C75.824 4.665 71.16.001 65.407.001a10.402 10.402 0 0 0-8.577 4.512H18.995A10.402 10.402 0 0 0 10.418.001C4.665.001.001 4.665.001 10.418c0 3.944 2.192 7.375 5.424 9.143v36.877a10.413 10.413 0 0 0-5.424 9.143c0 5.753 4.664 10.417 10.417 10.417 4.371 0 8.107-2.695 9.653-6.512h35.682c1.546 3.816 5.282 6.512 9.653 6.512 5.753 0 10.417-4.664 10.417-10.417 0-3.943-2.192-7.373-5.423-9.142zm-55-.008V19.568a10.456 10.456 0 0 0 4.61-5.08h35.806a10.46 10.46 0 0 0 4.61 5.08v36.864a10.455 10.455 0 0 0-3.473 3.081h-38.08a10.453 10.453 0 0 0-3.473-3.08z"/></svg>