<svg xmlns="http://www.w3.org/2000/svg" viewBox="0 0 78.32026672363281 70.75749969482422"><path d="M78.31 18.308c0-.037.01-.07.01-.107a3.972 3.972 0 0 0-1.016-2.642l.02-.011-7.87-13.627A2.53 2.53 0 0 0 66.986.007c-.083 0-.16.016-.242.024V.007H11.38V.01c-.013 0-.026-.004-.039-.004a2.42 2.42 0 0 0-2.17 1.315l-.008-.005-8.212 14.23.015.009a4.068 4.068 0 0 0-.963 2.642c0 .047.012.09.014.138v48.21c-.002.049-.014.094-.014.143 0 2.284 1.817 4.069 4.095 4.066.043 0 .083-.011.125-.012h69.87c.043 0 .083.012.126.012 2.283 0 4.1-1.782 4.1-4.062 0-.036-.01-.068-.01-.104V18.308zM52.573 42.873l-12.39 17.43c-.227.318-.59.505-.98.507h-.005c-.386 0-.75-.187-.977-.503l-12.47-17.432a1.201 1.201 0 0 1-.092-1.251c.208-.401.62-.654 1.071-.654h5.833l.001-15.654c0-.667.538-1.205 1.203-1.205h10.79c.664 0 1.203.539 1.203 1.204V40.97h5.83a1.206 1.206 0 0 1 .983 1.903zM7.537 14.113L12.8 4.996h52.67l5.266 9.119H7.537z"/></svg>