<svg xmlns="http://www.w3.org/2000/svg" viewBox="0 0 100.13780975341797 100.1393051147461"><path d="M5.197 67.263L.093 98.031c-.093.558.09 1.125.489 1.524l.002.003c.403.4.972.581 1.531.486L32.8 94.858a1.748 1.748 0 0 0 1.376-1.197 1.746 1.746 0 0 0-.431-1.77l-6-6 16.109-16.108a1.75 1.75 0 0 0 0-2.478L32.753 56.203a1.752 1.752 0 0 0-2.479 0L14.167 72.311 8.165 66.31a1.752 1.752 0 1 0-2.968.954zm89.744-34.388l5.104-30.768a1.748 1.748 0 0 0-.489-1.524L99.554.58a1.762 1.762 0 0 0-1.531-.487L67.338 5.28a1.755 1.755 0 0 0-.946 2.97l6.001 5.997-16.109 16.11a1.753 1.753 0 0 0 0 2.48l11.102 11.1a1.752 1.752 0 0 0 2.479 0l16.107-16.108 6.001 6.001a1.76 1.76 0 0 0 1.775.43 1.757 1.757 0 0 0 1.193-1.384z"/></svg>