<svg xmlns="http://www.w3.org/2000/svg" viewBox="0 0 100.12688446044922 100.1297836303711"><path d="M4.776 69.918L.086 98.19a1.606 1.606 0 0 0 .449 1.4l.002.004c.37.368.893.535 1.406.447l28.197-4.765a1.608 1.608 0 0 0 1.264-1.1 1.605 1.605 0 0 0-.396-1.628l-5.513-5.513 14.802-14.802c.63-.63.63-1.647 0-2.277l-10.2-10.201a1.61 1.61 0 0 0-2.278 0l-14.801 14.8-5.515-5.514a1.61 1.61 0 1 0-2.727.876zM95.352 30.21l4.69-28.273a1.609 1.609 0 0 0-.449-1.4l-.002-.003a1.614 1.614 0 0 0-1.406-.447L69.988 4.852a1.61 1.61 0 0 0-.869 2.728l5.513 5.513-14.802 14.8a1.61 1.61 0 0 0 0 2.279l10.2 10.2a1.61 1.61 0 0 0 2.278 0L87.11 25.572l5.515 5.515a1.613 1.613 0 0 0 2.727-.876zM69.918 95.352l28.271 4.69a1.605 1.605 0 0 0 1.401-.45l.002-.002a1.61 1.61 0 0 0 .448-1.406l-4.765-28.196a1.61 1.61 0 0 0-2.728-.87l-5.513 5.514-14.801-14.803a1.61 1.61 0 0 0-2.277 0L59.755 70.032a1.61 1.61 0 0 0 0 2.277L74.557 87.11l-5.515 5.515a1.612 1.612 0 0 0 .876 2.727zM30.21 4.776L1.938.086A1.605 1.605 0 0 0 .537.535L.534.538C.167.908 0 1.43.087 1.944L4.853 30.14a1.61 1.61 0 0 0 1.099 1.264 1.604 1.604 0 0 0 1.629-.395l5.513-5.513 14.8 14.8c.63.63 1.648.63 2.278.002l10.201-10.201a1.61 1.61 0 0 0 0-2.278L25.571 13.018l5.515-5.515a1.617 1.617 0 0 0 .394-1.63 1.608 1.608 0 0 0-1.27-1.097z"/></svg>