<svg xmlns="http://www.w3.org/2000/svg" viewBox="0 0 99.99959564208984 100.00060272216797"><path d="M39.17 88.427l5.104-30.768a1.746 1.746 0 0 0-.49-1.524l-.001-.003a1.754 1.754 0 0 0-1.531-.486l-30.685 5.186a1.748 1.748 0 0 0-1.375 1.196 1.748 1.748 0 0 0 .43 1.772l6 5.999L.514 85.907a1.752 1.752 0 0 0 0 2.479l11.1 11.1a1.752 1.752 0 0 0 2.479 0L30.2 83.38l6.002 6.002a1.76 1.76 0 0 0 1.774.429 1.75 1.75 0 0 0 1.194-1.383zM60.83 11.573L55.725 42.34a1.75 1.75 0 0 0 .489 1.524l.003.003c.403.4.972.58 1.53.486l30.685-5.187a1.75 1.75 0 0 0 1.376-1.196 1.748 1.748 0 0 0-.431-1.773l-6-6 16.109-16.106a1.752 1.752 0 0 0 0-2.48L88.386.515a1.752 1.752 0 0 0-2.48 0L69.8 16.62l-6.002-6.001a1.753 1.753 0 1 0-2.968.953z"/></svg>