<svg xmlns="http://www.w3.org/2000/svg" viewBox="0 0 100.31697082519531 100.31598663330078"><path d="M36.152 89.523l4.69-28.272a1.609 1.609 0 0 0-.449-1.4l-.002-.003a1.608 1.608 0 0 0-1.406-.447l-28.198 4.764c-.594.1-1.08.525-1.264 1.1a1.607 1.607 0 0 0 .395 1.628l5.513 5.513-14.8 14.802a1.608 1.608 0 0 0 0 2.277l10.2 10.201a1.61 1.61 0 0 0 2.277 0L27.91 84.884l5.515 5.515a1.614 1.614 0 0 0 1.63.394 1.608 1.608 0 0 0 1.097-1.27zm28.011-78.73l-4.69 28.273a1.61 1.61 0 0 0 .45 1.4l.001.003c.37.367.893.534 1.406.447l28.196-4.766a1.61 1.61 0 0 0 .87-2.728l-5.514-5.513 14.802-14.802a1.61 1.61 0 0 0 0-2.278L89.484.63a1.61 1.61 0 0 0-2.278 0l-14.8 14.803-5.516-5.515a1.61 1.61 0 0 0-2.727.876zm25.36 53.371l-28.272-4.69a1.608 1.608 0 0 0-1.4.45l-.004.002a1.606 1.606 0 0 0-.447 1.406l4.765 28.196c.1.594.525 1.082 1.1 1.264a1.607 1.607 0 0 0 1.628-.395l5.513-5.513L87.21 99.687a1.61 1.61 0 0 0 2.277-.002l10.201-10.2a1.61 1.61 0 0 0 0-2.278l-14.803-14.8L90.4 66.89a1.612 1.612 0 0 0-.878-2.727zm-78.73-28.01l28.271 4.69a1.605 1.605 0 0 0 1.401-.45l.002-.003a1.61 1.61 0 0 0 .448-1.406L36.15 10.788a1.61 1.61 0 0 0-1.099-1.264 1.604 1.604 0 0 0-1.629.395l-5.513 5.513-14.8-14.8A1.61 1.61 0 0 0 10.83.63L.63 10.831a1.61 1.61 0 0 0 0 2.278l14.8 14.802-5.515 5.515a1.612 1.612 0 0 0 .877 2.727z"/></svg>