<svg xmlns="http://www.w3.org/2000/svg" viewBox="0 0 86.31999969482422 73.42701721191406"><path d="M18.501 12.749c.347-.208.731-.37 1.031-.632 3.378-2.916 7.1-5.305 11.381-6.591 2.212-.665 4.583-.822 6.897-1.089.424-.047 1.128.387 1.316.779.189.398.079 1.195-.222 1.517-.538.577-1.262 1.097-2.006 1.345-2.846.951-5.75 1.731-8.589 2.701-.673.229-1.164.968-1.761 1.445-1.382 1.101-2.778 2.193-4.166 3.287-.219.174-.425.366-.637.551l.127.23c.71-.299 1.404-.641 2.133-.883 2.274-.773 4.514-1.815 6.856-2.161 2.021-.3 4.167.168 6.248.39.484.055.97.439 1.381.766 1.52 1.196 3.004 2.436 4.511 3.656.518.42.523.824.133 1.371-.926 1.293-2.098 1.699-3.469.9-1.089-.635-2.065-1.469-3.058-2.254-.528-.418-.999-.57-1.722-.454-1.379.216-2.796.175-4.191.308-.513.048-1.091.166-1.499.451a157.742 157.742 0 0 0-5.715 4.25c-.352.273-.506.807-.594 1.381.188-.084.394-.143.561-.256 1.53-1.043 3.307-1.186 5.062-1.407.559-.071 1.13-.071 1.685-.165 2.269-.383 4.003.707 5.675 2.002 1.375 1.064 2.769 2.104 4.134 3.179.803.632 1.214 1.458 1.207 2.514-.013 1.767.097 3.54-.549 5.243-.076.199-.116.576-.008.66 1.075.823.371 1.738.089 2.547-.599 1.737-1.318 3.428-1.995 5.137-.647 1.627-1.637 2.716-3.481 3.239-4.077 1.161-8.08 2.583-12.104 3.925-1.645.551-3.251.766-4.998.344-3.317-.797-6.583-.447-9.708.938-1.453.646-2.867 1.382-4.349 2.103-1.701-2.443-2.704-5.113-3.327-7.945-.735-3.33-.78-6.69-.372-10.061.035-.291.299-.699.558-.803 3.312-1.352 4.841-4.121 5.937-7.281 1.302-3.749 1.923-7.824 4.223-11.121 2.549-3.656 4.515-7.73 7.852-10.85 1.645-1.539 2.97-3.417 4.431-5.148.682-.807.996-.795 1.582.094.668 1.012.507 2.094-.318 3.133-1.992 2.516-3.942 5.062-5.896 7.605-.205.271-.318.61-.474.918.065.062.131.125.198.192zm14.361 28.297c.811 0 1.543.219 1.945-.646.79-1.7 1.992-3.079 3.444-4.241.432-.348.389-.635.144-1.1-.704-1.348-1.305-2.75-1.996-4.104-.194-.374-.504-.747-.858-.975a59.168 59.168 0 0 0-3.762-2.234c-.341-.186-.872-.248-1.231-.125-.973.338-1.89.834-2.848 1.221-.865.35-1.766.602-2.628.953-2.055.836-2.553 2.734-3.158 4.598-.405 1.242-.131 2.152.758 3.075 1.176 1.218 2.26 2.532 3.317 3.858.374.47.714.496 1.203.334 1.887-.625 3.804-.985 5.67-.614zm34.777 19.625c-.655.49-1.343.944-1.957 1.481-3.015 2.646-6.487 4.538-10.255 5.753-2.191.709-4.569.902-6.881 1.139-1.312.136-2.023-1.223-1.2-2.281.511-.652 1.351-1.182 2.15-1.454 2.43-.824 4.931-1.438 7.363-2.261.881-.299 1.69-.891 2.445-1.459 1.571-1.191 3.085-2.458 4.618-3.695.225-.182.435-.381.529-.783-.837.357-1.653.771-2.511 1.064-2.113.729-4.203 1.715-6.382 2.002-2.069.274-4.243-.164-6.362-.385-.479-.049-.947-.461-1.365-.777-1.328-1.01-2.632-2.049-3.939-3.086-1.345-1.068-1.142-2.455.542-2.986.656-.207 1.585-.141 2.18.184 1.187.65 2.215 1.592 3.347 2.354.317.217.769.348 1.151.332 1.466-.06 2.936-.146 4.391-.33.665-.081 1.394-.277 1.933-.654a109.935 109.935 0 0 0 5.375-4.027c.368-.291.531-.842.692-1.375-2.368 1.559-5.022 1.568-7.64 1.78-1.722.138-3.213-.276-4.568-1.384-1.756-1.439-3.613-2.756-5.358-4.207-.414-.345-.79-1.022-.781-1.539.033-1.757.225-3.513.398-5.264.057-.582.367-1.139-.247-1.656-.175-.146-.18-.639-.096-.922.209-.703.522-1.371.778-2.059.491-1.312.975-2.627 1.452-3.949.649-1.801 1.736-2.988 3.709-3.551 4.043-1.165 8.02-2.555 12.019-3.873 1.676-.557 3.299-.788 5.092-.312 3.496.927 6.889.274 10.134-1.2 1.244-.568 2.443-1.232 3.732-1.887 1.471 1.793 2.239 3.92 2.917 6.08 1.224 3.896 1.276 7.885.905 11.908-.082.898-.825 1.02-1.374 1.251-1.989.841-3.227 2.423-4.062 4.261-.906 2-1.605 4.108-2.261 6.207-.919 2.944-1.89 5.848-3.626 8.441-1.318 1.967-2.508 4.027-3.907 5.933-1.142 1.556-2.514 2.942-3.776 4.409-1.347 1.564-2.683 3.138-4.029 4.703-.716.83-1.061.798-1.65-.145-.64-1.025-.456-2.031.413-3.117 1.979-2.482 3.914-4.997 5.849-7.514.2-.259.275-.615.409-.926-.101-.075-.199-.147-.296-.224zM47.914 37.824c.635 1.527 1.283 3.151 1.998 4.74.157.352.513.662.851.877 1.237.773 2.529 1.465 3.75 2.264.445.292.741.361 1.247.142 1.493-.655 3.02-1.235 4.544-1.819 1.476-.56 2.797-1.305 3.38-2.89.299-.813.575-1.642.788-2.479.233-.914.105-1.72-.615-2.483-1.28-1.351-2.428-2.819-3.668-4.209-.159-.182-.572-.297-.799-.225-2.13.676-4.274.991-6.516.646-.408-.066-1.043.256-1.321.604-1.281 1.596-2.47 3.262-3.639 4.832z"/></svg>