<svg xmlns="http://www.w3.org/2000/svg" viewBox="0 0 75 75.005126953125"><path d="M75 37.502C75 16.793 58.212 0 37.5 0S0 16.793 0 37.502C0 58.212 16.788 75 37.5 75a37.27 37.27 0 0 0 18.342-4.809 1.58 1.58 0 0 0 1.049-1.486c0-.622-.361-1.153-.882-1.413l.003-.004-6.529-4.002-.003.004a1.569 1.569 0 0 0-1.005-.369c-.238 0-.461.056-.663.149l-.014-.012A27.372 27.372 0 0 1 37.5 65.061c-15.199 0-27.56-12.362-27.56-27.559C9.94 22.307 22.302 9.94 37.5 9.94c14.322 0 26.121 10.984 27.434 24.967-.006 10.012-4.375 15.593-7.803 15.593-1.847 0-3.254-1.23-3.254-3.957 0-.527.176-1.672.264-2.111l4.163-19.918h-.018c.012-.071.042-.136.042-.21a1.33 1.33 0 0 0-1.33-1.33h-7.23c-.657 0-1.178.485-1.286 1.112l-.025-.001-.737 3.549c-1.847-3.342-5.629-5.893-10.994-5.893-10.202 0-19.877 9.764-19.877 21.549 0 8.531 5.101 14.775 13.632 14.775 4.75 0 9.587-2.727 12.665-7.035l.088.527c.615 3.342 9.843 7.576 15.121 7.576 7.651 0 16.617-5.156 16.617-19.932l-.022-.009c.027-.562.05-1.123.05-1.69zm-30.885 6.842c-1.935 2.727-5.101 5.805-9.763 5.805-4.486 0-7.212-3.166-7.212-7.738 0-6.422 5.013-12.754 12.049-12.754 3.958 0 6.245 2.551 7.124 4.486l-2.198 10.201z"/></svg>