<svg xmlns="http://www.w3.org/2000/svg" viewBox="0 0 47.18700408935547 56.60699462890625"><path d="M36.323 27.413c5.347-1.103 9.76-5.94 9.76-12.985C46.083 6.875 40.566 0 29.788 0H2.604A2.604 2.604 0 0 0 0 2.604v51.399a2.604 2.604 0 0 0 2.604 2.604h28.118c10.863 0 16.464-6.79 16.464-15.361.001-7.043-4.752-12.9-10.863-13.833zM12.051 10.609h15.107c4.074 0 6.62 2.461 6.62 5.94 0 3.649-2.546 5.941-6.62 5.941H12.051V10.609zm15.615 35.39H12.051v-12.9h15.616c4.668 0 7.214 2.886 7.214 6.45 0 4.074-2.716 6.45-7.215 6.45z"/></svg>