<svg xmlns="http://www.w3.org/2000/svg" viewBox="0 0 77.11499786376953 76.5260238647461"><path d="M77.115 38.223c0-.885-.435-1.663-1.097-2.151l.014-.024-9.324-5.383 5.367-9.296-.018-.011a2.666 2.666 0 0 0-.127-2.408 2.667 2.667 0 0 0-2.025-1.314v-.026H59.137V6.873h-.022a2.667 2.667 0 0 0-1.314-2.022 2.662 2.662 0 0 0-2.412-.125l-.013-.023-9.481 5.474-5.25-9.094-.019.011A2.668 2.668 0 0 0 38.477 0c-.885 0-1.664.435-2.151 1.097l-.024-.014-5.337 9.244-9.19-5.306-.011.019a2.666 2.666 0 0 0-2.408.127 2.666 2.666 0 0 0-1.315 2.025h-.027v10.674H7.402v.021a2.667 2.667 0 0 0-2.022 1.314 2.667 2.667 0 0 0-.126 2.41l-.023.014 5.246 9.087-9.394 5.424.011.019A2.668 2.668 0 0 0 0 38.304c0 .885.435 1.664 1.097 2.151l-.014.024 9.324 5.383-5.367 9.296.018.01a2.666 2.666 0 0 0 .127 2.408A2.667 2.667 0 0 0 7.21 58.89v.027h10.767v10.736h.022c.092.816.549 1.58 1.314 2.022a2.665 2.665 0 0 0 2.412.125l.013.023 9.481-5.474 5.25 9.094.019-.011a2.668 2.668 0 0 0 2.149 1.094c.885 0 1.664-.435 2.151-1.096l.023.013 5.337-9.244 9.191 5.306.011-.019a2.666 2.666 0 0 0 2.408-.127 2.666 2.666 0 0 0 1.315-2.025h.027V58.661h10.613v-.021a2.667 2.667 0 0 0 2.022-1.314 2.67 2.67 0 0 0 .126-2.411l.023-.013-5.246-9.087 9.394-5.424-.011-.019a2.666 2.666 0 0 0 1.094-2.149zM32.272 49.618l-9.846-4.35 4.345 7.525-2.456 1.418-6.662-11.537 2.525-1.459 9.53 4.162-4.185-7.248 2.457-1.418 6.66 11.537-2.368 1.37zm4.652-2.686l-6.661-11.538 8.165-4.713 1.248 2.162-5.709 3.295 1.398 2.422 5.587-3.225 1.248 2.16-5.587 3.227 1.518 2.629 5.709-3.295 1.248 2.162-8.164 4.714zM55.83 36.017l-6.598-6.754 2.567 9.08-2.611 1.508-9.965-9.629 2.75-1.588 6.838 7.168-2.617-9.605 1.92-1.108 6.993 7.079-2.79-9.506 2.75-1.588 3.375 13.436-2.612 1.507z"/></svg>