<svg xmlns="http://www.w3.org/2000/svg" viewBox="0 0 77.11499786376953 76.5260238647461"><path d="M77.115 38.223c0-.885-.435-1.663-1.097-2.151l.014-.024-9.324-5.383 5.367-9.296-.018-.011a2.666 2.666 0 0 0-.127-2.408 2.667 2.667 0 0 0-2.025-1.314v-.026H59.137V6.873h-.022a2.667 2.667 0 0 0-1.314-2.022 2.662 2.662 0 0 0-2.412-.125l-.013-.023-9.481 5.474-5.25-9.094-.019.011A2.668 2.668 0 0 0 38.477 0c-.885 0-1.664.435-2.151 1.097l-.024-.014-5.337 9.244-9.19-5.306-.011.019a2.666 2.666 0 0 0-2.408.127 2.666 2.666 0 0 0-1.315 2.025h-.027v10.674H7.402v.021a2.667 2.667 0 0 0-2.022 1.314 2.667 2.667 0 0 0-.126 2.41l-.023.014 5.246 9.087-9.394 5.424.011.019A2.668 2.668 0 0 0 0 38.304c0 .885.435 1.664 1.097 2.151l-.014.024 9.324 5.383-5.367 9.296.019.011a2.666 2.666 0 0 0 .127 2.408 2.667 2.667 0 0 0 2.025 1.314v.027h10.766v10.735h.022c.092.816.549 1.58 1.314 2.022a2.665 2.665 0 0 0 2.412.125l.013.023 9.481-5.474 5.25 9.094.019-.011a2.668 2.668 0 0 0 2.149 1.094c.885 0 1.664-.435 2.151-1.096l.023.013 5.337-9.244 9.191 5.306.011-.019a2.666 2.666 0 0 0 2.408-.127 2.666 2.666 0 0 0 1.315-2.025h.027V58.661h10.613v-.021a2.667 2.667 0 0 0 2.022-1.314 2.67 2.67 0 0 0 .126-2.411l.023-.013-5.246-9.087 9.394-5.424-.011-.019a2.666 2.666 0 0 0 1.094-2.149z"/></svg>