<svg xmlns="http://www.w3.org/2000/svg" viewBox="0 0 81.00110626220703 64.7015609741211"><g transform="translate(-9.499 -17.648)"><circle cx="50.041" cy="53.256" r="9.513"/><path d="M86.778 24.2v-.037H70.111v-2.792a3.722 3.722 0 0 0-3.722-3.722H33.611a3.722 3.722 0 0 0-3.723 3.722v2.792H13.221v.037A3.72 3.72 0 0 0 9.5 27.922v50.669a3.72 3.72 0 0 0 3.721 3.722v.037h73.557v-.037a3.723 3.723 0 0 0 3.722-3.722V27.922a3.722 3.722 0 0 0-3.722-3.722zM50.247 72.542c-10.651 0-19.286-8.634-19.286-19.286 0-10.651 8.635-19.286 19.286-19.286 10.652 0 19.287 8.635 19.287 19.286.001 10.652-8.635 19.286-19.287 19.286zm35.266-33.397h-14.74v-9.957h14.739v9.957z"/></g></svg>