<svg xmlns="http://www.w3.org/2000/svg" viewBox="0 0 61.52400207519531 86.24799346923828"><path d="M61.522 10.385h-.019c.001-.049.015-.095.015-.145a5.245 5.245 0 0 0-5.241-5.245c-.04 0-.076.011-.116.012H41.603V1.603c0-.881-.714-1.593-1.593-1.595V0H21.561v.006c-.015 0-.028-.004-.043-.004-.88 0-1.594.713-1.594 1.594l.003.03v3.38H5.262l-.02-.002A5.248 5.248 0 0 0 0 10.247c0 .047.013.09.014.137H0v70.572h.003L0 80.983a5.24 5.24 0 0 0 5.243 5.238c.078 0 .151-.02.229-.023v.021h50.5c.098.005.191.029.29.029a5.24 5.24 0 0 0 5.239-5.238c0-.019-.005-.036-.005-.055h.028v-70.57zM51.583 76.31H9.939V14.934h4.997v3.069c-.002.033-.01.063-.01.097 0 .998.81 1.814 1.814 1.814l.014-.001v.008h28.027a1.815 1.815 0 0 0 1.813-1.813c0-.015-.004-.029-.004-.044v-3.13h4.992V76.31z"/></svg>