<svg xmlns="http://www.w3.org/2000/svg" viewBox="0 0 75 75"><path d="M37.5 9.94c15.198 0 27.56 12.367 27.56 27.562 0 15.197-12.362 27.559-27.56 27.559-15.199 0-27.561-12.362-27.561-27.559C9.939 22.306 22.301 9.94 37.5 9.94m0-9.94C16.788 0 0 16.792 0 37.502S16.788 75 37.5 75 75 58.212 75 37.502C75 16.792 58.212 0 37.5 0z"/><path d="M56.695 23.568l-3.897-3.902c-.743-.747-2.077-.729-2.791 0L37.522 32.154l-6.863-6.863c-.743-.743-2.046-.743-2.789 0l-3.892 3.893a1.967 1.967 0 0 0-.585 1.402c0 .525.204 1.025.578 1.394l12.133 12.133c.374.374.869.578 1.396.578h.078a1.96 1.96 0 0 0 1.364-.578l17.754-17.754a1.976 1.976 0 0 0-.001-2.791z"/></svg>