<svg xmlns="http://www.w3.org/2000/svg" viewBox="0 0 66.75700378417969 54.868995666503906"><path d="M64.993 6.316L33.815.059a2.185 2.185 0 0 0-.875 0L1.764 6.316A2.188 2.188 0 0 0 0 8.452v37.966c0 1.036.738 1.928 1.764 2.135l31.176 6.254c.289.062.588.062.875 0l31.178-6.254a2.187 2.187 0 0 0 1.764-2.135V8.452a2.19 2.19 0 0 0-1.764-2.136zM29.021 35.547c-2.142 4.72-5.503 7.108-9.991 7.108-7.493 0-12.525-6.117-12.525-15.219 0-9.107 5.033-15.225 12.525-15.225 4.462 0 7.803 2.264 9.936 6.729.191.396.21.854.055 1.265-.151.417-.467.75-.874.929l-3.621 1.616a1.668 1.668 0 0 1-2.191-.821c-.54-1.172-1.552-2.576-3.305-2.576-2.774 0-4.709 3.324-4.709 8.084 0 4.758 1.935 8.08 4.709 8.08 1.986 0 2.942-1.953 3.263-2.792.159-.421.485-.764.904-.934a1.654 1.654 0 0 1 1.309.005l3.663 1.576c.407.172.725.5.885.912a1.62 1.62 0 0 1-.033 1.263zm31.083 0c-2.142 4.72-5.501 7.108-9.991 7.108-7.493 0-12.525-6.117-12.525-15.219 0-9.107 5.033-15.225 12.525-15.225 4.462 0 7.803 2.264 9.936 6.729.191.396.209.854.055 1.265-.151.417-.467.75-.874.929l-3.621 1.616a1.669 1.669 0 0 1-2.191-.821c-.54-1.172-1.552-2.576-3.305-2.576-2.774 0-4.71 3.324-4.71 8.084 0 4.758 1.935 8.08 4.71 8.08 1.986 0 2.942-1.953 3.263-2.792a1.63 1.63 0 0 1 .904-.934 1.654 1.654 0 0 1 1.309.005l3.663 1.576c.407.172.726.5.885.912.162.408.149.861-.033 1.263z"/></svg>