<svg xmlns="http://www.w3.org/2000/svg" viewBox="0 0 91.70600891113281 72.48780059814453"><path d="M59.038 41.17a1.73 1.73 0 0 1-1.73-1.73V22.545c0-.956.774-1.73 1.73-1.73H77V3.036h-.034A3.362 3.362 0 0 0 73.626 0H3.282v.009A3.356 3.356 0 0 0 .035 3.036H0v56.342h.068a3.37 3.37 0 0 0 3.214 2.694v.009h11.564v6.744a3.373 3.373 0 0 0 6.173 1.884l8.628-8.628h43.98a3.373 3.373 0 0 0 3.306-2.703h.068V41.17H59.038z"/><path d="M89.976 25.802h-25.95a1.73 1.73 0 0 0-1.731 1.73v6.92c0 .956.774 1.73 1.731 1.73h25.95a1.73 1.73 0 0 0 1.73-1.73v-6.92a1.73 1.73 0 0 0-1.73-1.73z"/></svg>