<svg xmlns="http://www.w3.org/2000/svg" viewBox="0 0 75 75"><path d="M37.5 0C16.788 0 0 16.793 0 37.502 0 58.212 16.788 75 37.5 75S75 58.212 75 37.502C75 16.793 58.212 0 37.5 0zm0 65.06c-15.199 0-27.56-12.362-27.56-27.558C9.94 22.307 22.301 9.94 37.5 9.94c15.198 0 27.56 12.367 27.56 27.562 0 15.196-12.362 27.558-27.56 27.558z"/><path d="M52.174 20.19L32.629 31.838a1.844 1.844 0 0 0-.646.641L20.19 52.17a1.865 1.865 0 0 0 .291 2.285l.078.078c.359.354.833.539 1.311.539.328 0 .66-.088.956-.268l19.69-11.789c.262-.16.485-.383.641-.645l11.648-19.545c.437-.729.245-1.738-.349-2.345a1.857 1.857 0 0 0-2.282-.29z"/></svg>