<svg xmlns="http://www.w3.org/2000/svg" viewBox="0 0 81.84855651855469 81.56111145019531"><path d="M79.156 61.843h-7.264V14.74h-.051c.003-.07.02-.135.02-.206a4.773 4.773 0 0 0-4.771-4.772H19.915V2.694A2.693 2.693 0 0 0 17.222 0H12.65a2.692 2.692 0 0 0-2.693 2.693v7.068H2.694A2.693 2.693 0 0 0 0 12.455v4.57a2.692 2.692 0 0 0 2.693 2.694h7.264v47.103h.052c-.003.07-.021.135-.021.206A4.773 4.773 0 0 0 14.76 71.8h47.174v7.068a2.693 2.693 0 0 0 2.693 2.693h4.57a2.692 2.692 0 0 0 2.694-2.693V71.8h7.264a2.693 2.693 0 0 0 2.693-2.693v-4.571a2.693 2.693 0 0 0-2.693-2.693zm-59.241 0V19.719h42.02v42.125h-42.02z"/></svg>