<svg xmlns="http://www.w3.org/2000/svg" viewBox="0 0 82.36399841308594 59.64699935913086"><path d="M24.13 4.171h-.011c-.057-2.327-1.971-4.133-4.3-4.165V0H4.129v.011C1.822.068.062 1.863.01 4.172H0v51.2h.008c.043 2.3 1.838 4.089 4.121 4.178v.097h15.69c2.401-.001 4.311-1.875 4.311-4.274V4.171zM12.064 54.659a6.234 6.234 0 1 1 .001-12.467 6.234 6.234 0 0 1-.001 12.467zm7.078-22.41H4.987V4.987h14.155v27.262zM53.247 4.171h-.011c-.057-2.327-1.971-4.133-4.3-4.165V0h-15.69v.011c-2.307.057-4.067 1.852-4.119 4.161h-.01v51.2h.008c.043 2.3 1.838 4.089 4.121 4.178v.097h15.69c2.401-.001 4.311-1.875 4.311-4.274V4.171zM41.181 54.659a6.234 6.234 0 1 1 .001-12.467 6.234 6.234 0 0 1 0 12.467zm7.078-22.41H34.105V4.987H48.26v27.262zM82.364 4.171h-.011c-.057-2.327-1.971-4.133-4.3-4.165V0h-15.69v.011c-2.307.057-4.067 1.852-4.119 4.161h-.01v51.2h.008c.043 2.3 1.838 4.089 4.121 4.178v.097h15.69c2.401-.001 4.311-1.875 4.311-4.274V4.171zM70.299 54.659a6.234 6.234 0 1 1 .001-12.467 6.234 6.234 0 0 1-.001 12.467zm7.078-22.41H63.222V4.987h14.155v27.262z"/></svg>