<svg xmlns="http://www.w3.org/2000/svg" viewBox="0 0 67.96800231933594 67.96600341796875"><path d="M67.905 7.275A7.44 7.44 0 0 0 60.692.011V0H7.276v.008A7.443 7.443 0 0 0 .009 7.275H0v53.416h.009a7.44 7.44 0 0 0 7.267 7.267v.008h53.416v-.009a7.44 7.44 0 0 0 7.267-7.267h.009V7.275h-.063zM16.974 57.659a7.035 7.035 0 1 1 .001-14.069 7.035 7.035 0 0 1-.001 14.069zm0-33.606a7.035 7.035 0 1 1 .001-14.069 7.035 7.035 0 0 1-.001 14.069zm34.019 33.909a7.033 7.033 0 0 1-7.034-7.033 7.034 7.034 0 1 1 14.069 0 7.034 7.034 0 0 1-7.035 7.033zm0-33.909a7.033 7.033 0 0 1-7.034-7.033 7.034 7.034 0 1 1 14.069 0 7.034 7.034 0 0 1-7.035 7.033z"/></svg>