<svg xmlns="http://www.w3.org/2000/svg" viewBox="0 0 87.36199951171875 47.476654052734375"><path d="M87.362 3.866h-.045A3.864 3.864 0 0 0 83.452 0H3.866A3.866 3.866 0 0 0 0 3.866V43.61a3.865 3.865 0 0 0 3.866 3.865h79.586a3.863 3.863 0 0 0 3.865-3.864v-.001h.045V3.866zM72.385 9.212V5.78c0-.438.354-.793.793-.793.031 0 .058.014.088.018v-.018h8.271v.006c.011 0 .02-.006.031-.006.438 0 .793.355.793.793v8.417a.794.794 0 0 1-.793.793c-.011 0-.02-.006-.031-.006v.006h-3.37a.792.792 0 0 1-.793-.793v-4.194h-4.107v-.018c-.03.003-.057.018-.088.018a.791.791 0 0 1-.794-.792zM14.977 38.264v3.43a.792.792 0 0 1-.793.794c-.031 0-.058-.014-.088-.018v.017H5.825v-.006c-.011 0-.02.006-.031.006a.793.793 0 0 1-.793-.793v-8.418c0-.438.356-.793.793-.793.011 0 .02.006.031.006v-.006h3.371c.439 0 .793.355.793.793v4.194h4.107v.018c.03-.003.057-.018.088-.018a.794.794 0 0 1 .793.794zm.014-32.452v3.37a.793.793 0 0 1-.793.794h-4.194v4.107h-.018c.003.03.018.057.018.088a.793.793 0 0 1-.793.793h-3.43a.792.792 0 0 1-.793-.793c0-.031.014-.058.018-.088h-.017V5.812h.006c0-.011-.006-.02-.006-.031 0-.438.355-.793.793-.793H14.2c.438 0 .793.355.793.793 0 .01-.006.02-.006.03h.004zm28.69 36.676c-10.356 0-18.75-8.394-18.75-18.75 0-10.353 8.394-18.75 18.75-18.75s18.75 8.396 18.75 18.75-8.394 18.75-18.75 18.75zm38.693-9.094v8.27h-.006c0 .012.006.02.006.032a.793.793 0 0 1-.793.793h-8.418a.794.794 0 0 1-.793-.793c0-.011.006-.02.006-.031h-.006v-3.371c0-.438.355-.793.793-.793h4.194v-4.107h.018c-.003-.03-.018-.057-.018-.088 0-.438.355-.793.793-.793h3.431c.438 0 .793.354.793.793 0 .03-.014.058-.018.088h.018z"/><path d="M43.681 9.958c-7.599 0-13.78 6.184-13.78 13.78 0 2.91.912 5.608 2.457 7.835v-.096c0-.617.322-1.17.812-1.398l5.64-2.627 2.212-1.03c-.999-.602-1.82-1.537-2.374-2.673a7.513 7.513 0 0 1-.761-3.31c0-.694.116-1.351.284-1.981.729-2.75 2.906-4.76 5.509-4.76 2.653 0 4.863 2.085 5.55 4.915.141.584.242 1.189.242 1.826a7.574 7.574 0 0 1-.679 3.136c-.536 1.182-1.355 2.163-2.364 2.799l2.31 1.102 5.462 2.605c.485.234.802.782.802 1.396v.095a13.697 13.697 0 0 0 2.457-7.834c.001-7.597-6.18-13.78-13.779-13.78z"/></svg>