<svg xmlns="http://www.w3.org/2000/svg" viewBox="0 0 78.86654663085938 75.01055145263672"><path d="M73.948 37.12H56.443a4.914 4.914 0 0 0-4.68 3.406 12.922 12.922 0 0 1-12.328 8.983 12.92 12.92 0 0 1-12.33-8.983 4.916 4.916 0 0 0-4.68-3.406H4.92A4.918 4.918 0 0 0 0 42.039v28.054a4.92 4.92 0 0 0 4.92 4.917h69.028a4.918 4.918 0 0 0 4.919-4.917V42.039c0-2.719-2.2-4.919-4.92-4.919z"/><path d="M38.402 39.742c.247.346.65.553 1.076.553h.003c.428 0 .826-.207 1.076-.558L54.16 20.604a1.33 1.33 0 0 0 .096-1.374 1.319 1.319 0 0 0-1.177-.716h-6.4V1.326C46.68.591 46.089 0 45.359 0H33.512c-.732 0-1.323.591-1.323 1.326v17.188h-6.404a1.323 1.323 0 0 0-1.076 2.09l13.693 19.138z"/></svg>