<svg xmlns="http://www.w3.org/2000/svg" viewBox="0 0 55.32484436035156 55.540000915527344"><path d="M54.614 40.854c-.029-.016-.061-.016-.09-.03l.005-.012-7.807-3.746-.002.016a1.142 1.142 0 0 0-1.464.46c-.026.045-.028.094-.047.141-2.274 4.302-7.07 7.714-12.505 7.714-6.761 0-12.154-3.461-14.891-8.934h19.604c.025.002.047.015.073.015.637 0 1.153-.516 1.153-1.153v-4.062c0-.622-.494-1.12-1.11-1.145v-.014h-21.65c-.081-.725-.081-1.529-.081-2.334 0-.885 0-1.689.161-2.576h21.513c.005 0 .009.003.015.003s.009-.003.015-.003h.029v-.006a1.148 1.148 0 0 0 1.11-1.145v-4.062c0-.637-.516-1.153-1.153-1.153-.015 0-.028.008-.044.009H17.895c2.817-5.312 8.21-8.693 14.81-8.693 5.474 0 10.303 3.461 12.557 7.807l.011-.005c.303.5.923.677 1.448.442l.002.016 7.807-3.746-.005-.012c.029-.014.062-.014.09-.03.523-.302.705-.949.452-1.486l.015-.007-.041-.069c-.002-.004-.002-.009-.005-.013-.003-.005-.008-.007-.01-.012C51.232 6.301 44.403 0 32.705 0 19.585 0 8.961 7.324 5.339 18.836H1.197c-.015 0-.028-.009-.044-.009-.637 0-1.153.516-1.153 1.153v4.062c0 .637.516 1.153 1.153 1.153.005 0 .009-.003.015-.003h2.964c-.081.887-.081 1.691-.081 2.576 0 .805 0 1.609.081 2.334H1.154v.005c-.637 0-1.153.516-1.153 1.153v4.062c0 .637.516 1.153 1.153 1.153.026 0 .047-.013.073-.015h4.032C8.8 48.133 19.505 55.54 32.705 55.54c11.679 0 18.505-6.44 22.303-13.078.008-.012.021-.019.028-.032.006-.011.006-.024.012-.035l.034-.056-.013-.006a1.143 1.143 0 0 0-.455-1.479z"/></svg>