<svg xmlns="http://www.w3.org/2000/svg" viewBox="0 0 80.5421371459961 68.41654968261719"><path d="M80.542 6.5A6.496 6.496 0 0 0 74.284.012V0H7.39v.018C7.274.012 7.159 0 7.042 0a6.5 6.5 0 0 0-4.077 11.559l30.14 30.139-.001 18.599v.154h.015a3.392 3.392 0 0 0 1.713 2.8l-.009.016 7.872 4.545c.066.046.139.079.208.12l.028.016v-.001c.502.29 1.078.469 1.7.469A3.415 3.415 0 0 0 48.047 65c0-.09-.02-.175-.026-.263h.026V41.726L78.464 11.31l-.03-.03a6.472 6.472 0 0 0 2.108-4.78zM22.791 13h.014l.001.015-.015-.015z"/></svg>