<svg xmlns="http://www.w3.org/2000/svg" viewBox="0 0 80.32656860351562 68.072998046875"><path d="M19.528 11.403h6.146v-5.15H54.45v5.258h6.145V2.466h-.002A2.487 2.487 0 0 0 58.116 0H22.002a2.488 2.488 0 0 0-2.487 2.488c0 .045.011.086.013.131v8.784zm-4.593 56.67h50.436V16.874H14.935v51.199zm9.985-29.186a.79.79 0 0 1 .768-.768l10.235.001V27.885c0-.424.344-.768.768-.768h7.17c.424 0 .768.344.768.769V38.12h10.236c.424 0 .768.344.768.768v7.17a.766.766 0 0 1-.768.768H44.629v10.236a.767.767 0 0 1-.768.768h-7.169a.767.767 0 0 1-.768-.768V46.825H25.688a.767.767 0 0 1-.768-.768v-7.17zM3.998 16.875A3.996 3.996 0 0 0 0 20.871c0 .053.013.102.016.154v42.94c-.001.035-.01.067-.01.102a4.001 4.001 0 0 0 3.993 3.998v.008h5.959V16.874l-5.96.001zm76.325 47.167V20.85h-.019a3.999 3.999 0 0 0-3.995-3.977H70.35v51.199h5.943v-.003c.012 0 .023.003.035.003a3.997 3.997 0 0 0 3.998-3.998c0-.01-.003-.021-.003-.032z"/></svg>