<svg xmlns="http://www.w3.org/2000/svg" viewBox="0 0 83 66.68438720703125"><path d="M77.517 7.434H40.814c-1.979-2.37-4.013-4.865-4.541-5.624A3.18 3.18 0 0 0 33.398.002h-14.53c-.964 0-1.875.435-2.479 1.185l-5.021 6.247H5.484A5.492 5.492 0 0 0 0 12.918v48.284a5.49 5.49 0 0 0 5.484 5.482h72.032A5.49 5.49 0 0 0 83 61.202V12.918a5.49 5.49 0 0 0-5.483-5.484zM73.044 46.63a.649.649 0 0 1-.195.465.651.651 0 0 1-.464.194h-8.779v8.78c0 .174-.07.341-.193.466a.666.666 0 0 1-.465.193h-6.15a.66.66 0 0 1-.658-.659v-8.78h-8.78a.656.656 0 0 1-.465-.194.654.654 0 0 1-.193-.465V40.48a.678.678 0 0 1 .658-.659h8.779v-8.78c0-.363.294-.658.659-.658l6.15.001c.364 0 .659.293.659.658v8.778h8.78c.364 0 .659.294.659.66l-.002 6.15z"/></svg>