<svg xmlns="http://www.w3.org/2000/svg" viewBox="0 0 83 66.68351745605469"><path d="M61 35.482a3.338 3.338 0 0 0-3.336 3.332v2.92h6.672v-2.94h-.001l.001-.011A3.339 3.339 0 0 0 61 35.482z"/><path d="M77.517 7.434H40.814c-1.979-2.37-4.013-4.865-4.54-5.624A3.182 3.182 0 0 0 33.4.002H18.868c-.963 0-1.875.435-2.478 1.185l-5.021 6.247H5.484A5.492 5.492 0 0 0 0 12.918v48.284a5.49 5.49 0 0 0 5.484 5.482h72.032A5.49 5.49 0 0 0 83 61.202V12.918a5.49 5.49 0 0 0-5.483-5.484zM73.044 55.83a.896.896 0 0 1-.898.897H50.171a.896.896 0 0 1-.897-.897v-13.2c0-.495.401-.896.897-.896h2.713v-2.921c0-4.473 3.64-8.114 8.115-8.114 4.476 0 8.116 3.64 8.116 8.114l-.001.037v2.884h3.031c.496 0 .898.4.898.897V55.83z"/></svg>