<svg xmlns="http://www.w3.org/2000/svg" viewBox="0 0 69.50802612304688 63.84516525268555"><path d="M63.436 58.03l-2.949-1.574a.44.44 0 0 0-.598.181L58.7 58.852a.452.452 0 0 0-.034.338.464.464 0 0 0 .215.263l2.951 1.571a.442.442 0 0 0 .598-.18l1.189-2.215a.44.44 0 0 0-.183-.599zm.078-52.556l-2.983-1.747a.44.44 0 0 0-.604.155L58.65 6.05a.44.44 0 0 0 .157.605L61.79 8.4a.44.44 0 0 0 .224.06.44.44 0 0 0 .381-.216l1.276-2.166a.436.436 0 0 0-.157-.603zm-5.975 49.41l-3.344-1.809V3.951l1.628.957c.069.04.147.06.223.06.151 0 .296-.08.381-.219l1.276-2.166a.434.434 0 0 0 .049-.335.452.452 0 0 0-.206-.272l-1.216-.712L54.957.32a1.581 1.581 0 0 0-1.819.228L41.076 7.098 28.882.478c-.001-.003-.005 0-.005 0-.029-.017-.055-.037-.087-.052-.136-.062-.288-.059-.434-.089-.136-.027-.261-.08-.401-.08-.141 0-.264.053-.401.081-.143.03-.295.025-.426.088-.026.012-.046.031-.07.042-.007.007-.017.003-.023.01l-12.193 6.62L2.648.478A1.971 1.971 0 0 0 .893.425C.341.688 0 1.183 0 1.72v53.523c0 .504.3.975.797 1.245l13.118 7.126c.003.002.009.002.014.005.03.015.054.03.083.045.254.12.541.181.829.181.287 0 .575-.06.831-.18.023-.012.043-.03.067-.044.008-.005.019-.002.027-.007l12.191-6.625 12.191 6.625c.004.002.011.002.017.005.026.015.05.03.079.045.256.12.544.181.831.181.289 0 .577-.06.831-.18.026-.012.042-.03.068-.044.008-.005.018-.002.028-.007l12.13-6.59.949.403.85.452a.426.426 0 0 0 .208.051.44.44 0 0 0 .391-.23l1.189-2.216a.446.446 0 0 0-.18-.6zm-42.74 5.694L3.448 54.432V4.407l11.351 6.146v50.025zm26.236-.072L27.957 53.42V3.426l13.078 7.12v49.96zm28.031-22.202h-2.521a.442.442 0 0 0-.44.442v5.255c0 .243.198.44.44.44h2.521a.441.441 0 0 0 .442-.44v-5.255a.443.443 0 0 0-.442-.442zm0 21.021h-2.521a.438.438 0 0 0-.225.064l-.37.221a.463.463 0 0 0-.162.17l-1.189 2.217a.447.447 0 0 0 .183.6l1.556.828c.416.223.883.346 1.313.346.898 0 1.855-.538 1.855-2.05v-1.954a.441.441 0 0 0-.44-.442zM68.218 8.23l-1.722-1.01a.442.442 0 0 0-.605.158l-1.276 2.164a.43.43 0 0 0-.047.334.427.427 0 0 0 .204.271l1.333.778v1.541c0 .243.198.441.44.441h2.521a.442.442 0 0 0 .442-.44v-1.878c-.001-1.57-1.235-2.326-1.29-2.359zm.848 9.051h-2.521a.443.443 0 0 0-.44.443v5.256c0 .244.198.442.44.442h2.521a.442.442 0 0 0 .442-.442v-5.256a.444.444 0 0 0-.442-.443zm0 31.537h-2.521a.44.44 0 0 0-.44.44v5.257c0 .244.198.442.44.442h2.521a.442.442 0 0 0 .442-.442v-5.257a.442.442 0 0 0-.442-.44zm0-21.025h-2.521a.442.442 0 0 0-.44.442v5.255c0 .243.198.442.44.442h2.521a.443.443 0 0 0 .442-.442v-5.255a.443.443 0 0 0-.442-.442z"/></svg>