<svg xmlns="http://www.w3.org/2000/svg" viewBox="0 0 83.45899963378906 70.24500274658203"><path d="M37.78 45.285H23.653c-.836 0-1.513.677-1.513 1.513v21.934c0 .836.677 1.513 1.513 1.513H37.78c.836 0 1.512-.677 1.512-1.513V46.797c0-.836-.677-1.512-1.512-1.512zM59.807 0H45.68c-.836 0-1.513.677-1.513 1.513v67.218c0 .836.677 1.513 1.513 1.513h14.127c.836 0 1.513-.677 1.513-1.513V1.513C61.32.677 60.643 0 59.807 0zm22.14 20.421H67.82c-.836 0-1.513.677-1.513 1.513v46.797c0 .836.677 1.513 1.513 1.513h14.126c.836 0 1.513-.677 1.513-1.513V21.934c0-.835-.677-1.513-1.512-1.513zm-66.307 0H1.513c-.836 0-1.513.677-1.513 1.513v46.797c0 .836.677 1.513 1.513 1.513H15.64c.836 0 1.513-.677 1.513-1.513V21.934c0-.835-.677-1.513-1.513-1.513z"/></svg>