<svg xmlns="http://www.w3.org/2000/svg" viewBox="0 0 80.00353240966797 60.54300308227539"><path d="M75.09 60.543c2.715 0 4.912-2.2 4.912-4.917V4.917A4.912 4.912 0 0 0 75.09 0H4.914A4.913 4.913 0 0 0 .002 4.917v50.709a4.912 4.912 0 0 0 4.912 4.917H75.09zm-4.913-9.828H9.827V9.828h60.35v40.887z"/><path d="M31.566 46.169c-.927 0-1.819-.37-2.48-1.029l-4.897-4.897-5.96 4.932a3.507 3.507 0 0 1-4.942-.466 3.511 3.511 0 0 1 .466-4.941l8.424-6.969a3.505 3.505 0 0 1 4.72.223l4.071 4.075 8.98-13.989a3.473 3.473 0 0 1 3.18-1.602c1.272.082 2.4.846 2.945 2.002l5.3 11.206 10.231-17.992a3.518 3.518 0 0 1 4.787-1.318 3.517 3.517 0 0 1 1.315 4.79l-13.57 23.862a3.537 3.537 0 0 1-3.184 1.769 3.498 3.498 0 0 1-3.04-2.008l-5.48-11.591-7.914 12.326a3.512 3.512 0 0 1-2.952 1.617z"/></svg>