<svg xmlns="http://www.w3.org/2000/svg" viewBox="0 0 75.63400268554688 64.41100311279297"><path d="M74.121 23.19H1.513C.677 23.19 0 23.867 0 24.703V39.83c0 .836.677 1.513 1.513 1.513h72.608c.836 0 1.513-.677 1.513-1.513V24.702c0-.835-.677-1.512-1.513-1.512zM44.078.053V0H1.513C.677 0 0 .677 0 1.513V16.64c0 .836.677 1.513 1.513 1.513h42.565V18.1a1.509 1.509 0 0 0 1.135-1.459V1.512c0-.704-.483-1.29-1.135-1.459zM53.7 46.258H1.513c-.836 0-1.513.677-1.513 1.513v15.127c0 .836.677 1.513 1.513 1.513H53.7c.836 0 1.513-.677 1.513-1.513V47.771c0-.836-.677-1.513-1.513-1.513z"/></svg>