<svg xmlns="http://www.w3.org/2000/svg" viewBox="0 0 74.2979965209961 74.25999450683594"><path d="M41.342 0c-.731 0-1.325.594-1.325 1.326 0 .068.029.127.039.193h-.039v31.438c0 .732.594 1.326 1.325 1.326h31.437v-.039c.066.01.125.039.194.039.731 0 1.325-.594 1.325-1.326C74.11 14.837 59.462.189 41.342 0z"/><path d="M66.634 40.59c0-.732-.593-1.326-1.325-1.326H36.41a1.326 1.326 0 0 1-1.325-1.326V9.145h-.039c.01-.066.039-.125.039-.193 0-.733-.594-1.326-1.326-1.326-.032 0-.058.016-.089.018v-.009c-.118-.001-.235-.009-.353-.009C14.917 7.626 0 22.543 0 40.943S14.917 74.26 33.317 74.26s33.317-14.917 33.317-33.317c0-.106-.005-.211-.007-.318 0-.013.007-.023.007-.035z"/></svg>