<svg xmlns="http://www.w3.org/2000/svg" viewBox="0 0 79.58432006835938 58.89501190185547"><path d="M30.405 4.41l11.757 11.757c.033.035.067.069.102.102l.095.095.01-.009c.35.285.79.464 1.278.464a2.035 2.035 0 0 0 2.034-2.035c0-.733-.39-1.37-.973-1.728l-11.7-11.699a2.02 2.02 0 0 0-1.523-.698 2.034 2.034 0 0 0-2.034 2.034c0 .725.382 1.358.954 1.717zm13.241 40.766V20.137h-26.9c-.147 0-.29.037-.432.091L5.347 13.897l-.009.015a2.545 2.545 0 0 0-1.175-.296 2.568 2.568 0 1 0-1.388 4.734l-.019.033 11.112 6.416c-.429 1.868-.685 4.162-.685 6.651 0 5.261 1.133 9.669 2.664 10.936L9.583 53.237a3.474 3.474 0 0 0-.75 2.146 3.512 3.512 0 0 0 3.511 3.512 3.492 3.492 0 0 0 2.774-1.382l.06.035 7.327-12.691 7.327 12.69.06-.034a3.492 3.492 0 0 0 2.774 1.382 3.512 3.512 0 0 0 3.512-3.512c0-.812-.287-1.551-.75-2.146l-4.733-8.195c2.467.142 5.146.22 7.951.22 1.721 0 3.393-.03 5-.086z"/><path d="M61.272 42.577c1.151-.649 2.112-3.049 2.597-6.305L47.646 20.049v22.686l-6.064 10.502a3.474 3.474 0 0 0-.75 2.146 3.512 3.512 0 0 0 3.511 3.512 3.492 3.492 0 0 0 2.774-1.382l.06.035 7.327-12.691 7.328 12.69.06-.034a3.492 3.492 0 0 0 2.774 1.382 3.512 3.512 0 0 0 3.512-3.512c0-.812-.287-1.551-.75-2.146l-6.156-10.66zm18.312-21.454c0-.83-.409-1.56-1.03-2.015l-3.907-3.906v-4.065c0-1.528-.879-2.837-2.15-3.49l-5.055-2.918-.014.024a3.892 3.892 0 0 0-1.406-.503L63.568 0 58.47 8.83l-8.193 8.192 13.92 13.919a34.687 34.687 0 0 0-.17-3.058l2.745-2.746h9.875v-.027l2.174-2.174-.01-.01a2.494 2.494 0 0 0 .773-1.803z"/></svg>