<svg xmlns="http://www.w3.org/2000/svg" viewBox="0 0 69.27727508544922 69.7239990234375"><path d="M65.87 0H3.407A3.407 3.407 0 0 0 0 3.407V6.55a3.407 3.407 0 0 0 3.407 3.407H65.87a3.407 3.407 0 0 0 3.407-3.407V3.407A3.407 3.407 0 0 0 65.87 0zm0 59.767H3.407A3.407 3.407 0 0 0 0 63.174v3.143a3.407 3.407 0 0 0 3.407 3.407H65.87a3.407 3.407 0 0 0 3.407-3.407v-3.143a3.408 3.408 0 0 0-3.407-3.407zm3.407-16.515a3.407 3.407 0 0 0-3.407-3.407H27.05a3.407 3.407 0 0 0-3.407 3.407v3.143a3.406 3.406 0 0 0 3.407 3.406h38.82a3.407 3.407 0 0 0 3.407-3.406v-3.143zm0-19.813a3.407 3.407 0 0 0-3.407-3.407H27.05a3.407 3.407 0 0 0-3.407 3.407v3.143a3.406 3.406 0 0 0 3.407 3.406h38.82a3.407 3.407 0 0 0 3.407-3.406v-3.143zM.568 42.709a.567.567 0 0 0 .406-.172l12.427-7.175-.014-.024a.56.56 0 0 0 .29-.484.567.567 0 0 0-.34-.519l.005-.01L.966 27.179a.567.567 0 0 0-.963.389H0v14.573a.567.567 0 0 0 .568.568z"/></svg>