<svg xmlns="http://www.w3.org/2000/svg" viewBox="0 0 87.00102233886719 48.27600860595703"><path d="M86.981 19.063a1.88 1.88 0 0 0-1.882-1.709H45.628C43.027 7.386 33.974 0 23.202 0 10.407 0 0 10.407 0 23.202 0 36 10.407 46.404 23.202 46.404c11.445 0 20.953-8.332 22.84-19.242h8.79v12.517h.014a1.893 1.893 0 0 0 1.886 1.758c.026 0 .049-.006.075-.007v.011h6.1v-.003a1.891 1.891 0 0 0 1.886-1.758h.016V27.163h4.979v19.353h.015a1.898 1.898 0 0 0 1.887 1.76l.021-.002h6.112l.021.002a1.899 1.899 0 0 0 1.887-1.76h.015V27.162h5.355v-.002a1.903 1.903 0 0 0 1.9-1.901H87v-6.197h-.019zM23.202 36.67c-7.338 0-13.308-5.974-13.308-13.311 0-7.338 5.97-13.311 13.308-13.311 7.337 0 13.304 5.973 13.304 13.311.001 7.338-5.967 13.311-13.304 13.311z"/></svg>