<svg xmlns="http://www.w3.org/2000/svg" viewBox="0 0 64.89801025390625 64.89398956298828"><path d="M.011 12.724h.012a2.268 2.268 0 0 0 2.246 2.267v.002h60.359v-.001a2.269 2.269 0 0 0 2.259-2.268h.01V2.265A2.269 2.269 0 0 0 62.628 0H2.269A2.27 2.27 0 0 0 0 2.269c0 .039.01.076.012.115l-.001 10.34zm62.616 12.227H2.269A2.27 2.27 0 0 0 0 27.22c0 .039.01.076.012.115v10.34h.012a2.268 2.268 0 0 0 2.246 2.267v.002h60.359v-.001a2.269 2.269 0 0 0 2.259-2.268h.01V27.216a2.272 2.272 0 0 0-2.271-2.265zm0 24.95H2.269A2.27 2.27 0 0 0 0 52.17c0 .039.01.076.012.115v10.34h.012a2.268 2.268 0 0 0 2.246 2.267v.002h60.359v-.001a2.27 2.27 0 0 0 2.259-2.269h.01V52.165a2.272 2.272 0 0 0-2.271-2.264z"/></svg>