<svg xmlns="http://www.w3.org/2000/svg" viewBox="0 0 82.66654968261719 60.86900329589844"><path d="M5.761 2.929v7.747h2.273V0H6.049L2.688 3.377l1.296 1.361zM4.162 26.857c.88 0 1.729.448 1.729 1.393 0 1.312-1.28 2.401-5.65 5.634v1.793h8.035v-2.001H3.922c2.77-2.017 4.274-3.601 4.274-5.426 0-2.129-1.792-3.41-4.082-3.41-1.489 0-3.073.544-4.114 1.745l1.296 1.505c.721-.753 1.649-1.233 2.866-1.233zM5.938 55.17c1.184-.208 2.337-1.088 2.337-2.433 0-1.776-1.537-2.897-4.034-2.897-1.873 0-3.217.72-4.082 1.697l1.136 1.424a3.852 3.852 0 0 1 2.721-1.104c1.104 0 1.985.416 1.985 1.264 0 .785-.8 1.137-1.985 1.137-.4 0-1.137 0-1.329-.016v2.049c.16-.016.88-.032 1.329-.032 1.489 0 2.145.384 2.145 1.233 0 .8-.721 1.36-2.017 1.36-1.041 0-2.209-.448-2.929-1.216l-1.2 1.521c.784.96 2.257 1.712 4.209 1.712 2.561 0 4.21-1.296 4.21-3.137.002-1.602-1.407-2.45-2.496-2.562zM79.26.323H16.796a3.407 3.407 0 0 0-3.407 3.407v3.143a3.407 3.407 0 0 0 3.407 3.407h62.463a3.407 3.407 0 0 0 3.407-3.407V3.73A3.406 3.406 0 0 0 79.26.323zm0 24.892H16.796a3.407 3.407 0 0 0-3.407 3.407v3.143a3.407 3.407 0 0 0 3.407 3.407h62.463a3.407 3.407 0 0 0 3.407-3.407v-3.143a3.406 3.406 0 0 0-3.406-3.407zm0 24.892H16.796a3.407 3.407 0 0 0-3.407 3.407v3.143a3.407 3.407 0 0 0 3.407 3.407h62.463a3.407 3.407 0 0 0 3.407-3.407v-3.143a3.406 3.406 0 0 0-3.406-3.407z"/></svg>