<svg xmlns="http://www.w3.org/2000/svg" viewBox="0 0 64.89200592041016 64.89826202392578"><path d="M62.629 49.906H27.22a2.27 2.27 0 0 0-2.269 2.268c0 .042.01.08.012.121V62.63h.011a2.268 2.268 0 0 0 2.254 2.268v.001h35.4v-.002a2.268 2.268 0 0 0 2.254-2.268V52.274c.002-.034.01-.067.01-.1a2.267 2.267 0 0 0-2.263-2.268zm-49.904-.003H2.269A2.27 2.27 0 0 0 0 52.173v10.453a2.269 2.269 0 0 0 2.268 2.27h10.455a2.27 2.27 0 0 0 2.269-2.27V52.172a2.267 2.267 0 0 0-2.267-2.269zm49.904-24.987H27.22a2.27 2.27 0 0 0-2.269 2.268c0 .042.01.08.012.121V37.64h.011a2.268 2.268 0 0 0 2.254 2.268v.001h35.4v-.002a2.268 2.268 0 0 0 2.254-2.268V27.284c.002-.034.01-.067.01-.1a2.267 2.267 0 0 0-2.263-2.268zm-49.904-.003H2.269A2.27 2.27 0 0 0 0 27.183v10.453a2.269 2.269 0 0 0 2.268 2.27h10.455a2.27 2.27 0 0 0 2.269-2.27V27.182a2.267 2.267 0 0 0-2.267-2.269zm12.238-12.188h.011a2.268 2.268 0 0 0 2.254 2.268v.001h35.4v-.002a2.268 2.268 0 0 0 2.254-2.268V2.37c.002-.034.01-.067.01-.1A2.269 2.269 0 0 0 62.628 0H27.219a2.27 2.27 0 0 0-2.269 2.268c0 .042.01.08.012.121v10.335zM12.725 0H2.269A2.27 2.27 0 0 0 0 2.27v10.453a2.269 2.269 0 0 0 2.268 2.27h10.455a2.27 2.27 0 0 0 2.269-2.27V2.27A2.266 2.266 0 0 0 12.725 0z"/></svg>