<svg xmlns="http://www.w3.org/2000/svg" viewBox="0 0 67.64273071289062 66.88700103759766"><path d="M67.55 7.014a1.514 1.514 0 0 0-2.392-1.223l-5.944 4.262-.468.336C52.34 3.998 43.55 0 33.808 0 20.524 0 8.93 7.354 2.867 18.201l.024.013a2.54 2.54 0 0 0 1.028 3.272l8.136 4.697a2.546 2.546 0 0 0 3.48-.932c.006-.011.009-.023.015-.034 3.59-6.404 10.438-10.747 18.289-10.747 4.879 0 9.352 1.696 12.914 4.5l-1.001.719-5.948 4.262a1.511 1.511 0 0 0 .397 2.655l25.447 8.669a1.51 1.51 0 0 0 1.994-1.433L67.55 7.014zm-3.824 38.388l-.002-.001-8.136-4.697a2.546 2.546 0 0 0-3.48.932c-.006.011-.01.023-.015.034-3.591 6.404-10.438 10.747-18.29 10.747-4.878 0-9.351-1.696-12.913-4.5l1-.719 5.949-4.262a1.511 1.511 0 0 0-.397-2.655L1.995 31.612A1.51 1.51 0 0 0 0 33.045l.092 26.828a1.514 1.514 0 0 0 2.393 1.223l5.944-4.262.468-.336c6.405 6.391 15.196 10.389 24.938 10.389 13.284 0 24.878-7.354 30.94-18.201l-.024-.012a2.54 2.54 0 0 0-1.026-3.272z"/></svg>