<svg xmlns="http://www.w3.org/2000/svg" viewBox="0 0 77.54700469970703 79.21900177001953"><path d="M45.548 0C27.869 0 13.547 14.329 13.547 32a31.845 31.845 0 0 0 4.588 16.517L2.62 64.032l.054.054C1.018 65.671.001 67.921.001 70.464 0 75.377 3.914 79.219 8.822 79.218c2.507-.001 4.749-1.004 6.349-2.636l.039.039 16.008-16.009A31.865 31.865 0 0 0 45.548 64c17.68 0 31.999-14.327 31.999-32 0-17.671-14.32-32-31.999-32zm.194 51.417c-11.05 0-20.001-8.954-20.001-20 0-11.044 8.951-20 20.001-20s19.999 8.955 19.999 20c.001 11.046-8.949 20-19.999 20z"/></svg>