<svg xmlns="http://www.w3.org/2000/svg" viewBox="0 0 37.032989501953125 76.66773986816406"><g transform="translate(-31.483 -11.666)"><circle cx="49.354" cy="19.938" r="8.272"/><path d="M65.016 30.435v-.04H35.38v.027a3.895 3.895 0 0 0-3.894 3.867h-.003v23.439h.039a3.477 3.477 0 1 0 6.954 0h.008V41.365h.009a1.104 1.104 0 0 1 1.101-1.064c.598 0 1.078.473 1.103 1.064h.009V84.27a4.067 4.067 0 0 0 8.136-.005V62.661h.03a1.127 1.127 0 1 1 2.253 0h.029v21.604a4.07 4.07 0 0 0 8.137 0V41.366a1.11 1.11 0 1 1 2.222 0v16.363h.038a3.478 3.478 0 1 0 6.956 0h.007v-23.44c.002-2.015-1.535-3.653-3.498-3.854z"/></g></svg>