<svg xmlns="http://www.w3.org/2000/svg" viewBox="0 0 83.94400024414062 89.63700103759766"><path d="M83.939 2.78c0-.016.005-.031.005-.047A2.733 2.733 0 0 0 81.214 0H31.531v.011L.003 31.54H0v55.365h.003v.001a2.735 2.735 0 0 0 2.734 2.731h78.479a2.73 2.73 0 0 0 2.663-2.15h.06v-.536c0-.015.004-.029.004-.044s-.004-.029-.004-.044V2.78zM59.611 9.957h14.371v24.597L55.869 16.44l3.742-6.483zM31.542 34.272v-.001a2.732 2.732 0 0 0 2.722-2.73V9.957h19.588l-27.17 47.06L9.957 40.292v-6.02h21.585zM9.957 79.681V47.346L24.1 61.489 13.598 79.681H9.957zm9.4 0l33.93-58.769 20.696 20.696v38.073H19.357z"/><path d="M54.002 40.395c-6.645 0-12.026 5.387-12.026 12.027 0 2.659.873 5.109 2.334 7.1l7.759 13.439c.047.094.097.186.157.271l.016.027.004-.002a2.16 2.16 0 0 0 3.405.132l.02.011.075-.129a2.25 2.25 0 0 0 .287-.497l7.608-13.178a11.962 11.962 0 0 0 2.39-7.175c-.003-6.639-5.384-12.026-12.029-12.026zm-.119 18.124a5.924 5.924 0 0 1-5.926-5.925 5.926 5.926 0 1 1 5.926 5.925z"/></svg>