<svg xmlns="http://www.w3.org/2000/svg" viewBox="0 0 56.42070770263672 79.17499542236328"><path d="M28.21 0C12.63 0 .01 12.627.01 28.201a28.074 28.074 0 0 0 5.602 16.873L23.7 76.406c.105.202.21.403.339.588l.04.069.01-.006a5.063 5.063 0 0 0 4.136 2.111c1.556 0 2.912-.708 3.845-1.799l.047.027.179-.31c.264-.356.498-.736.667-1.155l17.722-30.698a28.074 28.074 0 0 0 5.726-17.032C56.412 12.627 43.792 0 28.21 0zm-.278 42.498c-7.677 0-13.895-6.221-13.895-13.895 0-7.673 6.218-13.895 13.895-13.895s13.895 6.222 13.895 13.895c0 7.673-6.218 13.895-13.895 13.895z"/></svg>