<svg xmlns="http://www.w3.org/2000/svg" viewBox="0 0 43.657005310058594 92.25699615478516"><path d="M41.157 27.29H2.396v.01A2.495 2.495 0 0 0 0 29.79v59.967a2.495 2.495 0 0 0 2.396 2.489v.011h38.761a2.5 2.5 0 0 0 2.5-2.5V29.79a2.5 2.5 0 0 0-2.5-2.5zM21.888 89.674a2.45 2.45 0 1 1 0-4.9 2.45 2.45 0 0 1 0 4.9zm11.813-7.396H9.957V37.246H33.7v45.032zm7.731-69.176a1.488 1.488 0 0 0-.006-1.85l.024-.024-.999-.999-.001-.001-.078-.078-.004.004C30.13 0 13.543.022 3.336 10.227c-.015.015-.019.036-.034.051l-.008-.008-.955.955-.003.002-.002.003-.118.119.024.024a1.502 1.502 0 0 0 .08 1.979l-.004.004 1.918 1.918.026-.026c.55.428 1.303.427 1.85-.006l.025.024 1.079-1.078-.022-.022c.015-.015.036-.019.051-.034 8.053-8.052 21.135-8.074 29.221-.075l-.009.009.956.957v.001h.001l.12.121.024-.024a1.503 1.503 0 0 0 1.979-.079l.004.004.021-.021h.001v-.001l1.768-1.768.128-.128-.025-.026z"/><path d="M34.037 18.641l.024-.024-1.079-1.079-.004.004c-6.165-6.078-16.12-6.054-22.251.076-.015.015-.019.035-.033.05l-.009-.008-1.079 1.079.024.024a1.501 1.501 0 0 0 .079 1.979l-.004.004 1.918 1.918.026-.026c.55.428 1.303.427 1.85-.006l.025.025 1.079-1.078-.022-.022c.015-.015.036-.019.051-.034 3.977-3.977 10.425-3.995 14.436-.072l-.005.005.957.957h.001l.121.121.024-.025a1.503 1.503 0 0 0 1.979-.079l.004.004.021-.021 1.897-1.897-.026-.026a1.484 1.484 0 0 0-.004-1.849z"/></svg>