<svg xmlns="http://www.w3.org/2000/svg" viewBox="0 0 77.55599975585938 59.965999603271484"><path d="M77.542 57.273V2.553l.001-.005-.001-.005v-.235h-.024A2.529 2.529 0 0 0 75.005.012c-.03 0-.058.008-.087.009h-4.569C70.278.015 70.209 0 70.136 0a2.538 2.538 0 0 0-2.537 2.537c0 .117.019.23.035.343v23.141L34.293 6.771a1.715 1.715 0 0 0-2.92 1.172h-.006v15.249L2.925 6.77a1.715 1.715 0 0 0-2.92 1.172H0v44.031a1.718 1.718 0 0 0 2.948 1.197l28.419-16.408v15.212a1.718 1.718 0 0 0 2.948 1.197l33.319-19.237v23.382h.013c-.002.039-.012.075-.012.114a2.537 2.537 0 0 0 2.532 2.536h4.852v-.024a2.537 2.537 0 0 0 2.537-2.537c-.001-.046-.012-.088-.014-.132z"/></svg>