<svg xmlns="http://www.w3.org/2000/svg" viewBox="0 0 75 75"><path d="M37.5 0C16.788 0 0 16.793 0 37.502 0 58.212 16.788 75 37.5 75S75 58.212 75 37.502C75 16.793 58.212 0 37.5 0zm0 65.061c-15.199 0-27.56-12.362-27.56-27.559a27.437 27.437 0 0 1 6.4-17.636l12.803 12.803h-4.834v.009a.671.671 0 0 0-.184.042l-6.043-3.489-.005.008a1.402 1.402 0 0 0-.648-.164 1.418 1.418 0 0 0-.765 2.609l-.01.018 6.124 3.535c-.237 1.03-.378 2.294-.378 3.667 0 2.898.625 5.328 1.469 6.025l-3.454 5.98a1.916 1.916 0 0 0-.413 1.182c0 1.069.866 1.935 1.935 1.935.626 0 1.176-.302 1.529-.762l.032.018 4.037-6.992 4.037 6.992.032-.019c.354.461.904.763 1.53.763a1.935 1.935 0 0 0 1.936-1.935 1.92 1.92 0 0 0-.415-1.184l-2.609-4.518a77.618 77.618 0 0 0 8.606.009l-2.604 4.509a1.914 1.914 0 0 0-.414 1.183c0 1.069.866 1.935 1.935 1.935.626 0 1.176-.302 1.53-.763l.032.019 3.157-5.467 4.167 4.167.751 1.3.031-.018c.296.386.73.654 1.232.732l4.665 4.665A27.427 27.427 0 0 1 37.5 65.061zm21.161-9.926l-9.305-9.305-.459-.795c.919-.518 1.619-3.062 1.619-6.13 0-.688-.036-1.348-.101-1.966l1.515-1.515h5.44v-.015l1.198-1.196-.006-.005a1.37 1.37 0 0 0-.144-2.106l-2.151-2.15v-2.24c0-.841-.483-1.562-1.181-1.922l-2.789-1.609-.007.012a1.674 1.674 0 0 0-.118-.064l-1.906-3.301-3.411 5.911h.199l-5.933 5.932h-4.926l-16.33-16.33a27.426 27.426 0 0 1 17.634-6.4c15.198 0 27.56 12.367 27.56 27.562a27.423 27.423 0 0 1-6.398 17.632z"/></svg>