<svg xmlns="http://www.w3.org/2000/svg" viewBox="0 0 75 75"><path d="M53.051 33.394l-.008.001h-.657l-.008-.001c-.63 0-1.14.51-1.14 1.14l.001 5.932v.154h.03c.077.553.533.986 1.108.986h.668v-.001l.005.001c.575 0 1.031-.433 1.109-.987h.031v-6.086c0-.63-.51-1.139-1.139-1.139zm4.24 0l-.008.001h-.656l-.008-.001c-.63 0-1.14.51-1.14 1.14h-.001l.001 6.086h.031c.077.553.533.986 1.108.986h.668v-.001l.005.001c.575 0 1.032-.433 1.109-.987h.031v-6.086a1.14 1.14 0 0 0-1.14-1.139z"/><path d="M37.5 0C16.788 0 0 16.793 0 37.502 0 58.212 16.788 75 37.5 75S75 58.212 75 37.502C75 16.793 58.212 0 37.5 0zm0 65.061c-15.199 0-27.56-12.362-27.56-27.559a27.435 27.435 0 0 1 6.4-17.636l13.529 13.529h-12.15l-.008-.001c-.63 0-1.14.51-1.14 1.14l.001.003h-.002v5.93c0 .63.51 1.14 1.14 1.14h20.37l17.055 17.055A27.44 27.44 0 0 1 37.5 65.061zm21.161-9.926L45.133 41.606h3.463c.629 0 1.14-.51 1.14-1.14v-5.929l.001-.004c0-.63-.511-1.14-1.14-1.14l-.008.001H36.922L19.866 16.339a27.431 27.431 0 0 1 17.634-6.4c15.198 0 27.56 12.367 27.56 27.562a27.43 27.43 0 0 1-6.399 17.634z"/></svg>