<svg xmlns="http://www.w3.org/2000/svg" viewBox="0 0 60.55500030517578 86.4990005493164"><path d="M21.409 55.112h-4.927v9.231h2.796v-2.906h2.131c2.159 0 3.321-1.439 3.321-3.156.001-1.73-1.162-3.169-3.321-3.169zm-.36 3.889h-1.771v-1.453h1.771c.471 0 .844.235.844.733.001.485-.373.72-.844.72zm9.261-3.889h-4.124v9.231h4.138c2.893 0 5.052-1.675 5.052-4.623s-2.16-4.608-5.066-4.608zm0 6.796h-1.329v-4.36h1.342c1.495 0 2.214.927 2.214 2.173.001 1.162-.829 2.187-2.227 2.187zm6.76 2.435h2.796v-3.446h4.11v-2.436h-4.11v-.913h4.207v-2.436H37.07z"/><path d="M60.555 5.75h-.005V1.73A1.73 1.73 0 0 0 58.82 0H25.95L0 25.95v58.819c0 .956.774 1.73 1.73 1.73h57.09a1.73 1.73 0 0 0 1.73-1.73v-2.448h.005V5.75zM9.957 76.544V29.41H27.68a1.73 1.73 0 0 0 1.73-1.73V9.957h21.188v66.587H9.957z"/></svg>