<svg xmlns="http://www.w3.org/2000/svg" viewBox="0 0 89.52999114990234 86.4990005493164"><path d="M89.049 58.803L70.59 45.661a1.255 1.255 0 0 0-1.312-.093c-.424.218-.684.694-.685 1.173l.009 6.221H51.996c-.706 0-1.391.497-1.391 1.204v11.442c0 .707.685 1.194 1.391 1.194H68.77v6.27c0 .478.184.917.609 1.136.425.219.853.182 1.242-.096l18.432-13.228c.335-.239.477-.626.477-1.038v-.002c0-.415-.144-.801-.481-1.041z"/><path d="M58.825 71.803h-6.49a1.73 1.73 0 0 0-1.73 1.73h-.007v3.01H9.956V29.41h17.723a1.73 1.73 0 0 0 1.73-1.73V9.957h21.188v36.356h.011a1.728 1.728 0 0 0 1.726 1.691h6.49c.943 0 1.705-.754 1.726-1.691h.004V5.751h-.005V1.73A1.73 1.73 0 0 0 58.819 0h-32.87L0 25.95v58.819c0 .956.774 1.73 1.73 1.73h57.089a1.73 1.73 0 0 0 1.73-1.73v-2.448h.005v-8.79a1.729 1.729 0 0 0-1.729-1.728z"/></svg>