<svg xmlns="http://www.w3.org/2000/svg" viewBox="0 0 70.28600311279297 86.49900817871094"><path d="M60.555 63.908v-.033h-.003a1.728 1.728 0 0 0-1.727-1.696h-6.49c-.944 0-1.708.757-1.727 1.696h-.01v12.668H9.957V29.41H27.68a1.73 1.73 0 0 0 1.73-1.73V9.957h21.188v30.2h.013a1.727 1.727 0 0 0 1.724 1.668h6.49c.935 0 1.69-.742 1.724-1.668h.006V5.751h-.005V1.73A1.73 1.73 0 0 0 58.82 0H25.95L0 25.95v58.819c0 .956.774 1.73 1.73 1.73h57.089a1.73 1.73 0 0 0 1.73-1.73v-2.448h.005V63.908h.001z"/><path d="M68.556 46.812h-25.95a1.73 1.73 0 0 0-1.73 1.73v6.92c0 .955.774 1.73 1.73 1.73h25.95a1.73 1.73 0 0 0 1.73-1.73v-6.92a1.73 1.73 0 0 0-1.73-1.73z"/></svg>