<svg xmlns="http://www.w3.org/2000/svg" viewBox="0 0 70.2860107421875 86.49900817871094"><path d="M58.825 71.803h-6.49a1.73 1.73 0 0 0-1.73 1.73h-.007v3.01H9.957V29.41H27.68a1.73 1.73 0 0 0 1.73-1.73V9.957h21.188v20.627h.008a1.73 1.73 0 0 0 1.73 1.726h6.49c.954 0 1.727-.772 1.729-1.726V5.75h-.005V1.73A1.73 1.73 0 0 0 58.82 0H25.95L0 25.95v58.819c0 .956.774 1.73 1.73 1.73h57.089a1.73 1.73 0 0 0 1.73-1.73v-2.448h.005v-8.79a1.728 1.728 0 0 0-1.729-1.728z"/><path d="M68.556 46.812h-7.785v-7.785a1.73 1.73 0 0 0-1.73-1.73h-6.92a1.73 1.73 0 0 0-1.73 1.73v7.785h-7.785a1.73 1.73 0 0 0-1.73 1.73v6.92c0 .955.774 1.73 1.73 1.73h7.785v7.785a1.73 1.73 0 0 0 1.73 1.731h6.92a1.73 1.73 0 0 0 1.73-1.731v-7.785h7.785a1.73 1.73 0 0 0 1.73-1.73v-6.92a1.73 1.73 0 0 0-1.73-1.73z"/></svg>