<svg xmlns="http://www.w3.org/2000/svg" viewBox="0 0 70.61375427246094 86.4990005493164"><path d="M58.825 71.803h-6.49a1.73 1.73 0 0 0-1.73 1.73h-.007v3.01H9.957V29.41H27.68a1.73 1.73 0 0 0 1.73-1.73V9.957h21.188v20.627h.008a1.73 1.73 0 0 0 1.73 1.726h6.49c.954 0 1.727-.772 1.729-1.726V5.75h-.005V1.73A1.73 1.73 0 0 0 58.82 0H25.949L0 25.95v58.819c0 .956.774 1.73 1.73 1.73h57.089a1.73 1.73 0 0 0 1.73-1.73v-2.448h.005v-8.79a1.728 1.728 0 0 0-1.729-1.728z"/><path d="M64.432 52.001l5.505-5.505a1.73 1.73 0 0 0 0-2.447l-4.894-4.893a1.729 1.729 0 0 0-2.446 0l-5.505 5.505-5.505-5.505a1.729 1.729 0 0 0-2.446 0l-4.893 4.894a1.73 1.73 0 0 0 0 2.447l5.505 5.505-5.505 5.505a1.729 1.729 0 0 0 0 2.446l4.894 4.893c.676.676 1.77.676 2.446 0l5.505-5.505 5.505 5.505c.676.676 1.77.676 2.446 0l4.894-4.893a1.729 1.729 0 0 0 0-2.446l-5.506-5.506z"/></svg>