<svg xmlns="http://www.w3.org/2000/svg" viewBox="0 0 85.95755767822266 83.71800994873047"><path d="M76.196 39.614l-.004-.003-32.088-32.09h-.001a2.518 2.518 0 0 0-3.562 0l-5.26 5.26L24.035 1.535A4.924 4.924 0 0 0 20.464.001C17.721 0 15.498 2.232 15.5 4.987a4.97 4.97 0 0 0 1.558 3.612l11.203 11.205L.984 47.08a2.518 2.518 0 0 0 0 3.562l32.091 32.092a2.518 2.518 0 0 0 3.562 0l.001-.001 39.558-39.557a2.52 2.52 0 0 0 0-3.562zm-19.704 9.228H13.334l29.003-29.004 21.579 21.58-7.424 7.424zm27.682 16.629l-5.97-10.339c-.031-.058-.061-.117-.098-.171l-.015-.025-.004.002a1.654 1.654 0 0 0-2.607-.102l-.016-.009-.059.103a1.705 1.705 0 0 0-.217.375L69.353 65.41a9.159 9.159 0 0 0-1.829 5.493 9.215 9.215 0 0 0 9.216 9.217 9.216 9.216 0 0 0 9.217-9.217 9.163 9.163 0 0 0-1.783-5.432z"/></svg>