<svg xmlns="http://www.w3.org/2000/svg" viewBox="0 0 44.50499725341797 60.082008361816406"><path d="M12.784 0c-.097 0-.19.016-.283.029V0H2.164A2.163 2.163 0 0 0 .001 2.163v.005H0v55.743h.001L0 57.92c0 1.194.969 2.162 2.163 2.162h10.62a2.162 2.162 0 0 0 2.162-2.162l-.001-.009h.001V2.168l.001-.005A2.163 2.163 0 0 0 12.784 0zm31.72 57.911V2.168l.001-.005A2.163 2.163 0 0 0 42.343 0c-.097 0-.19.016-.283.029V0H31.723a2.163 2.163 0 0 0-2.163 2.163v.005h-.001v55.743h.001l-.001.009c0 1.194.969 2.162 2.163 2.162H42.34a2.162 2.162 0 0 0 2.162-2.162c.002-.003.001-.006.002-.009z"/></svg>