<svg xmlns="http://www.w3.org/2000/svg" viewBox="0 0 77.55555725097656 59.967002868652344"><path d="M75.838 6.274c-.483 0-.918.2-1.23.521l-28.42 16.408V7.992a1.718 1.718 0 0 0-2.948-1.197L9.922 26.032V2.65h-.013c.002-.039.012-.075.012-.114A2.537 2.537 0 0 0 7.389 0H2.537v.024A2.537 2.537 0 0 0 0 2.561c0 .045.011.086.013.131v54.967h.024a2.529 2.529 0 0 0 2.513 2.296c.03 0 .058-.008.087-.009h4.569c.071.006.14.021.213.021 1.4 0 2.537-1.136 2.537-2.537 0-.117-.019-.23-.035-.343V33.945l33.341 19.25a1.715 1.715 0 0 0 2.92-1.172h.005V36.774L74.63 53.196a1.715 1.715 0 0 0 2.92-1.172h.005V7.992a1.717 1.717 0 0 0-1.717-1.718z"/></svg>