<svg xmlns="http://www.w3.org/2000/svg" viewBox="0 0 77.45462036132812 80.0042495727539"><path d="M76.878 57.872c-.022-.038-.052-.07-.076-.105l.002-.001-26.905-46.6-.015.009a2.08 2.08 0 0 0-.929-.801l.038-.022-7.986-4.612 8.871 15.365 20.178 34.949h-.002c.024.037.054.068.076.106a2.091 2.091 0 0 1-.765 2.855l.014.025-29.861 17.24 1.293 2.239c.026.055.044.112.075.166a2.085 2.085 0 0 0 2.772.8l.005.009L76.128 60.75l-.014-.025a2.09 2.09 0 0 0 .764-2.854z"/><path d="M62.472 57.05a2.091 2.091 0 0 0 .765-2.855c-.022-.038-.052-.07-.076-.105l.002-.001-26.905-46.6-.015.009a2.08 2.08 0 0 0-.929-.801l.038-.022L24.342.318v.044a2.082 2.082 0 0 0-1.846-.107l-.012-.021-.206.119c-.004.003-.009.003-.013.006s-.007.006-.012.008L1.07 12.597A2.078 2.078 0 0 0 .033 14.36l-.007-.004V27.07l.021-.012c-.047.427.03.872.261 1.273.014.024.032.042.047.065L27.17 74.843c.026.055.044.112.075.166a2.085 2.085 0 0 0 2.772.8l.005.009 32.465-18.743-.015-.025zM18.137 17.429a3.865 3.865 0 1 1 1.415-5.28 3.862 3.862 0 0 1-1.415 5.28z"/></svg>