<svg xmlns="http://www.w3.org/2000/svg" viewBox="0 0 57.19000244140625 78.13111877441406"><path d="M57.183 37.84V24.953h-.001A3.967 3.967 0 0 0 53.312 21v-.038H41.26c-.059.002-.115.018-.175.018s-.116-.016-.175-.018h-.203v-.02c-2.8-.199-5.016-2.509-5.016-5.357 0-1.236.432-2.36 1.131-3.27h-.106a8.168 8.168 0 0 0 1.098-4.093 8.221 8.221 0 0 0-8.223-8.22 8.22 8.22 0 0 0-8.221 8.22c0 1.491.403 2.886 1.098 4.092h-.091a5.35 5.35 0 0 1 1.117 3.256c0 2.847-2.216 5.157-5.017 5.354v.038H3.955v.02A3.972 3.972 0 0 0 0 24.953c0 .058.015.112.017.17v13.421H.06a2.245 2.245 0 0 0 2.243 2.244c.226 0 .44-.045.645-.109a9.727 9.727 0 0 1 3.883-.808c5.393 0 9.764 4.371 9.764 9.762 0 5.392-4.371 9.762-9.764 9.762a9.731 9.731 0 0 1-3.788-.763 2.23 2.23 0 0 0-.769-.144 2.24 2.24 0 0 0-2.242 2.244c0 .127.017.25.038.372H.017v12.884c-.003.058-.017.112-.017.17a3.975 3.975 0 0 0 3.973 3.973c.109 0 .212-.023.319-.032h13.192a2.245 2.245 0 0 0 2.244-2.246c0-.248-.05-.48-.124-.704l-.004-.014c-.017-.05-.027-.106-.048-.155h.008a9.77 9.77 0 0 1-.397-2.74 9.76 9.76 0 0 1 9.762-9.763 9.761 9.761 0 0 1 9.762 9.762 9.76 9.76 0 0 1-.397 2.741h.025a2.245 2.245 0 0 0 2.066 3.123c.013 0 .025-.004.038-.004h12.792a3.974 3.974 0 0 0 3.969-3.933h.005V61.104h-.046a2.234 2.234 0 0 0-2.216-1.964v-.099a9.747 9.747 0 0 1-2.567.353c-5.392 0-9.763-4.37-9.763-9.762 0-5.39 4.371-9.762 9.763-9.762.89 0 1.748.13 2.567.353v-.094l.025.002c1.01 0 1.853-.67 2.134-1.588h.103v-.605c0-.017.005-.032.005-.049-.002-.017-.006-.032-.007-.049z"/></svg>