<svg xmlns="http://www.w3.org/2000/svg" viewBox="0 0 85.05399322509766 40.4640007019043"><path d="M10.099 13.945c-.809 0-1.617.101-2.02.303.899-3.602 4.307-7.642 7.513-9.387.007-.003.012-.008.018-.011.024-.013.048-.031.071-.044l-.003-.002c.355-.19.605-.552.605-.983a1.11 1.11 0 0 0-.505-.916l.025-.024-4.196-2.65-.013.011A1.101 1.101 0 0 0 10.926 0c-.184 0-.35.054-.504.132l-.021-.019C4.141 4.555 0 11.319 0 18.893 0 25.455 4.241 29.19 8.985 29.19c4.342 0 7.978-3.634 7.978-7.977.001-4.34-3.027-7.268-6.864-7.268zm20.547 0c-.809 0-1.617.101-2.02.303.899-3.602 4.307-7.642 7.513-9.387.007-.003.012-.008.018-.011.024-.013.048-.031.071-.044l-.003-.002c.355-.19.605-.552.605-.983a1.11 1.11 0 0 0-.505-.916l.025-.024-4.196-2.65-.013.011A1.101 1.101 0 0 0 31.473 0c-.184 0-.35.054-.504.132l-.021-.019c-6.26 4.442-10.401 11.206-10.401 18.78 0 6.562 4.241 10.297 8.985 10.297 4.342 0 7.978-3.634 7.978-7.977.001-4.34-3.027-7.268-6.864-7.268zm24.875-2.672c-4.342 0-7.978 3.634-7.978 7.977 0 4.341 3.028 7.269 6.865 7.269.809 0 1.617-.101 2.02-.303-.899 3.602-4.307 7.642-7.513 9.387-.007.003-.012.008-.018.011-.024.013-.048.031-.071.044l.003.002c-.355.19-.605.552-.605.983 0 .388.208.713.505.916l-.025.024 4.196 2.65.013-.011c.189.143.413.242.668.242.184 0 .35-.054.504-.132l.021.019c6.26-4.443 10.401-11.206 10.401-18.78-.001-6.563-4.242-10.298-8.986-10.298zm20.547 0c-4.342 0-7.978 3.634-7.978 7.977 0 4.341 3.028 7.269 6.865 7.269.809 0 1.617-.101 2.02-.303-.899 3.602-4.307 7.642-7.513 9.387-.007.003-.012.008-.018.011-.024.013-.048.031-.071.044l.003.002c-.355.19-.605.552-.605.983 0 .388.208.713.505.916l-.025.024 4.196 2.65.013-.011c.189.143.413.242.668.242.184 0 .35-.054.504-.132l.021.019c6.26-4.443 10.401-11.206 10.401-18.78-.001-6.563-4.242-10.298-8.986-10.298z"/></svg>