<svg xmlns="http://www.w3.org/2000/svg" viewBox="0 0 69.9260025024414 82.2449951171875"><path d="M58.176 29.372a11.72 11.72 0 0 0-4.189.782L23.461 12.53c.017-.259.039-.517.039-.78C23.5 5.261 18.239 0 11.75 0S0 5.261 0 11.75 5.261 23.5 11.75 23.5c2.563 0 4.927-.83 6.858-2.223l28.343 16.364c-.341 1.1-.525 2.27-.525 3.482 0 1.232.191 2.418.543 3.534L18.656 61.003a11.68 11.68 0 0 0-6.906-2.258C5.261 58.745 0 64.006 0 70.495s5.261 11.75 11.75 11.75 11.75-5.261 11.75-11.75c0-.243-.022-.48-.036-.72l30.59-17.661a11.7 11.7 0 0 0 4.122.758c6.489 0 11.75-5.261 11.75-11.75s-5.261-11.75-11.75-11.75z"/></svg>