<svg xmlns="http://www.w3.org/2000/svg" viewBox="0 0 90.23298645019531 65.60173797607422"><path d="M14.517 45.022H3.138a2.536 2.536 0 0 0-3.013 2H.078v11h.076a2.527 2.527 0 0 0 2.078 1.906v.094h17v-.061c1.739-.021 3.23-1.008 4.002-2.443l10.512-10.512L23.14 36.399l-8.623 8.623zm75.25-31.446L71.153.316a1.255 1.255 0 0 0-1.319-.094 1.278 1.278 0 0 0-.688 1.146l.002 5.599H54.232v.026a4.577 4.577 0 0 0-2.781 1.138l-.021-.021L40.838 18.7l10.607 10.607 7.341-7.341h10.368l.002 6.005c0 .48.271.924.7 1.146.429.222.946.183 1.34-.1l18.576-13.345c.338-.241.461-.631.461-1.046v-.003c-.001-.417-.126-.806-.466-1.047z"/><path d="M89.694 49.926L71.118 36.58a1.289 1.289 0 0 0-2.039 1.047l-.002 6.005H58.708L23.156 8.08c-.772-1.435-2.263-2.421-4.001-2.442v-.061h-17v.094A2.527 2.527 0 0 0 .077 7.578H0v11h.049a2.535 2.535 0 0 0 3.013 2H14.44L51.353 57.49l.021-.021a4.583 4.583 0 0 0 2.782 1.138v.026h14.916l-.002 5.599c0 .484.26.928.688 1.146a1.25 1.25 0 0 0 1.319-.093l18.614-13.26c.34-.242.465-.631.465-1.05v-.003c-.001-.415-.124-.806-.462-1.047z"/></svg>