<svg xmlns="http://www.w3.org/2000/svg" viewBox="0 0 78 77.84007263183594"><path d="M55.078 3.5A38.608 38.608 0 0 0 38.998.003c-4.65 0-9.221.894-13.62 2.542 1.031.936 28.368 25.748 29.7 26.96V3.498zM18.924 72.31v-33.53A35455.873 35455.873 0 0 1 2.81 53.421c3.126 7.84 8.832 14.487 16.114 18.89zM0 39.004c0 3.35.505 6.757 1.416 10.132 1.058-.959 33.894-30.793 34.569-31.408-.659-.6-14.314-12.995-14.759-13.398C8.134 11.05 0 24.3 0 39.004zm23.019 16.952v18.605c3.965 1.776 8.111 2.885 12.378 3.28h7.161c13.471-1.257 25.498-9.562 31.474-21.886l-51.013.001zm36.17-50.22v46.11h16.598C77.24 47.69 78 43.37 78 39.004c0-13.553-7.206-26.206-18.811-33.269z"/></svg>