<svg xmlns="http://www.w3.org/2000/svg" viewBox="0 0 72.00000762939453 72.00000762939453"><g fill-rule="evenodd" clip-rule="evenodd"><path d="M36.104 20.348c-8.863 0-16.062 7.198-16.062 16.076s7.199 16.062 16.062 16.062c8.878 0 16.077-7.185 16.077-16.062 0-8.878-7.199-16.076-16.077-16.076z"/><path d="M65 0H7a7 7 0 0 0-7 7v58a7 7 0 0 0 7 7h58a7 7 0 0 0 7-7V7a7 7 0 0 0-7-7zM36.104 60.707c-13.404 0-24.297-10.864-24.297-24.283S22.7 12.113 36.104 12.113c13.419 0 24.297 10.893 24.297 24.311 0 13.419-10.878 24.283-24.297 24.283z"/></g></svg>