<svg xmlns="http://www.w3.org/2000/svg" viewBox="0 0 78.03227996826172 78.11399841308594"><path d="M28.765 22.535c-11.464-7.078-18.27-10.103-18.27-10.103A38.952 38.952 0 0 0 .016 39.076c0 9.229 3.19 17.695 8.522 24.373 0 .001-5.349-14.369 20.227-40.914zm10.222-7.543l.032.018a1.098 1.098 0 0 0-.026-.018C54.602 3.713 64.298 9.381 64.298 9.381 57.495 3.535 48.656 0 38.993 0c-9.659 0-18.498 3.535-25.301 9.381-.001 0 9.695-5.801 25.295 5.611zm-.125 16.012C17.166 47.063 10.84 66.016 10.84 66.016c7.083 7.455 17.08 12.098 28.152 12.098 11.101 0 21.114-4.658 28.199-12.141 0 0-4.12-17.047-28.329-34.969zm39.154 8.072a38.954 38.954 0 0 0-10.479-26.644s-6.806 3.025-18.27 10.103C74.843 49.08 69.494 63.449 69.494 63.449a38.91 38.91 0 0 0 8.522-24.373z"/></svg>