<svg xmlns="http://www.w3.org/2000/svg" viewBox="0 0 77.00299835205078 62.589332580566406"><path d="M77.003 7.413a31.562 31.562 0 0 1-9.073 2.486 15.841 15.841 0 0 0 6.945-8.738 31.583 31.583 0 0 1-10.031 3.832A15.783 15.783 0 0 0 53.313.005c-8.724 0-15.798 7.072-15.798 15.798 0 1.237.14 2.444.41 3.6-13.13-.658-24.77-6.948-32.562-16.507a15.73 15.73 0 0 0-2.139 7.943 15.791 15.791 0 0 0 7.028 13.149 15.762 15.762 0 0 1-7.155-1.976c-.002.066-.002.13-.002.199 0 7.652 5.445 14.037 12.671 15.49a15.892 15.892 0 0 1-7.134.27c2.01 6.275 7.844 10.844 14.757 10.972a31.704 31.704 0 0 1-19.62 6.763c-1.275 0-2.532-.074-3.769-.221a44.715 44.715 0 0 0 24.216 7.096c29.058 0 44.948-24.071 44.948-44.945 0-.684-.016-1.367-.046-2.046a32.03 32.03 0 0 0 7.885-8.177z"/></svg>