<svg xmlns="http://www.w3.org/2000/svg" viewBox="0 0 71.31600189208984 71.8530044555664"><path d="M49.823 42.158c-3.279 0-4.361 2.494-4.69 3.652h8.754c-.082-.643-.339-1.773-1.157-2.597-.697-.699-1.672-1.055-2.907-1.055zM27.32 46.816h-8.292v7.067h7.839c1.398-.035 3.13-.485 3.13-3.422 0-3.543-2.403-3.645-2.677-3.645z"/><path d="M64.693 0h-58A7.004 7.004 0 0 0 0 4.946v62.107a7.01 7.01 0 0 0 5.265 4.8H66.12a7.009 7.009 0 0 0 5.196-4.602V4.748A6.998 6.998 0 0 0 64.693 0zM42.926 30.375c0-.277.226-.502.502-.502h12.465c.274 0 .501.225.501.502v3.721a.503.503 0 0 1-.501.501H43.428a.502.502 0 0 1-.502-.501v-3.721zm-5.294 20.639c0 4.75-2.513 7.041-4.625 8.12-2.301 1.179-4.686 1.271-5.364 1.271H11.82a.506.506 0 0 1-.502-.503V29.697c0-.277.228-.503.502-.503h15.721c5.58 0 9.047 3.274 9.047 8.547 0 3.266-1.591 4.833-2.991 5.579a5.07 5.07 0 0 1 2.041 1.329c2.194 2.32 2.006 6.2 1.994 6.365zm23.304-.455a.499.499 0 0 1-.497.437H45.306c.109 1.659.766 2.856 1.953 3.563 1.05.623 2.211.691 2.657.691.093 0 .151-.004.158-.006 1.737 0 2.97-.383 3.697-1.139.697-.726.678-1.547.673-1.582 0-.138.046-.271.144-.371a.498.498 0 0 1 .362-.155h5.313c.278 0 .504.225.504.503 0 8.131-8.683 8.543-10.429 8.543-.279 0-.438-.01-.438-.01h-.005c-3.92 0-6.987-1.143-9.091-3.395-3.297-3.534-2.996-8.478-2.981-8.686 0-.089.014-3.019 1.495-5.992 1.391-2.773 4.352-6.081 10.612-6.081 3.587 0 6.38 1.102 8.287 3.274 3.509 4.001 2.759 10.146 2.719 10.406z"/><path d="M28.948 38.059c0-2.609-1.565-2.639-1.63-2.639h-8.29v5.734h7.742c1.151 0 2.178-.236 2.178-3.095z"/></svg>