<svg xmlns="http://www.w3.org/2000/svg" viewBox="0 0 78.01629638671875 78.01094055175781"><g fill-rule="evenodd" clip-rule="evenodd"><path d="M69.804 15.095a38.805 38.805 0 0 1 8.199 23.916c0 21.536-17.464 39-39 39-15.152 0-28.29-8.646-34.745-21.271h16.998c8.1 0 13.758-4.366 13.758-11.345 0-14.791-17.063-8.765-17.063-14.014 0-2.53 2.029-3.45 5.742-3.45h11.83c3.279 0 7.136.589 7.136 4.167v11.787c0 8.535 6.665 12.854 13.573 12.854 7.026 0 13.57-4.32 13.57-12.854v-28.79h.002z"/><path d="M39.004.01A38.817 38.817 0 0 1 60.94 6.768V44.16c0 2.592-2.12 4.713-4.708 4.713-2.591 0-4.71-2.121-4.71-4.713V32.956c0-8.945-4.526-12.666-10.422-12.666H21.91c-6.946 0-12.71 4.422-12.71 11.434 0 3.588 1.538 8.846 8.807 10.15 5.92 1.066 8.258.756 8.258 3.924 0 3.076-3.446 3.076-7.995 3.076H1.264A38.94 38.94 0 0 1 .003 39.01c0-21.531 17.466-39 39-39z"/></g></svg>