<svg xmlns="http://www.w3.org/2000/svg" viewBox="0 0 100 57.433998107910156"><path fill-rule="evenodd" d="M89.782 56.524l-10.215-1.248 1.136-8.963 10.215 1.246-1.136 8.965zM100 2.155L82.519 0l.112 40.522 7.607 1.019L100 2.155zM64.813 9.194c-7.038-5.336-16.118-7.941-27.13-7.941-11.123 0-20.203 2.605-27.126 7.941C3.519 14.412 0 21.113 0 29.397c0 8.4 3.519 15.213 10.557 20.435 5.742 4.33 12.97 6.865 21.615 7.602h10.981c8.582-.736 15.822-3.271 21.661-7.602 6.923-5.223 10.441-12.035 10.441-20.435-.001-8.284-3.519-14.985-10.442-20.203zm-5.222 13.279l-5.335 1.137c-.793.225-2.951 1.816-6.696 4.881-3.974 3.178-6.017 5.221-6.356 6.242l-.227 2.84-.114 1.703.455 4.312 7.038.109-.115 2.158H36.776l-10.216.114.341-2.043 3.292-.109c1.703-.119 2.726-.344 3.064-.686.228-.227.341-1.59.341-3.973v-1.475l-.113-2.951c-.228-.678-2.044-3.178-5.562-7.492-3.632-4.426-6.015-7.037-7.151-7.947l-6.583-.904v-1.932c.341-.225 3.973-.225 10.669-.113 4.654-.111 8.513-.111 11.579.113l-.228 1.592-6.925.678c2.157 3.18 5.45 7.605 9.876 13.17 5.789-4.43 8.854-7.268 8.966-8.518l-5.901-.906-.453-2.041h9.874l9.308.113-1.363 1.928z" clip-rule="evenodd"/></svg>