<svg xmlns="http://www.w3.org/2000/svg" viewBox="0 0 77.00450134277344 78.10308837890625"><path d="M74.784 47.346c.555-2.54.851-5.176.851-7.883 0-20.283-16.442-36.727-36.727-36.727-2.14 0-4.236.186-6.279.54a21.169 21.169 0 0 0-11.33-3.27C9.538.005 0 9.538 0 21.305c0 3.93 1.069 7.608 2.929 10.767a36.99 36.99 0 0 0-.744 7.391c0 20.282 16.44 36.725 36.723 36.725 2.299 0 4.545-.215 6.729-.615A21.228 21.228 0 0 0 55.702 78.1c11.763 0 21.299-9.53 21.299-21.297a21.178 21.178 0 0 0-2.217-9.456zm-17.037 9.67c-1.701 2.401-4.212 4.307-7.462 5.658-3.223 1.342-7.081 2.021-11.479 2.021-5.272 0-9.695-.932-13.147-2.762-2.467-1.336-4.502-3.138-6.046-5.366-1.561-2.249-2.354-4.483-2.354-6.636 0-1.343.518-2.51 1.534-3.465 1.006-.947 2.294-1.429 3.833-1.429 1.261 0 2.351.38 3.234 1.126.845.718 1.571 1.776 2.151 3.148.652 1.488 1.363 2.748 2.112 3.74.718.95 1.757 1.754 3.081 2.38 1.329.63 3.125.951 5.333.951 3.036 0 5.527-.649 7.396-1.93 1.831-1.249 2.72-2.747 2.72-4.583 0-1.449-.466-2.59-1.421-3.482-.998-.934-2.315-1.662-3.916-2.16-1.669-.52-3.938-1.082-6.74-1.67-3.81-.816-7.047-1.784-9.625-2.88-2.633-1.12-4.757-2.674-6.308-4.617-1.576-1.976-2.376-4.452-2.376-7.362 0-2.774.838-5.273 2.494-7.432 1.643-2.143 4.042-3.807 7.127-4.949 3.05-1.129 6.676-1.697 10.776-1.697 3.28 0 6.164.38 8.57 1.125 2.421.758 4.461 1.771 6.066 3.027 1.612 1.262 2.816 2.611 3.567 4.012.765 1.416 1.152 2.827 1.152 4.191 0 1.312-.507 2.502-1.508 3.543-1.006 1.045-2.273 1.574-3.771 1.574-1.36 0-2.425-.33-3.163-.983-.688-.608-1.402-1.556-2.191-2.919-.917-1.738-2.023-3.11-3.295-4.078-1.235-.938-3.299-1.414-6.131-1.414-2.636 0-4.777.527-6.364 1.57-1.533 1.004-2.276 2.154-2.276 3.521 0 .837.239 1.535.731 2.136.525.64 1.258 1.195 2.191 1.664.965.484 1.958.871 2.954 1.145 1.024.285 2.733.705 5.084 1.246 2.969.641 5.702 1.354 8.116 2.127 2.445.783 4.56 1.75 6.283 2.871 1.76 1.143 3.153 2.616 4.144 4.372.989 1.765 1.49 3.938 1.49 6.467 0 3.026-.863 5.784-2.566 8.2z"/></svg>