<svg xmlns="http://www.w3.org/2000/svg" viewBox="0 0 72.00000762939453 72.00000762939453"><g fill-rule="evenodd" clip-rule="evenodd"><path d="M51.193 29.131c-1.031 0-2.022.22-2.975.656-.954.438-1.854.992-2.704 1.661a24.391 24.391 0 0 0-2.434 2.201c-.772.799-1.468 1.532-2.086 2.201a35.8 35.8 0 0 0 2.163 2.278 18.209 18.209 0 0 0 2.472 2.008 13.16 13.16 0 0 0 2.743 1.429c.952.361 1.97.541 3.051.541 1.905 0 3.373-.618 4.404-1.854 1.03-1.236 1.545-2.754 1.545-4.557 0-1.802-.554-3.348-1.661-4.635-1.107-1.285-2.613-1.929-4.518-1.929zm-21.631 4.518a26.225 26.225 0 0 0-2.588-2.201 15.069 15.069 0 0 0-2.82-1.661c-.979-.437-1.958-.656-2.935-.656-1.803 0-3.233.683-4.288 2.047-1.056 1.364-1.584 2.896-1.584 4.596 0 1.854.541 3.373 1.622 4.557 1.082 1.185 2.575 1.776 4.481 1.776.977 0 1.956-.193 2.935-.579a14.388 14.388 0 0 0 2.781-1.468c.875-.592 1.7-1.261 2.472-2.008a32.164 32.164 0 0 0 2.086-2.201 56.593 56.593 0 0 0-2.162-2.202z"/><path d="M65 0H7a7 7 0 0 0-7 7v58a7 7 0 0 0 7 7h58a7 7 0 0 0 7-7V7a7 7 0 0 0-7-7zm-1.292 41.102c-.618 1.751-1.494 3.282-2.627 4.596-1.134 1.312-2.538 2.344-4.21 3.089-1.674.747-3.542 1.12-5.601 1.12-1.597 0-3.09-.244-4.481-.733a17.68 17.68 0 0 1-3.901-1.931 23.25 23.25 0 0 1-3.438-2.781 52.75 52.75 0 0 1-3.09-3.282 413.808 413.808 0 0 1-3.168 3.282 22.075 22.075 0 0 1-3.284 2.781 16.404 16.404 0 0 1-3.785 1.931c-1.365.489-2.897.733-4.597.733-2.112 0-3.992-.373-5.64-1.12-1.649-.745-3.065-1.749-4.249-3.012-1.186-1.261-2.086-2.768-2.704-4.519-.618-1.75-.927-3.63-.927-5.639 0-2.008.295-3.873.888-5.6.591-1.725 1.455-3.217 2.588-4.479 1.132-1.261 2.523-2.265 4.172-3.013 1.648-.745 3.502-1.119 5.562-1.119 1.7 0 3.257.258 4.674.773a16.842 16.842 0 0 1 3.94 2.046c1.21.85 2.343 1.829 3.399 2.935a71.194 71.194 0 0 1 3.129 3.515 76.135 76.135 0 0 1 3.051-3.476 21.6 21.6 0 0 1 3.399-2.975 16.803 16.803 0 0 1 3.94-2.046c1.416-.515 2.948-.773 4.597-.773 2.06 0 3.914.36 5.562 1.081 1.647.722 3.038 1.713 4.172 2.974 1.132 1.262 2.008 2.742 2.627 4.441.618 1.699.927 3.553.927 5.561s-.306 3.89-.925 5.64z"/></g></svg>