<svg xmlns="http://www.w3.org/2000/svg" viewBox="0 0 72 72"><g fill-rule="evenodd" clip-rule="evenodd"><path d="M60.121 0H11.88C5.351 0 0 5.351 0 11.88v48.24C0 66.65 5.351 72 11.88 72h48.241C66.65 72 72 66.65 72 60.12V11.88C72 5.351 66.65 0 60.121 0zm-2.3 43.982c-.044 7.649-6.264 13.913-13.928 13.913H27.886c-7.664 0-13.928-6.264-13.928-13.913V27.725c0-7.665 6.264-13.943 13.928-13.943h9.743c3.596.428 8.829 3.508 10.759 7.605.531 1.149.81 1.326 1.253 4.73.236 1.754.354 3.051 1.135 3.773 1.105 1.002 5.203.324 6.014.958l.619.486.368.767.133.619-.089 11.262z"/><path d="M28.063 30.495h7.724a2.677 2.677 0 0 0 2.668-2.668 2.664 2.664 0 0 0-2.668-2.653h-7.724a2.663 2.663 0 0 0-2.667 2.653 2.676 2.676 0 0 0 2.667 2.668zM43.76 41.122H28.063a2.663 2.663 0 0 0-2.667 2.653c0 1.443 1.194 2.652 2.667 2.652H43.76a2.67 2.67 0 0 0 2.653-2.652 2.66 2.66 0 0 0-2.653-2.653z"/></g></svg>