<svg xmlns="http://www.w3.org/2000/svg" viewBox="0 0 72 71.73399353027344"><path d="M32.347 30.653c2.026-.797 7.307-1.86 11.093-1.328l4.749 9.896 13.052-3.089c.664-.133.996-.996 0-1.893-8.17-6.575-16.24-7.87-32.181-4.383l9.465 19.727-33.044 9.316v5.995c0 .219.089.419.233.562a.791.791 0 0 0 .563.233h59.248a.794.794 0 0 0 .796-.795V41.99l-25.206 6.696s-7.075-14.247-8.768-18.033z"/><path d="M65.524 5.38H6.276a.775.775 0 0 0-.437.148.782.782 0 0 0-.36.648v25.81c1.266-.977 5.98-4.468 10.528-5.917l-3.886-8.967H23.08s2.89 6.276 2.89 6.376c3.985-1.195 23.114-4.284 40.151 3.089l.199.146V6.177a.781.781 0 0 0-.36-.648.766.766 0 0 0-.436-.149zM13.185 47.757c2.458-.531 11.823-3.056 11.823-3.056L18.963 32.28c-1.66.465-8.634 3.653-8.103 14.347 0 0-.133 1.661 2.325 1.13z"/><path d="M66.022 0H5.978A5.979 5.979 0 0 0 0 5.977v59.78a5.978 5.978 0 0 0 5.978 5.977h60.044A5.979 5.979 0 0 0 72 65.757V5.977C72 2.677 69.323 0 66.022 0zm2.291 64.893a2.792 2.792 0 0 1-2.789 2.789H6.276a2.793 2.793 0 0 1-2.79-2.789V6.177a2.793 2.793 0 0 1 2.79-2.789h59.248a2.792 2.792 0 0 1 2.789 2.789v58.716z"/></svg>