<svg xmlns="http://www.w3.org/2000/svg" viewBox="0 0 88.00499725341797 70.09700012207031"><path d="M82.808 15.794c-9.825.285-21.688-7.424-26.286-10.327-.426-.27-.861-.518-1.301-.742a31.605 31.605 0 0 0-1.477-.761v28.36h-.014c.018 2.54-.736 5.217-2.324 7.784l-.139.226c-4.594 7.427-14.258 11.756-23.322 8.695-8.803-2.976-11.154-11.501-6.493-19.041l.141-.227c4.589-7.424 14.253-11.754 23.318-8.693.699.236 1.344.517 1.957.823V1.381A39.351 39.351 0 0 0 36.555 0C15.576 0 0 15.702 0 35.048v.252c0 19.346 15.449 34.797 36.304 34.797 20.978-.001 36.556-15.702 36.556-35.049v-.25c0-1.51-.105-2.988-.287-4.443C83.5 27.506 88.005 16.2 82.808 15.794z"/></svg>