<svg xmlns="http://www.w3.org/2000/svg" viewBox="0 0 70.9729995727539 80.0479965209961"><g fill-rule="evenodd" clip-rule="evenodd"><path d="M68.637 26.841c-4.124-5.139-9.91-8.112-15.372-8.112-7.226 0-10.279 3.433-15.292 3.433-5.167 0-9.096-3.428-15.346-3.428-6.139 0-12.666 3.729-16.804 10.102C0 37.798.986 54.66 10.428 69.029 13.805 74.167 18.315 79.945 24.212 80c5.241.048 6.724-3.343 13.835-3.383 7.112-.039 8.457 3.42 13.697 3.371 5.897-.056 10.655-6.454 14.03-11.593 2.419-3.681 3.32-5.541 5.199-9.702-13.651-5.158-15.846-24.447-2.336-31.852z"/><path d="M47.784 12.988C50.409 9.62 52.403 4.862 51.679 0c-4.288.296-9.304 3.023-12.232 6.58-2.658 3.228-4.853 8.015-3.999 12.668 4.681.145 9.525-2.652 12.336-6.26z"/></g></svg>