<svg xmlns="http://www.w3.org/2000/svg" viewBox="0 0 72 73"><path d="M53.961 31.788c0 9.919-8.041 17.96-17.96 17.96s-17.96-8.041-17.96-17.96c0-2.795.657-5.43 1.795-7.788H0v42c0 3.85 3.15 7 7 7h58c3.85 0 7-3.15 7-7V24H52.165a17.848 17.848 0 0 1 1.796 7.788zM65 0H7C3.15 0 0 3.15 0 7v14h21.665c3.278-4.349 8.47-7.172 14.335-7.172S47.057 16.651 50.335 21H72V7c0-3.85-3.15-7-7-7zM5.756 17.716H3.15V7.621a4.253 4.253 0 0 1 2.607-3.922v14.017zm4.27 0H7.557V3.368h2.469v14.348zm4.269 0h-2.469V3.368h2.469v14.348zm4.266-10.095v10.095h-2.466V3.368h2.466v4.253zm49.79 5.842a4.252 4.252 0 0 1-4.251 4.253h-6.909a4.252 4.252 0 0 1-4.252-4.253V7.621a4.252 4.252 0 0 1 4.252-4.253H64.1a4.251 4.251 0 0 1 4.251 4.253v5.842z"/><path d="M36.001 47.648c8.736 0 15.818-7.085 15.818-15.819 0-8.735-7.081-15.82-15.818-15.82-8.738 0-15.82 7.085-15.82 15.82 0 8.733 7.082 15.819 15.82 15.819zM36 19.225c6.96 0 12.604 5.643 12.604 12.604 0 6.96-5.643 12.604-12.604 12.604S23.396 38.79 23.396 31.829C23.397 24.867 29.04 19.225 36 19.225z"/></svg>