<svg xmlns="http://www.w3.org/2000/svg" viewBox="0 0 61.739715576171875 52.23118209838867"><path d="M61.444 12.327a.99.99 0 0 0-.703-.291v-.011h-5.208c3.816-2.52 5.064-4.32 5.064-6.504C60.597 2.305 57.885 0 53.732 0c-2.138 0-4.685.695-6.52 2.481-.044.031-.093.048-.13.087-.028.027-.039.063-.063.093-.018.018-.038.033-.055.052l.012.014a.965.965 0 0 0 .005 1.095l-.016.01 1.367 1.995h.001a.982.982 0 0 0 1.265.093l.007.009c.036-.03.072-.056.108-.085.007-.007.017-.009.025-.016l.005-.007c1.184-.965 2.446-1.548 4.088-1.548 1.032 0 1.848.48 1.848 1.248 0 1.2-.696 1.8-8.017 6.96v.022c-.067.041-.139.073-.197.131a.97.97 0 0 0-.267.578h-.024v2.609c0 .241.195.437.437.437.018 0 .034-.008.052-.01v.004h13.082a.992.992 0 0 0 .994-.994v-2.225a1.013 1.013 0 0 0-.295-.706zm-20.199 2.049l-3.389-3.39a2.604 2.604 0 0 0-3.683 0l-.016-.016-13.034 13.034L8.09 10.97a2.604 2.604 0 0 0-3.683 0l-3.389 3.389a2.604 2.604 0 0 0 0 3.683l-.016.016 13.033 13.033L1.001 44.126l.016.016a2.604 2.604 0 0 0 0 3.683l3.39 3.389a2.604 2.604 0 0 0 3.682 0l13.033-13.033 13.033 13.033.016-.016a2.604 2.604 0 0 0 3.683 0l3.39-3.389a2.604 2.604 0 0 0 0-3.683L28.211 31.092l13.033-13.033a2.604 2.604 0 0 0 0-3.683z"/></svg>