<svg xmlns="http://www.w3.org/2000/svg" viewBox="0 0 94.95955657958984 94.86518859863281"><path d="M92.469 44.94h-7.58c-1.231-18.72-16.193-33.685-34.914-34.916v-7.58a2.494 2.494 0 0 0-4.987 0v7.58C26.266 11.255 11.305 26.22 10.074 44.94h-7.58a2.494 2.494 0 0 0 0 4.988h7.579c1.229 18.722 16.191 33.684 34.915 34.914v7.58a2.494 2.494 0 0 0 4.987 0v-7.58c18.723-1.23 33.685-16.193 34.915-34.914h7.579a2.494 2.494 0 0 0 0-4.988zM44.987 74.875c-13.212-1.19-23.759-11.739-24.949-24.949h4.99c1.152 10.484 9.475 18.807 19.959 19.96v4.99zm0-49.896c-10.484 1.152-18.807 9.475-19.959 19.96h-4.99C21.23 31.73 31.776 21.181 44.986 19.99v4.99zm4.988-4.989c13.21 1.191 23.756 11.74 24.948 24.948h-4.989c-1.152-10.485-9.475-18.808-19.959-19.959v-4.989zm0 54.885v-4.989c10.484-1.152 18.807-9.475 19.959-19.959h4.989c-1.19 13.21-11.737 23.756-24.948 24.948z"/></svg>