<svg xmlns="http://www.w3.org/2000/svg" viewBox="0 0 71.88800048828125 69.98491668701172"><path d="M71.721 55.227c-.167-1.032-.814-1.914-1.783-2.438l-14.335-8.446-.118-.066a4.256 4.256 0 0 0-1.937-.45c-1.201 0-2.348.455-3.144 1.253l-4.231 4.233c-.181.172-.771.421-.95.43-.049-.004-4.923-.355-13.896-9.329-8.957-8.955-9.337-13.844-9.34-13.844.005-.25.251-.838.426-1.02l3.608-3.607c1.271-1.274 1.652-3.386.898-5.022L18.951 1.928C18.372.736 17.247 0 15.999 0c-.883 0-1.735.366-2.401 1.031l-9.835 9.813c-.943.938-1.755 2.578-1.932 3.898C1.745 15.373 0 30.435 20.65 51.088c17.531 17.529 31.201 18.891 34.976 18.891a10.7 10.7 0 0 0 1.376-.071c1.316-.176 2.954-.986 3.891-1.925l9.827-9.826c.802-.806 1.168-1.871 1.001-2.93z"/></svg>