<svg xmlns="http://www.w3.org/2000/svg" viewBox="0 0 64.95301818847656 77.00100708007812"><path d="M2.253 25.976c.662.48 1.511.607 2.336.365l12.607-3.262.104-.023a3.29 3.29 0 0 0 1.321-.83c.665-.661 1.049-1.548 1.047-2.434l-.001-4.684c.006-.193.195-.658.287-.763.028-.022 2.92-2.528 12.854-2.528 9.913-.002 12.832 2.496 12.834 2.494.134.141.323.604.328.799l-.001 3.994c.002 1.409.962 2.787 2.281 3.273l12.709 3.893c.981.34 2.012.124 2.704-.57.489-.486.755-1.156.755-1.893l.014-10.879c.004-1.041-.455-2.398-1.088-3.228-.302-.397-7.673-9.699-30.535-9.7C13.404.001 5.085 6.815 2.994 8.906c-.449.449-.68.74-.723.796-.63.827-1.089 2.183-1.088 3.22v10.883c.002.889.391 1.68 1.07 2.171zm4.582 21.101v2.543c0 1.168.95 2.12 2.121 2.12h6.836a2.12 2.12 0 0 0 2.117-2.12v-2.543a2.122 2.122 0 0 0-2.117-2.123H8.956c-1.17 0-2.121.955-2.121 2.123zM31.38 49.62v-2.543c0-1.168-.95-2.123-2.119-2.123h-6.838c-1.17 0-2.117.955-2.117 2.123v2.543a2.12 2.12 0 0 0 2.117 2.12h6.838c1.17 0 2.119-.952 2.119-2.12zm13.471 0v-2.543c0-1.168-.95-2.123-2.121-2.123h-6.836a2.125 2.125 0 0 0-2.121 2.123v2.543c0 1.168.949 2.12 2.121 2.12h6.836a2.123 2.123 0 0 0 2.121-2.12zm13.471 0v-2.543c0-1.168-.95-2.123-2.122-2.123h-6.836a2.126 2.126 0 0 0-2.122 2.123v2.543c0 1.168.95 2.12 2.122 2.12H56.2a2.123 2.123 0 0 0 2.122-2.12zM2.117 39.11h6.84a2.123 2.123 0 0 0 2.117-2.121v-2.543c0-1.166-.95-2.121-2.117-2.121h-6.84A2.124 2.124 0 0 0 0 34.446v2.543a2.122 2.122 0 0 0 2.117 2.121zm20.306 0a2.123 2.123 0 0 0 2.121-2.121v-2.543c0-1.166-.95-2.121-2.121-2.121h-6.836a2.121 2.121 0 0 0-2.117 2.121v2.543a2.12 2.12 0 0 0 2.117 2.121h6.836zm13.471 0a2.124 2.124 0 0 0 2.122-2.121v-2.543c0-1.166-.95-2.121-2.122-2.121h-6.836a2.125 2.125 0 0 0-2.122 2.121v2.543c0 1.168.95 2.121 2.122 2.121h6.836zm13.471-6.785H42.53a2.125 2.125 0 0 0-2.122 2.121v2.543c0 1.168.95 2.121 2.122 2.121h6.835a2.12 2.12 0 0 0 2.117-2.121v-2.543a2.121 2.121 0 0 0-2.117-2.121zm13.471 0h-6.84a2.124 2.124 0 0 0-2.117 2.121v2.543c0 1.168.95 2.121 2.117 2.121h6.84a2.123 2.123 0 0 0 2.117-2.121v-2.543a2.125 2.125 0 0 0-2.117-2.121zM11.074 62.249v-2.542c0-1.167-.95-2.12-2.117-2.12h-6.84A2.122 2.122 0 0 0 0 59.707v2.542c0 1.17.951 2.123 2.117 2.123h6.84a2.123 2.123 0 0 0 2.117-2.123zm4.513 2.123h6.836a2.124 2.124 0 0 0 2.121-2.123v-2.542c0-1.167-.95-2.12-2.121-2.12h-6.836a2.12 2.12 0 0 0-2.117 2.12v2.542a2.12 2.12 0 0 0 2.117 2.123zm13.472 0h6.836a2.125 2.125 0 0 0 2.122-2.123v-2.542c0-1.167-.95-2.12-2.122-2.12h-6.836a2.123 2.123 0 0 0-2.122 2.12v2.542c0 1.17.95 2.123 2.122 2.123zm13.47 0h6.835a2.12 2.12 0 0 0 2.117-2.123v-2.542a2.12 2.12 0 0 0-2.117-2.12h-6.835a2.123 2.123 0 0 0-2.122 2.12v2.542a2.125 2.125 0 0 0 2.122 2.123zm20.307-6.785h-6.84a2.122 2.122 0 0 0-2.117 2.12v2.542c0 1.17.95 2.123 2.117 2.123h6.84a2.123 2.123 0 0 0 2.117-2.123v-2.542c0-1.167-.951-2.12-2.117-2.12zm-7.933 12.629H9.447a2.124 2.124 0 0 0-2.117 2.121v2.543a2.12 2.12 0 0 0 2.117 2.121h45.456a2.12 2.12 0 0 0 2.118-2.121v-2.543c0-1.166-.95-2.121-2.118-2.121z"/></svg>