<svg xmlns="http://www.w3.org/2000/svg" viewBox="0 0 74.00077819824219 69.50800323486328"><path d="M71 63.508c-.035 0-.068.009-.104.01v-.01h-68v.01C1.288 63.574 0 64.887 0 66.508s1.288 2.934 2.897 2.99v.01h68v-.01c.035.001.068.01.104.01a3 3 0 1 0-.001-6zm-58.629-6.9h5.679a2.596 2.596 0 0 0 2.45-1.754l3.493-9.195h25.97l3.605 9.492.021-.004a2.59 2.59 0 0 0 2.095 1.437v.024h5.679v-.024c.078.007.153.024.233.024a2.604 2.604 0 0 0 2.604-2.604c0-.266-.051-.517-.125-.759l.012-.002-.061-.156c-.019-.051-.037-.101-.059-.15L43.876 1.79h-.018A2.596 2.596 0 0 0 41.396 0h-8.812a2.596 2.596 0 0 0-2.476 1.836l-20.194 51.3.012.002c-.096.272-.159.56-.159.865a2.605 2.605 0 0 0 2.604 2.605zM36.978 9.93l10.185 26.989h-20.37L36.978 9.93z"/></svg>