<svg xmlns="http://www.w3.org/2000/svg" viewBox="0 0 100.34397888183594 100.3442153930664"><path d="M99.655 33.813c-.029-.029-.063-.05-.094-.077L87.33 21.498a6.12 6.12 0 0 1-7.722-.763 6.12 6.12 0 0 1-.761-7.725L66.53.687a1.766 1.766 0 0 0-2.494 0L.692 64.033l-.003.003a1.763 1.763 0 0 0 0 2.494l.001.001 12.325 12.313a6.12 6.12 0 0 1 8.489 8.481L33.67 99.48c.046.06.089.122.144.176a1.762 1.762 0 0 0 2.493 0l.001.001 63.347-63.349a1.763 1.763 0 0 0 0-2.494zM85.69 36.306L36.308 85.69a1.762 1.762 0 0 1-2.493 0L14.656 66.53a1.762 1.762 0 0 1 0-2.493l49.381-49.382a1.764 1.764 0 0 1 2.493 0l19.16 19.161a1.76 1.76 0 0 1 0 2.491z"/><path d="M62.095 51.692l-6.821-3.259.83-7.134a.513.513 0 0 0-.871-.42l-5.097 5.097-6.653-3.178a.512.512 0 0 0-.683.681l3.179 6.655-5.098 5.096a.515.515 0 0 0-.099.586.513.513 0 0 0 .52.284l7.132-.829 3.26 6.822a.514.514 0 0 0 .959-.098l1.87-7.476 7.478-1.87a.52.52 0 0 0 .386-.447.514.514 0 0 0-.292-.51z"/></svg>