<svg xmlns="http://www.w3.org/2000/svg" viewBox="0 0 64.92000579833984 73.0469970703125"><path d="M62.62 46.965l-15.66-7.47-6.622-3.159c.166-.105.324-.224.487-.335h8.695a2.438 2.438 0 0 0 2.438-2.438v-6.415h-.022c-.266-8.94-3.371-16.805-8.034-21.737-2.459-2.773-5.646-4.657-9.211-5.22-.159-.026-.318-.05-.478-.071-.184-.023-.367-.046-.553-.061A13.701 13.701 0 0 0 32.458 0h-.002c-.398 0-.791.023-1.183.057-.188.016-.374.039-.56.062-.156.02-.311.042-.465.068-3.536.553-6.701 2.408-9.153 5.141-4.708 4.927-7.847 12.829-8.115 21.821h-.021v6.415a2.438 2.438 0 0 0 2.438 2.438h8.719c.238.162.475.327.721.475l-6.342 2.953-16.168 7.53C.922 47.618 0 49.202 0 50.971v17.765c0 2.381 1.659 4.311 3.708 4.311h57.504c2.049 0 3.708-1.93 3.708-4.311V50.969c-.001-1.763-.909-3.332-2.3-4.004z"/></svg>