<svg xmlns="http://www.w3.org/2000/svg" viewBox="0 0 60.999996185302734 63.090545654296875"><path d="M58 57.09c-.036 0-.068.01-.103.01v-.01h-55v.01C1.289 57.158 0 58.47 0 60.09s1.288 2.935 2.897 2.99v.01h55v-.01c.035.002.068.01.103.01a3 3 0 0 0 0-6zm-27.5-3.424c15.829 0 23.581-9.057 23.581-22.521V2.929A2.928 2.928 0 0 0 51.152 0h-3.864a2.928 2.928 0 0 0-2.929 2.928c0 .04.01.076.012.116V30.9c0 8.649-4.814 14.28-13.871 14.28S16.629 39.55 16.629 30.9V3.036c.001-.036.011-.071.011-.107A2.928 2.928 0 0 0 13.712 0H9.847a2.929 2.929 0 0 0-2.929 2.928v28.216c0 13.464 7.834 22.52 23.582 22.52z"/></svg>