<svg xmlns="http://www.w3.org/2000/svg" viewBox="0 0 69.4520034790039 76.0510025024414"><path d="M66.83 33.612H25.961V22.97c0-5.207 4.372-9.437 9.747-9.437 5.372 0 9.744 4.23 9.746 9.437 0 1.051.881 1.904 1.966 1.904h10.086c1.087 0 1.965-.853 1.965-1.904a1.8 1.8 0 0 0-.056-.457C59.162 10.057 48.625 0 35.708 0c-13.074 0-23.71 10.305-23.71 22.97v10.642H2.621C1.172 33.612 0 34.747 0 36.151v37.361c0 1.403 1.172 2.539 2.621 2.539h64.21c1.449 0 2.621-1.136 2.621-2.539V36.15c-.001-1.403-1.173-2.538-2.622-2.538z"/></svg>