<svg xmlns="http://www.w3.org/2000/svg" viewBox="0 0 92.35926818847656 70.50499725341797"><path d="M75.612 22.083C72.102 9.101 61.148 0 48.478 0c-8.835 0-17.065 4.454-22.414 12.018a20.172 20.172 0 0 0-4.501-.514C9.675 11.503 0 22.042 0 35.001c0 4.647 1.251 9.148 3.612 13.018.555.906 1.49 1.449 2.49 1.449h19.923c.143-9.265 7.688-16.734 16.987-16.734s16.843 7.469 16.987 16.734h26.945c.947 0 1.836-.485 2.403-1.315a17.25 17.25 0 0 0 3.004-9.768c-.001-9.656-7.816-17.471-16.739-16.302z"/><path d="M53.52 55.582l-9.918-13.861a.963.963 0 0 0-.779-.4h-.002c-.31 0-.598.15-.779.404l-9.854 13.857a.963.963 0 0 0-.069.996c.164.32.494.518.853.518h4.634v12.449c0 .532.43.96.958.96h8.58c.53 0 .958-.428.958-.96V57.096h4.638a.959.959 0 0 0 .78-1.514z"/></svg>