<svg xmlns="http://www.w3.org/2000/svg" viewBox="0 0 89.65101623535156 71.54414367675781"><path d="M71.41 2.822c-.026-.026-.056-.042-.082-.067l.008-.008L69.412.824l-.022.022a2.696 2.696 0 0 0-3.553.16l-.004-.003-3.419 3.418.023.023a2.693 2.693 0 0 0 .01 3.345l-.022.022.216.216 1.707 1.708.031-.031c.025.026.042.057.067.083 14.358 14.358 14.401 37.688.138 52.104l-.019-.02-1.707 1.708-.216.216.022.022a2.698 2.698 0 0 0 .16 3.553l-.004.004 3.42 3.42.023-.023a2.693 2.693 0 0 0 3.345-.011l.022.022.216-.216 1.707-1.707-.004-.004C89.651 50.598 89.607 21.02 71.41 2.822z"/><path d="M61.922 15.999c-.026-.026-.056-.042-.082-.067l.008-.008L59.923 14l-.022.022a2.7 2.7 0 0 0-3.554.16l-.004-.004-.035.035-.003.002-.002.003-3.149 3.148-.003.002-.002.003-.225.225.023.023a2.691 2.691 0 0 0 .011 3.344l-.022.022 1.923 1.924.031-.031c.025.026.042.057.067.083 7.091 7.09 7.132 18.594.135 25.746l-.014-.014-1.707 1.707h-.002l-.215.215.022.022a2.698 2.698 0 0 0 .16 3.554l-.004.004 3.42 3.42.023-.023a2.691 2.691 0 0 0 3.344-.011l.022.022 1.923-1.923-.004-.004c10.838-10.99 10.794-28.745-.138-39.678zM45.297 9.604a2.04 2.04 0 0 0-1.031.285l-.018-.032-20.464 11.815v.012l-7.74 4.469H1.562v.04c-.012 0-.024-.004-.037-.004-.842 0-1.525.684-1.525 1.525v20.66c0 .842.683 1.524 1.525 1.524.013 0 .024-.003.037-.004v.04h14.482l11.524 6.654v-.031l16.548 9.555a2.071 2.071 0 0 0 3.252-1.698c0-.081-.015-.155-.024-.233h.024V11.44h-.024a2.064 2.064 0 0 0-2.047-1.837z"/></svg>