<svg xmlns="http://www.w3.org/2000/svg" viewBox="0 0 75 75"><path d="M37.5 0C16.788 0 0 16.793 0 37.502 0 58.212 16.788 75 37.5 75S75 58.212 75 37.502C75 16.793 58.212 0 37.5 0zM10.397 42.469h5.752a37.328 37.328 0 0 0 8.826 19.569c-7.501-3.844-13.015-11.022-14.578-19.569zm5.752-9.939h-5.752c1.564-8.546 7.078-15.724 14.579-19.568a37.33 37.33 0 0 0-8.827 19.568zM32.53 55.559a27.468 27.468 0 0 1-6.313-13.089h6.313v13.089zm0-23.029h-6.313a27.474 27.474 0 0 1 6.313-13.088V32.53zm32.072 0h-5.751a37.328 37.328 0 0 0-8.825-19.567c7.499 3.845 13.013 11.023 14.576 19.567zM42.47 55.557V42.469h6.313a27.487 27.487 0 0 1-6.313 13.088zm0-23.027V19.441a27.468 27.468 0 0 1 6.313 13.089H42.47zm7.553 29.509a37.33 37.33 0 0 0 8.828-19.57h5.752c-1.563 8.548-7.078 15.726-14.58 19.57z"/></svg>