<svg xmlns="http://www.w3.org/2000/svg" viewBox="0 0 80.99958801269531 80.99922180175781"><path d="M79.053 33.941l-10.276-1.013a29.016 29.016 0 0 0-2.936-7.059l6.561-7.993a2.158 2.158 0 0 0-.145-2.893l-6.24-6.243a2.153 2.153 0 0 0-2.894-.142L55.13 15.16a29.042 29.042 0 0 0-7.06-2.936L47.06 1.946A2.158 2.158 0 0 0 44.911 0H36.09a2.16 2.16 0 0 0-2.148 1.946l-1.01 10.281a28.903 28.903 0 0 0-7.055 2.936l-7.998-6.564c-.4-.329-.884-.49-1.369-.49-.555 0-1.105.212-1.525.633l-6.24 6.241a2.158 2.158 0 0 0-.145 2.893l6.566 7.996a28.914 28.914 0 0 0-2.936 7.057L1.95 33.942A2.154 2.154 0 0 0 0 36.087v8.825c0 1.11.843 2.04 1.947 2.146l10.281 1.013a28.87 28.87 0 0 0 2.936 7.054l-6.562 7.994a2.15 2.15 0 0 0 .14 2.895l6.24 6.242a2.155 2.155 0 0 0 2.894.142l7.993-6.562a29.029 29.029 0 0 0 7.06 2.938l1.011 10.279a2.158 2.158 0 0 0 2.148 1.946h8.823c1.11 0 2.04-.842 2.148-1.946l1.011-10.278a28.853 28.853 0 0 0 7.06-2.939l7.993 6.562a2.156 2.156 0 0 0 2.894-.142l6.24-6.242a2.15 2.15 0 0 0 .14-2.895l-6.557-7.991a29.019 29.019 0 0 0 2.936-7.057l10.276-1.013A2.157 2.157 0 0 0 81 44.912v-8.825a2.156 2.156 0 0 0-1.946-2.146zM40.503 52.45c-6.604 0-11.954-5.351-11.954-11.95 0-6.602 5.351-11.951 11.953-11.951 6.598 0 11.948 5.349 11.948 11.951.001 6.599-5.35 11.95-11.948 11.95z"/></svg>