<svg xmlns="http://www.w3.org/2000/svg" viewBox="0 0 78.39800262451172 78.39700317382812"><path d="M75.456 12.603l-3.866 3.866-3.737 3.737-4.759 4.759a9.08 9.08 0 0 1-9.663-9.663l4.759-4.759 3.737-3.737 3.866-3.866a.645.645 0 0 0 0-.911c-.046-.046-.101-.074-.155-.103l.001-.001-.01-.004a.649.649 0 0 0-.102-.043A21.424 21.424 0 0 0 56.778 0C44.839 0 35.16 9.679 35.16 21.618c0 2.28.358 4.475 1.012 6.538L13.627 50.702C6.082 50.824 0 56.969 0 64.544c0 7.65 6.203 13.853 13.853 13.853 7.574 0 13.72-6.083 13.842-13.628l22.546-22.546a21.602 21.602 0 0 0 6.539 1.012c11.939 0 21.618-9.679 21.618-21.618 0-3.118-.686-6.066-1.877-8.742a.605.605 0 0 0-.05-.118l-.022-.052-.007.007c-.024-.037-.041-.078-.074-.111a.646.646 0 0 0-.912.002zM19.577 64.544a5.724 5.724 0 1 1-11.449 0 5.724 5.724 0 0 1 11.449 0z"/></svg>