<svg xmlns="http://www.w3.org/2000/svg" viewBox="0 0 75 75"><path d="M55.556 47.256l-9.758-9.757 9.755-9.756a1.036 1.036 0 0 0 0-1.464l-6.833-6.835a1.036 1.036 0 0 0-1.464 0L37.499 29.2l-9.755-9.756c-.388-.388-1.075-.388-1.464 0l-6.835 6.835a1.037 1.037 0 0 0 0 1.464l9.756 9.756-9.758 9.758a1.036 1.036 0 0 0 0 1.463l6.833 6.834a1.033 1.033 0 0 0 1.464 0l9.757-9.757 9.758 9.756c.202.203.466.304.732.304.266 0 .53-.101.732-.304l6.835-6.834a1.033 1.033 0 0 0 .002-1.463z"/><path d="M37.5 9.94c15.196 0 27.56 12.367 27.56 27.562 0 15.197-12.364 27.559-27.56 27.559S9.94 52.699 9.94 37.502C9.94 22.307 22.304 9.94 37.5 9.94m0-9.94C16.79 0 0 16.793 0 37.502 0 58.212 16.79 75 37.5 75 58.209 75 75 58.212 75 37.502 75 16.793 58.209 0 37.5 0z"/></svg>