<svg xmlns="http://www.w3.org/2000/svg" viewBox="0 0 77.54800415039062 79.21900177001953"><path d="M45.548 0c-17.679 0-32 14.329-32 32a31.845 31.845 0 0 0 4.588 16.517L2.62 64.032l.054.054C1.018 65.671.001 67.921.001 70.464 0 75.377 3.914 79.219 8.822 79.218c2.507-.001 4.749-1.004 6.349-2.636l.039.039 16.008-16.009A31.865 31.865 0 0 0 45.548 64c17.68 0 32-14.327 32-32-.001-17.671-14.321-32-32-32zm.194 51.417c-11.05 0-20-8.954-20-20 0-11.044 8.951-20 20-20 11.05 0 20 8.955 20 20 0 11.046-8.95 20-20 20z"/><path d="M57.525 26.72v-.03l-7.076.008-.009-7.058a1.57 1.57 0 0 0-1.569-1.57c-.033 0-.064.008-.097.01H42.69c-.033-.002-.064-.01-.097-.01-.867 0-1.569.702-1.569 1.57 0 .054.011.105.016.158l-.007 6.911-7.061.008c-.868 0-1.569.703-1.569 1.57v6.278c0 .867.702 1.569 1.569 1.569.054 0 .105-.011.158-.016l6.893.007-.009 7.034h.011l-.002.024c0 .868.703 1.569 1.569 1.569l.01-.001v.011h6.278v-.011a1.568 1.568 0 0 0 1.558-1.556h.03l-.009-7.059 7.028.007v-.011l.024.002c.868 0 1.569-.703 1.569-1.569v-6.278a1.564 1.564 0 0 0-1.555-1.567z"/></svg>