<svg viewBox="0 0 1195 1195" xmlns="http://www.w3.org/2000/svg"><path d="M85.333 447.552V339.84c0-45.952 38.208-83.136 85.312-83.136h107.392v-90.432c0-21.056 21.568-102.208 48.192-102.208h96.384c26.624 0 48.192 81.152 48.192 102.208v90.432h319.232v-90.432c0-21.056 21.632-102.208 48.192-102.208h96.384c26.624 0 48.192 81.152 48.192 102.208v90.432h41.28c47.168 0 85.376 37.184 85.376 83.136v107.776H85.333zm1024.064 65.088v492.224c0 45.952-38.208 83.2-85.376 83.2H170.645c-47.104 0-85.312-37.248-85.312-83.2V512.64h1024.064z"/></svg>