<svg viewBox="0 0 1195 1195" xmlns="http://www.w3.org/2000/svg"><path d="M853.333 64h-512c-143.36 0-256 112.64-256 256v512c0 143.36 112.64 256 256 256h512c143.36 0 256-112.64 256-256V320c0-143.36-112.64-256-256-256zm76.8 409.6l-368.64 368.64c-5.12 5.12-20.48 5.12-25.6 0l-56.32-56.32-25.6-25.6-128-133.12c-5.12-5.12-5.12-10.24-5.12-15.36s0-10.24 5.12-15.36l56.32-51.2c5.12 0 10.24-5.12 10.24-5.12 5.12 0 10.24 0 15.36 5.12l122.88 128c5.12 5.12 20.48 5.12 25.6 0l286.72-286.72c5.12-5.12 20.48-5.12 25.6 0l56.32 56.32c10.24 10.24 10.24 20.48 5.12 30.72z"/></svg>