<svg viewBox="0 0 1195 1195" xmlns="http://www.w3.org/2000/svg"><path d="M885.333 512h-96v128h96c123.712 0 224 100.288 224 224s-100.288 224-224 224-224-100.224-224-224v-96h-128v96c0 123.776-100.288 224-224 224s-224-100.224-224-224 100.288-224 224-224h96V512h-96c-123.712 0-224-100.224-224-224 0-123.712 100.288-224 224-224s224 100.288 224 224v96h128v-64-32c0-123.712 100.288-224 224-224s224 100.288 224 224c0 123.776-100.288 224-224 224zm-480-224c0-52.992-43.008-96-96-96s-96 43.008-96 96c0 53.056 43.008 96 96 96h96v-96zm0 544v-64h-96c-52.992 0-96 43.008-96 96s43.008 96 96 96 96-43.008 96-96v-32zm384 32c0 52.992 43.008 96 96 96s96-43.008 96-96-43.008-96-96-96h-96v96zm-128-352h-128v128h128V512zm224-320c-52.992 0-96 43.008-96 96v96h96c52.992 0 96-42.944 96-96 0-52.992-43.008-96-96-96z"/></svg>