<svg viewBox="0 0 1195 1195" xmlns="http://www.w3.org/2000/svg"><path d="M959.381 213.952c-199.936-200-524.096-199.936-724.096 0C35.35 413.824 35.35 738.048 235.35 937.984c199.936 199.936 524.096 199.936 724.032.064 200-199.936 200-524.16 0-724.096zM832.533 714.944c27.52 27.52 28.224 71.296 1.728 97.856-26.56 26.56-70.4 25.728-97.792-1.728L597.397 672.064 457.813 811.648c-27.52 27.456-71.296 28.224-97.792 1.728-26.56-26.56-25.728-70.4 1.664-97.856l139.648-139.584-139.648-139.648c-27.456-27.392-28.224-71.168-1.664-97.728 26.496-26.56 70.336-25.792 97.792 1.664l139.584 139.584L736.47 340.736c27.456-27.456 71.232-28.224 97.792-1.664 26.496 26.56 25.728 70.336-1.728 97.792L693.525 575.936l139.008 139.008z"/></svg>