<svg viewBox="0 0 1195 1195" xmlns="http://www.w3.org/2000/svg"><path d="M85.333 960V768h128v192.128h640V192h-640v192h-128V192c0-70.656 57.344-128 128-128h640c70.72 0 128 57.344 128 128v768c0 70.72-57.28 128-128 128h-640c-70.656 0-128-57.28-128-128zm264.768-624c23.232-22.272 60.864-22.272 84.096 0l209.408 196.8c6.528 6.208 10.496 13.568 13.504 21.184.064.128.064.192.128.32a54.592 54.592 0 0 1 3.648 17.984c.256 2.24.448 4.416.256 6.72-.128 2.688-1.024 5.248-1.664 7.936-2.176 11.264-6.656 22.208-15.872 30.976l-209.408 196.8c-23.232 22.272-60.864 22.272-84.096 0-23.168-22.272-23.168-58.24 0-80.512L469.333 640h-320c-34.112 0-64-32.064-64-64.64 0-32.512 29.888-63.36 64-63.36h320l-119.232-95.552c-23.232-22.144-23.232-58.304 0-80.448z"/></svg>