<svg viewBox="0 0 1195 1195" xmlns="http://www.w3.org/2000/svg"><path d="M981.333 960.128h-768v-768h320v-128l-358.976-.064c-49.152 0-89.024 39.936-89.024 89.088v845.952c0 49.152 39.872 89.024 89.024 89.024h845.952c49.152 0 89.024-39.872 89.024-89.024V640.128h-128v320zm128-832.128c0-14.656-6.08-27.52-14.72-38.272-1.344-1.728-2.048-3.712-3.584-5.312-.192-.128-.256-.384-.384-.576-.384-.32-.448-.832-.832-1.216-4.096-4.096-9.152-6.528-13.952-9.28-2.112-1.216-3.84-3.008-6.08-3.968-8.704-3.776-17.92-5.376-27.264-5.12-.128 0-.256-.064-.384-.064H729.11c-36.992-.064-67.008 28.544-67.008 63.808 0 35.2 30.08 63.808 67.136 63.808h161.216l-402.56 403.328c-24.832 24.768-24.832 64.768 0 89.472 24.832 24.768 65.024 24.768 89.792 0l403.968-403.52v163.2c0 37.056 28.608 67.072 63.872 67.072s63.808-30.016 63.808-67.072V131.264c0-.64-.32-1.152-.32-1.728 0-.512.32-1.024.32-1.536z"/></svg>