<svg viewBox="0 0 1195 1195" xmlns="http://www.w3.org/2000/svg"><path d="M1070.933 659.2l-390.4 390.4c-44.8 44.8-121.6 44.8-166.4 0l-396.8-390.4c-44.8-44.8-44.8-121.6 0-166.4l390.4-390.4c51.2-51.2 128-51.2 172.8-6.4l179.2 179.2-262.4 268.8-102.4-102.4c-32-32-83.2-32-108.8 0l-83.2 83.2c-32 32-32 76.8 0 108.8l236.8 236.8c25.6 25.6 57.6 25.6 83.2 19.2 12.8-6.4 19.2-6.4 25.6-19.2l396.8-403.2 19.2 19.2c57.6 51.2 57.6 128 6.4 172.8zM635.733 800c-12.8 12.8-44.8 12.8-44.8 12.8s-32 0-38.4-12.8l-179.2-185.6c-12.8-12.8-12.8-38.4 0-57.6l51.2-51.2c12.8-12.8 44.8-12.8 57.6 0l115.2 121.6 352-352c12.8-12.8 44.8-12.8 57.6 0l51.2 51.2c12.8 12.8 12.8 44.8 0 57.6l-422.4 416z"/></svg>