<svg viewBox="0 0 1195 1195" xmlns="http://www.w3.org/2000/svg"><path d="M1013.333 64h-832c-51.2 0-96 44.8-96 96v825.6c0 57.6 44.8 102.4 96 102.4h825.6c57.6 0 96-44.8 96-96V160c6.4-51.2-38.4-96-89.6-96zm-416 313.6c108.8 0 198.4 89.6 198.4 198.4s-89.6 198.4-198.4 198.4-198.4-89.6-198.4-198.4 89.6-198.4 198.4-198.4zm384 544c0 19.2-19.2 38.4-38.4 38.4h-691.2c-19.2 0-38.4-19.2-38.4-38.4V512h89.6c-6.4 25.6-6.4 51.2-6.4 76.8 0 166.4 128 307.2 300.8 307.2s300.8-140.8 300.8-307.2c0-25.6-6.4-51.2-12.8-76.8h96v409.6zm0-576c0 19.2-19.2 38.4-38.4 38.4h-115.2c-19.2 0-38.4-19.2-38.4-38.4V230.4c0-19.2 19.2-38.4 38.4-38.4h115.2c19.2 0 38.4 19.2 38.4 38.4v115.2z"/></svg>