<svg viewBox="0 0 1195 1195" xmlns="http://www.w3.org/2000/svg"><path d="M501.333 64h-384c-19.2 0-32 12.8-32 32v384c0 19.2 12.8 32 32 32h384c19.2 0 32-12.8 32-32V96c0-19.2-12.8-32-32-32zm576 0h-384c-19.2 0-32 12.8-32 32v384c0 19.2 12.8 32 32 32h384c19.2 0 32-12.8 32-32V96c0-19.2-12.8-32-32-32zm-576 576h-384c-19.2 0-32 12.8-32 32v384c0 19.2 12.8 32 32 32h384c19.2 0 32-12.8 32-32V672c0-19.2-12.8-32-32-32zm576 0h-384c-19.2 0-32 12.8-32 32v384c0 19.2 12.8 32 32 32h384c19.2 0 32-12.8 32-32V672c0-19.2-12.8-32-32-32z"/></svg>