<svg viewBox="0 0 1195 1195" xmlns="http://www.w3.org/2000/svg"><path d="M1077.333 192h-640c-19.2 0-32 12.8-32 32v64c0 19.2 12.8 32 32 32h640c19.2 0 32-12.8 32-32v-64c0-19.2-12.8-32-32-32zm0 320h-640c-19.2 0-32 12.8-32 32v64c0 19.2 12.8 32 32 32h640c19.2 0 32-12.8 32-32v-64c0-19.2-12.8-32-32-32zm0 320h-640c-19.2 0-32 12.8-32 32v64c0 19.2 12.8 32 32 32h640c19.2 0 32-12.8 32-32v-64c0-19.2-12.8-32-32-32zm-736-576c0 70.692-57.308 128-128 128-70.692 0-128-57.308-128-128 0-70.692 57.308-128 128-128 70.692 0 128 57.308 128 128zm0 320c0 70.692-57.308 128-128 128-70.692 0-128-57.308-128-128 0-70.692 57.308-128 128-128 70.692 0 128 57.308 128 128zm0 320c0 70.692-57.308 128-128 128-70.692 0-128-57.308-128-128 0-70.692 57.308-128 128-128 70.692 0 128 57.308 128 128z"/></svg>