<svg viewBox="0 0 1195 1195" xmlns="http://www.w3.org/2000/svg"><path d="M373.333 128h-192c-19.2 0-32 12.8-32 32v192c0 19.2 12.8 32 32 32h192c19.2 0 32-12.8 32-32V160c0-19.2-12.8-32-32-32zm0 320h-192c-19.2 0-32 12.8-32 32v192c0 19.2 12.8 32 32 32h192c19.2 0 32-12.8 32-32V480c0-19.2-12.8-32-32-32zm320-320h-192c-19.2 0-32 12.8-32 32v192c0 19.2 12.8 32 32 32h192c19.2 0 32-12.8 32-32V160c0-19.2-12.8-32-32-32zm0 320h-192c-19.2 0-32 12.8-32 32v192c0 19.2 12.8 32 32 32h192c19.2 0 32-12.8 32-32V480c0-19.2-12.8-32-32-32zm320-320h-192c-19.2 0-32 12.8-32 32v192c0 19.2 12.8 32 32 32h192c19.2 0 32-12.8 32-32V160c0-19.2-12.8-32-32-32zm0 320h-192c-19.2 0-32 12.8-32 32v192c0 19.2 12.8 32 32 32h192c19.2 0 32-12.8 32-32V480c0-19.2-12.8-32-32-32zm-640 320h-192c-19.2 0-32 12.8-32 32v192c0 19.2 12.8 32 32 32h192c19.2 0 32-12.8 32-32V800c0-19.2-12.8-32-32-32zm320 0h-192c-19.2 0-32 12.8-32 32v192c0 19.2 12.8 32 32 32h192c19.2 0 32-12.8 32-32V800c0-19.2-12.8-32-32-32zm320 0h-192c-19.2 0-32 12.8-32 32v192c0 19.2 12.8 32 32 32h192c19.2 0 32-12.8 32-32V800c0-19.2-12.8-32-32-32z"/></svg>