<svg viewBox="0 0 1195 1195" xmlns="http://www.w3.org/2000/svg"><path d="M437.333 128h-320c-19.2 0-32 12.8-32 32v320c0 19.2 12.8 32 32 32h320c19.2 0 32-12.8 32-32V160c0-19.2-12.8-32-32-32zm0 512h-320c-19.2 0-32 12.8-32 32v320c0 19.2 12.8 32 32 32h320c19.2 0 32-12.8 32-32V672c0-19.2-12.8-32-32-32zm640-512h-448c-19.2 0-32 12.8-32 32v64c0 19.2 12.8 32 32 32h448c19.2 0 32-12.8 32-32v-64c0-19.2-12.8-32-32-32zm0 256h-448c-19.2 0-32 12.8-32 32v64c0 19.2 12.8 32 32 32h448c19.2 0 32-12.8 32-32v-64c0-19.2-12.8-32-32-32zm0 256h-448c-19.2 0-32 12.8-32 32v64c0 19.2 12.8 32 32 32h448c19.2 0 32-12.8 32-32v-64c0-19.2-12.8-32-32-32zm0 256h-448c-19.2 0-32 12.8-32 32v64c0 19.2 12.8 32 32 32h448c19.2 0 32-12.8 32-32v-64c0-19.2-12.8-32-32-32z"/></svg>