<svg viewBox="0 0 1195 1195" xmlns="http://www.w3.org/2000/svg"><path d="M1077.333 128h-960c-19.2 0-32 12.8-32 32v64c0 19.2 12.8 32 32 32h960c19.2 0 32-12.8 32-32v-64c0-19.2-12.8-32-32-32zm0 256h-960c-19.2 0-32 12.8-32 32v64c0 19.2 12.8 32 32 32h960c19.2 0 32-12.8 32-32v-64c0-19.2-12.8-32-32-32zm0 256h-960c-19.2 0-32 12.8-32 32v64c0 19.2 12.8 32 32 32h960c19.2 0 32-12.8 32-32v-64c0-19.2-12.8-32-32-32zm0 256h-960c-19.2 0-32 12.8-32 32v64c0 19.2 12.8 32 32 32h960c19.2 0 32-12.8 32-32v-64c0-19.2-12.8-32-32-32z"/></svg>