<svg viewBox="0 0 1195 1195" xmlns="http://www.w3.org/2000/svg"><path d="M887.317 617.6c-28.672-17.664-65.408-7.232-81.92 23.36-.576 1.024-.576 2.24-1.152 3.264l-1.472-.96C760.79 717.696 685.077 768 597.59 768s-163.136-50.304-205.184-124.736l-1.408.832c-.704-1.6-.704-3.456-1.6-5.12-16.576-30.528-53.312-41.024-82.048-23.36s-38.528 56.832-21.952 87.36c1.28 2.24 3.264 3.648 4.672 5.696l-1.088.704c53.12 94.208 143.104 161.6 248.576 180.608V960H417.493c-33.152 0-60.032 28.672-60.032 64 0 35.392 26.88 64 60.032 64h360.128c33.216 0 60.032-28.608 60.032-64 0-35.328-26.816-64-60.032-64h-120v-69.952c105.472-19.008 195.456-86.528 248.576-180.672l-.384-.256c1.088-1.472 2.624-2.432 3.456-4.096 16.64-30.656 6.784-69.76-21.952-87.424zM597.59 704c99.456 0 180.032-85.952 180.032-192V256c0-106.048-80.64-192-180.032-192-99.456 0-180.096 85.952-180.096 192v256c0 106.048 80.64 192 180.096 192z"/></svg>