<svg viewBox="0 0 1195 1195" xmlns="http://www.w3.org/2000/svg"><path d="M341.333 108.8c-134.4 51.2-224 147.2-249.6 288-12.8 83.2-6.4 172.8 32 249.6 6.4 19.2 19.2 32 32 51.2l19.2 19.2c12.8-6.4 25.6-6.4 32-12.8 44.8-25.6 76.8-64 115.2-96-128-153.6 6.4-332.8 172.8-377.6 160-38.4 371.2 25.6 416 192 19.2 64 6.4 140.8-44.8 192-25.6 25.6-64 44.8-102.4 51.2-25.6 6.4-44.8 6.4-70.4 0-12.8-6.4-25.6-6.4-38.4-6.4-19.2-6.4-38.4-6.4-38.4-25.6V364.8c0-19.2 0-12.8-12.8-19.2-12.8 0-25.6 0-38.4-6.4-38.4 0-83.2 0-121.6 6.4-12.8 0-19.2 0-19.2 19.2v140.8l6.4 294.4c0 32 0 102.4-32 115.2-38.4 19.2-70.4-19.2-108.8-25.6 6.4 51.2-25.6 147.2 32 172.8 51.2 25.6 115.2 32 172.8 12.8 115.2-38.4 153.6-172.8 140.8-275.2 179.2 51.2 377.6-38.4 454.4-198.4 57.6-115.2 32-262.4-51.2-358.4-166.4-185.6-480-224-697.6-134.4z"/></svg>