<svg viewBox="0 0 1195 1195" xmlns="http://www.w3.org/2000/svg"><path d="M264.533 966.4c76.8-115.2 211.2-185.6 358.4-185.6 134.4 0 256 64 339.2 160 89.6-96 147.2-224 147.2-364.8 0-281.6-230.4-512-512-512s-512 230.4-512 512c0 153.6 70.4 294.4 179.2 390.4zm608-236.8c-6.4 19.2-19.2 19.2-38.4 12.8-70.4-32-147.2-51.2-224-51.2-83.2 0-160 19.2-230.4 51.2-6.4 6.4-25.6 6.4-32-19.2-6.4-12.8 6.4-25.6 12.8-32 76.8-38.4 160-57.6 249.6-57.6s172.8 19.2 243.2 51.2c12.8 12.8 25.6 25.6 19.2 44.8zm44.8-128c-6.4 6.4-12.8 12.8-25.6 12.8h-6.4c-83.2-38.4-179.2-64-275.2-64s-185.6 19.2-268.8 57.6h-6.4c-12.8 0-19.2-6.4-25.6-12.8l-6.4-12.8c0-6.4 6.4-19.2 12.8-19.2 89.6-38.4 192-64 300.8-64 108.8 0 211.2 25.6 300.8 64v38.4zm-646.4-211.2c102.4-44.8 217.6-64 339.2-64 115.2 0 230.4 25.6 332.8 64 12.8 6.4 25.6 19.2 25.6 38.4 0 25.6-19.2 44.8-44.8 44.8h-6.4c-96-38.4-198.4-57.6-307.2-57.6s-211.2 19.2-307.2 51.2h-6.4c-25.6 0-44.8-19.2-44.8-44.8 0-6.4 6.4-25.6 19.2-32zm352 556.8c-89.6 0-166.4 44.8-211.2 108.8 57.6 19.2 121.6 32 185.6 32 83.2 0 160-19.2 224-51.2-44.8-57.6-115.2-89.6-198.4-89.6z"/></svg>