<svg viewBox="0 0 1195 1195" xmlns="http://www.w3.org/2000/svg"><path d="M661.333 512v236.8c0 57.6 0 96 6.4 108.8 6.4 19.2 19.2 32 38.4 44.8 25.6 12.8 51.2 19.2 76.8 19.2 51.2 0 83.2-6.4 134.4-38.4v153.6c-44.8 19.2-83.2 32-115.2 38.4-38.4 12.8-76.8 12.8-115.2 12.8-44.8 0-76.8-6.4-108.8-19.2-38.4-12.8-64-32-89.6-51.2-25.6-19.2-44.8-44.8-51.2-70.4-12.8-25.6-12.8-57.6-12.8-108.8v-352h-147.2V339.2c38.4-12.8 83.2-32 115.2-57.6 25.6-25.6 51.2-51.2 70.4-89.6 19.2-32 32-76.8 38.4-128h160v256h256v192h-256z"/></svg>