<svg viewBox="0 0 1195 1195" xmlns="http://www.w3.org/2000/svg"><path d="M1109.333 256c-38.4 19.2-76.8 25.6-121.6 32 44.8-25.6 76.8-64 89.6-115.2-38.4 25.6-83.2 38.4-134.4 51.2-38.4-38.4-96-64-153.6-64-108.8 0-204.8 96-204.8 211.2 0 19.2 0 32 6.4 44.8-172.8-6.4-332.8-89.6-435.2-217.6-19.2 32-25.6 64-25.6 102.4 0 70.4 38.4 134.4 96 172.8-32 0-64-12.8-96-25.6 0 102.4 70.4 185.6 166.4 204.8-19.2 12.8-38.4 12.8-57.6 12.8-12.8 0-25.6 0-38.4-6.4 25.6 83.2 102.4 147.2 198.4 147.2-70.4 57.6-160 89.6-262.4 89.6h-51.2c96 64 204.8 96 320 96 384 0 595.2-320 595.2-595.2v-25.6c44.8-32 83.2-70.4 108.8-115.2z"/></svg>