<svg viewBox="0 0 1195 1195" xmlns="http://www.w3.org/2000/svg"><path d="M534.357 427.712c106.56 0 193.024-81.344 193.024-181.888C727.317 145.408 640.917 64 534.357 64s-193.024 81.408-193.024 181.824c0 100.48 86.464 181.888 193.024 181.888zm151.296 12.608c-42.56 29.44-94.592 47.424-151.296 47.424-56.96 0-109.12-18.112-151.744-47.744-173.248 37.312-297.28 136.832-297.28 254.016v258.88c0 17.152 14.4 31.104 32 31.104h64c17.6 0 32-12.608 32-28.096V754.048c0-16.64 9.536-9.984 21.376-9.984 11.776 0 21.312 9.024 21.312 19.968l.32 179.968c.896 10.368 9.6 84.416 20.544 86.592 0 0 66.56 57.344 256.448 57.344 191.232 0 256.448-57.344 256.448-57.344 10.944-2.112 19.712-76.16 20.544-86.592l.32-179.968c0-11.008 9.536-19.968 21.376-19.968 11.776 0 21.312 9.024 21.312 19.968v191.872c0 15.488 14.4 28.096 32 28.096h64c17.6 0 32-14.016 32-31.104v-258.88c0-116.864-123.392-216.128-295.68-253.696z"/></svg>