<svg viewBox="0 0 1195 1195" xmlns="http://www.w3.org/2000/svg"><path d="M149.333 256c19.2 128 128 659.2 377.6 812.8 38.4 25.6 83.2 19.2 115.2-6.4 121.6-102.4 243.2-275.2 275.2-358.4 64 6.4 108.8-12.8 108.8-12.8v-128h-115.2c-140.8 0-236.8-166.4-179.2-313.6 38.4-102.4 108.8-25.6 121.6 0 12.8 32 6.4 115.2-6.4 172.8 19.2 51.2 140.8 76.8 166.4 38.4 32-96 44.8-262.4-38.4-352-57.6-38.4-198.4-70.4-300.8-6.4s-102.4 204.8-96 275.2c6.4 70.4 32 217.6 172.8 300.8 12.8 12.8-153.6 230.4-160 217.6-185.6-179.2-249.6-544-262.4-640h-179.2z"/></svg>