<svg viewBox="0 0 1195 1195" xmlns="http://www.w3.org/2000/svg"><path d="M578.517 128c-48.384 0-63.04 27.84-63.04 27.84s-183.104 216.192-266.56 216.192h-81.344c-45.44 0-82.24 36.416-82.24 81.28v244.096c0 44.928 36.8 81.28 82.176 81.28h82.176c81.024 0 269.568 218.88 269.568 218.88 14.912 15.488 35.904 25.152 59.264 25.152 45.376 0 82.176-36.352 82.176-81.28V209.344c0-44.928-36.8-81.344-82.176-81.344zm350.784 78.272l-47.424 70.976c86.656 70.4 142.208 177.728 142.208 298.176s-55.488 227.84-142.208 298.112l47.424 70.976c109.44-85.888 180.032-219.136 180.032-369.088 0-150.016-70.592-283.2-180.032-369.152zm-95.168 142.4l-47.872 71.68c41.344 38.912 67.392 93.76 67.392 155.072s-26.048 116.096-67.392 155.072l47.872 71.616c63.872-54.72 104.576-136 104.576-226.688 0-90.816-40.704-171.968-104.576-226.752z"/></svg>