<svg viewBox="0 0 1195 1195" xmlns="http://www.w3.org/2000/svg"><path d="M603.733 608l115.2 313.6v6.4c-38.4 12.8-83.2 19.2-128 19.2-38.4 0-76.8-6.4-108.8-12.8l121.6-326.4zm377.6-32c0 140.8-76.8 256-192 326.4l115.2-332.8c19.2-51.2 32-96 32-134.4v-38.4c32 51.2 44.8 115.2 44.8 179.2zm-768 0c0-51.2 12.8-108.8 32-153.6l185.6 486.4c-128-57.6-217.6-185.6-217.6-332.8zm64-204.8c70.4-102.4 185.6-166.4 320-166.4 102.4 0 192 38.4 262.4 96h-6.4c-38.4 0-64 32-64 64s19.2 57.6 38.4 89.6c12.8 25.6 32 57.6 32 102.4 0 32-12.8 70.4-32 121.6l-38.4 128-140.8-403.2c25.6 0 44.8-6.4 44.8-6.4 19.2 0 19.2-32 0-32 0 0-64 6.4-102.4 6.4-38.4 0-102.4-6.4-102.4-6.4-19.2 0-25.6 32 0 32 0 0 19.2 0 38.4 6.4l57.6 160-83.2 243.2-140.8-403.2c25.6-6.4 44.8-6.4 44.8-6.4 19.2 0 19.2-32 0-32 0 0-64 6.4-102.4 6.4h-25.6zM936.533 64h-678.4c-96 0-172.8 76.8-172.8 172.8v678.4c0 96 76.8 172.8 172.8 172.8h678.4c96 0 172.8-76.8 172.8-172.8V236.8c0-96-76.8-172.8-172.8-172.8zm108.8 512c0 249.6-198.4 448-448 448s-448-198.4-448-448 198.4-448 448-448 448 198.4 448 448z"/></svg>