<svg viewBox="0 0 1195 1195" xmlns="http://www.w3.org/2000/svg"><path d="M693.333 716.8c-19.2 19.2 0 51.2 0 51.2l128 217.6s19.2 25.6 38.4 25.6 38.4-12.8 38.4-12.8l102.4-147.2s12.8-19.2 12.8-32c0-25.6-32-32-32-32l-243.2-76.8c-6.4 0-25.6-6.4-44.8 6.4zm-12.8-108.8c12.8 19.2 44.8 12.8 44.8 12.8l243.2-70.4s32-12.8 38.4-32c6.4-19.2-6.4-38.4-6.4-38.4l-108.8-134.4s-12.8-19.2-32-19.2c-25.6 0-38.4 25.6-38.4 25.6l-140.8 217.6s-6.4 19.2 0 38.4zm-115.2-83.2c32-6.4 38.4-51.2 38.4-51.2V128c-6.4 0-6.4-38.4-25.6-51.2-32-19.2-44.8-6.4-51.2-6.4l-198.4 70.4s-19.2 6.4-32 25.6c-12.8 25.6 12.8 57.6 12.8 57.6l211.2 288s19.2 19.2 44.8 12.8zm-44.8 140.8c0-25.6-32-44.8-32-44.8L270.933 512s-32-12.8-44.8-6.4c-19.2 12.8-25.6 25.6-32 32l-12.8 172.8s0 32 6.4 44.8c12.8 19.2 44.8 6.4 44.8 6.4l256-57.6c12.8 0 25.6-6.4 32-38.4zm57.6 96c-19.2-12.8-44.8 6.4-44.8 6.4l-172.8 185.6s-19.2 25.6-12.8 44.8c6.4 19.2 12.8 25.6 25.6 32l172.8 51.2s19.2 6.4 38.4 0c19.2 0 12.8-32 12.8-32l6.4-256s0-25.6-25.6-32z"/></svg>