<svg xmlns="http://www.w3.org/2000/svg" viewBox="0 0 511.488037109375 511.99993896484375"><path d="M0 490.496c0-17.408 10.41-35.584 31.232-54.528 20.821-18.944 41.813-34.048 62.976-45.312l7.68 11.264c-15.019 10.923-30.464 25.003-46.337 42.24-15.87 17.237-25.855 32.512-29.952 45.824 29.696-9.216 74.923-73.899 135.681-194.048 22.187-44.715 39.765-89.259 52.736-133.632-11.264-36.523-16.896-70.998-16.896-103.424 0-39.254 8.021-58.88 24.064-58.88 7.85 0 13.653.341 17.408 1.023 3.755.683 7.253 2.902 10.496 6.657s4.864 9.557 4.864 17.408c0 5.12-.512 9.898-1.536 14.336l-13.824-.513c-.682-8.874-3.584-15.871-8.704-20.991-4.096 6.826-6.144 18.602-6.144 35.328 0 12.97 1.536 29.013 4.608 48.128 1.024-6.145 2.475-15.276 4.352-27.393 1.877-12.117 3.5-21.248 4.865-27.391l13.311 1.536c-.682 51.882-3.072 89.087-7.168 111.615C256 196.266 270.762 225.962 288 248.832c17.238 22.869 41.558 43.178 72.96 60.927 23.211-2.389 43.008-3.584 59.392-3.584 60.758 0 91.136 11.947 91.136 35.84 0 3.755-.853 7.85-2.56 12.288l-1.536-.511c-1.707 14.335-13.14 21.503-34.304 21.503-35.499 0-76.459-12.288-122.88-36.864-75.093 7.51-141.482 21.504-199.168 41.985C100.864 468.138 60.758 512 30.72 512c-2.39 0-4.779-.342-7.168-1.025s-4.522-1.45-6.4-2.304c-1.877-.853-4.18-2.048-6.91-3.584-2.733-1.536-4.78-2.645-6.146-3.328C1.366 499.029 0 495.274 0 490.496zm162.816-130.56c45.738-18.432 96.596-32.938 152.575-43.52-35.158-24.917-63.148-60.587-83.968-107.008-12.288 41.302-35.157 91.478-68.608 150.528zm248.832-25.6c30.72 11.947 54.953 17.92 72.703 17.92 5.12 0 8.875-.512 11.264-1.536 0-10.923-24.746-16.384-74.24-16.384h-9.727z"/></svg>