<svg xmlns="http://www.w3.org/2000/svg" viewBox="0 0 411.31298828125 413.00799560546875"><path d="M2.385 81.92c.672-5.809 3.248-11.265 7.68-16.384l61.44-61.44C76.289 0 79.873.688 82.257 6.144l49.664 93.184c2.735 5.456 1.872 10.752-2.56 15.872l-22.528 22.528c-4.097 4.096-6.48 9.392-7.168 15.872 0 10.24 5.296 23.376 15.872 39.424 10.575 16.047 20.991 29.696 31.232 40.976l15.872 16.368c4.784 4.784 10.912 10.672 18.448 17.664 7.504 6.992 19.872 16.208 37.103 27.648 17.233 11.44 30.817 17.152 40.705 17.152 6.48 0 11.952-2.224 16.383-6.656l26.64-26.624c4.785-4.784 9.889-5.472 15.345-2.048l89.616 52.736c2.384 1.376 3.76 3.152 4.096 5.376.336 2.224-.336 4.192-2.048 5.888l-61.44 61.44c-5.12 4.432-10.592 7.008-16.368 7.664-16.736 2.4-35.6.096-56.593-6.912-20.99-7.008-40.431-16.304-58.351-27.904-17.92-11.6-34.56-23.376-49.92-35.312-15.36-11.952-27.649-22.192-36.864-30.72l-13.312-12.816c-3.408-3.408-7.936-8.096-13.568-14.08S87.04 265.136 73.04 247.552s-26.112-34.736-36.353-51.456-19.103-35.76-26.624-57.088C2.56 117.68 0 98.64 2.383 81.92z"/></svg>