<svg xmlns="http://www.w3.org/2000/svg" viewBox="0 0 573.4409790039062 409.5850524902344"><path d="M.001 23.553c0-6.832 2.225-12.448 6.657-16.897C11.09 2.208 16.738 0 23.554 0h120.319c5.456 0 10.32 1.616 14.593 4.865 4.271 3.248 7.088 7.583 8.447 13.056l12.288 50.176h345.072l3.6-10.752c3.408-10.929 10.752-16.385 22.016-16.385 3.072 0 5.296.337 6.656 1.025 5.104 1.36 9.2 4.095 12.288 8.192 3.089 4.096 4.608 8.704 4.608 13.823 0 1.696-.336 3.921-1.024 6.656l-60.416 201.216c-1.376 5.12-4.096 9.217-8.192 12.288-4.095 3.073-8.72 4.609-13.824 4.609H203.777c-5.456 0-10.32-1.696-14.592-5.105-4.272-3.423-7.088-7.68-8.448-12.815L125.441 46.593H23.553c-6.48 0-12.032-2.225-16.64-6.656C2.305 35.505 0 30.032 0 23.553zm190.465 91.136l31.743 126.976h250.368l1.008-4.592 36.88-122.368h-320v-.015zm21.504 247.808c0-12.976 4.687-24.064 14.08-33.28 9.391-9.216 20.575-13.824 33.535-13.824s24.064 4.608 33.28 13.824c9.216 9.216 13.824 20.32 13.824 33.28s-4.608 24.064-13.824 33.28-20.32 13.808-33.28 13.808-24.144-4.592-33.535-13.808c-9.376-9.216-14.08-20.304-14.08-33.28zm33.28-207.872h84.992v47.089h-74.768zm125.44 47.104l.511-47.088h82.945l-12.288 47.088H370.69zm18.944 160.768c0-12.976 4.704-24.064 14.095-33.28 9.376-9.216 20.56-13.824 33.536-13.824 12.976 0 24.064 4.608 33.28 13.824 9.217 9.216 13.808 20.32 13.808 33.28s-4.591 24.064-13.808 33.28c-9.216 9.216-20.32 13.808-33.28 13.808s-24.16-4.592-33.536-13.808c-9.391-9.216-14.095-20.304-14.095-33.28z"/></svg>