<svg xmlns="http://www.w3.org/2000/svg" viewBox="0 0 510.9769592285156 512.3400268554688"><path d="M.001 267.776c0-25.6 3.925-52.139 11.776-79.616 7.85-27.477 18.431-52.139 31.743-73.985 21.163-35.498 52.31-63.402 93.44-83.712S220.503 0 264.194 0c44.373 0 86.954 13.909 127.743 41.727 40.79 27.82 71.936 62.209 93.44 103.17 17.066 29.353 25.6 65.876 25.6 109.566 0 51.2-12.118 96.597-36.352 136.192-24.234 39.595-57.002 69.803-98.304 90.624-41.301 20.821-87.381 31.061-138.24 30.72a41857.016 41857.016 0 0 1 31.232-56.065c13.995-25.088 26.539-47.36 37.633-66.815 11.093-19.457 22.1-37.888 33.023-55.296l.513-1.024c1.023-1.707 3.071-4.864 6.143-9.472 3.072-4.608 5.206-7.936 6.4-9.984 1.195-2.048 2.816-4.95 4.864-8.705 2.048-3.754 3.67-7.338 4.864-10.752s2.134-6.997 2.817-10.752c2.047-8.192 3.07-16.384 3.07-24.576 0-27.306-8.19-51.54-24.574-72.703l140.8-41.473c-97.28 0-170.326.171-219.137.513-2.39-.342-6.144-.513-11.264-.513-33.792 0-62.037 12.63-84.736 37.89-22.699 25.258-32.171 54.783-28.416 88.574-.683-3.071-1.024-7.85-1.024-14.336 0-15.018 2.56-28.16 7.68-39.423L43.52 114.175l101.377 174.592c6.485 24.576 20.053 44.63 40.703 60.16 20.651 15.53 43.606 23.296 68.864 23.296 5.803 0 11.435-.512 16.897-1.535L237.569 512c-39.254 0-77.312-12.118-114.177-36.352-36.864-24.235-66.73-54.273-89.6-90.112C11.264 350.719 0 311.466 0 267.776zm159.744-9.728c0-25.941 9.215-48.213 27.647-66.815 18.432-18.603 40.79-27.905 67.072-27.905 26.283 0 48.64 9.302 67.073 27.905 18.431 18.602 27.647 40.874 27.647 66.815 0 26.283-9.3 48.725-27.903 67.328-18.603 18.603-40.875 27.904-66.816 27.904s-48.214-9.301-66.816-27.904c-18.603-18.603-27.904-41.046-27.904-67.328z"/></svg>