<svg xmlns="http://www.w3.org/2000/svg" viewBox="0 0 574.4630126953125 337.9200439453125"><path d="M0 270.336V79.872c0-4.432 2.223-6.656 6.656-6.656h90.111V7.168c0-4.785 2.225-7.168 6.657-7.168h50.175v263.168c0 4.784-2.047 7.168-6.143 7.168H0zm55.807-42.496h34.305c4.432 0 6.655-2.384 6.655-7.152V115.2H62.464c-4.432 0-6.657 2.384-6.657 7.168V227.84zm115.2 42.496V79.872c0-4.432 2.224-6.656 6.657-6.656h50.176v189.952c0 4.784-2.048 7.168-6.144 7.168h-50.688zm0-227.84V7.168c0-4.784 2.049-7.168 6.145-7.168h50.688v35.328c0 4.768-2.048 7.168-6.144 7.168h-50.688zm76.289 227.84V79.872c0-4.432 2.223-6.656 6.656-6.656h147.472v258.048c0 4.432-2.224 6.656-6.656 6.656H247.296l.511-35.328c0-4.783 2.048-7.152 6.145-7.152h90.128v-25.088h-96.784v-.016zM303.6 227.84h34.32c4.096 0 6.16-2.384 6.16-7.152V115.2h-34.32c-4.096 0-6.16 2.384-6.16 7.168V227.84zm117.248 74.752c0-4.784 2.224-7.152 6.656-7.152h90.128v-25.088h-96.785V79.872c0-4.431 2.224-6.656 6.656-6.656h146.96v258.048c0 4.433-2.048 6.656-6.144 6.656H420.847v-35.328zm55.824-74.752h34.32c4.432 0 6.655-2.384 6.655-7.152V115.2h-34.32c-4.432 0-6.655 2.384-6.655 7.168V227.84z"/></svg>