<svg xmlns="http://www.w3.org/2000/svg" viewBox="0 0 512 512"><path d="M0 256c0-46.421 11.434-89.259 34.303-128.512 22.87-39.253 53.932-70.315 93.185-93.185C166.741 11.434 209.578 0 256 0c46.421 0 89.258 11.434 128.512 34.303 39.253 22.87 70.315 53.932 93.185 93.185C500.566 166.741 512 209.578 512 256s-11.434 89.258-34.303 128.512c-22.87 39.253-53.932 70.315-93.185 93.185C345.259 500.566 302.422 512 256 512c-46.421 0-89.259-11.434-128.512-34.303-39.253-22.87-70.315-53.932-93.185-93.185C11.434 345.259 0 302.422 0 256zm42.496 0c0 53.248 17.92 100.181 53.76 140.8 16.384-32.085 42.325-62.634 77.824-91.648 35.498-29.013 70.144-47.275 103.936-54.784-5.12-11.946-10.07-22.698-14.848-32.256-58.71 18.774-122.198 28.16-190.464 28.16-13.312 0-23.21-.17-29.696-.512 0 1.365-.086 3.072-.256 5.12s-.256 3.755-.256 5.12zm6.656-52.736c7.51.683 18.602 1.024 33.28 1.024 57.002 0 111.103-7.68 162.304-23.04-25.941-46.08-54.442-84.48-85.504-115.2-26.965 13.654-50.09 32.598-69.376 56.832-19.285 24.235-32.853 51.03-40.704 80.384zm76.288 221.184c38.57 30.037 82.09 45.056 130.56 45.056 25.258 0 50.346-4.779 75.263-14.336-6.826-58.368-20.138-114.858-39.935-169.472-31.403 6.826-63.062 24.063-94.977 51.712-31.914 27.648-55.55 56.661-70.91 87.04zm78.336-374.784c30.037 31.061 57.855 69.802 83.456 116.224 46.421-19.456 81.408-44.202 104.96-74.24C352.597 58.88 307.199 42.496 256 42.496c-17.408 0-34.816 2.39-52.224 7.168zM305.663 202.24c5.12 10.922 10.922 24.746 17.408 41.472 25.258-2.39 52.736-3.584 82.431-3.584 21.163 0 42.155.512 62.977 1.536-2.731-46.421-19.457-87.723-50.177-123.904-22.186 33.11-59.732 61.27-112.64 84.48zm30.208 77.312c17.408 50.518 29.184 102.4 35.328 155.648 26.965-17.408 48.981-39.766 66.048-67.072s27.306-56.832 30.72-88.577c-24.918-1.706-47.617-2.56-68.096-2.56-18.774 0-40.107.854-64 2.56z"/></svg>