<svg xmlns="http://www.w3.org/2000/svg" viewBox="0 0 514.8550415039062 347.53997802734375"><path d="M0 316.758V30.782c0-.33.496-3.475 1.49-9.433l168.308 143.98L1.986 326.688c-1.323-4.634-1.985-7.944-1.985-9.93zM22.342 1.49C24.659.497 27.472 0 30.782 0h453.29c2.98 0 5.958.497 8.937 1.49L324.204 145.968l-22.342 17.873-44.187 36.244-44.187-36.244-22.342-17.873zm.496 344.56L192.14 183.7l65.536 53.123 65.536-53.124L492.513 346.05c-2.648.994-5.461 1.49-8.44 1.49H30.783c-2.649 0-5.297-.496-7.945-1.49zm322.716-180.719L513.366 21.35c.993 2.98 1.489 6.124 1.489 9.434V316.76c0 2.978-.496 6.288-1.49 9.93z"/></svg>