<svg xmlns="http://www.w3.org/2000/svg" viewBox="0 0 646.1610107421875 307.1510009765625"><path d="M0 211.92h60.928c1.713 13.664 6.736 24.576 15.105 32.768 8.368 8.192 19.376 12.303 33.024 12.303 16.384 0 29.44-5.551 39.168-16.64 9.728-11.087 14.592-24.992 14.592-41.727 0-16.385-4.784-29.856-14.336-40.448-9.568-10.576-22.353-15.856-38.4-15.856-12.976 0-24.064 4.176-33.28 12.543-9.217 8.369-17.92 12.544-26.112 12.544-18.08 0-31.744-.336-40.96-1.007 3.071-17.745 7.936-45.136 14.592-82.176C30.977 47.199 35.841 19.12 38.913 0h168.96v50.176h-124.4c-4.784 24.24-8.88 47.103-12.288 68.607h1.536c5.808-7.168 14.416-12.64 25.856-16.383 11.44-3.76 22.624-5.632 33.536-5.632 38.576 0 65.872 17.584 81.92 52.736 8.192-20.48 20.48-36.528 36.864-48.128 16.384-11.616 35.328-17.408 56.832-17.408 16.72 0 32.256 3.328 46.608 9.983 14.336 6.657 25.6 13.744 33.776 21.248 8.176 7.505 18.944 18.769 32.256 33.792 1.024 1.025 1.808 1.872 2.32 2.56.512.688 1.184 1.457 2.048 2.305l2.304 2.303c11.968-13.663 20.496-23.12 25.616-28.416 5.12-5.296 12.976-12.208 23.552-20.735 10.592-8.544 21.168-14.416 31.744-17.664s22.496-4.912 35.808-4.912c30.72 0 55.472 10.336 74.24 30.975 18.768 20.64 28.16 46.513 28.16 77.569 0 31.728-9.408 58.352-28.176 79.856-18.768 21.52-43.856 32.272-75.264 32.272-39.6 0-78.16-22.352-115.712-67.073-2.368 2.4-9.024 8.977-19.968 19.712-10.912 10.753-18.16 17.505-21.744 20.225-3.6 2.736-9.904 7.088-18.944 13.056s-17.92 9.904-26.624 11.776c-8.72 1.872-18.528 2.815-29.44 2.815-21.504 0-40.448-5.632-56.832-16.91-16.384-11.25-29.008-26.977-37.888-47.09-21.168 43.697-55.808 65.536-103.952 65.536-32.416 0-59.136-8.11-80.128-24.32S.001 242.977.001 211.92zm263.68-15.36c0 14.336 4.353 25.936 13.057 34.816s20.224 13.312 34.56 13.312c25.616 0 52.048-16.208 79.36-48.624-11.6-11.952-19.792-20.24-24.56-24.848-4.783-4.608-12.911-10.24-24.336-16.896-11.44-6.656-22.272-9.984-32.512-9.984-13.311 0-24.24 5.296-32.767 15.872-8.529 10.576-12.801 22.688-12.801 36.352zm199.169 0c9.215 9.904 16.99 17.664 23.311 23.296 6.32 5.648 14.656 11.168 25.072 16.64 10.416 5.472 20.913 8.192 31.488 8.192 14.688 0 26.208-4.688 34.56-14.08 8.368-9.392 12.544-21.424 12.544-36.096 0-14.336-4.352-26.288-13.04-35.824-8.72-9.567-20.24-14.336-34.56-14.336-8.528 0-16.912 1.968-25.088 5.888-8.192 3.936-14.416 7.6-18.688 11.009-4.288 3.423-10.672 9.567-19.2 18.43s-14 14.48-16.4 16.88z"/></svg>