<svg xmlns="http://www.w3.org/2000/svg" viewBox="0 0 491.00799560546875 516.095947265625"><path d="M0 456.192V193.024C0 131.925 14.42 84.48 43.263 50.688 72.106 16.896 116.395 0 176.127 0h280.576c-1.707 1.706-10.667 10.752-26.88 27.136s-33.28 33.621-51.2 51.712-36.522 36.778-55.807 56.064c-19.286 19.285-35.5 35.157-48.64 47.616-13.142 12.459-20.225 18.688-21.249 18.688-5.12 0-7.68-2.73-7.68-8.193v-79.872h-24.576c-20.139 0-36.266 1.11-48.384 3.328s-22.869 6.657-32.256 13.313c-9.386 6.656-16.042 16.298-19.967 28.928-3.926 12.63-5.889 29.013-5.889 49.152v134.144zm34.303 59.904c1.707-1.706 10.667-10.752 26.88-27.136 16.214-16.384 33.28-33.621 51.2-51.712s36.523-36.778 55.81-56.064c19.284-19.285 35.497-35.157 48.639-47.616 13.141-12.459 20.224-18.688 21.248-18.688 5.12 0 7.68 2.73 7.68 8.192v79.873h24.576c39.594 0 67.157-6.06 82.688-18.177 15.53-12.117 23.296-37.632 23.296-76.544V174.08L491.008 59.904v263.168c0 61.098-14.421 108.544-43.264 142.336-28.842 33.792-73.13 50.687-132.864 50.687H34.304z"/></svg>