<svg xmlns="http://www.w3.org/2000/svg" viewBox="0 0 538.6240234375 256"><path d="M0 128c0-35.504 12.464-65.695 37.376-90.624C62.288 12.464 92.496 0 128 0s65.696 12.464 90.624 37.376C243.536 62.305 256 92.496 256 128s-12.464 65.712-37.376 90.624C193.696 243.553 163.504 256 128 256s-65.697-12.447-90.624-37.376C12.464 193.712 0 163.504 0 128zm282.624 0c0-35.504 12.464-65.695 37.376-90.624C344.912 12.464 375.12 0 410.624 0s65.696 12.464 90.624 37.376c24.912 24.912 37.376 55.12 37.376 90.624s-12.464 65.712-37.376 90.624C476.32 243.553 446.128 256 410.624 256S344.912 243.553 320 218.624c-24.912-24.912-37.376-55.12-37.376-90.624z"/></svg>