<svg xmlns="http://www.w3.org/2000/svg" viewBox="0 0 606.7049560546875 512.3679809570312"><path d="M.001 419.12c0-29.68 15.2-56.16 45.616-79.408 30.384-23.216 67.12-34.848 110.16-34.848h27.68c-14.369-13.664-21.552-28.336-21.552-44.065 0-9.887 2.735-19.807 8.191-29.695-3.407.336-8.351.528-14.863.528-35.505 0-64.544-11.12-87.089-33.328-22.544-22.192-33.823-49.52-33.823-82 0-31.088 14-58.224 42-81.456C104.369 11.6 136.321 0 172.176 0h158.832l-35.344 25.616h-50.192c16.048 6.144 28.624 17.776 37.648 34.864 9.056 17.056 13.6 36.032 13.6 56.88 0 31.76-15.023 59.424-45.103 83.008-12.641 9.888-20.832 17.728-24.592 23.552-3.761 5.824-5.649 12.992-5.649 21.52 0 6.48 4.64 14.704 13.84 24.608 9.233 9.888 18.448 18.272 27.664 25.072 20.817 14.688 35.28 29.744 43.313 45.088 8.031 15.408 12.015 34.688 12.015 57.904 0 30.752-14 57.472-42 80.193-28 22.752-65.92 34.063-113.76 34.063-45.423 0-83.872-8.496-115.28-25.6C15.728 469.681 0 447.152 0 419.12zm57.376-16.912c0 23.6 10 43.664 29.984 60.224 19.983 16.592 44.832 24.848 74.544 24.848 40.672 0 70.111-7.536 88.384-22.528 18.303-15.024 27.424-35.008 27.424-59.936 0-6.496-.672-11.968-2.048-16.4a87.986 87.986 0 0 0-3.569-10.527c-1.391-3.217-3.44-6.465-6.175-9.713a235.886 235.886 0 0 0-7.136-8.192c-2.065-2.223-5.393-5.024-10.017-8.464a966.217 966.217 0 0 0-10.511-7.68c-2.384-1.68-6.64-4.688-12.816-8.976-6.129-4.256-10.593-7.248-13.328-8.975-13.328-4.097-26.464-6.128-39.44-6.128-30.752-.337-57.648 7.663-80.688 24.063-23.04 16.384-34.608 35.857-34.608 58.384zm33.84-286.4c3.76 26.976 14.095 50.191 31.007 69.68 16.929 19.456 35.633 29.36 56.113 29.712 20.16.671 36.223-8.193 48.175-26.657 11.952-18.447 16.225-41.151 12.785-68.143-3.409-26.977-13.569-49.872-30.464-68.672-16.928-18.769-35.632-28.496-56.144-29.2-20.48-.657-36.704 8.032-48.673 26.16-11.951 18.096-16.223 40.464-12.8 67.12zm284.384 12.304V102.48h102.465V0h25.631v102.48h103.008v25.632H503.681v102.992H478.05V128.112H375.602z"/></svg>