<svg xmlns="http://www.w3.org/2000/svg" viewBox="0 0 330.75201416015625 511.9849548339844"><path d="M0 418.817c0-29.68 15.183-56.144 45.568-79.344 30.367-23.216 67.071-34.832 110.08-34.832h27.648c-14.336-13.648-21.52-28.336-21.52-44.032 0-9.904 2.752-19.792 8.208-29.696-3.425.336-8.352.512-14.864.512-35.489 0-64.496-11.088-87.025-33.28-22.527-22.192-33.792-49.488-33.792-81.92 0-31.056 14-58.192 41.985-81.408C104.271 11.601 136.192 0 172.032 0h158.72l-35.328 25.601h-50.176c16.032 6.144 28.592 17.744 37.632 34.815 9.04 17.057 13.568 36 13.568 56.832 0 31.745-15.008 59.393-45.04 82.945-12.624 9.904-20.832 17.744-24.576 23.552-3.744 5.808-5.632 12.976-5.632 21.503 0 6.481 4.592 14.673 13.808 24.577 9.216 9.888 18.432 18.272 27.664 25.072 20.816 14.687 35.248 29.696 43.264 45.056 8.016 15.376 12.032 34.656 12.032 57.856 0 30.72-13.984 57.424-41.984 80.128s-65.872 34.048-113.664 34.048c-45.408 0-83.808-8.528-115.217-25.6C15.712 469.361 0 446.817 0 418.817zm57.344-16.88c0 23.552 9.984 43.616 29.952 60.176 19.968 16.544 44.8 24.816 74.48 24.816 40.624 0 70.064-7.504 88.336-22.512 18.272-15.008 27.392-34.992 27.392-59.904 0-6.48-.688-11.952-2.048-16.383a83.06 83.06 0 0 0-3.584-10.497c-1.376-3.232-3.408-6.463-6.16-9.712-2.72-3.248-5.104-5.968-7.153-8.192-2.047-2.224-5.376-5.024-9.983-8.448a657.847 657.847 0 0 0-10.496-7.664c-2.384-1.712-6.656-4.704-12.8-8.976-6.16-4.272-10.593-7.248-13.312-8.96-13.312-4.112-26.449-6.144-39.424-6.144h-2.048c-29.696 0-55.809 8.016-78.336 24.064-23.2 16.352-34.816 35.824-34.816 58.336zM91.12 115.729c3.76 26.96 14.095 50.176 30.992 69.632 16.895 19.456 35.584 29.344 56.08 29.696h2.031c19.12 0 34.464-8.88 46.097-26.624 9.216-14.336 13.808-31.232 13.808-50.688 0-5.456-.336-11.264-1.025-17.408-3.407-26.976-13.567-49.84-30.447-68.608s-35.584-28.496-56.065-29.184h-2.048c-19.471 0-35.007 8.704-46.591 26.112-9.216 14-13.825 30.72-13.825 50.175-.015 5.457.32 11.09.993 16.897z"/></svg>