<svg xmlns="http://www.w3.org/2000/svg" viewBox="0 0 391.15301513671875 506.864990234375"><path d="M.001 259.584v-52.735c0-29.697 14.672-63.825 44.032-102.4 29.36-38.577 58.544-65.873 87.552-81.92C158.209 7.521 190.129 0 227.329 0c15.023 0 30.128 1.697 45.311 5.12 15.185 3.424 29.777 8.705 43.777 15.873s25.343 17.056 34.048 29.696c8.704 12.624 13.04 27.136 13.04 43.52 0 4.432-.336 8.623-1.008 12.543-.689 3.921-1.888 8.017-3.584 12.288-1.712 4.273-3.248 7.857-4.624 10.752-1.36 2.897-3.744 6.48-7.153 10.752-3.408 4.273-5.807 7.425-7.168 9.473-1.359 2.048-4.351 5.376-8.96 9.983-4.624 4.609-7.439 7.505-8.448 8.705-1.008 1.2-4.176 4.176-9.487 8.96-5.28 4.768-8.273 7.503-8.944 8.192h86c.688 24.576 1.024 43.008 1.024 55.296 0 86.352-7.168 142-21.504 166.912-11.952 20.816-28.08 39.248-48.385 55.296-20.303 16.048-42.08 27.984-65.279 35.824-13.312 5.12-22.864 7.68-28.673 7.68h-43.008c-1.023 0-9.216-2.912-24.591-8.704-40.96-18.08-61.424-47.776-61.424-89.072 0-1.376.08-3.248.256-5.648s.255-4.096.255-5.104C53.056 374.769 22.337 338.08 6.64 288.24 2.209 273.92 0 264.368 0 259.584zm74.752-66.56c0 13.648 1.632 27.472 4.864 41.472 3.231 14 8.111 27.472 14.592 40.448 6.48 12.976 15.44 23.568 26.88 31.744 11.44 8.176 24.496 12.288 39.183 12.288 4.097 0 10.832-2.56 20.225-7.664 9.376-5.12 17.824-7.68 25.344-7.68 4.784 0 13.471 1.792 26.112 5.392 12.64 3.568 18.96 6.912 18.96 9.968 0 7.168-4.433 10.752-13.313 10.752-44.367 0-66.56 12.976-66.56 38.928 0 19.792 7.153 34.736 21.505 44.8 14.351 10.064 31.904 15.088 52.736 15.088 16.048 0 31.728-2.816 47.104-8.432 15.343-5.632 27.808-14.08 37.376-25.344 14.335-17.056 21.503-45.056 21.503-83.968 0-6.48-.175-15.952-.511-28.4-.336-12.464-.512-21.76-.512-27.92 0-16.384.863-30.032 2.56-40.96h-98.816c-.336 2.736-.513 6.656-.513 11.776 0 3.744.177 9.552.513 17.408.336 7.856.512 13.823.512 17.92 0 11.952-1.36 21.504-4.112 28.672-1.68.336-4.592.496-8.688.496-16.385 0-30.048-5.536-40.977-16.624-10.927-11.088-18.431-23.808-22.527-38.144-4.097-14.336-6.16-29.552-6.16-45.6 0-15.36 1.952-30.896 5.888-46.592 3.92-15.696 11.263-30.032 22.015-43.008 10.752-12.976 23.985-19.456 39.664-19.456 3.425 0 7.01.512 10.752 1.537-1.359 7.503-2.03 13.311-2.03 17.407 0 11.952 3.23 21.84 9.711 29.696 6.48 7.856 15.536 11.776 27.151 11.776 11.617 0 21.329-3.92 29.168-11.776 7.857-7.856 11.777-17.744 11.777-29.696 0-14-5.28-25.952-15.872-35.84-10.56-9.904-22.529-16.72-35.84-20.48-13.296-3.76-26.784-5.632-40.432-5.632-46.08 0-84.144 14.512-114.177 43.52-30.03 29.008-45.055 66.384-45.055 112.128z"/></svg>