<svg xmlns="http://www.w3.org/2000/svg" viewBox="0 0 389.10504150390625 460.81597900390625"><path d="M.001 354.32c0-7.536 2.047-18.432 6.144-32.784 7.84-29.68 22.607-56.656 44.287-80.912 21.68-24.224 46.85-41.792 75.52-52.72-26.975-21.504-40.448-48.992-40.448-82.432 0-29.36 10.672-54.272 32-74.752C138.834 10.24 164.176 0 193.537 0c29.343 0 54.687 10.24 76.032 30.72 21.328 20.48 32 45.392 32 74.752 0 33.104-13.137 60.416-39.424 81.92 36.176 12.976 66.384 34.64 90.607 65.008 24.256 30.368 36.353 64.192 36.353 101.376 0 31.408-12.448 49.504-37.376 54.288-1.009 3.408-3.232 7.84-6.656 13.312-2.048 5.472-6.048 10.32-12.032 14.592-5.968 4.256-14.256 7.745-24.832 10.496-10.592 2.72-19.024 4.784-25.344 6.128-6.32 1.376-15.968 2.913-28.945 4.624-12.975 1.68-19.63 2.56-19.967 2.56-.672 0-1.872.16-3.584.496s-2.865.544-3.552.544h-61.456c-17.408 0-39.408-2.848-66.032-8.464s-41.808-13.216-45.569-22.784c-5.792-5.808-10.063-12.976-12.8-21.504-8.528-1.712-15.696-5.28-21.503-10.752C6.481 392.192 0 377.84 0 354.32z"/></svg>