<svg xmlns="http://www.w3.org/2000/svg" viewBox="0 0 357.88800048828125 503.8100280761719"><path d="M0 98.817h357.888l-33.792 363.52-145.408 41.473L33.28 462.337zm33.28-30.72V0h23.04v22.529H76.8V0h22.528v68.097H76.801V45.569h-20.48v22.528h-23.04zm33.28 104.96l12.288 136.191.511-1.023h153.602l-5.12 57.855-49.153 13.825-49.664-14.336-3.071-34.816H80.896l6.145 69.648 91.647 26.113 91.664-26.113 12.8-136.704H119.808l-4.096-45.568h171.52l4.113-45.056H66.561v-.015zm43.008-150.016V.001h62.464v23.04h-19.968v45.057h-22.513V23.041h-19.984zm72.192 45.056V0h24.063l13.824 23.553L233.983 0h24.065v68.097h-22.032V33.281l-16.369 25.6v-.513l-15.376-24.063v33.792h-22.51zm88.064 0V0h22.528v45.057h31.728v23.04h-54.256z"/></svg>