<svg xmlns="http://www.w3.org/2000/svg" viewBox="0 0 613.8889770507812 307.18499755859375"><path d="M.001 161.28v-17.408c0-38.576 14.336-72.192 43.008-100.864C71.681 14.336 108.369 0 153.089 0c46.416 0 88.576 19.104 126.464 57.344 7.168 6.832 16.384 17.408 27.647 31.744l49.137 64.513c13.311 17.743 22.191 28.847 26.624 33.279 25.264 25.264 50.336 37.889 75.28 37.889 20.128 0 36.512-6.832 49.136-20.48 11.264-11.249 17.744-25.76 19.456-43.52.336-1.697.512-4.097.512-7.168 0-7.504-1.008-14.496-3.072-20.993-3.056-10.591-8.688-20.32-16.896-29.184 0-.336-.177-.512-.513-.512-12.975-13.647-29.183-20.48-48.624-20.48-26.624 0-51.712 12.64-75.279 37.888l-43.52-56.832c-2.048-2.72-3.745-4.944-5.104-6.656 18.768-20.48 38.064-35.072 57.84-43.775C411.984 4.353 434.849 0 460.785 0c42.336 0 78.864 14.336 109.584 43.008h.495l.513.513c28.336 28.335 42.512 65.023 42.512 110.08 0 10.255-.865 20.99-2.56 32.255-5.456 30.384-18.96 56.497-40.448 78.336-20.816 21.152-46.4 34.657-76.8 40.449-11.264 1.695-21.84 2.544-31.728 2.544-47.792 0-90.128-18.593-126.992-55.792-7.856-7.857-17.408-19.296-28.672-34.305l-49.152-63.504c-13.312-17.744-22.192-28.832-26.624-33.28-25.264-25.264-50.688-37.888-76.288-37.888-7.504 0-14.336 1.024-20.48 3.072-9.905 2.737-19.28 8.528-28.16 17.408-9.904 10.928-16.032 23.04-18.432 36.352a68.108 68.108 0 0 0-1.536 14.336c0 19.473 6.32 36.016 18.944 49.664l1.024 1.008c13.312 13.664 29.872 20.48 49.664 20.48 26.976 0 52.048-12.8 75.264-38.384l43.008 56.32 4.607 6.144c-19.456 20.832-39.087 35.664-58.88 44.544s-41.983 13.328-66.559 13.328c-44.704 0-81.584-14.16-110.592-42.496v-.496C20.992 242.176 7.681 216.064 2.56 185.36.849 176.816 0 168.784 0 161.28z"/></svg>