<svg xmlns="http://www.w3.org/2000/svg" viewBox="0 0 512 512"><path d="M0 256c0-46.422 11.434-89.26 34.303-128.513 22.87-39.253 53.932-70.315 93.185-93.184S209.578 0 256 0c46.421 0 89.258 11.434 128.512 34.303s70.315 53.93 93.185 93.184C500.566 166.74 512 209.577 512 256c0 46.421-11.434 89.258-34.303 128.512-22.87 39.253-53.932 70.314-93.185 93.184C345.259 500.566 302.422 512 256 512c-46.421 0-89.259-11.435-128.512-34.304-39.253-22.87-70.315-53.93-93.185-93.184C11.434 345.259 0 302.422 0 256zm106.496 163.327c0 8.875 4.437 13.313 13.311 13.313h90.112c9.558 0 14.336-4.438 14.336-13.313v-24.575c0-8.875-4.778-13.312-14.336-13.312h-14.846V145.92h14.847c9.558 0 14.336-4.438 14.336-13.313v-24.576c0-8.874-4.778-13.311-14.336-13.311h-90.112c-8.874 0-13.311 4.437-13.311 13.311v24.577c0 8.875 4.437 13.313 13.311 13.313h15.872v235.52h-15.872c-8.874 0-13.311 4.437-13.311 13.312v24.575zm141.824 2.05c0 8.191 4.096 12.287 12.288 12.287h30.208c7.509 0 11.263-4.096 11.263-12.288V289.792c0-35.157 13.483-52.736 40.449-52.736 14.336 0 21.504 8.704 21.504 26.112v158.208c0 8.192 3.754 12.288 11.263 12.288h31.233c7.168 0 10.752-4.096 10.752-12.288V250.88c0-41.642-18.774-62.464-56.32-62.464-22.87 0-43.691 10.923-62.465 32.768l-3.584-18.432c-1.365-7.51-5.46-11.264-12.288-11.264h-22.015c-8.192 0-12.288 4.267-12.288 12.8v217.09z"/></svg>