<svg xmlns="http://www.w3.org/2000/svg" viewBox="0 0 686.5908813476562 307.20001220703125"><path d="M0 133.12c0-11.952.336-29.872 1.023-53.76 8.193-2.72 16.385-4.096 24.577-4.096h9.215c5.809 7.856 12.64 19.792 20.48 35.84s13.137 26.448 15.873 31.232c.672-2.4 2.048-8.624 4.096-18.689 2.047-10.08 3.744-17.328 5.12-21.76s3.248-10.671 5.632-18.687c2.383-8.017 5.024-14.944 7.936-20.736 2.896-5.808 6.224-11.088 9.984-15.872 9.552 1.696 17.408 2.56 23.552 2.56 2.048 0 3.936-.177 5.632-.513 8.191 18.433 15.968 46.256 23.296 83.457 7.344 37.215 13.92 63.664 19.712 79.376-.336 0-1.025-.192-2.048-.529l-1.536-.511c-3.072 0-7.52.944-13.313 2.816-5.807 1.872-9.567 2.992-11.263 3.328-13.664-34.48-24.24-69.104-31.744-103.937-5.12 8.88-7.68 24.065-7.68 45.584 0 21.504-1.888 36.512-5.632 45.04l-2.56-1.008c-2.72 0-6.48.336-11.264 1.008-4.769.672-8.353 1.008-10.752 1.008H69.12c-9.217-16.369-18.944-31.569-29.185-45.569-1.023 2.048-1.536 4.608-1.536 7.68 0 3.056.433 7.504 1.28 13.312.848 5.793 1.28 10.064 1.28 12.8l-.51 6.144c-10.241 5.12-19.105 7.68-26.625 7.68-2.385 0-4.097-.192-5.12-.512C2.895 186.718 0 162.462 0 133.118zm181.76 38.912c0-9.217 1.36-19.024 4.095-29.44 2.721-10.4 7.504-20.144 14.336-29.184 6.817-9.04 14.849-13.568 24.065-13.568 3.408 0 8.192.847 14.336 2.56s10.064 2.735 11.776 3.071a188.288 188.288 0 0 1 4.607 41.457c0 9.568-1.023 18.96-3.072 28.175-4.095-1.359-10.592-2.143-19.455-2.303-8.88-.193-15.184-.785-18.944-1.808-1.712 6.848-2.56 13.151-2.56 18.96 0 7.168 1.696 13.487 5.12 18.96 3.408 5.456 8.528 8.191 15.36 8.191 3.072 0 7.504-.863 13.311-2.56 5.809-1.711 10.24-2.56 13.313-2.56 5.807 0 9.727 2.385 11.776 7.168-14.336 5.456-28.336 8.193-41.984 8.193-15.697 0-27.313-5.104-34.817-15.36-7.504-10.257-11.263-23.568-11.263-39.952zm29.696-14.352l4.095-.496c1.025 0 2.384.336 4.096 1.024 1.696.672 2.897 1.008 3.584 1.008l3.584-1.552c.689-4.768 1.024-8.528 1.024-11.248 0-6.16-.864-12.976-2.56-20.48-7.504 8.544-12.111 19.12-13.823 31.744zm56.32 27.664c0-41.984 13.312-73.04 39.936-93.184 10.928 1.024 21.168 4.944 30.72 11.776-.336 5.808-1.696 17.232-4.096 34.32-1.696 13.312-2.56 24.4-2.56 33.28v7.152c-6.816.688-11.776 1.024-14.848 1.024-2.736 0-10.064-.864-22.016-2.56-1.712 4.096-2.56 8.016-2.56 11.776 0 7.504 2.896 13.904 8.704 19.184 5.808 5.297 12.464 7.936 19.968 7.936 8.88 0 15.872-3.92 20.992-11.776 6.144 2.064 9.728 4.976 10.752 8.72-7.504 7.152-18.256 10.752-32.256 10.752-12.64 0-24.576-3.424-35.84-10.255-11.264-6.801-16.896-16.193-16.896-28.145zm28.672-22.016c1.359 2.048 3.76 3.071 7.168 3.071h4.607c3.072-6.496 4.608-14.847 4.608-25.088 0-4.431-1.024-11.088-3.072-19.967-1.024 2.736-2.72 7.007-5.12 12.816-2.384 5.775-4.351 11.008-5.888 15.615-1.536 4.593-2.303 9.12-2.303 13.553zm50.688-9.728c-.672-8.88 3.248-13.312 11.776-13.312 2.064 0 5.12.192 9.216.528s7.008.496 8.704.496a80.705 80.705 0 0 0 1.552-15.872c0-9.888-1.28-24.655-3.84-44.288-2.56-19.632-3.84-34.384-3.84-44.287 0-14.673 1.712-26.977 5.12-36.865 1.695 1.024 6.224 1.968 13.568 2.816 7.343.848 14.255 5.024 20.736 12.544-2.048 8.88-3.072 20.32-3.072 34.304 0 6.832.688 20.656 2.064 41.472.688 11.952 1.008 22.353 1.008 31.232 0 6.816-.176 12.624-.512 17.408h3.071c2.385 0 3.92-1.024 4.609-3.072.687-2.047 1.023-4.176 1.023-6.384s.673-3.344 2.033-3.344c2.751 0 5.904 1.473 9.472 4.352 3.6 2.913 7.44 6.576 11.535 11.008 4.097 4.432 6.657 7.153 7.681 8.192-3.072 2.384-10 3.92-20.752 4.608-10.752.672-17.312 1.36-19.696 2.048-.336 4.097-.512 10.24-.512 18.432 0 5.457.096 11.088.256 16.896.191 5.792.432 12.304.784 19.456.336 7.168.496 12.8.496 16.912-2.72.336-6.656.672-11.776 1.008-5.105.336-8.865.672-11.248 1.008v-10.24c0-7.167-.512-16.896-1.536-29.168-1.376-15.024-2.064-25.44-2.064-31.248-2.032-.672-7.504-1.28-16.368-1.776-8.912-.512-15.393-2.144-19.488-4.864zm110.08-4.096c0-6.816.336-16.72 1.024-29.68 3.743.336 7.151 1.184 10.224 2.56 3.088 1.36 6.656 3.152 10.767 5.376 4.097 2.223 7.168 3.84 9.2 4.864l-.496 13.824c0 20.128 1.537 39.936 4.609 59.392 6.48-2.384 11.76-6.336 15.855-11.776 4.113-5.457 6.929-12.544 8.465-21.232 1.535-8.72 2.464-15.872 2.816-21.52.352-5.648.671-13.232 1.007-22.785v-5.647c1.008.336 2.56.512 4.609.512 6.832.688 15.183 4.96 25.088 12.8 0 1.024.08 2.656.256 4.88.175 2.224.255 3.84.255 4.864 0 5.104-.687 10.24-2.03 15.36-1.377 5.12-2.657 8.88-3.842 11.264-1.199 2.383-3.68 6.656-7.44 12.8-3.743 6.16-6.144 10.064-7.151 11.776-5.12 4.096-10.944 11.248-17.409 21.504-7.168 2.384-13.664 3.6-19.471 3.6-24.208-.016-36.336-24.272-36.336-72.736zm102.4 55.312c2.367-2.064 6.464-3.76 12.287-5.12 0-1.024.177-2.56.496-4.608 1.376-11.952 2.56-21.6 3.6-28.928 1.024-7.344 3.152-17.424 6.4-30.224 3.232-12.8 7.009-22.96 11.248-30.464 4.288-7.504 10.336-14.256 18.192-20.224 7.84-5.984 16.896-8.96 27.12-8.96 11.617 0 24.592 4.096 38.928 12.288 5.792 12.624 8.704 25.424 8.704 38.384 0 22.528-7.935 42.848-23.807 60.944-15.873 18.096-35.057 29.68-57.601 34.816-.688 10.928-1.023 19.12-1.023 24.576 0 24.928 3.07 44.896 9.215 59.904-2.72-.688-9.04-1.008-18.944-1.008-5.12 0-8.88-.336-11.264-1.024-3.072-7.168-5.887-23.568-8.448-49.152-2.56-25.584-7.6-42.672-15.103-51.2zM605.68 192c13.312-3.408 24.496-11.6 33.551-24.576 9.04-12.976 13.569-26.448 13.569-40.448 0-10.24-2.544-19.792-7.664-28.672-7.856 7.168-14.592 16.64-20.224 28.416-5.648 11.776-9.568 22.015-11.776 30.72-2.224 8.72-4.704 20.207-7.456 34.56z"/></svg>