<svg xmlns="http://www.w3.org/2000/svg" viewBox="0 0 651.7770385742188 358.4169921875"><path d="M.001 161.792V135.68c0-12.976 14.849-24.064 44.544-33.28 29.696-9.216 65.696-13.824 108.032-13.824 42.32 0 78.336 4.608 108.032 13.823 29.696 9.217 44.544 20.32 44.544 33.28v26.113c-.336 12.976-15.36 23.983-45.056 33.023-29.696 9.04-65.536 13.569-107.52 13.569-41.984 0-77.825-4.512-107.52-13.569C15.36 185.76.336 174.767 0 161.792zM146.946 37.376V23.552c.672-6.496 11.6-12.032 32.767-16.64C200.866 2.304 226.306 0 256.001 0c29.697 0 55.04 2.304 76.033 6.912 20.992 4.608 31.824 10.144 32.511 16.64h.513v13.824h-.513c-.687 6.832-11.52 12.544-32.511 17.151-20.993 4.609-46.336 6.913-76.033 6.913-29.695 0-55.135-2.304-76.288-6.913-21.168-4.607-32.095-10.319-32.767-17.151zM254.978 290.32v-32.784c1.359-19.104 21.328-35.248 59.903-48.368 38.576-13.152 84.816-19.712 138.736-19.712 53.936 0 100.096 6.56 138.496 19.712 38.4 13.12 58.288 29.264 59.664 48.368v32.784c-1.024 18.768-20.832 34.816-59.408 48.127-38.56 13.313-84.816 19.97-138.752 19.97-53.92 0-100.176-6.577-138.736-19.713-38.56-13.136-58.544-29.296-59.903-48.384zm116.736-174.608V94.208c.673-9.889 13.568-18.256 38.656-25.088 25.072-6.832 55.024-10.24 89.84-10.24s64.784 3.408 89.856 10.24 37.984 15.2 38.656 25.088v21.504c0 9.904-12.544 18.432-37.648 25.6-25.072 7.168-55.376 10.752-90.88 10.752s-65.776-3.584-90.88-10.752c-25.072-7.168-37.6-15.696-37.6-25.6z"/></svg>