<svg xmlns="http://www.w3.org/2000/svg" viewBox="0 0 667.155029296875 511.7629699707031"><path d="M273.899 402.468c103.522 0 138.494-4.688 138.494-4.688s-5.38-82.575-43.163-97.413c-37.785-14.868-47.027-12.756-60.154-20.669-.32-.186-.64-.382-.968-.547v-22.235c12.57-11.026 22.606-27.635 28.449-46.635 6.82-7.326 10.757-15.951 10.757-25.173 0-6.326-1.866-12.354-5.246-17.908-2.214-46.553-31.828-77.361-68.077-77.361-36.228 0-65.842 30.808-68.078 77.36-3.369 5.555-5.244 11.583-5.244 17.909 0 9.222 3.936 17.847 10.757 25.173 5.863 19 15.889 35.62 28.46 46.645v22.225c-.32.165-.65.361-.98.547-13.095 7.913-22.359 5.8-60.123 20.669-37.784 14.838-43.193 97.413-43.193 97.413s34.785 4.688 138.309 4.688zM447.838.001l219.317 255.896-219.317 255.866H24.37C10.902 511.763 0 500.871 0 487.414V24.368C0 10.911 10.902 0 24.37 0h423.468z"/></svg>