<svg xmlns="http://www.w3.org/2000/svg" viewBox="0 0 455.1679992675781 511.99993896484375"><path d="M0 230.912c0-41.648 10.16-80.208 30.464-115.712 20.32-35.504 47.872-63.568 82.688-84.225C147.967 10.32 186.032 0 227.328 0c62.8 0 116.48 22.528 161.008 67.584 44.56 45.055 66.832 99.504 66.832 163.328 0 40.624-9.727 78.24-29.184 112.896-19.456 34.656-45.728 62.368-78.864 83.2.336.672.96 1.792 1.808 3.328.848 1.536 2.816 4.272 5.872 8.193 3.072 3.935 6.656 7.68 10.752 11.263 4.097 3.584 9.728 7.248 16.912 11.008 7.152 3.744 14.848 6.656 23.024 8.688v38.928C393.2 510.8 381.776 512 371.184 512c-17.072 0-31.584-3.055-43.52-9.216-19.12-9.888-34.656-25.936-46.592-48.128-16.384 4.432-34.32 6.656-53.76 6.656-40.96 0-78.928-10.32-113.92-30.976-34.992-20.656-62.64-48.64-82.944-83.968C10.161 311.04.001 272.56.001 230.912zm113.152 30.208c0 39.6 11.343 73.472 34.048 101.632 22.687 28.16 50.08 42.256 82.175 42.256 8.88 0 17.744-1.376 26.624-4.096a199.531 199.531 0 0 1-2.816-4.352c-1.184-1.872-3.664-5.024-7.44-9.472-3.744-4.432-7.744-8.448-12.032-12.032-4.271-3.584-9.551-6.928-15.855-9.984-6.32-3.072-12.545-4.784-18.689-5.12v-45.056c3.409-.336 6.817-.496 10.24-.496 40.625 0 75.264 15.36 103.937 46.08 21.503-27.648 32.255-60.768 32.255-99.327V201.76c0-39.6-11.343-73.472-34.03-101.632-22.721-28.16-50.097-42.24-82.193-42.24-32.08 0-59.472 14.08-82.176 42.24s-34.048 62.032-34.048 101.632v59.36z"/></svg>