<svg xmlns="http://www.w3.org/2000/svg" viewBox="0 0 440.8319396972656 512"><path d="M.001 364.544c0-15.008 5.376-27.985 16.128-38.928 10.752-10.912 23.807-16.368 39.168-16.368 15.007 0 28 5.472 38.912 16.368 10.927 10.944 16.383 23.903 16.383 38.928 0 15.696-5.807 29.008-17.408 39.936 22.177 25.247 50 37.888 83.456 37.888 23.569 0 43.36-7.008 59.393-20.992 16.048-14.336 24.063-32.416 24.063-54.288 0-13.312-4.271-26.432-12.8-39.408-7.855-12.976-18.095-23.904-30.719-32.784-11.616-7.84-31.232-17.568-58.88-29.184-25.6-10.24-46.416-20.304-62.464-30.208-14.336-9.216-26.8-20.128-37.376-32.768-10.24-12.288-18.097-24.912-23.553-37.889-4.783-13.295-7.168-26.783-7.168-40.431 0-34.48 13.825-63.824 41.473-88.065C96.593 12.112 130.224 0 169.472 0c26.305 0 52.752 5.632 79.36 16.896 22.529 9.552 41.825 23.216 57.857 40.96 12.624 10.928 18.943 24.575 18.943 40.96 0 15.36-5.456 28.416-16.368 39.168s-23.903 16.128-38.912 16.128c-15.376 0-28.416-5.376-39.168-16.128-10.768-10.752-16.128-23.808-16.128-39.168 0-7.168 1.696-14.673 5.105-22.528-10.928-5.456-25.937-8.192-45.056-8.192-23.553 0-42.673 5.296-57.345 15.872s-22.015 24.24-22.015 40.96c0 14.672 6.48 27.648 19.456 38.912 13.647 11.264 35.488 23.376 65.536 36.352 31.407 13.648 55.472 26.112 72.208 37.376 17.407 11.6 31.391 24.24 41.968 37.888 11.28 14 19.471 28.496 24.576 43.52 0 .335.176.864.512 1.552.336.672.511 1.184.511 1.536-25.615 21.168-38.4 48.128-38.4 80.896 0 18.096 4.785 35.84 14.337 53.248a390.154 390.154 0 0 1-12.288 13.824C254.481 498 219.313 512 178.689 512s-76.113-10.928-106.496-32.768c-30.385-21.84-54.097-54.96-71.168-99.328l1.535-.513C.848 374.288 0 369.311 0 364.544zm313.856 38.4c0-17.408 6.143-32.352 18.447-44.8 12.288-12.448 27.312-18.688 45.057-18.688s32.752 6.24 45.055 18.687c12.273 12.465 18.416 27.393 18.416 44.801 0 17.744-6.143 32.848-18.448 45.312-12.288 12.464-27.311 18.688-45.056 18.688s-32.752-6.224-45.055-18.688c-12.273-12.448-18.416-27.568-18.416-45.312z"/></svg>