<svg xmlns="http://www.w3.org/2000/svg" viewBox="0 0 504.83197021484375 512"><path d="M0 139.776c0-38.571 13.653-71.51 40.96-98.816S101.205 0 139.776 0c26.624 0 51.37 7.168 74.24 21.503 12.288-2.389 25.941-3.583 40.96-3.583 66.56 0 123.392 23.552 170.495 70.656 47.105 47.104 70.657 103.765 70.657 169.983 0 16.726-1.878 33.963-5.632 51.713 9.557 20.138 14.336 40.789 14.336 61.95 0 38.572-13.654 71.51-40.96 98.817S403.626 512 365.055 512c-23.21 0-45.226-5.461-66.048-16.384-15.36 2.73-30.037 4.096-44.032 4.096-66.218 0-122.879-23.552-169.983-70.656C37.888 381.952 14.336 325.12 14.336 258.56c0-16.042 1.536-32.085 4.608-48.128C6.314 188.246 0 164.694 0 139.777zm113.152 187.392c0 13.995 5.12 28.502 15.36 43.52 24.234 35.498 66.218 53.248 125.951 53.248 17.067 0 33.537-1.878 49.408-5.632 15.872-3.755 30.805-9.557 44.8-17.407 13.995-7.851 25.259-18.689 33.792-32.513 8.533-13.824 12.8-29.952 12.8-48.384 0-19.797-5.035-36.523-15.104-50.176-10.07-13.653-22.613-23.552-37.631-29.696-15.02-6.144-31.318-11.69-48.897-16.64s-33.877-8.874-48.895-11.776c-15.02-2.901-27.564-7.338-37.633-13.312-10.07-5.973-15.104-13.568-15.104-22.784 0-11.264 6.23-19.627 18.689-25.088 12.458-5.461 25.173-8.192 38.143-8.192 13.653 0 24.917 2.133 33.792 6.4s15.36 9.386 19.456 15.36c4.096 5.973 7.68 11.946 10.752 17.92s7.254 11.093 12.544 15.36 12.032 6.4 20.224 6.4c9.216 0 17.323-3.242 24.32-9.728 6.998-6.485 10.496-14.336 10.496-23.552s-2.56-18.432-7.68-27.648c-10.24-18.773-26.453-32.426-48.64-40.96-22.186-8.533-45.738-12.8-70.655-12.8-15.702 0-30.892 1.536-45.569 4.608-14.677 3.072-28.842 8.021-42.496 14.848-13.653 6.827-24.66 16.47-33.024 28.928-8.363 12.459-12.544 27.221-12.544 44.288 0 22.528 6.827 40.704 20.48 54.528 13.653 13.824 30.208 23.552 49.665 29.184a794.579 794.579 0 0 0 58.624 14.593c19.626 4.095 36.266 9.812 49.92 17.15 13.652 7.34 20.479 17.324 20.479 29.953 0 9.898-3.925 18.261-11.775 25.088-7.851 6.827-16.47 11.435-25.857 13.824s-19.03 3.584-28.928 3.584c-12.97 0-23.978-1.792-33.024-5.376-9.045-3.584-15.616-8.192-19.712-13.824s-7.935-11.606-11.52-17.92-6.655-12.288-9.215-17.92c-2.56-5.632-6.4-10.24-11.52-13.824s-11.435-5.376-18.944-5.376c-9.558 0-17.835 2.901-24.832 8.704-6.997 5.803-10.496 13.483-10.496 23.04z"/></svg>