<svg xmlns="http://www.w3.org/2000/svg" viewBox="0 0 522.2630004882812 522.2689819335938"><path d="M336.817 37.056C329.037 13.106 303.313 0 279.369 7.784c-23.952 7.78-37.06 33.504-29.274 57.45l117.894 362.73c8.097 22.374 32.265 34.946 55.465 28.27 24.199-6.967 38.949-32.669 31.227-56.434L336.817 37.056zM154.141 96.412c-7.785-23.948-33.506-37.052-57.452-29.273-23.953 7.78-37.06 33.5-29.274 57.453l117.894 362.732c8.096 22.372 32.266 34.945 55.466 28.263 24.2-6.96 38.948-32.664 31.227-56.433l-117.86-362.74zM485.212 337.47c23.95-7.78 37.051-33.5 29.271-57.452-7.78-23.947-33.504-37.056-57.449-29.274l-362.73 117.9c-22.374 8.09-34.946 32.26-28.27 55.46C73 448.3 98.702 463.052 122.468 455.33l362.744-117.86zM169.905 439.92l86.694-28.168-28.172-86.704-86.7 28.18 28.176 86.694zm182.678-59.36c32.775-10.644 63.239-20.544 86.695-28.166l-28.176-86.72-86.7 28.18 28.18 86.708zm73.274-225.768c23.948-7.78 37.054-33.5 29.274-57.454-7.78-23.948-33.5-37.054-57.452-29.275L34.945 185.965C12.573 194.053 0 218.223 6.681 241.423c6.96 24.197 32.664 38.949 56.434 31.226l362.74-117.859zM110.532 257.246c23.61-7.672 54.05-17.565 86.708-28.172-10.646-32.78-20.546-63.244-28.168-86.704l-86.72 28.184 28.18 86.692zm182.676-59.354l86.712-28.176c-10.653-32.786-20.552-63.26-28.181-86.72l-86.711 28.184 28.18 86.712z"/></svg>