<svg xmlns="http://www.w3.org/2000/svg" viewBox="0 0 512.0009765625 512"><path d="M.002 121.856c0-8.534 2.73-16.3 8.192-23.297 5.461-6.997 12.458-11.52 20.991-13.567l100.864-24.065c-21.504 24.576-32.256 53.249-32.256 86.017 0 63.146 43.179 111.445 129.536 144.896a290.213 290.213 0 0 1 27.648 12.544c8.875 4.608 18.176 10.325 27.904 17.152 9.728 6.827 17.579 14.763 23.552 23.808 5.973 9.045 8.96 18.517 8.96 28.416 0 14.677-5.973 26.112-17.92 34.304-11.947 8.192-25.6 12.287-40.96 12.287-19.797 0-40.448-3.84-61.952-11.52-21.504-7.68-39.424-18.005-53.76-30.975l-40.448 91.648c19.115 10.581 43.691 20.992 73.728 31.232-3.413.682-8.789 2.133-16.127 4.352s-13.91 3.925-19.712 5.12S126.978 512 121.858 512c-8.534 0-16.3-2.73-23.297-8.193-6.997-5.46-11.52-12.458-13.567-20.99L1.025 131.071C.342 126.975 0 123.903 0 121.855zm214.528 23.552c0-12.97 5.973-22.955 17.92-29.952s24.917-10.496 38.912-10.496c16.725 0 35.498 2.986 56.319 8.96 20.822 5.973 35.84 13.909 45.057 23.807l31.231-87.039c-30.72-16.384-62.464-27.136-95.231-32.257.682 0 8.362-2.047 23.04-6.143 14.677-4.096 26.88-7.168 36.607-9.216C378.113 1.024 385.366 0 390.145 0c8.534 0 16.3 2.73 23.297 8.192 6.996 5.461 11.519 12.458 13.567 20.991l83.968 351.744c.683 4.097 1.024 7.169 1.024 9.216 0 8.534-2.73 16.3-8.192 23.297-5.461 6.997-12.458 11.52-20.991 13.568l-74.24 17.408c16.042-23.893 24.063-49.835 24.063-77.824 0-37.888-12.032-69.035-36.096-93.44-24.064-24.406-55.552-43.094-94.464-56.064-58.367-19.798-87.551-43.691-87.551-71.68z"/></svg>