<svg xmlns="http://www.w3.org/2000/svg" viewBox="0 0 631.281005859375 512"><path d="M0 457.216l53.76-189.952c11.953-6.832 26.544-12.111 43.777-15.872 17.231-3.743 31.487-5.968 42.752-6.656l17.408-.512c17.071 0 34.816 1.696 53.248 5.12 34.48 6.832 59.04 17.232 73.728 31.232l-53.248 189.44c-12.288-9.552-25.856-17.328-40.704-23.297-14.848-5.967-26.544-9.471-35.073-10.496l-13.311-2.048c-11.6-1.007-22.689-1.536-33.28-1.536-5.457 0-12.705.273-21.76.769-9.04.512-23.296 2.815-42.752 6.912-19.456 4.08-34.304 9.727-44.544 16.895zm64.512-244.224l53.76-189.952c11.952-6.832 26.624-12.208 44.032-16.128 17.409-3.936 31.745-6.064 43.008-6.4L222.21 0c17.408 0 35.152 1.696 53.248 5.12 34.48 6.832 59.04 17.248 73.727 31.232l-53.248 189.952c-12.288-9.552-25.855-17.329-40.704-23.296-14.848-5.984-26.544-9.472-35.071-10.496l-13.313-2.048c-11.952-1.024-22.88-1.536-32.767-1.536-5.456 0-12.704.255-21.76.768-9.04.512-23.376 2.735-43.009 6.655-19.632 3.937-34.56 9.473-44.8 16.641zm220.673 262.672l53.248-189.968c12.624 9.567 26.352 17.328 41.215 23.312 14.85 5.967 26.529 9.472 35.057 10.48l12.815 2.048c11.601 1.023 22.689 1.536 33.265 1.536 5.456 0 12.72-.256 21.76-.752 9.024-.528 23.376-2.752 43.008-6.656 19.631-3.937 34.4-9.488 44.303-16.656l-53.248 189.968c-11.95 6.816-26.623 12.112-44.03 15.856-17.409 3.76-31.745 5.792-43.009 6.144L412.673 512c-17.408 0-35.152-1.696-53.248-5.12-34.464-6.816-59.216-17.231-74.24-31.216zm61.44-243.216l53.248-189.44c12.624 9.552 26.368 17.328 41.215 23.296 14.848 5.969 26.529 9.473 35.056 10.496l12.817 2.048c11.6 1.024 22.687 1.536 33.28 1.536 5.456 0 12.704-.256 21.744-.768 9.039-.512 23.296-2.736 42.752-6.656 19.472-3.935 34.32-9.472 44.544-16.64l-53.248 189.44c-11.952 6.832-26.624 12.208-44.032 16.127s-31.92 6.048-43.52 6.385l-16.912 1.024a248.99 248.99 0 0 1-52.72-5.632c-34.465-6.464-59.216-16.88-74.224-31.216z"/></svg>