<svg xmlns="http://www.w3.org/2000/svg" viewBox="0 0 512 511.9999694824219"><path d="M0 256c0-46.421 11.434-89.259 34.303-128.512 22.87-39.253 53.932-70.315 93.185-93.184C166.741 11.434 209.578 0 256 0c46.421 0 89.258 11.435 128.512 34.304 39.253 22.87 70.315 53.93 93.185 93.184C500.566 166.741 512 209.578 512 256s-11.434 89.259-34.303 128.513c-22.87 39.253-53.932 70.314-93.185 93.184S302.422 512 256 512c-46.421 0-89.259-11.434-128.512-34.303s-70.315-53.93-93.185-93.184C11.434 345.259 0 302.421 0 256zm19.967 0c0 46.08 12.203 88.235 36.609 126.464 24.405 38.23 56.575 66.902 96.512 86.017L40.448 159.745c-13.654 30.378-20.48 62.464-20.48 96.255zm38.4-129.536h15.36c16.384 0 37.377-1.024 62.977-3.071 4.096-.342 7.082 1.023 8.96 4.095s2.133 6.315.767 9.728c-1.365 3.413-4.095 5.291-8.191 5.633l-27.137 2.56 86.017 255.487 51.712-154.624-36.865-100.864a598.694 598.694 0 0 0-24.576-2.56c-4.095-.341-6.826-2.219-8.191-5.632-1.365-3.413-1.11-6.655.767-9.728 1.878-3.072 4.865-4.437 8.96-4.095l61.953 3.071c16.725 0 37.717-1.024 62.976-3.071 4.096-.342 7.082 1.023 8.96 4.095 1.877 3.073 2.133 6.315.768 9.728-1.366 3.413-4.096 5.291-8.193 5.633l-26.624 2.56 84.992 253.951 23.552-78.847c12.289-39.937 18.433-65.366 18.433-76.288 0-21.846-6.656-43.692-19.968-65.537-.683-1.024-2.816-4.608-6.4-10.752s-5.888-10.154-6.912-12.032-2.56-5.12-4.608-9.727c-2.048-4.608-3.414-8.62-4.097-12.033-.682-3.413-1.023-6.997-1.023-10.752 0-11.264 3.84-21.077 11.52-29.44s17.152-12.544 28.416-12.544c.34 0 .853.085 1.536.256s1.195.256 1.536.256C371.029 40.62 317.781 19.969 256 19.969c-40.619 0-78.336 9.557-113.152 28.672-34.816 19.114-62.976 45.055-84.48 77.823zM189.44 482.816c21.162 6.144 43.348 9.216 66.56 9.216 27.306 0 53.418-4.437 78.335-13.312l-1.536-3.072-72.704-199.168zm185.343-22.528c35.84-20.821 64.34-49.408 85.504-85.76 21.162-36.352 31.744-75.862 31.744-118.528 0-40.96-9.558-78.677-28.672-113.151 1.024 7.168 1.536 15.19 1.536 24.063 0 21.504-5.974 49.665-17.921 84.481z"/></svg>