<svg xmlns="http://www.w3.org/2000/svg" viewBox="0 0 48 48"><path d="M10.71 11.28a4.007 4.007 0 0 1-.99-5.57 3.996 3.996 0 0 1 5.57-.98 3.996 3.996 0 0 1-4.58 6.55zM32 38H17.86a6 6 0 0 1-5.93-5.08L8 14H4l3.99 19.51A9.993 9.993 0 0 0 17.87 42H32v-4zm.46-8H22.7l-2.05-8.2c3.15 1.78 6.56 3.09 10.3 2.44v-4.25c-3.26.61-6.88-.55-9.38-2.49l-3.29-2.56c-.45-.35-.98-.6-1.53-.76-.63-.18-1.31-.23-1.98-.12l-.05.01a4.501 4.501 0 0 0-3.66 5.21l2.71 11.84A6 6 0 0 0 19.66 36h13.7L41 42l3-3-11.54-9z"/><path fill="none" d="M0 0h48v48H0z"/></svg>