<svg xmlns="http://www.w3.org/2000/svg" viewBox="0 0 40.709999084472656 40.290000915527344"><path d="M20.71 8.29c7.73 0 14 6.27 14 14 0 1.69-.31 3.3-.86 4.8l3.04 3.04a17.79 17.79 0 0 0 1.82-7.84c0-9.94-8.06-18-18.01-18-2.81 0-5.46.66-7.84 1.81l3.05 3.05c1.5-.55 3.11-.86 4.8-.86zm20-.56L31.52.02l-2.57 3.06 9.19 7.71 2.57-3.06zM2.55.88L0 3.42l2.66 2.66L.44 7.94l2.84 2.84L5.5 8.92l1.6 1.6a17.944 17.944 0 0 0-4.39 11.77c0 9.94 8.04 18 17.99 18 4.51 0 8.62-1.67 11.77-4.4l4.4 4.4 2.54-2.55L4.5 2.83 2.55.88zm27.1 32.19a13.97 13.97 0 0 1-8.94 3.22c-7.73 0-14-6.27-14-14 0-3.4 1.21-6.51 3.22-8.94l19.72 19.72zM12.74 2.84L9.9 0 8.2 1.43l2.84 2.84 1.7-1.43z"/></svg>