<svg xmlns="http://www.w3.org/2000/svg" viewBox="0 0 48 48.09983825683594"><path fill="none" d="M0 .1h48v48H0z"/><path d="M12 36.1c0 1.1.9 2 2 2h2v7c0 1.66 1.34 3 3 3s3-1.34 3-3v-7h4v7c0 1.66 1.34 3 3 3s3-1.34 3-3v-7h2c1.1 0 2-.9 2-2v-20H12v20zm-5-20c-1.66 0-3 1.34-3 3v14c0 1.66 1.34 3 3 3s3-1.34 3-3v-14c0-1.66-1.34-3-3-3zm34 0c-1.66 0-3 1.34-3 3v14c0 1.66 1.34 3 3 3s3-1.34 3-3v-14c0-1.66-1.34-3-3-3zM31.06 4.42l2.61-2.61A.997.997 0 1 0 32.26.4L29.3 3.35A11.92 11.92 0 0 0 24 2.1c-1.92 0-3.72.46-5.33 1.26L15.7.39a.997.997 0 1 0-1.41 1.41l2.62 2.62C13.94 6.61 12 10.13 12 14.1h24c0-3.98-1.95-7.5-4.94-9.68zM20 10.1h-2v-2h2v2zm10 0h-2v-2h2v2z"/></svg>