<svg xmlns="http://www.w3.org/2000/svg" viewBox="0 0 38 38"><path d="M23 9c1.1 0 2-.9 2-2s-.9-2-2-2-2 .9-2 2 .9 2 2 2zm-.4 8.96c.13.02.26.04.4.04 1.66 0 3-1.34 3-3s-1.34-3-3-3-3 1.34-3 3c0 .14.02.27.04.41a2.991 2.991 0 0 0 2.56 2.55zM23 2c.55 0 1-.45 1-1s-.45-1-1-1-1 .45-1 1 .45 1 1 1zm-8 0c.55 0 1-.45 1-1s-.45-1-1-1-1 .45-1 1 .45 1 1 1zm22 14c.55 0 1-.45 1-1s-.45-1-1-1-1 .45-1 1 .45 1 1 1zM15 9c1.1 0 2-.9 2-2s-.9-2-2-2-2 .9-2 2 .9 2 2 2zm16 16c1.1 0 2-.9 2-2s-.9-2-2-2-2 .9-2 2 .9 2 2 2zm0-8c1.1 0 2-.9 2-2s-.9-2-2-2-2 .9-2 2 .9 2 2 2zm0-8c1.1 0 2-.9 2-2s-.9-2-2-2-2 .9-2 2 .9 2 2 2zm-8 27c-.55 0-1 .45-1 1s.45 1 1 1 1-.45 1-1-.45-1-1-1zM0 5.55l7.57 7.57C7.38 13.06 7.2 13 7 13c-1.1 0-2 .9-2 2s.9 2 2 2 2-.9 2-2c0-.2-.06-.38-.11-.57l5.62 5.62A2.996 2.996 0 0 0 15 26a2.99 2.99 0 0 0 2.95-2.5l5.62 5.62c-.18-.06-.37-.12-.57-.12-1.1 0-2 .9-2 2s.9 2 2 2 2-.9 2-2c0-.2-.06-.38-.11-.57L32.45 38 35 35.45 2.55 3 0 5.55zM15 29c-1.1 0-2 .9-2 2s.9 2 2 2 2-.9 2-2-.9-2-2-2zm22-7c-.55 0-1 .45-1 1s.45 1 1 1 1-.45 1-1-.45-1-1-1zM7 21c-1.1 0-2 .9-2 2s.9 2 2 2 2-.9 2-2-.9-2-2-2zm-6-7c-.55 0-1 .45-1 1s.45 1 1 1 1-.45 1-1-.45-1-1-1zm14 22c-.55 0-1 .45-1 1s.45 1 1 1 1-.45 1-1-.45-1-1-1zm-8-7c-1.1 0-2 .9-2 2s.9 2 2 2 2-.9 2-2-.9-2-2-2zm-6-7c-.55 0-1 .45-1 1s.45 1 1 1 1-.45 1-1-.45-1-1-1z"/></svg>