<svg xmlns="http://www.w3.org/2000/svg" viewBox="0 0 1532.4000244140625 3600"><path fill="none" d="M33.2 0h1400v3600H33.2zm33 0h1400v3600H66.2zm.2 0h1400v3600H66.4zm33 0h1400v3600H99.4zM0 0h1400v3600H0zm33 0h1400v3600H33zm.1 0h1400v3600H33.1zm33 0h1400v3600H66.1zM663 2628.2v24h24v-24h-24zm-12-12v48h48v-48h-48zm42 38c0 2.2-1.8 4-4 4h-28c-2.2 0-4-1.8-4-4v-28c0-2.2 1.8-4 4-4h28c2.2 0 4 1.8 4 4m6-10h-48v48h48v-48z"/><path d="M693 2626.2v13.2l-6-6-8 8-8-8-8 8-6-6v-9.2c0-2.2 1.8-4 4-4h28c2.2 0 4 1.8 4 4zm-6 12.8l6 6v9.2c0 2.2-1.8 4-4 4h-28c-2.2 0-4-1.8-4-4V2641l6 6 8-8 8 8 8-8z"/><path fill="none" d="M66.3 0h1400v3600H66.3zm33 0h1400v3600H99.3zm.1 0h1400v3600H99.4zm33 0h1400v3600h-1400zM33.1 0h1400v3600H33.1zm33 0h1400v3600H66.1zm.1 0h1400v3600H66.2zm33 0h1400v3600H99.2z"/></svg>