<svg xmlns="http://www.w3.org/2000/svg" viewBox="0 0 48 17.720001220703125"><path d="M24 4c-3.21 0-6.3.5-9.2 1.44v6.21c0 .79-.46 1.47-1.12 1.8-1.95.98-3.74 2.23-5.33 3.7-.36.35-.85.57-1.4.57-.55 0-1.05-.22-1.41-.59L.59 12.18c-.37-.37-.59-.87-.59-1.42 0-.55.22-1.05.59-1.42C6.68 3.55 14.93 0 24 0s17.32 3.55 23.41 9.34c.37.36.59.87.59 1.42 0 .55-.22 1.05-.59 1.41l-4.95 4.95c-.36.36-.86.59-1.41.59-.54 0-1.04-.22-1.4-.57a23.202 23.202 0 0 0-5.33-3.7 2.015 2.015 0 0 1-1.12-1.8V5.43A30.07 30.07 0 0 0 24 4z"/></svg>