<svg xmlns="http://www.w3.org/2000/svg" viewBox="0 0 40 40.000003814697266"><path d="M14.8 17L24.33.49C22.94.18 21.49 0 20 0c-4.8 0-9.19 1.69-12.64 4.51l7.33 12.69.11-.2zm24.28-3c-1.84-5.85-6.3-10.52-11.99-12.68L19.77 14h19.31zm.52 2H24.62l.58 1 9.53 16.5C37.99 29.94 40 25.21 40 20c0-1.37-.14-2.71-.4-4zm-26.53 4L5.27 6.5C2.01 10.06 0 14.79 0 20c0 1.37.14 2.71.4 4h14.98l-2.31-4zM.92 26c1.84 5.85 6.3 10.52 11.99 12.68L20.23 26H.92zm22.54 0l-7.8 13.51c1.4.31 2.85.49 4.34.49 4.8 0 9.19-1.69 12.64-4.51L25.31 22.8 23.46 26z"/></svg>