<svg xmlns="http://www.w3.org/2000/svg" viewBox="0 0 40 38.00160217285156"><path d="M36 8.002h-4.37c.22-.63.37-1.3.37-2 0-3.31-2.69-6-6-6-2.09 0-3.93 1.07-5 2.69l-1 1.36-1-1.36a5.983 5.983 0 0 0-5-2.69c-3.31 0-6 2.69-6 6 0 .7.14 1.37.37 2H4c-2.21 0-3.98 1.79-3.98 4l-.02 22c0 2.21 1.79 4 4 4h32c2.21 0 4-1.79 4-4v-22c0-2.21-1.79-4-4-4zm-10-4c1.1 0 2 .9 2 2s-.9 2-2 2-2-.9-2-2 .9-2 2-2zm-12 0c1.1 0 2 .9 2 2s-.9 2-2 2-2-.9-2-2 .9-2 2-2zm22 30H4v-4h32v4zm0-10H4v-12h10.16L10 17.672l3.25 2.33 4.75-6.47 2-2.72 2 2.72 4.75 6.47 3.25-2.33-4.16-5.67H36v12z"/></svg>