<svg xmlns="http://www.w3.org/2000/svg" viewBox="0 0 39.80000305175781 39.80000305175781"><path d="M17.9 4.04V0c-4.02.4-7.68 2-10.65 4.42l2.85 2.85c2.22-1.71 4.88-2.87 7.8-3.23zm14.65.38A19.93 19.93 0 0 0 21.9 0v4.04c2.92.37 5.58 1.52 7.8 3.24l2.85-2.86zm3.21 13.48h4.04c-.4-4.02-2-7.68-4.42-10.65l-2.85 2.85c1.71 2.22 2.87 4.88 3.23 7.8zM7.28 10.1L4.43 7.25C2 10.22.4 13.88 0 17.9h4.04c.37-2.92 1.52-5.58 3.24-7.8zM4.04 21.9H0c.4 4.02 2 7.68 4.42 10.65l2.85-2.85a16.097 16.097 0 0 1-3.23-7.8zm21.86-2c0-3.31-2.69-6-6-6s-6 2.69-6 6 2.69 6 6 6 6-2.69 6-6zm6.62 9.79l2.85 2.85c2.43-2.96 4.03-6.62 4.43-10.64h-4.04c-.36 2.91-1.52 5.58-3.24 7.79zM21.9 35.76v4.04c4.02-.4 7.68-2 10.65-4.42l-2.85-2.85a16.057 16.057 0 0 1-7.8 3.23zm-14.65-.38c2.97 2.42 6.63 4.02 10.65 4.42v-4.04c-2.92-.37-5.58-1.52-7.8-3.24l-2.85 2.86z"/></svg>