<svg xmlns="http://www.w3.org/2000/svg" viewBox="0 0 36.000003814697266 41.55999755859375"><path d="M28 37.56c-.57 0-1.13-.12-1.53-.3-1.41-.75-2.43-1.77-3.42-4.77-1.03-3.11-2.94-4.58-4.79-6.01-1.58-1.22-3.22-2.48-4.63-5.05-1.05-1.92-1.63-4.01-1.63-5.87 0-5.61 4.39-10 10-10s10 4.39 10 10h4c0-7.85-6.15-14-14-14s-14 6.15-14 14c0 2.53.76 5.3 2.13 7.8 1.82 3.31 3.97 4.96 5.7 6.3 1.62 1.25 2.79 2.15 3.43 4.09 1.2 3.63 2.75 5.68 5.45 7.1 1.04.47 2.14.71 3.29.71 4.41 0 8-3.59 8-8h-4c0 2.21-1.79 4-4 4zM9.27 2.83L6.44 0C2.46 3.98 0 9.48 0 15.56s2.46 11.58 6.44 15.56l2.83-2.83C6.01 25.03 4 20.53 4 15.56S6.01 6.09 9.27 2.83zM17 15.56c0 2.76 2.24 5 5 5s5-2.24 5-5-2.24-5-5-5-5 2.24-5 5z"/></svg>