<svg xmlns="http://www.w3.org/2000/svg" viewBox="0 0 40 40"><path d="M19.99 0C8.94 0 0 8.95 0 20s8.94 20 19.99 20C31.04 40 40 31.05 40 20S31.04 0 19.99 0zm13.85 12h-5.9c-.65-2.5-1.56-4.9-2.76-7.12 3.68 1.26 6.74 3.81 8.66 7.12zM20 4.07c1.67 2.4 2.97 5.07 3.82 7.93h-7.64c.85-2.86 2.15-5.53 3.82-7.93zM4.52 24C4.19 22.72 4 21.38 4 20s.19-2.72.52-4h6.75c-.16 1.31-.27 2.64-.27 4 0 1.36.11 2.69.28 4H4.52zm1.63 4h5.9c.65 2.5 1.56 4.9 2.76 7.13A16.034 16.034 0 0 1 6.15 28zm5.9-16h-5.9c1.92-3.31 4.98-5.87 8.66-7.13C13.61 7.1 12.7 9.5 12.05 12zM20 35.93c-1.66-2.4-2.96-5.07-3.82-7.93h7.64c-.86 2.86-2.16 5.53-3.82 7.93zM24.68 24h-9.36c-.19-1.31-.32-2.64-.32-4 0-1.36.13-2.69.32-4h9.36c.19 1.31.32 2.64.32 4 0 1.36-.13 2.69-.32 4zm.51 11.12c1.2-2.23 2.11-4.62 2.76-7.12h5.9a16.087 16.087 0 0 1-8.66 7.12zM28.72 24c.16-1.31.28-2.64.28-4 0-1.36-.11-2.69-.28-4h6.75c.33 1.28.53 2.62.53 4s-.19 2.72-.53 4h-6.75z"/></svg>