<svg xmlns="http://www.w3.org/2000/svg" viewBox="0 0 36 36.00000762939453"><path d="M14 0h-4c0 .73-.09 1.44-.24 2.13l3.19 3.19C13.62 3.67 14 1.88 14 0zM0 2.55l5.68 5.68A10.01 10.01 0 0 1 0 10v4c3.22 0 6.17-1.1 8.53-2.92l2.85 2.85A17.873 17.873 0 0 1 0 18v4c5.43 0 10.39-1.97 14.22-5.23l5.01 5.01A21.856 21.856 0 0 0 14 36h4c0-4.32 1.53-8.29 4.07-11.39l2.85 2.85C23.1 29.83 22 32.78 22 36h4c0-2.11.66-4.06 1.78-5.68L33.46 36 36 33.45 2.55 0 0 2.55zM22 0h-4c0 3-.75 5.83-2.05 8.32l2.93 2.93C20.85 7.95 22 4.12 22 0zm11.87 26.24c.69-.15 1.4-.24 2.13-.24v-4c-1.88 0-3.67.38-5.31 1.05l3.18 3.19zm-9.12-9.12l2.93 2.93C30.17 18.75 33 18 36 18v-4c-4.12 0-7.95 1.15-11.25 3.12z"/></svg>