<svg xmlns="http://www.w3.org/2000/svg" viewBox="0 0 48 48"><path fill="none" d="M0 0h48v48H0z"/><path d="M41.88 22.34C40.96 14 34.34 7.38 26 6.46V2.34h-4v4.12c-2.26.25-4.38.93-6.31 1.94l3 3c1.64-.67 3.43-1.05 5.31-1.05 7.73 0 14 6.27 14 14 0 1.88-.38 3.67-1.05 5.31l3 3c1.01-1.93 1.68-4.05 1.93-6.31H46v-4h-4.12zM6 8.89l4.07 4.07c-2.14 2.62-3.57 5.84-3.96 9.38H2v4h4.12C7.04 34.68 13.66 41.3 22 42.22v4.12h4v-4.12c3.54-.39 6.76-1.82 9.38-3.96l4.08 4.08L42 39.8 8.55 6.34 6 8.89zm26.53 26.53A13.937 13.937 0 0 1 24 38.34c-7.73 0-14-6.27-14-14 0-3.22 1.1-6.17 2.92-8.53l19.61 19.61z"/></svg>