<svg xmlns="http://www.w3.org/2000/svg" viewBox="0 0 36 44.400001525878906"><path d="M28 8.4c1.66 0 3-1.34 3-3 0-2-3-5.4-3-5.4s-3 3.4-3 5.4c0 1.66 1.34 3 3 3zm-10 0c1.66 0 3-1.34 3-3 0-2-3-5.4-3-5.4s-3 3.4-3 5.4c0 1.66 1.34 3 3 3zm-10 0c1.66 0 3-1.34 3-3C11 3.4 8 0 8 0S5 3.4 5 5.4c0 1.66 1.34 3 3 3zm23.84 6.02A3.007 3.007 0 0 0 29 12.4H7c-1.31 0-2.43.84-2.84 2.02L0 26.4v16c0 1.1.9 2 2 2h2a2 2 0 0 0 2-2v-2h24v2c0 1.1.9 2 2 2h2a2 2 0 0 0 2-2v-16l-4.16-11.98zM7 34.4c-1.66 0-3-1.34-3-3s1.34-3 3-3 3 1.34 3 3-1.34 3-3 3zm22 0c-1.66 0-3-1.34-3-3s1.34-3 3-3 3 1.34 3 3-1.34 3-3 3zm-25-10l3-9h22l3 9H4z"/></svg>