<svg xmlns="http://www.w3.org/2000/svg" viewBox="0 0 44 44"><path d="M39.88 20C38.96 11.66 32.34 5.04 24 4.12V0h-4v4.12c-2.26.25-4.38.93-6.31 1.94l3 3c1.64-.67 3.43-1.05 5.31-1.05 7.73 0 14 6.27 14 14 0 1.88-.38 3.67-1.05 5.31l3 3c1.01-1.93 1.68-4.05 1.93-6.31H44v-4h-4.12zM4 6.55l4.07 4.07C5.93 13.24 4.5 16.46 4.11 20H0v4h4.12c.92 8.34 7.54 14.96 15.88 15.88V44h4v-4.12c3.54-.39 6.76-1.82 9.38-3.96L37.46 40 40 37.46 6.55 4 4 6.55zm26.53 26.53A13.937 13.937 0 0 1 22 36c-7.73 0-14-6.27-14-14 0-3.22 1.1-6.17 2.92-8.53l19.61 19.61z"/></svg>