<svg xmlns="http://www.w3.org/2000/svg" viewBox="0 0 48 48"><path d="M31.8 10c-.35 0-.64.19-.82.46l-.13.29-10.37 23.31c-.32.57-.51 1.22-.51 1.93 0 2.21 1.8 4.01 4.01 4.01 1.93 0 3.53-1.36 3.92-3.17l.01-.07L32.8 11c0-.55-.45-1-1-1zM2 18l4 4c5.75-5.75 13.57-8.15 21.07-7.25l2.38-5.36C19.79 7.68 9.47 10.54 2 18zm40 4l4-4c-3.27-3.27-7.1-5.63-11.17-7.14l-1.07 5.63A25.37 25.37 0 0 1 42 22zm-8 8l4-4c-1.6-1.6-3.41-2.84-5.33-3.78l-1.11 5.84c.87.55 1.69 1.19 2.44 1.94zm-24-4l4 4a14 14 0 0 1 8.06-3.99l2.57-5.77C19.35 20.08 14.03 21.98 10 26z"/><path fill="none" d="M0 0h48v48H0V0z"/></svg>