<svg xmlns="http://www.w3.org/2000/svg" viewBox="0 0 32 40"><path d="M31.88 38.24A52.262 52.262 0 0 1 28.59 20c0-6.18 1.1-12.36 3.29-18.24.08-.22.12-.43.12-.63C32 .47 31.53 0 30.75 0H1.25C.47.01 0 .47 0 1.13c0 .19.04.4.12.62a52.262 52.262 0 0 1 3.29 18.24c0 6.18-1.1 12.36-3.29 18.24-.08.23-.12.44-.12.64C0 39.53.47 40 1.25 40h29.5c.78 0 1.25-.48 1.25-1.14 0-.19-.04-.4-.12-.62zM5.09 36a56.146 56.146 0 0 0 2.32-16c0-5.44-.78-10.8-2.32-16h21.82a56.146 56.146 0 0 0-2.32 16c0 5.44.78 10.8 2.32 16H5.09z"/></svg>