<svg xmlns="http://www.w3.org/2000/svg" viewBox="0 0 48 48"><path d="M39.88 42.24A52.262 52.262 0 0 1 36.59 24c0-6.18 1.1-12.36 3.29-18.24.08-.22.12-.43.12-.63C40 4.47 39.53 4 38.75 4H9.25C8.47 4.01 8 4.47 8 5.13c0 .19.04.4.12.62a52.262 52.262 0 0 1 3.29 18.24c0 6.18-1.1 12.36-3.29 18.24-.08.23-.12.44-.12.64 0 .66.47 1.13 1.25 1.13h29.5c.78 0 1.25-.48 1.25-1.14 0-.19-.04-.4-.12-.62zM13.09 40a56.146 56.146 0 0 0 2.32-16c0-5.44-.78-10.8-2.32-16h21.82a56.146 56.146 0 0 0-2.32 16c0 5.44.78 10.8 2.32 16H13.09z"/><path fill="none" d="M0 0h48v48H0z"/></svg>