<svg xmlns="http://www.w3.org/2000/svg" viewBox="0 0 40 32"><path d="M36 5.09v21.82a56.146 56.146 0 0 0-16-2.32c-5.44 0-10.8.78-16 2.32V5.09a56.146 56.146 0 0 0 16 2.32c5.44 0 10.8-.78 16-2.32M38.86 0c-.19 0-.4.04-.62.12A52.262 52.262 0 0 1 20 3.41c-6.18 0-12.36-1.1-18.24-3.29C1.54.04 1.33 0 1.13 0 .47 0 0 .47 0 1.25v29.5C.01 31.53.47 32 1.13 32c.19 0 .4-.04.62-.12a52.262 52.262 0 0 1 18.24-3.29c6.18 0 12.36 1.1 18.24 3.29.22.08.43.12.62.12.66 0 1.14-.47 1.13-1.25V1.25C40 .47 39.52 0 38.86 0z"/></svg>