<svg xmlns="http://www.w3.org/2000/svg" viewBox="0 0 48 48"><path fill="none" d="M0 0h48v48H0z"/><path d="M40 31c-2.49 0-4.9-.4-7.14-1.14-.69-.22-1.48-.06-2.03.49l-4.4 4.41a30.171 30.171 0 0 1-13.18-13.17l4.4-4.41c.55-.55.71-1.34.49-2.03C17.4 12.9 17 10.49 17 8c0-1.11-.89-2-2-2H8a2 2 0 0 0-2 2c0 18.78 15.22 34 34 34 1.11 0 2-.89 2-2v-7c0-1.11-.89-2-2-2zm0-23V7c0-2.76-2.24-5-5-5s-5 2.24-5 5v1a2 2 0 0 0-2 2v8a2 2 0 0 0 2 2h10a2 2 0 0 0 2-2v-8a2 2 0 0 0-2-2zm-1.6 0h-6.8V7c0-1.88 1.52-3.4 3.4-3.4s3.4 1.52 3.4 3.4v1z"/></svg>