<svg xmlns="http://www.w3.org/2000/svg" viewBox="0 0 48.01000213623047 48"><path fill="none" d="M0 0h48v48H0z"/><path d="M13 11l11 11L38 8l-2-2-12 12-9-9h7V6H10v12h3v-7zm34.41 22.34C41.32 27.55 33.07 24 24 24S6.68 27.55.59 33.34a1.996 1.996 0 0 0 0 2.83l4.95 4.96a2.002 2.002 0 0 0 2.82.02c1.58-1.47 3.38-2.72 5.33-3.71.66-.33 1.12-1.01 1.12-1.8v-6.21C17.7 28.5 20.79 28 24 28s6.3.5 9.2 1.44v6.21c0 .79.46 1.47 1.12 1.8 1.95.98 3.75 2.23 5.33 3.71.36.35.85.57 1.4.57.55 0 1.05-.22 1.42-.59l4.95-4.96c.36-.36.59-.86.59-1.41s-.23-1.06-.6-1.43z"/></svg>