<svg xmlns="http://www.w3.org/2000/svg" viewBox="0 0 40.003082275390625 39"><path d="M31.123 24.48c.56-1.38.88-2.89.88-4.48 0-6.63-5.37-12-12-12-1.59 0-3.1.32-4.49.88l3.25 3.25c.41-.07.82-.13 1.24-.13 4.42 0 8 3.58 8 8 0 .43-.04.85-.11 1.25l3.23 3.23zM20.003 4c8.84 0 16 7.16 16 16 0 2.71-.7 5.24-1.89 7.47l2.94 2.94c1.86-3.03 2.95-6.59 2.95-10.41 0-11.05-8.96-20-20-20-3.82 0-7.38 1.09-10.41 2.95l2.92 2.92c2.23-1.19 4.78-1.87 7.49-1.87zM2.543 1L.003 3.55l4.21 4.21A19.858 19.858 0 0 0 .003 20c0 7.39 4.02 13.83 9.99 17.29l2-3.46c-4.77-2.76-7.99-7.92-7.99-13.83 0-3.51 1.14-6.75 3.06-9.39l2.87 2.87A11.917 11.917 0 0 0 8.003 20c0 4.44 2.41 8.3 5.99 10.38l2.02-3.48c-2.39-1.39-4.01-3.94-4.01-6.9 0-1.29.34-2.49.88-3.57l3.16 3.16-.04.41c0 2.21 1.79 4 4 4l.41-.04.02.02L35.453 39l2.55-2.55L4.543 3l-2-2z"/></svg>