<svg xmlns="http://www.w3.org/2000/svg" viewBox="0 0 45.459999084472656 45.459999084472656"><path d="M45.46 42.92L5.54 3 4 1.46 2.54 0 0 2.54l8.78 8.78 4.42 9.32-2.7 4.9c-.32.56-.5 1.22-.5 1.92 0 2.2 1.8 4 4 4h14.92l2.76 2.76c-1 .73-1.66 1.91-1.66 3.24 0 2.2 1.78 4 3.98 4 1.33 0 2.51-.67 3.24-1.68l5.68 5.68 2.54-2.54zM14.84 27.46c-.28 0-.5-.22-.5-.5l.06-.24 1.8-3.26h4.72l4 4H14.84zm16.26-4c1.5 0 2.82-.82 3.5-2.06l7.16-12.98c.16-.28.24-.62.24-.96 0-1.1-.9-2-2-2H13.08l18 18h.02zm-17.1 10c-2.2 0-3.98 1.8-3.98 4s1.78 4 3.98 4 4-1.8 4-4-1.8-4-4-4z"/></svg>