<svg xmlns="http://www.w3.org/2000/svg" viewBox="0 0 48.01000213623047 37.720001220703125"><path d="M47.41 29.34C41.32 23.55 33.07 20 24 20S6.68 23.55.59 29.34c-.37.36-.59.87-.59 1.42 0 .55.22 1.05.59 1.41l4.95 4.95c.36.36.86.59 1.41.59.54 0 1.04-.22 1.4-.57 1.59-1.47 3.38-2.72 5.33-3.7.66-.33 1.12-1.01 1.12-1.8v-6.21C17.7 24.5 20.79 24 24 24s6.3.5 9.2 1.44v6.21c0 .79.46 1.47 1.12 1.8 1.95.98 3.75 2.23 5.33 3.7.36.35.85.57 1.4.57.55 0 1.05-.22 1.42-.59l4.95-4.95c.36-.36.59-.86.59-1.41-.01-.56-.23-1.07-.6-1.43zM42.32 8.51l-2.83-2.83-7.12 7.12 2.83 2.83s6.9-7.04 7.12-7.12zM26 0h-4v10h4V0zM12.8 15.63l2.83-2.83-7.12-7.12-2.83 2.83c.22.08 7.12 7.12 7.12 7.12z"/></svg>