<svg xmlns="http://www.w3.org/2000/svg" viewBox="0 0 44 44"><path d="M14 21c0-1.66-1.34-3-3-3s-3 1.34-3 3 1.34 3 3 3 3-1.34 3-3zm14-10c0-1.66-1.34-3-3-3h-6c-1.66 0-3 1.34-3 3s1.34 3 3 3h6c1.66 0 3-1.34 3-3zM15 28c-1.66 0-3 1.34-3 3s1.34 3 3 3 3-1.34 3-3-1.34-3-3-3zm7-28C9.87 0 0 9.87 0 22s9.87 22 22 22 22-9.87 22-22S34.13 0 22 0zm0 40c-9.93 0-18-8.08-18-18S12.07 4 22 4s18 8.08 18 18-8.07 18-18 18zm11-22c-1.66 0-3 1.34-3 3s1.34 3 3 3 3-1.34 3-3-1.34-3-3-3zm-4 10c-1.66 0-3 1.34-3 3s1.34 3 3 3 3-1.34 3-3-1.34-3-3-3z"/></svg>