<svg xmlns="http://www.w3.org/2000/svg" viewBox="0 0 39.150001525878906 40.000003814697266"><path d="M34.43 21.95c.08-.64.14-1.29.14-1.95s-.06-1.31-.14-1.95l4.23-3.31c.38-.3.49-.84.24-1.28l-4-6.93c-.25-.43-.77-.61-1.22-.43L28.7 8.11c-1.03-.79-2.16-1.46-3.38-1.97l-.75-5.3c-.09-.47-.5-.84-1-.84h-8c-.5 0-.91.37-.99.84l-.75 5.3a14.8 14.8 0 0 0-3.38 1.97L5.47 6.1a1 1 0 0 0-1.22.43l-4 6.93c-.25.43-.14.97.24 1.28l4.22 3.31c-.08.64-.14 1.29-.14 1.95s.06 1.31.14 1.95L.49 25.26c-.38.3-.49.84-.24 1.28l4 6.93c.25.43.77.61 1.22.43l4.98-2.01c1.03.79 2.16 1.46 3.38 1.97l.75 5.3c.08.47.49.84.99.84h8c.5 0 .91-.37.99-.84l.75-5.3a14.8 14.8 0 0 0 3.38-1.97l4.98 2.01a1 1 0 0 0 1.22-.43l4-6.93c.25-.43.14-.97-.24-1.28l-4.22-3.31zM19.57 27c-3.87 0-7-3.13-7-7s3.13-7 7-7 7 3.13 7 7-3.13 7-7 7z"/></svg>