<svg xmlns="http://www.w3.org/2000/svg" viewBox="0 0 40 40"><path d="M13.09 20c-2.14-1.43-4.5-2.55-7.05-3.22 2.55.67 4.91 1.79 7.05 3.22zm20.87-3.22c-2.58.68-4.97 1.82-7.14 3.27 2.16-1.45 4.55-2.59 7.14-3.27z"/><path d="M26.99 15.27C26.62 9.69 24.36 4.24 20.12 0a24.376 24.376 0 0 0-7.1 15.27c2.56 1.37 4.93 3.12 6.98 5.25 2.05-2.13 4.42-3.89 6.99-5.25zm-13 5.3c-.28-.21-.6-.38-.89-.57.29.19.6.36.89.57zm12.83-.52c-.26.18-.55.33-.8.51.25-.18.53-.33.8-.51zM20 26.91C15.7 20.34 8.35 16 0 16c0 10.63 6.72 19.65 16.07 22.97 1.27.45 2.58.79 3.93 1.03 1.35-.23 2.66-.57 3.93-1.03C33.28 35.65 40 26.63 40 16c-8.35 0-15.7 4.34-20 10.91z"/></svg>