<svg xmlns="http://www.w3.org/2000/svg" viewBox="0 0 31 41.01783752441406"><path d="M5.5 12.148l2.86 2.86c1.83-1.83 4.35-2.96 7.14-2.96s5.31 1.13 7.14 2.96l2.86-2.86c-2.56-2.55-6.09-4.14-10-4.14s-7.44 1.59-10 4.14zm10-12.14A21.85 21.85 0 0 0 0 6.428l2.82 2.82c3.25-3.25 7.73-5.25 12.68-5.25s9.43 2 12.68 5.25L31 6.428A21.85 21.85 0 0 0 15.5.008zm5.71 17.01l-11.42-.01c-1.26 0-2.29 1.03-2.29 2.29v19.43c0 1.26 1.03 2.29 2.29 2.29h11.43c1.26 0 2.29-1.03 2.29-2.29v-19.43a2.303 2.303 0 0 0-2.3-2.28zm.29 19.99h-12v-16h12v16z"/></svg>