<svg xmlns="http://www.w3.org/2000/svg" viewBox="0 0 40 32"><path d="M36 0H4C1.79 0 0 1.79 0 4v24c0 2.21 1.79 4 4 4h32c2.21 0 4-1.79 4-4V4c0-2.21-1.79-4-4-4zM11.51 24.49l-2.83 2.83A16.018 16.018 0 0 1 4 16c0-4.1 1.57-8.19 4.69-11.31l2.83 2.83A11.949 11.949 0 0 0 8 16c0 3.07 1.17 6.15 3.51 8.49zM20 24c-4.42 0-8-3.58-8-8s3.58-8 8-8 8 3.58 8 8-3.58 8-8 8zm11.31 3.31l-2.83-2.83C30.83 22.15 32 19.07 32 16c0-3.07-1.18-6.15-3.51-8.49l2.83-2.83C34.43 7.81 36 11.9 36 16c0 4.1-1.57 8.19-4.69 11.31zM20 12c-2.21 0-4 1.79-4 4s1.79 4 4 4 4-1.79 4-4-1.79-4-4-4z"/></svg>