<svg xmlns="http://www.w3.org/2000/svg" viewBox="0 0 34.27000045776367 34.280006408691406"><path d="M14.27 4.7V.52c-1.6.41-3.09 1.07-4.46 1.92l2.93 2.93c.49-.25 1-.49 1.53-.67zM0 2.82l4.71 4.71A15.885 15.885 0 0 0 2.27 16c0 4.42 1.81 8.4 4.71 11.29L2.27 32h12V20L9.8 24.47a11.909 11.909 0 0 1-2.16-14.01l16.17 16.17c-.49.26-1 .49-1.53.68v4.17c1.6-.41 3.09-1.07 4.46-1.92l4.72 4.72 2.55-2.55L2.54.27 0 2.82zM34.27 0h-12v12l4.47-4.47a11.909 11.909 0 0 1 2.16 14.01l2.93 2.93c1.54-2.46 2.44-5.35 2.44-8.47 0-4.42-1.81-8.4-4.71-11.29L34.27 0z"/></svg>