<svg xmlns="http://www.w3.org/2000/svg" viewBox="0 0 38.5099983215332 44"><path d="M34.58 7.1l-2.85 2.85A17.862 17.862 0 0 0 20.5 6c-3.66 0-7.05 1.1-9.89 2.97l2.91 2.91c2.06-1.19 4.44-1.88 6.99-1.88 7.73 0 14 6.27 14 14 0 2.55-.69 4.93-1.88 6.99l2.91 2.91c1.87-2.84 2.97-6.24 2.97-9.9 0-4.25-1.48-8.15-3.95-11.23l2.85-2.85-2.83-2.82zM26.51 0h-12v4h12V0zm-8 16.87l4 4V14h-4v2.87zM2.55 6L0 8.54l5.51 5.51c-1.89 2.85-3 6.27-3 9.95 0 9.94 8.04 18 17.99 18 3.68 0 7.1-1.11 9.95-3l5 5 2.54-2.55-15.4-15.41L2.55 6zm17.96 32c-7.73 0-14-6.27-14-14 0-2.57.7-4.97 1.91-7.04l19.13 19.13A13.897 13.897 0 0 1 20.51 38z"/></svg>