<svg xmlns="http://www.w3.org/2000/svg" viewBox="0 0 40 40"><path d="M34.14 5.86l-2.82 2.82C34.2 11.58 36 15.58 36 20c0 8.84-7.16 16-16 16S4 28.84 4 20c0-8.16 6.1-14.88 14-15.86v4.04C12.32 9.14 8 14.06 8 20c0 6.62 5.38 12 12 12s12-5.38 12-12c0-3.32-1.34-6.32-3.52-8.48l-2.82 2.82A8.05 8.05 0 0 1 28 20c0 4.42-3.58 8-8 8s-8-3.58-8-8c0-3.72 2.56-6.82 6-7.72v4.28c-1.2.7-2 1.96-2 3.44 0 2.2 1.8 4 4 4s4-1.8 4-4c0-1.48-.8-2.76-2-3.44V0h-2C8.96 0 0 8.96 0 20s8.96 20 20 20 20-8.96 20-20c0-5.52-2.24-10.52-5.86-14.14z"/></svg>