<svg xmlns="http://www.w3.org/2000/svg" xmlns:xlink="http://www.w3.org/1999/xlink" viewBox="0 0 36 36"><g transform="translate(-6 -6)"><defs><path id="a" d="M0 0h48v48H0V0z"/></defs><clipPath id="b"><use xlink:href="#a" overflow="visible"/></clipPath><path clip-path="url(#b)" d="M41.09 10.45l-2.77-3.36A3.043 3.043 0 0 0 36 6H12c-.93 0-1.76.43-2.31 1.09l-2.77 3.36C6.34 11.15 6 12.03 6 13v25c0 2.21 1.79 4 4 4h28c2.21 0 4-1.79 4-4V13c0-.97-.34-1.85-.91-2.55zM24 19l11 11h-7v4h-8v-4h-7l11-11zm-13.75-9l1.63-2h24l1.87 2h-27.5z"/></g></svg>