<svg xmlns="http://www.w3.org/2000/svg" viewBox="0 0 44 44"><path d="M42 6V5c0-2.76-2.24-5-5-5s-5 2.24-5 5v1a2 2 0 0 0-2 2v8a2 2 0 0 0 2 2h10a2 2 0 0 0 2-2V8a2 2 0 0 0-2-2zm-1.6 0h-6.8V5c0-1.88 1.52-3.4 3.4-3.4s3.4 1.52 3.4 3.4v1zm-4.55 16c.08.66.15 1.32.15 2 0 4.16-1.6 7.94-4.21 10.79A3.974 3.974 0 0 0 28 32h-2v-6c0-1.1-.9-2-2-2H12v-4h4c1.1 0 2-.9 2-2v-4h4c2.21 0 4-1.79 4-4V4.92c-1.89-.6-3.91-.92-6-.92C8.95 4 0 12.95 0 24s8.95 20 20 20 20-8.95 20-20c0-.68-.04-1.34-.1-2h-4.05zM18 39.86C10.11 38.88 4 32.16 4 24c0-1.23.15-2.43.42-3.58L14 30v2c0 2.21 1.79 4 4 4v3.86z"/></svg>