<svg xmlns="http://www.w3.org/2000/svg" viewBox="0 0 100 100"><path d="M81.232 15.138H18.769a3.407 3.407 0 0 0-3.407 3.407v3.143a3.407 3.407 0 0 0 3.407 3.407h62.463a3.407 3.407 0 0 0 3.407-3.407v-3.143a3.407 3.407 0 0 0-3.407-3.407zM76.224 41.611v-3.143a3.407 3.407 0 0 0-3.407-3.407H27.183a3.407 3.407 0 0 0-3.407 3.407v3.143a3.407 3.407 0 0 0 3.407 3.407h45.634a3.408 3.408 0 0 0 3.407-3.407zM77.81 74.905H22.176a3.407 3.407 0 0 0-3.407 3.407v3.143a3.407 3.407 0 0 0 3.407 3.407H77.81a3.407 3.407 0 0 0 3.407-3.407h.015v-3.143h-.015a3.408 3.408 0 0 0-3.407-3.407zM72.817 58.39a3.407 3.407 0 0 0-3.407-3.407H30.59a3.407 3.407 0 0 0-3.407 3.407v3.143a3.407 3.407 0 0 0 3.407 3.407h38.82a3.407 3.407 0 0 0 3.407-3.407V58.39z"/></svg>