<svg xmlns="http://www.w3.org/2000/svg" viewBox="0 0 100 100"><path d="M81.232 15.389H18.769a3.407 3.407 0 0 0-3.407 3.407v3.143a3.407 3.407 0 0 0 3.407 3.407h62.463a3.407 3.407 0 0 0 3.407-3.407v-3.143a3.407 3.407 0 0 0-3.407-3.407zM81.232 35.144H18.769a3.407 3.407 0 0 0-3.407 3.407v3.143a3.407 3.407 0 0 0 3.407 3.407h62.463a3.407 3.407 0 0 0 3.407-3.407v-3.143a3.408 3.408 0 0 0-3.407-3.407zM81.232 54.899H18.769a3.407 3.407 0 0 0-3.407 3.407v3.143a3.407 3.407 0 0 0 3.407 3.407h62.463a3.407 3.407 0 0 0 3.407-3.407v-3.143a3.408 3.408 0 0 0-3.407-3.407zM81.232 74.654H18.769a3.407 3.407 0 0 0-3.407 3.407v3.143a3.407 3.407 0 0 0 3.407 3.407h62.463a3.407 3.407 0 0 0 3.407-3.407v-3.143a3.408 3.408 0 0 0-3.407-3.407z"/></svg>