<svg xmlns="http://www.w3.org/2000/svg" viewBox="0 0 100 100"><path d="M88.189 67.115l.007-.004-9.393-16.27-.009.005a1.571 1.571 0 0 0-1.376-.822c-.677 0-1.25.429-1.474 1.027l-9.158 15.862a1.564 1.564 0 0 0-.356.987c0 .873.706 1.578 1.577 1.578h2.39a27.536 27.536 0 0 1-15.42 8.6v-29.2h9.079c.871 0 1.578-.705 1.578-1.578l-.001-.008V40.5v-.001c0-.871-.706-1.577-1.577-1.577H54.977v-5.36c3.905-1.864 6.611-5.838 6.611-10.454 0-6.401-5.189-11.589-11.589-11.589S38.41 16.707 38.41 23.108c0 4.617 2.705 8.59 6.611 10.454v5.36h-9.079-.001c-.871 0-1.577.706-1.577 1.576h-.001v6.803h.001a1.576 1.576 0 0 0 1.576 1.577h9.08v29.2a27.53 27.53 0 0 1-15.42-8.6h2.389c.872 0 1.578-.705 1.578-1.578 0-.287-.083-.553-.217-.785l.007-.004-9.393-16.27-.009.005a1.572 1.572 0 0 0-1.377-.822c-.675 0-1.246.427-1.471 1.022l-9.162 15.869c-.218.271-.354.61-.354.985 0 .873.706 1.578 1.577 1.578h4.219C23.835 80.823 36.017 88.482 50 88.482s26.165-7.658 32.611-19.003h4.218c.872 0 1.577-.705 1.577-1.578a1.56 1.56 0 0 0-.217-.786zM50 29.634a6.526 6.526 0 0 1 0-13.051 6.528 6.528 0 0 1 6.526 6.527c0 3.6-2.923 6.524-6.526 6.524z"/></svg>