<svg xmlns="http://www.w3.org/2000/svg" viewBox="0 0 100 100"><path d="M82.488 68.439V31.561a10.413 10.413 0 0 0 5.424-9.143c0-5.753-4.664-10.417-10.417-10.417a10.402 10.402 0 0 0-8.577 4.512H31.083a10.402 10.402 0 0 0-8.577-4.512c-5.753 0-10.417 4.664-10.417 10.417 0 3.944 2.192 7.375 5.424 9.143v36.877a10.413 10.413 0 0 0-5.424 9.143c0 5.753 4.664 10.417 10.417 10.417 4.371 0 8.107-2.695 9.653-6.512h35.682c1.546 3.816 5.282 6.512 9.653 6.512 5.753 0 10.417-4.664 10.417-10.417 0-3.943-2.192-7.373-5.423-9.142zm-55-.007V31.568a10.456 10.456 0 0 0 4.61-5.081h35.806a10.46 10.46 0 0 0 4.61 5.081v36.864a10.455 10.455 0 0 0-3.473 3.081h-38.08a10.453 10.453 0 0 0-3.473-3.081z"/></svg>