<svg xmlns="http://www.w3.org/2000/svg" viewBox="0 0 100 100"><path d="M89.148 32.927c.001-.037.011-.07.011-.107a3.972 3.972 0 0 0-1.016-2.642l.02-.011-7.87-13.627a2.53 2.53 0 0 0-2.468-1.914c-.083 0-.161.016-.242.024v-.024H22.219v.004c-.013 0-.026-.004-.039-.004a2.42 2.42 0 0 0-2.17 1.315l-.008-.005-8.212 14.231.015.008a4.068 4.068 0 0 0-.963 2.642c0 .047.012.091.014.138v48.211c-.002.048-.014.093-.014.142 0 2.284 1.817 4.069 4.095 4.066.043 0 .083-.011.125-.012h69.87c.043.001.083.012.126.012 2.283 0 4.1-1.782 4.1-4.062 0-.036-.01-.068-.011-.104V32.927zM63.413 57.492l-12.391 17.43c-.226.318-.59.505-.98.507h-.004c-.386 0-.751-.187-.977-.503L36.59 57.494a1.201 1.201 0 0 1-.091-1.251c.208-.401.62-.654 1.071-.654h5.833l.001-15.654c0-.667.538-1.205 1.203-1.205h10.789c.665 0 1.204.539 1.204 1.204v15.655h5.83a1.206 1.206 0 0 1 .983 1.903zM18.376 28.733l5.263-9.119h52.67l5.266 9.119H18.376z"/></svg>