<svg xmlns="http://www.w3.org/2000/svg" viewBox="0 0 100 100"><path d="M71.782 64.059L57.807 50.085l14.011-14.011a4.25 4.25 0 0 0 .455-.455l.013-.013-.001-.001a4.212 4.212 0 0 0 1.028-2.742c0-1.307-.603-2.461-1.531-3.241L52.156 9.995c-.779-.978-1.965-1.617-3.312-1.617a4.25 4.25 0 0 0-4.25 4.25c0 .407.076.793.183 1.167v23.258L34.052 26.329a4.224 4.224 0 0 0-3.115-1.377 4.25 4.25 0 0 0-4.25 4.25c0 1.238.538 2.342 1.383 3.119l16.706 16.706v2.115L27.953 67.966l-.038.038-.032.032.003.003a4.232 4.232 0 0 0-1.199 2.949 4.25 4.25 0 0 0 4.25 4.25c1.289 0 2.429-.586 3.209-1.491l10.63-10.63v24.099c-.002.053-.016.102-.016.156s.014.103.016.156v.022h.002a4.24 4.24 0 0 0 4.232 4.072 4.221 4.221 0 0 0 3.156-1.428l.004.004 19.862-19.863.064-.064.19-.19-.018-.018a4.213 4.213 0 0 0 1.045-2.762c-.001-1.308-.603-2.462-1.531-3.242zm-8.711 3.263l-9.828 9.828V57.494l9.828 9.828zm-9.828-24.647V23.057l9.809 9.809-9.809 9.809z"/></svg>