<svg xmlns="http://www.w3.org/2000/svg" viewBox="0 0 100 100"><path d="M80.583 39.494H19.417c-.699 0-1.266.565-1.266 1.264v43.916c0 .698.567 1.264 1.266 1.264h61.165c.703 0 1.267-.566 1.267-1.264V40.758c0-.699-.564-1.264-1.266-1.264zm-41.21 37.185c-2.111 0-4.443-.424-6.243-1.136a.632.632 0 0 1-.396-.674l.59-4.294a.624.624 0 0 1 .3-.456.64.64 0 0 1 .548-.049c1.979.747 3.643 1.053 5.744 1.053 2.202 0 3.736-1.04 3.736-2.528 0-1.847-.891-2.835-5.762-3.113a.63.63 0 0 1-.595-.631v-4.293c0-.332.255-.608.585-.632 4.195-.296 4.68-1.586 4.68-2.53 0-.639 0-1.709-2.84-1.709-1.519 0-3.132.414-4.792 1.226a.63.63 0 0 1-.904-.481l-.588-4.292a.634.634 0 0 1 .359-.661c1.933-.894 4.372-1.347 7.254-1.347 5.137 0 8.589 2.386 8.589 5.937 0 2.663-1.377 4.623-4.202 5.955 2.425.935 4.903 2.632 4.903 6.222 0 5.122-4.302 8.433-10.966 8.433zm26.718-1.023a.633.633 0 0 1-.633.632h-5.227a.632.632 0 0 1-.633-.632V58.434l-3.435 1.31a.628.628 0 0 1-.548-.048.618.618 0 0 1-.303-.457l-.585-4.294a.629.629 0 0 1 .346-.651l7.493-3.706a.655.655 0 0 1 .282-.065h2.611c.349 0 .633.283.633.633v24.5zM80.583 19.72h-6.519v3.051c0 3.235-1.845 6.69-7.03 6.69-5.185 0-7.031-3.455-7.031-6.69V19.72H40.08v3.051c0 3.235-1.845 6.69-7.03 6.69-5.186 0-7.036-3.455-7.036-6.69V19.72h-6.597c-.699 0-1.266.565-1.266 1.264v12.859c0 .7.567 1.266 1.266 1.266h61.165c.703 0 1.267-.566 1.267-1.266V20.984c0-.699-.564-1.264-1.266-1.264z"/><path d="M33.05 25.376c2.095 0 2.946-.755 2.946-2.606v-6.1c0-1.853-.851-2.607-2.946-2.607-2.101 0-2.952.755-2.952 2.607v6.101c0 1.851.851 2.605 2.952 2.605zM67.033 25.376c2.095 0 2.946-.755 2.946-2.606v-6.1c0-1.853-.851-2.607-2.946-2.607-2.101 0-2.946.755-2.946 2.607v6.101c-.001 1.851.845 2.605 2.946 2.605z"/></svg>