<svg xmlns="http://www.w3.org/2000/svg" viewBox="0 0 100 100"><path d="M63.185 55.07a1.73 1.73 0 0 1-1.73-1.73V36.445c0-.956.774-1.73 1.73-1.73h17.962V16.936h-.034a3.362 3.362 0 0 0-3.34-3.036H7.429v.009a3.356 3.356 0 0 0-3.247 3.027h-.035v56.342h.068a3.37 3.37 0 0 0 3.214 2.694v.009h11.564v6.744a3.373 3.373 0 0 0 6.173 1.884l8.628-8.628h43.98a3.373 3.373 0 0 0 3.306-2.703h.068V55.07H63.185z"/><path d="M94.123 39.702h-25.95a1.73 1.73 0 0 0-1.731 1.73v6.92c0 .956.774 1.73 1.731 1.73h25.95a1.73 1.73 0 0 0 1.73-1.73v-6.92a1.73 1.73 0 0 0-1.73-1.73z"/></svg>