<svg xmlns="http://www.w3.org/2000/svg" viewBox="0 0 100 100"><path d="M83.921 23.292a7.44 7.44 0 0 0-7.213-7.264v-.011H23.292v.008a7.443 7.443 0 0 0-7.267 7.267h-.009v53.416h.009a7.44 7.44 0 0 0 7.267 7.267v.008h53.416v-.009a7.44 7.44 0 0 0 7.267-7.267h.009V23.292h-.063zM32.99 73.676a7.035 7.035 0 1 1 .001-14.069 7.035 7.035 0 0 1-.001 14.069zm0-16.641a7.035 7.035 0 1 1 .001-14.069 7.035 7.035 0 0 1-.001 14.069zm0-16.965a7.035 7.035 0 1 1 .001-14.069 7.035 7.035 0 0 1-.001 14.069zm34.019 33.909a7.033 7.033 0 0 1-7.034-7.033 7.034 7.034 0 1 1 14.069 0 7.034 7.034 0 0 1-7.035 7.033zm.001-16.944a7.035 7.035 0 1 1 .001-14.069 7.035 7.035 0 0 1-.001 14.069zm-.001-16.965a7.033 7.033 0 0 1-7.034-7.033 7.034 7.034 0 1 1 14.069 0 7.034 7.034 0 0 1-7.035 7.033z"/></svg>