<svg xmlns="http://www.w3.org/2000/svg" viewBox="0 0 100 100"><path d="M69.499 52.139a3.338 3.338 0 0 0-3.336 3.332v2.921h6.672v-2.921-.02h-.001l.001-.011a3.339 3.339 0 0 0-3.336-3.301z"/><path d="M86.016 24.091H49.313c-1.979-2.37-4.013-4.865-4.54-5.624a3.182 3.182 0 0 0-2.874-1.808H27.367c-.963 0-1.875.435-2.478 1.185l-5.021 6.247h-5.885a5.492 5.492 0 0 0-5.484 5.484v48.284a5.49 5.49 0 0 0 5.484 5.482h72.032a5.49 5.49 0 0 0 5.484-5.482V29.575a5.49 5.49 0 0 0-5.483-5.484zm-4.473 48.397a.896.896 0 0 1-.898.897H58.67a.896.896 0 0 1-.897-.897V59.289c0-.496.401-.897.897-.897h2.713v-2.921c0-4.473 3.64-8.114 8.115-8.114 4.476 0 8.116 3.641 8.116 8.114l-.001.037v2.884H80.644c.496 0 .898.401.898.897v13.199z"/></svg>