<svg xmlns="http://www.w3.org/2000/svg" viewBox="0 0 100 100"><path d="M46.05 60.163H31.923c-.836 0-1.513.677-1.513 1.513V83.61c0 .836.677 1.513 1.513 1.513H46.05c.836 0 1.512-.677 1.512-1.513V61.675c0-.836-.677-1.512-1.512-1.512zM68.077 14.878H53.95c-.836 0-1.513.677-1.513 1.513v67.218c0 .836.677 1.513 1.513 1.513h14.127c.836 0 1.513-.677 1.513-1.513V16.391c0-.836-.677-1.513-1.513-1.513zM90.217 35.299H76.09c-.836 0-1.513.677-1.513 1.513v46.797c0 .836.677 1.513 1.513 1.513h14.126c.836 0 1.513-.677 1.513-1.513V36.812c0-.835-.677-1.513-1.512-1.513zM23.91 35.299H9.783c-.836 0-1.513.677-1.513 1.513v46.797c0 .836.677 1.513 1.513 1.513H23.91c.836 0 1.513-.677 1.513-1.513V36.812c0-.835-.677-1.513-1.513-1.513z"/></svg>