<svg xmlns="http://www.w3.org/2000/svg" viewBox="0 0 100 100"><path d="M81.232 15.138H18.769a3.407 3.407 0 0 0-3.407 3.407v3.143a3.407 3.407 0 0 0 3.407 3.407h62.463a3.407 3.407 0 0 0 3.407-3.407v-3.143a3.407 3.407 0 0 0-3.407-3.407zM81.232 74.905H18.769a3.407 3.407 0 0 0-3.407 3.407v3.143a3.407 3.407 0 0 0 3.407 3.407h62.463a3.407 3.407 0 0 0 3.407-3.407v-3.143a3.408 3.408 0 0 0-3.407-3.407zM84.639 58.39a3.407 3.407 0 0 0-3.407-3.407h-38.82a3.407 3.407 0 0 0-3.407 3.407v3.143a3.406 3.406 0 0 0 3.407 3.406h38.82a3.407 3.407 0 0 0 3.407-3.406V58.39zM84.639 38.577a3.407 3.407 0 0 0-3.407-3.407h-38.82a3.407 3.407 0 0 0-3.407 3.407v3.143a3.406 3.406 0 0 0 3.407 3.406h38.82a3.407 3.407 0 0 0 3.407-3.406v-3.143zM15.361 50.008c0 .232.14.431.34.519l-.006.011 12.376 7.146a.567.567 0 0 0 .963-.389h.003V42.722a.57.57 0 0 0-.975-.397L15.636 49.5l.014.024a.56.56 0 0 0-.289.484z"/></svg>