<svg xmlns="http://www.w3.org/2000/svg" viewBox="0 0 100 100"><path d="M17.563 30.277h.012a2.268 2.268 0 0 0 2.246 2.267v.002H80.18v-.001a2.269 2.269 0 0 0 2.259-2.268h.01V19.818a2.269 2.269 0 0 0-2.269-2.265H19.821a2.27 2.27 0 0 0-2.269 2.269c0 .039.01.076.012.115l-.001 10.34zM80.179 42.504H19.821a2.27 2.27 0 0 0-2.269 2.269c0 .039.01.076.012.115v10.34h.012a2.268 2.268 0 0 0 2.246 2.267v.002h60.359v-.001a2.269 2.269 0 0 0 2.259-2.268h.01V44.769a2.272 2.272 0 0 0-2.271-2.265zM80.179 67.454H19.821a2.27 2.27 0 0 0-2.269 2.269c0 .039.01.076.012.115v10.34h.012a2.268 2.268 0 0 0 2.246 2.267v.002h60.359v-.001a2.27 2.27 0 0 0 2.259-2.269h.01V69.718a2.272 2.272 0 0 0-2.271-2.264z"/></svg>