<svg xmlns="http://www.w3.org/2000/svg" viewBox="0 0 100 100"><path d="M83.417 18.329l.001-.005c0-.853-.69-1.544-1.542-1.545v-.016H61.078v.017a1.544 1.544 0 0 0-1.53 1.543v6.871c0 .847.684 1.534 1.53 1.542v.001h5.151l-8.713 8.713a26.051 26.051 0 0 0-14.761-4.56c-14.455 0-26.173 11.718-26.173 26.173S28.3 83.237 42.755 83.237c14.455 0 26.173-11.719 26.173-26.174a26.043 26.043 0 0 0-4.398-14.521l8.911-8.911v5.473c0 .853.691 1.544 1.544 1.544h6.887c.852 0 1.544-.691 1.544-1.544l-.001-.005v-20.77zM42.755 73.262c-8.946 0-16.198-7.252-16.198-16.199 0-8.946 7.252-16.199 16.198-16.199s16.199 7.253 16.199 16.199c0 8.947-7.253 16.199-16.199 16.199z"/></svg>