<svg xmlns="http://www.w3.org/2000/svg" viewBox="0 0 100 100"><path d="M91.967 7.961c0-.016.005-.031.005-.047a2.733 2.733 0 0 0-2.73-2.733h-.002H39.559v.011L8.031 36.721h-.003v55.365h.003v.001a2.735 2.735 0 0 0 2.734 2.731h78.479a2.73 2.73 0 0 0 2.663-2.15h.06v-.536c0-.015.004-.029.004-.044s-.004-.029-.004-.044V7.961zm-24.328 7.177H82.01v24.597L63.897 21.621l3.742-6.483zM39.57 39.453v-.001a2.732 2.732 0 0 0 2.722-2.73V15.138H61.88l-27.17 47.06-16.725-16.725v-6.02H39.57zM17.985 84.862V52.527L32.128 66.67 21.626 84.862h-3.641zm9.4 0l33.93-58.769 20.696 20.696v38.073H27.385z"/><path d="M62.03 45.576c-6.645 0-12.026 5.387-12.026 12.027 0 2.659.873 5.109 2.334 7.1l7.759 13.439c.047.094.097.186.157.271l.016.027.004-.002a2.16 2.16 0 0 0 3.405.132l.02.011.075-.129a2.25 2.25 0 0 0 .287-.497l7.608-13.178a11.962 11.962 0 0 0 2.39-7.175c-.003-6.639-5.384-12.026-12.029-12.026zM61.911 63.7c-3.274 0-5.926-2.651-5.926-5.925a5.926 5.926 0 1 1 5.926 5.925z"/></svg>