<svg xmlns="http://www.w3.org/2000/svg" viewBox="0 0 100 100"><path d="M88.765 77.291v-54.72l.001-.005-.001-.005v-.235h-.024a2.529 2.529 0 0 0-2.513-2.296c-.03 0-.058.008-.087.009h-4.569c-.071-.006-.14-.021-.213-.021a2.538 2.538 0 0 0-2.537 2.537c0 .117.019.23.035.343v23.141l-33.341-19.25a1.715 1.715 0 0 0-2.92 1.172h-.006V43.21L14.148 26.788a1.715 1.715 0 0 0-2.92 1.172h-.005v44.031a1.718 1.718 0 0 0 2.948 1.197L42.59 56.78v15.212a1.718 1.718 0 0 0 2.948 1.197l33.319-19.237v23.382h.013c-.002.039-.012.075-.012.114a2.537 2.537 0 0 0 2.532 2.536h4.852v-.024a2.537 2.537 0 0 0 2.537-2.537c-.001-.046-.012-.088-.014-.132z"/></svg>