<svg xmlns="http://www.w3.org/2000/svg" viewBox="0 0 100 100"><path d="M94.284 65.553L75.825 52.411a1.255 1.255 0 0 0-1.312-.093c-.424.218-.684.694-.685 1.173l.009 6.221H57.231c-.706 0-1.391.497-1.391 1.204v11.442c0 .707.685 1.194 1.391 1.194h16.774v6.27c0 .478.184.917.609 1.136.425.219.853.182 1.242-.096l18.432-13.228c.335-.239.477-.626.477-1.038v-.002c0-.415-.144-.801-.481-1.041z"/><path d="M64.06 78.553h-6.49a1.73 1.73 0 0 0-1.73 1.73h-.007v3.01H15.191V36.16h17.723a1.73 1.73 0 0 0 1.73-1.73V16.707h21.188v36.356h.011a1.728 1.728 0 0 0 1.726 1.691h6.49c.943 0 1.705-.754 1.726-1.691h.004v-.038-40.524h-.005V8.48a1.73 1.73 0 0 0-1.73-1.73h-32.87L5.235 32.7v58.819c0 .956.774 1.73 1.73 1.73h57.089a1.73 1.73 0 0 0 1.73-1.73v-2.448h.005v-8.79a1.729 1.729 0 0 0-1.729-1.728z"/></svg>