<svg xmlns="http://www.w3.org/2000/svg" viewBox="0 0 100 100"><path d="M41.131 61.862h-4.927v9.231H39v-2.906h2.131c2.159 0 3.321-1.439 3.321-3.156.001-1.73-1.162-3.169-3.321-3.169zm-.36 3.889H39v-1.453h1.771c.471 0 .844.235.844.733.001.485-.373.72-.844.72zM50.032 61.862h-4.124v9.231h4.138c2.893 0 5.052-1.675 5.052-4.623s-2.16-4.608-5.066-4.608zm0 6.796h-1.329v-4.36h1.342c1.495 0 2.214.927 2.214 2.173.001 1.162-.829 2.187-2.227 2.187zM56.792 71.093h2.796v-3.446h4.11v-2.436h-4.11v-.913h4.207v-2.436h-7.003z"/><path d="M80.277 12.5h-.005V8.48a1.73 1.73 0 0 0-1.73-1.73h-32.87L19.722 32.7v58.819c0 .956.774 1.73 1.73 1.73h57.09a1.73 1.73 0 0 0 1.73-1.73v-2.448h.005V12.5zM29.679 83.294V36.16h17.723a1.73 1.73 0 0 0 1.73-1.73V16.707H70.32v66.587H29.679z"/></svg>