<svg xmlns="http://www.w3.org/2000/svg" viewBox="0 0 100 100"><path d="M67.041 78.553h-6.49a1.73 1.73 0 0 0-1.73 1.73h-.007v3.01H18.173V36.16h17.723a1.73 1.73 0 0 0 1.73-1.73V16.707h21.188v12.34h.016a1.726 1.726 0 0 0 1.721 1.641h6.49c.925 0 1.674-.728 1.721-1.641h.009v-.088-.001-16.459h-.005V8.48a1.73 1.73 0 0 0-1.73-1.73H34.165L8.216 32.7v58.819c0 .956.774 1.73 1.73 1.73h57.089a1.73 1.73 0 0 0 1.73-1.73v-2.448h.005v-8.79a1.728 1.728 0 0 0-1.729-1.728z"/><path d="M91.277 39.04L79.656 27.419a1.73 1.73 0 0 0-2.447 0L45.404 59.224l.069.069-.109-.029-4.351 16.237.003.001a1.722 1.722 0 0 0 .412 1.765 1.723 1.723 0 0 0 1.948.341l.002.006 16.08-4.309-.01-.037.023.024 31.806-31.806a1.729 1.729 0 0 0 0-2.446zM46.305 72.353l2.584-9.643 7.059 7.059-9.643 2.584z"/></svg>