<svg xmlns="http://www.w3.org/2000/svg" viewBox="0 0 100 100"><path d="M73.603 78.553h-6.49a1.73 1.73 0 0 0-1.73 1.73h-.007v3.01H24.735V36.16h17.723a1.73 1.73 0 0 0 1.73-1.73V16.707h21.188v20.627h.008a1.73 1.73 0 0 0 1.73 1.726h6.49c.954 0 1.727-.772 1.729-1.726v-.005V12.5h-.005V8.48a1.73 1.73 0 0 0-1.73-1.73H40.727L14.778 32.7v58.819c0 .956.774 1.73 1.73 1.73h57.089a1.73 1.73 0 0 0 1.73-1.73v-2.448h.005v-8.79a1.728 1.728 0 0 0-1.729-1.728z"/><path d="M79.21 58.751l5.505-5.505a1.73 1.73 0 0 0 0-2.447l-4.894-4.893a1.729 1.729 0 0 0-2.446 0l-5.505 5.505-5.505-5.505a1.729 1.729 0 0 0-2.446 0L59.026 50.8a1.73 1.73 0 0 0 0 2.447l5.505 5.505-5.505 5.505a1.729 1.729 0 0 0 0 2.446l4.894 4.893c.676.676 1.77.676 2.446 0l5.505-5.505 5.505 5.505c.676.676 1.77.676 2.446 0l4.894-4.893a1.729 1.729 0 0 0 0-2.446l-5.506-5.506z"/></svg>