<svg xmlns="http://www.w3.org/2000/svg" viewBox="0 0 100 100"><path d="M40.531 19.959c-.097 0-.19.016-.283.029v-.029H29.911a2.163 2.163 0 0 0-2.163 2.163v.005h-.001V77.87h.001l-.001.009c0 1.194.969 2.162 2.163 2.162h10.62a2.162 2.162 0 0 0 2.162-2.162l-.001-.009h.001V22.127l.001-.005a2.163 2.163 0 0 0-2.162-2.163zM72.251 77.87V22.127l.001-.005a2.163 2.163 0 0 0-2.162-2.163c-.097 0-.19.016-.283.029v-.029H59.47a2.163 2.163 0 0 0-2.163 2.163v.005h-.001V77.87h.001l-.001.009c0 1.194.969 2.162 2.163 2.162h10.618a2.162 2.162 0 0 0 2.162-2.162c.002-.003.001-.006.002-.009z"/></svg>