<svg xmlns="http://www.w3.org/2000/svg" viewBox="0 0 100 100"><path d="M71.586 72.845c0-.205-.068-.388-.162-.555l.016-.003-2.974-7.289-.006-.014-.005-.013-.002.002a1.138 1.138 0 0 0-1.891-.312l-.005-.01c-1.046 1.448-3.461 2.897-6.922 2.897-3.944 0-5.795-2.656-10.464-2.656-1.207 0-2.736.241-3.944.644 2.897-1.771 5.232-5.151 5.232-8.934 0-.483-.081-1.047-.081-1.529h9.015v-.007a1.153 1.153 0 0 0 1.15-1.153V49.6h-.023a1.142 1.142 0 0 0-1.128-1.043v-.006h-11.59c-1.851-2.897-3.944-5.393-3.944-9.497 0-4.508 3.703-7.486 8.451-7.486 3.691 0 6.9 2.322 8.196 5.684a1.151 1.151 0 0 0 1.514.63l.006-.003 7.132-4.268-.008-.008c.375-.19.638-.569.638-1.018a1.13 1.13 0 0 0-.193-.602l.022-.013c-3.381-6.6-9.739-9.739-18.674-9.739-9.498 0-19.559 6.439-19.559 16.662 0 3.943 1.69 6.922 3.703 9.658h-5.474v.014c-.015 0-.028-.009-.044-.009-.637 0-1.153.516-1.153 1.153v4.312h.022a1.143 1.143 0 0 0 1.131 1.044c.016 0 .028-.008.044-.009v.014h9.659c.563 1.368.966 2.816.966 4.346 0 4.062-3.627 7.57-8.616 9.983l-.022.011-.136.068.009.018a1.135 1.135 0 0 0-.563.968c0 .155.033.302.088.438l-.002.001.003.007.004.008 2.759 5.759c.006.015.014.028.021.043l.05.104.017-.005c.201.34.555.579.978.579.179 0 .343-.049.495-.121l.004.009c3.22-1.771 6.52-3.059 9.337-3.059 4.91 0 7.566 3.541 14.569 3.541 5.876 0 9.659-1.771 11.913-4.024l-.005-.01c.265-.211.446-.523.446-.889z"/></svg>