<svg xmlns="http://www.w3.org/2000/svg" viewBox="0 0 100 100"><path d="M87.06 26.291c-.483 0-.918.2-1.23.521L57.41 43.22V28.009a1.718 1.718 0 0 0-2.948-1.197L21.144 46.049V22.667h-.013c.002-.039.012-.075.012-.114a2.537 2.537 0 0 0-2.532-2.536h-4.852v.024a2.537 2.537 0 0 0-2.537 2.537c0 .045.011.086.013.131v54.967h.024a2.529 2.529 0 0 0 2.513 2.296c.03 0 .058-.008.087-.009h4.569c.071.006.14.021.213.021 1.4 0 2.537-1.136 2.537-2.537 0-.117-.019-.23-.035-.343V53.962l33.341 19.25a1.715 1.715 0 0 0 2.92-1.172h.005V56.791l28.443 16.422a1.715 1.715 0 0 0 2.92-1.172h.005V28.009a1.717 1.717 0 0 0-1.717-1.718z"/></svg>