<svg xmlns="http://www.w3.org/2000/svg" viewBox="0 0 100 100"><path d="M81.465 66.127c-.022-.038-.052-.069-.076-.105l.002-.001-26.904-46.599-.014.008a2.08 2.08 0 0 0-.929-.801l.038-.022-11.01-6.357v.044a2.082 2.082 0 0 0-1.846-.107l-.012-.021-.206.119c-.004.003-.009.003-.013.006-.004.002-.007.006-.012.008L19.3 24.529a2.078 2.078 0 0 0-1.037 1.764l-.007-.004v12.714l.021-.012c-.047.427.03.872.261 1.273.014.024.032.042.047.065l26.816 46.446c.026.055.044.112.075.166a2.085 2.085 0 0 0 2.772.801l.005.008 32.465-18.743-.014-.025a2.092 2.092 0 0 0 .761-2.855zM36.366 29.361a3.865 3.865 0 1 1 1.415-5.279 3.864 3.864 0 0 1-1.415 5.279z"/></svg>