<svg xmlns="http://www.w3.org/2000/svg" viewBox="0 0 100 100"><path d="M84.539 21.586a1.515 1.515 0 0 0-2.393-1.222l-5.944 4.261-.468.337c-6.405-6.392-15.196-10.389-24.937-10.389-19.535 0-35.427 15.894-35.427 35.428s15.893 35.428 35.427 35.428a35.42 35.42 0 0 0 29.374-15.618 1.77 1.77 0 0 0-.475-2.462l-8.863-6.151a1.9 1.9 0 0 0-2.628.512c-3.918 5.792-10.41 9.25-17.375 9.25-11.558 0-20.962-9.402-20.962-20.957s9.404-20.957 20.962-20.957c4.878 0 9.352 1.696 12.914 4.5l-1.001.72-5.948 4.26a1.513 1.513 0 0 0 .397 2.656l25.446 8.669c.461.161.966.083 1.368-.203.399-.29.629-.747.627-1.231l-.094-26.831z"/></svg>