<svg xmlns="http://www.w3.org/2000/svg" viewBox="0 0 100 100"><path d="M92.11 21.929c0-.973-.789-1.761-1.761-1.761l-.006.001v-.005H44.465v.014a1.76 1.76 0 0 0-1.751 1.752h-.001v6.342c-.001.03-.009.057-.009.087 0 .972.788 1.76 1.761 1.761h45.878l.006.001c.973 0 1.761-.789 1.761-1.761v-6.431zM92.11 36.83c0-.973-.789-1.761-1.761-1.761l-.006.001v-.005H44.465v.014a1.76 1.76 0 0 0-1.751 1.752h-.001v6.343c-.001.03-.009.057-.009.087 0 .972.788 1.76 1.761 1.761h45.878v-.001l.006.001c.973 0 1.761-.789 1.761-1.761V36.83zM32.748 21.925a1.76 1.76 0 0 0-1.761-1.761c-.043 0-.084.01-.126.013H9.777c-.042-.003-.083-.013-.126-.013-.973 0-1.761.789-1.761 1.761V43.26c0 .972.788 1.761 1.761 1.761h21.336c.973 0 1.761-.789 1.761-1.761V21.925zM92.11 56.744c0-.973-.789-1.761-1.761-1.761l-.006.001v-.005H44.465v.014a1.76 1.76 0 0 0-1.751 1.752h-.001v6.343c-.001.03-.009.057-.009.087 0 .972.788 1.761 1.761 1.761h45.878v-.001l.006.001c.973 0 1.761-.789 1.761-1.761v-6.431zM92.11 71.645c0-.973-.789-1.761-1.761-1.761l-.006.001v-.005H44.465v.014a1.76 1.76 0 0 0-1.751 1.752h-.001v6.342c-.001.03-.009.057-.009.087 0 .972.788 1.761 1.761 1.761h45.878v-.001l.006.001c.973 0 1.761-.789 1.761-1.761V71.645zM32.748 56.74c0-.973-.788-1.762-1.761-1.762-.043 0-.084.01-.126.013H9.777c-.042-.003-.083-.013-.126-.013-.973 0-1.761.789-1.761 1.762v21.335c0 .972.789 1.761 1.761 1.761H30.987c.973 0 1.761-.789 1.761-1.761V56.74z"/></svg>