<svg xmlns="http://www.w3.org/2000/svg" viewBox="0 0 100 100"><path d="M73.213 38.25a11.72 11.72 0 0 0-4.189.782L38.498 21.408c.017-.259.039-.517.039-.78 0-6.489-5.261-11.75-11.75-11.75s-11.75 5.261-11.75 11.75 5.261 11.75 11.75 11.75c2.563 0 4.927-.83 6.858-2.223l28.343 16.364c-.341 1.1-.525 2.27-.525 3.482 0 1.232.191 2.418.543 3.534L33.693 69.881a11.68 11.68 0 0 0-6.906-2.258c-6.489 0-11.75 5.261-11.75 11.75s5.261 11.75 11.75 11.75 11.75-5.261 11.75-11.75c0-.243-.022-.48-.036-.72l30.59-17.661a11.7 11.7 0 0 0 4.122.758c6.489 0 11.75-5.261 11.75-11.75s-5.261-11.75-11.75-11.75z"/></svg>