<svg xmlns="http://www.w3.org/2000/svg" viewBox="0 0 100 100"><path d="M87.255 72.316c-2.248-2.246-5.832-2.318-8.118-.208l-9-9c2.459-3.77 3.894-8.27 3.894-13.107s-1.435-9.337-3.894-13.107l8.949-8.949c2.287 2.111 5.87 2.042 8.118-.207 2.306-2.3 2.329-6.017.054-8.293-1.371-1.371-3.264-1.9-5.058-1.603.33-1.82-.196-3.755-1.592-5.151-2.274-2.275-5.985-2.252-8.291.055-2.246 2.248-2.318 5.832-.208 8.118l-9.001 9.001a23.91 23.91 0 0 0-13.107-3.893 23.913 23.913 0 0 0-13.107 3.893l-8.95-8.95c2.11-2.286 2.04-5.869-.206-8.118-2.305-2.304-6.018-2.328-8.293-.054-1.372 1.372-1.901 3.266-1.604 5.059-1.82-.33-3.756.197-5.152 1.591-2.275 2.275-2.248 5.986.055 8.291 2.249 2.25 5.834 2.319 8.121.209l9 9c-2.46 3.77-3.894 8.27-3.894 13.107s1.434 9.337 3.894 13.107l-8.95 8.95c-2.286-2.11-5.869-2.04-8.118.206-2.304 2.305-2.327 6.018-.054 8.293 1.372 1.372 3.266 1.901 5.059 1.604-.33 1.82.197 3.756 1.591 5.152 2.275 2.275 5.986 2.248 8.291-.055 2.249-2.249 2.319-5.834.209-8.121l8.726-8.726v5.946a21.048 21.048 0 0 0 13.382 4.779 21.05 21.05 0 0 0 13.383-4.779V70.41l8.674 8.674c-2.111 2.287-2.043 5.871.206 8.119 2.301 2.306 6.018 2.329 8.293.054 1.371-1.371 1.9-3.265 1.603-5.058 1.82.331 3.755-.196 5.151-1.591 2.274-2.275 2.251-5.985-.056-8.292zm-43.81-13.327a4.594 4.594 0 1 1 0-9.189c2.535 0 4.591 2.061 4.591 4.597s-2.057 4.592-4.591 4.592zm13.111.067a4.592 4.592 0 0 1 0-9.184 4.593 4.593 0 0 1 0 9.184z"/></svg>