<svg xmlns="http://www.w3.org/2000/svg" viewBox="0 0 100 100"><path fill-rule="evenodd" d="M49.998 11.963C28.461 11.963 11 29.425 11 50.965c0 17.231 11.172 31.849 26.671 37.003 1.952.361 2.662-.84 2.662-1.877 0-.924-.034-3.375-.051-6.633-10.849 2.359-13.138-5.229-13.138-5.229-1.774-4.505-4.331-5.703-4.331-5.703-3.541-2.418.269-2.371.269-2.371 3.914.277 5.974 4.018 5.974 4.018 3.478 5.96 9.129 4.235 11.35 3.243.353-2.525 1.363-4.24 2.476-5.217-8.659-.984-17.763-4.33-17.763-19.274 0-4.259 1.519-7.741 4.013-10.468-.399-.982-1.74-4.947.383-10.319 0 0 3.274-1.048 10.726 4.001 3.109-.869 6.446-1.303 9.763-1.316 3.312.014 6.65.447 9.763 1.316 7.447-5.049 10.716-4.001 10.716-4.001 2.128 5.372.788 9.337.388 10.319 2.5 2.727 4.008 6.209 4.008 10.468 0 14.979-9.117 18.279-17.805 19.241 1.398 1.205 2.646 3.59 2.646 7.229 0 5.211-.047 9.416-.047 10.695 0 1.045.701 2.26 2.681 1.873C77.836 82.798 89 68.191 89 50.965c0-21.54-17.461-39.002-39.002-39.002z" clip-rule="evenodd"/></svg>