<svg xmlns="http://www.w3.org/2000/svg" viewBox="0 0 100 100"><path d="M71.925 43.847c.846-.21 1.651-.773 2.481-.789 1.279-.032 2.724-.045 3.813.498 1.89.943 2.04 2.999.312 4.25-1.384.992-3.052 1.647-4.667 2.267-3.594 1.388-4.072 2.433-2.255 5.837 3.012 5.639 7.229 9.836 13.681 11.39.668.158 1.741.895 1.708 1.283-.073.882-.506 2.178-1.174 2.485-2.17 1.016-4.469 1.878-6.804 2.38-1.457.3-2.004.838-2.311 2.21-.656 2.894-1.231 3.254-4.036 2.692-4.461-.899-8.383-.125-12.184 2.619-7.67 5.549-13.386 5.525-21.04-.032-3.732-2.72-7.598-3.481-11.993-2.578-2.947.603-3.453.247-4.157-2.752-.291-1.226-.749-1.858-2.178-2.129a27.26 27.26 0 0 1-6.476-2.105c-.826-.38-1.481-1.692-1.643-2.659-.065-.397 1.316-1.307 2.161-1.542 6.946-1.898 11.176-6.65 14.021-12.949.672-1.49.105-2.546-1.129-3.238-1.101-.607-2.348-.951-3.522-1.441-.741-.312-1.498-.623-2.178-1.044-1.384-.854-2.546-1.915-1.745-3.752.652-1.51 2.801-2.311 4.493-1.769.959.304 1.898.7 2.874.915 1.279.275 2-.089 1.951-1.656-.113-3.558-.316-7.144-.028-10.686.607-7.484 4.983-12.423 11.718-15.05 9.735-3.781 21.36-.927 26.61 8.492 1.842 3.303 2.121 6.877 2.275 10.524-.146 2.287-.263 4.57-.445 6.845-.112 1.484.665 1.783 1.867 1.484z"/></svg>