<svg xmlns="http://www.w3.org/2000/svg" viewBox="0 0 100 100"><path d="M49.999 10.999C28.461 10.999 11 28.46 11 49.999c0 10.158 3.886 19.408 10.249 26.346a30.148 30.148 0 0 1 9.011-6.986 29.96 29.96 0 0 1 13.665-3.262 30.187 30.187 0 0 1 20.511 8.014 30.194 30.194 0 0 1 6.558 8.75C81.818 75.929 89 63.808 89 49.999c0-21.539-17.461-39-39.001-39zm18.468 54.147a2.598 2.598 0 0 1-3.618.654 36.167 36.167 0 0 0-20.71-6.475c-4.305 0-8.518.744-12.52 2.211a2.597 2.597 0 0 1-3.336-1.547 2.6 2.6 0 0 1 1.547-3.336 41.438 41.438 0 0 1 14.309-2.525 41.364 41.364 0 0 1 23.673 7.398 2.602 2.602 0 0 1 .655 3.62zm5.673-11.993a2.92 2.92 0 0 1-4.03.93 48.95 48.95 0 0 0-25.971-7.432c-5.119 0-10.167.787-15.005 2.342a2.927 2.927 0 0 1-1.787-5.574A54.95 54.95 0 0 1 44.14 40.8a54.786 54.786 0 0 1 29.07 8.322 2.925 2.925 0 0 1 .93 4.031zm2.864-10.402c-.56 0-1.126-.145-1.643-.449a61.707 61.707 0 0 0-31.223-8.469c-5.94 0-11.821.848-17.481 2.516a3.25 3.25 0 1 1-1.837-6.236 68.37 68.37 0 0 1 19.318-2.779c12.149 0 24.085 3.238 34.514 9.365a3.25 3.25 0 0 1-1.648 6.052zM54.908 84.444a16.157 16.157 0 0 0-10.983-4.293c-2.569 0-5.029.586-7.312 1.746a16.116 16.116 0 0 0-4.085 2.969 38.83 38.83 0 0 0 17.471 4.135 39.02 39.02 0 0 0 7.907-.805 16.136 16.136 0 0 0-2.998-3.752z"/></svg>