<svg xmlns="http://www.w3.org/2000/svg" viewBox="0 0 100 100"><path d="M90.624 66.304c-2.183-7.806-8.903-13.12-16.914-13.415-1.315-.048-2.246-.641-2.768-1.781-.873-1.911-.825-3.857.09-5.752.855-1.768 1.788-3.498 2.615-5.279 1.093-2.353 1.786-4.754 1.303-7.436-.572-3.186-2.348-5.565-4.615-7.671-3.786-3.518-8.419-5.38-13.33-6.632-3.276-.829-5.171-2.894-5.898-6.129-.204-.906-.38-1.816-.571-2.727-.331.528-.421 1.053-.479 1.581-.468 4.473 1.55 7.812 5.688 9.432.487.188.979.361 1.458.567 3.119 1.337 6.103 2.878 8.448 5.421 3.19 3.463 3.458 6.984.775 10.809-1.561 2.225-3.585 4.088-5.046 6.621-.067-.357-.093-.508-.122-.656-.631-3.022-1.328-6.016-3.086-8.656-3.785-5.672-8.855-9.774-15.038-12.582-2.406-1.092-4.819-2.156-6.77-4.068-3.494-3.422-4.804-7.583-4.519-12.355h-.482c.011.157.052.318.026.473-1.328 7.803.982 14.318 6.875 19.602 2.26 2.022 4.78 3.652 7.396 5.155 3.435 1.975 5.693 4.819 6.158 8.839.244 2.111.253 4.246.408 6.368.059.78-.424.508-.768.456-4.072-.635-7.94-1.886-11.692-3.598-3.792-1.73-6.243-4.537-7.444-8.492-.233-.766-.485-1.531-.714-2.298-.816-2.724-1.428-5.518-2.653-8.107-1.139-2.408-2.727-4.489-5.382-5.188-5.015-1.32-9.939-.958-14.629 1.432-.24.119-.544.219-.412.602.224.195.454.051.682.012 2.507-.437 4.997-.496 7.539-.085 5.069.816 8.188 3.558 9.154 8.667.321 1.692.834 3.354 1.12 5.051 1.537 9.107 6.444 15.828 14.341 20.472 1.579.927 3.131 1.905 4.907 2.989-2.072.373-3.938.721-5.808 1.049-3.875.676-7.755 1.319-11.715 1.094-2.149-.118-4.088-.591-4.943-2.9-.251-.674-.492-1.359-.655-2.057-.987-4.239-.801-8.553-.628-12.838.187-4.564-2.917-8.449-7.45-8.964-.219-.023-.536-.143-.687.122 2.471 1.934 4.377 4.141 4.104 7.482-.138 1.674-.469 3.336-.768 4.994-.735 4.078-1.42 8.158-.813 12.322.587 4.023 2.304 7.344 6.01 9.349 2.296 1.245 4.777 1.817 7.391 1.899 4.685.146 9.281-.672 13.876-1.352 4.19-.619 6.912 1.089 7.659 5.25.14.788.235 1.59.284 2.389.3 4.939 1.989 9.313 5.376 12.953 4.094 4.395 9.272 6.291 15.128 5.488 9.154-1.254 14.866-6.853 17.803-15.406 1.414-4.113 1.353-8.34.185-12.516z"/></svg>