<svg xmlns="http://www.w3.org/2000/svg" viewBox="0 0 100 100"><path d="M79.048 14H20.952C17.128 14 14 17.128 14 20.952v58.096C14 82.872 17.128 86 20.952 86h58.096C82.872 86 86 82.872 86 79.048V20.952C86 17.128 82.872 14 79.048 14zM74.41 36.852c-.565 2.938-4.314 13.219-11.107 22.297-2.97 3.836-6.442 7.604-10.897 10.206-1.643.96-4.893 2.172-7.052 1.266-1.512-.629-2.672-1.955-3.601-3.617-1.672-2.998-2.577-7.097-3.362-10.206-.725-2.851-1.405-5.558-2.291-8.036-.516-1.455-.83-2.927-1.43-4.325l-.009-.014.007.014-.068-.104c.02.03.041.059.061.091a9.553 9.553 0 0 0-.577-1.148c-1.7-2.828-4.133-.11-6.686-.481-.689-.1-1.211-.595-1.549-1.121-.194-.301.151-.612-.849-.864v-.275c4-2.916 7.17-6.455 11.46-8.939 1.345-.782 3.736-1.668 5.591-1.129 1.46.422 2.791 1.779 3.508 3.752h.002c.131 0 .247.651.34.942.715 2.214 1.099 5.043 1.463 7.194.577 3.387.481 8.631 2.415 11.59h.002c.255 0 .544.686.875 1.038 3.169 3.345 5.587-1.36 6.878-3.724 1.116-2.052 2.115-4.219 2.288-6.172.099-1.107.045-2.004-.15-2.699-.553-1.973-2.255-2.446-4.921-2.355-.34.012-.694.027-1.064.056 2.424-7.427 9.553-10.53 11.658-10.848 2.593-.39 6.372-.312 8.149 1.907a4.8 4.8 0 0 1 .79 1.436c.456 1.313.391 2.805.126 4.268z"/></svg>