<svg xmlns="http://www.w3.org/2000/svg" viewBox="0 0 100 100"><g><path d="M66.078 14.577a38.608 38.608 0 0 0-16.08-3.495c-4.65 0-9.221.894-13.62 2.542 1.031.936 28.368 25.748 29.7 26.959V14.577zM29.924 83.389V49.858A35455.873 35455.873 0 0 1 13.81 64.5c3.126 7.839 8.832 14.487 16.114 18.889zM11 50.082c0 3.35.505 6.757 1.416 10.132 1.058-.959 33.894-30.793 34.569-31.408-.659-.6-14.314-12.995-14.759-13.398C19.134 22.127 11 35.377 11 50.082zM34.019 67.034v18.605c3.965 1.776 8.111 2.885 12.378 3.279h7.161c13.471-1.256 25.498-9.561 31.474-21.885l-51.013.001zM70.189 16.813v46.111h16.598C88.24 58.767 89 54.448 89 50.082c0-13.553-7.206-26.206-18.811-33.269z"/></g></svg>