<svg xmlns="http://www.w3.org/2000/svg" viewBox="0 0 100 100"><path d="M81.652 14H18.001A7.06 7.06 0 0 0 14 18.336v62.793C14.917 83.955 17.562 86 20.687 86h58.279C82.851 86 86 82.843 86 78.948V20.517A7.05 7.05 0 0 0 81.652 14zM67.867 40.385h-1.4c-.52 0-1.119.682-1.119 1.163v17.437c0 .482.6 1.203 1.119 1.203h1.4v4.048H55.312v-4.048h2.519v-18.32h-.12l-6.198 22.368h-4.798l-6.118-22.368h-.12v18.32h2.639v4.048H32.481v-4.048h1.359c.56 0 1.16-.721 1.16-1.203V41.548c0-.481-.6-1.163-1.16-1.163h-1.359v-4.209h13.275l4.358 16.275h.12l4.398-16.275h13.235v4.209z"/></svg>