<svg xmlns="http://www.w3.org/2000/svg" viewBox="0 0 100 100"><g><path d="M45.718 55.325c-3.727-1.408-7.229-3.226-10.202-5.401-.077-.056-.157-.111-.233-.168a31.408 31.408 0 0 1-1.259-.991c-.107-.088-.211-.178-.316-.267a28.525 28.525 0 0 1-1.03-.919c-.062-.058-.127-.115-.188-.173-.373-.357-.73-.724-1.074-1.096-.091-.098-.179-.197-.268-.296a22.28 22.28 0 0 1-.877-1.037c-.041-.052-.085-.102-.125-.154a19.66 19.66 0 0 1-.862-1.204c-.07-.104-.137-.21-.204-.315a18.347 18.347 0 0 1-.693-1.171c-.021-.039-.045-.077-.066-.117a16.715 16.715 0 0 1-.75-1.642 15.601 15.601 0 0 1-.463-1.318l-.02-.06a14.956 14.956 0 0 1-.393-1.762c-.08-.482-.144-.968-.176-1.464a25.967 25.967 0 0 1-.047-1.963c.002-.199.018-.392.025-.589.016-.447.039-.892.081-1.329.021-.219.051-.435.078-.652a20.54 20.54 0 0 1 .318-1.854c.091-.413.198-.82.315-1.224.053-.183.104-.366.163-.547.148-.454.316-.9.499-1.341.049-.12.092-.242.144-.361a18.909 18.909 0 0 1 3.185-4.943l-15.07 3.608a5.637 5.637 0 0 0-4.171 6.793l12.535 52.421a5.637 5.637 0 0 0 6.793 4.171l6.451-1.543c-2.504-.829-6.833-2.409-10.982-4.623l6.015-13.644s7.079 6.304 17.242 6.304c10.165 0 14.682-11.93-4.375-19.129zM87.961 68.632L75.425 16.211a5.636 5.636 0 0 0-6.793-4.171l-10.797 2.581a41.758 41.758 0 0 1 4.282.916l.357.097c.241.066.488.136.738.209.131.038.261.075.394.115.353.106.714.218 1.083.339.116.038.237.081.355.12a53.161 53.161 0 0 1 1.321.464c.285.105.575.215.867.329.133.052.263.1.397.154.406.162.818.335 1.235.515.141.061.285.127.428.19a51.746 51.746 0 0 1 1.39.644c.452.219.906.444 1.365.685l-4.702 13.03s-3.913-4.371-14.405-4.903c-9.974-.504-15.522 10.285 3.931 16.647a47.04 47.04 0 0 1 1.67.585c.15.055.298.112.446.169.42.16.832.324 1.234.492.123.051.248.101.369.153a39.35 39.35 0 0 1 1.484.671c.062.029.12.06.181.09a37.569 37.569 0 0 1 1.574.813c.379.208.75.42 1.109.636.064.038.131.076.194.115.424.259.833.523 1.229.792l.202.141c.327.226.645.456.953.689.084.064.169.127.252.192.357.276.706.556 1.038.841 5.631 4.835 7.638 10.851 7.476 16.562-.128 4.513-1.707 8.184-3.538 10.953l11.048-2.641a5.638 5.638 0 0 0 4.169-6.793z"/></g></svg>