<svg xmlns="http://www.w3.org/2000/svg" viewBox="0 0 100 100"><path d="M79 14H21c-3.85 0-7 3.15-7 7v58c0 3.85 3.15 7 7 7h58c3.85 0 7-3.15 7-7V21c0-3.85-3.15-7-7-7zM66.715 74.172c-2.319 1.092-4.419 1.861-6.298 2.3-1.88.44-3.913.659-6.098.659-2.479 0-4.672-.313-6.579-.939-1.906-.627-3.532-1.522-4.878-2.678-1.347-1.161-2.28-2.394-2.799-3.701-.52-1.305-.78-3.198-.78-5.678V45.102h-5.998v-7.678c2.131-.693 3.959-1.685 5.478-2.979a14.873 14.873 0 0 0 3.659-4.659c.921-1.811 1.553-4.117 1.899-6.916h7.718v13.715h12.877v8.518H52.039v13.916c0 3.145.166 5.164.5 6.059.332.893.953 1.606 1.858 2.139 1.2.719 2.573 1.08 4.119 1.08 2.746 0 5.479-.894 8.198-2.681v8.556z"/></svg>