<svg xmlns="http://www.w3.org/2000/svg" viewBox="0 0 100 100"><path d="M77.5 49.719c-.035 0-.068.009-.103.01v-.01h-55v.01a2.995 2.995 0 0 0-2.897 2.99 2.996 2.996 0 0 0 2.897 2.99v.01h55v-.01c.035.001.068.01.103.01a3 3 0 1 0 0-6zM70.928 59.469h-7.14v.011c-.035-.002-.069-.011-.105-.011-.863 0-1.562.699-1.562 1.562 0 .126.019.247.047.365h-.018c.092.393.157.802.157 1.249 0 3.819-3.14 7.808-11.288 7.808-7.741 0-13.842-3.592-17.678-7.653a1.555 1.555 0 0 0-1.237-.617 1.56 1.56 0 0 0-1.275.664l-.001-.002-.01.015a.48.48 0 0 0-.019.029l-3.425 5.212.003.001a1.55 1.55 0 0 0-.398 1.033c0 .515.253.969.637 1.253 5.091 5.205 12.61 8.891 22.978 8.891 15.191 0 21.896-8.147 21.896-17.568 0-.172-.011-.335-.018-.501.007-.06.018-.118.018-.179 0-.863-.699-1.562-1.562-1.562zM31.868 45.677c.269.471.77.792 1.351.792h23.542a.502.502 0 0 0 0-1.004v-.008c-8.471-2.48-17.2-3.403-17.2-8.866 0-4.159 3.734-7.044 9.505-7.044 5.941 0 11.967 2.037 16.465 6.535l.006-.008c.272.231.62.375 1.005.375.491 0 .923-.231 1.21-.584l.002.003.028-.039c.028-.037.056-.074.081-.114l3.409-4.788-.003-.001a1.55 1.55 0 0 0 .398-1.033c0-.473-.215-.892-.547-1.178l.011-.015C65.956 23.606 58.742 20.72 50 20.72c-12.476 0-20.623 7.214-20.623 16.634 0 3.499.939 6.195 2.491 8.323z"/></svg>