<svg xmlns="http://www.w3.org/2000/svg" viewBox="0 0 100 100"><path d="M16.201 20.386l9.719 9.721a2.87 2.87 0 0 0 4.054 0 2.87 2.87 0 0 0 0-4.055l-9.679-9.677-.006-.008c-.002-.003-.005-.004-.008-.006l-.026-.026-.003.003a2.865 2.865 0 0 0-4.017.03 2.862 2.862 0 0 0-.03 4.015l-.004.003zM32.898 16.546l3.558 13.277a2.865 2.865 0 0 0 3.51 2.026 2.869 2.869 0 0 0 2.027-3.51l-3.545-13.224-.001-.007-.003-.007-.011-.04-.004.001a2.864 2.864 0 0 0-3.493-1.982 2.864 2.864 0 0 0-2.035 3.463l-.003.003zM16.054 39.423l-.001.005.046.012h.002l13.229 3.544a2.866 2.866 0 0 0 1.485-5.535L17.6 33.908c-.005-.002-.01-.005-.016-.006l-.017-.003-.03-.008-.001.003a2.865 2.865 0 0 0-3.463 2.035 2.866 2.866 0 0 0 1.981 3.494zM83.798 79.613l-9.72-9.72a2.866 2.866 0 1 0-4.053 4.055l9.679 9.677.006.008.008.006.026.026.003-.003a2.865 2.865 0 0 0 4.017-.03 2.864 2.864 0 0 0 .03-4.016l.004-.003zM67.101 83.454l-3.559-13.277a2.865 2.865 0 0 0-3.51-2.026 2.865 2.865 0 0 0-2.027 3.509l3.546 13.231v.002l.012.045.005-.001a2.864 2.864 0 0 0 3.493 1.983 2.865 2.865 0 0 0 2.034-3.463l.006-.003zM83.943 60.577l.001-.004-.041-.011-.005-.002-.005-.001-13.226-3.544c-1.53-.41-3.1.499-3.511 2.026a2.868 2.868 0 0 0 2.027 3.511l13.224 3.542a.014.014 0 0 0 .006.002l.007.001.04.011.001-.004a2.863 2.863 0 0 0 1.482-5.527zM48.212 51.756c-7.552-7.552-19.648-7.79-27.486-.713l-.019-.019L10.61 61.121c-7.797 7.797-7.797 20.44 0 28.237 7.797 7.798 20.439 7.798 28.237 0L48.945 79.26l-.019-.019c7.075-7.837 6.838-19.933-.714-27.485zm-6.553 20.802l-.619.619-.001.001h-.001l-9.005 9.005-.001.001c-3.935 3.935-10.314 3.935-14.248 0s-3.935-10.314 0-14.248l.001-.001 9.005-9.006.001-.001.001-.001.619-.619.029.028c3.959-3.329 9.874-3.134 13.6.591 3.726 3.726 3.921 9.642.591 13.6l.028.031zM89.389 10.641c-7.552-7.552-19.648-7.79-27.486-.713l-.019-.019-10.097 10.097c-7.797 7.797-7.797 20.44 0 28.237 7.797 7.798 20.439 7.798 28.237 0l10.098-10.098-.019-.019c7.075-7.837 6.838-19.933-.714-27.485zm-6.553 20.802l-.619.619-.001.001h-.001l-9.005 9.005-.001.001c-3.935 3.935-10.314 3.935-14.248 0-3.935-3.935-3.935-10.314 0-14.248l.001-.001 9.005-9.006.001-.001.001-.001.619-.619.029.028c3.959-3.329 9.874-3.134 13.6.591s3.921 9.642.591 13.6l.028.031z"/></svg>