<svg xmlns="http://www.w3.org/2000/svg" viewBox="0 0 100 100"><path d="M82.105 45.587H41.236V34.945c0-5.207 4.372-9.437 9.747-9.437 5.372 0 9.744 4.23 9.746 9.437 0 1.051.881 1.904 1.966 1.904h10.086c1.087 0 1.965-.853 1.965-1.904a1.8 1.8 0 0 0-.056-.457c-.253-12.456-10.79-22.513-23.707-22.513-13.074 0-23.71 10.305-23.71 22.97v10.642H17.896c-1.449 0-2.621 1.135-2.621 2.539v37.361c0 1.403 1.172 2.539 2.621 2.539h64.21c1.449 0 2.621-1.136 2.621-2.539V48.125c-.001-1.403-1.173-2.538-2.622-2.538z"/></svg>