<svg xmlns="http://www.w3.org/2000/svg" viewBox="0 0 100 100"><path d="M50 12.5c-20.712 0-37.5 16.793-37.5 37.502C12.5 70.712 29.288 87.5 50 87.5s37.5-16.788 37.5-37.498C87.5 29.293 70.712 12.5 50 12.5zM22.897 54.969h5.752a37.328 37.328 0 0 0 8.826 19.569c-7.501-3.844-13.015-11.022-14.578-19.569zm5.752-9.939h-5.752c1.564-8.546 7.078-15.724 14.579-19.568a37.33 37.33 0 0 0-8.827 19.568zM45.03 68.059a27.468 27.468 0 0 1-6.313-13.089h6.313v13.089zm0-23.029h-6.313a27.474 27.474 0 0 1 6.313-13.088V45.03zm32.072 0h-5.751a37.328 37.328 0 0 0-8.825-19.567c7.499 3.845 13.013 11.023 14.576 19.567zM54.97 68.057V54.969h6.313a27.487 27.487 0 0 1-6.313 13.088zm0-23.027V31.941a27.468 27.468 0 0 1 6.313 13.089H54.97zm7.553 29.509a37.33 37.33 0 0 0 8.828-19.57h5.752c-1.563 8.548-7.078 15.726-14.58 19.57z"/></svg>