<svg xmlns="http://www.w3.org/2000/svg" viewBox="0 0 100 100"><path d="M56.774 10.391c-17.679 0-32 14.329-32 32a31.845 31.845 0 0 0 4.588 16.517L13.845 74.423l.054.054c-1.656 1.585-2.673 3.835-2.673 6.378-.001 4.913 3.913 8.755 8.821 8.754 2.507-.001 4.749-1.004 6.349-2.636l.039.039 16.008-16.009a31.865 31.865 0 0 0 14.33 3.388c17.68 0 32-14.327 32-32 0-17.671-14.32-32-31.999-32zm.194 51.417c-11.05 0-20-8.954-20-20 0-11.044 8.951-20 20-20 11.05 0 20 8.955 20 20 0 11.046-8.95 20-20 20z"/><path d="M68.739 37.099H45.197c-.868 0-1.57.702-1.57 1.569v6.278c0 .867.702 1.569 1.57 1.569h23.542a1.57 1.57 0 0 0 1.57-1.569v-6.278a1.57 1.57 0 0 0-1.57-1.569z"/></svg>