<svg xmlns="http://www.w3.org/2000/svg" version="1.2" baseProfile="tiny" viewBox="0 0 50 50" overflow="inherit"><path d="M41 1H9C6.8 1 5 2.8 5 5v40c0 2.2 1.8 4 4 4h32c2.2 0 4-1.8 4-4V5c0-2.2-1.8-4-4-4zM17 41c0 1.1-.9 2-2 2h-4c-1.1 0-2-.9-2-2v-1c0-1.1.9-2 2-2h4c1.1 0 2 .9 2 2v1zm0-8c0 1.1-.9 2-2 2h-4c-1.1 0-2-.9-2-2v-1c0-1.1.9-2 2-2h4c1.1 0 2 .9 2 2v1zm0-8c0 1.1-.9 2-2 2h-4c-1.1 0-2-.9-2-2v-1c0-1.1.9-2 2-2h4c1.1 0 2 .9 2 2v1zm12 16c0 1.1-.9 2-2 2h-4c-1.1 0-2-.9-2-2v-1c0-1.1.9-2 2-2h4c1.1 0 2 .9 2 2v1zm0-8c0 1.1-.9 2-2 2h-4c-1.1 0-2-.9-2-2v-1c0-1.1.9-2 2-2h4c1.1 0 2 .9 2 2v1zm0-8c0 1.1-.9 2-2 2h-4c-1.1 0-2-.9-2-2v-1c0-1.1.9-2 2-2h4c1.1 0 2 .9 2 2v1zm12 16c0 1.1-.9 2-2 2h-4c-1.1 0-2-.9-2-2v-1c0-1.1.9-2 2-2h4c1.1 0 2 .9 2 2v1zm0-8c0 1.1-.9 2-2 2h-4c-1.1 0-2-.9-2-2v-1c0-1.1.9-2 2-2h4c1.1 0 2 .9 2 2v1zm0-8c0 1.1-.9 2-2 2h-4c-1.1 0-2-.9-2-2v-1c0-1.1.9-2 2-2h4c1.1 0 2 .9 2 2v1zm0-9c0 1.1-.9 2-2 2H11c-1.1 0-2-.9-2-2V8c0-1.1.9-2 2-2h28c1.1 0 2 .9 2 2v8z"/></svg>