<svg xmlns="http://www.w3.org/2000/svg" version="1.2" baseProfile="tiny" viewBox="0 0 50 50" overflow="inherit"><path d="M24.064 15h.966c5.4 0 8.504 5.271 8.525 8.753-.021.678-.189 1.319-.956 1.304-1.618.015-1.041-2.691-2.379-4.903C29.59 19.062 27.562 17 25.251 17H24.4c-1.24 0-3.572.825-5.137 3.184-1.959 2.842-.672 4.987-2.317 4.977-.252.011-.977-.147-.966-1.325.074-5.347 4.975-8.836 8.084-8.836zm.736 30c2.027 0 3.2-2.257 3.2-3.669v-2.942c0-6.009 6.504-8.382 6.482-14.402.021-5.641-4.975-9.895-9.786-9.885-3.992-.01-6.667 2.564-7.696 3.897-3.089 3.819-1.288 7.459-3.472 7.459-.62 0-1.217-.352-1.227-1.586-.096-5.977 4.839-12.302 12.607-12.312 6.266.011 12.36 5.001 12.36 12.654 0 7.091-6.27 8.578-6.27 14.796v2.658c0 2.736-2.379 5.861-6.381 5.878-.146-.043-.282-.095-.471-.116-.735-.22-1.234-.882-1.055-1.638.212-.657.837-.792 1.657-.792h.052zM44.609 1h-2.846l-9.692 10.626c1.019.527 1.959 1.279 2.795 2.075 1.38 1.31 2.207 2.95 2.834 4.716L49 7.129V1h-4.391zM1 49h9.077l13.547-14.697-8.093-5.392L1 44.164V49z"/></svg>