<svg xmlns="http://www.w3.org/2000/svg" version="1.2" baseProfile="tiny" viewBox="0 0 50 50" overflow="inherit"><path d="M25.776 20H25v9h.776c2.383 0 4.301-2.124 4.301-4.507 0-2.37-1.918-4.493-4.301-4.493zM40 7H10C4.5 7 0 11.5 0 17v14c0 5.5 4.5 10 10 10h30c5.5 0 10-4.5 10-10V17c0-5.5-4.5-10-10-10zM20 32h-4v-2h-5.89l-1.369 2H3.547l11.609-16H20v16zm7 0h-6V16h5.253c4.46 0 7.999 3.627 7.999 8.1 0 4.461-2.791 7.9-7.252 7.9zm8.76 0h-1.381c1.784-2 2.799-4.774 2.799-7.597 0-3.177-1.284-6.403-3.532-8.403h1.994c2.003 3 3.128 5.287 3.128 8.403 0 2.773-.88 5.597-2.494 7.597h-.514zm4.081 0h-1.393c1.796-2 2.811-4.774 2.811-7.597 0-3.177-1.296-6.403-3.544-8.403h1.992c2.005 3 3.142 5.287 3.142 8.403 0 2.773-.893 5.597-2.506 7.597h-.502zm4.583 0h-1.907c1.796-2 2.811-4.774 2.811-7.597 0-3.177-1.296-6.403-3.544-8.403h1.992c2.005 3 3.142 5.287 3.142 8.403-.001 2.774-.894 5.597-2.494 7.597zM16 27v-5.903L12.334 27z"/></svg>