<svg xmlns="http://www.w3.org/2000/svg" version="1.2" baseProfile="tiny" viewBox="0 0 50 50" overflow="inherit"><path d="M34.682 25.801c-1.438-1.134-3.596-2.04-6.474-2.717L26 22.563v-9.43l.299.122C28.173 14.204 29.18 16 29.318 18h7.516c-.137-4-1.615-6.958-4.434-9.048C30.527 7.563 28.391 6.67 26 6.22V1h-7v5.06c-3.237.4-5.804 1.442-7.689 3.136-2.468 2.218-3.701 5.002-3.701 8.354 0 3.673 1.261 6.373 3.783 8.1 1.412.979 3.957 1.888 7.607 2.73v10.216c-1.331-.367-2.374-.971-3.109-1.844-.709-.848-1.184-1.752-1.426-3.752H7c0 4 1.411 6.87 4.234 9.096 2.038 1.606 4.632 2.582 7.766 3.005V49h7v-3.833c3.333-.399 6.024-1.463 8.062-3.204 2.643-2.26 3.965-5.1 3.965-8.519 0-3.335-1.115-5.882-3.345-7.643zm-18.014-5.817c-1.215-.66-1.822-1.662-1.822-3 0-1.456.616-2.597 1.848-3.409.65-.429 1.424-.741 2.306-.947v8.224c-1.085-.316-1.868-.606-2.332-.868zm10.475 18.407a9.74 9.74 0 0 1-1.143.306V30c1.205.357 2.156.746 2.848 1.164 1.092.677 1.639 1.64 1.639 2.875-.001 2.116-1.116 3.573-3.344 4.352z"/></svg>