<svg xmlns="http://www.w3.org/2000/svg" version="1.2" baseProfile="tiny" viewBox="0 0 50 50" overflow="inherit"><path d="M34.781 6.664H27.83c-1.256.004-1.209 1.876 0 1.865h6.951v.957H27.83c-1.249-.011-1.203 1.86 0 1.865h6.951v.978H27.83c-1.249 0-1.203 1.87 0 1.865h6.951v.932H27.83c-1.223.009-1.203 1.881 0 1.887h6.951v.934H27.83c-1.223-.004-1.228 1.865 0 1.865h6.951v.932H27.83c-1.223.004-1.228 1.875 0 1.866h6.951v.955H27.83c-1.223-.011-1.228 1.858 0 1.865h6.951v.93H27.83c-1.223-.001-1.203 1.872 0 1.866h6.951v18.159c.004 2.767 4.207 2.717 4.219 0V3.89c-.012-1.264-1.05-2.862-2.758-2.867H27.83c-1.256.001-1.209 1.873 0 1.865l6.951.023v.93H27.83c-1.254-.006-1.207 1.865 0 1.866h6.951v.957zm-7.429 32.194C27.348 35.628 24 32.154 20 34.404V22.05L17.413 1.675c-.054-.539-.511-.666-.818-.675-.317.009-.952.136-1.021.675L13 22.05v12.354c-4-2.25-7.24 1.246-7.241 4.429.001 2.832 2.181 5.158 5.131 5.151 2.972.007 5.11-2.6 5.11-5.151V26h1v12.833c0 2.856 2.212 4.97 4.67 5.104-.041 1.566.47 3.8 1.432 4.686 1.128 1.04 2.471-.29 1.92-1.373-.532-1.008-1.054-1.605-.63-3.806 1.772-.82 2.956-2.546 2.96-4.586zm-16.348 2.541a2.542 2.542 0 0 1 0-5.085c1.386.008 2.515 1.145 2.525 2.544a2.552 2.552 0 0 1-2.525 2.541zm8.571-2.541a2.553 2.553 0 0 1 2.526-2.544 2.548 2.548 0 0 1 2.525 2.544 2.545 2.545 0 0 1-2.525 2.541 2.549 2.549 0 0 1-2.526-2.541z"/></svg>