<svg xmlns="http://www.w3.org/2000/svg" version="1.2" baseProfile="tiny" viewBox="0 0 50 50" overflow="inherit"><path d="M50 40c-1 0-2.007-.236-2.876-.637a6.888 6.888 0 0 0-2.944-.674 6.91 6.91 0 0 0-2.958.674c-.88.4-1.854.637-2.875.637a6.876 6.876 0 0 1-2.863-.637 6.91 6.91 0 0 0-2.956-.674c-1.045 0-2.054.25-2.945.674a6.95 6.95 0 0 1-2.877.637 6.842 6.842 0 0 1-2.864-.637 6.902 6.902 0 0 0-2.954-.674c-1.056 0-2.052.25-2.946.674a6.923 6.923 0 0 1-2.874.637 6.815 6.815 0 0 1-2.858-.637c-.904-.424-1.902-.674-2.957-.674s-1.768.25-2.673.674C5.711 39.764 5 40 4 40v-4.378c1 0 1.711-.236 2.58-.637.904-.413 1.76-.663 2.815-.663s1.981.25 2.886.663c.87.4 1.802.637 2.823.637s1.976-.236 2.857-.637a6.971 6.971 0 0 1 2.937-.663c1.052 0 2.056.25 2.949.663.869.4 1.841.637 2.861.637 1.02 0 1.993-.236 2.875-.637a7.034 7.034 0 0 1 2.944-.663c1.054 0 2.062.25 2.956.663.868.4 1.855.637 2.863.637a6.927 6.927 0 0 0 2.875-.637 7.067 7.067 0 0 1 2.958-.663c1.043 0 2.052.25 2.944.663.869.4 1.876.637 2.876.637V40zM38.288 21.714l8.466.673-.639-4.403-6.215-.447c-1.68-.083-1.438 1.629-1.438 1.629l-.174 2.548zm-15.699-1.003c1.555 0 2.807-1.274 2.807-2.855 0-1.582-1.251-2.855-2.807-2.855-1.553 0-2.802 1.274-2.802 2.855s1.249 2.855 2.802 2.855zM5.265 31.716a7.126 7.126 0 0 0 1.032-.401c.905-.424 1.902-.673 2.957-.673s2.053.249 2.957.673c.87.401 1.837.637 2.858.637a6.915 6.915 0 0 0 2.875-.637 6.856 6.856 0 0 1 2.946-.673c1.052 0 2.061.249 2.954.673a6.842 6.842 0 0 0 2.864.637c1.02 0 1.994-.235 2.876-.637a6.881 6.881 0 0 1 2.945-.673c1.054 0 2.062.249 2.956.673a6.876 6.876 0 0 0 2.863.637 6.912 6.912 0 0 0 2.875-.637 6.909 6.909 0 0 1 2.958-.673c1.043 0 2.052.249 2.944.673a6.843 6.843 0 0 0 2.865.637l-.952-7.807-35.188-2.998 5.311-5.452-2.331-.212-5.304 5.464-11.525-.968c-.07 4 4.312 10.651 5.264 11.737z"/></svg>