<svg xmlns="http://www.w3.org/2000/svg" version="1.2" baseProfile="tiny" viewBox="0 0 50 50" overflow="inherit"><path d="M49 10.489c.604-.457 1-1.173 1-1.989a2.5 2.5 0 1 0-5 0 2.49 2.49 0 0 0 1 1.989V26h-9v8h10v-.297A3.994 3.994 0 0 0 49.5 30c0-.691-.191-1.332-.5-1.899V10.489zM6 17c1.021 0 1.73.172 3 0 0 0-4.016 2.666-4.016 6H10s.006-5.554 3-9l-1-1s-2 1-4 0c0 0-2 0-4 1v-1H3v6h1s0-2 2-2zm14 0c1.021 0 1.73.172 3 0 0 0-4.016 2.666-4.016 6H24s.006-5.554 3-9l-1-1s-2 1-4 0c0 0-2 0-4 1v-1h-1v6h1s0-2 2-2zM38 7V5H25.88c-.456-2.002-2.239-3.5-4.38-3.5S17.576 2.998 17.12 5H5v2H0v41h44V7h-6zm-22 4h12v14H16V11zM2 11h12v14H2V11zm36 32H5v-7h33v7zm4-18H30V11h12v14zm-8-8c1.021 0 1.73.172 3 0 0 0-4.016 2.666-4.016 6H38s.006-5.554 3-9l-1-1s-2 1-4 0c0 0-2 0-4 1v-1h-1v6h1s0-2 2-2z"/></svg>