<svg xmlns="http://www.w3.org/2000/svg" version="1.2" baseProfile="tiny" viewBox="0 0 50 50" overflow="inherit"><path d="M15.599 23c-.033-1-.32-1.731-.806-2.206-.475-.513-1.137-.885-1.976-.885-2.871 0-3.345 2.919-3.345 5.199 0 2.897 1.104 4.783 3.345 4.783 1.976 0 2.749-.892 2.969-2.892h7.717c-.662 6-5.365 8.002-10.686 8.002-6.205 0-10.985-3.49-10.985-9.987 0-6.574 4.625-10.131 10.985-10.131 5.133 0 9.991 2.117 10.532 8.117h-7.75zm24.497 0c-.033-1-.331-1.731-.806-2.206-.475-.513-1.137-.885-1.988-.885-2.858 0-3.333 2.919-3.333 5.199 0 2.897 1.104 4.783 3.333 4.783 1.988 0 2.761-.892 2.981-2.892H48c-.662 6-5.365 8.002-10.698 8.002-6.204 0-10.973-3.49-10.973-9.987 0-6.574 4.626-10.131 10.973-10.131 5.146 0 9.991 2.117 10.544 8.117h-7.75z"/></svg>