<svg xmlns="http://www.w3.org/2000/svg" version="1.2" baseProfile="tiny" viewBox="0 0 50 50" overflow="inherit"><path d="M24.718 49c-11.54 0-20.929-9.389-20.929-20.93 0-7.386 3.776-14.083 10.102-17.913a2.867 2.867 0 1 1 2.971 4.905c-4.595 2.782-7.338 7.646-7.338 13.008 0 8.379 6.816 15.195 15.195 15.195 8.379 0 15.194-6.816 15.194-15.195 0-5.45-2.944-10.515-7.687-13.215a2.867 2.867 0 1 1 2.837-4.982 20.985 20.985 0 0 1 10.585 18.198C45.647 39.611 36.26 49 24.718 49zM24.5 27.784c-1.583 0-3.5-1.284-3.5-2.867V4.274c0-1.583 1.917-2.867 3.5-2.867S28 2.691 28 4.274v20.643c0 1.583-1.917 2.867-3.5 2.867z"/></svg>