<svg xmlns="http://www.w3.org/2000/svg" version="1.2" baseProfile="tiny" viewBox="0 0 50 50" overflow="inherit"><path d="M2.425 33.614l-.045-.119c0-.097.068-.179.169-.179l4.862.013a.443.443 0 0 0 .438-.454c0-.191-.09-.323-.27-.43l-4.414-2.232a.333.333 0 0 1-.135-.263c0-.084.034-.168.079-.216 0 0 11.584-10.886 37.208-.332l7.041-3.654a.486.486 0 0 1 .236-.061c.291 0 .54.264.54.574a.592.592 0 0 1-.08.297L43.9 32.049l4.154 5.493c.046.083.08.19.08.297 0 .322-.249.585-.54.585a.509.509 0 0 1-.236-.059L40.317 34.7c.001.001-24.5 10.362-37.892-1.086zm7.816-2.243c.932 0 1.668-.79 1.668-1.772 0-.999-.736-1.785-1.668-1.785-.92 0-1.656.786-1.656 1.785 0 .982.736 1.772 1.656 1.772zM32 13v6h14.17c1.56 0 2.83-1.341 2.83-3 0-1.672-1.27-3-2.83-3H32zM5.896 17.32l1.292-.573.808 1.469 1.303-1.003.932 1.385 1.247-1.075 1.011 1.314 1.179-1.146 1.072 1.252 1.135-1.205 1.134 1.205 1.134-1.205 1.123 1.205 1.135-1.205 1.13 1.205 1.135-1.205 1.134 1.205 1.123-1.205 1.135 1.205 1.135-1.205 1.134 1.205 1.327-1.205L31 18.944V13H1v.036c1 1.73 3.021 3.199 4.896 4.284z"/></svg>