<svg xmlns="http://www.w3.org/2000/svg" version="1.2" baseProfile="tiny" viewBox="0 0 50 50" overflow="inherit"><path d="M28.854 28.732c1.297.439 2.707-.22 3.16-1.487.451-1.264-.237-2.638-1.535-3.078-1.299-.44-2.709.231-3.16 1.495a2.399 2.399 0 0 0 1.535 3.07zm20.348-15.755s-8.396-.984-25.833-.984c-12.862 0-23.369.984-23.369.984s4.357 1.869 3.601 7.663c0 0 6.252-.726 8.871 4.49l11.743-3.469-.768 7.632-4.967 1.187c-.44.099-.812.308-1.116.571L6.467 41.298a1.523 1.523 0 0 0-.033 2.208c.609.628 1.636.65 2.268.056l8.199-7.694 10.045-2.396-.068.021 1.67-.418 1.535 1.705c.237.252.575.406.937.406l5.406.021c.678 0 1.241-.538 1.241-1.209 0-.583-.417-1.033-.97-1.166l-4.029-13.661 16.782-4.952c.802-.342.734-1.138-.248-1.242zm-13.712 19.8c-1.23 0-3.285-.011-3.905-.011l-2.913-3.21-.124-.088a2.52 2.52 0 0 0-2.459-.803l-1.457.353.779-7.709 6.15-1.813 3.929 13.281z"/></svg>