<svg xmlns="http://www.w3.org/2000/svg" version="1.2" baseProfile="tiny" viewBox="0 0 50 50" overflow="inherit"><path d="M27.509 9.579c.605.554 1.178 1.077 1.608 1.734l.239.365.395-.188c1.098-.525 1.847-1.365 2.571-2.177.546-.612 1.062-1.191 1.709-1.626l.402-.271-.259-.411a14.36 14.36 0 0 0-4.368-4.424l-.371-.241-.284.34a31.159 31.159 0 0 1-3.664 3.709l-.289.248.162.345c.52 1.107 1.348 1.864 2.149 2.597zm6.431 7.567c3.759 0 6.837-1.536 8.667-4.326l.218-.332-.273-.288c-.318-.334-.622-.683-.926-1.032-.907-1.041-1.846-2.117-3.168-2.831l-.461-.249-.227.474c-1.546 3.22-4.539 3.896-6.777 3.896-3.923 0-8.638-2.189-10.734-4.985l-1.65-2.201.771 2.641c1.433 4.919 8.238 9.233 14.56 9.233zm-12.972 8.633c1.562-2.972 1.627-6.452.165-9.607-1.442-3.114-4.111-5.309-7.138-5.875a10.244 10.244 0 0 0-1.879-.179c-3.676 0-6.082 2.146-8.408 4.22-.847.755-1.647 1.473-2.501 2.082l-.597.436.614.421c.196.127.689.876 1.086 1.446C3.57 20.533 4.62 22 5.736 22h.001c.393 0 .76-.466 2.039-1.904.539-.605 1.149-1.374 1.476-1.633 1.462-1.161 3.466-2.751 5.655-2.751.295 0 .592.029.881.087 1.013.203 1.625.672 1.87 1.435.502 1.563-.651 3.959-1.64 5.017-.499.535-1.045.92-1.624 1.328-.83.585-1.688 1.191-2.397 2.256l-.23.346.299.29 1.29 1.258c1.11 1.087 2.258 2.211 3.436 3.273l.395.356.332-.416c.747-.937 1.535-1.934 2.308-2.953.208.309.429.625.656.949 1.705 2.438 3.638 5.201 2.377 8.812-.939 2.691-4.11 4.443-7.682 4.186-4.224-.296-7.984-3.902-11.497-11.024-.219-.445-.399-.944-.573-1.427-.407-1.13-.829-2.298-1.811-3.024l-.985-.728.194 1.209c1.031 6.432 4.053 12.639 8.085 16.604 2.439 2.402 6.441 3.954 10.195 3.954 4.337 0 8.984-2.254 9.016-8.58.028-5.925-3.631-9.773-6.572-12.865l-.262-.276zm27.369-5.433c-1.165-2.167-5.545-3.747-7.742-3.266-3.328.726-5.661 2.609-7.72 4.271-2.107 1.702-3.928 3.171-6.358 3.171-.73 0-1.477-.13-2.283-.396l-1.28-.423.694 1.155c1.594 2.653 3.455 3.943 5.689 3.943 1.815-.001 3.673-.871 5.514-1.998l.413 1.224c.935 2.769 5.005 6.876 8.71 6.876l.222-.006c1.617-.072 2.967-.983 3.905-2.637 1.922-3.387 1.705-9.186.236-11.914zm-10.941 4.786c2.732-1.857 5.602-3.764 7.953-3.349 1.023 1.778.605 3.309.061 4.293-1.038 1.873-3.312 3.182-5.532 3.182-1.046 0-2.547-.298-3.759-1.716l-.853-.997c.713-.451 1.424-.934 2.13-1.413z"/></svg>