<svg xmlns="http://www.w3.org/2000/svg" version="1.2" baseProfile="tiny" viewBox="0 0 50 50" overflow="inherit"><path d="M49 47.395c-11 .161-22.9-1.992-31.994-9.25l.074-.209c0-.161.218-.3.392-.3l8.981.012c.443 0 .813-.348.813-.788 0-.323-.143-.544-.479-.718l-8.089-3.843a.499.499 0 0 1-.253-.451c0-.151-.252-.278-.159-.371 0 0 9.713-8.67 30.713-8.473v24.391zM30.639 33.664a1.916 1.916 0 0 0 1.922-1.908c0-1.055-.861-1.9-1.922-1.9-1.049 0-1.91.846-1.91 1.9 0 1.052.861 1.908 1.91 1.908zM1 2h9v7H1zm18 0h30v7H19zm-5 10.5c-1 .243-1.299.961-1.299 1.793 0 .834.299 1.552 1.299 1.818v11.75c0 1.516-1.442 2.731-2.968 2.731-1.514 0-2.85-1.216-2.85-2.731 0-.37.013-.729.153-1.054l.088.093.953.881-.613-5.361-1.576 3.613c-.477 1.111-.363 1.828-.363 1.828 0 2.188 1.883 3.971 4.084 3.971 2.213 0 4.09-1.783 4.09-3.971V16.088c1-.267 1.281-.972 1.281-1.795 0-.833-.281-1.551-1.281-1.816V2h-1v10.5z"/></svg>