<svg xmlns="http://www.w3.org/2000/svg" version="1.2" baseProfile="tiny" viewBox="0 0 50 50" overflow="inherit"><path d="M41.446 30.82c-.997 0-1.949.238-2.793.648a6.622 6.622 0 0 1-2.718.602 6.615 6.615 0 0 1-2.715-.602 6.401 6.401 0 0 0-2.793-.648c-.986 0-1.939.238-2.794.648a6.526 6.526 0 0 1-2.705.602 6.596 6.596 0 0 1-2.72-.602 6.395 6.395 0 0 0-2.794-.648c-.996 0-1.948.238-2.792.648a6.607 6.607 0 0 1-2.711.602 6.617 6.617 0 0 1-2.717-.602 6.342 6.342 0 0 0-2.781-.648c-.998 0-1.902.238-2.747.648-.831.376-1.666.602-2.666.602v4.212c1 0 1.835-.229 2.668-.603a6.309 6.309 0 0 1 2.771-.647c.996 0 1.926.238 2.769.647a6.692 6.692 0 0 0 2.273.557l-3.376 3.483a2.704 2.704 0 0 0-3.431.399l-3.867 4.006c-1.074 1.113-1.075 2.916 0 4.04a2.693 2.693 0 0 0 3.898 0l3.868-4.005c.877-.911 1.029-2.271.481-3.35l4.65-4.812c.318-.104.624-.182.92-.318a6.41 6.41 0 0 1 2.792-.647c.998 0 1.95.238 2.794.647a6.612 6.612 0 0 0 2.72.603c.964 0 1.881-.229 2.705-.603a6.482 6.482 0 0 1 2.794-.647c.996 0 1.948.238 2.793.647a6.632 6.632 0 0 0 2.715.603c.965 0 1.884-.229 2.718-.603a6.408 6.408 0 0 1 2.793-.647c.995 0 1.961.238 2.815.647.82.375 1.737.603 2.737.603V32.07c-1 0-1.917-.227-2.738-.602a6.553 6.553 0 0 0-2.816-.648zm1.873-20.596l3.867-4.007c1.084-1.123 1.084-2.929 0-4.042a2.678 2.678 0 0 0-3.9 0L39.42 6.182c-.932.965-1.051 2.441-.372 3.542l-4.809 4.99-9.552-3.667a3.815 3.815 0 0 0-.81-.364c-2.084-.646-4.286.579-4.911 2.737l-2.935 10.225-.059.355H3v5.407c1 0 1.403-.171 2.05-.465a7.835 7.835 0 0 1 3.386-.784c1.16 0 2.322.273 3.363.774a5.021 5.021 0 0 0 2.119.475c.729 0 1.437-.157 2.095-.465a7.96 7.96 0 0 1 3.404-.784c1.173 0 2.322.261 3.387.774a4.978 4.978 0 0 0 4.226.01 7.923 7.923 0 0 1 3.397-.784c1.182 0 2.322.261 3.383.774.68.317 1.415.475 2.125.475.725 0 1.447-.157 2.104-.465a7.933 7.933 0 0 1 3.407-.784c.195 0 .995.063 1.786-.481 1.401-.635 1.928-.998 3.153-1.776C47.395 25.26 48.193 24 46 24H27l5.869-5.802.745.294c.942.352 1.993-.147 2.344-1.124a1.938 1.938 0 0 0-.405-1.94l4.535-4.717c1.04.569 2.353.42 3.231-.487zM25.333 24h-1.171l2.365-8.199 4.886 1.889-6.08 6.31zm-.032-18.087l-.504 1.016C24.468 7.62 23.79 8 23.011 8h-1.185c.681 1 1.989 1.632 3.248 1.632C27.133 9.632 29 7.891 29 5.756V6h-3.523l-.176-.087zM23.011 7c.406 0 .768-.253.932-.615l.493-.897c.186-.421.58-.488 1.041-.488h3.854c-.505-2-2.311-3.782-4.446-3.782-2.533 0-4.582 2.018-4.582 4.65 0 .42.044 1.132.154 1.132h2.554z"/></svg>