<svg xmlns="http://www.w3.org/2000/svg" version="1.2" baseProfile="tiny" viewBox="0 0 50 50" overflow="inherit"><path d="M25.117 10.335c-1.475 0-2.691-1.222-2.691-2.72 0-1.508 1.216-2.719 2.691-2.719a2.703 2.703 0 0 1 2.705 2.719 2.71 2.71 0 0 1-2.705 2.72zm21.836 23.806l-1.441-9.027c-.164-.844-.898-1.486-1.771-1.486-.531 0-1.004.226-1.347.595l-6.639 6.26a2.211 2.211 0 0 0-.307.333 1.957 1.957 0 0 0 .404 2.708c.162.117.342.201.519.273l1.663.559C36.432 38.915 31.818 43.039 27 44V14c2.361-1.01 4.695-3.652 4.695-6.385C31.695 3.957 28.753 1 25.117 1c-3.623 0-6.576 2.957-6.576 6.615 0 2.733 2.108 5.375 4.458 6.385v30c-4.924-.891-9.406-5-11.048-9.645l1.678-.559c.177-.072.353-.156.519-.273.849-.642 1.038-1.854.402-2.708a1.64 1.64 0 0 0-.308-.333l-6.638-6.26a1.798 1.798 0 0 0-1.335-.595c-.885 0-1.63.642-1.783 1.486L3.045 34.14a2.03 2.03 0 0 0-.045.453 1.933 1.933 0 0 0 2.492 1.851l1.559-.51C9.531 43.512 16.626 49 25 49c8.373 0 15.471-5.488 17.951-13.078l1.56.521c.175.06.367.085.565.085a1.932 1.932 0 0 0 1.925-1.936 1.902 1.902 0 0 0-.048-.451z"/></svg>