<svg xmlns="http://www.w3.org/2000/svg" version="1.2" baseProfile="tiny" viewBox="0 0 50 50" overflow="inherit"><path d="M8.524 30.795c-1.978 0-3.585 1.617-3.585 3.604A3.595 3.595 0 0 0 8.524 38a3.597 3.597 0 0 0 3.59-3.602 3.599 3.599 0 0 0-3.59-3.603zm0 5.461a1.798 1.798 0 0 1-1.792-1.803 1.8 1.8 0 0 1 1.792-1.801 1.8 1.8 0 0 1 1.797 1.801 1.798 1.798 0 0 1-1.797 1.803zm31.543-5.461c-1.981 0-3.587 1.617-3.587 3.604a3.595 3.595 0 0 0 3.587 3.602c1.98 0 3.59-1.613 3.59-3.602a3.6 3.6 0 0 0-3.59-3.604zm0 5.461a1.8 1.8 0 0 1-1.794-1.803 1.801 1.801 0 0 1 1.794-1.801c.992 0 1.797.809 1.797 1.801a1.8 1.8 0 0 1-1.797 1.803zM48.007 14H16.461a.996.996 0 0 0-.993.997v9.042h-1.987v-5.551a.995.995 0 0 0-.994-.997H5.719c-1.18 0-2.234.872-2.423 2.12v-.065L2.24 25.533l.002.021A1.495 1.495 0 0 0 1 27.03l.033.32L1 27.341l1.49 6.735h1.552v-.061c0-2.414 1.975-4.369 4.41-4.369 2.433 0 4.409 1.955 4.409 4.369v.061h22.726v-.061c0-2.414 1.976-4.369 4.407-4.369 2.435 0 4.411 1.955 4.411 4.369l-.004.061H49V14.997a.995.995 0 0 0-.993-.997zm-38.004 5.111v4.928h-5.96l.745-4.181c.062-.5.497-.869.931-.869h4.284v.122z"/></svg>