<svg xmlns="http://www.w3.org/2000/svg" version="1.2" baseProfile="tiny" viewBox="0 0 50 50" overflow="inherit"><path d="M12.788 34.705c-6.205 0-10.985-3.488-10.985-9.985 0-6.574 4.625-10.355 10.985-10.355 6.358 0 10.984 3.782 10.984 10.355-.001 6.497-4.78 9.985-10.984 9.985zm0-5.139c2.241 0 3.345-1.91 3.345-4.808 0-2.28-.475-5.255-3.345-5.255-2.871 0-3.346 2.975-3.346 5.255 0 2.898 1.104 4.808 3.346 4.808zM40.066 22c-.033-1-.331-1.378-.806-1.853-.475-.514-1.137-.708-1.988-.708-2.858 0-3.333 3.007-3.333 5.287 0 2.898 1.104 4.973 3.333 4.973 1.988 0 2.761-1.699 2.981-2.699h7.717c-.662 6-5.365 7.854-10.698 7.854-6.203 0-10.973-3.563-10.973-10.06 0-6.574 4.626-10.522 10.973-10.522 5.146 0 9.992 2.728 10.543 7.728h-7.749z"/></svg>