<svg xmlns="http://www.w3.org/2000/svg" version="1.2" baseProfile="tiny" viewBox="0 0 50 50" overflow="inherit"><path d="M48.759 8.229C48.517 7.141 48.502 7 46.059 7h-2.456l-.491-1.349c-.648-1.957-2.826-3.822-4.996-4.366C36.86.971 32.386.916 21.467.992c-13.727.096-15.05.174-16.408.785C2.019 3.143.344 6.587 1.242 9.62c.627 2.114 1.945 3.679 3.817 4.52 1.357.61 2.68.674 16.407.769 10.918.077 15.393-.01 16.648-.325 2.177-.545 4.349-2.477 5.003-4.452.493-1.485.515-1.5 2.125-1.394l1.625.107.108 5.126.107 5.125-4.763 1.125c-2.616.619-5.893 1.41-7.28 1.759a897.908 897.908 0 0 1-7.464 1.815l-4.944 1.183-.001 2.596c-.001 2.58.225 2.604-1.316 3.892L20 32.761V49h7V32.761l-1.431-1.312c-1.526-1.276-1.498-1.369-1.382-3.332l.151-2.018 1.764-.439c.961-.243 4.022-.987 6.795-1.658 2.773-.669 7.534-1.818 10.575-2.554L49 20.112v-5.328c0-2.928-.109-5.951-.241-6.555zM24.775 44.636c0 .842-.159 1.016-1.015 1.105-1.078.11-1.544-.424-1.314-1.504.09-.421.461-.603 1.229-.603.976.001 1.1.115 1.1 1.002z"/></svg>