<svg xmlns="http://www.w3.org/2000/svg" version="1.2" baseProfile="tiny" viewBox="0 0 50 50" overflow="inherit"><path d="M35.101 10.454c1.879 0 3.399-1.563 3.399-3.495 0-1.92-1.521-3.484-3.399-3.484-1.865 0-3.387 1.563-3.387 3.484 0 1.932 1.521 3.495 3.387 3.495zm2.526.782h-4.951l-8.438-8.681a1.688 1.688 0 0 0-2.448-.058 1.815 1.815 0 0 0-.066 2.518l8.818 9.083V44.2c0 1.092.85 1.965 1.9 1.965 1.062 0 1.911-.873 1.911-1.965V27.873h1.542l.012 16.328c0 1.092.86 1.965 1.91 1.965 1.053 0 1.901-.873 1.901-1.965L39.707 14.1l8.819-9.083a1.817 1.817 0 0 0-.068-2.518 1.687 1.687 0 0 0-2.448.058l-8.383 8.679zm-17.939 13.28a2.737 2.737 0 0 0-2-.862h-7.099c-.782 0-1.486.322-1.989.862l-7.121 7.325a1.817 1.817 0 0 0 .057 2.518c.692.678 1.8.655 2.448-.058l5.521-5.68v7.588H3.313c-1.139 0-2.058.942-2.058 2.116 0 .609.224 1.15.627 1.541l6.974 7.174c.615.932 1.822 1.231 2.784.655 1.016-.597 1.353-1.919.771-2.953l-3.979-4.083.078.011h11.423l-3.99 4.082c-.57 1.035-.235 2.357.77 2.954.962.576 2.181.278 2.796-.654l6.974-7.174a2.12 2.12 0 0 0 .626-1.541c0-1.174-.917-2.115-2.056-2.115h-6.182v-7.509l5.421 5.599c.66.714 1.754.737 2.447.058a1.815 1.815 0 0 0 .057-2.517l-7.108-7.337zm-5.476-1.61c1.866 0 3.375-1.562 3.375-3.484 0-1.932-1.509-3.484-3.375-3.484-1.868 0-3.389 1.552-3.389 3.484 0 1.922 1.522 3.484 3.389 3.484z"/></svg>