<svg xmlns="http://www.w3.org/2000/svg" version="1.2" baseProfile="tiny" viewBox="0 0 50 50" overflow="inherit"><path d="M43.28 13.896L24.958 1l-4.125 2.908.062.048L4.76 15.426 1 18.033v6.103l3.839-2.587V49h40.323V21.304L49 24.136v-6.103l-5.72-4.137zM39.4 43.152H9.96V17.858L25.017 7.019 39.4 17.37v25.782zM18.235 20.766c1.072 0 1.958-.883 1.958-1.987 0-1.102-.886-1.994-1.958-1.994-1.085 0-1.963.893-1.963 1.994a1.97 1.97 0 0 0 1.963 1.987zm-2.673 19.207c0 .613.438 1.191 1.043 1.191.608 0 1.034-.439 1.034-1.055v-9.301h1.281v9.301c0 .615.375 1.123.98 1.123.608 0 1.049-.646 1.049-1.26L20.9 23.66h1.218v6.497c0 .65 1.28.65 1.28 0v-6.352c0-1.323-1.03-2.615-2.562-2.615l-5.197-.012c-1.389 0-2.48 1.158-2.48 2.595v6.384c0 .65 1.279.65 1.279 0V23.66h1.138l-.014 16.313zm16.58-19.207a1.976 1.976 0 0 0 1.963-1.987c0-1.102-.887-1.994-1.963-1.994-1.079 0-1.967.893-1.967 1.994 0 1.104.887 1.987 1.967 1.987zm-2.668 19.207c0 .613.514 1.191 1.119 1.191.613 0 1.127-.439 1.127-1.055v-9.301h.641v9.301c0 .615.605 1.123 1.214 1.123s1.166-.646 1.166-1.26l.068-16.312h.753v6.497c0 .65 1.919.65 1.919 0v-6.352c0-1.323-1.117-2.615-2.647-2.615l-5.151-.012c-1.392 0-2.441 1.158-2.441 2.595v6.384c0 .65 1.28.65 1.28 0V23.66h.961l-.009 16.313z"/></svg>