<svg xmlns="http://www.w3.org/2000/svg" version="1.2" baseProfile="tiny" viewBox="0 0 50 50" overflow="inherit"><path d="M31 25.002A5.999 5.999 0 1 0 31 37a6 6 0 0 0 0-11.998zm12.001-12.005L38.06 3.03A2.991 2.991 0 0 0 35.221 1H26.98a2.992 2.992 0 0 0-2.854 2.075L19.007 13H6.999A6.004 6.004 0 0 0 1 19.001V49h48V19.001a6.005 6.005 0 0 0-5.999-6.004zM10 25.002a2.998 2.998 0 0 1-3.001-2.998c0-1.662 1.342-3.003 3.001-3.003s2.999 1.341 2.999 3.003A2.996 2.996 0 0 1 10 25.002zm21 18.004c-6.625 0-12.001-5.377-12.001-12.006 0-6.626 5.375-11.999 12.001-11.999 6.626 0 12.001 5.372 12.001 11.999 0 6.629-5.375 12.006-12.001 12.006z"/></svg>