<svg xmlns="http://www.w3.org/2000/svg" version="1.2" baseProfile="tiny" viewBox="0 0 50 50" overflow="inherit"><path d="M21.493 8.001l-.542.97C20.597 9.689 19.865 10 19.028 10h-1.274c.731 1 1.901 1.819 3.257 1.819 2.218 0 3.989-1.676 3.989-3.888V8h-3.318c-.083 0-.166-.082-.189.001zM19.028 9c.437 0 .825-.152 1.003-.528l.53-.948c.201-.435.626-.524 1.121-.524h4.153c-.543-2-2.489-3.848-4.791-3.848-2.725 0-4.931 2.018-4.931 4.748 0 .436.047 1.1.165 1.1h2.75zm13.656 22c3.699 0 13.361-1.133 16.021-3.676-1.197-3.676-5.916-3.97-10.246-2.098-.744.322-1.734.56-2.867.772l-.885-3.426a2.08 2.08 0 0 0 1.131-1.954 2.076 2.076 0 0 0-2.156-1.998l-.65-2.509a2.072 2.072 0 0 0 .785-2.124 2.1 2.1 0 0 0-2.502-1.583s-9.161.082-12.034.853c-2.867.771-3.834 5.589-3.834 5.589L12.928 27H1v4h31.684zm-8.235-14.196l7.108-.293.566 2.177c-1.922.094-5.338.271-8.388.441l.714-2.325zM22.467 23.3l10.724-.482.891 3.413c-4.377.629-10.052.719-12.736.73l1.121-3.661zm20.039 12.309S49 35.527 49 29.189c0-.254-.025-.445-.047-.68C44.9 31.438 34.07 32 32.701 32H1v4.904c.767 0 1.558-.178 2.253-.482a8.832 8.832 0 0 1 3.67-.812c1.25 0 2.513.283 3.633.801.743.33 1.51.494 2.289.494.791 0 1.557-.164 2.265-.482a8.865 8.865 0 0 1 3.669-.812 8.66 8.66 0 0 1 3.646.801c.719.33 1.509.494 2.289.494.778 0 1.545-.164 2.264-.482a8.822 8.822 0 0 1 3.658-.812c1.273 0 2.502.271 3.645.801.732.33 1.521.494 2.289.494l.277-.012.945 3.623c-.408.07-.814.119-1.234.119a7.133 7.133 0 0 1-2.926-.625 7.118 7.118 0 0 0-3.008-.67c-1.072 0-2.1.246-3.008.67a7.13 7.13 0 0 1-5.841 0c-.908-.424-1.934-.67-3.008-.67s-2.1.246-3.008.67a7.116 7.116 0 0 1-5.828 0 7.125 7.125 0 0 0-3.008-.67 7.11 7.11 0 0 0-2.997.67A7.2 7.2 0 0 1 1 40.635V45c1.038 0 2.03-.223 2.926-.623a7.11 7.11 0 0 1 2.997-.672c1.073 0 2.099.248 3.008.672.885.4 1.888.623 2.914.623a7.072 7.072 0 0 0 2.914-.623 7.123 7.123 0 0 1 3.008-.672c1.075 0 2.1.248 3.008.672.885.4 1.888.623 2.926.623s2.03-.223 2.915-.623a7.126 7.126 0 0 1 3.008-.672c1.074 0 2.1.248 3.008.672.885.4 1.889.623 2.926.623a7.11 7.11 0 0 0 2.914-.623 7.135 7.135 0 0 1 3.01-.672c1.072 0 1.892.248 2.8.672.885.4 1.718.623 2.718.623v-4.365c-1 0-1.833-.225-2.718-.625-.908-.424-1.831-.67-2.903-.67a6.9 6.9 0 0 0-2.958.67l-.188.082-.895-3.482.49-.188a8.876 8.876 0 0 1 3.678-.813z"/></svg>