<svg xmlns="http://www.w3.org/2000/svg" baseProfile="basic" viewBox="0 0 48 48"><path d="M18.8-31.8c.3-3.4 1.3-6.6 3.2-9.5L15-48c-2.2 1.8-4.8 2.8-7.6 3-2.6.2-5.1-.2-7.5-1.4-2.4 1.1-4.9 1.6-7.5 1.4-2.7-.2-5.1-1.1-7.3-2.7L-22-41c1.7 2.9 2.7 6 2.9 9.2.1 1.5-.3 3.5-1.3 6.1-.5 1.5-.9 2.7-1.2 3.8-.2 1-.4 1.9-.5 2.5 0 2.8.8 5.3 2.5 7.5 1.3 1.6 3.5 3.4 6.5 5.4 3.3 1.6 5.8 2.6 7.6 3.1.5.2 1 .4 1.5.7l1.5.6c1.2.7 2 1.4 2.4 2.1.5-.8 1.3-1.5 2.4-2.1.7-.3 1.3-.5 1.9-.8.5-.2.9-.4 1.1-.5.4-.1.9-.3 1.5-.6.6-.2 1.3-.5 2.2-.8 1.7-.6 3-1.1 3.8-1.6 2.9-2 5.1-3.8 6.4-5.3 1.7-2.2 2.6-4.8 2.5-7.6-.1-1.3-.7-3.3-1.7-6.1-.9-2.8-1.3-4.9-1.2-6.4z"/></svg>