<svg xmlns="http://www.w3.org/2000/svg" version="1.2" baseProfile="tiny" viewBox="0 0 50 50" overflow="inherit"><path fill-rule="evenodd" d="M35.88 42.563c-.324.44-.476.533-.881 1.101-.674.87.185 2.191.613 1.983.499-.187.823-1.183 1.368-1.508.279-.15 1.021-1.24 1.716-1.981.511-.581.882-.836 1.368-1.438.823-1.021.997-1.797 1.716-2.887.441-.568.755-.742 1.16-1.438 2.145-4.058 1.518-5.877 3.571-8.775.625-.857 1.332-1.066 2.329-1.576.928-6.76-2.145-10.539-2.121-10.551-2.586 1.507-3.977 2.122-6.655 1.982-1.008-.011-1.542-.44-2.538-.348-.929.035-1.402.382-2.331.696-1.425.44-2.202.834-3.697 1.298-.951.267-1.554.278-2.54.614-.846.36-.44.07-1.031.754-.766.847-.58 1.507-1.299 2.957-.893 1.901-.788 2.156-.278 2.388-.336.973-.417 1.623-.336 2.678.093.8-.244 1.356.614 1.994 1.171.869 3.629 2.91 4.255 2.944.939-.034 3.675.07 5.065-.893.313-.196.406-.395.14.348-.058.094-3.467 2.748-3.837 2.736-4.336.14-2.887.383-3.153.279-.221 0-2.308-2.552-3.571-1.647-.476.29-.696.568-.881 1.091.162.336.927.868 1.635 1.31 1.021.649 1.113 1.333 2.133 1.576 1.241.279 2.562.093 3.351.198.302.081 3.037-.72 4.741-1.635 1.578-.812-2.167 1.564-3.083 2.735-2.76.869-1.982.904-3.293 1.171-1.217.278-1.159.208-1.994.476-.857.208-1.564 1.38-.753 1.994.487.405 2.006-.163 3.501-.208.661-.012 3.361-1.253 3.977-1.578 1.53-.822 2.655-1.959 3.56-2.608 1.249-.869-1.417 2.4-2.541 3.768zm-8.359-16.66c.916.73 1.38 2.91 1.368 2.887 1.681.533 2.747 1.646 2.747 1.646 2.586-1.438 2.645-.789 3.769-1.646.928-.638.882-.835 1.368-2.538.452-1.381-1.148-1.253-2.47-3.769-2.295.869-3.535.476-4.312.406-.348-.046-.291 1.356-2.47 3.014zM14.084 8.015c.325-.464.475-.557.893-1.102.649-.893-.197-2.214-.615-2.052-.51.232-.834 1.229-1.449 1.577-.221.127-.962 1.217-1.646 1.983-.51.557-.881.812-1.368 1.449-.834.985-.997 1.762-1.716 2.806-.44.625-.765.788-1.16 1.507-2.144 4.035-1.53 5.854-3.571 8.707-.625.916-1.333 1.113-2.33 1.646-.927 6.748 2.134 10.516 2.122 10.493 2.585-1.474 3.965-2.088 6.655-1.995 1.008.059 1.542.487 2.539.417.928-.058 1.403-.405 2.33-.684 1.426-.475 2.203-.869 3.629-1.31 1.02-.29 1.623-.302 2.608-.685.847-.312.441-.022 1.032-.685.753-.869.58-1.529 1.229-2.943.962-1.938.858-2.191.348-2.4.325-.997.417-1.635.336-2.678-.104-.812.244-1.38-.614-1.982-1.171-.905-3.629-2.945-4.243-2.957-.951.012-3.687-.093-5.078.823-.313.243-.406.44-.139-.267.058-.127 3.467-2.782 3.837-2.817 4.336-.093 2.887-.336 3.154-.208.22-.023 2.307 2.527 3.571 1.646.463-.312.695-.591.893-1.089-.174-.359-.939-.894-1.646-1.299-1.02-.683-1.124-1.367-2.133-1.588-1.241-.301-2.574-.116-3.351-.267-.301-.035-3.038.766-4.73 1.646-1.6.847 2.157-1.53 3.083-2.747 2.748-.824 1.96-.858 3.293-1.16 1.206-.244 1.148-.174 1.983-.417.846-.232 1.564-1.392.753-2.052-.498-.371-2.005.197-3.489.208-.672.046-3.374 1.287-3.988 1.635-1.53.8-2.655 1.936-3.559 2.539-1.266.916 1.412-2.342 2.537-3.698zm8.359 16.659c-.916-.753-1.38-2.932-1.368-2.944-1.681-.499-2.748-1.612-2.748-1.577-2.585 1.403-2.654.754-3.768 1.577-.939.673-.881.881-1.368 2.528-.453 1.438 1.136 1.298 2.469 3.779 2.296-.836 3.537-.441 4.313-.349.348.024.29-1.379 2.47-3.014z"/></svg>