<svg xmlns="http://www.w3.org/2000/svg" version="1.2" baseProfile="tiny" viewBox="0 0 50 50" overflow="inherit"><path d="M44.17 18.642c2.118 0 3.83-1.732 3.83-3.864 0-2.13-1.712-3.852-3.83-3.852-2.108 0-3.824 1.721-3.824 3.852s1.716 3.864 3.824 3.864zM43.091 45.08L2.79 21.217 2 22.579l40.283 23.869a3.869 3.869 0 0 0 5.332-1.367l-1.337-.811a2.31 2.31 0 0 1-3.187.81zm3.875-17.914l-6.854-4.034-.791-10.336a4.218 4.218 0 0 0-1.756-3.031l-9.871-5.892a5.04 5.04 0 0 0-7.045 1.402c-.864 1.288-1.102 2.917-.678 4.239l2.678 8.844-8.079 2.598a3.14 3.14 0 0 0-1.927 2.541c-.209 1.721 1.062 2.861 2.774 3.064.39.047.649-.066 1.011-.158l11.028-3.681c.809-.296 1.693-1.106 1.779-1.812.063-.513.226-.946.119-1.254l-1.678-6.051 6.632 3.978.802 5.801c.069 1.014.527 1.743 1.301 2.176l8.667 5.105a1.95 1.95 0 0 0 2.665-.797 2 2 0 0 0-.777-2.702z"/></svg>