<svg xmlns="http://www.w3.org/2000/svg" version="1.2" baseProfile="tiny" viewBox="0 0 50 50" overflow="inherit"><path d="M42.973 33.484c2.517 0 4.563-2.119 4.563-4.738 0-2.605-2.047-4.714-4.563-4.714-2.529 0-4.565 2.108-4.565 4.714-.001 2.619 2.035 4.738 4.565 4.738zm3.502 10.567c.205.072.302.107.53.107 1.168 0 2.056-.982 2.056-2.191 0-.912-.577-1.705-1.346-2.025l-6.33-2.547-4.605-8.459s-.382-.934-1.709-1.445L19.99 21.236l-8.961-15.72C10.508 4.616 9.552 4 8.454 4 6.795 4 5.456 5.397 5.456 7.115c0 .545.138 1.055.378 1.505l11.125 19.534-7.053-2.914-1.773 1.192L36.313 38h-.012l1.155 1.807s.457.973 1.82 1.529l3.5 1.388c-2.277 2.357-5.469 1.329-5.469 1.329L2.899 29.736 1 30.905l36.174 14.711C41.35 47.192 45 43.412 45 43.412v.012l1.475.627z"/></svg>