<svg xmlns="http://www.w3.org/2000/svg" version="1.2" baseProfile="tiny" viewBox="0 0 50 50" overflow="inherit"><path d="M9.416 35.465c13.419 5.673 23.611 8.981 37.967 13.529a.537.537 0 0 0 .61-.466.568.568 0 0 0-.452-.637C24.928 40.74 7.177 32.816 3.127 30.974c-.419-.169-.906.023-1.063.434-.17.421.011.875.418 1.034 1.007.454 2.002.897 2.964 1.318l-3.19 2.444c-.362.534-.204 1.217.328 1.58.396.273.962.239 1.346-.012l5.486-2.307zm37.038-14.319l-10.445-9.642.231.023c2.115 0 3.823-1.728 3.823-3.854S38.355 3.82 36.24 3.82a3.84 3.84 0 0 0-3.835 3.854c0 .812.253 1.564.68 2.187l-7.082-2.539-3.824-5.559a1.843 1.843 0 0 0-1.276-.751 1.84 1.84 0 0 0-2.024 1.626c-.045.421.057.83.26 1.171l3.899 5.684c.181.227.408.42.679.546l4.525 1.785-7.429 3.82a4.045 4.045 0 0 0-1.979 2.854l.034 6.833-6.872 3.114a2.404 2.404 0 0 0-1.357 2.07 2.376 2.376 0 0 0 2.274 2.479c.407.021.803-.068 1.143-.24l8.408-3.818a2.36 2.36 0 0 0 1.199-1.604l-.011-4.252 5.836 5.253-1.075 8.946-.011.171a2.386 2.386 0 0 0 2.274 2.49 2.392 2.392 0 0 0 2.454-2.069l1.256-10.21.011-.137a2.393 2.393 0 0 0-.735-1.818l-5.406-4.832 8.145-4.025 7.557 6.992c.339.33.803.534 1.301.534a1.838 1.838 0 0 0 1.822-1.853 1.882 1.882 0 0 0-.627-1.376z"/></svg>