<svg xmlns="http://www.w3.org/2000/svg" version="1.2" baseProfile="tiny" viewBox="0 0 50 50" overflow="inherit"><path d="M46 14H34v-3.976C34 7.173 32.159 4 29.311 4h-9.592C16.868 4 15 7.173 15 10.024V14H4c-1.1 0-2 .9-2 2v29c0 1.1.9 2 2 2h42c1.1 0 2-.9 2-2V16c0-1.1-.9-2-2-2zM30 44H19v-1.067c0-.023.613-.053.906-.088s.55-.094.761-.176c.375-.141.795-.343.948-.606S22 41.45 22 41.017v-10.23c0-.41-.248-.771-.436-1.081s-.499-.56-.78-.747c-.211-.141-.359-.275-.787-.404S19 28.343 19 28.308v-1.283l8.175-.457-.175.263v13.957c0 .41.316.759.492 1.046s.542.501.87.642c.234.105.485.199.767.281s.871.14.871.176V44zm-9.381-23.761c0-.891.343-1.652 1.028-2.285s1.503-.949 2.452-.949 1.764.316 2.443.949 1.02 1.395 1.02 2.285-.343 1.649-1.028 2.276-1.497.94-2.435.94c-.949 0-1.767-.313-2.452-.94s-1.028-1.385-1.028-2.276zM31 14H18v-3.976C18 8.957 19.08 7 20.147 7h8.052C29.264 7 31 8.957 31 10.024V14z"/></svg>