<svg xmlns="http://www.w3.org/2000/svg" version="1.2" baseProfile="tiny" viewBox="0 0 50 50" overflow="inherit"><path d="M24.999 27.381c-5.406 0-9.999 1.572-12.999 4.036V36h26v-4.583c-3-2.464-7.594-4.036-13.001-4.036zm23.871-2.352L24.936 14 1.012 25.029 5 26.854v2.807c-1 .207-1.003.731-1.003 1.354 0 .368.122.799.354 1.057L2.983 35h4.88l-1.356-2.93c.228-.258.415-.638.415-1.006 0-.622-.922-1.197-.922-1.404v-2.337l5 2.246v-.199c3-2.609 8.271-4.265 13.998-4.265C30.727 25.105 36 26.761 39 29.37v.199l9.87-4.54z"/></svg>