<svg xmlns="http://www.w3.org/2000/svg" version="1.2" baseProfile="tiny" viewBox="0 0 50 50" overflow="inherit"><path d="M18.48 18.875c2.33-.396 4.058-2.518 4.321-5.053.267-2.578.869-12.938-3.02-12.279-10.088 1.711-9.38 18.702-1.301 17.332zm13.273 0c8.077 1.37 8.785-15.621-1.303-17.333-3.888-.659-3.287 9.701-3.021 12.279.264 2.536 1.994 4.658 4.324 5.054zM14.336 26.88c0-1.348-.481-2.57-1.256-3.459-1.275-1.666-5.328-5.035-6.323-4.172-2.077 1.806-2.01 6.251-.759 9.481.643 1.796 2.196 3.059 4.011 3.059 2.389 0 4.327-2.198 4.327-4.909zm29.137-7.631c-.993-.863-5.046 2.506-6.321 4.172-.775.889-1.257 2.111-1.257 3.459 0 2.711 1.94 4.909 4.327 4.909 1.816 0 3.37-1.263 4.013-3.059 1.248-3.23 1.317-7.675-.762-9.481zm-8.136 15.277c-3.676-1.833-3.562-5.363-4.398-8.584-.665-2.569-3.02-4.469-5.823-4.469a6.007 6.007 0 0 0-5.779 4.312c-.895 3.082-.356 6.67-4.363 8.717-3.255 1.061-4.573 2.609-4.573 6.27 0 2.974 2.553 6.158 5.848 6.554 3.676.554 6.544-.17 8.867-1.494 2.323 1.324 5.189 2.047 8.871 1.494 3.293-.396 5.847-3.568 5.847-6.554-.001-3.741-1.235-5.135-4.497-6.246zM31 39h-3.811l.005 4h-4.156l.006-4H19v-4h4.045l-.006-4h4.156l-.005 4H31v4z"/></svg>