<svg xmlns="http://www.w3.org/2000/svg" version="1.2" baseProfile="tiny" viewBox="0 0 50 50" overflow="inherit"><path d="M17 21h2.682C20.486 21 21 19.818 21 19.02v-8.444c0-.799-.514-.576-1.318-.576H17v11zm0 16h2.682c.804 0 1.318.928 1.318 1.728v8.442c0 .794-.514 1.83-1.318 1.83H17V37zm-3.54-8c-.023-7.717 1.428-8 2.255-8H16V10h-.342C14.185 10 7 12.421 7 29.499 7 46.578 14.185 49 15.658 49H16V37h-.285c-.827 0-2.233-.287-2.255-8zm9.736-16.621c.487.583.747 1.32.747 2.079 0 .759-.26 1.496-.747 2.08l1.597 1.314a5.367 5.367 0 0 0 1.214-3.394 5.367 5.367 0 0 0-1.214-3.394l-1.597 1.315zm5.134 9.264a10.323 10.323 0 0 0 2.708-6.976c0-2.578-.952-5.054-2.697-6.958l-1.553 1.354a8.267 8.267 0 0 1 2.187 5.604 8.222 8.222 0 0 1-2.21 5.622l1.565 1.354zm3.534 3.791a15.296 15.296 0 0 0 4.205-10.551c0-3.927-1.483-7.667-4.17-10.528l-1.53 1.394a13.28 13.28 0 0 1 3.627 9.135c0 3.423-1.293 6.675-3.65 9.157l1.518 1.393zm3.548 3.792a20.34 20.34 0 0 0 5.678-14.133c0-5.275-2.004-10.28-5.645-14.093l-1.494 1.428a18.259 18.259 0 0 1 5.076 12.665c0 4.76-1.813 9.271-5.11 12.697l1.495 1.436z"/></svg>