<svg viewBox="0 0 2091 2091" xmlns="http://www.w3.org/2000/svg"><path d="M1941.333 1152q0 26-19 45l-256 256q-19 19-45 19t-45-19-19-45v-128h-384v384h128q26 0 45 19t19 45-19 45l-256 256q-19 19-45 19t-45-19l-256-256q-19-19-19-45t19-45 45-19h128v-384h-384v128q0 26-19 45t-45 19-45-19l-256-256q-19-19-19-45t19-45l256-256q19-19 45-19t45 19 19 45v128h384V640h-128q-26 0-45-19t-19-45 19-45l256-256q19-19 45-19t45 19l256 256q19 19 19 45t-19 45-45 19h-128v384h384V896q0-26 19-45t45-19 45 19l256 256q19 19 19 45z"/></svg>