<svg viewBox="0 0 2688 2688" xmlns="http://www.w3.org/2000/svg"><path d="M2143 1766q0 26-15.5 44.5T2089 1834q-8 2-18 2h-153v-140h153q10 0 18 2 23 5 38.5 23.5t15.5 44.5zm-18-213q0 25-15 42t-38 21q-3 1-15 1h-139v-129h139q3 0 8.5.5t6.5.5q23 4 38 21.5t15 42.5zM920 1717v-308H692v308q0 58-38 94.5T549 1848q-108 0-229-59v112q53 15 121 23t109 9l42 1q328 0 328-217zm714 184v-113q-99 52-200 59-108 8-169-41t-61-142 61-142 169-41q101 7 200 58v-112q-48-12-100-19.5t-80-9.5l-28-2q-127-6-218.5 14t-140.5 60-71 88-22 106 22 106 71 88 140.5 60 218.5 14q101-4 208-31zm734-115q0-54-43-88.5t-109-39.5v-3q57-8 89-41.5t32-79.5q0-55-41-88t-107-36q-3 0-12-.5t-14-.5h-455v510h491q74 0 121.5-36.5t47.5-96.5zm128-762v1280q0 52-38 90t-90 38H320q-52 0-90-38t-38-90V1024q0-52 38-90t90-38h2048q52 0 90 38t38 90z"/></svg>