<svg viewBox="0 0 1792 1792" xmlns="http://www.w3.org/2000/svg"><path d="M710 1308q0 66-93 66-107 0-107-63 0-64 98-64 102 0 102 61zm-36-466q0 85-74 85-77 0-77-84 0-90 77-90 36 0 55 25.5t19 63.5zm166-75V642q-78 29-135 29-50-29-110-29-86 0-145 57t-59 143q0 50 29.5 102t73.5 67v3q-38 17-38 85 0 53 41 77v3q-113 37-113 139 0 45 20 78.5t54 51 72 25.5 81 8q224 0 224-188 0-67-48-99t-126-46q-27-5-51.5-20.5T585 1088q0-44 49-52 77-15 122-70t45-134q0-24-10-52 37-9 49-13zm59 419h137q-2-27-2-82V717q0-46 2-69H899q3 23 3 71v392q0 50-3 75zm509-16v-121q-30 21-68 21-53 0-53-82V763h52q9 0 26.5 1t26.5 1V648h-105q0-82 3-102h-140q4 24 4 55v47h-60v117q36-3 37-3 3 0 11 .5t12 .5v2h-2v217q0 37 2.5 64t11.5 56.5 24.5 48.5 43.5 31 66 12q64 0 108-24zm-356-706q0-36-24-63.5T968 373t-60.5 27-24.5 64q0 36 25 62.5t60 26.5 59.5-27 24.5-62zm612-48v960q0 119-84.5 203.5T1376 1664H416q-119 0-203.5-84.5T128 1376V416q0-119 84.5-203.5T416 128h960q119 0 203.5 84.5T1664 416z"/></svg>