<svg viewBox="0 0 1792 1792" xmlns="http://www.w3.org/2000/svg"><path d="M1408 1600q0-26-19-45t-45-19-45 19-19 45 19 45 45 19 45-19 19-45zm128-764q0-189-167-189-26 0-56 5-16-30-52.5-47.5T1187 587t-69 18q-50-53-119-53-25 0-55.5 10T896 587V256q0-52-38-90t-90-38q-51 0-89.5 39T640 256v576q-20 0-48.5-15t-55-33-68-33-84.5-15q-67 0-97.5 44.5T256 896q0 24 139 90 44 24 65 37 64 40 145 112 81 71 106 101 57 69 57 140v32h640v-32q0-72 32-167t64-193.5 32-179.5zm128-5q0 133-69 322-59 164-59 223v288q0 53-37.5 90.5T1408 1792H768q-53 0-90.5-37.5T640 1664v-288q0-10-4.5-21.5t-14-23.5-18-22.5-22.5-24-21.5-20.5-21.5-19-17-14q-74-65-129-100-21-13-62-33t-72-37-63-40.5-49.5-55T128 896q0-125 67-206.5T384 608q68 0 128 22V256q0-104 76-180T767 0q105 0 181 75.5t76 180.5v169q62 4 119 37 21-3 43-3 101 0 178 60 139-1 219.5 85t80.5 227z"/></svg>