<svg viewBox="0 0 2091 2091" xmlns="http://www.w3.org/2000/svg"><path d="M1429.333 1376v-192q0-14-9-23t-23-9h-224V928q0-14-9-23t-23-9h-192q-14 0-23 9t-9 23v224h-224q-14 0-23 9t-9 23v192q0 14 9 23t23 9h224v224q0 14 9 23t23 9h192q14 0 23-9t9-23v-224h224q14 0 23-9t9-23zm-640-736h512V512h-512v128zm-384 0v1280h-32q-92 0-158-66t-66-158V864q0-92 66-158t158-66h32zm1184 0v1280h-1088V640h160V480q0-40 28-68t68-28h576q40 0 68 28t28 68v160h160zm352 224v832q0 92-66 158t-158 66h-32V640h32q92 0 158 66t66 158z"/></svg>