<svg viewBox="0 0 1792 1792" xmlns="http://www.w3.org/2000/svg"><path d="M1280 1088q0 26-19 45t-45 19H576q-26 0-45-19t-19-45 19-45 45-19h640q26 0 45 19t19 45zM768 640q0 53-37.5 90.5T640 768t-90.5-37.5T512 640t37.5-90.5T640 512t90.5 37.5T768 640zm512 0q0 53-37.5 90.5T1152 768t-90.5-37.5T1024 640t37.5-90.5T1152 512t90.5 37.5T1280 640zm256 256q0-130-51-248.5t-136.5-204-204-136.5T896 256t-248.5 51-204 136.5-136.5 204T256 896t51 248.5 136.5 204 204 136.5 248.5 51 248.5-51 204-136.5 136.5-204 51-248.5zm128 0q0 209-103 385.5T1281.5 1561 896 1664t-385.5-103T231 1281.5 128 896t103-385.5T510.5 231 896 128t385.5 103T1561 510.5 1664 896z"/></svg>