<svg viewBox="0 0 1792 1792" xmlns="http://www.w3.org/2000/svg"><path d="M1174 1020q0 64-38 109t-91 45q-43 0-70-15V882q28-17 70-17 53 0 91 45.5t38 109.5zM831 592q0 64-38 109.5T702 747q-43 0-70-15V455q28-17 70-17 53 0 91 45t38 109zm562 431q0-134-88-229t-213-95q-20 0-39 3-23 78-78 136-87 95-211 101v636l211-41v-206q51 19 117 19 125 0 213-95t88-229zm-343-427q0-134-88.5-229T748 272q-74 0-141 36H421v840l211-41V901q55 19 116 19 125 0 213.5-95t88.5-229zm614-180v960q0 119-84.5 203.5T1376 1664H416q-119 0-203.5-84.5T128 1376V416q0-119 84.5-203.5T416 128h960q119 0 203.5 84.5T1664 416z"/></svg>