<svg viewBox="0 0 1792 1792" xmlns="http://www.w3.org/2000/svg"><path d="M1067 1129q13 13 0 26-53 53-171 53t-171-53q-13-13 0-26 5-6 13-6t13 6q42 42 145 42t145-42q5-6 13-6t13 6zM804 973q0 31-23 54t-54 23-54-23-23-54q0-32 22.5-54.5T727 896t54.5 22.5T804 973zm338 0q0 31-23 54t-54 23-54-23-23-54q0-32 22.5-54.5T1065 896t54.5 22.5T1142 973zm215-103q0-42-30-72t-73-30q-42 0-73 31-113-78-267-82l54-243 171 39q1 32 23.5 54t53.5 22q32 0 54.5-22.5T1293 512t-22.5-54.5T1216 435q-48 0-69 43l-189-42q-17-5-21 13l-60 268q-154 6-265 83-30-32-74-32-43 0-73 30t-30 72q0 30 16 55t42 38q-5 25-5 48 0 122 120 208.5t289 86.5q170 0 290-86.5t120-208.5q0-25-6-49 25-13 40.5-37.5T1357 870zm307-454v960q0 119-84.5 203.5T1376 1664H416q-119 0-203.5-84.5T128 1376V416q0-119 84.5-203.5T416 128h960q119 0 203.5 84.5T1664 416z"/></svg>