<svg viewBox="0 0 1792 1792" xmlns="http://www.w3.org/2000/svg"><path d="M640 1280q0-53-37.5-90.5T512 1152t-90.5 37.5T384 1280t37.5 90.5T512 1408t90.5-37.5T640 1280zm351 94q-13-232-177-396T418 801q-14-1-24 9t-10 23v128q0 13 8.5 22t21.5 10q154 11 264 121t121 264q1 13 10 21.5t22 8.5h128q13 0 23-10t9-24zm384 1q-5-154-56-297.5t-139.5-260-205-205-260-139.5T417 417q-14-1-23 9-10 10-10 23v128q0 13 9 22t22 10q204 7 378 111.5T1071.5 999t111.5 378q1 13 10 22t22 9h128q13 0 23-10 11-9 9-23zm289-959v960q0 119-84.5 203.5T1376 1664H416q-119 0-203.5-84.5T128 1376V416q0-119 84.5-203.5T416 128h960q119 0 203.5 84.5T1664 416z"/></svg>