<svg viewBox="0 0 1792 1792" xmlns="http://www.w3.org/2000/svg"><path d="M1225 1079l-146 146q-10 10-23 10t-23-10l-137-137-137 137q-10 10-23 10t-23-10l-146-146q-10-10-10-23t10-23l137-137-137-137q-10-10-10-23t10-23l146-146q10-10 23-10t23 10l137 137 137-137q10-10 23-10t23 10l146 146q10 10 10 23t-10 23l-137 137 137 137q10 10 10 23t-10 23zm215-183q0-148-73-273t-198-198-273-73-273 73-198 198-73 273 73 273 198 198 273 73 273-73 198-198 73-273zm224 0q0 209-103 385.5T1281.5 1561 896 1664t-385.5-103T231 1281.5 128 896t103-385.5T510.5 231 896 128t385.5 103T1561 510.5 1664 896z"/></svg>