<?xml version="1.0" encoding="utf-8"?>
<!-- Generator: Adobe Illustrator 16.0.0, SVG Export Plug-In . SVG Version: 6.00 Build 0)  -->
<!DOCTYPE svg PUBLIC "-//W3C//DTD SVG 1.1//EN" "http://www.w3.org/Graphics/SVG/1.1/DTD/svg11.dtd">
<svg version="1.1" id="Layer_1" xmlns="http://www.w3.org/2000/svg" xmlns:xlink="http://www.w3.org/1999/xlink" x="0px" y="0px"
	 width="160" height="160" viewBox="0 0 16 16" enable-background="new 0 0 16 16" xml:space="preserve">
<g>
	<path fill="#215F8B" d="M13.585,2.173l-0.026-0.086l-0.071-0.122l-0.06-0.032l-0.059,0.032l-0.035,0.07L13.33,2.043h-0.008h-0.004
		l-0.11,0.021c-0.013,0.008-0.024,0.012-0.032,0.023l-0.022,0.027l-0.06,0.047l-0.016,0.008l-0.051,0.008
		c-0.023-0.004-0.059-0.023-0.105-0.059l-0.005-0.004c-0.079-0.079-0.118-0.134-0.118-0.166V1.847V1.843V1.839l0.012-0.02
		L12.698,1.78l-0.005,0.039c0,0.012-0.012,0.027-0.031,0.039l-0.039,0.016L12.607,1.87V1.866l-0.061-0.012l0.012,0.043l-0.103-0.066
		h-0.003l-0.004-0.004l0,0c-0.016-0.043-0.023-0.086-0.023-0.134c0-0.039,0.004-0.062,0.021-0.079l0.022-0.043l-0.008-0.035
		l-0.102,0.016c-0.051,0.004-0.086,0.035-0.105,0.095v0.004l0,0l-0.06,0.091l0.06-0.004h0.004l0.004-0.004l0.004,0.008l0.047,0.02
		h0.009l0.008,0.004v0.012l0.009,0.082l0.022,0.078v0.004v0.004V1.95l-0.13,0.256c-0.023,0.035-0.035,0.13-0.043,0.271v0.012
		l-0.053,0.098l0.035,0.039v0.008c0.006,0.06,0,0.095-0.016,0.103l-0.012,0.004c-0.027,0.017-0.117,0.11-0.264,0.287L11.867,3.04
		L11.86,3.033l-0.013-0.008c-0.051-0.036-0.099-0.067-0.125-0.099c-0.023-0.016-0.082-0.027-0.182-0.027L11.537,3.08l-0.004,0.004
		l-0.07,0.342c-0.016,0.044-0.02,0.122-0.02,0.239l0.027,0.036l0.023-0.048h0.004l0.004-0.008l0.092-0.047l0.25,0.039l0.027-0.031
		l0.035-0.062l0.008-0.004l0,0l0.005-0.004l0.099-0.02l0.129-0.008c0.039,0.008,0.087,0.059,0.146,0.137
		c0.156,0.079,0.243,0.15,0.263,0.213c0.013,0.031,0.013,0.055,0,0.082c-0.012,0.027-0.039,0.043-0.078,0.047h-0.004
		c-0.191-0.008-0.304-0.008-0.342,0.004l-0.095,0.063c-0.117,0.087-0.196,0.13-0.239,0.13l-0.078,0.012l-0.047,0.197
		c-0.012,0.059-0.031,0.099-0.065,0.126c-0.031,0.031-0.079,0.051-0.144,0.062c-0.074,0.012-0.137,0.039-0.195,0.074l-0.066,0.142
		l-0.004,0.004h-0.004h-0.004l-0.182,0.075h-0.012l-0.09-0.02c-0.071-0.012-0.127-0.031-0.162-0.056
		c-0.047-0.023-0.098-0.027-0.152-0.012c-0.047,0.067-0.07,0.149-0.066,0.239c0.004,0.048,0.017,0.079,0.027,0.087L10.58,5.11
		l0.031-0.02l0.008,0.126c0,0.043-0.016,0.074-0.047,0.098c-0.02,0.016-0.057,0.031-0.105,0.047L10.434,5.37
		c-0.039,0.016-0.121,0.122-0.243,0.314v0.004h-0.005l-0.117,0.071c0.02,0,0.031,0.008,0.027,0.023
		c-0.004,0.016-0.017,0.02-0.047,0.023L9.715,5.799C9.342,5.787,9.051,5.89,8.844,6.102L8.84,6.106L8.832,6.109H8.828L8.689,6.125
		L8.682,6.129H8.674L8.635,6.034L8.494,6.069C8.419,6.073,8.32,6.054,8.211,5.999C8.108,5.956,8.017,5.898,7.928,5.826
		c-0.059-0.047-0.133-0.079-0.22-0.095L7.582,5.72L7.441,5.74C7.338,5.756,7.236,5.756,7.142,5.747
		C7.028,5.739,6.89,5.708,6.725,5.657L6.714,5.681h0.004h0.004l0.004,0.004v0.004L6.73,5.728l0.035,0.075l0.082,0.103l0.004,0.012
		L6.836,5.991v0.004H6.832L6.785,6.058L6.836,6.11c0.02,0.02,0.031,0.035,0.031,0.051l0.012,0.075l0.059,0.059v0.008l0.007,0.05
		v0.039L6.98,6.419l0.024-0.008l0.004-0.012C7.02,6.368,7.04,6.353,7.067,6.349l0.032-0.012l0.207-0.02l0.083-0.031l0.008-0.004
		l0.012-0.008l0.044,0.094h0.004l0,0c0.004,0.023,0,0.043-0.012,0.062L7.33,6.593L7.338,6.62L7.39,6.671l0.052,0.031h0.004
		c0.023,0.032,0.042,0.051,0.066,0.059C7.539,6.769,7.566,6.793,7.59,6.824l0.004,0.012l0.039,0.016l0.012,0.004h0.004L7.661,6.9
		l0,0l0.004,0.043l0.016,0.062L7.78,7.021h0.009l0.004,0.004v0.004l0.004,0.008l0.027,0.055l0.078,0.027l0.055-0.027L7.947,7.06
		L7.896,7.013l0.008-0.008V6.997l0.043-0.082h0.095l0.004,0.004L8.18,6.966l0.074-0.012l0.059-0.055
		C8.38,6.816,8.423,6.78,8.451,6.8l0.032-0.004c0.034,0,0.055,0.004,0.065,0.008C8.553,6.813,8.557,6.82,8.557,6.828
		c0,0.016,0.016,0.047,0.039,0.091v0.004v0.004l0.012,0.055v0.011L8.592,7.056l0,0V7.06L8.588,7.064L8.521,7.143L8.518,7.147l0,0
		L8.375,7.209l-0.02,0.04l-0.02,0.113l0.012,0.055l0.036,0.059l0.016,0.013L8.446,7.52h0.165L8.749,7.5L8.77,7.48
		c0.02-0.024,0.039-0.032,0.052-0.032l0.094,0.016l0.009-0.016c-0.01-0.027-0.01-0.05,0.006-0.074l0.039-0.066V7.182V7.178
		l0.069-0.204L9.043,6.97V6.966h0.004V6.962L9.17,6.863l0.008-0.008l0.105,0.048l0,0c0.055,0.039,0.082,0.07,0.082,0.09L9.357,7.079
		L9.322,7.135L9.295,7.213V7.3l0.027,0.039l0.035-0.004l0.008-0.004l0.061,0.004c0.03,0.016,0.051,0.043,0.065,0.082l0.036,0.012
		h0.004l0,0h0.004l0.133,0.063l0.059,0.02L9.811,7.5l0.035-0.048l0.047-0.191l0.005-0.106V7.147l0.007-0.004l0.004-0.004
		l0.074-0.063l0.043-0.055l0.004-0.004l0.079-0.035l0.047-0.027l0.06-0.023l-0.033-0.119l0.135,0.016l0,0v0.004l0,0l0.07,0.027l0,0
		V6.856l0.02-0.075V6.769l0.012,0.004h0.008l0.063,0.017h0.03l0.061-0.067h0.004l0.004-0.004h0.004l0.078-0.016l0.066-0.062
		l0.035-0.051V6.525c0-0.023,0.012-0.039,0.035-0.051l0,0h0.009h0.004l0.075,0.008l0.031-0.02l0.012-0.056l0.078-0.023h0.004h0.004
		l0,0l0.098,0.012l0.079-0.02l0.048-0.047l0.031-0.062l-0.061-0.062V6.2l0,0l-0.012-0.048l0,0l-0.016-0.071V6.077l0.035-0.062
		c0-0.02,0.013-0.047,0.043-0.078l0.043-0.086V5.847h0.005l0.039-0.063l0.059-0.118l0.056,0.078l0.004,0.004v0.004l0.021,0.079
		v0.004l0.013,0.078l0.055,0.023h0.004l0,0l0,0l0.017,0.008l0.005-0.004l0.045-0.081L11.66,5.78l0.012,0.004l0.012,0.004
		l0.113,0.039l0.057-0.043l0.004-0.004h0.008l0.057-0.004l0.038-0.067V5.626l0.027-0.125l0.008,0.004h0.013l0.086,0.02l0.039-0.071
		h0.004h0.008l0.078-0.008h0.011V5.45l0.008,0.004l0.04,0.056v0.003l0.004,0.004v0.008l0.008,0.078l0.039,0.035l0.055-0.051
		l0.013,0.016c0.02,0.02,0.026,0.039,0.026,0.062v0.07l-0.026,0.071l0.02,0.031l0.039,0.044l0.166,0.023l0.005,0.004l0,0
		l0.006,0.005l0,0l0.013,0.012l0.047-0.066h0.004l0.039-0.04L12.721,5.76l-0.043-0.251l0.113,0.055h0.004h0.004l0.051,0.062
		l0.033,0.031l0.047-0.031l0.164-0.181l0,0h0.004l0.06-0.044l0.067-0.094l0.004-0.008l0.091,0.023h0.043
		c0-0.035,0.008-0.059,0.012-0.074L13.44,5.17l0.02-0.012l0.078,0.027l0.095-0.012l0.063-0.067l0.03-0.06l-0.02-0.031l-0.055,0.027
		l-0.004-0.004l-0.004-0.004l-0.071-0.06L13.569,4.97l0.026-0.105l0.008-0.079l-0.02-0.066l-0.056-0.021V4.694L13.524,4.69
		L13.52,4.686l-0.045-0.093l-0.008-0.012L13.4,4.659l-0.066,0.043L13.318,4.71l-0.004-0.004l-0.004-0.008l-0.071-0.066V4.628
		l-0.052-0.109V4.515l-0.023-0.079V4.432l0,0V4.314l-0.008-0.07l-0.055-0.021h-0.004V4.22l-0.125-0.099l0.008-0.012l0.059-0.062
		V4.043V4.039h0.008l0,0l0.066-0.008h0.004c0.02,0,0.039,0.012,0.055,0.031l0.057,0.043l0.059-0.047l0.044-0.06v-0.05l-0.017-0.125
		l-0.012-0.051l-0.086-0.016V3.705l-0.08-0.099l-0.004-0.003l-0.039-0.07l-0.008-0.008V3.517l0,0l0.086-0.114V3.399l0.004-0.004
		V3.391h0.008l0.037-0.004l0.043-0.035l0.052-0.157h0.004V3.191l0.062-0.07V3.116h0.004h0.004l0.07-0.02v0.008l0.047,0.039
		l0.017,0.004l0.028-0.122l-0.028-0.087l-0.005-0.004V2.927l0.013-0.098V2.821l0.048-0.051l0.031-0.056l0.004-0.047
		c0-0.024-0.012-0.063-0.035-0.122l0,0l0,0V2.452V2.448l0.02-0.083c-0.016-0.035-0.026-0.063-0.026-0.083L13.585,2.173z"/>
	<path fill="#215F8B" d="M8.034,6.958H7.971l-0.02,0.043l0.035,0.035V7.04v0.004l0.016,0.051l0.004,0.004v0.012L7.998,7.114
		L7.912,7.158L7.908,7.162l0,0H7.904H7.9C7.834,7.154,7.799,7.135,7.787,7.107L7.762,7.06L7.644,7.036L7.613,6.888
		C7.59,6.884,7.57,6.871,7.558,6.856L7.554,6.848c-0.02-0.027-0.035-0.043-0.059-0.047C7.465,6.789,7.436,6.765,7.413,6.73
		L7.366,6.702H7.362l0,0l0,0L7.299,6.64l0,0L7.283,6.585V6.581l0.126-0.174c0.004-0.011,0.008-0.019,0.004-0.023L7.389,6.329
		L7.322,6.357H7.318v0.004H7.314L7.142,6.372L7.075,6.388L7.052,6.411L7.04,6.435c-0.016,0.02-0.039,0.032-0.075,0.024l0,0
		L6.961,6.455L6.902,6.411L6.898,6.314C6.867,6.29,6.847,6.267,6.84,6.247L6.824,6.16L6.785,6.113L6.741,6.077l-0.02-0.012
		l0.071-0.09l0.016-0.051L6.729,5.826H6.725V5.822L6.69,5.743V5.739l0,0L6.682,5.7L6.631,5.661V5.657l0,0l0,0L6.576,5.599
		l-0.07-0.012L6.428,5.61L6.416,5.626L6.404,5.735v0.123L6.391,5.862L6.317,5.89l0,0v0.004l0,0L6.246,5.898
		c-0.035,0.02-0.074,0.039-0.117,0.055L6.121,5.956l0,0H6.117L5.983,5.925L5.928,5.984c-0.012,0.015-0.04,0.031-0.075,0.039
		L5.771,6.089L5.728,6.156V6.16L5.724,6.164C5.7,6.2,5.68,6.227,5.664,6.239L5.617,6.298v0.004L5.613,6.306l-0.027,0.02
		c-0.02,0.007-0.039,0.011-0.055,0.011L5.433,6.329L5.41,6.364L5.375,6.427L5.391,6.49L5.383,6.644L5.41,6.691v0.004L5.422,6.73
		h0.055l0.094,0.02l0.122,0.008L5.749,6.75h0.008h0.004l0.105,0.04l0,0H5.87l0.055,0.043l0.118,0.043h0.004l0.078,0.047l0.192,0.176
		l0.087,0.04l0.035-0.017l0.035-0.066l-0.02-0.105c0-0.031,0.023-0.051,0.07-0.07l0.009-0.006l0.24,0.142L6.8,7.009l0.055-0.031
		h0.008l0.031,0.004l0.047-0.039l0.008-0.004l0.012,0.008l0.142,0.097l0.004,0.004l0.09,0.074C7.22,7.139,7.252,7.166,7.279,7.205
		l0.043,0.048l0.036-0.004l0.039-0.075l0.083,0.06h0.004h0.004l0,0l0.066,0.082l0.177,0.133l0,0l0.052,0.06l0.152-0.044l0.008,0.114
		l0.066,0.066l0,0v0.004l0.056,0.082v0.004v0.004v0.004l0.059,0.271l0.06,0.109l-0.08,0.202v0.012L8.038,8.353v0.059L8.034,8.415
		l-0.067,0.11H7.959L7.865,8.533L7.77,8.612c0.013,0.012,0.028,0.02,0.056,0.031C7.865,8.655,7.869,8.687,7.849,8.74v0.005
		L7.783,8.812H7.778L7.774,8.818H7.77H7.766L7.578,8.792L7.574,8.859l0.02,0.142l0.157,0.065v0.008l0,0l0.06-0.02l0.004-0.004
		l0.008-0.004l0.004,0.008h0.004l0.042,0.024h0.066l0.024-0.005L7.939,9.001l0,0l0,0L7.924,8.922V8.918V8.91l0.004-0.004V8.902
		l0.023-0.027l0.008-0.008l0,0l0.004-0.004l0.043-0.061L8.01,8.799l0.071-0.055h0.004V8.74h0.004l0,0l0.087-0.012v0.024
		c0,0.026,0.004,0.047,0.008,0.06L8.2,8.847l0.023,0.052l0.078,0.043l0.216,0.021h0.009h0.012v0.012v0.008L8.53,9.053l0.062,0.066
		l0.047,0.02l0.009,0.004v0.004L8.65,9.152V9.18v0.04l-0.02,0.079l0.026,0.02c0.03-0.004,0.06-0.004,0.087,0.017l0.091,0.043
		l0.056-0.043l0.059-0.063l0.004-0.027l0.004-0.008l0.008-0.004l0.008-0.008V9.217l-0.02-0.083L8.949,9.091L8.945,9.087V9.083
		l0.004-0.004V9.074L8.98,9.023L8.984,9.02l0,0l0.062-0.043h0.004h0.131l0.02-0.008L9.197,8.902l-0.02-0.061L9.135,8.773L9.131,8.77
		V8.765V8.667V8.663l0,0l0.022-0.058l0,0l0.004-0.005l0,0l0.106-0.155l0.004-0.004h0.004l0.008-0.004h0.023l0.039,0.004l0.09,0.051
		l0.06,0.017l0.008-0.028L9.487,8.474V8.462c0-0.023,0.012-0.043,0.036-0.062l0.07-0.051l0.004-0.004l0,0V8.341
		c0.039-0.012,0.062-0.02,0.078-0.02l0.062-0.008h0.008l0,0l0.04,0.008l0.027-0.098V8.155c0-0.043,0-0.07,0.013-0.078l0.028-0.051
		L9.817,7.98L9.77,7.948L9.672,7.921c-0.02,0-0.055-0.021-0.113-0.071l-0.06-0.027H9.495L9.491,7.817L9.422,7.731H9.354L9.35,7.728
		H9.346L9.287,7.696L9.252,7.743L9.244,7.929l0.012,0.07h0.027l0.004,0.004l0.055,0.016v0.004v0.004l0.027,0.066h0.004v0.004l0,0
		v0.004L9.357,8.223v0.008v0.004L9.354,8.238C9.333,8.25,9.318,8.258,9.299,8.27L9.291,8.275L9.287,8.271H9.283L9.256,8.263
		L9.193,8.286H9.189l0.004,0.012l0.004,0.004l0.012,0.105c0,0.016-0.008,0.023-0.023,0.027H9.137
		C9.114,8.431,9.102,8.423,9.092,8.411L9.043,8.376L9.039,8.372H9.035V8.368L9.008,8.302C9,8.294,8.981,8.282,8.942,8.271H8.938
		H8.934l-0.055-0.04H8.871V8.223l0,0L8.855,8.155l0.008-0.05h0.004V8.101l0,0l0.023-0.028v-0.02l-0.023-0.07l-0.057-0.05V7.925
		L8.797,7.763L8.758,7.724H8.754L8.749,7.72l0,0L8.717,7.646L8.576,7.63C8.541,7.618,8.518,7.595,8.502,7.563H8.438
		C8.415,7.555,8.391,7.539,8.363,7.512L8.355,7.504C8.34,7.488,8.324,7.464,8.308,7.433l0,0L8.304,7.429L8.293,7.366l0,0V7.362
		V7.359l0,0l0.023-0.121V7.234l0.023-0.052V7.178V7.174h0.004l0.15-0.063l0.06-0.07l0.012-0.059L8.557,6.939
		C8.533,6.888,8.518,6.856,8.518,6.836L8.486,6.84L8.43,6.836C8.419,6.84,8.387,6.875,8.344,6.927L8.277,6.989H8.273L8.269,6.993
		c-0.05,0.012-0.086,0.02-0.105,0.012L8.034,6.958z"/>
	<path fill="#509BC2" d="M9.079,6.993L9.008,7.19v0.13v0.003L8.969,7.39L8.961,7.437C8.969,7.464,8.957,7.489,8.93,7.504
		L8.922,7.508H8.918L8.914,7.504L8.816,7.492L8.764,7.539L8.615,7.563l0,0H8.553l0.039,0.028l0.142,0.016h0.008h0.008L8.754,7.61
		v0.004L8.788,7.7l0.04,0.027c0.012,0.016,0.02,0.039,0.02,0.082l0.004,0.107l0.048,0.043h0.004v0.004h0.004L8.93,8.041v0.043
		l-0.027,0.04L8.895,8.159l0.012,0.04l0.047,0.032c0.051,0.02,0.078,0.032,0.09,0.052l0.028,0.059
		c0.03,0.016,0.047,0.031,0.055,0.047l0.036,0.012h0.004L9.149,8.314c-0.005-0.02-0.005-0.039,0.004-0.047
		C9.162,8.254,9.17,8.246,9.186,8.243l0.059-0.02l0,0l0.004-0.004h0.004l0.004,0.004l0.027,0.008l0.035-0.02V8.203L9.33,8.104
		L9.307,8.058L9.275,8.042L9.236,8.038H9.229L9.221,8.034L9.205,7.933l0.004-0.201l0.008-0.008l0.06-0.082l0.086,0.047h0.051
		l0.039-0.256C9.44,7.405,9.43,7.386,9.404,7.374L9.381,7.37v0.004H9.369L9.307,7.386L9.303,7.378L9.299,7.374L9.256,7.319V7.316
		L9.252,7.312V7.213l0.016-0.055l0.016-0.023c0-0.017,0.004-0.032,0.02-0.052l0.017-0.02l0.004-0.066l-0.06-0.055L9.186,6.903
		L9.079,6.993z"/>
	<path fill="#023057" d="M6.395,5.579l0.004-0.004h0.005V5.571L6.277,5.214L6.199,5.151V5.143l-0.02-0.146L6.014,4.974H6.011H6.003
		V4.97L5.999,4.962V4.958c-0.02-0.055-0.071-0.113-0.15-0.177C5.806,4.746,5.763,4.723,5.728,4.714
		C5.7,4.698,5.673,4.687,5.653,4.671c-0.052-0.035-0.228-0.062-0.538-0.07H5.103l0,0L5.068,4.546
		C5.053,4.511,5.041,4.48,5.037,4.443c0-0.043,0.051-0.185,0.16-0.417L5.142,3.855l0,0L5.084,3.579
		C5.076,3.54,5.009,3.505,4.89,3.47C4.867,3.462,4.843,3.454,4.82,3.439c-0.043-0.021-0.074-0.056-0.09-0.1
		C4.707,3.288,4.667,3.245,4.612,3.222L4.608,3.218L4.604,3.214L4.556,2.97L4.368,2.99l-0.02,0.052
		C4.325,3.124,4.302,3.163,4.274,3.163L4.152,3.202C4.078,3.23,4.031,3.261,4.008,3.296C3.996,3.312,3.983,3.359,3.975,3.422
		C3.964,3.493,3.952,3.544,3.936,3.575c-0.023,0.051-0.06,0.09-0.114,0.109C3.72,3.724,3.547,3.657,3.308,3.489L2.986,3.901
		L3.025,4.07h0.004l0.004,0.008L3.025,4.082v0.004C3.009,4.109,2.986,4.126,2.959,4.13c-0.032,0.008-0.063-0.004-0.1-0.028
		C2.828,4.078,2.738,4.059,2.593,4.051L2.526,4.047l0,0L2.428,4.039l-0.105,0.02L2.37,4.126c0.039,0.051,0.055,0.082,0.051,0.102
		L2.377,4.484l0.021,0.137h0.004v0.004L2.396,4.628l0,0L2.318,4.884c-0.004,0.023-0.012,0.035-0.02,0.031H2.291V4.911L2.279,4.888
		C2.262,4.857,2.255,4.845,2.243,4.849C2.235,4.853,2.223,4.868,2.22,4.903c-0.016,0.07-0.06,0.129-0.126,0.192L2.023,5.151
		l-0.035,0.02l0,0H1.984L1.728,5.175L1.631,5.269H1.627H1.619H1.615L1.344,5.23c-0.043,0.047-0.086,0.062-0.13,0.055
		C1.175,5.273,1.107,5.288,1.013,5.323l-0.109,0.13L0.9,5.461L0.726,5.465V5.319H0.617l-0.02,0.062l-0.083,0.02H0.507l0,0
		L0.503,5.398H0.499C0.447,5.366,0.385,5.343,0.322,5.335C0.287,5.331,0.244,5.355,0.18,5.409C0.114,5.465,0.066,5.517,0.043,5.564
		c0.012,0.008,0.02,0.023,0.02,0.047c0.008,0.027,0.012,0.051,0.012,0.082C0.07,5.724,0.058,5.743,0.043,5.76
		C0.023,5.772,0.012,5.807,0,5.87l0.062,0.043l0.087-0.091l0.11,0.122v0.008l0.024,0.216v0.004H0.279L0.217,6.471H0.201
		c-0.091,0-0.15,0.004-0.174,0.02c0.004,0.02,0.043,0.052,0.11,0.095l0.055-0.008h0.013l0.004,0.004l0.129,0.125
		c0.051,0.043,0.047,0.118-0.02,0.229l0.02,0.121l0.051,0.012H0.59L0.487,7.162l0.06,0.031l0,0l0.078,0.044l0.212,0.09l0.004,0.004
		h0.008l0.02,0.322c0.003,0.063,0.051,0.11,0.144,0.141l0.016-0.008h0.004h0.004l0.221,0.031h0.015V7.814l0.004-0.008
		c0.024-0.043,0.039-0.074,0.039-0.082V7.716C1.312,7.681,1.328,7.65,1.359,7.626C1.39,7.602,1.41,7.579,1.421,7.551l0.004-0.004
		c0.012-0.031,0.051-0.039,0.118-0.02h0.004l0,0l0.076,0.044L1.87,7.618l0.153-0.011l0.11-0.048c0.02-0.027,0.035-0.039,0.048-0.047
		c0.02-0.004,0.047,0.004,0.078,0.031l0.017,0.008C2.291,7.563,2.303,7.587,2.318,7.63l0.078,0.059h0.059h0.004h0.008h0.004
		l0.083,0.035l0.153-0.012l0.086-0.027l0.225,0.02l0.098-0.027L3.23,7.631c0.023-0.017,0.05-0.028,0.09-0.04h0.215l0.079-0.028
		c0.031-0.02,0.06-0.031,0.083-0.031h0.125l0.059,0.044l0.17,0.035c0.023,0,0.047,0.02,0.086,0.055l0.07,0.047l0.008,0.008
		l0.162,0.004l0,0h0.004l0.074,0.038l0.098,0.02h0.004L4.64,7.795l0.023-0.048L4.628,7.669L4.612,7.591V7.587H4.608L4.62,7.575
		L4.675,7.5V7.496l0,0H4.68V7.492l0.055-0.04l0,0L4.722,7.429L4.699,7.351c0-0.012-0.012-0.02-0.036-0.035l0,0L4.604,7.253
		L4.529,7.19L4.525,7.182L4.517,7.178l0.004-0.004V7.166l0.012-0.075V7.036L4.498,6.942l0.091-0.02l0.043-0.043h0.11l0.109-0.016
		h0.004l0.074,0.008L5.016,6.84l0.099-0.012l0.062-0.027h0.004L5.35,6.769l0.028-0.027L5.371,6.71L5.339,6.655V6.651L5.335,6.648
		V6.644l0.008-0.059l0.004-0.004V6.498L5.331,6.427l0,0V6.423l0.04-0.078C5.387,6.31,5.406,6.29,5.43,6.29l0.102,0.008
		c0.016,0,0.035-0.008,0.055-0.023l0.154-0.209V6.062l0.004-0.004l0.082-0.066l0.008-0.008c0.031-0.008,0.051-0.02,0.062-0.027
		l0.02-0.02c0.026-0.036,0.051-0.051,0.066-0.051l0.134,0.027L6.23,5.858l0,0h0.004l0,0h0.004L6.304,5.85L6.36,5.826V5.735
		l0.016-0.113V5.618l0,0V5.614l0.02-0.031L6.395,5.579L6.395,5.579z"/>
	<path fill="#215F8B" d="M6.529,6.923L6.494,6.95c0,0.016,0.008,0.051,0.02,0.102v0.004L6.518,7.06H6.513L6.471,7.158L6.412,7.182
		L6.399,7.186H6.395L6.293,7.139H6.289V7.135L6.097,6.958L6.022,6.915L5.904,6.871V6.867l0,0H5.9l0,0L5.845,6.828L5.748,6.797
		L5.692,6.801H5.688L5.562,6.793H5.558l-0.089-0.02H5.414L5.371,6.805C5.346,6.817,5.315,6.82,5.275,6.828L5.193,6.844l-0.07,0.023
		L5.119,6.871v0.004V6.871L5.033,6.88L4.942,6.915l0,0H4.929L4.855,6.907L4.742,6.923H4.647L4.608,6.962H4.604L4.556,6.974
		l0.02,0.047v0.074L4.564,7.162l0.067,0.055h0.004l0,0l0,0L4.691,7.28c0.035,0.027,0.051,0.047,0.051,0.07l0.02,0.059l0.027,0.059
		c-0.004,0-0.004,0.004-0.004,0.004L4.707,7.527L4.655,7.595l0.012,0.058l0.036,0.082l0.004,0.008l0,0v0.004L4.699,7.778
		c-0.008,0.02-0.016,0.036-0.028,0.044c-0.023,0.02-0.062,0.02-0.126,0l-0.098-0.02H4.443l0,0H4.439l-0.07-0.035L4.255,7.763
		l0.004,0.004L4.247,7.964C4.243,7.991,4.222,8.003,4.195,8.007c-0.012,0.004-0.02,0.02-0.016,0.051v0.004H4.176l-0.008,0.05
		c0.027,0.023,0.047,0.043,0.055,0.06l0.02,0.095v0.035C4.238,8.321,4.234,8.337,4.226,8.353L4.199,8.431L4.148,8.529v0.02
		l0.008,0.047l0.051,0.067C4.223,8.684,4.23,8.694,4.234,8.706l0.048,0.067l0.071,0.078C4.38,8.879,4.4,8.891,4.408,8.891
		l0.074-0.048c0.016-0.012,0.027-0.021,0.047-0.021c0.016,0,0.039,0.013,0.075,0.037l0,0h0.004v0.004L4.647,8.91l0.02,0.048
		l0.017,0.021l0.012,0.008l0.051,0.035l0.026,0.004c0.016,0.004,0.031,0.016,0.043,0.03c0.008,0.011,0.051,0.027,0.126,0.048h0.004
		l0.118,0.043h0.004h0.004l0.082,0.039l0.142,0.035L5.3,9.225l0.184,0.008l0.082-0.03h0.075v0.004L5.645,9.21l0.062,0.078l0,0v0.004
		l0.04,0.063L5.778,9.39L5.821,9.41l0.005,0.003l0,0L5.83,9.417l0.035,0.078v0.004h0.004v0.004l0.02,0.087l0.055,0.02h0.004h0.004
		l0,0l0.044,0.028l0.059-0.013l0.017-0.059V9.562l0.004-0.004l0.066-0.066l0.074,0.02V9.52l0.035,0.079l0.075-0.026l0.007-0.077
		V9.49V9.486l0.004-0.004l0.051-0.026L6.376,9.347V9.339V9.335l0,0l0.059-0.122l0.059-0.023l-0.023-0.11H6.53L6.525,9.027
		L6.494,8.922l0,0V8.914l0.008-0.075V8.827L6.51,8.822l0.039-0.049l0.008-0.009h0.012l0.106,0.021h0.004l0.087,0.023L6.84,8.785
		l0.043,0.086l0.004,0.004v0.062l0.012,0.06C6.907,9.02,6.922,9.036,6.938,9.04h0.008c0.035,0.008,0.056,0.022,0.06,0.047
		c0.004,0.021,0.02,0.047,0.047,0.078l0.035,0.052l0,0v0.004l0.024,0.043L7.147,9.26l0.066-0.059l0.043,0.09l0.086,0.027h0.005
		L7.35,9.322L7.393,9.4l0.02,0.013l0.004-0.074V9.335V9.322L7.59,9.318l0.004-0.016C7.598,9.295,7.598,9.279,7.59,9.268
		C7.578,9.244,7.574,9.224,7.57,9.195c-0.004-0.03,0-0.055,0.008-0.062c0.012-0.017,0.02-0.017,0.039-0.012l0.071,0.022l0.008-0.051
		l-0.13-0.059H7.558L7.554,9.027V9.025V9.021L7.535,8.863l0.004-0.1V8.753V8.745l0.216,0.028l0.056-0.052
		c0.012-0.02,0.008-0.034,0-0.038C7.755,8.663,7.727,8.64,7.727,8.616c0-0.012,0.004-0.028,0.023-0.036l0.091-0.091l0.098-0.004
		L7.99,8.399V8.317l0.075-0.016c0.02-0.06,0.031-0.091,0.039-0.103l0.032-0.067L8.081,8.034V8.03l0,0V8.026L8.046,7.893V7.889
		L8.021,7.751L7.974,7.673l-0.07-0.07V7.599V7.595L7.9,7.591L7.896,7.516l-0.13,0.039L7.762,7.551L7.704,7.484L7.527,7.351H7.523
		L7.457,7.265L7.413,7.237L7.386,7.28v0.008L7.382,7.292H7.378H7.37L7.314,7.296L7.306,7.3H7.303L7.174,7.158
		c-0.027-0.012-0.055-0.04-0.095-0.079L7.02,7.036L7.016,7.032L6.949,6.993L6.91,7.025L6.906,7.032L6.902,7.028H6.898L6.863,7.021
		l-0.039,0.02L6.82,7.044L6.816,7.048H6.812L6.758,7.056C6.682,7.013,6.607,6.97,6.529,6.923z"/>
	<path fill="#215F8B" d="M6.762,8.852L6.671,8.822l-0.095-0.01L6.545,8.847L6.537,8.914l0.004,0.004l0.027,0.104l0.004,0.077v0.023
		H6.525l0.02,0.095L6.471,9.244L6.44,9.304l0.039,0.031l0.008,0.004l0,0l0.136,0.108l0.004,0.005h0.004v0.004V9.46l0.02,0.099
		L6.714,9.65C6.729,9.673,6.75,9.695,6.785,9.729h0.004l0.004,0.004v0.004L6.789,9.742v0.087c0.012,0.024,0.015,0.075,0.015,0.149
		c0.035,0.053,0.051,0.088,0.051,0.11c0,0.017,0.012,0.047,0.031,0.09l0,0v0.005l0,0c0.008,0.055,0.004,0.103-0.008,0.143
		c-0.011,0.027,0.005,0.076,0.048,0.147l0.004,0.005l0.003,0.006l-0.004,0.008l-0.062,0.139c0.012,0.031,0.016,0.057,0.016,0.071
		l-0.016,0.129c-0.008,0.043-0.008,0.065,0.012,0.073l0.023,0.017c0.035,0.017,0.047,0.036,0.047,0.056l-0.004,0.067l0.02,0.008
		l0.004,0.004l0.012-0.012c0.012-0.013,0.024-0.026,0.028-0.048l0.008-0.012l0.004-0.008c0.016-0.009,0.023-0.021,0.035-0.035
		c0.004-0.024,0.004-0.049-0.004-0.076l-0.008-0.02l0.021-0.004c0.062-0.016,0.099-0.012,0.11,0.016l0.031,0.08v0.004v0.004
		l0.016,0.129l0.051,0.027h0.004H7.28l0.031,0.027l0.031-0.035l0.036-0.027H7.39c0.027,0.008,0.043,0.027,0.052,0.056l0.016,0.102
		l0.004,0.017l0.105,0.229l0.043,0.043l0.004,0.004v0.004l0.019,0.094l0,0l0.008,0.09l0.004,0.009
		c0.027-0.04,0.052-0.06,0.067-0.052c0.016,0.004,0.02,0.012,0.02,0.027v0.023v0.07v0.02c0.02,0.004,0.035,0,0.039-0.012l0.04-0.055
		l0.043-0.045c0.027-0.02,0.055-0.035,0.086-0.035h0.003l0.082,0.021l0.024-0.012l0.043-0.056l-0.007-0.084
		c-0.027-0.047-0.039-0.086-0.031-0.113l0.012-0.071v-0.008l0.004-0.009l0,0l0.075-0.043h0.004l0,0l0.054-0.037l0.062-0.09
		l0.008-0.065l-0.07-0.166l0.156,0.071v-0.066l0,0v-0.005l0.06-0.051l0.114-0.031h0.008l0.066,0.146v0.008L8.6,11.049L8.607,11.1
		c0.008,0.023,0.023,0.035,0.035,0.035c0.016,0,0.031-0.012,0.047-0.031l0.004-0.008l0,0h0.004l0.095-0.031l0,0h0.005
		c0.051,0,0.074,0.013,0.086,0.035l0.008,0.105v0.004l0.021,0.004l0.039,0.012l0.06-0.004l0.099-0.027l0.06-0.051L9.172,11.1
		l-0.027-0.031l-0.104-0.035l0,0l-0.008-0.004l0,0v-0.004l-0.117-0.119l0.012-0.008l0.06-0.051l0.004-0.004l0,0l0.06-0.023l0,0
		h0.012l0.078,0.017h0.004l0.005,0.004v-0.03l-0.035-0.06l-0.056-0.027l-0.074-0.11l0,0L8.98,10.609v-0.004l-0.035-0.129v-0.099
		l0.062-0.06h0.094l0.221,0.021l0.104-0.146v-0.01h0.008l0.082-0.044l0.043-0.086l0.004-0.004l0.099-0.083L9.703,9.88V9.876h0.004
		V9.872l0,0l0.039-0.039l0.048-0.078l0.015-0.122V9.621l0.004-0.004l0.063-0.043l0.017-0.016L9.799,9.542L9.641,9.551L9.637,9.546
		L9.578,9.499H9.57V9.495l0,0L9.539,9.447L9.531,9.452L9.527,9.46C9.52,9.472,9.499,9.477,9.475,9.477l-0.022,0.01
		C9.444,9.49,9.44,9.495,9.43,9.49c-0.008,0-0.013-0.012-0.021-0.03C9.404,9.441,9.396,9.421,9.373,9.4L9.369,9.398V9.395H9.365
		l-0.02-0.052H9.33L9.271,9.382L9.268,9.386H9.264L9.126,9.413H9.118L9.11,9.408L9.02,9.347l0,0L9.016,9.343V9.339H9.012
		L8.988,9.291l-0.066,0.07C8.875,9.417,8.84,9.434,8.816,9.417L8.725,9.37L8.662,9.361L8.654,9.365L8.596,9.322L8.592,9.318
		L8.58,9.316L8.607,9.21V9.173L8.572,9.156H8.568l-0.082-0.09L8.49,9.001L8.285,8.98L8.207,8.938
		C8.187,8.926,8.172,8.902,8.16,8.863L8.148,8.835l-0.015-0.06L8.104,8.779L8.042,8.831L7.967,8.922l0.016,0.066l0.023,0.086v0.005
		H8.01L8.006,9.083v0.004C7.998,9.109,7.974,9.122,7.939,9.122H7.861L7.814,9.099l-0.06,0.023L7.743,9.126L7.735,9.122L7.727,9.177
		L7.723,9.186v0.012H7.712L7.613,9.165c0,0.03,0.004,0.056,0.02,0.083c0.012,0.027,0.016,0.048,0.004,0.07L7.625,9.352
		c-0.012,0.01-0.047,0.014-0.098,0.01H7.461l-0.004,0.11L7.37,9.441H7.366L7.362,9.438L7.318,9.355L7.224,9.322L7.201,9.271
		L7.166,9.3H7.162L7.103,9.312H7.087L7.055,9.24L7.024,9.195L7.02,9.191C6.988,9.152,6.972,9.117,6.965,9.099
		c0-0.004-0.008-0.012-0.027-0.016L6.922,9.079c-0.028-0.013-0.047-0.035-0.059-0.07L6.847,8.941V8.887L6.82,8.835L6.773,8.852
		H6.769H6.765H6.762z"/>
	<path fill="#043960" d="M1.465,7.567v0.005C1.449,7.607,1.422,7.63,1.39,7.657C1.367,7.669,1.359,7.689,1.359,7.712v0.012
		c0,0.021-0.012,0.051-0.043,0.099l-0.004,0.02c-0.008,0.012-0.023,0.02-0.051,0.02L1.037,7.834v0.004L1.021,7.889v0.004
		L1.017,7.897l0,0C0.959,7.98,0.92,8.038,0.916,8.077c-0.004,0.02,0.02,0.091,0.07,0.213l0.035,0.082
		C1.037,8.411,1.025,8.458,0.99,8.51L0.92,8.58H0.802L0.778,8.45L0.746,8.612L0.798,8.69c0.004,0.012,0.004,0.02,0,0.022
		L0.789,8.722C0.773,8.734,0.75,8.773,0.726,8.839c-0.023,0.06-0.011,0.119,0.036,0.183h0.095C0.889,9.029,0.936,9.08,1.003,9.169
		l0.004,0.008l0,0c0,0.028,0.012,0.048,0.031,0.063l0.208,0.193v0.004L1.34,9.555h0.055l0.058-0.107l0.008-0.008l0.004-0.004
		l0.146,0.035v0.004v0.008l0.02,0.1l0.172,0.199l0.06,0.023l0.004,0.004l0.026,0.016l0.004,0.005l0.13,0.192l0.106-0.015h0.008
		h0.004l0.008,0.008l0.003,0.009l0.091,0.188l0.11,0.066l0.09,0.023l0.043,0.122h0.067l0.004,0.004l0,0l0.142,0.078v0.004l0,0
		l0.004,0.004l0.102,0.126l0.15-0.027h0.008l0.055,0.023h0.004l0.094,0.083l0.169,0.013l0.103-0.017l0,0
		c0.137-0.022,0.224-0.012,0.255,0.022c0.021,0.031,0.009,0.062-0.039,0.103l-0.039,0.039c-0.012,0.021,0.004,0.052,0.055,0.099
		l0.004,0.008H3.622l0.032,0.023l0.012-0.012c0.098-0.186,0.176-0.286,0.231-0.307c0.059-0.02,0.181,0.031,0.373,0.148l0.235,0.043
		l-0.004,0.008v0.008l-0.012,0.11l0.118,0.017l-0.003,0.149c0.035,0.065,0.062,0.106,0.079,0.118c0.023,0.016,0.141,0.016,0.35,0
		l0.121-0.062l0.117-0.164l0.139-0.004l0.066-0.021l0.26-0.15H5.74l0.004-0.004l0,0c0.148-0.016,0.235-0.021,0.259,0l0.169,0.144
		l0.051,0.02l0.008,0.008l0.066,0.027l0.004,0.004v-0.012v-0.004v-0.004v-0.004l0.028-0.119c-0.012-0.035-0.012-0.062,0-0.086
		c0.008-0.021,0.027-0.031,0.059-0.039c0.06-0.012,0.114,0.039,0.169,0.148l0.008,0.004h0.004l0.099-0.043
		c0.02-0.004,0.027-0.023,0.027-0.044l-0.02-0.069v-0.004c-0.008-0.031,0-0.06,0.031-0.07l0.035-0.027l0.087-0.095l0.059-0.13
		c-0.051-0.082-0.066-0.141-0.051-0.182l0.012-0.109c-0.024-0.049-0.036-0.079-0.036-0.106c0-0.012-0.016-0.047-0.047-0.094H6.762
		V9.986L6.75,9.845c-0.004-0.022-0.009-0.055,0-0.094C6.714,9.724,6.69,9.695,6.675,9.669L6.615,9.59L6.611,9.586V9.578V9.574
		l-0.02-0.1L6.533,9.429v0.005L6.42,9.343v0.009l0.016,0.12v0.005v0.012l-0.06,0.026L6.368,9.59v0.012L6.23,9.656l-0.047-0.11
		L6.156,9.538L6.113,9.582L6.086,9.661L5.987,9.689L5.931,9.65L5.853,9.625L5.83,9.515L5.799,9.447l-0.047-0.02L5.748,9.421
		L5.712,9.378l0,0L5.677,9.316L5.622,9.244H5.574L5.496,9.271L5.492,9.275l-0.2-0.013l-0.154-0.03
		c-0.011-0.008-0.039-0.02-0.082-0.047L4.938,9.146C4.847,9.122,4.797,9.104,4.785,9.079l-0.02-0.013L4.738,9.061L4.667,9.021
		L4.659,9.018C4.647,9.001,4.636,8.988,4.628,8.974L4.612,8.938L4.58,8.891L4.529,8.867l-0.02,0.012l-0.02,0.016L4.478,8.902
		c-0.02,0.016-0.039,0.022-0.055,0.026C4.392,8.938,4.361,8.922,4.325,8.883L4.251,8.804C4.222,8.77,4.203,8.74,4.195,8.722
		l-0.02-0.03C4.148,8.663,4.129,8.636,4.117,8.612C4.105,8.576,4.101,8.545,4.113,8.514V8.51l0,0l0.051-0.087l0.027-0.09
		l0.012-0.058l-0.02-0.091L4.125,8.132l0.012-0.074c0-0.055,0.02-0.082,0.059-0.09c0.012-0.004,0.02-0.012,0.016-0.027V7.937
		l0.004-0.079V7.854l0,0V7.763H4.207L4.203,7.759l0,0l0,0L4.187,7.751V7.747H4.183L4.113,7.7l0,0H4.109L4.054,7.653L3.869,7.618l0,0
		L3.81,7.575H3.701c-0.016,0-0.035,0.012-0.063,0.027H3.634L3.547,7.634H3.332C3.3,7.642,3.272,7.65,3.257,7.665
		C3.233,7.685,3.189,7.7,3.131,7.72L3.029,7.743v0.004H3.021L2.876,7.732L2.863,7.728l0.005,0.004L2.863,7.728L2.812,7.724
		L2.726,7.751L2.554,7.767H2.55L2.546,7.763L2.459,7.732h-0.07C2.357,7.724,2.322,7.7,2.283,7.653L2.279,7.646
		C2.271,7.61,2.259,7.595,2.255,7.587l-0.02-0.012L2.2,7.555L2.168,7.587L2.164,7.595L2.039,7.646H2.035H2.027L1.874,7.661
		c-0.023,0-0.067-0.012-0.126-0.027L1.615,7.61H1.611l0,0L1.532,7.567H1.465z"/>
	<path fill="#509BC2" d="M6.352,12.458l-0.016,0.051c0.023,0,0.055-0.017,0.087-0.039l0.004-0.004h0.008l0.156-0.021l0.103-0.051
		l0.039,0.055l0.008,0.005l-0.047,0.073l0.056,0.056v0.004v0.012l-0.04,0.166l0.103,0.074l0.184,0.008L6.97,12.882
		c-0.117,0.146-0.172,0.231-0.168,0.261l0.07,0.016c0.094,0.008,0.149,0.035,0.169,0.07c0.023,0.047,0.047,0.094,0.067,0.148
		l0.105,0.061l0.066,0.012l0.138-0.119l0.071,0.107v0.004l0,0l0.004,0.004l0.023,0.098l0.059,0.012l0,0l0.09,0.031l0.024-0.008
		v-0.006l-0.017-0.102l-0.004-0.004l-0.051-0.232v-0.008l0.031-0.16l0.008,0.004h0.012l0.106,0.008l0.134-0.1l0.012,0.008
		c0.07,0.057,0.118,0.101,0.142,0.131C8.084,13.109,8.128,13.066,8.187,13l0.004-0.004l0.008-0.01l0.196,0.053l0.087-0.071
		l0.004-0.004L8.49,12.96h0.004l0.004,0.004L8.58,12.98l0.268-0.234L8.93,12.77l0,0l0.004,0.004l0.004,0.004l0.004,0.004l0.02,0.035
		l0.021-0.023h0.004v-0.004h0.004l0.079-0.043l0.059-0.057l-0.016-0.121L9.1,12.552l-0.076,0.031l0,0
		C9,12.591,8.98,12.599,8.953,12.599H8.867c-0.027-0.004-0.043-0.012-0.057-0.026l-0.008-0.125
		c-0.026-0.017-0.039-0.024-0.049-0.024l-0.021,0.008l-0.028,0.017L8.65,12.459H8.635l-0.004-0.008L8.6,12.395l-0.004-0.051l0,0
		l0.031-0.148l0,0h0.004v-0.004l0.035-0.074l-0.109-0.1l-0.004-0.004L8.549,12.01v-0.113l0.004-0.004l0.062-0.181l-0.039-0.099
		l-0.035-0.01l-0.043,0.004l-0.044,0.067l-0.055-0.039l-0.056-0.032L8.3,11.495l0,0l0,0l-0.016-0.078v-0.009L8.28,11.404
		l0.012-0.008l0.051-0.07l0.012-0.008l0,0h0.004l0.04-0.008l0.043-0.013l0.204-0.008H8.65l0.027,0.012l0.008,0.004l0.031,0.013
		l0.056-0.023l0.048-0.036l0.023-0.039l0.004-0.021l-0.004-0.086l-0.045-0.008l-0.082,0.027C8.693,11.16,8.665,11.18,8.639,11.18
		c-0.027,0-0.051-0.023-0.074-0.066l0,0H8.561v-0.004l-0.004-0.055v-0.008l0.004-0.052l-0.043-0.106l-0.083,0.024l-0.035,0.032
		l0.012,0.117l-0.13-0.06l0.031,0.071l0.004,0.004v0.008l-0.012,0.078v0.008H8.301l-0.074,0.105l0,0l-0.122,0.074l-0.012,0.073
		c-0.004,0.013,0.012,0.043,0.031,0.082l0.005,0.004v0.004l0.008,0.103v0.013l-0.004,0.003l-0.048,0.062l0,0l-0.004,0.004H8.077
		l-0.035,0.023H8.038H8.034H8.029H8.025l-0.09-0.021c-0.016,0-0.035,0.009-0.055,0.024L7.841,11.77L7.81,11.809
		c-0.02,0.034-0.048,0.043-0.091,0.034c-0.027-0.004-0.036-0.03-0.027-0.065V11.75l-0.004-0.027l-0.017,0.02
		c-0.012,0.017-0.023,0.021-0.039,0.021c-0.016-0.004-0.027-0.021-0.035-0.047v-0.004l-0.008-0.091l-0.02-0.088L7.53,11.495l0,0
		L7.526,11.49l-0.081-0.188l-0.004-0.004l-0.024-0.057v-0.004H7.413v-0.004l-0.016-0.102l-0.012-0.016l-0.016,0.012
		C7.341,11.16,7.321,11.18,7.313,11.18c-0.012,0-0.031-0.016-0.062-0.039l-0.058-0.027l-0.008-0.004l-0.004-0.004v-0.002
		l-0.004-0.009l-0.004-0.077l0,0l-0.012-0.061L7.13,10.878H7.099c0.004,0.03,0,0.06-0.009,0.079
		c-0.008,0.023-0.023,0.039-0.047,0.061c-0.008,0.026-0.02,0.047-0.035,0.062c-0.024,0.022-0.044,0.022-0.067,0.008l-0.012-0.004
		c-0.023-0.009-0.027-0.035-0.023-0.087v-0.02l-0.051-0.031c-0.02-0.008-0.031-0.032-0.035-0.067l0.02-0.176l-0.008-0.027
		l-0.062,0.07l-0.044,0.03l-0.012,0.027c0.016,0.035,0.023,0.062,0.023,0.082c0,0.04-0.02,0.071-0.055,0.083l-0.071,0.027
		l-0.02,0.012l-0.004,0.028v0.109c0.004,0.034,0.008,0.055,0.02,0.055c0.023,0.012,0.052,0.012,0.075-0.008l0.023-0.013l0.075,0.173
		v0.004l0,0v0.01c-0.027,0.31-0.056,0.486-0.091,0.533c-0.016,0.016-0.027,0.022-0.052,0.026c-0.027,0-0.047-0.004-0.074-0.021
		c-0.102,0.205-0.169,0.312-0.2,0.326h0.004c-0.016,0.004-0.023,0.056-0.02,0.146l0.023,0.021l0.008,0.008l0.008,0.008L6.352,12.458
		z"/>
	<path fill="#215F8B" d="M9.812,10.662L9.786,10.65l-0.03,0.021l-0.021,0.035c-0.016,0.034-0.031,0.055-0.059,0.055
		c-0.017,0-0.035-0.012-0.047-0.022l-0.005-0.004L9.62,10.73l0,0l-0.012-0.039v-0.004l-0.005-0.053l-0.022-0.004l-0.004,0.004
		l-0.012,0.04v0.056l-0.005,0.004l-0.004,0.004L9.51,10.8l-0.006,0.009H9.495L9.4,10.8H9.393v0.004l0,0v0.005l-0.031,0.043
		l0.012,0.026h0.004L9.35,10.921H9.264v-0.017l-0.008-0.008l-0.013-0.008l-0.017,0.027l-0.004,0.013H9.166l-0.004-0.004
		l-0.036-0.028l-0.004-0.008v-0.004H9.118v-0.008l-0.063-0.012l-0.047,0.02l-0.026,0.02l0.077,0.092l0.104,0.031l0.004,0.004l0,0
		l0.005,0.005l0.051,0.047l-0.021,0.078l0,0v0.012H9.197l-0.066,0.056v0.004H9.126l-0.11,0.03H9.012L8.95,11.271l0,0H8.945l0,0
		H8.941l-0.043-0.017l-0.023-0.004l-0.023,0.04H8.848v0.004L8.795,11.33H8.792l0,0l-0.071,0.031H8.717l-0.082-0.027l-0.181,0.008
		l-0.039,0.012l-0.004,0.004H8.375l-0.043,0.061l0.008,0.066l0.04,0.09l0.043,0.022h0.004v0.005l0.015,0.012l0.028-0.041
		l0.004-0.004l0.004-0.004h0.004l0.059-0.008h0.008v0.004l0.06,0.017l0.059,0.135H8.662v0.004L8.639,11.79l0,0l-0.02,0.047v0.004
		l-0.027,0.065v0.084l0.047,0.047h0.004l0.062,0.056l0.008,0.004l0.004,0.005L8.67,12.21l-0.012,0.051l0.016-0.008h0.004
		l0.039-0.017l0.071-0.039h0.004l0.079,0.013h0.004l0,0l0.117,0.047h0.13l0.035-0.047l0.005-0.004l0.004-0.004l0.066-0.031
		l0.062-0.056l0.009-0.004l0,0l0.047-0.016L9.4,12.057l0.06-0.078l0.083,0.03l0.012,0.004v0.005l0.004,0.004
		c0.013,0.031,0.023,0.047,0.035,0.051l0.051-0.008h0.013l0.026,0.008h0.004v0.005L9.754,12.1h0.021l0.004-0.016l0.008-0.023v-0.004
		l0.004-0.004l0.004-0.005v-0.004l0.023-0.017l0.004-0.004l0.044-0.035h0.004l0.004-0.004h0.008l0.039,0.004
		c0-0.022,0.012-0.047,0.035-0.07c0.027-0.02,0.047-0.031,0.059-0.027l0.023-0.016h0.004v-0.004l0.02-0.02v-0.005h0.005l0.004-0.004
		h0.004l0.063-0.016h0.035l0.016-0.013l0.013-0.022l0,0l0.021-0.039l-0.008-0.004c-0.025-0.027-0.041-0.06-0.049-0.103l-0.004-0.004
		l0,0h0.004v-0.005l0.016-0.087c0-0.027,0.008-0.047,0.028-0.066L10.2,11.415c-0.005-0.009-0.013-0.017-0.032-0.021l-0.126,0.051
		l0.009-0.129c0.004-0.021,0.043-0.057,0.117-0.1l-0.035-0.137c-0.008-0.047,0.004-0.083,0.035-0.114l-0.008-0.022h-0.039
		l-0.012,0.004l-0.021,0.055c-0.016,0.021-0.031,0.031-0.047,0.031h-0.008l-0.039-0.027H9.99H9.986v-0.004v-0.008l-0.012-0.027
		l-0.004-0.039v-0.004l-0.004,0.008l-0.004,0.014h-0.07l-0.008-0.017l-0.012-0.043v-0.059l-0.044-0.074v-0.062L9.812,10.662z"/>
	<path fill="#80C3E2" d="M10.611,11.68l0.004,0.004l0.008,0.008l-0.051,0.08c-0.02,0.022-0.048,0.039-0.079,0.039h-0.008
		l-0.04-0.023l-0.039,0.004l-0.078,0.059c-0.02,0.008-0.043-0.012-0.078-0.059l-0.023,0.051h-0.004l0,0l-0.004,0.004l0,0
		l-0.027,0.027h-0.051l-0.053,0.016l-0.062,0.047h-0.021l-0.022,0.017c-0.021,0.021-0.027,0.036-0.017,0.052l0.027,0.039
		l-0.109-0.012l-0.06,0.048l-0.008,0.02v0.005l-0.013,0.03l-0.004,0.004l-0.004,0.005H9.742l-0.07-0.027l-0.022-0.004l-0.056,0.008
		c-0.022,0-0.051-0.027-0.074-0.071l-0.047-0.021l-0.039,0.061l0,0H9.43l-0.057,0.044H9.369v0.004H9.361l-0.043,0.013l-0.062,0.055
		l0,0L9.19,12.234l-0.048,0.062H8.984l0,0l-0.121-0.047L8.797,12.24l-0.06,0.033H8.733l0,0l-0.04,0.016
		c-0.02,0.008-0.035,0.021-0.047,0.023l-0.008,0.021v0.047l0.02,0.032l0.096-0.032c0.02,0,0.047,0.013,0.082,0.032l0.008,0.004
		l0.004,0.004l0.004,0.133l0.021,0.004h0.081l0.051-0.012l0.008-0.008c0.031-0.016,0.061-0.027,0.096-0.031l0.016-0.004l0.008,0.011
		l0.022,0.048v0.004l0.013,0.129v0.013l-0.07,0.075H9.092v0.004l-0.084,0.037l-0.026,0.031l0.012,0.023l0.17,0.016l0.004,0.004l0,0
		L9.172,12.9l0.065,0.039l0.147-0.004v0.021l0.008,0.075v0.008h0.005l-0.066,0.066c-0.008,0.086,0.009,0.137,0.043,0.148L9.5,13.32
		l0.1,0.066l0.082-0.039l0.008-0.004l0.008-0.004l0.004,0.004l0.126,0.096l0.021,0.008l0.031-0.041l0.008-0.008l0.004-0.004h0.004
		h0.005l0.073,0.012l0.017-0.129l0.094,0.17l0.079,0.004l0.012,0.004h0.008v0.008v0.051l0.033-0.008l0.129-0.174l0.055,0.083v-0.027
		l0,0v-0.004V13.38l0.039-0.079l0.035-0.059h0.1l0.016-0.109H10.6l0.009,0.004l0.073,0.012l0.009-0.039l-0.027-0.062v-0.008
		l0.017-0.043v-0.01l0.004-0.004h0.004v-0.004l0.205-0.108l-0.01-0.105l0,0v-0.004l0.041-0.079l0.008-0.016l0,0l0.062-0.146
		l0.004-0.004l0,0l0.052-0.051l0.03-0.059v-0.008l0,0l0.027-0.049l-0.023-0.06v-0.004h-0.004v-0.062h-0.036l-0.059,0.027
		c-0.027,0.021-0.066,0.012-0.118-0.021c-0.021-0.016-0.021-0.055-0.008-0.113l-0.031-0.004l-0.017,0.021
		c-0.035,0.039-0.062,0.062-0.07,0.062s-0.012,0-0.02-0.004c-0.004-0.012-0.013-0.03-0.013-0.062c0-0.035,0-0.06,0.013-0.065
		c0.008-0.013,0.016-0.018,0.022-0.009l0.075-0.139l0.02-0.052l0.012-0.059l-0.043-0.035c-0.012-0.012-0.016-0.039-0.008-0.078
		V11.67c0-0.012-0.008-0.027-0.023-0.039h-0.008l-0.004,0.012c-0.013,0.031-0.039,0.047-0.082,0.035
		C10.662,11.672,10.639,11.672,10.611,11.68L10.611,11.68z"/>
	<path fill="#043960" d="M10.375,9.857l-0.027-0.062l-0.043-0.062l-0.047-0.012h-0.004V9.716H10.25l-0.039-0.021l0,0h-0.008
		l-0.018,0.004l-0.051,0.009h-0.004l-0.008-0.004l-0.052-0.021V9.681h-0.004V9.677l0,0l-0.038-0.039L9.986,9.594L9.947,9.57
		L9.904,9.609L9.85,9.648L9.833,9.768v0.004l0,0L9.782,9.857v0.008H9.778l-0.04,0.039L9.691,9.995l0,0l-0.004,0.008
		c-0.035,0.026-0.066,0.056-0.098,0.078L9.551,10.15c-0.008,0.021-0.039,0.043-0.099,0.066l-0.039,0.068l0,0l-0.067,0.091H9.342
		v0.004H9.334L9.02,10.359l-0.034,0.035v0.066l0.03,0.13l0.067,0.095l0.056,0.031v0.004h0.004l0,0
		c0.031,0.039,0.048,0.066,0.048,0.086v0.051L9.17,10.878l0.012,0.008h0.017l0.022-0.047h0.008l0.062,0.021l0.004,0.02h0.031l0,0
		l-0.008-0.023l-0.004-0.008l0.043-0.066c0.008-0.02,0.027-0.026,0.056-0.02l0.07,0.004l0.04-0.051v-0.048l0.016-0.052v-0.004
		l0.004-0.004l0.004-0.004l0.027-0.016v-0.004h0.004l0.004,0.004l0.059,0.008v0.008l0.013,0.047v0.024l0.008,0.035l0.017,0.004
		l0.02-0.026v-0.004l0.031-0.045l0.004-0.008l0.044-0.02H9.78l0.004-0.004l0.049,0.016h0.005l0.008,0.004l0.027,0.057v0.055
		l0.039,0.074l0,0v0.008v0.055l0.012,0.023h0.012l0.017-0.021l0.004-0.008l0.048,0.026h0.004h0.004v0.008v0.004l0.016,0.068
		l0.02,0.012l0.004-0.008l0.021-0.052v-0.004l0.004-0.009h0.004h0.004l0.028-0.016h0.004v-0.004h0.035l-0.008-0.021v-0.009
		l-0.021-0.184l-0.075-0.123l-0.141-0.164l-0.004-0.004l-0.008-0.105l-0.049-0.081v-0.004l-0.004-0.005l0,0l0.004-0.008l0.023-0.102
		h0.008h0.008l0.248-0.016l0.133-0.07l0,0l0.004-0.004c0.048-0.016,0.078-0.036,0.087-0.057C10.367,9.924,10.375,9.896,10.375,9.857
		z"/>
	<path fill="#509BC2" d="M9.516,7.468L9.491,7.464l-0.039,0.24L9.52,7.782l0.062,0.027l0,0h0.004L9.59,7.813L9.672,7.88l0.113,0.027
		h0.004l0.061,0.04h0.004l0,0v0.008l0.043,0.062l0.008,0.008L9.9,8.034L9.861,8.097C9.854,8.105,9.854,8.124,9.854,8.155h0.004V8.23
		L9.854,8.234l0,0L9.817,8.353L9.812,8.372H9.805L9.794,8.368L9.742,8.357L9.676,8.36L9.617,8.38L9.551,8.435L9.535,8.45
		l0.086,0.043L9.613,8.51C9.609,8.53,9.59,8.549,9.559,8.562L9.504,8.565L9.413,8.529l0,0l0,0L9.33,8.482H9.295L9.197,8.624
		l-0.02,0.047v0.082l0.039,0.065v0.004l0,0l0,0l0.022,0.063v0.009l0.004,0.09v0.013l0.004,0.008L9.186,9.018H9.067L9.012,9.052
		L8.988,9.091l0.004,0.004l0.023,0.118H9.02V9.26l0.027,0.057l0.082,0.055l0.123-0.028l0.059-0.039L9.319,9.3h0.054l0.031,0.074
		C9.426,9.395,9.44,9.413,9.448,9.438l0.026-0.004h0.009h0.008l0.004-0.009l0.056-0.043l0.051,0.09l0.056,0.035h0.078l0.06-0.008
		h0.012L9.949,9.52h0.004v0.004l0.059,0.035l0,0l0,0v0.004l0.051,0.039v0.004l0.035,0.041l0.041,0.016l0.062-0.008V9.57
		l-0.032-0.057h-0.006V9.511l-0.022-0.103l0.055-0.055L10.2,9.35h0.004l0.047-0.008h0.052l0.016-0.02l-0.031-0.045l-0.113-0.073
		l-0.031-0.043l-0.004-0.005l-0.002-0.004l0.004-0.008l0.031-0.059l0.008,0.008l0.078,0.02l0.209-0.008l0.004,0.004h0.004
		l0.059,0.021l0.04-0.035l-0.021-0.121l-0.074-0.048c-0.063-0.035-0.084-0.122-0.071-0.263l-0.062-0.031l-0.008-0.004h-0.009V8.62
		V8.616l-0.012-0.104l0.086-0.401c-0.035-0.117-0.056-0.195-0.056-0.235L10.34,7.759l0.008-0.129V7.622l0.009-0.008l0,0l0.077-0.06
		V7.492c0-0.017-0.008-0.04-0.026-0.071l-0.051-0.055h-0.009V7.355L10.34,7.261V7.257l-0.004-0.004l0.008-0.004V7.245l0.103-0.131
		V7.06l-0.031-0.059V6.997l-0.004-0.008l0.052-0.062V6.923h0.004l0.056-0.043l-0.009-0.052h-0.026L10.443,6.82L10.42,6.915
		l-0.012-0.004l-0.102-0.04l-0.062-0.012l0.023,0.099L10.18,6.985l-0.127,0.067l-0.039,0.051l0,0v0.004H10.01L9.943,7.166
		L9.932,7.261v0.008L9.896,7.401H9.9L9.885,7.464v0.004l0,0L9.881,7.472l-0.043,0.06H9.833v0.004L9.829,7.539H9.825L9.73,7.551l0,0
		v0.004L9.727,7.551l0,0L9.586,7.504L9.582,7.5L9.516,7.468z"/>
	<path fill="#80C3E2" d="M11.35,6.411l0.016-0.02l-0.027-0.062l-0.027-0.031l-0.03,0.051v0.004l0,0l0,0l-0.052,0.059l0,0
		l-0.004,0.004h-0.008l-0.096,0.027h-0.008l-0.09-0.017l-0.051,0.017L10.96,6.486l0,0l-0.004,0.008l-0.043,0.027l-0.008,0.004
		h-0.008l-0.079-0.008l-0.004,0.008v0.079l-0.004,0.004l-0.043,0.055l0,0v0.004h-0.004l-0.074,0.074h-0.004l-0.004,0.004
		l-0.078,0.016l-0.051,0.056l0.013,0.067V6.9l-0.013,0.003l-0.06,0.055l-0.03,0.039l0.022,0.051v0.004v0.004V7.13l0,0v0.005
		l-0.044,0.062v0.004l-0.059,0.068l0.008,0.078l0.052,0.047v0.004l0,0c0.024,0.039,0.036,0.07,0.036,0.099v0.086h-0.006
		l-0.004,0.004l-0.078,0.059l-0.008,0.117l0.008,0.118c0,0.04,0.017,0.114,0.056,0.224v0.004v0.008L10.36,8.519l0.008,0.077
		l0.06,0.028l0.095-0.095l0,0h0.004l0.303-0.118l0.079-0.07l0.008-0.008l0.004,0.004h0.008L11.1,8.353
		c0.023,0,0.076-0.02,0.15-0.051V8.219l0.004-0.004h0.004l0.047-0.043L11.293,8.12V8.116V8.112V8.105l0.004-0.004
		c0.016-0.016,0.016-0.031,0.004-0.043c-0.012-0.023-0.008-0.055,0.012-0.09l0.021-0.027l0,0l-0.004-0.056l-0.06-0.071
		c-0.026-0.02-0.03-0.047-0.016-0.074c0.008-0.023,0.021-0.047,0.039-0.066l0.016-0.066l0,0l0,0l0.043-0.095l0.013-0.044
		l0.062-0.117l-0.043-0.074l-0.121-0.075h-0.008v-0.01l0,0L11.231,7.13V7.126V7.118l0.009-0.105l0,0V7.009l0.027-0.078
		c-0.004-0.027,0-0.047,0.012-0.063c0.008-0.008,0.02-0.016,0.031-0.016l0.074-0.012l0.02-0.043l0.02-0.13L11.408,6.62l-0.066-0.016
		h-0.004l0,0L11.26,6.565l-0.004-0.004V6.554L11.252,6.55l-0.004-0.095V6.447V6.435L11.35,6.411z"/>
	<path fill="#80C3E2" d="M11.557,10.596l0.004-0.004h-0.008v-0.008l-0.03-0.061l-0.005-0.004v-0.007l0.009-0.094
		c0-0.013-0.013-0.022-0.035-0.039h-0.024l-0.039,0.047h-0.004l0,0l-0.098,0.047l-0.016-0.065V10.4l0.008-0.031l-0.008-0.039
		l-0.012-0.004l-0.017,0.031h-0.004v0.004l-0.122,0.104l-0.004,0.008h-0.004h-0.008h-0.008l-0.035-0.016l-0.004-0.004l-0.039-0.035
		l-0.062-0.022l0,0l-0.004-0.004l-0.039-0.027l-0.13-0.027l0,0h-0.004l-0.088-0.044v0.004l-0.065-0.03l-0.086-0.009l-0.03,0.004
		l0.026,0.146h-0.013l-0.086,0.009h-0.049h-0.004l0,0l-0.047-0.031l-0.078,0.035l-0.07,0.094l-0.062,0.171l0.02,0.184l0.029,0.105
		c0.004,0.012,0.004,0.016,0,0.021L10.2,10.999c-0.021,0.012-0.028,0.04-0.024,0.079l0.041,0.16l-0.014,0.004
		c-0.07,0.041-0.107,0.072-0.111,0.088l-0.008,0.056l0.067-0.028l0.004-0.004h0.004c0.048,0,0.075,0.018,0.079,0.057l0.012,0.086
		l-0.004,0.012l-0.008,0.008c-0.012,0.012-0.02,0.023-0.02,0.039l-0.013,0.092c0.004,0.03,0.017,0.055,0.031,0.066l0.082,0.098
		l0.073-0.059l0.061-0.008h0.004l0.004,0.008l0.039,0.012c0.012,0,0.023-0.004,0.036-0.016l0.035-0.053l-0.009-0.03
		c0.009-0.013,0.021-0.021,0.035-0.027h0.095c0.016,0.009,0.026,0.005,0.026-0.004c0.013-0.028,0.023-0.04,0.035-0.048
		c0.012,0,0.031,0.004,0.045,0.016c0.026,0.024,0.047,0.045,0.047,0.071l-0.008,0.071l0.016,0.012
		c0.022,0.02,0.039,0.039,0.039,0.055l-0.017,0.07c-0.012,0.039-0.022,0.066-0.038,0.075v-0.005l-0.061,0.127l0.021,0.008
		l0.094,0.004l0.021,0.008l-0.008,0.016c-0.013,0.039-0.017,0.066-0.013,0.086c0.031,0.021,0.052,0.031,0.062,0.021l0.055-0.022
		l0.027-0.012h0.051l0.053-0.056v-0.065c-0.006-0.024,0-0.041,0.008-0.053C11.164,12,11.195,12,11.243,12.027l0.095,0.061
		c0.03,0.023,0.055,0.031,0.069,0.031v-0.004c0.008-0.017,0-0.047-0.021-0.088l-0.051-0.078v-0.008h0.004l0.004-0.008
		c0.051-0.07,0.105-0.095,0.17-0.07l0.146,0.065l0.06-0.039h0.004v-0.004v-0.004l-0.008-0.008l0.004-0.004l0.004-0.009
		c0.047-0.078,0.062-0.137,0.047-0.168c-0.012-0.027-0.031-0.039-0.047-0.039H11.71l-0.007-0.041h0.008
		c0.027-0.014,0.043-0.024,0.047-0.041l-0.012-0.02l-0.062-0.059l0,0V11.49l-0.03-0.086c-0.013-0.067-0.021-0.127-0.013-0.183
		v-0.038l-0.039,0.034l-0.035,0.039l-0.012-0.164l0,0v-0.008h0.004c0.086-0.126,0.146-0.201,0.164-0.222l-0.039-0.116
		c-0.012-0.06-0.02-0.095-0.02-0.11l-0.07-0.031L11.557,10.596z"/>
	<path fill="#509BC2" d="M10.19,9.138l-0.005,0.015l0.021,0.023l0.102,0.071l0,0v0.004h0.004l0.062,0.071L10.367,9.33l-0.039,0.047
		l-0.004,0.004L10.32,9.389h-0.066l-0.039,0.004L10.188,9.42L10.2,9.455v0.004l0.004,0.039l0.035,0.052v0.004v0.11l0.03,0.012
		l0.056,0.016h0.004l0,0l0.004,0.004l0.005,0.004l0.051,0.07v0.004l0,0l0.026,0.07v0.004l0,0v0.049
		c-0.004,0.026-0.012,0.051-0.021,0.065c-0.02,0.028-0.055,0.052-0.108,0.075l-0.134,0.078h-0.004l-0.244,0.017l-0.016,0.06
		l0.043,0.078v0.004v0.004l0.012,0.104l0.133,0.156h0.004l0,0v0.004l0.057,0.091l0.004-0.012v-0.005l0.043-0.121l0,0l0.004-0.004
		l0,0l0.078-0.103l0.004-0.004l0.099-0.047h0.008l0.062,0.039l0.084-0.009l-0.027-0.139l0.016-0.004l0.075-0.008l0.078,0.004h0.009
		v0.004l0.156,0.071l0.135,0.028h0.004l0,0h0.004l0.043,0.031l0.062,0.022v0.004l0,0l0,0l0,0l0.039,0.035l0.022,0.008l0.045-0.039
		v-0.004l0.066-0.051l0.035-0.067l0.062,0.035v0.004v0.004l0.016,0.053v0.012l-0.008,0.031l0.004,0.009l0.039-0.021l0.055-0.055
		h0.053v0.004h0.004l0.034,0.023c0.023,0.022,0.032,0.043,0.023,0.062l-0.005,0.088l0.024,0.043l0.009,0.005
		c0.094-0.103,0.155-0.152,0.194-0.152h0.106l0.023-0.051L12,10.316h0.004l0.103-0.008l0.106-0.055V10.25h0.066l-0.012-0.032
		l0.004-0.008l0.016-0.017l-0.146-0.311V9.876l-0.004-0.004L12.2,9.786L12.18,9.766l-0.105-0.02h-0.012l0,0V9.738l-0.066-0.069
		L12,9.652l-0.004,0.004l-0.004,0.005l-0.059-0.04c-0.028,0.035-0.057,0.06-0.088,0.066c-0.027,0.012-0.07-0.02-0.129-0.091
		l-0.031-0.038c-0.004-0.009-0.031,0-0.074,0.016c-0.067,0.022-0.11,0.027-0.13,0.016C11.46,9.57,11.453,9.529,11.46,9.48
		c0.005-0.043,0-0.066-0.008-0.078l-0.51-0.027c-0.048-0.02-0.087-0.039-0.106-0.059l-0.078-0.021
		c-0.031-0.013-0.091-0.063-0.168-0.162l-0.052,0.043l-0.075-0.024L10.25,9.156l0,0l0,0L10.19,9.138z"/>
	<path fill="#EAECEA" d="M12.756,12.566c0.035-0.004,0.055-0.02,0.062-0.039v-0.004l0.004-0.012h0.016l0.071-0.004v-0.051
		c-0.021,0-0.039-0.008-0.06-0.023l-0.117-0.105v-0.004l-0.051-0.149l-0.07-0.069c-0.087-0.004-0.154-0.004-0.201,0l-0.016,0.004
		l0.004,0.047v0.008v0.012h-0.012l-0.062,0.027l-0.012-0.008c-0.051-0.051-0.084-0.07-0.104-0.06
		c-0.138,0.066-0.216,0.099-0.238,0.082c-0.017,0.004-0.035,0.021-0.063,0.047l-0.013,0.017l-0.016-0.017
		c-0.039-0.034-0.06-0.065-0.06-0.09c0-0.017,0.028-0.047,0.075-0.098c0.056-0.063,0.082-0.099,0.082-0.106l-0.012-0.021
		c-0.016-0.008-0.047,0.01-0.086,0.041c-0.039,0.027-0.063,0.039-0.08,0.035c-0.008,0-0.016-0.013-0.02-0.031l-0.004-0.008
		l-0.035-0.063l-0.074,0.048l-0.008,0.008l-0.004-0.008H11.65c-0.055-0.031-0.106-0.052-0.157-0.07
		c-0.036-0.013-0.071,0.004-0.106,0.047l0.035,0.06c0.023,0.06,0.035,0.099,0.023,0.126c-0.004,0.012-0.016,0.023-0.031,0.023
		c-0.023,0.008-0.059,0-0.102-0.035c-0.035-0.023-0.062-0.043-0.086-0.055l-0.049-0.021v0.004l0,0l0.004,0.01v0.086l-0.062,0.069
		v0.065l0.027,0.072l0.005,0.004l-0.044,0.066l-0.027,0.062v0.004l-0.059,0.059l-0.098,0.225l0.004,0.121l-0.004,0.004L10.71,13.02
		l-0.012,0.022l0.026,0.063v0.004v0.004l-0.02,0.082l-0.086-0.012l-0.02,0.104h-0.11l-0.022,0.039l0,0l-0.033,0.067l-0.02,0.246
		l0.023,0.053l0.004,0.008v0.051l0.048,0.061l0.004,0.008v0.047l0.126-0.008l0.008-0.013v-0.004h0.004v-0.004l0.035-0.047
		l-0.078-0.071l-0.008-0.008l-0.043-0.036l-0.004-0.004l-0.005-0.004v-0.076h0.067l0.008-0.026l-0.027-0.078h0.152l0.271-0.131
		l0.035-0.06l0.008-0.021l0.056,0.023h0.004l0.004,0.012l0.023,0.028l0.027-0.005l-0.008-0.059h0.091l0.086,0.016l0.035-0.059
		l0.004-0.004v-0.004l0.008-0.005l0.095-0.026l0.017-0.139l0.099,0.088l0.039,0.008l0.02-0.023l-0.008-0.298v-0.009v-0.016
		l0.066,0.012h0.004l0.008,0.004l0.004,0.005l0.105,0.192l0.135-0.017l0.023-0.008l0.02-0.048l-0.039-0.031L11.947,12.9l0.09-0.031
		l0.008-0.004l0.004-0.004l0.035,0.039l0.031-0.017v-0.06l0.02-0.004h0.067c0.047,0.004,0.083,0.027,0.11,0.062l0.008,0.016
		l0.027-0.094c0.016-0.023,0.047-0.027,0.094-0.008l0.008,0.004v0.004l0.004,0.004c0.004,0.004,0.012,0.008,0.016,0.008
		c0.021-0.008,0.092-0.055,0.205-0.146C12.674,12.613,12.705,12.583,12.756,12.566z"/>
	<path fill="#80C3E2" d="M12.771,10.266l-0.004-0.004l-0.086-0.074l-0.047,0.022c-0.033,0.071-0.076,0.114-0.131,0.135
		c-0.017,0.009-0.035,0.004-0.048-0.008c-0.016-0.021-0.008-0.063,0.021-0.131l-0.129,0.083l-0.004,0.008H12.34h-0.115l-0.103,0.052
		v0.009l-0.108,0.004l-0.06,0.031l-0.026,0.055l-0.009,0.008h-0.131c-0.022,0-0.073,0.039-0.155,0.121
		c0.039,0.017,0.059,0.031,0.065,0.044l0.004,0.022v-0.004l0.06,0.221l0,0l0.004,0.012v0.016h-0.004l-0.008,0.004h-0.005
		l-0.155,0.217l0.008,0.056c0.022-0.021,0.043-0.023,0.059-0.017c0.02,0.008,0.027,0.039,0.02,0.086
		c-0.008,0.076,0.004,0.158,0.039,0.236l0.056,0.059c0.02,0.021,0.026,0.039,0.022,0.06l-0.027,0.04l0.035,0.047
		c0.021,0.04,0.004,0.105-0.043,0.2l0.051,0.087l0.009,0.02l0.032-0.02c0.051-0.048,0.095-0.061,0.13-0.048
		c0.022,0.008,0.034,0.026,0.039,0.048c0.004,0.027-0.027,0.074-0.099,0.146l-0.056,0.069l0.026,0.043
		c0.041-0.034,0.072-0.047,0.092-0.039c0.023,0,0.09-0.022,0.204-0.081c0.034-0.021,0.083,0,0.142,0.059l0.023-0.012L12.352,12.1
		l-0.012-0.009c-0.009-0.012,0-0.022,0.012-0.035l-0.021-0.075c-0.004-0.012-0.004-0.027,0-0.039
		c0.013-0.013,0.027-0.021,0.043-0.027l0.035-0.031l-0.021-0.047v-0.004h0.004v-0.004c0.017-0.023,0.017-0.043,0.013-0.055
		c-0.017-0.027-0.004-0.047,0.026-0.076l0.043-0.039l-0.008-0.008l-0.012-0.012l0.051-0.023v-0.062c0-0.023,0.021-0.055,0.075-0.094
		l0.024-0.02l0,0l-0.061-0.066c-0.02-0.028-0.012-0.062,0.023-0.1v-0.011l0.122-0.102l0.004-0.027
		c-0.022-0.008-0.031-0.051-0.021-0.116c0.017-0.107,0.062-0.158,0.146-0.171l0,0h0.008l0.052,0.027h0.055l0.053-0.062l0,0l0,0
		l0.004-0.004l0.062-0.039l-0.009-0.056v-0.012l0.009-0.009l0.016-0.008l0.02-0.023l0.004-0.004l-0.039-0.066
		c-0.039-0.052-0.074-0.1-0.098-0.152c-0.021-0.035-0.018-0.074,0.012-0.119l-0.07-0.043L12.771,10.266z"/>
	<path fill="#215F8B" d="M13.094,10.792l-0.008,0.004l-0.066,0.047l-0.059,0.065h-0.004v0.009H12.87l0,0l-0.048-0.027
		c-0.059,0.017-0.09,0.056-0.102,0.132l-0.004,0.065l0.047-0.043l-0.031,0.129v0.004v0.004l-0.131,0.114
		c-0.02,0.023-0.026,0.043-0.02,0.055l0.024,0.028c0.026,0.022,0.043,0.043,0.038,0.06c0,0.012-0.004,0.022-0.012,0.03l-0.082,0.07
		c0.004,0.021,0.004,0.051,0,0.087v0.012l-0.004,0.004l-0.031,0.012c0,0.021-0.01,0.031-0.028,0.052l-0.043,0.044v0.004
		c0.008,0.02,0.008,0.043-0.009,0.078c0.021,0.039,0.021,0.066,0,0.078l-0.038,0.039l-0.009,0.004l-0.02,0.009v0.008l0.027,0.095
		h0.008c0.066-0.008,0.138-0.008,0.217,0h0.008v0.004l0.086,0.086v0.004h0.004l0.051,0.146l0.106,0.1l0.043,0.016l0.005-0.123
		l0.099,0.1l0.016-0.017l0.07-0.146l0.012-0.082l0.013,0.004h0.008l0.074,0.004l-0.004-0.06v-0.012v-0.008h0.012l0.1,0.004
		c0.051-0.052,0.074-0.095,0.074-0.132l-0.016-0.141l0.086,0.027l0.022-0.039L13.45,11.76l-0.013-0.016l0.078-0.079l0.004,0.008
		h0.009l0.048,0.026v-0.012l-0.032-0.07l0.013-0.012l0.021-0.013l-0.008-0.026l-0.04-0.074l0.008-0.004l0.008-0.008l0.107-0.06
		l0.004-0.043c-0.091-0.048-0.139-0.087-0.131-0.106c0.004-0.017,0.012-0.021,0.031-0.021l0.119,0.021l0.004-0.07v-0.008l0.059-0.06
		l0.016-0.043c-0.022-0.008-0.039-0.022-0.055-0.039l-0.004-0.008v-0.008l0.004-0.021l-0.004-0.009l-0.008-0.004l-0.004,0.004
		c-0.008,0.017-0.027,0.028-0.057,0.028c-0.043,0-0.078-0.021-0.105-0.049v-0.004h-0.004l-0.031-0.055l-0.008,0.008
		c-0.004,0.023-0.021,0.047-0.047,0.066c-0.051,0.023-0.099,0.031-0.146,0.013c-0.031-0.013-0.051-0.036-0.062-0.071l-0.012-0.078
		c-0.013-0.074-0.027-0.117-0.052-0.129c-0.022-0.017-0.047-0.021-0.065-0.017l0.004,0.066L13.094,10.792z"/>
	<path fill="#215F8B" d="M13.715,9.669c-0.043,0.021-0.078,0.035-0.105,0.039c-0.023,0-0.062-0.009-0.118-0.027l-0.09-0.012
		c-0.027,0.012-0.06,0.051-0.103,0.117l0.06,0.126L13.26,9.967h-0.004l-0.08-0.023c0.032,0.06,0.041,0.095,0.028,0.109l-0.009,0.031
		c-0.02,0.047-0.035,0.074-0.051,0.09l-0.137,0.122l0.034,0.021l-0.022,0.021c-0.031,0.026-0.039,0.06-0.023,0.082l0.094,0.146
		h0.004v0.004l0.043,0.078v0.004l0.004,0.004l-0.004,0.009v0.009v0.004l-0.008,0.008c0.021,0,0.035,0.008,0.055,0.021
		c0.033,0.02,0.057,0.073,0.067,0.155l0.017,0.08c0.008,0.02,0.016,0.03,0.035,0.039c0.031,0.016,0.07,0.012,0.105-0.013
		c0.02-0.012,0.031-0.022,0.027-0.035l-0.004-0.004v-0.009l0.065-0.047l0.009,0.008l0.051,0.087c0.021,0.017,0.039,0.022,0.07,0.022
		l0.021-0.004l0,0l-0.018-0.047l0.075,0.031h0.021h0.004l0.004,0.008l0.07,0.057l0.02-0.032l-0.004-0.134l0.004-0.004l0,0
		l0.047-0.06c0.004-0.008,0-0.022-0.02-0.043l-0.012-0.012l0.008-0.009l0.004-0.008l0.012-0.004l0.1-0.162l0.008,0.004l0.021,0.004
		l0.008,0.006v0.008l-0.008,0.062h0.008l0.109-0.1L14.1,10.5h-0.02l-0.039,0.004l0.066-0.18l-0.059-0.01l0,0H14.04v-0.008
		l-0.021-0.023c-0.012-0.022-0.012-0.043,0.005-0.062l0.094-0.004h0.06c0-0.02-0.013-0.055-0.047-0.113l-0.082-0.026l0.086-0.082
		V9.975l-0.043,0.01h-0.017V9.979l-0.004-0.004l-0.004-0.008c-0.013-0.039-0.035-0.07-0.07-0.083L13.84,9.888l-0.066,0.079v0.004
		l-0.02-0.004l-0.248-0.079l0.239-0.062c0.017,0,0.056-0.039,0.121-0.117L13.784,9.65L13.715,9.669z"/>
	<path fill="#80C3E2" d="M12.779,8.984h-0.004V8.982c-0.043-0.15-0.082-0.232-0.109-0.244l-0.138-0.047
		c-0.079-0.023-0.134-0.039-0.157-0.056c-0.039-0.022-0.09-0.079-0.148-0.17h-0.023l0.004,0.004
		c0.008,0.031,0.039,0.087,0.105,0.166l0.004,0.004l0.005,0.009l-0.063,0.112c-0.023,0.043-0.048,0.062-0.07,0.056
		c-0.017-0.008-0.049-0.043-0.1-0.109l-0.066-0.02c0,0.02,0.013,0.059,0.039,0.121v0.004v0.004V8.82v0.002l-0.012,0.045l-0.07,0.031
		l0,0l-0.022,0.008c-0.012,0.012-0.012,0.031-0.008,0.056c0.008,0.06,0.004,0.094-0.009,0.108c-0.008,0.009-0.012,0.009-0.021,0.009
		h-0.003l0,0l-0.079-0.015c0.005,0.016,0.017,0.03,0.035,0.043c0.039,0.035,0.071,0.086,0.103,0.146l0.004,0.012l0,0l0.035-0.008
		c0.043-0.008,0.082,0,0.121,0.026l0.045,0.053L12.18,9.34v0.003h-0.004L12.17,9.445c0.014,0.016,0.021,0.035,0.014,0.051
		c-0.008,0.02-0.024,0.031-0.053,0.035c-0.031,0-0.047,0.021-0.055,0.06l0,0l0,0v0.004l-0.031,0.067l0.047,0.047l0.104,0.02h0.008
		l0,0l0.051,0.055l-0.062,0.095l0.146,0.313l0.004,0.008l-0.022,0.027l0.008,0.024h0.004l0.267-0.169l-0.043,0.078
		c-0.035,0.059-0.056,0.109-0.062,0.146c0.048-0.02,0.087-0.055,0.109-0.118l0.005-0.008h0.005l0.074-0.039l0.004-0.008l0.104,0.094
		l0.118,0.004l0.004,0.004l0.057,0.037l0.145-0.127c0.012-0.012,0.023-0.035,0.039-0.074l0.016-0.03
		c0.004-0.017-0.016-0.056-0.055-0.122l-0.035-0.053l0.174,0.061l0.051-0.027l-0.051-0.109l-0.005-0.004l0.087-0.113l-0.039-0.059
		c-0.035-0.039-0.06-0.06-0.074-0.06l-0.008,0.005l-0.045,0.043l-0.008-0.005h-0.008l-0.07-0.022l-0.02-0.063
		c-0.027-0.004-0.055-0.021-0.078-0.047l-0.044-0.026c-0.035-0.017-0.056-0.035-0.056-0.056c-0.008-0.022,0-0.051,0.023-0.086
		c0.044-0.063,0.066-0.115,0.066-0.153V9.091l0.027,0.004l0.09,0.004c0.008-0.008,0.021-0.047,0.035-0.116l-0.027-0.004
		c-0.062,0.043-0.108,0.069-0.145,0.082c-0.044,0.012-0.099-0.013-0.178-0.066V8.988L12.779,8.984z"/>
	<path fill="#666766" d="M12.352,6.353L12.34,6.345c-0.021,0-0.039,0.02-0.06,0.062l-0.013-0.008l-0.002,0.004l0.004,0.004
		l-0.036,0.036l-0.017,0.008l-0.043,0.023l-0.005,0.027c0.005,0.044-0.008,0.075-0.026,0.087l-0.017,0.047
		c-0.004,0.012-0.008,0.043-0.004,0.086l0.022,0.118c0.009,0.016,0.029,0.035,0.068,0.052l0.09,0.023
		c0.023,0,0.056-0.012,0.09-0.035L12.37,6.835V6.828V6.824l0.009-0.035V6.784l0.043-0.078h0.073l0.021-0.004
		c-0.008-0.023-0.031-0.066-0.074-0.121l-0.027-0.039c-0.016-0.032-0.031-0.067-0.035-0.115C12.371,6.392,12.359,6.368,12.352,6.353
		z"/>
	<path fill="#023057" d="M11.994,6.204l-0.008,0.012l-0.012-0.004l-0.051-0.008l-0.005,0.023v0.012h-0.013L11.823,6.27l-0.004,0.012
		c-0.013,0.027,0,0.051,0.028,0.082l0.008,0.008l-0.008,0.012c-0.024,0.039-0.061,0.079-0.1,0.106
		c-0.016,0.012-0.02,0.023-0.02,0.035l0.027,0.036l0.043,0.016l0.035,0.004c0.047,0,0.078,0.004,0.092,0.023l0.039,0.027
		c0.026,0.012,0.051,0.02,0.069,0.02c0.017,0,0.035-0.012,0.051-0.043l0.031-0.035l0.022-0.075l-0.02-0.087l0.031,0.008l0.052,0.004
		l0.022-0.016l0.009-0.02l-0.039-0.113l0.012-0.039c0.013-0.023,0.027-0.031,0.043-0.035h0.005l-0.009-0.028L12.15,6.176V6.172
		l-0.082-0.059c-0.035-0.024-0.07-0.028-0.102-0.02l-0.012,0.009c-0.008,0.016,0,0.031,0.023,0.039
		C11.998,6.156,12.006,6.176,11.994,6.204z"/>
	<path fill="#509BC2" d="M13.459,5.206l-0.047,0.062C13.404,5.28,13.4,5.303,13.408,5.342v0.023h-0.094h-0.004l0,0l-0.067-0.02
		l-0.052,0.079l-0.008,0.01l-0.062,0.039l-0.055,0.06l0,0l-0.008,0.012l0,0L12.96,5.658v0.004h-0.004l-0.075,0.039l-0.06-0.039
		V5.657l0,0l0,0l-0.056-0.059l-0.034-0.02l0.026,0.16l0.023,0.087l-0.059,0.056l-0.08,0.122v0.051l-0.004,0.004h-0.004l-0.021,0.031
		l0.017,0.028h0.03l0.113,0.031h0.004h0.004v0.004h0.004l0.022,0.023l0.031,0.017l0,0h0.008v0.004
		c0.014,0.016,0.021,0.031,0.021,0.047l0.012,0.035l0.123,0.035l0.034-0.008l0.035-0.047l0.094-0.182h0.005V6.073l0.043-0.059
		l0.004-0.004l0.074-0.035l0.053-0.004c0.02-0.031,0.035-0.047,0.055-0.047c0.012,0,0.031,0.008,0.062,0.023l0.008,0.004v0.004
		l0.065,0.102v0.004h0.004v0.008l0.009,0.075l-0.005,0.083l0,0l-0.02,0.07l0,0v0.008H13.52l-0.051,0.062l-0.022,0.051l0.004,0.087
		h0.008l0.027-0.012l0.03-0.027l0.009-0.008l0.004-0.008l0.04,0.035v0.004v0.063h-0.004l-0.036,0.016l-0.013,0.016v0.035
		l-0.002,0.005l0,0L13.49,6.667h-0.004l-0.008,0.004l-0.031,0.004l-0.031,0.008l-0.023,0.043l0.005,0.008l0.129-0.016l0.024-0.02
		l0.043-0.113l0,0l0.289-0.299h0.01l0.062-0.031l0.004-0.004v0.004h0.052l0.051-0.012l0.056-0.023l0.039-0.044l0.062-0.173l0,0
		V5.999l0.244-0.256V5.739l-0.016-0.136c-0.012-0.004-0.027-0.012-0.035-0.023l-0.008-0.008v0.004l-0.039,0.003
		c-0.02-0.008-0.032-0.016-0.048-0.035l-0.013-0.023V5.517l-0.002-0.004V5.3c-0.023-0.008-0.047-0.023-0.076-0.051l-0.051-0.055
		l-0.047-0.067c-0.008-0.016-0.008-0.039-0.004-0.075l0.004-0.02L14.1,4.997l-0.004,0.031l-0.035,0.067h-0.012
		c-0.026,0-0.059-0.004-0.082-0.016c-0.023-0.008-0.035-0.028-0.035-0.052V5.013h-0.021l-0.075,0.02l-0.055-0.055l-0.02-0.004
		l-0.021,0.021l0.022,0.039l0.009,0.012l-0.039,0.083h-0.005v0.004h-0.004l-0.069,0.079l-0.004,0.004h-0.009l-0.109,0.011
		L13.459,5.206z"/>
	<path fill="#043960" d="M13.545,4.003l-0.016-0.082L13.49,3.944h-0.004l-0.094,0.035l-0.004-0.008l-0.016-0.003v0.043l-0.004,0.004
		l-0.047,0.071h-0.004V4.09h-0.004l-0.071,0.06h-0.008v0.008L13.223,4.15c-0.047-0.02-0.078-0.044-0.086-0.063
		c-0.008-0.008-0.013-0.008-0.021-0.012l-0.051,0.008l-0.03,0.03l0.082,0.071l0.066,0.027l0.004,0.004h0.004l0.004,0.008v0.004
		l0.013,0.078h0.005v0.122l0.016,0.071l0.047,0.109l0.056,0.051l0.043-0.031l0.031-0.039V4.585h0.004l0.056-0.066l0.047,0.043v0.004
		l0,0l0,0V4.57l0.047,0.09l0.06,0.023l0.032,0.095v0.004v0.004l-0.004,0.087v0.004h-0.004l-0.024,0.078l0.044,0.039l0.047-0.023
		l0.047-0.047l0.012,0.008l0.039,0.012l0,0l0,0l0.047,0.043l0.053-0.012c0.039-0.012,0.059,0,0.07,0.027v0.035l0.008,0.004
		l0.056,0.016l0.022-0.051v-0.02c0-0.016,0.005-0.031,0.017-0.035l0.031,0.004c0.043,0.02,0.062,0.047,0.062,0.078L14.168,5.06
		v0.048l0.043,0.063l0.053,0.055c0.016,0.02,0.035,0.027,0.055,0.035h0.008c0.014,0.008,0.021,0.027,0.021,0.07v0.178
		c0.008,0.016,0.02,0.027,0.031,0.031h0.008c0.022-0.012,0.039-0.008,0.059,0.012l0.012,0.008c0.02,0.004,0.035,0.02,0.039,0.051
		l0.008,0.098l0.092-0.184c0.026-0.099,0.059-0.158,0.103-0.166c0.035-0.012,0.09,0.008,0.16,0.047l0.256,0.021l0.008-0.056
		l-0.118-0.113c-0.055-0.031-0.078-0.055-0.07-0.07l0.091,0.004c0.083,0.027,0.161-0.02,0.235-0.154l0,0h0.004l0.086-0.082
		l0.013-0.181v-0.02h0.013h0.008l0.066-0.016h0.012l0.008,0.004v0.004l0.138,0.146l0.04-0.016l0.008-0.023l-0.075-0.071
		l-0.012-0.008l-0.015-0.013l0.114-0.067l-0.008-0.164l-0.048,0.008l0,0h-0.004l-0.062-0.031c-0.022-0.004-0.055-0.02-0.102-0.048
		c-0.023-0.012-0.039-0.023-0.039-0.039v0.004c0,0.016-0.004,0.023-0.012,0.027c-0.012,0.008-0.027,0.012-0.057,0.012h-0.003
		L15.329,4.46h-0.004L15.27,4.421L15.223,4.46c-0.023,0.021-0.039,0.036-0.039,0.052l0.022,0.051
		c0.013,0.016,0.013,0.023,0.009,0.035c-0.009,0.012-0.027,0.023-0.056,0.027l-0.022,0.012c-0.027,0.008-0.052,0.004-0.066-0.016
		l-0.008-0.012L14.96,4.503c-0.048-0.016-0.075-0.036-0.087-0.06c-0.008-0.012-0.012-0.023-0.008-0.031
		c-0.004-0.035-0.012-0.06-0.02-0.071l-0.021,0.012l-0.004,0.008c0,0.012,0.004,0.024,0.017,0.04l0.004,0.008l0.004,0.004
		l-0.004,0.008l-0.056,0.091l-0.09-0.02L14.676,4.48l0,0V4.467c0.008-0.016,0.008-0.035,0-0.055l-0.013-0.031L14.59,4.325
		l-0.005-0.004c-0.009,0.012-0.017,0.012-0.024,0.016l-0.069-0.008c-0.022-0.004-0.039-0.008-0.047-0.023
		c-0.004-0.008-0.004-0.023,0.004-0.043l0.004-0.012l-0.03-0.055l-0.139,0.008c0.004,0.02,0,0.031-0.008,0.047
		c-0.004,0.012-0.02,0.016-0.031,0.016c-0.021,0.008-0.044,0-0.062-0.02V4.243h-0.004c-0.031-0.035-0.043-0.062-0.043-0.086
		l-0.027-0.04l-0.039,0.028c-0.035,0.02-0.059,0.02-0.07,0.004l-0.017-0.004l-0.039,0.004l-0.106,0.035
		c-0.023,0.016-0.043,0.02-0.059,0.02h-0.012c-0.039,0-0.062-0.012-0.078-0.027l-0.063-0.051L13.545,4.003z"/>
	<path fill="#509BC2" d="M15.989,3.265L15.93,2.88l0.004-0.008h0.004c0.027-0.043,0.044-0.078,0.035-0.105l-0.016-0.024
		c-0.044-0.027-0.062-0.09-0.052-0.196H15.87c-0.026-0.004-0.06,0.008-0.09,0.027c-0.031,0.023-0.052,0.051-0.056,0.07
		c-0.016,0.048-0.066,0.079-0.153,0.107l-0.021,0.121v0.004L15.547,2.88l-0.043,0.078L15.5,2.966h-0.004h-0.004l-0.389,0.071H15.1
		h-0.012V3.029l-0.115-0.122l0.035-0.035l-0.043-0.059l-0.056-0.039L14.905,2.77h-0.004V2.767V2.763l-0.021-0.106l-0.098,0.007
		l-0.008-0.008l-0.086-0.052l-0.311-0.055l-0.261-0.012L14.11,2.545c-0.013,0-0.021-0.004-0.022-0.012l-0.15-0.338
		c-0.014-0.026-0.078-0.112-0.203-0.262c-0.118-0.145-0.186-0.223-0.205-0.239l-0.219-0.216l-0.036-0.02L13,1.454h-0.004
		l-0.008-0.008c-0.027-0.02-0.066-0.039-0.126-0.051c-0.052-0.02-0.169,0.02-0.354,0.117L12.5,1.516l0.008,0.055h0.004v0.004h-0.004
		v0.008l-0.031,0.063V1.65h-0.004l-0.004,0.043c0,0.036,0.008,0.075,0.021,0.106l0.028,0.02l0.059-0.004l0.053,0.012l0.02-0.016
		c0-0.035,0.012-0.062,0.027-0.07h0.039l0.137,0.039l0.031,0.004L12.84,1.858v0.09c0,0.021,0.035,0.067,0.105,0.135
		c0.044,0.031,0.07,0.047,0.095,0.051l0.021-0.004l0.02-0.008l0.066-0.067l0.051-0.031V2.02l0,0l0.107-0.016l0.03-0.067l0.095-0.055
		l0.082,0.047v0.004l0.008,0.004l0.078,0.135l0.031,0.09v0.011l-0.016,0.109l0.031,0.075v0.012l-0.023,0.087v0.078
		c0.023,0.07,0.036,0.118,0.036,0.13L13.649,2.73l0,0v0.004l-0.04,0.056v0.004l0,0l0,0L13.57,2.841l-0.004,0.086l0.023,0.091l0,0
		l0.004,0.004L13.59,3.026l0,0l-0.024,0.137l-0.021,0.02c-0.016,0.012-0.034,0.012-0.059,0h-0.009l-0.033-0.039l-0.039,0.012
		L13.354,3.21l-0.055,0.161v0.004l-0.006,0.004l-0.055,0.047H13.23L13.198,3.43l-0.062,0.091l0.03,0.059l0.009,0.008l0.078,0.098
		v0.005v0.031l0.088,0.012l0.016,0.079v0.004l0.012,0.094l0.023,0.02l0.078-0.023l0.073-0.043l0.013-0.008l0.027,0.133l0.035,0.052
		l0.008,0.004l0.028,0.055l0.06,0.048c0.008,0.012,0.026,0.012,0.047,0.012l0.02,0.004l0.035-0.016
		c0.027-0.012,0.055-0.024,0.087-0.028l0.022-0.012l0.056-0.004c0.021,0,0.028,0.004,0.04,0.016L14.1,4.07h0.008l0.008,0.004
		l0.004-0.004l0.008,0.008c0.031,0.035,0.047,0.067,0.047,0.083l0.035,0.059l0.028,0.008h0.004h0.004L14.237,4.22
		c-0.005-0.02-0.005-0.031,0-0.039c0.008-0.012,0.022-0.02,0.047-0.02l0.146-0.004l0.004-0.007h0.008v0.008h0.008l0.043,0.082
		l-0.004,0.043h-0.004l0.055,0.012h0.004c-0.004-0.012-0.004-0.02,0.004-0.027l0.021-0.004l0.131,0.09
		c0.012,0.012,0.021,0.028,0.022,0.048l0.004,0.055l0.043,0.008l0.027-0.047c-0.012-0.023-0.02-0.048-0.016-0.063
		s0.008-0.027,0.023-0.035l0.012-0.012c0-0.008,0.004-0.012,0.012-0.016l0.035,0.004c0.02,0.012,0.035,0.051,0.043,0.118v0.008
		l0.008,0.004c0.004,0.016,0.028,0.027,0.062,0.039h0.004l0.005,0.004l0.126,0.13l0,0l0.059-0.02l-0.008-0.02
		c-0.016-0.02-0.02-0.039-0.02-0.051c0-0.027,0.02-0.056,0.059-0.083l0.066-0.06l0.078,0.056h0.017l0.017-0.087V4.317l0.016-0.004
		l0.062,0.008c0.012,0.012,0.02,0.023,0.02,0.043c0,0.017-0.012,0.036-0.022,0.052l0.013,0.008c0.039,0.02,0.069,0.035,0.094,0.039
		h0.004l0,0l0.051,0.028l0.04-0.004L15.594,4.2c-0.039-0.023-0.074-0.07-0.109-0.126c-0.027-0.048-0.012-0.114,0.051-0.192
		c0.035-0.039,0.078-0.078,0.126-0.118l0,0l0.004-0.008h0.056l0.004,0.008l0.048,0.021h0.098c0.039-0.021,0.074-0.079,0.114-0.174
		C16.006,3.556,16.006,3.442,15.989,3.265z"/>
	<path fill="#509BC2" d="M13.723,7.174l-0.008,0.004c0,0.02-0.013,0.031-0.031,0.031l-0.154-0.016
		c-0.105-0.02-0.176-0.035-0.211-0.055l-0.217,0.205l0.008,0.086v0.008l-0.02,0.004c-0.17,0.023-0.261,0.008-0.271-0.047
		l-0.02-0.243l-0.197-0.012L12.52,7.312l-0.008-0.074c-0.004-0.06-0.017-0.095-0.027-0.103l-0.086,0.043L12.359,7.23l-0.004,0.004
		h-0.004l-0.078,0.027c-0.088,0.07-0.162,0.145-0.229,0.224l-0.208,0.282l0.043,0.099v0.016l0,0l-0.004,0.004
		c-0.016,0.023-0.008,0.06,0.016,0.099c0.028,0.051,0.049,0.105,0.049,0.168v0.01l-0.17,0.1v0.039l0.078,0.035
		c0.009,0.004,0.013,0.012,0.013,0.016v0.008c-0.004,0.02,0.026,0.047,0.087,0.074l0.145,0.039l0.043-0.027l0.049-0.066l0.039-0.113
		l0.113,0.043l0.016,0.012v0.008l0,0v0.002c-0.02,0.047-0.008,0.078,0.027,0.098l0.125,0.004c0.045-0.008,0.079-0.023,0.104-0.043
		c0.016-0.02,0.039-0.023,0.073-0.02c0.043,0.008,0.082,0.023,0.109,0.059l0.027-0.066l0.008-0.012h0.004
		c0.02-0.012,0.032-0.031,0.049-0.059c0.012-0.027,0.03-0.056,0.062-0.075l0.056-0.031L13,8.184l0.004,0.004h0.004l0.031,0.008l0,0
		L13.047,8.2l0.043-0.196V7.999l0.062-0.012c0.062-0.043,0.095-0.079,0.091-0.11l-0.012-0.06c-0.017-0.039-0.017-0.066-0.009-0.078
		c0.013-0.012,0.021-0.016,0.031-0.016c0.027,0,0.061,0.008,0.092,0.023l0.008-0.062V7.677l0.004-0.004l0.066-0.031l0.008-0.035
		h-0.039l-0.008-0.004l0.004-0.02V7.571l0.004-0.009h0.013h0.008c0.027,0,0.06-0.016,0.095-0.047l0.248-0.177h0.008l0.078,0.035
		l0.03-0.004l-0.021-0.082V7.28l0.005-0.004l0.004-0.004l0.044-0.071l-0.014-0.008l-0.027,0.008v0.004h-0.004l-0.078,0.012h-0.02
		h-0.004V7.213l-0.004-0.012l-0.017-0.027H13.723z"/>
	<path fill="#215F8B" d="M14.072,9.511L14.1,9.48l0,0l0,0V9.477l-0.099-0.078c-0.052-0.035-0.095-0.047-0.127-0.043l-0.043,0.016
		v0.082c-0.008,0.027-0.021,0.059-0.047,0.082l-0.017,0.017l0.039,0.047h0.004l0.013,0.031L13.87,9.65
		c0.028-0.021,0.048-0.027,0.067-0.023l0.082,0.018l0.006-0.031C14.029,9.559,14.049,9.525,14.072,9.511z"/>
	<path fill="#80C3E2" d="M13.502,8.648c-0.043-0.035-0.078-0.1-0.113-0.198c-0.113,0-0.181-0.02-0.213-0.059
		c-0.022-0.035-0.069-0.059-0.137-0.078L13.02,8.31l0.02-0.067l-0.012-0.008l-0.02-0.004c-0.048,0.023-0.08,0.048-0.092,0.079
		c-0.016,0.031-0.035,0.059-0.06,0.078c-0.021,0.062-0.039,0.094-0.06,0.094c-0.012,0.004-0.02-0.004-0.027-0.016l-0.03-0.027
		c-0.022-0.012-0.047-0.023-0.065-0.023l-0.039,0.007c-0.026,0.027-0.066,0.047-0.127,0.055L12.36,8.47
		c-0.048-0.023-0.066-0.07-0.056-0.129l-0.056-0.02l-0.026,0.078l0,0v0.004l-0.004,0.004l-0.013,0.016l0.035,0.008h0.008
		l0.005,0.004v0.004c0.066,0.091,0.117,0.149,0.146,0.167c0.016,0.008,0.062,0.022,0.146,0.047l0.143,0.051
		c0.043,0.02,0.086,0.105,0.133,0.26c0.062,0.043,0.104,0.062,0.13,0.059c0.028-0.012,0.075-0.039,0.142-0.082l0.004-0.004
		L13.1,8.931l0.009,0.005l0.069,0.017h0.008v0.012l-0.004,0.013c-0.022,0.094-0.043,0.147-0.059,0.163l-0.094,0.005v0.004
		c0,0.039-0.027,0.099-0.079,0.174c-0.017,0.022-0.021,0.043-0.021,0.055l0.092,0.062c0.022,0.026,0.039,0.034,0.059,0.034h0.02
		L13.12,9.54l0.043,0.017l0.022-0.023c0.013-0.012,0.029-0.021,0.041-0.016c0.039,0,0.07,0.022,0.109,0.074l0,0l0.035,0.048
		l0.002-0.007c0.023-0.016,0.066-0.012,0.129,0.01l0.104,0.022L13.7,9.633l0.039-0.02l0.026-0.021l-0.022-0.026
		c-0.008-0.017,0-0.037,0.021-0.057c0.022-0.02,0.039-0.039,0.039-0.062V9.4c-0.009-0.022-0.004-0.039,0.004-0.047
		c0.008-0.016,0.035-0.022,0.065-0.031c0.052-0.008,0.114,0.017,0.188,0.078l-0.027-0.078l-0.043-0.06l-0.009-0.071L13.915,9.18
		h-0.004V9.177l0,0l0,0l-0.177-0.103l-0.086-0.016v-0.02l-0.004-0.09C13.585,8.783,13.537,8.684,13.502,8.648z"/>
	<path fill="#80C3E2" d="M12.822,6.232l-0.031-0.016l0,0h-0.004l-0.023-0.024L12.654,6.16h-0.027l-0.02,0.008l-0.045-0.083
		l0.005-0.004l0.03-0.039V5.995l0.004-0.008l0.021-0.031l-0.016-0.008l-0.061-0.012l0,0L12.444,5.92h-0.009l-0.059-0.059V5.859
		l-0.02-0.04l-0.004-0.012l0.031-0.083V5.665L12.383,5.65l-0.031,0.031l-0.004,0.004L12.34,5.697l-0.008-0.012L12.32,5.681
		l-0.059-0.047l-0.008-0.008V5.618l-0.013-0.086l-0.026-0.044l-0.061,0.004l-0.035,0.063l-0.004,0.008l-0.004,0.004l-0.094-0.02
		l-0.017,0.086v0.086l-0.004,0.004l-0.05,0.08v0.008l-0.008,0.004h-0.004l-0.061,0.004l-0.06,0.048l-0.009,0.008l0,0h-0.008
		l-0.004-0.004l-0.109-0.036l-0.016,0.04v0.004l-0.047,0.078c-0.008,0.016-0.02,0.023-0.031,0.027l-0.048-0.008l-0.061-0.028
		L11.471,5.94l-0.004-0.004V5.933l-0.013-0.095l-0.021-0.07l-0.012-0.021l-0.025,0.056l0,0l0,0L11.35,5.866l-0.039,0.09V5.96l0,0
		v0.004h-0.004l-0.035,0.051c0,0.016-0.012,0.039-0.035,0.074L11.26,6.18l0.116,0.13l0,0l0.039,0.082V6.4l-0.004,0.008h-0.004
		l-0.031,0.04l-0.008,0.008L11.29,6.472l0.009,0.062l0.059,0.032l0.086,0.02l0.023,0.078l0,0l0,0v0.004v0.004l-0.021,0.134l0,0V6.81
		l-0.031,0.059v0.013h-0.008l-0.099,0.016v0.039l-0.025,0.084l-0.012,0.098l0.02,0.056l0.121,0.075l0.004,0.004l0.051,0.086v0.003
		l0.004,0.004l-0.004,0.004l-0.062,0.138l-0.017,0.039l0,0L11.35,7.619l-0.016,0.07L11.33,7.697v0.004
		c-0.02,0.016-0.031,0.031-0.039,0.055c-0.004,0.008-0.004,0.016,0.004,0.023l0.004,0.004l0.039,0.044l0,0l0,0l0.021,0.031
		l0.008-0.004l0,0l0.004,0.012V7.87v0.012l0,0v0.004l0,0l0,0l0.009,0.023l0.034,0.013l0.142,0.031c0.049,0,0.092-0.012,0.139-0.031
		c0.047-0.021,0.09-0.024,0.138-0.017l0.009-0.027l-0.049-0.106l-0.006-0.009h0.004l0.225-0.311l0.24-0.231h0.004l0.074-0.027
		l0.039-0.043V7.147c0.031-0.024,0.059-0.04,0.09-0.052l-0.023-0.02l-0.051-0.051V7.021h-0.004l-0.039-0.047L12.34,6.966V6.958
		l0.021-0.023l-0.052,0.012L12.199,6.92c-0.044-0.02-0.07-0.044-0.079-0.071c-0.022-0.071-0.03-0.134-0.026-0.188
		c-0.017,0.02-0.035,0.023-0.056,0.023l-0.082-0.02L11.9,6.625l-0.067-0.016h-0.032c-0.02,0-0.043-0.008-0.059-0.023
		c-0.023-0.016-0.035-0.031-0.039-0.047c-0.008-0.032,0-0.052,0.027-0.071s0.059-0.052,0.086-0.091
		c-0.027-0.035-0.039-0.07-0.027-0.105l0.004-0.004c0.004-0.02,0.036-0.035,0.096-0.055c0.004-0.02,0.012-0.032,0.02-0.036
		l0.061,0.004L11.96,6.173c-0.038-0.023-0.052-0.051-0.03-0.083l0.03-0.023c0.035-0.012,0.078-0.008,0.121,0.016l0.091,0.063h0.082
		l0.028,0.023l0.008,0.032c0,0.02-0.012,0.031-0.026,0.031c-0.021,0-0.028,0.02-0.032,0.043l0.04,0.094
		c0.023-0.035,0.047-0.055,0.07-0.059c0.012,0,0.026,0.008,0.039,0.023c0.012,0.02,0.022,0.055,0.03,0.09
		c0.004,0.044,0.017,0.079,0.026,0.099l0.031,0.044c0.049,0.059,0.076,0.102,0.084,0.137l0.152-0.02l0.066-0.035l0.062-0.078
		l0.028-0.075V6.49V6.486l0.02-0.079V6.403l0.004-0.008h0.004l0.06-0.039l0.013-0.008l-0.004-0.004l-0.1-0.031H12.85V6.31
		l-0.021-0.059L12.822,6.232z"/>
	<path fill="#80C3E2" d="M10.846,8.446h-0.002l-0.299,0.123l-0.091,0.087c-0.017,0.133,0,0.212,0.047,0.234l0.087,0.056h0.004v0.004
		l0.023,0.146c0.074,0.099,0.125,0.149,0.152,0.161l0.086,0.02l0.013,0.004v0.004c0.013,0.017,0.04,0.031,0.091,0.048l0.235,0.012
		c0.173,0,0.271,0.013,0.291,0.031c0.021,0.016,0.022,0.055,0.021,0.112c-0.005,0.039,0,0.063,0.004,0.067l0.086-0.021
		c0.066-0.023,0.105-0.023,0.125-0.004l0.031,0.039c0.047,0.06,0.079,0.084,0.088,0.08c0.022-0.009,0.051-0.033,0.077-0.071
		l0.009-0.013l0.07,0.043l0.043-0.035c0.012-0.055,0.039-0.082,0.086-0.086l0.02-0.008l-0.008-0.017l-0.008-0.008l0.004-0.005
		l0.004-0.098c-0.031-0.047-0.069-0.062-0.112-0.055c-0.044,0.012-0.074,0.012-0.087-0.004c-0.008-0.014-0.008-0.021-0.008-0.036
		c-0.028-0.044-0.056-0.084-0.09-0.119c-0.049-0.039-0.061-0.073-0.049-0.108l0.008-0.012l0.11,0.02l-0.008-0.066
		c-0.005-0.04,0-0.066,0.021-0.087c0.008-0.017,0.027-0.022,0.047-0.026l0.047-0.018V8.82c-0.035-0.074-0.047-0.129-0.03-0.152
		l0.022-0.02c0.012-0.004,0.051,0.004,0.105,0.022l0,0l0.004,0.004v0.009c0.043,0.051,0.066,0.081,0.079,0.09l0.075-0.121
		c-0.067-0.083-0.104-0.143-0.115-0.167l-0.059,0.041l-0.008-0.008l-0.156-0.041h-0.004V8.474c-0.067-0.031-0.107-0.066-0.111-0.102
		l-0.094-0.043V8.238l0.172-0.103c-0.008-0.047-0.02-0.094-0.038-0.133l-0.027-0.055l-0.118,0.012
		c-0.055,0.023-0.104,0.035-0.156,0.035l-0.123-0.027V7.925l-0.02-0.004l-0.035-0.013l-0.008-0.023l0,0V7.881l0,0l0,0l-0.004-0.012
		V7.865V7.854l-0.008,0.004L11.35,7.961l-0.004,0.035c-0.008,0.02-0.017,0.031-0.008,0.039c0.02,0.027,0.016,0.059-0.005,0.086
		l0.017,0.067l-0.004,0.004l-0.008,0.004L11.29,8.239V8.33l-0.011,0.003c-0.087,0.039-0.146,0.059-0.182,0.059L10.926,8.38
		L10.85,8.446H10.846z"/>
	<path fill="#215F8B" d="M14.258,11.695c-0.127,0.091-0.217,0.203-0.275,0.342c-0.051,0.117-0.09,0.177-0.118,0.191l0.028,0.217
		v0.004l0,0l-0.021,0.148c-0.008,0.049,0,0.079,0.012,0.088l0.162,0.105l0,0h0.004l0.004,0.012l0,0
		c0.008,0.035,0.031,0.066,0.062,0.105c0.016,0.022,0.035,0.035,0.051,0.043l0.023-0.26v-0.008l0.113-0.273l0.041-0.326V12.08
		l0.004-0.004l0.035-0.088l-0.027-0.074V11.91h-0.004l-0.008-0.102l0.004-0.005l0.004-0.004l0.02-0.022l0.012-0.027L14.258,11.695z"
		/>
	<path fill="#215F8B" d="M10.387,13.992l-0.012,0.021v0.005l-0.004,0.008l-0.16,0.039l0.008,0.021l0.051,0.06
		c-0.004,0-0.012,0.004-0.012,0.004l-0.078,0.039l-0.119,0.09c-0.038,0.047-0.03,0.135,0.027,0.265l0.119,0.012h0.004v0.005
		l0.117,0.055l0.126-0.021c0.052-0.012,0.11-0.06,0.185-0.149h0.004l0.009-0.008l0.055-0.016l-0.016-0.165v-0.008l0.069-0.103
		v-0.004h0.004l0.057-0.044c0.008-0.047,0.004-0.091-0.016-0.126c-0.018-0.031-0.037-0.043-0.057-0.043l0.008,0.059l-0.104-0.02
		l-0.048,0.025H10.6l0,0H10.387z"/>
</g>
</svg>
