<svg xmlns="http://www.w3.org/2000/svg" viewBox="0 0 16 16"><path d="M3.953 10.512a5.24 5.24 0 0 0 6.996 3.141c.625-.262 1.184-.641 1.666-1.122s.859-1.041 1.122-1.666c.272-.647.412-1.331.412-2.037s-.137-1.394-.412-2.037c-.262-.625-.641-1.184-1.122-1.666s-1.041-.859-1.666-1.122a5.226 5.226 0 0 0-2.037-.413c-.716 0-1.431.144-2.066.413-.509.216-1.372.769-1.875 1.291l-.003.003V.984h7.241c.262-.003.262-.372.262-.491 0-.122 0-.487-.266-.491H4.377a.343.343 0 0 0-.344.341v6.066c0 .197.244.338.472.384.444.094.544-.047.653-.197l.016-.019c.166-.247.681-.766.688-.772a4.262 4.262 0 0 1 3.037-1.25c1.147 0 2.222.444 3.028 1.25a4.245 4.245 0 0 1 1.256 3.019 4.236 4.236 0 0 1-1.25 3.019 4.336 4.336 0 0 1-3.047 1.25 4.136 4.136 0 0 1-2.159-.597l.003-3.688c0-.491.213-1.028.572-1.431a2.09 2.09 0 0 1 1.588-.716c.594 0 1.15.225 1.566.634.409.406.637.95.637 1.528a2.179 2.179 0 0 1-2.206 2.197c-.238 0-.672-.106-.691-.109-.25-.075-.356.272-.391.387-.134.441.069.528.109.541.397.125.659.147 1.003.147a3.173 3.173 0 0 0 3.169-3.169c0-1.734-1.422-3.144-3.166-3.144-.856 0-1.659.328-2.263.919-.575.566-.903 1.319-.903 2.069v.019c-.003.094-.003 2.306-.006 3.031l-.003-.003c-.328-.363-.653-.919-.869-1.488-.084-.222-.275-.184-.534-.103-.125.034-.469.141-.391.394zm3.722-.865c0 .106.097.2.156.253l.019.019c.1.097.194.147.281.147a.181.181 0 0 0 .131-.05c.044-.041.537-.544.588-.591l.553.55c.05.056.106.088.172.088.088 0 .184-.053.284-.156.238-.244.119-.375.063-.438l-.559-.559.584-.588c.128-.137.016-.284-.097-.397-.162-.162-.322-.206-.422-.112l-.581.581-.588-.588a.16.16 0 0 0-.113-.047c-.078 0-.172.053-.275.156-.181.181-.219.306-.125.406l.588.584-.584.584c-.053.05-.078.103-.075.156zm1.278-7.931c-.938 0-1.938.191-2.669.506a.207.207 0 0 0-.134.181.753.753 0 0 0 .069.337c.047.116.166.425.4.334a6.689 6.689 0 0 1 2.334-.444 6.35 6.35 0 0 1 2.469.497c.622.263 1.206.644 1.844 1.194a.22.22 0 0 0 .147.059c.125 0 .244-.122.347-.237.169-.191.287-.35.119-.509a6.858 6.858 0 0 0-2.1-1.356 7.326 7.326 0 0 0-2.825-.563zM14.006 13.3c-.113-.113-.209-.178-.294-.203s-.162-.006-.222.053l-.056.056a6.32 6.32 0 0 1-6.938 1.356 6.336 6.336 0 0 1-2.013-1.356 6.046 6.046 0 0 1-1.356-2.012c-.288-.713-.381-1.247-.413-1.422-.003-.016-.006-.028-.006-.037-.041-.206-.231-.222-.503-.178-.112.019-.459.072-.428.319v.006a7.261 7.261 0 0 0 2.04 3.994 7.266 7.266 0 0 0 10.288 0l.059-.059c.069-.084.134-.225-.159-.516z"/></svg>