<svg xmlns="http://www.w3.org/2000/svg" viewBox="0 0 16 16"><path d="M14.463 13.831c-1.753 1.294-4.291 1.981-6.478 1.981-3.066 0-5.825-1.131-7.912-3.019-.163-.147-.019-.35.178-.234 2.253 1.313 5.041 2.1 7.919 2.1 1.941 0 4.075-.403 6.041-1.238.294-.125.544.197.253.409z"/><path d="M15.191 13c-.225-.287-1.481-.137-2.047-.069-.172.019-.197-.128-.044-.238 1.003-.703 2.647-.5 2.838-.266.194.238-.05 1.884-.991 2.672-.144.122-.281.056-.219-.103.216-.528.688-1.709.463-1.997zM11.053 11.838l.003.003c.387-.341 1.084-.95 1.478-1.278.156-.125.128-.334.006-.509-.353-.488-.728-.884-.728-1.784v-3c0-1.272.088-2.438-.847-3.313-.738-.706-1.963-.956-2.9-.956-1.831 0-3.875.684-4.303 2.947-.047.241.131.369.287.403l1.866.203c.175-.009.3-.181.334-.356.159-.778.813-1.156 1.547-1.156.397 0 .847.144 1.081.5.269.397.234.938.234 1.397v.25c-1.116.125-2.575.206-3.619.666-1.206.522-2.053 1.584-2.053 3.147 0 2 1.259 3 2.881 3 1.369 0 2.116-.322 3.172-1.403.35.506.463.753 1.103 1.284a.395.395 0 0 0 .456-.044zm-1.94-4.694c0 .75.019 1.375-.359 2.041-.306.544-.791.875-1.331.875-.737 0-1.169-.563-1.169-1.394 0-1.641 1.472-1.938 2.863-1.938v.416z"/></svg>