<svg xmlns="http://www.w3.org/2000/svg" viewBox="0 0 16 16"><path d="M4.641 3.206c.472 0 .897.041 1.284.125.388.081.716.219.994.406.275.188.487.438.644.75.15.309.225.697.225 1.156 0 .497-.112.909-.338 1.241-.228.331-.559.6-1.003.813.606.175 1.053.481 1.353.916.3.438.444.963.444 1.581 0 .5-.097.928-.287 1.291a2.535 2.535 0 0 1-.778.891c-.325.231-.7.4-1.119.509a5.052 5.052 0 0 1-1.287.166H.001V3.207h4.641zm-.282 3.975c.384 0 .703-.091.953-.275.25-.181.369-.481.369-.894 0-.228-.041-.419-.122-.566a.905.905 0 0 0-.334-.344 1.325 1.325 0 0 0-.478-.172 2.98 2.98 0 0 0-.556-.05H2.166v2.3H4.36zm.119 4.191c.213 0 .416-.019.606-.063a1.43 1.43 0 0 0 .509-.209c.144-.097.266-.225.353-.394.088-.166.128-.378.128-.637 0-.506-.144-.869-.428-1.088-.284-.216-.662-.322-1.131-.322h-2.35v2.709h2.313zM11.331 11.338c.294.287.716.431 1.266.431.394 0 .738-.1 1.022-.3s.456-.412.522-.631h1.725c-.278.859-.697 1.469-1.272 1.838-.566.369-1.259.556-2.063.556a4.11 4.11 0 0 1-1.519-.269 3.22 3.22 0 0 1-1.15-.766 3.51 3.51 0 0 1-.725-1.188 4.382 4.382 0 0 1-.256-1.519c0-.534.088-1.031.262-1.491.178-.463.422-.859.747-1.194s.706-.6 1.156-.794a3.692 3.692 0 0 1 1.488-.291c.603 0 1.131.116 1.584.353.45.234.822.55 1.113.944s.497.847.625 1.353.172 1.034.137 1.588h-5.147c0 .559.188 1.094.484 1.378zm2.247-3.744c-.231-.256-.628-.397-1.106-.397-.313 0-.572.053-.778.159a1.564 1.564 0 0 0-.497.394 1.396 1.396 0 0 0-.262.503c-.05.172-.081.331-.091.469h3.188c-.047-.5-.219-.869-.453-1.128zM10.444 4h3.991v.972h-3.991V4z"/></svg>