<svg xmlns="http://www.w3.org/2000/svg" viewBox="0 0 16 16"><path d="M16 9V8h-3.02a5.785 5.785 0 0 0-1.12-3.004h2.53L15.485.617l-.97-.243-.905 3.621h-2.729l-.042-.032A2.996 2.996 0 0 0 8.001-.001a2.996 2.996 0 0 0-2.838 3.964l-.042.032H2.392L1.487.374l-.97.243 1.095 4.379h2.53A5.785 5.785 0 0 0 3.022 8H.002v1h3.021c.059.713.242 1.388.526 1.996H1.612L.517 15.375l.97.243.905-3.621h1.756c.917 1.219 2.303 1.996 3.854 1.996s2.937-.777 3.854-1.996h1.756l.905 3.621.97-.243-1.095-4.379h-1.937A5.903 5.903 0 0 0 12.981 9h3.021z"/></svg>