<svg xmlns="http://www.w3.org/2000/svg" viewBox="0 0 16 16"><path d="M7.056 11.972l-.588-1.594s-.953 1.063-2.381 1.063c-1.266 0-2.163-1.1-2.163-2.859 0-2.253 1.137-3.059 2.253-3.059 1.612 0 2.125 1.044 2.566 2.381l.588 1.831c.588 1.778 1.688 3.206 4.856 3.206 2.272 0 3.813-.697 3.813-2.528 0-1.484-.844-2.253-2.419-2.622l-1.172-.256c-.806-.184-1.044-.513-1.044-1.063 0-.622.494-.991 1.3-.991.881 0 1.356.331 1.428 1.119l1.831-.219c-.147-1.65-1.284-2.328-3.153-2.328-1.65 0-3.262.622-3.262 2.622 0 1.247.606 2.034 2.125 2.4l1.247.294c.934.219 1.247.606 1.247 1.137 0 .678-.659.953-1.906.953-1.85 0-2.622-.972-3.059-2.309l-.606-1.831c-.766-2.384-1.994-3.263-4.431-3.263-2.694 0-4.125 1.703-4.125 4.6 0 2.784 1.428 4.287 3.997 4.287 2.069 0 3.059-.972 3.059-.972z"/></svg>