<svg xmlns="http://www.w3.org/2000/svg" viewBox="0 0 16 16"><path d="M8 0C3.581 0 0 3.581 0 8s3.581 8 8 8 8-3.581 8-8-3.581-8-8-8zm6.975 7.388l-.016-.166c.003.056.009.109.016.166zM13.881 4.2l-.113-.169.113.169zm-.434-.597l-.069-.084c.025.028.047.056.069.084zm-.969-.984l-.084-.069.084.069zm-.509-.388l-.169-.112.169.112zM8.778 1.044l-.169-.016c.056.003.113.009.169.016zm-1.39-.019l-.169.016c.056-.003.112-.009.169-.016zM4.2 2.119l-.169.112.169-.112zm-.597.434l-.081.066.081-.066zm-.984.969l-.069.084c.025-.028.047-.056.069-.084zm-.388.509l-.112.169.112-.169zM1.044 7.222l-.016.169c.003-.056.009-.112.016-.169zm-.019 1.391l.016.169a2.413 2.413 0 0 0-.016-.169zm1.094 3.184l.112.169a2.915 2.915 0 0 1-.112-.169zm.131.197l1.247-.834-.138-.209-1.247.834A6.936 6.936 0 0 1 1.049 8.81l.747-.075-.025-.25-.747.075a7.016 7.016 0 0 1-.022-.438h1.5v-.25h-1.5a6.42 6.42 0 0 1 .022-.438l.747.072.025-.25-.747-.072a6.94 6.94 0 0 1 1.066-2.975l1.247.834.138-.209-1.25-.828c.084-.119.169-.237.259-.35l.578.475.159-.194-.578-.475c.094-.112.194-.219.294-.325l1.059 1.059.178-.178L3.14 2.959c.106-.1.212-.2.322-.294l.475.581.194-.159-.475-.578c.116-.091.231-.178.35-.263l.834 1.247.209-.138-.834-1.247A6.941 6.941 0 0 1 7.19 1.045l.075.747.25-.025-.075-.747c.144-.012.291-.019.438-.022v1.5h.25v-1.5c.147.003.291.009.438.022l-.072.747.25.025.072-.747a6.94 6.94 0 0 1 2.975 1.066l-.834 1.247.209.138L12 2.249c.119.084.238.169.35.259l-.475.578.194.159.475-.578c.113.094.219.194.325.294l-.4.391L7 6.999l-3.647 5.469-.391.391a9.82 9.82 0 0 1-.294-.322l.578-.475-.159-.194-.578.475a6.874 6.874 0 0 1-.259-.35zm.369.484l-.066-.081.066.081zm.903.903l.081.066-.081-.066zm.509.385l.169.113a2.618 2.618 0 0 1-.169-.113zm3.191 1.19l.169.016a2.471 2.471 0 0 1-.169-.016zm1.391.019l.166-.016a2.387 2.387 0 0 0-.166.016zm3.187-1.094l.169-.113-.169.113zm.597-.434l.084-.069c-.028.025-.056.047-.084.069zm.547-.491l.012-.012-.012.012zm.437-.478l.069-.084c-.025.028-.047.056-.069.084zm.11-.134l-.578-.475-.159.194.578.475c-.094.113-.194.219-.294.325l-1.059-1.059-.178.178 1.059 1.059c-.106.1-.213.2-.322.294l-.475-.581-.194.159.475.578a8.61 8.61 0 0 1-.35.262l-.834-1.247-.209.137.834 1.247a6.936 6.936 0 0 1-2.975 1.063l-.075-.747-.25.025.075.747a7.016 7.016 0 0 1-.438.022v-1.5h-.25V15a6.42 6.42 0 0 1-.438-.022l.072-.747-.25-.025-.072.747a6.94 6.94 0 0 1-2.975-1.066l.834-1.247-.209-.137-.828 1.247a7.532 7.532 0 0 1-.35-.259l.475-.578-.194-.159-.475.578a7.556 7.556 0 0 1-.325-.294l.394-.391L9 9l3.647-5.469.391-.391c.1.106.2.212.294.322l-.578.475.159.194.578-.475c.091.116.178.231.262.35l-1.247.834.137.209 1.247-.834a6.941 6.941 0 0 1 1.063 2.975l-.747.075.025.25.747-.075c.012.144.019.291.022.438h-1.5v.25H15a6.42 6.42 0 0 1-.022.438l-.747-.072-.025.25.747.072a6.94 6.94 0 0 1-1.066 2.975l-1.247-.834-.137.209L13.75 12c-.081.113-.169.228-.259.344zm1.484-3.735c-.006.056-.009.113-.016.169l.016-.169zM13.881 11.8l-.113.169.113-.169z"/><path d="M6.758 1.111l.293 1.471-.245.049-.293-1.471.245-.049zM9.245 14.89l-.293-1.471.245-.049.293 1.471-.245.049zM6.088 1.264l.218.718-.239.073-.218-.718.239-.073zM9.913 14.733l-.218-.718.239-.073.218.718-.239.073zM5.438 1.486l.574 1.386-.231.096-.574-1.386.231-.096zM10.564 14.515l-.574-1.386.231-.096.574 1.386-.231.096zM4.588 1.885l.22-.118.354.661-.22.118-.354-.661zM11.408 14.114l-.22.118-.354-.661.22-.118.354.661zM1.884 4.591l.662.353-.118.221-.661-.353.118-.221zM14.113 11.409l-.662-.353.118-.22.662.353-.118.22zM2.872 6.01l-1.386-.574.096-.231 1.386.574-.096.231zM13.13 9.989l1.386.574-.096.231-1.386-.574.096-.231zM1.337 5.85l.718.218-.073.239-.718-.218.073-.239zM14.661 10.151l-.718-.218.073-.239.718.218-.073.239zM1.157 6.512l1.471.293-.049.245-1.471-.293.049-.245zM14.84 9.488l-1.471-.293.049-.245 1.471.293-.049.245zM1.109 9.243L2.58 8.95l.049.245-1.471.293-.049-.245zM14.888 6.757l-1.471.293-.049-.245 1.471-.293.049.245zM1.265 9.914l.718-.218.073.239-.718.218-.073-.239zM14.734 6.089l-.718.218-.073-.239.718-.218.073.239zM1.58 10.796l-.096-.231 1.386-.574.096.231-1.386.574zM14.419 5.207l.096.231-1.386.574-.096-.231 1.386-.574zM1.888 11.41l-.118-.22.661-.354.118.22-.661.354zM14.116 4.59l.118.22-.661.354-.118-.22.661-.354zM4.811 14.232l-.22-.118.354-.661.22.118-.354.661zM11.189 1.767l.22.118-.353.661-.22-.118.353-.661zM5.207 14.419l.574-1.386.231.096-.574 1.386-.231-.096zM10.795 1.58l-.574 1.386-.231-.096.574-1.386.231.096zM6.088 14.735l-.239-.073.218-.718.239.073-.218.718zM9.912 1.264l.239.073-.218.718-.239-.073.218-.718zM6.757 14.888l-.245-.049.293-1.471.245.049-.293 1.471zM9.243 1.109l.245.049-.293 1.471-.245-.049.293-1.471z"/></svg>