<svg xmlns="http://www.w3.org/2000/svg" viewBox="0 0 16 16"><path d="M8.87 11.514c-1.28.596-2.471.589-3.271.532-.954-.069-1.721-.33-2.058-.558a.454.454 0 1 0-.509.753c.542.367 1.501.64 2.503.712.17.012.356.02.557.02.872 0 1.979-.083 3.163-.634a.454.454 0 1 0-.384-.824zm5.051-.673C13.965 6.893 14.37-.568 6.812.035-.651.636 1.328 8.519 1.217 11.159 1.118 12.556.655 14.263 0 16h2.017a12.3 12.3 0 0 0 .425-2.159c.122.085.252.167.391.245.226.133.42.31.626.497.48.438 1.025.934 2.089.996.071.004.143.006.214.006 1.077 0 1.813-.471 2.404-.85.283-.181.528-.338.759-.413.655-.205 1.227-.536 1.655-.957.067-.066.129-.133.187-.202.238.873.564 1.856.926 2.836H16c-1.034-1.597-2.101-3.162-2.079-5.159zM1.939 8.693v-.001c-.074-1.288.542-2.372 1.377-2.421s1.571.957 1.645 2.245v.001c.004.069.006.138.006.206a3.239 3.239 0 0 0-.717.275l-.002-.029c-.071-.731-.462-1.284-.873-1.234s-.686.684-.614 1.415a2 2 0 0 0 .251.819 91.083 91.083 0 0 0-.511.376c-.311-.408-.524-.993-.562-1.655zm8.456 3.185c-.03.681-.92 1.322-1.743 1.579l-.005.002c-.342.111-.647.306-.97.513-.543.347-1.104.706-1.914.706-.053 0-.108-.002-.161-.005-.742-.043-1.09-.36-1.529-.761-.232-.211-.472-.43-.781-.611l-.007-.004c-.667-.377-1.081-.845-1.108-1.253-.013-.203.077-.378.268-.522.416-.312.695-.516.879-.651.205-.15.267-.195.313-.239l.106-.103c.382-.371 1.021-.993 2.002-.993.6 0 1.264.231 1.971.686.333.217.623.317.99.444.252.087.539.186.922.35l.006.003c.357.147.78.415.76.858zm-.197-1.6a2.645 2.645 0 0 0-.215-.098 12.404 12.404 0 0 0-.852-.328c.127-.248.206-.558.213-.894.018-.818-.395-1.483-.922-1.484s-.968.661-.986 1.479a1.067 1.067 0 0 0 0 .08 4.534 4.534 0 0 0-.956-.324l-.004-.092v-.001c-.03-1.491.884-2.725 2.043-2.756s2.122 1.152 2.153 2.642v.001a3.184 3.184 0 0 1-.475 1.776z"/></svg>