<svg xmlns="http://www.w3.org/2000/svg" viewBox="0 0 16 16"><path d="M15.994 4.281c-.072 1.556-1.159 3.691-3.263 6.397-2.175 2.825-4.016 4.241-5.522 4.241-.931 0-1.722-.859-2.366-2.581-.431-1.578-.859-3.156-1.291-4.734-.478-1.722-.991-2.581-1.541-2.581-.119 0-.538.253-1.256.753l-.753-.969c.791-.694 1.569-1.388 2.334-2.081 1.053-.909 1.844-1.387 2.372-1.438 1.244-.119 2.013.731 2.3 2.553.309 1.966.525 3.188.647 3.666.359 1.631.753 2.447 1.184 2.447.334 0 .838-.528 1.509-1.588.669-1.056 1.028-1.862 1.078-2.416.097-.912-.262-1.372-1.078-1.372a2.98 2.98 0 0 0-1.184.263c.787-2.575 2.287-3.825 4.506-3.753 1.641.044 2.416 1.109 2.322 3.194z"/></svg>