<svg xmlns="http://www.w3.org/2000/svg" viewBox="0 0 16 16"><path d="M15.106 3.65c0 .05-.016.097-.047.141-.031.041-.066.063-.106.063-.313.031-.569.131-.766.3-.2.169-.403.497-.613.975l-3.225 7.272c-.022.069-.081.1-.178.1a.205.205 0 0 1-.178-.1L8.184 8.62l-2.081 3.781c-.044.069-.1.1-.178.1-.094 0-.153-.034-.184-.1L2.575 5.132c-.197-.45-.406-.766-.625-.944s-.525-.291-.916-.331C1 3.857.968 3.838.94 3.804a.173.173 0 0 1-.044-.122c0-.119.034-.178.1-.178.281 0 .578.013.888.038.288.025.556.038.809.038.256 0 .563-.013.913-.038.366-.025.691-.038.975-.038.069 0 .1.059.1.178s-.022.175-.063.175c-.281.022-.506.094-.669.216s-.244.281-.244.481c0 .1.034.228.1.378l2.616 5.912 1.487-2.806-1.384-2.903c-.25-.519-.453-.853-.612-1.003s-.403-.241-.728-.275c-.031 0-.056-.019-.084-.053s-.041-.075-.041-.122c0-.119.028-.178.088-.178.281 0 .541.013.778.038.228.025.469.038.728.038.253 0 .519-.013.803-.038.291-.025.578-.038.859-.038.069 0 .1.059.1.178s-.019.175-.063.175c-.566.038-.847.2-.847.481 0 .125.066.322.197.588l.916 1.859.912-1.7c.125-.241.191-.444.191-.606 0-.388-.281-.594-.847-.619-.05 0-.075-.059-.075-.175 0-.044.012-.081.037-.119s.05-.056.075-.056c.203 0 .45.013.747.038.281.025.516.038.697.038.131 0 .322-.013.575-.031.319-.028.588-.044.803-.044.05 0 .075.05.075.15 0 .134-.047.203-.137.203-.328.034-.594.125-.794.272s-.45.481-.75 1.006L8.905 7.379l1.644 3.35 2.428-5.647c.084-.206.125-.397.125-.569 0-.412-.281-.631-.847-.659-.05 0-.075-.059-.075-.175 0-.119.037-.178.113-.178.206 0 .45.013.734.038.262.025.481.038.656.038.188 0 .4-.013.644-.038.253-.025.481-.038.684-.038.063 0 .094.05.094.15z"/></svg>