<svg xmlns="http://www.w3.org/2000/svg" viewBox="0 0 16 16"><path d="M2 8c0 2.313 1.38 4.312 3.382 5.259L2.52 5.622A5.693 5.693 0 0 0 2 8zm10.05-.295c0-.722-.266-1.222-.495-1.612-.304-.482-.589-.889-.589-1.371 0-.537.418-1.037 1.008-1.037.027 0 .052.003.078.005A6.064 6.064 0 0 0 8 2.156 6.036 6.036 0 0 0 2.987 4.79c.141.004.274.007.386.007.627 0 1.599-.074 1.599-.074.323-.018.361.444.038.482 0 0-.325.037-.687.055l2.185 6.33 1.313-3.835-.935-2.495a12.304 12.304 0 0 1-.629-.055c-.323-.019-.285-.5.038-.482 0 0 .991.074 1.58.074.627 0 1.599-.074 1.599-.074.323-.018.362.444.038.482 0 0-.326.037-.687.055l2.168 6.282.599-1.947c.259-.809.457-1.389.457-1.889zm-3.945.806l-1.8 5.095a6.148 6.148 0 0 0 3.687-.093.52.52 0 0 1-.043-.081L8.105 8.511zm5.16-3.315c.026.186.04.386.04.601 0 .593-.114 1.259-.456 2.093l-1.833 5.16c1.784-1.013 2.983-2.895 2.983-5.051a5.697 5.697 0 0 0-.735-2.803zM8 0a8 8 0 1 0 0 16A8 8 0 0 0 8 0zm0 15A7 7 0 1 1 8 1a7 7 0 0 1 0 14z"/></svg>