<svg xmlns="http://www.w3.org/2000/svg" viewBox="0 0 16 16"><path d="M15.841 4.8s-.156-1.103-.637-1.587c-.609-.637-1.291-.641-1.603-.678-2.237-.163-5.597-.163-5.597-.163h-.006s-3.359 0-5.597.163c-.313.038-.994.041-1.603.678C.317 3.697.164 4.8.164 4.8S.005 6.094.005 7.391v1.213c0 1.294.159 2.591.159 2.591s.156 1.103.634 1.588c.609.637 1.409.616 1.766.684 1.281.122 5.441.159 5.441.159s3.363-.006 5.6-.166c.313-.037.994-.041 1.603-.678.481-.484.637-1.588.637-1.588s.159-1.294.159-2.591V7.39c-.003-1.294-.162-2.591-.162-2.591zm-9.494 5.275V5.578l4.322 2.256-4.322 2.241z"/></svg>