<svg xmlns="http://www.w3.org/2000/svg" viewBox="0 0 416 416"><path d="M208 240c-45.443 0-83.675 26.076-102.205 64h204.41c-18.53-37.924-56.762-64-102.205-64z"/><path d="M208 0C92.563 0 0 93.6 0 208s92.563 208 208 208 208-93.6 208-208S322.401 0 208 0zm0 374.4c-91.518 0-166.404-74.883-166.404-166.4 0-91.518 74.887-166.4 166.404-166.4S374.404 116.482 374.404 208 299.518 374.4 208 374.4z"/><path d="M280.8 187.2c17.683 0 31.201-13.518 31.201-31.2s-13.519-31.2-31.201-31.2c-17.682 0-31.2 13.518-31.2 31.2s13.518 31.2 31.2 31.2zm-145.6 0c17.682 0 31.2-13.518 31.2-31.2s-13.519-31.2-31.2-31.2c-17.683 0-31.201 13.518-31.201 31.2s13.519 31.2 31.201 31.2z"/></svg>