<svg xmlns="http://www.w3.org/2000/svg" viewBox="0 0 384.0009765625 384"><path d="M192 0C86.401 0 0 86.401 0 192c0 105.604 86.401 192 192 192 18.136 0 32-13.864 32-32 0-8.531-3.198-16-8.531-21.333-5.333-5.334-8.531-12.803-8.531-21.334 0-18.135 13.864-32 32-32h38.396c58.667 0 106.667-48 106.667-106.666C384 76.802 297.604 0 192 0zM74.667 192c-18.136 0-32-13.864-32-32s13.864-32 32-32c18.135 0 32 13.864 32 32s-13.865 32-32 32zm64-85.333c-18.136 0-32-13.865-32-32 0-18.136 13.864-32 32-32 18.135 0 32 13.864 32 32 0 18.135-13.865 32-32 32zm106.666 0c-18.135 0-32-13.865-32-32 0-18.136 13.865-32 32-32 18.136 0 32 13.864 32 32 0 18.135-13.864 32-32 32zm64 85.333c-18.135 0-32-13.864-32-32s13.865-32 32-32c18.136 0 32 13.864 32 32s-13.864 32-32 32z"/></svg>