<svg xmlns="http://www.w3.org/2000/svg" viewBox="0 0 352 416"><path d="M177 72.471c7.083 0 23.911 4.479 23.911 4.479 45.589 10.447 77.678 52.439 77.678 99.85v127.612l9.321 9.364 7.788 7.823H56.302l7.788-7.823 9.321-9.364V176.8c0-47.41 32.089-89.403 77.678-99.85 0 0 18.043-4.479 23.911-4.479M176 0c-17.602 0-31.059 13.518-31.059 31.2v14.559C85.926 59.282 41.411 113.36 41.411 176.8v114.4L0 332.8v20.8h352v-20.8l-41.411-41.6V176.8c0-63.44-44.516-117.518-103.53-131.041V31.2C207.059 13.518 193.602 0 176 0zm41.411 374.4h-82.823c0 22.881 18.633 41.6 41.412 41.6s41.411-18.719 41.411-41.6z"/></svg>