<svg xmlns="http://www.w3.org/2000/svg" viewBox="0 0 448 448"><path d="M224 128c25.499 0 49.567 10.025 67.771 28.229S320 198.501 320 224s-10.025 49.567-28.229 67.771S249.499 320 224 320s-49.567-10.025-67.771-28.229S128 249.499 128 224s10.025-49.567 28.229-67.771S198.501 128 224 128M245.333 0h-42.666v64h42.666V0zm129.063 43.729L336 82.135 365.864 112l38.406-38.396-29.874-29.875zm-300.792 0L43.729 73.604 82.136 112 112 82.135 73.604 43.729zM224 96c-70.396 0-128 57.604-128 128s57.604 128 128 128 128-57.604 128-128S294.396 96 224 96zm224 106.666h-64v42.668h64v-42.668zm-384 0H0v42.668h64v-42.668zM365.864 336L336 365.865l38.396 38.406 29.875-29.875L365.864 336zm-283.728 0L43.73 374.396l29.875 29.875L112 365.865 82.136 336zm163.197 48h-42.666v64h42.666v-64z"/></svg>