<svg xmlns="http://www.w3.org/2000/svg" viewBox="0 0 448 448"><path d="M0 352h272v32H0zm368 0h80v32h-80zm-16 63.5c0 17.949-14.327 32.5-32 32.5-17.673 0-32-14.551-32-32.5v-95c0-17.949 14.327-32.5 32-32.5 17.673 0 32 14.551 32 32.5v95zM0 208h80v32H0zm176 0h272v32H176zm-16 63.5c0 17.949-14.327 32.5-32 32.5-17.673 0-32-14.551-32-32.5v-95c0-17.949 14.327-32.5 32-32.5 17.673 0 32 14.551 32 32.5v95zM0 64h272v32H0zm368 0h80v32h-80zm-16 63.5c0 17.949-14.327 32.5-32 32.5-17.673 0-32-14.551-32-32.5v-95C288 14.551 302.327 0 320 0c17.673 0 32 14.551 32 32.5v95z"/></svg>