<svg xmlns="http://www.w3.org/2000/svg" viewBox="0 0 416 384"><path d="M301.6 0c-36.4 0-70.718 16.742-93.6 43.947C185.117 16.742 150.8 0 114.4 0 49.918 0 0 50.221 0 115.095c0 79.516 70.718 143.348 177.836 241.694L208 384l30.164-27.211C345.281 258.442 416 194.61 416 115.095 416 50.221 366.082 0 301.6 0zm-80.764 329.257l-4.219 3.873-8.617 7.773-8.616-7.772-4.214-3.869c-50.418-46.282-93.961-86.254-122.746-121.994C44.467 172.555 32 144.128 32 115.095c0-22.865 8.422-43.931 23.715-59.316C70.957 40.445 91.798 32 114.4 32c26.134 0 51.97 12.167 69.11 32.545L208 93.661l24.489-29.116C249.63 44.167 275.465 32 301.6 32c22.603 0 43.443 8.445 58.686 23.778C375.578 71.164 384 92.229 384 115.095c0 29.033-12.467 57.459-40.422 92.171-28.784 35.74-72.325 75.709-122.742 121.991z"/></svg>