<svg xmlns="http://www.w3.org/2000/svg" viewBox="0 0 512 352"><path d="M413.442 252.307a8.007 8.007 0 0 1 2.372 5.71 7.984 7.984 0 0 1-2.372 5.707l-21.823 21.905a7.973 7.973 0 0 1-5.691 2.371c-2.071 0-4.138-.785-5.695-2.371l-76.23-76.461-76.23 76.461a7.947 7.947 0 0 1-5.695 2.371 7.975 7.975 0 0 1-5.692-2.371l-21.824-21.905a7.99 7.99 0 0 1-2.373-5.707c0-2.148.846-4.2 2.373-5.71L271.098 176 194.36 99.703c-3.146-3.153-3.146-8.273 0-11.427l21.807-21.919A8.048 8.048 0 0 1 221.863 64c2.152 0 4.189.847 5.691 2.357l76.448 75.533 76.447-75.533A8.006 8.006 0 0 1 386.142 64c2.143 0 4.179.847 5.695 2.357l21.807 21.919c3.146 3.153 3.146 8.273 0 11.427L336.904 176l76.538 76.307z"/><path d="M498.941 13.559C490.037 4.654 478.696 0 465.875 0H168c-24.303 0-43.717 9.402-57.706 28.441L0 175.938l110.4 146.528.18.231.184.232c6.904 8.855 14.424 15.701 22.99 20.417C143.883 348.924 155.405 352 168 352h298c26.191 0 46-22.257 46-49V47c0-12.821-4.154-24.537-13.059-33.441zM480 303c0 8.837-5.163 17-14 17H168c-15.167 0-24.333-6.666-32-16.5L40 176l96-128.438c9.5-13 21.167-15.562 32-15.562h297.5c8.837 0 14.5 6.163 14.5 15v256z"/></svg>