<svg xmlns="http://www.w3.org/2000/svg" viewBox="0 0 384.1719970703125 448"><path d="M79.656 160v223.5c0 8.836 7.851 16.5 16.688 16.5h208c8.836 0 15.312-7.664 15.312-16.5V160h-240zm216 151.5a8 8 0 0 1-16 0v-48a8 8 0 0 1 16 0v48zm-7.312-72c-4.418 0-8-3.581-8-8s3.582-8 8-8a8 8 0 1 1 0 16z"/><path d="M381.234 0H64.594C10.249 0 0 27.426 0 39.75 30.25 44 31.656 44.5 31.656 76.5v307c0 35.346 29.341 64.5 64.688 64.5h207.75c35.346 0 63.562-29.154 63.562-64.5V48c0-20.349 12.298-38.276 13.516-40.183 1.219-1.906 3-3.798 3-4.958 0-1.171-.416-2.859-2.938-2.859zm-45.578 48v335.5c0 17.92-12.443 32.5-29.812 32.5h-209.5c-17.617 0-32.688-14.883-32.688-32.5v-307c0-11.812 1.094-37.25-3.828-43.957.921-.793 3.114-.543 4.516-.543h272.66c-.736 0-1.348 10.799-1.348 16z"/></svg>