<svg xmlns="http://www.w3.org/2000/svg" viewBox="0 0 352.0000305175781 448.5000305175781"><path d="M80.5 128.5h192c-1.688-20-9.729-35.45-27.921-40.356-.446-.119-1.12-.424-1.567-.541C231.008 84.179 222 79.95 222 66.822V46.227C222 20.691 201.476 0 175.99 0 150.524 0 130 20.691 130 46.227v20.595c0 13.128-8.592 17.169-20.597 20.593-.447.117-.8.61-1.266.729C89.946 93.05 82.427 108.5 80.5 128.5zm95.99-96.105c7.615 0 13.791 6.195 13.791 13.832 0 7.654-6.176 13.85-13.791 13.85-7.614 0-13.772-6.195-13.772-13.85 0-7.637 6.158-13.832 13.772-13.832z"/><path d="M325.111 31.5H251v13.988c0 10.583 9.193 19.012 19.507 19.012h37.212c6.667 0 12.099 5.435 12.44 12.195l.085 327.1c-.322 6.432-5.303 11.546-11.514 12.017l-264.418.031c-6.211-.471-11.149-5.695-11.472-12.126l-.085-327.014c.322-6.761 5.858-12.203 12.506-12.203h37.231c10.313 0 18.507-8.429 18.507-19.012V31.5H27.868C12.75 31.5 0 44.058 0 59.575v360.38C0 435.457 12.75 448.5 27.869 448.5h297.242c15.138 0 26.889-13.043 26.889-28.545V59.575c0-15.517-11.751-28.075-26.889-28.075z"/><path d="M64 160.5h112v32H64zm0 192h160v32H64zm0-64h129v32H64zm0-64h208v32H64z"/></svg>