<svg xmlns="http://www.w3.org/2000/svg" viewBox="0 0 448 448"><path d="M223.988 0C100.285 0 0 100.298 0 224c0 123.715 100.285 224 223.988 224C347.703 448 448 347.715 448 224 448 100.298 347.703 0 223.988 0zm135.773 359.765a193.666 193.666 0 0 1-32.886 26.42l-15.946-27.62-13.856 8 15.955 27.636c-24.838 13.03-52.372 20.455-81.027 21.624V384h-16v31.825c-28.656-1.166-56.191-8.59-81.03-21.62l15.958-27.641-13.856-8-15.949 27.625a193.574 193.574 0 0 1-32.889-26.424 193.571 193.571 0 0 1-26.422-32.889l27.624-15.949-8-13.855-27.641 15.958c-13.03-24.839-20.454-52.374-21.621-81.03H64v-16H32.175c1.167-28.655 8.592-56.19 21.623-81.029l27.638 15.958 8-13.856-27.623-15.948A193.662 193.662 0 0 1 88.232 88.24a193.632 193.632 0 0 1 32.89-26.426l15.949 27.624 13.856-8-15.958-27.64C159.81 40.765 187.345 33.34 216 32.175V64h16V32.176c28.654 1.169 56.188 8.595 81.026 21.626l-15.954 27.634 13.856 8 15.945-27.618a193.672 193.672 0 0 1 32.886 26.421 193.609 193.609 0 0 1 26.424 32.887l-27.619 15.946 8 13.856 27.636-15.956c13.031 24.839 20.457 52.373 21.624 81.027H384v16h31.824c-1.167 28.655-8.592 56.189-21.622 81.028l-27.637-15.957-8 13.856 27.621 15.947a193.57 193.57 0 0 1-26.425 32.892z"/><path d="M368 209H252.268A32.136 32.136 0 0 0 240 196.292V128h-32v68.292c-9.562 5.534-16 15.866-16 27.708 0 17.673 14.327 32 32 32 11.425 0 21.444-5.992 27.106-15H368v-32z"/></svg>