<svg xmlns="http://www.w3.org/2000/svg" viewBox="0 0 386.6999816894531 384.20001220703125"><path d="M381 322.9L249.8 191.2l131.5-130c5.4-5.4 5.4-14.2 0-19.6L343.9 4c-2.6-2.6-6.1-4-9.8-4-3.7 0-7.2 1.5-9.8 4L193.4 133.6 62.3 4.1c-2.6-2.6-6.1-4-9.8-4-3.7 0-7.2 1.5-9.8 4L5.4 41.7C0 47.1 0 55.9 5.4 61.3l131.5 130L5.8 322.9c-2.6 2.6-4.1 6.1-4.1 9.8 0 3.7 1.4 7.2 4.1 9.8l37.4 37.6c2.7 2.7 6.2 4.1 9.8 4.1 3.5 0 7.1-1.3 9.8-4.1l130.6-131.2L324.1 380c2.7 2.7 6.2 4.1 9.8 4.1 3.5 0 7.1-1.3 9.8-4.1l37.4-37.6c2.6-2.6 4.1-6.1 4.1-9.8-.1-3.6-1.6-7.1-4.2-9.7z"/></svg>