<svg xmlns="http://www.w3.org/2000/svg" viewBox="0 0 288 384"><path d="M286.1 104.8c-.9-2.2-2-4.3-3.5-6.1L198.8 7c-1.9-2.1-4.2-3.6-6.7-4.9C189.2.6 186 0 182.6 0H22.7C10.3 0 0 10.6 0 23.9v335.2C0 372.5 10.3 384 22.7 384h243.1c12.4 0 22.2-11.5 22.2-24.9V115c0-3.6-.5-7.1-1.9-10.2zM48 114.2c0-1.5 1.8-2.1 3.4-2.1h70.8c1.6 0 2.8.6 2.8 2.1V125c0 1.4-1.1 3.1-2.8 3.1H51.4c-1.6 0-3.4-1.7-3.4-3.1v-10.8zm0 128c0-1.5 1.8-2.1 3.4-2.1h122.2c1.6 0 2.4.6 2.4 2.1V253c0 1.4-.7 3.1-2.4 3.1H51.4c-1.6 0-3.4-1.7-3.4-3.1v-10.8zM208 317c0 1.4-.7 3.1-2.4 3.1H51.4c-1.6 0-3.4-1.7-3.4-3.1v-10.8c0-1.5 1.8-2.1 3.4-2.1h154.2c1.6 0 2.4.6 2.4 2.1V317zm32-128c0 1.4-.7 3.1-2.4 3.1H51.4c-1.6 0-3.4-1.7-3.4-3.1v-10.8c0-1.5 1.8-2.1 3.4-2.1h186.2c1.6 0 2.4.6 2.4 2.1V189zm-46.9-75.9c-5.6 0-11.1-5.2-11.1-11.3v-66l71.2 77.3h-60.1z"/></svg>