<svg xmlns="http://www.w3.org/2000/svg" viewBox="0 0 448 448.0999755859375"><path d="M115.4 419.9c.4.2.7.5 1.1.7 10.9 6 22.5 10.7 34.4 14.8l5.4 1.8c21.4 6.8 44 10.9 67.7 10.9 123.7 0 224-100.3 224-224 0-84.3-46.6-157.7-115.5-195.9-.4-.2-.7-.4-1-.6-10.9-6-22.5-10.7-34.4-14.8l-5.4-1.8C270.3 4.1 247.6 0 224 0 100.3 0 0 100.3 0 224c0 84.3 46.6 157.6 115.4 195.9zM86.2 124.6l54.4 54.4 36.3-40.5-52.4-52.4c28-20.2 62.1-32.6 99.4-32.6 9.3 0 18.3.9 27.2 2.4 9.8 1.6 19.3 4.1 28.5 7.3 1.8.6 3.7 1.2 5.6 1.9 6.2 2.4 12.2 5 18 8.1 54.2 28.5 91.2 85.3 91.2 150.8 0 37.2-12.4 71.3-32.7 99.4L307.3 269 271 309.4l52.4 52.4c-28 20.3-62.2 32.7-99.4 32.7-9.3 0-18.4-.9-27.2-2.4-9.8-1.6-19.3-4.1-28.5-7.3-1.9-.6-3.8-1.2-5.6-1.9-6.5-2.5-12.9-5.3-19-8.6-53.6-28.7-90.1-85.2-90.1-150.3 0-37.2 12.4-71.3 32.6-99.4z"/><path d="M177.7 357.8L316.9 203h-85.3l38.6-112.8L131.1 245h85.3z"/></svg>