<svg xmlns="http://www.w3.org/2000/svg" viewBox="0 0 319.8999938964844 319.8999938964844"><path d="M63.9 57.2c0 3.7-3 6.7-6.7 6.7H6.7c-3.7 0-6.7-3-6.7-6.7V6.7C0 3 3 0 6.7 0h50.5c3.7 0 6.7 3 6.7 6.7v50.5zm128 0c0 3.7-3 6.7-6.7 6.7h-50.5c-3.7 0-6.7-3-6.7-6.7V6.7c0-3.7 3-6.7 6.7-6.7h50.5c3.7 0 6.7 3 6.7 6.7v50.5zm128 0c0 3.7-3 6.7-6.7 6.7h-50.5c-3.7 0-6.7-3-6.7-6.7V6.7c0-3.7 3-6.7 6.7-6.7h50.5c3.7 0 6.7 3 6.7 6.7v50.5zm-256 128c0 3.7-3 6.7-6.7 6.7H6.7c-3.7 0-6.7-3-6.7-6.7v-50.5c0-3.7 3-6.7 6.7-6.7h50.5c3.7 0 6.7 3 6.7 6.7v50.5zm128 0c0 3.7-3 6.7-6.7 6.7h-50.5c-3.7 0-6.7-3-6.7-6.7v-50.5c0-3.7 3-6.7 6.7-6.7h50.5c3.7 0 6.7 3 6.7 6.7v50.5zm128 0c0 3.7-3 6.7-6.7 6.7h-50.5c-3.7 0-6.7-3-6.7-6.7v-50.5c0-3.7 3-6.7 6.7-6.7h50.5c3.7 0 6.7 3 6.7 6.7v50.5zm-256 128c0 3.7-3 6.7-6.7 6.7H6.7c-3.7 0-6.7-3-6.7-6.7v-50.5c0-3.7 3-6.7 6.7-6.7h50.5c3.7 0 6.7 3 6.7 6.7v50.5zm128 0c0 3.7-3 6.7-6.7 6.7h-50.5c-3.7 0-6.7-3-6.7-6.7v-50.5c0-3.7 3-6.7 6.7-6.7h50.5c3.7 0 6.7 3 6.7 6.7v50.5zm128 0c0 3.7-3 6.7-6.7 6.7h-50.5c-3.7 0-6.7-3-6.7-6.7v-50.5c0-3.7 3-6.7 6.7-6.7h50.5c3.7 0 6.7 3 6.7 6.7v50.5z"/></svg>