<svg xmlns="http://www.w3.org/2000/svg" viewBox="0 0 438.7489929199219 394.52398681640625"><path d="M192.374 234.524c1-18 0-38 8-55 2-5 1-10 1-15-4-21-14-40-15-60 0-1.39 1.004-4.771 1.005-6.157-3.216 2.234-7.607 4.024-11.005 5.157-20 6-17.51 2.573-34.51 13.573l-11.933 7.228c16.343-17.939 38.528-24.781 56.525-38.714.194-15.438.858-30.677 3.137-45.84C148.984.02 85.159.792 45.497 42.094 0 89.438 0 166.195 45.497 213.539l152.849 159.096c-.085-10.656-.443-21.176-1.972-31.111-6-36-4-71-4-107z"/><path d="M285.374 247.524c-11-26-33-44-63-50-.85 0-1.879-.543-2.936-1.319-.023.107-.041.213-.064.319-11 48-23 94-21 142 0 12.227 3.983 25.117 3.833 38.131l17.167 17.869 104-108.25c-14.847-10.479-29.572-21.129-38-38.75z"/><path d="M393.248 42.094C352.822 0 287.259 0 246.84 42.094l-19.466 19.833c.075 13.175.213 26.202-3 38.597-2 10-19 19-16 31 3.003 13.213 8.166 25.705 10.732 38.559 15.282 8.525 29.039 19.337 41.268 32.441 22.801 26.766 37.747 57.459 65.283 81.371l67.591-70.355c45.501-47.345 45.501-124.102 0-171.446z"/></svg>