<svg xmlns="http://www.w3.org/2000/svg" viewBox="0 0 256 414.79998779296875"><path d="M217.1 28.1C189.6 7.2 158.6 0 119.3 0 89.5 0 64 6.1 43.8 19.7 14 40 0 74.1 0 128h76.8c0-14.4-1.4-29.9 7-43.2 8.4-13.3 20.1-23.5 40.2-23.5 20.4 0 30.9 5.9 40.8 18.1 8.4 10.4 11.6 22.8 11.6 36 0 11.4-5.8 21.9-12.7 31.4-3.8 5.6-8.8 10.6-15.1 15.4 0 0-41.5 24.7-56.1 48.1-10.9 17.4-14.8 39.2-15.7 65.3-.1 1.9.6 5.8 7.2 5.8h61.8c5.8 0 7-4.4 7.1-6.2.4-9.5 1.6-24.1 3.3-29.6 3.3-10.4 9.7-19.5 19.7-27.3l20.7-14.3c18.7-14.6 33.6-26.5 40.2-35.9 11.3-15.4 19.2-34.4 19.2-56.9 0-36.7-13.5-63.8-38.9-83.1zM114 321.2c-25.9-.8-47.3 17.2-48.2 45.3-.8 28.2 19.5 46.7 45.5 47.5 27 .8 47.9-16.6 48.7-44.7.8-28.1-19-47.3-46-48.1z"/></svg>