<svg xmlns="http://www.w3.org/2000/svg" viewBox="0 0 449.4999694824219 385.4000244140625"><path d="M426.5 77L344 73l-4.8-53.8C338.2 7.9 328.1 0 316.3.9l-296 24.3C8.5 26.2 0 35.7.9 46.9l21.2 235.8c1 11.3 11.2 19.2 22.9 18.3l15-1.2-2.4 45.8c-.6 12.6 9.2 22.8 22.4 23.5l330.2 15.7c13.2.6 24.1-8.6 24.8-21.2l13.9-263.3c.6-12.5-9.3-22.7-22.4-23.3zm-355 5.3l-7.1 134.8L47 241.8l-16-178v-1c.5-5 4.3-9 9.5-9.4l261-21.4c5.2-.4 9.7 3 10.5 7.9 0 .2.3.2.3.4 0 .1.3.2.3.4l2.7 30.8L96.3 61c-13.2-.4-24.2 8.8-24.8 21.3zm334.1 236.9l-46.7-55.3-27.5-32.7c-2.4-2.9-6.3-5.3-10.6-5.5-4.3-.2-7.5 1.5-11.1 4.1l-16.4 11.9c-3.5 2.1-6.2 3.5-9.9 3.3-3.6-.2-6.8-1.6-9.1-3.8-.8-.8-2.3-2.2-3.5-3.4L228 188.9c-3.1-3.9-8.2-6.4-13.8-6.7-5.7-.3-11.2 2.1-14.8 5.6L98.3 296.6l-6.8 7.4.3-6.8 6.8-128.9 3.3-62.9v-1c1.4-5.4 6.2-9.3 11.9-9l204.2 9.8 28.7 1.4 58.3 2.8c5.8.3 10.3 4.7 10.4 10.2 0 .2.3.3.3.5s.3.3.3.5l-10.4 198.6z"/><path d="M342.1 199.1c19.4 0 35.2-15.8 35.2-35.2s-15.7-35.2-35.2-35.2c-19.4 0-35.2 15.7-35.2 35.2s15.7 35.2 35.2 35.2z"/></svg>