<svg xmlns="http://www.w3.org/2000/svg" viewBox="0 0 448 384"><path d="M336 160c26.5 0 48-21.5 48-48s-21.5-48-48-48-48 21.5-48 48 21.5 48 48 48z"/><path d="M420 0H28C12.4 0 0 12.7 0 28.3v327.4C0 371.3 12.4 384 28 384h392c15.6 0 28-12.7 28-28.3V28.3C448 12.7 435.6 0 420 0zM316.9 197.7c-3-3.5-7.6-6.2-12.8-6.2-5.1 0-8.7 2.4-12.8 5.7L272.6 213c-3.9 2.8-7 4.7-11.5 4.7-4.3 0-8.2-1.6-11-4.1-1-.9-2.8-2.6-4.3-4.1L192 151.3c-4-4.6-10-7.5-16.7-7.5-6.7 0-12.9 3.3-16.8 7.8L32 304.2V43.7C33 36.9 38.3 32 45.1 32h357.7c6.9 0 12.5 5.1 12.9 12l.3 260.4-99.1-106.7z"/></svg>