<svg xmlns="http://www.w3.org/2000/svg" viewBox="0 0 279.7900390625 448.0150146484375"><path d="M8.383 8.109L22.189.024 279.79 439.931l-13.807 8.084zM128.1 321.4c12.3 0 23.8-2.9 34.2-8.2L48.9 120.4V238c0 46 35.4 83.4 79.2 83.4zm78.8-83.4V83.5c0-46-35.2-83.5-79-83.5-25.4 0-47.8 12.6-62.3 32.2l136.9 233.3c2.9-8.6 4.4-17.9 4.4-27.5zm49 1.7V160h-17v79.7c0 21.5-6.2 41.6-17.1 58.5l9.9 17c15.3-21.2 24.2-47.3 24.2-75.5z"/><path d="M138.9 367.2c17-1.2 33-5.8 47.3-13l-9.4-16.1c-14.5 7-30.7 10.9-47.7 10.9C68.8 349 19 300 19 239.9V160H0v79.7c0 67.2 53 122.6 120 127.4V430H47v18h161v-18h-69v-62.8z"/></svg>