<svg xmlns="http://www.w3.org/2000/svg" viewBox="0 0 480 224"><path d="M370.2 0c-60.6 0-109.8 50.1-109.8 112 0 40.4 21 75.7 52.5 95.4H167.1c31.5-19.7 52.5-55 52.5-95.4 0-61.9-49.2-112-109.8-112C49.2 0 0 50.1 0 112s49.2 112 109.8 112h260.4c60.6 0 109.8-50.1 109.8-112S430.8 0 370.2 0zM16.3 112c0-52.6 42-95.4 93.5-95.4 51.6 0 93.5 42.8 93.5 95.4s-42 95.4-93.5 95.4c-51.6 0-93.5-42.8-93.5-95.4zm353.9 95.4c-51.6 0-93.5-42.8-93.5-95.4s42-95.4 93.5-95.4 93.5 42.8 93.5 95.4-41.9 95.4-93.5 95.4z"/><path d="M368 64c26.5 0 48 21.5 48 48s-21.5 48-48 48-48-21.5-48-48 21.5-48 48-48m0-16c-35.3 0-64 28.7-64 64s28.7 64 64 64 64-28.7 64-64-28.7-64-64-64zM112 64c26.5 0 48 21.5 48 48s-21.5 48-48 48-48-21.5-48-48 21.5-48 48-48m0-16c-35.3 0-64 28.7-64 64s28.7 64 64 64 64-28.7 64-64-28.7-64-64-64z"/></svg>