<svg xmlns="http://www.w3.org/2000/svg" viewBox="0 0 288 384"><path d="M288 49.3h-80v-20C208 13.1 194.9 0 178.7 0h-69.5C93.1 0 80 13.1 80 29.3v20H0V64h21.1l23.6 290.7c0 16.2 13.1 29.3 29.3 29.3h141c16.2 0 29.3-13.1 29.3-29.3L267.6 64H288V49.3zm-193.4-20c0-8.1 6.6-14.7 14.6-14.7h69.5c8.1 0 14.6 6.6 14.6 14.7v20H94.6v-20zm135 324.6v.8c0 8.1-6.6 14.7-14.6 14.7H74c-8.1 0-14.6-6.6-14.6-14.7v-.8L35.7 64h217.2l-23.3 289.9z"/><path d="M137 96h14v241h-14zm71 0h-14.6l-10.7 241h14.6zM94.5 96H80l10.7 241h14.6z"/></svg>