<svg xmlns="http://www.w3.org/2000/svg" viewBox="0 0 384 288"><path d="M237.815 206.608c-13.114 11.029-28.956 17.356-45.815 17.356-36.36 0-66.286-28.965-70.89-61.965h30.61l-38.87-50-37.534 50h29.479c4.696 42 41.717 78 87.205 78 20.9 0 41.17-7.566 57.076-21.218l2.37-2.159-11.599-11.662-2.032 1.648zm13.921-119.723C235.548 72.11 214.334 64.046 192 64.046c-20.9 0-41.169 7.556-57.075 21.206l-2.371 2.052 11.599 11.61 2.033-1.706C159.113 86.336 175.383 80.203 192 80.203c36.343 0 66.274 28.797 70.891 63.797h-30.644l38.846 51.225L308.719 144h-29.512c-2.241-20-11.932-42.936-27.471-57.115z"/><path d="M353.5 48h-61.725C259.67 12 249.556 0 237.25 0h-88.5c-12.314 0-22.167 12-54.521 48H81V32H47v16H33.5C15.855 48 0 61.217 0 78.684v176.018C0 272.169 15.855 288 33.5 288h320c17.645 0 30.5-15.831 30.5-33.299V78.684C384 61.217 371.145 48 353.5 48zM368 254.701c0 9.263-6.229 17.299-14.5 17.299h-320c-8.738 0-17.5-8.664-17.5-17.299V78.684C16 70.518 24.126 64 33.5 64h66.862c2.009 0 3.225-.199 5.768-3.2s7.702-10.008 11.08-13.795c11.296-12.666 19.457-21.915 25.316-27.132 4.746-4.225 6.211-3.873 6.225-3.873h88.5c.016 0 1.611-.363 6.709 4.219 6.141 5.521 14.705 16.84 26.558 30.198 2.888 3.255 7.214 8.11 9.317 10.44S284.087 64 285.606 64H353.5c8.832 0 14.5 5.965 14.5 14.684v176.017z"/></svg>