<svg xmlns="http://www.w3.org/2000/svg" viewBox="0 0 448 416"><path d="M96 272c26.467 0 48 21.533 48 48s-21.533 48-48 48-48-21.533-48-48 21.533-48 48-48m0-16c-35.346 0-64 28.654-64 64 0 35.347 28.654 64 64 64s64-28.653 64-64c0-35.346-28.654-64-64-64z"/><path d="M351.25 240c44.388 0 80.625 36.112 80.625 80.5S395.888 400 351.5 400h-255C52.112 400 16 364.888 16 320.5S52.112 240 96.5 240H351m.5-16h-255C43.205 224 0 267.205 0 320.5S43.205 416 96.5 416h255c53.295 0 96.5-42.205 96.5-95.5S404.795 224 351.5 224zm.5-176c26.467 0 48 21.533 48 48s-21.533 48-48 48-48-21.533-48-48 21.533-48 48-48m0-16c-35.346 0-64 28.654-64 64 0 35.347 28.654 64 64 64s64-28.653 64-64c0-35.346-28.654-64-64-64z"/><path d="M97 16h254.5c44.388 0 80.5 36.112 80.5 80.5S395.888 176 351.5 176h-255c-44.388 0-80.375-35.112-80.375-79.5S52.362 16 96.75 16M96.5 0C43.205 0 0 43.205 0 96.5S43.205 192 96.5 192h255c53.295 0 96.5-42.205 96.5-95.5S404.795 0 351.5 0h-255z"/></svg>