<svg xmlns="http://www.w3.org/2000/svg" viewBox="0 0 388.3360290527344 384"><path d="M381.995 131.5c-4.383-11.73-11.753-20.212-21.317-24.524-4.389-1.975-8.995-2.976-13.688-2.976-20.025 0-40.372 18.667-50.632 46.454-12.698 34.42-5.315 68.135 17.173 78.423 4.522 2.071 9.365 3.123 14.394 3.123 20.396 0 41.126-17.119 51.581-42.596 7.9-19.283 8.83-40.927 2.489-57.904zm-17.613 50.795c-7.836 18.898-22.994 32.098-36.862 32.098-2.809 0-5.488-.569-7.968-1.694-14.121-6.394-17.862-31.059-8.518-56.152 7.775-20.817 22.448-35.355 35.683-35.355 2.51 0 4.979.533 7.34 1.588 6.88 3.067 10.622 9.712 12.551 14.745 4.91 12.807 4.078 29.543-2.226 44.77zM91.979 150.454C81.719 122.667 61.372 104 41.347 104c-4.693 0-9.3 1.001-13.689 2.976-9.565 4.312-16.934 12.794-21.317 24.524C0 148.477.93 170.121 8.831 189.404 19.286 214.881 40.016 232 60.412 232c5.028 0 9.871-1.052 14.394-3.123 22.488-10.288 29.871-44.003 17.173-78.423zm-23.195 62.244c-2.479 1.125-5.16 1.694-7.968 1.694-13.868 0-29.026-13.199-36.862-32.098-6.304-15.227-7.136-31.963-2.226-44.771 1.929-5.033 5.671-11.678 12.551-14.745 2.361-1.055 4.83-1.588 7.34-1.588 13.234 0 27.907 14.538 35.683 35.355 9.345 25.095 5.603 49.76-8.518 56.153zm67.731-66.097c1.855.081 3.727.03 5.563-.151 10.787-1.059 20.54-6.594 28.207-16.008 12.371-15.191 15.806-38.974 13.201-63.439C179.504 29.3 159.637 1.161 132.944 0c0 0-3.811.008-5.75.193-11.776 1.164-22.481 7.283-30.957 17.695-12.291 15.101-18.198 37.57-15.803 60.104 3.936 37.277 28.57 67.412 56.081 68.609zm-27.3-118.77c3.923-4.739 10.51-10.577 19.62-11.476a24.165 24.165 0 0 1 3.404-.098c18.207.792 31.859 23.271 34.936 52.428 2.146 20.15-.148 40.055-9.845 51.779-4.874 5.898-10.556 9.204-16.881 9.825a23.302 23.302 0 0 1-3.229.087c-19.257-.838-37.414-25.091-40.473-54.067-1.968-18.53 2.694-36.653 12.468-48.478zM194.168 176c-64 0-128 76.074-128 149.128 0 21.798 10.932 39.331 21.667 46.517C101.093 380.516 110.437 384 129.872 384c23.093 0 29.325-8.078 40.136-15.205 7.819-5.152 14.572-9.605 24.161-9.605s16.342 4.453 24.16 9.605C229.14 375.922 235.371 384 258.465 384c19.434 0 28.778-3.484 42.036-12.355 10.735-7.186 21.667-24.719 21.667-46.517 0-73.054-64-149.128-128-149.128zm97.963 180.776c-10.964 7.337-17.366 9.778-33.666 9.778-14.225 0-18.624-3.201-25.911-8.51-1.848-1.344-3.759-2.736-5.946-4.177-8.619-5.682-18.39-12.123-32.439-12.123s-23.82 6.441-32.438 12.121c-2.189 1.442-4.1 2.835-5.947 4.179-7.287 5.309-11.686 8.51-25.911 8.51-16.3 0-22.703-2.441-33.667-9.778-5.643-3.776-14.038-15.32-14.038-31.648 0-30.277 13.377-64.231 35.783-90.823 10.886-12.921 23.517-23.6 36.526-30.885 13.404-7.503 26.758-11.42 39.691-11.42 12.934 0 26.287 3.917 39.691 11.42 13.01 7.285 25.64 17.964 36.525 30.885 22.407 26.591 35.784 60.546 35.784 90.823 0 16.328-8.395 27.872-14.037 31.648zm-45.682-210.511c1.836.182 3.709.232 5.563.151 27.511-1.196 52.146-31.332 56.081-68.607 2.395-22.534-3.514-45.004-15.804-60.104-8.476-10.412-18.783-16.228-30.56-17.392-1.939-.186-6.146-.312-6.146-.312-26.693 1.161-46.561 29.115-50.542 66.817-2.604 24.466.83 48.248 13.2 63.439 7.668 9.414 17.421 14.949 28.208 16.008zm-25.095-77.764c3.076-29.156 16.729-51.636 34.936-52.428a24.02 24.02 0 0 1 3.404.098c9.109.898 15.696 6.736 19.619 11.476 9.774 11.825 14.436 29.948 12.468 48.479-3.06 28.977-21.216 53.229-40.474 54.067a23.314 23.314 0 0 1-3.229-.087c-6.324-.621-12.007-3.927-16.881-9.825-9.695-11.725-11.99-31.63-9.843-51.78z"/></svg>