<svg xmlns="http://www.w3.org/2000/svg" viewBox="0 0 274 192.00003051757812"><path d="M125 15.8c14.5 0 28.1 4.8 39.3 13.9 10.9 8.9 18.6 21.3 21.7 34.9l3.1 14 14.2-1.8c2.1-.3 4.1-.4 6.1-.4 26.9 0 48.8 22.1 48.8 49.2s-21.9 49.2-48.8 49.2H51.7c-9.5 0-18.5-3.9-25.4-10.8-6.8-7-10.6-16.2-10.6-25.9 0-18.6 14.5-33.8 33.2-36.9 1.6-.3 8.7-1.2 14.2-1.7 0 0-.5-5.3-.6-9.6-.1-4.3-.1-9.4-.1-11.5.1-34.4 28.1-62.6 62.6-62.6M125 0C82 0 46.7 35.2 46.7 78.5c0 2.6.1 5.2.4 7.8C20.7 88.6 0 111.8 0 138.9 0 167.5 23.2 192 51.7 192h157.7c35.7 0 64.6-29.9 64.6-65.7S245.1 61 209.4 61c-2.7 0-5.4 0-8 .3C193.5 26.3 162 0 125 0z"/></svg>