<svg xmlns="http://www.w3.org/2000/svg" viewBox="0 0 448 448"><path d="M256 48.826c45.293 3.705 87.354 23.024 119.809 55.494C412.044 140.57 432 188.744 432 240.043c0 25.924-5.08 51.042-15.099 74.703-9.68 22.859-23.54 43.384-41.194 61.024-17.654 17.639-38.204 31.481-61.08 41.151-23.673 10.01-48.823 15.081-74.752 15.081-41.193 0-80.47-12.847-113.584-37.146a193.027 193.027 0 0 1-41.633-41.692 191.38 191.38 0 0 1-21.041-36.634l180.259-45.008L256 268.496V49m-16-17v224L42.245 305.376C69.653 388.221 147.841 448 239.875 448 354.75 448 448 354.875 448 240S355 32 240 32z"/><path d="M208 16.181v214.943l-180.342 45.73c-9.117-23.568-11.197-56.973-11.158-69.496v-.071c0-47.311 16.465-93.746 45.173-127.398 16.735-19.618 37.502-34.981 61.721-45.663C148.099 23.331 176.519 17.274 208 16.181M224 0h-5.5C58.5 0 0 116.25 0 207.287c0 0 .25 56.666 18.91 88.291L224 243.573V0z"/></svg>