<svg xmlns="http://www.w3.org/2000/svg" viewBox="0 0 224 448"><path d="M224 138.085c0-21.022-.973-88.554-19.308-125.013C200.244 4.228 192.25 0 172.999 0H51.001c-19.25 0-27.246 4.197-31.693 13.041C.973 49.5 0 117.25 0 138.272c0 98 32 100.353 32 180.853 0 39.5-16 71.402-16 99.402 0 27 9 29.473 32 29.473h128c23 0 32-2.535 32-29.535 0-28-16-59.715-16-99.215 0-80.5 32-83.165 32-181.165zM33.602 19.983c.778-1.546 1.339-1.763 2.53-2.295C38.109 16.804 42.293 16 51.001 16h121.998c8.708 0 12.893.803 14.869 1.687 1.19.532 1.752.872 2.53 2.418 8.029 15.967 13.601 42.611 16.105 75.896H17.496c2.505-33.348 8.076-60.05 16.106-76.018zm157.029 410.653C188.76 431.377 183.844 432 176 432H48c-7.844 0-12.761-.623-14.639-1.359-.394-.93-1.361-4.166-1.361-12.27 0-10.856 3.016-23.16 6.508-37.334C42.957 362.978 48 342.48 48 319.094c0-40.997-7.993-63.802-15.724-85.842C24.274 210.438 16 186.838 16 138.155c0-9.025.191-17.756.558-26.155h190.886c.365 8.376.557 17.083.557 26.085 0 48.688-8.276 72.302-16.28 95.169-7.728 22.079-15.72 44.895-15.72 85.887 0 23.39 5.043 43.822 9.493 61.856 3.491 14.15 6.507 26.368 6.507 37.222-.001 8.136-.977 11.494-1.37 12.417z"/></svg>