<svg xmlns="http://www.w3.org/2000/svg" viewBox="0 0 416 416"><path d="M208 0C93.137 0 0 93.136 0 208s93.137 208 208 208c114.872 0 208-93.138 208-208S322.87 0 208 0zm41.151 394.179c-13.514 2.657-30.327 4.187-44 4.45a190.525 190.525 0 0 1-38.5-4.493 978.146 978.146 0 0 1-6.805-1.777l-24.417-65.435L155.074 288h105.854l.57 1.076 19.34 38.852-23.618 64.282a189.782 189.782 0 0 1-8.069 1.969zM41.317 115.522l18.188 52.284.175.504-42.304 36.61c.516-32.385 9.144-62.832 23.941-89.398zM141.578 29.28L199 68.576v58.147l-70.997 60.067L78.6 164.28l-4.167-1.899-22.332-64.019C74.11 67.158 105.239 42.83 141.578 29.28zm135.447 169.926l.921.765L259.569 272H156.431l-18.485-72.453.445-.376 68.873-58.27 69.761 58.305zm121.601 5.715l-42.454-36.738.127-.364 18.298-52.451c14.85 26.604 23.512 57.105 24.029 89.553zM363.564 98.067l-22.432 64.483-53.992 24.388L216 126.723V68.576l57.596-39.415c36.362 13.483 67.905 37.752 89.968 68.906zM18.144 225.414L71.9 178.896l49.539 22.599.559.255 19.718 77.287-20.433 38.529-69.86-.915c-18.348-26.36-30.214-57.546-33.279-91.237zm276.575 92.151l-20.434-38.529 19.752-77.416 49.997-22.781 53.822 46.575c-3.065 33.691-14.932 64.877-33.277 91.236l-69.86.915zM207.257 54.67l-46.126-31.498A190.3 190.3 0 0 1 208 17.337c15.961 0 31.466 1.982 46.293 5.694L207.257 54.67zm-88.834 278.859l.848 2.511 19.946 49.781c-29.239-11.351-55.011-29.704-75.232-53.006l54.438.714zm158.14 52.375l17.934-48.608 1.627-3.748 55.892-.732c-20.272 23.359-46.123 41.746-75.453 53.088z"/></svg>