<svg xmlns="http://www.w3.org/2000/svg" viewBox="0 0 384.696044921875 448"><path d="M327.4 350.994l-.15-.124L260.084 240H124.938L58.389 350.855l-.166.042-.177.302c-5.461 8.334-8.319 18.773-8.319 24.717 0 12.945 4.481 16.848 5.954 18.088 4.46 3.76 12.667 5.996 23.731 5.996h225.932c10.278 0 18.232-2.521 23.007-6.85 4.205-3.814 6.454-9.956 6.683-17.795.172-5.904-2.093-15.968-7.476-24.18l-.158-.181z"/><path d="M373.296 338.441L256.384 143V16h16V0h-160v16h16v127L12.509 338.441C4.099 354.268 0 369.814.412 384c1.061 36.511 28.701 64 65.065 64h255.888c36.292 0 62.132-27.598 62.993-64 .338-14.244-2.607-29.651-11.062-45.559zM144.384 32h48v16h-48V32zm0 48h32v16h-32V80zm0 48h48v16h-48v-16zm-16.739 48h48.739v16h-58.179l9.44-16zm223.379 200.041c-.706 24.248-15.877 39.959-45.68 39.959H79.411c-29.862 0-45.682-12.25-45.682-39.834 0-9.455 4.029-23.008 10.937-33.55L115.874 224h153.228l71.836 118.717c6.943 10.595 10.362 23.836 10.086 33.324z"/></svg>