<svg xmlns="http://www.w3.org/2000/svg" viewBox="0 0 384 384"><path d="M330.6 277.2c-29.5 0-53.4 23.9-53.4 53.4s23.9 53.4 53.4 53.4 53.4-23.9 53.4-53.4-23.9-53.4-53.4-53.4zm-138.6 0c-29.5 0-53.4 23.9-53.4 53.4S162.5 384 192 384s53.4-23.9 53.4-53.4-23.9-53.4-53.4-53.4zm-138.6 0C23.9 277.2 0 301.1 0 330.6S23.9 384 53.4 384s53.4-23.9 53.4-53.4-23.9-53.4-53.4-53.4zm277.2-138.6c-29.5 0-53.4 23.9-53.4 53.4s23.9 53.4 53.4 53.4S384 221.5 384 192s-23.9-53.4-53.4-53.4zm-138.6 0c-29.5 0-53.4 23.9-53.4 53.4s23.9 53.4 53.4 53.4 53.4-23.9 53.4-53.4-23.9-53.4-53.4-53.4zm-138.6 0C23.9 138.6 0 162.5 0 192s23.9 53.4 53.4 53.4 53.4-23.9 53.4-53.4-23.9-53.4-53.4-53.4zm277.2-31.8c29.5 0 53.4-23.9 53.4-53.4S360.1 0 330.6 0s-53.4 23.9-53.4 53.4 23.9 53.4 53.4 53.4zM192 0c-29.5 0-53.4 23.9-53.4 53.4s23.9 53.4 53.4 53.4 53.4-23.9 53.4-53.4S221.5 0 192 0zM53.4 0C23.9 0 0 23.9 0 53.4s23.9 53.4 53.4 53.4 53.4-23.9 53.4-53.4S82.9 0 53.4 0z"/></svg>