<svg xmlns="http://www.w3.org/2000/svg" viewBox="0 0 489.3740234375 408"><path d="M478.06 204l-41.373 41.373L394.314 204 383.5 214.813 436.687 268l52.687-52.687z"/><path d="M448.681 203.509c-.002-.577.013-1.157.007-1.733l-.029-.003C447.458 90.311 356.429 0 244.687 0c-73.59 0-141.753 39.878-177.888 104.071l13.943 7.848C114.046 52.754 176.867 16 244.687 16c103.273 0 187.355 83.708 187.985 186.836.038 6.882-.281 13.83-1.017 20.831l15.912 1.674A205.256 205.256 0 0 0 448.678 204h.009c0-.164-.006-.327-.006-.491zm-40.05 92.572C375.328 355.246 312.507 392 244.687 392c-103.475 0-187.688-84.032-187.993-187.437-.015-6.686.31-13.434 1.024-20.23l-15.912-1.674A204.972 204.972 0 0 0 40.698 204h-.011c0 .472.015.939.018 1.41.006.975-.006 1.952.015 2.924l.022-.003C43.056 318.825 133.649 408 244.687 408c73.59 0 141.753-39.878 177.888-104.071l-13.944-7.848z"/><path d="M52.687 140L0 192.687 11.314 204l41.373-41.373L94.06 204l11.314-11.313z"/></svg>