<svg xmlns="http://www.w3.org/2000/svg" viewBox="0 0 383.9000244140625 289.0999755859375"><path d="M360.6 193.7c-2 .1-3.9.1-5.9.1-32.3 0-62.7-12.6-85.5-35.5-22.8-22.9-35.4-53.3-35.4-85.7 0-18.4 4.1-36.2 11.8-52.4 3.4-7.1 7.5-13.9 12.3-20.2-8.4.9-16.6 2.7-24.4 5.1-37.2 11.8-67.1 40.2-81 76.5-.3.8-.6 1.5-.9 2.3 11.9 3.5 23.1 9.4 32.8 17.3 13 10.6 22.9 24.5 28.8 40.1 20.1.9 38.9 9.4 53.3 24 15.2 15.4 23.5 35.9 23.5 57.4 0 11.4-2.4 22.5-6.8 32.8.8-.1 1.6-.1 2.5-.2 33.6-3.6 63.3-20.1 84-44.6 5.4-6.3 10.2-13.2 14.2-20.5-7.5 2-15.3 3.1-23.3 3.5z"/><path d="M125 97.1c-43.3 0-78.3 35.2-78.3 78.5 0 2.6.1 5.2.4 7.8C20.7 185.8 0 208.9 0 236c0 28.6 23.2 53.1 51.7 53.1h157.7c35.7 0 64.6-29.9 64.6-65.7 0-35.8-28.9-65.3-64.6-65.3-2.7 0-5.4 0-8 .3-7.9-35-39.1-61.3-76.4-61.3z"/></svg>