<svg xmlns="http://www.w3.org/2000/svg" viewBox="0 0 448 220"><path d="M162.822 94H128V59.238c0-2.817-2.604-5.238-5.303-5.238h-22.145C97.854 54 96 56.372 96 59.178V94H60.533C57.918 94 56 96.143 56 98.771v21.427c0 2.698 2.031 5.803 4.861 5.803H96v35.467c0 2.615 2.143 4.533 4.771 4.533h21.427c2.698 0 5.803-2.031 5.803-4.861V126h34.762c2.817 0 5.238-2.604 5.238-5.303V98.552C168 95.854 165.628 94 162.822 94zm167.492 39.063c-10.736 0-19.451 8.515-19.451 19.153 0 10.555 8.715 19.084 19.451 19.084 10.783 0 19.498-8.529 19.498-19.084 0-10.638-8.714-19.153-19.498-19.153zm-42.548-41.898c-10.736 0-19.451 8.603-19.451 19.168 0 10.566 8.715 19.153 19.451 19.153 10.783 0 19.498-8.587 19.498-19.153 0-10.565-8.715-19.168-19.498-19.168zm85.096 0c-10.729 0-19.442 8.603-19.442 19.168 0 10.566 8.714 19.153 19.442 19.153 10.737 0 19.452-8.587 19.452-19.153 0-10.565-8.714-19.168-19.452-19.168zm-42.548-41.864c-10.736 0-19.451 8.602-19.451 19.169 0 10.566 8.715 19.146 19.451 19.146 10.783 0 19.498-8.579 19.498-19.146 0-10.568-8.714-19.169-19.498-19.169z"/><path d="M337.269 16c25.838 0 49.704 9.314 67.204 26.229C422.225 59.386 432 83.247 432 109.418c0 26.303-9.806 50.405-27.611 67.869-17.563 17.226-41.4 26.713-67.12 26.713h-226.53c-25.712 0-49.548-9.487-67.117-26.715C25.81 159.818 16 135.717 16 109.418c0-26.167 9.78-50.028 27.539-67.188C61.043 25.315 84.909 16 110.739 16h226.53m0-16h-226.53C49.541 0 0 45.458 0 109.418 0 173.419 49.541 220 110.739 220h226.529C398.49 220 448 173.419 448 109.418 448 45.458 398.49 0 337.269 0z"/></svg>