<svg xmlns="http://www.w3.org/2000/svg" viewBox="0 0 480 416"><path d="M432 225.001c-21.27 0-39.296 13.999-45.596 32.999h-38.857l-28.361-85.417a15.999 15.999 0 0 0-15.183-10.956c-.112 0-.224 0-.335.004a15.997 15.997 0 0 0-15.049 11.588l-44.484 155.262-52.353-314.108C190.535 6.893 184.333 0 176 0s-13.693 5.776-15.525 13.135L99.496 258H0v31.999h112c7.348 0 13.75-5.003 15.525-12.134l45.368-182.177 51.324 307.94c1.229 7.377 7.397 11.92 14.864 12.344.308.018.614.028.919.028 7.097 0 13.406-3.701 15.381-10.594l49.744-173.617 15.689 47.252A16.001 16.001 0 0 0 336 289.999h51.108C393.973 307.999 411.477 321 432 321c26.511 0 48-22.492 48-49 0-26.509-21.489-46.999-48-46.999z"/></svg>