<svg xmlns="http://www.w3.org/2000/svg" viewBox="0 0 464.04095458984375 208"><path d="M432.845 30.377C412.806 10.788 386.086 0 357.609 0c-28.477 0-55.195 10.788-75.21 30.354l-39.106 37.885 25.06 24.689 38.843-37.769c13.458-13.095 31.321-20.307 50.299-20.307 18.979 0 36.841 7.212 50.282 20.291 13.363 13.077 20.712 30.468 20.693 48.97-.019 18.443-7.363 35.75-20.677 48.728-13.458 13.095-31.32 20.307-50.299 20.307-18.978 0-36.841-7.212-50.291-20.299L181.67 30.359C161.515 10.782 134.802 0 106.451 0c-28.477 0-55.195 10.788-75.23 30.373C11.127 49.986.047 76.132.024 103.993c-.024 27.822 11.055 53.973 31.192 73.63C51.256 197.212 77.975 208 106.451 208c28.475 0 55.194-10.788 75.223-30.363l38.994-37.909-25.088-24.502-38.829 37.615c-13.458 13.095-31.321 20.307-50.3 20.307-18.977 0-36.839-7.212-50.28-20.291-13.364-13.077-20.714-30.469-20.694-48.971.019-18.443 7.363-35.749 20.678-48.727 13.458-13.095 31.32-20.307 50.297-20.307 18.979 0 36.842 7.212 50.292 20.299L282.276 177.64C302.43 197.218 329.143 208 357.494 208c28.476 0 55.194-10.788 75.213-30.355 20.179-19.573 31.301-45.727 31.317-73.64.017-27.838-11.058-53.987-31.179-73.628z"/></svg>