<svg xmlns="http://www.w3.org/2000/svg" viewBox="0 0 480 224.10000610351562"><path d="M370.2.1C309.6.1 260.4 50 260.4 111.9c0 40.4 21 76.2 52.5 95.2H167.1c31.5-19 52.5-54.8 52.5-95.2C219.6 50 170.4 0 109.8 0 49.2 0 0 50.2 0 112c0 61.9 49.2 112.1 109.8 112.1h260.4c60.6 0 109.8-50.1 109.8-112S430.8.1 370.2.1zM112 176.1c-35.3 0-64-28.7-64-64s28.7-64 64-64 64 28.7 64 64-28.7 64-64 64zm256 0c-35.3 0-64-28.7-64-64s28.7-64 64-64 64 28.7 64 64-28.7 64-64 64z"/><path d="M368 64.1c-26.5 0-48 21.5-48 48s21.5 48 48 48 48-21.5 48-48-21.5-48-48-48zm-256 0c-26.5 0-48 21.5-48 48s21.5 48 48 48 48-21.5 48-48-21.5-48-48-48z"/></svg>