<svg xmlns="http://www.w3.org/2000/svg" viewBox="0 0 448 220"><path d="M337.269 0h-226.53C49.541 0 0 45.458 0 109.418 0 173.419 49.541 220 110.739 220h226.529C398.49 220 448 173.419 448 109.418 448 45.458 398.49 0 337.269 0zM168 120.697c0 2.698-2.421 5.303-5.238 5.303H128v35.139c0 2.83-3.104 4.861-5.803 4.861H100.77c-2.628 0-4.771-1.918-4.771-4.533V126H60.861c-2.83 0-4.861-3.104-4.861-5.803V98.77c0-2.628 1.918-4.771 4.533-4.771H96V59.177c0-2.806 1.854-5.178 4.553-5.178h22.145c2.698 0 5.303 2.421 5.303 5.238V94h34.822c2.806 0 5.178 1.854 5.178 4.553v22.144zm119.766 8.789c-10.736 0-19.451-8.587-19.451-19.153 0-10.565 8.715-19.168 19.451-19.168 10.783 0 19.498 8.603 19.498 19.168 0 10.566-8.715 19.153-19.498 19.153zm42.548 41.815c-10.736 0-19.451-8.529-19.451-19.084 0-10.639 8.715-19.153 19.451-19.153 10.783 0 19.498 8.515 19.498 19.153 0 10.554-8.714 19.084-19.498 19.084zm0-83.686c-10.736 0-19.451-8.579-19.451-19.146S319.578 49.3 330.314 49.3c10.783 0 19.498 8.602 19.498 19.169s-8.714 19.146-19.498 19.146zm42.548 41.871c-10.729 0-19.442-8.587-19.442-19.153 0-10.565 8.714-19.168 19.442-19.168 10.737 0 19.452 8.603 19.452 19.168 0 10.566-8.714 19.153-19.452 19.153z"/></svg>