<svg xmlns="http://www.w3.org/2000/svg" viewBox="0 0 384 384"><path d="M330.6 277.2c-29.5 0-53.4 23.9-53.4 53.4s23.9 53.4 53.4 53.4 53.4-23.9 53.4-53.4-23.9-53.4-53.4-53.4zm0 90.8c-20.6 0-37.4-16.8-37.4-37.4 0-20.6 16.8-37.4 37.4-37.4S368 310 368 330.6c0 20.6-16.8 37.4-37.4 37.4zM192 277.2c-29.5 0-53.4 23.9-53.4 53.4S162.5 384 192 384s53.4-23.9 53.4-53.4-23.9-53.4-53.4-53.4zm0 90.8c-20.6 0-37.4-16.8-37.4-37.4 0-20.6 16.8-37.4 37.4-37.4s37.4 16.8 37.4 37.4c0 20.6-16.8 37.4-37.4 37.4zM53.4 277.2C23.9 277.2 0 301.1 0 330.6S23.9 384 53.4 384s53.4-23.9 53.4-53.4-23.9-53.4-53.4-53.4zm0 90.8C32.8 368 16 351.2 16 330.6c0-20.6 16.8-37.4 37.4-37.4s37.4 16.8 37.4 37.4c0 20.6-16.7 37.4-37.4 37.4zm277.2-229.4c-29.5 0-53.4 23.9-53.4 53.4s23.9 53.4 53.4 53.4S384 221.5 384 192s-23.9-53.4-53.4-53.4zm0 90.8c-20.6 0-37.4-16.8-37.4-37.4 0-20.6 16.8-37.4 37.4-37.4S368 171.4 368 192c0 20.6-16.8 37.4-37.4 37.4zM192 138.6c-29.5 0-53.4 23.9-53.4 53.4s23.9 53.4 53.4 53.4 53.4-23.9 53.4-53.4-23.9-53.4-53.4-53.4zm0 90.8c-20.6 0-37.4-16.8-37.4-37.4 0-20.6 16.8-37.4 37.4-37.4s37.4 16.8 37.4 37.4c0 20.6-16.8 37.4-37.4 37.4zM53.4 138.6C23.9 138.6 0 162.5 0 192s23.9 53.4 53.4 53.4 53.4-23.9 53.4-53.4-23.9-53.4-53.4-53.4zm0 90.8C32.8 229.4 16 212.6 16 192c0-20.6 16.8-37.4 37.4-37.4s37.4 16.8 37.4 37.4c0 20.6-16.7 37.4-37.4 37.4zm277.2-122.6c29.5 0 53.4-23.9 53.4-53.4S360.1 0 330.6 0s-53.4 23.9-53.4 53.4 23.9 53.4 53.4 53.4zm0-90.8c20.6 0 37.4 16.8 37.4 37.4 0 20.6-16.8 37.4-37.4 37.4S293.2 74 293.2 53.4c0-20.6 16.7-37.4 37.4-37.4zM192 0c-29.5 0-53.4 23.9-53.4 53.4s23.9 53.4 53.4 53.4 53.4-23.9 53.4-53.4S221.5 0 192 0zm0 90.8c-20.6 0-37.4-16.8-37.4-37.4 0-20.6 16.8-37.4 37.4-37.4s37.4 16.8 37.4 37.4c0 20.6-16.8 37.4-37.4 37.4zM53.4 0C23.9 0 0 23.9 0 53.4s23.9 53.4 53.4 53.4 53.4-23.9 53.4-53.4S82.9 0 53.4 0zm0 90.8C32.8 90.8 16 74 16 53.4 16 32.8 32.8 16 53.4 16s37.4 16.8 37.4 37.4c0 20.6-16.7 37.4-37.4 37.4z"/></svg>