<svg xmlns="http://www.w3.org/2000/svg" viewBox="0 0 364.02197265625 384"><path d="M364.011 123.713l-31.927-55.426-118.073 68.287V0h-64v136.574L31.938 68.287 0 123.713 118.103 192 .009 260.287l31.928 55.426 118.074-68.287V384h64V247.426l118.072 68.287 31.939-55.426L245.919 192l118.092-68.287zm-21.824 142.412l-15.963 27.866L198.011 220v148h-32V220L37.798 294l-15.969-27.785 128.228-74.197-128.224-74.157 15.964-27.859L166.011 164V16h32v148l128.213-74 15.969 27.785-128.228 74.179 128.222 74.161z"/></svg>