<svg xmlns="http://www.w3.org/2000/svg" viewBox="0 0 448.0000305175781 448"><path d="M224 0C109.174 0 14.544 86.404 1.54 197.739A226.3 226.3 0 0 0 0 224c0 1.783.026 3.561.067 5.333C2.901 350.581 102.071 448 224 448c105.255 0 193.537-72.602 217.542-170.454a222.832 222.832 0 0 0 3.404-16.579A225.536 225.536 0 0 0 448 224C448 100.288 347.712 0 224 0zm206.585 248.352c-7.265-7.807-13.064-16.09-15.702-20.429-.871-1.47-21.682-35.994-52.828-35.994-27.937 0-42.269 26.269-51.751 43.65-1.415 2.593-2.75 5.041-3.978 7.118-11.566 19.587-27.693 30.608-43.105 29.541-13.586-.959-25.174-11.403-32.628-29.41-9.331-22.54-29.551-46.812-53.689-50.229-11.428-1.619-28.553.866-45.325 21.876-3.293 4.124-6.964 9.612-11.215 15.967-10.572 15.804-26.549 39.686-38.653 41.663-21.02 3.438-35.021-12.596-35.583-13.249l-.487-.58-.587-.479c-.208-.17-15.041-12.417-29.047-33.334 0-.155-.006-.31-.006-.464 0-28.087 5.497-55.325 16.339-80.958 10.476-24.767 25.476-47.013 44.583-66.12s41.354-34.107 66.12-44.583C168.675 21.497 195.913 16 224 16s55.325 5.497 80.958 16.339c24.767 10.476 47.013 25.476 66.12 44.583s34.107 41.354 44.583 66.12C426.503 168.675 432 195.913 432 224c0 8.197-.482 16.318-1.415 24.352z"/></svg>