<svg xmlns="http://www.w3.org/2000/svg" viewBox="0 0 288 384"><path d="M32 96h224V32H32v64zm16-48h192v32H48V48z"/><path d="M256 0H32C14.3 0 0 14.3 0 32v320c0 17.7 14.3 32 32 32h224c17.7 0 32-14.3 32-32V32c0-17.7-14.3-32-32-32zm16 352c0 8.8-7.2 16-16 16H32c-8.8 0-16-7.2-16-16V32c0-8.8 7.2-16 16-16h224c8.8 0 16 7.2 16 16v320z"/><path d="M48 176v-48H32v64h64v-16H80zm0 80v-48H32v64h64v-16H80zm0 80v-48H32v64h64v-16H80zm80-160v-48h-16v64h64v-16h-16zm80 0v-48h-16v64h64v-16h-16zm-80 80v-48h-16v64h64v-16h-16zm0 80v-48h-16v64h64v-16h-16zm80 0V208h-16v144h64v-16h-16z"/></svg>