<svg xmlns="http://www.w3.org/2000/svg" viewBox="0 0 192.635986328125 448"><path d="M104.323 276.988c0-21.975 20.458-38.674 40.247-54.824 7.907-6.453 15.37-12.547 21.519-18.962 26.547-27.697 26.234-51.744 26.234-71.058V128c0-44.25-30.816-124.558-32.02-128H32.323c-1.203 3.442-32 83.5-32 128v4.144c0 19.273-.323 43.361 26.225 71.059 6.148 6.415 13.617 12.509 21.523 18.962 19.789 16.15 40.252 32.85 40.252 54.824V432h-72v16h160v-16h-72V276.988zM43.052 16h106.522c5.359 15.99 19.509 62.712 24.836 96H18.217c5.327-33.288 19.476-80.01 24.835-96z"/></svg>