<svg xmlns="http://www.w3.org/2000/svg" viewBox="0 0 468.6510009765625 416.00201416015625"><path d="M356.93 85.397C284.227 12.693 167.705 0 95.175.002 56.249.003 29.984 3.66 29.984 3.66S0 218.887 111.72 330.607c72.704 72.704 189.222 85.395 261.754 85.395 38.926 0 65.192-3.658 65.192-3.658s29.985-215.226-81.736-326.947zM43.467 17.21c10.995-1.014 29.232-2.208 51.714-2.208h.144l-.068-.071c27.167 0 53.167 1.754 77.792 5.22l-126.6 126.581a515.877 515.877 0 0 1-2.64-22.246c-4.586-47.435-2.086-88.228-.342-107.276zm78.758 302.894c-23.85-23.852-42.793-54.938-56.304-92.396-6.973-19.332-12.51-40.373-16.57-62.866l141.812-141.79c10.672 1.929 21.064 4.191 31.141 6.804 52.027 13.492 93.783 35.708 124.139 66.064 23.851 23.85 42.786 54.928 56.297 92.386 6.974 19.333 12.509 40.375 16.567 62.871L277.495 392.988c-10.66-1.93-21.041-4.191-31.104-6.801-52.03-13.489-93.806-35.726-124.166-66.083zm302.961 78.766c-10.994 1.012-29.23 2.275-51.71 2.275-27.192 0-53.225-1.77-77.876-5.25l126.607-126.607a516.862 516.862 0 0 1 2.638 22.233c4.588 47.437 2.086 88.298.341 107.349z"/><path d="M285.629 269.849l22.625 22.632-28.654 28.652 11.315 11.314 67.881-67.881-11.314-11.314-28.721 28.721-22.625-22.631 28.716-28.717-11.313-11.313-28.715 28.714-22.633-22.638 28.702-28.702-11.313-11.314-28.7 28.7-22.626-22.631 28.697-28.697-11.314-11.313-28.694 28.695-22.631-22.637 28.687-28.687-11.313-11.313-28.685 28.685-22.624-22.63 28.682-28.682-11.313-11.313-67.883 67.882 11.314 11.314 28.693-28.694 22.624 22.63-28.691 28.691 11.313 11.313 28.689-28.689 22.63 22.637-28.678 28.679 11.313 11.313 28.677-28.677 22.626 22.631-28.674 28.674 11.314 11.313 28.671-28.671 22.633 22.638-28.66 28.66 11.314 11.314z"/></svg>