<svg xmlns="http://www.w3.org/2000/svg" viewBox="0 0 416 416.0000305175781"><path d="M.05 203.555l-.004.116h.003l.001-.116zm212.261 212.359c.066-.002.133-.006.199-.007-.066.001-.133.001-.199.004v.003z"/><path d="M208 0c-2.586 0-5.29.064-7.852.158L200 .152v.006c-5 .199-10 .602-16 1.205v-.008c0 .005.083.008.072.012C87.098 12.428 10.418 90.342.942 187.777c-.004.018.045.222.042.222h.007c-.513 5-.826 10-.936 16H.051l.003-.152c-.028 1.43-.054 2.777-.054 4.215C0 322.914 92.977 416 207.841 416c6.856 0 14.159-.383 20.159-1.031v.006c0-.004.213-.008.24-.014 97.436-9.486 175.247-86.086 186.312-183.036.004-.014.088.074.092.074h-.008c.889-8 1.363-15.859 1.363-23.904C416 93.244 322.87 0 208 0zM82.63 218.852c-20.895-8.474-42.788-13.43-65.244-14.816.11-5.374.438-10.695.986-15.952 52.568 3.275 104.203 24.977 144.375 65.146s61.876 91.797 65.152 144.359c-5.257.548-10.579.876-15.954.985-1.385-22.453-6.342-44.344-14.816-65.236-10.459-25.79-25.834-48.937-45.696-68.795-19.861-19.86-43.01-35.233-68.803-45.691zm167.092-52.588c-40.964-40.959-62.731-93.835-65.332-147.467 5.25-.652 10.568-1.08 15.941-1.293 1.073 23.65 6.105 46.702 15.007 68.654 10.461 25.79 25.835 48.936 45.696 68.795 19.862 19.859 43.01 35.232 68.803 45.691 21.954 8.901 45.008 13.933 68.66 15.007a191.517 191.517 0 0 1-1.293 15.939c-53.64-2.602-106.518-24.366-147.482-65.326z"/></svg>