<svg xmlns="http://www.w3.org/2000/svg" viewBox="0 0 384 224"><path d="M383.1 112.2C337.8 60 275.2 0 192 0c-33.6 0-64.4 9.5-96.9 29.8C67.7 47 39.6 71.2 1 111l-1 1 6.7 6.9C61.8 175.3 109.4 224 192 224c36.5 0 71.9-11.9 108.2-36.4 30.9-20.9 57.2-47.4 78.3-68.8l5.5-5.5-.9-1.1zM192 16c33.1 0 64.9 9.5 97.2 30.6 23.9 15.6 47.4 36.7 73.7 66.1C324.6 151.4 267.1 208 192 208c-34.2 0-64.2-8.4-94.2-28.2-27.5-18.1-52.3-43.3-76.2-67.8C80.7 52.3 130 16 192 16z"/><path d="M192 192c44.1 0 80-35.9 80-80s-35.9-80-80-80-80 35.9-80 80 35.9 80 80 80zm0-143.7c35.2 0 64 28.6 64 63.7s-28.8 63.7-64 63.7-63.9-28.6-63.9-63.7 28.7-63.7 63.9-63.7z"/><path d="M224 112c0 17.5-14.4 32-31.8 32S160 128.8 160 111.3 175.8 80 192 80V64c-26.5 0-47.9 21.6-47.9 48.2s21.5 48.1 47.9 48.1 48-21.6 48-48.1v-.2h-16z"/></svg>