<svg xmlns="http://www.w3.org/2000/svg" viewBox="0 0 384 416"><path d="M333.6 98.7l-1.8-1.7h18.4l8.5 7.8L381.2 82l-40.8-40.3L317.2 64l8.8 9.2v18.6l-5-4.7c-31.3-28.3-70-45.2-113-48.9V0h-32v38h-2c-43.7 3-85 22.5-116 53V73.2l8.9-9.2L44 41.8 3.2 82l22.5 22.8 8.5-7.8H52c-.3 0-.7.7-1 1.1C18.2 133.2 0 179 0 226.6 0 331 86.1 416 192.1 416 297.9 416 384 331.1 384 226.7c0-47.6-18-93.1-50.4-128zM200 270.2l-8 17.8-8-17.8c-14-3.5-24-15.8-24-30.5 0-13.8 11.5-26 24-30.3V80h16v129.3c13.5 3.7 24 15.9 24 30.4 0 14.7-10 27-24 30.5z"/></svg>