<svg xmlns="http://www.w3.org/2000/svg" viewBox="0 0 448 184.1999969482422"><path d="M433.4 83.1c-2.2-22-12.4-43-28.9-58.4C387.4 8.8 365.2 0 341.8 0c-41.5 0-77.3 27.4-88.5 67-7-7-18.5-11.7-29.3-11.7S201.7 60 194.7 67c-11.2-39.6-47-67-88.5-67-23.3 0-45.6 8.7-62.7 24.6C27 40.1 16.8 61.1 14.6 83.1H0v18h14.6c2.2 22 12.4 43 28.9 58.4 17.1 15.9 39.3 24.7 62.7 24.7 50.8 0 92.1-41.2 92.1-92v-.1c0-9.9 11.5-21.6 25.7-21.6s25.7 11.7 25.7 21.6v.1c0 50.8 41.3 92 92.1 92 23.3 0 45.6-8.7 62.7-24.7 16.5-15.4 26.7-36.5 28.9-58.5H448V83h-14.6zm-91.6 86c-42.5 0-77-34.6-77-77 0-42.5 34.6-77 77-77 42.5 0 77 34.6 77 77 0 42.5-34.5 77-77 77zm-235.6 0c-42.5 0-77-34.6-77-77 0-42.5 34.6-77 77-77 42.5 0 77 34.6 77 77 0 42.5-34.5 77-77 77z"/></svg>