<svg xmlns="http://www.w3.org/2000/svg" viewBox="0 0 384 383.99993896484375"><path d="M229.25 86.32L201.2 190.9l74.954 75C294.159 245.457 304 219.486 304 192c0-29.916-11.65-58.042-32.805-79.196-12.041-12.041-26.341-20.997-41.945-26.484zm-15.182-4.159A113.123 113.123 0 0 0 192 80c-29.916 0-58.042 11.65-79.196 32.805C91.65 133.958 80 162.084 80 192c0 7.468.727 14.824 2.145 21.988L186.3 186.1l27.768-103.939zM86.473 229.697c5.5 15.43 14.404 29.572 26.331 41.498C133.958 292.35 162.083 304 192 304c27.009 0 52.558-9.499 72.835-26.911L189.9 202.2 86.473 229.697z"/><path d="M384 208.754v-32.008l-33.291-8.703-2.601-13.204 27.594-20.905-12.197-29.608-34.392 4.802-7.498-10.603 17.695-29.708-22.594-22.605-30.191 17.404-10.697-7.302 5.298-35.009-29.492-12.303L230.04 37.31l-12.297-2.601L209.045 0h-31.991l-9.197 34.909-12.098 2.4-21.494-29.008-29.592 12.304 4.799 35.709-11.697 7.202-31.292-18.705-22.594 22.606 18.795 31.508-6.698 10.502-35.49-5.001-12.197 29.608 28.893 21.706-2.399 12.203L0 176.846v32.007l34.69 8.903 2.4 12.503-28.394 21.307 12.297 29.508 34.991-5.002 7.099 11.303-17.896 30.607 22.595 22.605 30.192-18.204 11.196 7.302-4.498 34.311 29.592 12.202 20.595-27.808 13.396 2.5 8.799 33.11h31.991l8.298-33.109 13.597-2.601 20.694 27.106 29.593-12.203-4.998-33.709 10.196-7.4 28.992 16.904 22.595-22.606-16.795-28.907 7.896-11.402 33.791 4.802 12.298-29.508-27.193-20.507 2.7-13.502L384 208.754zM192 320c-70.692 0-128-57.307-128-128 0-70.692 57.308-128 128-128 70.692 0 128 57.308 128 128 0 70.693-57.308 128-128 128z"/></svg>