<svg xmlns="http://www.w3.org/2000/svg" viewBox="0 0 416 416"><path d="M208 0C93.137 0 0 93.136 0 208s93.137 208 208 208c114.872 0 208-93.138 208-208S322.87 0 208 0zm41.151 394.179c-13.514 2.657-30.327 4.187-44 4.45a190.525 190.525 0 0 1-38.5-4.493 978.146 978.146 0 0 1-6.805-1.777l-24.417-65.435L155.074 288h105.854l.57 1.076 19.34 38.852-23.618 64.282a189.782 189.782 0 0 1-8.069 1.969zM141.578 29.28L199 68.576v58.147l-70.997 60.067L78.6 164.28l-4.167-1.899-22.332-64.019C74.11 67.158 105.239 42.83 141.578 29.28zm221.986 68.787l-22.432 64.483-53.992 24.388L216 126.723V68.576l57.596-39.415c36.362 13.483 67.905 37.752 89.968 68.906zM18.144 225.414L71.9 178.896l49.539 22.599.559.255 19.718 77.287-20.433 38.529-69.86-.915c-18.348-26.36-30.214-57.546-33.279-91.237zm276.575 92.151l-20.434-38.529 19.752-77.416 49.997-22.781 53.822 46.575c-3.065 33.691-14.932 64.877-33.277 91.236l-69.86.915z"/></svg>