<svg xmlns="http://www.w3.org/2000/svg" viewBox="0 0 384 384"><path d="M298.121 143.146L288 130.854 349.784 80h-46.117C210.34 80 174.52 154.511 139.88 218.832c-1.62 3.008-3.233 6.004-4.846 8.979-19.836 36.607-40.979 61.242-64.64 75.314C56.573 311.346 37.401 320 0 320v-16.25c47.937 0 83.098-13.673 120.966-83.561a4257.1 4257.1 0 0 0 4.827-8.944C160.943 145.977 200.784 64 303.667 64h46.28L288 12.146 298.121 0 384 72l-85.879 71.146z"/><path d="M135.034 156.189c-19.836-36.607-40.979-61.242-64.64-75.314C56.573 72.654 37.401 64 0 64v16.25c47.937 0 83.098 13.673 120.966 83.561a3809.68 3809.68 0 0 1 4.827 8.944c.438.812.875 1.627 1.314 2.444 3.01-5.438 6.107-10.917 9.339-16.394-.469-.87-.942-1.749-1.412-2.616zm163.087 84.665L288 253.146 349.784 304h-46.117c-72.693 0-110.496-45.207-140.028-95.592a3465.545 3465.545 0 0 0-5.273 9.814c-1.175 2.192-2.344 4.37-3.513 6.545C185.621 274.777 227.254 320 303.667 320h46.28L288 371.854 298.121 384 384 312l-85.879-71.146z"/></svg>