<svg xmlns="http://www.w3.org/2000/svg" viewBox="0 0 384 384"><path d="M96 336c-13.248 0-24 10.752-24 24s10.752 24 24 24 24-10.752 24-24-10.752-24-24-24zm0 32c-4.411 0-8-3.589-8-8s3.589-8 8-8 8 3.589 8 8-3.589 8-8 8zm224.5-32c-13.248 0-24 10.752-24 24s10.752 24 24 24 24-10.752 24-24-10.752-24-24-24zm0 32c-4.411 0-8-3.589-8-8s3.589-8 8-8 8 3.589 8 8-3.589 8-8 8zM384 64L59.177 31.646c-1.628-6.972-4.369-14.66-11.838-20.667C38.025 3.489 22.982 0 0 0v16.001c18.614 0 31.167 2.506 37.312 7.447 4.458 3.585 5.644 8.423 7.165 15.989l-.024.004 42.052 233.638c2.413 14.422 7.194 25.209 13.291 32.986C107.043 315.312 116.533 320 128 320h240v-16H128c-4.727 0-19.136.123-25.749-33.755l-5.429-30.16L368 192l16-128zm-29.41 114.348l-260.601 45.99-31.732-176.3 303.869 30.608-11.536 99.702z"/></svg>