<svg xmlns="http://www.w3.org/2000/svg" viewBox="0 0 468.6520080566406 416.00201416015625"><path d="M356.93 85.397C284.227 12.693 167.706 0 95.175.002 56.249.003 29.984 3.66 29.984 3.66S0 218.887 111.72 330.607c72.704 72.704 189.222 85.395 261.753 85.395 38.927 0 65.193-3.658 65.193-3.658s29.986-215.226-81.736-326.947zM46.449 146.73L173.032 20.148a471.283 471.283 0 0 1 18.112 2.899L49.35 164.84a476.047 476.047 0 0 1-2.901-18.11zm199.188 140.467l28.688-28.688-22.627-22.628-28.688 28.688-11.313-11.312 28.688-28.688-22.627-22.627-28.688 28.688-11.313-11.312 28.688-28.688-22.628-22.628-28.688 28.688-11.313-11.312 28.689-28.689-22.628-22.627-28.688 28.688-11.314-11.313 67.884-67.883 11.313 11.314-28.688 28.688 22.628 22.627 28.688-28.688 11.313 11.313-28.688 28.688 22.628 22.628 28.688-28.688 11.314 11.313-28.688 28.688 22.627 22.627 28.688-28.688 11.313 11.312-28.688 28.688 22.628 22.628 28.688-28.688 11.312 11.313-28.688 28.688 22.627 22.627 28.688-28.688 11.314 11.312-67.883 67.884-11.313-11.313 28.688-28.688-22.628-22.628-28.688 28.688-11.315-11.314zm49.947 108.696a470.498 470.498 0 0 1-18.104-2.906l141.824-141.825a474.432 474.432 0 0 1 2.901 18.111l-126.621 126.62z"/></svg>