<svg xmlns="http://www.w3.org/2000/svg" viewBox="0 0 448 288"><path d="M367.3 120.8c0-1.2.2-2.4.2-3.6C367.5 52.9 314.7 0 250.7 0c-46.1 0-85.8 27.9-104.4 67-8.1-4.1-17.1-6.4-26.8-6.4-29.6 0-54.1 23.7-58.9 52C25.4 124.8 0 156.8 0 196.4 0 246.2 40.1 288 89.6 288H366c45 0 82-38.9 82-84.3 0-45.6-35.4-82.8-80.7-82.9zm-1.8 150.8l-3.2.4H90.4c-40.9 0-74.2-34.9-74.2-76.1 0-31.9 20.2-58.4 50.2-68.8l8.4-3 1.5-8.8C79.9 93.7 98.4 76 120.2 76c6.9 0 13.7 1.6 19.9 4.8l13.5 6.8 6.5-13.7c16.6-34.9 52.1-58.2 90.4-58.2 55.3 0 100.9 44.1 100.9 99.7 0 13.3-.2 20.3-.2 20.3l15.2.1c36.7.5 65.6 30.5 65.6 67.4 0 36.9-29.8 68.2-66.5 68.4z"/></svg>