<svg xmlns="http://www.w3.org/2000/svg" viewBox="0 0 448.0360107421875 192"><path d="M419.25 28.098C400.703 9.967 375.971 0 349.606 0c-26.363 0-51.095 9.967-69.642 28.098l-42.229 41.187 13.649 13.447 42.229-41.306c14.933-14.529 34.764-22.573 55.878-22.573 21.113 0 40.946 8.044 55.878 22.573 30.797 30.139 30.797 79.13 0 109.148-14.932 14.529-34.765 22.573-55.878 22.573-21.114 0-40.945-8.044-55.878-22.573L168.092 28.098C149.427 9.967 124.696 0 98.448 0 72.085 0 47.353 9.967 28.805 28.098 9.636 46.809.042 71.441.021 96 0 120.611 9.594 145.149 28.805 163.902 47.353 182.032 72.084 192 98.448 192c26.365 0 51.095-9.968 69.645-28.098l42.111-41.186-13.647-13.329-42.229 41.187c-14.932 14.529-34.764 22.573-55.879 22.573-21.113 0-40.944-8.044-55.876-22.573-30.799-30.14-30.799-79.13 0-109.148 14.932-14.529 34.763-22.573 55.876-22.573 21.115 0 40.947 8.044 55.879 22.573l125.52 122.477C298.511 182.032 323.243 192 349.491 192c26.363 0 51.095-9.968 69.643-28.098C438.382 145.23 448.006 120.6 448.021 96c.015-24.601-9.58-49.17-28.771-67.902z"/></svg>