<svg xmlns="http://www.w3.org/2000/svg" viewBox="0 0 448 352"><path d="M327.385 0C287.966 0 245.171 17.599 224 52.8 202.83 17.599 160.034 0 120.615 0 51.647 0 0 43.238 0 115.779c0 31.288 12.562 71.924 40.923 105.657 28.359 33.735 45.229 51.7 100.153 88C196 345.738 224 352 224 352s28-6.262 82.924-42.564c54.923-36.3 71.794-54.265 100.153-88C435.438 187.703 448 147.067 448 115.779 448 43.238 396.353 0 327.385 0zm67.445 211.141c-26.852 31.94-42.18 48.895-96.729 84.947-40.237 26.596-65.252 36.301-74.102 39.233-8.85-2.933-33.864-12.639-74.102-39.233-54.548-36.052-69.876-53.006-96.729-84.948-12.065-14.351-21.857-31.274-28.316-48.943C19.062 146.355 16 130.304 16 115.779c0-30.284 10.131-55.643 29.297-73.335 9.14-8.437 20.158-14.992 32.752-19.484C90.994 18.341 105.315 16 120.615 16c38.018 0 73.217 17.682 89.674 45.046L224 83.844l13.711-22.798C254.169 33.682 289.368 16 327.385 16c15.3 0 29.621 2.341 42.566 6.959 12.594 4.493 23.612 11.048 32.752 19.484C421.869 60.136 432 85.495 432 115.779c0 14.525-3.062 30.576-8.854 46.418-6.458 17.668-16.25 34.592-28.316 48.944z"/></svg>