<svg xmlns="http://www.w3.org/2000/svg" viewBox="0 0 266.54400634765625 448"><path d="M96.732 0C122.423 145 0 142 .837 288c.686 119.51 104.975 160 128.143 160 23.166 0 113.88-26 126.931-160C266.544 178.816 183.405 64 96.732 0zm32.248 440s-40.701-35.816-40.701-80c0-44.183 40.555-80 40.555-80s40.332 35.817 40.332 80c-.001 44.184-40.186 80-40.186 80zm111.006-153.551c-2.823 28.988-9.704 54.523-20.45 75.894-8.749 17.397-20.084 32.114-33.692 43.743a121.72 121.72 0 0 1-19.771 13.749c10.039-15.938 19.093-36.72 19.093-59.835 0-50.788-43.842-90.307-45.708-91.963l-10.594-9.41-10.621 9.381C116.366 269.665 72.28 309.186 72.28 360c0 21.842 8.168 41.594 17.636 57.152a156.12 156.12 0 0 1-22.986-16.451c-14.688-12.67-26.365-27.608-34.708-44.402-10.063-20.255-15.239-43.265-15.383-68.391-.367-63.986 24.09-95.746 49.983-129.369 24.568-31.903 49.829-64.7 49.458-122.113 32.513 28.827 61.257 63.03 82.822 98.877 31.307 52.047 45.446 104.312 40.884 151.146z"/></svg>