<svg xmlns="http://www.w3.org/2000/svg" viewBox="0 0 350 384"><path d="M46 35.2V16c0-8.8-7.2-16-16-16S14 7.2 14 16v21.5C5.5 43.3 0 53 0 64s5.5 20.7 14 26.5V368c0 8.8 7.2 16 16 16s16-7.2 16-16V92.8C56.7 87.6 64 76.7 64 64s-7.3-23.6-18-28.8zm96 193.7V16c0-8.8-7.2-16-16-16s-16 7.2-16 16v211.7c-10.1 5.4-17 16-17 28.3s6.9 22.9 17 28.3V368c0 8.8 7.2 16 16 16s16-7.2 16-16v-84.9c9-5.7 15-15.7 15-27.1s-6-21.4-15-27.1zm96-129.6V16c0-8.8-7.2-16-16-16s-16 7.2-16 16v83.3c-9.6 5.5-16 15.9-16 27.7s6.4 22.2 16 27.7V368c0 8.8 7.2 16 16 16s16-7.2 16-16V154.7c9.6-5.5 16-15.9 16-27.7s-6.4-22.2-16-27.7zM350 319c0-11.8-6.4-22.2-16-27.7V16c0-8.8-7.2-16-16-16s-16 7.2-16 16v275.3c-9.6 5.5-16 15.9-16 27.7s6.4 22.2 16 27.7V368c0 8.8 7.2 16 16 16s16-7.2 16-16v-21.3c9.6-5.5 16-15.9 16-27.7z"/></svg>