<svg xmlns="http://www.w3.org/2000/svg" viewBox="0 0 448.0010070800781 385.51702880859375"><path d="M441.152 73.349L336.594 3.076C331.95 0 326.229 0 321.563 3.076l-97.094 65.195L127.36 3.076C122.717 0 116.916 0 112.298 3.076L7.344 73.349C2.945 76.298 0 81.621 0 87.399v280.97c0 5.904 3.07 11.347 7.663 14.271 4.62 2.877 10.382 2.829 14.904-.223l97.188-65.197 97.181 65.197c4.666 3.1 10.44 3.1 15.084 0l97.158-65.197 97.151 65.197c2.311 1.55 4.912 2.353 7.538 2.353 2.455 0 4.709-.747 6.969-2.13 4.594-2.924 7.165-8.366 7.165-14.271V87.399c-.001-5.778-2.426-11.101-6.849-14.05zM103 290.017l-71 49.404V97.671l71-49.428v241.774zm32-.482v-122.7a85.853 85.853 0 0 1 3.389 2.301l9.333-12.996c-3.904-2.804-8.292-5.501-12.722-7.705V47.761l73 48.992v108.574c-5.372-1.855-10.586-4.37-15.893-7.682l-8.471 13.574c6.848 4.273 13.621 7.467 20.704 9.765l3.66-11.286v128.806l-73-48.969zm105 48.968V225.138c.349-.021.693-.03 1.043-.054a98.66 98.66 0 0 0 8.518-.946l-2.479-15.807a82.6 82.6 0 0 1-7.082.786V96.753l73-48.992v118.788l-4.844-4.372c-2.997 3.319-5.833 6.575-8.575 9.725-1.806 2.073-3.578 4.108-5.339 6.095l11.974 10.613a938.209 938.209 0 0 0 5.431-6.2c.443-.509.905-1.035 1.354-1.549v108.675L240 338.503zm176-.082l-71-48.438v-136.91c3.785-1.715 7.679-2.992 11.639-3.792l-3.166-15.683a69.216 69.216 0 0 0-8.473 2.281V48.208l71 48.461v241.752z"/><path d="M97.285 157.88c2.218-1.195-1.353-1.071 1.012-1.837l-4.928-15.222a57.625 57.625 0 0 0-9.571 4.093c-3.824 2.062-7.745 4.916-11.339 8.253l10.888 11.724c2.616-2.428 11.292-5.584 13.938-7.011zm167.517 45.016l6.985 14.395c6.596-3.201 12.842-7.445 19.095-12.974l-10.599-11.987c-5.148 4.552-10.212 8.008-15.481 10.566zM67.364 192.775c1.893-5.926 3.528-11.044 7.129-16.304l-13.204-9.037c-4.924 7.194-7.081 13.944-9.167 20.471l-.242.758 15.238 4.879.246-.767zm98.947-18.253c-1.007-1.204-2.014-2.408-3.032-3.603l-12.178 10.379c.986 1.156 1.961 2.322 2.936 3.488 3.593 4.296 7.308 8.739 11.61 12.809l10.996-11.624c-3.623-3.427-6.882-7.324-10.332-11.449zm209.845-8.096l10.344-10.343 10.344 10.343 11.312-11.315-10.342-10.342 10.342-10.343-11.312-11.315-10.344 10.343-10.344-10.343-11.312 11.315 10.342 10.343-10.342 10.342z"/></svg>