<svg xmlns="http://www.w3.org/2000/svg" viewBox="0 0 384 448"><path d="M320 192c-23.637 0-44.307 12.89-55.391 32H255c-42.464 0-79.99-17.904-111.535-53.214-20.356-22.787-33.493-48.869-37.856-58.218C119.301 100.822 128 83.413 128 64c0-35.29-28.71-64-64-64S0 28.71 0 64c0 23.637 12.89 44.307 32 55.391V328.61C12.89 339.693 0 360.363 0 384c0 35.29 28.71 64 64 64s64-28.71 64-64c0-23.637-12.89-44.307-32-55.391V213.692C139.553 262.307 194.468 288 255 288h9.609c11.084 19.11 31.754 32 55.391 32 35.29 0 64-28.71 64-64s-28.71-64-64-64zM64 32c17.673 0 32 14.327 32 32S81.673 96 64 96 32 81.673 32 64s14.327-32 32-32zm0 384c-17.673 0-32-14.327-32-32s14.327-32 32-32 32 14.327 32 32-14.327 32-32 32zm256-128c-17.673 0-32-14.327-32-32s14.327-32 32-32 32 14.327 32 32-14.327 32-32 32z"/></svg>