<svg xmlns="http://www.w3.org/2000/svg" viewBox="0 0 384 448.0009765625"><path d="M384 64c0-35.29-28.71-64-64-64s-64 28.71-64 64c0 23.637 12.89 44.307 32 55.391v52.832l-96 48-96-48v-52.832c19.11-11.084 32-31.754 32-55.391 0-35.29-28.71-64-64-64S0 28.71 0 64c0 23.637 12.89 44.307 32 55.391v92.387l128 64v52.832c-19.11 11.084-32 31.754-32 55.391 0 35.29 28.71 64 64 64s64-28.71 64-64c0-23.637-12.89-44.307-32-55.391v-52.832l128-64v-92.387c19.11-11.084 32-31.754 32-55.391zM64 32c17.673 0 32 14.327 32 32S81.673 96 64 96 32 81.673 32 64s14.327-32 32-32zm128 384c-17.673 0-32-14.327-32-32s14.327-32 32-32 32 14.327 32 32-14.327 32-32 32zM320 96c-17.673 0-32-14.327-32-32s14.327-32 32-32 32 14.327 32 32-14.327 32-32 32z"/></svg>