<svg xmlns="http://www.w3.org/2000/svg" viewBox="0 0 448 448"><path d="M337.541 0H110.359C49.521 0 0 50.574 0 112.604v222.79C0 397.426 49.521 448 110.359 448h227.182C398.479 448 448 397.426 448 335.395v-222.79C448 50.574 398.479 0 337.541 0zM143 218.954v.67c0 10.882-9.09 20.376-19.875 20.376h-23.27C89.073 240 80 230.506 80 219.624V116.161C81 105.393 89.193 96 99.855 96h23.27C134.011 96 143 105.847 143 116.831v102.123zM265 363.74v2.68c0 11.439-8.872 17.58-20.1 17.58h-41.798c-11.23 0-20.102-8.141-20.102-19.58v-29.317c0-23.33 18.118-42.287 40.999-42.287 22.883 0 41.001 18.957 41.001 42.287v28.637zm103-144.786v.67c0 10.882-9.071 20.376-19.855 20.376h-24.27C313.093 240 304 230.506 304 219.624V116.161C305 105.393 313.215 96 323.875 96h24.27C358.929 96 368 105.847 368 116.831v102.123z"/></svg>