<svg xmlns="http://www.w3.org/2000/svg" viewBox="0 0 448 384.0999755859375"><path d="M393.3 260.9c-41.4-15.7-38.9-9.4-38.9-38.5 0-18.8 9.3-11.9 15.2-47.7 2.3-14.1 4.2-4.7 9.1-27.3 2.6-11.8-1.8-12.7-1.2-18.3.5-5.6 1-10.7 2-22.2 1.2-14.4-11.6-52-57.4-52s-58.6 37.6-57.4 52c.9 11.6 1.5 16.6 2 22.2.5 5.6-3.8 6.5-1.2 18.3 4.9 22.6 6.8 13.1 9.1 27.3 5.9 35.8 15.1 29 15.1 47.7 0 13.4 3.1 19-14.9 27.5 5.4 1.9 11.7 4.2 19.3 7.1 54.4 20.7 53.1 40.8 54.5 50.3 1 6.5 1.5 58.3 1.7 76.8H448s0-80.5-1.5-89.9c-1.1-7.4-11-17.2-53.2-33.3z"/><path d="M325 384.1s0-14.1-.2-30.4c-.2-18.6-.7-40-1.7-46.4-1.5-9.5-14.3-22.2-68.6-42.9-7.5-2.8-13.8-5.1-19.3-7.1-33.3-11.8-30.9-15.7-30.9-48 0-24.3 12-8.5 19.6-54.6 3-18.2 5.4-6.1 11.7-35.2 3.4-15.2-2.3-16.4-1.6-23.7.7-7.3 1.4-13.8 2.6-28.7C238.2 48.6 221.7 0 162.5 0c-59.2 0-75.6 48.5-74.1 67.1 1.2 14.9 1.9 21.4 2.7 28.7.7 7.3-5 8.4-1.6 23.7 6.4 29.1 8.8 17 11.8 35.2 7.6 46.1 19.5 30.3 19.5 54.6 0 37.6 3.3 34.8-50.2 55.1C16.3 285.1 3.5 297.8 2 307.3c-2 12.1-2 76.8-2 76.8h325z"/></svg>