<svg xmlns="http://www.w3.org/2000/svg" viewBox="0 0 448 479.9999694824219"><path d="M249.7 295.9c.4-6.9 8.3-4.5 8.3-4.5l62 12.6 128 48.7c0-24-3.8-26.5-9.4-30.7L256 191s-4.9-60-4.9-112.9C251.1 53.6 239.3 0 224 0s-27.1 54.4-27.1 78.1c0 50.2-4.9 112.9-4.9 112.9L9.4 322c-7.1 5-9.4 7.7-9.4 30.7L128 304l61.9-12.6s7.9-2.4 8.3 4.5c.4 6.9-1.2 69.1 5.9 102.1.9 4.4-2.5 4.7-4.8 7.4l-51.9 32.8c-1.7 1.9-2.5 7.3-2.5 7.3l-1 18.5 68-16 12 32 12-32 68 16-1-18.5c.1 0-.7-5.4-2.4-7.3l-51.9-32.8c-2.3-2.7-5.7-3-4.8-7.4 6.9-33 5.5-95.2 5.9-102.1z"/></svg>