<svg xmlns="http://www.w3.org/2000/svg" viewBox="0 0 325.14300537109375 450.2920227050781"><path d="M280.764 0H42.541C9.666 0 0 24.798 0 40.414v379.64c0 17.591 9.425 24.117 14.718 26.267 5.299 2.155 19.916 3.971 28.673-6.168 0 0 112.469-130.895 114.4-132.834 2.921-2.93 2.921-2.93 5.844-2.93h72.767c30.574 0 35.49-21.869 38.684-34.752 2.659-10.789 32.489-163.962 42.452-212.559C325.143 19.993 315.745 0 280.764 0zm-5.678 269.637c2.659-10.789 32.489-163.962 42.452-212.559m-50.846 7.592l-9.999 51.734c-1.195 5.65-8.287 11.595-14.863 11.595h-95.917C135.473 128 128 134.138 128 144.602v13.448c0 10.473 7.519 17.894 17.965 17.894h81.848c7.374 0 14.61 8.109 13.016 16.005-1.602 7.908-9.086 46.569-9.984 50.89-.902 4.328-5.845 11.725-14.611 11.725h-64.269c-11.705 0-15.244 1.533-23.074 11.293-7.837 9.77-78.256 94.592-78.256 94.592-.713.822-1.41.584-1.41-.312V63.896c0-6.684 5.793-14.523 14.479-14.523h191.173c7.035-.001 13.611 6.631 11.815 15.297z"/></svg>