<svg xmlns="http://www.w3.org/2000/svg" viewBox="0 0 448 448"><path d="M224 0C100.8 0 0 100.8 0 224s100.8 224 224 224 224-100.8 224-224S347.2 0 224 0zm0 44.799c66.084 0 124.315 35.843 154.558 89.602H224c-43.685 0-79.517 31.358-87.358 71.684l-53.758-92.969c32.474-41.431 84-68.317 141.116-68.317zM291.2 224c0 36.957-30.243 67.2-67.2 67.2s-67.2-30.243-67.2-67.2 30.243-67.2 67.2-67.2 67.2 30.243 67.2 67.2zm-246.401 0c0-32.484 8.958-62.716 24.644-89.6l77.272 134.4C162.4 295.685 190.4 313.6 224 313.6c10.085 0 20.157-2.241 29.116-5.6l-53.758 92.958C112 389.758 44.799 314.715 44.799 224zM224 403.201L301.285 268.8c7.831-13.442 12.314-28 12.314-44.8 0-26.885-12.314-50.399-31.358-67.2h107.517c8.957 21.284 13.443 43.685 13.443 67.2 0 98.557-80.644 179.201-179.201 179.201z"/></svg>