<svg xmlns="http://www.w3.org/2000/svg" viewBox="0 0 384 383.8999938964844"><path d="M353.2 0H32.8C15.3 0 0 12.6 0 29.9V351c0 17.4 15.3 32.9 32.8 32.9h320.3c17.6 0 30.8-15.6 30.8-32.9V29.9C384 12.6 370.7 0 353.2 0zM119 320H64V149h55v171zM93.4 123H93c-17.6 0-29-13.1-29-29.5C64 76.8 75.7 64 93.7 64s29 12.7 29.4 29.5c0 16.4-11.4 29.5-29.7 29.5zM320 320h-55v-93.5c0-22.4-8-37.7-27.9-37.7-15.2 0-24.2 10.3-28.2 20.3-1.5 3.6-1.9 8.5-1.9 13.5V320h-55V149h55v23.8c8-11.4 20.5-27.8 49.6-27.8 36.1 0 63.4 23.8 63.4 75.1V320z"/></svg>