<svg xmlns="http://www.w3.org/2000/svg" viewBox="0 0 384 387.1559753417969"><path d="M129.46 185.13a65.316 65.316 0 0 1 11.586-1.041l-3.122-.015h103.823c4.503 0 8.806-.617 12.908-1.754 19.37-5.363 33.345-22.537 33.345-43.663V51.433c0-24.832-21.15-43.484-46.289-47.606C225.78 1.203 202.453 0 186.622.078c-15.829.086-30.981 1.404-44.277 3.749C103.143 10.65 96 25.002 96 51.433v28.641h96v16H64.82c-35.628 0-64.538 42.571-64.813 95.242-.002.253-.007.505-.007.758 0 9.523.94 18.72 2.685 27.404 7.963 39.666 32.766 68.596 62.135 68.596H80v-45.935c0-26.827 20.146-51.733 49.46-57.009zm10.196-122.054c-9.592 0-17.384-7.785-17.384-17.403 0-9.664 7.774-17.52 17.384-17.52 9.574 0 17.399 7.855 17.399 17.52.001 9.618-7.809 17.403-17.399 17.403z"/><path d="M379.951 158.617c-9.171-36.522-32.918-62.543-60.771-62.543H304v40.672c0 33.915-22.286 58.474-49.489 62.681a53.943 53.943 0 0 1-8.301.646H142.351a51.41 51.41 0 0 0-13.049 1.672C110.18 206.763 96 222.674 96 243.31v87.227c0 24.832 24.977 39.426 49.481 46.551 29.327 8.531 61.267 10.068 96.366 0C265.15 370.428 288 356.967 288 330.537v-26.463h-96v-16h127.18c25.24 0 47.107-21.365 57.814-52.549 4.48-13.047 7.006-27.81 7.006-43.451 0-11.768-1.433-23.038-4.049-33.457zM243.867 318.894c9.59 0 17.381 7.785 17.381 17.4 0 9.65-7.791 17.521-17.381 17.521-9.577 0-17.399-7.871-17.399-17.521 0-9.63 7.806-17.4 17.399-17.4z"/></svg>