<svg xmlns="http://www.w3.org/2000/svg" viewBox="0 0 384 384"><path d="M384 47.5C384 21.267 362.733 0 336.5 0h-289C21.267 0 0 21.267 0 47.5v289C0 362.733 21.267 384 47.5 384h289c26.233 0 47.5-21.267 47.5-47.5v-289zm-191.5 63.833c44.182 0 80 35.816 80 80s-35.818 80-80 80-80-35.816-80-80 35.818-80 80-80zM352 96c0 8.836-7.163 16-16 16h-48c-8.837 0-16-7.164-16-16V48c0-8.836 7.163-16 16-16h48c8.837 0 16 7.164 16 16v48zm-15 256H49c-8.822 0-17-8.178-17-17V160h53.072c-3.008 10-4.572 20.647-4.572 31.583 0 29.917 11.65 57.917 32.805 79.071s49.279 32.741 79.195 32.741 58.041-11.681 79.195-32.835 32.805-49.044 32.805-78.961c0-10.936-1.563-21.599-4.572-31.599H352v175c0 8.822-6.178 17-15 17z"/></svg>