<svg xmlns="http://www.w3.org/2000/svg" viewBox="0 0 384 383.8999938964844"><path d="M118.8 320V148.9H63.9V320h54.9zM93.4 123c18.3 0 29.7-13.1 29.7-29.5-.3-16.7-11.4-29.5-29.4-29.5S64 76.8 64 93.5c0 16.4 11.4 29.5 29 29.5h.4zm163.2 22c-29.1 0-41.6 16.4-49.6 27.8V149h-55v171h55v-97.4c0-5 .4-10 1.9-13.5 4-10 13-20.3 28.2-20.3 19.9 0 27.9 15.3 27.9 37.7V320h55v-99.9c0-51.3-27.2-75.1-63.4-75.1z"/><path d="M353.2 0H32.8C15.3 0 0 12.6 0 29.9V351c0 17.4 15.3 32.9 32.8 32.9h320.3c17.6 0 30.8-15.6 30.8-32.9V29.9C384 12.6 370.7 0 353.2 0zM350 352H35.1c-1.8 0-3.1-1.4-3.1-3.1V34c0-1.1 1-2 2-2h316c1 0 2 1 2 2v316c0 .9-.9 2-2 2z"/></svg>