<svg xmlns="http://www.w3.org/2000/svg" viewBox="0 0 352 384.29998779296875"><path d="M64 204.7v89.6c0 6.9 4.5 14 11.4 14H104v52c0 13.3 10.7 24 24 24s24-10.7 24-24v-52h49v52c0 7.5 3.4 14.2 8.8 18.6 3.9 3.4 9.1 5.4 14.7 5.4h.5c13.3 0 24-10.7 24-24v-52h27.6c7 0 11.4-7.1 11.4-13.9V128.3H64v76.4zm264-92.4c-13.3 0-24 10.7-24 24v96c0 13.3 10.7 24 24 24s24-10.7 24-24v-96c0-13.3-10.7-24-24-24zm-304 0c-13.3 0-24 10.7-24 24v96c0 13.3 10.7 24 24 24s24-10.7 24-24v-96c0-13.3-10.7-24-24-24zm207.2-86.9l18.5-21.9c.4-.5-.2-1.6-1.3-2.5-1.1-.8-2.4-1-2.7-.4l-19.2 22.8c-13.6-5.4-30.2-8.8-50.6-8.8-20.5-.1-37.2 3.2-50.8 8.5L106.1.7c-.4-.5-1.6-.4-2.7.4s-1.7 1.8-1.3 2.5l18.3 21.6C72.2 46.1 65 97.4 64 112.4h223.6c-.9-15.1-8-65.7-56.4-87zM126.8 75.2c-7.4 0-13.5-6-13.5-13.3 0-7.3 6-13.3 13.5-13.3 7.4 0 13.5 6 13.5 13.3 0 7.3-6 13.3-13.5 13.3zm98.4 0c-7.4 0-13.5-6-13.5-13.3 0-7.3 6-13.3 13.5-13.3 7.4 0 13.5 6 13.5 13.3 0 7.3-6.1 13.3-13.5 13.3z"/></svg>