<svg xmlns="http://www.w3.org/2000/svg" viewBox="0 0 388.60003662109375 384.00006103515625"><path d="M9.1 100.5l169.2 81.7c4.4 2.1 10.3 3.2 16.1 3.2s11.7-1.1 16.1-3.2l169.2-81.7c8.9-4.3 8.9-11.3 0-15.6L210.5 3.2C206.1 1.1 200.2 0 194.4 0s-11.7 1.1-16.1 3.2L9.1 84.9c-8.9 4.3-8.9 11.3 0 15.6zm176.1-82.9c1.6-.8 4.9-1.6 9.2-1.6 4.3 0 7.5.8 9.2 1.6l155.5 75.1-155.5 75.1c-1.6.8-4.9 1.6-9.2 1.6-4.3 0-7.5-.8-9.2-1.6L29.7 92.7l155.5-75.1z"/><path d="M379.7 184.2s-30.9-14.9-35-16.9-5.2-1.9-9.5.1-124.8 60.2-124.8 60.2c-4.5 2.1-10.3 3.2-16.1 3.2s-11.7-1.1-16.1-3.2c0 0-117.3-56.6-122.8-59.3-6-2.9-7.7-2.9-13.1-.3L8.9 184.1c-8.9 4.3-8.9 11.3 0 15.6l169.2 81.7c4.4 2.1 10.3 3.2 16.1 3.2s11.7-1.1 16.1-3.2l169.2-81.7c9.1-4.2 9.1-11.2.2-15.5zm-176.1 82.9c-1.6.8-4.9 1.6-9.2 1.6-4.3 0-7.5-.8-9.2-1.6L29.7 192l18.9-9.1 122.7 59.3c6.4 3.1 14.6 4.8 23.1 4.8s16.6-1.7 23.1-4.8l122.7-59.3 18.9 9.1-155.5 75.1z"/><path d="M379.7 283.5s-30.9-14.9-35-16.9-5.2-1.9-9.5.1S210.5 327 210.5 327c-4.5 2.1-10.3 3.2-16.1 3.2s-11.7-1.1-16.1-3.2c0 0-117.3-56.6-122.8-59.3-6-2.9-7.7-2.9-13.1-.3L9 283.5c-8.9 4.3-8.9 11.3 0 15.6l169.2 81.7c4.4 2.2 10.3 3.2 16.1 3.2s11.7-1.1 16.1-3.2l169.2-81.7c9-4.3 9-11.3.1-15.6zm-176.1 82.9c-1.6.8-4.9 1.6-9.2 1.6-4.3 0-7.5-.8-9.2-1.6L29.7 291.3l18.9-9.1 122.7 59.3c6.4 3.1 14.6 4.8 23.1 4.8s16.6-1.7 23.1-4.8l122.7-59.3 18.9 9.1-155.5 75.1z"/></svg>