<svg xmlns="http://www.w3.org/2000/svg" viewBox="0 0 325.14300537109375 450.2920227050781"><path d="M302.484 132.452l-27.399 137.185c1.763-7.151 15.46-76.844 27.399-137.185z"/><path d="M280.764 0H42.541C9.666 0 0 24.798 0 40.414v379.64c0 17.591 9.425 24.117 14.718 26.267 5.299 2.155 19.916 3.971 28.673-6.168 0 0 112.469-131.09 114.4-133.027 2.921-2.931 2.921-3.125 5.844-3.125h72.766c30.575 0 35.49-21.676 38.684-34.559l27.399-137.087c6.074-30.702 11.693-58.938 15.053-75.325C325.143 19.944 315.744 0 280.764 0zm-.338 64s-31.575 156.209-36.034 176.834C239 265.771 236.75 272 211 272h-62.375c-2.747 0-3.868-.147-6.049 2.041-1.443 1.447-78.168 89.562-78.168 89.562-19.034 23.396-26.909 31.795-29.033 31.795S32 395.398 32 356.99V59.708C32 35.034 32.3 32 61.198 32H256c30 0 30.834.833 24.426 32z"/><path d="M302.484 132.452l15.053-75.374c-3.359 16.388-8.978 44.672-15.053 75.374zM232.573 64H74.578C68.091 64 64 69.594 64 74.586v231.255c0 .67.402.975.935.36 0 0 48.202-55.725 54.056-63.021 5.848-7.289 8.491-8.182 17.233-8.182h62.212c6.549 0 10.24-5.75 10.913-8.982.671-3.228 10.536-48.213 11.732-54.119 1.191-5.897-4.214-11.898-9.722-11.898h-64.805c-7.803 0-7.554-5.653-7.554-13.476v-5.512c0-7.815-.282-13.012 7.516-13.012h75.313c4.911 0 10.208-4.442 11.102-8.662l8.468-44.042c1.34-6.472-3.571-11.295-8.826-11.295z"/></svg>