<svg xmlns="http://www.w3.org/2000/svg" viewBox="0 0 448 417"><path d="M146.249 37.534c18.761 22.976 43.909 34.009 77.445 34.572l.269-.106h.269c22.638 0 41.169-4.861 56.653-15.091 7.801-5.154 14.721-11.47 21.029-19.382l104.461 31.367-11.785 32.516-38.743-4.685-37.912-4.589 2.114 38.133L334.176 385H113.824l14.127-254.729 2.106-37.981-37.782 4.428-38.854 4.553-11.767-32.358 104.595-31.379M288 0c-13.988 27.227-30.771 40.223-63.769 40.223C191.723 39.676 173.722 27 160 0L0 48l32 88 64-7.5L80 417h288l-16-288.5 64 7.75L448 48 288 0z"/></svg>