<svg xmlns="http://www.w3.org/2000/svg" viewBox="0 0 448 448"><path d="M344.2 256zm-240 0zM240 16.8V16c0-8.8-7.2-16-16-16s-16 7.2-16 16v.7C91.7 24.7 0 119.8 0 238.1c0 3.6.2 14.2.4 17.8 2.7-26.3 24.7-51.7 51.7-51.7 28.7 0 51.9 23.1 52.1 51.7.2-28.6 23.4-51.7 52.1-51.7 26.5 0 50.9 21.1 51.7 45.5V384c0 17.9-14.1 32-32 32-17.1 0-31-14.4-31-32 0-8.8-7.2-16-16-16s-16 7.2-16 16c0 35.3 28.3 64 63 64 17.3 0 33.5-6.7 45.5-18.8 11.9-12 18.5-28.1 18.5-45.2V248.7c3.3-32.7 23.4-44.4 52.1-44.4 28.7 0 51.9 23.1 52.1 51.7.2-28.6 23.4-51.7 52.1-51.7 26.1 0 47.6 26.7 51.4 51.7.1-2.8.2-9.1.2-11.8C448 125.8 356.2 25.3 240 16.8z"/></svg>