<svg xmlns="http://www.w3.org/2000/svg" viewBox="0 0 448 352"><path d="M335 105.3c0-5.1-4-9.3-9.2-9.3H274V63.8C274 28.6 244.7 0 209.1 0H31v48h176.1c4.5 0 9.9 5.6 9.9 10.1V96H9.4c-5.2 0-9.4 4.2-9.4 9.3v237.4c0 5.1 4.2 9.3 9.4 9.3h316.4c5.2 0 9.2-4.2 9.2-9.3v-64.5l113 34.7V136.5l-113 34.7v-65.9zM226.2 261H108.1c-19.8 0-35.9-16-35.9-35.8s16.1-35.8 35.9-35.8c19.8 0 35.9 16.2 35.9 36 0 10-4.2 18.6-10.8 25.6h67.9c-6.6-7-10.8-15.6-10.8-25.6 0-19.8 16.1-35.9 35.9-35.9 19.8 0 35.9 15.9 35.9 35.7S246 261 226.2 261z"/></svg>