<svg xmlns="http://www.w3.org/2000/svg" viewBox="0 0 448 384"><path d="M199 343.8V40.3L104.1 128H0v128h104.1zm56.1-52.1c20.5-27.9 32.8-62.3 32.8-99.7 0-37.4-12.3-71.8-32.8-99.7l-20.4 15.3c17.4 23.6 27.8 52.7 27.8 84.4 0 31.6-10.4 60.8-27.8 84.3l20.4 15.4zm66.6 46c30-40.7 48-91.1 48-145.7s-18-104.9-48-145.7l-20.4 15.3c26.9 36.4 43 81.5 43 130.4 0 48.9-16.1 93.9-43 130.3l20.4 15.4z"/><path d="M364.7 15.4c36.4 49.3 57.9 110.5 57.9 176.6s-21.5 127.2-57.9 176.6l20.5 15.4c39.4-53.6 62.8-120 62.8-192S424.6 53.6 385.2 0l-20.5 15.4z"/></svg>