<svg xmlns="http://www.w3.org/2000/svg" viewBox="0 0 448 448"><path d="M223.9 185H159v78h64.9l47.1 51.3V133.7z"/><path d="M332.5 28.1c-.4-.2-.7-.4-1.1-.6C299.5 10 262.9 0 224 0 100.3 0 0 100.3 0 224c0 84.3 46.6 157.6 115.4 195.9.4.2.7.5 1.1.7C148.5 438 185.1 448 224 448c123.7 0 224-100.3 224-224 0-84.3-46.6-157.7-115.5-195.9zm29.4 295.3L304 265.1v76.7l19.6 19.9c-28 20.3-62.3 32.7-99.5 32.7-21.6 0-42.3-4.2-61.3-11.5-6.5-2.5-12.9-5.3-19-8.6-53.6-28.7-90.1-85.2-90.1-150.3 0-37.2 12.4-71.4 32.7-99.4l35.3 35.4h76.7l-73.6-73.8c28-20.2 62.1-32.6 99.4-32.6 21.6 0 42.2 4.2 61.3 11.5 6.1 2.4 12.2 5 17.9 8 54.2 28.5 91.3 85.3 91.3 150.8-.2 37.4-12.5 71.5-32.8 99.5z"/></svg>