<svg xmlns="http://www.w3.org/2000/svg" viewBox="0 0 256 447.9000244140625"><path d="M166.9 263.4c11-4.1 18-6.9 26.2-11.7 12-6.9 22.8-15.8 31.9-26.1 20.4-22.9 31-51.1 31-86.1 0-49.9-3.7-101.1-8.1-114.7C243.5 11 234.4 0 217.2 0H38.7C21.6 0 12.5 11.1 8.1 24.6 3.7 38.1 0 89.5 0 139.4c0 35.1 10.6 63.2 30.9 86.1 9.1 10.3 19.9 19.1 31.8 26 8.2 4.8 15.1 7.8 26 11.7S111 270.7 111 295v94.2c0 10.7-2.9 19-11.1 24.8-2.8 2.1-6.3 4.3-14.3 6.5-31.5 8.6-46.9 15.6-49.2 17.2-2 1.4-4.5 3.6-4.5 7.1 0 0 13.8 3.1 96.2 3.1s96-3.1 96-3.1c0-3.5-2.5-5.7-4.6-7.1-2.3-1.6-17.8-8.6-49.4-17.2-8-2.2-12.2-4.4-15.1-6.5-8-5.7-12-14-12-24.7v-94.2c0-24 12.9-27.7 23.9-31.7zm-39-25.1c-25.4 0-48.5-10-65.5-26.3-2.7-2.4-5.2-5-7.6-7.7-15.6-17.5-22.4-36.7-23.1-64.8C31 111.3 31.6 67 39 32h177c6.3 24 9.1 76.8 7.7 107.2-1.4 30.5-7.2 47.3-22.8 64.9-2 2.2-3.9 4.3-6.1 6.4-17.1 17.2-40.8 27.8-66.9 27.8z"/><path d="M208.2 138.6c0-7.5-.1-31.9-1.3-52.6-.5-8.4-1.2-16-2.1-22h-153c-.9 3-1.8 11.6-2.5 22-1.3 18.9-2.1 43.9-1.5 52.9.9 13.8 1.5 20.6 4.5 29.4 3.1 9.1 8 17.3 14.6 24.7 2 2.3 4.1 4.4 6.4 6.4 14.2 13.6 33.5 22 54.7 22 21.8 0 41.5-8.8 55.9-23.1 1.8-1.7 3.5-3.5 5.2-5.3 6.6-7.4 11.4-15.5 14.5-24.6 3.1-9 4.6-19.3 4.6-29.8zM192 147c0 5-3.9 8.1-8.3 8.1-1.6 0-3-.5-4.3-1.3-2.2-1.4-3.5-3.9-3.5-6.7v-26c0-4.4 3.6-8 8-8s8 3.6 8 8V147zm-1.1-47.2c-1.2 1.8-3 3-5.1 3.5-2.1.4-4.3 0-6-1.1-1.8-1.2-3-3-3.5-5.1-.4-2.1 0-4.3 1.1-6 1.2-1.8 3-3 5.1-3.5 2.1-.4 4.3 0 6 1.1 1.8 1.2 3 3 3.5 5.1.5 2 .1 4.2-1.1 6z"/></svg>