<svg xmlns="http://www.w3.org/2000/svg" viewBox="0 0 5.009999752044678 8.010000228881836"><path d="M2.01 0v1h-.75C.58 1 .01 1.57.01 2.25v.5c0 .68.44 1.24 1.09 1.41l2.56.66c.14.04.34.29.34.44v.5c0 .14-.11.25-.25.25h-2.5A.56.56 0 0 1 1 5.95v-.94H0v1c0 .34.2.63.44.78.23.16.52.22.81.22H2v1h1v-1h.75C4.44 7.01 5 6.45 5 5.76v-.5c0-.68-.44-1.24-1.09-1.41l-2.56-.66c-.14-.04-.34-.29-.34-.44v-.5c0-.14.11-.25.25-.25h2.5c.11 0 .21.04.25.06V3h1V2c0-.34-.2-.63-.44-.78-.23-.16-.52-.22-.81-.22h-.75V0h-1z"/></svg>