<svg xmlns="http://www.w3.org/2000/svg" viewBox="0 0 853.333984375 859.3070068359375"><path d="M853.334 164.693L657.281.213l-54.827 65.28 196.053 164.48 54.827-65.28zM250.88 65.28L196.053 0 0 164.48l54.827 65.28L250.88 65.28zm175.574 26.027c-212.267 0-383.787 171.947-383.787 384s171.52 384 383.787 384 384.213-171.947 384.213-384-171.947-384-384.213-384zm.213 682.666C261.76 773.973 128 640.213 128 475.306s133.76-298.667 298.667-298.667 298.667 133.76 298.667 298.667-133.547 298.667-298.667 298.667zm-62.507-233.6l-90.453-90.453-45.227 45.227 135.68 135.68 256.214-256.213-45.227-45.227L364.16 540.374z"/></svg>