<svg xmlns="http://www.w3.org/2000/svg" viewBox="0 0 993.4281005859375 1024.001953125"><path d="M870.477 843.43q8.57-3.429 14.856-1.714t6.286 10-8.57 19.143q-7.43 9.143-25.144 24.857t-54.57 38.857-80.572 42.286-107.43 33.143-131.142 14q-68 0-136-17.714t-119.43-43.714-98.57-59.429-75.714-60-48-50q-4.57-5.143-5.714-9.429t.57-6.857 4.572-4 6.57-1.143 6.572 2.571q109.714 66.857 171.43 94.857 222.285 100.571 456.57 51.429 108.57-22.857 223.43-77.143zm118.284-65.715q6.286 9.143 1.43 39.714T973.904 876q-19.43 47.429-48.57 70.857-9.715 8-14.858 5.143t0-13.714q12-25.714 25.43-69.429t3.713-56.286q-2.857-4-8.857-6.571t-15.43-3.429-16.856-1.429-20 0-18 1.143-17.714 1.714-12.857 1.143q-3.43.571-7.43.857t-6.285.571-4.857.571-4 .286h-5.714l-1.714-.286-1.143-.857-.857-1.714q-3.43-9.143 26.857-22.857t58.857-17.143q26.286-4 61.714-.571t43.43 13.714zM763.619 524.572q0 17.714 7.714 36.571t18.286 33.143 21.43 26.286 18.855 18.286l7.43 6.286-129.715 128q-22.857-21.143-45.143-43.143t-33.143-33.429l-10.857-11.429q-6.286-6.286-14.286-18.857-21.714 33.714-55.714 58.571t-72.857 36.286-80 13.143-78.57-12-67.144-37.429-47.43-64.571-17.713-92.857q0-48 16-88t41.145-66.571 60.857-47.429 70-32.571 74.286-19.714 68.286-10.571 56.857-3.714v-72.571q0-37.143-12-55.429-19.43-30.286-69.143-30.286-3.43 0-9.43.571t-23.142 6.857-32 16.857-32 34-27.43 54.857l-168-15.429q0-34.286 12.572-68t38.286-64.571 61.714-54.286T398.19 14 507.049 0q57.143 0 103.43 14.286t74 35.143 46.283 47.429 25.714 49.143 7.143 42v336.571zm-384 12q0 49.143 40 76 37.714 25.143 79.43 12.571 48-14.286 65.142-70.286 8-25.714 8-57.714v-92.571q-33.714 1.143-63.43 6.857t-60.856 19.143-49.714 40.571-18.57 65.429z"/></svg>