<svg xmlns="http://www.w3.org/2000/svg" viewBox="0 0 1060.572021484375 877.7147216796875"><path d="M329.142 731.428q0-30.286-21.428-51.714T256 658.285t-51.714 21.429-21.43 51.714 21.43 51.714T256 804.571t51.714-21.429 21.429-51.714zM109.716 438.857h219.429V292.571h-90.286q-8 1.143-12.571 5.143l-111.43 111.429q-4 6.857-5.142 12.571v17.143zm731.426 292.571q0-30.286-21.43-51.714t-51.713-21.429-51.713 21.429-21.43 51.714 21.43 51.714T768 804.571t51.714-21.429 21.429-51.714zm73.143-384V237.714q0-8-5.143-13.143t-13.143-5.143h-128v-128q0-8-5.143-13.143t-13.143-5.143H640q-8 0-13.143 5.143t-5.143 13.143v128h-128q-8 0-13.143 5.143t-5.143 13.143v109.714q0 8 5.143 13.143t13.143 5.143h128v128q0 8 5.143 13.143T640 512h109.714q8 0 13.143-5.143T768 493.714v-128h128q8 0 13.143-5.143t5.143-13.143zm146.286-310.857v658.286q0 14.857-10.857 25.714T1024 731.428H914.286q0 60.571-42.857 103.429T768 877.714t-103.428-42.857-42.857-103.429h-219.43q0 60.571-42.856 103.429t-103.43 42.857-103.428-42.857-42.857-103.429H36.571q-14.857 0-25.714-10.857T0 694.857t10.857-25.714 25.714-10.857V420.572q0-14.857 7.429-33.143t18.286-29.143l113.143-113.143q10.857-10.857 29.143-18.286t33.143-7.429h91.429V36.571q0-14.857 10.857-25.714T365.715 0h658.286q14.857 0 25.714 10.857t10.857 25.714z"/></svg>