<svg xmlns="http://www.w3.org/2000/svg" viewBox="0 0 1316.5780029296875 877.7130126953125"><path d="M68.001 316.57h50.857l-25.714-61.714zm354.857 300.572l42.286-45.143-40-45.143h-93.143v28h81.143v31.429h-81.143v30.857h90.857zm90.286-44.572l56.571 62.857v-124zm164.571-26.857q0-18.857-22.857-18.857h-48v39.429h47.429q23.429 0 23.429-20.571zm165.143-2.286q0-16.571-24-16.571h-46.857v34.857h46.286q24.571 0 24.571-18.286zM684.001 277.142q0-16.571-24-16.571h-46.857v34.286h46.286q24.571 0 24.571-17.714zm262.286 39.428h50.857l-25.143-61.714zM399.43 227.999v154.857h-37.714V261.713l-53.714 121.143h-32.571l-53.714-121.143v121.143h-75.429l-14.286-34.286H54.859l-14.286 34.286h-40l66.286-154.857h54.857l62.857 146.857V227.999h60.571l48.571 105.143 44-105.143h61.714zm317.714 317.714q0 11.429-3.143 20t-8 14.286-12.857 9.429-14.857 5.714-18 2.571-18 .571-18.571-.286-16.857-.286v52h-72l-45.714-51.429-47.429 51.429H295.43V494.855h148.571l45.714 50.857 46.857-50.857h118.286q62.286 0 62.286 50.857zM550.858 350.856v32h-124V227.999h124v32.571h-86.857v28h84.571v31.429h-84.571v30.857h86.857zm765.714 319.429v130.857q0 31.429-22 54t-53.429 22.571H75.429Q44 877.713 22 855.142t-22-54V413.713h63.429l14.286-34.857h31.429l14.286 34.857h124.571v-26.286l10.857 26.286h64.571l11.429-26.857v26.857h309.143v-56.571l5.714-.571q5.714 0 5.714 8v49.143h159.429v-13.143q13.143 6.857 31.429 10.286t30 3.714 36-.286 29.429-.571l14.286-34.857h32l14.286 34.857h129.714v-33.143l19.429 33.143h104v-216h-102.857v25.143l-14.286-25.143h-105.714v25.143l-13.143-25.143H877.145q-39.429 0-62.286 12.571v-12.571h-98.286v12.571q-13.714-12.571-41.714-12.571H316.002l-24.571 55.429-24.571-55.429H153.717v25.143l-12.571-25.143H44.575L.004 300V76.571q0-31.429 22-54T75.433 0h1165.714q31.429 0 53.429 22.571t22 54V464h-68.571q-29.143 0-46.286 12.571V464h-101.143q-31.429 0-44.571 12.571V464H875.434v12.571Q857.72 464 825.72 464H706.291v12.571Q693.148 464 654.291 464H520.577l-30.857 33.143L461.149 464H261.72v216h196l31.429-33.714L518.863 680h120.571v-50.857h12q33.714 0 51.429-7.429V680h99.429v-56.571h4.571q4.571 0 5.714 1.143t1.143 5.714V680h302.286q32.571 0 50.286-13.714V680h96q34.286 0 54.286-9.714zM883.43 536.57q0 13.143-6.857 24.571t-19.429 16.571q14.286 5.143 19.429 14.857t5.143 26.286v30.857h-37.143v-25.714q0-18.857-6.857-24.857t-26.286-6h-39.429v56.571h-37.143V494.855h88q27.429 0 44 8.571t16.571 33.143zM725.144 269.713q0 13.714-7.143 25.143t-19.143 16.571q14.857 5.143 19.714 14.571t4.857 26.571v30.286h-37.143q0-5.143.286-15.143t0-14.286-1.714-10.571-4.857-9.143-10-4.857-16.857-2h-40v56h-36.571V227.998l87.429.571q28 0 44.571 8.286t16.571 32.857zm302.286 348v32H904.001V494.856h123.429v32h-86.286v28h84.571v31.429h-84.571v30.857zM784.001 227.999v154.857h-37.714V227.999h37.714zm396 372.571q0 49.143-58.286 49.143h-72V616.57h72q19.429 0 19.429-14.286 0-9.143-9.714-12t-23.714-2.857-28.286-2-24-12.857-9.714-31.429q0-22.286 14.857-34.286t37.714-12h74.286v32.571h-68q-20.571 0-20.571 14.286 0 9.143 10 11.714t24 2.286 28 1.429 24 12.286 10 31.143zm136.571-28.571v57.714q-13.714 20-50.286 20h-71.429V616.57h71.429q18.857 0 18.857-14.286 0-7.429-7.143-10.857t-17.714-3.143-22.857-1.143-22.857-4.571-17.714-13.714-7.143-27.714q0-22.286 15.143-34.286t38-12h73.714v32.571h-67.429q-20.571 0-20.571 14.286 0 11.429 16.571 12.571t39.143 2.857 32.286 14.857zm-94.285-343.429v154.286h-52.571l-69.714-116v116h-75.429l-14.857-34.286h-76.571l-14.286 34.286h-42.857q-73.714 0-73.714-76 0-78.857 76-78.857h36v33.714q-4 0-16-.571t-16.286-.286-13.143 1.143-12.286 3.714-8.286 7.714-6.571 13.143-1.714 19.143q0 21.714 7.714 33.143t28.286 11.429h16.571l52.571-121.714h55.429l62.286 146.286V228.571h56.571L1184.573 336V228.571h37.714z"/></svg>