<svg xmlns="http://www.w3.org/2000/svg" viewBox="0 0 896 1028.5260009765625"><path d="M832 388.526c-35.2 0-64 28.8-64 64v256c0 35.2 28.8 64 64 64s64-28.8 64-64v-256c0-35.2-28.8-64-64-64zm-768 0c-35.2 0-64 28.8-64 64v256c0 35.2 28.8 64 64 64s64-28.8 64-64v-256c0-35.2-28.802-64-64-64zm96 352c0 53.02 42.98 96 96 96v128c0 35.2 28.8 64 64 64s64-28.8 64-64v-128h128v128c0 35.2 28.8 64 64 64s64-28.8 64-64v-128c53.02 0 96-42.98 96-96v-352H160v352zm574.217-415.998c-9.716-87.884-59.004-163.792-129.62-209.646l32.024-64.046c7.904-15.806 1.496-35.028-14.31-42.932s-35.03-1.496-42.932 14.312l-32.142 64.286-8.35-3.316c-28.568-9.502-59.122-14.66-90.886-14.66-31.762 0-62.316 5.158-90.888 14.656l-8.348 3.316-32.142-64.282C308.719 6.408 289.495.004 273.691 7.904c-15.808 7.904-22.214 27.126-14.312 42.932l32.022 64.046c-70.617 45.852-119.904 121.762-129.623 209.644v32H736v-31.998h-1.784zM352 260.526c-17.674 0-32-14.328-32-32 0-17.648 14.288-31.958 31.93-31.996l.094.002.052-.002c17.638.042 31.924 14.35 31.924 31.996 0 17.672-14.326 32-32 32zm192 0c-17.674 0-32-14.328-32-32 0-17.646 14.286-31.954 31.924-31.996l.05.002.096-.002c17.64.038 31.93 14.348 31.93 31.996 0 17.672-14.326 32-32 32z"/></svg>