<svg xmlns="http://www.w3.org/2000/svg" viewBox="0 0 881.2420043945312 1026.4320068359375"><path d="M743.834 544.092C742.54 414.41 849.593 352.216 854.376 349.126c-60.152-88.02-153.85-100.078-187.242-101.472-79.742-8.074-155.596 46.948-196.066 46.948-40.368 0-102.818-45.754-168.952-44.552-86.916 1.292-167.058 50.538-211.812 128.38C0 535.128 67.178 767.27 155.194 894.356c43.008 62.204 94.292 132.076 161.626 129.58 64.842-2.588 89.362-41.958 167.756-41.958s100.428 41.958 169.05 40.67c69.774-1.296 113.982-63.398 156.692-125.796 49.39-72.168 69.726-142.038 70.924-145.626-1.548-.706-136.06-52.236-137.408-207.134zm-128.936-380.57C650.636 120.164 674.758 60.01 668.178 0 616.7 2.096 554.3 34.29 517.368 77.55c-33.142 38.376-62.148 99.626-54.374 158.436 57.466 4.484 116.128-29.204 151.904-72.464z"/></svg>