<svg xmlns="http://www.w3.org/2000/svg" viewBox="0 0 1170.2869873046875 914.2870483398438"><path d="M274.285 548.572q0-37.714-26.857-64.571t-64.571-26.857-64.571 26.857-26.857 64.571 26.857 64.571T182.857 640t64.571-26.857 26.857-64.571zm20.571-182.857h580.571l-50.857-204q-1.143-4.571-8-10t-12-5.429H365.713q-5.143 0-12 5.429t-8 10zm784 182.857q0-37.714-26.857-64.571t-64.571-26.857-64.571 26.857T896 548.572t26.857 64.571T987.428 640t64.571-26.857 26.857-64.571zm91.429-54.857v219.429q0 8-5.143 13.143t-13.143 5.143h-54.857v73.143q0 45.714-32 77.714t-77.714 32-77.714-32-32-77.714V731.43H292.571v73.143q0 45.714-32 77.714t-77.714 32-77.714-32-32-77.714V731.43H18.286q-8 0-13.143-5.143T0 713.144V493.715q0-53.143 37.429-90.571T128 365.715h16l60-239.429q13.143-53.714 59.429-90T365.715 0h438.857q56 0 102.286 36.286t59.429 90l60 239.429h16q53.143 0 90.571 37.429t37.429 90.571z"/></svg>