<svg xmlns="http://www.w3.org/2000/svg" viewBox="0 0 351.9360046386719 799.2960205078125"><path d="M288.288 799.296H63.616C28.448 799.296 0 770.816 0 735.68V127.232c0-35.136 28.48-63.616 63.616-63.616H97.44V47.712C97.44 30.144 109.696 0 127.264 0h95.424c17.568 0 31.808 30.144 31.808 47.712v15.904h33.824c35.168 0 63.616 28.512 63.616 63.616V735.68c-.032 35.168-28.512 63.616-63.648 63.616zm-65.632-638.24h-31.808v-31.808h-29.824v31.808h-31.808v31.808h31.808v31.808h29.824v-31.808h31.808v-31.808zm97.44 125.248H31.776V735.68c0 17.6 14.24 31.808 31.808 31.808h224.672c17.568 0 31.808-14.208 31.808-31.808V286.304zM127.233 670.048h97.44v33.824h-97.44v-33.824z"/></svg>