<svg xmlns="http://www.w3.org/2000/svg" viewBox="0 0 1025.5 1024"><path d="M1025.499 800c0-288-256-224-256-448 0-18.56-1.788-34.42-5.048-47.928-16.83-113.018-92.156-203.72-189.772-231.36a56.926 56.926 0 0 0 1.32-12.21c0-33.278-28.8-60.502-64-60.502s-64 27.224-64 60.5c0 4.18.456 8.264 1.32 12.21-109.47 30.998-190.913 141.298-193.253 273.442-.04 1.92-.066 3.864-.066 5.846C256 576 0 512 0 800c0 76.226 170.59 139.996 398.97 156.08C420.494 996.484 463.026 1024 512 1024s91.508-27.516 113.03-67.92C853.41 939.996 1024 876.226 1024 800c0-.228-.026-.456-.028-.682l1.528.682zm-199.253 54.096c-54.23 14.47-118.158 24.876-186.768 30.648C633.773 819.326 578.896 768 511.999 768s-121.773 51.326-127.478 116.744c-68.608-5.772-132.538-16.178-186.768-30.648-74.63-19.914-110.31-42.19-123.368-54.096 13.058-11.906 48.738-34.182 123.368-54.096C284.526 722.752 396.126 710 511.999 710s227.474 12.752 314.246 35.904c74.63 19.914 110.31 42.19 123.368 54.096-13.058 11.906-48.738 34.182-123.368 54.096z"/></svg>