<svg xmlns="http://www.w3.org/2000/svg" viewBox="0 0 1316.572021484375 731.4268188476562"><path d="M435.43 511.999H256.001q-22.857 0-32.857-20t3.714-38.286l107.429-143.43q-37.143-17.713-78.286-17.713-75.429 0-129.143 53.714T73.144 475.427t53.714 129.143 129.143 53.714q65.714 0 116-41.43t63.429-104.856zm-106.286-73.143H435.43q-10.286-48.571-42.857-84.571zm274.286 0l164.571-219.43H493.715l-56.571 75.43q60 58.857 72 144h94.286zm640 36.57q0-75.428-53.714-129.142t-129.143-53.714q-34.286 0-69.143 13.714l99.429 148.57q8.571 13.144 5.714 28t-15.429 22.858q-8.571 6.286-20.571 6.286-20 0-30.286-16.571l-99.429-148.571q-53.143 54.286-53.143 128.57 0 75.43 53.714 129.144t129.143 53.714 129.143-53.714 53.714-129.143zm73.142 0q0 105.715-75.143 180.858t-180.857 75.143-180.857-75.143-75.143-180.857q0-55.43 22.571-104.857t62.571-85.43l-37.143-56-201.714 268q-10.286 14.858-29.143 14.858H509.143Q496 605.712 424 668.568t-168 62.858q-105.714 0-180.857-75.143T0 475.426t75.143-180.857T256 219.426q65.143 0 122.857 31.429l78.286-104.571h-128q-14.857 0-25.714-10.857t-10.857-25.714 10.857-25.714 25.714-10.857h219.429v73.143h248.571l-48.571-73.143H621.715q-14.857 0-25.714-10.857T585.144 36.57t10.857-25.714T621.715 0h146.286q18.857 0 30.286 16l152.571 228.57q52-25.142 109.714-25.142 105.714 0 180.857 75.143t75.143 180.857z"/></svg>