<svg xmlns="http://www.w3.org/2000/svg" viewBox="0 0 1024 1024"><path d="M874.04 149.96C777.334 53.258 648.76 0 512 0S246.667 53.258 149.96 149.96C53.258 246.666 0 375.24 0 512s53.258 265.334 149.96 362.04C246.667 970.742 375.24 1024 512 1024s265.334-53.258 362.04-149.96C970.742 777.334 1024 648.76 1024 512s-53.258-265.334-149.96-362.04zM896 512c0 82.814-26.354 159.588-71.112 222.38L289.622 199.112C352.414 154.354 429.187 128 512 128c211.738 0 384 172.262 384 384zm-768 0c0-82.814 26.354-159.586 71.112-222.378l535.27 535.268C671.588 869.646 594.814 896 512 896c-211.738 0-384-172.262-384-384z"/></svg>