<svg xmlns="http://www.w3.org/2000/svg" viewBox="0 0 1024 1024"><path d="M957.797 384H900.39c-35.166 0-65.988-29.742-68.39-64C832.004 137.332 684.742 0 500.81 0H332.987C149.174 0 .13 148 0 330.666v362.798C0 876.118 149.174 1024 332.984 1024h358.42C875.352 1024 1024 876.118 1024 693.464V459.082C1024 422.58 994.56 384 957.796 384zM319.999 256h192c35.2 0 64 28.8 64 64s-28.8 64-64 64h-192c-35.2 0-64-28.8-64-64s28.8-64 64-64zm384 512h-384c-35.2 0-64-28.8-64-64s28.8-64 64-64h384c35.2 0 64 28.8 64 64s-28.8 64-64 64z"/></svg>