<svg xmlns="http://www.w3.org/2000/svg" viewBox="0 0 1103.9600830078125 772.4959716796875"><path d="M224 0H32C14.4 0 0 14.4 0 32v704c0 17.6 14.4 32 32 32h192c17.6 0 32-14.4 32-32V32c0-17.6-14.4-32-32-32zm-32 192H64v-64h128v64zM544 0H352c-17.6 0-32 14.4-32 32v704c0 17.6 14.4 32 32 32h192c17.6 0 32-14.4 32-32V32c0-17.6-14.4-32-32-32zm-32 192H384v-64h128v64zM765.088 49.48l-171.464 86.394c-15.716 7.918-22.096 27.258-14.178 42.976l287.978 571.548c7.918 15.718 27.258 22.098 42.976 14.178l171.464-86.392c15.716-7.92 22.096-27.26 14.178-42.974L808.064 63.66c-7.92-15.718-27.26-22.1-42.976-14.18zM928 736c0 17.673-14.327 32-32 32s-32-14.327-32-32c0-17.673 14.327-32 32-32s32 14.327 32 32z"/></svg>