<svg xmlns="http://www.w3.org/2000/svg" viewBox="0 0 896 1024"><path d="M448 192c142 0 256 115 256 256 0 69-28 132-72 178l-16 93c91-56 152-156 152-271 0-177-143-320-320-320S128 271 128 448c0 115 61 215 152 271l-16-93c-45-46-72-109-72-178 0-142 114-256 256-256zm-64 320c-36 0-64 29-64 64v128c0 36 30 64 64 64v256h128V768c34 0 64-28 64-64V576c0-35-28-64-64-64H384zm192-128c0-71-57-128-128-128s-128 57-128 128 57 128 128 128 128-57 128-128zM448 0C201 0 0 201 0 448c0 197 128 363 305 423l-12-72C158 739 64 605 64 448 64 236 236 64 448 64s384 172 384 384c0 157-94 291-229 351l-12 72c177-60 305-225 305-423C896 201 695 0 448 0z"/></svg>