<svg xmlns="http://www.w3.org/2000/svg" viewBox="0 0 1152 1023.511962890625"><path d="M1088 901.166c0 45.5 26.028 84.908 64 104.184v15.938a239.589 239.589 0 0 1-32.5 2.224c-68.008 0-129.348-28.528-172.722-74.264C920.556 956.23 892.776 960 864 960c-159.058 0-288-114.616-288-256s128.942-256 288-256 288 114.616 288 256c0 55.348-19.764 106.592-53.356 148.466-6.824 14.824-10.644 31.312-10.644 48.7zM512 0c278.458 0 504.992 180.614 511.836 405.52C974.654 383.6 920.25 372 864 372c-95.56 0-185.816 33.446-254.138 94.178C539.016 529.15 500 613.612 500 704c0 44.672 9.544 87.888 27.736 127.788-5.228.126-10.468.212-15.736.212-27.156 0-53.81-1.734-79.824-5.044C322.198 936.934 190.926 956.656 64 959.552v-26.916c68.536-33.578 128-94.74 128-164.636 0-9.754-.758-19.33-2.164-28.696C74.04 663.04 0 546.55 0 416 0 186.25 229.23 0 512 0z"/></svg>