<svg xmlns="http://www.w3.org/2000/svg" viewBox="0 0 1024 999.5120849609375"><path d="M1024 576v-64H830.71c-5.862-72.686-31.786-139.026-71.67-192.25h161.944l70.06-280.24-62.09-15.522-57.94 231.76h-174.68c-.892-.694-1.796-1.374-2.698-2.056 6.71-19.502 10.362-40.422 10.362-62.194C704 85.738 618.04 0 512 0S320 85.738 320 191.5c0 21.772 3.65 42.692 10.362 62.194-.9.684-1.804 1.362-2.698 2.056h-174.68L95.044 23.99l-62.09 15.522 70.06 280.24h161.944C225.074 372.974 199.152 439.314 193.29 512H0v64h193.37c3.802 45.664 15.508 88.812 33.638 127.75H103.017l-70.06 280.238 62.09 15.524 57.94-231.762h112.354c58.692 78.032 147.396 127.75 246.66 127.75s187.966-49.718 246.661-127.75h112.355l57.94 231.762 62.09-15.524-70.06-280.238H796.994c18.13-38.938 29.836-82.086 33.636-127.75H1024z"/></svg>