<svg xmlns="http://www.w3.org/2000/svg" viewBox="0 0 877.7149658203125 1024.002197265625"><path d="M219.43 694.859q0-30.286-21.429-51.714t-51.714-21.43-51.714 21.43-21.429 51.714 21.43 51.714 51.713 21.429 51.714-21.43 21.43-51.713zm585.142 0q0-30.286-21.429-51.714t-51.714-21.43-51.714 21.43-21.429 51.714 21.43 51.714 51.713 21.429 51.714-21.43 21.43-51.713zm-26.284-226.286l-41.143-219.43q-2.857-13.142-12.857-21.428t-23.143-8.286h-524.57q-13.144 0-23.144 8.286t-12.857 21.429L99.431 468.573q-2.857 17.143 8 30.286t28 13.143h606.857q17.143 0 28-13.143t8-30.286zM649.144 118.859q0-11.43-8-19.43t-19.429-8H256.001q-11.429 0-19.429 8t-8 19.43 8 19.429 19.43 8h365.713q11.43 0 19.43-8t8-19.43zm228.571 414.286v344.57h-73.143v73.144q0 30.286-21.429 51.714t-51.714 21.429-51.714-21.43-21.429-51.713v-73.143H219.429v73.143q0 30.286-21.429 51.714t-51.714 21.429-51.714-21.43-21.429-51.713v-73.143H0V533.145q0-64 14.286-127.43l58.857-259.428Q78.286 101.716 128.857 68t131.43-50.857T438.857 0t178.571 17.143T748.858 68t55.713 78.286l60 259.429q13.143 58.286 13.143 127.429z"/></svg>