<svg xmlns="http://www.w3.org/2000/svg" viewBox="0 0 1024.0009765625 1024"><path d="M128 896h896v128H0V0h128zm160-64c-53.02 0-96-42.98-96-96s42.98-96 96-96c2.828 0 5.622.148 8.388.386L399.58 468.4c-9.84-15.07-15.58-33.062-15.58-52.402 0-53.02 42.98-96 96-96s96 42.98 96 96c0 19.342-5.74 37.332-15.58 52.402l103.192 171.986A97.727 97.727 0 0 1 672 640c2.136 0 4.248.094 6.35.23l170.357-298.122c-10.536-15.408-16.706-34.036-16.706-54.11 0-53.02 42.98-96 96-96s96 42.98 96 96-42.98 96-96 96c-2.14 0-4.248-.094-6.35-.232L751.294 681.89C761.83 697.296 768 715.926 768 736c0 53.02-42.98 96-96 96s-96-42.98-96-96c0-19.34 5.74-37.332 15.578-52.402l-103.19-171.984c-2.766.238-5.56.386-8.388.386s-5.622-.146-8.388-.386L368.42 683.6C378.26 698.668 384 716.66 384 736c0 53.02-42.98 96-96 96z"/></svg>