<svg xmlns="http://www.w3.org/2000/svg" viewBox="0 0 1024 1024"><path d="M981.247 938.752h-85.248V896h-42.752v42.752h-85.12V896h-42.751v42.752h-85.248V896h-42.752v42.752h-85.248V896h-42.752v42.752h-85.248V896h-42.752v42.752H153.599l224.853-135.125 111.275-325.205L655.018 768.94l320.3-533.675-73.132-43.947-245.205 408.576-186.709-328.149L307.756 746.54 85.248 880.256V0H0v1024h1024V896h-42.752zm0-938.752h42.752v42.752h-42.752zm-128 0h42.752v42.752h-42.752zM725.375 0h42.752v42.752h-42.751zm-128 0h42.752v42.752h-42.751zm-128 0h42.752v42.752h-42.751zm-128 0h42.752v42.752h-42.751zm-128 0h42.752v42.752h-42.751zm-128 0h42.752v42.752H85.376zm895.872 128h42.752v42.752h-42.752zm-128 0h42.752v42.752h-42.752zm-127.872 0h42.752v42.752h-42.751zm-128 0h42.752v42.752h-42.751zm-128 0h42.752v42.752h-42.751zm-128 0h42.752v42.752h-42.751zm-128 0h42.752v42.752h-42.751zm-128 0h42.752v42.752H85.376zm895.872 127.872h42.752v42.752h-42.752zm-255.872 0h42.752v42.752h-42.751zm-128 0h42.752v42.752h-42.751zm-256 0h42.752v42.752h-42.751zm-128 0h42.752v42.752h-42.751zm-128 0h42.752v42.752H85.376zm895.872 128h42.752v42.752h-42.752zm-383.872 0h42.752v42.752h-42.751zm-256 0h42.752v42.752h-42.751zm-128 0h42.752v42.752h-42.751zm-128 0h42.752v42.752H85.376zm895.872 128.085h42.752v42.752h-42.752zm-128 0h42.752v42.752h-42.752zm-639.872 0h42.752v42.752h-42.751zm-128 0h42.752v42.752H85.376zm895.872 128h42.752v42.752h-42.752zm-128 0h42.752v42.752h-42.752zm-383.872 0h42.752v42.752h-42.751zm-256 0h42.752v42.752h-42.751zm-128 0h42.752v42.752H85.376zM981.247 767.83h42.752v42.752h-42.752zm-128 0h42.752v42.752h-42.752zm-127.872 0h42.752v42.752h-42.751zm-256 0h42.752v42.752h-42.751zm-384 0h42.752v42.752H85.376z"/></svg>