<svg xmlns="http://www.w3.org/2000/svg" viewBox="0 0 1024.0009765625 1023.926025390625"><path d="M258.278 446.542L111.747 192.74C205.564 75.276 349.98 0 512 0c187.432 0 351.31 100.736 440.532 251h-417.77c-7.504-.65-15.092-1-22.762-1-121.874 0-224.578 83.644-253.722 196.542zM695.307 325h293.46c22.74 57.93 35.234 121.004 35.234 187 0 280.826-226.1 508.804-506.186 511.926l209.394-362.678c29.48-42.378 46.792-93.826 46.792-149.248 0-73.17-30.164-139.42-78.694-187zM326 512c0-102.56 83.44-186 186-186s186 83.44 186 186-83.44 186-186 186-186-83.44-186-186zm256.182 252.442L435.604 1018.32C189.072 981.436 0 768.804 0 512c0-91.218 23.884-176.846 65.696-251.024L274.727 623.03C316.594 712.142 407.202 774 512 774c24.3 0 47.836-3.34 70.182-9.558z"/></svg>