<svg xmlns="http://www.w3.org/2000/svg" viewBox="0 0 896 1024"><path d="M864 128H576C576 57.308 518.694 0 448 0c-70.692 0-128 57.308-128 128H32c-17.672 0-32 14.328-32 32v832c0 17.674 14.328 32 32 32h832c17.674 0 32-14.326 32-32V160c0-17.672-14.326-32-32-32zM448 64c35.346 0 64 28.654 64 64s-28.654 64-64 64c-35.346 0-64-28.654-64-64s28.654-64 64-64zm384 896H64V192h128v96c0 17.672 14.328 32 32 32h448c17.674 0 32-14.328 32-32v-96h128v768zM384 858.51L178.747 621.256l58.508-58.51L384 677.49l274.742-242.744 58.514 58.508z"/></svg>