<svg xmlns="http://www.w3.org/2000/svg" viewBox="0 0 1024.0018310546875 948.669921875"><path d="M870.126 449.002c9.75-7.25 19.624-14.376 28.458-23.208 26.416-26.458 46.542-58.666 59.584-95.708 4.166-11.584 1.208-24.584-7.544-33.25-8.708-8.75-21.624-11.708-33.246-7.584-70.792 25-147.376 8-199.792-44.5-52.5-52.502-69.584-129.042-44.5-199.792a32.014 32.014 0 0 0-7.584-33.292C656.836 3.002 643.878 0 632.252 4.086c-37.084 13.164-69.25 33.246-95.668 59.664-67.082 67-87.958 162-64.958 247.584-86.5 11.042-164.25 57-216.042 127.586A221.881 221.881 0 0 0 224 436.67c-123.5 0-224 100.5-224 224.002C0 784.17 100.5 884.67 224 884.67c27.376 0 54.168-5 79.418-14.668C361.332 920.502 435 948.67 512 948.67c77.084 0 150.666-28.168 208.582-78.668 25.25 9.668 52.042 14.668 79.418 14.668 123.5 0 224-100.5 224-223.998.002-98.878-64.832-182.044-153.874-211.67zm-288.292-340c5.084-5.166 10.542-9.958 16.292-14.458-4.5 71.958 21.458 142.75 74.208 195.458 52.752 52.75 123.542 78.666 195.502 74.208-27.584 35.168-65.584 57.042-106.252 66.376-54.75-69.5-135.208-113.25-223.916-120.374-24.542-67.918-10.166-146.876 44.166-201.21zM800.002 820.67c-34.25 0-65.832-11-91.876-29.334-46.957 56.584-116.876 93.334-196.124 93.334-79.25 0-149.168-36.75-196.124-93.334-26 18.334-57.624 29.334-91.876 29.334-88.376 0-160-71.624-160-159.998 0-88.376 71.624-160 160-160 21.624 0 42.124 4.376 60.876 12.124 40.376-78.71 119.5-133.792 212.624-139.086 4.876-.29 9.624-1.042 14.5-1.042 25.832 0 50.624 4.042 74 11.166 31.582 9.668 60.376 25.416 85.376 45.708 23.876 19.376 43.876 43.124 59.624 69.792 2.666 4.5 5.668 8.75 8.082 13.458 18.792-7.75 39.336-12.124 60.918-12.124 88.376 0 160 71.624 160 160s-71.623 160.002-160 160.002z"/></svg>