<svg xmlns="http://www.w3.org/2000/svg" viewBox="0 0 1024 1024"><path d="M416 128c17.666 0 32-14.334 32-32V32c0-17.666-14.334-32-32-32s-32 14.334-32 32v64c0 17.666 14.334 32 32 32zm248.876 84.334l45.25-45.25c12.498-12.5 12.498-32.75 0-45.25-12.5-12.5-32.75-12.5-45.25 0l-45.25 45.25c-12.5 12.5-12.5 32.75 0 45.25 12.498 12.5 32.75 12.5 45.25 0zM32 448h64c17.666 0 32-14.334 32-32s-14.334-32-32-32H32c-17.666 0-32 14.334-32 32s14.334 32 32 32zm672-32c0 17.666 14.334 32 32 32h64c17.666 0 32-14.334 32-32s-14.334-32-32-32h-64c-17.666 0-32 14.334-32 32zM167.082 212.334c12.502 12.5 32.752 12.5 45.25 0 12.502-12.5 12.502-32.75 0-45.25l-45.25-45.25c-12.5-12.5-32.748-12.5-45.25 0-12.5 12.5-12.5 32.75 0 45.25l45.25 45.25zM800 512c-10.624 0-21.124.75-31.584 2.25-33.542-45.75-78.248-80.666-128.916-103C636.918 290 537.877 192 416 192c-123.5 0-224 100.5-224 224 0 34.876 8.668 67.5 23 96.876C95.75 517.75 0 615.624 0 736c0 123.5 100.5 224 224 224 27.376 0 54.168-5 79.418-14.666C361.332 995.834 435 1024 512 1024c77.084 0 150.666-28.166 208.582-78.666C745.832 955 772.624 960 800 960c123.5 0 224-100.5 224-224S923.5 512 800 512zM416 256c79.624 0 145.124 58.334 157.416 134.5-20.042-4-40.498-6.5-61.416-6.5-91.876 0-177 39.624-236.75 106.5C263.376 468.166 256 443.084 256 416c0-88.376 71.624-160 160-160zm384 640c-34.25 0-65.832-11-91.876-29.334C661.168 923.25 591.248 960 512 960c-79.25 0-149.168-36.75-196.124-93.334C289.877 885 258.25 896 224 896c-88.376 0-160-71.624-160-160s71.624-160 160-160c15.5 0 30.124 2.916 44.25 7.082 5.624 1.584 11.334 2.834 16.624 5.042 8.75-17.124 19.75-32.792 31.958-47.5C363.584 484.376 433.124 448 512 448c20.25 0 39.668 2.916 58.5 7.418C591.624 460.416 611.584 468 630.168 478 676.75 502.75 715 541.084 739.082 588.126 757.877 580.376 778.418 576 800 576c88.376 0 160 71.624 160 160s-71.624 160-160 160z"/></svg>