<svg xmlns="http://www.w3.org/2000/svg" viewBox="0 0 1024 810.510009765625"><path d="M891.004 232.06C887.762 103.362 782.547 0 653.142 0 577.35 0 509.876 35.494 466.288 90.732c-24.442-31.598-62.69-51.96-105.708-51.96-73.81 0-133.642 59.876-133.642 133.722 0 6.436.48 12.76 1.364 18.954-11.222-2.024-22.766-3.138-34.57-3.138C86.734 188.308 0 275.096 0 382.152 0 489.214 86.734 576 193.73 576h91.76L512 810.51 738.51 576l111.482-.012C946.13 575.804 1024 497.778 1024 401.542c0-82.09-56.678-150.9-132.996-169.482zM512 704L320 512h128V320h128v192h128L512 704z"/></svg>