<svg xmlns="http://www.w3.org/2000/svg" viewBox="0 0 588.3796997070312 804.5730590820312"><path d="M345.333 804.573h-98.286q-7.43 0-12.857-5.143t-5.43-13.143V597.716H64.19q-7.43 0-12.857-5.143t-5.43-13.143v-58.857q0-7.429 5.43-12.857t12.857-5.429h164.57v-48.571H64.19q-7.43 0-12.857-5.143t-5.43-13.143v-59.429q0-7.429 5.43-12.857t12.857-5.429h122.286L3.046 27.429q-4.57-9.143 0-18.286Q8.762 0 19.047 0h110.858q10.857 0 16.57 10.286l122.858 242.857q10.857 21.714 32 71.429 5.714-13.714 17.43-38.857t15.713-34.857l109.143-240Q448.188.001 460.188.001h109.144q9.714 0 15.43 9.143 5.142 8 .57 17.714L406.475 357.715h122.857q7.43 0 12.857 5.429t5.43 12.857v59.429q0 8-5.43 13.143t-12.857 5.143H363.619v48.571h165.714q7.43 0 12.857 5.429t5.43 12.857v58.857q0 8-5.43 13.143t-12.858 5.143H363.619v188.571q0 7.429-5.43 12.857t-12.856 5.429z"/></svg>