<svg xmlns="http://www.w3.org/2000/svg" viewBox="0 0 960.0001220703125 961.7879638671875"><path d="M945.75 305.832l-448-298.666a31.998 31.998 0 0 0-35.5 0l-448 298.666A31.999 31.999 0 0 0 0 332.456v298.666c0 10.7 5.348 20.692 14.25 26.624l448 298.666c5.374 3.584 11.562 5.376 17.75 5.376s12.376-1.792 17.75-5.376l448-298.666A31.999 31.999 0 0 0 960 631.122V332.456a31.999 31.999 0 0 0-14.25-26.624zM480 592.666L313.688 481.79 480 370.916 646.312 481.79 480 592.666zm32-277.334V93.582l358.31 238.876L704 443.332l-192-128zm-64 0l-192 128L89.688 332.458 448 93.582v221.75zM198.312 481.79L64 571.332V392.25l134.312 89.54zM256 520.248l192 128v221.748L89.688 631.124 256 520.248zm256 128l192-128 166.312 110.876L512 869.998v-221.75zM761.688 481.79L896 392.25v179.084L761.688 481.79z"/></svg>