<svg xmlns="http://www.w3.org/2000/svg" viewBox="0 0 1028.4400634765625 1028.43798828125"><path d="M1016.88 824.878c-.004-.004-.008-.008-.012-.01l-310.643-310.65 310.644-310.65.012-.01a31.763 31.763 0 0 0 7.312-11.416c4.246-11.376 1.824-24.682-7.324-33.83L870.122 11.566C860.974 2.42 847.672 0 836.294 4.246a31.826 31.826 0 0 0-11.418 7.31c0 .004-.004.006-.008.01L514.22 322.218 203.572 11.568l-.01-.01a31.794 31.794 0 0 0-11.414-7.31c-11.38-4.248-24.682-1.826-33.83 7.32L11.57 158.316c-9.148 9.148-11.568 22.452-7.322 33.828a31.816 31.816 0 0 0 7.312 11.416c.004.002.006.006.01.01l310.65 310.648L11.57 824.87l-.008.01a31.859 31.859 0 0 0-7.314 11.414C0 847.67 2.422 860.976 11.57 870.124l146.748 146.746c9.15 9.148 22.452 11.568 33.83 7.322a31.834 31.834 0 0 0 11.416-7.312c.002-.004.006-.006.01-.01l310.648-310.65 310.648 310.65.012.008a31.822 31.822 0 0 0 11.414 7.314c11.378 4.246 24.684 1.826 33.828-7.322l146.746-146.748c9.148-9.148 11.57-22.454 7.324-33.83a31.805 31.805 0 0 0-7.314-11.414z"/></svg>