<svg xmlns="http://www.w3.org/2000/svg" viewBox="0 0 1024 1024"><path d="M852 0H172C77.4 0 0 77.4 0 172v680c0 94.6 77.4 172 172 172h680c94.6 0 172-77.4 172-172V172c0-94.6-77.4-172-172-172zm108 768H576V532s70.334 1 108 40v68h154.41c-11.82-37.882-37.068-75.112-73.128-106.664C703.302 479.106 602.088 452 512 452v316H64v-96c0-43.396 14.65-86.538 42.364-124.76 24.594-33.918 58.864-63.832 101.86-88.914 50.432-29.418 110.562-50.708 175.776-62.778V256h128v128c147 0 221.612 26.396 303.778 74.326 42.996 25.082 77.266 54.996 101.86 88.914C945.352 585.462 960 628.604 960 672v96zM199.59 640c11.82-37.882 37.07-75.112 73.128-106.664 31.54-27.596 69.62-49.188 111.282-63.756V640H199.59z"/></svg>