<svg xmlns="http://www.w3.org/2000/svg" viewBox="0 0 768.0785522460938 768.07861328125"><path d="M597.372.04h-42.666v213.333h42.667V.04zM512.04 85.373h-85.333V42.706h85.333V.04h-128v128h85.333v42.667H384.04v42.667h128v-128zM640.04.04v213.333h42.667V128.04h85.333V.04h-128zm85.333 85.333h-42.666V42.706h42.667v42.667zm0 448c-53.12 0-104.32-8.533-152.32-24.32-14.72-4.693-31.573-1.28-43.307 10.453l-93.867 94.08c-120.747-61.44-219.52-160.213-281.172-280.96l93.867-94.08c11.733-11.733 15.147-28.587 10.453-43.307-15.787-48-24.32-99.413-24.32-152.533A42.52 42.52 0 0 0 192.04.04H42.706A42.52 42.52 0 0 0 .04 42.706c0 400.64 324.693 725.333 725.333 725.333a42.52 42.52 0 0 0 42.667-42.667V576.04a42.52 42.52 0 0 0-42.667-42.667z"/></svg>