<svg xmlns="http://www.w3.org/2000/svg" viewBox="0 0 682.666015625 938.666015625"><path d="M341.333 768C294.186 768 256 806.187 256 853.333s38.187 85.333 85.333 85.333 85.333-38.187 85.333-85.333S388.48 768 341.333 768zm-256-768C38.186 0 0 38.187 0 85.333s38.187 85.333 85.333 85.333 85.333-38.187 85.333-85.333S132.48 0 85.333 0zm0 256C38.186 256 0 294.187 0 341.333s38.187 85.333 85.333 85.333 85.333-38.187 85.333-85.333S132.48 256 85.333 256zm0 256C38.186 512 0 550.187 0 597.333s38.187 85.333 85.333 85.333 85.333-38.187 85.333-85.333S132.48 512 85.333 512zm512-341.334c47.147 0 85.333-38.187 85.333-85.333S644.48 0 597.333 0 512 38.187 512 85.333s38.187 85.333 85.333 85.333zM341.333 512C294.186 512 256 550.187 256 597.333s38.187 85.333 85.333 85.333 85.333-38.187 85.333-85.333S388.48 512 341.333 512zm256 0C550.186 512 512 550.187 512 597.333s38.187 85.333 85.333 85.333 85.333-38.187 85.333-85.333S644.48 512 597.333 512zm0-256C550.186 256 512 294.187 512 341.333s38.187 85.333 85.333 85.333 85.333-38.187 85.333-85.333S644.48 256 597.333 256zm-256 0C294.186 256 256 294.187 256 341.333s38.187 85.333 85.333 85.333 85.333-38.187 85.333-85.333S388.48 256 341.333 256zm0-256C294.186 0 256 38.187 256 85.333s38.187 85.333 85.333 85.333 85.333-38.187 85.333-85.333S388.48 0 341.333 0z"/></svg>