<svg xmlns="http://www.w3.org/2000/svg" viewBox="0 0 1024 1024"><path d="M864 192H352c-88 0-160 72-160 160v512c0 88 72 160 160 160h512c88 0 160-72 160-160V352c0-88-72-160-160-160zM416 896c-53.02 0-96-42.98-96-96s42.98-96 96-96 96 42.98 96 96-42.98 96-96 96zm0-384c-53.02 0-96-42.98-96-96s42.98-96 96-96 96 42.98 96 96-42.98 96-96 96zm192 192c-53.02 0-96-42.98-96-96s42.98-96 96-96 96 42.98 96 96-42.98 96-96 96zm192 192c-53.02 0-96-42.98-96-96s42.98-96 96-96 96 42.98 96 96-42.98 96-96 96zm0-384c-53.02 0-96-42.98-96-96s42.98-96 96-96 96 42.98 96 96-42.98 96-96 96zm28.76-384C813.83 55.196 749.05 0 672 0H160C72 0 0 72 0 160v512c0 77.046 55.196 141.83 128 156.76V192c0-35.2 28.8-64 64-64h636.76z"/></svg>