<svg xmlns="http://www.w3.org/2000/svg" viewBox="0 0 1024 887.466064453125"><path d="M682.667 153.6c42.24 0 76.8-34.347 76.8-76.8S724.907 0 682.667 0c-42.453 0-76.8 34.347-76.8 76.8s34.347 76.8 76.8 76.8zm128 307.2c-117.76 0-213.333 95.573-213.333 213.333s95.573 213.333 213.333 213.333S1024 791.893 1024 674.133 928.427 460.8 810.667 460.8zm0 362.667c-82.56 0-149.333-66.773-149.333-149.333s66.773-149.333 149.333-149.333S960 591.574 960 674.134s-66.773 149.333-149.333 149.333zm-179.2-448h179.2v-76.8H674.134l-82.56-139.307c-12.587-21.333-35.84-35.627-62.507-35.627-20.053 0-38.187 8.107-51.2 21.333L320 302.719c-13.227 13.227-21.333 31.36-21.333 51.413 0 26.88 14.293 49.493 36.267 62.72l142.933 86.613v213.333h76.8v-276.48l-96-71.253 98.987-99.413 73.813 105.813zM213.333 460.8C95.573 460.8 0 556.373 0 674.133s95.573 213.333 213.333 213.333 213.334-95.573 213.334-213.333S331.094 460.8 213.334 460.8zm0 362.667C130.773 823.467 64 756.694 64 674.134s66.773-149.333 149.333-149.333 149.334 66.773 149.334 149.333-66.774 149.333-149.334 149.333z"/></svg>