<svg xmlns="http://www.w3.org/2000/svg" viewBox="0 0 1024 576"><path d="M0 576V0h1024v576H0zM64 62.016V512h896V62.016H64zM672 288c0-106.016-71.616-192-160-192h416v384H512c88.384 0 160-85.984 160-192zm128 64c26.496 0 48-28.672 48-64s-21.504-64-48-64-48 28.672-48 64 21.504 64 48 64zM579.777 207.296c-.48 1.76-1.152 3.008-1.984 3.808-.864.8-2.016 1.184-3.488 1.184s-3.776-.896-7.008-2.752c-3.2-1.888-7.136-3.872-11.776-6.048-4.672-2.176-10.048-4.16-16.192-5.984-6.144-1.792-12.864-2.656-20.192-2.656-5.76 0-10.752.672-15.008 2.08-4.256 1.376-7.84 3.328-10.688 5.76-2.88 2.464-4.992 5.44-6.4 8.864-1.376 3.424-2.08 7.104-2.08 10.944 0 5.76 1.568 10.72 4.704 14.912s7.328 7.936 12.608 11.2c5.28 3.296 11.232 6.336 17.92 9.184 6.624 2.88 13.44 5.92 20.384 9.088a205.112 205.112 0 0 1 20.384 10.912c6.688 4.064 12.64 8.928 17.824 14.592s9.376 12.32 12.608 19.968c3.2 7.68 4.768 16.672 4.768 27.104 0 13.6-2.496 25.504-7.552 35.776-5.088 10.24-11.936 18.816-20.64 25.664-8.672 6.88-18.784 12.032-30.368 15.488-1.472.448-3.072.64-4.576.992v34.944h-31.456v-30.816c-.416 0-.768.064-1.152.064-8.928 0-17.248-.704-24.896-2.144-7.68-1.472-14.432-3.232-20.288-5.248-5.888-2.048-10.752-4.192-14.688-6.432s-6.752-4.224-8.48-5.952c-1.728-1.728-2.976-4.224-3.712-7.488-.736-3.296-1.12-7.968-1.12-14.112 0-4.128.128-7.584.416-10.4s.704-5.056 1.312-6.816 1.376-2.976 2.4-3.712c.992-.704 2.144-1.088 3.488-1.088 1.856 0 4.48 1.088 7.904 3.296 3.392 2.208 7.776 4.64 13.088 7.296 5.344 2.688 11.68 5.088 19.104 7.328 7.392 2.176 15.968 3.296 25.696 3.296 6.4 0 12.128-.768 17.184-2.304s9.376-3.68 12.896-6.496 6.208-6.272 8.096-10.4c1.888-4.16 2.816-8.736 2.816-13.856 0-5.856-1.632-10.88-4.8-15.104-3.2-4.192-7.36-7.904-12.512-11.2-5.12-3.264-10.944-6.304-17.472-9.184s-13.248-5.92-20.192-9.088c-6.912-3.2-13.664-6.816-20.192-10.912-6.528-4.064-12.352-8.896-17.472-14.56s-9.312-12.384-12.48-20.096c-3.2-7.712-4.8-16.992-4.8-27.776 0-12.416 2.304-23.296 6.88-32.672 4.608-9.376 10.784-17.184 18.592-23.36s16.992-10.816 27.584-13.888c5.44-1.6 11.072-2.72 16.832-3.488V121.92h31.456v33.088c1.248.16 2.496.096 3.744.288 6.112.928 11.872 2.176 17.184 3.776 5.344 1.568 10.048 3.328 14.208 5.344 4.128 1.984 6.848 3.616 8.192 4.96 1.344 1.312 2.208 2.432 2.72 3.36.448.928.832 2.176 1.184 3.712.32 1.536.576 3.456.672 5.824.128 2.304.192 5.216.192 8.672 0 3.872-.096 7.168-.288 9.856-.288 2.528-.608 4.768-1.088 6.496zM352 288c0 106.016 71.616 192 160 192H96V96h416c-88.384 0-160 85.984-160 192zm-128-64c-26.528 0-48 28.672-48 64s21.472 64 48 64c26.496 0 48-28.672 48-64s-21.504-64-48-64z"/></svg>