<svg xmlns="http://www.w3.org/2000/svg" viewBox="0 0 768.001953125 682.666015625"><path d="M679.254 43.093C670.508 17.92 646.614 0 618.668 0H149.334c-27.947 0-51.84 17.92-60.587 43.093L0 298.666v341.333c0 23.467 19.2 42.667 42.667 42.667h42.667c23.68 0 42.667-19.2 42.667-42.667v-42.667h512v42.667c0 23.467 19.2 42.667 42.667 42.667h42.667c23.68 0 42.667-19.2 42.667-42.667V298.666L679.255 43.093zm-529.92 426.24c-35.413 0-64-28.587-64-64s28.587-64 64-64 64 28.587 64 64-28.587 64-64 64zm469.334 0c-35.413 0-64-28.587-64-64s28.587-64 64-64 64 28.587 64 64-28.587 64-64 64zM85.334 256l64-192h469.334l64 192H85.334z"/></svg>