<svg xmlns="http://www.w3.org/2000/svg" viewBox="0 0 1024 1024"><path d="M512 1024C229.248 1024 0 794.752 0 512S229.248 0 512 0s512 229.248 512 512-229.248 512-512 512zm414.976-554.912c.832-.416 1.28-1.12 1.6-2.24.672 3.552 2.304 6.688 4.928 8.992.064.32-.096.256.064.704.256 0 .448-.192.672-.192 2.688 2.176 6.016 3.648 9.76 3.648 5.76 0 10.56-3.2 13.376-7.712.192.224.512.512.672.768-.032-.512-.096-1.024-.16-1.536 1.248-2.272 2.112-4.768 2.112-7.52 0-8.832-7.2-16-16-16-5.632 0-10.304 3.072-13.184 7.424-.128-.096 0-.48-.352-.352.416-1.216-.704-4.32-2.464-7.648V464c0 1.824-.512 3.456-1.024 5.088zm-735.232-4.8c0-4.832-11.008-13.056-13.856-13.056 0-.864-4.48-10.72-6.176-10.72 0-3.328-11.68-18.272-13.536-11.744-1.216 4.224 8.928 9.92 8.928 14.816 1.888 0 9.824 15.04 11.392 17.664 17.344 29.312-12.96 9.28-12.96-3.136-3.872-1.92-9.984-16.672-9.984-20.704-2.272-1.824-8.992-16.064-8.448-16.064 0-9.344-5.152-13.824-15.392-13.824-.48-.928-9.088-13.024-9.248-13.024 0-3.84-6.912-15.744-10.752-17.632 0-7.968-4.096-17.792-2.272-26.048 0-8.672-.448-18.496-3.392-27.392C79.328 380.8 64 444.544 64 512c0 193.312 122.688 357.568 294.272 420.384.192-15.872 1.376-34.88 4.992-34.88 0-2.368 2.016-12.288 3.84-12.288 0-6.08.736-13.408 0-20.704-2.272-4.576 3.008-10.432 4.608-17.632 8.864-4.448 2.592-49.056 9.28-49.056 0-22.304 4.992-35.296 1.504-55.968 1.696 0-10.08-12.512-9.984-12.288-11.296 0-19.2-18.112-19.2-26.048-1.088-3.488-3.872-8.704-3.872-13.024 2.592 0-16.16-27.392-16.16-26.848-9.92-5.504.544-13.184 1.536-22.208-8.608-2.848.096-26.08 3.84-26.08.384-2.944 1.92-4.96 4.64-6.112 1.92 7.648 10.848-3.808 3.84-3.808 0-5.056-.576-15.872 0-18.4 0-7.808-6.912-23.104-12.288-6.912-5.76-2.848-20.288-2.336-21.536-11.488.896-4.512-8.288-13.728-11.52-15.328 3.008-7.872-15.584-18.4-22.304-18.4 0-1.696-3.552-.928-4.608-3.072-6.848 0-8.416-9.216-16.16-9.216-8.928 0-17.92-6.112-26.144-6.112-2.752-5.472-15.52-3.328-18.464-9.216-6.688 0-9.312-12.672-9.504-17.344-.288-5.76-4.864-25.664-12.864-25.664zm648.192-256.8c-.064.192.064.064-.256.704.48 0 1.056.544 1.6.768-.48-.48-.896-.96-1.344-1.472zm9.632 10.592c1.12 2.176 1.952 4.192 1.696 5.44 1.12.032 1.664-.576 2.56-.8-1.376-1.568-2.88-3.04-4.256-4.64zm27.808 145.792c.512-13.824-11.52-11.52-15.328-19.2-3.968 0-5.408-3.072-10.784-3.072-3.488-1.184-6.24-.352-8.256 2.496-8.224 3.136-3.264-4-9.44-4 .288-7.904-2.848-10.08-11.552-9.216-4.992 11.264-12.672 18.016-11.52 30.688 3.68.832 3.04 1.664 2.304 5.344 4.896.256 34.592-1.536 34.592-4.608 1.024 0 6.176 10.592 6.176 1.536 4.128 0 6.304 9.696 16.16 6.88 0 1.984 16.448-6.848 7.648-6.848zm1.568 163.296c.576-2.816-1.408-4.064-3.072-6.912 4.384 0-13.856-33.824-13.856-39.104-2.784-1.376-6.336-11.04-6.976-14.56-3.744-2.496-7.616-10.688-9.216-15.328-3.808-2.528-13.088-13.856-14.592-19.168 5.504.608 13.824 1.728 13.824-5.376-3.712 0-4.256-4.576-.736-4.576-1.152-4.704 2.496-8.096 3.296-11.776.96-4.448 2.848-11.296 2.848-16.608-5.28 0-6.56.896-10.752 2.304 0 3.104-9.376-.768-10.752-.768-2.016-4.032-16.64 5.248-20.736-3.072-6.624-5.984-4.832-10.592-6.976-19.04-1.088-4.288-6.944-4.544-10.496-5.248-10.016-1.952-2.784 11.936-3.328 15.104 6.144 0-3.872 7.616-3.872 11.488-10.368-2.24-6.912-13.792-13.024-16.864-1.824-3.072-.384-5.376-4.64-5.376 0-4.096 2.176-11.52-2.304-13.024 0-1.984-8.704-2.784-9.984-5.376-5.504 0-18.304-20.8-22.24-13.792-2.464 4.48 2.08 5.568 3.008 9.216 7.968-1.568 7.2 13.12 16.928 11.488 0 2.048.256 4.128.736 6.144 7.2-1.696 6.368 5.344 9.984 5.344-2.624 3.488-10.944-5.568-8.672 2.048 1.312 4.416.576 8.192-5.152 12.512 0-4.768-.384-17.632-5.376-17.632-3.392-6.784-13.472-5.152-17.728-11.488-3.456 0-4.8-10.752-10.752-11.488-1.12 1.568-5.312 3.072-6.944 3.072-3.232 6.496-21.504.672-21.504 1.536-.288.064-10.24 24.384-10.816 27.584-1.12 6.88-6.656 7.008-8.32 13.536-.832 3.264-20.896 1.728-20.896 4.128-8.672-2.88-16.16-8.96-16.16-18.4-.704 0 1.632-24.096 3.104-27.616 1.76.48 2.112 1.088 3.104 3.072 5.312-1.984 17.696 1.312 17.696-4.608 5.152.128 6.688 2.176 4.608 6.144 4.8.896 13.088 2.112 13.088-4.608-2.816 0-3.104-.256-3.104-3.072 9.216-9.568-6.912-18.208-6.912-22.976-3.264-1.088-9.92-8.16-5.184-5.504 4 2.208 18.624 6.784 12.864-2.944.384-.128.64-.384.736-.736 1.632 1.152 8.512 8.224 8.512 1.536 1.888 0 9.184-4.608 3.072-4.608.576-3.456.448-6.336.736-8.448 9.76 5.248 4.32-3.584 9.248-6.88 0 6.368 5.248-3.072 8.448-3.072 3.808-5.664 12.512-1.28 14.624-7.68-4.704-1.536-3.84-13.312-3.84-17.6 5.664.928 11.968-7.648 12.832-1.76.32 2.272.608 8.544 1.76 9.408 8.416 4.416 6.176-2.528 6.176-6.88-2.816 0-6.56-9.856-6.944-14.592-2.304.32-6.016 1.28-6.944 3.04-8.384 0-14.08-3.04-20.736-3.04-.512-1.024-8.512-9.984-7.68-9.984-4.672-8.032 4.672-5.696 6.144-6.08 0-7.616 31.712-6.272 33.088-18.432-10.432 0 10.752-17.664 10.752-17.6 7.072-6.048 10.816-11.264 19.616-11.936 3.712-.256 44.992-11.648 44.992-6.496 1.664.064 7.168.128 12.864.32C736.512 109.76 629.728 64 512 64c-114.016 0-217.792 42.944-296.864 113.12.704 1.6 1.248 3.136 1.216 4.224 4.192-.288 10.208-2.976 11.552 2.336-2.08-.032-4.16-.288-6.144-.8 1.472 11.872-5.184 4.608-10.752 4.608 0-.288-2.464-1.28-5.088-1.984-1.696 1.6-3.488 3.104-5.184 4.704.192.512-.096.544.224 1.12 1.792 0 .864 2.784 5.984 4.48 5.92 2.016 12.416 3.136 18.656 4.128 5.056.8 7.968-.928 12.288-.928 0-.64 10.56-5.344 3.104-5.344 1.024-4.224-.864-5.28-5.408-5.344.384-4.48 11.04-1.536 15.392-1.536 3.328-5.6.096-4.928 3.04-10.016 3.52-6.24 7.712-.832 10.016-6.816 3.488 1.28 6.592 3.168 7.712 7.584 2.784 2.304 16.928 23.168 16.928 8.416 5.056 1.696 7.584 11.168 7.68 16.128 9.184-1.344 9.984-8.224 9.984-15.36 2.112 0-.768-3.424-.768-4.608 3.424-1.248 7.712 3.264 7.712-1.504 1.472 0 1.536 1.472 1.536 3.072 4.768.928 7.84-.544 10.752.48 2.016.704.992 11.168.064 14.848-1.152 4.672-10.08 4.736-10.08 6.912-10.112 7.552 11.936 11.488 15.392 16.096-2.08 0-9.984-1.024-9.984-1.504-4.992 0-17.088 5.28-21.536 1.504 6.208 0 8.288-7.456 9.248-14.56-5.728-2.144-12.48 1.376-14.08 7.072-2.688 9.408-8.928-.384-12.064 5.952-1.216.384-12.32 5.536-12.32 3.808-12.48 1.76-9.216 12.352-9.216 23.776 4.96 2.976 15.04 11.456 14.592 16.096 11.2 1.984 15.296 3.168 25.376 4.608.832 1.632 4.16 3.168 6.176 3.808 0 6.592 5.984 5.408 11.52 5.408 0-8.416 9.792 7.008 10.752 9.952-1.344 0 2.304 8.608 3.072 11.52-1.536-.544-2.016 0-1.536 1.536 4.864 1.792 12.576 1.28 13.856-3.84-4.672 0-3.104-5.344-3.104-8.448-4.8-3.2-4.064-9.376.768-10.72 0 4.352 15.84-2.72 6.912-6.112 2.176-4.896 3.648-12.416.096-16.672-2.272-2.688-5.12 0-6.24-4.032 6.048-1.504 1.6-13.024 1.536-18.4 1.92-.736 6.912 1.216 6.912 0 5.92 0 15.776 7.488 19.232-1.568 9.888 4.512 2.016 8.8 12.32 5.376 0 2.432 11.616 13.792 13.088 13.792 0 .544-.288 3.84 2.272 3.84 0 2.464-1.536-1.408-1.536 3.04 1.44.16 9.248 1.568 9.248-1.504 4.96 0 8.448-6.08 8.448-10.72 3.104-2.016 8.544 16.864 12.288 16.864 2.752 4.288 11.552 10.528 11.552 14.56 1.856 1.888 3.808 1.376 3.808 6.912 2.336 0 6.944-9.184 6.944-.768 2.176 0 8.512 4.672 9.248 8.416-5.536 0-.288 5.376-3.136 5.376 0 5.312-11.872 1.088-14.56.768-3.68 16.48-25.888 4.64-39.328 8.896-7.072 2.24-20.736 17.824-21.472 25.6 8.576.096 12.352-7.424 20-9.984 6.24 0 7.456-3.776 13.088-5.344 0 1.568 1.536.736 1.536 2.304-10.944 0-4.288 7.072-1.088 12.224 1.984 3.2 4.256 4.736 6.784 5.728-1.056 1.856-1.92 3.712-2.592 5.792 0 .032-.032 0-.032.032-2.08.704-6.144 2.208-6.944 3.84-12.384 1.376-6.272.544-5.44-2.432.448 1.056 4.896.096 4.704.128-.736-3.712-1.856-3.2-.768-5.344-6.72 0-9.984 3.072-15.392 3.072-.896 1.824-5.6 6.144-7.68 6.144-1.568 4.736-5.12 13.344-9.248 16.096 0-1.248-10.944 6.88-9.984 6.88-2.432 3.936-5.088 3.808-6.176 9.952-.736.384-3.84 10.656-3.84 12.256-4.768 3.168-6.528 16.096-14.624 16.096-4.96 9.856-13.856 8.544-13.856 21.472 3.008 3.072 4.16 16.672 5.088 21.024 1.152 5.408 2.944 11.04-4.288 11.168-.512-.8-5.568-8.448-4.64-8.448 0-3.168-3.872-13.312-6.144-16.48-3.04-4.256-8.672.672-13.088-1.184-1.888-3.776-14.656-4.608-19.2-4.608.736 2.848 2.816 3.744 3.072 6.912-3.776 1.536-5.952 3.264-9.856 2.72-6.688-.928-5.888-6.144-13.248-5.408-11.776 1.184-20 10.944-20 22.624-1.312 0-1.312 23.008 0 23.008 0 6.496 5.376 11.2 5.376 16.096 5.216 0 11.072 11.488 16.16 11.488.576 4.064-2.56 4.704 6.144 4.64 0-.448 4.736-2.976 5.376-6.144-6.016-1.472-.032-9.216 3.84-10.72 0 5.472 7.68-1.824 7.68-2.304.864-.352 8.48-3.072 8.48-3.072 0-6.208 5.792.608 1.536 3.072-4.16 0-3.84 6.912-6.144 6.912-.992 4.928-2.944 9.216-4.096 14.016-1.472 5.92 3.328 6.528 1.792 12.064 6.112 1.152 12.288.032 18.464 0 .032-1.088-.192-2.144-.768-3.072 8.928 0 .768 16.864 6.176 16.864 0 6.368 3.072 11.328 3.072 15.328 4.16 2.752 6.656 6.432 5.376 11.488 5.12.672 16.128 1.984 16.128-4.608 7.776 0 8.32 5.28 7.744 10.72 15.488 0 5.792-15.328 12.256-15.328.608-2.528 1.664-2.976 3.168-1.312 3.168 1.696 5.568-3.168 8.096-4.704.8-.544 3.616-2.176 4.128-2.176 2.176 1.312 2.368.928 3.328 2.4 4.224-.032 8.48-2.4 12.096-4.896 5.536.672 3.744 12.576 14.112 13.312 4.16.288 13.792 1.44 17.376-1.024.896-.608 4.192 2.08 4.544 3.232 3.456 0 3.2 3.008 4.672 2.944.352.672.864.928 1.568.736.448 1.312 3.2 1.696 4.64 5.344 0 3.328 6.912 3.904 6.912 6.112 4.96 2.496-1.696 3.168 5.92 5.472 4.192 1.312 8.064 3.424 12.576 3.744 1.44-5.472 6.112.736 8.48.736 1.216 2.496 1.856.608 3.04 3.072 7.136 5.952 2.432 3.648 5.376 9.984 3.424 2.24 4.512 10.048 5.44 14.56-2.752 0-.8 10.528-.8 11.52-3.328 0 8.512 6.304 8.512-1.568 4.864.8 8.064 6.112 11.52 6.112-2.016 4.64 5.376 8.128 5.376.8 7.296.736 5.344 11.616 4.64 15.328 5.408 0 6.976-3.008 11.584-3.584C532.128 642.304 537.696 640 544 640c17.696 0 32 14.304 32 32 0 15.936-11.872 28.576-27.136 31.008-2.048 2.336-3.904 4.352-4.032 4.352 0 1.536-.352 16.832-.8 16.832 0 3.072-2.336 19.936-4.608 19.936 0 8.672-5.664 10.24-7.68 18.4-4.672 3.456-17.312 9.216-19.264 13.024-3.616 0-6.304 3.072-9.984 3.072-.512 1.056-8.352 8.448-6.944 8.448-.576 5.44.416 18.24-2.528 21.824-1.984 2.368-4.832 2.112-3.584 5.824-4.32 0 .256 3.072-6.56 3.072-4.288 0-11.936 6.112-12.16 11.296-.288 6.336-1.984 10.912-7.424 14.784 0 2.176-9.984 2.816-9.984 8.448.928 0 0 10.432 0 11.488-2.976-.096-10.272 2.88-11.52 5.344-10.048 0-8.832 1.024-15.36 5.376 0 1.344-.928 6.112-2.304 6.112 0 7.776-5.536.704-10.016 4.64 1.76 0 4 7.648 3.072 7.648 0 6.752-4.192 7.328-8.448 12.288-2.016 1.344-3.936 6.912-5.376 6.912 0 4.544-2.272 8.672-2.272 13.024.96 0 .064 1.952.736 3.776 2.144-.608 2.208-3.04 3.072-3.04 0-3.84 6.112 2.272 2.304 2.272-3.168 4.8-6.592 4.896-8.48 11.52-1.92 0-3.584 1.856-4.992 4.032C431.424 953.984 470.977 960 512 960c157.568 0 295.872-81.536 375.744-204.576.48-11.328 2.24-22.144 3.488-25.888 3.136 2.304 5.472 6.624 7.68 0-5.536-1.088-4.192-3.008-2.304-7.648 2.112 1.28 6.368 2.848 9.824 2.624 1.056-1.984 1.888-4.096 2.944-6.08-3.136-2.432 1.184-8.736 2.688-5.664.8-1.536 1.504-3.136 2.24-4.672-.352-.096-.256.128-.768-.032 0-2.784.512-2.432 2.336-3.84.032.288 0 .288.064.544C943.872 646.304 960 581.12 960 512c0-2.272-.32-4.448-.352-6.72-.832 3.136-2.4 6.528-4.608 7.296 0 2.016-22.88 11.968-21.504 16.096-4.032 0-18.176 4.032-20.768 9.184-2.848 0-14.336 4.064-15.392 6.144-14.272.032-11.552-16.832-18.432-16.832zM944 352h-16.992c-.128-.16-.256-.192-.384-.416-.864 0-4.48-8.128-3.072-9.984 1.376 0 2.016.128 2.752.192-1.44-3.52-3.008-6.976-4.576-10.464-3.456 2.368-6.496 5.376-11.264 5.664 0 1.312-6.816 14.56 0 14.56 0 .256.128.448.192.672-8.16.768-14.656 7.424-14.656 15.776 0 8.832 7.168 16 16 16h6.304c.384 2.912 1.952 5.44 7.552 6.688 1.76 7.392 14.944 10.016 16.928 2.272-5.568 0-3.744-5.344-3.264-8.96H944c8.8 0 16-7.168 16-16s-7.2-16-16-16zm-46.623 208.064c1.12.064 8.512-.128 8.512-1.44 6.688 0 15.744-.928 22.304-3.104 0 9.92-8.352 15.456-6.944 25.312-5.536 0-3.104 5.696-3.104 7.648-3.584 2.208-4.128 6.24-8.448 8.448 0 4.448-9.984 11.808-12.928 15.616-3.328 4.256-13.344 11.648-14.656 17.056.352-1.28-18.304 19.424-13.952 19.424 0 3.872-5.248 34.496 1.536 34.496 0 2.688 5.792 28.384 2.272 28.384 0 8.256-5.376 13.312-5.376 19.904-2.624 1.792-6.368 2.784-7.68 5.408-4.704 0-6.976 9.984-9.216 9.984 0 10.656-3.104 18.56-3.104 30.656.864 0-6.144 17.248-6.144 18.368-5.664 3.808-20 17.472-20 24.576 0 0-9.984 14.016-11.52 16.096-3.008 0-26.176 4.352-26.176 6.144-4.928 0-17.664 3.872-20.736-.768 0-4.864-2.656-11.04-3.072-17.664-2.368 0-2.752-9.952-5.376-9.952 0-2.112-14.688-31.456-12.32-31.456 0-3.04-2.624-13.024-3.072-13.024 0-10.56-7.712-19.36-7.712-29.12-2.272 0-6.976-21.44-4.608-21.44 0-11.264 3.936-18.624 5.568-31.136 1.824-13.728-.864-22.08-3.264-31.776-1.312 0-5.728-7.328-6.176-9.184-6.176-4.096-8.448-12.224-8.448-19.904 4.032-4.608 5.632-21.92 4.64-27.616-7.776-3.68-10.88-2.304-19.264-2.304-4.96-9.952-38.272-3.808-47.712-3.808 0 5.44-23.2-1.056-25.376-5.376-5.664 0-16.896-12.032-16.896-17.632-6.208-4.128-16.128-24.672-16.128-31.424-5.376-2.688-3.744-13.056-.8-13.056.736-2.88-1.888-11.968-3.136-16.288-.928-3.232 3.136-6.72 3.136-10.56 0-10.688.256-15.616 6.24-27.04 1.888-3.584 4.288-6.944 6.048-11.424 3.2-8.032 4.16-.384 8.48-7.552 4.128-2.048 6.528-8.896 10.784-12.256 1.856-2.464 1.92-3.488 0-5.376.832 0 5.376-11.808 5.376-14.528 6.016-8.352 1.76-4.544 7.68-3.84 2.176-2.368 5.792-8.448 9.216-8.448 1.504-2.976 5.28-4.608 8.48-4.608 0 4.608 12.544-1.504 13.856-1.504 2.144-4.32 15.968-9.216 19.232-9.216 0-5.248 27.264 1.472 31.552.768v-2.304c5.824 1.376 16.448 24.736 15.36 29.92 4.48 0 8.64-.736 11.552 0 0 4.96 9.344 6.176 13.6 6.4 5.92.288 23.296-.608 23.296-8.704 4.576 0 8.64 3.2 7.744 8.416 5.184.576 36 1.184 33.824 7.648 4.512 0 5.664 7.712 9.984 7.712-.864 5.312 5.376 19.168 9.984 19.168 0 4.608 2.88 13.088 6.944 16.064 2.176 6.592 9.376 20.48 16.128 24.544-2.88 5.44 4.384 9.92 6.176 15.328-.416 0 1.568 8.032 3.808 9.216 0 5.44 11.456 27.616 17.728 27.616.416 2.688-5.888 3.904 2.304 4.512zm-166.112-171.68c1.184-4.576 3.872-1.024 6.368-.192 5.92 1.92 3.872-.096 8.256-2.08 0 12.48-7.168 3.008-14.624 2.272zm-16.192-23.008c3.136 0 4 14.08-4.608 11.488 0-3.488-2.208-9.952 2.336-9.952 1.312 5.44 2.272 3.232 2.272-1.536zm-3.808-9.184c3.552 1.536 5.12 1.024 4.608-1.536 4.672 1.536-.608 4.864-1.536 8.448-2.4-2.368-1.664-3.2-3.072-6.912zm-82.336-68.256c-7.552-1.952 7.776-4.192 8.448-6.112-2.56 0-4.32-2.656-3.328-4.896 1.152-2.656 3.04 3.168 5.664 1.856 3.104-.32 9.216-4.96 6.08 4-3.2 9.088-6.112 15.744-17.632 15.904-4.128-4.16-.16-6.336.768-10.752zm28.48-31.424c6.208 0 .768 4.608-.608 4.608 1.056.416-.192 4.128-.192 5.344 5.76-.064 5.856-3.584 9.984-4.608-.864 5.152-6.624 6.144-.992 10.56 2.976 2.336 6.016 5.088 4.832 8.64 7.328 0 8.416 7.04 6.912 15.328 4.064 0 3.872.192 3.872-3.872 3.936 1.088 3.648 4.64 0 4.64-3.648 7.2-13.216 6.88-20 6.88-.064-5.568-1.12-5.92-6.272-4.352-7.04 2.144-1.536-5.6-1.408-9.44.768 0 15.968.704 6.912-2.304-.48-8.256-2.336-10.72-9.984-10.72 0-5.632-1.984-5.216-2.912-11.392-1.312-9.12 7.136.64 9.856-9.312zm-2.336 49.824c0 1.888-3.84 3.392-4.608.736.736.256 1.024 0 .736-.736h3.872zM592 224h-32c-8.832 0-16-7.168-16-16s7.168-16 16-16h32c8.832 0 16 7.168 16 16s-7.168 16-16 16zM405.568 507.2c1.792 0 3.872.704 3.872 2.304-2.336 0-5.344 2.208-3.872-2.304zm-29.184 1.568c-1.28 2.432-11.648 2.016-13.088-.8 3.84 0 6.816 1.568 10.752 0 0-2.112-1.76-3.808-3.072-6.112 4.192 0 8.896 3.2 14.624 3.072 0-3.552-1.568.768 0-3.84 2.4.608 8.192 6.112 8.448 8.416-8.416-.896-8.8-.736-17.664-.736zm-33.856-18.4c-3.936 0-11.52-3.424-13.856-6.912 3.808.16 7.584 1.728 9.984-2.304 9.76.992 10.624 7.712 18.464 7.712 1.472 2.592 9.856 8.544 1.76 9.312-6.112.576-13.792-2.752-16.352-7.808zm6.144 21.472c-2.848 0-7.552 1.248-5.376-4.64 3.776.512 5.568 2.08 5.376 4.64zm5.376-.768l-4.608.768c.448-3.552 3.808-7.52 4.608-.768zm28.448 33.696c-.608 2.144-.512 2.272-3.04 2.272.256-.992.48-1.984.736-3.04.8.256 1.536.512 2.304.768zm-69.216-63.616c.736.256 1.536.544 2.304.768.992 3.808 3.072 1.92 5.376.768 0 4.448-10.304 5.728-7.68-1.536z"/></svg>