<svg xmlns="http://www.w3.org/2000/svg" viewBox="0 0 1024 896"><path d="M448 64V48c0-26.4-21.6-48-48-48H240c-26.4 0-48 21.6-48 48v16H0v128h192v16c0 26.4 21.6 48 48 48h160c26.4 0 48-21.6 48-48v-16h576V64H448zM256 192V64h128v128H256zm576 176c0-26.4-21.6-48-48-48H624c-26.4 0-48 21.6-48 48v16H0v128h576v16c0 26.4 21.6 48 48 48h160c26.4 0 48-21.6 48-48v-16h192V384H832v-16zM640 512V384h128v128H640zM448 688c0-26.4-21.6-48-48-48H240c-26.4 0-48 21.6-48 48v16H0v128h192v16c0 26.4 21.6 48 48 48h160c26.4 0 48-21.6 48-48v-16h576V704H448v-16zM256 832V704h128v128H256z"/></svg>