<svg xmlns="http://www.w3.org/2000/svg" viewBox="0 0 578.856689453125 804.5726928710938"><path d="M557.714 673.717l20 90.857q1.714 6.857-1.714 12.857t-9.713 8.286l-2.857.571q-2.286 1.143-6 2t-9.143 2.571-12.286 3.143-14.57 2.857-17.144 2.857-19.143 2.571-20.857 1.714-22 .571q-133.714 0-233.714-74.571t-136-200.857H18.287q-7.429 0-12.857-5.429T.001 510.858v-64.571q0-7.429 5.43-12.857t12.856-5.429h37.714q-1.143-32.571.571-60H18.286q-8 0-13.143-5.143T0 349.715v-65.143q0-8 5.143-13.143t13.143-5.143h56q38.286-120 139.143-193.143T442.286 0q58.286 0 110.857 13.143 6.286 1.714 11.43 8.571 3.428 6.286 1.713 13.714l-24.57 90.857q-1.715 7.429-8 11.143t-13.715 1.429l-2.286-.571q-2.286-.571-6.57-1.429l-10-2-12.858-2-14.857-1.714-16.57-1.429-16.858-.571q-72 0-129.143 36.571t-85.714 100.571h267.43q9.142 0 14.285 6.857 5.714 6.857 4 14.857l-13.714 65.143q-2.857 14.857-18.286 14.857H200.002q-1.714 21.143 0 60h262.286q8.571 0 14.286 6.857 5.143 6.857 3.43 15.429l-13.715 64q-1.143 6.286-6.286 10.571t-11.429 4.286H227.431q27.43 66.857 85.43 106t130.57 39.143q10.286 0 20.571-.857t19.143-2 16.857-2.571 14-2.857 10.571-2.571l6.857-1.714 2.857-1.143q7.43-2.857 14.857 1.143 6.857 4 8.571 12z"/></svg>