<svg xmlns="http://www.w3.org/2000/svg" viewBox="0 0 1037.419921875 1036.4959716796875"><path d="M987.434 49.986C937.446 0 856.402 0 806.414 49.986L634.296 222.104 512.924 100.732 377.161 236.496l106.426 106.426L11.468 815.04C3.42 823.088 0 833.998 1.168 844.496H.924v160c0 17.674 14.328 32 32 32h164c9.212 0 18.426-3.516 25.456-10.544l472.118-472.118L800.924 660.26l135.764-135.764-121.372-121.372 172.118-172.118c49.986-49.988 49.986-131.032 0-181.02zm-813.42 922.51H64.924v-109.09l469.574-469.572 109.088 109.088-469.572 469.574z"/></svg>