<svg xmlns="http://www.w3.org/2000/svg" viewBox="0 0 459.291015625 358.916015625"><path d="M134.708 22c-7.208-6.792-15.582-12.168-25.082-16.124C100.002 2 89.75 0 78.876 0c-10.918 0-21.168 2-30.75 5.876C38.626 9.834 30.25 15.21 23.042 22 15.876 28.832 10.25 36.832 6.124 46.082 2.04 55.292 0 65.04 0 75.25c0 10.25 2.04 20 6.124 29.208 4.126 9.208 9.752 17.25 16.918 24.042 7.208 6.832 15.584 12.25 25.084 16.124 9.582 3.958 19.832 5.916 30.75 5.916 10.876 0 21.124-1.958 30.75-5.916 9.5-3.876 17.876-9.292 25.082-16.124 7.168-6.792 12.792-14.834 16.832-24.042 4.084-9.208 6.21-18.958 6.21-29.208 0-10.208-2.126-19.958-6.21-29.168-4.04-9.25-9.664-17.25-16.832-24.082zM104 99.332c-6.876 6.834-15.25 10.252-25.124 10.252s-18.25-3.418-25.124-10.252C46.96 92.5 43.502 84.5 43.502 75.25c0-9.5 3.458-17.666 10.25-24.292C60.628 44.292 69.002 41 78.876 41s18.25 3.292 25.124 9.958c6.748 6.624 10.208 14.792 10.208 24.292 0 9.25-3.46 17.25-10.208 24.082zm355.29-30.208v-63H216.126v352.792h70.126V215.04H434.21v-62.958H286.253V69.124h173.038z"/></svg>