<svg xmlns="http://www.w3.org/2000/svg" viewBox="0 0 1024 863.4439697265625"><path d="M384 431.722c0-70.692 57.308-128 128-128s128 57.308 128 128c0 70.692-57.308 128-128 128s-128-57.308-128-128zm280.348-281.474C764.2 204.406 832 310.146 832 431.722s-67.8 227.316-167.652 281.474C708.414 643.07 736 542.926 736 431.722s-27.586-211.348-71.652-281.474zM288 431.722c0 111.204 27.584 211.348 71.652 281.474C259.8 659.036 192 553.298 192 431.722s67.8-227.314 167.652-281.474C315.584 220.374 288 320.518 288 431.722zm-192 0c0 171.9 54.404 326.184 140.652 431.722C94.35 772.496 0 613.13 0 431.722S94.35 90.948 236.652 0C150.404 105.538 96 259.822 96 431.722zM787.352.002C929.65 90.948 1024 250.314 1024 431.722s-94.35 340.774-236.648 431.72C873.597 757.906 928 603.622 928 431.722S873.597 105.538 787.352.002z"/></svg>