<svg xmlns="http://www.w3.org/2000/svg" viewBox="0 0 511.3919677734375 864.35205078125"><path d="M320.96 503.232v105.376h127.872V736.48H320.96v127.872H191.136V736.48H63.296V608.608h127.84v-105.76C81.216 474.208 0 374.56 0 255.712 0 114.496 114.496 0 255.712 0c141.248 0 255.68 114.496 255.68 255.712 0 119.328-79.872 219.264-190.432 247.52zm-65.248-375.36c-70.624 0-127.872 57.216-127.872 127.84 0 70.592 57.248 127.84 127.872 127.84s127.872-57.248 127.872-127.84c0-70.624-57.248-127.84-127.872-127.84z"/></svg>