<svg xmlns="http://www.w3.org/2000/svg" viewBox="0 0 877.71533203125 1024.000244140625"><path d="M838.856 217.142q16 16 27.43 43.429t11.428 50.286v658.286q0 22.857-16 38.857t-38.857 16h-768Q32 1024 16 1008T0 969.143V54.857Q0 32 16 16T54.857 0h512q22.857 0 50.286 11.429t43.43 27.429zM585.142 77.713V292.57h214.857q-5.714-16.571-12.57-23.429L608.57 90.284q-6.857-6.857-23.429-12.571zM804.57 950.856V365.713H566.856q-22.857 0-38.857-16t-16-38.857V73.142H73.142v877.714h731.43zM237.713 817.142v60.571H424.57v-60.571h-53.143v-95.429h78.286q43.43 0 67.43-8.571 38.285-13.143 60.856-49.714t22.571-83.429q0-46.286-21.143-80.571t-57.143-49.714q-27.429-10.857-74.286-10.857H237.712V500h52.571v317.143h-52.57zm201.715-160h-68V503.999h68.571q29.714 0 47.43 10.286 32 18.857 32 65.714 0 50.857-35.43 68.571-17.714 8.571-44.57 8.571z"/></svg>