<svg xmlns="http://www.w3.org/2000/svg" viewBox="0 0 877.71533203125 1024.000244140625"><path d="M838.856 217.142q16 16 27.43 43.429t11.428 50.286v658.286q0 22.857-16 38.857t-38.857 16h-768Q32 1024 16 1008T0 969.143V54.857Q0 32 16 16T54.857 0h512q22.857 0 50.286 11.429t43.43 27.429zM585.142 77.713V292.57h214.857q-5.714-16.571-12.57-23.429L608.57 90.284q-6.857-6.857-23.429-12.571zM804.57 950.856V365.713H566.856q-22.857 0-38.857-16t-16-38.857V73.142H73.142v877.714h731.43zm-530.284-512q4.571-6.286 12-7.143T300 435.427l29.143 21.714q6.286 4.571 7.143 12t-3.714 13.714l-104 138.857 104 138.857q4.571 6.286 3.714 13.714t-7.143 12L300 807.997q-6.286 4.571-13.714 3.714t-12-7.143l-129.143-172q-8-10.857 0-21.714zm458.285 172q8 10.857 0 21.714l-129.143 172q-4.57 6.286-12 7.143t-13.714-3.714l-29.143-21.714q-6.286-4.571-7.143-12t3.714-13.714l104-138.857-104-138.857q-4.57-6.286-3.714-13.714t7.143-12l29.143-21.714q6.286-4.571 13.714-3.714t12 7.143zM378.286 874.285q-7.429-1.143-11.714-7.429t-3.143-13.714l78.857-474.857q1.143-7.429 7.43-11.714t13.713-3.143l36 5.714q7.43 1.143 11.714 7.429t3.143 13.714l-78.857 474.857q-1.143 7.429-7.429 11.714t-13.714 3.143z"/></svg>