<svg xmlns="http://www.w3.org/2000/svg" viewBox="0 0 896 1024"><path d="M853.807 229.076c-22.209-30.292-53.175-65.7-87.179-99.704s-69.412-64.964-99.704-87.178C615.35 4.374 590.33 0 576 0H80C35.888 0 0 35.888 0 80v864c0 44.112 35.882 80 80 80h736c44.112 0 80-35.888 80-80V320c0-14.332-4.372-39.35-42.194-90.924zm-132.433-54.45c30.7 30.7 54.8 58.398 72.58 81.374H640V102.054c22.98 17.78 50.678 41.878 81.374 72.572zM832 944c0 8.672-7.328 16-16 16H80c-8.672 0-16-7.328-16-16V80c0-8.672 7.328-16 16-16 0 0 495.956-.002 496 0v224c0 17.672 14.32 32 32 32h224v624zM192 512h320v320H192V512zm320 128l192-128v320L512 704z"/></svg>