<svg xmlns="http://www.w3.org/2000/svg" viewBox="0 0 896 1024"><path d="M768 896H128V768l192-320 263 320 185-128v256zm0-416c0 53.02-42.98 96-96 96-53.022 0-96-42.98-96-96s42.978-96 96-96c53.02 0 96 42.98 96 96zm85.806-250.924c-22.212-30.292-53.174-65.7-87.178-99.704s-69.412-64.964-99.704-87.178C615.35 4.374 590.332 0 576 0H80C35.888 0 0 35.888 0 80v864c0 44.112 35.888 80 80 80h736c44.112 0 80-35.888 80-80V320c0-14.332-4.372-39.35-42.194-90.924zm-132.432-54.45c30.7 30.7 54.8 58.398 72.58 81.374H640V102.054c22.984 17.78 50.678 41.878 81.374 72.572zM832 944c0 8.672-7.328 16-16 16H80c-8.672 0-16-7.328-16-16V80c0-8.672 7.328-16 16-16 0 0 495.956-.002 496 0v224c0 17.672 14.326 32 32 32h224v624z"/></svg>