<svg xmlns="http://www.w3.org/2000/svg" viewBox="0 0 877.71533203125 1024.000244140625"><path d="M838.856 217.142q16 16 27.43 43.429t11.428 50.286v658.286q0 22.857-16 38.857t-38.857 16h-768Q32 1024 16 1008T0 969.143V54.857Q0 32 16 16T54.857 0h512q22.857 0 50.286 11.429t43.43 27.429zM585.142 77.713V292.57h214.857q-5.714-16.571-12.57-23.429L608.57 90.284q-6.857-6.857-23.429-12.571zM804.57 950.856V365.713H566.856q-22.857 0-38.857-16t-16-38.857V73.142H73.142v877.714h731.43zm-73.142-256v182.857H146.286V767.999L256 658.285l73.143 73.143 219.43-219.429zM255.999 585.142q-45.714 0-77.714-32t-32-77.714 32-77.714 77.714-32 77.714 32 32 77.714-32 77.714-77.714 32z"/></svg>