<svg xmlns="http://www.w3.org/2000/svg" viewBox="0 0 1024 1024"><path d="M512 0C229.23 0 0 71.634 0 160v96l384 384v320c0 35.346 57.306 64 128 64 70.692 0 128-28.654 128-64V640l384-384v-96C1024 71.634 794.77 0 512 0zM94.384 138.824c23.944-13.658 57.582-26.62 97.278-37.488C279.607 77.26 393.37 64 512 64c118.628 0 232.394 13.26 320.338 37.336 39.696 10.868 73.334 23.83 97.28 37.488 15.792 9.006 24.324 16.624 28.296 21.176-3.972 4.552-12.506 12.168-28.296 21.176-23.946 13.658-57.584 26.62-97.28 37.488C744.397 242.74 630.63 256 512 256s-232.394-13.26-320.338-37.336c-39.696-10.868-73.334-23.83-97.278-37.488C78.592 172.168 70.06 164.552 66.086 160c3.974-4.552 12.506-12.168 28.298-21.176z"/></svg>