<svg xmlns="http://www.w3.org/2000/svg" viewBox="0 0 1024 1024.0059814453125"><path d="M569.227 778.256c-.003-.044-.003-.088-.005-.132l.004.132zm1.37 36.282zm-.783-18.226c-.006-.178-.012-.356-.02-.536.01.182.016.358.02.536zM960 0H64C28.8 0 0 28.8 0 64v896c0 35.2 28.8 64 64 64h493.832c.044 0 .088.006.132.006.042 0 .084-.006.126-.006H960c35.2 0 64-28.8 64-64V64c0-35.2-28.8-64-64-64zM192 224c0-17.672 14.328-32 32-32s32 14.328 32 32v64c0 17.672-14.328 32-32 32s-32-14.328-32-32v-64zm768 736H584.942c-6.7-42.082-10.906-85.476-13.388-127.604.006.116.01.228.018.344A549.935 549.935 0 0 1 512 836c-133.65 0-262.382-48.656-362.484-137.006-14.906-13.156-16.326-35.906-3.168-50.812 13.158-14.904 35.906-16.326 50.814-3.168C284.098 721.742 395.91 764 512 764c19.086 0 38.052-1.166 56.816-3.416-2.192-118.194 6.876-211.914 7.026-213.404a31.996 31.996 0 0 0-8.118-24.654A31.996 31.996 0 0 0 544 512h-95.173c1.384-34.614 5.082-93.814 14.958-160.188 18.864-126.76 51.994-225.77 96.152-287.812h400.064v896zM800 320c-17.674 0-32-14.328-32-32v-64c0-17.672 14.326-32 32-32s32 14.328 32 32v64c0 17.672-14.326 32-32 32zM540.497 835.232zm-28.496.768zm27.074-72.798c.784-.044 1.568-.084 2.352-.132-.782.048-1.568.088-2.352.132zm-13.99.598c1.074-.03 2.146-.072 3.218-.11-1.072.038-2.144.082-3.218.11zm352.566-115.618c-13.156-14.91-35.908-16.322-50.812-3.168-72.642 64.114-162.658 104.136-258.022 115.57.43 23.278 1.294 47.496 2.754 72.156 111.954-12.21 217.786-58.614 302.912-133.746 14.908-13.156 16.326-35.906 3.168-50.812zM571.498 832.748zm-16.01 1.494z"/></svg>