<svg xmlns="http://www.w3.org/2000/svg" viewBox="0 0 1024 1024.0001220703125"><path d="M367.562 0C124.204 0 0 140.162 0 401.856V950.89l238.39-238.628V433.366c0-108.416 28.73-177.406 125.118-192.894 33.672-6.584 103.75-4.278 148.306-4.278V401.79c0 1.51.208 4.206.594 5.586 1.87 6.704 7.93 11.616 15.116 11.63 4.062.008 7.868-2.104 11.79-5.97L952.437.062 367.562 0zM785.61 311.746v278.89c0 108.414-28.736 177.414-125.116 192.894-33.672 6.582-103.756 4.278-148.312 4.278V622.214c0-1.5-.206-4.204-.594-5.582-1.864-6.712-7.922-11.622-15.112-11.63-4.064-.008-7.866 2.112-11.79 5.966L71.562 1023.934l584.874.066C899.79 1024 1024 883.832 1024 622.148V73.12L785.61 311.746z"/></svg>