<svg xmlns="http://www.w3.org/2000/svg" viewBox="0 0 245.760009765625 860.1599731445312"><path d="M174.08 625.869V234.291c42.24-19.456 71.68-61.85 71.68-111.411C245.76 54.989 190.771 0 122.88 0S0 54.989 0 122.88c0 49.51 29.491 91.955 71.68 111.411V625.92C29.44 645.325 0 687.77 0 737.28c0 67.891 54.99 122.88 122.88 122.88s122.88-55.04 122.88-122.88c0-49.51-29.44-91.955-71.68-111.411zm-51.2-573.901c39.117 0 70.861 31.693 70.861 70.912 0 39.117-31.744 70.912-70.86 70.912-39.169 0-70.862-31.795-70.862-70.912 0-39.219 31.693-70.912 70.861-70.912zm0 756.224c-39.219 0-70.912-31.795-70.912-70.912 0-39.219 31.693-70.912 70.912-70.912 39.117 0 70.861 31.693 70.861 70.912 0 39.117-31.744 70.912-70.86 70.912z"/></svg>