<svg xmlns="http://www.w3.org/2000/svg" viewBox="0 0 962.56005859375 962.5599975585938"><path d="M890.88 728.269V609.28c0-98.97-80.23-179.2-179.2-179.2h-102.4c-42.394 0-76.8-34.406-76.8-76.8V234.291c42.24-19.456 71.68-61.85 71.68-111.411C604.16 54.989 549.171 0 481.28 0S358.4 54.989 358.4 122.88c0 49.51 29.491 91.955 71.68 111.411V353.28c0 42.394-34.406 76.8-76.8 76.8h-102.4c-98.97 0-179.2 80.23-179.2 179.2v118.989C29.44 747.725 0 790.17 0 839.68c0 67.891 54.99 122.88 122.88 122.88s122.88-55.04 122.88-122.88c0-49.51-29.49-91.955-71.68-111.411V609.28c0-42.394 34.406-76.8 76.8-76.8h102.4c27.597 0 53.453-6.758 76.8-17.92v213.709c-42.24 19.456-71.68 61.901-71.68 111.411 0 67.891 54.99 122.88 122.88 122.88s122.88-55.04 122.88-122.88c0-49.51-29.49-91.955-71.68-111.411V514.56c23.347 11.162 49.203 17.92 76.8 17.92h102.4c42.394 0 76.8 34.406 76.8 76.8v118.989c-42.24 19.456-71.68 61.85-71.68 111.411 0 67.891 54.99 122.88 122.88 122.88s122.88-55.04 122.88-122.88c0-49.51-29.44-91.955-71.68-111.411zM481.28 51.968c39.117 0 70.861 31.693 70.861 70.912 0 39.117-31.744 70.912-70.86 70.912-39.169 0-70.862-31.795-70.862-70.912 0-39.219 31.693-70.912 70.861-70.912zm-358.4 858.624c-39.219 0-70.912-31.795-70.912-70.912 0-39.219 31.693-70.912 70.912-70.912 39.117 0 70.861 31.693 70.861 70.912 0 39.117-31.744 70.912-70.86 70.912zm358.4 0c-39.219 0-70.912-31.795-70.912-70.912 0-39.219 31.693-70.912 70.912-70.912 39.117 0 70.861 31.693 70.861 70.912 0 39.117-31.744 70.912-70.86 70.912zm358.4 0c-39.219 0-70.912-31.795-70.912-70.912 0-39.219 31.693-70.912 70.912-70.912 39.117 0 70.861 31.693 70.861 70.912 0 39.117-31.744 70.912-70.86 70.912z"/></svg>