<svg xmlns="http://www.w3.org/2000/svg" viewBox="0 0 877.7139892578125 877.7139892578125"><path d="M0 0h877.714v877.714H0V0zm518.857 182.857L512 201.714l42.857 47.429-17.714 65.143 14.286 14.286 61.143-32.571 61.143 32.571 14.286-14.286-17.714-65.143 42.857-47.429-6.857-18.857h-54.286L621.715 128h-18.286l-30.286 54.857h-54.286zM366.287 276q18.285 0 25.428 9.143t6.571 36l99.43-12q0-31.429-10-52.857t-28.858-32-39.429-14.571-48.57-4q-76 0-113.715 32.857T219.43 342.858v41.143h-54.857v73.143h43.43q11.428 0 11.428 4.571v218.286q0 8-2.857 11.429t-10.286 4l-41.714 4v50.286h256v-49.143l-85.143-8q-3.429-.571-4.857-.857t-2-1.429-.286-2.286.571-4 .286-5.714V457.144h109.143l21.714-73.143h-132q-3.429 0-1.143-3.429t2.286-5.143v-45.714q0-15.429.857-23.143t4.286-16 11.143-11.429T366.288 276zm346.855 473.714v-49.143l-30.857-5.143q-4-.571-5.429-1.429t-1.429-1.714.571-4.286.571-6.857V383.999H519.427l-13.143 57.714 47.43 12.571q13.142 4 13.142 15.429v211.429q0 8-3.429 10.571t-11.429 3.714l-40 5.143v49.143h201.143z"/></svg>