<svg xmlns="http://www.w3.org/2000/svg" viewBox="0 0 704.0009765625 768"><path d="M672.852 180.479l.64-.64L514.559 21.332l-45.227 45.227 90.027 90.027c-40.107 15.36-68.693 53.973-68.693 99.413 0 58.88 47.787 106.667 106.667 106.667 15.147 0 29.653-3.2 42.667-8.96v307.627C640 684.8 620.8 704 597.333 704s-42.667-19.2-42.667-42.667v-192c0-47.147-38.187-85.333-85.333-85.333h-42.667V85.333C426.666 38.186 388.479 0 341.333 0h-256C38.186 0 0 38.187 0 85.333V768h426.667V448h64v213.333c0 58.88 47.787 106.667 106.667 106.667s106.667-47.787 106.667-106.667V256c0-29.44-11.947-56.107-31.147-75.52zm-331.52 118.187h-256V85.333h256v213.333zm256 0c-23.467 0-42.667-19.2-42.667-42.667s19.2-42.667 42.667-42.667 42.667 19.2 42.667 42.667-19.2 42.667-42.667 42.667z"/></svg>