<svg xmlns="http://www.w3.org/2000/svg" viewBox="0 0 896 1012.0579833984375"><path d="M707.517 308.056c18.125-12.88 35.511-27.216 51.443-43.148 33.402-33.402 55.746-74.5 62.912-115.722 7.858-45.186-3.672-87.14-31.63-115.1C767.942 11.788 737.732 0 702.878 0c-49.632 0-101.922 23.824-143.46 65.362-66.476 66.476-105.226 158.238-126.076 223.722-15.44-65.802-46.206-154.644-106.018-214.458-32.094-32.092-73.114-48.57-111.846-48.57-31.654 0-61.78 11.004-84.26 33.486-49.986 49.988-43.232 137.786 15.086 196.104 20.792 20.792 45.098 38.062 70.72 52.412H0v256h64v448h768V564.056h64v-256H707.517zm-97.19-191.782C638.05 88.55 672.648 72 702.877 72c10.7 0 25.707 2.254 36.45 12.998 26.03 26.028 11.411 86.308-31.28 128.998-43.947 43.946-103.06 74.168-154.433 94.06h-50.672C521.51 250.508 555 171.6 610.326 116.274zm-440.394 32.672c-.702-9.12-.05-26.248 12.196-38.494 10.245-10.244 23.789-12.396 33.349-12.396 21.258 0 43.468 10.016 60.932 27.48 33.872 33.872 61.766 87.772 80.668 155.876.51 1.84 1.008 3.67 1.496 5.486a574.213 574.213 0 0 1-5.486-1.496c-68.104-18.904-122.002-46.798-155.874-80.67-15.828-15.826-25.77-36.16-27.28-55.786zM384 948.056H128v-416h256v416zm0-448H64v-128h320v128zm384 448H512v-416h256v416zm64-448H512v-128h320v128z"/></svg>