<svg xmlns="http://www.w3.org/2000/svg" viewBox="0 0 559.06591796875 865.1839599609375"><path d="M559.066 0h-267.94C171.004 0 57.956 91.006 57.956 196.422c0 107.726 81.882 194.666 204.088 194.666 8.498 0 16.756-.17 24.84-.752-7.928 15.186-13.6 32.288-13.6 50.042 0 29.938 16.104 54.21 36.468 74.024-15.386 0-30.242.448-46.452.448C114.518 514.848 0 609.61 0 707.872c0 96.778 125.542 157.312 274.334 157.312 169.624 0 263.306-96.244 263.306-193.028 0-77.602-22.896-124.072-93.686-174.134-24.216-17.142-70.532-58.836-70.532-83.344 0-28.72 8.196-42.868 51.428-76.646 44.312-34.624 75.674-83.302 75.674-139.916 0-67.406-30.022-133.098-86.374-154.772h84.956L559.066 0zM465.48 655.458c2.126 8.972 3.284 18.208 3.284 27.628 0 78.2-50.39 139.31-194.974 139.31-102.842 0-177.116-65.104-177.116-143.3 0-76.642 92.126-140.444 194.964-139.332 24 .254 46.368 4.116 66.668 10.69 55.828 38.828 95.876 60.76 107.174 105.004zM300.819 363.776c-69.038-2.064-134.636-77.226-146.552-167.86-11.916-90.666 34.37-160.042 103.388-157.99C326.662 40 392.29 112.74 404.212 203.384c11.906 90.66-34.39 162.458-103.394 160.392z"/></svg>