<svg xmlns="http://www.w3.org/2000/svg" viewBox="0 0 1032.763916015625 1032.7899169921875"><path d="M1014.294 919.882L465.66 420.424l25.534-25.598c20.894-20.954 32.188-48.03 33.918-75.61 1.002-.45 2.002-.912 2.958-1.442l102.99-64.402c13.934-16.392 12.916-42.268-2.284-57.502L449.657 16.262C434.467 1.028 408.659 0 392.313 13.978l-64.236 103.268c-.526.966-.99 1.966-1.44 2.974-27.502 1.736-54.5 13.056-75.398 34.006l-97.428 97.702c-20.898 20.956-32.184 48.026-33.918 75.604-1.004.45-2.004.916-2.964 1.446L13.942 393.384C0 409.774 1.026 435.648 16.218 450.88l179.12 179.604c15.194 15.238 40.996 16.262 57.35 2.286l64.228-103.27c.528-.958.988-1.96 1.442-2.966 27.502-1.738 54.504-13.05 75.398-34.004l28.292-28.372 498.122 550.114c14.436 15.944 36.7 18.518 49.474 5.712L1020 969.496c12.764-12.808 10.196-35.132-5.706-49.614z"/></svg>