<svg xmlns="http://www.w3.org/2000/svg" viewBox="0 0 1024 1024"><path d="M288 576h-64v448h64c17.6 0 32-14.4 32-32V608c0-17.6-14.4-32-32-32zm448 0c-17.602 0-32 14.4-32 32v384c0 17.6 14.398 32 32 32h64V576h-64zm288-64C1024 229.23 794.77 0 512 0S0 229.23 0 512c0 61.412 10.83 120.29 30.656 174.848C11.178 720.054 0 758.718 0 800c0 112.846 83.448 206.188 192 221.716V578.298a222.63 222.63 0 0 0-87.754 32.378A417.595 417.595 0 0 1 96 528c0-229.75 186.25-416 416-416s416 186.25 416 416c0 28.314-2.83 55.968-8.22 82.696-26.1-16.546-55.854-27.848-87.78-32.418v443.44c108.548-15.532 192-108.874 192-221.714 0-41.274-11.178-79.934-30.648-113.138C1013.18 632.3 1024 573.414 1024 512z"/></svg>