<svg xmlns="http://www.w3.org/2000/svg" viewBox="0 0 1024 1024"><path d="M259.544 511.998c0-65.416 53.03-118.446 118.446-118.446s118.446 53.03 118.446 118.446-53.03 118.446-118.446 118.446-118.446-53.03-118.446-118.446zM512.004 0C229.23 0 0 229.232 0 512s229.226 512 512.004 512C794.768 1024 1024 794.77 1024 512 1024 229.232 794.77 0 512.004 0zM379.397 959.282C225.44 869.708 121.928 702.958 121.928 512S225.44 154.292 379.39 64.718C533.4 154.28 636.98 321.006 636.98 512c0 190.988-103.58 357.718-257.584 447.282z"/></svg>