<svg xmlns="http://www.w3.org/2000/svg" viewBox="0 0 1022.6099243164062 978.7500610351562"><path d="M784.012 563.132h236.05c1.82-16.37 2.548-33.098 2.548-50.196 0-80.224-21.534-155.468-59.124-220.266 38.88-103.308 37.492-190.988-14.556-243.39C899.434 0 766.64 8 616.518 74.478a445.795 445.795 0 0 0-33.638-1.272c-206.048 0-378.926 141.794-426.708 332.85C220.81 323.302 288.81 263.302 379.65 219.608c-8.26 7.74-56.454 55.652-64.56 63.764C75.542 522.85 0 835.678 81.284 916.976c61.786 61.774 173.758 51.342 302.376-11.648 59.806 30.458 127.5 47.63 199.218 47.63 193.134 0 356.804-124.316 416.09-297.448H761.1c-32.734 60.382-96.748 101.48-170.218 101.48-73.468 0-137.484-41.098-170.216-101.48a194.454 194.454 0 0 1-22.914-91.656v-.722h386.26zm-385.9-116.026c5.456-97.11 86.2-174.584 184.766-174.584s179.312 77.472 184.766 174.584H398.112zM946.777 98.11c33.526 33.88 32.688 96.214 4.012 174.022-49.136-74.908-120.518-133.936-204.792-167.64 90.106-38.638 163.406-43.756 200.78-6.382zM143.293 901.558c-42.782-42.796-29.884-132.618 25.23-240.832 34.308 96.27 101.156 177.09 187.336 229.154-95.43 43.318-173.536 50.674-212.566 11.678z"/></svg>