<svg xmlns="http://www.w3.org/2000/svg" viewBox="0 0 1024.0009765625 480.0240173339844"><path d="M783.988 480.024c-64.104 0-124.372-24.96-169.7-70.288L512 307.454l-102.276 102.27c-45.332 45.336-105.6 70.3-169.706 70.3-64.118 0-124.39-24.964-169.722-70.3C24.964 364.39 0 304.12 0 240.012s24.964-124.38 70.296-169.714C115.63 24.966 175.904.002 240.01.002c64.108 0 124.38 24.964 169.712 70.296L512 172.574 614.277 70.298C659.609 24.966 719.881 0 783.989 0c64.112 0 124.384 24.966 169.71 70.298 45.338 45.334 70.302 105.606 70.302 169.714 0 64.112-24.964 124.382-70.3 169.71-45.326 45.336-105.598 70.302-169.712 70.302zM681.72 342.3c27.322 27.31 63.64 42.354 102.268 42.352 38.634 0 74.958-15.044 102.276-42.362 27.316-27.322 42.364-63.644 42.364-102.278s-15.046-74.956-42.364-102.274c-27.32-27.318-63.64-42.364-102.276-42.364-38.632 0-74.956 15.044-102.278 42.364L579.442 240.012 681.72 342.3zM240.012 95.374c-38.634 0-74.956 15.044-102.274 42.364-27.32 27.318-42.364 63.64-42.364 102.274 0 38.632 15.044 74.954 42.364 102.276 27.32 27.316 63.642 42.364 102.274 42.364 38.634 0 74.956-15.044 102.272-42.362L444.56 240.012 342.284 137.738c-27.318-27.32-63.64-42.366-102.272-42.364z"/></svg>