<svg xmlns="http://www.w3.org/2000/svg" viewBox="0 0 832 880"><path d="M669.536 130.656l-120.736 268h-35.135l128.768-285.312H443.616v664.672c40.96 1.504 250.016 69.344 250.016 69.344V880h-561.92v-34.848s213.696-67.168 245.888-67.168v-664.64H185.12l128.8 285.312h-35.135l-120.736-268-120.736 268H2.177l129.536-286.912V78.656h216.128C347.841 35.36 376.865 0 410.721 0c35.808 0 62.88 37.376 62.88 78.656h220.096v28.384l131.712 291.616h-35.136l-120.736-268zM316.128 431.328c0 86.176-59.776 169.024-158.048 169.024C62.016 600.352.032 517.504.032 431.328c-.032.128 316.096.128 316.096 0zm199.744 0c0 .16 316.128.16 316.128 0 0 86.176-59.776 169.024-158.048 169.024-96.096 0-158.08-82.848-158.08-169.024z"/></svg>