<svg xmlns="http://www.w3.org/2000/svg" viewBox="0 0 1024.000244140625 804.571044921875"><path d="M293.713 609.714l46.286-170.857h-90.857l42.857 171.429q.571.571.571 1.714t.571 1.714q0-.571.286-2t.286-2zm66.286-244l20-73.143H213.142l18.286 73.143h128.571zm109.714 0h79.43l-20-73.143h-40zm256.573 244.572l44.571-171.429h-92.57l46.283 170.857q0 .571.286 2t.857 2q0-.571.286-1.714t.286-1.714zm63.427-244.572l18.857-73.143H638.856l19.43 73.143h131.428zM1023.999 384v36.571q0 8-5.143 13.143t-13.143 5.143H883.999l-93.714 352q-4 13.714-17.714 13.714h-90.857q-13.714 0-17.714-13.714l-94.857-352H449.714l-95.429 352q-4 13.714-17.714 13.714h-90.857q-6.286 0-11.143-4t-6-9.714l-91.429-352H18.286q-8 0-13.143-5.143T0 420.571V384q0-8 5.143-13.143t13.143-5.143h100l-18.857-73.143H18.286q-8 0-13.143-5.143T0 274.285v-36.571q0-8 5.143-13.143t13.143-5.143h62.286L29.715 22.857q-2.857-8.571 2.857-16Q38.286 0 47.429 0h78.286q14.857 0 17.714 13.714l51.43 205.714h205.142L455.43 13.714Q459.43 0 473.143 0h72q13.714 0 17.714 13.714l56 205.714h208.571l53.143-205.714Q883.428 0 898.285 0h78.286q9.143 0 14.857 6.857 5.714 7.429 2.857 16l-52 196.571h63.43q8 0 13.142 5.143t5.143 13.143v36.571q0 8-5.143 13.143t-13.143 5.143h-82.857l-19.429 73.143h102.286q8 0 13.143 5.143T1024 384z"/></svg>