<svg xmlns="http://www.w3.org/2000/svg" viewBox="0 0 757.280029296875 827.9999389648438"><path d="M428.704 483.36c-51.136-41.792-83.776-105.344-83.776-176.544 0-35.776 8.96-69.184 23.648-99.328l-35.135-35.104-213.44 213.472c39.68 31.232 35.68 61.76-10.752 91.52l285.152 285.12h139.744c17.984 0 32.576 14.592 32.576 32.576v32.576H414.144l-.352.352-.352-.352H176.064v-32.544c0-17.984 14.592-32.576 32.576-32.576h139.744L79.392 493.568C26.24 516.352 0 494.336 1.12 426.688c1.216-71.968 31.712-91.168 90.848-58.784l218.528-218.528-21.632-21.6c-12.704-12.672-12.704-33.312 0-46.016l69.056-69.056C370.624 0 391.264 0 403.968 12.704l83.2 83.264c26.496-10.784 55.328-16.96 85.696-16.96 74.944 0 141.504 32.16 183.008 88.064 1.408.352-325.984 316.8-327.168 316.288zm251.937-203.648s54.944 69.152 0 124.096-123.424-.672-123.424-.672l123.424-123.424z"/></svg>