<svg xmlns="http://www.w3.org/2000/svg" viewBox="0 0 1024.0009765625 573.43994140625"><path d="M438.989 521.01c-24.422 17.819-74.496 52.43-173.107 52.43C129.639 573.44 0 476.518 0 296.704 0 109.926 135.014 0 274.125 0c156.006 0 214.17 56.73 263.373 210.38l38.707 118.222c28.211 86.426 87.706 148.992 206.131 148.992 79.77 0 121.958-17.715 121.958-61.39 0-34.303-19.917-59.186-79.718-73.42l-79.82-18.893c-97.28-23.603-135.988-74.496-135.988-154.88C608.768 40.19 711.988 0 817.51 0c119.654 0 192.358 43.725 201.728 150.118L901.939 164.3c-4.71-50.79-35.226-72.09-91.494-72.09-51.61 0-83.302 23.603-83.302 63.795 0 35.482 15.31 56.78 66.918 68.608l75.06 16.589c100.863 23.603 154.88 73.318 154.88 169.114 0 118.22-98.51 163.123-244.02 163.123-202.906 0-273.306-92.211-310.784-206.9l-37.58-118.22c-28.11-86.374-50.689-148.582-153.908-148.582-71.578 0-164.813 46.899-164.813 192.307 0 113.51 77.978 184.525 158.925 184.525 68.608 0 109.875-38.605 131.277-57.907l35.891 102.349z"/></svg>