<svg xmlns="http://www.w3.org/2000/svg" viewBox="0 0 1024 960"><path d="M800 128c-10.624 0-21.124.75-31.584 2.25C708.668 48.834 614.377 0 512 0S315.377 48.834 255.584 130.25c-10.46-1.5-20.96-2.25-31.584-2.25C100.5 128 0 228.5 0 352s100.5 224 224 224c27.376 0 54.168-5 79.418-14.666 24.582 21.416 52.5 37.916 81.832 50.832l49.832-49.748c-46.916-15.252-88.332-42.542-119.208-79.752C289.877 501 258.25 512 224 512c-88.376 0-160-71.624-160-160s71.624-160 160-160c21.624 0 42.124 4.416 60.876 12.166C327.334 121.334 412.582 64 512 64s184.668 57.334 227.082 140.166C757.877 196.416 778.418 192 800 192c88.376 0 160 71.624 160 160s-71.624 160-160 160c-34.25 0-65.832-11-91.876-29.334-20.75 25.042-46.624 45.334-75.25 61.168L606 624.5c41.75-13.124 81-33.876 114.582-63.166C745.832 571 772.624 576 800 576c123.5 0 224-100.5 224-224S923.5 128 800 128zM384 704l64 64-64 192 192-192-64-64 64-192-192 192z"/></svg>