<svg xmlns="http://www.w3.org/2000/svg" viewBox="0 0 1024 960"><path d="M800 128c-10.624 0-21.124.75-31.584 2.25C708.668 48.834 614.377 0 512 0S315.377 48.834 255.584 130.25c-10.46-1.5-20.96-2.25-31.584-2.25C100.5 128 0 228.5 0 352s100.5 224 224 224c27.376 0 54.168-5 79.418-14.666 43.082 37.542 94.832 62.582 150.208 73.042L384 704l64 64-64 192 192-192-64-64 22-65.998c68.916-4.876 134.25-31.086 186.582-76.668C745.832 571 772.624 576 800 576c123.5 0 224-100.5 224-224S923.5 128 800 128zm0 384c-34.25 0-65.832-11-91.876-29.334-37.876 45.666-91.124 77.25-151.75 88.208L512 576c-79.25 0-149.168-36.75-196.124-93.334C289.877 501 258.25 512 224 512c-88.376 0-160-71.624-160-160s71.624-160 160-160c21.624 0 42.124 4.416 60.876 12.166C327.334 121.334 412.582 64 512 64s184.668 57.334 227.082 140.166C757.877 196.416 778.418 192 800 192c88.376 0 160 71.624 160 160s-71.624 160-160 160z"/></svg>