<svg xmlns="http://www.w3.org/2000/svg" viewBox="0 0 1047.3359375 1000"><path d="M451.906 623.766c-13.31 0-26.617-5.076-36.77-15.23-95.135-95.136-95.135-249.934 0-345.07l192-192C653.222 25.38 714.496 0 779.668 0s126.448 25.38 172.536 71.464c95.132 95.136 95.132 249.934 0 345.07L864.439 504.3c-20.308 20.308-53.23 20.308-73.54 0-20.306-20.306-20.306-53.232 0-73.54l87.766-87.766c54.584-54.586 54.584-143.404 0-197.99C852.223 118.562 817.066 104 779.669 104s-72.552 14.562-98.996 41.006l-192 191.998c-54.586 54.586-54.586 143.406 0 197.992 20.308 20.306 20.306 53.232 0 73.54-10.15 10.152-23.462 15.23-36.768 15.23zM267.668 1000c-65.176 0-126.45-25.38-172.534-71.464C0 833.4 0 678.602 95.134 583.466l87.764-87.764c20.308-20.306 53.234-20.306 73.54 0 20.308 20.306 20.308 53.232 0 73.54l-87.764 87.764c-54.586 54.586-54.586 143.406 0 197.992C195.116 881.438 230.273 896 267.669 896s72.552-14.562 98.998-41.006l192-191.998c54.584-54.586 54.584-143.406 0-197.992-20.308-20.308-20.306-53.232 0-73.54 20.306-20.306 53.232-20.306 73.54.002 95.132 95.134 95.132 249.932.002 345.068l-192.002 192C394.117 974.622 332.843 1000 267.669 1000z"/></svg>