<svg xmlns="http://www.w3.org/2000/svg" viewBox="0 0 871.6194458007812 1025.4310302734375"><path d="M376.381 235.24q-6.286.572-8.857 6t-4.857 5.43q-2.857.57-2.857-2.857 0-6.857 10.857-8.571h5.714zm49.714 8q-2.286.572-6.57-3.713t-10-2.571q13.713-6.286 18.285 1.143 1.714 3.429-1.714 5.143zm-200.57 244q-2.287-.57-3.43 1.715t-2.57 7.143-3.144 7.714-5.714 7.429q-4 5.714-.57 6.857 2.285.57 7.142-4t7.143-10.286q.571-1.714 1.143-4t1.143-3.43.857-2.57.286-2.286v-1.714l-.57-1.43-1.715-1.142zm488.57 205.144q0-10.286-31.429-24 2.286-8.571 4.286-15.714t2.857-14.857 1.714-12.286.286-12.857-.57-11.143-2-12.571-2.287-11.714-2.857-14.286-3.143-15.143q-5.714-27.43-26.857-58.857t-41.143-42.857q13.714 11.429 32.571 47.429 49.714 92.57 30.857 158.857-6.286 22.857-28.57 24-17.715 2.286-22-10.571t-4.572-47.714-6.57-61.143q-5.144-22.286-11.144-39.43t-11.143-26-8.857-14-7.429-8.57-4.286-4q-8-35.43-17.714-58.857t-16.857-32-13.429-18.857-8.57-22.857q-2.287-12 3.428-30.571t2.571-28.286-25.429-14.286q-8.57-1.714-25.429-10.286t-20.286-9.143q-4.57-.571-6.286-14.857t4.571-29.143 20.571-15.43q21.143-1.713 29.143 17.144t2.286 33.143q-6.286 10.857-1.143 15.143t17.143.286q7.43-2.286 7.43-20.571v-21.143q-2.858-17.143-7.715-28.571t-12-17.43-13.429-8.57-15.429-4.286q-61.143 4.57-50.857 76.57 0 8.572-.57 8.572-5.144-5.143-16.858-6t-18.857.286-8.857-2.857q.571-32.571-9.143-51.43t-25.714-19.428q-15.429-.571-23.714 15.714t-9.429 34q-.57 8.57 2 21.143t7.43 21.429 8.856 7.714q5.714-1.714 9.143-8 2.286-5.143-4-4.571-4 0-8.857-8.286t-5.429-19.143q-.57-12.571 5.143-21.143t19.43-8q9.713 0 15.428 12t5.43 22.286-.858 12.57q-12.57 8.572-17.714 16.572-4.57 6.857-15.714 13.429t-11.714 7.143q-7.429 8-8.857 15.429t4.286 10.286q8 4.57 14.286 11.143t9.143 10.857 10.571 7.429 20.286 3.714q26.857 1.143 58.286-8.571 1.143-.571 13.143-4t19.714-6 16.857-7.43 12-10q5.143-8 11.43-4.57 2.856 1.714 3.713 4.857t-1.714 6.857-9.429 5.429q-11.429 3.429-32.286 12.286t-26 11.143q-25.143 10.857-40 13.143-14.286 2.857-45.143-1.143-5.714-1.143-5.143 1.143t9.714 10.857q14.286 13.143 38.286 12.57 9.714-.57 20.571-4t20.571-8 19.143-10 17.143-9.713 14-6.857 10-1.43 4.857 6.287q0 1.143-.57 2.57t-2.287 2.858-3.429 2.57-4.857 2.858-5.143 2.57-5.714 2.858-5.429 2.57q-16 8-38.57 25.144t-38 24.57-28 .572q-12-6.286-36-41.714-12.572-17.714-14.287-12.571-.57 1.714-.57 5.714 0 14.286-8.572 32.286t-16.857 31.714-12 33.143 6.571 36q-13.143 3.429-35.714 51.429t-27.143 80.57q-1.143 10.287-.857 39.43t-3.143 33.714q-4.57 13.714-16.57 1.714-18.287-17.714-20.572-53.714-1.143-16 2.286-32 2.286-10.857-.57-10.286l-2.288 2.857q-20.57 37.143 5.714 94.857 2.857 6.857 14.286 16t13.714 11.429q11.43 13.143 59.43 51.714t53.142 43.714q9.143 8.57 10 21.714t-8 24.57-26 13.144q4.571 8.57 16.571 25.429t16 30.857 4 40.286q26.286-13.714 4-52.571-2.286-4.571-6-9.143t-5.429-6.857-1.143-3.43q1.714-2.856 7.43-5.428t11.428 1.429q26.286 29.714 94.857 20.57 76-8.57 101.143-49.713 13.143-21.714 19.43-17.143 6.856 3.429 5.713 29.714-.57 14.286-13.143 52.57-5.143 13.144-3.429 21.43t13.714 8.857q1.714-10.857 8.286-44t7.714-51.43q1.143-12-3.714-42t-4.286-55.428 13.143-40.286q8.571-10.286 29.143-10.286.571-21.143 19.714-30.286t41.43-6 34.285 12.857zM355.238 219.813q1.714-9.714-1.429-17.143t-6.57-8.571q-5.144-1.143-5.144 4 1.143 2.857 2.857 3.429 5.714 0 4 8.57-1.714 11.43 4.571 11.43 1.714 0 1.714-1.714zm239.43 112.57q-1.144-4.57-3.715-6.57t-7.429-2.857-8.286-3.143q-2.857-1.714-5.429-4.571t-4-4.571-3.143-3.714-2.286-2.286-2.286.857q-8 9.143 4 24.857t22.286 18q5.143.57 8.286-4.571t2-11.43zM492.952 210.67q0-6.286-2.857-11.143t-6.286-7.143-5.143-1.714q-8 .57-4 4l2.286 1.143q8 2.286 10.286 17.714 0 1.714 4.571-1.143zM523.81 77.527q0-1.143-1.429-2.857t-5.143-4-5.429-3.43q-8.57-8.57-13.714-8.57-5.143.57-6.57 4.286t-.572 7.429-.286 7.143q-.57 2.286-3.429 6t-3.429 5.143 1.714 4.857q2.286 1.714 4.571 0t6.286-5.143 8.571-5.143q.571-.571 5.143-.571t8.571-1.143 5.143-4zm322.857 766.286q11.43 6.857 17.714 14t6.857 13.714-1.429 12.857-8.857 12.57-13.429 11.144-17.143 10.57-18 9.43-18.286 8.857-15.429 7.429q-21.714 10.857-48.857 32t-43.143 36.57q-9.714 9.144-38.857 11.144t-50.857-8.286q-10.286-5.143-16.857-13.43t-9.429-14.57-12.57-11.143-26.858-5.43q-25.143-.57-74.286-.57-10.857 0-32.57.857t-33.144 1.429q-25.143.57-45.429 8.57t-30.57 17.144-24.858 16.286-30.57 6.57q-16.572-.57-63.43-17.713t-83.428-24.571q-10.857-2.286-29.143-5.43t-28.57-5.142-22.572-5.43-19.143-8.285T3.81 943.81q-5.714-13.143 4-38t10.286-31.143q.571-9.143-2.286-22.857t-5.714-24.286-2.57-20.857 6-15.43q8-6.856 32.57-8t34.286-6.856q17.143-10.286 24-20t6.857-29.143q12 41.714-18.286 60.57-18.286 11.43-47.429 8.572-19.429-1.714-24.57 5.714-7.43 8.57 2.856 32.57 1.143 3.43 4.571 10.287t4.857 10.286 2.571 9.714.571 12.57q0 8.572-9.714 28t-8 27.43q1.714 9.714 21.143 14.857 11.43 3.429 48.286 10.57t56.857 11.715q13.714 3.429 42.286 12.57t47.143 13.144 31.714 2.286q24.571-3.43 36.857-16t13.143-27.43-4.286-33.428-10.857-29.714-11.429-20.857q-69.143-108.571-96.57-138.286-38.858-42.286-64.572-22.857-6.286 5.143-8.57-8.571-1.715-9.143-1.144-21.714.571-16.571 5.714-29.714t13.714-26.857 12.571-24q4.571-12 15.143-41.143t16.857-44.571 17.143-34.857 22.286-30.857q62.857-81.714 70.857-111.43-6.857-64-9.143-177.142-1.143-51.43 13.714-86.571t60.571-59.714q22.286-12 59.43-12 30.285-.571 60.57 7.714t50.857 23.714q32.571 24 52.286 69.429t16.857 84.286q-2.857 54.286 17.143 122.286 19.43 64.57 76 124.57 31.43 33.715 56.857 93.144t34 109.143q4.571 28 2.857 48.286t-6.857 31.714-11.429 12.57q-5.714 1.144-13.429 10.858t-15.429 20.286-23.143 19.143-34.857 8q-10.286-.571-18-2.857t-12.857-7.714-7.714-8.857-6.57-11.714-5.144-11.143q-12.57-21.143-23.429-17.143t-16 28 4 55.429q11.43 40 .571 111.429-5.714 37.143 10.286 57.429t41.714 18.857 48.571-20.286q33.714-28 51.143-38t59.143-24.286q30.286-10.286 44-20.857t10.571-19.714-14.286-16.286-29.429-13.43q-18.857-6.285-28.286-27.428t-8.57-41.43 8.856-27.142q.571 17.714 4.571 32.286t8.286 23.143 11.714 16.286 12 10.857 12.286 7.429 9.43 5.429z"/></svg>