<svg xmlns="http://www.w3.org/2000/svg" viewBox="0 0 682.666015625 853.3330078125"><path d="M220.586 632.747c66.56 66.56 174.72 66.56 241.28 0s66.56-174.72 0-241.28l-241.28 241.28zM597.333.427L85.333 0C38.186 0 0 38.187 0 85.333V768c0 47.147 38.187 85.333 85.333 85.333h512c47.147 0 85.333-38.187 85.333-85.333V85.333c0-47.147-38.187-84.907-85.333-84.907zM256 85.334c23.467 0 42.667 19.2 42.667 42.667s-19.2 42.667-42.667 42.667-42.667-19.2-42.667-42.667 19.2-42.667 42.667-42.667zm-128 0c23.467 0 42.667 19.2 42.667 42.667s-19.2 42.667-42.667 42.667-42.667-19.2-42.667-42.667 19.2-42.667 42.667-42.667zM341.333 768c-141.44 0-256-114.56-256-256s114.56-256 256-256 256 114.56 256 256-114.56 256-256 256z"/></svg>