<svg xmlns="http://www.w3.org/2000/svg" viewBox="0 0 1028.66796875 1028.66796875"><path d="M256 192L128 64H64v64l128 128zM320 0h64v128h-64zm256 320h128v64H576zm64-192V64h-64L448 192l64 64zM0 320h128v64H0zm320 256h64v128h-64zm-256 0v64h64l128-128-64-64zm946 306L373.882 245.882c-18.668-18.668-49.214-18.668-67.882 0L245.882 306c-18.668 18.668-18.668 49.214 0 67.882L882 1010c18.668 18.668 49.214 18.668 67.882 0L1010 949.882c18.668-18.668 18.668-49.214 0-67.882zM480 544L288 352l64-64 192 192-64 64z"/></svg>