<svg xmlns="http://www.w3.org/2000/svg" viewBox="0 0 1316.5733642578125 877.7163696289062"><path d="M383.43 460h-7.428q-26.857 0-26.857 18.287 0 12.57 11.429 12.57 9.714 0 16-8.57T383.43 460zm225.715-20.571h35.429v-1.714q.57-2.286.286-3.714t-.571-4-1.143-4.571-2.571-3.714-4.286-2.857-6.571-1.143q-16 0-20.571 21.714zM917.715 460h-6.856q-27.43 0-27.43 18.286 0 12.57 11.43 12.57 9.714 0 16-8.57T917.716 460zm182.287-14.857q0-23.43-17.143-23.43-10.857 0-17.714 11.43t-6.857 29.143q0 24 16 24 11.429 0 18.57-11.43t7.144-29.713zm-825.714-80.572h49.714l-25.143 149.714h-32l18.286-114.857-40.571 114.857h-22.286L220.002 400l-19.43 114.286h-30.285l25.143-149.714h46.286l1.143 93.143zm144.57 61.143q0 3.429-2.285 24-9.143 57.714-9.714 64.57h-26.857l.57-12.57q-11.428 14.857-33.142 14.857-13.143 0-21.43-9.143t-8.285-24q0-22.286 14.857-34.571t41.714-12.286q8 0 13.143.57 0-1.713.286-3.142t.57-2.571.287-1.714q0-11.43-20.571-11.43-16.571 0-33.714 5.715 0-2.286 4-27.43 21.714-6.285 38.286-6.285 42.286 0 42.286 35.429zm89.144-33.143l-4.571 28q-12.571-1.714-23.43-1.714-15.428 0-15.428 9.714 0 4.57 2.57 6.857t12.287 6.286q22.857 10.857 22.857 34.286 0 41.143-49.714 40.57-19.43 0-33.143-3.428 0-1.143 4-28 16.57 4.57 29.143 4.57 18.286 0 18.286-10.856 0-4-2.571-6.571t-12.286-7.143q-24.571-11.43-24.571-33.714 0-41.143 48-41.143 17.143 0 28.57 2.286zm50.286 0h16l-4 29.714h-16.571q-1.143 9.714-3.714 23.143t-4 22-1.43 10.286q0 9.143 10.858 9.143 4.57 0 9.143-1.143l-4.571 26.857q-12 4-22.857 4-24.571 0-25.714-26.857 0-6.857 4.57-32 1.715-11.43 14.287-83.43h31.429zm116 41.715q0 13.143-4 29.714h-63.43q-1.713 12.57 5.715 18.857t21.714 6.286q17.143 0 33.143-8L662.287 512q-17.143 4.57-32.571 4.57-54.286 0-54.286-54.285 0-31.43 15.714-51.714t39.714-20.286q20 0 31.714 12t11.714 32zM753.716 392q-7.43 13.143-12.571 35.429-12.571-1.143-17.714 13.714t-14.286 73.143h-32l1.714-8q12.57-74.286 16.57-113.714h29.144l-1.714 18.857q8-12 14.57-16.857t16.287-2.571zm106.857-23.43l-5.143 32.572q-16-8-28.571-8-17.714 0-29.143 15.714t-11.43 40.286q0 17.143 7.715 26.857t22 9.714q12 0 27.429-7.43L837.716 512q-16 4.57-28.571 4.57-25.714 0-40.857-17.428t-15.143-47.143q0-40 20.286-65.43t52.286-25.428q14.857 0 34.857 7.429zm92.572 57.144q0 10.286-2.286 24-7.43 45.143-9.714 64.57h-26.286l.57-12.57q-11.428 14.857-33.713 14.857-13.143 0-21.143-9.143t-8-24q0-22.286 14.57-34.571t41.43-12.286q8.57 0 13.143.57 1.143-4 1.143-7.428 0-11.43-20.571-11.43-16.571 0-33.714 5.715 0-2.286 4.57-27.43 21.715-6.285 38.287-6.285 41.714 0 41.714 35.429zm80.57-33.714q-8 13.714-12 35.429-13.142-1.143-18 13.143t-14.57 73.714h-32l1.714-8q10.857-59.43 16.57-113.714h29.715q0 6.286-2.286 18.857 8.57-12 15.143-16.857t15.714-2.571zm80.573-27.43h32l-24.571 149.715h-30.286l1.714-10.857q-13.143 13.143-29.714 13.143-17.714 0-28.286-13.714t-10.571-36.571q0-30.286 15.714-52.571t36.857-22.286q17.714 0 30.286 16.57zm63.428 74.287q0-84.571-41.43-156t-113.142-113.143T866.858 128q-103.43 0-187.43 62.857Q752 257.144 777.144 353.144h-28.571q-25.143-85.714-90.286-144.571Q593.143 267.43 568 353.143h-28.571q25.143-96 97.714-162.285-84-62.857-187.43-62.857-84.57 0-156.285 41.714T180.285 282.858t-41.43 156 41.43 156T293.428 708t156.286 41.714q103.429 0 187.429-62.857-68.571-63.43-94.286-150.857h28.57q26.287 78.857 86.858 133.143 60.57-54.286 86.857-133.143h28.57Q748 623.43 679.428 686.858q84 62.857 187.429 62.857 84.57 0 156.286-41.714t113.143-113.143 41.429-156zm138.857-365.714v731.429q0 29.714-21.714 51.429t-51.43 21.714H73.145q-29.714 0-51.43-21.714T.002 804.572V73.145q0-29.714 21.714-51.43T73.144.002H1243.43q29.714 0 51.429 21.714t21.714 51.429z"/></svg>