<svg xmlns="http://www.w3.org/2000/svg" viewBox="0 0 878.5400390625 921.5999755859375"><path d="M439.296 460.8c27.034 0 52.531 5.325 77.005 13.107L205.159 7.219C202.139 2.713 197.121 0 191.693 0H9.626C3.636 0 0 6.707 3.38 11.725l319.027 478.566c35.174-18.227 74.547-29.491 116.89-29.491zM868.966 0H686.899c-5.427 0-10.445 2.714-13.466 7.219L477.695 300.8l102.4 153.6L875.212 11.725C878.54 6.707 874.956 0 868.966 0zm-429.67 512c-113.1 0-204.8 91.699-204.8 204.8s91.7 204.8 204.8 204.8 204.8-91.699 204.8-204.8c0-113.101-91.699-204.8-204.8-204.8zM547.43 722.79c3.174 3.277 2.662 8.09-1.126 10.65s-4.864 7.834-2.509 11.725c2.406 3.891.922 8.448-3.328 10.189s-6.4 6.656-4.864 10.957-.87 8.448-5.325 9.267-7.629 5.171-7.014 9.677-2.61 8.09-7.168 7.936c-4.557-.154-8.55 3.482-8.909 7.987s-4.25 7.373-8.653 6.298-9.114 1.587-10.394 5.99-5.683 6.349-9.779 4.352c-4.096-1.997-9.216-.307-11.366 3.686s-6.86 5.018-10.496 2.202-8.96-2.253-11.878 1.229-7.73 3.482-10.7 0-8.295-4.045-11.879-1.229-8.294 1.792-10.496-2.202-7.27-5.683-11.366-3.686c-4.096 1.997-8.499 0-9.779-4.352s-5.939-7.066-10.394-5.99-8.346-1.741-8.653-6.298-4.3-8.141-8.858-8.038c-4.557.154-7.782-3.43-7.168-7.936s-2.56-8.858-7.014-9.677-6.912-4.966-5.325-9.267-.666-9.216-4.864-10.957-5.683-6.298-3.328-10.189c2.406-3.891 1.28-9.165-2.509-11.725s-4.25-7.373-1.126-10.65c3.174-3.277 3.174-8.653 0-11.981s-2.662-8.09 1.126-10.65 4.864-7.834 2.51-11.725c-2.407-3.891-.923-8.448 3.327-10.189s6.4-6.656 4.864-10.957.87-8.448 5.325-9.267 7.63-5.171 7.014-9.677 2.611-8.09 7.168-7.936c4.557.154 8.55-3.482 8.91-7.987s4.25-7.373 8.652-6.298 9.114-1.587 10.394-5.99 5.683-6.349 9.78-4.352c4.095 1.997 9.215.307 11.365-3.686s6.861-5.018 10.496-2.202 8.96 2.253 11.878-1.229 7.731-3.482 10.701 0 8.294 4.045 11.878 1.229 8.294-1.792 10.496 2.202 7.27 5.683 11.366 3.686c4.096-1.997 8.5 0 9.78 4.352s5.938 7.066 10.393 5.99 8.346 1.741 8.653 6.298 4.352 8.141 8.91 7.987c4.556-.154 7.781 3.43 7.167 7.936s2.56 8.858 7.014 9.677 6.912 4.966 5.325 9.267.666 9.216 4.864 10.957 5.683 6.298 3.328 10.189c-2.406 3.891-1.28 9.165 2.51 11.725s4.25 7.373 1.125 10.65-3.226 8.755-.05 12.032z"/></svg>