<svg xmlns="http://www.w3.org/2000/svg" viewBox="0 0 1024.0020751953125 877.7156982421875"><path d="M731.43 566.857V457.143q0-8-5.143-13.143t-13.143-5.143h-128v-128q0-8-5.143-13.143t-13.143-5.143H457.144q-8 0-13.143 5.143t-5.143 13.143v128h-128q-8 0-13.143 5.143t-5.143 13.143v109.714q0 8 5.143 13.143t13.143 5.143h128v128q0 8 5.143 13.143t13.143 5.143h109.714q8 0 13.143-5.143t5.143-13.143v-128h128q8 0 13.143-5.143t5.143-13.143zM365.715 146.286h292.571V73.143h-292.57v73.143zm-219.428 0v731.429h-18.286q-52.57 0-90.286-37.714T.001 749.715V274.286q0-52.571 37.714-90.286t90.286-37.714h18.286zm676.571 0v731.429H201.144V146.286h91.43V54.857q0-22.857 16-38.857T347.43 0h329.143q22.857 0 38.857 16t16 38.857v91.429h91.43zm201.143 128v475.429q0 52.571-37.714 90.286t-90.286 37.714h-18.286V146.286h18.286q52.571 0 90.286 37.714t37.714 90.286z"/></svg>