<svg xmlns="http://www.w3.org/2000/svg" viewBox="0 0 1024 960"><path d="M512 0c282.77 0 512 229.23 512 512 0 192.792-106.576 360.666-264.008 448H264.008C106.577 872.666 0 704.792 0 512 0 229.23 229.23 0 512 0zm289.914 801.914C879.352 724.474 922 621.516 922 512h-90v-64h85.038c-7.014-44.998-21.39-88.146-42.564-128H768v-64h64.284a417.023 417.023 0 0 0-30.37-33.914c-46.222-46.22-101.54-80.038-161.914-99.798V192h-64v-85.04a415.443 415.443 0 0 0-128 0V192h-64v-69.712c-60.372 19.76-115.692 53.576-161.914 99.798A417.023 417.023 0 0 0 191.717 256h64.284v64H149.524c-21.174 39.854-35.552 83.002-42.564 128H192v64h-90c0 109.516 42.648 212.474 120.086 289.914A417.053 417.053 0 0 0 255.647 832h192.354l36.572-512h54.856l36.572 512h192.354a417.093 417.093 0 0 0 33.56-30.086z"/></svg>