<svg xmlns="http://www.w3.org/2000/svg" viewBox="0 0 434.55999755859375 767.9998779296875"><path d="M234.027 337.067c-96.853-25.173-128-50.987-128-91.52 0-46.507 42.88-79.147 115.2-79.147 75.947 0 104.107 36.267 106.667 89.6h94.293c-2.773-73.6-47.787-140.587-136.96-162.56V0h-128v92.16C74.454 110.293 7.894 163.627 7.894 246.187c0 98.56 81.707 147.627 200.533 176.213 106.88 25.6 128 62.933 128 103.04 0 29.227-20.693 76.16-115.2 76.16-87.893 0-122.667-39.467-127.147-89.6H0c5.333 93.44 75.093 145.707 157.227 163.413V768h128v-91.733c82.987-16 149.333-64 149.333-151.68 0-120.747-103.68-162.133-200.533-187.52z"/></svg>