<svg xmlns="http://www.w3.org/2000/svg" viewBox="0 0 525.58203125 525.5819702148438"><path d="M461.832 425.75c-99.752 99.832-262.166 99.832-362 0C0 325.916 0 163.5 99.832 63.708c26.418-26.374 58.624-46.5 95.664-59.624 11.668-4.084 24.586-1.124 33.25 7.584 8.752 8.75 11.71 21.666 7.586 33.25-25.084 70.75-8 147.332 44.498 199.834 52.418 52.456 129.002 69.5 199.834 44.5 11.584-4.124 24.542-1.166 33.25 7.584 8.752 8.666 11.668 21.624 7.542 33.25-13.042 37.04-33.208 69.246-59.624 95.664zm-316.75-316.792c-74.876 74.876-74.876 196.708 0 271.542 80 80.042 216.25 72.834 286-16.334-71.918 4.5-142.75-21.458-195.5-74.168-52.75-52.708-78.666-123.542-74.168-195.458-5.748 4.502-11.208 9.294-16.332 14.418z"/></svg>