<svg xmlns="http://www.w3.org/2000/svg" viewBox="0 0 1319.427490234375 733.523681640625"><path d="M1314.856 445.714q6.857 58.857-12.571 113.429t-56.571 93.429-90.571 60.57-112.286 17.715q-92-6.286-159.714-71.43t-76.857-156.57Q799.429 439.427 822 382.57t67.714-97.43L849.143 224q-54.857 45.714-86.286 110.857t-31.429 139.429q0 15.429-10.571 26.57t-26 11.144H509.143Q496 605.713 424 668.569t-168 62.858q-105.714 0-180.857-75.143T0 475.427 75.143 294.57 256 219.427q43.429 0 86.857 15.429l13.714-25.714q-70.286-62.857-173.714-62.857h-36.571q-14.857 0-25.714-10.857t-10.857-25.714T120.572 84t25.714-10.857h73.143q44.571 0 82.857 7.714t66.571 22 40.857 22.57 29.143 20.858h358.286l-48.571-73.143H621.715q-17.143 0-28-12.857t-8-30q2.286-13.143 13.143-21.714T623.429 0H768q18.857 0 30.286 16l40 60 65.143-65.143Q914.286 0 929.715 0h57.714q14.857 0 25.714 10.857T1024 36.57v73.143q0 14.857-10.857 25.714t-25.714 10.857H885.143l65.714 98.286q74.857-36 157.143-20.571 81.714 14.857 139.429 76.857t67.429 144.857zM255.999 658.284q65.714 0 116-41.428t63.429-104.857H255.999q-20 0-31.429-17.714-10.286-18.286-.571-36l84-158.286q-26.857-7.43-52-7.43-75.429 0-129.143 53.715T73.142 475.427t53.714 129.143 129.143 53.714zm804.571 0q75.429 0 129.143-53.713t53.714-129.143-53.714-129.143-129.143-53.714q-34.286 0-69.143 13.714l99.429 148.57q8.571 13.144 5.714 28t-15.429 22.858q-8.571 6.286-20.571 6.286-20 0-30.286-16.571l-99.429-148.571q-53.143 54.286-53.143 128.57 0 75.43 53.714 129.144t129.143 53.714z"/></svg>