<svg xmlns="http://www.w3.org/2000/svg" viewBox="0 0 1027.9979248046875 638.221923828125"><path d="M350.868 634.282c-60.274-15.06-93.856-62.97-93.962-134.064-.032-22.726 1.612-33.62 7.286-48.236 13.908-35.834 50.728-62.872 99.176-72.822 24.11-4.95 31.536-10.266 31.536-22.572 0-3.862 2.872-15.36 6.378-25.552 15.932-46.306 45.43-84.91 76.948-100.702 32.99-16.526 49.642-20.254 89.548-20.04 56.674.304 84.952 12.598 124.496 54.128l21.75 22.842 19.484-6.742c94.3-32.636 188.306 22.916 195.888 115.756l2.072 25.398 18.57 6.65c53.032 19.004 77.96 58.904 73.442 117.556-2.958 38.358-20.89 68.98-49.3 84.184l-13.356 7.146-296.822.57c-228.094.44-300.6-.368-313.134-3.5zm-247.65-42.422c-36.176-9.086-74.506-42.854-92.48-81.47C.542 488.484 0 485.262 0 446.51c0-36.864.87-42.778 8.988-61.08 17.11-38.582 49.894-66.46 91.03-77.408 8.684-2.312 16.842-6 18.128-8.196 1.29-2.198 2.722-14.164 3.182-26.592 2.866-77.196 50.79-145.214 117.708-167.056 36.154-11.8 83.572-12.898 122.896 3.726 12.47 5.274 11.068 6.404 37.438-30.14 15.594-21.612 45.108-44.49 70.9-58.18C498.108 6.808 527.062 0 561.682.09c96.768.252 180.166 64.22 211.004 161.848 9.854 31.192 9.362 39.926-2.26 40.184-5.072.112-19.604 3.064-32.292 6.558l-23.072 6.358-21.052-22.25c-59.362-62.734-156.238-76.294-238.592-33.396-32.9 17.138-59.34 41.746-79.31 73.81-14.236 22.858-32.39 65.504-32.39 76.094 0 7.51-5.754 11.264-30.332 19.782-76.094 26.376-120.508 87.282-120.476 165.218.01 28.368 6.922 63.074 16.52 82.956 3.618 7.494 5.634 14.622 4.484 15.836-2.946 3.106-97.608 2.06-110.696-1.228z"/></svg>