<svg xmlns="http://www.w3.org/2000/svg" viewBox="0 0 1317.4287109375 947.4319458007812"><path d="M870.859 853.717q0 38.857-27.429 66.286t-66.286 27.429-66.571-27.429-27.714-66.286 27.714-66.571 66.571-27.714 66.286 27.714 27.429 66.571zm-428 0q0 38.857-27.714 66.286t-66.571 27.429-66.286-27.429-27.429-66.286 27.429-66.571 66.286-27.714 66.571 27.714 27.714 66.571zM.002.003q32.571 34.286 63.143 59.714t69.143 46.857 77.714 36 94.857 26 114.286 18 142.857 10.571 173.714 5.429 212.857 1.429q79.429 0 139.714 2.857t103.429 9.429 70.857 15.714 40.571 22.571 13.714 29.429-11.143 36.571-32.286 43.714-51.143 52T1156 476.002t-79.429 68q-105.714 89.714-163.429 141.143 16.571-29.143 43.714-62.286t53.714-60.286 54-56.286 47.429-52.286 30.857-46 7.429-40-26-31.714-66.571-23.429-116.571-13.429-173.714-2.857q-96 1.143-179.429-3.429T441.714 280t-116.857-23.429-91.143-29.429-70-35.714-52.286-38-38.857-40.857-28.857-39.714T20.857 34 0 0z"/></svg>