<svg xmlns="http://www.w3.org/2000/svg" viewBox="0 0 896 1024"><path d="M768 384H128C57.344 384 0 441.344 0 512v64c0 47.25 25.844 88.062 64 110.25V896h256v128h256V896h256V686.25c38.125-22.188 64-62.938 64-110.25v-64c0-70.656-57.375-128-128-128zM256 832H128V576H64v-64c0-35.312 28.688-64 64-64h81.72c-11 18.875-17.72 40.562-17.72 64v128c0 47.25 25.844 88.062 64 110.25V832zm320-128V576h-64v384H384V576h-64v128c-35.312 0-64-28.625-64-64V512c0-35.312 28.688-64 64-64h256c35.375 0 64 28.688 64 64v128c0 35.375-28.625 64-64 64zm256-128h-64v256H640v-81.75c38.125-22.188 64-62.938 64-110.25V512c0-23.438-6.75-45.125-17.75-64H768c35.375 0 64 28.688 64 64v64zM303.688 317.375C338.875 357.875 390.157 384 448 384c57.875 0 109.125-26.125 144.312-66.625C614.125 356.938 655.688 384 704 384c70.625 0 128-57.344 128-128s-57.375-128-128-128c-25.625 0-49.375 7.688-69.375 20.688C614.875 63.562 539.062 0 448 0S281.094 63.562 261.375 148.688C241.345 135.688 217.595 128 192 128c-70.656 0-128 57.344-128 128s57.344 128 128 128c48.312 0 89.844-27.062 111.688-66.625zM704 192c35.375 0 64 28.594 64 64s-28.625 64-64 64c-35.312 0-64-28.594-64-64s28.688-64 64-64zM448 64c70.625 0 128 57.344 128 128s-57.375 128-128 128c-70.656 0-128-57.344-128-128S377.344 64 448 64zM192 320c-35.312 0-64-28.594-64-64s28.688-64 64-64c35.406 0 64 28.594 64 64s-28.594 64-64 64z"/></svg>