<svg xmlns="http://www.w3.org/2000/svg" viewBox="0 0 768 768"><path d="M384 0C171.947 0 0 171.947 0 384s171.947 384 384 384c35.413 0 64-28.587 64-64 0-16.64-6.187-31.573-16.64-42.88-10.027-11.307-16-26.027-16-42.453 0-35.413 28.587-64 64-64h75.307c117.76 0 213.333-95.573 213.333-213.333C768 152.747 596.053.001 384 .001zM149.333 384c-35.413 0-64-28.587-64-64s28.587-64 64-64 64 28.587 64 64-28.587 64-64 64zm128-170.667c-35.413 0-64-28.587-64-64s28.587-64 64-64 64 28.587 64 64-28.587 64-64 64zm213.334 0c-35.413 0-64-28.587-64-64s28.587-64 64-64 64 28.587 64 64-28.587 64-64 64zm128 170.667c-35.413 0-64-28.587-64-64s28.587-64 64-64 64 28.587 64 64-28.587 64-64 64z"/></svg>