<svg xmlns="http://www.w3.org/2000/svg" viewBox="0 0 950.9370727539062 766.156982421875"><path d="M921.753 6.196C904.14 12.391 34.918 318.721 17.766 324.762c-14.54 5.12-17.766 17.664-.512 24.525 20.53 8.243 194.355 77.875 194.355 77.875l115.2 46.131s554.906-407.45 562.38-412.979c7.579-5.53 16.283 4.864 10.804 10.803-5.478 5.99-402.995 435.866-402.995 435.866v.102l-23.142 25.754 30.67 16.486s238.08 128.205 255.077 137.318c14.9 7.987 34.202 1.382 38.502-17.101 5.07-21.811 145.664-627.763 148.787-641.28C950.937 10.7 939.314 0 921.752 6.195zM325.785 750.029c0 12.595 7.117 16.128 16.947 7.219 12.85-11.725 145.92-131.123 145.92-131.123l-162.867-84.173v208.077z"/></svg>