<svg xmlns="http://www.w3.org/2000/svg" viewBox="0 0 797.5430297851562 921.5989990234375"><path d="M288.974 495.462h84.941c184.525 0 289.23-83.098 322.56-253.952 1.075-5.632 2.048-11.059 2.867-16.486 1.843-11.571 2.765-21.965 3.174-31.949.307-6.861.512-10.906.461-14.694-.41-20.019-3.942-36.966-11.059-53.197-6.605-15.155-16.589-30.054-31.386-47.002C616.858 28.518 540.775 0 449.895 0H160.461c-20.378 0-37.734 14.848-40.909 34.97L67.328 371.405 2.355 790.477C0 805.581 11.673 819.2 26.931 819.2h141.926l43.47-258.202c5.99-37.888 38.245-65.536 76.645-65.536zm466.073-234.854c-40.55 193.075-171.878 295.526-381.184 295.526h-84.89c-8.397 0-15.462 6.042-16.794 14.438l-56.576 351.027h148.838c17.818 0 33.024-12.954 35.79-30.566l1.484-7.68 28.416-179.917 1.843-9.933c2.765-17.613 17.971-30.566 35.79-30.566h22.527c145.92 0 260.147-59.29 293.53-230.707 13.722-70.656 6.758-129.741-28.774-171.622z"/></svg>