<svg xmlns="http://www.w3.org/2000/svg" viewBox="0 0 768.039306640625 768.0784912109375"><path d="M725.333 533.373c-53.12 0-104.533-8.533-152.32-24.32-14.72-4.693-31.573-1.28-43.307 10.453l-93.867 94.08c-120.96-61.44-219.52-160.213-281.173-280.96l93.867-94.293c11.733-11.733 15.147-28.587 10.453-43.307-15.787-47.787-24.32-99.2-24.32-152.32A42.52 42.52 0 0 0 191.999.04H42.667C19.2.04 0 19.026 0 42.706 0 443.346 324.693 768.04 725.333 768.04A42.52 42.52 0 0 0 768 725.372V576.04a42.52 42.52 0 0 0-42.667-42.667zM384 .04v426.667l128-128h256V.04H384z"/></svg>