<svg xmlns="http://www.w3.org/2000/svg" viewBox="0 0 853.3722534179688 853.3712768554688"><path d="M640.04 426.666l213.332-213.333L640.04 0v128H469.372v170.667H640.04v128zm85.332 192c-53.12 0-104.32-8.533-152.32-24.32-14.72-4.693-31.573-1.28-43.307 10.453l-93.867 94.08c-120.96-61.44-219.52-160.213-281.173-280.96l93.867-94.08c11.733-11.733 15.147-28.587 10.453-43.307-15.787-48.213-24.319-99.413-24.319-152.533a42.52 42.52 0 0 0-42.667-42.667H42.706A42.52 42.52 0 0 0 .04 127.999c0 400.64 324.693 725.333 725.333 725.333a42.52 42.52 0 0 0 42.667-42.667V661.332a42.52 42.52 0 0 0-42.667-42.667z"/></svg>