<svg xmlns="http://www.w3.org/2000/svg" viewBox="0 0 1024.0010986328125 883.6270141601562"><path d="M938.667 185.814v-85.333h-647.68l85.333 85.333h562.347zM81.92.001l-54.4 54.4 77.44 77.44c-11.947 14.72-19.627 33.493-19.627 53.973v469.333H0v128h756.48l100.48 100.48 54.187-54.4L81.92 0zm88.747 197.546l457.813 457.6H170.667v-457.6zm810.666 73.6h-256c-23.467 0-42.667 19.2-42.667 42.667v178.347l85.333 85.333V356.481h170.668v298.667h-93.013l128 128h7.68c23.467 0 42.667-19.2 42.667-42.667V313.814c0-23.467-19.2-42.667-42.667-42.667z"/></svg>