<svg xmlns="http://www.w3.org/2000/svg" viewBox="0 0 768.0785522460938 768.0784912109375"><path d="M725.372 533.373c-53.12 0-104.32-8.533-152.32-24.32-14.72-4.693-31.573-1.28-43.307 10.453l-93.867 94.08c-120.96-61.44-219.52-160.213-281.173-280.96l93.867-94.08c11.733-11.733 15.147-28.587 10.453-43.307-15.787-48-24.32-99.413-24.32-152.533A42.52 42.52 0 0 0 192.038.04H42.706A42.52 42.52 0 0 0 .04 42.706c0 400.64 324.693 725.333 725.333 725.333a42.52 42.52 0 0 0 42.667-42.667V576.04a42.52 42.52 0 0 0-42.667-42.667zM682.706 384.04h85.333c0-212.053-171.947-384-384-384v85.333c164.907 0 298.667 133.76 298.667 298.667zm-170.667 0h85.333c0-117.76-95.573-213.333-213.333-213.333v85.333c70.613 0 128 57.387 128 128z"/></svg>