<svg xmlns="http://www.w3.org/2000/svg" viewBox="0 0 1024.2139892578125 762.2389526367188"><path d="M277.333 106.667L512 341.334 810.667 42.667 768 0 512 256 320 64h149.333V0h-256v256h64V106.667zm734.08 476.586C881.493 459.733 705.493 384 512 384S142.507 459.733 12.587 583.253C4.694 591.146 0 601.813 0 613.546s4.693 22.4 12.587 30.08l105.6 105.813c7.68 7.68 18.347 12.587 30.293 12.587 11.52 0 22.187-4.693 29.867-12.16 33.707-31.36 72.107-58.027 113.707-79.147 14.08-7.04 23.893-21.547 23.893-38.4v-132.48C377.6 479.999 443.52 469.332 512 469.332s134.4 10.667 196.267 30.72v132.48c0 16.853 9.813 31.36 23.893 38.4 41.6 20.907 80 47.573 113.707 79.147 7.68 7.467 18.133 12.16 29.867 12.16s22.4-4.693 30.293-12.587l105.6-105.813c7.68-7.68 12.587-18.347 12.587-30.08s-4.907-22.613-12.8-30.507z"/></svg>