<svg xmlns="http://www.w3.org/2000/svg" viewBox="0 0 519.7760009765625 754.0799560546875"><path d="M354.497 438.112l-249.409-144c-30.592-17.696-69.76-7.2-87.424 23.392-17.664 30.624-7.168 69.76 23.424 87.424l249.376 144c30.624 17.696 69.76 7.2 87.424-23.424 17.728-30.592 7.232-69.728-23.392-87.392zM148.799 282.4l193.984 112 65.984-183.616-133.952-77.312L148.799 282.4zM5.791 754.08l185.568-225.408-83.136-48L5.791 754.08zm483.137-644.832l-166.24-96C299.712 0 270.368 7.84 257.12 30.816c-13.28 22.976-5.376 52.32 17.568 65.568l166.272 96c22.976 13.248 52.32 5.408 65.568-17.568s5.376-52.32-17.6-65.568z"/></svg>