<svg xmlns="http://www.w3.org/2000/svg" viewBox="0 0 827.3410034179688 1044.68603515625"><path d="M331.52 697.908c-26.93 141.005-59.75 276.173-157.082 346.778-30.003-213.094 44.083-373.094 78.541-542.976-58.726-98.816 7.066-297.574 130.816-248.576 152.32 60.211-131.89 367.206 58.88 405.606 199.22 39.987 280.525-345.6 156.98-470.989C421.222 6.605 80.18 183.501 122.163 442.83c10.19 63.386 75.674 82.586 26.163 170.086C34.1 587.622 0 497.51 4.403 377.395c7.066-196.608 176.59-334.182 346.675-353.28C566.17 0 768.051 103.117 795.955 305.408c31.386 228.403-97.075 475.802-327.117 457.984-62.362-4.864-88.474-35.789-137.318-65.485z"/></svg>