<svg xmlns="http://www.w3.org/2000/svg" viewBox="0 0 966.5400390625 966.5379638671875"><path d="M966.54 282.5L876.034 192 697.288 370.752l-101.5-101.502L774.538 90.5 684.038 0l-178.75 178.75L390.54 64l-86.626 86.624 512.002 512 86.624-86.622L787.788 461.25 966.54 282.5zM736.58 673.79L292.757 229.966C196.938 344.87 88.237 522.42 163.36 675.182L31.112 807.43C0 838.544 0 889.454 31.112 920.566l14.858 14.858c31.114 31.114 82.026 31.114 113.138 0L291.354 803.18c152.764 75.132 330.318-33.566 445.226-129.39z"/></svg>