<svg xmlns="http://www.w3.org/2000/svg" viewBox="0 0 1024 896"><path d="M800 128c-10.624 0-21.124.75-31.584 2.25C708.668 48.834 614.377 0 512 0S315.377 48.834 255.584 130.25c-10.46-1.5-20.96-2.25-31.584-2.25C100.5 128 0 228.5 0 352s100.5 224 224 224c27.376 0 54.168-5 79.418-14.666C361.332 611.834 435 640 512 640c77.084 0 150.666-28.166 208.582-78.666C745.832 571 772.624 576 800 576c123.5 0 224-100.5 224-224S923.5 128 800 128zM448 832c0 35.376 28.624 64 64 64s64-28.624 64-64-64-128-64-128-64 92.624-64 128z"/></svg>