<svg xmlns="http://www.w3.org/2000/svg" viewBox="0 0 1024 897.7680053710938"><path d="M256 513.768c0-35.346 28.654-64 64-64s64 28.654 64 64c0 35.346-28.654 64-64 64s-64-28.654-64-64zm384 0c0-35.346 28.654-64 64-64s64 28.654 64 64c0 35.346-28.654 64-64 64s-64-28.654-64-64zm3.112 136.778c16.482-12.986 40.376-10.154 53.364 6.332s10.152 40.378-6.334 53.366C644.247 746.402 574.32 769.768 512 769.768c-62.322 0-132.248-23.366-178.144-59.522-16.486-12.99-19.32-36.882-6.332-53.368 12.99-16.482 36.882-19.318 53.366-6.332 26.422 20.818 78.722 43.222 131.11 43.222s104.688-22.404 131.112-43.222zM1024 385.768c0-70.692-57.308-128-128-128-48.116 0-89.992 26.57-111.852 65.82-65.792-35.994-145.952-59.246-233.28-64.608L627.25 87.454l146.194 42.2c13.153 37.342 48.718 64.114 90.556 64.114 53.02 0 96-42.98 96-96s-42.98-96-96-96c-36.56 0-68.342 20.442-84.554 50.514L616.54 5.258C598.316 0 579.002 8.98 571.288 26.31l-103.77 233.026c-85.138 5.996-163.262 29.022-227.636 64.236-21.864-39.25-63.765-65.804-111.882-65.804-70.692 0-128 57.308-128 128 0 52.312 31.402 97.254 76.372 117.102C68.302 526.898 64 551.974 64 577.768c0 176.73 200.576 320 448 320 247.422 0 448-143.27 448-320 0-25.792-4.3-50.862-12.368-74.886 44.97-19.85 76.368-64.802 76.368-117.114zm-160-324c19.882 0 36 16.118 36 36s-16.118 36-36 36-36-16.118-36-36 16.118-36 36-36zm-800 324c0-35.29 28.71-64 64-64 25.508 0 47.572 15.004 57.846 36.646-33.448 25.366-61.166 54.626-81.666 86.738C80.656 435.682 64 412.64 64 385.768zm448 436c-205.45 0-372-109.242-372-244s166.55-244 372-244 372 109.242 372 244-166.55 244-372 244zm407.82-376.616c-20.5-32.112-48.218-61.372-81.666-86.738 10.276-21.642 32.338-36.646 57.846-36.646 35.29 0 64 28.71 64 64 0 26.872-16.656 49.914-40.18 59.384z"/></svg>