<svg xmlns="http://www.w3.org/2000/svg" viewBox="0 0 1024.2149658203125 804.6929321289062"><path d="M1011.413 625.92C881.493 502.4 705.493 426.667 512 426.667S142.507 502.4 12.587 625.92C4.694 633.6 0 644.48 0 656.213s4.693 22.4 12.587 30.08l105.6 105.6c7.68 7.68 18.347 12.587 30.08 12.587 11.52 0 22.187-4.693 29.867-12.16 33.92-31.36 72.107-58.027 113.707-78.933 14.08-7.04 23.893-21.547 23.893-38.4v-132.48C377.601 522.667 443.521 512 512.001 512s134.4 10.667 196.267 30.72V675.2c0 16.853 9.813 31.36 23.893 38.4 41.6 20.907 80 47.573 113.707 78.933 7.68 7.467 18.133 12.16 29.867 12.16s22.4-4.693 30.293-12.587l105.6-105.6c7.68-7.68 12.587-18.347 12.587-30.08-.213-11.947-4.907-22.827-12.8-30.507zM902.827 181.547l-60.373-60.373-151.893 151.893 60.373 60.373s147.2-150.187 151.893-151.893zM554.667 0h-85.333v213.333h85.333V0zm-281.6 333.44l60.373-60.373-151.893-151.893-60.373 60.373c4.693 1.707 151.893 151.893 151.893 151.893z"/></svg>