<svg xmlns="http://www.w3.org/2000/svg" viewBox="0 0 731.4310913085938 804.5740966796875"><path d="M596.001 249.716q0-57.143-37.143-92.571t-97.714-35.429H278.288v256h182.857q60.571 0 97.714-35.429t37.142-92.571zm135.43 0q0 110.286-72.287 180t-186.57 69.714H278.286v67.429h288.572q8 0 13.143 5.143t5.143 13.143v73.143q0 8-5.143 13.143t-13.143 5.143h-288.57v109.714q0 8-5.43 13.143t-12.857 5.143h-95.429q-8 0-13.143-5.143t-5.143-13.143V676.574h-128q-8 0-13.143-5.143T0 658.288v-73.143q0-8 5.143-13.143t13.143-5.143h128V499.43h-128q-8 0-13.143-5.143T0 481.144v-85.143q0-7.429 5.143-12.857t13.143-5.429h128V18.286q0-8 5.143-13.143T164.572 0h308q114.286 0 186.571 69.714t72.286 180z"/></svg>