<svg xmlns="http://www.w3.org/2000/svg" viewBox="0 0 1077.2479248046875 1098.14404296875"><path d="M5.76 741.76l356.383 356.384s85.088-201.952-34.656-321.696C209.056 658.016 5.76 741.76 5.76 741.76zm956 28.32L780.768 951.072l22.624 22.624 180.991-180.992-22.624-22.624zm90.496 45.248L848.64 611.648c-24.992-24.928-65.568-24.928-90.496 0l-17.856 17.856-49.92-49.92 89.504-89.504c24.992-24.992 22.176-68.352-2.816-93.344L666.752 286.432c-24.992-24.992-65.504-24.992-90.496 0L494.88 364.96 452 322.08l2.912-2.88c24.992-24.992 24.992-65.536 0-90.528L251.263 24.992C226.271 0 185.759 0 160.735 24.992L24.992 160.768C0 185.76 0 226.304 24.992 251.296L228.64 454.944c24.992 24.992 65.504 24.992 90.528 0l44.512-44.512 44.096 44.48-81.888 81.888c-24.992 24.992-15.552 164.096-15.552 164.096l55.136 55.136s139.072 9.44 164.064-15.552l70.848-70.816 49.92 49.92-27.968 27.968c-24.992 24.992-24.992 65.504 0 90.496l203.68 203.616c24.992 24.992 65.504 24.992 90.496 0l135.744-135.744c24.992-25.088 24.992-65.6 0-90.592zM47.616 183.392L183.392 47.616c12.48-12.512 32.736-12.512 45.248 0L47.616 228.64c-12.512-12.48-12.512-32.768 0-45.248zm22.624 67.872L251.263 70.24l22.624 22.624L92.863 273.888l-22.624-22.624zm45.248 45.248l181.024-181.024 22.624 22.656-180.993 180.992-22.656-22.624zm45.28 45.28L341.76 160.768l22.656 22.624-181.024 181.024-22.624-22.624zm45.248 45.248L387.04 206.016l22.624 22.624L228.64 409.664l-22.624-22.624zm90.496 45.248c-12.48 12.512-32.736 12.512-45.248 0l181.024-181.024c12.512 12.512 12.512 32.768 0 45.248L296.512 432.288zm90.304 169.792l-16.96-16.992 233.92-233.92 16.992 16.96L386.816 602.08zm258.144 168l135.808-135.808c12.512-12.448 32.736-12.448 45.248 0L644.96 815.328c-12.512-12.512-12.512-32.736 0-45.248zm384.672 113.12l-135.744 135.744c-12.512 12.512-32.736 12.512-45.248 0L712.863 883.168l180.992-180.992-22.624-22.624-181.055 180.992-22.624-22.624 181.056-181.056L1029.6 837.92c12.544 12.544 12.544 32.8.032 45.28zm-22.624-67.872L826.016 996.32l22.624 22.624 180.992-180.992-22.624-22.624zm-90.496-90.496L735.52 905.824l22.624 22.624 180.992-180.992-22.624-22.624z"/></svg>