<svg xmlns="http://www.w3.org/2000/svg" viewBox="0 0 682.666015625 938.6669921875"><path d="M128 938.667h85.333v-85.333H128v85.333zm170.666 0H384v-85.333h-85.333v85.333zM384 0h-85.333v426.667H384V0zm152.106 103.894l-61.653 61.653c73.6 45.013 122.88 125.867 122.88 218.453 0 141.44-114.56 256-256 256s-256-114.56-256-256c0-92.587 49.28-173.44 122.88-218.453l-61.653-61.653C58.027 165.547 0 267.947 0 384.001c0 188.587 152.747 341.333 341.333 341.333s341.333-152.747 341.333-341.333c0-116.053-58.027-218.453-146.56-280.107zm-66.773 834.773h85.333v-85.333h-85.333v85.333z"/></svg>