<svg xmlns="http://www.w3.org/2000/svg" viewBox="0 0 1024 1024"><path d="M864 704c-45.16 0-85.92 18.738-115.012 48.83L317.984 537.328C319.298 529.076 320 520.622 320 512s-.702-17.076-2.016-25.326l431.004-215.502C778.08 301.262 818.84 320 864 320c88.366 0 160-71.634 160-160S952.366 0 864 0 704 71.634 704 160c0 8.622.704 17.076 2.016 25.326L275.012 400.83C245.92 370.74 205.16 352 160 352 71.634 352 0 423.636 0 512c0 88.368 71.634 160 160 160 45.16 0 85.92-18.738 115.012-48.828l431.005 215.502A161.12 161.12 0 0 0 704 864c0 88.368 71.634 160 160 160s160-71.632 160-160c0-88.364-71.634-160-160-160z"/></svg>