<svg xmlns="http://www.w3.org/2000/svg" viewBox="0 0 1148.576904296875 1024.001953125"><path d="M1024.003 888.573q10.857-10.857 25.714-10.857t25.714 10.857l73.143 73.143-51.43 51.429-47.428-47.429-47.43 47.429q-10.285 10.857-25.713 10.857t-25.714-10.857l-47.43-47.429-47.428 47.429q-10.857 10.857-25.714 10.857t-25.714-10.857l-47.43-47.429-47.428 47.429q-10.857 10.857-25.714 10.857t-25.714-10.857l-47.43-47.429-47.428 47.429q-10.857 10.857-25.714 10.857T512 1013.145l-47.43-47.429-47.428 47.429q-10.857 10.857-25.714 10.857t-25.714-10.857l-47.43-47.429-47.428 47.429q-10.857 10.857-25.714 10.857t-25.714-10.857l-47.43-47.429-47.428 47.429q-10.857 10.857-25.714 10.857t-25.714-10.857L0 940.002l51.429-51.429 47.429 47.429 47.429-47.429q10.857-10.857 25.714-10.857t25.714 10.857l47.429 47.429 47.429-47.429q10.857-10.857 25.714-10.857T344 888.573l47.429 47.429 47.429-47.429q10.857-10.857 25.714-10.857t25.714 10.857l47.429 47.429 47.429-47.429q10.857-10.857 25.714-10.857t25.714 10.857l47.429 47.429 47.429-47.429q10.857-10.857 25.714-10.857t25.714 10.857l47.429 47.429 47.429-47.429q10.857-10.857 25.714-10.857t25.714 10.857l47.429 47.429zm-899.428-21.714q-10.857 10.857-25.714 10.857t-25.714-10.857L.004 793.716l51.429-51.429 47.429 46.857 47.429-46.857q10.857-10.857 25.714-10.857t25.714 10.857l47.429 46.857 36.57-36.571V585.144l-120-179.429q-9.713-14.857-4-32.286t22.858-23.143l101.143-33.143V146.286h73.143V73.143h146.286V0h146.286v73.143H793.72v73.143h73.143v170.857l101.143 33.143q17.143 5.714 22.857 23.143t-4 32.286l-120 179.429v167.429l10.857-10.286q10.857-10.857 25.714-10.857t25.714 10.857l47.429 46.857 47.429-46.857q10.857-10.857 25.714-10.857t25.714 10.857l73.143 73.143-51.43 51.429-47.428-47.429-47.43 47.429q-10.285 10.857-25.713 10.857t-25.714-10.857l-47.43-47.429-47.428 47.429q-10.857 10.857-25.714 10.857t-25.714-10.857l-47.43-47.429-47.428 47.429q-10.857 10.857-25.714 10.857t-25.714-10.857l-47.43-47.429-47.428 47.429q-10.857 10.857-25.714 10.857t-25.714-10.857l-47.43-47.429-47.428 47.429q-10.857 10.857-25.714 10.857t-25.714-10.857l-47.43-47.429-47.428 47.429q-10.857 10.857-25.714 10.857t-25.714-10.857l-47.43-47.429zM354.86 219.431v73.143l219.429-73.143 219.429 73.143v-73.143h-73.143v-73.143H428.004v73.143H354.86z"/></svg>