<svg xmlns="http://www.w3.org/2000/svg" viewBox="0 0 938.670654296875 809.81298828125"><path d="M691.626 297.813l-186.88-279.68C496.639 5.76 482.986 0 469.333 0s-27.307 5.973-35.413 18.133l-186.88 279.68H42.667C19.2 297.813 0 317.013 0 340.48c0 4.053.64 7.893 1.493 11.52l108.16 395.52c10.027 35.84 43.093 62.293 82.347 62.293h554.667c39.253 0 72.32-26.453 82.133-62.507l108.16-395.52a38.057 38.057 0 0 0 1.707-11.307c0-23.467-19.2-42.667-42.667-42.667H691.627zm-350.293 0l128-187.733 128 187.733h-256zm128 341.333c-47.147 0-85.333-38.187-85.333-85.333s38.187-85.333 85.333-85.333 85.333 38.187 85.333 85.333-38.187 85.333-85.333 85.333z"/></svg>