<svg xmlns="http://www.w3.org/2000/svg" viewBox="0 0 1024 1024"><path d="M652.084 887.376l-36-20.752c1.084-6.248 1.914-12.622 1.914-19.248 0-6.624-.83-13-1.998-19.25l36.084-20.792c16.834-9.834 22.582-31.458 12.916-48.208-9.752-16.958-31.334-22.75-48.25-13l-36.376 21c-9.752-8.292-20.75-14.792-33-19.208v-41.792c0-19.542-15.876-35.376-35.376-35.376s-35.334 15.834-35.334 35.376v41.75c-12.25 4.376-23.292 10.958-33.042 19.25l-36.292-21c-16.958-9.75-38.582-4-48.332 12.958-9.75 16.834-3.876 38.5 13 48.252l35.918 20.75c-1.168 6.292-1.918 12.668-1.918 19.292 0 6.626.75 13 1.918 19.248L372 887.376c-16.918 9.75-22.75 31.5-13 48.376s31.376 22.624 48.25 12.876l36.334-20.876c9.748 8.25 20.792 14.75 33.082 19.124v41.876C476.666 1008.25 492.5 1024 512 1024s35.376-15.75 35.376-35.248v-41.876c12.25-4.376 23.376-10.876 33.042-19.25l36.334 21c16.916 9.75 38.498 4 48.25-12.876 9.748-16.874 3.998-38.5-12.918-48.374zM512 882.75c-19.5 0-35.376-15.876-35.376-35.376S492.5 812.082 512 812.082s35.332 15.792 35.332 35.292S531.5 882.75 512 882.75zM800 128c-10.624 0-21.124.75-31.584 2.25C708.667 48.834 614.377 0 512 0S315.377 48.834 255.584 130.25c-10.46-1.5-20.96-2.25-31.584-2.25C100.5 128 0 228.5 0 352s100.5 224 224 224c27.376 0 54.168-5 79.418-14.666C361.332 611.834 435 640 512 640c77.084 0 150.666-28.166 208.582-78.666C745.832 571 772.624 576 800 576c123.5 0 224-100.5 224-224S923.5 128 800 128z"/></svg>