<svg xmlns="http://www.w3.org/2000/svg" viewBox="0 0 1024.0009765625 448"><path d="M891.96 194.204c-18.086 0-35.348 3.52-51.064 9.856C830.39 89.702 730.607 0 608.897 0c-29.786 0-58.682 5.63-84.318 15.164-9.96 3.702-12.578 7.52-12.578 14.916v402.714c0 7.766 6.24 14.234 14.124 14.996.336.034 363.536.21 365.89.21 72.904 0 131.986-56.816 131.986-126.894s-59.134-126.902-132.04-126.902zM400 448h32l16-224.22L432 0h-32l-16 223.78zm-96 0h-32l-16-162.75L272 128h32l16 160zm-160 0h32l16-128-16-128h-32l-16 128zM16 384h32l16-64-16-64H16L0 320z"/></svg>