<svg xmlns="http://www.w3.org/2000/svg" viewBox="0 0 1024.0008544921875 1024"><path d="M.042 513.618l-.022.004.028.222c.11 3.878.55 7.676 1.322 11.352l.674 5.774c.222 1.886.46 3.914.718 6.078l1.19 8.176c.856 5.746 1.8 12.124 2.908 18.958 1.348 6.446 2.804 13.414 4.364 20.864.71 3.718 1.776 7.504 2.786 11.406l3.16 12.004c.566 2.042 1.04 4.132 1.708 6.208.656 2.074 1.32 4.176 1.988 6.3 1.348 4.234 2.726 8.566 4.136 12.988.352 1.106.708 2.21 1.064 3.324.408 1.102.814 2.208 1.226 3.316.826 2.218 1.658 4.458 2.502 6.714 1.696 4.496 3.422 9.078 5.18 13.742l6.004 13.934 3.078 7.098c1.048 2.376 2.27 4.704 3.408 7.074l7.062 14.332c2.47 4.786 5.208 9.512 7.846 14.328 1.336 2.398 2.68 4.808 4.028 7.23 1.368 2.41 2.902 4.75 4.356 7.14l8.934 14.348c12.64 18.894 26.676 37.566 42.21 55.278a529.943 529.943 0 0 0 50.692 49.602 524.956 524.956 0 0 0 56.726 41.114c19.604 12.036 39.644 22.312 59.376 31.144l14.878 6.066c2.462.972 4.868 2.032 7.336 2.918l7.376 2.594c4.898 1.684 9.678 3.468 14.484 4.992 4.832 1.43 9.604 2.844 14.312 4.242 2.356.672 4.66 1.426 7.004 2.012 2.346.574 4.676 1.14 6.986 1.704 4.606 1.118 9.142 2.214 13.604 3.296 4.5.868 8.926 1.722 13.27 2.558 2.166.41 4.31.82 6.434 1.222 1.062.2 2.118.398 3.166.598 1.06.148 2.118.292 3.166.442l12.3 1.71c1.998.274 3.972.546 5.922.816 1.946.286 3.904.378 5.814.57 3.822.336 7.544.664 11.164.98 3.616.304 7.104.688 10.526.738.23.008.452.016.682.026.614 34.812 29.008 62.846 63.968 62.846.542 0 1.08-.028 1.62-.042v.022l.224-.028c3.878-.11 7.674-.55 11.35-1.322l5.776-.672 6.076-.718c2.566-.376 5.292-.772 8.176-1.192 5.746-.856 12.124-1.8 18.958-2.908l20.864-4.362c3.718-.712 7.504-1.778 11.406-2.786l12.004-3.162c2.044-.566 4.132-1.04 6.208-1.708 2.074-.656 4.174-1.318 6.3-1.988L633.037 999l3.324-1.066c1.1-.406 2.206-.814 3.316-1.226a7732.39 7732.39 0 0 0 6.714-2.5c4.496-1.698 9.078-3.424 13.74-5.182l13.936-6.004 7.098-3.078c2.376-1.048 4.702-2.27 7.074-3.408 4.714-2.322 9.494-4.678 14.33-7.062 4.786-2.47 9.512-5.208 14.328-7.846l7.23-4.028c2.41-1.366 4.75-2.9 7.14-4.354 4.738-2.952 9.524-5.93 14.35-8.936 18.89-12.64 37.564-26.674 55.278-42.21 17.574-15.712 34.248-32.726 49.602-50.69a524.687 524.687 0 0 0 41.112-56.728c12.036-19.602 22.314-39.644 31.142-59.376 2.042-5.002 4.062-9.964 6.068-14.878.974-2.462 2.032-4.868 2.918-7.334.87-2.472 1.732-4.932 2.592-7.376 1.686-4.898 3.468-9.678 4.994-14.484l4.24-14.31c.674-2.358 1.43-4.66 2.016-7.004.57-2.348 1.138-4.676 1.702-6.988 1.118-4.606 2.216-9.14 3.296-13.602l2.558-13.272 1.222-6.434.596-3.164.444-3.168 1.708-12.3c.278-1.996.55-3.97.82-5.922.284-1.946.376-3.902.568-5.812.336-3.822.664-7.546.98-11.164.304-3.616.686-7.106.738-10.528.02-.534.04-1.044.058-1.574 35.224-.146 63.732-28.738 63.732-63.992 0-.542-.028-1.08-.042-1.62h.022l-.028-.224a64.042 64.042 0 0 0-1.322-11.35l-.674-5.776c-.222-1.886-.46-3.914-.718-6.076l-1.19-8.176c-.856-5.746-1.8-12.124-2.908-18.958-1.348-6.444-2.804-13.414-4.364-20.862-.71-3.72-1.776-7.506-2.786-11.408l-3.16-12.002c-.566-2.044-1.04-4.134-1.708-6.208-.656-2.076-1.32-4.174-1.988-6.3-1.348-4.234-2.726-8.566-4.136-12.99l-1.064-3.324c-.408-1.1-.814-2.206-1.226-3.316-.826-2.216-1.658-4.454-2.502-6.714-1.696-4.498-3.422-9.08-5.18-13.74l-6.004-13.936c-1.02-2.348-2.044-4.714-3.078-7.098-1.048-2.376-2.27-4.702-3.408-7.076-2.322-4.714-4.678-9.494-7.062-14.33-2.47-4.786-5.208-9.512-7.846-14.328-1.336-2.398-2.68-4.808-4.028-7.23-1.368-2.41-2.902-4.75-4.356-7.14l-8.934-14.35c-12.64-18.892-26.676-37.564-42.21-55.278-15.712-17.576-32.726-34.25-50.692-49.602a524.664 524.664 0 0 0-56.726-41.112c-19.604-12.036-39.644-22.314-59.376-31.142-5.004-2.04-9.964-4.062-14.878-6.068-2.462-.974-4.868-2.032-7.336-2.918-2.47-.87-4.93-1.734-7.376-2.592-4.898-1.684-9.678-3.468-14.484-4.994l-14.312-4.242c-2.356-.672-4.66-1.428-7.004-2.014-2.346-.572-4.676-1.138-6.986-1.702-4.606-1.118-9.142-2.216-13.604-3.298l-13.27-2.558c-2.166-.412-4.31-.82-6.434-1.222l-3.166-.596-3.166-.442c-4.192-.584-8.292-1.154-12.3-1.71l-5.922-.82c-1.946-.284-3.904-.376-5.814-.57-3.822-.336-7.544-.664-11.164-.98-3.616-.304-7.104-.686-10.526-.738l-2.512-.092C574.402 27.998 546.024 0 511.087 0c-.542 0-1.08.028-1.62.042l-.002-.022-.222.028c-3.878.11-7.676.55-11.352 1.322l-5.776.672-6.076.718c-2.566.376-5.292.772-8.176 1.192-5.746.856-12.124 1.8-18.958 2.908l-20.864 4.362c-3.718.712-7.504 1.778-11.406 2.786l-12.004 3.162c-2.044.566-4.132 1.04-6.208 1.708-2.074.656-4.174 1.318-6.3 1.988L389.134 25l-3.324 1.066c-1.1.406-2.206.814-3.316 1.226a7732.39 7732.39 0 0 0-6.714 2.5c-4.496 1.698-9.078 3.424-13.74 5.182l-13.936 6.004-7.098 3.078c-2.376 1.048-4.702 2.27-7.074 3.408-4.714 2.322-9.494 4.678-14.33 7.062-4.786 2.47-9.512 5.208-14.328 7.846l-7.23 4.028c-2.41 1.366-4.75 2.9-7.14 4.354-4.738 2.952-9.524 5.93-14.35 8.936-18.89 12.64-37.564 26.674-55.278 42.21-17.574 15.712-34.248 32.726-49.602 50.69a524.687 524.687 0 0 0-41.112 56.728c-12.036 19.602-22.314 39.644-31.142 59.376-2.042 5.002-4.062 9.964-6.068 14.878-.974 2.462-2.032 4.868-2.918 7.334-.87 2.472-1.732 4.932-2.592 7.376-1.686 4.898-3.468 9.678-4.994 14.484l-4.24 14.31c-.674 2.358-1.43 4.66-2.016 7.004-.57 2.348-1.138 4.676-1.702 6.988-1.118 4.606-2.216 9.14-3.296 13.602l-2.558 13.272-1.222 6.434-.596 3.164a2048.04 2048.04 0 0 1-.444 3.168l-1.708 12.3c-.278 1.996-.55 3.97-.82 5.922-.284 1.946-.376 3.902-.568 5.812-.336 3.822-.664 7.546-.98 11.164-.304 3.616-.686 7.106-.738 10.528-.02.548-.04 1.076-.058 1.62C27.526 449.166 0 477.358 0 512c0 .542.028 1.078.042 1.618zm73.476-64.912c.042-.196.086-.384.128-.58.644-3.248 1.632-6.542 2.556-9.942l2.88-10.454c.516-1.78.934-3.602 1.546-5.406.596-1.802 1.202-3.628 1.81-5.476l3.736-11.294c.316-.958.634-1.924.956-2.892.37-.954.74-1.914 1.114-2.876l2.26-5.83 4.646-11.93 5.392-12.08 2.746-6.156c.932-2.06 2.036-4.072 3.052-6.126l6.294-12.412c2.202-4.142 4.654-8.224 6.998-12.392l3.57-6.256c1.21-2.086 2.586-4.102 3.876-6.166l7.918-12.402c11.234-16.298 23.632-32.398 37.33-47.638a466.583 466.583 0 0 1 44.598-42.548 460.908 460.908 0 0 1 49.676-35.022c17.13-10.194 34.6-18.838 51.734-26.258 4.35-1.7 8.662-3.382 12.934-5.05 2.136-.812 4.216-1.71 6.36-2.444 2.146-.714 4.28-1.428 6.404-2.136 4.25-1.386 8.382-2.888 12.548-4.142 4.184-1.174 8.314-2.332 12.392-3.474 2.038-.55 4.026-1.19 6.054-1.662 2.03-.458 4.044-.914 6.044-1.368l11.748-2.688 11.462-2.022c1.868-.33 3.716-.658 5.546-.98l2.728-.484 2.734-.332c3.612-.448 7.148-.882 10.604-1.31 1.72-.216 3.422-.432 5.102-.644 1.674-.226 3.364-.266 5.01-.408 3.292-.238 6.498-.472 9.616-.7 3.11-.218 6.11-.524 9.058-.508 5.848-.132 11.32-.256 16.38-.372 4.664.168 8.948.324 12.818.462l5.432.156 5.958.378c2.13.138 4.06.266 5.82.38 3.256.51 6.592.782 9.99.782.466 0 .93-.026 1.396-.036l.224.014v-.02c31.14-.778 56.75-23.784 61.556-53.754l1.612.356c3.246.644 6.542 1.632 9.942 2.556 3.386.934 6.876 1.894 10.454 2.88 1.778.516 3.602.934 5.404 1.546 1.802.596 3.63 1.202 5.478 1.812l11.292 3.736c.96.316 1.924.634 2.892.956l2.876 1.112 5.83 2.26 11.932 4.646 12.08 5.392 6.156 2.746c2.06.932 4.072 2.036 6.126 3.054l12.41 6.294c4.144 2.202 8.226 4.654 12.394 6.998 2.074 1.184 4.16 2.374 6.256 3.572 2.086 1.21 4.102 2.586 6.166 3.876 4.098 2.616 8.23 5.256 12.402 7.918 16.296 11.234 32.398 23.632 47.636 37.33 15.104 13.874 29.406 28.842 42.55 44.598a460.888 460.888 0 0 1 35.02 49.676c10.196 17.13 18.84 34.6 26.26 51.736l5.05 12.932c.812 2.136 1.71 4.216 2.444 6.36.714 2.146 1.428 4.28 2.136 6.404 1.386 4.25 2.888 8.384 4.142 12.548 1.174 4.184 2.33 8.316 3.474 12.392.55 2.038 1.19 4.026 1.66 6.054l1.368 6.046c.91 3.978 1.808 7.896 2.688 11.748.688 3.888 1.362 7.71 2.024 11.462l.98 5.548.484 2.728c.11.916.222 1.828.332 2.734.446 3.612.882 7.148 1.31 10.604.216 1.72.432 3.42.642 5.1.226 1.674.268 3.364.41 5.01.238 3.292.472 6.498.7 9.616.218 3.11.524 6.11.508 9.058.132 5.848.256 11.32.372 16.38-.168 4.664-.324 8.948-.462 12.818l-.156 5.432-.378 5.958c-.138 2.13-.266 4.06-.38 5.82A66.04 66.04 0 0 0 896 512c0 .468.026.93.036 1.396-.008.132-.016.224-.016.224h.022c.768 30.766 23.236 56.128 52.682 61.37l-.198.884c-.644 3.248-1.632 6.542-2.556 9.942l-2.88 10.454c-.516 1.78-.934 3.602-1.546 5.406-.596 1.802-1.202 3.628-1.81 5.476l-3.736 11.294c-.316.958-.634 1.924-.956 2.892-.37.954-.74 1.914-1.114 2.876l-2.26 5.83-4.646 11.93-5.392 12.08-2.746 6.156c-.932 2.06-2.036 4.072-3.052 6.126l-6.294 12.412c-2.202 4.142-4.654 8.224-6.998 12.392l-3.57 6.256c-1.21 2.086-2.586 4.102-3.876 6.166l-7.918 12.402c-11.234 16.298-23.632 32.398-37.33 47.638a466.583 466.583 0 0 1-44.598 42.548 460.908 460.908 0 0 1-49.676 35.022c-17.13 10.194-34.6 18.838-51.734 26.258-4.35 1.7-8.662 3.382-12.934 5.05-2.136.812-4.216 1.71-6.36 2.444-2.146.714-4.28 1.428-6.404 2.136-4.25 1.386-8.382 2.888-12.548 4.142-4.184 1.174-8.314 2.332-12.392 3.474-2.038.55-4.026 1.19-6.054 1.662-2.03.458-4.044.914-6.044 1.368l-11.748 2.688-11.462 2.022c-1.868.33-3.716.658-5.546.98l-2.728.484-2.734.332c-3.612.448-7.148.882-10.604 1.31-1.72.216-3.422.432-5.102.644-1.674.226-3.364.266-5.01.408-3.292.238-6.498.472-9.616.7-3.11.218-6.11.524-9.058.508-5.848.132-11.32.256-16.38.372-4.664-.168-8.948-.324-12.818-.462l-5.432-.156-5.958-.378c-2.13-.138-4.06-.266-5.82-.38a64.519 64.519 0 0 0-9.99-.782c-.466 0-.93.026-1.396.036l-.224-.014v.02c-31.004.774-56.524 23.586-61.488 53.364-3.2-.64-6.446-1.61-9.792-2.522-3.386-.934-6.876-1.894-10.454-2.878-1.778-.516-3.602-.938-5.404-1.546-1.802-.598-3.63-1.204-5.478-1.812-3.68-1.218-7.448-2.464-11.292-3.738-.96-.316-1.924-.632-2.892-.954-.956-.372-1.914-.742-2.876-1.114-1.926-.746-3.868-1.5-5.83-2.258-3.904-1.524-7.884-3.07-11.932-4.648-3.96-1.77-7.988-3.566-12.08-5.39l-6.156-2.746c-2.06-.934-4.072-2.036-6.126-3.054l-12.41-6.296c-4.144-2.2-8.226-4.652-12.394-6.996-2.074-1.184-4.16-2.376-6.256-3.57-2.086-1.21-4.102-2.586-6.166-3.878-4.098-2.614-8.23-5.254-12.402-7.918-16.296-11.23-32.398-23.632-47.636-37.328-15.104-13.876-29.406-28.84-42.55-44.598a460.492 460.492 0 0 1-35.02-49.676c-10.196-17.128-18.84-34.602-26.26-51.734a34213 34213 0 0 0-5.05-12.934c-.812-2.136-1.71-4.218-2.444-6.36-.714-2.148-1.428-4.282-2.136-6.406-1.386-4.25-2.888-8.382-4.142-12.546-1.174-4.184-2.33-8.316-3.474-12.394-.55-2.036-1.19-4.024-1.66-6.054l-1.368-6.042c-.91-3.98-1.808-7.898-2.688-11.75-.688-3.886-1.362-7.71-2.024-11.46l-.98-5.546-.484-2.73-.332-2.734c-.446-3.61-.882-7.148-1.31-10.602-.216-1.722-.432-3.422-.642-5.102-.226-1.676-.268-3.364-.41-5.012-.238-3.29-.472-6.496-.7-9.614-.218-3.11-.524-6.11-.508-9.058-.132-5.848-.256-11.32-.372-16.382.168-4.664.324-8.946.462-12.816.054-1.914.108-3.726.156-5.434l.378-5.958c.138-2.128.266-4.058.38-5.82.496-3.26.766-6.596.766-9.994 0-.466-.026-.93-.036-1.396.008-.132.016-.224.016-.224h-.022c-.78-31.38-24.134-57.154-54.44-61.674z"/></svg>