<svg xmlns="http://www.w3.org/2000/svg" viewBox="0 0 1024 969.9920043945312"><path d="M512 969.992c-136.76 0-265.334-53.258-362.04-149.96C53.258 723.326 0 594.752 0 457.992 0 361.154 27.182 266.858 78.606 185.3c50-79.296 120.664-143.372 204.356-185.3l43 85.832c-68.038 34.084-125.492 86.186-166.15 150.67C118.067 302.71 96 379.3 96 457.992c0 229.382 186.618 416 416 416s416-186.618 416-416c0-78.692-22.066-155.282-63.81-221.49-40.66-64.484-98.114-116.584-166.15-150.67L741.04 0c83.692 41.928 154.358 106.004 204.356 185.3C996.818 266.858 1024 361.154 1024 457.992c0 136.76-53.258 265.334-149.96 362.04-96.706 96.702-225.28 149.96-362.04 149.96z"/></svg>