<svg xmlns="http://www.w3.org/2000/svg" viewBox="0 0 864 1024.0001220703125"><path d="M192 0C85.96 0 0 100.288 0 224c0 105.924 63.022 194.666 147.706 217.998l-31.788 518.124C113.764 995.254 140.8 1024 176 1024h32c35.2 0 62.236-28.746 60.082-63.878l-31.788-518.124C320.978 418.666 384 329.924 384 224 384 100.288 298.04 0 192 0zm645.334 0L784 320h-40L717.334 0h-26.667l-26.666 320h-40L570.667 0h-26.666v416c0 17.672 14.326 32 32 32h83.338l-31.42 512.122c-2.154 35.132 24.882 63.878 60.082 63.878h32c35.2 0 62.236-28.746 60.082-63.878L748.662 448H832c17.674 0 32-14.328 32-32V0h-26.666z"/></svg>