<svg xmlns="http://www.w3.org/2000/svg" viewBox="0 0 1024 896"><path d="M768 0C626.615 0 512 83.75 512 186.875 512 310.75 544 381 512 576c0-288-177-405.783-256-405.783 3.267-32.17-30.955-42.217-30.955-42.217s-14 7.124-19.354 21.583c-17.23-20.053-36.154-17.54-36.154-17.54l-8.49 37.081S44 210 42.41 375.416C56 397 141.31 414.102 201.886 403.118c57.157 2.956 42.991 50.648 30.193 63.446C178.083 520.562 128 448 64 448s-64 64 0 64 64 64 192 64c-198 77 0 256 0 256h-64c-64 0-64 64-64 64h384c192 0 320-64 320-222.182 0-54.34-27.699-114.629-64-162.228-70.943-93.023 14.453-171.156 64-127.59s192 64 192-128C1024 114.615 909.385 0 768 0zM160 320c-17.674 0-32-14.327-32-32s14.326-32 32-32c17.673 0 32 14.326 32 32s-14.327 32-32 32z"/></svg>