<svg xmlns="http://www.w3.org/2000/svg" viewBox="0 0 1024 1024"><path d="M303.922 836.01c27.144 0 53.786-13.136 69.972-37.416 25.734-38.602 15.302-90.754-23.298-116.488l-66.074-44.048A134.787 134.787 0 0 1 320 633.302c74.392 0 134.696 60.304 134.696 134.698S394.39 902.698 319.998 902.698c-72.404 0-131.444-57.132-134.548-128.774l71.954 47.968c14.322 9.548 30.506 14.118 46.518 14.118zM853.34 0C947.216 0 1024 76.812 1024 170.688v682.628C1024 947.252 947.216 1024 853.34 1024H170.688C76.812 1024 0 947.25 0 853.318V650.29l121.334 80.888c-11.652 63.174 6.938 130.83 55.798 179.69 78.904 78.904 206.83 78.904 285.736 0 48.468-48.466 67.15-115.43 56.076-178.166L768 509.714c46.248-6.638 90.816-27.744 126.394-63.322 87.476-87.476 87.476-229.306 0-316.784-87.48-87.478-229.308-87.478-316.786 0-35.578 35.578-56.684 80.146-63.322 126.392L309.592 566.23c-31.848 1.632-63.378 10.764-91.726 27.392L0 448.378v-277.69C0 76.812 76.81 0 170.687 0h682.654zM896 288c0-88.366-71.634-160-160-160s-160 71.634-160 160 71.634 160 160 160 160-71.634 160-160zm-256 0c0-53.02 42.98-96 96-96s96 42.98 96 96-42.98 96-96 96-96-42.98-96-96z"/></svg>