<svg xmlns="http://www.w3.org/2000/svg" viewBox="0 0 1024 778.2400512695312"><path d="M565.811 289.741l69.888 33.792 105.421-33.792v-61.133C741.12 102.502 638.31 0 512 0S282.88 102.502 282.88 228.608v321.024c0 29.594-24.166 53.709-53.81 53.709-29.697 0-53.812-24.115-53.812-53.709v-134.4H0v134.4C0 675.635 102.758 778.24 229.12 778.24c126.31 0 229.07-102.605 229.07-228.608V228.608c0-29.594 24.165-53.709 53.861-53.709 29.645 0 53.811 24.115 53.811 53.709v61.133zm282.88 125.491v134.4c0 29.594-24.115 53.709-53.81 53.709s-53.812-24.115-53.812-53.709V412.518l-105.42 33.69-69.889-33.69v137.114c0 126.003 102.81 228.608 229.12 228.608S1024 675.635 1024 549.632v-134.4H848.691z"/></svg>