<svg xmlns="http://www.w3.org/2000/svg" viewBox="0 0 877.715087890625 1024.001953125"><path d="M621.715 0q105.714 0 180.857 53.43t75.143 129.428v512q0 74.286-71.714 126.857t-174.57 55.43l121.713 115.428q9.143 8.571 4.571 20t-17.143 11.43H137.143q-12.57 0-17.143-11.43t4.571-20l121.714-115.429q-102.857-2.857-174.57-55.429T0 694.858v-512q0-76 75.143-129.429T256 0h365.714zM164.572 749.714q37.714 0 64.571-26.857T256 658.287t-26.857-64.572-64.57-26.857-64.572 26.857-26.857 64.571 26.857 64.571 64.571 26.857zm237.716-310.857v-292.57H91.43v292.57h310.858zm310.857 310.857q37.714 0 64.571-26.857t26.857-64.57-26.857-64.572-64.57-26.857-64.572 26.857-26.857 64.571 26.856 64.571 64.571 26.857zm91.427-310.857v-292.57H475.429v292.57h329.143z"/></svg>