<svg xmlns="http://www.w3.org/2000/svg" viewBox="0 0 832 832"><path d="M416 192c-123.5 0-224 100.5-224 224 0 123.498 100.5 224 224 224s224-100.502 224-224c0-123.5-100.5-224-224-224zm0-64c17.666 0 32-14.292 32-32V32c0-17.666-14.334-32-32-32-17.708 0-32 14.334-32 32v64c0 17.708 14.292 32 32 32zm0 576c-17.708 0-32 14.334-32 32v64c0 17.708 14.292 32 32 32 17.666 0 32-14.292 32-32v-64c0-17.666-14.334-32-32-32zm248.834-491.666l45.25-45.25c12.5-12.5 12.5-32.75 0-45.25-12.502-12.5-32.75-12.5-45.25 0l-45.25 45.25c-12.502 12.5-12.502 32.75 0 45.25 12.5 12.498 32.748 12.498 45.25 0zM167.082 619.708l-45.246 45.25c-12.504 12.5-12.504 32.752 0 45.25 12.498 12.5 32.746 12.5 45.246 0l45.25-45.25c12.502-12.582 12.502-32.75 0-45.25-12.498-12.5-32.748-12.584-45.25 0zM128 416c0-17.666-14.334-32-32-32H32c-17.708 0-32 14.334-32 32 0 17.708 14.292 32 32 32h64c17.666 0 32-14.292 32-32zm672-32h-64c-17.708 0-32 14.334-32 32 0 17.708 14.292 32 32 32h64c17.666 0 32-14.292 32-32 0-17.666-14.334-32-32-32zM167.042 212.334c12.498 12.5 32.75 12.5 45.25 0 12.498-12.5 12.498-32.75 0-45.25l-45.25-45.25c-12.5-12.5-32.752-12.5-45.25 0-12.5 12.5-12.5 32.75 0 45.25l45.25 45.25zm497.876 407.29c-12.586-12.5-32.752-12.5-45.25 0-12.5 12.498-12.586 32.75 0 45.25l45.25 45.25c12.498 12.498 32.748 12.498 45.25 0 12.498-12.5 12.498-32.752 0-45.25l-45.25-45.25z"/></svg>