<svg xmlns="http://www.w3.org/2000/svg" viewBox="0 0 1055.33203125 935.885986328125"><path d="M554.596 931.84c-73.165-11.878-139.93-31.078-188.262-47.258-2.355-.768-39.987-14.438-51.558-18.944-14.234-5.478-21.658-22.067-16.23-36.352 4.403-11.52 19.405-48.589 20.43-50.893 20.48-47.104 51.2-110.234 91.903-173.005 1.485 61.594 15.206 122.829 40.5 179.507 24.575 55.142 59.852 105.267 103.218 146.944zm-5.785-603.853C405.912 36.71 88.523 47.104 38.45 177.305 0 277.247 168.242 515.327 555.416 343.398l.205-.102c-1.33-2.406-5.837-12.646-6.81-15.309zm71.014-11.366c.051 0 .102-.051.102-.051C838.602 219.444 808.037 50.791 751.46 29.133 675.326 0 536.932 112.282 615.934 308.019c.768 1.382 3.38 7.168 3.891 8.602zm402.074 213.248c-33.075-74.24-93.85-127.437-164.506-152.781-7.117-2.56-14.387-3.738-21.658-3.738-36.71 0-72.038 30.464-75.366 68.506-5.58 63.437 7.014 128.051 34.816 190.362 27.392 61.389 66.253 113.306 116.224 151.398 13.005 9.933 28.928 14.592 44.8 14.592 28.621 0 57.19-15.155 68.557-42.291 29.235-69.734 30.566-151.194-2.867-226.048zM855.96 855.962c-61.184-46.694-109.67-109.517-144.128-186.675-34.918-78.285-49.203-157.44-42.342-235.315 1.894-21.658 8.243-42.547 18.432-61.645-1.792.461-5.683 1.382-5.837 1.434-32.154 8.038-63.334 21.965-91.034 40.141-40.14 26.317-75.52 65.382-90.726 111.462-4.096 12.442-7.219 26.112-8.243 39.168-4.864 62.362 5.274 126.771 32.563 187.904 26.42 59.136 65.792 108.442 113.306 146.074 28.98 22.886 81.203 37.376 123.904 37.376 40.09 0 79.667-11.93 115.2-29.952 11.11-5.632 35.584-20.89 37.171-21.965-21.248-5.427-41.165-14.95-58.266-28.006z"/></svg>