<svg xmlns="http://www.w3.org/2000/svg" viewBox="0 0 1264.7259521484375 1008.7259521484375"><path d="M1216.726 0h-384c-26.4 0-63.274 15.274-81.942 33.942L274.668 510.058c-18.668 18.668-18.668 49.214 0 67.882l412.118 412.118c18.668 18.668 49.214 18.668 67.882 0l476.118-476.118c18.666-18.666 33.94-55.54 33.94-81.94V48c0-26.4-21.6-48-48-48zm-240 384c-53.02 0-96-42.98-96-96s42.98-96 96-96 96 42.98 96 96-42.98 96-96 96zm-864 160l544-544h-80c-26.4 0-63.274 15.274-81.942 33.942L18.668 510.058C0 528.726 0 559.272 18.668 577.94l412.118 412.118c18.668 18.668 49.214 18.668 67.882 0L528.726 960l-416-416z"/></svg>