<svg xmlns="http://www.w3.org/2000/svg" viewBox="0 0 1024.0009765625 1024"><path d="M1024 448H923.077c-27.64-178.24-168.836-319.436-347.076-347.076V0h-128v100.924C269.76 128.564 128.564 269.76 100.924 448H0v128h100.924C128.564 754.24 269.76 895.436 448 923.076V1024h128V923.076C754.24 895.436 895.437 754.24 923.077 576h100.924V448zm-231.178 0H693.06c-19.284-54.55-62.51-97.778-117.06-117.06v-99.762C683.514 255.668 768.332 340.488 792.822 448zM512 576c-35.346 0-64-28.654-64-64s28.654-64 64-64c35.346 0 64 28.654 64 64s-28.654 64-64 64zm-64-344.822v99.762c-54.55 19.282-97.778 62.51-117.06 117.06h-99.762C255.668 340.488 340.488 255.668 448 231.178zM231.178 576h99.762c19.282 54.55 62.51 97.778 117.06 117.06v99.762C340.488 768.332 255.668 683.514 231.178 576zM576 792.822V693.06c54.55-19.284 97.778-62.51 117.06-117.06h99.762C768.332 683.514 683.514 768.332 576 792.822z"/></svg>