<svg xmlns="http://www.w3.org/2000/svg" viewBox="0 0 417.44000244140625 865.9839477539062"><path d="M319.424 478.208v-29.344h98.016v29.344h-98.016zm0-94.016h98.016v31.328h-98.016v-31.328zm0-62.72h98.016v31.36h-98.016v-31.36zm0-64.704h98.016v31.328l-98.016-1.984v-29.344zm0-66.688h98.016v33.344h-98.016V190.08zm0-62.688h98.016v31.36h-98.016v-31.36zm56.768 550.496c0 103.872-84.224 188.096-188.096 188.096S0 781.76 0 677.888C0 606.656 37.6 544.736 95.968 512.8V94.016C95.968 42.08 140.064 0 192 0s94.048 42.08 94.048 94.016v423.52c54.016 33.088 90.144 92.416 90.144 160.352zM254.72 536.512V94.016c0-34.624-28.064-62.688-62.688-62.688s-62.688 28.064-62.688 62.688v438.752c-57.408 23.296-97.984 79.36-97.984 145.12 0 86.56 70.176 156.736 156.736 156.736S344.8 764.448 344.8 677.888c.032-62.656-36.96-116.256-90.08-141.376zm-66.624 266.784c-69.28 0-125.408-56.16-125.408-125.408 0-59.808 41.952-109.632 97.984-122.176V256.768h62.72v301.376c51.936 15.328 90.112 62.848 90.112 119.744 0 69.248-56.128 125.408-125.408 125.408z"/></svg>