<svg xmlns="http://www.w3.org/2000/svg" viewBox="0 0 819.2000122070312 949.759033203125"><path d="M222.822 595.865c6.81 18.227-181.197 186.061-71.526 322.099 25.651 31.795 112.691-152.32 236.288-235.622C455.731 636.313 614.4 538.419 614.4 484.3V133.99C614.4 68.915 362.803 0 171.622 0 101.529 0 0 439.091 0 508.877c0 69.99 216.115 68.762 222.822 86.989zm442.778-4.864c33.69 0 153.6-20.48 153.6-159.898V182.885C819.2 43.57 699.29 28.21 665.6 28.21c-33.638 0 51.2 29.286 51.2 115.712V470.22c0 90.522-84.838 120.781-51.2 120.781z"/></svg>