<svg xmlns="http://www.w3.org/2000/svg" viewBox="0 0 819.2010498046875 949.759033203125"><path d="M596.378 353.894c-6.81-18.176 181.197-186.061 71.578-322.099C642.307 0 555.267 184.115 431.668 267.469c-68.198 45.978-226.867 143.872-226.867 197.99v350.31c0 65.075 251.597 133.99 442.778 133.99 70.093 0 171.622-439.091 171.622-508.826 0-70.042-216.115-68.813-222.822-87.04zM153.6 358.758c-33.69 0-153.6 20.48-153.6 159.898v248.218c0 139.315 119.91 154.675 153.6 154.675 33.638 0-51.2-29.286-51.2-115.712V479.539c0-90.522 84.838-120.781 51.2-120.781z"/></svg>