<svg xmlns="http://www.w3.org/2000/svg" viewBox="0 0 832.383056640625 821.1199951171875"><path d="M801.696 140.928c30.687 74.016 16.063 162.368-44.129 222.56-66.272 66.272-166.432 76.64-244.288 32.704l-56.288 61.472 40.16 40.32 24-24c12.256-12.288 32.16-12.288 44.416 0l194.624 196.608c12.288 12.256 12.288 32.16 0 44.416l-88.832 88.832c-12.256 12.288-32.16 12.288-44.416 0L432.319 607.232c-12.288-12.256-12.288-32.16 0-44.416l21.92-21.92-38.272-38.368-269.151 294.048c-24.544 24.544-64.32 24.544-88.832 0l-22.208-22.208c-24.544-24.544-24.544-64.32 0-88.832l306.624-256.8-203.648-204.192-64.32-.032L0 104.832l59.904-60 122.4 74.912.8 62.976 206.015 206.816 59.936-50.176c-58.592-79.872-52.479-192.384 19.712-264.576C528.671 14.88 616.543 0 690.367 30.112L558.399 160.256l111.072 111.072 132.224-130.4zM109.438 716.864c-12.256-12.256-32.128-12.256-44.416 0-12.288 12.288-12.288 32.16 0 44.448 12.288 12.256 32.16 12.256 44.416 0 12.288-12.32 12.288-32.192 0-44.448z"/></svg>