<svg xmlns="http://www.w3.org/2000/svg" viewBox="0 0 1024.004150390625 832.1820068359375"><path d="M1024.004 98.51c-37.676 16.708-78.164 28.002-120.66 33.08 43.372-26 76.686-67.17 92.372-116.23-40.596 24.078-85.556 41.56-133.41 50.98C823.986 25.51 769.384 0 708.96 0 592.938 0 498.872 94.058 498.872 210.078c0 16.466 1.858 32.5 5.44 47.878-174.6-8.764-329.402-92.4-433.018-219.506-18.084 31.028-28.446 67.116-28.446 105.618 0 72.888 37.088 137.192 93.46 174.866-34.438-1.092-66.832-10.542-95.154-26.278-.02.876-.02 1.756-.02 2.642 0 101.788 72.418 186.696 168.522 206-17.626 4.8-36.188 7.372-55.348 7.372-13.538 0-26.698-1.32-39.528-3.772 26.736 83.46 104.32 144.206 196.252 145.896-71.9 56.35-162.486 89.934-260.916 89.934-16.958 0-33.68-.994-50.116-2.94 92.972 59.61 203.402 94.394 322.042 94.394 386.422 0 597.736-320.124 597.736-597.744 0-9.108-.206-18.168-.61-27.18 41.056-29.62 76.672-66.62 104.836-108.748z"/></svg>