<svg xmlns="http://www.w3.org/2000/svg" viewBox="0 0 950.85595703125 950.8569946289062"><path d="M250.856 726.286L104.57 872.572q-5.714 5.143-13.143 5.143-6.857 0-13.143-5.143-5.143-5.714-5.143-13.143t5.143-13.143L224.57 700q5.714-5.143 13.143-5.143T250.856 700q5.143 5.714 5.143 13.143t-5.143 13.143zm96.572 23.428v182.857q0 8-5.143 13.143t-13.143 5.143-13.143-5.143-5.143-13.143V749.714q0-8 5.143-13.143t13.143-5.143 13.143 5.143 5.143 13.143zm-128-128q0 8-5.143 13.143T201.142 640H18.286q-8 0-13.143-5.143T0 621.714t5.143-13.143 13.143-5.143h182.857q8 0 13.143 5.143t5.143 13.143zm722.285 73.143q0 68.571-48.57 116l-84 83.429q-47.43 47.429-116 47.429-69.144 0-116.572-48.571L385.714 701.715q-12-12-24-32l136.571-10.286 156 156.571q15.43 15.429 38.857 15.714t38.857-15.143l84-83.429q16-16 16-38.286 0-22.857-16-38.857l-156.57-157.143 10.285-136.571q20 12 32 24l192 192q48 49.143 48 116.571zm-352.57-413.714l-136.572 10.286-156-156.571q-16-16-38.857-16-22.286 0-38.857 15.429l-84 83.429q-16 16-16 38.286 0 22.857 16 38.857L291.428 451.43l-10.286 137.143q-20-12-32-24l-192-192q-48-49.143-48-116.571 0-68.571 48.571-116l84-83.429q47.43-47.429 116-47.429 69.143 0 116.571 48.571l190.857 191.429q12 12 24 32zm361.713 48q0 8-5.143 13.143t-13.143 5.143H749.713q-8 0-13.143-5.143t-5.143-13.143T736.57 316t13.143-5.143H932.57q8 0 13.143 5.143t5.143 13.143zM639.999 18.286v182.857q0 8-5.143 13.143t-13.143 5.143-13.143-5.143-5.143-13.143V18.286q0-8 5.143-13.143T621.713 0t13.143 5.143 5.143 13.143zm232.571 86.285L726.284 250.857Q719.998 256 713.141 256t-13.143-5.143q-5.143-5.714-5.143-13.143t5.143-13.143L846.284 78.285q5.714-5.143 13.143-5.143t13.143 5.143q5.143 5.714 5.143 13.143t-5.143 13.143z"/></svg>