<svg xmlns="http://www.w3.org/2000/svg" viewBox="0 0 605.8679809570312 904.532958984375"><path d="M435.201 256v170.667h42.667V512h-128V170.667h85.333L307.201 0l-128 170.667h85.333V512h-128v-88.32c30.08-15.573 51.2-46.08 51.2-82.347 0-51.84-42.027-93.867-93.867-93.867S0 289.493 0 341.333c0 36.267 21.12 66.773 51.2 82.347V512c0 47.147 38.187 85.333 85.333 85.333h128v130.133c-30.293 15.573-51.2 46.72-51.2 83.2 0 51.84 42.027 93.867 93.867 93.867s93.867-42.027 93.867-93.867c0-36.48-20.907-67.627-51.2-83.2V597.333h128c47.147 0 85.333-38.187 85.333-85.333v-85.333h42.668V256H435.2z"/></svg>