<svg xmlns="http://www.w3.org/2000/svg" viewBox="0 0 804.5709838867188 877.7150268554688"><path d="M219.429 694.858q0 14.857-10.857 25.714t-25.714 10.857-25.714-10.857-10.857-25.714 10.857-25.714 25.714-10.857 25.714 10.857 10.857 25.714zm585.142 34.857q0 69.143-41.714 108.571T652 877.715H152.571q-69.143 0-110.857-39.429T0 729.715q0-38.857 3.143-74.857t13.714-78.857T44 500.287t46.286-58.857 68.571-34.571q-12.57 29.714-12.57 68.571v116q-33.144 11.429-53.144 40t-20 63.429q0 45.714 32 77.714t77.714 32 77.714-32 32-77.714q0-34.857-20.286-63.429t-52.857-40v-116q0-35.429 14.286-53.143 75.43 59.429 168.571 59.429t168.571-59.429q14.286 17.714 14.286 53.143v36.571q-60.57 0-103.429 42.857t-42.856 103.429v50.857q-18.287 16.571-18.287 40.571 0 22.857 16 38.857t38.857 16 38.857-16 16-38.857q0-24-18.286-40.571v-50.857q0-29.714 21.714-51.429t51.43-21.714 51.428 21.714 21.714 51.429v50.857q-18.286 16.571-18.286 40.571 0 22.857 16 38.857t38.857 16 38.857-16 16-38.857q0-24-18.286-40.571v-50.857q0-38.857-19.714-72.857t-53.429-53.429q0-5.714.286-24.286t0-27.429-1.429-23.714-4-26.857-7.429-22.857q38.857 8.571 68.571 34.571t46.286 58.857T787.711 576t13.714 78.857 3.143 74.857zM621.714 219.429q0 90.857-64.286 155.143t-155.143 64.286-155.143-64.286-64.286-155.143 64.286-155.143T402.285 0t155.143 64.286 64.286 155.143z"/></svg>