<svg xmlns="http://www.w3.org/2000/svg" viewBox="0 0 661.71630859375 1028.952880859375"><path d="M661.716 334.096q0 126.286-84.287 219.714T369.143 660.953v148.571h128q8 0 13.143 5.143t5.143 13.143v36.571q0 8-5.143 13.143t-13.143 5.143h-128v128q0 8-5.143 13.143t-13.143 5.143h-36.57q-8 0-13.144-5.143T296 1010.667v-128H168q-8 0-13.143-5.143t-5.143-13.143V827.81q0-8 5.143-13.143T168 809.524h128V660.953q-85.714-9.143-155.143-58.857t-106.286-128-30-166.857q6.286-76.571 46-142.286t104-107.429T294.857 7.238Q392-3.619 477.143 38.095T612 159.238t49.714 174.857zm-585.144 0q0 105.714 75.143 180.857t180.857 75.143 180.857-75.143 75.143-180.857-75.143-180.857-180.857-75.143-180.857 75.143-75.143 180.857z"/></svg>