<svg xmlns="http://www.w3.org/2000/svg" viewBox="0 0 968.4989624023438 955.4940185546875"><path d="M916.991 295.424c-51.507 295.578-339.2 545.792-425.728 602.982-86.528 57.088-165.53-22.886-194.15-83.507-32.819-68.966-131.02-443.187-156.774-474.163-25.754-31.027-102.912 30.976-102.912 30.976L0 321.741s156.723-190.72 276.02-214.579C402.483 81.92 402.278 304.999 432.691 428.8c29.39 119.91 49.203 188.416 74.906 188.416S582.451 550.4 636.211 448c53.914-102.605-2.304-193.126-107.57-128.717C570.778 61.901 968.499 0 916.992 295.424z"/></svg>