<svg xmlns="http://www.w3.org/2000/svg" viewBox="0 0 1024.0009765625 469.333984375"><path d="M789.333 0C659.627 0 554.667 104.96 554.667 234.667c0 56.747 20.053 108.8 53.547 149.333h-192.64c33.493-40.533 53.546-92.587 53.546-149.333C469.12 104.96 364.16 0 234.453 0S0 104.96 0 234.667s104.96 234.667 234.667 234.667h554.667c129.707 0 234.667-104.96 234.667-234.667S919.041 0 789.334 0zM234.667 384c-82.56 0-149.333-66.773-149.333-149.333S152.107 85.334 234.667 85.334 384 152.107 384 234.667 317.227 384 234.667 384zm554.666 0C706.773 384 640 317.227 640 234.667S706.773 85.334 789.333 85.334s149.334 66.773 149.334 149.333S871.894 384 789.334 384z"/></svg>