<svg xmlns="http://www.w3.org/2000/svg" viewBox="0 0 960 898.5216674804688"><path d="M960 557.667v84.852h-84.852L768 535.37 660.852 642.519H576v-84.852l107.148-107.148L576 343.37v-84.852h84.852L768 365.667l107.148-107.148H960v84.852L852.852 450.519 960 557.667zM416.007 898.519a31.985 31.985 0 0 1-22.634-9.374L146.747 642.519H32c-17.672 0-32-14.326-32-32v-320c0-17.672 14.328-32 32-32h114.747L393.373 11.89a31.996 31.996 0 0 1 34.874-6.936A31.999 31.999 0 0 1 448 34.519v832a31.997 31.997 0 0 1-31.994 32z"/></svg>