<svg xmlns="http://www.w3.org/2000/svg" viewBox="0 0 938.6669921875 938.66796875"><path d="M896 128v-21.333C896 47.787 848.213 0 789.333 0S682.666 47.787 682.666 106.667V128C658.986 128 640 147.2 640 170.667v170.667c0 23.467 18.987 42.667 42.667 42.667H896c23.68 0 42.667-19.2 42.667-42.667V170.667C938.666 147.2 919.68 128 896 128zm-34.134 0H716.8v-21.333c0-40.107 32.427-72.533 72.533-72.533s72.533 32.427 72.533 72.533V128zM764.8 469.333c1.707 14.08 3.2 28.16 3.2 42.667 0 88.747-34.133 169.387-89.813 230.187-10.88-34.56-42.88-59.52-80.853-59.52h-42.667v-128C554.667 531.2 535.467 512 512 512H256v-85.333h85.333C364.8 426.667 384 407.467 384 384v-85.333h85.333c47.147 0 85.333-38.187 85.333-85.333V104.961c-40.32-12.8-83.413-19.627-128-19.627C190.933 85.334 0 276.267 0 512.001s190.933 426.667 426.667 426.667 426.667-190.933 426.667-426.667c0-14.507-.853-28.587-2.133-42.667h-86.4zM384 850.346C215.68 829.439 85.333 686.079 85.333 511.999c0-26.24 3.2-51.84 8.96-76.373l204.373 204.373v42.667c0 47.147 38.187 85.333 85.333 85.333v82.347z"/></svg>