<svg xmlns="http://www.w3.org/2000/svg" viewBox="0 0 945.971923828125 1025.536865234375"><path d="M466.943 467.098c-26.163 210.688-159.795 248.166-159.795 394.65 0 90.419 75.93 163.789 165.837 163.789s165.787-73.421 165.787-163.789c0-146.483-133.632-183.962-159.795-394.65-.819-6.298-11.213-6.298-12.032 0zM159.795 6.298C133.632 216.986 0 254.413 0 400.948c0 90.368 75.878 163.789 165.786 163.789s165.786-73.421 165.786-163.789c0-146.483-133.632-183.962-159.795-394.65-.768-6.298-11.213-6.298-11.98 0zm614.4 0C748.032 216.986 614.4 254.464 614.4 400.948c0 90.368 75.878 163.789 165.786 163.789s165.786-73.421 165.786-163.789c0-146.483-133.632-183.962-159.795-394.65-.819-6.298-11.213-6.298-11.98 0z"/></svg>