<svg xmlns="http://www.w3.org/2000/svg" viewBox="0 0 1024 1024"><path d="M800 128c-10.624 0-21.124.75-31.584 2.25C708.668 48.834 614.377 0 512 0S315.377 48.834 255.584 130.25c-10.46-1.5-20.96-2.25-31.584-2.25C100.5 128 0 228.5 0 352s100.5 224 224 224c27.376 0 54.168-5 79.418-14.666C361.332 611.834 435 640 512 640c77.084 0 150.666-28.166 208.582-78.666C745.832 571 772.624 576 800 576c123.5 0 224-100.5 224-224S923.5 128 800 128zm0 384c-19.418 0-38.418-3.5-56.5-10.416l-36-13.834-29 25.334C632 553.666 572.877 576 512 576s-120-22.334-166.5-62.916l-29-25.334-36 13.834C262.5 508.5 243.418 512 224 512c-88.25 0-160-71.792-160-160s71.75-160 160-160c7.584 0 15 .542 22.5 1.584l37.916 5.5 22.708-30.916C355.75 101.958 430.418 64 512 64c81.624 0 156.25 37.916 204.834 104.126l22.75 30.958 37.998-5.5A160.368 160.368 0 0 1 800 192c88.25 0 160 71.792 160 160s-71.75 160-160 160zM192 640c-35.376 0-64 28.624-64 64s28.624 64 64 64 64-28.624 64-64-28.624-64-64-64zm320 64c-35.376 0-64 28.624-64 64s28.624 64 64 64 64-28.624 64-64-28.624-64-64-64zm320-64c-35.376 0-64 28.624-64 64s28.624 64 64 64 64-28.624 64-64-28.624-64-64-64zM704 896c-35.376 0-64 28.624-64 64s28.624 64 64 64 64-28.624 64-64-28.624-64-64-64zm-384 0c-35.376 0-64 28.624-64 64s28.624 64 64 64 64-28.624 64-64-28.624-64-64-64z"/></svg>