<svg xmlns="http://www.w3.org/2000/svg" viewBox="0 0 978.68798828125 694.8270263671875"><path d="M275.328 477.995l60.416 60.416c39.34-39.339 93.653-63.744 153.6-63.744s114.261 24.405 153.6 63.744l60.416-60.416c-54.784-54.741-130.432-88.661-214.016-88.661s-159.232 33.92-214.016 88.661zM137.685 340.31l60.501 60.501c74.581-74.624 177.58-120.832 291.157-120.832S705.919 326.187 780.5 400.811l60.501-60.501c-89.984-89.984-214.315-145.664-351.659-145.664s-261.675 55.68-351.659 145.664zM489.345 0C298.24 0 125.269 77.44 0 202.709l60.544 60.544c109.867-109.867 261.547-177.92 428.8-177.92s318.933 68.053 428.8 177.92l60.544-60.544C853.419 77.44 680.448 0 489.344 0zm0 566.827c-35.329 0-64 28.672-64 64s28.671 64 64 64 64-28.672 64-64-28.673-64-64-64z"/></svg>