<svg xmlns="http://www.w3.org/2000/svg" viewBox="0 0 703.3159790039062 500.1810607910156"><path d="M137.643 283.35l60.416 60.415c39.34-39.339 93.653-63.744 153.6-63.744s114.261 24.405 153.6 63.744l60.416-60.416c-54.784-54.784-130.432-88.66-214.016-88.66s-159.232 33.876-214.016 88.66zM351.659 0C214.315 0 89.984 55.68 0 145.664l60.501 60.501c74.581-74.624 177.58-120.832 291.157-120.832s216.576 46.208 291.157 120.832l60.501-60.5C613.332 55.68 489.001 0 351.657 0zm0 372.181c-35.328 0-64 28.672-64 64s28.672 64 64 64 64-28.672 64-64-28.672-64-64-64z"/></svg>