<svg xmlns="http://www.w3.org/2000/svg" viewBox="0 0 1267.1339111328125 896"><path d="M633.568 512c105.87 0 201.87 43.066 271.402 112.598l-90.468 90.468C768.148 668.71 704.146 640 633.568 640s-134.578 28.71-180.934 75.066l-90.468-90.468C431.698 555.066 527.698 512 633.568 512zM181.02 443.452C301.9 322.572 462.618 256 633.568 256s331.668 66.572 452.55 187.452l-90.51 90.508C898.901 437.256 770.328 384 633.568 384c-136.762 0-265.334 53.256-362.038 149.962l-90.51-90.51zM982.352 70.438c106.702 45.132 202.516 109.728 284.782 191.996l-90.508 90.508C1031.57 207.886 838.706 128 633.568 128c-205.14 0-398 79.886-543.058 224.942L0 262.432C82.268 180.166 178.082 115.57 284.784 70.438 395.288 23.7 512.636 0 633.568 0s238.278 23.7 348.784 70.438zM569.568 832c0-35.346 28.654-64 64-64s64 28.654 64 64c0 35.346-28.654 64-64 64s-64-28.654-64-64z"/></svg>