<svg xmlns="http://www.w3.org/2000/svg" viewBox="0 0 1024.00390625 514.7520751953125"><path d="M834.084 77.542C786.126 28.458 719.834 0 650.624 0 581.5 0 515.248 28.458 467.294 77.542 361.668 82.46 277.252 169.918 277.252 276.71c0 109.916 89.418 199.332 199.376 199.332 11.668 0 23.208-1 34.542-2.998 41.458 27.082 89.834 41.708 139.458 41.708 49.708 0 98.126-14.626 139.544-41.708a199.966 199.966 0 0 0 34.582 2.998c109.874 0 199.25-89.416 199.25-199.332-.004-106.792-84.38-194.25-189.92-199.168zm-9.334 334.5c-16.624 0-32.75-2.998-48-8.834-35 30.5-79.5 47.544-126.126 47.544-46.498 0-90.998-17.044-125.998-47.544-15.25 5.836-31.5 8.834-48 8.834-74.624 0-135.376-60.75-135.376-135.332 0-74.626 60.75-135.376 135.376-135.376 6.376 0 12.75.458 19.042 1.376 36.208-49.166 93.082-78.708 154.956-78.708 61.876 0 118.876 29.542 155.002 78.708a131.708 131.708 0 0 1 19.124-1.376c74.624 0 135.25 60.75 135.25 135.376 0 74.582-60.624 135.332-135.25 135.332zM288 449.376H32c-17.666 0-32 14.334-32 32s14.334 32 32 32h256c17.666 0 32-14.334 32-32s-14.334-32-32-32zm-256-64h128c17.666 0 32-14.334 32-32s-14.334-32-32-32H32c-17.666 0-32 14.334-32 32s14.334 32 32 32zm64-128h128c17.666 0 32-14.334 32-32s-14.334-32-32-32H96c-17.666 0-32 14.334-32 32s14.334 32 32 32z"/></svg>