<svg xmlns="http://www.w3.org/2000/svg" viewBox="0 0 960 576"><path d="M928 256H764.75C748.624 112.416 627.876 0 480 0c-99.624 0-187.5 50.916-239.25 128H32c-17.666 0-32 14.334-32 32s14.334 32 32 32h177.667c-7.248 20.416-11.958 41.792-14.416 64h-99.25c-17.666 0-32 14.334-32 32s14.334 32 32 32h99.25c2.458 22.168 7.168 43.624 14.416 64H37.832C16.918 384 0 398.334 0 416s16.918 32 37.832 32H240.75C292.5 525.124 380.374 576 480 576c99.624 0 187.5-50.876 239.248-128h74.92C815.082 448 832 433.666 832 416s-16.918-32-37.832-32h-43.834c7.248-20.376 11.916-41.832 14.416-64H928c17.666 0 32-14.334 32-32s-14.334-32-32-32zm-649.542-64H480c17.666 0 32-14.334 32-32s-14.334-32-32-32H323.708C364.126 88.542 419.166 64 480 64c112.582 0 205.084 83.75 220.75 192h-441.5c3.25-22.624 9.668-44.084 19.208-64zM480 512c-60.834 0-115.876-24.582-156.292-64H636.25c-40.374 39.418-95.416 64-156.25 64zm201.5-128H278.458c-9.54-19.916-15.958-41.376-19.208-64h441.5c-3.25 22.624-9.668 44.084-19.25 64z"/></svg>