<svg xmlns="http://www.w3.org/2000/svg" viewBox="0 0 1024 514.7520751953125"><path d="M834.084 77.542C786.126 28.458 719.834 0 650.624 0 581.5 0 515.248 28.458 467.25 77.542c-105.624 4.918-190 92.376-190 199.168 0 109.916 89.418 199.332 199.376 199.332 11.624 0 23.208-1 34.5-2.998 41.5 27.082 89.876 41.708 139.498 41.708 49.708 0 98.126-14.626 139.544-41.708a199.966 199.966 0 0 0 34.582 2.998c109.874 0 199.25-89.416 199.25-199.332 0-106.792-84.376-194.25-189.916-199.168zM288 449.376H32c-17.666 0-32 14.334-32 32s14.334 32 32 32h256c17.666 0 32-14.334 32-32s-14.334-32-32-32zm-256-64h128c17.666 0 32-14.334 32-32s-14.334-32-32-32H32c-17.666 0-32 14.334-32 32s14.334 32 32 32zm64-128h128c17.666 0 32-14.334 32-32s-14.334-32-32-32H96c-17.666 0-32 14.334-32 32s14.334 32 32 32z"/></svg>