<svg xmlns="http://www.w3.org/2000/svg" viewBox="0 0 1024 1024"><path d="M518.742 544.704l118.03 314.942c.778 1.85 1.732 3.55 2.75 5.154-39.912 13.682-82.804 21.2-127.518 21.2-37.694 0-74.072-5.38-108.488-15.238l115.226-326.058zM896 511.994c0 137.97-76.776 258.43-190.94 323.258L822.347 504.98c21.912-53.354 29.204-96.02 29.204-133.95 0-13.772-.938-26.548-2.588-38.458 29.978 53.262 47.038 114.392 47.038 179.422zm-768-.002c0-54.224 11.944-105.698 33.252-152.206L344.43 848.57C216.322 787.96 128 660.018 128 511.992zm63.164-205.424C259.822 205.046 377.848 138 512.008 138c99.968 0 190.992 37.226 259.308 98.196-1.656-.098-3.27-.302-4.976-.302-37.72 0-64.486 32.002-64.486 66.376 0 30.822 18.262 56.896 37.72 87.716 14.6 24.906 31.654 56.908 31.654 103.142 0 32.002-12.636 69.15-29.216 120.9L703.7 738.66 564.92 336.642c23.116-1.178 43.948-3.55 43.948-3.55 20.694-2.388 18.258-32.004-2.446-30.822 0 0-62.204 4.752-102.35 4.752-37.734 0-101.134-4.752-101.134-4.752-20.71-1.18-23.14 29.63-2.438 30.822 0 0 19.59 2.366 40.278 3.55l59.822 159.65-84.044 245.456-139.834-405.106c23.142-1.182 43.952-3.55 43.952-3.55 20.674-2.388 18.232-32.004-2.458-30.822 0 0-62.186 4.752-102.34 4.752-7.206 0-15.702-.172-24.712-.454zM852 0H172C77.4 0 0 77.4 0 172v680c0 94.6 77.4 172 172 172h680c94.6 0 172-77.4 172-172V172c0-94.6-77.4-172-172-172zm108 512c0 247.424-200.576 448-448 448S64 759.424 64 512 264.576 64 512 64s448 200.576 448 448z"/></svg>