<svg xmlns="http://www.w3.org/2000/svg" viewBox="0 0 1031.159912109375 1031.157958984375"><path d="M1002.934 817.876l-460.552-394.76C563.83 382.818 576 336.834 576 288 576 128.942 447.058 0 288 0c-29.094 0-57.172 4.332-83.646 12.354l166.39 166.39c24.89 24.89 24.89 65.62 0 90.51l-101.49 101.49c-24.89 24.89-65.62 24.89-90.51 0l-166.39-166.39C4.332 230.828 0 258.906 0 288c0 159.058 128.942 288 288 288 48.834 0 94.818-12.17 135.116-33.62l394.76 460.552c22.908 26.724 62.016 28.226 86.904 3.338l101.492-101.492c24.888-24.888 23.386-63.994-3.338-86.902z"/></svg>