<svg xmlns="http://www.w3.org/2000/svg" viewBox="0 0 792.4210205078125 992.2048950195312"><path d="M525.977 624.895l231.577 75.059s33.126 6.093 32.768 28.262c-.205 15.616-10.086 33.382-10.086 33.382l-97.792 141.107s-17.459 14.643-35.123 14.643c-17.613 0-37.939-27.494-37.939-27.494l-123.75-208.538s-13.926-30.413 2.56-47.155c15.104-15.36 37.786-9.267 37.786-9.267zM476.414 529.1c11.827 20.275 44.544 14.387 44.544 14.387l231.066-68.147s31.488-12.954 35.994-30.157c4.403-17.254-5.222-38.042-5.222-38.042L672.358 275.864s-9.574-16.589-29.44-18.278c-21.914-1.894-35.379 24.883-35.379 24.883l-130.56 207.36c.051-.051-11.469 20.582-.563 39.27zm-109.157-80.845c27.187-6.758 31.54-46.643 31.54-46.643L396.951 69.58s-4.096-40.96-22.323-52.07c-28.62-17.51-37.069-8.397-45.26-7.168L137.521 82.278s-18.79 6.298-28.57 22.118c-13.978 22.374 14.182 55.245 14.182 55.245l199.373 274.33s19.712 20.531 44.75 14.285zm-47.36 134.349c.666-25.6-30.464-41.011-30.464-41.011L83.198 436.479s-30.566-12.698-45.414-3.84c-11.315 6.758-21.402 19.046-22.374 29.85L1.997 629.35S0 658.278 7.424 671.436c10.496 18.637 45.107 5.683 45.107 5.683l240.742-53.709c9.318-6.349 25.702-6.963 26.624-40.806zm59.852 90.061c-20.685-10.701-45.414 11.469-45.414 11.469L173.157 863.232s-20.122 27.392-15.002 44.186c4.813 15.77 12.8 23.603 24.064 29.133l161.894 51.558s19.61 4.096 34.51-.256c21.093-6.195 17.202-39.526 17.202-39.526l3.635-242.483c0 .051-.819-23.296-19.712-33.178z"/></svg>