<svg xmlns="http://www.w3.org/2000/svg" viewBox="0 0 1023.9996948242188 731.4301147460938"><path d="M731.429 365.715q0-21.143-17.143-30.857l-292.57-182.857q-17.714-11.429-37.143-1.143-18.857 10.286-18.857 32v365.714q0 21.714 18.857 32 9.143 4.571 17.714 4.571 11.43 0 19.43-5.714l292.568-182.857q17.143-9.714 17.143-30.857zm292.57 0q0 54.857-.57 85.714t-4.857 78-12.857 84.286q-9.143 41.714-39.43 70.286t-70.856 33.143q-126.857 14.286-383.43 14.286t-383.428-14.286Q88 712.573 57.428 684.001t-39.714-70.286q-8-37.143-12.286-84.286t-4.857-78T0 365.715t.57-85.714 4.857-78 12.857-84.286q9.143-41.714 39.43-70.286t70.856-33.143Q255.428 0 512 0t383.428 14.286q40.57 4.571 71.143 33.143t39.714 70.286q8 37.143 12.286 84.286t4.857 78 .57 85.714z"/></svg>