<?xml version="1.0" encoding="utf-8"?>
<!-- Generator: Adobe Illustrator 16.0.0, SVG Export Plug-In . SVG Version: 6.00 Build 0)  -->
<!DOCTYPE svg PUBLIC "-//W3C//DTD SVG 1.1//EN" "http://www.w3.org/Graphics/SVG/1.1/DTD/svg11.dtd">
<svg version="1.1" id="Layer_1" xmlns="http://www.w3.org/2000/svg" xmlns:xlink="http://www.w3.org/1999/xlink" x="0px" y="0px"
	 width="16px" height="16px" viewBox="0 0 16 16" enable-background="new 0 0 16 16" xml:space="preserve">
<path fill="#020202" d="M13,10v3H4v-3H13 M13,9H4c-0.553,0-1,0.447-1,1v3c0,0.553,0.447,1,1,1h9c0.553,0,1-0.447,1-1v-3
	C14,9.447,13.553,9,13,9L13,9z M10,3H4C3.447,3,3,3.447,3,4v2c0,0.553,0.447,1,1,1h6c0.553,0,1-0.447,1-1V4C11,3.447,10.553,3,10,3
	L10,3z M1.5,1C1.224,1,1,1.224,1,1.5v14C1,15.776,1.224,16,1.5,16l0,0C1.776,16,2,15.776,2,15.5v-14C2,1.224,1.776,1,1.5,1L1.5,1z"
	/>
</svg>
