<?xml version="1.0" encoding="utf-8"?>
<!-- Generator: Adobe Illustrator 16.0.0, SVG Export Plug-In . SVG Version: 6.00 Build 0)  -->
<!DOCTYPE svg PUBLIC "-//W3C//DTD SVG 1.1//EN" "http://www.w3.org/Graphics/SVG/1.1/DTD/svg11.dtd">
<svg version="1.1" id="Layer_1" xmlns="http://www.w3.org/2000/svg" xmlns:xlink="http://www.w3.org/1999/xlink" x="0px" y="0px"
	 width="16px" height="16px" viewBox="0 0 16 16" enable-background="new 0 0 16 16" xml:space="preserve">
<path fill="#020202" d="M2,7v3h9V7H2 M2,6h9c0.553,0,1,0.447,1,1v3c0,0.553-0.447,1-1,1H2c-0.553,0-1-0.447-1-1V7
	C1,6.447,1.447,6,2,6L2,6z M14.5,1C14.776,1,15,1.224,15,1.5v13c0,0.276-0.224,0.5-0.5,0.5l0,0c-0.276,0-0.5-0.224-0.5-0.5v-13
	C14,1.224,14.224,1,14.5,1L14.5,1z"/>
</svg>
