<?xml version="1.0" encoding="utf-8"?>
<!-- Generator: Adobe Illustrator 16.0.0, SVG Export Plug-In . SVG Version: 6.00 Build 0)  -->
<!DOCTYPE svg PUBLIC "-//W3C//DTD SVG 1.1//EN" "http://www.w3.org/Graphics/SVG/1.1/DTD/svg11.dtd">
<svg version="1.1" id="Layer_1" xmlns="http://www.w3.org/2000/svg" xmlns:xlink="http://www.w3.org/1999/xlink" x="0px" y="0px"
	 width="16px" height="16px" viewBox="0 0 16 16" enable-background="new 0 0 16 16" xml:space="preserve">
<path fill="#020202" d="M9,14h3V5H9V14 M8,14V5c0-0.553,0.447-1,1-1h3c0.553,0,1,0.447,1,1v9c0,0.553-0.447,1-1,1H9
	C8.447,15,8,14.553,8,14L8,14z M3,11V5c0-0.553,0.447-1,1-1h2c0.553,0,1,0.447,1,1v6c0,0.553-0.447,1-1,1H4C3.447,12,3,11.553,3,11
	L3,11z M1,2.5C1,2.224,1.224,2,1.5,2h13C14.776,2,15,2.224,15,2.5l0,0C15,2.776,14.776,3,14.5,3h-13C1.224,3,1,2.776,1,2.5L1,2.5z"
	/>
</svg>
