<?xml version="1.0" encoding="utf-8"?>
<!-- Generator: Adobe Illustrator 16.0.0, SVG Export Plug-In . SVG Version: 6.00 Build 0)  -->
<!DOCTYPE svg PUBLIC "-//W3C//DTD SVG 1.1//EN" "http://www.w3.org/Graphics/SVG/1.1/DTD/svg11.dtd">
<svg version="1.1" id="Layer_1" xmlns="http://www.w3.org/2000/svg" xmlns:xlink="http://www.w3.org/1999/xlink" x="0px" y="0px"
	 width="16px" height="16px" viewBox="0 0 16 16" enable-background="new 0 0 16 16" xml:space="preserve">
<path fill="#020202" d="M9,3h3v9H9V3 M8,3v9c0,0.553,0.447,1,1,1h3c0.553,0,1-0.447,1-1V3c0-0.553-0.447-1-1-1H9
	C8.447,2,8,2.447,8,3L8,3z M3,6v6c0,0.553,0.447,1,1,1h2c0.553,0,1-0.447,1-1V6c0-0.553-0.447-1-1-1H4C3.447,5,3,5.447,3,6L3,6z
	 M1,14.5C1,14.777,1.224,15,1.5,15h13c0.276,0,0.5-0.223,0.5-0.5l0,0c0-0.275-0.224-0.5-0.5-0.5h-13C1.224,14,1,14.225,1,14.5
	L1,14.5z"/>
</svg>
