<?xml version="1.0" encoding="utf-8"?>
<!-- Generator: Adobe Illustrator 16.0.0, SVG Export Plug-In . SVG Version: 6.00 Build 0)  -->
<!DOCTYPE svg PUBLIC "-//W3C//DTD SVG 1.1//EN" "http://www.w3.org/Graphics/SVG/1.1/DTD/svg11.dtd">
<svg version="1.1" id="Layer_1" xmlns="http://www.w3.org/2000/svg" xmlns:xlink="http://www.w3.org/1999/xlink" x="0px" y="0px"
	 width="16px" height="16px" viewBox="0 0 16 16" enable-background="new 0 0 16 16" xml:space="preserve">
<path fill="#020202" d="M12,9H7V7h3c0.553,0,1-0.447,1-1V4c0-0.553-0.447-1-1-1H7V1.5C7,1.224,6.776,1,6.5,1S6,1.224,6,1.5V3H3
	C2.447,3,2,3.447,2,4v2c0,0.553,0.447,1,1,1h3v2H1c-0.553,0-1,0.447-1,1v3c0,0.553,0.447,1,1,1h5v1.5C6,15.775,6.224,16,6.5,16
	S7,15.775,7,15.5V14h5c0.553,0,1-0.447,1-1v-3C13,9.447,12.553,9,12,9z M1,13v-3h5v3H1z M12,13H7v-3h5V13z"/>
</svg>
