<?xml version="1.0" encoding="utf-8"?>
<!-- Generator: Adobe Illustrator 16.0.0, SVG Export Plug-In . SVG Version: 6.00 Build 0)  -->
<!DOCTYPE svg PUBLIC "-//W3C//DTD SVG 1.1//EN" "http://www.w3.org/Graphics/SVG/1.1/DTD/svg11.dtd">
<svg version="1.1" id="Layer_1" xmlns="http://www.w3.org/2000/svg" xmlns:xlink="http://www.w3.org/1999/xlink" x="0px" y="0px"
	 width="16px" height="16px" viewBox="0 0 16 16" enable-background="new 0 0 16 16" xml:space="preserve">
<path fill="#020202" d="M14,7v3H5V7H14 M14,6H5C4.447,6,4,6.447,4,7v3c0,0.553,0.447,1,1,1h9c0.553,0,1-0.447,1-1V7
	C15,6.447,14.553,6,14,6L14,6z M1.5,1C1.224,1,1,1.224,1,1.5v13C1,14.776,1.224,15,1.5,15l0,0C1.776,15,2,14.776,2,14.5v-13
	C2,1.224,1.776,1,1.5,1L1.5,1z"/>
</svg>
