<?xml version="1.0" encoding="utf-8"?>
<!-- Generator: Adobe Illustrator 16.0.0, SVG Export Plug-In . SVG Version: 6.00 Build 0)  -->
<!DOCTYPE svg PUBLIC "-//W3C//DTD SVG 1.1//EN" "http://www.w3.org/Graphics/SVG/1.1/DTD/svg11.dtd">
<svg version="1.1" id="图层_1" xmlns="http://www.w3.org/2000/svg" xmlns:xlink="http://www.w3.org/1999/xlink" x="0px" y="0px"
	 width="16px" height="16px" viewBox="0 0 16 16" enable-background="new 0 0 16 16" xml:space="preserve">
<g>
	<g>
		<path d="M12,11.75c-0.192,0-0.384-0.073-0.53-0.22L8,8.061l-3.47,3.47c-0.293,0.293-0.768,0.293-1.061,0s-0.293-0.768,0-1.061l4-4
			c0.293-0.293,0.768-0.293,1.061,0l4,4c0.293,0.293,0.293,0.768,0,1.061C12.384,11.677,12.192,11.75,12,11.75z"/>
	</g>
	<path d="M13,4c0,0.552-0.447,1-1,1H4C3.447,5,3,4.552,3,4l0,0c0-0.552,0.447-1,1-1h8C12.553,3,13,3.448,13,4L13,4z"/>
</g>
</svg>
