<?xml version="1.0" encoding="utf-8"?>
<!-- Generator: Adobe Illustrator 16.0.0, SVG Export Plug-In . SVG Version: 6.00 Build 0)  -->
<!DOCTYPE svg PUBLIC "-//W3C//DTD SVG 1.1//EN" "http://www.w3.org/Graphics/SVG/1.1/DTD/svg11.dtd">
<svg version="1.1" id="图层_1" xmlns="http://www.w3.org/2000/svg" xmlns:xlink="http://www.w3.org/1999/xlink" x="0px" y="0px"
	 width="16px" height="16px" viewBox="0 0 16 16" enable-background="new 0 0 16 16" xml:space="preserve">
<g>
	<g>
		<path d="M8,9.75c-0.192,0-0.384-0.073-0.53-0.22l-4-4c-0.293-0.293-0.293-0.768,0-1.061s0.768-0.293,1.061,0L8,7.939l3.47-3.47
			c0.293-0.293,0.768-0.293,1.061,0s0.293,0.768,0,1.061l-4,4C8.384,9.677,8.192,9.75,8,9.75z"/>
	</g>
	<path d="M13,12c0-0.553-0.447-1-1-1H4c-0.553,0-1,0.447-1,1l0,0c0,0.553,0.447,1,1,1h8C12.553,13,13,12.553,13,12L13,12z"/>
</g>
</svg>
