<?xml version="1.0" encoding="utf-8"?>
<!-- Generator: Adobe Illustrator 16.0.0, SVG Export Plug-In . SVG Version: 6.00 Build 0)  -->
<!DOCTYPE svg PUBLIC "-//W3C//DTD SVG 1.1//EN" "http://www.w3.org/Graphics/SVG/1.1/DTD/svg11.dtd">
<svg version="1.1" id="图层_1" xmlns="http://www.w3.org/2000/svg" xmlns:xlink="http://www.w3.org/1999/xlink" x="0px" y="0px"
	 width="16px" height="16px" viewBox="0 0 16 16" enable-background="new 0 0 16 16" xml:space="preserve">
<g>
	<g>
		<path d="M3.75,12.5c-0.192,0-0.384-0.073-0.53-0.22c-0.293-0.293-0.293-0.768,0-1.061l3.47-3.47L3.22,4.28
			c-0.293-0.293-0.293-0.768,0-1.061s0.768-0.293,1.061,0l4,4c0.293,0.293,0.293,0.768,0,1.061l-4,4
			C4.134,12.427,3.942,12.5,3.75,12.5z"/>
	</g>
	<g>
		<path d="M8.75,12.5c-0.192,0-0.384-0.073-0.53-0.22c-0.293-0.293-0.293-0.768,0-1.061l3.47-3.47L8.22,4.28
			c-0.293-0.293-0.293-0.768,0-1.061s0.768-0.293,1.061,0l4,4c0.293,0.293,0.293,0.768,0,1.061l-4,4
			C9.134,12.427,8.942,12.5,8.75,12.5z"/>
	</g>
</g>
</svg>
