<?xml version="1.0" encoding="utf-8"?>
<!-- Generator: Adobe Illustrator 16.0.0, SVG Export Plug-In . SVG Version: 6.00 Build 0)  -->
<!DOCTYPE svg PUBLIC "-//W3C//DTD SVG 1.1//EN" "http://www.w3.org/Graphics/SVG/1.1/DTD/svg11.dtd">
<svg version="1.1" id="Layer_1" xmlns="http://www.w3.org/2000/svg" xmlns:xlink="http://www.w3.org/1999/xlink" x="0px" y="0px"
	 width="16px" height="16px" viewBox="0 0 16 16" enable-background="new 0 0 16 16" xml:space="preserve">
<g>
	<path d="M8.804,6.997c0.621-0.288,1.224-0.579,1.791-0.865c0.567-0.29,1.021-0.504,1.356-0.638
		c0.336-0.131,0.605-0.201,0.809-0.201c0.336,0,0.626,0.11,0.872,0.34C13.878,5.857,14,6.142,14,6.477
		c0,0.192-0.061,0.394-0.181,0.6c-0.119,0.207-0.248,0.34-0.382,0.398c-1.242,0.488-2.611,0.847-4.102,1.069
		c0.271,0.246,0.603,0.581,0.998,0.993c0.395,0.418,0.603,0.638,0.619,0.666c0.146,0.201,0.347,0.452,0.607,0.75
		c0.26,0.3,0.44,0.532,0.541,0.701c0.101,0.171,0.152,0.372,0.152,0.613c0,0.308-0.115,0.579-0.347,0.809
		c-0.229,0.232-0.53,0.348-0.896,0.348s-0.775-0.286-1.235-0.852c-0.457-0.566-1.048-1.589-1.77-3.062
		c-0.731,1.326-1.224,2.205-1.472,2.629c-0.251,0.42-0.492,0.741-0.722,0.959c-0.232,0.216-0.495,0.326-0.795,0.326
		c-0.356,0-0.653-0.122-0.891-0.368c-0.231-0.246-0.352-0.511-0.352-0.788c0-0.26,0.047-0.457,0.144-0.59
		c0.886-1.203,1.809-2.253,2.774-3.134c-0.809-0.127-1.53-0.268-2.165-0.42c-0.636-0.157-1.312-0.38-2.023-0.68
		c-0.117-0.059-0.229-0.192-0.34-0.398C2.054,6.842,2,6.65,2,6.477c0-0.335,0.122-0.619,0.368-0.844
		c0.246-0.229,0.527-0.34,0.846-0.34c0.232,0,0.519,0.07,0.867,0.209C4.426,5.643,4.866,5.844,5.4,6.108
		c0.535,0.265,1.145,0.561,1.828,0.889C7.103,6.39,6.999,5.693,6.917,4.911C6.835,4.126,6.795,3.589,6.795,3.299
		c0-0.356,0.113-0.659,0.338-0.917C7.362,2.127,7.65,2,8.007,2c0.35,0,0.633,0.127,0.86,0.382c0.228,0.258,0.34,0.596,0.34,1.02
		c0,0.115-0.019,0.343-0.052,0.687c-0.03,0.343-0.082,0.755-0.143,1.24C8.949,5.815,8.879,6.373,8.804,6.997z"/>
</g>
</svg>
