<?xml version="1.0" encoding="utf-8"?>
<!-- Generator: Adobe Illustrator 16.0.0, SVG Export Plug-In . SVG Version: 6.00 Build 0)  -->
<!DOCTYPE svg PUBLIC "-//W3C//DTD SVG 1.1//EN" "http://www.w3.org/Graphics/SVG/1.1/DTD/svg11.dtd">
<svg version="1.1" id="Layer_1" xmlns="http://www.w3.org/2000/svg" xmlns:xlink="http://www.w3.org/1999/xlink" x="0px" y="0px"
	 width="16px" height="16px" viewBox="0 0 16 16" enable-background="new 0 0 16 16" xml:space="preserve">
<path fill="#010101" d="M13.157,3.17c-1.559-1.56-4.097-1.56-5.657,0L3.169,7.501c-1.56,1.56-1.56,4.098,0,5.657
	c1.52,1.52,3.963,1.547,5.53,0.104c0.022-0.016,0.048-0.024,0.068-0.045l0.057-0.057c0.001-0.001,0.001-0.001,0.002-0.002
	c0,0,0-0.001,0.001-0.001l1.697-1.696c0.953-0.953,0.953-2.504,0-3.458c-0.953-0.953-2.504-0.953-3.458,0L5.721,9.35
	c-0.195,0.195-0.195,0.512,0,0.707s0.512,0.195,0.707,0L7.774,8.71c0.563-0.563,1.48-0.563,2.043,0c0.562,0.563,0.562,1.479,0,2.043
	l-1.698,1.697l0,0c-1.169,1.17-3.073,1.17-4.242,0c-1.17-1.17-1.17-3.073,0-4.243l4.331-4.331c1.17-1.17,3.072-1.17,4.242,0
	c1.17,1.169,1.17,3.073,0,4.243c-0.195,0.195-0.195,0.511,0,0.707c0.195,0.195,0.512,0.195,0.707,0
	C14.718,7.268,14.718,4.729,13.157,3.17z"/>
</svg>
