<?xml version="1.0" encoding="utf-8"?>
<!-- Generator: Adobe Illustrator 16.0.0, SVG Export Plug-In . SVG Version: 6.00 Build 0)  -->
<!DOCTYPE svg PUBLIC "-//W3C//DTD SVG 1.1//EN" "http://www.w3.org/Graphics/SVG/1.1/DTD/svg11.dtd">
<svg version="1.1" id="Layer_1" xmlns="http://www.w3.org/2000/svg" xmlns:xlink="http://www.w3.org/1999/xlink" x="0px" y="0px"
	 width="16px" height="16px" viewBox="0 0 16 16" enable-background="new 0 0 16 16" xml:space="preserve">
<path fill-rule="evenodd" clip-rule="evenodd" fill="#020202" d="M11.093,7.28l1.375-1.188C12.53,6.031,12.604,6,12.688,6
	s0.157,0.031,0.22,0.093C12.97,6.155,13,6.229,13,6.312V7h0.5C13.776,7,14,7.224,14,7.5S13.776,8,13.5,8H13v0.688
	c0,0.084-0.03,0.158-0.093,0.22C12.845,8.97,12.771,9,12.688,9s-0.157-0.03-0.22-0.093L11.093,7.72C11.031,7.658,11,7.584,11,7.5
	S11.031,7.343,11.093,7.28z M5.907,7.28L4.532,6.093C4.47,6.031,4.396,6,4.312,6s-0.157,0.031-0.22,0.093
	C4.03,6.155,4,6.229,4,6.312V7H3.5C3.224,7,3,7.224,3,7.5S3.224,8,3.5,8H4v0.688c0,0.084,0.03,0.158,0.093,0.22
	C4.155,8.97,4.229,9,4.312,9s0.157-0.03,0.22-0.093L5.907,7.72C5.969,7.658,6,7.584,6,7.5S5.969,7.343,5.907,7.28z M7,2H2v11h5v-2h1
	v2c0,0.553-0.447,1-1,1H2c-0.553,0-1-0.447-1-1V2c0-0.553,0.447-1,1-1h5l0,0c0.553,0,1,0.447,1,1v2H7V2 M10,2h5v11h-5v-2H9v2
	c0,0.553,0.447,1,1,1h5c0.553,0,1-0.447,1-1V2c0-0.553-0.447-1-1-1h-5l0,0C9.447,1,9,1.447,9,2v2h1V2 M11.286,10.036
	c0,0.133-0.055,0.255-0.164,0.365s-0.241,0.166-0.396,0.166c-0.09,0-0.167-0.017-0.23-0.049c-0.064-0.032-0.119-0.077-0.163-0.133
	s-0.091-0.142-0.141-0.258s-0.093-0.218-0.13-0.307l-0.27-0.719H7.49L7.22,9.837c-0.105,0.286-0.195,0.479-0.271,0.58
	s-0.196,0.15-0.366,0.15c-0.145,0-0.272-0.054-0.383-0.16s-0.166-0.228-0.166-0.363c0-0.078,0.014-0.159,0.039-0.242
	S6.141,9.603,6.2,9.454l1.448-3.719C7.689,5.629,7.739,5.5,7.797,5.351s0.12-0.274,0.186-0.373s0.151-0.179,0.259-0.24
	c0.106-0.062,0.238-0.092,0.396-0.092c0.159,0,0.293,0.03,0.398,0.092c0.107,0.062,0.193,0.14,0.26,0.236
	c0.064,0.097,0.121,0.2,0.166,0.311s0.102,0.259,0.172,0.443l1.479,3.695C11.228,9.704,11.286,9.908,11.286,10.036z M9.483,8.231
	L8.63,5.868L7.791,8.231H9.483z"/>
</svg>
