<?xml version="1.0" encoding="utf-8"?>
<!-- Generator: Adobe Illustrator 16.0.0, SVG Export Plug-In . SVG Version: 6.00 Build 0)  -->
<!DOCTYPE svg PUBLIC "-//W3C//DTD SVG 1.1//EN" "http://www.w3.org/Graphics/SVG/1.1/DTD/svg11.dtd">
<svg version="1.1" id="Layer_1" xmlns="http://www.w3.org/2000/svg" xmlns:xlink="http://www.w3.org/1999/xlink" x="0px" y="0px"
	 width="16px" height="16px" viewBox="0 0 16 16" enable-background="new 0 0 16 16" xml:space="preserve">
<path fill-rule="evenodd" clip-rule="evenodd" fill="#020202" d="M5.34,11.695c-0.025-0.539-0.051-0.643-0.549-0.177
	c-0.382,0.324-0.743,0.743-0.743,0.743c-0.031,0.011-0.872-0.369-1.444-1.816c-0.569-1.444,0.113-3.49,0.418-4.037
	C3.26,6.152,3.414,5.354,2.651,6.055c-1.199,1.192-1.983,2.912-1.512,4.821c0.44,1.777,1.431,2.634,1.568,2.699
	c0.011-0.007,0.017-0.009,0.017,0.004c0,0-0.007,0.001-0.017-0.004c-0.053,0.034-0.258,0.292-0.688,0.729
	c-0.406,0.369-0.313,0.485,0.164,0.547C3.079,14.938,5.65,15,5.65,15S5.434,12.584,5.34,11.695z M10.027,2c0.551,0,1,0.449,1,1v4
	c0,0.551-0.449,1-1,1h-4c-0.551,0-1-0.449-1-1V3c0-0.551,0.449-1,1-1H10.027 M10.027,1h-4c-1.104,0-2,0.896-2,2v4
	c0,1.104,0.896,2,2,2h4c1.105,0,2-0.896,2-2V3C12.027,1.896,11.133,1,10.027,1L10.027,1z M16,9v4c0,1.104-0.895,2-2,2h-4
	c-1.104,0-2-0.896-2-2v-3h2.027c1.654,0,3-1.346,3-3H14C15.105,7,16,7.896,16,9z"/>
</svg>
