<?xml version="1.0" encoding="utf-8"?>
<!-- Generator: Adobe Illustrator 16.0.0, SVG Export Plug-In . SVG Version: 6.00 Build 0)  -->
<!DOCTYPE svg PUBLIC "-//W3C//DTD SVG 1.1//EN" "http://www.w3.org/Graphics/SVG/1.1/DTD/svg11.dtd">
<svg version="1.1" id="Layer_1" xmlns="http://www.w3.org/2000/svg" xmlns:xlink="http://www.w3.org/1999/xlink" x="0px" y="0px"
	 width="16px" height="16px" viewBox="0 0 16 16" enable-background="new 0 0 16 16" xml:space="preserve">
<path fill="#010101" d="M7.223,2.561l4.949,4.95l-5.656,5.656l-4.95-4.949L7.223,2.561 M6.516,1.854L0.858,7.511
	c-0.392,0.391-0.392,1.023,0,1.414l4.95,4.949c0.391,0.392,1.022,0.392,1.414,0l5.656-5.656c0.391-0.391,0.391-1.023,0-1.414
	L7.93,1.854C7.539,1.463,6.906,1.463,6.516,1.854L6.516,1.854z M0.858,8.925l4.95,4.949c0.391,0.392,1.022,0.392,1.414,0
	l5.656-5.656c0.195-0.195,0.294-0.451,0.293-0.707H0.858C0.467,7.901,0.467,8.534,0.858,8.925z M2.272,1.146
	c-0.195,0.196-0.195,0.512,0,0.707L6.869,6.45c0.195,0.195,0.512,0.195,0.707,0l0,0c0.195-0.195,0.195-0.512,0-0.707L2.979,1.146
	C2.784,0.951,2.468,0.951,2.272,1.146L2.272,1.146z M13.589,8.208c0,0-1.839,2.839-2,4c-0.275,1.981,1,2.214,2,2.214
	s2.195-0.223,2-2.214C15.484,11.141,13.589,8.208,13.589,8.208z"/>
</svg>
