<?xml version="1.0" encoding="utf-8"?>
<!-- Generator: Adobe Illustrator 16.0.0, SVG Export Plug-In . SVG Version: 6.00 Build 0)  -->
<!DOCTYPE svg PUBLIC "-//W3C//DTD SVG 1.1//EN" "http://www.w3.org/Graphics/SVG/1.1/DTD/svg11.dtd">
<svg version="1.1" id="Layer_1" xmlns="http://www.w3.org/2000/svg" xmlns:xlink="http://www.w3.org/1999/xlink" x="0px" y="0px"
	 width="16px" height="16px" viewBox="0 0 16 16" enable-background="new 0 0 16 16" xml:space="preserve">
<path fill-rule="evenodd" clip-rule="evenodd" fill="#020202" d="M2,3.5C2,3.224,2.224,3,2.5,3h11C13.776,3,14,3.224,14,3.5l0,0
	C14,3.776,13.776,4,13.5,4h-11C2.224,4,2,3.776,2,3.5L2,3.5z M4,6.5C4,6.776,4.224,7,4.5,7h7C11.776,7,12,6.776,12,6.5l0,0
	C12,6.224,11.776,6,11.5,6h-7C4.224,6,4,6.224,4,6.5L4,6.5z M2,9.5C2,9.776,2.224,10,2.5,10h11c0.276,0,0.5-0.224,0.5-0.5l0,0
	C14,9.224,13.776,9,13.5,9h-11C2.224,9,2,9.224,2,9.5L2,9.5z M4,12.5C4,12.776,4.224,13,4.5,13h7c0.276,0,0.5-0.224,0.5-0.5l0,0
	c0-0.276-0.224-0.5-0.5-0.5h-7C4.224,12,4,12.224,4,12.5L4,12.5z"/>
</svg>
