<?xml version="1.0" encoding="utf-8"?>
<!-- Generator: Adobe Illustrator 19.0.0, SVG Export Plug-In . SVG Version: 6.00 Build 0)  -->
<svg version="1.1" id="图层_1" xmlns="http://www.w3.org/2000/svg" xmlns:xlink="http://www.w3.org/1999/xlink" x="0px" y="0px"
	 viewBox="0 0 16 16" style="enable-background:new 0 0 16 16;" xml:space="preserve">
<style type="text/css">
	.st0{opacity:0.98;}
</style>
<path id="XMLID_23_" class="st0" d="M12.1,5c0.2,0.4,0.5,0.6,0.8,0.6h0.9c0.6,0,1-0.6,1-1.2V1.8c0-0.7-0.4-1.2-1-1.2H13
	c-0.6,0-1,0.6-1,1.2v0.3c-0.7,0.3-1.2,1.2-2,2.6C9.6,5.3,9.2,6.2,8.8,6.7C8.7,6.3,8.3,6,8,6H7C6.5,6,6.1,6.5,6,7.1
	C5.7,6.8,5.3,6.3,5,6C4.6,5.5,4.2,5.1,3.9,4.8V3.7c0-0.7-0.4-1.2-1-1.2H2C1.4,2.5,1,3,1,3.7v2.5c0,0.7,0.4,1.2,1,1.2h0.9
	c0.5,0,1-0.5,1-1.2C4,6.4,4.1,6.5,4.3,6.7c0.5,0.5,0.9,1.1,1.4,1.4C5.2,8.5,4.7,9,4.3,9.5C4.1,9.6,4,9.8,3.8,9.9c-0.1-0.6-0.5-1-1-1
	H2c-0.6,0-1,0.6-1,1.2v2.5c0,0.7,0.4,1.2,1,1.2h0.9c0.6,0,1-0.6,1-1.2v-1.4C4.2,11,4.6,10.6,5,10.2c0.3-0.3,0.7-0.8,1-1.1v0.7
	C6,10.4,6.5,11,7,11H8c0.6,0,1-0.6,1-1.2V9.6c0.3,0.5,0.7,1.1,1,1.5c0.7,1.2,1.3,2.1,2,2.4v0.3c0,0.7,0.4,1.2,1,1.2h0.9
	c0.6,0,1-0.6,1-1.2v-2.5c0-0.7-0.4-1.2-1-1.2H13c-0.4,0-0.7,0.3-0.9,0.7c-0.1-0.2-0.3-0.5-0.4-0.7c-0.5-0.8-0.9-1.5-1.4-2
	c0.5-0.6,0.9-1.4,1.4-2.3C11.8,5.5,12,5.3,12.1,5z M13,1.8c0-0.1,0-0.2,0.1-0.2h0.8c0,0,0.1,0.1,0.1,0.2v2.5c0,0.1,0,0.2-0.1,0.2H13
	c0,0-0.1-0.1-0.1-0.2V1.8z M2.9,6.2c0,0.1,0,0.2-0.1,0.2H2C2,6.4,2,6.3,2,6.2V3.7C2,3.6,2,3.5,2,3.5h0.8c0,0,0.1,0.1,0.1,0.2V6.2z
	 M2.9,12.7c0,0.1,0,0.2-0.1,0.2H2c0,0-0.1-0.1-0.1-0.2v-2.5C2,10.1,2,10,2,9.9h0.8c0,0,0.1,0.1,0.1,0.2V12.7z M8,9.8
	c0,0.1,0,0.2-0.1,0.2H7.1C7.1,10,7,9.9,7,9.8V7.2C7,7.1,7.1,7,7.1,7h0.8C7.9,7,8,7.1,8,7.2V9.8z M13,11.3c0-0.1,0-0.2,0.1-0.2h0.8
	c0,0,0.1,0.1,0.1,0.2v2.5c0,0.1,0,0.2-0.1,0.2H13c0,0-0.1-0.1-0.1-0.2V11.3z"/>
</svg>
