<?xml version="1.0" encoding="utf-8"?>
<!-- Generator: Adobe Illustrator 16.0.0, SVG Export Plug-In . SVG Version: 6.00 Build 0)  -->
<!DOCTYPE svg PUBLIC "-//W3C//DTD SVG 1.1//EN" "http://www.w3.org/Graphics/SVG/1.1/DTD/svg11.dtd">
<svg version="1.1" id="Layer_1" xmlns="http://www.w3.org/2000/svg" xmlns:xlink="http://www.w3.org/1999/xlink" x="0px" y="0px"
	 width="16px" height="16px" viewBox="0 0 16 16" enable-background="new 0 0 16 16" xml:space="preserve">
<path fill="#020202" d="M3.5,5.75c0.414,0,0.75,0.337,0.75,0.75S3.914,7.25,3.5,7.25S2.75,6.914,2.75,6.5S3.086,5.75,3.5,5.75
	 M3.5,5C2.671,5,2,5.672,2,6.5S2.671,8,3.5,8S5,7.329,5,6.5S4.329,5,3.5,5L3.5,5z M7.5,1.75c0.414,0,0.75,0.337,0.75,0.75
	S7.914,3.25,7.5,3.25S6.75,2.914,6.75,2.5S7.086,1.75,7.5,1.75 M7.5,1C6.671,1,6,1.672,6,2.5S6.671,4,7.5,4S9,3.329,9,2.5
	S8.329,1,7.5,1L7.5,1z M14.5,3.75c0.414,0,0.75,0.337,0.75,0.75s-0.336,0.75-0.75,0.75s-0.75-0.337-0.75-0.75S14.086,3.75,14.5,3.75
	 M14.5,3C13.672,3,13,3.672,13,4.5S13.672,6,14.5,6S16,5.329,16,4.5S15.328,3,14.5,3L14.5,3z M9.5,5.75
	c0.414,0,0.75,0.337,0.75,0.75S9.914,7.25,9.5,7.25S8.75,6.914,8.75,6.5S9.086,5.75,9.5,5.75 M9.5,5C8.671,5,8,5.672,8,6.5
	S8.671,8,9.5,8C10.328,8,11,7.329,11,6.5S10.328,5,9.5,5L9.5,5z M7.5,10.75c0.414,0,0.75,0.338,0.75,0.75
	c0,0.414-0.336,0.75-0.75,0.75s-0.75-0.336-0.75-0.75C6.75,11.088,7.086,10.75,7.5,10.75 M7.5,10C6.671,10,6,10.672,6,11.5
	S6.671,13,7.5,13S9,12.328,9,11.5S8.329,10,7.5,10L7.5,10z M2.5,11.75c0.414,0,0.75,0.338,0.75,0.75c0,0.414-0.336,0.75-0.75,0.75
	s-0.75-0.336-0.75-0.75C1.75,12.088,2.086,11.75,2.5,11.75 M2.5,11C1.671,11,1,11.672,1,12.5S1.671,14,2.5,14S4,13.328,4,12.5
	S3.329,11,2.5,11L2.5,11z"/>
</svg>
