<?xml version="1.0" encoding="utf-8"?>
<!-- Generator: Adobe Illustrator 16.0.0, SVG Export Plug-In . SVG Version: 6.00 Build 0)  -->
<!DOCTYPE svg PUBLIC "-//W3C//DTD SVG 1.1//EN" "http://www.w3.org/Graphics/SVG/1.1/DTD/svg11.dtd">
<svg version="1.1" id="Layer_1" xmlns="http://www.w3.org/2000/svg" xmlns:xlink="http://www.w3.org/1999/xlink" x="0px" y="0px"
	 width="16px" height="16px" viewBox="0 0 16 16" enable-background="new 0 0 16 16" xml:space="preserve">
<path fill="#010101" d="M15,12V7h-1v5h-1v1H3v-1H2V4h1V3h4V2H3V1H0v3h1v8H0v3h3v-1h10v1h3v-3H15z M1,2h1v1H1V2z M1,14v-1h1v1H1z
	 M15,14h-1v-1h1V14z M4,12V4h2v8H4z M7,7h2v5H7V7z M10,10h2v2h-2V10z M8,4.5C8,4.224,8.224,4,8.5,4H11V1.5C11,1.224,11.224,1,11.5,1
	S12,1.224,12,1.5V4h2.5C14.776,4,15,4.224,15,4.5S14.776,5,14.5,5H12v2.5C12,7.776,11.776,8,11.5,8S11,7.776,11,7.5V5H8.5
	C8.224,5,8,4.776,8,4.5z"/>
</svg>
