<?xml version="1.0" encoding="utf-8"?>
<!-- Generator: Adobe Illustrator 16.0.0, SVG Export Plug-In . SVG Version: 6.00 Build 0)  -->
<!DOCTYPE svg PUBLIC "-//W3C//DTD SVG 1.1//EN" "http://www.w3.org/Graphics/SVG/1.1/DTD/svg11.dtd">
<svg version="1.1" id="Layer_1" xmlns="http://www.w3.org/2000/svg" xmlns:xlink="http://www.w3.org/1999/xlink" x="0px" y="0px"
	 width="16px" height="16px" viewBox="0 0 16 16" enable-background="new 0 0 16 16" xml:space="preserve">
<path fill="#020202" d="M2,8h7v1H2V8z M2,11h5v-1H2V11z M3,7H2V2h3v5H4H3z M3,4h1V3H3V4z M3,6h1V5H3V6z M6,2h3v5H8H7H6V2z M8,5H7v1
	h1V5z M7,3v1h1V3H7z M11,6h-1v1h1V6z M12,11V9h-1v2h-1v1h1v1h1v-1h1v-1H12z M2,13h3v-1H2V13z M11,1V0h-1v1H11z M13,1V0h-1v1H13z
	 M13,15v-1h-1v1H13z M9,1V0H8v1H9z M7,1V0H6v1H7z M5,1V0H4v1H5z M3,1V0H2v1H3z M11,15v-1h-1v1H11z M9,15v-1H8v1H9z M7,15v-1H6v1H7z
	 M5,15v-1H4v1H5z M3,15v-1H2v1H3z M1,7V6H0v1H1z M1,1V0H0v1H1z M1,15v-1H0v1H1z M1,3V2H0v1H1z M1,5V4H0v1H1z M1,9V8H0v1H1z M1,11v-1
	H0v1H1z M1,13v-1H0v1H1z M15,13v-1h-1v1H15z M15,7V6h-1v1H15z M15,15v-1h-1v1H15z M15,3V2h-1v1H15z M15,1V0h-1v1H15z M15,5V4h-1v1
	H15z M15,9V8h-1v1H15z M15,11v-1h-1v1H15z M13,2h-1v5h1V2z"/>
</svg>
