<?xml version="1.0" encoding="utf-8"?>
<!-- Generator: Adobe Illustrator 16.0.0, SVG Export Plug-In . SVG Version: 6.00 Build 0)  -->
<!DOCTYPE svg PUBLIC "-//W3C//DTD SVG 1.1//EN" "http://www.w3.org/Graphics/SVG/1.1/DTD/svg11.dtd">
<svg version="1.1" id="Layer_1" xmlns="http://www.w3.org/2000/svg" xmlns:xlink="http://www.w3.org/1999/xlink" x="0px" y="0px"
	 width="16px" height="16px" viewBox="0 0 16 16" enable-background="new 0 0 16 16" xml:space="preserve">
<path fill="#020202" d="M16,4V1h-3v1H3V1H0v3h1v8H0v3h3v-1h10v1h3v-3h-1V4H16z M14,2h1v1h-1V2z M1,2h1v1H1V2z M1,14v-1h1v1H1z
	 M15,14h-1v-1h1V14z M14,12h-1v1H3v-1H2V4h1V3h10v1h1V12z M4,4h2v8H4V4z M7,8h2v4H7V8z M10,6h2v6h-2V6z"/>
</svg>
