<?xml version="1.0" encoding="utf-8"?>
<!-- Generator: Adobe Illustrator 19.0.0, SVG Export Plug-In . SVG Version: 6.00 Build 0)  -->
<svg version="1.1" id="图层_1" xmlns="http://www.w3.org/2000/svg" xmlns:xlink="http://www.w3.org/1999/xlink" x="0px" y="0px"
	 viewBox="-191 193 16 16" style="enable-background:new -191 193 16 16;" xml:space="preserve">
<style type="text/css">
	.st0{fill:#020202;}
</style>
<path class="st0" d="M-189.1,199.1l-0.3-1.2l-0.1-0.3l-0.4,1.6h-0.4l-0.6-2h0.4l0.3,1.2l0.1,0.4c0,0,0-0.2,0.1-0.4l0.3-1.2h0.4
	l0.3,1.2l0.1,0.4l0.1-0.4l0.3-1.2h0.3l-0.6,2H-189.1z M-187,199.2c-0.3,0-0.5-0.1-0.7-0.3c-0.2-0.2-0.3-0.4-0.3-0.8
	c0-0.4,0.1-0.7,0.3-0.8c0.2-0.2,0.4-0.2,0.6-0.2c0.3,0,0.5,0.1,0.7,0.3c0.2,0.2,0.3,0.4,0.3,0.8c0,0.3,0,0.5-0.1,0.6
	c-0.1,0.1-0.2,0.3-0.3,0.3C-186.7,199.1-186.9,199.2-187,199.2z M-187.5,198.7c0.1,0.1,0.3,0.2,0.4,0.2c0.2,0,0.3-0.1,0.4-0.2
	s0.2-0.3,0.2-0.6c0-0.3-0.1-0.4-0.2-0.6c-0.1-0.1-0.3-0.2-0.4-0.2c-0.2,0-0.3,0.1-0.4,0.2c-0.1,0.1-0.2,0.3-0.2,0.6
	S-187.6,198.6-187.5,198.7z M-185.4,198.1c0-0.1,0-0.3,0.1-0.4c0-0.1,0.1-0.1,0.1-0.2c0.1,0,0.1-0.1,0.2-0.1c0.1,0,0.2,0,0.3,0.1
	l0.1-0.3c-0.1-0.1-0.2-0.1-0.4-0.1c-0.1,0-0.2,0-0.2,0.1s-0.1,0.1-0.2,0.3v-0.3h-0.3v2h0.3V198.1z M-184.4,198.7
	c-0.1-0.2-0.1-0.3-0.1-0.6c0-0.2,0-0.4,0.1-0.6c0.1-0.2,0.2-0.3,0.3-0.4c0.1-0.1,0.3-0.1,0.5-0.1c0.1,0,0.2,0,0.3,0.1
	c0.1,0.1,0.2,0.1,0.2,0.2v-1h0.3v2.8h-0.3v-0.3c-0.1,0.2-0.3,0.3-0.6,0.3c-0.2,0-0.3,0-0.4-0.1C-184.2,199-184.3,198.8-184.4,198.7z
	 M-184.2,198.1c0,0.3,0.1,0.5,0.2,0.6c0.1,0.1,0.2,0.2,0.4,0.2c0.1,0,0.3-0.1,0.4-0.2c0.1-0.1,0.2-0.3,0.2-0.6
	c0-0.3-0.1-0.5-0.2-0.6s-0.2-0.2-0.4-0.2c-0.2,0-0.3,0.1-0.4,0.2C-184.1,197.7-184.2,197.9-184.2,198.1z M-183.4,202.8l-0.4-0.1
	c0,0.2-0.1,0.3-0.2,0.4s-0.2,0.1-0.4,0.1c-0.2,0-0.3-0.1-0.5-0.2c-0.1-0.1-0.2-0.4-0.2-0.7c0-0.3,0.1-0.5,0.2-0.7
	c0.1-0.1,0.3-0.2,0.5-0.2c0.1,0,0.2,0,0.3,0.1c0.1,0.1,0.2,0.2,0.2,0.4l0.4-0.1c0-0.2-0.1-0.4-0.3-0.5c-0.2-0.1-0.4-0.2-0.6-0.2
	c-0.2,0-0.4,0-0.6,0.1c-0.2,0.1-0.3,0.2-0.4,0.4c-0.1,0.2-0.1,0.4-0.1,0.7c0,0.4,0.1,0.7,0.3,0.9s0.4,0.3,0.8,0.3
	c0.3,0,0.5-0.1,0.6-0.2C-183.6,203.3-183.5,203-183.4,202.8z M-183.1,203.6h0.4v-3.2h-0.4V203.6z M-181.2,203.6
	c-0.3,0-0.6-0.1-0.8-0.3c-0.2-0.2-0.3-0.5-0.3-0.9c0-0.4,0.1-0.7,0.4-1c0.2-0.2,0.4-0.3,0.7-0.3c0.3,0,0.6,0.1,0.8,0.3
	s0.3,0.5,0.3,0.9c0,0.3,0,0.5-0.1,0.7c-0.1,0.2-0.2,0.3-0.4,0.4C-180.8,203.6-181,203.6-181.2,203.6z M-181.7,203.1
	c0.1,0.1,0.3,0.2,0.5,0.2c0.2,0,0.4-0.1,0.5-0.2c0.1-0.1,0.2-0.4,0.2-0.7c0-0.3-0.1-0.5-0.2-0.7c-0.1-0.1-0.3-0.2-0.5-0.2
	c-0.2,0-0.4,0.1-0.5,0.2c-0.1,0.1-0.2,0.4-0.2,0.7S-181.8,202.9-181.7,203.1z M-178.2,202.5c0,0.2,0,0.3-0.1,0.5s-0.1,0.2-0.2,0.2
	c-0.1,0.1-0.2,0.1-0.3,0.1s-0.2,0-0.3-0.1c-0.1-0.1-0.1-0.1-0.2-0.2c0-0.1,0-0.2,0-0.4v-1.3h-0.4v1.4c0,0.2,0,0.3,0,0.4
	c0,0.1,0.1,0.2,0.1,0.3c0.1,0.1,0.1,0.1,0.3,0.2c0.1,0.1,0.2,0.1,0.4,0.1c0.3,0,0.6-0.1,0.7-0.4v0.3h0.4v-2.3h-0.4V202.5z
	 M-175.3,200.4v3.2h-0.4v-0.3c-0.1,0.2-0.4,0.3-0.6,0.3c-0.2,0-0.4-0.1-0.5-0.2s-0.3-0.2-0.4-0.4c-0.1-0.2-0.1-0.4-0.1-0.6
	c0-0.2,0-0.4,0.1-0.6s0.2-0.3,0.3-0.4s0.3-0.2,0.5-0.2c0.1,0,0.3,0,0.4,0.1c0.1,0.1,0.2,0.1,0.3,0.2v-1.1H-175.3z M-175.6,202.5
	c0-0.3-0.1-0.6-0.2-0.7s-0.3-0.2-0.5-0.2c-0.2,0-0.3,0.1-0.4,0.2s-0.2,0.4-0.2,0.7c0,0.3,0.1,0.5,0.2,0.7c0.1,0.1,0.3,0.2,0.4,0.2
	c0.2,0,0.3-0.1,0.4-0.2S-175.6,202.7-175.6,202.5z M-181.3,198.6v0.2h0.2v-0.2h0.9c0.2,0,0.3,0,0.3,0s0.1-0.1,0.1-0.1s0-0.1,0-0.2
	c0-0.1,0-0.1,0-0.2l-0.2,0c0,0,0,0.1,0,0.1c0,0,0,0.1,0,0.1c0,0,0,0-0.1,0c0,0-0.1,0-0.2,0h-1v-0.3h-0.2v0.3h-0.6l0.2,0.3H-181.3z
	 M-181.2,197.5c0-0.1-0.1-0.2-0.1-0.4c0-0.1,0-0.3,0-0.3c0-0.1,0.1-0.2,0.1-0.2c0.1,0,0.1-0.1,0.2-0.1c0,0,0.1,0,0.3,0h0.4
	c0.3,0,0.4,0,0.5,0c0.1,0,0.1,0,0.2-0.1v0.3c-0.1,0-0.1,0-0.2,0.1c0.1,0.1,0.1,0.2,0.2,0.3c0,0.1,0.1,0.2,0.1,0.3
	c0,0.2,0,0.3-0.1,0.4c-0.1,0.1-0.2,0.1-0.3,0.1c-0.1,0-0.2,0-0.2-0.1s-0.1-0.1-0.2-0.1c0-0.1-0.1-0.1-0.1-0.2c0-0.1,0-0.1,0-0.2
	c0-0.2-0.1-0.4-0.1-0.5c0,0-0.1,0-0.1,0c-0.1,0-0.2,0-0.2,0.1c-0.1,0.1-0.1,0.2-0.1,0.3c0,0.1,0,0.2,0.1,0.3c0,0.1,0.1,0.1,0.2,0.1
	l0,0.3c-0.1,0-0.2-0.1-0.3-0.1S-181.2,197.6-181.2,197.5z M-180.4,196.7c0,0.1,0.1,0.3,0.1,0.5c0,0.1,0,0.2,0.1,0.2s0.1,0.1,0.1,0.1
	c0,0,0.1,0,0.1,0c0.1,0,0.1,0,0.2-0.1c0-0.1,0.1-0.1,0.1-0.2s0-0.2-0.1-0.3c0-0.1-0.1-0.1-0.2-0.2c-0.1,0-0.2,0-0.3,0H-180.4z
	 M-181.3,195.4c0-0.2,0.1-0.4,0.2-0.5h-0.2v-0.3h1.4c0.3,0,0.4,0,0.5,0.1c0.1,0.1,0.2,0.1,0.3,0.2c0.1,0.1,0.1,0.3,0.1,0.4
	c0,0.2,0,0.4-0.1,0.5c-0.1,0.1-0.2,0.2-0.4,0.2l0-0.3c0.1,0,0.1,0,0.2-0.1c0.1-0.1,0.1-0.2,0.1-0.3c0-0.1,0-0.2-0.1-0.3
	c-0.1-0.1-0.1-0.1-0.2-0.1c-0.1,0-0.2,0-0.4,0c0.1,0.1,0.2,0.3,0.2,0.5c0,0.2-0.1,0.4-0.2,0.5c-0.2,0.1-0.4,0.2-0.6,0.2
	c-0.2,0-0.3,0-0.4-0.1s-0.2-0.1-0.3-0.2C-181.3,195.7-181.3,195.6-181.3,195.4z M-181.1,195.4c0,0.1,0,0.2,0.2,0.3
	c0.1,0.1,0.2,0.1,0.4,0.1c0.2,0,0.4,0,0.5-0.1c0.1-0.1,0.1-0.2,0.1-0.3s0-0.2-0.1-0.3c-0.1-0.1-0.3-0.1-0.5-0.1
	c-0.2,0-0.4,0-0.5,0.1C-181,195.2-181.1,195.3-181.1,195.4z M-187.9,206.9c0,0.1,0,0.1,0.1,0.2h-0.3c0-0.1-0.1-0.1-0.1-0.2
	c-0.1,0.1-0.2,0.2-0.3,0.2c-0.1,0-0.2,0.1-0.3,0.1c-0.2,0-0.3,0-0.4-0.1c-0.1-0.1-0.2-0.2-0.2-0.4c0-0.1,0-0.2,0.1-0.2
	c0-0.1,0.1-0.1,0.2-0.2c0.1,0,0.1-0.1,0.2-0.1c0.1,0,0.1,0,0.3,0c0.2,0,0.4-0.1,0.5-0.1c0,0,0-0.1,0-0.1c0-0.1,0-0.2-0.1-0.3
	c-0.1-0.1-0.2-0.1-0.3-0.1c-0.1,0-0.2,0-0.3,0.1c-0.1,0-0.1,0.1-0.1,0.3l-0.3,0c0-0.1,0.1-0.2,0.1-0.3s0.1-0.1,0.3-0.2
	c0.1,0,0.2-0.1,0.4-0.1c0.1,0,0.3,0,0.4,0.1c0.1,0,0.2,0.1,0.2,0.1s0.1,0.1,0.1,0.2c0,0,0,0.1,0,0.3v0.4
	C-187.9,206.7-187.9,206.8-187.9,206.9z M-188.2,206.2c-0.1,0-0.3,0.1-0.5,0.1c-0.1,0-0.2,0-0.3,0.1c-0.1,0-0.1,0.1-0.1,0.1
	c0,0,0,0.1,0,0.1c0,0.1,0,0.1,0.1,0.2s0.1,0.1,0.3,0.1c0.1,0,0.2,0,0.3-0.1s0.2-0.1,0.2-0.2c0-0.1,0-0.2,0-0.3V206.2z M-186.3,205.4
	h0.3v1.5c0,0.3,0,0.5-0.1,0.6s-0.1,0.2-0.3,0.3c-0.1,0.1-0.3,0.1-0.4,0.1c-0.2,0-0.4,0-0.5-0.1s-0.2-0.2-0.2-0.4l0.3,0
	c0,0.1,0,0.2,0.1,0.2c0.1,0.1,0.2,0.1,0.3,0.1c0.1,0,0.2,0,0.3-0.1s0.1-0.1,0.2-0.2c0-0.1,0-0.2,0-0.4c-0.1,0.2-0.3,0.2-0.5,0.2
	c-0.2,0-0.4-0.1-0.6-0.3c-0.1-0.2-0.2-0.4-0.2-0.6c0-0.2,0-0.3,0.1-0.5s0.1-0.2,0.3-0.3c0.1-0.1,0.2-0.1,0.4-0.1
	c0.2,0,0.4,0.1,0.5,0.2V205.4z M-186.3,206.2c0-0.2,0-0.4-0.1-0.5c-0.1-0.1-0.2-0.2-0.3-0.2c-0.1,0-0.2,0.1-0.3,0.2
	c-0.1,0.1-0.1,0.3-0.1,0.5c0,0.2,0,0.4,0.1,0.5c0.1,0.1,0.2,0.2,0.3,0.2c0.1,0,0.2-0.1,0.3-0.2
	C-186.4,206.6-186.3,206.5-186.3,206.2z M-185.6,205.1h0.3v-0.3h-0.3V205.1z M-185.6,207.1h0.3v-1.7h-0.3V207.1z M-184.9,207.1h0.3
	v-2.4h-0.3V207.1z M-182.8,205.6c0.1,0.2,0.2,0.4,0.2,0.7c0,0,0,0,0,0.1h-1.3c0,0.2,0.1,0.3,0.2,0.4s0.2,0.2,0.4,0.2
	c0.1,0,0.2,0,0.3-0.1c0.1-0.1,0.1-0.1,0.2-0.3l0.3,0c0,0.2-0.1,0.3-0.3,0.4s-0.3,0.1-0.5,0.1c-0.3,0-0.5-0.1-0.6-0.2
	c-0.1-0.2-0.2-0.4-0.2-0.7c0-0.3,0.1-0.5,0.2-0.7c0.2-0.2,0.3-0.2,0.6-0.2C-183.2,205.3-183,205.4-182.8,205.6z M-182.9,206.1
	c0-0.1-0.1-0.3-0.1-0.3c-0.1-0.1-0.2-0.2-0.4-0.2c-0.1,0-0.2,0-0.3,0.1c-0.1,0.1-0.1,0.2-0.2,0.4H-182.9z M-179.6,206.1
	c0.1,0.1,0.1,0.2,0.1,0.4c0,0.1,0,0.2-0.1,0.3c0,0.1-0.1,0.2-0.2,0.2c-0.1,0.1-0.2,0.1-0.3,0.1c-0.1,0-0.2,0-0.4,0h-0.9v-2.4h0.9
	c0.2,0,0.3,0,0.4,0.1c0.1,0,0.2,0.1,0.3,0.2c0.1,0.1,0.1,0.2,0.1,0.3c0,0.1,0,0.2-0.1,0.3s-0.1,0.2-0.3,0.2
	C-179.8,205.9-179.7,206-179.6,206.1z M-181,205.7h0.5c0.1,0,0.2,0,0.3,0c0.1,0,0.1-0.1,0.2-0.1c0-0.1,0.1-0.1,0.1-0.2
	c0-0.1,0-0.2-0.1-0.2s-0.1-0.1-0.2-0.1c-0.1,0-0.2,0-0.4,0h-0.5V205.7z M-179.8,206.4c0-0.1,0-0.2-0.1-0.2c0-0.1-0.1-0.1-0.2-0.1
	c-0.1,0-0.2,0-0.4,0h-0.6v0.8h0.6c0.1,0,0.2,0,0.2,0c0.1,0,0.1,0,0.2-0.1c0,0,0.1-0.1,0.1-0.1C-179.8,206.6-179.8,206.5-179.8,206.4
	z M-179.1,205.1h0.3v-0.3h-0.3V205.1z M-179.1,207.1h0.3v-1.7h-0.3V207.1z M-187.1,203.6c0,0,0,0.1,0,0.2c0,0.1,0,0.1,0,0.2
	c0,0,0.1,0.1,0.1,0.1l0,0.1c-0.1,0-0.1,0-0.1-0.1s-0.1-0.1-0.1-0.1c0-0.1,0-0.1,0-0.2c0-0.1,0-0.1,0-0.2c0,0,0-0.1,0.1-0.1
	c0,0,0.1,0,0.1,0c0,0,0.1,0,0.1,0h0.2c0.1,0,0.2,0,0.3,0c0,0,0.1,0,0.1,0v0.2c0,0-0.1,0-0.1,0c0,0.1,0.1,0.1,0.1,0.2
	c0,0.1,0,0.1,0,0.2c0,0.1,0,0.2-0.1,0.2c0,0.1-0.1,0.1-0.2,0.1c0,0-0.1,0-0.1,0c0,0-0.1,0-0.1-0.1s0-0.1,0-0.1c0,0,0-0.1,0-0.1
	c0-0.1,0-0.2-0.1-0.3c0,0,0,0,0,0C-187.1,203.6-187.1,203.6-187.1,203.6z M-186.9,203.6c0,0.1,0,0.1,0.1,0.2c0,0.1,0,0.1,0,0.1
	c0,0,0,0,0,0.1s0,0,0.1,0c0,0,0.1,0,0.1,0c0,0,0-0.1,0-0.1s0-0.1,0-0.2c0,0-0.1-0.1-0.1-0.1C-186.7,203.6-186.7,203.6-186.9,203.6
	L-186.9,203.6z M-186.4,203.1h-1.2v0.1h1.2V203.1z M-187.6,202.8h0.2v-0.1h-0.2V202.8z M-187.3,202.8h0.9v-0.1h-0.9V202.8z
	 M-186.4,202c0-0.1-0.1-0.1-0.1-0.1c0,0-0.1,0-0.1,0c-0.1,0-0.1,0-0.1,0c0,0-0.1,0.1-0.1,0.1s0,0.1-0.1,0.2c0,0.1,0,0.1,0,0.1
	c0,0,0,0,0,0.1c0,0,0,0-0.1,0c0,0-0.1,0-0.1,0s0-0.1,0-0.1c0-0.1,0-0.1,0-0.1c0,0,0.1-0.1,0.1-0.1l0-0.1c-0.1,0-0.1,0-0.1,0.1
	c0,0-0.1,0.1-0.1,0.1c0,0.1,0,0.1,0,0.2c0,0,0,0.1,0,0.1c0,0,0,0.1,0,0.1c0,0,0,0.1,0.1,0.1c0,0,0.1,0,0.1,0c0,0,0.1,0,0.1,0
	s0.1-0.1,0.1-0.1c0,0,0-0.1,0.1-0.2c0-0.1,0-0.1,0.1-0.2c0,0,0,0,0.1,0c0,0,0.1,0,0.1,0c0,0,0,0.1,0,0.2c0,0.1,0,0.1,0,0.2
	c0,0-0.1,0.1-0.1,0.1l0,0.1c0.1,0,0.2-0.1,0.2-0.1c0-0.1,0.1-0.1,0.1-0.3C-186.4,202.1-186.4,202-186.4,202z M-186.4,201.5h-0.9v0.1
	h0.9V201.5z M-187.5,201.5h-0.2v0.1h0.2V201.5z M-186.4,200.8c0-0.1-0.1-0.1-0.1-0.1c0,0-0.1,0-0.1,0c-0.1,0-0.1,0-0.1,0
	c0,0-0.1,0.1-0.1,0.1s0,0.1-0.1,0.2c0,0.1,0,0.1,0,0.1c0,0,0,0,0,0.1c0,0,0,0-0.1,0c0,0-0.1,0-0.1,0c0,0,0-0.1,0-0.1
	c0-0.1,0-0.1,0-0.1c0,0,0.1-0.1,0.1-0.1l0-0.1c-0.1,0-0.1,0-0.1,0.1c0,0-0.1,0.1-0.1,0.1s0,0.1,0,0.2c0,0,0,0.1,0,0.1
	c0,0,0,0.1,0,0.1c0,0,0,0.1,0.1,0.1c0,0,0.1,0,0.1,0c0,0,0.1,0,0.1,0s0.1-0.1,0.1-0.1c0,0,0-0.1,0.1-0.2c0-0.1,0-0.1,0.1-0.2
	c0,0,0,0,0.1,0c0,0,0.1,0,0.1,0c0,0,0,0.1,0,0.2s0,0.1,0,0.2c0,0-0.1,0.1-0.1,0.1l0,0.1c0.1,0,0.2-0.1,0.2-0.1s0.1-0.1,0.1-0.3
	C-186.4,200.9-186.4,200.8-186.4,200.8z"/>
</svg>
