<?xml version="1.0" encoding="utf-8"?>
<!-- Generator: Adobe Illustrator 16.0.0, SVG Export Plug-In . SVG Version: 6.00 Build 0)  -->
<!DOCTYPE svg PUBLIC "-//W3C//DTD SVG 1.1//EN" "http://www.w3.org/Graphics/SVG/1.1/DTD/svg11.dtd">
<svg version="1.1" id="Layer_1" xmlns="http://www.w3.org/2000/svg" xmlns:xlink="http://www.w3.org/1999/xlink" x="0px" y="0px"
	 width="16px" height="16px" viewBox="0 0 16 16" enable-background="new 0 0 16 16" xml:space="preserve">
<path d="M1,15h13c0.553,0,1-0.447,1-1V1L1,15z M10.545,13.66C10.424,13.854,10.213,14,9.984,14c-0.01,0-0.021,0-0.021,0
	c-0.229,0-0.434-0.115-0.566-0.289L7.145,10.88c-0.232-0.307-0.172-0.747,0.135-0.981c0.309-0.23,0.744-0.172,0.977,0.135
	l1.641,2.018l2.957-4.747c0.203-0.326,0.633-0.426,0.959-0.223c0.328,0.203,0.426,0.633,0.223,0.96L10.545,13.66z"/>
</svg>
