<?xml version="1.0" encoding="utf-8"?>
<!-- Generator: Adobe Illustrator 19.0.0, SVG Export Plug-In . SVG Version: 6.00 Build 0)  -->
<svg version="1.1" id="图层_1" xmlns="http://www.w3.org/2000/svg" xmlns:xlink="http://www.w3.org/1999/xlink" x="0px" y="0px"
	 viewBox="0 0 16 16" style="enable-background:new 0 0 16 16;" xml:space="preserve">
<style type="text/css">
	.st0{fill:#000202;}
</style>
<g id="XMLID_1_">
	<path id="XMLID_11_" class="st0" d="M13.8,6.3l-2.3-0.7l0.9-3.5c0-0.1,0-0.3-0.1-0.4c-0.1-0.1-0.2-0.2-0.3-0.2L9.8,0.9
		c-0.1,0-0.3,0-0.4,0C9.3,1.1,9.2,1.2,9.2,1.3L8.2,4.7L5.6,4c-0.1,0-0.3,0-0.4,0S5,4.3,5,4.4l-1.4,5C3.3,10.7,2,12,2,12
		c-0.1,0.1-0.2,0.3-0.1,0.5c0,0.2,0.2,0.3,0.4,0.4l8.2,2.2c0,0,0.1,0,0.1,0c0.1,0,0.3-0.1,0.4-0.2c0.1-0.1,1.3-1.4,1.8-2.8
		c0.5-1.3,1.4-5.1,1.4-5.2C14.2,6.6,14,6.4,13.8,6.3z M11.8,11.7c-0.4,0.9-1.1,1.8-1.4,2.3l-1.1-0.3c0.5-0.6,1.1-1.5,1.4-2.5
		c0.1-0.3-0.1-0.5-0.4-0.6c-0.3-0.1-0.5,0.1-0.6,0.4c-0.3,1.1-1.2,2.1-1.5,2.4l-0.9-0.2c0.5-0.6,1.1-1.5,1.3-2.4
		c0.1-0.3-0.1-0.5-0.4-0.6c-0.3-0.1-0.5,0.1-0.6,0.4c-0.3,1-1.1,2-1.4,2.4l-1-0.3c0.5-0.6,1.1-1.5,1.4-2.4c0.1-0.3-0.1-0.5-0.4-0.6
		C6,9.5,5.7,9.7,5.7,9.9c-0.3,1-1.1,2-1.5,2.4l-0.9-0.3c0.5-0.6,1.1-1.5,1.3-2.4l1.2-4.6l2.6,0.7c0.1,0,0.3,0,0.4,0
		C8.9,5.7,9,5.6,9.1,5.5L10,2l1.3,0.3l-0.9,3.5c-0.1,0.3,0.1,0.5,0.3,0.6L13,7.1C12.8,8.2,12.2,10.8,11.8,11.7z"/>
	<path id="XMLID_12_" class="st0" d="M5.7,7.4C5.7,7.7,5.8,7.9,6.1,8l5.3,1.5c0,0,0.1,0,0.1,0c0.2,0,0.4-0.1,0.5-0.4
		c0.1-0.3-0.1-0.5-0.3-0.6L6.4,7C6.1,7,5.8,7.1,5.7,7.4z"/>
</g>
</svg>
