<?xml version="1.0" encoding="utf-8"?>
<!-- Generator: Adobe Illustrator 16.0.0, SVG Export Plug-In . SVG Version: 6.00 Build 0)  -->
<!DOCTYPE svg PUBLIC "-//W3C//DTD SVG 1.1//EN" "http://www.w3.org/Graphics/SVG/1.1/DTD/svg11.dtd">
<svg version="1.1" id="Layer_1" xmlns="http://www.w3.org/2000/svg" xmlns:xlink="http://www.w3.org/1999/xlink" x="0px" y="0px"
	 width="24px" height="24px" viewBox="0 0 24 24" enable-background="new 0 0 24 24" xml:space="preserve">
<path d="M17.482,22.85c-0.276,0-0.5-0.224-0.5-0.5v-2.644c0-0.13,0.051-0.256,0.142-0.349c0.024-0.025,2.412-2.524,3.16-6.782
	c0.182-1.037,0.38-1.895,0.539-2.584c0.493-2.137,0.471-2.39-0.241-2.71c-0.114-0.05-0.222-0.05-0.35,0.001
	c-0.609,0.242-1.286,1.424-1.57,2.112l-0.224,0.722c-0.074,0.237-0.313,0.384-0.557,0.344c-0.245-0.04-0.425-0.253-0.421-0.501
	c0.001-0.031,0.044-3.067,0-4.212l-0.009-0.298c-0.034-1.324-0.143-2.138-1.361-2.291c-0.711-0.086-1.174,0.557-1.322,0.802v5.456
	c0,0.276-0.224,0.5-0.5,0.5s-0.5-0.224-0.5-0.5V3.85c-0.123-0.243-0.589-1-1.618-1c-1.017,0-1.359,0.654-1.438,0.846v5.681
	c0,0.276-0.224,0.5-0.5,0.5s-0.5-0.224-0.5-0.5V7.83C9.675,7.614,9.125,6.61,8.637,5.824C8.44,5.462,7.808,4.553,7.065,4.374
	C6.723,4.29,6.388,4.368,6.037,4.609C5.023,5.304,6.172,7.481,6.663,8.411c0.086,0.164,0.158,0.3,0.205,0.4
	c0.235,0.5,0.523,0.997,0.803,1.477c0.492,0.846,0.88,1.514,0.88,2.034c0,0.182,0,0.607-0.381,0.769
	c-0.418,0.17-0.677-0.08-1.449-0.837l-0.503-0.49c-1.166-1.124-2.395-1.03-2.895-0.706c-0.201,0.13,0.007,1.151,0.788,2.455
	c0.094,0.156,0.204,0.371,0.334,0.629c0.525,1.037,1.404,2.771,3.212,4.271c0.557,0.463,1.497,1.547,1.497,2.677v1.261
	c0,0.276-0.224,0.5-0.5,0.5s-0.5-0.224-0.5-0.5v-1.261c0-0.701-0.696-1.542-1.135-1.908c-1.967-1.63-2.905-3.48-3.465-4.587
	c-0.118-0.232-0.215-0.426-0.3-0.566c-0.534-0.892-1.649-3.047-0.474-3.808c0.974-0.634,2.707-0.55,4.133,0.825l0.094,0.092
	c-0.067-0.118-0.135-0.234-0.2-0.346c-0.277-0.476-0.59-1.015-0.844-1.554C5.92,9.147,5.856,9.025,5.778,8.878
	C5.163,7.712,3.723,4.982,5.471,3.784c0.592-0.406,1.21-0.533,1.833-0.382c1.331,0.325,2.164,1.857,2.198,1.922
	c0.069,0.11,0.139,0.226,0.21,0.343V3.611c0-0.046,0.006-0.093,0.019-0.137C9.893,2.912,10.604,1.85,12.15,1.85
	c1.114,0,1.802,0.566,2.185,1.047c0.397-0.415,1.029-0.84,1.881-0.73c2.158,0.27,2.207,2.14,2.236,3.256l0.009,0.287
	c0.018,0.459,0.021,1.195,0.02,1.927c0.361-0.536,0.834-1.066,1.382-1.284c0.38-0.151,0.77-0.146,1.13,0.016
	c1.534,0.69,1.26,1.878,0.806,3.847c-0.157,0.678-0.352,1.521-0.529,2.532c-0.704,4.012-2.726,6.521-3.286,7.153v2.448
	C17.982,22.626,17.759,22.85,17.482,22.85z"/>
</svg>
