<?xml version="1.0" encoding="utf-8"?>
<!-- Generator: Adobe Illustrator 16.0.0, SVG Export Plug-In . SVG Version: 6.00 Build 0)  -->
<!DOCTYPE svg PUBLIC "-//W3C//DTD SVG 1.1//EN" "http://www.w3.org/Graphics/SVG/1.1/DTD/svg11.dtd">
<svg version="1.1" id="Layer_1" xmlns="http://www.w3.org/2000/svg" xmlns:xlink="http://www.w3.org/1999/xlink" x="0px" y="0px"
	 width="16px" height="16px" viewBox="0 0 16 16" enable-background="new 0 0 16 16" xml:space="preserve">
<path fill="#010101" d="M6.68,14.916c-0.156,0-0.303-0.073-0.397-0.196L4.208,12H2.463C1.656,12,1,11.428,1,10.621V3.463
	C1,2.656,1.656,2,2.463,2h10.074C13.344,2,14,2.656,14,3.463v7.158C14,11.428,13.344,12,12.537,12H9.151l-2.073,2.72
	C6.983,14.843,6.836,14.916,6.68,14.916z M2.463,3C2.208,3,2,3.208,2,3.463v7.158c0,0.255,0.208,0.463,0.463,0.463h1.993
	c0.156,0,0.303,0.073,0.397,0.196l1.827,2.312l1.827-2.312c0.095-0.123,0.241-0.196,0.397-0.196h3.633
	c0.255,0,0.463-0.208,0.463-0.463V3.463C13,3.208,12.792,3,12.537,3H2.463z M3.656,5h7.828c0.284,0.024,0.514,0.207,0.514,0.49
	c0,0.285-0.229,0.496-0.514,0.496H3.656c-0.283,0-0.514-0.211-0.514-0.496C3.143,5.207,3.373,5.024,3.656,5z M3.656,8h7.828
	c0.284,0.024,0.514,0.207,0.514,0.49c0,0.285-0.229,0.496-0.514,0.496H3.656c-0.283,0-0.514-0.211-0.514-0.496
	C3.143,8.207,3.373,8.024,3.656,8z"/>
</svg>
