<?xml version="1.0" encoding="utf-8"?>
<!-- Generator: Adobe Illustrator 16.0.0, SVG Export Plug-In . SVG Version: 6.00 Build 0)  -->
<!DOCTYPE svg PUBLIC "-//W3C//DTD SVG 1.1//EN" "http://www.w3.org/Graphics/SVG/1.1/DTD/svg11.dtd">
<svg version="1.1" id="Layer_1" xmlns="http://www.w3.org/2000/svg" xmlns:xlink="http://www.w3.org/1999/xlink" x="0px" y="0px"
	 width="24px" height="24px" viewBox="0 0 24 24" enable-background="new 0 0 24 24" xml:space="preserve">
<path d="M20.437,11.5c-0.969,0-1.884,0.472-2.456,1.275c-0.01,0.013-0.023,0.032-0.039,0.054c-0.019-0.084-0.026-0.212-0.012-0.354
	V8.5c0-1.374-1.115-2.491-2.486-2.499v-0.01l-3.972,0c-0.113-0.005-0.234-0.016-0.321-0.041c0.001,0,0.001-0.001,0.002-0.001
	c0.808-0.562,1.29-1.483,1.29-2.465c0-1.654-1.346-3-3-3s-3,1.346-3,3c0,0.969,0.472,1.883,1.275,2.456
	C7.731,5.95,7.75,5.963,7.772,5.979C7.688,5.997,7.56,6.005,7.418,5.991H3.383v0.014C2.026,6.03,0.93,7.138,0.93,8.5h0.009
	l0.004,3.908c-0.058,0.426,0.026,1.211,0.705,1.453c0.421,0.15,0.811-0.02,1.165-0.518C3.189,12.815,3.799,12.5,4.445,12.5
	c1.103,0,2,0.896,2,2s-0.897,2-2,2c-0.655,0-1.27-0.322-1.653-0.874c-0.396-0.575-0.819-0.575-1.106-0.468
	c-0.773,0.281-0.752,1.297-0.748,1.39v3.909C0.937,20.472,0.93,20.484,0.93,20.5c0,1.379,1.122,2.5,2.5,2.5h12.5
	c0.276,0,0.5-0.224,0.5-0.5s-0.224-0.5-0.5-0.5H3.43c-0.827,0-1.5-0.673-1.5-1.5h0.009l0-3.971
	c-0.003-0.111,0.016-0.234,0.041-0.321c0,0.001,0.001,0.001,0.001,0.003C2.542,17.018,3.463,17.5,4.445,17.5c1.654,0,3-1.346,3-3
	s-1.346-3-3-3c-0.969,0-1.883,0.472-2.456,1.275c-0.009,0.013-0.023,0.032-0.039,0.054c-0.019-0.084-0.026-0.212-0.012-0.354V8.5
	H1.93c0-0.827,0.673-1.5,1.5-1.5V6.991l3.921-0.004C7.42,6.996,7.499,7.001,7.583,7.001c0.435,0,1.019-0.15,1.222-0.72
	c0.151-0.422-0.02-0.811-0.519-1.165C7.758,4.741,7.443,4.13,7.443,3.484c0-1.103,0.897-2,2-2s2,0.897,2,2
	c0,0.655-0.322,1.27-0.874,1.653c-0.576,0.396-0.573,0.82-0.468,1.106c0.281,0.772,1.296,0.753,1.39,0.748h3.896
	C15.401,6.993,15.414,7,15.43,7c0.827,0,1.5,0.673,1.5,1.5l0.004,3.908c-0.057,0.426,0.026,1.211,0.705,1.453
	c0.42,0.15,0.811-0.02,1.165-0.518c0.376-0.529,0.987-0.844,1.633-0.844c1.103,0,2,0.896,2,2s-0.897,2-2,2
	c-0.655,0-1.27-0.322-1.653-0.874c-0.396-0.575-0.818-0.575-1.105-0.468c-0.773,0.281-0.752,1.297-0.748,1.39V20
	c0,0.276,0.224,0.5,0.5,0.5s0.5-0.224,0.5-0.5v-3.471c-0.004-0.111,0.016-0.234,0.04-0.321c0.001,0.001,0.001,0.001,0.001,0.003
	c0.562,0.807,1.484,1.289,2.466,1.289c1.654,0,3-1.346,3-3S22.091,11.5,20.437,11.5z"/>
</svg>
