<?xml version="1.0" encoding="utf-8"?>
<!-- Generator: Adobe Illustrator 16.0.0, SVG Export Plug-In . SVG Version: 6.00 Build 0)  -->
<!DOCTYPE svg PUBLIC "-//W3C//DTD SVG 1.1//EN" "http://www.w3.org/Graphics/SVG/1.1/DTD/svg11.dtd">
<svg version="1.1" id="Layer_1" xmlns="http://www.w3.org/2000/svg" xmlns:xlink="http://www.w3.org/1999/xlink" x="0px" y="0px"
	 width="16px" height="16px" viewBox="0 0 16 16" enable-background="new 0 0 16 16" xml:space="preserve">
<path fill="#010101" d="M12.184,13.557c-0.874,0.656-1.904,1.139-3.027,1.34c-0.005,0.001-0.01,0.001-0.016,0.002
	C8.77,14.965,8.388,15,7.998,15C4.142,15,1.016,11.831,1,7.97c0.015-3.512,2.617-6.405,5.998-6.891v3.062
	c-1.722,0.446-3,1.997-3,3.858c0,2.209,1.791,4,4,4c0.754,0,1.45-0.221,2.052-0.583L12.184,13.557z M13.344,3.485L11.205,5.63
	c0.492,0.665,0.793,1.479,0.793,2.37c0,1.035-0.403,1.969-1.048,2.679l2.125,2.132c1.188-1.255,1.923-2.945,1.923-4.811
	C14.998,6.278,14.374,4.704,13.344,3.485z M12.595,2.729C11.364,1.655,9.76,1,7.998,1v3c0.934,0,1.782,0.333,2.463,0.87
	L12.595,2.729z"/>
</svg>
