<?xml version="1.0" encoding="utf-8"?>
<!-- Generator: Adobe Illustrator 19.0.0, SVG Export Plug-In . SVG Version: 6.00 Build 0)  -->
<svg version="1.1" id="图层_1" xmlns="http://www.w3.org/2000/svg" xmlns:xlink="http://www.w3.org/1999/xlink" x="0px" y="0px"
	 viewBox="0 0 16 16" style="enable-background:new 0 0 16 16;" xml:space="preserve">
<path id="XMLID_1_" d="M11,1H4C2.3,1,1,2.3,1,4s1.3,3,3,3h7c1.7,0,3-1.3,3-3S12.6,1,11,1L11,1z M12,9c1.1,0,2,0.9,2,2s-0.9,2-2,2H5
	c-1.1,0-2-0.9-2-2s0.9-2,2-2H12 M12,8H5c-1.7,0-3,1.3-3,3s1.3,3,3,3h7c1.7,0,3-1.3,3-3S13.6,8,12,8L12,8z"/>
</svg>
