<?xml version="1.0" encoding="utf-8"?>
<!-- Generator: Adobe Illustrator 16.0.0, SVG Export Plug-In . SVG Version: 6.00 Build 0)  -->
<!DOCTYPE svg PUBLIC "-//W3C//DTD SVG 1.1//EN" "http://www.w3.org/Graphics/SVG/1.1/DTD/svg11.dtd">
<svg version="1.1" id="Layer_1" xmlns="http://www.w3.org/2000/svg" xmlns:xlink="http://www.w3.org/1999/xlink" x="0px" y="0px"
	 width="16px" height="16px" viewBox="0 0 16 16" enable-background="new 0 0 16 16" xml:space="preserve">
<path fill="#010101" d="M15.562,16H7.438C7.197,16,7,15.803,7,15.562V6.438C7,6.197,7.197,6,7.487,6h5.537L16,9v6.562
	C16,15.803,15.803,16,15.562,16z M13,7v2h2L13,7z M15,10h-2.976V7H8v8h7V10z M6,11H2V2h4.024v3H9h1V4L7.024,1H1.487
	C1.197,1,1,1.197,1,1.438v10.125C1,11.803,1.197,12,1.438,12H6V11z M7,2l2,2H7V2z"/>
</svg>
