<?xml version="1.0" encoding="utf-8"?>
<!-- Generator: Adobe Illustrator 16.0.0, SVG Export Plug-In . SVG Version: 6.00 Build 0)  -->
<!DOCTYPE svg PUBLIC "-//W3C//DTD SVG 1.1//EN" "http://www.w3.org/Graphics/SVG/1.1/DTD/svg11.dtd">
<svg version="1.1" id="Layer_1" xmlns="http://www.w3.org/2000/svg" xmlns:xlink="http://www.w3.org/1999/xlink" x="0px" y="0px"
	 width="16px" height="16px" viewBox="0 0 16 16" enable-background="new 0 0 16 16" xml:space="preserve">
<path fill-rule="evenodd" clip-rule="evenodd" d="M8,1C4.135,1,1,4.135,1,8c0,3.866,3.135,7,7,7c3.867,0,7-3.134,7-7
	C15,4.135,11.867,1,8,1z M8,14.012c-3.32,0-6.012-2.691-6.012-6.012S4.68,1.988,8,1.988S14.01,4.68,14.01,8S11.32,14.012,8,14.012z
	 M5.583,6c0.323,0,0.584,0.262,0.584,0.584c0,0.323-0.261,0.585-0.584,0.585c-0.322,0-0.584-0.262-0.584-0.585
	C4.999,6.262,5.261,6,5.583,6z M10.499,6c0.322,0,0.584,0.262,0.584,0.584c0,0.323-0.262,0.585-0.584,0.585S9.914,6.907,9.914,6.584
	C9.914,6.262,10.177,6,10.499,6z M5.5,11C5.224,11,5,10.776,5,10.5l0,0C5,10.224,5.224,10,5.5,10h5c0.276,0,0.5,0.224,0.5,0.5l0,0
	c0,0.276-0.224,0.5-0.5,0.5H5.5z"/>
</svg>
