<?xml version="1.0" encoding="utf-8"?>
<!-- Generator: Adobe Illustrator 16.0.0, SVG Export Plug-In . SVG Version: 6.00 Build 0)  -->
<!DOCTYPE svg PUBLIC "-//W3C//DTD SVG 1.1//EN" "http://www.w3.org/Graphics/SVG/1.1/DTD/svg11.dtd">
<svg version="1.1" id="Layer_1" xmlns="http://www.w3.org/2000/svg" xmlns:xlink="http://www.w3.org/1999/xlink" x="0px" y="0px"
	 width="16px" height="16px" viewBox="0 0 16 16" enable-background="new 0 0 16 16" xml:space="preserve">
<path fill-rule="evenodd" clip-rule="evenodd" fill="#020202" d="M13.956,12.5c0,0.276-0.224,0.5-0.5,0.5h-11
	c-0.276,0-0.5-0.224-0.5-0.5l0,0c0-0.276,0.224-0.5,0.5-0.5h11C13.732,12,13.956,12.224,13.956,12.5L13.956,12.5z M14,9.5
	C14,9.224,13.776,9,13.5,9H2.456c-0.276,0-0.5,0.224-0.5,0.5l0,0c0,0.276,0.224,0.5,0.5,0.5H13.5C13.776,10,14,9.776,14,9.5L14,9.5z
	 M6.5,6.5C6.5,6.224,6.276,6,6,6H2.456c-0.276,0-0.5,0.224-0.5,0.5l0,0c0,0.276,0.224,0.5,0.5,0.5H6C6.276,7,6.5,6.776,6.5,6.5
	L6.5,6.5z M6.5,3.5C6.5,3.224,6.276,3,6,3H2.456c-0.276,0-0.5,0.224-0.5,0.5l0,0c0,0.276,0.224,0.5,0.5,0.5H6
	C6.276,4,6.5,3.776,6.5,3.5L6.5,3.5z M13.978,4.346C13.978,3.603,13.375,3,12.633,3c-0.744,0-1.346,0.603-1.346,1.346
	s0.602,1.346,1.346,1.346c0.087,0,0.172-0.01,0.253-0.025c-0.229,0.661-0.742,0.835-1.399,1.012l0.25,0.358
	c1.92-0.341,2.264-2.258,2.241-2.242C14.028,4.654,13.978,4.504,13.978,4.346z M10.478,4.346C10.478,3.603,9.875,3,9.133,3
	C8.389,3,7.787,3.603,7.787,4.346s0.602,1.346,1.346,1.346c0.087,0,0.172-0.01,0.253-0.025C9.157,6.328,8.644,6.502,7.986,6.679
	l0.25,0.358c1.92-0.341,2.264-2.258,2.241-2.242C10.528,4.654,10.478,4.504,10.478,4.346z"/>
</svg>
