<?xml version="1.0" encoding="utf-8"?>
<!-- Generator: Adobe Illustrator 16.0.0, SVG Export Plug-In . SVG Version: 6.00 Build 0)  -->
<!DOCTYPE svg PUBLIC "-//W3C//DTD SVG 1.1//EN" "http://www.w3.org/Graphics/SVG/1.1/DTD/svg11.dtd">
<svg version="1.1" id="Layer_1" xmlns="http://www.w3.org/2000/svg" xmlns:xlink="http://www.w3.org/1999/xlink" x="0px" y="0px"
	 width="16px" height="16px" viewBox="0 0 16 16" enable-background="new 0 0 16 16" xml:space="preserve">
<path fill="#020202" d="M13.503,3.838c0.017-0.029,0.038-0.061,0.051-0.086c0.708-1.38-0.097-2.604-0.097-2.604l-2.594,2.595
	l-1.21,1.21L7.822,6.786L2.397,1.361c0,0-0.705,1.122,0.004,2.502c0.39,0.757,2.292,2.666,3.979,4.366L5.362,9.247
	c-1.275-0.692-2.526-0.37-3.468,0.572c-1.187,1.189-1.196,3.094-0.007,4.281s3.129,1.195,4.316,0.008
	c0.875-0.875,1.115-2.14,0.702-3.225c0.229-0.223,0.634-0.615,1.128-1.104c0.498,0.486,0.9,0.876,1.131,1.098
	c-0.414,1.086-0.182,2.357,0.693,3.232c1.188,1.188,3.114,1.186,4.303-0.002c1.188-1.188,1.082-3.01-0.105-4.197
	c-0.941-0.942-2.311-1.171-3.584-0.478L9.426,8.389c1.166-1.195,2.371-2.472,3.203-3.447C12.629,4.942,13.371,4.093,13.503,3.838z
	 M5.335,13.233c-0.707,0.707-1.852,0.707-2.559,0.002c-0.706-0.707-0.707-1.852,0-2.559C3.481,9.97,4.627,9.97,5.333,10.676
	C6.041,11.382,6.041,12.526,5.335,13.233z M7.433,7.735c0.292-0.293,0.769-0.293,1.061,0c0.293,0.292,0.293,0.768,0,1.061
	c-0.292,0.292-0.769,0.292-1.061,0C7.14,8.503,7.14,8.027,7.433,7.735z M13.289,10.677c0.707,0.707,0.707,1.853,0,2.559
	c-0.706,0.707-1.852,0.707-2.559,0c-0.705-0.706-0.706-1.852,0-2.559C11.438,9.972,12.583,9.972,13.289,10.677z"/>
</svg>
