<?xml version="1.0" encoding="utf-8"?>
<!-- Generator: Adobe Illustrator 16.0.0, SVG Export Plug-In . SVG Version: 6.00 Build 0)  -->
<!DOCTYPE svg PUBLIC "-//W3C//DTD SVG 1.1//EN" "http://www.w3.org/Graphics/SVG/1.1/DTD/svg11.dtd">
<svg version="1.1" id="Layer_1" xmlns="http://www.w3.org/2000/svg" xmlns:xlink="http://www.w3.org/1999/xlink" x="0px" y="0px"
	 width="24px" height="24px" viewBox="0 0 24 24" enable-background="new 0 0 24 24" xml:space="preserve">
<path d="M12,2.559c-1.489,0-2.914,0.291-4.273,0.871C6.37,4.01,5.198,4.791,4.215,5.773C3.233,6.755,2.452,7.927,1.872,9.285
	C1.291,10.645,1,12.069,1,13.559c0,1.523,0.295,2.963,0.884,4.322c0.589,1.358,1.407,2.545,2.456,3.561h15.32
	c1.049-1.016,1.867-2.204,2.456-3.561C22.706,16.521,23,15.082,23,13.559c0-1.489-0.291-2.914-0.871-4.274
	c-0.58-1.357-1.36-2.529-2.344-3.512c-0.981-0.982-2.152-1.763-3.513-2.343C14.915,2.85,13.49,2.559,12,2.559L12,2.559z
	 M18.999,19.87H5.002c-1.621-1.786-2.432-3.889-2.432-6.312c0-1.702,0.423-3.277,1.265-4.727c0.843-1.449,1.989-2.595,3.438-3.438
	C8.722,4.552,10.298,4.13,12,4.13s3.278,0.422,4.727,1.263c1.448,0.844,2.595,1.989,3.438,3.438s1.265,3.025,1.265,4.727
	C21.429,15.981,20.618,18.084,18.999,19.87L18.999,19.87L18.999,19.87z M5.371,13.117L3.383,12.75l0.197-1.105l1.988,0.368
	L5.371,13.117z M18.434,12.012l1.988-0.369l0.196,1.104l-1.989,0.37L18.434,12.012z M7.287,8.845L5.985,7.297l0.86-0.711
	l1.299,1.547L7.287,8.845z M16.715,8.845l-0.86-0.712l1.302-1.547l0.859,0.711L16.715,8.845z M11.437,4.915h1.129v2.014h-1.129
	V4.915z M12.049,13.608L8.661,9.827l1.89,4.617c-0.327,0.589-0.317,1.17,0.026,1.743c0.244,0.393,0.596,0.643,1.055,0.749
	c0.457,0.105,0.883,0.032,1.276-0.221c0.392-0.254,0.642-0.606,0.749-1.057c0.107-0.451,0.037-0.872-0.208-1.265
	C13.121,13.887,12.655,13.625,12.049,13.608L12.049,13.608z"/>
</svg>
