<?xml version="1.0" encoding="utf-8"?>
<!-- Generator: Adobe Illustrator 16.0.0, SVG Export Plug-In . SVG Version: 6.00 Build 0)  -->
<!DOCTYPE svg PUBLIC "-//W3C//DTD SVG 1.1//EN" "http://www.w3.org/Graphics/SVG/1.1/DTD/svg11.dtd">
<svg version="1.1" id="Layer_1" xmlns="http://www.w3.org/2000/svg" xmlns:xlink="http://www.w3.org/1999/xlink" x="0px" y="0px"
	 width="16px" height="16px" viewBox="0 0 16 16" enable-background="new 0 0 16 16" xml:space="preserve">
<path fill="#010101" d="M8,1C4.687,1,2,2.343,2,4v8.479h0.034C2.349,13.987,4.899,15.163,8,15.163c3.242,0,5.877-1.286,5.989-2.895
	H14V4C14,2.343,11.313,1,8,1z M8,2c3.052,0,5,1.185,5,2s-1.948,2-5,2S3,4.815,3,4S4.948,2,8,2z M8,14.163c-3.052,0-5-1.185-5-2
	V5.657C4.075,6.466,5.912,7,8,7s3.926-0.534,5-1.343v6.506C13,12.979,11.052,14.163,8,14.163z"/>
</svg>
