<?xml version="1.0" encoding="utf-8"?>
<!-- Generator: Adobe Illustrator 16.0.0, SVG Export Plug-In . SVG Version: 6.00 Build 0)  -->
<!DOCTYPE svg PUBLIC "-//W3C//DTD SVG 1.1//EN" "http://www.w3.org/Graphics/SVG/1.1/DTD/svg11.dtd">
<svg version="1.1" id="Layer_1" xmlns="http://www.w3.org/2000/svg" xmlns:xlink="http://www.w3.org/1999/xlink" x="0px" y="0px"
	 width="24px" height="24px" viewBox="0 0 24 24" enable-background="new 0 0 24 24" xml:space="preserve">
<path id="data" d="M12,1C7.364,1,2.375,2.398,2.375,5.469v13.062C2.375,21.601,7.364,23,12,23c4.636,0,9.625-1.399,9.625-4.469
	V5.469C21.625,2.398,16.635,1,12,1z M20.25,18.531c0,1.708-3.693,3.094-8.25,3.094c-4.556,0-8.25-1.386-8.25-3.094v-2.569
	c1.421,1.465,4.846,2.226,8.25,2.226c3.403,0,6.829-0.761,8.25-2.226V18.531z M20.25,14.406h-0.003c0,0.006,0.003,0.016,0.003,0.021
	c0,1.697-3.693,3.072-8.25,3.072c-4.556,0-8.25-1.375-8.25-3.072c0-0.006,0.003-0.016,0.003-0.021H3.75v-2.569
	c1.421,1.463,4.846,2.225,8.25,2.225c3.403,0,6.829-0.762,8.25-2.225V14.406z M20.25,10.281h-0.003l0.003,0.021
	c0,1.697-3.693,3.072-8.25,3.072c-4.556,0-8.25-1.375-8.25-3.072l0.003-0.021H3.75V7.919C5.552,9.292,8.854,9.938,12,9.938
	c3.146,0,6.448-0.646,8.25-2.018V10.281z M12,8.562c-4.556,0-8.25-1.386-8.25-3.094c0-1.709,3.694-3.094,8.25-3.094
	c4.557,0,8.25,1.384,8.25,3.094C20.25,7.177,16.557,8.562,12,8.562z M18.188,18.188c0.381,0,0.688,0.307,0.688,0.688
	s-0.307,0.688-0.688,0.688S17.5,19.256,17.5,18.875S17.807,18.188,18.188,18.188z M18.188,14.062c0.381,0,0.688,0.307,0.688,0.688
	s-0.307,0.688-0.688,0.688S17.5,15.131,17.5,14.75S17.807,14.062,18.188,14.062z M18.188,9.938c0.381,0,0.688,0.307,0.688,0.688
	s-0.307,0.688-0.688,0.688S17.5,11.005,17.5,10.625S17.807,9.938,18.188,9.938z"/>
</svg>
