<?xml version="1.0" encoding="utf-8"?>
<!-- Generator: Adobe Illustrator 16.0.0, SVG Export Plug-In . SVG Version: 6.00 Build 0)  -->
<!DOCTYPE svg PUBLIC "-//W3C//DTD SVG 1.1//EN" "http://www.w3.org/Graphics/SVG/1.1/DTD/svg11.dtd">
<svg version="1.1" id="Layer_1" xmlns="http://www.w3.org/2000/svg" xmlns:xlink="http://www.w3.org/1999/xlink" x="0px" y="0px"
	 width="24px" height="24px" viewBox="0 0 24 24" enable-background="new 0 0 24 24" xml:space="preserve">
<g id="Your_Icon_2_">
	<path d="M15.202,22.58c-0.053,0-0.105-0.009-0.157-0.025c-0.126-0.042-0.229-0.132-0.289-0.25l-3.688-7.335l-4.271,4.55
		c-0.141,0.151-0.359,0.197-0.55,0.123c-0.191-0.076-0.316-0.262-0.315-0.467L6.008,2.078c0.001-0.189,0.108-0.362,0.278-0.446
		c0.169-0.084,0.372-0.066,0.523,0.05l13.542,10.253c0.163,0.123,0.234,0.333,0.181,0.53s-0.223,0.342-0.426,0.365l-6.911,0.793
		c-0.259,0.026-0.522-0.166-0.554-0.44s0.166-0.521,0.44-0.554l5.671-0.65L7.003,3.083L6.938,17.908l3.891-4.145
		c0.112-0.12,0.272-0.174,0.437-0.153c0.162,0.023,0.302,0.125,0.375,0.271l3.784,7.528l1.05-0.528l-2.73-5.389
		c-0.125-0.246-0.026-0.547,0.221-0.672c0.246-0.121,0.546-0.025,0.672,0.221l2.957,5.836c0.06,0.118,0.07,0.256,0.028,0.382
		c-0.041,0.126-0.131,0.23-0.25,0.29l-1.944,0.978C15.356,22.562,15.279,22.58,15.202,22.58z"/>
</g>
</svg>
