<?xml version="1.0" encoding="utf-8"?>
<!-- Generator: Adobe Illustrator 16.0.0, SVG Export Plug-In . SVG Version: 6.00 Build 0)  -->
<!DOCTYPE svg PUBLIC "-//W3C//DTD SVG 1.1//EN" "http://www.w3.org/Graphics/SVG/1.1/DTD/svg11.dtd">
<svg version="1.1" id="Layer_1" xmlns="http://www.w3.org/2000/svg" xmlns:xlink="http://www.w3.org/1999/xlink" x="0px" y="0px"
	 width="16px" height="16px" viewBox="0 0 16 16" enable-background="new 0 0 16 16" xml:space="preserve">
<path fill-rule="evenodd" clip-rule="evenodd" fill="#020202" d="M13.96,5v8.954c0,0.552-0.349,1-0.9,1H4c-0.552,0-1-0.448-1-1V5H2
	l0,0c0-0.553,0.448-1,1-1h1H3.974h2.05V3c0-0.553,0.397-1,0.95-1h3.05c0.553,0,0.95,0.447,0.95,1v1h2.05h0.036h0.9
	c0.552,0,1,0.447,1,1l0,0H13.96z M10.023,3h-3.05v1h3.05V3z M13.023,5h-9.05v9.017h9.05V5z M6.961,11H6.023V7h0.938V11z M10.974,11
	h-0.95V7h0.95V11z"/>
</svg>
