<?xml version="1.0" encoding="utf-8"?>
<!-- Generator: Adobe Illustrator 16.0.0, SVG Export Plug-In . SVG Version: 6.00 Build 0)  -->
<!DOCTYPE svg PUBLIC "-//W3C//DTD SVG 1.1//EN" "http://www.w3.org/Graphics/SVG/1.1/DTD/svg11.dtd">
<svg version="1.1" id="Layer_1" xmlns="http://www.w3.org/2000/svg" xmlns:xlink="http://www.w3.org/1999/xlink" x="0px" y="0px"
	 width="24px" height="24px" viewBox="0 0 24 24" enable-background="new 0 0 24 24" xml:space="preserve">
<path d="M22.835,8.949l-3.479-5.604c-0.066-0.106-0.173-0.167-0.289-0.201c-0.037-0.012-0.072-0.025-0.111-0.029
	c-0.008,0-0.016-0.006-0.024-0.006H4.92c-0.01,0-0.019,0.007-0.029,0.007C4.831,3.12,4.773,3.136,4.716,3.162
	C4.701,3.168,4.686,3.17,4.671,3.178C4.668,3.18,4.664,3.18,4.661,3.182c-0.065,0.04-0.114,0.093-0.154,0.152
	c-0.002,0.004-0.008,0.006-0.01,0.01l-3.51,5.604C0.981,8.955,0.984,8.964,0.98,8.973c-0.041,0.072-0.07,0.151-0.07,0.24
	c0,0.009,0.005,0.017,0.005,0.026c0,0.016,0.006,0.028,0.009,0.044c0.013,0.089,0.047,0.17,0.101,0.237
	c0.005,0.007,0.004,0.017,0.01,0.023l10.562,11.978c0.095,0.107,0.231,0.17,0.375,0.17c0.119,0.033,0.282-0.063,0.377-0.172
	l5.898-6.782c0.182-0.208,0.159-0.524-0.048-0.706c-0.208-0.18-0.523-0.159-0.706,0.049l-4.446,5.116l2.834-9.483h5.431
	l-1.999,2.302c-0.182,0.208-0.16,0.524,0.049,0.706c0.208,0.181,0.524,0.16,0.705-0.048l2.721-3.131
	C22.932,9.376,22.951,9.136,22.835,8.949z M4.914,4.561l2.523,4.152H2.313L4.914,4.561z M8.375,8.331L5.81,4.109h5.013L8.375,8.331z
	 M11.915,4.217l2.606,4.496H9.31L11.915,4.217z M7.949,9.713l2.786,9.32l-8.218-9.32H7.949z M8.993,9.713h5.845l-2.923,9.777
	L8.993,9.713z M13.008,4.109h5.014l-2.566,4.222L13.008,4.109z M18.925,4.547l2.586,4.166h-5.118L18.925,4.547z"/>
</svg>
