<?xml version="1.0" encoding="utf-8"?>
<!-- Generator: Adobe Illustrator 16.0.0, SVG Export Plug-In . SVG Version: 6.00 Build 0)  -->
<!DOCTYPE svg PUBLIC "-//W3C//DTD SVG 1.1//EN" "http://www.w3.org/Graphics/SVG/1.1/DTD/svg11.dtd">
<svg version="1.1" id="Layer_1" xmlns="http://www.w3.org/2000/svg" xmlns:xlink="http://www.w3.org/1999/xlink" x="0px" y="0px"
	 width="16px" height="16px" viewBox="0 0 16 16" enable-background="new 0 0 16 16" xml:space="preserve">
<path d="M14.84,5.658l-2.154-3.469c-0.05-0.08-0.13-0.127-0.216-0.157c-0.035-0.013-0.07-0.025-0.107-0.028
	C12.356,2.004,12.352,2,12.346,2H3.673C3.667,2,3.661,2.004,3.654,2.005c-0.051,0.002-0.1,0.015-0.148,0.038
	c-0.01,0.005-0.022,0.006-0.032,0.012C3.472,2.057,3.469,2.056,3.466,2.058C3.414,2.09,3.374,2.132,3.343,2.18
	C3.34,2.183,3.336,2.184,3.334,2.188L1.161,5.656C1.157,5.663,1.16,5.67,1.156,5.676C1.124,5.734,1.1,5.797,1.1,5.869
	c0,0.007,0.004,0.014,0.004,0.021c0,0.013,0.005,0.023,0.007,0.036C1.122,5.996,1.149,6.06,1.192,6.114
	C1.196,6.12,1.195,6.127,1.2,6.133l6.538,7.415c0.076,0.086,0.185,0.136,0.3,0.136c0,0,0.001,0,0.001,0
	c0.115-0.001,0.225-0.05,0.301-0.138l6.462-7.415C14.917,5.999,14.933,5.807,14.84,5.658z M3.668,3.161L5.07,5.469H2.223
	L3.668,3.161z M9.691,6.269l-1.688,5.646L6.315,6.269H9.691z M6.547,5.469l1.456-2.512l1.456,2.512H6.547z M8.837,2.8h2.785
	l-1.426,2.346L8.837,2.8z M5.81,5.146L4.384,2.8h2.785L5.81,5.146z M5.48,6.269l1.587,5.31l-4.682-5.31H5.48z M10.526,6.269h3.095
	L8.91,11.674L10.526,6.269z M10.937,5.469l1.406-2.315l1.438,2.315H10.937z"/>
</svg>
