<?xml version="1.0" encoding="utf-8"?>
<!-- Generator: Adobe Illustrator 16.0.0, SVG Export Plug-In . SVG Version: 6.00 Build 0)  -->
<!DOCTYPE svg PUBLIC "-//W3C//DTD SVG 1.1//EN" "http://www.w3.org/Graphics/SVG/1.1/DTD/svg11.dtd">
<svg version="1.1" id="Layer_1" xmlns="http://www.w3.org/2000/svg" xmlns:xlink="http://www.w3.org/1999/xlink" x="0px" y="0px"
	 width="16px" height="16px" viewBox="0 0 16 16" enable-background="new 0 0 16 16" xml:space="preserve">
<path fill-rule="evenodd" clip-rule="evenodd" fill="#020202" d="M1,1h2v13H1V1z M13.875,7.14l-3.156-3.015
	C10.635,4.042,10.535,4,10.422,4s-0.212,0.042-0.297,0.125C10.041,4.21,10,4.309,10,4.422v2.34v0.253l-5.47,0
	c-0.293,0-0.531,0.2-0.53,0.483C3.999,7.782,4.237,7.963,4.531,7.963H10v0.149v2.466c0,0.113,0.041,0.213,0.125,0.297
	C10.21,10.959,10.309,11,10.422,11s0.213-0.041,0.297-0.125l3.156-3.141C13.958,7.65,14,7.551,14,7.438
	C14,7.323,13.958,7.225,13.875,7.14z"/>
</svg>
