<?xml version="1.0" encoding="utf-8"?>
<!-- Generator: Adobe Illustrator 16.0.0, SVG Export Plug-In . SVG Version: 6.00 Build 0)  -->
<!DOCTYPE svg PUBLIC "-//W3C//DTD SVG 1.1//EN" "http://www.w3.org/Graphics/SVG/1.1/DTD/svg11.dtd">
<svg version="1.1" id="Layer_1" xmlns="http://www.w3.org/2000/svg" xmlns:xlink="http://www.w3.org/1999/xlink" x="0px" y="0px"
	 width="16px" height="16px" viewBox="0 0 16 16" enable-background="new 0 0 16 16" xml:space="preserve">
<path fill-rule="evenodd" clip-rule="evenodd" fill="#020202" d="M1,14v-2h13v2H1z M7.14,1.125L4.125,4.281
	C4.042,4.365,4,4.465,4,4.578S4.042,4.79,4.125,4.875C4.21,4.959,4.309,5,4.422,5h2.34h0.253l0,5.47c0,0.293,0.2,0.531,0.483,0.53
	c0.283,0.001,0.464-0.237,0.464-0.531V5h0.149h2.466c0.113,0,0.213-0.041,0.297-0.125C10.959,4.79,11,4.691,11,4.578
	s-0.041-0.213-0.125-0.297L7.734,1.125C7.65,1.042,7.551,1,7.438,1C7.323,1,7.225,1.042,7.14,1.125z"/>
</svg>
