<?xml version="1.0" encoding="utf-8"?>
<!-- Generator: Adobe Illustrator 19.0.0, SVG Export Plug-In . SVG Version: 6.00 Build 0)  -->
<svg version="1.1" id="图层_1" xmlns="http://www.w3.org/2000/svg" xmlns:xlink="http://www.w3.org/1999/xlink" x="0px" y="0px"
	 viewBox="0 0 24 24" style="enable-background:new 0 0 24 24;" xml:space="preserve">
<path id="XMLID_45_" d="M5.9,17h-3c-1.1,0-2-0.9-2-2V4c0-1.1,0.9-2,2-2h5v13C7.9,16.1,7,17,5.9,17z M4.4,4.5c-0.6,0-1,0.4-1,1
	s0.4,1,1,1s1-0.4,1-1S5,4.5,4.4,4.5z M21.9,14.9L20,2.8C19.9,2.4,19.5,2,19.1,2H8.9v14l3,5.6c0.2,0.2,0.5,0.4,0.8,0.4h3.1
	c0.3,0,0.5-0.1,0.7-0.3c0.2-0.2,0.2-0.5,0.2-0.8L15.4,16H21c0.3,0,0.5-0.1,0.7-0.3C21.9,15.5,22,15.2,21.9,14.9z"/>
</svg>
