<?xml version="1.0" encoding="utf-8"?>
<!-- Generator: Adobe Illustrator 16.0.0, SVG Export Plug-In . SVG Version: 6.00 Build 0)  -->
<!DOCTYPE svg PUBLIC "-//W3C//DTD SVG 1.1//EN" "http://www.w3.org/Graphics/SVG/1.1/DTD/svg11.dtd">
<svg version="1.1" id="Layer_1" xmlns="http://www.w3.org/2000/svg" xmlns:xlink="http://www.w3.org/1999/xlink" x="0px" y="0px"
	 width="16px" height="16px" viewBox="0 0 16 16" enable-background="new 0 0 16 16" xml:space="preserve">
<path d="M12.024,1H1.487C1.197,1,1,1.197,1,1.438v13.125C1,14.803,1.197,15,1.438,15h13.125C14.803,15,15,14.803,15,14.562V4
	L12.024,1z M14,14H2V2h9.024v3H14V14z M12,4V2l2,2H12z M3,6v5h1V9h2V6H3z M5,8H4V7h1V8z M8,10h1v1H7V6h2v1H8V10z M9,7h1v3H9V7z
	 M11,6h2v1h-1v1h1v1h-1v2h-1V6z"/>
</svg>
