<?xml version="1.0" encoding="utf-8"?>
<!-- Generator: Adobe Illustrator 16.0.0, SVG Export Plug-In . SVG Version: 6.00 Build 0)  -->
<!DOCTYPE svg PUBLIC "-//W3C//DTD SVG 1.1//EN" "http://www.w3.org/Graphics/SVG/1.1/DTD/svg11.dtd">
<svg version="1.1" id="Layer_1" xmlns="http://www.w3.org/2000/svg" xmlns:xlink="http://www.w3.org/1999/xlink" x="0px" y="0px"
	 width="16px" height="16px" viewBox="0 0 16 16" enable-background="new 0 0 16 16" xml:space="preserve">
<path d="M4,6v2H3V6H4z M4,9h1V8H4V9z M5,8h1V6H5V8z M3,11h1V9H3V11z M6,11V9H5v2H6z M15,4v10.562C15,14.803,14.803,15,14.562,15
	H1.438C1.197,15,1,14.803,1,14.562V1.438C1,1.197,1.197,1,1.487,1h10.537L15,4z M12,4h2l-2-2V4z M14.024,5h-3V2H2v12h12.024V5z M8,6
	H7v5h3v-1H8V6z M11,9h1v1h-1v1h2V8h-1V7h1V6h-2V9z"/>
</svg>
