<?xml version="1.0" encoding="utf-8"?>
<!-- Generator: Adobe Illustrator 16.0.0, SVG Export Plug-In . SVG Version: 6.00 Build 0)  -->
<!DOCTYPE svg PUBLIC "-//W3C//DTD SVG 1.1//EN" "http://www.w3.org/Graphics/SVG/1.1/DTD/svg11.dtd">
<svg version="1.1" id="Layer_1" xmlns="http://www.w3.org/2000/svg" xmlns:xlink="http://www.w3.org/1999/xlink" x="0px" y="0px"
	 width="16px" height="16px" viewBox="0 0 16 16" enable-background="new 0 0 16 16" xml:space="preserve">
<path d="M12.024,1H1.487C1.197,1,1,1.197,1,1.438v13.125C1,14.803,1.197,15,1.438,15h13.125C14.803,15,15,14.803,15,14.562V4
	L12.024,1z M12,2l2,2h-2V2z M14.024,14H2V2h9.024v3h3V14z M3,6h3v1H4v3h2v1H4H3V6z M7,6h2v1H8v1h1v3H7v-1h1V9H7V6z M11,6v4h-1V6H11z
	 M13,10h-1V6h1V10z M11,10h1v1h-1V10z"/>
</svg>
