<?xml version="1.0" encoding="utf-8"?>
<!-- Generator: Adobe Illustrator 16.0.0, SVG Export Plug-In . SVG Version: 6.00 Build 0)  -->
<!DOCTYPE svg PUBLIC "-//W3C//DTD SVG 1.1//EN" "http://www.w3.org/Graphics/SVG/1.1/DTD/svg11.dtd">
<svg version="1.1" id="Layer_1" xmlns="http://www.w3.org/2000/svg" xmlns:xlink="http://www.w3.org/1999/xlink" x="0px" y="0px"
	 width="16px" height="16px" viewBox="0 0 16 16" enable-background="new 0 0 16 16" xml:space="preserve">
<path fill="#010101" d="M14.562,15H2.438C2.197,15,2,14.803,2,14.562V1.438C2,1.197,2.197,1,2.487,1h9.537L15,4v10.562
	C15,14.803,14.803,15,14.562,15z M12,2v2h2L12,2z M14,5h-2.976V2H3v12h11V5z M10,4.5C10,4.224,9.776,4,9.5,4h-5
	C4.224,4,4,4.224,4,4.5l0,0C4,4.776,4.224,5,4.5,5h5C9.776,5,10,4.776,10,4.5L10,4.5z M13,6.5C13,6.224,12.776,6,12.5,6h-8
	C4.224,6,4,6.224,4,6.5l0,0C4,6.776,4.224,7,4.5,7h8C12.776,7,13,6.776,13,6.5L13,6.5z M13,8.5C13,8.224,12.776,8,12.5,8h-8
	C4.224,8,4,8.224,4,8.5l0,0C4,8.776,4.224,9,4.5,9h8C12.776,9,13,8.776,13,8.5L13,8.5z M13,10.5c0-0.276-0.224-0.5-0.5-0.5h-8
	C4.224,10,4,10.224,4,10.5l0,0C4,10.776,4.224,11,4.5,11h8C12.776,11,13,10.776,13,10.5L13,10.5z"/>
</svg>
