<?xml version="1.0" encoding="utf-8"?>
<!-- Generator: Adobe Illustrator 16.0.0, SVG Export Plug-In . SVG Version: 6.00 Build 0)  -->
<!DOCTYPE svg PUBLIC "-//W3C//DTD SVG 1.1//EN" "http://www.w3.org/Graphics/SVG/1.1/DTD/svg11.dtd">
<svg version="1.1" id="Layer_1" xmlns="http://www.w3.org/2000/svg" xmlns:xlink="http://www.w3.org/1999/xlink" x="0px" y="0px"
	 width="16px" height="16px" viewBox="0 0 16 16" enable-background="new 0 0 16 16" xml:space="preserve">
<path fill-rule="evenodd" clip-rule="evenodd" fill="#020202" d="M14,14.5c0,0.276-0.224,0.5-0.5,0.5h-11C2.224,15,2,14.776,2,14.5
	l0,0C2,14.224,2.224,14,2.5,14h11C13.776,14,14,14.224,14,14.5L14,14.5z M7.486,1.514v8.734l-2.4-2.401c-0.2-0.2-0.525-0.2-0.726,0
	s-0.2,0.525,0,0.726l3.276,3.277c0.01,0.01,0.022,0.013,0.032,0.021c0.041,0.036,0.084,0.069,0.135,0.09
	c0.057,0.022,0.115,0.033,0.175,0.035C7.986,11.995,7.992,12,8,12c0.012,0,0.021-0.007,0.032-0.007
	c0.056-0.003,0.11-0.012,0.164-0.032c0.06-0.025,0.113-0.062,0.159-0.106c0,0,0.005-0.003,0.008-0.005l3.276-3.277
	c0.1-0.1,0.15-0.231,0.15-0.362c0-0.132-0.051-0.263-0.15-0.363c-0.201-0.2-0.525-0.2-0.726,0l-2.401,2.401l0.005-8.734
	C8.518,1.23,8.288,1,8.005,1S7.486,1.23,7.486,1.514z"/>
</svg>
