<?xml version="1.0" encoding="utf-8"?>
<!-- Generator: Adobe Illustrator 16.0.0, SVG Export Plug-In . SVG Version: 6.00 Build 0)  -->
<!DOCTYPE svg PUBLIC "-//W3C//DTD SVG 1.1//EN" "http://www.w3.org/Graphics/SVG/1.1/DTD/svg11.dtd">
<svg version="1.1" id="Layer_1" xmlns="http://www.w3.org/2000/svg" xmlns:xlink="http://www.w3.org/1999/xlink" x="0px" y="0px"
	 width="16px" height="16px" viewBox="0 0 16 16" enable-background="new 0 0 16 16" xml:space="preserve">
<path d="M13.482,3.021l-0.567-0.565C12.614,2.152,12.212,1.998,11.817,2c-0.396,0-0.798,0.152-1.1,0.455L3.545,9.626
	c-0.214,0.215-1.013,3.231-1.065,3.302l-0.198,0.793l0.792-0.199c0.069-0.052,3.085-0.853,3.3-1.066l7.172-7.173
	C13.849,4.98,14.001,4.58,14,4.184C14.001,3.789,13.784,3.322,13.482,3.021z M5.679,11.762c0.013,0.063-2.348,0.907-2.354,0.901
	c0.006,0.006,0.852-2.354,0.915-2.344l5.454-5.454l1.441,1.44L5.679,11.762z M12.852,4.589l-1.022,1.022l-1.439-1.44l1.021-1.022
	c0.113-0.112,0.257-0.167,0.406-0.168c0.146,0.002,0.29,0.056,0.404,0.168l0.565,0.566c0.112,0.114,0.232,0.321,0.231,0.469
	C13.02,4.333,12.964,4.477,12.852,4.589z"/>
</svg>
