<?xml version="1.0" encoding="utf-8"?>
<!-- Generator: Adobe Illustrator 16.0.0, SVG Export Plug-In . SVG Version: 6.00 Build 0)  -->
<!DOCTYPE svg PUBLIC "-//W3C//DTD SVG 1.1//EN" "http://www.w3.org/Graphics/SVG/1.1/DTD/svg11.dtd">
<svg version="1.1" id="Layer_1" xmlns="http://www.w3.org/2000/svg" xmlns:xlink="http://www.w3.org/1999/xlink" x="0px" y="0px"
	 width="16px" height="16px" viewBox="0 0 16 16" enable-background="new 0 0 16 16" xml:space="preserve">
<path fill-rule="evenodd" clip-rule="evenodd" fill="#020202" d="M6,5.482c0,0.003-0.002,0.006-0.002,0.01
	C5.998,5.495,6,5.498,6,5.501C6,5.63,5.946,5.745,5.863,5.833C5.858,5.838,5.856,5.845,5.852,5.849
	c-0.016,0.016-0.038,0.026-0.056,0.04C5.711,5.954,5.612,6,5.499,6C5.496,6,5.494,5.999,5.491,5.999S5.485,6,5.482,6H1.52
	C1.23,6,1,5.776,1,5.5C0.998,5.225,1.232,5,1.518,5h2.775L1.156,1.865C0.953,1.661,0.948,1.338,1.144,1.144
	c0.193-0.197,0.518-0.19,0.72,0.013l3.136,3.136V1.519C4.999,1.231,5.225,1,5.5,1C5.775,0.998,6,1.232,6,1.518V5.482z M13.482,5
	h-2.775l3.137-3.136c0.203-0.204,0.208-0.526,0.013-0.721c-0.193-0.197-0.518-0.19-0.72,0.013l-3.136,3.136V1.519
	C10.001,1.231,9.775,1,9.5,1C9.225,0.998,9,1.232,9,1.518v3.964c0,0.003,0.002,0.006,0.002,0.01C9.002,5.495,9,5.498,9,5.501
	C9,5.63,9.054,5.745,9.137,5.833c0.005,0.005,0.007,0.012,0.012,0.016c0.016,0.016,0.038,0.026,0.057,0.04
	C9.289,5.954,9.388,6,9.501,6c0.003,0,0.005-0.001,0.008-0.001S9.515,6,9.518,6h3.963C13.77,6,14,5.776,14,5.5
	C14.002,5.225,13.768,5,13.482,5z M6,9.5c0-0.129-0.054-0.243-0.137-0.332C5.858,9.163,5.856,9.156,5.852,9.151
	C5.835,9.136,5.814,9.126,5.796,9.112C5.712,9.047,5.612,9,5.499,9C5.496,9,5.494,9.002,5.491,9.002S5.485,9,5.482,9H1.52
	C1.23,9,1,9.225,1,9.5C0.998,9.775,1.232,10,1.518,10h2.775l-3.137,3.137c-0.203,0.203-0.208,0.525-0.013,0.721
	c0.193,0.197,0.518,0.189,0.72-0.014l3.136-3.136v2.774c0,0.287,0.226,0.52,0.501,0.518C5.775,14.004,6,13.77,6,13.482V9.52
	c0-0.004-0.002-0.007-0.002-0.01C5.998,9.506,6,9.503,6,9.5z M10.707,10h2.775c0.285,0,0.52-0.225,0.518-0.5
	C14,9.225,13.77,9,13.48,9H9.518C9.515,9,9.512,9.002,9.509,9.002S9.504,9,9.501,9C9.388,9,9.288,9.047,9.204,9.112
	C9.186,9.126,9.165,9.136,9.148,9.151C9.144,9.156,9.142,9.163,9.137,9.168C9.054,9.257,9,9.371,9,9.5
	c0,0.003,0.002,0.006,0.002,0.01C9.002,9.513,9,9.516,9,9.52v3.963C9,13.77,9.225,14.004,9.5,14c0.275,0.002,0.501-0.23,0.501-0.518
	v-2.774l3.136,3.136c0.202,0.203,0.526,0.211,0.72,0.014c0.195-0.195,0.19-0.518-0.013-0.721L10.707,10z"/>
</svg>
