<?xml version="1.0" encoding="utf-8"?>
<!-- Generator: Adobe Illustrator 16.0.0, SVG Export Plug-In . SVG Version: 6.00 Build 0)  -->
<!DOCTYPE svg PUBLIC "-//W3C//DTD SVG 1.1//EN" "http://www.w3.org/Graphics/SVG/1.1/DTD/svg11.dtd">
<svg version="1.1" id="Layer_1" xmlns="http://www.w3.org/2000/svg" xmlns:xlink="http://www.w3.org/1999/xlink" x="0px" y="0px"
	 width="16px" height="16px" viewBox="0 0 16 16" enable-background="new 0 0 16 16" xml:space="preserve">
<path fill="#020202" d="M14.803,5.709c0,0.012-0.006,0.02-0.006,0.032c-0.004,0.056-0.012,0.109-0.033,0.163
	c-0.025,0.06-0.062,0.112-0.106,0.158c-0.002,0.002-0.003,0.002-0.005,0.004l-3.777,3.77c-0.1,0.101-0.23,0.136-0.362,0.136
	S10.25,9.895,10.15,9.794c-0.201-0.2-0.201-0.581,0-0.782L13.051,6H4.396C4.064,6,2,6.91,2,9.431V12c0,0,0.074,0.611-0.493,0.611
	C0.986,12.611,1,12,1,12V9.431c0-2.822,2.115-4.168,3.182-4.395C4.217,5.028,4.301,5,4.338,5h8.713l-2.9-2.802
	c-0.201-0.2-0.201-0.427,0-0.626c0.199-0.201,0.524-0.201,0.725,0l3.777,3.775c0.01,0.01,0.014,0.022,0.021,0.032
	c0.035,0.042,0.068,0.085,0.09,0.136c0.021,0.056,0.032,0.115,0.035,0.174C14.799,5.696,14.803,5.702,14.803,5.709z M14,11L14,11v3
	H2c-1,0-1,1,0,1h12c0.553,0,1-0.447,1-1v-3l0,0C15,10,14,10,14,11z"/>
</svg>
