<?xml version="1.0" encoding="utf-8"?>
<!-- Generator: Adobe Illustrator 16.0.0, SVG Export Plug-In . SVG Version: 6.00 Build 0)  -->
<!DOCTYPE svg PUBLIC "-//W3C//DTD SVG 1.1//EN" "http://www.w3.org/Graphics/SVG/1.1/DTD/svg11.dtd">
<svg version="1.1" id="Layer_1" xmlns="http://www.w3.org/2000/svg" xmlns:xlink="http://www.w3.org/1999/xlink" x="0px" y="0px"
	 width="16px" height="16px" viewBox="0 0 16 16" enable-background="new 0 0 16 16" xml:space="preserve">
<path d="M10.951,6.95H10V6h0.951V6.95z M10.951,8.038H10v0.95h0.951V8.038z M10.951,10H10v0.95h0.951V10z M10.951,12.051H10V13
	h0.951V12.051z M12.995,8.038h-0.951v0.95h0.951V8.038z M12.995,10h-0.951v0.95h0.951V10z M12.995,12.051h-0.951V13h0.951V12.051z
	 M1.043,3.78v8.512l6.921,0.69V3.049L1.043,3.78z M6.414,10.374c-0.136,0.088-0.249,0.117-0.34,0.088
	c-0.09-0.029-0.171-0.096-0.244-0.197L4.505,8.422l-1.322,1.851c-0.156,0.219-0.35,0.25-0.584,0.094
	c-0.097-0.062-0.158-0.146-0.186-0.251c-0.026-0.104,0.001-0.216,0.084-0.332l1.485-2.087L2.687,5.896
	C2.633,5.813,2.62,5.717,2.65,5.607c0.028-0.109,0.087-0.196,0.175-0.259c0.126-0.087,0.234-0.127,0.324-0.12
	s0.177,0.067,0.26,0.179l1.1,1.55l1.037-1.455C5.638,5.371,5.737,5.287,5.845,5.25s0.224-0.016,0.35,0.062
	C6.321,5.39,6.392,5.479,6.406,5.578s-0.012,0.199-0.08,0.295L5.028,7.689l1.553,2.188c0.049,0.068,0.064,0.147,0.048,0.237
	S6.54,10.292,6.414,10.374z M12.1,1.032H2.438C2.197,1.032,2,1.229,2,1.47v1.346l1-0.092V1.975h8V5h3v9.032H3v-0.516v-0.164
	l-1-0.096v1.306C2,14.804,2.197,15,2.438,15h12.125C14.803,15,15,14.804,15,14.562V4L12.1,1.032z M11.975,4.032V2.1L14,4.032H11.975
	z"/>
</svg>
