<?xml version="1.0" encoding="utf-8"?>
<!-- Generator: Adobe Illustrator 16.0.0, SVG Export Plug-In . SVG Version: 6.00 Build 0)  -->
<!DOCTYPE svg PUBLIC "-//W3C//DTD SVG 1.1//EN" "http://www.w3.org/Graphics/SVG/1.1/DTD/svg11.dtd">
<svg version="1.1" id="Layer_1" xmlns="http://www.w3.org/2000/svg" xmlns:xlink="http://www.w3.org/1999/xlink" x="0px" y="0px"
	 width="16px" height="16px" viewBox="0 0 16 16" enable-background="new 0 0 16 16" xml:space="preserve">
<path d="M6.532,14.845c-0.761-0.451-1.306-1.244-1.337-2.177C5.15,10.925,6.361,10.07,7.078,8.902
	c1.026-1.68,0.746-2.722,0.746-2.722S8.68,6.662,9.178,8.451c0.155,0.529,0.187,1.059,0.14,1.557
	c-0.077,1.26-0.622,2.395-0.622,2.395s0.949-0.202,1.213-1.929c0.437,0.451,0.841,1.104,0.887,1.789
	c0.078,1.183-0.621,2.271-1.68,2.737c1.833-0.42,3.143-1.975,3.594-3.111c0.575-1.43,0.42-2.706,0.326-3.811
	c-0.124-1.508,0.404-2.629,0.404-2.629s-1.011,0.296-1.758,1.524C11.34,7.534,11.2,8.357,11.2,8.357s0.078-0.73-0.405-2.068
	c-0.481-1.307-0.918-1.773-1.183-2.737C9.271,2.26,10.032,1,10.032,1S7.016,1.561,5.646,4.189C4.433,6.522,4.931,7.923,4.931,7.923
	S4.417,7.44,4.153,6.771S3.948,5.496,3.948,5.496S1.804,7.86,2.847,10.832C3.547,12.916,4.899,14.285,6.532,14.845z"/>
</svg>
