<?xml version="1.0" encoding="utf-8"?>
<!-- Generator: Adobe Illustrator 16.0.0, SVG Export Plug-In . SVG Version: 6.00 Build 0)  -->
<!DOCTYPE svg PUBLIC "-//W3C//DTD SVG 1.1//EN" "http://www.w3.org/Graphics/SVG/1.1/DTD/svg11.dtd">
<svg version="1.1" id="Layer_1" xmlns="http://www.w3.org/2000/svg" xmlns:xlink="http://www.w3.org/1999/xlink" x="0px" y="0px"
	 width="16px" height="16px" viewBox="0 0 16 16" enable-background="new 0 0 16 16" xml:space="preserve">
<path fill="#272636" d="M15,3.544C15,2.529,14.176,2,13.162,2H3.22C2.205,2,1.38,2.529,1.38,3.544c0,0.446,0.166,0.72,0.457,1.055
	c0.018,0.025,0.045-0.02,0.067,0.003L6,8.605v4.279c0,0.285,0.215,0.517,0.5,0.517S7,13.17,7,12.885V8.392
	c0-0.138-0.055-0.269-0.151-0.365L2.655,3.834c-0.008-0.009-0.01-0.021-0.019-0.029c-0.144-0.15-0.224-0.069-0.224-0.277
	C2.413,3.082,2.774,3,3.22,3h9.942c0.443,0,0.805,0.082,0.805,0.527c0,0.207-0.078,0.264-0.221,0.414
	c-0.004,0.004-0.005-0.061-0.008-0.057L9.272,8.193C9.176,8.29,9,8.387,9,8.523v5.461C9,14.27,9.215,14.5,9.5,14.5
	s0.5-0.23,0.5-0.516V8.737l4.352-4.214c0.006-0.006,0.077,0.133,0.084,0.126C14.754,4.309,15,4.012,15,3.544z"/>
</svg>
