<?xml version="1.0" encoding="utf-8"?>
<!-- Generator: Adobe Illustrator 16.0.0, SVG Export Plug-In . SVG Version: 6.00 Build 0)  -->
<!DOCTYPE svg PUBLIC "-//W3C//DTD SVG 1.1//EN" "http://www.w3.org/Graphics/SVG/1.1/DTD/svg11.dtd">
<svg version="1.1" id="Layer_1" xmlns="http://www.w3.org/2000/svg" xmlns:xlink="http://www.w3.org/1999/xlink" x="0px" y="0px"
	 width="16px" height="16px" viewBox="0 0 16 16" enable-background="new 0 0 16 16" xml:space="preserve">
<path fill="#010101" d="M14.912,12.41h-0.544L11.79,6.122c0,0-0.074-0.104-0.229-0.121c-0.155-0.016-0.395,0.081-0.395,0.081
	l-2.75,6.328H8.302C8.071,12.41,8,12.51,8,12.725C8,12.938,8.124,13,8.355,13h1.605c0.229,0,0.419-0.064,0.419-0.275
	c0-0.215-0.189-0.314-0.419-0.314H9.546l0.579-1.364h2.986l0.588,1.364h-0.663c-0.231,0-0.42,0.1-0.42,0.314
	c0,0.214,0.188,0.275,0.42,0.275h1.876c0.232,0,0.419-0.062,0.419-0.275C15.331,12.51,15.145,12.41,14.912,12.41z M10.394,10.457
	L11.665,7.6l1.208,2.857H10.394z M4.079,12.072h-0.65l0.908-2.142h3.952l0.952-2.162L6.957,2.192c0,0-0.119-0.164-0.361-0.189
	C6.353,1.978,5.974,2.129,5.974,2.129l-4.321,9.943H1.476C1.111,12.072,1,12.229,1,12.566C1,12.902,1.196,13,1.559,13h2.521
	c0.364,0,0.659-0.1,0.659-0.434C4.738,12.229,4.443,12.072,4.079,12.072z M6.759,4.514l1.897,4.49H4.76L6.759,4.514z"/>
</svg>
