<?xml version="1.0" encoding="utf-8"?>
<!-- Generator: Adobe Illustrator 16.0.0, SVG Export Plug-In . SVG Version: 6.00 Build 0)  -->
<!DOCTYPE svg PUBLIC "-//W3C//DTD SVG 1.1//EN" "http://www.w3.org/Graphics/SVG/1.1/DTD/svg11.dtd">
<svg version="1.1" id="Layer_1" xmlns="http://www.w3.org/2000/svg" xmlns:xlink="http://www.w3.org/1999/xlink" x="0px" y="0px"
	 width="16px" height="16px" viewBox="0 0 16 16" enable-background="new 0 0 16 16" xml:space="preserve">
<path fill-rule="evenodd" clip-rule="evenodd" fill="#020202" d="M14.5,7h-2.244c-0.054-0.869-0.223-1.665-0.461-2.265
	C11.336,3.581,9.646,2,7.255,2H4v5H1.5C1.224,7,1,7.224,1,7.5S1.224,8,1.5,8H4v5h3.588c2.442,0,3.762-1.529,4.186-2.617
	C12.074,9.61,12.223,8.792,12.265,8H14.5C14.776,8,15,7.776,15,7.5S14.776,7,14.5,7z M5.459,2.883h0.999
	c0.558,0,3.935-0.437,4.171,4.117h-5.17V2.883z M6.864,12.117H5.459V8.023V8h5.17C10.396,12.219,7.312,12.117,6.864,12.117z"/>
</svg>
