<?xml version="1.0" encoding="utf-8"?>
<!-- Generator: Adobe Illustrator 16.0.0, SVG Export Plug-In . SVG Version: 6.00 Build 0)  -->
<!DOCTYPE svg PUBLIC "-//W3C//DTD SVG 1.1//EN" "http://www.w3.org/Graphics/SVG/1.1/DTD/svg11.dtd">
<svg version="1.1" id="Layer_1" xmlns="http://www.w3.org/2000/svg" xmlns:xlink="http://www.w3.org/1999/xlink" x="0px" y="0px"
	 width="16px" height="16px" viewBox="0 0 16 16" enable-background="new 0 0 16 16" xml:space="preserve">
<path fill="#020202" d="M6,1H1v0.631v1.414v1.836V6v0.088v0.207v1.836v1.414v1.836v2.072v1.178V15h0.369h1.053h2.197H5h1h9v-4v-1V6
	V5V1H6z M12.439,2L14,3.561v1.336L11.104,2H12.439z M6,2h0.439l3,3H7.604l-3-3H6z M2,2h1.189l3,3H5v0.631l-3-3V2z M2,4.045l3,3
	v1.836l-3-3V4.045z M2,7.295l3,3v1.836l-3-3V7.295z M3.619,14L2,12.381v-1.836l3,3V14H3.619z M14,14H6v-2.987V11h8V14z M14,10H6V6h8
	V10z M10.854,5l-3-3h1.836l3,3H10.854z"/>
</svg>
