<?xml version="1.0" encoding="utf-8"?>
<!-- Generator: Adobe Illustrator 16.0.0, SVG Export Plug-In . SVG Version: 6.00 Build 0)  -->
<!DOCTYPE svg PUBLIC "-//W3C//DTD SVG 1.1//EN" "http://www.w3.org/Graphics/SVG/1.1/DTD/svg11.dtd">
<svg version="1.1" id="Layer_1" xmlns="http://www.w3.org/2000/svg" xmlns:xlink="http://www.w3.org/1999/xlink" x="0px" y="0px"
	 width="16px" height="16px" viewBox="0 0 16 16" enable-background="new 0 0 16 16" xml:space="preserve">
<path d="M1,1v14h14V1H1z M10,9H6V6h4V9z M2,6h3v3H2V6z M2,5V4.045L2.955,5H2z M4.369,5L2,2.631V2h1.189l3,3H4.369z M4.604,2H6.44
	l3,3H7.604L4.604,2z M7.854,2h1.835l3,3h-1.836L7.854,2z M11.104,2h1.336L14,3.561v1.336L11.104,2z M2,14v-4h3v4H2z M6,14v-4h4v4H6z
	 M14,14h-3v-4h3V14z M11,9V6h3v3H11z"/>
</svg>
