<?xml version="1.0" encoding="utf-8"?>
<!-- Generator: Adobe Illustrator 16.0.0, SVG Export Plug-In . SVG Version: 6.00 Build 0)  -->
<!DOCTYPE svg PUBLIC "-//W3C//DTD SVG 1.1//EN" "http://www.w3.org/Graphics/SVG/1.1/DTD/svg11.dtd">
<svg version="1.1" id="Layer_1" xmlns="http://www.w3.org/2000/svg" xmlns:xlink="http://www.w3.org/1999/xlink" x="0px" y="0px"
	 width="16px" height="16px" viewBox="0 0 16 16" enable-background="new 0 0 16 16" xml:space="preserve">
<path fill="#020202" d="M12,1h-1H1v14h14v-4v-1V6V5V1H12z M11,2v3H5V2H11z M5,8.943L6.057,10H5V8.943z M7.471,10L5,7.529V6h0.307
	l4,4H7.471z M10.721,10l-4-4h1.836L11,8.443V10H10.721z M11,6v1.029L9.971,6H11z M2,2h2v3H2V2z M2,6h2v4H2V6z M2,14v-3h2v3H2z M5,14
	v-3h6v3H5z M14,14h-2v-3h2V14z M14,10h-2V6h2V10z M12,5V2h2v3H12z"/>
</svg>
