<?xml version="1.0" encoding="utf-8"?>
<!-- Generator: Adobe Illustrator 16.0.0, SVG Export Plug-In . SVG Version: 6.00 Build 0)  -->
<!DOCTYPE svg PUBLIC "-//W3C//DTD SVG 1.1//EN" "http://www.w3.org/Graphics/SVG/1.1/DTD/svg11.dtd">
<svg version="1.1" id="Layer_1" xmlns="http://www.w3.org/2000/svg" xmlns:xlink="http://www.w3.org/1999/xlink" x="0px" y="0px"
	 width="16px" height="16px" viewBox="0 0 16 16" enable-background="new 0 0 16 16" xml:space="preserve">
<path fill-rule="evenodd" clip-rule="evenodd" fill="#020202" d="M13.998,1.508c0,0.004,0.002,0.007,0.002,0.01v3.964
	C14,5.769,13.775,6.003,13.5,6c-0.275,0.001-0.501-0.23-0.501-0.519V2.708L9.863,5.844c-0.202,0.203-0.526,0.21-0.72,0.013
	C8.948,5.662,8.953,5.34,9.156,5.136L12.293,2H9.518C9.232,2,8.998,1.775,9,1.5C9,1.225,9.23,1,9.52,1h3.963
	c0.003,0,0.006,0.001,0.009,0.002C13.494,1.001,13.496,1,13.499,1c0.113,0,0.213,0.046,0.297,0.112
	c0.019,0.014,0.04,0.023,0.056,0.039c0.005,0.005,0.007,0.011,0.012,0.016C13.946,1.256,14,1.371,14,1.499
	C14,1.502,13.998,1.505,13.998,1.508z M2.707,2h2.775C5.768,2,6.002,1.775,6,1.5C6,1.225,5.77,1,5.48,1H1.518
	C1.515,1,1.512,1.001,1.509,1.002C1.506,1.001,1.504,1,1.501,1C1.388,1,1.288,1.046,1.204,1.112
	c-0.018,0.014-0.04,0.023-0.056,0.039C1.144,1.156,1.142,1.163,1.137,1.167C1.054,1.256,1,1.371,1,1.499
	c0,0.003,0.002,0.006,0.002,0.009C1.002,1.512,1,1.515,1,1.519v3.964C1,5.769,1.225,6.003,1.5,6c0.275,0.001,0.501-0.23,0.501-0.519
	V2.708l3.136,3.136c0.202,0.203,0.526,0.21,0.72,0.013c0.195-0.194,0.19-0.517-0.013-0.721L2.707,2z M14,9.518
	C14,9.231,13.775,8.997,13.5,9c-0.275-0.001-0.501,0.23-0.501,0.519v2.773L9.863,9.156c-0.202-0.203-0.526-0.21-0.72-0.013
	C8.948,9.338,8.953,9.66,9.156,9.864L12.293,13H9.518C9.232,13,8.998,13.225,9,13.5C9,13.775,9.23,14,9.52,14h3.963
	c0.003,0,0.006-0.002,0.009-0.002S13.496,14,13.499,14c0.113,0,0.212-0.046,0.296-0.112c0.019-0.014,0.041-0.022,0.057-0.039
	c0.005-0.005,0.007-0.011,0.012-0.016C13.946,13.744,14,13.63,14,13.501c0-0.003-0.002-0.006-0.002-0.01
	c0-0.003,0.002-0.006,0.002-0.01V9.518z M5.482,13H2.707l3.137-3.136C6.047,9.66,6.052,9.338,5.856,9.144
	c-0.193-0.197-0.518-0.19-0.72,0.013l-3.136,3.136V9.519C2.001,9.23,1.775,8.999,1.5,9C1.225,8.997,1,9.231,1,9.518v3.964
	c0,0.004,0.002,0.007,0.002,0.01c0,0.004-0.002,0.007-0.002,0.01c0,0.129,0.054,0.243,0.137,0.332
	c0.004,0.005,0.006,0.011,0.011,0.016c0.016,0.017,0.038,0.025,0.056,0.039C1.289,13.954,1.388,14,1.501,14
	c0.003,0,0.005-0.002,0.008-0.002S1.515,14,1.518,14H5.48C5.77,14,6,13.775,6,13.5C6.002,13.225,5.768,13,5.482,13z"/>
</svg>
