<?xml version="1.0" encoding="utf-8"?>
<!-- Generator: Adobe Illustrator 16.0.0, SVG Export Plug-In . SVG Version: 6.00 Build 0)  -->
<!DOCTYPE svg PUBLIC "-//W3C//DTD SVG 1.1//EN" "http://www.w3.org/Graphics/SVG/1.1/DTD/svg11.dtd">
<svg version="1.1" id="Layer_1" xmlns="http://www.w3.org/2000/svg" xmlns:xlink="http://www.w3.org/1999/xlink" x="0px" y="0px"
	 width="24px" height="24px" viewBox="0 0 24 24" enable-background="new 0 0 24 24" xml:space="preserve">
<path d="M14.93,7v3h-8V7H14.93 M14.93,6h-8c-0.552,0-1,0.447-1,1v3c0,0.553,0.448,1,1,1h8c0.553,0,1-0.447,1-1V7
	C15.93,6.447,15.482,6,14.93,6L14.93,6z M16.93,13v3h-8v-3H16.93 M16.93,12h-8c-0.552,0-1,0.447-1,1v3c0,0.553,0.448,1,1,1h8
	c0.553,0,1-0.447,1-1v-3C17.93,12.447,17.482,12,16.93,12L16.93,12z M3.93,3v1h-1V3H3.93 M4.93,2h-3v3h3V2L4.93,2z M3.93,19v1h-1v-1
	H3.93 M4.93,18h-3v3h3V18L4.93,18z M20.93,19v1h-1v-1H20.93 M21.93,18h-3v3h3V18L21.93,18z M20.93,3v1h-1V3H20.93 M21.93,2h-3v3h3V2
	L21.93,2z M18.93,3h-15v1h15V3z M18.93,19h-15v1h15V19z M3.93,19V5h-1v14H3.93z M20.93,19V5h-1v14H20.93z"/>
</svg>
