<?xml version="1.0" encoding="utf-8"?>
<!-- Generator: Adobe Illustrator 16.0.0, SVG Export Plug-In . SVG Version: 6.00 Build 0)  -->
<!DOCTYPE svg PUBLIC "-//W3C//DTD SVG 1.1//EN" "http://www.w3.org/Graphics/SVG/1.1/DTD/svg11.dtd">
<svg version="1.1" id="Layer_1" xmlns="http://www.w3.org/2000/svg" xmlns:xlink="http://www.w3.org/1999/xlink" x="0px" y="0px"
	 width="16px" height="16px" viewBox="0 0 16 16" enable-background="new 0 0 16 16" xml:space="preserve">
<path d="M12.718,3.184c0.002-0.395-0.216-0.861-0.518-1.163l-0.566-0.565C11.332,1.152,10.931,0.998,10.536,1
	c-0.396,0-0.799,0.152-1.1,0.455L2.263,8.626C2.05,8.841,1.25,11.857,1.198,11.928L1,12.721l0.792-0.199
	c0.069-0.052,3.086-0.853,3.3-1.066l7.173-7.173C12.565,3.98,12.719,3.58,12.718,3.184z M4.397,10.762
	c0.012,0.063-2.348,0.907-2.354,0.901C2.05,11.669,2.896,9.31,2.958,9.319l5.455-5.454l1.439,1.44L4.397,10.762z M11.569,3.589
	l-1.021,1.022l-1.439-1.44l1.021-1.022c0.114-0.112,0.257-0.167,0.407-0.168c0.146,0.002,0.289,0.056,0.403,0.168l0.565,0.566
	c0.112,0.114,0.232,0.321,0.232,0.469C11.737,3.333,11.683,3.477,11.569,3.589z M15,11.5c0,0.276-0.224,0.5-0.5,0.5H12v2.5
	c0,0.276-0.199,0.5-0.475,0.5C11.248,15,11,14.776,11,14.5V12H8.55c-0.261,0-0.469-0.202-0.491-0.457C8.081,11.075,8.289,11,8.55,11
	H11V8.5C11,8.224,11.248,8,11.525,8C11.801,8,12,8.224,12,8.5V11h2.5C14.776,11,15,11.224,15,11.5z M8.05,11.5
	c0,0.016,0.007,0.028,0.009,0.043C8.057,11.57,8.05,11.585,8.05,11.615V11.5z"/>
</svg>
