<?xml version="1.0" encoding="utf-8"?>
<!-- Generator: Adobe Illustrator 16.0.0, SVG Export Plug-In . SVG Version: 6.00 Build 0)  -->
<!DOCTYPE svg PUBLIC "-//W3C//DTD SVG 1.1//EN" "http://www.w3.org/Graphics/SVG/1.1/DTD/svg11.dtd">
<svg version="1.1" id="Layer_1" xmlns="http://www.w3.org/2000/svg" xmlns:xlink="http://www.w3.org/1999/xlink" x="0px" y="0px"
	 width="16px" height="16px" viewBox="0 0 16 16" enable-background="new 0 0 16 16" xml:space="preserve">
<path d="M12.2,2.021l-0.566-0.565C11.332,1.152,10.931,0.998,10.536,1c-0.396,0-0.799,0.152-1.1,0.455L2.263,8.626
	C2.05,8.841,1.25,11.857,1.198,11.928L1,12.721l0.792-0.199c0.069-0.052,3.086-0.853,3.3-1.066l7.173-7.173
	c0.301-0.302,0.454-0.702,0.453-1.099C12.72,2.789,12.502,2.322,12.2,2.021z M4.397,10.762c0.012,0.063-2.348,0.907-2.354,0.901
	C2.05,11.669,2.896,9.31,2.958,9.319l5.455-5.454l1.439,1.44L4.397,10.762z M11.569,3.589l-1.021,1.022l-1.439-1.44l1.021-1.022
	c0.114-0.112,0.257-0.167,0.407-0.168c0.146,0.002,0.289,0.056,0.403,0.168l0.565,0.566c0.112,0.114,0.232,0.321,0.232,0.469
	C11.737,3.333,11.683,3.477,11.569,3.589z M8.55,12c-0.276,0-0.5-0.224-0.5-0.5v0.115C8.05,11.068,8.273,11,8.55,11h5.95
	c0.276,0,0.5,0.224,0.5,0.5l0,0c0,0.276-0.224,0.5-0.5,0.5H8.55z"/>
</svg>
