<?xml version="1.0" encoding="utf-8"?>
<!-- Generator: Adobe Illustrator 16.0.0, SVG Export Plug-In . SVG Version: 6.00 Build 0)  -->
<!DOCTYPE svg PUBLIC "-//W3C//DTD SVG 1.1//EN" "http://www.w3.org/Graphics/SVG/1.1/DTD/svg11.dtd">
<svg version="1.1" id="Layer_1" xmlns="http://www.w3.org/2000/svg" xmlns:xlink="http://www.w3.org/1999/xlink" x="0px" y="0px"
	 width="16px" height="16px" viewBox="0 0 16 16" enable-background="new 0 0 16 16" xml:space="preserve">
<path fill-rule="evenodd" clip-rule="evenodd" fill="#010101" d="M8,1C4.135,1,1,4.135,1,8c0,3.866,3.135,7,7,7c3.867,0,7-3.134,7-7
	C15,4.135,11.867,1,8,1z M8,14.012c-3.32,0-6.012-2.691-6.012-6.012S4.68,1.988,8,1.988S14.01,4.68,14.01,8S11.32,14.012,8,14.012z
	 M6.076,5.151c0.416-0.442,0.987-0.664,1.712-0.664c0.671,0,1.209,0.189,1.612,0.568c0.404,0.378,0.605,0.862,0.605,1.451
	c0,0.356-0.072,0.646-0.219,0.868c-0.146,0.223-0.447,0.549-0.9,0.979C8.557,8.668,8.342,8.933,8.242,9.15
	c-0.1,0.217-0.149,0.338-0.149,0.763H7.194c0-0.481,0.057-0.671,0.172-0.965C7.48,8.653,7.735,8.316,8.129,7.936l0.413-0.398
	c0.124-0.114,0.224-0.234,0.3-0.358c0.14-0.219,0.21-0.446,0.21-0.682c0-0.33-0.101-0.616-0.302-0.858
	C8.55,5.396,8.217,5.274,7.753,5.274c-0.574,0-0.971,0.209-1.191,0.626C6.438,6.133,6.368,6.468,6.351,6.905H5.452
	C5.452,6.179,5.66,5.594,6.076,5.151z M7.146,11h1v0.995h-1V11z"/>
</svg>
