<?xml version="1.0" encoding="utf-8"?>
<!-- Generator: Adobe Illustrator 16.0.0, SVG Export Plug-In . SVG Version: 6.00 Build 0)  -->
<!DOCTYPE svg PUBLIC "-//W3C//DTD SVG 1.1//EN" "http://www.w3.org/Graphics/SVG/1.1/DTD/svg11.dtd">
<svg version="1.1" id="Layer_1" xmlns="http://www.w3.org/2000/svg" xmlns:xlink="http://www.w3.org/1999/xlink" x="0px" y="0px"
	 width="16px" height="16px" viewBox="0 0 16 16" enable-background="new 0 0 16 16" xml:space="preserve">
<path fill-rule="evenodd" clip-rule="evenodd" fill="#020202" d="M15,6h-2V2V1h-1H1v1h5v1H4.312c-0.084,0-0.158,0.03-0.22,0.093
	C4.03,3.155,4,3.229,4,3.312s0.03,0.157,0.093,0.22L6.28,5.907C6.342,5.969,6.416,6,6.5,6s0.157-0.031,0.22-0.093l2.188-2.375
	C8.969,3.47,9,3.396,9,3.312s-0.031-0.157-0.093-0.22C8.845,3.03,8.771,3,8.688,3H7V2h5v4H6.5H2H1v4h1h4.5H12v4l-5,0.007V13h1.688
	c0.084,0,0.158-0.03,0.22-0.093C8.97,12.845,9,12.771,9,12.688s-0.03-0.157-0.093-0.22L6.72,10.093C6.658,10.031,6.584,10,6.5,10
	s-0.157,0.031-0.22,0.093l-2.188,2.375C4.031,12.53,4,12.604,4,12.688s0.031,0.157,0.093,0.22C4.155,12.97,4.229,13,4.312,13H6
	v1.009l-5,0.007V15h11h1v-1v-4h2V6z"/>
</svg>
