<?xml version="1.0" encoding="utf-8"?>
<!-- Generator: Adobe Illustrator 16.0.0, SVG Export Plug-In . SVG Version: 6.00 Build 0)  -->
<!DOCTYPE svg PUBLIC "-//W3C//DTD SVG 1.1//EN" "http://www.w3.org/Graphics/SVG/1.1/DTD/svg11.dtd">
<svg version="1.1" id="Layer_1" xmlns="http://www.w3.org/2000/svg" xmlns:xlink="http://www.w3.org/1999/xlink" x="0px" y="0px"
	 width="16px" height="16px" viewBox="0 0 16 16" enable-background="new 0 0 16 16" xml:space="preserve">
<path d="M12,9.268V8.824c0-2.23-1.229-3.796-3-3.895V4.911H8.828H8V1.896c0-0.237-0.264-0.429-0.5-0.429S7,1.659,7,1.896v3.015
	H6.672H6.5v0.019c-1.771,0.099-3,1.664-3,3.895v0.444C2.111,9.342,1,10.486,1,11.893c0,1.455,1.185,2.641,2.64,2.641
	c1.456,0,2.641-1.186,2.641-2.641c0-1.152-0.748-2.125-1.78-2.482V8.824c0-1.45,0.672-2.913,2.172-2.913h2.156
	c1.5,0,2.172,1.463,2.172,2.913V9.41c-1.032,0.357-1.78,1.33-1.78,2.482c0,1.455,1.185,2.641,2.641,2.641
	c1.455,0,2.64-1.186,2.64-2.641C14.5,10.486,13.389,9.342,12,9.268z M5.28,11.893c0,0.904-0.736,1.641-1.641,1.641
	S2,12.797,2,11.893s0.735-1.639,1.64-1.639S5.28,10.988,5.28,11.893z M11.86,13.533c-0.904,0-1.641-0.736-1.641-1.641
	s0.736-1.639,1.641-1.639s1.64,0.734,1.64,1.639S12.765,13.533,11.86,13.533z"/>
</svg>
