<?xml version="1.0" encoding="utf-8"?>
<!-- Generator: Adobe Illustrator 16.0.0, SVG Export Plug-In . SVG Version: 6.00 Build 0)  -->
<!DOCTYPE svg PUBLIC "-//W3C//DTD SVG 1.1//EN" "http://www.w3.org/Graphics/SVG/1.1/DTD/svg11.dtd">
<svg version="1.1" id="Layer_1" xmlns="http://www.w3.org/2000/svg" xmlns:xlink="http://www.w3.org/1999/xlink" x="0px" y="0px"
	 width="16px" height="16px" viewBox="0 0 16 16" enable-background="new 0 0 16 16" xml:space="preserve">
<path d="M13.5,5h-11C1.673,5,1,4.327,1,3.5v-1C1,1.673,1.673,1,2.5,1h11C14.327,1,15,1.673,15,2.5v1C15,4.327,14.327,5,13.5,5z
	 M2.5,2C2.225,2,2,2.225,2,2.5v1C2,3.775,2.225,4,2.5,4h11C13.775,4,14,3.775,14,3.5v-1C14,2.225,13.775,2,13.5,2H2.5z M3.5,2.5
	C3.224,2.5,3,2.724,3,3s0.224,0.5,0.5,0.5S4,3.276,4,3S3.776,2.5,3.5,2.5z M5.5,2.5C5.224,2.5,5,2.724,5,3s0.224,0.5,0.5,0.5
	S6,3.276,6,3S5.776,2.5,5.5,2.5z M13,3c0-0.276-0.224-0.5-0.5-0.5h-2C10.224,2.5,10,2.724,10,3l0,0c0,0.276,0.224,0.5,0.5,0.5h2
	C12.776,3.5,13,3.276,13,3L13,3z M13.5,10h-11C1.673,10,1,9.327,1,8.5v-1C1,6.673,1.673,6,2.5,6h11C14.327,6,15,6.673,15,7.5v1
	C15,9.327,14.327,10,13.5,10z M2.5,7C2.225,7,2,7.225,2,7.5v1C2,8.775,2.225,9,2.5,9h11C13.775,9,14,8.775,14,8.5v-1
	C14,7.225,13.775,7,13.5,7H2.5z M3.5,7.5C3.224,7.5,3,7.724,3,8s0.224,0.5,0.5,0.5S4,8.276,4,8S3.776,7.5,3.5,7.5z M5.5,7.5
	C5.224,7.5,5,7.724,5,8s0.224,0.5,0.5,0.5S6,8.276,6,8S5.776,7.5,5.5,7.5z M13,8c0-0.276-0.224-0.5-0.5-0.5h-2
	C10.224,7.5,10,7.724,10,8l0,0c0,0.276,0.224,0.5,0.5,0.5h2C12.776,8.5,13,8.276,13,8L13,8z M13.5,15h-11C1.673,15,1,14.327,1,13.5
	v-1C1,11.673,1.673,11,2.5,11h11c0.827,0,1.5,0.673,1.5,1.5v1C15,14.327,14.327,15,13.5,15z M2.5,12C2.225,12,2,12.225,2,12.5v1
	C2,13.775,2.225,14,2.5,14h11c0.275,0,0.5-0.225,0.5-0.5v-1c0-0.275-0.225-0.5-0.5-0.5H2.5z M3.5,12.5C3.224,12.5,3,12.724,3,13
	s0.224,0.5,0.5,0.5S4,13.276,4,13S3.776,12.5,3.5,12.5z M5.5,12.5C5.224,12.5,5,12.724,5,13s0.224,0.5,0.5,0.5S6,13.276,6,13
	S5.776,12.5,5.5,12.5z M13,13c0-0.276-0.224-0.5-0.5-0.5h-2c-0.276,0-0.5,0.224-0.5,0.5l0,0c0,0.276,0.224,0.5,0.5,0.5h2
	C12.776,13.5,13,13.276,13,13L13,13z"/>
</svg>
