<?xml version="1.0" encoding="utf-8"?>
<!-- Generator: Adobe Illustrator 16.0.0, SVG Export Plug-In . SVG Version: 6.00 Build 0)  -->
<!DOCTYPE svg PUBLIC "-//W3C//DTD SVG 1.1//EN" "http://www.w3.org/Graphics/SVG/1.1/DTD/svg11.dtd">
<svg version="1.1" id="Layer_1" xmlns="http://www.w3.org/2000/svg" xmlns:xlink="http://www.w3.org/1999/xlink" x="0px" y="0px"
	 width="16px" height="16px" viewBox="0 0 16 16" enable-background="new 0 0 16 16" xml:space="preserve">
<path fill="#020202" d="M11.159,1.702c-0.047,0.462-0.723,0.414-0.902,0.414c-1.091,0-2.276-0.566-2.912,1.765L7.048,5.343H8.55
	c0.275,0,0.5,0.224,0.5,0.5s-0.225,0.5-0.5,0.5H6.835l-1.35,6.631c0,0-0.13,1.066-0.785,1.025c-0.75-0.047-0.406-1.114-0.406-1.114
	l1.338-6.542H4.6c-0.261,0-0.469-0.201-0.491-0.457C4.131,5.418,4.339,5.343,4.6,5.343h1.247L6.16,3.851
	C6.382,2.794,6.84,1.906,7.638,1.39c0.797-0.516,2.109-0.422,2.736-0.351C10.638,1.069,11.218,1.123,11.159,1.702z M3.098,5.884
	c0.06-0.271-0.11-0.536-0.381-0.596c-0.27-0.06-0.536,0.111-0.596,0.381l-1.702,7.654c-0.057,0.255-0.026,0.475,0.425,0.597
	c0.255,0.033,0.497-0.127,0.552-0.381L3.098,5.884z M4.1,5.958c0-0.03,0.007-0.045,0.009-0.072C4.106,5.871,4.1,5.858,4.1,5.843
	V5.958z M3.137,2.682c-0.414,0-0.75,0.336-0.75,0.75s0.336,0.75,0.75,0.75c0.416,0,0.75-0.336,0.75-0.75S3.553,2.682,3.137,2.682z
	 M10.636,13.814c0.256-0.214,0.324-0.634,0.154-0.938c-0.006-0.013-0.682-1.238-0.574-2.994c0.107-1.714,1.115-2.885,1.139-2.912
	c0.227-0.255,0.244-0.68,0.037-0.949c-0.209-0.268-0.564-0.281-0.793-0.025C10.544,6.059,9.24,7.539,9.102,9.813
	c-0.139,2.239,0.724,3.775,0.759,3.841c0.1,0.172,0.256,0.271,0.422,0.281C10.401,13.943,10.528,13.904,10.636,13.814z
	 M13.587,13.885c0.164,0.026,0.336-0.032,0.467-0.18c0.049-0.056,1.189-1.362,1.49-3.583c0.305-2.254-0.684-4-0.725-4.07
	c-0.174-0.303-0.523-0.372-0.779-0.157c-0.256,0.216-0.32,0.637-0.146,0.938c0.016,0.032,0.775,1.405,0.545,3.105
	c-0.234,1.74-1.133,2.787-1.143,2.797c-0.225,0.258-0.24,0.684-0.031,0.951C13.353,13.797,13.468,13.864,13.587,13.885z"/>
</svg>
