<?xml version="1.0" encoding="utf-8"?>
<!-- Generator: Adobe Illustrator 16.0.0, SVG Export Plug-In . SVG Version: 6.00 Build 0)  -->
<!DOCTYPE svg PUBLIC "-//W3C//DTD SVG 1.1//EN" "http://www.w3.org/Graphics/SVG/1.1/DTD/svg11.dtd">
<svg version="1.1" id="Layer_1" xmlns="http://www.w3.org/2000/svg" xmlns:xlink="http://www.w3.org/1999/xlink" x="0px" y="0px"
	 width="16px" height="16px" viewBox="0 0 16 16" enable-background="new 0 0 16 16" xml:space="preserve">
<path fill-rule="evenodd" clip-rule="evenodd" fill="#020202" d="M8.703,11.25c0,0.414-0.334,0.75-0.75,0.75l0,0
	c-0.413,0-0.75-0.336-0.75-0.75v-3.5C7.203,7.335,7.54,7,7.953,7l0,0c0.416,0,0.75,0.335,0.75,0.75V11.25z M7.953,4
	c-0.413,0-0.75,0.335-0.75,0.75S7.54,5.5,7.953,5.5c0.416,0,0.75-0.335,0.75-0.75S8.369,4,7.953,4z M14.953,8c0,3.865-3.133,7-7,7
	c-3.865,0-7-3.135-7-7c0-3.866,3.135-7,7-7C11.82,1,14.953,4.134,14.953,8z"/>
</svg>
