<?xml version="1.0" encoding="utf-8"?>
<!-- Generator: Adobe Illustrator 16.0.0, SVG Export Plug-In . SVG Version: 6.00 Build 0)  -->
<!DOCTYPE svg PUBLIC "-//W3C//DTD SVG 1.1//EN" "http://www.w3.org/Graphics/SVG/1.1/DTD/svg11.dtd">
<svg version="1.1" id="Layer_1" xmlns="http://www.w3.org/2000/svg" xmlns:xlink="http://www.w3.org/1999/xlink" x="0px" y="0px"
	 width="16px" height="16px" viewBox="0 0 16 16" enable-background="new 0 0 16 16" xml:space="preserve">
<path fill-rule="evenodd" clip-rule="evenodd" fill="#020202" d="M10.206,11.15c0.201-0.201,0.525-0.201,0.727,0
	c0.1,0.1,0.059,0.23,0.059,0.363c0,0.131-0.051,0.262-0.15,0.361L8.905,13.85c-0.002,0.002-0.005,0.003-0.008,0.005
	c-0.045,0.045-0.149,0.081-0.208,0.106c-0.054,0.021-0.01,0.029-0.064,0.033C8.613,13.994,8.604,14,8.593,14
	c-0.008,0-0.014-0.004-0.021-0.004c-0.06-0.003-0.09-0.014-0.146-0.035c-0.051-0.021-0.094-0.055-0.135-0.09
	c-0.01-0.008-0.023-0.012-0.032-0.021l-2.146-1.975c-0.201-0.199-0.109-0.525,0.092-0.725c0.2-0.201,0.525-0.201,0.726,0
	l1.648,1.568L10.206,11.15z M6,1v9h5V1H6z M2,11v4H1v-4v-1l0,0h1h2h1v1v4H4.016L4,11H2 M13,11v4h-1v-4v-1l0,0h1h2h1v1v4h-0.984
	L15,11H13"/>
</svg>
