<?xml version="1.0" encoding="utf-8"?>
<!-- Generator: Adobe Illustrator 16.0.0, SVG Export Plug-In . SVG Version: 6.00 Build 0)  -->
<!DOCTYPE svg PUBLIC "-//W3C//DTD SVG 1.1//EN" "http://www.w3.org/Graphics/SVG/1.1/DTD/svg11.dtd">
<svg version="1.1" id="Layer_1" xmlns="http://www.w3.org/2000/svg" xmlns:xlink="http://www.w3.org/1999/xlink" x="0px" y="0px"
	 width="16px" height="16px" viewBox="0 0 16 16" enable-background="new 0 0 16 16" xml:space="preserve">
<path fill-rule="evenodd" clip-rule="evenodd" fill="#020202" d="M6.663,4.021c0.4-0.085,0.817-0.143,1.265-0.143
	c3.188,0,5.503,2.672,6.344,3.565c0.246,0.261,0.323,0.986-0.039,1.412c-0.289,0.34-0.721,0.867-1.321,1.399l-1.974-1.969
	c0.007-0.085,0.025-0.167,0.025-0.254c0-1.63-1.322-2.952-2.952-2.952c-0.089,0-0.174,0.019-0.261,0.026L6.663,4.021z M8.357,10.948
	c-0.115,0.014-0.228,0.035-0.346,0.035c-1.631,0-2.953-1.322-2.953-2.953c0-0.116,0.021-0.226,0.034-0.339L3.244,5.849
	C2.648,6.375,2.161,6.906,1.786,7.3C1.448,7.655,1.442,8.376,1.712,8.669c1.237,1.341,3.168,3.468,6.216,3.468
	c0.533,0,1.017-0.06,1.475-0.147L8.357,10.948z M12.876,12.85c0.195-0.195,0.195-0.512,0-0.707L3.684,2.951
	c-0.195-0.195-0.512-0.195-0.707,0l0,0c-0.195,0.195-0.195,0.512,0,0.707l9.192,9.192C12.364,13.045,12.681,13.045,12.876,12.85
	L12.876,12.85z"/>
</svg>
