<?xml version="1.0" encoding="utf-8"?>
<!-- Generator: Adobe Illustrator 19.0.0, SVG Export Plug-In . SVG Version: 6.00 Build 0)  -->
<svg version="1.1" id="图层_1" xmlns="http://www.w3.org/2000/svg" xmlns:xlink="http://www.w3.org/1999/xlink" x="0px" y="0px"
	 viewBox="0 0 24 24" style="enable-background:new 0 0 24 24;" xml:space="preserve">
<path id="XMLID_2_" d="M17.5,2h-11C5.1,2,4,3.1,4,4.5v15C4,20.9,5.1,22,6.5,22h11c1.4,0,2.5-1.1,2.5-2.5v-15C20,3.1,18.9,2,17.5,2z
	 M6.5,3h11C18.3,3,19,3.7,19,4.5V17H5V4.5C5,3.7,5.7,3,6.5,3z M19,19.5c0,0.8-0.7,1.5-1.5,1.5h-11C5.7,21,5,20.3,5,19.5V18h14V19.5z
	 M13,20h-2v-1h2V20z"/>
</svg>
