<?xml version="1.0" encoding="utf-8"?>
<!-- Generator: Adobe Illustrator 16.0.0, SVG Export Plug-In . SVG Version: 6.00 Build 0)  -->
<!DOCTYPE svg PUBLIC "-//W3C//DTD SVG 1.1//EN" "http://www.w3.org/Graphics/SVG/1.1/DTD/svg11.dtd">
<svg version="1.1" id="Layer_1" xmlns="http://www.w3.org/2000/svg" xmlns:xlink="http://www.w3.org/1999/xlink" x="0px" y="0px"
	 width="18px" height="18px" viewBox="0 0 18 18" enable-background="new 0 0 18 18" xml:space="preserve">
<path fill="#666666" d="M16.242,6.643l-4.885-4.885c-1.012-1.011-2.65-1.011-3.662,0L2.811,6.643c-1.011,1.012-1.011,2.651,0,3.662
	l0.352,0.351l-0.003,0.004l6.341,6.34l1.595-1.595c0.089-0.069,0.181-0.133,0.263-0.215l4.885-4.885
	C17.253,9.294,17.253,7.654,16.242,6.643z M9.524,11.493c-1.914,0-3.468-1.554-3.468-3.47c0-1.917,1.554-3.472,3.468-3.472
	c1.92,0,3.472,1.555,3.472,3.472C12.996,9.939,11.444,11.493,9.524,11.493z"/>
</svg>
