<?xml version="1.0" encoding="utf-8"?>
<!-- Generator: Adobe Illustrator 16.0.0, SVG Export Plug-In . SVG Version: 6.00 Build 0)  -->
<!DOCTYPE svg PUBLIC "-//W3C//DTD SVG 1.1//EN" "http://www.w3.org/Graphics/SVG/1.1/DTD/svg11.dtd">
<svg version="1.1" id="Layer_1" xmlns="http://www.w3.org/2000/svg" xmlns:xlink="http://www.w3.org/1999/xlink" x="0px" y="0px"
	 width="18px" height="18px" viewBox="0 0 18 18" enable-background="new 0 0 18 18" xml:space="preserve">
<path fill="#666666" d="M13.723,2.85c-2.59-2.592-6.782-2.572-9.375,0.022c-2.593,2.593-2.61,6.793-0.018,9.386l4.684,4.658
	l4.698-4.696C16.302,9.627,16.316,5.444,13.723,2.85z M12.583,7.828c0,1.964-1.591,3.555-3.557,3.555
	c-1.962,0-3.554-1.591-3.554-3.555c0-0.012,0.003-0.022,0.003-0.034S5.472,7.771,5.472,7.76c0-1.963,1.59-3.555,3.555-3.555
	s3.556,1.592,3.556,3.555c0,0.012-0.003,0.022-0.003,0.034S12.583,7.816,12.583,7.828z"/>
</svg>
