<?xml version="1.0" encoding="utf-8"?>
<!-- Generator: Adobe Illustrator 16.0.0, SVG Export Plug-In . SVG Version: 6.00 Build 0)  -->
<!DOCTYPE svg PUBLIC "-//W3C//DTD SVG 1.1//EN" "http://www.w3.org/Graphics/SVG/1.1/DTD/svg11.dtd">
<svg version="1.1" id="Layer_1" xmlns="http://www.w3.org/2000/svg" xmlns:xlink="http://www.w3.org/1999/xlink" x="0px" y="0px"
	 width="24px" height="24px" viewBox="0 0 24 24" enable-background="new 0 0 24 24" xml:space="preserve">
<g>
	<path fill="#666666" d="M8.5,6c3.59,0,6.5,2.91,6.5,6.5c0,3.588-2.91,6.5-6.5,6.5S2,16.088,2,12.5C2,8.91,4.91,6,8.5,6 M8.5,5
		C4.364,5,1,8.364,1,12.5S4.364,20,8.5,20s7.5-3.364,7.5-7.5S12.636,5,8.5,5L8.5,5z"/>
</g>
<g>
	<path fill="#666666" d="M15.5,6c3.59,0,6.5,2.91,6.5,6.5c0,3.588-2.91,6.5-6.5,6.5C11.909,19,9,16.088,9,12.5
		C9,8.91,11.909,6,15.5,6 M15.5,5C11.364,5,8,8.364,8,12.5s3.364,7.5,7.5,7.5s7.5-3.364,7.5-7.5S19.636,5,15.5,5L15.5,5z"/>
</g>
<g>
	<path fill-rule="evenodd" clip-rule="evenodd" fill="#289DE9" d="M9,12.5c0,2.299,1.197,4.315,3,5.471c1.803-1.155,3-3.172,3-5.471
		c0-2.3-1.197-4.316-3-5.472C10.197,8.184,9,10.2,9,12.5z"/>
</g>
</svg>
