<?xml version="1.0" encoding="utf-8"?>
<!-- Generator: Adobe Illustrator 16.0.0, SVG Export Plug-In . SVG Version: 6.00 Build 0)  -->
<!DOCTYPE svg PUBLIC "-//W3C//DTD SVG 1.1//EN" "http://www.w3.org/Graphics/SVG/1.1/DTD/svg11.dtd">
<svg version="1.1" id="Layer_1" xmlns="http://www.w3.org/2000/svg" xmlns:xlink="http://www.w3.org/1999/xlink" x="0px" y="0px"
	 width="24px" height="24px" viewBox="0 0 24 24" enable-background="new 0 0 24 24" xml:space="preserve">
<path d="M10.425,13.595c0.444,0,0.805-0.36,0.805-0.804s-0.36-0.807-0.805-0.807c-0.445,0-0.805,0.363-0.805,0.807
	S9.98,13.595,10.425,13.595z M3.53,21.947C4.331,22.896,5.646,23,6.178,23c0.132,0,0.216-0.006,0.231-0.008l4.6,0.002
	c0.001,0,0.002,0,0.003,0h6.615c0.007,0.001,0.082,0.007,0.205,0.007c0.505,0,1.828-0.1,2.634-1.055
	c1.206-1.429,0.522-3.06,0.493-3.128l-4.255-7.339c-0.139-0.239-0.445-0.32-0.684-0.181c-0.238,0.139-0.319,0.445-0.181,0.684
	l2.135,3.685c-0.883,0.38-2.658,0.833-5.244,0.024c-2.836-0.889-5.035-0.872-6.307-0.729l4.066-6.999l0.008-2.489l-0.297-0.294
	L9.928,5.184c-0.22,0.003-0.966,0.013-1.109,0.002C8.09,5.143,7.578,4.688,7.578,4.104c0-1.027,1.16-1.102,1.209-1.105L11.502,3
	c0,0,0.001,0,0.001,0h3.733c0.196,0.002,1.182,0.063,1.182,1.104c0,0.991-0.979,1.077-1.188,1.083L14,5.183
	c-0.002,0-0.002,0-0.002,0c-0.133,0-0.26,0.052-0.354,0.146s-0.146,0.221-0.146,0.354v2.146c0,0.088,0.023,0.175,0.067,0.251
	l1.008,1.704c0.093,0.16,0.261,0.249,0.433,0.249c0.086,0,0.172-0.022,0.251-0.068c0.239-0.139,0.319-0.445,0.181-0.684
	l-0.939-1.587V6.185l0.736,0.002V6.18c0.369,0.025,0.822-0.149,0.938-0.197c0.804-0.333,1.246-1,1.246-1.879
	c0-0.601-0.189-1.094-0.562-1.465C16.23,2.016,15.321,2.006,15.234,2h-2.742h-0.989H8.759C7.987,2.042,6.578,2.533,6.578,4.104
	c0,1.131,0.909,2.005,2.16,2.078c0.018,0.003,0.08,0.01,0.759,0.006L9.491,7.693L3.063,18.766
	C3.007,18.887,2.323,20.518,3.53,21.947z M3.956,19.213l1.82-3.133c0.792-0.165,3.234-0.506,6.656,0.565
	c1.155,0.362,2.176,0.495,3.051,0.495c1.369,0,2.37-0.325,2.994-0.609l1.591,2.737c0-0.001,0-0.001-0.001-0.001
	c-0.004,0,0.432,1.09-0.365,2.033c-0.662,0.785-2.018,0.694-2.033,0.695l-4.685-0.002l0,0H6.368
	c-0.055,0.003-1.408,0.098-2.074-0.692C3.494,20.354,3.937,19.259,3.956,19.213z M6.716,20.562c-0.085,0-0.172-0.021-0.251-0.068
	c-0.239-0.139-0.319-0.444-0.181-0.684l1.328-2.281c0.139-0.238,0.445-0.319,0.684-0.18c0.239,0.139,0.319,0.444,0.181,0.684
	l-1.328,2.281C7.056,20.474,6.888,20.562,6.716,20.562z"/>
</svg>
