<?xml version="1.0" encoding="utf-8"?>
<!-- Generator: Adobe Illustrator 19.0.0, SVG Export Plug-In . SVG Version: 6.00 Build 0)  -->
<svg version="1.1" id="Layer_1" xmlns="http://www.w3.org/2000/svg" xmlns:xlink="http://www.w3.org/1999/xlink" x="0px" y="0px"
	 viewBox="0 0 16 16" style="enable-background:new 0 0 16 16;" xml:space="preserve">
<g>
	<path d="M5,15H2c-0.5,0-1-0.4-1-1V5c0-0.6,0.5-1,1-1h2c0.6,0,1,0.4,1,1V15z M6,5l2-3.7C8.1,1.1,8.3,1,8.5,1h2.1
		c0.2,0,0.4,0.1,0.5,0.2c0.1,0.1,0.2,0.3,0.1,0.5L10.7,5h3.7c0.2,0,0.4,0.1,0.5,0.2C15,5.4,15,5.5,15,5.7l-1.3,8.8
		c0,0.3-0.3,0.5-0.6,0.5H6V5z"/>
</g>
</svg>
