<?xml version="1.0" encoding="utf-8"?>
<!-- Generator: Adobe Illustrator 19.0.0, SVG Export Plug-In . SVG Version: 6.00 Build 0)  -->
<svg version="1.1" id="图层_1" xmlns="http://www.w3.org/2000/svg" xmlns:xlink="http://www.w3.org/1999/xlink" x="0px" y="0px"
	 viewBox="0 0 24 24" style="enable-background:new 0 0 24 24;" xml:space="preserve">
<path d="M21.8,8.3C21.6,8.1,21.3,8,21.1,8h-5.6l1.3-4.9c0.1-0.3,0-0.6-0.2-0.8C16.5,2.1,16.2,2,15.9,2h-3.1c-0.3,0-0.7,0.2-0.8,0.5
	L9,8H7.7C7.4,7.4,6.8,7,6,7H3C1.9,7,1,7.9,1,9v11c0,1.1,0.9,2,2,2h5v-1v-0.9V9h1.6l3.3-6h2.9l-1.6,6H21l-1.9,12h-8.6
	c-0.3,0-0.5,0.2-0.5,0.5c0,0.3,0.2,0.5,0.5,0.5h8.6c0.5,0,0.8-0.3,0.9-0.8L22,9.1C22,8.8,22,8.5,21.8,8.3z M7,21H3c-0.6,0-1-0.4-1-1
	V9c0-0.6,0.4-1,1-1h3c0.6,0,1,0.4,1,1V21z M5.5,18.5c0,0.6-0.4,1-1,1s-1-0.4-1-1c0-0.6,0.4-1,1-1S5.5,17.9,5.5,18.5z"/>
</svg>
