<?xml version="1.0" encoding="utf-8"?>
<!-- Generator: Adobe Illustrator 16.0.0, SVG Export Plug-In . SVG Version: 6.00 Build 0)  -->
<!DOCTYPE svg PUBLIC "-//W3C//DTD SVG 1.1//EN" "http://www.w3.org/Graphics/SVG/1.1/DTD/svg11.dtd">
<svg version="1.1" id="Layer_1" xmlns="http://www.w3.org/2000/svg" xmlns:xlink="http://www.w3.org/1999/xlink" x="0px" y="0px"
	 width="16px" height="16px" viewBox="0 0 16 16" enable-background="new 0 0 16 16" xml:space="preserve">
<path fill-rule="evenodd" clip-rule="evenodd" fill="#020202" d="M14,4.521c0,0.276-0.224,0.45-0.5,0.45h-9
	c-0.276,0-0.5-0.174-0.5-0.45l0,0c0-0.276,0.224-0.5,0.5-0.5h9C13.776,4.021,14,4.244,14,4.521L14,4.521z M14,8.521
	c0-0.276-0.224-0.5-0.5-0.5h-9c-0.276,0-0.5,0.224-0.5,0.5l0,0c0,0.276,0.224,0.45,0.5,0.45h9C13.776,8.971,14,8.797,14,8.521
	L14,8.521z M14,12.521c0-0.276-0.224-0.5-0.5-0.5h-9c-0.276,0-0.5,0.224-0.5,0.5l0,0c0,0.276,0.224,0.45,0.5,0.45h9
	C13.776,12.971,14,12.797,14,12.521L14,12.521z M2.483,2.83H2.257C2.195,2.954,2.092,3.081,1.944,3.213S1.625,3.456,1.429,3.549
	v0.34c0.109-0.04,0.232-0.101,0.37-0.182s0.248-0.161,0.333-0.242v2.24h0.352V2.83z M1.498,9.462
	c0.039-0.063,0.089-0.127,0.148-0.19s0.195-0.184,0.406-0.36c0.253-0.214,0.434-0.382,0.542-0.504s0.187-0.239,0.233-0.35
	s0.07-0.224,0.07-0.338c0-0.226-0.08-0.414-0.24-0.566S2.28,6.925,2.006,6.925c-0.272,0-0.489,0.07-0.65,0.212
	S1.101,7.483,1.076,7.753L1.438,7.79C1.438,7.61,1.49,7.47,1.592,7.368s0.237-0.152,0.406-0.152c0.16,0,0.29,0.048,0.39,0.144
	s0.149,0.213,0.149,0.353c0,0.133-0.055,0.273-0.164,0.423S2.054,8.486,1.742,8.741c-0.2,0.164-0.354,0.309-0.46,0.434
	S1.099,9.427,1.051,9.556C1.021,9.634,1.007,9.715,1.01,9.8h1.893V9.462H1.498z M1.303,13.695c0.166,0.149,0.375,0.225,0.626,0.225
	c0.278,0,0.509-0.087,0.691-0.261s0.273-0.386,0.273-0.636c0-0.185-0.047-0.339-0.141-0.462s-0.226-0.204-0.395-0.243
	c0.13-0.06,0.229-0.141,0.295-0.242s0.1-0.214,0.1-0.338c0-0.13-0.035-0.253-0.104-0.369s-0.17-0.207-0.302-0.274
	s-0.275-0.101-0.432-0.101c-0.227,0-0.416,0.064-0.568,0.194s-0.25,0.312-0.293,0.548l0.352,0.062
	c0.026-0.172,0.085-0.301,0.176-0.387s0.205-0.129,0.342-0.129c0.138,0,0.251,0.042,0.338,0.127s0.131,0.191,0.131,0.32
	c0,0.163-0.06,0.283-0.18,0.361s-0.255,0.117-0.404,0.117c-0.015,0-0.033-0.001-0.057-0.004l-0.039,0.309
	c0.099-0.026,0.182-0.039,0.248-0.039c0.163,0,0.297,0.053,0.402,0.157s0.158,0.238,0.158,0.399c0,0.169-0.057,0.312-0.171,0.426
	s-0.254,0.172-0.419,0.172c-0.14,0-0.258-0.044-0.354-0.132S1.41,13.266,1.37,13.066l-0.352,0.047
	C1.042,13.352,1.137,13.546,1.303,13.695z"/>
</svg>
