<?xml version="1.0" encoding="utf-8"?>
<!-- Generator: Adobe Illustrator 16.0.0, SVG Export Plug-In . SVG Version: 6.00 Build 0)  -->
<!DOCTYPE svg PUBLIC "-//W3C//DTD SVG 1.1//EN" "http://www.w3.org/Graphics/SVG/1.1/DTD/svg11.dtd">
<svg version="1.1" id="Layer_1" xmlns="http://www.w3.org/2000/svg" xmlns:xlink="http://www.w3.org/1999/xlink" x="0px" y="0px"
	 width="16px" height="16px" viewBox="0 0 16 16" enable-background="new 0 0 16 16" xml:space="preserve">
<path fill-rule="evenodd" clip-rule="evenodd" fill="#020202" d="M14,4.521c0,0.276-0.224,0.45-0.5,0.45h-9
	c-0.276,0-0.5-0.174-0.5-0.45l0,0c0-0.276,0.224-0.5,0.5-0.5h9C13.776,4.021,14,4.244,14,4.521L14,4.521z M14,8.521
	c0-0.276-0.224-0.5-0.5-0.5h-9c-0.276,0-0.5,0.224-0.5,0.5l0,0c0,0.276,0.224,0.45,0.5,0.45h9C13.776,8.971,14,8.797,14,8.521
	L14,8.521z M14,12.521c0-0.276-0.224-0.5-0.5-0.5h-9c-0.276,0-0.5,0.224-0.5,0.5l0,0c0,0.276,0.224,0.45,0.5,0.45h9
	C13.776,12.971,14,12.797,14,12.521L14,12.521z M3.009,4.479c0-0.276-0.224-0.5-0.5-0.5l0,0c-0.276,0-0.5,0.224-0.5,0.5l0,0
	c0,0.276,0.224,0.5,0.5,0.5l0,0C2.785,4.979,3.009,4.756,3.009,4.479L3.009,4.479z M3.009,8.479c0-0.276-0.224-0.5-0.5-0.5l0,0
	c-0.276,0-0.5,0.224-0.5,0.5l0,0c0,0.276,0.224,0.5,0.5,0.5l0,0C2.785,8.979,3.009,8.756,3.009,8.479L3.009,8.479z M3.009,12.479
	c0-0.276-0.224-0.5-0.5-0.5l0,0c-0.276,0-0.5,0.224-0.5,0.5l0,0c0,0.276,0.224,0.5,0.5,0.5l0,0
	C2.785,12.979,3.009,12.756,3.009,12.479L3.009,12.479z"/>
</svg>
