<?xml version="1.0" encoding="utf-8"?>
<!-- Generator: Adobe Illustrator 16.0.0, SVG Export Plug-In . SVG Version: 6.00 Build 0)  -->
<!DOCTYPE svg PUBLIC "-//W3C//DTD SVG 1.1//EN" "http://www.w3.org/Graphics/SVG/1.1/DTD/svg11.dtd">
<svg version="1.1" id="Layer_1" xmlns="http://www.w3.org/2000/svg" xmlns:xlink="http://www.w3.org/1999/xlink" x="0px" y="0px"
	 width="16px" height="16px" viewBox="0 0 16 16" enable-background="new 0 0 16 16" xml:space="preserve">
<path fill="#231F20" d="M14.423,9.014c-0.27-0.064-0.537,0.103-0.602,0.371C13.179,12.102,10.78,14,7.989,14
	c-1.685,0-3.219-0.7-4.317-1.847c-0.137-0.141-0.255-0.292-0.375-0.443c-0.096-0.121-0.194-0.238-0.28-0.367
	c-0.079-0.116-0.143-0.239-0.212-0.359c-0.104-0.181-0.207-0.361-0.293-0.554c-0.036-0.082-0.062-0.166-0.094-0.249
	C2.325,9.943,2.24,9.701,2.176,9.447c-0.251-1.009-0.23-2.068,0.062-3.086C2.302,6.14,2.367,5.92,2.453,5.711
	c0.095-0.229,0.213-0.449,0.338-0.669C3.833,3.199,5.78,2,7.989,2c2.792,0,5.19,1.898,5.833,4.615C13.876,6.846,14.081,7,14.308,7
	c0.039,0,0.076-0.004,0.115-0.014c0.27-0.063,0.436-0.333,0.371-0.602C14.044,3.215,11.245,1,7.989,1
	C5.503,1,3.292,2.296,2.046,4.317C2.043,4.322,2.038,4.325,2.035,4.33C1.987,4.407,1.958,4.491,1.914,4.569
	C1.775,4.815,1.639,5.062,1.531,5.327c-0.105,0.252-0.179,0.51-0.253,0.769C1.25,6.193,1.207,6.284,1.183,6.385
	C1.181,6.392,1.184,6.398,1.182,6.405C0.934,7.45,0.945,8.525,1.181,9.559c0.002,0.02-0.002,0.037,0.002,0.057
	c0.006,0.025,0.018,0.049,0.024,0.074c0.072,0.291,0.17,0.573,0.28,0.854c0.037,0.097,0.068,0.196,0.111,0.291
	c0.098,0.223,0.219,0.436,0.342,0.647c0.08,0.142,0.156,0.284,0.245,0.418c0.102,0.149,0.218,0.29,0.331,0.434
	c0.139,0.176,0.277,0.35,0.432,0.511c0.032,0.034,0.057,0.073,0.09,0.106l0.012-0.012C4.326,14.218,6.072,15,7.989,15
	c3.256,0,6.055-2.215,6.805-5.385C14.858,9.347,14.692,9.077,14.423,9.014z"/>
</svg>
