<?xml version="1.0" encoding="utf-8"?>
<!-- Generator: Adobe Illustrator 16.0.0, SVG Export Plug-In . SVG Version: 6.00 Build 0)  -->
<!DOCTYPE svg PUBLIC "-//W3C//DTD SVG 1.1//EN" "http://www.w3.org/Graphics/SVG/1.1/DTD/svg11.dtd">
<svg version="1.1" id="Layer_1" xmlns="http://www.w3.org/2000/svg" xmlns:xlink="http://www.w3.org/1999/xlink" x="0px" y="0px"
	 width="16px" height="16px" viewBox="0 0 16 16" enable-background="new 0 0 16 16" xml:space="preserve">
<path fill="#020202" d="M7.799,2c1.281,0,2.486,0.5,3.392,1.407c0.907,0.906,1.406,2.11,1.406,3.392
	c0,1.282-0.499,2.487-1.406,3.393l-3.393,3.395l-3.393-3.395C3.5,9.285,3,8.08,3,6.798c0-1.281,0.5-2.486,1.406-3.392
	C5.313,2.5,6.518,2,7.799,2 M7.799,10c0.8,0,1.554-0.312,2.121-0.879c0.566-0.566,0.879-1.32,0.879-2.121c0-1.654-1.346-3-3-3
	c-1.654,0-3,1.346-3,3c0,0.802,0.312,1.555,0.879,2.122C6.246,9.688,6.999,10,7.799,10 M7.799,1c-1.484,0-2.968,0.566-4.1,1.699
	c-2.266,2.264-2.266,5.935,0,8.199L7.799,15l4.1-4.102c2.266-2.265,2.266-5.936,0-8.199C10.767,1.566,9.283,1,7.799,1L7.799,1z
	 M7.799,9C7.247,9,6.747,8.775,6.385,8.414S5.799,7.553,5.799,7c0-1.105,0.895-2,2-2s2,0.895,2,2c0,0.553-0.225,1.053-0.586,1.414
	C8.851,8.775,8.351,9,7.799,9L7.799,9z"/>
</svg>
