<?xml version="1.0" encoding="utf-8"?>
<!-- Generator: Adobe Illustrator 19.0.0, SVG Export Plug-In . SVG Version: 6.00 Build 0)  -->
<svg version="1.1" id="图层_1" xmlns="http://www.w3.org/2000/svg" xmlns:xlink="http://www.w3.org/1999/xlink" x="0px" y="0px"
	 viewBox="0 0 16 16" style="enable-background:new 0 0 16 16;" xml:space="preserve">
<style type="text/css">
	.st0{fill-rule:evenodd;clip-rule:evenodd;fill:#020202;}
</style>
<path id="XMLID_11_" class="st0" d="M8,1C4.1,1,1,4.1,1,8c0,3.9,3.1,7,7,7c3.9,0,7-3.1,7-7C15,4.1,11.9,1,8,1z M8.5,14v-3h-1v3
	C4.6,13.7,2.3,11.4,2,8.5h3v-1H2C2.3,4.6,4.6,2.3,7.5,2v3h1V2c2.9,0.2,5.2,2.6,5.5,5.5h-3v1h3C13.7,11.4,11.4,13.7,8.5,14z"/>
</svg>
