<?xml version="1.0" encoding="utf-8"?>
<!-- Generator: Adobe Illustrator 16.0.0, SVG Export Plug-In . SVG Version: 6.00 Build 0)  -->
<!DOCTYPE svg PUBLIC "-//W3C//DTD SVG 1.1//EN" "http://www.w3.org/Graphics/SVG/1.1/DTD/svg11.dtd">
<svg version="1.1" id="Layer_1" xmlns="http://www.w3.org/2000/svg" xmlns:xlink="http://www.w3.org/1999/xlink" x="0px" y="0px"
	 width="16px" height="16px" viewBox="0 0 16 16" enable-background="new 0 0 16 16" xml:space="preserve">
<path d="M15,9.5v4c0,0.827-0.673,1.5-1.5,1.5h-11C1.673,15,1,14.327,1,13.5v-4C1,8.673,1.673,8,2.5,8H4v1H2.5C2.225,9,2,9.225,2,9.5
	v4C2,13.775,2.225,14,2.5,14h11c0.275,0,0.5-0.225,0.5-0.5v-4C14,9.225,13.775,9,13.5,9H12V8h1.5C14.327,8,15,8.673,15,9.5z
	 M11,5.453v4.143C11,9.826,10.807,10,10.561,10H5.456c-0.247,0-0.435-0.174-0.435-0.404V5.453c0-0.229,0.188-0.404,0.435-0.404
	h0.595V4.217c0-0.039-0.123-2.322,1.963-2.322L8.02,1.896c0.021,0,2.002-0.302,1.991,2.321l0,0v0.832h0.55
	C10.807,5.049,11,5.225,11,5.453z M6.77,5.049h2.43V4.217c0-1.639-1.106-1.571-1.221-1.575c-1.285,0-1.209,1.568-1.209,1.575V5.049z
	"/>
</svg>
