<?xml version="1.0" encoding="utf-8"?>
<!-- Generator: Adobe Illustrator 16.0.0, SVG Export Plug-In . SVG Version: 6.00 Build 0)  -->
<!DOCTYPE svg PUBLIC "-//W3C//DTD SVG 1.1//EN" "http://www.w3.org/Graphics/SVG/1.1/DTD/svg11.dtd">
<svg version="1.1" id="Layer_1" xmlns="http://www.w3.org/2000/svg" xmlns:xlink="http://www.w3.org/1999/xlink" x="0px" y="0px"
	 width="16px" height="16px" viewBox="0 0 16 16" enable-background="new 0 0 16 16" xml:space="preserve">
<path fill-rule="evenodd" clip-rule="evenodd" d="M13.03,7.76V5.579C13.03,3.051,11.039,1,8.51,1S3.931,3.051,3.931,5.579V7.76H3V15
	h10.961V7.76H13.03z M9.144,11.688v2.021H7.817v-2.021c-0.453-0.239-0.763-0.714-0.763-1.261C7.055,9.639,7.692,9,8.48,9
	c0.787,0,1.426,0.639,1.426,1.427C9.906,10.974,9.597,11.448,9.144,11.688z M11.723,7.76H5.238V5.579
	c0-1.806,1.465-3.271,3.271-3.271s3.213,1.465,3.213,3.271V7.76z"/>
</svg>
