<?xml version="1.0" encoding="utf-8"?>
<!-- Generator: Adobe Illustrator 16.0.0, SVG Export Plug-In . SVG Version: 6.00 Build 0)  -->
<!DOCTYPE svg PUBLIC "-//W3C//DTD SVG 1.1//EN" "http://www.w3.org/Graphics/SVG/1.1/DTD/svg11.dtd">
<svg version="1.1" id="Layer_2" xmlns="http://www.w3.org/2000/svg" xmlns:xlink="http://www.w3.org/1999/xlink" x="0px" y="0px"
	 width="16px" height="16px" viewBox="0 0 16 16" enable-background="new 0 0 16 16" xml:space="preserve">
<path fill="#989898" d="M13.816,7.282c0,0,0.041-0.224,0.086-0.224c0.044,0-0.24,0.071-0.24,0.071l-0.318-0.098L13.062,7.32
	c0,0-0.207,0.185-0.254-0.198L12.52,7.063c0,0-0.405-0.358,0.053-0.379l0.178-0.133l0.033-0.175l0.279-0.241l0.23-0.243l0.205,0.039
	c0,0-0.201,0.874,0.023,0.62s0.404-0.402,0.484-0.402s0.699-0.91,0.699-0.91l0.068,0.081c0,0,0.357,0.023,0.222-0.168
	c-0.136-0.192-0.009-0.11,0.044-0.11s0.426-0.327,0.337-0.484c-0.089-0.156,0.145,0.086,0.145,0.086l0.136-0.139
	c0,0-0.213-0.598-0.188-0.667c0.023-0.071,0.139-0.167,0.139-0.178c0-0.013,0.302,0.273,0.298-0.219
	c-0.003-0.494,0.151-1.069,0.074-1.141s-0.308,0.201-0.308,0.201l-0.136,0.018l-0.07,0.137L15.151,2.8l-0.15-0.121l-0.109-0.255
	l-0.339-0.088c0,0-0.181,0.002-0.181-0.009c0-0.013-0.134,0.059-0.134,0.059l-0.152-0.195c0,0-0.631-0.927-0.703-0.933
	c-0.074-0.006-0.316,0.023-0.417-0.068c-0.101-0.091-0.34,0.06-0.366,0.092c-0.027,0.032-0.252,0.15-0.316,0.136
	c-0.064-0.014-0.289,0.381-0.029,0.292c0.26-0.087,0.033,0.299-0.03,0.341c-0.062,0.042-0.153,0.419-0.144,0.451
	c0.008,0.032,0.085,0.13-0.09,0.257c-0.174,0.127-0.375,0.129-0.467,0.089c-0.091-0.041-0.223,0.63-0.197,0.671
	c0.026,0.041,0.089,0.101,0.089,0.101s0.089-0.089,0.145-0.054c0.056,0.036,0.171-0.038,0.206,0.021
	c0.036,0.058,0.016-0.32,0.385-0.062c0.369,0.257,0.375,0.331,0.053,0.334c-0.32,0.003-0.012,0.037-0.336,0.133l-0.062,0.13
	l-0.053-0.065c0,0-0.115,0.14-0.143,0.14c-0.026,0-0.006,0.138-0.006,0.138s-0.197,0.178-0.396,0.169S11.131,4.868,10.6,4.699
	l-0.112,0.092c0,0-0.073,0.304,0.023,0.343c0.098,0.038,0.009,0.178-0.077,0.178s-0.168,0.365-0.305,0.36
	C9.994,5.665,9.488,5.804,9.488,5.804L8.771,6.105c0,0-0.1-0.007-0.115-0.064c-0.015-0.06-0.472-0.069-0.52-0.069
	c-0.048,0-0.246-0.329-0.831-0.183C6.721,5.937,6.481,5.653,6.469,5.657C6.458,5.659,6.222,5.131,6.222,5.131L5.71,4.789
	c0,0-0.708-0.023-0.671-0.234l0.098-0.177c0,0-0.009-0.143,0-0.168c0.009-0.027,0.041-0.113,0.041-0.113S4.795,3.777,4.511,3.151
	l-0.085-0.05c0,0-0.128,0.03-0.175,0.016c-0.046-0.013,0.02,0.116-0.323,0.197C3.584,3.395,3.835,3.746,3.835,3.746
	s0.159,0.399-0.658-0.16c0,0-0.146,0.453-0.286,0.515c-0.14,0.062,0.051,0.168,0.051,0.168L2.307,4.251c0,0,0.144,0.131-0.011,0.212
	l0.008-0.004v0.199l0.041,0.114c0,0-0.026,0.254-0.22,0.371v0.145L1.979,5.347l-0.031,0.07l-0.155-0.03c0,0-0.341,0.163-0.341,0.175
	S1.121,5.547,1.121,5.523c0-0.023-0.162,0.144-0.162,0.144L0.76,5.653L0.72,5.559c0,0-0.166,0.013-0.199-0.024
	C0.487,5.5,0.475,5.628,0.284,5.628h0.009L0.2,5.711v0.079L0.071,5.932l0.014,0.249L0.2,6.156l0.148,0.144
	c0,0,0.084,0.492-0.255,0.405C-0.246,6.62,0.455,7.059,0.455,7.059s0.057,0.099-0.078,0.19C0.242,7.338,0.705,7.52,0.705,7.52
	S0.886,7.596,1.05,7.534s0.707,0.104,0.364,0.468L1.232,8.18H1.043l0.022,0.097L1.008,8.336l0.076,0.131l0.064,0.046L1.15,8.713
	H1.046L0.973,8.794L0.847,8.661c0,0-0.069,0.14,0.011,0.186C0.937,8.89,0.864,9.084,0.824,9.129C0.785,9.172,1.44,9.779,1.44,9.779
	l0.125-0.064c0,0,0.341,0.242,0.341,0.281s0.229,0.266,0.229,0.266l0.128-0.029c0,0,0.106-0.004,0.026,0.152
	c-0.08,0.158,0.177,0.156,0.177,0.156l0.366,0.305h0.195c0,0,0.306,0.203,0.514,0.088c0.208-0.115,0.252,0.023,0.146,0.17
	C3.58,11.25,3.934,11.01,3.941,10.949c0.006-0.061,0.232-0.131,0.343,0.029c0.111,0.158,0.153,0.068,0.192,0.061
	c0.041-0.006,0.143,0.008,0.186,0.09c0.045,0.082,0.335-0.018,0.313-0.094c-0.022-0.074,0.208-0.154,0.208-0.154l0.177,0.004
	c0,0,0.193-0.244,0.47-0.117L6.07,10.65l0.093,0.078l-0.058,0.062l0.131,0.094c0,0-0.408,0.246,0.243,0.205
	c0.652-0.039,0.266,0.877,0.177,1.098c-0.088,0.221-0.184,0.275-0.184,0.275l0.02,0.213l0.368-0.033l-0.017,0.1
	c0,0,0.026,0.275,0.173,0.275c0.146,0,0.086,0.209-0.016,0.352c0,0,0.227,0.043,0.239,0.109c0.014,0.066,0.218,0.207,0.322,0.102
	c0.104-0.104,0.133,0.039,0.129,0.15c-0.004,0.113,0.17,0,0.17,0l-0.04-0.293c0,0-0.078-0.141,0.126-0.121
	c0.203,0.02,0.249-0.121,0.249-0.121l0.108,0.061l0.11-0.066l0.048,0.016l0.061-0.025l0.075,0.066l0.055-0.07l0.107,0.027
	l0.119-0.047l0.041-0.139c0,0,0.157-0.141,0.235,0.031c0.077,0.174,0.414,0.078,0.414,0.078l-0.072,0.117l0.278,0.316
	c0,0,0.098-0.113,0.262,0.01c0.164,0.121,0.19-0.016,0.19-0.016v-0.105l0.266,0.143l0.202,0.002c0,0-0.131,0.35,0.113,0.387
	c0.243,0.035,0.118-0.109,0.118-0.109s-0.207-0.156,0.014-0.252c0.223-0.1,0.791-0.338,0.791-0.338l0.193-0.164l-0.045-0.199
	l0.154,0.115c0,0,0.788-0.014,0.986-0.516l0.164-0.162l0.143-0.176l-0.041-0.061l0.377-0.436c0,0,0.647-1.518,0.586-1.602
	c-0.062-0.08,0.2-0.275-0.529-0.244C12.99,9.865,14.056,9.49,14.127,9.49c0.07,0-0.062-0.32-0.062-0.32l-0.426-0.321l-0.266-0.477
	c0,0-0.407-0.177-0.266-0.371c0.143-0.193,0.44-0.725,0.721-0.721"/>
<path fill="#989898" d="M10.393,14.809v0.055c0,0,0.121,0.047,0.133,0.09c0.013,0.047,0.107-0.047,0.184,0.016
	s0.053-0.102,0.124-0.1s0.065-0.121,0.133-0.121c0.069,0,0.057-0.344,0.196-0.418c0.139-0.072-0.208-0.195-0.182-0.111l-0.162,0.039
	h-0.178l-0.059,0.076h-0.064v0.084c0,0-0.261,0.225-0.118,0.4L10.393,14.809z"/>
<path fill="#989898" d="M14.634,11.246c-0.126,0.09-0.216,0.203-0.275,0.342c-0.051,0.117-0.09,0.176-0.118,0.191l0.028,0.217V12
	l0,0l-0.021,0.148c-0.008,0.049,0,0.08,0.012,0.088l0.162,0.105l0,0h0.004l0.004,0.012l0,0c0.008,0.035,0.031,0.066,0.062,0.105
	c0.016,0.023,0.035,0.035,0.051,0.043l0.023-0.258v-0.008l0.114-0.275l0.04-0.326v-0.004l0.004-0.004l0.035-0.086l-0.027-0.076
	v-0.004h-0.004l-0.008-0.102l0.004-0.004l0.004-0.004l0.02-0.023l0.012-0.027L14.634,11.246z"/>
<circle opacity="0.5" fill="#262626" cx="10" cy="5.162" r="2"/>
<circle fill="#020202" cx="6.5" cy="10.662" r="1.5"/>
<circle opacity="0.8" fill="#262626" cx="9.5" cy="10.66" r="0.5"/>
<circle opacity="0.8" fill="#262626" cx="13.5" cy="11.66" r="0.5"/>
<path opacity="0.8" fill="#262626" d="M13,9.166c0,0.549-0.447,0.994-1,0.994s-1-0.445-1-0.994c0-0.553,0.447-1.004,1-1.004
	S13,8.613,13,9.166z"/>
<circle opacity="0.8" fill="#262626" cx="6" cy="7.162" r="1"/>
</svg>
