<?xml version="1.0" encoding="utf-8"?>
<!-- Generator: Adobe Illustrator 19.0.0, SVG Export Plug-In . SVG Version: 6.00 Build 0)  -->
<svg version="1.1" id="图层_1" xmlns="http://www.w3.org/2000/svg" xmlns:xlink="http://www.w3.org/1999/xlink" x="0px" y="0px"
	 viewBox="0 0 16 16" style="enable-background:new 0 0 16 16;" xml:space="preserve">
<path id="XMLID_15_" d="M10,7h4c0.6,0,1-0.6,1-1.2V3.2C15,2.6,14.6,2,14,2h-4C9.7,2,9.4,2.2,9.2,2.5c-0.8,0.2-1.2,1.1-2,3
	C7.2,5.7,7,6.2,6.8,6.6C6.6,6.2,6.3,6,6,6H2C1.4,6,1,6.6,1,7.2v2.5C1,10.4,1.4,11,2,11h4c0.6,0,1-0.6,1-1.2V9.6c0,0,0,0,0,0
	c0.3,0.3,0.6,0.7,0.8,1c0.5,0.6,0.8,1,1.2,1.3v0.8c0,0.7,0.4,1.2,1,1.2h4c0.6,0,1-0.6,1-1.2v-2.5C15,9.6,14.6,9,14,9h-4
	c-0.6,0-1,0.6-1,1.2v0.3c-0.1-0.2-0.3-0.3-0.4-0.5C8.3,9.7,8,9.3,7.8,9c0.5-0.6,0.9-1.6,1.3-2.7C9.3,6.7,9.6,7,10,7z M6,9.8
	C6,9.9,6,10,5.9,10H2.1C2,10,2,9.9,2,9.8V7.2C2,7.1,2,7,2.1,7h3.9C6,7,6,7.1,6,7.2V9.8z M10,10.2c0-0.1,0-0.2,0.1-0.2h3.9
	c0,0,0.1,0.1,0.1,0.2v2.5c0,0.1,0,0.2-0.1,0.2h-3.9c0,0-0.1-0.1-0.1-0.2V10.2z M10.1,3h3.9C14,3,14,3.1,14,3.2v2.5
	C14,5.9,14,6,13.9,6h-3.9C10,6,10,5.9,10,5.8V4.3c0,0,0,0,0,0c0,0,0,0,0,0v-1C10,3.1,10,3,10.1,3z"/>
</svg>
