<?xml version="1.0" encoding="utf-8"?>
<!-- Generator: Adobe Illustrator 16.0.0, SVG Export Plug-In . SVG Version: 6.00 Build 0)  -->
<!DOCTYPE svg PUBLIC "-//W3C//DTD SVG 1.1//EN" "http://www.w3.org/Graphics/SVG/1.1/DTD/svg11.dtd">
<svg version="1.1" id="Layer_2" xmlns="http://www.w3.org/2000/svg" xmlns:xlink="http://www.w3.org/1999/xlink" x="0px" y="0px"
	 width="16px" height="16px" viewBox="0 0 16 16" enable-background="new 0 0 16 16" xml:space="preserve">
<g>
	<path fill="#CCCCCC" d="M13.816,7.283c0,0,0.041-0.225,0.086-0.225c0.043,0-0.24,0.072-0.24,0.072l-0.318-0.098L13.062,7.32
		c0,0-0.207,0.186-0.254-0.197L12.52,7.064c0,0-0.406-0.359,0.053-0.379l0.178-0.133l0.033-0.176l0.279-0.24l0.23-0.244l0.205,0.039
		c0,0-0.201,0.875,0.023,0.621s0.404-0.402,0.484-0.402s0.699-0.911,0.699-0.911l0.068,0.081c0,0,0.357,0.023,0.221-0.168
		c-0.135-0.192-0.008-0.11,0.045-0.11s0.426-0.327,0.336-0.484c-0.088-0.156,0.145,0.086,0.145,0.086l0.137-0.139
		c0,0-0.213-0.598-0.189-0.667c0.023-0.071,0.139-0.167,0.139-0.178c0-0.013,0.303,0.273,0.299-0.219
		c-0.004-0.494,0.15-1.069,0.074-1.141C15.9,2.229,15.67,2.502,15.67,2.502L15.535,2.52l-0.07,0.137L15.15,2.801L15,2.68
		l-0.109-0.255l-0.338-0.088c0,0-0.182,0.002-0.182-0.009c0-0.013-0.133,0.059-0.133,0.059l-0.152-0.195
		c0,0-0.631-0.927-0.703-0.933c-0.074-0.006-0.316,0.023-0.418-0.068c-0.1-0.091-0.34,0.06-0.365,0.092
		c-0.027,0.032-0.252,0.15-0.316,0.136c-0.064-0.014-0.289,0.381-0.029,0.292c0.26-0.087,0.033,0.299-0.031,0.341
		C12.162,2.093,12.07,2.47,12.08,2.502c0.008,0.032,0.084,0.13-0.09,0.257s-0.375,0.129-0.467,0.089
		c-0.092-0.041-0.223,0.63-0.197,0.671s0.088,0.101,0.088,0.101s0.09-0.089,0.145-0.054c0.057,0.036,0.172-0.038,0.207,0.021
		c0.035,0.058,0.016-0.32,0.385-0.062c0.369,0.257,0.375,0.331,0.053,0.334c-0.32,0.003-0.012,0.037-0.336,0.133l-0.062,0.13
		l-0.053-0.065c0,0-0.115,0.14-0.143,0.14s-0.006,0.138-0.006,0.138s-0.197,0.178-0.396,0.169C11.01,4.493,11.131,4.868,10.6,4.699
		l-0.113,0.092c0,0-0.072,0.304,0.023,0.343c0.098,0.038,0.01,0.178-0.076,0.178s-0.168,0.365-0.305,0.36
		C9.994,5.665,9.488,5.805,9.488,5.805l-0.719,0.3c0,0-0.1-0.006-0.113-0.064c-0.016-0.059-0.473-0.068-0.52-0.068
		c-0.049,0-0.246-0.33-0.831-0.183C6.72,5.937,6.481,5.653,6.468,5.657C6.457,5.659,6.221,5.132,6.221,5.132L5.71,4.789
		c0,0-0.709-0.023-0.672-0.234l0.099-0.177c0,0-0.009-0.143,0-0.168c0.009-0.027,0.041-0.113,0.041-0.113S4.794,3.777,4.51,3.151
		l-0.085-0.05c0,0-0.129,0.03-0.175,0.016C4.205,3.104,4.27,3.233,3.927,3.314C3.583,3.396,3.834,3.746,3.834,3.746
		s0.159,0.399-0.658-0.16c0,0-0.146,0.453-0.286,0.515C2.75,4.163,2.942,4.269,2.942,4.269L2.306,4.252c0,0,0.145,0.131-0.012,0.212
		L2.303,4.46v0.199l0.04,0.114c0,0-0.025,0.254-0.219,0.371v0.145L1.978,5.348l-0.031,0.07l-0.154-0.03c0,0-0.342,0.163-0.342,0.175
		s-0.33-0.015-0.33-0.039c0-0.023-0.162,0.144-0.162,0.144L0.759,5.653L0.72,5.56c0,0-0.166,0.013-0.199-0.024
		C0.487,5.501,0.474,5.629,0.283,5.629h0.01L0.199,5.712v0.079L0.07,5.933l0.014,0.248l0.115-0.025L0.347,6.3
		c0,0,0.084,0.492-0.255,0.404C-0.247,6.621,0.455,7.06,0.455,7.06S0.511,7.158,0.376,7.25c-0.135,0.09,0.328,0.271,0.328,0.271
		S0.886,7.597,1.05,7.535s0.706,0.104,0.363,0.466L1.232,8.179H1.042l0.022,0.098L1.007,8.335l0.076,0.131l0.064,0.045L1.15,8.71
		H1.045L0.972,8.79L0.846,8.657c0,0-0.069,0.139,0.011,0.186c0.08,0.043,0.006,0.236-0.033,0.281s0.615,0.655,0.615,0.655
		l0.125-0.064c0,0,0.341,0.242,0.341,0.281s0.229,0.268,0.229,0.268l0.127-0.029c0,0,0.107-0.004,0.027,0.152
		c-0.08,0.158,0.176,0.156,0.176,0.156l0.366,0.305h0.195c0,0,0.306,0.203,0.514,0.088s0.253,0.023,0.146,0.17
		s0.247-0.094,0.255-0.154c0.006-0.061,0.232-0.131,0.344,0.029c0.11,0.158,0.152,0.068,0.191,0.061
		c0.041-0.006,0.143,0.008,0.187,0.09c0.045,0.082,0.335-0.018,0.313-0.094c-0.023-0.074,0.207-0.154,0.207-0.154l0.178,0.004
		c0,0,0.193-0.244,0.47-0.117l0.239-0.117l0.094,0.078l-0.059,0.062l0.131,0.094c0,0-0.408,0.246,0.244,0.205
		c0.651-0.039,0.266,0.877,0.177,1.098s-0.185,0.275-0.185,0.275l0.021,0.213l0.368-0.033l-0.018,0.1c0,0,0.026,0.275,0.173,0.275
		c0.146,0,0.086,0.209-0.017,0.352c0,0,0.227,0.043,0.24,0.109s0.217,0.207,0.321,0.102c0.104-0.104,0.133,0.039,0.129,0.15
		c-0.005,0.113,0.17,0,0.17,0l-0.04-0.293c0,0-0.078-0.141,0.127-0.121c0.203,0.02,0.248-0.121,0.248-0.121l0.108,0.061l0.11-0.066
		l0.049,0.016l0.061-0.025l0.074,0.066l0.055-0.07l0.107,0.027l0.119-0.047L8.92,13.02c0,0,0.156-0.141,0.234,0.031
		c0.076,0.174,0.414,0.078,0.414,0.078l-0.072,0.117l0.277,0.316c0,0,0.098-0.113,0.262,0.01c0.164,0.121,0.191-0.016,0.191-0.016
		v-0.105l0.266,0.143l0.201,0.002c0,0-0.131,0.35,0.113,0.387c0.244,0.035,0.119-0.109,0.119-0.109s-0.207-0.156,0.014-0.252
		c0.223-0.1,0.791-0.338,0.791-0.338l0.193-0.164l-0.045-0.199l0.154,0.115c0,0,0.787-0.014,0.986-0.516l0.164-0.162l0.143-0.176
		l-0.041-0.061l0.377-0.436c0,0,0.646-1.518,0.586-1.602c-0.062-0.082,0.199-0.277-0.529-0.246c-0.729,0.027,0.336-0.35,0.408-0.35
		c0.07,0-0.062-0.323-0.062-0.323l-0.426-0.32L13.373,8.37c0,0-0.408-0.176-0.266-0.369c0.143-0.193,0.439-0.724,0.721-0.72"/>
	<path fill="#999999" d="M10.393,14.811v0.055c0,0,0.121,0.047,0.133,0.09c0.012,0.047,0.107-0.047,0.184,0.016
		s0.053-0.102,0.123-0.1c0.072,0.002,0.066-0.121,0.133-0.121c0.07,0,0.057-0.344,0.197-0.418c0.139-0.072-0.209-0.195-0.182-0.111
		l-0.162,0.039h-0.178l-0.059,0.076h-0.064v0.084c0,0-0.262,0.225-0.119,0.4L10.393,14.811z"/>
	<path fill="#999999" d="M14.633,11.248c-0.125,0.09-0.215,0.203-0.275,0.342c-0.051,0.117-0.09,0.176-0.117,0.191l0.027,0.217
		v0.004l0,0l-0.02,0.148c-0.008,0.049,0,0.08,0.012,0.088l0.162,0.105l0,0h0.004l0.004,0.012l0,0
		c0.008,0.035,0.031,0.066,0.062,0.105c0.016,0.023,0.035,0.035,0.051,0.043l0.023-0.258v-0.008l0.113-0.275l0.041-0.326v-0.004
		l0.004-0.004l0.035-0.086l-0.027-0.076v-0.004h-0.004l-0.008-0.102l0.004-0.004l0.004-0.004l0.02-0.023l0.012-0.027L14.633,11.248z
		"/>
	<circle opacity="0.8" fill="#00AFEA" cx="10" cy="5.162" r="2"/>
	<circle opacity="0.8" fill="#59C034" cx="6.5" cy="10.664" r="1.5"/>
	<circle opacity="0.8" fill="#262626" cx="9.5" cy="10.662" r="0.5"/>
	<circle opacity="0.8" fill="#262626" cx="13.5" cy="11.662" r="0.5"/>
	<circle opacity="0.8" fill="#FF0000" cx="12" cy="9.161" r="1"/>
	<circle opacity="0.8" fill="#87318C" cx="6" cy="7.162" r="1"/>
</g>
</svg>
