<?xml version="1.0" encoding="utf-8"?>
<!-- Generator: Adobe Illustrator 16.0.0, SVG Export Plug-In . SVG Version: 6.00 Build 0)  -->
<!DOCTYPE svg PUBLIC "-//W3C//DTD SVG 1.1//EN" "http://www.w3.org/Graphics/SVG/1.1/DTD/svg11.dtd">
<svg version="1.1" id="Layer_1" xmlns="http://www.w3.org/2000/svg" xmlns:xlink="http://www.w3.org/1999/xlink" x="0px" y="0px"
	 width="16px" height="16px" viewBox="0 0 16 16" enable-background="new 0 0 16 16" xml:space="preserve">
<path fill-rule="evenodd" clip-rule="evenodd" fill="#020202" d="M8,7.5c0,0.084-0.031,0.158-0.093,0.22L5.532,9.907
	C5.47,9.97,5.396,10,5.312,10s-0.157-0.03-0.22-0.093C5.03,9.846,5,9.771,5,9.688V8H3.5C3.224,8,3,7.776,3,7.5S3.224,7,3.5,7H5
	V5.312c0-0.084,0.03-0.157,0.093-0.22C5.155,5.031,5.229,5,5.312,5s0.157,0.031,0.22,0.093L7.907,7.28C7.969,7.343,8,7.416,8,7.5z
	 M9,7.5c0,0.084,0.031,0.158,0.093,0.22l2.375,2.188C11.53,9.97,11.604,10,11.688,10s0.157-0.03,0.22-0.093
	C11.97,9.846,12,9.771,12,9.688V8h1.5C13.776,8,14,7.776,14,7.5S13.776,7,13.5,7H12V5.312c0-0.084-0.03-0.157-0.093-0.22
	C11.845,5.031,11.771,5,11.688,5s-0.157,0.031-0.22,0.093L9.093,7.28C9.031,7.343,9,7.416,9,7.5z M7,2v2h1V2c0-0.553-0.448-1-1-1
	l0,0H2C1.448,1,1,1.447,1,2v11c0,0.553,0.448,1,1,1h5c0.552,0,1-0.447,1-1v-2H7v2H2V2H7 M10,2h5v11h-5v-2H9v2c0,0.553,0.447,1,1,1h5
	c0.553,0,1-0.447,1-1V2c0-0.553-0.447-1-1-1h-5l0,0C9.447,1,9,1.447,9,2v2h1V2"/>
</svg>
