<?xml version="1.0" encoding="utf-8"?>
<!-- Generator: Adobe Illustrator 16.0.0, SVG Export Plug-In . SVG Version: 6.00 Build 0)  -->
<!DOCTYPE svg PUBLIC "-//W3C//DTD SVG 1.1//EN" "http://www.w3.org/Graphics/SVG/1.1/DTD/svg11.dtd">
<svg version="1.1" id="Layer_1" xmlns="http://www.w3.org/2000/svg" xmlns:xlink="http://www.w3.org/1999/xlink" x="0px" y="0px"
	 width="16px" height="16px" viewBox="0 0 16 16" enable-background="new 0 0 16 16" xml:space="preserve">
<path fill-rule="evenodd" clip-rule="evenodd" fill="#020202" d="M8,1C4.135,1,1,4.134,1,8c0,3.865,3.135,7,7,7c3.866,0,7-3.135,7-7
	C15,4.134,11.866,1,8,1z M7.999,14c-3.313,0-6-2.686-6-6c0-3.314,2.687-6,6-6s6,2.687,6,6C13.999,11.314,11.312,14,7.999,14z
	 M12.097,8.038c0.001,0.354-0.298,0.642-0.665,0.642H4.485c-0.37,0-0.667-0.288-0.667-0.643C3.816,7.683,4.117,7.395,4.484,7.395
	h6.946C11.799,7.395,12.098,7.683,12.097,8.038z"/>
</svg>
