<?xml version="1.0" encoding="utf-8"?>
<!-- Generator: Adobe Illustrator 16.0.0, SVG Export Plug-In . SVG Version: 6.00 Build 0)  -->
<!DOCTYPE svg PUBLIC "-//W3C//DTD SVG 1.1//EN" "http://www.w3.org/Graphics/SVG/1.1/DTD/svg11.dtd">
<svg version="1.1" id="Layer_1" xmlns="http://www.w3.org/2000/svg" xmlns:xlink="http://www.w3.org/1999/xlink" x="0px" y="0px"
	 width="16px" height="16px" viewBox="0 0 16 16" enable-background="new 0 0 16 16" xml:space="preserve">
<path fill="#020202" d="M3.057,7c0.553,0,1,0.447,1,1s-0.447,1-1,1s-1-0.447-1-1S2.504,7,3.057,7L3.057,7z M7.943,7
	c-0.553,0-1,0.447-1,1s0.447,1,1,1s1-0.447,1-1S8.496,7,7.943,7L7.943,7z M12.943,7c-0.553,0-1,0.447-1,1s0.447,1,1,1s1-0.447,1-1
	S13.496,7,12.943,7L12.943,7z"/>
</svg>
