<?xml version="1.0" encoding="utf-8"?>
<!-- Generator: Adobe Illustrator 16.0.0, SVG Export Plug-In . SVG Version: 6.00 Build 0)  -->
<!DOCTYPE svg PUBLIC "-//W3C//DTD SVG 1.1//EN" "http://www.w3.org/Graphics/SVG/1.1/DTD/svg11.dtd">
<svg version="1.1" id="Layer_1" xmlns="http://www.w3.org/2000/svg" xmlns:xlink="http://www.w3.org/1999/xlink" x="0px" y="0px"
	 width="16px" height="16px" viewBox="0 0 16 16" enable-background="new 0 0 16 16" xml:space="preserve">
<path fill-rule="evenodd" clip-rule="evenodd" fill="#020202" d="M13.136,4c-0.054,0-0.204,0-0.578,0c-1.291,0-1.289-2-2.201-2
	C9.012,2,6.701,2,5.444,2C5.177,2,4.99,2,4.863,2C3.835,2,3,2.835,3,3.864V6h1V3.864C4,3.388,4.388,3,4.863,3h0.581h4.723
	c0.062,0.096,0.141,0.24,0.198,0.347C10.7,3.965,11.261,5,12.558,5h0.578C13.58,5,14,5.486,14,6v6.137
	C14,12.612,13.612,13,13.136,13H4.863C4.388,13,4,12.612,4,12.137V11H3v1.137C3,13.166,3.835,14,4.863,14h8.272
	C14.165,14,15,13.166,15,12.137V6C15,4.971,14.165,4,13.136,4z"/>
<path fill-rule="evenodd" clip-rule="evenodd" fill="#020202" d="M7.771,10.841L9.85,8.812c0.002-0.002,0.003-0.005,0.005-0.008
	C9.899,8.76,9.936,8.655,9.961,8.597c0.021-0.054,0.029-0.01,0.033-0.064C9.994,8.521,10,8.511,10,8.5
	c0-0.008-0.004-0.014-0.004-0.021c-0.003-0.06-0.014-0.09-0.035-0.146c-0.021-0.051-0.055-0.094-0.09-0.135
	C9.863,8.188,9.859,8.174,9.85,8.165L7.771,6.088c-0.2-0.201-0.525-0.109-0.725,0.092c-0.201,0.2-0.201,0.525,0,0.726l1.201,1.109
	L1.534,8.016c-0.293,0-0.531,0.2-0.53,0.483C1.003,8.782,1.241,8.963,1.535,8.963h6.713l-1.201,1.243
	c-0.201,0.201-0.201,0.525,0,0.727c0.1,0.1,0.23,0.059,0.362,0.059S7.672,10.94,7.771,10.841z"/>
</svg>
