<?xml version="1.0" encoding="utf-8"?>
<!-- Generator: Adobe Illustrator 16.0.0, SVG Export Plug-In . SVG Version: 6.00 Build 0)  -->
<!DOCTYPE svg PUBLIC "-//W3C//DTD SVG 1.1//EN" "http://www.w3.org/Graphics/SVG/1.1/DTD/svg11.dtd">
<svg version="1.1" id="Layer_1" xmlns="http://www.w3.org/2000/svg" xmlns:xlink="http://www.w3.org/1999/xlink" x="0px" y="0px"
	 width="16px" height="16px" viewBox="0 0 16 16" enable-background="new 0 0 16 16" xml:space="preserve">
<path fill-rule="evenodd" clip-rule="evenodd" fill="#020202" d="M14,2.5C14,2.776,13.776,3,13.5,3h-12C1.224,3,1,2.776,1,2.5l0,0
	C1,2.224,1.224,2,1.5,2h12C13.776,2,14,2.224,14,2.5L14,2.5z M14,5.5C14,5.224,13.776,5,13.5,5h-12C1.224,5,1,5.224,1,5.5l0,0
	C1,5.776,1.224,6,1.5,6h12C13.776,6,14,5.776,14,5.5L14,5.5z M6,11.5C6,11.224,5.776,11,5.5,11h-4C1.224,11,1,11.224,1,11.5l0,0
	C1,11.776,1.224,12,1.5,12h4C5.776,12,6,11.776,6,11.5L6,11.5z M11.487,8H11.45H9.363H1.5C1.224,8,1,8.224,1,8.5S1.224,9,1.5,9
	h7.863h2.087h0.037c0.827,0,1.5,0.673,1.5,1.5s-0.673,1.5-1.5,1.5H8.89v-0.033H8.884l1.002-1.002c0.2-0.2,0.2-0.526,0-0.727
	c-0.201-0.201-0.525-0.201-0.727,0l-1.878,1.878c-0.097,0.097-0.15,0.228-0.15,0.364c0,0.136,0.054,0.266,0.15,0.363l1.878,1.877
	c0.201,0.199,0.525,0.199,0.727,0c0.201-0.201,0.201-0.525,0-0.728L8.891,13h2.597c1.379,0,2.5-1.121,2.5-2.5S12.866,8,11.487,8z"/>
</svg>
