<?xml version="1.0" encoding="utf-8"?>
<!-- Generator: Adobe Illustrator 16.0.0, SVG Export Plug-In . SVG Version: 6.00 Build 0)  -->
<!DOCTYPE svg PUBLIC "-//W3C//DTD SVG 1.1//EN" "http://www.w3.org/Graphics/SVG/1.1/DTD/svg11.dtd">
<svg version="1.1" id="Layer_1" xmlns="http://www.w3.org/2000/svg" xmlns:xlink="http://www.w3.org/1999/xlink" x="0px" y="0px"
	 width="16px" height="16px" viewBox="0 0 16 16" enable-background="new 0 0 16 16" xml:space="preserve">
<path fill="#020202" d="M14.5,3H13V1.5C13,1.224,12.776,1,12.5,1S12,1.224,12,1.5V3h-1.5C10.224,3,10,3.224,10,3.5S10.224,4,10.5,4
	H12v1.5C12,5.776,12.224,6,12.5,6S13,5.776,13,5.5V4h1.5C14.776,4,15,3.776,15,3.5S14.776,3,14.5,3z M12,14H2V3h7V2H2
	C1.447,2,1,2.447,1,3v11c0,0.553,0.447,1,1,1h10c0.553,0,1-0.447,1-1V7h-1V14z M5,13V4H3v9H5z M8,13V7H6v6H8z M9,13h2v-3H9V13z"/>
</svg>
