<?xml version="1.0" encoding="utf-8"?>
<!-- Generator: Adobe Illustrator 16.0.0, SVG Export Plug-In . SVG Version: 6.00 Build 0)  -->
<!DOCTYPE svg PUBLIC "-//W3C//DTD SVG 1.1//EN" "http://www.w3.org/Graphics/SVG/1.1/DTD/svg11.dtd">
<svg version="1.1" id="Layer_1" xmlns="http://www.w3.org/2000/svg" xmlns:xlink="http://www.w3.org/1999/xlink" x="0px" y="0px"
	 width="16px" height="16px" viewBox="0 0 16 16" enable-background="new 0 0 16 16" xml:space="preserve">
<path fill="#020202" d="M4.524,8c0,0.016,0.007,0.028,0.009,0.043C4.532,8.07,4.524,8.085,4.524,8.115V8z M10.975,7.5h-2.5V5
	c0-0.276-0.174-0.5-0.45-0.5s-0.5,0.224-0.5,0.5v2.5h-2.5c-0.261,0-0.469,0.075-0.491,0.543C4.556,8.299,4.763,8.5,5.024,8.5h2.5V11
	c0,0.276,0.224,0.5,0.5,0.5s0.45-0.224,0.45-0.5V8.5h2.5c0.276,0,0.5-0.224,0.5-0.5S11.251,7.5,10.975,7.5z M13.5,1.5h-11v13h11V1.5
	 M14,0.5c0.276,0,0.5,0.224,0.5,0.5v14c0,0.276-0.224,0.5-0.5,0.5H2c-0.276,0-0.5-0.224-0.5-0.5V1c0-0.276,0.224-0.5,0.5-0.5H14
	L14,0.5z"/>
</svg>
