<?xml version="1.0" encoding="utf-8"?>
<!-- Generator: Adobe Illustrator 16.0.0, SVG Export Plug-In . SVG Version: 6.00 Build 0)  -->
<!DOCTYPE svg PUBLIC "-//W3C//DTD SVG 1.1//EN" "http://www.w3.org/Graphics/SVG/1.1/DTD/svg11.dtd">
<svg version="1.1" id="Layer_1" xmlns="http://www.w3.org/2000/svg" xmlns:xlink="http://www.w3.org/1999/xlink" x="0px" y="0px"
	 width="16px" height="16px" viewBox="0 0 16 16" enable-background="new 0 0 16 16" xml:space="preserve">
<path fill="#010101" d="M15,3.5C15,3.776,14.775,4,14.5,4H13v1.5C13,5.776,12.775,6,12.5,6S12,5.776,12,5.5V4h-1.5
	C10.225,4,10,3.776,10,3.5S10.225,3,10.5,3H12V1.5C12,1.224,12.225,1,12.5,1S13,1.224,13,1.5V3h1.5C14.775,3,15,3.224,15,3.5z
	 M13,7.5V14c0,0.553-0.447,1-1,1H2c-0.553,0-1-0.447-1-1V3c0-0.553,0.447-1,1-1h6.5C8.775,2,9,2.224,9,2.5S8.775,3,8.5,3h-1v5H12
	V7.5C12,7.224,12.225,7,12.5,7S13,7.224,13,7.5z M2,8h4.5V3H2V8z M2,14h4.5V9H2V14z M12,9H7.5v5H12V9z"/>
</svg>
