<?xml version="1.0" encoding="utf-8"?>
<!-- Generator: Adobe Illustrator 16.0.0, SVG Export Plug-In . SVG Version: 6.00 Build 0)  -->
<!DOCTYPE svg PUBLIC "-//W3C//DTD SVG 1.1//EN" "http://www.w3.org/Graphics/SVG/1.1/DTD/svg11.dtd">
<svg version="1.1" id="Layer_1" xmlns="http://www.w3.org/2000/svg" xmlns:xlink="http://www.w3.org/1999/xlink" x="0px" y="0px"
	 width="24px" height="24px" viewBox="0 0 24 24" enable-background="new 0 0 24 24" xml:space="preserve">
<path d="M16.494,11.5c0,0.275-0.224,0.5-0.5,0.5h-3.499v3.499c0,0.276-0.223,0.5-0.5,0.5c-0.275,0-0.5-0.224-0.5-0.5V12H7.994
	c-0.276,0-0.5-0.225-0.5-0.5c0-0.277,0.224-0.5,0.5-0.5h3.501V7.499c0-0.276,0.225-0.5,0.5-0.5c0.277,0,0.5,0.224,0.5,0.5V11h3.499
	C16.271,11,16.494,11.223,16.494,11.5z M21,4.5v15c0,1.379-1.122,2.5-2.5,2.5h-13C4.121,22,3,20.879,3,19.5v-15
	C3,3.122,4.121,2,5.5,2h13C19.878,2,21,3.122,21,4.5z M20,4.5C20,3.672,19.326,3,18.5,3h-13C4.672,3,4,3.672,4,4.5v15
	C4,20.326,4.672,21,5.5,21h13c0.826,0,1.5-0.674,1.5-1.5V4.5z"/>
</svg>
