<?xml version="1.0" encoding="utf-8"?>
<!-- Generator: Adobe Illustrator 16.0.0, SVG Export Plug-In . SVG Version: 6.00 Build 0)  -->
<!DOCTYPE svg PUBLIC "-//W3C//DTD SVG 1.1//EN" "http://www.w3.org/Graphics/SVG/1.1/DTD/svg11.dtd">
<svg version="1.1" id="Layer_1" xmlns="http://www.w3.org/2000/svg" xmlns:xlink="http://www.w3.org/1999/xlink" x="0px" y="0px"
	 width="16px" height="16px" viewBox="0 0 16 16" enable-background="new 0 0 16 16" xml:space="preserve">
<path fill="#020202" d="M4.404,4.565l2.509,4.561V4.532c0-0.236,0.053-0.414,0.16-0.532s0.251-0.178,0.433-0.178
	c0.188,0,0.335,0.06,0.444,0.178s0.163,0.296,0.163,0.532v5.767c0,0.537-0.234,0.806-0.703,0.806c-0.117,0-0.223-0.017-0.316-0.048
	C7,11.024,6.912,10.974,6.83,10.904c-0.082-0.07-0.158-0.151-0.229-0.244c-0.07-0.094-0.141-0.188-0.211-0.286L3.942,5.855v4.539
	c0,0.234-0.057,0.411-0.171,0.53c-0.114,0.12-0.261,0.18-0.439,0.18c-0.185,0-0.333-0.061-0.444-0.182s-0.167-0.297-0.167-0.528
	V4.72c0-0.2,0.023-0.357,0.07-0.472c0.056-0.125,0.148-0.228,0.277-0.307s0.268-0.119,0.417-0.119c0.117,0,0.218,0.019,0.301,0.055
	c0.084,0.036,0.157,0.085,0.22,0.146c0.063,0.062,0.128,0.141,0.193,0.238C4.266,4.358,4.333,4.46,4.404,4.565z M14.531,6.671
	c0,0.357-0.057,0.688-0.17,0.989s-0.276,0.561-0.49,0.777C13.656,8.654,13.4,8.82,13.103,8.937
	c-0.298,0.115-0.632,0.173-1.005,0.173c-0.369,0-0.701-0.059-0.995-0.176c-0.295-0.116-0.55-0.284-0.766-0.503
	c-0.216-0.218-0.38-0.476-0.491-0.773C9.734,7.36,9.678,7.031,9.678,6.671c0-0.363,0.057-1.141,0.17-1.442s0.275-0.56,0.486-0.773
	c0.212-0.214,0.468-0.379,0.769-0.495c0.3-0.115,0.632-0.173,0.995-0.173c0.369,0,0.704,0.059,1.005,0.176s0.558,0.284,0.772,0.5
	c0.215,0.218,0.377,0.475,0.488,0.773C14.476,5.535,14.531,6.311,14.531,6.671z M13.309,6.671c0-0.489-0.109-1.315-0.329-1.588
	c-0.218-0.272-0.513-0.409-0.882-0.409c-0.238,0-0.447,0.062-0.629,0.183c-0.182,0.122-0.322,0.302-0.42,0.538
	c-0.098,0.238-0.147,0.96-0.147,1.276c0,0.313,0.048,0.588,0.146,0.821c0.097,0.235,0.234,0.414,0.415,0.539
	c0.181,0.124,0.392,0.187,0.636,0.187c0.369,0,0.664-0.137,0.882-0.411C13.199,7.533,13.309,7.154,13.309,6.671z M13.482,10h-2.965
	c-0.285,0-0.52,0.225-0.518,0.5c0,0.275,0.23,0.5,0.52,0.5h2.963C13.768,11,14,10.776,14,10.501C14,10.225,13.768,10,13.482,10z"/>
</svg>
