<?xml version="1.0" encoding="utf-8"?>
<!-- Generator: Adobe Illustrator 16.0.0, SVG Export Plug-In . SVG Version: 6.00 Build 0)  -->
<!DOCTYPE svg PUBLIC "-//W3C//DTD SVG 1.1//EN" "http://www.w3.org/Graphics/SVG/1.1/DTD/svg11.dtd">
<svg version="1.1" id="Layer_1" xmlns="http://www.w3.org/2000/svg" xmlns:xlink="http://www.w3.org/1999/xlink" x="0px" y="0px"
	 width="16px" height="16px" viewBox="0 0 16 16" enable-background="new 0 0 16 16" xml:space="preserve">
<path fill-rule="evenodd" clip-rule="evenodd" d="M8,1C4.134,1,1,4.134,1,8c0,3.865,3.134,7,7,7c3.866,0,7-3.135,7-7
	C15,4.134,11.866,1,8,1z M11.23,5.565l-3.49,5.606c-0.121,0.194-0.332,0.316-0.561,0.327C7.17,11.5,7.159,11.5,7.149,11.5
	c-0.219,0-0.424-0.103-0.557-0.276L4.339,8.398C4.107,8.091,4.167,7.654,4.474,7.421C4.783,7.189,5.218,7.25,5.451,7.556
	l1.642,2.018l2.957-4.746c0.203-0.327,0.633-0.426,0.959-0.223C11.336,4.808,11.434,5.238,11.23,5.565z"/>
</svg>
