<?xml version="1.0" encoding="utf-8"?>
<!-- Generator: Adobe Illustrator 16.0.0, SVG Export Plug-In . SVG Version: 6.00 Build 0)  -->
<!DOCTYPE svg PUBLIC "-//W3C//DTD SVG 1.1//EN" "http://www.w3.org/Graphics/SVG/1.1/DTD/svg11.dtd">
<svg version="1.1" id="Layer_1" xmlns="http://www.w3.org/2000/svg" xmlns:xlink="http://www.w3.org/1999/xlink" x="0px" y="0px"
	 width="16px" height="16px" viewBox="0 0 16 16" enable-background="new 0 0 16 16" xml:space="preserve">
<path fill="#020202" d="M11.463,5.565l-3.49,5.606c-0.121,0.194-0.332,0.316-0.561,0.327C7.403,11.5,7.391,11.5,7.381,11.5
	c-0.219,0-0.424-0.103-0.557-0.276L4.572,8.398C4.339,8.092,4.4,7.654,4.707,7.421C5.015,7.189,5.451,7.25,5.683,7.556l1.642,2.018
	l2.957-4.746c0.203-0.327,0.633-0.426,0.959-0.223C11.568,4.808,11.666,5.238,11.463,5.565z M14,2v12H2V2H14 M14,1H2
	C1.448,1,1,1.448,1,2v12c0,0.553,0.448,1,1,1h12c0.553,0,1-0.447,1-1V2C15,1.448,14.553,1,14,1L14,1z"/>
</svg>
