<?xml version="1.0" encoding="utf-8"?>
<!-- Generator: Adobe Illustrator 16.0.0, SVG Export Plug-In . SVG Version: 6.00 Build 0)  -->
<!DOCTYPE svg PUBLIC "-//W3C//DTD SVG 1.1//EN" "http://www.w3.org/Graphics/SVG/1.1/DTD/svg11.dtd">
<svg version="1.1" id="Layer_1" xmlns="http://www.w3.org/2000/svg" xmlns:xlink="http://www.w3.org/1999/xlink" x="0px" y="0px"
	 width="16px" height="16px" viewBox="0 0 16 16" enable-background="new 0 0 16 16" xml:space="preserve">
<path fill-rule="evenodd" clip-rule="evenodd" fill="#020202" d="M14,4.501C14,4.776,13.768,5,13.482,5H9.52C9.23,5,9,4.775,9,4.5
	C8.999,4.225,9.232,4,9.518,4h3.965C13.768,4,14,4.225,14,4.501z M13.482,9H9.518C9.232,9,8.999,9.225,9,9.5
	C9,9.775,9.23,10,9.52,10h3.963C13.768,10,14,9.776,14,9.501C14,9.225,13.768,9,13.482,9z M13.482,11H9.518
	C9.232,11,8.999,11.225,9,11.5C9,11.775,9.23,12,9.52,12h3.963C13.768,12,14,11.776,14,11.501C14,11.225,13.768,11,13.482,11z
	 M7.483,4H6V2.518C6,2.232,5.776,1.998,5.5,2C5.225,2,5,2.23,5,2.52V4H3.518C3.233,4,2.999,4.225,3,4.5C3,4.775,3.231,5,3.52,5H5
	v1.482C5,6.768,5.224,7,5.5,7C5.776,7,6,6.768,6,6.482V5h1.482C7.768,5,8,4.776,8,4.501C8,4.225,7.768,4,7.483,4z M6.208,10.618
	l1.755-1.755c0.201-0.202,0.208-0.526,0.012-0.72c-0.194-0.195-0.516-0.19-0.721,0.014L5.5,9.911L3.746,8.156
	c-0.202-0.202-0.526-0.209-0.72-0.013C2.831,8.338,2.835,8.66,3.04,8.864l1.753,1.754l-1.755,1.755
	c-0.201,0.202-0.207,0.524-0.013,0.72c0.195,0.195,0.519,0.189,0.72-0.012L5.5,11.325l1.756,1.756
	c0.201,0.201,0.523,0.208,0.719,0.013s0.189-0.519-0.013-0.721L6.208,10.618z"/>
</svg>
