<?xml version="1.0" encoding="utf-8"?>
<!-- Generator: Adobe Illustrator 16.0.0, SVG Export Plug-In . SVG Version: 6.00 Build 0)  -->
<!DOCTYPE svg PUBLIC "-//W3C//DTD SVG 1.1//EN" "http://www.w3.org/Graphics/SVG/1.1/DTD/svg11.dtd">
<svg version="1.1" id="Layer_1" xmlns="http://www.w3.org/2000/svg" xmlns:xlink="http://www.w3.org/1999/xlink" x="0px" y="0px"
	 width="16px" height="16px" viewBox="0 0 16 16" enable-background="new 0 0 16 16" xml:space="preserve">
<path fill="#020202" d="M9.291,9.536C9.421,9.758,9.5,10.013,9.5,10.288c0,0.828-0.671,1.5-1.5,1.5s-1.5-0.672-1.5-1.5
	s0.671-1.5,1.5-1.5c0.075,0,0.146,0.011,0.218,0.022l4.03-5.033l0.33,0.207L9.291,9.536z M8,4c0.644,0,1.262,0.107,1.844,0.297
	c0.044,0.014,0.5,0.094,0.672-0.297c0.163-0.371-0.173-0.595-0.312-0.642C9.51,3.127,8.771,3,8,3c-3.866,0-7,3.134-7,7
	c0,0.647,0.095,1.271,0.26,1.866c0,0,0.288,0.441,0.725,0.215c0.361-0.188,0.242-0.451,0.211-0.571C2.068,11.027,2,10.522,2,10
	C2,6.691,4.691,4,8,4z M12.938,5.828c-0.297,0.297-0.07,0.678-0.043,0.718C13.588,7.524,14,8.714,14,10
	c0,0.57-0.082,1.121-0.23,1.643c-0.022,0.075,0.001,0.471,0.324,0.536c0.491,0.1,0.646-0.312,0.646-0.312
	C14.905,11.271,15,10.647,15,10c0-1.538-0.496-2.959-1.338-4.112C13.571,5.763,13.158,5.607,12.938,5.828z"/>
</svg>
