<?xml version="1.0" encoding="utf-8"?>
<!-- Generator: Adobe Illustrator 16.0.0, SVG Export Plug-In . SVG Version: 6.00 Build 0)  -->
<!DOCTYPE svg PUBLIC "-//W3C//DTD SVG 1.1//EN" "http://www.w3.org/Graphics/SVG/1.1/DTD/svg11.dtd">
<svg version="1.1" id="Layer_1" xmlns="http://www.w3.org/2000/svg" xmlns:xlink="http://www.w3.org/1999/xlink" x="0px" y="0px"
	 width="16px" height="16px" viewBox="0 0 16 16" enable-background="new 0 0 16 16" xml:space="preserve">
<path fill-rule="evenodd" clip-rule="evenodd" fill="#020202" d="M2,3.5C2,3.224,2.224,3,2.5,3h11C13.776,3,14,3.224,14,3.5l0,0
	C14,3.776,13.776,4,13.5,4h-11C2.224,4,2,3.776,2,3.5L2,3.5z M6,6.5C6,6.776,6.224,7,6.5,7h7C13.776,7,14,6.776,14,6.5l0,0
	C14,6.224,13.776,6,13.5,6h-7C6.224,6,6,6.224,6,6.5L6,6.5z M6,9.5C6,9.776,6.224,10,6.5,10h7c0.276,0,0.5-0.224,0.5-0.5l0,0
	C14,9.224,13.776,9,13.5,9h-7C6.224,9,6,9.224,6,9.5L6,9.5z M6,12.5C6,12.776,6.224,13,6.5,13h7c0.276,0,0.5-0.224,0.5-0.5l0,0
	c0-0.276-0.224-0.5-0.5-0.5h-7C6.224,12,6,12.224,6,12.5L6,12.5z M2.568,11.958L4.9,9.625C4.967,9.559,5,9.48,5,9.391
	S4.967,9.223,4.9,9.156L2.568,6.823C2.501,6.756,2.424,6.724,2.332,6.724c-0.089,0-0.166,0.032-0.234,0.099
	C2.032,6.889,2,6.967,2,7.057v4.667c0,0.09,0.032,0.168,0.098,0.233c0.068,0.067,0.146,0.1,0.234,0.1
	C2.424,12.058,2.501,12.025,2.568,11.958z"/>
</svg>
