<?xml version="1.0" encoding="utf-8"?>
<!-- Generator: Adobe Illustrator 16.0.0, SVG Export Plug-In . SVG Version: 6.00 Build 0)  -->
<!DOCTYPE svg PUBLIC "-//W3C//DTD SVG 1.1//EN" "http://www.w3.org/Graphics/SVG/1.1/DTD/svg11.dtd">
<svg version="1.1" id="Layer_1" xmlns="http://www.w3.org/2000/svg" xmlns:xlink="http://www.w3.org/1999/xlink" x="0px" y="0px"
	 width="16px" height="16px" viewBox="0 0 16 16" enable-background="new 0 0 16 16" xml:space="preserve">
<path fill="#010101" d="M12.125,3.875H11V3h1.562C12.803,3,13,3.197,13,3.438v1.545h-0.875V3.875z M3.986,14.125H2.875V3.875H4V3
	H2.438C2.197,3,2,3.197,2,3.438v11.125C2,14.803,2.197,15,2.438,15h1.549V14.125z M10,5H5V3h1V1.875C6,1.394,6.394,1,6.875,1h1.126
	c0.481,0,0.875,0.394,0.875,0.875V3H10V5z M8.002,1.877C8.001,1.876,8,1.875,8,1.875L6.876,1.876c0,0,0,0.001-0.001,0.001V3h1.126
	h0.001V1.877z M13.879,15.559V9.045l-2.85-3H5.492c-0.291,0-0.488,0.197-0.488,0.438v9.076c0,0.24,0.197,0.438,0.438,0.438h8
	C13.682,15.996,13.879,15.799,13.879,15.559z M12.879,9.17h-2.025V7.045L12.879,9.17z M13.004,15.17H5.879V6.92h4.15v3.076h2.975
	V15.17z"/>
</svg>
