<?xml version="1.0" encoding="utf-8"?>
<!-- Generator: Adobe Illustrator 16.0.0, SVG Export Plug-In . SVG Version: 6.00 Build 0)  -->
<!DOCTYPE svg PUBLIC "-//W3C//DTD SVG 1.1//EN" "http://www.w3.org/Graphics/SVG/1.1/DTD/svg11.dtd">
<svg version="1.1" id="Layer_1" xmlns="http://www.w3.org/2000/svg" xmlns:xlink="http://www.w3.org/1999/xlink" x="0px" y="0px"
	 width="16px" height="16px" viewBox="0 0 16 16" enable-background="new 0 0 16 16" xml:space="preserve">
<path fill-rule="evenodd" clip-rule="evenodd" fill="#020202" d="M8,1C4.135,1,1,4.135,1,8c0,3.866,3.135,7,7,7c3.866,0,7-3.134,7-7
	C15,4.135,11.866,1,8,1z M7,9.931c0,0.368-0.288,0.667-0.644,0.666c-0.354,0.001-0.642-0.298-0.642-0.665V5.985
	c0-0.37,0.288-0.667,0.643-0.667C6.712,5.316,7,5.617,7,5.984V9.931z M10.285,9.931c0,0.368-0.288,0.667-0.644,0.666
	C9.287,10.598,9,10.299,9,9.932V5.985c0-0.37,0.288-0.667,0.643-0.667c0.354-0.002,0.643,0.299,0.643,0.666V9.931z"/>
</svg>
