<?xml version="1.0" encoding="utf-8"?>
<!-- Generator: Adobe Illustrator 16.0.0, SVG Export Plug-In . SVG Version: 6.00 Build 0)  -->
<!DOCTYPE svg PUBLIC "-//W3C//DTD SVG 1.1//EN" "http://www.w3.org/Graphics/SVG/1.1/DTD/svg11.dtd">
<svg version="1.1" id="Layer_1" xmlns="http://www.w3.org/2000/svg" xmlns:xlink="http://www.w3.org/1999/xlink" x="0px" y="0px"
	 width="16px" height="16px" viewBox="0 0 16 16" enable-background="new 0 0 16 16" xml:space="preserve">
<path fill-rule="evenodd" clip-rule="evenodd" fill="#020202" d="M6.356,10.597c-0.354,0.001-0.642-0.298-0.642-0.665V5.985
	c0-0.37,0.288-0.667,0.643-0.667C6.712,5.316,7,5.617,7,5.984v3.946C7,10.299,6.712,10.598,6.356,10.597z M10.285,9.931V5.984
	c0-0.367-0.288-0.668-0.643-0.666C9.288,5.318,9,5.615,9,5.985v3.946c0,0.367,0.287,0.666,0.642,0.665
	C9.997,10.598,10.285,10.299,10.285,9.931z M8,15c-3.865,0-7-3.134-7-7c0-3.865,3.135-7,7-7c3.866,0,7,3.135,7,7
	C15,11.866,11.866,15,8,15z M8,13.999c3.314,0,6-2.687,6-6s-2.686-6-6-6s-6,2.687-6,6S4.686,13.999,8,13.999z"/>
</svg>
