<?xml version="1.0" encoding="utf-8"?>
<!-- Generator: Adobe Illustrator 16.0.0, SVG Export Plug-In . SVG Version: 6.00 Build 0)  -->
<!DOCTYPE svg PUBLIC "-//W3C//DTD SVG 1.1//EN" "http://www.w3.org/Graphics/SVG/1.1/DTD/svg11.dtd">
<svg version="1.1" id="Layer_1" xmlns="http://www.w3.org/2000/svg" xmlns:xlink="http://www.w3.org/1999/xlink" x="0px" y="0px"
	 width="16px" height="16px" viewBox="0 0 16 16" enable-background="new 0 0 16 16" xml:space="preserve">
<path fill="#020202" d="M11.66,3.125L5.152,13.617c-0.167,0.286-0.354,0.43-0.562,0.43c-0.12,0-0.24-0.046-0.359-0.137
	c-0.12-0.091-0.18-0.21-0.18-0.355c0-0.109,0.052-0.242,0.156-0.398l6.547-10.578c0.114-0.192,0.215-0.337,0.301-0.434
	S11.264,2,11.426,2c0.156,0,0.282,0.046,0.379,0.137C11.9,2.228,11.949,2.349,11.949,2.5C11.949,2.609,11.853,2.817,11.66,3.125z
	 M5,3c0.551,0,1,0.449,1,1v2c0,0.551-0.449,1-1,1S4,6.551,4,6V4C4,3.449,4.449,3,5,3 M5,2C3.896,2,3,2.896,3,4v2
	c0,1.104,0.896,2,2,2s2-0.896,2-2V4C7,2.896,6.104,2,5,2L5,2z M11,9c0.552,0,1,0.448,1,1v2c0,0.552-0.448,1-1,1s-1-0.448-1-1v-2
	C10,9.448,10.448,9,11,9 M11,8c-1.104,0-2,0.896-2,2v2c0,1.104,0.896,2,2,2s2-0.896,2-2v-2C13,8.896,12.104,8,11,8L11,8z"/>
</svg>
