<?xml version="1.0" encoding="utf-8"?>
<!-- Generator: Adobe Illustrator 16.0.0, SVG Export Plug-In . SVG Version: 6.00 Build 0)  -->
<!DOCTYPE svg PUBLIC "-//W3C//DTD SVG 1.1//EN" "http://www.w3.org/Graphics/SVG/1.1/DTD/svg11.dtd">
<svg version="1.1" id="Layer_1" xmlns="http://www.w3.org/2000/svg" xmlns:xlink="http://www.w3.org/1999/xlink" x="0px" y="0px"
	 width="16px" height="16px" viewBox="0 0 16 16" enable-background="new 0 0 16 16" xml:space="preserve">
<path fill="#010101" d="M6.539,11.025H5.989v-0.832l0,0C6,7.57,4.02,7.872,3.998,7.872L3.992,7.871
	c-2.086,0-1.963,2.283-1.963,2.322v0.832H1.435C1.188,11.025,1,11.201,1,11.43v3.143c0,0.23,0.188,0.404,0.435,0.404h5.104
	c0.247,0,0.439-0.174,0.439-0.404V11.43C6.978,11.201,6.785,11.025,6.539,11.025z M2.749,10.193c0-0.007-0.077-1.575,1.209-1.575
	c0.114,0.004,1.221-0.063,1.221,1.575v0.832h-2.43V10.193z M15,13.891c0,0.955-1.216,1.086-1.216,1.086H9.934h-1.26
	c0,0-0.642,0.015-0.642-0.612l-0.021-3.077C8.036,8.334,7.25,7.262,5.45,6.676c-0.521-0.39-0.737-0.489-0.737-1.227
	c0-0.738,0.607-0.738,0.607-0.738s0,0.021,0.216-1.194c0.21-1.179,1.363-2.437,3.255-2.51V1c0.028,0,0.054,0.003,0.082,0.003
	C8.904,1.003,8.934,1,8.966,1v0.008c1.645,0.083,2.829,1.335,3.038,2.509c0.217,1.215,0.217,1.194,0.217,1.194s0.607,0,0.607,0.738
	c0,0.738-0.216,0.999-0.737,1.389C11.57,7.229,11.725,8.07,10.92,8.812c-0.43,0.396-0.738,0.695-0.738,1.26
	c0,0.563,0.304,0.693,0.607,0.867s2.344,0.738,3.299,1.39S15,13.327,15,13.891z"/>
</svg>
