<?xml version="1.0" encoding="utf-8"?>
<!-- Generator: Adobe Illustrator 19.0.0, SVG Export Plug-In . SVG Version: 6.00 Build 0)  -->
<svg version="1.1" id="图层_1" xmlns="http://www.w3.org/2000/svg" xmlns:xlink="http://www.w3.org/1999/xlink" x="0px" y="0px"
	 viewBox="0 0 24 24" style="enable-background:new 0 0 24 24;" xml:space="preserve">
<path id="XMLID_2_" d="M16.4,2h-7C8.1,2,6.9,3.1,6.9,4.5v15c0,1.4,1.1,2.5,2.5,2.5h7c1.4,0,2.5-1.1,2.5-2.5v-15
	C18.9,3.1,17.8,2,16.4,2z M7.9,6h10v11h-10V6z M9.4,3h7c0.8,0,1.5,0.7,1.5,1.5V5h-10V4.5C7.9,3.7,8.6,3,9.4,3z M17.9,19.5
	c0,0.8-0.7,1.5-1.5,1.5h-7c-0.8,0-1.5-0.7-1.5-1.5V18h10V19.5z M13.9,20h-2v-1h2V20z"/>
</svg>
