<?xml version="1.0" encoding="utf-8"?>
<!-- Generator: Adobe Illustrator 16.0.0, SVG Export Plug-In . SVG Version: 6.00 Build 0)  -->
<!DOCTYPE svg PUBLIC "-//W3C//DTD SVG 1.1//EN" "http://www.w3.org/Graphics/SVG/1.1/DTD/svg11.dtd">
<svg version="1.1" id="Layer_1" xmlns="http://www.w3.org/2000/svg" xmlns:xlink="http://www.w3.org/1999/xlink" x="0px" y="0px"
	 width="16px" height="16px" viewBox="0 0 16 16" enable-background="new 0 0 16 16" xml:space="preserve">
<path fill="#010101" d="M6.608,6.323c0,0.73-0.592,1.323-1.323,1.323c-0.729,0-1.323-0.592-1.323-1.323C3.962,5.591,4.556,5,5.285,5
	C6.016,5,6.608,5.591,6.608,6.323z M12.821,12c0,0-0.546-4.288-2.182-4.288c-1.637,0-2.183,2.108-3.272,2.108
	c-1.093,0-1.093-0.527-2.184-0.527C4.092,9.293,3,12,3,12H12.821L12.821,12z M14,2H2v11h12V2 M14,1c0.553,0,1,0.448,1,1v11
	c0,0.553-0.447,1-1,1H2c-0.552,0-1-0.447-1-1V2c0-0.552,0.448-1,1-1H14L14,1z"/>
</svg>
