<?xml version="1.0" encoding="utf-8"?>
<!-- Generator: Adobe Illustrator 16.0.0, SVG Export Plug-In . SVG Version: 6.00 Build 0)  -->
<!DOCTYPE svg PUBLIC "-//W3C//DTD SVG 1.1//EN" "http://www.w3.org/Graphics/SVG/1.1/DTD/svg11.dtd">
<svg version="1.1" id="Layer_1" xmlns="http://www.w3.org/2000/svg" xmlns:xlink="http://www.w3.org/1999/xlink" x="0px" y="0px"
	 width="16px" height="16px" viewBox="0 0 16 16" enable-background="new 0 0 16 16" xml:space="preserve">
<path fill="#010101" d="M8.561,8.282l4.783-4.797c1.03,1.219,1.654,2.793,1.654,4.515c0,1.865-0.734,3.556-1.923,4.811L8.561,8.282z
	 M9.156,14.896c1.123-0.201,2.153-0.684,3.027-1.34L6.998,8.355V1.079C3.617,1.564,1.015,4.458,1,7.97
	C1.016,11.831,4.142,15,7.998,15c0.39,0,0.771-0.035,1.143-0.102C9.146,14.897,9.151,14.897,9.156,14.896z M12.595,2.729
	C11.364,1.655,9.76,1,7.998,1v6.341L12.595,2.729z"/>
</svg>
