<?xml version="1.0" encoding="utf-8"?>
<!-- Generator: Adobe Illustrator 16.0.0, SVG Export Plug-In . SVG Version: 6.00 Build 0)  -->
<!DOCTYPE svg PUBLIC "-//W3C//DTD SVG 1.1//EN" "http://www.w3.org/Graphics/SVG/1.1/DTD/svg11.dtd">
<svg version="1.1" id="Layer_1" xmlns="http://www.w3.org/2000/svg" xmlns:xlink="http://www.w3.org/1999/xlink" x="0px" y="0px"
	 width="16px" height="16px" viewBox="0 0 16 16" enable-background="new 0 0 16 16" xml:space="preserve">
<path fill="#010101" d="M6.998,8.355l5.186,5.201c-0.874,0.656-1.904,1.139-3.027,1.34c-0.005,0.001-0.01,0.001-0.016,0.002
	C8.77,14.965,8.388,15,7.998,15C4.142,15,1.016,11.831,1,7.97c0.015-3.512,2.617-6.405,5.998-6.891V8.355z M8.561,8.282l4.515,4.528
	c1.188-1.255,1.923-2.945,1.923-4.811H8.842L8.561,8.282z M8,3h2v1H8v1h2v1H8v1h2h1V3V2H8V3z M13,3h1V2h-2v1v4h1h1V6h-1V3z M14,3v3
	h1V3H14z"/>
</svg>
