<?xml version="1.0" encoding="utf-8"?>
<!-- Generator: Adobe Illustrator 16.0.0, SVG Export Plug-In . SVG Version: 6.00 Build 0)  -->
<!DOCTYPE svg PUBLIC "-//W3C//DTD SVG 1.1//EN" "http://www.w3.org/Graphics/SVG/1.1/DTD/svg11.dtd">
<svg version="1.1" id="Layer_1" xmlns="http://www.w3.org/2000/svg" xmlns:xlink="http://www.w3.org/1999/xlink" x="0px" y="0px"
	 width="16px" height="16px" viewBox="0 0 16 16" enable-background="new 0 0 16 16" xml:space="preserve">
<path d="M14.574,5.703c-0.314-0.302-0.673-0.318-0.773-0.314h-1.066c-0.227-0.587-0.696-0.784-0.979-0.798h-1.197
	C10.33,3.929,9.785,3.677,9.461,3.638L9.435,3.634H8.21V1.336c0.007-0.125,0.001-0.518-0.302-0.857C7.623,0.161,7.184,0,6.602,0
	C6.034,0,5.593,0.157,5.293,0.469C4.945,0.829,4.929,1.261,4.93,1.356v5.534C4.342,6.296,3.788,5.992,3.287,5.992
	c-1.289,0-1.48,0.749-1.48,1.195c0,0.378,0.161,0.907,0.18,0.967L2.004,8.21l3.69,5.899V16h7.536L15,11.384V6.9
	C15,6.376,14.857,5.974,14.574,5.703z M14.078,11.214l-1.481,3.864h-5.98v-1.233L2.85,7.823c-0.048-0.166-0.123-0.47-0.123-0.636
	c0-0.132,0.026-0.156,0.034-0.165c0.048-0.049,0.214-0.107,0.526-0.107c0.462,0,1.243,0.83,1.627,1.392l0.016-0.01v1.537h0.922
	v-8.48L5.851,1.337c0-0.001,0.009-0.128,0.106-0.229c0.118-0.122,0.34-0.187,0.645-0.187c0.293,0,0.512,0.058,0.613,0.165
	c0.068,0.07,0.074,0.16,0.076,0.188L7.288,1.282v5.49H8.21V4.556h1.157c0.074,0.02,0.377,0.13,0.377,0.719v1.498h0.92v-1.26H11.7
	h0.001h0.032l-0.031,0.001c0.095,0.026,0.241,0.191,0.241,0.652v1.499h0.921V6.31h0.942l0.02-0.002c0,0,0.062,0.015,0.11,0.061
	c0.092,0.087,0.142,0.277,0.142,0.532V11.214L14.078,11.214z"/>
</svg>
