<?xml version="1.0" encoding="utf-8"?>
<!-- Generator: Adobe Illustrator 16.0.0, SVG Export Plug-In . SVG Version: 6.00 Build 0)  -->
<!DOCTYPE svg PUBLIC "-//W3C//DTD SVG 1.1//EN" "http://www.w3.org/Graphics/SVG/1.1/DTD/svg11.dtd">
<svg version="1.1" id="Layer_1" xmlns="http://www.w3.org/2000/svg" xmlns:xlink="http://www.w3.org/1999/xlink" x="0px" y="0px"
	 width="16px" height="16px" viewBox="0 0 16 16" enable-background="new 0 0 16 16" xml:space="preserve">
<path fill="#020202" d="M6,13v1H5v-1H6z M7,13v1h1v-1H7z M9,13v1h1v-1H9z M11,13v1h1v-1H11z M5,1v1h1V1H5z M7,1v1h1V1H7z M9,1v1h1V1
	H9z M11,1v1h1V1H11z M13,7v1h1V7H13z M13,13v1h1v-1H13z M13,1v1h1V1H13z M13,11v1h1v-1H13z M13,9v1h1V9H13z M13,5v1h1V5H13z M13,3v1
	h1V3H13z M1.094,1v13h2.812V1H1.094z"/>
</svg>
