<?xml version="1.0" encoding="utf-8"?>
<!-- Generator: Adobe Illustrator 16.0.0, SVG Export Plug-In . SVG Version: 6.00 Build 0)  -->
<!DOCTYPE svg PUBLIC "-//W3C//DTD SVG 1.1//EN" "http://www.w3.org/Graphics/SVG/1.1/DTD/svg11.dtd">
<svg version="1.1" id="Layer_1" xmlns="http://www.w3.org/2000/svg" xmlns:xlink="http://www.w3.org/1999/xlink" x="0px" y="0px"
	 width="16px" height="16px" viewBox="0 0 16 16" enable-background="new 0 0 16 16" xml:space="preserve">
<path fill="#020202" d="M9,13v1h1v-1H9z M8,13v1H7v-1H8z M6,13v1H5v-1H6z M4,13v1H3v-1H4z M10,1v1H9V1H10z M8,1v1H7V1H8z M6,1v1H5V1
	H6z M4,1v1H3V1H4z M2,7v1H1V7H2z M2,13v1H1v-1H2z M2,1v1H1V1H2z M2,11v1H1v-1H2z M2,9v1H1V9H2z M2,5v1H1V5H2z M2,3v1H1V3H2z
	 M13.906,1v13h-2.812V1H13.906z"/>
</svg>
