<?xml version="1.0" encoding="utf-8"?>
<!-- Generator: Adobe Illustrator 16.0.0, SVG Export Plug-In . SVG Version: 6.00 Build 0)  -->
<!DOCTYPE svg PUBLIC "-//W3C//DTD SVG 1.1//EN" "http://www.w3.org/Graphics/SVG/1.1/DTD/svg11.dtd">
<svg version="1.1" id="Layer_1" xmlns="http://www.w3.org/2000/svg" xmlns:xlink="http://www.w3.org/1999/xlink" x="0px" y="0px"
	 width="24px" height="24px" viewBox="0 0 24 24" enable-background="new 0 0 24 24" xml:space="preserve">
<path d="M22.93,3.5c0,0.276-0.224,0.5-0.5,0.5H3.93v10.5c0,0.827,0.673,1.5,1.5,1.5h13c0.827,0,1.5-0.673,1.5-1v-3.621V8.351V6.514
	c0-0.276,0.224-0.5,0.5-0.5s0.5,0.224,0.5,0.5v1.837v3.028V15c0,0.879-1.121,2-2.5,2h-4.818l3.974,3.973
	c0.195,0.195,0.195,0.512,0,0.707c-0.196,0.196-0.512,0.196-0.708,0L12.197,17h-0.394l-4.681,4.68c-0.195,0.196-0.512,0.196-0.707,0
	c-0.195-0.195-0.195-0.512,0-0.707L10.39,17H5.43c-1.379,0-2.5-1.121-2.5-2.5V4h-1.5c-0.276,0-0.5-0.224-0.5-0.5S1.153,3,1.43,3h9.5
	V2h2v1h9.5C22.706,3,22.93,3.224,22.93,3.5z M14.5,9.5l-4.57-3v6L14.5,9.5z"/>
</svg>
