<?xml version="1.0" encoding="utf-8"?>
<!-- Generator: Adobe Illustrator 16.0.0, SVG Export Plug-In . SVG Version: 6.00 Build 0)  -->
<!DOCTYPE svg PUBLIC "-//W3C//DTD SVG 1.1//EN" "http://www.w3.org/Graphics/SVG/1.1/DTD/svg11.dtd">
<svg version="1.1" id="Layer_1" xmlns="http://www.w3.org/2000/svg" xmlns:xlink="http://www.w3.org/1999/xlink" x="0px" y="0px"
	 width="16px" height="16px" viewBox="0 0 16 16" enable-background="new 0 0 16 16" xml:space="preserve">
<path fill-rule="evenodd" clip-rule="evenodd" d="M2.953,1.5c0-0.276,0.224-0.5,0.5-0.5h10c0.276,0,0.5,0.224,0.5,0.5l0,0
	c0,0.276-0.224,0.5-0.5,0.5h-10C3.177,2,2.953,1.776,2.953,1.5L2.953,1.5z M8.981,13.486V5.752l2.4,2.401c0.2,0.2,0.525,0.2,0.726,0
	s0.2-0.525,0-0.726L8.831,4.15c-0.01-0.01-0.022-0.013-0.032-0.021C8.758,4.094,8.715,4.061,8.664,4.04
	C8.607,4.018,8.549,4.007,8.489,4.005C8.481,4.005,8.476,4,8.468,4C8.456,4,8.447,4.007,8.436,4.007
	C8.38,4.01,8.325,4.019,8.271,4.039c-0.06,0.025-0.113,0.062-0.159,0.106c0,0-0.005,0.003-0.008,0.005L4.828,7.428
	c-0.1,0.1-0.15,0.231-0.15,0.362c0,0.132,0.051,0.263,0.15,0.363c0.201,0.2,0.525,0.2,0.726,0l2.401-2.401v7.734
	C7.955,13.77,8.18,14,8.463,14S8.981,13.77,8.981,13.486z"/>
</svg>
