<?xml version="1.0" encoding="utf-8"?>
<!-- Generator: Adobe Illustrator 19.0.0, SVG Export Plug-In . SVG Version: 6.00 Build 0)  -->
<svg version="1.1" id="图层_1" xmlns="http://www.w3.org/2000/svg" xmlns:xlink="http://www.w3.org/1999/xlink" x="0px" y="0px"
	 viewBox="0 0 24 24" style="enable-background:new 0 0 24 24;" xml:space="preserve">
<style type="text/css">
	.st0{fill-rule:evenodd;clip-rule:evenodd;fill:#020202;}
</style>
<path id="XMLID_1_" class="st0" d="M11.9,7c-2.8,0-5,2.2-5,5s2.2,5,5,5s5-2.2,5-5S14.7,7,11.9,7z M11.9,16c-2.2,0-4-1.8-4-4
	c0-2.2,1.8-4,4-4c2.2,0,4,1.8,4,4C15.9,14.2,14.1,16,11.9,16z M13.7,10.9L12.6,12l1.1,1.1c0.2,0.2,0.2,0.5,0,0.7
	c-0.2,0.2-0.5,0.2-0.7,0l-1.1-1.1l-1.1,1.1c-0.2,0.2-0.5,0.2-0.7,0c-0.2-0.2-0.2-0.5,0-0.7l1.1-1.1l-1.1-1.1c-0.2-0.2-0.2-0.5,0-0.7
	c0.2-0.2,0.5-0.2,0.7,0l1.1,1.1l1.1-1.1c0.2-0.2,0.5-0.2,0.7,0C13.9,10.4,13.9,10.7,13.7,10.9z"/>
</svg>
