<?xml version="1.0" encoding="utf-8"?>
<!-- Generator: Adobe Illustrator 19.0.0, SVG Export Plug-In . SVG Version: 6.00 Build 0)  -->
<svg version="1.1" id="图层_1" xmlns="http://www.w3.org/2000/svg" xmlns:xlink="http://www.w3.org/1999/xlink" x="0px" y="0px"
	 viewBox="0 0 24 24" style="enable-background:new 0 0 24 24;" xml:space="preserve">
<style type="text/css">
	.st0{fill:#231F20;}
</style>
<path id="XMLID_1_" class="st0" d="M13.2,10.7h-2.6v2.6h2.6V10.7z M11.9,18.9c-2.8,0-7.2,0-7.2,0c-2.4,0-4.3-1.9-4.3-4.3
	c0-2.1,1.4-3.8,3.4-4.2c0.4-3.9,3.7-6.8,7.6-6.8c3,0,5.8,1.8,7,4.5c2.8,0.2,5,2.6,5,5.4c0,3-2.4,5.4-5.4,5.4h-2.1
	c-0.3,0-0.5-0.2-0.5-0.5s0.2-0.5,0.5-0.5H18c2.4,0,4.4-2,4.4-4.4c0-2.4-1.9-4.4-4.3-4.4l-0.3,0l-0.1-0.3c-1-2.5-3.5-4.2-6.2-4.2
	c-3.5,0-6.5,2.8-6.7,6.3l0,0.4l-0.4,0c-1.7,0.2-2.9,1.6-2.9,3.3c0,1.8,1.5,3.3,3.3,3.3c0,0,4.4,0,7.2,0c0.3,0,0.5,0.2,0.5,0.5
	S12.2,18.9,11.9,18.9z M11.9,17c-2.8,0-5-2.2-5-5s2.2-5,5-5s5,2.2,5,5S14.7,17,11.9,17z M11.9,8c-2.2,0-4,1.8-4,4c0,2.2,1.8,4,4,4
	c2.2,0,4-1.8,4-4C15.9,9.8,14.1,8,11.9,8z"/>
</svg>
