<?xml version="1.0" encoding="utf-8"?>
<!-- Generator: Adobe Illustrator 16.0.0, SVG Export Plug-In . SVG Version: 6.00 Build 0)  -->
<!DOCTYPE svg PUBLIC "-//W3C//DTD SVG 1.1//EN" "http://www.w3.org/Graphics/SVG/1.1/DTD/svg11.dtd">
<svg version="1.1" id="Layer_1" xmlns="http://www.w3.org/2000/svg" xmlns:xlink="http://www.w3.org/1999/xlink" x="0px" y="0px"
	 width="16px" height="16px" viewBox="0 0 16 16" enable-background="new 0 0 16 16" xml:space="preserve">
<path id="_x3E__x3D_" d="M2.691,12c-0.177,0-0.354-0.077-0.488-0.233c-0.271-0.314-0.271-0.821,0-1.134L6.327,8L2.203,5.367
	c-0.271-0.313-0.271-0.82,0-1.134c0.271-0.312,0.708-0.312,0.979,0l4.615,3.2c0.271,0.312,0.271,0.818,0,1.133l-4.615,3.2
	C3.046,11.923,2.868,12,2.691,12z M13.482,6H9.518C9.232,6,8.998,6.225,9,6.5C9,6.775,9.23,7,9.52,7h3.963
	C13.768,7,14,6.776,14,6.501C14,6.225,13.768,6,13.482,6z M13.482,9H9.518C9.232,9,8.998,9.225,9,9.5C9,9.775,9.23,10,9.52,10h3.963
	C13.768,10,14,9.776,14,9.501C14,9.225,13.768,9,13.482,9z"/>
</svg>
