<?xml version="1.0" encoding="utf-8"?>
<!-- Generator: Adobe Illustrator 16.0.0, SVG Export Plug-In . SVG Version: 6.00 Build 0)  -->
<!DOCTYPE svg PUBLIC "-//W3C//DTD SVG 1.1//EN" "http://www.w3.org/Graphics/SVG/1.1/DTD/svg11.dtd">
<svg version="1.1" id="Layer_1" xmlns="http://www.w3.org/2000/svg" xmlns:xlink="http://www.w3.org/1999/xlink" x="0px" y="0px"
	 width="16px" height="16px" viewBox="0 0 16 16" enable-background="new 0 0 16 16" xml:space="preserve">
<path fill-rule="evenodd" clip-rule="evenodd" d="M8,1C4.135,1,1,4.135,1,8c0,3.866,3.135,7,7,7c3.867,0,7-3.134,7-7
	C15,4.135,11.867,1,8,1z M4.293,6.513l1.404,0.514C5.57,7.326,5.5,7.655,5.5,8c0,1.127,0.754,2.07,1.78,2.382
	c-0.136,0.477-0.276,0.969-0.409,1.437C5.216,11.329,4,9.814,4,8C4,7.473,4.108,6.973,4.293,6.513z M8.012,7.944
	C8.21,8.117,8.861,8.685,9.521,9.285C9.227,9.632,8.823,9.88,8.358,9.964L8.012,7.944z M8.002,7.89L8,7.875
	c0,0-0.003,0.012-0.004,0.014L7.945,7.887c0,0,0.015,0.013,0.041,0.036C7.936,8.098,7.701,8.913,7.417,9.903C6.599,9.652,6,8.9,6,8
	c0-0.285,0.062-0.555,0.169-0.801l1.827,0.669c0,0-0.423-0.703-0.97-1.604C7.315,6.101,7.645,6,8,6c1.099,0,1.988,0.886,1.998,1.982
	L8.002,7.89z M8.442,10.455c0.577-0.104,1.078-0.406,1.445-0.833c0.449,0.415,0.854,0.808,1.067,1.054
	c-0.584,0.645-1.367,1.098-2.259,1.254L8.442,10.455z M11.992,8.076l-1.493-0.07C10.499,8.004,10.5,8.002,10.5,8
	c0-1.378-1.121-2.5-2.5-2.5c-0.45,0-0.867,0.129-1.232,0.338c-0.254-0.417-0.52-0.854-0.779-1.277C6.581,4.213,7.263,4,8,4
	c2.209,0,4,1.791,4,4C12,8.026,11.993,8.05,11.992,8.076z M1.988,8c0-0.77,0.15-1.503,0.414-2.18l1.143,0.418
	C3.328,6.785,3.2,7.377,3.2,8c0,2.177,1.465,3.998,3.454,4.584c-0.143,0.507-0.259,0.926-0.329,1.187
	C3.821,13.045,1.988,10.738,1.988,8z M9.035,13.916l-0.206-1.2C11.08,12.32,12.8,10.362,12.8,8c0-2.647-2.153-4.8-4.8-4.8
	c-0.89,0-1.714,0.26-2.429,0.684C5.318,3.475,5.093,3.115,4.92,2.844C5.822,2.304,6.873,1.988,8,1.988c3.32,0,6.01,2.691,6.01,6.012
	C14.01,10.967,11.86,13.425,9.035,13.916z"/>
</svg>
