<?xml version="1.0" encoding="utf-8"?>
<!-- Generator: Adobe Illustrator 16.0.0, SVG Export Plug-In . SVG Version: 6.00 Build 0)  -->
<!DOCTYPE svg PUBLIC "-//W3C//DTD SVG 1.1//EN" "http://www.w3.org/Graphics/SVG/1.1/DTD/svg11.dtd">
<svg version="1.1" id="Layer_1" xmlns="http://www.w3.org/2000/svg" xmlns:xlink="http://www.w3.org/1999/xlink" x="0px" y="0px"
	 width="16px" height="16px" viewBox="0 0 16 16" enable-background="new 0 0 16 16" xml:space="preserve">
<path fill="#020202" d="M5.084,5.788c0.035-0.008,0.07-0.012,0.107-0.012h7.057l-2.901-2.9c-0.2-0.201-0.2-0.525,0-0.726
	c0.2-0.201,0.525-0.201,0.726,0l3.777,3.776c0.01,0.01,0.013,0.022,0.021,0.032C13.906,6,13.939,6.043,13.96,6.094
	c0.022,0.056,0.033,0.115,0.035,0.174C13.995,6.276,14,6.282,14,6.29c0,0.012-0.007,0.021-0.007,0.032
	c-0.003,0.056-0.012,0.11-0.032,0.164c-0.025,0.06-0.062,0.113-0.106,0.159c-0.002,0.002-0.003,0.006-0.005,0.008l-3.777,3.777
	c-0.1,0.1-0.231,0.15-0.362,0.15c-0.132,0-0.263-0.051-0.363-0.15c-0.2-0.201-0.2-0.525,0-0.727l2.901-2.9H5.25
	C4.918,6.889,3.027,7.49,3.027,10.01c0,2.518,1.944,2.922,2.201,2.963H6.73c0.283,0,0.514,0.23,0.514,0.514S7.014,14,6.73,14H5.191
	c-0.021,0-0.042-0.002-0.062-0.004C4.047,13.863,2,12.861,2,10.01C2,7.188,4.018,6.014,5.084,5.788z"/>
</svg>
