<?xml version="1.0" encoding="utf-8"?>
<!-- Generator: Adobe Illustrator 16.0.0, SVG Export Plug-In . SVG Version: 6.00 Build 0)  -->
<!DOCTYPE svg PUBLIC "-//W3C//DTD SVG 1.1//EN" "http://www.w3.org/Graphics/SVG/1.1/DTD/svg11.dtd">
<svg version="1.1" id="Layer_1" xmlns="http://www.w3.org/2000/svg" xmlns:xlink="http://www.w3.org/1999/xlink" x="0px" y="0px"
	 width="16px" height="16px" viewBox="0 0 16 16" enable-background="new 0 0 16 16" xml:space="preserve">
<path fill-rule="evenodd" clip-rule="evenodd" fill="#020202" d="M11.065,9.936c-0.615,0.562-0.755,0.646-0.789-0.404
	c-0.062-0.768,0-1.618,0-1.618c-0.022-0.048-1.351-0.547-3.548,0.404C4.532,9.27,3.05,12.24,2.788,13.17
	C2.767,13.707,2.067,14.744,2,13.148c-0.009-2.604,1.008-5.33,3.599-6.893c2.416-1.457,4.426-1.309,4.647-1.232
	c0.004,0.021,0.01,0.029,0.021,0.016c0.003-0.004-0.006-0.01-0.021-0.016c-0.019-0.097,0.039-0.598,0.045-1.54
	c-0.037-0.846,0.189-0.872,0.774-0.421c1.071,0.88,3.934,3.615,3.934,3.615S12.137,9.072,11.065,9.936z"/>
</svg>
