<?xml version="1.0" encoding="utf-8"?>
<!-- Generator: Adobe Illustrator 16.0.0, SVG Export Plug-In . SVG Version: 6.00 Build 0)  -->
<!DOCTYPE svg PUBLIC "-//W3C//DTD SVG 1.1//EN" "http://www.w3.org/Graphics/SVG/1.1/DTD/svg11.dtd">
<svg version="1.1" id="Layer_1" xmlns="http://www.w3.org/2000/svg" xmlns:xlink="http://www.w3.org/1999/xlink" x="0px" y="0px"
	 width="16px" height="16px" viewBox="0 0 16 16" enable-background="new 0 0 16 16" xml:space="preserve">
<g>
	<g>
		<path fill="#010101" d="M15.814,7.667l-2.32,2.32c-0.119,0.118-0.281,0.186-0.449,0.186s-0.328-0.067-0.449-0.186l-2.318-2.32
			c-0.247-0.248-0.247-0.649,0-0.898c0.248-0.248,0.648-0.248,0.898,0l1.234,1.237V8c0-3.072-2.497-5.57-5.57-5.57
			C3.769,2.43,1.269,4.928,1.269,8s2.5,5.57,5.571,5.57c1.488,0,2.887-0.579,3.941-1.631c0.246-0.248,0.648-0.248,0.896,0
			s0.247,0.648,0,0.896c-1.291,1.293-3.009,2.004-4.837,2.004C3.068,14.838,0,11.771,0,8s3.068-6.84,6.84-6.84
			c3.772,0,6.84,3.068,6.84,6.84v0.006l1.236-1.237c0.248-0.247,0.648-0.247,0.898,0C16.062,7.019,16.062,7.419,15.814,7.667z"/>
	</g>
</g>
</svg>
