<?xml version="1.0" encoding="utf-8"?>
<!-- Generator: Adobe Illustrator 16.0.0, SVG Export Plug-In . SVG Version: 6.00 Build 0)  -->
<!DOCTYPE svg PUBLIC "-//W3C//DTD SVG 1.1//EN" "http://www.w3.org/Graphics/SVG/1.1/DTD/svg11.dtd">
<svg version="1.1" id="Layer_1" xmlns="http://www.w3.org/2000/svg" xmlns:xlink="http://www.w3.org/1999/xlink" x="0px" y="0px"
	 width="16px" height="16px" viewBox="0 0 16 16" enable-background="new 0 0 16 16" xml:space="preserve">
<path fill-rule="evenodd" clip-rule="evenodd" fill="#020202" d="M8.5,12h-6C2.224,12,2,11.776,2,11.5v-6C2,5.224,2.224,5,2.5,5h6
	C8.776,5,9,5.224,9,5.5S8.776,6,8.5,6H3v5h5.5C8.776,11,9,11.224,9,11.5S8.776,12,8.5,12z M4.5,8C4.224,8,4,8.224,4,8.5
	S4.224,9,4.5,9h3C7.776,9,8,8.776,8,8.5S7.776,8,7.5,8H4.5z M12.5,14H11V3h1.5C12.776,3,13,2.776,13,2.5S12.776,2,12.5,2h-4
	C8.224,2,8,2.224,8,2.5S8.224,3,8.5,3H10v11H8.5C8.224,14,8,14.224,8,14.5S8.224,15,8.5,15h4c0.276,0,0.5-0.224,0.5-0.5
	S12.776,14,12.5,14z M13.5,5h-1C12.224,5,12,5.224,12,5.5S12.224,6,12.5,6H13v5h-0.5c-0.276,0-0.5,0.224-0.5,0.5s0.224,0.5,0.5,0.5
	h1c0.276,0,0.5-0.224,0.5-0.5v-6C14,5.224,13.776,5,13.5,5z"/>
</svg>
