<?xml version="1.0" encoding="utf-8"?>
<!-- Generator: Adobe Illustrator 19.0.0, SVG Export Plug-In . SVG Version: 6.00 Build 0)  -->
<svg version="1.1" id="图层_1" xmlns="http://www.w3.org/2000/svg" xmlns:xlink="http://www.w3.org/1999/xlink" x="0px" y="0px"
	 viewBox="0 0 24 24" style="enable-background:new 0 0 24 24;" xml:space="preserve">
<style type="text/css">
	.st0{fill:#020202;}
</style>
<path id="XMLID_1_" class="st0" d="M22.9,3.5c0,0.3-0.2,0.5-0.5,0.5H3.9v10.5c0,0.8,0.7,1.5,1.5,1.5h13c0.8,0,1.5-0.7,1.5-1V6.5
	c0-0.3,0.2-0.5,0.5-0.5c0.3,0,0.5,0.2,0.5,0.5V15c0,0.9-1.1,2-2.5,2h-4.8l4,4c0.2,0.2,0.2,0.5,0,0.7c-0.2,0.2-0.5,0.2-0.7,0L12.2,17
	h-0.4l-4.7,4.7c-0.2,0.2-0.5,0.2-0.7,0c-0.2-0.2-0.2-0.5,0-0.7l4-4h-5c-1.4,0-2.5-1.1-2.5-2.5V4H1.4C1.1,4,0.9,3.8,0.9,3.5
	C0.9,3.2,1.1,3,1.4,3h9.5V2h2v1h9.5C22.7,3,22.9,3.2,22.9,3.5z M16.8,6.5L14,7.1c-0.2,0-0.3,0.2-0.4,0.3l-1.1,3.4l-1.4-2.1
	c-0.1-0.2-0.3-0.2-0.5-0.2c-0.2,0-0.3,0.2-0.4,0.3l-0.9,2.7l-1-0.9c-0.1-0.1-0.3-0.2-0.5-0.1c-0.2,0-0.3,0.2-0.4,0.3l-1.2,3.1
	c-0.1,0.3,0,0.5,0.3,0.6c0.1,0,0.1,0,0.2,0c0.2,0,0.4-0.1,0.5-0.3l1-2.4l1,0.9c0.1,0.1,0.3,0.2,0.5,0.1c0.2,0,0.3-0.2,0.3-0.3
	l0.8-2.4l1.4,2.1c0.1,0.2,0.3,0.2,0.5,0.2c0.2,0,0.3-0.2,0.4-0.3L14.5,8L17,7.5c0.3-0.1,0.4-0.3,0.4-0.6C17.3,6.6,17.1,6.5,16.8,6.5
	z"/>
</svg>
