<?xml version="1.0" encoding="utf-8"?>
<!-- Generator: Adobe Illustrator 16.0.0, SVG Export Plug-In . SVG Version: 6.00 Build 0)  -->
<!DOCTYPE svg PUBLIC "-//W3C//DTD SVG 1.1//EN" "http://www.w3.org/Graphics/SVG/1.1/DTD/svg11.dtd">
<svg version="1.1" id="Layer_1" xmlns="http://www.w3.org/2000/svg" xmlns:xlink="http://www.w3.org/1999/xlink" x="0px" y="0px"
	 width="24px" height="24px" viewBox="0 0 24 24" enable-background="new 0 0 24 24" xml:space="preserve">
<path d="M7.916,8l6.668,4l-6.668,4V8z M23.492,9.646c-0.195-0.195-0.512-0.195-0.707,0l-1.812,1.812
	C20.688,5.92,16.105,1.5,10.5,1.5C4.711,1.5,0,6.209,0,12c0,5.79,4.711,10.5,10.5,10.5c4.314,0,8.253-2.705,9.802-6.729
	c0.099-0.258-0.028-0.547-0.286-0.646c-0.258-0.098-0.548,0.029-0.646,0.287c-1.401,3.641-4.967,6.088-8.868,6.088
	c-5.238,0-9.5-4.262-9.5-9.5c0-5.238,4.262-9.5,9.5-9.5c5.065,0,9.205,3.988,9.476,8.987l-1.857-1.857
	c-0.195-0.195-0.512-0.195-0.707,0s-0.195,0.512,0,0.707l2.695,2.695c0.098,0.098,0.225,0.146,0.354,0.146
	c0.127,0,0.256-0.049,0.354-0.146l2.681-2.68C23.688,10.156,23.688,9.84,23.492,9.646z"/>
</svg>
