<?xml version="1.0" encoding="utf-8"?>
<!-- Generator: Adobe Illustrator 16.0.0, SVG Export Plug-In . SVG Version: 6.00 Build 0)  -->
<!DOCTYPE svg PUBLIC "-//W3C//DTD SVG 1.1//EN" "http://www.w3.org/Graphics/SVG/1.1/DTD/svg11.dtd">
<svg version="1.1" id="Layer_1" xmlns="http://www.w3.org/2000/svg" xmlns:xlink="http://www.w3.org/1999/xlink" x="0px" y="0px"
	 width="16px" height="16px" viewBox="0 0 16 16" enable-background="new 0 0 16 16" xml:space="preserve">
<path fill-rule="evenodd" clip-rule="evenodd" fill="#020202" d="M14,3.5C14,3.776,13.776,4,13.5,4h-11C2.224,4,2,3.776,2,3.5l0,0
	C2,3.224,2.224,3,2.5,3h11C13.776,3,14,3.224,14,3.5L14,3.5z M14,6.5C14,6.224,13.776,6,13.5,6h-8C5.224,6,5,6.224,5,6.5l0,0
	C5,6.776,5.224,7,5.5,7h8C13.776,7,14,6.776,14,6.5L14,6.5z M14,9.5C14,9.224,13.776,9,13.5,9h-11C2.224,9,2,9.224,2,9.5l0,0
	C2,9.776,2.224,10,2.5,10h11C13.776,10,14,9.776,14,9.5L14,9.5z M14,12.5c0-0.276-0.224-0.5-0.5-0.5h-8C5.224,12,5,12.224,5,12.5
	l0,0C5,12.776,5.224,13,5.5,13h8C13.776,13,14,12.776,14,12.5L14,12.5z"/>
</svg>
