<?xml version="1.0" encoding="utf-8"?>
<!-- Generator: Adobe Illustrator 16.0.0, SVG Export Plug-In . SVG Version: 6.00 Build 0)  -->
<!DOCTYPE svg PUBLIC "-//W3C//DTD SVG 1.1//EN" "http://www.w3.org/Graphics/SVG/1.1/DTD/svg11.dtd">
<svg version="1.1" id="Layer_1" xmlns="http://www.w3.org/2000/svg" xmlns:xlink="http://www.w3.org/1999/xlink" x="0px" y="0px"
	 width="16px" height="16px" viewBox="0 0 16 16" enable-background="new 0 0 16 16" xml:space="preserve">
<path fill-rule="evenodd" clip-rule="evenodd" fill="#020202" d="M12.482,8C12.769,8,13.001,7.777,13,7.5
	C13.001,7.224,12.769,7,12.482,7H9V6.707l3.844-3.844c0.203-0.203,0.209-0.525,0.014-0.72c-0.193-0.196-0.518-0.189-0.721,0.013
	L8.5,5.792L4.863,2.156c-0.202-0.202-0.526-0.209-0.72-0.013c-0.195,0.194-0.19,0.517,0.014,0.72L8,6.707V7H4.518
	C4.232,7,3.999,7.224,4,7.5C4,7.775,4.231,8,4.519,8H8v2H4.518C4.232,10,3.999,10.225,4,10.5C4,10.775,4.231,11,4.519,11H8v2.482
	C8,13.768,8.223,14,8.5,14C8.775,14,9,13.768,9,13.482V11h3.482c0.286,0,0.519-0.223,0.518-0.5c0.001-0.275-0.231-0.5-0.518-0.5H9V8
	H12.482z"/>
</svg>
