<?xml version="1.0" encoding="utf-8"?>
<!-- Generator: Adobe Illustrator 16.0.0, SVG Export Plug-In . SVG Version: 6.00 Build 0)  -->
<!DOCTYPE svg PUBLIC "-//W3C//DTD SVG 1.1//EN" "http://www.w3.org/Graphics/SVG/1.1/DTD/svg11.dtd">
<svg version="1.1" id="Layer_1" xmlns="http://www.w3.org/2000/svg" xmlns:xlink="http://www.w3.org/1999/xlink" x="0px" y="0px"
	 width="24px" height="24px" viewBox="0 0 24 24" enable-background="new 0 0 24 24" xml:space="preserve">
<path fill="#231F20" d="M11.93,22c-5.789,0-10.5-4.711-10.5-10.5C1.43,5.71,6.141,1,11.93,1s10.5,4.71,10.5,10.5
	c0,0.276-0.224,0.5-0.5,0.5s-0.5-0.224-0.5-0.5c0-5.238-4.262-9.5-9.5-9.5s-9.5,4.262-9.5,9.5s4.262,9.5,9.5,9.5
	c3.902,0,7.467-2.446,8.868-6.087c0.1-0.258,0.39-0.385,0.646-0.287c0.258,0.099,0.386,0.389,0.287,0.646
	C20.183,19.297,16.244,22,11.93,22z M9.346,15.5v-8l6.668,4L9.346,15.5z"/>
</svg>
