<?xml version="1.0" encoding="utf-8"?>
<!-- Generator: Adobe Illustrator 19.0.0, SVG Export Plug-In . SVG Version: 6.00 Build 0)  -->
<svg version="1.1" id="图层_1" xmlns="http://www.w3.org/2000/svg" xmlns:xlink="http://www.w3.org/1999/xlink" x="0px" y="0px"
	 viewBox="0 0 16 16" style="enable-background:new 0 0 16 16;" xml:space="preserve">
<style type="text/css">
	.st0{fill-rule:evenodd;clip-rule:evenodd;fill:#020202;}
</style>
<path class="st0" d="M11,8.5C11,8.8,10.8,9,10.5,9h-6C4.2,9,4,8.8,4,8.5l0,0C4,8.2,4.2,8,4.5,8h6C10.8,8,11,8.2,11,8.5L11,8.5z
	 M12,10.5c0-0.3-0.2-0.5-0.5-0.5h-7C4.2,10,4,10.2,4,10.5l0,0C4,10.8,4.2,11,4.5,11h7C11.8,11,12,10.8,12,10.5L12,10.5z M12,12.5
	c0-0.3-0.2-0.5-0.5-0.5h-7C4.2,12,4,12.2,4,12.5l0,0C4,12.8,4.2,13,4.5,13h7C11.8,13,12,12.8,12,12.5L12,12.5z M14.5,10
	c-0.3,0-0.5,0.2-0.5,0.5v3c0,0.3-0.2,0.5-0.5,0.5h-11C2.2,14,2,13.8,2,13.5v-11C2,2.2,2.2,2,2.5,2H4v3.5C4,6.3,4.7,7,5.5,7h7.2v0
	h0.6v0h0l-1.1,1.1c-0.2,0.2-0.2,0.5,0,0.7c0.2,0.2,0.5,0.2,0.7,0l2-2C15,6.8,15,6.7,15,6.5c0-0.1-0.1-0.3-0.2-0.4l-2-2
	c-0.2-0.2-0.5-0.2-0.7,0c-0.2,0.2-0.2,0.5,0,0.7L13.2,6H13c0,0,0,0,0,0H5.5C5.2,6,5,5.8,5,5.5V2h2v2h3V1.5C10,1.2,9.8,1,9.5,1h-7
	C1.7,1,1,1.7,1,2.5v11C1,14.3,1.7,15,2.5,15h11c0.8,0,1.5-0.7,1.5-1.5v-3C15,10.2,14.8,10,14.5,10z"/>
</svg>
