<?xml version="1.0" encoding="utf-8"?>
<!-- Generator: Adobe Illustrator 19.0.0, SVG Export Plug-In . SVG Version: 6.00 Build 0)  -->
<svg version="1.1" id="图层_1" xmlns="http://www.w3.org/2000/svg" xmlns:xlink="http://www.w3.org/1999/xlink" x="0px" y="0px"
	 viewBox="0 0 16 16" style="enable-background:new 0 0 16 16;" xml:space="preserve">
<path d="M12.2,1H2.5C1.6,1,1,1.7,1,2.5v11C1,14.3,1.6,15,2.5,15h11c0.8,0,1.5-0.7,1.5-1.5V3.3L12.2,1z M5,2h1.5v2h3V2H11
	c0,0,0,0,0,0v3.5C11,5.8,10.7,6,10.5,6h-5C5.2,6,5,5.8,5,5.5V2z M14,13.5c0,0.3-0.2,0.5-0.5,0.5h-11C2.2,14,2,13.8,2,13.5v-11
	C2,2.2,2.2,2,2.5,2H4v3.5C4,6.3,4.6,7,5.5,7h5C11.3,7,12,6.3,12,5.5L12,2l2,1.7V13.5z M12,8.5C12,8.8,11.7,9,11.5,9h-7
	C4.2,9,4,8.8,4,8.5l0,0C4,8.2,4.2,8,4.5,8h7C11.7,8,12,8.2,12,8.5L12,8.5z M12,10.5c0,0.3-0.2,0.5-0.5,0.5h-7C4.2,11,4,10.8,4,10.5
	l0,0C4,10.2,4.2,10,4.5,10h7C11.7,10,12,10.2,12,10.5L12,10.5z M12,12.5c0,0.3-0.2,0.5-0.5,0.5h-7C4.2,13,4,12.8,4,12.5l0,0
	C4,12.2,4.2,12,4.5,12h7C11.7,12,12,12.2,12,12.5L12,12.5z"/>
</svg>
