<?xml version="1.0" encoding="utf-8"?>
<!-- Generator: Adobe Illustrator 16.0.0, SVG Export Plug-In . SVG Version: 6.00 Build 0)  -->
<!DOCTYPE svg PUBLIC "-//W3C//DTD SVG 1.1//EN" "http://www.w3.org/Graphics/SVG/1.1/DTD/svg11.dtd">
<svg version="1.1" id="Layer_1" xmlns="http://www.w3.org/2000/svg" xmlns:xlink="http://www.w3.org/1999/xlink" x="0px" y="0px"
	 width="24px" height="24px" viewBox="0 0 24 24" enable-background="new 0 0 24 24" xml:space="preserve">
<path d="M19,12.5c0,0.276-0.224,0.5-0.5,0.5h-12C6.224,13,6,12.776,6,12.5S6.224,12,6.5,12h12C18.776,12,19,12.224,19,12.5z
	 M18.5,15h-12C6.224,15,6,15.224,6,15.5S6.224,16,6.5,16h12c0.276,0,0.5-0.224,0.5-0.5S18.776,15,18.5,15z M18.5,18h-12
	C6.224,18,6,18.224,6,18.5S6.224,19,6.5,19h12c0.276,0,0.5-0.224,0.5-0.5S18.776,18,18.5,18z M23,5v0.333V7.25v0.949
	c0,0.276-0.224,0.5-0.5,0.5S22,8.475,22,8.199V6.5V5.414L19.586,3H19v4c0,0.878-1.121,2-2.5,2h-8C7.122,9,6,7.878,6,6.5V3H4.5
	C3.673,3,3,3.673,3,4.5v15C3,20.327,3.673,21,4.5,21h16c0.827,0,1.5-0.673,1.5-1v-6.837c0-0.276,0.224-0.5,0.5-0.5
	s0.5,0.224,0.5,0.5v6.865h-0.004C22.973,20.902,21.864,22,20.5,22h-16C3.122,22,2,20.879,2,19.5v-15C2,3.122,3.122,2,4.5,2H20L23,5z
	 M18,3h-2.5H15v3h-3V3H7v3.5C7,7.327,7.673,8,8.5,8h8C17.327,8,18,7.327,18,7V3z"/>
</svg>
