<?xml version="1.0" encoding="utf-8"?>
<!-- Generator: Adobe Illustrator 16.0.0, SVG Export Plug-In . SVG Version: 6.00 Build 0)  -->
<!DOCTYPE svg PUBLIC "-//W3C//DTD SVG 1.1//EN" "http://www.w3.org/Graphics/SVG/1.1/DTD/svg11.dtd">
<svg version="1.1" id="Layer_1" xmlns="http://www.w3.org/2000/svg" xmlns:xlink="http://www.w3.org/1999/xlink" x="0px" y="0px"
	 width="16px" height="16px" viewBox="0 0 16 16" enable-background="new 0 0 16 16" xml:space="preserve">
<path fill-rule="evenodd" clip-rule="evenodd" fill="#020202" d="M13.676,13.373l-2.938-3.368C11.526,9.053,12,7.832,12,6.5
	C12,3.463,9.537,1,6.5,1C3.462,1,1,3.463,1,6.5S3.462,12,6.5,12c1.13,0,2.18-0.342,3.053-0.926l2.92,3.348
	c0.289,0.333,0.795,0.365,1.125,0.077C13.932,14.209,13.965,13.705,13.676,13.373z M2.5,6.5c0-2.206,1.794-4,4-4
	c2.206,0,4,1.794,4,4s-1.794,4-4,4C4.294,10.5,2.5,8.706,2.5,6.5z"/>
</svg>
