<?xml version="1.0" encoding="utf-8"?>
<!-- Generator: Adobe Illustrator 16.0.0, SVG Export Plug-In . SVG Version: 6.00 Build 0)  -->
<!DOCTYPE svg PUBLIC "-//W3C//DTD SVG 1.1//EN" "http://www.w3.org/Graphics/SVG/1.1/DTD/svg11.dtd">
<svg version="1.1" id="Layer_1" xmlns="http://www.w3.org/2000/svg" xmlns:xlink="http://www.w3.org/1999/xlink" x="0px" y="0px"
	 width="24px" height="24px" viewBox="0 0 24 24" enable-background="new 0 0 24 24" xml:space="preserve">
<path d="M21.176,21.217l-4.933-5.798c-0.001-0.001-0.001-0.001-0.001-0.001c-0.016-0.025-0.025-0.053-0.045-0.074
	c-0.188-0.205-0.504-0.218-0.707-0.031c-1.33,1.217-3.057,1.888-4.86,1.888c-3.97,0-7.2-3.229-7.2-7.2c0-3.97,3.23-7.2,7.2-7.2
	c3.97,0,7.2,3.23,7.2,7.2c0,0.923-0.172,1.823-0.512,2.673c-0.104,0.256,0.021,0.548,0.278,0.649
	c0.255,0.103,0.547-0.021,0.649-0.278c0.388-0.969,0.584-1.993,0.584-3.044c0-4.521-3.679-8.2-8.2-8.2s-8.2,3.679-8.2,8.2
	s3.679,8.2,8.2,8.2c1.875,0,3.674-0.644,5.126-1.81l4.658,5.475c0.1,0.116,0.24,0.176,0.381,0.176c0.115,0,0.23-0.039,0.324-0.119
	C21.329,21.742,21.354,21.428,21.176,21.217z"/>
</svg>
