<?xml version="1.0" encoding="utf-8"?>
<!-- Generator: Adobe Illustrator 16.0.0, SVG Export Plug-In . SVG Version: 6.00 Build 0)  -->
<!DOCTYPE svg PUBLIC "-//W3C//DTD SVG 1.1//EN" "http://www.w3.org/Graphics/SVG/1.1/DTD/svg11.dtd">
<svg version="1.1" id="Layer_1" xmlns="http://www.w3.org/2000/svg" xmlns:xlink="http://www.w3.org/1999/xlink" x="0px" y="0px"
	 width="16px" height="16px" viewBox="0 0 16 16" enable-background="new 0 0 16 16" xml:space="preserve">
<path fill-rule="evenodd" clip-rule="evenodd" fill="#020202" d="M3.093,7.28l2.375-2.188C5.53,5.031,5.604,5,5.688,5
	s0.157,0.031,0.22,0.093C5.97,5.155,6,5.229,6,5.312V7h1.5C7.776,7,8,7.224,8,7.5S7.776,8,7.5,8H6v1.688
	c0,0.084-0.03,0.158-0.093,0.22C5.845,9.97,5.771,10,5.688,10S5.53,9.97,5.468,9.907L3.093,7.72C3.031,7.658,3,7.584,3,7.5
	S3.031,7.343,3.093,7.28z M13.907,7.28l-2.375-2.188C11.47,5.031,11.396,5,11.312,5s-0.157,0.031-0.22,0.093
	C11.03,5.155,11,5.229,11,5.312V7H9.5C9.224,7,9,7.224,9,7.5S9.224,8,9.5,8H11v1.688c0,0.084,0.03,0.158,0.093,0.22
	C11.155,9.97,11.229,10,11.312,10s0.157-0.03,0.22-0.093l2.375-2.188C13.969,7.658,14,7.584,14,7.5S13.969,7.343,13.907,7.28z M7,2
	v2h1V2c0-0.553-0.447-1-1-1l0,0H2C1.447,1,1,1.447,1,2v11c0,0.553,0.447,1,1,1h5c0.553,0,1-0.447,1-1v-2H7v2H2V2H7 M10,2h5v11h-5v-2
	H9v2c0,0.553,0.447,1,1,1h5c0.553,0,1-0.447,1-1V2c0-0.553-0.447-1-1-1h-5l0,0C9.447,1,9,1.447,9,2v2h1V2"/>
</svg>
