<?xml version="1.0" encoding="utf-8"?>
<!-- Generator: Adobe Illustrator 19.0.0, SVG Export Plug-In . SVG Version: 6.00 Build 0)  -->
<svg version="1.1" id="图层_1" xmlns="http://www.w3.org/2000/svg" xmlns:xlink="http://www.w3.org/1999/xlink" x="0px" y="0px"
	 viewBox="0 0 24 24" style="enable-background:new 0 0 24 24;" xml:space="preserve">
<style type="text/css">
	.st0{fill:#272636;}
</style>
<path id="XMLID_1_" class="st0" d="M13.4,2c0.1,0,0.2,0.1,0.2,0.3c0,0,0.1,0.8,0.5,1.5c0.7,1.2,2,1.9,3.4,1.9c0.7,0,1.4-0.2,1.9-0.5
	l0,0c0,0,0.1,0.1,0.2,0.2c0,0,0.8,0.9,1.2,1.6c0.3,0.6,0.7,1.4,0.8,1.8c0,0.1,0,0.2,0,0.2l0,0c-1.9,1.1-2.5,3.5-1.4,5.3
	c0.3,0.6,0.9,1,1,1.1c0.1,0.1,0.1,0.2,0.1,0.4l-1.6,2.7c0,0-0.1,0.1-0.1,0.1c-0.1,0-0.2,0.1-0.2,0.1c0,0-0.1,0-0.1,0
	c-0.4-0.1-1.2-0.3-1.9-0.3c-0.6,0-1.2,0.1-1.6,0.4c-1.3,0.8-1.8,2.9-1.8,3c0,0.1-0.1,0.2-0.2,0.3c0,0-0.1,0-0.1,0l-3,0
	c-0.1,0-0.2-0.1-0.3-0.3c0-0.1-0.1-0.9-0.5-1.5c-0.7-1.2-2-1.9-3.4-1.9c-0.7,0-1.4,0.2-1.9,0.5l0,0c0,0-0.1-0.1-0.2-0.2
	c0,0-0.8-0.9-1.2-1.6c-0.4-0.7-0.8-1.8-0.8-1.8c0-0.1,0-0.2,0-0.2l0,0c1.9-1.1,2.5-3.5,1.4-5.3c-0.4-0.6-1-1.1-1-1.1
	C2.7,8.5,2.6,8.3,2.7,8.2l1.6-2.7c0,0,0.1-0.1,0.1-0.1c0.1,0,0.2-0.1,0.3-0.1c0,0,0.1,0,0.1,0c0.4,0.1,1.1,0.2,1.8,0.2
	c0.7,0,1.2-0.1,1.6-0.4C9.4,4.5,9.9,2.6,10,2.4c0-0.1,0.1-0.2,0.2-0.3c0,0,0.1,0,0.1,0L13.4,2 M13.4,1l-3.2,0.1l0,0
	c-0.2,0-0.4,0.1-0.5,0.2C9.3,1.4,9.1,1.8,9,2.1C8.9,2.6,8.4,3.9,7.7,4.4C7.3,4.5,6.9,4.6,6.5,4.6C5.9,4.6,5.3,4.5,5,4.4
	c-0.1,0-0.2-0.1-0.4-0.1c-0.3,0-0.5,0.1-0.8,0.2C3.7,4.6,3.6,4.8,3.5,4.9l0,0L1.8,7.7l0,0C1.5,8.3,1.7,9,2.2,9.3
	c0,0,0.5,0.4,0.8,0.8c0.8,1.4,0.3,3.2-1.1,3.9l-0.1,0c-0.4,0.2-0.5,0.8-0.3,1.4c0,0,0.4,1.2,0.9,2c0.5,0.8,1.3,1.7,1.3,1.8
	c0.3,0.3,0.6,0.5,1,0.5c0.1,0,0.3,0,0.4-0.1c0,0,0,0,0,0l0.1,0c0.5-0.3,1-0.4,1.4-0.4c1,0,2,0.5,2.5,1.4c0.3,0.5,0.3,1.1,0.3,1.1
	c0.1,0.6,0.6,1.1,1.2,1.1l0,0l3.1,0l0,0c0.2,0,0.4-0.1,0.5-0.2c0.3-0.2,0.6-0.5,0.7-0.9c0.1-0.5,0.6-1.9,1.3-2.3
	c0.3-0.2,0.7-0.2,1.1-0.2c0.6,0,1.3,0.2,1.6,0.2c0.1,0,0.3,0.1,0.4,0.1c0.3,0,0.5-0.1,0.7-0.2c0.2-0.1,0.3-0.2,0.4-0.4l0,0l1.7-2.8
	l0,0c0.3-0.5,0.1-1.2-0.4-1.6c0,0-0.5-0.4-0.8-0.8c-0.8-1.4-0.3-3.2,1.1-3.9l0.1,0c0.4-0.2,0.5-0.8,0.3-1.4c0,0-0.4-1.2-0.9-2
	c-0.5-0.8-1.3-1.7-1.3-1.8c-0.3-0.3-0.6-0.5-1-0.5c-0.1,0-0.3,0-0.4,0.1l-0.1,0c-0.5,0.3-1,0.4-1.4,0.4c-1,0-2-0.5-2.5-1.4
	c-0.3-0.5-0.3-1.1-0.3-1.1C14.6,1.6,14,1.1,13.4,1L13.4,1L13.4,1z M15.2,14.9c0.2-0.2,0.2-0.5,0-0.7c-0.2-0.2-0.5-0.2-0.7,0
	c-0.6,0.7-1.6,1.2-2.5,1.2c-1.8,0-3.4-1.5-3.4-3.4s1.5-3.4,3.4-3.4s3.4,1.5,3.4,3.4c0,0.3,0.2,0.5,0.5,0.5c0.3,0,0.5-0.2,0.5-0.5
	c0-2.4-2-4.4-4.4-4.4c-2.4,0-4.4,2-4.4,4.4c0,2.4,2,4.4,4.4,4.4C13.2,16.4,14.4,15.8,15.2,14.9z"/>
</svg>
