<?xml version="1.0" encoding="utf-8"?>
<!-- Generator: Adobe Illustrator 19.0.0, SVG Export Plug-In . SVG Version: 6.00 Build 0)  -->
<svg version="1.1" id="图层_1" xmlns="http://www.w3.org/2000/svg" xmlns:xlink="http://www.w3.org/1999/xlink" x="0px" y="0px"
	 viewBox="0 0 16 16" style="enable-background:new 0 0 16 16;" xml:space="preserve">
<g id="XMLID_6_">
	<path id="XMLID_29_" d="M14.7,6.6L14.7,6.6c0.3-0.2,0.4-0.5,0.3-1c0,0-0.3-0.8-0.6-1.3c-0.3-0.5-0.8-1.2-0.9-1.2
		c-0.3-0.3-0.6-0.4-0.9-0.3l-0.1,0c-0.9,0.5-2.1,0.2-2.6-0.7C9.8,1.9,9.7,1.4,9.7,1.4C9.7,1,9.4,0.7,9,0.7l0,0l-2.1,0l0,0
		c-0.1,0-0.2,0.1-0.3,0.1C6.2,1,6.1,1.2,6,1.4C5.9,1.7,5.6,2.6,5.1,2.9C4.6,3.2,3.7,3,3.4,2.9C3.1,2.9,2.8,2.9,2.6,3
		C2.5,3.1,2.4,3.2,2.3,3.3l0,0L1.2,5.2l0,0C1,5.5,1.1,6,1.4,6.2c0,0,0.3,0.3,0.5,0.6c0.5,0.9,0.2,2.1-0.7,2.6l-0.1,0
		C0.9,9.6,0.8,10,1,10.4c0,0,0.3,0.8,0.6,1.3c0.3,0.5,0.8,1.2,0.9,1.2c0.3,0.3,0.6,0.4,0.9,0.3c0,0,0,0,0,0l0.1,0
		c0.9-0.5,2.1-0.2,2.6,0.7c0.2,0.3,0.2,0.7,0.2,0.7c0,0.4,0.4,0.7,0.8,0.8l0,0l2.1,0l0,0c0.1,0,0.2-0.1,0.3-0.1
		c0.2-0.1,0.4-0.4,0.5-0.6c0.1-0.3,0.4-1.3,0.9-1.5c0.5-0.3,1.5-0.1,1.8,0c0.2,0.1,0.5,0,0.8-0.1c0.1-0.1,0.2-0.1,0.3-0.2l0,0
		l1.1-1.8l0,0c0.2-0.4,0.1-0.8-0.3-1.1c0,0-0.3-0.3-0.5-0.6C13.5,8.3,13.8,7.1,14.7,6.6z M9.5,10.6c-1.4,0.8-3.3,0.3-4.1-1.1
		C4.6,8.1,5.1,6.2,6.5,5.4s3.3-0.3,4.1,1.1C11.4,7.9,10.9,9.8,9.5,10.6z"/>
</g>
</svg>
