<?xml version="1.0" encoding="utf-8"?>
<!-- Generator: Adobe Illustrator 16.0.0, SVG Export Plug-In . SVG Version: 6.00 Build 0)  -->
<!DOCTYPE svg PUBLIC "-//W3C//DTD SVG 1.1//EN" "http://www.w3.org/Graphics/SVG/1.1/DTD/svg11.dtd">
<svg version="1.1" id="Layer_1" xmlns="http://www.w3.org/2000/svg" xmlns:xlink="http://www.w3.org/1999/xlink" x="0px" y="0px"
	 width="16px" height="16px" viewBox="0 0 16 16" enable-background="new 0 0 16 16" xml:space="preserve">
<path d="M13,5.275V1.667C13,1.298,12.701,1,12.334,1H1.667C1.298,1,1,1.298,1,1.667v10.667C1,12.702,1.298,13,1.667,13h3.929
	c0.983,1.503,2.677,2.5,4.603,2.5c3.033,0,5.5-2.468,5.5-5.5C15.699,7.991,14.613,6.235,13,5.275z M2,12V2h10v2.809
	C11.434,4.612,10.83,4.5,10.199,4.5C7.167,4.5,4.7,6.968,4.7,10c0,0.706,0.139,1.379,0.382,2H2z M10.199,14.5
	C7.719,14.5,5.7,12.481,5.7,10s2.019-4.5,4.499-4.5s4.5,2.019,4.5,4.5S12.68,14.5,10.199,14.5z"/>
</svg>
