<?xml version="1.0" encoding="utf-8"?>
<!-- Generator: Adobe Illustrator 16.0.0, SVG Export Plug-In . SVG Version: 6.00 Build 0)  -->
<!DOCTYPE svg PUBLIC "-//W3C//DTD SVG 1.1//EN" "http://www.w3.org/Graphics/SVG/1.1/DTD/svg11.dtd">
<svg version="1.1" id="Layer_1" xmlns="http://www.w3.org/2000/svg" xmlns:xlink="http://www.w3.org/1999/xlink" x="0px" y="0px"
	 width="16px" height="16px" viewBox="0 0 16 16" enable-background="new 0 0 16 16" xml:space="preserve">
<path fill-rule="evenodd" clip-rule="evenodd" d="M14,5v4.75V13v1c0,0.553-0.447,1-1,1H4c-0.553,0-1-0.447-1-1v-1v-2.25V5h0.075H4
	h1.552c1.138,0,1.138,1,0,1H4v4.75V14h1h7h1v-1V9.75V6h-1.484c-1.138,0-1.138-1,0-1H13h0.992H14z M10.85,3.229L8.821,1.15
	C8.819,1.148,8.816,1.147,8.813,1.146C8.769,1.101,8.664,1.064,8.605,1.039C8.552,1.018,8.596,1.01,8.541,1.006
	C8.529,1.006,8.52,1,8.509,1C8.501,1,8.495,1.004,8.487,1.004c-0.06,0.003-0.09,0.014-0.146,0.035
	C8.29,1.061,8.247,1.094,8.206,1.129C8.196,1.137,8.183,1.141,8.174,1.15L6.097,3.229c-0.201,0.2-0.109,0.525,0.092,0.725
	c0.2,0.201,0.525,0.201,0.726,0l1.109-1.201l0.001,6.714c0,0.293,0.2,0.531,0.483,0.53c0.283,0.001,0.464-0.237,0.464-0.531V2.752
	l1.243,1.201c0.201,0.201,0.525,0.201,0.727,0c0.1-0.1,0.059-0.23,0.059-0.362S10.949,3.328,10.85,3.229z"/>
</svg>
