<?xml version="1.0" encoding="utf-8"?>
<!-- Generator: Adobe Illustrator 16.0.0, SVG Export Plug-In . SVG Version: 6.00 Build 0)  -->
<!DOCTYPE svg PUBLIC "-//W3C//DTD SVG 1.1//EN" "http://www.w3.org/Graphics/SVG/1.1/DTD/svg11.dtd">
<svg version="1.1" id="Layer_1" xmlns="http://www.w3.org/2000/svg" xmlns:xlink="http://www.w3.org/1999/xlink" x="0px" y="0px"
	 width="16px" height="16px" viewBox="0 0 16 16" enable-background="new 0 0 16 16" xml:space="preserve">
<path fill="#231F20" d="M11.5,9C10.702,9,10,9.381,9.543,9.962L6.906,8.644C6.961,8.437,7,8.224,7,8S6.961,7.563,6.906,7.356
	l2.637-1.318C10,6.62,10.702,7,11.5,7C12.881,7,14,5.881,14,4.5S12.881,2,11.5,2S9,3.119,9,4.5c0,0.224,0.039,0.437,0.094,0.644
	L6.458,6.462C6,5.88,5.298,5.5,4.5,5.5C3.119,5.5,2,6.619,2,8s1.119,2.5,2.5,2.5c0.798,0,1.5-0.381,1.958-0.962l2.636,1.318
	C9.039,11.062,9,11.276,9,11.5c0,1.381,1.119,2.5,2.5,2.5s2.5-1.119,2.5-2.5S12.881,9,11.5,9z M11.5,3C12.327,3,13,3.673,13,4.5
	S12.327,6,11.5,6S10,5.327,10,4.5S10.673,3,11.5,3z M4.5,9.5C3.673,9.5,3,8.827,3,8s0.673-1.5,1.5-1.5S6,7.173,6,8
	S5.327,9.5,4.5,9.5z M11.5,13c-0.827,0-1.5-0.673-1.5-1.5s0.673-1.5,1.5-1.5s1.5,0.673,1.5,1.5S12.327,13,11.5,13z"/>
</svg>
