<?xml version="1.0" encoding="utf-8"?>
<!-- Generator: Adobe Illustrator 16.0.0, SVG Export Plug-In . SVG Version: 6.00 Build 0)  -->
<!DOCTYPE svg PUBLIC "-//W3C//DTD SVG 1.1//EN" "http://www.w3.org/Graphics/SVG/1.1/DTD/svg11.dtd">
<svg version="1.1" id="Layer_1" xmlns="http://www.w3.org/2000/svg" xmlns:xlink="http://www.w3.org/1999/xlink" x="0px" y="0px"
	 width="16px" height="16px" viewBox="0 0 16 16" enable-background="new 0 0 16 16" xml:space="preserve">
<path fill="#010101" d="M11.024,1H1.487C1.197,1,1,1.197,1,1.438v12.125C1,13.803,1.197,14,1.438,14h12.125
	C13.803,14,14,13.803,14,13.562V4L11.024,1z M7,8v2H5V8H7z M5,7V5h2v2H5z M8,8h2v2H8V8z M8,7V5h2v2H8z M10,2v2H8V2H10z M7,2v2H5V2H7
	z M2,2h2v2H2V2z M2,5h2v2H2V5z M2,8h2v2H2V8z M2,13v-2h2v2H2z M5,13v-2h2v2H5z M8,13v-2h2v2H8z M13,13h-2v-2h2V13z M13,10h-2V8h2V10
	z M13,7h-2V5h2V7z M11,4V2l2,2H11z"/>
</svg>
