<?xml version="1.0" encoding="utf-8"?>
<!-- Generator: Adobe Illustrator 16.0.0, SVG Export Plug-In . SVG Version: 6.00 Build 0)  -->
<!DOCTYPE svg PUBLIC "-//W3C//DTD SVG 1.1//EN" "http://www.w3.org/Graphics/SVG/1.1/DTD/svg11.dtd">
<svg version="1.1" id="Layer_1" xmlns="http://www.w3.org/2000/svg" xmlns:xlink="http://www.w3.org/1999/xlink" x="0px" y="0px"
	 width="16px" height="16px" viewBox="0 0 16 16" enable-background="new 0 0 16 16" xml:space="preserve">
<path fill="#010101" d="M13.562,14H1.438C1.197,14,1,13.803,1,13.562V1.438C1,1.197,1.197,1,1.487,1h9.537L14,4v9.562
	C14,13.803,13.803,14,13.562,14z M11,2v2h2L11,2z M13,5h-2.976V2H2v11h11V5z M4,4H3v1h1V4z M8,4.5C8,4.224,7.776,4,7.5,4h-2
	C5.224,4,5,4.224,5,4.5l0,0C5,4.776,5.224,5,5.5,5h2C7.776,5,8,4.776,8,4.5L8,4.5z M4,7H3v1h1V7z M11,7.5C11,7.224,10.776,7,10.5,7
	h-5C5.224,7,5,7.224,5,7.5l0,0C5,7.776,5.224,8,5.5,8h5C10.776,8,11,7.776,11,7.5L11,7.5z M4,10H3v1h1V10z M11,10.5
	c0-0.276-0.224-0.5-0.5-0.5h-5C5.224,10,5,10.224,5,10.5l0,0C5,10.776,5.224,11,5.5,11h5C10.776,11,11,10.776,11,10.5L11,10.5z"/>
</svg>
