<?xml version="1.0" encoding="utf-8"?>
<!-- Generator: Adobe Illustrator 16.0.0, SVG Export Plug-In . SVG Version: 6.00 Build 0)  -->
<!DOCTYPE svg PUBLIC "-//W3C//DTD SVG 1.1//EN" "http://www.w3.org/Graphics/SVG/1.1/DTD/svg11.dtd">
<svg version="1.1" id="Layer_1" xmlns="http://www.w3.org/2000/svg" xmlns:xlink="http://www.w3.org/1999/xlink" x="0px" y="0px"
	 width="16px" height="16px" viewBox="0 0 16 16" enable-background="new 0 0 16 16" xml:space="preserve">
<path fill="#010101" d="M8.256,12.562l3.5,2.338c0.099,0.067,0.211,0.1,0.32,0.1c0.182,0,0.36-0.086,0.471-0.248
	c0.178-0.259,0.11-0.612-0.149-0.79l-3.114-1.991h4.17c0.314,0,0.547-0.254,0.547-0.568v-8.42h0.41c0.314,0,0.568-0.154,0.568-0.469
	c0-0.313-0.254-0.468-0.568-0.468H9V1.624C8.998,1.293,8.966,1.155,8.681,1.056c-0.261-0.06-1.026,0-1.198,0
	c-0.313,0-0.419,0.254-0.419,0.568v0.421H1.568C1.256,2.045,1,2.2,1,2.514c0,0.314,0.256,0.469,0.568,0.469h0.46v8.42
	c0,0.314,0.254,0.568,0.568,0.568h4.522l-3.163,1.991c-0.258,0.178-0.325,0.531-0.148,0.79C3.918,14.914,4.096,15,4.277,15
	c0.11,0,0.222-0.032,0.319-0.1L8.256,12.562z M13.038,11H3V2.982h10.038V11z M11,8.676C11,8.855,11.146,9,11.324,9h0.352
	C11.855,9,12,8.855,12,8.676V5.434c0-0.18-0.145-0.325-0.324-0.325h-0.352C11.146,5.109,11,5.254,11,5.434V8.676z M9,7.361v1.314
	C9,8.855,9.146,9,9.326,9h0.349C9.854,9,10,8.855,10,8.676V7.361c0-0.18-0.146-0.325-0.325-0.325H9.326C9.146,7.036,9,7.182,9,7.361
	z M5.857,9C4.868,9,4,8.115,4,7.108C4,6.12,4.757,5.285,5.708,5.285c0.079,0,0.14,0.064,0.14,0.144c0,0,0,1.389,0,1.529
	C5.848,7.098,6,7.109,6,7.109h1.571c0.08,0,0.145,0.061,0.145,0.141C7.716,8.201,6.864,9,5.857,9z M8.114,6.593H6.537
	c-0.073,0-0.132-0.058-0.132-0.132V4.885c0-0.074,0.06-0.134,0.134-0.134c1.007,0,1.71,0.702,1.71,1.709
	C8.249,6.534,8.188,6.593,8.114,6.593z"/>
</svg>
