<?xml version="1.0" encoding="utf-8"?>
<!-- Generator: Adobe Illustrator 16.0.0, SVG Export Plug-In . SVG Version: 6.00 Build 0)  -->
<!DOCTYPE svg PUBLIC "-//W3C//DTD SVG 1.1//EN" "http://www.w3.org/Graphics/SVG/1.1/DTD/svg11.dtd">
<svg version="1.1" id="Layer_1" xmlns="http://www.w3.org/2000/svg" xmlns:xlink="http://www.w3.org/1999/xlink" x="0px" y="0px"
	 width="16px" height="16px" viewBox="0 0 16 16" enable-background="new 0 0 16 16" xml:space="preserve">
<path fill-rule="evenodd" clip-rule="evenodd" fill="#020202" d="M14.564,12l-2.797,2.85c-0.002,0.002-0.006,0.003-0.008,0.005
	c-0.045,0.045-0.15,0.081-0.209,0.106c-0.053,0.021-0.01,0.029-0.064,0.033c-0.012,0-0.021,0.006-0.031,0.006
	c-0.008,0-0.014-0.004-0.021-0.004c-0.061-0.003-0.09-0.014-0.146-0.035c-0.051-0.021-0.094-0.055-0.135-0.09
	c-0.01-0.008-0.023-0.012-0.033-0.021L8.112,12c-0.201-0.2-0.109-0.525,0.093-0.725c0.199-0.201,0.525-0.201,0.725,0L11,13.248
	L11.002,2.53c0-0.293,0.199-0.531,0.482-0.53c0.283-0.001,0.434,0.237,0.434,0.531v10.717l2.012-1.973
	c0.201-0.201,0.525-0.201,0.727,0c0.1,0.1,0.059,0.23,0.059,0.362S14.664,11.9,14.564,12z M5.791,7.018L6.27,8.021
	C6.324,8.141,6.4,8.244,6.5,8.332c0.1,0.086,0.253,0.127,0.46,0.121c0.1,0,0.193-0.014,0.28-0.041
	c0.086-0.027,0.158-0.067,0.215-0.121C7.512,8.236,7.547,8.17,7.56,8.088c0.014-0.08,0-0.178-0.04-0.292L5.44,2.369
	C5.407,2.273,5.335,2.188,5.225,2.112C5.116,2.038,4.967,2,4.781,2C4.593,2,4.446,2.038,4.335,2.112
	c-0.11,0.075-0.182,0.161-0.215,0.257L2.06,7.777C1.967,8.023,1.982,8.197,2.105,8.3C2.229,8.402,2.394,8.453,2.6,8.453
	c0.207,0,0.363-0.044,0.471-0.131C3.177,8.235,3.26,8.12,3.321,7.977L3.76,7.018H5.791z M4.01,6l0.771-2l0.77,2H4.01z M2.951,10
	c-0.134,0-0.253,0.036-0.36,0.107c-0.106,0.072-0.159,0.191-0.159,0.356c0,0.171,0.057,0.291,0.17,0.36s0.229,0.104,0.35,0.104h2.62
	l-3.38,3.504c-0.073,0.091-0.11,0.174-0.11,0.248c0,0.08,0.047,0.154,0.141,0.221C2.314,14.967,2.424,15,2.55,15h4.211
	c0.119,0,0.236-0.035,0.35-0.104c0.113-0.07,0.17-0.189,0.17-0.36c0-0.165-0.054-0.284-0.16-0.356s-0.227-0.107-0.359-0.107h-2.86
	l3.39-3.504c0.094-0.117,0.141-0.217,0.141-0.297c0-0.063-0.044-0.125-0.131-0.184C7.214,10.029,7.118,10,7.011,10H2.951z"/>
</svg>
