<?xml version="1.0" encoding="utf-8"?>
<!-- Generator: Adobe Illustrator 16.0.0, SVG Export Plug-In . SVG Version: 6.00 Build 0)  -->
<!DOCTYPE svg PUBLIC "-//W3C//DTD SVG 1.1//EN" "http://www.w3.org/Graphics/SVG/1.1/DTD/svg11.dtd">
<svg version="1.1" id="Layer_1" xmlns="http://www.w3.org/2000/svg" xmlns:xlink="http://www.w3.org/1999/xlink" x="0px" y="0px"
	 width="16px" height="16px" viewBox="0 0 16 16" enable-background="new 0 0 16 16" xml:space="preserve">
<path fill="#020202" d="M1,6v6v3h3v-3V6V1H1V6z M3,7v4H2V7H3z M5,9v5v1h3v-1V9V4H5V9z M7,10v3H6v-3H7z M9,5v6v4h3v-4V5V2H9V5z M11,6
	v4h-1V6H11z M13,6v3v5v1h3v-1V9V6H13z M15,10v3h-1v-3H15z"/>
</svg>
