<?xml version="1.0" encoding="utf-8"?>
<!-- Generator: Adobe Illustrator 19.0.0, SVG Export Plug-In . SVG Version: 6.00 Build 0)  -->
<svg version="1.1" id="Layer_1" xmlns="http://www.w3.org/2000/svg" xmlns:xlink="http://www.w3.org/1999/xlink" x="0px" y="0px"
	 viewBox="-3 5 16 16" style="enable-background:new -3 5 16 16;" xml:space="preserve">
<path d="M12,11.4c-0.1-0.3-0.3-0.5-0.6-0.5l-3.9-0.6l2.4-2.4c0.2-0.2,0.2-0.5,0-0.7S9.3,7,9.1,7.2L7,9.3L5.7,6.7
	C5.6,6.5,5.3,6.3,5,6.3c-0.3,0-0.6,0.2-0.7,0.4l-1.7,3.5l-3.9,0.6c-0.3,0-0.5,0.2-0.6,0.5c-0.1,0.3,0,0.6,0.2,0.8l2.8,2.7L1,15.3
	l-2.3,2.3c-0.2,0.2-0.2,0.5,0,0.7c0.1,0.1,0.2,0.1,0.4,0.1s0.3,0,0.4-0.1L0.7,17l-0.3,1.8c0,0.3,0.1,0.6,0.3,0.8
	c0.1,0.1,0.3,0.1,0.5,0.1c0.1,0,0.2,0,0.4-0.1L5,17.8l3.5,1.8c0.1,0.1,0.2,0.1,0.4,0.1c0.2,0,0.3-0.1,0.5-0.1
	c0.2-0.2,0.4-0.5,0.3-0.8L9,14.9l2.8-2.7C12,12,12.1,11.6,12,11.4z M1.7,14.2l-2.5-2.4l3.5-0.5l0.5-0.1l0.2-0.5L5,7.6l1.2,2.5
	l-4.3,4.3L1.7,14.2z M8.3,14.2l-0.4,0.4L8,15.1l0.6,3.4l-3.1-1.6L5,16.6l-0.5,0.2l-3.1,1.6l0.5-2.7L6.7,11l0.1,0.2l0.5,0.1l3.5,0.5
	L8.3,14.2z"/>
</svg>
