<?xml version="1.0" encoding="utf-8"?>
<!-- Generator: Adobe Illustrator 16.0.0, SVG Export Plug-In . SVG Version: 6.00 Build 0)  -->
<!DOCTYPE svg PUBLIC "-//W3C//DTD SVG 1.1//EN" "http://www.w3.org/Graphics/SVG/1.1/DTD/svg11.dtd">
<svg version="1.1" id="Layer_1" xmlns="http://www.w3.org/2000/svg" xmlns:xlink="http://www.w3.org/1999/xlink" x="0px" y="0px"
	 width="16px" height="16px" viewBox="0 0 16 16" enable-background="new 0 0 16 16" xml:space="preserve">
<path d="M8,2.575l1.545,3.131l0.232,0.473l0.521,0.075l3.455,0.502l-2.5,2.438l-0.376,0.365l0.089,0.519l0.589,3.44l-3.089-1.625
	L8,11.648l-0.466,0.244l-3.089,1.625l0.591-3.441l0.089-0.518L4.748,9.191L2.247,6.756l3.455-0.502l0.521-0.075l0.232-0.473L8,2.575
	 M8,1.305c-0.299,0-0.571,0.169-0.703,0.437L5.559,5.265L1.672,5.829c-0.296,0.043-0.541,0.25-0.634,0.533
	C0.946,6.646,1.022,6.958,1.236,7.167L4.05,9.908l-0.665,3.871c-0.05,0.293,0.069,0.592,0.312,0.768
	c0.138,0.098,0.299,0.148,0.462,0.148c0.124,0,0.25-0.029,0.364-0.09L8,12.777l3.477,1.828c0.115,0.061,0.24,0.09,0.365,0.09
	c0.162,0,0.324-0.051,0.461-0.148c0.242-0.176,0.361-0.475,0.312-0.768l-0.663-3.871l2.812-2.741
	c0.215-0.209,0.291-0.521,0.198-0.805c-0.092-0.283-0.338-0.49-0.633-0.533l-3.888-0.564L8.704,1.741
	C8.57,1.474,8.299,1.305,8,1.305L8,1.305z"/>
</svg>
