<?xml version="1.0" encoding="utf-8"?>
<!-- Generator: Adobe Illustrator 16.0.0, SVG Export Plug-In . SVG Version: 6.00 Build 0)  -->
<!DOCTYPE svg PUBLIC "-//W3C//DTD SVG 1.1//EN" "http://www.w3.org/Graphics/SVG/1.1/DTD/svg11.dtd">
<svg version="1.1" id="Layer_1" xmlns="http://www.w3.org/2000/svg" xmlns:xlink="http://www.w3.org/1999/xlink" x="0px" y="0px"
	 width="16px" height="16px" viewBox="0 0 16 16" enable-background="new 0 0 16 16" xml:space="preserve">
<path fill="#020202" d="M8,4H7V3h1V4z M8,5H7v1h1V5z M8,7H7v1h1V7z M8,9H7v1h1V9z M8,11H7v1h1V11z M4,7H3v1h1V7z M6,7H5v1h1V7z
	 M10,7H9v1h1V7z M12,7h-1v1h1V7z M13,2H2v11h11V2 M13,1c0.553,0,1,0.447,1,1v11c0,0.553-0.447,1-1,1H2c-0.552,0-1-0.447-1-1V2
	c0-0.553,0.448-1,1-1H13L13,1z"/>
</svg>
