<?xml version="1.0" encoding="utf-8"?>
<!-- Generator: Adobe Illustrator 16.0.0, SVG Export Plug-In . SVG Version: 6.00 Build 0)  -->
<!DOCTYPE svg PUBLIC "-//W3C//DTD SVG 1.1//EN" "http://www.w3.org/Graphics/SVG/1.1/DTD/svg11.dtd">
<svg version="1.1" id="Layer_1" xmlns="http://www.w3.org/2000/svg" xmlns:xlink="http://www.w3.org/1999/xlink" x="0px" y="0px"
	 width="24px" height="24px" viewBox="0 0 24 24" enable-background="new 0 0 24 24" xml:space="preserve">
<path d="M6.26,18.531c0,1.357-1.102,2.459-2.46,2.459c-1.357,0-2.458-1.102-2.458-2.459s1.101-2.458,2.458-2.458
	C5.158,16.073,6.26,17.174,6.26,18.531z M14.88,20.945C14.41,14.168,8,8.859,2,8.859v1.25c6,0,11.196,4.798,11.621,10.923
	L14.88,20.945z M21.342,20.951C20.713,10.758,12.547,2.598,2.348,1.968L2.27,3.215c9.572,0.592,17.234,8.249,17.824,17.813
	L21.342,20.951z"/>
</svg>
