<?xml version="1.0" encoding="utf-8"?>
<!-- Generator: Adobe Illustrator 16.0.0, SVG Export Plug-In . SVG Version: 6.00 Build 0)  -->
<!DOCTYPE svg PUBLIC "-//W3C//DTD SVG 1.1//EN" "http://www.w3.org/Graphics/SVG/1.1/DTD/svg11.dtd">
<svg version="1.1" id="Layer_1" xmlns="http://www.w3.org/2000/svg" xmlns:xlink="http://www.w3.org/1999/xlink" x="0px" y="0px"
	 width="16px" height="16px" viewBox="0 0 16 16" enable-background="new 0 0 16 16" xml:space="preserve">
<path fill="#010101" d="M13.4,13.643h-11c-0.231,0-0.441-0.132-0.541-0.34c-0.1-0.209-0.071-0.456,0.073-0.636l3.74-4.653
	L1.932,3.322C1.788,3.142,1.76,2.896,1.86,2.688s0.31-0.34,0.541-0.34h11c0.332,0,0.6,0.269,0.6,0.6s-0.268,0.6-0.6,0.6H3.647
	l3.264,4.093c0.175,0.219,0.174,0.531-0.001,0.75l-3.257,4.052H13.4c0.332,0,0.6,0.269,0.6,0.6S13.732,13.643,13.4,13.643z M9.4,5.5
	c0-0.276-0.223-0.5-0.5-0.5l0,0c-0.276,0-0.5,0.224-0.5,0.5l0,0c0,0.276,0.224,0.5,0.5,0.5l0,0C9.178,6,9.4,5.776,9.4,5.5L9.4,5.5z
	 M11.4,5.5c0-0.276-0.223-0.5-0.5-0.5l0,0c-0.275,0-0.5,0.224-0.5,0.5l0,0c0,0.276,0.225,0.5,0.5,0.5l0,0
	C11.178,6,11.4,5.776,11.4,5.5L11.4,5.5z M13.4,5.5c0-0.276-0.223-0.5-0.5-0.5l0,0c-0.275,0-0.5,0.224-0.5,0.5l0,0
	c0,0.276,0.225,0.5,0.5,0.5l0,0C13.178,6,13.4,5.776,13.4,5.5L13.4,5.5z M9.4,7.5c0-0.276-0.223-0.5-0.5-0.5l0,0
	c-0.276,0-0.5,0.224-0.5,0.5l0,0c0,0.276,0.224,0.5,0.5,0.5l0,0C9.178,8,9.4,7.776,9.4,7.5L9.4,7.5z M11.4,7.5
	c0-0.276-0.223-0.5-0.5-0.5l0,0c-0.275,0-0.5,0.224-0.5,0.5l0,0c0,0.276,0.225,0.5,0.5,0.5l0,0C11.178,8,11.4,7.776,11.4,7.5
	L11.4,7.5z M13.4,7.5c0-0.276-0.223-0.5-0.5-0.5l0,0c-0.275,0-0.5,0.224-0.5,0.5l0,0c0,0.276,0.225,0.5,0.5,0.5l0,0
	C13.178,8,13.4,7.776,13.4,7.5L13.4,7.5z M8.401,10c0,0.553,0.447,1,1,1h3c0.553,0,1-0.447,1-1l0,0c0-0.553-0.447-1-1-1h-3
	C8.848,9,8.401,9.447,8.401,10L8.401,10z"/>
</svg>
