<?xml version="1.0" encoding="utf-8"?>
<!-- Generator: Adobe Illustrator 16.0.0, SVG Export Plug-In . SVG Version: 6.00 Build 0)  -->
<!DOCTYPE svg PUBLIC "-//W3C//DTD SVG 1.1//EN" "http://www.w3.org/Graphics/SVG/1.1/DTD/svg11.dtd">
<svg version="1.1" id="Layer_1" xmlns="http://www.w3.org/2000/svg" xmlns:xlink="http://www.w3.org/1999/xlink" x="0px" y="0px"
	 width="16px" height="16px" viewBox="0 0 16 16" enable-background="new 0 0 16 16" xml:space="preserve">
<path fill="#010101" d="M0.186,6.769c0.249-0.247,0.65-0.247,0.898,0L2.32,8.006V8c0-3.772,3.067-6.84,6.84-6.84
	C12.932,1.16,16,4.228,16,8c0,3.771-3.068,6.838-6.84,6.84c-1.828,0-3.546-0.711-4.837-2.004c-0.247-0.248-0.247-0.648,0-0.896
	c0.248-0.248,0.649-0.248,0.896,0C6.273,12.99,7.672,13.57,9.16,13.57c3.071,0,5.57-2.498,5.57-5.57c0-3.073-2.499-5.571-5.57-5.571
	C6.087,2.429,3.589,4.927,3.589,8v0.006l1.235-1.237c0.249-0.248,0.65-0.248,0.898,0c0.247,0.249,0.247,0.65,0,0.898l-2.318,2.32
	c-0.121,0.119-0.281,0.186-0.449,0.186s-0.33-0.066-0.449-0.186l-2.32-2.32C-0.062,7.418-0.062,7.018,0.186,6.769z M11.035,9.602
	L9.541,8.109V5.164c0-0.327-0.256-0.594-0.571-0.593c-0.314,0-0.571,0.265-0.571,0.593v3.148c0,0.091,0.023,0.175,0.059,0.252
	c0.03,0.076,0.073,0.148,0.136,0.21l1.634,1.636c0.23,0.232,0.602,0.238,0.824,0.016C11.273,10.201,11.268,9.83,11.035,9.602z"/>
</svg>
