<?xml version="1.0" encoding="utf-8"?>
<!-- Generator: Adobe Illustrator 16.0.0, SVG Export Plug-In . SVG Version: 6.00 Build 0)  -->
<!DOCTYPE svg PUBLIC "-//W3C//DTD SVG 1.1//EN" "http://www.w3.org/Graphics/SVG/1.1/DTD/svg11.dtd">
<svg version="1.1" id="Layer_1" xmlns="http://www.w3.org/2000/svg" xmlns:xlink="http://www.w3.org/1999/xlink" x="0px" y="0px"
	 width="16px" height="16px" viewBox="0 0 16 16" enable-background="new 0 0 16 16" xml:space="preserve">
<path fill="#010101" d="M12.697,5.246c-0.247,0.181-0.593,0.126-0.773-0.12c-0.769-1.051-1.897-1.739-3.185-1.94
	c-0.3-0.047-0.597-0.057-0.891-0.049C7.724,3.142,7.603,3.159,7.48,3.172C7.3,3.191,7.119,3.213,6.943,3.251
	C6.788,3.286,6.64,3.334,6.491,3.383C6.359,3.426,6.229,3.468,6.103,3.521C5.921,3.599,5.748,3.689,5.579,3.787
	C5.501,3.832,5.423,3.875,5.347,3.924C5.146,4.055,4.956,4.2,4.778,4.358c-0.03,0.026-0.061,0.053-0.091,0.08
	c-0.202,0.189-0.392,0.393-0.56,0.614C4.127,5.053,4.126,5.055,4.125,5.056C3.593,5.76,3.245,6.611,3.159,7.539
	c-0.014,0.149-0.021,0.3-0.021,0.454v0.005l1.08-1.082c0.218-0.217,0.569-0.217,0.785,0c0.216,0.217,0.216,0.568,0,0.785
	L2.977,9.729C2.871,9.834,2.73,9.893,2.584,9.893S2.296,9.834,2.192,9.729l-2.03-2.029c-0.216-0.216-0.216-0.567,0-0.785
	c0.219-0.216,0.569-0.216,0.785,0l1.082,1.082V7.992c0-0.255,0.016-0.507,0.047-0.754c0.029-0.233,0.095-0.455,0.15-0.68
	C2.235,6.524,2.241,6.489,2.25,6.456c0.048-0.181,0.103-0.358,0.167-0.532c0.071-0.197,0.152-0.39,0.243-0.576
	C2.724,5.222,2.793,5.1,2.864,4.979C2.987,4.767,3.117,4.562,3.264,4.37c0.056-0.072,0.115-0.139,0.174-0.208
	c0.17-0.204,0.35-0.397,0.544-0.576c0.04-0.037,0.08-0.074,0.122-0.11C4.329,3.28,4.569,3.104,4.821,2.943
	c0.036-0.022,0.069-0.048,0.105-0.07c0.267-0.162,0.549-0.298,0.84-0.416C5.812,2.438,5.858,2.417,5.905,2.4
	c0.287-0.109,0.587-0.193,0.893-0.255c0.06-0.012,0.118-0.025,0.179-0.035c0.298-0.052,0.601-0.08,0.91-0.085
	c0.041,0,0.08-0.011,0.122-0.011v0.012c0.298,0.001,0.6,0.018,0.902,0.065c1.579,0.246,2.968,1.093,3.907,2.383
	C12.999,4.72,12.944,5.067,12.697,5.246z M3.183,11.527c0.938,1.291,2.327,2.138,3.906,2.383c0.303,0.048,0.604,0.064,0.902,0.065
	v0.012c0.042,0,0.081-0.011,0.122-0.011c0.31-0.006,0.612-0.034,0.91-0.086c0.061-0.01,0.119-0.023,0.179-0.035
	c0.306-0.062,0.605-0.146,0.893-0.256c0.047-0.018,0.093-0.038,0.139-0.057c0.291-0.119,0.573-0.255,0.84-0.416
	c0.036-0.022,0.069-0.048,0.105-0.07c0.252-0.16,0.492-0.337,0.718-0.532c0.042-0.036,0.082-0.073,0.122-0.11
	c0.194-0.178,0.374-0.372,0.544-0.576c0.059-0.068,0.118-0.135,0.174-0.207c0.146-0.193,0.276-0.398,0.399-0.609
	c0.071-0.121,0.141-0.243,0.204-0.369c0.091-0.187,0.172-0.379,0.243-0.576c0.064-0.174,0.119-0.352,0.167-0.532
	c0.009-0.033,0.015-0.067,0.023-0.103c0.056-0.225,0.121-0.446,0.15-0.68c0.031-0.247,0.047-0.499,0.047-0.754V8.002l1.081,1.082
	c0.217,0.217,0.567,0.217,0.786,0c0.216-0.218,0.216-0.568,0-0.785l-2.03-2.029c-0.104-0.104-0.245-0.163-0.392-0.163
	s-0.287,0.059-0.393,0.163l-2.027,2.029c-0.216,0.216-0.216,0.567,0,0.785c0.216,0.217,0.567,0.217,0.785,0l1.08-1.082v0.005
	c0,0.153-0.007,0.304-0.021,0.454c-0.086,0.927-0.434,1.779-0.966,2.482c-0.001,0.002-0.002,0.004-0.003,0.004
	c-0.168,0.222-0.357,0.426-0.56,0.614c-0.03,0.027-0.061,0.054-0.091,0.08c-0.178,0.159-0.368,0.304-0.568,0.435
	c-0.076,0.049-0.154,0.092-0.232,0.137c-0.169,0.098-0.342,0.188-0.523,0.266c-0.126,0.054-0.257,0.096-0.389,0.139
	c-0.148,0.049-0.297,0.097-0.452,0.131c-0.176,0.039-0.356,0.061-0.537,0.08c-0.122,0.013-0.243,0.03-0.368,0.035
	c-0.294,0.008-0.591-0.002-0.891-0.049c-1.287-0.201-2.416-0.89-3.185-1.94c-0.181-0.247-0.526-0.301-0.773-0.12
	C3.056,10.933,3.001,11.28,3.183,11.527z"/>
</svg>
