<?xml version="1.0" encoding="utf-8"?>
<!-- Generator: Adobe Illustrator 16.0.0, SVG Export Plug-In . SVG Version: 6.00 Build 0)  -->
<!DOCTYPE svg PUBLIC "-//W3C//DTD SVG 1.1//EN" "http://www.w3.org/Graphics/SVG/1.1/DTD/svg11.dtd">
<svg version="1.1" id="Layer_1" xmlns="http://www.w3.org/2000/svg" xmlns:xlink="http://www.w3.org/1999/xlink" x="0px" y="0px"
	 width="16px" height="16px" viewBox="0 0 16 16" enable-background="new 0 0 16 16" xml:space="preserve">
<path fill="#231F20" d="M12,3v2c0,0.552,0.447,1,1,1h2v7H2V3H12 M13,2H1v12h15V5h-3V2L13,2z M16,2h-2v2h2V2z M3,8h1v4h1V8h1V7H3V8z
	 M7,8h2v1H7v1v1v1h1h2v-1v-1V9V8V7H7V8z M9,11H8v-1h1V11z M12,9V7h-1v5h1h1h1v-1v-1V9H12z M13,11h-1v-1h1V11z"/>
</svg>
