<?xml version="1.0" encoding="utf-8"?>
<!-- Generator: Adobe Illustrator 16.0.0, SVG Export Plug-In . SVG Version: 6.00 Build 0)  -->
<!DOCTYPE svg PUBLIC "-//W3C//DTD SVG 1.1//EN" "http://www.w3.org/Graphics/SVG/1.1/DTD/svg11.dtd">
<svg version="1.1" id="Layer_1" xmlns="http://www.w3.org/2000/svg" xmlns:xlink="http://www.w3.org/1999/xlink" x="0px" y="0px"
	 width="16px" height="16px" viewBox="0 0 16 16" enable-background="new 0 0 16 16" xml:space="preserve">
<path fill-rule="evenodd" clip-rule="evenodd" d="M14.5,1h-13C1.224,1,1,1.224,1,1.5v12C1,13.775,1.224,14,1.5,14h13
	c0.276,0,0.5-0.225,0.5-0.5v-12C15,1.224,14.776,1,14.5,1z M7,6h7v3H7V6z M6,9H2V6h4V9z M7,5V2h7v3H7z M6,5H2V2h4V5z M2,10h4v3H2V10
	z M7,10h7v3H7V10z"/>
</svg>
