<?xml version="1.0" encoding="utf-8"?>
<!-- Generator: Adobe Illustrator 16.0.0, SVG Export Plug-In . SVG Version: 6.00 Build 0)  -->
<!DOCTYPE svg PUBLIC "-//W3C//DTD SVG 1.1//EN" "http://www.w3.org/Graphics/SVG/1.1/DTD/svg11.dtd">
<svg version="1.1" id="Layer_1" xmlns="http://www.w3.org/2000/svg" xmlns:xlink="http://www.w3.org/1999/xlink" x="0px" y="0px"
	 width="16px" height="16px" viewBox="0 0 16 16" enable-background="new 0 0 16 16" xml:space="preserve">
<path fill="#666666" d="M14.5,7h-1.551C12.711,4.647,10.853,2.789,8.5,2.551V1.5C8.5,1.224,8.276,1,8,1S7.5,1.224,7.5,1.5v1.051
	C5.147,2.789,3.289,4.647,3.051,7H1.5C1.224,7,1,7.224,1,7.5S1.224,8,1.5,8h1.551c0.238,2.353,2.097,4.211,4.449,4.449V14.5
	C7.5,14.776,7.724,15,8,15s0.5-0.224,0.5-0.5v-2.051c2.353-0.238,4.211-2.097,4.449-4.449H14.5C14.776,8,15,7.776,15,7.5
	S14.776,7,14.5,7z M11.949,7H8.5V3.55C10.305,3.778,11.722,5.196,11.949,7z M7.5,3.55V7H4.05C4.278,5.196,5.696,3.778,7.5,3.55z
	 M4.05,8H7.5v3.45C5.696,11.222,4.278,9.804,4.05,8z M8.5,11.45V8h3.449C11.722,9.804,10.305,11.222,8.5,11.45z"/>
</svg>
