<?xml version="1.0" encoding="utf-8"?>
<!-- Generator: Adobe Illustrator 16.0.0, SVG Export Plug-In . SVG Version: 6.00 Build 0)  -->
<!DOCTYPE svg PUBLIC "-//W3C//DTD SVG 1.1//EN" "http://www.w3.org/Graphics/SVG/1.1/DTD/svg11.dtd">
<svg version="1.1" id="Layer_1" xmlns="http://www.w3.org/2000/svg" xmlns:xlink="http://www.w3.org/1999/xlink" x="0px" y="0px"
	 width="16px" height="16px" viewBox="0 0 16 16" enable-background="new 0 0 16 16" xml:space="preserve">
<path fill="#020202" d="M15,4V1h-3v1H3V1H0v3h1v8H0v3h3v-1h9v1h3v-3h-1V4H15z M13,2h1v1h-1V2z M1,2h1v1H1V2z M1,14v-1h1v1H1z M14,14
	h-1v-1h1V14z M13,12h-1v1H3v-1H2V4h1V3h9v1h1V12z M11,5.5C11,5.776,10.776,6,10.5,6H8v4.5C8,10.776,7.776,11,7.5,11S7,10.776,7,10.5
	V6H4.5C4.224,6,4,5.776,4,5.5S4.224,5,4.5,5h6C10.776,5,11,5.224,11,5.5z"/>
</svg>
