<?xml version="1.0" encoding="utf-8"?>
<!-- Generator: Adobe Illustrator 16.0.0, SVG Export Plug-In . SVG Version: 6.00 Build 0)  -->
<!DOCTYPE svg PUBLIC "-//W3C//DTD SVG 1.1//EN" "http://www.w3.org/Graphics/SVG/1.1/DTD/svg11.dtd">
<svg version="1.1" id="Layer_1" xmlns="http://www.w3.org/2000/svg" xmlns:xlink="http://www.w3.org/1999/xlink" x="0px" y="0px"
	 width="16px" height="16px" viewBox="0 0 16 16" enable-background="new 0 0 16 16" xml:space="preserve">
<path fill-rule="evenodd" clip-rule="evenodd" fill="#020202" d="M8.016,1c-3.865,0-7,3.134-7,7c0,3.865,3.135,7,7,7
	c3.866,0,7-3.135,7-7C15.016,4.134,11.882,1,8.016,1z M8.015,14c-3.313,0-6-2.686-6-6c0-3.314,2.687-6,6-6s6,2.687,6,6
	C14.015,11.314,11.328,14,8.015,14z M11.612,8.038c0.001,0.355-0.298,0.642-0.665,0.642l-2.946,0c-0.004,0-0.008-0.002-0.012-0.002
	c-0.004,0-0.007,0.002-0.011,0.002c-0.16,0.001-0.301-0.065-0.414-0.166c-0.012-0.01-0.027-0.016-0.038-0.026
	c-0.013-0.013-0.02-0.031-0.031-0.044c-0.096-0.112-0.161-0.25-0.161-0.406c0-0.004,0.002-0.007,0.002-0.011
	c0-0.004-0.002-0.008-0.002-0.012V4.068c0-0.368,0.288-0.667,0.644-0.666C8.333,3.401,8.619,3.7,8.619,4.067L8.62,7.395h2.326
	C11.314,7.395,11.613,7.683,11.612,8.038z"/>
</svg>
