<?xml version="1.0" encoding="utf-8"?>
<!-- Generator: Adobe Illustrator 16.0.0, SVG Export Plug-In . SVG Version: 6.00 Build 0)  -->
<!DOCTYPE svg PUBLIC "-//W3C//DTD SVG 1.1//EN" "http://www.w3.org/Graphics/SVG/1.1/DTD/svg11.dtd">
<svg version="1.1" id="Layer_1" xmlns="http://www.w3.org/2000/svg" xmlns:xlink="http://www.w3.org/1999/xlink" x="0px" y="0px"
	 width="16px" height="16px" viewBox="0 0 16 16" enable-background="new 0 0 16 16" xml:space="preserve">
<path fill-rule="evenodd" clip-rule="evenodd" fill="#020202" d="M3,7V6h1v1H3z M4,9V8H3v1H4z M4,11v-1H3v1H4z M4,13v-1H3v1H4z
	 M6,15H1.018L1,4h0.014L1,1h13.982L15,5H5.984L6,15z M5,14l0.002-9H1.986L2,14H5z M12.309,6.045
	c-0.059,0.025-0.162,0.062-0.207,0.106c-0.004,0.002-0.006,0.003-0.008,0.005l-1.936,1.975c-0.1,0.1-0.15,0.23-0.15,0.361
	c0,0.133-0.041,0.264,0.059,0.363c0.201,0.201,0.525,0.201,0.727,0l1.24-1.195V8v4h-3.05H8.695l1.167-1.227
	c0.201-0.201,0.201-0.525,0-0.727C9.662,9.846,9.336,9.754,9.137,9.955l-1.975,2.146c-0.01,0.008-0.014,0.021-0.021,0.031
	c-0.035,0.041-0.068,0.084-0.09,0.135c-0.021,0.057-0.031,0.088-0.035,0.146c0,0.008-0.004,0.014-0.004,0.021
	c0,0.012,0.006,0.021,0.006,0.033c0.004,0.055,0.012,0.01,0.033,0.064c0.025,0.059,0.062,0.162,0.107,0.207
	c0.002,0.004,0.002,0.006,0.004,0.008l1.975,1.936c0.1,0.1,0.23,0.15,0.361,0.15c0.133,0,0.264,0.041,0.363-0.059
	c0.201-0.201,0.201-0.525,0-0.727L8.819,13c0.056,0.01,0.106,0.033,0.164,0.033h3.05c0.553,0,0.949-0.48,0.949-1.033V8
	c0-0.076-0.023-0.144-0.039-0.215l1.125,1.07c0.201,0.201,0.525,0.201,0.727,0c0.201-0.199,0.293-0.525,0.092-0.725L12.74,6.156
	c-0.008-0.01-0.021-0.014-0.031-0.021c-0.041-0.035-0.084-0.068-0.135-0.09c-0.057-0.021-0.088-0.032-0.146-0.035
	c-0.008,0-0.014-0.004-0.021-0.004c-0.012,0-0.021,0.006-0.033,0.006C12.318,6.016,12.363,6.023,12.309,6.045z"/>
</svg>
