<?xml version="1.0" encoding="utf-8"?>
<!-- Generator: Adobe Illustrator 16.0.0, SVG Export Plug-In . SVG Version: 6.00 Build 0)  -->
<!DOCTYPE svg PUBLIC "-//W3C//DTD SVG 1.1//EN" "http://www.w3.org/Graphics/SVG/1.1/DTD/svg11.dtd">
<svg version="1.1" id="Layer_1" xmlns="http://www.w3.org/2000/svg" xmlns:xlink="http://www.w3.org/1999/xlink" x="0px" y="0px"
	 width="16px" height="16px" viewBox="0 0 16 16" enable-background="new 0 0 16 16" xml:space="preserve">
<path fill-rule="evenodd" clip-rule="evenodd" fill="#020202" d="M7,13H6v-1h1V13z M9,12H8v1h1V12z M11,12h-1v1h1V12z M13,12h-1v1h1
	V12z M15,10v4.982L4,15v-0.014L1,15V1.017L5,1v9.016L15,10z M14,11l-9-0.002v3.016L14,14V11z M6.045,3.691
	C6.07,3.75,6.106,3.853,6.151,3.898c0.002,0.004,0.003,0.006,0.005,0.008l1.975,1.936c0.1,0.1,0.23,0.15,0.361,0.15
	c0.133,0,0.264,0.041,0.363-0.059c0.201-0.201,0.201-0.525,0-0.727L7.661,3.967H8h4v3.05v0.288l-1.227-1.167
	c-0.201-0.201-0.525-0.201-0.727,0C9.846,6.337,9.754,6.664,9.955,6.863l2.146,1.975c0.008,0.01,0.021,0.014,0.031,0.021
	c0.041,0.035,0.084,0.068,0.135,0.09c0.057,0.021,0.088,0.031,0.146,0.035c0.008,0,0.014,0.004,0.021,0.004
	c0.012,0,0.021-0.006,0.033-0.006c0.055-0.004,0.01-0.012,0.064-0.033c0.059-0.025,0.162-0.062,0.207-0.107
	c0.004-0.002,0.006-0.002,0.008-0.004l1.936-1.975c0.1-0.1,0.15-0.23,0.15-0.361c0-0.133,0.041-0.264-0.059-0.363
	c-0.201-0.201-0.525-0.201-0.727,0l-1.082,1.043C12.977,7.125,13,7.075,13,7.017v-3.05c0-0.553-0.447-0.95-1-0.95H8
	c-0.076,0-0.144,0.024-0.215,0.039l1.07-1.125c0.201-0.201,0.201-0.525,0-0.727C8.656,1.003,8.33,0.912,8.131,1.113L6.156,3.259
	c-0.01,0.008-0.014,0.021-0.021,0.031C6.1,3.332,6.066,3.375,6.045,3.425C6.023,3.482,6.013,3.513,6.01,3.572
	c0,0.008-0.004,0.014-0.004,0.021c0,0.012,0.006,0.021,0.006,0.033C6.016,3.681,6.023,3.636,6.045,3.691z"/>
</svg>
