<?xml version="1.0" encoding="utf-8"?>
<!-- Generator: Adobe Illustrator 16.0.0, SVG Export Plug-In . SVG Version: 6.00 Build 0)  -->
<!DOCTYPE svg PUBLIC "-//W3C//DTD SVG 1.1//EN" "http://www.w3.org/Graphics/SVG/1.1/DTD/svg11.dtd">
<svg version="1.1" id="Layer_1" xmlns="http://www.w3.org/2000/svg" xmlns:xlink="http://www.w3.org/1999/xlink" x="0px" y="0px"
	 width="24px" height="24px" viewBox="0 0 24 24" enable-background="new 0 0 24 24" xml:space="preserve">
<path d="M4,3v1H3V3H4 M5,2H2v3h3V2L5,2z M4,15v1H3v-1H4 M5,14H2v3h3V14L5,14z M17,15v1h-1v-1H17 M18,14h-3v3h3V14L18,14z M17,3v1h-1
	V3H17 M18,2h-3v3h3V2L18,2z M15,3H4v1h11V3z M15,15H4v1h11V15z M4,15V5H3v10H4z M17,15V5h-1v10H17z M8,20v1H7v-1H8 M9,19H6v3h3V19
	L9,19z M21,20v1h-1v-1H21 M22,19h-3v3h3V19L22,19z M21,8v1h-1V8H21 M22,7h-3v3h3V7L22,7z M19,8h-2v1h2V8z M19,20H8v1h11V20z M8,20
	v-4H7v4H8z M21,20V10h-1v10H21z M13,8v2H7V8H13 M13,7H7C6.447,7,6,7.447,6,8v2c0,0.553,0.447,1,1,1h6c0.553,0,1-0.447,1-1V8
	C14,7.447,13.553,7,13,7L13,7z"/>
</svg>
