<?xml version="1.0" encoding="utf-8"?>
<!-- Generator: Adobe Illustrator 16.0.0, SVG Export Plug-In . SVG Version: 6.00 Build 0)  -->
<!DOCTYPE svg PUBLIC "-//W3C//DTD SVG 1.1//EN" "http://www.w3.org/Graphics/SVG/1.1/DTD/svg11.dtd">
<svg version="1.1" id="Layer_1" xmlns="http://www.w3.org/2000/svg" xmlns:xlink="http://www.w3.org/1999/xlink" x="0px" y="0px"
	 width="16px" height="16px" viewBox="0 0 16 16" enable-background="new 0 0 16 16" xml:space="preserve">
<path fill-rule="evenodd" clip-rule="evenodd" fill="#020202" d="M1,1.5C1,1.224,1.224,1,1.5,1h13C14.776,1,15,1.224,15,1.5l0,0
	C15,1.776,14.776,2,14.5,2h-13C1.224,2,1,1.776,1,1.5L1,1.5z M1,13.5C1,13.776,1.224,14,1.5,14h13c0.276,0,0.5-0.224,0.5-0.5l0,0
	c0-0.276-0.224-0.5-0.5-0.5h-13C1.224,13,1,13.224,1,13.5L1,13.5z M5,4.5C5,4.776,5.224,5,5.5,5h9C14.776,5,15,4.776,15,4.5l0,0
	C15,4.224,14.776,4,14.5,4h-9C5.224,4,5,4.224,5,4.5L5,4.5z M5,7.5C5,7.776,5.224,8,5.5,8h9C14.776,8,15,7.776,15,7.5l0,0
	C15,7.224,14.776,7,14.5,7h-9C5.224,7,5,7.224,5,7.5L5,7.5z M5,10.5C5,10.776,5.224,11,5.5,11h9c0.276,0,0.5-0.224,0.5-0.5l0,0
	c0-0.276-0.224-0.5-0.5-0.5h-9C5.224,10,5,10.224,5,10.5L5,10.5z M3.432,9.958L1.1,7.625C1.033,7.559,1,7.48,1,7.391
	s0.033-0.168,0.1-0.234l2.332-2.334c0.067-0.066,0.145-0.098,0.236-0.098c0.089,0,0.166,0.031,0.234,0.098
	C3.968,4.889,4,4.967,4,5.057v4.668c0,0.09-0.032,0.168-0.098,0.233c-0.068,0.067-0.146,0.1-0.234,0.1
	C3.576,10.058,3.499,10.025,3.432,9.958z"/>
</svg>
