<?xml version="1.0" encoding="utf-8"?>
<!-- Generator: Adobe Illustrator 16.0.0, SVG Export Plug-In . SVG Version: 6.00 Build 0)  -->
<!DOCTYPE svg PUBLIC "-//W3C//DTD SVG 1.1//EN" "http://www.w3.org/Graphics/SVG/1.1/DTD/svg11.dtd">
<svg version="1.1" id="Layer_1" xmlns="http://www.w3.org/2000/svg" xmlns:xlink="http://www.w3.org/1999/xlink" x="0px" y="0px"
	 width="16px" height="16px" viewBox="0 0 16 16" enable-background="new 0 0 16 16" xml:space="preserve">
<path fill="#010101" d="M2.349,2.005C2.085,2.089,1.94,2.37,2.023,2.633C2.05,2.716,2.097,2.79,2.161,2.849l1.916,1.913
	C4.222,4.997,4.53,5.07,4.765,4.926C5,4.78,5.073,4.473,4.929,4.237C4.888,4.171,4.831,4.115,4.765,4.074L2.849,2.161
	C2.737,2.04,2.573,1.981,2.411,2.005C2.39,2.003,2.368,2.003,2.349,2.005L2.349,2.005z M6.345,1.009
	c-0.214,0.07-0.355,0.275-0.344,0.5V3.5c0,0.276,0.224,0.5,0.5,0.5s0.498-0.224,0.498-0.5V1.509C7.004,1.233,6.786,1.005,6.51,1
	C6.476,0.999,6.44,1.003,6.407,1.009C6.386,1.007,6.364,1.007,6.345,1.009L6.345,1.009z M1.428,6.002
	C1.152,6.045,0.963,6.304,1.006,6.58C1.049,6.855,1.308,7.043,1.584,7H3.5C3.776,7,4,6.778,4,6.502s-0.224-0.5-0.5-0.5H1.584
	c-0.031-0.003-0.062-0.003-0.094,0C1.469,6,1.447,6,1.428,6.002L1.428,6.002z M12.429,9c-0.277,0.043-0.466,0.22-0.423,0.496
	c0.043,0.275,0.302,0.547,0.578,0.504H14.5c0.276,0,0.5-0.306,0.5-0.582S14.776,9,14.5,9h-1.916c-0.031-0.003-0.062-0.003-0.094,0
	c-0.021-0.002-0.042-0.002-0.063,0H12.429z M9.348,12.009c-0.215,0.07-0.355,0.275-0.345,0.5V14.5c0,0.276,0.224,0.5,0.5,0.5
	S10,14.776,10,14.5v-1.991c0.005-0.275-0.212-0.504-0.488-0.509c-0.034-0.001-0.068,0.003-0.103,0.009
	c-0.021-0.002-0.042-0.002-0.063,0H9.348z M11.348,11.005c-0.264,0.084-0.41,0.365-0.326,0.628c0.026,0.083,0.074,0.157,0.138,0.216
	l1.915,1.913c0.145,0.235,0.452,0.309,0.688,0.164c0.234-0.146,0.308-0.453,0.162-0.688c-0.041-0.066-0.096-0.122-0.162-0.163
	l-1.915-1.913c-0.112-0.121-0.275-0.18-0.438-0.156c-0.021-0.002-0.042-0.002-0.063,0H11.348z M5.312,13.562
	c-0.768,0-1.536-0.292-2.121-0.877c-1.169-1.17-1.169-3.072,0-4.242l1.371-1.371c0.195-0.195,0.512-0.195,0.707,0
	s0.195,0.512,0,0.707L3.897,9.149c-0.78,0.779-0.78,2.049,0,2.828c0.779,0.779,2.049,0.779,2.828,0l1.371-1.371
	c0.195-0.195,0.512-0.195,0.707,0s0.195,0.512,0,0.707l-1.371,1.371C6.848,13.27,6.08,13.562,5.312,13.562z M10.971,8.942
	c-0.128,0-0.256-0.049-0.354-0.146c-0.195-0.195-0.195-0.512,0-0.707l1.371-1.371c0.779-0.78,0.779-2.048,0-2.828
	c-0.779-0.779-2.049-0.779-2.828,0L7.789,5.261c-0.195,0.195-0.512,0.195-0.707,0s-0.195-0.512,0-0.707l1.371-1.371
	c1.17-1.17,3.072-1.17,4.242,0c1.17,1.169,1.17,3.073,0,4.242l-1.371,1.371C11.227,8.894,11.099,8.942,10.971,8.942z"/>
</svg>
