<?xml version="1.0" encoding="utf-8"?>
<!-- Generator: Adobe Illustrator 16.0.0, SVG Export Plug-In . SVG Version: 6.00 Build 0)  -->
<!DOCTYPE svg PUBLIC "-//W3C//DTD SVG 1.1//EN" "http://www.w3.org/Graphics/SVG/1.1/DTD/svg11.dtd">
<svg version="1.1" id="Layer_1" xmlns="http://www.w3.org/2000/svg" xmlns:xlink="http://www.w3.org/1999/xlink" x="0px" y="0px"
	 width="16px" height="16px" viewBox="0 0 16 16" enable-background="new 0 0 16 16" xml:space="preserve">
<path fill="#020202" d="M11,8V7h1v1H11z M10,8V7H9v1H10z M8,8V7H7v1H8z M6,8V7H5v1H6z M4,8V7H3v1H4z M12,2V1h-1v1H12z M10,2V1H9v1
	H10z M8,2V1H7v1H8z M6,2V1H5v1H6z M4,2V1H3v1H4z M12,14v-1h-1v1H12z M10,14v-1H9v1H10z M8,14v-1H7v1H8z M6,14v-1H5v1H6z M4,14v-1H3
	v1H4z M8,4V3H7v1H8z M8,6V5H7v1H8z M8,10V9H7v1H8z M8,12v-1H7v1H8z M2,8V7H1v1H2z M2,2V1H1v1H2z M2,14v-1H1v1H2z M2,4V3H1v1H2z M2,6
	V5H1v1H2z M2,10V9H1v1H2z M2,12v-1H1v1H2z M14,8V7h-1v1H14z M14,2V1h-1v1H14z M14,14v-1h-1v1H14z M14,4V3h-1v1H14z M14,6V5h-1v1H14z
	 M14,10V9h-1v1H14z M14,12v-1h-1v1H14z"/>
</svg>
