<?xml version="1.0" encoding="utf-8"?>
<!-- Generator: Adobe Illustrator 16.0.0, SVG Export Plug-In . SVG Version: 6.00 Build 0)  -->
<!DOCTYPE svg PUBLIC "-//W3C//DTD SVG 1.1//EN" "http://www.w3.org/Graphics/SVG/1.1/DTD/svg11.dtd">
<svg version="1.1" id="Layer_1" xmlns="http://www.w3.org/2000/svg" xmlns:xlink="http://www.w3.org/1999/xlink" x="0px" y="0px"
	 width="16px" height="16px" viewBox="0 0 16 16" enable-background="new 0 0 16 16" xml:space="preserve">
<path d="M12.518,5.819c-0.774-1.917-2.651-3.269-4.843-3.269c-2.784,0-5.056,2.175-5.216,4.918C1.076,7.625,0,8.798,0,10.224
	C0,11.757,1.243,13,2.776,13c0,0,2.075,0,4.081,0v-2.286H4.571L8,6.143l3.429,4.571H9.143V13c1.643,0,3.266,0,3.266,0
	C14.393,13,16,11.391,16,9.408C16,7.461,14.451,5.877,12.518,5.819z"/>
</svg>
