<?xml version="1.0" encoding="utf-8"?>
<!-- Generator: Adobe Illustrator 16.0.0, SVG Export Plug-In . SVG Version: 6.00 Build 0)  -->
<!DOCTYPE svg PUBLIC "-//W3C//DTD SVG 1.1//EN" "http://www.w3.org/Graphics/SVG/1.1/DTD/svg11.dtd">
<svg version="1.1" id="Layer_1" xmlns="http://www.w3.org/2000/svg" xmlns:xlink="http://www.w3.org/1999/xlink" x="0px" y="0px"
	 width="16px" height="16px" viewBox="0 0 16 16" enable-background="new 0 0 16 16" xml:space="preserve">
<path fill-rule="evenodd" clip-rule="evenodd" fill="#020202" d="M12.518,5.818C11.743,3.901,9.866,2.55,7.674,2.55
	c-2.783,0-5.056,2.175-5.215,4.918C1.076,7.624,0,9.047,0,10.473C0,12.006,1.243,13.5,2.775,13.5h9.633
	C14.393,13.5,16,11.641,16,9.658C16,7.71,14.451,5.876,12.518,5.818z M12.408,12.5H8.5V8.157l1.231,1.201
	c0.201,0.201,0.519,0.201,0.72,0c0.1-0.1,0.019-0.23,0.019-0.362s-0.034-0.263-0.134-0.362l-2.02-2.078
	c-0.002-0.002,0-0.003-0.003-0.005C8.268,6.506,8.166,6.47,8.107,6.444C8.054,6.423,8.099,6.415,8.044,6.411
	c-0.012,0-0.021-0.006-0.032-0.006c-0.008,0-0.014,0.004-0.021,0.004c-0.06,0.003-0.089,0.014-0.146,0.035
	C7.794,6.466,7.751,6.499,7.71,6.534C7.7,6.542,7.687,6.546,7.678,6.556L5.601,8.634c-0.201,0.2-0.109,0.525,0.092,0.725
	c0.2,0.201,0.512,0.201,0.712,0L7.5,8.157V12.5H2.775C1.796,12.5,1,11.453,1,10.473C1,9.57,1.675,8.688,2.571,8.587l0.837-0.158
	l0.049-0.872c0.129-2.229,1.981-3.992,4.216-3.992c1.73,0,3.268,1.029,3.916,2.636l0.245,0.602l0.653,0.016
	C13.896,6.862,15,8.248,15,9.658C15,11.087,13.838,12.5,12.408,12.5z"/>
</svg>
