<?xml version="1.0" encoding="utf-8"?>
<!-- Generator: Adobe Illustrator 16.0.0, SVG Export Plug-In . SVG Version: 6.00 Build 0)  -->
<!DOCTYPE svg PUBLIC "-//W3C//DTD SVG 1.1//EN" "http://www.w3.org/Graphics/SVG/1.1/DTD/svg11.dtd">
<svg version="1.1" id="Layer_1" xmlns="http://www.w3.org/2000/svg" xmlns:xlink="http://www.w3.org/1999/xlink" x="0px" y="0px"
	 width="24px" height="24px" viewBox="0 0 24 24" enable-background="new 0 0 24 24" xml:space="preserve">
<path fill="#020202" d="M12,1.5C6.211,1.5,1.5,6.21,1.5,12c0,5.789,4.711,10.5,10.5,10.5c4.314,0,8.253-2.703,9.802-6.728
	c0.099-0.258-0.029-0.548-0.287-0.646c-0.257-0.098-0.547,0.029-0.646,0.287c-0.468,1.214-1.179,2.291-2.06,3.192
	c-0.968-0.391-3.053-1.129-4.277-1.492c-0.111-0.035-0.128-0.039-0.128-0.499c0-0.378,0.155-0.761,0.306-1.084
	c0.166-0.351,0.362-0.942,0.433-1.47c0.196-0.229,0.463-0.678,0.634-1.533c0.151-0.756,0.081-1.029-0.019-1.287
	c-0.011-0.027-0.021-0.055-0.029-0.08c-0.038-0.178,0.013-1.098,0.144-1.811c0.088-0.488-0.021-1.531-0.695-2.392
	c-0.427-0.543-1.241-1.211-2.729-1.305l-0.815,0.001c-1.463,0.092-2.275,0.76-2.703,1.304C8.256,7.818,8.145,8.861,8.233,9.35
	c0.129,0.713,0.181,1.633,0.144,1.805c-0.008,0.031-0.021,0.059-0.031,0.086c-0.098,0.258-0.168,0.531-0.019,1.287
	c0.171,0.855,0.439,1.305,0.636,1.533c0.07,0.527,0.267,1.119,0.431,1.47c0.12,0.257,0.177,0.606,0.177,1.102
	c0,0.46-0.018,0.463-0.119,0.497c-1.247,0.368-3.311,1.129-4.23,1.514C3.541,16.929,2.5,14.584,2.5,12c0-5.238,4.262-9.5,9.5-9.5
	s9.5,4.262,9.5,9.5c0,0.276,0.224,0.5,0.5,0.5s0.5-0.224,0.5-0.5C22.5,6.21,17.789,1.5,12,1.5z M9.765,18.078
	c0.806-0.266,0.806-1.004,0.806-1.446c0-0.646-0.086-1.13-0.271-1.526c-0.131-0.278-0.291-0.771-0.345-1.177l-0.039-0.294
	L9.722,13.41c-0.061-0.071-0.27-0.357-0.413-1.076c-0.105-0.533-0.062-0.646-0.029-0.734c0.027-0.066,0.053-0.138,0.076-0.238
	c0.093-0.438-0.039-1.64-0.139-2.191c-0.044-0.243,0.02-0.983,0.496-1.594c0.436-0.552,1.092-0.861,1.951-0.922l0.75-0.002
	c0.879,0.062,1.543,0.372,1.975,0.922c0.479,0.611,0.542,1.354,0.499,1.596c-0.114,0.626-0.229,1.77-0.138,2.199l0.014,0.063
	l0.021,0.062l0.039,0.105c0.034,0.09,0.077,0.201-0.029,0.731c-0.145,0.724-0.352,1.009-0.412,1.079l-0.193,0.225l-0.039,0.294
	c-0.055,0.407-0.215,0.898-0.348,1.179c-0.197,0.424-0.399,0.936-0.399,1.507c0,0.446,0,1.192,0.844,1.458
	c1.022,0.303,2.675,0.879,3.722,1.277h0.029C16.333,20.705,14.223,21.5,12,21.5c-2.256,0-4.328-0.793-5.959-2.111
	C7.051,18.989,8.697,18.395,9.765,18.078z"/>
</svg>
