<?xml version="1.0" encoding="utf-8"?>
<!-- Generator: Adobe Illustrator 16.0.0, SVG Export Plug-In . SVG Version: 6.00 Build 0)  -->
<!DOCTYPE svg PUBLIC "-//W3C//DTD SVG 1.1//EN" "http://www.w3.org/Graphics/SVG/1.1/DTD/svg11.dtd">
<svg version="1.1" id="Layer_1" xmlns="http://www.w3.org/2000/svg" xmlns:xlink="http://www.w3.org/1999/xlink" x="0px" y="0px"
	 width="16px" height="16px" viewBox="0 0 16 16" enable-background="new 0 0 16 16" xml:space="preserve">
<path fill-rule="evenodd" clip-rule="evenodd" fill="#020202" d="M14.271,7.435C13.431,6.543,11.115,3.87,7.928,3.87
	c-3.104,0-5.058,2.283-6.143,3.422C1.448,7.646,1.441,8.368,1.712,8.661c1.237,1.342,3.168,3.469,6.216,3.469
	c3.676,0,5.508-2.347,6.305-3.284C14.594,8.42,14.518,7.695,14.271,7.435z M8.01,10.976c-1.63,0-2.952-1.322-2.952-2.953
	c0-1.63,1.322-2.952,2.952-2.952c1.631,0,2.953,1.322,2.953,2.952C10.963,9.653,9.641,10.976,8.01,10.976z M8.01,6.523
	c0.829,0,1.5,0.672,1.5,1.499c0,0.829-0.671,1.501-1.5,1.501c-0.828,0-1.5-0.672-1.5-1.501C6.51,7.195,7.182,6.523,8.01,6.523z"/>
</svg>
