<?xml version="1.0" encoding="utf-8"?>
<!-- Generator: Adobe Illustrator 16.0.0, SVG Export Plug-In . SVG Version: 6.00 Build 0)  -->
<!DOCTYPE svg PUBLIC "-//W3C//DTD SVG 1.1//EN" "http://www.w3.org/Graphics/SVG/1.1/DTD/svg11.dtd">
<svg version="1.1" id="Layer_1" xmlns="http://www.w3.org/2000/svg" xmlns:xlink="http://www.w3.org/1999/xlink" x="0px" y="0px"
	 width="16px" height="16px" viewBox="0 0 16 16" enable-background="new 0 0 16 16" xml:space="preserve">
<path fill="#020202" d="M9.403,7.95v7h-3v-7H9.403z M8.601,4.968l1.702-3.117c0.07-0.129,0.104-0.25,0.101-0.366
	c-0.002-0.115-0.08-0.228-0.235-0.337C10.129,1.122,10.073,1.099,10,1.075c-0.073-0.022-0.149-0.03-0.231-0.023
	c-0.08,0.006-0.159,0.027-0.235,0.062C9.456,1.149,9.396,1.205,9.351,1.282L7.994,3.899L6.589,1.243
	c-0.07-0.128-0.182-0.191-0.331-0.191c-0.151,0-0.29,0.038-0.419,0.115C5.71,1.243,5.634,1.354,5.607,1.499
	c-0.025,0.145-0.006,0.274,0.058,0.39l1.703,3.079V6.45c0,0.115,0.048,0.229,0.14,0.337S7.76,6.95,7.983,6.95
	c0.225,0,0.385-0.051,0.477-0.154C8.553,6.694,8.601,6.579,8.601,6.45V4.968z"/>
</svg>
