<svg viewBox="0 0 1792 1792" xmlns="http://www.w3.org/2000/svg"><path d="M178 436h600q21 0 35.5 14.5T828 486v100q0 21-14.5 35.5T778 636H178q-21 0-35.5-14.5T128 586V486q0-21 14.5-35.5T178 436zm0 300h1000q21 0 35.5 14.5T1228 786v100q0 21-14.5 35.5T1178 936H178q-21 0-35.5-14.5T128 886V786q0-21 14.5-35.5T178 736zm0 300h800q21 0 35.5 14.5t14.5 35.5v100q0 21-14.5 35.5T978 1236H178q-21 0-35.5-14.5T128 1186v-100q0-21 14.5-35.5T178 1036zm0 300h1100q21 0 35.5 14.5t14.5 35.5v100q0 21-14.5 35.5T1278 1536H178q-21 0-35.5-14.5T128 1486v-100q0-21 14.5-35.5T178 1336z"/></svg>