<svg viewBox="0 0 1792 1792" xmlns="http://www.w3.org/2000/svg"><path d="M728 236q47 0 92.5 53.5t71 123T917 536q0 78-55.5 133.5T728 725t-133.5-55.5T539 536q0-62 34-143l144 143 111-111-163-163q34-26 63-26zm2 502h46q34 0 55.5 28.5T853 853q0 76 39 183H568q39-107 39-183 0-58 21.5-86.5T685 738h45zm-352 398h700q21 0 35.5 14.5t14.5 35.5-14.5 35.5-35.5 14.5h-13l138 100H253l137-100h-12q-21 0-35.5-14.5T328 1186t14.5-35.5T378 1136zm-200 300h1100q21 0 35.5 14.5t14.5 35.5v50H128v-50q0-21 14.5-35.5T178 1436z"/></svg>