<svg viewBox="0 0 1792 1792" xmlns="http://www.w3.org/2000/svg"><path d="M1138 526q111 111 150.5 260.5t0 299T1138 1346q-83 83-191.5 126.5T728 1516t-218.5-43.5T318 1346q-111-111-150.5-260.5t0-299T318 526q83-83 191.5-126.5T728 356t218.5 43.5T1138 526zm-534-55q-4 0-8 1-121 34-209.5 122.5T264 804q-4 12 2.5 23t18.5 14l36 9q3 1 7 1 23 0 29-22 27-96 98-166 70-71 166-98 11-3 17.5-13.5T642 529l-9-35q-3-13-14-19-7-4-15-4zm36 145q-4 0-9 2-80 24-138.5 82.5T410 839q-4 13 2 24t19 14l34 9q4 1 8 1 22 0 28-21 18-58 58.5-98.5T657 709q12-3 18-13.5t3-21.5l-9-35q-3-12-14-19-7-4-15-4zm207.5 200.5Q798 767 728 767t-119.5 49.5T559 936t49.5 119.5T728 1105t119.5-49.5T897 936t-49.5-119.5zM983 985q-22 0-28 21-18 58-58.5 98.5T798 1162q-11 4-17 14.5t-3 21.5l9 35q3 12 14 19 7 4 15 4 4 0 9-2 80-24 138.5-82.5T1046 1033q4-13-2.5-24t-18.5-14l-34-9q-4-1-8-1zm145 36q-23 0-29 22-27 96-98 166-70 71-166 98-11 3-17.5 13.5T814 1343l9 35q3 13 14 19 7 4 15 4 4 0 8-1 121-34 209.5-122.5T1192 1068q4-12-2.5-23t-18.5-14l-36-9q-3-1-7-1z"/></svg>