<svg viewBox="0 0 1792 1792" xmlns="http://www.w3.org/2000/svg"><path d="M872 338q242 0 354 189 60 104 66 209h-181q0-45-17.5-82.5T1050 592t-58-40.5-60.5-24T880 520q-19 0-40.5 5.5T790 546t-53 38-49 62.5-39 89.5h379L928 836H628q-6 50-6 100h406l-100 100H628q9 74 33 132t52.5 91 61.5 54.5 59 29 47 7.5q22 0 50.5-7.5T992 1318t58-41 43.5-61 17.5-80h174q-30 171-128 278-107 117-274 117-206 0-324-158-36-48-69-133t-45-204H228l100-100h112q1-47 6-100H228l100-100h134q20-87 51-153.5T575 479q117-141 297-141z"/></svg>