<svg viewBox="0 0 1792 1792" xmlns="http://www.w3.org/2000/svg"><path d="M728 442q82 0 160.5 22.5t140 59T1145 606t94.5 95 68 95 42.5 82.5 14 57.5-14 57.5-43 82.5-68.5 95-94.5 95-116.5 82.5-140 59T728 1430t-159.5-22.5-140-59T312 1266t-94.5-95-68.5-95-43-82.5T92 936t14-57.5 42.5-82.5 68-95 94.5-95 116.5-82.5 140-59T728 442zm288 265q-15-15-18-12t5 22q25 57 25 119 0 124-88 212t-212 88-212-88-88-212q0-59 23-114 8-19 4.5-22T438 712q-70 69-160 184-13 16-15 40.5t9 42.5q22 36 47 71t70 82 92.5 81 113 58.5T728 1296t133.5-24 113-58.5 92.5-81.5 70-81.5 47-70.5q11-18 9-42.5t-14-41.5q-90-117-163-189zM576 809l-35 36q-15 15-19.5 38.5T526 925q37 68 93 116 16 13 38.5 11t36.5-17l35-34q14-15 12.5-33.5T725 934q-44-44-89-117-11-18-28-20t-32 12z"/></svg>