<svg viewBox="0 0 1792 1792" xmlns="http://www.w3.org/2000/svg"><path d="M689 339q84 0 160.5 40T973 488.5t47 147.5H867q0-40-19.5-71.5T798 516t-59.5-26-55.5-9q-37 0-79 14.5T542 531q-41 44-41 101 0 26 13.5 63t26.5 61 37 66q6 9 9 14h241v100H631q8 50-2.5 115t-31.5 95q-45 62-99 112 34-10 83-17.5t71-7.5q32-1 102 16t104 17q83 0 136-30l50 147q-31 19-58 30.5t-55 15.5-42 4.5-46 .5q-23 0-76-17t-111-32.5-96-11.5q-39 3-82 16t-67 25l-23 11-55-145q4-3 16-11t15.5-10.5 13-9 15.5-12 14.5-14T425 1205q48-55 54-126.5T449 936H228V836h166q-23-47-44-104-7-20-12-41.5t-6-55.5 6-66.5 29.5-70.5 58.5-71q97-88 263-88z"/></svg>