<svg viewBox="0 0 1792 1792" xmlns="http://www.w3.org/2000/svg"><path d="M178 436h100q21 0 35.5 14.5T328 486v100q0 21-14.5 35.5T278 636H178q-21 0-35.5-14.5T128 586V486q0-21 14.5-35.5T178 436zm850 1100H928V436h100v1100zM178 736h500q21 0 35.5 14.5T728 786v100q0 21-14.5 35.5T678 936H178q-21 0-35.5-14.5T128 886V786q0-21 14.5-35.5T178 736zm1050 200h200v100h-200v75l-167-125 167-125v75zM178 1036h300q21 0 35.5 14.5T528 1086v100q0 21-14.5 35.5T478 1236H178q-21 0-35.5-14.5T128 1186v-100q0-21 14.5-35.5T178 1036zm0 300h600q21 0 35.5 14.5T828 1386v100q0 21-14.5 35.5T778 1536H178q-21 0-35.5-14.5T128 1486v-100q0-21 14.5-35.5T178 1336z"/></svg>