<svg viewBox="0 0 1792 1792" xmlns="http://www.w3.org/2000/svg"><path d="M728 436q92 0 175 10.5t141.5 27T1153 510t81.5 40 53.5 37 31 27l9 10v200q0 21-14.5 33t-34.5 9l-202-34q-20-3-34.5-20t-14.5-38V628q-141-24-300-24t-300 24v146q0 21-14.5 38T379 832l-202 34q-20 3-34.5-9T128 824V624q3-4 9.5-10.5t31-26 54-37.5 80.5-39.5T412 473t141-26.5T728 436zm0 305q56 0 97 9.5t60 23.5 30 28 12 24l1 10v50l365 303q14 15 24.5 40t10.5 45v212q0 21-14.5 35.5T1278 1536H178q-21 0-35.5-14.5T128 1486v-212q0-20 10.5-45t24.5-40l365-303v-50q0-4 1-10.5t12-23 30-29 60-22.5 97-10z"/></svg>