<svg viewBox="0 0 1792 1792" xmlns="http://www.w3.org/2000/svg"><path d="M950 336H506q-11 0-19 7.5t-9 17.5l-78 301q-7 24 7 45l57 108q6 9 17.5 15t21.5 6h450q10 0 21.5-6t17.5-15l62-108q14-21 7-45l-83-301q-1-10-9-17.5t-19-7.5zm353 400h-150q-10 0-21 6.5t-15 15.5l-78 156q-4 9-15 15.5t-21 6.5H453q-10 0-21-6.5T417 914l-78-156q-4-9-15-15.5t-21-6.5H153q-10 0-17.5 7.5T128 761v650q0 10 7.5 17.5t17.5 7.5h150q10 0 17.5-7.5t7.5-17.5v-150q0-10 7.5-17.5t17.5-7.5h750q10 0 17.5 7.5t7.5 17.5v150q0 10 7.5 17.5t17.5 7.5h150q10 0 17.5-7.5t7.5-17.5V761q0-10-7.5-17.5T1303 736zm-325 600H478q-10 0-19.5 7t-11.5 17l-38 152q-2 10 3.5 17t15.5 7h600q10 0 15.5-7t3.5-17l-38-152q-2-10-11.5-17t-19.5-7z"/></svg>