<svg viewBox="0 0 1792 1792" xmlns="http://www.w3.org/2000/svg"><path d="M1075 476l135-135q7-7 12.5-5t5.5 13v361q0 11-7.5 18.5T1202 736H841q-11 0-13-5.5t5-12.5l134-134q-110-75-239-75-116 0-214.5 57T358 721.5 301 936H151q0-117 45.5-224t123-184.5 184.5-123T728 359q192 0 347 117zm80 460h150q0 117-45.5 224t-123 184.5-184.5 123-224 45.5q-192 0-348-118l-134 134q-7 8-12.5 5.5T228 1522v-360q0-11 7.5-18.5t18.5-7.5h360q10 0 12.5 5.5T621 1154l-133 133q110 76 240 76 116 0 214.5-57t155.5-155.5 57-214.5z"/></svg>