<svg viewBox="0 0 1792 1792" xmlns="http://www.w3.org/2000/svg"><path d="M728 359q117 0 224 45.5t184.5 123 123 184.5 45.5 224-45.5 224-123 184.5-184.5 123-224 45.5-224-45.5-184.5-123-123-184.5T151 936t45.5-224 123-184.5 184.5-123T728 359zm0 150q-116 0-214.5 57T358 721.5 301 936t57 214.5T513.5 1306t214.5 57 214.5-57 155.5-155.5 57-214.5-57-214.5T942.5 566 728 509zm159 204l64 64q7 7 7 17.5t-7 17.5L827 936l124 124q7 7 7 17.5t-7 17.5l-64 64q-7 7-17.5 7t-17.5-7l-124-124-124 124q-7 7-17.5 7t-17.5-7l-64-64q-7-7-7-17.5t7-17.5l124-124-124-124q-7-7-7-17.5t7-17.5l64-64q7-7 17.5-7t17.5 7l124 124 124-124q7-7 17.5-7t17.5 7z"/></svg>