<svg viewBox="0 0 1792 1792" xmlns="http://www.w3.org/2000/svg"><path d="M769 636l423-247q19-8 42-2.5t37 21.5l32 38q14 15 12.5 36t-17.5 34l-139 120H769zM178 436h106q67 0 103 17t66 71l102 212h823q21 0 35.5 14.5T1428 786v50q0 21-14 40t-33 26l-737 132q-23 4-40-6t-26-25q-42-67-100-67H178q-62 0-106-44T28 786V586q0-62 44-106t106-44zm123 172h-80q-19 0-28 14t-9 35v56q0 51 42 51h134q16 0 21.5-8t5.5-24q0-11-16-45t-27-51q-18-28-43-28zm377 201q-32 0-54.5 22.5T601 886t22.5 54.5T678 963t54.5-22.5T755 886t-22.5-54.5T678 809zm-420 338l152-130q18-19 34-24t31 3.5 24.5 17.5 25.5 28q28 35 50.5 51t48.5 13l63-5 48 179q13 61-3.5 97.5T664 1457l-80 69q-47 40-109 35.5T372 1510l-130-151q-40-47-35.5-109.5T258 1147zm250 12l-102 88q-31 27 2 65l37 43q13 15 27.5 19.5t31.5-6.5l61-53q19-16 14-49-2-20-12-56t-17-45q-11-12-19-14t-23 8z"/></svg>