<svg viewBox="0 0 1792 1792" xmlns="http://www.w3.org/2000/svg"><path d="M1153 336h150q10 0 17.5 7.5t7.5 17.5v1150q0 10-7.5 17.5t-17.5 7.5h-150q-10 0-17.5-7.5t-7.5-17.5V361q0-10 7.5-17.5t17.5-7.5zM853 736h150q10 0 17.5 7.5t7.5 17.5v750q0 10-7.5 17.5t-17.5 7.5H853q-10 0-17.5-7.5T828 1511V761q0-10 7.5-17.5T853 736zm-300 300h150q10 0 17.5 7.5t7.5 17.5v450q0 10-7.5 17.5T703 1536H553q-10 0-17.5-7.5T528 1511v-450q0-10 7.5-17.5t17.5-7.5zm-300 200h150q10 0 17.5 7.5t7.5 17.5v250q0 10-7.5 17.5T403 1536H253q-10 0-17.5-7.5T228 1511v-250q0-10 7.5-17.5t17.5-7.5z"/></svg>