<svg viewBox="0 0 1792 1792" xmlns="http://www.w3.org/2000/svg"><path d="M386 340h1000q41 0 70.5 29.5T1486 440v100q0 41-29.5 70.5T1386 640H386q-41 0-70.5-29.5T286 540V440q0-41 29.5-70.5T386 340zm1000 100h-200v100h200V440zM386 740h1000q41 0 70.5 29.5T1486 840v100q0 41-29.5 70.5T1386 1040H386q-41 0-70.5-29.5T286 940V840q0-41 29.5-70.5T386 740zm1000 100H886v100h500V840zM386 1140h1000q41 0 70.5 29.5t29.5 70.5v100q0 41-29.5 70.5T1386 1440H386q-41 0-70.5-29.5T286 1340v-100q0-41 29.5-70.5T386 1140zm1000 100h-300v100h300v-100z"/></svg>