<svg viewBox="0 0 1792 1792" xmlns="http://www.w3.org/2000/svg"><path d="M778 336h50q40 0 70 40.5t30 84.5v150l-28 125h328q40 0 70 40.5t30 84.5v100q0 45-29 74l-238 344q-16 24-38 40.5t-45 16.5H728q-7 0-42-25t-66-50l-31-25h-61q-45 0-72.5-18t-27.5-57V861q0-36 20-63l145-196 96-198q13-28 37.5-48t51.5-20zm0 100L678 648 528 861v375h100l136 100h214l250-375V836H778l50-225V436h-50zM178 736h100q21 0 35.5 14.5T328 786v500q0 21-14.5 35.5T278 1336H178q-21 0-35.5-14.5T128 1286V786q0-21 14.5-35.5T178 736z"/></svg>