<svg viewBox="0 0 1792 1792" xmlns="http://www.w3.org/2000/svg"><path d="M682 241q21 72 57.5 143.5t76 130 83 118 82.5 117 70 116 49.5 126T1119 1128q0 71-25.5 135t-68.5 111-99 82-118.5 54-125.5 23q-84-5-161.5-34T381 1420.5t-99-125-37-164.5q0-69 18-136.5T312.5 868 382 751.5 463.5 634 547 515t76.5-131T682 241zM472 826q-23 33-43.5 70.5T388 999t-17 123q1 37 14.5 69.5t30 52 41 37T495 1305t33 15q21 7 32 1t13-22l6-34q2-10-2.5-22t-13.5-19q-5-4-14-12t-29.5-40.5T487 1098q-26-89 6-271 2-11-6-11-8-1-15 10z"/></svg>