<svg viewBox="0 0 1792 1792" xmlns="http://www.w3.org/2000/svg"><path d="M635 359q98 0 187.5 38.5T977 501t103.5 154.5T1119 843q0 141-78 262l300 299q8 8 8 18.5t-8 18.5l-109 108q-7 8-17.5 8t-18.5-8l-300-299q-119 77-261 77-98 0-188-38.5t-154.5-103-103-154.5T151 843t38.5-187.5 103-154.5T447 397.5 635 359zm-.5 154Q545 513 469 557T349 677.5t-44 166 44 165.5 120 120 165.5 44 166-44T921 1009t44-165.5-44-166T800.5 557t-166-44zM553 636h150q10 0 17.5 7.5T728 661v75h75q10 0 17.5 7.5T828 761v150q0 10-7.5 17.5T803 936h-75v75q0 10-7.5 17.5T703 1036H553q-10 0-17.5-7.5T528 1011v-75h-75q-10 0-17.5-7.5T428 911V761q0-10 7.5-17.5T453 736h75v-75q0-10 7.5-17.5T553 636z"/></svg>