<svg xmlns="http://www.w3.org/2000/svg" viewBox="0 0 511.5999755859375 512"><path d="M444.2 60.1C399.2 20 340.4 0 267.6 0 189 0 124.8 25.8 74.9 77.4 24.9 129.1 0 192.7 0 268.5 0 342.8 23.4 402 70.2 446c46.8 44 107.5 66 182 66 54.4 0 98.8-7.6 133.3-22.8v-59.6c-37.8 17.9-79.4 26.8-124.9 26.8-59.6 0-106.3-16.6-140.2-50-33.8-33.3-50.8-78.9-50.8-136.7 0-59.7 19.1-110.4 57.4-151.9s86.3-62.3 144.1-62.3c54 0 96 15.6 126.1 46.7s45.2 71 45.2 119.7c0 35.6-5.2 64.4-15.8 86.5-10.5 22.1-23.8 33.1-40 33.1-15.3 0-23.1-14.6-23.1-43.7 0-27.3 4.5-85.2 13.7-173.9H309l-3 30.9h-1.2c-7.7-24.4-26.6-36.5-56.7-36.5-33.3 0-61.8 14.9-85.5 44.8-23.6 29.9-35.5 68.7-35.5 116.3 0 36.9 8.5 65.7 25.6 86.5 17.1 20.8 39.5 31.2 67.4 31.2 37.2 0 62.8-19.9 77-59.6h1.8c1 17.7 7.8 32.1 20.3 43.1 12.5 11.1 28.8 16.6 48.8 16.6 40.6 0 74.7-16.3 102.1-48.9 27.5-32.6 41.2-75.8 41.2-129.7.3-65.6-22.2-118.5-67.1-158.5zM284 310.6c-10.9 21-25.9 31.6-44.9 31.6-12.3 0-22.4-5.6-30.2-16.7-7.8-11.1-11.7-26.7-11.7-46.6 0-28.1 5.7-52.8 17.1-74.2 11.4-21.3 26.2-32 44.4-32 12.5 0 22.6 4.8 30.2 14.4 7.6 9.6 11.4 22.7 11.4 39.4.1 35-5.4 63.1-16.3 84.1z"/></svg>