<svg xmlns="http://www.w3.org/2000/svg" viewBox="0 0 512 512"><path d="M170.7 426.7s-42.7 42.7-64 42.7c-35.4 0-64-28.6-64-64 0-21.3 42.7-64 42.7-64l83.4-83.4c-6.3-1.2-12.7-2-19.4-2-24.4 0-46.1 7.5-64 21.3l-64 64C8 359 0 381.5 0 405.3 0 464.2 47.8 512 106.7 512c24 0 46.3-7.9 64-21.3l64-64c13.6-17.7 21.3-39.9 21.3-64 0-6.7-.8-13.1-2-19.4l-83.3 83.4zM405.3 0c-24 0-46.3 7.9-64 21.3l-64 64c-13.6 17.7-21.3 39.9-21.3 64 0 6.7.8 13.1 2 19.4l83.4-83.4s42.7-42.7 64-42.7c35.4 0 64 28.6 64 64 0 21.3-42.7 64-42.7 64L343.3 254c6.3 1.2 12.8 2 19.4 2 24.4 0 46.1-7.5 64-21.3l64-64c13.3-17.6 21.3-40.1 21.3-64C512 47.8 464.2 0 405.3 0zm-256 330.7c0 17.7 14.3 32 32 32 12.6 0 23.4-7.4 28.6-18L344.7 210c10.6-5.2 18-16 18-28.6 0-17.7-14.3-32-32-32-12.6 0-23.4 7.4-28.6 18L167.3 302c-10.6 5.3-18 16.1-18 28.7z"/></svg>