<svg xmlns="http://www.w3.org/2000/svg" viewBox="0 0 482.29998779296875 521.5"><path d="M320.9 378.7c-8.2-16.9-18.8-29.2-37.1-21.7l-36.1 13.4c-28.9 13.4-43.3 0-57.8-20.2l-65-147.8c-8.1-16.9-3.9-32.8 14.4-40.3l50.5-20.2c18.3-7.6 15.4-23.4 7.2-40.3L153.9 21c-8.2-16.9-25-21-43.3-13.5-36.7 15.1-67 38.8-86.6 73.9C0 124.3 12 184 16.8 209.1c4.8 25.1 21.6 69.1 43.3 114.2 21.7 45.2 40.8 80.7 57.8 100.8 17 20.1 57.8 75.1 108.3 87.4 41.4 10 86.1 1.6 122.7-13.5 18.3-7.5 18.4-23.4 10.2-40.4l-38.2-78.9zm161.4-237.1l-39.4-39.4-59.1 59.1-59.1-59.1-39.4 39.4 59.1 59.1-59.1 59.2 39.4 39.4 59.1-59.1 59.1 59.1 39.4-39.4-59.1-59.1 59.1-59.2z"/></svg>