<svg xmlns="http://www.w3.org/2000/svg" viewBox="0 0 512 512"><path d="M256 0C114.6 0 0 114.6 0 256s114.6 256 256 256 256-114.6 256-256S397.4 0 256 0zm0 42.7c35.4 0 64 28.6 64 64s-28.6 64-64 64-64-28.6-64-64 28.6-64 64-64zM53.3 213.3c0-35.4 28.6-64 64-64s64 28.6 64 64-28.6 64-64 64-64-28.6-64-64zm117.4 224c-35.4 0-64-28.6-64-64s28.6-64 64-64 64 28.6 64 64-28.7 64-64 64zM213.3 256c0-23.5 19.1-42.7 42.7-42.7s42.7 19.1 42.7 42.7-19.1 42.7-42.7 42.7-42.7-19.2-42.7-42.7zm128 181.3c-35.4 0-64-28.6-64-64s28.6-64 64-64 64 28.6 64 64-28.6 64-64 64zm53.4-160c-35.4 0-64-28.6-64-64s28.6-64 64-64 64 28.6 64 64-28.7 64-64 64z"/></svg>