<svg xmlns="http://www.w3.org/2000/svg" viewBox="0 0 512 512"><path d="M401.1 130.5c-22.1 28.2-30.3 77-37.8 122-8.2 49.1-18.4 110.2-43 110.2s-34.8-61.1-43-110.2c-11.4-68.4-24.3-145.8-85-145.8s-73.6 77.5-85 145.8c-5.3 32-11.6 68.9-22.1 90.8 7.1 13.9 15.9 26.9 26.1 38.6 22.3-28.1 30.6-77.2 38.1-122.4 8.2-49.1 18.4-110.2 43-110.2s34.8 61.1 43 110.2c11.4 68.3 24.3 145.8 85 145.8s73.6-77.5 85-145.8c5.3-31.8 11.5-68.2 21.8-90.3-7.2-14-16-27-26.1-38.7zM256 0C114.6 0 0 114.6 0 256s114.6 256 256 256 256-114.6 256-256S397.4 0 256 0zm0 469.3c-117.8 0-213.3-95.5-213.3-213.3 0-117.8 95.5-213.3 213.3-213.3 117.8 0 213.3 95.5 213.3 213.3 0 117.8-95.5 213.3-213.3 213.3z"/></svg>