<svg xmlns="http://www.w3.org/2000/svg" viewBox="0 0 512 469.4000244140625"><path d="M256 213.4c141.4 0 256-47.8 256-106.7C512 47.8 397.4 0 256 0S0 47.8 0 106.7c0 58.9 114.6 106.7 256 106.7zm0 170.6c-97.7 0-184.1-23.5-238.6-59.8C6.3 336.2 0 349.1 0 362.7c0 58.9 114.6 106.7 256 106.7s256-47.8 256-106.7c0-13.6-6.3-26.5-17.4-38.4C440.1 360.5 353.7 384 256 384zm0-128c-97.7 0-184.1-23.5-238.6-59.8C6.3 208.2 0 221.1 0 234.7c0 58.9 114.6 106.7 256 106.7s256-47.8 256-106.7c0-13.6-6.3-26.5-17.4-38.4C440.1 232.5 353.7 256 256 256z"/></svg>