<svg xmlns="http://www.w3.org/2000/svg" viewBox="0 0 512 533"><path d="M232.5 354.1c-10.4-18-19.2-36.5-27.2-55.2-35.2 60.1-57.8 126.7-66.6 195.5C206 529 287.2 533 359.9 500.7c-50-39.3-93.7-88.2-127.4-146.6zm26.2-27.5c34.5 60.5 80.8 113.4 136 155.4 63.6-41 107.7-109.4 116-188.4-59 23.6-123.2 37-190.6 37-20.8 0-41.2-1.6-61.4-4zm-56.1-87.9C132.9 238.3 63.9 252 0 278.8c3.7 75.6 40.8 147.9 105.2 194.7 9-62.9 29.5-125.2 63.3-183.6 10.3-18 21.9-34.9 34.1-51.2zm50.7-32.4c-34.5-60.5-80.8-113.5-136-155.4-63.6 41-107.7 109.4-116 188.4 59-23.6 123.2-37 190.6-37 20.8 0 41.2 1.6 61.4 4zm26.2-27.4c10.4 18 19.2 36.5 27.2 55.2 35.2-60.1 57.8-126.7 66.6-195.5C306 4 224.8 0 152.1 32.3c50 39.2 93.7 88.2 127.4 146.6zm29.9 115.3c69.7.4 138.7-13.3 202.6-40.1-3.7-75.6-40.8-147.9-105.1-194.7-9 62.9-29.6 125.2-63.3 183.6-10.4 18-22 34.9-34.2 51.2z"/></svg>