<svg xmlns="http://www.w3.org/2000/svg" viewBox="0 0 512 512"><path d="M256 0C114.6 0 0 114.6 0 256s114.6 256 256 256 256-114.6 256-256S397.4 0 256 0zm0 85.3c23.5 0 42.7 19.1 42.7 42.7s-19.1 42.7-42.7 42.7c-23.5 0-42.7-19.1-42.7-42.7s19.2-42.7 42.7-42.7zm0 341.4c-23.5 0-42.7-19.1-42.7-42.7s19.1-42.7 42.7-42.7c23.5 0 42.7 19.1 42.7 42.7s-19.2 42.7-42.7 42.7zm149.3-149.4c0 11.8-9.5 21.3-21.3 21.3H128c-11.8 0-21.3-9.6-21.3-21.3v-42.7c0-11.8 9.5-21.3 21.3-21.3h256c11.8 0 21.3 9.6 21.3 21.3v42.7z"/></svg>