<svg xmlns="http://www.w3.org/2000/svg" viewBox="0 0 512 491.9000244140625"><path d="M2.5 201.1C1 213.1 0 225.3 0 237.7c0 109 59.7 203.9 148.1 254.2l16.5-34.8V219.4l-18.3-18.3H2.5zM512 219.4c0-18.3-18.3-36.6-36.6-36.6H329.1c9.1-36.6 18.3-73.1 18.3-91.4 0-36.6-18.3-73.1-27.4-82.3-.2-.2-9.1-9.1-27.4-9.1-27.4 0-27.4 27.4-27.4 27.4 0 .5-9.1 45.7-9.1 64s-36.6 91.4-54.9 109.7l-18.3 9.1v256l18.3 9.1h201.1c36.6 0 54.9-18.3 54.9-36.6s-18.3-36.6-36.6-36.6c36.6 0 54.9-18.3 54.9-36.6s-18.3-36.6-36.6-36.6c36.6 0 54.9-18.3 54.9-36.6s-18.3-36.6-36.6-36.6c36.5.3 54.8-18 54.8-36.3z"/></svg>