<svg xmlns="http://www.w3.org/2000/svg" viewBox="0 0 341.4000244140625 512"><path d="M155 396.8c3.3 5.1 9.1 8.5 15.7 8.5s12.4-3.4 15.8-8.5l110.2-170.2c14.8-22.9 23.4-48.1 23.4-77.3C320 64.9 253.7 0 170.7 0S21.4 64.9 21.4 149.3c0 29.2 8.6 54.4 23.4 77.3L155 396.8zM170.7 64c47.1 0 85.3 38.2 85.3 85.3s-38.2 85.3-85.3 85.3-85.3-38.2-85.3-85.3S123.6 64 170.7 64zm109.4 259.5L170.7 469.3 61.3 323.5C23.9 343.1 0 372.4 0 405.3 0 464.2 76.4 512 170.7 512s170.7-47.8 170.7-106.7c0-32.9-23.9-62.2-61.3-81.8z"/></svg>