<svg xmlns="http://www.w3.org/2000/svg" viewBox="0 0 236.4000244140625 512.0999755859375"><path d="M157.6 326V196.9H78.8V326c-23.4 13.7-39.4 38.8-39.4 67.8 0 43.5 35.3 78.8 78.8 78.8s78.8-35.3 78.8-78.8c0-29-16-54.1-39.4-67.8zm39.4-20V78.8C197 35.3 161.7 0 118.2 0S39.4 35.3 39.4 78.8V306C15.3 327.6 0 358.9 0 393.9c0 65.2 52.9 118.2 118.2 118.2 65.2 0 118.2-52.9 118.2-118.2 0-35-15.3-66.3-39.4-87.9zm-78.8 186.3c-54.4 0-98.5-44.1-98.5-98.5 0-32.2 15.5-60.7 39.4-78.6V78.8c0-32.6 26.4-59.1 59.1-59.1 32.6 0 59.1 26.4 59.1 59.1v236.4c23.9 18 39.4 46.5 39.4 78.6 0 54.4-44.1 98.5-98.5 98.5z"/></svg>