<svg xmlns="http://www.w3.org/2000/svg" viewBox="0 0 512 369.3999938964844"><path d="M256 175.9c-57.1 0-106.1 34-128.2 82.9l41.9 41.9c7.5-40.9 43.2-72 86.3-72 43.1 0 78.8 31.1 86.3 72l41.9-41.9c-22.1-48.9-71.1-82.9-128.2-82.9zM256 0C150.6 0 57.5 51.7 0 130.9l37.6 37.6C85.1 98.7 165.2 52.8 256 52.8c90.8 0 170.9 45.9 218.4 115.8L512 131C454.5 51.7 361.4 0 256 0zm0 88c-81.1 0-152.3 42.4-192.8 106.1l38.4 38.4c29.8-54.7 87.7-91.8 154.4-91.8s124.6 37.1 154.5 91.7l38.4-38.4C408.3 130.4 337.1 88 256 88zm0 175.8c-29.1 0-52.8 23.6-52.8 52.8 0 29.1 23.6 52.8 52.8 52.8 29.1 0 52.8-23.6 52.8-52.8 0-29.1-23.7-52.8-52.8-52.8z"/></svg>