<svg xmlns="http://www.w3.org/2000/svg" viewBox="0 0 298.5999755859375 512"><path d="M277.3 128c-11.8 0-21.3 9.5-21.3 21.3v213.3c0 58.9-47.7 106.7-106.7 106.7S42.6 421.5 42.6 362.6v-256c0-35.3 28.6-64 64-64s64 28.7 64 64V320c0 11.8-9.6 21.3-21.3 21.3S128 331.8 128 320V149.3c0-11.8-9.6-21.3-21.3-21.3-11.8 0-21.3 9.5-21.3 21.3V320c0 35.4 28.6 64 64 64s64-28.6 64-64V106.7C213.3 47.8 165.5 0 106.6 0S0 47.8 0 106.7v256C0 445.2 66.9 512 149.3 512s149.3-66.9 149.3-149.3V149.3c0-11.8-9.5-21.3-21.3-21.3z"/></svg>