<svg xmlns="http://www.w3.org/2000/svg" viewBox="0 0 512.1000366210938 469.4000244140625"><path d="M469.3 341.4H42.7C19.1 341.4 0 360.5 0 384v42.7c0 23.5 19.1 42.7 42.7 42.7h426.7c23.5 0 42.7-19.1 42.7-42.7V384c-.1-23.5-19.2-42.6-42.8-42.6zm-384 85.3H42.7V384h42.7v42.7zm298.7 0h-21.3V384H384v42.7zm42.7 0h-21.3V384h21.3v42.7zm42.6 0H448V384h21.3v42.7zm0-256H42.7C19.1 170.7 0 189.8 0 213.4v42.7c0 23.5 19.1 42.6 42.7 42.6h426.7c23.5 0 42.7-19.1 42.7-42.7v-42.7c-.1-23.5-19.2-42.6-42.8-42.6zM85.3 256H42.7v-42.7h42.7V256zm298.7 0h-21.3v-42.7H384V256zm42.7 0h-21.3v-42.7h21.3V256zm42.6 0H448v-42.7h21.3V256zm0-256H42.7C19.1 0 0 19.2 0 42.7v42.7c0 23.5 19.1 42.7 42.7 42.7h426.7c23.5 0 42.7-19.1 42.7-42.7V42.7C512 19.2 492.9 0 469.3 0zm-384 85.4H42.7V42.7h42.7v42.7zm298.7 0h-21.3V42.7H384v42.7zm42.7 0h-21.3V42.7h21.3v42.7zm42.6 0H448V42.7h21.3v42.7z"/></svg>