<svg xmlns="http://www.w3.org/2000/svg" viewBox="0 0 277.50006103515625 512.0999755859375"><path d="M265.8 64.2c-7.8-14.1-18.5-25.9-32-35.4-13.6-9.5-29.4-16.6-47.5-21.5C168.1 2.4 148.9 0 128.5 0 84.3 0 41.2 9.5 0 31.7v85.4c33.9-30.7 70-49.8 107.4-49.8 11.6 0 22.4 1.3 32.6 3.8 10.2 2.5 19.2 6.4 27.1 11.6 7.9 5.2 14.2 11.7 18.7 19.4s6.2 15.2 6.2 25.6c0 11.6-2.5 23.8-8.7 33.6-6.2 9.7-13.8 19-23 27.7-9.2 8.8-19 17.8-29.6 27.1-10.8 9.3-20.8 18.9-30 28.8-9.2 9.9-16.8 20.6-23 32.1s-9.2 24.2-9.2 38.3c0 9 .9 18.2 2.6 27.4 1.8 9.2 1.2 14.1 3.5 19.8H160c-7.5-15.1-10.7-24.8-10.7-42.7 0-11.8 4.1-33 10.7-42.7 6.5-9.7 8.9-10.8 18.8-19.8s20.7-18 32.2-27.1c11.3-9 21.9-19.3 31.8-31 9.9-11.7 18.2-24.5 24.7-38.3 6.5-13.8 9.8-26.1 9.8-43.9.2-18.6-3.8-38.7-11.5-52.8zM117.4 405.3c-29.5 0-53.4 23.9-53.4 53.4s23.9 53.4 53.4 53.4 53.4-23.9 53.4-53.4c-.1-29.5-24-53.4-53.4-53.4z"/></svg>