<svg xmlns="http://www.w3.org/2000/svg" viewBox="0 0 292.9000244140625 512"><path d="M283.5 315.6c-6.3-12.5-14.8-23.9-25.5-34.2-10.7-10.3-23.1-19.6-37.3-28.1-14.1-8.5-29.2-16.6-45.1-24.3-3.8-1.6-7.2-3-10.8-4.5v-129c2.7-.1 5.5-.4 8.2-.4 40.8 0 75.6 15.5 101.5 32.8v-73c-21.8-10.1-59.2-18.3-107-18.3-.9 0-1.7.1-2.6.1V0h-36.6v39.8c-7.1 1.1-14.3 2.1-21.5 3.7-20.2 4.6-38.2 11.8-54 21.3-15.8 9.6-28.6 21.7-38.3 36.4-9.7 14.7-14.5 32-14.5 52 0 16.2 2.8 30.3 8.4 42.3 5.6 12.1 13.4 22.9 23.3 32.4 9.9 9.6 21.5 18.3 34.9 26.2 13.4 7.9 27.8 15.7 43.3 23.4 6.3 2.7 12.4 5.3 18.3 7.9v131.2c-3.3.1-6.2.4-9.7.4-9.1 0-19.1-.9-29.9-2.7-10.8-1.8-21.7-4.3-32.5-7.6-10.8-3.2-21.1-7.3-30.8-12s-18-10.1-25-16v74.6c6.4 3.8 14.9 5.1 25.3 8 10.4 3 21.4 5.5 33.1 7.6 11.7 2.1 23.1 3.6 34.2 4.7 11.1 1.1 25.1 1.6 32.7 1.6.9 0 1.7-.1 2.6-.1V512h36.6v-39.2c7-1 14.1-2.1 21.6-3.6 20.6-4.2 38.8-10.8 54.7-20.1 15.8-9.3 28.4-21.3 37.8-36.1 9.4-14.8 14-33 14-54.5 0-16-3.1-30.3-9.4-42.9zM104.8 194.7c-8.2-5.7-14.4-12-18.6-18.9-4.3-6.9-6.4-15.1-6.4-24.6 0-10.1 2.8-18.6 8.3-25.7 5.5-7.1 12.7-12.9 21.5-17.5 5.7-2.9 12.1-5.1 18.8-7v107.3c-9-4.5-17.1-9-23.6-13.6zm85.1 207.6c-6.7 4.2-15.2 7.4-24.9 9.8v-110c6.8 3.5 13.1 7 18.7 10.7 9.3 6.1 16.6 12.9 21.8 20.3 5.2 7.4 7.8 16.1 7.8 26.2 0 18.8-7.8 33.1-23.4 43z"/></svg>