<svg xmlns="http://www.w3.org/2000/svg" viewBox="0 0 512 512"><path d="M93.8 114.6c-4.7 1.1-1.7.9-5.6 1.4-16.7 3.6-4.3 6.8 5.6-1.4zm293.7 6.7c1.2-.8 5.4-4.9-7.7-8.9.8 4.1-2.7 3.7-2.7 6 9.7 8.8 13.7 24.1 26.1 27.3 2.4-11-11-16.4-15.7-24.4zm-302.6-9.9c1.5 8.9 8.2-9.4 8.3-15.9-2.6 1.5-5.2 3-7.9 4.2 6.3 3.2.8 6.6-6 11.7-13.8 17.2 12.9-13.4 5.6 0zM256 0C114.6 0 0 114.6 0 256c0 141.3 114.6 256 256 256s256-114.7 256-256C512 114.6 397.4 0 256 0zm6.8 85.8l1.2.4c-4.8 6.2 25 24.3 3.6 25.8-20 5.7 8.4-5.2-7.1-3.3 8.2-11.4-6.5-11.6 2.3-22.9zm-121.4 16.4c-7.2-6-29.8 8.2-21.9 4.8 19.6-7.7 1.3.8 5.9 10-4.2 8.7-1.4-8.6-11.8 1.7-7.5 1.7-25.9 18.7-23.6 13.5-.6 8.1-21.9 17.7-24.8 31.2-7 18.7-1.7-.7-3-8-10-12.7-28.2 21.5-22.8 35 9.1-16 8.4-1.7 1.8 5.4 6.7 12.3-6.1 28.3 6.6 37.4 5.6 1.3 16.8-18.8 11.9 2.1 3.4-18.1 9.4 4.3 19.1-.7.6 9.5 6.5 5.1 7.8 16.6 16.2-1.2 31 26.2 11.7 31.4 2.9-.8 8.6 4.3 15.2.4 11.2 8.9 40.7 10 41.5 32-20.3 9.7-5 36.3-22.6 45.8-20.2-3-6.9 24.9-15.4 21.7 3.4 20.1-20.4-2.6-11.2 8.5 16.9 10.4-7.4 8.3.2 15.9-8.5-1.8 5.3 15.8 7.6 22.3 12.2 19.8-10.5-4.4-17.2-11-6.4-12.8-21.5-37.3-25.7-57.4-2.4-29.2-25-48.8-30.2-77.3-5.2-15.9 14.3-41.4 3.8-50.3-9.1-7.1-5.4-31.4-10.8-44.2C47 130.5 89.9 81.2 141.4 52c-5.3 3.9 30.3-10.1 26.2-6.7-1.1 2.5 20.8-9.5 34-11.3-1.4.2-34.3 12-25.2 10.4-14.1 6.9-1.4 3 5.6-.5-14 10.3-24.8 7.4-40.7 16.5-16 4.2-12.7 20.8-24.1 29.1 6.7 1.2 23.5-17.3 33.3-23.8 22.5-10.9-11.4 19.8 10 6.6-7.2 6.7-5.7 17.4-10.1 20.4-2.2-.6 8.7 5.2-9 9.5zm35-46c-2.3 3.1-5.5 9.8-7.4 5.7-2.6 1.3-3.6 6.9-8.5 2.4 2.9-2.1 5.9-7.1.2-4 2.6-2.8 25.8-10.7 24.5-13.7 4.1-2.6 3.7-3.9-1-2.3-2.4-.8 5.7-7.6 16.5-8.5 1.5 0 2.1 1-.6.7-16.3 5-9.3 3.6 1.7 0-4.2 2.4-7.1 3.1-7.8 4.2 11-4-.6 2.9 1.9 2.4-3.1 1.6.5 2.1-5.5 4.4 1.1-.9-9.8 6.5-3.3 4.3-6.3 6-9.1 6.1-10.7 4.4zm9.6 14.3c.2-9.6 14-15.7 12.3-16.2 17-8-5.9.3 7.5-6.9 5-.5 15.6-16.5 30.3-17.5 16.2-4.9 8.7.3 20.7-4.3l-2.4 2c-2.1.3.5 4-7.1 9.6-.8 8.7-14.5 4.7-7.7 14-4.4-6.3-11-.2-2.7.4-8.9 6.8-29.6 8-39.5 19.3-6.4 9.2-12.3 6.3-11.4-.4zm71.1 32c-6.8 16.4-13.4-2.4-1.4-5.4 3 1.6 4.2 2.1 1.4 5.4zm-25.6-32.8c-2-7.4-.4-3.5 11.5-7 8.2 5.9-7.3 9.8-11.5 7zm186.2 293.5c-9.4-16.2 11.4-31.2 18.4-44.8-.9 15.9-2.9 31.6-18.4 44.8zm35.4-185.1c-10.2.8-19.4 3.2-28.6-2.6-21.2-23.2 3.9 26.2 10.9 6 25.2 9.6-.4 51-16.3 46.7-8.9-19.2-19.9-40.3-39.3-49.7 14.9 16.5 22.3 36.8 38.3 51.7 1.1 20.8 22.2-7.6 20.9 8.5 2 27.7-31.3 44.3-25.5 72.1 12.4 25.3-23.9 29.9-19.8 52.6-14.6 16.3-30.2 38.3-56.4 34.8 0-13.8-7-25.5-8.6-39.7-14.2-18 15-37.3-3.1-56.1-20.9-4.7 4.3-33.5-17.2-30.8-12.9-12.9-31.8-.4-50.3-.3-23.2 2.2-47.1-28.5-36.8-50.2-8.2-22.6 26-29.2 26.9-49.1 16.4-13.7 39.7-12 61.9-15.2-1.6 15.9 15.2 16 27.9 21.3 7.1-17.2 29.2 2.8 44.3-8.1 5.2-25.4-14.7-10.1-26.1-18.2-13.8-20.2 29.5-10.4 25-21-16.8-.1-7.3-20.7-19.2-9.2 10.7 1.9-1.9 10.3-1.6.7-16.2-4.7-.6 18.4-8.8 20.6-12.5-5.2-6.6 5.9-5.3 7.6-5.4 11.7-12-17.2-27.3-16.4-15.2-13.9-6 6.3 7.2 9.6-2.8.8 1.6 12.3-1.9 7.4-10.9-15-31.6-25-43.9-6.6-1.3 17.2-36.3 22.1-30.7 2-8.2-20.8 25.4-.6 22.3-17.2-21.6-14.3 5.9-9.7 13.2-23.1 16.6.5.7-13.6 8.5-17.7-.8 15.3 12.7 12.4 23.4 9.5-2.6-8.8 6.4-8.5.9-15.8 24.8-9.9-18.9 4.6-10.1-17.1-10.7-7.4-4.5 16.3 0 18.8.3 7.3-5.9 16.3-14.4 1-12.4 8.1-11.1-8.2-11.9-6.5-1.4-6.3 9.4-6.6 9.5-17.6-.9-7-.7-10.7 4.3-11.1.4 1 20.5 1.3 27.6 9.6-19.4-3.9-2.9 3.2 5.8 7.2-9.3-7.3 3.7 0-3.9-8.3 3 .6-8.3-11.4 3.3-.9-6.3-7.5 12.3-5.3 1.3-10.9 16.1 4.5 6.6.4-2.9-3.7-26.2-15.6 46.3 21.1 16.7 4.8 18.9 4.1-40.4-14.6-13.4-6.4-10.3-4.5-.3-2 9 .9-16.7-5.2-41.7-14.9-40.7-15.3 5.8.4 11.5 1.7 17 3.3 17.1 5.1-4.9-1.2-.2-1.1 58.8 15.1 110.3 54.5 141.6 106 7.3 7.7 27.2 58.6 16.8 36 4.7 18 5.4 37.4 7.9 55.8-5.2-5.8-11-27.2-16-39.1-2.1 4.6-4.5-6.5-12.2-9.5z"/></svg>