<svg xmlns="http://www.w3.org/2000/svg" version="1.2" baseProfile="tiny" viewBox="0 0 18.929672241210938 18.918109893798828"><path d="M9.46 4.393l1-2.934a1.055 1.055 0 1 0-2 0l1 2.934zm-8 4.066a1.055 1.055 0 1 0 0 2l2.933-1-2.934-1zm8 6.066l-1 2.934a1.055 1.055 0 1 0 2 0l-1-2.934zm9.34-5.409a1.055 1.055 0 0 0-1.34-.659l-2.935 1 2.934 1a1.057 1.057 0 0 0 1.341-1.34zM3.095 4.51l2.781 1.367-1.367-2.78a1.057 1.057 0 1 0-1.414 1.413zm-.483 10.382a1.057 1.057 0 0 0 1.896.932l1.367-2.78-2.78 1.366a1.056 1.056 0 0 0-.483.482zm13.21-.483l-2.78-1.367 1.366 2.781a1.056 1.056 0 1 0 1.414-1.414zm.481-10.383a1.057 1.057 0 0 0-1.895-.933L13.04 5.875l2.782-1.368c.202-.1.375-.264.482-.482zM9.46 4.96c-2.48 0-4.5 2.02-4.5 4.5s2.02 4.5 4.5 4.5 4.5-2.019 4.5-4.5-2.019-4.5-4.5-4.5z"/></svg>