<svg xmlns="http://www.w3.org/2000/svg" version="1.2" viewBox="0 0 19.31399917602539 16.25726890563965"><path d="M9.242 16.255a2.978 2.978 0 0 1-2.121-.879L0 8.255l7.121-7.121C8.254 0 10.23 0 11.363 1.134c.566.564.879 1.317.879 2.119 0 .746-.27 1.451-.764 2.002h4.836c1.654 0 3 1.346 3 3s-1.346 3-3 3h-4.836c.493.549.764 1.252.764 1.998a2.977 2.977 0 0 1-.879 2.124 2.983 2.983 0 0 1-2.121.878zm-6.414-8l5.707 5.707a1.023 1.023 0 0 0 1.414 0c.189-.189.293-.441.293-.708s-.104-.517-.291-.705L6.656 9.255h9.658a1.001 1.001 0 0 0 0-2H6.656l3.293-3.293a.996.996 0 0 0 .001-1.413 1.023 1.023 0 0 0-1.415-.001L2.828 8.255z"/></svg>