<svg xmlns="http://www.w3.org/2000/svg" version="1.2" viewBox="0 0 15.011423110961914 21.098501205444336"><path d="M15.006 10.57c0-1.948-.618-3.397-2.066-4.844a1 1 0 0 0-1.414 1.415c1.079 1.078 1.48 2.007 1.48 3.43a5.46 5.46 0 0 1-1.611 3.887c-1.004 1.003-2.078 1.502-3.428 1.593l1.246-1.247a1 1 0 1 0-1.414-1.414l-3.707 3.707 3.707 3.707a.997.997 0 0 0 1.414 0 .999.999 0 0 0 0-1.414l-1.337-1.336c1.923-.082 3.542-.792 4.933-2.18a7.447 7.447 0 0 0 2.197-5.304zm-13 .027c0-1.469.572-2.85 1.61-3.889C4.627 5.7 5.71 5.2 7.075 5.114L5.799 6.39a.999.999 0 0 0 .707 1.708.997.997 0 0 0 .707-.293l3.707-3.707L7.213.39a1 1 0 1 0-1.414 1.414l1.31 1.311c-1.913.086-3.524.796-4.906 2.18a7.447 7.447 0 0 0-2.197 5.302c0 1.948.618 3.397 2.066 4.844a.997.997 0 0 0 1.414 0 1 1 0 0 0 0-1.416c-1.08-1.077-1.48-2.006-1.48-3.428z"/></svg>