<svg xmlns="http://www.w3.org/2000/svg" version="1.2" viewBox="0 0 19.01474380493164 25"><path d="M19.007 12.473c0-2.495-.818-4.426-2.653-6.259a2.99 2.99 0 0 0-1.073-.682l-.946-.946L10.628.879C10.062.312 9.308 0 8.508 0S6.951.312 6.385.879A2.978 2.978 0 0 0 5.507 3c0 .277.037.549.11.809A9.445 9.445 0 0 0 2.79 5.783 9.43 9.43 0 0 0 .007 12.5c0 2.495.818 4.426 2.653 6.259.3.298.652.521 1.034.669l.985.986 3.707 3.707c.566.567 1.32.879 2.121.879s1.555-.312 2.121-.879c.567-.566.88-1.32.88-2.121 0-.286-.04-.566-.118-.834a9.474 9.474 0 0 0 2.833-1.975 9.432 9.432 0 0 0 2.784-6.718zm-9.13 7.484l1.337 1.336A1 1 0 1 1 9.8 22.707L6.093 19 9.8 15.293a.997.997 0 0 1 1.414 0 .999.999 0 0 1 0 1.414l-1.247 1.247c1.351-.091 2.425-.59 3.428-1.593a5.46 5.46 0 0 0 1.611-3.888c0-1.422-.4-2.351-1.48-3.429a1 1 0 1 1 1.415-1.416c1.448 1.447 2.066 2.896 2.066 4.844 0 2.004-.78 3.887-2.197 5.303-1.39 1.39-3.01 2.1-4.933 2.182zM9.111 5.018l-1.31-1.311a1 1 0 1 1 1.413-1.414L12.921 6 9.214 9.707a.997.997 0 0 1-1.414 0 .999.999 0 0 1 0-1.414l1.275-1.275c-1.365.086-2.448.584-3.456 1.593A5.46 5.46 0 0 0 4.007 12.5c0 1.422.401 2.351 1.48 3.429a1 1 0 1 1-1.415 1.416c-1.447-1.448-2.065-2.897-2.065-4.845 0-2.004.78-3.887 2.197-5.303 1.382-1.383 2.993-2.093 4.907-2.179zM6.195 15.222c-.888-.887-1.188-1.574-1.188-2.722 0-1.202.468-2.332 1.318-3.181l.187-.179c.033.481.236.93.581 1.274.378.378.88.586 1.414.586s1.036-.208 1.414-.586l2.34-2.339a1.99 1.99 0 0 0 .56 1.675c.887.887 1.187 1.574 1.187 2.722a4.466 4.466 0 0 1-1.318 3.181l-.188.181a1.987 1.987 0 0 0-.579-1.248c-.38-.378-.882-.586-1.416-.586s-1.036.208-1.414.586l-2.342 2.342a1.994 1.994 0 0 0-.556-1.706z"/></svg>