<svg xmlns="http://www.w3.org/2000/svg" version="1.2" viewBox="0 0 19 19"><path d="M17 0h-5.243a2.993 2.993 0 0 0-2.815 2H2v7.061l.012.12A2.994 2.994 0 0 0 0 12v7h7c1.311 0 2.593-.826 3-2h7V9.939l-.012-.12A2.994 2.994 0 0 0 19 7V0h-2zm-2 15h-5a1 1 0 1 1 0-2h3V9.939a1 1 0 1 1 2 0V15zM4 4h5.061a1 1 0 1 1 0 2H6v3.061a1 1 0 0 1-2 0V4zm13 3a1 1 0 1 1-2 0V5.414l-3.293 3.293a.997.997 0 0 1-1.414 0 .999.999 0 0 1 0-1.414L13.586 4H12a1 1 0 1 1 0-2h5v5zM7 17H2v-5a1 1 0 1 1 2 0v1.586l3.293-3.293a.997.997 0 0 1 1.414 0 .999.999 0 0 1 0 1.414L5.414 15H7a1 1 0 1 1 0 2zm2.414-7.414a1.986 1.986 0 0 0-2.437-.297L7 9.061V7h2.061l.229-.023C9.104 7.284 9 7.633 9 8c0 .534.208 1.036.586 1.414a1.986 1.986 0 0 0 2.437.297L12 9.939V12h-1.939c-.122 0-.24.015-.356.036a1.983 1.983 0 0 0-.291-2.45z"/></svg>