<svg xmlns="http://www.w3.org/2000/svg" version="1.2" viewBox="0 0 16 16.003196716308594"><path d="M8 0C3.589 0 0 3.589 0 8s3.589 8 8 8a7.953 7.953 0 0 0 4.499-1.384 1.001 1.001 0 0 0-1.127-1.653A5.951 5.951 0 0 1 8 14c-3.309 0-6-2.691-6-6s2.691-6 6-6 6 2.691 6 6v.5a1 1 0 0 1-2 0v-3a1 1 0 0 0-1-1 .99.99 0 0 0-.938.688A3.466 3.466 0 0 0 8 4.5C6.07 4.5 4.5 6.07 4.5 8s1.57 3.5 3.5 3.5c1.045 0 1.975-.47 2.616-1.199A2.988 2.988 0 0 0 13 11.5c1.654 0 3-1.346 3-3V8c0-4.411-3.589-8-8-8zm0 9.5c-.827 0-1.5-.673-1.5-1.5S7.173 6.5 8 6.5s1.5.673 1.5 1.5S8.827 9.5 8 9.5z"/></svg>