<svg xmlns="http://www.w3.org/2000/svg" version="1.2" viewBox="0 0 19.073020935058594 19.07337760925293"><path d="M13.068 2.005c1.024 0 2.05.39 2.829 1.17a4.001 4.001 0 0 1 0 5.655l-7.071 7.072c-.778.78-1.804 1.17-2.828 1.17s-2.049-.39-2.828-1.17a4.003 4.003 0 0 1 0-5.656l.807-.807c-.004.805.25 1.524.701 2.125l-.094.096a2.001 2.001 0 0 0 0 2.828c.39.39.901.584 1.414.584s1.024-.195 1.414-.584l2.535-2.535 4.537-4.537a2.005 2.005 0 0 0 0-2.828 2.001 2.001 0 0 0-1.417-.584c-.512 0-1.023.195-1.413.584L7.119 9.125a.5.5 0 1 0 .708.708l2.122-2.12 1.414-1.415c.392.392.586.902.586 1.414 0 .511-.194 1.021-.584 1.41l-2.124 2.125c-.486.487-1.127.73-1.768.73s-1.28-.245-1.769-.73a2.489 2.489 0 0 1-.731-1.769c0-.67.261-1.297.732-1.77l4.534-4.535a3.99 3.99 0 0 1 2.829-1.168m0-2c-1.604 0-3.11.623-4.242 1.755L1.757 8.833C.624 9.964 0 11.471 0 13.075s.624 3.11 1.757 4.243c1.131 1.132 2.639 1.755 4.241 1.755s3.11-.624 4.242-1.757l7.071-7.07a5.954 5.954 0 0 0 1.757-4.243c0-1.603-.623-3.11-1.755-4.24A5.958 5.958 0 0 0 13.068.004z"/></svg>