<svg xmlns="http://www.w3.org/2000/svg" version="1.2" viewBox="0 0 21.033000946044922 16"><path d="M18.033 16h-10c-1.436 0-3.145-.88-3.977-2.046l-2.619-3.667L.249 8.626C.003 8.282 0 7.732.241 7.385l1.204-1.686 2.608-3.653C4.888.879 6.599 0 8.033 0h10c1.654 0 3 1.346 3 3v10c0 1.654-1.346 3-3 3zM2.262 7.999l.806 1.125 2.618 3.667C6.137 13.424 7.256 14 8.034 14h10c.552 0 1-.45 1-1.001V3c0-.551-.448-1-1-1h-10c-.776 0-1.897.576-2.351 1.209L3.075 6.861l-.813 1.138zM12.74 8l2.646-2.646a.502.502 0 0 0 0-.707.502.502 0 0 0-.707 0l-2.646 2.646-2.646-2.646a.5.5 0 0 0-.707.707L11.326 8 8.68 10.646a.5.5 0 0 0 .707.708l2.646-2.647 2.646 2.646a.5.5 0 1 0 .708-.706L12.74 8z"/></svg>