<svg xmlns="http://www.w3.org/2000/svg" version="1.2" viewBox="0 0 20 16"><path d="M17 16H3c-1.654 0-3-1.346-3-3V5c0-1.654 1.346-3 3-3h1.586l1-1C6.165.421 7.182 0 8 0h4c.818 0 1.835.421 2.414 1l1 1H17c1.654 0 3 1.346 3 3v8c0 1.654-1.346 3-3 3zM3 4a1 1 0 0 0-1 1v8a1 1 0 0 0 1 1h14a1 1 0 0 0 1-1V5a1 1 0 0 0-1-1h-2a.996.996 0 0 1-.707-.293L13 2.414C12.799 2.213 12.285 2 12 2H8c-.285 0-.799.213-1 .414L5.707 3.707A.996.996 0 0 1 5 4H3zm7 2c1.379 0 2.5 1.121 2.5 2.5S11.379 11 10 11 7.5 9.879 7.5 8.5 8.621 6 10 6m0-1a3.5 3.5 0 1 0 0 7 3.5 3.5 0 0 0 0-7zm6-.301a1.3 1.3 0 1 0 0 2.6 1.3 1.3 0 0 0 0-2.6z"/></svg>