<svg xmlns="http://www.w3.org/2000/svg" version="1.2" viewBox="0 0 17.33100128173828 20.479000091552734"><path d="M15.56 6.609l.557-.559a2.002 2.002 0 0 0-.135-2.947A13.513 13.513 0 0 0 8.513.006L8.333 0a2.01 2.01 0 0 0-1.35.523c-.414.379-.65.915-.65 1.477v2.229C2.676 5.094 0 8.417 0 12.235c0 4.547 3.688 8.244 8.224 8.244 1.594 0 3.11-.479 4.441-1.345.277.142.583.226.9.226l.109-.004a1.996 1.996 0 0 0 1.453-.75 10.138 10.138 0 0 0 2.204-6.297 10.099 10.099 0 0 0-1.771-5.7zm-7.336 11.87C4.786 18.479 2 15.686 2 12.235a6.229 6.229 0 0 1 5.333-6.164v6.408l4.609 4.754a6.169 6.169 0 0 1-3.718 1.246zm.109-7.454V2a11.535 11.535 0 0 1 6.366 2.641l-6.366 6.384zm.214 1.269l5.019-5.028a8.075 8.075 0 0 1 1.769 5.043 8.066 8.066 0 0 1-1.769 5.051l-5.019-5.066z"/></svg>