<svg xmlns="http://www.w3.org/2000/svg" version="1.2" viewBox="0 0 18.32650375366211 17.20020294189453"><path d="M3.07 13.2a3.014 3.014 0 0 1-1.873-.658 2.978 2.978 0 0 1-1.107-2.01 2.979 2.979 0 0 1 .64-2.207l4-5c.977-1.225 2.882-1.47 4.142-.523l1.674 1.254 2.184-2.729a3 3 0 1 1 4.682 3.747l-4 5c-.977 1.226-2.882 1.471-4.143.526L7.595 9.344l-2.184 2.73a2.977 2.977 0 0 1-2.34 1.126zm4.001-9a.997.997 0 0 0-.78.374l-4 5.001a.99.99 0 0 0-.214.734c.03.266.161.504.37.67a.996.996 0 0 0 1.405-.155L7.247 6.58 10.471 9c.42.316 1.056.231 1.381-.176l4-5a.992.992 0 0 0 .213-.735.994.994 0 0 0-.369-.67.996.996 0 0 0-1.406.156l-3.395 4.242L7.671 4.4a.986.986 0 0 0-.6-.2zm9 13h-14a1 1 0 1 1 0-2h14a1 1 0 1 1 0 2z"/></svg>