<svg xmlns="http://www.w3.org/2000/svg" version="1.2" viewBox="0 0 20.25 14.000999450683594"><path d="M15.25 4l-.352.015C14.074 1.64 11.586 0 9 0 5.691 0 2.75 2.69 2.75 6v.126C1.75 6.571 0 8.14 0 10.001c0 2.206 2.044 4 4.25 4h11c2.757 0 5-2.244 5-5S18.007 4 15.25 4zm0 8.001h-4.5V8.207l2.146 2.146a.502.502 0 0 0 .708 0 .5.5 0 0 0 0-.707l-2.998-3-.164-.107a.499.499 0 0 0-.383 0l-.162.107-3 3a.502.502 0 0 0 0 .707.504.504 0 0 0 .708 0L9.75 8.207v3.794h-5.5c-1.104 0-2-.896-2-2s.896-2 1.908-2.005l1.422.015-.248-1.201A4.004 4.004 0 0 1 9.25 2.001a3.98 3.98 0 0 1 3.93 3.334l.187 1.102 1.073-.306c.312-.089.569-.13.812-.13 1.653 0 3 1.346 3 3s-1.348 3-3.002 3z"/></svg>