<svg xmlns="http://www.w3.org/2000/svg" version="1.2" viewBox="0 0 22.827999114990234 12.257267951965332"><path d="M7.242 12.255a2.978 2.978 0 0 1-2.121-.879L0 6.255l5.121-5.121C6.254 0 8.233 0 9.364 1.135a3.002 3.002 0 0 1-.001 4.241l-.878.879.878.879a3.002 3.002 0 0 1-2.121 5.121zm-4.414-6l3.707 3.707c.38.379 1.039.377 1.413.001a1.001 1.001 0 0 0 .001-1.415L5.657 6.255l2.292-2.293a1 1 0 0 0 0-1.414 1.023 1.023 0 0 0-1.414 0L2.828 6.255zm12.758 6a3.002 3.002 0 0 1-2.121-5.121l.878-.879-.878-.879a3.002 3.002 0 0 1 0-4.242c1.129-1.133 3.109-1.134 4.242 0l5.121 5.121-5.121 5.121a2.978 2.978 0 0 1-2.121.879zm-.001-10a1.001 1.001 0 0 0-.706 1.707l2.292 2.293-2.292 2.293a1 1 0 0 0 0 1.414 1.022 1.022 0 0 0 1.414 0L20 6.255l-3.707-3.707a.997.997 0 0 0-.708-.293z"/></svg>