<svg xmlns="http://www.w3.org/2000/svg" version="1.2" viewBox="0 0 14.040000915527344 15"><path d="M4.908 12.548l.371 1.482c.133.533.692.97 1.242.97h1c.55 0 1.109-.437 1.242-.97l.371-1.482a.961.961 0 0 1 1.203-.694l1.467.42c.529.151 1.188-.114 1.462-.591l.5-.867c.274-.477.177-1.179-.219-1.562l-1.098-1.061a.96.96 0 0 1 .001-1.39l1.096-1.061c.396-.382.494-1.084.22-1.561l-.501-.867c-.275-.477-.933-.742-1.461-.591l-1.467.42a.963.963 0 0 1-1.204-.694l-.37-1.48C8.63.437 8.071 0 7.521 0h-1c-.55 0-1.109.437-1.242.97l-.37 1.48a.964.964 0 0 1-1.204.695l-1.467-.42c-.529-.152-1.188.114-1.462.59l-.5.867c-.274.477-.177 1.179.22 1.562l1.096 1.059a.965.965 0 0 1 0 1.391L.494 9.255C.099 9.638 0 10.34.275 10.817l.501.867c.274.477.933.742 1.462.591l1.467-.42a.96.96 0 0 1 1.203.693zM7.021 5.5a2 2 0 1 1 0 4 2 2 0 0 1 0-4z"/></svg>