<svg xmlns="http://www.w3.org/2000/svg" version="1.2" viewBox="0 0 17.908000946044922 18"><path d="M17.908 5.5l-2.754-2.607A3.417 3.417 0 0 0 12.917 2H10v-.5a1.5 1.5 0 0 0-3 0V2H3.5C1.57 2 0 3.57 0 5.5c0 1.396.828 2.596 2.016 3.157L.172 10.5l2.561 2.561c.57.57 1.46.939 2.268.939h2.2l.8 4h1l.8-4h2.7c1.931 0 3.5-1.57 3.5-3.5 0-.902-.353-1.718-.915-2.339l.072-.056 2.75-2.605zM12.5 12H5c-.275 0-.658-.158-.854-.354L3 10.5l1.146-1.146C4.341 9.159 4.723 9 5 9h7.5a1.5 1.5 0 0 1 0 3zm1.279-5.344c-.199.19-.586.344-.862.344H3.5a1.5 1.5 0 0 1 0-3h9.417c.276 0 .663.154.862.344L15 5.5l-1.221 1.156z"/></svg>