<svg xmlns="http://www.w3.org/2000/svg" version="1.2" viewBox="0 0 18 20"><path d="M13.707 5.404c-.189-.188-.448-.283-.707-.283s-.518.095-.707.283L10 7.697V1a1 1 0 0 0-2 0v6.697L5.707 5.404a.997.997 0 0 0-1.414 0 1 1 0 0 0 0 1.414L9 11.5l4.709-4.684a1 1 0 0 0-.002-1.412zM17.987 14a.98.98 0 0 0-.039-.316l-2-6A.998.998 0 0 0 15 7h-.219c-.094.188-.21.368-.367.525L12.932 9h1.348l1.667 5H2.054l1.667-5h1.348L3.586 7.525A1.96 1.96 0 0 1 3.219 7H3a.998.998 0 0 0-.948.684l-2 6A.98.98 0 0 0 .013 14C0 14 0 19 0 19a1 1 0 0 0 1 1h16a1 1 0 0 0 1-1s0-5-.013-5z"/></svg>