<svg xmlns="http://www.w3.org/2000/svg" version="1.2" viewBox="0 0 19.097946166992188 18"><path d="M18.711 6.796C18.67 6.755 14.656 2.7 12.729.65A2.277 2.277 0 0 0 11.143 0C9.961 0 9 .896 9 2H1a1 1 0 0 0-1 1v14a1 1 0 0 0 1 1h14a1 1 0 0 0 1-1v-6.045a835.426 835.426 0 0 1 2.711-2.751.999.999 0 0 0 0-1.408zm-7.432 6.145l-.136.059-.144-.04V9h-1c-1.771.034-3.336.68-4.753 1.958C5.676 8.743 6.846 6 9.999 6h1V2.042L11.143 2l.154.05c1.436 1.525 4.051 4.187 5.297 5.45-.253.257-4.342 4.422-5.315 5.441zM2 16V4h8v1c-4.66 0-6 4.871-6 8.5v.5c1.691-2.578 3.6-3.953 6-4v3c0 .551.512 1 1.143 1 .364 0 .676-.158.883-.391.539-.565 1.242-1.291 1.976-2.043V16H2z"/></svg>