<svg xmlns="http://www.w3.org/2000/svg" version="1.2" viewBox="0 0 16 20"><path d="M14 14.184V5.816A2.997 2.997 0 0 0 16 3c0-1.654-1.346-3-3-3s-3 1.346-3 3c0 1.302.839 2.401 2 2.815v8.369A2.997 2.997 0 0 0 10 17c0 1.654 1.346 3 3 3s3-1.346 3-3a2.997 2.997 0 0 0-2-2.816zM13 2a1.001 1.001 0 1 1-1 1c0-.551.448-1 1-1zm0 16a1.001 1.001 0 0 1 0-2 1.001 1.001 0 0 1 0 2zM6 3c0-1.654-1.346-3-3-3S0 1.346 0 3c0 1.302.839 2.401 2 2.815v8.369A2.997 2.997 0 0 0 0 17c0 1.654 1.346 3 3 3s3-1.346 3-3a2.997 2.997 0 0 0-2-2.816V5.816A2.997 2.997 0 0 0 6 3zM3 2a1.001 1.001 0 1 1-1 1c0-.551.448-1 1-1zm0 16a1.001 1.001 0 0 1 0-2 1.001 1.001 0 0 1 0 2z"/></svg>