<svg xmlns="http://www.w3.org/2000/svg" version="1.2" viewBox="0 0 23 17.000999450683594"><path d="M11.5 10c2.764 0 5-2.238 5-5s-2.236-5-5-5-5 2.238-5 5 2.236 5 5 5zm0-8c1.654 0 3 1.346 3 3s-1.346 3-3 3-3-1.346-3-3 1.346-3 3-3zm8 9a2.5 2.5 0 1 0 0-5 2.5 2.5 0 0 0 0 5zm0-4c.827 0 1.5.673 1.5 1.5s-.673 1.5-1.5 1.5S18 9.327 18 8.5 18.673 7 19.5 7zm0 4.59c-1.331 0-2.332.406-2.917.969C15.468 11.641 13.705 11 11.5 11c-2.266 0-3.995.648-5.092 1.564-.596-.565-1.608-.975-2.908-.975-2.188 0-3.5 1.091-3.5 2.183 0 .545 1.312 1.092 3.5 1.092.604 0 1.146-.051 1.623-.133l-.04.27c0 1 2.405 2 6.417 2 3.762 0 6.417-1 6.417-2l-.021-.255c.463.073.996.118 1.604.118 2.051 0 3.5-.547 3.5-1.092 0-1.092-1.373-2.182-3.5-2.182zm-16 2.273c-1.309 0-2.068-.207-2.417-.354.239-.405 1.003-.92 2.417-.92 1.107 0 1.837.351 2.208.706l-.235.344c-.452.119-1.108.224-1.973.224zm8 1.137c-2.163 0-3.501-.312-4.184-.561C7.837 13.761 9.234 13 11.5 13c2.169 0 3.59.761 4.148 1.425-.755.27-2.162.575-4.148.575zm8-1.137c-.914 0-1.546-.103-1.973-.213a3.42 3.42 0 0 0-.248-.375c.356-.345 1.071-.685 2.221-.685 1.324 0 2.141.501 2.404.911-.39.163-1.205.362-2.404.362zM3.5 11a2.5 2.5 0 1 0 0-5 2.5 2.5 0 0 0 0 5zm0-4C4.327 7 5 7.673 5 8.5S4.327 10 3.5 10 2 9.327 2 8.5 2.673 7 3.5 7z"/></svg>