<svg xmlns="http://www.w3.org/2000/svg" version="1.2" viewBox="0 0 18 18"><path d="M18 9c0-4.963-4.037-9-9-9S0 4.037 0 9v2.6l.023.113c-.013.243-.023.5-.023.787v2C0 16.43 1.57 18 3.5 18S7 16.43 7 14.5v-2c0-1.511-.83-2.79-1.982-3.278C5.113 7.1 6.855 5.399 9 5.399s3.887 1.7 3.982 3.822C11.83 9.711 11 10.989 11 12.5v2c0 1.93 1.57 3.5 3.5 3.5s3.5-1.57 3.5-3.5v-2c0-.287-.01-.544-.023-.787L18 11.6V9zM2 9c0-1.586.538-3.046 1.432-4.221l.89.889A5.959 5.959 0 0 0 3.02 9C3 9 3 10 3 10H2V9zm3 5.5c0 .827-.673 1.5-1.5 1.5S2 15.327 2 14.5v-2c0-.666.057-1.176.114-1.5H4c.473 0 1 .616 1 1.5v2zm7.77-9.338l-.354.354C11.504 4.603 10.291 4.1 9 4.1s-2.504.503-3.417 1.416l-.354-.354-1.141-1.141-.627-.626A7.78 7.78 0 0 1 9 1.1c2.093 0 4.06.815 5.539 2.295l-.627.626-1.142 1.141zM16 14.5c0 .827-.673 1.5-1.5 1.5s-1.5-.673-1.5-1.5v-2c0-.884.527-1.5 1-1.5h1.886c.057.324.114.834.114 1.5v2zm0-4.5h-1V9a6.129 6.129 0 0 0-1.322-3.332l.891-.889A6.952 6.952 0 0 1 16 9v1z"/></svg>