<svg xmlns="http://www.w3.org/2000/svg" version="1.2" viewBox="0 0 20 16"><path d="M6.5 3.999c.827 0 1.5.673 1.5 1.5s-.673 1.5-1.5 1.5S5 6.326 5 5.499s.673-1.5 1.5-1.5m0-1a2.5 2.5 0 1 0 0 5 2.5 2.5 0 0 0 0-5zm7.5 5c.45.051 1.27 1.804 1.779 4.001H4.387c.434-1.034 1.055-2.001 1.612-2.001.806 0 1.125.185 1.53.42.447.258 1.006.58 1.97.58 1.138 0 1.942-.885 2.653-1.666.627-.687 1.218-1.334 1.848-1.334m0-1c-2 0-3 3-4.5 3s-1.499-1-3.5-1c-2 0-3.001 4-3.001 4H17s-1-6-3-6zM20 2a2 2 0 0 0-2-2H2a2 2 0 0 0-2 2v12a2 2 0 0 0 2 2h16a2 2 0 0 0 2-2V2zm-2 12H2V2h16.003L18 14z"/></svg>