<svg xmlns="http://www.w3.org/2000/svg" version="1.2" viewBox="0 0 21.508573532104492 12.656841278076172"><path d="M15.182 2.007c1.152 0 2.237.45 3.053 1.264.815.816 1.266 1.9 1.266 3.056s-.45 2.24-1.268 3.056c-.813.815-1.898 1.266-3.053 1.266s-2.238-.449-3.055-1.266l-1.376-1.32-1.395 1.338a4.27 4.27 0 0 1-3.036 1.248 4.281 4.281 0 0 1-3.054-1.267C2.449 8.57 1.999 7.483 1.999 6.33s.45-2.237 1.267-3.056a4.295 4.295 0 0 1 3.053-1.266c1.154 0 2.239.45 3.055 1.266l1.375 1.32 1.396-1.34a4.279 4.279 0 0 1 3.037-1.246m0-2c-1.679 0-3.25.645-4.433 1.813A6.252 6.252 0 0 0 6.319.007 6.266 6.266 0 0 0 1.852 1.86C.658 3.052 0 4.64 0 6.33s.658 3.273 1.852 4.467A6.278 6.278 0 0 0 6.32 12.65a6.25 6.25 0 0 0 4.431-1.814 6.249 6.249 0 0 0 4.431 1.814 6.27 6.27 0 0 0 4.469-1.854 6.263 6.263 0 0 0 1.852-4.467 6.285 6.285 0 0 0-1.852-4.47 6.283 6.283 0 0 0-4.469-1.85zm-8.863 5.5c.225 0 .426.088.612.271l.57.548-.603.58a.814.814 0 0 1-.578.222.815.815 0 0 1-.58-.223.812.812 0 0 1-.24-.578c0-.22.084-.422.243-.58a.803.803 0 0 1 .576-.24m0-1c-.486 0-.942.19-1.285.533a1.809 1.809 0 0 0-.535 1.287c0 .484.189.941.533 1.285.344.344.815.516 1.287.516a1.81 1.81 0 0 0 1.285-.516l1.339-1.285-1.321-1.27a1.819 1.819 0 0 0-1.303-.55zm8.863 1.017a.81.81 0 0 1 .576.22c.158.158.242.358.242.581s-.083.422-.243.581a.802.802 0 0 1-.571.228.858.858 0 0 1-.617-.26l-.571-.549.603-.578a.814.814 0 0 1 .581-.223m0-1c-.472 0-.943.172-1.287.516l-1.34 1.285 1.322 1.27a1.85 1.85 0 0 0 1.311.54 1.798 1.798 0 0 0 1.813-1.809 1.81 1.81 0 0 0-.532-1.287 1.821 1.821 0 0 0-1.287-.515z"/></svg>