<svg xmlns="http://www.w3.org/2000/svg" version="1.2" viewBox="0 0 17.505176544189453 8.649249076843262"><path d="M13.185.004A4.282 4.282 0 0 0 10.15 1.25L8.753 2.59 7.378 1.27A4.287 4.287 0 0 0 4.323.004 4.289 4.289 0 0 0 1.27 1.27 4.288 4.288 0 0 0 .003 4.325c0 1.152.45 2.238 1.266 3.053a4.285 4.285 0 0 0 3.054 1.266A4.272 4.272 0 0 0 7.36 7.396l1.395-1.338 1.376 1.32c.815.816 1.901 1.266 3.055 1.266s2.238-.449 3.053-1.266c.817-.814 1.267-1.9 1.267-3.055s-.449-2.238-1.266-3.055A4.296 4.296 0 0 0 13.185.004zM5.61 5.61c-.687.688-1.884.688-2.572 0a1.807 1.807 0 0 1-.533-1.285c0-.486.19-.94.535-1.287.342-.344.8-.533 1.284-.533s.942.19 1.305.551l1.321 1.27L5.61 5.61zm8.861 0c-.687.69-1.866.705-2.59-.018l-1.32-1.27 1.338-1.285c.688-.688 1.886-.688 2.573-.002.344.346.533.801.533 1.287s-.19.944-.534 1.288z"/></svg>