<svg xmlns="http://www.w3.org/2000/svg" version="1.2" viewBox="0 0 19.670000076293945 17.490001678466797"><path d="M19 11.89l-5.91-9.85C12.31.74 11.13 0 9.83 0S7.35.74 6.57 2.03L.66 11.89C.22 12.62 0 13.38 0 14.1c0 .57.14 1.13.42 1.62.64 1.12 1.88 1.77 3.41 1.77h12c1.53 0 2.77-.65 3.41-1.77.28-.49.42-1.02.42-1.58.01-.74-.21-1.51-.66-2.25zM9.83 4.94c.85 0 1.55.7 1.55 1.55 0 .85-.69 1.55-1.55 1.55-.85 0-1.55-.7-1.55-1.55 0-.86.69-1.55 1.55-1.55zm1.69 8.46c-.03.04-.8.92-2.07.92H9.3c-.51-.03-.93-.25-1.18-.63-.31-.47-.36-1.11-.12-1.82l.41-1.22c.23-.68.01-.79-.11-.85l-.14-.02c-.25 0-.6.15-.71.21-.1.05-.23.03-.31-.07-.07-.1-.07-.23.01-.32.03-.04.87-.99 2.22-.91.51.03.93.25 1.18.63.32.47.36 1.11.12 1.83l-.41 1.22c-.23.68-.01.79.11.85l.14.02c.25 0 .6-.15.71-.2.11-.06.23-.03.31.07.07.07.07.2-.01.29z"/></svg>