<svg xmlns="http://www.w3.org/2000/svg" version="1.2" viewBox="0 0 15 21"><path d="M7.5 4.5a.5.5 0 0 0 0 1c1.083 0 1.964.881 1.964 1.964a.5.5 0 0 0 1 0A2.968 2.968 0 0 0 7.5 4.5zm0-4.5C3.364 0 0 3.364 0 7.5c0 1.486.44 2.922 1.274 4.165l.08.135C3.179 14.406 3.5 15.23 3.5 16v3a1 1 0 0 0 1 1h2c0 .26.11.52.29.71.19.18.45.29.71.29.26 0 .52-.11.71-.29.18-.19.29-.45.29-.71h2a1 1 0 0 0 1-1v-3c0-.782.319-1.61 2.132-4.199A7.453 7.453 0 0 0 15 7.5C15 3.364 11.636 0 7.5 0zm2 18h-4v-1h4v1zm2.495-7.347C10.529 12.746 9.852 13.942 9.61 15H8.5v-2a1 1 0 0 0-2 0v2H5.387c-.24-1.03-.898-2.2-2.306-4.22l-.077-.129A5.454 5.454 0 0 1 2 7.5C2 4.467 4.467 2 7.5 2S13 4.467 13 7.5a5.463 5.463 0 0 1-1.005 3.153z"/></svg>