<svg xmlns="http://www.w3.org/2000/svg" version="1.2" viewBox="0 0 18.204280853271484 18.202716827392578"><path d="M15.102 2.003a1.1 1.1 0 0 1 .777 1.878l-1.72 1.723.307.308c.585.584.906 1.362.906 2.192s-.32 1.607-.906 2.19l-4.172 4.173c-.584.584-1.36.906-2.19.906s-1.608-.322-2.192-.906l-.31-.31-1.723 1.724c-.215.215-.495.322-.777.322s-.562-.107-.777-.322a1.1 1.1 0 0 1 0-1.557l1.72-1.72-.308-.31c-.583-.583-.905-1.36-.905-2.19s.321-1.608.905-2.192L7.91 3.739c.584-.584 1.387-.875 2.191-.875s1.607.29 2.191.875l.31.308 1.723-1.723c.215-.215.495-.321.777-.321m0-2c-.828 0-1.605.32-2.19.908l-.493.49a5.223 5.223 0 0 0-2.316-.538c-1.363 0-2.677.533-3.605 1.46L2.326 6.498a5.057 5.057 0 0 0-1.494 3.607c0 .822.192 1.616.558 2.327l-.479.48a3.078 3.078 0 0 0-.909 2.193c0 .827.322 1.605.908 2.19.584.587 1.363.909 2.191.909s1.605-.322 2.191-.908l.48-.48a5.082 5.082 0 0 0 2.328.559 5.06 5.06 0 0 0 3.605-1.492l4.172-4.172a5.06 5.06 0 0 0 1.492-3.605c0-.824-.192-1.617-.558-2.328l.48-.48a3.076 3.076 0 0 0 .911-2.193c0-.828-.322-1.606-.908-2.192a3.073 3.073 0 0 0-2.192-.91zm-6.1 7.169c.017.535.233 1.036.613 1.416.381.38.881.598 1.416.614L9.2 11.032a2.089 2.089 0 0 0-.613-1.414 2.088 2.088 0 0 0-1.416-.614l1.832-1.832m1.1-2.14a.898.898 0 0 0-.637.263L5.293 9.467a.894.894 0 0 0-.26.637c0 .24.092.467.26.635l.31.308.722-.723c.215-.215.495-.321.777-.321s.562.106.777.32a1.1 1.1 0 0 1 0 1.558l-.72.723.308.308c.168.168.401.253.636.253s.468-.084.637-.253l4.172-4.173a.893.893 0 0 0 .26-.635.894.894 0 0 0-.26-.637l-.31-.31-.723.724c-.215.215-.495.322-.777.322s-.562-.107-.777-.322a1.1 1.1 0 0 1 0-1.557l.72-.72-.307-.31a.897.897 0 0 0-.636-.261z"/></svg>