<svg xmlns="http://www.w3.org/2000/svg" version="1.2" viewBox="0 0 15.999466896057129 19.004932403564453"><path d="M8 2.006c1.609 0 3.12.614 4.254 1.73C13.38 4.843 14 6.315 14 7.876s-.62 3.03-1.745 4.139L8 16.199l-4.254-4.186C2.62 10.906 2 9.437 2 7.873s.62-3.031 1.745-4.14A6.04 6.04 0 0 1 8 2.006m0-2A8.04 8.04 0 0 0 2.343 2.31a7.782 7.782 0 0 0 0 11.13L8 19.006l5.657-5.565a7.78 7.78 0 0 0 0-11.13A8.039 8.039 0 0 0 8 .007zm0 5.499c.668 0 1.296.26 1.768.73a2.502 2.502 0 0 1 0 3.538c-.473.472-1.1.73-1.768.73s-1.295-.26-1.768-.73a2.502 2.502 0 0 1 0-3.537A2.49 2.49 0 0 1 8 5.505m0-1a3.501 3.501 0 1 0 2.475 5.975 3.503 3.503 0 0 0 0-4.951A3.489 3.489 0 0 0 8 4.505z"/></svg>