<svg xmlns="http://www.w3.org/2000/svg" version="1.2" viewBox="0 0 20 16.69999885559082"><path d="M18.5 4.2S12.7 1.3 11.6.7s-1.7-.7-3 0C7.3 1.3 1.9 4 1.9 4 1.1 4.4.4 5.2.4 6s.2 1.2.2 1.2-.1.3-.3 1.5C0 9.9 0 11.4 0 12c0 1.5 1.3 2.6 2.2 2.7.9.1 1.6-.1 1.6-.1 1.4 1.3 3.7 2.1 6.4 2.1 4.4 0 7.8-2.2 7.8-5 0-1.1-.4-2.7-.4-2.7l1.1-.6C19.6 7.9 20 7 20 6.1c-.1-.8-.6-1.5-1.5-1.9zm-8.2 10.4c-3.2 0-5.8-1.3-5.8-3L5 8.8l4.2 2.1c.6.3 1.5.3 2.2 0l4.3-2.1.4 2.8c0 1.6-2.5 3-5.8 3zm7.3-8.1L11 9.9c-.4.2-1 .2-1.4 0L3.9 7c-.2.5-.3 1.2-.3 2 0 1.4.2 2.4.2 2.9s-.3.8-.7.8H3c-.4 0-.8-.3-.8-.8s0-1.6.3-3.1c.2-.9.4-1.7.6-2.2l-.2-.1c-.4-.2-.4-.5 0-.7l6.7-3.4c.4-.2.9-.2 1.3 0s6.7 3.4 6.7 3.4c.4.2.4.5 0 .7z"/></svg>