<svg xmlns="http://www.w3.org/2000/svg" version="1.2" viewBox="0 0 19.236740112304688 19.105552673339844"><path d="M19.104 4.54c0-1.213-.472-2.353-1.329-3.208S15.78.003 14.568.003a4.5 4.5 0 0 0-3.18 1.304c-.027.025-7.967 7.964-7.967 7.964-.373.373-.717.91-.967 1.514-.195.473-1.979 5.863-2.336 6.94a1 1 0 0 0 1.263 1.262c1.076-.355 6.465-2.14 6.938-2.336.603-.248 1.14-.592 1.515-.967l2.157-2.156.076.01c.64 0 1.28-.244 1.77-.732l4.5-4.5a2.487 2.487 0 0 0 .587-2.572c.107-.386.18-.783.18-1.195zM7.24 14.917c-.406.143-1.145.393-2.038.691l-1.704-1.704c.301-.894.551-1.634.691-2.038l3.051 3.051zm-4.097.047l1 1-1.499.498.5-1.498zm7.698-3.113l-2.42 2.42-.235.18-3.53-3.529.18-.234 7.131-7.13 2.731 2.73-3.69 3.69c-.513.512-.549 1.29-.167 1.873zm6.08-4.959l-4.5 4.5a.502.502 0 0 1-.708 0 .5.5 0 0 1 0-.707l4.5-4.5a.502.502 0 0 1 .707 0 .499.499 0 0 1 .001.707zm.107-1.764a1.489 1.489 0 0 0-1.52.35l-.103.102-2.73-2.73.077-.079c.984-.98 2.652-.98 3.608-.023a2.52 2.52 0 0 1 .743 1.793c.001.2-.03.394-.075.587z"/></svg>