<svg xmlns="http://www.w3.org/2000/svg" version="1.2" viewBox="0 0 18.440425872802734 18.440425872802734"><path d="M18 4.32L14.121.44A1.497 1.497 0 0 0 12 .44L1.061 11.38c-.293.292-.558.726-.75 1.187-.192.463-.311.96-.311 1.373v4.5h4.5c.414 0 .908-.119 1.371-.31.463-.193.896-.458 1.189-.75L18 6.44a1.497 1.497 0 0 0 0-2.12zM2.768 12.5l8.293-8.293 1.232 1.232L4 13.733l-1.232-1.232zm1.732 3.94H3l-1-1v-1.5c0-.078.033-.306.158-.606.01-.02 2.967 2.938 2.967 2.938-.322.134-.548.167-.625.167zm1.439-.769L4.707 14.44 13 6.147l1.232 1.232-8.293 8.293zm9-9L11.767 3.5l1.293-1.293 3.17 3.172-1.291 1.293z"/></svg>