<svg xmlns="http://www.w3.org/2000/svg" version="1.2" viewBox="0 0 17.999998092651367 14.996999740600586"><path d="M17.121 2.118c-.566-.567-1.32-.879-2.121-.879s-1.555.312-2.121.879c-.233.233-.546.362-.879.362s-.646-.129-.879-.362C9.755.752 7.936 0 6 0S2.245.752.879 2.118C.312 2.685 0 3.438 0 4.239S.312 5.794.879 6.36c.566.567 1.32.879 2.121.879v4.758c0 1.654 1.346 3 3 3s3-1.346 3-3c0 1.654 1.346 3 3 3s3-1.346 3-3V7.831a7.21 7.21 0 0 0 2.12-1.47c.568-.567.88-1.321.88-2.122s-.312-1.554-.879-2.121zm-1.414 2.828A5.222 5.222 0 0 1 13 6.383v5.614a1 1 0 1 1-2 0V6.383a5.215 5.215 0 0 1-2.707-1.437A3.19 3.19 0 0 0 7 4.171v7.826a1 1 0 1 1-2 0V4.17a3.186 3.186 0 0 0-1.293.776.997.997 0 0 1-1.414 0 .999.999 0 0 1 0-1.414C3.314 2.511 4.657 2 6 2s2.685.511 3.707 1.532A3.235 3.235 0 0 0 12 4.48c.831 0 1.661-.316 2.293-.948a.997.997 0 0 1 1.414 0 .999.999 0 0 1 0 1.414z"/></svg>