<svg xmlns="http://www.w3.org/2000/svg" version="1.2" viewBox="0 0 16.119281768798828 16.12228012084961"><path d="M11.729.393A1 1 0 0 0 10.315.39a1.004 1.004 0 0 0-.225.355C9.258 2.48 8.342 3.46 7.186 4.037 5.889 4.677 4.4 5.122 2 5.122a1.006 1.006 0 0 0-.923.617 1.001 1.001 0 0 0 .217 1.09l3.243 3.243L0 16.122l6.05-4.537 3.242 3.242a.975.975 0 0 0 .326.217c.122.051.252.078.382.078s.26-.027.382-.078a.996.996 0 0 0 .618-.922c0-2.4.444-3.889 1.083-5.166.577-1.156 1.556-2.072 3.293-2.904a.983.983 0 0 0 .354-.225 1 1 0 0 0-.004-1.414L11.729.393z"/></svg>