<svg xmlns="http://www.w3.org/2000/svg" version="1.2" viewBox="0 0 20.000001907348633 20"><path d="M14.5 2C16.43 2 18 3.57 18 5.5S16.43 9 14.5 9H13v2h1.5c1.93 0 3.5 1.57 3.5 3.5S16.43 18 14.5 18 11 16.43 11 14.5V13H9v1.5C9 16.43 7.43 18 5.5 18S2 16.43 2 14.5 3.57 11 5.5 11H7V9H5.5C3.57 9 2 7.43 2 5.5S3.57 2 5.5 2 9 3.57 9 5.5V7h2V5.5C11 3.57 12.57 2 14.5 2M13 7h1.5A1.501 1.501 0 1 0 13 5.5V7M5.5 7H7V5.5a1.501 1.501 0 0 0-3 0C4 6.326 4.673 7 5.5 7m9 9a1.501 1.501 0 0 0 0-3H13v1.5c0 .826.673 1.5 1.5 1.5m-9 0c.827 0 1.5-.674 1.5-1.5V13H5.5a1.501 1.501 0 0 0 0 3m9-16A5.498 5.498 0 0 0 10 2.341 5.498 5.498 0 0 0 5.5 0 5.506 5.506 0 0 0 0 5.5C0 7.357.926 9.004 2.341 10A5.498 5.498 0 0 0 0 14.5C0 17.532 2.467 20 5.5 20a5.498 5.498 0 0 0 4.5-2.341A5.498 5.498 0 0 0 14.5 20c3.033 0 5.5-2.468 5.5-5.5a5.498 5.498 0 0 0-2.341-4.5A5.498 5.498 0 0 0 20 5.5C20 2.468 17.533 0 14.5 0zM11 9H9v2h2z"/></svg>