<svg xmlns="http://www.w3.org/2000/svg" version="1.2" viewBox="0 0 13 14.577590942382812"><path d="M6.5 14.573a6.46 6.46 0 0 1-4.596-1.903C.677 11.442 0 9.81 0 8.073s.677-3.369 1.904-4.597A1 1 0 1 1 3.318 4.89C2.468 5.741 2 6.871 2 8.073s.468 2.333 1.318 3.183c.85.85 1.979 1.317 3.182 1.317s2.332-.468 3.182-1.317c.851-.85 1.318-1.98 1.318-3.183S10.532 5.74 9.682 4.89a1 1 0 1 1 1.414-1.414C12.323 4.705 13 6.337 13 8.073s-.677 3.369-1.904 4.597A6.46 6.46 0 0 1 6.5 14.573zM6.5 7a1 1 0 0 1-1-1V1a1 1 0 1 1 2 0v5a1 1 0 0 1-1 1z"/></svg>