<svg xmlns="http://www.w3.org/2000/svg" version="1.2" viewBox="0 0 17.005582809448242 18.496522903442383"><path d="M14.516 3.986a2.984 2.984 0 0 0-3.01-.73v-.332a3.001 3.001 0 0 0-6 0v.332a2.99 2.99 0 0 0-3.01.73 8.45 8.45 0 0 0-2.49 6.01 8.45 8.45 0 0 0 2.49 6.012c1.604 1.605 3.739 2.489 6.01 2.489s4.405-.884 6.01-2.49c1.605-1.604 2.49-3.74 2.49-6.01s-.885-4.405-2.49-6.011zm-7.01-1.062a1 1 0 1 1 2 0v5a1 1 0 1 1-2 0v-5zm-1 3.803v1.197a2 2 0 0 0 4 0V6.742c.095.284.248.554.475.78.66.66 1.025 1.54 1.025 2.475s-.364 1.814-1.025 2.476c-1.322 1.32-3.627 1.32-4.95 0-.661-.662-1.025-1.541-1.025-2.476S5.37 8.183 6.03 7.52c.23-.23.383-.504.475-.794zm6.596 7.867c-1.228 1.228-2.86 1.903-4.596 1.903s-3.368-.676-4.596-1.903c-1.227-1.228-1.904-2.86-1.904-4.597S2.683 6.627 3.91 5.4a1 1 0 1 1 1.414 1.414c-.85.85-1.318 1.98-1.318 3.183s.468 2.333 1.318 3.183c.85.85 1.979 1.317 3.182 1.317s2.332-.468 3.182-1.317c.85-.85 1.318-1.98 1.318-3.183s-.468-2.333-1.318-3.183A1 1 0 1 1 13.102 5.4c1.227 1.229 1.904 2.86 1.904 4.597s-.677 3.369-1.904 4.597z"/></svg>