<svg xmlns="http://www.w3.org/2000/svg" version="1.2" viewBox="0 0 17 19"><path d="M14 3V1a1 1 0 0 0-1-1H4a1 1 0 0 0-1 1v2C1.346 3 0 4.346 0 6v10c0 1.654 1.346 3 3 3h11c1.654 0 3-1.346 3-3V6c0-1.654-1.346-3-3-3zM5 2h7v5H5V2zM3 5v3a1 1 0 0 0 1 1h9a1 1 0 0 0 1-1V5c.551 0 1 .449 1 1v2.5c0 .827-.673 1.5-1.5 1.5h-10C2.673 10 2 9.327 2 8.5V6c0-.551.449-1 1-1zm11 12H3c-.551 0-1-.449-1-1v-5.513c.419.318.935.513 1.5.513h10c.565 0 1.081-.195 1.5-.513V16c0 .551-.449 1-1 1zM10.5 5h-4a.5.5 0 0 0 0 1h4a.5.5 0 0 0 0-1zm1.5 9H5a.5.5 0 0 0 0 1h7a.5.5 0 0 0 0-1zM10.5 3h-4a.5.5 0 0 0 0 1h4a.5.5 0 0 0 0-1z"/></svg>