<svg xmlns="http://www.w3.org/2000/svg" version="1.2" viewBox="0 0 17.00440216064453 19.5"><path d="M17.004 8.75V7c0-1.93-1.57-3.5-3.5-3.5h-.759c-.14-1.982-1.953-3.5-4.24-3.5s-4.1 1.518-4.242 3.5h-.759c-1.93 0-3.5 1.57-3.5 3.5v1.75c0 1.012.514 1.847 1.295 2.246a2.356 2.356 0 0 0-.894.825 2.664 2.664 0 0 0-.4 1.429V16c0 1.93 1.57 3.5 3.5 3.5h2.75c.975 0 1.83-.497 2.241-1.299l.036.066c.435.772 1.266 1.233 2.222 1.233h2.75c1.93 0 3.5-1.57 3.5-3.5v-2.75c0-1.013-.515-1.849-1.297-2.247.776-.411 1.297-1.256 1.297-2.253zm-2 7.25c0 .825-.675 1.5-1.5 1.5h-2.75c-.356 0-.724-.216-.39-.766.245-.28.39-.619.39-.984 0-.967-1.007-1.75-2.25-1.75s-2.25.783-2.25 1.75c0 .3.095.576.255.823.507.673.136.927-.255.927h-2.75c-.825 0-1.5-.675-1.5-1.5v-2.75c0-.258.113-.521.384-.521.104 0 .23.039.382.13.28.246.62.391.984.391.966 0 1.75-1.008 1.75-2.25s-.784-2.25-1.75-2.25c-.3 0-.576.095-.822.255-.237.171-.422.243-.562.243-.26 0-.366-.245-.366-.498V7c0-.825.675-1.5 1.5-1.5h2.75c.391 0 .762-.254.243-.927a1.593 1.593 0 0 1-.243-.823c0-.967 1.007-1.75 2.25-1.75s2.25.783 2.25 1.75c0 .365-.145.704-.39.984-.334.55.034.766.39.766h2.75c.825 0 1.5.675 1.5 1.5v1.75c0 .258-.113.521-.384.521-.104 0-.229-.039-.382-.13a1.488 1.488 0 0 0-.984-.391c-.966 0-1.75 1.008-1.75 2.25s.784 2.25 1.75 2.25c.3 0 .576-.095.822-.255.237-.171.422-.244.562-.243.26 0 .365.245.365.498V16zm-13-5.806c.116.032.236.054.365.054.342 0 .683-.119 1.038-.364l.07-.041a.507.507 0 0 1 .277-.093c.354 0 .75.535.75 1.25s-.396 1.25-.75 1.25a.496.496 0 0 1-.324-.142l-.143-.104a1.73 1.73 0 0 0-.899-.275c-.134 0-.26.023-.384.059v-1.594zm12.635 1.558c-.342 0-.683.119-1.038.364l-.069.041a.506.506 0 0 1-.277.093c-.354 0-.75-.535-.75-1.25s.396-1.25.75-1.25c.108 0 .217.048.324.142l.143.104c.302.183.604.275.9.275.135 0 .261-.025.383-.062v1.597a1.372 1.372 0 0 0-.366-.054zM7.696 17.5c.101-.346.093-.816-.305-1.396l-.044-.074a.522.522 0 0 1-.094-.279c0-.354.534-.75 1.25-.75s1.25.396 1.25.75a.497.497 0 0 1-.143.325l-.104.142c-.325.537-.31.979-.22 1.284h-1.59z"/></svg>