<svg xmlns="http://www.w3.org/2000/svg" version="1.2" viewBox="0 0 17 17"><path d="M8.497 0C3.812 0 0 3.812 0 8.5S3.813 17 8.5 17c4.688 0 8.5-3.812 8.5-8.5S13.188 0 8.497 0zM8.5 15C4.916 15 2 12.084 2 8.5S4.914 2 8.5 2C12.084 2 15 4.916 15 8.5S12.084 15 8.5 15zm3.348-7.469L12 7.5h.879A4.497 4.497 0 0 0 9.5 4.122V5c0 .551-.449 1-1 1a.989.989 0 0 1-.969-.846L7.5 5v-.88A4.5 4.5 0 0 0 4.12 7.5H5l.153.031c.476.076.847.472.847.969s-.371.893-.846.969L5 9.5h-.878A4.506 4.506 0 0 0 7.5 12.879V12l.031-.154c.077-.476.472-.846.969-.846s.893.371.969.848L9.5 12v.879A4.503 4.503 0 0 0 12.879 9.5H12l-.152-.031C11.371 9.393 11 8.997 11 8.5s.371-.893.848-.969zm-.446 2.867a3.51 3.51 0 0 1-1.004 1.002c-.256-.81-1.004-1.401-1.897-1.401s-1.642.592-1.898 1.401c-.4-.262-.74-.603-1.003-1.002A1.995 1.995 0 0 0 7.001 8.5c0-.895-.592-1.643-1.402-1.898.263-.399.603-.74 1.004-1.002a1.994 1.994 0 0 0 1.898 1.401c.894 0 1.644-.593 1.899-1.403.399.264.74.604 1.002 1.004A1.995 1.995 0 0 0 10.001 8.5a1.992 1.992 0 0 0 1.401 1.898z"/></svg>