<svg xmlns="http://www.w3.org/2000/svg" version="1.2" viewBox="0 0 12.005136489868164 12.347740173339844"><path d="M6.877 6.535h5.128V1.408C11.997.273 11.335 0 10.532.803L9.378 1.961A5.756 5.756 0 0 0 5.812.731c-1.55 0-3.009.604-4.104 1.701A5.748 5.748 0 0 0 .005 6.535c0 1.553.604 3.012 1.701 4.107a5.77 5.77 0 0 0 4.106 1.702c1.55 0 3.01-.605 4.106-1.703.296-.297.558-.621.78-.965a1.161 1.161 0 1 0-1.954-1.255c-.133.207-.292.4-.468.58a3.465 3.465 0 0 1-2.464 1.02 3.46 3.46 0 0 1-2.464-1.02 3.466 3.466 0 0 1-1.02-2.465c0-.93.362-1.805 1.02-2.461a3.466 3.466 0 0 1 2.464-1.021c.688 0 1.346.201 1.91.572L6.272 5.077c-.803.802-.53 1.458.604 1.458z"/></svg>