<svg xmlns="http://www.w3.org/2000/svg" version="1.2" viewBox="0 0 16.01099967956543 16.00156021118164"><path d="M3.011 0A3.01 3.01 0 0 0 0 3l.005 9c0 2.21 1.793 4 4.002 4l9.003.002c1.655 0 3-1.346 3-3.001.001-7.18-5.819-13-12.999-13zm1.001 14a1.998 1.998 0 0 1-2.001-1.998A1.999 1.999 0 0 1 4.012 10a1.996 1.996 0 0 1 1.999 2 1.995 1.995 0 0 1-1.999 2zm4.499 0a1.5 1.5 0 0 1-1.5-1.5c0-1.93-1.57-3.5-3.5-3.5a1.5 1.5 0 1 1 0-3c3.584 0 6.5 2.917 6.5 6.5a1.5 1.5 0 0 1-1.5 1.5zm4 0a1.5 1.5 0 0 1-1.5-1.5c0-4.135-3.364-7.5-7.5-7.5a1.5 1.5 0 1 1 0-3c5.79 0 10.5 4.71 10.5 10.5a1.5 1.5 0 0 1-1.5 1.5z"/></svg>