<svg xmlns="http://www.w3.org/2000/svg" version="1" viewBox="0 0 18 18"><path d="M9.8 10.1l-.4-.3c-.1-.1-.3-.2-.3-.5l.3-.6c.5-.4 1-.8 1-1.7s-.6-1.4-.8-1.6h.7L11 5H8.6c-.6 0-1.4.1-2.1.6-.5.4-.8 1-.8 1.6 0 .9.7 1.9 2 1.9h.4c-.1.1-.1.2-.1.4 0 .4.2.6.4.8-.5 0-1.5.1-2.3.5-.7.4-.9 1-.9 1.4 0 .9.8 1.7 2.5 1.7 2 0 3.1-1.1 3.1-2.2 0-.7-.5-1.1-1-1.6zM8.2 8.8c-1 0-1.5-1.3-1.5-2.1.1-.4.1-.7.3-.9s.5-.4.8-.4c1 0 1.5 1.3 1.5 2.2 0 .2 0 .6-.3.9-.1.1-.5.3-.8.3zm.1 4.7c-1.3 0-2.1-.6-2.1-1.4 0-.8.8-1.1 1-1.2.5-.2 1.1-.2 1.2-.2h.3c.9.6 1.3 1 1.3 1.6 0 .7-.6 1.2-1.7 1.2zM12 9h-1V8h1V7h1v1h1v1h-1v1h-1zm-3 9c-5 0-9-4-9-9s4-9 9-9 9 4 9 9-4 9-9 9zM9 2C5.1 2 2 5.1 2 9s3.1 7 7 7 7-3.1 7-7-3.1-7-7-7z"/></svg>