<svg xmlns="http://www.w3.org/2000/svg" version="1.2" viewBox="0 0 14.999996185302734 8.379024505615234"><path d="M11.442 8.364c2.374 0 3.558-.791 3.558-2.373 0-1.304-.749-2.132-2.254-2.49l-1.119-.235c-.637-.159-.951-.495-.951-1.009 0-.594.396-.889 1.186-.889.869 0 1.323.334 1.363 1.006l1.717-.178C14.828.733 13.833.001 11.98.001c-2.019 0-3.026.832-3.026 2.495 0 1.182.654 1.935 1.958 2.251l1.188.236c.79.196 1.186.555 1.186 1.068 0 .631-.614.949-1.842.949-1.498 0-2.489-.732-2.962-2.195l-.597-1.721C7.531 1.939 7.089 1.137 6.551.683 6.021.233 5.184 0 4.032 0 2.963 0 2.025.396 1.217 1.188.406 1.979 0 3.026 0 4.33c0 1.223.383 2.203 1.156 2.935a3.864 3.864 0 0 0 2.756 1.099c1.069 0 1.918-.256 2.55-.77l-.53-1.485c-.554.556-1.211.833-1.96.833-.63 0-1.175-.248-1.628-.744-.455-.492-.686-1.137-.686-1.927 0-.989.247-1.708.743-2.163.497-.455 1.056-.681 1.689-.681.674 0 1.155.177 1.457.53.296.357.56.912.797 1.662l.537 1.721c.632 2.014 2.154 3.024 4.561 3.024"/></svg>