<svg xmlns="http://www.w3.org/2000/svg" version="1.2" viewBox="0 0 18.014137268066406 18.614501953125"><path d="M17.668 10.621a9.16 9.16 0 0 0 .089-1.25c0-2.438-.846-4.545-2.513-6.264C13.559 1.372 11.489.492 9.092.492a8.21 8.21 0 0 0-.801.038A5.716 5.716 0 0 0 5.865.004c-1.609 0-3.053.61-4.174 1.765C.586 2.904 0 4.354 0 5.961c0 .832.156 1.62.466 2.348a8.15 8.15 0 0 0-.07 1.062c0 2.438.853 4.547 2.532 6.267 1.693 1.732 3.768 2.61 6.164 2.61.254 0 .547-.02.896-.06.69.283 1.409.426 2.146.426 1.588 0 3.025-.614 4.157-1.777A5.912 5.912 0 0 0 18 12.627c0-.678-.111-1.35-.332-2.006zM12.5 12.657c-.284.427-.729.781-1.339 1.065-.609.243-1.31.365-2.1.365-.954 0-1.756-.173-2.404-.519a3.068 3.068 0 0 1-1.096-1.003c-.284-.447-.428-.862-.428-1.248 0-.243.092-.457.274-.639a.945.945 0 0 1 .7-.274c.203 0 .406.072.609.213.162.162.283.366.364.61.021.02.153.252.396.7.102.14.284.282.547.424.245.122.568.183.975.183.548 0 1.005-.12 1.37-.364.324-.224.486-.507.486-.853 0-.284-.092-.498-.274-.639a1.856 1.856 0 0 0-.699-.427l-.319-.075-.457-.123a3.733 3.733 0 0 0-.441-.106c-.689-.14-1.277-.324-1.766-.548-.426-.162-.811-.445-1.156-.85-.283-.387-.426-.844-.426-1.37 0-.529.152-.995.457-1.4.304-.407.74-.712 1.308-.914.569-.224 1.219-.334 1.949-.334.548 0 1.066.07 1.552.213.468.162.843.355 1.127.58.263.242.477.485.639.728.142.324.214.59.214.791a.904.904 0 0 1-.275.67.956.956 0 0 1-.699.305.929.929 0 0 1-.578-.184c-.102-.1-.233-.283-.396-.547a2.072 2.072 0 0 0-.577-.762c-.243-.182-.619-.273-1.127-.273-.507 0-.892.102-1.156.305-.284.184-.426.396-.426.64 0 .161.05.295.152.395.102.143.232.255.396.336.102.06.274.132.518.212l.41.106c.213.053.391.087.533.107.283.061.771.192 1.461.396.406.141.791.323 1.156.548.346.242.599.517.762.82.162.365.242.771.242 1.217a2.756 2.756 0 0 1-.458 1.523z"/></svg>