<svg xmlns="http://www.w3.org/2000/svg" viewBox="0 0 18.00155258178711 18.001550674438477"><path d="M4.51 10.14h.73v3.61h.7v-3.61h.73v-.61H4.51zM8.2 13c-.12.14-.53.42-.53.02v-2.39h-.62v2.61c0 .79.79.58 1.16.17v.34h.62v-3.12h-.62V13H8.2zm2.31-2.39c-.36 0-.59.27-.59.27V9.52h-.63v4.23h.63v-.24s.21.28.59.28c.33 0 .58-.29.58-.69v-1.73c0-.47-.22-.76-.58-.76zm-.07 2.41c0 .23-.16.34-.37.25a.479.479 0 0 1-.15-.11v-1.94c.04-.04.09-.07.13-.1.22-.11.39.06.39.29v1.61zm2.31-.16c0 .24-.13.4-.28.41-.16.01-.32-.12-.32-.41v-.59h1.19v-.8a.91.91 0 0 0-.26-.66.919.919 0 0 0-.63-.24c-.22 0-.45.07-.63.21-.19.15-.31.38-.31.69v1.4c0 .28.09.5.23.66.17.18.4.28.64.29.29.01.6-.11.78-.36.11-.15.18-.35.18-.59v-.16h-.59v.15zm-.6-1.39c0-.17.1-.37.29-.37s.31.18.31.37v.32h-.6v-.32z"/><path d="M9 0a9 9 0 1 0 .001 18.001 9 9 0 0 0 0-18zm1.58 3.37h.8v2.68c0 .17.08.17.11.17.12 0 .3-.13.39-.22V3.36h.8V6.9h-.8v-.31c-.11.1-.22.18-.33.24-.15.08-.29.11-.43.11a.52.52 0 0 1-.41-.17c-.09-.11-.13-.28-.13-.49V3.37zm-2.55.93c0-.55.45-1 1-1s1 .45 1 1V6c0 .55-.45 1-1 1s-1-.45-1-1V4.3zM5.95 2.15l.48 1.76.49-1.76h.91l-.94 2.78V6.9H6V4.93l-.96-2.78h.91zm7.9 12.54c-.51.5-4.83.51-4.83.51s-4.31-.01-4.83-.51c-.51-.5-.51-2.99-.51-3.01 0-.01 0-2.5.51-3.01.51-.5 4.83-.51 4.83-.51s4.31.01 4.83.51c.51.5.52 2.99.52 3.01 0 0 0 2.5-.52 3.01z"/><path d="M9.01 6.35c.17 0 .25-.1.26-.26v-1.9c0-.13-.13-.24-.25-.24s-.25.1-.25.24v1.9c0 .15.07.25.24.26z"/></svg>