<svg xmlns="http://www.w3.org/2000/svg" version="1.2" viewBox="0 0 18 18"><path d="M9 18c-2.489 0-4.635-.89-6.376-2.646C.883 13.603 0 11.464 0 9c0-2.489.884-4.633 2.627-6.375C4.367.884 6.512 0 9 0c2.466 0 4.604.883 6.354 2.624C17.109 4.366 18 6.511 18 9c0 2.464-.89 4.604-2.644 6.357C13.605 17.111 11.467 18 9 18zM9 2c-1.966 0-3.588.667-4.958 2.04C2.668 5.412 2 7.034 2 9c0 1.944.668 3.562 2.043 4.945C5.415 15.328 7.036 16 9 16c1.943 0 3.56-.673 4.941-2.056C15.327 12.559 16 10.942 16 9c0-1.963-.672-3.585-2.055-4.957C12.562 2.668 10.945 2 9 2zm2.199 9.333c1.335 0 2-.444 2-1.333 0-.733-.422-1.199-1.267-1.4l-.632-.133c-.354-.089-.534-.277-.534-.566 0-.334.224-.5.666-.5.49 0 .746.188.767.565l.967-.1c-.063-.822-.622-1.233-1.666-1.233-1.134 0-1.699.467-1.699 1.401 0 .665.365 1.088 1.099 1.267l.668.133c.443.11.666.312.666.601 0 .354-.345.532-1.034.532-.844 0-1.398-.411-1.666-1.233L9.2 8.367c-.199-.644-.449-1.095-.75-1.35-.3-.255-.771-.384-1.416-.384-.601 0-1.128.223-1.584.667-.456.445-.683 1.033-.683 1.767 0 .688.216 1.239.649 1.649.435.413.95.617 1.55.617.602 0 1.078-.144 1.434-.433l-.299-.834A1.505 1.505 0 0 1 7 10.534c-.354 0-.662-.14-.916-.417-.257-.277-.385-.64-.385-1.084 0-.556.139-.961.417-1.217s.594-.383.951-.383c.379 0 .648.1.816.299.167.201.315.512.45.935l.3.967c.356 1.133 1.212 1.699 2.566 1.699"/></svg>