<svg xmlns="http://www.w3.org/2000/svg" version="1.2" viewBox="0 0 18 18"><path d="M9 18c-2.489 0-4.635-.89-6.376-2.646C.883 13.603 0 11.465 0 9c0-2.488.884-4.634 2.627-6.375C4.367.884 6.512 0 9 0c2.466 0 4.604.883 6.354 2.624C17.109 4.366 18 6.512 18 9c0 2.465-.89 4.604-2.644 6.357C13.605 17.11 11.467 18 9 18zM9 2c-1.966 0-3.588.667-4.958 2.04C2.668 5.412 2 7.034 2 9c0 1.944.668 3.562 2.043 4.945C5.415 15.328 7.036 16 9 16c1.943 0 3.56-.673 4.941-2.057C15.327 12.559 16 10.941 16 9c0-1.963-.672-3.585-2.055-4.957C12.562 2.668 10.945 2 9 2zm-3 9.5c-1.379 0-2.5-1.121-2.5-2.5S4.621 6.5 6 6.5 8.5 7.621 8.5 9 7.379 11.5 6 11.5zm0-4c-.827 0-1.5.673-1.5 1.5s.673 1.5 1.5 1.5S7.5 9.827 7.5 9 6.827 7.5 6 7.5zm6 4c-1.379 0-2.5-1.121-2.5-2.5s1.121-2.5 2.5-2.5 2.5 1.121 2.5 2.5-1.121 2.5-2.5 2.5z"/></svg>