<svg xmlns="http://www.w3.org/2000/svg" version="1.2" viewBox="0 0 18 18"><path d="M8.844 4.5C6.363 4.5 4.406 6.519 4.406 9s2.05 4.5 4.531 4.5c.908 0 1.799-.27 2.547-.778a.5.5 0 0 0 .139-.694.495.495 0 0 0-.691-.132 3.466 3.466 0 0 1-1.965.604c-1.93 0-3.499-1.57-3.499-3.5s1.446-3.5 3.376-3.5 3.375 1.57 3.375 3.5v.25a.75.75 0 0 1-1.5 0V7.5c0-.276-.099-.5-.375-.5-.205 0-.318.124-.396.301A1.864 1.864 0 0 0 8.938 7a1.987 1.987 0 0 0-1.984 2 2.008 2.008 0 0 0 3.446 1.391c.319.369.664.609 1.192.609.965 0 1.627-.785 1.627-1.75V9c0-2.481-1.894-4.5-4.375-4.5zm.125 5.5c-.551 0-1-.449-1-1s.449-1 1-1 1 .449 1 1-.449 1-1 1zM9 18c-4.963 0-9-4.037-9-9s4.037-9 9-9 9 4.037 9 9-4.037 9-9 9zM9 2C5.141 2 2 5.141 2 9s3.141 7 7 7 7-3.141 7-7-3.141-7-7-7z"/></svg>