<svg xmlns="http://www.w3.org/2000/svg" version="1" viewBox="0 0 14.799999237060547 14.89999771118164"><path d="M7.7 8.5L7 8c-.2-.2-.5-.4-.5-.8s.3-.7.6-1c.8-.6 1.7-1.3 1.7-2.8 0-1.5-.9-2.3-1.4-2.7h1.2L9.8 0H5.7c-1 0-2.4.2-3.5 1.1C1.4 1.8 1 2.8 1 3.7c0 1.5 1.2 3.1 3.3 3.1h.6c-.1.2-.2.4-.2.7 0 .6.3 1 .6 1.3-.9.1-2.5.2-3.8.9-1.2.7-1.5 1.7-1.5 2.4 0 1.5 1.4 2.8 4.2 2.8 3.4 0 5.2-1.9 5.2-3.7 0-1.3-.8-1.9-1.7-2.7zM5.2 6.3c-1.7 0-2.5-2.2-2.5-3.5 0-.5.1-1 .4-1.5.3-.4.9-.7 1.4-.7C6.1.6 7 2.8 7 4.2c0 .4 0 1-.5 1.4-.3.4-.9.7-1.3.7zm0 7.9c-2.1 0-3.5-1-3.5-2.4s1.3-1.9 1.7-2c.8-.3 1.9-.3 2.1-.3H6c1.5 1.1 2.1 1.6 2.1 2.6 0 1.2-1 2.1-2.9 2.1zM11.8 7h-2V6h2V4.1l1-.1v2h2v1h-2v2h-1z"/></svg>