<svg xmlns="http://www.w3.org/2000/svg" version="1.2" viewBox="0 0 18 18"><path d="M11.377 12.59v-1.234c-.399.268-.788.4-1.166.4-.178 0-.377-.057-.6-.166-.134-.09-.211-.189-.234-.301-.066-.133-.1-.422-.1-.867V8.456h1.834V7.223H9.277V5.256H8.211c-.089.467-.178.8-.267 1-.11.244-.288.467-.533.666-.245.201-.5.345-.767.434v1.101h.833v2.7c0 .311.044.576.134.799.066.178.199.355.4.533.154.156.377.289.666.4.355.09.666.133.934.133.311 0 .6-.033.866-.1.312-.067.612-.178.9-.332"/><path d="M9 18c-4.963 0-9-4.037-9-9s4.037-9 9-9 9 4.037 9 9-4.037 9-9 9zM9 2C5.141 2 2 5.141 2 9s3.141 7 7 7 7-3.141 7-7-3.141-7-7-7z"/></svg>