<svg xmlns="http://www.w3.org/2000/svg" version="1.2" viewBox="0 0 18 18"><path d="M15.354 2.624C13.604.883 11.466 0 9 0 6.511 0 4.367.884 2.627 2.625.884 4.366 0 6.512 0 9c0 2.465.883 4.603 2.624 6.354C4.365 17.11 6.51 18 9 18c2.467 0 4.605-.89 6.356-2.643C17.111 13.604 18 11.465 18 9c0-2.488-.89-4.634-2.646-6.376zm-1.412 11.319c-1.137 1.139-2.436 1.788-3.942 1.985V11h2V9h-2V7.6a.6.6 0 0 1 .601-.6H12V5h-1.397c-.742 0-1.361.273-1.857.822C8.25 6.369 8 7.037 8 7.83V9H6v2h2v4.93c-1.522-.195-2.826-.845-3.957-1.984C2.668 12.562 2 10.944 2 9c0-1.966.667-3.588 2.042-4.96C5.412 2.667 7.034 2 9 2c1.945 0 3.562.668 4.945 2.043C15.328 5.415 16 7.037 16 9c0 1.941-.673 3.559-2.058 4.943z"/></svg>