<svg xmlns="http://www.w3.org/2000/svg" version="1.2" viewBox="0 0 18.000999450683594 14.600998878479004"><path d="M15.891 2.313c.808-.496 1.343-1.173 1.605-2.034a8.68 8.68 0 0 1-2.351.861C14.442.384 13.552 0 12.485 0c-1.043 0-1.924.366-2.643 1.078a3.56 3.56 0 0 0-1.076 2.605c0 .309.039.585.117.819C5.807 4.397 3.261 3.121 1.255.665c-.34.601-.51 1.213-.51 1.846 0 1.301.549 2.332 1.645 3.089-.625-.053-1.176-.211-1.645-.47 0 .929.273 1.705.82 2.388A3.623 3.623 0 0 0 3.68 8.809c-.312.08-.641.118-.979.118-.312 0-.533-.026-.664-.083.23.757.664 1.371 1.291 1.841a3.652 3.652 0 0 0 2.152.743C4.148 12.473 2.625 12.99.902 12.99c-.422 0-.721-.006-.902-.038 1.697 1.102 3.586 1.649 5.676 1.649 2.139 0 4.029-.542 5.674-1.626 1.645-1.078 2.859-2.408 3.639-3.974a10.77 10.77 0 0 0 1.172-4.892v-.468a7.788 7.788 0 0 0 1.84-1.921 8.142 8.142 0 0 1-2.11.593z"/></svg>