<svg xmlns="http://www.w3.org/2000/svg" version="1.2" viewBox="0 0 21.027502059936523 10.284000396728516"><path d="M3.028 10.284a1 1 0 0 1-1-1V2.902l-.553.276A1 1 0 1 1 .58 1.389l2-1a.998.998 0 0 1 1.447.895v8a1 1 0 0 1-1 1zm9 0h-5a1.002 1.002 0 0 1-.707-1.707l4-4c.254-.254.394-.591.394-.95 0-.358-.14-.695-.394-.949-.508-.508-1.39-.508-1.9.001a1.33 1.33 0 0 0-.393.948 1 1 0 0 1-2 0c0-.894.348-1.733.98-2.364C8.273 0 10.472 0 11.735 1.264c.632.631.979 1.471.979 2.363 0 .893-.348 1.733-.98 2.364L9.443 8.284h2.586a1 1 0 0 1 0 2zm7.955-5.623a2.725 2.725 0 0 0 .545-1.627 2.753 2.753 0 0 0-2.75-2.75 2.739 2.739 0 0 0-2.44 1.484 1 1 0 1 0 1.776.92.75.75 0 1 1 .664 1.096 1 1 0 0 0 0 2c.689 0 1.25.561 1.25 1.25s-.561 1.25-1.25 1.25-1.25-.561-1.25-1.25a1 1 0 0 0-2 0c0 1.792 1.458 3.25 3.25 3.25s3.25-1.458 3.25-3.25a3.23 3.23 0 0 0-1.045-2.373z"/></svg>