<svg xmlns="http://www.w3.org/2000/svg" version="1.2" viewBox="0 0 24.295490264892578 14.008230209350586"><path d="M5.718 8.004h2.764L7.1 5.24zm15.382 0l2.4-3.2a2.986 2.986 0 0 0 .284-3.142A2.984 2.984 0 0 0 21.1.004h-6c-1.654 0-3 1.346-3 3 0 .77.295 1.47.774 2H12.6c-.368 0-.708.107-1.005.281L9.784 1.662C9.286.667 8.257.048 7.1.048s-2.186.62-2.684 1.614l-4 8c-.358.717-.416 1.53-.163 2.291s.788 1.376 1.504 1.735c.414.207.879.316 1.342.316a2.988 2.988 0 0 0 2.684-1.657l.171-.343h2.291l.171.342a2.984 2.984 0 0 0 2.684 1.658c.464 0 .928-.109 1.342-.316a3.01 3.01 0 0 0 .652-.458c.54.488 1.246.774 2.006.774h6c1.654 0 3-1.346 3-3s-1.346-3-3-3zM11.547 11.9a1.003 1.003 0 0 1-1.342-.448l-.723-1.447H4.718l-.724 1.447a1 1 0 1 1-1.788-.895l4-8c.169-.338.532-.508.894-.508s.725.17.895.508l4 8a1.002 1.002 0 0 1-.448 1.343zM12.6 8.004a1 1 0 0 1 0-2h1a1 1 0 0 1 0 2h-1zm8.5 4h-6a1.001 1.001 0 0 1-.8-1.6l4.8-6.4h-4a1 1 0 0 1 0-2h6a1.001 1.001 0 0 1 .8 1.6l-4.8 6.4h4a1 1 0 0 1 0 2z"/></svg>