<svg xmlns="http://www.w3.org/2000/svg" version="1.2" viewBox="0 0 18.99962615966797 19.05581283569336"><path d="M16.564 7.664l1.179-2.387a.5.5 0 0 0-.416-.72l-2.656-.172-.172-2.656a.5.5 0 0 0-.721-.416l-2.385 1.18L9.916.278C9.73 0 9.27 0 9.084.278L7.607 2.493l-2.385-1.18a.5.5 0 0 0-.721.416L4.33 4.385l-2.657.171a.5.5 0 0 0-.416.721l1.179 2.386L.222 9.14a.501.501 0 0 0 0 .832l2.215 1.477-1.18 2.386a.498.498 0 0 0 .416.72l2.656.171.17 2.657a.5.5 0 0 0 .722.416l2.386-1.179 1.477 2.214a.501.501 0 0 0 .832 0l1.477-2.214 2.386 1.179a.5.5 0 0 0 .72-.416l.172-2.656 2.656-.172a.5.5 0 0 0 .416-.721l-1.18-2.385 2.215-1.478a.501.501 0 0 0 0-.832l-2.214-1.475z"/></svg>