<svg xmlns="http://www.w3.org/2000/svg" version="1.2" viewBox="0 0 18.89527702331543 18.017234802246094"><path d="M14.302 17.932c-.224 0-.443-.05-.646-.146l-.104-.051-4.107-2.343-4.107 2.344-.106.053a1.524 1.524 0 0 1-1.52-.143 1.505 1.505 0 0 1-.587-1.509l.957-4.642-1.602-1.457L.585 8.313l-.078-.082a1.503 1.503 0 0 1-.34-1.492c.173-.524.62-.912 1.16-1.009l.102-.018 4.701-.521L8.076.881l.06-.11A1.5 1.5 0 0 1 9.446 0c.542 0 1.043.298 1.308.77l.06.112 1.948 4.312 4.701.521.104.017c.54.1.986.486 1.158 1.012.17.521.035 1.098-.34 1.494l-.078.078L14.81 11.5l.957 4.632a1.514 1.514 0 0 1-.59 1.519 1.488 1.488 0 0 1-.874.281zm-8.149-6.564c-.039.182-.466 2.246-.845 4.082l3.643-2.077a1 1 0 0 1 .99 0l3.643 2.075-.849-4.104a.998.998 0 0 1 .308-.942l3.1-2.822-4.168-.461a1 1 0 0 1-.8-.584L9.445 2.714 7.72 6.535c-.146.322-.45.543-.8.584L2.75 7.58l3.1 2.822a.995.995 0 0 1 .302.966z"/></svg>