<svg xmlns="http://www.w3.org/2000/svg" version="1.2" viewBox="0 0 18.743650436401367 21"><path d="M16.64 6.902a.993.993 0 0 0 .293-.195l.5-.5a1 1 0 1 0-1.414-1.414l-.5.5-.115.173a8.969 8.969 0 0 0-5.19-2.41L10.227 3V2h1c.55 0 1-.45 1-1s-.45-1-1-1h-4c-.55 0-1 .45-1 1s.45 1 1 1h1v1l.012.057A9 9 0 0 0 9.226 21 9 9 0 0 0 16.64 6.902zM9.226 19c-3.86 0-7-3.14-7-7s3.14-7 7-7 7 3.14 7 7-3.141 7-7 7zm1-8V9c0-.55-.45-1-1-1s-1 .45-1 1v3c0 .55.45 1 1 1h3c.55 0 1-.45 1-1s-.45-1-1-1h-2zm-1-5c-3.312 0-6 2.688-6 6s2.688 6 6 6 6-2.688 6-6-2.688-6-6-6zm0 11c-2.757 0-5-2.243-5-5s2.243-5 5-5 5 2.243 5 5-2.243 5-5 5z"/></svg>