<svg xmlns="http://www.w3.org/2000/svg" version="1.2" viewBox="0 0 21.19499969482422 21.003372192382812"><path d="M7 2.003c1.279 0 2.559.488 3.535 1.465L14 7.003l5 5-7 7-5.498-5.498c-.037.033-3.037-2.967-3.037-2.967A4.998 4.998 0 0 1 7 2.003m0-2c-1.87 0-3.628.73-4.949 2.051C.729 3.374 0 5.132 0 7.002s.729 3.628 2.051 4.95l3 3c.107.107.227.201.35.28l5.187 5.185c.391.391.9.586 1.413.586s1.022-.195 1.414-.586l7-7c.78-.78.78-2.047 0-2.828l-5-5-3.45-3.52A6.971 6.971 0 0 0 7 .002zm0 5.498a1.5 1.5 0 1 1 0 3 1.5 1.5 0 0 1 0-3m0-1a2.503 2.503 0 0 0-2.5 2.502C4.5 8.38 5.621 9.501 7 9.501s2.5-1.12 2.5-2.498A2.503 2.503 0 0 0 7 4.501z"/></svg>