<svg xmlns="http://www.w3.org/2000/svg" version="1.2" viewBox="0 0 20.19661521911621 22.999998092651367"><path d="M19.423 8.594l-6.465-6.535C11.628.729 9.87 0 8 0S4.373.729 3.05 2.051a6.998 6.998 0 0 0-2.027 5.314A6.95 6.95 0 0 0 0 10.999c0 1.87.729 3.628 2.05 4.95l3.054 2.984 3.482 3.48c.39.392.902.587 1.414.587s1.023-.195 1.414-.586l7-7a1.999 1.999 0 0 0 .008-2.82l-.093-.094 1.085-1.086a1.999 1.999 0 0 0 .008-2.82zM10 21l-3.498-3.497-3.037-2.968A4.998 4.998 0 0 1 7 6c1.279 0 2.559.488 3.535 1.465L17 14l-7 7zm1.957-14.941A6.958 6.958 0 0 0 7 4a6.954 6.954 0 0 0-3.565.982 4.933 4.933 0 0 1 1.03-1.518C5.442 2.488 6.722 2 8 2s2.559.488 3.535 1.465L18 10l-1.078 1.078-4.965-5.019zM7 9.499a1.5 1.5 0 1 1 0 2.999 1.5 1.5 0 0 1 0-2.999m0-1A2.504 2.504 0 0 0 4.5 11c0 1.378 1.122 2.499 2.5 2.499S9.5 12.378 9.5 11A2.504 2.504 0 0 0 7 8.499z"/></svg>