<svg xmlns="http://www.w3.org/2000/svg" version="1.2" viewBox="0 0 20 20"><path d="M17 16c.55 0 1 .45 1 1s-.45 1-1 1H3c-.55 0-1-.45-1-1s.45-1 1-1h14m0-2H3c-1.654 0-3 1.346-3 3s1.346 3 3 3h14c1.654 0 3-1.346 3-3s-1.346-3-3-3zm0-5c.55 0 1 .45 1 1s-.45 1-1 1H3c-.55 0-1-.45-1-1s.45-1 1-1h14m0-2H3c-1.654 0-3 1.346-3 3s1.346 3 3 3h14c1.654 0 3-1.346 3-3s-1.346-3-3-3zm0-5c.55 0 1 .45 1 1s-.45 1-1 1H3c-.55 0-1-.45-1-1s.45-1 1-1h14m0-2H3C1.346 0 0 1.346 0 3s1.346 3 3 3h14c1.654 0 3-1.346 3-3s-1.346-3-3-3z"/></svg>