<svg xmlns="http://www.w3.org/2000/svg" version="1.2" viewBox="0 0 20 20"><path d="M4 14H2a2 2 0 0 0-2 2v2a2 2 0 0 0 2 2h2a2 2 0 0 0 2-2v-2a2 2 0 0 0-2-2zm0 4H2v-2h2v2zM4 7H2a2 2 0 0 0-2 2v2a2 2 0 0 0 2 2h2a2 2 0 0 0 2-2V9a2 2 0 0 0-2-2zm0 4H2V9h2v2zM4 0H2a2 2 0 0 0-2 2v2a2 2 0 0 0 2 2h2a2 2 0 0 0 2-2V2a2 2 0 0 0-2-2zm0 4H2V2h2v2zm7 10H9a2 2 0 0 0-2 2v2a2 2 0 0 0 2 2h2a2 2 0 0 0 2-2v-2a2 2 0 0 0-2-2zm0 4H9v-2h2v2zm0-11H9a2 2 0 0 0-2 2v2a2 2 0 0 0 2 2h2a2 2 0 0 0 2-2V9a2 2 0 0 0-2-2zm0 4H9V9h2v2zm0-11H9a2 2 0 0 0-2 2v2a2 2 0 0 0 2 2h2a2 2 0 0 0 2-2V2a2 2 0 0 0-2-2zm0 4H9V2h2v2zm7 10h-2a2 2 0 0 0-2 2v2a2 2 0 0 0 2 2h2a2 2 0 0 0 2-2v-2a2 2 0 0 0-2-2zm0 4h-2v-2h2v2zm0-11h-2a2 2 0 0 0-2 2v2a2 2 0 0 0 2 2h2a2 2 0 0 0 2-2V9a2 2 0 0 0-2-2zm0 4h-2V9h2v2zm0-11h-2a2 2 0 0 0-2 2v2a2 2 0 0 0 2 2h2a2 2 0 0 0 2-2V2a2 2 0 0 0-2-2zm0 4h-2V2h2v2z"/></svg>