<svg xmlns="http://www.w3.org/2000/svg" version="1.2" viewBox="0 0 15.106380462646484 15.122981071472168"><path d="M7 15.12a2.978 2.978 0 0 1-2.121-.878l-4-4C.312 9.676 0 8.922 0 8.12s.312-1.555.879-2.122c1.133-1.133 3.109-1.133 4.242 0l1.188 1.188 3.069-5.523a2.999 2.999 0 0 1 5.507.632 2.975 2.975 0 0 1-.263 2.282l-5 9A3.015 3.015 0 0 1 7 15.12zm-4-8c-.268 0-.518.105-.707.294S2 7.853 2 8.12s.104.518.293.707l4 4a1.002 1.002 0 0 0 1.581-.221l5-9a.993.993 0 0 0 .088-.76.992.992 0 0 0-.478-.6 1.015 1.015 0 0 0-1.357.388l-4.357 7.84-3.062-3.061A.996.996 0 0 0 3 7.12z"/></svg>