<svg xmlns="http://www.w3.org/2000/svg" version="1.2" viewBox="0 0 20.535640716552734 20.600997924804688"><path d="M19.657 6.5l-5.364-5.364C13.165.008 11.182 0 10.045 1.118L.897 10.12a2.967 2.967 0 0 0-.891 2.115 2.959 2.959 0 0 0 .873 2.121l5.365 5.365c.567.567 1.325.88 2.133.88.799 0 1.551-.307 2.115-.862l9.147-9.003a2.963 2.963 0 0 0 .891-2.115 2.962 2.962 0 0 0-.873-2.121zm-1.421 2.811L9.09 18.314c-.381.373-1.056.37-1.432-.006l-1.275-1.275a1.999 1.999 0 0 0-.062-2.752 1.997 1.997 0 0 0-2.752-.063l-1.275-1.274c-.186-.187-.288-.435-.287-.699s.105-.513.293-.697l9.148-9.002c.189-.186.441-.288.713-.288.273 0 .529.104.719.294l1.275 1.275a1.995 1.995 0 0 0 .062 2.751 1.997 1.997 0 0 0 2.752.063l1.274 1.274c.187.187.288.435.287.699s-.105.512-.294.697zm-8.463 6.16l-4.657-4.656 5.649-5.429 4.657 4.656-5.649 5.429zm-3.23-4.643l3.243 3.242 4.206-4.041-3.241-3.242-4.208 4.041z"/></svg>