<svg xmlns="http://www.w3.org/2000/svg" version="1.2" viewBox="0 0 14 14.50899887084961"><path d="M11 14.255a2.98 2.98 0 0 1-2.122-.879L7 11.497l-1.879 1.879c-1.133 1.133-3.109 1.133-4.243 0C.312 12.81 0 12.056 0 11.255S.312 9.7.879 9.133l1.878-1.878L.879 5.376C.312 4.81 0 4.056 0 3.255S.312 1.7.879 1.133C2.012.001 3.988 0 5.122 1.134L7 3.013l1.879-1.879c1.133-1.133 3.109-1.133 4.243 0 .566.566.878 1.32.878 2.121s-.312 1.555-.879 2.122l-1.878 1.878 1.878 1.879c.567.566.879 1.32.879 2.121s-.312 1.555-.879 2.122a2.98 2.98 0 0 1-2.121.878zM7 8.669l3.293 3.293a1.024 1.024 0 0 0 1.414 0c.189-.189.293-.439.293-.707s-.104-.518-.293-.707L8.415 7.255l3.292-3.293c.189-.189.293-.44.293-.707s-.104-.518-.293-.707a1.023 1.023 0 0 0-1.414-.001L7 5.841 3.707 2.548a1.024 1.024 0 0 0-1.414 0c-.189.189-.293.44-.293.707s.104.518.293.707l3.292 3.293-3.292 3.293c-.189.189-.293.439-.293.707s.104.518.293.707a1.023 1.023 0 0 0 1.414.001L7 8.669z"/></svg>