<svg xmlns="http://www.w3.org/2000/svg" version="1.2" viewBox="0 0 15 17"><path d="M14 3h-1V2a2 2 0 0 0-2-2H4a2 2 0 0 0-2 2v1H1a1 1 0 0 0 0 2v8c0 2.206 1.794 4 4 4h5c2.206 0 4-1.794 4-4V5a1 1 0 0 0 0-2zM4 2h7v1H4V2zm8 11a2 2 0 0 1-2 2H5a2 2 0 0 1-2-2V5h9v8zM4.5 6.5c-.275 0-.5.225-.5.5v6c0 .275.225.5.5.5s.5-.225.5-.5V7c0-.275-.225-.5-.5-.5zm2 0c-.275 0-.5.225-.5.5v6c0 .275.225.5.5.5s.5-.225.5-.5V7c0-.275-.225-.5-.5-.5zm2 0c-.275 0-.5.225-.5.5v6c0 .275.225.5.5.5s.5-.225.5-.5V7c0-.275-.225-.5-.5-.5zm2 0c-.275 0-.5.225-.5.5v6c0 .275.225.5.5.5s.5-.225.5-.5V7c0-.275-.225-.5-.5-.5z"/></svg>