<svg xmlns="http://www.w3.org/2000/svg" version="1.2" viewBox="0 0 18.134925842285156 21.135292053222656"><path d="M17.849 15.51l-2.7-3.375h.919a.999.999 0 0 0 .819-1.573l-7-10A1.001 1.001 0 0 0 8.494.316a.968.968 0 0 0-.221.231c-.025.015-7.025 10.015-7.025 10.015a1 1 0 0 0 .82 1.573h.919l-2.7 3.375c-.24.301-.287.712-.121 1.06.167.344.518.565.902.565h7v3a1 1 0 1 0 2 0v-3h7a1.001 1.001 0 0 0 .781-1.625zm-7.781-.375v-5a1 1 0 1 0-2 0v5H3.149l2.7-3.375c.24-.3.287-.712.121-1.059a1.004 1.004 0 0 0-.902-.566h-1.08l5.08-7.256 5.08 7.256h-1.08a1.001 1.001 0 0 0-.78 1.625l2.7 3.375h-4.92z"/></svg>