<svg xmlns="http://www.w3.org/2000/svg" version="1.2" viewBox="0 0 18 20.5"><path d="M17.987 14.5a.98.98 0 0 0-.039-.316l-2-6A.998.998 0 0 0 15 7.5h-4v2h3.279l1.667 5H2.054l1.667-5H7v-2H3a.998.998 0 0 0-.948.684l-2 6a.98.98 0 0 0-.039.316C0 14.5 0 19.5 0 19.5a1 1 0 0 0 1 1h16a1 1 0 0 0 1-1s0-5-.013-5zM13 6.404c.259 0 .518-.095.707-.283a1 1 0 0 0 0-1.414L9 0 4.293 4.707a1 1 0 0 0 0 1.414c.189.189.448.283.707.283s.518-.094.707-.283L8 3.828V10.5a1 1 0 0 0 2 0V3.828l2.293 2.293a.997.997 0 0 0 .707.283z"/></svg>