<svg xmlns="http://www.w3.org/2000/svg" version="1.2" viewBox="0 0 18 22.94499969482422"><path d="M17.986 16.945c0-.105-.004-.211-.038-.316l-2-6a.996.996 0 0 0-.56-.594 2.995 2.995 0 0 0-.269-3.914L9 0 2.879 6.121a2.998 2.998 0 0 0-.27 3.914.987.987 0 0 0-.559.594l-2 6a1.007 1.007 0 0 0-.038.316c-.012 0-.012 5-.012 5a1 1 0 0 0 1 1h16a1 1 0 0 0 1-1s0-5-.014-5zM4.293 7.535L9 2.828l4.707 4.707a.999.999 0 0 1 0 1.414 1.025 1.025 0 0 1-1.414 0L10 6.656v5.789a1 1 0 0 1-2 0V6.656L5.707 8.949a1.025 1.025 0 0 1-1.414 0 .999.999 0 0 1 0-1.414zm-.572 4.41H6v.5c0 1.654 1.346 3 3 3s3-1.346 3-3v-.5h2.279l1.666 5H2.053l1.668-5zm-1.721 9v-3h14v3H2z"/></svg>