<svg xmlns="http://www.w3.org/2000/svg" version="1.2" viewBox="0 0 15.09814739227295 15.176197052001953"><path d="M14.805.293a.999.999 0 0 0-1.414 0L11.84 1.844c-.345-.688-.987-1.02-1.604-1.02-.45 0-.905.152-1.356.453L6.208 3.058C5.455 3.561 4.002 4 3.098 4c-1.654 0-3 1.346-3 3v2c0 1.237.754 2.302 1.826 2.76L.39 13.293a1 1 0 1 0 1.414 1.414l2.527-2.527c.697.174 1.416.455 1.875.762l2.672 1.781c.45.301.907.453 1.356.453.898 0 1.863-.68 1.863-2.176V4.414l2.707-2.707a.999.999 0 0 0 0-1.414zM9.989 2.941l.104-.062.005.121v1.293l-2 2v-2.09l1.89-1.262zm-7.891 4.06a1 1 0 0 1 1-1c1.21 0 2.907-.496 4-1.147v2.44l-2.83 2.83A6.535 6.535 0 0 0 3.098 10a1 1 0 0 1-1-1V7zm3.3 3.405l1.7-1.699v2.44a8.267 8.267 0 0 0-1.7-.74zm4.694 2.714l-.104-.062-1.89-1.26v-4.09l2-2V13l-.006.12z"/></svg>