<svg xmlns="http://www.w3.org/2000/svg" version="1.2" viewBox="0 0 15.829000473022461 14.351999282836914"><path d="M10.138 0c-.449 0-.905.152-1.356.453L6.11 2.234c-.753.503-2.206.942-3.11.942-1.654 0-3 1.346-3 3v2c0 1.654 1.346 3 3 3 .904 0 2.357.439 3.109.941l2.672 1.781c.451.301.907.453 1.356.453.898.001 1.863-.68 1.863-2.175v-10C12 .681 11.035 0 10.138 0zM3 9.176a1 1 0 0 1-1-1v-2a1 1 0 0 1 1-1c1.211 0 2.907-.495 4-1.146v6.293c-1.093-.652-2.789-1.147-4-1.147zm7 3l-.006.12-.104-.062L8 10.974V3.378l1.891-1.261.104-.062.005.121v10zm3.292-7.706a.999.999 0 0 0 .002 1.414c.345.345.535.803.535 1.291 0 .489-.19.948-.536 1.294a1 1 0 1 0 1.414 1.414c.724-.723 1.122-1.685 1.122-2.708s-.398-1.984-1.123-2.707a.999.999 0 0 0-1.414.002z"/></svg>