<svg xmlns="http://www.w3.org/2000/svg" version="1.2" viewBox="0 0 20.08500099182129 17.48900032043457"><g transform="translate(-1.957 -3.511)"><path d="M12 5.511c.561 0 1.119.354 1.544 1.062l5.912 9.854C20.307 17.842 19.65 19 18 19H6c-1.65 0-2.307-1.159-1.456-2.573l5.912-9.854c.425-.708.983-1.062 1.544-1.062m0-2c-1.296 0-2.482.74-3.259 2.031l-5.912 9.856c-.786 1.309-.872 2.705-.235 3.83S4.473 21 6 21h12c1.527 0 2.77-.646 3.406-1.771s.551-2.521-.235-3.83l-5.912-9.854C14.482 4.251 13.296 3.511 12 3.511z"/><circle cx="12" cy="16" r="1.3"/><path d="M13.5 10c0-.83-.671-1.5-1.5-1.5a1.499 1.499 0 0 0-1.389 2.062C11.165 11.938 12 14 12 14l1.391-3.438c.068-.173.109-.363.109-.562z"/></g></svg>