<svg xmlns="http://www.w3.org/2000/svg" version="1.2" viewBox="0 0 14 20"><path d="M7 11h2c.55 0 1-.45 1-1s-.45-1-1-1H8V8c0-.55-.45-1-1-1s-1 .45-1 1v2c0 .55.45 1 1 1zm5-5.895V3c0-1.654-1.346-3-3-3H5C3.346 0 2 1.346 2 3v2.105C.764 6.368 0 8.094 0 10s.764 3.632 2 4.895V17c0 1.654 1.346 3 3 3h4c1.654 0 3-1.346 3-3v-2.105c1.236-1.262 2-2.988 2-4.895s-.764-3.632-2-4.895zM4 3c0-.551.449-1 1-1h4c.551 0 1 .449 1 1v1.809a5.96 5.96 0 0 0-6 0V3zm6 14c0 .551-.449 1-1 1H5c-.551 0-1-.449-1-1v-1.811a5.952 5.952 0 0 0 6 0V17zm-3-2c-2.757 0-5-2.243-5-5s2.243-5 5-5 5 2.243 5 5-2.243 5-5 5z"/></svg>