<svg xmlns="http://www.w3.org/2000/svg" version="1.2" viewBox="0 0 16.679481506347656 18.89940643310547"><path d="M15.794 12.584l-2.457-.503 1.483-.396a1 1 0 1 0-.518-1.932l-1.508.403c.037-.23.071-.464.071-.706s-.034-.476-.071-.707l1.51.404.26.034a1 1 0 0 0 .258-1.966l-1.483-.397 2.455-.502a1.054 1.054 0 1 0-1-1.732l-1.663 1.874.398-1.479a1 1 0 0 0-1.932-.52l-.407 1.517a4.467 4.467 0 0 0-1.219-.717l1.102-1.102a1 1 0 1 0-1.414-1.414L8.573 3.83l.793-2.379a1.053 1.053 0 1 0-2 0l.793 2.38-1.086-1.087a1 1 0 1 0-1.414 1.414L6.761 5.26a4.508 4.508 0 0 0-1.219.717l-.405-1.515a1 1 0 1 0-1.932.516l.396 1.485-1.662-1.877a1.057 1.057 0 0 0-1.822.487C0 5.642.368 6.2.939 6.317l2.454.503-1.48.396a1 1 0 0 0 .258 1.966l.26-.034 1.508-.404a4.224 4.224 0 0 0-.073.706c0 .242.034.475.071.707l-1.508-.404a1 1 0 1 0-.518 1.932l1.483.397-2.455.502a1.052 1.052 0 0 0-.488 1.821 1.053 1.053 0 0 0 1.488-.089l1.665-1.878-.398 1.484a1 1 0 0 0 .707 1.225l.26.034a1 1 0 0 0 .965-.74l.406-1.516c.366.298.771.544 1.22.716L5.66 14.743a1 1 0 1 0 1.414 1.414l.706-.707h.252l-.666 2a1.053 1.053 0 1 0 2 0l-.666-2h.252l.707.707a1 1 0 1 0 1.414-1.414L9.971 13.64a4.448 4.448 0 0 0 1.22-.717l.406 1.517a1 1 0 0 0 .965.741l.26-.034a1 1 0 0 0 .707-1.225l-.397-1.48 1.662 1.874a1.054 1.054 0 1 0 1-1.732zm-7.428-.634c-1.379 0-2.5-1.12-2.5-2.5s1.121-2.5 2.5-2.5 2.5 1.121 2.5 2.5-1.121 2.5-2.5 2.5z"/></svg>