<svg xmlns="http://www.w3.org/2000/svg" version="1.2" viewBox="0 0 18.9268798828125 18.9268798828125"><path d="M10.463 1.463l-1 2.934-1-2.934a1.056 1.056 0 1 1 2 0zm-9 7l2.934 1-2.934 1a1.056 1.056 0 1 1 0-2zm7 9l1-2.934 1 2.934a1.056 1.056 0 1 1-2 0zm9-7.002l-2.934-1 2.934-1a1.056 1.056 0 1 1 0 2zM4.513 3.1L5.88 5.88 3.1 4.513A1.057 1.057 0 1 1 4.512 3.1zM3.1 14.412l2.781-1.367-1.367 2.781A1.057 1.057 0 1 1 3.1 14.412zm11.313 1.414l-1.367-2.78 2.781 1.366a1.057 1.057 0 1 1-1.414 1.414zm1.413-11.315L13.043 5.88l1.368-2.782a1.057 1.057 0 1 1 1.414 1.414zm-6.362 9.452c-2.48 0-4.5-2.019-4.5-4.5s2.02-4.5 4.5-4.5 4.5 2.02 4.5 4.5-2.019 4.5-4.5 4.5zm0-7c-1.379 0-2.5 1.121-2.5 2.5s1.121 2.5 2.5 2.5 2.5-1.12 2.5-2.5-1.12-2.5-2.5-2.5z"/></svg>