<svg xmlns="http://www.w3.org/2000/svg" version="1.2" viewBox="0 0 21.324153900146484 17.498437881469727"><path d="M12.096 16.77a1.994 1.994 0 0 0 0-2.826 1.994 1.994 0 0 0-2.828-.002 2 2 0 1 0 2.828 2.828zm7.071-7.897a1.99 1.99 0 0 1-1.414-.586c-3.899-3.899-10.243-3.898-14.143 0A2 2 0 0 1 .781 5.458C6.241 0 15.122 0 20.581 5.458a2 2 0 0 1-1.414 3.415zM6.44 13.115a2 2 0 0 1-1.414-3.414c3.118-3.119 8.194-3.119 11.313 0a2 2 0 0 1-2.829 2.829 4.005 4.005 0 0 0-5.657 0 1.99 1.99 0 0 1-1.413.585z"/></svg>