<svg xmlns="http://www.w3.org/2000/svg" version="1.2" viewBox="0 0 16.810279846191406 16.806001663208008"><path d="M9.81 0c-3.859 0-7 3.141-7 7 0 .763.127 1.495.354 2.183l-.749.75-.51.512L.895 11.49a3.076 3.076 0 0 0-.89 2.185 3.134 3.134 0 0 0 3.13 3.131c.756 0 1.503-.278 2.103-.784l.064-.055.061-.061 1.512-1.51.75-.749A6.983 6.983 0 0 0 9.81 14c3.86 0 7-3.141 7-7s-3.14-7-7-7zm0 12c-2.757 0-5-2.243-5-5s2.243-5 5-5 5 2.243 5 5-2.243 5-5 5zm0-9c-2.205 0-4 1.794-4 4s1.795 4 4 4 4-1.794 4-4-1.795-4-4-4zm0 7a3.001 3.001 0 0 1 0-6 3.001 3.001 0 0 1 0 6z"/></svg>