<svg xmlns="http://www.w3.org/2000/svg" version="1.2" viewBox="0 0 16.80500030517578 16.80499839782715"><path d="M9.5 6.5h-2v-2c0-.275-.225-.5-.5-.5s-.5.225-.5.5v2h-2c-.275 0-.5.225-.5.5s.225.5.5.5h2v2c0 .275.225.5.5.5s.5-.225.5-.5v-2h2c.275 0 .5-.225.5-.5s-.225-.5-.5-.5zm6.381 4.956l-2.244-2.283A6.896 6.896 0 0 0 14 7c0-3.859-3.141-7-7-7S0 3.141 0 7s3.141 7 7 7c.762 0 1.488-.137 2.173-.364l2.397 2.386a3.279 3.279 0 0 0 2.104.783 3.134 3.134 0 0 0 3.131-3.131c0-.84-.328-1.628-.924-2.218zm-3.901-1.11l2.492 2.531c.205.203.332.486.332.797 0 .625-.507 1.131-1.131 1.131-.312 0-.594-.127-.816-.313l-2.512-2.511a6.056 6.056 0 0 0 1.635-1.635zM2 7c0-2.757 2.243-5 5-5s5 2.243 5 5-2.243 5-5 5-5-2.243-5-5z"/></svg>