<svg xmlns="http://www.w3.org/2000/svg" viewBox="0 0 930.9209594726562 512.0009765625"><path d="M.002 512.001V238.224h44.841l10.097-24.648h22.221l10.097 24.648h88.085v-18.585l7.68 18.585h45.65l8.09-18.985v18.985h218.582v-39.997l4.045-.41c3.635 0 4.034 2.837 4.034 5.662v34.745h112.732v-9.287c26.265 13.732 62.218 9.287 89.692 9.287l10.096-24.648h22.63l10.096 24.648h91.72v-23.429l13.732 23.429h73.534V85.494h-72.704v17.776l-10.096-17.776h-74.752v17.776l-9.288-17.776H620.208c-14.95 0-30.71 1.618-44.042 8.888v-8.888h-69.498v8.888c-8.08-7.27-18.985-8.888-29.49-8.888h-253.75l-17.367 39.189-17.377-39.189h-80.005v17.776l-8.888-17.776h-68.27L.002 157.819V0H930.91v273.777h-48.476c-11.315 0-23.429 2.017-32.727 8.889v-8.889h-71.516c-10.096 0-23.838 1.607-31.519 8.889v-8.889H618.99v8.889c-9.687-6.861-23.838-8.889-35.144-8.889h-84.45v8.889c-8.479-8.08-25.856-8.889-36.762-8.889h-94.546l-21.81 23.429-20.205-23.429H185.068v152.73h138.567l22.221-23.839 21.012 23.839h85.248v-35.963h8.478c12.124 0 24.647-.399 36.362-5.253v41.216h70.298v-40.008h3.236c4.034 0 4.854.409 4.854 4.854v35.154h213.73c11.725 0 26.265-2.427 35.553-9.697v9.697h67.881c12.933 0 26.665-1.219 38.39-6.871v92.365H0zm282.43-295.598h-26.666v-85.657l-37.98 85.657h-23.03l-37.97-85.657v85.657h-53.34L93.35 192.155H38.791l-10.097 24.248H.411l46.868-109.496h38.79l44.44 103.844V106.907h42.834l34.345 74.342 31.11-74.342h43.63v109.496zm-198.38-46.868l-18.187-43.633-17.776 43.633h35.963zm345.046 198.789v36.772h-50.913l-32.317-36.362-33.536 36.362H208.899V295.6h105.042l32.327 35.963 33.137-35.963h83.63c24.648 0 44.042 8.489 44.042 35.963 0 44.032-48.087 36.762-77.978 36.762zm-100.209-18.187l-28.283-31.918h-65.853v19.804h57.375v22.221h-57.375v21.822h64.246l29.89-31.928zm60.61-133.734h-87.675V106.907h87.675v23.03H328.08v19.804h59.801v22.221h-59.8v21.821h61.418v22.62zm13.333 178.585v-87.675l-40.007 43.233 40.007 44.442zm91.31-229.089c14.951 5.253 17.378 14.551 17.378 29.092v21.422h-26.265c-.409-23.429 5.653-39.598-23.429-39.598h-28.283v39.598h-25.855V106.906l61.82.409c21.012 0 43.222 3.226 43.222 29.092 0 12.524-6.86 24.637-18.586 29.491zm-31.109 152.32h-33.935v27.884h33.536c9.298 0 16.558-4.444 16.558-14.551 0-9.697-7.26-13.332-16.159-13.332zm3.635-188.283h-33.127v24.249h32.727c8.89 0 17.378-2.018 17.378-12.524 0-10.107-8.889-11.725-16.978-11.725zm139.4 224.246c14.551 5.253 17.378 14.951 17.378 29.092v21.822h-26.265V386.91c0-18.596-6.062-21.822-23.429-21.822h-27.884v40.007h-26.265V295.599h62.218c20.603 0 42.834 3.645 42.834 29.501 0 12.114-6.462 24.238-18.586 29.082zm-51.723-137.779H527.68V106.907h26.665v109.496zm24.658 101.816h-33.136v24.648h32.727c8.89 0 17.367-2.018 17.367-12.933 0-10.096-8.878-11.715-16.957-11.715zm285.245-101.816h-37.17l-49.297-82.022v82.022h-53.34l-10.506-24.248h-54.137l-10.096 24.248h-30.3c-35.963 0-52.132-18.596-52.132-53.739 0-36.762 16.568-55.757 53.74-55.757h25.457v23.849c-27.474-.41-52.52-6.471-52.52 31.109 0 18.586 4.443 31.519 25.456 31.519h11.715l37.171-86.057h39.198l44.041 103.434V107.317h39.997l46.06 75.96v-75.96h26.664v109.087zM726.469 405.095h-87.275V295.599h87.275v22.63h-61.01v19.804h59.802v22.221h-59.802v21.822l61.01.399v22.62zm-21.412-235.56l-17.777-43.633-18.186 43.633h35.963zm88.084 235.56h-50.913v-23.429h50.913c6.462 0 13.732-1.618 13.732-10.096 0-23.429-67.47 8.889-67.47-43.233 0-22.221 16.966-32.727 37.17-32.727h52.531v23.03h-48.086c-6.87 0-14.55 1.218-14.55 10.096 0 23.838 67.88-10.906 67.88 41.615.01 25.846-17.776 34.745-41.206 34.745zm137.78-14.141c-7.68 11.315-22.63 14.141-35.554 14.141h-50.514v-23.429h50.504c6.471 0 13.332-2.017 13.332-10.096 0-23.03-67.47 8.889-67.47-43.233 0-22.221 17.377-32.727 37.58-32.727h52.121v23.03h-47.678c-7.27 0-14.55 1.218-14.55 10.096 0 19.394 45.66-.399 62.217 21.412v40.807z"/></svg>