<svg xmlns="http://www.w3.org/2000/svg" viewBox="0 0 1041.8729248046875 479.383056640625"><path d="M280.229 198.533c.543 56.555 51.221 75.367 51.784 75.612-.43 1.331-8.1 26.818-26.695 53.145-16.077 22.764-32.768 45.445-59.065 45.916-25.835.461-34.14-14.838-63.673-14.838-29.522 0-38.758 14.366-63.212 15.298-25.374.932-44.697-24.617-60.918-47.298C25.323 279.97 0 195.265 33.997 138.085c16.886-28.395 47.073-46.377 79.831-46.838 24.924-.461 48.435 16.24 63.672 16.24 15.227 0 43.806-20.081 73.851-17.132 12.575.512 47.892 4.925 70.564 37.069-1.822 1.095-42.127 23.828-41.687 71.106zM231.682 59.668C245.158 43.868 254.22 21.882 251.753 0c-19.415.758-42.906 12.534-56.832 28.324-12.482 13.978-23.419 36.362-20.47 57.805 21.648 1.618 43.756-10.66 57.232-26.46zm194.986-27.049c9.988-1.68 21.002-3.198 33.041-4.544s25.291-2.014 39.755-2.014c20.65 0 38.46 2.439 53.431 7.307 14.971 4.878 27.27 11.851 36.905 20.929 8.268 8.066 14.722 17.64 19.365 28.743 4.641 11.092 6.962 23.875 6.962 38.327 0 17.478-3.18 32.78-9.543 45.887s-15.054 24.118-26.068 33.023c-11.014 8.906-24.089 15.546-39.236 19.918s-31.663 6.558-49.566 6.558c-16.173 0-29.767-1.174-40.769-3.522v145.22h-24.276V32.619zm24.287 169.43c5.854 1.67 12.392 2.844 19.613 3.512s14.961 1.012 23.22 1.012c30.968 0 54.974-7.054 72.007-21.173s25.55-34.785 25.55-62.019c0-13.106-2.239-24.543-6.715-34.288s-10.837-17.732-19.095-23.956c-8.258-6.214-18.059-10.92-29.424-14.118-11.356-3.198-23.923-4.797-37.692-4.797-11.003 0-20.473.425-28.389 1.265s-14.288 1.761-19.095 2.773l.021 151.789zm358.141 108.908c0 9.756.166 19.502.508 29.248s1.378 19.159 3.098 28.236h-22.72l-3.607-34.288h-1.036c-3.098 4.706-7.056 9.412-11.874 14.119s-10.402 8.987-16.774 12.853c-6.36 3.866-13.593 6.973-21.685 9.321s-16.95 3.522-26.586 3.522c-12.049 0-22.628-1.933-31.756-5.789-9.117-3.866-16.609-8.906-22.452-15.13-5.854-6.224-10.236-13.37-13.158-21.426s-4.383-16.132-4.383-24.208c0-28.571 12.308-50.593 36.915-66.058s61.688-22.863 111.254-22.185v-6.558c0-6.386-.6-13.703-1.813-21.941s-3.875-16.051-7.999-23.44c-4.124-7.388-10.319-13.612-18.577-18.653s-19.447-7.56-33.558-7.56c-10.662 0-21.24 1.599-31.735 4.787s-20.048 7.641-28.648 13.359l-7.75-17.65c11.014-7.388 22.38-12.681 34.077-15.869 11.697-3.198 23.913-4.797 36.646-4.797 17.21 0 31.238 2.854 42.075 8.572s19.354 13.106 25.55 22.185c6.195 9.078 10.412 19.239 12.65 30.503s3.356 22.438 3.356 33.53l-.02 95.316zm-24.255-72.1c-13.086-.334-26.773.162-41.049 1.508s-27.436 4.281-39.485 8.825-22.027 11.183-29.942 19.918c-7.915 8.744-11.874 20.343-11.874 34.795 0 17.144 4.984 29.745 14.961 37.82 9.977 8.066 21.167 12.105 33.558 12.105 9.977 0 18.92-1.346 26.835-4.038s14.795-6.305 20.65-10.839c5.853-4.534 10.754-9.655 14.711-15.373s6.973-11.598 9.045-17.651c1.72-6.73 2.58-11.608 2.58-14.635l.01-52.435zm71.718-112.46l62.962 157.335c3.44 8.744 6.714 17.731 9.812 26.971s5.854 17.731 8.258 25.463h1.036c2.404-7.398 5.16-15.717 8.258-24.957s6.538-18.743 10.32-28.5l58.86-156.313h25.808l-71.738 177.506c-7.232 18.824-14.039 35.887-20.4 51.18s-12.817 29.077-19.354 41.353c-6.538 12.266-13.158 23.115-19.872 32.528s-14.194 17.65-22.462 24.704c-9.635 8.4-18.494 14.533-26.576 18.409-8.092 3.866-13.51 6.305-16.256 7.307l-8.268-19.664c6.196-2.692 13.086-6.214 20.65-10.586 7.572-4.372 14.97-10.08 22.192-17.144 6.196-6.052 12.992-14.038 20.39-23.955s14.018-21.932 19.872-36.06c2.072-5.374 3.108-8.906 3.108-10.586 0-2.348-1.036-5.88-3.108-10.586l-89.31-224.394h25.82z"/></svg>