<svg xmlns="http://www.w3.org/2000/svg" viewBox="0 0 819.2010498046875 256"><path d="M33.568 254.638H8.161l21.156-82.032H0l4.578-17.582H88.72l-4.588 17.582H54.733l-21.165 82.033zm86.99-38.226l-9.923 38.226H85.23l25.733-99.615h29.911c13.148 0 23.04 2.314 29.655 6.953 6.594 4.629 9.913 11.428 9.913 20.368 0 7.188-2.314 13.342-6.912 18.503-4.618 5.151-11.254 8.981-19.917 11.469l21.74 42.312h-27.658l-17.234-38.226h-9.902zm4.401-17.172h6.502c7.27 0 12.944-1.29 17-3.881s6.082-6.543 6.082-11.858c0-3.727-1.32-6.512-3.963-8.376-2.63-1.864-6.789-2.796-12.452-2.796h-6.165l-7.004 26.911zm134.124 31.682h-39.394l-14.326 23.706h-26.654l63.795-100.024h31.08l12.236 100.024h-24.73l-2.007-23.706zm-1.249-17.705l-2.15-23.849a182.982 182.982 0 0 1-.84-17.234v-2.457c-2.447 5.447-5.468 11.223-9.072 17.295l-15.657 26.235h27.72zm146.37 41.421h-28.478l-29.655-75.356h-.512l-.338 2.181c-1.782 9.81-3.615 18.575-5.488 26.296l-12.083 46.879h-22.907l25.733-99.615h29.737l28.324 73.38h.338c.666-3.441 1.751-8.377 3.257-14.777 1.495-6.4 6.502-25.938 14.991-58.593h22.825l-25.743 99.605zm107.982-29.43c0 9.493-4.106 16.999-12.329 22.518S480.493 256 466.454 256c-12.288 0-22.169-2.048-29.655-6.134v-18.668c10.711 4.905 20.654 7.362 29.808 7.362 6.216 0 11.08-.962 14.582-2.898 3.502-1.925 5.253-4.567 5.253-7.926 0-1.956-.379-3.666-1.136-5.151-.747-1.474-1.822-2.846-3.195-4.116-1.403-1.27-4.843-3.584-10.332-6.963-7.659-4.485-13.066-8.94-16.169-13.353-3.113-4.393-4.669-9.144-4.669-14.233 0-5.858 1.721-11.09 5.171-15.708 3.431-4.608 8.346-8.192 14.694-10.762 6.37-2.56 13.67-3.84 21.955-3.84 12.042 0 23.071 2.243 33.065 6.738l-9.072 15.882c-8.663-3.358-16.66-5.048-23.992-5.048-4.618 0-8.397 1.024-11.326 3.072-2.96 2.048-4.423 4.752-4.423 8.1 0 2.775.912 5.192 2.755 7.26 1.822 2.068 5.93 4.803 12.33 8.212 6.706 3.635 11.734 7.639 15.072 12.032 3.36 4.362 5.018 9.482 5.018 15.35zm45.67 29.43h-25.405l25.733-99.615h67.81l-4.496 17.306h-42.312l-6.585 25.692h39.404l-4.669 17.234h-39.404l-10.076 39.383zm137.461 0h-68.055l25.733-99.615h68.137l-4.495 17.306h-42.649l-5.59 21.872h39.74l-4.577 17.296h-39.74l-6.667 25.692h42.65l-4.486 17.449zm64-38.226l-9.923 38.226h-25.405l25.733-99.615h29.911c13.148 0 23.04 2.314 29.655 6.953 6.605 4.629 9.913 11.428 9.913 20.368 0 7.188-2.314 13.342-6.912 18.503-4.618 5.151-11.254 8.981-19.917 11.469l21.74 42.312h-27.658l-17.234-38.226h-9.902zm4.404-17.172h6.503c7.27 0 12.943-1.29 17-3.881s6.081-6.543 6.081-11.858c0-3.727-1.32-6.512-3.963-8.376-2.63-1.864-6.789-2.796-12.452-2.796h-6.164l-7.004 26.911zM378.748.42c12.738 0 22.354 1.894 28.866 5.683 6.502 3.799 9.758 9.452 9.758 16.978 0 6.974-2.304 12.728-6.922 17.275-4.618 4.526-11.182 7.547-19.692 9.031v.42c5.56 1.209 10.005 3.451 13.302 6.738 3.318 3.277 4.956 7.475 4.956 12.585 0 10.66-4.25 18.862-12.759 24.627s-20.275 8.653-35.298 8.653h-43.52L343.213.43h35.533zm-31.365 84.122h15.012c6.502 0 11.612-1.351 15.31-4.045 3.706-2.693 5.55-6.441 5.55-11.223 0-7.537-5.08-11.305-15.269-11.305h-13.762l-6.84 26.573zm11.1-43.736h12.421c6.728 0 11.776-1.137 15.135-3.389 3.37-2.263 5.048-5.499 5.048-9.728 0-6.37-4.73-9.564-14.183-9.564h-12.666l-5.755 22.681zm134.983 37.315h-39.455L439.665 102.4h-26.696L476.857 0h31.12l12.258 102.4h-24.77l-1.997-24.279zm-1.249-18.135l-2.16-24.412c-.563-6.093-.85-11.971-.85-17.644v-2.509c-2.447 5.581-5.468 11.489-9.083 17.705l-15.688 26.86h27.781zM638.803 102.4h-28.519l-29.696-77.148h-.512l-.338 2.233c-1.782 10.046-3.615 19.016-5.499 26.921l-12.093 47.995h-22.938L564.982.421h29.778l28.365 75.12h.338c.665-3.522 1.761-8.571 3.256-15.135 1.505-6.553 6.503-26.553 15.012-59.986h22.856L638.803 102.4zm124.405 0h-28.21l-17.593-41.298-10.434 4.885-9.083 36.413h-25.436L698.226.42h25.53l-12.678 48.968 13.18-14.305L758.368.42h30.115l-49.552 48.825 24.28 53.156zM266.241 10.24c0-5.653-4.587-10.24-10.24-10.24H30.721c-5.653 0-10.24 4.587-10.24 10.24 0 5.652 4.588 10.24 10.24 10.24h225.28c5.652 0 10.24-4.588 10.24-10.24zm-61.44 40.96c0-5.652-4.587-10.24-10.24-10.24H30.721c-5.653 0-10.24 4.588-10.24 10.24 0 5.653 4.588 10.24 10.24 10.24h163.84c5.652 0 10.24-4.587 10.24-10.24zm-61.44 40.96c0-5.653-4.588-10.24-10.24-10.24h-102.4c-5.653 0-10.24 4.587-10.24 10.24 0 5.653 4.588 10.24 10.24 10.24h102.4c5.653 0 10.24-4.588 10.24-10.24z"/></svg>