<svg xmlns="http://www.w3.org/2000/svg" viewBox="0 0 977.9600219726562 210.2999267578125"><path d="M203.868 130.295c-6.482 27.095-21.617 47.739-45.476 61.92-23.9 14.214-49.346 18.085-76.442 11.613-28.385-6.441-49.674-21.924-63.856-46.45C3.87 132.886 0 107.07 6.482 79.976c6.441-27.095 21.924-47.708 46.45-61.922C77.415 3.87 103.24 0 130.335 6.44c27.095 6.47 47.698 21.955 61.922 46.449 14.192 24.514 18.064 50.309 11.612 77.404zm-75.469-65.793l3.87-17.418-11.612-3.87-3.87 19.353c-1.3-1.27-4.547-1.935-9.677-1.935l5.806-19.353-11.612-1.935-3.87 17.418c-3.87 0-6.482-.635-7.742-1.935l-15.483-3.87-1.936 13.547 7.742 1.936c2.57 0 3.871 1.935 3.871 5.806l-3.87 21.289-7.73 29.02c0 3.87-1.937 4.536-5.807 1.935l-7.742-1.935-5.806 13.548 15.483 3.87c3.87 0 6.441.665 7.742 1.935l-5.806 17.418 11.612 3.87 5.806-19.353c1.26 1.3 3.87 1.935 7.742 1.935l-3.87 19.354 11.612 1.935 3.87-17.418c20.613 3.87 33.536-1.27 38.707-15.483 5.13-11.612 1.935-20.624-9.677-27.095 9.001-2.57 13.548-7.742 13.548-15.483 1.25-11.612-5.816-20.613-21.299-27.085zm-19.354 46.439c12.871 3.87 18.053 9.042 15.483 15.483-2.61 7.74-14.224 9.042-34.837 3.87l7.742-23.225c7.742 1.3 11.612 2.6 11.612 3.87zm5.806-36.772c11.612 3.87 16.118 9.042 13.547 15.483-2.61 9.042-12.288 10.977-29.03 5.806l5.805-23.225c5.13 1.3 8.376 1.936 9.677 1.936zm180.941-8.704c-1.935.666-3.584.963-4.834.963-2.61 0-6.482 1.3-11.612 3.87l17.418-65.792-40.642 5.806-44.513 185.774c5.13 3.87 10.311 5.806 15.483 5.806 1.26 0 3.87.327 7.742.962 3.87.666 6.441 1.639 7.741 2.898h23.224c10.312 0 21.29-1.935 32.901-5.806 9.001-3.87 18.053-10.312 27.095-19.354 10.312-12.882 16.118-21.924 17.418-27.095 3.87-9.011 5.806-19.99 5.806-32.901 0-10.312-.676-17.418-1.935-21.29-1.3-6.44-4.546-12.246-9.677-17.417-3.87-6.441-8.418-10.311-13.548-11.612-7.74-3.87-15.483-5.806-23.224-5.806-1.3.03-2.908.359-4.844.994zm-31.928 109.332h-7.74l15.482-71.598 11.612-5.806h9.677c7.741 0 12.247 1.935 13.548 5.806 3.87 6.472 5.806 12.902 5.806 19.353 0 5.17-1.3 11.612-3.87 19.354-1.3 3.87-4.546 9.677-9.677 17.418-5.17 5.17-9.677 9.042-13.548 11.612-7.74 2.6-13.548 3.87-17.418 3.87h-3.87zM422.542 68.363h-38.707l-30.966 135.465h38.707l30.966-135.465zm-3.87-19.343c5.13-2.57 8.377-4.506 9.677-5.806 2.57-2.57 4.505-5.14 5.806-7.741 0-1.27.286-2.898.962-4.834.635-1.935.962-3.543.962-4.834 0-6.441-2.61-11.612-7.74-15.483-5.172-2.57-9.678-3.87-13.549-3.87-5.17 0-8.418.665-9.677 1.935-1.3 0-2.898.666-4.834 1.936-1.935 1.3-3.584 2.6-4.834 3.87-2.61 2.6-4.546 5.17-5.806 7.74 0 1.3-.327 2.899-.962 4.834-.676 1.936-.962 3.574-.962 4.834 0 6.47 2.57 11.612 7.741 15.483 5.13 2.6 9.677 3.87 13.548 3.87 5.12 0 8.366-.645 9.666-1.935zm11.612 90.95c-1.3 6.472-1.935 14.839-1.935 25.16-1.3 6.47-.676 13.548 1.935 21.289 5.13 7.74 10.312 12.278 15.483 13.548 5.13 3.87 14.183 5.806 27.095 5.806 10.312 0 17.418-.635 21.29-1.935 1.26 0 3.87-.297 7.74-.962 3.87-.635 6.441-1.608 7.741-2.898l-1.936-30.966c-5.17 2.6-9.042 3.87-11.612 3.87-2.61 1.3-6.482 1.935-11.612 1.935h-7.74l-3.87-1.935-5.807-5.806c0-1.27-.327-2.898-.962-4.833-.676-1.936-.962-3.543-.962-4.834 0-1.27.286-3.205.962-5.806.635-2.57.962-4.505.962-5.806l11.612-46.448h42.578l7.741-30.966h-42.578l9.677-40.643-40.642 5.806-25.159 106.424zm100.628 30.957c1.26 5.17 4.505 11.612 9.677 19.354 7.741 5.17 14.183 9.042 19.354 11.612 3.87 2.6 12.871 3.87 27.095 3.87 9.001 0 15.483-.635 19.354-1.935 3.87 0 9.677-1.27 17.418-3.87l-3.87-30.966c-1.3 1.3-3.236 1.935-5.806 1.935-2.61 0-4.547.666-5.806 1.936-1.3 0-3.87.327-7.74.962-3.87.665-6.483.962-7.742.962-7.74 0-14.223-2.57-19.354-7.741-3.87-5.14-5.806-12.247-5.806-21.29 0-14.182 3.195-26.43 9.677-36.771 7.741-7.741 18.053-11.612 30.966-11.612h13.548c5.13 2.6 8.376 3.87 9.677 3.87l13.548-29.03c-2.61-1.27-7.74-3.205-15.483-5.806-3.87-1.27-10.977-1.935-21.289-1.935-11.612 0-22.579 1.935-32.9 5.806-12.914 7.742-21.966 14.213-27.096 19.354-7.74 10.343-12.903 19.353-15.483 27.095-3.87 10.342-5.806 21.289-5.806 32.9 0 6.493 1.26 13.569 3.87 21.3zm199.322 27.095c9.001-5.14 16.742-11.612 23.225-19.353 7.741-10.312 12.247-19.354 13.548-27.095 3.87-11.612 5.806-21.924 5.806-30.966 0-5.14-1.3-12.882-3.87-23.225-1.3-3.87-4.547-9.677-9.677-17.418-3.87-6.441-9.677-10.312-17.418-11.612-7.74-2.57-15.483-3.87-23.225-3.87-12.903 0-23.9 2.6-32.9 7.74-12.904 10.344-20.645 16.774-23.226 19.354-9.042 14.213-14.223 23.89-15.483 29.03-2.61 12.903-3.87 23.225-3.87 30.967 0 10.342 1.26 17.418 3.87 21.289 2.57 9.042 5.806 14.838 9.677 17.418 3.87 5.17 9.001 9.042 15.483 11.612 5.13 2.6 12.871 3.87 23.225 3.87 14.183 0 25.794-2.57 34.837-7.741zm0-94.823c2.57 7.74 3.87 14.838 3.87 21.289 0 6.47-.676 11.612-1.936 15.483l-5.806 17.418L714.75 169c-3.87 3.87-9.042 5.806-15.483 5.806-6.482 0-10.977-2.57-13.548-7.741-2.61-2.57-3.87-9.011-3.87-19.354 0-7.741.635-13.548 1.936-17.418 0-2.57 1.936-7.741 5.806-15.483 5.13-6.441 9.001-10.947 11.612-13.548 2.57-2.57 7.066-3.87 13.548-3.87 7.741 0 12.871 1.935 15.483 5.806zm116.111-34.836h-38.707l-30.966 135.465h36.772l32.901-135.465zm-3.87-19.343c3.87-2.57 6.441-4.506 7.741-5.806 3.87-2.57 5.806-5.14 5.806-7.741 1.26-2.57 1.936-5.806 1.936-9.677 0-6.441-1.936-11.612-5.806-15.483-5.17-2.57-9.677-3.87-13.548-3.87-5.17 0-9.042.666-11.612 1.935l-3.87 1.935c-2.61 1.3-3.87 2.6-3.87 3.87-2.61 2.6-4.547 5.17-5.806 7.742-1.3 2.6-1.936 5.806-1.936 9.677 0 6.47 1.936 11.612 5.806 15.483 7.741 2.6 12.871 3.87 15.483 3.87 3.87 0 7.066-.645 9.677-1.935zm0 154.808h38.707l25.16-104.5c2.57-1.27 7.74-1.934 15.482-1.934 5.13 0 8.376.666 9.677 1.935 3.87 1.3 5.806 3.87 5.806 7.74v11.613c0 1.3-.327 3.236-.962 5.806-.676 2.6-.962 5.17-.962 7.74l-17.418 71.599h38.707l17.418-73.534c3.87-21.924 2.57-38.032-3.87-48.384-7.74-11.612-21.965-17.418-42.578-17.418-7.74 0-13.548.665-17.418 1.935-7.74 0-12.903.666-15.483 1.936-1.3 0-3.236.327-5.806.962-2.61.666-4.547.962-5.806.962-5.17 2.6-8.418 3.87-9.677 3.87l-30.975 129.669z"/></svg>