<svg xmlns="http://www.w3.org/2000/svg" viewBox="0 0 766.5069580078125 512.0010375976562"><path d="M766.507 25.448v461.097c0 5.007-2.499 10.998-7.486 17.961-5.008 5.017-10.998 7.495-17.96 7.495H25.447c-6.994 0-12.984-2.478-17.96-7.486C2.479 497.541 0 491.561 0 486.554V25.447C0 20.46 2.478 14.47 7.486 7.486 12.473 2.499 18.463 0 25.447 0h715.604c6.973 0 12.953 2.498 17.961 7.486 4.997 6.994 7.495 12.984 7.495 17.961zm-50.903 332.36V154.196c-27.955 0-51.907-9.964-71.865-29.942-19.978-19.958-29.942-44.4-29.942-73.36H152.701c0 28.959-9.984 53.402-29.942 73.36-19.978 19.978-43.929 29.942-71.865 29.942v203.602c27.924 0 51.886 9.984 71.865 29.942 19.958 19.978 29.942 44.421 29.942 73.36h461.097c0-28.938 9.963-53.381 29.942-73.36 19.958-19.947 43.92-29.932 71.865-29.932zM510.507 256.002c0 15.974-2.499 34.949-7.486 56.894-5.99 20.962-13.988 38.922-23.952 53.893-9.984 15.974-23.46 29.45-40.418 40.418-17.96 9.984-36.444 14.971-55.388 14.971-18.964 0-37.427-4.987-55.388-14.971-16.988-10.978-30.454-24.443-40.418-40.418-9.984-14.971-17.96-32.932-23.952-53.893-5.007-21.945-7.486-40.919-7.486-56.894 0-15.954 2.478-34.928 7.486-56.893 5.99-20.962 13.967-38.922 23.952-53.893 9.964-15.954 23.44-29.43 40.418-40.418 17.95-9.963 36.413-14.971 55.378-14.971 18.944 0 37.427 5.008 55.388 14.971 16.957 10.998 30.433 24.474 40.418 40.418 9.963 14.971 17.961 32.932 23.952 53.893 4.997 21.965 7.495 40.939 7.495 56.893zM306.905 357.808h152.7v-37.427h-50.904v-179.65h-44.913l-59.884 55.388 31.437 31.437c11.981-11.981 18.944-19.466 20.962-22.456h1.495v115.271h-50.903v37.438z"/></svg>