<svg xmlns="http://www.w3.org/2000/svg" viewBox="0 0 1024 438.0780029296875"><path d="M265.584 219.045h271.063c0 74.865-21.904 130.52-65.71 167.014-43.806 34.693-111.35 52.02-202.608 52.02-94.925 0-163.379-17.338-205.343-52.02C20.961 349.564 0 293.91 0 219.044c0-72.98 16.425-124.999 49.285-156.068C93.092 21.002 166.072 0 268.319 0c94.884 0 165.182 19.17 210.821 57.498 36.495 31.058 54.764 78.5 54.764 142.377H265.587v19.17zm665.324-19.17H553.072V8.213h369.634c25.55 0 47.913 9.584 67.082 28.743s28.744 41.533 28.744 67.082c0 25.59-8.212 47.493-24.638 65.71-16.435 18.268-37.438 28.334-62.986 30.126zm-2.734 19.17c25.55 1.833 47.913 12.79 67.082 32.86 19.17 20.111 28.744 44.75 28.744 73.923 0 27.382-9.585 50.658-28.744 69.817s-41.534 29.696-67.082 31.488h-375.1V219.046h375.1z"/></svg>