<svg xmlns="http://www.w3.org/2000/svg" viewBox="0 0 854.740966796875 511.99798583984375"><path d="M820.9 126.945c-24.014-38.083-55.01-69.089-93.093-93.092C685.495 11.305 642.437 0 598.742 0 540.886 0 489.43 17.654 444.303 52.889c40.9 36.7 67.707 81.121 80.394 133.294h-23.274c-11.315-45.127-35.963-85.33-74.046-120.596-38.082 35.266-62.77 75.469-74.046 120.596h-23.276c12.697-52.163 39.454-96.594 80.394-133.294C365.281 17.653 313.824 0 256 0c-43.735 0-86.743 11.305-129.054 33.853-38.083 24.003-69.12 55.01-93.092 93.092C11.284 166.44 0 209.459 0 255.999s11.274 89.59 33.853 129.054c23.972 38.082 55.01 69.12 93.092 93.092 42.311 22.579 85.33 33.853 129.054 33.853 57.825 0 109.271-17.623 154.45-52.889-36.71-32.43-62.77-73.318-78.285-122.706h23.276c14.07 42.312 38.082 79.012 71.936 110.019 33.853-31.006 57.826-67.707 71.936-110.019h23.275c-15.554 49.388-41.615 90.276-78.285 122.706 45.128 35.267 96.583 52.889 154.44 52.889 43.693 0 86.742-11.274 129.053-33.853 38.082-23.972 69.08-55.01 93.092-93.092 22.528-39.465 33.854-82.514 33.854-129.055s-11.315-89.559-33.843-129.055zM259.142 220.64c-9.236-3.553-18.832-5.263-28.702-4.885-6.748.256-13.353 1.628-19.415 4.793-4.976 2.591-9.748 5.509-13.015 10.302l.062-.041c-.256.276-.522.542-.778.819l.082-.061c-.297.246-.604.482-.9.727-5.152 5.53-7.999 12.268-9.207 19.528-.88 5.243-1.137 10.701-.829 16.016.4 6.933 4.291 12.308 9.462 16.722 5.294 4.526 11.745 6.236 18.432 7.312 11.111 1.782 21.524-.758 31.652-5.079 1.772-.758 3.543-1.536 5.724-2.468-.307 1.884-.48 3.41-.819 4.905-1.423 6.288-3.02 12.544-4.29 18.862-.564 2.796-1.803 4.322-4.69 4.537-.953.072-1.875.522-2.807.788-2.745.563-5.488 1.168-8.243 1.669-13.752 2.509-27.433 2.488-41.03-1.127-24.003-6.38-38.708-24.013-39.988-48.496-.88-16.773 3.78-32.01 13.732-45.578 4.444-5.191 9.154-10.087 14.797-14.039 8.55-5.98 18.125-9.493 28.221-11.591 9.707-2.007 19.568-2.796 29.481-2.14 10.834.717 21.555 2.284 32.092 4.966 2.468.635 2.54.656 1.997 3.062-1.515 6.779-3.082 13.537-4.649 20.306-.164.697-.502 1.351-.778 2.069-1.956-.656-3.779-1.26-5.59-1.874zm60.713.819c-2.274 10.588-4.598 21.177-6.85 31.764-3.78 17.746-7.527 35.492-11.275 53.238-.502 2.386-1.003 4.761-1.495 7.147-.543 2.632-.543 2.683-3.379 2.683-8.919-.01-17.849-.072-26.767-.082-1.209 0-2.427.154-3.635.236-2.079-.062-1.485-1.403-1.229-2.58 3.748-17.52 7.516-35.031 11.233-52.552 2.406-11.325 4.741-22.671 7.106-34.007.42-1.874.85-3.748 1.26-5.632.543-2.498.533-2.55 3.082-2.56 6.605-.031 13.2-.01 19.804-.01 3.42 0 6.851-.031 10.271.02 2.151.02 2.314.246 1.874 2.334zm78.275 23.829c-.594-.123-1.188-.195-1.792-.286-8.51-1.403-14.827 2.243-19.968 8.622-1.372 2.119-3.062 4.106-4.055 6.39-4.199 9.666-6.717 19.856-8.868 30.136-1.567 7.516-3 15.053-4.495 22.579-.123.594-.46 1.168-.49 1.761-.083 1.505-.963 1.731-2.223 1.71-1.833-.021-3.666.082-5.499.144h-28.62c.071-.983.04-1.475.143-1.936 1.792-7.977 3.615-15.933 5.386-23.91 3.646-16.425 7.312-32.84 10.875-49.285 1.055-4.844 1.813-9.758 2.714-14.643.307-1.802.666-3.594.901-5.407.195-1.474.891-2.089 2.416-2.078 9.298.041 18.596.051 27.904-.01 1.66-.01 2.202.666 2.017 2.171-.307 2.54-.604 5.079-.983 7.598-.195 1.3-.533 2.57-.9 4.28 1.75-.492 2.446-1.628 3.276-2.519 3.44-3.686 7.117-7.076 11.745-9.246 7.772-3.645 15.902-4.034 24.555-2.673-1.772 4.403-3.43 8.571-5.12 12.738a3068.99 3068.99 0 0 1-4.69 11.52c-1.198 2.97-1.209 2.97-4.229 2.345zm83.486-2.498c-1.28 3.102-1.29 3.093-4.823 2.284-.348-.082-.727-.041-1.096-.051-8.929-1.495-15.432 2.427-20.603 9.278-1.168 1.813-2.63 3.502-3.46 5.458-4.558 10.701-7.292 21.934-9.596 33.29-1.433 7.035-2.96 14.05-4.26 21.105-.317 1.751-1.014 2.202-2.62 2.16-1.7-.041-3.4.154-5.1.246l-1.24-.123c-2.406-.082-4.823-.256-7.229-.236-6.41.041-12.81.154-19.22.236-1.854-.379-.963-1.68-.759-2.581 2.048-9.165 4.147-18.319 6.236-27.474 4.526-19.856 9.33-39.639 12.636-59.751.327-1.915.768-3.83.952-5.765.144-1.485.88-1.802 2.171-1.792 3.051.041 6.114.01 9.175.01 5.99 0 11.981-.01 17.971.01 3.144.01 3.266.041 3.01 3.298-.164 2.171-.788 4.301-1.096 6.471-.205 1.393-.215 2.806-.317 4.208 1.833-1.751 3.687-3.482 5.5-5.253 5.897-5.786 12.881-9.206 21.206-9.513 3.984-.144 7.977-.02 12.452-.02-1.485 3.789-2.745 7.045-4.045 10.281a2529.336 2529.336 0 0 1-5.847 14.224zm115.456 38.891c-1.72 7.833-3.41 15.678-4.987 23.542-.522 2.621-.625 5.325-.983 7.977-.369 2.816-.594 2.959-3.44 3.041-1.342.041-2.674.144-4.015.226-8.499-.062-16.999-.112-25.815-.174.88-5.314 1.69-10.209 2.55-15.39-3.687 3.164-7.086 6.062-10.455 9.011-.164.144-.01.655.01 1.003.041 0 .082.01.123.01h-.123v-.01c-.194-.01-.389-.03-.573-.041l-3.042 2.181c-1.044.277-2.15.399-3.113.86-8.612 4.106-17.736 5.366-27.115 4.413-11.029-1.116-19.23-6.646-23.982-16.814-3.87-8.284-4.045-17.081-2.6-25.846 1.596-9.738 3.818-19.374 5.774-29.051 1.301-6.43 2.611-12.851 3.912-19.282.798-2.714 1.587-5.427 2.386-8.131l29.01.092c.86 0 1.71-.031 2.57.01 2.171.082 2.55.532 2.1 2.683-1.209 5.714-2.458 11.407-3.698 17.111-2.59 11.888-5.304 23.747-7.72 35.666-2.069 10.209 4.494 15.053 12.277 15.678 5.161.409 10.22.072 14.694-3 1.485-1.045 3.092-1.956 4.413-3.175 5.14-4.69 7.977-10.69 9.554-17.346 1.178-4.976 2.284-9.984 3.38-14.981 1.801-8.202 3.562-16.415 5.334-24.627.37-1.403.768-2.796 1.116-4.208.932-3.81.922-3.81 4.711-3.81h22.764c2.202 0 4.403.031 6.605-.01 1.628-.03 2.12.533 1.71 2.222-1.106 4.608-2.018 9.267-3.042 13.895-3.43 15.422-6.89 30.843-10.29 46.275zm103.62-41.442c-.298 1.423-.953 1.792-2.243 1.72-1.465-.082-2.928-.061-4.383-.082-7.885-.952-15.8-1.669-23.736-.911-2.888.276-5.806.891-8.53 1.874-2.806 1.004-4.7 3.093-4.393 6.441-.205 3 1.874 4.454 4.126 5.417 4.25 1.822 8.612 3.389 12.953 4.976 5.867 2.14 11.622 4.465 16.425 8.633 4.322 3.748 6.8 8.386 7.68 14.111.645 4.198.317 8.253-.48 12.308-1.322 6.789-4.906 12.135-10.64 16.046-.389.266-.645.707-.962 1.075-.205.215-.409.43-.604.645l.062-.092c-.46.092-.983.082-1.372.286-7.209 3.891-15.033 5.499-23.06 6.492-8.879 1.106-17.798 1.116-26.687.635-8.51-.461-16.988-1.444-25.477-2.263-2.099-.205-2.13-.42-1.7-2.611.778-3.942 1.557-7.885 2.324-11.837.543-1.986 1.096-3.973 1.607-5.97.655-2.509.87-2.693 3.348-2.232 2.99.553 5.95 1.25 8.94 1.71 3.235.491 6.512.798 9.768 1.168 1.936.215 3.87.441 5.806.553 5.611.297 11.182.01 16.66-1.423 1.475-.491 3.042-.798 4.403-1.515 4.976-2.642 4.976-9.595.102-11.745-1.229-.543-2.365-1.28-3.615-1.751-4.219-1.597-8.468-3.092-12.688-4.69-5.038-1.904-9.87-4.229-14.14-7.577-4.886-3.83-8.255-8.581-9.227-14.858-1.065-6.912.287-13.343 3.635-19.415 5.97-8.816 14.766-13.046 24.75-15.504 9.953-2.437 20.06-2.498 30.178-2.202 7.905.236 15.79 1.014 23.696 1.454 1.782.102 2.007.839 1.66 2.324-1.434 6.247-2.879 12.514-4.189 18.811z"/></svg>