<svg xmlns="http://www.w3.org/2000/svg" viewBox="0 0 491.52001953125 491.52001953125"><path d="M96.952 255.416c0 1.331.062 2.642.185 3.942l75.45-32.512c-7.917-8.981-19.508-14.643-32.42-14.643-23.86.01-43.214 19.353-43.214 43.213zM245.76 0C110.03 0 0 110.029 0 245.76s110.03 245.76 245.76 245.76c135.731 0 245.76-110.029 245.76-245.76S381.491 0 245.76 0zM352 178.319c35.77 0 65.741 24.72 73.831 58l-33.485 2.796c-6.144-16.302-21.883-27.904-40.336-27.904-5.12 0-10.025.901-14.582 2.539l-13.977-29.85a75.57 75.57 0 0 1 28.55-5.581zM98.693 318.546l17.756-27.003c17.89 10.69 35.85 8.96 53.904-5.212l22.58 23.111c-27.035 25.671-62.813 28.19-94.239 9.103zm84.46-67.554l-.01-.062-31.14 13.681-74.712 32.665c-7.987-11.981-12.656-26.368-12.656-41.851 0-41.707 33.813-75.52 75.52-75.52 35.605 0 65.444 24.638 73.421 57.785l-30.423 13.302zm82.257 75.817l-27.577-11.663c-10.455-4.423-14.12-10.834-14.142-24.391l-.195-142.827h27.054v138.967c0 1.331.164 2.509 1.915 3.184l23.542 9.154-10.598 27.577zm43.653-9.799c-19.958-13.691-33.054-36.659-33.054-62.69 0-24.156 11.284-45.66 28.846-59.577l17.48 28.324c-8.274 7.854-13.435 18.944-13.435 31.252 0 13.845 6.533 26.153 16.67 34.038l-16.507 28.652zM352 330.301a75.778 75.778 0 0 1-23.634-3.769l13.138-30.413c3.36.84 6.871 1.29 10.496 1.29 23.101 0 41.953-18.176 43.05-41.011l32.86 1.034C426.27 297.951 392.93 330.3 352 330.3z"/></svg>