<svg xmlns="http://www.w3.org/2000/svg" viewBox="0 0 819.1900024414062 368.6300048828125"><path d="M792.556 115.384l-88.75-88.75c-1.015-1.014-3.544-3.031-7.589-6.072v102.4h102.4c-3.02-4.034-5.048-6.553-6.062-7.577zM696.318 153.6c-11.428-1.208-14.07-3.328-20.48-10.24-6.298-5.796-10.537-12.144-10.24-20.48V0H50.503C36.771 0 24.933 6.277 14.97 16.251 4.976 24.985 0 36.823 0 51.784v268.534c0 14.961 4.976 26.829 14.96 35.533 9.973 9.994 21.81 12.779 35.532 12.779h718.204c13.712 0 25.55-2.785 35.533-12.779 9.974-8.704 14.961-20.572 14.961-35.533V153.601H696.32zM87.111 278.855l-10.199 47.196H51.199l26.05-119.368h68.63l-4.558 20.736H98.487l-6.656 30.782h39.874l-4.72 20.654H87.111zm124.272 47.197l-2.027-28.416h-39.875l-14.5 28.416h-26.983l64.584-119.859h31.447l12.39 119.859h-25.037zm138.015-92.263c-5.959-3.216-10.875-5.335-14.756-6.37s-7.73-1.546-11.55-1.546c-7.414 0-14.08 2.202-20.009 6.615s-10.71 10.895-14.305 19.476c-3.594 8.571-5.397 17.787-5.397 27.638 0 9.093 1.935 15.841 5.786 20.245 3.85 4.413 9.974 6.615 18.411 6.615 8.202 0 17.705-2.099 28.498-6.288v21.228c-11.182 4.178-22.425 6.277-33.72 6.277-14.275 0-25.376-4.065-33.3-12.206s-11.89-19.661-11.89-34.58c0-14.264 2.918-27.392 8.765-39.394s13.66-21.115 23.44-27.351 21.022-9.349 33.731-9.349c7.024 0 13.261.615 18.72 1.833 5.446 1.229 11.294 3.471 17.54 6.738l-9.964 20.418zm72.591-6.041l-21.412 98.304h-25.711l21.412-98.304h-29.675l4.64-21.063h85.155l-4.639 21.063h-29.768zm126.044 56.166c-3.205 14.48-9.328 25.395-18.38 32.738s-20.819 11.029-35.319 11.029c-11.919 0-21.279-3.092-28.099-9.267-6.83-6.174-10.26-14.551-10.26-25.108 0-3.922.42-7.68 1.27-11.264l16.528-75.356h25.712l-16.354 75.038c-.952 4.024-1.433 7.434-1.433 10.209 0 9.687 5.314 14.531 15.933 14.531 6.912 0 12.39-2.079 16.435-6.247s6.973-10.384 8.765-18.657l16.354-74.875h25.794l-16.947 77.23zm111.033 42.138H631.08l-17.449-45.803h-10.035l-10.035 45.803h-25.712L593.9 206.685h30.27c13.321 0 23.326 2.775 30.013 8.325s10.035 13.691 10.035 24.412c0 8.601-2.335 15.985-6.994 22.169-4.669 6.174-11.387 10.762-20.153 13.762l21.995 50.698zm104.376-98.632H720.28l-5.653 26.204h40.212L750.2 274.36h-40.212l-6.748 30.782h43.172l-4.557 20.9H672.97l26.051-119.368h68.976l-4.557 20.746zm-558.377-.246v-2.939c-2.478 6.533-5.54 13.445-9.185 20.736l-15.85 31.437h28.077l-2.192-28.58a257.453 257.453 0 0 1-.85-20.654zm416.318.246h-6.236l-7.086 32.256h6.574c7.362 0 13.097-1.557 17.203-4.659s6.154-7.834 6.154-14.203c0-4.465-1.32-7.813-3.994-10.046-2.663-2.232-6.88-3.348-12.615-3.348z"/></svg>