<svg xmlns="http://www.w3.org/2000/svg" viewBox="0 0 291 401.99102783203125"><path d="M291 287.99v105.001c0 2.673-.665 4.67-1.997 6-1.997 1.997-4.342 3-7.004 3H9.001c-2.673 0-4.997-1.004-7.004-3-1.34-1.33-1.997-3.328-1.997-6v-42.998c0-1.997.656-4.332 1.997-7.004 2.652-1.33 4.997-1.997 7.004-1.997h27.996V230.994H9.001c-1.34 0-3.349-.655-6-1.997-1.997-1.997-3-4.332-3-7.004v-36.997c0-2.652 1.003-4.997 3-7.004 1.331-1.33 3.328-1.997 6-1.997h27.996v-64c0-33.33 11.653-60.334 35-80.999C94.648 10.342 124.651 0 161.997 0 198 0 229.651 11.673 256.992 35c1.997 1.997 3 4.004 3 6 0 3.35-.665 5.673-1.997 7.004l-29 36.004c-1.997 1.997-4.004 3-6 3-2.673.666-4.997 0-7.004-1.997l-1.004-1.003a16.707 16.707 0 0 0-2.499-1.997 35.466 35.466 0 0 0-3.502-1.997c-4.004-2.652-10.67-5.653-19.999-9-7.342-3.329-16.343-4.998-27.003-4.998-16.67 0-29.666 4.342-39.004 13.005-10.005 9.35-15.002 21.002-15.002 35v62.003h87c3.327 0 5.652.666 7.003 1.997 1.997 1.997 3 4.342 3 7.004v36.997c0 2.673-1.004 4.997-3 7.004-2.673 1.341-4.997 1.997-7.004 1.997h-86.999v109.005h119V288.03c0-3.328.654-5.652 1.996-7.004 2.652-1.33 4.997-1.997 7.004-1.997h45.998c1.997 0 4.332.665 7.004 1.997 1.351 2.642 2.018 4.966 2.018 6.963z"/></svg>