<svg xmlns="http://www.w3.org/2000/svg" viewBox="0 0 1024.0111083984375 269.33203125"><path d="M269.332 134.666c0 74.384-60.283 134.666-134.666 134.666C60.293 269.332 0 209.039 0 134.666S60.293 0 134.656 0c74.394 0 134.676 60.283 134.676 134.666zM189.43 83.907c-15.155-9.994-29.553-2.427-37.1 6.349-2.816 3.267-7.639 7.117-16.743 7.117s-13.927-3.85-16.732-7.117c-7.547-8.775-21.945-16.333-37.1-6.349-17.797 11.735-12.626 32.952-7.434 39.055l61.266 82.954 61.276-82.954c5.181-6.103 10.352-27.321-7.434-39.055zm186.87 99.665c-37.663 0-62.075-25.375-62.075-59.003 0-36.373 27.638-63.693 65.31-63.693 17.132 0 31.846 5.98 39.926 11.632l-7.096 23.276c-6.953-5.335-19.722-10.506-32.666-10.506-22.784 0-36.526 15.688-36.526 37.182 0 24.566 16.486 37.509 35.563 37.509 6.462 0 11.961-.973 16.978-2.908v-12.452c0-2.099 0-6.789-.327-9.37-5.499-.164-3.553-.164-9.216-.164-5.817 0-10.342.164-16.497.481.491-8.571.645-15.35.327-21.668 10.19.492 15.186.645 22.63.645 13.261 0 18.596-.164 29.911-.645-.809 6.625-1.29 29.911-1.29 40.735v17.142c-9.872 5.817-23.45 11.807-44.954 11.807zm125.573-63.703c-14.233-1.782-28.62 2.427-28.62 18.105v24.412c0 6.308.173 13.742.644 18.432h-31.202c.962-7.751 1.137-20.039 1.137-30.546v-27.157c0-10.343-.49-19.559-1.454-27.156 5.98-.164 23.921-2.427 29.255-3.236l1.454 20.695c5.5-12.441 15.524-20.203 30.863-21.668l-2.079 28.119zm34.08 63.212c-16.006 0-26.184-9.052-26.184-23.921 0-17.305 14.705-28.948 44.288-28.948 1.946 0 4.208.164 6.8.327v-2.427c.326-8.725-3.554-13.424-14.235-13.424-9.697 0-20.039 3.717-26.675 7.916l-3.717-21.002c9.37-5.653 22.958-9.861 36.537-9.861 25.538 0 36.69 11.797 36.208 35.082l-.809 30.546c-.174 5.017 1.454 6.471 5.171 6.471 1.454 0 3.4-.327 5.008-.962l-1.29 17.131c-5.018 1.772-9.38 2.908-15.36 2.908-9.534 0-16.978-3.891-19.394-14.059-4.843 8.724-15.35 14.223-26.347 14.223zm24.246-32l.327-8.08c-1.782-.174-3.399-.327-5.499-.327-13.087 0-18.258 5.653-18.258 12.606 0 6.154 3.553 10.517 10.342 10.517 7.434 0 12.76-5.346 13.087-14.715zm108.77 27.627c-5.499 3.072-13.414 5.018-21.023 5.018-18.75 0-29.737-7.434-29.737-30.556v-38.799h-14.715l4.208-20.368h10.834l1.782-17.776 27.321-9.216v26.993h21.975c-.327 3.881-.49 13.895-.49 20.368h-21.505v35.563c0 9.063 3.4 11.326 9.052 11.326 4.526 0 9.216-1.628 12.78-3.891l-.482 21.34zm32.143-99.41c-9.38 0-16.496-6.144-16.496-14.704 0-9.37 7.61-15.851 16.978-15.851 9.063 0 16.496 6.308 16.496 14.878 0 9.369-7.598 15.678-16.978 15.678zm-16.485 101.519c.81-7.751 1.301-18.913 1.301-29.419v-26.512c0-10.343-.49-22.631-1.3-30.392 6.47 0 26.03-1.137 31.364-1.618-.48 4.69-.645 12.933-.645 19.241v51.241c0 6.308.174 12.769.645 17.449l-31.365.01zm102.297 3.236c-8.418 0-14.387-1.935-19.394-5.171v21.975c0 5.98.164 12.124.635 16.65-3.553.327-28.283 2.427-31.202 3.082.81-7.609.973-19.405.973-29.747v-65.31c0-10.343-.327-21.985-1.3-30.065 6.47 0 22.957-1.618 28.446-2.427l1.136 11.151c6.471-7.106 15.033-12.442 26.194-12.442 22.958 0 36.383 20.368 36.383 42.834 0 29.41-19.865 49.469-41.87 49.469zm-5.17-71.291c-5.98 0-10.834 3.236-14.223 7.751v37.346c3.4 3.226 7.434 5.335 14.223 5.335 10.998 0 17.776-11.961 17.776-26.02.01-16.824-7.75-24.412-17.776-24.412zm84.193 70.319c-16.005 0-26.183-9.052-26.183-23.921 0-17.305 14.705-28.948 44.288-28.948 1.946 0 4.208.164 6.8.327v-2.427c.326-8.725-3.554-13.424-14.235-13.424-9.697 0-20.039 3.717-26.675 7.916l-3.717-21.022c9.37-5.653 22.958-9.861 36.526-9.861 25.538 0 36.69 11.796 36.208 35.082l-.809 30.546c-.174 5.018 1.454 6.471 5.171 6.471 1.454 0 3.4-.327 5.008-.962l-1.29 17.132c-5.018 1.771-9.38 2.908-15.36 2.908-9.534 0-16.978-3.891-19.394-14.06-4.833 8.745-15.34 14.244-26.337 14.244zm24.248-32l.327-8.08c-1.782-.174-3.399-.327-5.499-.327-13.087 0-18.258 5.653-18.258 12.606 0 6.154 3.553 10.517 10.342 10.517 7.434 0 12.76-5.346 13.087-14.715zm73.36 22.456c-2.909-7.434-4.844-12.452-8.736-21.34l-10.178-23.265c-4.526-10.506-11.152-25.702-15.186-33.618 3.4 0 27.484-1.618 30.218-1.935l18.596 51.568 7.106-21.985c3.236-9.708 6.953-21.023 9.534-28.447 10.834 0 20.367 0 29.102-.645l-36.7 89.723c-2.59 6.625-10.178 25.866-13.087 34.918-10.189 0-21.822.327-30.393 1.29l19.722-46.264z"/></svg>