<svg xmlns="http://www.w3.org/2000/svg" viewBox="0 0 587.366943359375 512"><path d="M587.366 254.893c0 93.092-25.149 160.348-75.356 201.698C467.671 493.537 410.05 512 339.118 512H0V0h339.118C410.04 0 467.671 19.947 512 59.842c26.593 23.654 45.056 50.248 55.41 79.79 13.301 32.522 19.957 70.933 19.957 115.262zm-33.249 0c0-75.356-21.433-132.22-64.276-170.67-38.44-33.976-90.87-50.974-157.369-50.974H33.25v445.5h299.223c147.732 0 221.645-74.587 221.645-223.855zM113.04 157.368c-14.786 0-27.36 5.202-37.683 15.513-10.353 10.353-15.514 22.928-15.514 37.683 0 14.787 5.161 27.362 15.514 37.683C85.679 258.6 98.254 263.76 113.04 263.76c14.745 0 27.331-5.161 37.683-15.513 10.322-10.322 15.514-22.897 15.514-37.683 0-14.745-5.202-27.33-15.514-37.683-10.353-10.311-22.928-15.513-37.683-15.513zM64.278 445.51h95.303V288.142H64.278V445.51zm392.313-183.971h66.5c0 122.665-68.712 183.962-206.132 183.962H203.92V261.539H215c8.867 0 14.744-.727 17.735-2.212 7.383-2.95 11.817-5.161 13.302-6.646 4.434-4.434 8.1-10.322 11.08-17.736 1.453-2.95 2.211-9.595 2.211-19.947 0-2.95-.379-6.646-1.106-11.08-.768-4.433-1.106-7.382-1.106-8.867-1.485-2.95-3.328-5.888-5.54-8.868-2.212-2.95-3.328-5.161-3.328-6.646-5.918-5.888-11.079-8.868-15.514-8.868-2.98-1.454-8.868-2.212-17.736-2.212H203.92V75.355h113.04c130.006 0 198.716 55.409 206.13 166.236h-42.117v-73.144h-24.38v93.092zm-221.644-46.541v15.513l-4.434 6.646c-2.98 2.98-5.202 4.434-6.646 4.434H203.92v-53.197h17.736c2.95 0 5.888 1.485 8.868 4.434 0 1.485 1.454 3.697 4.434 6.646v15.524zm113.04 26.593H297.01v-17.736h44.33v-19.947h-44.33v-15.514h48.763v-19.947H274.84v93.092h73.144v-19.947zm99.736 19.948l-35.46-93.092H387.88l-35.46 93.092h24.38l6.646-19.947h33.25c0 1.485 2.212 8.13 6.646 19.947h24.381zm-55.409-39.895l4.434-13.302c1.454-4.434 2.212-8.1 2.212-11.08 5.888 11.848 8.868 19.948 8.868 24.382h-15.514z"/></svg>