<svg xmlns="http://www.w3.org/2000/svg" viewBox="0 0 256.02203369140625 402.0010986328125"><path d="M256.019 97.002v29c0 1.997-.665 4.342-1.997 7.004-1.997 1.997-4.342 3-7.004 3h-48.004c-4.004 26.665-16.343 48.671-36.997 65.997-19.343 17.346-45.67 27.996-79 32 32 33.997 76 85.002 132.003 152.996 1.997 3.348 2.335 6.666 1.004 10.005-1.997 3.348-4.997 4.997-9 4.997h-55.01c-4.005 0-6.35-1.33-7.005-4.004-70.666-82.647-118.334-136.99-142.99-162.99-1.342-1.33-1.998-3.328-1.998-6v-36.004c0-1.997.656-4.332 1.997-7.004 1.331-1.33 3.656-1.997 7.004-1.997h32c23.327 0 43.653-4.332 61-13.005 15.33-7.997 24.996-19.65 29-35H9.012c-2.673 0-4.997-1.004-7.004-3-1.34-2.653-1.997-4.998-1.997-7.005v-29c0-2.652.656-4.659 1.997-6 1.997-1.997 4.332-3 7.004-3h117.995c-11.346-21.33-36.997-32-77.005-32h-41c-2.674 0-4.998-1.003-7.005-3C.657 50.34 0 48.333 0 46.992V9.001C0 7.003.656 4.67 1.997 1.996 3.328.667 5.653 0 9.001 0h237.998c2.652 0 4.66.666 6 1.997 1.997 1.997 3 4.342 3 7.004v29c0 3.35-1.004 5.346-3 6-1.997 1.997-4.004 3.001-6 3.001h-67c9.328 12.002 15.33 25.671 18.002 41.001h49c2.651 0 4.996 1.003 7.003 3 1.341 1.351 2.018 3.35 2.018 6z"/></svg>