<svg xmlns="http://www.w3.org/2000/svg" viewBox="0 0 682.166015625 512.117919921875"><path d="M.152 512.044V332.72c.768.102 1.413.133 2.038.286 14.305 3.399 28.774 5.806 43.376 7.567 17.726 2.14 35.502 2.837 53.32 2.263 18.043-.574 35.861-2.816 52.84-9.452 10.864-4.25 20.602-10.19 28.16-19.282 6.962-8.376 11.007-18.073 12.36-28.805.737-5.837 1.023-11.755 1.044-17.644.103-29.83.051-59.658.041-89.488 0-1.372-.144-2.734-.215-4.178h-73.79v3.687c0 31.734.031 63.458-.02 95.19-.022 9.626-2.315 18.617-8.316 26.39-6.226 8.059-14.633 12.514-24.443 14.582-7.813 1.649-15.688 1.433-23.593.798-21.842-1.772-42.158-8.704-61.778-18.043-.266-.123-.522-.287-1.126-.625v-2.745c0-69.07-.05-138.128.02-207.196.041-37.611 23.388-69.94 58.553-81.603C69.611.788 80.915 0 92.364.09c14.01.103 28.027.164 42.035.195 23.921.062 47.841.092 71.762.133h3.861v3.625c0 140.534-.03 281.067.031 421.59.01 20.92-6.318 39.517-19.67 55.594-13.303 16.005-30.383 25.754-50.822 29.42-5.182.932-10.537 1.229-15.82 1.25-39.937.123-79.873.102-119.809.123-1.167.02-2.345.02-3.779.02zm236.155-196.127c.45.113.686.103.82.215 13.823 11.223 29.91 17.469 47.052 21.422 20.03 4.608 40.356 5.6 60.816 5.376 18.862-.205 37.5-2.396 56.002-5.91 6.185-1.177 12.33-2.508 18.494-3.788 1.054-.226 2.1-.553 3.266-.87v-36.116c-1.31.583-2.386 1.024-3.43 1.536-13.64 6.605-27.803 11.684-42.692 14.633-11.54 2.284-23.183 3.348-34.918 2.59-10.158-.655-19.958-2.887-29.06-7.69-12.903-6.798-21.413-17.263-25.407-31.201-3.84-13.373-3.88-26.921.072-40.274 5.182-17.52 16.978-28.826 34.11-34.693 11.438-3.911 23.255-4.761 35.236-3.983 22.466 1.454 43.591 7.73 63.673 17.756.533.266 1.086.502 1.65.727.173.072.388.03.767.062v-35.932c-2.939-.707-5.898-1.577-8.909-2.1-13.087-2.262-26.143-4.833-39.312-6.502-16.896-2.15-33.904-2.498-50.934-1.607-14.009.727-27.894 2.274-41.543 5.58-14.09 3.42-27.484 8.52-39.475 16.846-2.038 1.413-4.004 2.939-6.43 4.74v-2.324c0-36.137-.082-72.263.021-108.4.103-36.301 21.71-67.635 55.193-80.394 10.025-3.82 20.45-5.51 31.13-5.52 40.233-.05 80.476-.02 120.71-.01h2.815c.154.87.327 1.527.38 2.182.061.697.02 1.403.02 2.099 0 139.929-.02 279.849.03 419.779 0 12.872-1.814 25.354-7.26 37.079-12.596 27.106-33.66 43.643-62.957 49.49-4.679.932-9.534 1.29-14.316 1.3-40.837.103-81.674.062-122.512.062h-3.082c-.02-65.546-.02-130.765-.02-196.158zm236.134-142.04c-.05-1.177-.144-2.15-.144-3.122-.01-27.925-.072-55.86.01-83.784.082-26.235 9.585-48.384 29.37-65.792 12.79-11.264 27.75-18.033 44.717-20.05 4.557-.542 9.175-.738 13.763-.738 39.342 0 78.684.082 118.016.144h3.79c.071 1.403.163 2.478.163 3.543.01 140.544-.02 281.088.03 421.632.01 26.143-9.687 47.903-29.143 65.209-12.329 10.967-26.798 17.684-43.202 19.886a122.134 122.134 0 0 1-15.83 1.086c-39.24.113-78.48.092-117.72.113h-3.758V338.283c3.226 0 6.298-.01 9.37 0 6.81.04 13.61.133 20.418.144 33.331.062 66.673.123 100.004.133 10.26 0 20.337-1.208 29.901-5.243 8.09-3.42 15.043-8.315 20.132-15.596 10.987-15.72 9.482-39.741-9.288-52.87-7.609-5.314-16.077-8.386-25.149-9.912-2.324-.39-4.669-.645-7.024-1.147 5.54-1.3 10.987-2.714 16.067-5.253 11.735-5.868 19.518-14.992 21.678-28.068 2.54-15.37-3.328-29.891-17.96-38.43-7.814-4.557-16.314-7.024-25.314-7.577a317.198 317.198 0 0 0-19.476-.604c-36.537-.041-73.072.01-109.609.03-1.198-.01-2.386-.01-3.809-.01zm41.83 137.319v-44.318c.84-.082 1.597-.226 2.355-.226 15.596 0 31.202-.051 46.797.04 11.315.063 20.111 6.729 22.221 17.256 2.785 13.896-5.396 23.9-15.769 26.45a30.73 30.73 0 0 1-7.106.86c-15.4.082-30.802.062-46.203.062-.665 0-1.35-.072-2.294-.123zm.062-70.727V200.04c1.014-.072 1.884-.195 2.755-.195 13.906 0 27.812.07 41.718.01 5.735-.021 10.834 1.474 15.155 5.345 5.97 5.356 8.07 14.203 5.243 22.303-2.62 7.526-9.728 12.912-17.746 13.025-15.298.205-30.607.123-45.916.143-.287.01-.583-.092-1.208-.205z"/></svg>