<svg xmlns="http://www.w3.org/2000/svg" viewBox="0 0 512.01904296875 402.00909423828125"><path d="M512.017 191.998V210c0 3.348-1.004 5.346-3 6-.665 1.997-2.673 3-6 3h-61l-47 176.005c-.666 4.67-3.667 7.004-9.002 7.004H341.01c-5.346 0-8.346-2.335-9-7.004L285.008 219h-59.996l-48.005 176.005c-.666 4.67-3.666 7.004-9 7.004h-45.006c-1.34 0-3.349-.656-6-1.997-.666-.655-1.669-2.334-3-4.997L68.996 219.01H9c-3.349 0-5.346-1.004-6-3-1.997-.656-3-2.652-3-6v-18.002c0-2.652 1.003-4.997 3-7.004.656-1.997 2.652-3 6-3h50.002l-9-36.004H9c-3.349 0-5.346-1.004-6-3-1.997-1.33-3-3.328-3-6v-18.995c0-1.997 1.003-4.004 3-6 .656-1.997 2.652-3 6-3h30.997L15.001 11.008c-1.33-3.338-.983-6 1.014-8.007 1.997-1.997 4.66-3 7.998-3h39.004c4.66 0 7.66 1.996 9.001 6l24.996 103.004h103.004L228.014 6.001c1.331-4.004 4.332-6 9.001-6h36.004c4.66 0 7.332 1.997 7.997 6l27.996 103.004h105.001l26-103.004c1.331-4.004 4.332-6 9.001-6h39.004c3.328 0 6 1.003 7.997 3s2.335 4.67 1.004 7.998l-26 97.997h32c3.328 0 5.335 1.003 6 3 1.997 1.997 3 4.004 3 6v18.995c0 2.673-1.004 4.67-3 6-.665 1.997-2.673 3-6 3h-42.005l-9 36.004h50.994c3.328 0 5.335 1.004 6 3 2.007 2.007 3.01 4.352 3.01 7.004zm-332.002-9.994L190.02 146h-82.995l9.001 36.004h63.99zm-33.003 122l23-85.003h-45.006l21.002 85.995V306h1.003v-1.997zm88.003-122h39.998L265.008 146H245.01l-9.994 36.004zm160 0l9-36.004h-85.002l10.005 36.004h65.997zm-32 123.002l21.994-85.995h-45.997l23 85.002v1.003l1.003 1.004v-1.014z"/></svg>