<svg xmlns="http://www.w3.org/2000/svg" viewBox="0 0 854.7550048828125 511.998046875"><path d="M854.755 256c0-46.542-11.316-89.56-33.855-129.055-24.013-38.083-55.01-69.089-93.092-93.092C685.496 11.305 642.438 0 598.754 0c-57.866 0-109.322 17.654-154.45 52.89 40.9 36.7 67.707 81.13 80.394 133.293h-23.275c-11.315-45.127-35.963-85.33-74.046-120.596-38.082 35.267-62.77 75.47-74.046 120.596h-23.276c12.697-52.162 39.454-96.594 80.394-133.294C365.281 17.653 313.824 0 255.999 0c-43.735 0-86.743 11.305-129.054 33.853-38.083 24.002-69.12 55.01-93.092 93.092C11.284 166.441 0 209.46 0 256s11.274 89.59 33.853 129.054c23.972 38.082 55.01 69.12 93.092 93.092 42.311 22.58 85.33 33.853 129.054 33.853 57.825 0 109.271-17.623 154.45-52.889-36.71-32.43-62.77-73.318-78.285-122.706h23.276c14.07 42.312 38.082 79.012 71.936 110.02 33.853-31.007 57.826-67.708 71.936-110.02h23.275c-15.554 49.388-41.615 90.276-78.285 122.706C489.43 494.376 540.885 512 598.752 512c43.694 0 86.743-11.275 129.054-33.854 38.082-23.972 69.08-55.01 93.092-93.092 22.528-39.465 33.854-82.514 33.854-129.055zM112.14 194.64h40.202l-21.156 122.706h-25.385l14.807-93.092-33.853 93.092H67.708v-93.092l-16.927 93.092H25.396l21.156-122.706h38.083v76.165l27.505-76.165zm118.476 50.78c0 5.653-.738 11.991-2.12 19.046-1.413 9.882-2.857 19.047-4.229 27.505-1.413 8.458-2.857 14.807-4.229 19.047v6.35h-21.156V306.79c-5.652 8.458-14.807 12.697-27.505 12.697-7.086 0-12.697-2.12-16.927-6.349-4.229-5.622-6.349-12.697-6.349-21.156 0-12.697 3.492-21.852 10.578-27.505 9.84-7.045 21.852-10.578 35.963-10.578h10.578v-6.369c0-5.622-5.652-8.458-16.926-8.458-7.086 0-16.23 1.413-27.505 4.23 1.372-5.623 2.816-12.698 4.23-21.157 11.273-4.229 21.155-6.349 29.623-6.349 23.982 0 35.973 9.881 35.973 29.624zm-29.613 27.504h-6.349c-14.11 0-21.156 4.966-21.156 14.807 0 7.076 2.816 10.578 8.458 10.578 5.611 0 9.841-2.12 12.697-6.349 4.23-4.229 6.35-10.578 6.35-19.036zm103.67-55.009l-4.23 23.275c-4.229-1.382-10.578-2.119-19.046-2.119s-12.697 2.846-12.697 8.458c0 2.846.697 4.966 2.12 6.35l8.458 4.228c12.697 7.076 19.046 16.231 19.046 27.505 0 22.58-13.435 33.854-40.202 33.854-12.697 0-21.893-.697-27.505-2.12 1.372-5.622 2.816-13.394 4.23-23.276 11.273 2.846 19.045 4.23 23.275 4.23 9.841 0 14.807-2.817 14.807-8.459 0-2.816-.738-4.925-2.12-6.349-2.857-2.816-6.349-4.926-10.578-6.349-12.697-5.622-19.046-14.807-19.046-27.504 0-22.538 12.697-33.853 38.082-33.853 12.708.01 21.166.747 25.406 2.13zm40.191 0h12.697l-2.12 25.385h-14.806c0 7.076-.738 13.424-2.12 19.046 0 1.413-.358 4.23-1.055 8.458-.738 4.23-1.802 7.076-3.175 8.458v8.458c0 5.652 2.816 8.458 8.458 8.458 2.816 0 5.611-.697 8.458-2.12l-4.229 23.276c-4.229 1.413-10.578 2.12-19.046 2.12-14.11 0-21.156-7.045-21.156-21.156 0-8.458 1.372-17.623 4.23-27.505l10.577-67.707h25.385l-2.099 14.827zm95.211 33.854c0 9.881-.737 18.34-2.12 25.385h-52.889c0 7.076 1.372 11.991 4.23 14.807 4.228 4.23 10.577 6.35 19.045 6.35s17.623-2.817 27.505-8.459l-4.229 25.385c-7.086 2.846-16.23 4.23-27.505 4.23-29.625 0-44.432-14.808-44.432-44.433 0-18.309 4.23-32.43 12.697-42.312 8.458-11.274 19.046-16.927 31.734-16.927 11.274 0 20.418 3.533 27.504 10.578 5.601 5.653 8.458 14.121 8.458 25.395zM387.176 256h29.625v-6.35l-2.12-4.229c0-1.382-.738-2.816-2.12-4.229-1.413 0-2.857-.696-4.229-2.119h-4.229c-8.458 0-14.11 5.653-16.926 16.927zm118.487-38.084c-1.413 1.413-4.976 11.305-10.578 29.625-5.653-1.382-10.578 2.12-14.807 10.578-4.229 15.544-7.762 35.266-10.578 59.238h-27.505l2.12-6.349c5.611-39.465 9.841-70.513 12.697-93.092h25.385l-2.12 14.807c4.23-7.045 8.458-11.274 12.697-12.697 4.22-4.229 8.448-4.925 12.688-2.109zm88.853-19.046l-4.229 25.385c-8.458-4.229-16.23-6.349-23.275-6.349-11.315 0-19.784 4.23-25.385 12.697-5.653 7.076-8.458 18.34-8.458 33.853 0 9.881 2.12 16.926 6.35 21.156 4.228 5.653 9.84 8.458 16.926 8.458 7.045 0 14.807-2.12 23.275-6.349l-4.229 27.505c-5.653 2.846-13.435 4.23-23.275 4.23-14.11 0-25.385-4.927-33.853-14.808-8.458-8.458-12.697-21.156-12.697-38.082 0-21.156 5.611-38.779 16.927-52.889 9.841-14.08 23.972-21.156 42.312-21.156 7.045.01 16.927 2.12 29.614 6.35zm76.165 46.551c0 1.413-.359 4.23-1.054 8.458-.737 4.23-1.054 7.762-1.054 10.578-1.413 7.076-2.857 16.6-4.229 28.56-1.413 11.99-2.857 20.1-4.229 24.33h-21.156v-10.579c-5.653 8.458-14.807 12.697-27.505 12.697-7.086 0-12.697-2.12-16.927-6.349-4.229-5.622-6.349-12.697-6.349-21.156 0-12.697 3.492-21.852 10.578-27.505 9.841-7.045 21.156-10.578 33.854-10.578h10.578c1.372-1.382 2.12-3.502 2.12-6.349 0-5.622-5.653-8.458-16.927-8.458-7.086 0-16.23 1.413-27.505 4.23 0-5.623 1.372-12.698 4.23-21.157 11.273-4.229 21.155-6.349 29.624-6.349 23.962 0 35.952 9.881 35.952 29.625zm-29.615 27.504h-6.349c-14.11 0-21.156 4.966-21.156 14.807 0 7.076 2.816 10.578 8.458 10.578 5.611 0 9.841-2.12 12.697-6.349 4.23-4.229 6.35-10.578 6.35-19.036zm95.201-55.009c-5.653 7.076-9.206 16.927-10.578 29.625-5.653-1.382-10.578 2.12-14.807 10.578-2.857 8.458-6.349 28.231-10.578 59.238h-27.505l2.12-6.349a1076.832 1076.832 0 0 0 12.697-93.092h25.385c0 5.652-.737 10.578-2.12 14.807 4.23-7.045 8.458-11.274 12.697-12.697 5.601-2.806 9.831-3.492 12.688-2.109zm65.588-23.275h27.505l-21.155 122.716H782.82l2.12-8.458c-5.653 7.076-13.435 10.578-23.275 10.578-11.315 0-19.047-3.502-23.275-10.578-7.086-9.85-10.578-19.743-10.578-29.625 0-18.309 4.926-33.127 14.807-44.432 7.045-11.274 16.927-16.927 29.625-16.927 8.458 0 16.927 4.23 25.385 12.698l4.23-35.973zm-10.578 65.587c0-12.697-4.976-19.046-14.807-19.046-5.653 0-10.578 3.533-14.807 10.578-2.857 4.23-4.229 11.991-4.229 23.275 0 12.697 4.23 19.047 12.697 19.047 5.611 0 10.578-2.816 14.807-8.458 4.23-5.622 6.338-14.08 6.338-25.395z"/></svg>