<svg xmlns="http://www.w3.org/2000/svg" viewBox="0 0 739.7980346679688 512"><path d="M369.909 0C165.641 0 .04 108.646.04 241.93c0 3.44-.04 12.953-.04 14.162C.01 397.486 144.742 512 369.868 512c226.52 0 369.93-114.483 369.93-255.888V241.92C739.788 108.646 574.198 0 369.909 0zm.072 469.319c-196.413 0-355.635-101.857-355.635-227.512 0-125.665 159.222-227.523 355.635-227.523 196.423 0 355.645 101.858 355.645 227.523 0 125.655-159.222 227.512-355.646 227.512zm197.755-203.693c-35.082-30.618-116.183-101.12-138.148-117.606-12.544-9.442-21.105-14.428-28.62-16.661-3.37-1.024-8.049-2.181-14.06-2.181-5.58 0-11.582 1.014-17.849 3-14.192 4.495-28.334 15.728-42.014 26.603l-.707.553c-12.738 10.127-25.907 20.603-35.87 22.835a60.423 60.423 0 0 1-13.28 1.485c-11.162-.021-21.188-3.236-24.946-8.028-.625-.788-.226-2.078 1.23-3.922l.194-.246 30.863-33.27c24.176-24.177 47.012-47.002 99.574-48.21.86-.031 1.751-.041 2.621-.041 32.717.021 65.423 14.663 69.1 16.363 30.68 14.961 62.341 22.569 94.178 22.59 33.178.01 67.41-8.202 103.394-24.771-4.014-3.379-8.202-6.666-12.503-9.892-31.61 13.701-61.737 20.634-90.798 20.624-29.675-.031-59.34-7.158-88.125-21.207-1.515-.727-37.632-17.756-75.213-17.767-.983 0-1.986.021-2.97.031-44.155 1.034-69.028 16.712-85.75 30.454-16.26.399-30.3 4.322-42.783 7.803-11.14 3.092-20.757 5.786-30.147 5.775-3.87 0-10.824-.358-11.449-.379-10.793-.328-65.168-13.66-108.41-30.044a280.737 280.737 0 0 0-12.8 9.646c45.178 18.524 100.167 32.85 117.513 33.977 4.834.317 9.974.86 15.125.87 11.48 0 22.938-3.226 34.028-6.318 6.543-1.843 13.773-3.84 21.371-5.294a1150.81 1150.81 0 0 0-6.082 6.041l-31.365 33.925c-2.468 2.488-7.824 9.144-4.29 17.337 1.402 3.308 4.26 6.462 8.242 9.154 7.475 5.028 20.86 8.438 33.29 8.448 4.711.01 9.175-.471 13.281-1.392 13.148-2.949 26.931-13.936 41.543-25.549 11.643-9.246 28.18-20.992 40.837-24.443 3.543-.962 7.885-1.557 11.376-1.557 1.044.01 2.028.041 2.95.174 8.365 1.065 16.455 3.911 30.893 14.745 25.744 19.333 139.663 118.999 140.78 119.982.081.062 7.341 6.328 6.84 16.742-.266 5.806-3.492 10.967-9.104 14.541-4.864 3.082-9.88 4.659-14.95 4.659-7.61-.021-12.862-3.584-13.2-3.83-.42-.348-39.456-36.137-53.812-48.149-2.294-1.894-4.516-3.604-6.759-3.604-1.198-.01-2.263.502-2.98 1.403-2.263 2.785.266 6.635 3.256 9.175l45.588 45.824c.062.051 5.683 5.314 6.298 12.349.36 7.598-3.277 13.947-10.823 18.903-5.376 3.543-10.823 5.346-16.159 5.346-6.994 0-11.919-3.184-13.005-3.942l-6.543-6.451c-11.95-11.755-24.289-23.92-33.33-31.457-2.203-1.833-4.558-3.522-6.8-3.522-1.106 0-2.11.409-2.878 1.218-1.034 1.147-1.75 3.205.82 6.615a23.013 23.013 0 0 0 2.303 2.56l33.27 37.376c.277.338 6.861 8.151.747 15.943l-1.178 1.495a33.506 33.506 0 0 1-3.092 2.98c-5.673 4.659-13.26 5.161-16.26 5.161a25.42 25.42 0 0 1-4.496-.389c-3.287-.583-5.489-1.505-6.553-2.765l-.399-.42c-1.822-1.874-18.596-18.995-32.47-30.577-1.823-1.536-4.107-3.461-6.472-3.461-1.168 0-2.202.461-3 1.341-2.745 3.01 1.372 7.506 3.123 9.154l28.375 31.293c-.03.276-.389.921-1.075 1.904-1.014 1.403-4.455 4.854-14.756 6.144a28.734 28.734 0 0 1-3.769.226c-10.619 0-21.934-5.151-27.77-8.243a42.194 42.194 0 0 0 4.033-17.981c.01-23.357-18.954-42.352-42.312-42.373-.502 0-1.034.02-1.526.03.768-10.66-.748-30.853-21.474-39.741-5.959-2.581-11.919-3.902-17.695-3.902-4.526 0-8.878.778-12.974 2.345-4.29-8.346-11.418-14.428-20.726-17.592-5.14-1.782-10.25-2.683-15.196-2.683-8.622 0-16.568 2.539-23.654 7.577-6.789-8.448-17.05-13.445-27.853-13.445-9.452 0-18.545 3.778-25.282 10.455-8.827-6.748-43.868-29-137.646-50.299-4.547-1.024-14.96-4.014-21.35-5.888a152.533 152.533 0 0 0-2.397 15.39s17.296 4.137 20.695 4.905c95.795 21.279 127.457 43.397 132.803 47.585a36.1 36.1 0 0 0-2.765 13.783c-.01 19.784 16.087 35.912 35.891 35.922 2.212 0 4.413-.195 6.584-.594 2.98 14.562 12.514 25.61 27.075 31.273 4.26 1.639 8.56 2.478 12.79 2.478 2.734.01 5.488-.338 8.171-1.024 2.683 6.83 8.745 15.35 22.272 20.848 4.741 1.904 9.493 2.908 14.101 2.908 3.77 0 7.454-.665 10.967-1.956 6.482 15.79 21.913 26.255 39.117 26.255 11.397.021 22.344-4.628 30.331-12.851 6.841 3.799 21.258 10.67 35.84 10.691 1.884 0 3.655-.133 5.427-.348 14.48-1.833 21.217-7.495 24.31-11.899a17.3 17.3 0 0 0 1.485-2.427c3.42.983 7.178 1.782 11.48 1.792 7.904 0 15.492-2.693 23.162-8.284 7.537-5.438 12.892-13.23 13.66-19.876.02-.092.03-.185.041-.287 2.54.522 5.15.798 7.751.798 8.141 0 16.15-2.539 23.798-7.547 14.756-9.677 17.326-22.313 17.081-30.587 2.581.543 5.222.819 7.844.819 7.64 0 15.145-2.304 22.293-6.861 9.144-5.847 14.654-14.797 15.483-25.221.573-7.086-1.178-14.224-4.915-20.368 24.73-10.649 81.234-31.262 147.774-46.264-.399-5.161-1.147-10.261-2.068-15.329-80.486 17.889-140.565 43.889-155.617 50.586zM342.62 395.756c-15.637-.021-28.344-12.165-28.918-27.648-.04-1.331-.174-4.854-3.164-4.854-1.229 0-2.294.738-3.522 1.843-3.43 3.184-7.813 6.43-14.213 6.43-2.898 0-6.04-.676-9.37-2.038-16.507-6.687-16.743-18.032-16.067-22.589.185-1.219.246-2.478-.594-3.461l-1.014-.912h-1.024c-.839 0-1.7.348-2.877 1.168-4.772 3.359-9.36 4.987-14.009 4.987-2.56 0-5.192-.512-7.824-1.526-21.74-8.458-20.019-28.979-18.964-35.154.154-1.25-.154-2.222-.952-2.867l-1.536-1.26-1.433 1.372c-4.24 4.086-9.779 6.318-15.606 6.318-12.452-.02-22.579-10.127-22.569-22.579.01-12.462 10.148-22.569 22.6-22.548 11.253 0 20.827 8.458 22.261 19.702l.778 6.062 3.328-5.13c.38-.594 9.493-14.387 26.265-14.377 3.185 0 6.482.512 9.8 1.536 13.373 4.075 15.637 16.199 15.985 21.248.236 2.949 2.334 3.082 2.745 3.082 1.157 0 2.007-.737 2.611-1.362 2.52-2.632 8.018-7.014 16.62-7.014 3.932.02 8.12.942 12.442 2.806 21.248 9.114 11.612 36.117 11.49 36.403-1.822 4.475-1.894 6.451-.185 7.588l.84.399h.614c.962 0 2.151-.42 4.116-1.086 2.887-1.004 7.26-2.499 11.336-2.489h.01c15.995.174 29 13.189 29 29 0 15.964-13.016 28.949-29 28.949z"/></svg>