<svg xmlns="http://www.w3.org/2000/svg" viewBox="0 0 947.8370361328125 512.031982421875"><path d="M.001 245.074c1.741-6.902 2.888-14.03 5.346-20.664 10.681-28.887 30.833-47.985 61.174-54.037 19.353-3.861 38.84-2.007 56.69 8.048 3.061 1.73 6.194 3.359 9.112 5.305 7.301 4.864 14.07 4.373 21.248-.676 21.115-14.858 44.76-18.821 69.325-12.39 26.153 6.84 44.75 23.644 55.593 48.609 5.07 11.663 7.495 23.88 7.465 36.649-.082 37.448-.04 74.896-.02 112.343 0 6.4.275 12.81.275 19.21 0 7.629-3.707 11.274-11.397 11.305-10.435.04-20.859.04-31.293 0-7.73-.031-11.274-3.615-11.264-11.356.031-43.356-.092-86.712.226-130.058.072-10.035-1.639-19.016-8.868-26.266-9.452-9.472-20.808-12.103-33.229-7.393-12.565 4.76-19.825 14.407-20.112 27.873-.46 21.607-.02 43.223 0 64.839.03 24.125.082 48.26-.02 72.387-.03 6.03-3.983 9.87-10.066 9.943-11.305.133-22.62.144-33.925 0-6.256-.072-9.994-4.024-10.005-10.332-.07-43.356-.389-86.712.092-130.058.123-10.732-1.853-19.948-9.493-27.423-9.749-9.554-21.412-11.95-34.038-7.024-12.595 4.905-19.763 14.56-20.685 28.068-.604 8.878-.112 17.838-.103 26.757.041 35.81.092 71.629.133 107.438.01 9.493-3.133 12.615-12.667 12.626-9.052.01-18.105-.174-27.146.062-5.59.144-9.79-1.628-12.349-6.738V245.074zM657.532 512.01c-6.052-2.806-7.547-7.66-7.537-14.08.164-72.612.072-145.223.123-217.846.03-48.507 31.078-92.088 75.858-106.68 59.371-19.354 122.532 14.254 139.47 75.079 11.683 41.994 4.812 80.968-24.506 114.146-31.478 35.635-81.449 45.773-124.99 26.675-1.26-.553-2.57-1.054-3.912-1.31-2.673-.522-4.455.563-4.772 3.379-.215 1.863-.256 3.758-.256 5.642-.01 34.427 0 68.844-.02 103.27 0 6.636-2.16 9.647-7.823 11.09-11.408-.02-22.814-.071-34.232-.04-.962 0-1.915.45-2.878.697-1.515-.021-3.02-.021-4.526-.021zm157.973-228.475c.051-13.282-3.932-25.252-11.57-35.984-19.272-27.074-55.43-30.966-79.279-8.601-25.109 23.552-25.529 64.359-.932 88.432 19.62 19.2 48.21 20.777 69.48 3.533 14.98-12.144 21.903-28.283 22.302-47.38zM947.837 73.902c-3.769 16.589-15.114 27.72-27.638 37.827-16.27 13.138-34.18 23.522-54.579 28.723-6.697 1.71-13.895 1.966-20.859 1.956-6.789 0-12.114-3.707-16.036-9.237-7.178-10.127-10.128-21.78-11.879-33.792-3.266-22.375-2.15-44.565 3.523-66.468 1.126-4.352 2.765-8.601 4.505-12.76C828.97 10.395 834.961 2.499 846.03 0h11.315c16.435 2.969 31.488 9.493 45.302 18.627 19.282 12.759 37.827 26.378 45.19 49.99v5.285zm-95.407 26.316c1.884-1.085 4.076-1.843 5.601-3.308 6.605-6.35 13.066-12.861 19.476-19.405 3.994-4.076 4.198-7.772.277-11.91-6.482-6.82-13.168-13.465-19.938-19.998-3.676-3.553-8.14-3.42-11.428-.123-3.277 3.287-3.144 7.567.471 11.377 2.683 2.826 5.51 5.499 8.222 8.284 4.23 4.332 4.23 8.478 0 12.82-2.888 2.969-5.909 5.817-8.735 8.837-2.253 2.396-3.01 5.284-1.505 8.336 1.433 2.898 3.82 4.598 7.557 5.089zm35.707.02c1.761-1.023 3.81-1.761 5.232-3.133 6.677-6.451 13.22-13.066 19.753-19.671 4.168-4.21 4.22-7.813.02-12.094-6.492-6.646-13.077-13.2-19.702-19.712-3.574-3.512-7.649-3.533-10.998-.286-3.47 3.358-3.46 7.536.123 11.284 2.867 2.99 5.91 5.817 8.745 8.827 3.727 3.963 3.666 8.059-.112 11.97-3.052 3.155-6.246 6.196-9.278 9.37-2.324 2.438-2.652 5.428-1.34 8.398 1.33 3.01 3.808 4.577 7.556 5.048zM662.057 512.01c.962-.246 1.915-.697 2.878-.697 11.408-.021 22.814.02 34.232.04-.05.216-.102.43-.154.657h-36.956zm-247.05-115.087c-42.168.697-87.962-36.147-98.14-90.43-7.322-39.065 1.168-74.598 28.53-104.212 23.46-25.385 53.206-36.26 87.541-33.751 58.573 4.27 97.188 51.774 101.058 103.086 2.745 36.444-7.444 68.434-33.495 94.433-20.9 20.859-46.674 30.72-85.494 30.873zm-42.69-113.378c-.072 10.855 2.765 20.889 8.161 30.218 17.214 29.737 54.651 35.769 79.155 12.749 23.582-22.15 24.443-60.52 1.884-83.753-18.923-19.497-47.145-21.32-68.158-4.096-14.08 11.55-20.54 26.88-21.043 44.882zm193.218-.01c0-34.417 0-68.823.01-103.24 0-1.506-.05-3.042.226-4.506 1.157-6.093 4.342-8.295 10.434-7.373 24.023 3.645 41.38 23.1 42.752 47.933.102 1.884.102 3.769.102 5.653.01 49.234 0 98.468.01 147.702 0 6.154.154 12.308.102 18.462-.062 6.82-3.697 10.537-10.476 10.598-10.926.103-21.852.092-32.778.01-6.994-.051-10.506-3.748-10.516-10.865-.01-34.785-.01-69.581-.01-104.366.051-.01.102-.01.144-.01zm0-169.144c.02-14.101 13.538-27.638 27.648-27.658 14.213-.03 28.016 13.845 27.802 27.945s-13.998 27.699-27.884 27.505c-14.203-.205-27.577-13.691-27.566-27.792z"/></svg>