<svg xmlns="http://www.w3.org/2000/svg" viewBox="0 0 539.2810668945312 512.0089721679688"><path d="M268.228 512.009H488.48c50.288 0 50.801-53.453 45.67-79.841-2.795-17.736-32.942-17.592-36.26 0v20.592c0 9.41-7.7 17.111-17.11 17.111H58.49c-9.41 0-17.11-7.701-17.11-17.111v-20.603c-3.319-17.592-33.465-17.736-36.26 0C0 458.546.49 511.998 50.79 511.998h217.436zm-155.72-512h339.62c23.86 0 43.376 20.654 43.376 45.906V67.86c0 31.017-42.025 30.904-42.025.205V56.074c0-7.629-6.236-13.855-13.865-13.855H99.298c-7.629 0-13.854 6.236-13.854 13.855v11.745c0 30.853-40.048 30.628-40.048.666V45.906C45.396 20.654 64.923 0 88.773 0c.01.01 23.736.01 23.736.01zm374.43 252.212c23.52 11.069 39.761 33.904 39.761 60.13 0 36.976-32.287 67.226-71.74 67.226H344.355c-10.342 0-18.81-7.926-18.81-17.623V151.532c0-10.148 8.314-18.453 18.482-18.453h92.12c38.778 0 70.502 31.693 70.502 70.431 0 18.852-7.527 36.034-19.712 48.711zm-82.546-17.142h35.113v-.389c15.995-2.458 28.334-16.353 28.334-33.003 0-18.37-15.033-33.393-33.393-33.393h-70.738v174.613H453.4c18.965 0 34.49-15.514 34.49-34.489 0-18.964-15.515-34.488-34.49-34.488h-13.906v-.082h-35.112c-10.66 0-19.385-8.725-19.385-19.385s8.725-19.385 19.394-19.385zm-96.423 123.478c1.301 12.186-7.537 23.122-19.722 24.412-12.186 1.3-23.122-7.537-24.412-19.722l-18.186-167.342-64.983 164.987-.092.205-.154.317-.072.144-.174.338-.062.123a22.041 22.041 0 0 1-4.505 5.867l-.062.062-.327.297a21.974 21.974 0 0 1-3.84 2.724l-.092.051-.42.226-.04.01-.564.297-.246.123-.266.123-.236.113-.276.123-.236.103-.226.092-.205.082-.123.051-.185.072-.297.113-.174.062a22.011 22.011 0 0 1-6.502 1.229l-.266.01h-1.086l-.276-.01a22.346 22.346 0 0 1-7.27-1.515l-.298-.123-.072-.031-.297-.123-.286-.123-.236-.112-.246-.113-.266-.123-.154-.082-.409-.205-.04-.03-.349-.185-.195-.102a21.952 21.952 0 0 1-3.389-2.355l-.082-.072c-.246-.215-.49-.42-.738-.645l-.01-.021a23.539 23.539 0 0 1-.553-.533c-.174-.184-.358-.368-.533-.553l-.01-.02c-.226-.236-.44-.481-.656-.738l-.072-.082a21.945 21.945 0 0 1-2.345-3.389l-.113-.194-.195-.348-.02-.041-.206-.399-.072-.154-.123-.266-.123-.256-.103-.236-.123-.286-.123-.297-.03-.072-.124-.297-64.48-163.799-18.187 167.342c-1.3 12.196-12.226 21.022-24.412 19.722-12.196-1.29-21.023-12.226-19.722-24.412l21.443-197.294.01-.051.01-.082h-.01a36.101 36.101 0 0 1 1.444-6.83 35.93 35.93 0 0 1 2.704-6.421c5.478-10.281 15.545-17.5 27.566-19.159l.041-.01c.4-.051.81-.092 1.21-.133a36.688 36.688 0 0 1 5.6-.164h.092a38.37 38.37 0 0 1 6.707.891c11.47 2.673 21.207 10.649 25.794 22.303l54.887 139.408 54.887-139.408c4.587-11.643 14.326-19.62 25.794-22.303 2.068-.481 4.311-.778 6.707-.891h.092a36.815 36.815 0 0 1 5.611.164c.4.03.798.082 1.198.133l.041.01c12.022 1.659 22.098 8.878 27.576 19.159a36.909 36.909 0 0 1 2.693 6.421 36.663 36.663 0 0 1 1.444 6.83h-.01l.01.082.01.051 21.412 197.284z"/></svg>