<svg xmlns="http://www.w3.org/2000/svg" viewBox="0 0 974.27685546875 220.35797119140625"><path d="M166.842 114.128c-12.616 18.883-32.277 30.69-59.025 35.41-3.174 0-7.895.819-14.162 2.365-6.308 1.577-11.028 2.365-14.162 2.365-14.162 0-30.689-3.912-49.582-11.807-18.883-10.988-28.334-27.515-28.334-49.582C0 59.824 14.162 34.675 44.073 17.328 59.781 7.887 77.128 3.166 96.011 3.166c22.026 0 38.553 2.365 49.582 7.086 18.882 9.44 30.69 22.825 35.41 40.13 4.731 23.614.01 44.862-14.162 63.745zm-37.766-12.984c9.441-14.94 12.585-30.29 9.441-46.04-3.174-20.428-16.528-30.69-40.13-30.69-15.749 0-29.91 8.664-42.496 25.97-7.895 12.615-12.615 25.19-14.162 37.775 0 12.615 3.912 22.825 11.806 30.689 9.442 9.442 21.248 12.615 35.41 9.442 17.296-3.134 30.68-12.165 40.131-27.146zM568.198 62.19c1.546 22.067-3.942 40.54-16.528 55.48-12.615 14.98-29.143 24.79-49.582 29.512-26.788 9.442-52.757 8.663-77.906-2.365-22.067-7.865-33.863-22.026-35.41-42.496-4.72-22.026.778-43.274 16.527-63.744l9.442-9.442h-61.378c0 1.577.778 3.175 2.365 4.72 14.162 14.163 14.94 29.912 2.365 47.217-6.308 9.44-14.98 16.528-25.969 21.248-9.442 3.174-22.067 6.308-37.776 9.442-4.72 0-11.438.819-20.07 2.365-8.663 1.577-15.35 3.174-20.07 4.72-3.175 0-5.54.82-7.086 2.366-6.308 3.174-6.308 6.308 0 9.442 6.267 3.174 12.585 4.72 18.882 4.72 6.267 1.578 16.128 3.544 29.512 5.899 13.353 2.365 23.204 4.352 29.512 5.898 6.267 1.577 14.162 5.54 23.613 11.807 15.708 12.615 16.527 25.968 2.365 40.13-11.029 7.895-23.613 13.384-37.776 16.527-12.615 3.175-23.613 4.72-33.055 4.72-31.509 0-55.112-3.143-70.83-9.441-11.029-3.144-18.882-7.086-23.613-11.806-1.577-1.546-3.942-5.5-7.086-11.807 0-6.267 3.143-11.807 9.441-16.528 9.441-6.267 17.305-9.442 23.613-9.442 12.585-3.144 21.248-5.5 25.968-7.086-1.577 0-7.086-1.546-16.528-4.721-6.308-3.144-10.26-5.5-11.806-7.086-7.895-7.865-7.895-15.708 0-23.613 3.143-4.721 8.632-7.865 16.528-9.442 6.267-3.144 11.806-4.721 16.528-4.721-3.175-3.144-6.308-4.721-9.442-4.721-11.029-4.721-18.105-10.988-21.248-18.883-6.308-15.708-4.72-30.69 4.72-44.862 7.864-12.585 21.248-21.248 40.131-25.97 6.267-1.545 16.527-2.364 30.69-2.364h151.091c6.267 0 17.305-1.546 33.055-4.72C499.721 0 524.103 4.72 544.573 17.306c15.718 11.049 23.624 26 23.624 44.882zM237.672 170.796c-6.308 3.175-11.806 5.54-16.528 7.086-4.72 3.175-4.72 7.086 0 11.807 6.267 3.174 10.22 4.72 11.806 4.72 9.442 3.175 24.392 4.722 44.861 4.722 9.442 0 16.527-.778 21.248-2.365 7.865 0 14.162-2.365 18.882-7.086 3.144-6.267 2.365-10.22-2.365-11.807-3.175-3.144-5.54-4.721-7.086-4.721l-21.248-7.086c-3.175-1.546-7.895-2.365-14.162-2.365l-35.41 7.096zM325.029 57.47c0-10.988-5.54-18.883-16.527-23.614-9.442-3.143-18.104-4.72-25.969-4.72-12.615 3.175-22.825 9.44-30.69 18.882-7.895 12.615-7.086 23.613 2.365 33.054 7.865 6.308 18.074 9.44 30.69 9.44 3.144 0 5.5-.777 7.086-2.364 10.988 0 20.43-4.72 28.334-14.162 3.123-6.256 4.711-11.797 4.711-16.517zm200.674-2.356c-3.174-14.162-11.029-23.614-23.614-28.334-9.442-3.143-18.105-3.143-25.969 0-18.882 6.308-33.055 19.702-42.496 40.13-3.175 12.616-3.942 23.614-2.365 33.056 3.144 18.882 16.527 28.334 40.13 28.334 12.585 0 24.392-5.5 35.41-16.527 15.73-12.585 22.037-31.468 18.903-56.658zm226.642-44.862c-12.615-6.267-27.556-7.864-44.86-4.72-15.75 1.577-31.51 7.895-47.217 18.882-4.72 3.175-7.895 5.54-9.442 7.086 1.546-3.143 2.365-7.086 2.365-11.806s.778-7.864 2.365-9.441c0-1.546-1.577-2.365-4.72-2.365h-30.69l-7.086 7.086c-6.308 25.19-14.162 62.966-23.614 113.326-3.174 9.442-4.72 16.527-4.72 21.248h35.41c1.545 0 3.911-1.546 7.085-4.721 1.546-9.442 4.322-23.204 8.264-41.318 3.912-18.074 6.677-31.867 8.264-41.32 0-1.545.778-3.142 2.365-4.72 12.585-9.441 22.026-15.707 28.334-18.882 14.162-7.864 26.747-10.987 37.775-9.441 10.987 0 17.306 4.72 18.883 14.162V57.47c-1.577 9.44-4.352 22.425-8.264 38.953-3.942 16.528-6.717 28.734-8.264 36.598 0 1.577-.399 3.942-1.178 7.086-.819 3.174-1.178 5.54-1.178 7.086v2.365h37.775l2.365-2.365v-7.086l2.365-2.365c3.144-9.442 6.677-23.204 10.62-41.318 3.911-18.074 6.676-31.867 8.263-41.32 3.123-20.428-3.963-35.41-21.269-44.85zm221.921 63.744l-2.365 2.365H844.422c-3.174 0-4.72 1.577-4.72 4.72-4.722 22.067 6.266 37.775 33.053 47.216 15.708 4.72 33.833 3.942 54.303-2.365 3.144-1.546 8.633-3.911 16.528-7.086 7.865-3.144 13.353-5.5 16.528-7.086h4.721c0 3.175-.819 6.717-2.365 10.619-1.577 3.942-2.365 6.717-2.365 8.264 0 4.72-3.174 7.895-9.442 9.442-15.749 7.895-31.509 11.807-47.216 11.807-22.067 3.174-40.13 1.577-54.303-4.721-18.883-4.721-32.276-13.353-40.13-25.97-12.615-20.428-14.162-43.273-4.72-68.463 12.584-18.883 29.111-33.055 49.581-42.496 14.162-4.72 27.515-7.086 40.13-7.086 20.43 0 36.956 3.175 49.582 9.44 18.883 11.03 29.112 25.192 30.69 42.497v18.903zm-40.13-23.602c-3.175-12.585-9.443-19.671-18.884-21.248-11.029-3.143-18.883-3.911-23.614-2.365-18.883 1.577-33.054 11.807-42.496 30.69h82.637c3.134 0 3.902-2.355 2.355-7.076z"/></svg>