<svg xmlns="http://www.w3.org/2000/svg" viewBox="0 0 1024.001953125 268.3199462890625"><path d="M421.368 133.96c-3.84 11.582-7.927 25.866-9.77 34.018h-1.526c-1.894-8.11-5.98-22.815-9.769-34.018 0 0-24.259-73.32-24.637-74.404h-42.127c4.27 11.274 58.41 154.5 58.41 155.034 0 0-18.996 51.63-19.764 53.73h37.54c.368-1.045 76.462-206.592 77.261-208.753h-40.99c-1.853 5.59-24.627 74.394-24.627 74.394zM86.579 101.325h-47.78V46.418h47.206c19.497 0 30.208 9.636 30.208 27.166-.01 18.146-10.24 27.74-29.635 27.74zM87.45 7.72H0v205.773h38.8v-73.462h45.19c26.971 0 72.181-8.755 72.181-67.338-.01-39.465-26.993-64.973-68.72-64.973zm177.858 161.373c-4.25 7.28-14.674 14.622-28.355 14.622-21.524 0-23.859-15.063-23.859-21.565 0-13.118 8.478-20.337 23.86-20.337 14.95 0 21.401 2.304 28.118 6.646l.358.226-.123 20.409zM243.018 56.3c-24.699 0-39.27 5.61-55.737 15.237.727 1.34 13.875 25.805 14.551 27.044 13.998-7.67 23.798-10.117 41.196-10.117 13.62 0 22.405 8.11 22.405 20.654v9.01l-1.127-.572c-8.028-4.147-17.459-6.144-28.785-6.144-37.397 0-60.63 19.456-60.63 50.739 0 37.714 28.016 54.599 55.725 54.599 12.933 0 25.753-5.12 33.485-13.384l1.341-1.423v11.54h38.226V110.02c-.01-33.116-23.245-53.72-60.65-53.72zm690.35 63.417l.092-.911c1.597-17.326 11.643-28.55 25.57-28.55 18.82 0 26.756 14.767 27.893 28.59l.072.87h-53.627zm90.634 16.978c0-47.33-25.886-80.394-62.966-80.394-38.635 0-66.663 33.802-66.663 80.394 0 48.63 27.638 80.057 70.441 80.057 20.828 0 41.513-9.564 53.043-24.32-1.229-1.065-26.112-22.466-27.095-23.286-6.062 6.759-15.452 10.7-25.948 10.7-14.469 0-30.433-7.894-31.928-30.074l-.062-.86h90.634c.051-1.29.543-12.216.543-12.216zM565.178 7.72h-38.799v205.773H666.38v-39.27H565.168V7.72zM800.636 40.1v19.456H782.45V96.47h18.186v117.023h38.195V96.47h25.682V59.556h-25.682V45.722c0-9.78 4.055-13.24 15.504-13.24 4.926 0 8.91.963 13.056 2.908V4.25C860.694 1.465 852.553 0 843.081 0c-28.969.01-42.445 12.759-42.445 40.1zM724.256.01c-11.919 0-21.995 10.364-21.995 22.6 0 12.257 10.076 22.599 21.995 22.599 11.91 0 21.986-10.352 21.986-22.6.01-12.236-10.066-22.598-21.986-22.598zm-19.108 213.484h38.236V59.556h-38.236v153.938z"/></svg>