<svg xmlns="http://www.w3.org/2000/svg" viewBox="0 0 1024.001708984375 190.637451171875"><path d="M279.912 113.92h-15.77v57.385h-25.834V19.055h44.574c32 0 56.238 15.084 56.238 46.173 0 31.775-22.405 48.69-59.207 48.69zm.91-74.517h-16.69v54.18h15.995c23.09 0 32.92-9.37 32.92-27.658.01-16.466-9.133-26.522-32.225-26.522zm77.773 131.902H332.77l58.06-152.25h24.915l59.207 152.25h-28.12l-11.888-32.686h-64.46l-11.89 32.686zm52.808-97.157c-4.567-12.81-8.683-26.286-8.683-26.286h-.46s-3.882 13.712-8.684 26.286c0 0-15.545 43.428-15.77 43.428h49.378l-15.78-43.428zm112.958 39.547v57.61h-25.825v-57.61l-50.75-94.638h28.805l35.88 70.636h.237l35.89-70.636h25.14zm124.886 57.876l-30.864-88.238c-3.43-10.281-6.86-21.484-6.86-21.484h-.462s-.912 11.889-2.048 22.17L598.26 171.57h-23.552l20.808-152.248h24.914l33.822 98.294c4.342 12.114 8.458 26.972 8.458 26.972h.46s4.343-14.858 8.684-26.972l34.294-98.294h24.914l20.808 152.249h-26.297l-11.202-88.003c-1.372-10.517-2.52-21.72-2.52-21.72h-.45s-3.205 11.203-6.635 21.484l-30.403 88.238h-25.12zm126.24-152.248h25.826V171.57h-25.825V19.323zm53.626 152.248V19.323h25.826v131.215h58.06v21.033zm110.992 0V19.323h25.836v131.215H1024v21.033zM108.412 53.617a5.965 5.965 0 0 0-5.96-5.96h-30.36c-4.404 0-8.387 2.335-10.313 5.96L.513 182.293A5.792 5.792 0 0 0 0 184.679c0 3.287 2.672 5.949 5.96 5.949l30.36.01c5.213 0 9.565-4.454 11.265-8.028S107.91 56.003 107.91 56.003h-.01a5.83 5.83 0 0 0 .512-2.386zm72.704 17.869c0-.84-.174-1.628-.482-2.345v-.01L152.33 8.029l-.02-.01C150.334 3.565 146.268 0 141.056 0h-30.372a5.959 5.959 0 0 0-5.96 5.959c0 .85.184 1.659.512 2.386l-.01.01 28.55 60.273s.737 1.843.737 2.867-.286 1.976-.738 2.816v.05l-28.55 60.284a5.839 5.839 0 0 0-.511 2.396 5.95 5.95 0 0 0 5.96 5.95l30.372.01c5.212 0 9.042-3.563 11.254-8.018l.02-.01 28.304-61.113a6.06 6.06 0 0 0 .492-2.375z"/></svg>