<svg xmlns="http://www.w3.org/2000/svg" viewBox="0 0 1025.10693359375 272.88006591796875"><path d="M564.635 73.691h-38.338a11.07 11.07 0 0 0-9.154 4.854l-52.889 77.886-22.405-74.844a11.088 11.088 0 0 0-10.608-7.895h-37.683c-4.546 0-7.752 4.475-6.288 8.775l42.21 123.914-39.7 56.023c-3.114 4.393.03 10.476 5.426 10.476h38.298c3.625 0 7.024-1.782 9.103-4.75L570.095 84.115c3.052-4.403-.092-10.424-5.458-10.424zm-256.287 74.24c-3.687 21.79-20.982 36.423-43.049 36.423-11.059 0-19.927-3.563-25.61-10.302-5.642-6.676-7.762-16.199-5.98-26.788 3.43-21.606 21.012-36.7 42.742-36.7 10.834 0 19.63 3.594 25.426 10.393 5.847 6.851 8.141 16.425 6.471 26.972zm53.156-74.24h-38.143a6.646 6.646 0 0 0-6.564 5.611l-1.669 10.65-2.663-3.862c-8.264-11.98-26.675-15.995-45.066-15.995-42.137 0-78.13 31.938-85.135 76.73-3.645 22.342 1.526 43.693 14.203 58.592 11.632 13.691 28.242 19.385 48.025 19.385 33.976 0 52.808-21.81 52.808-21.81l-1.7 10.597c-.635 4.024 2.478 7.67 6.564 7.67h34.345a11.055 11.055 0 0 0 10.937-9.339l20.623-130.57c.635-4.014-2.488-7.66-6.564-7.66zm-228.885.91c-4.352 28.59-26.183 28.59-47.309 28.59H73.288l8.427-53.38a6.628 6.628 0 0 1 6.553-5.602h5.52c14.376 0 27.954 0 34.96 8.182 4.187 4.905 5.457 12.175 3.87 22.21zM123.434.003H43.777a11.065 11.065 0 0 0-10.937 9.35L.635 213.588c-.635 4.024 2.478 7.67 6.553 7.67h38.041a11.062 11.062 0 0 0 10.926-9.339l8.694-55.1c.84-5.387 5.49-9.35 10.926-9.35h25.201c52.47 0 82.75-25.385 90.654-75.714 3.564-21.995.143-39.29-10.158-51.394C170.157 7.05 150.076.005 123.432.005zm851.13 5.612L941.877 213.59c-.635 4.024 2.478 7.67 6.553 7.67h32.88a11.053 11.053 0 0 0 10.926-9.349l32.236-204.237c.635-4.024-2.478-7.67-6.564-7.67h-36.782c-3.277.01-6.062 2.375-6.564 5.612zm-98.11 142.316c-3.688 21.79-20.983 36.423-43.05 36.423-11.059 0-19.927-3.563-25.61-10.302-5.653-6.676-7.762-16.199-5.98-26.788 3.431-21.606 21.013-36.7 42.742-36.7 10.834 0 19.63 3.594 25.426 10.393 5.847 6.851 8.141 16.425 6.471 26.972zm53.154-74.24h-38.144a6.646 6.646 0 0 0-6.564 5.611l-1.669 10.66-2.673-3.86c-8.254-11.982-26.665-15.996-45.056-15.996-42.138 0-78.13 31.94-85.135 76.73-3.645 22.342 1.526 43.693 14.203 58.592 11.633 13.691 28.242 19.385 48.025 19.385 33.976 0 52.808-21.81 52.808-21.81l-1.7 10.597c-.635 4.024 2.478 7.67 6.564 7.67h34.345a11.055 11.055 0 0 0 10.937-9.339l20.624-130.57c.635-4.024-2.489-7.67-6.564-7.67zm-228.884.91c-4.352 28.59-26.183 28.59-47.309 28.59h-12.01l8.427-53.38a6.628 6.628 0 0 1 6.553-5.602h5.52c14.376 0 27.954 0 34.96 8.182 4.177 4.905 5.446 12.175 3.86 22.21zM691.539.003h-79.657a11.065 11.065 0 0 0-10.937 9.35l-32.204 204.236c-.635 4.024 2.49 7.67 6.553 7.67h40.868a7.747 7.747 0 0 0 7.65-6.533l9.143-57.907c.84-5.386 5.49-9.349 10.926-9.349h25.201c52.47 0 82.75-25.385 90.654-75.714 3.563-21.995.144-39.29-10.158-51.394C738.263 7.05 718.182.005 691.538.005z"/></svg>