<svg xmlns="http://www.w3.org/2000/svg" viewBox="0 0 334.1029968261719 389.60894775390625"><path d="M281.978 29.387C263.935 8.825 231.331.008 189.613.008H68.536c-8.54 0-15.79 6.206-17.122 14.623L1.004 334.365c-1.004 6.308 3.88 12.012 10.27 12.012h74.742l18.77-119.071-.584 3.728c1.331-8.418 8.54-14.623 17.06-14.623h35.522c69.776 0 124.416-28.344 140.38-110.336.471-2.427.88-4.782 1.24-7.086-2.019-1.065-2.019-1.065 0 0 4.75-30.3-.042-50.934-16.426-69.601zm-157.019 70a15.165 15.165 0 0 1 8.428-11.315 15.138 15.138 0 0 1 6.543-1.474h94.925c11.244 0 21.73.737 31.303 2.274 2.745.44 5.407.952 7.997 1.526s5.1 1.219 7.537 1.925c1.218.358 2.417.727 3.584 1.106 4.711 1.577 9.093 3.41 13.128 5.55 4.751-30.31-.03-50.934-16.425-69.601C263.926 8.816 231.332 0 189.614 0H68.526c-8.519 0-15.78 6.205-17.11 14.623L1.004 334.346c-1.003 6.318 3.881 12.012 10.26 12.012h74.762l38.933-246.969zm156.732-7.054a113.574 113.574 0 0 0-7.537-1.925 140.57 140.57 0 0 0-7.997-1.515c-9.595-1.557-20.07-2.284-31.314-2.284h-94.904a15.11 15.11 0 0 0-6.543 1.485 15.129 15.129 0 0 0-8.428 11.315l-20.172 127.908-.584 3.728c1.321-8.418 8.52-14.623 17.05-14.623h35.533c69.775 0 124.416-28.344 140.38-110.336.471-2.427.87-4.772 1.24-7.086-4.046-2.13-8.419-3.973-13.129-5.54a77.617 77.617 0 0 0-3.594-1.126zm33.967 19.967c-1.976-2.253-4.26-4.25-6.635-6.185-.144 1.055-.205 2.027-.379 3.103a213.394 213.394 0 0 1-1.239 7.096c-11.97 61.491-45.7 92.805-91.259 104.622-15.186 3.942-31.683 5.714-49.13 5.714h-35.523c-6.8 0-12.697 3.983-15.514 9.851-.717 1.485-1.28 3.072-1.546 4.772l.01-.051c0 .02-.01.041-.01.062l.45-2.908-18.647 118.251H84.378l-3.543 22.466c-.87 5.519 3.4 10.516 8.981 10.516h63.007c7.454 0 13.803-5.427 14.971-12.79l.615-3.216 11.88-75.264.767-4.158c1.168-7.363 7.516-12.79 14.971-12.79h9.431c61.04 0 108.831-24.801 122.798-96.512 5.847-29.983 2.826-55.009-12.595-72.581z"/></svg>