<svg xmlns="http://www.w3.org/2000/svg" viewBox="0 0 1024.009033203125 277.001953125"><path d="M74.269 261.366c-.645 8.745-7.936 15.636-16.845 15.636s-16.2-6.891-16.845-15.626l33.69-.01zm40.53 0c-.645 8.745-7.936 15.636-16.845 15.636s-16.2-6.891-16.845-15.626l33.69-.01zm40.541 0c-.645 8.745-7.936 15.636-16.845 15.636s-16.2-6.891-16.845-15.626l33.69-.01zm40.54 0c-.645 8.745-7.936 15.636-16.845 15.636s-16.2-6.891-16.845-15.626l33.69-.01zm40.53 0c-.645 8.745-7.936 15.636-16.845 15.636s-16.2-6.891-16.845-15.626l33.69-.01zm84.551 0v5.57l20.695-5.264v-.307h-20.695zm208.293 0l2.928 5.775c6.748-1.25 12.135-3.134 16.568-5.775h-19.497zm403.773 0v8.11l30.044-8.11h-30.044zM66.293 245.729c4.813 2.98 8.018 8.305 8.018 14.377 0 .42-.02.839-.05 1.26h-33.69a16.66 16.66 0 0 1-.052-1.26 16.86 16.86 0 0 1 8.028-14.377h17.746zm40.53 0c4.812 2.98 8.027 8.305 8.027 14.377 0 .42-.02.839-.05 1.26H81.11a16.66 16.66 0 0 1-.052-1.26 16.86 16.86 0 0 1 8.028-14.377h17.736zm40.54 0c4.813 2.98 8.028 8.305 8.028 14.377 0 .42-.02.839-.05 1.26h-33.69a16.66 16.66 0 0 1-.052-1.26 16.86 16.86 0 0 1 8.028-14.377h17.736zm40.53 0c4.813 2.98 8.028 8.305 8.028 14.377 0 .42-.02.839-.05 1.26h-33.69a17.2 17.2 0 0 1-.052-1.26 16.86 16.86 0 0 1 8.028-14.377h17.736zm40.54 0c4.813 2.98 8.028 8.305 8.028 14.377 0 .42-.02.839-.05 1.26h-33.69a17.27 17.27 0 0 1-.042-1.26 16.874 16.874 0 0 1 8.018-14.377h17.736zm92.528 0v15.637h20.695v-15.637h-20.695zm219.536 0c-4.116 3.687-9.104 5.827-15.34 7.547l4.106 8.09h19.497c6.174-3.676 10.527-8.786 14.213-15.637h-22.477zm392.53 0v15.637h30.044l3.922-1.065v-14.572h-33.966zM70.634 230.093c-3.093 3.88-7.864 6.37-13.209 6.37s-10.117-2.49-13.209-6.36l26.42-.01zm40.53 0c-3.093 3.88-7.865 6.37-13.21 6.37s-10.117-2.49-13.21-6.36l26.42-.01zm40.541 0c-3.093 3.88-7.864 6.37-13.209 6.37s-10.117-2.49-13.21-6.36l26.42-.01zm40.54 0c-3.093 3.88-7.864 6.37-13.209 6.37s-10.117-2.49-13.209-6.36l26.42-.01zm40.53 0c-3.094 3.88-7.865 6.37-13.21 6.37s-10.117-2.49-13.209-6.36l26.42-.01zm88.186 0v15.636h20.695v-15.636h-20.695zm229.244 0c-2.673 7.25-5.796 12.144-9.707 15.636l22.466-.01c2.396-4.454 4.495-9.636 6.635-15.636l-19.394.01zm382.822 0v15.636h33.966v-6.123c0-3.963-.133-7.056-.389-9.513h-33.577zm-884.47 15.636c2.581-1.587 5.611-2.51 8.868-2.51s6.288.923 8.868 2.51H48.557zm40.54 0c2.581-1.587 5.612-2.51 8.868-2.51s6.287.923 8.868 2.51H89.097zm40.53 0c2.581-1.587 5.612-2.51 8.868-2.51s6.287.923 8.868 2.51h-17.736zm40.54 0c2.581-1.587 5.612-2.51 8.868-2.51s6.287.923 8.868 2.51h-17.736zm40.53 0c2.581-1.587 5.612-2.51 8.868-2.51s6.287.923 8.868 2.51h-17.736zM73.533 214.457c.512 1.618.788 3.328.788 5.11 0 3.983-1.372 7.639-3.676 10.526l-26.419-.01a16.785 16.785 0 0 1-3.676-10.526c0-1.782.276-3.502.788-5.11l32.194.01zm40.53 0c.512 1.618.788 3.328.788 5.11 0 3.983-1.372 7.639-3.676 10.526l-26.419-.01a16.785 16.785 0 0 1-3.676-10.526c0-1.782.276-3.502.788-5.11l32.194.01zm40.54 0c.511 1.618.787 3.328.787 5.11 0 3.983-1.372 7.639-3.676 10.526l-26.419-.01a16.785 16.785 0 0 1-3.676-10.526c0-1.782.276-3.502.788-5.11l32.195.01zm40.53 0c.511 1.618.787 3.328.787 5.11 0 3.983-1.372 7.639-3.676 10.526l-26.419-.01a16.785 16.785 0 0 1-3.676-10.526c0-1.782.276-3.502.788-5.11l32.195.01zm40.54 0c.511 1.618.787 3.328.787 5.11 0 3.983-1.372 7.639-3.676 10.526l-26.419-.01a16.785 16.785 0 0 1-3.676-10.526c0-1.782.276-3.502.788-5.11l32.195.01zm85.288 0v15.636h20.695v-1.413c0-5.468-.389-9.76-.389-9.76 6.83 5.275 15.033 8.009 23.43 8.009 11.662 0 20.94-4.434 27.535-12.462l-71.27-.01zm104.52 0c4.854 8.264 14.244 13.435 28.815 13.435 10.547 0 19.128-3.123 27.136-12.103 2.345 6.246 7.414 10.937 13.476 13.27l11.131-13.67c-.45-.316-.89-.624-1.3-.941l-79.257.01zm116.726 0a246.036 246.036 0 0 1 2.867 10.506h6.83a79.183 79.183 0 0 1-1.7 5.12l19.394.01c.348-.973.697-1.966 1.044-2.98l4.383-12.657h-32.819zm68.434 0l-.174.358c15.227 8.008 29.287 12.688 43.735 12.688 16.364 0 29.543-4.761 37.714-13.046h-81.275zm107.028 0v10.506h33.966v-10.506h-33.966zm53.484 0v10.506h33.976v-10.506h-33.976zm63.744 0c8.028 8.51 19.456 13.046 33.515 13.046 12.124 0 24.25-3.983 33.28-13.056l-66.796.01zm98.13 0v15.636h33.577c-.266-2.611-.665-4.495-1.178-5.91 4.69 1.957 9.76 3.319 15.811 3.319 12.974 0 23.317-4.28 30.577-13.035l-78.787-.01zM320.961 198.82v15.637h71.27c3.492-4.25 6.236-9.503 8.192-15.637h-23.09c-3.309 7.537-8.982 11.11-17.317 11.11-6.44 0-13.27-3.706-18.35-8.785v-2.325h-20.705zm100.547 0c.082 5.888 1.372 11.202 3.973 15.637h79.257c-5.233-3.952-6.892-7.69-7.24-15.637h-21.279l-.05 3.103c-4.292 6.246-10.938 10.342-17.768 10.342-8.038 0-12.995-5.12-13.599-13.456l-23.296.01zm115.702 0c1.618 4.834 3.36 10.117 4.997 15.637h32.82l5.416-15.637h-19.742c-1.126 4.26-1.874 7.25-1.966 7.598-.164-.666-.912-3.79-1.833-7.598H537.21zm81.01 0l-7.568 15.637h81.264c4.25-4.311 7.138-9.585 8.407-15.637h-35.584c-1.72 2.396-5.16 4.28-9.37 4.28-4.587 0-10.547-1.863-16.282-4.28h-20.869zm99.45 0v15.637h33.965V198.82h-33.966zm53.483 0v15.637h33.976V198.82h-33.976zm54.354 0c2.212 6.154 5.376 11.397 9.38 15.637l66.806-.01c4.106-4.127 7.577-9.308 10.117-15.637h-35.298c-1.649 3.399-4.014 4.864-7.322 4.864-4.076 0-6.625-1.557-8.212-4.864l-35.47.01zm107.52 0v15.637h78.797c3.471-4.178 6.236-9.39 8.254-15.637h-38.635c-2.263 1.69-5.008 1.936-7.997 1.936-2.724 0-5.048-.788-6.01-1.936h-34.408zM41.318 214.457c2.16-6.83 8.56-11.776 16.108-11.776s13.936 4.946 16.108 11.776H41.319zm40.54 0c2.16-6.83 8.561-11.776 16.108-11.776s13.936 4.946 16.108 11.776H81.859zm40.53 0c2.16-6.83 8.56-11.776 16.106-11.776s13.936 4.946 16.108 11.776h-32.215zm40.54 0c2.161-6.83 8.56-11.776 16.107-11.776s13.936 4.946 16.108 11.776h-32.215zm40.54 0c2.161-6.83 8.56-11.776 16.108-11.776s13.936 4.946 16.108 11.776h-32.215zm-129.67-31.273c-1.853 7.322-8.478 12.738-16.374 12.738s-14.53-5.417-16.374-12.738h32.748zm40.541 0c-1.853 7.322-8.478 12.738-16.374 12.738s-14.53-5.417-16.374-12.738h32.748zm40.53 0c-1.853 7.322-8.478 12.738-16.374 12.738s-14.53-5.417-16.374-12.738h32.748zm40.54 0c-1.853 7.322-8.478 12.738-16.374 12.738s-14.53-5.417-16.374-12.738h32.748zm40.53 0c-1.853 7.322-8.478 12.738-16.374 12.738s-14.53-5.417-16.374-12.738h32.748zm85.022 0v15.636h20.695v-15.636h-20.695zm59.69 0c-.45 6.39-1.547 11.59-3.329 15.636h23.091c1.495-4.711 2.53-9.943 3.072-15.626l-22.835-.01zm44.042 0c-2.11 4.3-3.195 9.308-3.195 15.033v.604h23.296a24.913 24.913 0 0 1-.062-1.771c0-6.124 1.546-10.742 5.642-13.865h-25.682zm51.784 0l-.256 15.636h21.28c-.083-1.843-.093-3.911-.052-6.267l.133-9.37h-21.104zm55.47 0l3.747 11.13c.481 1.455.994 2.96 1.505 4.517h19.702c-1.218-5.058-2.745-11.315-3.635-14.663l-.297-.973-21.023-.01zm33.136 0c-1.669 5.57-3.226 11.274-4.383 15.636h19.742l5.417-15.636h-20.777zm72.735 0a73.98 73.98 0 0 0 1.741.389l13.077 2.734c9.953 2.15 13.271 3.707 13.271 9.175 0 1.136-.42 2.284-1.178 3.338h35.584a35.37 35.37 0 0 0 .737-7.24c0-3.021-.266-5.817-.809-8.397h-62.423zm79.851 0v15.636h33.966v-15.636h-33.966zm53.484 0v15.636h33.976v-15.636h-33.976zm50.985 0c.553 5.714 1.69 10.937 3.38 15.626l35.47.01c-1.607-3.35-2.222-8.5-2.427-15.637h-36.423zm57.303 0c-.43 7.3-1.34 12.37-2.928 15.636l35.298-.01c1.843-4.587 3.195-9.79 3.942-15.636l-36.31.01zm53.586 0v15.636h34.396a1.967 1.967 0 0 1-.43-.798v-14.838h-33.966zm54.221 0c-.87 9.093-2.96 13.506-5.817 15.636h38.635c1.495-4.64 2.57-9.841 3.216-15.636h-36.034zm-348.16 15.636c-6.718-2.826-13.129-6.4-16.713-8.612l-4.168 8.612h20.88zM69.816 167.547a16.811 16.811 0 0 1 4.505 11.479 16.73 16.73 0 0 1-.512 4.147H41.061a16.872 16.872 0 0 1-.512-4.158c0-4.434 1.71-8.468 4.505-11.48l24.76.01zm40.53 0a16.811 16.811 0 0 1 4.504 11.479 16.73 16.73 0 0 1-.512 4.147H81.59a16.872 16.872 0 0 1-.512-4.158c0-4.434 1.71-8.468 4.505-11.48l24.761.01zm40.54 0a16.812 16.812 0 0 1 4.506 11.479 16.73 16.73 0 0 1-.512 4.147h-32.748a16.872 16.872 0 0 1-.512-4.158c0-4.434 1.71-8.468 4.505-11.48l24.76.01zm40.53 0a16.812 16.812 0 0 1 4.506 11.479 16.73 16.73 0 0 1-.512 4.147h-32.758a16.872 16.872 0 0 1-.512-4.158c0-4.434 1.71-8.468 4.506-11.48l24.77.01zm40.54 0a16.812 16.812 0 0 1 4.506 11.479 16.73 16.73 0 0 1-.512 4.147h-32.748a16.872 16.872 0 0 1-.512-4.158c0-4.434 1.71-8.468 4.506-11.48l24.761.01zm89.005 0v15.637h20.695v-15.637h-20.695zm59.7 0c.164 2.55.236 5.294.236 8.212 0 2.632-.082 5.1-.246 7.414h22.835a102.997 102.997 0 0 0 .276-15.626h-23.1zm63.355 0c-9.247 3.164-15.749 8.387-19.313 15.637h25.682c4.27-3.257 11.315-4.885 22.272-4.885 1.557 0 3.901.194 3.901.194l-.082 4.69h21.094l.215-15.637h-53.77zm82.657 0l5.274 15.637h21.033l-4.72-15.637h-21.587zm43.192 0l-3.717 12.124a452.048 452.048 0 0 0-1.075 3.523h20.766l5.417-15.637-21.39-.01zm48.077 0c3.021 7.659 9.503 13.097 19.876 15.637h62.433c-1.423-6.677-4.76-11.88-10.414-15.637h-71.895zm99.727 0v15.637h33.966v-15.637h-33.966zm53.484 0v15.637h33.976v-15.637h-33.976zm50.975 0a73.102 73.102 0 0 0-.369 7.434c0 2.837.133 5.57.38 8.192l36.412.01a250.291 250.291 0 0 1-.092-7.62c0-2.938.051-5.6.144-8.017h-36.475zm57.58 0c.02 1.127.03 2.304.03 3.533 0 4.577-.093 8.6-.298 12.104h36.322c.451-3.481.686-7.188.686-11.131 0-1.546-.04-3.052-.112-4.516l-36.629.01zm53.32 0v15.637h33.965v-15.637h-33.966zm54.61 0c.04 1.546.05 3.185.05 4.894 0 4.158-.154 7.7-.44 10.73l36.044.01c.471-4.24.717-8.795.717-13.67 0-.644 0-1.3-.02-1.965h-36.352zm-954-31.263c.092.717.144 1.464.144 2.212 0 9.328-7.557 16.886-16.886 16.886C7.557 155.382 0 147.825 0 138.496c0-.748.051-1.495.143-2.222l33.495.01zm40.53 0c.102.717.143 1.464.143 2.212 0 9.328-7.557 16.886-16.886 16.886s-16.886-7.557-16.886-16.886c0-.748.051-1.495.144-2.222l33.485.01zm40.54 0c.092.727.144 1.464.144 2.212 0 9.328-7.557 16.886-16.886 16.886s-16.886-7.557-16.886-16.886c0-.748.051-1.495.144-2.222l33.485.01zm40.53 0c.091.727.142 1.464.142 2.212 0 9.328-7.557 16.886-16.886 16.886s-16.886-7.557-16.886-16.886c0-.748.051-1.495.144-2.222l33.485.01zm40.54 0c.092.727.143 1.464.143 2.212 0 9.328-7.557 16.886-16.886 16.886s-16.886-7.557-16.886-16.886c0-.748.051-1.495.143-2.222l33.485.01zm40.53 0c.092.727.143 1.464.143 2.212 0 9.328-7.557 16.886-16.886 16.886s-16.886-7.557-16.886-16.886c0-.748.051-1.495.143-2.222l33.485.01zm40.54 0c.092.727.144 1.464.144 2.212 0 9.328-7.557 16.886-16.886 16.886s-16.886-7.557-16.886-16.886c0-.748.051-1.495.143-2.222l33.485.01zm43.53 0c.4 3.993.584 8.602.584 15.472v15.8h20.695v-15.605c5.858-6.635 13.077-10.148 20.89-10.148 12.195 0 17.038 8.97 18.114 25.753l23.101.01c-.86-13.865-4.803-24.176-10.629-31.273l-72.755-.01zm105.185 0l-1.32.829 9.563 15.422s15.227-11.326 29.481-11.326c11.714 0 13.671 6.052 13.671 17.378v5.274h-6.635c-10.342 0-19.139 1.229-26.296 3.687h53.781l.041-3.308c.195-14.643.195-19.917-1.567-24.207a25.228 25.228 0 0 0-1.874-3.758l-68.844.01zm90.562 0l10.547 31.262h21.586l-9.452-31.262h-22.682zm63.335 0l-9.594 31.262h21.4l10.823-31.262h-22.63zm42.783 0c-4.076 5.396-6.298 12.103-6.298 19.763 0 4.229.655 8.08 1.997 11.5l71.895.01c-3.605-2.406-8.162-4.22-13.763-5.447l-12.493-2.734c-8.202-1.762-10.547-4.485-10.547-8.008 0-3.318 3.513-5.663 8.786-5.663 6.635 0 14.838 2.15 24.791 7.414l8.418-16.834h-72.786zm95.426 0v31.273h33.966V154.49c2.734-2.928 7.62-6.246 11.91-6.246 7.218 0 7.618 2.345 7.618 10.547v8.775h33.966v-16.384c0-6.093-.912-10.977-2.529-14.89l-84.93-.01zm117.586 0c-7.24 7.895-11.837 18.626-13.128 31.262l36.475.01c.727-18.135 4.198-22.241 10.394-22.241 7.516 0 10.384 4.987 10.711 22.24h36.618c-.717-13.711-4.71-23.971-10.855-31.261l-70.216-.01zm96.35 0c1.115 7.854 1.412 15.944 1.412 24.647v6.625h33.966v-14.622c1.761-2.734 5.08-5.08 10.547-5.08 8.008 0 9.81 6.985 10.107 19.713h36.342c-.164-9.82-1.669-21.954-7.977-31.262l-84.398-.02zm-886.57 31.263c3.081-3.328 7.494-5.406 12.39-5.406s9.308 2.078 12.391 5.406h-24.78zm40.54 0c3.082-3.328 7.495-5.406 12.391-5.406s9.298 2.078 12.391 5.406h-24.78zm40.53 0c3.082-3.328 7.495-5.406 12.391-5.406s9.308 2.078 12.391 5.406h-24.78zm40.54 0c3.082-3.328 7.495-5.406 12.391-5.406s9.308 2.078 12.391 5.406h-24.78zm40.53 0c3.081-3.328 7.494-5.406 12.39-5.406s9.298 2.078 12.391 5.406h-24.78zM30.485 128.46a16.833 16.833 0 0 1 3.153 7.813H.143a16.753 16.753 0 0 1 3.154-7.803l27.187-.01zm40.528 0a16.833 16.833 0 0 1 3.154 7.813H40.672a16.965 16.965 0 0 1 3.154-7.803l27.187-.01zm40.541 0a16.833 16.833 0 0 1 3.154 7.813H81.213a16.786 16.786 0 0 1 3.154-7.813h27.187zm40.53 0a16.833 16.833 0 0 1 3.153 7.813h-33.495a16.786 16.786 0 0 1 3.154-7.813h27.187zm40.54 0a16.833 16.833 0 0 1 3.154 7.813h-33.495a16.786 16.786 0 0 1 3.154-7.813h27.187zm40.54 0a16.833 16.833 0 0 1 3.154 7.813h-33.495a16.786 16.786 0 0 1 3.154-7.813h27.187zm40.53 0a16.833 16.833 0 0 1 3.154 7.813h-33.495a16.786 16.786 0 0 1 3.154-7.813h27.187zm45.557 0c.481 2.662.86 5.089 1.127 7.813h72.745c-2.704-3.287-5.806-5.878-9.195-7.823H349.03c-3.338 1.874-6.308 4.31-8.755 7.28-.103-3.143-.256-5.386-.512-7.28l-20.51.01zm121.55 0c-4.926 1.956-9.924 4.547-15.238 7.823h68.844c-1.956-3.205-4.587-5.816-7.854-7.813l-45.752-.01zm72.693 0l2.631 7.823h22.682l-2.355-7.823h-22.958zm68.362 0l-2.396 7.823h22.63l2.703-7.823h-22.937zm48.978 0c-3.41 2.15-6.298 4.782-8.59 7.813h72.785l2.12-4.25c-2.539-1.116-5.1-2.355-7.854-3.564h-58.46zm86.835 0v7.823h84.941c-1.34-3.236-3.164-5.806-5.346-7.823h-44.87a25.9 25.9 0 0 0-.953.839c0-.276 0-.563.01-.84h-33.782zm127.09 0a43.847 43.847 0 0 0-9.504 7.813l70.216.01a38.367 38.367 0 0 0-9.02-7.813l-51.693-.01zm85.442 0c.573 2.59 1.034 5.19 1.413 7.823h84.398c-1.986-2.94-4.455-5.601-7.516-7.813h-43.284c-.87.809-1.526 1.618-1.936 2.396a37.891 37.891 0 0 0-.379-2.396l-32.697-.01zm-212.532-7.814v7.823h33.782c.041-1.863.184-3.8.184-7.363v-.451l-33.966-.01zM3.296 128.46c3.072-4.157 8.018-6.861 13.588-6.861s10.517 2.703 13.588 6.86H3.296zm40.54 0c3.072-4.157 8.018-6.861 13.59-6.861s10.515 2.703 13.587 6.86H43.836zm40.531 0c3.072-4.157 8.018-6.861 13.588-6.861s10.516 2.703 13.588 6.86H84.366zm40.54 0c3.071-4.157 8.017-6.861 13.588-6.861s10.517 2.703 13.59 6.86h-27.179zm40.53 0c3.072-4.157 8.018-6.861 13.59-6.861s10.516 2.703 13.598 6.86h-27.187zm40.54 0c3.071-4.157 8.017-6.861 13.588-6.861s10.517 2.703 13.59 6.86h-27.179zm40.53 0c3.071-4.157 8.017-6.861 13.588-6.861s10.517 2.703 13.59 6.86h-27.179zm93.266 0a31.893 31.893 0 0 0-1.045-4.823l-19.722 3.512c.082.44.164.88.246 1.31h20.521zm44.164 0c-5.233-3-11.14-4.434-17.285-4.434-6.308 0-12.4 1.526-17.603 4.434h34.887zm102.605 0c-5.202-3.184-12.032-4.823-20.337-4.823-9.03 0-17.122 1.516-25.416 4.823h45.752zm49.91 0l-1.34-4.434-21.863 3.707.246.727h22.958zm68.342 0l.798-2.284h-23.04l-.697 2.284h22.938zm84.511 0c-7.844-3.461-17.234-6.78-31.97-6.78-10.598 0-19.61 2.428-26.49 6.769l58.46.01zm107.96 0c-5.714-5.284-13.916-6.78-22.395-6.78-10.27 0-17.438 2.582-22.477 6.78h44.871zm99.175 0c-7.495-4.66-16.528-6.78-26.082-6.78-9.789 0-18.432 2.407-25.61 6.78h51.692zm66.467 0a43.556 43.556 0 0 0-1.77-6.584l-31.233 5.274c.102.44.205.87.297 1.31h32.707zm45.588 0c-5.735-4.167-13.538-6.78-24.125-6.78-7.915 0-15.442 3.339-19.149 6.78h43.274zM74.301 97.188c.01.256.02.512.02.768 0 9.329-7.557 16.886-16.886 16.886s-16.886-7.557-16.886-16.886c0-.256.01-.512.02-.768H74.3zm40.53 0c.01.256.02.512.02.768 0 9.329-7.557 16.886-16.886 16.886s-16.886-7.557-16.886-16.886c0-.256.01-.512.02-.768h33.731zm40.54 0c.01.256.02.512.02.768 0 9.329-7.558 16.886-16.887 16.886s-16.886-7.557-16.886-16.886c0-.256.01-.512.02-.768h33.731zm40.53 0c.01.256.02.512.02.768 0 9.329-7.558 16.886-16.887 16.886s-16.886-7.557-16.886-16.886c0-.256.01-.512.02-.768h33.731zm40.54 0c.01.256.02.512.02.768 0 9.329-7.558 16.886-16.887 16.886s-16.886-7.557-16.886-16.886c0-.256.01-.512.02-.768h33.731zm480.45 0c.563 5.253.768 10.864.768 15.124v8.335h33.966v-15.555c0-2.662-.062-5.304-.184-7.905h-34.55zm-676.342 0c.4-8.97 7.803-16.128 16.876-16.128s16.476 7.148 16.876 16.128h-33.75zm40.541 0c.4-8.97 7.803-16.128 16.876-16.128s16.476 7.148 16.876 16.128h-33.75zm40.53 0c.4-8.97 7.803-16.128 16.876-16.128s16.476 7.148 16.875 16.128h-33.75zm40.54 0c.4-8.97 7.803-16.128 16.875-16.128s16.476 7.148 16.875 16.128h-33.75zm40.53 0c.398-8.97 7.802-16.128 16.874-16.128s16.476 7.148 16.875 16.128h-33.75zm548.751 0c-.277-5.581-.89-10.926-1.956-15.73l-34.355 5.859c.798 2.724 1.372 6.205 1.771 9.872h34.54zM162.139 57.426c0-9.328 7.557-16.886 16.886-16.886s16.886 7.567 16.886 16.886c0 9.329-7.557 16.886-16.886 16.886-9.319 0-16.886-7.557-16.886-16.886zm-40.53 0c0-9.328 7.557-16.886 16.886-16.886s16.886 7.567 16.886 16.886c0 9.329-7.557 16.886-16.886 16.886s-16.886-7.557-16.886-16.886zm-40.54 0c0-9.328 7.557-16.886 16.886-16.886s16.886 7.567 16.886 16.886c0 9.329-7.557 16.886-16.886 16.886-9.319 0-16.886-7.557-16.886-16.886zm40.54-40.54c0-9.33 7.557-16.886 16.886-16.886s16.886 7.557 16.886 16.886c0 9.328-7.557 16.886-16.886 16.886s-16.886-7.557-16.886-16.886z"/></svg>