<svg xmlns="http://www.w3.org/2000/svg" viewBox="0 0 1024.0009765625 256.238037109375"><path d="M225.351 17.081C213.801 5.755 195.235 0 170.157 0H72.601C47.554 0 28.978 5.755 17.428 17.081 5.898 28.386 0 47.463 0 68.537v187.689h45.517V151.983h124.641c25.078 0 43.684-5.735 55.194-17.08 11.55-11.315 17.418-30.372 17.418-56.678V73.74c0-26.276-5.878-45.353-17.418-56.658zm-28.077 62.905c0 16.784-6.615 24.259-21.433 24.259H45.517V72.019c0-16.773 6.594-24.248 21.453-24.248h108.882c14.817 0 21.433 7.475 21.433 24.248v7.966zm270.141-62.894C455.875 5.746 437.278.002 412.221.002H282.235v47.76h135.65c14.857 0 21.432 7.475 21.432 24.248v32.205h-124.62c-25.089 0-43.664 5.755-55.225 17.101-11.52 11.305-17.418 30.382-17.418 56.658v4.505c0 26.265 5.898 45.353 17.418 56.658 11.55 11.325 30.137 17.091 55.224 17.091h97.515c25.037 0 43.653-5.755 55.193-17.091 11.53-11.294 17.418-30.382 17.418-51.446V78.973c.01-31.498-5.878-50.575-17.408-61.88zm-28.098 167.137c0 16.793-6.574 24.238-21.433 24.238l-108.882.031c-14.868 0-21.453-7.465-21.453-24.259v-7.998c0-16.773 6.574-24.238 21.453-24.238h130.315v32.226zM752.507.002v177.275c0 26.265-5.909 50.575-17.408 61.849-11.55 11.346-30.146 17.091-55.204 17.091H549.919v-47.76h135.65c14.847 0 21.441-7.465 21.441-24.248v-32.226H582.38c-25.079 0-43.674-5.714-55.236-17.06-11.52-11.305-17.398-30.382-17.398-56.668V.001h45.476v79.995c0 16.784 6.595 24.259 21.442 24.259h130.335V.001h45.506zm271.493 0v182.487c0 26.265-5.888 45.353-17.408 56.658-11.55 11.325-30.157 17.091-55.204 17.091h-97.515c-25.078 0-43.684-5.755-55.214-17.091-11.53-11.294-17.408-30.382-17.408-56.658V.002h45.476V184.23c0 16.793 6.595 24.238 21.453 24.238h108.882c14.848 0 21.453-7.444 21.453-24.238V.002h45.486z"/></svg>