<svg xmlns="http://www.w3.org/2000/svg" viewBox="0 0 1023.9970703125 207.93603515625"><path d="M129.946 44.198c-8.684-8.653-18.198-12.994-28.59-12.994-3.482 0-6.943.44-10.395 1.3-3.48.891-6.082 1.3-7.793 1.3-1.74 1.741-3.48 2.601-5.202 2.601-3.48 1.741-7.383 4.342-11.694 7.792-4.342 3.492-7.383 6.093-9.093 7.793l2.601-18.197H36.382c0 6.942-.88 12.135-2.6 15.596 0 6.942-.88 12.995-2.602 18.197L0 207.936h23.387l15.596-64.973c5.202 8.694 11.254 13.896 18.197 15.596 6.912 3.492 13.854 5.202 20.787 5.202h5.202c8.653 0 17.305-2.6 25.99-7.793 8.652-6.902 15.595-14.694 20.786-23.388 6.912-10.394 11.254-19.897 12.994-28.59 1.71-6.902 2.601-16.456 2.601-28.59-3.482-15.606-8.684-26-15.595-31.202zm-12.996 54.58c-3.48 10.393-6.942 19.087-10.394 25.988-3.48 6.942-8.683 12.135-15.596 15.596l-5.192 2.601c0 1.741-.88 2.601-2.6 2.601H72.773c-8.683 0-14.736-1.7-18.197-5.202-5.202-5.202-7.793-11.254-7.793-18.197V96.176c1.71-1.7 3.461-6.052 5.202-12.994 1.721-6.902 3.461-11.254 5.202-12.994 3.461-5.202 8.653-11.254 15.596-18.197 1.721 0 3.461-.399 5.202-1.3 1.71-.86 3.461-1.3 5.202-1.3 1.721-1.7 4.311-2.602 7.793-2.602 8.653 0 15.596 2.601 20.787 7.793 5.202 5.202 7.793 12.135 7.793 20.787-.01 10.414-.89 18.207-2.61 23.41zm140.35-57.18c-8.685-6.903-20.788-10.394-36.383-10.394h-12.994c-3.482 0-10.393 1.741-20.787 5.202-5.202 1.741-12.994 7.792-23.388 18.196-6.942 10.394-11.274 20.787-12.994 31.191-3.482 6.942-5.202 18.196-5.202 33.792 3.461 15.596 8.653 25.99 15.595 31.191 12.114 8.694 24.25 12.995 36.382 12.995h10.393c15.595-3.46 24.25-6.052 25.99-7.793 6.911-1.7 14.714-8.653 23.387-20.787 3.461-5.202 6.912-14.695 10.394-28.59 3.461-8.653 5.202-19.896 5.202-33.792-3.48-13.875-8.683-24.269-15.596-31.212zm-12.995 59.78c-5.202 13.895-8.684 22.538-10.393 25.99-5.202 8.693-10.393 13.895-15.595 15.595-1.74 1.741-5.202 2.601-10.393 2.601-1.74 1.741-4.342 2.601-7.792 2.601-8.684 0-15.595-2.6-20.787-7.793-5.202-5.202-7.792-11.254-7.792-18.197 0-12.103.86-21.647 2.601-28.59 3.461-10.393 6.912-19.047 10.393-25.989 3.461-8.653 7.792-13.855 12.994-15.596l10.393-5.202h10.393c6.912 0 13.855 1.741 20.787 5.202 5.202 5.202 7.792 12.135 7.792 20.787 0 12.134-.89 21.688-2.6 28.59zm124.754-64.972c-6.942-3.46-17.337-5.202-31.19-5.202-17.338 0-30.332 3.492-38.984 10.393-8.683 8.694-12.135 17.337-10.394 25.99 0 6.941 2.601 12.993 7.793 18.195 1.71 1.741 11.254 7.792 28.59 18.197 6.912 1.741 12.995 5.202 18.197 10.394 3.461 1.741 5.202 5.202 5.202 10.394 1.721 5.202 0 10.394-5.202 15.596-10.394 3.492-18.197 5.202-23.388 5.202-8.683 0-14.736-1.7-18.197-5.202-3.48 0-5.202-3.46-5.202-10.394v-5.202l2.601-5.202h-25.989c0 3.492-.88 6.093-2.6 7.793v7.793c3.46 10.394 7.792 17.337 12.994 20.787 10.394 5.202 21.647 7.793 33.782 7.793 17.305 0 32.041-4.3 44.185-12.995 10.394-6.902 15.596-16.455 15.596-28.59-1.74-5.202-4.342-11.254-7.793-18.197-3.48-3.46-13.875-9.502-31.19-18.197-12.136-6.902-19.078-11.254-20.788-12.994-1.74 0-2.6-.86-2.6-2.6l-2.602-5.203c0-5.202 2.601-9.502 7.793-12.995 3.461-3.46 9.513-5.202 18.197-5.202 6.912 0 12.114.901 15.596 2.601 3.461 3.492 5.202 6.942 5.202 10.394v7.803h23.388V57.162c0-8.622-4.342-15.565-12.995-20.756zm80.568 109.147h-7.793c-6.942 0-11.274-.86-12.995-2.6-1.74-1.7-2.6-4.302-2.6-7.794v-5.202c0-5.202.86-9.502 2.6-12.995l12.995-64.973h28.59l2.601-18.197h-25.989L454.829 0 428.84 5.202l-7.793 28.59H400.26l-5.202 18.197h23.388l-15.596 62.372c0 8.694-.88 14.736-2.6 18.197v10.404c0 8.694 2.6 13.896 7.792 15.596 6.912 3.492 13.854 5.202 20.787 5.202h10.394c1.71 0 3.901-.399 6.502-1.3 2.601-.86 4.752-1.3 6.502-1.3l5.192-18.198c-1.74 0-3.48.901-5.202 2.601h-2.59zm46.776-44.175h90.963c1.721-5.202 2.601-11.254 2.601-18.197V67.586c0-13.855-4.342-23.388-12.995-28.59-13.875-6.902-26.87-10.393-38.984-10.393h-5.202c-6.942 1.741-15.596 4.342-25.989 7.792-8.683 5.202-15.596 12.135-20.787 20.787-6.942 10.394-11.284 20.787-12.995 31.191-3.48 15.595-4.342 26.89-2.6 33.792 0 12.135 4.31 22.528 12.994 31.191 13.854 6.942 25.99 10.394 36.383 10.394h12.995c13.855-3.46 22.508-6.902 25.99-10.394 10.393-5.202 18.196-15.596 23.387-31.19h-28.59c-1.74 5.201-6.082 11.293-12.995 18.196h-5.202l-2.59 2.601c-1.742 1.741-5.203 2.601-10.395 2.601-8.683 0-15.596-2.6-20.787-7.793-5.202-1.7-7.793-7.793-7.793-18.197v-7.793c-.01-5.212.85-8.663 2.591-10.404zM514.6 54.592c3.461-5.202 9.513-8.653 18.197-10.393h5.202c8.653 0 15.596 2.601 20.787 7.792 5.202 3.492 7.793 8.694 7.793 15.596v5.202c0 3.492-.88 6.942-2.6 10.393h-62.373c0-13.855 4.311-23.388 12.994-28.59zm215.716-12.995c-6.942-6.902-16.476-10.393-28.59-10.393-10.394 0-17.337.901-20.787 2.601-1.74 1.741-3.48 2.601-5.202 2.601-3.48 1.741-8.683 6.093-15.596 12.994V33.805h-33.792c-3.48 8.694-6.082 21.69-7.793 38.983l-28.59 135.148h36.383l15.596-67.574c3.461 5.202 8.653 11.295 15.596 18.197 1.71 1.741 4.751 2.601 9.093 2.601 4.311 0 7.352.901 9.093 2.601h5.202c20.787 0 36.383-9.502 46.787-28.59 13.855-15.596 19.047-36.383 15.596-62.372 0-12.114-4.342-22.507-12.995-31.202zm-25.99 54.58c-3.48 10.393-6.942 18.196-10.394 23.387-1.74 5.202-5.202 10.394-10.394 15.596-3.48 1.741-6.082 2.601-7.793 2.601l-5.202 2.601c-5.202 0-10.394-2.6-15.596-7.793-3.48-6.902-6.082-12.995-7.793-18.197 0-15.595 3.461-29.45 10.394-41.584 5.202-10.394 11.254-16.456 18.197-18.197h7.793c6.912 0 12.114 1.741 15.596 5.202 3.461 3.492 5.202 8.694 5.202 15.595v20.787zm155.936-57.18c-10.394-5.202-23.388-7.792-38.984-7.792-6.942 0-11.274.901-12.995 2.601-10.394 0-19.077 2.601-25.989 7.792-10.394 5.202-15.596 13.896-15.596 25.99h36.383l2.601-5.203c1.721 0 2.601-.86 2.601-2.6 0-1.7.86-2.602 2.601-2.602 3.461-3.46 6.912-5.202 10.394-5.202h7.793l5.202 2.601c1.721 1.741 2.601 4.342 2.601 7.793v7.793c0 3.492-.88 6.942-2.6 10.393h-25.99c-22.538 3.492-37.274 7.792-44.186 12.994-12.135 6.942-18.197 19.087-18.197 36.383 3.461 12.135 7.793 19.938 12.995 23.388 6.912 6.942 15.596 10.394 25.99 10.394 6.911 0 13.854-1.7 20.786-5.202h2.601c5.202-1.7 10.394-6.902 15.596-15.596v18.186h33.792v-15.596c1.721-1.7 2.601-4.3 2.601-7.793 0-3.46.86-6.052 2.601-7.793l7.793-44.186c1.721-1.7 2.601-5.202 2.601-10.393V64.954c0-12.063-4.342-20.757-12.995-25.959zm-41.585 90.972c-3.48 1.741-6.942 4.342-10.394 7.793-1.74 1.741-5.202 2.601-10.394 2.601-5.202 0-8.683-.86-10.394-2.6-1.74-1.7-2.6-5.203-2.6-10.395-3.482-8.653 0-15.596 10.393-20.787 1.721-1.7 3.902-3 6.503-3.9 2.601-.86 4.751-1.3 6.503-1.3l5.202-2.602h15.596l2.601 2.601c-1.76 10.393-6.103 19.927-13.015 28.59zm168.94-96.164l-49.389 88.361-10.394-88.36H888.85l23.388 127.343-31.18 46.787h41.584l20.787-41.585 80.568-132.546z"/></svg>