<svg xmlns="http://www.w3.org/2000/svg" viewBox="0 0 366.00701904296875 401.99810791015625"><path d="M366.007 124.005c0 36.67-12 66.672-36.004 90-23.347 23.347-54.672 35-94.003 35h-96.993v33.997h144.998c1.997 0 4.004 1.004 6 3 1.997.666 3 2.673 3 6V329c0 2.673-1.004 4.67-3 6-1.997 1.997-4.004 3-6 3H139.006v55c0 2.672-.666 4.668-1.997 6-1.997 1.996-4.342 3-7.004 3H82c-1.997 0-4.004-1.005-6-3-1.997-1.332-3-3.329-3-6v-55H9c-2.673 0-4.67-1.004-6-3-1.997-1.33-3-3.328-3-6v-36.997c0-3.328 1.003-5.335 3-6 1.331-1.997 3.328-3 6-3h64v-33.997H9c-2.673 0-4.67-.656-6-1.997-1.997-1.997-3-4.332-3-7.004V198c0-2.652 1.003-4.997 3-7.004 1.331-1.997 3.328-3 6-3h64V9.001c0-2.652 1.003-4.997 3-7.004C77.331.667 79.328 0 82 0h154c39.332 0 70.656 11.346 94.003 33.997 24.003 24.013 36.004 54.006 36.004 90.01zm-68.004 0c0-18.658-6-33.997-18.002-45.998-13.342-12.002-29.665-18.002-48.999-18.002h-91.996v128h91.997c20.654 0 36.997-5.653 49-16.999 12-12.002 18.001-27.658 18.001-47.002z"/></svg>