<svg xmlns="http://www.w3.org/2000/svg" viewBox="0 0 1023.9790649414062 279.83905029296875"><path d="M227.492 89.261H157.43c0-11.5-1.35-19.21-4.045-23.143-4.167-5.806-15.678-8.724-34.509-8.724-18.299 0-30.423 1.669-36.33 5.028-5.919 3.369-8.879 10.67-8.879 21.924 0 10.189 2.621 16.906 7.885 20.112 3.77 2.284 8.745 3.625 14.94 4.024l14.131 1.003c30.29 2.007 49.203 3.42 56.74 4.229 23.952 2.417 41.308 8.775 52.081 19.097 8.478 8.059 13.527 18.575 15.145 31.57.942 7.772 1.413 16.579 1.413 26.348 0 22.528-2.15 39.024-6.45 49.48-7.804 19.19-25.335 31.303-52.594 36.393-11.428 2.15-28.898 3.226-52.409 3.226-39.239 0-66.58-2.335-82.022-7.024-18.944-5.745-31.447-17.398-37.489-34.939C1.669 228.096 0 211.835 0 189.061h70.062c0 2.539.01 4.485.01 5.827 0 12.155 3.492 19.958 10.466 23.439 4.834 2.396 10.66 3.656 17.511 3.81h25.764c13.148 0 21.534-.676 25.15-2.028 6.441-2.529 10.67-6.605 12.688-12.247 1.075-3.481 1.607-7.966 1.607-13.466 0-12.318-4.495-19.815-13.476-22.508-3.369-1.054-18.985-2.55-46.868-4.413-22.405-1.607-37.97-3.144-46.674-4.639-22.938-4.29-38.226-13.117-45.855-26.511C3.678 124.949.329 107.725.329 84.684c0-17.541 1.813-31.611 5.438-42.189 3.625-10.588 9.462-18.616 17.531-24.115C35.104 9.942 50.229 4.986 68.62 3.512c15.31-1.341 32.286-2.017 50.975-2.017 29.41 0 50.361 1.69 62.853 5.038 30.494 8.192 45.732 31.14 45.732 68.843-.01 3.082-.236 7.711-.686 13.886zm308.111 190.577V0h140.318c19.251 0 33.925 1.566 44.022 4.71 23.081 7.229 38.564 22.036 46.49 44.411 4.086 11.745 6.144 29.43 6.144 53.033 0 28.385-2.274 48.784-6.769 61.204-9 24.556-27.525 38.707-55.49 42.373-3.287.553-17.285 1.034-41.994 1.444l-12.493.409h-44.903v72.254h-75.326zm75.315-137.164h46.951c14.89-.533 23.941-1.68 27.197-3.472 4.455-2.447 7.444-7.352 8.93-14.695.951-4.894 1.422-12.165 1.422-21.822 0-11.837-.942-20.613-2.846-26.337-2.703-8.028-9.196-12.913-19.466-14.695-2.038-.266-6.902-.41-14.612-.41h-47.575v81.428zm322.417 88.801h-100.7l-13.527 48.364h-77.916L825.273.01h113.602l85.104 279.829h-76.278l-14.366-48.364zm-14.96-54.518L883.088 55.654l-34.242 121.303h69.53zM431.646 40.57c29.604 0 57.324 13.23 76.073 36.281l1.21 1.495.818-1.741 16.23-34.806.36-.788-.626-.604C499.026 15.186 463.903 1.29 426.824 1.29c-28.959 0-56.822 8.458-80.579 24.473-23.204 15.626-41 37.366-51.466 62.853l1.106-.748h-32.43l-.317.697-19.487 41.79h42.61l-1.199-1.31c-.338 4.167-.502 7.864-.502 11.336 0 4.496.236 9.124.697 13.742l1.198-1.321h-21.228l-.317.697-18.698 40.08-.788 1.71h51.446l-1.106-.727c22.344 51.569 73.8 84.889 131.072 84.889 28.713 0 56.382-8.325 80.036-24.084l.522-.348v-52.971l-2.099 2.396c-18.658 21.248-45.496 33.423-73.646 33.423-33.106 0-63.774-16.62-82.032-44.452l-1.003 1.863h104.55l.317-.686 19.497-41.8H333.346l1.188 1.024a100.178 100.178 0 0 1-1.075-14.602c0-3.298.164-6.646.502-9.953l-1.198 1.085h150.682l.317-.696 18.688-40.08.81-1.71H345.716l1.034 1.802c17.562-30.279 50.094-49.09 84.9-49.09zm-85.923 49.706h155.648l-1.096-1.71-18.678 40.08 1.086-.696H331.685l-.123 1.085a102.968 102.968 0 0 0 .594 25.15l.164 1.024h138.783l-1.086-1.71-18.688 40.08 1.075-.697H346.389l1.23 1.853c18.697 28.529 50.124 45.538 84.038 45.538 28.836 0 56.341-12.472 75.46-34.232l-2.11-.788v49.121l.532-.994c-23.255 15.493-50.462 23.675-78.695 23.675-56.33 0-106.906-32.758-128.86-83.446l-.317-.717h-50.35l1.095 1.721 18.678-40.09-1.096.697h21.791l-.123-1.321c-.45-4.526-.697-9.083-.697-13.496 0-3.399.164-7.045.502-11.131l.103-1.3h-42.035l1.085 1.71 18.698-40.08-1.086.697h32.471l.297-.748c10.291-25.047 27.791-46.397 50.596-61.767 23.358-15.729 50.76-24.054 79.237-24.054 36.464 0 70.994 13.65 97.23 38.451l-.267-1.382-16.22 34.816 2.017-.256c-19.22-23.613-47.616-37.171-77.947-37.171-35.676 0-68.987 19.271-86.978 50.299l-1.045 1.802h2.1z"/></svg>