<svg xmlns="http://www.w3.org/2000/svg" viewBox="0 0 1024.001953125 283.67901611328125"><path d="M260.721 40.551c20.818-24.79 52.02-40.54 86.917-40.54h77.855v56.74h-77.855c-17.459 0-33.055 7.875-43.459 20.255L164.772 243.13c-20.818 24.771-52.019 40.54-86.917 40.54H0v-56.74h77.855c17.44 0 33.034-7.875 43.448-20.275L260.72 40.551zM482.212.001h59.566V283.67h-59.566V.001zm281.077 40.55l47.975 57.17 47.975-57.17c20.798-24.79 52.02-40.54 86.917-40.54H1024v56.74h-77.833c-17.459 0-33.054 7.875-43.458 20.255l-54.415 64.83 54.405 64.828c10.404 12.39 26 20.275 43.458 20.275h77.845v56.74h-77.835c-34.898 0-66.12-15.769-86.917-40.54l-47.975-57.17-47.975 57.17c-20.818 24.77-52.039 40.54-86.917 40.54h-77.855v-56.75h77.855c17.438 0 33.034-7.875 43.448-20.275l54.395-64.819-54.405-64.83c-10.404-12.38-26-20.255-43.448-20.255h-77.845V.01h77.855c34.878-.01 66.1 15.75 86.907 40.54z"/></svg>