<svg xmlns="http://www.w3.org/2000/svg" viewBox="0 0 329.1318664550781 402.28900146484375"><path d="M128 402.289H82.31c-5.162 0-9.166-3.994-9.166-9.165v-174.53l-61.44 18.832c-.829.286-1.71.286-2.539.286-2.038 0-3.748-.543-5.458-1.71C1.413 234.251 0 231.425 0 228.588v-36.567c0-3.994 2.58-7.454 6.584-8.868l66.56-20.285v-26.573l-61.44 18.832c-.829.338-1.71.338-2.539.338-2.038 0-3.748-.584-5.458-1.751C1.413 152.004 0 149.137 0 146.3v-36.567c0-3.993 2.58-7.414 6.584-8.827l66.56-20.327V9.165C73.144 4.004 77.137 0 82.309 0H128c5.12 0 9.124 3.993 9.124 9.165v51.691L244.296 27.74c2.54-.87 5.703-.338 7.997 1.413 2.294 1.71 3.707 4.577 3.707 7.414v36.577c0 3.994-2.58 7.414-6.585 8.827l-112.292 34.57v26.573l107.172-33.106c2.54-.87 5.703-.286 7.997 1.413 2.294 1.71 3.707 4.577 3.707 7.454v36.567c0 3.993-2.58 7.414-6.585 8.827l-112.292 34.57v139.12c71.424-4.823 128.03-64.215 128.03-136.817 0-5.12 3.994-9.124 9.124-9.124h45.691c5.161 0 9.165 3.994 9.165 9.124 0 110.838-90.297 201.144-201.134 201.144z"/></svg>