<svg xmlns="http://www.w3.org/2000/svg" viewBox="0 0 909.302001953125 409.59912109375"><path d="M454.368 321.658H4.035c-4.025 0-4.035 0-4.035-3.952V3.83C0 0 0 0 3.891 0h900.936c3.902 0 3.902 0 3.902 3.82 0 104.714 0 209.429-.01 314.142 0 4.281.583 3.687-3.748 3.687-150.21.01-300.41.01-450.6.01zM77.72 44.195l.81.092c.685 4.618 1.402 9.226 2.057 13.855.778 5.499 1.485 11.008 2.263 16.507.614 4.382 1.29 8.745 1.946 13.118.542 3.687 1.065 7.383 1.65 11.07.296 1.853.347 1.863 2.354 1.874 3.042.021 6.083.01 9.134.01 7.998 0 16.005.01 24.002-.01 2.13 0 2.13-.03 2.581-2.038.553-2.447 1.137-4.894 1.66-7.352 1.72-8.059 3.398-16.138 5.13-24.197 1.402-6.533 2.876-13.046 4.29-19.568 1.31-6.021 2.59-12.063 3.881-18.084a7060.877 7060.877 0 0 1 3.298-15.268c.226-1.034-.123-1.413-1.178-1.403-9.134.021-18.258.031-27.392 0-1.25 0-1.833.379-1.987 1.741-.46 4.229-1.065 8.438-1.638 12.656-1.485 11.008-2.97 22.026-4.506 33.024-.348 2.498-.89 4.976-1.413 7.823-.389-.573-.614-.758-.645-.973-.91-5.468-1.853-10.936-2.673-16.414-1.35-9.011-2.6-18.043-3.91-27.065-.452-3.092-1.025-6.174-1.394-9.267-.154-1.25-.645-1.679-1.813-1.536-.338.041-.696 0-1.044 0-10.005 0-19.999 0-30.003.01-.604 0-1.26-.112-1.813.072-.492.164-1.014.574-1.26 1.024-.276.502-.266 1.168-.348 1.772-.584 4.126-1.136 8.254-1.75 12.37-.769 5.15-1.639 10.281-2.397 15.432-.963 6.523-1.843 13.056-2.826 19.579-.256 1.68-.737 3.318-1.106 4.977a26.628 26.628 0 0 1-1.546-6.093c-.86-6.185-1.628-12.38-2.457-18.576-1.27-9.543-2.58-19.087-3.86-28.631-.247-1.853-.206-1.894-2.182-1.904-8.868-.021-17.736-.021-26.603-.01-1.915 0-1.977.051-1.608 1.863 1.22 5.95 2.457 11.899 3.748 17.828 1.608 7.373 3.297 14.736 4.915 22.108 1.26 5.755 2.437 11.53 3.676 17.296.788 3.646 1.67 7.271 2.448 10.926 1.177 5.519 2.294 11.049 3.42 16.579.184.911.615 1.392 1.577 1.321.43-.03.871 0 1.3 0H66.6c.522 0 1.096.123 1.556-.041.492-.174 1.014-.553 1.27-.994.287-.502.338-1.157.42-1.762 1.177-8.601 2.324-17.193 3.522-25.795a1805.98 1805.98 0 0 1 3.062-21.115c.327-2.304.85-4.557 1.29-6.83zm348.16 127.641c-.215.021-.44.031-.656.051-.748-1.822-1.567-3.615-2.233-5.468-1.69-4.731-3.308-9.493-4.966-14.244-3.635-10.384-7.28-20.767-10.906-31.16-.666-1.905-.727-2.038-2.755-2.038-12.514-.01-25.037-.01-37.56 0-1.792 0-1.822.051-1.843 1.956-.03 3.389-.01 6.779-.01 10.168v73.022c0 2.489.021 2.519 2.375 2.519 7.741.01 15.473.01 23.214 0 1.997 0 1.997-.041 2.058-2.018.01-.256.01-.522.01-.778 0-15.125-.01-30.249.021-45.383 0-1.7.256-3.389.39-5.089 1.064 1.403 1.801 2.857 2.354 4.373a1292.097 1292.097 0 0 1 5.356 15.186c3.584 10.322 7.137 20.644 10.701 30.976.942 2.734.932 2.744 3.82 2.744h35.471c3.44 0 3.175.461 3.185-3.236.01-25.293 0-50.596 0-75.888 0-2.171.051-4.342 0-6.523-.04-1.976-.092-2.018-2.068-2.018-7.824-.02-15.647-.02-23.47-.01-2.263 0-2.294.03-2.294 2.314-.01 15.381 0 30.771-.01 46.152.01 1.464-.113 2.928-.185 4.393zM688.802 47.43c.184-.02.37-.051.553-.072.533 1.239 1.136 2.458 1.577 3.728 1.966 5.642 3.87 11.315 5.837 16.968 3.594 10.312 7.25 20.603 10.803 30.935.441 1.28.994 1.762 2.355 1.762 12.524-.051 25.047-.021 37.571-.031 1.956 0 1.997-.041 1.997-2.038.02-6.43.01-12.872.01-19.303 0-21.31 0-42.608-.01-63.918 0-2.632-.03-2.642-2.57-2.652-7.567-.01-15.135-.01-22.692 0-2.304.01-2.335.041-2.335 2.284-.01 7.649-.01 15.309-.01 22.958 0 8.172.01 16.353-.01 24.525 0 1.065.215 2.202-.768 3.441-.533-1.116-.994-1.936-1.31-2.796-.789-2.11-1.516-4.25-2.264-6.38-2.56-7.281-5.13-14.551-7.69-21.832-2.407-6.861-4.843-13.721-7.188-20.603-.399-1.157-.87-1.639-2.16-1.628-12.524.051-25.047.02-37.57.041-2.11 0-2.12.061-2.12 2.263v58.695c0 8.346-.01 16.691.01 25.047 0 1.843.04 1.884 1.853 1.894 7.915.02 15.831.02 23.736 0 2.007 0 2.018-.041 2.078-2.028.02-.696.01-1.392.01-2.089-.01-15.309-.03-30.608-.02-45.916 0-1.085.215-2.171.327-3.256zm.052 105.933l.573-.061c.697 1.843 1.413 3.666 2.078 5.519 1.884 5.223 3.78 10.425 5.601 15.667 3.441 9.912 6.81 19.845 10.27 29.747.85 2.427.307 2.427 3.481 2.427h35.737c.522 0 1.044-.021 1.567-.01.83.01 1.321-.338 1.331-1.219.01-.43.02-.87.02-1.3 0-27.566.01-55.122 0-82.688 0-2.437-.03-2.458-2.447-2.458-7.475-.01-14.95-.01-22.436-.01-3 0-2.745-.174-2.745 2.887 0 14.776 0 29.563-.01 44.339 0 1.3.02 2.611-.05 3.911-.03.502-.288 1.004-.442 1.505-.973-1.157-1.536-2.314-1.966-3.512-1.362-3.758-2.673-7.527-3.994-11.295-1.864-5.305-3.748-10.619-5.6-15.923a3813.98 3813.98 0 0 1-7.077-20.398c-.389-1.127-.9-1.577-2.232-1.577-12.35.082-24.688.061-37.038.061-2.642 0-2.652-.01-2.652 2.54l-.03 82.678c0 2.437.02 2.458 2.468 2.458 7.567.01 15.125.01 22.692 0 2.52 0 2.52-.01 2.53-2.601v-1.566c0-15.042-.01-30.085.01-45.127.02-1.321.235-2.652.358-3.993zM616.59 56.431c-.01-.174-.01-.348-.02-.522 1.362-.532 2.713-1.065 4.076-1.597 6.513-2.53 10.855-6.942 12.278-13.968.83-4.075.604-8.069-.348-12.114-1.239-5.274-4.423-8.899-9.02-11.49-2.847-1.598-5.95-2.488-9.125-2.877-4.3-.533-8.643-.962-12.974-1.014-11.479-.133-22.948-.041-34.427-.041-4.526 0-9.042-.02-13.568.01-1.73.01-1.73.061-1.802 1.741-.02.43 0 .87 0 1.3v81.122c0 .696.041 1.392-.01 2.089-.082 1.209.38 1.68 1.65 1.669 10.086-.041 20.172-.01 30.258-.031 1.741 0 1.771-.082 1.854-1.72.03-.604.01-1.219.01-1.822-.04-8.776-.082-17.551-.144-26.327-.01-1.209.461-1.813 1.69-1.721 2.16.154 4.341.164 6.461.533 2.867.491 4.557 2.304 5.008 5.233.604 3.942 1.198 7.885 1.874 11.827.665 3.932 1.362 7.854 2.171 11.755.471 2.274.573 2.263 2.95 2.274 9.563.01 19.128.01 28.691 0 .665 0 1.321-.102 2.12-.174-.144-.768-.226-1.362-.379-1.946-1.75-6.83-2.59-13.814-3.44-20.787-.39-3.184-.769-6.38-1.476-9.502-1.35-5.95-4.956-9.769-11.12-10.937-1.116-.226-2.17-.645-3.236-.962zm-280.525 94.618h.051c0-9.913.01-19.825-.01-29.737 0-2.284-.03-2.294-2.294-2.334-.697-.01-1.392 0-2.089 0-9.39 0-18.78-.01-28.17-.01-1.669 0-1.71 0-1.72 1.669-.032 3.308-.022 6.605-.022 9.913 0 14.951.031 29.911-.04 44.862-.01 1.966-.277 4.004-.86 5.878-.994 3.154-3.309 4.649-6.452 4.649-2.949 0-5.099-1.556-6.37-4.464-.973-2.222-1.024-4.557-1.024-6.902v-50.596c0-.952.021-1.915 0-2.867-.04-2.048-.05-2.048-1.986-2.109-.174-.01-.348 0-.522 0h-29.47c-.349 0-.698-.021-1.046 0-.85.03-1.26.481-1.26 1.321 0 .522-.01 1.045-.01 1.566 0 17.992-.01 35.994.021 53.986 0 2.171.113 4.352.39 6.502 1.3 9.953 6.41 17.173 15.502 21.607 6.031 2.939 12.411 4.301 19.036 4.7 6.072.358 12.155.461 18.197-.461 5.253-.798 10.342-2.099 15.104-4.588 9.974-5.212 14.704-13.671 14.991-24.648.236-9.328.051-18.637.051-27.935zm252.385 57.775c8.386.164 15.851-1.096 22.928-4.322 6.206-2.826 11.294-7.076 15.145-12.667 5.07-7.342 7.28-15.719 7.895-24.484.502-7.127-.092-14.213-2.058-21.135-2.294-8.059-6.492-14.951-12.964-20.275-5.949-4.894-13.005-7.577-20.552-8.643-7.577-1.075-15.196-1.044-22.754.707-9.43 2.181-17.285 6.574-23.275 14.448-3.89 5.13-6.164 10.834-7.639 16.906-1.383 5.673-1.577 11.53-1.218 17.357.645 10.424 3.338 20.121 10.312 28.262 3.502 4.086 7.68 7.28 12.554 9.462 7.076 3.185 14.53 4.649 21.627 4.382zM270.652 74.188v-.02h-13.824c-.604 0-1.219 0-1.822.02-.768.031-1.106.502-1.024 1.209.522 4.311 1.188 8.591 3.471 12.421 4.485 7.516 11.52 11.285 19.681 13.291 5.161 1.27 10.425 1.813 15.74 1.854 9.614.071 19.066-.768 27.944-4.874 4.966-2.294 9.144-5.55 12.012-10.302 3.43-5.703 4.577-11.868 3.83-18.473-.676-5.97-3.185-10.906-7.71-14.838-4.292-3.728-9.514-5.652-14.828-7.219-6.738-1.976-13.568-3.635-20.327-5.519-1.567-.44-3.154-1.075-4.526-1.935-3.195-2.007-3.123-6.502.144-8.356 1.23-.697 2.745-.983 4.178-1.239 1.096-.195 2.253-.072 3.38-.031 3.532.123 5.426 1.69 6.276 5.099.543 2.192.543 2.192 2.837 2.192h18.258c2.786 0 5.56-.02 8.346.01 1.003.01 1.382-.389 1.372-1.392-.082-5.284-1.628-10.076-4.925-14.213-4.885-6.113-11.755-8.673-19.087-10.096-4.68-.911-9.452-1.167-14.254-1.147-8.243.041-16.28 1.055-23.9 4.27-6.164 2.601-11.049 6.738-13.947 12.912-2.17 4.618-2.457 9.513-2.11 14.521.461 6.779 3.502 12.093 9.042 15.943 3.082 2.14 6.584 3.379 10.19 4.393a1028.91 1028.91 0 0 1 18.226 5.345c2.652.799 5.315 1.598 7.844 2.704 3.952 1.731 4.915 6.462 2.14 9.728-2.755 3.246-6.359 3.686-10.199 2.837-3.81-.839-5.61-3.554-6.01-7.271-.196-1.771-.287-1.884-2.315-1.874-4.71.072-9.4.051-14.1.051zm187.607-17.531v35.728c0 2.171-.02 4.342.01 6.523.03 1.751.062 1.751 1.7 1.813.604.021 1.218.01 1.822.01h58.675c1.218 0 2.437.021 3.655-.01 1.731-.051 1.782-.071 1.802-1.761.041-2.786.01-5.561.01-8.346 0-3.481.02-6.953-.01-10.434-.01-1.669-.05-1.68-1.782-1.741-.522-.021-1.044 0-1.567 0H494.67c-.697 0-1.393-.031-2.089 0-1.096.041-1.567-.461-1.546-1.566.041-1.741-.01-3.482 0-5.212.041-4.229-.502-3.789 3.717-3.799 8.254-.021 16.517 0 24.77-.01 2.478-.01 2.5-.051 2.52-2.457.02-3.133.01-6.256 0-9.39 0-2.867.02-5.735-.02-8.601-.03-1.833-.093-1.843-1.947-1.915-.43-.021-.87 0-1.3 0H494.26c-.604 0-1.218-.01-1.822 0-.994.01-1.403-.512-1.403-1.464.01-2.171-.02-4.342 0-6.523.02-2.017.051-2.058 2.018-2.068 4.168-.021 8.346-.01 12.514-.01 5.653 0 11.294.02 16.947-.01 2.018-.01 2.304-.236 2.314-1.945.041-6.257.041-12.514 0-18.78-.01-1.659-.236-1.782-1.802-1.864-.348-.02-.697.01-1.044.01-20.255 0-40.51-.01-60.764-.01-3.082 0-3.01-.389-3 2.908.041 13.639.041 27.289.041 40.929zm-293.909.071v8.346c0 11.131-.01 22.251.01 33.382 0 2.212.041 2.263 2.11 2.263 21.124.01 42.25.01 63.374 0 2.017 0 2.058-.041 2.068-1.997.031-4.864.01-9.738.01-14.602 0-1.392-.04-2.786 0-4.167.031-1.127-.48-1.577-1.567-1.506-.604.041-1.219 0-1.822 0h-24.514c-1.74 0-3.48-.031-5.212 0-1.126.021-1.546-.492-1.526-1.577.03-1.741-.03-3.481-.01-5.212.041-4.27-.532-3.779 3.697-3.799 8.346-.03 16.691 0 25.037-.03 2.427-.01 2.498-.103 2.498-2.53.021-5.826.021-11.653-.02-17.469-.01-2.284-.073-2.294-2.356-2.345-.43-.01-.87 0-1.3 0h-24.259c-.604 0-1.219-.01-1.822-.01-.942.021-1.464-.379-1.464-1.382.02-2.519.02-5.038.02-7.567 0-.738.338-1.137 1.085-1.147.522-.01 1.045.031 1.567.031 9.472 0 18.954.01 28.426.01 2.488 0 2.498-.01 2.498-2.632.01-4.608 0-9.216 0-13.824 0-1.475-.03-2.96.01-4.434.031-1.219-.522-1.762-1.72-1.71-.43.02-.87 0-1.3 0h-60.509c-.522 0-1.044.03-1.566 0-1.024-.062-1.413.471-1.413 1.403 0 .604-.01 1.218-.01 1.822-.02 13.558-.02 27.115-.02 40.683zm231.323-43.919h-1.822c-11.469 0-22.948.01-34.416 0-3.46 0-2.786.348-2.796 2.887-.03 6.082-.02 12.165-.01 18.248.01 2.017.051 2.058 2.048 2.068 5.386.021 10.783.01 16.17.01 3.982 0 3.675-.307 3.675 3.635v58.665c0 2.375.021 2.396 2.406 2.396 9.472.01 18.944.01 28.426 0 3.748-.01 3.451.399 3.451-3.553 0-19.385-.01-38.769 0-58.143 0-2.98.021-2.99 3.031-2.99 5.478-.01 10.947.01 16.425-.01 2.274-.01 2.416-.112 2.427-2.314.031-6.349.031-12.688 0-19.036-.01-1.741-.072-1.761-1.72-1.843-.605-.031-1.22-.01-1.823-.01-11.827-.01-23.654-.01-35.47-.01zM517.59 162.968V122.53c0-.522.01-1.045 0-1.567-.05-1.915-.05-1.915-1.843-1.986-.43-.021-.87 0-1.3 0h-27.915c-3.502 0-3.246-.266-3.246 3.236v81.408c0 .522.01 1.044.01 1.567.01.942.441 1.464 1.413 1.464.604 0 1.218.01 1.822.01h25.836c1.218 0 2.437-.072 3.655.021 1.311.092 1.71-.502 1.587-1.7-.04-.43-.01-.87-.01-1.3-.01-13.578-.01-27.146-.01-40.714zm257.085-54.589v89.457c0 1.997.051 4.004.01 6-.03 1.198.37 1.751 1.65 1.71 1.821-.072 3.654 0 5.478-.01 3.41-.031 3.236.44 3.236-3.215V15.574c0-.778-.04-1.567 0-2.345.051-1.075-.359-1.577-1.505-1.556-2.437.051-4.874.051-7.3-.01-1.137-.031-1.547.461-1.537 1.536.02 2.171-.03 4.342-.03 6.512v88.668zm78.715 1.045v92.621c0 .43-.01.87 0 1.3.051 1.741.051 1.772 1.721 1.792 2.263.031 4.526.021 6.78-.021 1.72-.031 1.72-.062 1.781-1.741.02-.43 0-.87 0-1.3V18.656c0-.87 0-1.741-.01-2.611-.03-2.457-.04-2.468-2.386-2.488-1.567-.021-3.134-.01-4.7-.01-3.809-.01-3.184-.062-3.184 3.246v92.631zm43.213-85.668c.236-6.011-4.669-11.377-11.029-11.377-6.738 0-11.346 4.915-11.346 11.038 0 6.154 3.994 11.079 11.038 11.407 6.093.287 11.305-4.966 11.336-11.069zM500.695 383.887c4.516 1.761 6.861 5.192 8.868 8.899 2.274 4.198 4.393 8.478 6.595 12.718.277.522.594 1.024 1.086 1.864.563-1.362 1.044-2.427 1.454-3.523a60014.813 60014.813 0 0 0 18.073-48.251c.86-2.294.86-2.304 3.308-2.304 4.782-.01 9.564.041 14.346-.03 1.403-.021 2.15.338 2.683 1.771 6.36 17.162 12.8 34.284 19.21 51.426.174.481.287.983.461 1.618-.697.082-1.28.205-1.874.205-4.7.02-9.39.02-14.09 0-1.904-.01-1.925-.031-2.519-1.864-.583-1.813-1.116-3.645-1.669-5.468-.266-.901-.686-1.444-1.802-1.433-5.304.062-10.609.051-15.913 0-1.157-.01-1.74.42-2.038 1.505-.543 2.007-1.229 3.973-1.74 5.99-.267 1.054-.82 1.444-1.834 1.392-.43-.02-.87 0-1.3 0-10.435 0-20.87-.041-31.304.041-1.884.01-2.98-.522-3.85-2.253-2.468-4.885-5.13-9.666-7.73-14.469a36.734 36.734 0 0 0-1.885-3.113c-.809-1.188-1.936-1.935-3.348-2.324-2.785-.778-3.144-.533-3.154 2.406-.01 5.735.01 11.479-.01 17.214-.01 2.345-.03 2.375-2.253 2.386-4.352.021-8.694.021-13.046 0-1.966-.01-2.007-.041-2.007-2.038-.02-5.652-.01-11.305-.01-16.957v-32.604c0-.697.03-1.393.01-2.089-.02-.839.287-1.321 1.198-1.29.522.02 1.044-.01 1.567-.01 9.657 0 19.303-.041 28.958.03 2.16.01 4.352.205 6.462.635 7.291 1.485 11.06 6.677 11.458 13.568.441 7.527-3.543 13.302-10.67 15.739-.512.144-.983.338-1.689.615zm-20.08-14.029h.101c0 1.392.01 2.785 0 4.168 0 .717.246 1.136 1.044 1.157 3.481.092 6.953.041 10.322-.932 2.324-.665 3.84-2.652 3.594-4.803-.297-2.56-1.413-4.045-3.973-4.464-1.874-.307-3.799-.389-5.693-.389-1.7-.01-3.41.226-5.11.348-.092 1.639-.194 3.277-.287 4.915zm66.191-1.424c-1.946 6.482-3.758 12.472-5.61 18.658h11.325c-1.864-6.082-3.687-12.032-5.714-18.658zM101.15 384.92l5.837-22.917c.594-2.355 1.198-4.7 1.762-7.056.276-1.147.81-1.7 2.13-1.689 6.35.072 12.688.02 19.036.041 1.72.01 1.731.062 1.782 1.741.03 1.127.01 2.263.01 3.389v46.684c0 .697-.02 1.392-.02 2.089 0 .768-.41 1.075-1.137 1.075-3.994-.01-7.998 0-11.99-.01-.749 0-1.096-.389-1.096-1.127 0-.697-.02-1.392-.02-2.089v-34.939c-.092-.02-.195-.041-.286-.062-.86 3.287-1.75 6.574-2.59 9.882-2.17 8.571-4.31 17.142-6.47 25.712-.124.502-.339.993-.42 1.495-.144.86-.667 1.136-1.465 1.136-3.564 0-7.127-.01-10.69 0-1.167 0-1.362-.809-1.587-1.689-1.014-4.034-2.078-8.048-3.093-12.083-1.976-7.813-3.932-15.626-5.898-23.449-.123-.491-.338-.962-.727-2.038v36.096c0 .697-.02 1.392-.02 2.089 0 .768-.41 1.065-1.137 1.065-3.994-.01-7.998 0-11.99-.01-.749 0-1.097-.399-1.097-1.137 0-.604-.02-1.218-.02-1.822v-49.029c0-3.174-.266-2.99 2.928-2.99 5.827 0 11.653-.01 17.47 0 2.191 0 2.212.021 2.765 2.161 2.437 9.482 4.864 18.964 7.291 28.447.082.317.226.625.338.942.143.041.276.062.41.092zm140.493-2.242v-26.389c0-3.185-.276-3 2.908-3.01 3.481 0 6.953-.01 10.435 0 3.358.01 3-.317 3 3.144.01 10.087 0 20.173 0 30.259 0 6.523.01 13.046-.01 19.558-.01 1.986-.04 2.017-2.017 2.027-4.086.021-8.17-.062-12.257.041-1.495.041-2.365-.502-3.175-1.71-5.366-8.018-10.793-15.985-16.21-23.962-.666-.983-1.362-1.945-2.447-2.775v25.211c0 .604-.03 1.219-.01 1.822.031 1.004-.47 1.383-1.433 1.383-2.959-.021-5.909 0-8.868 0-1.567 0-3.134-.031-4.69 0-1.003.02-1.413-.441-1.382-1.413.021-.697 0-1.393 0-2.089-.02-16.61-.02-33.208-.082-49.817 0-1.25.317-1.71 1.577-1.7 4.26.041 8.52.082 12.78-.021 1.412-.03 2.221.502 2.968 1.618 3.175 4.772 6.4 9.513 9.615 14.264 2.775 4.096 5.56 8.192 8.346 12.288.185.286.4.543.952 1.27zm356.475-2.816v25.15c0 .604-.02 1.218-.01 1.822.03.952-.359 1.444-1.372 1.444-4.516-.02-9.042-.02-13.558 0-.942 0-1.495-.307-1.444-1.331.02-.522-.01-1.044-.01-1.567v-49.275c0-.256-.01-.522 0-.778.062-1.986.062-2.017 2.048-2.038 4.086-.03 8.172.062 12.247-.041 1.423-.041 2.222.543 2.95 1.649 3.173 4.772 6.4 9.513 9.614 14.254 2.775 4.096 5.561 8.192 8.336 12.288.184.276.4.522.952 1.239v-25.856c0-.522-.01-1.044 0-1.567.062-1.894.062-1.904 1.854-1.956 1.044-.03 2.09-.01 3.123-.01h8.868c2.652 0 2.49-.092 2.5 2.611v49.796c0 2.713.143 2.591-2.51 2.591-3.819 0-7.649-.082-11.469.041-1.669.051-2.663-.481-3.605-1.894-5.294-7.957-10.69-15.831-16.057-23.736-.665-.983-1.372-1.945-2.058-2.928-.123.031-.266.062-.399.092zm245.371 4.055c4.034 1.341 6.308 4.26 8.1 7.434 2.898 5.13 5.468 10.455 8.162 15.708.144.287.184.625.36 1.219h-3c-4.783 0-9.565-.051-14.337.03-1.423.031-2.192-.471-2.837-1.7-2.519-4.844-5.13-9.657-7.73-14.459a45.33 45.33 0 0 0-2.15-3.563c-1.087-1.639-2.746-2.355-4.619-2.591-1.526-.194-1.854.082-1.864 1.649-.03 5.305.01 10.599-.03 15.903-.01 1.454-.174 2.908-.266 4.362-1.526.123-3.052.327-4.577.359-3.47.051-6.953.03-10.424.01-1.976-.01-2.018-.041-2.018-2.028-.02-7.301-.01-14.602-.01-21.904v-27.894c0-.604.041-1.218 0-1.822-.062-1.034.471-1.382 1.423-1.331.522.031 1.044 0 1.567 0 9.472 0 18.944-.062 28.416.041 2.581.03 5.161.471 7.721.911 5.018.87 10.19 5.346 10.527 13.466.317 7.567-3.594 13.107-10.855 15.586-.42.133-.819.307-1.557.615zm-19.927-14.09c.01 1.392.01 2.785 0 4.168 0 .686.174 1.178 1.004 1.198 3.563.082 7.138.112 10.578-.983 2.15-.686 3.605-2.642 3.38-4.711-.257-2.396-1.209-4.147-3.943-4.475-3.256-.389-6.574-.317-9.87-.44-.933-.031-1.179.522-1.169 1.331.03 1.3.02 2.601.02 3.911zm-655.647 39.772c-2.57-.379-5.775-.645-8.899-1.331-8.878-1.935-14.489-7.67-17.296-16.046-2.55-7.609-2.437-15.401.071-23.04 2.94-8.96 9.38-14.254 18.422-16.261 5.55-1.229 11.254-1.198 16.825.03 10.087 2.233 16.61 8.387 18.975 18.524 1.65 7.056 1.566 14.183-.707 21.095-3.02 9.154-9.564 14.459-18.975 16.189-2.55.471-5.17.533-8.417.84zm12.053-29.01l-.276-.062c-.092-1.731-.092-3.471-.317-5.192-.154-1.188-.532-2.365-.952-3.502-1.628-4.455-5.406-6.922-10.608-6.738-4.536.154-8.213 3.082-9.43 7.609-.554 2.078-.892 4.25-1.045 6.4-.266 3.748.133 7.465 1.485 10.987 1.597 4.158 5.406 6.492 10.076 6.37 4.823-.123 8.284-2.468 9.534-6.963.82-2.878 1.044-5.929 1.536-8.909zm88.883.256v-24.259c0-.604.031-1.218 0-1.822-.05-1.147.533-1.546 1.598-1.485.43.031.87 0 1.3 0h40.161c.522 0 1.045.01 1.567.01.768 0 1.075.409 1.065 1.147-.04 2.959-.04 5.909-.103 8.868-.04 1.69-.082 1.751-1.822 1.762-4.26.041-8.519.01-12.779.02-3.91 0-7.824-.02-11.735.01-1.884.01-1.904.041-1.935 1.822-.03 1.741.041 3.481-.02 5.212-.042 1.106.337 1.536 1.484 1.515 2.96-.062 5.91-.02 8.868-.02 4.69 0 9.39-.021 14.08.01 1.7.01 1.741.072 1.772 1.771.041 2.437.031 4.864.01 7.301-.02 2.13-.05 2.171-2.202 2.181-6.87.021-13.732.01-20.603.01-3.389 0-3.389 0-3.389 3.513 0 1.997.021 4.004 0 6-.01.747.276 1.136 1.055 1.116.604-.021 1.22.01 1.822.01 7.998 0 15.995-.01 23.993.01 2.274 0 2.294.03 2.304 2.294.021 2.959-.02 5.909.01 8.868.01 1.086-.348 1.649-1.495 1.557-.522-.041-1.045 0-1.567 0h-40.685c-2.745-.01-2.755-.01-2.765-2.663-.01-5.212 0-10.434 0-15.646.01-3.031.01-6.072.01-9.114zm481.66-.174v-24.248c0-.604.02-1.219.01-1.822-.01-.84.337-1.311 1.228-1.301.522.01 1.044-.01 1.567-.01h39.885c3.144 0 2.908-.236 2.918 3 .01 2.263.03 4.516-.01 6.779-.03 1.956-.062 2.007-2.099 2.007-7.73.02-15.472 0-23.204.01-3.369 0-2.949-.266-2.98 2.877-.01 1.393.051 2.786-.02 4.168-.05 1.106.338 1.536 1.485 1.515 2.95-.062 5.91-.02 8.868-.02 4.69 0 9.39-.021 14.08.01 1.71.01 1.751.072 1.782 1.761.041 2.437.03 4.864.01 7.301-.02 2.15-.05 2.192-2.18 2.192-6.688.02-13.385.01-20.072.01-3.942 0-3.942 0-3.942 4.004v4.168c.01 2.713-.205 2.457 2.591 2.457 3.563.01 7.127 0 10.691 0 4.608 0 9.216-.01 13.814.01 2.038.01 2.068.041 2.09 1.986.03 2.959.03 5.909 0 8.868-.02 1.813-.063 1.854-1.947 1.864-3.737.03-7.475.01-11.213.01h-29.982c-.697 0-1.393-.021-2.089-.01-.86.01-1.27-.409-1.26-1.27.01-.604-.01-1.219-.01-1.822-.01-8.162-.01-16.333-.01-24.494zm-83.478 28.631c-3.492.226-7.198-.174-10.834-1.106-7.209-1.853-11.305-6.727-13.23-13.68-.277-.994-.399-2.038-.553-3.062-.123-.84.338-1.29 1.136-1.444.082-.02.174-.03.256-.041 4.505-.226 9.021-.43 13.527-.676.952-.051 1.475.327 1.66 1.239.05.256.163.502.214.747 1.28 6.206 7.64 7.865 12.514 6.134 1.966-.697 3.37-2.14 3.574-4.403.226-2.427-1.075-4.075-3.092-4.946-2.212-.962-4.608-1.485-6.912-2.232-3.789-1.219-7.67-2.243-11.326-3.769-4.116-1.721-7.495-4.526-8.878-8.99-2.14-6.922.471-14.05 7.158-17.808 2.611-1.465 5.427-2.396 8.376-2.683 5.888-.574 11.807-.84 17.592.819 6.871 1.966 10.813 6.595 11.95 13.639.246 1.536.072 1.854-1.505 1.966-4.25.277-8.499.441-12.749.697-1.229.072-1.843-.327-2.232-1.587-.399-1.29-1.034-2.621-1.925-3.625-1.946-2.202-6.984-2.663-9.492-1.075-2.63 1.669-2.58 4.649.256 5.939 1.792.819 3.78 1.229 5.714 1.69 4.64 1.096 9.288 2.181 13.66 4.158 3.645 1.649 6.748 3.922 8.612 7.608 3.574 7.096 1.362 16.671-4.987 21.648-4.055 3.184-8.745 4.516-13.783 4.854-1.465.072-2.949-.01-4.7-.01zm33.147-28.539v-23.982c0-.697.03-1.393.01-2.089-.03-.973.37-1.464 1.372-1.413.522.031 1.044-.01 1.567-.01h36.762c2.294.031 2.304.031 2.324 2.274.02 2.345.02 4.69 0 7.035-.02 2.447-.03 2.478-2.427 2.478-6.349.021-12.688 0-19.036.01-3.84 0-3.42-.327-3.44 3.553-.01 1.567.04 3.134-.01 4.69-.03 1.034.42 1.362 1.402 1.351 2.263-.041 4.516-.01 6.78-.01 3.562 0 7.126-.01 10.69 0 2.365.01 2.375.03 2.386 2.478.01 2.171.02 4.342 0 6.523-.02 2.243-.04 2.263-2.365 2.274-5.212.021-10.424.01-15.646.01-3.48 0-3.226-.266-3.236 3.246 0 5.561.01 11.12-.01 16.681-.01 2.345-.03 2.375-2.222 2.386-4.26.021-8.519.021-12.779 0-2.089-.01-2.12-.041-2.13-2.212.01-8.407.02-16.834.01-25.272.01 0 .01 0 0 0zm-381.829-27.31c.942-.072 1.608-.164 2.274-.164 4.864-.01 9.738.082 14.602-.051 1.772-.051 2.622.635 3.44 2.079 2.652 4.679 5.447 9.277 8.202 13.906.348.594.758 1.147 1.28 1.956.553-.809 1.065-1.464 1.485-2.171 2.765-4.618 5.57-9.216 8.243-13.875.798-1.383 1.741-1.894 3.318-1.874 4.864.092 9.728.03 14.602.03.594 0 1.198.051 2.243.103-.584.942-.993 1.639-1.444 2.314-6.154 9.257-12.298 18.514-18.503 27.73-.973 1.444-1.403 2.867-1.382 4.598.072 5.99.041 11.991.021 17.991-.01 2.212-.04 2.242-2.089 2.253-4.342.021-8.694.031-13.036 0-1.956-.01-1.997-.051-1.997-2.078-.02-5.827-.072-11.643.021-17.47.041-2.171-.47-3.983-1.71-5.806-6.093-8.981-12.073-18.043-18.084-27.075-.47-.717-.9-1.454-1.485-2.396zm112.046-.174h22.682c.604 0 1.22.02 1.822.01.86-.01 1.26.42 1.26 1.27-.01 3.737-.01 7.475 0 11.213 0 1.433-.994 1.393-1.976 1.393-4.086 0-8.17-.01-12.247 0-3.267.01-2.887-.256-2.898 2.969-.01 11.561 0 23.111-.01 34.673 0 .697-.03 1.393 0 2.089.041 1.003-.44 1.392-1.403 1.372-2.089-.02-4.168 0-6.257 0-2.61 0-5.212.031-7.824-.01-1.813-.02-1.853-.062-1.863-1.945-.02-5.735-.01-11.469-.01-17.203 0-6.605.01-13.21-.01-19.815 0-2.099-.03-2.12-2.17-2.13-4.26-.02-8.52.01-12.77-.01-2.212-.01-2.243-.041-2.263-2.11a527.16 527.16 0 0 1 0-9.902c.021-1.802.062-1.854 1.956-1.854 7.998-.02 15.995-.01 23.982-.01zM585.503 40.928c0-2.263.03-4.516-.02-6.779-.03-1.209.42-1.792 1.67-1.69 2.416.195 4.863.195 7.25.604 3.358.583 5.426 2.806 5.856 5.806.573 4.034-.88 7.516-4.034 9.154-3.01 1.567-6.308 1.792-9.636 1.639-.942-.041-1.096-.676-1.096-1.444.01-2.427.01-4.864.01-7.291zm-6.206 121.959c.512-5.079.952-10.168 1.587-15.227.194-1.506.85-3 1.475-4.413 1.321-2.97 3.82-4.117 6.933-4.117 3.164 0 5.611 1.351 6.77 4.342.87 2.242 1.648 4.598 1.955 6.973.922 7.066 1.096 14.183.307 21.289-.277 2.489-.686 4.967-1.157 7.434-.215 1.085-.676 2.15-1.168 3.154-1.403 2.867-3.758 4.188-6.942 4.137-3.164-.051-5.427-1.444-6.799-4.352-1.782-3.779-2.17-7.833-2.447-11.899-.164-2.417-.03-4.864-.03-7.291-.154 0-.317-.01-.48-.03zm296.13-139.224c-.092-5.662 4.24-10.332 9.851-10.342 5.827 0 10.005 4.219 10.066 10.076.062 6.236-4.076 10.496-9.923 10.476-5.817-.01-9.707-4.075-9.994-10.209zm11.848.553c.788-.276 1.27-.43 1.741-.624 1.546-.635 2.386-1.905 2.242-3.379-.144-1.546-1.188-2.673-2.908-2.796-1.986-.133-3.984-.051-5.97-.082-.9-.01-1.218.45-1.198 1.29.041 1.813.062 3.635.062 5.447 0 1.556-.072 3.123-.03 4.679.01.338.38.666.573 1.004.226-.307.604-.594.635-.911.092-1.034.02-2.079.062-3.113.062-1.587.287-1.7 1.833-1.762 1.136-.041 1.761.553 2.294 1.382.778 1.25 1.526 2.519 2.314 3.758.4.625.912.993 1.731.4-1.086-1.71-2.16-3.389-3.379-5.294zm-1.72-6.174c.768.082 1.628.133 2.49.256 1.095.164 1.668.932 1.77 1.956.112 1.127-.297 2.171-1.526 2.365-1.607.256-3.246.327-4.864.379-.277.01-.798-.491-.83-.788a18.376 18.376 0 0 1-.03-3.358c.02-.286.512-.717.84-.768.655-.133 1.362-.041 2.15-.041z"/></svg>