<svg viewBox="0 0 2389 2389" xmlns="http://www.w3.org/2000/svg"><path d="M359.167 1619.5q0-15.5 10-26.5l209-251 45 56 159 197q10 13 8 28t-15 25q-22 17-46 0l-48-39q33 124 129 206.5t233 112.5q12 1 21 0t21.5-15 12.5-42v-797q0-20-12-32t-24-14l-11-2h-82q-40 0-68.5-28t-28.5-68 28-68 69-28h85q4-1 7.5-2t9-3.5 10-6 8.5-8.5 6.5-12.5 2.5-16.5v-20q-63-28-101.5-87t-38.5-131q0-97 69-166.5t167-69.5 168 69.5 70 166.5q0 72-39.5 131t-102.5 87v21q0 9 2.5 16t7 12 9 8.5 9.5 5.5 9 3.5 7 2.5h88q39 0 67.5 28t28.5 68q0 39-28.5 67.5t-67.5 28.5h-84q-5 0-13 1.5t-21.5 13.5-13.5 32v798q0 28 12.5 42t22 15 21.5 0q137-30 233.5-112.5t129.5-206.5l-48 39q-13 10-27.5 8t-25.5-13q-17-25 0-48l159-197 44-56 210 251q10 13 8.5 31t-14.5 29q-12 10-28 10t-27-10l-61-52q-34 210-178.5 366.5t-349.5 209.5q-2 2-4 2-29 7-50.5 26t-28.5 44q-8 32-34 52.5t-60 20.5q-33 0-58.5-20.5t-33.5-52.5q-7-25-28.5-44t-50.5-26q-3 0-5-2-205-53-349.5-209.5t-178.5-366.5l-60 52q-13 11-31 9.5t-30-15.5q-10-12-10-27.5zm718-1072.5q0 39 21 70v-10q0-40 28-68t68-28 68 27.5 28 68.5v10q23-32 23-70 0-48-35-82t-84-34-83 34-34 82z"/></svg>