<svg viewBox="0 0 2389 2389" xmlns="http://www.w3.org/2000/svg"><path d="M284.667 1336q0-403 266-683 280-296 718-296 358 0 590 202 247 214 247 568 0 277-157 478-155 200-357 200-102 0-160-64-56-64-56-133 0-3 1-8.5t1-9.5q0-3 .5-11t.5-12q-45 91-96 140-95 95-230 95-136 0-227-106-92-107-92-298 0-222 140-416 141-195 340-195 117 0 185 71 51 57 67 127l40-154h213l-145 532q-6 25-14.5 57.5t-9.5 38.5q-7 29-7 55 0 37 23 69 23 33 72 33 97 0 196-138 98-140 98-367 0-337-268-485-164-93-376-93-385 0-617 256-210 229-210 554 0 361 247 569 219 186 531 186 216 0 401-87 102-45 211-129l27-20q8-7 20-11.5t27.5-6 31.5 9 26 33.5q12 33 7 58t-17 39l-13 15q-159 135-347 207-189 71-387 71-469 0-727-318-214-262-214-623zm696 86q0 89 38 145 37 55 106 55 120 0 199-199 76-200 76-314 0-66-35-110-36-44-97-44-118 0-202 159-85 158-85 308z"/></svg>