<svg viewBox="0 0 2879 2879" xmlns="http://www.w3.org/2000/svg"><path d="M206.167 1939q-4.5-92 19.5-176.5t71-159 118-132.5 158-92q158-60 319-26 75-165 228-265.5t340-100.5q127 0 242.5 49.5t199 133 133 199 49.5 242.5q0 19-4 55 3 0 7.5-2t6.5-3q164-64 325.5 8.5t225.5 236.5q40 114 24 221.5t-88 198-181 132.5q-72 26-148 28h-611v-344h139q38 0 50.5-22t-7.5-53l-350-564q-14-20-33-20-9 0-17.5 5t-12.5 10l-4 5-350 564q-20 31-6.5 53t51.5 22h137v344l-459-1q-175 0-322.5-99.5t-211.5-267.5q-34-87-38.5-179z"/></svg>