<svg viewBox="0 0 2589 2589" xmlns="http://www.w3.org/2000/svg"><path d="M184.917 1806v-640q0-16 18-26.5t43-10.5 42 10.5 17 26.5v640q0 16-17 27.5t-42 11.5-43-11.5-18-27.5zm255 120v-878q0-16 17.5-27.5t42.5-11.5q24 0 42 11.5t18 27.5v878q0 16-18 27t-42 11q-25 0-42.5-11t-17.5-27zm288 79V968q0-32 23-55t55-23h978q32 0 55.5 23t23.5 55v1037q0 32-23.5 55.5t-55.5 23.5h-978q-32 0-55-23.5t-23-55.5zm179-100h776v-837h-776v837zm1124 21v-878q0-16 17-27.5t42-11.5 43 11.5 18 27.5v878q0 16-18 27t-43 11-42-11-17-27zm255-120v-640q0-16 17-26.5t42-10.5 42 10.5 17 26.5v640q0 16-17 27.5t-42 11.5-42-11.5-17-27.5z"/></svg>