<svg viewBox="0 0 3093 3093" xmlns="http://www.w3.org/2000/svg"><path d="M220.917 1654q0-221 140-408.5t380-296.5 523-109q213 0 406 64.5t332 173.5 221.5 259.5 82.5 316.5q0 133-52.5 257t-148.5 224.5-224 176-287.5 116.5-329.5 41q-212 0-397-61l-238 166q-133 85-187.5 49.5t-22.5-198.5l48-248q-117-108-181.5-242.5t-64.5-280.5zm1331 959q242-48 441-169t324.5-297.5 153.5-381.5q182 73 291.5 210t109.5 301q0 101-45 196t-126 171l35 175q20 114-17.5 139t-131.5-35l-167-118q-130 44-279 44-179 0-334-63t-255-172z"/></svg>