<svg viewBox="0 0 2389 2389" xmlns="http://www.w3.org/2000/svg"><path d="M170.667 1317q0-195 76-373t204.5-306.5 306.5-204.5 373-76 373 76 306.5 204.5 204.5 306.5 76 373-76 373-204.5 306.5-306.5 204.5-373 76-373-76-306.5-204.5-204.5-306.5-76-373zm374-2q0 120 46 228.5t124 187.5 186 125.5 228 46.5q160 0 295.5-78.5t214-214 78.5-295.5q0-159-78.5-293.5t-214-213-295.5-78.5q-120 0-228 46.5t-186 125-124 186.5-46 227zm97 26q13 0 35 1.5t33 1.5q214 0 440-80 12 33 30 69-126 44-231 124t-177 190q-125-129-130-306zm3-99q19-115 88.5-210.5t172.5-149.5q123 147 201 292-187 68-397 68h-65zm199 473q140-213 368-288 57 171 72 354-69 25-155 25-148 0-285-91zm159-869q74-19 126-19 196 0 339 138-123 108-271 173-77-145-194-292zm238 383q149-68 292-188 87 130 87 274-113-26-187-26-62 0-159 18-5-12-16-39t-17-39zm65 172q61-10 127-10 86 0 177 22-23 104-83 188.5t-149 135.5q-24-193-72-336z"/></svg>