<svg viewBox="0 0 2389 2389" xmlns="http://www.w3.org/2000/svg"><path d="M170.667 1317q0-195 76-373t204.5-306.5 306.5-204.5 373-76 373 76 306.5 204.5 204.5 306.5 76 373-76 373-204.5 306.5-306.5 204.5-373 76-373-76-306.5-204.5-204.5-306.5-76-373zm405 64q0 135 40 218 48 91 137 129 95 44 191 54 81 10 190 10 61 0 110-3 128-6 226-45 116-49 163-145 40-85 40-218 0-157-91-263 19-51 19-111 0-75-33-143-68 0-122 24t-126 81q-91-22-186-22-107 0-203 24-76-59-129-83t-121-24q-35 68-35 143 0 52 19 112-89 104-89 262zm147 116q0-82 46.5-136.5t122.5-54.5q29 0 128 15 43 7 104 7 60 0 103-7 103-15 129-15 76 0 122.5 54.5t46.5 136.5q0 57-21 101-39 79-134 107-81 24-191 24h-111q-58 0-98-4-111-12-173-60-74-55-74-168zm105 0q0 31 9 54 8 30 29 51t47 21q27 0 48-22 36-42 36-104 0-30-8-55-9-30-29.5-51t-46.5-21q-27 0-48 22-37 43-37 105zm423 0q0 30 8 54 8 30 28.5 51t46.5 21q28 0 50-22 35-40 35-104 0-30-8-55-8-30-29-51t-48-21-46 22q-37 41-37 105z"/></svg>