<svg viewBox="0 0 2389 2389" xmlns="http://www.w3.org/2000/svg"><path d="M170.667 1317q0-196 76-373.5t204.5-306 306.5-204.5 373-76 373 76 306.5 204.5 204.5 306 76 373.5q0 195-76 373t-204.5 306.5-306.5 204.5-373 76-373-76-306.5-204.5-204.5-306.5-76-373zm320-444q28-5 36-1 5 3 7.5 5t3 5 .5 7v10q2 59 42 37 15-9 22.5-44t12.5-43q11-18 46-51 4-3 12.5-10.5t12.5-11.5 8.5-12 4.5-18q1-19-13.5-29t-35.5-13q-90 71-159 169zm171 756q6 36 24.5 61t40 38 56.5 20 60 8 66 2 60 2q34 2 46 10.5t22 39.5q4 11 13 34.5t14.5 41 8.5 34.5q4 20 7 58t5 51q8 50 23 67 4 0 11.5.5t11.5.5q121 0 246-40 15-9 39-28t30-23q4-2 13-6t14-8.5 8-13.5q4-6 2.5-14t-2.5-12-5.5-12-6.5-14q-4-10-4.5-19t1.5-15.5 8-14 11-12 14-13 14-13.5q27-27 67-100 41-74 40-108-14-1-51.5 6.5t-58.5 3.5q-51-9-106-66-45-47-42-110 1-13 2.5-17t9.5-9q10 11 41 31.5t42 36.5q4 5 10.5 14.5t9.5 14 9.5 11.5 14.5 13 18.5 21 17.5 20q16 10 35.5 4.5t35.5-18.5q8-7 13.5-17t7-17 4-20.5 3.5-18.5q3-11 12.5-26t12.5-25 0-64q-33 0-48 8-4 2-13 13t-21 10q-22-1-35-20t-15-41q8-6 20.5-8t21-2 26 1 22.5 1q37 0 80-18 17-8 32-9.5t30.5 4.5 26.5 12 29 19q5 4 13.5 11.5t15 13.5 14.5 11 15 4 13-8q7-8 8-24.5t-.5-38-1.5-27.5l5-42q1-6 9-24-22-227-162-406t-350-255q-15 24-18.5 59t.5 86.5 4 62.5q0 15-4.5 23.5t-16 17.5-17.5 17q-38 43-74 36-10-2-38-9t-41-8-35-1-39 8.5-34 24.5q-3 3-12 11.5t-12.5 12.5-9 11.5-8 15-2.5 16.5q0 3-1.5 18t-1 20.5 4.5 14.5 13 14q12 6 33 4.5t32-8.5q8-6 12.5-17t8-26 6.5-22q10-20 29-25t31 12q18 28-8 72-15 24-28 36t-38 20q-2 1-8.5 4t-12 4-11.5 0q-5-2-13-10.5t-12-9.5q-24-7-62 28-28 26-61 30-4 1-13 1h-15l-13 2.5-7 8 2 16.5q2 6 15.5 21t10.5 33q-6 0-22-.5t-26 0-22 4-18 11.5q-8 12-17.5 45t-4.5 42q9 16 69 16 48 4 54-32 9-4 19.5-16t15.5-16q15-12 41-15 14-2 24.5-.5t18.5 8.5 12 12 11 17.5 11 18.5q20 31 34 27 8-3 7-25 0-14-16-39.5t-14-45.5q11 0 16.5-1t12 8 9 13.5 7 15.5 6.5 15q11 29 21 42 1 1 10 9.5t12 14.5q3-4 17-27t20-37q17-41 37-59 21-19 72-19 44 0 43 20-1 8-12 19-6 6-44 21t-61 32-5 34q11 10 40.5 8t41.5 3q8 4 11 11.5t2.5 14-3 19-2.5 16.5v12q-24 14-57.5 16.5t-88.5-2.5-57-5q-43-2-91-39-22-17-39-22t-48-7q-146-5-237 70-102 85-80 212zm83-917q13 7 30.5 2t36-12 34-11.5 24.5 4 7 33.5q-8 3-34 11t-44 15-34.5 21.5-17.5 32.5q0 8 2.5 14t8 10 11.5 7 15.5 3.5 16 1.5 18 0 16-1 15-1.5 11.5-1.5q59-8 100-37 92-69 105-122 6-25-9-37.5t-37-13.5-46-5-33-15q-4-5-4-43 0-4 1-5-133 44-180 70 26 19 18 38-2 4-19 15t-12 27z"/></svg>