<svg viewBox="0 0 2389 2389" xmlns="http://www.w3.org/2000/svg"><path d="M170.667 1917q0 79 35 139 61 112 214 169 130 52 279 52t273.5-40 204.5-106.5 124-152 44-178.5q0-129-69-222-53-72-142-139-30-23-66-56-70-58-70-114 0-66 92-149 31-27 76-74 40-44 65.5-111t25.5-148q0-104-45.5-196.5t-126.5-143.5h156l155-90h-504q-109 0-216 22-161 36-270 164t-109 289q0 169 122 283t296 114q18 0 80-6-3 12-17 49-8 21-8 50 0 79 74 172-76 1-174 15-225 36-346 123-70 52-111.5 132t-41.5 153zm214-54q0-69 31-124 56-97 193-139 119-37 247-37 18 0 57 3 1 0 33.5 22.5t40.5 27.5q28 19 73 56 3 3 18 17t26.5 26 17.5 20q3 4 6.5 9.5t8.5 13.5 9 13q12 19 20 39 16 50 16 89 0 71-31 125.5t-86 85.5q-104 60-246 60-156 0-286-71-68-35-108-97t-40-139zm125-1153q0-116 61-193.5t165-77.5q74 0 136 46t99 122q72 152 72 297 0 121-51.5 188t-159.5 67q-57 0-112-30-92-52-156-185-54-117-54-234zm843 89h296v296h147V799h295V651h-295V357h-147v294h-296v148z"/></svg>