<svg viewBox="0 0 2400 2400" xmlns="http://www.w3.org/2000/svg"><path d="M171.417 1692v-409q0-53 35-93h-1l191-251q43-61 118-61h135q229-62 551-62 321 0 550 62h135q75 0 118 61l191 251h-1q35 40 35 93v409q0 59-42 101t-101 42h-1770q-60 0-102-42t-42-101zm203-123q0 32 22.5 54.5t54.5 22.5h181q31 0 53.5-22.5t22.5-54.5-22.5-54.5-53.5-22.5h-181q-32 0-54.5 22.5t-22.5 54.5zm149-483q0 46 90.5 84.5t246.5 61 340 22.5 339.5-22.5 246-61 90.5-84.5-90.5-84.5-246-61-339.5-22.5-340 22.5-246.5 61-90.5 84.5zm299 483q0 32 22.5 54.5t54.5 22.5h22q31 0 53.5-22.5t22.5-54.5-22.5-54.5-53.5-22.5h-22q-32 0-54.5 22.5t-22.5 54.5zm175-483q0-20 60-35.5t143-15.5q82 0 141.5 15.5t59.5 35.5-59 35-142 15q-84 0-143.5-15t-59.5-35z"/></svg>