<svg viewBox="0 0 2389 2389" xmlns="http://www.w3.org/2000/svg"><path d="M263.667 1610q10-51 52.5-85.5t94.5-34.5h305l74-347h-278q-57 0-94-44-35-45-23-104 10-52 52-86t94-34h305l65-307q11-52 53.5-86.5t94.5-34.5q60 0 95 44t22 104l-59 280h343l65-307q11-52 53-86.5t94-34.5q60 0 95 44 36 42 23 104l-59 280h277q58 0 95 44 35 45 23 104-10 52-52 86t-94 34h-305l-75 347h278q58 0 95 44 35 45 23 105-11 52-52.5 86t-93.5 34h-307l-64 307q-11 52-53 86t-94 34q-58 0-95-43-35-45-23-104l60-280h-344l-66 307q-11 52-52.5 86t-93.5 34q-58 0-95-43-35-45-23-104l60-280h-278q-59 0-95-45-36-42-23-104zm723-120h343l74-347h-344z"/></svg>