<svg viewBox="0 0 2389 2389" xmlns="http://www.w3.org/2000/svg"><path d="M170.667 1317q0-195 76-373t204.5-306.5 306.5-204.5 373-76 373 76 306.5 204.5 204.5 306.5 76 373-76 373-204.5 306.5-306.5 204.5-373 76-373-76-306.5-204.5-204.5-306.5-76-373zm465 309q0 77 54.5 131t131.5 54h619q77 0 131.5-54t54.5-131v-619q0-77-54.5-131t-131.5-54h-619q-77 0-131.5 54t-54.5 131v619zm166 0v-412q0-8 6-14.5t14-6.5h124q8 0 14 6.5t6 14.5v412q0 8-6 14.5t-14 6.5h-124q-8 0-14-6.5t-6-14.5zm0-560q0-32 23.5-56t55.5-24q33 0 56.5 23.5t23.5 56.5-23 56q-24 24-57 24-32 0-55.5-23t-23.5-57zm206 560v-415q0-8 9.5-13t18.5-5h114q23 0 23 23 0-3 8-8 46-29 103-29 84 0 130.5 42.5t46.5 124.5v280q0 8-6 14.5t-14 6.5h-120q-9 0-16.5-6.5t-7.5-14.5v-253q0-34-10.5-48t-40.5-14q-73 0-73 90v225q0 8-6 14.5t-13 6.5h-118q-9 0-18.5-6.5t-9.5-14.5z"/></svg>