<svg viewBox="0 0 2389 2389" xmlns="http://www.w3.org/2000/svg"><path d="M170.667 1917V717q0-149 105.5-254.5t254.5-105.5h1200q149 0 254.5 105.5t105.5 254.5v1200q0 149-105.5 254.5t-254.5 105.5h-1200q-149 0-254.5-105.5t-105.5-254.5zm320 0q0 16 12 28t28 12h240q16 0 28-11.5t12-28.5v-800q0-16-12-28t-28-12h-240q-16 0-28 12t-12 28v800zm0-1085q0 64 45 109.5t109 45.5q67 0 110-46 45-45 45-109t-45.5-109.5-109.5-45.5-109 45.5-45 109.5zm400 1085q0 16 19 28t38 12h228q14 0 24.5-12t10.5-28v-436q0-175 143-175 59 0 78 26t19 94v491q0 16 15 28t33 12h232q16 0 28-11.5t12-28.5v-543q0-157-90.5-240.5t-254.5-83.5q-113 0-197 57-17 10-18 15 0-45-43-45h-220q-20 0-38.5 10t-18.5 25v805z"/></svg>