<svg viewBox="0 0 2389 2389" xmlns="http://www.w3.org/2000/svg"><path d="M170.667 1317q0-196 76-373.5t204.5-306 306-204.5 373.5-76q195 0 373 76t306.5 204.5 204.5 306 76 373.5q0 195-76 373t-204.5 306.5-306.5 204.5-373 76q-196 0-373.5-76t-306-204.5-204.5-306.5-76-373zm181 0q0 158 61.5 302.5t166 249 249 166.5 302.5 62 303-62 249.5-166.5 166.5-249 62-302.5-62-302.5-166.5-249-249.5-166.5-303-62-302.5 62-249 166.5-166 249-61.5 302.5zm240-63q0-32 24-55t58-23h220l167 255 93-533h313q35 0 60 23.5t25 55.5-25 55.5-60 23.5h-174l-139 802-351-527h-129q-34 0-58-22.5t-24-54.5z"/></svg>