<svg viewBox="0 0 2389 2389" xmlns="http://www.w3.org/2000/svg"><path d="M170.667 2097V537q0-74 53.5-127t127.5-53h240v360h1080V357h240q74 0 126.5 53t52.5 127v1560q0 74-52.5 127t-126.5 53h-240v-360h-1080v360h-240q-74 0-127.5-53t-53.5-127zm151-90v120h120v-120h-120zm0-181h120v-120h-120v120zm0-299h120v-120h-120v120zm0-301h120v-120h-120v120zm0-299h120V807h-120v120zm0-301h120V506h-120v120zm270 991h1080v-600h-1080v600zm1228 390v120h120v-120h-120zm0-181h120v-120h-120v120zm0-299h120v-120h-120v120zm0-301h120v-120h-120v120zm0-299h120V807h-120v120zm0-301h120V506h-120v120z"/></svg>