<svg viewBox="0 0 2389 2389" xmlns="http://www.w3.org/2000/svg"><path d="M170.667 2168v-586q0-44 31-75.5t75-31.5h585q44 0 75.5 31.5t31.5 75.5v586q0 44-31.5 75t-75.5 31h-585q-44 0-75-31t-31-75zm0-1117V465q0-44 31-75t75-31h585q44 0 75.5 31t31.5 75v586q0 44-31.5 75.5t-75.5 31.5h-585q-44 0-75-31.5t-31-75.5zm1121 1117v-586q0-44 31.5-75.5t74.5-31.5h587q43 0 74.5 31.5t31.5 75.5v586q0 44-31 75t-75 31h-587q-43 0-74.5-31t-31.5-75zm0-1117V465q0-43 31.5-74.5t74.5-31.5h587q44 0 75 31.5t31 74.5v586q0 44-31.5 75.5t-74.5 31.5h-587q-43 0-74.5-31.5t-31.5-75.5z"/></svg>