<svg viewBox="0 0 2389 2389" xmlns="http://www.w3.org/2000/svg"><path d="M170.667 1861q0 172 121.5 294t293.5 122h148q68 0 116.5-48.5t48.5-116.5-48.5-116.5-116.5-48.5h-148q-35 0-60.5-25t-25.5-61V771q0-35 25.5-60t60.5-25h148q68 0 116.5-48.5t48.5-116.5-48.5-116-116.5-48h-148q-172 0-293.5 121t-121.5 293v1090zm488-516q0-68 48.5-116t116.5-48h705l-225-227q-49-48-49-116.5t49-116.5q48-48 116-48t116 48l507 508q48 48 48 116t-48 116l-497 497q-48 48-116 48t-117-48q-48-48-48-116t49-117l215-215h-705q-67 0-116-49t-49-116z"/></svg>