<svg viewBox="0 0 2389 2389" xmlns="http://www.w3.org/2000/svg"><path d="M170.667 1298q0-68 48.5-116t116.5-48h705l-227-227q-48-48-48-116t48-117q49-48 117.5-48t116.5 48l506 508q49 48 49 116t-49 116l-496 497q-48 48-116.5 48t-116.5-48-48-116 48-117l216-215h-705q-68 0-116.5-48.5t-48.5-116.5zm1192 814q0-68 48.5-116.5t116.5-48.5h147q36 0 61.5-25t25.5-61V771q0-35-25.5-60t-61.5-25h-147q-68 0-116.5-48.5t-48.5-116.5 48.5-116 116.5-48h147q173 0 294.5 121t121.5 293v1090q0 173-122 294.5t-294 121.5h-147q-68 0-116.5-48.5t-48.5-116.5z"/></svg>