<svg viewBox="0 0 2389 2389" xmlns="http://www.w3.org/2000/svg"><path d="M179.667 1140q-25.5-64 32.5-101.5t187-37.5h495l151-456v-2q30-92 69-139t81-47q41 0 80 47t69 139l2 2 149 456h495q129 0 187 37.5t32.5 101.5-130.5 139l-10 8-389 278 150 452 2 7q39 122 22.5 186.5t-81.5 64.5q-75 0-179-77l-12-7-387-278-393 281-6 4q-107 79-180 79-65 0-81.5-65.5t22.5-187.5l2-7 150-452-389-278-4-5-6-3q-105-75-130.5-139zm338.5 53l416 297-43 134-117 354 421-301 420 301-116-354-44-134 416-297h-514l-43-132-119-359-163 491h-514z"/></svg>