<svg viewBox="0 0 2389 2389" xmlns="http://www.w3.org/2000/svg"><path d="M170.667 1894q0 15 15 27 25 17 89 50 244 126 512 126 334 0 607-172 130-82 231-197.5t160.5-241 89-251.5 27.5-245v-35q117-84 183-192 6-12 6-18 0-13-10-23t-23-10q-7 0-24 8-12 4-29.5 10t-30 10.5-16.5 5.5q26-29 54-78.5t28-72.5q0-13-10-22.5t-24-9.5q-8 0-16 5-114 61-213 83-121-115-289-115-172 0-293 120t-121 290q0 30 4 49-169-14-326-81t-282-180q-29-28-112-117-12-12-28-12-12 0-25 16-26 39-41 95.5t-15 110.5q0 149 93 260l-29-14q-25-11-37-11-17 0-28.5 10t-11.5 26q0 105 54 199t146 150l-12-2q-2 0-5.5-1t-5.5-1.5-3-.5q-13 0-22.5 10t-9.5 22q0 1 2 11 34 104 113 176.5t185 97.5q-174 107-384 107-14 0-45-3-42-2-46-2-13 0-22.5 10t-9.5 23z"/></svg>