<svg viewBox="0 0 2931 2931" xmlns="http://www.w3.org/2000/svg"><path d="M209.333 2415l278-278 97 97 450-450q-62-91-52-203.5t90-193.5q80-80 192.5-89.5t203.5 53.5l451-452-97-97 277-277 278 277-278 278-97-97-291 291q136-32 251-32 207 0 397 79t336 225q26 26 26 63t-26 63-63 26-63-26q-122-122-278.5-186.5t-328.5-64.5q-198 0-375 86 30 81 10.5 170t-83.5 153q-65 64-153 83.5t-169-10.5q-77 160-86 336.5t55 346 194 299.5q26 26 26 62.5t-26 62.5q-27 27-63 27-34 0-61-27-197-196-267-459.5t-4-524.5l-293 292 97 97-277 278zm167 0l111 111 109-111-109-110zm1614-1613l109 111 110-111-110-109z"/></svg>