<svg viewBox="0 0 2389 2389" xmlns="http://www.w3.org/2000/svg"><path d="M170.667 1317q0-196 76-373.5t204.5-306 306-204.5 373.5-76q195 0 373 76t306.5 204.5 204.5 306 76 373.5q0 195-76 372.5t-204.5 306.5-306.5 205-373 76q-196 0-373.5-76t-306-205-204.5-306.5-76-372.5zm240 0q0 146 57 279.5t153.5 230 230 153.5 279.5 57 279.5-57 230-153.5 153.5-230 57-279.5q0-196-96.5-361.5t-262.5-262-361-96.5-361 96.5-262.5 262-96.5 361.5zm443-362l63 208q92-59 190-59 101 0 101 47 0 8-3.5 15t-7.5 11.5-12.5 10.5-13.5 9-17 9l-16 8-82 44q-44 24-56.5 51t-12.5 75v75h239v-32q0-15 1-21t5-11.5 13-10.5q2-1 21.5-10t35.5-17 38-21.5 38-26.5q39-35 60-76t21-113q0-101-85.5-170.5t-216.5-69.5q-170 0-303 75zm98 685q0 65 42 100.5t113 35.5q69 0 111-35.5t42-100.5-42-101-111-36q-71 0-113 36t-42 101z"/></svg>