<svg xmlns="http://www.w3.org/2000/svg" fill-rule="evenodd" stroke-miterlimit="1.414" clip-rule="evenodd" stroke-linejoin="round" viewBox="0 0 14.983452796936035 16.215620040893555"><path d="M14.714 11.357a9.478 9.478 0 0 0-.235-.577c-.123-.277-.252-.556-.376-.825l-.008-.02a183.837 183.837 0 0 0-3.533-7.24l-.054-.1c-.126-.246-.256-.5-.39-.75A4.98 4.98 0 0 0 9.544.96 2.666 2.666 0 0 0 7.492.002a2.66 2.66 0 0 0-2.052.96 4.815 4.815 0 0 0-.574.884c-.135.252-.267.508-.394.755l-.05.094a188.702 188.702 0 0 0-3.53 7.239l-.018.035c-.12.265-.248.538-.368.81-.08.182-.163.376-.235.578a3.524 3.524 0 0 0-.19 1.725 3.41 3.41 0 0 0 3.812 2.895 4.293 4.293 0 0 0 1.61-.543c.648-.365 1.288-.9 1.988-1.665.7.765 1.34 1.3 1.99 1.665.53.298 1.07.48 1.607.543a3.505 3.505 0 0 0 1.728-.228 3.41 3.41 0 0 0 2.087-2.667c.08-.57.02-1.134-.19-1.725zm-.822 1.58a2.38 2.38 0 0 1-1.46 1.864c-.38.155-.8.21-1.225.16a3.212 3.212 0 0 1-1.225-.42c-.577-.323-1.162-.822-1.82-1.554 1.048-1.294 1.702-2.485 1.944-3.548.11-.485.134-.944.07-1.364A2.621 2.621 0 0 0 9.75 6.98c-.49-.714-1.333-1.14-2.258-1.14-.924 0-1.768.426-2.258 1.14-.22.32-.363.689-.425 1.094-.064.42-.04.88.07 1.364.24 1.063.895 2.255 1.942 3.55-.66.73-1.243 1.23-1.82 1.554a3.212 3.212 0 0 1-1.225.42 2.48 2.48 0 0 1-1.226-.16 2.382 2.382 0 0 1-1.46-1.865c-.058-.408-.013-.8.142-1.238.057-.16.124-.318.207-.506.116-.264.24-.534.36-.795l.017-.035c1.1-2.39 2.283-4.81 3.513-7.198l.05-.095c.124-.244.253-.496.384-.74.136-.25.273-.494.45-.705.337-.392.778-.6 1.276-.6.5 0 .94.208 1.274.6.18.21.316.454.45.706.13.24.26.49.384.73l.052.104a183.78 183.78 0 0 1 3.513 7.198l.01.022c.122.265.25.54.368.81.084.187.15.345.208.505.155.437.2.83.142 1.238zm-6.4-.745c-.866-1.102-1.422-2.123-1.617-2.98a2.65 2.65 0 0 1-.056-.98c.04-.254.126-.48.258-.673.3-.435.828-.696 1.415-.696.587 0 1.116.262 1.415.697.133.193.22.42.258.672.045.29.026.622-.056.98-.195.858-.75 1.88-1.617 2.98z"/></svg>