<svg xmlns="http://www.w3.org/2000/svg" fill-rule="evenodd" stroke-miterlimit="1.414" clip-rule="evenodd" stroke-linejoin="round" viewBox="0 0 14.350000381469727 16.13399887084961"><path d="M0 4.897c0-.535.378-1.19.84-1.456L6.335.267C6.797 0 7.553 0 8.015.267l5.495 3.174c.462.267.84.92.84 1.455v6.342c0 .534-.378 1.19-.84 1.455l-5.495 3.174c-.462.267-1.218.267-1.68 0L.84 12.694c-.462-.266-.84-.92-.84-1.455V4.897zm9.463 6.583l-.458-.923H5.337l-.45.923h-2.19l3.6-7.36c.203-.405.518-.6.878-.6s.69.218.878.593l3.6 7.367h-2.19zm.66-.908L7.175 4.577v1.65l1.68 3.452H4.662l2.513-5.1v-.826c-.323.022-.503.195-.66.473l-3.43 6.998h1.644l-.502-.638.435-.908.517.638h3.984l.45.908h1.65l-1.14-.653zM8.158 8.817l-.983-2.033-.983 2.033h1.966z"/></svg>