<svg xmlns="http://www.w3.org/2000/svg" fill-rule="evenodd" stroke-miterlimit="1.414" clip-rule="evenodd" stroke-linejoin="round" viewBox="0 0 16 13.334000587463379"><path d="M8 0C3.693 0 .32 5.48 0 10.107c1.352 2.346 4.61 3.227 8 3.227 3.39 0 6.65-.88 8-3.227C15.68 5.479 12.307 0 8 0zm6.875 9.005s-.952-2.057-1.918-3.257c-.968-1.2-2.15-2.506-2.848-2.506-.7 0-2.65 3.456-3.547 3.456-.895 0-1.36-1.567-2.462-1.567-1.1 0-2.85 3.778-2.85 3.778l-.12.642s.61 2.695 6.97 2.695c6.36 0 6.87-2.65 6.87-2.65l-.095-.59z"/></svg>