<svg xmlns="http://www.w3.org/2000/svg" fill-rule="evenodd" stroke-miterlimit="1.414" clip-rule="evenodd" stroke-linejoin="round" viewBox="0 0 12.614001274108887 16.005313873291016"><path d="M12.143 7.725A6.072 6.072 0 0 0 8.947 4.54a5.786 5.786 0 0 0-2.31-.466L3.419 4.07a.736.736 0 0 1-.734-.733l-.002-2.03C2.685.576 2.095 0 1.342 0 .602 0 0 .603 0 1.343l.004 8.688c0 .816.157 1.594.468 2.315.313.72.746 1.36 1.287 1.903a6.135 6.135 0 0 0 1.902 1.285c.72.31 1.5.467 2.315.467h.664a5.82 5.82 0 0 0 2.316-.467 6.093 6.093 0 0 0 1.902-1.285 6.11 6.11 0 0 0 1.286-1.9c.31-.715.47-1.493.47-2.312 0-.817-.16-1.594-.472-2.31zm-2.214 2.31a3.265 3.265 0 0 1-3.291 3.281h-.655c-.45 0-.88-.086-1.28-.255a3.237 3.237 0 0 1-1.053-.705 3.295 3.295 0 0 1-.707-1.053c-.167-.4-.252-.83-.252-1.28v-1.89a1.371 1.371 0 0 1 1.374-1.377l2.57.003c.45 0 .88.084 1.282.25.4.17.753.406 1.05.704.3.3.54.653.71 1.048.167.402.252.83.252 1.274z"/></svg>