<svg xmlns="http://www.w3.org/2000/svg" fill-rule="evenodd" stroke-miterlimit="1.414" clip-rule="evenodd" stroke-linejoin="round" viewBox="0 0 15.760000228881836 16.434484481811523"><path fill-rule="nonzero" d="M5.856 8a1.904 1.904 0 1 1 3.807-.001A1.904 1.904 0 0 1 5.856 8zM7.76 0C4.024 0 .896 2.56.008 6.016 0 6.04 0 6.064 0 6.096c0 .208.168.384.384.384h3.224a.369.369 0 0 0 .344-.224A4.2 4.2 0 0 1 7.76 3.808 4.196 4.196 0 0 1 11.952 8a4.196 4.196 0 0 1-4.192 4.192c-1.688 0-3.144-1-3.808-2.448a.39.39 0 0 0-.344-.224H.384A.384.384 0 0 0 0 9.904c0 .024.008.048.008.08A8.002 8.002 0 0 0 15.76 8c0-4.416-3.584-8-8-8z"/></svg>