<svg xmlns="http://www.w3.org/2000/svg" fill-rule="evenodd" stroke-miterlimit="1.414" clip-rule="evenodd" stroke-linejoin="round" viewBox="0 0 15.99899959564209 16.0740909576416"><path fill-rule="nonzero" d="M15.988 5.48c-.004-.02-.007-.04-.012-.057l-.01-.033c-.006-.017-.012-.034-.02-.05-.003-.012-.01-.023-.014-.034l-.023-.045-.02-.032-.03-.04-.024-.03a.402.402 0 0 0-.034-.038l-.027-.027-.04-.032-.03-.024-.012-.01L8.38.155a.68.68 0 0 0-.76 0L.305 5.028l-.009.01a.262.262 0 0 0-.032.023.4.4 0 0 0-.04.032l-.027.027-.034.037-.024.03-.03.04c-.006.012-.013.022-.02.033l-.023.045-.015.034c-.007.016-.012.033-.018.05l-.01.032c-.005.02-.01.038-.012.058l-.006.03A.869.869 0 0 0 0 5.598v4.875c0 .03.002.06.006.09l.007.03c.003.02.006.04.013.058l.01.033c.006.018.01.035.018.05l.015.033c.006.016.014.03.023.047l.02.03a.16.16 0 0 0 .03.042c.007.01.014.02.023.03.01.012.02.025.034.036.01.01.018.02.028.026l.04.033.03.023.01.01 7.31 4.876a.685.685 0 0 0 .762 0l7.314-4.875.01-.01a.262.262 0 0 0 .032-.023.4.4 0 0 0 .04-.032l.027-.027.034-.037.024-.03.03-.04.02-.032.023-.046.015-.033.018-.052.01-.033c.005-.02.01-.038.013-.058 0-.01.003-.02.004-.03a.68.68 0 0 0 .006-.09v-4.87a.68.68 0 0 0-.006-.09l-.007-.03zM8 9.665L5.568 8.038 8 6.412l2.432 1.626L8 9.664zm-.688-4.446L4.332 7.21 1.926 5.6l5.386-3.59v3.206zm-4.217 2.82l-1.72 1.15v-2.3l1.72 1.15zm1.237.828l2.98 1.993v3.208l-5.386-3.59 2.406-1.61zm4.355 1.993l2.98-1.993 2.407 1.61-5.387 3.59V10.86zm4.218-2.821l1.72-1.15v2.3l-1.72-1.15zm-1.237-.827l-2.98-1.993v-3.21l5.386 3.59-2.406 1.61z"/></svg>