<svg xmlns="http://www.w3.org/2000/svg" fill-rule="evenodd" stroke-miterlimit="1.414" clip-rule="evenodd" stroke-linejoin="round" viewBox="0 0 16.030000686645508 15.511999130249023"><path fill-rule="nonzero" d="M10.19 14.373l-1.554-2.17c-.415-.58-.752-1.032-.77-1.032-.018 0-.67.877-1.544 2.076a116.703 116.703 0 0 1-1.53 2.076c-.022 0-2.998-2.096-3.006-2.118-.004-.01.67-.998 1.495-2.194.826-1.197 1.502-2.195 1.502-2.218 0-.037-.268-.13-2.367-.83l-2.396-.8c-.02-.01.103-.424.528-1.766.306-.964.563-1.76.57-1.77.01-.01 1.14.35 2.515.804 1.375.452 2.51.822 2.525.822.014 0 .03-.02.035-.047.006-.025.018-1.195.027-2.6.01-1.404.024-2.565.033-2.58.013-.02.4-.026 1.817-.025.99 0 1.81.007 1.823.015.016.01.043.783.09 2.518.073 2.848.075 2.886.12 2.886.018 0 1.107-.365 2.42-.81 1.315-.446 2.396-.803 2.404-.795.026.03 1.103 3.537 1.09 3.55-.007.008-1.104.383-2.437.835-1.833.622-2.425.83-2.43.856-.003.02.627.963 1.43 2.136a116.75 116.75 0 0 1 1.428 2.12c-.007.024-2.96 2.2-2.986 2.2-.01 0-.384-.512-.832-1.138z"/></svg>