<svg xmlns="http://www.w3.org/2000/svg" fill-rule="evenodd" stroke-miterlimit="1.414" clip-rule="evenodd" stroke-linejoin="round" viewBox="0 0 16 15.541455268859863"><path fill-rule="nonzero" d="M8.292 15.54a7.641 7.641 0 0 1-4.984-1.844L0 14.148l1.278-3.155A7.793 7.793 0 0 1 .583 7.77C.583 3.48 4.033 0 8.293 0 12.548 0 16 3.48 16 7.77c0 4.292-3.45 7.77-7.708 7.77zm4.21-7.792v-.022c0-2.242-1.582-3.84-4.308-3.84H5.25v7.77h2.9c2.747 0 4.35-1.666 4.35-3.908zM8.225 9.746h-.86v-3.95h.86c1.265 0 2.105.72 2.105 1.964v.02c0 1.256-.84 1.966-2.104 1.966z"/></svg>