<svg xmlns="http://www.w3.org/2000/svg" fill-rule="evenodd" stroke-miterlimit="1.414" clip-rule="evenodd" stroke-linejoin="round" viewBox="0 0 16.003002166748047 16.003786087036133"><path fill-rule="nonzero" d="M13.65 2.354A7.933 7.933 0 0 0 8 .004c-4.407 0-8 3.593-8 8s3.593 8 8 8 8-3.593 8-8a7.94 7.94 0 0 0-2.35-5.65zM8 13.196a4.388 4.388 0 0 1-4.38-4.38c0-2.045 1.37-3.416 2.577-4.623.8-.8 1.575-1.574 1.803-2.437.23.863.99 1.637 1.803 2.437C11.01 5.4 12.381 6.77 12.381 8.816a4.388 4.388 0 0 1-4.38 4.38z"/></svg>