<svg xmlns="http://www.w3.org/2000/svg" fill-rule="evenodd" stroke-miterlimit="1.414" clip-rule="evenodd" stroke-linejoin="round" viewBox="0 0 16.001070022583008 15.947000503540039"><path fill-rule="nonzero" d="M8.866 1.19a1.2 1.2 0 0 1-1.19 1.19 1.2 1.2 0 0 1-1.19-1.19c0-.648.542-1.19 1.19-1.19a1.2 1.2 0 0 1 1.19 1.19zm-1.19 2.162c-.702 0-1.243.54-1.243 1.244 0 .702.54 1.243 1.244 1.243.702 0 1.243-.54 1.243-1.243 0-.703-.542-1.244-1.244-1.244zm0 3.352c-.702 0-1.297.594-1.297 1.297s.595 1.297 1.298 1.297c.702 0 1.297-.594 1.297-1.297S8.38 6.704 7.677 6.704zm0 3.405c-.702 0-1.243.54-1.243 1.243 0 .703.54 1.244 1.244 1.244.702 0 1.243-.54 1.243-1.244 0-.648-.542-1.243-1.244-1.243zm0 3.46a1.2 1.2 0 0 0-1.19 1.19 1.2 1.2 0 0 0 1.19 1.188 1.2 1.2 0 0 0 1.19-1.19c0-.648-.54-1.188-1.19-1.188zm3.298-10.38c-.757 0-1.405.65-1.405 1.407 0 .756.648 1.405 1.405 1.405s1.405-.65 1.405-1.405a1.43 1.43 0 0 0-1.405-1.406zm0 3.353c-.81 0-1.46.648-1.46 1.46 0 .81.65 1.458 1.46 1.458.81 0 1.46-.648 1.46-1.46 0-.81-.65-1.458-1.46-1.458zm0 3.405c-.757 0-1.405.65-1.405 1.405 0 .757.648 1.406 1.405 1.406s1.405-.65 1.405-1.406a1.43 1.43 0 0 0-1.405-1.405zm3.405-3.568c-.864 0-1.62.703-1.62 1.622 0 .865.7 1.622 1.62 1.622.92 0 1.622-.704 1.622-1.623-.054-.92-.757-1.622-1.622-1.622zM4.325 3.514c-.594 0-1.08.487-1.08 1.082 0 .594.486 1.08 1.08 1.08.595 0 1.08-.486 1.08-1.08 0-.595-.485-1.08-1.08-1.08zm0 3.352c-.648 0-1.135.486-1.135 1.135 0 .65.486 1.135 1.134 1.135.65 0 1.135-.486 1.135-1.135 0-.65-.487-1.135-1.136-1.135zm0 3.405c-.594 0-1.08.487-1.08 1.08 0 .596.486 1.082 1.08 1.082.595 0 1.08-.487 1.08-1.082 0-.594-.485-1.08-1.08-1.08zM.975 7.028a.969.969 0 0 0-.974.973c0 .54.432.973.973.973.54 0 .973-.432.973-.973a.969.969 0 0 0-.973-.973z"/></svg>