<svg xmlns="http://www.w3.org/2000/svg" fill-rule="evenodd" stroke-miterlimit="1.414" clip-rule="evenodd" stroke-linejoin="round" viewBox="0 0 11.645999908447266 16.082000732421875"><path fill-rule="nonzero" d="M9.552 2.31l-.358 1.866c-.043.202-.297.415-.533.415H5.338c-.374 0-.642.256-.642.63v.406c0 .374.27.64.644.64h2.82c.263 0 .523.29.465.57-.057.283-.325 1.682-.357 1.837-.033.154-.21.42-.524.42H5.442c-.42 0-.546.053-.826.402-.28.35-2.804 3.378-2.804 3.378-.025.03-.05.02-.05-.01V2.282c0-.24.207-.52.518-.52h6.85c.25 0 .486.237.422.547zm.3 7.32c.096-.385 1.164-5.856 1.52-7.59M10.057 0H1.522C.345 0 0 .886 0 1.443v13.56c0 .627.336.86.526.937.19.077.713.142 1.027-.22 0 0 4.03-4.675 4.098-4.744.106-.105.106-.105.21-.105h2.607c1.095 0 1.27-.78 1.386-1.24.095-.385 1.163-5.856 1.52-7.59C11.646.713 11.31 0 10.056 0z"/></svg>