<svg xmlns="http://www.w3.org/2000/svg" fill-rule="evenodd" stroke-miterlimit="1.414" clip-rule="evenodd" stroke-linejoin="round" viewBox="0 0 16 16"><g fill-rule="nonzero"><path d="M8.827.002V1.55c.86.107 1.958.415 2.984 1.197l-.79 1.072-.01-.003s-.822-.696-2.184-.914v4.272h4.22a5.024 5.024 0 0 0-.775-2.08l1.124-.748s.84 1.14 1.015 2.83h1.588L16 .002H8.827zm2.89 15.468l-.4.065-.87-5.363.232-.037 4.377-.01-3.767 2.71.427 2.636zM8.825 8.826V16h7.172V8.827l-7.172-.002zm-4.522 4.502l.79-1.07h.012s.775.658 2.068.895V8.825H3.06a5 5 0 0 0 .783 2.157l-1.123.746s-.864-1.174-1.02-2.904H0v7.173h7.173v-1.486a6.123 6.123 0 0 1-2.87-1.182zM3.318 1.312c-.113 0-.206.07-.206.156s.092.155.206.155c.113 0 .205-.07.206-.155 0-.086-.093-.156-.206-.156z"/><path d="M3.337 1.74a.603.603 0 0 1-.604-.6.6.6 0 0 1 .604-.598c.334 0 .604.27.604.6a.6.6 0 0 1-.603.598zm-.89.04l-.692.35a4.37 4.37 0 0 1-.16-.206l-.873.326-.184-.29 1.375-.285.297-.062.486-.1-.413.154c.053.04.098.073.163.114zM1.116.51c.253.383.552.698.935.988l-.674.12A7.231 7.231 0 0 1 .71.485l.406.024zM.002 0v7.173h1.605c-.068-.656-.14-2.537.988-4.098 0 0-.25-.24-.587-.634l-.736.63-.318-.278 1.912-1.088-.225.192c.27.155.547.28.814.37 0 0 .93-.52 1.85-1.772l.22.005c-.17.556-.697 1.514-1.53 2.286 0 0 2.206.955 2.707 2.593-.134-.086-.927-.25-1.316-.16-.063-.11-.81-1.62-1.93-1.6 0 0-.252.297-.485 1.075-.206.69-.117 2.142-.09 2.48h4.295V0H.004z"/></g></svg>