<svg xmlns="http://www.w3.org/2000/svg" fill-rule="evenodd" stroke-miterlimit="1.414" clip-rule="evenodd" stroke-linejoin="round" viewBox="0 0 10.047663688659668 15.998802185058594"><path fill-rule="nonzero" d="M10.048 10.632V.328h-1.37v1.934h-.043a3.429 3.429 0 0 0-.556-.87 4.385 4.385 0 0 0-.815-.727 3.782 3.782 0 0 0-1.012-.49A4.008 4.008 0 0 0 5.069.002c-.81 0-1.533.15-2.163.446-.63.297-1.16.703-1.587 1.217A5.444 5.444 0 0 0 .34 3.469a7.027 7.027 0 0 0-.337 2.185c0 .797.094 1.547.283 2.25.19.703.49 1.315.903 1.837.413.52.938.93 1.576 1.227.637.297 1.405.446 2.303.446.827 0 1.548-.21 2.164-.63A4.02 4.02 0 0 0 8.635 9.11h.042v1.52c0 1.363-.282 2.406-.848 3.13-.565.726-1.485 1.088-2.76 1.088-.377 0-.747-.04-1.11-.12a3.393 3.393 0 0 1-.988-.38 2.533 2.533 0 0 1-.76-.685 2.43 2.43 0 0 1-.425-1.054H.416c.045.593.208 1.104.49 1.53.283.43.638.78 1.066 1.056.427.275.91.478 1.445.608.538.13 1.088.196 1.653.196.914 0 1.685-.123 2.316-.37.63-.246 1.14-.6 1.53-1.065.393-.464.68-1.03.86-1.695.18-.667.272-1.413.272-2.24zm-4.98-.37c-.636 0-1.187-.126-1.65-.38a3.472 3.472 0 0 1-1.153-1 4.227 4.227 0 0 1-.675-1.423 6.307 6.307 0 0 1-.217-1.653c0-.58.07-1.148.206-1.706.138-.558.36-1.055.663-1.49.305-.434.69-.786 1.153-1.054.463-.268 1.02-.402 1.673-.402s1.207.138 1.664.413c.456.276.83.638 1.12 1.087.29.45.5.95.63 1.5s.195 1.102.195 1.652c0 .566-.076 1.116-.228 1.653a4.382 4.382 0 0 1-.685 1.423 3.577 3.577 0 0 1-1.13 1c-.45.254-.972.38-1.567.38z"/></svg>