<svg xmlns="http://www.w3.org/2000/svg" fill-rule="evenodd" stroke-miterlimit="1.414" clip-rule="evenodd" stroke-linejoin="round" viewBox="0 0 16 10.180000305175781"><path d="M5.09 4.363v1.745h2.89c-.116.75-.873 2.197-2.887 2.197-1.737 0-3.155-1.44-3.155-3.215S3.353 1.875 5.09 1.875c.99 0 1.652.422 2.03.786l1.382-1.33C7.615.501 6.465.001 5.092.001 2.275 0 0 2.274 0 5.09s2.276 5.09 5.09 5.09c2.94 0 4.888-2.065 4.888-4.974 0-.334-.036-.59-.08-.843H5.09zm10.91 0h-1.455V2.908H13.09v1.455h-1.454v1.454h1.455v1.455h1.455V5.817H16"/></svg>