<svg xmlns="http://www.w3.org/2000/svg" fill-rule="evenodd" stroke-miterlimit="1.414" clip-rule="evenodd" stroke-linejoin="round" viewBox="0 0 14.563000679016113 16"><path d="M.04 0C.02.062 0 .123 0 .205v15.487c0 .144.04.226.122.308l7.61-8.062L.04 0zm8.206 8.472l1.968 2.03-2.81 1.6s-3.57 2.03-5.538 3.16l6.38-6.79zm.533-.554l2.112 2.195c.33-.185 2.913-1.662 3.282-1.867.39-.225.35-.533.02-.697-.307-.165-2.89-1.642-3.28-1.888L8.778 7.918zm-.534-.533l1.99-2.113-2.832-1.62S2.768 1.004 1.23.12l7.016 7.266z"/></svg>