<svg xmlns="http://www.w3.org/2000/svg" fill-rule="evenodd" stroke-miterlimit="1.414" clip-rule="evenodd" stroke-linejoin="round" viewBox="0 0 14.360000610351562 16"><path d="M12.92 0H1.44C.64 0 0 .64 0 1.44v13.12C0 15.36.64 16 1.44 16h11.48c.8 0 1.44-.64 1.44-1.44V1.44c0-.8-.64-1.44-1.44-1.44zm.64 14.56c0 .36-.28.64-.64.64H1.44c-.36 0-.64-.28-.64-.64V1.44c0-.36.28-.64.64-.64h11.48c.36 0 .64.28.64.64v13.12zM3.6 13.6L5.4 12l-1.8-1.6v3.2zm6.48-6.48c-.32-.32-.92-.72-1.92-.72-1.08 0-2.2.28-3 .56V2.4h-1.6v6.92l1.12-.52s1.84-.84 3.44-.84c.8 0 1 .44 1 .84v4.8h1.6V8.8c.04-.12.04-1-.64-1.68zM7.96 5h1.6c.72-.84 1.08-1.68 1.2-2.6h-1.6C9 3.32 8.6 4.16 7.96 5z"/></svg>