<svg xmlns="http://www.w3.org/2000/svg" fill-rule="evenodd" stroke-miterlimit="1.414" clip-rule="evenodd" stroke-linejoin="round" viewBox="0 0 10.670000076293945 16.00082015991211"><path d="M5.359 0a5.305 5.305 0 0 1 2.656.72A5.28 5.28 0 0 1 10.67.017V16C4.788 15.984 0 11.23.016 5.344V.016A5.273 5.273 0 0 1 2.671.72 5.275 5.275 0 0 1 5.336 0h.023zm2.278 1.943a2.285 2.285 0 0 0-2.28 2.075l-.01-.014-.01.014a2.288 2.288 0 0 0-2.27-2.09 2.286 2.286 0 0 0-.012 4.57c.45.003.866-.127 1.22-.35l1.062 1.068 1.07-1.062a2.282 2.282 0 1 0 1.23-4.21zm-.01 3.808a1.526 1.526 0 0 1-1.45-1.978c.118.265.383.45.693.452a.76.76 0 1 0 .313-1.454 1.526 1.526 0 0 1 1.972 1.46 1.525 1.525 0 0 1-1.528 1.52zm-4.57-.013a1.526 1.526 0 0 1-1.52-1.528 1.526 1.526 0 0 1 1.98-1.45.758.758 0 0 0-.453.692.76.76 0 1 0 1.455.314 1.527 1.527 0 0 1-1.461 1.972z"/></svg>