<svg xmlns="http://www.w3.org/2000/svg" fill-rule="evenodd" stroke-miterlimit="1.414" clip-rule="evenodd" stroke-linejoin="round" viewBox="0 0 16 5.284999847412109"><path fill-rule="nonzero" d="M2.517 1.648H1.71c-.28 0-.436.062-.436.062V0H0v5.283h1.274V3.172c0-.217.155-.373.342-.373h.745c.188 0 .343.156.343.342v2.144h1.274v-2.3c0-.963-.653-1.336-1.46-1.336m12.21 0v2.112a.345.345 0 0 1-.343.342h-.745a.345.345 0 0 1-.343-.342V1.648h-1.274v2.237c0 .9.59 1.398 1.46 1.398h1.243c.808 0 1.274-.558 1.274-1.397V1.648h-1.274zM7.55 3.76a.345.345 0 0 1-.342.342h-.746a.345.345 0 0 1-.342-.342V1.648H4.847v2.237c0 .9.59 1.398 1.46 1.398H7.55c.807 0 1.273-.558 1.273-1.397V1.648H7.55V3.76zm2.267 1.523h1.274V.002H9.818v5.28z"/></svg>