<svg xmlns="http://www.w3.org/2000/svg" fill-rule="evenodd" stroke-miterlimit="1.414" clip-rule="evenodd" stroke-linejoin="round" viewBox="0 0 15.089000701904297 16.774999618530273"><path d="M10.252 6.523c.947.952 1.72 2.51 1.278 3.435-1.186 2.476-10.028 6.817-10.78 6.066-.75-.75 3.594-9.597 6.07-10.783.925-.442 2.483.333 3.435 1.28l-.003.003zm4.686-1.045c-.155-.57-.548-1.144-1.134-1.213-1.074-.124-2.768 1.775-2.647 2.226.12.452 2.513 1.247 3.406.604.46-.33.526-1.046.375-1.616zM11.61.215c.798.216 1.605.766 1.7 1.588.175 1.506-2.488 3.88-3.12 3.71-.632-.167-1.745-3.523-.845-4.775C9.808.09 10.812 0 11.611.212v.003z"/></svg>