<svg xmlns="http://www.w3.org/2000/svg" fill-rule="evenodd" stroke-miterlimit="1.414" clip-rule="evenodd" stroke-linejoin="round" viewBox="0 0 16 16"><path fill-rule="nonzero" d="M14 0H2a2 2 0 0 0-2 2v12a2 2 0 0 0 2 2h12a2 2 0 0 0 2-2V2a2 2 0 0 0-2-2zm-3.867 2.933a.534.534 0 0 1 1.067 0v7.125a.534.534 0 0 1-1.067 0V2.933zm-2.666-.27a.533.533 0 1 1 1.066 0v7.734a.533.533 0 1 1-1.066 0V2.663zm-2.667.27a.534.534 0 0 1 1.067 0v7.125a.535.535 0 0 1-1.067 0V2.933zM2.133 4A.534.534 0 0 1 3.2 4v4.797a.534.534 0 0 1-1.067 0V4zm11.547 8.135c-.082.07-2.058 1.728-5.68 1.728s-5.598-1.657-5.68-1.728a.533.533 0 0 1 .692-.812c.032.027 1.796 1.474 4.988 1.474 3.232 0 4.97-1.457 4.986-1.472a.533.533 0 1 1 .694.81zm.187-3.338a.534.534 0 0 1-1.067 0V4a.533.533 0 0 1 1.067 0v4.797z"/></svg>