<svg xmlns="http://www.w3.org/2000/svg" fill-rule="evenodd" stroke-miterlimit="1.414" clip-rule="evenodd" stroke-linejoin="round" viewBox="0 0 9.182197570800781 16.000999450683594"><path d="M1.985 16a1.896 1.896 0 0 1-1.83-2.394l-.01-.005.06-.157L4.87 1.334c.07-.178.037-.606.004-.844a.344.344 0 0 1 .005-.16l.005-.01.004-.01V.305l.006-.012c.072-.195.3-.293.673-.293.448 0 1.067.14 1.7.382.532.205 1.016.46 1.356.717.4.302.56.572.47.805l-.014.028-.004.01a.351.351 0 0 1-.098.116c-.205.18-.508.488-.56.628l-4.715 12.28-.01-.005a1.918 1.918 0 0 1-1.696 1.04h-.008zM.527 13.522l-.014.033c-.298.8.108 1.704.91 2.012.18.07.367.102.558.102.647 0 1.22-.387 1.458-.993l.018-.042 4.64-12.06c.097-.26.56-.675.652-.758l.01-.01c.008-.004.013-.01.013-.014l.004-.004c.004-.034-.038-.178-.364-.43-.312-.237-.764-.475-1.27-.67C6.553.46 5.958.325 5.557.325c-.265 0-.354.056-.368.084v.028c.01.07.098.69-.023 1.01L.526 13.521zM6.493 5.85s-.642.74-1.228 1.006c-.587.266-1.02.196-1.547.504-.526.307-.792.735-.792.735L.783 13.67c-.232.63.112 1.366.75 1.613.64.247 1.36-.08 1.608-.704L6.493 5.85zm-3.287 6.657c.07-.028.15 0 .177.07.028.07 0 .148-.07.176-.07.028-.15 0-.177-.07a.135.135 0 0 1 .07-.176zm-.676-1.202a.198.198 0 0 1-.265-.103.197.197 0 0 1 .102-.265.198.198 0 0 1 .266.102c.05.102.005.218-.103.265zm.19-.73a.387.387 0 0 1 .192-.505c.19-.083.414 0 .502.19a.385.385 0 0 1-.19.504.382.382 0 0 1-.504-.19zm1.618-1.506a.197.197 0 0 1 .265.1.199.199 0 0 1-.102.267.198.198 0 0 1-.266-.103.195.195 0 0 1 .103-.265zm-.862-.92c.07-.027.15 0 .177.07.028.07 0 .15-.07.178-.07.028-.15 0-.177-.07a.137.137 0 0 1 .07-.177zM5.723.76c.066-.174.662-.108 1.33.15.666.256 1.153.606 1.086.78-.068.176-.664.11-1.33-.146C6.14 1.287 5.653.937 5.721.76z"/></svg>