<svg xmlns="http://www.w3.org/2000/svg" fill-rule="evenodd" stroke-miterlimit="1.414" clip-rule="evenodd" stroke-linejoin="round" viewBox="0 0 14.375999450683594 16.001998901367188"><path d="M13.855 12.452l-2.954-1.704-3.19 1.843v3.411l6.144-3.55zm-7.19 3.55v-3.413l-3.19-1.842-2.954 1.705 6.145 3.55zm.52-4.317l3.193-1.843V6.158l-3.19-1.841-3.19 1.842v3.685l3.188 1.84zM.001 4.455v7.095l2.954-1.706V6.16L0 4.454zm13.077.747l-1.656.957v3.683l2.954 1.706V4.452l-1.298.75zM.521 3.55l2.957 1.706 3.188-1.842V.002L.521 3.55zm10.38 1.706l2.955-1.706L7.71 0v3.414l3.19 1.842z"/></svg>