<svg xmlns="http://www.w3.org/2000/svg" fill-rule="evenodd" stroke-miterlimit="1.414" clip-rule="evenodd" stroke-linejoin="round" viewBox="0 0 16 15.489999771118164"><path fill-rule="nonzero" d="M12.91 6.194c.232 0 .42.19.42.42 0 .23-.188.42-.42.42h-1.17v.75h1.17a.42.42 0 1 1 0 .84h-1.59a.42.42 0 0 1-.418-.42v-3.18c0-.23.188-.42.42-.42h1.59a.42.42 0 0 1-.002.84h-1.17v.75h1.17zm-2.57 2.01a.421.421 0 0 1-.757.251l-1.63-2.217v1.966a.42.42 0 0 1-.42.42.42.42 0 0 1-.418-.42v-3.18a.418.418 0 0 1 .755-.249L9.5 6.99V5.024c0-.23.188-.42.42-.42.23 0 .42.19.42.42v3.18zm-3.828 0c0 .23-.188.42-.42.42a.42.42 0 0 1-.418-.42v-3.18c0-.23.188-.42.42-.42.23 0 .418.19.418.42v3.18zm-1.644.42h-1.59c-.23 0-.42-.19-.42-.42v-3.18c0-.23.19-.42.42-.42.232 0 .42.19.42.42v2.76h1.17a.42.42 0 1 1 0 .84M16 6.494C16 2.914 12.41 0 8 0S0 2.914 0 6.494c0 3.208 2.846 5.896 6.69 6.405.26.056.615.172.705.394.08.2.053.518.026.722 0 0-.092.565-.113.685-.035.203-.16.79.693.432.854-.36 4.607-2.714 6.285-4.646C15.445 9.218 16 7.926 16 6.494"/></svg>