<svg xmlns="http://www.w3.org/2000/svg" fill-rule="evenodd" stroke-miterlimit="1.414" clip-rule="evenodd" stroke-linejoin="round" viewBox="0 0 16.00020980834961 10.189537048339844"><path fill-rule="nonzero" d="M16 5.095a4.787 4.787 0 0 1-7.67 3.82A5.218 5.218 0 0 0 9.78 6.59h-.446A4.771 4.771 0 0 1 8 8.644 4.783 4.783 0 0 1 6.664 6.59H6.22c.27.902.778 1.7 1.45 2.327-.8.607-1.8.967-2.883.967A4.79 4.79 0 0 1 0 5.094a4.787 4.787 0 0 1 7.671-3.82 5.23 5.23 0 0 0-1.5 2.497h.442A4.8 4.8 0 0 1 8 1.547c.65.59 1.14 1.357 1.39 2.225h.44a5.23 5.23 0 0 0-1.5-2.498A4.788 4.788 0 0 1 16 5.094zM2.85 3.955h-.767l-.48 1.427-.02-1.428h-.71L.49 6.26h.46l.298-1.763.04 1.763h.337l.632-1.773-.283 1.773h.494l.38-2.307zm.917 1.47a.831.831 0 0 0-.11-.008c-.28 0-.42.096-.42.285 0 .118.068.192.176.192.2 0 .346-.193.354-.47zm.507-.16c.025-.157.04-.276.04-.372 0-.36-.225-.55-.65-.55-.18 0-.343.027-.59.1l-.068.42c.082-.026.282-.086.523-.083.23 0 .315.046.315.17a.44.44 0 0 1-.02.122 1.524 1.524 0 0 0-.2-.015c-.548 0-.867.266-.867.724 0 .303.184.512.45.512.227 0 .394-.073.52-.227l-.01.196h.408c.013-.142.105-.725.148-.996zm6.3-1.368c-.653 0-1.11.575-1.11 1.4 0 .614.33.996.862.996.137 0 .254-.018.436-.068l.087-.526a.957.957 0 0 1-.42.12c-.288 0-.46-.213-.46-.562 0-.508.257-.865.625-.865a.94.94 0 0 1 .442.125l.08-.5a1.656 1.656 0 0 0-.542-.12zM12 5.425a.842.842 0 0 0-.11-.008c-.28 0-.422.096-.422.285 0 .118.07.192.177.192.2 0 .346-.193.355-.47zm.506-.16c.025-.157.04-.276.04-.372 0-.36-.224-.55-.648-.55-.183 0-.345.027-.59.1l-.07.42a1.68 1.68 0 0 1 .523-.083c.23 0 .316.046.316.17a.44.44 0 0 1-.02.122 1.536 1.536 0 0 0-.2-.015c-.55 0-.867.266-.867.724 0 .303.182.512.45.512.225 0 .392-.073.517-.227l-.01.196h.41c.012-.142.105-.725.147-.996zm-5.95.552a.412.412 0 0 1-.134.017c-.117 0-.17-.043-.17-.14.002-.058.083-.503.14-.86h.253l.067-.45H6.46l.057-.284h-.49l-.215 1.28c-.03.2-.07.417-.067.5 0 .267.138.412.39.412.114 0 .22-.018.354-.06l.066-.416zm1.59-.067c-.176.083-.334.12-.51.12-.286 0-.46-.115-.427-.387h.978c.042-.19.06-.323.06-.46 0-.416-.258-.68-.663-.68-.494 0-.86.472-.86 1.113 0 .55.288.838.837.838.17 0 .334-.024.502-.076l.082-.467zm-.358-.646c.003-.04.053-.335-.228-.335-.156 0-.268.12-.314.334h.542zm-3.28-.127c0 .237.114.4.375.524.2.094.232.12.232.207 0 .117-.088.17-.283.17-.15 0-.286-.023-.444-.074l-.067.433c.11.024.21.047.512.055.52 0 .762-.198.762-.627 0-.256-.1-.408-.35-.522-.205-.095-.23-.116-.23-.203 0-.102.083-.154.243-.154.097 0 .23.01.354.03l.072-.436a3.398 3.398 0 0 0-.435-.036c-.552 0-.743.288-.742.635zm11.005-1.022h-.488l-.11.665c-.134-.177-.28-.255-.47-.255-.436 0-.804.526-.804 1.15 0 .47.237.778.596.778.182 0 .32-.063.455-.207l-.023.176h.467l.377-2.307zm-1.358 1.503c0-.37.16-.63.383-.63.168 0 .26.13.26.367 0 .372-.16.632-.39.632-.17 0-.254-.124-.254-.37zm-1.27-1.073c-.062.58-.172 1.168-.258 1.75l-.023.126h.494c.176-1.148.22-1.37.495-1.343.045-.235.127-.44.188-.545-.207-.042-.322.074-.474.296.012-.095.033-.19.03-.284h-.455zm-4.316 0c-.062.58-.17 1.168-.258 1.75l-.022.126h.494c.177-1.148.22-1.37.496-1.343.045-.235.127-.44.187-.545-.206-.042-.322.074-.472.296.01-.095.033-.19.03-.284H8.57zm6.957 1.96a.155.155 0 0 0 0-.31.155.155 0 0 0-.155.154c0 .085.07.155.155.155zm-.118-.156a.117.117 0 1 1 .234 0c0 .064-.05.118-.117.118a.119.119 0 0 1-.118-.118zm.096.015h.023l.02.05h.036l-.026-.058a.038.038 0 0 0 .024-.035c0-.014-.007-.028-.017-.034-.01-.007-.023-.007-.035-.007h-.057v.135h.03v-.05zm0-.06h.017c.006 0 .015 0 .02.002a.02.02 0 0 1 .008.015c0 .005-.002.012-.007.015-.006.003-.013.003-.02.003h-.017v-.034zm-.134 1.63zm.156.117a.117.117 0 0 0 .117-.117.118.118 0 1 0-.117.117zm-.022-.104h.023l.02.054h.036l-.026-.06a.038.038 0 0 0 .024-.035.044.044 0 0 0-.017-.034c-.01-.008-.023-.008-.035-.008h-.057v.137h.03v-.054zm0-.058h.018c.005 0 .014 0 .02.003.004.002.007.008.007.014s-.002.012-.007.015c-.005.003-.013.003-.02.003h-.017v-.035z"/></svg>