<svg xmlns="http://www.w3.org/2000/svg" fill-rule="evenodd" stroke-miterlimit="1.414" clip-rule="evenodd" stroke-linejoin="round" viewBox="0 0 15.975000381469727 13.532180786132812"><path d="M11.824 11.15l-.276.45.798.397 2.744 1.372c.15.076.294.11.418.11.278 0 .467-.177.467-.492V4.404l-4.15 6.745zm4.096-8.67c-.004-.004 0-.01-.003-.013L11.092.055a.511.511 0 0 0-.187-.044c-.016 0-.03-.01-.047-.01a.55.55 0 0 0-.467.254l-.24.39-.5.814-1.89 3.08 1.89 3.076.5.813.5.812.59.95 4.71-7.64c.02-.03.01-.06-.02-.08zM9.65 9.523L7.17 5.491l-.295-.477-.294-.477-.25-.416v4.867l3.32 1.663.5.25.5.25-.5-.813-.5-.813zM.737.201L.59.13A.545.545 0 0 0 .35.067c-.206 0-.35.16-.35.427v10.162c0 .272.2.594.442.716l4.145 2.08c.107.06.208.08.3.08.257 0 .438-.2.438-.53V2.532a.05.05 0 0 0-.03-.048L.738.201z"/></svg>