<svg xmlns="http://www.w3.org/2000/svg" fill-rule="evenodd" stroke-miterlimit="1.414" clip-rule="evenodd" stroke-linejoin="round" viewBox="0 0 16 15.711000442504883"><path fill-rule="nonzero" d="M15.702 1.923h-5.36v.992h1.58v1.57h-1.58v.505h1.58v1.57h-1.58v.514h1.58v1.482h-1.58v.595h1.58v1.49h-1.58v.595h1.58v1.498h-1.58v1.092h5.36c.084-.025.155-.124.212-.298.057-.175.086-.316.086-.424v-11c0-.085-.03-.136-.086-.154a.715.715 0 0 0-.212-.027zm-.695 10.81h-2.572v-1.497h2.572v1.498zm0-2.093h-2.572V9.15h2.572v1.49zm0-2.085h-2.572V7.076h2.572v1.48zm0-1.995h-2.572V4.99h2.572v1.57zm0-2.076h-2.572V2.916h2.572v1.57zM0 1.678v12.4l9.44 1.633V0L0 1.68zm5.595 9.378c-.036-.097-.205-.51-.505-1.242-.3-.73-.48-1.156-.533-1.277H4.54l-1.012 2.402-1.353-.09L3.78 7.851 2.31 4.856l1.38-.073.912 2.347h.018l1.03-2.454 1.425-.09-1.697 3.247 1.75 3.312-1.533-.09z"/></svg>