<svg xmlns="http://www.w3.org/2000/svg" fill-rule="evenodd" stroke-miterlimit="1.414" clip-rule="evenodd" stroke-linejoin="round" viewBox="0 0 16.000999450683594 15.163999557495117"><path fill-rule="nonzero" d="M15.66 2.247H9.964v2.125c.343-.26.755-.392 1.237-.392v2.065h2.048c-.012.58-.214 1.068-.606 1.463s-.878.598-1.46.61a2.122 2.122 0 0 1-1.218-.41v1.42h4.477v.697H9.965v.862h4.477v.688H9.965v1.56h5.696c.227 0 .34-.12.34-.358v-9.99c0-.227-.113-.34-.34-.34zm-4.137 3.458V3.622c.58.013 1.067.215 1.46.607.39.392.593.884.604 1.476h-2.064zm-6.018.035a.633.633 0 0 0-.175-.314.733.733 0 0 0-.322-.165 1.974 1.974 0 0 0-.46-.053l-.48.017v1.997h.017c.174.01.357.013.55.007.19-.006.37-.055.54-.148a.87.87 0 0 0 .373-.602c.04-.255.026-.502-.043-.74zM0 1.62v11.967l9.128 1.577V0L0 1.62zm6.81 5.392c-.25.58-.623.95-1.122 1.11-.5.16-1.04.222-1.62.187v2.282l-1.202-.14V4.19l1.907-.105a2.96 2.96 0 0 1 1.045.118c.343.102.614.307.815.615.2.307.313.664.34 1.07.025.407-.028.782-.162 1.125z"/></svg>