<svg xmlns="http://www.w3.org/2000/svg" fill-rule="evenodd" stroke-miterlimit="1.414" clip-rule="evenodd" stroke-linejoin="round" viewBox="0 0 15.999999046325684 15.11400032043457"><path fill-rule="nonzero" d="M15.965 6.346v2.395a.329.329 0 0 1-.1.24.33.33 0 0 1-.238.1h-.52V6.006h.52c.092 0 .172.034.238.1.067.067.1.146.1.24zm-.338 3.09c.092 0 .172.033.238.1.067.066.1.146.1.238v2.405a.329.329 0 0 1-.1.24.329.329 0 0 1-.238.098h-.52V9.436h.52zm0-6.86a.39.39 0 0 1 .256.1.308.308 0 0 1 .117.24v2.396c0 .098-.04.18-.117.243a.4.4 0 0 1-.256.094h-.86v7.397a.266.266 0 0 1-.104.222.38.38 0 0 1-.243.083H9.95v-1.51h3.472v-.713H9.95v-.85h3.472V9.6H9.95v-.876h3.472v-.67H9.95v-.858h3.472v-.677H9.95v-.87h3.472v-.676H9.95v-.85h3.472v-.712H9.95V1.718h4.592c.01 0 .05.03.112.09a.371.371 0 0 1 .113.23v.54h.86zM9.097 0v15.114L0 13.543V1.612L9.098 0zM6.502 4.48l-1.067.07v1.986c-.012 1.163-.012 1.835 0 2.014L3.308 4.67l-1.086.043v5.504l.85.062V6.223l2.293 4.176 1.137.07v-5.99z"/></svg>