<svg xmlns="http://www.w3.org/2000/svg" fill-rule="evenodd" stroke-miterlimit="1.414" clip-rule="evenodd" stroke-linejoin="round" viewBox="0 0 16.000999450683594 9.434825897216797"><g fill-rule="nonzero"><path d="M14.634 9.431a.538.538 0 0 1-.447-.83 4.41 4.41 0 0 0 .75-2.48 4.41 4.41 0 0 0-.75-2.48.533.533 0 0 1 .882-.595c.612.91.932 1.973.932 3.076s-.32 2.167-.932 3.076a.507.507 0 0 1-.434.234z"/><path d="M13.108 8.568a.53.53 0 0 1-.298-.092.527.527 0 0 1-.143-.736 2.875 2.875 0 0 0 0-3.236.528.528 0 0 1 .143-.737.529.529 0 0 1 .738.144c.446.657.68 1.423.68 2.212a3.9 3.9 0 0 1-.68 2.212.517.517 0 0 1-.44.235zM10.62 3.8A4.22 4.22 0 0 0 6.42 0a4.232 4.232 0 0 0-3.997 2.855A2.842 2.842 0 0 0 0 5.657a2.843 2.843 0 0 0 2.84 2.836h7.272a2.378 2.378 0 0 0 2.378-2.372c0-1.137-.8-2.086-1.87-2.32zm-.508 3.63h-7.27a1.78 1.78 0 0 1-1.78-1.772c0-.977.796-1.772 1.78-1.772.473 0 .92.184 1.257.52a.534.534 0 0 0 .753 0 .536.536 0 0 0 0-.753 2.828 2.828 0 0 0-1.31-.743 3.167 3.167 0 0 1 2.876-1.852 3.162 3.162 0 0 1 3.16 3.155c0 .337-.05.67-.16.99a.535.535 0 0 0 .504.703.534.534 0 0 0 .503-.367c.068-.21.12-.423.154-.64a1.309 1.309 0 0 1-.468 2.533z"/></g></svg>