<svg xmlns="http://www.w3.org/2000/svg" viewBox="0 0 15.418001174926758 15.418000221252441"><path d="M12.848 0H2.57A2.57 2.57 0 0 0 0 2.57v10.278a2.57 2.57 0 0 0 2.57 2.57h10.278a2.57 2.57 0 0 0 2.57-2.57V2.57A2.57 2.57 0 0 0 12.848 0zM7.924 10.468l-.556-4.342-1.657 2.98-1.666-2.97-.555 4.332H2.257l.898-6.48h.972l1.583 2.95 1.576-2.95h.972l.898 6.48h-1.23zm4.194-3.685H11.1v2.092c0 .704.056.74.704.74h.315l-.103.945h-.824c-.87 0-1.24-.61-1.24-1.213V6.782h-.66l.103-.944h.555V4.821l1.15-.12v1.14h1.017v.943zm1.078 3.778h-.954l.103-.954h.954l-.104.953z"/></svg>