<svg xmlns="http://www.w3.org/2000/svg" fill-rule="evenodd" stroke-miterlimit="1.414" clip-rule="evenodd" stroke-linejoin="round" viewBox="0 0 10.719066619873047 16"><path d="M5.344 16c-1.683 0-3.2-.738-4.226-2.092a5.162 5.162 0 0 1-1.108-3.24c0-.37.04-.74.123-1.068C.337 8.41 1.2 6.482 2.758 3.815 3.91 1.845 4.851.37 4.892.37c.082-.165.205-.37.45-.37.248 0 .37.205.494.37 0 0 .984 1.476 2.133 3.445C9.53 6.482 10.39 8.41 10.595 9.6c.083.328.124.697.124 1.067 0 1.19-.37 2.297-1.108 3.24C8.544 15.222 6.984 16 5.344 16zm0-1.395c1.27 0 2.42-.574 3.2-1.56.533-.696.82-1.558.82-2.46 0-.288-.04-.534-.082-.82-.164-.903-.862-2.462-2.05-4.555-.904-1.6-1.683-2.748-1.683-2.748l-.206-.288-.165.247s-.78 1.19-1.682 2.75c-1.23 2.092-1.928 3.65-2.05 4.553-.042.287-.083.533-.083.82 0 .903.287 1.724.82 2.462.74 1.026 1.888 1.6 3.16 1.6z"/></svg>