<svg xmlns="http://www.w3.org/2000/svg" fill-rule="evenodd" stroke-miterlimit="1.414" clip-rule="evenodd" stroke-linejoin="round" viewBox="0 0 15.999999046325684 9.774211883544922"><path fill-rule="nonzero" d="M13.202 5.074a2.54 2.54 0 0 0 2.545-2.536c0-1.4-1.14-2.536-2.545-2.536a2.542 2.542 0 0 0-2.546 2.537 2.541 2.541 0 0 0 2.546 2.537zm-5.735.47a2.286 2.286 0 0 0 2.29-2.283A2.287 2.287 0 0 0 7.467.978a2.286 2.286 0 0 0-2.29 2.284 2.286 2.286 0 0 0 2.29 2.283zm-5.201.423c1.14 0 2.063-.92 2.063-2.054a2.06 2.06 0 0 0-2.064-2.055c-1.14 0-2.062.92-2.062 2.056 0 1.134.923 2.053 2.062 2.053zm0 .47C.96 6.437 0 7.582 0 8.767v.798c0 .113.092.206.206.206h4.12a.206.206 0 0 0 .206-.206v-.798c0-1.186-.958-2.333-2.266-2.333zm5.201-.373c-1.453 0-2.52 1.276-2.52 2.593v.887c0 .126.104.23.23.23h4.58a.23.23 0 0 0 .228-.23v-.887c0-1.317-1.065-2.593-2.518-2.593zm5.735-.412c-1.615 0-2.798 1.417-2.798 2.882v.985c0 .14.114.254.254.254h5.087c.14 0 .255-.115.255-.254v-.985c0-1.465-1.184-2.882-2.798-2.882z"/></svg>