<svg xmlns="http://www.w3.org/2000/svg" fill-rule="evenodd" stroke-miterlimit="1.414" clip-rule="evenodd" stroke-linejoin="round" viewBox="0 0 15.996583938598633 9.666000366210938"><path fill-rule="nonzero" d="M12.088 6.133a1.7 1.7 0 0 1-.704.277c-.255.04-.508.033-.762.033H5.374c-.255 0-.508.008-.763-.033a1.717 1.717 0 0 1-.705-.278 1.577 1.577 0 0 1 .001-2.6 1.7 1.7 0 0 1 .704-.277c.254-.04.507-.033.762-.033h5.248c.255 0 .508-.008.762.033a1.7 1.7 0 0 1 .705.278 1.574 1.574 0 0 1 .001 2.6zm2.116-5.037a4.836 4.836 0 0 0-1.91-.933c-.4-.097-.803-.14-1.215-.153-.303-.01-.608-.007-.913-.007H5.831c-.305 0-.61-.003-.915.007A6.005 6.005 0 0 0 3.7.163c-.7.17-1.346.482-1.91.934a4.794 4.794 0 0 0 .001 7.473c.564.452 1.21.764 1.91.933.402.097.804.14 1.216.153.303.01.608.007.913.007h4.334c.305 0 .61.003.915-.007.41-.013.814-.056 1.216-.153.7-.17 1.346-.482 1.91-.934a4.792 4.792 0 0 0 0-7.473z"/></svg>