<svg xmlns="http://www.w3.org/2000/svg" fill-rule="evenodd" stroke-miterlimit="1.414" clip-rule="evenodd" stroke-linejoin="round" viewBox="0 0 16.131999969482422 16.274002075195312"><path fill-rule="nonzero" d="M0 8.053C0 4.326 3.027.833 7.018.333c2.86-.333 5.023.765 6.52 2.196 1.396 1.33 2.228 3.028 2.428 5.025.166 1.997-.266 3.728-1.43 5.36-1.164 1.596-3.46 3.36-6.32 3.36H4.324V8.586c.034-1.697.6-3.162 2.66-3.86 1.797-.533 3.893.465 4.525 2.362.664 2.03-.3 3.395-1.43 4.227-1.132.832-2.895.832-4.06.033v2.63c.766.365 1.73.465 2.43.43 2.526-.365 4.49-1.796 5.32-3.96.866-2.295.267-4.957-1.53-6.62-2.16-1.765-4.523-2.197-7.05-.966-1.763.898-2.994 2.728-3.294 4.724v8.687H.033L0 8.053z"/></svg>