<svg xmlns="http://www.w3.org/2000/svg" fill-rule="evenodd" stroke-miterlimit="1.414" clip-rule="evenodd" stroke-linejoin="round" viewBox="0 0 12.600000381469727 16"><path d="M6.39 16c1.25 0 6.21-5.626 6.21-9.397C12.6 2.993 9.78 0 6.39 0 2.82 0 0 2.992 0 6.603 0 10.373 4.96 16 6.39 16zM5.393 2.564a4.22 4.22 0 0 1 1.016-.123c2.008 0 3.725 1.7 3.725 3.906 0 1.988-1.717 3.688-3.725 3.688-2.228 0-3.945-1.7-3.945-3.688 0-.928.304-1.766.822-2.426v.012c0 .824.674 1.492 1.506 1.492S6.3 4.756 6.3 3.932c0-.612-.373-1.138-.906-1.368z"/></svg>