<svg xmlns="http://www.w3.org/2000/svg" fill-rule="evenodd" stroke-miterlimit="1.414" clip-rule="evenodd" stroke-linejoin="round" viewBox="0 0 16.000999450683594 14.288999557495117"><path fill-rule="nonzero" d="M12.535 5.984l-3.763 3.61a1.095 1.095 0 0 1-1.52 0L3.49 5.984a1.097 1.097 0 0 1 1.518-1.583l3.005 2.88 3.005-2.88a1.096 1.096 0 1 1 1.518 1.582zM15.923.956A1.454 1.454 0 0 0 14.56 0H1.452A1.458 1.458 0 0 0 0 1.451v4.828l.055.96c.232 2.184 1.365 4.092 3.12 5.423.03.024.063.047.095.07l.02.015a7.933 7.933 0 0 0 3.128 1.382c.524.105 1.06.16 1.592.16.492 0 .986-.046 1.472-.136.058-.013.116-.023.175-.037.016-.002.033-.01.05-.018a7.912 7.912 0 0 0 3.004-1.352l.02-.014.096-.072c1.754-1.33 2.887-3.24 3.12-5.423l.054-.96V1.451c0-.167-.02-.333-.08-.495z"/></svg>