<svg xmlns="http://www.w3.org/2000/svg" fill-rule="evenodd" stroke-miterlimit="1.414" clip-rule="evenodd" stroke-linejoin="round" viewBox="0 0 16.573999404907227 13.200000762939453"><path fill-rule="nonzero" d="M15.594 2.974c-1.85.054-4.084-1.398-4.95-1.945-.08-.05-.097-.098-.18-.14-.09-.05-.184-.097-.278-.144v5.34h-.002c.003.48-.204.983-.503 1.467l-.025.043c-.865 1.398-2.685 2.213-4.392 1.637-1.658-.56-2.1-2.166-1.223-3.586l.027-.042C4.93 4.207 6.75 3.39 8.457 3.968c.132.044.254.097.37.155V.26A7.436 7.436 0 0 0 6.884 0C2.934 0 0 2.957 0 6.6v.047C0 10.29 2.91 13.2 6.837 13.2c3.95 0 6.884-2.957 6.884-6.6v-.047c0-.284-.02-.563-.053-.837 2.057-.536 2.906-2.666 1.927-2.742"/></svg>