<svg xmlns="http://www.w3.org/2000/svg" fill-rule="evenodd" stroke-miterlimit="1.414" clip-rule="evenodd" stroke-linejoin="round" viewBox="0 0 16.022357940673828 11.455997467041016"><path d="M12.106 5.815v.002l-.22 1.975c-.927-.758-2.438-1.324-3.872-1.324-1.426 0-2.93.564-3.858 1.314l-.218-1.965v-.002a1.865 1.865 0 0 0-.74-1.477A4.845 4.845 0 0 1 8.014 0a4.846 4.846 0 0 1 4.818 4.352c-.437.34-.724.866-.726 1.464"/><path d="M11.618 10.047H4.425L4.18 8.123c.887-.857 2.272-1.362 3.834-1.362 1.57 0 2.962.508 3.848 1.375l-.244 1.91zm-7.913 1.4c-.756 0-.715-.013-.715-.77L1.824 7.964a1.868 1.868 0 1 1 1.935-1.87v.002l.498 4.48c0 .755.204.87-.552.87M14.22 7.964l-1.166 2.714c0 .757.04.778-.715.778-.756 0-.552-.123-.552-.88l.497-4.48a1.87 1.87 0 0 1 3.738.005c0 1.008-.8 1.83-1.802 1.864"/></svg>