<svg xmlns="http://www.w3.org/2000/svg" fill-rule="evenodd" stroke-miterlimit="1.414" clip-rule="evenodd" stroke-linejoin="round" viewBox="0 0 16.198999404907227 16.30900001525879"><path d="M13.604.42c2.023.35 2.595 1.732 2.553 3.18l.01-.02-.91 11.925-11.83.804.01-.006c-.982-.029-3.17-.121-3.27-3.185l1.096-1.997 1.88 4.39.335.783 1.862-6.095-.023.005.004-.018 6.168 1.97-.924-3.618-.66-2.608 5.874-.384-.415-.34-4.202-3.437 2.442-1.35zM.167 13.09v.018-.019zm3.42-9.343C5.961 1.392 9.025 0 10.201 1.186c1.175 1.186-.07 4.07-2.448 6.425-2.376 2.355-5.402 3.823-6.576 2.638-1.177-1.185.03-4.145 2.408-6.5z"/></svg>