<svg xmlns="http://www.w3.org/2000/svg" fill-rule="evenodd" stroke-miterlimit="1.414" clip-rule="evenodd" stroke-linejoin="round" viewBox="0 0 13.518001556396484 15.999999046325684"><path fill-rule="nonzero" d="M8.656 14.03c0-1.415 1.047-2.625 2.36-2.87-.062-1.314-.616-2.216-1.478-2.893-.862-.677-2.072-1.19-3.385-1.703C4.739 6.01 3.672 5.518 3.672 4.45c0-.9.78-1.578 2.092-1.578.8 0 1.313.123 1.58.266a.39.39 0 0 1-.062.206.733.733 0 0 0-.06.328c0 .902.655 1.702 1.824 1.702 1.067 0 1.703-.8 1.703-1.97 0-.983-.554-1.845-1.457-2.44C8.369.37 7.097 0 5.642 0 4.143.103 2.851.656 1.949 1.477a4.276 4.276 0 0 0-1.436 3.24c0 1.457.513 2.4 1.354 3.12.84.717 2.05 1.23 3.507 1.742 1.58.512 2.503 1.046 2.503 2.092 0 1.066-.923 1.702-2.38 1.702-.76 0-1.415-.123-1.97-.512.145-.267.145-.534.145-.8 0-.76-.677-1.703-1.846-1.703-1.046 0-1.826.8-1.826 1.968 0 .985.616 1.908 1.622 2.564.983.68 2.379 1.11 3.875 1.11 1.313 0 2.503-.246 3.426-.903a2.338 2.338 0 0 1-.267-1.066zm4.862 0c0 1.047-.842 1.847-1.847 1.847s-1.826-.8-1.826-1.846a1.83 1.83 0 0 1 1.826-1.825c1.005 0 1.846.82 1.846 1.826z"/></svg>