<svg xmlns="http://www.w3.org/2000/svg" fill-rule="evenodd" stroke-miterlimit="1.414" clip-rule="evenodd" stroke-linejoin="round" viewBox="0 0 12.330464363098145 16"><path d="M12.317 2.76l-.003 2.22H5.247a.266.266 0 0 0 0 .532l1.84-.01a5.246 5.246 0 0 1-.001 10.492L0 16l.003-2.25h7.09a3.003 3.003 0 0 0 0-6.007l-1.848-.02a2.482 2.482 0 1 1-.001-4.963h7.07zM.007 13.228l-.003-2.22h7.073a.258.258 0 0 0-.001-.515h-1.83A5.247 5.247 0 0 1 5.247 0l7.068.002.004 2.233-7.07.003a3.004 3.004 0 1 0-.001 6.007l1.847.02a2.481 2.481 0 0 1 0 4.962H.004z"/></svg>