<svg xmlns="http://www.w3.org/2000/svg" fill-rule="evenodd" stroke-miterlimit="1.414" clip-rule="evenodd" stroke-linejoin="round" viewBox="0 0 16.35999870300293 16.18199920654297"><path d="M15.628.727C10.531 0 5.78 0 .71.727 0 5.767 0 10.465.71 15.48c2.474.363 4.947.702 7.47.702 2.498 0 4.972-.34 7.446-.678.734-5.04.734-9.738 0-14.777zm-7.692 12.21c-1.37 0-2.817-.46-3.453-.8l.538-2.084c.71.462 1.788.922 2.964.922.93 0 1.494-.29 1.494-.872 0-.412-.293-.654-1.052-.848l-1.52-.412c-1.615-.437-2.374-1.261-2.374-2.569C4.533 4.7 5.757 3.44 8.28 3.44c1.324 0 2.646.363 3.38.727l-.636 1.986c-.735-.41-1.86-.75-2.816-.75-.907 0-1.3.29-1.3.727 0 .412.27.58.86.727l1.664.484c1.715.485 2.474 1.308 2.474 2.592-.05 1.793-1.64 3.004-3.968 3.004z"/></svg>