<svg xmlns="http://www.w3.org/2000/svg" fill-rule="evenodd" stroke-miterlimit="1.414" clip-rule="evenodd" stroke-linejoin="round" viewBox="0 0 10.25615406036377 16"><path d="M7.001 15h3v1h-10v-1h3v-4h1v4h2v-4h1v4zm-6-3.02V12c0 .74.2 1.432.552 2.027H.431A4.944 4.944 0 0 1 .001 12v-.02h1zm4-4.98a5.002 5.002 0 0 1 4.57 7.027h-1.12A4.001 4.001 0 0 0 5.003 8V7zm3 3h-6v1h6v-1zm-3-2c-2.208 0-4-1.792-4-4s1.792-4 4-4 4 1.792 4 4h-1a3.001 3.001 0 0 0-6 0c0 1.656 1.344 3 3 3v1zm0-6a2 2 0 1 1 0 4.001A2 2 0 0 1 5 2zm0 1a1 1 0 1 1 0 2 1 1 0 0 1 0-2z"/></svg>