<svg xmlns="http://www.w3.org/2000/svg" fill-rule="evenodd" stroke-miterlimit="1.414" clip-rule="evenodd" stroke-linejoin="round" viewBox="0 0 16.208961486816406 16.301036834716797"><path d="M5.31 8.156c.51.35 1.108.673 1.805.963 1.19.494 1.99.924 2.4 1.29.41.364.618.832.618 1.402-.003.972-.682 1.46-2.05 1.46-1.317 0-2.5-.418-3.55-1.25l-1.247 2.79c.947.507 1.718.838 2.316.997l.093.023-1.197.276a1.576 1.576 0 0 1-1.888-1.18L.195 4.489a1.577 1.577 0 0 1 1.182-1.89l2.916-.672c-.106.103-.204.21-.294.322l-.012.015c-.502.632-.754 1.41-.754 2.336 0 1.408.687 2.586 2.053 3.538l.025.017zm6.904.048c-.554-.447-1.27-.844-2.156-1.19-1.317-.523-2.175-.94-2.577-1.248-.4-.31-.605-.654-.605-1.038 0-.972.613-1.46 1.838-1.46 1.365 0 2.433.33 3.198.984l1.01-2.72a9.494 9.494 0 0 0-2.268-.817l-.037-.01c-.185-.04-.372-.074-.562-.104l1.757-.406a1.576 1.576 0 0 1 1.888 1.18l2.415 10.436a1.574 1.574 0 0 1-1.183 1.888l-1.99.46c.557-.705.837-1.566.837-2.586 0-1.048-.29-1.94-.87-2.68a4.318 4.318 0 0 0-.67-.668l-.025-.02z"/></svg>