<svg xmlns="http://www.w3.org/2000/svg" fill-rule="evenodd" stroke-miterlimit="1.414" clip-rule="evenodd" stroke-linejoin="round" viewBox="0 0 15.971000671386719 16"><path d="M7.972 0A7.998 7.998 0 0 0 0 7.358L4.288 9.13a2.26 2.26 0 0 1 1.4-.389l1.908-2.763v-.04a3.019 3.019 0 0 1 3.016-3.016 3.021 3.021 0 0 1 3.017 3.018 3.02 3.02 0 0 1-3.017 3.017h-.07l-2.718 1.94c0 .035.003.07.003.107a2.265 2.265 0 0 1-4.484.446L.276 10.18C1.226 13.538 4.309 16 7.971 16a8 8 0 0 0 0-16zm-2.96 12.14l-.982-.407c.175.362.476.666.876.833a1.7 1.7 0 0 0 1.307-3.138 1.7 1.7 0 0 0-1.252-.02l1.015.42a1.252 1.252 0 0 1-.963 2.311zm7.61-6.202c0-1.108-.902-2.01-2.01-2.01a2.01 2.01 0 1 0 2.01 2.01zm-3.516-.003a1.51 1.51 0 1 1 3.02 0 1.51 1.51 0 0 1-3.02 0z"/></svg>