<svg xmlns="http://www.w3.org/2000/svg" fill-rule="evenodd" stroke-miterlimit="1.414" clip-rule="evenodd" stroke-linejoin="round" viewBox="0 0 15.748908042907715 16"><path d="M7.874 0a8.001 8.001 0 0 0 0 16 8.001 8.001 0 0 0 0-16zm.998 7.11a.729.729 0 1 0 .457-1.292.728.728 0 0 0-.566 1.184l-.89.89L6.984 7a.729.729 0 1 0-1.292-.457.728.728 0 0 0 1.184.566l.89.89-.89.89a.729.729 0 1 0-.457 1.292.728.728 0 0 0 .566-1.184l.89-.89.89.89a.729.729 0 1 0 1.292.457.728.728 0 0 0-1.184-.566L7.983 8l.891-.89z"/></svg>