<svg xmlns="http://www.w3.org/2000/svg" fill-rule="evenodd" stroke-miterlimit="1.414" clip-rule="evenodd" stroke-linejoin="round" viewBox="0 0 16.00100326538086 11.671000480651855"><path d="M16 11.671H0v-.03c2.208-.336 4.824-.887 7.847-1.65 3.245-.82 5.963-1.66 8.153-2.524v4.204zM0 7.221c.454-.025.98-.063 1.578-.113 1.255-.105 2.833-.26 4.732-.463 1.225-.128 2.25-.223 3.074-.284.823-.06 1.467-.094 1.936-.1.914.007 1.407.15 1.478.43.08.322-.412.718-1.48 1.187-1.068.47-2.59.954-4.564 1.453-2.01.507-4.262.944-6.754 1.312V7.221zm.69 1.967c.04 0 .076.016.107.047a.157.157 0 0 1 0 .222.157.157 0 0 1-.11.044.16.16 0 0 1-.112-.045.127.127 0 0 1-.034-.05.164.164 0 0 1-.01-.06c0-.044.014-.08.045-.11a.152.152 0 0 1 .114-.047zm.54 0c.042 0 .078.016.11.047a.15.15 0 0 1 .044.11c0 .044-.015.08-.045.112a.162.162 0 0 1-.172.032.15.15 0 0 1-.05-.033.12.12 0 0 1-.035-.05.146.146 0 0 1-.012-.06c0-.044.016-.08.047-.11a.152.152 0 0 1 .114-.047zM.69 8.18c.04 0 .076.015.107.047a.15.15 0 0 1 .046.11c0 .043-.016.08-.046.11s-.067.046-.11.046a.15.15 0 0 1-.112-.046.153.153 0 0 1-.046-.11c0-.045.014-.082.045-.112.03-.03.07-.045.114-.045zm.54 0a.15.15 0 0 1 .11.047c.03.03.044.066.044.11a.15.15 0 0 1-.045.11.16.16 0 0 1-.112.046.146.146 0 0 1-.11-.046.146.146 0 0 1-.047-.11.158.158 0 0 1 .161-.157zM16 .9v3.21c-1.09.066-2.453.185-4.092.356-1.66.177-3.013.312-4.062.404-1.05.094-1.808.144-2.273.153-.908.025-1.394-.096-1.462-.364-.075-.303.468-.7 1.63-1.185 1.16-.497 2.692-.986 4.598-1.467 1.665-.42 3.553-.788 5.662-1.104zm-.57-.9c-2.17.404-4.418.9-6.743 1.487-3.63.916-6.525 1.828-8.687 2.73V0h15.43z"/></svg>