<svg xmlns="http://www.w3.org/2000/svg" fill-rule="evenodd" stroke-miterlimit="1.414" clip-rule="evenodd" stroke-linejoin="round" viewBox="0 0 16.652780532836914 14.81100082397461"><g fill-rule="nonzero"><path d="M7.122 12.422a7.484 7.484 0 0 1-.638-2.84 19.167 19.167 0 0 0-1.45 2.737c-.016.035-.253.622-.322.804a.45.45 0 0 0 .256.575c.182.07.776.286.813.298.762.256 1.816.56 2.97.748a7.495 7.495 0 0 1-1.63-2.324zm1.54-7.232C6.407.583 1.397.748.607 2.807 0 4.389 2.655 8.157 8.767 5.437l.002-.003c-.02-.038-.092-.2-.107-.242zm1.06-.315C8.472 1.778 10.657 0 11.859.462c.893.343 1.375 3.012-2.076 4.55h-.001c-.008-.023-.05-.115-.06-.137zm6.407 3.51a4.5 4.5 0 0 0-2.597-2.415.964.964 0 0 0-.34-.06c-.58 0-1.138.482-1.19 1.084-.09 1.004.11 2.026.55 3.01.43.973 1.044 1.794 1.833 2.397.205.16.456.233.707.233.452 0 .903-.24 1.082-.67a4.512 4.512 0 0 0-.045-3.578z"/><path d="M13.509 13.546c-.965-.74-1.73-1.733-2.274-2.954-.552-1.24-.777-2.492-.67-3.724.03-.343.13-.674.292-.976l-.092.023c-.508.127-1 .348-1.437.635-.633.417-1.192 1.034-1.432 1.764a2.684 2.684 0 0 0-.13.62 6.127 6.127 0 0 0 .514 2.973 6.11 6.11 0 0 0 1.79 2.31c.456.365 1.28.594 1.954.594.633 0 1.257-.188 1.818-.473.175-.09.56-.33.586-.348a2.602 2.602 0 0 1-.92-.444z"/></g></svg>