<svg xmlns="http://www.w3.org/2000/svg" fill-rule="evenodd" stroke-miterlimit="1.414" clip-rule="evenodd" stroke-linejoin="round" viewBox="0 0 13.894999504089355 16.030000686645508"><path fill-rule="nonzero" d="M4.305 6.33c.03.048.082.08.142.08a.16.16 0 0 0 .105-.038l.01-.008c.26-.217.494-.44.714-.678 2.14-2.322.885-5.173.872-5.2A.326.326 0 0 1 6.249.09c.123-.09.29-.08.402.022 7.244 6.743 5.328 11.88 5.188 12.226-.588 2.095-2.898 3.61-5.633 3.687-.071.005-.147.005-.221.005C2.75 16.03 0 14.037 0 11.492v-.04C0 7.92 3.197 4.436 3.34 4.289a.31.31 0 0 1 .35-.07.32.32 0 0 1 .194.304c-.023.692.118 1.296.42 1.802v.005z"/></svg>