<svg xmlns="http://www.w3.org/2000/svg" fill-rule="evenodd" stroke-miterlimit="1.414" clip-rule="evenodd" stroke-linejoin="round" viewBox="0 0 16 16"><path d="M8 16c-4.41 0-8-3.59-8-8s3.59-8 8-8 8 3.59 8 8-3.59 8-8 8zM8 .807A7.2 7.2 0 0 0 .807 8 7.2 7.2 0 0 0 8 15.193 7.2 7.2 0 0 0 15.193 8 7.2 7.2 0 0 0 8 .807zM3.26 12.354A6.4 6.4 0 0 0 8 14.43c.96 0 1.867-.21 2.685-.585L6.22 9.392l-2.96 2.962zm9.525-.045a6.425 6.425 0 0 0 1.657-4.31 6.443 6.443 0 0 0-3.713-5.834L6.673 6.21l6.11 6.1zM6.2 6.695l-3.382 3.37-.453-.453 3.558-3.558L10.077 1.9A6.47 6.47 0 0 0 8 1.56 6.439 6.439 0 0 0 1.558 8a6.38 6.38 0 0 0 1.293 3.867l3.37-3.37.233.22 4.83 4.83c.098-.055.187-.11.275-.177L6.22 8.033 2.984 11.27l-.453-.452 3.69-3.69.233.22 5.635 5.624c.09-.066.166-.143.243-.21L6.255 6.685l-.055.01zm2.032.685l-.452-.45 3.192-3.193.453.453-3.193 3.19zm3.028-4.386l-3.68 3.68-.453-.453 3.68-3.68.453.454z"/></svg>