<svg xmlns="http://www.w3.org/2000/svg" fill-rule="evenodd" stroke-miterlimit="1.414" clip-rule="evenodd" stroke-linejoin="round" viewBox="0 0 16.01000213623047 15.820440292358398"><path fill-rule="nonzero" d="M5.35 0L.01 3.028V10c-.01 3.202 2.61 5.806 5.85 5.816a5.912 5.912 0 0 0 2.943-.77l4.325-2.457a5.264 5.264 0 0 0 2.882-4.666V.64L14.95.03l-4.336 2.42v7.582a4.147 4.147 0 0 1-.102.957 5.482 5.482 0 0 1-.383 1.108c-.332-.022-1.03-.212-1.588-.54a5.114 5.114 0 0 1-.908-.676 4.264 4.264 0 0 1-.91-1.344 3.998 3.998 0 0 1-.247-.79 4.183 4.183 0 0 1-.068-.852L6.41.612 5.35 0zm2.458 14.388a4.87 4.87 0 0 1-.9.274 4.747 4.747 0 0 1-1.903-.007 4.733 4.733 0 0 1-1.713-.718c-.66-.46-1-.856-1.294-1.287a4.748 4.748 0 0 1-.717-1.697 4.761 4.761 0 0 1-.073-.957V3.632L5.21 1.218l-.004 6.673c-.008 2.536 1.88 4.652 4.294 5.164-.095.11-.163.22-.267.32a4.74 4.74 0 0 1-.71.585c-.256.17-.43.31-.715.428zm6.936-5.605c-.057.27-.14.535-.25.79-.292.637-.765 1.18-1.16 1.53-.81.733-1.816.96-1.932.96.242-.632.406-1.31.408-2.026V3.062l3.003-1.817.002 6.673c0 .288-.012.587-.07.865z"/></svg>