<svg xmlns="http://www.w3.org/2000/svg" fill-rule="evenodd" stroke-miterlimit="1.414" clip-rule="evenodd" stroke-linejoin="round" viewBox="0 0 14.33499813079834 16"><path d="M5.618 14.658h.02c.772 0 1.48-.187 2.125-.56a4.061 4.061 0 0 0 1.536-1.59 4.522 4.522 0 0 0 .568-2.22c0-.643-.114-1.237-.343-1.78.38-.08.84-.236 1.322-.533.287.702.432 1.463.432 2.284 0 1.532-.526 2.873-1.578 4.02C8.648 15.427 7.296 16 5.644 16c-1.66 0-3.015-.573-4.067-1.72C.527 13.133 0 11.792 0 10.26c0-1.522.498-2.84 1.494-3.957 1.095-1.23 2.478-1.846 4.15-1.846.704 0 1.356.11 1.957.328-.195.382-.372.85-.42 1.353-.477-.2-.99-.3-1.54-.3-1.158 0-2.152.435-2.983 1.303-.83.868-1.246 1.918-1.246 3.15 0 .793.19 1.533.57 2.22a4.058 4.058 0 0 0 2.9 2.084c4.137-1.603 3.65-9.443 3.62-9.874l.035.108c2.43 6.487-2.868 9.828-2.868 9.828-.016 0-.033 0-.05.002zM12.932.363c-.676 1.438-1.93 1.705-1.93 1.705-1.252.318-1.69.8-1.69.8-1.252 1.26-.266 2.788-.266 2.788 2.705-.616 3.693-2.838 3.693-2.838-.12 1.493-3.34 3.257-3.34 3.257 1.066 1.042 2.083.917 2.755.517.89-.53 1.318-1.69 1.318-1.69.863-2.58-.54-4.54-.54-4.54zM6.282 0a26.805 26.805 0 0 1 2.217 4.72V4.7C8.171 1.255 6.28 0 6.28 0z"/></svg>