<svg xmlns="http://www.w3.org/2000/svg" fill-rule="evenodd" stroke-miterlimit="1.414" clip-rule="evenodd" stroke-linejoin="round" viewBox="0 0 15.5989990234375 16.369998931884766"><path d="M13.549 1.803C13.151 1.437 11.545.27 7.965.253c0 0-4.22-.253-6.277 1.634C.543 3.033.14 4.707.098 6.787.055 8.863 0 12.758 3.755 13.813h.003l-.003 1.612s-.023.652.406.785c.52.16.824-.336 1.32-.87.273-.293.648-.724.932-1.054 2.567.216 4.542-.277 4.766-.35.518-.17 3.45-.544 3.928-4.438.492-4.015-.238-6.553-1.558-7.698zm.435 7.408c-.405 3.25-2.783 3.457-3.22 3.597-.188.06-1.923.492-4.103.35 0 0-1.625 1.96-2.132 2.47-.08.08-.173.11-.235.096-.087-.02-.11-.124-.11-.275 0-.216.014-2.677.014-2.677-.003 0-.002 0 0 0-3.176-.883-2.99-4.197-2.955-5.933.035-1.735.36-3.157 1.33-4.113 1.74-1.576 5.325-1.34 5.325-1.34 3.027.012 4.478.924 4.814 1.23 1.116.956 1.685 3.244 1.27 6.596zM4.842 3.563c.162 0 .307.073.42.207.002.002.387.464.553.69.158.213.368.553.475.743.19.34.07.688-.115.832l-.376.3c-.19.152-.165.436-.165.436s.555 2.105 2.635 2.635c0 0 .284.026.437-.164l.3-.377c.142-.186.49-.305.83-.115.19.107.53.317.744.474.226.166.688.55.69.552.22.186.27.46.12.748v.006c-.154.272-.36.527-.622.765l-.005.004c-.215.18-.426.28-.632.306a.88.88 0 0 1-.361-.035l-.007-.01c-.318-.09-.85-.315-1.735-.804a10.236 10.236 0 0 1-1.458-.963 7.565 7.565 0 0 1-.655-.58l-.045-.044-.022-.023-.022-.022a7.413 7.413 0 0 1-.58-.654 10.236 10.236 0 0 1-.964-1.458c-.49-.885-.714-1.417-.804-1.735l-.01-.007a.78.78 0 0 1-.04-.268.38.38 0 0 1 .004-.093c.025-.206.127-.417.306-.63 0-.004.002-.004.004-.006.238-.262.493-.47.765-.623h.006a.679.679 0 0 1 .322-.087h.006zm2.73-.456h.078l.048.002h.013l.054.003c.022 0 .044 0 .066.002l.034.002.04.003c.01 0 .018 0 .026.002.027 0 .053.004.08.006l.046.005.04.005.09.01.046.007.096.015.013.002a.853.853 0 0 1 .07.012h.006l.05.01c.022.005.043.01.064.013l.03.007.033.007.055.012.006.002.04.01.035.01.025.005.024.006.025.007.023.007.043.012.03.01.03.01.036.01.024.01c.017.005.035.01.053.017l.028.01.03.01.082.03.04.018.087.036.034.015.03.012c.018.01.037.017.056.026l.033.016.016.01.045.02.023.012.04.02.026.015.032.02.038.02.033.02a.082.082 0 0 1 .02.012l.04.022.03.02.048.03.028.016.047.03.005.005.03.02.063.044.03.02.026.02.02.015.03.022.055.043.04.032.03.024.014.012.018.016.054.046.03.025.018.017c.01.01.02.017.028.026l.03.026c.004.005.008.01.013.013l.085.08c.01.012.022.023.033.034.03.03.057.06.085.09l.022.024c.015.016.03.032.043.05l.022.023.107.13c.01.013.02.027.032.04.005.01.012.018.018.026l.065.09.022.03c.02.027.037.054.054.08l.048.078.037.062.04.067c.01.02.022.04.034.06l.008.02a.298.298 0 0 1 .02.04c.018.032.035.065.05.098.017.033.033.067.048.1l.022.05c.04.09.076.183.11.277a4.65 4.65 0 0 1 .189.738l.023.15a4.747 4.747 0 0 1 .045.452c.006.078.01.156.01.235.002.038.003.077.003.115l-.002.033-.008.033c-.004.01-.008.022-.014.032a.185.185 0 0 1-.04.052.203.203 0 0 1-.121.055h-.033a.162.162 0 0 1-.064-.015c-.02-.01-.04-.02-.056-.036a.173.173 0 0 1-.04-.053.182.182 0 0 1-.024-.062l-.003-.034v-.042c0-.058-.003-.115-.005-.172a5.083 5.083 0 0 0-.077-.707c-.007-.048-.017-.094-.026-.14l-.023-.1a1.473 1.473 0 0 0-.022-.09l-.016-.06-.03-.102a3.092 3.092 0 0 0-.08-.235 2.604 2.604 0 0 0-.065-.162l-.02-.043a3.7 3.7 0 0 0-.087-.18l-.02-.035a2.603 2.603 0 0 0-.15-.254c-.01-.018-.023-.035-.035-.053l-.01-.014a2.942 2.942 0 0 0-.248-.318l-.012-.014-.03-.034-.025-.026-.048-.05-.012-.013-.046-.045-.03-.03-.055-.05-.027-.025-.03-.027-.014-.01c-.016-.015-.032-.03-.05-.043-.015-.013-.03-.027-.047-.04l-.018-.015a.4.4 0 0 1-.04-.032l-.055-.042-.036-.027-.005-.005-.024-.016-.046-.034c-.006-.005-.012-.01-.018-.013-.01-.007-.02-.013-.028-.02a.065.065 0 0 1-.015-.01l-.005-.002-.024-.015c-.013-.01-.027-.018-.04-.027l-.03-.018-.052-.032-.044-.026-.004-.003-.025-.015-.024-.014h-.004l-.014-.01-.045-.023-.005-.003-.02-.01-.03-.016-.004-.002-.026-.013-.014-.007-.036-.017-.005-.004-.02-.01-.035-.016-.015-.007c-.02-.01-.042-.018-.062-.027l-.052-.02-.005-.004-.094-.036-.032-.012c-.01-.004-.02-.008-.032-.01l-.02-.01a.442.442 0 0 1-.055-.017l-.027-.01c-.005 0-.01-.002-.016-.004l-.038-.012-.023-.007-.033-.01h-.006l-.027-.01c-.007 0-.014-.003-.02-.005h-.007l-.024-.003-.016-.003-.005-.002-.03-.007h-.005a.09.09 0 0 0-.022-.006l-.028-.007h-.004a.252.252 0 0 0-.046-.01l-.006-.003-.04-.008c-.02-.004-.038-.008-.057-.01l-.005-.002-.03-.006-.033-.006-.035-.005-.04-.007-.042-.006-.12-.015-.04-.005h-.02a1.03 1.03 0 0 0-.078-.008l-.05-.004-.042-.003h-.026a.202.202 0 0 0-.036-.003l-.05-.002h-.03l-.052-.003h-.056l-.007-.002c-.012 0-.024 0-.035-.003a.211.211 0 0 1-.115-.062l-.02-.028a.26.26 0 0 1-.026-.06c-.005-.023-.007-.045-.005-.068a.16.16 0 0 1 .016-.064c.01-.02.022-.04.037-.055a.224.224 0 0 1 .116-.062c.01 0 .022 0 .033-.002h.01zm.37 1.05l.024.002.04.004c.006 0 .012 0 .02.002.015 0 .03.003.048.004l.043.005.015.003.03.003.032.005.033.005c.007 0 .013.002.02.003l.027.004.048.008.037.006c.006 0 .012.003.018.004l.037.007.014.002.077.016.033.007.03.007.032.008c.005 0 .01.002.014.003l.034.01.035.01.03.01c.008 0 .017.004.026.006.005.002.01.004.017.005.014.006.028.01.043.015l.02.006c.02.008.04.015.06.02l.033.013.033.013.073.03c.014.004.027.01.04.015l.024.012c.03.012.06.026.087.04l.035.016.035.018.034.018c.03.015.056.03.083.046l.02.01.025.016.015.01.05.03.025.017c.014.01.028.02.042.028l.018.014.02.014.03.023.038.03c.008.005.016.01.024.017.005.005.01.01.016.013l.023.02.026.02.022.02.035.03.022.02.01.01.058.055.01.01c.008.01.017.018.026.027l.01.012.03.03.026.03.02.02.027.033c.01.01.02.02.028.032l.06.074.016.02.038.05.015.02.008.014c.006.008.01.016.017.024l.016.024c.01.012.016.023.024.035.01.016.02.03.028.047.003.004.006.01.01.013l.023.04.014.025c.004.01.01.02.015.028l.018.033.023.044.018.037c.006.01.01.022.016.033a1.407 1.407 0 0 1 .049.11l.03.08a1.816 1.816 0 0 1 .058.17c.01.03.02.06.027.09l.03.118.03.163a2.755 2.755 0 0 1 .038.384l.003.144v.077l-.001.027c-.002.01-.004.02-.008.03-.007.022-.02.04-.033.06a.343.343 0 0 1-.05.043.207.207 0 0 1-.222-.005.227.227 0 0 1-.047-.046.188.188 0 0 1-.03-.06.15.15 0 0 1-.008-.032c0-.01 0-.022-.002-.034v-.137a2.629 2.629 0 0 0-.061-.535c-.015-.06-.03-.12-.048-.177l-.022-.067-.02-.056-.007-.02a.792.792 0 0 0-.033-.08c-.008-.02-.016-.04-.025-.058l-.05-.103-.045-.08c0-.003-.003-.006-.005-.01l-.02-.032-.003-.005c-.006-.01-.01-.018-.017-.027l-.03-.046-.028-.04c-.02-.03-.042-.06-.063-.087a3.308 3.308 0 0 0-.094-.113c-.01-.01-.018-.02-.026-.03l-.02-.02-.01-.012-.015-.016-.016-.015-.036-.037-.08-.075-.053-.044-.002-.002-.02-.016-.025-.02-.008-.006c-.006-.005-.012-.01-.018-.013l-.025-.02-.01-.006-.043-.03-.012-.008-.017-.012c-.007-.004-.014-.01-.022-.013-.014-.01-.028-.02-.042-.027l-.012-.008-.037-.022-.005-.004-.035-.02-.022-.01-.004-.003-.026-.014-.003-.002-.026-.014h-.005a.913.913 0 0 0-.07-.035c-.01-.006-.022-.01-.033-.016l-.024-.01-.017-.007-.03-.013-.026-.01-.04-.015-.035-.014H8.75l-.01-.005-.034-.01-.004-.002-.063-.02-.04-.012-.024-.005-.023-.007h-.004a.347.347 0 0 0-.046-.013l-.024-.006-.03-.007h-.005l-.016-.004h-.004l-.028-.007-.016-.004-.04-.008-.042-.008-.017-.003-.037-.006-.03-.005-.042-.006-.043-.006-.043-.005-.035-.004h-.017l-.045-.006-.045-.004-.035-.002-.033-.005-.032-.01a.213.213 0 0 1-.098-.089.189.189 0 0 1-.022-.129.194.194 0 0 1 .02-.063c.005-.01.01-.02.018-.028a.183.183 0 0 1 .05-.046.204.204 0 0 1 .092-.034h.039zm.298 1.086c.01 0 .02 0 .03.002.008 0 .018 0 .028.002l.033.003c.07.006.142.016.212.03l.07.016.017.005.076.02c.013.005.025.01.038.013l.025.01c.03.01.062.023.092.036l.007.004.035.016.06.03.014.008c.01.006.02.01.03.017.012.01.025.017.037.025.035.022.067.045.098.07l.07.06c.02.018.038.037.057.058l.04.046c.005.004.01.01.013.015l.016.02.025.033c.02.03.04.06.058.09l.048.09c.012.024.024.05.035.077a1.687 1.687 0 0 1 .085.264c.015.06.025.124.034.187l.01.097.006.09v.038a.225.225 0 0 1-.066.13.253.253 0 0 1-.067.04.255.255 0 0 1-.06.012c-.02 0-.04 0-.058-.006a.192.192 0 0 1-.063-.03.209.209 0 0 1-.056-.055.19.19 0 0 1-.03-.072l-.003-.02-.002-.036c0-.015 0-.03-.003-.045l-.007-.07-.012-.086-.013-.07-.01-.037a1.048 1.048 0 0 0-.108-.283l-.024-.04-.03-.045-.03-.036-.016-.018-.043-.045-.045-.04-.044-.03a.309.309 0 0 0-.037-.026l-.042-.024-.044-.023-.024-.01-.01-.006-.055-.02a.664.664 0 0 0-.058-.02l-.057-.016-.03-.007a.065.065 0 0 1-.02-.004l-.025-.004-.028-.006-.022-.003-.036-.005-.028-.004-.027-.003h-.027a.271.271 0 0 0-.04-.004c-.008 0-.016 0-.025-.002h-.01c-.003 0-.006 0-.01-.002-.006 0-.012-.002-.02-.004a.23.23 0 0 1-.054-.023.233.233 0 0 1-.06-.053.295.295 0 0 1-.03-.062.208.208 0 0 1 .052-.202.188.188 0 0 1 .114-.055c.012-.002.019-.002.025-.002h.02z"/></svg>