<svg xmlns="http://www.w3.org/2000/svg" fill-rule="evenodd" stroke-miterlimit="1.414" clip-rule="evenodd" stroke-linejoin="round" viewBox="0 0 16.000999450683594 10.338001251220703"><path d="M8.044 5.813c-.623 1.285-1.475 3.026-1.898 3.81-.41.715-.75.62-1.02.02-.935-2.21-2.856-6.084-3.76-8.256C1.199.987 1.073.73.954.629.834.529.586.469.208.449.068.432 0 .398 0 .343V.04L.034.01c.615-.003 3.594 0 3.594 0l.034.03v.288c0 .08-.05.118-.15.118l-.375.015c-.322.014-.483.11-.483.288 0 .083.034.22.11.4.72 1.755 3.206 7 3.206 7l.09.023 1.604-3.2c-.196-.432-.32-.71-.32-.71L6.24 2.101s-.212-.433-.285-.577C5.471.564 5.482.514 4.992.448 4.855.43 4.784.413 4.784.345V.04l.04-.03H7.68l.075.024v.302c0 .07-.05.104-.15.104l-.206.03c-.523.04-.438.254-.09.946l1.057 2.163 1.17-2.333c.195-.426.155-.533.074-.632-.046-.055-.202-.145-.54-.158L8.937.441a.15.15 0 0 1-.096-.034.1.1 0 0 1-.046-.085V.035l.04-.03c.83-.005 2.69 0 2.69 0l.032.03v.29c0 .08-.045.118-.133.118-.433.02-.522.063-.68.292-.087.124-.258.392-.435.692L8.789 4.27l-.043.09 1.858 3.8.113.032 2.926-6.945c.102-.28.086-.48-.044-.595-.13-.114-.224-.182-.563-.196l-.275-.012a.16.16 0 0 1-.096-.035.102.102 0 0 1-.046-.085v-.29l.042-.028h3.306l.034.03v.288c0 .08-.045.118-.133.118-.433.02-.754.114-.962.28-.21.17-.37.403-.488.706 0 0-2.69 6.16-3.612 8.208-.353.67-.7.61-1.004-.02-.38-.786-1.174-2.52-1.756-3.802z"/></svg>