<svg xmlns="http://www.w3.org/2000/svg" fill-rule="evenodd" stroke-miterlimit="1.414" clip-rule="evenodd" stroke-linejoin="round" viewBox="0 0 16.182743072509766 16"><path fill-rule="nonzero" d="M14.312 4.55a7.19 7.19 0 0 1-2.696 9.667l2.197-6.352c.41-1.026.547-1.847.547-2.576 0-.266-.018-.512-.048-.74m-5.32.077c.432-.022.822-.068.822-.068.388-.047.342-.616-.045-.594 0 0-1.167.092-1.92.092-.705 0-1.893-.092-1.893-.092-.388-.022-.433.57-.046.593 0 0 .368.045.756.067l1.12 3.07-1.574 4.72-2.62-7.79c.434-.022.824-.068.824-.068.387-.047.342-.616-.046-.594 0 0-1.165.092-1.917.092-.135 0-.294-.004-.463-.01a7.198 7.198 0 0 1 10.867-1.346c-.03-.002-.06-.006-.093-.006-.707 0-1.208.615-1.208 1.276 0 .593.342 1.095.706 1.687.274.48.594 1.095.594 1.984 0 .615-.237 1.33-.548 2.325l-.717 2.397-2.6-7.733zM8 15.193a7.212 7.212 0 0 1-2.032-.293l2.158-6.27 2.21 6.056c.016.035.033.068.052.1A7.2 7.2 0 0 1 8 15.193M.807 8c0-1.043.224-2.033.623-2.927l3.43 9.4A7.196 7.196 0 0 1 .808 8M8 0C3.59 0 0 3.59 0 8s3.59 8 8 8 8-3.59 8-8-3.59-8-8-8"/></svg>