<svg xmlns="http://www.w3.org/2000/svg" fill-rule="evenodd" stroke-miterlimit="1.414" clip-rule="evenodd" stroke-linejoin="round" viewBox="0 0 12.241999626159668 16.201000213623047"><path d="M12.213 12.298c-.094.646-1.414 2.323-2.02 2.565-.207.083-.408.063-.566-.06-.103-.08-.21-.244-1.633-2.552l-.422-.688c-.162-.247-.132-.572.07-.82.197-.24.487-.33.74-.233.014.008 1.065.354 1.065.354 2.392.786 2.47.816 2.572.892.154.124.223.317.193.542zM7.418 8.786c-.17-.257-.167-.56.007-.77l.666-.906c1.457-1.99 1.535-2.095 1.64-2.164.17-.114.373-.12.577-.022.578.282 1.748 2.02 1.818 2.687v.023c.014.227-.07.412-.233.523-.108.07-.212.106-2.933.765-.437.104-.678.163-.812.213l.015-.023c-.272.076-.57-.055-.745-.324zm-1.67-1.03c-.13.04-.526.163-1.013-.625 0 0-3.288-5.174-3.365-5.333-.047-.18.01-.383.17-.548C2.03.743 4.685 0 5.38.17c.227.058.383.2.438.403.04.223.363 5.024.41 6.1.044.92-.35 1.044-.48 1.083zm.434 5.262c-.007 2.517-.012 2.6-.054 2.72-.07.188-.23.312-.454.353-.64.11-2.645-.63-3.063-1.126a.618.618 0 0 1-.145-.327.472.472 0 0 1 .03-.23c.043-.127.118-.225 1.922-2.342l.526-.622c.18-.225.5-.296.797-.18.29.11.466.36.448.63l-.006 1.124zM.726 11.409a.563.563 0 0 1-.476-.322c-.075-.142-.127-.38-.16-.667C0 9.552.11 8.244.37 7.828c.122-.19.3-.29.497-.283.13.002.246.044 2.82 1.106l.753.305c.27.102.437.384.42.704-.02.312-.198.555-.463.623-.005.003-1.07.342-1.07.342-2.394.77-2.473.792-2.6.786zm9.986 4.735h-.002l-.004.002.006-.002z"/></svg>