<svg xmlns="http://www.w3.org/2000/svg" fill-rule="evenodd" stroke-miterlimit="1.414" clip-rule="evenodd" stroke-linejoin="round" viewBox="0 0 16 11.302000999450684"><path d="M0 5.021c0-1.294.16-2.59.16-2.59s.156-1.1.636-1.587C1.404.207 2.204.227 2.56.16 3.84.036 8 0 8 0s3.362.004 5.6.166c.314.038.996.04 1.604.678.48.486.636 1.588.636 1.588s.16 1.294.16 2.59V6.28c0 1.296-.16 2.59-.16 2.59s-.156 1.102-.636 1.588c-.608.638-1.29.64-1.604.678-2.238.162-5.6.166-5.6.166s-4.16-.037-5.44-.16c-.356-.067-1.156-.047-1.764-.684C.316 9.971.16 8.871.16 8.871S0 7.576 0 6.281v-1.26zm6.348 2.73V3.256l4.323 2.255-4.32 2.24h-.002z"/></svg>