<svg viewBox="0 0 1195 1195" xmlns="http://www.w3.org/2000/svg"><path d="M949.333 193h-704q-13 0-22.5 9t-9.5 23v832q0 13 9.5 22.5t22.5 9.5h704q13 0 22.5-9.5t9.5-22.5V225q0-14-9.5-23t-22.5-9zm-32 832h-640V257h640v768zm-544-450h448q13 0 22.5-9.5t9.5-22.5V353q0-13-9.5-22.5t-22.5-9.5h-448q-13 0-22.5 9.5t-9.5 22.5v189q0 14 9.5 23.5t22.5 9.5zm32-190h384v125h-384V385zm-32 383h32v32q0 13 9 22.5t23 9.5q13 0 22.5-9.5t9.5-22.5v-32h31q13 0 22.5-9.5t9.5-22.5-9.5-22.5-22.5-9.5h-31v-32q0-13-9.5-22.5t-22.5-9.5q-14 0-23 9.5t-9 22.5v32h-32q-13 0-22.5 9.5t-9.5 22.5 9.5 22.5 22.5 9.5zm0 193h127q13 0 22.5-9.5t9.5-22.5-9.5-22.5-22.5-9.5h-127q-13 0-22.5 9.5t-9.5 22.5 9.5 22.5 22.5 9.5zm448-321h-127q-14 0-23 9.5t-9 22.5 9 22.5 23 9.5h127q13 0 22.5-9.5t9.5-22.5-9.5-22.5-22.5-9.5zm0 129h-127q-14 0-23 9.5t-9 22.5q0 14 9 23t23 9h127q13 0 22.5-9t9.5-23q0-13-9.5-22.5t-22.5-9.5zm0 128h-127q-14 0-23 9.5t-9 22.5 9 22.5 23 9.5h127q13 0 22.5-9.5t9.5-22.5-9.5-22.5-22.5-9.5z"/></svg>