<svg viewBox="0 0 1195 1195" xmlns="http://www.w3.org/2000/svg"><path d="M1045.333 318h-192v-94q0-13-9.5-22.5t-22.5-9.5-22.5 9.5-9.5 22.5v94h-192v-94q0-13-9.5-22.5t-22.5-9.5-22.5 9.5-9.5 22.5v94h-192v-94q0-13-9.5-22.5t-22.5-9.5-22.5 9.5-9.5 22.5v94h-128q-26 0-45 19t-19 45v640q0 27 19 45.5t45 18.5h896q26 0 45-18.5t19-45.5V382q0-26-19-45t-45-19zm-768 75v23q0 13 9.5 22.5t22.5 9.5 22.5-9.5 9.5-22.5v-23h192v23q0 13 9.5 22.5t22.5 9.5 22.5-9.5 9.5-22.5v-23h192v23q0 13 9.5 22.5t22.5 9.5 22.5-9.5 9.5-22.5v-23h181v119h-867q-3 0-7 1V393h117zm-117 618V575q4 1 7 1h867v435h-874zm597-369h-320q-13 0-22.5 9.5t-9.5 22.5 9.5 22.5 22.5 9.5h320q13 0 22.5-9.5t9.5-22.5-9.5-22.5-22.5-9.5zm0 192h-320q-13 0-22.5 9.5t-9.5 22.5 9.5 22.5 22.5 9.5h320q13 0 22.5-9.5t9.5-22.5-9.5-22.5-22.5-9.5z"/></svg>