<svg viewBox="0 0 1195 1195" xmlns="http://www.w3.org/2000/svg"><path d="M835.333 145q-16-17-40-17h-378q-28 0-49 18.5t-25 45.5h-79q-48 0-81.5 33.5t-33.5 81.5v730q0 48 33.5 81.5t81.5 33.5h604q48 0 81.5-33.5t33.5-81.5v-80q27-5 44.5-26t17.5-48V378q0-24-17-40zm117 207h-159V193zm-33 685q0 21-14.5 36t-35.5 15h-605q-21 0-36-15t-15-36V307q0-21 15-36t36-15h78v627q0 31 22 53t53 22h502v79zm62-155q0 12-12 12h-552q-4 0-7.5-3.5t-3.5-8.5V204q0-5 3.5-8.5t7.5-3.5h308v192q0 13 9.5 22.5t22.5 9.5h224v466zm-160-307h-255q-13 0-22.5-9.5t-9.5-22.5 9.5-22.5 22.5-9.5h255q13 0 22.5 9.5t9.5 22.5-9.5 22.5-22.5 9.5zm0 129h-255q-13 0-22.5-9.5t-9.5-22.5 9.5-22.5 22.5-9.5h255q13 0 22.5 9.5t9.5 22.5-9.5 22.5-22.5 9.5zm-128 129h-128q-13 0-22.5-9.5t-9.5-22.5 9.5-22.5 22.5-9.5h128q14 0 23 9.5t9 22.5-9 22.5-23 9.5z"/></svg>