<svg viewBox="0 0 1195 1195" xmlns="http://www.w3.org/2000/svg"><path d="M722.333 192l195 218v669q0 3-4 6t-9 3h-614q-5 0-9-3t-4-6V201q0-3 4-6t9-3h432zm29-64h-461q-32 0-54.5 21.5t-22.5 51.5v878q0 30 22.5 51.5t54.5 21.5h614q32 0 54.5-21.5t22.5-51.5V385zm-26 256V128h-64v256q0 26 19 45t45 19h253v-64h-253zm33 130q-14 0-22 10l-139 167-139-167q-8-10-22-10-18 0-25.5 16.5t3.5 30.5l146 175-146 175q-11 14-3.5 30.5t25.5 16.5q14 0 22-10l139-168 139 168q8 10 22 10 18 0 25.5-16.5t-3.5-30.5l-146-175 146-176q11-13 3.5-29.5t-25.5-16.5z"/></svg>