<svg viewBox="0 0 1195 1195" xmlns="http://www.w3.org/2000/svg"><path d="M1020.833 363.5q-81.5-81.5-197.5-81.5-54-1-105 20-52 21-92 60l-268 269q-46 45-45.5 110t46 110.5 109.5 45.5h1q64 0 109-45l236-236q9-9 9-22.5t-9-22.5q-9-10-22.5-10t-22.5 10l-236 235q-26 27-64 27h-1q-38 0-64.5-27t-27-65 26.5-65l269-268q62-62 151-62t152 63 63 152-62 151l-285 285q-91 91-221 91t-222-92-92-222 91-221l367-368q10-9 10-22.5t-10-22.5q-9-10-22-10t-23 10l-368 368q-53 53-82 124-27 68-27 142t28 142q28 71 83 125 54 54 125 83 67 28 142 28h1q73 0 141-27 70-28 124-82l285-285q40-40 61-93 20-50 20-104 0-116-81.5-197.5z"/></svg>