<svg viewBox="0 0 1195 1195" xmlns="http://www.w3.org/2000/svg"><path d="M597.333 128q-139 0-257 68.5T153.833 383t-68.5 257 68.5 257 186.5 186.5 257 68.5 257-68.5 186.5-186.5 68.5-257-68.5-257-186.5-186.5-257-68.5zm317 829q-62 62-143 96-83 35-174 35t-174-35q-81-34-143-96t-96-143q-35-83-35-174t35-174q34-81 96-143t143-96q83-35 174-35t174 35q81 34 143 96t96 143q35 83 35 174t-35 174q-34 81-96 143zm-339-455q9 9 22.5 9t22.5-9l125-125q9-9 9-22.5t-9-22.5q-9-10-22.5-10t-22.5 10l-103 102-103-102q-9-10-22.5-10t-22.5 10q-9 9-9 22.5t9 22.5zm247 72h-448q-14 0-23 9.5t-9 22.5 9 22.5 23 9.5h191v132h-125q-14 0-23 9.5t-9 22.5 9 22.5 23 9.5h125v92q0 13 9.5 22.5t22.5 9.5 22.5-9.5 9.5-22.5v-92h128q14 0 23-9.5t9-22.5-9-22.5-23-9.5h-128V638h193q14 0 23-9.5t9-22.5-9-22.5-23-9.5z"/></svg>