<svg viewBox="0 0 1195 1195" xmlns="http://www.w3.org/2000/svg"><path d="M388.333 296q2 10 1 20l-1 36 29 23 214 170 30 24 37-12q44-15 90-15 49 0 95 16 26 10 51 24l-169 170-43 43-13 13-169 170q-27-45-36-96-13-72 10-141l12-37-24-30-170-214-23-29-36 1h-4q-8 0-16-1zm15-103q-14 0-24 10l-219 219q-11 11-9.5 27t14.5 24q48 31 104 31h6l170 215q-28 84-11.5 175.5t74.5 163.5q11 13 27 13 14 0 24-10l206-207 223 223q10 10 23.5 10t23-9.5 9.5-23-10-23.5l-223-223 206-207q11-11 10-26t-13-25q-98-80-226-80-57 0-112 18l-215-170q2-60-30-110-10-15-28-15z"/></svg>