<svg viewBox="0 0 1195 1195" xmlns="http://www.w3.org/2000/svg"><path d="M972.333 328l-191-191q-10-9-23-9t-23 9q-9 10-9 23t9 23l137 137-755-1q-13 0-22.5 9.5t-9.5 22.5v256q0 13 9.5 22.5t22.5 9.5 22.5-9.5 9.5-22.5V384h722l-135 135q-10 10-10 23t10 23q9 9 22.5 9t22.5-9l191-191q9-10 9-23t-9-23zm-750 624l191 191q10 9 23 9t23-9q9-10 9-23t-9-23l-137-137 755 1q13 0 22.5-9.5t9.5-22.5V673q0-13-9.5-22.5t-22.5-9.5-22.5 9.5-9.5 22.5v223h-722l136-135q9-10 9-23t-9-23q-10-9-23-9t-23 9l-191 191q-9 10-9 23t9 23z"/></svg>