<svg viewBox="0 0 1195 1195" xmlns="http://www.w3.org/2000/svg"><path d="M1100.333 373l-236-236q-9-9-22-9h-693q-26 0-45 19t-19 45v896q0 26 19 45t45 19h896q26 0 45-19t19-45V395q0-13-9-22zm-374 11h-386V192h386v192zm319 704h-896V192h127v192q0 26 19 45t45 19h386q26 0 45-19t19-45V192h39l216 216v680zm-319-479q0 13-9.5 22.5t-22.5 9.5h-386q-13 0-22.5-9.5t-9.5-22.5 9.5-22.5 22.5-9.5h386q13 0 22.5 9.5t9.5 22.5zm0 190q0 13-9.5 22.5t-22.5 9.5h-386q-13 0-22.5-9.5t-9.5-22.5 9.5-22.5 22.5-9.5h386q13 0 22.5 9.5t9.5 22.5z"/></svg>