<svg viewBox="0 0 1195 1195" xmlns="http://www.w3.org/2000/svg"><path d="M149.333 128q-26 0-45 19t-19 45v157q0 14 9.5 23.5t23.5 9.5 23.5-9.5 9.5-23.5V226q0-13 9.5-22.5t22.5-9.5h123q14 0 23.5-9.5t9.5-23.5-9.5-23.5-23.5-9.5h-157zm-64 960q0 26 19 45t45 19h157q14 0 23.5-9.5t9.5-23.5-9.5-23.5-23.5-9.5h-123q-13 0-22.5-9.5t-9.5-22.5V931q0-14-9.5-23.5t-23.5-9.5-23.5 9.5-9.5 23.5v157zm960 64q26 0 45-19t19-45V931q0-14-9.5-23.5t-23.5-9.5-23.5 9.5-9.5 23.5v123q0 13-9.5 22.5t-22.5 9.5h-123q-14 0-23.5 9.5t-9.5 23.5 9.5 23.5 23.5 9.5h157zm-2-1024h-155q-14 0-23.5 9.5t-9.5 23.5 9.5 23.5 23.5 9.5h123q13 0 22.5 9.5t9.5 22.5v123q0 14 9.5 23.5t23.5 9.5 23.5-9.5 9.5-23.5V192q0-26-19-45t-45-19h-2zm-766 256v512q0 26 19 45t45 19h512q26 0 45-19t19-45V384q0-26-19-45t-45-19h-512q-26 0-45 18.5t-19 45.5zm546 514h-452q-13 0-22.5-9.5t-9.5-22.5V414q0-13 9.5-22.5t22.5-9.5h452q13 0 22.5 9.5t9.5 22.5v452q0 13-9.5 22.5t-22.5 9.5z"/></svg>