<svg viewBox="0 0 1196 1196" xmlns="http://www.w3.org/2000/svg"><path d="M1013.417 257h-832q-40 0-68 28t-28 68v578q0 40 28 68t68 28h334q13 0 22.5-9.5t9.5-22.5-9.5-22.5-22.5-9.5h-334q-13 0-22.5-9.5t-9.5-22.5V353q0-13 9.5-22.5t22.5-9.5h832q14 0 23 9.5t9 22.5v546q0 13 9.5 22.5t22.5 9.5q14 0 23-9.5t9-22.5V353q0-40-28-68t-68-28zm-351 225q0-13-9.5-22.5t-22.5-9.5h-384q-13 0-22.5 9.5t-9.5 22.5 9.5 22.5 22.5 9.5h384q13 0 22.5-9.5t9.5-22.5zm-128 127q0-13-9.5-22.5t-22.5-9.5h-256q-13 0-22.5 9.5t-9.5 22.5q0 14 9.5 23t22.5 9h256q13 0 22.5-9t9.5-23zm-288 96q-13 0-22.5 9.5t-9.5 22.5 9.5 22.5 22.5 9.5h192q13 0 22.5-9.5t9.5-22.5-9.5-22.5-22.5-9.5h-192zm681 184q-20-20-44-33 35-37 35-88 0-53-37.5-90.5t-90.5-37.5-90.5 37.5-37.5 90.5q0 51 35 88-24 13-44 33-56 55-56 134v35q0 13 9.5 22.5t22.5 9.5q14 0 23-9.5t9-22.5v-35q0-52 37-89t89-37h6q51 0 88 37t37 89v35q0 13 9.5 22.5t22.5 9.5 22.5-9.5 9.5-22.5v-35q0-79-55-134zm-137.5-185q26.5 0 45.5 18.5t19 45.5-19 45.5-45.5 18.5-45-18.5-18.5-45.5 18.5-45.5 45-18.5z"/></svg>