<svg xmlns="http://www.w3.org/2000/svg" viewBox="0 0 13 14"><path d="M12 1h-1v1.5c0 .28-.22.5-.5.5h-2c-.28 0-.5-.22-.5-.5V1H5v1.5c0 .28-.22.5-.5.5h-2c-.28 0-.5-.22-.5-.5V1H1c-.55 0-1 .45-1 1v11c0 .55.45 1 1 1h11c.55 0 1-.45 1-1V2c0-.55-.45-1-1-1zm0 12H1V4h11v9zM4 2H3V0h1v2zm6 0H9V0h1v2zM5 6H4V5h1v1zm2 0H6V5h1v1zm2 0H8V5h1v1zm2 0h-1V5h1v1zM3 8H2V7h1v1zm2 0H4V7h1v1zm2 0H6V7h1v1zm2 0H8V7h1v1zm2 0h-1V7h1v1zm-8 2H2V9h1v1zm2 0H4V9h1v1zm2 0H6V9h1v1zm2 0H8V9h1v1zm2 0h-1V9h1v1zm-8 2H2v-1h1v1zm2 0H4v-1h1v1zm2 0H6v-1h1v1zm2 0H8v-1h1v1z"/></svg>