<svg xmlns="http://www.w3.org/2000/svg" viewBox="0 0 15.989999771118164 14.723795890808105"><path d="M4.78 5.844c.25-.25.25-.67 0-.92-.32-.33-.48-.76-.48-1.19 0-.43.16-.86.48-1.19.25-.26.25-.67 0-.92a.613.613 0 0 0-.45-.19c-.16 0-.33.06-.45.19-.57.58-.85 1.35-.85 2.11 0 .76.29 1.53.85 2.11.25.25.66.25.9 0zM2.32.254a.651.651 0 0 0-.92 0c-.93.96-1.4 2.22-1.4 3.47 0 1.26.47 2.52 1.4 3.48.25.26.66.26.91 0s.25-.68 0-.94c-.68-.7-1.02-1.62-1.02-2.54 0-.92.34-1.84 1.02-2.54a.66.66 0 0 0 .01-.93zm5.69 5.1a1.62 1.62 0 1 0-1.62-1.62c-.01.89.72 1.62 1.62 1.62zm6.57-5.09a.628.628 0 0 0-.91 0c-.25.26-.25.68 0 .94.68.7 1.02 1.62 1.02 2.54 0 .92-.34 1.83-1.02 2.54-.25.26-.25.68 0 .94a.651.651 0 0 0 .92 0c.93-.96 1.4-2.22 1.4-3.48a5.048 5.048 0 0 0-1.41-3.48zm-6.57 6.39c-.41 0-.83-.1-1.2-.3l-3.15 8.37h1.49l.86-1h4l.84 1h1.49L9.2 6.354c-.38.2-.78.3-1.19.3zm-.01.48l1.01 3.6h-2l.99-3.6zm-1.99 5.59l1-1h2l1 1h-4zm5.19-11.1c-.25.25-.25.67 0 .92.32.33.48.76.48 1.19 0 .43-.16.86-.48 1.19-.25.26-.25.67 0 .92a.63.63 0 0 0 .9 0c.57-.58.85-1.35.85-2.11 0-.76-.28-1.53-.85-2.11a.634.634 0 0 0-.9 0z"/></svg>