<svg xmlns="http://www.w3.org/2000/svg" viewBox="0 0 10.328920364379883 14.004775047302246"><path d="M8.164.002a1.993 1.993 0 0 0-1 3.72v1.28l-2 2-2-2v-1.28a1.993 1.993 0 0 0-1-3.72 1.993 1.993 0 0 0-1 3.72v1.78l3 3v1.78a1.993 1.993 0 0 0 1 3.72 1.993 1.993 0 0 0 1-3.72v-1.78l3-3v-1.78a1.993 1.993 0 0 0-1-3.72zm-6 3.2c-.66 0-1.2-.55-1.2-1.2 0-.65.55-1.2 1.2-1.2.65 0 1.2.55 1.2 1.2 0 .65-.55 1.2-1.2 1.2zm3 10c-.66 0-1.2-.55-1.2-1.2 0-.65.55-1.2 1.2-1.2.65 0 1.2.55 1.2 1.2 0 .65-.55 1.2-1.2 1.2zm3-10c-.66 0-1.2-.55-1.2-1.2 0-.65.55-1.2 1.2-1.2.65 0 1.2.55 1.2 1.2 0 .65-.55 1.2-1.2 1.2z"/></svg>