<svg xmlns="http://www.w3.org/2000/svg" viewBox="0 0 16.190000534057617 15.999999046325684"><path d="M4.67 7.27c.26.26 1.28 1.33 1.28 1.33l.56-.58-.88-.91 1.69-1.8s-.76-.74-.43-.45c.32-1.19.03-2.51-.87-3.44C5.12.5 3.85.2 2.71.51l1.93 2-.51 1.96-1.89.52-1.93-2C0 4.17.29 5.48 1.19 6.4c.94.98 2.29 1.26 3.48.87zm6.44 1.94l-2.33 2.3 3.84 3.98c.31.33.73.49 1.14.49.41 0 .82-.16 1.14-.49.63-.65.63-1.7 0-2.35l-3.79-3.93zm5.08-6.68L13.74 0 6.52 7.46l.88.91-4.31 4.46-.99.53-1.39 2.27.35.37 2.2-1.44.51-1.02 4.32-4.46.88.91 7.22-7.46z"/></svg>