<svg xmlns="http://www.w3.org/2000/svg" viewBox="0 0 16.23000144958496 16.23000144958496"><path d="M15.79 7.18l-1.08-1.34c-.17-.22-.28-.48-.31-.77l-.19-1.7a1.51 1.51 0 0 0-1.33-1.33l-1.7-.19c-.3-.03-.56-.16-.78-.33L9.06.44C8.51 0 7.73 0 7.18.44L5.84 1.52c-.22.17-.48.28-.77.31l-1.7.19c-.7.08-1.25.63-1.33 1.33l-.19 1.7c-.03.3-.16.56-.33.78L.44 7.17C0 7.72 0 8.5.44 9.05l1.08 1.34c.17.22.28.48.31.77l.19 1.7c.08.7.63 1.25 1.33 1.33l1.7.19c.3.03.56.16.78.33l1.34 1.08c.55.44 1.33.44 1.88 0l1.34-1.08c.22-.17.48-.28.77-.31l1.7-.19c.7-.08 1.25-.63 1.33-1.33l.19-1.7c.03-.3.16-.56.33-.78l1.08-1.34c.44-.55.44-1.33 0-1.88zm-9.17 4.94l-3.5-3.5 1.5-1.5 2 2 5-5 1.5 1.55-6.5 6.45z"/></svg>