<svg xmlns="http://www.w3.org/2000/svg" viewBox="0 0 1200 1100"><path d="M50 0h1100q21 0 35.5 14.5T1200 50v100q0 21-14.5 35.5T1150 200H50q-21 0-35.5-14.5T0 150V50q0-21 14.5-35.5T50 0zm0 300h1100q21 0 35.5 14.5T1200 350v100q0 21-14.5 35.5T1150 500H50q-21 0-35.5-14.5T0 450V350q0-21 14.5-35.5T50 300zm0 300h1100q21 0 35.5 14.5T1200 650v100q0 21-14.5 35.5T1150 800H50q-21 0-35.5-14.5T0 750V650q0-21 14.5-35.5T50 600zm0 300h1100q21 0 35.5 14.5T1200 950v100q0 21-14.5 35.5T1150 1100H50q-21 0-35.5-14.5T0 1050V950q0-21 14.5-35.5T50 900z"/></svg>