<svg xmlns="http://www.w3.org/2000/svg" viewBox="0 0 981 1200"><path d="M525 0h150q10 0 17.5 7.5T700 25v109q79 33 131 87.5T884 350q1 46-15 84.5t-39 61-46 38-39 21.5l-17 6q6 0 15 1.5t35 9 50 17.5 53 30 50 45 35.5 64 14.5 84q0 59-11.5 105.5T941 994t-44 51-49.5 31.5-54.5 16-49.5 6.5-43.5 1v75q0 10-7.5 17.5T675 1200H525q-10 0-17.5-7.5T500 1175v-75H400v75q0 10-7.5 17.5T375 1200H225q-10 0-17.5-7.5T200 1175v-75H25q-10 0-17.5-7.5T0 1075V925q0-10 7.5-17.5T25 900h75V300H25q-10 0-17.5-7.5T0 275V125q0-10 7.5-17.5T25 100h175V25q0-10 7.5-17.5T225 0h150q10 0 17.5 7.5T400 25v75h100V25q0-10 7.5-17.5T525 0zM300 300v200h263q28 0 48.5-10.5t30-25 15-29T662 410l1-10q0-4-.5-11t-6-24-15-30-30-24-48.5-11H300zm0 400v200h363q28 0 48.5-10.5t30-25 15-29T762 810l1-10q0-4-.5-11t-6-24-15-30-30-24-48.5-11H300z"/></svg>