<svg xmlns="http://www.w3.org/2000/svg" viewBox="0 0 1148 1147"><path d="M574 0q33 0 74 5l38 152 5 1q49 14 94 39l5 2 134-80q61 48 104 105l-80 134 3 5q25 44 39 93l1 6 152 38q5 43 5 73 0 34-5 74l-152 38-1 6q-15 49-39 93l-3 5 80 134q-48 61-104 105l-134-81-5 3q-44 25-94 39l-5 2-38 151q-43 5-74 5-33 0-74-5l-38-151-5-2q-49-14-94-39l-5-3-134 81q-60-48-104-105l80-134-3-5q-25-45-38-93l-2-6L6 647q-6-42-6-74 0-33 6-73l151-38 2-6q13-48 38-93l3-5-80-134q47-61 105-105l133 80 5-2q45-25 94-39l5-1L500 5q43-5 74-5zm0 359q-89 0-152 63t-63 151.5T422 725t152 63 152-63 63-151.5T726 422t-152-63z"/></svg>