<svg xmlns="http://www.w3.org/2000/svg" viewBox="0 0 1192 1192"><path d="M596 0q121 0 231.5 47.5t190 127 127 190T1192 596t-47.5 231.5-127 190.5-190 127-231.5 47-231.5-47T174 1018 47 827.5 0 596t47-231.5 127-190 190.5-127T596 0zm0 182q-112 0-207.5 55.5t-151 151T182 596t55.5 207.5 151 151T596 1010t207.5-55.5 151-151T1010 596t-55.5-207.5-151-151T596 182zM454.5 287q22.5 0 38.5 16t16 38.5-16 39-38.5 16.5-38.5-16.5-16-39 16-38.5 38.5-16zm300 0q22.5 0 38.5 16t16 38.5-16 39-38 16.5q-14 0-29-10l-55 145q17 23 17 51 0 36-25.5 61.5T601 670t-61.5-25.5T514 583q0-32 20.5-56.5T586 497l122-126 1-1q-9-14-9-28 0-23 16-39t38.5-16zm-409 196q22.5 0 38.5 16t16 38.5-16 38.5-38.5 16-38.5-16-16-38.5 16-38.5 38.5-16zm509 0q22.5 0 38.5 16t16 38.5-16 38.5-38.5 16-38.5-16-16-38.5 16-38.5 38.5-16z"/></svg>