<svg xmlns="http://www.w3.org/2000/svg" viewBox="0 0 1154 1154"><path d="M577 0q117 0 224 45.5t184.5 123 123 184.5 45.5 224-45.5 224-123 184.5-184.5 123-224 45.5-224-45.5-184.5-123T45.5 801 0 577t45.5-224 123-184.5T353 45.5 577 0zm0 150q-116 0-214.5 57T207 362.5 150 577t57 214.5T362.5 947t214.5 57 214.5-57T947 791.5t57-214.5-57-214.5T791.5 207 577 150zm-75 127h150q10 0 17.5 7.5T677 302v275h137q21 0 26 11.5t-8 27.5L609 891q-13 16-32 16t-32-16L322 616q-13-16-8-27.5t26-11.5h137V302q0-10 7.5-17.5T502 277z"/></svg>