<svg xmlns="http://www.w3.org/2000/svg" viewBox="0 0 1100 1100"><path d="M425 0h250q10 0 17.5 7.5T700 25v150q0 10-7.5 17.5T675 200H425q-10 0-17.5-7.5T400 175V25q0-10 7.5-17.5T425 0zm0 300h250q10 0 17.5 7.5T700 325v150q0 10-7.5 17.5T675 500H425q-10 0-17.5-7.5T400 475V325q0-10 7.5-17.5T425 300zm400 0h250q10 0 17.5 7.5t7.5 17.5v150q0 10-7.5 17.5T1075 500H825q-10 0-17.5-7.5T800 475V325q0-10 7.5-17.5T825 300zM25 600h250q10 0 17.5 7.5T300 625v150q0 10-7.5 17.5T275 800H25q-10 0-17.5-7.5T0 775V625q0-10 7.5-17.5T25 600zm400 0h250q10 0 17.5 7.5T700 625v150q0 10-7.5 17.5T675 800H425q-10 0-17.5-7.5T400 775V625q0-10 7.5-17.5T425 600zm400 0h250q10 0 17.5 7.5t7.5 17.5v150q0 10-7.5 17.5T1075 800H825q-10 0-17.5-7.5T800 775V625q0-10 7.5-17.5T825 600zM25 900h250q10 0 17.5 7.5T300 925v150q0 10-7.5 17.5T275 1100H25q-10 0-17.5-7.5T0 1075V925q0-10 7.5-17.5T25 900zm400 0h250q10 0 17.5 7.5T700 925v150q0 10-7.5 17.5T675 1100H425q-10 0-17.5-7.5T400 1075V925q0-10 7.5-17.5T425 900zm400 0h250q10 0 17.5 7.5t7.5 17.5v150q0 10-7.5 17.5t-17.5 7.5H825q-10 0-17.5-7.5T800 1075V925q0-10 7.5-17.5T825 900z"/></svg>