<svg xmlns="http://www.w3.org/2000/svg" viewBox="0 0 1048.3333740234375 1208.3333740234375"><path d="M561.333 0q-39 67-54.5 131t-10.5 114.5 24.5 96.5 47.5 80 63.5 62.5 68.5 46.5 65 30q-4-7-17.5-35t-18.5-39.5-17-39.5-17-43-13-42-9.5-44.5-2-42 4-43 13.5-39 23-38.5q96 42 165 107.5t105 138 52 156 13 159-19 149.5q-13 55-44 106.5t-68 87-78.5 64.5-72.5 45-53 22q-72 22-127 11-31-6-13-19 6-3 17-7 13-5 32.5-21t41-44 38.5-63.5 21.5-81.5-6.5-94.5-50-107-104-115.5q10 104-.5 189t-37 140.5-65 93-84 52-93.5 11-95-24.5q-80-36-131.5-114t-53.5-171q-2-23 0-49.5t4.5-52.5 13.5-56 27.5-60 46-64.5 69.5-68.5q-8 53-5 102.5t17.5 90 34 68.5 44.5 39 49 2q31-13 38.5-36t-4.5-55-29-64.5-36-75-26-75.5q-15-85 2-161.5t53.5-128.5 85.5-92.5 93.5-61 81.5-25.5z"/></svg>