<svg xmlns="http://www.w3.org/2000/svg" viewBox="0 0 1287 1187"><path d="M1100 200v269L997 572 863 438q-15-15-33.5-16.5T795 434L529 700H200v400H50q-21 0-35.5-14.5T0 1050V50q0-20 14.5-35T50 0h250v300h500V0h100zm-400 0H600V0h100v200zm502 428l70 70q15 15 15 35.5t-15 35.5l-131 131 131 131q15 15 15 35.5t-15 35.5l-70 70q-15 15-35.5 15t-35.5-15l-131-131-131 131q-15 15-35.5 15t-35.5-15l-70-70q-15-15-15-35.5t15-35.5l131-131-131-131q-15-15-15-35.5t15-35.5l70-70q15-15 35.5-15t35.5 15l131 131 131-131q15-15 35.5-15t35.5 15z"/></svg>