<svg xmlns="http://www.w3.org/2000/svg" viewBox="0 0 1200 1200"><path d="M50 0h300q21 0 25 10.5T365 35l-94 94 199 199q7 8 7 18t-7 18L364 470q-8 7-18 7t-18-7L129 271l-94 94q-14 14-24.5 10T0 350V50q0-21 14.5-35.5T50 0zm800 0h300q21 0 35.5 14.5T1200 50v300q0 21-10.5 25t-24.5-10l-94-94-199 199q-8 7-18 7t-18-7L730 364q-7-8-7-18t7-18l199-199-94-94q-14-14-10-24.5T850 0zM364 730l106 106q7 8 7 18t-7 18l-199 199 94 94q14 14 10 24.5t-25 10.5H50q-21 0-35.5-14.5T0 1150V850q0-21 10.5-25T35 835l94 94 199-199q8-7 18-7t18 7zm707 199l94-94q14-14 24.5-10t10.5 25v300q0 21-14.5 35.5T1150 1200H850q-21 0-25-10.5t10-24.5l94-94-199-199q-7-8-7-18t7-18l106-106q8-7 18-7t18 7z"/></svg>