<svg xmlns="http://www.w3.org/2000/svg" viewBox="0 0 816 1095"><path d="M461 0q84 0 160.5 40T745 149.5 792 297H639q0-40-19.5-71.5T570 177t-59.5-26-55.5-9q-37 0-79 14.5T314 192q-41 44-41 101 0 26 13.5 63t26.5 61 37 66q6 9 9 14h241v100H403q8 50-2.5 115T369 807q-45 62-99 112 34-10 83-17.5t71-7.5q32-1 102 16t104 17q83 0 136-30l50 147q-31 19-58 30.5t-55 15.5-42 4.5-46 .5q-23 0-76-17t-111-32.5-96-11.5q-39 3-82 16t-67 25l-23 11-55-145q4-3 16-11t15.5-10.5 13-9 15.5-12 14.5-14T197 866q48-55 54-126.5T221 597H0V497h166q-23-47-44-104-7-20-12-41.5t-6-55.5 6-66.5 29.5-70.5T198 88Q295 0 461 0z"/></svg>