<svg xmlns="http://www.w3.org/2000/svg" viewBox="0 0 1152 1152"><path d="M576 0q116 0 222.5 46t184 123.5 123.5 184 46 222.5-46 222.5-123.5 184-184 123.5-222.5 46-222.5-46-184-123.5T46 798.5 0 576t46-222.5 123.5-184T353.5 46 576 0zm27 75q-15 12-36.5 20.5t-35.5 12-43 8-39 6.5q-15 3-45.5 0t-45.5 2q-20 7-51.5 26.5T272 185q-3 11 6.5 22.5T287 226q-3 34-27.5 91T230 396q-9 34 5 93t8 87q0 9 17 44.5t16 59.5q12 0 23 5t23.5 15 19.5 14q16 8 33 15t40.5 15 34.5 12q21 9 52.5 32t60 38 57.5 11q7 15-3 34t-22.5 40-9.5 38q13 21 23 34.5t27.5 27.5 36.5 18q0 7-3.5 16t-3.5 14 5 17q104 2 221-112 30-29 46.5-47t34.5-49 21-63q-13-8-37-8.5t-36-7.5q-15-7-49.5-15T819 755q-18 0-41 .5t-43 1.5-42 6.5-38 16.5q-51 35-66 12-4-1-3.5-25.5t.5-25.5q-6-13-26.5-17.5T535 717q1-15-.5-30.5t-7-28T509 647t-31 21q-23 25-42-4-19-28-8-58 6-16 22-22 6 1 26 1.5t33.5 4T529 603q7 12 18 24t21.5 20.5 20 15T604 673l5 3q2-12 7.5-30.5t8-34.5-.5-32q-3-18 3.5-29t18-22.5T661 503q6-14 10.5-35t8-31 15.5-22.5 34-22.5q-6-18 10-36 8 0 24 1.5t24.5 1.5 20-4.5T828 339q-10-23-31-42.5T759.5 267t-49-27-43.5-23q0-1 2-8t3-11.5 1.5-10.5-1-9.5-4.5-4.5q31 13 58.5 14.5T765 185l12-5q5-28-9.5-46T731 110t-50-15-41-20q-18 4-37 0zm-14 107q0 17 8 42t17 45 9 23q-8-1-39.5-5.5t-52.5-10-37-16.5q3-11 16-29.5t16-25.5q10 10 19 10t14-6 13.5-14.5T589 182z"/></svg>