<svg xmlns="http://www.w3.org/2000/svg" viewBox="0 0 1013.6666259765625 1294"><path d="M463.667 0q72 0 111 55t39 139v106l339 131q21 6 41 19.5t20 28.5v342q0 7-81 90t-94 83h-525q-17 0-35.5-14t-28.5-28l-9-14-230-363q-16-31 6-53l112-110q13-13 32-13.5t34 11.5l121 84V192q0-84 38-138t110-54zm50 322V119q0-21-25-30.5t-50-.5-25 31v474.5l-.5 6-1.5 5-2 5-2.5 4-4 4-4.5 2.5q-25 12-47-5l-183-146-83 86 236 339h503l89-100V501l-339-131q-21-6-41-19.5t-20-28.5zm-150 772h500q21 0 35.5 14.5t14.5 35.5v100q0 21-14.5 35.5t-35.5 14.5h-500q-21 0-35.5-14.5t-14.5-35.5v-100q0-21 14.5-35.5t35.5-14.5z"/></svg>