<svg xmlns="http://www.w3.org/2000/svg" viewBox="0 0 1200 1175"><path d="M600 0q116 0 227 49.5t192.5 131 131 192.5 49.5 227v300q0 10-7.5 17.5T1175 925h-50q-10 0-17.5-7.5T1100 900V600q0-127-70.5-231.5T845 207t-245-57-245 57-184.5 161.5T100 600v300q0 10-7.5 17.5T75 925H25q-10 0-17.5-7.5T0 900V600q0-116 49.5-227t131-192.5T373 49.5 600 0zM220 675h160q8 0 14 6t6 14v460q0 8-6 14t-14 6H220q-8 0-14-6t-6-14V695q0-8 6-14t14-6zm600 0h160q8 0 14 6t6 14v460q0 8-6 14t-14 6H820q-8 0-14-6t-6-14V695q0-8 6-14t14-6z"/></svg>