<svg xmlns="http://www.w3.org/2000/svg" viewBox="0 0 1300 1100"><path d="M500 1100H400V0h100v1100zM650 0h100q21 0 35.5 14.5T800 50v100q0 21-14.5 35.5T750 200H650q-21 0-35.5-14.5T600 150V50q0-21 14.5-35.5T650 0zm0 300h500q21 0 35.5 14.5T1200 350v100q0 21-14.5 35.5T1150 500H650q-21 0-35.5-14.5T600 450V350q0-21 14.5-35.5T650 300zM367 550L200 675v-75H0V500h200v-75zm283 50h300q21 0 35.5 14.5T1000 650v100q0 21-14.5 35.5T950 800H650q-21 0-35.5-14.5T600 750V650q0-21 14.5-35.5T650 600zm0 300h600q21 0 35.5 14.5T1300 950v100q0 21-14.5 35.5T1250 1100H650q-21 0-35.5-14.5T600 1050V950q0-21 14.5-35.5T650 900z"/></svg>