<svg xmlns="http://www.w3.org/2000/svg" viewBox="0 0 1199 1185.8333740234375"><path d="M1165 2q8-3 21 6.5t13 17.5q-2 178-24.5 323.5T1119 595t-87 174.5T929.5 888t-118 68.5-118.5 33-120 4.5-105-9.5-90-16.5q-61-12-78-11-4-1-12.5 0t-34 14.5T201 1012L48 1165q-26 24-37 14.5T0 1136q0-64 42-102 8-8 50.5-45t66.5-58q19-17 35-47t13-61q-9-55-10-102.5t7-111 37-130T319 350q39-51 80-88t89.5-63.5 94.5-45 113.5-36 129-31 157.5-37T1165 2zm-49 92q-8-9-22.5 3t-45.5 50q-38 47-119 103.5T787 340l-62 33q-56 30-102 57t-104 68-102.5 80.5-85.5 91T267 774q-24 56-31 86t2 32 31.5-17.5T325 815q25-30 94-75.5T544.5 662 692 581q70-37 118.5-69t102-79.5 99-111T1098 173q22-50 24-60t-6-19z"/></svg>