<svg xmlns="http://www.w3.org/2000/svg" viewBox="0 0 1100 1200"><path d="M25 0h1050q10 0 17.5 7.5T1100 25v1150q0 10-7.5 17.5t-17.5 7.5H25q-10 0-17.5-7.5T0 1175V25Q0 15 7.5 7.5T25 0zm950 200H125q-10 0-17.5 7.5T100 225v850q0 10 7.5 17.5t17.5 7.5h850q10 0 17.5-7.5t7.5-17.5V225q0-10-7.5-17.5T975 200zM225 300h50q10 0 17.5 7.5T300 325v50q0 10-7.5 17.5T275 400h-50q-10 0-17.5-7.5T200 375v-50q0-10 7.5-17.5T225 300zm200 0h450q10 0 17.5 7.5T900 325v50q0 10-7.5 17.5T875 400H425q-10 0-17.5-7.5T400 375v-50q0-10 7.5-17.5T425 300zM225 500h50q10 0 17.5 7.5T300 525v50q0 10-7.5 17.5T275 600h-50q-10 0-17.5-7.5T200 575v-50q0-10 7.5-17.5T225 500zm200 0h450q10 0 17.5 7.5T900 525v50q0 10-7.5 17.5T875 600H425q-10 0-17.5-7.5T400 575v-50q0-10 7.5-17.5T425 500zM225 700h50q10 0 17.5 7.5T300 725v50q0 10-7.5 17.5T275 800h-50q-10 0-17.5-7.5T200 775v-50q0-10 7.5-17.5T225 700zm200 0h450q10 0 17.5 7.5T900 725v50q0 10-7.5 17.5T875 800H425q-10 0-17.5-7.5T400 775v-50q0-10 7.5-17.5T425 700zM225 900h50q10 0 17.5 7.5T300 925v50q0 10-7.5 17.5T275 1000h-50q-10 0-17.5-7.5T200 975v-50q0-10 7.5-17.5T225 900zm200 0h450q10 0 17.5 7.5T900 925v50q0 10-7.5 17.5T875 1000H425q-10 0-17.5-7.5T400 975v-50q0-10 7.5-17.5T425 900z"/></svg>