<svg xmlns="http://www.w3.org/2000/svg" viewBox="0 0 1200 1100"><path d="M50 0h100q21 0 35.5 14.5T200 50v100q0 21-14.5 35.5T150 200H50q-21 0-35.5-14.5T0 150V50q0-21 14.5-35.5T50 0zm300 0h800q21 0 35.5 14.5T1200 50v100q0 21-14.5 35.5T1150 200H350q-21 0-35.5-14.5T300 150V50q0-21 14.5-35.5T350 0zM50 300h100q21 0 35.5 14.5T200 350v100q0 21-14.5 35.5T150 500H50q-21 0-35.5-14.5T0 450V350q0-21 14.5-35.5T50 300zm300 0h800q21 0 35.5 14.5T1200 350v100q0 21-14.5 35.5T1150 500H350q-21 0-35.5-14.5T300 450V350q0-21 14.5-35.5T350 300zM50 600h100q21 0 35.5 14.5T200 650v100q0 21-14.5 35.5T150 800H50q-21 0-35.5-14.5T0 750V650q0-21 14.5-35.5T50 600zm300 0h800q21 0 35.5 14.5T1200 650v100q0 21-14.5 35.5T1150 800H350q-21 0-35.5-14.5T300 750V650q0-21 14.5-35.5T350 600zM50 900h100q21 0 35.5 14.5T200 950v100q0 21-14.5 35.5T150 1100H50q-21 0-35.5-14.5T0 1050V950q0-21 14.5-35.5T50 900zm300 0h800q21 0 35.5 14.5T1200 950v100q0 21-14.5 35.5T1150 1100H350q-21 0-35.5-14.5T300 1050V950q0-21 14.5-35.5T350 900z"/></svg>