<svg xmlns="http://www.w3.org/2000/svg" viewBox="0 0 1154 1154"><path d="M577 0q117 0 224 45.5t184.5 123 123 184.5 45.5 224-45.5 224-123 184.5-184.5 123-224 45.5-224-45.5-184.5-123T45.5 801 0 577t45.5-224 123-184.5T353 45.5 577 0zm0 150q-116 0-214.5 57T207 362.5 150 577t57 214.5T362.5 947t214.5 57 214.5-57T947 791.5t57-214.5-57-214.5T791.5 207 577 150zm182 239l106 106q7 7 7 17.5t-7 17.5L545 851q-8 7-18 7t-18-7L307 648q-8-7-8-17.5t8-17.5l106-106q7-8 17.5-8t17.5 8l79 79 197-197q7-7 17.5-7t17.5 7z"/></svg>