<svg xmlns="http://www.w3.org/2000/svg" viewBox="0 0 1200 1100"><path d="M600 0q92 0 175 10.5t141.5 27T1025 74t81.5 40 53.5 37 31 27l9 10v200q0 21-14.5 33t-34.5 9l-202-34q-20-3-34.5-20T900 338V192q-141-24-300-24t-300 24v146q0 21-14.5 38T251 396L49 430q-20 3-34.5-9T0 388V188q3-4 9.5-10.5t31-26 54-37.5T175 74.5 284 37t141-26.5T600 0zm0 305q56 0 97 9.5t60 23.5 30 28 12 24l1 10v50l365 303q14 15 24.5 40t10.5 45v212q0 21-14.5 35.5T1150 1100H50q-21 0-35.5-14.5T0 1050V838q0-20 10.5-45T35 753l365-303v-50q0-4 1-10.5t12-23 30-29 60-22.5 97-10z"/></svg>