<svg xmlns="http://www.w3.org/2000/svg" viewBox="0 0 1200 1200"><path d="M822 0H378q-11 0-19 7.5T350 25l-78 301q-7 24 7 45l57 108q6 9 17.5 15t21.5 6h450q10 0 21.5-6t17.5-15l62-108q14-21 7-45L850 25q-1-10-9-17.5T822 0zm353 400h-150q-10 0-21 6.5T989 422l-78 156q-4 9-15 15.5t-21 6.5H325q-10 0-21-6.5T289 578l-78-156q-4-9-15-15.5t-21-6.5H25q-10 0-17.5 7.5T0 425v650q0 10 7.5 17.5T25 1100h150q10 0 17.5-7.5t7.5-17.5V925q0-10 7.5-17.5T225 900h750q10 0 17.5 7.5t7.5 17.5v150q0 10 7.5 17.5t17.5 7.5h150q10 0 17.5-7.5t7.5-17.5V425q0-10-7.5-17.5T1175 400zm-325 600H350q-10 0-19.5 7t-11.5 17l-38 152q-2 10 3.5 17t15.5 7h600q10 0 15.5-7t3.5-17l-38-152q-2-10-11.5-17t-19.5-7z"/></svg>