<svg xmlns="http://www.w3.org/2000/svg" viewBox="0 0 1200 1200"><path d="M500 300h100v100H500v100H100v100H0V0h500v300zm700 200h-200v100h200v200H900V500H700V200H600V0h600v500zM100 100v300h300V100H100zm700 0v300h300V100H800zM300 300H200V200h100v100zm700 0H900V200h100v100zM300 700h200v500H0V700h200V600h100v100zm500 200h200v100H900v100H700v-100H600V900h100V700H500V600h300v300zM100 800v300h300V800H100zm200 200H200V900h100v100zm900 0h-100V900h100v100zm-500 200H600v-100h100v100zm500 0H900v-100h300v100z"/></svg>