<svg xmlns="http://www.w3.org/2000/svg" viewBox="0 0 1154 1154"><path d="M577 0q117 0 224 45.5t184.5 123 123 184.5 45.5 224-45.5 224-123 184.5-184.5 123-224 45.5-224-45.5-184.5-123T45.5 801 0 577t45.5-224 123-184.5T353 45.5 577 0zm-12 236q-29 0-59 5.5T443 262t-58 38.5-41.5 63T327 453q0 25 20 25h131q30 5 35-11 6-20 20.5-28t45.5-8q20 0 31.5 10.5T622 470q0 23-7 34t-26 18q-1 0-13.5 4t-19.5 7.5-20 10.5-22 17-18.5 24-15.5 35-8 46q-1 8 5.5 16.5T498 691h173q7 0 22-8t35-28 37.5-48 29.5-74 12-100q0-47-17-83t-42.5-57-59.5-34.5-64-18-59-4.5zm87 541H502q-10 0-17.5 7.5T477 802v150q0 10 7.5 17.5T502 977h150q10 0 17.5-7.5T677 952V802q0-10-7.5-17.5T652 777z"/></svg>