<svg xmlns="http://www.w3.org/2000/svg" viewBox="0 0 1154 1154"><path d="M577 0q117 0 224 45.5t184.5 123 123 184.5 45.5 224-45.5 224-123 184.5-184.5 123-224 45.5-224-45.5-184.5-123T45.5 801 0 577t45.5-224 123-184.5T353 45.5 577 0zm0 150q-116 0-214.5 57T207 362.5 150 577t57 214.5T362.5 947t214.5 57 214.5-57T947 791.5t57-214.5-57-214.5T791.5 207 577 150zm159 204l64 64q7 7 7 17.5t-7 17.5L676 577l124 124q7 7 7 17.5t-7 17.5l-64 64q-7 7-17.5 7t-17.5-7L577 676 453 800q-7 7-17.5 7t-17.5-7l-64-64q-7-7-7-17.5t7-17.5l124-124-124-124q-7-7-7-17.5t7-17.5l64-64q7-7 17.5-7t17.5 7l124 124 124-124q7-7 17.5-7t17.5 7z"/></svg>