<svg xmlns="http://www.w3.org/2000/svg" viewBox="0 0 1154 1154"><path d="M577 0q117 0 224 45.5t184.5 123 123 184.5 45.5 224-45.5 224-123 184.5-184.5 123-224 45.5-224-45.5-184.5-123T45.5 801 0 577t45.5-224 123-184.5T353 45.5 577 0zm141.5 264q-12.5 0-21.5 9L577 393 457 273q-9-9-21.5-9t-21.5 9L273 414q-9 9-9 21.5t9 21.5l120 120-120 120q-9 9-9 21.5t9 21.5l141 141q9 9 21.5 9t21.5-9l120-120 120 120q9 9 21.5 9t21.5-9l141-141q9-9 9-21.5t-9-21.5L761 577l120-120q9-9 9-21.5t-9-21.5L740 273q-9-9-21.5-9z"/></svg>