<svg xmlns="http://www.w3.org/2000/svg" viewBox="0 0 979 1200"><path d="M307 0h350q67 0 120 13t86 31 57 49.5 35 56.5 17 64.5 6.5 60.5.5 57v33q0 36-.5 57t-6.5 61-17 65-35 57-57 50.5-86 31.5-120 13H479l-2 100h288q10 0 13 6t-3 14L655 980q-6 8-18 14t-22 6H477v175q0 11-5.5 18t-15.5 7H307q-10 0-17.5-7.5T282 1175v-175H15q-10 0-13-6t3-14l120-160q6-8 18-14t22-6h117V700H15q-10 0-13-6t3-14l120-160q6-8 18-14t22-6h117V25q0-10 7.5-17.5T307 0zm172 200v300h203q64 0 86.5-33T791 348q0-84-22.5-116T682 200H479z"/></svg>