<svg xmlns="http://www.w3.org/2000/svg" viewBox="0 0 1100 1200"><path d="M925 0h150q10 0 17.5 7.5T1100 25v1150q0 10-7.5 17.5t-17.5 7.5H925q-10 0-17.5-7.5T900 1175V25q0-10 7.5-17.5T925 0zM625 400h150q10 0 17.5 7.5T800 425v750q0 10-7.5 17.5T775 1200H625q-10 0-17.5-7.5T600 1175V425q0-10 7.5-17.5T625 400zM325 700h150q10 0 17.5 7.5T500 725v450q0 10-7.5 17.5T475 1200H325q-10 0-17.5-7.5T300 1175V725q0-10 7.5-17.5T325 700zM25 900h150q10 0 17.5 7.5T200 925v250q0 10-7.5 17.5T175 1200H25q-10 0-17.5-7.5T0 1175V925q0-10 7.5-17.5T25 900z"/></svg>