<svg xmlns="http://www.w3.org/2000/svg" viewBox="0 0 1252.3333740234375 701"><path d="M822.667 23l69-19q25-6 45 12l298 295q11 11 15 26.5t-2 30.5q-5 14-18 23.5t-28 9.5h-8q1 0 1 13 0 29-2 56t-8.5 62-20 63-33 53-51 39-72.5 14h-146q-184 0-184-288 0-24 10-47-20-4-62-4t-63 4q11 24 11 47 0 288-184 288h-142q-48 0-84.5-21t-56-51-32-71.5-16-75-3.5-68.5q0-13 2-13h-7q-15 0-27.5-9.5T4.667 368q-6-15-2-30.5t15-25.5l298-296q20-18 46-11l76 19q20 5 30.5 22.5t5.5 37.5-22.5 31-37.5 5l-51-12-182 193h891l-182-193-44 12q-20 5-37.5-6t-22.5-31 6-37.5 31-22.5z"/></svg>