<svg xmlns="http://www.w3.org/2000/svg" viewBox="0 0 1200 1100"><path d="M100 0h1000q41 0 70.5 29.5T1200 100v100q0 41-29.5 70.5T1100 300H100q-41 0-70.5-29.5T0 200V100q0-41 29.5-70.5T100 0zm1000 100H900v100h200V100zM100 400h1000q41 0 70.5 29.5T1200 500v100q0 41-29.5 70.5T1100 700H100q-41 0-70.5-29.5T0 600V500q0-41 29.5-70.5T100 400zm1000 100H600v100h500V500zM100 800h1000q41 0 70.5 29.5T1200 900v100q0 41-29.5 70.5T1100 1100H100q-41 0-70.5-29.5T0 1000V900q0-41 29.5-70.5T100 800zm1000 100H800v100h300V900z"/></svg>