<svg xmlns="http://www.w3.org/2000/svg" viewBox="0 0 1200 1200"><path d="M50 0h1100q21 0 35.5 14.5T1200 50v1100q0 21-14.5 35.5T1150 1200H50q-21 0-35.5-14.5T0 1150V50q0-21 14.5-35.5T50 0zm561 82h-70q-13 0-18 12L224 847q-17 32-35 51-18 18-56 34-12 5-12 18v50q0 8 5.5 14t14.5 6h273q8 0 14-6t6-14v-50q0-8-6-14t-14-6q-55 0-71-23-10-14 0-39l63-163h266l57 153q11 31-6 55-12 17-36 17-8 0-14 6t-6 14v50q0 8 6 14t14 6h313q8 0 14-6t6-14v-50q0-7-5.5-13t-13.5-7q-17 0-42-25-25-27-40-63h-1L630 94q-5-12-19-12zm28 507H442l103-264z"/></svg>