<svg xmlns="http://www.w3.org/2000/svg" viewBox="0 0 1200 1100"><path d="M50 0h200q21 0 35.5 14.5T300 50v200q0 21-14.5 35.5T250 300H50q-21 0-35.5-14.5T0 250V50q0-21 14.5-35.5T50 0zm400 0h700q21 0 35.5 14.5T1200 50v200q0 21-14.5 35.5T1150 300H450q-21 0-35.5-14.5T400 250V50q0-21 14.5-35.5T450 0zM50 400h200q21 0 35.5 14.5T300 450v200q0 21-14.5 35.5T250 700H50q-21 0-35.5-14.5T0 650V450q0-21 14.5-35.5T50 400zm400 0h700q21 0 35.5 14.5T1200 450v200q0 21-14.5 35.5T1150 700H450q-21 0-35.5-14.5T400 650V450q0-21 14.5-35.5T450 400zM50 800h200q21 0 35.5 14.5T300 850v200q0 21-14.5 35.5T250 1100H50q-21 0-35.5-14.5T0 1050V850q0-21 14.5-35.5T50 800zm400 0h700q21 0 35.5 14.5T1200 850v200q0 21-14.5 35.5T1150 1100H450q-21 0-35.5-14.5T400 1050V850q0-21 14.5-35.5T450 800z"/></svg>