<svg xmlns="http://www.w3.org/2000/svg" viewBox="0 0 1100 1100"><path d="M50 0h200q21 0 35.5 14.5T300 50v200q0 21-14.5 35.5T250 300H50q-21 0-35.5-14.5T0 250V50q0-21 14.5-35.5T50 0zm400 0h200q21 0 35.5 14.5T700 50v200q0 21-14.5 35.5T650 300H450q-21 0-35.5-14.5T400 250V50q0-21 14.5-35.5T450 0zm400 0h200q21 0 35.5 14.5T1100 50v200q0 21-14.5 35.5T1050 300H850q-21 0-35.5-14.5T800 250V50q0-21 14.5-35.5T850 0zM50 400h200q21 0 35.5 14.5T300 450v200q0 21-14.5 35.5T250 700H50q-21 0-35.5-14.5T0 650V450q0-21 14.5-35.5T50 400zm400 0h200q21 0 35.5 14.5T700 450v200q0 21-14.5 35.5T650 700H450q-21 0-35.5-14.5T400 650V450q0-21 14.5-35.5T450 400zm400 0h200q21 0 35.5 14.5T1100 450v200q0 21-14.5 35.5T1050 700H850q-21 0-35.5-14.5T800 650V450q0-21 14.5-35.5T850 400zM50 800h200q21 0 35.5 14.5T300 850v200q0 21-14.5 35.5T250 1100H50q-21 0-35.5-14.5T0 1050V850q0-21 14.5-35.5T50 800zm400 0h200q21 0 35.5 14.5T700 850v200q0 21-14.5 35.5T650 1100H450q-21 0-35.5-14.5T400 1050V850q0-21 14.5-35.5T450 800zm400 0h200q21 0 35.5 14.5T1100 850v200q0 21-14.5 35.5T1050 1100H850q-21 0-35.5-14.5T800 1050V850q0-21 14.5-35.5T850 800z"/></svg>