<svg xmlns="http://www.w3.org/2000/svg" viewBox="0 0 1194 1055.3333740234375"><path d="M932 12.667l248 230q14 14 14 35t-14 35l-248 230q-14 14-24.5 10t-10.5-25v-150H497v-200h400v-150q0-21 10.5-25t24.5 10zm-735 365h-50q-21 0-35.5-14.5t-14.5-35.5v-100q0-21 14.5-35.5t35.5-14.5h50v200zm200 0H297v-200h100v200zm-382 365l247-230q14-14 24.5-10t10.5 25v150h400v200H297v150q0 21-10.5 25t-24.5-10l-247-230q-15-14-15-35t15-35zm882 135H797v-200h100v200zm100-200h51q20 0 34.5 14.5t14.5 35.5v100q0 21-14.5 35.5t-34.5 14.5h-51v-200z"/></svg>