<svg xmlns="http://www.w3.org/2000/svg" viewBox="0 0 738 1231"><path d="M405 0v78q38 5 72.5 14.5T553 124t71 53.5 52 84T700 380H541q-4-36-10.5-59t-21-45-40-35.5T405 220v307l64 13q34 7 64 16.5t70 32 67.5 52.5 47.5 80 20 112q0 139-89 224t-244 97v77H305v-79q-150-16-237-103-40-40-52.5-93.5T0 816h139q5 77 48.5 126t117.5 65V672l-27-8q-46-14-79-26.5t-72-36-63-52T24 477 8 379q0-70 25-126t67.5-92 94.5-57 110-27V0h100zM305 494V220q-29 4-50 11t-42 21.5-31.5 41.5-10.5 65q0 29 7 50.5t16.5 34T223 466t31.5 14 37.5 10q9 3 13 4zm100 207v310q22-2 42.5-6.5t45-15.5 41.5-27 29-42 12-59.5-12.5-59.5-38-44.5-53-31T405 701z"/></svg>