<svg xmlns="http://www.w3.org/2000/svg" viewBox="0 0 978.3333740234375 1100"><path d="M714.167 0h250q10 0 12.5 5t-5.5 13l-364 364q-6 6-11 18h268q10 0 13 6t-3 14l-120 160q-6 8-18 14t-22 6h-125v100h275q10 0 13 6t-3 14l-120 160q-6 8-18 14t-22 6h-125v174q0 11-7.5 18.5t-18.5 7.5h-148q-11 0-18.5-7.5t-7.5-18.5V900h-275q-10 0-13-6t3-14l120-160q6-8 18-14t22-6h125V600h-275q-10 0-13-6t3-14l120-160q6-8 18-14t22-6h118q-5-12-11-18l-364-364q-8-8-5.5-13t12.5-5h250q25 0 43 18l164 164q8 8 18 8t18-8l164-164q18-18 43-18z"/></svg>