<svg xmlns="http://www.w3.org/2000/svg" viewBox="0 0 1198 1198"><path d="M484 0q98 0 187.5 38.5T826 142t103.5 154.5T968 484q0 141-78 262l300 299q8 8 8 18.5t-8 18.5l-109 108q-7 8-17.5 8t-18.5-8L745 891q-119 77-261 77-98 0-188-38.5t-154.5-103T38.5 672 0 484t38.5-187.5 103-154.5T296 38.5 484 0zm-.5 154Q394 154 318 198T198 318.5t-44 166T198 650t120 120 165.5 44 166-44T770 650t44-165.5-44-166T649.5 198t-166-44zM402 277h150q10 0 17.5 7.5T577 302v75h75q10 0 17.5 7.5T677 402v150q0 10-7.5 17.5T652 577h-75v75q0 10-7.5 17.5T552 677H402q-10 0-17.5-7.5T377 652v-75h-75q-10 0-17.5-7.5T277 552V402q0-10 7.5-17.5T302 377h75v-75q0-10 7.5-17.5T402 277z"/></svg>