<svg xmlns="http://www.w3.org/2000/svg" viewBox="0 0 878 1026"><path d="M183 733q0 31 21.5 52t51.5 21h37v165q0 23 16 39t38.5 16 39-16 16.5-39V806h74v165q0 23 16 39t39 16 39-16 16-39V806h35q31 0 52-21.5t21-51.5V367H183v366zM73 334q-30 0-51.5 21.5T0 407v253q0 30 21.5 51.5T73 733t51.5-21.5T146 660V407q0-30-21.5-51.5T73 334zM579 84l38-64q6-10-4-16-9-6-15 4l-41 66q-50-18-117-18-68 0-118 19L281 8q-6-10-15.5-4T262 20l39 64q-118 58-118 226v15h512v-15q0-170-116-226zM321 220q-12 0-20-8.5t-8-20.5 8-20 20-8 20.5 8 8.5 20-8.5 20.5T321 220zm237 0q-12 0-20.5-8.5T529 191t8.5-20 20.5-8 20.5 8 8.5 20-8.5 20.5T558 220zm247 114q-30 0-51.5 21.5T732 407v253q0 30 21.5 51.5T805 733t51.5-21.5T878 660V407q0-30-21.5-51.5T805 334z"/></svg>