<svg xmlns="http://www.w3.org/2000/svg" viewBox="0 0 1024 1024"><path d="M359 640q10 0 17.5 7.5T384 665v270q0 10-7.5 17.5T359 960H89q-10 0-17.5-7.5T64 935V665q0-10 7.5-17.5T89 640h270zm0-64H89q-37 0-63 26T0 665v270q0 37 26 63t63 26h270q37 0 63-26t26-63V665q0-37-26-63t-63-26zm0-512q10 0 17.5 7.5T384 89v270q0 10-7.5 17.5T359 384H89q-10 0-17.5-7.5T64 359V89q0-10 7.5-17.5T89 64h270zm0-64H89Q52 0 26 26T0 89v270q0 37 26 63t63 26h270q37 0 63-26t26-63V89q0-37-26-63T359 0zm576 640q10 0 17.5 7.5T960 665v270q0 10-7.5 17.5T935 960H665q-10 0-17.5-7.5T640 935V665q0-10 7.5-17.5T665 640h270zm0-64H665q-37 0-63 26t-26 63v270q0 37 26 63t63 26h270q37 0 63-26t26-63V665q0-37-26-63t-63-26zm0-512q10 0 17.5 7.5T960 89v270q0 10-7.5 17.5T935 384H665q-10 0-17.5-7.5T640 359V89q0-10 7.5-17.5T665 64h270zm0-64H665q-37 0-63 26t-26 63v270q0 37 26 63t63 26h270q37 0 63-26t26-63V89q0-37-26-63T935 0z"/></svg>