<svg xmlns="http://www.w3.org/2000/svg" viewBox="0 0 1024 705"><path d="M192 32q0-13 9.5-22.5T224 0h768q13 0 22.5 9.5T1024 32q0 14-9.5 23T992 64H224q-13 0-22.5-9T192 32zM0 32Q0 18 9.5 9T32 0t22.5 9T64 32q0 13-9.5 22.5T32 64 9.5 54.5 0 32zm192 320q0-14 9.5-23t22.5-9h768q13 0 22.5 9t9.5 23q0 13-9.5 22.5T992 384H224q-13 0-22.5-9.5T192 352zM0 350q0-13 9.5-22.5T32 318t22.5 9.5T64 350q0 14-9.5 23T32 382t-22.5-9T0 350zm192 323q0-13 9.5-22.5T224 641h768q13 0 22.5 9.5t9.5 22.5-9.5 22.5T992 705H224q-13 0-22.5-9.5T192 673zM0 672q0-13 9.5-22.5T32 640t22.5 9.5T64 672t-9.5 22.5T32 704t-22.5-9.5T0 672z"/></svg>