<svg xmlns="http://www.w3.org/2000/svg" viewBox="0 0 1024 894"><path d="M960 126H768V32q0-13-9.5-22.5T736 0t-22.5 9.5T704 32v94H512V32q0-13-9.5-22.5T480 0t-22.5 9.5T448 32v94H256V32q0-13-9.5-22.5T224 0t-22.5 9.5T192 32v94H64q-26 0-45 19T0 190v640q0 27 19 45.5T64 894h896q26 0 45-18.5t19-45.5V190q0-26-19-45t-45-19zm-768 75v23q0 13 9.5 22.5T224 256t22.5-9.5T256 224v-23h192v23q0 13 9.5 22.5T480 256t22.5-9.5T512 224v-23h192v23q0 13 9.5 22.5T736 256t22.5-9.5T768 224v-23h181v119H82q-3 0-7 1V201h117zM75 819V383q4 1 7 1h867v435H75zm597-369H352q-13 0-22.5 9.5T320 482t9.5 22.5T352 514h320q13 0 22.5-9.5T704 482t-9.5-22.5T672 450zm0 192H352q-13 0-22.5 9.5T320 674t9.5 22.5T352 706h320q13 0 22.5-9.5T704 674t-9.5-22.5T672 642z"/></svg>