<svg xmlns="http://www.w3.org/2000/svg" viewBox="0 0 1024 1024"><path d="M821 331q-9-9-22.5-9t-22.5 9L383 713 247 584q-9-10-22.5-10T202 584q-10 9-10 22.5t10 22.5l158 152q10 9 23 9t23-9l415-405q10-9 10-22.5T821 331zM512 64q91 0 174 36 80 33 142 96 63 62 96 142 36 83 36 174t-36 174q-33 80-96 142-62 63-142 96-83 36-174 36t-174-36q-80-33-143-96-61-61-95-142-36-83-36-174t36-174q33-80 96-142 62-63 142-96 83-36 174-36zm0-64Q408 0 313 41T150 150 41 313 0 512t41 199 109 163 163 109 199 41 199-41 163-109 109-163 41-199-41-199-109-163T711 41 512 0z"/></svg>