<svg xmlns="http://www.w3.org/2000/svg" viewBox="0 0 1024 768"><path d="M980 355q-31-46-76-76-3-51-22-96-23-53-67-97-44-42-98-64T601 0q-93 0-169 51-45 30-77 73-24-8-52-8-37 0-70 13.5T174 169q-27 26-41 58-14 33-14 70 0 13 2 26-38 22-67 57Q0 445 0 529q0 50 18 93 18 42 53.5 76.5t79 52T243 768h508q55 0 104-19.5t88.5-58.5 59.5-86q21-49 21-104 0-79-44-145zM781 481L632 631q-10 9-23 9t-23-9L437 481q-9-9-9-22.5t9-22.5 22.5-9 22.5 9l95 95V225q0-14 9.5-23t22.5-9 22.5 9 9.5 23v306l95-95q9-9 22.5-9t22.5 9 9 22.5-9 22.5z"/></svg>