<svg xmlns="http://www.w3.org/2000/svg" viewBox="0 0 896 1024"><path d="M686 17Q670 0 646 0H268q-28 0-49 18.5T194 64h-79q-48 0-81.5 33.5T0 179v730q0 48 33.5 81.5T115 1024h604q48 0 81.5-33.5T834 909v-80q27-5 44.5-26t17.5-48V250q0-24-17-40zm117 207H644V65zm-33 685q0 21-14.5 36T720 960H115q-21 0-36-15t-15-36V179q0-21 15-36t36-15h78v627q0 31 22 53t53 22h502v79zm62-155q0 12-12 12H268q-4 0-7.5-3.5T257 754V76q0-5 3.5-8.5T268 64h308v192q0 13 9.5 22.5T608 288h224v466zM672 447H417q-13 0-22.5-9.5T385 415t9.5-22.5T417 383h255q13 0 22.5 9.5T704 415t-9.5 22.5T672 447zm0 129H417q-13 0-22.5-9.5T385 544t9.5-22.5T417 512h255q13 0 22.5 9.5T704 544t-9.5 22.5T672 576zM544 705H416q-13 0-22.5-9.5T384 673t9.5-22.5T416 641h128q14 0 23 9.5t9 22.5-9 22.5-23 9.5z"/></svg>