<svg xmlns="http://www.w3.org/2000/svg" viewBox="0 0 1024 1024"><path d="M558 512l195-191q9-10 9.5-23t-8.5-23q-10-9-23-9t-23 9L512 467 316 275q-10-9-23-9t-23 10q-9 9-9 22.5t10 22.5l195 191-195 191q-9 10-9.5 23t8.5 23q10 9 23 9t23-9l196-192 196 192q10 9 23 9t23-10q9-9 9-22.5T753 703zM512 64q91 0 174 35 81 34 143 96t96 143q35 83 35 174t-35 174q-34 81-96 143t-143 96q-83 35-174 35t-174-35q-81-34-143-96T99 686q-35-83-35-174t35-174q34-81 96-143t143-96q83-35 174-35zm0-64Q373 0 255 68.5T68.5 255 0 512t68.5 257T255 955.5t257 68.5 257-68.5T955.5 769t68.5-257-68.5-257T769 68.5 512 0z"/></svg>