<svg xmlns="http://www.w3.org/2000/svg" viewBox="0 0 960 1023"><path d="M671 383q13 0 22.5 9t9.5 23v448q0 14-9.5 23.5T671 895q-13 0-22.5-9t-9.5-23V415q0-14 9.5-23t22.5-9zm0 576q13 0 22.5 9.5T703 991t-9.5 22.5-22.5 9.5-22.5-9.5T639 991t9.5-22.5T671 959zM159 256h384q13 0 22.5 9.5T575 288t-9.5 22.5T543 320H159q-13 0-22.5-9.5T127 288t9.5-22.5T159 256zm0 192h192q13 0 22.5 9.5T383 480t-9.5 22.5T351 512H159q-13 0-22.5-9.5T127 480t9.5-22.5T159 448zm0 192h192q13 0 22.5 9.5T383 672t-9.5 22.5T351 704H159q-13 0-22.5-9.5T127 672t9.5-22.5T159 640zM0 64v832q0 26 18.5 45T64 960h480q13 0 22.5-9.5T576 928q0-14-9.5-23t-22.5-9H64V64h832v832h-98q-13 0-22.5 9t-9.5 23q0 13 9.5 22.5T798 960h98q26 0 45-19t19-45V64q0-27-19-45.5T896 0H64Q37 0 18.5 18.5T0 64z"/></svg>