<svg xmlns="http://www.w3.org/2000/svg" viewBox="0 0 768 1024"><path d="M509 64l195 218v669q0 3-4 6t-9 3H77q-5 0-9-3t-4-6V73q0-3 4-6t9-3h432zm29-64H77Q45 0 22.5 21.5T0 73v878q0 30 22.5 51.5T77 1024h614q32 0 54.5-21.5T768 951V257zm-26 256V0h-64v256q0 26 19 45t45 19h253v-64H512zM384 774q-13 0-22.5-9t-9.5-23v-2q0-34 19-62t51-41q28-12 45-37.5t17-55.5q0-42-29-71.5T384 443q-35 0-62 21.5T287 519q-3 11-11.5 18t-19.5 7q-16 0-25.5-12.5T225 504q13-54 57.5-89T384 380q68 0 116 48t48 116q0 51-29 92-27 41-73 60-30 12-30 44v2q0 14-9.5 23t-22.5 9zm-1 123q-13 0-22.5-9.5T351 865t9.5-22.5T383 833t22.5 9.5T415 865t-9.5 22.5T383 897z"/></svg>