<svg xmlns="http://www.w3.org/2000/svg" viewBox="0 0 768 1024"><path d="M538 0H77Q45 0 22.5 21.5T0 73v878q0 30 22.5 51.5T77 1024h614q32 0 54.5-21.5T768 951V257zm143 256H512V67zm10 704H77q-5 0-9-3t-4-6V73q0-3 4-6t9-3h371v192q0 26 19 45t45 19h192v631q0 3-4 6t-9 3zM160 448h256q13 0 22.5-9.5T448 416t-9.5-22.5T416 384H160q-13 0-22.5 9.5T128 416t9.5 22.5T160 448zm448 128H160q-13 0-22.5 9.5T128 608t9.5 22.5T160 640h448q14 0 23-9.5t9-22.5-9-22.5-23-9.5zM416 832H160q-13 0-22.5-9.5T128 800t9.5-22.5T160 768h256q13 0 22.5 9.5T448 800t-9.5 22.5T416 832z"/></svg>