<svg xmlns="http://www.w3.org/2000/svg" viewBox="0 0 768 1024"><path d="M509 64l195 218v669q0 3-4 6t-9 3H77q-5 0-9-3t-4-6V73q0-3 4-6t9-3h432zm29-64H77Q45 0 22.5 21.5T0 73v878q0 30 22.5 51.5T77 1024h614q32 0 54.5-21.5T768 951V257zm-26 256V0h-64v256q0 26 19 45t45 19h253v-64H512zM323 448q0-27-19-45.5T259 384h-97q-13 0-22.5 9t-9.5 23q0 13 9.5 22.5T162 448h65q13 0 22.5 9t9.5 23v319q0 13-9.5 22.5T227 831h-1q-13 0-22.5-9t-9.5-22v-62q0-14-9.5-23t-22.5-9-22.5 9-9.5 23v93q0 26 19 45t45 19h65q26 0 45-19t19-45V448zm64 0v416q0 13 9.5 22.5T419 896t22.5-9.5T451 864V639h123q26 0 45-18.5t19-45.5V448q0-27-19-45.5T574 384H451q-27 0-45.5 18.5T387 448zm64 95v-63q0-14 9.5-23t22.5-9h59q13 0 22.5 9t9.5 23v63q0 13-9.5 22.5T542 575h-59q-13 0-22.5-9.5T451 543zm157 354q-14 0-23-9.5t-9-22.5 9-22.5 23-9.5q13 0 22.5 9.5T640 865t-9.5 22.5T608 897z"/></svg>