<svg xmlns="http://www.w3.org/2000/svg" viewBox="0 0 1024 1024"><path d="M560 525q-14 14-7 32 11 27 11 56 0 63-45 108L322 918q-45 45-108.5 45t-108-44.5-44.5-108T106 702q137-137 192-190 9-9 9-22t-9-22-21.5-9-21.5 9Q61 660 63 660 0 722 0 810.5T63 962q62 62 150.5 62T365 962l197-198q46-46 58.5-109T610 535q-6-15-22-18.5t-28 8.5zm-96-26q14-14 7-32-11-27-11-56 0-63 45-108l198-197q44-45 107.5-45t108 44.5 44.5 108T919 322Q781 459 726 512q-9 9-9 22t9 22 21.5 9 21.5-9l192-192q63-62 63-150.5T961 62Q899 0 810.5 0T660 62L462 260q-46 46-58.5 109T414 489q6 15 22 18.5t28-8.5z"/></svg>