<svg xmlns="http://www.w3.org/2000/svg" viewBox="0 0 1024 1024"><path d="M352 768h-1q-13 0-22-9.5t-9-22.5V288q0-13 9-22.5t22-9.5h1q13 0 22.5 9.5T384 288v448q0 13-9.5 22.5T352 768zm321 0h-1q-13 0-22.5-9.5T640 736V288q0-13 9.5-22.5T672 256h1q13 0 22.5 9.5T705 288v448q0 13-9.5 22.5T673 768zM512 64q91 0 174 35 81 34 143 96t96 143q35 83 35 174t-35 174q-34 81-96 143t-143 96q-83 35-174 35t-174-35q-81-34-143-96T99 686q-35-83-35-174t35-174q34-81 96-143t143-96q83-35 174-35zm0-64Q373 0 255 68.5T68.5 255 0 512t68.5 257T255 955.5t257 68.5 257-68.5T955.5 769t68.5-257-68.5-257T769 68.5 512 0z"/></svg>