<svg xmlns="http://www.w3.org/2000/svg" viewBox="0 0 1024 1024"><path d="M512 0Q373 0 255 68.5T68.5 255 0 512t68.5 257T255 955.5t257 68.5 257-68.5T955.5 769t68.5-257-68.5-257T769 68.5 512 0zM364 204q9-10 22.5-10t22.5 10l103 102 103-102q9-10 22.5-10t22.5 10q9 9 9 22.5t-9 22.5L535 374q-9 9-22.5 9.5T490 374L364 249q-9-9-9-22.5t9-22.5zm405 274q0 13-9 22.5t-23 9.5H544v132h128q14 0 23 9.5t9 22.5-9 22.5-23 9.5H544v92q0 13-9.5 22.5T512 830t-22.5-9.5T480 798v-92H355q-14 0-23-9.5t-9-22.5 9-22.5 23-9.5h125V510H289q-14 0-23-9.5t-9-22.5 9-22.5 23-9.5h448q14 0 23 9.5t9 22.5z"/></svg>