<svg xmlns="http://www.w3.org/2000/svg" viewBox="0 0 1024 1024"><path d="M512 0Q373 0 255 68.5T68.5 255 0 512t68.5 257T255 955.5t257 68.5 257-68.5T955.5 769t68.5-257-68.5-257T769 68.5 512 0zm317 829q-62 62-143 96-83 35-174 35t-174-35q-81-34-143-96T99 686q-35-83-35-174t35-174q34-81 96-143t143-96q83-35 174-35t174 35q81 34 143 96t96 143q35 83 35 174t-35 174q-34 81-96 143zM490 374q9 9 22.5 9t22.5-9l125-125q9-9 9-22.5t-9-22.5q-9-10-22.5-10T615 204L512 306 409 204q-9-10-22.5-10T364 204q-9 9-9 22.5t9 22.5zm247 72H289q-14 0-23 9.5t-9 22.5 9 22.5 23 9.5h191v132H355q-14 0-23 9.5t-9 22.5 9 22.5 23 9.5h125v92q0 13 9.5 22.5T512 830t22.5-9.5T544 798v-92h128q14 0 23-9.5t9-22.5-9-22.5-23-9.5H544V510h193q14 0 23-9.5t9-22.5-9-22.5-23-9.5z"/></svg>