<svg xmlns="http://www.w3.org/2000/svg" viewBox="0 0 1024 1024"><path d="M512 64q91 0 174 35 81 34 143 96t96 143q35 83 35 174t-35 174q-34 81-96 143t-143 96q-83 35-174 35t-174-35q-81-34-143-96T99 686q-35-83-35-174t35-174q34-81 96-143t143-96q83-35 174-35zm0-64Q373 0 255 68.5T68.5 255 0 512t68.5 257T255 955.5t257 68.5 257-68.5T955.5 769t68.5-257-68.5-257T769 68.5 512 0zm-64 316l231 196-231 196V316zm-40-112q-9 0-16.5 6.5T384 226v572q0 9 7.5 15t17 6 16.5-6l335-285q8-7 8-16t-8-16L425 211q-7-7-17-7z"/></svg>