<svg xmlns="http://www.w3.org/2000/svg" viewBox="0 0 1024 1024"><path d="M512 960h64v64h-64v-64zm0-832h-64v128h64v-64h64v-64h64V64h-64V0H384v64h128v64zM0 448h64v64H0v-64zm960 64h64v64h-64v-64zm-64-128v128H768V384H576V256h-64v128h-64v64h256v64H512v64h64v128h128v-64h-64v-64h256v-64h64V384h-64zM448 768V640h-64v192h64v64h-64v64h128V832h128v-64H448zM64 384h128v64H64v-64zm512 512h64v64h-64v-64zM0 576h64v64H0v-64zm448-128H320v-64h-64v64h-64v64h64v128h64V512h128v-64zM64 320h192q27 0 45.5-18.5T320 256V64q0-27-18.5-45.5T256 0H64Q37 0 18.5 18.5T0 64v192q0 27 18.5 45.5T64 320zm0-256h192v192H64V64zm64 64h64v64h-64v-64zM960 0H768q-27 0-45.5 18.5T704 64v192q0 27 18.5 45.5T768 320h192q27 0 45.5-18.5T1024 256V64q0-27-18.5-45.5T960 0zm0 256H768V64h192v192zM832 128h64v64h-64v-64zm128 576H768q-27 0-45.5 18.5T704 768v192q0 27 18.5 45.5T768 1024h192q27 0 45.5-18.5T1024 960V768q0-27-18.5-45.5T960 704zm0 256H768V768h192v192zM832 832h64v64h-64v-64zM256 704H64q-27 0-45.5 18.5T0 768v192q0 27 18.5 45.5T64 1024h192q27 0 45.5-18.5T320 960V768q0-27-18.5-45.5T256 704zm0 256H64V768h192v192zM128 832h64v64h-64v-64z"/></svg>