<svg xmlns="http://www.w3.org/2000/svg" viewBox="0 0 1023.666748046875 1024"><path d="M993 512q-12 0-20.5 8t-9.5 20q-4 77-34 148-35 81-97.5 143.5T688 928q-83 36-175.5 36T337 928q-82-34-144.5-96.5T96 688q-35-84-35-176t35-176q35-81 97-143.5T337 96q83-36 175-36 112 0 211 52 58 30 106 77l-118-21q-13-2-23.5 5.5T674 194q-2 13 5.5 24t20.5 13l189 34q13 2 24-5.5t13-20.5l34-189q2-13-5.5-23.5T934 13q-13-2-24 5.5T897 39l-20 113q-56-56-126-93Q640 0 512 0 408 0 313 40q-92 39-162 110-71 71-110 163Q0 408 0 512t41 199q39 92 109 163 72 71 163 110 95 40 199 40 105 0 200-40 92-39 162-110 71-71 110-163 34-80 39-167 1-13-8-22.5t-22-9.5z"/></svg>