<svg xmlns="http://www.w3.org/2000/svg" viewBox="0 0 1024 1024"><path d="M64 0Q38 0 19 19T0 64v157q0 14 9.5 23.5T33 254t23.5-9.5T66 221V98q0-13 9.5-22.5T98 66h123q14 0 23.5-9.5T254 33t-9.5-23.5T221 0H64zM0 960q0 26 19 45t45 19h157q14 0 23.5-9.5T254 991t-9.5-23.5T221 958H98q-13 0-22.5-9.5T66 926V803q0-14-9.5-23.5T33 770t-23.5 9.5T0 803v157zm960 64q26 0 45-19t19-45V803q0-14-9.5-23.5T991 770t-23.5 9.5T958 803v123q0 13-9.5 22.5T926 958H803q-14 0-23.5 9.5T770 991t9.5 23.5 23.5 9.5h157zM958 0H803q-14 0-23.5 9.5T770 33t9.5 23.5T803 66h123q13 0 22.5 9.5T958 98v123q0 14 9.5 23.5T991 254t23.5-9.5 9.5-23.5V64q0-26-19-45T960 0h-2zM192 256v512q0 26 19 45t45 19h512q26 0 45-19t19-45V256q0-26-19-45t-45-19H256q-26 0-45 18.5T192 256zm546 514H286q-13 0-22.5-9.5T254 738V286q0-13 9.5-22.5T286 254h452q13 0 22.5 9.5T770 286v452q0 13-9.5 22.5T738 770z"/></svg>