<svg xmlns="http://www.w3.org/2000/svg" viewBox="0 0 768 1024"><path d="M646 244q50 0 86-35.5t36-86T732 36 645.5 0 559 36t-36 86q0 27 11 51L338 351q-52-31-114-31-93 0-158.5 65.5T0 544t66 158.5T224 768q64 0 118-34l129 117q-11 24-11 51 0 50 35.5 86t86 36 86.5-36 36-86.5-36-86.5-86-36q-39 0-70 23L391 693q57-64 57-149 0-88-59-152l186-170q32 22 71 22zm-.5-180Q670 64 687 81t17 41-17 41-41.5 17-41.5-17-17-41 17-41 41.5-17zM111 657q-47-47-47-113t47-113 113-47 113 47 47 113-46.5 113-113 47T111 657zm471 187q24 0 41 17t17 41-17 41-41 17-41-17-17-41 17-41 41-17z"/></svg>