<svg xmlns="http://www.w3.org/2000/svg" viewBox="0 0 1025.3333740234375 897"><path d="M993 642H282l49-66 582-1q11 0 20-7t11-19l80-447q2-15-7-26t-24-11l-742-2-8-37q-3-11-11.5-18.5T212 0L32 1Q19 1 9.5 10T0 32t9.5 22.5T32 64h154l29 138 68 331-89 122q-12 16-3 33.5t29 17.5h94q-36 32-36 81 0 45 32 77.5t77.5 32.5 78-32.5T498 787q0-49-36-81h230q-36 32-36 81 0 45 32 77.5t78 32.5 78-32.5 32-77.5q0-49-36-81h153q13 0 22.5-9.5t9.5-22.5-9.5-22.5T993 642zm-37-515l-69 386-541 1-82-389zM388 833q-19 0-32.5-13.5T342 787t13.5-32.5T388 741t32.5 13.5T434 787t-13.5 32.5T388 833zm378 0q-19 0-32.5-13.5T720 787t13.5-32.5T766 741t32.5 13.5T812 787t-13.5 32.5T766 833z"/></svg>