<svg xmlns="http://www.w3.org/2000/svg" viewBox="0 0 1024 1024"><path d="M512 0Q373 0 255 68.5T68.5 255 0 512t68.5 257T255 955.5t257 68.5 257-68.5T955.5 769t68.5-257-68.5-257T769 68.5 512 0zM256 414q0 13-9.5 22.5T224 446t-22.5-9.5T192 414v-64q0-13 9.5-22.5T224 318t22.5 9.5T256 350v64zm511 134q-12 83-73 144-76 74-182 74t-182-74q-61-60-73-144-2-14 7.5-25t23.5-11q12 0 21 8t11 19q9 62 55 107 57 56 137 56t137-56q46-45 55-107 2-12 11-19.5t21-7.5q14 0 24 11t7 25zm64-134q0 13-9.5 22.5T799 446t-22.5-9.5T767 414v-64q0-13 9.5-22.5T799 318t22.5 9.5T831 350v64z"/></svg>