<svg xmlns="http://www.w3.org/2000/svg" viewBox="0 0 1024 844"><path d="M222.5 201q13.5 0 23 9.5t9.5 23-9.5 23-23 9.5-23-9.5-9.5-23 9.5-23 23-9.5zm.5-64q-40 0-68.5 28.5T126 234t28.5 68 68.5 28 68-28 28-68-28-68.5-68-28.5zm781 330L555 14Q542 0 523 0H70Q41 0 20.5 20.5T0 69v280q0 18 13 32l448 443q21 20 50 20t49-20l41-41 41 41q20 20 49 20t50-20l263-260q20-20 20-48.5t-20-48.5zM556 739l-40 39q-2 2-5 2t-5-2L64 341V69q0-5 6-5h265l443 448q2 1 2 3t-2 3L601 693zm402-220L696 778q-2 2-5 2t-4-2l-40-39 176-175q21-20 21-48.5T824 467L425 64h90l443 448q2 1 2 3t-2 4z"/></svg>