<svg viewBox="0 0 1195 1195" xmlns="http://www.w3.org/2000/svg"><path d="M248.22 801.014h344.514l39.045-39.045H758.11l-107.95 119.44H248.22zm292.507-83.558l-74.312 76.411h121.467l40.172-39.045h145.9l-37.387 43.028h206.111v-80.394zM953.245 552.96H241.422c-31.764 0-57.508 25.815-57.508 57.651v376.217c0 31.846 25.754 57.651 57.508 57.651h711.833c31.764 0 57.508-25.815 57.508-57.651V610.611c0-31.836-25.754-57.651-57.518-57.651zm43.448 434.094c0 25.067-20.316 45.384-45.384 45.384H243.357c-25.067 0-45.383-20.316-45.383-45.384V610.386c0-25.067 20.316-45.384 45.383-45.384H951.31c25.067 0 45.384 20.316 45.384 45.384v376.668zM302.697 587.837c13.895 4.014 22.887 15.667 22.661 29.522-.113 6.912-2.806 12.8-7.414 17.869-.604.666-1.219 1.31-1.976 2.13 13.046 9.237 18.288 21.228 11.991 36.311-4.638 11.111-13.875 16.64-25.826 17.634-1.26-.164-2.509-.471-3.768-.471-14.879-.03-29.767-.01-44.647-.02-3.113 0-3.318-.195-3.318-3.277 0-33.075.02-66.14.041-99.215 16.251-.01 32.512 0 48.763-.041 1.167-.01 2.334-.297 3.492-.441zm-24.064 20.286c-.04 6.543-.082 13.087-.113 19.63 0 .072.102.144.154.226 3.666-.031 7.342-.01 11.008-.103 4.198-.112 7.24-2.591 7.987-6.615.778-4.208-.482-7.751-3.86-10.526-4.589-3.779-9.81-3.523-15.176-2.611zm-.153 62.29c4.547.092 9.134.625 13.63.174 5.478-.553 8.581-4.332 8.857-9.534.256-4.833-2.775-9.984-7.598-10.793-4.844-.809-9.922-.205-14.889-.215-.174.697-.492 1.382-.492 2.079-.06 5.724-.082 11.438-.07 17.162 0 .379.368.748.562 1.127zm270.11-13.446c-.01-16.886 10.998-30.761 28.416-35.83 17.47-5.079 37.5 3.522 45.65 19.599 10.107 19.938.676 43.131-20.644 50.719-3.717 1.321-7.536 1.628-11.49 1.894-4.557.307-8.919.205-13.332-.788-16.599-3.769-28.59-18.688-28.6-35.594zm25.273-.347c-.05 8.54 5.663 14.736 13.68 14.817 7.844.082 14.428-6.236 14.5-13.916.092-8.632-5.652-14.592-14.09-14.623-8.683-.031-14.039 5.182-14.09 13.721zM400.89 691.886c-6.615.041-13.22.133-19.835.051-.973-.01-1.935-.84-3.48-1.557-4.722 2.263-10.477 3.308-16.364 3.543-6.676.266-13.22-.379-19.18-3.779-6.84-3.911-9.226-10.076-8.775-17.654.922-15.514 11.172-22.221 22.641-25.201 4.844-1.26 9.943-1.526 14.93-2.232.82-.113 1.792.102 2.427-.276 1.198-.707 2.663-1.557 3.103-2.693.256-.665-1.26-2.007-1.986-3.051-.788-.461-1.567-1.31-2.355-1.321-3.656-.062-7.332.03-10.988.236-.88.051-1.72.717-2.58 1.106-4.188.921-8.397 1.741-12.544 2.806-2.457.635-4.813 1.669-7.629 2.672.37-2.314.645-4.332 1.014-6.338.645-3.513 1.382-7.004 1.976-10.517.277-1.618.932-2.765 2.631-3.041 4.65-.758 9.288-1.557 13.957-2.212 3.41-.471 6.861-1.065 10.291-1.024 8.12.092 16.077 1.29 23.4 5.12 5.651 2.959 9.983 7.117 11.407 13.65-.174.584-.49 1.168-.49 1.751 0 15.186.081 30.362 0 45.538-.01 1.485-1.015 2.949-1.568 4.423zm-22.743-25.385c0-1.28.154-2.59-.062-3.84-.103-.615-.91-1.577-1.392-1.567-5.806.01-11.387.963-15.616 5.427-2.304 2.437-2.683 5.888-1.25 8.397 1.351 2.355 5.202 4.137 8.018 3.707 7.086-1.065 10.342-4.885 10.301-12.124zm398.715 27.003c-3.216-1.034-6.615-1.69-9.595-3.195-5.817-2.939-8.939-7.833-9.298-14.51-.502-9.349 2.078-17.398 10.138-22.681 3.85-2.519 8.233-4.546 12.657-5.755 5.08-1.382 10.466-1.608 15.73-2.325.358-.051.736.01 1.095-.062 1.864-.348 3.85-.88 3.952-3.113.102-2.099-1.884-2.775-3.47-2.806-5.11-.072-10.292-.358-15.31.389-6.646.993-13.159 2.877-19.947 4.423.655-3.563 1.372-7.486 2.1-11.407.245-1.352.644-2.693.757-4.055.184-2.14.994-3.44 3.277-4.045 13.64-3.656 27.29-4.413 40.97-.358 5.438 1.618 10.516 4.086 13.937 8.807 1.577 2.171 2.417 4.864 3.594 7.321-.226.738-.655 1.464-.655 2.202.03 15.084.082 30.167.215 45.251.02 1.945-.512 3.369-2.222 4.311-6.206.031-12.4.143-18.606.041-1.086-.02-2.15-.87-3.45-1.444-3.595.921-7.62 1.956-11.644 2.99-4.332-.195-8.673-.399-13.005-.543-.399-.01-.809.369-1.218.563zm8.264-17.735c1.126 2.959 6.114 4.116 9.78 2.253 6.041-1.966 8.59-6.123 7.812-12.4-.092-.717-.072-1.464-.01-2.192.144-1.741-.594-2.775-2.355-2.386-3.533.778-7.26 1.25-10.486 2.765-5.417 2.529-6.625 6.288-4.74 11.961zm-375.41 16.066c-.174-1.065-.48-2.12-.48-3.185-.032-20.93-.022-41.861-.01-62.791 0-3.481.02-3.492 3.521-3.492 6.34-.01 12.667-.01 19.005 0 3.246.01 3.246.021 3.42 3.298.021.359.103.717.215 1.516 1.096-.645 1.997-1.168 2.898-1.71 12.114-7.271 26.091-5.632 35.216 4.198 4.444 4.793 6.553 10.608 6.615 17.06.123 14.315.062 28.642.041 42.957 0 .696-.297 1.392-.46 2.099-.462-.195-.922-.563-1.393-.573-5.642-.072-11.274-.133-16.916-.082-1.239.01-2.468.491-3.707.747-.195 0-.379-.01-.574-.01-.543-1.474-1.536-2.939-1.557-4.423-.133-10.69-.05-21.391-.103-32.082-.01-1.239-.368-2.488-.563-3.727-.962-4.127-2.704-7.588-7.25-8.755-5.15-1.311-8.858.348-12.442 5.611-2.058.226-1.649 1.792-1.608 3.082.041 1.372.358 2.734.358 4.096.031 9.462.051 18.923 0 28.375-.01 2.233-.297 4.465-.45 6.564-1.178 0-2.12-.031-3.05 0-4.476.154-8.96.246-13.426.532-2.447.174-4.997-.809-7.3.697zm222.127-69.366c7.434-.031 14.87-.041 22.303-.103 1.69-.01 2.621.574 2.54 2.396-.03.635.071 1.27.132 2.365 1.628-.891 3-1.659 4.383-2.406 11.448-6.257 25.11-4.516 33.772 4.362 3.758 3.85 6.093 8.448 6.82 13.814-.164 1.26-.47 2.509-.47 3.769-.03 13.496.01 26.993-.073 40.489-.01 1.577-.676 3.154-1.044 4.731-7.066.041-14.12.01-21.187.154-2.375.051-2.417-1.3-2.417-2.99.01-9.82 0-19.63 0-29.45 0-2.57.051-5.141-.05-7.701-.206-5.181-3.135-8.387-8.367-9.318-4.208-.748-8.929 1.874-10.69 5.99-.36.839-.595 1.731-.892 2.601-.174 1.065-.48 2.13-.48 3.195-.03 12.514-.02 25.037-.02 37.55l-23.727-.03c-.174-1.536-.49-3.072-.49-4.608-.042-21.596-.03-43.202-.042-64.809zm73.902 13.25c-.04-3.676-.02-7.342-.144-11.008-.062-1.833.737-2.325 2.457-2.365 5.91-.164 5.91-.215 5.91-6.288 0-2.939-.113-5.888.081-8.806.062-.911.717-2.192 1.475-2.591 7.772-4.137 15.626-8.13 23.46-12.155.144-.072.348-.01.798-.01.062.738.184 1.505.184 2.284.02 8.263.082 16.527-.02 24.791-.02 2.15.625 2.949 2.826 2.846 3.113-.154 6.246-.02 9.36-.031 1.26-.01 2.13.266 2.12 1.813-.04 5.499-.01 10.998-.01 17.019h-13.548c-.266 1.116-.747 2.233-.758 3.358-.082 5.663-.04 11.326-.04 16.988 0 3.103-.03 6.216.04 9.319.01.553-.543 2.089 1.147 1.167 3.308 2.959 6.851 1.782 10.384.584 1.505.614 2.314 1.444 1.884 3.338-.338 1.475-.174 3.102.01 4.639.604 4.946-.798 7.352-5.366 9.359-.983.43-1.7 1.464-2.539 2.212-6.564 2.151-13.117 2.325-19.486-.604-7.823-3.594-11.899-9.79-11.98-18.432-.103-10.076-.052-20.142-.073-30.218-1.649-.205-3.298-.542-4.956-.594-1.618-.051-2.56-.358-2.499-2.314.051-1.424-.45-2.867-.717-4.301zm226.59 36.824c3.082 2.191 6.236 1.31 9.39.184 1.485.461 2.284 1.372 2.12 3.031-.092.901.041 1.833-.02 2.734-.236 3.41.778 6.963-1.065 10.199-5.489 4.024-11.602 5.397-18.37 4.762-8.376-.778-14.633-4.536-17.98-12.309-1.087-2.519-1.466-5.499-1.527-8.284-.184-8.888-.04-17.776-.092-26.665-.01-1.126-.43-2.253-.665-3.379-1.607-.174-3.226-.491-4.833-.491-1.904 0-2.898-.604-2.867-2.673.062-4.741-.072-9.493.092-14.233.03-.993 1.004-1.945 1.546-2.918.37-.041.727-.103 1.096-.113 5.683-.164 5.683-.164 5.683-5.755 0-3.021.051-6.041-.02-9.063-.04-1.546.481-2.57 1.894-3.298 6.35-3.256 12.667-6.564 18.995-9.861 3.8.307 3.8.307 3.81 4.413.01 6.748-.03 13.497.04 20.245.01 1.137.451 2.263.686 3.389h13.62c0 6.226.01 12.452.01 18.678-4.148.02-8.285.031-12.433.051-.266 1.024-.747 2.038-.778 3.072-.092 3.554-.04 7.117-.04 10.68 0 5.202-.03 10.404.03 15.606.01.973-.605 2.806 1.678 1.997zm-40.345-25.18c-1.822-.953-3.359-1.987-5.038-2.57-6.687-2.335-13.476-3.779-20.337-.778-6.564 2.867-9.923 8.54-9.154 15.657.307 2.816 1.66 5.335 4.208 6.994 9.114 5.929 18.422 4.772 27.802.778.737-.317 1.423-.747 2.355-1.249.133.635.287 1.044.287 1.454.01 6.062-.02 12.114.03 18.176.01 1.444-.399 2.386-1.75 3.062-18.986 9.534-46.367 3.431-55.717-18.462-8.694-20.357 3.195-43.643 24.781-48.64 9.984-2.314 19.804-1.659 29.471 1.802 2.447.88 3.348 2.294 3.256 4.915-.194 5.406-.05 10.834-.062 16.24-.01.798-.082 1.598-.133 2.622zm-349.942-1.291c-6.288-3.379-12.995-4.598-19.958-3.082-6.288 1.372-10.649 5.202-12.257 11.653-.952 3.84-.03 7.281 2.622 10.219 2.96 3.277 6.717 5.089 11.08 5.499 5.437.502 10.812.133 16.025-1.639 1.22-.195 2.447-.379 3.922-.614.062 1.198.164 2.181.164 3.174.021 4.116.113 8.243-.04 12.36-.063 1.679-.677 3.338-1.046 5.007-7.526 4.465-15.769 5.09-24.187 4.178-6.933-.747-13.373-3.041-18.893-7.475-1.72-1.997-3.369-4.055-5.192-5.97-.86-.912-2.038-1.526-3.072-2.274-5.356-7.291-7.495-15.545-6.257-24.382 2.437-17.347 12.503-28.242 29.726-31.56 9.431-1.813 18.964-1.096 27.884 3.216.358 1.392.973 2.785 1.014 4.188.133 4.649.154 9.298-.02 13.947-.042 1.219-.994 2.375-1.516 3.553zm-291.604-57.764c-.01 33.075-.03 66.14-.04 99.216 0 3.082.204 3.277 3.317 3.277 14.88.01 29.768-.01 44.647.021 1.26 0 2.52.307 3.768.471-16.896.03-33.782.051-50.678.071-.44 0-.88-.113-1.516-.195-.05-1.086-.133-2.068-.133-3.052-.01-32.594-.01-65.188.02-97.771 0-1.034.348-2.058.522-3.093.041.348.071.697.092 1.055zm159.272 103.527c2.304-1.516 4.854-.533 7.291-.686 4.464-.276 8.95-.369 13.425-.533.932-.03 1.874 0 3.051 0 .154-2.089.44-4.322.45-6.564.051-9.462.041-18.923 0-28.375 0-1.372-.317-2.734-.358-4.096-.04-1.28-.45-2.857 1.608-3.082-.205 1.433-.574 2.877-.574 4.311-.05 11.94-.02 23.89-.03 35.83 0 3.328-.032 3.359-3.37 3.338-7.168-.021-14.336-.092-21.494-.143zm222.127-69.366c.01 21.606 0 43.202.041 64.809 0 1.536.317 3.072.491 4.608-.369-.87-1.034-1.741-1.044-2.621-.082-9.063-.05-18.125-.05-27.187 0-12.267-.01-24.525.03-36.793 0-.932.347-1.874.532-2.816zm192.952 69.428c1.71-.942 2.242-2.355 2.222-4.311-.133-15.084-.184-30.167-.215-45.251 0-.738.42-1.464.655-2.201.072 6.861.184 13.721.205 20.582.03 9.154 0 18.309 0 27.453v3.554a113.02 113.02 0 0 1-2.867.174zm-423.905-.011c.543-1.474 1.557-2.949 1.567-4.423.082-15.175 0-30.361 0-45.537 0-.584.317-1.168.481-1.751.092 1.639.266 3.287.266 4.926.031 14.653.021 29.296.041 43.95 0 1.608.154 3.318-2.355 2.837zm344.555.287c.84-.758 1.557-1.782 2.54-2.212 4.566-2.007 5.98-4.413 5.365-9.36-.184-1.526-.348-3.164-.01-4.638.43-1.894-.379-2.724-1.884-3.338.747-.481 1.485-.962 2.724-1.751 0 5.755.041 10.998-.062 16.24-.01.543-.717 1.27-1.28 1.557-2.427 1.239-4.915 2.345-7.394 3.502zm-45.24-.276c.36-1.577 1.034-3.154 1.044-4.731.082-13.497.041-26.993.072-40.489 0-1.26.307-2.509.471-3.769.03 15.657.062 31.324.112 46.981 0 1.178 0 2.284-1.7 2.007zm-245.34-40.244c.195 1.239.553 2.488.563 3.727.041 10.691-.04 21.392.103 32.082.021 1.485 1.014 2.949 1.557 4.423-2.274.451-2.263-.983-2.263-2.59.041-12.554.031-25.098.041-37.642zm201.237 40.264c0-12.514-.01-25.037.02-37.55 0-1.065.317-2.13.481-3.195.02 12.923.051 25.846.041 38.769 0 .655-.348 1.321-.543 1.976zm274.135-69.448c-.236-1.127-.676-2.253-.686-3.389-.072-6.748-.03-13.497-.04-20.245 0-4.106-.01-4.106-3.81-4.413 1.27-.696 2.55-1.403 4.537-2.498v30.546zm2.098 50.074c-2.284.809-1.669-1.024-1.679-1.987-.062-5.202-.03-10.404-.03-15.606 0-3.564-.062-7.117.041-10.68.03-1.034.502-2.048.778-3.072-.04 9.236-.123 18.462-.072 27.689-.01 1.229.615 2.437.962 3.656zm-191.262-.502c-1.689.911-1.136-.614-1.147-1.167-.072-3.103-.04-6.216-.04-9.319 0-5.662-.042-11.325.04-16.988.02-1.126.491-2.233.758-3.358-.03 9.39-.082 18.77-.082 28.16 0 .881.307 1.772.471 2.673zm156.99-49.541c-.543.973-1.515 1.925-1.546 2.918-.164 4.741-.03 9.493-.092 14.233-.03 2.069.962 2.673 2.867 2.673 1.607 0 3.226.317 4.833.491h-8.274v-7.823c0-3.472.062-6.942-.03-10.414-.04-1.679.563-2.375 2.242-2.078zM542.56 688.66c.358-1.669.983-3.328 1.045-5.007.154-4.117.062-8.243.041-12.36 0-.983-.103-1.966-.164-3.174-1.474.225-2.704.42-3.922.614 1.392-.819 2.786-1.628 4.69-2.744v4.976c0 4.915-.02 9.83.021 14.745.01 1.382-.133 2.55-1.71 2.949zm-.512-42.588c.533-1.178 1.474-2.345 1.526-3.543.185-4.638.154-9.298.021-13.947-.04-1.403-.656-2.796-1.014-4.188.553.727 1.567 1.454 1.587 2.192.123 6.82.072 13.63.072 20.962-.962-.635-1.577-1.055-2.192-1.475zm-84.387 45.825c1.24-.266 2.468-.738 3.707-.748 5.632-.051 11.274.01 16.916.082.461.01.932.369 1.392.573l-22.016.092zm-99.216-52.839c.86-.379 1.7-1.055 2.58-1.106 3.656-.205 7.332-.297 10.998-.236.788.01 1.567.86 2.355 1.321-5.315 0-10.619.01-15.933.02zm584.315 49.644c1.843-3.246.83-6.789 1.065-10.199.062-.911-.072-1.833.02-2.734.164-1.659-.635-2.56-2.12-3.031.747-.481 1.485-.962 2.642-1.71 0 5.591.051 10.803-.072 16.016-.01.563-1.004 1.106-1.536 1.659zM491.216 677.12c1.034.748 2.202 1.372 3.072 2.274 1.813 1.904 3.471 3.963 5.192 5.97-2.755-2.745-5.509-5.489-8.264-8.243zm285.645 16.384c.41-.195.82-.574 1.218-.563 4.342.143 8.673.358 13.005.542-4.73.01-9.482.021-14.223.021zm166.993-52.357c0-6.226-.01-12.452-.01-18.678.174.297.502.594.502.901.03 5.632.03 11.264 0 16.896 0 .297-.317.594-.49.88zm-238.11-5.428c.256 1.434.768 2.867.717 4.291-.072 1.966.87 2.263 2.5 2.314 1.658.051 3.297.379 4.955.594-2.007-.01-4.024-.082-6.032.01-1.7.072-2.304-.666-2.222-2.274.082-1.639.062-3.287.082-4.935zM278.48 650.046c0 6.789 0 13.578.01 20.368-.195-.379-.573-.748-.573-1.126-.01-5.724 0-11.438.071-17.162 0-.697.317-1.382.492-2.079zm.153-41.923c.01 6.615.02 13.23.041 19.856-.05-.072-.154-.144-.154-.226.03-6.533.071-13.087.113-19.63zm506.492 67.646c2.816 2.673 6.298 2.468 9.78 2.253-3.667 1.854-8.664.707-9.78-2.253zm-465.828 332.533c-.164-1.147-.47-2.294-.47-3.451-.03-16.967-.02-33.946-.03-50.913 0-.88-.083-1.751-.636-2.826-6.564 9.308-13.138 18.626-19.947 28.283-.788-1.014-1.403-1.751-1.946-2.529-5.909-8.397-11.797-16.814-17.715-25.211-.307-.441-.748-.788-1.116-1.178-.195.839-.553 1.689-.563 2.529-.03 18.442-.02 36.885-.02 55.317-8.069.03-16.138.03-24.208.112-1.833.021-2.355-.768-2.365-2.478-.102-16.865-.246-33.731-.379-50.596.164-.891.482-1.772.482-2.663.02-14.408.01-28.805-.03-43.213 0-.88-.369-1.751-.563-2.631.994-.133 1.976-.369 2.97-.369 7.25-.03 14.51.051 21.76-.062 2.09-.03 3.338.707 4.495 2.417 5.653 8.366 11.417 16.65 17.152 24.965.563.819 1.167 1.618 1.987 2.765.973-1.372 1.822-2.519 2.621-3.687 5.458-7.936 10.947-15.862 16.333-23.849 1.188-1.762 2.5-2.601 4.7-2.57 7.434.113 14.88.062 22.313 0 1.956-.02 2.816.656 2.786 2.724-.246 15.78-.42 31.57-.615 47.35-.358.788-1.014 1.567-1.024 2.355-.103 7.065-.113 14.131-.123 21.187 0 8.264.01 16.517.072 24.781.01 1.874-.625 2.519-2.6 2.468-6.422-.144-12.852-.062-19.273-.082-3.205-.01-3.43-.082-3.44-3.134-.04-15.872-.02-31.754.02-47.626 0-1.168.39-2.335.471-3.513.03-.368-.358-.758-.563-1.136-.185.041-.358.092-.542.133.01 18.76.01 37.55.01 56.33zm576.071-.02c-6.87.041-13.753.072-20.624.133-1.372.01-2.058-.533-2.007-1.945.03-.727-.01-1.465-.01-2.202 0-31.273-.01-62.546-.01-93.819 0-3.963 0-3.973 3.922-3.983 6.052-.01 12.104-.031 18.155.01 1.065.01 2.13.297 3.195.45-.174.481-.49.962-.49 1.454-.01 10.27 0 20.551.05 30.822 0 .983.317 1.956.491 2.939.983-.409 2.028-.717 2.94-1.239 11.642-6.717 24.513-6.288 34.067 1.331 6.677 5.325 9.81 12.4 9.82 20.9.01 13.68 0 27.361.01 41.031 0 4.403.01 4.403-4.383 4.127-1.065-.174-2.14-.471-3.205-.491-4.485-.051-8.97-.01-13.466-.031-3.86-.02-4.25-.389-4.229-4.27.062-11.991.154-23.982.184-35.973 0-.327-.533-.666-.819-1.004-2.55-6.226-5.96-8.796-11.315-8.233-4.987.533-8.059 3.471-9.523 8.192-.072-.051-.133-.133-.215-.154-.062-.021-.215.03-.215.051-.062.809-.154 1.628-.154 2.437-.01 11.715-.04 23.429.02 35.144.02 1.936-.43 3.41-2.192 4.322zm-249.66-57.785c2.395-20.674 17.848-38.113 38.255-43.131 14.346-3.533 28.498-2.724 42.455 2.007.512.174.962.491 1.444.748.154.45.266.921.461 1.351.522 1.188 1.526 2.345 1.557 3.543.174 5.386.133 10.772.01 16.159-.02.932-.778 1.853-1.198 2.785-4.31-2.713-9.01-4.505-14.019-5.264-7.762-1.178-15.504-1.198-23.173.912-10.578 2.908-18.105 12.779-19.456 23.552-2.56 20.347 17.213 33.751 33.054 33.321 8.325-.226 16.24-1.393 23.275-6.175.533 1.157 1.475 2.304 1.515 3.471.154 5.386.041 10.783.072 16.179 0 .758.297 1.515.451 2.263-4.168 1.813-8.192 4.27-12.544 5.314-19.425 4.659-37.57 1.802-53.504-10.813-10.476-8.294-16.835-19.19-18.668-32.563.01-4.546.01-9.103.01-13.66zm158.176 56.638c-6.973.041-13.947.072-20.93.112-.278 0-.666.082-.81-.062-2.263-2.334-4.28-.297-6.38.317-9.072 2.693-18.197 3.318-27.35.441-10.27-3.226-15.115-11.254-13.989-22.016 1.423-13.506 10.537-20.357 21.995-23.286 5.274-1.351 10.855-1.526 16.282-2.304 1.423-.205 2.99-.369 4.158-1.086.922-.574 1.854-1.986 1.822-2.99-.02-.798-1.383-1.904-2.365-2.243-1.515-.533-3.226-.727-4.854-.747-10.466-.123-20.664 1.31-30.413 5.314-.42.174-.86.287-1.843.604.441-2.673.788-5.028 1.24-7.363.644-3.42 1.28-6.851 2.12-10.23.214-.86 1.115-1.997 1.893-2.181 5.264-1.198 10.567-2.171 15.862-3.216 2.785.154 5.571.42 8.346.43 2.51 0 5.018-.286 7.527-.45 7.455.778 14.612 2.468 20.91 6.809 4.598 3.175 7.486 7.455 8.243 13.056-.154 1.168-.43 2.334-.43 3.502-.03 14.377.01 28.764-.072 43.141.02 1.485-.615 2.969-.962 4.444zm-24.238-25.263c0-6.584.01-6.533-6.564-5.171-3.932.819-7.609 2.068-10.384 5.161-2.15 2.396-2.673 5.724-1.362 8.141 1.27 2.334 5.632 4.393 8.243 3.901 6.963-1.3 10.066-5.017 10.066-12.032zm-263.527-6.103c-1.209 3.615.727 8.038 4.905 10.128 6.625 3.308 13.752 3.993 20.87 2.274 5.58-1.351 10.966-3.451 16.444-5.223 1.598.133 1.833 1.229 1.833 2.539-.01 3.308-.062 6.615.021 9.913.051 2.274.286 4.537.45 6.8-4.874 3.861-10.71 5.376-16.599 6.697-2.314.522-4.7.697-7.045 1.024-.164-.082-.317-.215-.49-.236a800.576 800.576 0 0 0-12.054-.973c-.01 0-.072.768-.103 1.168-17.817-1.515-31.6-13.854-33.915-31.426-2.59-19.63 8.233-38.072 29.123-42.138 8.233-1.607 16.507-1.147 24.3 2.314 11.182 4.976 15.534 14.694 17.418 25.979.256 1.536.338 3.092.502 4.639-.154 1.075-.49 2.161-.42 3.216.144 2.099-.87 2.796-2.765 2.755-.91-.02-1.833.021-2.745.021-11.99 0-23.982-.01-35.963.02-1.27.021-2.519.338-3.769.512zm-1.147-14.304h22.262c-.103-4.803-3.86-8.212-8.99-8.745-8.458-.88-12.073 2.324-13.27 8.745zm-39.024-24.341c3.942.072 7.885.236 11.827.174 2.171-.031 3.164.563 3.092 2.939-.154 4.772-.133 9.554-.03 14.326.04 1.966-.749 2.581-2.592 2.539-3.656-.072-7.322-.02-11.16-.02-.104.911-.247 1.607-.247 2.304-.01 8.448-.01 16.896.01 25.344.01 3.922 1.986 5.776 5.918 5.079 2.57-.451 5.028-1.536 7.752-2.396.062.307.286.87.286 1.433.031 4.495.103 9.001-.03 13.497-.032.932-.605 2.222-1.342 2.693-7.916 5.048-16.476 6.625-25.488 3.687-7.475-2.437-15.043-9.124-13.486-21.299.195-.962.553-1.925.563-2.898.051-7.649.051-15.288 0-22.938-.01-.962-.358-1.936-.553-2.898-2.345-.164-4.68-.441-7.024-.461-1.72-.021-2.457-.574-2.427-2.386a565.21 565.21 0 0 0 0-16.159c-.03-1.863.83-2.314 2.478-2.375 2.334-.092 4.65-.389 6.974-.604.195-1.055.533-2.11.563-3.164.072-3.461.062-6.912.021-10.373-.02-1.659.123-3.102 2.08-3.635.255-.072.337-.768.511-1.178 6.871-3.615 13.742-7.219 20.613-10.834.358 1.27.993 2.539 1.014 3.819.092 7.69.031 15.37.082 23.061-.02.911.38 1.822.594 2.724zm-33.3 55.695c-3.656 8.848-10.926 13.087-19.753 14.951-11.837 2.509-23.522 1.229-35.02-2.253-2.366-.717-3.605-1.863-3.472-4.669.256-5.386.072-10.793.072-16.835 2.714 1.014 4.976 1.854 7.23 2.693-.175.041-.369.051-.523.133-.123.062-.185.226-.338.42 7.055 2.519 14.305 2.611 21.596 2.161.768-.051 1.464-1.096 2.192-1.669 2.591-3.246 2.243-5.468-1.618-7.014-3.03-1.209-6.359-1.669-9.523-2.581-2.55-.737-5.14-1.433-7.536-2.55-12.278-5.683-12.86-18.156-8.069-27.024 4.004-7.414 10.824-11.111 18.852-12.462 9.554-1.608 18.8.358 27.904 3.184.594.185 1.454.809 1.495 1.301.543 5.817.952 11.653 1.423 17.828-3.656-1.024-6.738-2.181-9.933-2.693-3.687-.594-7.454-.707-11.202-.83-1.014-.03-2.192.441-3.04 1.034-2.152 1.505-1.987 3.952.43 4.956 1.914.798 4.033 1.147 6.092 1.546 7.065 1.362 13.701 3.748 18.791 9.031 1.904 1.976 3.041 4.7 4.536 7.086-.174.778-.47 1.546-.49 2.325-.063 2.202-.01 4.393-.022 6.594-.02 1.792-.05 3.563-.072 5.335zm415.211-53.872c3.481.522 3.666.707 3.84 4.065l.82 15.473c-.902-.256-1.64-.42-2.346-.676-5.479-1.966-11.08-3.287-16.957-3.051-1.27.051-2.713.03-3.737.625-1.054.625-2.212 1.904-2.335 3-.092.829 1.188 2.253 2.181 2.683 1.731.758 3.687 1.044 5.571 1.382 5.847 1.075 11.326 3.052 16.16 6.595 10.177 7.465 10.403 18.575 4.556 27.781-3.994 6.298-10.26 9.401-17.244 10.865-11.735 2.457-23.357 1.546-34.775-2.068-.338-.102-.635-.348-.952-.522-1.792-1.157-2.192-2.846-2.16-4.874.082-4.281-.03-8.551-.01-12.831 0-.574.277-1.147.38-1.546h3.921c6.328 2.018 12.78 3.431 19.456 3.042 1.782-.103 3.687-.522 5.253-1.341 2.611-1.372 2.795-4.137.307-5.704-1.966-1.239-4.3-1.956-6.543-2.652-3.666-1.137-7.547-1.7-11.069-3.154-12.308-5.069-15.903-19.415-7.629-29.911 1.178-1.495 2.713-2.713 4.086-4.065 2.068-.389 4.147-.748 6.216-1.178.277-.062.441-.533.707-.738.952-.737 1.833-1.843 2.898-2.089 2.898-.666 5.888-1.27 8.847-1.301 3.042-.03 6.114.543 9.144 1.004 3.492.533 6.942 1.25 10.424 1.822.297.062.665-.409.994-.635zm-266.25 3.789c4.546-3.984 9.022-6.513 14.213-7.26 3.83-.553 7.865-1.034 11.284 1.485.962.707 1.936 2.12 1.966 3.246.184 6.42.092 12.841.072 19.271 0 .348-.133.686-.287 1.362-1.168-.604-2.18-1.137-3.195-1.659-8.172-4.229-17.275-2.099-22.334 5.458-1.003 1.495-1.628 3.533-1.649 5.335-.144 11.745-.072 23.49-.082 35.236 0 3.184-.04 3.205-3.236 3.205-6.329.01-12.667-.051-18.995.051-2.068.03-2.663-.707-2.652-2.724.062-22.303.072-44.606 0-66.898-.01-2.304.88-2.775 2.908-2.745 6.33.082 12.667.112 18.995-.01 2.274-.041 3.226.707 2.99 2.99-.092.952 0 1.945 0 3.655zM380.921 925.03c-4.332 10.885-17.193 13.681-24.647 5.356-4.567-5.099-4.834-13.496-.574-18.76 4.178-5.171 12.206-6.594 18.197-3.236.86 1.157 1.485 2.673 2.622 3.399 2.97 1.894 3.8 4.659 3.993 7.865.092 1.792.266 3.584.41 5.376zm-.584 12.749c.041.266.123.543.123.809-.01 22.886-.02 45.773-.04 68.659-.534-.021-1.066-.031-1.599-.051.185-1.351.522-2.703.522-4.045.031-18.698.021-37.397.021-56.085v-8.182H354.02c.164-.338.317-.676.481-1.024 8.622-.03 17.234-.051 25.836-.082zm-61.04 70.523v-56.351c.185-.041.358-.092.542-.133.195.379.583.778.563 1.137-.082 1.178-.47 2.334-.47 3.512-.042 15.872-.072 31.754-.02 47.626.01 3.052.235 3.123 3.44 3.134 6.42.021 12.85-.062 19.271.082 1.976.041 2.611-.594 2.601-2.468-.062-8.254-.072-16.517-.072-24.781 0-7.065.01-14.131.123-21.187.01-.788.666-1.567 1.024-2.355l-.092 23.204c-.144.891-.42 1.782-.42 2.683-.02 6.676.021 13.363.041 20.039.368 7.424.297 5.857-5.6 5.929-6.984.092-13.958-.041-20.93-.072zm538.562-69.355c-.338.226-.707.686-.994.645-3.48-.574-6.942-1.29-10.424-1.822-3.03-.461-6.103-1.045-9.144-1.004-2.96.031-5.939.635-8.847 1.301-1.075.246-1.956 1.351-2.898 2.089-.266.205-.43.686-.707.738-2.058.43-4.137.798-6.216 1.178 3.523-3.328 7.885-4.966 12.493-5.796 9.144-1.659 18.023-.123 26.736 2.673zm-503.337-1.086c-.164.338-.317.676-.48 1.024 0 21.299-.032 42.599.03 63.898 0 1.474.697 2.949 1.065 4.423a99.624 99.624 0 0 0-1.608-.512c-.03-14.643-.092-29.286-.082-43.929 0-8.325.103-16.65.154-24.976.297.03.615.051.921.072zm564.45 28.672c.287.338.82.665.82 1.003-.03 11.991-.134 23.982-.185 35.973-.02 3.87.37 4.25 4.23 4.27 4.484.02 8.97-.031 13.465.03 1.075.01 2.14.317 3.205.491-6.328.031-12.667-.02-18.995.123-2.18.051-2.58-.88-2.57-2.786.062-13.046.041-26.071.03-39.106zm-642.12 41.8c0-18.442-.01-36.885.02-55.317 0-.839.368-1.689.562-2.529 0 18.258 0 36.505-.03 54.764-.01 1.024-.369 2.048-.553 3.082zm527.032-1.198c.348-1.485.983-2.96.994-4.444.072-14.377.041-28.764.072-43.141 0-1.168.277-2.335.43-3.502.041 9.083.092 18.166.123 27.249.02 7.158.02 14.315-.01 21.473-.01 1.086.461 2.632-1.607 2.365zM516.12 975.769c1.25-.174 2.498-.491 3.748-.491 11.991-.041 23.982-.02 35.963-.02.911 0 1.833-.041 2.745-.021 1.894.041 2.908-.655 2.765-2.755-.072-1.054.266-2.14.42-3.216v6.513c-15.268-.01-30.454-.01-45.639-.01zm379.25 32.513c1.76-.922 2.211-2.396 2.201-4.322-.062-11.715-.03-23.429-.02-35.144 0-.809.092-1.628.154-2.437 0-.021.154-.072.215-.051.082.021.144.103.215.154v41.646c-1.034.072-1.904.112-2.765.154zM414.62 987.76c-.727.584-1.433 1.628-2.192 1.669-7.28.441-14.54.348-21.596-2.16.144-.195.215-.348.338-.42.154-.082.348-.092.522-.133 5.14.747 10.26 1.741 15.421 2.15 2.457.205 4.997-.697 7.506-1.106zm483.43-45.619c-.174-.983-.49-1.956-.49-2.939-.052-10.271-.063-20.552-.052-30.822 0-.481.317-.962.491-1.454.01 11.745.03 23.481.051 35.216zm-517.13-17.111c-.144-1.792-.317-3.574-.42-5.366-.195-3.205-1.014-5.97-3.993-7.865-1.137-.727-1.762-2.242-2.622-3.399 6.43 3.185 8.878 8.99 7.035 16.63zm95.027 12.094c-.215-.901-.625-1.813-.625-2.714-.05-7.69.021-15.37-.082-23.06-.02-1.28-.656-2.55-1.014-3.82 1.833-1.054 1.721.287 1.731 1.423.021 5.561.021 11.131.021 16.691 0 3.819-.02 7.649-.03 11.479zm252.744-3.164c.42-.922 1.178-1.843 1.198-2.786.112-5.386.154-10.783-.01-16.159-.04-1.198-1.034-2.355-1.557-3.543-.194-.43-.307-.901-.46-1.351 2.374.615 2.825 2.202 2.764 4.516-.164 6.769-.062 13.538-.062 20.92l-1.874-1.597zm86.088 51.896h-3.922c-.102.399-.379.973-.379 1.546-.02 4.28.082 8.55.01 12.831-.04 2.027.37 3.727 2.16 4.874-2.028-.256-2.918-1.219-2.857-3.441.154-5.663.051-11.336.051-17.377 1.864.583 3.4 1.075 4.936 1.567zm-364.32-27.167c.195.962.543 1.925.553 2.898.051 7.649.051 15.288 0 22.938-.01.962-.368 1.925-.563 2.898 0-9.574.01-19.149.01-28.733zm-96.942 48.005c.533.174 1.075.348 1.608.512 7.895-.01 15.8-.01 23.695-.021.533.021 1.065.031 1.598.051-.758.184-1.515.522-2.274.522-7.434.041-14.878.062-22.313-.02-.778 0-1.536-.676-2.314-1.045zm1.004-68.833l-.92-.062c.603-.154 1.218-.44 1.821-.44 7.69-.031 15.39-.021 23.081.01.615 0 1.23.266 1.833.42-8.6.021-17.214.041-25.815.072zm375.901 64.379c-.154-.758-.45-1.515-.45-2.263-.03-5.396.081-10.793-.073-16.179-.03-1.168-.983-2.314-1.515-3.471.573-.358 1.136-.727 2.038-1.3v23.214zm-287.775-9.421c.021-1.771.051-3.543.062-5.314.01-2.202-.05-4.403.021-6.595.021-.778.317-1.546.491-2.324 1.464 4.813.993 9.543-.574 14.233zm10.966-74.465c-.164.409-.256 1.106-.512 1.178-1.956.533-2.099 1.976-2.079 3.635.041 3.461.051 6.912-.02 10.373-.022 1.055-.359 2.11-.564 3.164-.04-5.017-.01-10.035-.133-15.043-.05-2.386 1.71-2.703 3.308-3.308zm-107.806 84.091c-.02-6.687-.05-13.363-.04-20.039 0-.891.275-1.782.42-2.683.02 6.676.05 13.363.04 20.039 0 .901-.276 1.792-.42 2.683zm214.835-.246c-.154-2.263-.389-4.536-.45-6.799-.082-3.308-.04-6.605-.02-9.913.01-1.311-.237-2.407-1.834-2.539.686-.338 1.372-.666 2.304-1.127v20.378zm215.583-66.017c-2.509.164-5.018.45-7.527.45-2.785 0-5.57-.276-8.346-.43 5.294-.01 10.578-.01 15.872-.021zm-251.883 73.707c.041-.409.103-1.168.103-1.168a792.2 792.2 0 0 1 12.053.973c.164.01.327.154.491.236-4.219-.021-8.428-.031-12.647-.041zm121.364-59.392c0 4.557.01 9.114.01 13.66-.01-4.547-.01-9.104-.01-13.66zm-266.875 56.699c-7.895.01-15.8.01-23.695.02-.368-1.474-1.055-2.949-1.065-4.423-.062-21.299-.04-42.598-.03-63.897h25.343v8.182c0 18.698.01 37.396-.02 56.084-.01 1.341-.349 2.683-.534 4.034z"/></svg>