<svg viewBox="0 0 1195 1195" xmlns="http://www.w3.org/2000/svg"><path d="M404.145 542.863h5.458c96.84 0 193.67.185 290.51-.143 22.773-.082 41.942 7.854 58.695 22.425 21.534 18.729 32.461 42.619 31.785 71.138-1.044 44.452-32.502 82.432-77.24 89.344-3.502.543-7.086.738-10.639.738-97.76.041-195.512.03-293.274.02-5.284 0-5.294-.01-5.294-5.397V548.423v-5.56zM700.88 926.341c5.376-.01 10.865-.174 16.097-1.27 22.63-4.752 41.246-16.24 54.917-34.98 15.258-20.921 21.217-44.493 17.326-70.103-3.727-24.566-16.343-44.175-35.942-59.166-16.036-12.268-34.089-18.37-54.579-18.32-96.563.256-193.137.133-289.7.031-3.952 0-5.11.952-5.099 5.017.133 57.918.092 115.825.092 173.742 0 5.089.01 5.099 5.223 5.099h149.207c47.473 0 94.966.041 142.46-.051zm-424.417 74.967c-.092 16.21-.215 32.43-.133 48.64 0 .768 1.731 2.11 2.724 2.192 3.543.277 7.117.174 10.68.103 14.346-.307 28.816.358 43.018-1.239 21.945-2.478 29.113-27.402 20.45-42.158-3.03-5.15-7.322-8.489-14.07-8.386-19.25.286-38.512.102-57.774.102h-4.219c-.512.563-.666.656-.676.748zm19.783 7.967c2.263 0 4.444-.041 6.615.01 7.495.164 15.042-.144 22.457.707 7.332.84 10.537 5.008 10.465 11.5-.082 7.056-3.86 12.36-10.762 12.841-9.41.656-18.893.164-28.774.164v-25.221zm-15.452-10.281c19.497 0 38.994.123 58.481-.144 2.714-.041 5.96-1.362 8.018-3.164 8.478-7.414 8.315-24.3.031-33.024-6.39-6.738-14.725-8.366-23.429-8.469-14.623-.174-29.245-.062-43.858-.041-1.147 0-2.294.164-3.594.256v44.585h4.352zm15.412-27.956c10.24.44 20.203.635 30.116 1.423 4.332.348 6.707 3.41 7.107 7.26.645 6.082-.942 9.554-5.447 11.418-1.679.697-3.512 1.382-5.284 1.413-8.673.144-17.346.062-26.5.062.01-7.168.01-13.937.01-21.576zm576.624 78.173c-3.737-2.263-3.492-5.878-3.492-9.442 0-11.602.01-23.204-.01-34.806 0-1.392-.112-2.785-.184-4.229h-18.893c-1.75 4.905-3.809 5.959-10.28 7.035-7.722 1.28-15.607 2.375-22.959 4.894-8.212 2.816-12.943 11.827-12.38 20.572.697 10.721 5.438 17.47 14.725 20.091 8.172 2.314 16.17 1.567 23.511-3.062 2.478-1.567 4.782-3.42 7.465-5.376.36 1.822.41 3.328.983 4.608.461 1.044 1.515 2.56 2.355 2.591 6.42.215 12.851.123 19.61.123-.174-1.351.01-2.724-.45-3zm-23.358-21.371c-.983 8.438-11.59 14.848-19.61 11.981-3.205-1.147-5.284-3.399-5.61-6.912-.339-3.615.44-6.963 3.788-8.847 2.242-1.26 4.793-2.079 7.301-2.704 4.526-1.116 9.134-1.935 14.183-2.969.01 3.184.307 6.359-.05 9.452zm-443.913-20.889c-7.178 1.433-14.54 2.11-21.596 3.973-15.237 4.034-18.329 15.401-16.036 27.668 2.396 12.841 15.31 18.094 28.16 15.155 5.99-1.372 11.428-5.222 17.091-7.936.123.655.144 2.274.758 3.625.512 1.106 1.7 2.642 2.632 2.683 6.154.236 12.33.123 18.974.123-.195-1.382.021-2.806-.522-3.226-3.87-2.959-3.379-7.168-3.41-11.182-.072-10.937-.03-21.862-.03-32.798v-4.322h-18.597c-2.089 4.7-2.519 5.253-7.424 6.236zm6.327 20.684c-.727 10.281-12.247 13.834-19.046 12.258-3.922-.912-5.929-3.769-6.236-7.649s1.321-6.994 4.813-8.745c2.08-1.045 4.393-1.7 6.666-2.233 4.557-1.054 9.175-1.904 14.418-2.98-.205 3.092-.399 6.226-.615 9.349zm194.633-26.972c-.973.03-2.539 1.065-2.775 1.925-3.973 14.623-2.324 28.231 7.014 40.704 10.701 14.295 37.837 13.773 49.377 6.154 14.366-9.482 19.364-31.202 13.721-47.022-.256-.717-1.096-1.721-1.679-1.731-6.503-.123-13.015-.082-19.865-.082 4.096 9.81 4.803 19.17 1.014 28.529-2.734 6.738-7.833 9.625-15.708 9.442-6.359-.154-11.326-3.727-13.742-9.974-3.605-9.329-2.898-18.514 1.403-28.017-6.635-.02-12.697-.102-18.76.072zm-33.772 48.671c.686 1.198 2.151 2.724 3.308 2.765 6.953.256 13.926.133 21.74.133-9.134-15.39-17.879-30.147-26.675-44.974 1.802-2.089 3.533-4.086 5.765-6.676-4.24 0-7.526-.021-10.803 0-5.847.051-12.135-1.311-16.322 5.182a2230.58 2230.58 0 0 0-.43-4.894h-18.442v51.067h18.658c0-6.759-.133-13.21.092-19.64.051-1.628.973-3.41 1.956-4.782 1.444-2.017 3.308-3.737 5.468-6.103 5.51 9.861 10.526 18.934 15.688 27.924zm134.38-50.422c1.658-.062 3.522-.798 4.873-1.792 3.8-2.775 11.5-3.911 14.46-.921 2.866 2.908 5.928 2.826 9.317 2.795 4.618-.03 9.236.144 13.845-.082 1.67-.082 3.553-.727 4.885-1.721 5.15-3.881 11.131-3.737 16.138.615.635.553 1.526 1.127 2.304 1.137 6.441.092 12.882.051 19.568.051-.686-8.806-4.423-15.534-12.308-18.647-12.759-5.038-23.88-2.212-32.533 9.4-3.779-8.745-10.742-11.653-19.26-11.745-8.51-.082-15.525 3.01-20.583 11.541-.215-4.086-.359-6.769-.502-9.442h-18.279v18.893c6.246 0 12.165.133 18.073-.082zm181.032 3.554c.02 12.913.02 25.825.112 38.738.041 5.438 3.092 8.878 8.008 10.537 7.27 2.437 14.684 1.649 22.077.747v-13.916c-1.966 0-3.655.041-5.346-.01-4.905-.154-5.745-.973-5.775-5.776-.04-7.117-.01-14.233-.01-21.351v-10.629h-18.708c-.144.676-.359 1.168-.359 1.659zm-387.543-22.078c-12.923-4.782-24.75-3.799-34.294 9.442v-9.657H448.28v18.288c.45.215.676.42.901.42 6.195.051 12.39.205 18.575.02 1.64-.051 3.533-.809 4.834-1.843 5.458-4.332 13.138-4.199 18.33.522.634.574 1.473 1.311 2.232 1.321 6.553.103 13.118.062 19.886.062-.87-8.775-4.24-15.544-12.42-18.575zm387.4 0h-9.799v13.322l9.718.563.502 4.505h18.31c.225-1.526.42-2.918.716-4.905h10.895v-13.599h-6.062c-5.212-.01-5.212-.01-5.212-5.069v-14.971h-19.047c-.02 6.881-.02 13.271-.02 20.152zm-157.133 71.875h14.04c5.57 0 5.57 0 5.57-5.54v-45.906h-19.61v51.446zm-41.728-51.385v51.374c5.407 0 10.527-.144 15.626.062 2.95.112 3.85-.86 3.82-3.82-.155-11.315-.063-22.63-.052-33.945v-13.66c-6.185-.01-12.81-.01-19.394-.01zm-195.758 51.364c6.298 0 11.95.113 17.582-.123.82-.031 2.243-1.731 2.243-2.663a2394.19 2394.19 0 0 0-.01-46.264c-.01-.88-1.526-2.468-2.396-2.499-5.909-.226-11.827-.112-17.428-.112.01 17.428.01 34.355.01 51.661zm279.47-43.664c0 13.189.112 26.378-.072 39.567-.05 3.389 1.096 4.362 4.301 4.168a92.983 92.983 0 0 1 11.47 0c3.225.205 4.331-.809 4.29-4.168-.175-14.51-.063-29.02-.083-43.53 0-1.26-.174-2.509-.277-3.891h-19.63v7.854zm-139.039-30.965c-13.558.768-25.662 9.872-27.924 21.177.901.072 1.782.194 2.663.194 5.53.01 11.07.062 16.6-.062.911-.02 1.935-.697 2.692-1.31 6.81-5.529 14.93-5.509 21.975.062.768.604 1.792 1.25 2.713 1.26 6.441.112 12.871.062 19.64.062-4.936-15.452-17.96-22.538-38.359-21.381zm-185.764 72.181c.01.809 1.157 2.294 1.802 2.314 5.622.184 11.254.102 17.01.102 1.412-17.408-1.537-34.56 2.016-51.456h-20.91c0 16.64-.02 32.84.082 49.039zm-24.81-66.529c-13.374-6.799-27.26-7.598-41.032-1.515-7.014 3.092-10.762 9.134-11.623 17.091 1.321.062 2.222.144 3.134.144 4.608.01 9.226.092 13.824-.072.973-.03 2.12-.788 2.816-1.546 5.212-5.683 16.62-5.438 21.32.502.41.522 1.178 1.065 1.782 1.065 5.898.082 11.786.051 17.674.051-.05-7.373-2.61-13.025-7.895-15.718zm388.853 15.719c4.475.01 8.96.051 13.435-.062.737-.021 1.618-.635 2.171-1.229 5.55-6.011 16.19-5.939 21.566.174.39.451.973 1.034 1.475 1.045 5.98.072 11.961.051 17.981.051-.05-7.567-2.734-13.25-9.165-16.353-12.175-5.878-24.852-6.431-37.54-1.894-8.08 2.887-12.615 8.99-13.885 18.105 1.628.072 2.795.164 3.963.164zm-262.882-.267v-43.786h-18.41v43.786h18.41zm24.863-18.678c-.697.01-1.598.369-2.048.88-5.058 5.776-10.046 11.612-15.596 18.063 7.516 0 14.172.051 20.818-.062.891-.02 1.966-.686 2.632-1.372 5.406-5.54 10.731-11.152 16.865-17.552-8.295.01-15.483-.02-22.67.041z"/></svg>