<svg viewBox="0 0 1195 1195" xmlns="http://www.w3.org/2000/svg"><path d="M376.641 880.302l-4.413 17.654-2.212 2.212h-2.212c-8.827-4.413-19.865-6.625-33.106-6.625-44.135 0-66.212 22.835-66.212 68.413 0 45.619 21.31 68.413 64 68.413 14.684 0 26.481-2.212 35.308-6.625 1.444-1.444 2.212-1.444 2.212 0h2.212l4.413 19.865-2.212 2.212c-8.827 5.888-24.279 8.827-46.346 8.827-27.965 0-49.654-8.069-65.106-24.279-15.452-16.179-23.173-38.246-23.173-66.212 0-27.925 8.448-50.76 25.375-68.413 16.896-17.654 39.352-26.481 67.308-26.481 17.654 0 32.338 2.969 44.135 8.827v2.212zm115.865 154.481c.727 5.888 1.106 10.301 1.106 13.24 0 1.474-.758 2.212-2.212 2.212h-19.865c-1.474 0-2.212-.727-2.212-2.212l-2.212-8.827c-10.3 10.301-22.835 15.452-37.519 15.452-26.48 0-39.72-13.24-39.72-39.721 0-32.338 25.005-48.548 75.037-48.548 0-17.654-8.827-26.481-26.48-26.481-8.828 0-19.14 2.969-30.895 8.827h-4.413l-4.413-15.452v-4.413c11.766-7.353 26.481-11.038 44.135-11.038 32.338 0 48.548 18.411 48.548 55.173v46.346c.01 4.403.358 9.584 1.116 15.442zm-27.586-22.067v-26.491c-32.379 0-48.548 8.827-48.548 26.481 0 13.24 6.625 19.865 19.865 19.865 13.23 0 22.794-6.615 28.682-19.856zm86.067-199.731c-54.446-2.212-91.249-15.074-110.346-38.626-2.969-4.413-5.888-6.246-8.827-5.519-2.969.758-3.687 4.076-2.212 9.933C451.67 827.321 506.085 851.6 592.91 851.6c36.751 0 73.165-6.625 109.24-19.865 36.034-13.24 54.067-33.833 54.067-61.788 0-17.654-6.994-32.727-20.962-45.24-13.998-12.483-26.86-20.593-38.625-24.279-11.797-3.656-23.552-6.247-35.308-7.721-17.654 0-26.48 9.584-26.48 28.692v46.346c-1.476 32.379-29.44 47.452-83.857 45.24zm88.28-145.654c54.414 2.212 91.206 15.104 110.345 38.625 2.94 4.413 6.246 6.277 9.933 5.519 3.655-.727 4.751-4.035 3.308-9.933-22.067-48.548-76.514-72.827-163.308-72.827-38.277 0-75.408 6.625-111.452 19.865-36.075 13.24-54.067 33.863-54.067 61.788 0 26.481 11.377 45.998 34.212 58.48 22.794 12.513 43.038 18.76 60.692 18.76s26.481-9.554 26.481-28.692V712.57c1.433-32.338 29.41-47.442 83.856-45.24zm-55.174 254.904v22.077l-2.212 2.212c-1.474-1.444-4.413-2.212-8.827-2.212-14.725 0-23.552 9.584-26.48 28.692-1.475 1.474-2.213 4.413-2.213 8.827v66.212c0 1.474-.758 2.212-2.212 2.212h-22.067c-1.474 0-2.212-.727-2.212-2.212v-86.067c0-17.654-.758-30.137-2.212-37.519 0-1.444.727-2.212 2.212-2.212h19.865c2.94 0 4.413.758 4.413 2.212v15.452c7.353-14.684 18.381-22.067 33.106-22.067 2.94 0 5.14.758 6.625 2.212 1.454-.031 2.212.727 2.212 2.181zm13.24-379.586c-30.894 0-46.346 9.584-46.346 28.692 0 17.654 15.452 26.481 46.346 26.481 29.42 0 44.135-8.827 44.135-26.481 0-19.108-14.715-28.692-44.135-28.692zm72.827 381.788v15.452c0 2.969-.758 4.413-2.212 4.413h-30.894v64c0 14.725 5.14 22.067 15.452 22.067 7.352 0 11.766-.727 13.24-2.212h2.212v2.212l2.212 17.654c0 1.474-.758 2.212-2.212 2.212-5.888 2.969-13.24 4.413-22.067 4.413-10.302 0-19.139-3.656-26.48-11.038-5.889-8.827-8.828-20.592-8.828-35.308v-64H592.93l-2.212-4.413v-15.452c0-1.444.727-2.212 2.212-2.212h17.654v-22.067l2.212-2.212 22.067-6.625h2.212v30.904h30.894c1.433.01 2.192.768 2.192 2.212zm119.173 123.586c0 1.474-.758 2.212-2.212 2.212h-19.865c-2.97 0-4.413-.727-4.413-2.212v-8.827c-10.302 10.301-22.835 15.452-37.519 15.452-13.24 0-23.552-4.034-30.894-12.135-7.383-8.069-11.038-17.285-11.038-27.587 0-32.338 25.723-48.548 77.24-48.548 0-17.654-8.827-26.481-26.48-26.481-10.303 0-21.34 2.969-33.107 8.827h-2.212l-6.625-15.452c0-1.444.727-2.939 2.212-4.413 11.766-7.353 25.723-11.038 41.933-11.038 33.833 0 50.76 18.411 50.76 55.173v46.346c.01 13.23.747 22.825 2.222 28.682zm-30.894-35.307c1.444-1.444 2.212-3.656 2.212-6.625v-19.865h-2.212c-30.894 0-46.346 8.827-46.346 26.481 0 13.24 6.625 19.865 19.865 19.865 14.684 0 23.511-6.615 26.481-19.856zm156.682-11.039c0 14.725-5.17 27.248-15.452 37.519-10.302 10.301-26.48 15.452-48.548 15.452-19.139 0-34.58-4.413-46.346-13.24-1.475 0-2.212-.727-2.212-2.212l6.625-17.654c0-1.444.727-2.212 2.212-2.212h2.212c11.766 7.383 24.28 11.038 37.52 11.038 23.51 0 35.307-8.827 35.307-26.481 0-13.24-10.302-24.279-30.894-33.106-32.379-10.271-48.548-27.207-48.548-50.76 0-33.833 19.865-50.76 59.587-50.76 14.684 0 27.924 2.969 39.721 8.827v2.212l-6.625 19.865h-2.212c-8.827-4.413-19.865-6.625-33.106-6.625-19.139 0-28.692 7.383-28.692 22.067 0 13.24 11.038 24.279 33.106 33.106 30.904 11.796 46.346 29.45 46.346 52.962zm39.731-130.202v22.067c0 1.474-.758 2.212-2.212 2.212h-22.067c-1.475 0-2.212-.727-2.212-2.212v-22.067l2.212-2.212h22.067c1.444 0 2.212.758 2.212 2.212zm0 52.962v123.587c0 1.474-.758 2.212-2.212 2.212h-22.067c-1.475 0-2.212-.727-2.212-2.212V924.437c0-1.444.727-2.212 2.212-2.212h22.067c1.444.01 2.212.768 2.212 2.212z"/></svg>