<svg viewBox="0 0 1195 1195" xmlns="http://www.w3.org/2000/svg"><path d="M294.024 676.423c-7.352 0-13.968 2.202-19.845 6.615s-10.599 10.895-14.162 19.476c-3.564 8.571-5.345 17.787-5.345 27.638 0 9.093 1.905 15.841 5.724 20.245 3.82 4.413 9.902 6.615 18.258 6.615 8.131 0 17.541-2.099 28.242-6.288v21.227c-11.09 4.188-22.23 6.287-33.423 6.287-14.15 0-25.149-4.066-33.004-12.206s-11.776-19.661-11.776-34.58c0-14.264 2.898-27.392 8.684-39.393 5.796-12.002 13.537-21.115 23.225-27.351s20.84-9.349 33.423-9.349c6.963 0 13.148.615 18.544 1.833s11.192 3.471 17.377 6.738l-9.86 20.409c-5.91-3.216-10.774-5.335-14.624-6.37-3.84-1.024-7.649-1.546-11.438-1.546zm103.691 71.773H358.2l-14.366 28.416h-26.737l63.99-119.859h31.161l12.278 119.859h-24.812l-1.997-28.416zm-1.25-21.227l-2.17-28.58c-.554-7.127-.84-14.019-.84-20.654v-2.939c-2.447 6.533-5.488 13.445-9.103 20.736l-15.708 31.437h27.822zm121.652 14.366c0 11.376-4.116 20.367-12.36 26.982s-19.415 9.923-33.505 9.923c-12.308 0-22.22-2.447-29.737-7.352v-22.375c10.752 5.878 20.716 8.817 29.911 8.817 6.236 0 11.111-1.157 14.623-3.471s5.264-5.489 5.264-9.513c0-2.345-.379-4.393-1.127-6.164s-1.822-3.42-3.216-4.936c-1.392-1.526-4.844-4.301-10.363-8.325-7.69-5.386-13.087-10.721-16.21-16.005s-4.68-10.967-4.68-17.06c0-7.024 1.731-13.291 5.181-18.821s8.366-9.82 14.745-12.902 13.712-4.608 22.016-4.608c12.083 0 23.142 2.693 33.168 8.08l-9.103 19.026c-8.683-4.024-16.712-6.041-24.064-6.041-4.618 0-8.407 1.229-11.366 3.676-2.949 2.447-4.423 5.683-4.423 9.718 0 3.318.921 6.216 2.755 8.694s5.96 5.755 12.36 9.84c6.738 4.352 11.776 9.155 15.125 14.408 3.338 5.253 5.007 11.387 5.007 18.411zm110.714 35.277h-25.559l11.192-51.517h-39.353l-11.192 51.517h-25.477l25.815-119.367h25.56l-10.108 46.786h39.352l10.107-46.786h25.477L628.83 776.612zm197.612-76.595c0 15.401-2.755 29.184-8.274 41.359s-13.056 21.351-22.64 27.556c-9.574 6.206-20.603 9.308-33.075 9.308-14.254 0-25.385-4.014-33.372-12.042s-11.99-19.169-11.99-33.433c0-14.428 2.754-27.689 8.273-39.803s13.117-21.401 22.804-27.884c9.687-6.482 20.89-9.718 33.587-9.718 14.203 0 25.201 3.922 33.004 11.755s11.684 18.811 11.684 32.901zm-46.787-23.594c-6.738 0-12.923 2.488-18.544 7.475s-10.035 11.827-13.24 20.531-4.803 18.156-4.803 28.334c0 7.997 1.854 14.039 5.561 18.125s8.93 6.123 15.667 6.123 12.882-2.365 18.422-7.107c5.54-4.731 9.871-11.428 12.995-20.08s4.68-18.37 4.68-29.154c0-7.731-1.814-13.701-5.428-17.92-3.635-4.219-8.735-6.328-15.309-6.328zm160.502 100.189H911.59l-29.737-90.306h-.502l-.338 2.611c-1.782 11.756-3.625 22.262-5.509 31.518l-12.114 56.177H840.41l25.815-119.368h29.83l28.405 87.931h.338c.665-4.137 1.751-10.045 3.256-17.715 1.505-7.68 6.513-31.079 15.043-70.216h22.876l-25.815 119.368zM298.07 865.679c0 15.688-2.837 29.317-8.51 40.889s-13.886 20.378-24.627 26.43c-10.752 6.062-23.419 9.083-38.02 9.083h-39.179l26.85-122.88h34.406c15.637 0 27.73 4.004 36.27 12.022 8.54 8.007 12.81 19.497 12.81 34.457zm-69.939 54.887c8.571 0 16.046-2.13 22.416-6.39s11.356-10.517 14.94-18.78c3.594-8.264 5.386-17.726 5.386-28.365 0-8.633-2.099-15.196-6.298-19.712s-10.24-6.769-18.114-6.769h-9.984l-17.552 80.015h9.206zm155.443 21.514H312.59l26.85-122.88h71.066l-4.69 21.351h-44.483l-5.817 26.982h41.442l-4.782 21.351h-41.442l-6.953 31.683h44.483l-4.69 21.514zm29.901 0l26.85-122.88h26.582l-22.24 101.366h44.482l-4.7 21.514h-70.974zm96.614 0l27.106-122.88h26.501L536.59 942.08h-26.5zm103.578-25.129c4.516-12.38 7.701-20.316 9.554-23.788l37.53-73.964h27.452l-64.983 122.88H594.2l-11.029-122.88h25.63l4.434 73.964c.236 2.519.348 6.246.348 11.182-.112 5.775-.287 9.974-.522 12.606h.604zm138.517 25.129H681.2l26.85-122.88h71.066l-4.69 21.351h-44.482l-5.817 26.982h41.442l-4.782 21.351h-41.442l-6.953 31.683h44.482l-4.69 21.514zm66.733-47.155l-10.342 47.155h-26.5l26.85-122.88h31.19c13.721 0 24.034 2.857 30.925 8.571s10.342 14.09 10.342 25.129c0 8.857-2.407 16.456-7.209 22.814s-11.725 11.08-20.766 14.162l22.672 52.203h-28.846l-17.98-47.155h-10.333zm4.61-21.176h6.778c7.588 0 13.496-1.598 17.726-4.793s6.338-8.069 6.338-14.623c0-4.598-1.372-8.038-4.126-10.342-2.755-2.294-7.076-3.451-12.985-3.451h-6.43l-7.302 33.209zm121.2-4.793l32.49-49.756h29.716l-53.688 75.899-10.342 46.981h-26.327l10.342-46.981-20.5-75.899h27.106l11.202 49.756z"/></svg>