<svg viewBox="0 0 1195 1195" xmlns="http://www.w3.org/2000/svg"><path d="M294.024 676.423c-7.352 0-13.968 2.202-19.845 6.615s-10.599 10.895-14.162 19.476c-3.564 8.571-5.345 17.787-5.345 27.638 0 9.093 1.905 15.841 5.724 20.245 3.82 4.413 9.902 6.615 18.258 6.615 8.131 0 17.541-2.099 28.242-6.288v21.227c-11.09 4.188-22.23 6.287-33.423 6.287-14.15 0-25.149-4.066-33.004-12.206s-11.776-19.661-11.776-34.58c0-14.264 2.898-27.392 8.684-39.393 5.796-12.002 13.537-21.115 23.225-27.351s20.84-9.349 33.423-9.349c6.963 0 13.148.615 18.544 1.833s11.192 3.471 17.377 6.738l-9.86 20.409c-5.91-3.216-10.774-5.335-14.624-6.37-3.84-1.024-7.649-1.546-11.438-1.546zm103.691 71.773H358.2l-14.366 28.416h-26.737l63.99-119.859h31.161l12.278 119.859h-24.812l-1.997-28.416zm-1.25-21.227l-2.17-28.58c-.554-7.127-.84-14.019-.84-20.654v-2.939c-2.447 6.533-5.488 13.445-9.103 20.736l-15.708 31.437h27.822zm121.652 14.366c0 11.376-4.116 20.367-12.36 26.982s-19.415 9.923-33.505 9.923c-12.308 0-22.22-2.447-29.737-7.352v-22.375c10.752 5.878 20.716 8.817 29.911 8.817 6.236 0 11.111-1.157 14.623-3.471s5.264-5.489 5.264-9.513c0-2.345-.379-4.393-1.127-6.164s-1.822-3.42-3.216-4.936c-1.392-1.526-4.844-4.301-10.363-8.325-7.69-5.386-13.087-10.721-16.21-16.005s-4.68-10.967-4.68-17.06c0-7.024 1.731-13.291 5.181-18.821s8.366-9.82 14.745-12.902 13.712-4.608 22.016-4.608c12.083 0 23.142 2.693 33.168 8.08l-9.103 19.026c-8.683-4.024-16.712-6.041-24.064-6.041-4.618 0-8.407 1.229-11.366 3.676-2.949 2.447-4.423 5.683-4.423 9.718 0 3.318.921 6.216 2.755 8.694s5.96 5.755 12.36 9.84c6.738 4.352 11.776 9.155 15.125 14.408 3.338 5.253 5.007 11.387 5.007 18.411zm110.714 35.277h-25.559l11.192-51.517h-39.353l-11.192 51.517h-25.477l25.815-119.367h25.56l-10.108 46.786h39.352l10.107-46.786h25.477L628.83 776.612zm197.612-76.595c0 15.401-2.755 29.184-8.274 41.359s-13.056 21.351-22.64 27.556c-9.574 6.206-20.603 9.308-33.075 9.308-14.254 0-25.385-4.014-33.372-12.042s-11.99-19.169-11.99-33.433c0-14.428 2.754-27.689 8.273-39.803s13.117-21.401 22.804-27.884c9.687-6.482 20.89-9.718 33.587-9.718 14.203 0 25.201 3.922 33.004 11.755s11.684 18.811 11.684 32.901zm-46.787-23.594c-6.738 0-12.923 2.488-18.544 7.475s-10.035 11.827-13.24 20.531-4.803 18.156-4.803 28.334c0 7.997 1.854 14.039 5.561 18.125s8.93 6.123 15.667 6.123 12.882-2.365 18.422-7.107c5.54-4.731 9.871-11.428 12.995-20.08s4.68-18.37 4.68-29.154c0-7.731-1.814-13.701-5.428-17.92-3.635-4.219-8.735-6.328-15.309-6.328zm160.502 100.189H911.59l-29.737-90.306h-.502l-.338 2.611c-1.782 11.756-3.625 22.262-5.509 31.518l-12.114 56.177H840.41l25.815-119.368h29.83l28.405 87.931h.338c.665-4.137 1.751-10.045 3.256-17.715 1.505-7.68 6.513-31.079 15.043-70.216h22.876l-25.815 119.368zm-542.413 79.247c0 13.117-4.608 23.419-13.834 30.904s-21.945 11.223-38.164 11.223h-7.024l-8.899 42.455H304.92l25.232-119.368h27.597c13.168 0 23.122 2.898 29.88 8.694 6.738 5.806 10.117 14.5 10.117 26.091zm-54.538 21.391h4.577c7.731 0 13.814-1.874 18.248-5.632s6.646-8.786 6.646-15.104c0-9.799-5.305-14.694-15.913-14.694h-6.04l-7.517 35.43zm62.874 63.202l25.477-119.367h24.904l-25.477 119.367h-24.904zm127.55-100.188c-7.189 0-13.65 2.202-19.395 6.615s-10.353 10.895-13.834 19.476c-3.48 8.571-5.223 17.787-5.223 27.638 0 9.093 1.863 15.841 5.591 20.245 3.728 4.413 9.677 6.615 17.838 6.615 7.946 0 17.142-2.099 27.597-6.288v21.228c-10.834 4.188-21.719 6.288-32.656 6.288-13.824 0-24.576-4.066-32.256-12.206s-11.51-19.661-11.51-34.581c0-14.264 2.826-27.392 8.49-39.394s13.23-21.115 22.701-27.351c9.472-6.236 20.357-9.349 32.656-9.349 6.8 0 12.841.615 18.125 1.833 5.284 1.229 10.937 3.471 16.978 6.738l-9.636 20.409c-5.765-3.216-10.537-5.335-14.285-6.37-3.748-1.024-7.475-1.546-11.182-1.546zm125.746 100.188H631.78l-17.223-48.333-10.21 5.714-8.899 42.619h-24.904l25.231-119.368h24.986l-12.41 57.313 12.902-16.742 33.393-40.581h29.471l-48.496 57.149 23.757 62.228zm130.571-119.378l-16.414 77.24c-3.102 14.48-9.032 25.395-17.797 32.738-8.755 7.352-20.163 11.029-34.202 11.029-11.54 0-20.613-3.092-27.228-9.267s-9.923-14.551-9.923-25.108c0-3.922.41-7.68 1.23-11.264l16.004-75.356h24.904l-15.84 75.038c-.923 4.024-1.394 7.434-1.394 10.209 0 9.687 5.14 14.531 15.432 14.531 6.697 0 12.001-2.079 15.923-6.247s6.748-10.384 8.49-18.657l15.84-74.875h24.976zm99.798 34.785c0 13.117-4.608 23.419-13.834 30.904s-21.955 11.223-38.174 11.223h-7.024l-8.899 42.455h-24.904l25.231-119.368h27.597c13.168 0 23.132 2.898 29.88 8.694s10.128 14.5 10.128 26.091zm-54.538 21.391h4.577c7.731 0 13.814-1.874 18.247-5.632s6.656-8.786 6.656-15.104c0-9.799-5.304-14.694-15.923-14.694h-6.042l-7.516 35.43z"/></svg>