<svg viewBox="0 0 1195 1195" xmlns="http://www.w3.org/2000/svg"><path d="M350.917 798.649H621.98c0 74.865-21.904 130.519-65.71 167.014-43.806 34.693-111.35 52.019-202.608 52.019-94.925 0-163.379-17.337-205.343-52.019-42.025-36.495-62.986-92.15-62.986-167.015 0-72.98 16.425-124.999 49.285-156.068 43.807-41.974 116.787-62.976 219.034-62.976 94.884 0 165.182 19.17 210.821 57.498 36.495 31.058 54.764 78.5 54.764 142.377H350.92v19.169zm665.324-19.17H638.405V587.817h369.634c25.55 0 47.913 9.584 67.082 28.743s28.744 41.533 28.744 67.082c0 25.59-8.212 47.493-24.638 65.71-16.435 18.268-37.438 28.334-62.986 30.126zm-2.734 19.17c25.55 1.833 47.913 12.79 67.082 32.86 19.17 20.111 28.744 44.749 28.744 73.923 0 27.382-9.585 50.658-28.744 69.817s-41.534 29.696-67.082 31.488h-375.1V798.65h375.1z"/></svg>