<svg viewBox="0 0 1195 1195" xmlns="http://www.w3.org/2000/svg"><path d="M934.475 542.72c14.981 0 27.474 5.427 37.468 16.23 10.813 9.994 16.231 22.477 16.231 37.468v404.603c0 14.981-5.417 27.474-16.23 37.468-9.995 10.824-22.478 16.231-37.469 16.231H260.191c-14.98 0-27.474-5.407-37.468-16.231-10.823-9.994-16.23-22.477-16.23-37.468V596.418c0-14.981 5.405-27.474 16.23-37.468 9.994-10.803 22.477-16.231 37.468-16.231h674.284zm-674.284 42.455c-4.167 0-6.666 1.249-7.495 3.748-2.499 2.498-3.748 4.997-3.748 7.495v74.926h696.76v-74.926c0-2.498-1.25-4.997-3.748-7.495-.84-2.498-3.338-3.748-7.495-3.748H260.191zm674.284 427.09c4.158 0 6.656-1.25 7.495-3.748 2.5-2.499 3.748-4.997 3.748-7.495V798.72h-696.77v202.302c0 2.498 1.25 4.997 3.748 7.495.82 2.498 3.318 3.748 7.495 3.748h674.284zm-643.062-42.466v-43.704h86.17v43.704h-86.17zm128.624 0v-43.704h127.375v43.704H420.037z"/></svg>