<svg viewBox="0 0 1195 1195" xmlns="http://www.w3.org/2000/svg"><path d="M655.886 720.507c-.072-44.032-27.597-81.582-66.375-96.461v192.932c38.78-14.909 66.304-52.429 66.375-96.471zm-140.34 96.42v-192.87c-38.758 14.909-66.243 52.439-66.325 96.45.082 44.012 27.566 81.521 66.325 96.42zm36.598 81.991h83.783c97.351.461 186.215-79.401 186.215-176.548 0-106.25-88.862-179.681-186.215-179.65h-83.784c-98.519-.031-179.61 73.421-179.61 179.65-.01 97.178 81.081 177.019 179.61 176.548zm.39-341.473c90.05.031 163.01 73.001 163.02 163.062-.01 90.05-72.98 163.011-163.02 163.041-90.03-.03-162.98-72.99-163-163.041.03-90.061 72.98-163.041 163-163.062zM204.024 916.756c-14.326 0-25.354.369-33.474.369-7.557 0-15.288 0-22.825-.369v5.028c8.704.195 17.776-.952 17.776 16.446v93.85c-.553 13.159-6.174 13.548-17.776 14.715v5.018c8.704-.185 17.224-.379 25.927-.379 9.093 0 18.186.379 28.058.379 68.485 0 79.698-48.169 79.698-67.338-.01-34.263-27.29-67.717-77.383-67.717zm.563 128.871c-9.472 0-20.12-1.741-20.12-16.64V923.73c3.501-.205 7.157-.778 15.093-.778 37.335 0 60.55 26.122 60.55 62.29 0 28.836-13.722 60.385-55.523 60.385zm112.025-5.233v-74.281c0-1.557-.399-2.724-1.362-2.724-.973 0-2.119.205-3.492.983-.758.584-11.612 4.229-20.695 6.963v3.102c7.158 3.85 10.055 5.028 10.055 13.538v52.429c0 6.4-3.88 6.4-9.287 6.4h-3.645v5.028c7.148-.195 14.121-.389 21.084-.389 6.953 0 13.721.389 20.306.389v-5.028h-3.287c-5.417-.01-9.677-.01-9.677-6.41zm-7.73-106.803c5.211 0 9.481-4.444 9.481-9.677s-4.464-9.308-9.482-9.308c-4.833 0-9.472 4.454-9.472 9.308-.01 5.038 4.434 9.677 9.472 9.677zm110.264 106.803v-49.92c0-15.094-5.806-27.085-22.23-27.085-12.975 0-22.458 6.594-33.506 14.52v-12.585c0-1.536-.574-1.936-1.147-1.936-9.288 4.076-17.214 6.595-25.529 9.298v3.676c9.072 3.676 11.213 5.601 11.213 12.759v51.261c0 6.4-3.86 6.4-9.278 6.4h-3.482v5.028c6.963-.194 13.937-.389 20.89-.389 6.962 0 13.741.389 20.51.389v-5.028h-3.472c-5.427 0-9.697 0-9.697-6.4V983.12c6.41-4.26 16.281-9.288 22.457-9.288 11.05 0 17.787 5.406 17.787 16.456v50.105c0 6.4-3.85 6.4-9.277 6.4h-3.47v5.028c6.952-.195 13.925-.389 20.9-.389 6.952 0 13.711.389 20.5.389v-5.028h-3.482c-5.427 0-9.687 0-9.687-6.4zm56.3 2.714c-15.453 0-27.29-15.094-28.427-33.464-.399-6.585-.399-9.482 0-11.223h54.354l1.751-1.157c.185-1.178.185-2.325.185-3.492-.185-20.51-17.019-30.372-32.707-30.372-13.538 0-39.065 11.223-39.065 49.162 0 12.37 6.195 42.179 36.956 42.179 15.851 0 26.88-10.056 35.79-21.852l-2.705-2.745c-7.147 7.158-15.483 12.964-26.132 12.964zm-5.612-73.523c10.844 0 16.834 7.936 16.834 17.808 0 2.314-.574 4.833-5.397 4.833h-33.68c2.325-13.947 10.445-22.64 22.241-22.64zm92.876-6.206c-11.786 0-19.927 12.39-24.75 19.938h-.409v-17.408c0-1.946-.574-2.529-1.71-2.529-1.762 0-9.502 5.038-23.634 11.049v2.887c2.908 1.546 10.055 2.714 10.055 8.704v54.364c0 6.4-3.87 6.4-9.267 6.4h-5.223v5.028c6.963-.194 15.094-.389 23.02-.389 8.335 0 16.434.185 27.074.389v-5.028h-10.824c-5.427 0-9.288 0-9.288-6.4v-45.455c0-11.612 10.824-16.067 14.121-16.067 6.76 0 6.76 4.659 12.78 4.659 5.416 0 9.082-4.659 9.082-9.882-.01-6.973-6.195-10.26-11.029-10.26zm30.168 18.975c0-8.315 7.342-12.769 15.084-12.769 12.4 0 19.16 6.973 21.095 19.149h4.455l-1.372-19.722c-7.537-3.87-15.85-5.632-22.037-5.632-21.269 0-29.983 13.937-29.983 24.771 0 31.15 42.158 23.798 42.158 46.633 0 6.769-4.26 13.742-15.646 13.742-14.13 0-21.863-10.844-24.382-23.614l-3.492.983 2.13 22.251c6.77 3.87 15.862 6.574 23.593 6.574 23.02 0 33.28-13.558 33.28-26.327 0-30.372-44.882-23.388-44.882-46.039zm176.445 66.171c-29.788 0-57.662-28.048-57.662-67.154 0-46.438 32.307-61.327 54.57-61.327 21.657 0 37.713 9.104 41.4 31.734h4.822l-1.925-27.658c-14.899-5.223-29.982-10.281-45.65-10.281-37.918 0-73.308 28.457-73.308 68.117 0 43.54 28.621 72.755 73.881 72.755 12.78 0 34.642-5.223 42.773-10.26l4.434-28.252-4.434-1.157c-3.88 20.337-19.763 33.485-38.902 33.485zm78.551-8.131V906.701c0-1.557-.389-2.724-1.567-2.724-.573 0-2.13.983-4.24 2.13-4.066 2.325-12.196 5.817-19.927 8.325v3.092c7.362 2.12 10.26 2.509 10.26 15.094v107.755c0 6.4-3.88 6.4-9.308 6.4h-3.655v5.028c7.168-.194 14.131-.389 21.095-.389 6.973 0 13.742.389 20.295.389v-5.028h-3.266c-5.438.021-9.687.021-9.687-6.38zm95.775.768v-71.383c0-2.14 0-3.492-1.567-3.492-1.925 0-12.769 1.546-30.167 2.703v3.481c6.953 1.946 16.231 4.066 16.231 7.916v52.081c-8.12 6.748-16.825 11.786-23.399 11.786-16.814 0-16.814-16.64-16.814-22.457v-49.91c0-4.26 0-5.611-2.15-5.611-2.529 0-17.97 1.157-24.944 1.351v3.676c10.813.962 11.582 5.806 11.582 10.834v49.551c0 16.24 10.834 23.01 21.28 23.01 13.741 0 22.66-6.769 34.252-16.24v15.657l.973.604c3.676-1.157 19.548-5.222 27.874-5.98v-4.075c-2.529 0-5.417.194-7.74.194-3.288-.01-5.408-.194-5.408-3.697zm67.318-77.773c-10.649 0-21.095 7.363-28.826 13.937v-70.615c0-1.557-.389-2.724-1.536-2.724-.594 0-2.14.983-4.27 2.13-4.066 2.324-12.165 5.817-19.927 8.325v3.092c7.342 2.12 10.26 2.509 10.26 15.094v83.2c0 11.797-.983 23.019-2.703 34.437l4.055 2.12 5.796-4.434c5.038 2.12 12.575 6.769 26.88 6.769 27.678 0 46.244-25.354 46.244-50.698 0-21.074-13.527-40.633-35.973-40.633zm-8.899 86.303c-12.964 0-19.917-12.39-19.917-19.753v-47.001c5.222-4.455 11.202-9.114 18.381-9.114 15.094 0 30.946 17.408 30.946 38.298-.01 17.244-8.714 37.571-29.409 37.571z"/></svg>