<svg viewBox="0 0 1195 1195" xmlns="http://www.w3.org/2000/svg"><path d="M690.087 924.764c0 2.887.327 5.827.922 8.653 1.413 6.666 5.325 11.643 11.315 14.786 9.216 4.834 19.026 4.567 29.481 3.072V845.138h124.303v209.582H395.165c-30.075-.051-50.473-20.726-54.989-45.639-.952-5.274-1.566-10.701-1.566-16.057-.082-129.465-.092-258.928-.01-388.393.01-9.779 1.034-19.527 5.212-28.58 8.202-17.767 21.647-28.979 41.206-32.195 4.004-.665 8.12-1.136 12.175-1.136H856.11v200.386H731.703v-96.717c-.809-.389-1.28-.788-1.802-.85-7.577-.86-15.125-1.065-22.528 1.28-10.957 3.472-17.285 11.991-17.326 23.552l.041 254.392zm-181.76-49.47h54.692v-30.72h-97.997l.031 80.456c.01 2.745.144 5.591.83 8.233 2.405 9.134 7.925 15.626 17.315 17.869 7.865 1.874 17.122.85 25.118.573v-76.411zm-22.354-229.508c-1.003.01-2.027.246-3 .502-9.442 2.457-17.776 10.076-17.879 23.531-.185 23.501-.062 47.002-.03 70.503 0 1.25.42 3.604.42 3.604l42.25-.246-.073-97.884-21.688-.01z"/></svg>