<svg viewBox="0 0 1195 1195" xmlns="http://www.w3.org/2000/svg"><path d="M602.565 542.72c1.454 2.294 2.867 4.618 4.362 6.891a33365.756 33365.756 0 0 0 25.928 39.373c5.1 7.731 10.21 15.442 15.32 23.163.337.512.644 1.045 1.064 1.721h-93.553c.522-.839 1.014-1.649 1.536-2.437 6.288-9.554 12.585-19.097 18.873-28.651 7.526-11.417 15.043-22.835 22.57-34.243 1.023-1.556 2.077-3.092 3.091-4.659.205-.348.287-.768.43-1.157h.38zm225.936 512c15.596-23.675 31.191-47.34 46.92-71.23 1.003 1.505 1.924 2.867 2.825 4.24 8.48 12.871 16.947 25.743 25.436 38.615 5.847 8.868 11.715 17.726 17.562 26.603.37.563.665 1.188.994 1.782-31.253-.01-62.495-.01-93.737-.01zm-556.073 0c15.606-23.685 31.212-47.38 46.93-71.24 1.341 2.017 2.581 3.861 3.8 5.714 8.908 13.538 17.796 27.075 26.705 40.601 5.12 7.772 10.281 15.524 15.411 23.296.338.512.594 1.086.891 1.618-31.242.01-62.484.01-93.737.01zm311.685-353.239c.635-.348 1.116-.583 1.567-.87 6.164-4.066 12.933-6.512 20.203-7.701 6.185-1.014 12.38-.778 18.586-.481 5.54.266 10.977 1.106 16.384 2.263 5.366 1.157 10.547 2.846 15.544 5.12 4.711 2.14 9.175 4.731 13.25 7.926 4.823 3.779 9.042 8.141 12.606 13.138 4.66 6.533 8.048 13.701 10.486 21.32 1.813 5.683 3.031 11.51 3.973 17.408 1.7 10.681 1.782 21.433 1.341 32.164-.46 11.417-2.795 22.548-7.178 33.157-2.857 6.933-6.687 13.332-11.55 19.046-7.957 9.36-17.684 16.261-29.122 20.787-6.912 2.734-14.049 4.485-21.4 5.499-6.483.891-13.006 1.157-19.529.911a86.166 86.166 0 0 1-12.933-1.495c-3.666-.707-7.25-1.71-10.783-2.908-1.423-.481-1.618-.327-1.68 1.147-.02.502 0 .993 0 1.495v61.051c0 2.724.185 2.407-2.396 2.407-13.937 0-27.884 0-41.82-.01-2.192 0-2.079.256-2.079-2.151v-232.99c0-2.324-.133-2.15 2.09-2.16l42.004-.031c.307 0 .625-.01.932 0 1.178.061 1.23.103 1.26 1.321.031 1.055-.01 2.12.021 3.175.031.41.133.819.226 1.464zm-.215 81.193c0 13.189.021 26.378-.03 39.567 0 1.321.388 2.13 1.514 2.878 5.673 3.727 11.94 5.478 18.668 5.499 3.594.01 7.188-.307 10.773-.584 4.045-.307 7.966-1.239 11.797-2.56 8.837-3.031 15.155-8.735 18.841-17.388 2.99-7.014 4.301-14.397 4.577-21.924.246-6.942.348-13.916-.665-20.849-.798-5.427-1.946-10.752-4.178-15.78-1.607-3.614-3.779-6.84-6.779-9.482-4.465-3.922-9.769-6.093-15.432-7.486-6.195-1.526-12.503-1.884-18.862-1.822-7.229.072-13.394 2.734-18.852 7.352-1.065.901-1.413 1.833-1.413 3.185.062 13.138.041 26.265.041 39.393zm-111.104 31.867c1.515 2.928 3.051 5.837 4.536 8.775 2.386 4.721 4.721 9.462 7.106 14.192 2.161 4.27 4.362 8.53 6.533 12.79.758 1.495.758 1.515-.47 2.57-2.735 2.355-5.674 4.413-8.787 6.247-6.81 3.993-14.13 6.697-21.78 8.55-4.947 1.198-9.965 2.007-15.023 2.601a153.755 153.755 0 0 1-23.265.912c-13.854-.491-27.238-3.144-39.68-9.585a74.465 74.465 0 0 1-15.329-10.547c-6.82-6.062-12.288-13.179-16.435-21.279-3.44-6.717-5.868-13.824-7.414-21.217-.942-4.495-1.71-9.022-1.946-13.619-.154-3.102-.327-6.206-.389-9.308-.06-2.724 0-5.447.051-8.172.092-5.038.778-10.025 1.69-14.971 1.463-7.987 3.941-15.646 7.515-22.938 2.745-5.601 6.082-10.844 10.066-15.657 6.717-8.131 14.531-14.992 23.603-20.368a80.309 80.309 0 0 1 23.993-9.421c7.7-1.68 15.493-2.058 23.347-1.874 9.32.215 18.401 1.751 27.238 4.71 8.51 2.846 16.343 7.024 23.276 12.708 7.865 6.441 14.377 14.049 19.18 23.07 4.464 8.377 7.21 17.244 8.5 26.644a85.268 85.268 0 0 1 .573 17.459c-.307 4.373-1.29 8.704-2.058 13.036-.399 2.263-1.014 4.485-1.464 6.727-.164.819-.512 1.198-1.372 1.106-.49-.051-.993-.01-1.495-.01H403.008c-4.045 0-8.089.041-12.135.082-1.515.02-1.74.286-1.474 1.782.942 5.315 2.622 10.373 5.673 14.879 4.281 6.308 10.046 10.762 17.224 13.373 4.64 1.69 9.421 2.591 14.356 2.98 7.885.604 15.647.113 23.286-1.874 7.547-1.966 14.244-5.478 19.62-11.254.932-1.003 1.925-1.945 2.898-2.908.072-.082.195-.123.338-.194zm-45.967-53.719v.051h33.587c2.181 0 2.243-.031 1.66-2.212-.616-2.274-1.22-4.557-2.049-6.758-3.43-9.001-9.748-14.951-19.015-17.746-4.935-1.495-9.984-1.802-15.104-1.762-4.454.03-8.765.727-12.964 2.181-5.99 2.078-10.865 5.693-14.582 10.813-2.98 4.106-5.15 8.632-6.717 13.456-.635 1.956-.635 1.956 1.413 1.976H426.828zm396.103-16.528c-1.607-1.372-3.144-2.713-4.72-4.014-4.998-4.126-10.794-6.543-17.06-7.987-5.99-1.382-12.074-1.577-18.167-1.331a19.347 19.347 0 0 0-7.045 1.628c-3.574 1.566-5.325 4.362-5.765 8.222-.553 4.793 1.761 8.059 5.438 10.445 3.164 2.058 6.564 3.779 9.933 5.488 9.206 4.669 19.17 7.619 28.345 12.411 7.045 3.676 13.578 8.028 19.036 13.865 2.468 2.642 4.557 5.571 6.37 8.704 3 5.171 4.813 10.762 5.827 16.61.297 1.71.451 3.451.533 5.182.092 2.11 0 4.229.051 6.349.133 6.38-1.28 12.452-3.635 18.33-2.908 7.26-7.629 13.159-13.63 18.125-5.479 4.546-11.663 7.762-18.33 10.137-5.294 1.874-10.742 3-16.292 3.81-7.106 1.034-14.254 1.147-21.39.87-6.872-.266-13.794-.666-20.45-2.591-3.985-1.147-7.916-2.56-11.777-4.106-6.41-2.57-12.493-5.827-18.688-9.226a73938.867 73938.867 0 0 0 17.306-38.83c.625.461 1.168.819 1.67 1.239 4.27 3.553 8.806 6.697 13.802 9.144 5.171 2.529 10.588 4.25 16.302 5.048 3.451.481 6.912.819 10.394.676 3.042-.123 6.103-.286 8.981-1.392 1.495-.574 2.98-1.29 4.26-2.222 2.232-1.628 3.266-4.014 3.4-6.759.143-2.878.01-5.714-1.199-8.407-1.33-2.99-3.48-5.253-6.114-7.127-4.587-3.257-9.575-5.786-14.654-8.131-6.82-3.154-13.875-5.796-20.49-9.39-6.707-3.635-12.974-7.895-18.412-13.25-7.362-7.25-12.329-15.862-14.13-26.132-.288-1.649-.41-3.328-.513-4.997-.317-5.161-.05-10.281 1.178-15.329 2.54-10.414 8.304-18.627 17-24.822 8.57-6.103 18.165-9.575 28.507-11.264 7.22-1.178 14.49-1.311 21.75-1.004 7.833.327 15.524 1.679 23.101 3.748 6.687 1.822 13.056 4.423 19.313 7.321 1.24.574 2.386 1.341 3.615 1.936.737.358.778.788.522 1.485-1.086 2.908-2.12 5.837-3.205 8.755a7610.021 7610.021 0 0 1-7.28 19.568c-1.065 2.846-2.16 5.693-3.246 8.53-.072.226-.246.399-.44.686zM488.646 969.482c0-3.358-.01-6.717.01-10.076 0-.676 0-1.392.195-2.027.901-3.072 4.762-4.188 7.271-2.13 1.116.921 1.116.921 2.375.154 4.024-2.437 9.052-2.028 12.636 1.136.778.686 1.22.666 2.007.051 3.543-2.786 7.495-3.451 11.755-1.986 4.096 1.403 6.39 4.444 6.594 8.622.286 5.765.133 11.561.072 17.346-.02 2.233-1.557 3.922-3.502 4.25-2.334.389-4.31-.645-5.079-2.785-.266-.738-.317-1.577-.327-2.375-.03-4.106 0-8.212-.03-12.318a12.18 12.18 0 0 0-.287-2.581c-.47-2.068-1.874-3.154-3.84-3.082-1.966.062-3.43 1.433-3.707 3.513-.072.553-.05 1.116-.05 1.679 0 4.045.01 8.09-.01 12.124-.01.798-.083 1.618-.277 2.396-.543 2.253-2.048 3.44-4.219 3.471-2.304.03-3.84-1.127-4.434-3.451-.185-.707-.236-1.475-.236-2.212-.02-4.106-.01-8.212-.01-12.318 0-.625.021-1.25-.082-1.864-.379-2.11-1.822-3.338-3.85-3.348-2.089-.01-3.236.932-3.738 3.154-.154.655-.205 1.351-.205 2.027-.02 3.984-.01 7.957-.01 11.94 0 .686.01 1.372-.062 2.048-.256 2.447-2.079 4.045-4.526 4.014-2.437-.031-4.28-1.68-4.362-4.168-.103-3.42-.04-6.841-.05-10.26-.022-.317-.022-.625-.022-.942zm273.418-13.752v-5.796c0-1.31-.04-2.611.01-3.922.123-2.631 2.028-4.434 4.587-4.403 2.437.031 4.28 1.854 4.322 4.444.062 3.666.02 7.342.02 11.018v22.026c0 .502.01.994-.01 1.495-.092 1.936-1.014 3.369-2.837 3.994-1.802.625-3.594.45-4.976-1.065-.49-.543-.758-1.054-1.587-.358-4.004 3.328-10.558 2.58-14.52-1.198-4.024-3.84-5.417-8.622-4.926-14.07.287-3.226 1.28-6.185 3.113-8.857 3.533-5.14 9.861-6.277 14.91-4.137.562.215 1.105.471 1.893.83zm-10.926 13.793c-.112 1.741.41 3.389 1.331 4.894 1.822 3 5.96 3.216 7.957.338 1.854-2.652 2.427-7.065.133-10.352-2.028-2.898-6.042-2.826-7.977.133-.973 1.495-1.505 3.134-1.444 4.987zm100.117 13.056c-1.925 1.618-3.973 2.56-6.37 2.642-4.843.154-8.51-1.986-11.172-5.898-4.126-6.082-3.389-14.633.287-20.091 3.78-5.601 10.455-6.482 15.33-4.209.441.205.901.389 1.607.686v-3.277c0-2.12-.062-4.229.02-6.349.123-3.308 3.174-5.335 6.154-4.147 1.66.666 2.55 1.915 2.745 3.676.051.491.03.993.03 1.495v32.286c0 .246-.01.502 0 .748.051 2.078-.83 3.604-2.765 4.434-1.833.778-3.748.287-5.243-1.28-.174-.184-.327-.379-.625-.717zm-11.244-13.087a9.029 9.029 0 0 0 1.351 4.956c1.946 3.185 6.41 3.082 8.162-.01 1.771-3.134 1.976-6.38.205-9.574-1.884-3.399-6.359-3.441-8.386-.133a9.039 9.039 0 0 0-1.33 4.762zm-441.713 13.865v5.212c0 1.178.041 2.365-.02 3.543-.124 2.447-1.936 4.219-4.312 4.27-2.437.051-4.403-1.741-4.598-4.208-.03-.369-.01-.748-.01-1.116v-31.519c0-.563-.04-1.137.082-1.669.39-1.68 1.3-3.01 3.041-3.441 1.69-.42 3.35-.286 4.67 1.075.297.307.584.625.901.962 3.553-2.908 7.486-3.267 11.612-1.772 3.41 1.239 5.642 3.81 7.024 7.076 2.12 5.018 2.386 10.107.195 15.196-1.925 4.455-6.38 8.653-12.565 8.223-1.454-.103-2.877-.656-4.3-1.055-.513-.154-.984-.44-1.722-.778zm10.946-13.578c.01-1.567-.226-3.082-.983-4.485-1.014-1.884-2.447-3.082-4.74-2.949-2.275.133-3.667 1.454-4.445 3.42-1.096 2.786-.942 5.601.45 8.264.85 1.618 2.11 2.683 4.106 2.734 2.048.062 3.41-.912 4.423-2.55.84-1.362 1.198-2.846 1.188-4.434zm33.106-13.26c1.29-1.751 2.887-2.499 4.935-2.233 1.71.226 2.867 1.188 3.236 2.878.195.901.327 1.843.327 2.765 0 6.656-.03 13.302-.062 19.958 0 .368-.02.747-.072 1.116-.236 1.7-.85 3.174-2.693 3.635-1.915.481-3.748.379-5.038-1.372-.48-.645-.829-.809-1.464-.246-4.444 3.881-11.889 2.417-15.769-1.997-2.375-2.714-3.635-5.898-3.89-9.472-.237-3.257.03-6.451 1.463-9.462 1.7-3.574 4.23-6.267 8.048-7.567 2.98-1.024 6.994-1.239 10.978 1.997zm-.675 13.301c.031-2.058-.379-3.861-1.485-5.438-1.945-2.765-5.735-2.796-7.762-.103-2.099 2.775-2.14 7.516-.164 10.363 2.058 2.949 6.43 2.877 8.212-.348.788-1.444 1.26-2.959 1.198-4.475zm255.703-13.465c.983-1.28 2.284-2.202 4.168-2.11 2.232.112 3.615 1.239 3.984 3.43.062.369.062.748.062 1.116 0 7.281.02 14.551-.01 21.832-.01 2.284-1.126 3.789-3.03 4.137-1.865.338-3.616.154-4.804-1.618-.133-.205-.317-.368-.43-.491-1.413.738-2.713 1.639-4.147 2.13-4.372 1.485-9.749-.297-12.882-4.158-3.03-3.727-4.045-8.069-3.605-12.759.38-4.075 1.854-7.711 4.946-10.558 3.318-3.041 7.178-4.147 11.54-2.969 1.393.368 2.652 1.25 4.208 2.017zm-6.185 20.387c1.915.082 3.236-.86 4.116-2.416 1.741-3.103 1.771-6.288.062-9.401-1.884-3.44-6.318-3.574-8.336-.194-1.904 3.174-1.854 6.512.01 9.718.891 1.515 2.304 2.396 4.147 2.294zm105.103-20.213c1.208-1.721 2.745-2.457 4.731-2.253 1.946.205 3.226 1.331 3.502 3.257.092.615.072 1.239.072 1.863v20.91c-.04 2.427-.778 3.676-2.519 4.322-1.997.738-3.87.205-5.335-1.505-.154-.184-.327-.358-.48-.522-.175.051-.318.062-.39.133-4.813 4.465-13.046 2.724-16.947-2.58-2.673-3.625-3.543-7.741-3.205-12.155.236-3.092 1.168-5.97 3-8.499 2.888-3.973 6.748-5.939 11.715-5.561 1.874.133 3.328.768 5.857 2.591zm-.635 13.567c.02-2.253-.583-4.322-1.526-5.652-2.007-2.837-5.898-2.898-7.833-.01a9.18 9.18 0 0 0-1.383 3.41c-.522 2.867-.04 5.54 2.12 7.741 1.546 1.577 5.038 1.669 6.687-.348 1.321-1.639 1.802-3.502 1.936-5.14zm-453.857 2.765c.563 2.058 1.731 3.134 3.308 3.728 2.181.829 4.382.809 6.512-.205 1.29-.615 2.52-1.351 3.84-1.904 2.345-.983 4.557.103 5.284 2.499.38 1.239.103 2.355-.676 3.328-.502.625-1.075 1.239-1.74 1.669-4.783 3.072-9.944 4.126-15.484 2.611-4.506-1.229-7.649-4.137-9.298-8.458-2.396-6.308-1.556-12.257 2.857-17.449 5.52-6.503 15.595-6.4 21.177.041 2.233 2.57 3.543 5.519 3.963 8.878.021.184.051.368.062.553.185 3.123-1.239 4.69-4.352 4.7-4.475.021-8.95.01-13.435.01h-2.017zm10.363-6.687c-.656-3.051-2.642-4.639-5.529-4.516-2.529.112-4.475 1.904-4.834 4.516h10.363zm190.71 6.687c.685 2.539 2.56 3.973 5.211 4.24 2.13.215 4.055-.317 5.878-1.362.911-.522 1.853-1.024 2.837-1.383 1.741-.635 3.164-.144 4.27 1.331 1.014 1.351 1.096 3.134.062 4.505-.553.727-1.25 1.413-2.017 1.904-4.987 3.175-10.373 4.076-16.036 2.263-3.656-1.168-6.38-3.605-8.038-7.076-2.457-5.14-2.447-10.384.154-15.422 2.591-5.007 6.738-7.895 12.524-7.966 5.868-.062 10.005 2.878 12.902 7.762a13.683 13.683 0 0 1 1.925 6.922c.031 2.887-1.3 4.25-4.188 4.27-4.475.03-8.96.01-13.435.01h-2.048zm10.312-6.676c-.44-2.755-2.683-4.669-5.499-4.526-2.539.123-4.362 1.7-4.997 4.526h10.496zm159.334 3.4c0-3.175-.01-6.339 0-9.513 0-.615.03-1.239.112-1.853.226-1.731 1.044-3.082 2.755-3.666 1.741-.594 3.502-.553 4.823.922.768.87 1.25.379 1.843-.051 3.36-2.437 11.48-2.355 15.104 2.396 1.577 2.068 2.242 4.423 2.274 6.953.062 4.976.02 9.943.01 14.919 0 .615-.092 1.239-.236 1.843-.46 1.956-1.986 3.205-3.984 3.318-2.14.123-3.86-.921-4.495-2.877-.266-.809-.359-1.7-.369-2.56-.04-3.911-.01-7.833-.02-11.745 0-.625.01-1.25-.04-1.863-.195-2.601-1.823-4.137-4.343-4.137-2.427 0-4.034 1.475-4.3 3.984-.063.615-.042 1.239-.052 1.863 0 3.984.02 7.957-.02 11.94-.01.86-.112 1.751-.379 2.55-.645 1.946-2.375 2.98-4.516 2.846-1.997-.123-3.502-1.372-3.952-3.348-.164-.717-.226-1.475-.236-2.212 0-3.246.02-6.471.02-9.707zm-145.777-.185c0-3.298-.01-6.594.01-9.881 0-.676.031-1.383.226-2.018.952-3.256 4.782-4.423 7.312-2.181.748.665 1.127.717 1.956.144 2.622-1.813 5.632-1.894 8.601-1.351 5.447.983 8.673 4.885 8.745 10.434.062 5.1.021 10.199.01 15.288 0 .615-.04 1.26-.215 1.843-.656 2.222-2.457 3.369-4.854 3.154-1.986-.174-3.594-1.792-3.86-3.922-.073-.615-.063-1.239-.063-1.864 0-3.911.01-7.833-.01-11.745-.01-.86-.082-1.741-.286-2.58-.49-2.038-2.058-3.113-4.3-3.062-2.059.051-3.575 1.239-3.984 3.236-.133.665-.144 1.362-.144 2.038-.01 3.911 0 7.833-.01 11.745 0 .737-.05 1.495-.174 2.222-.47 2.703-2.14 4.065-4.762 3.932-2.304-.113-4.034-1.904-4.158-4.444-.082-1.741-.02-3.481-.02-5.222-.022-1.915-.022-3.84-.022-5.765zm-97.639.42c.82-2.068 1.628-4.137 2.447-6.216.86-2.192 1.66-4.423 2.601-6.574 1.351-3.102 5.346-3.779 7.567-1.351 1.351 1.475 1.24 3.195.584 4.894-1.403 3.646-2.887 7.271-4.342 10.896a7710.287 7710.287 0 0 1-8.478 21.063c-.276.686-.604 1.372-1.034 1.966-1.628 2.232-4.639 2.56-6.717.737-1.219-1.075-1.73-2.468-1.198-4.034.666-1.997 1.28-4.055 2.253-5.898 1.31-2.468 1.157-4.659.051-7.188-2.437-5.57-4.587-11.274-6.83-16.926-.266-.686-.502-1.413-.574-2.14-.226-2.386.942-4.116 3.051-4.659 2.151-.563 4.373.399 5.335 2.406.481 1.004.83 2.068 1.22 3.123 1.095 2.969 2.17 5.949 3.256 8.919.123.338.276.655.41.983.132-.01.265-.01.398 0zm175.678-15.923c2.212-.082 4.26.399 6.246 1.188 1.29.512 2.427 1.27 3.277 2.375 1.894 2.468.707 6.072-2.232 6.635-.788.154-1.7-.133-2.499-.399-1.054-.348-2.028-.952-3.092-1.29-.809-.256-1.689-.327-2.539-.379-.665-.041-1.229.277-1.423.973-.205.727.184 1.198.768 1.526.594.338 1.198.666 1.822.922 1.26.533 2.55.973 3.81 1.526.961.42 1.903.912 2.815 1.433 6.277 3.666 4.915 11.643.112 14.736-2.97 1.915-6.236 2.386-9.657 1.966-2.294-.286-4.495-.983-6.482-2.212-1.628-1.014-3-2.232-2.908-4.423.092-2.529 2.355-4.464 4.813-3.87 1.24.297 2.427.922 3.574 1.526 1.24.655 2.5 1.065 3.912.973.82-.051 1.67 0 1.976-1.003.236-.758-.123-1.331-1.362-1.925-1.054-.512-2.18-.88-3.266-1.351-1.362-.594-2.765-1.136-4.066-1.853-3.052-1.7-4.936-4.219-4.72-7.834.225-3.779 2.088-6.564 5.58-8.151 1.782-.809 3.655-1.178 5.54-1.086zm-43.305 17.92c0-2.611.01-5.223-.01-7.844-.01-1.372-.04-1.372-1.29-1.485-2.427-.226-3.717-1.444-3.89-3.687-.165-2.089 1.27-3.789 3.593-4.26 1.577-.327 1.577-.327 1.587-2.007.01-.87-.03-1.741.03-2.611.194-2.57 1.986-4.352 4.423-4.444 2.263-.082 4.086 1.423 4.485 3.891.205 1.28.174 2.601.184 3.901.01.748.215 1.178 1.054 1.168.491-.01.983.103 1.475.185 2.284.399 3.563 1.945 3.431 4.126-.144 2.253-1.536 3.707-3.85 3.717-2.447 0-2.089.399-2.099 2.222-.01 4.731 0 9.462-.01 14.183 0 .676-.02 1.372-.144 2.038-.47 2.683-2.17 4.066-4.782 3.942-2.304-.112-4.055-1.894-4.168-4.444-.102-2.489-.03-4.976-.04-7.465.02-.379.02-.747.02-1.126zm60.53.051c0-2.55.01-5.1 0-7.649-.01-1.577-.02-1.577-1.588-1.731-1.946-.185-3.01-1.168-3.389-3.113-.359-1.853.42-3.635 2.018-4.393a4.94 4.94 0 0 1 1.782-.461c.994-.051 1.25-.533 1.198-1.433a21.203 21.203 0 0 1 .01-2.796c.205-2.631 1.526-4.24 3.77-4.679 2.303-.451 4.494.778 5.027 3.051.327 1.372.287 2.826.37 4.25.071 1.351.04 1.351 1.412 1.526.491.062.983.133 1.475.226 1.925.389 3.195 2.068 3.092 4.065-.112 1.986-1.393 3.441-3.298 3.707a2.514 2.514 0 0 1-.553.041c-2.427-.092-2.099.164-2.099 2.15-.01 4.854.02 9.707-.02 14.562-.01.973-.154 1.997-.47 2.918-.636 1.833-2.193 2.765-4.22 2.734-1.936-.031-3.523-1.106-4.076-2.949-.266-.88-.369-1.833-.389-2.755-.082-2.416-.05-4.843-.05-7.27zm149.38-2.355c0-3.42.03-6.841-.01-10.26-.02-2.038.615-3.656 2.56-4.557 1.956-.901 4.24-.553 5.817 1.024.563.563.891.461 1.372.03 1.331-1.168 2.908-1.607 4.66-1.474 2.764.205 4.658 2.918 3.951 5.611-.317 1.198-1.096 1.915-2.17 2.375-1.25.543-2.51 1.065-3.77 1.597-2.314.973-3.46 2.581-3.338 5.212.144 3.349.041 6.717.03 10.066 0 .615-.02 1.25-.133 1.853-.49 2.642-2.232 4.004-4.854 3.85-2.263-.133-4.014-1.997-4.086-4.516-.072-2.55-.02-5.1-.02-7.649-.01-1.055-.01-2.11-.01-3.164zm-436.828 2.693c-1.863 0-3.728.03-5.59-.01-2.182-.051-3.605-1.383-3.79-3.563-.205-2.386 1.474-4.24 3.205-4.342.615-.031 1.24-.144 1.853-.154 2.98-.021 5.97-.01 8.95 0 .491 0 .993.01 1.485.092 2.887.461 4.362 3.236 3.123 5.888-.635 1.362-1.75 2.058-3.257 2.079h-.368c-1.874.01-3.748.01-5.61.01z"/></svg>