<svg viewBox="0 0 1195 1195" xmlns="http://www.w3.org/2000/svg"><path d="M980.29 729.784l-88.75-88.75c-1.015-1.014-3.544-3.031-7.589-6.072v102.4h102.4c-3.02-4.034-5.048-6.553-6.062-7.577zM820.257 844.053c-2.724-2.253-7.035-3.389-12.892-3.389h-6.38l-7.24 32.615h6.717c7.527 0 13.384-1.567 17.582-4.711 4.198-3.134 6.288-7.926 6.288-14.366 0-4.505-1.35-7.895-4.076-10.148zm-424.079-3.635v-2.97c-2.529 6.605-5.663 13.599-9.39 20.971l-16.2 31.795h28.692l-2.243-28.908c-.574-7.209-.86-14.172-.86-20.889zM884.053 768c-11.428-1.208-14.07-3.328-20.48-10.24-6.298-5.796-10.537-12.144-10.24-20.48V614.4H238.237c-13.732 0-25.57 6.277-35.533 16.251-9.994 8.724-14.97 20.562-14.97 35.533v268.534c0 14.961 4.976 26.829 14.96 35.533 9.973 9.994 21.81 12.779 35.532 12.779H956.43c13.712 0 25.55-2.785 35.533-12.779 9.974-8.704 14.961-20.572 14.961-35.533V768.001h-122.87zm-608.41 124.692l-10.424 47.729h-26.286l26.624-120.73h70.134l-4.649 20.971h-43.776l-6.81 31.13h40.755l-4.823 20.889h-40.745zm126.997 47.729l-2.068-28.734h-40.755L345 940.421h-27.577L383.43 819.2h32.144l12.667 121.231h-25.6zm137.697-99.42h-30.413l-21.883 99.431h-26.286l21.883-99.431h-30.33l4.74-21.309h87.03l-4.74 21.309zm63.242 0l-21.883 99.431H555.42l21.883-99.431h-30.33l4.74-21.309h87.03l-4.74 21.309h-30.424zm128.82 56.811c-3.277 14.643-9.534 25.682-18.78 33.116-9.257 7.434-21.289 11.151-36.106 11.151-12.175 0-21.74-3.123-28.723-9.37s-10.486-14.715-10.486-25.395c0-3.963.43-7.762 1.29-11.397l16.886-76.226h26.276l-16.712 75.889c-.973 4.075-1.465 7.516-1.465 10.322 0 9.799 5.427 14.694 16.282 14.694 7.066 0 12.667-2.11 16.804-6.318s7.127-10.506 8.96-18.872l16.712-75.725h26.368L732.4 897.812zm197.744 42.609l-2.068-28.734H887.32l-14.817 28.734H845.88l-.42-.962-.522.962H817.28l-17.838-46.326h-10.25l-10.25 46.326h-26.276l26.624-120.73h30.935c13.61 0 23.838 2.806 30.68 8.428 6.84 5.611 10.25 13.844 10.25 24.688 0 8.694-2.387 16.169-7.149 22.425-4.772 6.247-11.633 10.885-20.592 13.916l22.067 50.319 65.444-120.269h32.144l12.667 121.221h-25.59zm-6.46-100.003v-2.97c-2.53 6.605-5.664 13.599-9.39 20.971l-16.2 31.795h28.692l-2.242-28.908c-.573-7.209-.86-14.172-.86-20.889z"/></svg>