<svg viewBox="0 0 1195 1195" xmlns="http://www.w3.org/2000/svg"><path d="M742.833 885.719V990.72c0 2.673-.665 4.669-1.997 6-1.997 1.997-4.342 3-7.004 3H460.834c-2.673 0-4.997-1.004-7.004-3-1.34-1.331-1.997-3.328-1.997-6v-42.998c0-1.997.656-4.332 1.997-7.004 2.652-1.331 4.997-1.997 7.004-1.997h27.996V828.723h-27.996c-1.34 0-3.349-.655-6-1.997-1.997-1.997-3-4.332-3-7.004v-36.997c0-2.652 1.003-4.997 3-7.004 1.331-1.331 3.328-1.997 6-1.997h27.996v-64c0-33.331 11.653-60.334 35-80.999 22.651-20.654 52.654-30.996 90-30.996 36.003 0 67.654 11.673 94.995 35 1.997 1.997 3 4.004 3 6 0 3.349-.665 5.673-1.997 7.004l-29 36.004c-1.997 1.997-4.004 3-6 3-2.673.666-4.997 0-7.004-1.997l-1.004-1.003a16.707 16.707 0 0 0-2.499-1.997 35.466 35.466 0 0 0-3.502-1.997c-4.004-2.652-10.67-5.653-19.999-9.001-7.342-3.328-16.343-4.997-27.003-4.997-16.67 0-29.666 4.342-39.004 13.005-10.005 9.349-15.002 21.002-15.002 35v62.003h87c3.327 0 5.652.666 7.003 1.997 1.997 1.997 3 4.342 3 7.004v36.997c0 2.673-1.004 4.997-3 7.004-2.673 1.341-4.997 1.997-7.004 1.997h-86.999v109.005h119v-51.999c0-3.328.654-5.652 1.996-7.004 2.652-1.331 4.997-1.997 7.004-1.997h45.998c1.997 0 4.332.665 7.004 1.997 1.351 2.642 2.018 4.966 2.018 6.963z"/></svg>