<svg viewBox="0 0 1195 1195" xmlns="http://www.w3.org/2000/svg"><path d="M405.333 993.721h19.865l-4.423 4.423v15.452l-11.038 2.212c-2.969 0-5.888.379-8.827 1.106-2.969.758-5.17 1.106-6.625 1.106-11.796 0-20.623-3.656-26.48-11.038-5.889-7.353-8.828-14.684-8.828-22.067 0-22.067 12.483-33.106 37.52-33.106 5.857 0 10.27.758 13.24 2.212 4.412 0 8.068 1.474 11.037 4.413l-8.837 8.837 2.212-4.413c-11.796-5.858-18.41-8.827-19.865-8.827-16.21 0-24.279 8.827-24.279 26.481 0 22.067 10.271 33.106 30.894 33.106 5.858 0 9.554-.727 11.038-2.212v-15.452l-13.24 2.212 6.635-4.444zm-15.452-353.106c5.858-13.24 16.18-19.865 30.894-19.865 4.413 0 9.554 1.474 15.452 4.413 32.338 16.21 61.031 40.489 86.067 72.827v19.865c0 30.894-8.1 60.344-24.279 88.279 0 1.474-.758 2.212-2.212 2.212-2.969 8.827-3.687 15.452-2.212 19.865-4.413-64.727-34.58-111.79-90.48-141.24-20.614-11.766-25.027-27.218-13.23-46.357zm61.798 328.827c-16.21 0-24.279 8.1-24.279 24.279 0 14.725 8.07 22.067 24.28 22.067 16.178 0 24.278-7.353 24.278-22.067 0-16.179-8.1-24.279-24.279-24.279zm11.03 39.731c-2.97 2.969-5.889 4.413-8.828 4.413-11.796 0-17.654-8.827-17.654-26.481 0-1.444 1.444-5.14 4.413-11.038 1.444-1.444 4.413-2.212 8.827-2.212 11.766 0 17.654 8.1 17.654 24.279 0 1.485-1.474 5.182-4.413 11.038zm41.932-39.731c-17.654 0-26.48 8.1-26.48 24.279 0 14.725 8.068 22.067 24.278 22.067 16.18 0 24.28-7.353 24.28-22.067-.01-16.179-7.384-24.279-22.078-24.279zm8.827 39.731c-2.969 2.969-5.888 4.413-8.827 4.413-10.3 0-15.452-8.827-15.452-26.481 0-4.413 1.444-8.069 4.413-11.038 1.444-1.444 3.656-2.212 6.625-2.212 11.766 0 17.654 8.1 17.654 24.279 0 1.485-1.474 5.182-4.413 11.038zM502.44 631.788c-4.413-13.24-5.17-24.279-2.212-33.106 2.94-5.857 5.858-10.27 8.827-13.24 2.94-2.939 7.353-5.858 13.24-8.827 1.444 0 3.308-.338 5.52-1.106 2.211-.727 4.751-1.106 7.72-1.106 5.858 0 12.483 2.212 19.865 6.625 4.413 1.475 7.353 4.413 8.827 8.827 1.444 0 2.212.758 2.212 2.212 23.511 38.277 35.308 80.926 35.308 128v15.452c-1.475 38.277-13.24 75.038-35.308 110.346-7.383 11.796-17.654 17.654-30.894 17.654h-11.038c-1.474 0-2.969-.727-4.413-2.212-1.474-1.444-2.969-2.212-4.413-2.212-8.827-5.858-14.725-15.452-17.654-28.692 0-8.827 1.444-15.452 4.413-19.865v-2.192c17.654-26.481 26.481-55.9 26.481-88.279 0-1.444-.379-4.413-1.106-8.827-.758-4.413-1.106-8.069-1.106-11.038-2.959-24.996-11.029-47.79-24.269-68.413zm70.615 339.865H553.19c-7.383 0-12.514 1.474-15.452 4.413-4.413 4.413-6.625 8.827-6.625 13.24 0 10.301 5.14 15.452 15.452 15.452h2.212v4.413c1.444 2.969 2.212 5.171 2.212 6.625-7.383 0-13.24 1.474-17.654 4.413-4.413 1.474-6.625 5.171-6.625 11.038 0 8.827 6.625 13.24 19.865 13.24 16.18 0 24.28-5.858 24.28-17.654 0-5.858-2.213-10.271-6.626-13.24l-4.413-2.212c0-1.444-.379-2.212-1.106-2.212-.758 0-1.106-.727-1.106-2.212 0-1.444.727-2.939 2.212-4.413 5.858-5.858 8.827-11.038 8.827-15.452s-2.212-8.827-6.625-13.24h4.413l6.625-2.202zm-8.827 59.587c0 5.888-4.413 8.827-13.24 8.827-11.796 0-17.654-3.656-17.654-11.038 0-1.444 2.94-5.14 8.827-11.038h13.25c5.847 4.423 8.817 8.837 8.817 13.25zm-6.615-30.894c-2.969 1.474-5.17 2.212-6.625 2.212-7.383 0-11.038-5.858-11.038-17.654 0-2.939.727-5.14 2.212-6.625 0-2.939 2.212-4.413 6.625-4.413 7.353 0 11.038 5.888 11.038 17.654-.01 4.413-.768 7.373-2.212 8.827zm111.442-301.24c.727 8.1 1.106 15.104 1.106 20.962 0 47.104-9.585 90.481-28.692 130.212l-2.212 2.212c0 1.474-.379 3.687-1.106 6.625-.758 2.969-1.106 5.171-1.106 6.625v-13.261c0-44.135-9.585-83.097-28.692-116.962v-15.452c0-47.073-11.796-89.723-35.308-128l-2.212-2.212c-1.474-2.939-3.687-5.857-6.625-8.827h-2.212c44.135 26.481 79.452 61.061 105.933 103.721.03 1.485.37 6.288 1.126 14.357zm-80.548 307.855v-55.173l4.413-4.413h-13.24l-6.625 2.212h6.625v59.597l-2.212 2.212c-1.474 1.474-2.212 2.969-2.212 4.413h17.654l4.423-2.222c-2.969 0-5.17-.727-6.625-2.212-1.474 0-2.202-1.444-2.202-4.413zm15.452-15.442h6.625l24.28-8.827-2.213-2.212c-1.475-2.939-2.97-5.14-4.413-6.625-5.888-2.939-9.585-4.413-11.038-4.413-14.725 0-22.067 7.383-22.067 22.067 0 8.827 3.655 16.21 11.038 22.067 2.94 1.474 6.625 2.212 11.038 2.212s8.07-.727 11.038-2.212h2.212l4.413-6.625c-2.97 2.969-6.625 4.413-11.038 4.413-11.817.01-18.432-6.605-19.876-19.845zm0-4.413c0-8.827 3.655-13.24 11.038-13.24 5.857 0 8.827 2.969 8.827 8.827l-2.212 2.212-17.654 6.625v-4.423zm150.067-267.039c0 32.379-2.97 61.061-8.827 86.067-2.97 8.827-5.17 16.21-6.625 22.067-5.888 19.139-13.24 38.277-22.067 57.375-5.888 13.24-17.654 19.865-35.308 19.865-7.383 0-12.514-.727-15.452-2.212-13.24-7.353-20.624-16.179-22.067-26.481V865.71c0-4.413.727-9.554 2.212-15.452 20.592-44.135 30.894-87.511 30.894-130.212 0-44.135-10.302-88.279-30.894-132.413-10.302-23.511-3.687-40.448 19.865-50.76 5.847-2.919 11.03-4.393 15.442-4.393 16.18 0 27.924 7.383 35.308 22.067 10.27 20.623 19.865 47.104 28.692 79.452 5.857 23.542 8.827 52.234 8.827 86.067zm-52.97 251.586h4.412l-8.827 44.135h-6.625l-8.827-39.721-8.827 39.721h-6.625l-11.038-44.135h4.413l8.827 39.721 8.827-39.721h6.625l8.827 39.721 8.837-39.721zm41.932 13.241c0-10.271-5.17-15.452-15.452-15.452-7.383 0-12.514 4.413-15.452 13.24h4.413c2.94-4.413 6.625-6.625 11.038-6.625 5.857 0 8.827 2.969 8.827 8.827v4.413l-2.212-2.212h-6.625c-10.302 0-15.452 4.413-15.452 13.24 0 10.301 4.413 15.452 13.24 15.452 7.352 0 11.038-1.444 11.038-4.413l2.212 4.413h4.413v-30.884zm-6.616 19.865c0 4.413-3.687 6.625-11.038 6.625-5.888 0-8.827-3.656-8.827-11.038 0-5.858 3.655-8.827 11.038-8.827h6.625l2.212 2.212v11.029zM751.814 954h4.413v61.788h-4.413V954zm15.452 0h4.413v61.788h-4.413V954zm28.692 15.442c-10.302 0-15.452 8.1-15.452 24.279 0 14.725 5.14 22.067 15.452 22.067 10.27 0 15.452-5.14 15.452-15.452h-4.413c0 7.383-3.687 11.038-11.038 11.038-7.383 0-11.038-5.858-11.038-17.654h26.481v-2.212c0-14.684-5.17-22.067-15.442-22.067zm-11.038 19.865c1.444-8.827 5.14-13.24 11.038-13.24 7.352 0 11.038 4.413 11.038 13.24H784.92zm41.932-17.654h8.827v4.413h-8.827v28.692c0 4.413 1.444 6.625 4.413 6.625l4.413-2.212v4.413c-1.475 1.474-3.687 2.212-6.625 2.212-5.888 0-8.827-2.939-8.827-8.827v-30.894h-4.413v-4.413h4.413v-13.24l6.625-2.212v15.442z"/></svg>