<svg viewBox="0 0 1195 1195" xmlns="http://www.w3.org/2000/svg"><path d="M684.2 880.988c0 5.161-4.046 9.165-9.166 9.165h-45.732c-5.12 0-9.124-3.994-9.124-9.165V739.276c0-42.823-34.867-77.721-77.72-77.721h-77.68v329.144c0 5.161-4.046 9.165-9.166 9.165H409.88c-5.12 0-9.124-3.994-9.124-9.165V606.74c0-5.161 3.993-9.165 9.124-9.165h132.577c78.306 0 141.742 63.437 141.742 141.701v141.712zm109.71-22.825c0 78.264-63.437 141.701-141.742 141.701H519.591c-5.12 0-9.124-3.994-9.124-9.165V716.452c0-5.161 3.993-9.165 9.124-9.165h45.732c5.12 0 9.165 3.993 9.165 9.165v219.433h77.68c42.865 0 77.721-34.908 77.721-77.721V606.741c0-5.161 3.994-9.165 9.124-9.165h45.732c5.12 0 9.165 3.993 9.165 9.165v251.423z"/></svg>