<svg viewBox="0 0 1195 1195" xmlns="http://www.w3.org/2000/svg"><path d="M302.226 1046.928v66.11c-11.285 3.226-32.246 11.284-38.697 11.284-19.353 0-30.638-17.736-30.638-35.471 0-27.413 49.992-33.854 69.335-41.923zm135.455-67.718V658.34c0-16.118-11.284-20.962-25.795-17.736-20.962 6.451-140.298 46.756-203.192 72.56-17.736 8.059-20.962 17.736-20.962 25.795v311.194c0 19.354 22.58 17.746 27.412 16.128 14.51-3.226 83.856-25.794 93.532-30.638v251.536c0 32.256 32.256 45.148 45.148 82.237h161.26V1096.92c0-30.638-54.825-88.688-77.404-117.709zm-198.338 69.335c-6.45 3.226-22.579 9.677-29.03 9.677s-12.904-1.618-12.904-9.677V742.184c0-16.128 24.187-22.569 41.933-29.02v335.381zm187.053-80.63c0 9.677-19.353 17.736-30.638 20.962v140.288h-6.45V951.798c0-24.187-27.414-30.638-40.316-30.638-19.353 0-40.315 17.736-40.315 30.638v70.942c-6.45 3.226-11.285 4.843-19.353 8.059V693.801l122.563-41.923c11.284-3.226 14.51 6.451 14.51 12.902v303.135zm-187.053-254.75v335.38l49.981-17.746 1.618-336.988zm78.622 60.59l36.65-11.09v23.429c5.467-11.244 11.017-19.722 16.62-25.538s12.43-9.974 20.48-12.401c10.884-3.298 19.393-1.28 25.558 5.918 6.134 7.219 9.206 20.316 9.206 39.301v91.587l-39.516 11.961v-79.227c0-9.032-1.188-15.063-3.563-18.094-2.406-3.072-5.745-3.911-10.055-2.601-4.752 1.444-8.642 5.161-11.57 11.1-2.97 5.95-4.455 15.524-4.455 28.621v69.171l-39.352 11.909V773.755zm179.457-109.138v54.825l21.637-6.543v40.284l-21.637 6.543v51.118c0 6.154.43 10.107 1.25 11.847 1.28 2.663 3.522 3.563 6.76 2.581 2.897-.88 6.962-3.308 12.174-7.25l2.898 37.274c-9.728 5.909-18.8 10.137-27.248 12.688-9.8 2.959-17.019 3.389-21.637 1.27-4.649-2.11-8.079-6.441-10.29-12.954-2.244-6.492-3.329-17.838-3.329-33.956v-50.698l-14.51 4.393v-40.284l14.51-4.393v-26.481l39.424-40.264zm154.286 93.829l-78.827 23.859c.697 8.684 2.406 14.736 5.11 18.268 3.79 5.1 8.776 6.697 14.878 4.854 3.861-1.168 7.547-3.625 11.018-7.404 2.14-2.365 4.413-6.062 6.861-11.151l38.76-6.727c-5.94 16.292-13.057 28.816-21.434 37.653-8.376 8.786-20.388 15.565-36.055 20.306-13.589 4.116-24.279 4.659-32.092 1.659-7.783-3.01-14.244-9.625-19.364-19.794-5.11-10.168-7.68-23.142-7.68-38.973 0-22.508 5.14-42.302 15.401-59.3 10.291-17.049 24.474-28.334 42.578-33.813 14.674-4.444 26.286-4.803 34.765-1.116 8.51 3.625 15.012 10.742 19.426 21.207 4.455 10.506 6.656 25.252 6.656 44.237v6.236zM611.741 744.1c-.788-10.455-2.837-17.48-6.134-21.064-3.328-3.625-7.68-4.618-13.087-2.98-6.267 1.894-11.243 6.922-15.012 15.012-2.375 5.069-3.89 11.971-4.516 20.767L611.74 744.1zm58.45-76.954l36.802-11.141v23.572c3.563-11.264 7.22-19.415 10.987-24.392 3.758-4.976 8.418-8.335 13.947-10.014 5.806-1.762 12.135-1.127 19.026 1.833l-12.165 43.038c-4.618-1.331-8.315-1.557-11.018-.738-5.15 1.557-9.134 5.776-11.97 12.565-4.056 9.656-6.094 26.02-6.094 49.08v48.292l-39.516 11.96V667.145zm126.68 8.284l-37.572 5.816c1.413-9.646 3.461-17.531 6.134-23.623 2.673-6.082 6.492-11.827 11.55-17.244 3.594-3.912 8.571-7.598 14.87-11.029 6.297-3.441 13.127-6.288 20.48-8.519 11.775-3.564 21.278-5.509 28.394-5.817 7.158-.317 13.128 1.772 17.88 6.205 3.368 3.052 6 7.998 7.945 14.868 1.915 6.922 2.878 13.722 2.878 20.521v63.621c0 6.758.327 11.991.922 15.646.625 3.656 1.946 8.162 4.024 13.507l-36.915 11.172c-1.485-3.256-2.437-5.785-2.898-7.598s-.89-4.731-1.35-8.755c-5.15 8.55-10.292 15.063-15.37 19.558-6.964 6.083-15.044 10.526-24.25 13.312-12.237 3.707-21.534 2.54-27.904-3.502-6.338-6-9.503-14.858-9.503-26.532 0-10.978 2.274-20.644 6.861-29.072 4.577-8.469 12.995-16.251 25.293-23.399 14.777-8.643 24.341-14.449 28.734-17.449 4.352-2.98 9.001-6.615 13.885-10.772 0-6.81-.994-11.233-2.97-13.363-2.007-2.079-5.509-2.406-10.558-.88-6.43 1.945-11.244 4.885-14.48 8.734-2.489 3.041-4.537 7.916-6.082 14.592zm34.098 18.709a215.81 215.81 0 0 1-16.886 12.339c-7.977 5.376-13.056 9.882-15.165 13.383-2.212 3.676-3.298 7.394-3.298 11.182 0 4.352 1.086 7.547 3.236 9.667 2.171 2.068 5.335 2.509 9.534 1.239 4.383-1.331 8.448-4.035 12.237-8.151 3.758-4.147 6.431-8.612 8.018-13.353 1.577-4.782 2.345-10.619 2.345-17.469l-.02-8.837zm138.598-29.86l37.366-5.346c-2.048 11.55-5.447 22.067-10.128 31.498-4.72 9.441-10.72 17.459-18.043 24.115-7.29 6.605-16.589 11.643-27.863 15.053-10.885 3.298-19.958 4.608-27.177 3.963-7.26-.676-13.486-3.369-18.698-8.182-5.243-4.803-9.328-11.018-12.268-18.739-2.97-7.67-4.455-18.606-4.455-32.819 0-14.817 1.782-27.719 5.417-38.676 2.642-8.018 6.226-15.596 10.813-22.723s9.267-12.851 14.121-17.101c7.65-6.758 17.48-11.96 29.45-15.585 16.753-5.069 29.522-4.721 38.328 1.045 8.775 5.724 14.981 16.159 18.504 31.303l-37.018 18.104c-1.157-5.806-3.266-9.799-6.338-11.97-3.072-2.222-7.158-2.509-12.339-.942-6.503 1.966-11.776 6.851-15.8 14.592-4.024 7.793-6.032 18.309-6.032 31.601 0 11.847 2.007 20.224 6 25.18 3.994 4.946 9.072 6.471 15.268 4.588 5.15-1.556 9.472-4.72 12.995-9.493 3.502-4.762 6.144-11.254 7.895-19.466z"/></svg>