<svg viewBox="0 0 1195 1195" xmlns="http://www.w3.org/2000/svg"><path d="M797.33 651.725c5.335 5.345 10.005 12.349 13.998 21.002 3.328 7.342 4.997 15.667 4.997 24.996v330.005c0 7.997-2.673 14.346-7.997 18.995-5.346 5.346-11.663 7.997-18.995 7.997h-384c-7.342 0-13.67-2.652-18.995-7.998-5.346-4.659-7.998-10.998-7.998-18.995V569.722c0-7.997 2.652-14.326 7.998-18.995 5.325-5.335 11.653-8.008 18.995-8.008h256c7.997 0 16.333 1.997 24.996 6.001 10.66 4.669 18.002 9.001 21.995 13.005l89.006 90zm-16.998 365.998V725.719H661.333c-7.342 0-13.67-2.652-18.995-7.997-5.346-4.659-7.997-11.326-7.997-19.999V579.717H414.335v437.995h365.998zM670.334 581.724v106.998h108.001c-1.997-6-4.342-9.656-7.004-10.998l-88.996-90c-2.007-2.007-6-4.004-12-6z"/></svg>