<svg viewBox="0 0 1195 1195" xmlns="http://www.w3.org/2000/svg"><path d="M634.33 697.723c0 8.673 2.663 15.35 7.997 19.999 5.335 5.346 11.663 7.998 18.995 7.998h155.003v301.998c0 7.997-2.673 14.346-7.997 18.995-5.335 5.356-11.663 8.007-18.995 8.007h-384c-7.342 0-13.67-2.652-18.995-7.997-5.335-4.659-7.998-10.998-7.998-18.995V569.723c0-7.998 2.663-14.326 7.998-18.995 5.325-5.335 11.653-8.008 18.995-8.008H634.33v155.003zm36.004-9.001V553.718c5.335 4.004 8.663 6.666 10.005 7.998l117.002 117.002c1.331 1.341 4.004 4.67 7.997 10.005H670.334z"/></svg>