<svg viewBox="0 0 1195 1195" xmlns="http://www.w3.org/2000/svg"><path d="M661.333 725.719h155.003v301.998c0 7.997-2.673 14.346-7.997 18.995-5.356 5.346-11.673 8.007-19.005 8.007h-384c-7.342 0-13.67-2.652-18.995-7.997-5.346-4.659-7.998-10.998-7.998-18.995V569.713c0-7.998 2.652-14.326 7.998-18.995 5.325-5.335 11.653-7.998 18.995-7.998h228.997v155.003c0 8.673 2.652 15.35 7.997 19.998 5.335 5.335 11.663 7.998 19.005 7.998zm45.998 64v-18.002c0-2.652-1.004-4.997-3-7.004s-4.004-3-6-3H496.337c-1.997 0-4.004 1.004-6 3s-3 4.342-3 7.004v18.002c0 3.349 1.003 5.345 3 6 1.997 1.997 3.993 3 6 3h202.005c1.997 0 4.004-1.004 6-3 1.997-.655 2.99-2.662 2.99-6zm0 73.001v-18.002c0-2.652-1.004-4.997-3-7.004-1.34-1.331-3.348-1.997-6-1.997H496.337c-2.673 0-4.67.665-6 1.997-1.997 1.997-3 4.342-3 7.004v18.002c0 2.673 1.003 4.997 3 7.004 2.652 1.341 4.66 1.997 6 1.997h202.005c1.331 0 3.328-.655 6-1.997 1.997-2.007 2.99-4.342 2.99-7.004zm0 73.001v-18.002c0-2.652-1.004-4.997-3-7.004-2.673-1.331-4.669-1.997-6-1.997H496.337c-1.34 0-3.349.665-6 1.997-1.997 1.997-3 4.342-3 7.004v18.002c0 2.673 1.003 4.997 3 7.004 2.652 1.341 4.66 1.997 6 1.997h202.005c1.331 0 3.328-.655 6-1.997 1.997-2.007 2.99-4.342 2.99-7.004zm90-257.004c1.33 1.341 4.003 4.67 7.996 10.005H670.333V553.718c5.335 4.004 8.653 6.666 10.005 7.998L797.33 678.718z"/></svg>