<svg viewBox="0 0 1195 1195" xmlns="http://www.w3.org/2000/svg"><path d="M980.29 729.784l-88.75-88.75c-1.015-1.014-3.544-3.031-7.589-6.072v102.4h102.4c-3.02-4.034-5.048-6.553-6.062-7.577zM884.052 768c-11.428-1.208-14.07-3.328-20.48-10.24-6.298-5.796-10.537-12.144-10.24-20.48V614.4H238.237c-13.732 0-25.57 6.277-35.533 16.251-9.994 8.724-14.97 20.562-14.97 35.533v268.534c0 14.961 4.976 26.829 14.96 35.533 9.973 9.994 21.81 12.779 35.532 12.779H956.43c13.712 0 25.55-2.785 35.533-12.779 9.974-8.704 14.961-20.572 14.961-35.533V768.001h-122.87zM266.448 930.202h-27.515l28.14-119.368h27.514l-28.139 119.368zm139.623 0h-30.843l-32.113-90.307h-.543l-.358 2.611c-1.925 11.755-3.91 22.262-5.95 31.519l-13.077 56.176h-24.802l27.874-119.367h32.205l30.67 87.931h.357c.717-4.137 1.894-10.045 3.522-17.715 1.628-7.68 7.035-31.079 16.231-70.216h24.72l-27.895 119.367zm55.02 0l-11.46-119.368h26.603l4.598 71.854c.236 2.447.358 6.072.358 10.854-.123 5.611-.297 9.687-.543 12.247h.635c4.69-12.032 7.998-19.733 9.923-23.101l38.963-71.854h28.498l-67.45 119.368h-30.127zm201.143-35.226c-5.949 12.165-14.1 21.351-24.443 27.556s-22.25 9.308-35.727 9.308c-15.39 0-27.402-4.014-36.034-12.042s-12.943-19.169-12.943-33.433c0-14.428 2.98-27.689 8.93-39.803s14.162-21.402 24.627-27.884c10.466-6.482 22.548-9.718 36.26-9.718 15.33 0 27.207 3.922 35.625 11.755 8.418 7.844 12.626 18.811 12.626 32.901.01 15.401-2.97 29.194-8.919 41.36zm46.9 35.226H681.62l28.14-119.368h27.514l-28.139 119.368zm72.468-26.205c4.116 4.413 10.691 6.615 19.712 6.615 8.775 0 18.944-2.099 30.485-6.288v21.228c-11.96 4.188-23.992 6.288-36.076 6.288-15.278 0-27.146-4.066-35.625-12.206s-12.718-19.661-12.718-34.581c0-14.264 3.123-27.392 9.38-39.394s14.612-21.115 25.078-27.351 22.487-9.349 36.076-9.349c7.516 0 14.192.615 20.02 1.833 5.836 1.229 12.082 3.471 18.76 6.738l-10.64 20.409c-6.37-3.216-11.633-5.335-15.78-6.37s-8.264-1.546-12.36-1.546c-7.936 0-15.073 2.202-21.422 6.615s-11.438 10.895-15.288 19.476c-3.85 8.571-5.775 17.787-5.775 27.638 0 9.083 2.058 15.831 6.174 20.245zM950.86 831.57h-46.183l-6.042 26.204h43.03l-4.957 20.736h-43.029l-7.219 30.782h46.183l-4.874 20.9h-73.687l27.874-119.368h73.78l-4.875 20.746zm-330.209-1.546c-7.28 0-13.947 2.488-20.029 7.475s-10.834 11.827-14.295 20.531c-3.46 8.714-5.18 18.156-5.18 28.334 0 7.997 1.996 14.039 6 18.125s9.635 6.123 16.916 6.123c7.28 0 13.906-2.365 19.886-7.106 5.98-4.731 10.66-11.428 14.03-20.08s5.047-18.37 5.047-29.143c0-7.731-1.956-13.701-5.867-17.92-3.912-4.229-9.41-6.338-16.507-6.338z"/></svg>