<svg viewBox="0 0 1195 1195" xmlns="http://www.w3.org/2000/svg"><path d="M623.506 999.721h-50.002c-1.997 0-4.004-1.004-6-3-1.997-1.331-3-3.328-3-6v-94.996h-82.002c-3.349 0-5.346-.656-6-1.997-1.997-1.997-3-4.332-3-7.004v-29c0-2.652 1.003-4.997 3-7.004 1.331-1.331 3.328-1.997 6-1.997h82.002v-24.996h-82.002c-3.349 0-5.346-.656-6-1.997-1.997-1.997-3-4.332-3-7.004v-28.999c0-2.652 1.003-4.997 3-7.004.656-1.997 2.652-3 6-3h61l-91.996-164.997c-1.34-2.652-1.34-5.653 0-9.001 1.997-2.652 4.66-4.004 7.998-4.004h56.002c4.004 0 6.656 1.669 7.998 4.997l62.003 120.996c0 .666 1.997 5.171 6 13.497 4.004 8.345 7.332 15.841 10.005 22.497.655-2.652 3.328-9.328 7.997-19.998 4.66-9.329 7.332-15.002 7.997-16.998l55-119.982c.654-3.328 3.327-4.997 7.996-4.997h55c2.651 0 4.996 1.341 7.003 4.004 1.997 2.673 2.335 5.673 1.004 9.001l-90 164.997h62.003c1.997 0 4.004 1.004 6 3s3 4.342 3 7.004v28.999c0 2.673-1.004 4.997-3 7.004-1.34 1.341-3.348 1.997-6 1.997h-82.995v24.996h82.995c1.331 0 3.328.665 6 1.997 1.997 1.997 3 4.342 3 7.004v29c0 2.673-1.004 4.997-3 7.004-1.34 1.341-3.348 1.997-6 1.997h-82.995v94.996c0 1.997-1.004 4.004-3 6s-4.014 2.99-6.01 2.99z"/></svg>