<svg viewBox="0 0 1195 1195" xmlns="http://www.w3.org/2000/svg"><path d="M1091.751 638.73c-11.715-14.684-29.5-22.016-53.38-22.016-23.85 0-41.637 7.332-53.352 22.016-11.725 14.674-17.592 32.02-17.592 52.029 0 20.367 5.867 37.775 17.592 52.275 11.715 14.438 29.501 21.688 53.351 21.688 23.87 0 41.667-7.25 53.381-21.688 11.725-14.49 17.582-31.898 17.582-52.275 0-20.009-5.847-37.346-17.582-52.03zm-29.03 84.224c-5.693 7.547-13.824 11.325-24.453 11.325-10.609 0-18.78-3.768-24.514-11.325-5.735-7.536-8.59-18.279-8.59-32.195 0-13.895 2.856-24.606 8.59-32.113s13.906-11.254 24.514-11.254c10.64 0 18.77 3.758 24.453 11.254 5.673 7.506 8.53 18.217 8.53 32.113 0 13.927-2.857 24.658-8.53 32.195zm-270.449-96.502c-11.879-6.021-25.487-9.063-40.786-9.063-23.52 0-40.13 6.144-49.797 18.391-6.082 7.854-9.492 17.849-10.28 30.034h35.153c.86-5.376 2.591-9.636 5.182-12.779 3.625-4.26 9.79-6.39 18.504-6.39 7.783 0 13.67 1.065 17.705 3.267 4.004 2.161 6.021 6.113 6.021 11.807 0 4.7-2.61 8.13-7.854 10.363-2.918 1.28-7.772 2.345-14.562 3.195l-12.462 1.536c-14.152 1.782-24.904 4.782-32.174 8.96-13.312 7.67-19.958 20.05-19.958 37.181 0 13.189 4.116 23.399 12.4 30.597 8.243 7.199 18.75 10.219 31.427 10.803 79.493 3.554 78.592-41.892 79.32-51.344v-52.306c-.01-16.773-5.96-28.201-17.839-34.253zm-18.463 79.37c-.246 12.185-3.737 20.572-10.434 25.17-6.707 4.608-14.029 6.912-21.975 6.912-5.038 0-9.288-1.393-12.8-4.158-3.502-2.765-5.243-7.27-5.243-13.486 0-6.983 2.857-12.124 8.591-15.452 3.41-1.945 8.97-3.635 16.753-4.966l8.304-1.536c4.126-.788 7.383-1.618 9.76-2.519 2.406-.87 4.72-2.028 7.055-3.492v13.527zM611.014 648.54c9.093 0 15.76 2.806 20.071 8.418 2.96 4.147 4.803 8.837 5.52 14.019h39.208c-2.15-19.784-9.072-33.587-20.756-41.411-11.725-7.792-26.736-11.714-45.097-11.714-21.596 0-38.564 6.635-50.81 19.876-12.279 13.261-18.423 31.785-18.423 55.603 0 21.094 5.55 38.287 16.661 51.527s28.447 19.876 52 19.876c23.581 0 41.39-7.946 53.38-23.829 7.527-9.84 11.745-20.296 12.626-31.344h-39.076c-.798 7.301-3.072 13.261-6.86 17.848-3.77 4.567-10.118 6.871-19.109 6.871-12.657 0-21.269-5.765-25.846-17.337-2.498-6.175-3.769-14.336-3.769-24.505 0-10.66 1.27-19.21 3.77-25.671 4.761-12.135 13.608-18.227 26.51-18.227zm-80.794-30.689c-80.548 0-75.776 71.312-75.776 71.312v72.438h36.546v-67.942c0-11.131 1.413-19.374 4.188-24.74 5.017-9.502 14.807-14.264 29.43-14.264 1.106 0 2.55.061 4.332.144s3.8.246 6.123.512V618.12c-1.618-.113-2.673-.154-3.134-.205a24.96 24.96 0 0 0-1.71-.062zM395.953 723.753c-1.536 2.191-3.185 4.065-5.007 5.53-5.16 4.25-12.175 5.54-20.429 5.54-7.813 0-13.916-1.188-19.456-4.669-9.124-5.601-14.254-15.094-14.797-29.02h101.13c.144-11.981-.246-21.166-1.219-27.556-1.68-10.875-5.376-20.46-11.049-28.713-6.308-9.349-14.336-16.2-24.002-20.551-9.677-4.311-20.55-6.482-32.635-6.482-20.368 0-36.894 6.421-49.654 19.241-12.749 12.851-19.149 31.273-19.149 55.327 0 25.671 7.065 44.206 21.207 55.593 14.121 11.387 30.443 17.09 48.906 17.09 22.375 0 39.803-6.748 52.234-20.265 6.707-7.106 10.916-14.141 12.688-21.074h-38.769zm-49.132-68.055c5.151-5.284 12.36-7.926 21.678-7.926 8.571 0 15.74 2.488 21.545 7.486 5.765 4.987 9.001 12.308 9.656 21.924h-62.536c1.3-9.042 4.536-16.19 9.656-21.484zM285.013 761.59h-33.382v-84.071c0-7.68-2.54-25.948-24.555-25.948-14.684 0-25.303 10.588-25.303 25.948v84.071H168.35v-84.071c0-7.68-2.284-25.948-24.29-25.948-14.94 0-25.323 10.588-25.323 25.948v84.071H85.334v-83.272c0-34.713 23.02-60.958 58.727-60.958 17.726 0 32.133 7.445 41.513 19.364 9.861-11.919 24.535-19.364 41.502-19.364 36.444 0 57.948 25.18 57.948 60.958v83.272zm671.55-187.648s-36.813-3.932-36.813 25.641l-.03 39.158c-4.076-6.543-9.38-11.663-15.913-15.339-6.523-3.686-13.998-5.55-22.425-5.55-18.258 0-32.809 6.8-43.735 20.377-10.926 13.599-16.364 33.188-16.364 56.873 0 20.552 5.54 37.407 16.62 50.524 11.08 13.107 32.81 18.862 52.111 18.862 67.308 0 66.53-57.713 66.53-57.713l.02-132.833zm-43.838 149.32c-5.335 7.649-13.179 11.469-23.429 11.469-10.29 0-17.95-3.85-22.989-11.53-5.048-7.701-7.567-18.893-7.567-31.714 0-11.888 2.468-21.852 7.444-29.87 4.956-8.018 12.74-12.042 23.357-12.042 6.973 0 13.077 2.212 18.361 6.625 8.571 7.312 12.861 20.419 12.861 37.386-.01 12.135-2.693 22.026-8.038 29.675zM352.23 993.577c0 4.946-1.802 9.196-5.397 12.718-3.563 3.543-7.864 5.304-12.892 5.304h-18.258V884.593c0-24.699 8.325-40.172 22.026-50.627 9.052-6.912 22.55-13.506 47.821-13.506 17.06 0 37.058 6.625 47.841 19.784 12.114 14.807 17.162 31.293 17.162 52.838 0 22.282-5.376 40.264-16.108 54.077-10.742 13.445-24.546 20.142-41.38 20.142-8.95 0-16.825-1.598-23.623-4.752-7.188-3.543-12.892-9.011-17.193-16.445v47.472zm61.255-98.898c0-13.783-2.683-24.371-8.079-31.815-5.366-7.394-13.066-11.141-23.1-11.141-9.657 0-17.184 3.748-22.59 11.141-4.997 6.727-7.486 17.357-7.486 31.815 0 13.476 2.673 23.501 8.06 30.229 5.355 7.434 13.065 11.141 23.1 11.141 9.298 0 16.65-3.707 22.016-11.141 5.397-7.424 8.08-17.47 8.08-30.229zm279.245 60.918v-8.97c-6.328 9.902-14.879 16.046-25.6 18.534-10.742 2.457-21.38 1.577-31.908-2.673-10.567-4.219-19.64-12.083-27.207-23.552-7.547-11.51-11.325-26.603-11.325-45.332 0-21.862 5.017-39.639 15.022-53.227 10.035-13.589 26.143-19.794 48.302-20.398 21.832-.574 34.53 4.362 46.961 13.783 13.588 10.322 21.627 26.142 21.627 50.852v74.721c.051 23.777-16.528 67.84-68.598 64.102-32.266-2.334-50.166-15.575-60.16-45.558h38.523c2.816 4.926 7.117 8.725 12.943 11.356 5.775 2.683 11.612 3.369 17.378 2.13 5.796-1.229 11.08-4.69 15.862-10.322 4.741-5.642 7.455-14.131 8.182-25.447zm-60.17-60.898c0 24.361 7.045 37.858 21.115 40.53 14.05 2.601 24.443-.656 31.13-9.82 3.174-3.861 5.447-9.974 6.851-18.258 1.393-8.294 1.505-16.507.266-24.627-1.208-8.141-4.137-15.38-8.714-21.74-4.557-6.338-11.254-9.534-20.05-9.534-11.97 0-20.039 4.434-24.269 13.23-4.24 8.837-6.328 18.903-6.328 30.218zm-67.144-64.635c-11.889-6.011-25.498-9.052-40.786-9.052-23.542 0-40.13 6.134-49.808 18.391-6.062 7.844-9.493 17.848-10.28 30.034h35.174c.86-5.376 2.58-9.636 5.171-12.779 3.625-4.26 9.79-6.39 18.493-6.39 7.803 0 13.68 1.075 17.695 3.256 4.004 2.171 6.021 6.114 6.021 11.817 0 4.69-2.61 8.13-7.854 10.353-2.918 1.27-7.762 2.334-14.562 3.195l-12.462 1.515c-14.15 1.792-24.904 4.793-32.164 8.96-13.332 7.659-19.968 20.05-19.968 37.171 0 13.2 4.116 23.409 12.401 30.597 8.243 7.188 18.75 10.23 31.426 10.813 79.473 3.553 78.582-41.892 79.31-51.343v-52.306c.01-16.752-5.919-28.16-17.809-34.232zm-18.473 79.371c-.226 12.196-3.728 20.562-10.425 25.17-6.697 4.598-14.019 6.891-21.965 6.891-5.038 0-9.288-1.392-12.79-4.147-3.512-2.765-5.264-7.271-5.264-13.497 0-6.973 2.877-12.124 8.601-15.452 3.42-1.945 8.97-3.625 16.743-4.956l8.295-1.546c4.147-.788 7.404-1.608 9.738-2.519 2.416-.87 4.741-2.028 7.055-3.502v13.558zm319.918-67.84c-11.735-14.695-29.522-22.026-53.4-22.026-23.819 0-41.626 7.322-53.34 22.026-11.726 14.674-17.593 32.01-17.593 52.029 0 20.367 5.857 37.765 17.592 52.255 11.715 14.428 29.522 21.678 53.34 21.678 23.87 0 41.667-7.25 53.401-21.678 11.715-14.49 17.552-31.898 17.552-52.255 0-20.029-5.837-37.366-17.552-52.029zm-29.05 84.203c-5.674 7.557-13.825 11.326-24.444 11.326s-18.8-3.769-24.514-11.326c-5.755-7.536-8.6-18.268-8.6-32.164s2.845-24.606 8.6-32.102c5.714-7.516 13.895-11.254 24.514-11.254s18.76 3.737 24.443 11.254c5.693 7.495 8.53 18.207 8.53 32.102s-2.837 24.627-8.53 32.164z"/></svg>