<svg viewBox="0 0 1195 1195" xmlns="http://www.w3.org/2000/svg"><path d="M197.737 693.125c2.11.317 4.23.645 6.338.942 19.56 2.673 36.987 10.291 52.162 22.856 18.196 15.063 30.352 34.089 35.35 57.18 7.433 34.294-.114 65.219-22.949 91.986-15.964 18.708-36.362 30.341-60.6 34.375-33.32 5.54-63.027-2.857-88.31-25.395-18.299-16.313-29.245-36.864-33.147-61.102-.389-2.417-.615-4.854-.942-7.271-.02-.297-.195-.563-.307-.839v-16.661c.113-.327.286-.645.338-.983.686-4.403 1.116-8.857 2.068-13.2 9.36-42.701 44.452-74.957 87.982-80.978 1.904-.266 3.79-.604 5.683-.912h16.333zm-92.19 54.528c2.11-4.137 4.21-8.274 6.318-12.421-.123-.071-.246-.154-.379-.226-2.304 3.891-4.618 7.783-6.922 11.673-1.075 2.181-2.15 4.362-3.226 6.553-.143.226-.328.441-.43.686-4.946 11.336-7.782 23.194-8.335 35.543-.47 10.609.553 21.105 3.635 31.293 1.434 4.721 3.37 9.288 5.08 13.916.767 1.628 1.545 3.246 2.313 4.874l2.304 4.24c.87 1.423 1.741 2.837 2.611 4.26.973 1.413 1.936 2.826 2.908 4.229 2.857 4.26 6.215 8.08 10.046 11.909-3.144-5.028-6.114-9.769-9.083-14.51-.983-2.181-1.966-4.372-2.949-6.553-.86-2.611-1.73-5.222-2.59-7.833-.768-4.475-1.536-8.95-2.304-13.435.02-3.635.051-7.27.072-10.916 0-.43.03-.891-.102-1.29-.809-2.365-1.659-4.721-2.498-7.076-.266-1.28-.49-2.56-.799-3.819-1.843-7.68-2.478-15.472-2.069-23.337.328-6.318 1.444-12.534 3.164-18.626 1.065-3.031 2.151-6.083 3.236-9.134zm96.768 145.131c2.5-.348 4.997-.697 7.495-1.034 2.396-.543 4.792-1.075 7.198-1.618 2.734-.85 5.478-1.7 8.213-2.56 2.058-.788 4.117-1.577 6.165-2.365 5.427-2.232 10.496-5.099 15.257-8.55-5.827 1.976-11.735 3.154-17.869 3.082-2.078 1.065-4.157 2.13-6.236 3.184-2.396 1.178-4.792 2.345-7.178 3.523-2.396.901-4.793 1.792-7.198 2.693-2.17.563-4.332 1.136-6.502 1.7-6.308.819-12.626 1.639-18.934 2.447 4.393.072 8.837.133 13.281.041 2.11-.01 4.21-.338 6.308-.543zm69.028-150.333l5.191 12.749c.983 4.475 1.976 8.95 2.96 13.424.214 5.438.42 10.864.634 16.302-.236 2.253-.205 4.577-.778 6.748-.778 2.959-.05 5.366 1.71 7.65 1.28 3.83 2.56 7.649 3.84 11.479.952 5.673.952 11.356.051 17.244.317-.246.44-.297.471-.379 2.5-6.963 4.28-14.101 5.07-21.474.214-5.232.44-10.465.654-15.698-.102-2.038-.092-4.086-.327-6.113-.317-2.775-.829-5.53-1.25-8.294-1.095-4.352-2.19-8.704-3.287-13.056-1.628-4.035-3.256-8.059-4.885-12.094-2.16-3.82-4.32-7.639-6.482-11.458-2.734-3.605-5.478-7.219-8.213-10.824-3.994-3.901-7.792-8.018-12.012-11.643-6.113-5.253-12.923-9.534-20.316-12.841-1.597-.768-3.205-1.536-4.803-2.304-.06.123-.113.256-.174.379 1.536.758 3.082 1.506 4.618 2.263 12.073 6.595 22.221 15.401 30.341 26.522 2.345 3.81 4.66 7.608 6.983 11.417zm-2.407 75.807c1.106-2.499 2.202-4.997 3.308-7.495.963-2.714 2.007-5.397 2.806-8.162.174-.604-.563-1.464-.87-2.202-.88-.952-1.69-1.986-2.662-2.836-3.645-3.154-7.854-5.222-12.595-6.103-1.556-.286-3.133-.44-4.854-.666 1.22 3.635 2.314 6.912 3.41 10.189.676 3.256 1.351 6.512 2.038 9.769.123 1.751.246 3.502.358 5.253-.174 5.622-.358 11.244-.532 16.886 3.707-4.465 7.024-9.298 9.595-14.633zm-52.224 59.454c-.195-.113-.399-.226-.594-.338-.573-.194-1.147-.389-1.71-.573-.41-.236-.829-.481-1.249-.717-.215-.113-.43-.215-.656-.327-.409-.226-.829-.451-1.239-.676l-2.427-1.567c-2.406-2.274-4.782-4.567-7.24-6.789-.46-.409-1.249-.727-1.843-.665-8.59.993-17.152.676-25.662-.768-17.94-3.041-33.71-10.608-47.175-22.886-4.76-4.342-8.909-9.216-12.739-14.377-1.209-1.874-2.407-3.737-3.614-5.611-.553-.973-1.106-1.956-1.659-2.928-.45-.788-.9-1.577-1.34-2.365-.124.041-.257.082-.38.123-.082.891-.154 1.782-.235 2.663.082 1.341.113 2.693.246 4.024.184 1.813.441 3.625.666 5.438.778 3.492 1.567 6.973 2.345 10.466 1.29 3.164 2.57 6.338 3.861 9.502 2.171 3.605 4.352 7.199 6.523 10.803 4.23 6.103 9.421 11.244 15.37 15.657 28.918 21.862 65.648 18.586 86.108 3.154-.676-.103-1.198-.185-1.71-.266-.788-.215-1.566-.43-2.355-.645-.43-.102-.86-.215-1.29-.327zm29.788-3.523c4.332-1.433 8.233-3.635 11.766-6.502l8.1-7.916c2.375-3.062 4.762-6.123 7.137-9.175 3.226-4.434 5.325-9.37 6.584-14.674.4-1.639 1.034-3.257 1.167-4.905.297-3.717.348-7.455.502-11.172 0-5.315-2.683-13.701-5.007-15.586a3286.853 3286.853 0 0 0-3.512 9.452c-1.853 3.492-3.707 6.983-5.55 10.476-2.939 3.922-5.878 7.844-8.816 11.755-.358.533-.839 1.014-1.044 1.597-1.219 3.481-2.365 6.994-3.533 10.496-1.772 3.359-3.543 6.728-5.315 10.087-2.703 3.481-5.406 6.974-8.11 10.455-2.908 2.734-5.827 5.478-8.755 8.233 2.642.727 11.111-.829 14.387-2.621zM135.048 757.637c1.946-1.25 3.891-2.488 5.837-3.738 2.078-1.075 4.157-2.161 6.246-3.236 2.078-.839 4.147-1.679 6.226-2.519 2.601-.798 5.202-1.587 7.793-2.386 2.745-.533 5.49-1.065 8.243-1.608 2.591-.226 5.171-.45 7.762-.686h7.19l9.81 1.198 7.494 1.659c2.826.911 5.653 1.833 8.478 2.745 3.994 1.956 7.987 3.922 11.991 5.878l7.65 5.161c1.72 1.423 3.45 2.846 5.17 4.27 2.294 2.396 4.598 4.782 6.892 7.178 1.526 1.956 3.042 3.922 4.567 5.878.83.85 1.628 2.386 2.488 2.417 4.66.185 9.165.994 13.568 2.468 3.881 1.741 7.588 3.779 10.721 6.707 1.29 1.208 2.57 2.427 3.942 3.717.174-1.566.4-3.113.502-4.669.43-6.523.42-13.025-.86-19.476-.185-1.044-.266-2.13-.573-3.133-1.506-4.946-3.072-9.881-4.618-14.807-1.526-3.051-3.042-6.113-4.567-9.165-2.703-3.85-5.406-7.701-8.11-11.55-2.62-2.724-5.243-5.447-7.864-8.171-3.543-2.775-6.953-5.735-10.649-8.274-5.11-3.502-10.608-6.329-16.517-8.284-3.686-1.106-7.363-2.202-11.049-3.308l-14.039-1.966c-3.513 0-7.014.01-10.526.01l-11.11 1.351c-3.708.973-7.415 1.945-11.112 2.918-3.492 1.403-6.984 2.816-10.475 4.219-2.918 1.68-5.847 3.349-8.776 5.018-2.734 2.028-5.468 4.055-8.192 6.082-2.416 2.284-4.834 4.577-7.25 6.861-2.365 2.857-4.73 5.724-7.096 8.581a66.563 66.563 0 0 0-8.858 15.975c-.317.686-.666 1.362-.942 2.068a78.261 78.261 0 0 0-5.18 24.791c-.165 3.696.05 7.414.091 11.111l.451.03c.8-1.649 1.433-3.41 2.407-4.946 3.031-4.751 6.195-9.421 9.308-14.131 2.601-2.611 5.202-5.232 7.813-7.844a762.907 762.907 0 0 0 5.724-4.393zm68.587 92.007c.215 4.24 1.505 8.182 3.39 11.94.194.389.992.83 1.381.727 5.07-1.331 10.107-2.745 15.165-4.147a64.64 64.64 0 0 0 14.786-7.158c2.243-1.475 4.444-3.01 6.727-4.413 1.71-1.055 2.304-2.581 2.345-4.465.4-1.843.788-3.687 1.188-5.529l.37-9.83c.378-5.704-.513-11.244-2.203-16.671-1.3-5.724-3.748-10.987-6.625-16.056-.185-.327-1.137-.542-1.566-.379-7.168 2.765-13.322 7.045-18.606 12.585-3.502 3.471-6.492 7.332-8.868 11.663-1.413 2.949-2.826 5.888-4.239 8.837-.563 1.721-1.126 3.431-1.689 5.151l-1.536 7.936c-.01 3.267-.02 6.543-.02 9.81zm-4.556-89.314c-3.594-.952-7.198-1.905-10.793-2.846-3.707-.43-7.424-.86-11.13-1.301-3.81.123-7.619.246-11.429.379-3.052.553-6.114 1.096-9.165 1.649-4.362 1.597-8.724 3.205-13.076 4.803-.41.154-.83.276-1.209.471-7.168 3.594-13.496 8.284-18.913 14.244-5.15 5.662-9.154 12.012-11.909 19.149-.307.809-.41 1.833-.215 2.673 4.198 18.012 13.527 32.921 27.76 44.636 16.456 13.548 35.553 19.743 56.812 19.486.993-.01 1.987-.236 3.287-.389-6.124-10.476-7.373-21.422-5.314-32.88.153-.798.266-1.607.481-2.386.81-2.918 1.66-5.827 2.5-8.735 1.31-2.714 2.631-5.438 3.941-8.151a6007.48 6007.48 0 0 0 6.902-10.045c.38-.389.778-.758 1.136-1.168 6.277-7.137 13.701-12.677 22.498-16.343.338-.143.635-.358 1.198-.676-1.188-1.229-2.274-2.345-3.349-3.461a6813.904 6813.904 0 0 1-9.144-8.079c-.236-.123-.502-.215-.707-.379-6.052-4.854-12.87-8.202-20.162-10.649zm10.168 104.796c-.01-.072-.03.051.031.133 3.758 5.591 9.022 9.052 15.463 10.742.686.185 1.762-.194 2.345-.676 7.332-6.082 12.862-13.548 16.773-22.221.676-1.495 1.208-3.052 1.71-4.342-5.765 3.205-11.367 6.82-17.387 9.534-6.052 2.713-12.524 4.557-18.934 6.83zm654.848-109.332c-.226.994-.317 1.628-.512 2.222-2.683 7.762-4.086 15.821-5.458 23.89-1.485 8.745-3.01 17.49-4.495 26.235-1.372 8.079-3.308 16.015-5.97 23.777-2.539 7.414-6.124 14.264-11.57 19.968-7.128 7.486-15.944 11.981-25.929 14.438-8.11 1.986-16.364 2.447-24.586 1.822-6.553-.502-13.015-2.058-19.528-3.134-1.178-.195-1.403-.727-1.157-1.936 1.096-5.406 2.048-10.844 3.052-16.281.42-2.263.451-2.284 2.581-1.587 6.707 2.202 13.527 4.024 20.552 4.659 6.114.553 12.278.399 18.002-2.355 6.912-3.318 11.387-8.96 14.316-15.831 1.69-3.952 2.846-8.141 4.25-12.216-.174-.113-.348-.226-.522-.327-1.669 1.31-3.308 2.642-4.997 3.922-6.482 4.874-13.506 8.673-21.412 10.67-4.27 1.086-8.6 1.598-13.035.788-6.256-1.157-10.558-4.782-13.456-10.26-2.857-5.386-4.229-11.192-3.922-17.244.451-8.991 3.666-17.091 8.725-24.505 6.77-9.902 15.985-16.537 27.24-20.418a88.818 88.818 0 0 1 22.374-4.618c5.13-.379 10.27-.737 15.411-.952 4.997-.215 9.994-.215 14.991-.358 1.597-.031 3.184-.226 5.058-.369zm-27.402 14.449c-.962.133-1.597.226-2.232.317-.697.102-1.393.215-2.089.297-7.486.952-14.643 2.98-21.309 6.574-4.004 2.161-7.577 4.854-10.178 8.643-4.3 6.256-6.042 13.169-4.793 20.685.583 3.533 1.782 6.851 5.058 8.919 3.226 2.027 6.707 2.242 10.322 1.413 8.714-1.976 14.46-7.465 17.101-15.76 2.621-8.243 4.485-16.722 6.656-25.098.502-1.905.942-3.84 1.465-5.99zm-324.639 94.228c1.23-6.553 2.457-13.046 3.687-19.6 4.116 1.127 8.1 2.335 12.144 3.287 6.308 1.495 12.667 2.509 19.221 1.884 9.431-.901 16.435-5.479 21.28-13.527 3.204-5.325 5.047-11.151 6.45-17.152.051-.205.01-.43.01-.942-.717.604-1.27 1.075-1.822 1.546-7.557 6.41-15.913 11.356-25.62 13.753-4.7 1.157-9.452 1.495-14.183.205-4.188-1.136-7.577-3.451-9.964-7.147-6.47-10.035-7.086-20.757-3.113-31.714 5.95-16.415 17.46-27.331 33.956-33.004 8.438-2.898 17.162-4.393 26.03-4.874 9.502-.522 19.015-.727 28.53-1.055.797-.031 1.596 0 2.446 0-1.024 3.799-2.202 7.363-2.908 11.018-1.864 9.595-3.574 19.221-5.222 28.857-2.324 13.599-4.537 27.218-9.8 40.1-6.728 16.435-19.149 26.143-36.168 30.157-14.848 3.502-29.594 2.222-44.216-1.557-.226-.051-.42-.133-.738-.236zm72.45-94.352c-1.629.174-2.858.276-4.087.451-7.803 1.054-15.329 3.011-22.293 6.809-11.059 6.031-16.517 16.609-14.98 29.02 1.013 8.151 6.727 12.462 14.744 10.987 8.92-1.639 15.125-6.871 17.828-15.36 3.318-10.414 5.837-21.074 8.786-31.908zm-223.029-.286c3.338-1.905 6.533-3.83 9.83-5.591 6.123-3.266 12.534-5.785 19.486-6.574 5.55-.625 11.08-.43 16.456 1.29 9.472 3.031 14.5 10.414 14.305 21.074-.185 9.482-3.41 18.073-8.048 26.194-3.779 6.625-8.336 12.656-14.654 17.081-6.8 4.751-14.51 7.322-22.63 8.663-9.584 1.577-19.18 1.341-28.774.072-.533-.072-1.075-.062-1.74-.092-.963 3.84-1.916 7.618-2.868 11.397-1.628 6.471-3.226 12.954-4.905 19.415-.123.471-.748 1.157-1.147 1.157-8.048.072-16.107.051-24.443.051.911-2.806 1.782-5.458 2.642-8.11 9.206-28.345 17.93-56.832 25.026-85.801 1.054-4.322 2.048-8.663 3.144-12.984.103-.42.686-1.034 1.055-1.034 6.471-.061 12.933-.041 19.671-.041-.839 4.813-1.618 9.267-2.406 13.834zm-10.517 49.889c4.925-.758 9.33-1.29 13.68-2.13 7.998-1.546 15.708-3.973 22.466-8.704 8.694-6.093 12.738-14.459 11.582-25.119-.676-6.256-4.27-10.414-10.096-11.417-2.314-.399-4.803-.461-7.117-.092-9.37 1.495-16.886 6.124-20.255 15.186-3.87 10.383-6.779 21.145-10.26 32.276zm724.696-64.543c8.336-.092 15.698 1.639 22.19 6.185 6.677 4.69 10.352 11.233 11.264 19.323 1.27 11.254-2.837 20.869-9.298 29.665-6.288 8.551-14.469 14.899-24.003 19.466-6.103 2.918-12.514 4.803-19.282 5.489-6.4.645-12.697.389-18.8-1.71-11.193-3.85-18.136-11.53-19.672-23.388-.809-6.257.297-12.411 2.765-18.309 3.553-8.499 9.032-15.483 15.985-21.453 6.513-5.591 13.845-9.687 21.944-12.421 5.611-1.894 11.408-2.96 16.906-2.846zm-18.73 65.363c.36 0 1.065.01 1.771-.01.266-.01.533-.113.788-.164 5.058-1.065 9.175-3.83 12.81-7.322 4.158-3.984 7.332-8.704 9.482-14.05 2.294-5.703 3.707-11.55 2.15-17.746-1.526-6.062-6.349-9.84-12.155-9.349-3.523.297-6.717 1.679-9.625 3.635-7.26 4.885-12.247 11.561-15.237 19.743-2.007 5.489-3.01 11.029-1.27 16.845 1.444 4.854 5.438 8.735 11.284 8.418zm-301.598-4.537c-.42 2.181-.819 4.332-1.26 6.482-.49 2.386-1.075 4.751-1.505 7.147-.256 1.433-1.034 1.884-2.407 2.058-5.264.656-10.496 1.515-15.76 2.14-7.076.85-14.162 1.086-21.279.491-5.56-.471-10.742-2.058-15.524-4.905-7.014-4.188-10.527-10.69-12-18.493-2.387-12.626 1.228-23.685 8.846-33.68 4.874-6.4 10.844-11.612 17.981-15.227 6.738-3.41 13.957-5.744 21.474-6.748 4.178-.563 8.458-.86 12.657-.635 6.79.358 13.138 2.304 18.135 7.301 3.113 3.113 4.537 7.097 5.376 11.295 1.157 5.775-.02 11.12-3.523 15.851-3.666 4.956-8.765 7.987-14.398 10.23-6.195 2.468-12.636 3.912-19.282 4.239-5.59.277-11.192.287-16.784.307-1.659.01-3.328-.399-4.997-.512-.409-.031-1.168.317-1.218.594-.625 3.072-.778 6.144.563 9.093 1.741 3.809 5.038 5.591 8.868 6.471 5.09 1.157 10.26 1.014 15.37.194 6.79-1.106 13.527-2.406 20.664-3.697zm-41.247-27.832c1.044-.307 1.721-.461 2.365-.707 3.707-1.362 7.537-1.966 11.49-1.884 2.806.051 5.642.256 8.418-.051 3.77-.42 7.158-1.802 8.162-6.042 1.362-5.755-2.314-9.072-7.332-8.806a23.516 23.516 0 0 0-11.633 3.779c-5.14 3.308-8.714 7.895-11.469 13.712zm-231.537 45.609c.41-5.069.83-10.117 1.26-15.442-2.375 1.884-4.434 3.645-6.605 5.232-6.882 5.008-14.315 8.868-22.733 10.537-4.69.932-9.4 1.024-13.988-.604-6.564-2.324-9.82-7.639-12.012-13.742-3.676-10.24-2.15-20.173 2.447-29.717 7.63-15.841 20.47-25.242 37.274-29.594 11.294-2.928 22.825-3.737 34.427-3.963 5.704-.102 11.418-.02 17.296-.02-8.878 24.873-15.074 50.514-16.138 77.322-7.158-.01-14.1-.01-21.228-.01zm10.671-63.683c-1.69.195-2.877.307-4.055.461-8.079 1.106-15.872 3.113-23.01 7.209-10.71 6.134-16.118 17.255-14.192 29.133 1.29 7.957 6.861 11.961 14.704 10.486 8.981-1.69 15.166-7.004 17.87-15.565 3.266-10.332 5.764-20.91 8.682-31.723zm464.814-14.243c-.9 2.877-1.71 5.509-2.539 8.13-5.56 17.398-10.384 35.001-13.927 52.931-.942 4.772-1.649 9.605-2.335 14.418-.164 1.106-.583 1.351-1.557 1.3-5.57-.338-11.14-.645-16.712-.983-.758-.051-1.557-.092-2.222-.389-.389-.174-.768-.87-.758-1.321.082-3.298.266-6.605.43-10.26-1.792 1.413-3.369 2.734-5.028 3.952-7.475 5.509-15.636 9.564-24.832 11.202-3.789.676-7.639.768-11.479-.154-7.096-1.7-11.14-6.236-12.36-13.282-.85-4.854-.399-9.718.441-14.562 1.986-11.417 5.581-22.384 9.288-33.31 1.843-5.447 3.758-10.864 5.601-16.312.317-.942.758-1.403 1.833-1.372 6.625.154 13.261.246 19.886.359.317.01.625.112 1.218.226-.9 3.358-1.7 6.656-2.683 9.902-3.399 11.315-6.89 22.6-10.27 33.925-.798 2.693-1.383 5.458-1.884 8.233-1.116 6.082 2.284 10.824 8.704 11.049 6.533.236 12.104-2.437 17.07-6.543 3.78-3.123 5.346-7.618 7.22-11.847 5.856-13.169 9.113-27.208 13.2-40.96 1.525-5.14.101-4.26 5.478-4.301 5.386-.041 10.783-.01 16.17-.01.603-.021 1.187-.021 2.047-.021zm-350.792 74.7c2.611-5.489 5.13-10.773 7.731-16.24 1.27.533 2.51 1.024 3.717 1.557 6.052 2.673 12.37 4.454 18.944 4.905 3.891.266 7.772-.491 10.742-3.625 3.338-3.523 3.072-8.141-1.147-10.639-5.182-3.062-10.649-5.622-15.903-8.561-2.11-1.178-4.076-2.662-5.96-4.188-3.399-2.744-4.24-6.646-4.066-10.701.226-4.997 2.028-9.554 5.284-13.374 2.908-3.41 6.431-6.144 10.302-8.407 7.394-4.342 15.37-6.441 23.962-6.82 6.984-.307 13.834.307 20.685 1.403.676.113 1.341.317 2.14.522-1.25 5.744-2.468 11.325-3.717 17.09-1.956-.482-3.789-.881-5.59-1.382a43.754 43.754 0 0 0-15.484-1.464c-4.526.369-8.304 2.406-9.328 6.942-.819 3.645 1.106 6.042 3.625 7.916 4.383 3.256 9.124 6.042 13.486 9.328 3.83 2.887 6.8 6.605 7.823 11.459 1.25 5.949-.369 11.264-3.922 16.077-3.645 4.935-8.96 7.219-14.55 8.95-8.51 2.642-17.317 3.144-26.103 2.55-7.158-.481-14.254-1.854-21.37-2.837-.36-.051-.698-.246-1.302-.461zm420.147-74.373c-.379 1.208-.645 2.13-.952 3.042-1.76 5.304-3.553 10.598-5.253 15.913-.399 1.239-1.004 1.731-2.324 1.659-4.096-.215-8.08.174-11.95 1.822-4.639 1.976-8.346 5.089-11.458 8.888-6.574 7.998-10.26 17.408-12.79 27.31-1.31 5.13-2.242 10.363-3.298 15.554-.226 1.116-.645 1.69-1.915 1.649-5.97-.164-11.95-.215-17.93-.368-2.365-.062-4.72-.317-7.29-.491.726-2.048 1.464-3.952 2.077-5.888 2.918-9.246 6.052-18.442 8.643-27.781 3.655-13.209 6.891-26.532 10.291-39.803.256-1.014.645-1.536 1.843-1.516 5.008.071 10.014.082 15.022 0 1.444-.021 1.771.584 1.68 1.843a730.153 730.153 0 0 0-.636 10.711c-.04.798-.01 1.607-.01 2.877 9.646-11.417 21.924-15.524 36.25-15.422zm8.038 148.132c-12.82-.113-23.48-7.577-26.696-19.303-4.639-16.917 5.12-31.836 20.91-34.898 12.011-2.335 24.402 2.816 30.003 13.025 9.001 16.394.573 37.786-20.009 40.776-1.393.194-2.806.276-4.208.399zm8.745-27.351c-.144-1.014-.226-2.048-.46-3.052-.933-3.993-4.107-6.605-8.1-6.759-3.882-.144-7.384 2.284-8.398 6.124-.44 1.649-.512 3.44-.44 5.15.245 5.642 5.365 9.339 10.833 7.957 4.055-1.014 6.471-4.546 6.564-9.421zm-44.574-26.071c.03.43.082.747.082 1.075-.01 10.394-.03 20.787-.05 31.191-.03 12.718-9.073 19.261-18.863 20.716-7.138 1.054-13.988.215-20.173-3.891-5.16-3.42-8.12-8.264-8.284-14.397-.287-11.418-.246-22.846-.338-34.274 0-.103.062-.205.144-.42h18.483v1.833c0 8.55-.03 17.091.03 25.641.01 1.946.215 3.912.583 5.817.481 2.478 2.038 3.625 4.475 3.687 2.478.062 4.188-1.116 4.741-3.594.38-1.68.543-3.441.553-5.171.051-8.765.02-17.531.02-26.286v-1.915c6.206-.01 12.318-.01 18.596-.01zm90.01 35.011h18.063v16.906h-36.629v-51.917h18.565v35.01zm-855.204-181.72c-.123.113-.236.226-.358.327-1.536-.758-3.082-1.505-4.618-2.263.061-.123.113-.256.174-.379 1.597.768 3.205 1.546 4.803 2.314z"/></svg>