<svg viewBox="0 0 1195 1195" xmlns="http://www.w3.org/2000/svg"><path d="M506.7 798.515c-3.84 11.582-7.927 25.866-9.77 34.018h-1.526c-1.894-8.11-5.98-22.815-9.769-34.018 0 0-24.259-73.319-24.637-74.404h-42.127c4.27 11.274 58.41 154.501 58.41 155.034 0 0-18.996 51.63-19.764 53.73h37.54c.368-1.045 76.462-206.592 77.261-208.753h-40.99c-1.853 5.591-24.627 74.394-24.627 74.394zM171.911 765.88h-47.78v-54.907h47.206c19.497 0 30.208 9.636 30.208 27.166-.01 18.146-10.24 27.74-29.635 27.74zm.871-93.604h-87.45v205.773h38.8v-73.462h45.19c26.971 0 72.181-8.755 72.181-67.338-.01-39.465-26.993-64.973-68.72-64.973zm177.858 161.373c-4.25 7.28-14.674 14.622-28.355 14.622-21.524 0-23.859-15.063-23.859-21.565 0-13.118 8.478-20.337 23.86-20.337 14.95 0 21.401 2.304 28.118 6.646l.358.226-.123 20.409zM328.35 720.855c-24.699 0-39.27 5.611-55.737 15.237.727 1.341 13.875 25.805 14.551 27.044 13.998-7.67 23.798-10.117 41.196-10.117 13.62 0 22.405 8.11 22.405 20.654v9.011l-1.127-.573c-8.028-4.147-17.459-6.144-28.785-6.144-37.397 0-60.63 19.456-60.63 50.739 0 37.714 28.016 54.599 55.725 54.599 12.933 0 25.753-5.12 33.485-13.384l1.341-1.423v11.541H389V774.574c-.01-33.116-23.245-53.719-60.65-53.719zm690.35 63.417l.092-.911c1.597-17.326 11.643-28.549 25.57-28.549 18.82 0 26.756 14.766 27.893 28.59l.072.87H1018.7zm90.634 16.978c0-47.33-25.886-80.394-62.966-80.394-38.635 0-66.663 33.802-66.663 80.394 0 48.63 27.638 80.057 70.441 80.057 20.828 0 41.513-9.564 53.043-24.32-1.229-1.065-26.112-22.466-27.095-23.286-6.062 6.759-15.452 10.701-25.948 10.701-14.469 0-30.433-7.895-31.928-30.075l-.062-.86h90.634c.051-1.29.543-12.216.543-12.216zM650.51 672.276h-38.799v205.773h140.001v-39.27H650.5V672.276zm235.458 32.379v19.456h-18.186v36.915h18.186v117.023h38.195V761.026h25.682v-36.915h-25.682v-13.834c0-9.779 4.055-13.24 15.504-13.24 4.926 0 8.91.963 13.056 2.908v-31.14c-6.697-2.785-14.838-4.25-24.31-4.25-28.969.01-42.445 12.759-42.445 40.1zm-76.38-40.089c-11.919 0-21.995 10.363-21.995 22.599 0 12.257 10.076 22.599 21.995 22.599 11.91 0 21.986-10.352 21.986-22.599.01-12.237-10.066-22.599-21.986-22.599zM790.48 878.049h38.236V724.111H790.48v153.938z"/></svg>