<svg viewBox="0 0 1195 1195" xmlns="http://www.w3.org/2000/svg"><path d="M365.244 817.326h-15.769v57.385H323.64V722.462h44.574c32 0 56.238 15.083 56.238 46.172 0 31.775-22.405 48.691-59.207 48.691zm.911-74.517h-16.69v54.18h15.994c23.091 0 32.921-9.369 32.921-27.658.01-16.466-9.134-26.522-32.226-26.522zm77.772 131.902h-25.825l58.061-152.249h24.914l59.207 152.249h-28.119l-11.889-32.686h-64.46l-11.89 32.686zm52.808-97.157c-4.567-12.81-8.683-26.286-8.683-26.286h-.46s-3.882 13.712-8.684 26.286c0 0-15.545 43.428-15.769 43.428h49.377l-15.78-43.428zm112.958 39.547v57.61h-25.825v-57.61l-50.75-94.638h28.805l35.881 70.636h.236l35.891-70.636h25.14zm124.886 57.876l-30.864-88.238c-3.43-10.281-6.86-21.484-6.86-21.484h-.462s-.912 11.889-2.048 22.17l-10.752 87.552h-23.552l20.808-152.248h24.914l33.822 98.294c4.342 12.114 8.458 26.972 8.458 26.972h.461s4.342-14.858 8.683-26.972l34.294-98.294h24.914l20.808 152.249h-26.297l-11.202-88.003c-1.372-10.517-2.519-21.719-2.519-21.719h-.45s-3.206 11.202-6.636 21.483l-30.403 88.238h-25.119zm126.24-152.248h25.826v152.248H860.82V722.729zm53.626 152.248V722.729h25.826v131.215h58.061v21.033zm110.992 0V722.729h25.836v131.215h58.061v21.033zM193.744 757.023a5.965 5.965 0 0 0-5.96-5.96h-30.36c-4.404 0-8.387 2.335-10.313 5.96L85.845 885.699a5.792 5.792 0 0 0-.512 2.386c0 3.287 2.672 5.949 5.96 5.949l30.361.01c5.212 0 9.564-4.454 11.264-8.028s60.324-126.607 60.324-126.607h-.01a5.83 5.83 0 0 0 .512-2.386zm72.704 17.869c0-.839-.174-1.628-.482-2.345v-.01l-28.304-61.102-.02-.01c-1.976-4.454-6.042-8.018-11.254-8.018h-30.372a5.959 5.959 0 0 0-5.96 5.959c0 .85.184 1.659.512 2.386l-.01.01 28.55 60.273s.737 1.843.737 2.867-.286 1.976-.738 2.816v.051l-28.549 60.283a5.839 5.839 0 0 0-.512 2.396 5.95 5.95 0 0 0 5.96 5.95l30.372.01c5.212 0 9.042-3.563 11.254-8.018l.02-.01 28.304-61.113a6.06 6.06 0 0 0 .492-2.375z"/></svg>