<svg viewBox="0 0 1195 1195" xmlns="http://www.w3.org/2000/svg"><path d="M297.137 872.028c-5.038-4.229-4.997-4.188-1.464-9.339 13.517-19.722 21.401-41.226 20.87-65.464-.287-5.888-.042-11.868-.943-17.664-4.26-27.402-16.569-50.678-37.417-68.997-28.877-25.385-62.484-34.745-100.26-27.32-26.552 5.223-48.62 18.739-65.894 39.465-21.668 26-29.89 56.433-25.59 89.662 3.768 29.092 17.572 53.34 40.13 72.428 20.183 17.07 43.591 26.071 69.817 27.31 23.582 1.127 45.466-5.069 65.577-17.51 6.318-3.911 6.37-3.819 11.93 1.26 6.88 6.288 13.823 12.503 20.612 18.883 2.51 2.365 4.547 2.765 7.004 0a1034.032 1034.032 0 0 1 16.927-18.616c2.437-2.622 2.427-4.423-.553-6.779-7.076-5.581-13.845-11.53-20.746-17.316zm-95.898 10.097c-44.964 2.078-86.722-36.547-86.63-85.904.092-46.838 39.2-85.831 86.19-85.945 47.206-.112 86.293 38.697 86.62 85.484.338 49.634-41.554 88.259-86.18 86.364zm906.138 21.309a93842.318 93842.318 0 0 0-74.352-93.368c-5.817-7.291-11.633-14.582-17.572-21.77-2.908-3.512-3.174-6.533.665-9.493 1.218-.942 2.212-2.191 3.298-3.298 26.992-27.546 53.986-55.101 80.978-82.647 1.086-1.106 2.386-2.099 3.184-3.389.727-1.167 1.26-2.703 1.157-4.014-.04-.512-2.058-1.229-3.174-1.239-11.51-.092-23.03-.236-34.529.103-2.11.061-4.557 1.813-6.154 3.461-27.515 28.334-54.938 56.76-82.34 85.217-5.817 6.042-11.428 12.298-17.203 18.381-4.188 4.413-8.51 8.704-13.916 14.213v-11.254-98.007c0-2.181-.082-4.362-.02-6.533.112-3.891-1.76-5.704-5.622-5.683-5.6.03-11.202-.031-16.804-.021-11.694.01-11.715.021-11.715 11.766-.01 66.898 0 133.785 0 200.683 0 1.863-.082 3.737.041 5.601.37 5.642.85 6.216 6.76 6.39 6.215.184 12.441.112 18.667.03 8.551-.112 8.643-.174 8.683-9.124.062-14.93.051-29.87-.01-44.8-.01-3.799.226-7.209 3.308-10.189 12.288-11.889 24.361-23.992 37.386-36.874 3.36 4.116 6.328 7.659 9.206 11.284 22.425 28.231 44.851 56.464 67.216 84.746 2.703 3.42 5.817 5.171 10.342 5.048 9.636-.256 19.292-.03 28.928-.133 1.67-.021 3.328-.697 5.54-1.198-.87-1.782-1.229-2.98-1.946-3.891zM540.163 684.226c-8.089-.102-16.179-.072-24.259.02-3.062.031-4.362 1.956-4.393 4.864a599.122 599.122 0 0 0-.05 7.465c0 31.426.163 62.853-.083 94.269-.103 13.025-.348 26.122-1.813 39.045-2.212 19.63-10.865 35.84-29.757 44.176-17.142 7.567-35.062 8.038-52.736 1.649-15.473-5.591-26.214-16.251-31.478-32.103-2.959-8.899-4.823-17.93-4.813-27.382.062-39.824 0-79.647-.02-119.47 0-2.488-.032-4.976-.042-7.465-.02-3.44-1.802-5.13-5.192-5.14-6.533-.03-13.066-.092-19.599-.041-9.216.082-9.329.154-9.349 9.441-.05 21.474-.02 42.937-.01 64.409 0 18.361.174 36.721-.062 55.071-.174 13.496 1.567 26.695 5.868 39.434 7.014 20.787 19.262 37.447 39.188 47.769 26.83 13.885 54.702 15.278 83.18 6.502 29.143-8.981 46.858-29.255 55.481-58.061 3.952-13.22 5.058-26.89 5.192-40.51.38-37.335.133-74.67.123-112.005 0-2.181.021-4.362-.123-6.533-.236-3.246-1.915-5.366-5.253-5.406zM860.45 852.664c-5.796-5.57-5.99-5.663-11.98.154-8.562 8.315-18.085 15.094-28.919 20.183-28.958 13.589-64.727 7.926-87.306-14.684-22.457-22.498-29.337-50.402-23.357-80.702 11.797-59.73 73.154-79.913 118.262-53.422 7.701 4.526 14.551 10.547 21.504 16.24 2.867 2.345 4.885 3.461 7.731.226 5.13-5.837 10.394-11.55 15.74-17.203 2.784-2.939 2.252-5.223-.452-7.906-10.035-9.943-21.145-18.432-34.099-24.084-20.572-8.981-41.943-12.288-64.512-9.789-27.556 3.041-50.75 14.51-69.529 34.314-21.258 22.405-30.935 49.808-31.539 84.081.41 3.645.84 10.793 2.048 17.797 5.703 33.3 21.986 59.914 51.097 77.67 24.238 14.787 50.544 19.354 78.787 15.216 28.13-4.116 50.698-17.602 69.888-37.827 2.5-2.642 2.365-4.721-.092-7.127-4.455-4.362-8.786-8.827-13.27-13.138zM628.165 689.767c.102-3.901-1.802-5.662-5.642-5.652-6.523.03-13.056-.113-19.579 0-7.7.143-8.499 1.003-8.807 8.55-.05 1.239-.01 2.489-.01 3.728V895.95c0 2.181.01 4.352.092 6.523.164 4.147 2.284 6.144 6.513 6.093 7.148-.092 14.295-.113 21.442.01 4.393.072 6.226-1.936 6-6.216-.112-2.171 0-4.352 0-6.523V796.99 696.28c.01-2.171-.072-4.342-.01-6.512z"/></svg>