<svg viewBox="0 0 1195 1195" xmlns="http://www.w3.org/2000/svg"><path d="M545.125 785.754v-22.047H460.4c-41.666 0-61.123 14.274-61.123 36.362 0 20.245 18.76 38.134 66.693 38.134 59.024 0 79.155-5.386 79.155-52.449zM363.897 638.031l-29.89 30.157c-27.813-16.702-56.28-28.027-94.485-28.027-45.138 0-60.416 15.493-60.416 36.362 0 13.107 11.111 26.214 46.52 28.621l58.347 3.553c36.004 2.058 61.307 12.391 77.752 28.119 19.2-16.394 47.76-26.818 85.494-26.818h97.915v-30.771c0-28.621-21.524-38.758-72.233-38.758-36.793 0-60.815 10.844-79.35 27.945l-29.655-30.382zm526.88 76.616h163.736c0-52.398-38.984-78.397-82.166-78.397-43.172-.01-81.572 25.529-81.572 78.397zM645.68 737.728c.645 49.408 1.433 57.191 14.285 71.035 10.014 10.823 31.724 23.481 61.061 23.481 28.601 0 47.186-12.657 57.231-23.481 12.871-13.845 14.316-22.262 14.316-71.035 0-49.346-1.444-57.805-14.316-71.618-10.045-10.834-28.63-23.49-57.23-23.49-29.338 0-51.048 12.656-61.062 23.49-12.85 13.824-14.96 21.872-14.285 71.618zm-44.584-108.8c2.263-2.918 4.803-5.847 7.598-8.99 15.954-17.285 47.247-36.935 93.051-36.935 36.137 0 64.625 11.909 91.003 35.758v-32.184h70.82v33.116c28.088-26.378 65.843-36.68 101.171-36.68 77.466 0 144.18 53.074 144.59 142.274.091 15.257-1.71 42.526-1.71 42.526l-216.936.092c0 49.285 33.618 67.891 82.094 67.891 26.962 0 61.215-12.329 81.981-30.71l47.524 34.519c-34.62 34.437-81.09 53.187-128.154 53.187-38.717 0-80.333-9.063-110.572-36.649V881.6c0 91.187-72.222 132.905-152.76 132.905-45.148 0-91.003-20.275-122.245-50.658l54.846-37.529c17.388 14.889 41.687 27.413 68.761 27.413 47.237 0 80.578-23.245 80.578-65.567v-30.986c-22.22 20.848-54.866 35.154-91.003 35.154-39.639 0-68.393-14.715-85.78-29.89v30.659h-70.84v-30.884h-1.363c-14.592 20.869-38.902 30.392-86.825 30.392-44.79 0-78.919-13.005-99.993-33.904-26.388 21.781-68.413 33.577-116.716 33.577-56.955 0-109.752-17.879-154.9-54.221l49.306-41.718c30.556 25.59 63.888 38.748 111.135 38.748 40.304 0 69.448-13.159 69.448-38.748 0-21.474-18.739-28.017-43.059-29.809l-62.505-4.762c-58.338-4.168-101.397-33.976-101.397-85.811 0-61.399 56.934-92.989 131.267-92.989 53.69 0 92.16 12.144 124.11 31.724 25.917-23.225 59.944-31.406 105.8-31.406 61.101-.021 108.778 12.37 131.675 45.639z"/></svg>