<svg viewBox="0 0 1195 1195" xmlns="http://www.w3.org/2000/svg"><path d="M312.835 748.062h-70.062c0-11.5-1.35-19.21-4.045-23.143-4.167-5.806-15.678-8.724-34.509-8.724-18.299 0-30.423 1.669-36.33 5.028-5.919 3.369-8.879 10.67-8.879 21.924 0 10.189 2.621 16.906 7.885 20.112 3.77 2.284 8.745 3.625 14.94 4.024l14.131 1.003c30.29 2.007 49.203 3.42 56.74 4.229 23.952 2.417 41.308 8.775 52.081 19.097 8.478 8.059 13.527 18.575 15.145 31.57.942 7.772 1.413 16.579 1.413 26.348 0 22.528-2.15 39.024-6.45 49.48-7.804 19.19-25.335 31.303-52.594 36.393-11.428 2.15-28.898 3.226-52.409 3.226-39.239 0-66.58-2.335-82.022-7.024-18.944-5.745-31.447-17.398-37.489-34.939-3.379-9.769-5.048-26.04-5.048-48.804h70.062c0 2.539.01 4.485.01 5.827 0 12.155 3.492 19.958 10.466 23.439 4.834 2.396 10.66 3.656 17.511 3.81h25.764c13.148 0 21.534-.676 25.15-2.028 6.441-2.529 10.67-6.605 12.688-12.247 1.075-3.481 1.607-7.966 1.607-13.466 0-12.318-4.495-19.815-13.476-22.508-3.369-1.054-18.985-2.55-46.868-4.413-22.395-1.597-37.95-3.134-46.663-4.628-22.938-4.291-38.226-13.118-45.855-26.512-6.707-11.376-10.056-28.601-10.056-51.641 0-17.541 1.813-31.611 5.438-42.189 3.625-10.588 9.462-18.617 17.531-24.115 11.806-8.438 26.931-13.394 45.322-14.869 15.31-1.341 32.286-2.017 50.975-2.017 29.41 0 50.361 1.69 62.853 5.038 30.494 8.192 45.732 31.14 45.732 68.844 0 3.072-.226 7.7-.686 13.875zm308.112 190.577V658.801h140.318c19.251 0 33.925 1.566 44.022 4.71 23.081 7.229 38.564 22.036 46.49 44.411 4.086 11.745 6.144 29.43 6.144 53.033 0 28.385-2.274 48.784-6.769 61.204-9 24.556-27.525 38.707-55.49 42.373-3.287.553-17.285 1.034-41.994 1.444l-12.493.409h-44.903v72.254h-75.326zm75.314-137.164h46.951c14.89-.533 23.941-1.68 27.197-3.472 4.455-2.447 7.444-7.352 8.93-14.695.951-4.894 1.422-12.165 1.422-21.822 0-11.837-.942-20.613-2.846-26.337-2.703-8.028-9.196-12.913-19.466-14.695-2.038-.266-6.902-.41-14.612-.41h-47.575v81.428zm322.418 88.801h-100.7l-13.527 48.364h-77.916l84.081-279.829h113.602l85.115 279.829h-76.278l-14.377-48.364zm-14.95-54.518L968.44 714.455 934.2 835.758h69.53zM517 698.173c31.058 0 58.788 14.305 77.005 36.721l16.23-34.806c-25.385-23.992-59.945-38.789-98.058-38.789-59.34 0-110.11 35.84-130.939 86.579h-31.662l-18.698 40.069h40.725c-.307 3.717-.502 7.434-.502 11.233 0 4.587.236 9.134.697 13.619h-20.47l-18.688 40.089h49.562c21.422 49.449 71.557 84.163 129.966 84.163 29.44 0 56.75-8.817 79.37-23.89V864.04c-18.217 20.736-44.85 33.843-74.558 33.843-34.714 0-65.25-17.899-83.036-44.995h103.782l18.698-40.089H418.696a100.36 100.36 0 0 1-1.096-14.777c0-3.399.174-6.758.502-10.076h149.913l18.688-40.069H431.055c17.224-29.716 49.255-49.705 85.945-49.705z"/></svg>