<svg viewBox="0 0 1195 1195" xmlns="http://www.w3.org/2000/svg"><path d="M346.054 697.436c20.818-24.791 52.02-40.54 86.917-40.54h77.855v56.74h-77.855c-17.459 0-33.055 7.875-43.459 20.255L250.105 900.014c-20.818 24.771-52.019 40.54-86.917 40.54H85.333v-56.74h77.855c17.44 0 33.034-7.875 43.448-20.275l139.417-166.103zm221.491-40.55h59.566v283.668h-59.566V656.886zm281.077 40.55l47.975 57.17 47.975-57.17c20.798-24.791 52.02-40.54 86.917-40.54h77.844v56.74H1031.5c-17.459 0-33.054 7.875-43.458 20.255l-54.415 64.829 54.405 64.829c10.404 12.39 26 20.275 43.458 20.275h77.845v56.74H1031.5c-34.898 0-66.12-15.769-86.917-40.54l-47.975-57.17-47.975 57.17c-20.818 24.77-52.039 40.54-86.917 40.54h-77.855v-56.75h77.855c17.438 0 33.034-7.875 43.448-20.275l54.395-64.819-54.405-64.83c-10.404-12.38-26-20.255-43.448-20.255h-77.845v-56.74h77.855c34.878-.01 66.1 15.749 86.907 40.54z"/></svg>