<svg viewBox="0 0 1195 1195" xmlns="http://www.w3.org/2000/svg"><path d="M349.863 775.885c0 26.583-10.936 49.777-32.707 69.693-21.822 19.907-53.606 29.87-95.293 29.87-43.643 0-79.647-3.779-108.094-11.376v-73.954c26.542 11.377 56.894 17.07 91.023 17.07s51.2-9.472 51.2-28.447c0-15.166-11.376-22.754-34.13-22.754-75.858-5.703-113.776-37.929-113.776-96.727 0-26.542 9.953-49.777 29.87-69.694s50.72-29.87 92.447-29.87c37.918 0 73.954 5.694 108.094 17.07v71.106l-22.763-8.519c-26.583-7.557-50.258-11.376-71.107-11.376-32.266 0-48.353 8.53-48.353 25.6 0 15.207 11.376 22.753 34.13 22.753 79.637 5.694 119.46 38.882 119.46 99.554zM224.71 972.155v54.047h-25.6v-48.354c0-5.693-1.904-8.53-5.694-8.53-1.904 0-6.666 1.904-14.224 5.694v51.2h-22.754v-48.353c0-5.693-2.847-8.53-8.53-8.53-3.83 0-7.598 1.904-11.377 5.693v51.2h-22.753v-76.8h19.906l2.846 11.356c5.694-9.472 13.241-14.224 22.753-14.224 9.472 0 16.087 4.752 19.906 14.224 5.694-9.472 13.24-14.224 22.754-14.224 15.166 0 22.763 8.53 22.763 25.6zm48.354-25.6c-24.658 0-36.977 14.224-36.977 42.67 0 26.583 12.32 39.823 36.976 39.823 24.617 0 36.976-14.223 36.976-42.67 0-26.542-12.359-39.824-36.976-39.824zm0 62.576c-9.513 0-14.224-7.547-14.224-22.753 0-13.24 4.71-19.907 14.224-19.907 9.472 0 14.224 7.598 14.224 22.754 0 13.281-4.75 19.906-14.224 19.906zm116.623-36.976v54.047h-22.753v-48.354c0-5.693-2.846-8.53-8.53-8.53-3.83 0-7.598 1.904-11.377 5.694v51.2h-25.6v-76.8h22.754v11.376c9.472-9.472 18.002-14.223 25.6-14.223 13.24-.01 19.906 8.519 19.906 25.59zm65.423-99.554h-82.493V576.778l82.493-17.07v164.976c30.31-37.918 45.507-64.44 45.507-79.646h96.717c-13.28 39.823-33.198 76.8-59.73 110.93 30.31 51.2 48.353 90.082 54.046 116.624h-99.553c-7.598-35.994-19.906-66.365-36.976-91.024v91.034zm17.07 113.777c0-26.542-11.377-39.824-34.13-39.824s-34.13 14.224-34.13 42.67c0 26.583 12.318 39.823 36.976 39.823 9.472 0 19.906-3.779 31.293-11.376l-2.857-14.224c-11.377 3.83-18.974 5.694-22.753 5.694-13.28 0-19.906-4.711-19.906-14.224h45.507v-8.54zm-45.516-5.693c0-11.376 3.78-17.07 11.377-17.07 7.557 0 11.377 5.693 11.377 17.07h-22.753zm105.247-31.283h22.753l-28.447 79.646c-5.694 17.07-16.128 25.6-31.293 25.6h-8.53l-5.694-19.906h11.377c5.694 0 9.472-1.864 11.377-5.693l2.846-2.846-28.447-73.954 25.6-2.846 14.224 48.354 14.233-48.354zm76.8-2.847c-9.514 0-16.129 3.83-19.907 11.377v-45.507l-25.6 2.846v105.247c5.694 3.83 17.07 5.693 34.13 5.693 24.617 0 36.977-13.24 36.977-39.824 0-26.553-8.53-39.833-25.6-39.833zm-11.377 62.576h-5.693l-2.846-2.846v-31.293c3.78-3.779 7.547-5.693 11.376-5.693 7.547 0 11.376 5.693 11.376 17.07.01 15.216-4.74 22.764-14.213 22.764zm93.87-136.53H608.71v-128c0-66.365 37.918-100.495 113.777-102.4 9.472-1.863 16.087-1.863 19.907 0v68.27c-20.889 0-34.62 4.27-41.246 12.8-6.666 8.53-9.953 23.234-9.953 44.093v105.237zm-8.54 73.954c-24.658 0-36.976 14.224-36.976 42.67 0 26.583 12.318 39.823 36.976 39.823 24.617 0 36.976-14.223 36.976-42.67 0-26.542-12.36-39.824-36.976-39.824zm0 62.576c-9.513 0-14.223-7.547-14.223-22.753 0-13.24 4.711-19.907 14.223-19.907 9.472 0 14.223 7.598 14.223 22.754 0 13.281-4.75 19.906-14.223 19.906zm82.493-62.576c-24.658 0-36.976 14.224-36.976 42.67 0 26.583 12.318 39.823 36.976 39.823 24.617 0 36.976-14.223 36.976-42.67 0-26.542-12.36-39.824-36.976-39.824zm0 62.576c-9.513 0-14.223-7.547-14.223-22.753 0-13.24 4.711-19.907 14.223-19.907 9.472 0 14.223 7.598 14.223 22.754 0 13.281-4.75 19.906-14.223 19.906zm42.671-386.846c-26.583 0-39.823-13.24-39.823-39.823 0-26.542 13.24-39.824 39.823-39.824 26.542 0 39.823 13.281 39.823 39.824-.01 26.583-13.292 39.823-39.823 39.823zm39.813 250.316h-79.646V645.048h79.647v227.553zm11.386 110.931l25.6 39.823-25.6 2.846-22.754-36.976v36.976h-22.754v-110.94l22.754-2.846v68.27l22.754-31.293h25.6l-25.6 34.14zm25.6-406.754l79.647-17.07v312.894h-79.647V576.779zm71.107 409.6c0-26.542-11.376-39.824-34.13-39.824s-34.13 14.224-34.13 42.67c0 26.583 12.318 39.823 36.976 39.823 9.472 0 19.907-3.779 31.293-11.376l-2.846-14.224c-11.376 3.83-18.975 5.694-22.754 5.694-13.282 0-19.907-4.711-19.907-14.224h45.496v-8.54zm-45.506-5.693c0-11.376 3.78-17.07 11.376-17.07 7.557 0 11.376 5.693 11.376 17.07h-22.754zm105.236-34.13l2.846 25.6c-9.513 0-18.053 3.83-25.6 11.377v42.67h-22.754v-76.8h19.907l2.846 14.223c5.693-9.472 13.24-15.165 22.754-17.07zm68.27-73.954h-82.494V576.778l82.494-17.07v312.894zm2.846 130.847c0 15.207-10.434 22.754-31.293 22.754-9.513 0-19.907-1.864-31.293-5.693l2.846-19.907c11.376 7.598 20.848 11.377 28.447 11.377 7.557 0 11.376-1.864 11.376-5.693 0-3.779-4.75-6.625-14.223-8.53-17.07-5.693-25.6-14.224-25.6-25.6 0-15.166 9.472-22.754 28.447-22.754 13.24 0 22.754 1.904 28.447 5.694l-2.846 17.07c-7.598-5.693-16.128-8.53-25.6-8.53-5.693 0-8.53 1.904-8.53 5.694 0 3.83 4.711 6.666 14.223 8.53 17.06 5.673 25.6 14.203 25.6 25.59z"/></svg>