<svg viewBox="0 0 1195 1195" xmlns="http://www.w3.org/2000/svg"><path d="M402.496 982.221c0 10.578-4.526 19.64-13.589 27.187-7.577 7.577-17.377 11.325-29.45 11.325-13.589 0-23.44-4.526-29.45-13.588-7.577-7.547-11.326-15.862-11.326-24.924h11.326c0 7.577 2.263 13.588 6.8 18.125 9.062 6.052 16.608 9.063 22.65 9.063 19.61 0 29.45-9.063 29.45-27.187 0-12.073-11.325-20.388-33.986-24.924-7.577-1.485-15.862-5.274-24.924-11.326-4.526-4.526-6.799-11.325-6.799-20.388 0-22.651 12.073-33.986 36.25-33.986 10.547 0 18.873 3.051 24.924 9.063 7.547 6.052 11.325 13.588 11.325 22.651h-11.325c0-13.588-8.315-20.388-24.924-20.388-16.64 0-24.924 7.577-24.924 22.651 0 9.063 7.547 15.862 22.651 20.388 30.218 6.062 45.322 18.135 45.322 36.26zm95.15-38.513c-6.052-10.547-17.377-15.862-33.986-15.862-31.714 0-47.575 15.114-47.575 45.312 0 13.588 4.526 24.924 13.59 33.986s20.387 13.588 33.985 13.588c15.074 0 26.41-6.011 33.986-18.125v52.111h11.325V930.117h-11.325v13.589zm2.274 29.451c0 24.176-12.114 36.25-36.25 36.25-24.176 0-36.25-12.073-36.25-36.25 0-24.135 12.073-36.25 36.25-36.25 24.135.01 36.25 12.114 36.25 36.25zm249.201-378.327c0-15.074-4.915-27.536-14.725-37.376-9.84-9.82-21.524-14.736-35.113-14.736H495.384c-13.589 0-25.303 4.915-35.113 14.725-9.84 9.841-14.725 22.303-14.725 37.376V798.72c0 13.588 4.885 25.303 14.725 35.113 9.81 9.841 21.524 14.725 35.113 14.725h203.9c13.587 0 25.272-4.885 35.112-14.725 9.81-9.81 14.725-21.524 14.725-35.113V594.832zm-54.375 181.237c0 12.114-5.314 18.125-15.862 18.125H515.771c-10.578 0-15.862-6.011-15.862-18.125v-160.85c0-10.547 5.274-15.862 15.862-15.862h163.113c10.547 0 15.862 5.315 15.862 15.862v160.85zm-97.413 151.787h11.326v90.624h-11.326v-13.589c-4.526 10.578-13.589 15.862-27.187 15.862-15.114 0-25.702-4.526-31.714-13.589-4.526-6.011-6.8-15.862-6.8-29.45v-49.838h11.325v49.838c0 21.166 9.063 31.713 27.187 31.713 7.547 0 13.59-2.263 18.125-6.799 6.011-6.032 9.063-15.094 9.063-27.197v-47.575zm40.775-265.062v65.7c0 6.052-3.052 9.063-9.063 9.063h-63.437c-6.052 0-9.063-3.011-9.063-9.063v-65.7c0-6.011 3.01-9.063 9.063-9.063h63.437c6.021 0 9.063 3.042 9.063 9.063zm70.237 280.914c-9.063-10.547-21.166-15.862-36.25-15.862-13.588 0-24.924 4.178-33.986 12.462-9.063 8.315-13.588 19.261-13.588 32.85s4.885 24.924 14.725 33.986c9.81 9.063 20.736 13.588 32.85 13.588 15.073 0 27.187-6.011 36.25-18.125v15.862h11.326v-88.351h-11.326v13.588zm0 29.451c0 24.176-12.114 36.25-36.25 36.25-24.177 0-36.25-12.073-36.25-36.25 0-24.135 12.073-36.25 36.25-36.25 24.135.01 36.25 12.114 36.25 36.25zm70.226-45.303v11.326c-16.64 0-24.924 9.063-24.924 27.187v52.101h-11.326v-88.351h11.326v11.325c3.021-9.063 11.336-13.588 24.924-13.588zm49.838 0c-12.114 0-22.65 4.526-31.713 13.589s-13.588 19.64-13.588 31.713c0 13.589 4.526 24.924 13.588 33.986s20.388 13.589 33.986 13.589c21.135 0 35.461-10.547 43.05-31.714h-11.327c-7.577 13.589-18.903 20.388-33.986 20.388-19.64 0-30.966-10.547-33.986-31.714h81.562v-2.263c0-13.589-4.526-24.924-13.588-33.986-9.072-9.063-20.398-13.589-33.997-13.589zm-33.976 40.777c3.01-21.135 15.073-31.714 36.25-31.714 19.61 0 30.935 10.578 33.986 31.714h-70.236z"/></svg>