<svg viewBox="0 0 1195 1195" xmlns="http://www.w3.org/2000/svg"><path d="M199.161 777.216c-21.995-7.998-33.997-14.5-33.997-24.494 0-8.499 6.994-12.994 19.005-12.994 23 0 45.998 8.499 61.993 16.497l9.001-56.003c-12.503-6-38.502-16.005-74.496-16.005-25.498 0-46.5 6.503-61.51 19.006-15.996 12.994-23.993 32-23.993 54.498 0 41.001 25.006 59.003 66.007 73.503 26 9.502 35.001 16.005 35.001 26.501 0 10.005-8.499 15.503-24.002 15.503-19.005 0-50.504-9.502-70.994-21.494l-9 56.494c17.5 9.994 50.001 20.5 83.998 20.5 27.003 0 49.01-6.503 64.502-18.504 17.008-13.496 25.498-32.993 25.498-58.501-.01-42.005-25.518-59.504-67.01-74.506zm224-88.494h-48.005V621.22l-64.502 10.496-9 57.006-23 3.994-8.499 51.497h30.996V853.71c0 28.498 7.506 48.005 22.006 60.006 12.503 9.994 30.505 15.002 55.501 15.002 19.497 0 30.997-3.502 39.495-5.499v-59.003c-4.505 1.004-15.002 3.513-22.006 3.513-14.5 0-21.002-8.008-21.002-25.006v-98.499h38.502l9.513-55.501zm148.501-1.506c-5.007-.994-9.502-1.495-14.009-1.495-20.992 0-37.99 10.998-44.493 30.996l-5.007-27.996h-65.495v235.5h74.998V771.215c9.502-11.5 23-15.493 41.001-15.493 3.993 0 7.998 0 12.995.994v-69.499zm55.992-100.997c-22.006 0-39.495 17.5-39.495 39.496s17.5 39.997 39.495 39.997 39.506-17.991 39.506-39.997-17.5-39.496-39.506-39.496zm37.51 338.002v-235.5h-74.999v235.5h74.998zm213.492-214.005c-13.496-17.5-32-26-55.5-26-21.495 0-40.5 9.001-58.502 28.006l-3.994-23.501h-66.007v322.488l75.008-12.493v-75.5c11.5 3.502 23.501 5.499 33.997 5.499 18.504 0 46.01-5.008 67-28.007 20.5-22.006 30.505-56.002 30.505-101.007 0-39.977-7.506-70.482-22.508-89.488zm-62.494 145.009c-6 10.998-15.504 17.5-26 17.5-7.495 0-14.5-1.495-20.5-4.495V756.225c12.995-13.497 24.494-15.002 28.498-15.002 19.005 0 28.498 21.002 28.498 60.999.01 22.999-3.502 40.499-10.496 53.002zm275.998-139.009c-16.507-20.992-41-32-72.008-32-64 0-103.495 47.001-103.495 123.003 0 41.994 10.496 73.994 31.488 93.993 18.504 18.504 45.506 27.505 80.507 27.505 32 0 61.501-7.506 80.005-20.009l-8.008-51.497c-18.504 9.994-39.997 15.503-64 15.503-14.5 0-24.505-3-31.498-9.502-7.997-6.503-12.503-17.5-13.998-32.994h124.006c.502-3.502.994-20.5.994-26 .01-37.499-7.997-67-23.992-88.002zM990.661 784.22c1.997-33.495 10.998-48.999 28.006-48.999 17 0 26 16.005 26.992 48.999H990.66z"/></svg>