<svg viewBox="0 0 1195 1195" xmlns="http://www.w3.org/2000/svg"><path d="M264.43 720.681v155.914c0 8.428-4.219 12.646-12.647 12.646H97.978c-8.428 0-12.646-4.208-12.646-12.636V720.68c0-8.428 4.22-12.647 12.646-12.647h153.815c8.417.01 12.636 4.219 12.636 12.647zm-18.964 77.968v-8.428c-1.413-15.442-9.144-28.774-23.173-40.028-11.254-12.646-25.999-18.964-44.247-18.964-4.219-1.383-11.95-.697-23.173 2.109-18.268 5.622-33.014 17.582-44.247 35.82-4.219 11.264-6.318 21.074-6.318 29.501h10.537v-6.318c4.22-18.238 14.745-32.983 31.601-44.247 8.427-4.219 17.552-6.318 27.392-6.318 7.014 0 11.93.727 14.745 2.109 12.647 2.837 22.457 7.731 29.501 14.745 4.22 5.622 9.124 14.05 14.745 25.283 0 1.413.338 3.891 1.054 7.373.696 3.523 1.054 5.99 1.054 7.373h10.526zm-25.282-2.11v-2.109c0-5.591-1.413-11.233-4.219-16.855-5.622-9.81-13.363-16.855-23.173-21.074-5.622-2.806-13.363-4.219-23.173-4.219-12.647 1.413-23.89 8.428-33.71 21.074-7.035 11.264-9.145 21.801-6.318 31.601 4.22 18.268 14.03 30.228 29.502 35.819 18.248 7.045 33.71 4.219 46.356-8.428v-2.11l-6.318-6.318h-2.109c-2.826 2.837-5.622 4.219-8.427 4.219-12.647 7.045-24.586 4.946-35.819-6.318-7.035-5.591-10.537-14.019-10.537-25.283 1.392-8.428 5.602-16.128 12.646-23.173 4.22-4.219 9.124-6.318 14.745-6.318 14.03-2.806 25.282 2.109 33.71 14.745 2.806 5.622 4.22 10.537 4.22 14.745h12.625zm-46.357-16.855c-11.254 0-16.855 5.622-16.855 16.855h37.93c-2.827-11.233-9.842-16.855-21.075-16.855zm235.981-61.102H291.822c-4.219 0-6.318 2.11-6.318 6.318v23.173c0 2.837 2.11 4.219 6.318 4.219h35.82c4.22 0 6.318 2.109 6.318 6.318v111.667c0 4.219 2.11 6.318 6.318 6.318h23.173c4.22 0 6.318-2.11 6.318-6.318V758.61c0-4.219 1.392-6.318 4.22-6.318h37.928c2.806 0 4.22-1.383 4.22-4.219V724.9c0-4.219-2.11-6.318-6.33-6.318zm141.17 129.577c7.013 10.537 11.93 18.637 14.744 24.228 1.392 0 2.11 1.413 2.11 4.219h-35.82c-2.826 0-4.925-1.383-6.318-4.219-4.219-4.219-9.84-11.591-16.855-22.118-7.035-10.537-11.254-17.183-12.647-20.019-1.413-1.383-3.522-2.11-6.318-2.11H473.02c-2.826 0-4.219 1.413-4.219 4.219v40.028c0 2.837-2.11 4.219-6.318 4.219H439.31c-4.219 0-6.318-2.11-6.318-6.318V724.9c0-4.219 2.11-6.318 6.318-6.318h61.102c16.855 0 30.884 3.523 42.137 10.537 14.03 9.84 21.074 22.477 21.074 37.929 0 15.472-2.11 26.696-6.318 33.71-7.035 8.428-14.05 14.745-21.074 18.964-4.219 0-4.925 1.413-2.11 4.219 4.22 5.611 9.82 13.68 16.855 24.217zm-23.174-74.803c0-11.233-6.318-18.238-18.964-21.074 0-1.382-6.318-1.382-18.964 0h-18.964c-1.413 0-2.11 1.413-2.11 4.219v35.82c0 2.837 1.392 4.219 4.22 4.219 4.218-1.382 10.177-2.109 17.91-2.109h17.91c12.646-2.806 18.963-9.81 18.963-21.074zm191.733-54.774h-25.283c-4.219 0-6.318 2.11-6.318 6.318v94.812c-2.826 12.647-9.144 21.074-18.965 25.283-15.462 4.219-28.109 1.413-37.929-8.428-5.622-5.591-8.428-14.745-8.428-27.392V724.9c0-4.219-2.11-6.318-6.318-6.318h-23.173c-4.219 0-6.318 2.109-6.318 6.318v86.385c0 7.045.697 11.95 2.11 14.745 4.22 23.9 16.138 40.028 35.82 48.466 14.028 5.622 28.783 7.045 44.246 4.219 14.03-2.806 24.566-7.014 31.601-12.646 15.442-11.234 23.173-28.089 23.173-50.565v-28.446-33.71-28.446c0-4.219-1.413-6.318-4.219-6.318zM845.96 792.32c-15.462-5.591-25.283-9.124-29.5-10.537-11.255-2.806-19.683-5.591-25.284-8.428-4.219-2.806-6.318-6.318-6.318-10.537 0-5.591 2.806-9.81 8.428-12.647 7.014-2.806 12.646-2.806 16.855 0 9.82 1.413 20.357 5.622 31.601 12.647 2.806 2.837 4.22 2.11 4.22-2.11 1.392-2.806 3.86-6.318 7.372-10.537 3.502-4.219 5.96-7.014 7.373-8.428 1.393-2.806.697-5.591-2.11-8.428-21.074-14.018-42.855-18.964-65.32-14.745-28.11 2.837-42.856 16.855-44.248 42.137-2.826 16.855 2.11 29.502 14.745 37.929 11.234 7.045 21.074 11.264 29.501 12.647 2.806 1.413 7.711 3.164 14.745 5.264 7.014 2.11 11.93 3.891 14.745 5.264 5.601 1.413 8.428 5.622 8.428 12.646 0 4.219-2.826 7.731-8.428 10.537-5.622 1.413-12.646 2.11-21.074 2.11-14.049-2.806-25.283-8.428-33.71-16.855-4.219-1.383-7.035-.697-8.428 2.11-2.826 4.219-7.73 9.841-14.745 16.855-1.413 4.219-.717 7.045 2.11 8.428 15.442 14.049 36.516 21.074 63.212 21.074h6.318c9.82 0 18.965-2.11 27.392-6.318 15.442-7.014 23.173-21.074 23.173-42.137.01-16.865-7.024-29.512-21.053-37.939zm155.915-44.247V724.9c0-4.219-2.11-6.318-6.318-6.318H877.571c-4.219 0-6.318 2.11-6.318 6.318v21.074c0 4.219 2.11 6.318 6.318 6.318h35.82c4.218 0 6.317 2.11 6.317 6.318v113.777c0 2.837 2.11 4.219 6.318 4.219H947.1c5.601 0 8.428-2.11 8.428-6.318V758.61c0-4.219 2.11-6.318 6.318-6.318h35.82c2.794 0 4.207-1.382 4.207-4.219zm105.348 46.356c1.393 7.045 2.11 16.855 2.11 29.502 0 4.219-2.11 6.318-6.318 6.318h-35.819c-15.462 0-27.392-.697-35.819-2.11-2.826 0-4.219 2.11-4.219 6.318 7.014 14.049 18.247 19.692 33.71 16.855 9.82-2.806 16.138-6.318 18.965-10.537 1.393-2.806 3.502-2.806 6.318 0 1.393 1.413 3.861 3.523 7.373 6.318 3.502 2.837 5.96 4.946 7.373 6.318 1.393 2.837 1.393 4.946 0 6.318-11.254 11.264-23.173 17.582-35.819 18.965-15.462 2.837-30.218 0-44.247-8.428-16.855-8.428-26.696-23.173-29.5-44.247-2.827-16.855.696-32.297 10.536-46.356 14.03-19.661 33.71-28.088 58.992-25.282 22.477 4.229 37.94 17.602 46.366 40.048zm-31.6 10.537c-2.826-12.646-9.144-19.661-18.965-21.074-16.855-5.591-26.696 1.413-29.5 21.074-1.414 1.413-.718 2.11 2.11 2.11h42.147c2.795 0 4.208-.697 4.208-2.11z"/></svg>