<svg viewBox="0 0 1195 1195" xmlns="http://www.w3.org/2000/svg"><path d="M251.323 586.087c-6.686 12.728-13.036 24.852-19.425 36.956-24.279 46.019-48.589 92.016-72.786 138.076-1.424 2.703-2.908 3.758-6.02 3.666-8.879-.246-17.777-.184-26.655-.02-2.334.041-3.175-.768-3.645-2.908-6.47-29.46-13.005-58.91-19.527-88.361-5.867-26.521-11.684-53.053-17.684-79.544-.645-2.837-.123-3.758 2.693-4.188a1326.156 1326.156 0 0 0 31.027-5.12c2.242-.399 2.94.123 3.37 2.355 8.283 43.192 16.66 86.375 25.016 129.556.174.901.45 1.782.697 2.755 1.177-.594 1.341-1.802 1.802-2.734 21.31-42.486 42.61-84.982 63.795-127.529 1.157-2.314 2.427-3.042 4.966-3.011 10.608.144 21.218.051 32.38.051zM781.991 727.45c2.98 7.178 8.643 10.957 16.313 11.141 10.312.246 18.166-4.936 25.61-11.223 3.891-3.287 7.024-6.84 6.82-12.4-.062-1.802.563-3.625.85-5.447 1.966-12.851 3.922-25.712 5.898-38.574.236-1.516.471-2.755-1.444-3.625-8.069-3.676-16.528-5.233-25.252-4.045-11.397 1.556-18.718 8.848-23.726 18.647-4.956 9.687-6.984 20.163-7.404 30.423.01 5.519.4 10.434 2.335 15.104zm45.64 19.425c-7.629 7.598-15.524 13.814-25.303 16.845-14.848 4.598-29.215 4.311-41.636-6.523-8.1-7.066-11.56-16.712-12.318-27.024-1.77-24.105 2.53-46.991 16.988-66.908 14.162-19.507 33.792-27.3 57.651-24.791 5.632.594 11.192 1.536 16.538 3.389 2.181.758 2.49-.082 2.765-1.946 2.734-18.217 5.561-36.423 8.325-54.64.246-1.639.615-2.632 2.591-2.918 9.35-1.351 18.668-2.887 27.986-4.403 2.058-.338 1.567.819 1.393 1.997-2.263 14.684-4.505 29.378-6.759 44.063-4.034 26.296-8.069 52.603-12.114 78.899-3.01 19.579-6.042 39.147-9.01 58.737-.237 1.556-.82 2.191-2.418 2.181-7.495-.051-15-.071-22.497.021-1.997.03-2.242-.891-2.222-2.53.082-4.598.041-9.185.041-14.449zm-572.028-58.86c15.544.062 31.1.103 46.643.195 1.607.01 1.853-.717 1.884-2.089.092-4.045-.082-8.079-.973-12.022-1.69-7.434-5.406-13.24-13.322-15.166-6.86-1.659-13.312-.389-19.056 3.676-8.725 6.185-12.903 15.237-15.688 25.119.307.184.41.286.512.286zm35.534 19.702c-12.237 0-24.474.072-36.71-.061-2.406-.031-3.226.707-3.256 3.021-.113 8.56.492 16.916 6.686 23.644 6.656 7.229 15.401 8.212 24.494 7.854 14.244-.563 26.798-6.103 38.78-13.291.931-.563 1.873-1.905 2.98-1.28 1.094.614.45 2.119.46 3.215.061 6 0 12.002.051 18.002.01 1.495-.286 2.58-1.71 3.43-21.074 12.462-43.653 17.378-67.737 12.247-20.828-4.434-33.024-18.852-34.632-41.093-1.587-22.026 3.102-42.844 16.752-60.662 15.984-20.88 37.335-29.399 63.375-24.668 17.244 3.133 28.642 15.463 31.867 33.075 2.1 11.428 1.3 22.713-.788 34.028-.41 2.243-1.556 2.601-3.554 2.591-12.35-.092-24.709-.051-37.059-.051zm415.385-19.466c2.345.051 2.878-.747 2.837-2.928-.05-3.349-.256-6.677-.788-9.974-1.423-8.796-6.359-14.745-13.7-16.425-6.626-1.515-12.852-.409-18.463 3.399-8.56 5.806-12.82 14.5-15.81 24.023-.748 2.365.88 1.833 2.006 1.843 7.373.031 14.756.021 22.13.021 7.27-.01 14.53-.113 21.79.041zm-9.953 19.456c-12.35 0-24.699.062-37.048-.051-2.447-.021-3.246.768-3.174 3.123.112 3.461-.102 6.942.543 10.352 2.601 13.742 11.54 20.787 26.553 21.105 14.04.297 26.696-4.24 38.727-10.977 1.915-1.075 3.83-2.14 5.663-3.318 1.597-1.034 1.997-.43 1.976 1.178-.112 6.922-.215 13.834-.277 20.757-.01 1.034-.359 1.7-1.26 2.222-22.886 13.384-47.155 18.555-72.99 10.885-16.742-4.976-26.49-17.203-28.795-34.243-3.502-25.917 1.925-50.002 19.364-70.082 16.138-18.586 37.038-25.354 61.143-20.377 17.193 3.553 26.85 15.175 30.515 31.969 2.581 11.817 1.628 23.613-.707 35.369-.409 2.048-1.546 2.14-3.184 2.13-12.35-.061-24.699-.041-37.048-.041zm-175.238 56.187c3.563.348 4.608-1.054 5.1-4.393 4.556-30.638 9.307-61.255 13.925-91.883.358-2.375 1.392-2.939 3.625-2.898 6.922.133 13.844-.072 20.767.112 2.775.072 3.83-.563 3.748-3.563-.185-6.564-.03-13.148.133-19.712.051-1.956-.768-2.294-2.437-2.274-6.226.061-12.462-.041-18.688.061-1.966.031-2.693-.502-2.355-2.529 1.024-6.011 1.69-12.103 2.97-18.064 1.545-7.219 6-11.643 13.557-12.851 4.997-.798 9.892-.143 14.807.359 2.048.205 2.601-.369 2.55-2.365-.154-6.451-.327-12.923-.144-19.374.082-2.928-1.055-3.728-3.687-3.942a111.362 111.362 0 0 0-18.299-.01c-20.664 1.7-34.498 13.496-38.882 33.7-1.587 7.301-2.488 14.756-3.574 22.16-.327 2.212-1.127 3.062-3.502 2.939-4.26-.226-8.54 0-12.8-.092-1.515-.031-2.334.338-2.57 1.966-1.024 7.178-2.068 14.356-3.236 21.524-.327 2.017.697 2.027 2.12 2.017 4.382-.031 8.765.061 13.148-.041 1.884-.041 2.416.573 2.13 2.406-3.113 19.906-6.185 39.824-9.267 59.73-1.74 11.264-3.379 22.548-5.253 33.782-.46 2.775.358 3.338 2.94 3.205 4.023-.205 8.068-.051 12.113-.051 3.687 0 7.404-.276 11.06.082zm458.752-61.962c-1.198-9.308-6.933-14.254-15.995-13.312-8.397.88-14.428 6.205-20.153 11.827-.348.348-.409 1.044-.49 1.597-2.029 13.087-4.025 26.183-6.104 39.27-.226 1.444.164 2.151 1.495 2.54 12.913 3.861 29.82 3.185 37.232-14.848 2.795-6.799 4.116-13.885 4.393-21.811-.102-1.351-.133-3.318-.379-5.263zm-33.197-22.273c5.837-4.772 11.408-8.622 18.073-10.526 16.937-4.854 35.901.727 39.066 23.705 2.611 18.974-1.147 37.028-12.697 52.746-8.857 12.073-21.433 17.971-36.106 19.118-13.783 1.075-27.35-.573-40.622-4.679-2.816-.87-3.523-1.956-3.062-4.793 2.95-18.422 5.724-36.874 8.571-55.306 3.615-23.45 7.26-46.889 10.803-70.339.317-2.089.768-3.185 3.236-3.461 6.062-.666 12.135-1.505 18.084-2.796 3.471-.748 3.256.768 2.888 3.103-1.475 9.441-2.898 18.893-4.362 28.344-1.229 8.059-2.499 16.128-3.87 24.883zm-560.159-37.068c.092-2.857-.89-3.42-3.492-3.349-6.113.174-12.226.061-18.34.051-4.772 0-4.67.01-5.376 4.659-3.779 24.822-7.608 49.644-11.428 74.455-2.15 13.998-4.28 28.006-6.543 41.984-.46 2.816.358 3.522 3.123 3.471 8.305-.164 16.62-.113 24.924-.021 1.986.021 2.806-.532 3.113-2.621 2.97-20.05 5.99-40.1 9.195-60.119.543-3.42.021-7.229 2.632-10.158 11.766-13.168 26.327-21.064 43.92-23.07 2.16-.246 2.621-.963 2.59-2.949-.133-8.54-.185-17.07-.113-25.61.021-2.171-.543-2.765-2.745-2.478-8.868 1.157-16.906 4.27-24.176 9.503-6.512 4.69-11.827 10.547-17.337 17.613-.02-7.792-.174-14.582.051-21.361zm668.385 90.224c-3.523-20.541-7.066-41.072-10.527-61.624-.359-2.161-.84-3.205-3.43-2.806-6.493.994-13.026 1.69-19.549 2.407-2.202.246-2.63.942-2.13 3.256 6.256 28.784 12.37 57.61 18.514 86.415.338 1.567.901 3.144.205 4.741-4.045 9.257-9.523 15.903-22.18 14.838-1.833-.154-3.676-.327-5.468-.738-1.77-.41-2.519-.123-2.437 1.905.194 4.946.307 9.912.266 14.858-.01 1.905.625 2.581 2.51 2.806 11.396 1.383 22.076-.154 31.334-7.536 6.717-5.356 11.397-12.35 15.33-19.835 6.902-13.148 13.588-26.389 20.378-39.598 10.26-19.958 20.51-39.916 30.822-59.853 1.116-2.16.727-2.672-1.659-2.621-5.653.133-11.315.195-16.957-.031-2.693-.113-4.086.717-5.232 3.205-5.97 12.954-12.135 25.815-18.237 38.707-3.533 7.455-7.086 14.889-10.844 22.784-.512-.891-.676-1.075-.707-1.28zm-596.265 31.027c1.935.051 2.846-.43 3.175-2.56 6-39.639 12.042-79.278 18.248-118.897.461-2.969-.409-3.164-2.826-3.133-7.844.113-15.708.246-23.542-.051-3.492-.133-4.587.921-5.089 4.382-3.89 26.45-8.038 52.859-12.103 79.278-1.925 12.524-3.799 25.067-5.837 37.571-.45 2.765.246 3.605 3.062 3.43 4.024-.236 8.08-.061 12.114-.061 4.26.01 8.54-.072 12.8.041zm136.161 0c1.853.041 2.58-.553 2.847-2.488.983-7.189 2.212-14.346 3.318-21.514 5.008-32.553 9.974-65.116 15.063-97.669.38-2.396-.164-2.949-2.489-2.908-7.73.123-15.462.051-23.193.041-5.233 0-5.13.01-5.918 5.202-3.82 25.058-7.7 50.094-11.56 75.152-2.11 13.66-4.179 27.33-6.35 40.981-.368 2.324.01 3.358 2.673 3.236 4.26-.205 8.54-.051 12.81-.051 4.27-.01 8.54-.071 12.8.021zM478.293 583.373c-11.418-2.427-22.938 5.038-25.354 16.445-1.72 8.1 1.515 14.736 8.55 17.531 13.046 5.181 28.14-4.854 28.365-18.862.123-7.69-4.393-13.589-11.56-15.114zm145.387 23.593c5.264-10.189.594-21.494-9.554-23.614-10.71-2.242-21.658 4.24-24.894 14.746-3.47 11.274 3.298 20.48 16.917 20.551 6.8-.338 13.527-3.932 17.531-11.684zM424.4 830.679c-2.539-12.985-12.339-17.091-23.726-17.091h-84.787l-.625 4.106c58.204 14.879 105.984 46.51 127.498 106.312l-18.36-93.327zm23.726 121.477l-5.376-28.16c-11.09-29.419-37.98-56.638-68.352-68.976l42.711 161.362h55.368l82.575-202.793h-55.685l-51.24 138.567zm147.743 64.522l32.881-203.09h-52.51l-32.91 203.09h52.54zm143.298-206.571c-51.886 0-88.249 27.536-88.576 67.062-.327 29.123 25.938 45.24 45.865 55.071 20.572 9.799 27.207 16.445 27.207 25.293 0 13.609-16.446 19.62-31.314 19.62-21.197 0-32.583-2.539-49.346-10.445l-6.963-3.481-7.29 45.548c12.338 5.694 34.794 10.773 58.521 10.773 55.04.327 90.808-27.207 91.433-69.274 0-23.101-14.223-40.489-44.298-55.071-18.33-9.154-29.399-15.821-29.399-25.293 0-8.53 9.482-17.408 30.044-17.408 17.091-.297 29.726 3.185 39.23 7.609l4.751 2.509 7.26-43.971c-10.434-4.106-26.88-8.54-47.125-8.54zm141.108 3.481c-12.657 0-22.159 3.81-27.535 17.091l-77.824 186h55.04c8.878-24.976 11.09-30.372 11.09-30.372h67.062s1.587 6.963 6.318 30.372h48.722l-42.384-203.09h-40.489zm-24.382 130.98s4.423-11.714 20.89-56.637c-.328.327 4.422-11.715 6.962-19.303l3.78 17.408c9.798 48.404 12.041 58.521 12.041 58.521-8.222.01-33.229.01-43.673.01z"/></svg>