<svg viewBox="0 0 1195 1195" xmlns="http://www.w3.org/2000/svg"><path d="M257.836 665.723c-4.014-20.521-19.497-27.003-37.499-27.003H86.317l-.984 6.482c91.986 23.511 167.506 73.513 201.513 168.018l-29.01-147.497zm37.5 192l-8.49-44.503c-17.53-46.51-60.027-89.508-108.032-109.015l67.502 255.017h87.511l130.52-320.512h-88.024l-80.988 219.013zm233.512 101.98l51.968-320.983h-82.985l-52.009 320.983h83.026zm226.478-326.492c-82.002 0-139.479 43.52-139.99 105.984-.513 46.029 41 71.506 72.488 87.03 32.512 15.493 43.008 25.989 43.008 39.977 0 21.504-25.989 31.017-49.49 31.017-33.495 0-51.497-4.014-77.998-16.507l-11.008-5.499-11.51 71.987c19.497 9.001 55 17.019 92.498 17.019 87 .512 143.524-43.008 144.507-109.486 0-36.516-22.487-64-70.01-87.03-28.98-14.469-46.47-25.006-46.47-39.977 0-13.486 14.981-27.515 47.493-27.515 27.003-.471 46.981 5.028 61.993 12.032l7.506 3.973 11.48-69.499c-16.508-6.503-42.497-13.507-74.497-13.507zm223.017 5.509c-20.009 0-35.02 6.011-43.52 27.003L811.82 959.703h87c14.028-39.475 17.53-48.005 17.53-48.005h105.984s2.52 11.008 9.984 48.005h77.015l-66.99-320.983h-64zM939.82 845.732s6.994-18.514 33.024-89.508c-.512.512 6.994-18.514 11.008-30.505l5.98 27.515c15.493 76.503 19.026 92.498 19.026 92.498H939.82z"/></svg>