<svg viewBox="0 0 1195 1195" xmlns="http://www.w3.org/2000/svg"><path d="M494.431 925.399h47.688v12.544h-35.133l-5.017 27.607h27.607l-2.509 12.544H499.46l-2.509 30.116h35.134v12.544H481.9l12.534-95.355zm67.768 82.821h37.642l-2.509 12.544h-50.197l12.544-95.375h15.063l-12.544 82.832zm62.741-82.821h50.197l-2.509 12.544h-35.134l-2.509 27.607h27.607l-2.509 12.544h-27.607l-5.018 30.116H665.1l-2.509 12.544h-50.197l12.544-95.355zm75.295 12.544c10.035-10.035 20.91-15.063 32.625-15.063 10.035 0 18.402 3.379 25.098 10.035l-7.527 12.544c-6.697-6.666-13.424-10.035-20.08-10.035-20.082 0-31.796 12.544-35.135 37.642-1.679 10.035 0 18.821 5.018 26.358s11.673 11.295 20.081 11.295c8.356 0 16.691-4.158 25.098-12.544v17.572c-6.697 5.017-15.063 7.526-25.098 7.526-28.487 0-41.032-16.702-37.642-50.197 1.628-13.373 7.527-25.088 17.562-35.133zm72.786-12.544h70.277l-2.509 12.544h-30.116l-10.035 82.821h-15.063l12.544-82.821h-27.607l2.51-12.544zm135.526 12.544c3.338 8.397 2.51 17.183-2.509 26.358-5.018 9.216-11.725 14.674-20.08 16.313l22.59 40.161h-15.064l-22.59-40.161h-7.527l-5.018 40.161h-12.544L858.35 925.4h30.116c10.045 0 16.691 4.188 20.081 12.544zm-17.572 22.59c8.356-15.063 6.656-22.59-5.018-22.59h-15.063l-5.018 30.116h15.063l10.035-7.526zm120.474 12.554c-6.697 33.495-22.59 50.197-47.688 50.197-11.725 0-21.33-5.018-28.866-15.063-7.527-10.035-10.466-21.719-8.786-35.134 6.656-33.454 22.59-50.197 47.688-50.197 28.447 0 40.99 16.732 37.653 50.197zm-17.572-27.617c-5.018-8.356-11.725-12.544-20.08-12.544-20.082 0-31.796 13.414-35.135 40.161-1.679 10.035 0 19.251 5.018 27.607 5.018 8.397 11.673 12.544 20.081 12.544 20.081 0 31.744-13.374 35.134-40.162 1.64-10.035.01-19.21-5.018-27.607zm115.456-20.071l-12.544 95.375h-12.544l-35.134-72.786-12.544 72.786h-12.544l15.063-95.375h12.544l32.625 70.277 12.544-70.277h12.534zm-65.26-125.491h2.51v2.509h-2.51v2.509h2.51v2.509h2.508l-2.509-2.509 2.51-2.509c0-1.649-.88-2.509-2.51-2.509h-5.018v7.526h2.51v-7.526zM257.836 606.669c-4.014-20.521-19.497-27.003-37.499-27.003H86.317l-.984 6.492c91.986 23.501 167.506 73.502 201.513 168.018l-29.01-147.507zm37.5 192l-8.49-44.503c-17.53-46.51-60.027-89.508-108.032-109.015l67.502 255.017h87.511l130.52-320.512h-88.024l-80.988 219.013zm233.512 101.98l51.968-320.983h-82.985l-52.009 320.983h83.026zm226.478-326.482c-82.002 0-139.479 43.52-139.99 105.984-.513 46.029 41 71.506 72.488 87.03 32.512 15.493 43.008 25.989 43.008 39.977 0 21.504-25.989 31.017-49.49 31.017-33.495 0-51.497-4.014-77.998-16.507l-11.008-5.499-11.52 71.977c19.497 9.001 55 17.019 92.498 17.019 87 .512 143.524-43.008 144.507-109.486 0-36.516-22.487-64-70.01-87.03-28.98-14.469-46.47-25.006-46.47-39.977 0-13.486 14.981-27.515 47.493-27.515 27.003-.471 46.981 5.028 61.993 12.032l7.506 3.973 11.48-69.499c-16.497-6.502-42.487-13.497-74.487-13.497zm223.017 5.499c-20.009 0-35.02 6.011-43.52 27.003L811.82 900.649h87c14.028-39.475 17.53-48.005 17.53-48.005h105.984s2.52 11.008 9.984 48.005h77.015l-66.99-320.983h-64zM939.82 786.678s6.994-18.514 33.024-89.508c-.512.512 6.994-18.514 11.008-30.505l5.98 27.515c15.493 76.503 19.026 92.498 19.026 92.498H939.82z"/></svg>