<svg viewBox="0 0 1195 1195" xmlns="http://www.w3.org/2000/svg"><path d="M597.333 976.312H100.028c-4.454 0-4.454 0-4.454-4.362V625.336c0-4.229 0-4.229 4.301-4.229h994.898c4.301 0 4.301 0 4.301 4.219 0 115.63 0 231.271-.01 346.901 0 4.721.645 4.076-4.147 4.076-165.857.01-331.725.01-497.582.01zM181.405 669.911l.891.092c.758 5.099 1.546 10.189 2.273 15.299.86 6.072 1.648 12.155 2.498 18.227.686 4.833 1.433 9.656 2.14 14.49.604 4.075 1.177 8.161 1.823 12.226.328 2.048.39 2.058 2.601 2.078 3.36.02 6.718.01 10.087.01 8.837 0 17.674.01 26.501-.01 2.355 0 2.355-.041 2.846-2.253.604-2.703 1.25-5.406 1.833-8.12 1.905-8.909 3.758-17.817 5.673-26.716 1.546-7.209 3.174-14.407 4.741-21.616 1.444-6.656 2.857-13.312 4.291-19.978a4576.058 4576.058 0 0 1 3.645-16.855c.246-1.137-.133-1.556-1.3-1.556-10.087.02-20.162.03-30.249 0-1.382 0-2.028.42-2.19 1.925-.513 4.67-1.179 9.319-1.814 13.978-1.649 12.155-3.277 24.32-4.966 36.475-.389 2.765-.983 5.489-1.556 8.643-.43-.635-.676-.839-.717-1.075-1.004-6.041-2.048-12.073-2.949-18.125-1.485-9.954-2.877-19.927-4.322-29.88-.492-3.42-1.127-6.81-1.536-10.24-.164-1.372-.707-1.853-2.007-1.69-.379.051-.768 0-1.147 0-11.038 0-22.088 0-33.126.01-.676 0-1.392-.123-1.997.082-.543.174-1.116.635-1.382 1.127-.317.563-.307 1.29-.4 1.956-.645 4.557-1.26 9.113-1.936 13.671-.85 5.683-1.802 11.356-2.652 17.039-1.065 7.199-2.038 14.418-3.123 21.627-.276 1.853-.809 3.666-1.229 5.488-.87-2.253-1.403-4.475-1.71-6.727-.953-6.83-1.802-13.681-2.713-20.511-1.413-10.547-2.857-21.084-4.27-31.621-.276-2.048-.225-2.099-2.407-2.099-9.8-.021-19.589-.021-29.389-.01-2.119 0-2.192.062-1.77 2.058a1415.616 1415.616 0 0 0 4.136 19.691c1.771 8.141 3.645 16.272 5.427 24.412 1.392 6.359 2.693 12.739 4.066 19.098.87 4.024 1.843 8.028 2.703 12.063 1.29 6.093 2.54 12.196 3.78 18.309.204 1.003.675 1.536 1.74 1.454.481-.03.962 0 1.444 0h35.441c.573 0 1.21.133 1.71-.051.543-.195 1.116-.615 1.403-1.096.317-.553.368-1.28.461-1.946 1.3-9.492 2.57-18.995 3.891-28.477a2242.375 2242.375 0 0 1 3.38-23.327c.367-2.539.941-5.038 1.432-7.547zm384.471 140.954l-.727.062c-.829-2.007-1.73-3.994-2.468-6.032-1.874-5.232-3.656-10.486-5.488-15.728-4.014-11.469-8.038-22.937-12.042-34.407-.738-2.099-.809-2.242-3.04-2.253-13.825-.021-27.649-.01-41.473 0-1.976 0-2.017.051-2.027 2.16-.03 3.748-.01 7.486-.01 11.234v80.64c0 2.755.021 2.785 2.632 2.785 8.54.01 17.091.01 25.63-.01 2.202 0 2.202-.051 2.274-2.222.01-.286.01-.573.01-.86 0-16.702-.01-33.413.021-50.114 0-1.874.276-3.748.43-5.622 1.178 1.556 1.986 3.154 2.601 4.833 2.017 5.57 3.973 11.161 5.918 16.763 3.952 11.397 7.885 22.794 11.817 34.202 1.045 3.021 1.034 3.031 4.22 3.031 13.055 0 26.111.01 39.167 0 3.8 0 3.512.502 3.512-3.574.01-27.934 0-55.869 0-83.804 0-2.396.051-4.803 0-7.198-.05-2.181-.092-2.233-2.284-2.233-8.642-.021-17.275-.021-25.918-.01-2.498 0-2.529.041-2.529 2.56-.01 16.988 0 33.977-.01 50.965 0 1.607-.133 3.216-.215 4.833zm290.345-137.38c.205-.031.41-.051.615-.082.583 1.372 1.25 2.713 1.741 4.116 2.171 6.236 4.27 12.503 6.451 18.739 3.973 11.387 8.008 22.753 11.93 34.16.49 1.413 1.095 1.946 2.6 1.946 13.824-.051 27.658-.02 41.482-.041 2.16 0 2.202-.041 2.212-2.253.02-7.107.01-14.213.01-21.32 0-23.531 0-47.053-.01-70.584 0-2.908-.03-2.918-2.846-2.928-8.356-.01-16.712-.01-25.067 0-2.55.01-2.57.041-2.58 2.519-.02 8.448-.01 16.896-.01 25.354 0 9.032.01 18.053-.01 27.085 0 1.167.245 2.427-.84 3.799-.584-1.229-1.097-2.13-1.455-3.092-.87-2.335-1.669-4.69-2.499-7.045a20982.76 20982.76 0 0 1-8.489-24.105c-2.663-7.577-5.346-15.145-7.936-22.753-.44-1.28-.962-1.802-2.386-1.802-13.824.051-27.658.02-41.482.051-2.324 0-2.335.062-2.335 2.498 0 21.607 0 43.213-.01 64.819 0 9.216-.01 18.442.01 27.658 0 2.038.051 2.089 2.048 2.089 8.735.021 17.48.021 26.215 0 2.222 0 2.222-.051 2.294-2.232.02-.768.01-1.536.01-2.304-.01-16.896-.04-33.802-.03-50.698.01-1.198.246-2.396.37-3.594zm.051 116.981c.215-.02.42-.051.635-.071.768 2.028 1.557 4.055 2.294 6.093 2.078 5.765 4.178 11.52 6.185 17.305 3.8 10.947 7.527 21.913 11.336 32.85.932 2.673.338 2.683 3.84 2.683h39.465c.573 0 1.157-.02 1.731-.01.922.01 1.454-.379 1.475-1.341.01-.481.02-.962.02-1.444 0-30.433.01-60.867 0-91.31 0-2.683-.03-2.713-2.703-2.713-8.254-.01-16.517-.01-24.77-.01-3.318 0-3.03-.195-3.03 3.195 0 16.323 0 32.645-.01 48.968 0 1.444.03 2.877-.052 4.322-.03.563-.317 1.106-.48 1.659-1.076-1.28-1.7-2.55-2.172-3.881-1.495-4.147-2.949-8.315-4.413-12.473-2.058-5.857-4.137-11.725-6.185-17.593a4614.697 4614.697 0 0 1-7.813-22.528c-.43-1.25-.994-1.751-2.468-1.741-13.63.092-27.269.062-40.899.062-2.908 0-2.928-.02-2.928 2.806-.01 30.433-.03 60.866-.03 91.31 0 2.693.02 2.714 2.724 2.724 8.356.01 16.702.01 25.058 0 2.775 0 2.775-.021 2.795-2.878 0-.573-.01-1.157-.01-1.731 0-16.61-.01-33.218.01-49.828.03-1.475.266-2.949.4-4.423zm-79.8-107.038c-.01-.195-.02-.389-.02-.583 1.505-.584 3-1.178 4.505-1.762 7.188-2.795 11.981-7.67 13.558-15.421.912-4.505.665-8.919-.379-13.383-1.362-5.827-4.885-9.82-9.953-12.688-3.144-1.772-6.574-2.745-10.076-3.175-4.75-.594-9.543-1.065-14.326-1.116-12.667-.154-25.344-.051-38.02-.051-4.998 0-9.985-.021-14.982.01-1.915.01-1.915.072-1.997 1.925-.02.481 0 .962 0 1.444v89.579c0 .768.051 1.536-.01 2.304-.092 1.341.42 1.853 1.822 1.843 11.141-.041 22.272-.01 33.413-.031 1.915 0 1.956-.092 2.038-1.905.03-.665.01-1.341.01-2.017-.05-9.697-.082-19.385-.164-29.082-.01-1.341.512-1.997 1.864-1.905 2.386.174 4.793.185 7.138.584 3.164.542 5.028 2.55 5.53 5.776.664 4.352 1.33 8.714 2.067 13.056s1.505 8.673 2.396 12.974c.522 2.509.635 2.509 3.256 2.509 10.558.01 21.125.01 31.683 0 .727 0 1.465-.113 2.335-.185-.164-.85-.256-1.505-.42-2.14-1.936-7.547-2.857-15.247-3.799-22.958-.43-3.512-.84-7.055-1.628-10.496-1.495-6.564-5.479-10.793-12.288-12.073-1.208-.226-2.365-.686-3.553-1.034zm-309.78 104.478h.05c0-10.946.01-21.893-.01-32.829 0-2.529-.04-2.529-2.539-2.581-.768-.01-1.536 0-2.304 0-10.373 0-20.736-.01-31.109-.01-1.843 0-1.884 0-1.904 1.843-.03 3.646-.02 7.301-.02 10.946 0 16.517.03 33.024-.052 49.541-.01 2.171-.297 4.423-.952 6.482-1.096 3.481-3.646 5.13-7.127 5.13-3.257 0-5.632-1.721-7.035-4.925-1.075-2.457-1.127-5.028-1.127-7.619v-55.88c0-1.054.021-2.109 0-3.164-.05-2.263-.05-2.263-2.192-2.324-.195-.01-.389 0-.574 0-10.844 0-21.699 0-32.543-.01-.379 0-.768-.021-1.147-.01-.932.03-1.382.532-1.392 1.454 0 .574-.01 1.147-.01 1.731 0 19.876-.01 39.752.021 59.618 0 2.396.123 4.803.43 7.178 1.433 10.998 7.076 18.964 17.122 23.859 6.656 3.236 13.712 4.752 21.022 5.182 6.707.399 13.425.502 20.101-.512 5.806-.88 11.418-2.314 16.681-5.058 11.018-5.755 16.24-15.094 16.558-27.218.256-10.271.051-20.552.051-30.823zm278.712 63.806c9.267.174 17.51-1.208 25.313-4.772 6.851-3.123 12.472-7.813 16.722-13.988 5.591-8.11 8.038-17.357 8.725-27.034.563-7.864-.102-15.698-2.274-23.337-2.529-8.899-7.168-16.507-14.316-22.385-6.574-5.406-14.366-8.366-22.692-9.554-8.376-1.188-16.784-1.147-25.129.778-10.414 2.406-19.097 7.26-25.702 15.964-4.3 5.663-6.809 11.961-8.438 18.668-1.526 6.267-1.74 12.729-1.34 19.169.716 11.51 3.686 22.221 11.386 31.212 3.861 4.516 8.48 8.038 13.865 10.455 7.813 3.502 16.036 5.12 23.88 4.823zM394.458 703.038v-.021H379.19c-.676 0-1.34 0-2.017.031-.85.03-1.229.563-1.127 1.331.584 4.762 1.31 9.482 3.84 13.721 4.956 8.305 12.718 12.462 21.74 14.684 5.694 1.403 11.51 2.007 17.387 2.048 10.608.082 21.053-.85 30.853-5.386 5.478-2.54 10.096-6.134 13.261-11.377 3.79-6.298 5.048-13.107 4.23-20.398-.739-6.584-3.523-12.053-8.52-16.384-4.74-4.117-10.496-6.247-16.374-7.977-7.434-2.181-14.98-4.014-22.446-6.093-1.73-.481-3.48-1.178-4.997-2.14-3.533-2.222-3.45-7.178.164-9.226 1.362-.778 3.031-1.086 4.608-1.362 1.21-.215 2.488-.072 3.738-.031 3.891.143 6 1.863 6.922 5.632.594 2.416.594 2.416 3.123 2.416h20.163c3.072 0 6.144-.021 9.216.01 1.106.01 1.526-.42 1.505-1.536-.092-5.837-1.802-11.131-5.438-15.688-5.386-6.758-12.985-9.575-21.084-11.141-5.17-1.004-10.435-1.29-15.739-1.27-9.093.041-17.98 1.168-26.389 4.711-6.8 2.867-12.206 7.434-15.41 14.264-2.397 5.099-2.715 10.506-2.335 16.036.512 7.495 3.861 13.353 9.984 17.602 3.4 2.365 7.271 3.738 11.254 4.854a1046.275 1046.275 0 0 1 20.122 5.909c2.928.88 5.878 1.772 8.663 2.99 4.362 1.915 5.427 7.137 2.365 10.742-3.04 3.584-7.014 4.076-11.264 3.134-4.199-.932-6.205-3.922-6.646-8.028-.205-1.956-.317-2.078-2.56-2.068-5.15.03-10.342.01-15.524.01zm207.176-19.365v39.454c0 2.396-.03 4.803.01 7.199.03 1.925.062 1.935 1.874 1.997.676.021 1.341.01 2.018.01h64.798c1.341 0 2.693.031 4.034-.01 1.904-.051 1.966-.071 1.997-1.945.051-3.072.02-6.144.02-9.216 0-3.84.02-7.68-.01-11.52-.02-1.843-.062-1.853-1.966-1.925-.573-.021-1.147 0-1.73 0h-30.813c-.768 0-1.536-.031-2.304 0-1.208.041-1.73-.512-1.71-1.731.041-1.915-.02-3.84 0-5.755.041-4.67-.553-4.188 4.096-4.199 9.124-.021 18.237 0 27.361-.021 2.734-.01 2.765-.051 2.775-2.713.02-3.451.01-6.912.01-10.363 0-3.164.02-6.338-.02-9.502-.03-2.018-.092-2.038-2.15-2.12-.48-.02-.962 0-1.444 0h-27.075c-.676 0-1.34-.01-2.018 0-1.096.01-1.546-.563-1.546-1.618.01-2.396-.03-4.803 0-7.199.03-2.232.051-2.273 2.232-2.284 4.608-.03 9.216-.01 13.824-.01 6.236 0 12.482.021 18.718-.01 2.222-.01 2.55-.256 2.56-2.15.051-6.912.051-13.824 0-20.736-.01-1.833-.256-1.976-1.986-2.058-.379-.021-.768.01-1.147.01-22.364 0-44.728-.01-67.102-.01-3.399 0-3.318-.42-3.318 3.216.01 15.073.01 30.147.01 45.209zm-324.567.082c-.01 3.072-.01 6.144-.01 9.216 0 12.288-.01 24.576.01 36.864 0 2.447.051 2.499 2.334 2.499 23.327.01 46.654.01 69.98 0 2.233 0 2.274-.051 2.294-2.212.031-5.376.01-10.752.01-16.128 0-1.536-.04-3.072 0-4.608.031-1.239-.522-1.741-1.73-1.659-.667.041-1.342 0-2.018 0h-27.075c-1.915 0-3.84-.041-5.755 0-1.239.03-1.71-.543-1.69-1.741.03-1.915-.04-3.84-.02-5.755.051-4.72-.594-4.178 4.076-4.199 9.216-.03 18.432 0 27.648-.041 2.683-.01 2.755-.113 2.765-2.786.021-6.43.021-12.861-.02-19.292-.022-2.53-.083-2.53-2.602-2.59-.48-.01-.962 0-1.444 0h-26.788c-.676 0-1.34-.021-2.018-.01-1.044.02-1.618-.42-1.618-1.526.02-2.786.02-5.57.02-8.356 0-.809.38-1.26 1.198-1.27.573-.01 1.147.031 1.731.031 10.465 0 20.93.01 31.386.01 2.745 0 2.755-.01 2.765-2.908.01-5.09 0-10.178 0-15.268 0-1.628-.03-3.266.01-4.894.031-1.341-.574-1.945-1.904-1.894-.48.021-.962 0-1.444 0h-66.816c-.573 0-1.157.041-1.73 0-1.127-.072-1.557.522-1.567 1.557 0 .676-.01 1.341-.01 2.017.03 14.992.03 29.962.03 44.944zm255.447-48.507h-2.017c-12.667 0-25.344.01-38.01 0-3.82 0-3.083.389-3.093 3.185a2603.47 2603.47 0 0 0-.01 20.153c.01 2.232.051 2.273 2.263 2.284 5.95.03 11.9.01 17.85.01 4.392 0 4.064-.338 4.064 4.014v64.788c0 2.631.021 2.642 2.652 2.642 10.466.01 20.921.01 31.385 0 4.137-.01 3.81.441 3.81-3.932 0-21.401-.01-42.803-.01-64.215 0-3.287.021-3.298 3.35-3.308 6.051-.01 12.093.01 18.145-.01 2.52-.01 2.673-.123 2.683-2.56.041-7.004.031-14.008 0-21.022-.01-1.925-.082-1.945-1.904-2.038-.666-.031-1.34-.01-2.017-.01-13.026.021-26.082.021-39.137.021zM667.15 801.075v-44.657c0-.573.01-1.157 0-1.731-.05-2.109-.062-2.119-2.038-2.191-.48-.021-.962 0-1.444 0h-30.832c-3.87 0-3.584-.297-3.584 3.574v89.897c0 .573.01 1.157.01 1.731.01 1.034.481 1.618 1.567 1.618.676 0 1.341.01 2.018.01h28.53c1.34 0 2.692-.072 4.033.021 1.444.102 1.884-.553 1.751-1.874-.05-.471-.01-.962-.01-1.444v-44.953zm283.904-60.282v98.795c0 2.212.062 4.413.01 6.625-.03 1.321.41 1.936 1.822 1.884 2.018-.082 4.034 0 6.052-.02 3.77-.031 3.574.491 3.574-3.553 0-68.741 0-137.482.01-206.224 0-.86-.04-1.731 0-2.59.062-1.188-.399-1.741-1.659-1.721-2.683.051-5.376.051-8.059-.01-1.26-.031-1.71.512-1.7 1.7.02 2.396-.03 4.793-.03 7.188-.02 32.645-.02 65.29-.02 97.925zm86.927 1.157v102.287c0 .481-.01.962 0 1.444.062 1.925.062 1.966 1.894 1.986 2.5.03 4.997.02 7.495-.021 1.894-.03 1.904-.072 1.966-1.925.02-.481 0-.962 0-1.444V641.73c0-.963 0-1.925-.01-2.877-.04-2.714-.04-2.724-2.63-2.755-1.732-.02-3.462-.01-5.183-.01-4.208-.01-3.513-.072-3.523 3.584-.02 34.089-.01 68.178-.01 102.277zm47.718-94.618c.256-6.635-5.16-12.565-12.176-12.565-7.444 0-12.534 5.427-12.534 12.185 0 6.789 4.413 12.237 12.196 12.606 6.717.328 12.472-5.478 12.514-12.226zm-343.552 18.975c0-2.499.041-4.987-.02-7.486-.03-1.341.471-1.977 1.843-1.864 2.673.215 5.376.215 8.008.666 3.707.645 5.99 3.093 6.471 6.41.635 4.454-.973 8.304-4.455 10.107-3.328 1.731-6.963 1.976-10.639 1.802-1.044-.051-1.208-.748-1.208-1.587v-8.049zm-6.85 134.676c.562-5.611 1.043-11.223 1.75-16.814.215-1.669.932-3.308 1.628-4.864 1.465-3.277 4.22-4.547 7.66-4.547 3.501 0 6.194 1.495 7.474 4.792.962 2.478 1.822 5.079 2.16 7.701 1.014 7.803 1.208 15.657.338 23.501a100.688 100.688 0 0 1-1.28 8.202c-.236 1.198-.747 2.375-1.29 3.492-1.546 3.164-4.158 4.628-7.659 4.567s-5.99-1.598-7.506-4.803c-1.976-4.168-2.407-8.643-2.703-13.138-.174-2.673-.03-5.366-.03-8.048a7.92 7.92 0 0 1-.543-.041zM1062.31 647.24c-.102-6.257 4.68-11.418 10.885-11.418 6.441 0 11.05 4.659 11.111 11.131.072 6.882-4.505 11.591-10.957 11.571-6.43-.021-10.72-4.516-11.038-11.284zm13.086.604c.87-.307 1.403-.481 1.925-.697 1.71-.707 2.631-2.099 2.478-3.738-.164-1.7-1.32-2.949-3.216-3.082-2.192-.153-4.393-.061-6.595-.082-.994-.01-1.35.492-1.33 1.424.04 2.007.061 4.014.071 6.011 0 1.721-.082 3.44-.03 5.161.01.379.42.738.635 1.106.246-.338.676-.655.707-1.003.102-1.137.02-2.294.072-3.44.072-1.751.307-1.884 2.018-1.946 1.26-.051 1.946.604 2.53 1.536.86 1.372 1.678 2.786 2.56 4.147.44.697 1.013 1.096 1.914.451a699.876 699.876 0 0 1-3.737-5.847zm-1.904-6.82c.85.082 1.802.144 2.745.286 1.208.185 1.843 1.034 1.956 2.161.123 1.239-.327 2.396-1.679 2.611-1.77.287-3.584.369-5.376.42-.307.01-.88-.543-.912-.87a20.313 20.313 0 0 1-.03-3.707c.02-.317.563-.788.922-.85.727-.143 1.505-.051 2.375-.051z"/></svg>