<svg height="1000px" width="1000px" xmlns="http://www.w3.org/2000/svg">
  <g>
    <path d="M426 50c13.333 0 20 6.667 20 20c0 0 0 860 0 860c0 13.333 -6.667 20 -20 20c0 0 -46 0 -46 0c-13.333 0 -20 -6.667 -20 -20c0 0 0 -440 0 -440c0 0 -176 0 -176 0c-10.667 0 -20 -2 -28 -6c-8 -1.333 -16.667 -5.333 -26 -12c0 0 -120 -82 -120 -82c-6.667 -4 -10 -9.333 -10 -16c0 -6.667 3.333 -12 10 -16c0 0 120 -82 120 -82c9.333 -6.667 18 -10.667 26 -12c5.333 -2.667 14.667 -4 28 -4c0 0 176 0 176 0c0 0 0 -190 0 -190c0 -13.333 6.667 -20 20 -20c0 0 46 0 46 0c0 0 0 0 0 0m564 208c6.667 4 10 9.333 10 16c0 6.667 -3.333 12 -10 16c0 0 -118 82 -118 82c-14.667 8 -23.333 12 -26 12c-9.333 4 -18.667 6 -28 6c0 0 -302 0 -302 0c0 0 -40 -230 -40 -230c0 0 342 0 342 0c12 0 21.333 1.333 28 4c6.667 2.667 15.333 6.667 26 12c0 0 118 82 118 82" />
  </g>
</svg>