<svg height="1000px" width="905px" xmlns="http://www.w3.org/2000/svg">
  <g>
    <path d="M84.5 316c-10.667 9.333 -22.667 13.333 -36 12c-13.333 -1.333 -24.667 -7.333 -34 -18c-9.333 -9.333 -13.333 -21.333 -12 -36c1.333 -14.667 7.333 -26.667 18 -36c32 -26.667 58.333 -46.667 79 -60c20.667 -13.333 50.333 -26.667 89 -40c38.667 -13.333 81.667 -14.667 129 -4c47.333 10.667 100.333 32.667 159 66c58.667 33.333 110.333 51 155 53c44.667 2 78 -3.333 100 -16c22 -12.667 51.667 -35 89 -67c25.333 -20 48.667 -18 70 6c21.333 26.667 19.333 50.667 -6 72c-81.333 73.333 -159.333 110 -234 110c-66.667 0 -140.667 -23.333 -222 -70c-45.333 -25.333 -85 -42.667 -119 -52c-34 -9.333 -65 -9.333 -93 0c-28 9.333 -49.667 19 -65 29c-15.333 10 -37.667 27 -67 51c0 0 0 0 0 0m736 110c25.333 -21.333 48.667 -19.333 70 6c21.333 26.667 19.333 50.667 -6 72c-26.667 22.667 -48.333 40.333 -65 53c-16.667 12.667 -40.667 25.333 -72 38c-31.333 12.667 -63.667 19 -97 19c-64 0 -138 -23.333 -222 -70c-45.333 -25.333 -85 -42.667 -119 -52c-34 -9.333 -65 -9.333 -93 0c-28 9.333 -49.667 19 -65 29c-15.333 10 -37.667 27 -67 51c-9.333 9.333 -21 13.333 -35 12c-14 -1.333 -25.667 -7.333 -35 -18c-21.333 -26.667 -19.333 -50.667 6 -72c25.333 -22.667 45.333 -39.333 60 -50c14.667 -10.667 37.667 -23.333 69 -38c31.333 -14.667 60.667 -22.333 88 -23c27.333 -0.667 62.333 4.333 105 15c42.667 10.667 87.333 29.333 134 56c45.333 25.333 85 42.667 119 52c34 9.333 65 9.333 93 0c28 -9.333 49.667 -19 65 -29c15.333 -10 37.667 -27 67 -51c0 0 0 0 0 0m0 256c25.333 -21.333 48.667 -19.333 70 6c9.333 9.333 13.333 21.333 12 36c-1.333 14.667 -7.333 26.667 -18 36c-26.667 22.667 -48.333 40.333 -65 53c-16.667 12.667 -40.667 25.333 -72 38c-31.333 12.667 -63.667 19 -97 19c-64 0 -138 -23.333 -222 -70c-45.333 -25.333 -85 -42.667 -119 -52c-34 -9.333 -65 -9.667 -93 -1c-28 8.667 -50 18.333 -66 29c-16 10.667 -38 28 -66 52c-9.333 9.333 -21 13.333 -35 12c-14 -1.333 -25.667 -7.333 -35 -18c-21.333 -26.667 -19.333 -50.667 6 -72c25.333 -22.667 45.333 -39.333 60 -50c14.667 -10.667 37.667 -23.333 69 -38c31.333 -14.667 60.667 -22.333 88 -23c27.333 -0.667 62.333 4.333 105 15c42.667 10.667 87.333 29.333 134 56c45.333 25.333 85 42.667 119 52c34 9.333 65 9.333 93 0c28 -9.333 49.667 -19 65 -29c15.333 -10 37.667 -27 67 -51c0 0 0 0 0 0" />
  </g>
</svg>