<svg height="1000px" width="901.291015625px" xmlns="http://www.w3.org/2000/svg">
  <g>
    <path d="M884.625 616c13.333 10.667 18.667 21.667 16 33c-2.667 11.333 -12 19 -28 23c0 0 -78 22 -78 22c-16 4 -29.333 13.333 -40 28c-10.667 14.667 -15.333 30.667 -14 48c0 0 4 82 4 82c1.333 16 -3.333 27.333 -14 34c-10.667 6.667 -23.333 6.667 -38 0c0 0 -86 -44 -86 -44c-14.667 -8 -30.333 -9.333 -47 -4c-16.667 5.333 -28.333 15.333 -35 30c0 0 -46 88 -46 88c-8 14.667 -17.667 22.333 -29 23c-11.333 0.667 -22.333 -5.667 -33 -19c0 0 -50 -78 -50 -78c-22.667 -32 -52 -38.667 -88 -20c0 0 -122 70 -122 70c-14.667 9.333 -25.333 11.333 -32 6c-6.667 -5.333 -7.333 -16 -2 -32c0 0 54 -164 54 -164c5.333 -16 4 -30.667 -4 -44c-8 -13.333 -20 -20.667 -36 -22c0 0 -106 -12 -106 -12c-16 -2.667 -25.667 -8.667 -29 -18c-3.333 -9.333 1.667 -19.333 15 -30c0 0 86 -76 86 -76c13.333 -10.667 20 -24.333 20 -41c0 -16.667 -6.667 -30.333 -20 -41c0 0 -86 -76 -86 -76c-13.333 -10.667 -18.667 -21.667 -16 -33c2.667 -11.333 12 -19 28 -23c0 0 78 -22 78 -22c16 -4 29.667 -13.333 41 -28c11.333 -14.667 16.333 -30.667 15 -48c0 0 -6 -82 -6 -82c0 -17.333 5 -29.333 15 -36c10 -6.667 22.333 -6.667 37 0c0 0 80 38 80 38c16 6.667 32.333 7.333 49 2c16.667 -5.333 29 -15.333 37 -30c0 0 46 -80 46 -80c8 -14.667 18 -21.667 30 -21c12 0.667 22 8.333 30 23c0 0 50 86 50 86c8 14.667 19.667 24.333 35 29c15.333 4.667 30.333 2.333 45 -7c0 0 136 -84 136 -84c14.667 -9.333 24.667 -11.333 30 -6c5.333 5.333 5.333 16 0 32c0 0 -60 170 -60 170c-6.667 14.667 -6 28.333 2 41c8 12.667 20.667 19.667 38 21c0 0 114 12 114 12c17.333 1.333 27.333 6.667 30 16c2.667 9.333 -2.667 19.333 -16 30c0 0 -86 76 -86 76c-12 10.667 -18 24.333 -18 41c0 16.667 6 30.333 18 41c0 0 86 76 86 76m-384 92c0 0 0 -104 0 -104c0 0 -100 0 -100 0c0 0 0 104 0 104c0 0 100 0 100 0c0 0 0 0 0 0m0 -160c0 0 0 -260 0 -260c0 0 -100 0 -100 0c0 0 0 260 0 260c0 0 100 0 100 0c0 0 0 0 0 0" />
  </g>
</svg>