<svg height="1000px" width="980.75px" xmlns="http://www.w3.org/2000/svg">
  <g>
    <path d="M839.75 250c0 0 0 50 0 50c0 0 -696 0 -696 0c0 0 0 -50 0 -50c0 -14.667 4.333 -26.333 13 -35c8.667 -8.667 17 -13.667 25 -15c0 0 12 0 12 0c0 0 596 0 596 0c4 0 8.667 0.333 14 1c5.333 0.667 12.667 5.333 22 14c9.333 8.667 14 20.333 14 35c0 0 0 0 0 0m-148 -150c4 0 8.667 0.333 14 1c5.333 0.667 12.667 5.333 22 14c9.333 8.667 14 20.333 14 35c0 0 -498 0 -498 0c0 -14.667 4.333 -26.333 13 -35c8.667 -8.667 17 -13.667 25 -15c0 0 12 0 12 0c0 0 398 0 398 0c0 0 0 0 0 0m248 200c22.667 21.333 35.333 36.667 38 46c4 12 4 30 0 54c0 0 -76 450 -76 450c-2.667 14.667 -9.333 26.333 -20 35c-10.667 8.667 -20 13.667 -28 15c0 0 -14 0 -14 0c0 0 -696 0 -696 0c-34.667 0 -54.667 -16.667 -60 -50c-4 -17.333 -17 -91.667 -39 -223c-22 -131.333 -35 -207 -39 -227c-6.667 -14.667 -7.667 -29.333 -3 -44c4.667 -14.667 8 -23.333 10 -26c2 -2.667 9 -9.333 21 -20c0 0 10 -10 10 -10c0 0 30 -30 30 -30c0 0 0 80 0 80c0 0 836 0 836 0c0 0 0 -80 0 -80c0 0 30 30 30 30m-248 270c0 0 0 -100 0 -100c0 0 -70 0 -70 0c0 0 0 80 0 80c0 0 -260 0 -260 0c0 0 0 -80 0 -80c0 0 -68 0 -68 0c0 0 0 100 0 100c0 33.333 16 50 48 50c0 0 300 0 300 0c14.667 0 26.333 -4 35 -12c8.667 -8 13 -16 13 -24c0 0 2 -14 2 -14" />
  </g>
</svg>