<svg height="1000px" width="820px" xmlns="http://www.w3.org/2000/svg">
  <g>
    <path d="M186 710c0 0 116 -116 116 -116c0 0 0 292 0 292c0 0 -276 -16 -276 -16c0 0 88 -86 88 -86c-77.333 -81.333 -115.333 -178 -114 -290c1.333 -112 41.333 -208 120 -288c66.667 -66.667 146.667 -105.333 240 -116c0 0 4 102 4 102c-66.667 10.667 -124 40 -172 88c-58.667 58.667 -88.667 129.667 -90 213c-1.333 83.333 26.667 155.667 84 217c0 0 0 0 0 0m332 -598c0 0 276 16 276 16c0 0 -88 86 -88 86c77.333 81.333 115.333 178 114 290c-1.333 112 -41.333 208 -120 288c-64 65.333 -144 104.667 -240 118c0 0 -2 -104 -2 -104c65.333 -10.667 122 -40 170 -88c58.667 -58.667 88.667 -129.667 90 -213c1.333 -83.333 -26.667 -155.667 -84 -217c0 0 -114 116 -114 116c0 0 -2 -292 -2 -292" />
  </g>
</svg>