<svg height="1000px" width="939px" xmlns="http://www.w3.org/2000/svg">
  <g>
    <path d="M244 990c-68 0 -124.667 -24 -170 -72c-48 -46.667 -72.667 -102 -74 -166c-1.333 -64 26.667 -127.333 84 -190c0 0 496 -496 496 -496c53.333 -53.333 111.333 -71.333 174 -54c29.333 8 55.667 23.667 79 47c23.333 23.333 39 49.667 47 79c17.333 64 -0.667 122.667 -54 176c0 0 -474 474 -474 474c-26.667 26.667 -56 42 -88 46c-32 2.667 -58.667 -6.667 -80 -28c-20 -16 -29 -40.667 -27 -74c2 -33.333 17.667 -64 47 -92c0 0 332 -334 332 -334c16 -17.333 32.667 -17.333 50 0c17.333 17.333 17.333 34 0 50c0 0 -332 332 -332 332c-29.333 29.333 -36 52.667 -20 70c8 5.333 16 7.333 24 6c16 -2.667 31.333 -11.333 46 -26c0 0 474 -474 474 -474c33.333 -33.333 44.667 -69.333 34 -108c-10.667 -40 -36 -65.333 -76 -76c-36 -9.333 -72 2.667 -108 36c0 0 -494 494 -494 494c-44 50.667 -65.333 98.333 -64 143c1.333 44.667 18.667 83.667 52 117c33.333 32 72.333 48.667 117 50c44.667 1.333 91.667 -19.333 141 -62c0 0 496 -494 496 -494c16 -16 32.667 -16 50 0c17.333 14.667 17.333 30.667 0 48c0 0 -496 496 -496 496c-54.667 54.667 -116.667 82 -186 82c0 0 0 0 0 0" />
  </g>
</svg>