<svg height="1000px" width="940px" xmlns="http://www.w3.org/2000/svg">
  <g>
    <path d="M532 90c113.333 0 209.667 40 289 120c79.333 80 119 176.667 119 290c0 113.333 -39.667 210 -119 290c-79.333 80 -175.667 120 -289 120c-92 0 -176 -29.333 -252 -88c0 0 70 -76 70 -76c54.667 40 115.333 60 182 60c84 0 156 -30 216 -90c60 -60 90 -132 90 -216c0 -85.333 -30 -158 -90 -218c-60 -60 -132 -90 -216 -90c-82.667 0 -153.667 28.667 -213 86c-59.333 57.333 -90.333 127.333 -93 210c0 0 142 0 142 0c0 0 -184 206 -184 206c0 0 -184 -206 -184 -206c0 0 124 0 124 0c2.667 -110.667 43.667 -204.667 123 -282c79.333 -77.333 174.333 -116 285 -116c0 0 0 0 0 0m-36 190c0 0 70 0 70 0c0 0 0 204 0 204c0 0 130 130 130 130c0 0 -50 50 -50 50c0 0 -150 -150 -150 -150c0 0 0 -234 0 -234c0 0 0 0 0 0" />
  </g>
</svg>