<svg height="1000px" width="858.53125px" xmlns="http://www.w3.org/2000/svg">
  <g>
    <path d="M834.53125 182c18.667 17.333 26.667 37.333 24 60c0 0 -98 648 -98 648c-5.333 20 -18 30 -38 30c0 0 -586 0 -586 0c-18.667 0 -32 -10 -40 -30c-62.667 -413.333 -94.667 -629.333 -96 -648c-2.667 -22.667 4.667 -42.667 22 -60c4 -4 22 -18.333 54 -43c32 -24.667 50.667 -39 56 -43c12 -10.667 30.667 -16 56 -16c0 0 480 0 480 0c25.333 0 44 5.333 56 16c52 38.667 88.667 67.333 110 86c0 0 0 0 0 0m-406 436c37.333 0 70 -11.333 98 -34c28 -22.667 49 -52.333 63 -89c14 -36.667 24 -66.333 30 -89c6 -22.667 10.333 -44.667 13 -66c0 0 -92 0 -92 0c-25.333 125.333 -62.667 188 -112 188c-49.333 0 -86.667 -62.667 -112 -188c0 0 -92 0 -92 0c30.667 185.333 98.667 278 204 278c0 0 0 0 0 0m-352 -368c0 0 704 0 704 0c0 0 -110 -116 -110 -116c0 0 -484 0 -484 0c0 0 -110 116 -110 116" />
  </g>
</svg>