<svg height="1000px" width="1000px" xmlns="http://www.w3.org/2000/svg">
  <g>
    <path d="M770 500c0 65.333 12 117.667 36 157c24 39.333 50 59 78 59c0 0 66 0 66 0c-20 30.667 -41.333 52.333 -64 65c-22.667 12.667 -62 19 -118 19c0 0 -500 0 -500 0c-86.667 0 -153 -31.333 -199 -94c-46 -62.667 -69 -131.333 -69 -206c0 -73.333 23 -141.667 69 -205c46 -63.333 112.333 -95 199 -95c0 0 500 0 500 0c56 0 95.333 6.333 118 19c22.667 12.667 44 34.333 64 65c0 0 -66 0 -66 0c-28 0 -54 20 -78 60c-24 40 -36 92 -36 156c0 0 0 0 0 0m-136 90c6.667 -8 4 -16.667 -8 -26c-90.667 -89.333 -150 -144 -178 -164c-10.667 -6.667 -19.333 -11 -26 -13c-6.667 -2 -12.667 -0.333 -18 5c-5.333 5.333 -8.667 9.333 -10 12c-1.333 2.667 -4 8.667 -8 18c0 0 -22 56 -22 56c0 0 -148 -66 -148 -66c-17.333 -8 -28.667 -8 -34 0c-5.333 9.333 -2.667 18.667 8 28c90.667 88 150.667 142 180 162c22.667 10.667 36.667 14.333 42 11c5.333 -3.333 11.333 -13.667 18 -31c0 0 24 -58 24 -58c0 0 146 68 146 68c17.333 8 28.667 7.333 34 -2c0 0 0 0 0 0m310 -192c14.667 0 27.667 9 39 27c11.333 18 17 41.667 17 71c0 29.333 -5.667 53.333 -17 72c-11.333 18.667 -24.333 28 -39 28c0 0 -38 0 -38 0c-14.667 0 -27.333 -9.333 -38 -28c-10.667 -18.667 -16 -42.667 -16 -72c0 -29.333 5.333 -53 16 -71c10.667 -18 23.333 -27 38 -27c0 0 38 0 38 0c0 0 0 0 0 0" />
  </g>
</svg>