<svg height="1000px" width="1000px" xmlns="http://www.w3.org/2000/svg">
  <g>
    <path d="M404 464c37.333 0 65.667 13.333 85 40c19.333 26.667 29.667 53.333 31 80c0 0 0 40 0 40c0 37.333 -6.667 69.333 -20 96c-13.333 26.667 -30 46 -50 58c-20 12 -39.667 21 -59 27c-19.333 6 -35.667 9.667 -49 11c0 0 -20 0 -20 0c0 0 -322 0 -322 0c0 0 0 -646 0 -646c0 0 322 0 322 0c52 0 94.333 14.667 127 44c32.667 29.333 49 72 49 128c0 33.333 -7.667 60.333 -23 81c-15.333 20.667 -31 33 -47 37c0 0 -24 4 -24 4m-262 -180c0 0 0 144 0 144c0 0 170 0 170 0c17.333 0 30.667 -5 40 -15c9.333 -10 14 -30.333 14 -61c0 -20 -3.667 -35.667 -11 -47c-7.333 -11.333 -15 -17.667 -23 -19c0 0 -10 -2 -10 -2c0 0 -180 0 -180 0c0 0 0 0 0 0m172 416c49.333 0 74 -28 74 -84c0 -26.667 -5.333 -47.333 -16 -62c-10.667 -14.667 -21.333 -22.667 -32 -24c0 0 -18 -2 -18 -2c0 0 -180 0 -180 0c0 0 0 172 0 172c0 0 172 0 172 0c0 0 0 0 0 0m468 -366c46.667 0 86 9.667 118 29c32 19.333 54.333 42.667 67 70c12.667 27.333 21.667 54.667 27 82c5.333 27.333 7.333 50.333 6 69c0 0 -2 30 -2 30c0 0 -320 0 -320 0c0 36 9 63.333 27 82c18 18.667 36.333 28 55 28c0 0 26 2 26 2c30.667 0 54.333 -5.667 71 -17c16.667 -11.333 25.667 -22.333 27 -33c0 0 2 -18 2 -18c0 0 108 0 108 0c0 54.667 -17.667 96 -53 124c-35.333 28 -70.333 42.667 -105 44c0 0 -54 2 -54 2c-48 0 -88.667 -8.333 -122 -25c-33.333 -16.667 -57.333 -37.333 -72 -62c-14.667 -24.667 -25.667 -49 -33 -73c-7.333 -24 -11 -44 -11 -60c0 0 0 -26 0 -26c0 -6.667 0.333 -15.667 1 -27c0.667 -11.333 5.333 -31.333 14 -60c8.667 -28.667 20.667 -53.667 36 -75c15.333 -21.333 39.333 -41 72 -59c32.667 -18 71 -27 115 -27c0 0 0 0 0 0m98 194c0 -2.667 -0.333 -6.333 -1 -11c-0.667 -4.667 -2.667 -12.667 -6 -24c-3.333 -11.333 -7.667 -21.333 -13 -30c-5.333 -8.667 -14.667 -16.667 -28 -24c-13.333 -7.333 -28.667 -11 -46 -11c-28 0 -51.333 8.333 -70 25c-18.667 16.667 -30 33.667 -34 51c0 0 -6 24 -6 24c0 0 204 0 204 0c0 0 0 0 0 0m26 -320c0 0 0 78 0 78c0 0 -256 0 -256 0c0 0 0 -78 0 -78c0 0 256 0 256 0c0 0 0 0 0 0" />
  </g>
</svg>