<svg height="1000px" width="800.3359375px" xmlns="http://www.w3.org/2000/svg">
  <g>
    <path d="M632.234375 424c10.667 22.667 24 40 40 52c16 12 31 19.333 45 22c14 2.667 28.667 10.333 44 23c15.333 12.667 27 31 35 55c14.667 41.333 -10 95 -74 161c-64 66 -148 118.333 -252 157c-109.333 38.667 -208.333 53.667 -297 45c-88.667 -8.667 -140.333 -33.667 -155 -75c-13.333 -36 -9.333 -73 12 -111c21.333 -38 27.333 -75 18 -111c-37.333 -128 -53 -228 -47 -300c6 -72 43.667 -136 113 -192c17.333 -14.667 27 -31.667 29 -51c2 -19.333 11.667 -32.333 29 -39c16 -5.333 31.333 -1.333 46 12c14.667 13.333 33.333 19.333 56 18c88 -1.333 154 20.667 198 66c44 45.333 97.333 134.667 160 268c0 0 0 0 0 0m-186 404c58.667 -21.333 111.667 -49.667 159 -85c47.333 -35.333 80.667 -65.667 100 -91c19.333 -25.333 27.667 -42 25 -50c-5.333 -14.667 -21.667 -25.667 -49 -33c-27.333 -7.333 -68.667 -7.667 -124 -1c-55.333 6.667 -117.667 22.667 -187 48c-68 25.333 -125.667 54.333 -173 87c-47.333 32.667 -78.667 60.667 -94 84c-15.333 23.333 -21 41 -17 53c2.667 8 19.333 15.333 50 22c30.667 6.667 75.333 8 134 4c58.667 -4 117.333 -16.667 176 -38c0 0 0 0 0 0m-62 -174c5.333 -1.333 12.333 -3.667 21 -7c8.667 -3.333 14.333 -5.667 17 -7c0 0 2 2 2 2c9.333 26.667 3.667 54.333 -17 83c-20.667 28.667 -50.333 49.667 -89 63c-64 24 -114.667 19.333 -152 -14c52 -45.333 124.667 -85.333 218 -120c0 0 0 0 0 0" />
  </g>
</svg>