<svg height="1000px" width="900px" xmlns="http://www.w3.org/2000/svg">
  <g>
    <path d="M870 100c8 0 15 3 21 9c6 6 9 13 9 21c0 0 0 120 0 120c0 0 -900 0 -900 0c0 0 0 -120 0 -120c0 -8 3 -15 9 -21c6 -6 13 -9 21 -9c0 0 840 0 840 0c0 0 0 0 0 0m-820 730c0 0 0 -530 0 -530c0 0 800 0 800 0c0 0 0 530 0 530c0 20 -7 36.667 -21 50c-14 13.333 -30.333 20 -49 20c0 0 -660 0 -660 0c-18.667 0 -35 -6.667 -49 -20c-14 -13.333 -21 -30 -21 -50c0 0 0 0 0 0m250 -430c0 0 0 100 0 100c0 0 300 0 300 0c0 0 0 -100 0 -100c0 0 -300 0 -300 0c0 0 0 0 0 0" />
  </g>
</svg>