<svg height="1000px" width="1000px" xmlns="http://www.w3.org/2000/svg">
  <g>
    <path d="M456 524c0 0 0 100 0 100c0 0 -456 0 -456 0c5.333 -150.667 8.667 -248 10 -292c2.667 -72 36 -108 100 -108c0 0 160 0 160 0c10.667 -17.333 23 -39.667 37 -67c14 -27.333 21.667 -42.333 23 -45c9.333 -17.333 17 -28 23 -32c6 -4 18.333 -6 37 -6c0 0 222 0 222 0c17.333 0 29.333 2.333 36 7c6.667 4.667 14 15 22 31c12 21.333 32 58.667 60 112c0 0 160 0 160 0c64 0 97.333 36 100 108c0 0 10 292 10 292c0 0 -454 0 -454 0c0 0 0 -100 0 -100c0 0 -90 0 -90 0c0 0 0 0 0 0m-74 -354c0 0 -28 54 -28 54c0 0 292 0 292 0c0 0 -28 -54 -28 -54c-9.333 -17.333 -23.333 -26 -42 -26c0 0 -152 0 -152 0c-18.667 0 -32.667 8.667 -42 26c0 0 0 0 0 0m164 604c0 0 0 -100 0 -100c0 0 430 0 430 0c-4 58.667 -7.333 114 -10 166c-4 56 -34 84 -90 84c0 0 -750 0 -750 0c-60 0 -90 -28 -90 -84c0 0 -10 -166 -10 -166c0 0 430 0 430 0c0 0 0 100 0 100c0 0 90 0 90 0c0 0 0 0 0 0" />
  </g>
</svg>