<svg height="1000px" width="961.375px" xmlns="http://www.w3.org/2000/svg">
  <g>
    <path d="M118 680c25.333 -22.667 53.667 -32.333 85 -29c31.333 3.333 60.333 18.333 87 45c28 26.667 44 55.667 48 87c4 31.333 -6 59 -30 83c-57.333 56 -133.333 90 -228 102c-56 8 -82.667 3.333 -80 -14c0 -2.667 2 -6 6 -10c34.667 -40 56 -88.333 64 -145c8 -56.667 24 -96.333 48 -119c0 0 0 0 0 0m840 -646c17.333 17.333 -32 100 -148 248c-116 148 -213.333 260.667 -292 338c-25.333 25.333 -66.667 60 -124 104c-5.333 4 -10.667 1.333 -16 -8c-12 -22.667 -28 -44 -48 -64c-21.333 -21.333 -43.333 -37.333 -66 -48c-10.667 -4 -13.333 -9.333 -8 -16c42.667 -56 77.333 -96.667 104 -122c78.667 -77.333 193.333 -173 344 -287c150.667 -114 235.333 -162.333 254 -145c0 0 0 0 0 0" />
  </g>
</svg>