<svg height="1000px" width="1000px" xmlns="http://www.w3.org/2000/svg">
  <g>
    <path d="M500 400c42.667 0 78.333 14.667 107 44c28.667 29.333 43 64.667 43 106c0 41.333 -14.667 76.667 -44 106c-29.333 29.333 -64.667 44 -106 44c-41.333 0 -76.667 -14.667 -106 -44c-29.333 -29.333 -44 -64.667 -44 -106c0 -41.333 14.667 -76.667 44 -106c29.333 -29.333 64.667 -44 106 -44c0 0 0 0 0 0m400 -150c28 0 51.667 9.667 71 29c19.333 19.333 29 43 29 71c0 0 0 450 0 450c0 26.667 -9.667 50 -29 70c-19.333 20 -43 30 -71 30c0 0 -800 0 -800 0c-26.667 0 -50 -10 -70 -30c-20 -20 -30 -43.333 -30 -70c0 0 0 -450 0 -450c0 -28 10 -51.667 30 -71c20 -19.333 43.333 -29 70 -29c0 0 120 0 120 0c18.667 0 32 -10 40 -30c0 0 30 -92 30 -92c6.667 -18.667 20 -28 40 -28c0 0 340 0 340 0c20 0 33.333 9.333 40 28c0 0 30 92 30 92c8 20 21.333 30 40 30c0 0 120 0 120 0c0 0 0 0 0 0m-400 550c69.333 0 128.333 -24.333 177 -73c48.667 -48.667 73 -107.667 73 -177c0 -69.333 -24.333 -128.333 -73 -177c-48.667 -48.667 -107.667 -73 -177 -73c-69.333 0 -128.333 24.333 -177 73c-48.667 48.667 -73 107.667 -73 177c0 69.333 24.333 128.333 73 177c48.667 48.667 107.667 73 177 73c0 0 0 0 0 0m366 -380c9.333 0 17.333 -3.667 24 -11c6.667 -7.333 10 -15.667 10 -25c0 -9.333 -3.333 -17.333 -10 -24c-6.667 -6.667 -14.667 -10 -24 -10c-24 0 -36 11.333 -36 34c0 10.667 3.667 19.333 11 26c7.333 6.667 15.667 10 25 10c0 0 0 0 0 0" />
  </g>
</svg>