<svg height="1000px" width="840px" xmlns="http://www.w3.org/2000/svg">
  <g>
    <path d="M420 80c116 0 215 41 297 123c82 82 123 181 123 297c0 116 -41 215 -123 297c-82 82 -181 123 -297 123c-116 0 -215 -41 -297 -123c-82 -82 -123 -181 -123 -297c0 -116 41 -215 123 -297c82 -82 181 -123 297 -123c0 0 0 0 0 0m86 420c0 0 154 -154 154 -154c0 0 -86 -86 -86 -86c0 0 -154 152 -154 152c0 0 -152 -152 -152 -152c0 0 -88 86 -88 86c0 0 154 154 154 154c0 0 -154 152 -154 152c0 0 88 86 88 86c0 0 152 -152 152 -152c0 0 154 152 154 152c0 0 86 -86 86 -86c0 0 -154 -152 -154 -152" />
  </g>
</svg>