<svg height="1000px" width="960px" xmlns="http://www.w3.org/2000/svg">
  <g>
    <path d="M480 20c133.333 0 246.667 46.667 340 140c93.333 93.333 140 206.667 140 340c0 132 -46.667 245 -140 339c-93.333 94 -206.667 141 -340 141c-132 0 -245 -47 -339 -141c-94 -94 -141 -207 -141 -339c0 -133.333 47 -246.667 141 -340c94 -93.333 207 -140 339 -140c0 0 0 0 0 0m-370 350c-14.667 41.333 -22 84.667 -22 130c0 108 38.333 200.333 115 277c76.667 76.667 169 115 277 115c73.333 0 140.667 -18.667 202 -56c61.333 -37.333 108.667 -86.667 142 -148c0 0 -178 -80 -178 -80c-5.333 30.667 -20.667 55.333 -46 74c-25.333 20 -54 31.333 -86 34c0 0 0 74 0 74c0 0 -56 0 -56 0c0 0 0 -74 0 -74c-52 0 -100.667 -19.333 -146 -58c0 0 66 -66 66 -66c33.333 29.333 69.333 44 108 44c16 0 30 -4 42 -12c12 -8 18 -20 18 -36c0 -12 -4.667 -22 -14 -30c0 0 -46 -20 -46 -20c0 0 -56 -26 -56 -26c0 0 -76 -32 -76 -32c0 0 -244 -110 -244 -110m506 122c0 0 242 108 242 108c9.333 -29.333 14 -62.667 14 -100c0 -109.333 -38.333 -202 -115 -278c-76.667 -76 -169 -114 -277 -114c-68 0 -130.667 16 -188 48c-57.333 32 -104 75.333 -140 130c0 0 182 82 182 82c8 -24 23.333 -44.667 46 -62c21.333 -14.667 47.333 -22.667 78 -24c0 0 0 -74 0 -74c0 0 56 0 56 0c0 0 0 74 0 74c45.333 2.667 85.333 17.333 120 44c0 0 -62 64 -62 64c-29.333 -18.667 -57.333 -28 -84 -28c-16 0 -28.667 2.667 -38 8c-12 6.667 -18 16.667 -18 30c0 5.333 1.333 9.333 4 12c0 0 60 28 60 28c0 0 42 18 42 18c0 0 78 34 78 34" />
  </g>
</svg>