<svg height="1000px" width="960px" xmlns="http://www.w3.org/2000/svg">
  <g>
    <path d="M480 20c133.333 0 246.667 46.667 340 140c93.333 93.333 140 206.667 140 340c0 132 -46.667 245 -140 339c-93.333 94 -206.667 141 -340 141c-132 0 -245 -47 -339 -141c-94 -94 -141 -207 -141 -339c0 -133.333 47 -246.667 141 -340c94 -93.333 207 -140 339 -140c0 0 0 0 0 0m-370 352c-14.667 41.333 -22 84 -22 128c0 108 38.333 200.333 115 277c76.667 76.667 169 115 277 115c73.333 0 140.333 -18.333 201 -55c60.667 -36.667 108.333 -86.333 143 -149c0 0 -246 -108 -246 -108c0 0 -174 0 -174 0c6.667 24 15.333 42.667 26 56c25.333 26.667 60 40 104 40c30.667 0 61.333 -6.667 92 -20c0 0 18 90 18 90c-37.333 20 -78.667 30 -124 30c-85.333 0 -150.667 -30.667 -196 -92c-22.667 -29.333 -38 -64 -46 -104c0 0 -52 0 -52 0c0 0 0 -58 0 -58c0 0 44 0 44 0c0 0 0 -14 0 -14c0 -2.667 0.333 -6.667 1 -12c0.667 -5.333 1 -9.333 1 -12c0 0 -46 0 -46 0c0 0 0 -56 0 -56c0 0 10 0 10 0c0 0 -126 -56 -126 -56m488 112c0 0 262 116 262 116c8 -32 12 -65.333 12 -100c0 -109.333 -38.333 -202 -115 -278c-76.667 -76 -169 -114 -277 -114c-68 0 -131 16 -189 48c-58 32 -105 75.333 -141 130c0 0 158 70 158 70c5.333 -9.333 14.667 -22 28 -38c48 -54.667 109.333 -82 184 -82c46.667 0 87.333 8 122 24c0 0 -24 92 -24 92c-26.667 -13.333 -56 -20 -88 -20c-42.667 0 -76 14.667 -100 44c-6.667 6.667 -12 16 -16 28c0 0 56 24 56 24c0 0 136 0 136 0c0 0 0 56 0 56c0 0 -8 0 -8 0c0 0 0 0 0 0" />
  </g>
</svg>