<svg height="1000px" width="960px" xmlns="http://www.w3.org/2000/svg">
  <g>
    <path d="M480 20c133.333 0 246.667 46.667 340 140c93.333 93.333 140 206.667 140 340c0 132 -46.667 245 -140 339c-93.333 94 -206.667 141 -340 141c-132 0 -245 -47 -339 -141c-94 -94 -141 -207 -141 -339c0 -133.333 47 -246.667 141 -340c94 -93.333 207 -140 339 -140c0 0 0 0 0 0m-374 364c-12 36 -18 74.667 -18 116c0 108 38.333 200.333 115 277c76.667 76.667 169 115 277 115c70.667 0 135.667 -17.333 195 -52c59.333 -34.667 106.333 -81.333 141 -140c0 0 -152 -68 -152 -68c0 0 0 68 0 68c0 0 -126 0 -126 0c0 0 0 108 0 108c0 0 -118 0 -118 0c0 0 0 -108 0 -108c0 0 -124 0 -124 0c0 0 0 -74 0 -74c0 0 124 0 124 0c0 0 0 -36 0 -36c0 0 -12 -24 -12 -24c0 0 -112 0 -112 0c0 0 0 -74 0 -74c0 0 54 0 54 0c0 0 -244 -108 -244 -108m432 242c0 0 112 0 112 0c0 0 -106 -48 -106 -48c0 0 -6 12 -6 12c0 0 0 36 0 36c0 0 0 0 0 0m126 -100c0 0 192 86 192 86c10.667 -38.667 16 -76 16 -112c0 -109.333 -38.333 -202 -115 -278c-76.667 -76 -169 -114 -277 -114c-70.667 0 -135.333 17 -194 51c-58.667 34 -105.333 79.667 -140 137c0 0 158 70 158 70c0 0 -54 -98 -54 -98c0 0 128 0 128 0c0 0 76 166 76 166c0 0 46 20 46 20c0 0 82 -186 82 -186c0 0 128 0 128 0c0 0 -122 224 -122 224c0 0 76 0 76 0c0 0 0 34 0 34c0 0 0 0 0 0" />
  </g>
</svg>