<svg height="1000px" width="960px" xmlns="http://www.w3.org/2000/svg">
  <g>
    <path d="M480 20c133.333 0 246.667 46.667 340 140c93.333 93.333 140 206.667 140 340c0 132 -46.667 245 -140 339c-93.333 94 -206.667 141 -340 141c-132 0 -245 -47 -339 -141c-94 -94 -141 -207 -141 -339c0 -133.333 47 -246.667 141 -340c94 -93.333 207 -140 339 -140c0 0 0 0 0 0m-370 352c-14.667 41.333 -22 84 -22 128c0 108 38.333 200.333 115 277c76.667 76.667 169 115 277 115c73.333 0 140.333 -18.333 201 -55c60.667 -36.667 108.333 -86.333 143 -149c0 0 -424 -188 -424 -188c1.333 36 10.667 68 28 96c17.333 28 42.667 42 76 42c24 0 45.333 -8.667 64 -26c0 0 6 -6 6 -6c0 0 70 84 70 84c-2.667 1.333 -6 3.667 -10 7c-4 3.333 -6.667 6.333 -8 9c-41.333 28 -86.667 42 -136 42c-57.333 0 -110.333 -19.333 -159 -58c-48.667 -38.667 -73 -101.333 -73 -188c0 -21.333 2 -42 6 -62c0 0 -154 -68 -154 -68m310 34c0 0 440 194 440 194c8 -32 12 -65.333 12 -100c0 -109.333 -38.333 -202 -115 -278c-76.667 -76 -169 -114 -277 -114c-68 0 -131 16 -189 48c-58 32 -105 75.333 -141 130c0 0 148 66 148 66c42.667 -68 108 -102 196 -102c58.667 0 108.667 18 150 54c0 0 -78 80 -78 80c-5.333 -5.333 -10 -9.333 -14 -12c-14.667 -10.667 -32 -16 -52 -16c-34.667 0 -61.333 16.667 -80 50c0 0 0 0 0 0" />
  </g>
</svg>