<svg height="1000px" width="960px" xmlns="http://www.w3.org/2000/svg">
  <g>
    <path d="M676 362c8 0 14.667 2.667 20 8c5.333 5.333 8 11.333 8 18c0 0 0 354 0 354c0 6.667 -2.667 12.667 -8 18c-5.333 5.333 -12 8 -20 8c0 0 -260 0 -260 0c-8 0 -14.667 -2.667 -20 -8c-5.333 -5.333 -8 -11.333 -8 -18c0 0 0 -104 0 -104c0 0 -104 0 -104 0c-6.667 0 -12.667 -2.667 -18 -8c-5.333 -5.333 -8 -12 -8 -20c0 0 0 -352 0 -352c0 -8 2 -14 6 -18c2.667 -4 8.667 -7.333 18 -10c0 0 264 0 264 0c6.667 0 12.667 2.667 18 8c5.333 5.333 8 12 8 20c0 0 0 104 0 104c0 0 104 0 104 0c0 0 0 0 0 0m-264 0c0 0 108 0 108 0c0 0 0 -78 0 -78c0 0 -210 0 -210 0c0 0 0 300 0 300c0 0 78 0 78 0c0 0 0 -196 0 -196c0 -6.667 2.667 -12.667 8 -18c2.667 -2.667 8 -5.333 16 -8c0 0 0 0 0 0m238 354c0 0 0 -302 0 -302c0 0 -210 0 -210 0c0 0 0 302 0 302c0 0 210 0 210 0c0 0 0 0 0 0m-170 -696c133.333 0 246.667 46.667 340 140c93.333 93.333 140 206.667 140 340c0 132 -46.667 245 -140 339c-93.333 94 -206.667 141 -340 141c-132 0 -245 -47 -339 -141c-94 -94 -141 -207 -141 -339c0 -133.333 47 -246.667 141 -340c94 -93.333 207 -140 339 -140c0 0 0 0 0 0m0 872c108 0 200.333 -38.333 277 -115c76.667 -76.667 115 -169 115 -277c0 -109.333 -38.333 -202 -115 -278c-76.667 -76 -169 -114 -277 -114c-108 0 -200.333 38 -277 114c-76.667 76 -115 168.667 -115 278c0 108 38.333 200.333 115 277c76.667 76.667 169 115 277 115c0 0 0 0 0 0" />
  </g>
</svg>