<svg height="1000px" width="960px" xmlns="http://www.w3.org/2000/svg">
  <g>
    <path d="M478 246c76 0 136 24.667 180 74c44 48 66 110 66 186c0 73.333 -22.667 134.667 -68 184c-49.333 49.333 -109.333 74 -180 74c-53.333 0 -100.667 -16.667 -142 -50c-38.667 -32 -62 -78 -70 -138c0 0 120 0 120 0c4 57.333 39.333 86 106 86c33.333 0 60.667 -14 82 -42c20 -29.333 30 -68.667 30 -118c0 -50.667 -9.333 -89.333 -28 -116c-20 -26.667 -47.333 -40 -82 -40c-64 0 -100 28.667 -108 86c0 0 36 0 36 0c0 0 -96 94 -96 94c0 0 -94 -94 -94 -94c0 0 36 0 36 0c9.333 -60 33.333 -106 72 -138c38.667 -32 85.333 -48 140 -48c0 0 0 0 0 0m2 -226c133.333 0 246.667 46.667 340 140c93.333 93.333 140 206.667 140 340c0 132 -46.667 245 -140 339c-93.333 94 -206.667 141 -340 141c-132 0 -245 -47 -339 -141c-94 -94 -141 -207 -141 -339c0 -133.333 47 -246.667 141 -340c94 -93.333 207 -140 339 -140c0 0 0 0 0 0m0 872c108 0 200.333 -38.333 277 -115c76.667 -76.667 115 -169 115 -277c0 -109.333 -38.333 -202 -115 -278c-76.667 -76 -169 -114 -277 -114c-108 0 -200.333 38 -277 114c-76.667 76 -115 168.667 -115 278c0 108 38.333 200.333 115 277c76.667 76.667 169 115 277 115c0 0 0 0 0 0" />
  </g>
</svg>