<svg height="1000px" width="960px" xmlns="http://www.w3.org/2000/svg">
  <g>
    <path d="M480 222c72 0 123 27 153 81c30 54 45 119.667 45 197c0 76 -15 141 -45 195c-30 54 -81 81 -153 81c-72 0 -123 -27 -153 -81c-30 -54 -45 -119 -45 -195c0 -77.333 15 -143 45 -197c30 -54 81 -81 153 -81c0 0 0 0 0 0m-86 278c0 12 1.333 34 4 66c0 0 106 -194 106 -194c9.333 -16 7.333 -30 -6 -42c-8 -2.667 -14 -4 -18 -4c-57.333 0 -86 58 -86 174c0 0 0 0 0 0m86 172c57.333 0 86 -57.333 86 -172c0 -26.667 -2 -54.667 -6 -84c0 0 -118 204 -118 204c-14.667 20 -10.667 35.333 12 46c1.333 1.333 3.333 2 6 2c1.333 0 2 0.667 2 2c1.333 0 4 0.333 8 1c4 0.667 7.333 1 10 1c0 0 0 0 0 0m0 -652c133.333 0 246.667 46.667 340 140c93.333 93.333 140 206.667 140 340c0 132 -46.667 245 -140 339c-93.333 94 -206.667 141 -340 141c-132 0 -245 -47 -339 -141c-94 -94 -141 -207 -141 -339c0 -133.333 47 -246.667 141 -340c94 -93.333 207 -140 339 -140c0 0 0 0 0 0m0 872c108 0 200.333 -38.333 277 -115c76.667 -76.667 115 -169 115 -277c0 -109.333 -38.333 -202 -115 -278c-76.667 -76 -169 -114 -277 -114c-108 0 -200.333 38 -277 114c-76.667 76 -115 168.667 -115 278c0 108 38.333 200.333 115 277c76.667 76.667 169 115 277 115c0 0 0 0 0 0" />
  </g>
</svg>