<svg height="1000px" width="979.8173828125px" xmlns="http://www.w3.org/2000/svg">
  <g>
    <path d="M963.8173828125 118c10.667 -14.667 16 -13.333 16 4c0 0 0 768 0 768c0 0 -964 0 -964 0c-8 0 -13 -2.333 -15 -7c-2 -4.667 -0.333 -10.333 5 -17c0 0 230 -288 230 -288c13.333 -14.667 26.667 -15.333 40 -2c0 0 74 66 74 66c6.667 5.333 13.667 7.667 21 7c7.333 -0.667 13 -4.333 17 -11c0 0 158 -238 158 -238c10.667 -17.333 23.333 -18.667 38 -4c0 0 112 104 112 104c13.333 13.333 26 12 38 -4c0 0 230 -378 230 -378" />
  </g>
</svg>