<svg height="1000px" width="1003.26513671875px" xmlns="http://www.w3.org/2000/svg">
  <g>
    <path d="M33.75 566c-28 -6.667 -38.667 -25.333 -32 -56c6.667 -28 24.667 -38.667 54 -32c0 0 98 24 98 24c0 0 -52 80 -52 80c0 0 -68 -16 -68 -16m890 12c9.333 -8 20.333 -11.667 33 -11c12.667 0.667 23 5.667 31 15c21.333 21.333 20.667 42.667 -2 64c0 0 -252 226 -252 226c-8 8 -18 12 -30 12c-9.333 0 -18.667 -3.333 -28 -10c0 0 -286 -220 -286 -220c0 0 -54 -14 -54 -14c0 0 50 -80 50 -80c0 0 36 8 36 8c8 2.667 13.333 5.333 16 8c0 0 264 204 264 204c0 0 222 -202 222 -202m-490 -220c0 0 -350 550 -350 550c-8 14.667 -20.667 22 -38 22c-8 0 -16 -2.667 -24 -8c-10.667 -6.667 -17.333 -16.333 -20 -29c-2.667 -12.667 -0.667 -23.667 6 -33c0 0 374 -588 374 -588c5.333 -10.667 14.667 -17.333 28 -20c12 -4 24 -2 36 6c0 0 246 156 246 156c0 0 226 -326 226 -326c6.667 -10.667 16 -17 28 -19c12 -2 23.333 1 34 9c25.333 16 29.333 36.667 12 62c0 0 -252 362 -252 362c-16 24 -36.667 28 -62 12c0 0 -244 -156 -244 -156" />
  </g>
</svg>