<svg height="1000px" width="1000px" xmlns="http://www.w3.org/2000/svg">
  <g>
    <path d="M760 356c66.667 0 123.333 22.667 170 68c46.667 45.333 70 100.667 70 166c0 65.333 -23.333 120.667 -70 166c-46.667 45.333 -103.333 68 -170 68c0 0 -578 0 -578 0c-49.333 0 -92 -17.333 -128 -52c-36 -34.667 -54 -76 -54 -124c0 -49.333 17.667 -91.333 53 -126c35.333 -34.667 78.333 -52 129 -52c1.333 0 4.667 0.333 10 1c5.333 0.667 8.667 1 10 1c-1.333 -8 -2 -20.667 -2 -38c0 -72 26 -133.333 78 -184c52 -50.667 114.667 -76 188 -76c60 0 113.333 17.333 160 52c46.667 34.667 78 79.333 94 134c18.667 -2.667 32 -4 40 -4c0 0 0 0 0 0" />
  </g>
</svg>