<svg height="1000px" width="1000px" xmlns="http://www.w3.org/2000/svg">
  <g>
    <path d="M760 356c66.667 0 123.333 22.667 170 68c46.667 45.333 70 100.667 70 166c0 65.333 -23.333 120.667 -70 166c-46.667 45.333 -103.333 68 -170 68c0 0 -578 0 -578 0c-49.333 0 -92 -17.333 -128 -52c-36 -34.667 -54 -76 -54 -124c0 -49.333 17.667 -91.333 53 -126c35.333 -34.667 78.333 -52 129 -52c1.333 0 4.667 0.333 10 1c5.333 0.667 8.667 1 10 1c-1.333 -8 -2 -20.667 -2 -38c0 -72 26 -133.333 78 -184c52 -50.667 114.667 -76 188 -76c60 0 113.333 17.333 160 52c46.667 34.667 78 79.333 94 134c18.667 -2.667 32 -4 40 -4c0 0 0 0 0 0m-192 216c9.333 -10.667 14 -20.667 14 -30c0 -13.333 -10 -24 -30 -32c0 0 -4 0 -4 0c-17.333 -9.333 -30 -14.667 -38 -16c0 0 50 -116 50 -116c4 0 6 -6.667 6 -20c0 -9.333 -2.667 -15.333 -8 -18c-10.667 -6.667 -22 -4 -34 8c-1.333 1.333 -11.333 12 -30 32c-18.667 20 -39 42 -61 66c-22 24 -37 41.333 -45 52c-8 12 -12 22 -12 30c0 14.667 10 24.667 30 30c0 0 4 2 4 2c5.333 2.667 18 8 38 16c0 0 -52 114 -52 114c0 0 -2 8 -2 8c-1.333 5.333 -2 10 -2 14c0 6.667 2.667 12.667 8 18c12 6.667 23.333 3.333 34 -10c66.667 -66.667 111.333 -116 134 -148c0 0 0 0 0 0" />
  </g>
</svg>