<svg height="1000px" width="840px" xmlns="http://www.w3.org/2000/svg">
  <g>
    <path d="M760 500c0 48 26.667 88.667 80 122c-8 26.667 -19.333 54 -34 82c-46.667 -12 -92 2.667 -136 44c-36 38.667 -47.333 84 -34 136c-26.667 13.333 -54.667 25.333 -84 36c-30.667 -54.667 -74.667 -82 -132 -82c-57.333 0 -101.333 27.333 -132 82c-29.333 -10.667 -57.333 -22.667 -84 -36c13.333 -53.333 2 -98.667 -34 -136c-36 -36 -81.333 -47.333 -136 -34c-9.333 -17.333 -20.667 -44.667 -34 -82c54.667 -34.667 82 -78.667 82 -132c0 -48 -27.333 -89.333 -82 -124c13.333 -37.333 24.667 -64.667 34 -82c49.333 12 94.667 -2.667 136 -44c36 -37.333 47.333 -82.667 34 -136c28 -14.667 56 -26 84 -34c30.667 53.333 74.667 80 132 80c57.333 0 101.333 -26.667 132 -80c28 8 56 19.333 84 34c-13.333 52 -2 97.333 34 136c44 41.333 89.333 56 136 44c14.667 28 26 55.333 34 82c-53.333 33.333 -80 74.667 -80 124c0 0 0 0 0 0m-340 182c50.667 0 93.667 -17.667 129 -53c35.333 -35.333 53 -78.333 53 -129c0 -50.667 -17.667 -94 -53 -130c-35.333 -36 -78.333 -54 -129 -54c-50.667 0 -93.667 18 -129 54c-35.333 36 -53 79.333 -53 130c0 50.667 17.667 93.667 53 129c35.333 35.333 78.333 53 129 53c0 0 0 0 0 0" />
  </g>
</svg>