<svg height="1000px" width="680.34765625px" xmlns="http://www.w3.org/2000/svg">
  <g>
    <path d="M340 90c101.333 0 184.333 13.667 249 41c64.667 27.333 95 56.333 91 87c0 0 -72 594 -72 594c-1.333 9.333 -12.667 21.333 -34 36c-21.333 14.667 -53.667 28.667 -97 42c-43.333 13.333 -89 20 -137 20c-48 0 -93.333 -6.667 -136 -20c-42.667 -13.333 -75 -27.333 -97 -42c-22 -14.667 -33.667 -26.667 -35 -36c0 0 -72 -594 -72 -594c-2.667 -18.667 9.333 -37.667 36 -57c26.667 -19.333 67 -36 121 -50c54 -14 115 -21 183 -21c0 0 0 0 0 0m0 216c48 0 93.667 -5 137 -15c43.333 -10 76 -21 98 -33c22 -12 33 -22 33 -30c0 -8 -11 -17.667 -33 -29c-22 -11.333 -54.667 -22 -98 -32c-43.333 -10 -89 -15 -137 -15c-48 0 -93.667 5 -137 15c-43.333 10 -76 20.667 -98 32c-22 11.333 -33 21 -33 29c0 8 11 18 33 30c22 12 54.667 23 98 33c43.333 10 89 15 137 15c0 0 0 0 0 0" />
  </g>
</svg>