<svg height="1000px" width="940px" xmlns="http://www.w3.org/2000/svg">
  <g>
    <path d="M408 90c112 0 207.667 38.667 287 116c79.333 77.333 120.333 171.333 123 282c0 0 122 0 122 0c0 0 -184 206 -184 206c0 0 -184 -206 -184 -206c0 0 144 0 144 0c-2.667 -82.667 -34 -152.667 -94 -210c-60 -57.333 -131.333 -86 -214 -86c-84 0 -156 30 -216 90c-60 60 -90 132.667 -90 218c0 84 30 156 90 216c60 60 132 90 216 90c69.333 0 130 -20 182 -60c0 0 70 76 70 76c-73.333 58.667 -157.333 88 -252 88c-112 0 -208 -40 -288 -120c-80 -80 -120 -176.667 -120 -290c0 -113.333 40 -210 120 -290c80 -80 176 -120 288 -120c0 0 0 0 0 0" />
  </g>
</svg>