<svg height="1000px" width="700px" xmlns="http://www.w3.org/2000/svg">
  <g>
    <path d="M686 642c9.333 -13.333 14 -12.667 14 2c0 0 0 100 0 100c0 49.333 -34.667 94.333 -104 135c-69.333 40.667 -151.333 61 -246 61c-93.333 0 -175 -20.333 -245 -61c-70 -40.667 -105 -85.667 -105 -135c0 0 0 -100 0 -100c0 -5.333 1.333 -8.667 4 -10c2.667 -1.333 6 1.333 10 8c21.333 34.667 63 63.333 125 86c62 22.667 132.333 34 211 34c78.667 0 149 -11.333 211 -34c62 -22.667 103.667 -51.333 125 -86c0 0 0 0 0 0m2 -254c5.333 -10.667 9.333 -10.667 12 0c0 0 0 116 0 116c0 45.333 -34 83.333 -102 114c-68 30.667 -150.667 46 -248 46c-96 0 -178.333 -15.333 -247 -46c-68.667 -30.667 -103 -68.667 -103 -114c0 0 0 -116 0 -116c0 -13.333 4.667 -13.333 14 0c20 30.667 61.333 55.667 124 75c62.667 19.333 133.333 29 212 29c78.667 0 149.333 -9.667 212 -29c62.667 -19.333 104.667 -44.333 126 -75c0 0 0 0 0 0m-338 -328c96 0 178.333 13 247 39c68.667 26 103 57 103 93c0 0 0 64 0 64c0 38.667 -34.333 71.667 -103 99c-68.667 27.333 -151 41 -247 41c-96 0 -178.333 -13.667 -247 -41c-68.667 -27.333 -103 -60.333 -103 -99c0 0 0 -64 0 -64c0 -36 34.333 -67 103 -93c68.667 -26 151 -39 247 -39c0 0 0 0 0 0" />
  </g>
</svg>