<svg height="1000px" width="860.125px" xmlns="http://www.w3.org/2000/svg">
  <g>
    <path d="M848 82c5.333 5.333 9 10.667 11 16c2 5.333 1.333 12.667 -2 22c-3.333 9.333 -6.667 18 -10 26c-3.333 8 -9.667 21 -19 39c-9.333 18 -17.333 34.333 -24 49c-36 74.667 -85 170 -147 286c-62 116 -114.333 213.333 -157 292c0 0 -66 118 -66 118c0 0 -54 -380 -54 -380c0 0 -380 -56 -380 -56c294.667 -164 526.667 -286.667 696 -368c13.333 -6.667 29.333 -15 48 -25c18.667 -10 31.667 -16.667 39 -20c7.333 -3.333 15.667 -6.333 25 -9c9.333 -2.667 17 -3 23 -1c6 2 11.667 5.667 17 11c0 0 0 0 0 0m-92 96c0 0 -304 280 -304 280c0 0 28 234 28 234c0 0 276 -514 276 -514" />
  </g>
</svg>