<svg height="1000px" width="570px" xmlns="http://www.w3.org/2000/svg">
  <g>
    <path d="M110 390c30.667 0 56.667 10.667 78 32c21.333 21.333 32 47.333 32 78c0 29.333 -10.667 55 -32 77c-21.333 22 -47.333 33 -78 33c-30.667 0 -56.667 -10.667 -78 -32c-21.333 -21.333 -32 -47.333 -32 -78c0 -30.667 10.667 -56.667 32 -78c21.333 -21.333 47.333 -32 78 -32c0 0 0 0 0 0m350 0c30.667 0 56.667 10.667 78 32c21.333 21.333 32 47.333 32 78c0 29.333 -11 55 -33 77c-22 22 -47.667 33 -77 33c-30.667 0 -56.667 -10.667 -78 -32c-21.333 -21.333 -32 -47.333 -32 -78c0 -30.667 10.667 -56.667 32 -78c21.333 -21.333 47.333 -32 78 -32c0 0 0 0 0 0" />
  </g>
</svg>