<svg height="1000px" width="920px" xmlns="http://www.w3.org/2000/svg">
  <g>
    <path d="M460 40c126.667 0 235 45 325 135c90 90 135 198.333 135 325c0 126.667 -45 235 -135 325c-90 90 -198.333 135 -325 135c-126.667 0 -235 -45 -325 -135c-90 -90 -135 -198.333 -135 -325c0 -126.667 45 -235 135 -325c90 -90 198.333 -135 325 -135c0 0 0 0 0 0m0 820c98.667 0 183.333 -35.333 254 -106c70.667 -70.667 106 -155.333 106 -254c0 -100 -35.333 -185 -106 -255c-70.667 -70 -155.333 -105 -254 -105c-98.667 0 -183.333 35 -254 105c-70.667 70 -106 155 -106 255c0 98.667 35.333 183.333 106 254c70.667 70.667 155.333 106 254 106c0 0 0 0 0 0m90 -554c0 0 0 206 0 206c0 0 112 0 112 0c0 0 -202 190 -202 190c0 0 -202 -190 -202 -190c0 0 112 0 112 0c0 0 0 -206 0 -206c0 0 180 0 180 0c0 0 0 0 0 0" />
  </g>
</svg>