<svg height="1000px" width="920px" xmlns="http://www.w3.org/2000/svg">
  <g>
    <path d="M438 370c-20 -36 -42 -72.333 -66 -109c-24 -36.667 -42.667 -64.667 -56 -84c-13.333 -19.333 -21.333 -30.333 -24 -33c-54.667 26.667 -101 64 -139 112c-38 48 -63.667 102 -77 162c121.333 0 242 -16 362 -48c0 0 0 0 0 0m50 132c5.333 -2.667 10 -4 14 -4c-6.667 -18.667 -17.333 -41.333 -32 -68c-121.333 37.333 -255.333 56 -402 56c0 0 0 14 0 14c0 100 33.333 187.333 100 262c2.667 -5.333 7 -12.333 13 -21c6 -8.667 19 -25.333 39 -50c20 -24.667 41.333 -47.667 64 -69c22.667 -21.333 52.333 -43.333 89 -66c36.667 -22.667 75 -40.667 115 -54c0 0 0 0 0 0m-270 306c-1.333 0 -2.667 -0.667 -4 -2c0 0 -4 -4 -4 -4c0 0 8 6 8 6m148 -690c0 0 0 0 0 0m354 86c-76 -65.333 -162.667 -98 -260 -98c-32 0 -62.667 4 -92 12c54.667 72 103.333 148 146 228c92 -34.667 160 -81.333 204 -140c0 0 2 -2 2 -2m-260 756c-126.667 0 -235 -45 -325 -135c-90 -90 -135 -198.333 -135 -325c0 -126.667 45 -235 135 -325c90 -90 198.333 -135 325 -135c126.667 0 235 45 325 135c90 90 135 198.333 135 325c0 126.667 -45 235 -135 325c-90 90 -198.333 135 -325 135c0 0 0 0 0 0m68 -396c-144 49.333 -246.667 130 -308 242c0 0 -2 2 -2 2c73.333 56 154 84 242 84c52 0 103.333 -10.667 154 -32c-16 -93.333 -44 -192.667 -84 -298c0 0 -2 2 -2 2m16 -158c8 16 16.667 34.667 26 56c1.333 1.333 3 4.333 5 9c2 4.667 3.667 8.333 5 11c44 -5.333 87 -6.667 129 -4c42 2.667 75.667 6 101 10c25.333 4 39.333 6.667 42 8c0 -92 -29.333 -174 -88 -246c0 0 -8 10 -8 10c-5.333 6.667 -14 15.667 -26 27c-12 11.333 -26 23.333 -42 36c-16 12.667 -36.667 26.667 -62 42c-25.333 15.333 -52.667 29 -82 41c0 0 0 0 0 0m60 138c34.667 98.667 60 192 76 280c93.333 -61.333 149.333 -148.667 168 -262c-5.333 -2.667 -18.333 -6.333 -39 -11c-20.667 -4.667 -50 -8.667 -88 -12c-38 -3.333 -77 -1.667 -117 5c0 0 0 0 0 0" />
  </g>
</svg>