<svg height="1000px" width="1002px" xmlns="http://www.w3.org/2000/svg">
  <g>
    <path d="M902 150c28 0 51.667 9.667 71 29c19.333 19.333 29 43 29 71c0 0 0 500 0 500c0 26.667 -9.667 50 -29 70c-19.333 20 -43 30 -71 30c0 0 -478 0 -478 0c-25.333 0 -48.667 -9.333 -70 -28c0 0 -340 -296 -340 -296c-18.667 -17.333 -18.667 -35.333 0 -54c0 0 340 -296 340 -296c20 -17.333 43.333 -26 70 -26c0 0 478 0 478 0c0 0 0 0 0 0m-140 550c0 0 72 -74 72 -74c0 0 -128 -126 -128 -126c0 0 128 -128 128 -128c0 0 -72 -72 -72 -72c0 0 -128 126 -128 126c0 0 -128 -126 -128 -126c0 0 -72 72 -72 72c0 0 128 128 128 128c0 0 -128 126 -128 126c0 0 72 74 72 74c0 0 128 -128 128 -128c0 0 128 128 128 128" />
  </g>
</svg>