<svg height="1000px" width="765.7777709960938px" xmlns="http://www.w3.org/2000/svg">
  <g>
    <path d="M750 214c0 2.667 1.667 27 5 73c3.333 46 6.333 94 9 144c2.667 50 2.333 107 -1 171c-3.333 64 -9.667 121 -19 171c-9.333 50 -26.333 92 -51 126c-24.667 34 -55 51 -91 51c-102.667 0 -167.333 -8.667 -194 -26c-17.333 -13.333 -23.333 -56.667 -18 -130c1.333 -26.667 13.667 -46.333 37 -59c23.333 -12.667 46.333 -19 69 -19c0 0 34 2 34 2c0 0 -4 70 -4 70c-8 1.333 -20.667 2 -38 2c-13.333 0 -21.333 8.667 -24 26c-2.667 25.333 10.667 39.333 40 42c0 0 86 -4 86 -4c25.333 -2.667 34.667 -48 28 -136c-1.333 -10.667 -7.333 -19.333 -18 -26c-10.667 -6.667 -22 -11 -34 -13c-12 -2 -28.333 -4.667 -49 -8c-20.667 -3.333 -36.333 -6.333 -47 -9c-18.667 -5.333 -34 -14.667 -46 -28c-12 -13.333 -21 -25.667 -27 -37c-6 -11.333 -9.667 -17 -11 -17c-1.333 0 -4 19.333 -8 58c-4 38.667 -14 58 -30 58c-29.333 0 -75.667 -5 -139 -15c-63.333 -10 -101.667 -21.667 -115 -35c-22.667 -22.667 -43.333 -72.333 -62 -149c-18.667 -76.667 -28 -127 -28 -151c0 -22.667 19.333 -32.667 58 -30c0 0 116 0 116 0c52 0 78 -24 78 -72c0 -8 -0.333 -25.333 -1 -52c-0.667 -26.667 -1 -46.667 -1 -60c0 -54.667 13.333 -82 40 -82c60 0 100 4.667 120 14c12 5.333 21.667 14 29 26c7.333 12 11.667 23.333 13 34c0 0 4 14 4 14c0 0 202 12 202 12c6.667 0 15 1 25 3c10 2 23 8.333 39 19c16 10.667 24 24.667 24 42c0 0 0 0 0 0m-96 302c4 -4 3.333 -14.667 -2 -32c-5.333 -17.333 -15 -34.667 -29 -52c-14 -17.333 -30.333 -26 -49 -26c-18.667 0 -33.667 7.667 -45 23c-11.333 15.333 -18.333 30.667 -21 46c-2.667 15.333 -2.667 25 0 29c5.333 4 10.333 5.667 15 5c4.667 -0.667 13.333 -2.333 26 -5c12.667 -2.667 23 -4 31 -4c9.333 0 19.667 2 31 6c11.333 4 20.667 7.333 28 10c7.333 2.667 12.333 2.667 15 0c0 0 0 0 0 0m-482 -308c0 14.667 -9.333 22 -28 22c0 0 -144 0 -144 0c0 0 176 -172 176 -172c-2.667 92 -4 142 -4 150c0 0 0 0 0 0" />
  </g>
</svg>