<svg height="1000px" width="1000px" xmlns="http://www.w3.org/2000/svg">
  <g>
    <path d="M750 790c0 0 0 -56 0 -56c0 0 100 -82 100 -82c0 0 0 188 0 188c0 13.333 -5 25 -15 35c-10 10 -21.667 15 -35 15c0 0 -750 0 -750 0c-13.333 0 -25 -5 -35 -15c-10 -10 -15 -21.667 -15 -35c0 0 0 -550 0 -550c0 -14.667 4.667 -26.667 14 -36c9.333 -9.333 21.333 -14 36 -14c0 0 288 0 288 0c-21.333 16 -41 32.333 -59 49c-18 16.667 -31 29.667 -39 39c0 0 -10 12 -10 12c0 0 -130 0 -130 0c0 0 0 450 0 450c0 0 650 0 650 0c0 0 0 0 0 0m-82 -348c-110.667 0 -191.333 13.667 -242 41c-50.667 27.333 -104 87.667 -160 181c0 -5.333 0.333 -12.667 1 -22c0.667 -9.333 3.667 -28 9 -56c5.333 -28 12.667 -54.333 22 -79c9.333 -24.667 24 -52.333 44 -83c20 -30.667 43.333 -57 70 -79c26.667 -22 62.333 -40.667 107 -56c44.667 -15.333 94.333 -23 149 -23c0 0 0 -156 0 -156c0 0 332 250 332 250c0 0 -332 260 -332 260c0 0 0 -178 0 -178c0 0 0 0 0 0" />
  </g>
</svg>