<svg height="1000px" width="880px" xmlns="http://www.w3.org/2000/svg">
  <g>
    <path d="M866 476c9.333 6.667 14 14.667 14 24c0 9.333 -4.667 16.667 -14 22c0 0 -372 248 -372 248c-14.667 9.333 -27 11.333 -37 6c-10 -5.333 -15 -17.333 -15 -36c0 0 0 -482 0 -482c0 -18.667 5 -30.667 15 -36c10 -5.333 22.333 -3.333 37 6c0 0 372 248 372 248m-454 0c9.333 6.667 14 14.667 14 24c0 9.333 -4.667 16.667 -14 22c0 0 -360 248 -360 248c-13.333 9.333 -25.333 11.333 -36 6c-10.667 -5.333 -16 -17.333 -16 -36c0 0 0 -482 0 -482c0 -18.667 5.333 -30.667 16 -36c10.667 -5.333 22.667 -3.333 36 6c0 0 360 248 360 248" />
  </g>
</svg>