<svg height="1000px" width="900px" xmlns="http://www.w3.org/2000/svg">
  <g>
    <path d="M874 234c9.333 -4 16.667 -3.667 22 1c5.333 4.667 5.333 11 0 19c-64 92 -118.667 163 -164 213c-45.333 50 -82 80 -110 90c-28 10 -52.333 10.667 -73 2c-20.667 -8.667 -40.667 -21 -60 -37c-19.333 -16 -40.333 -29.333 -63 -40c-22.667 -10.667 -53.667 -9.333 -93 4c-39.333 13.333 -85.667 42 -139 86c0 0 90 352 90 352c0 0 -100 0 -100 0c0 0 -184 -720 -184 -720c0 0 92 -34 92 -34c60 -44 110.667 -72.667 152 -86c41.333 -13.333 74 -14.333 98 -3c24 11.333 45.333 28.333 64 51c18.667 22.667 39.333 46.333 62 71c22.667 24.667 49 45.333 79 62c30 16.667 73 23.333 129 20c56 -3.333 122 -20.333 198 -51c0 0 0 0 0 0" />
  </g>
</svg>