<svg height="1000px" width="400px" xmlns="http://www.w3.org/2000/svg">
  <g>
    <path d="M40 950c-2.667 -2.667 9 -34 35 -94c26 -60 52.333 -120.667 79 -182c26.667 -61.333 39.333 -94 38 -98c-1.333 -4 -32.667 -19 -94 -45c-61.333 -26 -94 -44.333 -98 -55c-2.667 -8 25.333 -48 84 -120c58.667 -72 118.667 -141.667 180 -209c61.333 -67.333 93.333 -99.667 96 -97c4 2.667 -20.667 64.667 -74 186c-53.333 121.333 -79.333 183.333 -78 186c1.333 2.667 33 17 95 43c62 26 94.333 45 97 57c2.667 13.333 -55.333 89 -174 227c-118.667 138 -180.667 205 -186 201c0 0 0 0 0 0" />
  </g>
</svg>