<svg height="1000px" width="960px" xmlns="http://www.w3.org/2000/svg">
  <g>
    <path d="M480 20c133.333 0 246.667 46.667 340 140c93.333 93.333 140 206.667 140 340c0 132 -46.667 245 -140 339c-93.333 94 -206.667 141 -340 141c-132 0 -245 -47 -339 -141c-94 -94 -141 -207 -141 -339c0 -133.333 47 -246.667 141 -340c94 -93.333 207 -140 339 -140c0 0 0 0 0 0m-128 580c26.667 0 50 -10 70 -30c20 -20 30 -43.333 30 -70c0 -28 -10 -52 -30 -72c-20 -20 -43.333 -30 -70 -30c-26.667 0 -50 10 -70 30c-20 20 -30 44 -30 72c0 26.667 10 50 30 70c20 20 43.333 30 70 30c0 0 0 0 0 0m256 0c28 0 51.667 -10 71 -30c19.333 -20 29 -43.333 29 -70c0 -28 -9.667 -52 -29 -72c-19.333 -20 -43 -30 -71 -30c-26.667 0 -49.667 10 -69 30c-19.333 20 -29 44 -29 72c0 26.667 9.667 50 29 70c19.333 20 42.333 30 69 30c0 0 0 0 0 0" />
  </g>
</svg>