<svg height="1000px" width="1002.777099609375px" xmlns="http://www.w3.org/2000/svg">
  <g>
    <path d="M268 970c0 0 124 -400 124 -400c0 0 -180 0 -180 0c0 0 -112 100 -112 100c0 0 -100 0 -100 0c0 0 80 -170 80 -170c0 0 -80 -170 -80 -170c0 0 100 0 100 0c0 0 112 100 112 100c0 0 180 0 180 0c0 0 -124 -400 -124 -400c0 0 100 0 100 0c0 0 224 400 224 400c0 0 258 0 258 0c0 0 16 0 16 0c0 0 12 1.333 36 4c24 2.667 39.333 6.333 46 11c6.667 4.667 18.667 11.667 36 21c17.333 9.333 22.667 20.667 16 34c0 21.333 -12.667 37.667 -38 49c-25.333 11.333 -50 17.667 -74 19c0 0 -38 2 -38 2c0 0 -258 0 -258 0c0 0 -224 400 -224 400c0 0 -100 0 -100 0c0 0 0 0 0 0" />
  </g>
</svg>