<svg height="1000px" width="940px" xmlns="http://www.w3.org/2000/svg">
  <g>
    <path d="M868 738c48 22.667 72 60 72 112c0 33.333 -11.667 61.667 -35 85c-23.333 23.333 -51.667 35 -85 35c-33.333 0 -61.667 -11.667 -85 -35c-23.333 -23.333 -35 -51.667 -35 -85c0 -52 24 -89.333 72 -112c0 0 0 -114 0 -114c0 -52 -25.333 -78 -76 -78c0 0 -100 0 -100 0c-29.333 0 -55.333 -4 -78 -12c0 0 0 204 0 204c48 22.667 72 60 72 112c0 33.333 -11.667 61.667 -35 85c-23.333 23.333 -51.667 35 -85 35c-33.333 0 -61.667 -11.667 -85 -35c-23.333 -23.333 -35 -51.667 -35 -85c0 -52 24 -89.333 72 -112c0 0 0 -204 0 -204c-20 8 -45.333 12 -76 12c0 0 -100 0 -100 0c-22.667 0 -40.333 6.333 -53 19c-12.667 12.667 -20 23.667 -22 33c-2 9.333 -3 18 -3 26c0 0 0 114 0 114c48 22.667 72 60 72 112c0 33.333 -11.667 61.667 -35 85c-23.333 23.333 -51.667 35 -85 35c-33.333 0 -61.667 -11.667 -85 -35c-23.333 -23.333 -35 -51.667 -35 -85c0 -52 24 -89.333 72 -112c0 0 0 -114 0 -114c0 -42.667 14.333 -82 43 -118c28.667 -36 72.333 -54 131 -54c0 0 100 0 100 0c50.667 0 76 -17.333 76 -52c0 0 0 -140 0 -140c-48 -22.667 -72 -59.333 -72 -110c0 -33.333 11.667 -61.667 35 -85c23.333 -23.333 51.667 -35 85 -35c33.333 0 61.667 11.667 85 35c23.333 23.333 35 51.667 35 85c0 50.667 -24 87.333 -72 110c0 0 0 140 0 140c0 34.667 26 52 78 52c0 0 100 0 100 0c57.333 0 100.333 18 129 54c28.667 36 43 75.333 43 118c0 0 0 114 0 114c0 0 0 0 0 0m-678 112c0 -20 -7 -36.667 -21 -50c-14 -13.333 -30.333 -20 -49 -20c-18.667 0 -34.667 6.667 -48 20c-13.333 13.333 -20 30 -20 50c0 18.667 6.667 34.667 20 48c13.333 13.333 29.333 20 48 20c18.667 0 35 -6.667 49 -20c14 -13.333 21 -29.333 21 -48c0 0 0 0 0 0m212 -700c0 18.667 6.667 34.667 20 48c13.333 13.333 29.333 20 48 20c18.667 0 35 -6.667 49 -20c14 -13.333 21 -29.333 21 -48c0 -20 -7 -36.667 -21 -50c-14 -13.333 -30.333 -20 -49 -20c-18.667 0 -34.667 6.667 -48 20c-13.333 13.333 -20 30 -20 50c0 0 0 0 0 0m138 700c0 -20 -7 -36.667 -21 -50c-14 -13.333 -30.333 -20 -49 -20c-18.667 0 -34.667 6.667 -48 20c-13.333 13.333 -20 30 -20 50c0 18.667 6.667 34.667 20 48c13.333 13.333 29.333 20 48 20c18.667 0 35 -6.667 49 -20c14 -13.333 21 -29.333 21 -48c0 0 0 0 0 0m280 68c18.667 0 35 -6.667 49 -20c14 -13.333 21 -29.333 21 -48c0 -20 -7 -36.667 -21 -50c-14 -13.333 -30.333 -20 -49 -20c-18.667 0 -34.667 6.667 -48 20c-13.333 13.333 -20 30 -20 50c0 18.667 6.667 34.667 20 48c13.333 13.333 29.333 20 48 20c0 0 0 0 0 0" />
  </g>
</svg>