<svg height="1000px" width="640px" xmlns="http://www.w3.org/2000/svg">
  <g>
    <path d="M640 200c0 53.333 -24.667 90 -74 110c-4 38.667 -13.333 72.333 -28 101c-14.667 28.667 -35 51.667 -61 69c-26 17.333 -48.667 30 -68 38c-19.333 8 -44.333 16.667 -75 26c-28 9.333 -49 16.667 -63 22c-14 5.333 -29.667 13.333 -47 24c-17.333 10.667 -30 24 -38 40c-8 16 -13.333 36 -16 60c46.667 20 70 56.667 70 110c0 33.333 -11.667 61.667 -35 85c-23.333 23.333 -51.667 35 -85 35c-33.333 0 -61.667 -11.667 -85 -35c-23.333 -23.333 -35 -51.667 -35 -85c0 -52 24 -89.333 72 -112c0 0 0 -378 0 -378c-48 -22.667 -72 -59.333 -72 -110c0 -33.333 11.667 -61.667 35 -85c23.333 -23.333 51.667 -35 85 -35c33.333 0 61.667 11.667 85 35c23.333 23.333 35 51.667 35 85c0 50.667 -24 87.333 -72 110c0 0 0 204 0 204c26.667 -20 72.667 -40 138 -60c38.667 -12 66.667 -21.667 84 -29c17.333 -7.333 34.333 -21 51 -41c16.667 -20 26.333 -45.333 29 -76c-46.667 -21.333 -70 -57.333 -70 -108c0 -33.333 11.667 -61.667 35 -85c23.333 -23.333 51.667 -35 85 -35c33.333 0 61.667 11.667 85 35c23.333 23.333 35 51.667 35 85c0 0 0 0 0 0m-588 0c0 18.667 6.667 34.667 20 48c13.333 13.333 29.333 20 48 20c18.667 0 35 -6.667 49 -20c14 -13.333 21 -29.333 21 -48c0 -20 -7 -36.667 -21 -50c-14 -13.333 -30.333 -20 -49 -20c-18.667 0 -34.667 6.667 -48 20c-13.333 13.333 -20 30 -20 50c0 0 0 0 0 0m68 668c18.667 0 35 -6.667 49 -20c14 -13.333 21 -29.333 21 -48c0 -20 -7 -36.667 -21 -50c-14 -13.333 -30.333 -20 -49 -20c-18.667 0 -34.667 6.667 -48 20c-13.333 13.333 -20 30 -20 50c0 18.667 6.667 34.667 20 48c13.333 13.333 29.333 20 48 20c0 0 0 0 0 0m400 -600c18.667 0 35 -6.667 49 -20c14 -13.333 21 -29.333 21 -48c0 -20 -7 -36.667 -21 -50c-14 -13.333 -30.333 -20 -49 -20c-18.667 0 -34.667 6.667 -48 20c-13.333 13.333 -20 30 -20 50c0 18.667 6.667 34.667 20 48c13.333 13.333 29.333 20 48 20c0 0 0 0 0 0" />
  </g>
</svg>