<svg height="1000px" width="1000px" xmlns="http://www.w3.org/2000/svg">
  <g>
    <path d="M954 350c21.333 0 34.667 4 40 12c5.333 8 7.333 20 6 36c0 0 -42 452 -42 452c-1.333 16 -5.333 28.333 -12 37c-6.667 8.667 -20.667 13 -42 13c0 0 -806 0 -806 0c-34.667 0 -53.333 -16.667 -56 -50c0 0 -42 -452 -42 -452c-1.333 -16 0.667 -28 6 -36c5.333 -8 18.667 -12 40 -12c0 0 908 0 908 0c0 0 0 0 0 0m-34 -110c0 0 10 40 10 40c0 0 -846 0 -846 0c0 0 14 -132 14 -132c2.667 -13.333 9.333 -24.667 20 -34c10.667 -9.333 22.667 -14 36 -14c0 0 164 0 164 0c34.667 0 63.333 11.333 86 34c0 0 30 30 30 30c21.333 24 50 36 86 36c0 0 340 0 340 0c13.333 0 26 4 38 12c12 8 19.333 17.333 22 28c0 0 0 0 0 0" />
  </g>
</svg>