<svg height="1000px" width="1000px" xmlns="http://www.w3.org/2000/svg">
  <g>
    <path d="M406 672c22.667 -37.333 94 -132 214 -284c120 -152 184.667 -225.333 194 -220c8 4 -24 96.667 -96 278c-72 181.333 -118 290 -138 326c-33.333 57.333 -78.667 69.333 -136 36c-57.333 -33.333 -70 -78.667 -38 -136c0 0 0 0 0 0m94 -380c-112 0 -206.667 42.333 -284 127c-77.333 84.667 -116 188.333 -116 311c0 20 0.667 35.333 2 46c1.333 14.667 -2.667 27 -12 37c-9.333 10 -20.667 15.667 -34 17c-13.333 1.333 -25.333 -2.667 -36 -12c-10.667 -9.333 -16.667 -20.667 -18 -34c0 -5.333 -0.333 -14 -1 -26c-0.667 -12 -1 -21.333 -1 -28c0 -150.667 48.333 -278 145 -382c96.667 -104 215 -156 355 -156c48 0 92.667 6 134 18c0 0 -70 86 -70 86c-26.667 -2.667 -48 -4 -64 -4c0 0 0 0 0 0m362 62c92 102.667 138 228 138 376c0 25.333 -0.667 44 -2 56c-1.333 13.333 -6.667 24.333 -16 33c-9.333 8.667 -20.667 13 -34 13c0 0 -4 0 -4 0c-14.667 -2.667 -26.333 -9.333 -35 -20c-8.667 -10.667 -12.333 -22.667 -11 -36c1.333 -9.333 2 -24.667 2 -46c0 -100 -26.667 -189.333 -80 -268c4 -9.333 10.667 -26.333 20 -51c9.333 -24.667 16.667 -43.667 22 -57c0 0 0 0 0 0" />
  </g>
</svg>