<svg height="1000px" width="920px" xmlns="http://www.w3.org/2000/svg">
  <g>
    <path d="M620 564c17.333 0 32.333 8.667 45 26c12.667 17.333 19 38.667 19 64c0 25.333 -6.333 46.667 -19 64c-12.667 17.333 -27.667 26 -45 26c-18.667 0 -34.333 -8.667 -47 -26c-12.667 -17.333 -19 -38.667 -19 -64c0 -25.333 6.333 -46.667 19 -64c12.667 -17.333 28.333 -26 47 -26c0 0 0 0 0 0m226 -234c49.333 53.333 74 118 74 194c0 49.333 -5.667 93.667 -17 133c-11.333 39.333 -25.667 71.333 -43 96c-17.333 24.667 -38.667 46.333 -64 65c-25.333 18.667 -48.667 32.333 -70 41c-21.333 8.667 -45.667 15.333 -73 20c-27.333 4.667 -48 7.333 -62 8c-14 0.667 -29 1 -45 1c-4 0 -16 0.333 -36 1c-20 0.667 -36.667 1 -50 1c-13.333 0 -30 -0.333 -50 -1c-20 -0.667 -32 -1 -36 -1c-16 0 -31 -0.333 -45 -1c-14 -0.667 -34.667 -3.333 -62 -8c-27.333 -4.667 -51.667 -11.333 -73 -20c-21.333 -8.667 -44.667 -22.333 -70 -41c-25.333 -18.667 -46.667 -40.333 -64 -65c-17.333 -24.667 -31.667 -56.667 -43 -96c-11.333 -39.333 -17 -83.667 -17 -133c0 -76 24.667 -140.667 74 -194c-5.333 -2.667 -5.667 -29.333 -1 -80c4.667 -50.667 15.667 -97.333 33 -140c61.333 6.667 137.333 41.333 228 104c30.667 -8 72.667 -12 126 -12c56 0 98 4 126 12c41.333 -28 81 -50.667 119 -68c38 -17.333 65.667 -27.333 83 -30c0 0 26 -6 26 -6c17.333 42.667 28.333 89.333 33 140c4.667 50.667 4.333 77.333 -1 80c0 0 0 0 0 0m-384 514c110.667 0 194.333 -13.333 251 -40c56.667 -26.667 85 -81.333 85 -164c0 -48 -18 -88 -54 -120c-18.667 -17.333 -40.333 -28 -65 -32c-24.667 -4 -62.333 -4 -113 0c-50.667 4 -85.333 6 -104 6c0 0 -2 0 -2 0c0 0 -2 0 -2 0c-21.333 0 -49 -1.333 -83 -4c-34 -2.667 -60.667 -4.333 -80 -5c-19.333 -0.667 -40.333 1.667 -63 7c-22.667 5.333 -41.333 14.667 -56 28c-34.667 30.667 -52 70.667 -52 120c0 82.667 28 137.333 84 164c56 26.667 139.333 40 250 40c0 0 4 0 4 0c0 0 0 0 0 0m-160 -280c17.333 0 32.333 8.667 45 26c12.667 17.333 19 38.667 19 64c0 25.333 -6.333 46.667 -19 64c-12.667 17.333 -27.667 26 -45 26c-18.667 0 -34.333 -8.667 -47 -26c-12.667 -17.333 -19 -38.667 -19 -64c0 -25.333 6.333 -46.667 19 -64c12.667 -17.333 28.333 -26 47 -26c0 0 0 0 0 0" />
  </g>
</svg>