<svg height="1000px" width="960px" xmlns="http://www.w3.org/2000/svg">
  <g>
    <path d="M480 20c133.333 0 246.667 47 340 141c93.333 94 140 207 140 339c0 133.333 -46.667 246.667 -140 340c-93.333 93.333 -206.667 140 -340 140c-132 0 -245 -46.667 -339 -140c-94 -93.333 -141 -206.667 -141 -340c0 -132 47 -245 141 -339c94 -94 207 -141 339 -141c0 0 0 0 0 0m410 480c0 -88 -26 -167.667 -78 -239c-52 -71.333 -119.333 -121 -202 -149c-12 16 -17.333 26.667 -16 32c2.667 25.333 8.667 42.333 18 51c9.333 8.667 19.333 11 30 7c0 0 32 -12 32 -12c0 0 6.667 -0.667 20 -2c14.667 16 14.667 31.667 0 47c-14.667 15.333 -29.667 34 -45 56c-15.333 22 -15.667 47.667 -1 77c22.667 42.667 54.667 64 96 64c18.667 1.333 33 13.333 43 36c10 22.667 15.667 44.667 17 66c6.667 53.333 2 100 -14 140c-14.667 29.333 -10 54.667 14 76c57.333 -74.667 86 -158 86 -250c0 0 0 0 0 0m-466 -404c-74.667 9.333 -141 37.333 -199 84c-58 46.667 -100.333 104.667 -127 174c4 0 11.333 0.667 22 2c10.667 1.333 20 2.333 28 3c8 0.667 16.667 2 26 4c9.333 2 17.333 4.667 24 8c6.667 3.333 10.667 7.667 12 13c2.667 8 -2 23 -14 45c-12 22 -18 42.333 -18 61c0 20 12.667 38.667 38 56c25.333 17.333 38 32.667 38 46c0 18.667 2.667 41.333 8 68c5.333 26.667 8 41.333 8 44c0 8 12 26 36 54c24 28 41.333 42 52 42c6.667 0 10.333 -7.333 11 -22c0.667 -14.667 0 -32.667 -2 -54c-2 -21.333 -3 -34.667 -3 -40c0 -21.333 4.667 -46 14 -74c8 -28 27.667 -51.333 59 -70c31.333 -18.667 49.667 -34 55 -46c10.667 -22.667 13.667 -43 9 -61c-4.667 -18 -10.333 -32.333 -17 -43c-6.667 -10.667 -18 -20 -34 -28c-16 -8 -29.667 -13.667 -41 -17c-11.333 -3.333 -23.667 -6.333 -37 -9c-13.333 -2.667 -20.667 -4 -22 -4c-10.667 -4 -24.667 -6.333 -42 -7c-17.333 -0.667 -29.333 0.333 -36 3c-6.667 2.667 -15.667 -1 -27 -11c-11.333 -10 -17 -19.667 -17 -29c0 -6.667 5 -15.667 15 -27c10 -11.333 21.667 -23.667 35 -37c13.333 -13.333 22.667 -23.333 28 -30c5.333 -9.333 11 -16.333 17 -21c6 -4.667 13.333 -10 22 -16c8.667 -6 17.667 -13 27 -21c2.667 -2.667 11 -8.333 25 -17c14 -8.667 23 -16.333 27 -23c0 0 0 0 0 0m-72 794c44 13.333 86.667 20 128 20c85.333 0 160.667 -22.667 226 -68c-17.333 -29.333 -56.667 -40.667 -118 -34c-16 1.333 -37.667 7 -65 17c-27.333 10 -43 15.667 -47 17c-49.333 10.667 -74.667 16 -76 16c-8 1.333 -16.667 6 -26 14c-9.333 8 -16.667 14 -22 18c0 0 0 0 0 0" />
  </g>
</svg>