<svg height="1000px" width="920px" xmlns="http://www.w3.org/2000/svg">
  <g>
    <path d="M556 40c101.333 0 187.333 35.333 258 106c70.667 70.667 106 156 106 256c0 94.667 -32 177 -96 247c-64 70 -142.667 108.333 -236 115c-22.667 57.333 -60 104.333 -112 141c-52 36.667 -109.333 55 -172 55c-84 0 -155.667 -30 -215 -90c-59.333 -60 -89 -131.333 -89 -214c0 -64 18 -121.667 54 -173c36 -51.333 82.667 -88.333 140 -111c8 -93.333 46.667 -172 116 -236c69.333 -64 151.333 -96 246 -96c0 0 0 0 0 0m-252 818c78.667 0 136.667 -33.333 174 -100c-69.333 -14.667 -129 -47 -179 -97c-50 -50 -82.333 -109.667 -97 -179c-66.667 37.333 -100 95.333 -100 174c0 56 19.667 103.667 59 143c39.333 39.333 87 59 143 59c0 0 0 0 0 0m4 -404c10.667 50.667 34 93.667 70 129c36 35.333 78.667 58.333 128 69c-1.333 -53.333 -21.333 -99.333 -60 -138c-38.667 -38.667 -84.667 -58.667 -138 -60c0 0 0 0 0 0m300 198c58.667 -12 107 -41.333 145 -88c38 -46.667 57 -100.667 57 -162c0 -70.667 -25 -130.667 -75 -180c-50 -49.333 -109.667 -74 -179 -74c-60 0 -113.667 19.333 -161 58c-47.333 38.667 -76.333 87.333 -87 146c82.667 1.333 153 31 211 89c58 58 87.667 128.333 89 211c0 0 0 0 0 0m-504 -398c-28 0 -52.333 -10 -73 -30c-20.667 -20 -31 -44 -31 -72c0 -29.333 10.333 -54 31 -74c20.667 -20 45 -30 73 -30c29.333 0 54 10 74 30c20 20 30 44.667 30 74c0 28 -10 52 -30 72c-20 20 -44.667 30 -74 30c0 0 0 0 0 0m0 -160c-16 0 -29.333 5.667 -40 17c-10.667 11.333 -16 25 -16 41c0 14.667 5.333 27.667 16 39c10.667 11.333 24 17 40 17c16 0 29.667 -5.667 41 -17c11.333 -11.333 17 -24.333 17 -39c0 -16 -5.667 -29.667 -17 -41c-11.333 -11.333 -25 -17 -41 -17c0 0 0 0 0 0" />
  </g>
</svg>