<svg height="1000px" width="860px" xmlns="http://www.w3.org/2000/svg">
  <g>
    <path d="M790 208c46.667 42.667 70 94.667 70 156c0 61.333 -23.333 113.333 -70 156c0 0 -360 330 -360 330c0 0 -360 -330 -360 -330c-46.667 -42.667 -70 -94.667 -70 -156c0 -61.333 23.333 -113.333 70 -156c42.667 -38.667 93.333 -58 152 -58c58.667 0 108.667 19.333 150 58c0 0 58 52 58 52c0 0 56 -52 56 -52c42.667 -38.667 93.333 -58 152 -58c58.667 0 109.333 19.333 152 58c0 0 0 0 0 0m-54 260c28 -26.667 42 -61.333 42 -104c0 -44 -12.667 -77.333 -38 -100c-25.333 -25.333 -59.333 -38 -102 -38c-34.667 0 -69.333 16 -104 48c0 0 -104 92 -104 92c0 0 -106 -92 -106 -92c-32 -32 -66 -48 -102 -48c-42.667 0 -77.333 12.667 -104 38c-25.333 24 -38 57.333 -38 100c0 44 14.667 78.667 44 104c0 0 306 286 306 286c0 0 306 -286 306 -286" />
  </g>
</svg>