<svg height="1000px" width="580px" xmlns="http://www.w3.org/2000/svg">
  <g>
    <path d="M494 110c57.333 41.333 86 102.667 86 184c0 42.667 -14 84 -42 124c-8 13.333 -37.333 40 -88 80c0 0 -46 30 -46 30c-26.667 22.667 -42.667 42.667 -48 60c-4 10.667 -6.667 25.333 -8 44c0 9.333 -5.333 14 -16 14c0 0 -128 0 -128 0c-10.667 0 -16 -4 -16 -12c2.667 -65.333 12 -106.667 28 -124c10.667 -14.667 26.667 -30.667 48 -48c21.333 -17.333 40 -31.333 56 -42c0 0 24 -14 24 -14c14.667 -10.667 26 -22 34 -34c18.667 -29.333 28 -52.667 28 -70c0 -26.667 -8.667 -52.667 -26 -78c-18.667 -24 -49.333 -36 -92 -36c-45.333 0 -76.667 14.667 -94 44c-18.667 28 -28 58.667 -28 92c0 0 -166 0 -166 0c4 -108 42 -185.333 114 -232c46.667 -28 102 -42 166 -42c86.667 0 158 20 214 60c0 0 0 0 0 0m-216 636c29.333 0 53.667 10 73 30c19.333 20 28.333 44.667 27 74c-1.333 30.667 -12 55 -32 73c-20 18 -44.667 26.333 -74 25c-29.333 0 -53.667 -9.667 -73 -29c-19.333 -19.333 -28.333 -44.333 -27 -75c1.333 -30.667 12 -55 32 -73c20 -18 44.667 -26.333 74 -25c0 0 0 0 0 0" />
  </g>
</svg>