<svg height="1000px" width="900.3779754638671px" xmlns="http://www.w3.org/2000/svg">
  <g>
    <path d="M888.1875 514c10.667 10.667 14.333 19.667 11 27c-3.333 7.333 -12.333 11 -27 11c0 0 -84 0 -84 0c0 0 0 310 0 310c0 9.333 -0.333 16.333 -1 21c-0.667 4.667 -3.333 9 -8 13c-4.667 4 -12.333 6 -23 6c0 0 -204 0 -204 0c0 0 0 -310 0 -310c0 0 -204 0 -204 0c0 0 0 310 0 310c0 0 -194 0 -194 0c-18.667 0 -30.333 -3.333 -35 -10c-4.667 -6.667 -7 -16.667 -7 -30c0 0 0 -310 0 -310c0 0 -84 0 -84 0c-14.667 0 -23.667 -3.667 -27 -11c-3.333 -7.333 0.333 -16.333 11 -27c0 0 400 -402 400 -402c10.667 -10.667 23.333 -16 38 -16c14.667 0 27.333 5.333 38 16c0 0 400 402 400 402" />
  </g>
</svg>