<svg height="1000px" width="1000px" xmlns="http://www.w3.org/2000/svg">
  <g>
    <path d="M796 280c56 0 104 17.667 144 53c40 35.333 60 91 60 167c0 74.667 -20 130 -60 166c-40 36 -88 54 -144 54c-52 0 -104.333 -13.333 -157 -40c-52.667 -26.667 -99 -62 -139 -106c-38.667 44 -84.333 79.333 -137 106c-52.667 26.667 -105 40 -157 40c-57.333 0 -106 -18 -146 -54c-40 -36 -60 -91.333 -60 -166c0 -76 20 -131.667 60 -167c40 -35.333 88.667 -53 146 -53c52 0 104.333 13 157 39c52.667 26 98.333 61 137 105c38.667 -44 84.667 -79 138 -105c53.333 -26 106 -39 158 -39c0 0 0 0 0 0m-590 352c40 0 82.333 -12.333 127 -37c44.667 -24.667 82.333 -56.333 113 -95c-30.667 -38.667 -68 -70.333 -112 -95c-44 -24.667 -86.667 -37 -128 -37c-76 0 -114 44 -114 132c0 88 38 132 114 132c0 0 0 0 0 0m590 0c76 0 114 -44 114 -132c0 -88 -38 -132 -114 -132c-41.333 0 -84.333 12.333 -129 37c-44.667 24.667 -81.667 56.333 -111 95c29.333 38.667 66.333 70.333 111 95c44.667 24.667 87.667 37 129 37c0 0 0 0 0 0" />
  </g>
</svg>