<svg height="1000px" width="901.06591796875px" xmlns="http://www.w3.org/2000/svg">
  <g>
    <path d="M884.125 544c16 34.667 20.667 66.667 14 96c0 0 -34 184 -34 184c-1.333 13.333 -7.667 25 -19 35c-11.333 10 -24.333 15 -39 15c0 0 -712 0 -712 0c-14.667 0 -27.667 -5 -39 -15c-11.333 -10 -17.667 -21.667 -19 -35c0 0 -34 -184 -34 -184c-5.333 -33.333 -0.667 -65.333 14 -96c0 0 158 -374 158 -374c14.667 -30.667 38.667 -46 72 -46c0 0 104 0 104 0c0 0 -20 204 -20 204c0 0 -134 0 -134 0c0 0 254 210 254 210c0 0 256 -210 256 -210c0 0 -136 0 -136 0c0 0 -18 -204 -18 -204c0 0 102 0 102 0c33.333 0 58 15.333 74 46c0 0 156 374 156 374m-68 132c1.333 -14.667 -2 -27.333 -10 -38c-8 -10.667 -19.333 -16 -34 -16c0 0 -644 0 -644 0c-14.667 0 -26 5.333 -34 16c-8 10.667 -11.333 23.333 -10 38c0 0 14 74 14 74c1.333 14.667 7.667 27 19 37c11.333 10 23.667 15 37 15c0 0 592 0 592 0c14.667 0 27.667 -5 39 -15c11.333 -10 17.667 -22.333 19 -37c0 0 12 -74 12 -74" />
  </g>
</svg>