<svg height="1000px" width="778.8818359375px" xmlns="http://www.w3.org/2000/svg">
  <g>
    <path d="M773 238c13.333 77.333 4 149 -28 215c-32 66 -82 105 -150 117c-44 8 -87.333 8.667 -130 2c0 0 -118 194 -118 194c0 0 -70 12 -70 12c0 0 -104 166 -104 166c-9.333 18.667 -24.667 29.333 -46 32c0 0 -76 14 -76 14c-8 2.667 -15.333 1.333 -22 -4c-6.667 -5.333 -10.667 -12.667 -12 -22c0 0 -16 -98 -16 -98c-5.333 -20 -1.333 -38.667 12 -56c0 0 258 -386 258 -386c-16 -33.333 -28.667 -73.333 -38 -120c-12 -70.667 5.667 -133 53 -187c47.333 -54 109 -87.667 185 -101c70.667 -13.333 135.667 1.667 195 45c59.333 43.333 95 102.333 107 177c0 0 0 0 0 0m-126 76c20 -29.333 27 -61.667 21 -97c-6 -35.333 -23 -63 -51 -83c-28 -21.333 -58.667 -28.667 -92 -22c-33.333 6.667 -60 24.667 -80 54c-5.333 8 -9.333 15.667 -12 23c-2.667 7.333 -3 14 -1 20c2 6 3.667 11.333 5 16c1.333 4.667 5.667 10.333 13 17c7.333 6.667 13.333 11.667 18 15c4.667 3.333 12 8.667 22 16c10 7.333 17.667 13 23 17c4 2.667 11.333 8 22 16c10.667 8 18.333 13.333 23 16c4.667 2.667 11 6.667 19 12c8 5.333 14.333 8 19 8c4.667 0 10.333 -0.333 17 -1c6.667 -0.667 12.667 -3.333 18 -8c5.333 -4.667 10.667 -11 16 -19c0 0 0 0 0 0" />
  </g>
</svg>