<svg height="1000px" width="1000.8570556640625px" xmlns="http://www.w3.org/2000/svg">
  <g>
    <path d="M988 544c20 54.667 16.667 113.333 -10 176c-26.667 62.667 -71.333 116 -134 160c-6.667 0 -10.667 -0.667 -12 -2c-1.333 -1.333 -6.667 -7.667 -16 -19c-9.333 -11.333 -14.667 -17.667 -16 -19c-1.333 -4 -0.667 -7.333 2 -10c57.333 -40 96.333 -90.667 117 -152c20.667 -61.333 17 -110.667 -11 -148c-10.667 25.333 -23.667 50.667 -39 76c-15.333 25.333 -35 52 -59 80c-24 28 -52.667 49.667 -86 65c-33.333 15.333 -68.667 20.333 -106 15c-34.667 -4 -62.667 -17.667 -84 -41c-21.333 -23.333 -32 -54.333 -32 -93c0 -56 20 -105.333 60 -148c33.333 -33.333 71.333 -55.333 114 -66c0 0 -2 -100 -2 -100c-93.333 16 -142 24 -146 24c-4 1.333 -7.333 0 -10 -4c0 -1.333 -1.667 -11 -5 -29c-3.333 -18 -5 -28.333 -5 -31c-1.333 -1.333 -1 -2.667 1 -4c2 -1.333 4.333 -2 7 -2c0 0 156 -28 156 -28c0 -73.333 -0.667 -111.333 -2 -114c0 -5.333 2.667 -8 8 -8c30.667 0 48 -0.667 52 -2c6.667 0 10 2.667 10 8c0 0 0 104 0 104c105.333 -14.667 160 -22 164 -22c5.333 -2.667 8.667 -0.667 10 6c0 1.333 1.333 9 4 23c2.667 14 4 22.333 4 25c2.667 6.667 1.333 10.667 -4 12c0 0 -176 30 -176 30c0 0 0 102 0 102c0 0 12 0 12 0c57.333 0 106.667 12 148 36c41.333 24 70 57.333 86 100c0 0 0 0 0 0m-370 160c18.667 4 39.333 2 62 -6c0 0 -4 -214 -4 -214c-22.667 8 -42.667 21.333 -60 40c-29.333 29.333 -44 65.333 -44 108c0 44 15.333 68 46 72c0 0 0 0 0 0m122 -28c18.667 -16 38 -38.667 58 -68c20 -29.333 35 -55.667 45 -79c10 -23.333 12.333 -37 7 -41c-24 -12 -56 -18 -96 -18c-1.333 0 -3.333 0.333 -6 1c-2.667 0.667 -4.667 1 -6 1c0 0 -2 204 -2 204m-448 -382c6.667 18.667 24.333 73.667 53 165c28.667 91.333 56.333 178.333 83 261c26.667 82.667 40 124.667 40 126c0 2.667 -1.333 4 -4 4c0 0 -86 0 -86 0c-4 0 -6 -1.333 -6 -4c0 0 -50 -166 -50 -166c0 0 -176 0 -176 0c-32 109.333 -48.667 164.667 -50 166c0 2.667 -2 4 -6 4c0 0 -86 0 -86 0c-2.667 0 -4 -1.333 -4 -4c6.667 -12 65.333 -196 176 -552c1.333 -5.333 4.667 -8 10 -8c0 0 96 0 96 0c6.667 0 10 2.667 10 8c0 0 0 0 0 0m-130 316c0 0 144 0 144 0c0 0 -72 -264 -72 -264c0 0 -72 264 -72 264" />
  </g>
</svg>