<svg height="1000px" width="960px" xmlns="http://www.w3.org/2000/svg">
  <g>
    <path d="M480 20c132 0 245 46.667 339 140c94 93.333 141 206.667 141 340c0 132 -47 245 -141 339c-94 94 -207 141 -339 141c-133.333 0 -246.667 -47 -340 -141c-93.333 -94 -140 -207 -140 -339c0 -133.333 46.667 -246.667 140 -340c93.333 -93.333 206.667 -140 340 -140c0 0 0 0 0 0m132 620c80 0 120 -26.667 120 -80c0 -44 -25.333 -72 -76 -84c0 0 -38 -8 -38 -8c-21.333 -5.333 -32 -16.667 -32 -34c0 -20 13.333 -30 40 -30c29.333 0 44.667 11.333 46 34c0 0 58 -6 58 -6c-4 -49.333 -37.333 -74 -100 -74c-68 0 -102 28 -102 84c0 40 22 65.333 66 76c0 0 40 8 40 8c26.667 6.667 40 18.667 40 36c0 21.333 -20.667 32 -62 32c-50.667 0 -84 -24.667 -100 -74c0 0 -20 -58 -20 -58c-12 -38.667 -27 -65.667 -45 -81c-18 -15.333 -46.333 -23 -85 -23c-36 0 -67.667 13.333 -95 40c-27.333 26.667 -41 62 -41 106c0 41.333 13 74.333 39 99c26 24.667 57 37 93 37c36 0 64.667 -8.667 86 -26c0 0 -18 -50 -18 -50c-18.667 18.667 -40.667 28 -66 28c-21.333 0 -39.667 -8.333 -55 -25c-15.333 -16.667 -23 -38.333 -23 -65c0 -33.333 8.333 -57.667 25 -73c16.667 -15.333 35.667 -23 57 -23c22.667 0 39 6 49 18c10 12 19 30.667 27 56c0 0 18 58 18 58c21.333 68 72.667 102 154 102c0 0 0 0 0 0" />
  </g>
</svg>