<svg height="1000px" width="1000px" xmlns="http://www.w3.org/2000/svg">
  <g>
    <path d="M394 628c0 0 34 100 34 100c-42.667 34.667 -98.667 52 -168 52c-70.667 0 -131.667 -24.333 -183 -73c-51.333 -48.667 -77 -115 -77 -199c0 -86.667 26.667 -156.333 80 -209c53.333 -52.667 116 -79 188 -79c74.667 0 130.333 15 167 45c36.667 30 67 83 91 159c0 0 36 116 36 116c32 97.333 99.333 146 202 146c80 0 120 -20 120 -60c0 -36 -26 -60 -78 -72c0 0 -78 -18 -78 -18c-89.333 -22.667 -134 -73.333 -134 -152c0 -58.667 19.333 -100.667 58 -126c38.667 -25.333 87.333 -38 146 -38c122.667 0 188.667 48.667 198 146c0 0 -114 14 -114 14c-5.333 -46.667 -35.333 -70 -90 -70c-54.667 0 -82 20.667 -82 62c0 33.333 22 55.333 66 66c0 0 74 16 74 16c100 24 150 79.333 150 166c0 106.667 -79.333 160 -238 160c-90.667 0 -158.667 -17.667 -204 -53c-45.333 -35.333 -78.667 -85 -100 -149c0 0 -36 -116 -36 -116c-9.333 -26.667 -16.667 -46.667 -22 -60c-5.333 -13.333 -13.667 -27.667 -25 -43c-11.333 -15.333 -25.333 -26.333 -42 -33c-16.667 -6.667 -37 -10 -61 -10c-42.667 0 -80.333 15.333 -113 46c-32.667 30.667 -49 78 -49 142c0 53.333 15.333 96.667 46 130c30.667 33.333 67.333 50 110 50c40 0 82.667 -18.667 128 -56c0 0 0 0 0 0" />
  </g>
</svg>