<svg height="1000px" width="939.7874984741211px" xmlns="http://www.w3.org/2000/svg">
  <g>
    <path d="M236.1875 204c121.333 -70.667 290 -92.667 506 -66c112 14.667 177.333 31.333 196 50c2.667 4 2 7.333 -2 10c-50.667 26.667 -94 63 -130 109c-36 46 -62 90 -78 132c-16 42 -37.667 86 -65 132c-27.333 46 -58.333 81 -93 105c-92 64 -219.333 65.333 -382 4c-44 50.667 -82 109.333 -114 176c-8 16 -23.667 18.333 -47 7c-23.333 -11.333 -31.667 -24.333 -25 -39c29.333 -66.667 72.333 -131 129 -193c56.667 -62 115.333 -113 176 -153c60.667 -40 119.333 -75.333 176 -106c56.667 -30.667 103.667 -53.333 141 -68c0 0 54 -20 54 -20c-9.333 0 -23 0.333 -41 1c-18 0.667 -52.667 5.333 -104 14c-51.333 8.667 -100.667 21.333 -148 38c-47.333 16.667 -101.333 44.667 -162 84c-60.667 39.333 -114.333 86.333 -161 141c-14.667 -161.333 43.333 -280.667 174 -358c0 0 0 0 0 0" />
  </g>
</svg>