<svg height="1000px" width="920px" xmlns="http://www.w3.org/2000/svg">
  <g>
    <path d="M454 40c126.667 -1.333 235.333 42 326 130c90.667 88 137.333 195.333 140 322c1.333 126.667 -42.333 235.667 -131 327c-88.667 91.333 -196.333 138.333 -323 141c-126.667 1.333 -235.667 -42.333 -327 -131c-91.333 -88.667 -137.667 -196.333 -139 -323c-2.667 -126.667 40.667 -235.667 130 -327c89.333 -91.333 197.333 -137.667 324 -139c0 0 0 0 0 0m0 60c-62.667 0 -122 14.667 -178 44c0 0 62 104 62 104c37.333 -18.667 78 -28 122 -28c44 0 84.667 9.333 122 28c0 0 62 -104 62 -104c-58.667 -30.667 -122 -45.333 -190 -44c0 0 0 0 0 0m-246 522c-18.667 -40 -28 -80.667 -28 -122c0 -42.667 9.333 -84 28 -124c0 0 -102 -62 -102 -62c-30.667 58.667 -46 122 -46 190c1.333 64 16.667 124 46 180c0 0 102 -62 102 -62m258 278c65.333 -2.667 124.667 -18 178 -46c0 0 -62 -104 -62 -104c-40 20 -80.667 30 -122 30c-41.333 0 -82 -10 -122 -30c0 0 -62 104 -62 104c57.333 30.667 120.667 46 190 46c0 0 0 0 0 0m-6 -180c61.333 0 113.333 -21.667 156 -65c42.667 -43.333 64 -95 64 -155c0 -61.333 -21.333 -113.333 -64 -156c-42.667 -42.667 -94.667 -64 -156 -64c-61.333 0 -113.333 21.333 -156 64c-42.667 42.667 -64 94.667 -64 156c0 60 21.333 111.667 64 155c42.667 43.333 94.667 65 156 65c0 0 0 0 0 0m252 -98c0 0 104 62 104 62c30.667 -64 45.333 -127.333 44 -190c0 -64 -14.667 -124 -44 -180c0 0 -104 62 -104 62c18.667 40 28 81.333 28 124c0 41.333 -9.333 82 -28 122c0 0 0 0 0 0" />
  </g>
</svg>