<svg height="1000px" width="1000px" xmlns="http://www.w3.org/2000/svg">
  <g>
    <path d="M950 460c13.333 0 25 4 35 12c10 8 15 17.333 15 28c0 26.667 -16.667 40 -50 40c0 0 -48 0 -48 0c-33.333 0 -50 -13.333 -50 -40c0 -10.667 5 -20 15 -28c10 -8 21.667 -12 35 -12c0 0 48 0 48 0c0 0 0 0 0 0m-450 -234c76 0 141 26.667 195 80c54 53.333 81 118 81 194c0 77.333 -27 142.667 -81 196c-54 53.333 -119 80 -195 80c-76 0 -140.667 -26.667 -194 -80c-53.333 -53.333 -80 -118.667 -80 -196c0 -76 26.667 -140.667 80 -194c53.333 -53.333 118 -80 194 -80c0 0 0 0 0 0m0 474c54.667 0 101.667 -19.333 141 -58c39.333 -38.667 59 -86 59 -142c0 -54.667 -19.667 -101.667 -59 -141c-39.333 -39.333 -86.333 -59 -141 -59c-54.667 0 -101.667 19.667 -141 59c-39.333 39.333 -59 86.333 -59 141c0 56 19.667 103.333 59 142c39.333 38.667 86.333 58 141 58c0 0 0 0 0 0m-350 -200c0 26.667 -16.667 40 -50 40c0 0 -50 0 -50 0c-33.333 0 -50 -13.333 -50 -40c0 -10.667 5 -20 15 -28c10 -8 21.667 -12 35 -12c0 0 50 0 50 0c13.333 0 25 4 35 12c10 8 15 17.333 15 28c0 0 0 0 0 0m350 -350c-10.667 0 -20 -5 -28 -15c-8 -10 -12 -21.667 -12 -35c0 0 0 -50 0 -50c0 -13.333 4 -25 12 -35c8 -10 17.333 -15 28 -15c10.667 0 20 5 28 15c8 10 12 21.667 12 35c0 0 0 50 0 50c0 13.333 -4 25 -12 35c-8 10 -17.333 15 -28 15c0 0 0 0 0 0m0 700c10.667 0 20 5 28 15c8 10 12 21.667 12 35c0 0 0 50 0 50c0 13.333 -4 25 -12 35c-8 10 -17.333 15 -28 15c-10.667 0 -20 -5 -28 -15c-8 -10 -12 -21.667 -12 -35c0 0 0 -50 0 -50c0 -13.333 4 -25 12 -35c8 -10 17.333 -15 28 -15c0 0 0 0 0 0m368 -660c0 0 -34 34 -34 34c-22.667 22.667 -44 25.333 -64 8c-18.667 -18.667 -16 -40 8 -64c2.667 -4 14 -16 34 -36c24 -22.667 45.333 -24.667 64 -6c18.667 18.667 16 40 -8 64c0 0 0 0 0 0m-700 588c9.333 -10.667 20.333 -16.667 33 -18c12.667 -1.333 22.333 2 29 10c8 8 11.333 18.333 10 31c-1.333 12.667 -6.667 23.667 -16 33c0 0 -36 36 -36 36c-9.333 9.333 -20.333 14.667 -33 16c-12.667 1.333 -22.333 -2 -29 -10c-20 -18.667 -18 -40 6 -64c4 -2.667 16 -14 36 -34c0 0 0 0 0 0m20 -646c0 0 36 36 36 36c24 24 26 45.333 6 64c-6.667 6.667 -16.333 9.333 -29 8c-12.667 -1.333 -23.667 -6.667 -33 -16c-20 -20 -32 -31.333 -36 -34c-9.333 -9.333 -14.667 -20.333 -16 -33c-1.333 -12.667 2 -23 10 -31c6.667 -8 16.333 -11.333 29 -10c12.667 1.333 23.667 6.667 33 16c0 0 0 0 0 0m590 702c-24 -24 -26.667 -45.333 -8 -64c18.667 -18.667 40 -16 64 8c0 0 34 34 34 34c24 24 26.667 45.333 8 64c-18.667 18.667 -40 16.667 -64 -6c-20 -20 -31.333 -32 -34 -36c0 0 0 0 0 0" />
  </g>
</svg>