<svg height="1000px" width="800px" xmlns="http://www.w3.org/2000/svg">
  <g>
    <path d="M294 734c9.333 -9.333 20.667 -14 34 -14c13.333 0 25.333 4.667 36 14c21.333 22.667 21.333 46 0 70c0 0 -42 40 -42 40c-37.333 37.333 -81.333 56 -132 56c-52 0 -96.667 -18.667 -134 -56c-37.333 -37.333 -56 -81.333 -56 -132c0 -52 18.667 -96.667 56 -134c0 0 148 -148 148 -148c46.667 -45.333 94.667 -71 144 -77c49.333 -6 92 8.333 128 43c10.667 10.667 16 22.667 16 36c0 13.333 -5.333 25.333 -16 36c-24 21.333 -47.333 21.333 -70 0c-33.333 -32 -77.333 -20.667 -132 34c0 0 -148 146 -148 146c-17.333 17.333 -26 38.667 -26 64c0 25.333 8.667 46 26 62c17.333 17.333 38.333 26 63 26c24.667 0 45.667 -8.667 63 -26c0 0 42 -40 42 -40m450 -574c37.333 37.333 56 81.333 56 132c0 52 -18.667 96.667 -56 134c0 0 -158 158 -158 158c-49.333 48 -99.333 72 -150 72c-41.333 0 -78.667 -16.667 -112 -50c-9.333 -9.333 -14 -20.667 -14 -34c0 -13.333 4.667 -25.333 14 -36c9.333 -9.333 21 -14 35 -14c14 0 25.667 4.667 35 14c33.333 32 74 24 122 -24c0 0 158 -156 158 -156c18.667 -18.667 28 -40 28 -64c0 -25.333 -9.333 -46 -28 -62c-16 -17.333 -34.667 -27.667 -56 -31c-21.333 -3.333 -41.333 3.667 -60 21c0 0 -50 50 -50 50c-10.667 9.333 -22.667 14 -36 14c-13.333 0 -24.667 -4.667 -34 -14c-22.667 -22.667 -22.667 -46 0 -70c0 0 50 -50 50 -50c36 -36 78.333 -53 127 -51c48.667 2 91.667 22.333 129 61c0 0 0 0 0 0" />
  </g>
</svg>