<svg height="1000px" width="960px" xmlns="http://www.w3.org/2000/svg">
  <g>
    <path d="M480 20c133.333 0 246.667 46.667 340 140c93.333 93.333 140 206.667 140 340c0 132 -46.667 245 -140 339c-93.333 94 -206.667 141 -340 141c-132 0 -245 -47 -339 -141c-94 -94 -141 -207 -141 -339c0 -133.333 47 -246.667 141 -340c94 -93.333 207 -140 339 -140c0 0 0 0 0 0m-118 678c0 0 0 -312 0 -312c0 0 -96 0 -96 0c0 0 0 312 0 312c0 0 96 0 96 0c0 0 0 0 0 0m-48 -352c34.667 0 52 -16 52 -48c0 -32 -17.333 -48 -52 -48c-14.667 0 -27 4.667 -37 14c-10 9.333 -15 20.667 -15 34c0 32 17.333 48 52 48c0 0 0 0 0 0m404 352c0 0 0 -184 0 -184c0 -44 -10.333 -77.667 -31 -101c-20.667 -23.333 -47.667 -35 -81 -35c-44 0 -76 16.667 -96 50c0 0 -2 0 -2 0c0 0 -6 -42 -6 -42c0 0 -84 0 -84 0c1.333 18.667 2 52 2 100c0 0 0 212 0 212c0 0 98 0 98 0c0 0 0 -180 0 -180c0 -12 1.333 -20 4 -24c8 -25.333 24.667 -38 50 -38c32 0 48 22.667 48 68c0 0 0 174 0 174c0 0 98 0 98 0c0 0 0 0 0 0" />
  </g>
</svg>