<svg height="1000px" width="700px" xmlns="http://www.w3.org/2000/svg">
  <g>
    <path d="M640 374c13.333 0 26.667 6.333 40 19c13.333 12.667 20 26.333 20 41c0 0 0 390 0 390c0 32 -16 54 -48 66c0 0 -60 18 -60 18c-28 10.667 -60 16 -96 16c0 0 -290 0 -290 0c-37.333 0 -70 -5.333 -98 -16c0 0 -60 -18 -60 -18c-32 -12 -48 -34 -48 -66c0 0 0 -390 0 -390c0 -14.667 5 -28.333 15 -41c10 -12.667 21.667 -19 35 -19c0 0 100 0 100 0c0 0 0 -70 0 -70c0 -73.333 17 -130 51 -170c34 -40 83.667 -60 149 -60c65.333 0 115 20 149 60c34 40 51 96.667 51 170c0 0 0 70 0 70c0 0 90 0 90 0c0 0 0 0 0 0m-390 -90c0 0 0 90 0 90c0 0 200 0 200 0c0 0 0 -90 0 -90c0 -34.667 -9 -61.667 -27 -81c-18 -19.333 -42.333 -29 -73 -29c-30.667 0 -55 9.667 -73 29c-18 19.333 -27 46.333 -27 81c0 0 0 0 0 0" />
  </g>
</svg>