<svg height="1000px" width="725.5625px" xmlns="http://www.w3.org/2000/svg">
  <g>
    <path d="M546 610c32 60 30.667 120 -4 180c-28 46.667 -66.333 76 -115 88c-48.667 12 -99 3.333 -151 -26c0 0 -64 -36 -64 -36c0 0 -108 184 -108 184c0 0 -56 -32 -56 -32c0 0 206 -358 206 -358c-45.333 6.667 -90 -2.667 -134 -28c0 0 -120 -70 -120 -70c0 0 186 -324 186 -324c0 0 122 70 122 70c44 26.667 74.667 60 92 100c0 0 206 -358 206 -358c0 0 58 34 58 34c0 0 -108 186 -108 186c0 0 64 36 64 36c50.667 29.333 83.333 69 98 119c14.667 50 8 97.667 -20 143c-32 58.667 -82.667 89.333 -152 92c0 0 0 0 0 0m44 -302c0 0 -64 -38 -64 -38c0 0 -124 216 -124 216c0 1.333 -0.667 3.333 -2 6c0 0 62 36 62 36c34.667 20 68 25.667 100 17c32 -8.667 57.333 -29 76 -61c18.667 -32 23.667 -64.333 15 -97c-8.667 -32.667 -29.667 -59 -63 -79c0 0 0 0 0 0m-440 222c34.667 20 68 25.667 100 17c32 -8.667 57.333 -29 76 -61c18.667 -32 23.667 -64.667 15 -98c-8.667 -33.333 -29.667 -59.333 -63 -78c0 0 -64 -38 -64 -38c0 0 -128 222 -128 222c0 0 64 36 64 36m156 270c34.667 20 68 25.667 100 17c32 -8.667 57.333 -29 76 -61c18.667 -32 23.333 -64.333 14 -97c-9.333 -32.667 -30.667 -59 -64 -79c0 0 -62 -36 -62 -36c0 0 -4 4 -4 4c0 0 -124 216 -124 216c0 0 64 36 64 36" />
  </g>
</svg>