<svg height="1000px" width="900px" xmlns="http://www.w3.org/2000/svg">
  <g>
    <path d="M502 850c0 0 0 -100 0 -100c0 0 98 0 98 0c0 0 0 100 0 100c0 26.667 -9.667 50 -29 70c-19.333 20 -43 30 -71 30c0 0 -400 0 -400 0c-26.667 0 -50 -10 -70 -30c-20 -20 -30 -43.333 -30 -70c0 0 0 -700 0 -700c0 -28 10 -51.667 30 -71c20 -19.333 43.333 -29 70 -29c0 0 400 0 400 0c28 0 51.667 9.667 71 29c19.333 19.333 29 43 29 71c0 0 0 150 0 150c0 0 -98 0 -98 0c0 0 0 -150 0 -150c0 0 -402 0 -402 0c0 0 0 700 0 700c0 0 402 0 402 0c0 0 0 0 0 0m398 -326c0 0 -198 196 -198 196c0 0 0 -120 0 -120c0 0 -450 0 -450 0c0 0 0 -150 0 -150c0 0 450 0 450 0c0 0 0 -120 0 -120c0 0 198 194 198 194" />
  </g>
</svg>