<svg height="1000px" width="1000px" xmlns="http://www.w3.org/2000/svg">
  <g>
    <path d="M984 250c10.667 6.667 16 16.667 16 30c0 0 0 584 0 584c0 13.333 -5.333 23.333 -16 30c-5.333 4 -10.667 6 -16 6c-5.333 0 -11.333 -2 -18 -6c0 0 -216 -136 -216 -136c0 0 -216 136 -216 136c-12 6.667 -23.333 6.667 -34 0c0 0 -218 -136 -218 -136c0 0 -216 136 -216 136c-10.667 6.667 -22 6.667 -34 0c-10.667 -6.667 -16 -16.667 -16 -30c0 0 0 -584 0 -584c0 -13.333 5.333 -23.333 16 -30c0 0 234 -146 234 -146c12 -6.667 23.333 -6.667 34 0c0 0 216 136 216 136c0 0 218 -136 218 -136c10.667 -6.667 21.333 -6.667 32 0c0 0 234 146 234 146m-750 450c0 0 0 -506 0 -506c0 0 -168 104 -168 104c0 0 0 506 0 506c0 0 168 -104 168 -104m234 104c0 0 0 -506 0 -506c0 0 -168 -104 -168 -104c0 0 0 506 0 506c0 0 168 104 168 104m234 -104c0 0 0 -506 0 -506c0 0 -170 104 -170 104c0 0 0 506 0 506c0 0 170 -104 170 -104m232 104c0 0 0 -506 0 -506c0 0 -168 -104 -168 -104c0 0 0 506 0 506c0 0 168 104 168 104" />
  </g>
</svg>