<svg height="1000px" width="640px" xmlns="http://www.w3.org/2000/svg">
  <g>
    <path d="M620 362c13.333 0 20 6.667 20 20c0 0 0 138 0 138c0 61.333 -23 116 -69 164c-46 48 -113 76 -201 84c0 0 0 132 0 132c0 0 130 0 130 0c13.333 0 20 6.667 20 20c0 0 0 60 0 60c0 13.333 -6.667 20 -20 20c0 0 -360 0 -360 0c-13.333 0 -20 -6.667 -20 -20c0 0 0 -60 0 -60c0 -13.333 6.667 -20 20 -20c0 0 130 0 130 0c0 0 0 -132 0 -132c-88 -8 -155 -36 -201 -84c-46 -48 -69 -102.667 -69 -164c0 0 0 -138 0 -138c0 -13.333 6.667 -20 20 -20c0 0 30 0 30 0c13.333 0 20 6.667 20 20c0 0 0 138 0 138c0 44 19.667 85 59 123c39.333 38 103 57 191 57c88 0 151.667 -19 191 -57c39.333 -38 59 -79 59 -123c0 0 0 -138 0 -138c0 -13.333 6.667 -20 20 -20c0 0 30 0 30 0c0 0 0 0 0 0m-300 238c-53.333 0 -91.667 -8.333 -115 -25c-23.333 -16.667 -35 -35 -35 -55c0 0 0 -158 0 -158c0 0 300 0 300 0c0 0 0 158 0 158c0 20 -11.667 38.333 -35 55c-23.333 16.667 -61.667 25 -115 25c0 0 0 0 0 0m150 -520c0 0 0 212 0 212c0 0 -300 0 -300 0c0 0 0 -212 0 -212c0 -20 11.667 -38.333 35 -55c23.333 -16.667 61.667 -25 115 -25c53.333 0 91.667 8.333 115 25c23.333 16.667 35 35 35 55c0 0 0 0 0 0" />
  </g>
</svg>