<svg height="1000px" width="1000px" xmlns="http://www.w3.org/2000/svg">
  <g>
    <path d="M900 60c28 0 51.667 10 71 30c19.333 20 29 43.333 29 70c0 0 0 550 0 550c0 28 -9.667 53.667 -29 77c-19.333 23.333 -42.333 37.667 -69 43c0 0 -218 44 -218 44c0 0 86 38 86 38c33.333 18.667 26.667 28 -20 28c0 0 -500 0 -500 0c-65.333 0 -54.667 -17.333 32 -52c0 0 36 -14 36 -14c0 0 -220 -44 -220 -44c-26.667 -5.333 -49.667 -19.667 -69 -43c-19.333 -23.333 -29 -49 -29 -77c0 0 0 -550 0 -550c0 -26.667 10 -50 30 -70c20 -20 43.333 -30 70 -30c0 0 800 0 800 0c0 0 0 0 0 0m0 646c0 0 0 -556 0 -556c0 0 -800 0 -800 0c0 0 0 556 0 556c0 0 800 0 800 0c0 0 0 0 0 0" />
  </g>
</svg>