<svg height="1000px" width="700px" xmlns="http://www.w3.org/2000/svg">
  <g>
    <path d="M600 50c28 0 51.667 9.667 71 29c19.333 19.333 29 43 29 71c0 0 0 700 0 700c0 26.667 -9.667 50 -29 70c-19.333 20 -43 30 -71 30c0 0 -500 0 -500 0c-26.667 0 -50 -10 -70 -30c-20 -20 -30 -43.333 -30 -70c0 0 0 -700 0 -700c0 -28 10 -51.667 30 -71c20 -19.333 43.333 -29 70 -29c0 0 500 0 500 0c0 0 0 0 0 0m-110 476c21.333 -29.333 29 -60 23 -92c-6 -32 -17 -58.667 -33 -80c-16 -21.333 -32.333 -43.333 -49 -66c-16.667 -22.667 -25 -40.667 -25 -54c0 0 -60 0 -60 0c0 0 0 368 0 368c-28 -10.667 -58 -10 -90 2c-28 9.333 -49.333 25.333 -64 48c-14.667 22.667 -18.667 44 -12 64c8 21.333 25.667 36.333 53 45c27.333 8.667 55.667 8.333 85 -1c58.667 -20 88 -52.667 88 -98c0 0 0 -262 0 -262c24 4 42.333 14.667 55 32c12.667 17.333 18.667 34.667 18 52c-0.667 17.333 -1.667 31.333 -3 42c-2.667 6.667 -2 10 2 10c2.667 0 6.667 -3.333 12 -10c0 0 0 0 0 0" />
  </g>
</svg>