<svg height="1000px" width="884px" xmlns="http://www.w3.org/2000/svg">
  <g>
    <path d="M868 72c10.667 10.667 16 22.667 16 36c0 13.333 -5.333 25.333 -16 36c0 0 -782 782 -782 782c-12 9.333 -23.333 14 -34 14c-12 0 -24 -4.667 -36 -14c-10.667 -9.333 -16 -21.333 -16 -36c0 -14.667 5.333 -26.667 16 -36c0 0 782 -782 782 -782c22.667 -21.333 46 -21.333 70 0c0 0 0 0 0 0m-216 386c0 0 50 -50 50 -50c49.333 61.333 83 118.667 101 172c18 53.333 15.667 92 -7 116c-16 16 -41 35 -75 57c-34 22 -77.667 45.667 -131 71c-53.333 25.333 -107 40.333 -161 45c-54 4.667 -109 -3 -165 -23c0 0 278 -276 278 -276c29.333 21.333 58.667 39.333 88 54c29.333 14.667 51.667 23 67 25c15.333 2 26.333 1.667 33 -1c4 -6.667 4.667 -18 2 -34c-2.667 -16 -11.333 -38.667 -26 -68c-14.667 -29.333 -32.667 -58.667 -54 -88c0 0 0 0 0 0m-276 -62c0 0 -270 270 -270 270c-26.667 -88 -17.333 -182.333 28 -283c45.333 -100.667 89.333 -172.333 132 -215c22.667 -21.333 57.667 -25 105 -11c47.333 14 100.333 42.333 159 85c0 0 -52 50 -52 50c-38.667 -25.333 -73.667 -43 -105 -53c-31.333 -10 -50.333 -11.667 -57 -5c-2.667 5.333 -3.333 14.667 -2 28c1.333 13.333 7.667 32.667 19 58c11.333 25.333 25.667 50.667 43 76c0 0 0 0 0 0" />
  </g>
</svg>