<svg height="1000px" width="577.25px" xmlns="http://www.w3.org/2000/svg">
  <g>
    <path d="M380.25 30c0 28 15.333 60.333 46 97c30.667 36.667 60.667 70 90 100c29.333 30 49.667 69.667 61 119c11.333 49.333 -1.667 100.667 -39 154c-13.333 22.667 -22 28 -26 16c-1.333 -4 -1.333 -9.333 0 -16c6.667 -12 8.667 -30.667 6 -56c-2.667 -25.333 -7 -51.333 -13 -78c-6 -26.667 -20.333 -51 -43 -73c-22.667 -22 -50 -35.667 -82 -41c0 0 0 536 0 536c1.333 32 -11 63.667 -37 95c-26 31.333 -61 55 -105 71c-49.333 18.667 -97 21.333 -143 8c-46 -13.333 -75.667 -38.667 -89 -76c-13.333 -37.333 -6.667 -75.667 20 -115c26.667 -39.333 65.333 -67.667 116 -85c57.333 -20 110 -21.333 158 -4c0 0 0 -652 0 -652c0 0 80 0 80 0c0 0 0 0 0 0" />
  </g>
</svg>