<svg height="1000px" width="921.3333129882812px" xmlns="http://www.w3.org/2000/svg">
  <g>
    <path d="M894 130c9.333 -2.667 16.667 -1.667 22 3c5.333 4.667 6.667 11 4 19c-1.333 4 -25.333 107.333 -72 310c-46.667 202.667 -71.333 308 -74 316c-1.333 9.333 -6 15.667 -14 19c-8 3.333 -16 3 -24 -1c0 0 -248 -134 -248 -134c0 0 -30 -16 -30 -16c0 0 22 -26 22 -26c258.667 -280 390 -422 394 -426c2.667 -2.667 2.333 -5.667 -1 -9c-3.333 -3.333 -6.333 -3.667 -9 -1c0 0 -550 402 -550 402c0 0 -112 -44 -112 -44c0 0 -190 -76 -190 -76c-8 -2.667 -12 -6.667 -12 -12c0 -5.333 4 -9.333 12 -12c5.333 -2.667 152.333 -55 441 -157c288.667 -102 435.667 -153.667 441 -155c0 0 0 0 0 0m-582 728c0 0 0 -204 0 -204c0 0 160 82 160 82c-86.667 77.333 -134 120 -142 128c-12 9.333 -18 7.333 -18 -6c0 0 0 0 0 0" />
  </g>
</svg>