<svg height="1000px" width="859.23046875px" xmlns="http://www.w3.org/2000/svg">
  <g>
    <path d="M771.23046875 240c0 0 8 4 8 4c25.333 14.667 45.333 35.333 60 62c13.333 25.333 20 57.333 20 96c0 86.667 -36.667 156.667 -110 210c-70.667 53.333 -172.667 80 -306 80c0 0 -30 0 -30 0c-10.667 0 -21.333 4 -32 12c-10.667 8 -17.333 17.333 -20 28c0 0 -36 156 -36 156c-8 28 -25.333 42 -52 42c0 0 -106 0 -106 0c-12 0 -21.333 -4.333 -28 -13c-6.667 -8.667 -8.667 -18.333 -6 -29c0 0 6 -24 6 -24c0 0 68 0 68 0c10.667 0 21.333 -4.333 32 -13c10.667 -8.667 17.333 -18.333 20 -29c0 0 36 -156 36 -156c6.667 -26.667 24 -40 52 -40c0 0 30 0 30 0c130.667 0 232.667 -26.667 306 -80c73.333 -54.667 110 -124.667 110 -210c0 -37.333 -7.333 -69.333 -22 -96c0 0 0 0 0 0m-580 516c-1.333 10.667 -7.333 20.333 -18 29c-10.667 8.667 -21.333 13 -32 13c0 0 -108 0 -108 0c-12 0 -21 -4.333 -27 -13c-6 -8.667 -7.667 -18.333 -5 -29c0 0 150 -646 150 -646c6.667 -26.667 24 -40 52 -40c0 0 224 0 224 0c52 0 94 2.667 126 8c37.333 8 68.667 19.333 94 34c24 16 43.333 36.667 58 62c13.333 25.333 20 57.333 20 96c0 86.667 -36.667 156.667 -110 210c-70.667 53.333 -172 80 -304 80c0 0 -32 0 -32 0c-10.667 0 -21.333 4 -32 12c-10.667 8 -16.667 17.333 -18 28c0 0 -38 156 -38 156m88 -374c-2.667 10.667 -0.667 20 6 28c6.667 8 15.333 12 26 12c0 0 28 0 28 0c57.333 0 102 -12 134 -36c32 -22.667 48 -55.333 48 -98c0 -29.333 -10 -50.667 -30 -64c-21.333 -13.333 -52.667 -20 -94 -20c0 0 -34 0 -34 0c-28 0 -45.333 13.333 -52 40c0 0 -32 138 -32 138" />
  </g>
</svg>