<svg height="1000px" width="799.5664062499999px" xmlns="http://www.w3.org/2000/svg">
  <g>
    <path d="M461.06640625 560c108 -108 147.333 -176.667 118 -206c0 0 -8 -8 -8 -8c-20 -20 -33.667 -36 -41 -48c-7.333 -12 -8.667 -30 -4 -54c4.667 -24 21 -53.333 49 -88c13.333 -16 25.667 -29 37 -39c11.333 -10 23 -15.333 35 -16c12 -0.667 22 -1 30 -1c8 0 17.667 4.333 29 13c11.333 8.667 19.333 14.667 24 18c4.667 3.333 13.333 11.667 26 25c12.667 13.333 19.667 20.667 21 22c32 32 30 96.667 -6 194c-36 97.333 -104 195.333 -204 294c-100 100 -198.333 168.333 -295 205c-96.667 36.667 -161 39 -193 7c-1.333 -1.333 -9 -8.667 -23 -22c-14 -13.333 -22.333 -21.667 -25 -25c-2.667 -3.333 -8.667 -11.333 -18 -24c-9.333 -12.667 -13.667 -23 -13 -31c0.667 -8 1.333 -18 2 -30c0.667 -12 5.667 -23.667 15 -35c9.333 -11.333 22 -23.667 38 -37c28 -22.667 51.333 -38.333 70 -47c18.667 -8.667 36.667 -9.333 54 -2c17.333 7.333 29 13.333 35 18c6 4.667 19 17 39 37c29.333 29.333 98.667 -10.667 208 -120c0 0 0 0 0 0" />
  </g>
</svg>