<svg height="1000px" width="920px" xmlns="http://www.w3.org/2000/svg">
  <g>
    <path d="M250 90c6.667 8 59.333 56 158 144c0 0 -396 362 -396 362c-8 -32 -12 -64 -12 -96c0 -86.667 22.333 -166.667 67 -240c44.667 -73.333 105.667 -130 183 -170c0 0 0 0 0 0m400 -10c0 0 0 278 0 278c0 0 -328 -296 -328 -296c42.667 -14.667 88.667 -22 138 -22c65.333 0 128.667 13.333 190 40c0 0 0 0 0 0m70 40c62.667 42.667 111.667 97.667 147 165c35.333 67.333 53 139 53 215c0 53.333 -8.667 104 -26 152c0 0 -174 0 -174 0c0 0 0 -532 0 -532c0 0 0 0 0 0m-686 550c8 -8 30 -28 66 -60c0 0 102 -92 102 -92c0 0 0 362 0 362c-77.333 -53.333 -133.333 -123.333 -168 -210c0 0 0 0 0 0m238 250c0 0 0 -198 0 -198c0 0 590 0 590 0c-37.333 66.667 -87.667 121 -151 163c-63.333 42 -133 67 -209 75c0 0 -84 0 -84 0c-56 -6.667 -104.667 -20 -146 -40c0 0 0 0 0 0" />
  </g>
</svg>