<svg height="1000px" width="1000.375px" xmlns="http://www.w3.org/2000/svg">
  <g>
    <path d="M856.375 332c0 0 -100 0 -100 0c0 0 -124 -150 -124 -150c0 0 -214 150 -214 150c0 0 -180 0 -180 0c-34.667 0 -64.667 13 -90 39c-25.333 26 -38 56.333 -38 91c0 0 0 160 0 160c0 0 -108 -296 -108 -296c-6.667 -25.333 0.667 -42.667 22 -52c0 0 680 -248 680 -248c24 -6.667 40.667 1.333 50 24c0 0 102 282 102 282m106 90c10.667 0 19.667 4 27 12c7.333 8 11 17.333 11 28c0 0 0 472 0 472c0 10.667 -3.667 20 -11 28c-7.333 8 -16.333 12 -27 12c0 0 -724 0 -724 0c-10.667 0 -19.667 -4 -27 -12c-7.333 -8 -11 -17.333 -11 -28c0 0 0 -472 0 -472c0 -10.667 3.667 -20 11 -28c7.333 -8 16.333 -12 27 -12c0 0 724 0 724 0c0 0 0 0 0 0m-56 452c0 0 0 -162 0 -162c0 0 -72 -160 -72 -160c0 0 -166 60 -166 60c0 0 -130 132 -130 132c0 0 -138 -170 -138 -170c0 0 -92 214 -92 214c0 0 0 86 0 86c0 0 598 0 598 0c0 0 0 0 0 0" />
  </g>
</svg>