<svg height="1000px" width="960px" xmlns="http://www.w3.org/2000/svg">
  <g>
    <path d="M480 20c133.333 0 246.667 46.667 340 140c93.333 93.333 140 206.667 140 340c0 132 -46.667 245 -140 339c-93.333 94 -206.667 141 -340 141c-133.333 0 -246.667 -47 -340 -141c-93.333 -94 -140 -207 -140 -339c0 -133.333 46.667 -246.667 140 -340c93.333 -93.333 206.667 -140 340 -140c0 0 0 0 0 0m32 592c54.667 5.333 97.333 -16 128 -64c30.667 -48 42 -102 34 -162c-6.667 -48 -31.333 -84.667 -74 -110c-42.667 -25.333 -91.333 -34.667 -146 -28c-44 5.333 -83 24 -117 56c-34 32 -51.667 71.333 -53 118c-2.667 66.667 20.667 105.333 70 116c6.667 -16 9.667 -27 9 -33c-0.667 -6 -4 -14 -10 -24c-6 -10 -9.667 -19 -11 -27c-9.333 -64 16.667 -112 78 -144c61.333 -32 114 -26 158 18c32 32 38.667 81.333 20 148c-18.667 66.667 -51.333 95.333 -98 86c-26.667 -5.333 -37.667 -23.333 -33 -54c4.667 -30.667 12.667 -59.333 24 -86c11.333 -26.667 4.333 -46.667 -21 -60c-28 -12 -49.667 -1 -65 33c-15.333 34 -15 63.667 1 89c-2.667 13.333 -9.667 41 -21 83c-11.333 42 -17.333 71 -18 87c-0.667 16 -0.333 48.667 1 98c34.667 -25.333 60.667 -82.667 78 -172c30.667 20 52.667 30.667 66 32c0 0 0 0 0 0" />
  </g>
</svg>