<svg height="1000px" width="980px" xmlns="http://www.w3.org/2000/svg">
  <g>
    <path d="M66 324c-17.333 0 -24.667 -7.333 -22 -22c2.667 -6.667 6.667 -11.333 12 -14c1.333 0 17.667 -5.667 49 -17c31.333 -11.333 62.333 -22 93 -32c30.667 -10 50 -15 58 -15c0 0 44 0 44 0c0 0 0 -150 0 -150c0 0 380 0 380 0c0 0 0 150 0 150c0 0 46 0 46 0c8 0 27 5 57 15c30 10 60.667 20.667 92 32c31.333 11.333 47.667 17 49 17c12 5.333 16 14 12 26c-2.667 6.667 -9.333 10 -20 10c0 0 -850 0 -850 0c0 0 0 0 0 0m860 56c13.333 0 25.667 6.333 37 19c11.333 12.667 17 26.333 17 41c0 0 0 174 0 174c0 14.667 -5.667 28.333 -17 41c-11.333 12.667 -23.667 19 -37 19c0 0 -100 0 -100 0c0 0 44 250 44 250c0 0 -760 0 -760 0c0 0 44 -250 44 -250c0 0 -98 0 -98 0c-13.333 0 -26 -6.333 -38 -19c-12 -12.667 -18 -26.333 -18 -41c0 0 0 -174 0 -174c0 -14.667 6 -28.333 18 -41c12 -12.667 24.667 -19 38 -19c0 0 870 0 870 0c0 0 0 0 0 0m-716 444c0 0 560 0 560 0c0 0 -70 -324 -70 -324c0 0 -420 0 -420 0c0 0 -70 324 -70 324" />
  </g>
</svg>