<svg height="1000px" width="762.41796875px" xmlns="http://www.w3.org/2000/svg">
  <g>
    <path d="M146 170c97.333 0 158.667 48.667 184 146c25.333 93.333 12 194 -40 302c-53.333 112 -128 180 -224 204c-21.333 5.333 -43.333 8 -66 8c0 0 0 -70 0 -70c74.667 0 135.333 -36 182 -108c36 -57.333 44.667 -106 26 -146c-10.667 -24 -31.333 -36 -62 -36c-40 0 -74.333 -14.667 -103 -44c-28.667 -29.333 -43 -64.667 -43 -106c0 -41.333 14.333 -76.667 43 -106c28.667 -29.333 63 -44 103 -44c0 0 0 0 0 0m420 0c97.333 0 158.667 48.667 184 146c25.333 93.333 12 194 -40 302c-53.333 112 -128 180 -224 204c-21.333 5.333 -43.333 8 -66 8c0 0 0 -70 0 -70c74.667 0 135.333 -36 182 -108c36 -57.333 44.667 -106 26 -146c-10.667 -24 -31.333 -36 -62 -36c-40 0 -74.333 -14.667 -103 -44c-28.667 -29.333 -43 -64.667 -43 -106c0 -41.333 14.333 -76.667 43 -106c28.667 -29.333 63 -44 103 -44c0 0 0 0 0 0" />
  </g>
</svg>