<svg height="1000px" width="960px" xmlns="http://www.w3.org/2000/svg">
  <g>
    <path d="M480 20c132 0 245 46.667 339 140c94 93.333 141 206.667 141 340c0 132 -47 245 -141 339c-94 94 -207 141 -339 141c-133.333 0 -246.667 -47 -340 -141c-93.333 -94 -140 -207 -140 -339c0 -133.333 46.667 -246.667 140 -340c93.333 -93.333 206.667 -140 340 -140c0 0 0 0 0 0m170 454c34.667 -10.667 58.667 -30.667 72 -60c8 -14.667 6.667 -22 -4 -22c-48 -2.667 -100 -22 -156 -58c-1.333 -1.333 -3.333 -2.667 -6 -4c-2.667 -1.333 -4.667 -2.667 -6 -4c0 0 0 146 0 146c0 49.333 -20.667 82.667 -62 100c-22.667 12 -45.667 15 -69 9c-23.333 -6 -39.667 -19.667 -49 -41c-9.333 -20 -8.667 -41.333 2 -64c10.667 -22.667 28 -39.333 52 -50c24 -13.333 50 -15.333 78 -6c0 0 0 -112 0 -112c-14.667 -4 -30 -6 -46 -6c-53.333 0 -99 19.333 -137 58c-38 38.667 -57 85.333 -57 140c0 53.333 19 99.333 57 138c38 38.667 83.667 58 137 58c53.333 0 99.333 -19.333 138 -58c38.667 -38.667 58 -84.667 58 -138c0 -4 -0.333 -8.667 -1 -14c-0.667 -5.333 -1 -9.333 -1 -12c0 0 0 0 0 0" />
  </g>
</svg>