<svg height="1000px" width="921.06640625px" xmlns="http://www.w3.org/2000/svg">
  <g>
    <path d="M766 448c2.667 21.333 4 38.667 4 52c0 106.667 -37.667 198.333 -113 275c-75.333 76.667 -166.333 115 -273 115c-105.333 0 -195.667 -38.333 -271 -115c-75.333 -76.667 -113 -168.333 -113 -275c0 -108 37.333 -200 112 -276c74.667 -76 165.333 -114 272 -114c34.667 0 64.667 3.333 90 10c0 0 0 222 0 222c-50.667 -17.333 -102 -14 -154 10c-46.667 22.667 -80.333 56.333 -101 101c-20.667 44.667 -22.333 87.667 -5 129c17.333 40 49 66.333 95 79c46 12.667 92.333 7.667 139 -15c34.667 -17.333 63.667 -44 87 -80c23.333 -36 35 -76.667 35 -122c0 0 0 -286 0 -286c10.667 5.333 18.667 10 24 14c116 72 219.333 110 310 114c21.333 1.333 22.667 18.667 4 52c-28 50.667 -71.333 86 -130 106c0 0 -12 4 -12 4" />
  </g>
</svg>