<svg height="1000px" width="857.7499999999999px" xmlns="http://www.w3.org/2000/svg">
  <g>
    <path d="M543.25 614c4 33.333 6.667 60.333 8 81c1.333 20.667 -1.333 40.333 -8 59c-6.667 18.667 -11 32 -13 40c-2 8 -13.667 18.667 -35 32c-21.333 13.333 -36.333 22 -45 26c-8.667 4 -32 14.333 -70 31c-38 16.667 -66.333 29 -85 37c-21.333 8 -36.333 6.667 -45 -4c-8.667 -10.667 -9.667 -25.333 -3 -44c0 0 40 -110 40 -110c0 0 -130 -132 -130 -132c0 0 -106 40 -106 40c-18.667 8 -33 7.333 -43 -2c-10 -9.333 -11 -24.667 -3 -46c8 -20 18.333 -46.333 31 -79c12.667 -32.667 21.667 -54.333 27 -65c5.333 -10.667 12.667 -25.667 22 -45c9.333 -19.333 17.667 -31.333 25 -36c7.333 -4.667 17 -11.333 29 -20c12 -8.667 25.667 -13 41 -13c0 0 52 0 52 0c0 0 23.667 2 71 6c6.667 -9.333 16.333 -22.333 29 -39c12.667 -16.667 38.333 -45 77 -85c38.667 -40 78 -74.667 118 -104c40 -29.333 88.333 -54.333 145 -75c56.667 -20.667 111.667 -27 165 -19c5.333 0 10 2 14 6c2.667 2.667 4.667 7.333 6 14c6.667 54.667 0.667 110.667 -18 168c-18.667 57.333 -44 107.667 -76 151c-32 43.333 -64.667 82.667 -98 118c-33.333 35.333 -62 62.333 -86 81c0 0 -36 28 -36 28m50 -296c14.667 14.667 32.667 22 54 22c21.333 0 39.333 -7.333 54 -22c14.667 -16 22 -34.667 22 -56c0 -21.333 -7.333 -40 -22 -56c-14.667 -14.667 -32.667 -22 -54 -22c-21.333 0 -39.333 7.333 -54 22c-14.667 16 -22 34.667 -22 56c0 21.333 7.333 40 22 56c0 0 0 0 0 0" />
  </g>
</svg>