<svg height="1000px" width="760px" xmlns="http://www.w3.org/2000/svg">
  <g>
    <path d="M0 120c209.333 0 388.333 74.333 537 223c148.667 148.667 223 327.667 223 537c0 0 -118 0 -118 0c0 -177.333 -62.667 -328.333 -188 -453c-125.333 -124.667 -276.667 -187 -454 -187c0 0 0 -120 0 -120c0 0 0 0 0 0m0 238c145.333 0 269 51 371 153c102 102 153 225 153 369c0 0 -118 0 -118 0c0 -110.667 -39.667 -205.667 -119 -285c-79.333 -79.333 -175 -119 -287 -119c0 0 0 -118 0 -118c0 0 0 0 0 0m114 296c30.667 0 57.333 11 80 33c22.667 22 34 49 34 81c0 30.667 -11.333 57 -34 79c-22.667 22 -49.333 33 -80 33c-30.667 0 -57.333 -11 -80 -33c-22.667 -22 -34 -48.333 -34 -79c0 -32 11.333 -59 34 -81c22.667 -22 49.333 -33 80 -33c0 0 0 0 0 0" />
  </g>
</svg>