<svg height="1000px" width="788.4999999999999px" xmlns="http://www.w3.org/2000/svg">
  <g>
    <path d="M772 772c20 22.667 22 43.333 6 62c0 0 -46 46 -46 46c-24 21.333 -46.667 21.333 -68 0c0 0 -190 -190 -190 -190c-49.333 28 -101.333 42 -156 42c-85.333 0 -159.667 -31.667 -223 -95c-63.333 -63.333 -95 -137.667 -95 -223c0 -85.333 30 -158.333 90 -219c60 -60.667 132.667 -91 218 -91c85.333 0 160 31.667 224 95c64 63.333 96 137.667 96 223c0 58.667 -15.333 112.667 -46 162c0 0 190 188 190 188m-678 -358c0 58.667 22.667 110.667 68 156c45.333 45.333 97.333 68 156 68c58.667 0 109 -21 151 -63c42 -42 63 -93 63 -153c0 -58.667 -22.667 -110.333 -68 -155c-45.333 -44.667 -97.333 -67 -156 -67c-58.667 0 -109 21 -151 63c-42 42 -63 92.333 -63 151c0 0 0 0 0 0" />
  </g>
</svg>