<svg height="1000px" width="1000px" xmlns="http://www.w3.org/2000/svg">
  <g>
    <path d="M754 334c-36 0 -71 10.667 -105 32c-34 21.333 -60.667 43.333 -80 66c-19.333 22.667 -47 57.333 -83 104c-32 41.333 -57 72.667 -75 94c-18 21.333 -44 47 -78 77c-34 30 -69.667 52 -107 66c-37.333 14 -78 21 -122 21c0 0 -104 0 -104 0c0 0 0 -140 0 -140c0 0 104 0 104 0c36 0 71.333 -10.667 106 -32c34.667 -21.333 61.667 -43.333 81 -66c19.333 -22.667 47 -57.333 83 -104c41.333 -54.667 75 -96.667 101 -126c26 -29.333 64.667 -58.667 116 -88c51.333 -29.333 105.667 -44 163 -44c0 0 36 0 36 0c0 0 0 -120 0 -120c0 0 210 180 210 180c0 0 -210 180 -210 180c0 0 0 -100 0 -100c0 0 -36 0 -36 0c0 0 0 0 0 0m-484 88c-49.333 -52 -104.667 -78 -166 -78c0 0 -104 0 -104 0c0 0 0 -140 0 -140c0 0 104 0 104 0c93.333 0 178 36 254 108c-9.333 10.667 -21.667 25.667 -37 45c-15.333 19.333 -24.333 30.333 -27 33c-5.333 8 -13.333 18.667 -24 32c0 0 0 0 0 0m520 242c0 0 0 -100 0 -100c0 0 210 180 210 180c0 0 -210 180 -210 180c0 0 0 -120 0 -120c0 0 -36 0 -36 0c-93.333 0 -180 -38.667 -260 -116c30.667 -38.667 54.667 -69.333 72 -92c0 -1.333 2 -4.333 6 -9c4 -4.667 6.667 -8.333 8 -11c56 58.667 114 88 174 88c0 0 36 0 36 0c0 0 0 0 0 0" />
  </g>
</svg>