<svg height="1000px" width="980px" xmlns="http://www.w3.org/2000/svg">
  <g>
    <path d="M490 700c28 0 51.667 10 71 30c19.333 20 29 43.333 29 70c0 28 -9.667 51.667 -29 71c-19.333 19.333 -43 29 -71 29c-26.667 0 -49.667 -9.667 -69 -29c-19.333 -19.333 -29 -43 -29 -71c0 -26.667 9.667 -50 29 -70c19.333 -20 42.333 -30 69 -30c0 0 0 0 0 0m-210 -112c58.667 -58.667 128.667 -88 210 -88c81.333 0 151.333 29.333 210 88c0 0 -70 72 -70 72c-38.667 -38.667 -85.333 -58 -140 -58c-54.667 0 -101.333 19.333 -140 58c0 0 -70 -72 -70 -72m-140 -140c97.333 -98.667 214.333 -148 351 -148c136.667 0 253 49.333 349 148c0 0 -70 70 -70 70c-77.333 -78.667 -170.333 -118 -279 -118c-108.667 0 -202.333 39.333 -281 118c0 0 -70 -70 -70 -70m-140 -142c136 -137.333 299.667 -206 491 -206c191.333 0 354.333 68.667 489 206c0 0 -70 70 -70 70c-116 -117.333 -256 -176 -420 -176c-164 0 -304 58.667 -420 176c0 0 -70 -70 -70 -70" />
  </g>
</svg>