<svg height="1000px" width="920px" xmlns="http://www.w3.org/2000/svg">
  <g>
    <path d="M894 600c17.333 38.667 26 78 26 118c0 72 -25 133.667 -75 185c-50 51.333 -109.667 77 -179 77c-41.333 0 -81.333 -10.667 -120 -32c-34.667 5.333 -61.333 8 -80 8c-121.333 0 -225 -44 -311 -132c-86 -88 -129 -194.667 -129 -320c0 -29.333 3.333 -59.333 10 -90c-24 -40 -36 -84.667 -36 -134c0 -72 24.667 -133.333 74 -184c49.333 -50.667 109.333 -76 180 -76c49.333 0 94.667 13.333 136 40c21.333 -5.333 46.667 -8 76 -8c121.333 0 224.667 44 310 132c85.333 88 128 194.667 128 320c0 30.667 -3.333 62.667 -10 96c0 0 0 0 0 0m-204 120c20 -30.667 30 -64 30 -100c0 -29.333 -5.333 -56 -16 -80c-10.667 -20 -27.333 -38 -50 -54c-24 -14.667 -49.333 -26.667 -76 -36c-45.333 -13.333 -77.333 -22 -96 -26c-9.333 -1.333 -21 -3.667 -35 -7c-14 -3.333 -23 -5.667 -27 -7c-16 -5.333 -27.333 -10 -34 -14c-10.667 -5.333 -19.333 -12.667 -26 -22c-6.667 -6.667 -10 -15.333 -10 -26c0 -16 9.333 -30 28 -42c17.333 -13.333 42.667 -20 76 -20c33.333 0 58 6 74 18c17.333 14.667 30 31.333 38 50c10.667 17.333 19.333 29.333 26 36c10.667 8 23.333 12 38 12c17.333 0 32.667 -6.667 46 -20c12 -12 18 -26.667 18 -44c0 -13.333 -4.667 -30.667 -14 -52c-10.667 -16 -24.667 -32 -42 -48c-18.667 -14.667 -43.333 -27.333 -74 -38c-32 -9.333 -66 -14 -102 -14c-48 0 -90.667 7.333 -128 22c-37.333 13.333 -66 33.333 -86 60c-20 26.667 -30 57.333 -30 92c0 34.667 9.333 64.667 28 90c22.667 26.667 48 45.333 76 56c32 14.667 70.667 26.667 116 36c8 1.333 17.667 3.667 29 7c11.333 3.333 21.333 6 30 8c8.667 2 15.667 3.667 21 5c18.667 6.667 34 16 46 28c12 9.333 18 23.333 18 42c0 22.667 -10.667 41.333 -32 56c-24 16 -54 24 -90 24c-26.667 0 -48 -4 -64 -12c-17.333 -9.333 -29.333 -18.667 -36 -28c-16 -29.333 -24.667 -44.667 -26 -46c-5.333 -16 -13.333 -29.333 -24 -40c-13.333 -9.333 -26.667 -14 -40 -14c-18.667 0 -34 6 -46 18c-12 12 -18 26 -18 42c0 25.333 9.333 52.667 28 82c17.333 26.667 41.333 48.667 72 66c42.667 22.667 95.333 34 158 34c52 0 98 -8 138 -24c40 -18.667 69.333 -42 88 -70c0 0 0 0 0 0" />
  </g>
</svg>