<svg height="1000px" width="960px" xmlns="http://www.w3.org/2000/svg">
  <g>
    <path d="M588 492c13.333 8 22.667 18 28 30c6.667 13.333 10 28 10 44c0 21.333 -6 40 -18 56c-8 14.667 -24 28 -48 40c-25.333 9.333 -51.333 14 -78 14c-36 0 -65.333 -6.667 -88 -20c-14.667 -8 -28 -20 -40 -36c-10.667 -17.333 -16 -32.667 -16 -46c0 -9.333 3.333 -17.333 10 -24c9.333 -6.667 18 -10 26 -10c9.333 0 16.667 2.667 22 8c5.333 2.667 10 10 14 22c1.333 4 3.667 9 7 15c3.333 6 5.667 9.667 7 11c4 5.333 10.667 10.667 20 16c10.667 4 22.667 6 36 6c21.333 0 38 -4 50 -12c12 -9.333 18 -20 18 -32c0 -10.667 -3.333 -18.667 -10 -24c-6.667 -6.667 -15.333 -12 -26 -16c-4 -1.333 -11 -3 -21 -5c-10 -2 -17.667 -3.667 -23 -5c-13.333 -2.667 -35.333 -9.333 -66 -20c-13.333 -6.667 -27.333 -17.333 -42 -32c-10.667 -14.667 -16 -32 -16 -52c0 -18.667 6 -35.333 18 -50c10.667 -14.667 26.667 -26 48 -34c20 -8 44 -12 72 -12c22.667 0 41.333 2.667 56 8c13.333 2.667 27.333 9.333 42 20c12 12 20 21.333 24 28c4 10.667 6 20.667 6 30c0 9.333 -3.333 17.333 -10 24c-6.667 6.667 -14.667 10 -24 10c-8 0 -15.333 -2 -22 -6c-5.333 -5.333 -10 -12 -14 -20c-6.667 -12 -14 -21.333 -22 -28c-6.667 -6.667 -20.667 -10 -42 -10c-17.333 0 -31.333 3.333 -42 10c-10.667 8 -16 16 -16 24c0 6.667 2 12 6 16c5.333 5.333 10 8.667 14 10c2.667 1.333 9.333 4 20 8c12 4 23.333 7.333 34 10c24 5.333 42 10 54 14c18.667 6.667 32.667 13.333 42 20c0 0 0 0 0 0m-108 -472c133.333 0 246.667 46.667 340 140c93.333 93.333 140 206.667 140 340c0 132 -46.667 245 -140 339c-93.333 94 -206.667 141 -340 141c-132 0 -245 -47 -339 -141c-94 -94 -141 -207 -141 -339c0 -133.333 47 -246.667 141 -340c94 -93.333 207 -140 339 -140c0 0 0 0 0 0m116 748c38.667 0 72 -14.333 100 -43c28 -28.667 42 -63 42 -103c0 -22.667 -5.333 -44.667 -16 -66c4 -18.667 6 -36.667 6 -54c0 -69.333 -24 -128.667 -72 -178c-48 -49.333 -106 -74 -174 -74c-18.667 0 -32.667 0.667 -42 2c-22.667 -14.667 -47.333 -22 -74 -22c-40 0 -74 14.333 -102 43c-28 28.667 -42 63 -42 103c0 26.667 6.667 52 20 76c-2.667 10.667 -4 27.333 -4 50c0 69.333 24 128.667 72 178c48 49.333 105.333 74 172 74c21.333 0 36.667 -1.333 46 -4c20 12 42.667 18 68 18c0 0 0 0 0 0" />
  </g>
</svg>