<svg height="1000px" width="939.41650390625px" xmlns="http://www.w3.org/2000/svg">
  <g>
    <path d="M416.75 564c100 38.667 153.333 86 160 142c5.333 40 -13.333 68 -56 84c-14.667 6.667 -31.333 10 -50 10c-37.333 0 -74 -6.667 -110 -20c-36 -13.333 -62 -26.667 -78 -40c0 0 -26 -18 -26 -18c0 0 -74 170 -74 170c42.667 21.333 88 40 136 56c0 0 -80 20 -80 20c-18.667 4 -36 1 -52 -9c-16 -10 -26.667 -24.333 -32 -43c0 0 -154 -646 -154 -646c-4 -18.667 -1 -36.333 9 -53c10 -16.667 24.333 -27 43 -31c0 0 186 -44 186 -44c-44 48 -64 108.667 -60 182c4 52 28 99 72 141c44 42 99.333 75 166 99c0 0 0 0 0 0m520 164c5.333 18.667 2.667 36.333 -8 53c-10.667 16.667 -25.333 27 -44 31c0 0 -136 34 -136 34c28 -38.667 42.667 -84 44 -136c2.667 -58.667 -15.333 -113.333 -54 -164c-38.667 -50.667 -100.667 -90 -186 -118c-101.333 -34.667 -154 -76.667 -158 -126c-4 -34.667 14.667 -58.667 56 -72c16 -6.667 34 -9.333 54 -8c38.667 1.333 72.667 7 102 17c29.333 10 49.333 19.667 60 29c0 0 16 14 16 14c0 0 58 -160 58 -160c-53.333 -28 -112 -48 -176 -60c0 0 134 -32 134 -32c18.667 -4 36 -1 52 9c16 10 26.667 24.333 32 43c0 0 154 646 154 646" />
  </g>
</svg>