<svg height="1000px" width="910.1875px" xmlns="http://www.w3.org/2000/svg">
  <g>
    <path d="M175.9375 262c28 -28 77.667 -26.333 149 5c71.333 31.333 143.667 83.667 217 157c73.333 73.333 125.667 145.667 157 217c31.333 71.333 33 121 5 149c-18.667 18.667 -49.333 41 -92 67c-42.667 26 -94.667 52 -156 78c-61.333 26 -126 35.667 -194 29c-68 -6.667 -126.667 -34.667 -176 -84c-49.333 -49.333 -77.333 -108 -84 -176c-6.667 -68 3 -132.667 29 -194c26 -61.333 52 -113.333 78 -156c26 -42.667 48.333 -73.333 67 -92c0 0 0 0 0 0m464 480c5.333 -6.667 4.333 -23 -3 -49c-7.333 -26 -23.667 -59.667 -49 -101c-25.333 -41.333 -57.333 -80.667 -96 -118c-37.333 -38.667 -76.667 -70.667 -118 -96c-41.333 -25.333 -75 -41.667 -101 -49c-26 -7.333 -42.333 -8.333 -49 -3c-5.333 6.667 -4.333 23 3 49c7.333 26 23.667 59.667 49 101c25.333 41.333 56.667 81.333 94 120c38.667 37.333 78.667 68.667 120 94c41.333 25.333 75 41.667 101 49c26 7.333 42.333 8.333 49 3c0 0 0 0 0 0m6 -394c-12 0 -23.333 -5.333 -34 -16c-10.667 -9.333 -16 -21 -16 -35c0 -14 5.333 -25.667 16 -35c0 0 94 -96 94 -96c24 -21.333 48 -21.333 72 0c21.333 24 21.333 48 0 72c0 0 -96 94 -96 94c-10.667 10.667 -22.667 16 -36 16c0 0 0 0 0 0m-180 -124c-12 -6.667 -19.667 -16.667 -23 -30c-3.333 -13.333 -1.667 -26 5 -38c0 0 54 -96 54 -96c17.333 -29.333 40 -36 68 -20c12 6.667 19.667 16.667 23 30c3.333 13.333 1.667 26 -5 38c0 0 -54 96 -54 96c-9.333 17.333 -23.333 26 -42 26c-9.333 0 -18 -2 -26 -6c0 0 0 0 0 0m438 150c6.667 12 8 24.667 4 38c-4 13.333 -12 23.333 -24 30c0 0 -96 54 -96 54c-10.667 5.333 -18.667 8 -24 8c-18.667 0 -33.333 -8.667 -44 -26c-6.667 -12 -8 -24.667 -4 -38c4 -13.333 12 -23.333 24 -30c0 0 96 -54 96 -54c12 -6.667 24.667 -8.333 38 -5c13.333 3.333 23.333 11 30 23c0 0 0 0 0 0" />
  </g>
</svg>