<svg height="1000px" width="1000px" xmlns="http://www.w3.org/2000/svg">
  <g>
    <path d="M34 672c0 2.667 -3.333 4 -10 4c-4 0 -7.333 -1.333 -10 -4c0 0 -14 -70 -14 -70c0 0 14 -72 14 -72c2.667 -2.667 6 -4 10 -4c6.667 0 10 1.333 10 4c0 0 16 72 16 72c0 0 -16 70 -16 70m102 38c0 5.333 -4 8 -12 8c-8 0 -12 -2.667 -12 -8c0 0 -12 -108 -12 -108c0 0 12 -166 12 -166c0 -5.333 4 -8 12 -8c8 0 12 2.667 12 8c0 0 14 166 14 166c0 0 -14 108 -14 108m102 -2c0 6.667 -4.667 10 -14 10c-9.333 0 -14 -2.667 -14 -8c0 0 -10 -108 -10 -108c0 0 10 -222 10 -222c0 -6.667 4.667 -10 14 -10c9.333 0 14 3.333 14 10c0 0 12 222 12 222c0 0 -12 106 -12 106m102 0c0 6.667 -5.333 10 -16 10c-10.667 0 -16 -3.333 -16 -10c0 0 -8 -106 -8 -106c0 0 8 -224 8 -224c0 -6.667 5.333 -10 16 -10c10.667 0 16 3.333 16 10c0 0 10 224 10 224c0 0 -10 106 -10 106m102 -2c0 8 -6 12 -18 12c-10.667 0 -16.667 -4 -18 -12c0 0 -6 -104 -6 -104c0 0 6 -256 6 -256c2.667 -9.333 8.667 -14 18 -14c12 0 18 4.667 18 14c0 0 8 256 8 256c0 0 -8 104 -8 104m72 12c-9.333 0 -14 -4.667 -14 -14c0 0 0 -396 0 -396c0 -6.667 4 -11.333 12 -14c24 -9.333 52 -14 84 -14c58.667 0 109.667 19.333 153 58c43.333 38.667 67.667 86 73 142c16 -6.667 32.667 -10 50 -10c34.667 0 64.667 12.333 90 37c25.333 24.667 38 53.667 38 87c0 34.667 -12.667 64.333 -38 89c-25.333 24.667 -55.333 37 -90 37c0 0 -358 -2 -358 -2" />
  </g>
</svg>