<svg height="1000px" width="960px" xmlns="http://www.w3.org/2000/svg">
  <g>
    <path d="M480 20c132 0 245 46.667 339 140c94 93.333 141 206.667 141 340c0 80 -18.667 154.667 -56 224c-37.333 69.333 -88 126 -152 170c-72 -124 -184.667 -188 -338 -192c-117.333 -4 -216 34 -296 114c-78.667 -92 -118 -197.333 -118 -316c0 -133.333 46.667 -246.667 140 -340c93.333 -93.333 206.667 -140 340 -140c0 0 0 0 0 0m234 650c9.333 -17.333 6 -30.667 -10 -40c-125.333 -76 -278.667 -94 -460 -54c-20 5.333 -27.333 17.333 -22 36c5.333 20 17.333 27.333 36 22c164 -38.667 302.667 -23.333 416 46c17.333 9.333 30.667 6 40 -10c0 0 0 0 0 0m58 -136c12 -22.667 8 -39.333 -12 -50c-73.333 -45.333 -158.667 -73.667 -256 -85c-97.333 -11.333 -189.333 -4.333 -276 21c-22.667 6.667 -30.667 22 -24 46c6.667 22.667 22 31.333 46 26c74.667 -22.667 156 -29 244 -19c88 10 164 34.333 228 73c21.333 13.333 38 9.333 50 -12c0 0 0 0 0 0m4 -142c25.333 16 46 11.333 62 -14c13.333 -25.333 8 -46 -16 -62c-84 -49.333 -188.667 -79 -314 -89c-125.333 -10 -227.333 -1 -306 27c-12 2.667 -21 9.667 -27 21c-6 11.333 -7 22.333 -3 33c4 12 11.333 21 22 27c10.667 6 22 7 34 3c68 -24 158.333 -31.667 271 -23c112.667 8.667 205 34.333 277 77c0 0 0 0 0 0m-364 454c86.667 2.667 148.667 42 186 118c-40 10.667 -79.333 16 -118 16c-84 0 -162 -20.667 -234 -62c44 -49.333 99.333 -73.333 166 -72c0 0 0 0 0 0" />
  </g>
</svg>