<svg height="1000px" width="960px" xmlns="http://www.w3.org/2000/svg">
  <g>
    <path d="M480 20c132 0 245 46.667 339 140c94 93.333 141 206.667 141 340c0 132 -47 245 -141 339c-94 94 -207 141 -339 141c-133.333 0 -246.667 -47 -340 -141c-93.333 -94 -140 -207 -140 -339c0 -133.333 46.667 -246.667 140 -340c93.333 -93.333 206.667 -140 340 -140c0 0 0 0 0 0m0 368c17.333 0 26 8.667 26 26c0 0 0 30 0 30c0 0 34 18 34 18c0 0 52 -18 52 -18c0 0 0 -30 0 -30c0 -30.667 -11 -57 -33 -79c-22 -22 -48.333 -33 -79 -33c-30.667 0 -57.333 11 -80 33c-22.667 22 -34 48.333 -34 79c0 0 0 160 0 160c0 17.333 -8.667 26 -26 26c-17.333 0 -26 -8.667 -26 -26c0 0 0 -68 0 -68c0 0 -88 0 -88 0c0 0 0 68 0 68c0 30.667 11.333 57 34 79c22.667 22 49.333 33 80 33c30.667 0 57 -11 79 -33c22 -22 33 -48.333 33 -79c0 0 0 -160 0 -160c0 -17.333 9.333 -26 28 -26c0 0 0 0 0 0m252 186c0 0 0 -68 0 -68c0 0 -86 0 -86 0c0 0 0 68 0 68c0 17.333 -8.667 26 -26 26c-18.667 0 -28 -8.667 -28 -26c0 0 0 -68 0 -68c0 0 -52 16 -52 16c0 0 -34 -16 -34 -16c0 0 0 68 0 68c0 30.667 11 57 33 79c22 22 49 33 81 33c30.667 0 57 -11 79 -33c22 -22 33 -48.333 33 -79c0 0 0 0 0 0" />
  </g>
</svg>