<svg height="1000px" width="860px" xmlns="http://www.w3.org/2000/svg">
  <g>
    <path d="M430 70c118.667 0 220 42 304 126c84 84 126 185.333 126 304c0 118.667 -42 220 -126 304c-84 84 -185.333 126 -304 126c-118.667 0 -220 -42 -304 -126c-84 -84 -126 -185.333 -126 -304c0 -118.667 42 -220 126 -304c84 -84 185.333 -126 304 -126c0 0 0 0 0 0m36 778c82.667 -9.333 153.333 -43.333 212 -102c58.667 -58.667 92 -129.333 100 -212c0 0 -192 0 -192 0c0 0 0 -70 0 -70c0 0 192 0 192 0c-8 -82.667 -41.333 -153.333 -100 -212c-58.667 -58.667 -129.333 -92.667 -212 -102c0 0 0 194 0 194c0 0 -70 0 -70 0c0 0 0 -194 0 -194c-82.667 9.333 -153.667 43.333 -213 102c-59.333 58.667 -93 129.333 -101 212c0 0 194 0 194 0c0 0 0 70 0 70c0 0 -194 0 -194 0c8 82.667 41.667 153.333 101 212c59.333 58.667 130.333 92.667 213 102c0 0 0 -194 0 -194c0 0 70 0 70 0c0 0 0 194 0 194c0 0 0 0 0 0" />
  </g>
</svg>