<svg height="1000px" width="800px" xmlns="http://www.w3.org/2000/svg">
  <g>
    <path d="M582 370c1.333 4 20.667 8.333 58 13c37.333 4.667 73.333 12.667 108 24c34.667 11.333 52 27 52 47c0 48 -20.333 142.667 -61 284c-40.667 141.333 -76.333 212 -107 212c-96 0 -192 -14 -288 -42c-96 -28 -144 -57.333 -144 -88c0 0 0 -342 0 -342c0 -9.333 5 -20.667 15 -34c10 -13.333 25.333 -28.333 46 -45c20.667 -16.667 38.333 -30.333 53 -41c14.667 -10.667 35.333 -25 62 -43c26.667 -18 42 -28.333 46 -31c33.333 -22.667 68 -56 104 -100c36 -44 64.333 -78.667 85 -104c20.667 -25.333 34.333 -34 41 -26c32 50.667 41.667 96.333 29 137c-12.667 40.667 -32.333 80.333 -59 119c-26.667 38.667 -40 58.667 -40 60c0 0 0 0 0 0m-432 4c9.333 0 9.333 4.667 0 14c-33.333 33.333 -50 68 -50 104c0 0 0 318 0 318c0 33.333 17.333 68 52 104c6.667 6.667 6 10 -2 10c-17.333 0 -35.667 -2.667 -55 -8c-19.333 -5.333 -40 -20.333 -62 -45c-22 -24.667 -33 -57.667 -33 -99c0 0 0 -242 0 -242c0 -41.333 11 -74.667 33 -100c22 -25.333 43 -41 63 -47c20 -6 38 -9 54 -9c0 0 0 0 0 0" />
  </g>
</svg>