<svg height="1000px" width="600px" xmlns="http://www.w3.org/2000/svg">
  <g>
    <path d="M412 476c9.333 6.667 14 14.667 14 24c0 8 -4.667 15.333 -14 22c0 0 -362 228 -362 228c-14.667 9.333 -26.667 11 -36 5c-9.333 -6 -14 -17.667 -14 -35c0 0 0 -442 0 -442c0 -17.333 4.667 -29 14 -35c9.333 -6 21.333 -4.333 36 5c0 0 362 228 362 228m114 -268c49.333 0 74 19.333 74 58c0 0 0 466 0 466c0 38.667 -24.667 58 -74 58c-50.667 0 -76 -19.333 -76 -58c0 0 0 -466 0 -466c0 -38.667 25.333 -58 76 -58c0 0 0 0 0 0" />
  </g>
</svg>