<svg height="1000px" width="600px" xmlns="http://www.w3.org/2000/svg">
  <g>
    <path d="M174 500c0 -9.333 4.667 -17.333 14 -24c0 0 364 -228 364 -228c13.333 -9.333 24.667 -11 34 -5c9.333 6 14 17.667 14 35c0 0 0 442 0 442c0 17.333 -4.667 29 -14 35c-9.333 6 -20.667 4.333 -34 -5c0 0 -364 -228 -364 -228c-9.333 -6.667 -14 -14 -14 -22c0 0 0 0 0 0m-174 -234c0 -38.667 25.333 -58 76 -58c49.333 0 74 19.333 74 58c0 0 0 466 0 466c0 38.667 -24.667 58 -74 58c-50.667 0 -76 -19.333 -76 -58c0 0 0 -466 0 -466c0 0 0 0 0 0" />
  </g>
</svg>