<svg height="1000px" width="999.87109375px" xmlns="http://www.w3.org/2000/svg">
  <g>
    <path d="M154.5390625 344c-5.333 5.333 -9 12.667 -11 22c-2 9.333 -3 17.667 -3 25c0 7.333 -0.667 11 -2 11c-1.333 1.333 -7 6.333 -17 15c-10 8.667 -16.333 14.333 -19 17c-10.667 9.333 -20 8 -28 -4c0 0 -70 -76 -70 -76c-6.667 -8 -6 -16 2 -24c1.333 -1.333 7.333 -6 18 -14c10.667 -8 17.333 -13.333 20 -16c4 -4 13 -6 27 -6c14 0 26.333 -4.667 37 -14c9.333 -9.333 15.333 -22 18 -38c2.667 -16 6 -26 10 -30c1.333 0 4.333 -2.333 9 -7c4.667 -4.667 13.333 -12 26 -22c12.667 -10 26.333 -20.333 41 -31c89.333 -60 151.333 -92 186 -96c81.333 0 130.667 0.667 148 2c8 0 5.333 2.667 -8 8c-80 34.667 -130.667 60 -152 76c-53.333 37.333 -65.333 75.333 -36 114c22.667 30.667 35.333 46.667 38 48c5.333 5.333 4.667 10 -2 14c-1.333 1.333 -14 13 -38 35c-24 22 -36.667 33.667 -38 35c-9.333 5.333 -15.333 6.667 -18 4c-28 -32 -51.667 -52 -71 -60c-19.333 -8 -41.667 -4 -67 12c0 0 0 0 0 0m286 26c0 0 410 476 410 476c12 14.667 11.333 27.333 -2 38c0 0 -48 42 -48 42c-14.667 9.333 -27.333 8 -38 -4c0 0 -414 -472 -414 -472c-5.333 -5.333 -5.333 -12 0 -20c0 0 72 -62 72 -62c8 -5.333 14.667 -4.667 20 2c0 0 0 0 0 0m554 -202c10.667 69.333 5.333 124.667 -16 166c-33.333 58.667 -84.667 79.333 -154 62c-37.333 -8 -70.667 2.667 -100 32c0 0 -82 78 -82 78c0 0 -68 -78 -68 -78c0 0 68 -70 68 -70c16 -16 26.333 -33.667 31 -53c4.667 -19.333 6.667 -41 6 -65c-0.667 -24 1 -43.333 5 -58c8 -37.333 54.667 -74.667 140 -112c8 -4 14 -3 18 3c4 6 4.667 11 2 15c-8 8 -23.333 34.667 -46 80c-9.333 6.667 -13.333 18.333 -12 35c1.333 16.667 14.667 34.333 40 53c38.667 26.667 70.667 19.333 96 -22c4 -8 12.667 -21.667 26 -41c13.333 -19.333 20.667 -30.333 22 -33c2.667 -6.667 7 -9.667 13 -9c6 0.667 9.667 6.333 11 17c0 0 0 0 0 0m-858 684c0 0 254 -248 254 -248c0 0 76 86 76 86c0 0 -246 242 -246 242c-13.333 13.333 -26 14.667 -38 4c0 0 -46 -46 -46 -46c-14.667 -12 -14.667 -24.667 0 -38c0 0 0 0 0 0" />
  </g>
</svg>