<svg height="1000px" width="760px" xmlns="http://www.w3.org/2000/svg">
  <g>
    <path d="M50 392c81.333 46.667 191.333 70 330 70c138.667 0 248.667 -23.333 330 -70c0 0 -54 486 -54 486c-1.333 9.333 -13 21.333 -35 36c-22 14.667 -55.333 29 -100 43c-44.667 14 -91.667 21 -141 21c-49.333 0 -96 -7 -140 -21c-44 -14 -77.333 -28.333 -100 -43c-22.667 -14.667 -34.667 -26.667 -36 -36c0 0 -54 -486 -54 -486m488 -300c62.667 12 115.333 30.333 158 55c42.667 24.667 64 48.333 64 71c0 0 0 10 0 10c0 38.667 -37.333 71.667 -112 99c-74.667 27.333 -164 41 -268 41c-104 0 -193.333 -13.667 -268 -41c-74.667 -27.333 -112 -60.333 -112 -99c0 0 0 -10 0 -10c0 -22.667 21.333 -46.333 64 -71c42.667 -24.667 95.333 -43 158 -55c0 0 42 -48 42 -48c14.667 -17.333 38 -26 70 -26c0 0 92 0 92 0c34.667 0 58 8.667 70 26c0 0 42 48 42 48m-54 112c0 0 84 0 84 0c-61.333 -73.333 -96 -115.333 -104 -126c-9.333 -10.667 -20 -16 -32 -16c0 0 -102 0 -102 0c-14.667 0 -25.333 5.333 -32 16c0 0 -106 126 -106 126c0 0 84 0 84 0c0 0 64 -66 64 -66c0 0 82 0 82 0c0 0 62 66 62 66" />
  </g>
</svg>