<svg height="1000px" width="560px" xmlns="http://www.w3.org/2000/svg">
  <g>
    <path d="M560 908c-32 17.333 -67.333 30.667 -106 40c-32 8 -66 12 -102 12c-38.667 0 -75.333 -5.333 -110 -16c-36 -13.333 -63.333 -28.667 -82 -46c-24 -21.333 -39.333 -42.667 -46 -64c-9.333 -20 -14 -52 -14 -96c0 0 0 -322 0 -322c0 0 -100 0 -100 0c0 0 0 -130 0 -130c36 -12 66.667 -28.667 92 -50c25.333 -21.333 46 -48 62 -80c16 -34.667 26 -73.333 30 -116c0 0 130 0 130 0c0 0 0 232 0 232c0 0 216 0 216 0c0 0 0 144 0 144c0 0 -216 0 -216 0c0 0 0 236 0 236c0 56 2.667 90 8 102c6.667 16 17.333 28 32 36c18.667 13.333 41.333 20 68 20c45.333 0 91.333 -15.333 138 -46c0 0 0 144 0 144c0 0 0 0 0 0" />
  </g>
</svg>