<svg height="1000px" width="960px" xmlns="http://www.w3.org/2000/svg">
  <g>
    <path d="M480 20c133.333 0 246.667 46.667 340 140c93.333 93.333 140 206.667 140 340c0 132 -46.667 245 -140 339c-93.333 94 -206.667 141 -340 141c-132 0 -245 -47 -339 -141c-94 -94 -141 -207 -141 -339c0 -133.333 47 -246.667 141 -340c94 -93.333 207 -140 339 -140c0 0 0 0 0 0m130 686c0 0 0 -74 0 -74c-24 16 -47.333 24 -70 24c-10.667 0 -22.667 -3.333 -36 -10c-8 -5.333 -12.667 -11.333 -14 -18c-4 -8 -6 -25.333 -6 -52c0 0 0 -118 0 -118c0 0 110 0 110 0c0 0 0 -74 0 -74c0 0 -110 0 -110 0c0 0 0 -118 0 -118c0 0 -64 0 -64 0c-5.333 28 -10.667 48 -16 60c-6.667 14.667 -17.333 28 -32 40c-14.667 12 -30 20.667 -46 26c0 0 0 66 0 66c0 0 50 0 50 0c0 0 0 162 0 162c0 18.667 2.667 34.667 8 48c4 10.667 12 21.333 24 32c9.333 9.333 22.667 17.333 40 24c21.333 5.333 40 8 56 8c18.667 0 36 -2 52 -6c18.667 -4 36.667 -10.667 54 -20c0 0 0 0 0 0" />
  </g>
</svg>