<svg height="1000px" width="920px" xmlns="http://www.w3.org/2000/svg">
  <g>
    <path d="M460 960c-126.667 0 -235 -45 -325 -135c-90 -90 -135 -198.333 -135 -325c0 -128 45 -236.667 135 -326c90 -89.333 198.333 -134 325 -134c126.667 0 235 44.667 325 134c90 89.333 135 198 135 326c0 126.667 -45 235 -135 325c-90 90 -198.333 135 -325 135c0 0 0 0 0 0m0 -820c-98.667 0 -183.333 35 -254 105c-70.667 70 -106 155 -106 255c0 98.667 35.333 183.333 106 254c70.667 70.667 155.333 106 254 106c100 0 185 -35.333 255 -106c70 -70.667 105 -155.333 105 -254c0 -100 -35 -185 -105 -255c-70 -70 -155 -105 -255 -105c0 0 0 0 0 0m-90 552c0 0 0 -204 0 -204c0 0 -112 0 -112 0c0 0 202 -192 202 -192c0 0 202 192 202 192c0 0 -112 0 -112 0c0 0 0 204 0 204c0 0 -180 0 -180 0c0 0 0 0 0 0" />
  </g>
</svg>