<svg height="1000px" width="1000px" xmlns="http://www.w3.org/2000/svg">
  <g>
    <path d="M620 722c120 42.667 180 83.333 180 122c0 0 0 106 0 106c0 0 -800 0 -800 0c0 0 0 -202 0 -202c24 -9.333 51.333 -18 82 -26c62.667 -22.667 105.667 -45.667 129 -69c23.333 -23.333 35 -55 35 -95c0 -14.667 -7.667 -30.667 -23 -48c-15.333 -17.333 -25.667 -42 -31 -74c-1.333 -8 -9 -16.333 -23 -25c-14 -8.667 -22.333 -29 -25 -61c0 -10.667 1.667 -19.333 5 -26c3.333 -6.667 6.333 -10.667 9 -12c0 0 4 -4 4 -4c-5.333 -33.333 -9.333 -62.667 -12 -88c-4 -36 9.333 -73.333 40 -112c30.667 -38.667 84 -58 160 -58c76 0 129.333 19.333 160 58c30.667 38.667 44.667 76 42 112c0 0 -14 88 -14 88c12 5.333 18 19.333 18 42c-1.333 18.667 -4.333 33 -9 43c-4.667 10 -9.333 15.667 -14 17c-4.667 1.333 -9.333 4 -14 8c-4.667 4 -7.667 10 -9 18c-6.667 30.667 -17.667 55 -33 73c-15.333 18 -23 34.333 -23 49c0 40 12 71.667 36 95c24 23.333 67.333 46.333 130 69c0 0 0 0 0 0m230 -272c0 0 150 0 150 0c0 0 0 100 0 100c0 0 -150 0 -150 0c0 0 0 150 0 150c0 0 -100 0 -100 0c0 0 0 -150 0 -150c0 0 -150 0 -150 0c0 0 0 -100 0 -100c0 0 150 0 150 0c0 0 0 -150 0 -150c0 0 100 0 100 0c0 0 0 150 0 150c0 0 0 0 0 0" />
  </g>
</svg>