<svg height="1000px" width="1000px" xmlns="http://www.w3.org/2000/svg">
  <g>
    <path d="M1000 940c0 0 -224 0 -224 0c0 0 0 -150 0 -150c0 -36 -10 -63 -30 -81c-20 -18 -71.333 -47.667 -154 -89c26.667 -20 40 -48 40 -84c0 -10.667 -4.333 -21.667 -13 -33c-8.667 -11.333 -15 -28.333 -19 -51c-1.333 -5.333 -6 -10.667 -14 -16c-8 -5.333 -12.667 -19.333 -14 -42c0 -16 4 -26 12 -30c-4 -22.667 -6.667 -42.667 -8 -60c-2.667 -25.333 5 -51.333 23 -78c18 -26.667 49.667 -40 95 -40c45.333 0 77.333 13.333 96 40c18.667 26.667 26.667 52.667 24 78c0 0 -8 60 -8 60c8 4 12 14 12 30c-1.333 22.667 -6 36.667 -14 42c-8 5.333 -12.667 10.667 -14 16c-4 22.667 -10.333 39.667 -19 51c-8.667 11.333 -13 22.333 -13 33c0 28 7 50 21 66c14 16 39.667 32 77 48c74.667 30.667 118 57.333 130 80c4 5.333 7 25.667 9 61c2 35.333 3.667 69 5 101c0 0 0 48 0 48c0 0 0 0 0 0m-488 -262c121.333 52 182 93.333 182 124c0 0 0 138 0 138c0 0 -694 0 -694 0c0 0 0 -184 0 -184c0 -29.333 28 -55.333 84 -78c50.667 -21.333 85.333 -42.667 104 -64c18.667 -21.333 28 -50.667 28 -88c0 -13.333 -6.333 -28 -19 -44c-12.667 -16 -21 -38.667 -25 -68c-1.333 -6.667 -7.333 -14 -18 -22c-10.667 -8 -17.333 -26.667 -20 -56c0 -9.333 1 -17 3 -23c2 -6 4.333 -10.333 7 -13c0 0 4 -2 4 -2c-4 -30.667 -7.333 -58 -10 -82c-2.667 -33.333 8.333 -67.667 33 -103c24.667 -35.333 67 -53 127 -53c60 0 102.333 17.667 127 53c24.667 35.333 35.667 69.667 33 103c0 0 -10 82 -10 82c9.333 5.333 14 18 14 38c-2.667 29.333 -9.333 48 -20 56c-10.667 8 -16.667 15.333 -18 22c-4 29.333 -12.333 52 -25 68c-12.667 16 -19 30.667 -19 44c0 37.333 9.333 66.667 28 88c18.667 21.333 53.333 42.667 104 64c0 0 0 0 0 0" />
  </g>
</svg>