<svg height="1000px" width="980px" xmlns="http://www.w3.org/2000/svg">
  <g>
    <path d="M980 250c0 0 -100 0 -100 0c0 0 0 100 0 100c0 0 100 0 100 0c0 0 0 100 0 100c0 0 -100 0 -100 0c0 0 0 100 0 100c0 0 100 0 100 0c0 0 0 100 0 100c0 0 -100 0 -100 0c0 0 0 100 0 100c0 0 100 0 100 0c0 0 0 60 0 60c0 10.667 -4 20 -12 28c-8 8 -17.333 12 -28 12c0 0 -900 0 -900 0c-10.667 0 -20 -4 -28 -12c-8 -8 -12 -17.333 -12 -28c0 0 0 -60 0 -60c0 0 100 0 100 0c0 0 0 -100 0 -100c0 0 -100 0 -100 0c0 0 0 -100 0 -100c0 0 100 0 100 0c0 0 0 -100 0 -100c0 0 -100 0 -100 0c0 0 0 -100 0 -100c0 0 100 0 100 0c0 0 0 -100 0 -100c0 0 -100 0 -100 0c0 0 0 -60 0 -60c0 -12 4 -21.667 12 -29c8 -7.333 17.333 -11 28 -11c0 0 900 0 900 0c10.667 0 20 3.667 28 11c8 7.333 12 17 12 29c0 0 0 60 0 60c0 0 0 0 0 0m-600 400c0 0 250 -150 250 -150c0 0 -250 -150 -250 -150c0 0 0 300 0 300c0 0 0 0 0 0" />
  </g>
</svg>