<svg height="1000px" width="900.6640625px" xmlns="http://www.w3.org/2000/svg">
  <g>
    <path d="M896 292c-21.333 124 -78.333 241 -171 351c-92.667 110 -174.333 189 -245 237c-28 18.667 -55 24.333 -81 17c-26 -7.333 -48 -20 -66 -38c-18 -18 -32.333 -38.333 -43 -61c-10.667 -21.333 -36.667 -101 -78 -239c-41.333 -138 -66 -212.333 -74 -223c-10.667 -8 -23.333 -9.667 -38 -5c-14.667 4.667 -29.333 11.667 -44 21c0 0 -20 14 -20 14c0 0 -36 -50 -36 -50c12 -13.333 27.333 -30.667 46 -52c18.667 -21.333 52 -51 100 -89c48 -38 89.333 -60.333 124 -67c20 -4 37.667 -1.667 53 7c15.333 8.667 27.333 20.333 36 35c8.667 14.667 16.333 34.667 23 60c6.667 25.333 11.667 48.667 15 70c3.333 21.333 7.333 46.333 12 75c4.667 28.667 9 51 13 67c9.333 36 16.333 62.667 21 80c4.667 17.333 10.333 35.333 17 54c6.667 18.667 12.667 31.667 18 39c5.333 7.333 11.333 11 18 11c26.667 0 68.667 -55.333 126 -166c28 -50.667 30 -92 6 -124c-24 -32 -61.333 -32.667 -112 -2c14.667 -84 61.333 -146.667 140 -188c69.333 -36 130 -38.667 182 -8c53.333 30.667 72.667 88.667 58 174c0 0 0 0 0 0" />
  </g>
</svg>