<svg height="1000px" width="960px" xmlns="http://www.w3.org/2000/svg">
  <g>
    <path d="M480 20c133.333 0 246.667 46.667 340 140c93.333 93.333 140 206.667 140 340c0 132 -46.667 245 -140 339c-93.333 94 -206.667 141 -340 141c-132 0 -245 -47 -339 -141c-94 -94 -141 -207 -141 -339c0 -133.333 47 -246.667 141 -340c94 -93.333 207 -140 339 -140c0 0 0 0 0 0m220 386c9.333 -54.667 -6.667 -86 -48 -94c-40 -9.333 -76.667 4 -110 40c-18.667 18.667 -30 40.667 -34 66c25.333 -16 44 -15.667 56 1c12 16.667 11.333 37.667 -2 63c-29.333 56 -50.667 84 -64 84c-9.333 0 -21.333 -31.333 -36 -94c-2.667 -9.333 -5.333 -22.667 -8 -40c-2.667 -17.333 -5.333 -32.333 -8 -45c-2.667 -12.667 -6.667 -25.667 -12 -39c-5.333 -13.333 -12 -23 -20 -29c-8 -6 -18 -7.667 -30 -5c-17.333 4 -37.333 14.667 -60 32c-22.667 17.333 -41.333 34 -56 50c0 0 -20 24 -20 24c0 0 18 24 18 24c2.667 -2.667 6 -5.333 10 -8c4 -2.667 11.333 -6 22 -10c10.667 -4 17.333 -3.333 20 2c4 5.333 16.333 43 37 113c20.667 70 33.667 110.333 39 121c9.333 18.667 22 33 38 43c16 10 35.333 9.667 58 -1c36 -24 77.333 -64 124 -120c46.667 -56 75.333 -115.333 86 -178c0 0 0 0 0 0" />
  </g>
</svg>